<?xml version="1.0" encoding="utf-8" standalone="no"?>
<!DOCTYPE svg PUBLIC "-//W3C//DTD SVG 1.1//EN"
  "http://www.w3.org/Graphics/SVG/1.1/DTD/svg11.dtd">
<svg xmlns:xlink="http://www.w3.org/1999/xlink" width="720pt" height="144pt" viewBox="0 0 720 144" xmlns="http://www.w3.org/2000/svg" version="1.1">
 <metadata>
  <rdf:RDF xmlns:dc="http://purl.org/dc/elements/1.1/" xmlns:cc="http://creativecommons.org/ns#" xmlns:rdf="http://www.w3.org/1999/02/22-rdf-syntax-ns#">
   <cc:Work>
    <dc:type rdf:resource="http://purl.org/dc/dcmitype/StillImage"/>
    <dc:date>2023-10-01T20:56:58.505857</dc:date>
    <dc:format>image/svg+xml</dc:format>
    <dc:creator>
     <cc:Agent>
      <dc:title>Matplotlib v3.8.0, https://matplotlib.org/</dc:title>
     </cc:Agent>
    </dc:creator>
   </cc:Work>
  </rdf:RDF>
 </metadata>
 <defs>
  <style type="text/css">*{stroke-linejoin: round; stroke-linecap: butt}</style>
 </defs>
 <g id="figure_1">
  <g id="patch_1">
   <path d="M 0 144 
L 720 144 
L 720 0 
L 0 0 
z
" style="fill: #ffffff"/>
  </g>
  <g id="axes_1">
   <g id="patch_2">
    <path d="M 90 128.16 
L 648 128.16 
L 648 17.28 
L 90 17.28 
z
" style="fill: #ffffff"/>
   </g>
   <g id="matplotlib.axis_1">
    <g id="xtick_1">
     <g id="line2d_1">
      <defs>
       <path id="mc0fde2db75" d="M 0 0 
L 0 3.5 
" style="stroke: #000000; stroke-width: 0.8"/>
      </defs>
      <g>
       <use xlink:href="#mc0fde2db75" x="115.363636" y="128.16" style="stroke: #000000; stroke-width: 0.8"/>
      </g>
     </g>
     <g id="text_1">
      <!-- 2020-06-18 -->
      <g transform="translate(86.305824 142.758438) scale(0.1 -0.1)">
       <defs>
        <path id="DejaVuSans-32" d="M 1228 531 
L 3431 531 
L 3431 0 
L 469 0 
L 469 531 
Q 828 903 1448 1529 
Q 2069 2156 2228 2338 
Q 2531 2678 2651 2914 
Q 2772 3150 2772 3378 
Q 2772 3750 2511 3984 
Q 2250 4219 1831 4219 
Q 1534 4219 1204 4116 
Q 875 4013 500 3803 
L 500 4441 
Q 881 4594 1212 4672 
Q 1544 4750 1819 4750 
Q 2544 4750 2975 4387 
Q 3406 4025 3406 3419 
Q 3406 3131 3298 2873 
Q 3191 2616 2906 2266 
Q 2828 2175 2409 1742 
Q 1991 1309 1228 531 
z
" transform="scale(0.015625)"/>
        <path id="DejaVuSans-30" d="M 2034 4250 
Q 1547 4250 1301 3770 
Q 1056 3291 1056 2328 
Q 1056 1369 1301 889 
Q 1547 409 2034 409 
Q 2525 409 2770 889 
Q 3016 1369 3016 2328 
Q 3016 3291 2770 3770 
Q 2525 4250 2034 4250 
z
M 2034 4750 
Q 2819 4750 3233 4129 
Q 3647 3509 3647 2328 
Q 3647 1150 3233 529 
Q 2819 -91 2034 -91 
Q 1250 -91 836 529 
Q 422 1150 422 2328 
Q 422 3509 836 4129 
Q 1250 4750 2034 4750 
z
" transform="scale(0.015625)"/>
        <path id="DejaVuSans-2d" d="M 313 2009 
L 1997 2009 
L 1997 1497 
L 313 1497 
L 313 2009 
z
" transform="scale(0.015625)"/>
        <path id="DejaVuSans-36" d="M 2113 2584 
Q 1688 2584 1439 2293 
Q 1191 2003 1191 1497 
Q 1191 994 1439 701 
Q 1688 409 2113 409 
Q 2538 409 2786 701 
Q 3034 994 3034 1497 
Q 3034 2003 2786 2293 
Q 2538 2584 2113 2584 
z
M 3366 4563 
L 3366 3988 
Q 3128 4100 2886 4159 
Q 2644 4219 2406 4219 
Q 1781 4219 1451 3797 
Q 1122 3375 1075 2522 
Q 1259 2794 1537 2939 
Q 1816 3084 2150 3084 
Q 2853 3084 3261 2657 
Q 3669 2231 3669 1497 
Q 3669 778 3244 343 
Q 2819 -91 2113 -91 
Q 1303 -91 875 529 
Q 447 1150 447 2328 
Q 447 3434 972 4092 
Q 1497 4750 2381 4750 
Q 2619 4750 2861 4703 
Q 3103 4656 3366 4563 
z
" transform="scale(0.015625)"/>
        <path id="DejaVuSans-31" d="M 794 531 
L 1825 531 
L 1825 4091 
L 703 3866 
L 703 4441 
L 1819 4666 
L 2450 4666 
L 2450 531 
L 3481 531 
L 3481 0 
L 794 0 
L 794 531 
z
" transform="scale(0.015625)"/>
        <path id="DejaVuSans-38" d="M 2034 2216 
Q 1584 2216 1326 1975 
Q 1069 1734 1069 1313 
Q 1069 891 1326 650 
Q 1584 409 2034 409 
Q 2484 409 2743 651 
Q 3003 894 3003 1313 
Q 3003 1734 2745 1975 
Q 2488 2216 2034 2216 
z
M 1403 2484 
Q 997 2584 770 2862 
Q 544 3141 544 3541 
Q 544 4100 942 4425 
Q 1341 4750 2034 4750 
Q 2731 4750 3128 4425 
Q 3525 4100 3525 3541 
Q 3525 3141 3298 2862 
Q 3072 2584 2669 2484 
Q 3125 2378 3379 2068 
Q 3634 1759 3634 1313 
Q 3634 634 3220 271 
Q 2806 -91 2034 -91 
Q 1263 -91 848 271 
Q 434 634 434 1313 
Q 434 1759 690 2068 
Q 947 2378 1403 2484 
z
M 1172 3481 
Q 1172 3119 1398 2916 
Q 1625 2713 2034 2713 
Q 2441 2713 2670 2916 
Q 2900 3119 2900 3481 
Q 2900 3844 2670 4047 
Q 2441 4250 2034 4250 
Q 1625 4250 1398 4047 
Q 1172 3844 1172 3481 
z
" transform="scale(0.015625)"/>
       </defs>
       <use xlink:href="#DejaVuSans-32"/>
       <use xlink:href="#DejaVuSans-30" x="63.623047"/>
       <use xlink:href="#DejaVuSans-32" x="127.246094"/>
       <use xlink:href="#DejaVuSans-30" x="190.869141"/>
       <use xlink:href="#DejaVuSans-2d" x="254.492188"/>
       <use xlink:href="#DejaVuSans-30" x="290.576172"/>
       <use xlink:href="#DejaVuSans-36" x="354.199219"/>
       <use xlink:href="#DejaVuSans-2d" x="417.822266"/>
       <use xlink:href="#DejaVuSans-31" x="453.90625"/>
       <use xlink:href="#DejaVuSans-38" x="517.529297"/>
      </g>
     </g>
    </g>
    <g id="xtick_2">
     <g id="line2d_2">
      <g>
       <use xlink:href="#mc0fde2db75" x="209.5647" y="128.16" style="stroke: #000000; stroke-width: 0.8"/>
      </g>
     </g>
     <g id="text_2">
      <!-- 2021-03-13 -->
      <g transform="translate(180.506887 142.758438) scale(0.1 -0.1)">
       <defs>
        <path id="DejaVuSans-33" d="M 2597 2516 
Q 3050 2419 3304 2112 
Q 3559 1806 3559 1356 
Q 3559 666 3084 287 
Q 2609 -91 1734 -91 
Q 1441 -91 1130 -33 
Q 819 25 488 141 
L 488 750 
Q 750 597 1062 519 
Q 1375 441 1716 441 
Q 2309 441 2620 675 
Q 2931 909 2931 1356 
Q 2931 1769 2642 2001 
Q 2353 2234 1838 2234 
L 1294 2234 
L 1294 2753 
L 1863 2753 
Q 2328 2753 2575 2939 
Q 2822 3125 2822 3475 
Q 2822 3834 2567 4026 
Q 2313 4219 1838 4219 
Q 1578 4219 1281 4162 
Q 984 4106 628 3988 
L 628 4550 
Q 988 4650 1302 4700 
Q 1616 4750 1894 4750 
Q 2613 4750 3031 4423 
Q 3450 4097 3450 3541 
Q 3450 3153 3228 2886 
Q 3006 2619 2597 2516 
z
" transform="scale(0.015625)"/>
       </defs>
       <use xlink:href="#DejaVuSans-32"/>
       <use xlink:href="#DejaVuSans-30" x="63.623047"/>
       <use xlink:href="#DejaVuSans-32" x="127.246094"/>
       <use xlink:href="#DejaVuSans-31" x="190.869141"/>
       <use xlink:href="#DejaVuSans-2d" x="254.492188"/>
       <use xlink:href="#DejaVuSans-30" x="290.576172"/>
       <use xlink:href="#DejaVuSans-33" x="354.199219"/>
       <use xlink:href="#DejaVuSans-2d" x="417.822266"/>
       <use xlink:href="#DejaVuSans-31" x="453.90625"/>
       <use xlink:href="#DejaVuSans-33" x="517.529297"/>
      </g>
     </g>
    </g>
    <g id="xtick_3">
     <g id="line2d_3">
      <g>
       <use xlink:href="#mc0fde2db75" x="303.765763" y="128.16" style="stroke: #000000; stroke-width: 0.8"/>
      </g>
     </g>
     <g id="text_3">
      <!-- 2021-10-16 -->
      <g transform="translate(274.707951 142.758438) scale(0.1 -0.1)">
       <use xlink:href="#DejaVuSans-32"/>
       <use xlink:href="#DejaVuSans-30" x="63.623047"/>
       <use xlink:href="#DejaVuSans-32" x="127.246094"/>
       <use xlink:href="#DejaVuSans-31" x="190.869141"/>
       <use xlink:href="#DejaVuSans-2d" x="254.492188"/>
       <use xlink:href="#DejaVuSans-31" x="290.576172"/>
       <use xlink:href="#DejaVuSans-30" x="354.199219"/>
       <use xlink:href="#DejaVuSans-2d" x="417.822266"/>
       <use xlink:href="#DejaVuSans-31" x="453.90625"/>
       <use xlink:href="#DejaVuSans-36" x="517.529297"/>
      </g>
     </g>
    </g>
    <g id="xtick_4">
     <g id="line2d_4">
      <g>
       <use xlink:href="#mc0fde2db75" x="397.966827" y="128.16" style="stroke: #000000; stroke-width: 0.8"/>
      </g>
     </g>
     <g id="text_4">
      <!-- 2022-05-12 -->
      <g transform="translate(368.909015 142.758438) scale(0.1 -0.1)">
       <defs>
        <path id="DejaVuSans-35" d="M 691 4666 
L 3169 4666 
L 3169 4134 
L 1269 4134 
L 1269 2991 
Q 1406 3038 1543 3061 
Q 1681 3084 1819 3084 
Q 2600 3084 3056 2656 
Q 3513 2228 3513 1497 
Q 3513 744 3044 326 
Q 2575 -91 1722 -91 
Q 1428 -91 1123 -41 
Q 819 9 494 109 
L 494 744 
Q 775 591 1075 516 
Q 1375 441 1709 441 
Q 2250 441 2565 725 
Q 2881 1009 2881 1497 
Q 2881 1984 2565 2268 
Q 2250 2553 1709 2553 
Q 1456 2553 1204 2497 
Q 953 2441 691 2322 
L 691 4666 
z
" transform="scale(0.015625)"/>
       </defs>
       <use xlink:href="#DejaVuSans-32"/>
       <use xlink:href="#DejaVuSans-30" x="63.623047"/>
       <use xlink:href="#DejaVuSans-32" x="127.246094"/>
       <use xlink:href="#DejaVuSans-32" x="190.869141"/>
       <use xlink:href="#DejaVuSans-2d" x="254.492188"/>
       <use xlink:href="#DejaVuSans-30" x="290.576172"/>
       <use xlink:href="#DejaVuSans-35" x="354.199219"/>
       <use xlink:href="#DejaVuSans-2d" x="417.822266"/>
       <use xlink:href="#DejaVuSans-31" x="453.90625"/>
       <use xlink:href="#DejaVuSans-32" x="517.529297"/>
      </g>
     </g>
    </g>
    <g id="xtick_5">
     <g id="line2d_5">
      <g>
       <use xlink:href="#mc0fde2db75" x="492.167891" y="128.16" style="stroke: #000000; stroke-width: 0.8"/>
      </g>
     </g>
     <g id="text_5">
      <!-- 2022-12-07 -->
      <g transform="translate(463.110078 142.758438) scale(0.1 -0.1)">
       <defs>
        <path id="DejaVuSans-37" d="M 525 4666 
L 3525 4666 
L 3525 4397 
L 1831 0 
L 1172 0 
L 2766 4134 
L 525 4134 
L 525 4666 
z
" transform="scale(0.015625)"/>
       </defs>
       <use xlink:href="#DejaVuSans-32"/>
       <use xlink:href="#DejaVuSans-30" x="63.623047"/>
       <use xlink:href="#DejaVuSans-32" x="127.246094"/>
       <use xlink:href="#DejaVuSans-32" x="190.869141"/>
       <use xlink:href="#DejaVuSans-2d" x="254.492188"/>
       <use xlink:href="#DejaVuSans-31" x="290.576172"/>
       <use xlink:href="#DejaVuSans-32" x="354.199219"/>
       <use xlink:href="#DejaVuSans-2d" x="417.822266"/>
       <use xlink:href="#DejaVuSans-30" x="453.90625"/>
       <use xlink:href="#DejaVuSans-37" x="517.529297"/>
      </g>
     </g>
    </g>
    <g id="xtick_6">
     <g id="line2d_6">
      <g>
       <use xlink:href="#mc0fde2db75" x="586.368954" y="128.16" style="stroke: #000000; stroke-width: 0.8"/>
      </g>
     </g>
     <g id="text_6">
      <!-- 2023-07-11 -->
      <g transform="translate(557.311142 142.758438) scale(0.1 -0.1)">
       <use xlink:href="#DejaVuSans-32"/>
       <use xlink:href="#DejaVuSans-30" x="63.623047"/>
       <use xlink:href="#DejaVuSans-32" x="127.246094"/>
       <use xlink:href="#DejaVuSans-33" x="190.869141"/>
       <use xlink:href="#DejaVuSans-2d" x="254.492188"/>
       <use xlink:href="#DejaVuSans-30" x="290.576172"/>
       <use xlink:href="#DejaVuSans-37" x="354.199219"/>
       <use xlink:href="#DejaVuSans-2d" x="417.822266"/>
       <use xlink:href="#DejaVuSans-31" x="453.90625"/>
       <use xlink:href="#DejaVuSans-31" x="517.529297"/>
      </g>
     </g>
    </g>
    <g id="text_7">
     <!-- date -->
     <g transform="translate(357.725 156.436563) scale(0.1 -0.1)">
      <defs>
       <path id="DejaVuSans-64" d="M 2906 2969 
L 2906 4863 
L 3481 4863 
L 3481 0 
L 2906 0 
L 2906 525 
Q 2725 213 2448 61 
Q 2172 -91 1784 -91 
Q 1150 -91 751 415 
Q 353 922 353 1747 
Q 353 2572 751 3078 
Q 1150 3584 1784 3584 
Q 2172 3584 2448 3432 
Q 2725 3281 2906 2969 
z
M 947 1747 
Q 947 1113 1208 752 
Q 1469 391 1925 391 
Q 2381 391 2643 752 
Q 2906 1113 2906 1747 
Q 2906 2381 2643 2742 
Q 2381 3103 1925 3103 
Q 1469 3103 1208 2742 
Q 947 2381 947 1747 
z
" transform="scale(0.015625)"/>
       <path id="DejaVuSans-61" d="M 2194 1759 
Q 1497 1759 1228 1600 
Q 959 1441 959 1056 
Q 959 750 1161 570 
Q 1363 391 1709 391 
Q 2188 391 2477 730 
Q 2766 1069 2766 1631 
L 2766 1759 
L 2194 1759 
z
M 3341 1997 
L 3341 0 
L 2766 0 
L 2766 531 
Q 2569 213 2275 61 
Q 1981 -91 1556 -91 
Q 1019 -91 701 211 
Q 384 513 384 1019 
Q 384 1609 779 1909 
Q 1175 2209 1959 2209 
L 2766 2209 
L 2766 2266 
Q 2766 2663 2505 2880 
Q 2244 3097 1772 3097 
Q 1472 3097 1187 3025 
Q 903 2953 641 2809 
L 641 3341 
Q 956 3463 1253 3523 
Q 1550 3584 1831 3584 
Q 2591 3584 2966 3190 
Q 3341 2797 3341 1997 
z
" transform="scale(0.015625)"/>
       <path id="DejaVuSans-74" d="M 1172 4494 
L 1172 3500 
L 2356 3500 
L 2356 3053 
L 1172 3053 
L 1172 1153 
Q 1172 725 1289 603 
Q 1406 481 1766 481 
L 2356 481 
L 2356 0 
L 1766 0 
Q 1100 0 847 248 
Q 594 497 594 1153 
L 594 3053 
L 172 3053 
L 172 3500 
L 594 3500 
L 594 4494 
L 1172 4494 
z
" transform="scale(0.015625)"/>
       <path id="DejaVuSans-65" d="M 3597 1894 
L 3597 1613 
L 953 1613 
Q 991 1019 1311 708 
Q 1631 397 2203 397 
Q 2534 397 2845 478 
Q 3156 559 3463 722 
L 3463 178 
Q 3153 47 2828 -22 
Q 2503 -91 2169 -91 
Q 1331 -91 842 396 
Q 353 884 353 1716 
Q 353 2575 817 3079 
Q 1281 3584 2069 3584 
Q 2775 3584 3186 3129 
Q 3597 2675 3597 1894 
z
M 3022 2063 
Q 3016 2534 2758 2815 
Q 2500 3097 2075 3097 
Q 1594 3097 1305 2825 
Q 1016 2553 972 2059 
L 3022 2063 
z
" transform="scale(0.015625)"/>
      </defs>
      <use xlink:href="#DejaVuSans-64"/>
      <use xlink:href="#DejaVuSans-61" x="63.476562"/>
      <use xlink:href="#DejaVuSans-74" x="124.755859"/>
      <use xlink:href="#DejaVuSans-65" x="163.964844"/>
     </g>
    </g>
   </g>
   <g id="matplotlib.axis_2">
    <g id="ytick_1">
     <g id="line2d_7">
      <defs>
       <path id="m4b6f07dec0" d="M 0 0 
L -3.5 0 
" style="stroke: #000000; stroke-width: 0.8"/>
      </defs>
      <g>
       <use xlink:href="#m4b6f07dec0" x="90" y="123.895385" style="stroke: #000000; stroke-width: 0.8"/>
      </g>
     </g>
     <g id="text_8">
      <!-- 0 -->
      <g transform="translate(76.6375 127.694603) scale(0.1 -0.1)">
       <use xlink:href="#DejaVuSans-30"/>
      </g>
     </g>
    </g>
    <g id="ytick_2">
     <g id="line2d_8">
      <g>
       <use xlink:href="#m4b6f07dec0" x="90" y="85.126154" style="stroke: #000000; stroke-width: 0.8"/>
      </g>
     </g>
     <g id="text_9">
      <!-- 50 -->
      <g transform="translate(70.275 88.925373) scale(0.1 -0.1)">
       <use xlink:href="#DejaVuSans-35"/>
       <use xlink:href="#DejaVuSans-30" x="63.623047"/>
      </g>
     </g>
    </g>
    <g id="ytick_3">
     <g id="line2d_9">
      <g>
       <use xlink:href="#m4b6f07dec0" x="90" y="46.356923" style="stroke: #000000; stroke-width: 0.8"/>
      </g>
     </g>
     <g id="text_10">
      <!-- 100 -->
      <g transform="translate(63.9125 50.156142) scale(0.1 -0.1)">
       <use xlink:href="#DejaVuSans-31"/>
       <use xlink:href="#DejaVuSans-30" x="63.623047"/>
       <use xlink:href="#DejaVuSans-30" x="127.246094"/>
      </g>
     </g>
    </g>
   </g>
   <g id="line2d_10">
    <path d="M 115.363636 106.836923 
L 115.834642 113.04 
L 116.305647 120.793846 
L 117.718663 123.12 
L 118.189668 121.569231 
L 118.660674 117.692308 
L 119.131679 122.344615 
L 119.602684 121.569231 
L 120.07369 122.344615 
L 120.544695 105.286154 
L 121.0157 118.467692 
L 121.486705 121.569231 
L 121.957711 117.692308 
L 122.428716 122.344615 
L 122.899721 119.243077 
L 123.370727 118.467692 
L 123.841732 123.12 
L 124.312737 121.569231 
L 124.783743 116.141538 
L 125.254748 117.692308 
L 125.725753 120.793846 
L 126.196759 121.569231 
L 126.667764 121.569231 
L 127.609775 123.12 
L 128.08078 116.916923 
L 128.551785 84.350769 
L 129.022791 119.243077 
L 129.493796 121.569231 
L 129.964801 121.569231 
L 130.435807 120.018462 
L 130.906812 122.344615 
L 131.377817 120.793846 
L 131.848822 123.12 
L 132.319828 121.569231 
L 132.790833 121.569231 
L 133.261838 123.12 
L 133.732844 122.344615 
L 134.203849 120.793846 
L 134.674854 120.793846 
L 135.14586 119.243077 
L 135.616865 123.12 
L 136.08787 123.12 
L 136.558876 122.344615 
L 137.029881 122.344615 
L 137.500886 123.12 
L 137.971892 123.12 
L 138.442897 111.489231 
L 138.913902 120.018462 
L 139.384908 118.467692 
L 139.855913 122.344615 
L 140.326918 120.018462 
L 140.797924 118.467692 
L 141.268929 120.018462 
L 141.739934 123.12 
L 142.210939 122.344615 
L 142.681945 120.018462 
L 143.15295 123.12 
L 144.094961 121.569231 
L 144.565966 118.467692 
L 145.507977 123.12 
L 145.978982 120.793846 
L 146.449987 120.018462 
L 146.920993 123.12 
L 147.391998 120.793846 
L 147.863003 123.12 
L 148.334009 122.344615 
L 148.805014 120.018462 
L 149.276019 123.12 
L 149.747025 122.344615 
L 150.21803 122.344615 
L 150.689035 123.12 
L 151.160041 120.018462 
L 151.631046 123.12 
L 152.102051 121.569231 
L 153.044062 121.569231 
L 153.515067 120.793846 
L 153.986072 119.243077 
L 154.457078 121.569231 
L 154.928083 119.243077 
L 155.399088 123.12 
L 156.341099 121.569231 
L 156.812104 120.018462 
L 157.28311 122.344615 
L 157.754115 123.12 
L 158.22512 122.344615 
L 158.696126 120.793846 
L 159.167131 121.569231 
L 159.638136 123.12 
L 160.109142 113.04 
L 160.580147 123.12 
L 161.051152 121.569231 
L 161.522158 120.793846 
L 161.993163 123.12 
L 162.464168 120.793846 
L 162.935173 117.692308 
L 163.406179 121.569231 
L 163.877184 123.12 
L 164.348189 123.12 
L 164.819195 122.344615 
L 165.2902 123.12 
L 165.761205 123.12 
L 166.232211 122.344615 
L 166.703216 122.344615 
L 167.174221 121.569231 
L 167.645227 122.344615 
L 169.058243 120.018462 
L 169.529248 121.569231 
L 170.000253 121.569231 
L 170.942264 120.018462 
L 171.413269 122.344615 
L 171.884274 123.12 
L 172.35528 118.467692 
L 172.826285 122.344615 
L 173.29729 122.344615 
L 173.768296 117.692308 
L 174.239301 121.569231 
L 174.710306 121.569231 
L 175.181312 104.510769 
L 175.652317 120.018462 
L 176.123322 121.569231 
L 176.594328 118.467692 
L 177.065333 122.344615 
L 177.536338 119.243077 
L 178.007344 122.344615 
L 178.478349 117.692308 
L 178.949354 120.018462 
L 179.42036 123.12 
L 179.891365 122.344615 
L 180.36237 113.815385 
L 180.833376 120.018462 
L 181.304381 122.344615 
L 181.775386 123.12 
L 182.246391 123.12 
L 182.717397 117.692308 
L 183.188402 123.12 
L 183.659407 123.12 
L 184.130413 120.793846 
L 184.601418 123.12 
L 185.072423 123.12 
L 186.014434 120.018462 
L 186.485439 123.12 
L 186.956445 121.569231 
L 187.898455 123.12 
L 188.369461 120.018462 
L 188.840466 123.12 
L 189.311471 123.12 
L 189.782477 122.344615 
L 190.253482 123.12 
L 190.724487 123.12 
L 191.195493 120.018462 
L 192.137503 123.12 
L 193.079514 121.569231 
L 193.550519 121.569231 
L 194.021524 122.344615 
L 194.49253 120.793846 
L 194.963535 122.344615 
L 195.43454 123.12 
L 196.376551 123.12 
L 196.847556 120.018462 
L 197.318562 123.12 
L 197.789567 122.344615 
L 198.260572 123.12 
L 198.731578 120.018462 
L 199.202583 121.569231 
L 199.673588 122.344615 
L 200.144594 122.344615 
L 200.615599 120.793846 
L 201.086604 122.344615 
L 201.55761 121.569231 
L 202.028615 121.569231 
L 202.49962 122.344615 
L 202.970625 122.344615 
L 203.441631 123.12 
L 203.912636 118.467692 
L 204.383641 122.344615 
L 204.854647 122.344615 
L 205.325652 123.12 
L 205.796657 122.344615 
L 206.267663 123.12 
L 206.738668 123.12 
L 207.680679 121.569231 
L 208.151684 115.366154 
L 208.622689 117.692308 
L 209.093695 100.633846 
L 209.5647 123.12 
L 210.035705 122.344615 
L 210.506711 118.467692 
L 210.977716 120.018462 
L 211.448721 119.243077 
L 211.919727 113.04 
L 212.390732 123.12 
L 212.861737 122.344615 
L 213.332742 120.793846 
L 213.803748 118.467692 
L 214.274753 115.366154 
L 214.745758 106.061538 
L 215.216764 112.264615 
L 215.687769 122.344615 
L 216.158774 97.532308 
L 216.62978 111.489231 
L 217.100785 117.692308 
L 217.57179 113.04 
L 218.042796 120.018462 
L 218.513801 113.04 
L 218.984806 113.815385 
L 219.455812 112.264615 
L 219.926817 106.061538 
L 220.397822 121.569231 
L 220.868828 118.467692 
L 221.339833 121.569231 
L 221.810838 123.12 
L 222.281844 120.018462 
L 222.752849 123.12 
L 223.223854 121.569231 
L 223.694859 123.12 
L 224.165865 122.344615 
L 224.63687 113.04 
L 225.107875 121.569231 
L 225.578881 119.243077 
L 226.049886 120.793846 
L 226.520891 120.018462 
L 226.991897 123.12 
L 227.462902 118.467692 
L 227.933907 120.018462 
L 228.404913 122.344615 
L 228.875918 119.243077 
L 229.346923 123.12 
L 229.817929 121.569231 
L 230.288934 123.12 
L 230.759939 120.793846 
L 231.230945 122.344615 
L 231.70195 120.793846 
L 232.172955 120.018462 
L 232.64396 122.344615 
L 233.585971 122.344615 
L 234.056976 120.793846 
L 234.527982 120.018462 
L 234.998987 106.836923 
L 235.469992 108.387692 
L 235.940998 121.569231 
L 236.412003 122.344615 
L 236.883008 119.243077 
L 237.354014 120.018462 
L 237.825019 118.467692 
L 238.296024 122.344615 
L 238.76703 123.12 
L 239.238035 119.243077 
L 239.70904 118.467692 
L 240.180046 116.141538 
L 240.651051 122.344615 
L 241.122056 120.018462 
L 241.593062 122.344615 
L 242.064067 122.344615 
L 242.535072 123.12 
L 243.477083 120.018462 
L 244.419093 123.12 
L 244.890099 121.569231 
L 245.361104 122.344615 
L 245.832109 118.467692 
L 246.303115 116.916923 
L 246.77412 118.467692 
L 247.245125 119.243077 
L 247.716131 117.692308 
L 248.187136 111.489231 
L 248.658141 119.243077 
L 249.129147 120.793846 
L 249.600152 120.018462 
L 250.071157 117.692308 
L 250.542163 112.264615 
L 251.013168 122.344615 
L 251.484173 121.569231 
L 251.955179 123.12 
L 252.426184 116.916923 
L 252.897189 117.692308 
L 253.368194 120.793846 
L 253.8392 116.141538 
L 254.310205 114.590769 
L 254.78121 122.344615 
L 255.252216 122.344615 
L 255.723221 116.141538 
L 256.194226 102.184615 
L 256.665232 113.04 
L 257.136237 119.243077 
L 257.607242 120.018462 
L 258.078248 120.018462 
L 259.020258 121.569231 
L 259.491264 119.243077 
L 259.962269 119.243077 
L 260.433274 122.344615 
L 260.90428 122.344615 
L 261.375285 121.569231 
L 261.84629 122.344615 
L 262.317296 117.692308 
L 262.788301 117.692308 
L 263.259306 119.243077 
L 263.730311 116.916923 
L 264.201317 111.489231 
L 264.672322 117.692308 
L 265.143327 117.692308 
L 265.614333 121.569231 
L 266.085338 121.569231 
L 266.556343 118.467692 
L 267.027349 123.12 
L 267.498354 109.938462 
L 267.969359 108.387692 
L 268.440365 119.243077 
L 268.91137 120.018462 
L 269.382375 113.04 
L 270.324386 121.569231 
L 270.795391 120.018462 
L 271.266397 123.12 
L 271.737402 116.916923 
L 272.208407 106.836923 
L 272.679413 122.344615 
L 273.150418 121.569231 
L 274.092428 123.12 
L 274.563434 120.793846 
L 275.034439 108.387692 
L 275.505444 117.692308 
L 275.97645 122.344615 
L 276.447455 122.344615 
L 276.91846 111.489231 
L 277.389466 121.569231 
L 277.860471 122.344615 
L 278.331476 121.569231 
L 280.215498 121.569231 
L 280.686503 120.018462 
L 281.157508 123.12 
L 281.628514 122.344615 
L 282.099519 122.344615 
L 282.570524 123.12 
L 283.04153 123.12 
L 283.512535 122.344615 
L 283.98354 123.12 
L 284.454545 119.243077 
L 284.925551 122.344615 
L 285.396556 120.018462 
L 285.867561 120.018462 
L 286.338567 118.467692 
L 286.809572 120.018462 
L 287.280577 123.12 
L 287.751583 121.569231 
L 288.693593 121.569231 
L 289.164599 123.12 
L 289.635604 122.344615 
L 290.106609 122.344615 
L 290.577615 120.793846 
L 291.04862 122.344615 
L 292.461636 122.344615 
L 292.932641 95.981538 
L 293.403646 120.018462 
L 293.874652 123.12 
L 294.345657 122.344615 
L 294.816662 120.793846 
L 295.287668 123.12 
L 295.758673 120.018462 
L 296.229678 122.344615 
L 296.700684 119.243077 
L 297.171689 118.467692 
L 297.642694 118.467692 
L 298.1137 117.692308 
L 298.584705 108.387692 
L 299.05571 108.387692 
L 299.526716 118.467692 
L 299.997721 120.793846 
L 300.468726 122.344615 
L 300.939732 110.713846 
L 301.410737 120.018462 
L 301.881742 122.344615 
L 302.352748 122.344615 
L 302.823753 121.569231 
L 303.294758 121.569231 
L 303.765763 122.344615 
L 304.236769 122.344615 
L 304.707774 120.018462 
L 305.178779 123.12 
L 305.649785 122.344615 
L 306.12079 120.018462 
L 306.591795 120.018462 
L 307.062801 121.569231 
L 308.004811 108.387692 
L 308.475817 116.916923 
L 308.946822 116.141538 
L 309.417827 111.489231 
L 309.888833 114.590769 
L 310.830843 116.141538 
L 311.301849 115.366154 
L 311.772854 110.713846 
L 312.243859 113.04 
L 312.714865 120.018462 
L 313.18587 120.793846 
L 313.656875 119.243077 
L 314.12788 119.243077 
L 314.598886 116.916923 
L 315.069891 118.467692 
L 315.540896 113.815385 
L 316.011902 117.692308 
L 316.482907 118.467692 
L 316.953912 115.366154 
L 317.424918 108.387692 
L 317.895923 115.366154 
L 318.366928 118.467692 
L 319.308939 115.366154 
L 319.779944 118.467692 
L 320.25095 113.04 
L 320.721955 118.467692 
L 321.19296 115.366154 
L 321.663966 121.569231 
L 322.134971 118.467692 
L 322.605976 113.04 
L 323.076982 121.569231 
L 323.547987 120.018462 
L 324.018992 120.793846 
L 324.489997 117.692308 
L 324.961003 116.916923 
L 325.432008 104.510769 
L 325.903013 102.184615 
L 326.374019 116.141538 
L 326.845024 95.206154 
L 327.316029 121.569231 
L 327.787035 120.018462 
L 328.25804 121.569231 
L 328.729045 101.409231 
L 329.200051 102.184615 
L 330.142061 122.344615 
L 330.613067 120.018462 
L 331.084072 113.815385 
L 331.555077 120.018462 
L 332.026083 120.018462 
L 332.497088 102.184615 
L 332.968093 115.366154 
L 333.439099 117.692308 
L 334.381109 119.243077 
L 334.852114 119.243077 
L 335.32312 117.692308 
L 336.736136 122.344615 
L 337.207141 116.916923 
L 337.678146 122.344615 
L 338.149152 122.344615 
L 339.091162 120.793846 
L 339.562168 123.12 
L 340.033173 120.793846 
L 340.504178 119.243077 
L 340.975184 121.569231 
L 341.446189 122.344615 
L 341.917194 122.344615 
L 342.3882 116.916923 
L 342.859205 123.12 
L 343.33021 106.061538 
L 343.801215 121.569231 
L 344.272221 122.344615 
L 344.743226 120.018462 
L 345.214231 120.018462 
L 345.685237 120.793846 
L 346.156242 122.344615 
L 346.627247 117.692308 
L 347.098253 121.569231 
L 347.569258 120.018462 
L 348.040263 120.793846 
L 348.511269 105.286154 
L 348.982274 121.569231 
L 349.453279 119.243077 
L 349.924285 123.12 
L 350.39529 123.12 
L 350.866295 122.344615 
L 351.337301 116.916923 
L 351.808306 122.344615 
L 352.279311 117.692308 
L 352.750317 120.018462 
L 353.221322 123.12 
L 353.692327 120.018462 
L 354.634338 120.018462 
L 355.105343 117.692308 
L 355.576348 116.141538 
L 356.047354 120.793846 
L 356.518359 120.793846 
L 356.989364 120.018462 
L 357.46037 121.569231 
L 357.931375 121.569231 
L 358.40238 120.018462 
L 358.873386 117.692308 
L 359.344391 117.692308 
L 359.815396 119.243077 
L 360.286402 122.344615 
L 361.228412 122.344615 
L 361.699418 108.387692 
L 362.170423 75.821538 
L 362.641428 91.329231 
L 363.112434 119.243077 
L 363.583439 121.569231 
L 364.054444 120.018462 
L 364.996455 109.163077 
L 365.46746 118.467692 
L 365.938465 105.286154 
L 366.409471 88.227692 
L 366.880476 120.018462 
L 367.351481 87.452308 
L 367.822487 113.815385 
L 368.293492 122.344615 
L 368.764497 78.147692 
L 369.235503 102.96 
L 369.706508 111.489231 
L 370.177513 73.495385 
L 370.648519 119.243077 
L 371.119524 120.018462 
L 371.590529 102.184615 
L 372.061535 113.04 
L 372.53254 99.858462 
L 373.003545 113.04 
L 373.474551 120.793846 
L 373.945556 56.436923 
L 374.416561 119.243077 
L 374.887566 120.018462 
L 375.358572 120.018462 
L 375.829577 114.590769 
L 376.300582 118.467692 
L 376.771588 107.612308 
L 377.242593 118.467692 
L 377.713598 120.793846 
L 378.184604 102.96 
L 378.655609 102.96 
L 379.126614 114.590769 
L 379.59762 100.633846 
L 380.068625 119.243077 
L 380.53963 120.018462 
L 381.010636 102.96 
L 381.481641 123.12 
L 381.952646 121.569231 
L 382.423652 120.793846 
L 382.894657 119.243077 
L 383.365662 121.569231 
L 383.836668 120.793846 
L 384.307673 119.243077 
L 384.778678 115.366154 
L 385.249683 117.692308 
L 385.720689 110.713846 
L 386.662699 122.344615 
L 387.133705 123.12 
L 387.60471 116.916923 
L 388.546721 121.569231 
L 389.017726 123.12 
L 389.488731 119.243077 
L 389.959737 122.344615 
L 390.430742 119.243077 
L 390.901747 123.12 
L 391.843758 121.569231 
L 392.314763 123.12 
L 392.785769 123.12 
L 393.256774 121.569231 
L 394.198785 120.018462 
L 394.66979 120.018462 
L 395.140795 120.793846 
L 395.6118 120.793846 
L 396.082806 123.12 
L 396.553811 121.569231 
L 397.024816 96.756923 
L 397.495822 120.793846 
L 397.966827 122.344615 
L 398.908838 122.344615 
L 399.379843 118.467692 
L 399.850848 119.243077 
L 400.321854 110.713846 
L 400.792859 121.569231 
L 401.263864 117.692308 
L 401.73487 122.344615 
L 402.205875 123.12 
L 402.67688 120.793846 
L 403.147886 121.569231 
L 403.618891 117.692308 
L 404.089896 119.243077 
L 404.560901 121.569231 
L 405.031907 122.344615 
L 405.502912 121.569231 
L 405.973917 118.467692 
L 406.444923 120.018462 
L 406.915928 119.243077 
L 407.386933 120.793846 
L 407.857939 116.916923 
L 408.328944 118.467692 
L 408.799949 123.12 
L 409.270955 119.243077 
L 409.74196 120.018462 
L 410.212965 111.489231 
L 410.683971 122.344615 
L 411.154976 119.243077 
L 411.625981 119.243077 
L 412.096987 120.018462 
L 412.567992 112.264615 
L 413.038997 99.858462 
L 413.510003 120.018462 
L 413.981008 122.344615 
L 414.452013 117.692308 
L 414.923018 121.569231 
L 415.394024 120.793846 
L 415.865029 120.793846 
L 416.336034 123.12 
L 417.278045 121.569231 
L 417.74905 120.018462 
L 418.220056 122.344615 
L 418.691061 120.018462 
L 419.162066 122.344615 
L 419.633072 120.018462 
L 420.104077 123.12 
L 420.575082 120.018462 
L 421.046088 121.569231 
L 421.517093 121.569231 
L 421.988098 120.018462 
L 422.459104 123.12 
L 422.930109 120.018462 
L 423.401114 121.569231 
L 423.87212 116.916923 
L 424.343125 122.344615 
L 424.81413 116.141538 
L 425.285135 99.858462 
L 425.756141 122.344615 
L 426.227146 123.12 
L 426.698151 121.569231 
L 427.169157 117.692308 
L 427.640162 121.569231 
L 428.582173 123.12 
L 429.053178 116.916923 
L 429.524183 121.569231 
L 429.995189 120.793846 
L 430.937199 108.387692 
L 431.408205 118.467692 
L 431.87921 121.569231 
L 432.350215 121.569231 
L 432.821221 117.692308 
L 433.292226 91.329231 
L 433.763231 110.713846 
L 434.234237 117.692308 
L 434.705242 120.793846 
L 435.176247 120.793846 
L 435.647252 98.307692 
L 436.118258 120.018462 
L 436.589263 122.344615 
L 437.531274 122.344615 
L 438.002279 120.793846 
L 438.473284 120.018462 
L 438.94429 121.569231 
L 439.415295 119.243077 
L 439.8863 120.793846 
L 440.357306 123.12 
L 440.828311 121.569231 
L 441.299316 118.467692 
L 441.770322 121.569231 
L 442.241327 117.692308 
L 442.712332 117.692308 
L 443.183338 119.243077 
L 443.654343 121.569231 
L 444.125348 107.612308 
L 444.596354 120.018462 
L 445.067359 110.713846 
L 445.538364 117.692308 
L 446.009369 119.243077 
L 446.480375 111.489231 
L 446.95138 121.569231 
L 447.893391 114.590769 
L 448.364396 120.018462 
L 448.835401 116.916923 
L 449.306407 110.713846 
L 449.777412 109.938462 
L 450.248417 119.243077 
L 450.719423 105.286154 
L 451.190428 111.489231 
L 451.661433 120.793846 
L 452.132439 109.938462 
L 452.603444 122.344615 
L 453.074449 121.569231 
L 453.545455 114.590769 
L 454.01646 116.916923 
L 454.487465 101.409231 
L 454.95847 114.590769 
L 455.429476 113.815385 
L 455.900481 113.815385 
L 456.371486 115.366154 
L 456.842492 119.243077 
L 457.313497 120.018462 
L 457.784502 117.692308 
L 458.255508 119.243077 
L 458.726513 113.04 
L 459.197518 120.018462 
L 459.668524 115.366154 
L 460.139529 109.163077 
L 460.610534 115.366154 
L 461.08154 116.141538 
L 461.552545 115.366154 
L 462.02355 122.344615 
L 462.494556 117.692308 
L 462.965561 121.569231 
L 463.436566 120.793846 
L 463.907572 113.815385 
L 464.378577 113.04 
L 464.849582 101.409231 
L 465.320587 113.04 
L 465.791593 110.713846 
L 466.262598 118.467692 
L 466.733603 120.018462 
L 467.204609 119.243077 
L 467.675614 119.243077 
L 468.146619 122.344615 
L 468.617625 119.243077 
L 469.08863 109.163077 
L 469.559635 119.243077 
L 470.501646 119.243077 
L 470.972651 122.344615 
L 471.443657 123.12 
L 471.914662 122.344615 
L 472.385667 118.467692 
L 472.856673 106.836923 
L 473.327678 120.018462 
L 473.798683 120.018462 
L 474.269689 123.12 
L 474.740694 123.12 
L 475.211699 98.307692 
L 475.682704 106.836923 
L 476.15371 117.692308 
L 476.624715 113.04 
L 477.566726 122.344615 
L 478.037731 121.569231 
L 478.508736 122.344615 
L 478.979742 116.141538 
L 479.450747 122.344615 
L 479.921752 120.793846 
L 480.392758 121.569231 
L 480.863763 123.12 
L 481.334768 100.633846 
L 481.805774 120.018462 
L 482.276779 111.489231 
L 482.747784 111.489231 
L 483.21879 114.590769 
L 483.689795 120.793846 
L 484.1608 121.569231 
L 484.631806 116.141538 
L 485.102811 118.467692 
L 485.573816 117.692308 
L 486.044821 116.141538 
L 486.515827 122.344615 
L 486.986832 120.018462 
L 487.457837 121.569231 
L 488.399848 123.12 
L 490.283869 120.018462 
L 491.22588 105.286154 
L 491.696885 118.467692 
L 492.167891 116.141538 
L 492.638896 122.344615 
L 493.109901 116.141538 
L 493.580907 123.12 
L 494.051912 121.569231 
L 494.993923 120.018462 
L 495.464928 120.793846 
L 495.935933 120.018462 
L 496.406938 118.467692 
L 496.877944 107.612308 
L 497.348949 118.467692 
L 497.819954 117.692308 
L 498.29096 106.061538 
L 498.761965 122.344615 
L 499.23297 114.590769 
L 499.703976 122.344615 
L 500.174981 118.467692 
L 500.645986 121.569231 
L 501.116992 123.12 
L 501.587997 120.793846 
L 502.059002 122.344615 
L 502.530008 120.018462 
L 503.001013 123.12 
L 503.943024 123.12 
L 504.414029 120.018462 
L 504.885034 123.12 
L 505.35604 118.467692 
L 505.827045 123.12 
L 506.29805 122.344615 
L 506.769055 120.018462 
L 507.240061 107.612308 
L 507.711066 123.12 
L 508.182071 123.12 
L 508.653077 112.264615 
L 509.124082 113.04 
L 509.595087 110.713846 
L 510.066093 113.815385 
L 510.537098 122.344615 
L 511.008103 112.264615 
L 511.479109 120.018462 
L 511.950114 121.569231 
L 512.421119 122.344615 
L 512.892125 122.344615 
L 513.36313 123.12 
L 513.834135 122.344615 
L 514.305141 119.243077 
L 514.776146 121.569231 
L 515.718156 123.12 
L 516.189162 123.12 
L 516.660167 117.692308 
L 517.131172 118.467692 
L 517.602178 121.569231 
L 518.544188 121.569231 
L 519.015194 120.793846 
L 519.486199 120.793846 
L 519.957204 116.141538 
L 520.42821 122.344615 
L 520.899215 105.286154 
L 521.37022 118.467692 
L 521.841226 122.344615 
L 522.312231 119.243077 
L 522.783236 120.018462 
L 523.725247 113.04 
L 524.196252 118.467692 
L 524.667258 103.735385 
L 525.138263 123.12 
L 525.609268 117.692308 
L 526.551279 102.96 
L 527.022284 110.713846 
L 527.493289 82.8 
L 527.964295 116.141538 
L 528.4353 123.12 
L 528.906305 93.655385 
L 529.377311 113.04 
L 529.848316 109.163077 
L 530.319321 110.713846 
L 530.790327 117.692308 
L 531.261332 113.815385 
L 531.732337 122.344615 
L 532.203343 106.836923 
L 532.674348 112.264615 
L 533.145353 112.264615 
L 533.616359 107.612308 
L 534.087364 108.387692 
L 534.558369 121.569231 
L 535.029375 123.12 
L 535.50038 92.104615 
L 535.971385 22.32 
L 536.44239 102.184615 
L 536.913396 106.836923 
L 537.384401 106.061538 
L 537.855406 120.018462 
L 538.326412 120.793846 
L 538.797417 92.88 
L 539.268422 73.495385 
L 539.739428 110.713846 
L 540.210433 108.387692 
L 540.681438 103.735385 
L 541.152444 120.018462 
L 541.623449 123.12 
L 542.094454 85.901538 
L 543.036465 90.553846 
L 543.978476 120.018462 
L 544.449481 121.569231 
L 544.920486 122.344615 
L 545.391492 117.692308 
L 545.862497 106.836923 
L 546.333502 113.04 
L 546.804507 90.553846 
L 547.275513 92.88 
L 547.746518 121.569231 
L 548.217523 120.018462 
L 548.688529 101.409231 
L 549.159534 115.366154 
L 549.630539 96.756923 
L 550.101545 116.141538 
L 550.57255 123.12 
L 551.043555 123.12 
L 551.514561 116.141538 
L 551.985566 105.286154 
L 552.456571 118.467692 
L 552.927577 118.467692 
L 553.398582 121.569231 
L 553.869587 123.12 
L 554.340593 123.12 
L 554.811598 121.569231 
L 555.282603 113.815385 
L 555.753609 120.793846 
L 556.224614 123.12 
L 556.695619 99.083077 
L 557.166624 117.692308 
L 557.63763 116.141538 
L 558.108635 95.981538 
L 558.57964 114.590769 
L 559.050646 122.344615 
L 559.521651 120.793846 
L 559.992656 123.12 
L 560.463662 121.569231 
L 560.934667 100.633846 
L 561.405672 98.307692 
L 561.876678 115.366154 
L 562.347683 109.938462 
L 562.818688 116.916923 
L 563.289694 106.836923 
L 563.760699 120.793846 
L 564.231704 114.590769 
L 564.70271 121.569231 
L 565.173715 120.793846 
L 565.64472 121.569231 
L 566.115726 123.12 
L 566.586731 105.286154 
L 567.057736 111.489231 
L 567.528741 120.793846 
L 567.999747 122.344615 
L 569.412763 122.344615 
L 569.883768 119.243077 
L 570.354773 94.430769 
L 570.825779 118.467692 
L 571.296784 111.489231 
L 571.767789 118.467692 
L 572.238795 120.018462 
L 572.7098 120.793846 
L 573.180805 119.243077 
L 573.651811 121.569231 
L 574.122816 122.344615 
L 574.593821 120.018462 
L 575.064827 122.344615 
L 575.535832 109.938462 
L 576.006837 119.243077 
L 576.477842 117.692308 
L 576.948848 120.793846 
L 577.419853 95.981538 
L 577.890858 120.018462 
L 578.361864 120.793846 
L 578.832869 119.243077 
L 579.303874 120.793846 
L 579.77488 119.243077 
L 580.245885 97.532308 
L 580.71689 116.141538 
L 581.187896 118.467692 
L 581.658901 120.018462 
L 582.129906 116.141538 
L 582.600912 120.018462 
L 583.071917 120.018462 
L 583.542922 120.793846 
L 584.013928 119.243077 
L 584.484933 119.243077 
L 584.955938 120.793846 
L 585.426944 119.243077 
L 585.897949 119.243077 
L 586.368954 120.018462 
L 586.839959 108.387692 
L 587.310965 113.815385 
L 587.78197 122.344615 
L 588.252975 121.569231 
L 588.723981 120.018462 
L 589.194986 121.569231 
L 589.665991 120.018462 
L 590.136997 121.569231 
L 590.608002 116.141538 
L 591.079007 115.366154 
L 591.550013 109.938462 
L 592.021018 119.243077 
L 592.492023 120.793846 
L 592.963029 117.692308 
L 593.434034 115.366154 
L 593.905039 118.467692 
L 594.376045 119.243077 
L 594.84705 121.569231 
L 595.318055 121.569231 
L 595.789061 116.141538 
L 596.260066 92.104615 
L 596.731071 117.692308 
L 597.202076 117.692308 
L 597.673082 115.366154 
L 598.144087 120.793846 
L 598.615092 120.793846 
L 599.086098 117.692308 
L 599.557103 120.793846 
L 600.028108 81.249231 
L 600.499114 120.793846 
L 600.970119 122.344615 
L 601.441124 121.569231 
L 601.91213 121.569231 
L 602.383135 102.96 
L 602.85414 113.815385 
L 603.325146 120.018462 
L 603.796151 121.569231 
L 604.267156 122.344615 
L 604.738162 112.264615 
L 605.209167 119.243077 
L 605.680172 122.344615 
L 606.151178 106.836923 
L 606.622183 115.366154 
L 607.093188 119.243077 
L 607.564193 98.307692 
L 608.035199 122.344615 
L 608.506204 123.12 
L 608.977209 120.793846 
L 609.91922 122.344615 
L 610.390225 119.243077 
L 610.861231 118.467692 
L 611.332236 120.793846 
L 611.803241 122.344615 
L 612.274247 121.569231 
L 612.745252 122.344615 
L 613.216257 122.344615 
L 613.687263 123.12 
L 614.158268 123.12 
L 614.629273 120.018462 
L 615.100279 65.741538 
L 615.571284 110.713846 
L 616.042289 112.264615 
L 616.513295 116.141538 
L 616.9843 106.836923 
L 617.455305 112.264615 
L 617.92631 112.264615 
L 618.397316 104.510769 
L 618.868321 117.692308 
L 619.339326 105.286154 
L 619.810332 120.793846 
L 620.281337 116.916923 
L 620.752342 115.366154 
L 621.223348 120.793846 
L 621.694353 119.243077 
L 622.165358 116.916923 
L 622.636364 120.018462 
L 622.636364 120.018462 
" clip-path="url(#p1b5d87d35b)" style="fill: none; stroke: #1f77b4; stroke-width: 1.5; stroke-linecap: square"/>
   </g>
   <g id="patch_3">
    <path d="M 90 128.16 
L 90 17.28 
" style="fill: none; stroke: #000000; stroke-width: 0.8; stroke-linejoin: miter; stroke-linecap: square"/>
   </g>
   <g id="patch_4">
    <path d="M 648 128.16 
L 648 17.28 
" style="fill: none; stroke: #000000; stroke-width: 0.8; stroke-linejoin: miter; stroke-linecap: square"/>
   </g>
   <g id="patch_5">
    <path d="M 90 128.16 
L 648 128.16 
" style="fill: none; stroke: #000000; stroke-width: 0.8; stroke-linejoin: miter; stroke-linecap: square"/>
   </g>
   <g id="patch_6">
    <path d="M 90 17.28 
L 648 17.28 
" style="fill: none; stroke: #000000; stroke-width: 0.8; stroke-linejoin: miter; stroke-linecap: square"/>
   </g>
   <g id="legend_1">
    <g id="patch_7">
     <path d="M 97 39.958125 
L 264.190625 39.958125 
Q 266.190625 39.958125 266.190625 37.958125 
L 266.190625 24.28 
Q 266.190625 22.28 264.190625 22.28 
L 97 22.28 
Q 95 22.28 95 24.28 
L 95 37.958125 
Q 95 39.958125 97 39.958125 
z
" style="fill: #ffffff; opacity: 0.8; stroke: #cccccc; stroke-linejoin: miter"/>
    </g>
    <g id="line2d_11">
     <path d="M 99 30.378437 
L 109 30.378437 
L 119 30.378437 
" style="fill: none; stroke: #1f77b4; stroke-width: 1.5; stroke-linecap: square"/>
    </g>
    <g id="text_11">
     <!-- Number of PyPI Downloads -->
     <g transform="translate(127 33.878437) scale(0.1 -0.1)">
      <defs>
       <path id="DejaVuSans-4e" d="M 628 4666 
L 1478 4666 
L 3547 763 
L 3547 4666 
L 4159 4666 
L 4159 0 
L 3309 0 
L 1241 3903 
L 1241 0 
L 628 0 
L 628 4666 
z
" transform="scale(0.015625)"/>
       <path id="DejaVuSans-75" d="M 544 1381 
L 544 3500 
L 1119 3500 
L 1119 1403 
Q 1119 906 1312 657 
Q 1506 409 1894 409 
Q 2359 409 2629 706 
Q 2900 1003 2900 1516 
L 2900 3500 
L 3475 3500 
L 3475 0 
L 2900 0 
L 2900 538 
Q 2691 219 2414 64 
Q 2138 -91 1772 -91 
Q 1169 -91 856 284 
Q 544 659 544 1381 
z
M 1991 3584 
L 1991 3584 
z
" transform="scale(0.015625)"/>
       <path id="DejaVuSans-6d" d="M 3328 2828 
Q 3544 3216 3844 3400 
Q 4144 3584 4550 3584 
Q 5097 3584 5394 3201 
Q 5691 2819 5691 2113 
L 5691 0 
L 5113 0 
L 5113 2094 
Q 5113 2597 4934 2840 
Q 4756 3084 4391 3084 
Q 3944 3084 3684 2787 
Q 3425 2491 3425 1978 
L 3425 0 
L 2847 0 
L 2847 2094 
Q 2847 2600 2669 2842 
Q 2491 3084 2119 3084 
Q 1678 3084 1418 2786 
Q 1159 2488 1159 1978 
L 1159 0 
L 581 0 
L 581 3500 
L 1159 3500 
L 1159 2956 
Q 1356 3278 1631 3431 
Q 1906 3584 2284 3584 
Q 2666 3584 2933 3390 
Q 3200 3197 3328 2828 
z
" transform="scale(0.015625)"/>
       <path id="DejaVuSans-62" d="M 3116 1747 
Q 3116 2381 2855 2742 
Q 2594 3103 2138 3103 
Q 1681 3103 1420 2742 
Q 1159 2381 1159 1747 
Q 1159 1113 1420 752 
Q 1681 391 2138 391 
Q 2594 391 2855 752 
Q 3116 1113 3116 1747 
z
M 1159 2969 
Q 1341 3281 1617 3432 
Q 1894 3584 2278 3584 
Q 2916 3584 3314 3078 
Q 3713 2572 3713 1747 
Q 3713 922 3314 415 
Q 2916 -91 2278 -91 
Q 1894 -91 1617 61 
Q 1341 213 1159 525 
L 1159 0 
L 581 0 
L 581 4863 
L 1159 4863 
L 1159 2969 
z
" transform="scale(0.015625)"/>
       <path id="DejaVuSans-72" d="M 2631 2963 
Q 2534 3019 2420 3045 
Q 2306 3072 2169 3072 
Q 1681 3072 1420 2755 
Q 1159 2438 1159 1844 
L 1159 0 
L 581 0 
L 581 3500 
L 1159 3500 
L 1159 2956 
Q 1341 3275 1631 3429 
Q 1922 3584 2338 3584 
Q 2397 3584 2469 3576 
Q 2541 3569 2628 3553 
L 2631 2963 
z
" transform="scale(0.015625)"/>
       <path id="DejaVuSans-20" transform="scale(0.015625)"/>
       <path id="DejaVuSans-6f" d="M 1959 3097 
Q 1497 3097 1228 2736 
Q 959 2375 959 1747 
Q 959 1119 1226 758 
Q 1494 397 1959 397 
Q 2419 397 2687 759 
Q 2956 1122 2956 1747 
Q 2956 2369 2687 2733 
Q 2419 3097 1959 3097 
z
M 1959 3584 
Q 2709 3584 3137 3096 
Q 3566 2609 3566 1747 
Q 3566 888 3137 398 
Q 2709 -91 1959 -91 
Q 1206 -91 779 398 
Q 353 888 353 1747 
Q 353 2609 779 3096 
Q 1206 3584 1959 3584 
z
" transform="scale(0.015625)"/>
       <path id="DejaVuSans-66" d="M 2375 4863 
L 2375 4384 
L 1825 4384 
Q 1516 4384 1395 4259 
Q 1275 4134 1275 3809 
L 1275 3500 
L 2222 3500 
L 2222 3053 
L 1275 3053 
L 1275 0 
L 697 0 
L 697 3053 
L 147 3053 
L 147 3500 
L 697 3500 
L 697 3744 
Q 697 4328 969 4595 
Q 1241 4863 1831 4863 
L 2375 4863 
z
" transform="scale(0.015625)"/>
       <path id="DejaVuSans-50" d="M 1259 4147 
L 1259 2394 
L 2053 2394 
Q 2494 2394 2734 2622 
Q 2975 2850 2975 3272 
Q 2975 3691 2734 3919 
Q 2494 4147 2053 4147 
L 1259 4147 
z
M 628 4666 
L 2053 4666 
Q 2838 4666 3239 4311 
Q 3641 3956 3641 3272 
Q 3641 2581 3239 2228 
Q 2838 1875 2053 1875 
L 1259 1875 
L 1259 0 
L 628 0 
L 628 4666 
z
" transform="scale(0.015625)"/>
       <path id="DejaVuSans-79" d="M 2059 -325 
Q 1816 -950 1584 -1140 
Q 1353 -1331 966 -1331 
L 506 -1331 
L 506 -850 
L 844 -850 
Q 1081 -850 1212 -737 
Q 1344 -625 1503 -206 
L 1606 56 
L 191 3500 
L 800 3500 
L 1894 763 
L 2988 3500 
L 3597 3500 
L 2059 -325 
z
" transform="scale(0.015625)"/>
       <path id="DejaVuSans-49" d="M 628 4666 
L 1259 4666 
L 1259 0 
L 628 0 
L 628 4666 
z
" transform="scale(0.015625)"/>
       <path id="DejaVuSans-44" d="M 1259 4147 
L 1259 519 
L 2022 519 
Q 2988 519 3436 956 
Q 3884 1394 3884 2338 
Q 3884 3275 3436 3711 
Q 2988 4147 2022 4147 
L 1259 4147 
z
M 628 4666 
L 1925 4666 
Q 3281 4666 3915 4102 
Q 4550 3538 4550 2338 
Q 4550 1131 3912 565 
Q 3275 0 1925 0 
L 628 0 
L 628 4666 
z
" transform="scale(0.015625)"/>
       <path id="DejaVuSans-77" d="M 269 3500 
L 844 3500 
L 1563 769 
L 2278 3500 
L 2956 3500 
L 3675 769 
L 4391 3500 
L 4966 3500 
L 4050 0 
L 3372 0 
L 2619 2869 
L 1863 0 
L 1184 0 
L 269 3500 
z
" transform="scale(0.015625)"/>
       <path id="DejaVuSans-6e" d="M 3513 2113 
L 3513 0 
L 2938 0 
L 2938 2094 
Q 2938 2591 2744 2837 
Q 2550 3084 2163 3084 
Q 1697 3084 1428 2787 
Q 1159 2491 1159 1978 
L 1159 0 
L 581 0 
L 581 3500 
L 1159 3500 
L 1159 2956 
Q 1366 3272 1645 3428 
Q 1925 3584 2291 3584 
Q 2894 3584 3203 3211 
Q 3513 2838 3513 2113 
z
" transform="scale(0.015625)"/>
       <path id="DejaVuSans-6c" d="M 603 4863 
L 1178 4863 
L 1178 0 
L 603 0 
L 603 4863 
z
" transform="scale(0.015625)"/>
       <path id="DejaVuSans-73" d="M 2834 3397 
L 2834 2853 
Q 2591 2978 2328 3040 
Q 2066 3103 1784 3103 
Q 1356 3103 1142 2972 
Q 928 2841 928 2578 
Q 928 2378 1081 2264 
Q 1234 2150 1697 2047 
L 1894 2003 
Q 2506 1872 2764 1633 
Q 3022 1394 3022 966 
Q 3022 478 2636 193 
Q 2250 -91 1575 -91 
Q 1294 -91 989 -36 
Q 684 19 347 128 
L 347 722 
Q 666 556 975 473 
Q 1284 391 1588 391 
Q 1994 391 2212 530 
Q 2431 669 2431 922 
Q 2431 1156 2273 1281 
Q 2116 1406 1581 1522 
L 1381 1569 
Q 847 1681 609 1914 
Q 372 2147 372 2553 
Q 372 3047 722 3315 
Q 1072 3584 1716 3584 
Q 2034 3584 2315 3537 
Q 2597 3491 2834 3397 
z
" transform="scale(0.015625)"/>
      </defs>
      <use xlink:href="#DejaVuSans-4e"/>
      <use xlink:href="#DejaVuSans-75" x="74.804688"/>
      <use xlink:href="#DejaVuSans-6d" x="138.183594"/>
      <use xlink:href="#DejaVuSans-62" x="235.595703"/>
      <use xlink:href="#DejaVuSans-65" x="299.072266"/>
      <use xlink:href="#DejaVuSans-72" x="360.595703"/>
      <use xlink:href="#DejaVuSans-20" x="401.708984"/>
      <use xlink:href="#DejaVuSans-6f" x="433.496094"/>
      <use xlink:href="#DejaVuSans-66" x="494.677734"/>
      <use xlink:href="#DejaVuSans-20" x="529.882812"/>
      <use xlink:href="#DejaVuSans-50" x="561.669922"/>
      <use xlink:href="#DejaVuSans-79" x="621.972656"/>
      <use xlink:href="#DejaVuSans-50" x="681.152344"/>
      <use xlink:href="#DejaVuSans-49" x="741.455078"/>
      <use xlink:href="#DejaVuSans-20" x="770.947266"/>
      <use xlink:href="#DejaVuSans-44" x="802.734375"/>
      <use xlink:href="#DejaVuSans-6f" x="879.736328"/>
      <use xlink:href="#DejaVuSans-77" x="940.917969"/>
      <use xlink:href="#DejaVuSans-6e" x="1022.705078"/>
      <use xlink:href="#DejaVuSans-6c" x="1086.083984"/>
      <use xlink:href="#DejaVuSans-6f" x="1113.867188"/>
      <use xlink:href="#DejaVuSans-61" x="1175.048828"/>
      <use xlink:href="#DejaVuSans-64" x="1236.328125"/>
      <use xlink:href="#DejaVuSans-73" x="1299.804688"/>
     </g>
    </g>
   </g>
  </g>
 </g>
 <defs>
  <clipPath id="p1b5d87d35b">
   <rect x="90" y="17.28" width="558" height="110.88"/>
  </clipPath>
 </defs>
</svg>
