<?xml version="1.0" encoding="utf-8" standalone="no"?>
<!DOCTYPE svg PUBLIC "-//W3C//DTD SVG 1.1//EN"
  "http://www.w3.org/Graphics/SVG/1.1/DTD/svg11.dtd">
<svg xmlns:xlink="http://www.w3.org/1999/xlink" width="720pt" height="144pt" viewBox="0 0 720 144" xmlns="http://www.w3.org/2000/svg" version="1.1">
 <metadata>
  <rdf:RDF xmlns:dc="http://purl.org/dc/elements/1.1/" xmlns:cc="http://creativecommons.org/ns#" xmlns:rdf="http://www.w3.org/1999/02/22-rdf-syntax-ns#">
   <cc:Work>
    <dc:type rdf:resource="http://purl.org/dc/dcmitype/StillImage"/>
    <dc:date>2025-02-01T20:56:55.209485</dc:date>
    <dc:format>image/svg+xml</dc:format>
    <dc:creator>
     <cc:Agent>
      <dc:title>Matplotlib v3.10.0, https://matplotlib.org/</dc:title>
     </cc:Agent>
    </dc:creator>
   </cc:Work>
  </rdf:RDF>
 </metadata>
 <defs>
  <style type="text/css">*{stroke-linejoin: round; stroke-linecap: butt}</style>
 </defs>
 <g id="figure_1">
  <g id="patch_1">
   <path d="M 0 144 
L 720 144 
L 720 0 
L 0 0 
z
" style="fill: #ffffff"/>
  </g>
  <g id="axes_1">
   <g id="patch_2">
    <path d="M 90 128.16 
L 648 128.16 
L 648 17.28 
L 90 17.28 
z
" style="fill: #ffffff"/>
   </g>
   <g id="matplotlib.axis_1">
    <g id="xtick_1">
     <g id="line2d_1">
      <defs>
       <path id="m67175b66a8" d="M 0 0 
L 0 3.5 
" style="stroke: #000000; stroke-width: 0.8"/>
      </defs>
      <g>
       <use xlink:href="#m67175b66a8" x="115.363636" y="128.16" style="stroke: #000000; stroke-width: 0.8"/>
      </g>
     </g>
     <g id="text_1">
      <!-- 2020-06-18 -->
      <g transform="translate(86.305824 142.758438) scale(0.1 -0.1)">
       <defs>
        <path id="DejaVuSans-32" d="M 1228 531 
L 3431 531 
L 3431 0 
L 469 0 
L 469 531 
Q 828 903 1448 1529 
Q 2069 2156 2228 2338 
Q 2531 2678 2651 2914 
Q 2772 3150 2772 3378 
Q 2772 3750 2511 3984 
Q 2250 4219 1831 4219 
Q 1534 4219 1204 4116 
Q 875 4013 500 3803 
L 500 4441 
Q 881 4594 1212 4672 
Q 1544 4750 1819 4750 
Q 2544 4750 2975 4387 
Q 3406 4025 3406 3419 
Q 3406 3131 3298 2873 
Q 3191 2616 2906 2266 
Q 2828 2175 2409 1742 
Q 1991 1309 1228 531 
z
" transform="scale(0.015625)"/>
        <path id="DejaVuSans-30" d="M 2034 4250 
Q 1547 4250 1301 3770 
Q 1056 3291 1056 2328 
Q 1056 1369 1301 889 
Q 1547 409 2034 409 
Q 2525 409 2770 889 
Q 3016 1369 3016 2328 
Q 3016 3291 2770 3770 
Q 2525 4250 2034 4250 
z
M 2034 4750 
Q 2819 4750 3233 4129 
Q 3647 3509 3647 2328 
Q 3647 1150 3233 529 
Q 2819 -91 2034 -91 
Q 1250 -91 836 529 
Q 422 1150 422 2328 
Q 422 3509 836 4129 
Q 1250 4750 2034 4750 
z
" transform="scale(0.015625)"/>
        <path id="DejaVuSans-2d" d="M 313 2009 
L 1997 2009 
L 1997 1497 
L 313 1497 
L 313 2009 
z
" transform="scale(0.015625)"/>
        <path id="DejaVuSans-36" d="M 2113 2584 
Q 1688 2584 1439 2293 
Q 1191 2003 1191 1497 
Q 1191 994 1439 701 
Q 1688 409 2113 409 
Q 2538 409 2786 701 
Q 3034 994 3034 1497 
Q 3034 2003 2786 2293 
Q 2538 2584 2113 2584 
z
M 3366 4563 
L 3366 3988 
Q 3128 4100 2886 4159 
Q 2644 4219 2406 4219 
Q 1781 4219 1451 3797 
Q 1122 3375 1075 2522 
Q 1259 2794 1537 2939 
Q 1816 3084 2150 3084 
Q 2853 3084 3261 2657 
Q 3669 2231 3669 1497 
Q 3669 778 3244 343 
Q 2819 -91 2113 -91 
Q 1303 -91 875 529 
Q 447 1150 447 2328 
Q 447 3434 972 4092 
Q 1497 4750 2381 4750 
Q 2619 4750 2861 4703 
Q 3103 4656 3366 4563 
z
" transform="scale(0.015625)"/>
        <path id="DejaVuSans-31" d="M 794 531 
L 1825 531 
L 1825 4091 
L 703 3866 
L 703 4441 
L 1819 4666 
L 2450 4666 
L 2450 531 
L 3481 531 
L 3481 0 
L 794 0 
L 794 531 
z
" transform="scale(0.015625)"/>
        <path id="DejaVuSans-38" d="M 2034 2216 
Q 1584 2216 1326 1975 
Q 1069 1734 1069 1313 
Q 1069 891 1326 650 
Q 1584 409 2034 409 
Q 2484 409 2743 651 
Q 3003 894 3003 1313 
Q 3003 1734 2745 1975 
Q 2488 2216 2034 2216 
z
M 1403 2484 
Q 997 2584 770 2862 
Q 544 3141 544 3541 
Q 544 4100 942 4425 
Q 1341 4750 2034 4750 
Q 2731 4750 3128 4425 
Q 3525 4100 3525 3541 
Q 3525 3141 3298 2862 
Q 3072 2584 2669 2484 
Q 3125 2378 3379 2068 
Q 3634 1759 3634 1313 
Q 3634 634 3220 271 
Q 2806 -91 2034 -91 
Q 1263 -91 848 271 
Q 434 634 434 1313 
Q 434 1759 690 2068 
Q 947 2378 1403 2484 
z
M 1172 3481 
Q 1172 3119 1398 2916 
Q 1625 2713 2034 2713 
Q 2441 2713 2670 2916 
Q 2900 3119 2900 3481 
Q 2900 3844 2670 4047 
Q 2441 4250 2034 4250 
Q 1625 4250 1398 4047 
Q 1172 3844 1172 3481 
z
" transform="scale(0.015625)"/>
       </defs>
       <use xlink:href="#DejaVuSans-32"/>
       <use xlink:href="#DejaVuSans-30" transform="translate(63.623047 0)"/>
       <use xlink:href="#DejaVuSans-32" transform="translate(127.246094 0)"/>
       <use xlink:href="#DejaVuSans-30" transform="translate(190.869141 0)"/>
       <use xlink:href="#DejaVuSans-2d" transform="translate(254.492188 0)"/>
       <use xlink:href="#DejaVuSans-30" transform="translate(290.576172 0)"/>
       <use xlink:href="#DejaVuSans-36" transform="translate(354.199219 0)"/>
       <use xlink:href="#DejaVuSans-2d" transform="translate(417.822266 0)"/>
       <use xlink:href="#DejaVuSans-31" transform="translate(453.90625 0)"/>
       <use xlink:href="#DejaVuSans-38" transform="translate(517.529297 0)"/>
      </g>
     </g>
    </g>
    <g id="xtick_2">
     <g id="line2d_2">
      <g>
       <use xlink:href="#m67175b66a8" x="180.565786" y="128.16" style="stroke: #000000; stroke-width: 0.8"/>
      </g>
     </g>
     <g id="text_2">
      <!-- 2021-03-15 -->
      <g transform="translate(151.507974 142.758438) scale(0.1 -0.1)">
       <defs>
        <path id="DejaVuSans-33" d="M 2597 2516 
Q 3050 2419 3304 2112 
Q 3559 1806 3559 1356 
Q 3559 666 3084 287 
Q 2609 -91 1734 -91 
Q 1441 -91 1130 -33 
Q 819 25 488 141 
L 488 750 
Q 750 597 1062 519 
Q 1375 441 1716 441 
Q 2309 441 2620 675 
Q 2931 909 2931 1356 
Q 2931 1769 2642 2001 
Q 2353 2234 1838 2234 
L 1294 2234 
L 1294 2753 
L 1863 2753 
Q 2328 2753 2575 2939 
Q 2822 3125 2822 3475 
Q 2822 3834 2567 4026 
Q 2313 4219 1838 4219 
Q 1578 4219 1281 4162 
Q 984 4106 628 3988 
L 628 4550 
Q 988 4650 1302 4700 
Q 1616 4750 1894 4750 
Q 2613 4750 3031 4423 
Q 3450 4097 3450 3541 
Q 3450 3153 3228 2886 
Q 3006 2619 2597 2516 
z
" transform="scale(0.015625)"/>
        <path id="DejaVuSans-35" d="M 691 4666 
L 3169 4666 
L 3169 4134 
L 1269 4134 
L 1269 2991 
Q 1406 3038 1543 3061 
Q 1681 3084 1819 3084 
Q 2600 3084 3056 2656 
Q 3513 2228 3513 1497 
Q 3513 744 3044 326 
Q 2575 -91 1722 -91 
Q 1428 -91 1123 -41 
Q 819 9 494 109 
L 494 744 
Q 775 591 1075 516 
Q 1375 441 1709 441 
Q 2250 441 2565 725 
Q 2881 1009 2881 1497 
Q 2881 1984 2565 2268 
Q 2250 2553 1709 2553 
Q 1456 2553 1204 2497 
Q 953 2441 691 2322 
L 691 4666 
z
" transform="scale(0.015625)"/>
       </defs>
       <use xlink:href="#DejaVuSans-32"/>
       <use xlink:href="#DejaVuSans-30" transform="translate(63.623047 0)"/>
       <use xlink:href="#DejaVuSans-32" transform="translate(127.246094 0)"/>
       <use xlink:href="#DejaVuSans-31" transform="translate(190.869141 0)"/>
       <use xlink:href="#DejaVuSans-2d" transform="translate(254.492188 0)"/>
       <use xlink:href="#DejaVuSans-30" transform="translate(290.576172 0)"/>
       <use xlink:href="#DejaVuSans-33" transform="translate(354.199219 0)"/>
       <use xlink:href="#DejaVuSans-2d" transform="translate(417.822266 0)"/>
       <use xlink:href="#DejaVuSans-31" transform="translate(453.90625 0)"/>
       <use xlink:href="#DejaVuSans-35" transform="translate(517.529297 0)"/>
      </g>
     </g>
    </g>
    <g id="xtick_3">
     <g id="line2d_3">
      <g>
       <use xlink:href="#m67175b66a8" x="245.767936" y="128.16" style="stroke: #000000; stroke-width: 0.8"/>
      </g>
     </g>
     <g id="text_3">
      <!-- 2021-10-17 -->
      <g transform="translate(216.710124 142.758438) scale(0.1 -0.1)">
       <defs>
        <path id="DejaVuSans-37" d="M 525 4666 
L 3525 4666 
L 3525 4397 
L 1831 0 
L 1172 0 
L 2766 4134 
L 525 4134 
L 525 4666 
z
" transform="scale(0.015625)"/>
       </defs>
       <use xlink:href="#DejaVuSans-32"/>
       <use xlink:href="#DejaVuSans-30" transform="translate(63.623047 0)"/>
       <use xlink:href="#DejaVuSans-32" transform="translate(127.246094 0)"/>
       <use xlink:href="#DejaVuSans-31" transform="translate(190.869141 0)"/>
       <use xlink:href="#DejaVuSans-2d" transform="translate(254.492188 0)"/>
       <use xlink:href="#DejaVuSans-31" transform="translate(290.576172 0)"/>
       <use xlink:href="#DejaVuSans-30" transform="translate(354.199219 0)"/>
       <use xlink:href="#DejaVuSans-2d" transform="translate(417.822266 0)"/>
       <use xlink:href="#DejaVuSans-31" transform="translate(453.90625 0)"/>
       <use xlink:href="#DejaVuSans-37" transform="translate(517.529297 0)"/>
      </g>
     </g>
    </g>
    <g id="xtick_4">
     <g id="line2d_4">
      <g>
       <use xlink:href="#m67175b66a8" x="310.970086" y="128.16" style="stroke: #000000; stroke-width: 0.8"/>
      </g>
     </g>
     <g id="text_4">
      <!-- 2022-05-15 -->
      <g transform="translate(281.912274 142.758438) scale(0.1 -0.1)">
       <use xlink:href="#DejaVuSans-32"/>
       <use xlink:href="#DejaVuSans-30" transform="translate(63.623047 0)"/>
       <use xlink:href="#DejaVuSans-32" transform="translate(127.246094 0)"/>
       <use xlink:href="#DejaVuSans-32" transform="translate(190.869141 0)"/>
       <use xlink:href="#DejaVuSans-2d" transform="translate(254.492188 0)"/>
       <use xlink:href="#DejaVuSans-30" transform="translate(290.576172 0)"/>
       <use xlink:href="#DejaVuSans-35" transform="translate(354.199219 0)"/>
       <use xlink:href="#DejaVuSans-2d" transform="translate(417.822266 0)"/>
       <use xlink:href="#DejaVuSans-31" transform="translate(453.90625 0)"/>
       <use xlink:href="#DejaVuSans-35" transform="translate(517.529297 0)"/>
      </g>
     </g>
    </g>
    <g id="xtick_5">
     <g id="line2d_5">
      <g>
       <use xlink:href="#m67175b66a8" x="376.172237" y="128.16" style="stroke: #000000; stroke-width: 0.8"/>
      </g>
     </g>
     <g id="text_5">
      <!-- 2022-12-10 -->
      <g transform="translate(347.114424 142.758438) scale(0.1 -0.1)">
       <use xlink:href="#DejaVuSans-32"/>
       <use xlink:href="#DejaVuSans-30" transform="translate(63.623047 0)"/>
       <use xlink:href="#DejaVuSans-32" transform="translate(127.246094 0)"/>
       <use xlink:href="#DejaVuSans-32" transform="translate(190.869141 0)"/>
       <use xlink:href="#DejaVuSans-2d" transform="translate(254.492188 0)"/>
       <use xlink:href="#DejaVuSans-31" transform="translate(290.576172 0)"/>
       <use xlink:href="#DejaVuSans-32" transform="translate(354.199219 0)"/>
       <use xlink:href="#DejaVuSans-2d" transform="translate(417.822266 0)"/>
       <use xlink:href="#DejaVuSans-31" transform="translate(453.90625 0)"/>
       <use xlink:href="#DejaVuSans-30" transform="translate(517.529297 0)"/>
      </g>
     </g>
    </g>
    <g id="xtick_6">
     <g id="line2d_6">
      <g>
       <use xlink:href="#m67175b66a8" x="441.374387" y="128.16" style="stroke: #000000; stroke-width: 0.8"/>
      </g>
     </g>
     <g id="text_6">
      <!-- 2023-07-14 -->
      <g transform="translate(412.316574 142.758438) scale(0.1 -0.1)">
       <defs>
        <path id="DejaVuSans-34" d="M 2419 4116 
L 825 1625 
L 2419 1625 
L 2419 4116 
z
M 2253 4666 
L 3047 4666 
L 3047 1625 
L 3713 1625 
L 3713 1100 
L 3047 1100 
L 3047 0 
L 2419 0 
L 2419 1100 
L 313 1100 
L 313 1709 
L 2253 4666 
z
" transform="scale(0.015625)"/>
       </defs>
       <use xlink:href="#DejaVuSans-32"/>
       <use xlink:href="#DejaVuSans-30" transform="translate(63.623047 0)"/>
       <use xlink:href="#DejaVuSans-32" transform="translate(127.246094 0)"/>
       <use xlink:href="#DejaVuSans-33" transform="translate(190.869141 0)"/>
       <use xlink:href="#DejaVuSans-2d" transform="translate(254.492188 0)"/>
       <use xlink:href="#DejaVuSans-30" transform="translate(290.576172 0)"/>
       <use xlink:href="#DejaVuSans-37" transform="translate(354.199219 0)"/>
       <use xlink:href="#DejaVuSans-2d" transform="translate(417.822266 0)"/>
       <use xlink:href="#DejaVuSans-31" transform="translate(453.90625 0)"/>
       <use xlink:href="#DejaVuSans-34" transform="translate(517.529297 0)"/>
      </g>
     </g>
    </g>
    <g id="xtick_7">
     <g id="line2d_7">
      <g>
       <use xlink:href="#m67175b66a8" x="506.576537" y="128.16" style="stroke: #000000; stroke-width: 0.8"/>
      </g>
     </g>
     <g id="text_7">
      <!-- 2024-02-07 -->
      <g transform="translate(477.518724 142.758438) scale(0.1 -0.1)">
       <use xlink:href="#DejaVuSans-32"/>
       <use xlink:href="#DejaVuSans-30" transform="translate(63.623047 0)"/>
       <use xlink:href="#DejaVuSans-32" transform="translate(127.246094 0)"/>
       <use xlink:href="#DejaVuSans-34" transform="translate(190.869141 0)"/>
       <use xlink:href="#DejaVuSans-2d" transform="translate(254.492188 0)"/>
       <use xlink:href="#DejaVuSans-30" transform="translate(290.576172 0)"/>
       <use xlink:href="#DejaVuSans-32" transform="translate(354.199219 0)"/>
       <use xlink:href="#DejaVuSans-2d" transform="translate(417.822266 0)"/>
       <use xlink:href="#DejaVuSans-30" transform="translate(453.90625 0)"/>
       <use xlink:href="#DejaVuSans-37" transform="translate(517.529297 0)"/>
      </g>
     </g>
    </g>
    <g id="xtick_8">
     <g id="line2d_8">
      <g>
       <use xlink:href="#m67175b66a8" x="571.778687" y="128.16" style="stroke: #000000; stroke-width: 0.8"/>
      </g>
     </g>
     <g id="text_8">
      <!-- 2024-08-27 -->
      <g transform="translate(542.720874 142.758438) scale(0.1 -0.1)">
       <use xlink:href="#DejaVuSans-32"/>
       <use xlink:href="#DejaVuSans-30" transform="translate(63.623047 0)"/>
       <use xlink:href="#DejaVuSans-32" transform="translate(127.246094 0)"/>
       <use xlink:href="#DejaVuSans-34" transform="translate(190.869141 0)"/>
       <use xlink:href="#DejaVuSans-2d" transform="translate(254.492188 0)"/>
       <use xlink:href="#DejaVuSans-30" transform="translate(290.576172 0)"/>
       <use xlink:href="#DejaVuSans-38" transform="translate(354.199219 0)"/>
       <use xlink:href="#DejaVuSans-2d" transform="translate(417.822266 0)"/>
       <use xlink:href="#DejaVuSans-32" transform="translate(453.90625 0)"/>
       <use xlink:href="#DejaVuSans-37" transform="translate(517.529297 0)"/>
      </g>
     </g>
    </g>
    <g id="xtick_9">
     <g id="line2d_9">
      <g>
       <use xlink:href="#m67175b66a8" x="636.980837" y="128.16" style="stroke: #000000; stroke-width: 0.8"/>
      </g>
     </g>
    </g>
    <g id="text_9">
     <!-- date -->
     <g transform="translate(357.725 156.436563) scale(0.1 -0.1)">
      <defs>
       <path id="DejaVuSans-64" d="M 2906 2969 
L 2906 4863 
L 3481 4863 
L 3481 0 
L 2906 0 
L 2906 525 
Q 2725 213 2448 61 
Q 2172 -91 1784 -91 
Q 1150 -91 751 415 
Q 353 922 353 1747 
Q 353 2572 751 3078 
Q 1150 3584 1784 3584 
Q 2172 3584 2448 3432 
Q 2725 3281 2906 2969 
z
M 947 1747 
Q 947 1113 1208 752 
Q 1469 391 1925 391 
Q 2381 391 2643 752 
Q 2906 1113 2906 1747 
Q 2906 2381 2643 2742 
Q 2381 3103 1925 3103 
Q 1469 3103 1208 2742 
Q 947 2381 947 1747 
z
" transform="scale(0.015625)"/>
       <path id="DejaVuSans-61" d="M 2194 1759 
Q 1497 1759 1228 1600 
Q 959 1441 959 1056 
Q 959 750 1161 570 
Q 1363 391 1709 391 
Q 2188 391 2477 730 
Q 2766 1069 2766 1631 
L 2766 1759 
L 2194 1759 
z
M 3341 1997 
L 3341 0 
L 2766 0 
L 2766 531 
Q 2569 213 2275 61 
Q 1981 -91 1556 -91 
Q 1019 -91 701 211 
Q 384 513 384 1019 
Q 384 1609 779 1909 
Q 1175 2209 1959 2209 
L 2766 2209 
L 2766 2266 
Q 2766 2663 2505 2880 
Q 2244 3097 1772 3097 
Q 1472 3097 1187 3025 
Q 903 2953 641 2809 
L 641 3341 
Q 956 3463 1253 3523 
Q 1550 3584 1831 3584 
Q 2591 3584 2966 3190 
Q 3341 2797 3341 1997 
z
" transform="scale(0.015625)"/>
       <path id="DejaVuSans-74" d="M 1172 4494 
L 1172 3500 
L 2356 3500 
L 2356 3053 
L 1172 3053 
L 1172 1153 
Q 1172 725 1289 603 
Q 1406 481 1766 481 
L 2356 481 
L 2356 0 
L 1766 0 
Q 1100 0 847 248 
Q 594 497 594 1153 
L 594 3053 
L 172 3053 
L 172 3500 
L 594 3500 
L 594 4494 
L 1172 4494 
z
" transform="scale(0.015625)"/>
       <path id="DejaVuSans-65" d="M 3597 1894 
L 3597 1613 
L 953 1613 
Q 991 1019 1311 708 
Q 1631 397 2203 397 
Q 2534 397 2845 478 
Q 3156 559 3463 722 
L 3463 178 
Q 3153 47 2828 -22 
Q 2503 -91 2169 -91 
Q 1331 -91 842 396 
Q 353 884 353 1716 
Q 353 2575 817 3079 
Q 1281 3584 2069 3584 
Q 2775 3584 3186 3129 
Q 3597 2675 3597 1894 
z
M 3022 2063 
Q 3016 2534 2758 2815 
Q 2500 3097 2075 3097 
Q 1594 3097 1305 2825 
Q 1016 2553 972 2059 
L 3022 2063 
z
" transform="scale(0.015625)"/>
      </defs>
      <use xlink:href="#DejaVuSans-64"/>
      <use xlink:href="#DejaVuSans-61" transform="translate(63.476562 0)"/>
      <use xlink:href="#DejaVuSans-74" transform="translate(124.755859 0)"/>
      <use xlink:href="#DejaVuSans-65" transform="translate(163.964844 0)"/>
     </g>
    </g>
   </g>
   <g id="matplotlib.axis_2">
    <g id="ytick_1">
     <g id="line2d_10">
      <defs>
       <path id="mc5fc17586b" d="M 0 0 
L -3.5 0 
" style="stroke: #000000; stroke-width: 0.8"/>
      </defs>
      <g>
       <use xlink:href="#mc5fc17586b" x="90" y="123.597725" style="stroke: #000000; stroke-width: 0.8"/>
      </g>
     </g>
     <g id="text_10">
      <!-- 0 -->
      <g transform="translate(76.6375 127.396944) scale(0.1 -0.1)">
       <use xlink:href="#DejaVuSans-30"/>
      </g>
     </g>
    </g>
    <g id="ytick_2">
     <g id="line2d_11">
      <g>
       <use xlink:href="#mc5fc17586b" x="90" y="99.711469" style="stroke: #000000; stroke-width: 0.8"/>
      </g>
     </g>
     <g id="text_11">
      <!-- 50 -->
      <g transform="translate(70.275 103.510688) scale(0.1 -0.1)">
       <use xlink:href="#DejaVuSans-35"/>
       <use xlink:href="#DejaVuSans-30" transform="translate(63.623047 0)"/>
      </g>
     </g>
    </g>
    <g id="ytick_3">
     <g id="line2d_12">
      <g>
       <use xlink:href="#mc5fc17586b" x="90" y="75.825213" style="stroke: #000000; stroke-width: 0.8"/>
      </g>
     </g>
     <g id="text_12">
      <!-- 100 -->
      <g transform="translate(63.9125 79.624432) scale(0.1 -0.1)">
       <use xlink:href="#DejaVuSans-31"/>
       <use xlink:href="#DejaVuSans-30" transform="translate(63.623047 0)"/>
       <use xlink:href="#DejaVuSans-30" transform="translate(127.246094 0)"/>
      </g>
     </g>
    </g>
    <g id="ytick_4">
     <g id="line2d_13">
      <g>
       <use xlink:href="#mc5fc17586b" x="90" y="51.938957" style="stroke: #000000; stroke-width: 0.8"/>
      </g>
     </g>
     <g id="text_13">
      <!-- 150 -->
      <g transform="translate(63.9125 55.738176) scale(0.1 -0.1)">
       <use xlink:href="#DejaVuSans-31"/>
       <use xlink:href="#DejaVuSans-35" transform="translate(63.623047 0)"/>
       <use xlink:href="#DejaVuSans-30" transform="translate(127.246094 0)"/>
      </g>
     </g>
    </g>
    <g id="ytick_5">
     <g id="line2d_14">
      <g>
       <use xlink:href="#mc5fc17586b" x="90" y="28.052701" style="stroke: #000000; stroke-width: 0.8"/>
      </g>
     </g>
     <g id="text_14">
      <!-- 200 -->
      <g transform="translate(63.9125 31.85192) scale(0.1 -0.1)">
       <use xlink:href="#DejaVuSans-32"/>
       <use xlink:href="#DejaVuSans-30" transform="translate(63.623047 0)"/>
       <use xlink:href="#DejaVuSans-30" transform="translate(127.246094 0)"/>
      </g>
     </g>
    </g>
   </g>
   <g id="line2d_15">
    <path d="M 115.363636 113.087773 
L 116.015658 121.686825 
L 116.99369 123.12 
L 117.319701 122.16455 
L 117.645712 119.775924 
L 117.971722 122.642275 
L 118.297733 122.16455 
L 118.623744 122.642275 
L 118.949755 112.132322 
L 119.275765 120.253649 
L 119.601776 122.16455 
L 119.927787 119.775924 
L 120.253798 122.642275 
L 120.579808 120.731374 
L 120.905819 120.253649 
L 121.23183 123.12 
L 121.557841 122.16455 
L 121.883851 118.820474 
L 122.209862 119.775924 
L 122.535873 121.686825 
L 122.861884 122.16455 
L 123.187894 122.16455 
L 123.839916 123.12 
L 124.165927 119.298199 
L 124.491937 99.233744 
L 124.817948 120.731374 
L 125.143959 122.16455 
L 125.46997 122.16455 
L 125.79598 121.2091 
L 126.121991 122.642275 
L 126.448002 121.686825 
L 126.774013 123.12 
L 127.100023 122.16455 
L 127.426034 122.16455 
L 127.752045 123.12 
L 128.078056 122.642275 
L 128.404066 121.686825 
L 128.730077 121.686825 
L 129.056088 120.731374 
L 129.382099 123.12 
L 129.708109 123.12 
L 130.03412 122.642275 
L 130.360131 122.642275 
L 130.686142 123.12 
L 131.012152 123.12 
L 131.338163 115.954123 
L 131.664174 121.2091 
L 131.990185 120.253649 
L 132.316195 122.642275 
L 132.968217 120.253649 
L 133.294228 121.2091 
L 133.620238 123.12 
L 133.946249 122.642275 
L 134.27226 121.2091 
L 134.598271 123.12 
L 135.250292 122.16455 
L 135.576303 120.253649 
L 136.228324 123.12 
L 136.554335 121.686825 
L 136.880346 121.2091 
L 137.206357 123.12 
L 137.532367 121.686825 
L 137.858378 123.12 
L 138.184389 122.642275 
L 138.5104 121.2091 
L 138.83641 123.12 
L 139.162421 122.642275 
L 139.488432 122.642275 
L 139.814443 123.12 
L 140.140453 121.2091 
L 140.466464 123.12 
L 140.792475 122.16455 
L 141.444496 122.16455 
L 141.770507 121.686825 
L 142.096518 120.731374 
L 142.422529 122.16455 
L 142.748539 120.731374 
L 143.07455 123.12 
L 143.726572 122.16455 
L 144.052582 121.2091 
L 144.378593 122.642275 
L 144.704604 123.12 
L 145.030615 122.642275 
L 145.356625 121.686825 
L 145.682636 122.16455 
L 146.008647 123.12 
L 146.334658 116.909573 
L 146.660668 123.12 
L 146.986679 122.16455 
L 147.31269 121.686825 
L 147.638701 123.12 
L 148.290722 119.775924 
L 148.616733 122.16455 
L 148.942744 123.12 
L 149.268754 123.12 
L 149.594765 122.642275 
L 149.920776 123.12 
L 150.246787 123.12 
L 150.572797 122.642275 
L 150.898808 122.642275 
L 151.224819 122.16455 
L 151.55083 122.642275 
L 152.528862 121.2091 
L 152.854873 122.16455 
L 153.180883 122.16455 
L 153.832905 121.2091 
L 154.158916 122.642275 
L 154.484926 123.12 
L 154.810937 120.253649 
L 155.136948 122.642275 
L 155.462959 122.642275 
L 155.788969 119.775924 
L 156.11498 122.16455 
L 156.440991 122.16455 
L 156.767002 111.654597 
L 157.093012 121.2091 
L 157.419023 122.16455 
L 157.745034 120.253649 
L 158.071045 122.642275 
L 158.397055 120.731374 
L 158.723066 122.642275 
L 159.049077 119.775924 
L 159.701098 123.12 
L 160.027109 122.642275 
L 160.35312 117.387299 
L 160.679131 121.2091 
L 161.005141 122.642275 
L 161.331152 123.12 
L 161.657163 123.12 
L 161.983174 119.775924 
L 162.309184 123.12 
L 162.635195 123.12 
L 162.961206 121.686825 
L 163.287217 123.12 
L 163.613227 123.12 
L 164.265249 121.2091 
L 164.59126 123.12 
L 164.91727 122.16455 
L 165.569292 123.12 
L 165.895303 121.2091 
L 166.221313 123.12 
L 166.547324 123.12 
L 166.873335 122.642275 
L 167.199346 123.12 
L 167.525356 123.12 
L 167.851367 121.2091 
L 168.503389 123.12 
L 169.15541 122.16455 
L 169.481421 122.16455 
L 169.807432 122.642275 
L 170.133442 121.686825 
L 170.459453 122.642275 
L 170.785464 123.12 
L 171.437485 123.12 
L 171.763496 121.2091 
L 172.089507 123.12 
L 172.415518 122.642275 
L 172.741528 123.12 
L 173.067539 121.2091 
L 173.39355 122.16455 
L 173.719561 122.642275 
L 174.045571 122.642275 
L 174.371582 121.686825 
L 174.697593 122.642275 
L 175.023604 122.16455 
L 175.349614 122.16455 
L 175.675625 122.642275 
L 176.001636 122.642275 
L 176.327647 123.12 
L 176.653657 120.253649 
L 176.979668 122.642275 
L 177.305679 122.642275 
L 177.63169 123.12 
L 177.9577 122.642275 
L 178.283711 123.12 
L 178.609722 123.12 
L 179.261743 122.16455 
L 179.587754 118.342749 
L 179.913765 109.265972 
L 180.239776 123.12 
L 180.565786 122.642275 
L 180.891797 120.253649 
L 181.217808 121.2091 
L 181.543819 120.731374 
L 181.869829 116.909573 
L 182.19584 123.12 
L 182.521851 122.642275 
L 182.847862 121.686825 
L 183.499883 118.342749 
L 183.825894 112.610047 
L 184.151905 116.431848 
L 184.477915 122.642275 
L 184.803926 107.355071 
L 185.129937 115.954123 
L 185.455948 119.775924 
L 185.781958 116.909573 
L 186.107969 121.2091 
L 186.43398 116.909573 
L 186.759991 117.387299 
L 187.086001 116.431848 
L 187.412012 112.610047 
L 187.738023 122.16455 
L 188.064034 120.253649 
L 188.390044 122.16455 
L 188.716055 123.12 
L 189.042066 121.2091 
L 189.368077 123.12 
L 189.694087 122.16455 
L 190.020098 123.12 
L 190.346109 122.642275 
L 190.67212 116.909573 
L 190.99813 122.16455 
L 191.324141 120.731374 
L 191.650152 121.686825 
L 191.976163 121.2091 
L 192.302173 123.12 
L 192.628184 120.253649 
L 192.954195 121.2091 
L 193.280206 122.642275 
L 193.606216 120.731374 
L 193.932227 123.12 
L 194.258238 122.16455 
L 194.584249 123.12 
L 194.910259 121.686825 
L 195.23627 122.642275 
L 195.562281 121.686825 
L 195.888292 121.2091 
L 196.214302 122.642275 
L 196.866324 122.642275 
L 197.192335 121.686825 
L 197.518345 121.2091 
L 197.844356 113.087773 
L 198.170367 114.043223 
L 198.496378 122.16455 
L 198.822388 122.642275 
L 199.148399 120.731374 
L 199.47441 121.2091 
L 199.800421 120.253649 
L 200.126431 122.642275 
L 200.452442 123.12 
L 200.778453 120.731374 
L 201.104464 120.253649 
L 201.430474 118.820474 
L 201.756485 122.642275 
L 202.082496 121.2091 
L 202.408507 122.642275 
L 202.734517 122.642275 
L 203.060528 123.12 
L 203.71255 121.2091 
L 204.364571 123.12 
L 204.690582 122.16455 
L 205.016593 122.642275 
L 205.342603 120.253649 
L 205.668614 119.298199 
L 205.994625 120.253649 
L 206.320636 120.731374 
L 206.646646 119.775924 
L 206.972657 115.954123 
L 207.298668 120.731374 
L 207.624679 121.686825 
L 207.950689 121.2091 
L 208.2767 119.775924 
L 208.602711 116.431848 
L 208.928722 122.642275 
L 209.254732 122.16455 
L 209.580743 123.12 
L 209.906754 119.298199 
L 210.232765 119.775924 
L 210.558775 121.686825 
L 210.884786 118.820474 
L 211.210797 117.865024 
L 211.536808 122.642275 
L 211.862818 122.642275 
L 212.188829 118.820474 
L 212.51484 110.221422 
L 212.840851 116.909573 
L 213.166861 120.731374 
L 213.492872 121.2091 
L 213.818883 121.2091 
L 214.470904 122.16455 
L 214.796915 120.731374 
L 215.122926 120.731374 
L 215.448937 122.642275 
L 215.774947 122.642275 
L 216.100958 122.16455 
L 216.426969 122.642275 
L 216.75298 119.775924 
L 217.07899 119.775924 
L 217.405001 120.731374 
L 217.731012 119.298199 
L 218.057023 115.954123 
L 218.383033 119.775924 
L 218.709044 119.775924 
L 219.035055 122.16455 
L 219.361066 122.16455 
L 219.687076 120.253649 
L 220.013087 123.12 
L 220.339098 114.998673 
L 220.665109 114.043223 
L 220.991119 120.731374 
L 221.31713 121.2091 
L 221.643141 116.909573 
L 222.295162 122.16455 
L 222.621173 121.2091 
L 222.947184 123.12 
L 223.273195 119.298199 
L 223.599205 113.087773 
L 223.925216 122.642275 
L 224.251227 122.16455 
L 224.903248 123.12 
L 225.229259 121.686825 
L 225.55527 114.043223 
L 225.881281 119.775924 
L 226.207291 122.642275 
L 226.533302 122.642275 
L 226.859313 115.954123 
L 227.185324 122.16455 
L 227.511334 122.642275 
L 227.837345 122.16455 
L 229.141388 122.16455 
L 229.467399 121.2091 
L 229.79341 123.12 
L 230.11942 122.642275 
L 230.445431 122.642275 
L 230.771442 123.12 
L 231.097453 123.12 
L 231.423463 122.642275 
L 231.749474 123.12 
L 232.075485 120.731374 
L 232.401496 122.642275 
L 232.727506 121.2091 
L 233.053517 121.2091 
L 233.379528 120.253649 
L 233.705539 121.2091 
L 234.031549 123.12 
L 234.35756 122.16455 
L 235.009582 122.16455 
L 235.335592 123.12 
L 235.661603 122.642275 
L 235.987614 122.642275 
L 236.313625 121.686825 
L 236.639635 122.642275 
L 237.617668 122.642275 
L 237.943678 106.399621 
L 238.269689 121.2091 
L 238.5957 123.12 
L 238.921711 122.642275 
L 239.247721 121.686825 
L 239.573732 123.12 
L 239.899743 121.2091 
L 240.225754 122.642275 
L 240.551764 120.731374 
L 240.877775 120.253649 
L 241.203786 120.253649 
L 241.529797 119.775924 
L 241.855807 114.043223 
L 242.181818 114.043223 
L 242.507829 120.253649 
L 243.15985 122.642275 
L 243.485861 115.476398 
L 243.811872 121.2091 
L 244.137883 122.642275 
L 244.463893 122.642275 
L 244.789904 122.16455 
L 245.115915 122.16455 
L 245.441926 122.642275 
L 245.767936 122.642275 
L 246.093947 121.2091 
L 246.419958 123.12 
L 246.745969 122.642275 
L 247.071979 121.2091 
L 247.39799 121.2091 
L 247.724001 122.16455 
L 248.376022 114.043223 
L 248.702033 119.298199 
L 249.028044 118.820474 
L 249.354055 115.954123 
L 249.680065 117.865024 
L 250.332087 118.820474 
L 250.658098 118.342749 
L 250.984108 115.476398 
L 251.310119 116.909573 
L 251.63613 121.2091 
L 251.962141 121.686825 
L 252.288151 120.731374 
L 252.614162 120.731374 
L 252.940173 119.298199 
L 253.266184 120.253649 
L 253.592194 117.387299 
L 253.918205 119.775924 
L 254.244216 120.253649 
L 254.570227 118.342749 
L 254.896237 114.043223 
L 255.222248 118.342749 
L 255.548259 120.253649 
L 256.20028 118.342749 
L 256.526291 120.253649 
L 256.852302 116.909573 
L 257.504323 120.253649 
L 257.830334 116.909573 
L 258.156345 122.16455 
L 258.482356 121.2091 
L 258.808366 121.686825 
L 259.134377 119.775924 
L 259.460388 119.298199 
L 259.786399 111.654597 
L 260.112409 110.221422 
L 260.43842 118.820474 
L 260.764431 105.921896 
L 261.090442 122.16455 
L 261.416452 121.2091 
L 261.742463 122.16455 
L 262.068474 109.743697 
L 262.394485 110.221422 
L 263.046506 122.642275 
L 263.372517 121.2091 
L 263.698528 117.387299 
L 264.024538 121.2091 
L 264.350549 121.2091 
L 264.67656 110.221422 
L 265.002571 118.342749 
L 265.328581 119.775924 
L 265.980603 120.731374 
L 266.306614 120.731374 
L 266.632624 119.775924 
L 267.610657 122.642275 
L 267.936667 119.298199 
L 268.262678 122.642275 
L 268.588689 122.642275 
L 269.24071 121.686825 
L 269.566721 123.12 
L 270.218743 120.731374 
L 270.544753 122.16455 
L 270.870764 122.642275 
L 271.196775 122.642275 
L 271.522786 119.298199 
L 271.848796 123.12 
L 272.174807 112.610047 
L 272.500818 122.16455 
L 272.826829 122.642275 
L 273.152839 121.2091 
L 273.47885 121.2091 
L 273.804861 121.686825 
L 274.130872 122.642275 
L 274.456882 119.775924 
L 274.782893 122.16455 
L 275.108904 121.2091 
L 275.434915 121.686825 
L 275.760925 112.132322 
L 276.086936 122.16455 
L 276.412947 120.731374 
L 276.738958 123.12 
L 277.064968 123.12 
L 277.390979 122.642275 
L 277.71699 119.298199 
L 278.043001 122.642275 
L 278.369011 119.775924 
L 279.021033 123.12 
L 279.347044 121.2091 
L 279.999065 121.2091 
L 280.651087 118.820474 
L 280.977097 121.686825 
L 281.303108 121.686825 
L 281.629119 121.2091 
L 281.95513 122.16455 
L 282.28114 122.16455 
L 282.607151 121.2091 
L 282.933162 119.775924 
L 283.259173 119.775924 
L 283.585183 120.731374 
L 283.911194 122.642275 
L 284.563216 122.642275 
L 284.889226 114.043223 
L 285.215237 93.978768 
L 285.541248 103.53327 
L 285.867259 120.731374 
L 286.193269 122.16455 
L 286.51928 121.2091 
L 287.171302 114.520948 
L 287.497312 120.253649 
L 288.149334 101.62237 
L 288.475345 121.2091 
L 288.801355 101.144645 
L 289.127366 117.387299 
L 289.453377 122.642275 
L 289.779388 95.411943 
L 290.105398 110.699147 
L 290.431409 115.954123 
L 290.75742 92.545592 
L 291.083431 120.731374 
L 291.409441 121.2091 
L 291.735452 110.221422 
L 292.061463 116.909573 
L 292.387474 108.788246 
L 292.713484 116.909573 
L 293.039495 121.686825 
L 293.365506 82.03564 
L 293.691517 120.731374 
L 294.017527 121.2091 
L 294.343538 121.2091 
L 294.669549 117.865024 
L 294.99556 120.253649 
L 295.32157 113.565498 
L 295.647581 120.253649 
L 295.973592 121.686825 
L 296.299603 110.699147 
L 296.625613 110.699147 
L 296.951624 117.865024 
L 297.277635 109.265972 
L 297.603646 120.731374 
L 297.929656 121.2091 
L 298.255667 110.699147 
L 298.581678 123.12 
L 298.907689 122.16455 
L 299.233699 121.686825 
L 299.55971 120.731374 
L 299.885721 122.16455 
L 300.211732 121.686825 
L 300.537742 120.731374 
L 300.863753 118.342749 
L 301.189764 119.775924 
L 301.515775 115.476398 
L 302.167796 122.642275 
L 302.493807 123.12 
L 302.819818 119.298199 
L 303.79785 123.12 
L 304.123861 120.731374 
L 304.449871 122.642275 
L 304.775882 120.731374 
L 305.101893 123.12 
L 305.753914 122.16455 
L 306.079925 123.12 
L 306.405936 123.12 
L 306.731947 122.16455 
L 307.383968 121.2091 
L 307.709979 121.2091 
L 308.03599 121.686825 
L 308.362 121.686825 
L 308.688011 123.12 
L 309.014022 122.16455 
L 309.340033 106.877346 
L 309.666043 121.686825 
L 309.992054 122.642275 
L 310.644076 122.642275 
L 310.970086 120.253649 
L 311.296097 120.731374 
L 311.622108 115.476398 
L 311.948119 122.16455 
L 312.274129 119.775924 
L 312.60014 122.642275 
L 312.926151 123.12 
L 313.252162 121.686825 
L 313.578172 122.16455 
L 313.904183 119.775924 
L 314.230194 120.731374 
L 314.556205 122.16455 
L 314.882215 122.642275 
L 315.208226 122.16455 
L 315.534237 120.253649 
L 315.860248 121.2091 
L 316.186258 120.731374 
L 316.512269 121.686825 
L 316.83828 119.298199 
L 317.164291 120.253649 
L 317.490301 123.12 
L 317.816312 120.731374 
L 318.142323 121.2091 
L 318.468334 115.954123 
L 318.794344 122.642275 
L 319.120355 120.731374 
L 319.446366 120.731374 
L 319.772377 121.2091 
L 320.098387 116.431848 
L 320.424398 108.788246 
L 320.750409 121.2091 
L 321.07642 122.642275 
L 321.40243 119.775924 
L 321.728441 122.16455 
L 322.054452 121.686825 
L 322.380463 121.686825 
L 322.706473 123.12 
L 323.358495 122.16455 
L 323.684506 121.2091 
L 324.010516 122.642275 
L 324.336527 121.2091 
L 324.662538 122.642275 
L 324.988549 121.2091 
L 325.314559 123.12 
L 325.64057 121.2091 
L 325.966581 122.16455 
L 326.292592 122.16455 
L 326.618602 121.2091 
L 326.944613 123.12 
L 327.270624 121.2091 
L 327.596635 122.16455 
L 327.922645 119.298199 
L 328.248656 122.642275 
L 328.574667 118.820474 
L 328.900678 108.788246 
L 329.226688 122.642275 
L 329.552699 123.12 
L 329.87871 122.16455 
L 330.204721 119.775924 
L 330.530731 122.16455 
L 331.182753 123.12 
L 331.508764 119.298199 
L 331.834774 122.16455 
L 332.160785 121.686825 
L 332.812807 114.043223 
L 333.138817 120.253649 
L 333.464828 122.16455 
L 333.790839 122.16455 
L 334.11685 119.775924 
L 334.44286 103.53327 
L 334.768871 115.476398 
L 335.094882 119.775924 
L 335.420893 121.686825 
L 335.746903 121.686825 
L 336.072914 107.832796 
L 336.398925 121.2091 
L 336.724936 122.642275 
L 337.376957 122.642275 
L 337.702968 121.686825 
L 338.028979 121.2091 
L 338.354989 122.16455 
L 338.681 120.731374 
L 339.007011 121.686825 
L 339.333022 123.12 
L 339.659032 122.16455 
L 339.985043 120.253649 
L 340.311054 122.16455 
L 340.637065 119.775924 
L 340.963075 119.775924 
L 341.289086 120.731374 
L 341.615097 122.16455 
L 341.941108 113.565498 
L 342.267118 121.2091 
L 342.593129 115.476398 
L 342.91914 119.775924 
L 343.245151 120.731374 
L 343.571161 115.954123 
L 343.897172 122.16455 
L 344.549194 117.865024 
L 344.875204 121.2091 
L 345.201215 119.298199 
L 345.527226 115.476398 
L 345.853237 114.998673 
L 346.179247 120.731374 
L 346.505258 112.132322 
L 346.831269 115.954123 
L 347.15728 121.686825 
L 347.48329 114.998673 
L 347.809301 122.642275 
L 348.135312 122.16455 
L 348.461323 117.865024 
L 348.787333 119.298199 
L 349.113344 109.743697 
L 349.439355 117.865024 
L 349.765366 117.387299 
L 350.091376 117.387299 
L 350.417387 118.342749 
L 350.743398 120.731374 
L 351.069409 121.2091 
L 351.395419 119.775924 
L 351.72143 120.731374 
L 352.047441 116.909573 
L 352.373452 121.2091 
L 353.025473 114.520948 
L 353.351484 118.342749 
L 353.677495 118.820474 
L 354.003505 118.342749 
L 354.329516 122.642275 
L 354.655527 119.775924 
L 354.981538 122.16455 
L 355.307548 121.686825 
L 355.633559 117.387299 
L 355.95957 116.909573 
L 356.285581 109.743697 
L 356.611591 116.909573 
L 356.937602 115.476398 
L 357.263613 120.253649 
L 357.589624 121.2091 
L 357.915634 120.731374 
L 358.241645 120.731374 
L 358.567656 122.642275 
L 358.893667 120.731374 
L 359.219677 114.520948 
L 359.545688 120.731374 
L 360.19771 120.731374 
L 360.52372 122.642275 
L 360.849731 123.12 
L 361.175742 122.642275 
L 361.501753 120.253649 
L 361.827763 113.087773 
L 362.153774 121.2091 
L 362.479785 121.2091 
L 362.805796 123.12 
L 363.131806 123.12 
L 363.457817 107.832796 
L 364.109839 119.775924 
L 364.435849 116.909573 
L 365.087871 122.642275 
L 365.413882 122.16455 
L 365.739892 122.642275 
L 366.065903 118.820474 
L 366.391914 122.642275 
L 366.717925 121.686825 
L 367.043935 122.16455 
L 367.369946 123.12 
L 367.695957 109.265972 
L 368.021968 121.2091 
L 368.347978 115.954123 
L 368.673989 115.954123 
L 369 117.865024 
L 369.326011 121.686825 
L 369.652022 122.16455 
L 369.978032 118.820474 
L 370.304043 120.253649 
L 370.630054 119.775924 
L 370.956065 118.820474 
L 371.282075 122.642275 
L 371.608086 121.2091 
L 371.934097 122.16455 
L 372.586118 123.12 
L 373.890161 121.2091 
L 374.542183 112.132322 
L 374.868194 120.253649 
L 375.194204 118.820474 
L 375.520215 122.642275 
L 375.846226 118.820474 
L 376.172237 123.12 
L 376.498247 122.16455 
L 377.150269 121.2091 
L 377.47628 121.686825 
L 377.80229 121.2091 
L 378.128301 120.253649 
L 378.454312 113.565498 
L 378.780323 120.253649 
L 379.106333 119.775924 
L 379.432344 112.610047 
L 379.758355 122.642275 
L 380.084366 117.865024 
L 380.410376 122.642275 
L 380.736387 120.253649 
L 381.062398 122.16455 
L 381.388409 123.12 
L 381.714419 121.686825 
L 382.04043 122.642275 
L 382.366441 121.2091 
L 382.692452 123.12 
L 383.344473 123.12 
L 383.670484 121.2091 
L 383.996495 123.12 
L 384.322505 120.253649 
L 384.648516 123.12 
L 384.974527 122.642275 
L 385.300538 121.2091 
L 385.626548 113.565498 
L 385.952559 123.12 
L 386.27857 123.12 
L 386.604581 116.431848 
L 386.930591 116.909573 
L 387.256602 115.476398 
L 387.582613 117.387299 
L 387.908624 122.642275 
L 388.234634 116.431848 
L 388.560645 121.2091 
L 388.886656 122.16455 
L 389.212667 122.642275 
L 389.538677 122.642275 
L 389.864688 123.12 
L 390.190699 122.642275 
L 390.51671 120.731374 
L 390.84272 122.16455 
L 391.494742 123.12 
L 391.820753 123.12 
L 392.146763 119.775924 
L 392.472774 120.253649 
L 392.798785 122.16455 
L 393.450806 122.16455 
L 393.776817 121.686825 
L 394.102828 121.686825 
L 394.428839 118.820474 
L 394.754849 122.642275 
L 395.08086 112.132322 
L 395.406871 120.253649 
L 395.732882 122.642275 
L 396.058892 120.731374 
L 396.384903 121.2091 
L 397.036925 116.909573 
L 397.362935 120.253649 
L 397.688946 111.176872 
L 398.014957 123.12 
L 398.340968 119.775924 
L 398.992989 110.699147 
L 399.319 115.476398 
L 399.645011 98.278294 
L 399.971021 118.820474 
L 400.297032 123.12 
L 400.623043 104.966445 
L 400.949054 116.909573 
L 401.275064 114.520948 
L 401.601075 115.476398 
L 401.927086 119.775924 
L 402.253097 117.387299 
L 402.579107 122.642275 
L 402.905118 113.087773 
L 403.231129 116.431848 
L 403.55714 116.431848 
L 403.88315 113.565498 
L 404.209161 114.043223 
L 404.535172 122.16455 
L 404.861183 123.12 
L 405.187193 104.010995 
L 405.513204 61.015735 
L 405.839215 110.221422 
L 406.165226 113.087773 
L 406.491236 112.610047 
L 406.817247 121.2091 
L 407.143258 121.686825 
L 407.795279 92.545592 
L 408.12129 115.476398 
L 408.447301 114.043223 
L 408.773312 111.176872 
L 409.099322 121.2091 
L 409.425333 123.12 
L 409.751344 100.189194 
L 410.403365 103.055545 
L 411.055387 121.2091 
L 411.381398 122.16455 
L 411.707408 122.642275 
L 412.033419 119.775924 
L 412.35943 113.087773 
L 412.685441 116.909573 
L 413.011451 103.055545 
L 413.337462 104.48872 
L 413.663473 122.16455 
L 413.989484 121.2091 
L 414.315494 109.743697 
L 414.641505 118.342749 
L 414.967516 106.877346 
L 415.293527 118.820474 
L 415.619537 123.12 
L 415.945548 123.12 
L 416.271559 118.820474 
L 416.59757 112.132322 
L 416.92358 120.253649 
L 417.249591 120.253649 
L 417.575602 122.16455 
L 417.901613 123.12 
L 418.227623 123.12 
L 418.553634 122.16455 
L 418.879645 117.387299 
L 419.205656 121.686825 
L 419.531666 123.12 
L 419.857677 108.310521 
L 420.183688 119.775924 
L 420.509699 118.820474 
L 420.835709 106.399621 
L 421.16172 117.865024 
L 421.487731 122.642275 
L 421.813742 121.686825 
L 422.139752 123.12 
L 422.465763 122.16455 
L 422.791774 109.265972 
L 423.117785 107.832796 
L 423.443795 118.342749 
L 423.769806 114.998673 
L 424.095817 119.298199 
L 424.421828 113.087773 
L 424.747838 121.686825 
L 425.073849 117.865024 
L 425.39986 122.16455 
L 425.725871 121.686825 
L 426.051881 122.16455 
L 426.377892 123.12 
L 426.703903 112.132322 
L 427.029914 115.954123 
L 427.355924 121.686825 
L 427.681935 122.642275 
L 428.659967 122.642275 
L 428.985978 120.731374 
L 429.311989 105.444171 
L 429.638 120.253649 
L 429.96401 115.954123 
L 430.290021 120.253649 
L 430.616032 121.2091 
L 430.942043 121.686825 
L 431.268053 120.731374 
L 431.594064 122.16455 
L 431.920075 122.642275 
L 432.246086 121.2091 
L 432.572096 122.642275 
L 432.898107 114.998673 
L 433.224118 120.731374 
L 433.550129 119.775924 
L 433.876139 121.686825 
L 434.20215 106.399621 
L 434.528161 121.2091 
L 434.854172 121.686825 
L 435.180182 120.731374 
L 435.506193 121.686825 
L 435.832204 120.731374 
L 436.158215 107.355071 
L 436.484225 118.820474 
L 437.136247 121.2091 
L 437.462258 118.820474 
L 437.788268 121.2091 
L 438.114279 121.2091 
L 438.44029 121.686825 
L 438.766301 120.731374 
L 439.092311 120.731374 
L 439.418322 121.686825 
L 439.744333 120.731374 
L 440.070344 120.731374 
L 440.396354 121.2091 
L 440.722365 114.043223 
L 441.048376 117.387299 
L 441.374387 122.642275 
L 441.700397 122.16455 
L 442.026408 121.2091 
L 442.352419 122.16455 
L 442.67843 121.2091 
L 443.00444 122.16455 
L 443.330451 118.820474 
L 443.656462 118.342749 
L 443.982473 114.998673 
L 444.308483 120.731374 
L 444.634494 121.686825 
L 445.286516 118.342749 
L 445.612526 120.253649 
L 445.938537 120.731374 
L 446.264548 122.16455 
L 446.590559 122.16455 
L 446.916569 118.820474 
L 447.24258 104.010995 
L 447.568591 119.775924 
L 447.894602 119.775924 
L 448.220612 118.342749 
L 448.546623 121.686825 
L 448.872634 121.686825 
L 449.198645 119.775924 
L 449.524655 121.686825 
L 449.850666 97.322844 
L 450.176677 121.686825 
L 450.502688 122.642275 
L 450.828698 122.16455 
L 451.154709 122.16455 
L 451.48072 110.699147 
L 451.806731 117.387299 
L 452.132741 121.2091 
L 452.458752 122.16455 
L 452.784763 122.642275 
L 453.110774 116.431848 
L 453.436784 120.731374 
L 453.762795 122.642275 
L 454.088806 113.087773 
L 454.414817 118.342749 
L 454.740827 120.731374 
L 455.066838 107.832796 
L 455.392849 122.642275 
L 455.71886 123.12 
L 456.04487 121.686825 
L 456.696892 122.642275 
L 457.022903 120.731374 
L 457.348913 120.253649 
L 458.000935 122.642275 
L 458.326946 122.16455 
L 458.652956 122.642275 
L 458.978967 122.642275 
L 459.304978 123.12 
L 459.630989 123.12 
L 459.956999 121.2091 
L 460.28301 87.768341 
L 460.609021 115.476398 
L 460.935032 116.431848 
L 461.261042 118.820474 
L 461.587053 113.087773 
L 461.913064 116.431848 
L 462.239075 116.431848 
L 462.565085 111.654597 
L 462.891096 119.775924 
L 463.217107 112.132322 
L 463.543118 121.686825 
L 463.869128 119.298199 
L 464.195139 118.342749 
L 464.52115 121.686825 
L 464.847161 120.731374 
L 465.173171 119.298199 
L 465.499182 121.2091 
L 465.825193 121.686825 
L 466.151204 111.654597 
L 466.477214 119.775924 
L 466.803225 112.132322 
L 467.129236 119.298199 
L 467.455247 113.565498 
L 467.781257 119.775924 
L 468.107268 120.253649 
L 468.433279 114.043223 
L 468.75929 114.520948 
L 469.0853 119.775924 
L 469.411311 121.686825 
L 469.737322 119.298199 
L 470.063333 119.775924 
L 470.389343 123.12 
L 470.715354 119.775924 
L 471.041365 106.877346 
L 471.367376 118.820474 
L 471.693386 120.253649 
L 472.019397 117.865024 
L 472.345408 119.775924 
L 472.671419 120.731374 
L 472.997429 114.043223 
L 473.32344 120.253649 
L 473.649451 113.565498 
L 473.975462 118.820474 
L 474.301472 119.775924 
L 474.627483 113.565498 
L 474.953494 119.775924 
L 475.279505 105.921896 
L 475.605515 110.699147 
L 475.931526 118.820474 
L 476.583548 119.775924 
L 476.909558 105.921896 
L 477.235569 102.100095 
L 477.56158 115.476398 
L 477.887591 121.686825 
L 478.539612 120.731374 
L 479.191634 115.954123 
L 479.517644 115.476398 
L 479.843655 68.659336 
L 480.169666 102.100095 
L 480.495677 116.909573 
L 481.147698 121.2091 
L 481.473709 114.520948 
L 481.79972 112.610047 
L 482.12573 109.265972 
L 482.451741 119.775924 
L 482.777752 120.731374 
L 483.103763 119.298199 
L 483.429773 116.909573 
L 483.755784 115.954123 
L 484.081795 117.865024 
L 484.733816 102.100095 
L 485.059827 121.686825 
L 485.385838 122.642275 
L 485.711849 116.909573 
L 486.037859 121.2091 
L 486.36387 113.565498 
L 486.689881 121.2091 
L 487.015892 118.342749 
L 487.341902 120.731374 
L 487.667913 122.16455 
L 487.993924 117.387299 
L 488.319935 122.16455 
L 488.645945 121.2091 
L 488.971956 118.820474 
L 489.623978 123.12 
L 489.949988 122.642275 
L 490.275999 116.431848 
L 490.60201 121.2091 
L 490.928021 119.298199 
L 491.254031 120.253649 
L 491.580042 118.820474 
L 491.906053 119.775924 
L 492.232064 111.176872 
L 492.558074 121.2091 
L 492.884085 118.342749 
L 493.210096 121.2091 
L 493.536107 121.686825 
L 493.862117 120.731374 
L 494.188128 112.132322 
L 494.514139 123.12 
L 494.84015 114.998673 
L 495.16616 123.12 
L 495.492171 115.476398 
L 495.818182 79.647014 
L 496.144193 112.132322 
L 496.470203 121.686825 
L 496.796214 115.476398 
L 497.122225 118.342749 
L 497.448236 119.298199 
L 497.774246 121.686825 
L 498.100257 120.731374 
L 498.426268 92.545592 
L 498.752279 119.775924 
L 499.078289 117.387299 
L 499.4043 120.253649 
L 499.730311 116.909573 
L 500.056322 122.642275 
L 500.708343 117.865024 
L 501.034354 119.775924 
L 501.686375 116.909573 
L 502.012386 122.16455 
L 502.338397 123.12 
L 502.664408 122.642275 
L 502.990418 121.686825 
L 503.316429 104.010995 
L 503.64244 117.865024 
L 503.968451 119.775924 
L 504.294461 120.731374 
L 504.620472 101.144645 
L 504.946483 117.865024 
L 505.272494 105.444171 
L 505.598504 121.2091 
L 505.924515 117.387299 
L 506.250526 115.954123 
L 506.576537 120.731374 
L 506.902547 121.686825 
L 507.228558 100.189194 
L 507.554569 122.642275 
L 507.88058 107.832796 
L 508.20659 102.100095 
L 508.532601 122.642275 
L 508.858612 117.387299 
L 509.184623 119.298199 
L 509.836644 106.877346 
L 510.162655 120.253649 
L 510.488666 110.699147 
L 510.814676 117.387299 
L 511.140687 118.820474 
L 511.466698 105.921896 
L 511.792709 120.731374 
L 512.118719 121.686825 
L 513.096752 107.355071 
L 513.748773 121.686825 
L 514.074784 114.520948 
L 514.400795 122.642275 
L 514.726805 119.298199 
L 515.052816 111.654597 
L 515.378827 99.233744 
L 515.704838 103.53327 
L 516.030848 104.48872 
L 516.356859 121.686825 
L 516.68287 121.686825 
L 517.008881 100.666919 
L 517.334891 112.132322 
L 517.660902 113.565498 
L 517.986913 122.642275 
L 518.312924 120.253649 
L 518.638934 109.743697 
L 518.964945 109.265972 
L 519.290956 109.265972 
L 519.616967 116.909573 
L 519.942977 112.610047 
L 520.268988 118.342749 
L 520.594999 112.132322 
L 520.92101 120.731374 
L 521.24702 121.686825 
L 521.573031 122.16455 
L 521.899042 120.731374 
L 522.225053 117.387299 
L 522.551063 117.387299 
L 523.203085 121.2091 
L 523.529096 122.16455 
L 523.855106 117.865024 
L 524.181117 110.699147 
L 524.507128 120.731374 
L 524.833139 118.820474 
L 525.159149 105.444171 
L 525.48516 123.12 
L 525.811171 121.686825 
L 526.137182 112.132322 
L 526.463192 110.221422 
L 527.115214 121.2091 
L 527.441225 113.087773 
L 527.767235 122.642275 
L 528.093246 120.253649 
L 528.419257 110.221422 
L 528.745268 116.909573 
L 529.071278 81.08019 
L 529.397289 111.654597 
L 529.7233 104.48872 
L 530.049311 116.909573 
L 530.375321 119.775924 
L 530.701332 117.387299 
L 531.027343 107.832796 
L 531.353354 116.909573 
L 531.679364 93.023318 
L 532.005375 109.743697 
L 532.331386 116.909573 
L 532.657397 107.832796 
L 532.983407 104.48872 
L 533.309418 99.711469 
L 533.635429 120.253649 
L 533.96144 116.909573 
L 534.28745 111.654597 
L 534.613461 120.253649 
L 534.939472 115.954123 
L 535.265483 120.731374 
L 535.591493 88.723791 
L 535.917504 103.055545 
L 536.243515 103.055545 
L 536.895536 123.12 
L 537.221547 122.642275 
L 537.547558 105.921896 
L 537.873569 119.298199 
L 538.199579 112.610047 
L 538.851601 118.342749 
L 539.503622 119.298199 
L 539.829633 101.144645 
L 540.155644 112.610047 
L 540.481655 104.010995 
L 540.807665 112.610047 
L 541.133676 102.57782 
L 541.459687 117.387299 
L 541.785698 115.954123 
L 542.111708 99.233744 
L 542.437719 117.865024 
L 542.76373 108.788246 
L 543.415751 100.666919 
L 543.741762 119.775924 
L 544.067773 120.253649 
L 544.393784 118.342749 
L 544.719794 120.253649 
L 545.045805 108.310521 
L 545.371816 50.505782 
L 545.697827 98.756019 
L 546.023837 121.686825 
L 546.349848 120.253649 
L 546.675859 114.043223 
L 547.00187 103.53327 
L 547.32788 117.387299 
L 547.653891 116.431848 
L 547.979902 103.055545 
L 548.305913 121.686825 
L 548.631923 104.966445 
L 548.957934 118.820474 
L 549.283945 122.642275 
L 549.609956 123.12 
L 550.261977 108.310521 
L 550.587988 112.610047 
L 550.913999 104.010995 
L 551.240009 108.788246 
L 551.56602 90.634692 
L 551.892031 96.367393 
L 552.218042 116.909573 
L 552.544052 118.342749 
L 552.870063 122.16455 
L 553.196074 108.788246 
L 553.848095 94.456493 
L 554.174106 106.399621 
L 554.500117 89.679242 
L 554.826128 116.431848 
L 555.152138 116.909573 
L 555.478149 86.335166 
L 555.80416 99.711469 
L 556.130171 100.666919 
L 556.456181 107.355071 
L 556.782192 107.832796 
L 557.108203 121.686825 
L 557.434214 119.775924 
L 557.760224 106.399621 
L 558.086235 102.100095 
L 558.412246 94.456493 
L 558.738257 103.53327 
L 559.064267 101.144645 
L 559.390278 120.253649 
L 559.716289 121.2091 
L 560.0423 98.278294 
L 560.36831 85.379716 
L 560.694321 103.055545 
L 561.020332 99.711469 
L 561.346343 100.666919 
L 561.672353 108.310521 
L 561.998364 110.221422 
L 562.650386 93.978768 
L 562.976396 99.711469 
L 563.302407 63.40436 
L 563.628418 90.156967 
L 563.954429 85.857441 
L 564.280439 101.62237 
L 564.60645 75.825213 
L 564.932461 86.335166 
L 565.258472 77.736114 
L 565.584482 93.501043 
L 565.910493 83.94654 
L 566.236504 90.156967 
L 566.562515 118.820474 
L 566.888525 97.322844 
L 567.214536 110.221422 
L 567.540547 69.614787 
L 568.192568 94.934218 
L 568.518579 100.189194 
L 568.84459 119.775924 
L 569.170601 81.557915 
L 569.496611 96.367393 
L 570.148633 79.169289 
L 570.800654 116.909573 
L 571.126665 116.909573 
L 571.452676 111.176872 
L 571.778687 114.998673 
L 572.104697 113.565498 
L 572.430708 84.901991 
L 572.756719 118.342749 
L 573.08273 119.775924 
L 573.40874 119.298199 
L 573.734751 121.2091 
L 574.060762 120.731374 
L 574.386773 116.431848 
L 574.712783 91.112417 
L 575.038794 107.832796 
L 575.364805 106.877346 
L 575.690816 96.367393 
L 576.016826 93.501043 
L 576.342837 77.258389 
L 576.668848 72.958863 
L 576.994859 114.043223 
L 577.320869 74.869763 
L 577.64688 111.176872 
L 577.972891 121.2091 
L 578.298902 84.901991 
L 578.624912 74.869763 
L 579.276934 97.322844 
L 579.602945 94.456493 
L 579.928955 107.832796 
L 580.254966 74.869763 
L 580.580977 92.545592 
L 580.906988 66.270711 
L 581.232998 102.57782 
L 581.88502 75.347488 
L 582.211031 113.087773 
L 582.537041 114.520948 
L 582.863052 91.590142 
L 583.189063 109.743697 
L 583.515074 104.48872 
L 583.841084 92.545592 
L 584.167095 91.112417 
L 584.493106 68.181611 
L 584.819117 89.201517 
L 585.145127 47.639431 
L 585.471138 67.226161 
L 585.797149 70.092512 
L 586.12316 59.582559 
L 586.44917 79.647014 
L 587.101192 22.32 
L 587.427203 69.137062 
L 587.753213 64.35981 
L 588.079224 44.295355 
L 588.405235 105.444171 
L 588.731246 64.837536 
L 589.057256 119.298199 
L 589.383267 75.347488 
L 589.709278 68.181611 
L 590.035289 82.513365 
L 590.361299 51.938957 
L 590.68731 56.716209 
L 591.013321 116.909573 
L 591.339332 115.476398 
L 591.991353 118.820474 
L 592.317364 114.520948 
L 592.643375 105.444171 
L 592.969385 106.399621 
L 593.295396 118.820474 
L 593.947418 76.780664 
L 594.273428 113.087773 
L 594.599439 114.520948 
L 594.92545 110.699147 
L 595.251461 114.043223 
L 595.577471 97.322844 
L 595.903482 96.845118 
L 596.229493 117.865024 
L 596.555504 114.043223 
L 596.881514 118.342749 
L 597.207525 86.812891 
L 597.533536 81.08019 
L 597.859547 99.233744 
L 598.511568 109.265972 
L 598.837579 45.728531 
L 599.16359 101.144645 
L 599.4896 120.253649 
L 599.815611 93.978768 
L 600.141622 96.845118 
L 600.467633 112.132322 
L 600.793643 94.934218 
L 601.445665 115.476398 
L 601.771676 114.520948 
L 602.097686 120.253649 
L 602.423697 119.775924 
L 602.749708 120.731374 
L 603.075719 117.387299 
L 603.401729 116.431848 
L 603.72774 114.043223 
L 604.379762 121.686825 
L 604.705772 103.055545 
L 605.031783 116.431848 
L 605.357794 79.169289 
L 605.683805 69.137062 
L 606.009815 118.342749 
L 606.335826 99.711469 
L 606.661837 98.278294 
L 606.987848 98.756019 
L 607.313858 120.253649 
L 607.639869 119.298199 
L 607.96588 114.520948 
L 608.291891 101.62237 
L 608.617901 100.189194 
L 608.943912 84.901991 
L 609.269923 122.16455 
L 609.595934 108.788246 
L 609.921944 88.246066 
L 610.247955 93.501043 
L 610.573966 117.865024 
L 610.899977 109.743697 
L 611.225987 80.602464 
L 611.878009 118.820474 
L 612.20402 96.845118 
L 612.53003 121.686825 
L 612.856041 118.342749 
L 613.182052 117.387299 
L 613.508063 101.144645 
L 613.834073 118.820474 
L 614.160084 121.2091 
L 614.486095 115.476398 
L 614.812106 79.647014 
L 615.138116 112.132322 
L 615.464127 76.780664 
L 615.790138 99.233744 
L 616.116149 53.849858 
L 616.442159 98.278294 
L 616.76817 97.322844 
L 617.094181 58.149384 
L 617.420192 92.545592 
L 617.746202 96.367393 
L 618.072213 119.775924 
L 618.398224 119.775924 
L 618.724235 123.12 
L 619.050245 120.731374 
L 619.376256 117.387299 
L 619.702267 115.954123 
L 620.028278 120.253649 
L 620.354288 110.221422 
L 620.680299 119.775924 
L 621.00631 120.253649 
L 621.332321 117.865024 
L 621.658331 118.820474 
L 621.984342 115.954123 
L 622.636364 90.634692 
L 622.636364 90.634692 
" clip-path="url(#pea20ce9948)" style="fill: none; stroke: #1f77b4; stroke-width: 1.5; stroke-linecap: square"/>
   </g>
   <g id="patch_3">
    <path d="M 90 128.16 
L 90 17.28 
" style="fill: none; stroke: #000000; stroke-width: 0.8; stroke-linejoin: miter; stroke-linecap: square"/>
   </g>
   <g id="patch_4">
    <path d="M 648 128.16 
L 648 17.28 
" style="fill: none; stroke: #000000; stroke-width: 0.8; stroke-linejoin: miter; stroke-linecap: square"/>
   </g>
   <g id="patch_5">
    <path d="M 90 128.16 
L 648 128.16 
" style="fill: none; stroke: #000000; stroke-width: 0.8; stroke-linejoin: miter; stroke-linecap: square"/>
   </g>
   <g id="patch_6">
    <path d="M 90 17.28 
L 648 17.28 
" style="fill: none; stroke: #000000; stroke-width: 0.8; stroke-linejoin: miter; stroke-linecap: square"/>
   </g>
   <g id="legend_1">
    <g id="patch_7">
     <path d="M 97 39.958125 
L 264.190625 39.958125 
Q 266.190625 39.958125 266.190625 37.958125 
L 266.190625 24.28 
Q 266.190625 22.28 264.190625 22.28 
L 97 22.28 
Q 95 22.28 95 24.28 
L 95 37.958125 
Q 95 39.958125 97 39.958125 
z
" style="fill: #ffffff; opacity: 0.8; stroke: #cccccc; stroke-linejoin: miter"/>
    </g>
    <g id="line2d_16">
     <path d="M 99 30.378437 
L 109 30.378437 
L 119 30.378437 
" style="fill: none; stroke: #1f77b4; stroke-width: 1.5; stroke-linecap: square"/>
    </g>
    <g id="text_15">
     <!-- Number of PyPI Downloads -->
     <g transform="translate(127 33.878437) scale(0.1 -0.1)">
      <defs>
       <path id="DejaVuSans-4e" d="M 628 4666 
L 1478 4666 
L 3547 763 
L 3547 4666 
L 4159 4666 
L 4159 0 
L 3309 0 
L 1241 3903 
L 1241 0 
L 628 0 
L 628 4666 
z
" transform="scale(0.015625)"/>
       <path id="DejaVuSans-75" d="M 544 1381 
L 544 3500 
L 1119 3500 
L 1119 1403 
Q 1119 906 1312 657 
Q 1506 409 1894 409 
Q 2359 409 2629 706 
Q 2900 1003 2900 1516 
L 2900 3500 
L 3475 3500 
L 3475 0 
L 2900 0 
L 2900 538 
Q 2691 219 2414 64 
Q 2138 -91 1772 -91 
Q 1169 -91 856 284 
Q 544 659 544 1381 
z
M 1991 3584 
L 1991 3584 
z
" transform="scale(0.015625)"/>
       <path id="DejaVuSans-6d" d="M 3328 2828 
Q 3544 3216 3844 3400 
Q 4144 3584 4550 3584 
Q 5097 3584 5394 3201 
Q 5691 2819 5691 2113 
L 5691 0 
L 5113 0 
L 5113 2094 
Q 5113 2597 4934 2840 
Q 4756 3084 4391 3084 
Q 3944 3084 3684 2787 
Q 3425 2491 3425 1978 
L 3425 0 
L 2847 0 
L 2847 2094 
Q 2847 2600 2669 2842 
Q 2491 3084 2119 3084 
Q 1678 3084 1418 2786 
Q 1159 2488 1159 1978 
L 1159 0 
L 581 0 
L 581 3500 
L 1159 3500 
L 1159 2956 
Q 1356 3278 1631 3431 
Q 1906 3584 2284 3584 
Q 2666 3584 2933 3390 
Q 3200 3197 3328 2828 
z
" transform="scale(0.015625)"/>
       <path id="DejaVuSans-62" d="M 3116 1747 
Q 3116 2381 2855 2742 
Q 2594 3103 2138 3103 
Q 1681 3103 1420 2742 
Q 1159 2381 1159 1747 
Q 1159 1113 1420 752 
Q 1681 391 2138 391 
Q 2594 391 2855 752 
Q 3116 1113 3116 1747 
z
M 1159 2969 
Q 1341 3281 1617 3432 
Q 1894 3584 2278 3584 
Q 2916 3584 3314 3078 
Q 3713 2572 3713 1747 
Q 3713 922 3314 415 
Q 2916 -91 2278 -91 
Q 1894 -91 1617 61 
Q 1341 213 1159 525 
L 1159 0 
L 581 0 
L 581 4863 
L 1159 4863 
L 1159 2969 
z
" transform="scale(0.015625)"/>
       <path id="DejaVuSans-72" d="M 2631 2963 
Q 2534 3019 2420 3045 
Q 2306 3072 2169 3072 
Q 1681 3072 1420 2755 
Q 1159 2438 1159 1844 
L 1159 0 
L 581 0 
L 581 3500 
L 1159 3500 
L 1159 2956 
Q 1341 3275 1631 3429 
Q 1922 3584 2338 3584 
Q 2397 3584 2469 3576 
Q 2541 3569 2628 3553 
L 2631 2963 
z
" transform="scale(0.015625)"/>
       <path id="DejaVuSans-20" transform="scale(0.015625)"/>
       <path id="DejaVuSans-6f" d="M 1959 3097 
Q 1497 3097 1228 2736 
Q 959 2375 959 1747 
Q 959 1119 1226 758 
Q 1494 397 1959 397 
Q 2419 397 2687 759 
Q 2956 1122 2956 1747 
Q 2956 2369 2687 2733 
Q 2419 3097 1959 3097 
z
M 1959 3584 
Q 2709 3584 3137 3096 
Q 3566 2609 3566 1747 
Q 3566 888 3137 398 
Q 2709 -91 1959 -91 
Q 1206 -91 779 398 
Q 353 888 353 1747 
Q 353 2609 779 3096 
Q 1206 3584 1959 3584 
z
" transform="scale(0.015625)"/>
       <path id="DejaVuSans-66" d="M 2375 4863 
L 2375 4384 
L 1825 4384 
Q 1516 4384 1395 4259 
Q 1275 4134 1275 3809 
L 1275 3500 
L 2222 3500 
L 2222 3053 
L 1275 3053 
L 1275 0 
L 697 0 
L 697 3053 
L 147 3053 
L 147 3500 
L 697 3500 
L 697 3744 
Q 697 4328 969 4595 
Q 1241 4863 1831 4863 
L 2375 4863 
z
" transform="scale(0.015625)"/>
       <path id="DejaVuSans-50" d="M 1259 4147 
L 1259 2394 
L 2053 2394 
Q 2494 2394 2734 2622 
Q 2975 2850 2975 3272 
Q 2975 3691 2734 3919 
Q 2494 4147 2053 4147 
L 1259 4147 
z
M 628 4666 
L 2053 4666 
Q 2838 4666 3239 4311 
Q 3641 3956 3641 3272 
Q 3641 2581 3239 2228 
Q 2838 1875 2053 1875 
L 1259 1875 
L 1259 0 
L 628 0 
L 628 4666 
z
" transform="scale(0.015625)"/>
       <path id="DejaVuSans-79" d="M 2059 -325 
Q 1816 -950 1584 -1140 
Q 1353 -1331 966 -1331 
L 506 -1331 
L 506 -850 
L 844 -850 
Q 1081 -850 1212 -737 
Q 1344 -625 1503 -206 
L 1606 56 
L 191 3500 
L 800 3500 
L 1894 763 
L 2988 3500 
L 3597 3500 
L 2059 -325 
z
" transform="scale(0.015625)"/>
       <path id="DejaVuSans-49" d="M 628 4666 
L 1259 4666 
L 1259 0 
L 628 0 
L 628 4666 
z
" transform="scale(0.015625)"/>
       <path id="DejaVuSans-44" d="M 1259 4147 
L 1259 519 
L 2022 519 
Q 2988 519 3436 956 
Q 3884 1394 3884 2338 
Q 3884 3275 3436 3711 
Q 2988 4147 2022 4147 
L 1259 4147 
z
M 628 4666 
L 1925 4666 
Q 3281 4666 3915 4102 
Q 4550 3538 4550 2338 
Q 4550 1131 3912 565 
Q 3275 0 1925 0 
L 628 0 
L 628 4666 
z
" transform="scale(0.015625)"/>
       <path id="DejaVuSans-77" d="M 269 3500 
L 844 3500 
L 1563 769 
L 2278 3500 
L 2956 3500 
L 3675 769 
L 4391 3500 
L 4966 3500 
L 4050 0 
L 3372 0 
L 2619 2869 
L 1863 0 
L 1184 0 
L 269 3500 
z
" transform="scale(0.015625)"/>
       <path id="DejaVuSans-6e" d="M 3513 2113 
L 3513 0 
L 2938 0 
L 2938 2094 
Q 2938 2591 2744 2837 
Q 2550 3084 2163 3084 
Q 1697 3084 1428 2787 
Q 1159 2491 1159 1978 
L 1159 0 
L 581 0 
L 581 3500 
L 1159 3500 
L 1159 2956 
Q 1366 3272 1645 3428 
Q 1925 3584 2291 3584 
Q 2894 3584 3203 3211 
Q 3513 2838 3513 2113 
z
" transform="scale(0.015625)"/>
       <path id="DejaVuSans-6c" d="M 603 4863 
L 1178 4863 
L 1178 0 
L 603 0 
L 603 4863 
z
" transform="scale(0.015625)"/>
       <path id="DejaVuSans-73" d="M 2834 3397 
L 2834 2853 
Q 2591 2978 2328 3040 
Q 2066 3103 1784 3103 
Q 1356 3103 1142 2972 
Q 928 2841 928 2578 
Q 928 2378 1081 2264 
Q 1234 2150 1697 2047 
L 1894 2003 
Q 2506 1872 2764 1633 
Q 3022 1394 3022 966 
Q 3022 478 2636 193 
Q 2250 -91 1575 -91 
Q 1294 -91 989 -36 
Q 684 19 347 128 
L 347 722 
Q 666 556 975 473 
Q 1284 391 1588 391 
Q 1994 391 2212 530 
Q 2431 669 2431 922 
Q 2431 1156 2273 1281 
Q 2116 1406 1581 1522 
L 1381 1569 
Q 847 1681 609 1914 
Q 372 2147 372 2553 
Q 372 3047 722 3315 
Q 1072 3584 1716 3584 
Q 2034 3584 2315 3537 
Q 2597 3491 2834 3397 
z
" transform="scale(0.015625)"/>
      </defs>
      <use xlink:href="#DejaVuSans-4e"/>
      <use xlink:href="#DejaVuSans-75" transform="translate(74.804688 0)"/>
      <use xlink:href="#DejaVuSans-6d" transform="translate(138.183594 0)"/>
      <use xlink:href="#DejaVuSans-62" transform="translate(235.595703 0)"/>
      <use xlink:href="#DejaVuSans-65" transform="translate(299.072266 0)"/>
      <use xlink:href="#DejaVuSans-72" transform="translate(360.595703 0)"/>
      <use xlink:href="#DejaVuSans-20" transform="translate(401.708984 0)"/>
      <use xlink:href="#DejaVuSans-6f" transform="translate(433.496094 0)"/>
      <use xlink:href="#DejaVuSans-66" transform="translate(494.677734 0)"/>
      <use xlink:href="#DejaVuSans-20" transform="translate(529.882812 0)"/>
      <use xlink:href="#DejaVuSans-50" transform="translate(561.669922 0)"/>
      <use xlink:href="#DejaVuSans-79" transform="translate(621.972656 0)"/>
      <use xlink:href="#DejaVuSans-50" transform="translate(681.152344 0)"/>
      <use xlink:href="#DejaVuSans-49" transform="translate(741.455078 0)"/>
      <use xlink:href="#DejaVuSans-20" transform="translate(770.947266 0)"/>
      <use xlink:href="#DejaVuSans-44" transform="translate(802.734375 0)"/>
      <use xlink:href="#DejaVuSans-6f" transform="translate(879.736328 0)"/>
      <use xlink:href="#DejaVuSans-77" transform="translate(940.917969 0)"/>
      <use xlink:href="#DejaVuSans-6e" transform="translate(1022.705078 0)"/>
      <use xlink:href="#DejaVuSans-6c" transform="translate(1086.083984 0)"/>
      <use xlink:href="#DejaVuSans-6f" transform="translate(1113.867188 0)"/>
      <use xlink:href="#DejaVuSans-61" transform="translate(1175.048828 0)"/>
      <use xlink:href="#DejaVuSans-64" transform="translate(1236.328125 0)"/>
      <use xlink:href="#DejaVuSans-73" transform="translate(1299.804688 0)"/>
     </g>
    </g>
   </g>
  </g>
 </g>
 <defs>
  <clipPath id="pea20ce9948">
   <rect x="90" y="17.28" width="558" height="110.88"/>
  </clipPath>
 </defs>
</svg>
