<?xml version="1.0" encoding="utf-8" standalone="no"?>
<!DOCTYPE svg PUBLIC "-//W3C//DTD SVG 1.1//EN"
  "http://www.w3.org/Graphics/SVG/1.1/DTD/svg11.dtd">
<svg xmlns:xlink="http://www.w3.org/1999/xlink" width="720pt" height="144pt" viewBox="0 0 720 144" xmlns="http://www.w3.org/2000/svg" version="1.1">
 <metadata>
  <rdf:RDF xmlns:dc="http://purl.org/dc/elements/1.1/" xmlns:cc="http://creativecommons.org/ns#" xmlns:rdf="http://www.w3.org/1999/02/22-rdf-syntax-ns#">
   <cc:Work>
    <dc:type rdf:resource="http://purl.org/dc/dcmitype/StillImage"/>
    <dc:date>2022-04-01T20:57:02.547474</dc:date>
    <dc:format>image/svg+xml</dc:format>
    <dc:creator>
     <cc:Agent>
      <dc:title>Matplotlib v3.5.1, https://matplotlib.org/</dc:title>
     </cc:Agent>
    </dc:creator>
   </cc:Work>
  </rdf:RDF>
 </metadata>
 <defs>
  <style type="text/css">*{stroke-linejoin: round; stroke-linecap: butt}</style>
 </defs>
 <g id="figure_1">
  <g id="patch_1">
   <path d="M 0 144 
L 720 144 
L 720 0 
L 0 0 
z
" style="fill: #ffffff"/>
  </g>
  <g id="axes_1">
   <g id="patch_2">
    <path d="M 90 128.16 
L 648 128.16 
L 648 17.28 
L 90 17.28 
z
" style="fill: #ffffff"/>
   </g>
   <g id="matplotlib.axis_1">
    <g id="xtick_1">
     <g id="line2d_1">
      <defs>
       <path id="m503955d928" d="M 0 0 
L 0 3.5 
" style="stroke: #000000; stroke-width: 0.8"/>
      </defs>
      <g>
       <use xlink:href="#m503955d928" x="115.363636" y="128.16" style="stroke: #000000; stroke-width: 0.8"/>
      </g>
     </g>
     <g id="text_1">
      <!-- 2020-06-18 -->
      <g transform="translate(86.305824 142.758438)scale(0.1 -0.1)">
       <defs>
        <path id="DejaVuSans-32" d="M 1228 531 
L 3431 531 
L 3431 0 
L 469 0 
L 469 531 
Q 828 903 1448 1529 
Q 2069 2156 2228 2338 
Q 2531 2678 2651 2914 
Q 2772 3150 2772 3378 
Q 2772 3750 2511 3984 
Q 2250 4219 1831 4219 
Q 1534 4219 1204 4116 
Q 875 4013 500 3803 
L 500 4441 
Q 881 4594 1212 4672 
Q 1544 4750 1819 4750 
Q 2544 4750 2975 4387 
Q 3406 4025 3406 3419 
Q 3406 3131 3298 2873 
Q 3191 2616 2906 2266 
Q 2828 2175 2409 1742 
Q 1991 1309 1228 531 
z
" transform="scale(0.015625)"/>
        <path id="DejaVuSans-30" d="M 2034 4250 
Q 1547 4250 1301 3770 
Q 1056 3291 1056 2328 
Q 1056 1369 1301 889 
Q 1547 409 2034 409 
Q 2525 409 2770 889 
Q 3016 1369 3016 2328 
Q 3016 3291 2770 3770 
Q 2525 4250 2034 4250 
z
M 2034 4750 
Q 2819 4750 3233 4129 
Q 3647 3509 3647 2328 
Q 3647 1150 3233 529 
Q 2819 -91 2034 -91 
Q 1250 -91 836 529 
Q 422 1150 422 2328 
Q 422 3509 836 4129 
Q 1250 4750 2034 4750 
z
" transform="scale(0.015625)"/>
        <path id="DejaVuSans-2d" d="M 313 2009 
L 1997 2009 
L 1997 1497 
L 313 1497 
L 313 2009 
z
" transform="scale(0.015625)"/>
        <path id="DejaVuSans-36" d="M 2113 2584 
Q 1688 2584 1439 2293 
Q 1191 2003 1191 1497 
Q 1191 994 1439 701 
Q 1688 409 2113 409 
Q 2538 409 2786 701 
Q 3034 994 3034 1497 
Q 3034 2003 2786 2293 
Q 2538 2584 2113 2584 
z
M 3366 4563 
L 3366 3988 
Q 3128 4100 2886 4159 
Q 2644 4219 2406 4219 
Q 1781 4219 1451 3797 
Q 1122 3375 1075 2522 
Q 1259 2794 1537 2939 
Q 1816 3084 2150 3084 
Q 2853 3084 3261 2657 
Q 3669 2231 3669 1497 
Q 3669 778 3244 343 
Q 2819 -91 2113 -91 
Q 1303 -91 875 529 
Q 447 1150 447 2328 
Q 447 3434 972 4092 
Q 1497 4750 2381 4750 
Q 2619 4750 2861 4703 
Q 3103 4656 3366 4563 
z
" transform="scale(0.015625)"/>
        <path id="DejaVuSans-31" d="M 794 531 
L 1825 531 
L 1825 4091 
L 703 3866 
L 703 4441 
L 1819 4666 
L 2450 4666 
L 2450 531 
L 3481 531 
L 3481 0 
L 794 0 
L 794 531 
z
" transform="scale(0.015625)"/>
        <path id="DejaVuSans-38" d="M 2034 2216 
Q 1584 2216 1326 1975 
Q 1069 1734 1069 1313 
Q 1069 891 1326 650 
Q 1584 409 2034 409 
Q 2484 409 2743 651 
Q 3003 894 3003 1313 
Q 3003 1734 2745 1975 
Q 2488 2216 2034 2216 
z
M 1403 2484 
Q 997 2584 770 2862 
Q 544 3141 544 3541 
Q 544 4100 942 4425 
Q 1341 4750 2034 4750 
Q 2731 4750 3128 4425 
Q 3525 4100 3525 3541 
Q 3525 3141 3298 2862 
Q 3072 2584 2669 2484 
Q 3125 2378 3379 2068 
Q 3634 1759 3634 1313 
Q 3634 634 3220 271 
Q 2806 -91 2034 -91 
Q 1263 -91 848 271 
Q 434 634 434 1313 
Q 434 1759 690 2068 
Q 947 2378 1403 2484 
z
M 1172 3481 
Q 1172 3119 1398 2916 
Q 1625 2713 2034 2713 
Q 2441 2713 2670 2916 
Q 2900 3119 2900 3481 
Q 2900 3844 2670 4047 
Q 2441 4250 2034 4250 
Q 1625 4250 1398 4047 
Q 1172 3844 1172 3481 
z
" transform="scale(0.015625)"/>
       </defs>
       <use xlink:href="#DejaVuSans-32"/>
       <use xlink:href="#DejaVuSans-30" x="63.623047"/>
       <use xlink:href="#DejaVuSans-32" x="127.246094"/>
       <use xlink:href="#DejaVuSans-30" x="190.869141"/>
       <use xlink:href="#DejaVuSans-2d" x="254.492188"/>
       <use xlink:href="#DejaVuSans-30" x="290.576172"/>
       <use xlink:href="#DejaVuSans-36" x="354.199219"/>
       <use xlink:href="#DejaVuSans-2d" x="417.822266"/>
       <use xlink:href="#DejaVuSans-31" x="453.90625"/>
       <use xlink:href="#DejaVuSans-38" x="517.529297"/>
      </g>
     </g>
    </g>
    <g id="xtick_2">
     <g id="line2d_2">
      <g>
       <use xlink:href="#m503955d928" x="205.625687" y="128.16" style="stroke: #000000; stroke-width: 0.8"/>
      </g>
     </g>
     <g id="text_2">
      <!-- 2020-10-23 -->
      <g transform="translate(176.567875 142.758438)scale(0.1 -0.1)">
       <defs>
        <path id="DejaVuSans-33" d="M 2597 2516 
Q 3050 2419 3304 2112 
Q 3559 1806 3559 1356 
Q 3559 666 3084 287 
Q 2609 -91 1734 -91 
Q 1441 -91 1130 -33 
Q 819 25 488 141 
L 488 750 
Q 750 597 1062 519 
Q 1375 441 1716 441 
Q 2309 441 2620 675 
Q 2931 909 2931 1356 
Q 2931 1769 2642 2001 
Q 2353 2234 1838 2234 
L 1294 2234 
L 1294 2753 
L 1863 2753 
Q 2328 2753 2575 2939 
Q 2822 3125 2822 3475 
Q 2822 3834 2567 4026 
Q 2313 4219 1838 4219 
Q 1578 4219 1281 4162 
Q 984 4106 628 3988 
L 628 4550 
Q 988 4650 1302 4700 
Q 1616 4750 1894 4750 
Q 2613 4750 3031 4423 
Q 3450 4097 3450 3541 
Q 3450 3153 3228 2886 
Q 3006 2619 2597 2516 
z
" transform="scale(0.015625)"/>
       </defs>
       <use xlink:href="#DejaVuSans-32"/>
       <use xlink:href="#DejaVuSans-30" x="63.623047"/>
       <use xlink:href="#DejaVuSans-32" x="127.246094"/>
       <use xlink:href="#DejaVuSans-30" x="190.869141"/>
       <use xlink:href="#DejaVuSans-2d" x="254.492188"/>
       <use xlink:href="#DejaVuSans-31" x="290.576172"/>
       <use xlink:href="#DejaVuSans-30" x="354.199219"/>
       <use xlink:href="#DejaVuSans-2d" x="417.822266"/>
       <use xlink:href="#DejaVuSans-32" x="453.90625"/>
       <use xlink:href="#DejaVuSans-33" x="517.529297"/>
      </g>
     </g>
    </g>
    <g id="xtick_3">
     <g id="line2d_3">
      <g>
       <use xlink:href="#m503955d928" x="295.887739" y="128.16" style="stroke: #000000; stroke-width: 0.8"/>
      </g>
     </g>
     <g id="text_3">
      <!-- 2021-03-13 -->
      <g transform="translate(266.829926 142.758438)scale(0.1 -0.1)">
       <use xlink:href="#DejaVuSans-32"/>
       <use xlink:href="#DejaVuSans-30" x="63.623047"/>
       <use xlink:href="#DejaVuSans-32" x="127.246094"/>
       <use xlink:href="#DejaVuSans-31" x="190.869141"/>
       <use xlink:href="#DejaVuSans-2d" x="254.492188"/>
       <use xlink:href="#DejaVuSans-30" x="290.576172"/>
       <use xlink:href="#DejaVuSans-33" x="354.199219"/>
       <use xlink:href="#DejaVuSans-2d" x="417.822266"/>
       <use xlink:href="#DejaVuSans-31" x="453.90625"/>
       <use xlink:href="#DejaVuSans-33" x="517.529297"/>
      </g>
     </g>
    </g>
    <g id="xtick_4">
     <g id="line2d_4">
      <g>
       <use xlink:href="#m503955d928" x="386.14979" y="128.16" style="stroke: #000000; stroke-width: 0.8"/>
      </g>
     </g>
     <g id="text_4">
      <!-- 2021-07-01 -->
      <g transform="translate(357.091977 142.758438)scale(0.1 -0.1)">
       <defs>
        <path id="DejaVuSans-37" d="M 525 4666 
L 3525 4666 
L 3525 4397 
L 1831 0 
L 1172 0 
L 2766 4134 
L 525 4134 
L 525 4666 
z
" transform="scale(0.015625)"/>
       </defs>
       <use xlink:href="#DejaVuSans-32"/>
       <use xlink:href="#DejaVuSans-30" x="63.623047"/>
       <use xlink:href="#DejaVuSans-32" x="127.246094"/>
       <use xlink:href="#DejaVuSans-31" x="190.869141"/>
       <use xlink:href="#DejaVuSans-2d" x="254.492188"/>
       <use xlink:href="#DejaVuSans-30" x="290.576172"/>
       <use xlink:href="#DejaVuSans-37" x="354.199219"/>
       <use xlink:href="#DejaVuSans-2d" x="417.822266"/>
       <use xlink:href="#DejaVuSans-30" x="453.90625"/>
       <use xlink:href="#DejaVuSans-31" x="517.529297"/>
      </g>
     </g>
    </g>
    <g id="xtick_5">
     <g id="line2d_5">
      <g>
       <use xlink:href="#m503955d928" x="476.411841" y="128.16" style="stroke: #000000; stroke-width: 0.8"/>
      </g>
     </g>
     <g id="text_5">
      <!-- 2021-10-16 -->
      <g transform="translate(447.354028 142.758438)scale(0.1 -0.1)">
       <use xlink:href="#DejaVuSans-32"/>
       <use xlink:href="#DejaVuSans-30" x="63.623047"/>
       <use xlink:href="#DejaVuSans-32" x="127.246094"/>
       <use xlink:href="#DejaVuSans-31" x="190.869141"/>
       <use xlink:href="#DejaVuSans-2d" x="254.492188"/>
       <use xlink:href="#DejaVuSans-31" x="290.576172"/>
       <use xlink:href="#DejaVuSans-30" x="354.199219"/>
       <use xlink:href="#DejaVuSans-2d" x="417.822266"/>
       <use xlink:href="#DejaVuSans-31" x="453.90625"/>
       <use xlink:href="#DejaVuSans-36" x="517.529297"/>
      </g>
     </g>
    </g>
    <g id="xtick_6">
     <g id="line2d_6">
      <g>
       <use xlink:href="#m503955d928" x="566.673892" y="128.16" style="stroke: #000000; stroke-width: 0.8"/>
      </g>
     </g>
     <g id="text_6">
      <!-- 2022-01-27 -->
      <g transform="translate(537.616079 142.758438)scale(0.1 -0.1)">
       <use xlink:href="#DejaVuSans-32"/>
       <use xlink:href="#DejaVuSans-30" x="63.623047"/>
       <use xlink:href="#DejaVuSans-32" x="127.246094"/>
       <use xlink:href="#DejaVuSans-32" x="190.869141"/>
       <use xlink:href="#DejaVuSans-2d" x="254.492188"/>
       <use xlink:href="#DejaVuSans-30" x="290.576172"/>
       <use xlink:href="#DejaVuSans-31" x="354.199219"/>
       <use xlink:href="#DejaVuSans-2d" x="417.822266"/>
       <use xlink:href="#DejaVuSans-32" x="453.90625"/>
       <use xlink:href="#DejaVuSans-37" x="517.529297"/>
      </g>
     </g>
    </g>
    <g id="text_7">
     <!-- date -->
     <g transform="translate(357.725 156.436563)scale(0.1 -0.1)">
      <defs>
       <path id="DejaVuSans-64" d="M 2906 2969 
L 2906 4863 
L 3481 4863 
L 3481 0 
L 2906 0 
L 2906 525 
Q 2725 213 2448 61 
Q 2172 -91 1784 -91 
Q 1150 -91 751 415 
Q 353 922 353 1747 
Q 353 2572 751 3078 
Q 1150 3584 1784 3584 
Q 2172 3584 2448 3432 
Q 2725 3281 2906 2969 
z
M 947 1747 
Q 947 1113 1208 752 
Q 1469 391 1925 391 
Q 2381 391 2643 752 
Q 2906 1113 2906 1747 
Q 2906 2381 2643 2742 
Q 2381 3103 1925 3103 
Q 1469 3103 1208 2742 
Q 947 2381 947 1747 
z
" transform="scale(0.015625)"/>
       <path id="DejaVuSans-61" d="M 2194 1759 
Q 1497 1759 1228 1600 
Q 959 1441 959 1056 
Q 959 750 1161 570 
Q 1363 391 1709 391 
Q 2188 391 2477 730 
Q 2766 1069 2766 1631 
L 2766 1759 
L 2194 1759 
z
M 3341 1997 
L 3341 0 
L 2766 0 
L 2766 531 
Q 2569 213 2275 61 
Q 1981 -91 1556 -91 
Q 1019 -91 701 211 
Q 384 513 384 1019 
Q 384 1609 779 1909 
Q 1175 2209 1959 2209 
L 2766 2209 
L 2766 2266 
Q 2766 2663 2505 2880 
Q 2244 3097 1772 3097 
Q 1472 3097 1187 3025 
Q 903 2953 641 2809 
L 641 3341 
Q 956 3463 1253 3523 
Q 1550 3584 1831 3584 
Q 2591 3584 2966 3190 
Q 3341 2797 3341 1997 
z
" transform="scale(0.015625)"/>
       <path id="DejaVuSans-74" d="M 1172 4494 
L 1172 3500 
L 2356 3500 
L 2356 3053 
L 1172 3053 
L 1172 1153 
Q 1172 725 1289 603 
Q 1406 481 1766 481 
L 2356 481 
L 2356 0 
L 1766 0 
Q 1100 0 847 248 
Q 594 497 594 1153 
L 594 3053 
L 172 3053 
L 172 3500 
L 594 3500 
L 594 4494 
L 1172 4494 
z
" transform="scale(0.015625)"/>
       <path id="DejaVuSans-65" d="M 3597 1894 
L 3597 1613 
L 953 1613 
Q 991 1019 1311 708 
Q 1631 397 2203 397 
Q 2534 397 2845 478 
Q 3156 559 3463 722 
L 3463 178 
Q 3153 47 2828 -22 
Q 2503 -91 2169 -91 
Q 1331 -91 842 396 
Q 353 884 353 1716 
Q 353 2575 817 3079 
Q 1281 3584 2069 3584 
Q 2775 3584 3186 3129 
Q 3597 2675 3597 1894 
z
M 3022 2063 
Q 3016 2534 2758 2815 
Q 2500 3097 2075 3097 
Q 1594 3097 1305 2825 
Q 1016 2553 972 2059 
L 3022 2063 
z
" transform="scale(0.015625)"/>
      </defs>
      <use xlink:href="#DejaVuSans-64"/>
      <use xlink:href="#DejaVuSans-61" x="63.476562"/>
      <use xlink:href="#DejaVuSans-74" x="124.755859"/>
      <use xlink:href="#DejaVuSans-65" x="163.964844"/>
     </g>
    </g>
   </g>
   <g id="matplotlib.axis_2">
    <g id="ytick_1">
     <g id="line2d_7">
      <defs>
       <path id="m091ead8a11" d="M 0 0 
L -3.5 0 
" style="stroke: #000000; stroke-width: 0.8"/>
      </defs>
      <g>
       <use xlink:href="#m091ead8a11" x="90" y="124.292093" style="stroke: #000000; stroke-width: 0.8"/>
      </g>
     </g>
     <g id="text_8">
      <!-- 0 -->
      <g transform="translate(76.6375 128.091312)scale(0.1 -0.1)">
       <use xlink:href="#DejaVuSans-30"/>
      </g>
     </g>
    </g>
    <g id="ytick_2">
     <g id="line2d_8">
      <g>
       <use xlink:href="#m091ead8a11" x="90" y="100.850233" style="stroke: #000000; stroke-width: 0.8"/>
      </g>
     </g>
     <g id="text_9">
      <!-- 20 -->
      <g transform="translate(70.275 104.649451)scale(0.1 -0.1)">
       <use xlink:href="#DejaVuSans-32"/>
       <use xlink:href="#DejaVuSans-30" x="63.623047"/>
      </g>
     </g>
    </g>
    <g id="ytick_3">
     <g id="line2d_9">
      <g>
       <use xlink:href="#m091ead8a11" x="90" y="77.408372" style="stroke: #000000; stroke-width: 0.8"/>
      </g>
     </g>
     <g id="text_10">
      <!-- 40 -->
      <g transform="translate(70.275 81.207591)scale(0.1 -0.1)">
       <defs>
        <path id="DejaVuSans-34" d="M 2419 4116 
L 825 1625 
L 2419 1625 
L 2419 4116 
z
M 2253 4666 
L 3047 4666 
L 3047 1625 
L 3713 1625 
L 3713 1100 
L 3047 1100 
L 3047 0 
L 2419 0 
L 2419 1100 
L 313 1100 
L 313 1709 
L 2253 4666 
z
" transform="scale(0.015625)"/>
       </defs>
       <use xlink:href="#DejaVuSans-34"/>
       <use xlink:href="#DejaVuSans-30" x="63.623047"/>
      </g>
     </g>
    </g>
    <g id="ytick_4">
     <g id="line2d_10">
      <g>
       <use xlink:href="#m091ead8a11" x="90" y="53.966512" style="stroke: #000000; stroke-width: 0.8"/>
      </g>
     </g>
     <g id="text_11">
      <!-- 60 -->
      <g transform="translate(70.275 57.76573)scale(0.1 -0.1)">
       <use xlink:href="#DejaVuSans-36"/>
       <use xlink:href="#DejaVuSans-30" x="63.623047"/>
      </g>
     </g>
    </g>
    <g id="ytick_5">
     <g id="line2d_11">
      <g>
       <use xlink:href="#m091ead8a11" x="90" y="30.524651" style="stroke: #000000; stroke-width: 0.8"/>
      </g>
     </g>
     <g id="text_12">
      <!-- 80 -->
      <g transform="translate(70.275 34.32387)scale(0.1 -0.1)">
       <use xlink:href="#DejaVuSans-38"/>
       <use xlink:href="#DejaVuSans-30" x="63.623047"/>
      </g>
     </g>
    </g>
   </g>
   <g id="line2d_12">
    <path d="M 115.363636 98.506047 
L 116.266257 107.882791 
L 117.168877 119.603721 
L 119.876739 123.12 
L 120.779359 120.775814 
L 121.68198 114.915349 
L 122.5846 121.947907 
L 123.487221 120.775814 
L 124.389841 121.947907 
L 125.292462 96.16186 
L 126.195082 116.087442 
L 127.097703 120.775814 
L 128.000324 114.915349 
L 128.902944 121.947907 
L 129.805565 117.259535 
L 130.708185 116.087442 
L 131.610806 123.12 
L 132.513426 120.775814 
L 133.416047 112.571163 
L 134.318667 114.915349 
L 135.221288 119.603721 
L 136.123908 120.775814 
L 137.026529 120.775814 
L 138.83177 123.12 
L 139.73439 113.743256 
L 140.637011 64.515349 
L 141.539631 117.259535 
L 142.442252 120.775814 
L 143.344872 120.775814 
L 144.247493 118.431628 
L 145.150113 121.947907 
L 146.052734 119.603721 
L 146.955354 123.12 
L 147.857975 120.775814 
L 148.760595 120.775814 
L 149.663216 123.12 
L 150.565836 121.947907 
L 151.468457 119.603721 
L 152.371077 119.603721 
L 153.273698 117.259535 
L 154.176318 123.12 
L 155.078939 123.12 
L 155.981559 121.947907 
L 156.88418 121.947907 
L 157.7868 123.12 
L 158.689421 123.12 
L 159.592041 105.538605 
L 160.494662 118.431628 
L 161.397282 116.087442 
L 162.299903 121.947907 
L 163.202523 118.431628 
L 164.105144 116.087442 
L 165.007764 118.431628 
L 165.910385 123.12 
L 166.813005 121.947907 
L 167.715626 118.431628 
L 168.618247 123.12 
L 170.423488 120.775814 
L 171.326108 116.087442 
L 173.131349 123.12 
L 174.03397 119.603721 
L 174.93659 118.431628 
L 175.839211 123.12 
L 176.741831 119.603721 
L 177.644452 123.12 
L 178.547072 121.947907 
L 179.449693 118.431628 
L 180.352313 123.12 
L 181.254934 121.947907 
L 182.157554 121.947907 
L 183.060175 123.12 
L 183.962795 118.431628 
L 184.865416 123.12 
L 185.768036 120.775814 
L 187.573277 120.775814 
L 188.475898 119.603721 
L 189.378518 117.259535 
L 190.281139 120.775814 
L 191.183759 117.259535 
L 192.08638 123.12 
L 193.891621 120.775814 
L 194.794241 118.431628 
L 195.696862 121.947907 
L 196.599482 123.12 
L 197.502103 121.947907 
L 198.404723 119.603721 
L 199.307344 120.775814 
L 200.209964 123.12 
L 201.112585 107.882791 
L 202.015205 123.12 
L 202.917826 120.775814 
L 203.820446 119.603721 
L 204.723067 123.12 
L 205.625687 119.603721 
L 206.528308 114.915349 
L 207.430929 120.775814 
L 208.333549 123.12 
L 209.23617 123.12 
L 210.13879 121.947907 
L 211.041411 123.12 
L 211.944031 123.12 
L 212.846652 121.947907 
L 213.749272 121.947907 
L 214.651893 120.775814 
L 215.554513 121.947907 
L 218.262375 118.431628 
L 219.164995 120.775814 
L 220.067616 120.775814 
L 221.872857 118.431628 
L 222.775477 121.947907 
L 223.678098 123.12 
L 224.580718 116.087442 
L 225.483339 121.947907 
L 226.385959 121.947907 
L 227.28858 114.915349 
L 228.1912 120.775814 
L 229.093821 120.775814 
L 229.996441 94.989767 
L 230.899062 118.431628 
L 231.801682 120.775814 
L 232.704303 116.087442 
L 233.606923 121.947907 
L 234.509544 117.259535 
L 235.412164 121.947907 
L 236.314785 114.915349 
L 237.217405 118.431628 
L 238.120026 123.12 
L 239.022646 121.947907 
L 239.925267 109.054884 
L 240.827887 118.431628 
L 241.730508 121.947907 
L 242.633128 123.12 
L 243.535749 123.12 
L 244.438369 114.915349 
L 245.34099 123.12 
L 246.24361 123.12 
L 247.146231 119.603721 
L 248.048852 123.12 
L 248.951472 123.12 
L 250.756713 118.431628 
L 251.659334 123.12 
L 252.561954 120.775814 
L 254.367195 123.12 
L 255.269816 118.431628 
L 256.172436 123.12 
L 257.075057 123.12 
L 257.977677 121.947907 
L 258.880298 123.12 
L 259.782918 123.12 
L 260.685539 118.431628 
L 262.49078 123.12 
L 264.296021 120.775814 
L 265.198641 120.775814 
L 266.101262 121.947907 
L 267.003882 119.603721 
L 267.906503 121.947907 
L 268.809123 123.12 
L 270.614364 123.12 
L 271.516985 118.431628 
L 272.419605 123.12 
L 273.322226 121.947907 
L 274.224846 123.12 
L 275.127467 118.431628 
L 276.030087 120.775814 
L 276.932708 121.947907 
L 277.835328 121.947907 
L 278.737949 119.603721 
L 279.640569 121.947907 
L 280.54319 120.775814 
L 281.44581 120.775814 
L 282.348431 121.947907 
L 283.251051 121.947907 
L 284.153672 123.12 
L 285.056292 116.087442 
L 285.958913 121.947907 
L 286.861533 121.947907 
L 287.764154 123.12 
L 288.666775 121.947907 
L 289.569395 123.12 
L 290.472016 123.12 
L 292.277257 120.775814 
L 293.179877 111.39907 
L 294.082498 114.915349 
L 294.985118 89.129302 
L 295.887739 123.12 
L 296.790359 121.947907 
L 297.69298 116.087442 
L 298.5956 118.431628 
L 299.498221 117.259535 
L 300.400841 107.882791 
L 301.303462 123.12 
L 302.206082 121.947907 
L 303.108703 119.603721 
L 304.011323 116.087442 
L 304.913944 111.39907 
L 305.816564 97.333953 
L 306.719185 106.710698 
L 307.621805 121.947907 
L 308.524426 84.44093 
L 309.427046 105.538605 
L 310.329667 114.915349 
L 311.232287 107.882791 
L 312.134908 118.431628 
L 313.037528 107.882791 
L 313.940149 109.054884 
L 314.842769 106.710698 
L 315.74539 97.333953 
L 316.64801 120.775814 
L 317.550631 116.087442 
L 318.453251 120.775814 
L 319.355872 123.12 
L 320.258492 118.431628 
L 321.161113 123.12 
L 322.063733 120.775814 
L 322.966354 123.12 
L 323.868974 121.947907 
L 324.771595 107.882791 
L 325.674215 120.775814 
L 326.576836 117.259535 
L 327.479456 119.603721 
L 328.382077 118.431628 
L 329.284698 123.12 
L 330.187318 116.087442 
L 331.089939 118.431628 
L 331.992559 121.947907 
L 332.89518 117.259535 
L 333.7978 123.12 
L 334.700421 120.775814 
L 335.603041 123.12 
L 336.505662 119.603721 
L 337.408282 121.947907 
L 338.310903 119.603721 
L 339.213523 118.431628 
L 340.116144 121.947907 
L 341.921385 121.947907 
L 342.824005 119.603721 
L 343.726626 118.431628 
L 344.629246 98.506047 
L 345.531867 100.850233 
L 346.434487 120.775814 
L 347.337108 121.947907 
L 348.239728 117.259535 
L 349.142349 118.431628 
L 350.044969 116.087442 
L 350.94759 121.947907 
L 351.85021 123.12 
L 352.752831 117.259535 
L 353.655451 116.087442 
L 354.558072 112.571163 
L 355.460692 121.947907 
L 356.363313 118.431628 
L 357.265933 121.947907 
L 358.168554 121.947907 
L 359.071174 123.12 
L 360.876415 118.431628 
L 362.681656 123.12 
L 363.584277 120.775814 
L 364.486897 121.947907 
L 365.389518 116.087442 
L 366.292138 113.743256 
L 367.194759 116.087442 
L 368.097379 117.259535 
L 369 114.915349 
L 369.902621 105.538605 
L 370.805241 117.259535 
L 371.707862 119.603721 
L 372.610482 118.431628 
L 373.513103 114.915349 
L 374.415723 106.710698 
L 375.318344 121.947907 
L 376.220964 120.775814 
L 377.123585 123.12 
L 378.026205 113.743256 
L 378.928826 114.915349 
L 379.831446 119.603721 
L 380.734067 112.571163 
L 381.636687 110.226977 
L 382.539308 121.947907 
L 383.441928 121.947907 
L 384.344549 112.571163 
L 385.247169 91.473488 
L 386.14979 107.882791 
L 387.05241 117.259535 
L 387.955031 118.431628 
L 388.857651 118.431628 
L 390.662892 120.775814 
L 391.565513 117.259535 
L 392.468133 117.259535 
L 393.370754 121.947907 
L 394.273374 121.947907 
L 395.175995 120.775814 
L 396.078615 121.947907 
L 396.981236 114.915349 
L 397.883856 114.915349 
L 398.786477 117.259535 
L 399.689097 113.743256 
L 400.591718 105.538605 
L 401.494338 114.915349 
L 402.396959 114.915349 
L 403.299579 120.775814 
L 404.2022 120.775814 
L 405.10482 116.087442 
L 406.007441 123.12 
L 406.910061 103.194419 
L 407.812682 100.850233 
L 408.715302 117.259535 
L 409.617923 118.431628 
L 410.520544 107.882791 
L 411.423164 113.743256 
L 412.325785 120.775814 
L 413.228405 118.431628 
L 414.131026 123.12 
L 415.033646 113.743256 
L 415.936267 98.506047 
L 416.838887 121.947907 
L 417.741508 120.775814 
L 419.546749 123.12 
L 420.449369 119.603721 
L 421.35199 100.850233 
L 422.25461 114.915349 
L 423.157231 121.947907 
L 424.059851 121.947907 
L 424.962472 105.538605 
L 425.865092 120.775814 
L 426.767713 121.947907 
L 427.670333 120.775814 
L 431.280815 120.775814 
L 432.183436 118.431628 
L 433.086056 123.12 
L 433.988677 121.947907 
L 434.891297 121.947907 
L 435.793918 123.12 
L 436.696538 123.12 
L 437.599159 121.947907 
L 438.501779 123.12 
L 439.4044 117.259535 
L 440.30702 121.947907 
L 441.209641 118.431628 
L 442.112261 118.431628 
L 443.014882 116.087442 
L 443.917502 118.431628 
L 444.820123 123.12 
L 445.722743 120.775814 
L 447.527984 120.775814 
L 448.430605 123.12 
L 449.333225 121.947907 
L 450.235846 121.947907 
L 451.138467 119.603721 
L 452.041087 121.947907 
L 454.748949 121.947907 
L 455.651569 82.096744 
L 456.55419 118.431628 
L 457.45681 123.12 
L 458.359431 121.947907 
L 459.262051 119.603721 
L 460.164672 123.12 
L 461.067292 118.431628 
L 461.969913 121.947907 
L 462.872533 117.259535 
L 463.775154 116.087442 
L 464.677774 116.087442 
L 465.580395 114.915349 
L 466.483015 100.850233 
L 467.385636 100.850233 
L 468.288256 116.087442 
L 469.190877 119.603721 
L 470.093497 121.947907 
L 470.996118 104.366512 
L 471.898738 118.431628 
L 472.801359 121.947907 
L 473.703979 121.947907 
L 474.6066 120.775814 
L 475.50922 120.775814 
L 476.411841 121.947907 
L 477.314461 121.947907 
L 478.217082 118.431628 
L 479.119702 123.12 
L 480.022323 121.947907 
L 480.924943 118.431628 
L 481.827564 118.431628 
L 482.730184 120.775814 
L 484.535425 100.850233 
L 485.438046 113.743256 
L 486.340666 112.571163 
L 487.243287 105.538605 
L 488.145907 110.226977 
L 489.951148 112.571163 
L 490.853769 111.39907 
L 491.75639 104.366512 
L 492.65901 107.882791 
L 493.561631 118.431628 
L 494.464251 119.603721 
L 495.366872 117.259535 
L 496.269492 117.259535 
L 497.172113 113.743256 
L 498.074733 116.087442 
L 498.977354 109.054884 
L 499.879974 114.915349 
L 500.782595 116.087442 
L 501.685215 111.39907 
L 502.587836 100.850233 
L 503.490456 111.39907 
L 504.393077 116.087442 
L 506.198318 111.39907 
L 507.100938 116.087442 
L 508.003559 107.882791 
L 508.906179 111.39907 
L 509.8088 116.087442 
L 510.71142 116.087442 
L 511.614041 120.775814 
L 512.516661 107.882791 
L 513.419282 120.775814 
L 514.321902 118.431628 
L 515.224523 119.603721 
L 516.127143 114.915349 
L 517.029764 113.743256 
L 517.932384 94.989767 
L 518.835005 91.473488 
L 519.737625 112.571163 
L 520.640246 80.924651 
L 521.542866 120.775814 
L 522.445487 118.431628 
L 523.348107 120.775814 
L 524.250728 90.301395 
L 525.153348 91.473488 
L 526.958589 121.947907 
L 527.86121 118.431628 
L 528.76383 109.054884 
L 529.666451 118.431628 
L 530.569071 118.431628 
L 531.471692 91.473488 
L 532.374313 111.39907 
L 533.276933 114.915349 
L 535.082174 117.259535 
L 535.984795 117.259535 
L 536.887415 114.915349 
L 539.595277 121.947907 
L 540.497897 113.743256 
L 541.400518 121.947907 
L 542.303138 121.947907 
L 544.108379 119.603721 
L 545.011 123.12 
L 545.91362 119.603721 
L 546.816241 117.259535 
L 547.718861 120.775814 
L 548.621482 121.947907 
L 549.524102 121.947907 
L 550.426723 113.743256 
L 551.329343 123.12 
L 552.231964 97.333953 
L 553.134584 120.775814 
L 554.037205 121.947907 
L 554.939825 118.431628 
L 555.842446 118.431628 
L 556.745066 119.603721 
L 557.647687 121.947907 
L 558.550307 114.915349 
L 559.452928 120.775814 
L 560.355548 118.431628 
L 561.258169 119.603721 
L 562.160789 96.16186 
L 563.06341 120.775814 
L 563.96603 117.259535 
L 564.868651 123.12 
L 565.771271 123.12 
L 566.673892 121.947907 
L 567.576512 113.743256 
L 568.479133 121.947907 
L 569.381753 114.915349 
L 570.284374 118.431628 
L 571.186995 123.12 
L 572.089615 118.431628 
L 573.894856 118.431628 
L 574.797477 114.915349 
L 575.700097 112.571163 
L 576.602718 119.603721 
L 577.505338 119.603721 
L 578.407959 118.431628 
L 579.310579 120.775814 
L 580.2132 120.775814 
L 581.11582 118.431628 
L 582.018441 114.915349 
L 582.921061 114.915349 
L 583.823682 117.259535 
L 584.726302 121.947907 
L 586.531543 121.947907 
L 587.434164 100.850233 
L 588.336784 51.622326 
L 589.239405 75.064186 
L 590.142025 117.259535 
L 591.044646 120.775814 
L 591.947266 118.431628 
L 593.752507 102.022326 
L 594.655128 116.087442 
L 595.557748 96.16186 
L 596.460369 70.375814 
L 597.362989 118.431628 
L 598.26561 69.203721 
L 599.16823 109.054884 
L 600.070851 121.947907 
L 600.973471 55.138605 
L 601.876092 92.645581 
L 602.778712 105.538605 
L 603.681333 48.106047 
L 604.583953 117.259535 
L 605.486574 118.431628 
L 606.389194 91.473488 
L 607.291815 107.882791 
L 608.194435 87.957209 
L 609.097056 107.882791 
L 609.999676 119.603721 
L 610.902297 22.32 
L 611.804918 117.259535 
L 612.707538 118.431628 
L 613.610159 118.431628 
L 614.512779 110.226977 
L 615.4154 116.087442 
L 616.31802 99.67814 
L 617.220641 116.087442 
L 618.123261 119.603721 
L 619.025882 92.645581 
L 619.928502 92.645581 
L 620.831123 110.226977 
L 621.733743 89.129302 
L 622.636364 117.259535 
L 622.636364 117.259535 
" clip-path="url(#p66fb724631)" style="fill: none; stroke: #1f77b4; stroke-width: 1.5; stroke-linecap: square"/>
   </g>
   <g id="patch_3">
    <path d="M 90 128.16 
L 90 17.28 
" style="fill: none; stroke: #000000; stroke-width: 0.8; stroke-linejoin: miter; stroke-linecap: square"/>
   </g>
   <g id="patch_4">
    <path d="M 648 128.16 
L 648 17.28 
" style="fill: none; stroke: #000000; stroke-width: 0.8; stroke-linejoin: miter; stroke-linecap: square"/>
   </g>
   <g id="patch_5">
    <path d="M 90 128.16 
L 648 128.16 
" style="fill: none; stroke: #000000; stroke-width: 0.8; stroke-linejoin: miter; stroke-linecap: square"/>
   </g>
   <g id="patch_6">
    <path d="M 90 17.28 
L 648 17.28 
" style="fill: none; stroke: #000000; stroke-width: 0.8; stroke-linejoin: miter; stroke-linecap: square"/>
   </g>
   <g id="legend_1">
    <g id="patch_7">
     <path d="M 97 39.958125 
L 264.190625 39.958125 
Q 266.190625 39.958125 266.190625 37.958125 
L 266.190625 24.28 
Q 266.190625 22.28 264.190625 22.28 
L 97 22.28 
Q 95 22.28 95 24.28 
L 95 37.958125 
Q 95 39.958125 97 39.958125 
z
" style="fill: #ffffff; opacity: 0.8; stroke: #cccccc; stroke-linejoin: miter"/>
    </g>
    <g id="line2d_13">
     <path d="M 99 30.378437 
L 109 30.378437 
L 119 30.378437 
" style="fill: none; stroke: #1f77b4; stroke-width: 1.5; stroke-linecap: square"/>
    </g>
    <g id="text_13">
     <!-- Number of PyPI Downloads -->
     <g transform="translate(127 33.878437)scale(0.1 -0.1)">
      <defs>
       <path id="DejaVuSans-4e" d="M 628 4666 
L 1478 4666 
L 3547 763 
L 3547 4666 
L 4159 4666 
L 4159 0 
L 3309 0 
L 1241 3903 
L 1241 0 
L 628 0 
L 628 4666 
z
" transform="scale(0.015625)"/>
       <path id="DejaVuSans-75" d="M 544 1381 
L 544 3500 
L 1119 3500 
L 1119 1403 
Q 1119 906 1312 657 
Q 1506 409 1894 409 
Q 2359 409 2629 706 
Q 2900 1003 2900 1516 
L 2900 3500 
L 3475 3500 
L 3475 0 
L 2900 0 
L 2900 538 
Q 2691 219 2414 64 
Q 2138 -91 1772 -91 
Q 1169 -91 856 284 
Q 544 659 544 1381 
z
M 1991 3584 
L 1991 3584 
z
" transform="scale(0.015625)"/>
       <path id="DejaVuSans-6d" d="M 3328 2828 
Q 3544 3216 3844 3400 
Q 4144 3584 4550 3584 
Q 5097 3584 5394 3201 
Q 5691 2819 5691 2113 
L 5691 0 
L 5113 0 
L 5113 2094 
Q 5113 2597 4934 2840 
Q 4756 3084 4391 3084 
Q 3944 3084 3684 2787 
Q 3425 2491 3425 1978 
L 3425 0 
L 2847 0 
L 2847 2094 
Q 2847 2600 2669 2842 
Q 2491 3084 2119 3084 
Q 1678 3084 1418 2786 
Q 1159 2488 1159 1978 
L 1159 0 
L 581 0 
L 581 3500 
L 1159 3500 
L 1159 2956 
Q 1356 3278 1631 3431 
Q 1906 3584 2284 3584 
Q 2666 3584 2933 3390 
Q 3200 3197 3328 2828 
z
" transform="scale(0.015625)"/>
       <path id="DejaVuSans-62" d="M 3116 1747 
Q 3116 2381 2855 2742 
Q 2594 3103 2138 3103 
Q 1681 3103 1420 2742 
Q 1159 2381 1159 1747 
Q 1159 1113 1420 752 
Q 1681 391 2138 391 
Q 2594 391 2855 752 
Q 3116 1113 3116 1747 
z
M 1159 2969 
Q 1341 3281 1617 3432 
Q 1894 3584 2278 3584 
Q 2916 3584 3314 3078 
Q 3713 2572 3713 1747 
Q 3713 922 3314 415 
Q 2916 -91 2278 -91 
Q 1894 -91 1617 61 
Q 1341 213 1159 525 
L 1159 0 
L 581 0 
L 581 4863 
L 1159 4863 
L 1159 2969 
z
" transform="scale(0.015625)"/>
       <path id="DejaVuSans-72" d="M 2631 2963 
Q 2534 3019 2420 3045 
Q 2306 3072 2169 3072 
Q 1681 3072 1420 2755 
Q 1159 2438 1159 1844 
L 1159 0 
L 581 0 
L 581 3500 
L 1159 3500 
L 1159 2956 
Q 1341 3275 1631 3429 
Q 1922 3584 2338 3584 
Q 2397 3584 2469 3576 
Q 2541 3569 2628 3553 
L 2631 2963 
z
" transform="scale(0.015625)"/>
       <path id="DejaVuSans-20" transform="scale(0.015625)"/>
       <path id="DejaVuSans-6f" d="M 1959 3097 
Q 1497 3097 1228 2736 
Q 959 2375 959 1747 
Q 959 1119 1226 758 
Q 1494 397 1959 397 
Q 2419 397 2687 759 
Q 2956 1122 2956 1747 
Q 2956 2369 2687 2733 
Q 2419 3097 1959 3097 
z
M 1959 3584 
Q 2709 3584 3137 3096 
Q 3566 2609 3566 1747 
Q 3566 888 3137 398 
Q 2709 -91 1959 -91 
Q 1206 -91 779 398 
Q 353 888 353 1747 
Q 353 2609 779 3096 
Q 1206 3584 1959 3584 
z
" transform="scale(0.015625)"/>
       <path id="DejaVuSans-66" d="M 2375 4863 
L 2375 4384 
L 1825 4384 
Q 1516 4384 1395 4259 
Q 1275 4134 1275 3809 
L 1275 3500 
L 2222 3500 
L 2222 3053 
L 1275 3053 
L 1275 0 
L 697 0 
L 697 3053 
L 147 3053 
L 147 3500 
L 697 3500 
L 697 3744 
Q 697 4328 969 4595 
Q 1241 4863 1831 4863 
L 2375 4863 
z
" transform="scale(0.015625)"/>
       <path id="DejaVuSans-50" d="M 1259 4147 
L 1259 2394 
L 2053 2394 
Q 2494 2394 2734 2622 
Q 2975 2850 2975 3272 
Q 2975 3691 2734 3919 
Q 2494 4147 2053 4147 
L 1259 4147 
z
M 628 4666 
L 2053 4666 
Q 2838 4666 3239 4311 
Q 3641 3956 3641 3272 
Q 3641 2581 3239 2228 
Q 2838 1875 2053 1875 
L 1259 1875 
L 1259 0 
L 628 0 
L 628 4666 
z
" transform="scale(0.015625)"/>
       <path id="DejaVuSans-79" d="M 2059 -325 
Q 1816 -950 1584 -1140 
Q 1353 -1331 966 -1331 
L 506 -1331 
L 506 -850 
L 844 -850 
Q 1081 -850 1212 -737 
Q 1344 -625 1503 -206 
L 1606 56 
L 191 3500 
L 800 3500 
L 1894 763 
L 2988 3500 
L 3597 3500 
L 2059 -325 
z
" transform="scale(0.015625)"/>
       <path id="DejaVuSans-49" d="M 628 4666 
L 1259 4666 
L 1259 0 
L 628 0 
L 628 4666 
z
" transform="scale(0.015625)"/>
       <path id="DejaVuSans-44" d="M 1259 4147 
L 1259 519 
L 2022 519 
Q 2988 519 3436 956 
Q 3884 1394 3884 2338 
Q 3884 3275 3436 3711 
Q 2988 4147 2022 4147 
L 1259 4147 
z
M 628 4666 
L 1925 4666 
Q 3281 4666 3915 4102 
Q 4550 3538 4550 2338 
Q 4550 1131 3912 565 
Q 3275 0 1925 0 
L 628 0 
L 628 4666 
z
" transform="scale(0.015625)"/>
       <path id="DejaVuSans-77" d="M 269 3500 
L 844 3500 
L 1563 769 
L 2278 3500 
L 2956 3500 
L 3675 769 
L 4391 3500 
L 4966 3500 
L 4050 0 
L 3372 0 
L 2619 2869 
L 1863 0 
L 1184 0 
L 269 3500 
z
" transform="scale(0.015625)"/>
       <path id="DejaVuSans-6e" d="M 3513 2113 
L 3513 0 
L 2938 0 
L 2938 2094 
Q 2938 2591 2744 2837 
Q 2550 3084 2163 3084 
Q 1697 3084 1428 2787 
Q 1159 2491 1159 1978 
L 1159 0 
L 581 0 
L 581 3500 
L 1159 3500 
L 1159 2956 
Q 1366 3272 1645 3428 
Q 1925 3584 2291 3584 
Q 2894 3584 3203 3211 
Q 3513 2838 3513 2113 
z
" transform="scale(0.015625)"/>
       <path id="DejaVuSans-6c" d="M 603 4863 
L 1178 4863 
L 1178 0 
L 603 0 
L 603 4863 
z
" transform="scale(0.015625)"/>
       <path id="DejaVuSans-73" d="M 2834 3397 
L 2834 2853 
Q 2591 2978 2328 3040 
Q 2066 3103 1784 3103 
Q 1356 3103 1142 2972 
Q 928 2841 928 2578 
Q 928 2378 1081 2264 
Q 1234 2150 1697 2047 
L 1894 2003 
Q 2506 1872 2764 1633 
Q 3022 1394 3022 966 
Q 3022 478 2636 193 
Q 2250 -91 1575 -91 
Q 1294 -91 989 -36 
Q 684 19 347 128 
L 347 722 
Q 666 556 975 473 
Q 1284 391 1588 391 
Q 1994 391 2212 530 
Q 2431 669 2431 922 
Q 2431 1156 2273 1281 
Q 2116 1406 1581 1522 
L 1381 1569 
Q 847 1681 609 1914 
Q 372 2147 372 2553 
Q 372 3047 722 3315 
Q 1072 3584 1716 3584 
Q 2034 3584 2315 3537 
Q 2597 3491 2834 3397 
z
" transform="scale(0.015625)"/>
      </defs>
      <use xlink:href="#DejaVuSans-4e"/>
      <use xlink:href="#DejaVuSans-75" x="74.804688"/>
      <use xlink:href="#DejaVuSans-6d" x="138.183594"/>
      <use xlink:href="#DejaVuSans-62" x="235.595703"/>
      <use xlink:href="#DejaVuSans-65" x="299.072266"/>
      <use xlink:href="#DejaVuSans-72" x="360.595703"/>
      <use xlink:href="#DejaVuSans-20" x="401.708984"/>
      <use xlink:href="#DejaVuSans-6f" x="433.496094"/>
      <use xlink:href="#DejaVuSans-66" x="494.677734"/>
      <use xlink:href="#DejaVuSans-20" x="529.882812"/>
      <use xlink:href="#DejaVuSans-50" x="561.669922"/>
      <use xlink:href="#DejaVuSans-79" x="621.972656"/>
      <use xlink:href="#DejaVuSans-50" x="681.152344"/>
      <use xlink:href="#DejaVuSans-49" x="741.455078"/>
      <use xlink:href="#DejaVuSans-20" x="770.947266"/>
      <use xlink:href="#DejaVuSans-44" x="802.734375"/>
      <use xlink:href="#DejaVuSans-6f" x="879.736328"/>
      <use xlink:href="#DejaVuSans-77" x="940.917969"/>
      <use xlink:href="#DejaVuSans-6e" x="1022.705078"/>
      <use xlink:href="#DejaVuSans-6c" x="1086.083984"/>
      <use xlink:href="#DejaVuSans-6f" x="1113.867188"/>
      <use xlink:href="#DejaVuSans-61" x="1175.048828"/>
      <use xlink:href="#DejaVuSans-64" x="1236.328125"/>
      <use xlink:href="#DejaVuSans-73" x="1299.804688"/>
     </g>
    </g>
   </g>
  </g>
 </g>
 <defs>
  <clipPath id="p66fb724631">
   <rect x="90" y="17.28" width="558" height="110.88"/>
  </clipPath>
 </defs>
</svg>
