<?xml version="1.0" encoding="utf-8" standalone="no"?>
<!DOCTYPE svg PUBLIC "-//W3C//DTD SVG 1.1//EN"
  "http://www.w3.org/Graphics/SVG/1.1/DTD/svg11.dtd">
<svg xmlns:xlink="http://www.w3.org/1999/xlink" width="720pt" height="144pt" viewBox="0 0 720 144" xmlns="http://www.w3.org/2000/svg" version="1.1">
 <metadata>
  <rdf:RDF xmlns:dc="http://purl.org/dc/elements/1.1/" xmlns:cc="http://creativecommons.org/ns#" xmlns:rdf="http://www.w3.org/1999/02/22-rdf-syntax-ns#">
   <cc:Work>
    <dc:type rdf:resource="http://purl.org/dc/dcmitype/StillImage"/>
    <dc:date>2024-04-01T20:57:18.518253</dc:date>
    <dc:format>image/svg+xml</dc:format>
    <dc:creator>
     <cc:Agent>
      <dc:title>Matplotlib v3.8.3, https://matplotlib.org/</dc:title>
     </cc:Agent>
    </dc:creator>
   </cc:Work>
  </rdf:RDF>
 </metadata>
 <defs>
  <style type="text/css">*{stroke-linejoin: round; stroke-linecap: butt}</style>
 </defs>
 <g id="figure_1">
  <g id="patch_1">
   <path d="M 0 144 
L 720 144 
L 720 0 
L 0 0 
z
" style="fill: #ffffff"/>
  </g>
  <g id="axes_1">
   <g id="patch_2">
    <path d="M 90 128.16 
L 648 128.16 
L 648 17.28 
L 90 17.28 
z
" style="fill: #ffffff"/>
   </g>
   <g id="matplotlib.axis_1">
    <g id="xtick_1">
     <g id="line2d_1">
      <defs>
       <path id="mce515253eb" d="M 0 0 
L 0 3.5 
" style="stroke: #000000; stroke-width: 0.8"/>
      </defs>
      <g>
       <use xlink:href="#mce515253eb" x="115.363636" y="128.16" style="stroke: #000000; stroke-width: 0.8"/>
      </g>
     </g>
     <g id="text_1">
      <!-- 2020-06-18 -->
      <g transform="translate(86.305824 142.758438) scale(0.1 -0.1)">
       <defs>
        <path id="DejaVuSans-32" d="M 1228 531 
L 3431 531 
L 3431 0 
L 469 0 
L 469 531 
Q 828 903 1448 1529 
Q 2069 2156 2228 2338 
Q 2531 2678 2651 2914 
Q 2772 3150 2772 3378 
Q 2772 3750 2511 3984 
Q 2250 4219 1831 4219 
Q 1534 4219 1204 4116 
Q 875 4013 500 3803 
L 500 4441 
Q 881 4594 1212 4672 
Q 1544 4750 1819 4750 
Q 2544 4750 2975 4387 
Q 3406 4025 3406 3419 
Q 3406 3131 3298 2873 
Q 3191 2616 2906 2266 
Q 2828 2175 2409 1742 
Q 1991 1309 1228 531 
z
" transform="scale(0.015625)"/>
        <path id="DejaVuSans-30" d="M 2034 4250 
Q 1547 4250 1301 3770 
Q 1056 3291 1056 2328 
Q 1056 1369 1301 889 
Q 1547 409 2034 409 
Q 2525 409 2770 889 
Q 3016 1369 3016 2328 
Q 3016 3291 2770 3770 
Q 2525 4250 2034 4250 
z
M 2034 4750 
Q 2819 4750 3233 4129 
Q 3647 3509 3647 2328 
Q 3647 1150 3233 529 
Q 2819 -91 2034 -91 
Q 1250 -91 836 529 
Q 422 1150 422 2328 
Q 422 3509 836 4129 
Q 1250 4750 2034 4750 
z
" transform="scale(0.015625)"/>
        <path id="DejaVuSans-2d" d="M 313 2009 
L 1997 2009 
L 1997 1497 
L 313 1497 
L 313 2009 
z
" transform="scale(0.015625)"/>
        <path id="DejaVuSans-36" d="M 2113 2584 
Q 1688 2584 1439 2293 
Q 1191 2003 1191 1497 
Q 1191 994 1439 701 
Q 1688 409 2113 409 
Q 2538 409 2786 701 
Q 3034 994 3034 1497 
Q 3034 2003 2786 2293 
Q 2538 2584 2113 2584 
z
M 3366 4563 
L 3366 3988 
Q 3128 4100 2886 4159 
Q 2644 4219 2406 4219 
Q 1781 4219 1451 3797 
Q 1122 3375 1075 2522 
Q 1259 2794 1537 2939 
Q 1816 3084 2150 3084 
Q 2853 3084 3261 2657 
Q 3669 2231 3669 1497 
Q 3669 778 3244 343 
Q 2819 -91 2113 -91 
Q 1303 -91 875 529 
Q 447 1150 447 2328 
Q 447 3434 972 4092 
Q 1497 4750 2381 4750 
Q 2619 4750 2861 4703 
Q 3103 4656 3366 4563 
z
" transform="scale(0.015625)"/>
        <path id="DejaVuSans-31" d="M 794 531 
L 1825 531 
L 1825 4091 
L 703 3866 
L 703 4441 
L 1819 4666 
L 2450 4666 
L 2450 531 
L 3481 531 
L 3481 0 
L 794 0 
L 794 531 
z
" transform="scale(0.015625)"/>
        <path id="DejaVuSans-38" d="M 2034 2216 
Q 1584 2216 1326 1975 
Q 1069 1734 1069 1313 
Q 1069 891 1326 650 
Q 1584 409 2034 409 
Q 2484 409 2743 651 
Q 3003 894 3003 1313 
Q 3003 1734 2745 1975 
Q 2488 2216 2034 2216 
z
M 1403 2484 
Q 997 2584 770 2862 
Q 544 3141 544 3541 
Q 544 4100 942 4425 
Q 1341 4750 2034 4750 
Q 2731 4750 3128 4425 
Q 3525 4100 3525 3541 
Q 3525 3141 3298 2862 
Q 3072 2584 2669 2484 
Q 3125 2378 3379 2068 
Q 3634 1759 3634 1313 
Q 3634 634 3220 271 
Q 2806 -91 2034 -91 
Q 1263 -91 848 271 
Q 434 634 434 1313 
Q 434 1759 690 2068 
Q 947 2378 1403 2484 
z
M 1172 3481 
Q 1172 3119 1398 2916 
Q 1625 2713 2034 2713 
Q 2441 2713 2670 2916 
Q 2900 3119 2900 3481 
Q 2900 3844 2670 4047 
Q 2441 4250 2034 4250 
Q 1625 4250 1398 4047 
Q 1172 3844 1172 3481 
z
" transform="scale(0.015625)"/>
       </defs>
       <use xlink:href="#DejaVuSans-32"/>
       <use xlink:href="#DejaVuSans-30" x="63.623047"/>
       <use xlink:href="#DejaVuSans-32" x="127.246094"/>
       <use xlink:href="#DejaVuSans-30" x="190.869141"/>
       <use xlink:href="#DejaVuSans-2d" x="254.492188"/>
       <use xlink:href="#DejaVuSans-30" x="290.576172"/>
       <use xlink:href="#DejaVuSans-36" x="354.199219"/>
       <use xlink:href="#DejaVuSans-2d" x="417.822266"/>
       <use xlink:href="#DejaVuSans-31" x="453.90625"/>
       <use xlink:href="#DejaVuSans-38" x="517.529297"/>
      </g>
     </g>
    </g>
    <g id="xtick_2">
     <g id="line2d_2">
      <g>
       <use xlink:href="#mce515253eb" x="196.203912" y="128.16" style="stroke: #000000; stroke-width: 0.8"/>
      </g>
     </g>
     <g id="text_2">
      <!-- 2021-03-13 -->
      <g transform="translate(167.146099 142.758438) scale(0.1 -0.1)">
       <defs>
        <path id="DejaVuSans-33" d="M 2597 2516 
Q 3050 2419 3304 2112 
Q 3559 1806 3559 1356 
Q 3559 666 3084 287 
Q 2609 -91 1734 -91 
Q 1441 -91 1130 -33 
Q 819 25 488 141 
L 488 750 
Q 750 597 1062 519 
Q 1375 441 1716 441 
Q 2309 441 2620 675 
Q 2931 909 2931 1356 
Q 2931 1769 2642 2001 
Q 2353 2234 1838 2234 
L 1294 2234 
L 1294 2753 
L 1863 2753 
Q 2328 2753 2575 2939 
Q 2822 3125 2822 3475 
Q 2822 3834 2567 4026 
Q 2313 4219 1838 4219 
Q 1578 4219 1281 4162 
Q 984 4106 628 3988 
L 628 4550 
Q 988 4650 1302 4700 
Q 1616 4750 1894 4750 
Q 2613 4750 3031 4423 
Q 3450 4097 3450 3541 
Q 3450 3153 3228 2886 
Q 3006 2619 2597 2516 
z
" transform="scale(0.015625)"/>
       </defs>
       <use xlink:href="#DejaVuSans-32"/>
       <use xlink:href="#DejaVuSans-30" x="63.623047"/>
       <use xlink:href="#DejaVuSans-32" x="127.246094"/>
       <use xlink:href="#DejaVuSans-31" x="190.869141"/>
       <use xlink:href="#DejaVuSans-2d" x="254.492188"/>
       <use xlink:href="#DejaVuSans-30" x="290.576172"/>
       <use xlink:href="#DejaVuSans-33" x="354.199219"/>
       <use xlink:href="#DejaVuSans-2d" x="417.822266"/>
       <use xlink:href="#DejaVuSans-31" x="453.90625"/>
       <use xlink:href="#DejaVuSans-33" x="517.529297"/>
      </g>
     </g>
    </g>
    <g id="xtick_3">
     <g id="line2d_3">
      <g>
       <use xlink:href="#mce515253eb" x="277.044187" y="128.16" style="stroke: #000000; stroke-width: 0.8"/>
      </g>
     </g>
     <g id="text_3">
      <!-- 2021-10-16 -->
      <g transform="translate(247.986374 142.758438) scale(0.1 -0.1)">
       <use xlink:href="#DejaVuSans-32"/>
       <use xlink:href="#DejaVuSans-30" x="63.623047"/>
       <use xlink:href="#DejaVuSans-32" x="127.246094"/>
       <use xlink:href="#DejaVuSans-31" x="190.869141"/>
       <use xlink:href="#DejaVuSans-2d" x="254.492188"/>
       <use xlink:href="#DejaVuSans-31" x="290.576172"/>
       <use xlink:href="#DejaVuSans-30" x="354.199219"/>
       <use xlink:href="#DejaVuSans-2d" x="417.822266"/>
       <use xlink:href="#DejaVuSans-31" x="453.90625"/>
       <use xlink:href="#DejaVuSans-36" x="517.529297"/>
      </g>
     </g>
    </g>
    <g id="xtick_4">
     <g id="line2d_4">
      <g>
       <use xlink:href="#mce515253eb" x="357.884462" y="128.16" style="stroke: #000000; stroke-width: 0.8"/>
      </g>
     </g>
     <g id="text_4">
      <!-- 2022-05-12 -->
      <g transform="translate(328.82665 142.758438) scale(0.1 -0.1)">
       <defs>
        <path id="DejaVuSans-35" d="M 691 4666 
L 3169 4666 
L 3169 4134 
L 1269 4134 
L 1269 2991 
Q 1406 3038 1543 3061 
Q 1681 3084 1819 3084 
Q 2600 3084 3056 2656 
Q 3513 2228 3513 1497 
Q 3513 744 3044 326 
Q 2575 -91 1722 -91 
Q 1428 -91 1123 -41 
Q 819 9 494 109 
L 494 744 
Q 775 591 1075 516 
Q 1375 441 1709 441 
Q 2250 441 2565 725 
Q 2881 1009 2881 1497 
Q 2881 1984 2565 2268 
Q 2250 2553 1709 2553 
Q 1456 2553 1204 2497 
Q 953 2441 691 2322 
L 691 4666 
z
" transform="scale(0.015625)"/>
       </defs>
       <use xlink:href="#DejaVuSans-32"/>
       <use xlink:href="#DejaVuSans-30" x="63.623047"/>
       <use xlink:href="#DejaVuSans-32" x="127.246094"/>
       <use xlink:href="#DejaVuSans-32" x="190.869141"/>
       <use xlink:href="#DejaVuSans-2d" x="254.492188"/>
       <use xlink:href="#DejaVuSans-30" x="290.576172"/>
       <use xlink:href="#DejaVuSans-35" x="354.199219"/>
       <use xlink:href="#DejaVuSans-2d" x="417.822266"/>
       <use xlink:href="#DejaVuSans-31" x="453.90625"/>
       <use xlink:href="#DejaVuSans-32" x="517.529297"/>
      </g>
     </g>
    </g>
    <g id="xtick_5">
     <g id="line2d_5">
      <g>
       <use xlink:href="#mce515253eb" x="438.724737" y="128.16" style="stroke: #000000; stroke-width: 0.8"/>
      </g>
     </g>
     <g id="text_5">
      <!-- 2022-12-07 -->
      <g transform="translate(409.666925 142.758438) scale(0.1 -0.1)">
       <defs>
        <path id="DejaVuSans-37" d="M 525 4666 
L 3525 4666 
L 3525 4397 
L 1831 0 
L 1172 0 
L 2766 4134 
L 525 4134 
L 525 4666 
z
" transform="scale(0.015625)"/>
       </defs>
       <use xlink:href="#DejaVuSans-32"/>
       <use xlink:href="#DejaVuSans-30" x="63.623047"/>
       <use xlink:href="#DejaVuSans-32" x="127.246094"/>
       <use xlink:href="#DejaVuSans-32" x="190.869141"/>
       <use xlink:href="#DejaVuSans-2d" x="254.492188"/>
       <use xlink:href="#DejaVuSans-31" x="290.576172"/>
       <use xlink:href="#DejaVuSans-32" x="354.199219"/>
       <use xlink:href="#DejaVuSans-2d" x="417.822266"/>
       <use xlink:href="#DejaVuSans-30" x="453.90625"/>
       <use xlink:href="#DejaVuSans-37" x="517.529297"/>
      </g>
     </g>
    </g>
    <g id="xtick_6">
     <g id="line2d_6">
      <g>
       <use xlink:href="#mce515253eb" x="519.565013" y="128.16" style="stroke: #000000; stroke-width: 0.8"/>
      </g>
     </g>
     <g id="text_6">
      <!-- 2023-07-11 -->
      <g transform="translate(490.5072 142.758438) scale(0.1 -0.1)">
       <use xlink:href="#DejaVuSans-32"/>
       <use xlink:href="#DejaVuSans-30" x="63.623047"/>
       <use xlink:href="#DejaVuSans-32" x="127.246094"/>
       <use xlink:href="#DejaVuSans-33" x="190.869141"/>
       <use xlink:href="#DejaVuSans-2d" x="254.492188"/>
       <use xlink:href="#DejaVuSans-30" x="290.576172"/>
       <use xlink:href="#DejaVuSans-37" x="354.199219"/>
       <use xlink:href="#DejaVuSans-2d" x="417.822266"/>
       <use xlink:href="#DejaVuSans-31" x="453.90625"/>
       <use xlink:href="#DejaVuSans-31" x="517.529297"/>
      </g>
     </g>
    </g>
    <g id="xtick_7">
     <g id="line2d_7">
      <g>
       <use xlink:href="#mce515253eb" x="600.405288" y="128.16" style="stroke: #000000; stroke-width: 0.8"/>
      </g>
     </g>
     <g id="text_7">
      <!-- 2024-02-04 -->
      <g transform="translate(571.347475 142.758438) scale(0.1 -0.1)">
       <defs>
        <path id="DejaVuSans-34" d="M 2419 4116 
L 825 1625 
L 2419 1625 
L 2419 4116 
z
M 2253 4666 
L 3047 4666 
L 3047 1625 
L 3713 1625 
L 3713 1100 
L 3047 1100 
L 3047 0 
L 2419 0 
L 2419 1100 
L 313 1100 
L 313 1709 
L 2253 4666 
z
" transform="scale(0.015625)"/>
       </defs>
       <use xlink:href="#DejaVuSans-32"/>
       <use xlink:href="#DejaVuSans-30" x="63.623047"/>
       <use xlink:href="#DejaVuSans-32" x="127.246094"/>
       <use xlink:href="#DejaVuSans-34" x="190.869141"/>
       <use xlink:href="#DejaVuSans-2d" x="254.492188"/>
       <use xlink:href="#DejaVuSans-30" x="290.576172"/>
       <use xlink:href="#DejaVuSans-32" x="354.199219"/>
       <use xlink:href="#DejaVuSans-2d" x="417.822266"/>
       <use xlink:href="#DejaVuSans-30" x="453.90625"/>
       <use xlink:href="#DejaVuSans-34" x="517.529297"/>
      </g>
     </g>
    </g>
    <g id="text_8">
     <!-- date -->
     <g transform="translate(357.725 156.436563) scale(0.1 -0.1)">
      <defs>
       <path id="DejaVuSans-64" d="M 2906 2969 
L 2906 4863 
L 3481 4863 
L 3481 0 
L 2906 0 
L 2906 525 
Q 2725 213 2448 61 
Q 2172 -91 1784 -91 
Q 1150 -91 751 415 
Q 353 922 353 1747 
Q 353 2572 751 3078 
Q 1150 3584 1784 3584 
Q 2172 3584 2448 3432 
Q 2725 3281 2906 2969 
z
M 947 1747 
Q 947 1113 1208 752 
Q 1469 391 1925 391 
Q 2381 391 2643 752 
Q 2906 1113 2906 1747 
Q 2906 2381 2643 2742 
Q 2381 3103 1925 3103 
Q 1469 3103 1208 2742 
Q 947 2381 947 1747 
z
" transform="scale(0.015625)"/>
       <path id="DejaVuSans-61" d="M 2194 1759 
Q 1497 1759 1228 1600 
Q 959 1441 959 1056 
Q 959 750 1161 570 
Q 1363 391 1709 391 
Q 2188 391 2477 730 
Q 2766 1069 2766 1631 
L 2766 1759 
L 2194 1759 
z
M 3341 1997 
L 3341 0 
L 2766 0 
L 2766 531 
Q 2569 213 2275 61 
Q 1981 -91 1556 -91 
Q 1019 -91 701 211 
Q 384 513 384 1019 
Q 384 1609 779 1909 
Q 1175 2209 1959 2209 
L 2766 2209 
L 2766 2266 
Q 2766 2663 2505 2880 
Q 2244 3097 1772 3097 
Q 1472 3097 1187 3025 
Q 903 2953 641 2809 
L 641 3341 
Q 956 3463 1253 3523 
Q 1550 3584 1831 3584 
Q 2591 3584 2966 3190 
Q 3341 2797 3341 1997 
z
" transform="scale(0.015625)"/>
       <path id="DejaVuSans-74" d="M 1172 4494 
L 1172 3500 
L 2356 3500 
L 2356 3053 
L 1172 3053 
L 1172 1153 
Q 1172 725 1289 603 
Q 1406 481 1766 481 
L 2356 481 
L 2356 0 
L 1766 0 
Q 1100 0 847 248 
Q 594 497 594 1153 
L 594 3053 
L 172 3053 
L 172 3500 
L 594 3500 
L 594 4494 
L 1172 4494 
z
" transform="scale(0.015625)"/>
       <path id="DejaVuSans-65" d="M 3597 1894 
L 3597 1613 
L 953 1613 
Q 991 1019 1311 708 
Q 1631 397 2203 397 
Q 2534 397 2845 478 
Q 3156 559 3463 722 
L 3463 178 
Q 3153 47 2828 -22 
Q 2503 -91 2169 -91 
Q 1331 -91 842 396 
Q 353 884 353 1716 
Q 353 2575 817 3079 
Q 1281 3584 2069 3584 
Q 2775 3584 3186 3129 
Q 3597 2675 3597 1894 
z
M 3022 2063 
Q 3016 2534 2758 2815 
Q 2500 3097 2075 3097 
Q 1594 3097 1305 2825 
Q 1016 2553 972 2059 
L 3022 2063 
z
" transform="scale(0.015625)"/>
      </defs>
      <use xlink:href="#DejaVuSans-64"/>
      <use xlink:href="#DejaVuSans-61" x="63.476562"/>
      <use xlink:href="#DejaVuSans-74" x="124.755859"/>
      <use xlink:href="#DejaVuSans-65" x="163.964844"/>
     </g>
    </g>
   </g>
   <g id="matplotlib.axis_2">
    <g id="ytick_1">
     <g id="line2d_8">
      <defs>
       <path id="md2ca02471a" d="M 0 0 
L -3.5 0 
" style="stroke: #000000; stroke-width: 0.8"/>
      </defs>
      <g>
       <use xlink:href="#md2ca02471a" x="90" y="123.895385" style="stroke: #000000; stroke-width: 0.8"/>
      </g>
     </g>
     <g id="text_9">
      <!-- 0 -->
      <g transform="translate(76.6375 127.694603) scale(0.1 -0.1)">
       <use xlink:href="#DejaVuSans-30"/>
      </g>
     </g>
    </g>
    <g id="ytick_2">
     <g id="line2d_9">
      <g>
       <use xlink:href="#md2ca02471a" x="90" y="85.126154" style="stroke: #000000; stroke-width: 0.8"/>
      </g>
     </g>
     <g id="text_10">
      <!-- 50 -->
      <g transform="translate(70.275 88.925373) scale(0.1 -0.1)">
       <use xlink:href="#DejaVuSans-35"/>
       <use xlink:href="#DejaVuSans-30" x="63.623047"/>
      </g>
     </g>
    </g>
    <g id="ytick_3">
     <g id="line2d_10">
      <g>
       <use xlink:href="#md2ca02471a" x="90" y="46.356923" style="stroke: #000000; stroke-width: 0.8"/>
      </g>
     </g>
     <g id="text_11">
      <!-- 100 -->
      <g transform="translate(63.9125 50.156142) scale(0.1 -0.1)">
       <use xlink:href="#DejaVuSans-31"/>
       <use xlink:href="#DejaVuSans-30" x="63.623047"/>
       <use xlink:href="#DejaVuSans-30" x="127.246094"/>
      </g>
     </g>
    </g>
   </g>
   <g id="line2d_11">
    <path d="M 115.363636 106.836923 
L 116.172039 120.793846 
L 117.384643 123.12 
L 117.788845 121.569231 
L 118.193046 117.692308 
L 118.597247 122.344615 
L 119.001449 121.569231 
L 119.40565 122.344615 
L 119.809852 105.286154 
L 120.214053 118.467692 
L 120.618254 121.569231 
L 121.022456 117.692308 
L 121.426657 122.344615 
L 121.830858 119.243077 
L 122.23506 118.467692 
L 122.639261 123.12 
L 123.043463 121.569231 
L 123.447664 116.141538 
L 123.851865 117.692308 
L 124.256067 120.793846 
L 124.660268 121.569231 
L 125.064469 121.569231 
L 125.872872 123.12 
L 126.277074 116.916923 
L 126.681275 84.350769 
L 127.085476 119.243077 
L 127.489678 121.569231 
L 127.893879 121.569231 
L 128.29808 120.018462 
L 128.702282 122.344615 
L 129.106483 120.793846 
L 129.510685 123.12 
L 129.914886 121.569231 
L 130.319087 121.569231 
L 130.723289 123.12 
L 131.12749 122.344615 
L 131.531691 120.793846 
L 131.935893 120.793846 
L 132.340094 119.243077 
L 132.744296 123.12 
L 133.148497 123.12 
L 133.552698 122.344615 
L 133.9569 122.344615 
L 134.361101 123.12 
L 134.765302 123.12 
L 135.169504 111.489231 
L 135.573705 120.018462 
L 135.977907 118.467692 
L 136.382108 122.344615 
L 136.786309 120.018462 
L 137.190511 118.467692 
L 137.594712 120.018462 
L 137.998913 123.12 
L 138.403115 122.344615 
L 138.807316 120.018462 
L 139.211518 123.12 
L 140.01992 121.569231 
L 140.424122 118.467692 
L 141.232524 123.12 
L 141.636726 120.793846 
L 142.040927 120.018462 
L 142.445129 123.12 
L 142.84933 120.793846 
L 143.253531 123.12 
L 143.657733 122.344615 
L 144.061934 120.018462 
L 144.466135 123.12 
L 144.870337 122.344615 
L 145.274538 122.344615 
L 145.67874 123.12 
L 146.082941 120.018462 
L 146.487142 123.12 
L 146.891344 121.569231 
L 147.699746 121.569231 
L 148.103948 120.793846 
L 148.508149 119.243077 
L 148.912351 121.569231 
L 149.316552 119.243077 
L 149.720753 123.12 
L 150.529156 121.569231 
L 150.933357 120.018462 
L 151.337559 122.344615 
L 151.74176 123.12 
L 152.145962 122.344615 
L 152.550163 120.793846 
L 152.954364 121.569231 
L 153.358566 123.12 
L 153.762767 113.04 
L 154.166968 123.12 
L 154.57117 121.569231 
L 154.975371 120.793846 
L 155.379573 123.12 
L 155.783774 120.793846 
L 156.187975 117.692308 
L 156.592177 121.569231 
L 156.996378 123.12 
L 157.40058 123.12 
L 157.804781 122.344615 
L 158.208982 123.12 
L 158.613184 123.12 
L 159.017385 122.344615 
L 159.421586 122.344615 
L 159.825788 121.569231 
L 160.229989 122.344615 
L 161.442593 120.018462 
L 161.846795 121.569231 
L 162.250996 121.569231 
L 163.059399 120.018462 
L 163.4636 122.344615 
L 163.867802 123.12 
L 164.272003 118.467692 
L 164.676204 122.344615 
L 165.080406 122.344615 
L 165.484607 117.692308 
L 165.888808 121.569231 
L 166.29301 121.569231 
L 166.697211 104.510769 
L 167.101413 120.018462 
L 167.505614 121.569231 
L 167.909815 118.467692 
L 168.314017 122.344615 
L 168.718218 119.243077 
L 169.122419 122.344615 
L 169.526621 117.692308 
L 169.930822 120.018462 
L 170.335024 123.12 
L 170.739225 122.344615 
L 171.143426 113.815385 
L 171.547628 120.018462 
L 171.951829 122.344615 
L 172.35603 123.12 
L 172.760232 123.12 
L 173.164433 117.692308 
L 173.568635 123.12 
L 173.972836 123.12 
L 174.377037 120.793846 
L 174.781239 123.12 
L 175.18544 123.12 
L 175.993843 120.018462 
L 176.398044 123.12 
L 176.802246 121.569231 
L 177.610648 123.12 
L 178.01485 120.018462 
L 178.419051 123.12 
L 178.823252 123.12 
L 179.227454 122.344615 
L 179.631655 123.12 
L 180.035857 123.12 
L 180.440058 120.018462 
L 181.248461 123.12 
L 182.056863 121.569231 
L 182.461065 121.569231 
L 182.865266 122.344615 
L 183.269468 120.793846 
L 183.673669 122.344615 
L 184.07787 123.12 
L 184.886273 123.12 
L 185.290474 120.018462 
L 185.694676 123.12 
L 186.098877 122.344615 
L 186.503079 123.12 
L 186.90728 120.018462 
L 187.311481 121.569231 
L 187.715683 122.344615 
L 188.119884 122.344615 
L 188.524085 120.793846 
L 188.928287 122.344615 
L 189.332488 121.569231 
L 189.73669 121.569231 
L 190.140891 122.344615 
L 190.545092 122.344615 
L 190.949294 123.12 
L 191.353495 118.467692 
L 191.757696 122.344615 
L 192.161898 122.344615 
L 192.566099 123.12 
L 192.970301 122.344615 
L 193.374502 123.12 
L 193.778703 123.12 
L 194.587106 121.569231 
L 194.991307 115.366154 
L 195.395509 117.692308 
L 195.79971 100.633846 
L 196.203912 123.12 
L 196.608113 122.344615 
L 197.012314 118.467692 
L 197.416516 120.018462 
L 197.820717 119.243077 
L 198.224919 113.04 
L 198.62912 123.12 
L 199.033321 122.344615 
L 199.437523 120.793846 
L 199.841724 118.467692 
L 200.245925 115.366154 
L 200.650127 106.061538 
L 201.054328 112.264615 
L 201.45853 122.344615 
L 201.862731 97.532308 
L 202.266932 111.489231 
L 202.671134 117.692308 
L 203.075335 113.04 
L 203.479536 120.018462 
L 203.883738 113.04 
L 204.287939 113.815385 
L 204.692141 112.264615 
L 205.096342 106.061538 
L 205.500543 121.569231 
L 205.904745 118.467692 
L 206.308946 121.569231 
L 206.713147 123.12 
L 207.117349 120.018462 
L 207.52155 123.12 
L 207.925752 121.569231 
L 208.329953 123.12 
L 208.734154 122.344615 
L 209.138356 113.04 
L 209.542557 121.569231 
L 209.946758 119.243077 
L 210.35096 120.793846 
L 210.755161 120.018462 
L 211.159363 123.12 
L 211.563564 118.467692 
L 211.967765 120.018462 
L 212.371967 122.344615 
L 212.776168 119.243077 
L 213.180369 123.12 
L 213.584571 121.569231 
L 213.988772 123.12 
L 214.392974 120.793846 
L 214.797175 122.344615 
L 215.201376 120.793846 
L 215.605578 120.018462 
L 216.009779 122.344615 
L 216.818182 122.344615 
L 217.222383 120.793846 
L 217.626585 120.018462 
L 218.030786 106.836923 
L 218.434987 108.387692 
L 218.839189 121.569231 
L 219.24339 122.344615 
L 219.647591 119.243077 
L 220.051793 120.018462 
L 220.455994 118.467692 
L 220.860196 122.344615 
L 221.264397 123.12 
L 221.668598 119.243077 
L 222.0728 118.467692 
L 222.477001 116.141538 
L 222.881202 122.344615 
L 223.285404 120.018462 
L 223.689605 122.344615 
L 224.093807 122.344615 
L 224.498008 123.12 
L 225.306411 120.018462 
L 226.114813 123.12 
L 226.519015 121.569231 
L 226.923216 122.344615 
L 227.327418 118.467692 
L 227.731619 116.916923 
L 228.13582 118.467692 
L 228.540022 119.243077 
L 228.944223 117.692308 
L 229.348424 111.489231 
L 229.752626 119.243077 
L 230.156827 120.793846 
L 230.561029 120.018462 
L 230.96523 117.692308 
L 231.369431 112.264615 
L 231.773633 122.344615 
L 232.177834 121.569231 
L 232.582035 123.12 
L 232.986237 116.916923 
L 233.390438 117.692308 
L 233.79464 120.793846 
L 234.198841 116.141538 
L 234.603042 114.590769 
L 235.007244 122.344615 
L 235.411445 122.344615 
L 235.815647 116.141538 
L 236.219848 102.184615 
L 236.624049 113.04 
L 237.028251 119.243077 
L 237.432452 120.018462 
L 237.836653 120.018462 
L 238.645056 121.569231 
L 239.049258 119.243077 
L 239.453459 119.243077 
L 239.85766 122.344615 
L 240.261862 122.344615 
L 240.666063 121.569231 
L 241.070264 122.344615 
L 241.474466 117.692308 
L 241.878667 117.692308 
L 242.282869 119.243077 
L 242.68707 116.916923 
L 243.091271 111.489231 
L 243.495473 117.692308 
L 243.899674 117.692308 
L 244.303875 121.569231 
L 244.708077 121.569231 
L 245.112278 118.467692 
L 245.51648 123.12 
L 245.920681 109.938462 
L 246.324882 108.387692 
L 246.729084 119.243077 
L 247.133285 120.018462 
L 247.537486 113.04 
L 248.345889 121.569231 
L 248.750091 120.018462 
L 249.154292 123.12 
L 249.558493 116.916923 
L 249.962695 106.836923 
L 250.366896 122.344615 
L 250.771097 121.569231 
L 251.5795 123.12 
L 251.983702 120.793846 
L 252.387903 108.387692 
L 252.792104 117.692308 
L 253.196306 122.344615 
L 253.600507 122.344615 
L 254.004708 111.489231 
L 254.40891 121.569231 
L 254.813111 122.344615 
L 255.217313 121.569231 
L 256.834118 121.569231 
L 257.238319 120.018462 
L 257.642521 123.12 
L 258.046722 122.344615 
L 258.450924 122.344615 
L 258.855125 123.12 
L 259.259326 123.12 
L 259.663528 122.344615 
L 260.067729 123.12 
L 260.47193 119.243077 
L 260.876132 122.344615 
L 261.280333 120.018462 
L 261.684535 120.018462 
L 262.088736 118.467692 
L 262.492937 120.018462 
L 262.897139 123.12 
L 263.30134 121.569231 
L 264.109743 121.569231 
L 264.513944 123.12 
L 264.918146 122.344615 
L 265.322347 122.344615 
L 265.726548 120.793846 
L 266.13075 122.344615 
L 267.343354 122.344615 
L 267.747555 95.981538 
L 268.151757 120.018462 
L 268.555958 123.12 
L 268.960159 122.344615 
L 269.364361 120.793846 
L 269.768562 123.12 
L 270.172763 120.018462 
L 270.576965 122.344615 
L 270.981166 119.243077 
L 271.385368 118.467692 
L 271.789569 118.467692 
L 272.19377 117.692308 
L 272.597972 108.387692 
L 273.002173 108.387692 
L 273.406375 118.467692 
L 273.810576 120.793846 
L 274.214777 122.344615 
L 274.618979 110.713846 
L 275.02318 120.018462 
L 275.427381 122.344615 
L 275.831583 122.344615 
L 276.235784 121.569231 
L 276.639986 121.569231 
L 277.044187 122.344615 
L 277.448388 122.344615 
L 277.85259 120.018462 
L 278.256791 123.12 
L 278.660992 122.344615 
L 279.065194 120.018462 
L 279.469395 120.018462 
L 279.873597 121.569231 
L 280.681999 108.387692 
L 281.086201 116.916923 
L 281.490402 116.141538 
L 281.894603 111.489231 
L 282.298805 114.590769 
L 283.107208 116.141538 
L 283.511409 115.366154 
L 283.91561 110.713846 
L 284.319812 113.04 
L 284.724013 120.018462 
L 285.128214 120.793846 
L 285.532416 119.243077 
L 285.936617 119.243077 
L 286.340819 116.916923 
L 286.74502 118.467692 
L 287.149221 113.815385 
L 287.553423 117.692308 
L 287.957624 118.467692 
L 288.361825 115.366154 
L 288.766027 108.387692 
L 289.170228 115.366154 
L 289.57443 118.467692 
L 290.382832 115.366154 
L 290.787034 118.467692 
L 291.191235 113.04 
L 291.595436 118.467692 
L 291.999638 115.366154 
L 292.403839 121.569231 
L 292.808041 118.467692 
L 293.212242 113.04 
L 293.616443 121.569231 
L 294.020645 120.018462 
L 294.424846 120.793846 
L 294.829047 117.692308 
L 295.233249 116.916923 
L 295.63745 104.510769 
L 296.041652 102.184615 
L 296.445853 116.141538 
L 296.850054 95.206154 
L 297.254256 121.569231 
L 297.658457 120.018462 
L 298.062658 121.569231 
L 298.46686 101.409231 
L 298.871061 102.184615 
L 299.679464 122.344615 
L 300.083665 120.018462 
L 300.487867 113.815385 
L 300.892068 120.018462 
L 301.296269 120.018462 
L 301.700471 102.184615 
L 302.104672 115.366154 
L 302.508874 117.692308 
L 303.317276 119.243077 
L 303.721478 119.243077 
L 304.125679 117.692308 
L 305.338283 122.344615 
L 305.742485 116.916923 
L 306.146686 122.344615 
L 306.550887 122.344615 
L 307.35929 120.793846 
L 307.763491 123.12 
L 308.167693 120.793846 
L 308.571894 119.243077 
L 308.976096 121.569231 
L 309.380297 122.344615 
L 309.784498 122.344615 
L 310.1887 116.916923 
L 310.592901 123.12 
L 310.997102 106.061538 
L 311.401304 121.569231 
L 311.805505 122.344615 
L 312.209707 120.018462 
L 312.613908 120.018462 
L 313.018109 120.793846 
L 313.422311 122.344615 
L 313.826512 117.692308 
L 314.230714 121.569231 
L 314.634915 120.018462 
L 315.039116 120.793846 
L 315.443318 105.286154 
L 315.847519 121.569231 
L 316.25172 119.243077 
L 316.655922 123.12 
L 317.060123 123.12 
L 317.464325 122.344615 
L 317.868526 116.916923 
L 318.272727 122.344615 
L 318.676929 117.692308 
L 319.08113 120.018462 
L 319.485331 123.12 
L 319.889533 120.018462 
L 320.697936 120.018462 
L 321.102137 117.692308 
L 321.506338 116.141538 
L 321.91054 120.793846 
L 322.314741 120.793846 
L 322.718942 120.018462 
L 323.123144 121.569231 
L 323.527345 121.569231 
L 323.931547 120.018462 
L 324.335748 117.692308 
L 324.739949 117.692308 
L 325.144151 119.243077 
L 325.548352 122.344615 
L 326.356755 122.344615 
L 326.760956 108.387692 
L 327.165158 75.821538 
L 327.569359 91.329231 
L 327.97356 119.243077 
L 328.377762 121.569231 
L 328.781963 120.018462 
L 329.590366 109.163077 
L 329.994567 118.467692 
L 330.398769 105.286154 
L 330.80297 88.227692 
L 331.207171 120.018462 
L 331.611373 87.452308 
L 332.015574 113.815385 
L 332.419775 122.344615 
L 332.823977 78.147692 
L 333.228178 102.96 
L 333.63238 111.489231 
L 334.036581 73.495385 
L 334.440782 119.243077 
L 334.844984 120.018462 
L 335.249185 102.184615 
L 335.653386 113.04 
L 336.057588 99.858462 
L 336.461789 113.04 
L 336.865991 120.793846 
L 337.270192 56.436923 
L 337.674393 119.243077 
L 338.078595 120.018462 
L 338.482796 120.018462 
L 338.886997 114.590769 
L 339.291199 118.467692 
L 339.6954 107.612308 
L 340.099602 118.467692 
L 340.503803 120.793846 
L 340.908004 102.96 
L 341.312206 102.96 
L 341.716407 114.590769 
L 342.120608 100.633846 
L 342.52481 119.243077 
L 342.929011 120.018462 
L 343.333213 102.96 
L 343.737414 123.12 
L 344.141615 121.569231 
L 344.545817 120.793846 
L 344.950018 119.243077 
L 345.354219 121.569231 
L 345.758421 120.793846 
L 346.162622 119.243077 
L 346.566824 115.366154 
L 346.971025 117.692308 
L 347.375226 110.713846 
L 348.183629 122.344615 
L 348.58783 123.12 
L 348.992032 116.916923 
L 349.800435 121.569231 
L 350.204636 123.12 
L 350.608837 119.243077 
L 351.013039 122.344615 
L 351.41724 119.243077 
L 351.821442 123.12 
L 352.629844 121.569231 
L 353.034046 123.12 
L 353.438247 123.12 
L 353.842448 121.569231 
L 354.650851 120.018462 
L 355.055053 120.018462 
L 355.459254 120.793846 
L 355.863455 120.793846 
L 356.267657 123.12 
L 356.671858 121.569231 
L 357.076059 96.756923 
L 357.480261 120.793846 
L 357.884462 122.344615 
L 358.692865 122.344615 
L 359.097066 118.467692 
L 359.501268 119.243077 
L 359.905469 110.713846 
L 360.30967 121.569231 
L 360.713872 117.692308 
L 361.118073 122.344615 
L 361.522275 123.12 
L 361.926476 120.793846 
L 362.330677 121.569231 
L 362.734879 117.692308 
L 363.13908 119.243077 
L 363.543281 121.569231 
L 363.947483 122.344615 
L 364.351684 121.569231 
L 364.755886 118.467692 
L 365.160087 120.018462 
L 365.564288 119.243077 
L 365.96849 120.793846 
L 366.372691 116.916923 
L 366.776892 118.467692 
L 367.181094 123.12 
L 367.585295 119.243077 
L 367.989497 120.018462 
L 368.393698 111.489231 
L 368.797899 122.344615 
L 369.202101 119.243077 
L 369.606302 119.243077 
L 370.010503 120.018462 
L 370.414705 112.264615 
L 370.818906 99.858462 
L 371.223108 120.018462 
L 371.627309 122.344615 
L 372.03151 117.692308 
L 372.435712 121.569231 
L 372.839913 120.793846 
L 373.244114 120.793846 
L 373.648316 123.12 
L 374.456719 121.569231 
L 374.86092 120.018462 
L 375.265121 122.344615 
L 375.669323 120.018462 
L 376.073524 122.344615 
L 376.477725 120.018462 
L 376.881927 123.12 
L 377.286128 120.018462 
L 377.69033 121.569231 
L 378.094531 121.569231 
L 378.498732 120.018462 
L 378.902934 123.12 
L 379.307135 120.018462 
L 379.711336 121.569231 
L 380.115538 116.916923 
L 380.519739 122.344615 
L 380.923941 116.141538 
L 381.328142 99.858462 
L 381.732343 122.344615 
L 382.136545 123.12 
L 382.540746 121.569231 
L 382.944947 117.692308 
L 383.349149 121.569231 
L 384.157552 123.12 
L 384.561753 116.916923 
L 384.965954 121.569231 
L 385.370156 120.793846 
L 386.178558 108.387692 
L 386.58276 118.467692 
L 386.986961 121.569231 
L 387.391163 121.569231 
L 387.795364 117.692308 
L 388.199565 91.329231 
L 388.603767 110.713846 
L 389.007968 117.692308 
L 389.41217 120.793846 
L 389.816371 120.793846 
L 390.220572 98.307692 
L 390.624774 120.018462 
L 391.028975 122.344615 
L 391.837378 122.344615 
L 392.241579 120.793846 
L 392.645781 120.018462 
L 393.049982 121.569231 
L 393.454183 119.243077 
L 393.858385 120.793846 
L 394.262586 123.12 
L 394.666787 121.569231 
L 395.070989 118.467692 
L 395.47519 121.569231 
L 395.879392 117.692308 
L 396.283593 117.692308 
L 396.687794 119.243077 
L 397.091996 121.569231 
L 397.496197 107.612308 
L 397.900398 120.018462 
L 398.3046 110.713846 
L 398.708801 117.692308 
L 399.113003 119.243077 
L 399.517204 111.489231 
L 399.921405 121.569231 
L 400.729808 114.590769 
L 401.134009 120.018462 
L 401.538211 116.916923 
L 401.942412 110.713846 
L 402.346614 109.938462 
L 402.750815 119.243077 
L 403.155016 105.286154 
L 403.559218 111.489231 
L 403.963419 120.793846 
L 404.36762 109.938462 
L 404.771822 122.344615 
L 405.176023 121.569231 
L 405.580225 114.590769 
L 405.984426 116.916923 
L 406.388627 101.409231 
L 406.792829 114.590769 
L 407.19703 113.815385 
L 407.601231 113.815385 
L 408.005433 115.366154 
L 408.409634 119.243077 
L 408.813836 120.018462 
L 409.218037 117.692308 
L 409.622238 119.243077 
L 410.02644 113.04 
L 410.430641 120.018462 
L 410.834842 115.366154 
L 411.239044 109.163077 
L 411.643245 115.366154 
L 412.047447 116.141538 
L 412.451648 115.366154 
L 412.855849 122.344615 
L 413.260051 117.692308 
L 413.664252 121.569231 
L 414.068453 120.793846 
L 414.472655 113.815385 
L 414.876856 113.04 
L 415.281058 101.409231 
L 415.685259 113.04 
L 416.08946 110.713846 
L 416.493662 118.467692 
L 416.897863 120.018462 
L 417.302064 119.243077 
L 417.706266 119.243077 
L 418.110467 122.344615 
L 418.514669 119.243077 
L 418.91887 109.163077 
L 419.323071 119.243077 
L 420.131474 119.243077 
L 420.535675 122.344615 
L 420.939877 123.12 
L 421.344078 122.344615 
L 421.74828 118.467692 
L 422.152481 106.836923 
L 422.556682 120.018462 
L 422.960884 120.018462 
L 423.365085 123.12 
L 423.769286 123.12 
L 424.173488 98.307692 
L 424.981891 117.692308 
L 425.386092 113.04 
L 426.194495 122.344615 
L 426.598696 121.569231 
L 427.002898 122.344615 
L 427.407099 116.141538 
L 427.8113 122.344615 
L 428.215502 120.793846 
L 428.619703 121.569231 
L 429.023904 123.12 
L 429.428106 100.633846 
L 429.832307 120.018462 
L 430.236509 111.489231 
L 430.64071 111.489231 
L 431.044911 114.590769 
L 431.449113 120.793846 
L 431.853314 121.569231 
L 432.257515 116.141538 
L 432.661717 118.467692 
L 433.065918 117.692308 
L 433.47012 116.141538 
L 433.874321 122.344615 
L 434.278522 120.018462 
L 434.682724 121.569231 
L 435.491126 123.12 
L 437.107932 120.018462 
L 437.916335 105.286154 
L 438.320536 118.467692 
L 438.724737 116.141538 
L 439.128939 122.344615 
L 439.53314 116.141538 
L 439.937342 123.12 
L 440.341543 121.569231 
L 441.149946 120.018462 
L 441.554147 120.793846 
L 441.958348 120.018462 
L 442.36255 118.467692 
L 442.766751 107.612308 
L 443.170953 118.467692 
L 443.575154 117.692308 
L 443.979355 106.061538 
L 444.383557 122.344615 
L 444.787758 114.590769 
L 445.191959 122.344615 
L 445.596161 118.467692 
L 446.000362 121.569231 
L 446.404564 123.12 
L 446.808765 120.793846 
L 447.212966 122.344615 
L 447.617168 120.018462 
L 448.021369 123.12 
L 448.829772 123.12 
L 449.233973 120.018462 
L 449.638175 123.12 
L 450.042376 118.467692 
L 450.446577 123.12 
L 450.850779 122.344615 
L 451.25498 120.018462 
L 451.659181 107.612308 
L 452.063383 123.12 
L 452.467584 123.12 
L 452.871786 112.264615 
L 453.275987 113.04 
L 453.680188 110.713846 
L 454.08439 113.815385 
L 454.488591 122.344615 
L 454.892792 112.264615 
L 455.296994 120.018462 
L 455.701195 121.569231 
L 456.105397 122.344615 
L 456.509598 122.344615 
L 456.913799 123.12 
L 457.318001 122.344615 
L 457.722202 119.243077 
L 458.126403 121.569231 
L 458.934806 123.12 
L 459.339008 123.12 
L 459.743209 117.692308 
L 460.14741 118.467692 
L 460.551612 121.569231 
L 461.360014 121.569231 
L 461.764216 120.793846 
L 462.168417 120.793846 
L 462.572619 116.141538 
L 462.97682 122.344615 
L 463.381021 105.286154 
L 463.785223 118.467692 
L 464.189424 122.344615 
L 464.593625 119.243077 
L 464.997827 120.018462 
L 465.80623 113.04 
L 466.210431 118.467692 
L 466.614632 103.735385 
L 467.018834 123.12 
L 467.423035 117.692308 
L 468.231438 102.96 
L 468.635639 110.713846 
L 469.039841 82.8 
L 469.444042 116.141538 
L 469.848243 123.12 
L 470.252445 93.655385 
L 470.656646 113.04 
L 471.060848 109.163077 
L 471.465049 110.713846 
L 471.86925 117.692308 
L 472.273452 113.815385 
L 472.677653 122.344615 
L 473.081854 106.836923 
L 473.486056 112.264615 
L 473.890257 112.264615 
L 474.294459 107.612308 
L 474.69866 108.387692 
L 475.102861 121.569231 
L 475.507063 123.12 
L 475.911264 92.104615 
L 476.315465 22.32 
L 476.719667 102.184615 
L 477.123868 106.836923 
L 477.52807 106.061538 
L 477.932271 120.018462 
L 478.336472 120.793846 
L 478.740674 92.88 
L 479.144875 73.495385 
L 479.549076 110.713846 
L 479.953278 108.387692 
L 480.357479 103.735385 
L 480.761681 120.018462 
L 481.165882 123.12 
L 481.570083 85.901538 
L 482.378486 90.553846 
L 483.186889 120.018462 
L 483.59109 121.569231 
L 483.995292 122.344615 
L 484.399493 117.692308 
L 484.803694 106.836923 
L 485.207896 113.04 
L 485.612097 90.553846 
L 486.016298 92.88 
L 486.4205 121.569231 
L 486.824701 120.018462 
L 487.228903 101.409231 
L 487.633104 115.366154 
L 488.037305 96.756923 
L 488.441507 116.141538 
L 488.845708 123.12 
L 489.249909 123.12 
L 489.654111 116.141538 
L 490.058312 105.286154 
L 490.462514 118.467692 
L 490.866715 118.467692 
L 491.270916 121.569231 
L 491.675118 123.12 
L 492.079319 123.12 
L 492.48352 121.569231 
L 492.887722 113.815385 
L 493.291923 120.793846 
L 493.696125 123.12 
L 494.100326 99.083077 
L 494.504527 117.692308 
L 494.908729 116.141538 
L 495.31293 95.981538 
L 495.717131 114.590769 
L 496.121333 122.344615 
L 496.525534 120.793846 
L 496.929736 123.12 
L 497.333937 121.569231 
L 497.738138 100.633846 
L 498.14234 98.307692 
L 498.546541 115.366154 
L 498.950742 109.938462 
L 499.354944 116.916923 
L 499.759145 106.836923 
L 500.163347 120.793846 
L 500.567548 114.590769 
L 500.971749 121.569231 
L 501.375951 120.793846 
L 501.780152 121.569231 
L 502.184353 123.12 
L 502.588555 105.286154 
L 502.992756 111.489231 
L 503.396958 120.793846 
L 503.801159 122.344615 
L 505.013763 122.344615 
L 505.417965 119.243077 
L 505.822166 94.430769 
L 506.226367 118.467692 
L 506.630569 111.489231 
L 507.03477 118.467692 
L 507.438971 120.018462 
L 507.843173 120.793846 
L 508.247374 119.243077 
L 508.651576 121.569231 
L 509.055777 122.344615 
L 509.459978 120.018462 
L 509.86418 122.344615 
L 510.268381 109.938462 
L 510.672582 119.243077 
L 511.076784 117.692308 
L 511.480985 120.793846 
L 511.885187 95.981538 
L 512.289388 120.018462 
L 512.693589 120.793846 
L 513.097791 119.243077 
L 513.501992 120.793846 
L 513.906193 119.243077 
L 514.310395 97.532308 
L 514.714596 116.141538 
L 515.118798 118.467692 
L 515.522999 120.018462 
L 515.9272 116.141538 
L 516.331402 120.018462 
L 516.735603 120.018462 
L 517.139804 120.793846 
L 517.544006 119.243077 
L 517.948207 119.243077 
L 518.352409 120.793846 
L 518.75661 119.243077 
L 519.160811 119.243077 
L 519.565013 120.018462 
L 519.969214 108.387692 
L 520.373415 113.815385 
L 520.777617 122.344615 
L 521.181818 121.569231 
L 521.58602 120.018462 
L 521.990221 121.569231 
L 522.394422 120.018462 
L 522.798624 121.569231 
L 523.202825 116.141538 
L 523.607026 115.366154 
L 524.011228 109.938462 
L 524.415429 119.243077 
L 524.819631 120.793846 
L 525.628033 115.366154 
L 526.032235 118.467692 
L 526.436436 119.243077 
L 526.840637 121.569231 
L 527.244839 121.569231 
L 527.64904 116.141538 
L 528.053242 92.104615 
L 528.457443 117.692308 
L 528.861644 117.692308 
L 529.265846 115.366154 
L 529.670047 120.793846 
L 530.074248 120.793846 
L 530.47845 117.692308 
L 530.882651 120.793846 
L 531.286853 81.249231 
L 531.691054 120.793846 
L 532.095255 122.344615 
L 532.499457 121.569231 
L 532.903658 121.569231 
L 533.307859 102.96 
L 533.712061 113.815385 
L 534.116262 120.018462 
L 534.520464 121.569231 
L 534.924665 122.344615 
L 535.328866 112.264615 
L 535.733068 119.243077 
L 536.137269 122.344615 
L 536.54147 106.836923 
L 536.945672 115.366154 
L 537.349873 119.243077 
L 537.754075 98.307692 
L 538.158276 122.344615 
L 538.562477 123.12 
L 538.966679 120.793846 
L 539.775081 122.344615 
L 540.179283 119.243077 
L 540.583484 118.467692 
L 540.987686 120.793846 
L 541.391887 122.344615 
L 541.796088 121.569231 
L 542.20029 122.344615 
L 542.604491 122.344615 
L 543.008693 123.12 
L 543.412894 123.12 
L 543.817095 120.018462 
L 544.221297 65.741538 
L 544.625498 110.713846 
L 545.029699 112.264615 
L 545.433901 116.141538 
L 545.838102 106.836923 
L 546.242304 112.264615 
L 546.646505 112.264615 
L 547.050706 104.510769 
L 547.454908 117.692308 
L 547.859109 105.286154 
L 548.26331 120.793846 
L 548.667512 116.916923 
L 549.071713 115.366154 
L 549.475915 120.793846 
L 549.880116 119.243077 
L 550.284317 116.916923 
L 550.688519 120.018462 
L 551.09272 120.793846 
L 551.496921 104.510769 
L 551.901123 117.692308 
L 552.305324 105.286154 
L 552.709526 116.916923 
L 553.113727 107.612308 
L 553.517928 117.692308 
L 553.92213 118.467692 
L 554.326331 108.387692 
L 554.730532 109.163077 
L 555.134734 117.692308 
L 555.538935 120.793846 
L 555.943137 116.916923 
L 556.347338 117.692308 
L 556.751539 123.12 
L 557.155741 117.692308 
L 557.559942 96.756923 
L 557.964143 116.141538 
L 558.368345 118.467692 
L 558.772546 114.590769 
L 559.176748 117.692308 
L 559.580949 119.243077 
L 559.98515 108.387692 
L 560.389352 118.467692 
L 560.793553 107.612308 
L 561.197754 116.141538 
L 561.601956 117.692308 
L 562.006157 107.612308 
L 562.410359 117.692308 
L 562.81456 95.206154 
L 563.218761 102.96 
L 563.622963 116.141538 
L 564.431365 117.692308 
L 564.835567 95.206154 
L 565.239768 89.003077 
L 565.64397 110.713846 
L 566.048171 120.793846 
L 566.856574 119.243077 
L 567.260775 114.590769 
L 567.664976 111.489231 
L 568.069178 110.713846 
L 568.473379 34.726154 
L 568.877581 89.003077 
L 569.281782 113.04 
L 570.090185 120.018462 
L 570.494386 109.163077 
L 570.898587 106.061538 
L 571.302789 100.633846 
L 571.70699 117.692308 
L 572.111192 119.243077 
L 572.515393 116.916923 
L 572.919594 113.04 
L 573.323796 111.489231 
L 573.727997 114.590769 
L 574.5364 89.003077 
L 574.940601 120.793846 
L 575.344803 122.344615 
L 575.749004 113.04 
L 576.153205 120.018462 
L 576.557407 107.612308 
L 576.961608 120.018462 
L 577.365809 115.366154 
L 577.770011 119.243077 
L 578.174212 121.569231 
L 578.578414 113.815385 
L 578.982615 121.569231 
L 579.386816 120.018462 
L 579.791018 116.141538 
L 580.59942 123.12 
L 581.003622 122.344615 
L 581.407823 112.264615 
L 581.812025 120.018462 
L 582.216226 116.916923 
L 582.620427 118.467692 
L 583.024629 116.141538 
L 583.42883 117.692308 
L 583.833032 103.735385 
L 584.237233 120.018462 
L 584.641434 115.366154 
L 585.045636 120.018462 
L 585.449837 120.793846 
L 585.854038 119.243077 
L 586.25824 105.286154 
L 586.662441 123.12 
L 587.066643 109.938462 
L 587.470844 123.12 
L 587.875045 110.713846 
L 588.279247 52.56 
L 588.683448 105.286154 
L 589.087649 120.793846 
L 589.491851 110.713846 
L 589.896052 115.366154 
L 590.300254 116.916923 
L 590.704455 120.793846 
L 591.108656 119.243077 
L 591.512858 73.495385 
L 591.917059 117.692308 
L 592.32126 113.815385 
L 592.725462 118.467692 
L 593.129663 113.04 
L 593.533865 122.344615 
L 593.938066 117.692308 
L 594.342267 114.590769 
L 594.746469 117.692308 
L 595.554871 113.04 
L 595.959073 121.569231 
L 596.363274 123.12 
L 596.767476 122.344615 
L 597.171677 120.793846 
L 597.575878 92.104615 
L 597.98008 114.590769 
L 598.384281 117.692308 
L 598.788482 119.243077 
L 599.192684 87.452308 
L 599.596885 114.590769 
L 600.001087 94.430769 
L 600.405288 120.018462 
L 600.809489 113.815385 
L 601.213691 111.489231 
L 601.617892 119.243077 
L 602.022093 120.793846 
L 602.426295 85.901538 
L 602.830496 122.344615 
L 603.234698 98.307692 
L 603.638899 89.003077 
L 604.0431 122.344615 
L 604.447302 113.815385 
L 604.851503 116.916923 
L 605.659906 96.756923 
L 606.064107 118.467692 
L 606.468309 102.96 
L 606.87251 113.815385 
L 607.276711 116.141538 
L 607.680913 95.206154 
L 608.085114 119.243077 
L 608.489315 120.793846 
L 609.70192 97.532308 
L 610.510322 120.793846 
L 610.914524 109.163077 
L 611.318725 122.344615 
L 611.722926 116.916923 
L 612.127128 104.510769 
L 612.531329 84.350769 
L 612.935531 91.329231 
L 613.339732 92.88 
L 613.743933 120.793846 
L 614.148135 120.793846 
L 614.552336 86.676923 
L 614.956537 105.286154 
L 615.360739 107.612308 
L 615.76494 122.344615 
L 616.169142 118.467692 
L 616.573343 101.409231 
L 616.977544 100.633846 
L 617.381746 100.633846 
L 617.785947 113.04 
L 618.190148 106.061538 
L 618.59435 115.366154 
L 618.998551 105.286154 
L 619.402753 119.243077 
L 619.806954 120.793846 
L 620.211155 121.569231 
L 620.615357 119.243077 
L 621.019558 113.815385 
L 621.42376 113.815385 
L 622.232162 120.018462 
L 622.636364 121.569231 
L 622.636364 121.569231 
" clip-path="url(#pd02e919114)" style="fill: none; stroke: #1f77b4; stroke-width: 1.5; stroke-linecap: square"/>
   </g>
   <g id="patch_3">
    <path d="M 90 128.16 
L 90 17.28 
" style="fill: none; stroke: #000000; stroke-width: 0.8; stroke-linejoin: miter; stroke-linecap: square"/>
   </g>
   <g id="patch_4">
    <path d="M 648 128.16 
L 648 17.28 
" style="fill: none; stroke: #000000; stroke-width: 0.8; stroke-linejoin: miter; stroke-linecap: square"/>
   </g>
   <g id="patch_5">
    <path d="M 90 128.16 
L 648 128.16 
" style="fill: none; stroke: #000000; stroke-width: 0.8; stroke-linejoin: miter; stroke-linecap: square"/>
   </g>
   <g id="patch_6">
    <path d="M 90 17.28 
L 648 17.28 
" style="fill: none; stroke: #000000; stroke-width: 0.8; stroke-linejoin: miter; stroke-linecap: square"/>
   </g>
   <g id="legend_1">
    <g id="patch_7">
     <path d="M 97 39.958125 
L 264.190625 39.958125 
Q 266.190625 39.958125 266.190625 37.958125 
L 266.190625 24.28 
Q 266.190625 22.28 264.190625 22.28 
L 97 22.28 
Q 95 22.28 95 24.28 
L 95 37.958125 
Q 95 39.958125 97 39.958125 
z
" style="fill: #ffffff; opacity: 0.8; stroke: #cccccc; stroke-linejoin: miter"/>
    </g>
    <g id="line2d_12">
     <path d="M 99 30.378437 
L 109 30.378437 
L 119 30.378437 
" style="fill: none; stroke: #1f77b4; stroke-width: 1.5; stroke-linecap: square"/>
    </g>
    <g id="text_12">
     <!-- Number of PyPI Downloads -->
     <g transform="translate(127 33.878437) scale(0.1 -0.1)">
      <defs>
       <path id="DejaVuSans-4e" d="M 628 4666 
L 1478 4666 
L 3547 763 
L 3547 4666 
L 4159 4666 
L 4159 0 
L 3309 0 
L 1241 3903 
L 1241 0 
L 628 0 
L 628 4666 
z
" transform="scale(0.015625)"/>
       <path id="DejaVuSans-75" d="M 544 1381 
L 544 3500 
L 1119 3500 
L 1119 1403 
Q 1119 906 1312 657 
Q 1506 409 1894 409 
Q 2359 409 2629 706 
Q 2900 1003 2900 1516 
L 2900 3500 
L 3475 3500 
L 3475 0 
L 2900 0 
L 2900 538 
Q 2691 219 2414 64 
Q 2138 -91 1772 -91 
Q 1169 -91 856 284 
Q 544 659 544 1381 
z
M 1991 3584 
L 1991 3584 
z
" transform="scale(0.015625)"/>
       <path id="DejaVuSans-6d" d="M 3328 2828 
Q 3544 3216 3844 3400 
Q 4144 3584 4550 3584 
Q 5097 3584 5394 3201 
Q 5691 2819 5691 2113 
L 5691 0 
L 5113 0 
L 5113 2094 
Q 5113 2597 4934 2840 
Q 4756 3084 4391 3084 
Q 3944 3084 3684 2787 
Q 3425 2491 3425 1978 
L 3425 0 
L 2847 0 
L 2847 2094 
Q 2847 2600 2669 2842 
Q 2491 3084 2119 3084 
Q 1678 3084 1418 2786 
Q 1159 2488 1159 1978 
L 1159 0 
L 581 0 
L 581 3500 
L 1159 3500 
L 1159 2956 
Q 1356 3278 1631 3431 
Q 1906 3584 2284 3584 
Q 2666 3584 2933 3390 
Q 3200 3197 3328 2828 
z
" transform="scale(0.015625)"/>
       <path id="DejaVuSans-62" d="M 3116 1747 
Q 3116 2381 2855 2742 
Q 2594 3103 2138 3103 
Q 1681 3103 1420 2742 
Q 1159 2381 1159 1747 
Q 1159 1113 1420 752 
Q 1681 391 2138 391 
Q 2594 391 2855 752 
Q 3116 1113 3116 1747 
z
M 1159 2969 
Q 1341 3281 1617 3432 
Q 1894 3584 2278 3584 
Q 2916 3584 3314 3078 
Q 3713 2572 3713 1747 
Q 3713 922 3314 415 
Q 2916 -91 2278 -91 
Q 1894 -91 1617 61 
Q 1341 213 1159 525 
L 1159 0 
L 581 0 
L 581 4863 
L 1159 4863 
L 1159 2969 
z
" transform="scale(0.015625)"/>
       <path id="DejaVuSans-72" d="M 2631 2963 
Q 2534 3019 2420 3045 
Q 2306 3072 2169 3072 
Q 1681 3072 1420 2755 
Q 1159 2438 1159 1844 
L 1159 0 
L 581 0 
L 581 3500 
L 1159 3500 
L 1159 2956 
Q 1341 3275 1631 3429 
Q 1922 3584 2338 3584 
Q 2397 3584 2469 3576 
Q 2541 3569 2628 3553 
L 2631 2963 
z
" transform="scale(0.015625)"/>
       <path id="DejaVuSans-20" transform="scale(0.015625)"/>
       <path id="DejaVuSans-6f" d="M 1959 3097 
Q 1497 3097 1228 2736 
Q 959 2375 959 1747 
Q 959 1119 1226 758 
Q 1494 397 1959 397 
Q 2419 397 2687 759 
Q 2956 1122 2956 1747 
Q 2956 2369 2687 2733 
Q 2419 3097 1959 3097 
z
M 1959 3584 
Q 2709 3584 3137 3096 
Q 3566 2609 3566 1747 
Q 3566 888 3137 398 
Q 2709 -91 1959 -91 
Q 1206 -91 779 398 
Q 353 888 353 1747 
Q 353 2609 779 3096 
Q 1206 3584 1959 3584 
z
" transform="scale(0.015625)"/>
       <path id="DejaVuSans-66" d="M 2375 4863 
L 2375 4384 
L 1825 4384 
Q 1516 4384 1395 4259 
Q 1275 4134 1275 3809 
L 1275 3500 
L 2222 3500 
L 2222 3053 
L 1275 3053 
L 1275 0 
L 697 0 
L 697 3053 
L 147 3053 
L 147 3500 
L 697 3500 
L 697 3744 
Q 697 4328 969 4595 
Q 1241 4863 1831 4863 
L 2375 4863 
z
" transform="scale(0.015625)"/>
       <path id="DejaVuSans-50" d="M 1259 4147 
L 1259 2394 
L 2053 2394 
Q 2494 2394 2734 2622 
Q 2975 2850 2975 3272 
Q 2975 3691 2734 3919 
Q 2494 4147 2053 4147 
L 1259 4147 
z
M 628 4666 
L 2053 4666 
Q 2838 4666 3239 4311 
Q 3641 3956 3641 3272 
Q 3641 2581 3239 2228 
Q 2838 1875 2053 1875 
L 1259 1875 
L 1259 0 
L 628 0 
L 628 4666 
z
" transform="scale(0.015625)"/>
       <path id="DejaVuSans-79" d="M 2059 -325 
Q 1816 -950 1584 -1140 
Q 1353 -1331 966 -1331 
L 506 -1331 
L 506 -850 
L 844 -850 
Q 1081 -850 1212 -737 
Q 1344 -625 1503 -206 
L 1606 56 
L 191 3500 
L 800 3500 
L 1894 763 
L 2988 3500 
L 3597 3500 
L 2059 -325 
z
" transform="scale(0.015625)"/>
       <path id="DejaVuSans-49" d="M 628 4666 
L 1259 4666 
L 1259 0 
L 628 0 
L 628 4666 
z
" transform="scale(0.015625)"/>
       <path id="DejaVuSans-44" d="M 1259 4147 
L 1259 519 
L 2022 519 
Q 2988 519 3436 956 
Q 3884 1394 3884 2338 
Q 3884 3275 3436 3711 
Q 2988 4147 2022 4147 
L 1259 4147 
z
M 628 4666 
L 1925 4666 
Q 3281 4666 3915 4102 
Q 4550 3538 4550 2338 
Q 4550 1131 3912 565 
Q 3275 0 1925 0 
L 628 0 
L 628 4666 
z
" transform="scale(0.015625)"/>
       <path id="DejaVuSans-77" d="M 269 3500 
L 844 3500 
L 1563 769 
L 2278 3500 
L 2956 3500 
L 3675 769 
L 4391 3500 
L 4966 3500 
L 4050 0 
L 3372 0 
L 2619 2869 
L 1863 0 
L 1184 0 
L 269 3500 
z
" transform="scale(0.015625)"/>
       <path id="DejaVuSans-6e" d="M 3513 2113 
L 3513 0 
L 2938 0 
L 2938 2094 
Q 2938 2591 2744 2837 
Q 2550 3084 2163 3084 
Q 1697 3084 1428 2787 
Q 1159 2491 1159 1978 
L 1159 0 
L 581 0 
L 581 3500 
L 1159 3500 
L 1159 2956 
Q 1366 3272 1645 3428 
Q 1925 3584 2291 3584 
Q 2894 3584 3203 3211 
Q 3513 2838 3513 2113 
z
" transform="scale(0.015625)"/>
       <path id="DejaVuSans-6c" d="M 603 4863 
L 1178 4863 
L 1178 0 
L 603 0 
L 603 4863 
z
" transform="scale(0.015625)"/>
       <path id="DejaVuSans-73" d="M 2834 3397 
L 2834 2853 
Q 2591 2978 2328 3040 
Q 2066 3103 1784 3103 
Q 1356 3103 1142 2972 
Q 928 2841 928 2578 
Q 928 2378 1081 2264 
Q 1234 2150 1697 2047 
L 1894 2003 
Q 2506 1872 2764 1633 
Q 3022 1394 3022 966 
Q 3022 478 2636 193 
Q 2250 -91 1575 -91 
Q 1294 -91 989 -36 
Q 684 19 347 128 
L 347 722 
Q 666 556 975 473 
Q 1284 391 1588 391 
Q 1994 391 2212 530 
Q 2431 669 2431 922 
Q 2431 1156 2273 1281 
Q 2116 1406 1581 1522 
L 1381 1569 
Q 847 1681 609 1914 
Q 372 2147 372 2553 
Q 372 3047 722 3315 
Q 1072 3584 1716 3584 
Q 2034 3584 2315 3537 
Q 2597 3491 2834 3397 
z
" transform="scale(0.015625)"/>
      </defs>
      <use xlink:href="#DejaVuSans-4e"/>
      <use xlink:href="#DejaVuSans-75" x="74.804688"/>
      <use xlink:href="#DejaVuSans-6d" x="138.183594"/>
      <use xlink:href="#DejaVuSans-62" x="235.595703"/>
      <use xlink:href="#DejaVuSans-65" x="299.072266"/>
      <use xlink:href="#DejaVuSans-72" x="360.595703"/>
      <use xlink:href="#DejaVuSans-20" x="401.708984"/>
      <use xlink:href="#DejaVuSans-6f" x="433.496094"/>
      <use xlink:href="#DejaVuSans-66" x="494.677734"/>
      <use xlink:href="#DejaVuSans-20" x="529.882812"/>
      <use xlink:href="#DejaVuSans-50" x="561.669922"/>
      <use xlink:href="#DejaVuSans-79" x="621.972656"/>
      <use xlink:href="#DejaVuSans-50" x="681.152344"/>
      <use xlink:href="#DejaVuSans-49" x="741.455078"/>
      <use xlink:href="#DejaVuSans-20" x="770.947266"/>
      <use xlink:href="#DejaVuSans-44" x="802.734375"/>
      <use xlink:href="#DejaVuSans-6f" x="879.736328"/>
      <use xlink:href="#DejaVuSans-77" x="940.917969"/>
      <use xlink:href="#DejaVuSans-6e" x="1022.705078"/>
      <use xlink:href="#DejaVuSans-6c" x="1086.083984"/>
      <use xlink:href="#DejaVuSans-6f" x="1113.867188"/>
      <use xlink:href="#DejaVuSans-61" x="1175.048828"/>
      <use xlink:href="#DejaVuSans-64" x="1236.328125"/>
      <use xlink:href="#DejaVuSans-73" x="1299.804688"/>
     </g>
    </g>
   </g>
  </g>
 </g>
 <defs>
  <clipPath id="pd02e919114">
   <rect x="90" y="17.28" width="558" height="110.88"/>
  </clipPath>
 </defs>
</svg>
