<?xml version="1.0" encoding="utf-8" standalone="no"?>
<!DOCTYPE svg PUBLIC "-//W3C//DTD SVG 1.1//EN"
  "http://www.w3.org/Graphics/SVG/1.1/DTD/svg11.dtd">
<svg xmlns:xlink="http://www.w3.org/1999/xlink" width="720pt" height="144pt" viewBox="0 0 720 144" xmlns="http://www.w3.org/2000/svg" version="1.1">
 <metadata>
  <rdf:RDF xmlns:dc="http://purl.org/dc/elements/1.1/" xmlns:cc="http://creativecommons.org/ns#" xmlns:rdf="http://www.w3.org/1999/02/22-rdf-syntax-ns#">
   <cc:Work>
    <dc:type rdf:resource="http://purl.org/dc/dcmitype/StillImage"/>
    <dc:date>2023-03-01T20:56:59.327029</dc:date>
    <dc:format>image/svg+xml</dc:format>
    <dc:creator>
     <cc:Agent>
      <dc:title>Matplotlib v3.7.0, https://matplotlib.org/</dc:title>
     </cc:Agent>
    </dc:creator>
   </cc:Work>
  </rdf:RDF>
 </metadata>
 <defs>
  <style type="text/css">*{stroke-linejoin: round; stroke-linecap: butt}</style>
 </defs>
 <g id="figure_1">
  <g id="patch_1">
   <path d="M 0 144 
L 720 144 
L 720 0 
L 0 0 
z
" style="fill: #ffffff"/>
  </g>
  <g id="axes_1">
   <g id="patch_2">
    <path d="M 90 128.16 
L 648 128.16 
L 648 17.28 
L 90 17.28 
z
" style="fill: #ffffff"/>
   </g>
   <g id="matplotlib.axis_1">
    <g id="xtick_1">
     <g id="line2d_1">
      <defs>
       <path id="m64064bbb1d" d="M 0 0 
L 0 3.5 
" style="stroke: #000000; stroke-width: 0.8"/>
      </defs>
      <g>
       <use xlink:href="#m64064bbb1d" x="115.363636" y="128.16" style="stroke: #000000; stroke-width: 0.8"/>
      </g>
     </g>
     <g id="text_1">
      <!-- 2020-06-18 -->
      <g transform="translate(86.305824 142.758438) scale(0.1 -0.1)">
       <defs>
        <path id="DejaVuSans-32" d="M 1228 531 
L 3431 531 
L 3431 0 
L 469 0 
L 469 531 
Q 828 903 1448 1529 
Q 2069 2156 2228 2338 
Q 2531 2678 2651 2914 
Q 2772 3150 2772 3378 
Q 2772 3750 2511 3984 
Q 2250 4219 1831 4219 
Q 1534 4219 1204 4116 
Q 875 4013 500 3803 
L 500 4441 
Q 881 4594 1212 4672 
Q 1544 4750 1819 4750 
Q 2544 4750 2975 4387 
Q 3406 4025 3406 3419 
Q 3406 3131 3298 2873 
Q 3191 2616 2906 2266 
Q 2828 2175 2409 1742 
Q 1991 1309 1228 531 
z
" transform="scale(0.015625)"/>
        <path id="DejaVuSans-30" d="M 2034 4250 
Q 1547 4250 1301 3770 
Q 1056 3291 1056 2328 
Q 1056 1369 1301 889 
Q 1547 409 2034 409 
Q 2525 409 2770 889 
Q 3016 1369 3016 2328 
Q 3016 3291 2770 3770 
Q 2525 4250 2034 4250 
z
M 2034 4750 
Q 2819 4750 3233 4129 
Q 3647 3509 3647 2328 
Q 3647 1150 3233 529 
Q 2819 -91 2034 -91 
Q 1250 -91 836 529 
Q 422 1150 422 2328 
Q 422 3509 836 4129 
Q 1250 4750 2034 4750 
z
" transform="scale(0.015625)"/>
        <path id="DejaVuSans-2d" d="M 313 2009 
L 1997 2009 
L 1997 1497 
L 313 1497 
L 313 2009 
z
" transform="scale(0.015625)"/>
        <path id="DejaVuSans-36" d="M 2113 2584 
Q 1688 2584 1439 2293 
Q 1191 2003 1191 1497 
Q 1191 994 1439 701 
Q 1688 409 2113 409 
Q 2538 409 2786 701 
Q 3034 994 3034 1497 
Q 3034 2003 2786 2293 
Q 2538 2584 2113 2584 
z
M 3366 4563 
L 3366 3988 
Q 3128 4100 2886 4159 
Q 2644 4219 2406 4219 
Q 1781 4219 1451 3797 
Q 1122 3375 1075 2522 
Q 1259 2794 1537 2939 
Q 1816 3084 2150 3084 
Q 2853 3084 3261 2657 
Q 3669 2231 3669 1497 
Q 3669 778 3244 343 
Q 2819 -91 2113 -91 
Q 1303 -91 875 529 
Q 447 1150 447 2328 
Q 447 3434 972 4092 
Q 1497 4750 2381 4750 
Q 2619 4750 2861 4703 
Q 3103 4656 3366 4563 
z
" transform="scale(0.015625)"/>
        <path id="DejaVuSans-31" d="M 794 531 
L 1825 531 
L 1825 4091 
L 703 3866 
L 703 4441 
L 1819 4666 
L 2450 4666 
L 2450 531 
L 3481 531 
L 3481 0 
L 794 0 
L 794 531 
z
" transform="scale(0.015625)"/>
        <path id="DejaVuSans-38" d="M 2034 2216 
Q 1584 2216 1326 1975 
Q 1069 1734 1069 1313 
Q 1069 891 1326 650 
Q 1584 409 2034 409 
Q 2484 409 2743 651 
Q 3003 894 3003 1313 
Q 3003 1734 2745 1975 
Q 2488 2216 2034 2216 
z
M 1403 2484 
Q 997 2584 770 2862 
Q 544 3141 544 3541 
Q 544 4100 942 4425 
Q 1341 4750 2034 4750 
Q 2731 4750 3128 4425 
Q 3525 4100 3525 3541 
Q 3525 3141 3298 2862 
Q 3072 2584 2669 2484 
Q 3125 2378 3379 2068 
Q 3634 1759 3634 1313 
Q 3634 634 3220 271 
Q 2806 -91 2034 -91 
Q 1263 -91 848 271 
Q 434 634 434 1313 
Q 434 1759 690 2068 
Q 947 2378 1403 2484 
z
M 1172 3481 
Q 1172 3119 1398 2916 
Q 1625 2713 2034 2713 
Q 2441 2713 2670 2916 
Q 2900 3119 2900 3481 
Q 2900 3844 2670 4047 
Q 2441 4250 2034 4250 
Q 1625 4250 1398 4047 
Q 1172 3844 1172 3481 
z
" transform="scale(0.015625)"/>
       </defs>
       <use xlink:href="#DejaVuSans-32"/>
       <use xlink:href="#DejaVuSans-30" x="63.623047"/>
       <use xlink:href="#DejaVuSans-32" x="127.246094"/>
       <use xlink:href="#DejaVuSans-30" x="190.869141"/>
       <use xlink:href="#DejaVuSans-2d" x="254.492188"/>
       <use xlink:href="#DejaVuSans-30" x="290.576172"/>
       <use xlink:href="#DejaVuSans-36" x="354.199219"/>
       <use xlink:href="#DejaVuSans-2d" x="417.822266"/>
       <use xlink:href="#DejaVuSans-31" x="453.90625"/>
       <use xlink:href="#DejaVuSans-38" x="517.529297"/>
      </g>
     </g>
    </g>
    <g id="xtick_2">
     <g id="line2d_2">
      <g>
       <use xlink:href="#m64064bbb1d" x="231.57732" y="128.16" style="stroke: #000000; stroke-width: 0.8"/>
      </g>
     </g>
     <g id="text_2">
      <!-- 2021-03-13 -->
      <g transform="translate(202.519507 142.758438) scale(0.1 -0.1)">
       <defs>
        <path id="DejaVuSans-33" d="M 2597 2516 
Q 3050 2419 3304 2112 
Q 3559 1806 3559 1356 
Q 3559 666 3084 287 
Q 2609 -91 1734 -91 
Q 1441 -91 1130 -33 
Q 819 25 488 141 
L 488 750 
Q 750 597 1062 519 
Q 1375 441 1716 441 
Q 2309 441 2620 675 
Q 2931 909 2931 1356 
Q 2931 1769 2642 2001 
Q 2353 2234 1838 2234 
L 1294 2234 
L 1294 2753 
L 1863 2753 
Q 2328 2753 2575 2939 
Q 2822 3125 2822 3475 
Q 2822 3834 2567 4026 
Q 2313 4219 1838 4219 
Q 1578 4219 1281 4162 
Q 984 4106 628 3988 
L 628 4550 
Q 988 4650 1302 4700 
Q 1616 4750 1894 4750 
Q 2613 4750 3031 4423 
Q 3450 4097 3450 3541 
Q 3450 3153 3228 2886 
Q 3006 2619 2597 2516 
z
" transform="scale(0.015625)"/>
       </defs>
       <use xlink:href="#DejaVuSans-32"/>
       <use xlink:href="#DejaVuSans-30" x="63.623047"/>
       <use xlink:href="#DejaVuSans-32" x="127.246094"/>
       <use xlink:href="#DejaVuSans-31" x="190.869141"/>
       <use xlink:href="#DejaVuSans-2d" x="254.492188"/>
       <use xlink:href="#DejaVuSans-30" x="290.576172"/>
       <use xlink:href="#DejaVuSans-33" x="354.199219"/>
       <use xlink:href="#DejaVuSans-2d" x="417.822266"/>
       <use xlink:href="#DejaVuSans-31" x="453.90625"/>
       <use xlink:href="#DejaVuSans-33" x="517.529297"/>
      </g>
     </g>
    </g>
    <g id="xtick_3">
     <g id="line2d_3">
      <g>
       <use xlink:href="#m64064bbb1d" x="347.791003" y="128.16" style="stroke: #000000; stroke-width: 0.8"/>
      </g>
     </g>
     <g id="text_3">
      <!-- 2021-10-16 -->
      <g transform="translate(318.73319 142.758438) scale(0.1 -0.1)">
       <use xlink:href="#DejaVuSans-32"/>
       <use xlink:href="#DejaVuSans-30" x="63.623047"/>
       <use xlink:href="#DejaVuSans-32" x="127.246094"/>
       <use xlink:href="#DejaVuSans-31" x="190.869141"/>
       <use xlink:href="#DejaVuSans-2d" x="254.492188"/>
       <use xlink:href="#DejaVuSans-31" x="290.576172"/>
       <use xlink:href="#DejaVuSans-30" x="354.199219"/>
       <use xlink:href="#DejaVuSans-2d" x="417.822266"/>
       <use xlink:href="#DejaVuSans-31" x="453.90625"/>
       <use xlink:href="#DejaVuSans-36" x="517.529297"/>
      </g>
     </g>
    </g>
    <g id="xtick_4">
     <g id="line2d_4">
      <g>
       <use xlink:href="#m64064bbb1d" x="464.004686" y="128.16" style="stroke: #000000; stroke-width: 0.8"/>
      </g>
     </g>
     <g id="text_4">
      <!-- 2022-05-12 -->
      <g transform="translate(434.946874 142.758438) scale(0.1 -0.1)">
       <defs>
        <path id="DejaVuSans-35" d="M 691 4666 
L 3169 4666 
L 3169 4134 
L 1269 4134 
L 1269 2991 
Q 1406 3038 1543 3061 
Q 1681 3084 1819 3084 
Q 2600 3084 3056 2656 
Q 3513 2228 3513 1497 
Q 3513 744 3044 326 
Q 2575 -91 1722 -91 
Q 1428 -91 1123 -41 
Q 819 9 494 109 
L 494 744 
Q 775 591 1075 516 
Q 1375 441 1709 441 
Q 2250 441 2565 725 
Q 2881 1009 2881 1497 
Q 2881 1984 2565 2268 
Q 2250 2553 1709 2553 
Q 1456 2553 1204 2497 
Q 953 2441 691 2322 
L 691 4666 
z
" transform="scale(0.015625)"/>
       </defs>
       <use xlink:href="#DejaVuSans-32"/>
       <use xlink:href="#DejaVuSans-30" x="63.623047"/>
       <use xlink:href="#DejaVuSans-32" x="127.246094"/>
       <use xlink:href="#DejaVuSans-32" x="190.869141"/>
       <use xlink:href="#DejaVuSans-2d" x="254.492188"/>
       <use xlink:href="#DejaVuSans-30" x="290.576172"/>
       <use xlink:href="#DejaVuSans-35" x="354.199219"/>
       <use xlink:href="#DejaVuSans-2d" x="417.822266"/>
       <use xlink:href="#DejaVuSans-31" x="453.90625"/>
       <use xlink:href="#DejaVuSans-32" x="517.529297"/>
      </g>
     </g>
    </g>
    <g id="xtick_5">
     <g id="line2d_5">
      <g>
       <use xlink:href="#m64064bbb1d" x="580.218369" y="128.16" style="stroke: #000000; stroke-width: 0.8"/>
      </g>
     </g>
     <g id="text_5">
      <!-- 2022-12-07 -->
      <g transform="translate(551.160557 142.758438) scale(0.1 -0.1)">
       <defs>
        <path id="DejaVuSans-37" d="M 525 4666 
L 3525 4666 
L 3525 4397 
L 1831 0 
L 1172 0 
L 2766 4134 
L 525 4134 
L 525 4666 
z
" transform="scale(0.015625)"/>
       </defs>
       <use xlink:href="#DejaVuSans-32"/>
       <use xlink:href="#DejaVuSans-30" x="63.623047"/>
       <use xlink:href="#DejaVuSans-32" x="127.246094"/>
       <use xlink:href="#DejaVuSans-32" x="190.869141"/>
       <use xlink:href="#DejaVuSans-2d" x="254.492188"/>
       <use xlink:href="#DejaVuSans-31" x="290.576172"/>
       <use xlink:href="#DejaVuSans-32" x="354.199219"/>
       <use xlink:href="#DejaVuSans-2d" x="417.822266"/>
       <use xlink:href="#DejaVuSans-30" x="453.90625"/>
       <use xlink:href="#DejaVuSans-37" x="517.529297"/>
      </g>
     </g>
    </g>
    <g id="text_6">
     <!-- date -->
     <g transform="translate(357.725 156.436563) scale(0.1 -0.1)">
      <defs>
       <path id="DejaVuSans-64" d="M 2906 2969 
L 2906 4863 
L 3481 4863 
L 3481 0 
L 2906 0 
L 2906 525 
Q 2725 213 2448 61 
Q 2172 -91 1784 -91 
Q 1150 -91 751 415 
Q 353 922 353 1747 
Q 353 2572 751 3078 
Q 1150 3584 1784 3584 
Q 2172 3584 2448 3432 
Q 2725 3281 2906 2969 
z
M 947 1747 
Q 947 1113 1208 752 
Q 1469 391 1925 391 
Q 2381 391 2643 752 
Q 2906 1113 2906 1747 
Q 2906 2381 2643 2742 
Q 2381 3103 1925 3103 
Q 1469 3103 1208 2742 
Q 947 2381 947 1747 
z
" transform="scale(0.015625)"/>
       <path id="DejaVuSans-61" d="M 2194 1759 
Q 1497 1759 1228 1600 
Q 959 1441 959 1056 
Q 959 750 1161 570 
Q 1363 391 1709 391 
Q 2188 391 2477 730 
Q 2766 1069 2766 1631 
L 2766 1759 
L 2194 1759 
z
M 3341 1997 
L 3341 0 
L 2766 0 
L 2766 531 
Q 2569 213 2275 61 
Q 1981 -91 1556 -91 
Q 1019 -91 701 211 
Q 384 513 384 1019 
Q 384 1609 779 1909 
Q 1175 2209 1959 2209 
L 2766 2209 
L 2766 2266 
Q 2766 2663 2505 2880 
Q 2244 3097 1772 3097 
Q 1472 3097 1187 3025 
Q 903 2953 641 2809 
L 641 3341 
Q 956 3463 1253 3523 
Q 1550 3584 1831 3584 
Q 2591 3584 2966 3190 
Q 3341 2797 3341 1997 
z
" transform="scale(0.015625)"/>
       <path id="DejaVuSans-74" d="M 1172 4494 
L 1172 3500 
L 2356 3500 
L 2356 3053 
L 1172 3053 
L 1172 1153 
Q 1172 725 1289 603 
Q 1406 481 1766 481 
L 2356 481 
L 2356 0 
L 1766 0 
Q 1100 0 847 248 
Q 594 497 594 1153 
L 594 3053 
L 172 3053 
L 172 3500 
L 594 3500 
L 594 4494 
L 1172 4494 
z
" transform="scale(0.015625)"/>
       <path id="DejaVuSans-65" d="M 3597 1894 
L 3597 1613 
L 953 1613 
Q 991 1019 1311 708 
Q 1631 397 2203 397 
Q 2534 397 2845 478 
Q 3156 559 3463 722 
L 3463 178 
Q 3153 47 2828 -22 
Q 2503 -91 2169 -91 
Q 1331 -91 842 396 
Q 353 884 353 1716 
Q 353 2575 817 3079 
Q 1281 3584 2069 3584 
Q 2775 3584 3186 3129 
Q 3597 2675 3597 1894 
z
M 3022 2063 
Q 3016 2534 2758 2815 
Q 2500 3097 2075 3097 
Q 1594 3097 1305 2825 
Q 1016 2553 972 2059 
L 3022 2063 
z
" transform="scale(0.015625)"/>
      </defs>
      <use xlink:href="#DejaVuSans-64"/>
      <use xlink:href="#DejaVuSans-61" x="63.476562"/>
      <use xlink:href="#DejaVuSans-74" x="124.755859"/>
      <use xlink:href="#DejaVuSans-65" x="163.964844"/>
     </g>
    </g>
   </g>
   <g id="matplotlib.axis_2">
    <g id="ytick_1">
     <g id="line2d_6">
      <defs>
       <path id="mf87b25066d" d="M 0 0 
L -3.5 0 
" style="stroke: #000000; stroke-width: 0.8"/>
      </defs>
      <g>
       <use xlink:href="#mf87b25066d" x="90" y="124.292093" style="stroke: #000000; stroke-width: 0.8"/>
      </g>
     </g>
     <g id="text_7">
      <!-- 0 -->
      <g transform="translate(76.6375 128.091312) scale(0.1 -0.1)">
       <use xlink:href="#DejaVuSans-30"/>
      </g>
     </g>
    </g>
    <g id="ytick_2">
     <g id="line2d_7">
      <g>
       <use xlink:href="#mf87b25066d" x="90" y="100.850233" style="stroke: #000000; stroke-width: 0.8"/>
      </g>
     </g>
     <g id="text_8">
      <!-- 20 -->
      <g transform="translate(70.275 104.649451) scale(0.1 -0.1)">
       <use xlink:href="#DejaVuSans-32"/>
       <use xlink:href="#DejaVuSans-30" x="63.623047"/>
      </g>
     </g>
    </g>
    <g id="ytick_3">
     <g id="line2d_8">
      <g>
       <use xlink:href="#mf87b25066d" x="90" y="77.408372" style="stroke: #000000; stroke-width: 0.8"/>
      </g>
     </g>
     <g id="text_9">
      <!-- 40 -->
      <g transform="translate(70.275 81.207591) scale(0.1 -0.1)">
       <defs>
        <path id="DejaVuSans-34" d="M 2419 4116 
L 825 1625 
L 2419 1625 
L 2419 4116 
z
M 2253 4666 
L 3047 4666 
L 3047 1625 
L 3713 1625 
L 3713 1100 
L 3047 1100 
L 3047 0 
L 2419 0 
L 2419 1100 
L 313 1100 
L 313 1709 
L 2253 4666 
z
" transform="scale(0.015625)"/>
       </defs>
       <use xlink:href="#DejaVuSans-34"/>
       <use xlink:href="#DejaVuSans-30" x="63.623047"/>
      </g>
     </g>
    </g>
    <g id="ytick_4">
     <g id="line2d_9">
      <g>
       <use xlink:href="#mf87b25066d" x="90" y="53.966512" style="stroke: #000000; stroke-width: 0.8"/>
      </g>
     </g>
     <g id="text_10">
      <!-- 60 -->
      <g transform="translate(70.275 57.76573) scale(0.1 -0.1)">
       <use xlink:href="#DejaVuSans-36"/>
       <use xlink:href="#DejaVuSans-30" x="63.623047"/>
      </g>
     </g>
    </g>
    <g id="ytick_5">
     <g id="line2d_10">
      <g>
       <use xlink:href="#mf87b25066d" x="90" y="30.524651" style="stroke: #000000; stroke-width: 0.8"/>
      </g>
     </g>
     <g id="text_11">
      <!-- 80 -->
      <g transform="translate(70.275 34.32387) scale(0.1 -0.1)">
       <use xlink:href="#DejaVuSans-38"/>
       <use xlink:href="#DejaVuSans-30" x="63.623047"/>
      </g>
     </g>
    </g>
   </g>
   <g id="line2d_11">
    <path d="M 115.363636 98.506047 
L 115.944705 107.882791 
L 116.525773 119.603721 
L 118.268978 123.12 
L 118.850047 120.775814 
L 119.431115 114.915349 
L 120.012184 121.947907 
L 120.593252 120.775814 
L 121.174321 121.947907 
L 121.755389 96.16186 
L 122.336457 116.087442 
L 122.917526 120.775814 
L 123.498594 114.915349 
L 124.079663 121.947907 
L 124.660731 117.259535 
L 125.241799 116.087442 
L 125.822868 123.12 
L 126.403936 120.775814 
L 126.985005 112.571163 
L 127.566073 114.915349 
L 128.147142 119.603721 
L 128.72821 120.775814 
L 129.309278 120.775814 
L 130.471415 123.12 
L 131.052484 113.743256 
L 131.633552 64.515349 
L 132.21462 117.259535 
L 132.795689 120.775814 
L 133.376757 120.775814 
L 133.957826 118.431628 
L 134.538894 121.947907 
L 135.119963 119.603721 
L 135.701031 123.12 
L 136.282099 120.775814 
L 136.863168 120.775814 
L 137.444236 123.12 
L 138.025305 121.947907 
L 138.606373 119.603721 
L 139.187441 119.603721 
L 139.76851 117.259535 
L 140.349578 123.12 
L 140.930647 123.12 
L 141.511715 121.947907 
L 142.092784 121.947907 
L 142.673852 123.12 
L 143.25492 123.12 
L 143.835989 105.538605 
L 144.417057 118.431628 
L 144.998126 116.087442 
L 145.579194 121.947907 
L 146.160262 118.431628 
L 146.741331 116.087442 
L 147.322399 118.431628 
L 147.903468 123.12 
L 148.484536 121.947907 
L 149.065604 118.431628 
L 149.646673 123.12 
L 150.80881 120.775814 
L 151.389878 116.087442 
L 152.552015 123.12 
L 153.133083 119.603721 
L 153.714152 118.431628 
L 154.29522 123.12 
L 154.876289 119.603721 
L 155.457357 123.12 
L 156.038425 121.947907 
L 156.619494 118.431628 
L 157.200562 123.12 
L 157.781631 121.947907 
L 158.362699 121.947907 
L 158.943768 123.12 
L 159.524836 118.431628 
L 160.105904 123.12 
L 160.686973 120.775814 
L 161.84911 120.775814 
L 162.430178 119.603721 
L 163.011246 117.259535 
L 163.592315 120.775814 
L 164.173383 117.259535 
L 164.754452 123.12 
L 165.916589 120.775814 
L 166.497657 118.431628 
L 167.078725 121.947907 
L 167.659794 123.12 
L 168.240862 121.947907 
L 168.821931 119.603721 
L 169.402999 120.775814 
L 169.984067 123.12 
L 170.565136 107.882791 
L 171.146204 123.12 
L 171.727273 120.775814 
L 172.308341 119.603721 
L 172.88941 123.12 
L 173.470478 119.603721 
L 174.051546 114.915349 
L 174.632615 120.775814 
L 175.213683 123.12 
L 175.794752 123.12 
L 176.37582 121.947907 
L 176.956888 123.12 
L 177.537957 123.12 
L 178.119025 121.947907 
L 178.700094 121.947907 
L 179.281162 120.775814 
L 179.862231 121.947907 
L 181.605436 118.431628 
L 182.186504 120.775814 
L 182.767573 120.775814 
L 183.929709 118.431628 
L 184.510778 121.947907 
L 185.091846 123.12 
L 185.672915 116.087442 
L 186.253983 121.947907 
L 186.835052 121.947907 
L 187.41612 114.915349 
L 187.997188 120.775814 
L 188.578257 120.775814 
L 189.159325 94.989767 
L 189.740394 118.431628 
L 190.321462 120.775814 
L 190.90253 116.087442 
L 191.483599 121.947907 
L 192.064667 117.259535 
L 192.645736 121.947907 
L 193.226804 114.915349 
L 193.807873 118.431628 
L 194.388941 123.12 
L 194.970009 121.947907 
L 195.551078 109.054884 
L 196.132146 118.431628 
L 196.713215 121.947907 
L 197.294283 123.12 
L 197.875351 123.12 
L 198.45642 114.915349 
L 199.037488 123.12 
L 199.618557 123.12 
L 200.199625 119.603721 
L 200.780694 123.12 
L 201.361762 123.12 
L 202.523899 118.431628 
L 203.104967 123.12 
L 203.686036 120.775814 
L 204.848172 123.12 
L 205.429241 118.431628 
L 206.010309 123.12 
L 206.591378 123.12 
L 207.172446 121.947907 
L 207.753515 123.12 
L 208.334583 123.12 
L 208.915651 118.431628 
L 210.077788 123.12 
L 211.239925 120.775814 
L 211.820993 120.775814 
L 212.402062 121.947907 
L 212.98313 119.603721 
L 213.564199 121.947907 
L 214.145267 123.12 
L 215.307404 123.12 
L 215.888472 118.431628 
L 216.469541 123.12 
L 217.050609 121.947907 
L 217.631678 123.12 
L 218.212746 118.431628 
L 218.793814 120.775814 
L 219.374883 121.947907 
L 219.955951 121.947907 
L 220.53702 119.603721 
L 221.118088 121.947907 
L 221.699157 120.775814 
L 222.280225 120.775814 
L 222.861293 121.947907 
L 223.442362 121.947907 
L 224.02343 123.12 
L 224.604499 116.087442 
L 225.185567 121.947907 
L 225.766635 121.947907 
L 226.347704 123.12 
L 226.928772 121.947907 
L 227.509841 123.12 
L 228.090909 123.12 
L 229.253046 120.775814 
L 229.834114 111.39907 
L 230.415183 89.129302 
L 230.996251 114.915349 
L 231.57732 123.12 
L 232.158388 121.947907 
L 232.739456 116.087442 
L 233.320525 118.431628 
L 233.901593 117.259535 
L 234.482662 107.882791 
L 235.06373 123.12 
L 235.644799 121.947907 
L 236.225867 119.603721 
L 236.806935 116.087442 
L 237.388004 111.39907 
L 237.969072 97.333953 
L 238.550141 106.710698 
L 239.131209 121.947907 
L 239.712277 84.44093 
L 240.293346 105.538605 
L 240.874414 114.915349 
L 241.455483 107.882791 
L 242.036551 118.431628 
L 242.617619 107.882791 
L 243.198688 109.054884 
L 243.779756 106.710698 
L 244.360825 97.333953 
L 244.941893 120.775814 
L 245.522962 116.087442 
L 246.10403 120.775814 
L 246.685098 123.12 
L 247.266167 118.431628 
L 247.847235 123.12 
L 248.428304 120.775814 
L 249.009372 123.12 
L 249.59044 121.947907 
L 250.171509 107.882791 
L 250.752577 120.775814 
L 251.333646 117.259535 
L 251.914714 119.603721 
L 252.495783 118.431628 
L 253.076851 123.12 
L 253.657919 116.087442 
L 254.238988 118.431628 
L 254.820056 121.947907 
L 255.401125 117.259535 
L 255.982193 123.12 
L 256.563261 120.775814 
L 257.14433 123.12 
L 257.725398 119.603721 
L 258.306467 121.947907 
L 258.887535 119.603721 
L 259.468604 118.431628 
L 260.049672 121.947907 
L 261.211809 121.947907 
L 261.792877 119.603721 
L 262.373946 118.431628 
L 262.955014 98.506047 
L 263.536082 100.850233 
L 264.117151 120.775814 
L 264.698219 121.947907 
L 265.279288 117.259535 
L 265.860356 118.431628 
L 266.441425 116.087442 
L 267.022493 121.947907 
L 267.603561 123.12 
L 268.18463 117.259535 
L 268.765698 116.087442 
L 269.346767 112.571163 
L 269.927835 121.947907 
L 270.508903 118.431628 
L 271.089972 121.947907 
L 271.67104 121.947907 
L 272.252109 123.12 
L 273.414246 118.431628 
L 274.576382 123.12 
L 275.157451 120.775814 
L 275.738519 121.947907 
L 276.319588 116.087442 
L 276.900656 113.743256 
L 277.481724 116.087442 
L 278.062793 117.259535 
L 278.643861 114.915349 
L 279.22493 105.538605 
L 279.805998 117.259535 
L 280.387067 119.603721 
L 280.968135 118.431628 
L 281.549203 114.915349 
L 282.130272 106.710698 
L 282.71134 121.947907 
L 283.292409 120.775814 
L 283.873477 123.12 
L 284.454545 113.743256 
L 285.035614 114.915349 
L 285.616682 119.603721 
L 286.197751 112.571163 
L 286.778819 110.226977 
L 287.359888 121.947907 
L 287.940956 121.947907 
L 288.522024 112.571163 
L 289.103093 91.473488 
L 289.684161 107.882791 
L 290.26523 117.259535 
L 290.846298 118.431628 
L 291.427366 118.431628 
L 292.589503 120.775814 
L 293.170572 117.259535 
L 293.75164 117.259535 
L 294.332709 121.947907 
L 294.913777 121.947907 
L 295.494845 120.775814 
L 296.075914 121.947907 
L 296.656982 114.915349 
L 297.238051 114.915349 
L 297.819119 117.259535 
L 298.400187 113.743256 
L 298.981256 105.538605 
L 299.562324 114.915349 
L 300.143393 114.915349 
L 300.724461 120.775814 
L 301.30553 120.775814 
L 301.886598 116.087442 
L 302.467666 123.12 
L 303.048735 103.194419 
L 303.629803 100.850233 
L 304.210872 117.259535 
L 304.79194 118.431628 
L 305.373008 107.882791 
L 305.954077 113.743256 
L 306.535145 120.775814 
L 307.116214 118.431628 
L 307.697282 123.12 
L 308.278351 113.743256 
L 308.859419 98.506047 
L 309.440487 121.947907 
L 310.021556 120.775814 
L 311.183693 123.12 
L 311.764761 119.603721 
L 312.345829 100.850233 
L 312.926898 114.915349 
L 313.507966 121.947907 
L 314.089035 121.947907 
L 314.670103 105.538605 
L 315.251172 120.775814 
L 315.83224 121.947907 
L 316.413308 120.775814 
L 318.737582 120.775814 
L 319.31865 118.431628 
L 319.899719 123.12 
L 320.480787 121.947907 
L 321.061856 121.947907 
L 321.642924 123.12 
L 322.223993 123.12 
L 322.805061 121.947907 
L 323.386129 123.12 
L 323.967198 117.259535 
L 324.548266 121.947907 
L 325.129335 118.431628 
L 325.710403 118.431628 
L 326.291471 116.087442 
L 326.87254 118.431628 
L 327.453608 123.12 
L 328.034677 120.775814 
L 329.196813 120.775814 
L 329.777882 123.12 
L 330.35895 121.947907 
L 330.940019 121.947907 
L 331.521087 119.603721 
L 332.102156 121.947907 
L 333.845361 121.947907 
L 334.426429 82.096744 
L 335.007498 118.431628 
L 335.588566 123.12 
L 336.169634 121.947907 
L 336.750703 119.603721 
L 337.331771 123.12 
L 337.91284 118.431628 
L 338.493908 121.947907 
L 339.074977 117.259535 
L 339.656045 116.087442 
L 340.237113 116.087442 
L 340.818182 114.915349 
L 341.39925 100.850233 
L 341.980319 100.850233 
L 342.561387 116.087442 
L 343.142455 119.603721 
L 343.723524 121.947907 
L 344.304592 104.366512 
L 344.885661 118.431628 
L 345.466729 121.947907 
L 346.047798 121.947907 
L 346.628866 120.775814 
L 347.209934 120.775814 
L 347.791003 121.947907 
L 348.372071 121.947907 
L 348.95314 118.431628 
L 349.534208 123.12 
L 350.115276 121.947907 
L 350.696345 118.431628 
L 351.277413 118.431628 
L 351.858482 120.775814 
L 353.020619 100.850233 
L 353.601687 113.743256 
L 354.182755 112.571163 
L 354.763824 105.538605 
L 355.344892 110.226977 
L 356.507029 112.571163 
L 357.088097 111.39907 
L 357.669166 104.366512 
L 358.250234 107.882791 
L 358.831303 118.431628 
L 359.412371 119.603721 
L 359.99344 117.259535 
L 360.574508 117.259535 
L 361.155576 113.743256 
L 361.736645 116.087442 
L 362.317713 109.054884 
L 362.898782 114.915349 
L 363.47985 116.087442 
L 364.060918 111.39907 
L 364.641987 100.850233 
L 365.223055 111.39907 
L 365.804124 116.087442 
L 366.966261 111.39907 
L 367.547329 116.087442 
L 368.128397 107.882791 
L 368.709466 111.39907 
L 369.871603 120.775814 
L 370.452671 116.087442 
L 371.033739 107.882791 
L 371.614808 120.775814 
L 372.195876 118.431628 
L 372.776945 119.603721 
L 373.358013 114.915349 
L 373.939082 113.743256 
L 374.52015 94.989767 
L 375.101218 91.473488 
L 375.682287 112.571163 
L 376.263355 80.924651 
L 376.844424 120.775814 
L 377.425492 118.431628 
L 378.00656 120.775814 
L 378.587629 90.301395 
L 379.168697 91.473488 
L 380.330834 121.947907 
L 380.911903 118.431628 
L 381.492971 109.054884 
L 382.074039 118.431628 
L 382.655108 118.431628 
L 383.236176 91.473488 
L 383.817245 111.39907 
L 384.398313 114.915349 
L 385.56045 117.259535 
L 386.141518 117.259535 
L 386.722587 114.915349 
L 388.465792 121.947907 
L 389.04686 113.743256 
L 389.627929 121.947907 
L 390.208997 121.947907 
L 391.371134 119.603721 
L 391.952202 123.12 
L 392.533271 119.603721 
L 393.114339 117.259535 
L 393.695408 120.775814 
L 394.276476 121.947907 
L 394.857545 121.947907 
L 395.438613 113.743256 
L 396.019681 123.12 
L 396.60075 97.333953 
L 397.181818 120.775814 
L 397.762887 121.947907 
L 398.343955 118.431628 
L 398.925023 118.431628 
L 399.506092 119.603721 
L 400.08716 121.947907 
L 400.668229 114.915349 
L 401.249297 120.775814 
L 401.830366 118.431628 
L 402.411434 119.603721 
L 402.992502 96.16186 
L 403.573571 120.775814 
L 404.154639 117.259535 
L 404.735708 123.12 
L 405.316776 123.12 
L 405.897844 121.947907 
L 406.478913 113.743256 
L 407.059981 121.947907 
L 407.64105 114.915349 
L 408.222118 118.431628 
L 408.803187 123.12 
L 409.384255 118.431628 
L 410.546392 118.431628 
L 411.12746 114.915349 
L 411.708529 112.571163 
L 412.289597 119.603721 
L 412.870665 119.603721 
L 413.451734 118.431628 
L 414.032802 120.775814 
L 414.613871 120.775814 
L 415.194939 118.431628 
L 415.776007 114.915349 
L 416.357076 114.915349 
L 416.938144 117.259535 
L 417.519213 121.947907 
L 418.68135 121.947907 
L 419.262418 100.850233 
L 419.843486 51.622326 
L 420.424555 75.064186 
L 421.005623 117.259535 
L 421.586692 120.775814 
L 422.16776 118.431628 
L 423.329897 102.022326 
L 423.910965 116.087442 
L 424.492034 96.16186 
L 425.073102 70.375814 
L 425.654171 118.431628 
L 426.235239 69.203721 
L 426.816307 109.054884 
L 427.397376 121.947907 
L 427.978444 55.138605 
L 428.559513 92.645581 
L 429.140581 105.538605 
L 429.721649 48.106047 
L 430.302718 117.259535 
L 430.883786 118.431628 
L 431.464855 91.473488 
L 432.045923 107.882791 
L 432.626992 87.957209 
L 433.20806 107.882791 
L 433.789128 119.603721 
L 434.370197 22.32 
L 434.951265 117.259535 
L 435.532334 118.431628 
L 436.113402 118.431628 
L 436.69447 110.226977 
L 437.275539 116.087442 
L 437.856607 99.67814 
L 438.437676 116.087442 
L 439.018744 119.603721 
L 439.599813 92.645581 
L 440.180881 92.645581 
L 440.761949 110.226977 
L 441.343018 89.129302 
L 441.924086 117.259535 
L 442.505155 118.431628 
L 443.086223 92.645581 
L 443.667291 123.12 
L 444.24836 120.775814 
L 444.829428 119.603721 
L 445.410497 117.259535 
L 445.991565 120.775814 
L 446.572634 119.603721 
L 447.153702 117.259535 
L 447.73477 111.39907 
L 448.315839 114.915349 
L 448.896907 104.366512 
L 450.059044 121.947907 
L 450.640112 123.12 
L 451.221181 113.743256 
L 452.383318 120.775814 
L 452.964386 123.12 
L 453.545455 117.259535 
L 454.126523 121.947907 
L 454.707591 117.259535 
L 455.28866 123.12 
L 456.450797 120.775814 
L 457.031865 123.12 
L 457.612933 123.12 
L 458.194002 120.775814 
L 459.356139 118.431628 
L 459.937207 118.431628 
L 460.518276 119.603721 
L 461.099344 119.603721 
L 461.680412 123.12 
L 462.261481 120.775814 
L 462.842549 83.268837 
L 463.423618 119.603721 
L 464.004686 121.947907 
L 465.166823 121.947907 
L 465.747891 116.087442 
L 466.32896 117.259535 
L 466.910028 104.366512 
L 467.491097 120.775814 
L 468.072165 114.915349 
L 468.653233 121.947907 
L 469.234302 123.12 
L 469.81537 119.603721 
L 470.396439 120.775814 
L 470.977507 114.915349 
L 471.558575 117.259535 
L 472.139644 120.775814 
L 472.720712 121.947907 
L 473.301781 120.775814 
L 473.882849 116.087442 
L 474.463918 118.431628 
L 475.044986 117.259535 
L 475.626054 119.603721 
L 476.207123 113.743256 
L 476.788191 116.087442 
L 477.36926 123.12 
L 477.950328 117.259535 
L 478.531396 118.431628 
L 479.112465 105.538605 
L 479.693533 121.947907 
L 480.274602 117.259535 
L 480.85567 117.259535 
L 481.436739 118.431628 
L 482.017807 106.710698 
L 482.598875 87.957209 
L 483.179944 118.431628 
L 483.761012 121.947907 
L 484.342081 114.915349 
L 484.923149 120.775814 
L 485.504217 119.603721 
L 486.085286 119.603721 
L 486.666354 123.12 
L 487.828491 120.775814 
L 488.40956 118.431628 
L 488.990628 121.947907 
L 489.571696 118.431628 
L 490.152765 121.947907 
L 490.733833 118.431628 
L 491.314902 123.12 
L 491.89597 118.431628 
L 492.477038 120.775814 
L 493.058107 120.775814 
L 493.639175 118.431628 
L 494.220244 123.12 
L 494.801312 118.431628 
L 495.382381 120.775814 
L 495.963449 113.743256 
L 496.544517 121.947907 
L 497.125586 112.571163 
L 497.706654 87.957209 
L 498.287723 121.947907 
L 498.868791 123.12 
L 499.449859 120.775814 
L 500.030928 114.915349 
L 500.611996 120.775814 
L 501.774133 123.12 
L 502.355201 113.743256 
L 502.93627 120.775814 
L 503.517338 119.603721 
L 504.098407 109.054884 
L 504.679475 100.850233 
L 505.260544 116.087442 
L 505.841612 120.775814 
L 506.42268 120.775814 
L 507.003749 114.915349 
L 507.584817 75.064186 
L 508.165886 104.366512 
L 508.746954 114.915349 
L 509.328022 119.603721 
L 509.909091 119.603721 
L 510.490159 85.613023 
L 511.071228 118.431628 
L 511.652296 121.947907 
L 512.814433 121.947907 
L 513.395501 119.603721 
L 513.97657 118.431628 
L 514.557638 120.775814 
L 515.138707 117.259535 
L 515.719775 119.603721 
L 516.300843 123.12 
L 516.881912 120.775814 
L 517.46298 116.087442 
L 518.044049 120.775814 
L 518.625117 114.915349 
L 519.206186 114.915349 
L 519.787254 117.259535 
L 520.368322 120.775814 
L 520.949391 99.67814 
L 521.530459 118.431628 
L 522.111528 104.366512 
L 522.692596 114.915349 
L 523.273664 117.259535 
L 523.854733 105.538605 
L 524.435801 120.775814 
L 525.01687 114.915349 
L 525.597938 110.226977 
L 526.179007 118.431628 
L 526.760075 113.743256 
L 527.341143 104.366512 
L 527.922212 103.194419 
L 528.50328 117.259535 
L 529.084349 96.16186 
L 529.665417 105.538605 
L 530.246485 119.603721 
L 530.827554 103.194419 
L 531.408622 121.947907 
L 531.989691 120.775814 
L 532.570759 110.226977 
L 533.151828 113.743256 
L 533.732896 90.301395 
L 534.313964 110.226977 
L 534.895033 109.054884 
L 535.476101 109.054884 
L 536.05717 111.39907 
L 536.638238 117.259535 
L 537.219306 118.431628 
L 537.800375 114.915349 
L 538.381443 117.259535 
L 538.962512 107.882791 
L 539.54358 118.431628 
L 540.124649 111.39907 
L 540.705717 102.022326 
L 541.286785 111.39907 
L 541.867854 112.571163 
L 542.448922 111.39907 
L 543.029991 121.947907 
L 543.611059 114.915349 
L 544.192127 120.775814 
L 544.773196 119.603721 
L 545.354264 109.054884 
L 545.935333 107.882791 
L 546.516401 90.301395 
L 547.09747 107.882791 
L 547.678538 104.366512 
L 548.259606 116.087442 
L 548.840675 118.431628 
L 549.421743 117.259535 
L 550.002812 117.259535 
L 550.58388 121.947907 
L 551.164948 117.259535 
L 551.746017 102.022326 
L 552.327085 117.259535 
L 553.489222 117.259535 
L 554.070291 121.947907 
L 554.651359 123.12 
L 555.232427 121.947907 
L 555.813496 116.087442 
L 556.394564 98.506047 
L 556.975633 118.431628 
L 557.556701 118.431628 
L 558.137769 123.12 
L 558.718838 123.12 
L 559.299906 85.613023 
L 559.880975 98.506047 
L 560.462043 114.915349 
L 561.043112 107.882791 
L 562.205248 121.947907 
L 562.786317 120.775814 
L 563.367385 121.947907 
L 563.948454 112.571163 
L 564.529522 121.947907 
L 565.11059 119.603721 
L 565.691659 120.775814 
L 566.272727 123.12 
L 566.853796 89.129302 
L 567.434864 118.431628 
L 568.015933 105.538605 
L 568.597001 105.538605 
L 569.178069 110.226977 
L 569.759138 119.603721 
L 570.340206 120.775814 
L 570.921275 112.571163 
L 571.502343 116.087442 
L 572.083411 114.915349 
L 572.66448 112.571163 
L 573.245548 121.947907 
L 573.826617 118.431628 
L 574.407685 120.775814 
L 575.569822 123.12 
L 577.894096 118.431628 
L 579.056232 96.16186 
L 579.637301 116.087442 
L 580.218369 112.571163 
L 580.799438 121.947907 
L 581.380506 112.571163 
L 581.961575 123.12 
L 582.542643 120.775814 
L 583.70478 118.431628 
L 584.285848 119.603721 
L 584.866917 118.431628 
L 585.447985 116.087442 
L 586.029053 99.67814 
L 586.610122 116.087442 
L 587.19119 114.915349 
L 587.772259 97.333953 
L 588.353327 121.947907 
L 588.934396 110.226977 
L 589.515464 121.947907 
L 590.096532 116.087442 
L 590.677601 120.775814 
L 591.258669 123.12 
L 591.839738 119.603721 
L 592.420806 121.947907 
L 593.001874 118.431628 
L 593.582943 123.12 
L 594.74508 123.12 
L 595.326148 118.431628 
L 595.907216 123.12 
L 596.488285 116.087442 
L 597.069353 123.12 
L 597.650422 121.947907 
L 598.23149 118.431628 
L 598.812559 99.67814 
L 599.393627 123.12 
L 599.974695 123.12 
L 600.555764 106.710698 
L 601.136832 107.882791 
L 601.717901 104.366512 
L 602.298969 109.054884 
L 602.880037 121.947907 
L 603.461106 106.710698 
L 604.042174 118.431628 
L 604.623243 120.775814 
L 605.204311 121.947907 
L 605.78538 121.947907 
L 606.366448 123.12 
L 606.947516 121.947907 
L 607.528585 117.259535 
L 608.109653 120.775814 
L 609.27179 123.12 
L 609.852858 123.12 
L 610.433927 114.915349 
L 611.014995 116.087442 
L 611.596064 120.775814 
L 612.758201 120.775814 
L 613.339269 119.603721 
L 613.920337 119.603721 
L 614.501406 112.571163 
L 615.082474 121.947907 
L 615.663543 96.16186 
L 616.244611 116.087442 
L 616.825679 121.947907 
L 617.406748 117.259535 
L 617.987816 118.431628 
L 618.568885 112.571163 
L 619.149953 107.882791 
L 619.731022 116.087442 
L 620.31209 93.817674 
L 620.893158 123.12 
L 621.474227 114.915349 
L 622.636364 92.645581 
L 622.636364 92.645581 
" clip-path="url(#pef3a5c5374)" style="fill: none; stroke: #1f77b4; stroke-width: 1.5; stroke-linecap: square"/>
   </g>
   <g id="patch_3">
    <path d="M 90 128.16 
L 90 17.28 
" style="fill: none; stroke: #000000; stroke-width: 0.8; stroke-linejoin: miter; stroke-linecap: square"/>
   </g>
   <g id="patch_4">
    <path d="M 648 128.16 
L 648 17.28 
" style="fill: none; stroke: #000000; stroke-width: 0.8; stroke-linejoin: miter; stroke-linecap: square"/>
   </g>
   <g id="patch_5">
    <path d="M 90 128.16 
L 648 128.16 
" style="fill: none; stroke: #000000; stroke-width: 0.8; stroke-linejoin: miter; stroke-linecap: square"/>
   </g>
   <g id="patch_6">
    <path d="M 90 17.28 
L 648 17.28 
" style="fill: none; stroke: #000000; stroke-width: 0.8; stroke-linejoin: miter; stroke-linecap: square"/>
   </g>
   <g id="legend_1">
    <g id="patch_7">
     <path d="M 473.809375 39.958125 
L 641 39.958125 
Q 643 39.958125 643 37.958125 
L 643 24.28 
Q 643 22.28 641 22.28 
L 473.809375 22.28 
Q 471.809375 22.28 471.809375 24.28 
L 471.809375 37.958125 
Q 471.809375 39.958125 473.809375 39.958125 
z
" style="fill: #ffffff; opacity: 0.8; stroke: #cccccc; stroke-linejoin: miter"/>
    </g>
    <g id="line2d_12">
     <path d="M 475.809375 30.378437 
L 485.809375 30.378437 
L 495.809375 30.378437 
" style="fill: none; stroke: #1f77b4; stroke-width: 1.5; stroke-linecap: square"/>
    </g>
    <g id="text_12">
     <!-- Number of PyPI Downloads -->
     <g transform="translate(503.809375 33.878437) scale(0.1 -0.1)">
      <defs>
       <path id="DejaVuSans-4e" d="M 628 4666 
L 1478 4666 
L 3547 763 
L 3547 4666 
L 4159 4666 
L 4159 0 
L 3309 0 
L 1241 3903 
L 1241 0 
L 628 0 
L 628 4666 
z
" transform="scale(0.015625)"/>
       <path id="DejaVuSans-75" d="M 544 1381 
L 544 3500 
L 1119 3500 
L 1119 1403 
Q 1119 906 1312 657 
Q 1506 409 1894 409 
Q 2359 409 2629 706 
Q 2900 1003 2900 1516 
L 2900 3500 
L 3475 3500 
L 3475 0 
L 2900 0 
L 2900 538 
Q 2691 219 2414 64 
Q 2138 -91 1772 -91 
Q 1169 -91 856 284 
Q 544 659 544 1381 
z
M 1991 3584 
L 1991 3584 
z
" transform="scale(0.015625)"/>
       <path id="DejaVuSans-6d" d="M 3328 2828 
Q 3544 3216 3844 3400 
Q 4144 3584 4550 3584 
Q 5097 3584 5394 3201 
Q 5691 2819 5691 2113 
L 5691 0 
L 5113 0 
L 5113 2094 
Q 5113 2597 4934 2840 
Q 4756 3084 4391 3084 
Q 3944 3084 3684 2787 
Q 3425 2491 3425 1978 
L 3425 0 
L 2847 0 
L 2847 2094 
Q 2847 2600 2669 2842 
Q 2491 3084 2119 3084 
Q 1678 3084 1418 2786 
Q 1159 2488 1159 1978 
L 1159 0 
L 581 0 
L 581 3500 
L 1159 3500 
L 1159 2956 
Q 1356 3278 1631 3431 
Q 1906 3584 2284 3584 
Q 2666 3584 2933 3390 
Q 3200 3197 3328 2828 
z
" transform="scale(0.015625)"/>
       <path id="DejaVuSans-62" d="M 3116 1747 
Q 3116 2381 2855 2742 
Q 2594 3103 2138 3103 
Q 1681 3103 1420 2742 
Q 1159 2381 1159 1747 
Q 1159 1113 1420 752 
Q 1681 391 2138 391 
Q 2594 391 2855 752 
Q 3116 1113 3116 1747 
z
M 1159 2969 
Q 1341 3281 1617 3432 
Q 1894 3584 2278 3584 
Q 2916 3584 3314 3078 
Q 3713 2572 3713 1747 
Q 3713 922 3314 415 
Q 2916 -91 2278 -91 
Q 1894 -91 1617 61 
Q 1341 213 1159 525 
L 1159 0 
L 581 0 
L 581 4863 
L 1159 4863 
L 1159 2969 
z
" transform="scale(0.015625)"/>
       <path id="DejaVuSans-72" d="M 2631 2963 
Q 2534 3019 2420 3045 
Q 2306 3072 2169 3072 
Q 1681 3072 1420 2755 
Q 1159 2438 1159 1844 
L 1159 0 
L 581 0 
L 581 3500 
L 1159 3500 
L 1159 2956 
Q 1341 3275 1631 3429 
Q 1922 3584 2338 3584 
Q 2397 3584 2469 3576 
Q 2541 3569 2628 3553 
L 2631 2963 
z
" transform="scale(0.015625)"/>
       <path id="DejaVuSans-20" transform="scale(0.015625)"/>
       <path id="DejaVuSans-6f" d="M 1959 3097 
Q 1497 3097 1228 2736 
Q 959 2375 959 1747 
Q 959 1119 1226 758 
Q 1494 397 1959 397 
Q 2419 397 2687 759 
Q 2956 1122 2956 1747 
Q 2956 2369 2687 2733 
Q 2419 3097 1959 3097 
z
M 1959 3584 
Q 2709 3584 3137 3096 
Q 3566 2609 3566 1747 
Q 3566 888 3137 398 
Q 2709 -91 1959 -91 
Q 1206 -91 779 398 
Q 353 888 353 1747 
Q 353 2609 779 3096 
Q 1206 3584 1959 3584 
z
" transform="scale(0.015625)"/>
       <path id="DejaVuSans-66" d="M 2375 4863 
L 2375 4384 
L 1825 4384 
Q 1516 4384 1395 4259 
Q 1275 4134 1275 3809 
L 1275 3500 
L 2222 3500 
L 2222 3053 
L 1275 3053 
L 1275 0 
L 697 0 
L 697 3053 
L 147 3053 
L 147 3500 
L 697 3500 
L 697 3744 
Q 697 4328 969 4595 
Q 1241 4863 1831 4863 
L 2375 4863 
z
" transform="scale(0.015625)"/>
       <path id="DejaVuSans-50" d="M 1259 4147 
L 1259 2394 
L 2053 2394 
Q 2494 2394 2734 2622 
Q 2975 2850 2975 3272 
Q 2975 3691 2734 3919 
Q 2494 4147 2053 4147 
L 1259 4147 
z
M 628 4666 
L 2053 4666 
Q 2838 4666 3239 4311 
Q 3641 3956 3641 3272 
Q 3641 2581 3239 2228 
Q 2838 1875 2053 1875 
L 1259 1875 
L 1259 0 
L 628 0 
L 628 4666 
z
" transform="scale(0.015625)"/>
       <path id="DejaVuSans-79" d="M 2059 -325 
Q 1816 -950 1584 -1140 
Q 1353 -1331 966 -1331 
L 506 -1331 
L 506 -850 
L 844 -850 
Q 1081 -850 1212 -737 
Q 1344 -625 1503 -206 
L 1606 56 
L 191 3500 
L 800 3500 
L 1894 763 
L 2988 3500 
L 3597 3500 
L 2059 -325 
z
" transform="scale(0.015625)"/>
       <path id="DejaVuSans-49" d="M 628 4666 
L 1259 4666 
L 1259 0 
L 628 0 
L 628 4666 
z
" transform="scale(0.015625)"/>
       <path id="DejaVuSans-44" d="M 1259 4147 
L 1259 519 
L 2022 519 
Q 2988 519 3436 956 
Q 3884 1394 3884 2338 
Q 3884 3275 3436 3711 
Q 2988 4147 2022 4147 
L 1259 4147 
z
M 628 4666 
L 1925 4666 
Q 3281 4666 3915 4102 
Q 4550 3538 4550 2338 
Q 4550 1131 3912 565 
Q 3275 0 1925 0 
L 628 0 
L 628 4666 
z
" transform="scale(0.015625)"/>
       <path id="DejaVuSans-77" d="M 269 3500 
L 844 3500 
L 1563 769 
L 2278 3500 
L 2956 3500 
L 3675 769 
L 4391 3500 
L 4966 3500 
L 4050 0 
L 3372 0 
L 2619 2869 
L 1863 0 
L 1184 0 
L 269 3500 
z
" transform="scale(0.015625)"/>
       <path id="DejaVuSans-6e" d="M 3513 2113 
L 3513 0 
L 2938 0 
L 2938 2094 
Q 2938 2591 2744 2837 
Q 2550 3084 2163 3084 
Q 1697 3084 1428 2787 
Q 1159 2491 1159 1978 
L 1159 0 
L 581 0 
L 581 3500 
L 1159 3500 
L 1159 2956 
Q 1366 3272 1645 3428 
Q 1925 3584 2291 3584 
Q 2894 3584 3203 3211 
Q 3513 2838 3513 2113 
z
" transform="scale(0.015625)"/>
       <path id="DejaVuSans-6c" d="M 603 4863 
L 1178 4863 
L 1178 0 
L 603 0 
L 603 4863 
z
" transform="scale(0.015625)"/>
       <path id="DejaVuSans-73" d="M 2834 3397 
L 2834 2853 
Q 2591 2978 2328 3040 
Q 2066 3103 1784 3103 
Q 1356 3103 1142 2972 
Q 928 2841 928 2578 
Q 928 2378 1081 2264 
Q 1234 2150 1697 2047 
L 1894 2003 
Q 2506 1872 2764 1633 
Q 3022 1394 3022 966 
Q 3022 478 2636 193 
Q 2250 -91 1575 -91 
Q 1294 -91 989 -36 
Q 684 19 347 128 
L 347 722 
Q 666 556 975 473 
Q 1284 391 1588 391 
Q 1994 391 2212 530 
Q 2431 669 2431 922 
Q 2431 1156 2273 1281 
Q 2116 1406 1581 1522 
L 1381 1569 
Q 847 1681 609 1914 
Q 372 2147 372 2553 
Q 372 3047 722 3315 
Q 1072 3584 1716 3584 
Q 2034 3584 2315 3537 
Q 2597 3491 2834 3397 
z
" transform="scale(0.015625)"/>
      </defs>
      <use xlink:href="#DejaVuSans-4e"/>
      <use xlink:href="#DejaVuSans-75" x="74.804688"/>
      <use xlink:href="#DejaVuSans-6d" x="138.183594"/>
      <use xlink:href="#DejaVuSans-62" x="235.595703"/>
      <use xlink:href="#DejaVuSans-65" x="299.072266"/>
      <use xlink:href="#DejaVuSans-72" x="360.595703"/>
      <use xlink:href="#DejaVuSans-20" x="401.708984"/>
      <use xlink:href="#DejaVuSans-6f" x="433.496094"/>
      <use xlink:href="#DejaVuSans-66" x="494.677734"/>
      <use xlink:href="#DejaVuSans-20" x="529.882812"/>
      <use xlink:href="#DejaVuSans-50" x="561.669922"/>
      <use xlink:href="#DejaVuSans-79" x="621.972656"/>
      <use xlink:href="#DejaVuSans-50" x="681.152344"/>
      <use xlink:href="#DejaVuSans-49" x="741.455078"/>
      <use xlink:href="#DejaVuSans-20" x="770.947266"/>
      <use xlink:href="#DejaVuSans-44" x="802.734375"/>
      <use xlink:href="#DejaVuSans-6f" x="879.736328"/>
      <use xlink:href="#DejaVuSans-77" x="940.917969"/>
      <use xlink:href="#DejaVuSans-6e" x="1022.705078"/>
      <use xlink:href="#DejaVuSans-6c" x="1086.083984"/>
      <use xlink:href="#DejaVuSans-6f" x="1113.867188"/>
      <use xlink:href="#DejaVuSans-61" x="1175.048828"/>
      <use xlink:href="#DejaVuSans-64" x="1236.328125"/>
      <use xlink:href="#DejaVuSans-73" x="1299.804688"/>
     </g>
    </g>
   </g>
  </g>
 </g>
 <defs>
  <clipPath id="pef3a5c5374">
   <rect x="90" y="17.28" width="558" height="110.88"/>
  </clipPath>
 </defs>
</svg>
