<?xml version="1.0" encoding="utf-8" standalone="no"?>
<!DOCTYPE svg PUBLIC "-//W3C//DTD SVG 1.1//EN"
  "http://www.w3.org/Graphics/SVG/1.1/DTD/svg11.dtd">
<svg xmlns:xlink="http://www.w3.org/1999/xlink" width="720pt" height="144pt" viewBox="0 0 720 144" xmlns="http://www.w3.org/2000/svg" version="1.1">
 <metadata>
  <rdf:RDF xmlns:dc="http://purl.org/dc/elements/1.1/" xmlns:cc="http://creativecommons.org/ns#" xmlns:rdf="http://www.w3.org/1999/02/22-rdf-syntax-ns#">
   <cc:Work>
    <dc:type rdf:resource="http://purl.org/dc/dcmitype/StillImage"/>
    <dc:date>2022-11-01T20:57:28.609754</dc:date>
    <dc:format>image/svg+xml</dc:format>
    <dc:creator>
     <cc:Agent>
      <dc:title>Matplotlib v3.6.1, https://matplotlib.org/</dc:title>
     </cc:Agent>
    </dc:creator>
   </cc:Work>
  </rdf:RDF>
 </metadata>
 <defs>
  <style type="text/css">*{stroke-linejoin: round; stroke-linecap: butt}</style>
 </defs>
 <g id="figure_1">
  <g id="patch_1">
   <path d="M 0 144 
L 720 144 
L 720 0 
L 0 0 
z
" style="fill: #ffffff"/>
  </g>
  <g id="axes_1">
   <g id="patch_2">
    <path d="M 90 128.16 
L 648 128.16 
L 648 17.28 
L 90 17.28 
z
" style="fill: #ffffff"/>
   </g>
   <g id="matplotlib.axis_1">
    <g id="xtick_1">
     <g id="line2d_1">
      <defs>
       <path id="mbac2f0a4a7" d="M 0 0 
L 0 3.5 
" style="stroke: #000000; stroke-width: 0.8"/>
      </defs>
      <g>
       <use xlink:href="#mbac2f0a4a7" x="115.363636" y="128.16" style="stroke: #000000; stroke-width: 0.8"/>
      </g>
     </g>
     <g id="text_1">
      <!-- 2020-06-18 -->
      <g transform="translate(86.305824 142.758438) scale(0.1 -0.1)">
       <defs>
        <path id="DejaVuSans-32" d="M 1228 531 
L 3431 531 
L 3431 0 
L 469 0 
L 469 531 
Q 828 903 1448 1529 
Q 2069 2156 2228 2338 
Q 2531 2678 2651 2914 
Q 2772 3150 2772 3378 
Q 2772 3750 2511 3984 
Q 2250 4219 1831 4219 
Q 1534 4219 1204 4116 
Q 875 4013 500 3803 
L 500 4441 
Q 881 4594 1212 4672 
Q 1544 4750 1819 4750 
Q 2544 4750 2975 4387 
Q 3406 4025 3406 3419 
Q 3406 3131 3298 2873 
Q 3191 2616 2906 2266 
Q 2828 2175 2409 1742 
Q 1991 1309 1228 531 
z
" transform="scale(0.015625)"/>
        <path id="DejaVuSans-30" d="M 2034 4250 
Q 1547 4250 1301 3770 
Q 1056 3291 1056 2328 
Q 1056 1369 1301 889 
Q 1547 409 2034 409 
Q 2525 409 2770 889 
Q 3016 1369 3016 2328 
Q 3016 3291 2770 3770 
Q 2525 4250 2034 4250 
z
M 2034 4750 
Q 2819 4750 3233 4129 
Q 3647 3509 3647 2328 
Q 3647 1150 3233 529 
Q 2819 -91 2034 -91 
Q 1250 -91 836 529 
Q 422 1150 422 2328 
Q 422 3509 836 4129 
Q 1250 4750 2034 4750 
z
" transform="scale(0.015625)"/>
        <path id="DejaVuSans-2d" d="M 313 2009 
L 1997 2009 
L 1997 1497 
L 313 1497 
L 313 2009 
z
" transform="scale(0.015625)"/>
        <path id="DejaVuSans-36" d="M 2113 2584 
Q 1688 2584 1439 2293 
Q 1191 2003 1191 1497 
Q 1191 994 1439 701 
Q 1688 409 2113 409 
Q 2538 409 2786 701 
Q 3034 994 3034 1497 
Q 3034 2003 2786 2293 
Q 2538 2584 2113 2584 
z
M 3366 4563 
L 3366 3988 
Q 3128 4100 2886 4159 
Q 2644 4219 2406 4219 
Q 1781 4219 1451 3797 
Q 1122 3375 1075 2522 
Q 1259 2794 1537 2939 
Q 1816 3084 2150 3084 
Q 2853 3084 3261 2657 
Q 3669 2231 3669 1497 
Q 3669 778 3244 343 
Q 2819 -91 2113 -91 
Q 1303 -91 875 529 
Q 447 1150 447 2328 
Q 447 3434 972 4092 
Q 1497 4750 2381 4750 
Q 2619 4750 2861 4703 
Q 3103 4656 3366 4563 
z
" transform="scale(0.015625)"/>
        <path id="DejaVuSans-31" d="M 794 531 
L 1825 531 
L 1825 4091 
L 703 3866 
L 703 4441 
L 1819 4666 
L 2450 4666 
L 2450 531 
L 3481 531 
L 3481 0 
L 794 0 
L 794 531 
z
" transform="scale(0.015625)"/>
        <path id="DejaVuSans-38" d="M 2034 2216 
Q 1584 2216 1326 1975 
Q 1069 1734 1069 1313 
Q 1069 891 1326 650 
Q 1584 409 2034 409 
Q 2484 409 2743 651 
Q 3003 894 3003 1313 
Q 3003 1734 2745 1975 
Q 2488 2216 2034 2216 
z
M 1403 2484 
Q 997 2584 770 2862 
Q 544 3141 544 3541 
Q 544 4100 942 4425 
Q 1341 4750 2034 4750 
Q 2731 4750 3128 4425 
Q 3525 4100 3525 3541 
Q 3525 3141 3298 2862 
Q 3072 2584 2669 2484 
Q 3125 2378 3379 2068 
Q 3634 1759 3634 1313 
Q 3634 634 3220 271 
Q 2806 -91 2034 -91 
Q 1263 -91 848 271 
Q 434 634 434 1313 
Q 434 1759 690 2068 
Q 947 2378 1403 2484 
z
M 1172 3481 
Q 1172 3119 1398 2916 
Q 1625 2713 2034 2713 
Q 2441 2713 2670 2916 
Q 2900 3119 2900 3481 
Q 2900 3844 2670 4047 
Q 2441 4250 2034 4250 
Q 1625 4250 1398 4047 
Q 1172 3844 1172 3481 
z
" transform="scale(0.015625)"/>
       </defs>
       <use xlink:href="#DejaVuSans-32"/>
       <use xlink:href="#DejaVuSans-30" x="63.623047"/>
       <use xlink:href="#DejaVuSans-32" x="127.246094"/>
       <use xlink:href="#DejaVuSans-30" x="190.869141"/>
       <use xlink:href="#DejaVuSans-2d" x="254.492188"/>
       <use xlink:href="#DejaVuSans-30" x="290.576172"/>
       <use xlink:href="#DejaVuSans-36" x="354.199219"/>
       <use xlink:href="#DejaVuSans-2d" x="417.822266"/>
       <use xlink:href="#DejaVuSans-31" x="453.90625"/>
       <use xlink:href="#DejaVuSans-38" x="517.529297"/>
      </g>
     </g>
    </g>
    <g id="xtick_2">
     <g id="line2d_2">
      <g>
       <use xlink:href="#mbac2f0a4a7" x="181.76059" y="128.16" style="stroke: #000000; stroke-width: 0.8"/>
      </g>
     </g>
     <g id="text_2">
      <!-- 2020-10-23 -->
      <g transform="translate(152.702778 142.758438) scale(0.1 -0.1)">
       <defs>
        <path id="DejaVuSans-33" d="M 2597 2516 
Q 3050 2419 3304 2112 
Q 3559 1806 3559 1356 
Q 3559 666 3084 287 
Q 2609 -91 1734 -91 
Q 1441 -91 1130 -33 
Q 819 25 488 141 
L 488 750 
Q 750 597 1062 519 
Q 1375 441 1716 441 
Q 2309 441 2620 675 
Q 2931 909 2931 1356 
Q 2931 1769 2642 2001 
Q 2353 2234 1838 2234 
L 1294 2234 
L 1294 2753 
L 1863 2753 
Q 2328 2753 2575 2939 
Q 2822 3125 2822 3475 
Q 2822 3834 2567 4026 
Q 2313 4219 1838 4219 
Q 1578 4219 1281 4162 
Q 984 4106 628 3988 
L 628 4550 
Q 988 4650 1302 4700 
Q 1616 4750 1894 4750 
Q 2613 4750 3031 4423 
Q 3450 4097 3450 3541 
Q 3450 3153 3228 2886 
Q 3006 2619 2597 2516 
z
" transform="scale(0.015625)"/>
       </defs>
       <use xlink:href="#DejaVuSans-32"/>
       <use xlink:href="#DejaVuSans-30" x="63.623047"/>
       <use xlink:href="#DejaVuSans-32" x="127.246094"/>
       <use xlink:href="#DejaVuSans-30" x="190.869141"/>
       <use xlink:href="#DejaVuSans-2d" x="254.492188"/>
       <use xlink:href="#DejaVuSans-31" x="290.576172"/>
       <use xlink:href="#DejaVuSans-30" x="354.199219"/>
       <use xlink:href="#DejaVuSans-2d" x="417.822266"/>
       <use xlink:href="#DejaVuSans-32" x="453.90625"/>
       <use xlink:href="#DejaVuSans-33" x="517.529297"/>
      </g>
     </g>
    </g>
    <g id="xtick_3">
     <g id="line2d_3">
      <g>
       <use xlink:href="#mbac2f0a4a7" x="248.157544" y="128.16" style="stroke: #000000; stroke-width: 0.8"/>
      </g>
     </g>
     <g id="text_3">
      <!-- 2021-03-13 -->
      <g transform="translate(219.099732 142.758438) scale(0.1 -0.1)">
       <use xlink:href="#DejaVuSans-32"/>
       <use xlink:href="#DejaVuSans-30" x="63.623047"/>
       <use xlink:href="#DejaVuSans-32" x="127.246094"/>
       <use xlink:href="#DejaVuSans-31" x="190.869141"/>
       <use xlink:href="#DejaVuSans-2d" x="254.492188"/>
       <use xlink:href="#DejaVuSans-30" x="290.576172"/>
       <use xlink:href="#DejaVuSans-33" x="354.199219"/>
       <use xlink:href="#DejaVuSans-2d" x="417.822266"/>
       <use xlink:href="#DejaVuSans-31" x="453.90625"/>
       <use xlink:href="#DejaVuSans-33" x="517.529297"/>
      </g>
     </g>
    </g>
    <g id="xtick_4">
     <g id="line2d_4">
      <g>
       <use xlink:href="#mbac2f0a4a7" x="314.554498" y="128.16" style="stroke: #000000; stroke-width: 0.8"/>
      </g>
     </g>
     <g id="text_4">
      <!-- 2021-07-01 -->
      <g transform="translate(285.496685 142.758438) scale(0.1 -0.1)">
       <defs>
        <path id="DejaVuSans-37" d="M 525 4666 
L 3525 4666 
L 3525 4397 
L 1831 0 
L 1172 0 
L 2766 4134 
L 525 4134 
L 525 4666 
z
" transform="scale(0.015625)"/>
       </defs>
       <use xlink:href="#DejaVuSans-32"/>
       <use xlink:href="#DejaVuSans-30" x="63.623047"/>
       <use xlink:href="#DejaVuSans-32" x="127.246094"/>
       <use xlink:href="#DejaVuSans-31" x="190.869141"/>
       <use xlink:href="#DejaVuSans-2d" x="254.492188"/>
       <use xlink:href="#DejaVuSans-30" x="290.576172"/>
       <use xlink:href="#DejaVuSans-37" x="354.199219"/>
       <use xlink:href="#DejaVuSans-2d" x="417.822266"/>
       <use xlink:href="#DejaVuSans-30" x="453.90625"/>
       <use xlink:href="#DejaVuSans-31" x="517.529297"/>
      </g>
     </g>
    </g>
    <g id="xtick_5">
     <g id="line2d_5">
      <g>
       <use xlink:href="#mbac2f0a4a7" x="380.951452" y="128.16" style="stroke: #000000; stroke-width: 0.8"/>
      </g>
     </g>
     <g id="text_5">
      <!-- 2021-10-16 -->
      <g transform="translate(351.893639 142.758438) scale(0.1 -0.1)">
       <use xlink:href="#DejaVuSans-32"/>
       <use xlink:href="#DejaVuSans-30" x="63.623047"/>
       <use xlink:href="#DejaVuSans-32" x="127.246094"/>
       <use xlink:href="#DejaVuSans-31" x="190.869141"/>
       <use xlink:href="#DejaVuSans-2d" x="254.492188"/>
       <use xlink:href="#DejaVuSans-31" x="290.576172"/>
       <use xlink:href="#DejaVuSans-30" x="354.199219"/>
       <use xlink:href="#DejaVuSans-2d" x="417.822266"/>
       <use xlink:href="#DejaVuSans-31" x="453.90625"/>
       <use xlink:href="#DejaVuSans-36" x="517.529297"/>
      </g>
     </g>
    </g>
    <g id="xtick_6">
     <g id="line2d_6">
      <g>
       <use xlink:href="#mbac2f0a4a7" x="447.348406" y="128.16" style="stroke: #000000; stroke-width: 0.8"/>
      </g>
     </g>
     <g id="text_6">
      <!-- 2022-01-27 -->
      <g transform="translate(418.290593 142.758438) scale(0.1 -0.1)">
       <use xlink:href="#DejaVuSans-32"/>
       <use xlink:href="#DejaVuSans-30" x="63.623047"/>
       <use xlink:href="#DejaVuSans-32" x="127.246094"/>
       <use xlink:href="#DejaVuSans-32" x="190.869141"/>
       <use xlink:href="#DejaVuSans-2d" x="254.492188"/>
       <use xlink:href="#DejaVuSans-30" x="290.576172"/>
       <use xlink:href="#DejaVuSans-31" x="354.199219"/>
       <use xlink:href="#DejaVuSans-2d" x="417.822266"/>
       <use xlink:href="#DejaVuSans-32" x="453.90625"/>
       <use xlink:href="#DejaVuSans-37" x="517.529297"/>
      </g>
     </g>
    </g>
    <g id="xtick_7">
     <g id="line2d_7">
      <g>
       <use xlink:href="#mbac2f0a4a7" x="513.745359" y="128.16" style="stroke: #000000; stroke-width: 0.8"/>
      </g>
     </g>
     <g id="text_7">
      <!-- 2022-05-12 -->
      <g transform="translate(484.687547 142.758438) scale(0.1 -0.1)">
       <defs>
        <path id="DejaVuSans-35" d="M 691 4666 
L 3169 4666 
L 3169 4134 
L 1269 4134 
L 1269 2991 
Q 1406 3038 1543 3061 
Q 1681 3084 1819 3084 
Q 2600 3084 3056 2656 
Q 3513 2228 3513 1497 
Q 3513 744 3044 326 
Q 2575 -91 1722 -91 
Q 1428 -91 1123 -41 
Q 819 9 494 109 
L 494 744 
Q 775 591 1075 516 
Q 1375 441 1709 441 
Q 2250 441 2565 725 
Q 2881 1009 2881 1497 
Q 2881 1984 2565 2268 
Q 2250 2553 1709 2553 
Q 1456 2553 1204 2497 
Q 953 2441 691 2322 
L 691 4666 
z
" transform="scale(0.015625)"/>
       </defs>
       <use xlink:href="#DejaVuSans-32"/>
       <use xlink:href="#DejaVuSans-30" x="63.623047"/>
       <use xlink:href="#DejaVuSans-32" x="127.246094"/>
       <use xlink:href="#DejaVuSans-32" x="190.869141"/>
       <use xlink:href="#DejaVuSans-2d" x="254.492188"/>
       <use xlink:href="#DejaVuSans-30" x="290.576172"/>
       <use xlink:href="#DejaVuSans-35" x="354.199219"/>
       <use xlink:href="#DejaVuSans-2d" x="417.822266"/>
       <use xlink:href="#DejaVuSans-31" x="453.90625"/>
       <use xlink:href="#DejaVuSans-32" x="517.529297"/>
      </g>
     </g>
    </g>
    <g id="xtick_8">
     <g id="line2d_8">
      <g>
       <use xlink:href="#mbac2f0a4a7" x="580.142313" y="128.16" style="stroke: #000000; stroke-width: 0.8"/>
      </g>
     </g>
     <g id="text_8">
      <!-- 2022-08-23 -->
      <g transform="translate(551.084501 142.758438) scale(0.1 -0.1)">
       <use xlink:href="#DejaVuSans-32"/>
       <use xlink:href="#DejaVuSans-30" x="63.623047"/>
       <use xlink:href="#DejaVuSans-32" x="127.246094"/>
       <use xlink:href="#DejaVuSans-32" x="190.869141"/>
       <use xlink:href="#DejaVuSans-2d" x="254.492188"/>
       <use xlink:href="#DejaVuSans-30" x="290.576172"/>
       <use xlink:href="#DejaVuSans-38" x="354.199219"/>
       <use xlink:href="#DejaVuSans-2d" x="417.822266"/>
       <use xlink:href="#DejaVuSans-32" x="453.90625"/>
       <use xlink:href="#DejaVuSans-33" x="517.529297"/>
      </g>
     </g>
    </g>
    <g id="xtick_9">
     <g id="line2d_9">
      <g>
       <use xlink:href="#mbac2f0a4a7" x="646.539267" y="128.16" style="stroke: #000000; stroke-width: 0.8"/>
      </g>
     </g>
    </g>
    <g id="text_9">
     <!-- date -->
     <g transform="translate(357.725 156.436563) scale(0.1 -0.1)">
      <defs>
       <path id="DejaVuSans-64" d="M 2906 2969 
L 2906 4863 
L 3481 4863 
L 3481 0 
L 2906 0 
L 2906 525 
Q 2725 213 2448 61 
Q 2172 -91 1784 -91 
Q 1150 -91 751 415 
Q 353 922 353 1747 
Q 353 2572 751 3078 
Q 1150 3584 1784 3584 
Q 2172 3584 2448 3432 
Q 2725 3281 2906 2969 
z
M 947 1747 
Q 947 1113 1208 752 
Q 1469 391 1925 391 
Q 2381 391 2643 752 
Q 2906 1113 2906 1747 
Q 2906 2381 2643 2742 
Q 2381 3103 1925 3103 
Q 1469 3103 1208 2742 
Q 947 2381 947 1747 
z
" transform="scale(0.015625)"/>
       <path id="DejaVuSans-61" d="M 2194 1759 
Q 1497 1759 1228 1600 
Q 959 1441 959 1056 
Q 959 750 1161 570 
Q 1363 391 1709 391 
Q 2188 391 2477 730 
Q 2766 1069 2766 1631 
L 2766 1759 
L 2194 1759 
z
M 3341 1997 
L 3341 0 
L 2766 0 
L 2766 531 
Q 2569 213 2275 61 
Q 1981 -91 1556 -91 
Q 1019 -91 701 211 
Q 384 513 384 1019 
Q 384 1609 779 1909 
Q 1175 2209 1959 2209 
L 2766 2209 
L 2766 2266 
Q 2766 2663 2505 2880 
Q 2244 3097 1772 3097 
Q 1472 3097 1187 3025 
Q 903 2953 641 2809 
L 641 3341 
Q 956 3463 1253 3523 
Q 1550 3584 1831 3584 
Q 2591 3584 2966 3190 
Q 3341 2797 3341 1997 
z
" transform="scale(0.015625)"/>
       <path id="DejaVuSans-74" d="M 1172 4494 
L 1172 3500 
L 2356 3500 
L 2356 3053 
L 1172 3053 
L 1172 1153 
Q 1172 725 1289 603 
Q 1406 481 1766 481 
L 2356 481 
L 2356 0 
L 1766 0 
Q 1100 0 847 248 
Q 594 497 594 1153 
L 594 3053 
L 172 3053 
L 172 3500 
L 594 3500 
L 594 4494 
L 1172 4494 
z
" transform="scale(0.015625)"/>
       <path id="DejaVuSans-65" d="M 3597 1894 
L 3597 1613 
L 953 1613 
Q 991 1019 1311 708 
Q 1631 397 2203 397 
Q 2534 397 2845 478 
Q 3156 559 3463 722 
L 3463 178 
Q 3153 47 2828 -22 
Q 2503 -91 2169 -91 
Q 1331 -91 842 396 
Q 353 884 353 1716 
Q 353 2575 817 3079 
Q 1281 3584 2069 3584 
Q 2775 3584 3186 3129 
Q 3597 2675 3597 1894 
z
M 3022 2063 
Q 3016 2534 2758 2815 
Q 2500 3097 2075 3097 
Q 1594 3097 1305 2825 
Q 1016 2553 972 2059 
L 3022 2063 
z
" transform="scale(0.015625)"/>
      </defs>
      <use xlink:href="#DejaVuSans-64"/>
      <use xlink:href="#DejaVuSans-61" x="63.476562"/>
      <use xlink:href="#DejaVuSans-74" x="124.755859"/>
      <use xlink:href="#DejaVuSans-65" x="163.964844"/>
     </g>
    </g>
   </g>
   <g id="matplotlib.axis_2">
    <g id="ytick_1">
     <g id="line2d_10">
      <defs>
       <path id="m6364d3bfe3" d="M 0 0 
L -3.5 0 
" style="stroke: #000000; stroke-width: 0.8"/>
      </defs>
      <g>
       <use xlink:href="#m6364d3bfe3" x="90" y="124.292093" style="stroke: #000000; stroke-width: 0.8"/>
      </g>
     </g>
     <g id="text_10">
      <!-- 0 -->
      <g transform="translate(76.6375 128.091312) scale(0.1 -0.1)">
       <use xlink:href="#DejaVuSans-30"/>
      </g>
     </g>
    </g>
    <g id="ytick_2">
     <g id="line2d_11">
      <g>
       <use xlink:href="#m6364d3bfe3" x="90" y="100.850233" style="stroke: #000000; stroke-width: 0.8"/>
      </g>
     </g>
     <g id="text_11">
      <!-- 20 -->
      <g transform="translate(70.275 104.649451) scale(0.1 -0.1)">
       <use xlink:href="#DejaVuSans-32"/>
       <use xlink:href="#DejaVuSans-30" x="63.623047"/>
      </g>
     </g>
    </g>
    <g id="ytick_3">
     <g id="line2d_12">
      <g>
       <use xlink:href="#m6364d3bfe3" x="90" y="77.408372" style="stroke: #000000; stroke-width: 0.8"/>
      </g>
     </g>
     <g id="text_12">
      <!-- 40 -->
      <g transform="translate(70.275 81.207591) scale(0.1 -0.1)">
       <defs>
        <path id="DejaVuSans-34" d="M 2419 4116 
L 825 1625 
L 2419 1625 
L 2419 4116 
z
M 2253 4666 
L 3047 4666 
L 3047 1625 
L 3713 1625 
L 3713 1100 
L 3047 1100 
L 3047 0 
L 2419 0 
L 2419 1100 
L 313 1100 
L 313 1709 
L 2253 4666 
z
" transform="scale(0.015625)"/>
       </defs>
       <use xlink:href="#DejaVuSans-34"/>
       <use xlink:href="#DejaVuSans-30" x="63.623047"/>
      </g>
     </g>
    </g>
    <g id="ytick_4">
     <g id="line2d_13">
      <g>
       <use xlink:href="#m6364d3bfe3" x="90" y="53.966512" style="stroke: #000000; stroke-width: 0.8"/>
      </g>
     </g>
     <g id="text_13">
      <!-- 60 -->
      <g transform="translate(70.275 57.76573) scale(0.1 -0.1)">
       <use xlink:href="#DejaVuSans-36"/>
       <use xlink:href="#DejaVuSans-30" x="63.623047"/>
      </g>
     </g>
    </g>
    <g id="ytick_5">
     <g id="line2d_14">
      <g>
       <use xlink:href="#m6364d3bfe3" x="90" y="30.524651" style="stroke: #000000; stroke-width: 0.8"/>
      </g>
     </g>
     <g id="text_14">
      <!-- 80 -->
      <g transform="translate(70.275 34.32387) scale(0.1 -0.1)">
       <use xlink:href="#DejaVuSans-38"/>
       <use xlink:href="#DejaVuSans-30" x="63.623047"/>
      </g>
     </g>
    </g>
   </g>
   <g id="line2d_15">
    <path d="M 115.363636 98.506047 
L 116.027606 107.882791 
L 116.691575 119.603721 
L 118.683484 123.12 
L 119.347454 120.775814 
L 120.011423 114.915349 
L 120.675393 121.947907 
L 121.339362 120.775814 
L 122.003332 121.947907 
L 122.667301 96.16186 
L 123.331271 116.087442 
L 123.99524 120.775814 
L 124.65921 114.915349 
L 125.323179 121.947907 
L 125.987149 117.259535 
L 126.651119 116.087442 
L 127.315088 123.12 
L 127.979058 120.775814 
L 128.643027 112.571163 
L 129.306997 114.915349 
L 129.970966 119.603721 
L 130.634936 120.775814 
L 131.298905 120.775814 
L 132.626844 123.12 
L 133.290814 113.743256 
L 133.954783 64.515349 
L 134.618753 117.259535 
L 135.282723 120.775814 
L 135.946692 120.775814 
L 136.610662 118.431628 
L 137.274631 121.947907 
L 137.938601 119.603721 
L 138.60257 123.12 
L 139.26654 120.775814 
L 139.930509 120.775814 
L 140.594479 123.12 
L 141.258448 121.947907 
L 141.922418 119.603721 
L 142.586387 119.603721 
L 143.250357 117.259535 
L 143.914327 123.12 
L 144.578296 123.12 
L 145.242266 121.947907 
L 145.906235 121.947907 
L 146.570205 123.12 
L 147.234174 123.12 
L 147.898144 105.538605 
L 148.562113 118.431628 
L 149.226083 116.087442 
L 149.890052 121.947907 
L 150.554022 118.431628 
L 151.217991 116.087442 
L 151.881961 118.431628 
L 152.545931 123.12 
L 153.2099 121.947907 
L 153.87387 118.431628 
L 154.537839 123.12 
L 155.865778 120.775814 
L 156.529748 116.087442 
L 157.857687 123.12 
L 158.521656 119.603721 
L 159.185626 118.431628 
L 159.849595 123.12 
L 160.513565 119.603721 
L 161.177535 123.12 
L 161.841504 121.947907 
L 162.505474 118.431628 
L 163.169443 123.12 
L 163.833413 121.947907 
L 164.497382 121.947907 
L 165.161352 123.12 
L 165.825321 118.431628 
L 166.489291 123.12 
L 167.15326 120.775814 
L 168.481199 120.775814 
L 169.145169 119.603721 
L 169.809139 117.259535 
L 170.473108 120.775814 
L 171.137078 117.259535 
L 171.801047 123.12 
L 173.128986 120.775814 
L 173.792956 118.431628 
L 174.456925 121.947907 
L 175.120895 123.12 
L 175.784864 121.947907 
L 176.448834 119.603721 
L 177.112803 120.775814 
L 177.776773 123.12 
L 178.440743 107.882791 
L 179.104712 123.12 
L 179.768682 120.775814 
L 180.432651 119.603721 
L 181.096621 123.12 
L 181.76059 119.603721 
L 182.42456 114.915349 
L 183.088529 120.775814 
L 183.752499 123.12 
L 184.416468 123.12 
L 185.080438 121.947907 
L 185.744407 123.12 
L 186.408377 123.12 
L 187.072347 121.947907 
L 187.736316 121.947907 
L 188.400286 120.775814 
L 189.064255 121.947907 
L 191.056164 118.431628 
L 191.720133 120.775814 
L 192.384103 120.775814 
L 193.712042 118.431628 
L 194.376011 121.947907 
L 195.039981 123.12 
L 195.70395 116.087442 
L 196.36792 121.947907 
L 197.03189 121.947907 
L 197.695859 114.915349 
L 198.359829 120.775814 
L 199.023798 120.775814 
L 199.687768 94.989767 
L 200.351737 118.431628 
L 201.015707 120.775814 
L 201.679676 116.087442 
L 202.343646 121.947907 
L 203.007615 117.259535 
L 203.671585 121.947907 
L 204.335554 114.915349 
L 204.999524 118.431628 
L 205.663494 123.12 
L 206.327463 121.947907 
L 206.991433 109.054884 
L 207.655402 118.431628 
L 208.319372 121.947907 
L 208.983341 123.12 
L 209.647311 123.12 
L 210.31128 114.915349 
L 210.97525 123.12 
L 211.639219 123.12 
L 212.303189 119.603721 
L 212.967158 123.12 
L 213.631128 123.12 
L 214.959067 118.431628 
L 215.623037 123.12 
L 216.287006 120.775814 
L 217.614945 123.12 
L 218.278915 118.431628 
L 218.942884 123.12 
L 219.606854 123.12 
L 220.270823 121.947907 
L 220.934793 123.12 
L 221.598762 123.12 
L 222.262732 118.431628 
L 223.590671 123.12 
L 224.91861 120.775814 
L 225.58258 120.775814 
L 226.246549 121.947907 
L 226.910519 119.603721 
L 227.574488 121.947907 
L 228.238458 123.12 
L 229.566397 123.12 
L 230.230366 118.431628 
L 230.894336 123.12 
L 231.558306 121.947907 
L 232.222275 123.12 
L 232.886245 118.431628 
L 233.550214 120.775814 
L 234.214184 121.947907 
L 234.878153 121.947907 
L 235.542123 119.603721 
L 236.206092 121.947907 
L 236.870062 120.775814 
L 237.534031 120.775814 
L 238.198001 121.947907 
L 238.86197 121.947907 
L 239.52594 123.12 
L 240.18991 116.087442 
L 240.853879 121.947907 
L 241.517849 121.947907 
L 242.181818 123.12 
L 242.845788 121.947907 
L 243.509757 123.12 
L 244.173727 123.12 
L 245.501666 120.775814 
L 246.165635 111.39907 
L 246.829605 114.915349 
L 247.493574 89.129302 
L 248.157544 123.12 
L 248.821514 121.947907 
L 249.485483 116.087442 
L 250.149453 118.431628 
L 250.813422 117.259535 
L 251.477392 107.882791 
L 252.141361 123.12 
L 252.805331 121.947907 
L 253.4693 119.603721 
L 254.13327 116.087442 
L 254.797239 111.39907 
L 255.461209 97.333953 
L 256.125178 106.710698 
L 256.789148 121.947907 
L 257.453118 84.44093 
L 258.117087 105.538605 
L 258.781057 114.915349 
L 259.445026 107.882791 
L 260.108996 118.431628 
L 260.772965 107.882791 
L 261.436935 109.054884 
L 262.100904 106.710698 
L 262.764874 97.333953 
L 263.428843 120.775814 
L 264.092813 116.087442 
L 264.756782 120.775814 
L 265.420752 123.12 
L 266.084722 118.431628 
L 266.748691 123.12 
L 267.412661 120.775814 
L 268.07663 123.12 
L 268.7406 121.947907 
L 269.404569 107.882791 
L 270.068539 120.775814 
L 270.732508 117.259535 
L 271.396478 119.603721 
L 272.060447 118.431628 
L 272.724417 123.12 
L 273.388386 116.087442 
L 274.052356 118.431628 
L 274.716326 121.947907 
L 275.380295 117.259535 
L 276.044265 123.12 
L 276.708234 120.775814 
L 277.372204 123.12 
L 278.036173 119.603721 
L 278.700143 121.947907 
L 279.364112 119.603721 
L 280.028082 118.431628 
L 280.692051 121.947907 
L 282.01999 121.947907 
L 282.68396 119.603721 
L 283.34793 118.431628 
L 284.011899 98.506047 
L 284.675869 100.850233 
L 285.339838 120.775814 
L 286.003808 121.947907 
L 286.667777 117.259535 
L 287.331747 118.431628 
L 287.995716 116.087442 
L 288.659686 121.947907 
L 289.323655 123.12 
L 289.987625 117.259535 
L 290.651594 116.087442 
L 291.315564 112.571163 
L 291.979534 121.947907 
L 292.643503 118.431628 
L 293.307473 121.947907 
L 293.971442 121.947907 
L 294.635412 123.12 
L 295.963351 118.431628 
L 297.29129 123.12 
L 297.955259 120.775814 
L 298.619229 121.947907 
L 299.283198 116.087442 
L 299.947168 113.743256 
L 300.611138 116.087442 
L 301.275107 117.259535 
L 301.939077 114.915349 
L 302.603046 105.538605 
L 303.267016 117.259535 
L 303.930985 119.603721 
L 304.594955 118.431628 
L 305.258924 114.915349 
L 305.922894 106.710698 
L 306.586863 121.947907 
L 307.250833 120.775814 
L 307.914802 123.12 
L 308.578772 113.743256 
L 309.242742 114.915349 
L 309.906711 119.603721 
L 310.570681 112.571163 
L 311.23465 110.226977 
L 311.89862 121.947907 
L 312.562589 121.947907 
L 313.226559 112.571163 
L 313.890528 91.473488 
L 314.554498 107.882791 
L 315.218467 117.259535 
L 315.882437 118.431628 
L 316.546406 118.431628 
L 317.874346 120.775814 
L 318.538315 117.259535 
L 319.202285 117.259535 
L 319.866254 121.947907 
L 320.530224 121.947907 
L 321.194193 120.775814 
L 321.858163 121.947907 
L 322.522132 114.915349 
L 323.186102 114.915349 
L 323.850071 117.259535 
L 324.514041 113.743256 
L 325.17801 105.538605 
L 325.84198 114.915349 
L 326.50595 114.915349 
L 327.169919 120.775814 
L 327.833889 120.775814 
L 328.497858 116.087442 
L 329.161828 123.12 
L 329.825797 103.194419 
L 330.489767 100.850233 
L 331.153736 117.259535 
L 331.817706 118.431628 
L 332.481675 107.882791 
L 333.145645 113.743256 
L 333.809614 120.775814 
L 334.473584 118.431628 
L 335.137554 123.12 
L 335.801523 113.743256 
L 336.465493 98.506047 
L 337.129462 121.947907 
L 337.793432 120.775814 
L 339.121371 123.12 
L 339.78534 119.603721 
L 340.44931 100.850233 
L 341.113279 114.915349 
L 341.777249 121.947907 
L 342.441218 121.947907 
L 343.105188 105.538605 
L 343.769158 120.775814 
L 344.433127 121.947907 
L 345.097097 120.775814 
L 347.752975 120.775814 
L 348.416944 118.431628 
L 349.080914 123.12 
L 349.744883 121.947907 
L 350.408853 121.947907 
L 351.072822 123.12 
L 351.736792 123.12 
L 352.400762 121.947907 
L 353.064731 123.12 
L 353.728701 117.259535 
L 354.39267 121.947907 
L 355.05664 118.431628 
L 355.720609 118.431628 
L 356.384579 116.087442 
L 357.048548 118.431628 
L 357.712518 123.12 
L 358.376487 120.775814 
L 359.704426 120.775814 
L 360.368396 123.12 
L 361.032366 121.947907 
L 361.696335 121.947907 
L 362.360305 119.603721 
L 363.024274 121.947907 
L 365.016183 121.947907 
L 365.680152 82.096744 
L 366.344122 118.431628 
L 367.008091 123.12 
L 367.672061 121.947907 
L 368.33603 119.603721 
L 369 123.12 
L 369.66397 118.431628 
L 370.327939 121.947907 
L 370.991909 117.259535 
L 371.655878 116.087442 
L 372.319848 116.087442 
L 372.983817 114.915349 
L 373.647787 100.850233 
L 374.311756 100.850233 
L 374.975726 116.087442 
L 375.639695 119.603721 
L 376.303665 121.947907 
L 376.967634 104.366512 
L 377.631604 118.431628 
L 378.295574 121.947907 
L 378.959543 121.947907 
L 379.623513 120.775814 
L 380.287482 120.775814 
L 380.951452 121.947907 
L 381.615421 121.947907 
L 382.279391 118.431628 
L 382.94336 123.12 
L 383.60733 121.947907 
L 384.271299 118.431628 
L 384.935269 118.431628 
L 385.599238 120.775814 
L 386.927178 100.850233 
L 387.591147 113.743256 
L 388.255117 112.571163 
L 388.919086 105.538605 
L 389.583056 110.226977 
L 390.910995 112.571163 
L 391.574964 111.39907 
L 392.238934 104.366512 
L 392.902903 107.882791 
L 393.566873 118.431628 
L 394.230842 119.603721 
L 394.894812 117.259535 
L 395.558782 117.259535 
L 396.222751 113.743256 
L 396.886721 116.087442 
L 397.55069 109.054884 
L 398.21466 114.915349 
L 398.878629 116.087442 
L 399.542599 111.39907 
L 400.206568 100.850233 
L 400.870538 111.39907 
L 401.534507 116.087442 
L 402.862446 111.39907 
L 403.526416 116.087442 
L 404.190386 107.882791 
L 404.854355 116.087442 
L 405.518325 111.39907 
L 406.182294 120.775814 
L 406.846264 116.087442 
L 407.510233 107.882791 
L 408.174203 120.775814 
L 408.838172 118.431628 
L 409.502142 119.603721 
L 410.166111 114.915349 
L 410.830081 113.743256 
L 411.49405 94.989767 
L 412.15802 91.473488 
L 412.82199 112.571163 
L 413.485959 80.924651 
L 414.149929 120.775814 
L 414.813898 118.431628 
L 415.477868 120.775814 
L 416.141837 90.301395 
L 416.805807 91.473488 
L 418.133746 121.947907 
L 418.797715 118.431628 
L 419.461685 109.054884 
L 420.125654 118.431628 
L 420.789624 118.431628 
L 421.453594 91.473488 
L 422.117563 111.39907 
L 422.781533 114.915349 
L 424.109472 117.259535 
L 424.773441 117.259535 
L 425.437411 114.915349 
L 427.429319 121.947907 
L 428.093289 113.743256 
L 428.757258 121.947907 
L 429.421228 121.947907 
L 430.749167 119.603721 
L 431.413137 123.12 
L 432.077106 119.603721 
L 432.741076 117.259535 
L 433.405045 120.775814 
L 434.069015 121.947907 
L 434.732984 121.947907 
L 435.396954 113.743256 
L 436.060923 123.12 
L 436.724893 97.333953 
L 437.388862 120.775814 
L 438.052832 121.947907 
L 438.716802 118.431628 
L 439.380771 118.431628 
L 440.044741 119.603721 
L 440.70871 121.947907 
L 441.37268 114.915349 
L 442.036649 120.775814 
L 442.700619 118.431628 
L 443.364588 119.603721 
L 444.028558 96.16186 
L 444.692527 120.775814 
L 445.356497 117.259535 
L 446.020466 123.12 
L 446.684436 123.12 
L 447.348406 121.947907 
L 448.012375 113.743256 
L 448.676345 121.947907 
L 449.340314 114.915349 
L 450.004284 118.431628 
L 450.668253 123.12 
L 451.332223 118.431628 
L 452.660162 118.431628 
L 453.324131 114.915349 
L 453.988101 112.571163 
L 454.65207 119.603721 
L 455.31604 119.603721 
L 455.98001 118.431628 
L 456.643979 120.775814 
L 457.307949 120.775814 
L 457.971918 118.431628 
L 458.635888 114.915349 
L 459.299857 114.915349 
L 459.963827 117.259535 
L 460.627796 121.947907 
L 461.955735 121.947907 
L 462.619705 100.850233 
L 463.283674 51.622326 
L 463.947644 75.064186 
L 464.611614 117.259535 
L 465.275583 120.775814 
L 465.939553 118.431628 
L 467.267492 102.022326 
L 467.931461 116.087442 
L 468.595431 96.16186 
L 469.2594 70.375814 
L 469.92337 118.431628 
L 470.587339 69.203721 
L 471.251309 109.054884 
L 471.915278 121.947907 
L 472.579248 55.138605 
L 473.243218 92.645581 
L 473.907187 105.538605 
L 474.571157 48.106047 
L 475.235126 117.259535 
L 475.899096 118.431628 
L 476.563065 91.473488 
L 477.227035 107.882791 
L 477.891004 87.957209 
L 478.554974 107.882791 
L 479.218943 119.603721 
L 479.882913 22.32 
L 480.546882 117.259535 
L 481.210852 118.431628 
L 481.874822 118.431628 
L 482.538791 110.226977 
L 483.202761 116.087442 
L 483.86673 99.67814 
L 484.5307 116.087442 
L 485.194669 119.603721 
L 485.858639 92.645581 
L 486.522608 92.645581 
L 487.186578 110.226977 
L 487.850547 89.129302 
L 488.514517 117.259535 
L 489.178486 118.431628 
L 489.842456 92.645581 
L 490.506426 123.12 
L 491.170395 120.775814 
L 491.834365 119.603721 
L 492.498334 117.259535 
L 493.162304 120.775814 
L 493.826273 119.603721 
L 494.490243 117.259535 
L 495.154212 111.39907 
L 495.818182 114.915349 
L 496.482151 104.366512 
L 497.81009 121.947907 
L 498.47406 123.12 
L 499.13803 113.743256 
L 500.465969 120.775814 
L 501.129938 123.12 
L 501.793908 117.259535 
L 502.457877 121.947907 
L 503.121847 117.259535 
L 503.785816 123.12 
L 505.113755 120.775814 
L 505.777725 123.12 
L 506.441694 123.12 
L 507.105664 120.775814 
L 508.433603 118.431628 
L 509.097573 118.431628 
L 509.761542 119.603721 
L 510.425512 119.603721 
L 511.089481 123.12 
L 511.753451 120.775814 
L 512.41742 83.268837 
L 513.08139 119.603721 
L 513.745359 121.947907 
L 515.073298 121.947907 
L 515.737268 116.087442 
L 516.401238 117.259535 
L 517.065207 104.366512 
L 517.729177 120.775814 
L 518.393146 114.915349 
L 519.057116 121.947907 
L 519.721085 123.12 
L 520.385055 119.603721 
L 521.049024 120.775814 
L 521.712994 114.915349 
L 522.376963 117.259535 
L 523.040933 120.775814 
L 523.704902 121.947907 
L 524.368872 120.775814 
L 525.032842 116.087442 
L 525.696811 118.431628 
L 526.360781 117.259535 
L 527.02475 119.603721 
L 527.68872 113.743256 
L 528.352689 116.087442 
L 529.016659 123.12 
L 529.680628 117.259535 
L 530.344598 118.431628 
L 531.008567 105.538605 
L 531.672537 121.947907 
L 532.336506 117.259535 
L 533.000476 117.259535 
L 533.664446 118.431628 
L 534.328415 106.710698 
L 534.992385 87.957209 
L 535.656354 118.431628 
L 536.320324 121.947907 
L 536.984293 114.915349 
L 537.648263 120.775814 
L 538.312232 119.603721 
L 538.976202 119.603721 
L 539.640171 123.12 
L 540.96811 120.775814 
L 541.63208 118.431628 
L 542.29605 121.947907 
L 542.960019 118.431628 
L 543.623989 121.947907 
L 544.287958 118.431628 
L 544.951928 123.12 
L 545.615897 118.431628 
L 546.279867 120.775814 
L 546.943836 120.775814 
L 547.607806 118.431628 
L 548.271775 123.12 
L 548.935745 118.431628 
L 549.599714 120.775814 
L 550.263684 113.743256 
L 550.927653 121.947907 
L 551.591623 112.571163 
L 552.255593 87.957209 
L 552.919562 121.947907 
L 553.583532 123.12 
L 554.247501 120.775814 
L 554.911471 114.915349 
L 555.57544 120.775814 
L 556.903379 123.12 
L 557.567349 113.743256 
L 558.231318 120.775814 
L 558.895288 119.603721 
L 559.559257 109.054884 
L 560.223227 100.850233 
L 560.887197 116.087442 
L 561.551166 120.775814 
L 562.215136 120.775814 
L 562.879105 114.915349 
L 563.543075 75.064186 
L 564.207044 104.366512 
L 564.871014 114.915349 
L 565.534983 119.603721 
L 566.198953 119.603721 
L 566.862922 85.613023 
L 567.526892 118.431628 
L 568.190861 121.947907 
L 569.518801 121.947907 
L 570.18277 119.603721 
L 570.84674 118.431628 
L 571.510709 120.775814 
L 572.174679 117.259535 
L 572.838648 119.603721 
L 573.502618 123.12 
L 574.166587 120.775814 
L 574.830557 116.087442 
L 575.494526 120.775814 
L 576.158496 114.915349 
L 576.822465 114.915349 
L 577.486435 117.259535 
L 578.150405 120.775814 
L 578.814374 99.67814 
L 579.478344 118.431628 
L 580.142313 104.366512 
L 580.806283 114.915349 
L 581.470252 117.259535 
L 582.134222 105.538605 
L 582.798191 120.775814 
L 583.462161 114.915349 
L 584.12613 110.226977 
L 584.7901 118.431628 
L 585.454069 113.743256 
L 586.118039 104.366512 
L 586.782009 103.194419 
L 587.445978 117.259535 
L 588.109948 96.16186 
L 588.773917 105.538605 
L 589.437887 119.603721 
L 590.101856 103.194419 
L 590.765826 121.947907 
L 591.429795 120.775814 
L 592.093765 110.226977 
L 592.757734 113.743256 
L 593.421704 90.301395 
L 594.085673 110.226977 
L 594.749643 109.054884 
L 595.413613 109.054884 
L 596.077582 111.39907 
L 596.741552 117.259535 
L 597.405521 118.431628 
L 598.069491 114.915349 
L 598.73346 117.259535 
L 599.39743 107.882791 
L 600.061399 118.431628 
L 600.725369 111.39907 
L 601.389338 102.022326 
L 602.053308 111.39907 
L 602.717277 112.571163 
L 603.381247 111.39907 
L 604.045217 121.947907 
L 604.709186 114.915349 
L 605.373156 120.775814 
L 606.037125 119.603721 
L 606.701095 109.054884 
L 607.365064 107.882791 
L 608.029034 90.301395 
L 608.693003 107.882791 
L 609.356973 104.366512 
L 610.020942 116.087442 
L 610.684912 118.431628 
L 611.348881 117.259535 
L 612.012851 117.259535 
L 612.676821 121.947907 
L 613.34079 117.259535 
L 614.00476 102.022326 
L 614.668729 117.259535 
L 615.996668 117.259535 
L 616.660638 121.947907 
L 617.324607 123.12 
L 617.988577 121.947907 
L 618.652546 116.087442 
L 619.316516 98.506047 
L 619.980485 118.431628 
L 620.644455 118.431628 
L 621.308425 123.12 
L 621.972394 123.12 
L 622.636364 85.613023 
L 622.636364 85.613023 
" clip-path="url(#p6cbada3964)" style="fill: none; stroke: #1f77b4; stroke-width: 1.5; stroke-linecap: square"/>
   </g>
   <g id="patch_3">
    <path d="M 90 128.16 
L 90 17.28 
" style="fill: none; stroke: #000000; stroke-width: 0.8; stroke-linejoin: miter; stroke-linecap: square"/>
   </g>
   <g id="patch_4">
    <path d="M 648 128.16 
L 648 17.28 
" style="fill: none; stroke: #000000; stroke-width: 0.8; stroke-linejoin: miter; stroke-linecap: square"/>
   </g>
   <g id="patch_5">
    <path d="M 90 128.16 
L 648 128.16 
" style="fill: none; stroke: #000000; stroke-width: 0.8; stroke-linejoin: miter; stroke-linecap: square"/>
   </g>
   <g id="patch_6">
    <path d="M 90 17.28 
L 648 17.28 
" style="fill: none; stroke: #000000; stroke-width: 0.8; stroke-linejoin: miter; stroke-linecap: square"/>
   </g>
   <g id="legend_1">
    <g id="patch_7">
     <path d="M 97 39.958125 
L 264.190625 39.958125 
Q 266.190625 39.958125 266.190625 37.958125 
L 266.190625 24.28 
Q 266.190625 22.28 264.190625 22.28 
L 97 22.28 
Q 95 22.28 95 24.28 
L 95 37.958125 
Q 95 39.958125 97 39.958125 
z
" style="fill: #ffffff; opacity: 0.8; stroke: #cccccc; stroke-linejoin: miter"/>
    </g>
    <g id="line2d_16">
     <path d="M 99 30.378437 
L 109 30.378437 
L 119 30.378437 
" style="fill: none; stroke: #1f77b4; stroke-width: 1.5; stroke-linecap: square"/>
    </g>
    <g id="text_15">
     <!-- Number of PyPI Downloads -->
     <g transform="translate(127 33.878437) scale(0.1 -0.1)">
      <defs>
       <path id="DejaVuSans-4e" d="M 628 4666 
L 1478 4666 
L 3547 763 
L 3547 4666 
L 4159 4666 
L 4159 0 
L 3309 0 
L 1241 3903 
L 1241 0 
L 628 0 
L 628 4666 
z
" transform="scale(0.015625)"/>
       <path id="DejaVuSans-75" d="M 544 1381 
L 544 3500 
L 1119 3500 
L 1119 1403 
Q 1119 906 1312 657 
Q 1506 409 1894 409 
Q 2359 409 2629 706 
Q 2900 1003 2900 1516 
L 2900 3500 
L 3475 3500 
L 3475 0 
L 2900 0 
L 2900 538 
Q 2691 219 2414 64 
Q 2138 -91 1772 -91 
Q 1169 -91 856 284 
Q 544 659 544 1381 
z
M 1991 3584 
L 1991 3584 
z
" transform="scale(0.015625)"/>
       <path id="DejaVuSans-6d" d="M 3328 2828 
Q 3544 3216 3844 3400 
Q 4144 3584 4550 3584 
Q 5097 3584 5394 3201 
Q 5691 2819 5691 2113 
L 5691 0 
L 5113 0 
L 5113 2094 
Q 5113 2597 4934 2840 
Q 4756 3084 4391 3084 
Q 3944 3084 3684 2787 
Q 3425 2491 3425 1978 
L 3425 0 
L 2847 0 
L 2847 2094 
Q 2847 2600 2669 2842 
Q 2491 3084 2119 3084 
Q 1678 3084 1418 2786 
Q 1159 2488 1159 1978 
L 1159 0 
L 581 0 
L 581 3500 
L 1159 3500 
L 1159 2956 
Q 1356 3278 1631 3431 
Q 1906 3584 2284 3584 
Q 2666 3584 2933 3390 
Q 3200 3197 3328 2828 
z
" transform="scale(0.015625)"/>
       <path id="DejaVuSans-62" d="M 3116 1747 
Q 3116 2381 2855 2742 
Q 2594 3103 2138 3103 
Q 1681 3103 1420 2742 
Q 1159 2381 1159 1747 
Q 1159 1113 1420 752 
Q 1681 391 2138 391 
Q 2594 391 2855 752 
Q 3116 1113 3116 1747 
z
M 1159 2969 
Q 1341 3281 1617 3432 
Q 1894 3584 2278 3584 
Q 2916 3584 3314 3078 
Q 3713 2572 3713 1747 
Q 3713 922 3314 415 
Q 2916 -91 2278 -91 
Q 1894 -91 1617 61 
Q 1341 213 1159 525 
L 1159 0 
L 581 0 
L 581 4863 
L 1159 4863 
L 1159 2969 
z
" transform="scale(0.015625)"/>
       <path id="DejaVuSans-72" d="M 2631 2963 
Q 2534 3019 2420 3045 
Q 2306 3072 2169 3072 
Q 1681 3072 1420 2755 
Q 1159 2438 1159 1844 
L 1159 0 
L 581 0 
L 581 3500 
L 1159 3500 
L 1159 2956 
Q 1341 3275 1631 3429 
Q 1922 3584 2338 3584 
Q 2397 3584 2469 3576 
Q 2541 3569 2628 3553 
L 2631 2963 
z
" transform="scale(0.015625)"/>
       <path id="DejaVuSans-20" transform="scale(0.015625)"/>
       <path id="DejaVuSans-6f" d="M 1959 3097 
Q 1497 3097 1228 2736 
Q 959 2375 959 1747 
Q 959 1119 1226 758 
Q 1494 397 1959 397 
Q 2419 397 2687 759 
Q 2956 1122 2956 1747 
Q 2956 2369 2687 2733 
Q 2419 3097 1959 3097 
z
M 1959 3584 
Q 2709 3584 3137 3096 
Q 3566 2609 3566 1747 
Q 3566 888 3137 398 
Q 2709 -91 1959 -91 
Q 1206 -91 779 398 
Q 353 888 353 1747 
Q 353 2609 779 3096 
Q 1206 3584 1959 3584 
z
" transform="scale(0.015625)"/>
       <path id="DejaVuSans-66" d="M 2375 4863 
L 2375 4384 
L 1825 4384 
Q 1516 4384 1395 4259 
Q 1275 4134 1275 3809 
L 1275 3500 
L 2222 3500 
L 2222 3053 
L 1275 3053 
L 1275 0 
L 697 0 
L 697 3053 
L 147 3053 
L 147 3500 
L 697 3500 
L 697 3744 
Q 697 4328 969 4595 
Q 1241 4863 1831 4863 
L 2375 4863 
z
" transform="scale(0.015625)"/>
       <path id="DejaVuSans-50" d="M 1259 4147 
L 1259 2394 
L 2053 2394 
Q 2494 2394 2734 2622 
Q 2975 2850 2975 3272 
Q 2975 3691 2734 3919 
Q 2494 4147 2053 4147 
L 1259 4147 
z
M 628 4666 
L 2053 4666 
Q 2838 4666 3239 4311 
Q 3641 3956 3641 3272 
Q 3641 2581 3239 2228 
Q 2838 1875 2053 1875 
L 1259 1875 
L 1259 0 
L 628 0 
L 628 4666 
z
" transform="scale(0.015625)"/>
       <path id="DejaVuSans-79" d="M 2059 -325 
Q 1816 -950 1584 -1140 
Q 1353 -1331 966 -1331 
L 506 -1331 
L 506 -850 
L 844 -850 
Q 1081 -850 1212 -737 
Q 1344 -625 1503 -206 
L 1606 56 
L 191 3500 
L 800 3500 
L 1894 763 
L 2988 3500 
L 3597 3500 
L 2059 -325 
z
" transform="scale(0.015625)"/>
       <path id="DejaVuSans-49" d="M 628 4666 
L 1259 4666 
L 1259 0 
L 628 0 
L 628 4666 
z
" transform="scale(0.015625)"/>
       <path id="DejaVuSans-44" d="M 1259 4147 
L 1259 519 
L 2022 519 
Q 2988 519 3436 956 
Q 3884 1394 3884 2338 
Q 3884 3275 3436 3711 
Q 2988 4147 2022 4147 
L 1259 4147 
z
M 628 4666 
L 1925 4666 
Q 3281 4666 3915 4102 
Q 4550 3538 4550 2338 
Q 4550 1131 3912 565 
Q 3275 0 1925 0 
L 628 0 
L 628 4666 
z
" transform="scale(0.015625)"/>
       <path id="DejaVuSans-77" d="M 269 3500 
L 844 3500 
L 1563 769 
L 2278 3500 
L 2956 3500 
L 3675 769 
L 4391 3500 
L 4966 3500 
L 4050 0 
L 3372 0 
L 2619 2869 
L 1863 0 
L 1184 0 
L 269 3500 
z
" transform="scale(0.015625)"/>
       <path id="DejaVuSans-6e" d="M 3513 2113 
L 3513 0 
L 2938 0 
L 2938 2094 
Q 2938 2591 2744 2837 
Q 2550 3084 2163 3084 
Q 1697 3084 1428 2787 
Q 1159 2491 1159 1978 
L 1159 0 
L 581 0 
L 581 3500 
L 1159 3500 
L 1159 2956 
Q 1366 3272 1645 3428 
Q 1925 3584 2291 3584 
Q 2894 3584 3203 3211 
Q 3513 2838 3513 2113 
z
" transform="scale(0.015625)"/>
       <path id="DejaVuSans-6c" d="M 603 4863 
L 1178 4863 
L 1178 0 
L 603 0 
L 603 4863 
z
" transform="scale(0.015625)"/>
       <path id="DejaVuSans-73" d="M 2834 3397 
L 2834 2853 
Q 2591 2978 2328 3040 
Q 2066 3103 1784 3103 
Q 1356 3103 1142 2972 
Q 928 2841 928 2578 
Q 928 2378 1081 2264 
Q 1234 2150 1697 2047 
L 1894 2003 
Q 2506 1872 2764 1633 
Q 3022 1394 3022 966 
Q 3022 478 2636 193 
Q 2250 -91 1575 -91 
Q 1294 -91 989 -36 
Q 684 19 347 128 
L 347 722 
Q 666 556 975 473 
Q 1284 391 1588 391 
Q 1994 391 2212 530 
Q 2431 669 2431 922 
Q 2431 1156 2273 1281 
Q 2116 1406 1581 1522 
L 1381 1569 
Q 847 1681 609 1914 
Q 372 2147 372 2553 
Q 372 3047 722 3315 
Q 1072 3584 1716 3584 
Q 2034 3584 2315 3537 
Q 2597 3491 2834 3397 
z
" transform="scale(0.015625)"/>
      </defs>
      <use xlink:href="#DejaVuSans-4e"/>
      <use xlink:href="#DejaVuSans-75" x="74.804688"/>
      <use xlink:href="#DejaVuSans-6d" x="138.183594"/>
      <use xlink:href="#DejaVuSans-62" x="235.595703"/>
      <use xlink:href="#DejaVuSans-65" x="299.072266"/>
      <use xlink:href="#DejaVuSans-72" x="360.595703"/>
      <use xlink:href="#DejaVuSans-20" x="401.708984"/>
      <use xlink:href="#DejaVuSans-6f" x="433.496094"/>
      <use xlink:href="#DejaVuSans-66" x="494.677734"/>
      <use xlink:href="#DejaVuSans-20" x="529.882812"/>
      <use xlink:href="#DejaVuSans-50" x="561.669922"/>
      <use xlink:href="#DejaVuSans-79" x="621.972656"/>
      <use xlink:href="#DejaVuSans-50" x="681.152344"/>
      <use xlink:href="#DejaVuSans-49" x="741.455078"/>
      <use xlink:href="#DejaVuSans-20" x="770.947266"/>
      <use xlink:href="#DejaVuSans-44" x="802.734375"/>
      <use xlink:href="#DejaVuSans-6f" x="879.736328"/>
      <use xlink:href="#DejaVuSans-77" x="940.917969"/>
      <use xlink:href="#DejaVuSans-6e" x="1022.705078"/>
      <use xlink:href="#DejaVuSans-6c" x="1086.083984"/>
      <use xlink:href="#DejaVuSans-6f" x="1113.867188"/>
      <use xlink:href="#DejaVuSans-61" x="1175.048828"/>
      <use xlink:href="#DejaVuSans-64" x="1236.328125"/>
      <use xlink:href="#DejaVuSans-73" x="1299.804688"/>
     </g>
    </g>
   </g>
  </g>
 </g>
 <defs>
  <clipPath id="p6cbada3964">
   <rect x="90" y="17.28" width="558" height="110.88"/>
  </clipPath>
 </defs>
</svg>
