<?xml version="1.0" encoding="utf-8" standalone="no"?>
<!DOCTYPE svg PUBLIC "-//W3C//DTD SVG 1.1//EN"
  "http://www.w3.org/Graphics/SVG/1.1/DTD/svg11.dtd">
<svg xmlns:xlink="http://www.w3.org/1999/xlink" width="720pt" height="144pt" viewBox="0 0 720 144" xmlns="http://www.w3.org/2000/svg" version="1.1">
 <metadata>
  <rdf:RDF xmlns:dc="http://purl.org/dc/elements/1.1/" xmlns:cc="http://creativecommons.org/ns#" xmlns:rdf="http://www.w3.org/1999/02/22-rdf-syntax-ns#">
   <cc:Work>
    <dc:type rdf:resource="http://purl.org/dc/dcmitype/StillImage"/>
    <dc:date>2024-05-01T20:57:00.508010</dc:date>
    <dc:format>image/svg+xml</dc:format>
    <dc:creator>
     <cc:Agent>
      <dc:title>Matplotlib v3.8.4, https://matplotlib.org/</dc:title>
     </cc:Agent>
    </dc:creator>
   </cc:Work>
  </rdf:RDF>
 </metadata>
 <defs>
  <style type="text/css">*{stroke-linejoin: round; stroke-linecap: butt}</style>
 </defs>
 <g id="figure_1">
  <g id="patch_1">
   <path d="M 0 144 
L 720 144 
L 720 0 
L 0 0 
z
" style="fill: #ffffff"/>
  </g>
  <g id="axes_1">
   <g id="patch_2">
    <path d="M 90 128.16 
L 648 128.16 
L 648 17.28 
L 90 17.28 
z
" style="fill: #ffffff"/>
   </g>
   <g id="matplotlib.axis_1">
    <g id="xtick_1">
     <g id="line2d_1">
      <defs>
       <path id="mb8ad91002b" d="M 0 0 
L 0 3.5 
" style="stroke: #000000; stroke-width: 0.8"/>
      </defs>
      <g>
       <use xlink:href="#mb8ad91002b" x="115.363636" y="128.16" style="stroke: #000000; stroke-width: 0.8"/>
      </g>
     </g>
     <g id="text_1">
      <!-- 2020-06-18 -->
      <g transform="translate(86.305824 142.758438) scale(0.1 -0.1)">
       <defs>
        <path id="DejaVuSans-32" d="M 1228 531 
L 3431 531 
L 3431 0 
L 469 0 
L 469 531 
Q 828 903 1448 1529 
Q 2069 2156 2228 2338 
Q 2531 2678 2651 2914 
Q 2772 3150 2772 3378 
Q 2772 3750 2511 3984 
Q 2250 4219 1831 4219 
Q 1534 4219 1204 4116 
Q 875 4013 500 3803 
L 500 4441 
Q 881 4594 1212 4672 
Q 1544 4750 1819 4750 
Q 2544 4750 2975 4387 
Q 3406 4025 3406 3419 
Q 3406 3131 3298 2873 
Q 3191 2616 2906 2266 
Q 2828 2175 2409 1742 
Q 1991 1309 1228 531 
z
" transform="scale(0.015625)"/>
        <path id="DejaVuSans-30" d="M 2034 4250 
Q 1547 4250 1301 3770 
Q 1056 3291 1056 2328 
Q 1056 1369 1301 889 
Q 1547 409 2034 409 
Q 2525 409 2770 889 
Q 3016 1369 3016 2328 
Q 3016 3291 2770 3770 
Q 2525 4250 2034 4250 
z
M 2034 4750 
Q 2819 4750 3233 4129 
Q 3647 3509 3647 2328 
Q 3647 1150 3233 529 
Q 2819 -91 2034 -91 
Q 1250 -91 836 529 
Q 422 1150 422 2328 
Q 422 3509 836 4129 
Q 1250 4750 2034 4750 
z
" transform="scale(0.015625)"/>
        <path id="DejaVuSans-2d" d="M 313 2009 
L 1997 2009 
L 1997 1497 
L 313 1497 
L 313 2009 
z
" transform="scale(0.015625)"/>
        <path id="DejaVuSans-36" d="M 2113 2584 
Q 1688 2584 1439 2293 
Q 1191 2003 1191 1497 
Q 1191 994 1439 701 
Q 1688 409 2113 409 
Q 2538 409 2786 701 
Q 3034 994 3034 1497 
Q 3034 2003 2786 2293 
Q 2538 2584 2113 2584 
z
M 3366 4563 
L 3366 3988 
Q 3128 4100 2886 4159 
Q 2644 4219 2406 4219 
Q 1781 4219 1451 3797 
Q 1122 3375 1075 2522 
Q 1259 2794 1537 2939 
Q 1816 3084 2150 3084 
Q 2853 3084 3261 2657 
Q 3669 2231 3669 1497 
Q 3669 778 3244 343 
Q 2819 -91 2113 -91 
Q 1303 -91 875 529 
Q 447 1150 447 2328 
Q 447 3434 972 4092 
Q 1497 4750 2381 4750 
Q 2619 4750 2861 4703 
Q 3103 4656 3366 4563 
z
" transform="scale(0.015625)"/>
        <path id="DejaVuSans-31" d="M 794 531 
L 1825 531 
L 1825 4091 
L 703 3866 
L 703 4441 
L 1819 4666 
L 2450 4666 
L 2450 531 
L 3481 531 
L 3481 0 
L 794 0 
L 794 531 
z
" transform="scale(0.015625)"/>
        <path id="DejaVuSans-38" d="M 2034 2216 
Q 1584 2216 1326 1975 
Q 1069 1734 1069 1313 
Q 1069 891 1326 650 
Q 1584 409 2034 409 
Q 2484 409 2743 651 
Q 3003 894 3003 1313 
Q 3003 1734 2745 1975 
Q 2488 2216 2034 2216 
z
M 1403 2484 
Q 997 2584 770 2862 
Q 544 3141 544 3541 
Q 544 4100 942 4425 
Q 1341 4750 2034 4750 
Q 2731 4750 3128 4425 
Q 3525 4100 3525 3541 
Q 3525 3141 3298 2862 
Q 3072 2584 2669 2484 
Q 3125 2378 3379 2068 
Q 3634 1759 3634 1313 
Q 3634 634 3220 271 
Q 2806 -91 2034 -91 
Q 1263 -91 848 271 
Q 434 634 434 1313 
Q 434 1759 690 2068 
Q 947 2378 1403 2484 
z
M 1172 3481 
Q 1172 3119 1398 2916 
Q 1625 2713 2034 2713 
Q 2441 2713 2670 2916 
Q 2900 3119 2900 3481 
Q 2900 3844 2670 4047 
Q 2441 4250 2034 4250 
Q 1625 4250 1398 4047 
Q 1172 3844 1172 3481 
z
" transform="scale(0.015625)"/>
       </defs>
       <use xlink:href="#DejaVuSans-32"/>
       <use xlink:href="#DejaVuSans-30" x="63.623047"/>
       <use xlink:href="#DejaVuSans-32" x="127.246094"/>
       <use xlink:href="#DejaVuSans-30" x="190.869141"/>
       <use xlink:href="#DejaVuSans-2d" x="254.492188"/>
       <use xlink:href="#DejaVuSans-30" x="290.576172"/>
       <use xlink:href="#DejaVuSans-36" x="354.199219"/>
       <use xlink:href="#DejaVuSans-2d" x="417.822266"/>
       <use xlink:href="#DejaVuSans-31" x="453.90625"/>
       <use xlink:href="#DejaVuSans-38" x="517.529297"/>
      </g>
     </g>
    </g>
    <g id="xtick_2">
     <g id="line2d_2">
      <g>
       <use xlink:href="#mb8ad91002b" x="194.31659" y="128.16" style="stroke: #000000; stroke-width: 0.8"/>
      </g>
     </g>
     <g id="text_2">
      <!-- 2021-03-13 -->
      <g transform="translate(165.258778 142.758438) scale(0.1 -0.1)">
       <defs>
        <path id="DejaVuSans-33" d="M 2597 2516 
Q 3050 2419 3304 2112 
Q 3559 1806 3559 1356 
Q 3559 666 3084 287 
Q 2609 -91 1734 -91 
Q 1441 -91 1130 -33 
Q 819 25 488 141 
L 488 750 
Q 750 597 1062 519 
Q 1375 441 1716 441 
Q 2309 441 2620 675 
Q 2931 909 2931 1356 
Q 2931 1769 2642 2001 
Q 2353 2234 1838 2234 
L 1294 2234 
L 1294 2753 
L 1863 2753 
Q 2328 2753 2575 2939 
Q 2822 3125 2822 3475 
Q 2822 3834 2567 4026 
Q 2313 4219 1838 4219 
Q 1578 4219 1281 4162 
Q 984 4106 628 3988 
L 628 4550 
Q 988 4650 1302 4700 
Q 1616 4750 1894 4750 
Q 2613 4750 3031 4423 
Q 3450 4097 3450 3541 
Q 3450 3153 3228 2886 
Q 3006 2619 2597 2516 
z
" transform="scale(0.015625)"/>
       </defs>
       <use xlink:href="#DejaVuSans-32"/>
       <use xlink:href="#DejaVuSans-30" x="63.623047"/>
       <use xlink:href="#DejaVuSans-32" x="127.246094"/>
       <use xlink:href="#DejaVuSans-31" x="190.869141"/>
       <use xlink:href="#DejaVuSans-2d" x="254.492188"/>
       <use xlink:href="#DejaVuSans-30" x="290.576172"/>
       <use xlink:href="#DejaVuSans-33" x="354.199219"/>
       <use xlink:href="#DejaVuSans-2d" x="417.822266"/>
       <use xlink:href="#DejaVuSans-31" x="453.90625"/>
       <use xlink:href="#DejaVuSans-33" x="517.529297"/>
      </g>
     </g>
    </g>
    <g id="xtick_3">
     <g id="line2d_3">
      <g>
       <use xlink:href="#mb8ad91002b" x="273.269544" y="128.16" style="stroke: #000000; stroke-width: 0.8"/>
      </g>
     </g>
     <g id="text_3">
      <!-- 2021-10-16 -->
      <g transform="translate(244.211731 142.758438) scale(0.1 -0.1)">
       <use xlink:href="#DejaVuSans-32"/>
       <use xlink:href="#DejaVuSans-30" x="63.623047"/>
       <use xlink:href="#DejaVuSans-32" x="127.246094"/>
       <use xlink:href="#DejaVuSans-31" x="190.869141"/>
       <use xlink:href="#DejaVuSans-2d" x="254.492188"/>
       <use xlink:href="#DejaVuSans-31" x="290.576172"/>
       <use xlink:href="#DejaVuSans-30" x="354.199219"/>
       <use xlink:href="#DejaVuSans-2d" x="417.822266"/>
       <use xlink:href="#DejaVuSans-31" x="453.90625"/>
       <use xlink:href="#DejaVuSans-36" x="517.529297"/>
      </g>
     </g>
    </g>
    <g id="xtick_4">
     <g id="line2d_4">
      <g>
       <use xlink:href="#mb8ad91002b" x="352.222497" y="128.16" style="stroke: #000000; stroke-width: 0.8"/>
      </g>
     </g>
     <g id="text_4">
      <!-- 2022-05-12 -->
      <g transform="translate(323.164685 142.758438) scale(0.1 -0.1)">
       <defs>
        <path id="DejaVuSans-35" d="M 691 4666 
L 3169 4666 
L 3169 4134 
L 1269 4134 
L 1269 2991 
Q 1406 3038 1543 3061 
Q 1681 3084 1819 3084 
Q 2600 3084 3056 2656 
Q 3513 2228 3513 1497 
Q 3513 744 3044 326 
Q 2575 -91 1722 -91 
Q 1428 -91 1123 -41 
Q 819 9 494 109 
L 494 744 
Q 775 591 1075 516 
Q 1375 441 1709 441 
Q 2250 441 2565 725 
Q 2881 1009 2881 1497 
Q 2881 1984 2565 2268 
Q 2250 2553 1709 2553 
Q 1456 2553 1204 2497 
Q 953 2441 691 2322 
L 691 4666 
z
" transform="scale(0.015625)"/>
       </defs>
       <use xlink:href="#DejaVuSans-32"/>
       <use xlink:href="#DejaVuSans-30" x="63.623047"/>
       <use xlink:href="#DejaVuSans-32" x="127.246094"/>
       <use xlink:href="#DejaVuSans-32" x="190.869141"/>
       <use xlink:href="#DejaVuSans-2d" x="254.492188"/>
       <use xlink:href="#DejaVuSans-30" x="290.576172"/>
       <use xlink:href="#DejaVuSans-35" x="354.199219"/>
       <use xlink:href="#DejaVuSans-2d" x="417.822266"/>
       <use xlink:href="#DejaVuSans-31" x="453.90625"/>
       <use xlink:href="#DejaVuSans-32" x="517.529297"/>
      </g>
     </g>
    </g>
    <g id="xtick_5">
     <g id="line2d_5">
      <g>
       <use xlink:href="#mb8ad91002b" x="431.175451" y="128.16" style="stroke: #000000; stroke-width: 0.8"/>
      </g>
     </g>
     <g id="text_5">
      <!-- 2022-12-07 -->
      <g transform="translate(402.117639 142.758438) scale(0.1 -0.1)">
       <defs>
        <path id="DejaVuSans-37" d="M 525 4666 
L 3525 4666 
L 3525 4397 
L 1831 0 
L 1172 0 
L 2766 4134 
L 525 4134 
L 525 4666 
z
" transform="scale(0.015625)"/>
       </defs>
       <use xlink:href="#DejaVuSans-32"/>
       <use xlink:href="#DejaVuSans-30" x="63.623047"/>
       <use xlink:href="#DejaVuSans-32" x="127.246094"/>
       <use xlink:href="#DejaVuSans-32" x="190.869141"/>
       <use xlink:href="#DejaVuSans-2d" x="254.492188"/>
       <use xlink:href="#DejaVuSans-31" x="290.576172"/>
       <use xlink:href="#DejaVuSans-32" x="354.199219"/>
       <use xlink:href="#DejaVuSans-2d" x="417.822266"/>
       <use xlink:href="#DejaVuSans-30" x="453.90625"/>
       <use xlink:href="#DejaVuSans-37" x="517.529297"/>
      </g>
     </g>
    </g>
    <g id="xtick_6">
     <g id="line2d_6">
      <g>
       <use xlink:href="#mb8ad91002b" x="510.128405" y="128.16" style="stroke: #000000; stroke-width: 0.8"/>
      </g>
     </g>
     <g id="text_6">
      <!-- 2023-07-11 -->
      <g transform="translate(481.070592 142.758438) scale(0.1 -0.1)">
       <use xlink:href="#DejaVuSans-32"/>
       <use xlink:href="#DejaVuSans-30" x="63.623047"/>
       <use xlink:href="#DejaVuSans-32" x="127.246094"/>
       <use xlink:href="#DejaVuSans-33" x="190.869141"/>
       <use xlink:href="#DejaVuSans-2d" x="254.492188"/>
       <use xlink:href="#DejaVuSans-30" x="290.576172"/>
       <use xlink:href="#DejaVuSans-37" x="354.199219"/>
       <use xlink:href="#DejaVuSans-2d" x="417.822266"/>
       <use xlink:href="#DejaVuSans-31" x="453.90625"/>
       <use xlink:href="#DejaVuSans-31" x="517.529297"/>
      </g>
     </g>
    </g>
    <g id="xtick_7">
     <g id="line2d_7">
      <g>
       <use xlink:href="#mb8ad91002b" x="589.081358" y="128.16" style="stroke: #000000; stroke-width: 0.8"/>
      </g>
     </g>
     <g id="text_7">
      <!-- 2024-02-04 -->
      <g transform="translate(560.023546 142.758438) scale(0.1 -0.1)">
       <defs>
        <path id="DejaVuSans-34" d="M 2419 4116 
L 825 1625 
L 2419 1625 
L 2419 4116 
z
M 2253 4666 
L 3047 4666 
L 3047 1625 
L 3713 1625 
L 3713 1100 
L 3047 1100 
L 3047 0 
L 2419 0 
L 2419 1100 
L 313 1100 
L 313 1709 
L 2253 4666 
z
" transform="scale(0.015625)"/>
       </defs>
       <use xlink:href="#DejaVuSans-32"/>
       <use xlink:href="#DejaVuSans-30" x="63.623047"/>
       <use xlink:href="#DejaVuSans-32" x="127.246094"/>
       <use xlink:href="#DejaVuSans-34" x="190.869141"/>
       <use xlink:href="#DejaVuSans-2d" x="254.492188"/>
       <use xlink:href="#DejaVuSans-30" x="290.576172"/>
       <use xlink:href="#DejaVuSans-32" x="354.199219"/>
       <use xlink:href="#DejaVuSans-2d" x="417.822266"/>
       <use xlink:href="#DejaVuSans-30" x="453.90625"/>
       <use xlink:href="#DejaVuSans-34" x="517.529297"/>
      </g>
     </g>
    </g>
    <g id="text_8">
     <!-- date -->
     <g transform="translate(357.725 156.436563) scale(0.1 -0.1)">
      <defs>
       <path id="DejaVuSans-64" d="M 2906 2969 
L 2906 4863 
L 3481 4863 
L 3481 0 
L 2906 0 
L 2906 525 
Q 2725 213 2448 61 
Q 2172 -91 1784 -91 
Q 1150 -91 751 415 
Q 353 922 353 1747 
Q 353 2572 751 3078 
Q 1150 3584 1784 3584 
Q 2172 3584 2448 3432 
Q 2725 3281 2906 2969 
z
M 947 1747 
Q 947 1113 1208 752 
Q 1469 391 1925 391 
Q 2381 391 2643 752 
Q 2906 1113 2906 1747 
Q 2906 2381 2643 2742 
Q 2381 3103 1925 3103 
Q 1469 3103 1208 2742 
Q 947 2381 947 1747 
z
" transform="scale(0.015625)"/>
       <path id="DejaVuSans-61" d="M 2194 1759 
Q 1497 1759 1228 1600 
Q 959 1441 959 1056 
Q 959 750 1161 570 
Q 1363 391 1709 391 
Q 2188 391 2477 730 
Q 2766 1069 2766 1631 
L 2766 1759 
L 2194 1759 
z
M 3341 1997 
L 3341 0 
L 2766 0 
L 2766 531 
Q 2569 213 2275 61 
Q 1981 -91 1556 -91 
Q 1019 -91 701 211 
Q 384 513 384 1019 
Q 384 1609 779 1909 
Q 1175 2209 1959 2209 
L 2766 2209 
L 2766 2266 
Q 2766 2663 2505 2880 
Q 2244 3097 1772 3097 
Q 1472 3097 1187 3025 
Q 903 2953 641 2809 
L 641 3341 
Q 956 3463 1253 3523 
Q 1550 3584 1831 3584 
Q 2591 3584 2966 3190 
Q 3341 2797 3341 1997 
z
" transform="scale(0.015625)"/>
       <path id="DejaVuSans-74" d="M 1172 4494 
L 1172 3500 
L 2356 3500 
L 2356 3053 
L 1172 3053 
L 1172 1153 
Q 1172 725 1289 603 
Q 1406 481 1766 481 
L 2356 481 
L 2356 0 
L 1766 0 
Q 1100 0 847 248 
Q 594 497 594 1153 
L 594 3053 
L 172 3053 
L 172 3500 
L 594 3500 
L 594 4494 
L 1172 4494 
z
" transform="scale(0.015625)"/>
       <path id="DejaVuSans-65" d="M 3597 1894 
L 3597 1613 
L 953 1613 
Q 991 1019 1311 708 
Q 1631 397 2203 397 
Q 2534 397 2845 478 
Q 3156 559 3463 722 
L 3463 178 
Q 3153 47 2828 -22 
Q 2503 -91 2169 -91 
Q 1331 -91 842 396 
Q 353 884 353 1716 
Q 353 2575 817 3079 
Q 1281 3584 2069 3584 
Q 2775 3584 3186 3129 
Q 3597 2675 3597 1894 
z
M 3022 2063 
Q 3016 2534 2758 2815 
Q 2500 3097 2075 3097 
Q 1594 3097 1305 2825 
Q 1016 2553 972 2059 
L 3022 2063 
z
" transform="scale(0.015625)"/>
      </defs>
      <use xlink:href="#DejaVuSans-64"/>
      <use xlink:href="#DejaVuSans-61" x="63.476562"/>
      <use xlink:href="#DejaVuSans-74" x="124.755859"/>
      <use xlink:href="#DejaVuSans-65" x="163.964844"/>
     </g>
    </g>
   </g>
   <g id="matplotlib.axis_2">
    <g id="ytick_1">
     <g id="line2d_8">
      <defs>
       <path id="m82c6574f50" d="M 0 0 
L -3.5 0 
" style="stroke: #000000; stroke-width: 0.8"/>
      </defs>
      <g>
       <use xlink:href="#m82c6574f50" x="90" y="123.895385" style="stroke: #000000; stroke-width: 0.8"/>
      </g>
     </g>
     <g id="text_9">
      <!-- 0 -->
      <g transform="translate(76.6375 127.694603) scale(0.1 -0.1)">
       <use xlink:href="#DejaVuSans-30"/>
      </g>
     </g>
    </g>
    <g id="ytick_2">
     <g id="line2d_9">
      <g>
       <use xlink:href="#m82c6574f50" x="90" y="85.126154" style="stroke: #000000; stroke-width: 0.8"/>
      </g>
     </g>
     <g id="text_10">
      <!-- 50 -->
      <g transform="translate(70.275 88.925373) scale(0.1 -0.1)">
       <use xlink:href="#DejaVuSans-35"/>
       <use xlink:href="#DejaVuSans-30" x="63.623047"/>
      </g>
     </g>
    </g>
    <g id="ytick_3">
     <g id="line2d_10">
      <g>
       <use xlink:href="#m82c6574f50" x="90" y="46.356923" style="stroke: #000000; stroke-width: 0.8"/>
      </g>
     </g>
     <g id="text_11">
      <!-- 100 -->
      <g transform="translate(63.9125 50.156142) scale(0.1 -0.1)">
       <use xlink:href="#DejaVuSans-31"/>
       <use xlink:href="#DejaVuSans-30" x="63.623047"/>
       <use xlink:href="#DejaVuSans-30" x="127.246094"/>
      </g>
     </g>
    </g>
   </g>
   <g id="line2d_11">
    <path d="M 115.363636 106.836923 
L 116.153166 120.793846 
L 117.33746 123.12 
L 117.732225 121.569231 
L 118.12699 117.692308 
L 118.521755 122.344615 
L 118.916519 121.569231 
L 119.311284 122.344615 
L 119.706049 105.286154 
L 120.100814 118.467692 
L 120.495578 121.569231 
L 120.890343 117.692308 
L 121.285108 122.344615 
L 121.679873 119.243077 
L 122.074637 118.467692 
L 122.469402 123.12 
L 122.864167 121.569231 
L 123.258932 116.141538 
L 123.653696 117.692308 
L 124.048461 120.793846 
L 124.443226 121.569231 
L 124.837991 121.569231 
L 125.62752 123.12 
L 126.022285 116.916923 
L 126.41705 84.350769 
L 126.811815 119.243077 
L 127.206579 121.569231 
L 127.601344 121.569231 
L 127.996109 120.018462 
L 128.390874 122.344615 
L 128.785638 120.793846 
L 129.180403 123.12 
L 129.575168 121.569231 
L 129.969933 121.569231 
L 130.364698 123.12 
L 130.759462 122.344615 
L 131.154227 120.793846 
L 131.548992 120.793846 
L 131.943757 119.243077 
L 132.338521 123.12 
L 132.733286 123.12 
L 133.128051 122.344615 
L 133.522816 122.344615 
L 133.91758 123.12 
L 134.312345 123.12 
L 134.70711 111.489231 
L 135.101875 120.018462 
L 135.49664 118.467692 
L 135.891404 122.344615 
L 136.286169 120.018462 
L 136.680934 118.467692 
L 137.075699 120.018462 
L 137.470463 123.12 
L 137.865228 122.344615 
L 138.259993 120.018462 
L 138.654758 123.12 
L 139.444287 121.569231 
L 139.839052 118.467692 
L 140.628582 123.12 
L 141.023346 120.793846 
L 141.418111 120.018462 
L 141.812876 123.12 
L 142.207641 120.793846 
L 142.602405 123.12 
L 142.99717 122.344615 
L 143.391935 120.018462 
L 143.7867 123.12 
L 144.181464 122.344615 
L 144.576229 122.344615 
L 144.970994 123.12 
L 145.365759 120.018462 
L 145.760524 123.12 
L 146.155288 121.569231 
L 146.944818 121.569231 
L 147.339583 120.793846 
L 147.734347 119.243077 
L 148.129112 121.569231 
L 148.523877 119.243077 
L 148.918642 123.12 
L 149.708171 121.569231 
L 150.102936 120.018462 
L 150.497701 122.344615 
L 150.892466 123.12 
L 151.28723 122.344615 
L 151.681995 120.793846 
L 152.07676 121.569231 
L 152.471525 123.12 
L 152.866289 113.04 
L 153.261054 123.12 
L 153.655819 121.569231 
L 154.050584 120.793846 
L 154.445348 123.12 
L 154.840113 120.793846 
L 155.234878 117.692308 
L 155.629643 121.569231 
L 156.024407 123.12 
L 156.419172 123.12 
L 156.813937 122.344615 
L 157.208702 123.12 
L 157.603467 123.12 
L 157.998231 122.344615 
L 158.392996 122.344615 
L 158.787761 121.569231 
L 159.182526 122.344615 
L 160.36682 120.018462 
L 160.761585 121.569231 
L 161.156349 121.569231 
L 161.945879 120.018462 
L 162.340644 122.344615 
L 162.735409 123.12 
L 163.130173 118.467692 
L 163.524938 122.344615 
L 163.919703 122.344615 
L 164.314468 117.692308 
L 164.709232 121.569231 
L 165.103997 121.569231 
L 165.498762 104.510769 
L 165.893527 120.018462 
L 166.288291 121.569231 
L 166.683056 118.467692 
L 167.077821 122.344615 
L 167.472586 119.243077 
L 167.867351 122.344615 
L 168.262115 117.692308 
L 168.65688 120.018462 
L 169.051645 123.12 
L 169.44641 122.344615 
L 169.841174 113.815385 
L 170.235939 120.018462 
L 170.630704 122.344615 
L 171.025469 123.12 
L 171.420233 123.12 
L 171.814998 117.692308 
L 172.209763 123.12 
L 172.604528 123.12 
L 172.999293 120.793846 
L 173.394057 123.12 
L 173.788822 123.12 
L 174.578352 120.018462 
L 174.973116 123.12 
L 175.367881 121.569231 
L 176.157411 123.12 
L 176.552175 120.018462 
L 176.94694 123.12 
L 177.341705 123.12 
L 177.73647 122.344615 
L 178.131235 123.12 
L 178.525999 123.12 
L 178.920764 120.018462 
L 179.710294 123.12 
L 180.499823 121.569231 
L 180.894588 121.569231 
L 181.289353 122.344615 
L 181.684117 120.793846 
L 182.078882 122.344615 
L 182.473647 123.12 
L 183.263177 123.12 
L 183.657941 120.018462 
L 184.052706 123.12 
L 184.447471 122.344615 
L 184.842236 123.12 
L 185.237 120.018462 
L 185.631765 121.569231 
L 186.02653 122.344615 
L 186.421295 122.344615 
L 186.816059 120.793846 
L 187.210824 122.344615 
L 187.605589 121.569231 
L 188.000354 121.569231 
L 188.395119 122.344615 
L 188.789883 122.344615 
L 189.184648 123.12 
L 189.579413 118.467692 
L 189.974178 122.344615 
L 190.368942 122.344615 
L 190.763707 123.12 
L 191.158472 122.344615 
L 191.553237 123.12 
L 191.948001 123.12 
L 192.737531 121.569231 
L 193.132296 115.366154 
L 193.52706 100.633846 
L 193.921825 117.692308 
L 194.31659 123.12 
L 194.711355 122.344615 
L 195.10612 118.467692 
L 195.500884 120.018462 
L 195.895649 119.243077 
L 196.290414 113.04 
L 196.685179 123.12 
L 197.079943 122.344615 
L 197.474708 120.793846 
L 197.869473 118.467692 
L 198.264238 115.366154 
L 198.659002 106.061538 
L 199.053767 112.264615 
L 199.448532 122.344615 
L 199.843297 97.532308 
L 200.238062 111.489231 
L 200.632826 117.692308 
L 201.027591 113.04 
L 201.422356 120.018462 
L 201.817121 113.04 
L 202.211885 113.815385 
L 202.60665 112.264615 
L 203.001415 106.061538 
L 203.39618 121.569231 
L 203.790944 118.467692 
L 204.185709 121.569231 
L 204.580474 123.12 
L 204.975239 120.018462 
L 205.370004 123.12 
L 205.764768 121.569231 
L 206.159533 123.12 
L 206.554298 122.344615 
L 206.949063 113.04 
L 207.343827 121.569231 
L 207.738592 119.243077 
L 208.133357 120.793846 
L 208.528122 120.018462 
L 208.922886 123.12 
L 209.317651 118.467692 
L 209.712416 120.018462 
L 210.107181 122.344615 
L 210.501946 119.243077 
L 210.89671 123.12 
L 211.291475 121.569231 
L 211.68624 123.12 
L 212.081005 120.793846 
L 212.475769 122.344615 
L 212.870534 120.793846 
L 213.265299 120.018462 
L 213.660064 122.344615 
L 214.449593 122.344615 
L 214.844358 120.793846 
L 215.239123 120.018462 
L 215.633888 106.836923 
L 216.028652 108.387692 
L 216.423417 121.569231 
L 216.818182 122.344615 
L 217.212947 119.243077 
L 217.607711 120.018462 
L 218.002476 118.467692 
L 218.397241 122.344615 
L 218.792006 123.12 
L 219.18677 119.243077 
L 219.581535 118.467692 
L 219.9763 116.141538 
L 220.371065 122.344615 
L 220.76583 120.018462 
L 221.160594 122.344615 
L 221.555359 122.344615 
L 221.950124 123.12 
L 222.739653 120.018462 
L 223.529183 123.12 
L 223.923948 121.569231 
L 224.318712 122.344615 
L 224.713477 118.467692 
L 225.108242 116.916923 
L 225.503007 118.467692 
L 225.897771 119.243077 
L 226.292536 117.692308 
L 226.687301 111.489231 
L 227.082066 119.243077 
L 227.476831 120.793846 
L 227.871595 120.018462 
L 228.26636 117.692308 
L 228.661125 112.264615 
L 229.05589 122.344615 
L 229.450654 121.569231 
L 229.845419 123.12 
L 230.240184 116.916923 
L 230.634949 117.692308 
L 231.029713 120.793846 
L 231.424478 116.141538 
L 231.819243 114.590769 
L 232.214008 122.344615 
L 232.608773 122.344615 
L 233.003537 116.141538 
L 233.398302 102.184615 
L 233.793067 113.04 
L 234.187832 119.243077 
L 234.582596 120.018462 
L 234.977361 120.018462 
L 235.766891 121.569231 
L 236.161655 119.243077 
L 236.55642 119.243077 
L 236.951185 122.344615 
L 237.34595 122.344615 
L 237.740715 121.569231 
L 238.135479 122.344615 
L 238.530244 117.692308 
L 238.925009 117.692308 
L 239.319774 119.243077 
L 239.714538 116.916923 
L 240.109303 111.489231 
L 240.504068 117.692308 
L 240.898833 117.692308 
L 241.293597 121.569231 
L 241.688362 121.569231 
L 242.083127 118.467692 
L 242.477892 123.12 
L 242.872657 109.938462 
L 243.267421 108.387692 
L 243.662186 119.243077 
L 244.056951 120.018462 
L 244.451716 113.04 
L 245.241245 121.569231 
L 245.63601 120.018462 
L 246.030775 123.12 
L 246.425539 116.916923 
L 246.820304 106.836923 
L 247.215069 122.344615 
L 247.609834 121.569231 
L 248.399363 123.12 
L 248.794128 120.793846 
L 249.188893 108.387692 
L 249.583658 117.692308 
L 249.978422 122.344615 
L 250.373187 122.344615 
L 250.767952 111.489231 
L 251.162717 121.569231 
L 251.557481 122.344615 
L 251.952246 121.569231 
L 253.531305 121.569231 
L 253.92607 120.018462 
L 254.320835 123.12 
L 254.7156 122.344615 
L 255.110364 122.344615 
L 255.505129 123.12 
L 255.899894 123.12 
L 256.294659 122.344615 
L 256.689423 123.12 
L 257.084188 119.243077 
L 257.478953 122.344615 
L 257.873718 120.018462 
L 258.268482 120.018462 
L 258.663247 118.467692 
L 259.058012 120.018462 
L 259.452777 123.12 
L 259.847542 121.569231 
L 260.637071 121.569231 
L 261.031836 123.12 
L 261.426601 122.344615 
L 261.821365 122.344615 
L 262.21613 120.793846 
L 262.610895 122.344615 
L 263.795189 122.344615 
L 264.189954 95.981538 
L 264.584719 120.018462 
L 264.979484 123.12 
L 265.374248 122.344615 
L 265.769013 120.793846 
L 266.163778 123.12 
L 266.558543 120.018462 
L 266.953307 122.344615 
L 267.348072 119.243077 
L 267.742837 118.467692 
L 268.137602 118.467692 
L 268.532366 117.692308 
L 268.927131 108.387692 
L 269.321896 108.387692 
L 269.716661 118.467692 
L 270.111426 120.793846 
L 270.50619 122.344615 
L 270.900955 110.713846 
L 271.29572 120.018462 
L 271.690485 122.344615 
L 272.085249 122.344615 
L 272.480014 121.569231 
L 272.874779 121.569231 
L 273.269544 122.344615 
L 273.664308 122.344615 
L 274.059073 120.018462 
L 274.453838 123.12 
L 274.848603 122.344615 
L 275.243368 120.018462 
L 275.638132 120.018462 
L 276.032897 121.569231 
L 276.822427 108.387692 
L 277.217191 116.916923 
L 277.611956 116.141538 
L 278.006721 111.489231 
L 278.401486 114.590769 
L 279.191015 116.141538 
L 279.58578 115.366154 
L 279.980545 110.713846 
L 280.37531 113.04 
L 280.770074 120.018462 
L 281.164839 120.793846 
L 281.559604 119.243077 
L 281.954369 119.243077 
L 282.349133 116.916923 
L 282.743898 118.467692 
L 283.138663 113.815385 
L 283.533428 117.692308 
L 283.928192 118.467692 
L 284.322957 115.366154 
L 284.717722 108.387692 
L 285.112487 115.366154 
L 285.507252 118.467692 
L 286.296781 115.366154 
L 286.691546 118.467692 
L 287.086311 113.04 
L 287.481075 118.467692 
L 287.87584 115.366154 
L 288.270605 121.569231 
L 288.66537 118.467692 
L 289.060134 113.04 
L 289.454899 121.569231 
L 289.849664 120.018462 
L 290.244429 120.793846 
L 290.639193 117.692308 
L 291.033958 116.916923 
L 291.428723 104.510769 
L 291.823488 102.184615 
L 292.218253 116.141538 
L 292.613017 95.206154 
L 293.007782 121.569231 
L 293.402547 120.018462 
L 293.797312 121.569231 
L 294.192076 101.409231 
L 294.586841 102.184615 
L 295.376371 122.344615 
L 295.771135 120.018462 
L 296.1659 113.815385 
L 296.560665 120.018462 
L 296.95543 120.018462 
L 297.350195 102.184615 
L 297.744959 115.366154 
L 298.139724 117.692308 
L 298.929254 119.243077 
L 299.324018 119.243077 
L 299.718783 117.692308 
L 300.903077 122.344615 
L 301.297842 116.916923 
L 301.692607 122.344615 
L 302.087372 122.344615 
L 302.876901 120.793846 
L 303.271666 123.12 
L 303.666431 120.793846 
L 304.061196 119.243077 
L 304.45596 121.569231 
L 304.850725 122.344615 
L 305.24549 122.344615 
L 305.640255 116.916923 
L 306.035019 123.12 
L 306.429784 106.061538 
L 306.824549 121.569231 
L 307.219314 122.344615 
L 307.614079 120.018462 
L 308.008843 120.018462 
L 308.403608 120.793846 
L 308.798373 122.344615 
L 309.193138 117.692308 
L 309.587902 121.569231 
L 309.982667 120.018462 
L 310.377432 120.793846 
L 310.772197 105.286154 
L 311.166961 121.569231 
L 311.561726 119.243077 
L 311.956491 123.12 
L 312.351256 123.12 
L 312.746021 122.344615 
L 313.140785 116.916923 
L 313.53555 122.344615 
L 313.930315 117.692308 
L 314.32508 120.018462 
L 314.719844 123.12 
L 315.114609 120.018462 
L 315.904139 120.018462 
L 316.298903 117.692308 
L 316.693668 116.141538 
L 317.088433 120.793846 
L 317.483198 120.793846 
L 317.877963 120.018462 
L 318.272727 121.569231 
L 318.667492 121.569231 
L 319.062257 120.018462 
L 319.457022 117.692308 
L 319.851786 117.692308 
L 320.246551 119.243077 
L 320.641316 122.344615 
L 321.430845 122.344615 
L 321.82561 108.387692 
L 322.220375 75.821538 
L 322.61514 91.329231 
L 323.009904 119.243077 
L 323.404669 121.569231 
L 323.799434 120.018462 
L 324.588964 109.163077 
L 324.983728 118.467692 
L 325.378493 105.286154 
L 325.773258 88.227692 
L 326.168023 120.018462 
L 326.562787 87.452308 
L 326.957552 113.815385 
L 327.352317 122.344615 
L 327.747082 78.147692 
L 328.141846 102.96 
L 328.536611 111.489231 
L 328.931376 73.495385 
L 329.326141 119.243077 
L 329.720906 120.018462 
L 330.11567 102.184615 
L 330.510435 113.04 
L 330.9052 99.858462 
L 331.299965 113.04 
L 331.694729 120.793846 
L 332.089494 56.436923 
L 332.484259 119.243077 
L 332.879024 120.018462 
L 333.273788 120.018462 
L 333.668553 114.590769 
L 334.063318 118.467692 
L 334.458083 107.612308 
L 334.852848 118.467692 
L 335.247612 120.793846 
L 335.642377 102.96 
L 336.037142 102.96 
L 336.431907 114.590769 
L 336.826671 100.633846 
L 337.221436 119.243077 
L 337.616201 120.018462 
L 338.010966 102.96 
L 338.40573 123.12 
L 338.800495 121.569231 
L 339.19526 120.793846 
L 339.590025 119.243077 
L 339.98479 121.569231 
L 340.379554 120.793846 
L 340.774319 119.243077 
L 341.169084 115.366154 
L 341.563849 117.692308 
L 341.958613 110.713846 
L 342.748143 122.344615 
L 343.142908 123.12 
L 343.537672 116.916923 
L 344.327202 121.569231 
L 344.721967 123.12 
L 345.116732 119.243077 
L 345.511496 122.344615 
L 345.906261 119.243077 
L 346.301026 123.12 
L 347.090555 121.569231 
L 347.48532 123.12 
L 347.880085 123.12 
L 348.27485 121.569231 
L 349.064379 120.018462 
L 349.459144 120.018462 
L 349.853909 120.793846 
L 350.248674 120.793846 
L 350.643438 123.12 
L 351.038203 121.569231 
L 351.432968 96.756923 
L 351.827733 120.793846 
L 352.222497 122.344615 
L 353.012027 122.344615 
L 353.406792 118.467692 
L 353.801556 119.243077 
L 354.196321 110.713846 
L 354.591086 121.569231 
L 354.985851 117.692308 
L 355.380615 122.344615 
L 355.77538 123.12 
L 356.170145 120.793846 
L 356.56491 121.569231 
L 356.959675 117.692308 
L 357.354439 119.243077 
L 357.749204 121.569231 
L 358.143969 122.344615 
L 358.538734 121.569231 
L 358.933498 118.467692 
L 359.328263 120.018462 
L 359.723028 119.243077 
L 360.117793 120.793846 
L 360.512557 116.916923 
L 360.907322 118.467692 
L 361.302087 123.12 
L 361.696852 119.243077 
L 362.091617 120.018462 
L 362.486381 111.489231 
L 362.881146 122.344615 
L 363.275911 119.243077 
L 363.670676 119.243077 
L 364.06544 120.018462 
L 364.460205 112.264615 
L 364.85497 99.858462 
L 365.249735 120.018462 
L 365.644499 122.344615 
L 366.039264 117.692308 
L 366.434029 121.569231 
L 366.828794 120.793846 
L 367.223559 120.793846 
L 367.618323 123.12 
L 368.407853 121.569231 
L 368.802618 120.018462 
L 369.197382 122.344615 
L 369.592147 120.018462 
L 369.986912 122.344615 
L 370.381677 120.018462 
L 370.776441 123.12 
L 371.171206 120.018462 
L 371.565971 121.569231 
L 371.960736 121.569231 
L 372.355501 120.018462 
L 372.750265 123.12 
L 373.14503 120.018462 
L 373.539795 121.569231 
L 373.93456 116.916923 
L 374.329324 122.344615 
L 374.724089 116.141538 
L 375.118854 99.858462 
L 375.513619 122.344615 
L 375.908383 123.12 
L 376.303148 121.569231 
L 376.697913 117.692308 
L 377.092678 121.569231 
L 377.882207 123.12 
L 378.276972 116.916923 
L 378.671737 121.569231 
L 379.066502 120.793846 
L 379.856031 108.387692 
L 380.250796 118.467692 
L 380.645561 121.569231 
L 381.040325 121.569231 
L 381.43509 117.692308 
L 381.829855 91.329231 
L 382.22462 110.713846 
L 382.619385 117.692308 
L 383.014149 120.793846 
L 383.408914 120.793846 
L 383.803679 98.307692 
L 384.198444 120.018462 
L 384.593208 122.344615 
L 385.382738 122.344615 
L 385.777503 120.793846 
L 386.172267 120.018462 
L 386.567032 121.569231 
L 386.961797 119.243077 
L 387.356562 120.793846 
L 387.751326 123.12 
L 388.146091 121.569231 
L 388.540856 118.467692 
L 388.935621 121.569231 
L 389.330386 117.692308 
L 389.72515 117.692308 
L 390.119915 119.243077 
L 390.51468 121.569231 
L 390.909445 107.612308 
L 391.304209 120.018462 
L 391.698974 110.713846 
L 392.093739 117.692308 
L 392.488504 119.243077 
L 392.883268 111.489231 
L 393.278033 121.569231 
L 394.067563 114.590769 
L 394.462328 120.018462 
L 394.857092 116.916923 
L 395.251857 110.713846 
L 395.646622 109.938462 
L 396.041387 119.243077 
L 396.436151 105.286154 
L 396.830916 111.489231 
L 397.225681 120.793846 
L 397.620446 109.938462 
L 398.01521 122.344615 
L 398.409975 121.569231 
L 398.80474 114.590769 
L 399.199505 116.916923 
L 399.59427 101.409231 
L 399.989034 114.590769 
L 400.383799 113.815385 
L 400.778564 113.815385 
L 401.173329 115.366154 
L 401.568093 119.243077 
L 401.962858 120.018462 
L 402.357623 117.692308 
L 402.752388 119.243077 
L 403.147152 113.04 
L 403.541917 120.018462 
L 403.936682 115.366154 
L 404.331447 109.163077 
L 404.726212 115.366154 
L 405.120976 116.141538 
L 405.515741 115.366154 
L 405.910506 122.344615 
L 406.305271 117.692308 
L 406.700035 121.569231 
L 407.0948 120.793846 
L 407.489565 113.815385 
L 407.88433 113.04 
L 408.279094 101.409231 
L 408.673859 113.04 
L 409.068624 110.713846 
L 409.463389 118.467692 
L 409.858154 120.018462 
L 410.252918 119.243077 
L 410.647683 119.243077 
L 411.042448 122.344615 
L 411.437213 119.243077 
L 411.831977 109.163077 
L 412.226742 119.243077 
L 413.016272 119.243077 
L 413.411036 122.344615 
L 413.805801 123.12 
L 414.200566 122.344615 
L 414.595331 118.467692 
L 414.990096 106.836923 
L 415.38486 120.018462 
L 415.779625 120.018462 
L 416.17439 123.12 
L 416.569155 123.12 
L 416.963919 98.307692 
L 417.753449 117.692308 
L 418.148214 113.04 
L 418.937743 122.344615 
L 419.332508 121.569231 
L 419.727273 122.344615 
L 420.122037 116.141538 
L 420.516802 122.344615 
L 420.911567 120.793846 
L 421.306332 121.569231 
L 421.701097 123.12 
L 422.095861 100.633846 
L 422.490626 120.018462 
L 422.885391 111.489231 
L 423.280156 111.489231 
L 423.67492 114.590769 
L 424.069685 120.793846 
L 424.46445 121.569231 
L 424.859215 116.141538 
L 425.253979 118.467692 
L 425.648744 117.692308 
L 426.043509 116.141538 
L 426.438274 122.344615 
L 426.833039 120.018462 
L 427.227803 121.569231 
L 428.017333 123.12 
L 429.596392 120.018462 
L 430.385921 105.286154 
L 430.780686 118.467692 
L 431.175451 116.141538 
L 431.570216 122.344615 
L 431.964981 116.141538 
L 432.359745 123.12 
L 432.75451 121.569231 
L 433.54404 120.018462 
L 433.938804 120.793846 
L 434.333569 120.018462 
L 434.728334 118.467692 
L 435.123099 107.612308 
L 435.517863 118.467692 
L 435.912628 117.692308 
L 436.307393 106.061538 
L 436.702158 122.344615 
L 437.096923 114.590769 
L 437.491687 122.344615 
L 437.886452 118.467692 
L 438.281217 121.569231 
L 438.675982 123.12 
L 439.070746 120.793846 
L 439.465511 122.344615 
L 439.860276 120.018462 
L 440.255041 123.12 
L 441.04457 123.12 
L 441.439335 120.018462 
L 441.8341 123.12 
L 442.228865 118.467692 
L 442.623629 123.12 
L 443.018394 122.344615 
L 443.413159 120.018462 
L 443.807924 107.612308 
L 444.202688 123.12 
L 444.597453 123.12 
L 444.992218 112.264615 
L 445.386983 113.04 
L 445.781747 110.713846 
L 446.176512 113.815385 
L 446.571277 122.344615 
L 446.966042 112.264615 
L 447.360807 120.018462 
L 447.755571 121.569231 
L 448.150336 122.344615 
L 448.545101 122.344615 
L 448.939866 123.12 
L 449.33463 122.344615 
L 449.729395 119.243077 
L 450.12416 121.569231 
L 450.913689 123.12 
L 451.308454 123.12 
L 451.703219 117.692308 
L 452.097984 118.467692 
L 452.492748 121.569231 
L 453.282278 121.569231 
L 453.677043 120.793846 
L 454.071808 120.793846 
L 454.466572 116.141538 
L 454.861337 122.344615 
L 455.256102 105.286154 
L 455.650867 118.467692 
L 456.045631 122.344615 
L 456.440396 119.243077 
L 456.835161 120.018462 
L 457.62469 113.04 
L 458.019455 118.467692 
L 458.41422 103.735385 
L 458.808985 123.12 
L 459.20375 117.692308 
L 459.993279 102.96 
L 460.388044 110.713846 
L 460.782809 82.8 
L 461.177573 116.141538 
L 461.572338 123.12 
L 461.967103 93.655385 
L 462.361868 113.04 
L 462.756632 109.163077 
L 463.151397 110.713846 
L 463.546162 117.692308 
L 463.940927 113.815385 
L 464.335692 122.344615 
L 464.730456 106.836923 
L 465.125221 112.264615 
L 465.519986 112.264615 
L 465.914751 107.612308 
L 466.309515 108.387692 
L 466.70428 121.569231 
L 467.099045 123.12 
L 467.49381 92.104615 
L 467.888574 22.32 
L 468.283339 102.184615 
L 468.678104 106.836923 
L 469.072869 106.061538 
L 469.467634 120.018462 
L 469.862398 120.793846 
L 470.257163 92.88 
L 470.651928 73.495385 
L 471.046693 110.713846 
L 471.441457 108.387692 
L 471.836222 103.735385 
L 472.230987 120.018462 
L 472.625752 123.12 
L 473.020516 85.901538 
L 473.810046 90.553846 
L 474.599576 120.018462 
L 474.99434 121.569231 
L 475.389105 122.344615 
L 475.78387 117.692308 
L 476.178635 106.836923 
L 476.573399 113.04 
L 476.968164 90.553846 
L 477.362929 92.88 
L 477.757694 121.569231 
L 478.152458 120.018462 
L 478.547223 101.409231 
L 478.941988 115.366154 
L 479.336753 96.756923 
L 479.731518 116.141538 
L 480.126282 123.12 
L 480.521047 123.12 
L 480.915812 116.141538 
L 481.310577 105.286154 
L 481.705341 118.467692 
L 482.100106 118.467692 
L 482.494871 121.569231 
L 482.889636 123.12 
L 483.2844 123.12 
L 483.679165 121.569231 
L 484.07393 113.815385 
L 484.468695 120.793846 
L 484.863459 123.12 
L 485.258224 99.083077 
L 485.652989 117.692308 
L 486.047754 116.141538 
L 486.442519 95.981538 
L 486.837283 114.590769 
L 487.232048 122.344615 
L 487.626813 120.793846 
L 488.021578 123.12 
L 488.416342 121.569231 
L 488.811107 100.633846 
L 489.205872 98.307692 
L 489.600637 115.366154 
L 489.995401 109.938462 
L 490.390166 116.916923 
L 490.784931 106.836923 
L 491.179696 120.793846 
L 491.574461 114.590769 
L 491.969225 121.569231 
L 492.36399 120.793846 
L 492.758755 121.569231 
L 493.15352 123.12 
L 493.548284 105.286154 
L 493.943049 111.489231 
L 494.337814 120.793846 
L 494.732579 122.344615 
L 495.916873 122.344615 
L 496.311638 119.243077 
L 496.706403 94.430769 
L 497.101167 118.467692 
L 497.495932 111.489231 
L 497.890697 118.467692 
L 498.285462 120.018462 
L 498.680226 120.793846 
L 499.074991 119.243077 
L 499.469756 121.569231 
L 499.864521 122.344615 
L 500.259285 120.018462 
L 500.65405 122.344615 
L 501.048815 109.938462 
L 501.44358 119.243077 
L 501.838345 117.692308 
L 502.233109 120.793846 
L 502.627874 95.981538 
L 503.022639 120.018462 
L 503.417404 120.793846 
L 503.812168 119.243077 
L 504.206933 120.793846 
L 504.601698 119.243077 
L 504.996463 97.532308 
L 505.391227 116.141538 
L 505.785992 118.467692 
L 506.180757 120.018462 
L 506.575522 116.141538 
L 506.970287 120.018462 
L 507.365051 120.018462 
L 507.759816 120.793846 
L 508.154581 119.243077 
L 508.549346 119.243077 
L 508.94411 120.793846 
L 509.338875 119.243077 
L 509.73364 119.243077 
L 510.128405 120.018462 
L 510.523169 108.387692 
L 510.917934 113.815385 
L 511.312699 122.344615 
L 511.707464 121.569231 
L 512.102229 120.018462 
L 512.496993 121.569231 
L 512.891758 120.018462 
L 513.286523 121.569231 
L 513.681288 116.141538 
L 514.076052 115.366154 
L 514.470817 109.938462 
L 514.865582 119.243077 
L 515.260347 120.793846 
L 516.049876 115.366154 
L 516.444641 118.467692 
L 516.839406 119.243077 
L 517.23417 121.569231 
L 517.628935 121.569231 
L 518.0237 116.141538 
L 518.418465 92.104615 
L 518.81323 117.692308 
L 519.207994 117.692308 
L 519.602759 115.366154 
L 519.997524 120.793846 
L 520.392289 120.793846 
L 520.787053 117.692308 
L 521.181818 120.793846 
L 521.576583 81.249231 
L 521.971348 120.793846 
L 522.366112 122.344615 
L 522.760877 121.569231 
L 523.155642 121.569231 
L 523.550407 102.96 
L 523.945172 113.815385 
L 524.339936 120.018462 
L 524.734701 121.569231 
L 525.129466 122.344615 
L 525.524231 112.264615 
L 525.918995 119.243077 
L 526.31376 122.344615 
L 526.708525 106.836923 
L 527.10329 115.366154 
L 527.498054 119.243077 
L 527.892819 98.307692 
L 528.287584 122.344615 
L 528.682349 123.12 
L 529.077114 120.793846 
L 529.866643 122.344615 
L 530.261408 119.243077 
L 530.656173 118.467692 
L 531.050937 120.793846 
L 531.445702 122.344615 
L 531.840467 121.569231 
L 532.235232 122.344615 
L 532.629996 122.344615 
L 533.024761 123.12 
L 533.419526 123.12 
L 533.814291 120.018462 
L 534.209056 65.741538 
L 534.60382 110.713846 
L 534.998585 112.264615 
L 535.39335 116.141538 
L 535.788115 106.836923 
L 536.182879 112.264615 
L 536.577644 112.264615 
L 536.972409 104.510769 
L 537.367174 117.692308 
L 537.761938 105.286154 
L 538.156703 120.793846 
L 538.551468 116.916923 
L 538.946233 115.366154 
L 539.340998 120.793846 
L 539.735762 119.243077 
L 540.130527 116.916923 
L 540.525292 120.018462 
L 540.920057 120.793846 
L 541.314821 104.510769 
L 541.709586 117.692308 
L 542.104351 105.286154 
L 542.499116 116.916923 
L 542.89388 107.612308 
L 543.288645 117.692308 
L 543.68341 118.467692 
L 544.078175 108.387692 
L 544.47294 109.163077 
L 544.867704 117.692308 
L 545.262469 120.793846 
L 545.657234 116.916923 
L 546.051999 117.692308 
L 546.446763 123.12 
L 546.841528 117.692308 
L 547.236293 96.756923 
L 547.631058 116.141538 
L 548.025822 118.467692 
L 548.420587 114.590769 
L 548.815352 117.692308 
L 549.210117 119.243077 
L 549.604881 108.387692 
L 549.999646 118.467692 
L 550.394411 107.612308 
L 550.789176 116.141538 
L 551.183941 117.692308 
L 551.578705 107.612308 
L 551.97347 117.692308 
L 552.368235 95.206154 
L 552.763 102.96 
L 553.157764 116.141538 
L 553.947294 117.692308 
L 554.342059 95.206154 
L 554.736823 89.003077 
L 555.131588 110.713846 
L 555.526353 120.793846 
L 556.315883 119.243077 
L 556.710647 114.590769 
L 557.105412 111.489231 
L 557.500177 110.713846 
L 557.894942 34.726154 
L 558.289706 89.003077 
L 558.684471 113.04 
L 559.474001 120.018462 
L 559.868765 109.163077 
L 560.26353 106.061538 
L 560.658295 100.633846 
L 561.05306 117.692308 
L 561.447825 119.243077 
L 561.842589 116.916923 
L 562.237354 113.04 
L 562.632119 111.489231 
L 563.026884 114.590769 
L 563.816413 89.003077 
L 564.211178 120.793846 
L 564.605943 122.344615 
L 565.000707 113.04 
L 565.395472 120.018462 
L 565.790237 107.612308 
L 566.185002 120.018462 
L 566.579767 115.366154 
L 566.974531 119.243077 
L 567.369296 121.569231 
L 567.764061 113.815385 
L 568.158826 121.569231 
L 568.55359 120.018462 
L 568.948355 116.141538 
L 569.737885 123.12 
L 570.132649 122.344615 
L 570.527414 112.264615 
L 570.922179 120.018462 
L 571.316944 116.916923 
L 571.711709 118.467692 
L 572.106473 116.141538 
L 572.501238 117.692308 
L 572.896003 103.735385 
L 573.290768 120.018462 
L 573.685532 115.366154 
L 574.080297 120.018462 
L 574.475062 120.793846 
L 574.869827 119.243077 
L 575.264591 105.286154 
L 575.659356 123.12 
L 576.054121 109.938462 
L 576.448886 123.12 
L 576.843651 110.713846 
L 577.238415 52.56 
L 577.63318 105.286154 
L 578.027945 120.793846 
L 578.42271 110.713846 
L 578.817474 115.366154 
L 579.212239 116.916923 
L 579.607004 120.793846 
L 580.001769 119.243077 
L 580.396533 73.495385 
L 580.791298 117.692308 
L 581.186063 113.815385 
L 581.580828 118.467692 
L 581.975593 113.04 
L 582.370357 122.344615 
L 582.765122 117.692308 
L 583.159887 114.590769 
L 583.554652 117.692308 
L 584.344181 113.04 
L 584.738946 121.569231 
L 585.133711 123.12 
L 585.528475 122.344615 
L 585.92324 120.793846 
L 586.318005 92.104615 
L 586.71277 114.590769 
L 587.107534 117.692308 
L 587.502299 119.243077 
L 587.897064 87.452308 
L 588.291829 114.590769 
L 588.686594 94.430769 
L 589.081358 120.018462 
L 589.476123 113.815385 
L 589.870888 111.489231 
L 590.265653 119.243077 
L 590.660417 120.793846 
L 591.055182 85.901538 
L 591.449947 122.344615 
L 591.844712 98.307692 
L 592.239476 89.003077 
L 592.634241 122.344615 
L 593.029006 113.815385 
L 593.423771 116.916923 
L 594.2133 96.756923 
L 594.608065 118.467692 
L 595.00283 102.96 
L 595.397595 113.815385 
L 595.792359 116.141538 
L 596.187124 95.206154 
L 596.581889 119.243077 
L 596.976654 120.793846 
L 598.160948 97.532308 
L 598.950478 120.793846 
L 599.345242 109.163077 
L 599.740007 122.344615 
L 600.134772 116.916923 
L 600.529537 104.510769 
L 600.924301 84.350769 
L 601.319066 91.329231 
L 601.713831 92.88 
L 602.108596 120.793846 
L 602.50336 120.793846 
L 602.898125 86.676923 
L 603.29289 105.286154 
L 603.687655 107.612308 
L 604.08242 122.344615 
L 604.477184 118.467692 
L 604.871949 101.409231 
L 605.266714 100.633846 
L 605.661479 100.633846 
L 606.056243 113.04 
L 606.451008 106.061538 
L 606.845773 115.366154 
L 607.240538 105.286154 
L 607.635302 119.243077 
L 608.030067 120.793846 
L 608.424832 121.569231 
L 608.819597 119.243077 
L 609.214362 113.815385 
L 609.609126 113.815385 
L 610.398656 120.018462 
L 610.793421 121.569231 
L 611.188185 114.590769 
L 611.58295 102.96 
L 611.977715 119.243077 
L 612.37248 116.141538 
L 612.767244 94.430769 
L 613.162009 123.12 
L 613.556774 120.793846 
L 613.951539 105.286154 
L 614.346304 102.184615 
L 615.135833 120.018462 
L 615.530598 106.836923 
L 615.925363 122.344615 
L 616.320127 118.467692 
L 616.714892 102.184615 
L 617.109657 113.04 
L 617.504422 54.886154 
L 617.899186 104.510769 
L 618.293951 92.88 
L 618.688716 113.04 
L 619.083481 117.692308 
L 619.478245 113.815385 
L 619.87301 98.307692 
L 620.267775 113.04 
L 620.66254 74.270769 
L 621.057305 101.409231 
L 621.452069 113.04 
L 621.846834 98.307692 
L 622.241599 92.88 
L 622.636364 85.126154 
L 622.636364 85.126154 
" clip-path="url(#p341fbb3a35)" style="fill: none; stroke: #1f77b4; stroke-width: 1.5; stroke-linecap: square"/>
   </g>
   <g id="patch_3">
    <path d="M 90 128.16 
L 90 17.28 
" style="fill: none; stroke: #000000; stroke-width: 0.8; stroke-linejoin: miter; stroke-linecap: square"/>
   </g>
   <g id="patch_4">
    <path d="M 648 128.16 
L 648 17.28 
" style="fill: none; stroke: #000000; stroke-width: 0.8; stroke-linejoin: miter; stroke-linecap: square"/>
   </g>
   <g id="patch_5">
    <path d="M 90 128.16 
L 648 128.16 
" style="fill: none; stroke: #000000; stroke-width: 0.8; stroke-linejoin: miter; stroke-linecap: square"/>
   </g>
   <g id="patch_6">
    <path d="M 90 17.28 
L 648 17.28 
" style="fill: none; stroke: #000000; stroke-width: 0.8; stroke-linejoin: miter; stroke-linecap: square"/>
   </g>
   <g id="legend_1">
    <g id="patch_7">
     <path d="M 97 39.958125 
L 264.190625 39.958125 
Q 266.190625 39.958125 266.190625 37.958125 
L 266.190625 24.28 
Q 266.190625 22.28 264.190625 22.28 
L 97 22.28 
Q 95 22.28 95 24.28 
L 95 37.958125 
Q 95 39.958125 97 39.958125 
z
" style="fill: #ffffff; opacity: 0.8; stroke: #cccccc; stroke-linejoin: miter"/>
    </g>
    <g id="line2d_12">
     <path d="M 99 30.378437 
L 109 30.378437 
L 119 30.378437 
" style="fill: none; stroke: #1f77b4; stroke-width: 1.5; stroke-linecap: square"/>
    </g>
    <g id="text_12">
     <!-- Number of PyPI Downloads -->
     <g transform="translate(127 33.878437) scale(0.1 -0.1)">
      <defs>
       <path id="DejaVuSans-4e" d="M 628 4666 
L 1478 4666 
L 3547 763 
L 3547 4666 
L 4159 4666 
L 4159 0 
L 3309 0 
L 1241 3903 
L 1241 0 
L 628 0 
L 628 4666 
z
" transform="scale(0.015625)"/>
       <path id="DejaVuSans-75" d="M 544 1381 
L 544 3500 
L 1119 3500 
L 1119 1403 
Q 1119 906 1312 657 
Q 1506 409 1894 409 
Q 2359 409 2629 706 
Q 2900 1003 2900 1516 
L 2900 3500 
L 3475 3500 
L 3475 0 
L 2900 0 
L 2900 538 
Q 2691 219 2414 64 
Q 2138 -91 1772 -91 
Q 1169 -91 856 284 
Q 544 659 544 1381 
z
M 1991 3584 
L 1991 3584 
z
" transform="scale(0.015625)"/>
       <path id="DejaVuSans-6d" d="M 3328 2828 
Q 3544 3216 3844 3400 
Q 4144 3584 4550 3584 
Q 5097 3584 5394 3201 
Q 5691 2819 5691 2113 
L 5691 0 
L 5113 0 
L 5113 2094 
Q 5113 2597 4934 2840 
Q 4756 3084 4391 3084 
Q 3944 3084 3684 2787 
Q 3425 2491 3425 1978 
L 3425 0 
L 2847 0 
L 2847 2094 
Q 2847 2600 2669 2842 
Q 2491 3084 2119 3084 
Q 1678 3084 1418 2786 
Q 1159 2488 1159 1978 
L 1159 0 
L 581 0 
L 581 3500 
L 1159 3500 
L 1159 2956 
Q 1356 3278 1631 3431 
Q 1906 3584 2284 3584 
Q 2666 3584 2933 3390 
Q 3200 3197 3328 2828 
z
" transform="scale(0.015625)"/>
       <path id="DejaVuSans-62" d="M 3116 1747 
Q 3116 2381 2855 2742 
Q 2594 3103 2138 3103 
Q 1681 3103 1420 2742 
Q 1159 2381 1159 1747 
Q 1159 1113 1420 752 
Q 1681 391 2138 391 
Q 2594 391 2855 752 
Q 3116 1113 3116 1747 
z
M 1159 2969 
Q 1341 3281 1617 3432 
Q 1894 3584 2278 3584 
Q 2916 3584 3314 3078 
Q 3713 2572 3713 1747 
Q 3713 922 3314 415 
Q 2916 -91 2278 -91 
Q 1894 -91 1617 61 
Q 1341 213 1159 525 
L 1159 0 
L 581 0 
L 581 4863 
L 1159 4863 
L 1159 2969 
z
" transform="scale(0.015625)"/>
       <path id="DejaVuSans-72" d="M 2631 2963 
Q 2534 3019 2420 3045 
Q 2306 3072 2169 3072 
Q 1681 3072 1420 2755 
Q 1159 2438 1159 1844 
L 1159 0 
L 581 0 
L 581 3500 
L 1159 3500 
L 1159 2956 
Q 1341 3275 1631 3429 
Q 1922 3584 2338 3584 
Q 2397 3584 2469 3576 
Q 2541 3569 2628 3553 
L 2631 2963 
z
" transform="scale(0.015625)"/>
       <path id="DejaVuSans-20" transform="scale(0.015625)"/>
       <path id="DejaVuSans-6f" d="M 1959 3097 
Q 1497 3097 1228 2736 
Q 959 2375 959 1747 
Q 959 1119 1226 758 
Q 1494 397 1959 397 
Q 2419 397 2687 759 
Q 2956 1122 2956 1747 
Q 2956 2369 2687 2733 
Q 2419 3097 1959 3097 
z
M 1959 3584 
Q 2709 3584 3137 3096 
Q 3566 2609 3566 1747 
Q 3566 888 3137 398 
Q 2709 -91 1959 -91 
Q 1206 -91 779 398 
Q 353 888 353 1747 
Q 353 2609 779 3096 
Q 1206 3584 1959 3584 
z
" transform="scale(0.015625)"/>
       <path id="DejaVuSans-66" d="M 2375 4863 
L 2375 4384 
L 1825 4384 
Q 1516 4384 1395 4259 
Q 1275 4134 1275 3809 
L 1275 3500 
L 2222 3500 
L 2222 3053 
L 1275 3053 
L 1275 0 
L 697 0 
L 697 3053 
L 147 3053 
L 147 3500 
L 697 3500 
L 697 3744 
Q 697 4328 969 4595 
Q 1241 4863 1831 4863 
L 2375 4863 
z
" transform="scale(0.015625)"/>
       <path id="DejaVuSans-50" d="M 1259 4147 
L 1259 2394 
L 2053 2394 
Q 2494 2394 2734 2622 
Q 2975 2850 2975 3272 
Q 2975 3691 2734 3919 
Q 2494 4147 2053 4147 
L 1259 4147 
z
M 628 4666 
L 2053 4666 
Q 2838 4666 3239 4311 
Q 3641 3956 3641 3272 
Q 3641 2581 3239 2228 
Q 2838 1875 2053 1875 
L 1259 1875 
L 1259 0 
L 628 0 
L 628 4666 
z
" transform="scale(0.015625)"/>
       <path id="DejaVuSans-79" d="M 2059 -325 
Q 1816 -950 1584 -1140 
Q 1353 -1331 966 -1331 
L 506 -1331 
L 506 -850 
L 844 -850 
Q 1081 -850 1212 -737 
Q 1344 -625 1503 -206 
L 1606 56 
L 191 3500 
L 800 3500 
L 1894 763 
L 2988 3500 
L 3597 3500 
L 2059 -325 
z
" transform="scale(0.015625)"/>
       <path id="DejaVuSans-49" d="M 628 4666 
L 1259 4666 
L 1259 0 
L 628 0 
L 628 4666 
z
" transform="scale(0.015625)"/>
       <path id="DejaVuSans-44" d="M 1259 4147 
L 1259 519 
L 2022 519 
Q 2988 519 3436 956 
Q 3884 1394 3884 2338 
Q 3884 3275 3436 3711 
Q 2988 4147 2022 4147 
L 1259 4147 
z
M 628 4666 
L 1925 4666 
Q 3281 4666 3915 4102 
Q 4550 3538 4550 2338 
Q 4550 1131 3912 565 
Q 3275 0 1925 0 
L 628 0 
L 628 4666 
z
" transform="scale(0.015625)"/>
       <path id="DejaVuSans-77" d="M 269 3500 
L 844 3500 
L 1563 769 
L 2278 3500 
L 2956 3500 
L 3675 769 
L 4391 3500 
L 4966 3500 
L 4050 0 
L 3372 0 
L 2619 2869 
L 1863 0 
L 1184 0 
L 269 3500 
z
" transform="scale(0.015625)"/>
       <path id="DejaVuSans-6e" d="M 3513 2113 
L 3513 0 
L 2938 0 
L 2938 2094 
Q 2938 2591 2744 2837 
Q 2550 3084 2163 3084 
Q 1697 3084 1428 2787 
Q 1159 2491 1159 1978 
L 1159 0 
L 581 0 
L 581 3500 
L 1159 3500 
L 1159 2956 
Q 1366 3272 1645 3428 
Q 1925 3584 2291 3584 
Q 2894 3584 3203 3211 
Q 3513 2838 3513 2113 
z
" transform="scale(0.015625)"/>
       <path id="DejaVuSans-6c" d="M 603 4863 
L 1178 4863 
L 1178 0 
L 603 0 
L 603 4863 
z
" transform="scale(0.015625)"/>
       <path id="DejaVuSans-73" d="M 2834 3397 
L 2834 2853 
Q 2591 2978 2328 3040 
Q 2066 3103 1784 3103 
Q 1356 3103 1142 2972 
Q 928 2841 928 2578 
Q 928 2378 1081 2264 
Q 1234 2150 1697 2047 
L 1894 2003 
Q 2506 1872 2764 1633 
Q 3022 1394 3022 966 
Q 3022 478 2636 193 
Q 2250 -91 1575 -91 
Q 1294 -91 989 -36 
Q 684 19 347 128 
L 347 722 
Q 666 556 975 473 
Q 1284 391 1588 391 
Q 1994 391 2212 530 
Q 2431 669 2431 922 
Q 2431 1156 2273 1281 
Q 2116 1406 1581 1522 
L 1381 1569 
Q 847 1681 609 1914 
Q 372 2147 372 2553 
Q 372 3047 722 3315 
Q 1072 3584 1716 3584 
Q 2034 3584 2315 3537 
Q 2597 3491 2834 3397 
z
" transform="scale(0.015625)"/>
      </defs>
      <use xlink:href="#DejaVuSans-4e"/>
      <use xlink:href="#DejaVuSans-75" x="74.804688"/>
      <use xlink:href="#DejaVuSans-6d" x="138.183594"/>
      <use xlink:href="#DejaVuSans-62" x="235.595703"/>
      <use xlink:href="#DejaVuSans-65" x="299.072266"/>
      <use xlink:href="#DejaVuSans-72" x="360.595703"/>
      <use xlink:href="#DejaVuSans-20" x="401.708984"/>
      <use xlink:href="#DejaVuSans-6f" x="433.496094"/>
      <use xlink:href="#DejaVuSans-66" x="494.677734"/>
      <use xlink:href="#DejaVuSans-20" x="529.882812"/>
      <use xlink:href="#DejaVuSans-50" x="561.669922"/>
      <use xlink:href="#DejaVuSans-79" x="621.972656"/>
      <use xlink:href="#DejaVuSans-50" x="681.152344"/>
      <use xlink:href="#DejaVuSans-49" x="741.455078"/>
      <use xlink:href="#DejaVuSans-20" x="770.947266"/>
      <use xlink:href="#DejaVuSans-44" x="802.734375"/>
      <use xlink:href="#DejaVuSans-6f" x="879.736328"/>
      <use xlink:href="#DejaVuSans-77" x="940.917969"/>
      <use xlink:href="#DejaVuSans-6e" x="1022.705078"/>
      <use xlink:href="#DejaVuSans-6c" x="1086.083984"/>
      <use xlink:href="#DejaVuSans-6f" x="1113.867188"/>
      <use xlink:href="#DejaVuSans-61" x="1175.048828"/>
      <use xlink:href="#DejaVuSans-64" x="1236.328125"/>
      <use xlink:href="#DejaVuSans-73" x="1299.804688"/>
     </g>
    </g>
   </g>
  </g>
 </g>
 <defs>
  <clipPath id="p341fbb3a35">
   <rect x="90" y="17.28" width="558" height="110.88"/>
  </clipPath>
 </defs>
</svg>
