<?xml version="1.0" encoding="utf-8" standalone="no"?>
<!DOCTYPE svg PUBLIC "-//W3C//DTD SVG 1.1//EN"
  "http://www.w3.org/Graphics/SVG/1.1/DTD/svg11.dtd">
<svg xmlns:xlink="http://www.w3.org/1999/xlink" width="720pt" height="144pt" viewBox="0 0 720 144" xmlns="http://www.w3.org/2000/svg" version="1.1">
 <metadata>
  <rdf:RDF xmlns:dc="http://purl.org/dc/elements/1.1/" xmlns:cc="http://creativecommons.org/ns#" xmlns:rdf="http://www.w3.org/1999/02/22-rdf-syntax-ns#">
   <cc:Work>
    <dc:type rdf:resource="http://purl.org/dc/dcmitype/StillImage"/>
    <dc:date>2022-03-17T21:02:01.353153</dc:date>
    <dc:format>image/svg+xml</dc:format>
    <dc:creator>
     <cc:Agent>
      <dc:title>Matplotlib v3.5.1, https://matplotlib.org/</dc:title>
     </cc:Agent>
    </dc:creator>
   </cc:Work>
  </rdf:RDF>
 </metadata>
 <defs>
  <style type="text/css">*{stroke-linejoin: round; stroke-linecap: butt}</style>
 </defs>
 <g id="figure_1">
  <g id="patch_1">
   <path d="M 0 144 
L 720 144 
L 720 0 
L 0 0 
z
" style="fill: #ffffff"/>
  </g>
  <g id="axes_1">
   <g id="patch_2">
    <path d="M 90 128.16 
L 648 128.16 
L 648 17.28 
L 90 17.28 
z
" style="fill: #ffffff"/>
   </g>
   <g id="matplotlib.axis_1">
    <g id="xtick_1">
     <g id="line2d_1">
      <defs>
       <path id="m4215e79dc9" d="M 0 0 
L 0 3.5 
" style="stroke: #000000; stroke-width: 0.8"/>
      </defs>
      <g>
       <use xlink:href="#m4215e79dc9" x="115.363636" y="128.16" style="stroke: #000000; stroke-width: 0.8"/>
      </g>
     </g>
     <g id="text_1">
      <!-- 2020-06-18 -->
      <g transform="translate(86.305824 142.758438)scale(0.1 -0.1)">
       <defs>
        <path id="DejaVuSans-32" d="M 1228 531 
L 3431 531 
L 3431 0 
L 469 0 
L 469 531 
Q 828 903 1448 1529 
Q 2069 2156 2228 2338 
Q 2531 2678 2651 2914 
Q 2772 3150 2772 3378 
Q 2772 3750 2511 3984 
Q 2250 4219 1831 4219 
Q 1534 4219 1204 4116 
Q 875 4013 500 3803 
L 500 4441 
Q 881 4594 1212 4672 
Q 1544 4750 1819 4750 
Q 2544 4750 2975 4387 
Q 3406 4025 3406 3419 
Q 3406 3131 3298 2873 
Q 3191 2616 2906 2266 
Q 2828 2175 2409 1742 
Q 1991 1309 1228 531 
z
" transform="scale(0.015625)"/>
        <path id="DejaVuSans-30" d="M 2034 4250 
Q 1547 4250 1301 3770 
Q 1056 3291 1056 2328 
Q 1056 1369 1301 889 
Q 1547 409 2034 409 
Q 2525 409 2770 889 
Q 3016 1369 3016 2328 
Q 3016 3291 2770 3770 
Q 2525 4250 2034 4250 
z
M 2034 4750 
Q 2819 4750 3233 4129 
Q 3647 3509 3647 2328 
Q 3647 1150 3233 529 
Q 2819 -91 2034 -91 
Q 1250 -91 836 529 
Q 422 1150 422 2328 
Q 422 3509 836 4129 
Q 1250 4750 2034 4750 
z
" transform="scale(0.015625)"/>
        <path id="DejaVuSans-2d" d="M 313 2009 
L 1997 2009 
L 1997 1497 
L 313 1497 
L 313 2009 
z
" transform="scale(0.015625)"/>
        <path id="DejaVuSans-36" d="M 2113 2584 
Q 1688 2584 1439 2293 
Q 1191 2003 1191 1497 
Q 1191 994 1439 701 
Q 1688 409 2113 409 
Q 2538 409 2786 701 
Q 3034 994 3034 1497 
Q 3034 2003 2786 2293 
Q 2538 2584 2113 2584 
z
M 3366 4563 
L 3366 3988 
Q 3128 4100 2886 4159 
Q 2644 4219 2406 4219 
Q 1781 4219 1451 3797 
Q 1122 3375 1075 2522 
Q 1259 2794 1537 2939 
Q 1816 3084 2150 3084 
Q 2853 3084 3261 2657 
Q 3669 2231 3669 1497 
Q 3669 778 3244 343 
Q 2819 -91 2113 -91 
Q 1303 -91 875 529 
Q 447 1150 447 2328 
Q 447 3434 972 4092 
Q 1497 4750 2381 4750 
Q 2619 4750 2861 4703 
Q 3103 4656 3366 4563 
z
" transform="scale(0.015625)"/>
        <path id="DejaVuSans-31" d="M 794 531 
L 1825 531 
L 1825 4091 
L 703 3866 
L 703 4441 
L 1819 4666 
L 2450 4666 
L 2450 531 
L 3481 531 
L 3481 0 
L 794 0 
L 794 531 
z
" transform="scale(0.015625)"/>
        <path id="DejaVuSans-38" d="M 2034 2216 
Q 1584 2216 1326 1975 
Q 1069 1734 1069 1313 
Q 1069 891 1326 650 
Q 1584 409 2034 409 
Q 2484 409 2743 651 
Q 3003 894 3003 1313 
Q 3003 1734 2745 1975 
Q 2488 2216 2034 2216 
z
M 1403 2484 
Q 997 2584 770 2862 
Q 544 3141 544 3541 
Q 544 4100 942 4425 
Q 1341 4750 2034 4750 
Q 2731 4750 3128 4425 
Q 3525 4100 3525 3541 
Q 3525 3141 3298 2862 
Q 3072 2584 2669 2484 
Q 3125 2378 3379 2068 
Q 3634 1759 3634 1313 
Q 3634 634 3220 271 
Q 2806 -91 2034 -91 
Q 1263 -91 848 271 
Q 434 634 434 1313 
Q 434 1759 690 2068 
Q 947 2378 1403 2484 
z
M 1172 3481 
Q 1172 3119 1398 2916 
Q 1625 2713 2034 2713 
Q 2441 2713 2670 2916 
Q 2900 3119 2900 3481 
Q 2900 3844 2670 4047 
Q 2441 4250 2034 4250 
Q 1625 4250 1398 4047 
Q 1172 3844 1172 3481 
z
" transform="scale(0.015625)"/>
       </defs>
       <use xlink:href="#DejaVuSans-32"/>
       <use xlink:href="#DejaVuSans-30" x="63.623047"/>
       <use xlink:href="#DejaVuSans-32" x="127.246094"/>
       <use xlink:href="#DejaVuSans-30" x="190.869141"/>
       <use xlink:href="#DejaVuSans-2d" x="254.492188"/>
       <use xlink:href="#DejaVuSans-30" x="290.576172"/>
       <use xlink:href="#DejaVuSans-36" x="354.199219"/>
       <use xlink:href="#DejaVuSans-2d" x="417.822266"/>
       <use xlink:href="#DejaVuSans-31" x="453.90625"/>
       <use xlink:href="#DejaVuSans-38" x="517.529297"/>
      </g>
     </g>
    </g>
    <g id="xtick_2">
     <g id="line2d_2">
      <g>
       <use xlink:href="#m4215e79dc9" x="208.100881" y="128.16" style="stroke: #000000; stroke-width: 0.8"/>
      </g>
     </g>
     <g id="text_2">
      <!-- 2020-10-23 -->
      <g transform="translate(179.043068 142.758438)scale(0.1 -0.1)">
       <defs>
        <path id="DejaVuSans-33" d="M 2597 2516 
Q 3050 2419 3304 2112 
Q 3559 1806 3559 1356 
Q 3559 666 3084 287 
Q 2609 -91 1734 -91 
Q 1441 -91 1130 -33 
Q 819 25 488 141 
L 488 750 
Q 750 597 1062 519 
Q 1375 441 1716 441 
Q 2309 441 2620 675 
Q 2931 909 2931 1356 
Q 2931 1769 2642 2001 
Q 2353 2234 1838 2234 
L 1294 2234 
L 1294 2753 
L 1863 2753 
Q 2328 2753 2575 2939 
Q 2822 3125 2822 3475 
Q 2822 3834 2567 4026 
Q 2313 4219 1838 4219 
Q 1578 4219 1281 4162 
Q 984 4106 628 3988 
L 628 4550 
Q 988 4650 1302 4700 
Q 1616 4750 1894 4750 
Q 2613 4750 3031 4423 
Q 3450 4097 3450 3541 
Q 3450 3153 3228 2886 
Q 3006 2619 2597 2516 
z
" transform="scale(0.015625)"/>
       </defs>
       <use xlink:href="#DejaVuSans-32"/>
       <use xlink:href="#DejaVuSans-30" x="63.623047"/>
       <use xlink:href="#DejaVuSans-32" x="127.246094"/>
       <use xlink:href="#DejaVuSans-30" x="190.869141"/>
       <use xlink:href="#DejaVuSans-2d" x="254.492188"/>
       <use xlink:href="#DejaVuSans-31" x="290.576172"/>
       <use xlink:href="#DejaVuSans-30" x="354.199219"/>
       <use xlink:href="#DejaVuSans-2d" x="417.822266"/>
       <use xlink:href="#DejaVuSans-32" x="453.90625"/>
       <use xlink:href="#DejaVuSans-33" x="517.529297"/>
      </g>
     </g>
    </g>
    <g id="xtick_3">
     <g id="line2d_3">
      <g>
       <use xlink:href="#m4215e79dc9" x="300.838125" y="128.16" style="stroke: #000000; stroke-width: 0.8"/>
      </g>
     </g>
     <g id="text_3">
      <!-- 2021-03-13 -->
      <g transform="translate(271.780313 142.758438)scale(0.1 -0.1)">
       <use xlink:href="#DejaVuSans-32"/>
       <use xlink:href="#DejaVuSans-30" x="63.623047"/>
       <use xlink:href="#DejaVuSans-32" x="127.246094"/>
       <use xlink:href="#DejaVuSans-31" x="190.869141"/>
       <use xlink:href="#DejaVuSans-2d" x="254.492188"/>
       <use xlink:href="#DejaVuSans-30" x="290.576172"/>
       <use xlink:href="#DejaVuSans-33" x="354.199219"/>
       <use xlink:href="#DejaVuSans-2d" x="417.822266"/>
       <use xlink:href="#DejaVuSans-31" x="453.90625"/>
       <use xlink:href="#DejaVuSans-33" x="517.529297"/>
      </g>
     </g>
    </g>
    <g id="xtick_4">
     <g id="line2d_4">
      <g>
       <use xlink:href="#m4215e79dc9" x="393.57537" y="128.16" style="stroke: #000000; stroke-width: 0.8"/>
      </g>
     </g>
     <g id="text_4">
      <!-- 2021-07-01 -->
      <g transform="translate(364.517557 142.758438)scale(0.1 -0.1)">
       <defs>
        <path id="DejaVuSans-37" d="M 525 4666 
L 3525 4666 
L 3525 4397 
L 1831 0 
L 1172 0 
L 2766 4134 
L 525 4134 
L 525 4666 
z
" transform="scale(0.015625)"/>
       </defs>
       <use xlink:href="#DejaVuSans-32"/>
       <use xlink:href="#DejaVuSans-30" x="63.623047"/>
       <use xlink:href="#DejaVuSans-32" x="127.246094"/>
       <use xlink:href="#DejaVuSans-31" x="190.869141"/>
       <use xlink:href="#DejaVuSans-2d" x="254.492188"/>
       <use xlink:href="#DejaVuSans-30" x="290.576172"/>
       <use xlink:href="#DejaVuSans-37" x="354.199219"/>
       <use xlink:href="#DejaVuSans-2d" x="417.822266"/>
       <use xlink:href="#DejaVuSans-30" x="453.90625"/>
       <use xlink:href="#DejaVuSans-31" x="517.529297"/>
      </g>
     </g>
    </g>
    <g id="xtick_5">
     <g id="line2d_5">
      <g>
       <use xlink:href="#m4215e79dc9" x="486.312614" y="128.16" style="stroke: #000000; stroke-width: 0.8"/>
      </g>
     </g>
     <g id="text_5">
      <!-- 2021-10-16 -->
      <g transform="translate(457.254802 142.758438)scale(0.1 -0.1)">
       <use xlink:href="#DejaVuSans-32"/>
       <use xlink:href="#DejaVuSans-30" x="63.623047"/>
       <use xlink:href="#DejaVuSans-32" x="127.246094"/>
       <use xlink:href="#DejaVuSans-31" x="190.869141"/>
       <use xlink:href="#DejaVuSans-2d" x="254.492188"/>
       <use xlink:href="#DejaVuSans-31" x="290.576172"/>
       <use xlink:href="#DejaVuSans-30" x="354.199219"/>
       <use xlink:href="#DejaVuSans-2d" x="417.822266"/>
       <use xlink:href="#DejaVuSans-31" x="453.90625"/>
       <use xlink:href="#DejaVuSans-36" x="517.529297"/>
      </g>
     </g>
    </g>
    <g id="xtick_6">
     <g id="line2d_6">
      <g>
       <use xlink:href="#m4215e79dc9" x="579.049859" y="128.16" style="stroke: #000000; stroke-width: 0.8"/>
      </g>
     </g>
     <g id="text_6">
      <!-- 2022-01-27 -->
      <g transform="translate(549.992046 142.758438)scale(0.1 -0.1)">
       <use xlink:href="#DejaVuSans-32"/>
       <use xlink:href="#DejaVuSans-30" x="63.623047"/>
       <use xlink:href="#DejaVuSans-32" x="127.246094"/>
       <use xlink:href="#DejaVuSans-32" x="190.869141"/>
       <use xlink:href="#DejaVuSans-2d" x="254.492188"/>
       <use xlink:href="#DejaVuSans-30" x="290.576172"/>
       <use xlink:href="#DejaVuSans-31" x="354.199219"/>
       <use xlink:href="#DejaVuSans-2d" x="417.822266"/>
       <use xlink:href="#DejaVuSans-32" x="453.90625"/>
       <use xlink:href="#DejaVuSans-37" x="517.529297"/>
      </g>
     </g>
    </g>
    <g id="text_7">
     <!-- date -->
     <g transform="translate(357.725 156.436563)scale(0.1 -0.1)">
      <defs>
       <path id="DejaVuSans-64" d="M 2906 2969 
L 2906 4863 
L 3481 4863 
L 3481 0 
L 2906 0 
L 2906 525 
Q 2725 213 2448 61 
Q 2172 -91 1784 -91 
Q 1150 -91 751 415 
Q 353 922 353 1747 
Q 353 2572 751 3078 
Q 1150 3584 1784 3584 
Q 2172 3584 2448 3432 
Q 2725 3281 2906 2969 
z
M 947 1747 
Q 947 1113 1208 752 
Q 1469 391 1925 391 
Q 2381 391 2643 752 
Q 2906 1113 2906 1747 
Q 2906 2381 2643 2742 
Q 2381 3103 1925 3103 
Q 1469 3103 1208 2742 
Q 947 2381 947 1747 
z
" transform="scale(0.015625)"/>
       <path id="DejaVuSans-61" d="M 2194 1759 
Q 1497 1759 1228 1600 
Q 959 1441 959 1056 
Q 959 750 1161 570 
Q 1363 391 1709 391 
Q 2188 391 2477 730 
Q 2766 1069 2766 1631 
L 2766 1759 
L 2194 1759 
z
M 3341 1997 
L 3341 0 
L 2766 0 
L 2766 531 
Q 2569 213 2275 61 
Q 1981 -91 1556 -91 
Q 1019 -91 701 211 
Q 384 513 384 1019 
Q 384 1609 779 1909 
Q 1175 2209 1959 2209 
L 2766 2209 
L 2766 2266 
Q 2766 2663 2505 2880 
Q 2244 3097 1772 3097 
Q 1472 3097 1187 3025 
Q 903 2953 641 2809 
L 641 3341 
Q 956 3463 1253 3523 
Q 1550 3584 1831 3584 
Q 2591 3584 2966 3190 
Q 3341 2797 3341 1997 
z
" transform="scale(0.015625)"/>
       <path id="DejaVuSans-74" d="M 1172 4494 
L 1172 3500 
L 2356 3500 
L 2356 3053 
L 1172 3053 
L 1172 1153 
Q 1172 725 1289 603 
Q 1406 481 1766 481 
L 2356 481 
L 2356 0 
L 1766 0 
Q 1100 0 847 248 
Q 594 497 594 1153 
L 594 3053 
L 172 3053 
L 172 3500 
L 594 3500 
L 594 4494 
L 1172 4494 
z
" transform="scale(0.015625)"/>
       <path id="DejaVuSans-65" d="M 3597 1894 
L 3597 1613 
L 953 1613 
Q 991 1019 1311 708 
Q 1631 397 2203 397 
Q 2534 397 2845 478 
Q 3156 559 3463 722 
L 3463 178 
Q 3153 47 2828 -22 
Q 2503 -91 2169 -91 
Q 1331 -91 842 396 
Q 353 884 353 1716 
Q 353 2575 817 3079 
Q 1281 3584 2069 3584 
Q 2775 3584 3186 3129 
Q 3597 2675 3597 1894 
z
M 3022 2063 
Q 3016 2534 2758 2815 
Q 2500 3097 2075 3097 
Q 1594 3097 1305 2825 
Q 1016 2553 972 2059 
L 3022 2063 
z
" transform="scale(0.015625)"/>
      </defs>
      <use xlink:href="#DejaVuSans-64"/>
      <use xlink:href="#DejaVuSans-61" x="63.476562"/>
      <use xlink:href="#DejaVuSans-74" x="124.755859"/>
      <use xlink:href="#DejaVuSans-65" x="163.964844"/>
     </g>
    </g>
   </g>
   <g id="matplotlib.axis_2">
    <g id="ytick_1">
     <g id="line2d_7">
      <defs>
       <path id="mb5ad81e8f6" d="M 0 0 
L -3.5 0 
" style="stroke: #000000; stroke-width: 0.8"/>
      </defs>
      <g>
       <use xlink:href="#mb5ad81e8f6" x="90" y="124.695" style="stroke: #000000; stroke-width: 0.8"/>
      </g>
     </g>
     <g id="text_8">
      <!-- 0 -->
      <g transform="translate(76.6375 128.494219)scale(0.1 -0.1)">
       <use xlink:href="#DejaVuSans-30"/>
      </g>
     </g>
    </g>
    <g id="ytick_2">
     <g id="line2d_8">
      <g>
       <use xlink:href="#mb5ad81e8f6" x="90" y="93.195" style="stroke: #000000; stroke-width: 0.8"/>
      </g>
     </g>
     <g id="text_9">
      <!-- 20 -->
      <g transform="translate(70.275 96.994219)scale(0.1 -0.1)">
       <use xlink:href="#DejaVuSans-32"/>
       <use xlink:href="#DejaVuSans-30" x="63.623047"/>
      </g>
     </g>
    </g>
    <g id="ytick_3">
     <g id="line2d_9">
      <g>
       <use xlink:href="#mb5ad81e8f6" x="90" y="61.695" style="stroke: #000000; stroke-width: 0.8"/>
      </g>
     </g>
     <g id="text_10">
      <!-- 40 -->
      <g transform="translate(70.275 65.494219)scale(0.1 -0.1)">
       <defs>
        <path id="DejaVuSans-34" d="M 2419 4116 
L 825 1625 
L 2419 1625 
L 2419 4116 
z
M 2253 4666 
L 3047 4666 
L 3047 1625 
L 3713 1625 
L 3713 1100 
L 3047 1100 
L 3047 0 
L 2419 0 
L 2419 1100 
L 313 1100 
L 313 1709 
L 2253 4666 
z
" transform="scale(0.015625)"/>
       </defs>
       <use xlink:href="#DejaVuSans-34"/>
       <use xlink:href="#DejaVuSans-30" x="63.623047"/>
      </g>
     </g>
    </g>
    <g id="ytick_4">
     <g id="line2d_10">
      <g>
       <use xlink:href="#mb5ad81e8f6" x="90" y="30.195" style="stroke: #000000; stroke-width: 0.8"/>
      </g>
     </g>
     <g id="text_11">
      <!-- 60 -->
      <g transform="translate(70.275 33.994219)scale(0.1 -0.1)">
       <use xlink:href="#DejaVuSans-36"/>
       <use xlink:href="#DejaVuSans-30" x="63.623047"/>
      </g>
     </g>
    </g>
   </g>
   <g id="line2d_11">
    <path d="M 115.363636 90.045 
L 116.291009 102.645 
L 117.218381 118.395 
L 120.000499 123.12 
L 120.927871 119.97 
L 121.855243 112.095 
L 122.782616 121.545 
L 123.709988 119.97 
L 124.637361 121.545 
L 125.564733 86.895 
L 126.492106 113.67 
L 127.419478 119.97 
L 128.346851 112.095 
L 129.274223 121.545 
L 130.201595 115.245 
L 131.128968 113.67 
L 132.05634 123.12 
L 132.983713 119.97 
L 133.911085 108.945 
L 134.838458 112.095 
L 135.76583 118.395 
L 136.693203 119.97 
L 137.620575 119.97 
L 139.47532 123.12 
L 140.402692 110.52 
L 141.330065 44.37 
L 142.257437 115.245 
L 143.18481 119.97 
L 144.112182 119.97 
L 145.039555 116.82 
L 145.966927 121.545 
L 146.894299 118.395 
L 147.821672 123.12 
L 148.749044 119.97 
L 149.676417 119.97 
L 150.603789 123.12 
L 151.531162 121.545 
L 152.458534 118.395 
L 153.385907 118.395 
L 154.313279 115.245 
L 155.240651 123.12 
L 156.168024 123.12 
L 157.095396 121.545 
L 158.022769 121.545 
L 158.950141 123.12 
L 159.877514 123.12 
L 160.804886 99.495 
L 161.732259 116.82 
L 162.659631 113.67 
L 163.587003 121.545 
L 164.514376 116.82 
L 165.441748 113.67 
L 166.369121 116.82 
L 167.296493 123.12 
L 168.223866 121.545 
L 169.151238 116.82 
L 170.078611 123.12 
L 171.933355 119.97 
L 172.860728 113.67 
L 174.715473 123.12 
L 175.642845 118.395 
L 176.570218 116.82 
L 177.49759 123.12 
L 178.424963 118.395 
L 179.352335 123.12 
L 180.279707 121.545 
L 181.20708 116.82 
L 182.134452 123.12 
L 183.061825 121.545 
L 183.989197 121.545 
L 184.91657 123.12 
L 185.843942 116.82 
L 186.771315 123.12 
L 187.698687 119.97 
L 189.553432 119.97 
L 190.480804 118.395 
L 191.408177 115.245 
L 192.335549 119.97 
L 193.262922 115.245 
L 194.190294 123.12 
L 196.045039 119.97 
L 196.972412 116.82 
L 197.899784 121.545 
L 198.827156 123.12 
L 199.754529 121.545 
L 200.681901 118.395 
L 201.609274 119.97 
L 202.536646 123.12 
L 203.464019 102.645 
L 204.391391 123.12 
L 205.318764 119.97 
L 206.246136 118.395 
L 207.173508 123.12 
L 208.100881 118.395 
L 209.028253 112.095 
L 209.955626 119.97 
L 210.882998 123.12 
L 211.810371 123.12 
L 212.737743 121.545 
L 213.665116 123.12 
L 214.592488 123.12 
L 215.51986 121.545 
L 216.447233 121.545 
L 217.374605 119.97 
L 218.301978 121.545 
L 221.084095 116.82 
L 222.011468 119.97 
L 222.93884 119.97 
L 224.793585 116.82 
L 225.720957 121.545 
L 226.64833 123.12 
L 227.575702 113.67 
L 228.503075 121.545 
L 229.430447 121.545 
L 230.35782 112.095 
L 231.285192 119.97 
L 232.212564 119.97 
L 233.139937 85.32 
L 234.067309 116.82 
L 234.994682 119.97 
L 235.922054 113.67 
L 236.849427 121.545 
L 237.776799 115.245 
L 238.704172 121.545 
L 239.631544 112.095 
L 240.558916 116.82 
L 241.486289 123.12 
L 242.413661 121.545 
L 243.341034 104.22 
L 244.268406 116.82 
L 245.195779 121.545 
L 246.123151 123.12 
L 247.050524 123.12 
L 247.977896 112.095 
L 248.905268 123.12 
L 249.832641 123.12 
L 250.760013 118.395 
L 251.687386 123.12 
L 252.614758 123.12 
L 254.469503 116.82 
L 255.396876 123.12 
L 256.324248 119.97 
L 258.178993 123.12 
L 259.106365 116.82 
L 260.033738 123.12 
L 260.96111 123.12 
L 261.888483 121.545 
L 262.815855 123.12 
L 263.743228 123.12 
L 264.6706 116.82 
L 266.525345 123.12 
L 268.38009 119.97 
L 269.307462 119.97 
L 270.234835 121.545 
L 271.162207 118.395 
L 272.08958 121.545 
L 273.016952 123.12 
L 274.871697 123.12 
L 275.799069 116.82 
L 276.726442 123.12 
L 277.653814 121.545 
L 278.581187 123.12 
L 279.508559 116.82 
L 280.435932 119.97 
L 281.363304 121.545 
L 282.290676 121.545 
L 283.218049 118.395 
L 284.145421 121.545 
L 285.072794 119.97 
L 286.000166 119.97 
L 286.927539 121.545 
L 287.854911 121.545 
L 288.782284 123.12 
L 289.709656 113.67 
L 290.637028 121.545 
L 291.564401 121.545 
L 292.491773 123.12 
L 293.419146 121.545 
L 294.346518 123.12 
L 295.273891 123.12 
L 297.128636 119.97 
L 298.056008 107.37 
L 298.98338 112.095 
L 299.910753 77.445 
L 300.838125 123.12 
L 301.765498 121.545 
L 302.69287 113.67 
L 303.620243 116.82 
L 304.547615 115.245 
L 305.474988 102.645 
L 306.40236 123.12 
L 307.329732 121.545 
L 308.257105 118.395 
L 309.184477 113.67 
L 310.11185 107.37 
L 311.039222 88.47 
L 311.966595 101.07 
L 312.893967 121.545 
L 313.82134 71.145 
L 314.748712 99.495 
L 315.676084 112.095 
L 316.603457 102.645 
L 317.530829 116.82 
L 318.458202 102.645 
L 319.385574 104.22 
L 320.312947 101.07 
L 321.240319 88.47 
L 322.167692 119.97 
L 323.095064 113.67 
L 324.022436 119.97 
L 324.949809 123.12 
L 325.877181 116.82 
L 326.804554 123.12 
L 327.731926 119.97 
L 328.659299 123.12 
L 329.586671 121.545 
L 330.514044 102.645 
L 331.441416 119.97 
L 332.368788 115.245 
L 333.296161 118.395 
L 334.223533 116.82 
L 335.150906 123.12 
L 336.078278 113.67 
L 337.005651 116.82 
L 337.933023 121.545 
L 338.860396 115.245 
L 339.787768 123.12 
L 340.71514 119.97 
L 341.642513 123.12 
L 342.569885 118.395 
L 343.497258 121.545 
L 344.42463 118.395 
L 345.352003 116.82 
L 346.279375 121.545 
L 348.13412 121.545 
L 349.061492 118.395 
L 349.988865 116.82 
L 350.916237 90.045 
L 351.84361 93.195 
L 352.770982 119.97 
L 353.698355 121.545 
L 354.625727 115.245 
L 355.5531 116.82 
L 356.480472 113.67 
L 357.407844 121.545 
L 358.335217 123.12 
L 359.262589 115.245 
L 360.189962 113.67 
L 361.117334 108.945 
L 362.044707 121.545 
L 362.972079 116.82 
L 363.899452 121.545 
L 364.826824 121.545 
L 365.754196 123.12 
L 367.608941 116.82 
L 369.463686 123.12 
L 370.391059 119.97 
L 371.318431 121.545 
L 372.245804 113.67 
L 373.173176 110.52 
L 374.100548 113.67 
L 375.027921 115.245 
L 375.955293 112.095 
L 376.882666 99.495 
L 377.810038 115.245 
L 378.737411 118.395 
L 379.664783 116.82 
L 380.592156 112.095 
L 381.519528 101.07 
L 382.4469 121.545 
L 383.374273 119.97 
L 384.301645 123.12 
L 385.229018 110.52 
L 386.15639 112.095 
L 387.083763 118.395 
L 388.011135 108.945 
L 388.938508 105.795 
L 389.86588 121.545 
L 390.793252 121.545 
L 391.720625 108.945 
L 392.647997 80.595 
L 393.57537 102.645 
L 394.502742 115.245 
L 395.430115 116.82 
L 396.357487 116.82 
L 398.212232 119.97 
L 399.139604 115.245 
L 400.066977 115.245 
L 400.994349 121.545 
L 401.921722 121.545 
L 402.849094 119.97 
L 403.776467 121.545 
L 404.703839 112.095 
L 405.631212 112.095 
L 406.558584 115.245 
L 407.485956 110.52 
L 408.413329 99.495 
L 409.340701 112.095 
L 410.268074 112.095 
L 411.195446 119.97 
L 412.122819 119.97 
L 413.050191 113.67 
L 413.977564 123.12 
L 414.904936 96.345 
L 415.832308 93.195 
L 416.759681 115.245 
L 417.687053 116.82 
L 418.614426 102.645 
L 419.541798 110.52 
L 420.469171 119.97 
L 421.396543 116.82 
L 422.323916 123.12 
L 423.251288 110.52 
L 424.17866 90.045 
L 425.106033 121.545 
L 426.033405 119.97 
L 427.88815 123.12 
L 428.815523 118.395 
L 429.742895 93.195 
L 430.670268 112.095 
L 431.59764 121.545 
L 432.525012 121.545 
L 433.452385 99.495 
L 434.379757 119.97 
L 435.30713 121.545 
L 436.234502 119.97 
L 439.943992 119.97 
L 440.871364 116.82 
L 441.798737 123.12 
L 442.726109 121.545 
L 443.653482 121.545 
L 444.580854 123.12 
L 445.508227 123.12 
L 446.435599 121.545 
L 447.362972 123.12 
L 448.290344 115.245 
L 449.217716 121.545 
L 450.145089 116.82 
L 451.072461 116.82 
L 451.999834 113.67 
L 452.927206 116.82 
L 453.854579 123.12 
L 454.781951 119.97 
L 456.636696 119.97 
L 457.564068 123.12 
L 458.491441 121.545 
L 459.418813 121.545 
L 460.346186 118.395 
L 461.273558 121.545 
L 464.055676 121.545 
L 464.983048 67.995 
L 465.91042 116.82 
L 466.837793 123.12 
L 467.765165 121.545 
L 468.692538 118.395 
L 469.61991 123.12 
L 470.547283 116.82 
L 471.474655 121.545 
L 472.402028 115.245 
L 473.3294 113.67 
L 474.256772 113.67 
L 475.184145 112.095 
L 476.111517 93.195 
L 477.03889 93.195 
L 477.966262 113.67 
L 478.893635 118.395 
L 479.821007 121.545 
L 480.74838 97.92 
L 481.675752 116.82 
L 482.603124 121.545 
L 483.530497 121.545 
L 484.457869 119.97 
L 485.385242 119.97 
L 486.312614 121.545 
L 487.239987 121.545 
L 488.167359 116.82 
L 489.094732 123.12 
L 490.022104 121.545 
L 490.949476 116.82 
L 491.876849 116.82 
L 492.804221 119.97 
L 494.658966 93.195 
L 495.586339 110.52 
L 496.513711 108.945 
L 497.441084 99.495 
L 498.368456 105.795 
L 500.223201 108.945 
L 501.150573 107.37 
L 502.077946 97.92 
L 503.005318 102.645 
L 503.932691 116.82 
L 504.860063 118.395 
L 505.787436 115.245 
L 506.714808 115.245 
L 507.64218 110.52 
L 508.569553 113.67 
L 509.496925 104.22 
L 510.424298 112.095 
L 511.35167 113.67 
L 512.279043 107.37 
L 513.206415 93.195 
L 514.133788 107.37 
L 515.06116 113.67 
L 516.915905 107.37 
L 517.843277 113.67 
L 518.77065 102.645 
L 519.698022 107.37 
L 520.625395 113.67 
L 521.552767 113.67 
L 522.48014 119.97 
L 523.407512 102.645 
L 524.334884 119.97 
L 525.262257 116.82 
L 526.189629 118.395 
L 527.117002 112.095 
L 528.044374 110.52 
L 528.971747 85.32 
L 529.899119 80.595 
L 530.826492 108.945 
L 531.753864 66.42 
L 532.681236 119.97 
L 533.608609 116.82 
L 534.535981 119.97 
L 535.463354 79.02 
L 536.390726 80.595 
L 538.245471 121.545 
L 539.172844 116.82 
L 540.100216 104.22 
L 541.027588 116.82 
L 541.954961 116.82 
L 542.882333 80.595 
L 543.809706 107.37 
L 544.737078 112.095 
L 546.591823 115.245 
L 547.519196 115.245 
L 548.446568 112.095 
L 551.228685 121.545 
L 552.156058 110.52 
L 553.08343 121.545 
L 554.010803 121.545 
L 555.865548 118.395 
L 556.79292 123.12 
L 557.720293 118.395 
L 558.647665 115.245 
L 559.575037 119.97 
L 560.50241 121.545 
L 561.429782 121.545 
L 562.357155 110.52 
L 563.284527 123.12 
L 564.2119 88.47 
L 565.139272 119.97 
L 566.066645 121.545 
L 566.994017 116.82 
L 567.921389 116.82 
L 568.848762 118.395 
L 569.776134 121.545 
L 570.703507 112.095 
L 571.630879 119.97 
L 572.558252 116.82 
L 573.485624 118.395 
L 574.412997 86.895 
L 575.340369 119.97 
L 576.267741 115.245 
L 577.195114 123.12 
L 578.122486 123.12 
L 579.049859 121.545 
L 579.977231 110.52 
L 580.904604 121.545 
L 581.831976 112.095 
L 582.759349 116.82 
L 583.686721 123.12 
L 584.614093 116.82 
L 586.468838 116.82 
L 587.396211 112.095 
L 588.323583 108.945 
L 589.250956 118.395 
L 590.178328 118.395 
L 591.105701 116.82 
L 592.033073 119.97 
L 592.960445 119.97 
L 593.887818 116.82 
L 594.81519 112.095 
L 595.742563 112.095 
L 596.669935 115.245 
L 597.597308 121.545 
L 599.452053 121.545 
L 600.379425 93.195 
L 601.306797 27.045 
L 602.23417 58.545 
L 603.161542 115.245 
L 604.088915 119.97 
L 605.016287 116.82 
L 606.871032 94.77 
L 607.798405 113.67 
L 608.725777 86.895 
L 609.653149 52.245 
L 610.580522 116.82 
L 611.507894 50.67 
L 612.435267 104.22 
L 613.362639 121.545 
L 614.290012 31.77 
L 615.217384 82.17 
L 616.144757 99.495 
L 617.072129 22.32 
L 617.999501 115.245 
L 618.926874 116.82 
L 619.854246 80.595 
L 620.781619 102.645 
L 621.708991 75.87 
L 622.636364 102.645 
L 622.636364 102.645 
" clip-path="url(#p0aa123237e)" style="fill: none; stroke: #1f77b4; stroke-width: 1.5; stroke-linecap: square"/>
   </g>
   <g id="patch_3">
    <path d="M 90 128.16 
L 90 17.28 
" style="fill: none; stroke: #000000; stroke-width: 0.8; stroke-linejoin: miter; stroke-linecap: square"/>
   </g>
   <g id="patch_4">
    <path d="M 648 128.16 
L 648 17.28 
" style="fill: none; stroke: #000000; stroke-width: 0.8; stroke-linejoin: miter; stroke-linecap: square"/>
   </g>
   <g id="patch_5">
    <path d="M 90 128.16 
L 648 128.16 
" style="fill: none; stroke: #000000; stroke-width: 0.8; stroke-linejoin: miter; stroke-linecap: square"/>
   </g>
   <g id="patch_6">
    <path d="M 90 17.28 
L 648 17.28 
" style="fill: none; stroke: #000000; stroke-width: 0.8; stroke-linejoin: miter; stroke-linecap: square"/>
   </g>
   <g id="legend_1">
    <g id="patch_7">
     <path d="M 97 39.958125 
L 264.190625 39.958125 
Q 266.190625 39.958125 266.190625 37.958125 
L 266.190625 24.28 
Q 266.190625 22.28 264.190625 22.28 
L 97 22.28 
Q 95 22.28 95 24.28 
L 95 37.958125 
Q 95 39.958125 97 39.958125 
z
" style="fill: #ffffff; opacity: 0.8; stroke: #cccccc; stroke-linejoin: miter"/>
    </g>
    <g id="line2d_12">
     <path d="M 99 30.378437 
L 109 30.378437 
L 119 30.378437 
" style="fill: none; stroke: #1f77b4; stroke-width: 1.5; stroke-linecap: square"/>
    </g>
    <g id="text_12">
     <!-- Number of PyPI Downloads -->
     <g transform="translate(127 33.878437)scale(0.1 -0.1)">
      <defs>
       <path id="DejaVuSans-4e" d="M 628 4666 
L 1478 4666 
L 3547 763 
L 3547 4666 
L 4159 4666 
L 4159 0 
L 3309 0 
L 1241 3903 
L 1241 0 
L 628 0 
L 628 4666 
z
" transform="scale(0.015625)"/>
       <path id="DejaVuSans-75" d="M 544 1381 
L 544 3500 
L 1119 3500 
L 1119 1403 
Q 1119 906 1312 657 
Q 1506 409 1894 409 
Q 2359 409 2629 706 
Q 2900 1003 2900 1516 
L 2900 3500 
L 3475 3500 
L 3475 0 
L 2900 0 
L 2900 538 
Q 2691 219 2414 64 
Q 2138 -91 1772 -91 
Q 1169 -91 856 284 
Q 544 659 544 1381 
z
M 1991 3584 
L 1991 3584 
z
" transform="scale(0.015625)"/>
       <path id="DejaVuSans-6d" d="M 3328 2828 
Q 3544 3216 3844 3400 
Q 4144 3584 4550 3584 
Q 5097 3584 5394 3201 
Q 5691 2819 5691 2113 
L 5691 0 
L 5113 0 
L 5113 2094 
Q 5113 2597 4934 2840 
Q 4756 3084 4391 3084 
Q 3944 3084 3684 2787 
Q 3425 2491 3425 1978 
L 3425 0 
L 2847 0 
L 2847 2094 
Q 2847 2600 2669 2842 
Q 2491 3084 2119 3084 
Q 1678 3084 1418 2786 
Q 1159 2488 1159 1978 
L 1159 0 
L 581 0 
L 581 3500 
L 1159 3500 
L 1159 2956 
Q 1356 3278 1631 3431 
Q 1906 3584 2284 3584 
Q 2666 3584 2933 3390 
Q 3200 3197 3328 2828 
z
" transform="scale(0.015625)"/>
       <path id="DejaVuSans-62" d="M 3116 1747 
Q 3116 2381 2855 2742 
Q 2594 3103 2138 3103 
Q 1681 3103 1420 2742 
Q 1159 2381 1159 1747 
Q 1159 1113 1420 752 
Q 1681 391 2138 391 
Q 2594 391 2855 752 
Q 3116 1113 3116 1747 
z
M 1159 2969 
Q 1341 3281 1617 3432 
Q 1894 3584 2278 3584 
Q 2916 3584 3314 3078 
Q 3713 2572 3713 1747 
Q 3713 922 3314 415 
Q 2916 -91 2278 -91 
Q 1894 -91 1617 61 
Q 1341 213 1159 525 
L 1159 0 
L 581 0 
L 581 4863 
L 1159 4863 
L 1159 2969 
z
" transform="scale(0.015625)"/>
       <path id="DejaVuSans-72" d="M 2631 2963 
Q 2534 3019 2420 3045 
Q 2306 3072 2169 3072 
Q 1681 3072 1420 2755 
Q 1159 2438 1159 1844 
L 1159 0 
L 581 0 
L 581 3500 
L 1159 3500 
L 1159 2956 
Q 1341 3275 1631 3429 
Q 1922 3584 2338 3584 
Q 2397 3584 2469 3576 
Q 2541 3569 2628 3553 
L 2631 2963 
z
" transform="scale(0.015625)"/>
       <path id="DejaVuSans-20" transform="scale(0.015625)"/>
       <path id="DejaVuSans-6f" d="M 1959 3097 
Q 1497 3097 1228 2736 
Q 959 2375 959 1747 
Q 959 1119 1226 758 
Q 1494 397 1959 397 
Q 2419 397 2687 759 
Q 2956 1122 2956 1747 
Q 2956 2369 2687 2733 
Q 2419 3097 1959 3097 
z
M 1959 3584 
Q 2709 3584 3137 3096 
Q 3566 2609 3566 1747 
Q 3566 888 3137 398 
Q 2709 -91 1959 -91 
Q 1206 -91 779 398 
Q 353 888 353 1747 
Q 353 2609 779 3096 
Q 1206 3584 1959 3584 
z
" transform="scale(0.015625)"/>
       <path id="DejaVuSans-66" d="M 2375 4863 
L 2375 4384 
L 1825 4384 
Q 1516 4384 1395 4259 
Q 1275 4134 1275 3809 
L 1275 3500 
L 2222 3500 
L 2222 3053 
L 1275 3053 
L 1275 0 
L 697 0 
L 697 3053 
L 147 3053 
L 147 3500 
L 697 3500 
L 697 3744 
Q 697 4328 969 4595 
Q 1241 4863 1831 4863 
L 2375 4863 
z
" transform="scale(0.015625)"/>
       <path id="DejaVuSans-50" d="M 1259 4147 
L 1259 2394 
L 2053 2394 
Q 2494 2394 2734 2622 
Q 2975 2850 2975 3272 
Q 2975 3691 2734 3919 
Q 2494 4147 2053 4147 
L 1259 4147 
z
M 628 4666 
L 2053 4666 
Q 2838 4666 3239 4311 
Q 3641 3956 3641 3272 
Q 3641 2581 3239 2228 
Q 2838 1875 2053 1875 
L 1259 1875 
L 1259 0 
L 628 0 
L 628 4666 
z
" transform="scale(0.015625)"/>
       <path id="DejaVuSans-79" d="M 2059 -325 
Q 1816 -950 1584 -1140 
Q 1353 -1331 966 -1331 
L 506 -1331 
L 506 -850 
L 844 -850 
Q 1081 -850 1212 -737 
Q 1344 -625 1503 -206 
L 1606 56 
L 191 3500 
L 800 3500 
L 1894 763 
L 2988 3500 
L 3597 3500 
L 2059 -325 
z
" transform="scale(0.015625)"/>
       <path id="DejaVuSans-49" d="M 628 4666 
L 1259 4666 
L 1259 0 
L 628 0 
L 628 4666 
z
" transform="scale(0.015625)"/>
       <path id="DejaVuSans-44" d="M 1259 4147 
L 1259 519 
L 2022 519 
Q 2988 519 3436 956 
Q 3884 1394 3884 2338 
Q 3884 3275 3436 3711 
Q 2988 4147 2022 4147 
L 1259 4147 
z
M 628 4666 
L 1925 4666 
Q 3281 4666 3915 4102 
Q 4550 3538 4550 2338 
Q 4550 1131 3912 565 
Q 3275 0 1925 0 
L 628 0 
L 628 4666 
z
" transform="scale(0.015625)"/>
       <path id="DejaVuSans-77" d="M 269 3500 
L 844 3500 
L 1563 769 
L 2278 3500 
L 2956 3500 
L 3675 769 
L 4391 3500 
L 4966 3500 
L 4050 0 
L 3372 0 
L 2619 2869 
L 1863 0 
L 1184 0 
L 269 3500 
z
" transform="scale(0.015625)"/>
       <path id="DejaVuSans-6e" d="M 3513 2113 
L 3513 0 
L 2938 0 
L 2938 2094 
Q 2938 2591 2744 2837 
Q 2550 3084 2163 3084 
Q 1697 3084 1428 2787 
Q 1159 2491 1159 1978 
L 1159 0 
L 581 0 
L 581 3500 
L 1159 3500 
L 1159 2956 
Q 1366 3272 1645 3428 
Q 1925 3584 2291 3584 
Q 2894 3584 3203 3211 
Q 3513 2838 3513 2113 
z
" transform="scale(0.015625)"/>
       <path id="DejaVuSans-6c" d="M 603 4863 
L 1178 4863 
L 1178 0 
L 603 0 
L 603 4863 
z
" transform="scale(0.015625)"/>
       <path id="DejaVuSans-73" d="M 2834 3397 
L 2834 2853 
Q 2591 2978 2328 3040 
Q 2066 3103 1784 3103 
Q 1356 3103 1142 2972 
Q 928 2841 928 2578 
Q 928 2378 1081 2264 
Q 1234 2150 1697 2047 
L 1894 2003 
Q 2506 1872 2764 1633 
Q 3022 1394 3022 966 
Q 3022 478 2636 193 
Q 2250 -91 1575 -91 
Q 1294 -91 989 -36 
Q 684 19 347 128 
L 347 722 
Q 666 556 975 473 
Q 1284 391 1588 391 
Q 1994 391 2212 530 
Q 2431 669 2431 922 
Q 2431 1156 2273 1281 
Q 2116 1406 1581 1522 
L 1381 1569 
Q 847 1681 609 1914 
Q 372 2147 372 2553 
Q 372 3047 722 3315 
Q 1072 3584 1716 3584 
Q 2034 3584 2315 3537 
Q 2597 3491 2834 3397 
z
" transform="scale(0.015625)"/>
      </defs>
      <use xlink:href="#DejaVuSans-4e"/>
      <use xlink:href="#DejaVuSans-75" x="74.804688"/>
      <use xlink:href="#DejaVuSans-6d" x="138.183594"/>
      <use xlink:href="#DejaVuSans-62" x="235.595703"/>
      <use xlink:href="#DejaVuSans-65" x="299.072266"/>
      <use xlink:href="#DejaVuSans-72" x="360.595703"/>
      <use xlink:href="#DejaVuSans-20" x="401.708984"/>
      <use xlink:href="#DejaVuSans-6f" x="433.496094"/>
      <use xlink:href="#DejaVuSans-66" x="494.677734"/>
      <use xlink:href="#DejaVuSans-20" x="529.882812"/>
      <use xlink:href="#DejaVuSans-50" x="561.669922"/>
      <use xlink:href="#DejaVuSans-79" x="621.972656"/>
      <use xlink:href="#DejaVuSans-50" x="681.152344"/>
      <use xlink:href="#DejaVuSans-49" x="741.455078"/>
      <use xlink:href="#DejaVuSans-20" x="770.947266"/>
      <use xlink:href="#DejaVuSans-44" x="802.734375"/>
      <use xlink:href="#DejaVuSans-6f" x="879.736328"/>
      <use xlink:href="#DejaVuSans-77" x="940.917969"/>
      <use xlink:href="#DejaVuSans-6e" x="1022.705078"/>
      <use xlink:href="#DejaVuSans-6c" x="1086.083984"/>
      <use xlink:href="#DejaVuSans-6f" x="1113.867188"/>
      <use xlink:href="#DejaVuSans-61" x="1175.048828"/>
      <use xlink:href="#DejaVuSans-64" x="1236.328125"/>
      <use xlink:href="#DejaVuSans-73" x="1299.804688"/>
     </g>
    </g>
   </g>
  </g>
 </g>
 <defs>
  <clipPath id="p0aa123237e">
   <rect x="90" y="17.28" width="558" height="110.88"/>
  </clipPath>
 </defs>
</svg>
