<?xml version="1.0" encoding="utf-8" standalone="no"?>
<!DOCTYPE svg PUBLIC "-//W3C//DTD SVG 1.1//EN"
  "http://www.w3.org/Graphics/SVG/1.1/DTD/svg11.dtd">
<svg xmlns:xlink="http://www.w3.org/1999/xlink" width="720pt" height="144pt" viewBox="0 0 720 144" xmlns="http://www.w3.org/2000/svg" version="1.1">
 <metadata>
  <rdf:RDF xmlns:dc="http://purl.org/dc/elements/1.1/" xmlns:cc="http://creativecommons.org/ns#" xmlns:rdf="http://www.w3.org/1999/02/22-rdf-syntax-ns#">
   <cc:Work>
    <dc:type rdf:resource="http://purl.org/dc/dcmitype/StillImage"/>
    <dc:date>2022-06-01T20:57:09.456673</dc:date>
    <dc:format>image/svg+xml</dc:format>
    <dc:creator>
     <cc:Agent>
      <dc:title>Matplotlib v3.5.2, https://matplotlib.org/</dc:title>
     </cc:Agent>
    </dc:creator>
   </cc:Work>
  </rdf:RDF>
 </metadata>
 <defs>
  <style type="text/css">*{stroke-linejoin: round; stroke-linecap: butt}</style>
 </defs>
 <g id="figure_1">
  <g id="patch_1">
   <path d="M 0 144 
L 720 144 
L 720 0 
L 0 0 
z
" style="fill: #ffffff"/>
  </g>
  <g id="axes_1">
   <g id="patch_2">
    <path d="M 90 128.16 
L 648 128.16 
L 648 17.28 
L 90 17.28 
z
" style="fill: #ffffff"/>
   </g>
   <g id="matplotlib.axis_1">
    <g id="xtick_1">
     <g id="line2d_1">
      <defs>
       <path id="m93e67eab3d" d="M 0 0 
L 0 3.5 
" style="stroke: #000000; stroke-width: 0.8"/>
      </defs>
      <g>
       <use xlink:href="#m93e67eab3d" x="115.363636" y="128.16" style="stroke: #000000; stroke-width: 0.8"/>
      </g>
     </g>
     <g id="text_1">
      <!-- 2020-06-18 -->
      <g transform="translate(86.305824 142.758438)scale(0.1 -0.1)">
       <defs>
        <path id="DejaVuSans-32" d="M 1228 531 
L 3431 531 
L 3431 0 
L 469 0 
L 469 531 
Q 828 903 1448 1529 
Q 2069 2156 2228 2338 
Q 2531 2678 2651 2914 
Q 2772 3150 2772 3378 
Q 2772 3750 2511 3984 
Q 2250 4219 1831 4219 
Q 1534 4219 1204 4116 
Q 875 4013 500 3803 
L 500 4441 
Q 881 4594 1212 4672 
Q 1544 4750 1819 4750 
Q 2544 4750 2975 4387 
Q 3406 4025 3406 3419 
Q 3406 3131 3298 2873 
Q 3191 2616 2906 2266 
Q 2828 2175 2409 1742 
Q 1991 1309 1228 531 
z
" transform="scale(0.015625)"/>
        <path id="DejaVuSans-30" d="M 2034 4250 
Q 1547 4250 1301 3770 
Q 1056 3291 1056 2328 
Q 1056 1369 1301 889 
Q 1547 409 2034 409 
Q 2525 409 2770 889 
Q 3016 1369 3016 2328 
Q 3016 3291 2770 3770 
Q 2525 4250 2034 4250 
z
M 2034 4750 
Q 2819 4750 3233 4129 
Q 3647 3509 3647 2328 
Q 3647 1150 3233 529 
Q 2819 -91 2034 -91 
Q 1250 -91 836 529 
Q 422 1150 422 2328 
Q 422 3509 836 4129 
Q 1250 4750 2034 4750 
z
" transform="scale(0.015625)"/>
        <path id="DejaVuSans-2d" d="M 313 2009 
L 1997 2009 
L 1997 1497 
L 313 1497 
L 313 2009 
z
" transform="scale(0.015625)"/>
        <path id="DejaVuSans-36" d="M 2113 2584 
Q 1688 2584 1439 2293 
Q 1191 2003 1191 1497 
Q 1191 994 1439 701 
Q 1688 409 2113 409 
Q 2538 409 2786 701 
Q 3034 994 3034 1497 
Q 3034 2003 2786 2293 
Q 2538 2584 2113 2584 
z
M 3366 4563 
L 3366 3988 
Q 3128 4100 2886 4159 
Q 2644 4219 2406 4219 
Q 1781 4219 1451 3797 
Q 1122 3375 1075 2522 
Q 1259 2794 1537 2939 
Q 1816 3084 2150 3084 
Q 2853 3084 3261 2657 
Q 3669 2231 3669 1497 
Q 3669 778 3244 343 
Q 2819 -91 2113 -91 
Q 1303 -91 875 529 
Q 447 1150 447 2328 
Q 447 3434 972 4092 
Q 1497 4750 2381 4750 
Q 2619 4750 2861 4703 
Q 3103 4656 3366 4563 
z
" transform="scale(0.015625)"/>
        <path id="DejaVuSans-31" d="M 794 531 
L 1825 531 
L 1825 4091 
L 703 3866 
L 703 4441 
L 1819 4666 
L 2450 4666 
L 2450 531 
L 3481 531 
L 3481 0 
L 794 0 
L 794 531 
z
" transform="scale(0.015625)"/>
        <path id="DejaVuSans-38" d="M 2034 2216 
Q 1584 2216 1326 1975 
Q 1069 1734 1069 1313 
Q 1069 891 1326 650 
Q 1584 409 2034 409 
Q 2484 409 2743 651 
Q 3003 894 3003 1313 
Q 3003 1734 2745 1975 
Q 2488 2216 2034 2216 
z
M 1403 2484 
Q 997 2584 770 2862 
Q 544 3141 544 3541 
Q 544 4100 942 4425 
Q 1341 4750 2034 4750 
Q 2731 4750 3128 4425 
Q 3525 4100 3525 3541 
Q 3525 3141 3298 2862 
Q 3072 2584 2669 2484 
Q 3125 2378 3379 2068 
Q 3634 1759 3634 1313 
Q 3634 634 3220 271 
Q 2806 -91 2034 -91 
Q 1263 -91 848 271 
Q 434 634 434 1313 
Q 434 1759 690 2068 
Q 947 2378 1403 2484 
z
M 1172 3481 
Q 1172 3119 1398 2916 
Q 1625 2713 2034 2713 
Q 2441 2713 2670 2916 
Q 2900 3119 2900 3481 
Q 2900 3844 2670 4047 
Q 2441 4250 2034 4250 
Q 1625 4250 1398 4047 
Q 1172 3844 1172 3481 
z
" transform="scale(0.015625)"/>
       </defs>
       <use xlink:href="#DejaVuSans-32"/>
       <use xlink:href="#DejaVuSans-30" x="63.623047"/>
       <use xlink:href="#DejaVuSans-32" x="127.246094"/>
       <use xlink:href="#DejaVuSans-30" x="190.869141"/>
       <use xlink:href="#DejaVuSans-2d" x="254.492188"/>
       <use xlink:href="#DejaVuSans-30" x="290.576172"/>
       <use xlink:href="#DejaVuSans-36" x="354.199219"/>
       <use xlink:href="#DejaVuSans-2d" x="417.822266"/>
       <use xlink:href="#DejaVuSans-31" x="453.90625"/>
       <use xlink:href="#DejaVuSans-38" x="517.529297"/>
      </g>
     </g>
    </g>
    <g id="xtick_2">
     <g id="line2d_2">
      <g>
       <use xlink:href="#m93e67eab3d" x="197.446602" y="128.16" style="stroke: #000000; stroke-width: 0.8"/>
      </g>
     </g>
     <g id="text_2">
      <!-- 2020-10-23 -->
      <g transform="translate(168.388789 142.758438)scale(0.1 -0.1)">
       <defs>
        <path id="DejaVuSans-33" d="M 2597 2516 
Q 3050 2419 3304 2112 
Q 3559 1806 3559 1356 
Q 3559 666 3084 287 
Q 2609 -91 1734 -91 
Q 1441 -91 1130 -33 
Q 819 25 488 141 
L 488 750 
Q 750 597 1062 519 
Q 1375 441 1716 441 
Q 2309 441 2620 675 
Q 2931 909 2931 1356 
Q 2931 1769 2642 2001 
Q 2353 2234 1838 2234 
L 1294 2234 
L 1294 2753 
L 1863 2753 
Q 2328 2753 2575 2939 
Q 2822 3125 2822 3475 
Q 2822 3834 2567 4026 
Q 2313 4219 1838 4219 
Q 1578 4219 1281 4162 
Q 984 4106 628 3988 
L 628 4550 
Q 988 4650 1302 4700 
Q 1616 4750 1894 4750 
Q 2613 4750 3031 4423 
Q 3450 4097 3450 3541 
Q 3450 3153 3228 2886 
Q 3006 2619 2597 2516 
z
" transform="scale(0.015625)"/>
       </defs>
       <use xlink:href="#DejaVuSans-32"/>
       <use xlink:href="#DejaVuSans-30" x="63.623047"/>
       <use xlink:href="#DejaVuSans-32" x="127.246094"/>
       <use xlink:href="#DejaVuSans-30" x="190.869141"/>
       <use xlink:href="#DejaVuSans-2d" x="254.492188"/>
       <use xlink:href="#DejaVuSans-31" x="290.576172"/>
       <use xlink:href="#DejaVuSans-30" x="354.199219"/>
       <use xlink:href="#DejaVuSans-2d" x="417.822266"/>
       <use xlink:href="#DejaVuSans-32" x="453.90625"/>
       <use xlink:href="#DejaVuSans-33" x="517.529297"/>
      </g>
     </g>
    </g>
    <g id="xtick_3">
     <g id="line2d_3">
      <g>
       <use xlink:href="#m93e67eab3d" x="279.529568" y="128.16" style="stroke: #000000; stroke-width: 0.8"/>
      </g>
     </g>
     <g id="text_3">
      <!-- 2021-03-13 -->
      <g transform="translate(250.471755 142.758438)scale(0.1 -0.1)">
       <use xlink:href="#DejaVuSans-32"/>
       <use xlink:href="#DejaVuSans-30" x="63.623047"/>
       <use xlink:href="#DejaVuSans-32" x="127.246094"/>
       <use xlink:href="#DejaVuSans-31" x="190.869141"/>
       <use xlink:href="#DejaVuSans-2d" x="254.492188"/>
       <use xlink:href="#DejaVuSans-30" x="290.576172"/>
       <use xlink:href="#DejaVuSans-33" x="354.199219"/>
       <use xlink:href="#DejaVuSans-2d" x="417.822266"/>
       <use xlink:href="#DejaVuSans-31" x="453.90625"/>
       <use xlink:href="#DejaVuSans-33" x="517.529297"/>
      </g>
     </g>
    </g>
    <g id="xtick_4">
     <g id="line2d_4">
      <g>
       <use xlink:href="#m93e67eab3d" x="361.612533" y="128.16" style="stroke: #000000; stroke-width: 0.8"/>
      </g>
     </g>
     <g id="text_4">
      <!-- 2021-07-01 -->
      <g transform="translate(332.554721 142.758438)scale(0.1 -0.1)">
       <defs>
        <path id="DejaVuSans-37" d="M 525 4666 
L 3525 4666 
L 3525 4397 
L 1831 0 
L 1172 0 
L 2766 4134 
L 525 4134 
L 525 4666 
z
" transform="scale(0.015625)"/>
       </defs>
       <use xlink:href="#DejaVuSans-32"/>
       <use xlink:href="#DejaVuSans-30" x="63.623047"/>
       <use xlink:href="#DejaVuSans-32" x="127.246094"/>
       <use xlink:href="#DejaVuSans-31" x="190.869141"/>
       <use xlink:href="#DejaVuSans-2d" x="254.492188"/>
       <use xlink:href="#DejaVuSans-30" x="290.576172"/>
       <use xlink:href="#DejaVuSans-37" x="354.199219"/>
       <use xlink:href="#DejaVuSans-2d" x="417.822266"/>
       <use xlink:href="#DejaVuSans-30" x="453.90625"/>
       <use xlink:href="#DejaVuSans-31" x="517.529297"/>
      </g>
     </g>
    </g>
    <g id="xtick_5">
     <g id="line2d_5">
      <g>
       <use xlink:href="#m93e67eab3d" x="443.695499" y="128.16" style="stroke: #000000; stroke-width: 0.8"/>
      </g>
     </g>
     <g id="text_5">
      <!-- 2021-10-16 -->
      <g transform="translate(414.637686 142.758438)scale(0.1 -0.1)">
       <use xlink:href="#DejaVuSans-32"/>
       <use xlink:href="#DejaVuSans-30" x="63.623047"/>
       <use xlink:href="#DejaVuSans-32" x="127.246094"/>
       <use xlink:href="#DejaVuSans-31" x="190.869141"/>
       <use xlink:href="#DejaVuSans-2d" x="254.492188"/>
       <use xlink:href="#DejaVuSans-31" x="290.576172"/>
       <use xlink:href="#DejaVuSans-30" x="354.199219"/>
       <use xlink:href="#DejaVuSans-2d" x="417.822266"/>
       <use xlink:href="#DejaVuSans-31" x="453.90625"/>
       <use xlink:href="#DejaVuSans-36" x="517.529297"/>
      </g>
     </g>
    </g>
    <g id="xtick_6">
     <g id="line2d_6">
      <g>
       <use xlink:href="#m93e67eab3d" x="525.778464" y="128.16" style="stroke: #000000; stroke-width: 0.8"/>
      </g>
     </g>
     <g id="text_6">
      <!-- 2022-01-27 -->
      <g transform="translate(496.720652 142.758438)scale(0.1 -0.1)">
       <use xlink:href="#DejaVuSans-32"/>
       <use xlink:href="#DejaVuSans-30" x="63.623047"/>
       <use xlink:href="#DejaVuSans-32" x="127.246094"/>
       <use xlink:href="#DejaVuSans-32" x="190.869141"/>
       <use xlink:href="#DejaVuSans-2d" x="254.492188"/>
       <use xlink:href="#DejaVuSans-30" x="290.576172"/>
       <use xlink:href="#DejaVuSans-31" x="354.199219"/>
       <use xlink:href="#DejaVuSans-2d" x="417.822266"/>
       <use xlink:href="#DejaVuSans-32" x="453.90625"/>
       <use xlink:href="#DejaVuSans-37" x="517.529297"/>
      </g>
     </g>
    </g>
    <g id="xtick_7">
     <g id="line2d_7">
      <g>
       <use xlink:href="#m93e67eab3d" x="607.86143" y="128.16" style="stroke: #000000; stroke-width: 0.8"/>
      </g>
     </g>
     <g id="text_7">
      <!-- 2022-05-12 -->
      <g transform="translate(578.803617 142.758438)scale(0.1 -0.1)">
       <defs>
        <path id="DejaVuSans-35" d="M 691 4666 
L 3169 4666 
L 3169 4134 
L 1269 4134 
L 1269 2991 
Q 1406 3038 1543 3061 
Q 1681 3084 1819 3084 
Q 2600 3084 3056 2656 
Q 3513 2228 3513 1497 
Q 3513 744 3044 326 
Q 2575 -91 1722 -91 
Q 1428 -91 1123 -41 
Q 819 9 494 109 
L 494 744 
Q 775 591 1075 516 
Q 1375 441 1709 441 
Q 2250 441 2565 725 
Q 2881 1009 2881 1497 
Q 2881 1984 2565 2268 
Q 2250 2553 1709 2553 
Q 1456 2553 1204 2497 
Q 953 2441 691 2322 
L 691 4666 
z
" transform="scale(0.015625)"/>
       </defs>
       <use xlink:href="#DejaVuSans-32"/>
       <use xlink:href="#DejaVuSans-30" x="63.623047"/>
       <use xlink:href="#DejaVuSans-32" x="127.246094"/>
       <use xlink:href="#DejaVuSans-32" x="190.869141"/>
       <use xlink:href="#DejaVuSans-2d" x="254.492188"/>
       <use xlink:href="#DejaVuSans-30" x="290.576172"/>
       <use xlink:href="#DejaVuSans-35" x="354.199219"/>
       <use xlink:href="#DejaVuSans-2d" x="417.822266"/>
       <use xlink:href="#DejaVuSans-31" x="453.90625"/>
       <use xlink:href="#DejaVuSans-32" x="517.529297"/>
      </g>
     </g>
    </g>
    <g id="text_8">
     <!-- date -->
     <g transform="translate(357.725 156.436563)scale(0.1 -0.1)">
      <defs>
       <path id="DejaVuSans-64" d="M 2906 2969 
L 2906 4863 
L 3481 4863 
L 3481 0 
L 2906 0 
L 2906 525 
Q 2725 213 2448 61 
Q 2172 -91 1784 -91 
Q 1150 -91 751 415 
Q 353 922 353 1747 
Q 353 2572 751 3078 
Q 1150 3584 1784 3584 
Q 2172 3584 2448 3432 
Q 2725 3281 2906 2969 
z
M 947 1747 
Q 947 1113 1208 752 
Q 1469 391 1925 391 
Q 2381 391 2643 752 
Q 2906 1113 2906 1747 
Q 2906 2381 2643 2742 
Q 2381 3103 1925 3103 
Q 1469 3103 1208 2742 
Q 947 2381 947 1747 
z
" transform="scale(0.015625)"/>
       <path id="DejaVuSans-61" d="M 2194 1759 
Q 1497 1759 1228 1600 
Q 959 1441 959 1056 
Q 959 750 1161 570 
Q 1363 391 1709 391 
Q 2188 391 2477 730 
Q 2766 1069 2766 1631 
L 2766 1759 
L 2194 1759 
z
M 3341 1997 
L 3341 0 
L 2766 0 
L 2766 531 
Q 2569 213 2275 61 
Q 1981 -91 1556 -91 
Q 1019 -91 701 211 
Q 384 513 384 1019 
Q 384 1609 779 1909 
Q 1175 2209 1959 2209 
L 2766 2209 
L 2766 2266 
Q 2766 2663 2505 2880 
Q 2244 3097 1772 3097 
Q 1472 3097 1187 3025 
Q 903 2953 641 2809 
L 641 3341 
Q 956 3463 1253 3523 
Q 1550 3584 1831 3584 
Q 2591 3584 2966 3190 
Q 3341 2797 3341 1997 
z
" transform="scale(0.015625)"/>
       <path id="DejaVuSans-74" d="M 1172 4494 
L 1172 3500 
L 2356 3500 
L 2356 3053 
L 1172 3053 
L 1172 1153 
Q 1172 725 1289 603 
Q 1406 481 1766 481 
L 2356 481 
L 2356 0 
L 1766 0 
Q 1100 0 847 248 
Q 594 497 594 1153 
L 594 3053 
L 172 3053 
L 172 3500 
L 594 3500 
L 594 4494 
L 1172 4494 
z
" transform="scale(0.015625)"/>
       <path id="DejaVuSans-65" d="M 3597 1894 
L 3597 1613 
L 953 1613 
Q 991 1019 1311 708 
Q 1631 397 2203 397 
Q 2534 397 2845 478 
Q 3156 559 3463 722 
L 3463 178 
Q 3153 47 2828 -22 
Q 2503 -91 2169 -91 
Q 1331 -91 842 396 
Q 353 884 353 1716 
Q 353 2575 817 3079 
Q 1281 3584 2069 3584 
Q 2775 3584 3186 3129 
Q 3597 2675 3597 1894 
z
M 3022 2063 
Q 3016 2534 2758 2815 
Q 2500 3097 2075 3097 
Q 1594 3097 1305 2825 
Q 1016 2553 972 2059 
L 3022 2063 
z
" transform="scale(0.015625)"/>
      </defs>
      <use xlink:href="#DejaVuSans-64"/>
      <use xlink:href="#DejaVuSans-61" x="63.476562"/>
      <use xlink:href="#DejaVuSans-74" x="124.755859"/>
      <use xlink:href="#DejaVuSans-65" x="163.964844"/>
     </g>
    </g>
   </g>
   <g id="matplotlib.axis_2">
    <g id="ytick_1">
     <g id="line2d_8">
      <defs>
       <path id="m6ce0896e87" d="M 0 0 
L -3.5 0 
" style="stroke: #000000; stroke-width: 0.8"/>
      </defs>
      <g>
       <use xlink:href="#m6ce0896e87" x="90" y="124.292093" style="stroke: #000000; stroke-width: 0.8"/>
      </g>
     </g>
     <g id="text_9">
      <!-- 0 -->
      <g transform="translate(76.6375 128.091312)scale(0.1 -0.1)">
       <use xlink:href="#DejaVuSans-30"/>
      </g>
     </g>
    </g>
    <g id="ytick_2">
     <g id="line2d_9">
      <g>
       <use xlink:href="#m6ce0896e87" x="90" y="100.850233" style="stroke: #000000; stroke-width: 0.8"/>
      </g>
     </g>
     <g id="text_10">
      <!-- 20 -->
      <g transform="translate(70.275 104.649451)scale(0.1 -0.1)">
       <use xlink:href="#DejaVuSans-32"/>
       <use xlink:href="#DejaVuSans-30" x="63.623047"/>
      </g>
     </g>
    </g>
    <g id="ytick_3">
     <g id="line2d_10">
      <g>
       <use xlink:href="#m6ce0896e87" x="90" y="77.408372" style="stroke: #000000; stroke-width: 0.8"/>
      </g>
     </g>
     <g id="text_11">
      <!-- 40 -->
      <g transform="translate(70.275 81.207591)scale(0.1 -0.1)">
       <defs>
        <path id="DejaVuSans-34" d="M 2419 4116 
L 825 1625 
L 2419 1625 
L 2419 4116 
z
M 2253 4666 
L 3047 4666 
L 3047 1625 
L 3713 1625 
L 3713 1100 
L 3047 1100 
L 3047 0 
L 2419 0 
L 2419 1100 
L 313 1100 
L 313 1709 
L 2253 4666 
z
" transform="scale(0.015625)"/>
       </defs>
       <use xlink:href="#DejaVuSans-34"/>
       <use xlink:href="#DejaVuSans-30" x="63.623047"/>
      </g>
     </g>
    </g>
    <g id="ytick_4">
     <g id="line2d_11">
      <g>
       <use xlink:href="#m6ce0896e87" x="90" y="53.966512" style="stroke: #000000; stroke-width: 0.8"/>
      </g>
     </g>
     <g id="text_12">
      <!-- 60 -->
      <g transform="translate(70.275 57.76573)scale(0.1 -0.1)">
       <use xlink:href="#DejaVuSans-36"/>
       <use xlink:href="#DejaVuSans-30" x="63.623047"/>
      </g>
     </g>
    </g>
    <g id="ytick_5">
     <g id="line2d_12">
      <g>
       <use xlink:href="#m6ce0896e87" x="90" y="30.524651" style="stroke: #000000; stroke-width: 0.8"/>
      </g>
     </g>
     <g id="text_13">
      <!-- 80 -->
      <g transform="translate(70.275 34.32387)scale(0.1 -0.1)">
       <use xlink:href="#DejaVuSans-38"/>
       <use xlink:href="#DejaVuSans-30" x="63.623047"/>
      </g>
     </g>
    </g>
   </g>
   <g id="line2d_13">
    <path d="M 115.363636 98.506047 
L 116.184466 107.882791 
L 117.005296 119.603721 
L 119.467785 123.12 
L 120.288614 120.775814 
L 121.109444 114.915349 
L 121.930274 121.947907 
L 122.751103 120.775814 
L 123.571933 121.947907 
L 124.392763 96.16186 
L 125.213592 116.087442 
L 126.034422 120.775814 
L 126.855252 114.915349 
L 127.676081 121.947907 
L 128.496911 117.259535 
L 129.317741 116.087442 
L 130.13857 123.12 
L 130.9594 120.775814 
L 131.780229 112.571163 
L 132.601059 114.915349 
L 133.421889 119.603721 
L 134.242718 120.775814 
L 135.063548 120.775814 
L 136.705207 123.12 
L 137.526037 113.743256 
L 138.346867 64.515349 
L 139.167696 117.259535 
L 139.988526 120.775814 
L 140.809356 120.775814 
L 141.630185 118.431628 
L 142.451015 121.947907 
L 143.271845 119.603721 
L 144.092674 123.12 
L 144.913504 120.775814 
L 145.734334 120.775814 
L 146.555163 123.12 
L 147.375993 121.947907 
L 148.196823 119.603721 
L 149.017652 119.603721 
L 149.838482 117.259535 
L 150.659312 123.12 
L 151.480141 123.12 
L 152.300971 121.947907 
L 153.121801 121.947907 
L 153.94263 123.12 
L 154.76346 123.12 
L 155.584289 105.538605 
L 156.405119 118.431628 
L 157.225949 116.087442 
L 158.046778 121.947907 
L 158.867608 118.431628 
L 159.688438 116.087442 
L 160.509267 118.431628 
L 161.330097 123.12 
L 162.150927 121.947907 
L 162.971756 118.431628 
L 163.792586 123.12 
L 165.434245 120.775814 
L 166.255075 116.087442 
L 167.896734 123.12 
L 168.717564 119.603721 
L 169.538394 118.431628 
L 170.359223 123.12 
L 171.180053 119.603721 
L 172.000883 123.12 
L 172.821712 121.947907 
L 173.642542 118.431628 
L 174.463372 123.12 
L 175.284201 121.947907 
L 176.105031 121.947907 
L 176.925861 123.12 
L 177.74669 118.431628 
L 178.56752 123.12 
L 179.38835 120.775814 
L 181.030009 120.775814 
L 181.850838 119.603721 
L 182.671668 117.259535 
L 183.492498 120.775814 
L 184.313327 117.259535 
L 185.134157 123.12 
L 186.775816 120.775814 
L 187.596646 118.431628 
L 188.417476 121.947907 
L 189.238305 123.12 
L 190.059135 121.947907 
L 190.879965 119.603721 
L 191.700794 120.775814 
L 192.521624 123.12 
L 193.342454 107.882791 
L 194.163283 123.12 
L 194.984113 120.775814 
L 195.804943 119.603721 
L 196.625772 123.12 
L 197.446602 119.603721 
L 198.267432 114.915349 
L 199.088261 120.775814 
L 199.909091 123.12 
L 200.729921 123.12 
L 201.55075 121.947907 
L 202.37158 123.12 
L 203.19241 123.12 
L 204.013239 121.947907 
L 204.834069 121.947907 
L 205.654898 120.775814 
L 206.475728 121.947907 
L 208.938217 118.431628 
L 209.759047 120.775814 
L 210.579876 120.775814 
L 212.221536 118.431628 
L 213.042365 121.947907 
L 213.863195 123.12 
L 214.684025 116.087442 
L 215.504854 121.947907 
L 216.325684 121.947907 
L 217.146514 114.915349 
L 217.967343 120.775814 
L 218.788173 120.775814 
L 219.609003 94.989767 
L 220.429832 118.431628 
L 221.250662 120.775814 
L 222.071492 116.087442 
L 222.892321 121.947907 
L 223.713151 117.259535 
L 224.533981 121.947907 
L 225.35481 114.915349 
L 226.17564 118.431628 
L 226.99647 123.12 
L 227.817299 121.947907 
L 228.638129 109.054884 
L 229.458959 118.431628 
L 230.279788 121.947907 
L 231.100618 123.12 
L 231.921447 123.12 
L 232.742277 114.915349 
L 233.563107 123.12 
L 234.383936 123.12 
L 235.204766 119.603721 
L 236.025596 123.12 
L 236.846425 123.12 
L 238.488085 118.431628 
L 239.308914 123.12 
L 240.129744 120.775814 
L 241.771403 123.12 
L 242.592233 118.431628 
L 243.413063 123.12 
L 244.233892 123.12 
L 245.054722 121.947907 
L 245.875552 123.12 
L 246.696381 123.12 
L 247.517211 118.431628 
L 249.15887 123.12 
L 250.80053 120.775814 
L 251.621359 120.775814 
L 252.442189 121.947907 
L 253.263019 119.603721 
L 254.083848 121.947907 
L 254.904678 123.12 
L 256.546337 123.12 
L 257.367167 118.431628 
L 258.187996 123.12 
L 259.008826 121.947907 
L 259.829656 123.12 
L 260.650485 118.431628 
L 261.471315 120.775814 
L 262.292145 121.947907 
L 263.112974 121.947907 
L 263.933804 119.603721 
L 264.754634 121.947907 
L 265.575463 120.775814 
L 266.396293 120.775814 
L 267.217123 121.947907 
L 268.037952 121.947907 
L 268.858782 123.12 
L 269.679612 116.087442 
L 270.500441 121.947907 
L 271.321271 121.947907 
L 272.142101 123.12 
L 272.96293 121.947907 
L 273.78376 123.12 
L 274.60459 123.12 
L 276.246249 120.775814 
L 277.067079 111.39907 
L 277.887908 89.129302 
L 278.708738 114.915349 
L 279.529568 123.12 
L 280.350397 121.947907 
L 281.171227 116.087442 
L 281.992056 118.431628 
L 282.812886 117.259535 
L 283.633716 107.882791 
L 284.454545 123.12 
L 285.275375 121.947907 
L 286.096205 119.603721 
L 286.917034 116.087442 
L 287.737864 111.39907 
L 288.558694 97.333953 
L 289.379523 106.710698 
L 290.200353 121.947907 
L 291.021183 84.44093 
L 291.842012 105.538605 
L 292.662842 114.915349 
L 293.483672 107.882791 
L 294.304501 118.431628 
L 295.125331 107.882791 
L 295.946161 109.054884 
L 296.76699 106.710698 
L 297.58782 97.333953 
L 298.40865 120.775814 
L 299.229479 116.087442 
L 300.050309 120.775814 
L 300.871139 123.12 
L 301.691968 118.431628 
L 302.512798 123.12 
L 303.333628 120.775814 
L 304.154457 123.12 
L 304.975287 121.947907 
L 305.796117 107.882791 
L 306.616946 120.775814 
L 307.437776 117.259535 
L 308.258605 119.603721 
L 309.079435 118.431628 
L 309.900265 123.12 
L 310.721094 116.087442 
L 311.541924 118.431628 
L 312.362754 121.947907 
L 313.183583 117.259535 
L 314.004413 123.12 
L 314.825243 120.775814 
L 315.646072 123.12 
L 316.466902 119.603721 
L 317.287732 121.947907 
L 318.108561 119.603721 
L 318.929391 118.431628 
L 319.750221 121.947907 
L 321.39188 121.947907 
L 322.21271 119.603721 
L 323.033539 118.431628 
L 323.854369 98.506047 
L 324.675199 100.850233 
L 325.496028 120.775814 
L 326.316858 121.947907 
L 327.137688 117.259535 
L 327.958517 118.431628 
L 328.779347 116.087442 
L 329.600177 121.947907 
L 330.421006 123.12 
L 331.241836 117.259535 
L 332.062665 116.087442 
L 332.883495 112.571163 
L 333.704325 121.947907 
L 334.525154 118.431628 
L 335.345984 121.947907 
L 336.166814 121.947907 
L 336.987643 123.12 
L 338.629303 118.431628 
L 340.270962 123.12 
L 341.091792 120.775814 
L 341.912621 121.947907 
L 342.733451 116.087442 
L 343.554281 113.743256 
L 344.37511 116.087442 
L 345.19594 117.259535 
L 346.01677 114.915349 
L 346.837599 105.538605 
L 347.658429 117.259535 
L 348.479259 119.603721 
L 349.300088 118.431628 
L 350.120918 114.915349 
L 350.941748 106.710698 
L 351.762577 121.947907 
L 352.583407 120.775814 
L 353.404237 123.12 
L 354.225066 113.743256 
L 355.045896 114.915349 
L 355.866726 119.603721 
L 356.687555 112.571163 
L 357.508385 110.226977 
L 358.329214 121.947907 
L 359.150044 121.947907 
L 359.970874 112.571163 
L 360.791703 91.473488 
L 361.612533 107.882791 
L 362.433363 117.259535 
L 363.254192 118.431628 
L 364.075022 118.431628 
L 365.716681 120.775814 
L 366.537511 117.259535 
L 367.358341 117.259535 
L 368.17917 121.947907 
L 369 121.947907 
L 369.82083 120.775814 
L 370.641659 121.947907 
L 371.462489 114.915349 
L 372.283319 114.915349 
L 373.104148 117.259535 
L 373.924978 113.743256 
L 374.745808 105.538605 
L 375.566637 114.915349 
L 376.387467 114.915349 
L 377.208297 120.775814 
L 378.029126 120.775814 
L 378.849956 116.087442 
L 379.670786 123.12 
L 380.491615 103.194419 
L 381.312445 100.850233 
L 382.133274 117.259535 
L 382.954104 118.431628 
L 383.774934 107.882791 
L 384.595763 113.743256 
L 385.416593 120.775814 
L 386.237423 118.431628 
L 387.058252 123.12 
L 387.879082 113.743256 
L 388.699912 98.506047 
L 389.520741 121.947907 
L 390.341571 120.775814 
L 391.98323 123.12 
L 392.80406 119.603721 
L 393.62489 100.850233 
L 394.445719 114.915349 
L 395.266549 121.947907 
L 396.087379 121.947907 
L 396.908208 105.538605 
L 397.729038 120.775814 
L 398.549868 121.947907 
L 399.370697 120.775814 
L 402.654016 120.775814 
L 403.474846 118.431628 
L 404.295675 123.12 
L 405.116505 121.947907 
L 405.937335 121.947907 
L 406.758164 123.12 
L 407.578994 123.12 
L 408.399823 121.947907 
L 409.220653 123.12 
L 410.041483 117.259535 
L 410.862312 121.947907 
L 411.683142 118.431628 
L 412.503972 118.431628 
L 413.324801 116.087442 
L 414.145631 118.431628 
L 414.966461 123.12 
L 415.78729 120.775814 
L 417.42895 120.775814 
L 418.249779 123.12 
L 419.070609 121.947907 
L 419.891439 121.947907 
L 420.712268 119.603721 
L 421.533098 121.947907 
L 423.995587 121.947907 
L 424.816417 82.096744 
L 425.637246 118.431628 
L 426.458076 123.12 
L 427.278906 121.947907 
L 428.099735 119.603721 
L 428.920565 123.12 
L 429.741395 118.431628 
L 430.562224 121.947907 
L 431.383054 117.259535 
L 432.203883 116.087442 
L 433.024713 116.087442 
L 433.845543 114.915349 
L 434.666372 100.850233 
L 435.487202 100.850233 
L 436.308032 116.087442 
L 437.128861 119.603721 
L 437.949691 121.947907 
L 438.770521 104.366512 
L 439.59135 118.431628 
L 440.41218 121.947907 
L 441.23301 121.947907 
L 442.053839 120.775814 
L 442.874669 120.775814 
L 443.695499 121.947907 
L 444.516328 121.947907 
L 445.337158 118.431628 
L 446.157988 123.12 
L 446.978817 121.947907 
L 447.799647 118.431628 
L 448.620477 118.431628 
L 449.441306 120.775814 
L 451.082966 100.850233 
L 451.903795 113.743256 
L 452.724625 112.571163 
L 453.545455 105.538605 
L 454.366284 110.226977 
L 456.007944 112.571163 
L 456.828773 111.39907 
L 457.649603 104.366512 
L 458.470432 107.882791 
L 459.291262 118.431628 
L 460.112092 119.603721 
L 460.932921 117.259535 
L 461.753751 117.259535 
L 462.574581 113.743256 
L 463.39541 116.087442 
L 464.21624 109.054884 
L 465.03707 114.915349 
L 465.857899 116.087442 
L 466.678729 111.39907 
L 467.499559 100.850233 
L 468.320388 111.39907 
L 469.141218 116.087442 
L 470.782877 111.39907 
L 471.603707 116.087442 
L 472.424537 107.882791 
L 473.245366 116.087442 
L 474.066196 111.39907 
L 475.707855 120.775814 
L 476.528685 107.882791 
L 477.349515 120.775814 
L 478.170344 118.431628 
L 478.991174 119.603721 
L 479.812004 114.915349 
L 480.632833 113.743256 
L 481.453663 94.989767 
L 482.274492 91.473488 
L 483.095322 112.571163 
L 483.916152 80.924651 
L 484.736981 120.775814 
L 485.557811 118.431628 
L 486.378641 120.775814 
L 487.19947 90.301395 
L 488.0203 91.473488 
L 489.661959 121.947907 
L 490.482789 118.431628 
L 491.303619 109.054884 
L 492.124448 118.431628 
L 492.945278 118.431628 
L 493.766108 91.473488 
L 494.586937 111.39907 
L 495.407767 114.915349 
L 497.049426 117.259535 
L 497.870256 117.259535 
L 498.691086 114.915349 
L 501.153575 121.947907 
L 501.974404 113.743256 
L 502.795234 121.947907 
L 503.616064 121.947907 
L 505.257723 119.603721 
L 506.078553 123.12 
L 506.899382 119.603721 
L 507.720212 117.259535 
L 508.541041 120.775814 
L 509.361871 121.947907 
L 510.182701 121.947907 
L 511.00353 113.743256 
L 511.82436 123.12 
L 512.64519 97.333953 
L 513.466019 120.775814 
L 514.286849 121.947907 
L 515.107679 118.431628 
L 515.928508 118.431628 
L 516.749338 119.603721 
L 517.570168 121.947907 
L 518.390997 114.915349 
L 519.211827 120.775814 
L 520.032657 118.431628 
L 520.853486 119.603721 
L 521.674316 96.16186 
L 522.495146 120.775814 
L 523.315975 117.259535 
L 524.136805 123.12 
L 524.957635 123.12 
L 525.778464 121.947907 
L 526.599294 113.743256 
L 527.420124 121.947907 
L 528.240953 114.915349 
L 529.061783 118.431628 
L 529.882613 123.12 
L 530.703442 118.431628 
L 532.345102 118.431628 
L 533.165931 114.915349 
L 533.986761 112.571163 
L 534.80759 119.603721 
L 535.62842 119.603721 
L 536.44925 118.431628 
L 537.270079 120.775814 
L 538.090909 120.775814 
L 538.911739 118.431628 
L 539.732568 114.915349 
L 540.553398 114.915349 
L 541.374228 117.259535 
L 542.195057 121.947907 
L 543.836717 121.947907 
L 544.657546 100.850233 
L 545.478376 51.622326 
L 546.299206 75.064186 
L 547.120035 117.259535 
L 547.940865 120.775814 
L 548.761695 118.431628 
L 550.403354 102.022326 
L 551.224184 116.087442 
L 552.045013 96.16186 
L 552.865843 70.375814 
L 553.686673 118.431628 
L 554.507502 69.203721 
L 555.328332 109.054884 
L 556.149162 121.947907 
L 556.969991 55.138605 
L 557.790821 92.645581 
L 558.61165 105.538605 
L 559.43248 48.106047 
L 560.25331 117.259535 
L 561.074139 118.431628 
L 561.894969 91.473488 
L 562.715799 107.882791 
L 563.536628 87.957209 
L 564.357458 107.882791 
L 565.178288 119.603721 
L 565.999117 22.32 
L 566.819947 117.259535 
L 567.640777 118.431628 
L 568.461606 118.431628 
L 569.282436 110.226977 
L 570.103266 116.087442 
L 570.924095 99.67814 
L 571.744925 116.087442 
L 572.565755 119.603721 
L 573.386584 92.645581 
L 574.207414 92.645581 
L 575.028244 110.226977 
L 575.849073 89.129302 
L 576.669903 117.259535 
L 577.490733 118.431628 
L 578.311562 92.645581 
L 579.132392 123.12 
L 579.953222 120.775814 
L 580.774051 119.603721 
L 581.594881 117.259535 
L 582.415711 120.775814 
L 583.23654 119.603721 
L 584.05737 117.259535 
L 584.878199 111.39907 
L 585.699029 114.915349 
L 586.519859 104.366512 
L 587.340688 112.571163 
L 588.161518 121.947907 
L 588.982348 123.12 
L 589.803177 113.743256 
L 591.444837 120.775814 
L 592.265666 123.12 
L 593.086496 117.259535 
L 593.907326 121.947907 
L 594.728155 117.259535 
L 595.548985 123.12 
L 597.190644 120.775814 
L 598.011474 123.12 
L 598.832304 123.12 
L 599.653133 120.775814 
L 601.294793 118.431628 
L 602.115622 118.431628 
L 602.936452 119.603721 
L 603.757282 119.603721 
L 604.578111 123.12 
L 605.398941 120.775814 
L 606.219771 83.268837 
L 607.0406 119.603721 
L 607.86143 121.947907 
L 609.503089 121.947907 
L 610.323919 116.087442 
L 611.144748 117.259535 
L 611.965578 104.366512 
L 612.786408 120.775814 
L 613.607237 114.915349 
L 614.428067 121.947907 
L 615.248897 123.12 
L 616.069726 119.603721 
L 616.890556 120.775814 
L 617.711386 114.915349 
L 618.532215 117.259535 
L 619.353045 120.775814 
L 620.173875 121.947907 
L 620.994704 120.775814 
L 621.815534 116.087442 
L 622.636364 118.431628 
L 622.636364 118.431628 
" clip-path="url(#p041792fbb3)" style="fill: none; stroke: #1f77b4; stroke-width: 1.5; stroke-linecap: square"/>
   </g>
   <g id="patch_3">
    <path d="M 90 128.16 
L 90 17.28 
" style="fill: none; stroke: #000000; stroke-width: 0.8; stroke-linejoin: miter; stroke-linecap: square"/>
   </g>
   <g id="patch_4">
    <path d="M 648 128.16 
L 648 17.28 
" style="fill: none; stroke: #000000; stroke-width: 0.8; stroke-linejoin: miter; stroke-linecap: square"/>
   </g>
   <g id="patch_5">
    <path d="M 90 128.16 
L 648 128.16 
" style="fill: none; stroke: #000000; stroke-width: 0.8; stroke-linejoin: miter; stroke-linecap: square"/>
   </g>
   <g id="patch_6">
    <path d="M 90 17.28 
L 648 17.28 
" style="fill: none; stroke: #000000; stroke-width: 0.8; stroke-linejoin: miter; stroke-linecap: square"/>
   </g>
   <g id="legend_1">
    <g id="patch_7">
     <path d="M 97 39.958125 
L 264.190625 39.958125 
Q 266.190625 39.958125 266.190625 37.958125 
L 266.190625 24.28 
Q 266.190625 22.28 264.190625 22.28 
L 97 22.28 
Q 95 22.28 95 24.28 
L 95 37.958125 
Q 95 39.958125 97 39.958125 
z
" style="fill: #ffffff; opacity: 0.8; stroke: #cccccc; stroke-linejoin: miter"/>
    </g>
    <g id="line2d_14">
     <path d="M 99 30.378437 
L 109 30.378437 
L 119 30.378437 
" style="fill: none; stroke: #1f77b4; stroke-width: 1.5; stroke-linecap: square"/>
    </g>
    <g id="text_14">
     <!-- Number of PyPI Downloads -->
     <g transform="translate(127 33.878437)scale(0.1 -0.1)">
      <defs>
       <path id="DejaVuSans-4e" d="M 628 4666 
L 1478 4666 
L 3547 763 
L 3547 4666 
L 4159 4666 
L 4159 0 
L 3309 0 
L 1241 3903 
L 1241 0 
L 628 0 
L 628 4666 
z
" transform="scale(0.015625)"/>
       <path id="DejaVuSans-75" d="M 544 1381 
L 544 3500 
L 1119 3500 
L 1119 1403 
Q 1119 906 1312 657 
Q 1506 409 1894 409 
Q 2359 409 2629 706 
Q 2900 1003 2900 1516 
L 2900 3500 
L 3475 3500 
L 3475 0 
L 2900 0 
L 2900 538 
Q 2691 219 2414 64 
Q 2138 -91 1772 -91 
Q 1169 -91 856 284 
Q 544 659 544 1381 
z
M 1991 3584 
L 1991 3584 
z
" transform="scale(0.015625)"/>
       <path id="DejaVuSans-6d" d="M 3328 2828 
Q 3544 3216 3844 3400 
Q 4144 3584 4550 3584 
Q 5097 3584 5394 3201 
Q 5691 2819 5691 2113 
L 5691 0 
L 5113 0 
L 5113 2094 
Q 5113 2597 4934 2840 
Q 4756 3084 4391 3084 
Q 3944 3084 3684 2787 
Q 3425 2491 3425 1978 
L 3425 0 
L 2847 0 
L 2847 2094 
Q 2847 2600 2669 2842 
Q 2491 3084 2119 3084 
Q 1678 3084 1418 2786 
Q 1159 2488 1159 1978 
L 1159 0 
L 581 0 
L 581 3500 
L 1159 3500 
L 1159 2956 
Q 1356 3278 1631 3431 
Q 1906 3584 2284 3584 
Q 2666 3584 2933 3390 
Q 3200 3197 3328 2828 
z
" transform="scale(0.015625)"/>
       <path id="DejaVuSans-62" d="M 3116 1747 
Q 3116 2381 2855 2742 
Q 2594 3103 2138 3103 
Q 1681 3103 1420 2742 
Q 1159 2381 1159 1747 
Q 1159 1113 1420 752 
Q 1681 391 2138 391 
Q 2594 391 2855 752 
Q 3116 1113 3116 1747 
z
M 1159 2969 
Q 1341 3281 1617 3432 
Q 1894 3584 2278 3584 
Q 2916 3584 3314 3078 
Q 3713 2572 3713 1747 
Q 3713 922 3314 415 
Q 2916 -91 2278 -91 
Q 1894 -91 1617 61 
Q 1341 213 1159 525 
L 1159 0 
L 581 0 
L 581 4863 
L 1159 4863 
L 1159 2969 
z
" transform="scale(0.015625)"/>
       <path id="DejaVuSans-72" d="M 2631 2963 
Q 2534 3019 2420 3045 
Q 2306 3072 2169 3072 
Q 1681 3072 1420 2755 
Q 1159 2438 1159 1844 
L 1159 0 
L 581 0 
L 581 3500 
L 1159 3500 
L 1159 2956 
Q 1341 3275 1631 3429 
Q 1922 3584 2338 3584 
Q 2397 3584 2469 3576 
Q 2541 3569 2628 3553 
L 2631 2963 
z
" transform="scale(0.015625)"/>
       <path id="DejaVuSans-20" transform="scale(0.015625)"/>
       <path id="DejaVuSans-6f" d="M 1959 3097 
Q 1497 3097 1228 2736 
Q 959 2375 959 1747 
Q 959 1119 1226 758 
Q 1494 397 1959 397 
Q 2419 397 2687 759 
Q 2956 1122 2956 1747 
Q 2956 2369 2687 2733 
Q 2419 3097 1959 3097 
z
M 1959 3584 
Q 2709 3584 3137 3096 
Q 3566 2609 3566 1747 
Q 3566 888 3137 398 
Q 2709 -91 1959 -91 
Q 1206 -91 779 398 
Q 353 888 353 1747 
Q 353 2609 779 3096 
Q 1206 3584 1959 3584 
z
" transform="scale(0.015625)"/>
       <path id="DejaVuSans-66" d="M 2375 4863 
L 2375 4384 
L 1825 4384 
Q 1516 4384 1395 4259 
Q 1275 4134 1275 3809 
L 1275 3500 
L 2222 3500 
L 2222 3053 
L 1275 3053 
L 1275 0 
L 697 0 
L 697 3053 
L 147 3053 
L 147 3500 
L 697 3500 
L 697 3744 
Q 697 4328 969 4595 
Q 1241 4863 1831 4863 
L 2375 4863 
z
" transform="scale(0.015625)"/>
       <path id="DejaVuSans-50" d="M 1259 4147 
L 1259 2394 
L 2053 2394 
Q 2494 2394 2734 2622 
Q 2975 2850 2975 3272 
Q 2975 3691 2734 3919 
Q 2494 4147 2053 4147 
L 1259 4147 
z
M 628 4666 
L 2053 4666 
Q 2838 4666 3239 4311 
Q 3641 3956 3641 3272 
Q 3641 2581 3239 2228 
Q 2838 1875 2053 1875 
L 1259 1875 
L 1259 0 
L 628 0 
L 628 4666 
z
" transform="scale(0.015625)"/>
       <path id="DejaVuSans-79" d="M 2059 -325 
Q 1816 -950 1584 -1140 
Q 1353 -1331 966 -1331 
L 506 -1331 
L 506 -850 
L 844 -850 
Q 1081 -850 1212 -737 
Q 1344 -625 1503 -206 
L 1606 56 
L 191 3500 
L 800 3500 
L 1894 763 
L 2988 3500 
L 3597 3500 
L 2059 -325 
z
" transform="scale(0.015625)"/>
       <path id="DejaVuSans-49" d="M 628 4666 
L 1259 4666 
L 1259 0 
L 628 0 
L 628 4666 
z
" transform="scale(0.015625)"/>
       <path id="DejaVuSans-44" d="M 1259 4147 
L 1259 519 
L 2022 519 
Q 2988 519 3436 956 
Q 3884 1394 3884 2338 
Q 3884 3275 3436 3711 
Q 2988 4147 2022 4147 
L 1259 4147 
z
M 628 4666 
L 1925 4666 
Q 3281 4666 3915 4102 
Q 4550 3538 4550 2338 
Q 4550 1131 3912 565 
Q 3275 0 1925 0 
L 628 0 
L 628 4666 
z
" transform="scale(0.015625)"/>
       <path id="DejaVuSans-77" d="M 269 3500 
L 844 3500 
L 1563 769 
L 2278 3500 
L 2956 3500 
L 3675 769 
L 4391 3500 
L 4966 3500 
L 4050 0 
L 3372 0 
L 2619 2869 
L 1863 0 
L 1184 0 
L 269 3500 
z
" transform="scale(0.015625)"/>
       <path id="DejaVuSans-6e" d="M 3513 2113 
L 3513 0 
L 2938 0 
L 2938 2094 
Q 2938 2591 2744 2837 
Q 2550 3084 2163 3084 
Q 1697 3084 1428 2787 
Q 1159 2491 1159 1978 
L 1159 0 
L 581 0 
L 581 3500 
L 1159 3500 
L 1159 2956 
Q 1366 3272 1645 3428 
Q 1925 3584 2291 3584 
Q 2894 3584 3203 3211 
Q 3513 2838 3513 2113 
z
" transform="scale(0.015625)"/>
       <path id="DejaVuSans-6c" d="M 603 4863 
L 1178 4863 
L 1178 0 
L 603 0 
L 603 4863 
z
" transform="scale(0.015625)"/>
       <path id="DejaVuSans-73" d="M 2834 3397 
L 2834 2853 
Q 2591 2978 2328 3040 
Q 2066 3103 1784 3103 
Q 1356 3103 1142 2972 
Q 928 2841 928 2578 
Q 928 2378 1081 2264 
Q 1234 2150 1697 2047 
L 1894 2003 
Q 2506 1872 2764 1633 
Q 3022 1394 3022 966 
Q 3022 478 2636 193 
Q 2250 -91 1575 -91 
Q 1294 -91 989 -36 
Q 684 19 347 128 
L 347 722 
Q 666 556 975 473 
Q 1284 391 1588 391 
Q 1994 391 2212 530 
Q 2431 669 2431 922 
Q 2431 1156 2273 1281 
Q 2116 1406 1581 1522 
L 1381 1569 
Q 847 1681 609 1914 
Q 372 2147 372 2553 
Q 372 3047 722 3315 
Q 1072 3584 1716 3584 
Q 2034 3584 2315 3537 
Q 2597 3491 2834 3397 
z
" transform="scale(0.015625)"/>
      </defs>
      <use xlink:href="#DejaVuSans-4e"/>
      <use xlink:href="#DejaVuSans-75" x="74.804688"/>
      <use xlink:href="#DejaVuSans-6d" x="138.183594"/>
      <use xlink:href="#DejaVuSans-62" x="235.595703"/>
      <use xlink:href="#DejaVuSans-65" x="299.072266"/>
      <use xlink:href="#DejaVuSans-72" x="360.595703"/>
      <use xlink:href="#DejaVuSans-20" x="401.708984"/>
      <use xlink:href="#DejaVuSans-6f" x="433.496094"/>
      <use xlink:href="#DejaVuSans-66" x="494.677734"/>
      <use xlink:href="#DejaVuSans-20" x="529.882812"/>
      <use xlink:href="#DejaVuSans-50" x="561.669922"/>
      <use xlink:href="#DejaVuSans-79" x="621.972656"/>
      <use xlink:href="#DejaVuSans-50" x="681.152344"/>
      <use xlink:href="#DejaVuSans-49" x="741.455078"/>
      <use xlink:href="#DejaVuSans-20" x="770.947266"/>
      <use xlink:href="#DejaVuSans-44" x="802.734375"/>
      <use xlink:href="#DejaVuSans-6f" x="879.736328"/>
      <use xlink:href="#DejaVuSans-77" x="940.917969"/>
      <use xlink:href="#DejaVuSans-6e" x="1022.705078"/>
      <use xlink:href="#DejaVuSans-6c" x="1086.083984"/>
      <use xlink:href="#DejaVuSans-6f" x="1113.867188"/>
      <use xlink:href="#DejaVuSans-61" x="1175.048828"/>
      <use xlink:href="#DejaVuSans-64" x="1236.328125"/>
      <use xlink:href="#DejaVuSans-73" x="1299.804688"/>
     </g>
    </g>
   </g>
  </g>
 </g>
 <defs>
  <clipPath id="p041792fbb3">
   <rect x="90" y="17.28" width="558" height="110.88"/>
  </clipPath>
 </defs>
</svg>
