<?xml version="1.0" encoding="utf-8" standalone="no"?>
<!DOCTYPE svg PUBLIC "-//W3C//DTD SVG 1.1//EN"
  "http://www.w3.org/Graphics/SVG/1.1/DTD/svg11.dtd">
<svg xmlns:xlink="http://www.w3.org/1999/xlink" width="720pt" height="144pt" viewBox="0 0 720 144" xmlns="http://www.w3.org/2000/svg" version="1.1">
 <metadata>
  <rdf:RDF xmlns:dc="http://purl.org/dc/elements/1.1/" xmlns:cc="http://creativecommons.org/ns#" xmlns:rdf="http://www.w3.org/1999/02/22-rdf-syntax-ns#">
   <cc:Work>
    <dc:type rdf:resource="http://purl.org/dc/dcmitype/StillImage"/>
    <dc:date>2022-09-01T20:57:35.703526</dc:date>
    <dc:format>image/svg+xml</dc:format>
    <dc:creator>
     <cc:Agent>
      <dc:title>Matplotlib v3.5.3, https://matplotlib.org/</dc:title>
     </cc:Agent>
    </dc:creator>
   </cc:Work>
  </rdf:RDF>
 </metadata>
 <defs>
  <style type="text/css">*{stroke-linejoin: round; stroke-linecap: butt}</style>
 </defs>
 <g id="figure_1">
  <g id="patch_1">
   <path d="M 0 144 
L 720 144 
L 720 0 
L 0 0 
z
" style="fill: #ffffff"/>
  </g>
  <g id="axes_1">
   <g id="patch_2">
    <path d="M 90 128.16 
L 648 128.16 
L 648 17.28 
L 90 17.28 
z
" style="fill: #ffffff"/>
   </g>
   <g id="matplotlib.axis_1">
    <g id="xtick_1">
     <g id="line2d_1">
      <defs>
       <path id="mf30bf48fb3" d="M 0 0 
L 0 3.5 
" style="stroke: #000000; stroke-width: 0.8"/>
      </defs>
      <g>
       <use xlink:href="#mf30bf48fb3" x="115.363636" y="128.16" style="stroke: #000000; stroke-width: 0.8"/>
      </g>
     </g>
     <g id="text_1">
      <!-- 2020-06-18 -->
      <g transform="translate(86.305824 142.758438)scale(0.1 -0.1)">
       <defs>
        <path id="DejaVuSans-32" d="M 1228 531 
L 3431 531 
L 3431 0 
L 469 0 
L 469 531 
Q 828 903 1448 1529 
Q 2069 2156 2228 2338 
Q 2531 2678 2651 2914 
Q 2772 3150 2772 3378 
Q 2772 3750 2511 3984 
Q 2250 4219 1831 4219 
Q 1534 4219 1204 4116 
Q 875 4013 500 3803 
L 500 4441 
Q 881 4594 1212 4672 
Q 1544 4750 1819 4750 
Q 2544 4750 2975 4387 
Q 3406 4025 3406 3419 
Q 3406 3131 3298 2873 
Q 3191 2616 2906 2266 
Q 2828 2175 2409 1742 
Q 1991 1309 1228 531 
z
" transform="scale(0.015625)"/>
        <path id="DejaVuSans-30" d="M 2034 4250 
Q 1547 4250 1301 3770 
Q 1056 3291 1056 2328 
Q 1056 1369 1301 889 
Q 1547 409 2034 409 
Q 2525 409 2770 889 
Q 3016 1369 3016 2328 
Q 3016 3291 2770 3770 
Q 2525 4250 2034 4250 
z
M 2034 4750 
Q 2819 4750 3233 4129 
Q 3647 3509 3647 2328 
Q 3647 1150 3233 529 
Q 2819 -91 2034 -91 
Q 1250 -91 836 529 
Q 422 1150 422 2328 
Q 422 3509 836 4129 
Q 1250 4750 2034 4750 
z
" transform="scale(0.015625)"/>
        <path id="DejaVuSans-2d" d="M 313 2009 
L 1997 2009 
L 1997 1497 
L 313 1497 
L 313 2009 
z
" transform="scale(0.015625)"/>
        <path id="DejaVuSans-36" d="M 2113 2584 
Q 1688 2584 1439 2293 
Q 1191 2003 1191 1497 
Q 1191 994 1439 701 
Q 1688 409 2113 409 
Q 2538 409 2786 701 
Q 3034 994 3034 1497 
Q 3034 2003 2786 2293 
Q 2538 2584 2113 2584 
z
M 3366 4563 
L 3366 3988 
Q 3128 4100 2886 4159 
Q 2644 4219 2406 4219 
Q 1781 4219 1451 3797 
Q 1122 3375 1075 2522 
Q 1259 2794 1537 2939 
Q 1816 3084 2150 3084 
Q 2853 3084 3261 2657 
Q 3669 2231 3669 1497 
Q 3669 778 3244 343 
Q 2819 -91 2113 -91 
Q 1303 -91 875 529 
Q 447 1150 447 2328 
Q 447 3434 972 4092 
Q 1497 4750 2381 4750 
Q 2619 4750 2861 4703 
Q 3103 4656 3366 4563 
z
" transform="scale(0.015625)"/>
        <path id="DejaVuSans-31" d="M 794 531 
L 1825 531 
L 1825 4091 
L 703 3866 
L 703 4441 
L 1819 4666 
L 2450 4666 
L 2450 531 
L 3481 531 
L 3481 0 
L 794 0 
L 794 531 
z
" transform="scale(0.015625)"/>
        <path id="DejaVuSans-38" d="M 2034 2216 
Q 1584 2216 1326 1975 
Q 1069 1734 1069 1313 
Q 1069 891 1326 650 
Q 1584 409 2034 409 
Q 2484 409 2743 651 
Q 3003 894 3003 1313 
Q 3003 1734 2745 1975 
Q 2488 2216 2034 2216 
z
M 1403 2484 
Q 997 2584 770 2862 
Q 544 3141 544 3541 
Q 544 4100 942 4425 
Q 1341 4750 2034 4750 
Q 2731 4750 3128 4425 
Q 3525 4100 3525 3541 
Q 3525 3141 3298 2862 
Q 3072 2584 2669 2484 
Q 3125 2378 3379 2068 
Q 3634 1759 3634 1313 
Q 3634 634 3220 271 
Q 2806 -91 2034 -91 
Q 1263 -91 848 271 
Q 434 634 434 1313 
Q 434 1759 690 2068 
Q 947 2378 1403 2484 
z
M 1172 3481 
Q 1172 3119 1398 2916 
Q 1625 2713 2034 2713 
Q 2441 2713 2670 2916 
Q 2900 3119 2900 3481 
Q 2900 3844 2670 4047 
Q 2441 4250 2034 4250 
Q 1625 4250 1398 4047 
Q 1172 3844 1172 3481 
z
" transform="scale(0.015625)"/>
       </defs>
       <use xlink:href="#DejaVuSans-32"/>
       <use xlink:href="#DejaVuSans-30" x="63.623047"/>
       <use xlink:href="#DejaVuSans-32" x="127.246094"/>
       <use xlink:href="#DejaVuSans-30" x="190.869141"/>
       <use xlink:href="#DejaVuSans-2d" x="254.492188"/>
       <use xlink:href="#DejaVuSans-30" x="290.576172"/>
       <use xlink:href="#DejaVuSans-36" x="354.199219"/>
       <use xlink:href="#DejaVuSans-2d" x="417.822266"/>
       <use xlink:href="#DejaVuSans-31" x="453.90625"/>
       <use xlink:href="#DejaVuSans-38" x="517.529297"/>
      </g>
     </g>
    </g>
    <g id="xtick_2">
     <g id="line2d_2">
      <g>
       <use xlink:href="#mf30bf48fb3" x="187.113669" y="128.16" style="stroke: #000000; stroke-width: 0.8"/>
      </g>
     </g>
     <g id="text_2">
      <!-- 2020-10-23 -->
      <g transform="translate(158.055856 142.758438)scale(0.1 -0.1)">
       <defs>
        <path id="DejaVuSans-33" d="M 2597 2516 
Q 3050 2419 3304 2112 
Q 3559 1806 3559 1356 
Q 3559 666 3084 287 
Q 2609 -91 1734 -91 
Q 1441 -91 1130 -33 
Q 819 25 488 141 
L 488 750 
Q 750 597 1062 519 
Q 1375 441 1716 441 
Q 2309 441 2620 675 
Q 2931 909 2931 1356 
Q 2931 1769 2642 2001 
Q 2353 2234 1838 2234 
L 1294 2234 
L 1294 2753 
L 1863 2753 
Q 2328 2753 2575 2939 
Q 2822 3125 2822 3475 
Q 2822 3834 2567 4026 
Q 2313 4219 1838 4219 
Q 1578 4219 1281 4162 
Q 984 4106 628 3988 
L 628 4550 
Q 988 4650 1302 4700 
Q 1616 4750 1894 4750 
Q 2613 4750 3031 4423 
Q 3450 4097 3450 3541 
Q 3450 3153 3228 2886 
Q 3006 2619 2597 2516 
z
" transform="scale(0.015625)"/>
       </defs>
       <use xlink:href="#DejaVuSans-32"/>
       <use xlink:href="#DejaVuSans-30" x="63.623047"/>
       <use xlink:href="#DejaVuSans-32" x="127.246094"/>
       <use xlink:href="#DejaVuSans-30" x="190.869141"/>
       <use xlink:href="#DejaVuSans-2d" x="254.492188"/>
       <use xlink:href="#DejaVuSans-31" x="290.576172"/>
       <use xlink:href="#DejaVuSans-30" x="354.199219"/>
       <use xlink:href="#DejaVuSans-2d" x="417.822266"/>
       <use xlink:href="#DejaVuSans-32" x="453.90625"/>
       <use xlink:href="#DejaVuSans-33" x="517.529297"/>
      </g>
     </g>
    </g>
    <g id="xtick_3">
     <g id="line2d_3">
      <g>
       <use xlink:href="#mf30bf48fb3" x="258.863701" y="128.16" style="stroke: #000000; stroke-width: 0.8"/>
      </g>
     </g>
     <g id="text_3">
      <!-- 2021-03-13 -->
      <g transform="translate(229.805888 142.758438)scale(0.1 -0.1)">
       <use xlink:href="#DejaVuSans-32"/>
       <use xlink:href="#DejaVuSans-30" x="63.623047"/>
       <use xlink:href="#DejaVuSans-32" x="127.246094"/>
       <use xlink:href="#DejaVuSans-31" x="190.869141"/>
       <use xlink:href="#DejaVuSans-2d" x="254.492188"/>
       <use xlink:href="#DejaVuSans-30" x="290.576172"/>
       <use xlink:href="#DejaVuSans-33" x="354.199219"/>
       <use xlink:href="#DejaVuSans-2d" x="417.822266"/>
       <use xlink:href="#DejaVuSans-31" x="453.90625"/>
       <use xlink:href="#DejaVuSans-33" x="517.529297"/>
      </g>
     </g>
    </g>
    <g id="xtick_4">
     <g id="line2d_4">
      <g>
       <use xlink:href="#mf30bf48fb3" x="330.613733" y="128.16" style="stroke: #000000; stroke-width: 0.8"/>
      </g>
     </g>
     <g id="text_4">
      <!-- 2021-07-01 -->
      <g transform="translate(301.55592 142.758438)scale(0.1 -0.1)">
       <defs>
        <path id="DejaVuSans-37" d="M 525 4666 
L 3525 4666 
L 3525 4397 
L 1831 0 
L 1172 0 
L 2766 4134 
L 525 4134 
L 525 4666 
z
" transform="scale(0.015625)"/>
       </defs>
       <use xlink:href="#DejaVuSans-32"/>
       <use xlink:href="#DejaVuSans-30" x="63.623047"/>
       <use xlink:href="#DejaVuSans-32" x="127.246094"/>
       <use xlink:href="#DejaVuSans-31" x="190.869141"/>
       <use xlink:href="#DejaVuSans-2d" x="254.492188"/>
       <use xlink:href="#DejaVuSans-30" x="290.576172"/>
       <use xlink:href="#DejaVuSans-37" x="354.199219"/>
       <use xlink:href="#DejaVuSans-2d" x="417.822266"/>
       <use xlink:href="#DejaVuSans-30" x="453.90625"/>
       <use xlink:href="#DejaVuSans-31" x="517.529297"/>
      </g>
     </g>
    </g>
    <g id="xtick_5">
     <g id="line2d_5">
      <g>
       <use xlink:href="#mf30bf48fb3" x="402.363765" y="128.16" style="stroke: #000000; stroke-width: 0.8"/>
      </g>
     </g>
     <g id="text_5">
      <!-- 2021-10-16 -->
      <g transform="translate(373.305952 142.758438)scale(0.1 -0.1)">
       <use xlink:href="#DejaVuSans-32"/>
       <use xlink:href="#DejaVuSans-30" x="63.623047"/>
       <use xlink:href="#DejaVuSans-32" x="127.246094"/>
       <use xlink:href="#DejaVuSans-31" x="190.869141"/>
       <use xlink:href="#DejaVuSans-2d" x="254.492188"/>
       <use xlink:href="#DejaVuSans-31" x="290.576172"/>
       <use xlink:href="#DejaVuSans-30" x="354.199219"/>
       <use xlink:href="#DejaVuSans-2d" x="417.822266"/>
       <use xlink:href="#DejaVuSans-31" x="453.90625"/>
       <use xlink:href="#DejaVuSans-36" x="517.529297"/>
      </g>
     </g>
    </g>
    <g id="xtick_6">
     <g id="line2d_6">
      <g>
       <use xlink:href="#mf30bf48fb3" x="474.113797" y="128.16" style="stroke: #000000; stroke-width: 0.8"/>
      </g>
     </g>
     <g id="text_6">
      <!-- 2022-01-27 -->
      <g transform="translate(445.055985 142.758438)scale(0.1 -0.1)">
       <use xlink:href="#DejaVuSans-32"/>
       <use xlink:href="#DejaVuSans-30" x="63.623047"/>
       <use xlink:href="#DejaVuSans-32" x="127.246094"/>
       <use xlink:href="#DejaVuSans-32" x="190.869141"/>
       <use xlink:href="#DejaVuSans-2d" x="254.492188"/>
       <use xlink:href="#DejaVuSans-30" x="290.576172"/>
       <use xlink:href="#DejaVuSans-31" x="354.199219"/>
       <use xlink:href="#DejaVuSans-2d" x="417.822266"/>
       <use xlink:href="#DejaVuSans-32" x="453.90625"/>
       <use xlink:href="#DejaVuSans-37" x="517.529297"/>
      </g>
     </g>
    </g>
    <g id="xtick_7">
     <g id="line2d_7">
      <g>
       <use xlink:href="#mf30bf48fb3" x="545.863829" y="128.16" style="stroke: #000000; stroke-width: 0.8"/>
      </g>
     </g>
     <g id="text_7">
      <!-- 2022-05-12 -->
      <g transform="translate(516.806017 142.758438)scale(0.1 -0.1)">
       <defs>
        <path id="DejaVuSans-35" d="M 691 4666 
L 3169 4666 
L 3169 4134 
L 1269 4134 
L 1269 2991 
Q 1406 3038 1543 3061 
Q 1681 3084 1819 3084 
Q 2600 3084 3056 2656 
Q 3513 2228 3513 1497 
Q 3513 744 3044 326 
Q 2575 -91 1722 -91 
Q 1428 -91 1123 -41 
Q 819 9 494 109 
L 494 744 
Q 775 591 1075 516 
Q 1375 441 1709 441 
Q 2250 441 2565 725 
Q 2881 1009 2881 1497 
Q 2881 1984 2565 2268 
Q 2250 2553 1709 2553 
Q 1456 2553 1204 2497 
Q 953 2441 691 2322 
L 691 4666 
z
" transform="scale(0.015625)"/>
       </defs>
       <use xlink:href="#DejaVuSans-32"/>
       <use xlink:href="#DejaVuSans-30" x="63.623047"/>
       <use xlink:href="#DejaVuSans-32" x="127.246094"/>
       <use xlink:href="#DejaVuSans-32" x="190.869141"/>
       <use xlink:href="#DejaVuSans-2d" x="254.492188"/>
       <use xlink:href="#DejaVuSans-30" x="290.576172"/>
       <use xlink:href="#DejaVuSans-35" x="354.199219"/>
       <use xlink:href="#DejaVuSans-2d" x="417.822266"/>
       <use xlink:href="#DejaVuSans-31" x="453.90625"/>
       <use xlink:href="#DejaVuSans-32" x="517.529297"/>
      </g>
     </g>
    </g>
    <g id="xtick_8">
     <g id="line2d_8">
      <g>
       <use xlink:href="#mf30bf48fb3" x="617.613861" y="128.16" style="stroke: #000000; stroke-width: 0.8"/>
      </g>
     </g>
     <g id="text_8">
      <!-- 2022-08-23 -->
      <g transform="translate(588.556049 142.758438)scale(0.1 -0.1)">
       <use xlink:href="#DejaVuSans-32"/>
       <use xlink:href="#DejaVuSans-30" x="63.623047"/>
       <use xlink:href="#DejaVuSans-32" x="127.246094"/>
       <use xlink:href="#DejaVuSans-32" x="190.869141"/>
       <use xlink:href="#DejaVuSans-2d" x="254.492188"/>
       <use xlink:href="#DejaVuSans-30" x="290.576172"/>
       <use xlink:href="#DejaVuSans-38" x="354.199219"/>
       <use xlink:href="#DejaVuSans-2d" x="417.822266"/>
       <use xlink:href="#DejaVuSans-32" x="453.90625"/>
       <use xlink:href="#DejaVuSans-33" x="517.529297"/>
      </g>
     </g>
    </g>
    <g id="text_9">
     <!-- date -->
     <g transform="translate(357.725 156.436563)scale(0.1 -0.1)">
      <defs>
       <path id="DejaVuSans-64" d="M 2906 2969 
L 2906 4863 
L 3481 4863 
L 3481 0 
L 2906 0 
L 2906 525 
Q 2725 213 2448 61 
Q 2172 -91 1784 -91 
Q 1150 -91 751 415 
Q 353 922 353 1747 
Q 353 2572 751 3078 
Q 1150 3584 1784 3584 
Q 2172 3584 2448 3432 
Q 2725 3281 2906 2969 
z
M 947 1747 
Q 947 1113 1208 752 
Q 1469 391 1925 391 
Q 2381 391 2643 752 
Q 2906 1113 2906 1747 
Q 2906 2381 2643 2742 
Q 2381 3103 1925 3103 
Q 1469 3103 1208 2742 
Q 947 2381 947 1747 
z
" transform="scale(0.015625)"/>
       <path id="DejaVuSans-61" d="M 2194 1759 
Q 1497 1759 1228 1600 
Q 959 1441 959 1056 
Q 959 750 1161 570 
Q 1363 391 1709 391 
Q 2188 391 2477 730 
Q 2766 1069 2766 1631 
L 2766 1759 
L 2194 1759 
z
M 3341 1997 
L 3341 0 
L 2766 0 
L 2766 531 
Q 2569 213 2275 61 
Q 1981 -91 1556 -91 
Q 1019 -91 701 211 
Q 384 513 384 1019 
Q 384 1609 779 1909 
Q 1175 2209 1959 2209 
L 2766 2209 
L 2766 2266 
Q 2766 2663 2505 2880 
Q 2244 3097 1772 3097 
Q 1472 3097 1187 3025 
Q 903 2953 641 2809 
L 641 3341 
Q 956 3463 1253 3523 
Q 1550 3584 1831 3584 
Q 2591 3584 2966 3190 
Q 3341 2797 3341 1997 
z
" transform="scale(0.015625)"/>
       <path id="DejaVuSans-74" d="M 1172 4494 
L 1172 3500 
L 2356 3500 
L 2356 3053 
L 1172 3053 
L 1172 1153 
Q 1172 725 1289 603 
Q 1406 481 1766 481 
L 2356 481 
L 2356 0 
L 1766 0 
Q 1100 0 847 248 
Q 594 497 594 1153 
L 594 3053 
L 172 3053 
L 172 3500 
L 594 3500 
L 594 4494 
L 1172 4494 
z
" transform="scale(0.015625)"/>
       <path id="DejaVuSans-65" d="M 3597 1894 
L 3597 1613 
L 953 1613 
Q 991 1019 1311 708 
Q 1631 397 2203 397 
Q 2534 397 2845 478 
Q 3156 559 3463 722 
L 3463 178 
Q 3153 47 2828 -22 
Q 2503 -91 2169 -91 
Q 1331 -91 842 396 
Q 353 884 353 1716 
Q 353 2575 817 3079 
Q 1281 3584 2069 3584 
Q 2775 3584 3186 3129 
Q 3597 2675 3597 1894 
z
M 3022 2063 
Q 3016 2534 2758 2815 
Q 2500 3097 2075 3097 
Q 1594 3097 1305 2825 
Q 1016 2553 972 2059 
L 3022 2063 
z
" transform="scale(0.015625)"/>
      </defs>
      <use xlink:href="#DejaVuSans-64"/>
      <use xlink:href="#DejaVuSans-61" x="63.476562"/>
      <use xlink:href="#DejaVuSans-74" x="124.755859"/>
      <use xlink:href="#DejaVuSans-65" x="163.964844"/>
     </g>
    </g>
   </g>
   <g id="matplotlib.axis_2">
    <g id="ytick_1">
     <g id="line2d_9">
      <defs>
       <path id="mb859d3be60" d="M 0 0 
L -3.5 0 
" style="stroke: #000000; stroke-width: 0.8"/>
      </defs>
      <g>
       <use xlink:href="#mb859d3be60" x="90" y="124.292093" style="stroke: #000000; stroke-width: 0.8"/>
      </g>
     </g>
     <g id="text_10">
      <!-- 0 -->
      <g transform="translate(76.6375 128.091312)scale(0.1 -0.1)">
       <use xlink:href="#DejaVuSans-30"/>
      </g>
     </g>
    </g>
    <g id="ytick_2">
     <g id="line2d_10">
      <g>
       <use xlink:href="#mb859d3be60" x="90" y="100.850233" style="stroke: #000000; stroke-width: 0.8"/>
      </g>
     </g>
     <g id="text_11">
      <!-- 20 -->
      <g transform="translate(70.275 104.649451)scale(0.1 -0.1)">
       <use xlink:href="#DejaVuSans-32"/>
       <use xlink:href="#DejaVuSans-30" x="63.623047"/>
      </g>
     </g>
    </g>
    <g id="ytick_3">
     <g id="line2d_11">
      <g>
       <use xlink:href="#mb859d3be60" x="90" y="77.408372" style="stroke: #000000; stroke-width: 0.8"/>
      </g>
     </g>
     <g id="text_12">
      <!-- 40 -->
      <g transform="translate(70.275 81.207591)scale(0.1 -0.1)">
       <defs>
        <path id="DejaVuSans-34" d="M 2419 4116 
L 825 1625 
L 2419 1625 
L 2419 4116 
z
M 2253 4666 
L 3047 4666 
L 3047 1625 
L 3713 1625 
L 3713 1100 
L 3047 1100 
L 3047 0 
L 2419 0 
L 2419 1100 
L 313 1100 
L 313 1709 
L 2253 4666 
z
" transform="scale(0.015625)"/>
       </defs>
       <use xlink:href="#DejaVuSans-34"/>
       <use xlink:href="#DejaVuSans-30" x="63.623047"/>
      </g>
     </g>
    </g>
    <g id="ytick_4">
     <g id="line2d_12">
      <g>
       <use xlink:href="#mb859d3be60" x="90" y="53.966512" style="stroke: #000000; stroke-width: 0.8"/>
      </g>
     </g>
     <g id="text_13">
      <!-- 60 -->
      <g transform="translate(70.275 57.76573)scale(0.1 -0.1)">
       <use xlink:href="#DejaVuSans-36"/>
       <use xlink:href="#DejaVuSans-30" x="63.623047"/>
      </g>
     </g>
    </g>
    <g id="ytick_5">
     <g id="line2d_13">
      <g>
       <use xlink:href="#mb859d3be60" x="90" y="30.524651" style="stroke: #000000; stroke-width: 0.8"/>
      </g>
     </g>
     <g id="text_14">
      <!-- 80 -->
      <g transform="translate(70.275 34.32387)scale(0.1 -0.1)">
       <use xlink:href="#DejaVuSans-38"/>
       <use xlink:href="#DejaVuSans-30" x="63.623047"/>
      </g>
     </g>
    </g>
   </g>
   <g id="line2d_14">
    <path d="M 115.363636 98.506047 
L 116.081137 107.882791 
L 116.798637 119.603721 
L 118.951138 123.12 
L 119.668638 120.775814 
L 120.386139 114.915349 
L 121.103639 121.947907 
L 121.821139 120.775814 
L 122.53864 121.947907 
L 123.25614 96.16186 
L 123.97364 116.087442 
L 124.691141 120.775814 
L 125.408641 114.915349 
L 126.126141 121.947907 
L 126.843642 117.259535 
L 127.561142 116.087442 
L 128.278642 123.12 
L 128.996142 120.775814 
L 129.713643 112.571163 
L 130.431143 114.915349 
L 131.148643 119.603721 
L 131.866144 120.775814 
L 132.583644 120.775814 
L 134.018645 123.12 
L 134.736145 113.743256 
L 135.453645 64.515349 
L 136.171146 117.259535 
L 136.888646 120.775814 
L 137.606146 120.775814 
L 138.323647 118.431628 
L 139.041147 121.947907 
L 139.758647 119.603721 
L 140.476148 123.12 
L 141.193648 120.775814 
L 141.911148 120.775814 
L 142.628649 123.12 
L 143.346149 121.947907 
L 144.063649 119.603721 
L 144.78115 119.603721 
L 145.49865 117.259535 
L 146.21615 123.12 
L 146.933651 123.12 
L 147.651151 121.947907 
L 148.368651 121.947907 
L 149.086151 123.12 
L 149.803652 123.12 
L 150.521152 105.538605 
L 151.238652 118.431628 
L 151.956153 116.087442 
L 152.673653 121.947907 
L 153.391153 118.431628 
L 154.108654 116.087442 
L 154.826154 118.431628 
L 155.543654 123.12 
L 156.261155 121.947907 
L 156.978655 118.431628 
L 157.696155 123.12 
L 159.131156 120.775814 
L 159.848656 116.087442 
L 161.283657 123.12 
L 162.001157 119.603721 
L 162.718658 118.431628 
L 163.436158 123.12 
L 164.153658 119.603721 
L 164.871159 123.12 
L 165.588659 121.947907 
L 166.306159 118.431628 
L 167.02366 123.12 
L 167.74116 121.947907 
L 168.45866 121.947907 
L 169.17616 123.12 
L 169.893661 118.431628 
L 170.611161 123.12 
L 171.328661 120.775814 
L 172.763662 120.775814 
L 173.481162 119.603721 
L 174.198663 117.259535 
L 174.916163 120.775814 
L 175.633663 117.259535 
L 176.351164 123.12 
L 177.786164 120.775814 
L 178.503665 118.431628 
L 179.221165 121.947907 
L 179.938665 123.12 
L 180.656166 121.947907 
L 181.373666 119.603721 
L 182.091166 120.775814 
L 182.808667 123.12 
L 183.526167 107.882791 
L 184.243667 123.12 
L 184.961168 120.775814 
L 185.678668 119.603721 
L 186.396168 123.12 
L 187.113669 119.603721 
L 187.831169 114.915349 
L 188.548669 120.775814 
L 189.266169 123.12 
L 189.98367 123.12 
L 190.70117 121.947907 
L 191.41867 123.12 
L 192.136171 123.12 
L 192.853671 121.947907 
L 193.571171 121.947907 
L 194.288672 120.775814 
L 195.006172 121.947907 
L 197.158673 118.431628 
L 197.876173 120.775814 
L 198.593674 120.775814 
L 200.028674 118.431628 
L 200.746175 121.947907 
L 201.463675 123.12 
L 202.181175 116.087442 
L 202.898676 121.947907 
L 203.616176 121.947907 
L 204.333676 114.915349 
L 205.051177 120.775814 
L 205.768677 120.775814 
L 206.486177 94.989767 
L 207.203678 118.431628 
L 207.921178 120.775814 
L 208.638678 116.087442 
L 209.356178 121.947907 
L 210.073679 117.259535 
L 210.791179 121.947907 
L 211.508679 114.915349 
L 212.22618 118.431628 
L 212.94368 123.12 
L 213.66118 121.947907 
L 214.378681 109.054884 
L 215.096181 118.431628 
L 215.813681 121.947907 
L 216.531182 123.12 
L 217.248682 123.12 
L 217.966182 114.915349 
L 218.683683 123.12 
L 219.401183 123.12 
L 220.118683 119.603721 
L 220.836184 123.12 
L 221.553684 123.12 
L 222.988685 118.431628 
L 223.706185 123.12 
L 224.423685 120.775814 
L 225.858686 123.12 
L 226.576186 118.431628 
L 227.293687 123.12 
L 228.011187 123.12 
L 228.728687 121.947907 
L 229.446187 123.12 
L 230.163688 123.12 
L 230.881188 118.431628 
L 232.316189 123.12 
L 233.751189 120.775814 
L 234.46869 120.775814 
L 235.18619 121.947907 
L 235.90369 119.603721 
L 236.621191 121.947907 
L 237.338691 123.12 
L 238.773692 123.12 
L 239.491192 118.431628 
L 240.208692 123.12 
L 240.926193 121.947907 
L 241.643693 123.12 
L 242.361193 118.431628 
L 243.078694 120.775814 
L 243.796194 121.947907 
L 244.513694 121.947907 
L 245.231195 119.603721 
L 245.948695 121.947907 
L 246.666195 120.775814 
L 247.383696 120.775814 
L 248.101196 121.947907 
L 248.818696 121.947907 
L 249.536196 123.12 
L 250.253697 116.087442 
L 250.971197 121.947907 
L 251.688697 121.947907 
L 252.406198 123.12 
L 253.123698 121.947907 
L 253.841198 123.12 
L 254.558699 123.12 
L 255.993699 120.775814 
L 256.7112 111.39907 
L 257.4287 114.915349 
L 258.1462 89.129302 
L 258.863701 123.12 
L 259.581201 121.947907 
L 260.298701 116.087442 
L 261.016202 118.431628 
L 261.733702 117.259535 
L 262.451202 107.882791 
L 263.168703 123.12 
L 263.886203 121.947907 
L 264.603703 119.603721 
L 265.321204 116.087442 
L 266.038704 111.39907 
L 266.756204 97.333953 
L 267.473705 106.710698 
L 268.191205 121.947907 
L 268.908705 84.44093 
L 269.626205 105.538605 
L 270.343706 114.915349 
L 271.061206 107.882791 
L 271.778706 118.431628 
L 272.496207 107.882791 
L 273.213707 109.054884 
L 273.931207 106.710698 
L 274.648708 97.333953 
L 275.366208 120.775814 
L 276.083708 116.087442 
L 276.801209 120.775814 
L 277.518709 123.12 
L 278.236209 118.431628 
L 278.95371 123.12 
L 279.67121 120.775814 
L 280.38871 123.12 
L 281.106211 121.947907 
L 281.823711 107.882791 
L 282.541211 120.775814 
L 283.258712 117.259535 
L 283.976212 119.603721 
L 284.693712 118.431628 
L 285.411213 123.12 
L 286.128713 116.087442 
L 286.846213 118.431628 
L 287.563714 121.947907 
L 288.281214 117.259535 
L 288.998714 123.12 
L 289.716214 120.775814 
L 290.433715 123.12 
L 291.151215 119.603721 
L 291.868715 121.947907 
L 292.586216 119.603721 
L 293.303716 118.431628 
L 294.021216 121.947907 
L 295.456217 121.947907 
L 296.173717 119.603721 
L 296.891218 118.431628 
L 297.608718 98.506047 
L 298.326218 100.850233 
L 299.043719 120.775814 
L 299.761219 121.947907 
L 300.478719 117.259535 
L 301.19622 118.431628 
L 301.91372 116.087442 
L 302.63122 121.947907 
L 303.348721 123.12 
L 304.066221 117.259535 
L 304.783721 116.087442 
L 305.501222 112.571163 
L 306.218722 121.947907 
L 306.936222 118.431628 
L 307.653723 121.947907 
L 308.371223 121.947907 
L 309.088723 123.12 
L 310.523724 118.431628 
L 311.958724 123.12 
L 312.676225 120.775814 
L 313.393725 121.947907 
L 314.111225 116.087442 
L 314.828726 113.743256 
L 315.546226 116.087442 
L 316.263726 117.259535 
L 316.981227 114.915349 
L 317.698727 105.538605 
L 318.416227 117.259535 
L 319.133728 119.603721 
L 319.851228 118.431628 
L 320.568728 114.915349 
L 321.286229 106.710698 
L 322.003729 121.947907 
L 322.721229 120.775814 
L 323.43873 123.12 
L 324.15623 113.743256 
L 324.87373 114.915349 
L 325.591231 119.603721 
L 326.308731 112.571163 
L 327.026231 110.226977 
L 327.743732 121.947907 
L 328.461232 121.947907 
L 329.178732 112.571163 
L 329.896232 91.473488 
L 330.613733 107.882791 
L 331.331233 117.259535 
L 332.048733 118.431628 
L 332.766234 118.431628 
L 334.201234 120.775814 
L 334.918735 117.259535 
L 335.636235 117.259535 
L 336.353735 121.947907 
L 337.071236 121.947907 
L 337.788736 120.775814 
L 338.506236 121.947907 
L 339.223737 114.915349 
L 339.941237 114.915349 
L 340.658737 117.259535 
L 341.376238 113.743256 
L 342.093738 105.538605 
L 342.811238 114.915349 
L 343.528739 114.915349 
L 344.246239 120.775814 
L 344.963739 120.775814 
L 345.68124 116.087442 
L 346.39874 123.12 
L 347.11624 103.194419 
L 347.833741 100.850233 
L 348.551241 117.259535 
L 349.268741 118.431628 
L 349.986241 107.882791 
L 350.703742 113.743256 
L 351.421242 120.775814 
L 352.138742 118.431628 
L 352.856243 123.12 
L 353.573743 113.743256 
L 354.291243 98.506047 
L 355.008744 121.947907 
L 355.726244 120.775814 
L 357.161245 123.12 
L 357.878745 119.603721 
L 358.596245 100.850233 
L 359.313746 114.915349 
L 360.031246 121.947907 
L 360.748746 121.947907 
L 361.466247 105.538605 
L 362.183747 120.775814 
L 362.901247 121.947907 
L 363.618748 120.775814 
L 366.488749 120.775814 
L 367.206249 118.431628 
L 367.92375 123.12 
L 368.64125 121.947907 
L 369.35875 121.947907 
L 370.07625 123.12 
L 370.793751 123.12 
L 371.511251 121.947907 
L 372.228751 123.12 
L 372.946252 117.259535 
L 373.663752 121.947907 
L 374.381252 118.431628 
L 375.098753 118.431628 
L 375.816253 116.087442 
L 376.533753 118.431628 
L 377.251254 123.12 
L 377.968754 120.775814 
L 379.403755 120.775814 
L 380.121255 123.12 
L 380.838755 121.947907 
L 381.556256 121.947907 
L 382.273756 119.603721 
L 382.991256 121.947907 
L 385.143757 121.947907 
L 385.861258 82.096744 
L 386.578758 118.431628 
L 387.296258 123.12 
L 388.013759 121.947907 
L 388.731259 119.603721 
L 389.448759 123.12 
L 390.166259 118.431628 
L 390.88376 121.947907 
L 391.60126 117.259535 
L 392.31876 116.087442 
L 393.036261 116.087442 
L 393.753761 114.915349 
L 394.471261 100.850233 
L 395.188762 100.850233 
L 395.906262 116.087442 
L 396.623762 119.603721 
L 397.341263 121.947907 
L 398.058763 104.366512 
L 398.776263 118.431628 
L 399.493764 121.947907 
L 400.211264 121.947907 
L 400.928764 120.775814 
L 401.646265 120.775814 
L 402.363765 121.947907 
L 403.081265 121.947907 
L 403.798766 118.431628 
L 404.516266 123.12 
L 405.233766 121.947907 
L 405.951267 118.431628 
L 406.668767 118.431628 
L 407.386267 120.775814 
L 408.821268 100.850233 
L 409.538768 113.743256 
L 410.256268 112.571163 
L 410.973769 105.538605 
L 411.691269 110.226977 
L 413.12627 112.571163 
L 413.84377 111.39907 
L 414.56127 104.366512 
L 415.278771 107.882791 
L 415.996271 118.431628 
L 416.713771 119.603721 
L 417.431272 117.259535 
L 418.148772 117.259535 
L 418.866272 113.743256 
L 419.583773 116.087442 
L 420.301273 109.054884 
L 421.018773 114.915349 
L 421.736274 116.087442 
L 422.453774 111.39907 
L 423.171274 100.850233 
L 423.888775 111.39907 
L 424.606275 116.087442 
L 426.041276 111.39907 
L 426.758776 116.087442 
L 427.476276 107.882791 
L 428.193777 116.087442 
L 428.911277 111.39907 
L 429.628777 120.775814 
L 430.346277 116.087442 
L 431.063778 107.882791 
L 431.781278 120.775814 
L 432.498778 118.431628 
L 433.216279 119.603721 
L 433.933779 114.915349 
L 434.651279 113.743256 
L 435.36878 94.989767 
L 436.08628 91.473488 
L 436.80378 112.571163 
L 437.521281 80.924651 
L 438.238781 120.775814 
L 438.956281 118.431628 
L 439.673782 120.775814 
L 440.391282 90.301395 
L 441.108782 91.473488 
L 442.543783 121.947907 
L 443.261283 118.431628 
L 443.978784 109.054884 
L 444.696284 118.431628 
L 445.413784 118.431628 
L 446.131285 91.473488 
L 446.848785 111.39907 
L 447.566285 114.915349 
L 449.001286 117.259535 
L 449.718786 117.259535 
L 450.436286 114.915349 
L 452.588787 121.947907 
L 453.306288 113.743256 
L 454.023788 121.947907 
L 454.741288 121.947907 
L 456.176289 119.603721 
L 456.893789 123.12 
L 457.61129 119.603721 
L 458.32879 117.259535 
L 459.04629 120.775814 
L 459.763791 121.947907 
L 460.481291 121.947907 
L 461.198791 113.743256 
L 461.916292 123.12 
L 462.633792 97.333953 
L 463.351292 120.775814 
L 464.068793 121.947907 
L 464.786293 118.431628 
L 465.503793 118.431628 
L 466.221294 119.603721 
L 466.938794 121.947907 
L 467.656294 114.915349 
L 468.373795 120.775814 
L 469.091295 118.431628 
L 469.808795 119.603721 
L 470.526295 96.16186 
L 471.243796 120.775814 
L 471.961296 117.259535 
L 472.678796 123.12 
L 473.396297 123.12 
L 474.113797 121.947907 
L 474.831297 113.743256 
L 475.548798 121.947907 
L 476.266298 114.915349 
L 476.983798 118.431628 
L 477.701299 123.12 
L 478.418799 118.431628 
L 479.8538 118.431628 
L 480.5713 114.915349 
L 481.2888 112.571163 
L 482.006301 119.603721 
L 482.723801 119.603721 
L 483.441301 118.431628 
L 484.158802 120.775814 
L 484.876302 120.775814 
L 485.593802 118.431628 
L 486.311303 114.915349 
L 487.028803 114.915349 
L 487.746303 117.259535 
L 488.463804 121.947907 
L 489.898804 121.947907 
L 490.616304 100.850233 
L 491.333805 51.622326 
L 492.051305 75.064186 
L 492.768805 117.259535 
L 493.486306 120.775814 
L 494.203806 118.431628 
L 495.638807 102.022326 
L 496.356307 116.087442 
L 497.073807 96.16186 
L 497.791308 70.375814 
L 498.508808 118.431628 
L 499.226308 69.203721 
L 499.943809 109.054884 
L 500.661309 121.947907 
L 501.378809 55.138605 
L 502.09631 92.645581 
L 502.81381 105.538605 
L 503.53131 48.106047 
L 504.248811 117.259535 
L 504.966311 118.431628 
L 505.683811 91.473488 
L 506.401312 107.882791 
L 507.118812 87.957209 
L 507.836312 107.882791 
L 508.553813 119.603721 
L 509.271313 22.32 
L 509.988813 117.259535 
L 510.706313 118.431628 
L 511.423814 118.431628 
L 512.141314 110.226977 
L 512.858814 116.087442 
L 513.576315 99.67814 
L 514.293815 116.087442 
L 515.011315 119.603721 
L 515.728816 92.645581 
L 516.446316 92.645581 
L 517.163816 110.226977 
L 517.881317 89.129302 
L 518.598817 117.259535 
L 519.316317 118.431628 
L 520.033818 92.645581 
L 520.751318 123.12 
L 521.468818 120.775814 
L 522.186319 119.603721 
L 522.903819 117.259535 
L 523.621319 120.775814 
L 524.33882 119.603721 
L 525.05632 117.259535 
L 525.77382 111.39907 
L 526.491321 114.915349 
L 527.208821 104.366512 
L 528.643822 121.947907 
L 529.361322 123.12 
L 530.078822 113.743256 
L 531.513823 120.775814 
L 532.231323 123.12 
L 532.948823 117.259535 
L 533.666324 121.947907 
L 534.383824 117.259535 
L 535.101324 123.12 
L 536.536325 120.775814 
L 537.253825 123.12 
L 537.971326 123.12 
L 538.688826 120.775814 
L 540.123827 118.431628 
L 540.841327 118.431628 
L 541.558827 119.603721 
L 542.276328 119.603721 
L 542.993828 123.12 
L 543.711328 120.775814 
L 544.428829 83.268837 
L 545.146329 119.603721 
L 545.863829 121.947907 
L 547.29883 121.947907 
L 548.01633 116.087442 
L 548.733831 117.259535 
L 549.451331 104.366512 
L 550.168831 120.775814 
L 550.886331 114.915349 
L 551.603832 121.947907 
L 552.321332 123.12 
L 553.038832 119.603721 
L 553.756333 120.775814 
L 554.473833 114.915349 
L 555.191333 117.259535 
L 555.908834 120.775814 
L 556.626334 121.947907 
L 557.343834 120.775814 
L 558.061335 116.087442 
L 558.778835 118.431628 
L 559.496335 117.259535 
L 560.213836 119.603721 
L 560.931336 113.743256 
L 561.648836 116.087442 
L 562.366337 123.12 
L 563.083837 117.259535 
L 563.801337 118.431628 
L 564.518838 105.538605 
L 565.236338 121.947907 
L 565.953838 117.259535 
L 566.671339 117.259535 
L 567.388839 118.431628 
L 568.106339 106.710698 
L 568.82384 87.957209 
L 569.54134 118.431628 
L 570.25884 121.947907 
L 570.97634 114.915349 
L 571.693841 120.775814 
L 572.411341 119.603721 
L 573.128841 119.603721 
L 573.846342 123.12 
L 575.281342 120.775814 
L 575.998843 118.431628 
L 576.716343 121.947907 
L 577.433843 118.431628 
L 578.151344 121.947907 
L 578.868844 118.431628 
L 579.586344 123.12 
L 580.303845 118.431628 
L 581.021345 120.775814 
L 581.738845 120.775814 
L 582.456346 118.431628 
L 583.173846 123.12 
L 583.891346 118.431628 
L 584.608847 120.775814 
L 585.326347 113.743256 
L 586.043847 121.947907 
L 586.761348 112.571163 
L 587.478848 87.957209 
L 588.196348 121.947907 
L 588.913849 123.12 
L 589.631349 120.775814 
L 590.348849 114.915349 
L 591.066349 120.775814 
L 592.50135 123.12 
L 593.21885 113.743256 
L 593.936351 120.775814 
L 594.653851 119.603721 
L 595.371351 109.054884 
L 596.088852 100.850233 
L 596.806352 116.087442 
L 597.523852 120.775814 
L 598.241353 120.775814 
L 598.958853 114.915349 
L 599.676353 75.064186 
L 600.393854 104.366512 
L 601.111354 114.915349 
L 601.828854 119.603721 
L 602.546355 119.603721 
L 603.263855 85.613023 
L 603.981355 118.431628 
L 604.698856 121.947907 
L 606.133856 121.947907 
L 606.851357 119.603721 
L 607.568857 118.431628 
L 608.286357 120.775814 
L 609.003858 117.259535 
L 609.721358 119.603721 
L 610.438858 123.12 
L 611.156358 120.775814 
L 611.873859 116.087442 
L 612.591359 120.775814 
L 613.308859 114.915349 
L 614.02636 114.915349 
L 614.74386 117.259535 
L 615.46136 120.775814 
L 616.178861 99.67814 
L 616.896361 118.431628 
L 617.613861 104.366512 
L 618.331362 114.915349 
L 619.048862 117.259535 
L 619.766362 105.538605 
L 620.483863 120.775814 
L 621.201363 114.915349 
L 621.918863 110.226977 
L 622.636364 118.431628 
L 622.636364 118.431628 
" clip-path="url(#pf20b14cfc9)" style="fill: none; stroke: #1f77b4; stroke-width: 1.5; stroke-linecap: square"/>
   </g>
   <g id="patch_3">
    <path d="M 90 128.16 
L 90 17.28 
" style="fill: none; stroke: #000000; stroke-width: 0.8; stroke-linejoin: miter; stroke-linecap: square"/>
   </g>
   <g id="patch_4">
    <path d="M 648 128.16 
L 648 17.28 
" style="fill: none; stroke: #000000; stroke-width: 0.8; stroke-linejoin: miter; stroke-linecap: square"/>
   </g>
   <g id="patch_5">
    <path d="M 90 128.16 
L 648 128.16 
" style="fill: none; stroke: #000000; stroke-width: 0.8; stroke-linejoin: miter; stroke-linecap: square"/>
   </g>
   <g id="patch_6">
    <path d="M 90 17.28 
L 648 17.28 
" style="fill: none; stroke: #000000; stroke-width: 0.8; stroke-linejoin: miter; stroke-linecap: square"/>
   </g>
   <g id="legend_1">
    <g id="patch_7">
     <path d="M 97 39.958125 
L 264.190625 39.958125 
Q 266.190625 39.958125 266.190625 37.958125 
L 266.190625 24.28 
Q 266.190625 22.28 264.190625 22.28 
L 97 22.28 
Q 95 22.28 95 24.28 
L 95 37.958125 
Q 95 39.958125 97 39.958125 
z
" style="fill: #ffffff; opacity: 0.8; stroke: #cccccc; stroke-linejoin: miter"/>
    </g>
    <g id="line2d_15">
     <path d="M 99 30.378437 
L 109 30.378437 
L 119 30.378437 
" style="fill: none; stroke: #1f77b4; stroke-width: 1.5; stroke-linecap: square"/>
    </g>
    <g id="text_15">
     <!-- Number of PyPI Downloads -->
     <g transform="translate(127 33.878437)scale(0.1 -0.1)">
      <defs>
       <path id="DejaVuSans-4e" d="M 628 4666 
L 1478 4666 
L 3547 763 
L 3547 4666 
L 4159 4666 
L 4159 0 
L 3309 0 
L 1241 3903 
L 1241 0 
L 628 0 
L 628 4666 
z
" transform="scale(0.015625)"/>
       <path id="DejaVuSans-75" d="M 544 1381 
L 544 3500 
L 1119 3500 
L 1119 1403 
Q 1119 906 1312 657 
Q 1506 409 1894 409 
Q 2359 409 2629 706 
Q 2900 1003 2900 1516 
L 2900 3500 
L 3475 3500 
L 3475 0 
L 2900 0 
L 2900 538 
Q 2691 219 2414 64 
Q 2138 -91 1772 -91 
Q 1169 -91 856 284 
Q 544 659 544 1381 
z
M 1991 3584 
L 1991 3584 
z
" transform="scale(0.015625)"/>
       <path id="DejaVuSans-6d" d="M 3328 2828 
Q 3544 3216 3844 3400 
Q 4144 3584 4550 3584 
Q 5097 3584 5394 3201 
Q 5691 2819 5691 2113 
L 5691 0 
L 5113 0 
L 5113 2094 
Q 5113 2597 4934 2840 
Q 4756 3084 4391 3084 
Q 3944 3084 3684 2787 
Q 3425 2491 3425 1978 
L 3425 0 
L 2847 0 
L 2847 2094 
Q 2847 2600 2669 2842 
Q 2491 3084 2119 3084 
Q 1678 3084 1418 2786 
Q 1159 2488 1159 1978 
L 1159 0 
L 581 0 
L 581 3500 
L 1159 3500 
L 1159 2956 
Q 1356 3278 1631 3431 
Q 1906 3584 2284 3584 
Q 2666 3584 2933 3390 
Q 3200 3197 3328 2828 
z
" transform="scale(0.015625)"/>
       <path id="DejaVuSans-62" d="M 3116 1747 
Q 3116 2381 2855 2742 
Q 2594 3103 2138 3103 
Q 1681 3103 1420 2742 
Q 1159 2381 1159 1747 
Q 1159 1113 1420 752 
Q 1681 391 2138 391 
Q 2594 391 2855 752 
Q 3116 1113 3116 1747 
z
M 1159 2969 
Q 1341 3281 1617 3432 
Q 1894 3584 2278 3584 
Q 2916 3584 3314 3078 
Q 3713 2572 3713 1747 
Q 3713 922 3314 415 
Q 2916 -91 2278 -91 
Q 1894 -91 1617 61 
Q 1341 213 1159 525 
L 1159 0 
L 581 0 
L 581 4863 
L 1159 4863 
L 1159 2969 
z
" transform="scale(0.015625)"/>
       <path id="DejaVuSans-72" d="M 2631 2963 
Q 2534 3019 2420 3045 
Q 2306 3072 2169 3072 
Q 1681 3072 1420 2755 
Q 1159 2438 1159 1844 
L 1159 0 
L 581 0 
L 581 3500 
L 1159 3500 
L 1159 2956 
Q 1341 3275 1631 3429 
Q 1922 3584 2338 3584 
Q 2397 3584 2469 3576 
Q 2541 3569 2628 3553 
L 2631 2963 
z
" transform="scale(0.015625)"/>
       <path id="DejaVuSans-20" transform="scale(0.015625)"/>
       <path id="DejaVuSans-6f" d="M 1959 3097 
Q 1497 3097 1228 2736 
Q 959 2375 959 1747 
Q 959 1119 1226 758 
Q 1494 397 1959 397 
Q 2419 397 2687 759 
Q 2956 1122 2956 1747 
Q 2956 2369 2687 2733 
Q 2419 3097 1959 3097 
z
M 1959 3584 
Q 2709 3584 3137 3096 
Q 3566 2609 3566 1747 
Q 3566 888 3137 398 
Q 2709 -91 1959 -91 
Q 1206 -91 779 398 
Q 353 888 353 1747 
Q 353 2609 779 3096 
Q 1206 3584 1959 3584 
z
" transform="scale(0.015625)"/>
       <path id="DejaVuSans-66" d="M 2375 4863 
L 2375 4384 
L 1825 4384 
Q 1516 4384 1395 4259 
Q 1275 4134 1275 3809 
L 1275 3500 
L 2222 3500 
L 2222 3053 
L 1275 3053 
L 1275 0 
L 697 0 
L 697 3053 
L 147 3053 
L 147 3500 
L 697 3500 
L 697 3744 
Q 697 4328 969 4595 
Q 1241 4863 1831 4863 
L 2375 4863 
z
" transform="scale(0.015625)"/>
       <path id="DejaVuSans-50" d="M 1259 4147 
L 1259 2394 
L 2053 2394 
Q 2494 2394 2734 2622 
Q 2975 2850 2975 3272 
Q 2975 3691 2734 3919 
Q 2494 4147 2053 4147 
L 1259 4147 
z
M 628 4666 
L 2053 4666 
Q 2838 4666 3239 4311 
Q 3641 3956 3641 3272 
Q 3641 2581 3239 2228 
Q 2838 1875 2053 1875 
L 1259 1875 
L 1259 0 
L 628 0 
L 628 4666 
z
" transform="scale(0.015625)"/>
       <path id="DejaVuSans-79" d="M 2059 -325 
Q 1816 -950 1584 -1140 
Q 1353 -1331 966 -1331 
L 506 -1331 
L 506 -850 
L 844 -850 
Q 1081 -850 1212 -737 
Q 1344 -625 1503 -206 
L 1606 56 
L 191 3500 
L 800 3500 
L 1894 763 
L 2988 3500 
L 3597 3500 
L 2059 -325 
z
" transform="scale(0.015625)"/>
       <path id="DejaVuSans-49" d="M 628 4666 
L 1259 4666 
L 1259 0 
L 628 0 
L 628 4666 
z
" transform="scale(0.015625)"/>
       <path id="DejaVuSans-44" d="M 1259 4147 
L 1259 519 
L 2022 519 
Q 2988 519 3436 956 
Q 3884 1394 3884 2338 
Q 3884 3275 3436 3711 
Q 2988 4147 2022 4147 
L 1259 4147 
z
M 628 4666 
L 1925 4666 
Q 3281 4666 3915 4102 
Q 4550 3538 4550 2338 
Q 4550 1131 3912 565 
Q 3275 0 1925 0 
L 628 0 
L 628 4666 
z
" transform="scale(0.015625)"/>
       <path id="DejaVuSans-77" d="M 269 3500 
L 844 3500 
L 1563 769 
L 2278 3500 
L 2956 3500 
L 3675 769 
L 4391 3500 
L 4966 3500 
L 4050 0 
L 3372 0 
L 2619 2869 
L 1863 0 
L 1184 0 
L 269 3500 
z
" transform="scale(0.015625)"/>
       <path id="DejaVuSans-6e" d="M 3513 2113 
L 3513 0 
L 2938 0 
L 2938 2094 
Q 2938 2591 2744 2837 
Q 2550 3084 2163 3084 
Q 1697 3084 1428 2787 
Q 1159 2491 1159 1978 
L 1159 0 
L 581 0 
L 581 3500 
L 1159 3500 
L 1159 2956 
Q 1366 3272 1645 3428 
Q 1925 3584 2291 3584 
Q 2894 3584 3203 3211 
Q 3513 2838 3513 2113 
z
" transform="scale(0.015625)"/>
       <path id="DejaVuSans-6c" d="M 603 4863 
L 1178 4863 
L 1178 0 
L 603 0 
L 603 4863 
z
" transform="scale(0.015625)"/>
       <path id="DejaVuSans-73" d="M 2834 3397 
L 2834 2853 
Q 2591 2978 2328 3040 
Q 2066 3103 1784 3103 
Q 1356 3103 1142 2972 
Q 928 2841 928 2578 
Q 928 2378 1081 2264 
Q 1234 2150 1697 2047 
L 1894 2003 
Q 2506 1872 2764 1633 
Q 3022 1394 3022 966 
Q 3022 478 2636 193 
Q 2250 -91 1575 -91 
Q 1294 -91 989 -36 
Q 684 19 347 128 
L 347 722 
Q 666 556 975 473 
Q 1284 391 1588 391 
Q 1994 391 2212 530 
Q 2431 669 2431 922 
Q 2431 1156 2273 1281 
Q 2116 1406 1581 1522 
L 1381 1569 
Q 847 1681 609 1914 
Q 372 2147 372 2553 
Q 372 3047 722 3315 
Q 1072 3584 1716 3584 
Q 2034 3584 2315 3537 
Q 2597 3491 2834 3397 
z
" transform="scale(0.015625)"/>
      </defs>
      <use xlink:href="#DejaVuSans-4e"/>
      <use xlink:href="#DejaVuSans-75" x="74.804688"/>
      <use xlink:href="#DejaVuSans-6d" x="138.183594"/>
      <use xlink:href="#DejaVuSans-62" x="235.595703"/>
      <use xlink:href="#DejaVuSans-65" x="299.072266"/>
      <use xlink:href="#DejaVuSans-72" x="360.595703"/>
      <use xlink:href="#DejaVuSans-20" x="401.708984"/>
      <use xlink:href="#DejaVuSans-6f" x="433.496094"/>
      <use xlink:href="#DejaVuSans-66" x="494.677734"/>
      <use xlink:href="#DejaVuSans-20" x="529.882812"/>
      <use xlink:href="#DejaVuSans-50" x="561.669922"/>
      <use xlink:href="#DejaVuSans-79" x="621.972656"/>
      <use xlink:href="#DejaVuSans-50" x="681.152344"/>
      <use xlink:href="#DejaVuSans-49" x="741.455078"/>
      <use xlink:href="#DejaVuSans-20" x="770.947266"/>
      <use xlink:href="#DejaVuSans-44" x="802.734375"/>
      <use xlink:href="#DejaVuSans-6f" x="879.736328"/>
      <use xlink:href="#DejaVuSans-77" x="940.917969"/>
      <use xlink:href="#DejaVuSans-6e" x="1022.705078"/>
      <use xlink:href="#DejaVuSans-6c" x="1086.083984"/>
      <use xlink:href="#DejaVuSans-6f" x="1113.867188"/>
      <use xlink:href="#DejaVuSans-61" x="1175.048828"/>
      <use xlink:href="#DejaVuSans-64" x="1236.328125"/>
      <use xlink:href="#DejaVuSans-73" x="1299.804688"/>
     </g>
    </g>
   </g>
  </g>
 </g>
 <defs>
  <clipPath id="pf20b14cfc9">
   <rect x="90" y="17.28" width="558" height="110.88"/>
  </clipPath>
 </defs>
</svg>
