<?xml version="1.0" encoding="utf-8" standalone="no"?>
<!DOCTYPE svg PUBLIC "-//W3C//DTD SVG 1.1//EN"
  "http://www.w3.org/Graphics/SVG/1.1/DTD/svg11.dtd">
<svg xmlns:xlink="http://www.w3.org/1999/xlink" width="720pt" height="144pt" viewBox="0 0 720 144" xmlns="http://www.w3.org/2000/svg" version="1.1">
 <metadata>
  <rdf:RDF xmlns:dc="http://purl.org/dc/elements/1.1/" xmlns:cc="http://creativecommons.org/ns#" xmlns:rdf="http://www.w3.org/1999/02/22-rdf-syntax-ns#">
   <cc:Work>
    <dc:type rdf:resource="http://purl.org/dc/dcmitype/StillImage"/>
    <dc:date>2024-01-01T20:56:49.170121</dc:date>
    <dc:format>image/svg+xml</dc:format>
    <dc:creator>
     <cc:Agent>
      <dc:title>Matplotlib v3.8.2, https://matplotlib.org/</dc:title>
     </cc:Agent>
    </dc:creator>
   </cc:Work>
  </rdf:RDF>
 </metadata>
 <defs>
  <style type="text/css">*{stroke-linejoin: round; stroke-linecap: butt}</style>
 </defs>
 <g id="figure_1">
  <g id="patch_1">
   <path d="M 0 144 
L 720 144 
L 720 0 
L 0 0 
z
" style="fill: #ffffff"/>
  </g>
  <g id="axes_1">
   <g id="patch_2">
    <path d="M 90 128.16 
L 648 128.16 
L 648 17.28 
L 90 17.28 
z
" style="fill: #ffffff"/>
   </g>
   <g id="matplotlib.axis_1">
    <g id="xtick_1">
     <g id="line2d_1">
      <defs>
       <path id="m18c2266562" d="M 0 0 
L 0 3.5 
" style="stroke: #000000; stroke-width: 0.8"/>
      </defs>
      <g>
       <use xlink:href="#m18c2266562" x="115.363636" y="128.16" style="stroke: #000000; stroke-width: 0.8"/>
      </g>
     </g>
     <g id="text_1">
      <!-- 2020-06-18 -->
      <g transform="translate(86.305824 142.758438) scale(0.1 -0.1)">
       <defs>
        <path id="DejaVuSans-32" d="M 1228 531 
L 3431 531 
L 3431 0 
L 469 0 
L 469 531 
Q 828 903 1448 1529 
Q 2069 2156 2228 2338 
Q 2531 2678 2651 2914 
Q 2772 3150 2772 3378 
Q 2772 3750 2511 3984 
Q 2250 4219 1831 4219 
Q 1534 4219 1204 4116 
Q 875 4013 500 3803 
L 500 4441 
Q 881 4594 1212 4672 
Q 1544 4750 1819 4750 
Q 2544 4750 2975 4387 
Q 3406 4025 3406 3419 
Q 3406 3131 3298 2873 
Q 3191 2616 2906 2266 
Q 2828 2175 2409 1742 
Q 1991 1309 1228 531 
z
" transform="scale(0.015625)"/>
        <path id="DejaVuSans-30" d="M 2034 4250 
Q 1547 4250 1301 3770 
Q 1056 3291 1056 2328 
Q 1056 1369 1301 889 
Q 1547 409 2034 409 
Q 2525 409 2770 889 
Q 3016 1369 3016 2328 
Q 3016 3291 2770 3770 
Q 2525 4250 2034 4250 
z
M 2034 4750 
Q 2819 4750 3233 4129 
Q 3647 3509 3647 2328 
Q 3647 1150 3233 529 
Q 2819 -91 2034 -91 
Q 1250 -91 836 529 
Q 422 1150 422 2328 
Q 422 3509 836 4129 
Q 1250 4750 2034 4750 
z
" transform="scale(0.015625)"/>
        <path id="DejaVuSans-2d" d="M 313 2009 
L 1997 2009 
L 1997 1497 
L 313 1497 
L 313 2009 
z
" transform="scale(0.015625)"/>
        <path id="DejaVuSans-36" d="M 2113 2584 
Q 1688 2584 1439 2293 
Q 1191 2003 1191 1497 
Q 1191 994 1439 701 
Q 1688 409 2113 409 
Q 2538 409 2786 701 
Q 3034 994 3034 1497 
Q 3034 2003 2786 2293 
Q 2538 2584 2113 2584 
z
M 3366 4563 
L 3366 3988 
Q 3128 4100 2886 4159 
Q 2644 4219 2406 4219 
Q 1781 4219 1451 3797 
Q 1122 3375 1075 2522 
Q 1259 2794 1537 2939 
Q 1816 3084 2150 3084 
Q 2853 3084 3261 2657 
Q 3669 2231 3669 1497 
Q 3669 778 3244 343 
Q 2819 -91 2113 -91 
Q 1303 -91 875 529 
Q 447 1150 447 2328 
Q 447 3434 972 4092 
Q 1497 4750 2381 4750 
Q 2619 4750 2861 4703 
Q 3103 4656 3366 4563 
z
" transform="scale(0.015625)"/>
        <path id="DejaVuSans-31" d="M 794 531 
L 1825 531 
L 1825 4091 
L 703 3866 
L 703 4441 
L 1819 4666 
L 2450 4666 
L 2450 531 
L 3481 531 
L 3481 0 
L 794 0 
L 794 531 
z
" transform="scale(0.015625)"/>
        <path id="DejaVuSans-38" d="M 2034 2216 
Q 1584 2216 1326 1975 
Q 1069 1734 1069 1313 
Q 1069 891 1326 650 
Q 1584 409 2034 409 
Q 2484 409 2743 651 
Q 3003 894 3003 1313 
Q 3003 1734 2745 1975 
Q 2488 2216 2034 2216 
z
M 1403 2484 
Q 997 2584 770 2862 
Q 544 3141 544 3541 
Q 544 4100 942 4425 
Q 1341 4750 2034 4750 
Q 2731 4750 3128 4425 
Q 3525 4100 3525 3541 
Q 3525 3141 3298 2862 
Q 3072 2584 2669 2484 
Q 3125 2378 3379 2068 
Q 3634 1759 3634 1313 
Q 3634 634 3220 271 
Q 2806 -91 2034 -91 
Q 1263 -91 848 271 
Q 434 634 434 1313 
Q 434 1759 690 2068 
Q 947 2378 1403 2484 
z
M 1172 3481 
Q 1172 3119 1398 2916 
Q 1625 2713 2034 2713 
Q 2441 2713 2670 2916 
Q 2900 3119 2900 3481 
Q 2900 3844 2670 4047 
Q 2441 4250 2034 4250 
Q 1625 4250 1398 4047 
Q 1172 3844 1172 3481 
z
" transform="scale(0.015625)"/>
       </defs>
       <use xlink:href="#DejaVuSans-32"/>
       <use xlink:href="#DejaVuSans-30" x="63.623047"/>
       <use xlink:href="#DejaVuSans-32" x="127.246094"/>
       <use xlink:href="#DejaVuSans-30" x="190.869141"/>
       <use xlink:href="#DejaVuSans-2d" x="254.492188"/>
       <use xlink:href="#DejaVuSans-30" x="290.576172"/>
       <use xlink:href="#DejaVuSans-36" x="354.199219"/>
       <use xlink:href="#DejaVuSans-2d" x="417.822266"/>
       <use xlink:href="#DejaVuSans-31" x="453.90625"/>
       <use xlink:href="#DejaVuSans-38" x="517.529297"/>
      </g>
     </g>
    </g>
    <g id="xtick_2">
     <g id="line2d_2">
      <g>
       <use xlink:href="#m18c2266562" x="202.449083" y="128.16" style="stroke: #000000; stroke-width: 0.8"/>
      </g>
     </g>
     <g id="text_2">
      <!-- 2021-03-13 -->
      <g transform="translate(173.391271 142.758438) scale(0.1 -0.1)">
       <defs>
        <path id="DejaVuSans-33" d="M 2597 2516 
Q 3050 2419 3304 2112 
Q 3559 1806 3559 1356 
Q 3559 666 3084 287 
Q 2609 -91 1734 -91 
Q 1441 -91 1130 -33 
Q 819 25 488 141 
L 488 750 
Q 750 597 1062 519 
Q 1375 441 1716 441 
Q 2309 441 2620 675 
Q 2931 909 2931 1356 
Q 2931 1769 2642 2001 
Q 2353 2234 1838 2234 
L 1294 2234 
L 1294 2753 
L 1863 2753 
Q 2328 2753 2575 2939 
Q 2822 3125 2822 3475 
Q 2822 3834 2567 4026 
Q 2313 4219 1838 4219 
Q 1578 4219 1281 4162 
Q 984 4106 628 3988 
L 628 4550 
Q 988 4650 1302 4700 
Q 1616 4750 1894 4750 
Q 2613 4750 3031 4423 
Q 3450 4097 3450 3541 
Q 3450 3153 3228 2886 
Q 3006 2619 2597 2516 
z
" transform="scale(0.015625)"/>
       </defs>
       <use xlink:href="#DejaVuSans-32"/>
       <use xlink:href="#DejaVuSans-30" x="63.623047"/>
       <use xlink:href="#DejaVuSans-32" x="127.246094"/>
       <use xlink:href="#DejaVuSans-31" x="190.869141"/>
       <use xlink:href="#DejaVuSans-2d" x="254.492188"/>
       <use xlink:href="#DejaVuSans-30" x="290.576172"/>
       <use xlink:href="#DejaVuSans-33" x="354.199219"/>
       <use xlink:href="#DejaVuSans-2d" x="417.822266"/>
       <use xlink:href="#DejaVuSans-31" x="453.90625"/>
       <use xlink:href="#DejaVuSans-33" x="517.529297"/>
      </g>
     </g>
    </g>
    <g id="xtick_3">
     <g id="line2d_3">
      <g>
       <use xlink:href="#m18c2266562" x="289.53453" y="128.16" style="stroke: #000000; stroke-width: 0.8"/>
      </g>
     </g>
     <g id="text_3">
      <!-- 2021-10-16 -->
      <g transform="translate(260.476717 142.758438) scale(0.1 -0.1)">
       <use xlink:href="#DejaVuSans-32"/>
       <use xlink:href="#DejaVuSans-30" x="63.623047"/>
       <use xlink:href="#DejaVuSans-32" x="127.246094"/>
       <use xlink:href="#DejaVuSans-31" x="190.869141"/>
       <use xlink:href="#DejaVuSans-2d" x="254.492188"/>
       <use xlink:href="#DejaVuSans-31" x="290.576172"/>
       <use xlink:href="#DejaVuSans-30" x="354.199219"/>
       <use xlink:href="#DejaVuSans-2d" x="417.822266"/>
       <use xlink:href="#DejaVuSans-31" x="453.90625"/>
       <use xlink:href="#DejaVuSans-36" x="517.529297"/>
      </g>
     </g>
    </g>
    <g id="xtick_4">
     <g id="line2d_4">
      <g>
       <use xlink:href="#m18c2266562" x="376.619977" y="128.16" style="stroke: #000000; stroke-width: 0.8"/>
      </g>
     </g>
     <g id="text_4">
      <!-- 2022-05-12 -->
      <g transform="translate(347.562164 142.758438) scale(0.1 -0.1)">
       <defs>
        <path id="DejaVuSans-35" d="M 691 4666 
L 3169 4666 
L 3169 4134 
L 1269 4134 
L 1269 2991 
Q 1406 3038 1543 3061 
Q 1681 3084 1819 3084 
Q 2600 3084 3056 2656 
Q 3513 2228 3513 1497 
Q 3513 744 3044 326 
Q 2575 -91 1722 -91 
Q 1428 -91 1123 -41 
Q 819 9 494 109 
L 494 744 
Q 775 591 1075 516 
Q 1375 441 1709 441 
Q 2250 441 2565 725 
Q 2881 1009 2881 1497 
Q 2881 1984 2565 2268 
Q 2250 2553 1709 2553 
Q 1456 2553 1204 2497 
Q 953 2441 691 2322 
L 691 4666 
z
" transform="scale(0.015625)"/>
       </defs>
       <use xlink:href="#DejaVuSans-32"/>
       <use xlink:href="#DejaVuSans-30" x="63.623047"/>
       <use xlink:href="#DejaVuSans-32" x="127.246094"/>
       <use xlink:href="#DejaVuSans-32" x="190.869141"/>
       <use xlink:href="#DejaVuSans-2d" x="254.492188"/>
       <use xlink:href="#DejaVuSans-30" x="290.576172"/>
       <use xlink:href="#DejaVuSans-35" x="354.199219"/>
       <use xlink:href="#DejaVuSans-2d" x="417.822266"/>
       <use xlink:href="#DejaVuSans-31" x="453.90625"/>
       <use xlink:href="#DejaVuSans-32" x="517.529297"/>
      </g>
     </g>
    </g>
    <g id="xtick_5">
     <g id="line2d_5">
      <g>
       <use xlink:href="#m18c2266562" x="463.705423" y="128.16" style="stroke: #000000; stroke-width: 0.8"/>
      </g>
     </g>
     <g id="text_5">
      <!-- 2022-12-07 -->
      <g transform="translate(434.647611 142.758438) scale(0.1 -0.1)">
       <defs>
        <path id="DejaVuSans-37" d="M 525 4666 
L 3525 4666 
L 3525 4397 
L 1831 0 
L 1172 0 
L 2766 4134 
L 525 4134 
L 525 4666 
z
" transform="scale(0.015625)"/>
       </defs>
       <use xlink:href="#DejaVuSans-32"/>
       <use xlink:href="#DejaVuSans-30" x="63.623047"/>
       <use xlink:href="#DejaVuSans-32" x="127.246094"/>
       <use xlink:href="#DejaVuSans-32" x="190.869141"/>
       <use xlink:href="#DejaVuSans-2d" x="254.492188"/>
       <use xlink:href="#DejaVuSans-31" x="290.576172"/>
       <use xlink:href="#DejaVuSans-32" x="354.199219"/>
       <use xlink:href="#DejaVuSans-2d" x="417.822266"/>
       <use xlink:href="#DejaVuSans-30" x="453.90625"/>
       <use xlink:href="#DejaVuSans-37" x="517.529297"/>
      </g>
     </g>
    </g>
    <g id="xtick_6">
     <g id="line2d_6">
      <g>
       <use xlink:href="#m18c2266562" x="550.79087" y="128.16" style="stroke: #000000; stroke-width: 0.8"/>
      </g>
     </g>
     <g id="text_6">
      <!-- 2023-07-11 -->
      <g transform="translate(521.733058 142.758438) scale(0.1 -0.1)">
       <use xlink:href="#DejaVuSans-32"/>
       <use xlink:href="#DejaVuSans-30" x="63.623047"/>
       <use xlink:href="#DejaVuSans-32" x="127.246094"/>
       <use xlink:href="#DejaVuSans-33" x="190.869141"/>
       <use xlink:href="#DejaVuSans-2d" x="254.492188"/>
       <use xlink:href="#DejaVuSans-30" x="290.576172"/>
       <use xlink:href="#DejaVuSans-37" x="354.199219"/>
       <use xlink:href="#DejaVuSans-2d" x="417.822266"/>
       <use xlink:href="#DejaVuSans-31" x="453.90625"/>
       <use xlink:href="#DejaVuSans-31" x="517.529297"/>
      </g>
     </g>
    </g>
    <g id="xtick_7">
     <g id="line2d_7">
      <g>
       <use xlink:href="#m18c2266562" x="637.876317" y="128.16" style="stroke: #000000; stroke-width: 0.8"/>
      </g>
     </g>
    </g>
    <g id="text_7">
     <!-- date -->
     <g transform="translate(357.725 156.436563) scale(0.1 -0.1)">
      <defs>
       <path id="DejaVuSans-64" d="M 2906 2969 
L 2906 4863 
L 3481 4863 
L 3481 0 
L 2906 0 
L 2906 525 
Q 2725 213 2448 61 
Q 2172 -91 1784 -91 
Q 1150 -91 751 415 
Q 353 922 353 1747 
Q 353 2572 751 3078 
Q 1150 3584 1784 3584 
Q 2172 3584 2448 3432 
Q 2725 3281 2906 2969 
z
M 947 1747 
Q 947 1113 1208 752 
Q 1469 391 1925 391 
Q 2381 391 2643 752 
Q 2906 1113 2906 1747 
Q 2906 2381 2643 2742 
Q 2381 3103 1925 3103 
Q 1469 3103 1208 2742 
Q 947 2381 947 1747 
z
" transform="scale(0.015625)"/>
       <path id="DejaVuSans-61" d="M 2194 1759 
Q 1497 1759 1228 1600 
Q 959 1441 959 1056 
Q 959 750 1161 570 
Q 1363 391 1709 391 
Q 2188 391 2477 730 
Q 2766 1069 2766 1631 
L 2766 1759 
L 2194 1759 
z
M 3341 1997 
L 3341 0 
L 2766 0 
L 2766 531 
Q 2569 213 2275 61 
Q 1981 -91 1556 -91 
Q 1019 -91 701 211 
Q 384 513 384 1019 
Q 384 1609 779 1909 
Q 1175 2209 1959 2209 
L 2766 2209 
L 2766 2266 
Q 2766 2663 2505 2880 
Q 2244 3097 1772 3097 
Q 1472 3097 1187 3025 
Q 903 2953 641 2809 
L 641 3341 
Q 956 3463 1253 3523 
Q 1550 3584 1831 3584 
Q 2591 3584 2966 3190 
Q 3341 2797 3341 1997 
z
" transform="scale(0.015625)"/>
       <path id="DejaVuSans-74" d="M 1172 4494 
L 1172 3500 
L 2356 3500 
L 2356 3053 
L 1172 3053 
L 1172 1153 
Q 1172 725 1289 603 
Q 1406 481 1766 481 
L 2356 481 
L 2356 0 
L 1766 0 
Q 1100 0 847 248 
Q 594 497 594 1153 
L 594 3053 
L 172 3053 
L 172 3500 
L 594 3500 
L 594 4494 
L 1172 4494 
z
" transform="scale(0.015625)"/>
       <path id="DejaVuSans-65" d="M 3597 1894 
L 3597 1613 
L 953 1613 
Q 991 1019 1311 708 
Q 1631 397 2203 397 
Q 2534 397 2845 478 
Q 3156 559 3463 722 
L 3463 178 
Q 3153 47 2828 -22 
Q 2503 -91 2169 -91 
Q 1331 -91 842 396 
Q 353 884 353 1716 
Q 353 2575 817 3079 
Q 1281 3584 2069 3584 
Q 2775 3584 3186 3129 
Q 3597 2675 3597 1894 
z
M 3022 2063 
Q 3016 2534 2758 2815 
Q 2500 3097 2075 3097 
Q 1594 3097 1305 2825 
Q 1016 2553 972 2059 
L 3022 2063 
z
" transform="scale(0.015625)"/>
      </defs>
      <use xlink:href="#DejaVuSans-64"/>
      <use xlink:href="#DejaVuSans-61" x="63.476562"/>
      <use xlink:href="#DejaVuSans-74" x="124.755859"/>
      <use xlink:href="#DejaVuSans-65" x="163.964844"/>
     </g>
    </g>
   </g>
   <g id="matplotlib.axis_2">
    <g id="ytick_1">
     <g id="line2d_8">
      <defs>
       <path id="mdefda36649" d="M 0 0 
L -3.5 0 
" style="stroke: #000000; stroke-width: 0.8"/>
      </defs>
      <g>
       <use xlink:href="#mdefda36649" x="90" y="123.895385" style="stroke: #000000; stroke-width: 0.8"/>
      </g>
     </g>
     <g id="text_8">
      <!-- 0 -->
      <g transform="translate(76.6375 127.694603) scale(0.1 -0.1)">
       <use xlink:href="#DejaVuSans-30"/>
      </g>
     </g>
    </g>
    <g id="ytick_2">
     <g id="line2d_9">
      <g>
       <use xlink:href="#mdefda36649" x="90" y="85.126154" style="stroke: #000000; stroke-width: 0.8"/>
      </g>
     </g>
     <g id="text_9">
      <!-- 50 -->
      <g transform="translate(70.275 88.925373) scale(0.1 -0.1)">
       <use xlink:href="#DejaVuSans-35"/>
       <use xlink:href="#DejaVuSans-30" x="63.623047"/>
      </g>
     </g>
    </g>
    <g id="ytick_3">
     <g id="line2d_10">
      <g>
       <use xlink:href="#mdefda36649" x="90" y="46.356923" style="stroke: #000000; stroke-width: 0.8"/>
      </g>
     </g>
     <g id="text_10">
      <!-- 100 -->
      <g transform="translate(63.9125 50.156142) scale(0.1 -0.1)">
       <use xlink:href="#DejaVuSans-31"/>
       <use xlink:href="#DejaVuSans-30" x="63.623047"/>
       <use xlink:href="#DejaVuSans-30" x="127.246094"/>
      </g>
     </g>
    </g>
   </g>
   <g id="line2d_11">
    <path d="M 115.363636 106.836923 
L 116.234491 120.793846 
L 117.540773 123.12 
L 117.9762 121.569231 
L 118.411627 117.692308 
L 118.847054 122.344615 
L 119.282481 121.569231 
L 119.717909 122.344615 
L 120.153336 105.286154 
L 120.588763 118.467692 
L 121.02419 121.569231 
L 121.459618 117.692308 
L 121.895045 122.344615 
L 122.330472 119.243077 
L 122.765899 118.467692 
L 123.201327 123.12 
L 123.636754 121.569231 
L 124.072181 116.141538 
L 124.507608 117.692308 
L 124.943036 120.793846 
L 125.378463 121.569231 
L 125.81389 121.569231 
L 126.684744 123.12 
L 127.120172 116.916923 
L 127.555599 84.350769 
L 127.991026 119.243077 
L 128.426453 121.569231 
L 128.861881 121.569231 
L 129.297308 120.018462 
L 129.732735 122.344615 
L 130.168162 120.793846 
L 130.60359 123.12 
L 131.039017 121.569231 
L 131.474444 121.569231 
L 131.909871 123.12 
L 132.345298 122.344615 
L 132.780726 120.793846 
L 133.216153 120.793846 
L 133.65158 119.243077 
L 134.087007 123.12 
L 134.522435 123.12 
L 134.957862 122.344615 
L 135.393289 122.344615 
L 135.828716 123.12 
L 136.264144 123.12 
L 136.699571 111.489231 
L 137.134998 120.018462 
L 137.570425 118.467692 
L 138.005853 122.344615 
L 138.44128 120.018462 
L 138.876707 118.467692 
L 139.312134 120.018462 
L 139.747561 123.12 
L 140.182989 122.344615 
L 140.618416 120.018462 
L 141.053843 123.12 
L 141.924698 121.569231 
L 142.360125 118.467692 
L 143.230979 123.12 
L 143.666407 120.793846 
L 144.101834 120.018462 
L 144.537261 123.12 
L 144.972688 120.793846 
L 145.408115 123.12 
L 145.843543 122.344615 
L 146.27897 120.018462 
L 146.714397 123.12 
L 147.149824 122.344615 
L 147.585252 122.344615 
L 148.020679 123.12 
L 148.456106 120.018462 
L 148.891533 123.12 
L 149.326961 121.569231 
L 150.197815 121.569231 
L 150.633242 120.793846 
L 151.06867 119.243077 
L 151.504097 121.569231 
L 151.939524 119.243077 
L 152.374951 123.12 
L 153.245806 121.569231 
L 153.681233 120.018462 
L 154.11666 122.344615 
L 154.552087 123.12 
L 154.987515 122.344615 
L 155.422942 120.793846 
L 155.858369 121.569231 
L 156.293796 123.12 
L 156.729224 113.04 
L 157.164651 123.12 
L 157.600078 121.569231 
L 158.035505 120.793846 
L 158.470933 123.12 
L 158.90636 120.793846 
L 159.341787 117.692308 
L 159.777214 121.569231 
L 160.212641 123.12 
L 160.648069 123.12 
L 161.083496 122.344615 
L 161.518923 123.12 
L 161.95435 123.12 
L 162.389778 122.344615 
L 162.825205 122.344615 
L 163.260632 121.569231 
L 163.696059 122.344615 
L 165.002341 120.018462 
L 165.437768 121.569231 
L 165.873195 121.569231 
L 166.74405 120.018462 
L 167.179477 122.344615 
L 167.614904 123.12 
L 168.050332 118.467692 
L 168.485759 122.344615 
L 168.921186 122.344615 
L 169.356613 117.692308 
L 169.792041 121.569231 
L 170.227468 121.569231 
L 170.662895 104.510769 
L 171.098322 120.018462 
L 171.53375 121.569231 
L 171.969177 118.467692 
L 172.404604 122.344615 
L 172.840031 119.243077 
L 173.275458 122.344615 
L 173.710886 117.692308 
L 174.146313 120.018462 
L 174.58174 123.12 
L 175.017167 122.344615 
L 175.452595 113.815385 
L 175.888022 120.018462 
L 176.323449 122.344615 
L 176.758876 123.12 
L 177.194304 123.12 
L 177.629731 117.692308 
L 178.065158 123.12 
L 178.500585 123.12 
L 178.936012 120.793846 
L 179.37144 123.12 
L 179.806867 123.12 
L 180.677721 120.018462 
L 181.113149 123.12 
L 181.548576 121.569231 
L 182.41943 123.12 
L 182.854858 120.018462 
L 183.290285 123.12 
L 183.725712 123.12 
L 184.161139 122.344615 
L 184.596567 123.12 
L 185.031994 123.12 
L 185.467421 120.018462 
L 186.338275 123.12 
L 187.20913 121.569231 
L 187.644557 121.569231 
L 188.079984 122.344615 
L 188.515412 120.793846 
L 188.950839 122.344615 
L 189.386266 123.12 
L 190.257121 123.12 
L 190.692548 120.018462 
L 191.127975 123.12 
L 191.563402 122.344615 
L 191.998829 123.12 
L 192.434257 120.018462 
L 192.869684 121.569231 
L 193.305111 122.344615 
L 193.740538 122.344615 
L 194.175966 120.793846 
L 194.611393 122.344615 
L 195.04682 121.569231 
L 195.482247 121.569231 
L 195.917675 122.344615 
L 196.353102 122.344615 
L 196.788529 123.12 
L 197.223956 118.467692 
L 197.659384 122.344615 
L 198.094811 122.344615 
L 198.530238 123.12 
L 198.965665 122.344615 
L 199.401092 123.12 
L 199.83652 123.12 
L 200.707374 121.569231 
L 201.142801 115.366154 
L 201.578229 100.633846 
L 202.013656 117.692308 
L 202.449083 123.12 
L 202.88451 122.344615 
L 203.319938 118.467692 
L 203.755365 120.018462 
L 204.190792 119.243077 
L 204.626219 113.04 
L 205.061647 123.12 
L 205.497074 122.344615 
L 205.932501 120.793846 
L 206.367928 118.467692 
L 206.803355 115.366154 
L 207.238783 106.061538 
L 207.67421 112.264615 
L 208.109637 122.344615 
L 208.545064 97.532308 
L 208.980492 111.489231 
L 209.415919 117.692308 
L 209.851346 113.04 
L 210.286773 120.018462 
L 210.722201 113.04 
L 211.157628 113.815385 
L 211.593055 112.264615 
L 212.028482 106.061538 
L 212.463909 121.569231 
L 212.899337 118.467692 
L 213.334764 121.569231 
L 213.770191 123.12 
L 214.205618 120.018462 
L 214.641046 123.12 
L 215.076473 121.569231 
L 215.5119 123.12 
L 215.947327 122.344615 
L 216.382755 113.04 
L 216.818182 121.569231 
L 217.253609 119.243077 
L 217.689036 120.793846 
L 218.124464 120.018462 
L 218.559891 123.12 
L 218.995318 118.467692 
L 219.430745 120.018462 
L 219.866172 122.344615 
L 220.3016 119.243077 
L 220.737027 123.12 
L 221.172454 121.569231 
L 221.607881 123.12 
L 222.043309 120.793846 
L 222.478736 122.344615 
L 222.914163 120.793846 
L 223.34959 120.018462 
L 223.785018 122.344615 
L 224.655872 122.344615 
L 225.091299 120.793846 
L 225.526726 120.018462 
L 225.962154 106.836923 
L 226.397581 108.387692 
L 226.833008 121.569231 
L 227.268435 122.344615 
L 227.703863 119.243077 
L 228.13929 120.018462 
L 228.574717 118.467692 
L 229.010144 122.344615 
L 229.445572 123.12 
L 229.880999 119.243077 
L 230.316426 118.467692 
L 230.751853 116.141538 
L 231.187281 122.344615 
L 231.622708 120.018462 
L 232.058135 122.344615 
L 232.493562 122.344615 
L 232.928989 123.12 
L 233.799844 120.018462 
L 234.670698 123.12 
L 235.106126 121.569231 
L 235.541553 122.344615 
L 235.97698 118.467692 
L 236.412407 116.916923 
L 236.847835 118.467692 
L 237.283262 119.243077 
L 237.718689 117.692308 
L 238.154116 111.489231 
L 238.589544 119.243077 
L 239.024971 120.793846 
L 239.460398 120.018462 
L 239.895825 117.692308 
L 240.331252 112.264615 
L 240.76668 122.344615 
L 241.202107 121.569231 
L 241.637534 123.12 
L 242.072961 116.916923 
L 242.508389 117.692308 
L 242.943816 120.793846 
L 243.379243 116.141538 
L 243.81467 114.590769 
L 244.250098 122.344615 
L 244.685525 122.344615 
L 245.120952 116.141538 
L 245.556379 102.184615 
L 245.991806 113.04 
L 246.427234 119.243077 
L 246.862661 120.018462 
L 247.298088 120.018462 
L 248.168943 121.569231 
L 248.60437 119.243077 
L 249.039797 119.243077 
L 249.475224 122.344615 
L 249.910652 122.344615 
L 250.346079 121.569231 
L 250.781506 122.344615 
L 251.216933 117.692308 
L 251.652361 117.692308 
L 252.087788 119.243077 
L 252.523215 116.916923 
L 252.958642 111.489231 
L 253.394069 117.692308 
L 253.829497 117.692308 
L 254.264924 121.569231 
L 254.700351 121.569231 
L 255.135778 118.467692 
L 255.571206 123.12 
L 256.006633 109.938462 
L 256.44206 108.387692 
L 256.877487 119.243077 
L 257.312915 120.018462 
L 257.748342 113.04 
L 258.619196 121.569231 
L 259.054623 120.018462 
L 259.490051 123.12 
L 259.925478 116.916923 
L 260.360905 106.836923 
L 260.796332 122.344615 
L 261.23176 121.569231 
L 262.102614 123.12 
L 262.538041 120.793846 
L 262.973469 108.387692 
L 263.408896 117.692308 
L 263.844323 122.344615 
L 264.27975 122.344615 
L 264.715178 111.489231 
L 265.150605 121.569231 
L 265.586032 122.344615 
L 266.021459 121.569231 
L 267.763168 121.569231 
L 268.198595 120.018462 
L 268.634023 123.12 
L 269.06945 122.344615 
L 269.504877 122.344615 
L 269.940304 123.12 
L 270.375732 123.12 
L 270.811159 122.344615 
L 271.246586 123.12 
L 271.682013 119.243077 
L 272.11744 122.344615 
L 272.552868 120.018462 
L 272.988295 120.018462 
L 273.423722 118.467692 
L 273.859149 120.018462 
L 274.294577 123.12 
L 274.730004 121.569231 
L 275.600858 121.569231 
L 276.036286 123.12 
L 276.471713 122.344615 
L 276.90714 122.344615 
L 277.342567 120.793846 
L 277.777995 122.344615 
L 279.084276 122.344615 
L 279.519703 95.981538 
L 279.955131 120.018462 
L 280.390558 123.12 
L 280.825985 122.344615 
L 281.261412 120.793846 
L 281.69684 123.12 
L 282.132267 120.018462 
L 282.567694 122.344615 
L 283.003121 119.243077 
L 283.438549 118.467692 
L 283.873976 118.467692 
L 284.309403 117.692308 
L 284.74483 108.387692 
L 285.180258 108.387692 
L 285.615685 118.467692 
L 286.051112 120.793846 
L 286.486539 122.344615 
L 286.921966 110.713846 
L 287.357394 120.018462 
L 287.792821 122.344615 
L 288.228248 122.344615 
L 288.663675 121.569231 
L 289.099103 121.569231 
L 289.53453 122.344615 
L 289.969957 122.344615 
L 290.405384 120.018462 
L 290.840812 123.12 
L 291.276239 122.344615 
L 291.711666 120.018462 
L 292.147093 120.018462 
L 292.58252 121.569231 
L 293.453375 108.387692 
L 293.888802 116.916923 
L 294.324229 116.141538 
L 294.759657 111.489231 
L 295.195084 114.590769 
L 296.065938 116.141538 
L 296.501366 115.366154 
L 296.936793 110.713846 
L 297.37222 113.04 
L 297.807647 120.018462 
L 298.243075 120.793846 
L 298.678502 119.243077 
L 299.113929 119.243077 
L 299.549356 116.916923 
L 299.984783 118.467692 
L 300.420211 113.815385 
L 300.855638 117.692308 
L 301.291065 118.467692 
L 301.726492 115.366154 
L 302.16192 108.387692 
L 302.597347 115.366154 
L 303.032774 118.467692 
L 303.903629 115.366154 
L 304.339056 118.467692 
L 304.774483 113.04 
L 305.20991 118.467692 
L 305.645337 115.366154 
L 306.516192 121.569231 
L 306.951619 113.04 
L 307.387046 121.569231 
L 307.822474 120.018462 
L 308.257901 120.793846 
L 308.693328 117.692308 
L 309.128755 116.916923 
L 309.564183 104.510769 
L 309.99961 102.184615 
L 310.435037 116.141538 
L 310.870464 95.206154 
L 311.305892 121.569231 
L 311.741319 120.018462 
L 312.176746 121.569231 
L 312.612173 101.409231 
L 313.0476 102.184615 
L 313.918455 122.344615 
L 314.353882 120.018462 
L 314.789309 113.815385 
L 315.224737 120.018462 
L 315.660164 120.018462 
L 316.095591 102.184615 
L 316.531018 115.366154 
L 316.966446 117.692308 
L 317.8373 119.243077 
L 318.272727 119.243077 
L 318.708155 117.692308 
L 320.014436 122.344615 
L 320.449863 116.916923 
L 320.885291 122.344615 
L 321.320718 122.344615 
L 322.191572 120.793846 
L 322.627 123.12 
L 323.062427 120.793846 
L 323.497854 119.243077 
L 323.933281 121.569231 
L 324.368709 122.344615 
L 324.804136 122.344615 
L 325.239563 116.916923 
L 325.67499 123.12 
L 326.110417 106.061538 
L 326.545845 121.569231 
L 326.981272 122.344615 
L 327.416699 120.018462 
L 327.852126 120.018462 
L 328.287554 120.793846 
L 328.722981 122.344615 
L 329.158408 117.692308 
L 329.593835 121.569231 
L 330.029263 120.018462 
L 330.46469 120.793846 
L 330.900117 105.286154 
L 331.335544 121.569231 
L 331.770972 119.243077 
L 332.206399 123.12 
L 332.641826 123.12 
L 333.077253 122.344615 
L 333.51268 116.916923 
L 333.948108 122.344615 
L 334.383535 117.692308 
L 334.818962 120.018462 
L 335.254389 123.12 
L 335.689817 120.018462 
L 336.560671 120.018462 
L 336.996098 117.692308 
L 337.431526 116.141538 
L 337.866953 120.793846 
L 338.30238 120.793846 
L 338.737807 120.018462 
L 339.173234 121.569231 
L 339.608662 121.569231 
L 340.044089 120.018462 
L 340.479516 117.692308 
L 340.914943 117.692308 
L 341.350371 119.243077 
L 341.785798 122.344615 
L 342.656652 122.344615 
L 343.09208 108.387692 
L 343.527507 75.821538 
L 343.962934 91.329231 
L 344.398361 119.243077 
L 344.833789 121.569231 
L 345.269216 120.018462 
L 346.14007 109.163077 
L 346.575497 118.467692 
L 347.010925 105.286154 
L 347.446352 88.227692 
L 347.881779 120.018462 
L 348.317206 87.452308 
L 348.752634 113.815385 
L 349.188061 122.344615 
L 349.623488 78.147692 
L 350.058915 102.96 
L 350.494343 111.489231 
L 350.92977 73.495385 
L 351.365197 119.243077 
L 351.800624 120.018462 
L 352.236052 102.184615 
L 352.671479 113.04 
L 353.106906 99.858462 
L 353.542333 113.04 
L 353.97776 120.793846 
L 354.413188 56.436923 
L 354.848615 119.243077 
L 355.284042 120.018462 
L 355.719469 120.018462 
L 356.154897 114.590769 
L 356.590324 118.467692 
L 357.025751 107.612308 
L 357.461178 118.467692 
L 357.896606 120.793846 
L 358.332033 102.96 
L 358.76746 102.96 
L 359.202887 114.590769 
L 359.638314 100.633846 
L 360.073742 119.243077 
L 360.509169 120.018462 
L 360.944596 102.96 
L 361.380023 123.12 
L 361.815451 121.569231 
L 362.250878 120.793846 
L 362.686305 119.243077 
L 363.121732 121.569231 
L 363.55716 120.793846 
L 363.992587 119.243077 
L 364.428014 115.366154 
L 364.863441 117.692308 
L 365.298869 110.713846 
L 366.169723 122.344615 
L 366.60515 123.12 
L 367.040577 116.916923 
L 367.911432 121.569231 
L 368.346859 123.12 
L 368.782286 119.243077 
L 369.217714 122.344615 
L 369.653141 119.243077 
L 370.088568 123.12 
L 370.959423 121.569231 
L 371.39485 123.12 
L 371.830277 123.12 
L 372.265704 121.569231 
L 373.136559 120.018462 
L 373.571986 120.018462 
L 374.007413 120.793846 
L 374.44284 120.793846 
L 374.878268 123.12 
L 375.313695 121.569231 
L 375.749122 96.756923 
L 376.184549 120.793846 
L 376.619977 122.344615 
L 377.490831 122.344615 
L 377.926258 118.467692 
L 378.361686 119.243077 
L 378.797113 110.713846 
L 379.23254 121.569231 
L 379.667967 117.692308 
L 380.103394 122.344615 
L 380.538822 123.12 
L 380.974249 120.793846 
L 381.409676 121.569231 
L 381.845103 117.692308 
L 382.280531 119.243077 
L 382.715958 121.569231 
L 383.151385 122.344615 
L 383.586812 121.569231 
L 384.02224 118.467692 
L 384.457667 120.018462 
L 384.893094 119.243077 
L 385.328521 120.793846 
L 385.763948 116.916923 
L 386.199376 118.467692 
L 386.634803 123.12 
L 387.07023 119.243077 
L 387.505657 120.018462 
L 387.941085 111.489231 
L 388.376512 122.344615 
L 388.811939 119.243077 
L 389.247366 119.243077 
L 389.682794 120.018462 
L 390.118221 112.264615 
L 390.553648 99.858462 
L 390.989075 120.018462 
L 391.424503 122.344615 
L 391.85993 117.692308 
L 392.295357 121.569231 
L 392.730784 120.793846 
L 393.166211 120.793846 
L 393.601639 123.12 
L 394.472493 121.569231 
L 394.90792 120.018462 
L 395.343348 122.344615 
L 395.778775 120.018462 
L 396.214202 122.344615 
L 396.649629 120.018462 
L 397.085057 123.12 
L 397.520484 120.018462 
L 397.955911 121.569231 
L 398.391338 121.569231 
L 398.826766 120.018462 
L 399.262193 123.12 
L 399.69762 120.018462 
L 400.133047 121.569231 
L 400.568474 116.916923 
L 401.003902 122.344615 
L 401.439329 116.141538 
L 401.874756 99.858462 
L 402.310183 122.344615 
L 402.745611 123.12 
L 403.181038 121.569231 
L 403.616465 117.692308 
L 404.051892 121.569231 
L 404.922747 123.12 
L 405.358174 116.916923 
L 405.793601 121.569231 
L 406.229028 120.793846 
L 407.099883 108.387692 
L 407.53531 118.467692 
L 407.970737 121.569231 
L 408.406165 121.569231 
L 408.841592 117.692308 
L 409.277019 91.329231 
L 409.712446 110.713846 
L 410.147874 117.692308 
L 410.583301 120.793846 
L 411.018728 120.793846 
L 411.454155 98.307692 
L 411.889583 120.018462 
L 412.32501 122.344615 
L 413.195864 122.344615 
L 413.631291 120.793846 
L 414.066719 120.018462 
L 414.502146 121.569231 
L 414.937573 119.243077 
L 415.373 120.793846 
L 415.808428 123.12 
L 416.243855 121.569231 
L 416.679282 118.467692 
L 417.114709 121.569231 
L 417.550137 117.692308 
L 417.985564 117.692308 
L 418.420991 119.243077 
L 418.856418 121.569231 
L 419.291845 107.612308 
L 419.727273 120.018462 
L 420.1627 110.713846 
L 420.598127 117.692308 
L 421.033554 119.243077 
L 421.468982 111.489231 
L 421.904409 121.569231 
L 422.775263 114.590769 
L 423.210691 120.018462 
L 423.646118 116.916923 
L 424.081545 110.713846 
L 424.516972 109.938462 
L 424.9524 119.243077 
L 425.387827 105.286154 
L 425.823254 111.489231 
L 426.258681 120.793846 
L 426.694108 109.938462 
L 427.129536 122.344615 
L 427.564963 121.569231 
L 428.00039 114.590769 
L 428.435817 116.916923 
L 428.871245 101.409231 
L 429.306672 114.590769 
L 429.742099 113.815385 
L 430.177526 113.815385 
L 430.612954 115.366154 
L 431.048381 119.243077 
L 431.483808 120.018462 
L 431.919235 117.692308 
L 432.354663 119.243077 
L 432.79009 113.04 
L 433.225517 120.018462 
L 433.660944 115.366154 
L 434.096371 109.163077 
L 434.531799 115.366154 
L 434.967226 116.141538 
L 435.402653 115.366154 
L 435.83808 122.344615 
L 436.273508 117.692308 
L 436.708935 121.569231 
L 437.144362 120.793846 
L 437.579789 113.815385 
L 438.015217 113.04 
L 438.450644 101.409231 
L 438.886071 113.04 
L 439.321498 110.713846 
L 439.756925 118.467692 
L 440.192353 120.018462 
L 440.62778 119.243077 
L 441.063207 119.243077 
L 441.498634 122.344615 
L 441.934062 119.243077 
L 442.369489 109.163077 
L 442.804916 119.243077 
L 443.675771 119.243077 
L 444.111198 122.344615 
L 444.546625 123.12 
L 444.982052 122.344615 
L 445.41748 118.467692 
L 445.852907 106.836923 
L 446.288334 120.018462 
L 446.723761 120.018462 
L 447.159188 123.12 
L 447.594616 123.12 
L 448.030043 98.307692 
L 448.46547 106.836923 
L 448.900897 117.692308 
L 449.336325 113.04 
L 450.207179 122.344615 
L 450.642606 121.569231 
L 451.078034 122.344615 
L 451.513461 116.141538 
L 451.948888 122.344615 
L 452.384315 120.793846 
L 452.819742 121.569231 
L 453.25517 123.12 
L 453.690597 100.633846 
L 454.126024 120.018462 
L 454.561451 111.489231 
L 454.996879 111.489231 
L 455.432306 114.590769 
L 455.867733 120.793846 
L 456.30316 121.569231 
L 456.738588 116.141538 
L 457.174015 118.467692 
L 457.609442 117.692308 
L 458.044869 116.141538 
L 458.480297 122.344615 
L 458.915724 120.018462 
L 459.351151 121.569231 
L 460.222005 123.12 
L 461.963714 120.018462 
L 462.834569 105.286154 
L 463.269996 118.467692 
L 463.705423 116.141538 
L 464.140851 122.344615 
L 464.576278 116.141538 
L 465.011705 123.12 
L 465.447132 121.569231 
L 466.317987 120.018462 
L 466.753414 120.793846 
L 467.188841 120.018462 
L 467.624268 118.467692 
L 468.059696 107.612308 
L 468.495123 118.467692 
L 468.93055 117.692308 
L 469.365977 106.061538 
L 469.801405 122.344615 
L 470.236832 114.590769 
L 470.672259 122.344615 
L 471.107686 118.467692 
L 471.543114 121.569231 
L 471.978541 123.12 
L 472.413968 120.793846 
L 472.849395 122.344615 
L 473.284822 120.018462 
L 473.72025 123.12 
L 474.591104 123.12 
L 475.026531 120.018462 
L 475.461959 123.12 
L 475.897386 118.467692 
L 476.332813 123.12 
L 476.76824 122.344615 
L 477.203668 120.018462 
L 477.639095 107.612308 
L 478.074522 123.12 
L 478.509949 123.12 
L 478.945377 112.264615 
L 479.380804 113.04 
L 479.816231 110.713846 
L 480.251658 113.815385 
L 480.687085 122.344615 
L 481.122513 112.264615 
L 481.55794 120.018462 
L 481.993367 121.569231 
L 482.428794 122.344615 
L 482.864222 122.344615 
L 483.299649 123.12 
L 483.735076 122.344615 
L 484.170503 119.243077 
L 484.605931 121.569231 
L 485.476785 123.12 
L 485.912212 123.12 
L 486.347639 117.692308 
L 486.783067 118.467692 
L 487.218494 121.569231 
L 488.089348 121.569231 
L 488.524776 120.793846 
L 488.960203 120.793846 
L 489.39563 116.141538 
L 489.831057 122.344615 
L 490.266485 105.286154 
L 490.701912 118.467692 
L 491.137339 122.344615 
L 491.572766 119.243077 
L 492.008194 120.018462 
L 492.879048 113.04 
L 493.314475 118.467692 
L 493.749902 103.735385 
L 494.18533 123.12 
L 494.620757 117.692308 
L 495.491611 102.96 
L 495.927039 110.713846 
L 496.362466 82.8 
L 496.797893 116.141538 
L 497.23332 123.12 
L 497.668748 93.655385 
L 498.104175 113.04 
L 498.539602 109.163077 
L 498.975029 110.713846 
L 499.410456 117.692308 
L 499.845884 113.815385 
L 500.281311 122.344615 
L 500.716738 106.836923 
L 501.152165 112.264615 
L 501.587593 112.264615 
L 502.02302 107.612308 
L 502.458447 108.387692 
L 502.893874 121.569231 
L 503.329302 123.12 
L 503.764729 92.104615 
L 504.200156 22.32 
L 504.635583 102.184615 
L 505.071011 106.836923 
L 505.506438 106.061538 
L 505.941865 120.018462 
L 506.377292 120.793846 
L 506.812719 92.88 
L 507.248147 73.495385 
L 507.683574 110.713846 
L 508.119001 108.387692 
L 508.554428 103.735385 
L 508.989856 120.018462 
L 509.425283 123.12 
L 509.86071 85.901538 
L 510.731565 90.553846 
L 511.602419 120.018462 
L 512.037846 121.569231 
L 512.473274 122.344615 
L 512.908701 117.692308 
L 513.344128 106.836923 
L 513.779555 113.04 
L 514.214982 90.553846 
L 514.65041 92.88 
L 515.085837 121.569231 
L 515.521264 120.018462 
L 515.956691 101.409231 
L 516.392119 115.366154 
L 516.827546 96.756923 
L 517.262973 116.141538 
L 517.6984 123.12 
L 518.133828 123.12 
L 518.569255 116.141538 
L 519.004682 105.286154 
L 519.440109 118.467692 
L 519.875536 118.467692 
L 520.310964 121.569231 
L 520.746391 123.12 
L 521.181818 123.12 
L 521.617245 121.569231 
L 522.052673 113.815385 
L 522.4881 120.793846 
L 522.923527 123.12 
L 523.358954 99.083077 
L 523.794382 117.692308 
L 524.229809 116.141538 
L 524.665236 95.981538 
L 525.100663 114.590769 
L 525.536091 122.344615 
L 525.971518 120.793846 
L 526.406945 123.12 
L 526.842372 121.569231 
L 527.277799 100.633846 
L 527.713227 98.307692 
L 528.148654 115.366154 
L 528.584081 109.938462 
L 529.019508 116.916923 
L 529.454936 106.836923 
L 529.890363 120.793846 
L 530.32579 114.590769 
L 530.761217 121.569231 
L 531.196645 120.793846 
L 531.632072 121.569231 
L 532.067499 123.12 
L 532.502926 105.286154 
L 532.938353 111.489231 
L 533.373781 120.793846 
L 533.809208 122.344615 
L 535.11549 122.344615 
L 535.550917 119.243077 
L 535.986344 94.430769 
L 536.421771 118.467692 
L 536.857199 111.489231 
L 537.292626 118.467692 
L 537.728053 120.018462 
L 538.16348 120.793846 
L 538.598908 119.243077 
L 539.034335 121.569231 
L 539.469762 122.344615 
L 539.905189 120.018462 
L 540.340616 122.344615 
L 540.776044 109.938462 
L 541.211471 119.243077 
L 541.646898 117.692308 
L 542.082325 120.793846 
L 542.517753 95.981538 
L 542.95318 120.018462 
L 543.388607 120.793846 
L 543.824034 119.243077 
L 544.259462 120.793846 
L 544.694889 119.243077 
L 545.130316 97.532308 
L 545.565743 116.141538 
L 546.001171 118.467692 
L 546.436598 120.018462 
L 546.872025 116.141538 
L 547.307452 120.018462 
L 547.742879 120.018462 
L 548.178307 120.793846 
L 548.613734 119.243077 
L 549.049161 119.243077 
L 549.484588 120.793846 
L 549.920016 119.243077 
L 550.355443 119.243077 
L 550.79087 120.018462 
L 551.226297 108.387692 
L 551.661725 113.815385 
L 552.097152 122.344615 
L 552.532579 121.569231 
L 552.968006 120.018462 
L 553.403433 121.569231 
L 553.838861 120.018462 
L 554.274288 121.569231 
L 554.709715 116.141538 
L 555.145142 115.366154 
L 555.58057 109.938462 
L 556.015997 119.243077 
L 556.451424 120.793846 
L 557.322279 115.366154 
L 557.757706 118.467692 
L 558.193133 119.243077 
L 558.62856 121.569231 
L 559.063988 121.569231 
L 559.499415 116.141538 
L 559.934842 92.104615 
L 560.370269 117.692308 
L 560.805696 117.692308 
L 561.241124 115.366154 
L 561.676551 120.793846 
L 562.111978 120.793846 
L 562.547405 117.692308 
L 562.982833 120.793846 
L 563.41826 81.249231 
L 563.853687 120.793846 
L 564.289114 122.344615 
L 564.724542 121.569231 
L 565.159969 121.569231 
L 565.595396 102.96 
L 566.030823 113.815385 
L 566.46625 120.018462 
L 566.901678 121.569231 
L 567.337105 122.344615 
L 567.772532 112.264615 
L 568.207959 119.243077 
L 568.643387 122.344615 
L 569.078814 106.836923 
L 569.514241 115.366154 
L 569.949668 119.243077 
L 570.385096 98.307692 
L 570.820523 122.344615 
L 571.25595 123.12 
L 571.691377 120.793846 
L 572.562232 122.344615 
L 572.997659 119.243077 
L 573.433086 118.467692 
L 573.868513 120.793846 
L 574.303941 122.344615 
L 574.739368 121.569231 
L 575.174795 122.344615 
L 575.610222 122.344615 
L 576.04565 123.12 
L 576.481077 123.12 
L 576.916504 120.018462 
L 577.351931 65.741538 
L 577.787359 110.713846 
L 578.222786 112.264615 
L 578.658213 116.141538 
L 579.09364 106.836923 
L 579.529067 112.264615 
L 579.964495 112.264615 
L 580.399922 104.510769 
L 580.835349 117.692308 
L 581.270776 105.286154 
L 581.706204 120.793846 
L 582.141631 116.916923 
L 582.577058 115.366154 
L 583.012485 120.793846 
L 583.447913 119.243077 
L 583.88334 116.916923 
L 584.318767 120.018462 
L 584.754194 120.793846 
L 585.189622 104.510769 
L 585.625049 117.692308 
L 586.060476 105.286154 
L 586.495903 116.916923 
L 586.93133 107.612308 
L 587.366758 117.692308 
L 587.802185 118.467692 
L 588.237612 108.387692 
L 588.673039 109.163077 
L 589.108467 117.692308 
L 589.543894 120.793846 
L 589.979321 116.916923 
L 590.414748 117.692308 
L 590.850176 123.12 
L 591.285603 117.692308 
L 591.72103 96.756923 
L 592.156457 116.141538 
L 592.591885 118.467692 
L 593.027312 114.590769 
L 593.462739 117.692308 
L 593.898166 119.243077 
L 594.333593 108.387692 
L 594.769021 118.467692 
L 595.204448 107.612308 
L 595.639875 116.141538 
L 596.075302 117.692308 
L 596.51073 107.612308 
L 596.946157 117.692308 
L 597.381584 95.206154 
L 597.817011 102.96 
L 598.252439 116.141538 
L 599.123293 117.692308 
L 599.55872 95.206154 
L 599.994147 89.003077 
L 600.429575 110.713846 
L 600.865002 120.793846 
L 601.735856 119.243077 
L 602.171284 114.590769 
L 602.606711 111.489231 
L 603.042138 110.713846 
L 603.477565 34.726154 
L 603.912993 89.003077 
L 604.34842 113.04 
L 605.219274 120.018462 
L 605.654702 109.163077 
L 606.090129 106.061538 
L 606.525556 100.633846 
L 606.960983 117.692308 
L 607.39641 119.243077 
L 607.831838 116.916923 
L 608.267265 113.04 
L 608.702692 111.489231 
L 609.138119 114.590769 
L 610.008974 89.003077 
L 610.444401 120.793846 
L 610.879828 122.344615 
L 611.315256 113.04 
L 611.750683 120.018462 
L 612.18611 107.612308 
L 612.621537 120.018462 
L 613.056964 115.366154 
L 613.492392 119.243077 
L 613.927819 121.569231 
L 614.363246 113.815385 
L 614.798673 121.569231 
L 615.234101 120.018462 
L 615.669528 116.141538 
L 616.540382 123.12 
L 616.97581 122.344615 
L 617.411237 112.264615 
L 617.846664 120.018462 
L 618.282091 116.916923 
L 618.717519 118.467692 
L 619.152946 116.141538 
L 619.588373 117.692308 
L 620.0238 103.735385 
L 620.459227 120.018462 
L 620.894655 115.366154 
L 621.330082 120.018462 
L 621.765509 120.793846 
L 622.200936 119.243077 
L 622.636364 105.286154 
L 622.636364 105.286154 
" clip-path="url(#p4bb9ec532c)" style="fill: none; stroke: #1f77b4; stroke-width: 1.5; stroke-linecap: square"/>
   </g>
   <g id="patch_3">
    <path d="M 90 128.16 
L 90 17.28 
" style="fill: none; stroke: #000000; stroke-width: 0.8; stroke-linejoin: miter; stroke-linecap: square"/>
   </g>
   <g id="patch_4">
    <path d="M 648 128.16 
L 648 17.28 
" style="fill: none; stroke: #000000; stroke-width: 0.8; stroke-linejoin: miter; stroke-linecap: square"/>
   </g>
   <g id="patch_5">
    <path d="M 90 128.16 
L 648 128.16 
" style="fill: none; stroke: #000000; stroke-width: 0.8; stroke-linejoin: miter; stroke-linecap: square"/>
   </g>
   <g id="patch_6">
    <path d="M 90 17.28 
L 648 17.28 
" style="fill: none; stroke: #000000; stroke-width: 0.8; stroke-linejoin: miter; stroke-linecap: square"/>
   </g>
   <g id="legend_1">
    <g id="patch_7">
     <path d="M 97 39.958125 
L 264.190625 39.958125 
Q 266.190625 39.958125 266.190625 37.958125 
L 266.190625 24.28 
Q 266.190625 22.28 264.190625 22.28 
L 97 22.28 
Q 95 22.28 95 24.28 
L 95 37.958125 
Q 95 39.958125 97 39.958125 
z
" style="fill: #ffffff; opacity: 0.8; stroke: #cccccc; stroke-linejoin: miter"/>
    </g>
    <g id="line2d_12">
     <path d="M 99 30.378437 
L 109 30.378437 
L 119 30.378437 
" style="fill: none; stroke: #1f77b4; stroke-width: 1.5; stroke-linecap: square"/>
    </g>
    <g id="text_11">
     <!-- Number of PyPI Downloads -->
     <g transform="translate(127 33.878437) scale(0.1 -0.1)">
      <defs>
       <path id="DejaVuSans-4e" d="M 628 4666 
L 1478 4666 
L 3547 763 
L 3547 4666 
L 4159 4666 
L 4159 0 
L 3309 0 
L 1241 3903 
L 1241 0 
L 628 0 
L 628 4666 
z
" transform="scale(0.015625)"/>
       <path id="DejaVuSans-75" d="M 544 1381 
L 544 3500 
L 1119 3500 
L 1119 1403 
Q 1119 906 1312 657 
Q 1506 409 1894 409 
Q 2359 409 2629 706 
Q 2900 1003 2900 1516 
L 2900 3500 
L 3475 3500 
L 3475 0 
L 2900 0 
L 2900 538 
Q 2691 219 2414 64 
Q 2138 -91 1772 -91 
Q 1169 -91 856 284 
Q 544 659 544 1381 
z
M 1991 3584 
L 1991 3584 
z
" transform="scale(0.015625)"/>
       <path id="DejaVuSans-6d" d="M 3328 2828 
Q 3544 3216 3844 3400 
Q 4144 3584 4550 3584 
Q 5097 3584 5394 3201 
Q 5691 2819 5691 2113 
L 5691 0 
L 5113 0 
L 5113 2094 
Q 5113 2597 4934 2840 
Q 4756 3084 4391 3084 
Q 3944 3084 3684 2787 
Q 3425 2491 3425 1978 
L 3425 0 
L 2847 0 
L 2847 2094 
Q 2847 2600 2669 2842 
Q 2491 3084 2119 3084 
Q 1678 3084 1418 2786 
Q 1159 2488 1159 1978 
L 1159 0 
L 581 0 
L 581 3500 
L 1159 3500 
L 1159 2956 
Q 1356 3278 1631 3431 
Q 1906 3584 2284 3584 
Q 2666 3584 2933 3390 
Q 3200 3197 3328 2828 
z
" transform="scale(0.015625)"/>
       <path id="DejaVuSans-62" d="M 3116 1747 
Q 3116 2381 2855 2742 
Q 2594 3103 2138 3103 
Q 1681 3103 1420 2742 
Q 1159 2381 1159 1747 
Q 1159 1113 1420 752 
Q 1681 391 2138 391 
Q 2594 391 2855 752 
Q 3116 1113 3116 1747 
z
M 1159 2969 
Q 1341 3281 1617 3432 
Q 1894 3584 2278 3584 
Q 2916 3584 3314 3078 
Q 3713 2572 3713 1747 
Q 3713 922 3314 415 
Q 2916 -91 2278 -91 
Q 1894 -91 1617 61 
Q 1341 213 1159 525 
L 1159 0 
L 581 0 
L 581 4863 
L 1159 4863 
L 1159 2969 
z
" transform="scale(0.015625)"/>
       <path id="DejaVuSans-72" d="M 2631 2963 
Q 2534 3019 2420 3045 
Q 2306 3072 2169 3072 
Q 1681 3072 1420 2755 
Q 1159 2438 1159 1844 
L 1159 0 
L 581 0 
L 581 3500 
L 1159 3500 
L 1159 2956 
Q 1341 3275 1631 3429 
Q 1922 3584 2338 3584 
Q 2397 3584 2469 3576 
Q 2541 3569 2628 3553 
L 2631 2963 
z
" transform="scale(0.015625)"/>
       <path id="DejaVuSans-20" transform="scale(0.015625)"/>
       <path id="DejaVuSans-6f" d="M 1959 3097 
Q 1497 3097 1228 2736 
Q 959 2375 959 1747 
Q 959 1119 1226 758 
Q 1494 397 1959 397 
Q 2419 397 2687 759 
Q 2956 1122 2956 1747 
Q 2956 2369 2687 2733 
Q 2419 3097 1959 3097 
z
M 1959 3584 
Q 2709 3584 3137 3096 
Q 3566 2609 3566 1747 
Q 3566 888 3137 398 
Q 2709 -91 1959 -91 
Q 1206 -91 779 398 
Q 353 888 353 1747 
Q 353 2609 779 3096 
Q 1206 3584 1959 3584 
z
" transform="scale(0.015625)"/>
       <path id="DejaVuSans-66" d="M 2375 4863 
L 2375 4384 
L 1825 4384 
Q 1516 4384 1395 4259 
Q 1275 4134 1275 3809 
L 1275 3500 
L 2222 3500 
L 2222 3053 
L 1275 3053 
L 1275 0 
L 697 0 
L 697 3053 
L 147 3053 
L 147 3500 
L 697 3500 
L 697 3744 
Q 697 4328 969 4595 
Q 1241 4863 1831 4863 
L 2375 4863 
z
" transform="scale(0.015625)"/>
       <path id="DejaVuSans-50" d="M 1259 4147 
L 1259 2394 
L 2053 2394 
Q 2494 2394 2734 2622 
Q 2975 2850 2975 3272 
Q 2975 3691 2734 3919 
Q 2494 4147 2053 4147 
L 1259 4147 
z
M 628 4666 
L 2053 4666 
Q 2838 4666 3239 4311 
Q 3641 3956 3641 3272 
Q 3641 2581 3239 2228 
Q 2838 1875 2053 1875 
L 1259 1875 
L 1259 0 
L 628 0 
L 628 4666 
z
" transform="scale(0.015625)"/>
       <path id="DejaVuSans-79" d="M 2059 -325 
Q 1816 -950 1584 -1140 
Q 1353 -1331 966 -1331 
L 506 -1331 
L 506 -850 
L 844 -850 
Q 1081 -850 1212 -737 
Q 1344 -625 1503 -206 
L 1606 56 
L 191 3500 
L 800 3500 
L 1894 763 
L 2988 3500 
L 3597 3500 
L 2059 -325 
z
" transform="scale(0.015625)"/>
       <path id="DejaVuSans-49" d="M 628 4666 
L 1259 4666 
L 1259 0 
L 628 0 
L 628 4666 
z
" transform="scale(0.015625)"/>
       <path id="DejaVuSans-44" d="M 1259 4147 
L 1259 519 
L 2022 519 
Q 2988 519 3436 956 
Q 3884 1394 3884 2338 
Q 3884 3275 3436 3711 
Q 2988 4147 2022 4147 
L 1259 4147 
z
M 628 4666 
L 1925 4666 
Q 3281 4666 3915 4102 
Q 4550 3538 4550 2338 
Q 4550 1131 3912 565 
Q 3275 0 1925 0 
L 628 0 
L 628 4666 
z
" transform="scale(0.015625)"/>
       <path id="DejaVuSans-77" d="M 269 3500 
L 844 3500 
L 1563 769 
L 2278 3500 
L 2956 3500 
L 3675 769 
L 4391 3500 
L 4966 3500 
L 4050 0 
L 3372 0 
L 2619 2869 
L 1863 0 
L 1184 0 
L 269 3500 
z
" transform="scale(0.015625)"/>
       <path id="DejaVuSans-6e" d="M 3513 2113 
L 3513 0 
L 2938 0 
L 2938 2094 
Q 2938 2591 2744 2837 
Q 2550 3084 2163 3084 
Q 1697 3084 1428 2787 
Q 1159 2491 1159 1978 
L 1159 0 
L 581 0 
L 581 3500 
L 1159 3500 
L 1159 2956 
Q 1366 3272 1645 3428 
Q 1925 3584 2291 3584 
Q 2894 3584 3203 3211 
Q 3513 2838 3513 2113 
z
" transform="scale(0.015625)"/>
       <path id="DejaVuSans-6c" d="M 603 4863 
L 1178 4863 
L 1178 0 
L 603 0 
L 603 4863 
z
" transform="scale(0.015625)"/>
       <path id="DejaVuSans-73" d="M 2834 3397 
L 2834 2853 
Q 2591 2978 2328 3040 
Q 2066 3103 1784 3103 
Q 1356 3103 1142 2972 
Q 928 2841 928 2578 
Q 928 2378 1081 2264 
Q 1234 2150 1697 2047 
L 1894 2003 
Q 2506 1872 2764 1633 
Q 3022 1394 3022 966 
Q 3022 478 2636 193 
Q 2250 -91 1575 -91 
Q 1294 -91 989 -36 
Q 684 19 347 128 
L 347 722 
Q 666 556 975 473 
Q 1284 391 1588 391 
Q 1994 391 2212 530 
Q 2431 669 2431 922 
Q 2431 1156 2273 1281 
Q 2116 1406 1581 1522 
L 1381 1569 
Q 847 1681 609 1914 
Q 372 2147 372 2553 
Q 372 3047 722 3315 
Q 1072 3584 1716 3584 
Q 2034 3584 2315 3537 
Q 2597 3491 2834 3397 
z
" transform="scale(0.015625)"/>
      </defs>
      <use xlink:href="#DejaVuSans-4e"/>
      <use xlink:href="#DejaVuSans-75" x="74.804688"/>
      <use xlink:href="#DejaVuSans-6d" x="138.183594"/>
      <use xlink:href="#DejaVuSans-62" x="235.595703"/>
      <use xlink:href="#DejaVuSans-65" x="299.072266"/>
      <use xlink:href="#DejaVuSans-72" x="360.595703"/>
      <use xlink:href="#DejaVuSans-20" x="401.708984"/>
      <use xlink:href="#DejaVuSans-6f" x="433.496094"/>
      <use xlink:href="#DejaVuSans-66" x="494.677734"/>
      <use xlink:href="#DejaVuSans-20" x="529.882812"/>
      <use xlink:href="#DejaVuSans-50" x="561.669922"/>
      <use xlink:href="#DejaVuSans-79" x="621.972656"/>
      <use xlink:href="#DejaVuSans-50" x="681.152344"/>
      <use xlink:href="#DejaVuSans-49" x="741.455078"/>
      <use xlink:href="#DejaVuSans-20" x="770.947266"/>
      <use xlink:href="#DejaVuSans-44" x="802.734375"/>
      <use xlink:href="#DejaVuSans-6f" x="879.736328"/>
      <use xlink:href="#DejaVuSans-77" x="940.917969"/>
      <use xlink:href="#DejaVuSans-6e" x="1022.705078"/>
      <use xlink:href="#DejaVuSans-6c" x="1086.083984"/>
      <use xlink:href="#DejaVuSans-6f" x="1113.867188"/>
      <use xlink:href="#DejaVuSans-61" x="1175.048828"/>
      <use xlink:href="#DejaVuSans-64" x="1236.328125"/>
      <use xlink:href="#DejaVuSans-73" x="1299.804688"/>
     </g>
    </g>
   </g>
  </g>
 </g>
 <defs>
  <clipPath id="p4bb9ec532c">
   <rect x="90" y="17.28" width="558" height="110.88"/>
  </clipPath>
 </defs>
</svg>
