<?xml version="1.0" encoding="utf-8" standalone="no"?>
<!DOCTYPE svg PUBLIC "-//W3C//DTD SVG 1.1//EN"
  "http://www.w3.org/Graphics/SVG/1.1/DTD/svg11.dtd">
<svg xmlns:xlink="http://www.w3.org/1999/xlink" width="720pt" height="144pt" viewBox="0 0 720 144" xmlns="http://www.w3.org/2000/svg" version="1.1">
 <metadata>
  <rdf:RDF xmlns:dc="http://purl.org/dc/elements/1.1/" xmlns:cc="http://creativecommons.org/ns#" xmlns:rdf="http://www.w3.org/1999/02/22-rdf-syntax-ns#">
   <cc:Work>
    <dc:type rdf:resource="http://purl.org/dc/dcmitype/StillImage"/>
    <dc:date>2024-10-01T20:56:43.662975</dc:date>
    <dc:format>image/svg+xml</dc:format>
    <dc:creator>
     <cc:Agent>
      <dc:title>Matplotlib v3.9.2, https://matplotlib.org/</dc:title>
     </cc:Agent>
    </dc:creator>
   </cc:Work>
  </rdf:RDF>
 </metadata>
 <defs>
  <style type="text/css">*{stroke-linejoin: round; stroke-linecap: butt}</style>
 </defs>
 <g id="figure_1">
  <g id="patch_1">
   <path d="M 0 144 
L 720 144 
L 720 0 
L 0 0 
z
" style="fill: #ffffff"/>
  </g>
  <g id="axes_1">
   <g id="patch_2">
    <path d="M 90 128.16 
L 648 128.16 
L 648 17.28 
L 90 17.28 
z
" style="fill: #ffffff"/>
   </g>
   <g id="matplotlib.axis_1">
    <g id="xtick_1">
     <g id="line2d_1">
      <defs>
       <path id="m6900750bea" d="M 0 0 
L 0 3.5 
" style="stroke: #000000; stroke-width: 0.8"/>
      </defs>
      <g>
       <use xlink:href="#m6900750bea" x="115.363636" y="128.16" style="stroke: #000000; stroke-width: 0.8"/>
      </g>
     </g>
     <g id="text_1">
      <!-- 2020-06-18 -->
      <g transform="translate(86.305824 142.758438) scale(0.1 -0.1)">
       <defs>
        <path id="DejaVuSans-32" d="M 1228 531 
L 3431 531 
L 3431 0 
L 469 0 
L 469 531 
Q 828 903 1448 1529 
Q 2069 2156 2228 2338 
Q 2531 2678 2651 2914 
Q 2772 3150 2772 3378 
Q 2772 3750 2511 3984 
Q 2250 4219 1831 4219 
Q 1534 4219 1204 4116 
Q 875 4013 500 3803 
L 500 4441 
Q 881 4594 1212 4672 
Q 1544 4750 1819 4750 
Q 2544 4750 2975 4387 
Q 3406 4025 3406 3419 
Q 3406 3131 3298 2873 
Q 3191 2616 2906 2266 
Q 2828 2175 2409 1742 
Q 1991 1309 1228 531 
z
" transform="scale(0.015625)"/>
        <path id="DejaVuSans-30" d="M 2034 4250 
Q 1547 4250 1301 3770 
Q 1056 3291 1056 2328 
Q 1056 1369 1301 889 
Q 1547 409 2034 409 
Q 2525 409 2770 889 
Q 3016 1369 3016 2328 
Q 3016 3291 2770 3770 
Q 2525 4250 2034 4250 
z
M 2034 4750 
Q 2819 4750 3233 4129 
Q 3647 3509 3647 2328 
Q 3647 1150 3233 529 
Q 2819 -91 2034 -91 
Q 1250 -91 836 529 
Q 422 1150 422 2328 
Q 422 3509 836 4129 
Q 1250 4750 2034 4750 
z
" transform="scale(0.015625)"/>
        <path id="DejaVuSans-2d" d="M 313 2009 
L 1997 2009 
L 1997 1497 
L 313 1497 
L 313 2009 
z
" transform="scale(0.015625)"/>
        <path id="DejaVuSans-36" d="M 2113 2584 
Q 1688 2584 1439 2293 
Q 1191 2003 1191 1497 
Q 1191 994 1439 701 
Q 1688 409 2113 409 
Q 2538 409 2786 701 
Q 3034 994 3034 1497 
Q 3034 2003 2786 2293 
Q 2538 2584 2113 2584 
z
M 3366 4563 
L 3366 3988 
Q 3128 4100 2886 4159 
Q 2644 4219 2406 4219 
Q 1781 4219 1451 3797 
Q 1122 3375 1075 2522 
Q 1259 2794 1537 2939 
Q 1816 3084 2150 3084 
Q 2853 3084 3261 2657 
Q 3669 2231 3669 1497 
Q 3669 778 3244 343 
Q 2819 -91 2113 -91 
Q 1303 -91 875 529 
Q 447 1150 447 2328 
Q 447 3434 972 4092 
Q 1497 4750 2381 4750 
Q 2619 4750 2861 4703 
Q 3103 4656 3366 4563 
z
" transform="scale(0.015625)"/>
        <path id="DejaVuSans-31" d="M 794 531 
L 1825 531 
L 1825 4091 
L 703 3866 
L 703 4441 
L 1819 4666 
L 2450 4666 
L 2450 531 
L 3481 531 
L 3481 0 
L 794 0 
L 794 531 
z
" transform="scale(0.015625)"/>
        <path id="DejaVuSans-38" d="M 2034 2216 
Q 1584 2216 1326 1975 
Q 1069 1734 1069 1313 
Q 1069 891 1326 650 
Q 1584 409 2034 409 
Q 2484 409 2743 651 
Q 3003 894 3003 1313 
Q 3003 1734 2745 1975 
Q 2488 2216 2034 2216 
z
M 1403 2484 
Q 997 2584 770 2862 
Q 544 3141 544 3541 
Q 544 4100 942 4425 
Q 1341 4750 2034 4750 
Q 2731 4750 3128 4425 
Q 3525 4100 3525 3541 
Q 3525 3141 3298 2862 
Q 3072 2584 2669 2484 
Q 3125 2378 3379 2068 
Q 3634 1759 3634 1313 
Q 3634 634 3220 271 
Q 2806 -91 2034 -91 
Q 1263 -91 848 271 
Q 434 634 434 1313 
Q 434 1759 690 2068 
Q 947 2378 1403 2484 
z
M 1172 3481 
Q 1172 3119 1398 2916 
Q 1625 2713 2034 2713 
Q 2441 2713 2670 2916 
Q 2900 3119 2900 3481 
Q 2900 3844 2670 4047 
Q 2441 4250 2034 4250 
Q 1625 4250 1398 4047 
Q 1172 3844 1172 3481 
z
" transform="scale(0.015625)"/>
       </defs>
       <use xlink:href="#DejaVuSans-32"/>
       <use xlink:href="#DejaVuSans-30" x="63.623047"/>
       <use xlink:href="#DejaVuSans-32" x="127.246094"/>
       <use xlink:href="#DejaVuSans-30" x="190.869141"/>
       <use xlink:href="#DejaVuSans-2d" x="254.492188"/>
       <use xlink:href="#DejaVuSans-30" x="290.576172"/>
       <use xlink:href="#DejaVuSans-36" x="354.199219"/>
       <use xlink:href="#DejaVuSans-2d" x="417.822266"/>
       <use xlink:href="#DejaVuSans-31" x="453.90625"/>
       <use xlink:href="#DejaVuSans-38" x="517.529297"/>
      </g>
     </g>
    </g>
    <g id="xtick_2">
     <g id="line2d_2">
      <g>
       <use xlink:href="#m6900750bea" x="186.112971" y="128.16" style="stroke: #000000; stroke-width: 0.8"/>
      </g>
     </g>
     <g id="text_2">
      <!-- 2021-03-15 -->
      <g transform="translate(157.055158 142.758438) scale(0.1 -0.1)">
       <defs>
        <path id="DejaVuSans-33" d="M 2597 2516 
Q 3050 2419 3304 2112 
Q 3559 1806 3559 1356 
Q 3559 666 3084 287 
Q 2609 -91 1734 -91 
Q 1441 -91 1130 -33 
Q 819 25 488 141 
L 488 750 
Q 750 597 1062 519 
Q 1375 441 1716 441 
Q 2309 441 2620 675 
Q 2931 909 2931 1356 
Q 2931 1769 2642 2001 
Q 2353 2234 1838 2234 
L 1294 2234 
L 1294 2753 
L 1863 2753 
Q 2328 2753 2575 2939 
Q 2822 3125 2822 3475 
Q 2822 3834 2567 4026 
Q 2313 4219 1838 4219 
Q 1578 4219 1281 4162 
Q 984 4106 628 3988 
L 628 4550 
Q 988 4650 1302 4700 
Q 1616 4750 1894 4750 
Q 2613 4750 3031 4423 
Q 3450 4097 3450 3541 
Q 3450 3153 3228 2886 
Q 3006 2619 2597 2516 
z
" transform="scale(0.015625)"/>
        <path id="DejaVuSans-35" d="M 691 4666 
L 3169 4666 
L 3169 4134 
L 1269 4134 
L 1269 2991 
Q 1406 3038 1543 3061 
Q 1681 3084 1819 3084 
Q 2600 3084 3056 2656 
Q 3513 2228 3513 1497 
Q 3513 744 3044 326 
Q 2575 -91 1722 -91 
Q 1428 -91 1123 -41 
Q 819 9 494 109 
L 494 744 
Q 775 591 1075 516 
Q 1375 441 1709 441 
Q 2250 441 2565 725 
Q 2881 1009 2881 1497 
Q 2881 1984 2565 2268 
Q 2250 2553 1709 2553 
Q 1456 2553 1204 2497 
Q 953 2441 691 2322 
L 691 4666 
z
" transform="scale(0.015625)"/>
       </defs>
       <use xlink:href="#DejaVuSans-32"/>
       <use xlink:href="#DejaVuSans-30" x="63.623047"/>
       <use xlink:href="#DejaVuSans-32" x="127.246094"/>
       <use xlink:href="#DejaVuSans-31" x="190.869141"/>
       <use xlink:href="#DejaVuSans-2d" x="254.492188"/>
       <use xlink:href="#DejaVuSans-30" x="290.576172"/>
       <use xlink:href="#DejaVuSans-33" x="354.199219"/>
       <use xlink:href="#DejaVuSans-2d" x="417.822266"/>
       <use xlink:href="#DejaVuSans-31" x="453.90625"/>
       <use xlink:href="#DejaVuSans-35" x="517.529297"/>
      </g>
     </g>
    </g>
    <g id="xtick_3">
     <g id="line2d_3">
      <g>
       <use xlink:href="#m6900750bea" x="256.862305" y="128.16" style="stroke: #000000; stroke-width: 0.8"/>
      </g>
     </g>
     <g id="text_3">
      <!-- 2021-10-17 -->
      <g transform="translate(227.804493 142.758438) scale(0.1 -0.1)">
       <defs>
        <path id="DejaVuSans-37" d="M 525 4666 
L 3525 4666 
L 3525 4397 
L 1831 0 
L 1172 0 
L 2766 4134 
L 525 4134 
L 525 4666 
z
" transform="scale(0.015625)"/>
       </defs>
       <use xlink:href="#DejaVuSans-32"/>
       <use xlink:href="#DejaVuSans-30" x="63.623047"/>
       <use xlink:href="#DejaVuSans-32" x="127.246094"/>
       <use xlink:href="#DejaVuSans-31" x="190.869141"/>
       <use xlink:href="#DejaVuSans-2d" x="254.492188"/>
       <use xlink:href="#DejaVuSans-31" x="290.576172"/>
       <use xlink:href="#DejaVuSans-30" x="354.199219"/>
       <use xlink:href="#DejaVuSans-2d" x="417.822266"/>
       <use xlink:href="#DejaVuSans-31" x="453.90625"/>
       <use xlink:href="#DejaVuSans-37" x="517.529297"/>
      </g>
     </g>
    </g>
    <g id="xtick_4">
     <g id="line2d_4">
      <g>
       <use xlink:href="#m6900750bea" x="327.611639" y="128.16" style="stroke: #000000; stroke-width: 0.8"/>
      </g>
     </g>
     <g id="text_4">
      <!-- 2022-05-15 -->
      <g transform="translate(298.553827 142.758438) scale(0.1 -0.1)">
       <use xlink:href="#DejaVuSans-32"/>
       <use xlink:href="#DejaVuSans-30" x="63.623047"/>
       <use xlink:href="#DejaVuSans-32" x="127.246094"/>
       <use xlink:href="#DejaVuSans-32" x="190.869141"/>
       <use xlink:href="#DejaVuSans-2d" x="254.492188"/>
       <use xlink:href="#DejaVuSans-30" x="290.576172"/>
       <use xlink:href="#DejaVuSans-35" x="354.199219"/>
       <use xlink:href="#DejaVuSans-2d" x="417.822266"/>
       <use xlink:href="#DejaVuSans-31" x="453.90625"/>
       <use xlink:href="#DejaVuSans-35" x="517.529297"/>
      </g>
     </g>
    </g>
    <g id="xtick_5">
     <g id="line2d_5">
      <g>
       <use xlink:href="#m6900750bea" x="398.360974" y="128.16" style="stroke: #000000; stroke-width: 0.8"/>
      </g>
     </g>
     <g id="text_5">
      <!-- 2022-12-10 -->
      <g transform="translate(369.303161 142.758438) scale(0.1 -0.1)">
       <use xlink:href="#DejaVuSans-32"/>
       <use xlink:href="#DejaVuSans-30" x="63.623047"/>
       <use xlink:href="#DejaVuSans-32" x="127.246094"/>
       <use xlink:href="#DejaVuSans-32" x="190.869141"/>
       <use xlink:href="#DejaVuSans-2d" x="254.492188"/>
       <use xlink:href="#DejaVuSans-31" x="290.576172"/>
       <use xlink:href="#DejaVuSans-32" x="354.199219"/>
       <use xlink:href="#DejaVuSans-2d" x="417.822266"/>
       <use xlink:href="#DejaVuSans-31" x="453.90625"/>
       <use xlink:href="#DejaVuSans-30" x="517.529297"/>
      </g>
     </g>
    </g>
    <g id="xtick_6">
     <g id="line2d_6">
      <g>
       <use xlink:href="#m6900750bea" x="469.110308" y="128.16" style="stroke: #000000; stroke-width: 0.8"/>
      </g>
     </g>
     <g id="text_6">
      <!-- 2023-07-14 -->
      <g transform="translate(440.052496 142.758438) scale(0.1 -0.1)">
       <defs>
        <path id="DejaVuSans-34" d="M 2419 4116 
L 825 1625 
L 2419 1625 
L 2419 4116 
z
M 2253 4666 
L 3047 4666 
L 3047 1625 
L 3713 1625 
L 3713 1100 
L 3047 1100 
L 3047 0 
L 2419 0 
L 2419 1100 
L 313 1100 
L 313 1709 
L 2253 4666 
z
" transform="scale(0.015625)"/>
       </defs>
       <use xlink:href="#DejaVuSans-32"/>
       <use xlink:href="#DejaVuSans-30" x="63.623047"/>
       <use xlink:href="#DejaVuSans-32" x="127.246094"/>
       <use xlink:href="#DejaVuSans-33" x="190.869141"/>
       <use xlink:href="#DejaVuSans-2d" x="254.492188"/>
       <use xlink:href="#DejaVuSans-30" x="290.576172"/>
       <use xlink:href="#DejaVuSans-37" x="354.199219"/>
       <use xlink:href="#DejaVuSans-2d" x="417.822266"/>
       <use xlink:href="#DejaVuSans-31" x="453.90625"/>
       <use xlink:href="#DejaVuSans-34" x="517.529297"/>
      </g>
     </g>
    </g>
    <g id="xtick_7">
     <g id="line2d_7">
      <g>
       <use xlink:href="#m6900750bea" x="539.859642" y="128.16" style="stroke: #000000; stroke-width: 0.8"/>
      </g>
     </g>
     <g id="text_7">
      <!-- 2024-02-07 -->
      <g transform="translate(510.80183 142.758438) scale(0.1 -0.1)">
       <use xlink:href="#DejaVuSans-32"/>
       <use xlink:href="#DejaVuSans-30" x="63.623047"/>
       <use xlink:href="#DejaVuSans-32" x="127.246094"/>
       <use xlink:href="#DejaVuSans-34" x="190.869141"/>
       <use xlink:href="#DejaVuSans-2d" x="254.492188"/>
       <use xlink:href="#DejaVuSans-30" x="290.576172"/>
       <use xlink:href="#DejaVuSans-32" x="354.199219"/>
       <use xlink:href="#DejaVuSans-2d" x="417.822266"/>
       <use xlink:href="#DejaVuSans-30" x="453.90625"/>
       <use xlink:href="#DejaVuSans-37" x="517.529297"/>
      </g>
     </g>
    </g>
    <g id="xtick_8">
     <g id="line2d_8">
      <g>
       <use xlink:href="#m6900750bea" x="610.608977" y="128.16" style="stroke: #000000; stroke-width: 0.8"/>
      </g>
     </g>
     <g id="text_8">
      <!-- 2024-08-27 -->
      <g transform="translate(581.551164 142.758438) scale(0.1 -0.1)">
       <use xlink:href="#DejaVuSans-32"/>
       <use xlink:href="#DejaVuSans-30" x="63.623047"/>
       <use xlink:href="#DejaVuSans-32" x="127.246094"/>
       <use xlink:href="#DejaVuSans-34" x="190.869141"/>
       <use xlink:href="#DejaVuSans-2d" x="254.492188"/>
       <use xlink:href="#DejaVuSans-30" x="290.576172"/>
       <use xlink:href="#DejaVuSans-38" x="354.199219"/>
       <use xlink:href="#DejaVuSans-2d" x="417.822266"/>
       <use xlink:href="#DejaVuSans-32" x="453.90625"/>
       <use xlink:href="#DejaVuSans-37" x="517.529297"/>
      </g>
     </g>
    </g>
    <g id="text_9">
     <!-- date -->
     <g transform="translate(357.725 156.436563) scale(0.1 -0.1)">
      <defs>
       <path id="DejaVuSans-64" d="M 2906 2969 
L 2906 4863 
L 3481 4863 
L 3481 0 
L 2906 0 
L 2906 525 
Q 2725 213 2448 61 
Q 2172 -91 1784 -91 
Q 1150 -91 751 415 
Q 353 922 353 1747 
Q 353 2572 751 3078 
Q 1150 3584 1784 3584 
Q 2172 3584 2448 3432 
Q 2725 3281 2906 2969 
z
M 947 1747 
Q 947 1113 1208 752 
Q 1469 391 1925 391 
Q 2381 391 2643 752 
Q 2906 1113 2906 1747 
Q 2906 2381 2643 2742 
Q 2381 3103 1925 3103 
Q 1469 3103 1208 2742 
Q 947 2381 947 1747 
z
" transform="scale(0.015625)"/>
       <path id="DejaVuSans-61" d="M 2194 1759 
Q 1497 1759 1228 1600 
Q 959 1441 959 1056 
Q 959 750 1161 570 
Q 1363 391 1709 391 
Q 2188 391 2477 730 
Q 2766 1069 2766 1631 
L 2766 1759 
L 2194 1759 
z
M 3341 1997 
L 3341 0 
L 2766 0 
L 2766 531 
Q 2569 213 2275 61 
Q 1981 -91 1556 -91 
Q 1019 -91 701 211 
Q 384 513 384 1019 
Q 384 1609 779 1909 
Q 1175 2209 1959 2209 
L 2766 2209 
L 2766 2266 
Q 2766 2663 2505 2880 
Q 2244 3097 1772 3097 
Q 1472 3097 1187 3025 
Q 903 2953 641 2809 
L 641 3341 
Q 956 3463 1253 3523 
Q 1550 3584 1831 3584 
Q 2591 3584 2966 3190 
Q 3341 2797 3341 1997 
z
" transform="scale(0.015625)"/>
       <path id="DejaVuSans-74" d="M 1172 4494 
L 1172 3500 
L 2356 3500 
L 2356 3053 
L 1172 3053 
L 1172 1153 
Q 1172 725 1289 603 
Q 1406 481 1766 481 
L 2356 481 
L 2356 0 
L 1766 0 
Q 1100 0 847 248 
Q 594 497 594 1153 
L 594 3053 
L 172 3053 
L 172 3500 
L 594 3500 
L 594 4494 
L 1172 4494 
z
" transform="scale(0.015625)"/>
       <path id="DejaVuSans-65" d="M 3597 1894 
L 3597 1613 
L 953 1613 
Q 991 1019 1311 708 
Q 1631 397 2203 397 
Q 2534 397 2845 478 
Q 3156 559 3463 722 
L 3463 178 
Q 3153 47 2828 -22 
Q 2503 -91 2169 -91 
Q 1331 -91 842 396 
Q 353 884 353 1716 
Q 353 2575 817 3079 
Q 1281 3584 2069 3584 
Q 2775 3584 3186 3129 
Q 3597 2675 3597 1894 
z
M 3022 2063 
Q 3016 2534 2758 2815 
Q 2500 3097 2075 3097 
Q 1594 3097 1305 2825 
Q 1016 2553 972 2059 
L 3022 2063 
z
" transform="scale(0.015625)"/>
      </defs>
      <use xlink:href="#DejaVuSans-64"/>
      <use xlink:href="#DejaVuSans-61" x="63.476562"/>
      <use xlink:href="#DejaVuSans-74" x="124.755859"/>
      <use xlink:href="#DejaVuSans-65" x="163.964844"/>
     </g>
    </g>
   </g>
   <g id="matplotlib.axis_2">
    <g id="ytick_1">
     <g id="line2d_9">
      <defs>
       <path id="m56fdddf456" d="M 0 0 
L -3.5 0 
" style="stroke: #000000; stroke-width: 0.8"/>
      </defs>
      <g>
       <use xlink:href="#m56fdddf456" x="90" y="123.783158" style="stroke: #000000; stroke-width: 0.8"/>
      </g>
     </g>
     <g id="text_10">
      <!-- 0 -->
      <g transform="translate(76.6375 127.582377) scale(0.1 -0.1)">
       <use xlink:href="#DejaVuSans-30"/>
      </g>
     </g>
    </g>
    <g id="ytick_2">
     <g id="line2d_10">
      <g>
       <use xlink:href="#m56fdddf456" x="90" y="90.625263" style="stroke: #000000; stroke-width: 0.8"/>
      </g>
     </g>
     <g id="text_11">
      <!-- 50 -->
      <g transform="translate(70.275 94.424482) scale(0.1 -0.1)">
       <use xlink:href="#DejaVuSans-35"/>
       <use xlink:href="#DejaVuSans-30" x="63.623047"/>
      </g>
     </g>
    </g>
    <g id="ytick_3">
     <g id="line2d_11">
      <g>
       <use xlink:href="#m56fdddf456" x="90" y="57.467368" style="stroke: #000000; stroke-width: 0.8"/>
      </g>
     </g>
     <g id="text_12">
      <!-- 100 -->
      <g transform="translate(63.9125 61.266587) scale(0.1 -0.1)">
       <use xlink:href="#DejaVuSans-31"/>
       <use xlink:href="#DejaVuSans-30" x="63.623047"/>
       <use xlink:href="#DejaVuSans-30" x="127.246094"/>
      </g>
     </g>
    </g>
    <g id="ytick_4">
     <g id="line2d_12">
      <g>
       <use xlink:href="#m56fdddf456" x="90" y="24.309474" style="stroke: #000000; stroke-width: 0.8"/>
      </g>
     </g>
     <g id="text_13">
      <!-- 150 -->
      <g transform="translate(63.9125 28.108692) scale(0.1 -0.1)">
       <use xlink:href="#DejaVuSans-31"/>
       <use xlink:href="#DejaVuSans-35" x="63.623047"/>
       <use xlink:href="#DejaVuSans-30" x="127.246094"/>
      </g>
     </g>
    </g>
   </g>
   <g id="line2d_13">
    <path d="M 115.363636 109.193684 
L 116.07113 121.130526 
L 117.13237 123.12 
L 117.486116 121.793684 
L 117.839863 118.477895 
L 118.19361 122.456842 
L 118.547356 121.793684 
L 118.901103 122.456842 
L 119.25485 107.867368 
L 119.608596 119.141053 
L 119.962343 121.793684 
L 120.31609 118.477895 
L 120.669836 122.456842 
L 121.023583 119.804211 
L 121.37733 119.141053 
L 121.731076 123.12 
L 122.084823 121.793684 
L 122.43857 117.151579 
L 122.792316 118.477895 
L 123.146063 121.130526 
L 123.49981 121.793684 
L 123.853556 121.793684 
L 124.56105 123.12 
L 124.914797 117.814737 
L 125.268543 89.962105 
L 125.62229 119.804211 
L 125.976037 121.793684 
L 126.329783 121.793684 
L 126.68353 120.467368 
L 127.037277 122.456842 
L 127.391023 121.130526 
L 127.74477 123.12 
L 128.098517 121.793684 
L 128.452263 121.793684 
L 128.80601 123.12 
L 129.159757 122.456842 
L 129.513503 121.130526 
L 129.86725 121.130526 
L 130.220997 119.804211 
L 130.574743 123.12 
L 130.92849 123.12 
L 131.282237 122.456842 
L 131.635983 122.456842 
L 131.98973 123.12 
L 132.343477 123.12 
L 132.697223 113.172632 
L 133.05097 120.467368 
L 133.404717 119.141053 
L 133.758463 122.456842 
L 134.11221 120.467368 
L 134.465957 119.141053 
L 134.819703 120.467368 
L 135.17345 123.12 
L 135.527197 122.456842 
L 135.880943 120.467368 
L 136.23469 123.12 
L 136.942183 121.793684 
L 137.29593 119.141053 
L 138.003423 123.12 
L 138.35717 121.130526 
L 138.710917 120.467368 
L 139.064663 123.12 
L 139.41841 121.130526 
L 139.772157 123.12 
L 140.125903 122.456842 
L 140.47965 120.467368 
L 140.833397 123.12 
L 141.187143 122.456842 
L 141.54089 122.456842 
L 141.894637 123.12 
L 142.248383 120.467368 
L 142.60213 123.12 
L 142.955877 121.793684 
L 143.66337 121.793684 
L 144.017117 121.130526 
L 144.370863 119.804211 
L 144.72461 121.793684 
L 145.078357 119.804211 
L 145.432103 123.12 
L 146.139597 121.793684 
L 146.493343 120.467368 
L 146.84709 122.456842 
L 147.200837 123.12 
L 147.554583 122.456842 
L 147.90833 121.130526 
L 148.262077 121.793684 
L 148.615824 123.12 
L 148.96957 114.498947 
L 149.323317 123.12 
L 149.677064 121.793684 
L 150.03081 121.130526 
L 150.384557 123.12 
L 150.738304 121.130526 
L 151.09205 118.477895 
L 151.445797 121.793684 
L 151.799544 123.12 
L 152.15329 123.12 
L 152.507037 122.456842 
L 152.860784 123.12 
L 153.21453 123.12 
L 153.568277 122.456842 
L 153.922024 122.456842 
L 154.27577 121.793684 
L 154.629517 122.456842 
L 155.690757 120.467368 
L 156.044504 121.793684 
L 156.39825 121.793684 
L 157.105744 120.467368 
L 157.45949 122.456842 
L 157.813237 123.12 
L 158.166984 119.141053 
L 158.52073 122.456842 
L 158.874477 122.456842 
L 159.228224 118.477895 
L 159.58197 121.793684 
L 159.935717 121.793684 
L 160.289464 107.204211 
L 160.64321 120.467368 
L 160.996957 121.793684 
L 161.350704 119.141053 
L 161.70445 122.456842 
L 162.058197 119.804211 
L 162.411944 122.456842 
L 162.76569 118.477895 
L 163.119437 120.467368 
L 163.473184 123.12 
L 163.82693 122.456842 
L 164.180677 115.162105 
L 164.534424 120.467368 
L 164.88817 122.456842 
L 165.241917 123.12 
L 165.595664 123.12 
L 165.94941 118.477895 
L 166.303157 123.12 
L 166.656904 123.12 
L 167.01065 121.130526 
L 167.364397 123.12 
L 167.718144 123.12 
L 168.425637 120.467368 
L 168.779384 123.12 
L 169.13313 121.793684 
L 169.840624 123.12 
L 170.19437 120.467368 
L 170.548117 123.12 
L 170.901864 123.12 
L 171.25561 122.456842 
L 171.609357 123.12 
L 171.963104 123.12 
L 172.316851 120.467368 
L 173.024344 123.12 
L 173.731837 121.793684 
L 174.085584 121.793684 
L 174.439331 122.456842 
L 174.793077 121.130526 
L 175.146824 122.456842 
L 175.500571 123.12 
L 176.208064 123.12 
L 176.561811 120.467368 
L 176.915557 123.12 
L 177.269304 122.456842 
L 177.623051 123.12 
L 177.976797 120.467368 
L 178.330544 121.793684 
L 178.684291 122.456842 
L 179.038037 122.456842 
L 179.391784 121.130526 
L 179.745531 122.456842 
L 180.099277 121.793684 
L 180.453024 121.793684 
L 180.806771 122.456842 
L 181.160517 122.456842 
L 181.514264 123.12 
L 181.868011 119.141053 
L 182.221757 122.456842 
L 182.575504 122.456842 
L 182.929251 123.12 
L 183.282997 122.456842 
L 183.636744 123.12 
L 183.990491 123.12 
L 184.697984 121.793684 
L 185.051731 116.488421 
L 185.405477 103.888421 
L 185.759224 123.12 
L 186.112971 122.456842 
L 186.466717 119.141053 
L 186.820464 120.467368 
L 187.174211 119.804211 
L 187.527957 114.498947 
L 187.881704 123.12 
L 188.235451 122.456842 
L 188.589197 121.130526 
L 188.942944 119.141053 
L 189.296691 116.488421 
L 189.650437 108.530526 
L 190.004184 113.835789 
L 190.357931 122.456842 
L 190.711677 101.235789 
L 191.065424 113.172632 
L 191.419171 118.477895 
L 191.772917 114.498947 
L 192.126664 120.467368 
L 192.480411 114.498947 
L 192.834157 115.162105 
L 193.187904 113.835789 
L 193.541651 108.530526 
L 193.895397 121.793684 
L 194.249144 119.141053 
L 194.602891 121.793684 
L 194.956638 123.12 
L 195.310384 120.467368 
L 195.664131 123.12 
L 196.017878 121.793684 
L 196.371624 123.12 
L 196.725371 122.456842 
L 197.079118 114.498947 
L 197.432864 121.793684 
L 197.786611 119.804211 
L 198.140358 121.130526 
L 198.494104 120.467368 
L 198.847851 123.12 
L 199.201598 119.141053 
L 199.555344 120.467368 
L 199.909091 122.456842 
L 200.262838 119.804211 
L 200.616584 123.12 
L 200.970331 121.793684 
L 201.324078 123.12 
L 201.677824 121.130526 
L 202.031571 122.456842 
L 202.385318 121.130526 
L 202.739064 120.467368 
L 203.092811 122.456842 
L 203.800304 122.456842 
L 204.154051 121.130526 
L 204.507798 120.467368 
L 204.861544 109.193684 
L 205.215291 110.52 
L 205.569038 121.793684 
L 205.922784 122.456842 
L 206.276531 119.804211 
L 206.630278 120.467368 
L 206.984024 119.141053 
L 207.337771 122.456842 
L 207.691518 123.12 
L 208.045264 119.804211 
L 208.399011 119.141053 
L 208.752758 117.151579 
L 209.106504 122.456842 
L 209.460251 120.467368 
L 209.813998 122.456842 
L 210.167744 122.456842 
L 210.521491 123.12 
L 211.228984 120.467368 
L 211.936478 123.12 
L 212.290224 121.793684 
L 212.643971 122.456842 
L 212.997718 119.141053 
L 213.351464 117.814737 
L 213.705211 119.141053 
L 214.058958 119.804211 
L 214.412704 118.477895 
L 214.766451 113.172632 
L 215.120198 119.804211 
L 215.473944 121.130526 
L 215.827691 120.467368 
L 216.181438 118.477895 
L 216.535184 113.835789 
L 216.888931 122.456842 
L 217.242678 121.793684 
L 217.596424 123.12 
L 217.950171 117.814737 
L 218.303918 118.477895 
L 218.657665 121.130526 
L 219.011411 117.151579 
L 219.365158 115.825263 
L 219.718905 122.456842 
L 220.072651 122.456842 
L 220.426398 117.151579 
L 220.780145 105.214737 
L 221.133891 114.498947 
L 221.487638 119.804211 
L 221.841385 120.467368 
L 222.195131 120.467368 
L 222.902625 121.793684 
L 223.256371 119.804211 
L 223.610118 119.804211 
L 223.963865 122.456842 
L 224.317611 122.456842 
L 224.671358 121.793684 
L 225.025105 122.456842 
L 225.378851 118.477895 
L 225.732598 118.477895 
L 226.086345 119.804211 
L 226.440091 117.814737 
L 226.793838 113.172632 
L 227.147585 118.477895 
L 227.501331 118.477895 
L 227.855078 121.793684 
L 228.208825 121.793684 
L 228.562571 119.141053 
L 228.916318 123.12 
L 229.270065 111.846316 
L 229.623811 110.52 
L 229.977558 119.804211 
L 230.331305 120.467368 
L 230.685051 114.498947 
L 231.392545 121.793684 
L 231.746291 120.467368 
L 232.100038 123.12 
L 232.453785 117.814737 
L 232.807531 109.193684 
L 233.161278 122.456842 
L 233.515025 121.793684 
L 234.222518 123.12 
L 234.576265 121.130526 
L 234.930011 110.52 
L 235.283758 118.477895 
L 235.637505 122.456842 
L 235.991251 122.456842 
L 236.344998 113.172632 
L 236.698745 121.793684 
L 237.052491 122.456842 
L 237.406238 121.793684 
L 238.821225 121.793684 
L 239.174971 120.467368 
L 239.528718 123.12 
L 239.882465 122.456842 
L 240.236211 122.456842 
L 240.589958 123.12 
L 240.943705 123.12 
L 241.297452 122.456842 
L 241.651198 123.12 
L 242.004945 119.804211 
L 242.358692 122.456842 
L 242.712438 120.467368 
L 243.066185 120.467368 
L 243.419932 119.141053 
L 243.773678 120.467368 
L 244.127425 123.12 
L 244.481172 121.793684 
L 245.188665 121.793684 
L 245.542412 123.12 
L 245.896158 122.456842 
L 246.249905 122.456842 
L 246.603652 121.130526 
L 246.957398 122.456842 
L 248.018638 122.456842 
L 248.372385 99.909474 
L 248.726132 120.467368 
L 249.079878 123.12 
L 249.433625 122.456842 
L 249.787372 121.130526 
L 250.141118 123.12 
L 250.494865 120.467368 
L 250.848612 122.456842 
L 251.202358 119.804211 
L 251.556105 119.141053 
L 251.909852 119.141053 
L 252.263598 118.477895 
L 252.617345 110.52 
L 252.971092 110.52 
L 253.324838 119.141053 
L 253.678585 121.130526 
L 254.032332 122.456842 
L 254.386078 112.509474 
L 254.739825 120.467368 
L 255.093572 122.456842 
L 255.447318 122.456842 
L 255.801065 121.793684 
L 256.154812 121.793684 
L 256.508558 122.456842 
L 256.862305 122.456842 
L 257.216052 120.467368 
L 257.569798 123.12 
L 257.923545 122.456842 
L 258.277292 120.467368 
L 258.631038 120.467368 
L 258.984785 121.793684 
L 259.692278 110.52 
L 260.046025 117.814737 
L 260.399772 117.151579 
L 260.753518 113.172632 
L 261.107265 115.825263 
L 261.814758 117.151579 
L 262.168505 116.488421 
L 262.522252 112.509474 
L 262.875998 114.498947 
L 263.229745 120.467368 
L 263.583492 121.130526 
L 263.937238 119.804211 
L 264.290985 119.804211 
L 264.644732 117.814737 
L 264.998479 119.141053 
L 265.352225 115.162105 
L 265.705972 118.477895 
L 266.059719 119.141053 
L 266.413465 116.488421 
L 266.767212 110.52 
L 267.120959 116.488421 
L 267.474705 119.141053 
L 268.182199 116.488421 
L 268.535945 119.141053 
L 268.889692 114.498947 
L 269.243439 116.488421 
L 269.597185 119.141053 
L 269.950932 114.498947 
L 270.304679 121.793684 
L 270.658425 120.467368 
L 271.012172 121.130526 
L 271.365919 118.477895 
L 271.719665 117.814737 
L 272.073412 107.204211 
L 272.427159 105.214737 
L 272.780905 117.151579 
L 273.134652 99.246316 
L 273.488399 121.793684 
L 273.842145 120.467368 
L 274.195892 121.793684 
L 274.549639 104.551579 
L 274.903385 105.214737 
L 275.610879 122.456842 
L 275.964625 120.467368 
L 276.318372 115.162105 
L 276.672119 120.467368 
L 277.025865 120.467368 
L 277.379612 105.214737 
L 277.733359 116.488421 
L 278.087105 118.477895 
L 278.794599 119.804211 
L 279.148345 119.804211 
L 279.502092 118.477895 
L 280.563332 122.456842 
L 280.917079 117.814737 
L 281.270825 122.456842 
L 281.624572 122.456842 
L 282.332065 121.130526 
L 282.685812 123.12 
L 283.039559 121.130526 
L 283.393305 119.804211 
L 283.747052 121.793684 
L 284.100799 122.456842 
L 284.454545 122.456842 
L 284.808292 117.814737 
L 285.162039 123.12 
L 285.515785 108.530526 
L 285.869532 121.793684 
L 286.223279 122.456842 
L 286.577025 120.467368 
L 286.930772 120.467368 
L 287.284519 121.130526 
L 287.638266 122.456842 
L 287.992012 118.477895 
L 288.345759 121.793684 
L 288.699506 120.467368 
L 289.053252 121.130526 
L 289.406999 107.867368 
L 289.760746 121.793684 
L 290.114492 119.804211 
L 290.468239 123.12 
L 290.821986 123.12 
L 291.175732 122.456842 
L 291.529479 117.814737 
L 291.883226 122.456842 
L 292.236972 118.477895 
L 292.590719 120.467368 
L 292.944466 123.12 
L 293.298212 120.467368 
L 294.005706 120.467368 
L 294.359452 118.477895 
L 294.713199 117.151579 
L 295.066946 121.130526 
L 295.420692 121.130526 
L 295.774439 120.467368 
L 296.128186 121.793684 
L 296.481932 121.793684 
L 296.835679 120.467368 
L 297.189426 118.477895 
L 297.543172 118.477895 
L 297.896919 119.804211 
L 298.250666 122.456842 
L 298.958159 122.456842 
L 299.311906 110.52 
L 299.665652 82.667368 
L 300.019399 95.930526 
L 300.373146 119.804211 
L 300.726892 121.793684 
L 301.080639 120.467368 
L 301.788132 111.183158 
L 302.141879 119.141053 
L 302.849372 93.277895 
L 303.203119 120.467368 
L 303.556866 92.614737 
L 303.910612 115.162105 
L 304.264359 122.456842 
L 304.618106 84.656842 
L 304.971852 105.877895 
L 305.325599 113.172632 
L 305.679346 80.677895 
L 306.033092 119.804211 
L 306.386839 120.467368 
L 306.740586 105.214737 
L 307.094332 114.498947 
L 307.448079 103.225263 
L 307.801826 114.498947 
L 308.155572 121.130526 
L 308.509319 66.088421 
L 308.863066 119.804211 
L 309.216812 120.467368 
L 309.570559 120.467368 
L 309.924306 115.825263 
L 310.278052 119.141053 
L 310.631799 109.856842 
L 310.985546 119.141053 
L 311.339293 121.130526 
L 311.693039 105.877895 
L 312.046786 105.877895 
L 312.400533 115.825263 
L 312.754279 103.888421 
L 313.108026 119.804211 
L 313.461773 120.467368 
L 313.815519 105.877895 
L 314.169266 123.12 
L 314.523013 121.793684 
L 314.876759 121.130526 
L 315.230506 119.804211 
L 315.584253 121.793684 
L 315.937999 121.130526 
L 316.291746 119.804211 
L 316.645493 116.488421 
L 316.999239 118.477895 
L 317.352986 112.509474 
L 318.060479 122.456842 
L 318.414226 123.12 
L 318.767973 117.814737 
L 319.475466 121.793684 
L 319.829213 123.12 
L 320.182959 119.804211 
L 320.536706 122.456842 
L 320.890453 119.804211 
L 321.244199 123.12 
L 321.951693 121.793684 
L 322.305439 123.12 
L 322.659186 123.12 
L 323.012933 121.793684 
L 323.720426 120.467368 
L 324.074173 120.467368 
L 324.427919 121.130526 
L 324.781666 121.130526 
L 325.135413 123.12 
L 325.489159 121.793684 
L 325.842906 100.572632 
L 326.196653 121.130526 
L 326.550399 122.456842 
L 327.257893 122.456842 
L 327.611639 119.141053 
L 327.965386 119.804211 
L 328.319133 112.509474 
L 328.672879 121.793684 
L 329.026626 118.477895 
L 329.380373 122.456842 
L 329.734119 123.12 
L 330.087866 121.130526 
L 330.441613 121.793684 
L 330.795359 118.477895 
L 331.149106 119.804211 
L 331.502853 121.793684 
L 331.856599 122.456842 
L 332.210346 121.793684 
L 332.564093 119.141053 
L 332.917839 120.467368 
L 333.271586 119.804211 
L 333.625333 121.130526 
L 333.979079 117.814737 
L 334.332826 119.141053 
L 334.686573 123.12 
L 335.04032 119.804211 
L 335.394066 120.467368 
L 335.747813 113.172632 
L 336.10156 122.456842 
L 336.455306 119.804211 
L 336.809053 119.804211 
L 337.1628 120.467368 
L 337.516546 113.835789 
L 337.870293 103.225263 
L 338.22404 120.467368 
L 338.577786 122.456842 
L 338.931533 118.477895 
L 339.28528 121.793684 
L 339.639026 121.130526 
L 339.992773 121.130526 
L 340.34652 123.12 
L 341.054013 121.793684 
L 341.40776 120.467368 
L 341.761506 122.456842 
L 342.115253 120.467368 
L 342.469 122.456842 
L 342.822746 120.467368 
L 343.176493 123.12 
L 343.53024 120.467368 
L 343.883986 121.793684 
L 344.237733 121.793684 
L 344.59148 120.467368 
L 344.945226 123.12 
L 345.298973 120.467368 
L 345.65272 121.793684 
L 346.006466 117.814737 
L 346.360213 122.456842 
L 346.71396 117.151579 
L 347.067706 103.225263 
L 347.421453 122.456842 
L 347.7752 123.12 
L 348.128946 121.793684 
L 348.482693 118.477895 
L 348.83644 121.793684 
L 349.543933 123.12 
L 349.89768 117.814737 
L 350.251426 121.793684 
L 350.605173 121.130526 
L 351.312666 110.52 
L 351.666413 119.141053 
L 352.02016 121.793684 
L 352.373906 121.793684 
L 352.727653 118.477895 
L 353.0814 95.930526 
L 353.435146 112.509474 
L 353.788893 118.477895 
L 354.14264 121.130526 
L 354.496386 121.130526 
L 354.850133 101.898947 
L 355.20388 120.467368 
L 355.557626 122.456842 
L 356.26512 122.456842 
L 356.618866 121.130526 
L 356.972613 120.467368 
L 357.32636 121.793684 
L 357.680107 119.804211 
L 358.033853 121.130526 
L 358.3876 123.12 
L 358.741347 121.793684 
L 359.095093 119.141053 
L 359.44884 121.793684 
L 359.802587 118.477895 
L 360.156333 118.477895 
L 360.51008 119.804211 
L 360.863827 121.793684 
L 361.217573 109.856842 
L 361.57132 120.467368 
L 361.925067 112.509474 
L 362.278813 118.477895 
L 362.63256 119.804211 
L 362.986307 113.172632 
L 363.340053 121.793684 
L 364.047547 115.825263 
L 364.401293 120.467368 
L 364.75504 117.814737 
L 365.108787 112.509474 
L 365.462533 111.846316 
L 365.81628 119.804211 
L 366.170027 107.867368 
L 366.523773 113.172632 
L 366.87752 121.130526 
L 367.231267 111.846316 
L 367.585013 122.456842 
L 367.93876 121.793684 
L 368.292507 115.825263 
L 368.646253 117.814737 
L 369 104.551579 
L 369.353747 115.825263 
L 369.707493 115.162105 
L 370.06124 115.162105 
L 370.414987 116.488421 
L 370.768733 119.804211 
L 371.12248 120.467368 
L 371.476227 118.477895 
L 371.829973 119.804211 
L 372.18372 114.498947 
L 372.537467 120.467368 
L 372.891213 116.488421 
L 373.24496 111.183158 
L 373.598707 116.488421 
L 373.952453 117.151579 
L 374.3062 116.488421 
L 374.659947 122.456842 
L 375.013693 118.477895 
L 375.36744 121.793684 
L 375.721187 121.130526 
L 376.074933 115.162105 
L 376.42868 114.498947 
L 376.782427 104.551579 
L 377.136173 114.498947 
L 377.48992 112.509474 
L 377.843667 119.141053 
L 378.197413 120.467368 
L 378.55116 119.804211 
L 378.904907 119.804211 
L 379.258653 122.456842 
L 379.6124 119.804211 
L 379.966147 111.183158 
L 380.319893 119.804211 
L 381.027387 119.804211 
L 381.381134 122.456842 
L 381.73488 123.12 
L 382.088627 122.456842 
L 382.442374 119.141053 
L 382.79612 109.193684 
L 383.149867 120.467368 
L 383.503614 120.467368 
L 383.85736 123.12 
L 384.211107 123.12 
L 384.564854 101.898947 
L 385.272347 118.477895 
L 385.626094 114.498947 
L 386.333587 122.456842 
L 386.687334 121.793684 
L 387.04108 122.456842 
L 387.394827 117.151579 
L 387.748574 122.456842 
L 388.10232 121.130526 
L 388.456067 121.793684 
L 388.809814 123.12 
L 389.16356 103.888421 
L 389.517307 120.467368 
L 389.871054 113.172632 
L 390.2248 113.172632 
L 390.578547 115.825263 
L 390.932294 121.130526 
L 391.28604 121.793684 
L 391.639787 117.151579 
L 391.993534 119.141053 
L 392.34728 118.477895 
L 392.701027 117.151579 
L 393.054774 122.456842 
L 393.40852 120.467368 
L 393.762267 121.793684 
L 394.46976 123.12 
L 395.884747 120.467368 
L 396.59224 107.867368 
L 396.945987 119.141053 
L 397.299734 117.151579 
L 397.65348 122.456842 
L 398.007227 117.151579 
L 398.360974 123.12 
L 398.71472 121.793684 
L 399.422214 120.467368 
L 399.77596 121.130526 
L 400.129707 120.467368 
L 400.483454 119.141053 
L 400.8372 109.856842 
L 401.190947 119.141053 
L 401.544694 118.477895 
L 401.89844 108.530526 
L 402.252187 122.456842 
L 402.605934 115.825263 
L 402.95968 122.456842 
L 403.313427 119.141053 
L 403.667174 121.793684 
L 404.020921 123.12 
L 404.374667 121.130526 
L 404.728414 122.456842 
L 405.082161 120.467368 
L 405.435907 123.12 
L 406.143401 123.12 
L 406.497147 120.467368 
L 406.850894 123.12 
L 407.204641 119.141053 
L 407.558387 123.12 
L 407.912134 122.456842 
L 408.265881 120.467368 
L 408.619627 109.856842 
L 408.973374 123.12 
L 409.327121 123.12 
L 409.680867 113.835789 
L 410.034614 114.498947 
L 410.388361 112.509474 
L 410.742107 115.162105 
L 411.095854 122.456842 
L 411.449601 113.835789 
L 411.803347 120.467368 
L 412.157094 121.793684 
L 412.510841 122.456842 
L 412.864587 122.456842 
L 413.218334 123.12 
L 413.572081 122.456842 
L 413.925827 119.804211 
L 414.279574 121.793684 
L 414.987067 123.12 
L 415.340814 123.12 
L 415.694561 118.477895 
L 416.048307 119.141053 
L 416.402054 121.793684 
L 417.109547 121.793684 
L 417.463294 121.130526 
L 417.817041 121.130526 
L 418.170787 117.151579 
L 418.524534 122.456842 
L 418.878281 107.867368 
L 419.232027 119.141053 
L 419.585774 122.456842 
L 419.939521 119.804211 
L 420.293267 120.467368 
L 421.000761 114.498947 
L 421.354507 119.141053 
L 421.708254 106.541053 
L 422.062001 123.12 
L 422.415747 118.477895 
L 423.123241 105.877895 
L 423.476987 112.509474 
L 423.830734 88.635789 
L 424.184481 117.151579 
L 424.538227 123.12 
L 424.891974 97.92 
L 425.245721 114.498947 
L 425.599467 111.183158 
L 425.953214 112.509474 
L 426.306961 118.477895 
L 426.660707 115.162105 
L 427.014454 122.456842 
L 427.368201 109.193684 
L 427.721948 113.835789 
L 428.075694 113.835789 
L 428.429441 109.856842 
L 428.783188 110.52 
L 429.136934 121.793684 
L 429.490681 123.12 
L 429.844428 96.593684 
L 430.198174 36.909474 
L 430.551921 105.214737 
L 430.905668 109.193684 
L 431.259414 108.530526 
L 431.613161 120.467368 
L 431.966908 121.130526 
L 432.674401 80.677895 
L 433.028148 112.509474 
L 433.381894 110.52 
L 433.735641 106.541053 
L 434.089388 120.467368 
L 434.443134 123.12 
L 434.796881 91.288421 
L 435.504374 95.267368 
L 436.211868 120.467368 
L 436.565614 121.793684 
L 436.919361 122.456842 
L 437.273108 118.477895 
L 437.626854 109.193684 
L 437.980601 114.498947 
L 438.334348 95.267368 
L 438.688094 97.256842 
L 439.041841 121.793684 
L 439.395588 120.467368 
L 439.749334 104.551579 
L 440.103081 116.488421 
L 440.456828 100.572632 
L 440.810574 117.151579 
L 441.164321 123.12 
L 441.518068 123.12 
L 441.871814 117.151579 
L 442.225561 107.867368 
L 442.579308 119.141053 
L 442.933054 119.141053 
L 443.286801 121.793684 
L 443.640548 123.12 
L 443.994294 123.12 
L 444.348041 121.793684 
L 444.701788 115.162105 
L 445.055534 121.130526 
L 445.409281 123.12 
L 445.763028 102.562105 
L 446.116774 118.477895 
L 446.470521 117.151579 
L 446.824268 99.909474 
L 447.178014 115.825263 
L 447.531761 122.456842 
L 447.885508 121.130526 
L 448.239254 123.12 
L 448.593001 121.793684 
L 448.946748 103.888421 
L 449.300494 101.898947 
L 449.654241 116.488421 
L 450.007988 111.846316 
L 450.361734 117.814737 
L 450.715481 109.193684 
L 451.069228 121.130526 
L 451.422975 115.825263 
L 451.776721 121.793684 
L 452.130468 121.130526 
L 452.484215 121.793684 
L 452.837961 123.12 
L 453.191708 107.867368 
L 453.545455 113.172632 
L 453.899201 121.130526 
L 454.252948 122.456842 
L 455.314188 122.456842 
L 455.667935 119.804211 
L 456.021681 98.583158 
L 456.375428 119.141053 
L 456.729175 113.172632 
L 457.082921 119.141053 
L 457.436668 120.467368 
L 457.790415 121.130526 
L 458.144161 119.804211 
L 458.497908 121.793684 
L 458.851655 122.456842 
L 459.205401 120.467368 
L 459.559148 122.456842 
L 459.912895 111.846316 
L 460.266641 119.804211 
L 460.620388 118.477895 
L 460.974135 121.130526 
L 461.327881 99.909474 
L 461.681628 120.467368 
L 462.035375 121.130526 
L 462.389121 119.804211 
L 462.742868 121.130526 
L 463.096615 119.804211 
L 463.450361 101.235789 
L 463.804108 117.151579 
L 464.157855 119.141053 
L 464.511601 120.467368 
L 464.865348 117.151579 
L 465.219095 120.467368 
L 465.572841 120.467368 
L 465.926588 121.130526 
L 466.280335 119.804211 
L 466.634081 119.804211 
L 466.987828 121.130526 
L 467.341575 119.804211 
L 467.695321 119.804211 
L 468.049068 120.467368 
L 468.402815 110.52 
L 468.756561 115.162105 
L 469.110308 122.456842 
L 469.464055 121.793684 
L 469.817801 120.467368 
L 470.171548 121.793684 
L 470.525295 120.467368 
L 470.879041 121.793684 
L 471.232788 117.151579 
L 471.586535 116.488421 
L 471.940281 111.846316 
L 472.294028 119.804211 
L 472.647775 121.130526 
L 473.355268 116.488421 
L 473.709015 119.141053 
L 474.062762 119.804211 
L 474.416508 121.793684 
L 474.770255 121.793684 
L 475.124002 117.151579 
L 475.477748 96.593684 
L 475.831495 118.477895 
L 476.185242 118.477895 
L 476.538988 116.488421 
L 476.892735 121.130526 
L 477.246482 121.130526 
L 477.600228 118.477895 
L 477.953975 121.130526 
L 478.307722 87.309474 
L 478.661468 121.130526 
L 479.015215 122.456842 
L 479.368962 121.793684 
L 479.722708 121.793684 
L 480.076455 105.877895 
L 480.430202 115.162105 
L 480.783948 120.467368 
L 481.137695 121.793684 
L 481.491442 122.456842 
L 481.845188 113.835789 
L 482.198935 119.804211 
L 482.552682 122.456842 
L 482.906428 109.193684 
L 483.260175 116.488421 
L 483.613922 119.804211 
L 483.967668 101.898947 
L 484.321415 122.456842 
L 484.675162 123.12 
L 485.028908 121.130526 
L 485.736402 122.456842 
L 486.090148 119.804211 
L 486.443895 119.141053 
L 486.797642 121.130526 
L 487.151388 122.456842 
L 487.505135 121.793684 
L 487.858882 122.456842 
L 488.212628 122.456842 
L 488.566375 123.12 
L 488.920122 123.12 
L 489.273868 120.467368 
L 489.627615 74.046316 
L 489.981362 112.509474 
L 490.335108 113.835789 
L 490.688855 117.151579 
L 491.042602 109.193684 
L 491.396348 113.835789 
L 491.750095 113.835789 
L 492.103842 107.204211 
L 492.457588 118.477895 
L 492.811335 107.867368 
L 493.165082 121.130526 
L 493.518828 117.814737 
L 493.872575 116.488421 
L 494.226322 121.130526 
L 494.580068 119.804211 
L 494.933815 117.814737 
L 495.287562 120.467368 
L 495.641308 121.130526 
L 495.995055 107.204211 
L 496.348802 118.477895 
L 496.702548 107.867368 
L 497.056295 117.814737 
L 497.410042 109.856842 
L 497.763789 118.477895 
L 498.117535 119.141053 
L 498.471282 110.52 
L 498.825029 111.183158 
L 499.178775 118.477895 
L 499.532522 121.130526 
L 499.886269 117.814737 
L 500.240015 118.477895 
L 500.593762 123.12 
L 500.947509 118.477895 
L 501.301255 100.572632 
L 501.655002 117.151579 
L 502.008749 119.141053 
L 502.362495 115.825263 
L 502.716242 118.477895 
L 503.069989 119.804211 
L 503.423735 110.52 
L 503.777482 119.141053 
L 504.131229 109.856842 
L 504.484975 117.151579 
L 504.838722 118.477895 
L 505.192469 109.856842 
L 505.546215 118.477895 
L 505.899962 99.246316 
L 506.253709 105.877895 
L 506.607455 117.151579 
L 507.314949 118.477895 
L 507.668695 99.246316 
L 508.022442 93.941053 
L 508.376189 112.509474 
L 508.729935 121.130526 
L 509.437429 119.804211 
L 509.791175 115.825263 
L 510.144922 113.172632 
L 510.498669 112.509474 
L 510.852415 47.52 
L 511.206162 93.941053 
L 511.559909 114.498947 
L 512.267402 120.467368 
L 512.621149 111.183158 
L 512.974895 108.530526 
L 513.328642 103.888421 
L 513.682389 118.477895 
L 514.036135 119.804211 
L 514.389882 117.814737 
L 514.743629 114.498947 
L 515.097375 113.172632 
L 515.451122 115.825263 
L 516.158615 93.941053 
L 516.512362 121.130526 
L 516.866109 122.456842 
L 517.219855 114.498947 
L 517.573602 120.467368 
L 517.927349 109.856842 
L 518.281095 120.467368 
L 518.634842 116.488421 
L 518.988589 119.804211 
L 519.342335 121.793684 
L 519.696082 115.162105 
L 520.049829 121.793684 
L 520.403576 120.467368 
L 520.757322 117.151579 
L 521.464816 123.12 
L 521.818562 122.456842 
L 522.172309 113.835789 
L 522.526056 120.467368 
L 522.879802 117.814737 
L 523.233549 119.141053 
L 523.587296 117.151579 
L 523.941042 118.477895 
L 524.294789 106.541053 
L 524.648536 120.467368 
L 525.002282 116.488421 
L 525.356029 120.467368 
L 525.709776 121.130526 
L 526.063522 119.804211 
L 526.417269 107.867368 
L 526.771016 123.12 
L 527.124762 111.846316 
L 527.478509 123.12 
L 527.832256 112.509474 
L 528.186002 62.772632 
L 528.539749 107.867368 
L 528.893496 121.130526 
L 529.247242 112.509474 
L 529.600989 116.488421 
L 529.954736 117.814737 
L 530.308482 121.130526 
L 530.662229 119.804211 
L 531.015976 80.677895 
L 531.369722 118.477895 
L 531.723469 115.162105 
L 532.077216 119.141053 
L 532.430962 114.498947 
L 532.784709 122.456842 
L 533.138456 118.477895 
L 533.492202 115.825263 
L 533.845949 118.477895 
L 534.553442 114.498947 
L 534.907189 121.793684 
L 535.260936 123.12 
L 535.614682 122.456842 
L 535.968429 121.130526 
L 536.322176 96.593684 
L 536.675922 115.825263 
L 537.029669 118.477895 
L 537.383416 119.804211 
L 537.737162 92.614737 
L 538.090909 115.825263 
L 538.444656 98.583158 
L 538.798402 120.467368 
L 539.152149 115.162105 
L 539.505896 113.172632 
L 539.859642 119.804211 
L 540.213389 121.130526 
L 540.567136 91.288421 
L 540.920882 122.456842 
L 541.274629 101.898947 
L 541.628376 93.941053 
L 541.982122 122.456842 
L 542.335869 115.162105 
L 542.689616 117.814737 
L 543.397109 100.572632 
L 543.750856 119.141053 
L 544.104603 105.877895 
L 544.458349 115.162105 
L 544.812096 117.151579 
L 545.165843 99.246316 
L 545.519589 119.804211 
L 545.873336 121.130526 
L 546.934576 101.235789 
L 547.642069 121.130526 
L 547.995816 111.183158 
L 548.349563 122.456842 
L 548.703309 117.814737 
L 549.057056 107.204211 
L 549.410803 89.962105 
L 549.764549 95.930526 
L 550.118296 97.256842 
L 550.472043 121.130526 
L 550.825789 121.130526 
L 551.179536 91.951579 
L 551.533283 107.867368 
L 551.887029 109.856842 
L 552.240776 122.456842 
L 552.594523 119.141053 
L 552.948269 104.551579 
L 553.302016 103.888421 
L 553.655763 103.888421 
L 554.009509 114.498947 
L 554.363256 108.530526 
L 554.717003 116.488421 
L 555.070749 107.867368 
L 555.424496 119.804211 
L 555.778243 121.130526 
L 556.131989 121.793684 
L 556.485736 119.804211 
L 556.839483 115.162105 
L 557.193229 115.162105 
L 557.900723 120.467368 
L 558.254469 121.793684 
L 558.608216 115.825263 
L 558.961963 105.877895 
L 559.315709 119.804211 
L 559.669456 117.151579 
L 560.023203 98.583158 
L 560.376949 123.12 
L 560.730696 121.130526 
L 561.084443 107.867368 
L 561.438189 105.214737 
L 562.145683 120.467368 
L 562.499429 109.193684 
L 562.853176 122.456842 
L 563.206923 119.141053 
L 563.560669 105.214737 
L 563.914416 114.498947 
L 564.268163 64.762105 
L 564.621909 107.204211 
L 564.975656 97.256842 
L 565.329403 114.498947 
L 565.683149 118.477895 
L 566.036896 115.162105 
L 566.390643 101.898947 
L 566.74439 114.498947 
L 567.098136 81.341053 
L 567.451883 104.551579 
L 567.80563 114.498947 
L 568.159376 101.898947 
L 568.513123 97.256842 
L 568.86687 90.625263 
L 569.220616 119.141053 
L 569.574363 114.498947 
L 569.92811 107.204211 
L 570.281856 119.141053 
L 570.635603 113.172632 
L 570.98935 119.804211 
L 571.343096 75.372632 
L 571.696843 95.267368 
L 572.05059 95.267368 
L 572.404336 107.204211 
L 572.758083 123.12 
L 573.11183 122.456842 
L 573.465576 99.246316 
L 573.819323 117.814737 
L 574.17307 108.530526 
L 574.880563 116.488421 
L 575.588056 117.814737 
L 575.941803 92.614737 
L 576.29555 108.530526 
L 576.649296 96.593684 
L 577.003043 108.530526 
L 577.35679 94.604211 
L 577.710536 115.162105 
L 578.064283 113.172632 
L 578.41803 89.962105 
L 578.771776 115.825263 
L 579.125523 103.225263 
L 579.833016 91.951579 
L 580.186763 118.477895 
L 580.54051 119.141053 
L 580.894256 116.488421 
L 581.248003 119.141053 
L 581.60175 102.562105 
L 581.955496 22.32 
L 582.309243 89.298947 
L 582.66299 121.130526 
L 583.016736 119.141053 
L 583.370483 110.52 
L 583.72423 95.930526 
L 584.077976 115.162105 
L 584.431723 113.835789 
L 584.78547 95.267368 
L 585.139216 121.130526 
L 585.492963 97.92 
L 585.84671 117.151579 
L 586.200456 122.456842 
L 586.554203 123.12 
L 587.261696 102.562105 
L 587.615443 108.530526 
L 587.96919 96.593684 
L 588.322936 103.225263 
L 588.676683 78.025263 
L 589.03043 85.983158 
L 589.384176 114.498947 
L 589.737923 116.488421 
L 590.09167 121.793684 
L 590.445417 103.225263 
L 591.15291 83.330526 
L 591.506657 99.909474 
L 591.860403 76.698947 
L 592.21415 113.835789 
L 592.567897 114.498947 
L 592.921643 72.056842 
L 593.27539 90.625263 
L 593.629137 91.951579 
L 593.982883 101.235789 
L 594.33663 101.898947 
L 594.690377 121.130526 
L 595.044123 118.477895 
L 595.39787 99.909474 
L 595.751617 93.941053 
L 596.105363 83.330526 
L 596.45911 95.930526 
L 596.812857 92.614737 
L 597.166603 119.141053 
L 597.52035 120.467368 
L 597.874097 88.635789 
L 598.227843 70.730526 
L 598.58159 95.267368 
L 598.935337 90.625263 
L 599.289083 91.951579 
L 599.64283 102.562105 
L 599.996577 105.214737 
L 600.70407 82.667368 
L 601.057817 90.625263 
L 601.411563 40.225263 
L 601.76531 77.362105 
L 602.119057 71.393684 
L 602.472803 93.277895 
L 602.82655 57.467368 
L 603.180297 72.056842 
L 603.534043 60.12 
L 603.88779 82.004211 
L 604.241537 68.741053 
L 604.595283 77.362105 
L 604.94903 117.151579 
L 605.302777 87.309474 
L 605.656523 105.214737 
L 606.01027 48.846316 
L 606.717763 83.993684 
L 607.07151 91.288421 
L 607.425257 118.477895 
L 607.779003 65.425263 
L 608.13275 85.983158 
L 608.840243 62.109474 
L 609.547737 114.498947 
L 609.901483 114.498947 
L 610.25523 106.541053 
L 610.608977 111.846316 
L 610.962723 109.856842 
L 611.31647 70.067368 
L 611.670217 116.488421 
L 612.023963 118.477895 
L 612.37771 117.814737 
L 612.731457 120.467368 
L 613.085203 119.804211 
L 613.43895 113.835789 
L 613.792697 78.688421 
L 614.146444 101.898947 
L 614.50019 100.572632 
L 614.853937 85.983158 
L 615.207684 82.004211 
L 615.56143 59.456842 
L 615.915177 53.488421 
L 616.268924 110.52 
L 616.62267 56.141053 
L 616.976417 106.541053 
L 617.330164 120.467368 
L 617.68391 70.067368 
L 618.037657 56.141053 
L 618.74515 87.309474 
L 619.098897 83.330526 
L 619.452644 101.898947 
L 619.80639 56.141053 
L 620.160137 80.677895 
L 620.513884 44.204211 
L 620.86763 94.604211 
L 621.575124 56.804211 
L 621.92887 109.193684 
L 622.282617 111.183158 
L 622.636364 79.351579 
L 622.636364 79.351579 
" clip-path="url(#pf1abb999db)" style="fill: none; stroke: #1f77b4; stroke-width: 1.5; stroke-linecap: square"/>
   </g>
   <g id="patch_3">
    <path d="M 90 128.16 
L 90 17.28 
" style="fill: none; stroke: #000000; stroke-width: 0.8; stroke-linejoin: miter; stroke-linecap: square"/>
   </g>
   <g id="patch_4">
    <path d="M 648 128.16 
L 648 17.28 
" style="fill: none; stroke: #000000; stroke-width: 0.8; stroke-linejoin: miter; stroke-linecap: square"/>
   </g>
   <g id="patch_5">
    <path d="M 90 128.16 
L 648 128.16 
" style="fill: none; stroke: #000000; stroke-width: 0.8; stroke-linejoin: miter; stroke-linecap: square"/>
   </g>
   <g id="patch_6">
    <path d="M 90 17.28 
L 648 17.28 
" style="fill: none; stroke: #000000; stroke-width: 0.8; stroke-linejoin: miter; stroke-linecap: square"/>
   </g>
   <g id="legend_1">
    <g id="patch_7">
     <path d="M 97 39.958125 
L 264.190625 39.958125 
Q 266.190625 39.958125 266.190625 37.958125 
L 266.190625 24.28 
Q 266.190625 22.28 264.190625 22.28 
L 97 22.28 
Q 95 22.28 95 24.28 
L 95 37.958125 
Q 95 39.958125 97 39.958125 
z
" style="fill: #ffffff; opacity: 0.8; stroke: #cccccc; stroke-linejoin: miter"/>
    </g>
    <g id="line2d_14">
     <path d="M 99 30.378437 
L 109 30.378437 
L 119 30.378437 
" style="fill: none; stroke: #1f77b4; stroke-width: 1.5; stroke-linecap: square"/>
    </g>
    <g id="text_14">
     <!-- Number of PyPI Downloads -->
     <g transform="translate(127 33.878437) scale(0.1 -0.1)">
      <defs>
       <path id="DejaVuSans-4e" d="M 628 4666 
L 1478 4666 
L 3547 763 
L 3547 4666 
L 4159 4666 
L 4159 0 
L 3309 0 
L 1241 3903 
L 1241 0 
L 628 0 
L 628 4666 
z
" transform="scale(0.015625)"/>
       <path id="DejaVuSans-75" d="M 544 1381 
L 544 3500 
L 1119 3500 
L 1119 1403 
Q 1119 906 1312 657 
Q 1506 409 1894 409 
Q 2359 409 2629 706 
Q 2900 1003 2900 1516 
L 2900 3500 
L 3475 3500 
L 3475 0 
L 2900 0 
L 2900 538 
Q 2691 219 2414 64 
Q 2138 -91 1772 -91 
Q 1169 -91 856 284 
Q 544 659 544 1381 
z
M 1991 3584 
L 1991 3584 
z
" transform="scale(0.015625)"/>
       <path id="DejaVuSans-6d" d="M 3328 2828 
Q 3544 3216 3844 3400 
Q 4144 3584 4550 3584 
Q 5097 3584 5394 3201 
Q 5691 2819 5691 2113 
L 5691 0 
L 5113 0 
L 5113 2094 
Q 5113 2597 4934 2840 
Q 4756 3084 4391 3084 
Q 3944 3084 3684 2787 
Q 3425 2491 3425 1978 
L 3425 0 
L 2847 0 
L 2847 2094 
Q 2847 2600 2669 2842 
Q 2491 3084 2119 3084 
Q 1678 3084 1418 2786 
Q 1159 2488 1159 1978 
L 1159 0 
L 581 0 
L 581 3500 
L 1159 3500 
L 1159 2956 
Q 1356 3278 1631 3431 
Q 1906 3584 2284 3584 
Q 2666 3584 2933 3390 
Q 3200 3197 3328 2828 
z
" transform="scale(0.015625)"/>
       <path id="DejaVuSans-62" d="M 3116 1747 
Q 3116 2381 2855 2742 
Q 2594 3103 2138 3103 
Q 1681 3103 1420 2742 
Q 1159 2381 1159 1747 
Q 1159 1113 1420 752 
Q 1681 391 2138 391 
Q 2594 391 2855 752 
Q 3116 1113 3116 1747 
z
M 1159 2969 
Q 1341 3281 1617 3432 
Q 1894 3584 2278 3584 
Q 2916 3584 3314 3078 
Q 3713 2572 3713 1747 
Q 3713 922 3314 415 
Q 2916 -91 2278 -91 
Q 1894 -91 1617 61 
Q 1341 213 1159 525 
L 1159 0 
L 581 0 
L 581 4863 
L 1159 4863 
L 1159 2969 
z
" transform="scale(0.015625)"/>
       <path id="DejaVuSans-72" d="M 2631 2963 
Q 2534 3019 2420 3045 
Q 2306 3072 2169 3072 
Q 1681 3072 1420 2755 
Q 1159 2438 1159 1844 
L 1159 0 
L 581 0 
L 581 3500 
L 1159 3500 
L 1159 2956 
Q 1341 3275 1631 3429 
Q 1922 3584 2338 3584 
Q 2397 3584 2469 3576 
Q 2541 3569 2628 3553 
L 2631 2963 
z
" transform="scale(0.015625)"/>
       <path id="DejaVuSans-20" transform="scale(0.015625)"/>
       <path id="DejaVuSans-6f" d="M 1959 3097 
Q 1497 3097 1228 2736 
Q 959 2375 959 1747 
Q 959 1119 1226 758 
Q 1494 397 1959 397 
Q 2419 397 2687 759 
Q 2956 1122 2956 1747 
Q 2956 2369 2687 2733 
Q 2419 3097 1959 3097 
z
M 1959 3584 
Q 2709 3584 3137 3096 
Q 3566 2609 3566 1747 
Q 3566 888 3137 398 
Q 2709 -91 1959 -91 
Q 1206 -91 779 398 
Q 353 888 353 1747 
Q 353 2609 779 3096 
Q 1206 3584 1959 3584 
z
" transform="scale(0.015625)"/>
       <path id="DejaVuSans-66" d="M 2375 4863 
L 2375 4384 
L 1825 4384 
Q 1516 4384 1395 4259 
Q 1275 4134 1275 3809 
L 1275 3500 
L 2222 3500 
L 2222 3053 
L 1275 3053 
L 1275 0 
L 697 0 
L 697 3053 
L 147 3053 
L 147 3500 
L 697 3500 
L 697 3744 
Q 697 4328 969 4595 
Q 1241 4863 1831 4863 
L 2375 4863 
z
" transform="scale(0.015625)"/>
       <path id="DejaVuSans-50" d="M 1259 4147 
L 1259 2394 
L 2053 2394 
Q 2494 2394 2734 2622 
Q 2975 2850 2975 3272 
Q 2975 3691 2734 3919 
Q 2494 4147 2053 4147 
L 1259 4147 
z
M 628 4666 
L 2053 4666 
Q 2838 4666 3239 4311 
Q 3641 3956 3641 3272 
Q 3641 2581 3239 2228 
Q 2838 1875 2053 1875 
L 1259 1875 
L 1259 0 
L 628 0 
L 628 4666 
z
" transform="scale(0.015625)"/>
       <path id="DejaVuSans-79" d="M 2059 -325 
Q 1816 -950 1584 -1140 
Q 1353 -1331 966 -1331 
L 506 -1331 
L 506 -850 
L 844 -850 
Q 1081 -850 1212 -737 
Q 1344 -625 1503 -206 
L 1606 56 
L 191 3500 
L 800 3500 
L 1894 763 
L 2988 3500 
L 3597 3500 
L 2059 -325 
z
" transform="scale(0.015625)"/>
       <path id="DejaVuSans-49" d="M 628 4666 
L 1259 4666 
L 1259 0 
L 628 0 
L 628 4666 
z
" transform="scale(0.015625)"/>
       <path id="DejaVuSans-44" d="M 1259 4147 
L 1259 519 
L 2022 519 
Q 2988 519 3436 956 
Q 3884 1394 3884 2338 
Q 3884 3275 3436 3711 
Q 2988 4147 2022 4147 
L 1259 4147 
z
M 628 4666 
L 1925 4666 
Q 3281 4666 3915 4102 
Q 4550 3538 4550 2338 
Q 4550 1131 3912 565 
Q 3275 0 1925 0 
L 628 0 
L 628 4666 
z
" transform="scale(0.015625)"/>
       <path id="DejaVuSans-77" d="M 269 3500 
L 844 3500 
L 1563 769 
L 2278 3500 
L 2956 3500 
L 3675 769 
L 4391 3500 
L 4966 3500 
L 4050 0 
L 3372 0 
L 2619 2869 
L 1863 0 
L 1184 0 
L 269 3500 
z
" transform="scale(0.015625)"/>
       <path id="DejaVuSans-6e" d="M 3513 2113 
L 3513 0 
L 2938 0 
L 2938 2094 
Q 2938 2591 2744 2837 
Q 2550 3084 2163 3084 
Q 1697 3084 1428 2787 
Q 1159 2491 1159 1978 
L 1159 0 
L 581 0 
L 581 3500 
L 1159 3500 
L 1159 2956 
Q 1366 3272 1645 3428 
Q 1925 3584 2291 3584 
Q 2894 3584 3203 3211 
Q 3513 2838 3513 2113 
z
" transform="scale(0.015625)"/>
       <path id="DejaVuSans-6c" d="M 603 4863 
L 1178 4863 
L 1178 0 
L 603 0 
L 603 4863 
z
" transform="scale(0.015625)"/>
       <path id="DejaVuSans-73" d="M 2834 3397 
L 2834 2853 
Q 2591 2978 2328 3040 
Q 2066 3103 1784 3103 
Q 1356 3103 1142 2972 
Q 928 2841 928 2578 
Q 928 2378 1081 2264 
Q 1234 2150 1697 2047 
L 1894 2003 
Q 2506 1872 2764 1633 
Q 3022 1394 3022 966 
Q 3022 478 2636 193 
Q 2250 -91 1575 -91 
Q 1294 -91 989 -36 
Q 684 19 347 128 
L 347 722 
Q 666 556 975 473 
Q 1284 391 1588 391 
Q 1994 391 2212 530 
Q 2431 669 2431 922 
Q 2431 1156 2273 1281 
Q 2116 1406 1581 1522 
L 1381 1569 
Q 847 1681 609 1914 
Q 372 2147 372 2553 
Q 372 3047 722 3315 
Q 1072 3584 1716 3584 
Q 2034 3584 2315 3537 
Q 2597 3491 2834 3397 
z
" transform="scale(0.015625)"/>
      </defs>
      <use xlink:href="#DejaVuSans-4e"/>
      <use xlink:href="#DejaVuSans-75" x="74.804688"/>
      <use xlink:href="#DejaVuSans-6d" x="138.183594"/>
      <use xlink:href="#DejaVuSans-62" x="235.595703"/>
      <use xlink:href="#DejaVuSans-65" x="299.072266"/>
      <use xlink:href="#DejaVuSans-72" x="360.595703"/>
      <use xlink:href="#DejaVuSans-20" x="401.708984"/>
      <use xlink:href="#DejaVuSans-6f" x="433.496094"/>
      <use xlink:href="#DejaVuSans-66" x="494.677734"/>
      <use xlink:href="#DejaVuSans-20" x="529.882812"/>
      <use xlink:href="#DejaVuSans-50" x="561.669922"/>
      <use xlink:href="#DejaVuSans-79" x="621.972656"/>
      <use xlink:href="#DejaVuSans-50" x="681.152344"/>
      <use xlink:href="#DejaVuSans-49" x="741.455078"/>
      <use xlink:href="#DejaVuSans-20" x="770.947266"/>
      <use xlink:href="#DejaVuSans-44" x="802.734375"/>
      <use xlink:href="#DejaVuSans-6f" x="879.736328"/>
      <use xlink:href="#DejaVuSans-77" x="940.917969"/>
      <use xlink:href="#DejaVuSans-6e" x="1022.705078"/>
      <use xlink:href="#DejaVuSans-6c" x="1086.083984"/>
      <use xlink:href="#DejaVuSans-6f" x="1113.867188"/>
      <use xlink:href="#DejaVuSans-61" x="1175.048828"/>
      <use xlink:href="#DejaVuSans-64" x="1236.328125"/>
      <use xlink:href="#DejaVuSans-73" x="1299.804688"/>
     </g>
    </g>
   </g>
  </g>
 </g>
 <defs>
  <clipPath id="pf1abb999db">
   <rect x="90" y="17.28" width="558" height="110.88"/>
  </clipPath>
 </defs>
</svg>
