<?xml version="1.0" encoding="utf-8" standalone="no"?>
<!DOCTYPE svg PUBLIC "-//W3C//DTD SVG 1.1//EN"
  "http://www.w3.org/Graphics/SVG/1.1/DTD/svg11.dtd">
<svg xmlns:xlink="http://www.w3.org/1999/xlink" width="720pt" height="144pt" viewBox="0 0 720 144" xmlns="http://www.w3.org/2000/svg" version="1.1">
 <metadata>
  <rdf:RDF xmlns:dc="http://purl.org/dc/elements/1.1/" xmlns:cc="http://creativecommons.org/ns#" xmlns:rdf="http://www.w3.org/1999/02/22-rdf-syntax-ns#">
   <cc:Work>
    <dc:type rdf:resource="http://purl.org/dc/dcmitype/StillImage"/>
    <dc:date>2024-11-01T20:56:42.803482</dc:date>
    <dc:format>image/svg+xml</dc:format>
    <dc:creator>
     <cc:Agent>
      <dc:title>Matplotlib v3.9.2, https://matplotlib.org/</dc:title>
     </cc:Agent>
    </dc:creator>
   </cc:Work>
  </rdf:RDF>
 </metadata>
 <defs>
  <style type="text/css">*{stroke-linejoin: round; stroke-linecap: butt}</style>
 </defs>
 <g id="figure_1">
  <g id="patch_1">
   <path d="M 0 144 
L 720 144 
L 720 0 
L 0 0 
z
" style="fill: #ffffff"/>
  </g>
  <g id="axes_1">
   <g id="patch_2">
    <path d="M 90 128.16 
L 648 128.16 
L 648 17.28 
L 90 17.28 
z
" style="fill: #ffffff"/>
   </g>
   <g id="matplotlib.axis_1">
    <g id="xtick_1">
     <g id="line2d_1">
      <defs>
       <path id="me1c6f4a2d9" d="M 0 0 
L 0 3.5 
" style="stroke: #000000; stroke-width: 0.8"/>
      </defs>
      <g>
       <use xlink:href="#me1c6f4a2d9" x="115.363636" y="128.16" style="stroke: #000000; stroke-width: 0.8"/>
      </g>
     </g>
     <g id="text_1">
      <!-- 2020-06-18 -->
      <g transform="translate(86.305824 142.758438) scale(0.1 -0.1)">
       <defs>
        <path id="DejaVuSans-32" d="M 1228 531 
L 3431 531 
L 3431 0 
L 469 0 
L 469 531 
Q 828 903 1448 1529 
Q 2069 2156 2228 2338 
Q 2531 2678 2651 2914 
Q 2772 3150 2772 3378 
Q 2772 3750 2511 3984 
Q 2250 4219 1831 4219 
Q 1534 4219 1204 4116 
Q 875 4013 500 3803 
L 500 4441 
Q 881 4594 1212 4672 
Q 1544 4750 1819 4750 
Q 2544 4750 2975 4387 
Q 3406 4025 3406 3419 
Q 3406 3131 3298 2873 
Q 3191 2616 2906 2266 
Q 2828 2175 2409 1742 
Q 1991 1309 1228 531 
z
" transform="scale(0.015625)"/>
        <path id="DejaVuSans-30" d="M 2034 4250 
Q 1547 4250 1301 3770 
Q 1056 3291 1056 2328 
Q 1056 1369 1301 889 
Q 1547 409 2034 409 
Q 2525 409 2770 889 
Q 3016 1369 3016 2328 
Q 3016 3291 2770 3770 
Q 2525 4250 2034 4250 
z
M 2034 4750 
Q 2819 4750 3233 4129 
Q 3647 3509 3647 2328 
Q 3647 1150 3233 529 
Q 2819 -91 2034 -91 
Q 1250 -91 836 529 
Q 422 1150 422 2328 
Q 422 3509 836 4129 
Q 1250 4750 2034 4750 
z
" transform="scale(0.015625)"/>
        <path id="DejaVuSans-2d" d="M 313 2009 
L 1997 2009 
L 1997 1497 
L 313 1497 
L 313 2009 
z
" transform="scale(0.015625)"/>
        <path id="DejaVuSans-36" d="M 2113 2584 
Q 1688 2584 1439 2293 
Q 1191 2003 1191 1497 
Q 1191 994 1439 701 
Q 1688 409 2113 409 
Q 2538 409 2786 701 
Q 3034 994 3034 1497 
Q 3034 2003 2786 2293 
Q 2538 2584 2113 2584 
z
M 3366 4563 
L 3366 3988 
Q 3128 4100 2886 4159 
Q 2644 4219 2406 4219 
Q 1781 4219 1451 3797 
Q 1122 3375 1075 2522 
Q 1259 2794 1537 2939 
Q 1816 3084 2150 3084 
Q 2853 3084 3261 2657 
Q 3669 2231 3669 1497 
Q 3669 778 3244 343 
Q 2819 -91 2113 -91 
Q 1303 -91 875 529 
Q 447 1150 447 2328 
Q 447 3434 972 4092 
Q 1497 4750 2381 4750 
Q 2619 4750 2861 4703 
Q 3103 4656 3366 4563 
z
" transform="scale(0.015625)"/>
        <path id="DejaVuSans-31" d="M 794 531 
L 1825 531 
L 1825 4091 
L 703 3866 
L 703 4441 
L 1819 4666 
L 2450 4666 
L 2450 531 
L 3481 531 
L 3481 0 
L 794 0 
L 794 531 
z
" transform="scale(0.015625)"/>
        <path id="DejaVuSans-38" d="M 2034 2216 
Q 1584 2216 1326 1975 
Q 1069 1734 1069 1313 
Q 1069 891 1326 650 
Q 1584 409 2034 409 
Q 2484 409 2743 651 
Q 3003 894 3003 1313 
Q 3003 1734 2745 1975 
Q 2488 2216 2034 2216 
z
M 1403 2484 
Q 997 2584 770 2862 
Q 544 3141 544 3541 
Q 544 4100 942 4425 
Q 1341 4750 2034 4750 
Q 2731 4750 3128 4425 
Q 3525 4100 3525 3541 
Q 3525 3141 3298 2862 
Q 3072 2584 2669 2484 
Q 3125 2378 3379 2068 
Q 3634 1759 3634 1313 
Q 3634 634 3220 271 
Q 2806 -91 2034 -91 
Q 1263 -91 848 271 
Q 434 634 434 1313 
Q 434 1759 690 2068 
Q 947 2378 1403 2484 
z
M 1172 3481 
Q 1172 3119 1398 2916 
Q 1625 2713 2034 2713 
Q 2441 2713 2670 2916 
Q 2900 3119 2900 3481 
Q 2900 3844 2670 4047 
Q 2441 4250 2034 4250 
Q 1625 4250 1398 4047 
Q 1172 3844 1172 3481 
z
" transform="scale(0.015625)"/>
       </defs>
       <use xlink:href="#DejaVuSans-32"/>
       <use xlink:href="#DejaVuSans-30" x="63.623047"/>
       <use xlink:href="#DejaVuSans-32" x="127.246094"/>
       <use xlink:href="#DejaVuSans-30" x="190.869141"/>
       <use xlink:href="#DejaVuSans-2d" x="254.492188"/>
       <use xlink:href="#DejaVuSans-30" x="290.576172"/>
       <use xlink:href="#DejaVuSans-36" x="354.199219"/>
       <use xlink:href="#DejaVuSans-2d" x="417.822266"/>
       <use xlink:href="#DejaVuSans-31" x="453.90625"/>
       <use xlink:href="#DejaVuSans-38" x="517.529297"/>
      </g>
     </g>
    </g>
    <g id="xtick_2">
     <g id="line2d_2">
      <g>
       <use xlink:href="#me1c6f4a2d9" x="184.663189" y="128.16" style="stroke: #000000; stroke-width: 0.8"/>
      </g>
     </g>
     <g id="text_2">
      <!-- 2021-03-15 -->
      <g transform="translate(155.605377 142.758438) scale(0.1 -0.1)">
       <defs>
        <path id="DejaVuSans-33" d="M 2597 2516 
Q 3050 2419 3304 2112 
Q 3559 1806 3559 1356 
Q 3559 666 3084 287 
Q 2609 -91 1734 -91 
Q 1441 -91 1130 -33 
Q 819 25 488 141 
L 488 750 
Q 750 597 1062 519 
Q 1375 441 1716 441 
Q 2309 441 2620 675 
Q 2931 909 2931 1356 
Q 2931 1769 2642 2001 
Q 2353 2234 1838 2234 
L 1294 2234 
L 1294 2753 
L 1863 2753 
Q 2328 2753 2575 2939 
Q 2822 3125 2822 3475 
Q 2822 3834 2567 4026 
Q 2313 4219 1838 4219 
Q 1578 4219 1281 4162 
Q 984 4106 628 3988 
L 628 4550 
Q 988 4650 1302 4700 
Q 1616 4750 1894 4750 
Q 2613 4750 3031 4423 
Q 3450 4097 3450 3541 
Q 3450 3153 3228 2886 
Q 3006 2619 2597 2516 
z
" transform="scale(0.015625)"/>
        <path id="DejaVuSans-35" d="M 691 4666 
L 3169 4666 
L 3169 4134 
L 1269 4134 
L 1269 2991 
Q 1406 3038 1543 3061 
Q 1681 3084 1819 3084 
Q 2600 3084 3056 2656 
Q 3513 2228 3513 1497 
Q 3513 744 3044 326 
Q 2575 -91 1722 -91 
Q 1428 -91 1123 -41 
Q 819 9 494 109 
L 494 744 
Q 775 591 1075 516 
Q 1375 441 1709 441 
Q 2250 441 2565 725 
Q 2881 1009 2881 1497 
Q 2881 1984 2565 2268 
Q 2250 2553 1709 2553 
Q 1456 2553 1204 2497 
Q 953 2441 691 2322 
L 691 4666 
z
" transform="scale(0.015625)"/>
       </defs>
       <use xlink:href="#DejaVuSans-32"/>
       <use xlink:href="#DejaVuSans-30" x="63.623047"/>
       <use xlink:href="#DejaVuSans-32" x="127.246094"/>
       <use xlink:href="#DejaVuSans-31" x="190.869141"/>
       <use xlink:href="#DejaVuSans-2d" x="254.492188"/>
       <use xlink:href="#DejaVuSans-30" x="290.576172"/>
       <use xlink:href="#DejaVuSans-33" x="354.199219"/>
       <use xlink:href="#DejaVuSans-2d" x="417.822266"/>
       <use xlink:href="#DejaVuSans-31" x="453.90625"/>
       <use xlink:href="#DejaVuSans-35" x="517.529297"/>
      </g>
     </g>
    </g>
    <g id="xtick_3">
     <g id="line2d_3">
      <g>
       <use xlink:href="#me1c6f4a2d9" x="253.962742" y="128.16" style="stroke: #000000; stroke-width: 0.8"/>
      </g>
     </g>
     <g id="text_3">
      <!-- 2021-10-17 -->
      <g transform="translate(224.90493 142.758438) scale(0.1 -0.1)">
       <defs>
        <path id="DejaVuSans-37" d="M 525 4666 
L 3525 4666 
L 3525 4397 
L 1831 0 
L 1172 0 
L 2766 4134 
L 525 4134 
L 525 4666 
z
" transform="scale(0.015625)"/>
       </defs>
       <use xlink:href="#DejaVuSans-32"/>
       <use xlink:href="#DejaVuSans-30" x="63.623047"/>
       <use xlink:href="#DejaVuSans-32" x="127.246094"/>
       <use xlink:href="#DejaVuSans-31" x="190.869141"/>
       <use xlink:href="#DejaVuSans-2d" x="254.492188"/>
       <use xlink:href="#DejaVuSans-31" x="290.576172"/>
       <use xlink:href="#DejaVuSans-30" x="354.199219"/>
       <use xlink:href="#DejaVuSans-2d" x="417.822266"/>
       <use xlink:href="#DejaVuSans-31" x="453.90625"/>
       <use xlink:href="#DejaVuSans-37" x="517.529297"/>
      </g>
     </g>
    </g>
    <g id="xtick_4">
     <g id="line2d_4">
      <g>
       <use xlink:href="#me1c6f4a2d9" x="323.262295" y="128.16" style="stroke: #000000; stroke-width: 0.8"/>
      </g>
     </g>
     <g id="text_4">
      <!-- 2022-05-15 -->
      <g transform="translate(294.204483 142.758438) scale(0.1 -0.1)">
       <use xlink:href="#DejaVuSans-32"/>
       <use xlink:href="#DejaVuSans-30" x="63.623047"/>
       <use xlink:href="#DejaVuSans-32" x="127.246094"/>
       <use xlink:href="#DejaVuSans-32" x="190.869141"/>
       <use xlink:href="#DejaVuSans-2d" x="254.492188"/>
       <use xlink:href="#DejaVuSans-30" x="290.576172"/>
       <use xlink:href="#DejaVuSans-35" x="354.199219"/>
       <use xlink:href="#DejaVuSans-2d" x="417.822266"/>
       <use xlink:href="#DejaVuSans-31" x="453.90625"/>
       <use xlink:href="#DejaVuSans-35" x="517.529297"/>
      </g>
     </g>
    </g>
    <g id="xtick_5">
     <g id="line2d_5">
      <g>
       <use xlink:href="#me1c6f4a2d9" x="392.561848" y="128.16" style="stroke: #000000; stroke-width: 0.8"/>
      </g>
     </g>
     <g id="text_5">
      <!-- 2022-12-10 -->
      <g transform="translate(363.504035 142.758438) scale(0.1 -0.1)">
       <use xlink:href="#DejaVuSans-32"/>
       <use xlink:href="#DejaVuSans-30" x="63.623047"/>
       <use xlink:href="#DejaVuSans-32" x="127.246094"/>
       <use xlink:href="#DejaVuSans-32" x="190.869141"/>
       <use xlink:href="#DejaVuSans-2d" x="254.492188"/>
       <use xlink:href="#DejaVuSans-31" x="290.576172"/>
       <use xlink:href="#DejaVuSans-32" x="354.199219"/>
       <use xlink:href="#DejaVuSans-2d" x="417.822266"/>
       <use xlink:href="#DejaVuSans-31" x="453.90625"/>
       <use xlink:href="#DejaVuSans-30" x="517.529297"/>
      </g>
     </g>
    </g>
    <g id="xtick_6">
     <g id="line2d_6">
      <g>
       <use xlink:href="#me1c6f4a2d9" x="461.861401" y="128.16" style="stroke: #000000; stroke-width: 0.8"/>
      </g>
     </g>
     <g id="text_6">
      <!-- 2023-07-14 -->
      <g transform="translate(432.803588 142.758438) scale(0.1 -0.1)">
       <defs>
        <path id="DejaVuSans-34" d="M 2419 4116 
L 825 1625 
L 2419 1625 
L 2419 4116 
z
M 2253 4666 
L 3047 4666 
L 3047 1625 
L 3713 1625 
L 3713 1100 
L 3047 1100 
L 3047 0 
L 2419 0 
L 2419 1100 
L 313 1100 
L 313 1709 
L 2253 4666 
z
" transform="scale(0.015625)"/>
       </defs>
       <use xlink:href="#DejaVuSans-32"/>
       <use xlink:href="#DejaVuSans-30" x="63.623047"/>
       <use xlink:href="#DejaVuSans-32" x="127.246094"/>
       <use xlink:href="#DejaVuSans-33" x="190.869141"/>
       <use xlink:href="#DejaVuSans-2d" x="254.492188"/>
       <use xlink:href="#DejaVuSans-30" x="290.576172"/>
       <use xlink:href="#DejaVuSans-37" x="354.199219"/>
       <use xlink:href="#DejaVuSans-2d" x="417.822266"/>
       <use xlink:href="#DejaVuSans-31" x="453.90625"/>
       <use xlink:href="#DejaVuSans-34" x="517.529297"/>
      </g>
     </g>
    </g>
    <g id="xtick_7">
     <g id="line2d_7">
      <g>
       <use xlink:href="#me1c6f4a2d9" x="531.160954" y="128.16" style="stroke: #000000; stroke-width: 0.8"/>
      </g>
     </g>
     <g id="text_7">
      <!-- 2024-02-07 -->
      <g transform="translate(502.103141 142.758438) scale(0.1 -0.1)">
       <use xlink:href="#DejaVuSans-32"/>
       <use xlink:href="#DejaVuSans-30" x="63.623047"/>
       <use xlink:href="#DejaVuSans-32" x="127.246094"/>
       <use xlink:href="#DejaVuSans-34" x="190.869141"/>
       <use xlink:href="#DejaVuSans-2d" x="254.492188"/>
       <use xlink:href="#DejaVuSans-30" x="290.576172"/>
       <use xlink:href="#DejaVuSans-32" x="354.199219"/>
       <use xlink:href="#DejaVuSans-2d" x="417.822266"/>
       <use xlink:href="#DejaVuSans-30" x="453.90625"/>
       <use xlink:href="#DejaVuSans-37" x="517.529297"/>
      </g>
     </g>
    </g>
    <g id="xtick_8">
     <g id="line2d_8">
      <g>
       <use xlink:href="#me1c6f4a2d9" x="600.460507" y="128.16" style="stroke: #000000; stroke-width: 0.8"/>
      </g>
     </g>
     <g id="text_8">
      <!-- 2024-08-27 -->
      <g transform="translate(571.402694 142.758438) scale(0.1 -0.1)">
       <use xlink:href="#DejaVuSans-32"/>
       <use xlink:href="#DejaVuSans-30" x="63.623047"/>
       <use xlink:href="#DejaVuSans-32" x="127.246094"/>
       <use xlink:href="#DejaVuSans-34" x="190.869141"/>
       <use xlink:href="#DejaVuSans-2d" x="254.492188"/>
       <use xlink:href="#DejaVuSans-30" x="290.576172"/>
       <use xlink:href="#DejaVuSans-38" x="354.199219"/>
       <use xlink:href="#DejaVuSans-2d" x="417.822266"/>
       <use xlink:href="#DejaVuSans-32" x="453.90625"/>
       <use xlink:href="#DejaVuSans-37" x="517.529297"/>
      </g>
     </g>
    </g>
    <g id="text_9">
     <!-- date -->
     <g transform="translate(357.725 156.436563) scale(0.1 -0.1)">
      <defs>
       <path id="DejaVuSans-64" d="M 2906 2969 
L 2906 4863 
L 3481 4863 
L 3481 0 
L 2906 0 
L 2906 525 
Q 2725 213 2448 61 
Q 2172 -91 1784 -91 
Q 1150 -91 751 415 
Q 353 922 353 1747 
Q 353 2572 751 3078 
Q 1150 3584 1784 3584 
Q 2172 3584 2448 3432 
Q 2725 3281 2906 2969 
z
M 947 1747 
Q 947 1113 1208 752 
Q 1469 391 1925 391 
Q 2381 391 2643 752 
Q 2906 1113 2906 1747 
Q 2906 2381 2643 2742 
Q 2381 3103 1925 3103 
Q 1469 3103 1208 2742 
Q 947 2381 947 1747 
z
" transform="scale(0.015625)"/>
       <path id="DejaVuSans-61" d="M 2194 1759 
Q 1497 1759 1228 1600 
Q 959 1441 959 1056 
Q 959 750 1161 570 
Q 1363 391 1709 391 
Q 2188 391 2477 730 
Q 2766 1069 2766 1631 
L 2766 1759 
L 2194 1759 
z
M 3341 1997 
L 3341 0 
L 2766 0 
L 2766 531 
Q 2569 213 2275 61 
Q 1981 -91 1556 -91 
Q 1019 -91 701 211 
Q 384 513 384 1019 
Q 384 1609 779 1909 
Q 1175 2209 1959 2209 
L 2766 2209 
L 2766 2266 
Q 2766 2663 2505 2880 
Q 2244 3097 1772 3097 
Q 1472 3097 1187 3025 
Q 903 2953 641 2809 
L 641 3341 
Q 956 3463 1253 3523 
Q 1550 3584 1831 3584 
Q 2591 3584 2966 3190 
Q 3341 2797 3341 1997 
z
" transform="scale(0.015625)"/>
       <path id="DejaVuSans-74" d="M 1172 4494 
L 1172 3500 
L 2356 3500 
L 2356 3053 
L 1172 3053 
L 1172 1153 
Q 1172 725 1289 603 
Q 1406 481 1766 481 
L 2356 481 
L 2356 0 
L 1766 0 
Q 1100 0 847 248 
Q 594 497 594 1153 
L 594 3053 
L 172 3053 
L 172 3500 
L 594 3500 
L 594 4494 
L 1172 4494 
z
" transform="scale(0.015625)"/>
       <path id="DejaVuSans-65" d="M 3597 1894 
L 3597 1613 
L 953 1613 
Q 991 1019 1311 708 
Q 1631 397 2203 397 
Q 2534 397 2845 478 
Q 3156 559 3463 722 
L 3463 178 
Q 3153 47 2828 -22 
Q 2503 -91 2169 -91 
Q 1331 -91 842 396 
Q 353 884 353 1716 
Q 353 2575 817 3079 
Q 1281 3584 2069 3584 
Q 2775 3584 3186 3129 
Q 3597 2675 3597 1894 
z
M 3022 2063 
Q 3016 2534 2758 2815 
Q 2500 3097 2075 3097 
Q 1594 3097 1305 2825 
Q 1016 2553 972 2059 
L 3022 2063 
z
" transform="scale(0.015625)"/>
      </defs>
      <use xlink:href="#DejaVuSans-64"/>
      <use xlink:href="#DejaVuSans-61" x="63.476562"/>
      <use xlink:href="#DejaVuSans-74" x="124.755859"/>
      <use xlink:href="#DejaVuSans-65" x="163.964844"/>
     </g>
    </g>
   </g>
   <g id="matplotlib.axis_2">
    <g id="ytick_1">
     <g id="line2d_9">
      <defs>
       <path id="mdeb1130acd" d="M 0 0 
L -3.5 0 
" style="stroke: #000000; stroke-width: 0.8"/>
      </defs>
      <g>
       <use xlink:href="#mdeb1130acd" x="90" y="123.597725" style="stroke: #000000; stroke-width: 0.8"/>
      </g>
     </g>
     <g id="text_10">
      <!-- 0 -->
      <g transform="translate(76.6375 127.396944) scale(0.1 -0.1)">
       <use xlink:href="#DejaVuSans-30"/>
      </g>
     </g>
    </g>
    <g id="ytick_2">
     <g id="line2d_10">
      <g>
       <use xlink:href="#mdeb1130acd" x="90" y="99.711469" style="stroke: #000000; stroke-width: 0.8"/>
      </g>
     </g>
     <g id="text_11">
      <!-- 50 -->
      <g transform="translate(70.275 103.510688) scale(0.1 -0.1)">
       <use xlink:href="#DejaVuSans-35"/>
       <use xlink:href="#DejaVuSans-30" x="63.623047"/>
      </g>
     </g>
    </g>
    <g id="ytick_3">
     <g id="line2d_11">
      <g>
       <use xlink:href="#mdeb1130acd" x="90" y="75.825213" style="stroke: #000000; stroke-width: 0.8"/>
      </g>
     </g>
     <g id="text_12">
      <!-- 100 -->
      <g transform="translate(63.9125 79.624432) scale(0.1 -0.1)">
       <use xlink:href="#DejaVuSans-31"/>
       <use xlink:href="#DejaVuSans-30" x="63.623047"/>
       <use xlink:href="#DejaVuSans-30" x="127.246094"/>
      </g>
     </g>
    </g>
    <g id="ytick_4">
     <g id="line2d_12">
      <g>
       <use xlink:href="#mdeb1130acd" x="90" y="51.938957" style="stroke: #000000; stroke-width: 0.8"/>
      </g>
     </g>
     <g id="text_13">
      <!-- 150 -->
      <g transform="translate(63.9125 55.738176) scale(0.1 -0.1)">
       <use xlink:href="#DejaVuSans-31"/>
       <use xlink:href="#DejaVuSans-35" x="63.623047"/>
       <use xlink:href="#DejaVuSans-30" x="127.246094"/>
      </g>
     </g>
    </g>
    <g id="ytick_5">
     <g id="line2d_13">
      <g>
       <use xlink:href="#mdeb1130acd" x="90" y="28.052701" style="stroke: #000000; stroke-width: 0.8"/>
      </g>
     </g>
     <g id="text_14">
      <!-- 200 -->
      <g transform="translate(63.9125 31.85192) scale(0.1 -0.1)">
       <use xlink:href="#DejaVuSans-32"/>
       <use xlink:href="#DejaVuSans-30" x="63.623047"/>
       <use xlink:href="#DejaVuSans-30" x="127.246094"/>
      </g>
     </g>
    </g>
   </g>
   <g id="line2d_14">
    <path d="M 115.363636 113.087773 
L 116.056632 121.686825 
L 117.096125 123.12 
L 117.442623 122.16455 
L 117.789121 119.775924 
L 118.135618 122.642275 
L 118.482116 122.16455 
L 118.828614 122.642275 
L 119.175112 112.132322 
L 119.52161 120.253649 
L 119.868107 122.16455 
L 120.214605 119.775924 
L 120.561103 122.642275 
L 120.907601 120.731374 
L 121.254098 120.253649 
L 121.600596 123.12 
L 121.947094 122.16455 
L 122.293592 118.820474 
L 122.640089 119.775924 
L 122.986587 121.686825 
L 123.333085 122.16455 
L 123.679583 122.16455 
L 124.372578 123.12 
L 124.719076 119.298199 
L 125.065574 99.233744 
L 125.412072 120.731374 
L 125.758569 122.16455 
L 126.105067 122.16455 
L 126.451565 121.2091 
L 126.798063 122.642275 
L 127.14456 121.686825 
L 127.491058 123.12 
L 127.837556 122.16455 
L 128.184054 122.16455 
L 128.530551 123.12 
L 128.877049 122.642275 
L 129.223547 121.686825 
L 129.570045 121.686825 
L 129.916542 120.731374 
L 130.26304 123.12 
L 130.609538 123.12 
L 130.956036 122.642275 
L 131.302534 122.642275 
L 131.649031 123.12 
L 131.995529 123.12 
L 132.342027 115.954123 
L 132.688525 121.2091 
L 133.035022 120.253649 
L 133.38152 122.642275 
L 133.728018 121.2091 
L 134.074516 120.253649 
L 134.421013 121.2091 
L 134.767511 123.12 
L 135.114009 122.642275 
L 135.460507 121.2091 
L 135.807004 123.12 
L 136.5 122.16455 
L 136.846498 120.253649 
L 137.539493 123.12 
L 137.885991 121.686825 
L 138.232489 121.2091 
L 138.578987 123.12 
L 138.925484 121.686825 
L 139.271982 123.12 
L 139.61848 122.642275 
L 139.964978 121.2091 
L 140.311475 123.12 
L 140.657973 122.642275 
L 141.004471 122.642275 
L 141.350969 123.12 
L 141.697466 121.2091 
L 142.043964 123.12 
L 142.390462 122.16455 
L 143.083458 122.16455 
L 143.429955 121.686825 
L 143.776453 120.731374 
L 144.122951 122.16455 
L 144.469449 120.731374 
L 144.815946 123.12 
L 145.508942 122.16455 
L 145.85544 121.2091 
L 146.201937 122.642275 
L 146.548435 123.12 
L 146.894933 122.642275 
L 147.241431 121.686825 
L 147.587928 122.16455 
L 147.934426 123.12 
L 148.280924 116.909573 
L 148.627422 123.12 
L 148.97392 122.16455 
L 149.320417 121.686825 
L 149.666915 123.12 
L 150.013413 121.686825 
L 150.359911 119.775924 
L 150.706408 122.16455 
L 151.052906 123.12 
L 151.399404 123.12 
L 151.745902 122.642275 
L 152.092399 123.12 
L 152.438897 123.12 
L 152.785395 122.642275 
L 153.131893 122.642275 
L 153.47839 122.16455 
L 153.824888 122.642275 
L 154.864382 121.2091 
L 155.210879 122.16455 
L 155.557377 122.16455 
L 156.250373 121.2091 
L 156.59687 122.642275 
L 156.943368 123.12 
L 157.289866 120.253649 
L 157.636364 122.642275 
L 157.982861 122.642275 
L 158.329359 119.775924 
L 158.675857 122.16455 
L 159.022355 122.16455 
L 159.368852 111.654597 
L 159.71535 121.2091 
L 160.061848 122.16455 
L 160.408346 120.253649 
L 160.754844 122.642275 
L 161.101341 120.731374 
L 161.447839 122.642275 
L 161.794337 119.775924 
L 162.140835 121.2091 
L 162.487332 123.12 
L 162.83383 122.642275 
L 163.180328 117.387299 
L 163.526826 121.2091 
L 163.873323 122.642275 
L 164.219821 123.12 
L 164.566319 123.12 
L 164.912817 119.775924 
L 165.259314 123.12 
L 165.605812 123.12 
L 165.95231 121.686825 
L 166.298808 123.12 
L 166.645306 123.12 
L 167.338301 121.2091 
L 167.684799 123.12 
L 168.031297 122.16455 
L 168.724292 123.12 
L 169.07079 121.2091 
L 169.417288 123.12 
L 169.763785 123.12 
L 170.110283 122.642275 
L 170.456781 123.12 
L 170.803279 123.12 
L 171.149776 121.2091 
L 171.842772 123.12 
L 172.535768 122.16455 
L 172.882265 122.16455 
L 173.228763 122.642275 
L 173.575261 121.686825 
L 173.921759 122.642275 
L 174.268256 123.12 
L 174.961252 123.12 
L 175.30775 121.2091 
L 175.654247 123.12 
L 176.000745 122.642275 
L 176.347243 123.12 
L 176.693741 121.2091 
L 177.040238 122.16455 
L 177.386736 122.642275 
L 177.733234 122.642275 
L 178.079732 121.686825 
L 178.42623 122.642275 
L 178.772727 122.16455 
L 179.119225 122.16455 
L 179.465723 122.642275 
L 179.812221 122.642275 
L 180.158718 123.12 
L 180.505216 120.253649 
L 180.851714 122.642275 
L 181.198212 122.642275 
L 181.544709 123.12 
L 181.891207 122.642275 
L 182.237705 123.12 
L 182.584203 123.12 
L 183.277198 122.16455 
L 183.623696 118.342749 
L 183.970194 109.265972 
L 184.316692 123.12 
L 184.663189 122.642275 
L 185.009687 120.253649 
L 185.356185 121.2091 
L 185.702683 120.731374 
L 186.04918 116.909573 
L 186.395678 123.12 
L 186.742176 122.642275 
L 187.088674 121.686825 
L 187.435171 120.253649 
L 187.781669 118.342749 
L 188.128167 112.610047 
L 188.474665 116.431848 
L 188.821162 122.642275 
L 189.16766 107.355071 
L 189.514158 115.954123 
L 189.860656 119.775924 
L 190.207154 116.909573 
L 190.553651 121.2091 
L 190.900149 116.909573 
L 191.246647 117.387299 
L 191.593145 116.431848 
L 191.939642 112.610047 
L 192.28614 122.16455 
L 192.632638 120.253649 
L 192.979136 122.16455 
L 193.325633 123.12 
L 193.672131 121.2091 
L 194.018629 123.12 
L 194.365127 122.16455 
L 194.711624 123.12 
L 195.058122 122.642275 
L 195.40462 116.909573 
L 195.751118 122.16455 
L 196.097615 120.731374 
L 196.444113 121.686825 
L 196.790611 121.2091 
L 197.137109 123.12 
L 197.483607 120.253649 
L 197.830104 121.2091 
L 198.176602 122.642275 
L 198.5231 120.731374 
L 198.869598 123.12 
L 199.216095 122.16455 
L 199.562593 123.12 
L 199.909091 121.686825 
L 200.255589 122.642275 
L 200.602086 121.686825 
L 200.948584 121.2091 
L 201.295082 122.642275 
L 201.988077 122.642275 
L 202.334575 121.686825 
L 202.681073 121.2091 
L 203.027571 113.087773 
L 203.374069 114.043223 
L 203.720566 122.16455 
L 204.067064 122.642275 
L 204.413562 120.731374 
L 204.76006 121.2091 
L 205.106557 120.253649 
L 205.453055 122.642275 
L 205.799553 123.12 
L 206.146051 120.731374 
L 206.492548 120.253649 
L 206.839046 118.820474 
L 207.185544 122.642275 
L 207.532042 121.2091 
L 207.878539 122.642275 
L 208.225037 122.642275 
L 208.571535 123.12 
L 209.264531 121.2091 
L 209.957526 123.12 
L 210.304024 122.16455 
L 210.650522 122.642275 
L 210.997019 120.253649 
L 211.343517 119.298199 
L 211.690015 120.253649 
L 212.036513 120.731374 
L 212.38301 119.775924 
L 212.729508 115.954123 
L 213.076006 120.731374 
L 213.422504 121.686825 
L 213.769001 121.2091 
L 214.115499 119.775924 
L 214.461997 116.431848 
L 214.808495 122.642275 
L 215.154993 122.16455 
L 215.50149 123.12 
L 215.847988 119.298199 
L 216.194486 119.775924 
L 216.540984 121.686825 
L 216.887481 118.820474 
L 217.233979 117.865024 
L 217.580477 122.642275 
L 217.926975 122.642275 
L 218.273472 118.820474 
L 218.61997 110.221422 
L 218.966468 116.909573 
L 219.312966 120.731374 
L 219.659463 121.2091 
L 220.005961 121.2091 
L 220.698957 122.16455 
L 221.045455 120.731374 
L 221.391952 120.731374 
L 221.73845 122.642275 
L 222.084948 122.642275 
L 222.431446 122.16455 
L 222.777943 122.642275 
L 223.124441 119.775924 
L 223.470939 119.775924 
L 223.817437 120.731374 
L 224.163934 119.298199 
L 224.510432 115.954123 
L 224.85693 119.775924 
L 225.203428 119.775924 
L 225.549925 122.16455 
L 225.896423 122.16455 
L 226.242921 120.253649 
L 226.589419 123.12 
L 226.935917 114.998673 
L 227.282414 114.043223 
L 227.628912 120.731374 
L 227.97541 121.2091 
L 228.321908 116.909573 
L 229.014903 122.16455 
L 229.361401 121.2091 
L 229.707899 123.12 
L 230.054396 119.298199 
L 230.400894 113.087773 
L 230.747392 122.642275 
L 231.09389 122.16455 
L 231.786885 123.12 
L 232.133383 121.686825 
L 232.479881 114.043223 
L 232.826379 119.775924 
L 233.172876 122.642275 
L 233.519374 122.642275 
L 233.865872 115.954123 
L 234.21237 122.16455 
L 234.558867 122.642275 
L 234.905365 122.16455 
L 236.291356 122.16455 
L 236.637854 121.2091 
L 236.984352 123.12 
L 237.330849 122.642275 
L 237.677347 122.642275 
L 238.023845 123.12 
L 238.370343 123.12 
L 238.716841 122.642275 
L 239.063338 123.12 
L 239.409836 120.731374 
L 239.756334 122.642275 
L 240.102832 121.2091 
L 240.449329 121.2091 
L 240.795827 120.253649 
L 241.142325 121.2091 
L 241.488823 123.12 
L 241.83532 122.16455 
L 242.528316 122.16455 
L 242.874814 123.12 
L 243.221311 122.642275 
L 243.567809 122.642275 
L 243.914307 121.686825 
L 244.260805 122.642275 
L 245.300298 122.642275 
L 245.646796 106.399621 
L 245.993294 121.2091 
L 246.339791 123.12 
L 246.686289 122.642275 
L 247.032787 121.686825 
L 247.379285 123.12 
L 247.725782 121.2091 
L 248.07228 122.642275 
L 248.418778 120.731374 
L 248.765276 120.253649 
L 249.111773 120.253649 
L 249.458271 119.775924 
L 249.804769 114.043223 
L 250.151267 114.043223 
L 250.497765 120.253649 
L 250.844262 121.686825 
L 251.19076 122.642275 
L 251.537258 115.476398 
L 251.883756 121.2091 
L 252.230253 122.642275 
L 252.576751 122.642275 
L 252.923249 122.16455 
L 253.269747 122.16455 
L 253.616244 122.642275 
L 253.962742 122.642275 
L 254.30924 121.2091 
L 254.655738 123.12 
L 255.002235 122.642275 
L 255.348733 121.2091 
L 255.695231 121.2091 
L 256.041729 122.16455 
L 256.734724 114.043223 
L 257.081222 119.298199 
L 257.42772 118.820474 
L 257.774218 115.954123 
L 258.120715 117.865024 
L 258.813711 118.820474 
L 259.160209 118.342749 
L 259.506706 115.476398 
L 259.853204 116.909573 
L 260.199702 121.2091 
L 260.5462 121.686825 
L 260.892697 120.731374 
L 261.239195 120.731374 
L 261.585693 119.298199 
L 261.932191 120.253649 
L 262.278689 117.387299 
L 262.625186 119.775924 
L 262.971684 120.253649 
L 263.318182 118.342749 
L 263.66468 114.043223 
L 264.011177 118.342749 
L 264.357675 120.253649 
L 265.050671 118.342749 
L 265.397168 120.253649 
L 265.743666 116.909573 
L 266.090164 118.342749 
L 266.436662 120.253649 
L 266.783159 116.909573 
L 267.129657 122.16455 
L 267.476155 121.2091 
L 267.822653 121.686825 
L 268.169151 119.775924 
L 268.515648 119.298199 
L 268.862146 111.654597 
L 269.208644 110.221422 
L 269.555142 118.820474 
L 269.901639 105.921896 
L 270.248137 122.16455 
L 270.594635 121.2091 
L 270.941133 122.16455 
L 271.28763 109.743697 
L 271.634128 110.221422 
L 272.327124 122.642275 
L 272.673621 121.2091 
L 273.020119 117.387299 
L 273.366617 121.2091 
L 273.713115 121.2091 
L 274.059613 110.221422 
L 274.40611 118.342749 
L 274.752608 119.775924 
L 275.445604 120.731374 
L 275.792101 120.731374 
L 276.138599 119.775924 
L 277.178092 122.642275 
L 277.52459 119.298199 
L 277.871088 122.642275 
L 278.217586 122.642275 
L 278.910581 121.686825 
L 279.257079 123.12 
L 279.603577 121.686825 
L 279.950075 120.731374 
L 280.296572 122.16455 
L 280.64307 122.642275 
L 280.989568 122.642275 
L 281.336066 119.298199 
L 281.682563 123.12 
L 282.029061 112.610047 
L 282.375559 122.16455 
L 282.722057 122.642275 
L 283.068554 121.2091 
L 283.415052 121.2091 
L 283.76155 121.686825 
L 284.108048 122.642275 
L 284.454545 119.775924 
L 284.801043 122.16455 
L 285.147541 121.2091 
L 285.494039 121.686825 
L 285.840537 112.132322 
L 286.187034 122.16455 
L 286.533532 120.731374 
L 286.88003 123.12 
L 287.226528 123.12 
L 287.573025 122.642275 
L 287.919523 119.298199 
L 288.266021 122.642275 
L 288.612519 119.775924 
L 288.959016 121.2091 
L 289.305514 123.12 
L 289.652012 121.2091 
L 290.345007 121.2091 
L 290.691505 119.775924 
L 291.038003 118.820474 
L 291.384501 121.686825 
L 291.730999 121.686825 
L 292.077496 121.2091 
L 292.423994 122.16455 
L 292.770492 122.16455 
L 293.11699 121.2091 
L 293.463487 119.775924 
L 293.809985 119.775924 
L 294.156483 120.731374 
L 294.502981 122.642275 
L 295.195976 122.642275 
L 295.542474 114.043223 
L 295.888972 93.978768 
L 296.235469 103.53327 
L 296.581967 120.731374 
L 296.928465 122.16455 
L 297.274963 121.2091 
L 297.967958 114.520948 
L 298.314456 120.253649 
L 299.007452 101.62237 
L 299.353949 121.2091 
L 299.700447 101.144645 
L 300.046945 117.387299 
L 300.393443 122.642275 
L 300.73994 95.411943 
L 301.086438 110.699147 
L 301.432936 115.954123 
L 301.779434 92.545592 
L 302.125931 120.731374 
L 302.472429 121.2091 
L 302.818927 110.221422 
L 303.165425 116.909573 
L 303.511923 108.788246 
L 303.85842 116.909573 
L 304.204918 121.686825 
L 304.551416 82.03564 
L 304.897914 120.731374 
L 305.244411 121.2091 
L 305.590909 121.2091 
L 305.937407 117.865024 
L 306.283905 120.253649 
L 306.630402 113.565498 
L 306.9769 120.253649 
L 307.323398 121.686825 
L 307.669896 110.699147 
L 308.016393 110.699147 
L 308.362891 117.865024 
L 308.709389 109.265972 
L 309.055887 120.731374 
L 309.402385 121.2091 
L 309.748882 110.699147 
L 310.09538 123.12 
L 310.441878 122.16455 
L 310.788376 121.686825 
L 311.134873 120.731374 
L 311.481371 122.16455 
L 311.827869 121.686825 
L 312.174367 120.731374 
L 312.520864 118.342749 
L 312.867362 119.775924 
L 313.21386 115.476398 
L 313.906855 122.642275 
L 314.253353 123.12 
L 314.599851 119.298199 
L 315.292846 122.16455 
L 315.639344 123.12 
L 315.985842 120.731374 
L 316.33234 122.642275 
L 316.678838 120.731374 
L 317.025335 123.12 
L 317.718331 122.16455 
L 318.064829 123.12 
L 318.411326 123.12 
L 318.757824 122.16455 
L 319.45082 121.2091 
L 319.797317 121.2091 
L 320.143815 121.686825 
L 320.490313 121.686825 
L 320.836811 123.12 
L 321.183308 122.16455 
L 321.529806 106.877346 
L 321.876304 121.686825 
L 322.222802 122.642275 
L 322.915797 122.642275 
L 323.262295 120.253649 
L 323.608793 120.731374 
L 323.955291 115.476398 
L 324.301788 122.16455 
L 324.648286 119.775924 
L 324.994784 122.642275 
L 325.341282 123.12 
L 325.687779 121.686825 
L 326.034277 122.16455 
L 326.380775 119.775924 
L 326.727273 120.731374 
L 327.07377 122.16455 
L 327.420268 122.642275 
L 327.766766 122.16455 
L 328.113264 120.253649 
L 328.459762 121.2091 
L 328.806259 120.731374 
L 329.152757 121.686825 
L 329.499255 119.298199 
L 329.845753 120.253649 
L 330.19225 123.12 
L 330.538748 120.731374 
L 330.885246 121.2091 
L 331.231744 115.954123 
L 331.578241 122.642275 
L 331.924739 120.731374 
L 332.271237 120.731374 
L 332.617735 121.2091 
L 332.964232 116.431848 
L 333.31073 108.788246 
L 333.657228 121.2091 
L 334.003726 122.642275 
L 334.350224 119.775924 
L 334.696721 122.16455 
L 335.043219 121.686825 
L 335.389717 121.686825 
L 335.736215 123.12 
L 336.42921 122.16455 
L 336.775708 121.2091 
L 337.122206 122.642275 
L 337.468703 121.2091 
L 337.815201 122.642275 
L 338.161699 121.2091 
L 338.508197 123.12 
L 338.854694 121.2091 
L 339.201192 122.16455 
L 339.54769 122.16455 
L 339.894188 121.2091 
L 340.240686 123.12 
L 340.587183 121.2091 
L 340.933681 122.16455 
L 341.280179 119.298199 
L 341.626677 122.642275 
L 341.973174 118.820474 
L 342.319672 108.788246 
L 342.66617 122.642275 
L 343.012668 123.12 
L 343.359165 122.16455 
L 343.705663 119.775924 
L 344.052161 122.16455 
L 344.745156 123.12 
L 345.091654 119.298199 
L 345.438152 122.16455 
L 345.78465 121.686825 
L 346.477645 114.043223 
L 346.824143 120.253649 
L 347.170641 122.16455 
L 347.517139 122.16455 
L 347.863636 119.775924 
L 348.210134 103.53327 
L 348.556632 115.476398 
L 348.90313 119.775924 
L 349.249627 121.686825 
L 349.596125 121.686825 
L 349.942623 107.832796 
L 350.289121 121.2091 
L 350.635618 122.642275 
L 351.328614 122.642275 
L 351.675112 121.686825 
L 352.02161 121.2091 
L 352.368107 122.16455 
L 352.714605 120.731374 
L 353.061103 121.686825 
L 353.407601 123.12 
L 353.754098 122.16455 
L 354.100596 120.253649 
L 354.447094 122.16455 
L 354.793592 119.775924 
L 355.140089 119.775924 
L 355.486587 120.731374 
L 355.833085 122.16455 
L 356.179583 113.565498 
L 356.52608 121.2091 
L 356.872578 115.476398 
L 357.219076 119.775924 
L 357.565574 120.731374 
L 357.912072 115.954123 
L 358.258569 122.16455 
L 358.951565 117.865024 
L 359.298063 121.2091 
L 359.64456 119.298199 
L 359.991058 115.476398 
L 360.337556 114.998673 
L 360.684054 120.731374 
L 361.030551 112.132322 
L 361.377049 115.954123 
L 361.723547 121.686825 
L 362.070045 114.998673 
L 362.416542 122.642275 
L 362.76304 122.16455 
L 363.109538 117.865024 
L 363.456036 119.298199 
L 363.802534 109.743697 
L 364.149031 117.865024 
L 364.495529 117.387299 
L 364.842027 117.387299 
L 365.188525 118.342749 
L 365.535022 120.731374 
L 365.88152 121.2091 
L 366.228018 119.775924 
L 366.574516 120.731374 
L 366.921013 116.909573 
L 367.267511 121.2091 
L 367.614009 118.342749 
L 367.960507 114.520948 
L 368.307004 118.342749 
L 368.653502 118.820474 
L 369 118.342749 
L 369.346498 122.642275 
L 369.692996 119.775924 
L 370.039493 122.16455 
L 370.385991 121.686825 
L 370.732489 117.387299 
L 371.078987 116.909573 
L 371.425484 109.743697 
L 371.771982 116.909573 
L 372.11848 115.476398 
L 372.464978 120.253649 
L 372.811475 121.2091 
L 373.157973 120.731374 
L 373.504471 120.731374 
L 373.850969 122.642275 
L 374.197466 120.731374 
L 374.543964 114.520948 
L 374.890462 120.731374 
L 375.583458 120.731374 
L 375.929955 122.642275 
L 376.276453 123.12 
L 376.622951 122.642275 
L 376.969449 120.253649 
L 377.315946 113.087773 
L 377.662444 121.2091 
L 378.008942 121.2091 
L 378.35544 123.12 
L 378.701937 123.12 
L 379.048435 107.832796 
L 379.741431 119.775924 
L 380.087928 116.909573 
L 380.780924 122.642275 
L 381.127422 122.16455 
L 381.47392 122.642275 
L 381.820417 118.820474 
L 382.166915 122.642275 
L 382.513413 121.686825 
L 382.859911 122.16455 
L 383.206408 123.12 
L 383.552906 109.265972 
L 383.899404 121.2091 
L 384.245902 115.954123 
L 384.592399 115.954123 
L 384.938897 117.865024 
L 385.285395 121.686825 
L 385.631893 122.16455 
L 385.97839 118.820474 
L 386.324888 120.253649 
L 386.671386 119.775924 
L 387.017884 118.820474 
L 387.364382 122.642275 
L 387.710879 121.2091 
L 388.057377 122.16455 
L 388.750373 123.12 
L 390.136364 121.2091 
L 390.829359 112.132322 
L 391.175857 120.253649 
L 391.522355 118.820474 
L 391.868852 122.642275 
L 392.21535 118.820474 
L 392.561848 123.12 
L 392.908346 122.16455 
L 393.601341 121.2091 
L 393.947839 121.686825 
L 394.294337 121.2091 
L 394.640835 120.253649 
L 394.987332 113.565498 
L 395.33383 120.253649 
L 395.680328 119.775924 
L 396.026826 112.610047 
L 396.373323 122.642275 
L 396.719821 117.865024 
L 397.066319 122.642275 
L 397.412817 120.253649 
L 397.759314 122.16455 
L 398.105812 123.12 
L 398.45231 121.686825 
L 398.798808 122.642275 
L 399.145306 121.2091 
L 399.491803 123.12 
L 400.184799 123.12 
L 400.531297 121.2091 
L 400.877794 123.12 
L 401.224292 120.253649 
L 401.57079 123.12 
L 401.917288 122.642275 
L 402.263785 121.2091 
L 402.610283 113.565498 
L 402.956781 123.12 
L 403.303279 123.12 
L 403.649776 116.431848 
L 403.996274 116.909573 
L 404.342772 115.476398 
L 404.68927 117.387299 
L 405.035768 122.642275 
L 405.382265 116.431848 
L 405.728763 121.2091 
L 406.075261 122.16455 
L 406.421759 122.642275 
L 406.768256 122.642275 
L 407.114754 123.12 
L 407.461252 122.642275 
L 407.80775 120.731374 
L 408.154247 122.16455 
L 408.847243 123.12 
L 409.193741 123.12 
L 409.540238 119.775924 
L 409.886736 120.253649 
L 410.233234 122.16455 
L 410.92623 122.16455 
L 411.272727 121.686825 
L 411.619225 121.686825 
L 411.965723 118.820474 
L 412.312221 122.642275 
L 412.658718 112.132322 
L 413.005216 120.253649 
L 413.351714 122.642275 
L 413.698212 120.731374 
L 414.044709 121.2091 
L 414.737705 116.909573 
L 415.084203 120.253649 
L 415.4307 111.176872 
L 415.777198 123.12 
L 416.123696 119.775924 
L 416.816692 110.699147 
L 417.163189 115.476398 
L 417.509687 98.278294 
L 417.856185 118.820474 
L 418.202683 123.12 
L 418.54918 104.966445 
L 418.895678 116.909573 
L 419.242176 114.520948 
L 419.588674 115.476398 
L 419.935171 119.775924 
L 420.281669 117.387299 
L 420.628167 122.642275 
L 420.974665 113.087773 
L 421.321162 116.431848 
L 421.66766 116.431848 
L 422.014158 113.565498 
L 422.360656 114.043223 
L 422.707154 122.16455 
L 423.053651 123.12 
L 423.400149 104.010995 
L 423.746647 61.015735 
L 424.093145 110.221422 
L 424.439642 113.087773 
L 424.78614 112.610047 
L 425.132638 121.2091 
L 425.479136 121.686825 
L 426.172131 92.545592 
L 426.518629 115.476398 
L 426.865127 114.043223 
L 427.211624 111.176872 
L 427.558122 121.2091 
L 427.90462 123.12 
L 428.251118 100.189194 
L 428.944113 103.055545 
L 429.637109 121.2091 
L 429.983607 122.16455 
L 430.330104 122.642275 
L 430.676602 119.775924 
L 431.0231 113.087773 
L 431.369598 116.909573 
L 431.716095 103.055545 
L 432.062593 104.48872 
L 432.409091 122.16455 
L 432.755589 121.2091 
L 433.102086 109.743697 
L 433.448584 118.342749 
L 433.795082 106.877346 
L 434.14158 118.820474 
L 434.488077 123.12 
L 434.834575 123.12 
L 435.181073 118.820474 
L 435.527571 112.132322 
L 435.874069 120.253649 
L 436.220566 120.253649 
L 436.567064 122.16455 
L 436.913562 123.12 
L 437.26006 123.12 
L 437.606557 122.16455 
L 437.953055 117.387299 
L 438.299553 121.686825 
L 438.646051 123.12 
L 438.992548 108.310521 
L 439.339046 119.775924 
L 439.685544 118.820474 
L 440.032042 106.399621 
L 440.378539 117.865024 
L 440.725037 122.642275 
L 441.071535 121.686825 
L 441.418033 123.12 
L 441.764531 122.16455 
L 442.111028 109.265972 
L 442.457526 107.832796 
L 442.804024 118.342749 
L 443.150522 114.998673 
L 443.497019 119.298199 
L 443.843517 113.087773 
L 444.190015 121.686825 
L 444.536513 117.865024 
L 444.88301 122.16455 
L 445.229508 121.686825 
L 445.576006 122.16455 
L 445.922504 123.12 
L 446.269001 112.132322 
L 446.615499 115.954123 
L 446.961997 121.686825 
L 447.308495 122.642275 
L 448.347988 122.642275 
L 448.694486 120.731374 
L 449.040984 105.444171 
L 449.387481 120.253649 
L 449.733979 115.954123 
L 450.080477 120.253649 
L 450.426975 121.2091 
L 450.773472 121.686825 
L 451.11997 120.731374 
L 451.466468 122.16455 
L 451.812966 122.642275 
L 452.159463 121.2091 
L 452.505961 122.642275 
L 452.852459 114.998673 
L 453.198957 120.731374 
L 453.545455 119.775924 
L 453.891952 121.686825 
L 454.23845 106.399621 
L 454.584948 121.2091 
L 454.931446 121.686825 
L 455.277943 120.731374 
L 455.624441 121.686825 
L 455.970939 120.731374 
L 456.317437 107.355071 
L 456.663934 118.820474 
L 457.010432 120.253649 
L 457.35693 121.2091 
L 457.703428 118.820474 
L 458.049925 121.2091 
L 458.396423 121.2091 
L 458.742921 121.686825 
L 459.089419 120.731374 
L 459.435917 120.731374 
L 459.782414 121.686825 
L 460.128912 120.731374 
L 460.47541 120.731374 
L 460.821908 121.2091 
L 461.168405 114.043223 
L 461.514903 117.387299 
L 461.861401 122.642275 
L 462.207899 122.16455 
L 462.554396 121.2091 
L 462.900894 122.16455 
L 463.247392 121.2091 
L 463.59389 122.16455 
L 463.940387 118.820474 
L 464.286885 118.342749 
L 464.633383 114.998673 
L 464.979881 120.731374 
L 465.326379 121.686825 
L 466.019374 118.342749 
L 466.365872 120.253649 
L 466.71237 120.731374 
L 467.058867 122.16455 
L 467.405365 122.16455 
L 467.751863 118.820474 
L 468.098361 104.010995 
L 468.444858 119.775924 
L 468.791356 119.775924 
L 469.137854 118.342749 
L 469.484352 121.686825 
L 469.830849 121.686825 
L 470.177347 119.775924 
L 470.523845 121.686825 
L 470.870343 97.322844 
L 471.216841 121.686825 
L 471.563338 122.642275 
L 471.909836 122.16455 
L 472.256334 122.16455 
L 472.602832 110.699147 
L 472.949329 117.387299 
L 473.295827 121.2091 
L 473.642325 122.16455 
L 473.988823 122.642275 
L 474.33532 116.431848 
L 474.681818 120.731374 
L 475.028316 122.642275 
L 475.374814 113.087773 
L 475.721311 118.342749 
L 476.067809 120.731374 
L 476.414307 107.832796 
L 476.760805 122.642275 
L 477.107303 123.12 
L 477.4538 121.686825 
L 478.146796 122.642275 
L 478.493294 120.731374 
L 478.839791 120.253649 
L 479.186289 121.686825 
L 479.532787 122.642275 
L 479.879285 122.16455 
L 480.225782 122.642275 
L 480.57228 122.642275 
L 480.918778 123.12 
L 481.265276 123.12 
L 481.611773 121.2091 
L 481.958271 87.768341 
L 482.304769 115.476398 
L 482.651267 116.431848 
L 482.997765 118.820474 
L 483.344262 113.087773 
L 483.69076 116.431848 
L 484.037258 116.431848 
L 484.383756 111.654597 
L 484.730253 119.775924 
L 485.076751 112.132322 
L 485.423249 121.686825 
L 485.769747 119.298199 
L 486.116244 118.342749 
L 486.462742 121.686825 
L 486.80924 120.731374 
L 487.155738 119.298199 
L 487.502235 121.2091 
L 487.848733 121.686825 
L 488.195231 111.654597 
L 488.541729 119.775924 
L 488.888227 112.132322 
L 489.234724 119.298199 
L 489.581222 113.565498 
L 489.92772 119.775924 
L 490.274218 120.253649 
L 490.620715 114.043223 
L 490.967213 114.520948 
L 491.313711 119.775924 
L 491.660209 121.686825 
L 492.006706 119.298199 
L 492.353204 119.775924 
L 492.699702 123.12 
L 493.0462 119.775924 
L 493.392697 106.877346 
L 493.739195 118.820474 
L 494.085693 120.253649 
L 494.432191 117.865024 
L 494.778689 119.775924 
L 495.125186 120.731374 
L 495.471684 114.043223 
L 495.818182 120.253649 
L 496.16468 113.565498 
L 496.511177 118.820474 
L 496.857675 119.775924 
L 497.204173 113.565498 
L 497.550671 119.775924 
L 497.897168 105.921896 
L 498.243666 110.699147 
L 498.590164 118.820474 
L 499.283159 119.775924 
L 499.629657 105.921896 
L 499.976155 102.100095 
L 500.322653 115.476398 
L 500.669151 121.686825 
L 501.362146 120.731374 
L 501.708644 117.865024 
L 502.055142 115.954123 
L 502.401639 115.476398 
L 502.748137 68.659336 
L 503.094635 102.100095 
L 503.441133 116.909573 
L 504.134128 121.2091 
L 504.480626 114.520948 
L 504.827124 112.610047 
L 505.173621 109.265972 
L 505.520119 119.775924 
L 505.866617 120.731374 
L 506.213115 119.298199 
L 506.559613 116.909573 
L 506.90611 115.954123 
L 507.252608 117.865024 
L 507.945604 102.100095 
L 508.292101 121.686825 
L 508.638599 122.642275 
L 508.985097 116.909573 
L 509.331595 121.2091 
L 509.678092 113.565498 
L 510.02459 121.2091 
L 510.371088 118.342749 
L 510.717586 120.731374 
L 511.064083 122.16455 
L 511.410581 117.387299 
L 511.757079 122.16455 
L 512.103577 121.2091 
L 512.450075 118.820474 
L 513.14307 123.12 
L 513.489568 122.642275 
L 513.836066 116.431848 
L 514.182563 121.2091 
L 514.529061 119.298199 
L 514.875559 120.253649 
L 515.222057 118.820474 
L 515.568554 119.775924 
L 515.915052 111.176872 
L 516.26155 121.2091 
L 516.608048 118.342749 
L 516.954545 121.2091 
L 517.301043 121.686825 
L 517.647541 120.731374 
L 517.994039 112.132322 
L 518.340537 123.12 
L 518.687034 114.998673 
L 519.033532 123.12 
L 519.38003 115.476398 
L 519.726528 79.647014 
L 520.073025 112.132322 
L 520.419523 121.686825 
L 520.766021 115.476398 
L 521.112519 118.342749 
L 521.459016 119.298199 
L 521.805514 121.686825 
L 522.152012 120.731374 
L 522.49851 92.545592 
L 522.845007 119.775924 
L 523.191505 117.387299 
L 523.538003 120.253649 
L 523.884501 116.909573 
L 524.230999 122.642275 
L 524.577496 119.775924 
L 524.923994 117.865024 
L 525.270492 119.775924 
L 525.963487 116.909573 
L 526.309985 122.16455 
L 526.656483 123.12 
L 527.002981 122.642275 
L 527.349478 121.686825 
L 527.695976 104.010995 
L 528.042474 117.865024 
L 528.388972 119.775924 
L 528.735469 120.731374 
L 529.081967 101.144645 
L 529.428465 117.865024 
L 529.774963 105.444171 
L 530.121461 121.2091 
L 530.467958 117.387299 
L 530.814456 115.954123 
L 531.160954 120.731374 
L 531.507452 121.686825 
L 531.853949 100.189194 
L 532.200447 122.642275 
L 532.546945 107.832796 
L 532.893443 102.100095 
L 533.23994 122.642275 
L 533.586438 117.387299 
L 533.932936 119.298199 
L 534.625931 106.877346 
L 534.972429 120.253649 
L 535.318927 110.699147 
L 535.665425 117.387299 
L 536.011923 118.820474 
L 536.35842 105.921896 
L 536.704918 120.731374 
L 537.051416 121.686825 
L 538.090909 107.355071 
L 538.783905 121.686825 
L 539.130402 114.520948 
L 539.4769 122.642275 
L 539.823398 119.298199 
L 540.169896 111.654597 
L 540.516393 99.233744 
L 540.862891 103.53327 
L 541.209389 104.48872 
L 541.555887 121.686825 
L 541.902385 121.686825 
L 542.248882 100.666919 
L 542.59538 112.132322 
L 542.941878 113.565498 
L 543.288376 122.642275 
L 543.634873 120.253649 
L 543.981371 109.743697 
L 544.327869 109.265972 
L 544.674367 109.265972 
L 545.020864 116.909573 
L 545.367362 112.610047 
L 545.71386 118.342749 
L 546.060358 112.132322 
L 546.406855 120.731374 
L 546.753353 121.686825 
L 547.099851 122.16455 
L 547.446349 120.731374 
L 547.792846 117.387299 
L 548.139344 117.387299 
L 548.83234 121.2091 
L 549.178838 122.16455 
L 549.525335 117.865024 
L 549.871833 110.699147 
L 550.218331 120.731374 
L 550.564829 118.820474 
L 550.911326 105.444171 
L 551.257824 123.12 
L 551.604322 121.686825 
L 551.95082 112.132322 
L 552.297317 110.221422 
L 552.990313 121.2091 
L 553.336811 113.087773 
L 553.683308 122.642275 
L 554.029806 120.253649 
L 554.376304 110.221422 
L 554.722802 116.909573 
L 555.0693 81.08019 
L 555.415797 111.654597 
L 555.762295 104.48872 
L 556.108793 116.909573 
L 556.455291 119.775924 
L 556.801788 117.387299 
L 557.148286 107.832796 
L 557.494784 116.909573 
L 557.841282 93.023318 
L 558.187779 109.743697 
L 558.534277 116.909573 
L 558.880775 107.832796 
L 559.227273 104.48872 
L 559.57377 99.711469 
L 559.920268 120.253649 
L 560.266766 116.909573 
L 560.613264 111.654597 
L 560.959762 120.253649 
L 561.306259 115.954123 
L 561.652757 120.731374 
L 561.999255 88.723791 
L 562.345753 103.055545 
L 562.69225 103.055545 
L 563.038748 111.654597 
L 563.385246 123.12 
L 563.731744 122.642275 
L 564.078241 105.921896 
L 564.424739 119.298199 
L 564.771237 112.610047 
L 565.464232 118.342749 
L 566.157228 119.298199 
L 566.503726 101.144645 
L 566.850224 112.610047 
L 567.196721 104.010995 
L 567.543219 112.610047 
L 567.889717 102.57782 
L 568.236215 117.387299 
L 568.582712 115.954123 
L 568.92921 99.233744 
L 569.275708 117.865024 
L 569.622206 108.788246 
L 570.315201 100.666919 
L 570.661699 119.775924 
L 571.008197 120.253649 
L 571.354694 118.342749 
L 571.701192 120.253649 
L 572.04769 108.310521 
L 572.394188 50.505782 
L 572.740686 98.756019 
L 573.087183 121.686825 
L 573.433681 120.253649 
L 573.780179 114.043223 
L 574.126677 103.53327 
L 574.473174 117.387299 
L 574.819672 116.431848 
L 575.16617 103.055545 
L 575.512668 121.686825 
L 575.859165 104.966445 
L 576.205663 118.820474 
L 576.552161 122.642275 
L 576.898659 123.12 
L 577.591654 108.310521 
L 577.938152 112.610047 
L 578.28465 104.010995 
L 578.631148 108.788246 
L 578.977645 90.634692 
L 579.324143 96.367393 
L 579.670641 116.909573 
L 580.017139 118.342749 
L 580.363636 122.16455 
L 580.710134 108.788246 
L 581.40313 94.456493 
L 581.749627 106.399621 
L 582.096125 89.679242 
L 582.442623 116.431848 
L 582.789121 116.909573 
L 583.135618 86.335166 
L 583.482116 99.711469 
L 583.828614 100.666919 
L 584.175112 107.355071 
L 584.52161 107.832796 
L 584.868107 121.686825 
L 585.214605 119.775924 
L 585.561103 106.399621 
L 585.907601 102.100095 
L 586.254098 94.456493 
L 586.600596 103.53327 
L 586.947094 101.144645 
L 587.293592 120.253649 
L 587.640089 121.2091 
L 587.986587 98.278294 
L 588.333085 85.379716 
L 588.679583 103.055545 
L 589.02608 99.711469 
L 589.372578 100.666919 
L 589.719076 108.310521 
L 590.065574 110.221422 
L 590.758569 93.978768 
L 591.105067 99.711469 
L 591.451565 63.40436 
L 591.798063 90.156967 
L 592.14456 85.857441 
L 592.491058 101.62237 
L 592.837556 75.825213 
L 593.184054 86.335166 
L 593.530551 77.736114 
L 593.877049 93.501043 
L 594.223547 83.94654 
L 594.570045 90.156967 
L 594.916542 118.820474 
L 595.26304 97.322844 
L 595.609538 110.221422 
L 595.956036 69.614787 
L 596.649031 94.934218 
L 596.995529 100.189194 
L 597.342027 119.775924 
L 597.688525 81.557915 
L 598.035022 96.367393 
L 598.728018 79.169289 
L 599.421013 116.909573 
L 599.767511 116.909573 
L 600.114009 111.176872 
L 600.460507 114.998673 
L 600.807004 113.565498 
L 601.153502 84.901991 
L 601.5 118.342749 
L 601.846498 119.775924 
L 602.192996 119.298199 
L 602.539493 121.2091 
L 602.885991 120.731374 
L 603.232489 116.431848 
L 603.578987 91.112417 
L 603.925484 107.832796 
L 604.271982 106.877346 
L 604.61848 96.367393 
L 604.964978 93.501043 
L 605.311475 77.258389 
L 605.657973 72.958863 
L 606.004471 114.043223 
L 606.350969 74.869763 
L 606.697466 111.176872 
L 607.043964 121.2091 
L 607.390462 84.901991 
L 607.73696 74.869763 
L 608.429955 97.322844 
L 608.776453 94.456493 
L 609.122951 107.832796 
L 609.469449 74.869763 
L 609.815946 92.545592 
L 610.162444 66.270711 
L 610.508942 102.57782 
L 611.201937 75.347488 
L 611.548435 113.087773 
L 611.894933 114.520948 
L 612.241431 91.590142 
L 612.587928 109.743697 
L 612.934426 104.48872 
L 613.280924 92.545592 
L 613.627422 91.112417 
L 613.97392 68.181611 
L 614.320417 89.201517 
L 614.666915 47.639431 
L 615.013413 67.226161 
L 615.359911 70.092512 
L 615.706408 59.582559 
L 616.052906 79.647014 
L 616.745902 22.32 
L 617.092399 69.137062 
L 617.438897 64.35981 
L 617.785395 44.295355 
L 618.131893 105.444171 
L 618.47839 64.837536 
L 618.824888 119.298199 
L 619.171386 75.347488 
L 619.517884 68.181611 
L 619.864382 82.513365 
L 620.210879 51.938957 
L 620.557377 56.716209 
L 620.903875 116.909573 
L 621.250373 115.476398 
L 621.943368 118.820474 
L 622.289866 114.520948 
L 622.636364 105.444171 
L 622.636364 105.444171 
" clip-path="url(#pada9312105)" style="fill: none; stroke: #1f77b4; stroke-width: 1.5; stroke-linecap: square"/>
   </g>
   <g id="patch_3">
    <path d="M 90 128.16 
L 90 17.28 
" style="fill: none; stroke: #000000; stroke-width: 0.8; stroke-linejoin: miter; stroke-linecap: square"/>
   </g>
   <g id="patch_4">
    <path d="M 648 128.16 
L 648 17.28 
" style="fill: none; stroke: #000000; stroke-width: 0.8; stroke-linejoin: miter; stroke-linecap: square"/>
   </g>
   <g id="patch_5">
    <path d="M 90 128.16 
L 648 128.16 
" style="fill: none; stroke: #000000; stroke-width: 0.8; stroke-linejoin: miter; stroke-linecap: square"/>
   </g>
   <g id="patch_6">
    <path d="M 90 17.28 
L 648 17.28 
" style="fill: none; stroke: #000000; stroke-width: 0.8; stroke-linejoin: miter; stroke-linecap: square"/>
   </g>
   <g id="legend_1">
    <g id="patch_7">
     <path d="M 97 39.958125 
L 264.190625 39.958125 
Q 266.190625 39.958125 266.190625 37.958125 
L 266.190625 24.28 
Q 266.190625 22.28 264.190625 22.28 
L 97 22.28 
Q 95 22.28 95 24.28 
L 95 37.958125 
Q 95 39.958125 97 39.958125 
z
" style="fill: #ffffff; opacity: 0.8; stroke: #cccccc; stroke-linejoin: miter"/>
    </g>
    <g id="line2d_15">
     <path d="M 99 30.378437 
L 109 30.378437 
L 119 30.378437 
" style="fill: none; stroke: #1f77b4; stroke-width: 1.5; stroke-linecap: square"/>
    </g>
    <g id="text_15">
     <!-- Number of PyPI Downloads -->
     <g transform="translate(127 33.878437) scale(0.1 -0.1)">
      <defs>
       <path id="DejaVuSans-4e" d="M 628 4666 
L 1478 4666 
L 3547 763 
L 3547 4666 
L 4159 4666 
L 4159 0 
L 3309 0 
L 1241 3903 
L 1241 0 
L 628 0 
L 628 4666 
z
" transform="scale(0.015625)"/>
       <path id="DejaVuSans-75" d="M 544 1381 
L 544 3500 
L 1119 3500 
L 1119 1403 
Q 1119 906 1312 657 
Q 1506 409 1894 409 
Q 2359 409 2629 706 
Q 2900 1003 2900 1516 
L 2900 3500 
L 3475 3500 
L 3475 0 
L 2900 0 
L 2900 538 
Q 2691 219 2414 64 
Q 2138 -91 1772 -91 
Q 1169 -91 856 284 
Q 544 659 544 1381 
z
M 1991 3584 
L 1991 3584 
z
" transform="scale(0.015625)"/>
       <path id="DejaVuSans-6d" d="M 3328 2828 
Q 3544 3216 3844 3400 
Q 4144 3584 4550 3584 
Q 5097 3584 5394 3201 
Q 5691 2819 5691 2113 
L 5691 0 
L 5113 0 
L 5113 2094 
Q 5113 2597 4934 2840 
Q 4756 3084 4391 3084 
Q 3944 3084 3684 2787 
Q 3425 2491 3425 1978 
L 3425 0 
L 2847 0 
L 2847 2094 
Q 2847 2600 2669 2842 
Q 2491 3084 2119 3084 
Q 1678 3084 1418 2786 
Q 1159 2488 1159 1978 
L 1159 0 
L 581 0 
L 581 3500 
L 1159 3500 
L 1159 2956 
Q 1356 3278 1631 3431 
Q 1906 3584 2284 3584 
Q 2666 3584 2933 3390 
Q 3200 3197 3328 2828 
z
" transform="scale(0.015625)"/>
       <path id="DejaVuSans-62" d="M 3116 1747 
Q 3116 2381 2855 2742 
Q 2594 3103 2138 3103 
Q 1681 3103 1420 2742 
Q 1159 2381 1159 1747 
Q 1159 1113 1420 752 
Q 1681 391 2138 391 
Q 2594 391 2855 752 
Q 3116 1113 3116 1747 
z
M 1159 2969 
Q 1341 3281 1617 3432 
Q 1894 3584 2278 3584 
Q 2916 3584 3314 3078 
Q 3713 2572 3713 1747 
Q 3713 922 3314 415 
Q 2916 -91 2278 -91 
Q 1894 -91 1617 61 
Q 1341 213 1159 525 
L 1159 0 
L 581 0 
L 581 4863 
L 1159 4863 
L 1159 2969 
z
" transform="scale(0.015625)"/>
       <path id="DejaVuSans-72" d="M 2631 2963 
Q 2534 3019 2420 3045 
Q 2306 3072 2169 3072 
Q 1681 3072 1420 2755 
Q 1159 2438 1159 1844 
L 1159 0 
L 581 0 
L 581 3500 
L 1159 3500 
L 1159 2956 
Q 1341 3275 1631 3429 
Q 1922 3584 2338 3584 
Q 2397 3584 2469 3576 
Q 2541 3569 2628 3553 
L 2631 2963 
z
" transform="scale(0.015625)"/>
       <path id="DejaVuSans-20" transform="scale(0.015625)"/>
       <path id="DejaVuSans-6f" d="M 1959 3097 
Q 1497 3097 1228 2736 
Q 959 2375 959 1747 
Q 959 1119 1226 758 
Q 1494 397 1959 397 
Q 2419 397 2687 759 
Q 2956 1122 2956 1747 
Q 2956 2369 2687 2733 
Q 2419 3097 1959 3097 
z
M 1959 3584 
Q 2709 3584 3137 3096 
Q 3566 2609 3566 1747 
Q 3566 888 3137 398 
Q 2709 -91 1959 -91 
Q 1206 -91 779 398 
Q 353 888 353 1747 
Q 353 2609 779 3096 
Q 1206 3584 1959 3584 
z
" transform="scale(0.015625)"/>
       <path id="DejaVuSans-66" d="M 2375 4863 
L 2375 4384 
L 1825 4384 
Q 1516 4384 1395 4259 
Q 1275 4134 1275 3809 
L 1275 3500 
L 2222 3500 
L 2222 3053 
L 1275 3053 
L 1275 0 
L 697 0 
L 697 3053 
L 147 3053 
L 147 3500 
L 697 3500 
L 697 3744 
Q 697 4328 969 4595 
Q 1241 4863 1831 4863 
L 2375 4863 
z
" transform="scale(0.015625)"/>
       <path id="DejaVuSans-50" d="M 1259 4147 
L 1259 2394 
L 2053 2394 
Q 2494 2394 2734 2622 
Q 2975 2850 2975 3272 
Q 2975 3691 2734 3919 
Q 2494 4147 2053 4147 
L 1259 4147 
z
M 628 4666 
L 2053 4666 
Q 2838 4666 3239 4311 
Q 3641 3956 3641 3272 
Q 3641 2581 3239 2228 
Q 2838 1875 2053 1875 
L 1259 1875 
L 1259 0 
L 628 0 
L 628 4666 
z
" transform="scale(0.015625)"/>
       <path id="DejaVuSans-79" d="M 2059 -325 
Q 1816 -950 1584 -1140 
Q 1353 -1331 966 -1331 
L 506 -1331 
L 506 -850 
L 844 -850 
Q 1081 -850 1212 -737 
Q 1344 -625 1503 -206 
L 1606 56 
L 191 3500 
L 800 3500 
L 1894 763 
L 2988 3500 
L 3597 3500 
L 2059 -325 
z
" transform="scale(0.015625)"/>
       <path id="DejaVuSans-49" d="M 628 4666 
L 1259 4666 
L 1259 0 
L 628 0 
L 628 4666 
z
" transform="scale(0.015625)"/>
       <path id="DejaVuSans-44" d="M 1259 4147 
L 1259 519 
L 2022 519 
Q 2988 519 3436 956 
Q 3884 1394 3884 2338 
Q 3884 3275 3436 3711 
Q 2988 4147 2022 4147 
L 1259 4147 
z
M 628 4666 
L 1925 4666 
Q 3281 4666 3915 4102 
Q 4550 3538 4550 2338 
Q 4550 1131 3912 565 
Q 3275 0 1925 0 
L 628 0 
L 628 4666 
z
" transform="scale(0.015625)"/>
       <path id="DejaVuSans-77" d="M 269 3500 
L 844 3500 
L 1563 769 
L 2278 3500 
L 2956 3500 
L 3675 769 
L 4391 3500 
L 4966 3500 
L 4050 0 
L 3372 0 
L 2619 2869 
L 1863 0 
L 1184 0 
L 269 3500 
z
" transform="scale(0.015625)"/>
       <path id="DejaVuSans-6e" d="M 3513 2113 
L 3513 0 
L 2938 0 
L 2938 2094 
Q 2938 2591 2744 2837 
Q 2550 3084 2163 3084 
Q 1697 3084 1428 2787 
Q 1159 2491 1159 1978 
L 1159 0 
L 581 0 
L 581 3500 
L 1159 3500 
L 1159 2956 
Q 1366 3272 1645 3428 
Q 1925 3584 2291 3584 
Q 2894 3584 3203 3211 
Q 3513 2838 3513 2113 
z
" transform="scale(0.015625)"/>
       <path id="DejaVuSans-6c" d="M 603 4863 
L 1178 4863 
L 1178 0 
L 603 0 
L 603 4863 
z
" transform="scale(0.015625)"/>
       <path id="DejaVuSans-73" d="M 2834 3397 
L 2834 2853 
Q 2591 2978 2328 3040 
Q 2066 3103 1784 3103 
Q 1356 3103 1142 2972 
Q 928 2841 928 2578 
Q 928 2378 1081 2264 
Q 1234 2150 1697 2047 
L 1894 2003 
Q 2506 1872 2764 1633 
Q 3022 1394 3022 966 
Q 3022 478 2636 193 
Q 2250 -91 1575 -91 
Q 1294 -91 989 -36 
Q 684 19 347 128 
L 347 722 
Q 666 556 975 473 
Q 1284 391 1588 391 
Q 1994 391 2212 530 
Q 2431 669 2431 922 
Q 2431 1156 2273 1281 
Q 2116 1406 1581 1522 
L 1381 1569 
Q 847 1681 609 1914 
Q 372 2147 372 2553 
Q 372 3047 722 3315 
Q 1072 3584 1716 3584 
Q 2034 3584 2315 3537 
Q 2597 3491 2834 3397 
z
" transform="scale(0.015625)"/>
      </defs>
      <use xlink:href="#DejaVuSans-4e"/>
      <use xlink:href="#DejaVuSans-75" x="74.804688"/>
      <use xlink:href="#DejaVuSans-6d" x="138.183594"/>
      <use xlink:href="#DejaVuSans-62" x="235.595703"/>
      <use xlink:href="#DejaVuSans-65" x="299.072266"/>
      <use xlink:href="#DejaVuSans-72" x="360.595703"/>
      <use xlink:href="#DejaVuSans-20" x="401.708984"/>
      <use xlink:href="#DejaVuSans-6f" x="433.496094"/>
      <use xlink:href="#DejaVuSans-66" x="494.677734"/>
      <use xlink:href="#DejaVuSans-20" x="529.882812"/>
      <use xlink:href="#DejaVuSans-50" x="561.669922"/>
      <use xlink:href="#DejaVuSans-79" x="621.972656"/>
      <use xlink:href="#DejaVuSans-50" x="681.152344"/>
      <use xlink:href="#DejaVuSans-49" x="741.455078"/>
      <use xlink:href="#DejaVuSans-20" x="770.947266"/>
      <use xlink:href="#DejaVuSans-44" x="802.734375"/>
      <use xlink:href="#DejaVuSans-6f" x="879.736328"/>
      <use xlink:href="#DejaVuSans-77" x="940.917969"/>
      <use xlink:href="#DejaVuSans-6e" x="1022.705078"/>
      <use xlink:href="#DejaVuSans-6c" x="1086.083984"/>
      <use xlink:href="#DejaVuSans-6f" x="1113.867188"/>
      <use xlink:href="#DejaVuSans-61" x="1175.048828"/>
      <use xlink:href="#DejaVuSans-64" x="1236.328125"/>
      <use xlink:href="#DejaVuSans-73" x="1299.804688"/>
     </g>
    </g>
   </g>
  </g>
 </g>
 <defs>
  <clipPath id="pada9312105">
   <rect x="90" y="17.28" width="558" height="110.88"/>
  </clipPath>
 </defs>
</svg>
