<?xml version="1.0" encoding="utf-8" standalone="no"?>
<!DOCTYPE svg PUBLIC "-//W3C//DTD SVG 1.1//EN"
  "http://www.w3.org/Graphics/SVG/1.1/DTD/svg11.dtd">
<svg xmlns:xlink="http://www.w3.org/1999/xlink" width="720pt" height="144pt" viewBox="0 0 720 144" xmlns="http://www.w3.org/2000/svg" version="1.1">
 <metadata>
  <rdf:RDF xmlns:dc="http://purl.org/dc/elements/1.1/" xmlns:cc="http://creativecommons.org/ns#" xmlns:rdf="http://www.w3.org/1999/02/22-rdf-syntax-ns#">
   <cc:Work>
    <dc:type rdf:resource="http://purl.org/dc/dcmitype/StillImage"/>
    <dc:date>2024-07-01T20:57:06.414964</dc:date>
    <dc:format>image/svg+xml</dc:format>
    <dc:creator>
     <cc:Agent>
      <dc:title>Matplotlib v3.9.0, https://matplotlib.org/</dc:title>
     </cc:Agent>
    </dc:creator>
   </cc:Work>
  </rdf:RDF>
 </metadata>
 <defs>
  <style type="text/css">*{stroke-linejoin: round; stroke-linecap: butt}</style>
 </defs>
 <g id="figure_1">
  <g id="patch_1">
   <path d="M 0 144 
L 720 144 
L 720 0 
L 0 0 
z
" style="fill: #ffffff"/>
  </g>
  <g id="axes_1">
   <g id="patch_2">
    <path d="M 90 128.16 
L 648 128.16 
L 648 17.28 
L 90 17.28 
z
" style="fill: #ffffff"/>
   </g>
   <g id="matplotlib.axis_1">
    <g id="xtick_1">
     <g id="line2d_1">
      <defs>
       <path id="mab30ff22c2" d="M 0 0 
L 0 3.5 
" style="stroke: #000000; stroke-width: 0.8"/>
      </defs>
      <g>
       <use xlink:href="#mab30ff22c2" x="115.363636" y="128.16" style="stroke: #000000; stroke-width: 0.8"/>
      </g>
     </g>
     <g id="text_1">
      <!-- 2020-06-18 -->
      <g transform="translate(86.305824 142.758438) scale(0.1 -0.1)">
       <defs>
        <path id="DejaVuSans-32" d="M 1228 531 
L 3431 531 
L 3431 0 
L 469 0 
L 469 531 
Q 828 903 1448 1529 
Q 2069 2156 2228 2338 
Q 2531 2678 2651 2914 
Q 2772 3150 2772 3378 
Q 2772 3750 2511 3984 
Q 2250 4219 1831 4219 
Q 1534 4219 1204 4116 
Q 875 4013 500 3803 
L 500 4441 
Q 881 4594 1212 4672 
Q 1544 4750 1819 4750 
Q 2544 4750 2975 4387 
Q 3406 4025 3406 3419 
Q 3406 3131 3298 2873 
Q 3191 2616 2906 2266 
Q 2828 2175 2409 1742 
Q 1991 1309 1228 531 
z
" transform="scale(0.015625)"/>
        <path id="DejaVuSans-30" d="M 2034 4250 
Q 1547 4250 1301 3770 
Q 1056 3291 1056 2328 
Q 1056 1369 1301 889 
Q 1547 409 2034 409 
Q 2525 409 2770 889 
Q 3016 1369 3016 2328 
Q 3016 3291 2770 3770 
Q 2525 4250 2034 4250 
z
M 2034 4750 
Q 2819 4750 3233 4129 
Q 3647 3509 3647 2328 
Q 3647 1150 3233 529 
Q 2819 -91 2034 -91 
Q 1250 -91 836 529 
Q 422 1150 422 2328 
Q 422 3509 836 4129 
Q 1250 4750 2034 4750 
z
" transform="scale(0.015625)"/>
        <path id="DejaVuSans-2d" d="M 313 2009 
L 1997 2009 
L 1997 1497 
L 313 1497 
L 313 2009 
z
" transform="scale(0.015625)"/>
        <path id="DejaVuSans-36" d="M 2113 2584 
Q 1688 2584 1439 2293 
Q 1191 2003 1191 1497 
Q 1191 994 1439 701 
Q 1688 409 2113 409 
Q 2538 409 2786 701 
Q 3034 994 3034 1497 
Q 3034 2003 2786 2293 
Q 2538 2584 2113 2584 
z
M 3366 4563 
L 3366 3988 
Q 3128 4100 2886 4159 
Q 2644 4219 2406 4219 
Q 1781 4219 1451 3797 
Q 1122 3375 1075 2522 
Q 1259 2794 1537 2939 
Q 1816 3084 2150 3084 
Q 2853 3084 3261 2657 
Q 3669 2231 3669 1497 
Q 3669 778 3244 343 
Q 2819 -91 2113 -91 
Q 1303 -91 875 529 
Q 447 1150 447 2328 
Q 447 3434 972 4092 
Q 1497 4750 2381 4750 
Q 2619 4750 2861 4703 
Q 3103 4656 3366 4563 
z
" transform="scale(0.015625)"/>
        <path id="DejaVuSans-31" d="M 794 531 
L 1825 531 
L 1825 4091 
L 703 3866 
L 703 4441 
L 1819 4666 
L 2450 4666 
L 2450 531 
L 3481 531 
L 3481 0 
L 794 0 
L 794 531 
z
" transform="scale(0.015625)"/>
        <path id="DejaVuSans-38" d="M 2034 2216 
Q 1584 2216 1326 1975 
Q 1069 1734 1069 1313 
Q 1069 891 1326 650 
Q 1584 409 2034 409 
Q 2484 409 2743 651 
Q 3003 894 3003 1313 
Q 3003 1734 2745 1975 
Q 2488 2216 2034 2216 
z
M 1403 2484 
Q 997 2584 770 2862 
Q 544 3141 544 3541 
Q 544 4100 942 4425 
Q 1341 4750 2034 4750 
Q 2731 4750 3128 4425 
Q 3525 4100 3525 3541 
Q 3525 3141 3298 2862 
Q 3072 2584 2669 2484 
Q 3125 2378 3379 2068 
Q 3634 1759 3634 1313 
Q 3634 634 3220 271 
Q 2806 -91 2034 -91 
Q 1263 -91 848 271 
Q 434 634 434 1313 
Q 434 1759 690 2068 
Q 947 2378 1403 2484 
z
M 1172 3481 
Q 1172 3119 1398 2916 
Q 1625 2713 2034 2713 
Q 2441 2713 2670 2916 
Q 2900 3119 2900 3481 
Q 2900 3844 2670 4047 
Q 2441 4250 2034 4250 
Q 1625 4250 1398 4047 
Q 1172 3844 1172 3481 
z
" transform="scale(0.015625)"/>
       </defs>
       <use xlink:href="#DejaVuSans-32"/>
       <use xlink:href="#DejaVuSans-30" x="63.623047"/>
       <use xlink:href="#DejaVuSans-32" x="127.246094"/>
       <use xlink:href="#DejaVuSans-30" x="190.869141"/>
       <use xlink:href="#DejaVuSans-2d" x="254.492188"/>
       <use xlink:href="#DejaVuSans-30" x="290.576172"/>
       <use xlink:href="#DejaVuSans-36" x="354.199219"/>
       <use xlink:href="#DejaVuSans-2d" x="417.822266"/>
       <use xlink:href="#DejaVuSans-31" x="453.90625"/>
       <use xlink:href="#DejaVuSans-38" x="517.529297"/>
      </g>
     </g>
    </g>
    <g id="xtick_2">
     <g id="line2d_2">
      <g>
       <use xlink:href="#mab30ff22c2" x="190.963149" y="128.16" style="stroke: #000000; stroke-width: 0.8"/>
      </g>
     </g>
     <g id="text_2">
      <!-- 2021-03-15 -->
      <g transform="translate(161.905336 142.758438) scale(0.1 -0.1)">
       <defs>
        <path id="DejaVuSans-33" d="M 2597 2516 
Q 3050 2419 3304 2112 
Q 3559 1806 3559 1356 
Q 3559 666 3084 287 
Q 2609 -91 1734 -91 
Q 1441 -91 1130 -33 
Q 819 25 488 141 
L 488 750 
Q 750 597 1062 519 
Q 1375 441 1716 441 
Q 2309 441 2620 675 
Q 2931 909 2931 1356 
Q 2931 1769 2642 2001 
Q 2353 2234 1838 2234 
L 1294 2234 
L 1294 2753 
L 1863 2753 
Q 2328 2753 2575 2939 
Q 2822 3125 2822 3475 
Q 2822 3834 2567 4026 
Q 2313 4219 1838 4219 
Q 1578 4219 1281 4162 
Q 984 4106 628 3988 
L 628 4550 
Q 988 4650 1302 4700 
Q 1616 4750 1894 4750 
Q 2613 4750 3031 4423 
Q 3450 4097 3450 3541 
Q 3450 3153 3228 2886 
Q 3006 2619 2597 2516 
z
" transform="scale(0.015625)"/>
        <path id="DejaVuSans-35" d="M 691 4666 
L 3169 4666 
L 3169 4134 
L 1269 4134 
L 1269 2991 
Q 1406 3038 1543 3061 
Q 1681 3084 1819 3084 
Q 2600 3084 3056 2656 
Q 3513 2228 3513 1497 
Q 3513 744 3044 326 
Q 2575 -91 1722 -91 
Q 1428 -91 1123 -41 
Q 819 9 494 109 
L 494 744 
Q 775 591 1075 516 
Q 1375 441 1709 441 
Q 2250 441 2565 725 
Q 2881 1009 2881 1497 
Q 2881 1984 2565 2268 
Q 2250 2553 1709 2553 
Q 1456 2553 1204 2497 
Q 953 2441 691 2322 
L 691 4666 
z
" transform="scale(0.015625)"/>
       </defs>
       <use xlink:href="#DejaVuSans-32"/>
       <use xlink:href="#DejaVuSans-30" x="63.623047"/>
       <use xlink:href="#DejaVuSans-32" x="127.246094"/>
       <use xlink:href="#DejaVuSans-31" x="190.869141"/>
       <use xlink:href="#DejaVuSans-2d" x="254.492188"/>
       <use xlink:href="#DejaVuSans-30" x="290.576172"/>
       <use xlink:href="#DejaVuSans-33" x="354.199219"/>
       <use xlink:href="#DejaVuSans-2d" x="417.822266"/>
       <use xlink:href="#DejaVuSans-31" x="453.90625"/>
       <use xlink:href="#DejaVuSans-35" x="517.529297"/>
      </g>
     </g>
    </g>
    <g id="xtick_3">
     <g id="line2d_3">
      <g>
       <use xlink:href="#mab30ff22c2" x="266.562661" y="128.16" style="stroke: #000000; stroke-width: 0.8"/>
      </g>
     </g>
     <g id="text_3">
      <!-- 2021-10-17 -->
      <g transform="translate(237.504848 142.758438) scale(0.1 -0.1)">
       <defs>
        <path id="DejaVuSans-37" d="M 525 4666 
L 3525 4666 
L 3525 4397 
L 1831 0 
L 1172 0 
L 2766 4134 
L 525 4134 
L 525 4666 
z
" transform="scale(0.015625)"/>
       </defs>
       <use xlink:href="#DejaVuSans-32"/>
       <use xlink:href="#DejaVuSans-30" x="63.623047"/>
       <use xlink:href="#DejaVuSans-32" x="127.246094"/>
       <use xlink:href="#DejaVuSans-31" x="190.869141"/>
       <use xlink:href="#DejaVuSans-2d" x="254.492188"/>
       <use xlink:href="#DejaVuSans-31" x="290.576172"/>
       <use xlink:href="#DejaVuSans-30" x="354.199219"/>
       <use xlink:href="#DejaVuSans-2d" x="417.822266"/>
       <use xlink:href="#DejaVuSans-31" x="453.90625"/>
       <use xlink:href="#DejaVuSans-37" x="517.529297"/>
      </g>
     </g>
    </g>
    <g id="xtick_4">
     <g id="line2d_4">
      <g>
       <use xlink:href="#mab30ff22c2" x="342.162173" y="128.16" style="stroke: #000000; stroke-width: 0.8"/>
      </g>
     </g>
     <g id="text_4">
      <!-- 2022-05-15 -->
      <g transform="translate(313.104361 142.758438) scale(0.1 -0.1)">
       <use xlink:href="#DejaVuSans-32"/>
       <use xlink:href="#DejaVuSans-30" x="63.623047"/>
       <use xlink:href="#DejaVuSans-32" x="127.246094"/>
       <use xlink:href="#DejaVuSans-32" x="190.869141"/>
       <use xlink:href="#DejaVuSans-2d" x="254.492188"/>
       <use xlink:href="#DejaVuSans-30" x="290.576172"/>
       <use xlink:href="#DejaVuSans-35" x="354.199219"/>
       <use xlink:href="#DejaVuSans-2d" x="417.822266"/>
       <use xlink:href="#DejaVuSans-31" x="453.90625"/>
       <use xlink:href="#DejaVuSans-35" x="517.529297"/>
      </g>
     </g>
    </g>
    <g id="xtick_5">
     <g id="line2d_5">
      <g>
       <use xlink:href="#mab30ff22c2" x="417.761685" y="128.16" style="stroke: #000000; stroke-width: 0.8"/>
      </g>
     </g>
     <g id="text_5">
      <!-- 2022-12-10 -->
      <g transform="translate(388.703873 142.758438) scale(0.1 -0.1)">
       <use xlink:href="#DejaVuSans-32"/>
       <use xlink:href="#DejaVuSans-30" x="63.623047"/>
       <use xlink:href="#DejaVuSans-32" x="127.246094"/>
       <use xlink:href="#DejaVuSans-32" x="190.869141"/>
       <use xlink:href="#DejaVuSans-2d" x="254.492188"/>
       <use xlink:href="#DejaVuSans-31" x="290.576172"/>
       <use xlink:href="#DejaVuSans-32" x="354.199219"/>
       <use xlink:href="#DejaVuSans-2d" x="417.822266"/>
       <use xlink:href="#DejaVuSans-31" x="453.90625"/>
       <use xlink:href="#DejaVuSans-30" x="517.529297"/>
      </g>
     </g>
    </g>
    <g id="xtick_6">
     <g id="line2d_6">
      <g>
       <use xlink:href="#mab30ff22c2" x="493.361198" y="128.16" style="stroke: #000000; stroke-width: 0.8"/>
      </g>
     </g>
     <g id="text_6">
      <!-- 2023-07-14 -->
      <g transform="translate(464.303385 142.758438) scale(0.1 -0.1)">
       <defs>
        <path id="DejaVuSans-34" d="M 2419 4116 
L 825 1625 
L 2419 1625 
L 2419 4116 
z
M 2253 4666 
L 3047 4666 
L 3047 1625 
L 3713 1625 
L 3713 1100 
L 3047 1100 
L 3047 0 
L 2419 0 
L 2419 1100 
L 313 1100 
L 313 1709 
L 2253 4666 
z
" transform="scale(0.015625)"/>
       </defs>
       <use xlink:href="#DejaVuSans-32"/>
       <use xlink:href="#DejaVuSans-30" x="63.623047"/>
       <use xlink:href="#DejaVuSans-32" x="127.246094"/>
       <use xlink:href="#DejaVuSans-33" x="190.869141"/>
       <use xlink:href="#DejaVuSans-2d" x="254.492188"/>
       <use xlink:href="#DejaVuSans-30" x="290.576172"/>
       <use xlink:href="#DejaVuSans-37" x="354.199219"/>
       <use xlink:href="#DejaVuSans-2d" x="417.822266"/>
       <use xlink:href="#DejaVuSans-31" x="453.90625"/>
       <use xlink:href="#DejaVuSans-34" x="517.529297"/>
      </g>
     </g>
    </g>
    <g id="xtick_7">
     <g id="line2d_7">
      <g>
       <use xlink:href="#mab30ff22c2" x="568.96071" y="128.16" style="stroke: #000000; stroke-width: 0.8"/>
      </g>
     </g>
     <g id="text_7">
      <!-- 2024-02-07 -->
      <g transform="translate(539.902897 142.758438) scale(0.1 -0.1)">
       <use xlink:href="#DejaVuSans-32"/>
       <use xlink:href="#DejaVuSans-30" x="63.623047"/>
       <use xlink:href="#DejaVuSans-32" x="127.246094"/>
       <use xlink:href="#DejaVuSans-34" x="190.869141"/>
       <use xlink:href="#DejaVuSans-2d" x="254.492188"/>
       <use xlink:href="#DejaVuSans-30" x="290.576172"/>
       <use xlink:href="#DejaVuSans-32" x="354.199219"/>
       <use xlink:href="#DejaVuSans-2d" x="417.822266"/>
       <use xlink:href="#DejaVuSans-30" x="453.90625"/>
       <use xlink:href="#DejaVuSans-37" x="517.529297"/>
      </g>
     </g>
    </g>
    <g id="xtick_8">
     <g id="line2d_8">
      <g>
       <use xlink:href="#mab30ff22c2" x="644.560222" y="128.16" style="stroke: #000000; stroke-width: 0.8"/>
      </g>
     </g>
    </g>
    <g id="text_8">
     <!-- date -->
     <g transform="translate(357.725 156.436563) scale(0.1 -0.1)">
      <defs>
       <path id="DejaVuSans-64" d="M 2906 2969 
L 2906 4863 
L 3481 4863 
L 3481 0 
L 2906 0 
L 2906 525 
Q 2725 213 2448 61 
Q 2172 -91 1784 -91 
Q 1150 -91 751 415 
Q 353 922 353 1747 
Q 353 2572 751 3078 
Q 1150 3584 1784 3584 
Q 2172 3584 2448 3432 
Q 2725 3281 2906 2969 
z
M 947 1747 
Q 947 1113 1208 752 
Q 1469 391 1925 391 
Q 2381 391 2643 752 
Q 2906 1113 2906 1747 
Q 2906 2381 2643 2742 
Q 2381 3103 1925 3103 
Q 1469 3103 1208 2742 
Q 947 2381 947 1747 
z
" transform="scale(0.015625)"/>
       <path id="DejaVuSans-61" d="M 2194 1759 
Q 1497 1759 1228 1600 
Q 959 1441 959 1056 
Q 959 750 1161 570 
Q 1363 391 1709 391 
Q 2188 391 2477 730 
Q 2766 1069 2766 1631 
L 2766 1759 
L 2194 1759 
z
M 3341 1997 
L 3341 0 
L 2766 0 
L 2766 531 
Q 2569 213 2275 61 
Q 1981 -91 1556 -91 
Q 1019 -91 701 211 
Q 384 513 384 1019 
Q 384 1609 779 1909 
Q 1175 2209 1959 2209 
L 2766 2209 
L 2766 2266 
Q 2766 2663 2505 2880 
Q 2244 3097 1772 3097 
Q 1472 3097 1187 3025 
Q 903 2953 641 2809 
L 641 3341 
Q 956 3463 1253 3523 
Q 1550 3584 1831 3584 
Q 2591 3584 2966 3190 
Q 3341 2797 3341 1997 
z
" transform="scale(0.015625)"/>
       <path id="DejaVuSans-74" d="M 1172 4494 
L 1172 3500 
L 2356 3500 
L 2356 3053 
L 1172 3053 
L 1172 1153 
Q 1172 725 1289 603 
Q 1406 481 1766 481 
L 2356 481 
L 2356 0 
L 1766 0 
Q 1100 0 847 248 
Q 594 497 594 1153 
L 594 3053 
L 172 3053 
L 172 3500 
L 594 3500 
L 594 4494 
L 1172 4494 
z
" transform="scale(0.015625)"/>
       <path id="DejaVuSans-65" d="M 3597 1894 
L 3597 1613 
L 953 1613 
Q 991 1019 1311 708 
Q 1631 397 2203 397 
Q 2534 397 2845 478 
Q 3156 559 3463 722 
L 3463 178 
Q 3153 47 2828 -22 
Q 2503 -91 2169 -91 
Q 1331 -91 842 396 
Q 353 884 353 1716 
Q 353 2575 817 3079 
Q 1281 3584 2069 3584 
Q 2775 3584 3186 3129 
Q 3597 2675 3597 1894 
z
M 3022 2063 
Q 3016 2534 2758 2815 
Q 2500 3097 2075 3097 
Q 1594 3097 1305 2825 
Q 1016 2553 972 2059 
L 3022 2063 
z
" transform="scale(0.015625)"/>
      </defs>
      <use xlink:href="#DejaVuSans-64"/>
      <use xlink:href="#DejaVuSans-61" x="63.476562"/>
      <use xlink:href="#DejaVuSans-74" x="124.755859"/>
      <use xlink:href="#DejaVuSans-65" x="163.964844"/>
     </g>
    </g>
   </g>
   <g id="matplotlib.axis_2">
    <g id="ytick_1">
     <g id="line2d_9">
      <defs>
       <path id="m13da7fe0fe" d="M 0 0 
L -3.5 0 
" style="stroke: #000000; stroke-width: 0.8"/>
      </defs>
      <g>
       <use xlink:href="#m13da7fe0fe" x="90" y="123.783158" style="stroke: #000000; stroke-width: 0.8"/>
      </g>
     </g>
     <g id="text_9">
      <!-- 0 -->
      <g transform="translate(76.6375 127.582377) scale(0.1 -0.1)">
       <use xlink:href="#DejaVuSans-30"/>
      </g>
     </g>
    </g>
    <g id="ytick_2">
     <g id="line2d_10">
      <g>
       <use xlink:href="#m13da7fe0fe" x="90" y="90.625263" style="stroke: #000000; stroke-width: 0.8"/>
      </g>
     </g>
     <g id="text_10">
      <!-- 50 -->
      <g transform="translate(70.275 94.424482) scale(0.1 -0.1)">
       <use xlink:href="#DejaVuSans-35"/>
       <use xlink:href="#DejaVuSans-30" x="63.623047"/>
      </g>
     </g>
    </g>
    <g id="ytick_3">
     <g id="line2d_11">
      <g>
       <use xlink:href="#m13da7fe0fe" x="90" y="57.467368" style="stroke: #000000; stroke-width: 0.8"/>
      </g>
     </g>
     <g id="text_11">
      <!-- 100 -->
      <g transform="translate(63.9125 61.266587) scale(0.1 -0.1)">
       <use xlink:href="#DejaVuSans-31"/>
       <use xlink:href="#DejaVuSans-30" x="63.623047"/>
       <use xlink:href="#DejaVuSans-30" x="127.246094"/>
      </g>
     </g>
    </g>
    <g id="ytick_4">
     <g id="line2d_12">
      <g>
       <use xlink:href="#m13da7fe0fe" x="90" y="24.309474" style="stroke: #000000; stroke-width: 0.8"/>
      </g>
     </g>
     <g id="text_12">
      <!-- 150 -->
      <g transform="translate(63.9125 28.108692) scale(0.1 -0.1)">
       <use xlink:href="#DejaVuSans-31"/>
       <use xlink:href="#DejaVuSans-35" x="63.623047"/>
       <use xlink:href="#DejaVuSans-30" x="127.246094"/>
      </g>
     </g>
    </g>
   </g>
   <g id="line2d_13">
    <path d="M 115.363636 109.193684 
L 116.119631 121.130526 
L 117.253624 123.12 
L 117.631622 121.793684 
L 118.009619 118.477895 
L 118.387617 122.456842 
L 118.765614 121.793684 
L 119.143612 122.456842 
L 119.52161 107.867368 
L 119.899607 119.141053 
L 120.277605 121.793684 
L 120.655602 118.477895 
L 121.0336 122.456842 
L 121.411597 119.804211 
L 121.789595 119.141053 
L 122.167592 123.12 
L 122.54559 121.793684 
L 122.923588 117.151579 
L 123.301585 118.477895 
L 123.679583 121.130526 
L 124.05758 121.793684 
L 124.435578 121.793684 
L 125.191573 123.12 
L 125.569571 117.814737 
L 125.947568 89.962105 
L 126.325566 119.804211 
L 126.703563 121.793684 
L 127.081561 121.793684 
L 127.459558 120.467368 
L 127.837556 122.456842 
L 128.215553 121.130526 
L 128.593551 123.12 
L 128.971549 121.793684 
L 129.349546 121.793684 
L 129.727544 123.12 
L 130.105541 122.456842 
L 130.483539 121.130526 
L 130.861536 121.130526 
L 131.239534 119.804211 
L 131.617531 123.12 
L 131.995529 123.12 
L 132.373527 122.456842 
L 132.751524 122.456842 
L 133.129522 123.12 
L 133.507519 123.12 
L 133.885517 113.172632 
L 134.263514 120.467368 
L 134.641512 119.141053 
L 135.01951 122.456842 
L 135.397507 120.467368 
L 135.775505 119.141053 
L 136.153502 120.467368 
L 136.5315 123.12 
L 136.909497 122.456842 
L 137.287495 120.467368 
L 137.665492 123.12 
L 138.421488 121.793684 
L 138.799485 119.141053 
L 139.55548 123.12 
L 139.933478 121.130526 
L 140.311475 120.467368 
L 140.689473 123.12 
L 141.067471 121.130526 
L 141.445468 123.12 
L 141.823466 122.456842 
L 142.201463 120.467368 
L 142.579461 123.12 
L 142.957458 122.456842 
L 143.335456 122.456842 
L 143.713453 123.12 
L 144.091451 120.467368 
L 144.469449 123.12 
L 144.847446 121.793684 
L 145.603441 121.793684 
L 145.981439 121.130526 
L 146.359436 119.804211 
L 146.737434 121.793684 
L 147.115432 119.804211 
L 147.493429 123.12 
L 148.249424 121.793684 
L 148.627422 120.467368 
L 149.005419 122.456842 
L 149.383417 123.12 
L 149.761414 122.456842 
L 150.139412 121.130526 
L 150.51741 121.793684 
L 150.895407 123.12 
L 151.273405 114.498947 
L 151.651402 123.12 
L 152.0294 121.793684 
L 152.407397 121.130526 
L 152.785395 123.12 
L 153.163392 121.130526 
L 153.54139 118.477895 
L 153.919388 121.793684 
L 154.297385 123.12 
L 154.675383 123.12 
L 155.05338 122.456842 
L 155.431378 123.12 
L 155.809375 123.12 
L 156.187373 122.456842 
L 156.565371 122.456842 
L 156.943368 121.793684 
L 157.321366 122.456842 
L 158.455358 120.467368 
L 158.833356 121.793684 
L 159.211353 121.793684 
L 159.967349 120.467368 
L 160.345346 122.456842 
L 160.723344 123.12 
L 161.101341 119.141053 
L 161.479339 122.456842 
L 161.857336 122.456842 
L 162.235334 118.477895 
L 162.613332 121.793684 
L 162.991329 121.793684 
L 163.369327 107.204211 
L 163.747324 120.467368 
L 164.125322 121.793684 
L 164.503319 119.141053 
L 164.881317 122.456842 
L 165.259314 119.804211 
L 165.637312 122.456842 
L 166.01531 118.477895 
L 166.393307 120.467368 
L 166.771305 123.12 
L 167.149302 122.456842 
L 167.5273 115.162105 
L 167.905297 120.467368 
L 168.283295 122.456842 
L 168.661293 123.12 
L 169.03929 123.12 
L 169.417288 118.477895 
L 169.795285 123.12 
L 170.173283 123.12 
L 170.55128 121.130526 
L 170.929278 123.12 
L 171.307275 123.12 
L 172.063271 120.467368 
L 172.441268 123.12 
L 172.819266 121.793684 
L 173.575261 123.12 
L 173.953258 120.467368 
L 174.331256 123.12 
L 174.709253 123.12 
L 175.087251 122.456842 
L 175.465249 123.12 
L 175.843246 123.12 
L 176.221244 120.467368 
L 176.977239 123.12 
L 177.733234 121.793684 
L 178.111232 121.793684 
L 178.489229 122.456842 
L 178.867227 121.130526 
L 179.245224 122.456842 
L 179.623222 123.12 
L 180.379217 123.12 
L 180.757214 120.467368 
L 181.135212 123.12 
L 181.51321 122.456842 
L 181.891207 123.12 
L 182.269205 120.467368 
L 182.647202 121.793684 
L 183.0252 122.456842 
L 183.403197 122.456842 
L 183.781195 121.130526 
L 184.159193 122.456842 
L 184.53719 121.793684 
L 184.915188 121.793684 
L 185.293185 122.456842 
L 185.671183 122.456842 
L 186.04918 123.12 
L 186.427178 119.141053 
L 186.805175 122.456842 
L 187.183173 122.456842 
L 187.561171 123.12 
L 187.939168 122.456842 
L 188.317166 123.12 
L 188.695163 123.12 
L 189.451158 121.793684 
L 189.829156 116.488421 
L 190.207154 103.888421 
L 190.585151 123.12 
L 190.963149 122.456842 
L 191.341146 119.141053 
L 191.719144 120.467368 
L 192.097141 119.804211 
L 192.475139 114.498947 
L 192.853136 123.12 
L 193.231134 122.456842 
L 193.609132 121.130526 
L 193.987129 119.141053 
L 194.365127 116.488421 
L 194.743124 108.530526 
L 195.121122 113.835789 
L 195.499119 122.456842 
L 195.877117 101.235789 
L 196.255114 113.172632 
L 196.633112 118.477895 
L 197.01111 114.498947 
L 197.389107 120.467368 
L 197.767105 114.498947 
L 198.145102 115.162105 
L 198.5231 113.835789 
L 198.901097 108.530526 
L 199.279095 121.793684 
L 199.657093 119.141053 
L 200.03509 121.793684 
L 200.413088 123.12 
L 200.791085 120.467368 
L 201.169083 123.12 
L 201.54708 121.793684 
L 201.925078 123.12 
L 202.303075 122.456842 
L 202.681073 114.498947 
L 203.059071 121.793684 
L 203.437068 119.804211 
L 203.815066 121.130526 
L 204.193063 120.467368 
L 204.571061 123.12 
L 204.949058 119.141053 
L 205.327056 120.467368 
L 205.705054 122.456842 
L 206.083051 119.804211 
L 206.461049 123.12 
L 206.839046 121.793684 
L 207.217044 123.12 
L 207.595041 121.130526 
L 207.973039 122.456842 
L 208.351036 121.130526 
L 208.729034 120.467368 
L 209.107032 122.456842 
L 209.863027 122.456842 
L 210.241024 121.130526 
L 210.619022 120.467368 
L 210.997019 109.193684 
L 211.375017 110.52 
L 211.753014 121.793684 
L 212.131012 122.456842 
L 212.50901 119.804211 
L 212.887007 120.467368 
L 213.265005 119.141053 
L 213.643002 122.456842 
L 214.021 123.12 
L 214.398997 119.804211 
L 214.776995 119.141053 
L 215.154993 117.151579 
L 215.53299 122.456842 
L 215.910988 120.467368 
L 216.288985 122.456842 
L 216.666983 122.456842 
L 217.04498 123.12 
L 217.800975 120.467368 
L 218.556971 123.12 
L 218.934968 121.793684 
L 219.312966 122.456842 
L 219.690963 119.141053 
L 220.068961 117.814737 
L 220.446958 119.141053 
L 220.824956 119.804211 
L 221.202954 118.477895 
L 221.580951 113.172632 
L 221.958949 119.804211 
L 222.336946 121.130526 
L 222.714944 120.467368 
L 223.092941 118.477895 
L 223.470939 113.835789 
L 223.848936 122.456842 
L 224.226934 121.793684 
L 224.604932 123.12 
L 224.982929 117.814737 
L 225.360927 118.477895 
L 225.738924 121.130526 
L 226.116922 117.151579 
L 226.494919 115.825263 
L 226.872917 122.456842 
L 227.250915 122.456842 
L 227.628912 117.151579 
L 228.00691 105.214737 
L 228.384907 114.498947 
L 228.762905 119.804211 
L 229.140902 120.467368 
L 229.5189 120.467368 
L 230.274895 121.793684 
L 230.652893 119.804211 
L 231.03089 119.804211 
L 231.408888 122.456842 
L 231.786885 122.456842 
L 232.164883 121.793684 
L 232.54288 122.456842 
L 232.920878 118.477895 
L 233.298875 118.477895 
L 233.676873 119.804211 
L 234.054871 117.814737 
L 234.432868 113.172632 
L 234.810866 118.477895 
L 235.188863 118.477895 
L 235.566861 121.793684 
L 235.944858 121.793684 
L 236.322856 119.141053 
L 236.700854 123.12 
L 237.078851 111.846316 
L 237.456849 110.52 
L 237.834846 119.804211 
L 238.212844 120.467368 
L 238.590841 114.498947 
L 239.346836 121.793684 
L 239.724834 120.467368 
L 240.102832 123.12 
L 240.480829 117.814737 
L 240.858827 109.193684 
L 241.236824 122.456842 
L 241.614822 121.793684 
L 242.370817 123.12 
L 242.748815 121.130526 
L 243.126812 110.52 
L 243.50481 118.477895 
L 243.882807 122.456842 
L 244.260805 122.456842 
L 244.638802 113.172632 
L 245.0168 121.793684 
L 245.394797 122.456842 
L 245.772795 121.793684 
L 247.284785 121.793684 
L 247.662783 120.467368 
L 248.04078 123.12 
L 248.418778 122.456842 
L 248.796776 122.456842 
L 249.174773 123.12 
L 249.552771 123.12 
L 249.930768 122.456842 
L 250.308766 123.12 
L 250.686763 119.804211 
L 251.064761 122.456842 
L 251.442758 120.467368 
L 251.820756 120.467368 
L 252.198754 119.141053 
L 252.576751 120.467368 
L 252.954749 123.12 
L 253.332746 121.793684 
L 254.088741 121.793684 
L 254.466739 123.12 
L 254.844736 122.456842 
L 255.222734 122.456842 
L 255.600732 121.130526 
L 255.978729 122.456842 
L 257.112722 122.456842 
L 257.490719 99.909474 
L 257.868717 120.467368 
L 258.246715 123.12 
L 258.624712 122.456842 
L 259.00271 121.130526 
L 259.380707 123.12 
L 259.758705 120.467368 
L 260.136702 122.456842 
L 260.5147 119.804211 
L 260.892697 119.141053 
L 261.270695 119.141053 
L 261.648693 118.477895 
L 262.02669 110.52 
L 262.404688 110.52 
L 262.782685 119.141053 
L 263.160683 121.130526 
L 263.53868 122.456842 
L 263.916678 112.509474 
L 264.294676 120.467368 
L 264.672673 122.456842 
L 265.050671 122.456842 
L 265.428668 121.793684 
L 265.806666 121.793684 
L 266.184663 122.456842 
L 266.562661 122.456842 
L 266.940658 120.467368 
L 267.318656 123.12 
L 267.696654 122.456842 
L 268.074651 120.467368 
L 268.452649 120.467368 
L 268.830646 121.793684 
L 269.586641 110.52 
L 269.964639 117.814737 
L 270.342636 117.151579 
L 270.720634 113.172632 
L 271.098632 115.825263 
L 271.854627 117.151579 
L 272.232624 116.488421 
L 272.610622 112.509474 
L 272.988619 114.498947 
L 273.366617 120.467368 
L 273.744615 121.130526 
L 274.122612 119.804211 
L 274.50061 119.804211 
L 274.878607 117.814737 
L 275.256605 119.141053 
L 275.634602 115.162105 
L 276.0126 118.477895 
L 276.390597 119.141053 
L 276.768595 116.488421 
L 277.146593 110.52 
L 277.52459 116.488421 
L 277.902588 119.141053 
L 278.658583 116.488421 
L 279.03658 119.141053 
L 279.414578 114.498947 
L 279.792576 116.488421 
L 280.170573 119.141053 
L 280.548571 114.498947 
L 280.926568 121.793684 
L 281.304566 120.467368 
L 281.682563 121.130526 
L 282.060561 118.477895 
L 282.438558 117.814737 
L 282.816556 107.204211 
L 283.194554 105.214737 
L 283.572551 117.151579 
L 283.950549 99.246316 
L 284.328546 121.793684 
L 284.706544 120.467368 
L 285.084541 121.793684 
L 285.462539 104.551579 
L 285.840537 105.214737 
L 286.596532 122.456842 
L 286.974529 120.467368 
L 287.352527 115.162105 
L 287.730524 120.467368 
L 288.108522 120.467368 
L 288.486519 105.214737 
L 288.864517 116.488421 
L 289.242515 118.477895 
L 289.99851 119.804211 
L 290.376507 119.804211 
L 290.754505 118.477895 
L 291.888497 122.456842 
L 292.266495 117.814737 
L 292.644493 122.456842 
L 293.02249 122.456842 
L 293.778485 121.130526 
L 294.156483 123.12 
L 294.53448 121.130526 
L 294.912478 119.804211 
L 295.290476 121.793684 
L 295.668473 122.456842 
L 296.046471 122.456842 
L 296.424468 117.814737 
L 296.802466 123.12 
L 297.180463 108.530526 
L 297.558461 121.793684 
L 297.936458 122.456842 
L 298.314456 120.467368 
L 298.692454 120.467368 
L 299.070451 121.130526 
L 299.448449 122.456842 
L 299.826446 118.477895 
L 300.204444 121.793684 
L 300.582441 120.467368 
L 300.960439 121.130526 
L 301.338437 107.867368 
L 301.716434 121.793684 
L 302.094432 119.804211 
L 302.472429 123.12 
L 302.850427 123.12 
L 303.228424 122.456842 
L 303.606422 117.814737 
L 303.984419 122.456842 
L 304.362417 118.477895 
L 304.740415 120.467368 
L 305.118412 123.12 
L 305.49641 120.467368 
L 306.252405 120.467368 
L 306.630402 118.477895 
L 307.0084 117.151579 
L 307.386398 121.130526 
L 307.764395 121.130526 
L 308.142393 120.467368 
L 308.52039 121.793684 
L 308.898388 121.793684 
L 309.276385 120.467368 
L 309.654383 118.477895 
L 310.03238 118.477895 
L 310.410378 119.804211 
L 310.788376 122.456842 
L 311.544371 122.456842 
L 311.922368 110.52 
L 312.300366 82.667368 
L 312.678363 95.930526 
L 313.056361 119.804211 
L 313.434358 121.793684 
L 313.812356 120.467368 
L 314.568351 111.183158 
L 314.946349 119.141053 
L 315.324346 107.867368 
L 315.702344 93.277895 
L 316.080341 120.467368 
L 316.458339 92.614737 
L 316.836337 115.162105 
L 317.214334 122.456842 
L 317.592332 84.656842 
L 317.970329 105.877895 
L 318.348327 113.172632 
L 318.726324 80.677895 
L 319.104322 119.804211 
L 319.482319 120.467368 
L 319.860317 105.214737 
L 320.238315 114.498947 
L 320.616312 103.225263 
L 320.99431 114.498947 
L 321.372307 121.130526 
L 321.750305 66.088421 
L 322.128302 119.804211 
L 322.5063 120.467368 
L 322.884298 120.467368 
L 323.262295 115.825263 
L 323.640293 119.141053 
L 324.01829 109.856842 
L 324.396288 119.141053 
L 324.774285 121.130526 
L 325.152283 105.877895 
L 325.53028 105.877895 
L 325.908278 115.825263 
L 326.286276 103.888421 
L 326.664273 119.804211 
L 327.042271 120.467368 
L 327.420268 105.877895 
L 327.798266 123.12 
L 328.176263 121.793684 
L 328.554261 121.130526 
L 328.932259 119.804211 
L 329.310256 121.793684 
L 329.688254 121.130526 
L 330.066251 119.804211 
L 330.444249 116.488421 
L 330.822246 118.477895 
L 331.200244 112.509474 
L 331.956239 122.456842 
L 332.334237 123.12 
L 332.712234 117.814737 
L 333.468229 121.793684 
L 333.846227 123.12 
L 334.224224 119.804211 
L 334.602222 122.456842 
L 334.980219 119.804211 
L 335.358217 123.12 
L 336.114212 121.793684 
L 336.49221 123.12 
L 336.870207 123.12 
L 337.248205 121.793684 
L 338.0042 120.467368 
L 338.382198 120.467368 
L 338.760195 121.130526 
L 339.138193 121.130526 
L 339.51619 123.12 
L 339.894188 121.793684 
L 340.272185 100.572632 
L 340.650183 121.130526 
L 341.02818 122.456842 
L 341.784176 122.456842 
L 342.162173 119.141053 
L 342.540171 119.804211 
L 342.918168 112.509474 
L 343.296166 121.793684 
L 343.674163 118.477895 
L 344.052161 122.456842 
L 344.430159 123.12 
L 344.808156 121.130526 
L 345.186154 121.793684 
L 345.564151 118.477895 
L 345.942149 119.804211 
L 346.320146 121.793684 
L 346.698144 122.456842 
L 347.076141 121.793684 
L 347.454139 119.141053 
L 347.832137 120.467368 
L 348.210134 119.804211 
L 348.588132 121.130526 
L 348.966129 117.814737 
L 349.344127 119.141053 
L 349.722124 123.12 
L 350.100122 119.804211 
L 350.478119 120.467368 
L 350.856117 113.172632 
L 351.234115 122.456842 
L 351.612112 119.804211 
L 351.99011 119.804211 
L 352.368107 120.467368 
L 352.746105 113.835789 
L 353.124102 103.225263 
L 353.5021 120.467368 
L 353.880098 122.456842 
L 354.258095 118.477895 
L 354.636093 121.793684 
L 355.01409 121.130526 
L 355.392088 121.130526 
L 355.770085 123.12 
L 356.52608 121.793684 
L 356.904078 120.467368 
L 357.282076 122.456842 
L 357.660073 120.467368 
L 358.038071 122.456842 
L 358.416068 120.467368 
L 358.794066 123.12 
L 359.172063 120.467368 
L 359.550061 121.793684 
L 359.928059 121.793684 
L 360.306056 120.467368 
L 360.684054 123.12 
L 361.062051 120.467368 
L 361.440049 121.793684 
L 361.818046 117.814737 
L 362.196044 122.456842 
L 362.574041 117.151579 
L 362.952039 103.225263 
L 363.330037 122.456842 
L 363.708034 123.12 
L 364.086032 121.793684 
L 364.464029 118.477895 
L 364.842027 121.793684 
L 365.598022 123.12 
L 365.97602 117.814737 
L 366.354017 121.793684 
L 366.732015 121.130526 
L 367.48801 110.52 
L 367.866007 119.141053 
L 368.244005 121.793684 
L 368.622002 121.793684 
L 369 118.477895 
L 369.377998 95.930526 
L 369.755995 112.509474 
L 370.133993 118.477895 
L 370.51199 121.130526 
L 370.889988 121.130526 
L 371.267985 101.898947 
L 371.645983 120.467368 
L 372.02398 122.456842 
L 372.779976 122.456842 
L 373.157973 121.130526 
L 373.535971 120.467368 
L 373.913968 121.793684 
L 374.291966 119.804211 
L 374.669963 121.130526 
L 375.047961 123.12 
L 375.425959 121.793684 
L 375.803956 119.141053 
L 376.181954 121.793684 
L 376.559951 118.477895 
L 376.937949 118.477895 
L 377.315946 119.804211 
L 377.693944 121.793684 
L 378.071941 109.856842 
L 378.449939 120.467368 
L 378.827937 112.509474 
L 379.205934 118.477895 
L 379.583932 119.804211 
L 379.961929 113.172632 
L 380.339927 121.793684 
L 381.095922 115.825263 
L 381.47392 120.467368 
L 381.851917 117.814737 
L 382.229915 112.509474 
L 382.607912 111.846316 
L 382.98591 119.804211 
L 383.363907 107.867368 
L 383.741905 113.172632 
L 384.119902 121.130526 
L 384.4979 111.846316 
L 384.875898 122.456842 
L 385.253895 121.793684 
L 385.631893 115.825263 
L 386.00989 117.814737 
L 386.387888 104.551579 
L 386.765885 115.825263 
L 387.143883 115.162105 
L 387.521881 115.162105 
L 387.899878 116.488421 
L 388.277876 119.804211 
L 388.655873 120.467368 
L 389.033871 118.477895 
L 389.411868 119.804211 
L 389.789866 114.498947 
L 390.167863 120.467368 
L 390.545861 116.488421 
L 390.923859 111.183158 
L 391.301856 116.488421 
L 391.679854 117.151579 
L 392.057851 116.488421 
L 392.435849 122.456842 
L 392.813846 118.477895 
L 393.191844 121.793684 
L 393.569841 121.130526 
L 393.947839 115.162105 
L 394.325837 114.498947 
L 394.703834 104.551579 
L 395.081832 114.498947 
L 395.459829 112.509474 
L 395.837827 119.141053 
L 396.215824 120.467368 
L 396.593822 119.804211 
L 396.97182 119.804211 
L 397.349817 122.456842 
L 397.727815 119.804211 
L 398.105812 111.183158 
L 398.48381 119.804211 
L 399.239805 119.804211 
L 399.617802 122.456842 
L 399.9958 123.12 
L 400.373798 122.456842 
L 400.751795 119.141053 
L 401.129793 109.193684 
L 401.50779 120.467368 
L 401.885788 120.467368 
L 402.263785 123.12 
L 402.641783 123.12 
L 403.019781 101.898947 
L 403.775776 118.477895 
L 404.153773 114.498947 
L 404.909768 122.456842 
L 405.287766 121.793684 
L 405.665763 122.456842 
L 406.043761 117.151579 
L 406.421759 122.456842 
L 406.799756 121.130526 
L 407.177754 121.793684 
L 407.555751 123.12 
L 407.933749 103.888421 
L 408.311746 120.467368 
L 408.689744 113.172632 
L 409.067741 113.172632 
L 409.445739 115.825263 
L 409.823737 121.130526 
L 410.201734 121.793684 
L 410.579732 117.151579 
L 410.957729 119.141053 
L 411.335727 118.477895 
L 411.713724 117.151579 
L 412.091722 122.456842 
L 412.46972 120.467368 
L 412.847717 121.793684 
L 413.603712 123.12 
L 415.115702 120.467368 
L 415.871698 107.867368 
L 416.249695 119.141053 
L 416.627693 117.151579 
L 417.00569 122.456842 
L 417.383688 117.151579 
L 417.761685 123.12 
L 418.139683 121.793684 
L 418.895678 120.467368 
L 419.273676 121.130526 
L 419.651673 120.467368 
L 420.029671 119.141053 
L 420.407668 109.856842 
L 420.785666 119.141053 
L 421.163663 118.477895 
L 421.541661 108.530526 
L 421.919659 122.456842 
L 422.297656 115.825263 
L 422.675654 122.456842 
L 423.053651 119.141053 
L 423.431649 121.793684 
L 423.809646 123.12 
L 424.187644 121.130526 
L 424.565642 122.456842 
L 424.943639 120.467368 
L 425.321637 123.12 
L 426.077632 123.12 
L 426.455629 120.467368 
L 426.833627 123.12 
L 427.211624 119.141053 
L 427.589622 123.12 
L 427.96762 122.456842 
L 428.345617 120.467368 
L 428.723615 109.856842 
L 429.101612 123.12 
L 429.47961 123.12 
L 429.857607 113.835789 
L 430.235605 114.498947 
L 430.613602 112.509474 
L 430.9916 115.162105 
L 431.369598 122.456842 
L 431.747595 113.835789 
L 432.125593 120.467368 
L 432.50359 121.793684 
L 432.881588 122.456842 
L 433.259585 122.456842 
L 433.637583 123.12 
L 434.015581 122.456842 
L 434.393578 119.804211 
L 434.771576 121.793684 
L 435.527571 123.12 
L 435.905568 123.12 
L 436.283566 118.477895 
L 436.661563 119.141053 
L 437.039561 121.793684 
L 437.795556 121.793684 
L 438.173554 121.130526 
L 438.551551 121.130526 
L 438.929549 117.151579 
L 439.307546 122.456842 
L 439.685544 107.867368 
L 440.063542 119.141053 
L 440.441539 122.456842 
L 440.819537 119.804211 
L 441.197534 120.467368 
L 441.953529 114.498947 
L 442.331527 119.141053 
L 442.709524 106.541053 
L 443.087522 123.12 
L 443.46552 118.477895 
L 444.221515 105.877895 
L 444.599512 112.509474 
L 444.97751 88.635789 
L 445.355507 117.151579 
L 445.733505 123.12 
L 446.111503 97.92 
L 446.4895 114.498947 
L 446.867498 111.183158 
L 447.245495 112.509474 
L 447.623493 118.477895 
L 448.00149 115.162105 
L 448.379488 122.456842 
L 448.757485 109.193684 
L 449.135483 113.835789 
L 449.513481 113.835789 
L 449.891478 109.856842 
L 450.269476 110.52 
L 450.647473 121.793684 
L 451.025471 123.12 
L 451.403468 96.593684 
L 451.781466 36.909474 
L 452.159463 105.214737 
L 452.537461 109.193684 
L 452.915459 108.530526 
L 453.293456 120.467368 
L 453.671454 121.130526 
L 454.049451 97.256842 
L 454.427449 80.677895 
L 454.805446 112.509474 
L 455.183444 110.52 
L 455.561442 106.541053 
L 455.939439 120.467368 
L 456.317437 123.12 
L 456.695434 91.288421 
L 457.451429 95.267368 
L 458.207424 120.467368 
L 458.585422 121.793684 
L 458.96342 122.456842 
L 459.341417 118.477895 
L 459.719415 109.193684 
L 460.097412 114.498947 
L 460.47541 95.267368 
L 460.853407 97.256842 
L 461.231405 121.793684 
L 461.609403 120.467368 
L 461.9874 104.551579 
L 462.365398 116.488421 
L 462.743395 100.572632 
L 463.121393 117.151579 
L 463.49939 123.12 
L 463.877388 123.12 
L 464.255385 117.151579 
L 464.633383 107.867368 
L 465.011381 119.141053 
L 465.389378 119.141053 
L 465.767376 121.793684 
L 466.145373 123.12 
L 466.523371 123.12 
L 466.901368 121.793684 
L 467.279366 115.162105 
L 467.657364 121.130526 
L 468.035361 123.12 
L 468.413359 102.562105 
L 468.791356 118.477895 
L 469.169354 117.151579 
L 469.547351 99.909474 
L 469.925349 115.825263 
L 470.303346 122.456842 
L 470.681344 121.130526 
L 471.059342 123.12 
L 471.437339 121.793684 
L 471.815337 103.888421 
L 472.193334 101.898947 
L 472.571332 116.488421 
L 472.949329 111.846316 
L 473.327327 117.814737 
L 473.705324 109.193684 
L 474.083322 121.130526 
L 474.46132 115.825263 
L 474.839317 121.793684 
L 475.217315 121.130526 
L 475.595312 121.793684 
L 475.97331 123.12 
L 476.351307 107.867368 
L 476.729305 113.172632 
L 477.107303 121.130526 
L 477.4853 122.456842 
L 478.619293 122.456842 
L 478.99729 119.804211 
L 479.375288 98.583158 
L 479.753285 119.141053 
L 480.131283 113.172632 
L 480.509281 119.141053 
L 480.887278 120.467368 
L 481.265276 121.130526 
L 481.643273 119.804211 
L 482.021271 121.793684 
L 482.399268 122.456842 
L 482.777266 120.467368 
L 483.155264 122.456842 
L 483.533261 111.846316 
L 483.911259 119.804211 
L 484.289256 118.477895 
L 484.667254 121.130526 
L 485.045251 99.909474 
L 485.423249 120.467368 
L 485.801246 121.130526 
L 486.179244 119.804211 
L 486.557242 121.130526 
L 486.935239 119.804211 
L 487.313237 101.235789 
L 487.691234 117.151579 
L 488.069232 119.141053 
L 488.447229 120.467368 
L 488.825227 117.151579 
L 489.203224 120.467368 
L 489.581222 120.467368 
L 489.95922 121.130526 
L 490.337217 119.804211 
L 490.715215 119.804211 
L 491.093212 121.130526 
L 491.47121 119.804211 
L 491.849207 119.804211 
L 492.227205 120.467368 
L 492.605203 110.52 
L 492.9832 115.162105 
L 493.361198 122.456842 
L 493.739195 121.793684 
L 494.117193 120.467368 
L 494.49519 121.793684 
L 494.873188 120.467368 
L 495.251185 121.793684 
L 495.629183 117.151579 
L 496.007181 116.488421 
L 496.385178 111.846316 
L 496.763176 119.804211 
L 497.141173 121.130526 
L 497.897168 116.488421 
L 498.275166 119.141053 
L 498.653164 119.804211 
L 499.031161 121.793684 
L 499.409159 121.793684 
L 499.787156 117.151579 
L 500.165154 96.593684 
L 500.543151 118.477895 
L 500.921149 118.477895 
L 501.299146 116.488421 
L 501.677144 121.130526 
L 502.055142 121.130526 
L 502.433139 118.477895 
L 502.811137 121.130526 
L 503.189134 87.309474 
L 503.567132 121.130526 
L 503.945129 122.456842 
L 504.323127 121.793684 
L 504.701125 121.793684 
L 505.079122 105.877895 
L 505.45712 115.162105 
L 505.835117 120.467368 
L 506.213115 121.793684 
L 506.591112 122.456842 
L 506.96911 113.835789 
L 507.347107 119.804211 
L 507.725105 122.456842 
L 508.103103 109.193684 
L 508.4811 116.488421 
L 508.859098 119.804211 
L 509.237095 101.898947 
L 509.615093 122.456842 
L 509.99309 123.12 
L 510.371088 121.130526 
L 511.127083 122.456842 
L 511.505081 119.804211 
L 511.883078 119.141053 
L 512.261076 121.130526 
L 512.639073 122.456842 
L 513.017071 121.793684 
L 513.395068 122.456842 
L 513.773066 122.456842 
L 514.151064 123.12 
L 514.529061 123.12 
L 514.907059 120.467368 
L 515.285056 74.046316 
L 515.663054 112.509474 
L 516.041051 113.835789 
L 516.419049 117.151579 
L 516.797046 109.193684 
L 517.175044 113.835789 
L 517.553042 113.835789 
L 517.931039 107.204211 
L 518.309037 118.477895 
L 518.687034 107.867368 
L 519.065032 121.130526 
L 519.443029 117.814737 
L 519.821027 116.488421 
L 520.199025 121.130526 
L 520.577022 119.804211 
L 520.95502 117.814737 
L 521.333017 120.467368 
L 521.711015 121.130526 
L 522.089012 107.204211 
L 522.46701 118.477895 
L 522.845007 107.867368 
L 523.223005 117.814737 
L 523.601003 109.856842 
L 523.979 118.477895 
L 524.356998 119.141053 
L 524.734995 110.52 
L 525.112993 111.183158 
L 525.49099 118.477895 
L 525.868988 121.130526 
L 526.246986 117.814737 
L 526.624983 118.477895 
L 527.002981 123.12 
L 527.380978 118.477895 
L 527.758976 100.572632 
L 528.136973 117.151579 
L 528.514971 119.141053 
L 528.892968 115.825263 
L 529.270966 118.477895 
L 529.648964 119.804211 
L 530.026961 110.52 
L 530.404959 119.141053 
L 530.782956 109.856842 
L 531.160954 117.151579 
L 531.538951 118.477895 
L 531.916949 109.856842 
L 532.294946 118.477895 
L 532.672944 99.246316 
L 533.050942 105.877895 
L 533.428939 117.151579 
L 534.184934 118.477895 
L 534.562932 99.246316 
L 534.940929 93.941053 
L 535.318927 112.509474 
L 535.696925 121.130526 
L 536.45292 119.804211 
L 536.830917 115.825263 
L 537.208915 113.172632 
L 537.586912 112.509474 
L 537.96491 47.52 
L 538.342907 93.941053 
L 538.720905 114.498947 
L 539.4769 120.467368 
L 539.854898 111.183158 
L 540.232895 108.530526 
L 540.610893 103.888421 
L 540.98889 118.477895 
L 541.366888 119.804211 
L 541.744886 117.814737 
L 542.122883 114.498947 
L 542.500881 113.172632 
L 542.878878 115.825263 
L 543.634873 93.941053 
L 544.012871 121.130526 
L 544.390868 122.456842 
L 544.768866 114.498947 
L 545.146864 120.467368 
L 545.524861 109.856842 
L 545.902859 120.467368 
L 546.280856 116.488421 
L 546.658854 119.804211 
L 547.036851 121.793684 
L 547.414849 115.162105 
L 547.792846 121.793684 
L 548.170844 120.467368 
L 548.548842 117.151579 
L 549.304837 123.12 
L 549.682834 122.456842 
L 550.060832 113.835789 
L 550.438829 120.467368 
L 550.816827 117.814737 
L 551.194825 119.141053 
L 551.572822 117.151579 
L 551.95082 118.477895 
L 552.328817 106.541053 
L 552.706815 120.467368 
L 553.084812 116.488421 
L 553.46281 120.467368 
L 553.840807 121.130526 
L 554.218805 119.804211 
L 554.596803 107.867368 
L 554.9748 123.12 
L 555.352798 111.846316 
L 555.730795 123.12 
L 556.108793 112.509474 
L 556.48679 62.772632 
L 556.864788 107.867368 
L 557.242786 121.130526 
L 557.620783 112.509474 
L 557.998781 116.488421 
L 558.376778 117.814737 
L 558.754776 121.130526 
L 559.132773 119.804211 
L 559.510771 80.677895 
L 559.888768 118.477895 
L 560.266766 115.162105 
L 560.644764 119.141053 
L 561.022761 114.498947 
L 561.400759 122.456842 
L 561.778756 118.477895 
L 562.156754 115.825263 
L 562.534751 118.477895 
L 563.290747 114.498947 
L 563.668744 121.793684 
L 564.046742 123.12 
L 564.424739 122.456842 
L 564.802737 121.130526 
L 565.180734 96.593684 
L 565.558732 115.825263 
L 565.936729 118.477895 
L 566.314727 119.804211 
L 566.692725 92.614737 
L 567.070722 115.825263 
L 567.44872 98.583158 
L 567.826717 120.467368 
L 568.204715 115.162105 
L 568.582712 113.172632 
L 568.96071 119.804211 
L 569.338707 121.130526 
L 569.716705 91.288421 
L 570.094703 122.456842 
L 570.4727 101.898947 
L 570.850698 93.941053 
L 571.228695 122.456842 
L 571.606693 115.162105 
L 571.98469 117.814737 
L 572.740686 100.572632 
L 573.118683 119.141053 
L 573.496681 105.877895 
L 573.874678 115.162105 
L 574.252676 117.151579 
L 574.630673 99.246316 
L 575.008671 119.804211 
L 575.386668 121.130526 
L 576.520661 101.235789 
L 577.276656 121.130526 
L 577.654654 111.183158 
L 578.032651 122.456842 
L 578.410649 117.814737 
L 578.788647 107.204211 
L 579.166644 89.962105 
L 579.544642 95.930526 
L 579.922639 97.256842 
L 580.300637 121.130526 
L 580.678634 121.130526 
L 581.056632 91.951579 
L 581.434629 107.867368 
L 581.812627 109.856842 
L 582.190625 122.456842 
L 582.568622 119.141053 
L 582.94662 104.551579 
L 583.324617 103.888421 
L 583.702615 103.888421 
L 584.080612 114.498947 
L 584.45861 108.530526 
L 584.836608 116.488421 
L 585.214605 107.867368 
L 585.592603 119.804211 
L 585.9706 121.130526 
L 586.348598 121.793684 
L 586.726595 119.804211 
L 587.104593 115.162105 
L 587.48259 115.162105 
L 588.238586 120.467368 
L 588.616583 121.793684 
L 588.994581 115.825263 
L 589.372578 105.877895 
L 589.750576 119.804211 
L 590.128573 117.151579 
L 590.506571 98.583158 
L 590.884568 123.12 
L 591.262566 121.130526 
L 591.640564 107.867368 
L 592.018561 105.214737 
L 592.774556 120.467368 
L 593.152554 109.193684 
L 593.530551 122.456842 
L 593.908549 119.141053 
L 594.286547 105.214737 
L 594.664544 114.498947 
L 595.042542 64.762105 
L 595.420539 107.204211 
L 595.798537 97.256842 
L 596.176534 114.498947 
L 596.554532 118.477895 
L 596.932529 115.162105 
L 597.310527 101.898947 
L 597.688525 114.498947 
L 598.066522 81.341053 
L 598.44452 104.551579 
L 598.822517 114.498947 
L 599.200515 101.898947 
L 599.578512 97.256842 
L 599.95651 90.625263 
L 600.334508 119.141053 
L 600.712505 114.498947 
L 601.090503 107.204211 
L 601.4685 119.141053 
L 601.846498 113.172632 
L 602.224495 119.804211 
L 602.602493 75.372632 
L 602.98049 95.267368 
L 603.358488 95.267368 
L 603.736486 107.204211 
L 604.114483 123.12 
L 604.492481 122.456842 
L 604.870478 99.246316 
L 605.248476 117.814737 
L 605.626473 108.530526 
L 606.382469 116.488421 
L 607.138464 117.814737 
L 607.516461 92.614737 
L 607.894459 108.530526 
L 608.272456 96.593684 
L 608.650454 108.530526 
L 609.028451 94.604211 
L 609.406449 115.162105 
L 609.784447 113.172632 
L 610.162444 89.962105 
L 610.540442 115.825263 
L 610.918439 103.225263 
L 611.296437 96.593684 
L 611.674434 91.951579 
L 612.052432 118.477895 
L 612.430429 119.141053 
L 612.808427 116.488421 
L 613.186425 119.141053 
L 613.564422 102.562105 
L 613.94242 22.32 
L 614.320417 89.298947 
L 614.698415 121.130526 
L 615.076412 119.141053 
L 615.45441 110.52 
L 615.832408 95.930526 
L 616.210405 115.162105 
L 616.588403 113.835789 
L 616.9664 95.267368 
L 617.344398 121.130526 
L 617.722395 97.92 
L 618.100393 117.151579 
L 618.47839 122.456842 
L 618.856388 123.12 
L 619.612383 102.562105 
L 619.990381 108.530526 
L 620.368378 96.593684 
L 620.746376 103.225263 
L 621.124373 78.025263 
L 621.502371 85.983158 
L 621.880369 114.498947 
L 622.258366 116.488421 
L 622.636364 121.793684 
L 622.636364 121.793684 
" clip-path="url(#p22a64f2d89)" style="fill: none; stroke: #1f77b4; stroke-width: 1.5; stroke-linecap: square"/>
   </g>
   <g id="patch_3">
    <path d="M 90 128.16 
L 90 17.28 
" style="fill: none; stroke: #000000; stroke-width: 0.8; stroke-linejoin: miter; stroke-linecap: square"/>
   </g>
   <g id="patch_4">
    <path d="M 648 128.16 
L 648 17.28 
" style="fill: none; stroke: #000000; stroke-width: 0.8; stroke-linejoin: miter; stroke-linecap: square"/>
   </g>
   <g id="patch_5">
    <path d="M 90 128.16 
L 648 128.16 
" style="fill: none; stroke: #000000; stroke-width: 0.8; stroke-linejoin: miter; stroke-linecap: square"/>
   </g>
   <g id="patch_6">
    <path d="M 90 17.28 
L 648 17.28 
" style="fill: none; stroke: #000000; stroke-width: 0.8; stroke-linejoin: miter; stroke-linecap: square"/>
   </g>
   <g id="legend_1">
    <g id="patch_7">
     <path d="M 97 39.958125 
L 264.190625 39.958125 
Q 266.190625 39.958125 266.190625 37.958125 
L 266.190625 24.28 
Q 266.190625 22.28 264.190625 22.28 
L 97 22.28 
Q 95 22.28 95 24.28 
L 95 37.958125 
Q 95 39.958125 97 39.958125 
z
" style="fill: #ffffff; opacity: 0.8; stroke: #cccccc; stroke-linejoin: miter"/>
    </g>
    <g id="line2d_14">
     <path d="M 99 30.378437 
L 109 30.378437 
L 119 30.378437 
" style="fill: none; stroke: #1f77b4; stroke-width: 1.5; stroke-linecap: square"/>
    </g>
    <g id="text_13">
     <!-- Number of PyPI Downloads -->
     <g transform="translate(127 33.878437) scale(0.1 -0.1)">
      <defs>
       <path id="DejaVuSans-4e" d="M 628 4666 
L 1478 4666 
L 3547 763 
L 3547 4666 
L 4159 4666 
L 4159 0 
L 3309 0 
L 1241 3903 
L 1241 0 
L 628 0 
L 628 4666 
z
" transform="scale(0.015625)"/>
       <path id="DejaVuSans-75" d="M 544 1381 
L 544 3500 
L 1119 3500 
L 1119 1403 
Q 1119 906 1312 657 
Q 1506 409 1894 409 
Q 2359 409 2629 706 
Q 2900 1003 2900 1516 
L 2900 3500 
L 3475 3500 
L 3475 0 
L 2900 0 
L 2900 538 
Q 2691 219 2414 64 
Q 2138 -91 1772 -91 
Q 1169 -91 856 284 
Q 544 659 544 1381 
z
M 1991 3584 
L 1991 3584 
z
" transform="scale(0.015625)"/>
       <path id="DejaVuSans-6d" d="M 3328 2828 
Q 3544 3216 3844 3400 
Q 4144 3584 4550 3584 
Q 5097 3584 5394 3201 
Q 5691 2819 5691 2113 
L 5691 0 
L 5113 0 
L 5113 2094 
Q 5113 2597 4934 2840 
Q 4756 3084 4391 3084 
Q 3944 3084 3684 2787 
Q 3425 2491 3425 1978 
L 3425 0 
L 2847 0 
L 2847 2094 
Q 2847 2600 2669 2842 
Q 2491 3084 2119 3084 
Q 1678 3084 1418 2786 
Q 1159 2488 1159 1978 
L 1159 0 
L 581 0 
L 581 3500 
L 1159 3500 
L 1159 2956 
Q 1356 3278 1631 3431 
Q 1906 3584 2284 3584 
Q 2666 3584 2933 3390 
Q 3200 3197 3328 2828 
z
" transform="scale(0.015625)"/>
       <path id="DejaVuSans-62" d="M 3116 1747 
Q 3116 2381 2855 2742 
Q 2594 3103 2138 3103 
Q 1681 3103 1420 2742 
Q 1159 2381 1159 1747 
Q 1159 1113 1420 752 
Q 1681 391 2138 391 
Q 2594 391 2855 752 
Q 3116 1113 3116 1747 
z
M 1159 2969 
Q 1341 3281 1617 3432 
Q 1894 3584 2278 3584 
Q 2916 3584 3314 3078 
Q 3713 2572 3713 1747 
Q 3713 922 3314 415 
Q 2916 -91 2278 -91 
Q 1894 -91 1617 61 
Q 1341 213 1159 525 
L 1159 0 
L 581 0 
L 581 4863 
L 1159 4863 
L 1159 2969 
z
" transform="scale(0.015625)"/>
       <path id="DejaVuSans-72" d="M 2631 2963 
Q 2534 3019 2420 3045 
Q 2306 3072 2169 3072 
Q 1681 3072 1420 2755 
Q 1159 2438 1159 1844 
L 1159 0 
L 581 0 
L 581 3500 
L 1159 3500 
L 1159 2956 
Q 1341 3275 1631 3429 
Q 1922 3584 2338 3584 
Q 2397 3584 2469 3576 
Q 2541 3569 2628 3553 
L 2631 2963 
z
" transform="scale(0.015625)"/>
       <path id="DejaVuSans-20" transform="scale(0.015625)"/>
       <path id="DejaVuSans-6f" d="M 1959 3097 
Q 1497 3097 1228 2736 
Q 959 2375 959 1747 
Q 959 1119 1226 758 
Q 1494 397 1959 397 
Q 2419 397 2687 759 
Q 2956 1122 2956 1747 
Q 2956 2369 2687 2733 
Q 2419 3097 1959 3097 
z
M 1959 3584 
Q 2709 3584 3137 3096 
Q 3566 2609 3566 1747 
Q 3566 888 3137 398 
Q 2709 -91 1959 -91 
Q 1206 -91 779 398 
Q 353 888 353 1747 
Q 353 2609 779 3096 
Q 1206 3584 1959 3584 
z
" transform="scale(0.015625)"/>
       <path id="DejaVuSans-66" d="M 2375 4863 
L 2375 4384 
L 1825 4384 
Q 1516 4384 1395 4259 
Q 1275 4134 1275 3809 
L 1275 3500 
L 2222 3500 
L 2222 3053 
L 1275 3053 
L 1275 0 
L 697 0 
L 697 3053 
L 147 3053 
L 147 3500 
L 697 3500 
L 697 3744 
Q 697 4328 969 4595 
Q 1241 4863 1831 4863 
L 2375 4863 
z
" transform="scale(0.015625)"/>
       <path id="DejaVuSans-50" d="M 1259 4147 
L 1259 2394 
L 2053 2394 
Q 2494 2394 2734 2622 
Q 2975 2850 2975 3272 
Q 2975 3691 2734 3919 
Q 2494 4147 2053 4147 
L 1259 4147 
z
M 628 4666 
L 2053 4666 
Q 2838 4666 3239 4311 
Q 3641 3956 3641 3272 
Q 3641 2581 3239 2228 
Q 2838 1875 2053 1875 
L 1259 1875 
L 1259 0 
L 628 0 
L 628 4666 
z
" transform="scale(0.015625)"/>
       <path id="DejaVuSans-79" d="M 2059 -325 
Q 1816 -950 1584 -1140 
Q 1353 -1331 966 -1331 
L 506 -1331 
L 506 -850 
L 844 -850 
Q 1081 -850 1212 -737 
Q 1344 -625 1503 -206 
L 1606 56 
L 191 3500 
L 800 3500 
L 1894 763 
L 2988 3500 
L 3597 3500 
L 2059 -325 
z
" transform="scale(0.015625)"/>
       <path id="DejaVuSans-49" d="M 628 4666 
L 1259 4666 
L 1259 0 
L 628 0 
L 628 4666 
z
" transform="scale(0.015625)"/>
       <path id="DejaVuSans-44" d="M 1259 4147 
L 1259 519 
L 2022 519 
Q 2988 519 3436 956 
Q 3884 1394 3884 2338 
Q 3884 3275 3436 3711 
Q 2988 4147 2022 4147 
L 1259 4147 
z
M 628 4666 
L 1925 4666 
Q 3281 4666 3915 4102 
Q 4550 3538 4550 2338 
Q 4550 1131 3912 565 
Q 3275 0 1925 0 
L 628 0 
L 628 4666 
z
" transform="scale(0.015625)"/>
       <path id="DejaVuSans-77" d="M 269 3500 
L 844 3500 
L 1563 769 
L 2278 3500 
L 2956 3500 
L 3675 769 
L 4391 3500 
L 4966 3500 
L 4050 0 
L 3372 0 
L 2619 2869 
L 1863 0 
L 1184 0 
L 269 3500 
z
" transform="scale(0.015625)"/>
       <path id="DejaVuSans-6e" d="M 3513 2113 
L 3513 0 
L 2938 0 
L 2938 2094 
Q 2938 2591 2744 2837 
Q 2550 3084 2163 3084 
Q 1697 3084 1428 2787 
Q 1159 2491 1159 1978 
L 1159 0 
L 581 0 
L 581 3500 
L 1159 3500 
L 1159 2956 
Q 1366 3272 1645 3428 
Q 1925 3584 2291 3584 
Q 2894 3584 3203 3211 
Q 3513 2838 3513 2113 
z
" transform="scale(0.015625)"/>
       <path id="DejaVuSans-6c" d="M 603 4863 
L 1178 4863 
L 1178 0 
L 603 0 
L 603 4863 
z
" transform="scale(0.015625)"/>
       <path id="DejaVuSans-73" d="M 2834 3397 
L 2834 2853 
Q 2591 2978 2328 3040 
Q 2066 3103 1784 3103 
Q 1356 3103 1142 2972 
Q 928 2841 928 2578 
Q 928 2378 1081 2264 
Q 1234 2150 1697 2047 
L 1894 2003 
Q 2506 1872 2764 1633 
Q 3022 1394 3022 966 
Q 3022 478 2636 193 
Q 2250 -91 1575 -91 
Q 1294 -91 989 -36 
Q 684 19 347 128 
L 347 722 
Q 666 556 975 473 
Q 1284 391 1588 391 
Q 1994 391 2212 530 
Q 2431 669 2431 922 
Q 2431 1156 2273 1281 
Q 2116 1406 1581 1522 
L 1381 1569 
Q 847 1681 609 1914 
Q 372 2147 372 2553 
Q 372 3047 722 3315 
Q 1072 3584 1716 3584 
Q 2034 3584 2315 3537 
Q 2597 3491 2834 3397 
z
" transform="scale(0.015625)"/>
      </defs>
      <use xlink:href="#DejaVuSans-4e"/>
      <use xlink:href="#DejaVuSans-75" x="74.804688"/>
      <use xlink:href="#DejaVuSans-6d" x="138.183594"/>
      <use xlink:href="#DejaVuSans-62" x="235.595703"/>
      <use xlink:href="#DejaVuSans-65" x="299.072266"/>
      <use xlink:href="#DejaVuSans-72" x="360.595703"/>
      <use xlink:href="#DejaVuSans-20" x="401.708984"/>
      <use xlink:href="#DejaVuSans-6f" x="433.496094"/>
      <use xlink:href="#DejaVuSans-66" x="494.677734"/>
      <use xlink:href="#DejaVuSans-20" x="529.882812"/>
      <use xlink:href="#DejaVuSans-50" x="561.669922"/>
      <use xlink:href="#DejaVuSans-79" x="621.972656"/>
      <use xlink:href="#DejaVuSans-50" x="681.152344"/>
      <use xlink:href="#DejaVuSans-49" x="741.455078"/>
      <use xlink:href="#DejaVuSans-20" x="770.947266"/>
      <use xlink:href="#DejaVuSans-44" x="802.734375"/>
      <use xlink:href="#DejaVuSans-6f" x="879.736328"/>
      <use xlink:href="#DejaVuSans-77" x="940.917969"/>
      <use xlink:href="#DejaVuSans-6e" x="1022.705078"/>
      <use xlink:href="#DejaVuSans-6c" x="1086.083984"/>
      <use xlink:href="#DejaVuSans-6f" x="1113.867188"/>
      <use xlink:href="#DejaVuSans-61" x="1175.048828"/>
      <use xlink:href="#DejaVuSans-64" x="1236.328125"/>
      <use xlink:href="#DejaVuSans-73" x="1299.804688"/>
     </g>
    </g>
   </g>
  </g>
 </g>
 <defs>
  <clipPath id="p22a64f2d89">
   <rect x="90" y="17.28" width="558" height="110.88"/>
  </clipPath>
 </defs>
</svg>
