<?xml version="1.0" encoding="utf-8" standalone="no"?>
<!DOCTYPE svg PUBLIC "-//W3C//DTD SVG 1.1//EN"
  "http://www.w3.org/Graphics/SVG/1.1/DTD/svg11.dtd">
<svg xmlns:xlink="http://www.w3.org/1999/xlink" width="720pt" height="144pt" viewBox="0 0 720 144" xmlns="http://www.w3.org/2000/svg" version="1.1">
 <metadata>
  <rdf:RDF xmlns:dc="http://purl.org/dc/elements/1.1/" xmlns:cc="http://creativecommons.org/ns#" xmlns:rdf="http://www.w3.org/1999/02/22-rdf-syntax-ns#">
   <cc:Work>
    <dc:type rdf:resource="http://purl.org/dc/dcmitype/StillImage"/>
    <dc:date>2023-06-01T20:56:57.031195</dc:date>
    <dc:format>image/svg+xml</dc:format>
    <dc:creator>
     <cc:Agent>
      <dc:title>Matplotlib v3.7.1, https://matplotlib.org/</dc:title>
     </cc:Agent>
    </dc:creator>
   </cc:Work>
  </rdf:RDF>
 </metadata>
 <defs>
  <style type="text/css">*{stroke-linejoin: round; stroke-linecap: butt}</style>
 </defs>
 <g id="figure_1">
  <g id="patch_1">
   <path d="M 0 144 
L 720 144 
L 720 0 
L 0 0 
z
" style="fill: #ffffff"/>
  </g>
  <g id="axes_1">
   <g id="patch_2">
    <path d="M 90 128.16 
L 648 128.16 
L 648 17.28 
L 90 17.28 
z
" style="fill: #ffffff"/>
   </g>
   <g id="matplotlib.axis_1">
    <g id="xtick_1">
     <g id="line2d_1">
      <defs>
       <path id="m5243313a81" d="M 0 0 
L 0 3.5 
" style="stroke: #000000; stroke-width: 0.8"/>
      </defs>
      <g>
       <use xlink:href="#m5243313a81" x="115.363636" y="128.16" style="stroke: #000000; stroke-width: 0.8"/>
      </g>
     </g>
     <g id="text_1">
      <!-- 2020-06-18 -->
      <g transform="translate(86.305824 142.758438) scale(0.1 -0.1)">
       <defs>
        <path id="DejaVuSans-32" d="M 1228 531 
L 3431 531 
L 3431 0 
L 469 0 
L 469 531 
Q 828 903 1448 1529 
Q 2069 2156 2228 2338 
Q 2531 2678 2651 2914 
Q 2772 3150 2772 3378 
Q 2772 3750 2511 3984 
Q 2250 4219 1831 4219 
Q 1534 4219 1204 4116 
Q 875 4013 500 3803 
L 500 4441 
Q 881 4594 1212 4672 
Q 1544 4750 1819 4750 
Q 2544 4750 2975 4387 
Q 3406 4025 3406 3419 
Q 3406 3131 3298 2873 
Q 3191 2616 2906 2266 
Q 2828 2175 2409 1742 
Q 1991 1309 1228 531 
z
" transform="scale(0.015625)"/>
        <path id="DejaVuSans-30" d="M 2034 4250 
Q 1547 4250 1301 3770 
Q 1056 3291 1056 2328 
Q 1056 1369 1301 889 
Q 1547 409 2034 409 
Q 2525 409 2770 889 
Q 3016 1369 3016 2328 
Q 3016 3291 2770 3770 
Q 2525 4250 2034 4250 
z
M 2034 4750 
Q 2819 4750 3233 4129 
Q 3647 3509 3647 2328 
Q 3647 1150 3233 529 
Q 2819 -91 2034 -91 
Q 1250 -91 836 529 
Q 422 1150 422 2328 
Q 422 3509 836 4129 
Q 1250 4750 2034 4750 
z
" transform="scale(0.015625)"/>
        <path id="DejaVuSans-2d" d="M 313 2009 
L 1997 2009 
L 1997 1497 
L 313 1497 
L 313 2009 
z
" transform="scale(0.015625)"/>
        <path id="DejaVuSans-36" d="M 2113 2584 
Q 1688 2584 1439 2293 
Q 1191 2003 1191 1497 
Q 1191 994 1439 701 
Q 1688 409 2113 409 
Q 2538 409 2786 701 
Q 3034 994 3034 1497 
Q 3034 2003 2786 2293 
Q 2538 2584 2113 2584 
z
M 3366 4563 
L 3366 3988 
Q 3128 4100 2886 4159 
Q 2644 4219 2406 4219 
Q 1781 4219 1451 3797 
Q 1122 3375 1075 2522 
Q 1259 2794 1537 2939 
Q 1816 3084 2150 3084 
Q 2853 3084 3261 2657 
Q 3669 2231 3669 1497 
Q 3669 778 3244 343 
Q 2819 -91 2113 -91 
Q 1303 -91 875 529 
Q 447 1150 447 2328 
Q 447 3434 972 4092 
Q 1497 4750 2381 4750 
Q 2619 4750 2861 4703 
Q 3103 4656 3366 4563 
z
" transform="scale(0.015625)"/>
        <path id="DejaVuSans-31" d="M 794 531 
L 1825 531 
L 1825 4091 
L 703 3866 
L 703 4441 
L 1819 4666 
L 2450 4666 
L 2450 531 
L 3481 531 
L 3481 0 
L 794 0 
L 794 531 
z
" transform="scale(0.015625)"/>
        <path id="DejaVuSans-38" d="M 2034 2216 
Q 1584 2216 1326 1975 
Q 1069 1734 1069 1313 
Q 1069 891 1326 650 
Q 1584 409 2034 409 
Q 2484 409 2743 651 
Q 3003 894 3003 1313 
Q 3003 1734 2745 1975 
Q 2488 2216 2034 2216 
z
M 1403 2484 
Q 997 2584 770 2862 
Q 544 3141 544 3541 
Q 544 4100 942 4425 
Q 1341 4750 2034 4750 
Q 2731 4750 3128 4425 
Q 3525 4100 3525 3541 
Q 3525 3141 3298 2862 
Q 3072 2584 2669 2484 
Q 3125 2378 3379 2068 
Q 3634 1759 3634 1313 
Q 3634 634 3220 271 
Q 2806 -91 2034 -91 
Q 1263 -91 848 271 
Q 434 634 434 1313 
Q 434 1759 690 2068 
Q 947 2378 1403 2484 
z
M 1172 3481 
Q 1172 3119 1398 2916 
Q 1625 2713 2034 2713 
Q 2441 2713 2670 2916 
Q 2900 3119 2900 3481 
Q 2900 3844 2670 4047 
Q 2441 4250 2034 4250 
Q 1625 4250 1398 4047 
Q 1172 3844 1172 3481 
z
" transform="scale(0.015625)"/>
       </defs>
       <use xlink:href="#DejaVuSans-32"/>
       <use xlink:href="#DejaVuSans-30" x="63.623047"/>
       <use xlink:href="#DejaVuSans-32" x="127.246094"/>
       <use xlink:href="#DejaVuSans-30" x="190.869141"/>
       <use xlink:href="#DejaVuSans-2d" x="254.492188"/>
       <use xlink:href="#DejaVuSans-30" x="290.576172"/>
       <use xlink:href="#DejaVuSans-36" x="354.199219"/>
       <use xlink:href="#DejaVuSans-2d" x="417.822266"/>
       <use xlink:href="#DejaVuSans-31" x="453.90625"/>
       <use xlink:href="#DejaVuSans-38" x="517.529297"/>
      </g>
     </g>
    </g>
    <g id="xtick_2">
     <g id="line2d_2">
      <g>
       <use xlink:href="#m5243313a81" x="221.155655" y="128.16" style="stroke: #000000; stroke-width: 0.8"/>
      </g>
     </g>
     <g id="text_2">
      <!-- 2021-03-13 -->
      <g transform="translate(192.097842 142.758438) scale(0.1 -0.1)">
       <defs>
        <path id="DejaVuSans-33" d="M 2597 2516 
Q 3050 2419 3304 2112 
Q 3559 1806 3559 1356 
Q 3559 666 3084 287 
Q 2609 -91 1734 -91 
Q 1441 -91 1130 -33 
Q 819 25 488 141 
L 488 750 
Q 750 597 1062 519 
Q 1375 441 1716 441 
Q 2309 441 2620 675 
Q 2931 909 2931 1356 
Q 2931 1769 2642 2001 
Q 2353 2234 1838 2234 
L 1294 2234 
L 1294 2753 
L 1863 2753 
Q 2328 2753 2575 2939 
Q 2822 3125 2822 3475 
Q 2822 3834 2567 4026 
Q 2313 4219 1838 4219 
Q 1578 4219 1281 4162 
Q 984 4106 628 3988 
L 628 4550 
Q 988 4650 1302 4700 
Q 1616 4750 1894 4750 
Q 2613 4750 3031 4423 
Q 3450 4097 3450 3541 
Q 3450 3153 3228 2886 
Q 3006 2619 2597 2516 
z
" transform="scale(0.015625)"/>
       </defs>
       <use xlink:href="#DejaVuSans-32"/>
       <use xlink:href="#DejaVuSans-30" x="63.623047"/>
       <use xlink:href="#DejaVuSans-32" x="127.246094"/>
       <use xlink:href="#DejaVuSans-31" x="190.869141"/>
       <use xlink:href="#DejaVuSans-2d" x="254.492188"/>
       <use xlink:href="#DejaVuSans-30" x="290.576172"/>
       <use xlink:href="#DejaVuSans-33" x="354.199219"/>
       <use xlink:href="#DejaVuSans-2d" x="417.822266"/>
       <use xlink:href="#DejaVuSans-31" x="453.90625"/>
       <use xlink:href="#DejaVuSans-33" x="517.529297"/>
      </g>
     </g>
    </g>
    <g id="xtick_3">
     <g id="line2d_3">
      <g>
       <use xlink:href="#m5243313a81" x="326.947673" y="128.16" style="stroke: #000000; stroke-width: 0.8"/>
      </g>
     </g>
     <g id="text_3">
      <!-- 2021-10-16 -->
      <g transform="translate(297.88986 142.758438) scale(0.1 -0.1)">
       <use xlink:href="#DejaVuSans-32"/>
       <use xlink:href="#DejaVuSans-30" x="63.623047"/>
       <use xlink:href="#DejaVuSans-32" x="127.246094"/>
       <use xlink:href="#DejaVuSans-31" x="190.869141"/>
       <use xlink:href="#DejaVuSans-2d" x="254.492188"/>
       <use xlink:href="#DejaVuSans-31" x="290.576172"/>
       <use xlink:href="#DejaVuSans-30" x="354.199219"/>
       <use xlink:href="#DejaVuSans-2d" x="417.822266"/>
       <use xlink:href="#DejaVuSans-31" x="453.90625"/>
       <use xlink:href="#DejaVuSans-36" x="517.529297"/>
      </g>
     </g>
    </g>
    <g id="xtick_4">
     <g id="line2d_4">
      <g>
       <use xlink:href="#m5243313a81" x="432.739691" y="128.16" style="stroke: #000000; stroke-width: 0.8"/>
      </g>
     </g>
     <g id="text_4">
      <!-- 2022-05-12 -->
      <g transform="translate(403.681878 142.758438) scale(0.1 -0.1)">
       <defs>
        <path id="DejaVuSans-35" d="M 691 4666 
L 3169 4666 
L 3169 4134 
L 1269 4134 
L 1269 2991 
Q 1406 3038 1543 3061 
Q 1681 3084 1819 3084 
Q 2600 3084 3056 2656 
Q 3513 2228 3513 1497 
Q 3513 744 3044 326 
Q 2575 -91 1722 -91 
Q 1428 -91 1123 -41 
Q 819 9 494 109 
L 494 744 
Q 775 591 1075 516 
Q 1375 441 1709 441 
Q 2250 441 2565 725 
Q 2881 1009 2881 1497 
Q 2881 1984 2565 2268 
Q 2250 2553 1709 2553 
Q 1456 2553 1204 2497 
Q 953 2441 691 2322 
L 691 4666 
z
" transform="scale(0.015625)"/>
       </defs>
       <use xlink:href="#DejaVuSans-32"/>
       <use xlink:href="#DejaVuSans-30" x="63.623047"/>
       <use xlink:href="#DejaVuSans-32" x="127.246094"/>
       <use xlink:href="#DejaVuSans-32" x="190.869141"/>
       <use xlink:href="#DejaVuSans-2d" x="254.492188"/>
       <use xlink:href="#DejaVuSans-30" x="290.576172"/>
       <use xlink:href="#DejaVuSans-35" x="354.199219"/>
       <use xlink:href="#DejaVuSans-2d" x="417.822266"/>
       <use xlink:href="#DejaVuSans-31" x="453.90625"/>
       <use xlink:href="#DejaVuSans-32" x="517.529297"/>
      </g>
     </g>
    </g>
    <g id="xtick_5">
     <g id="line2d_5">
      <g>
       <use xlink:href="#m5243313a81" x="538.531709" y="128.16" style="stroke: #000000; stroke-width: 0.8"/>
      </g>
     </g>
     <g id="text_5">
      <!-- 2022-12-07 -->
      <g transform="translate(509.473897 142.758438) scale(0.1 -0.1)">
       <defs>
        <path id="DejaVuSans-37" d="M 525 4666 
L 3525 4666 
L 3525 4397 
L 1831 0 
L 1172 0 
L 2766 4134 
L 525 4134 
L 525 4666 
z
" transform="scale(0.015625)"/>
       </defs>
       <use xlink:href="#DejaVuSans-32"/>
       <use xlink:href="#DejaVuSans-30" x="63.623047"/>
       <use xlink:href="#DejaVuSans-32" x="127.246094"/>
       <use xlink:href="#DejaVuSans-32" x="190.869141"/>
       <use xlink:href="#DejaVuSans-2d" x="254.492188"/>
       <use xlink:href="#DejaVuSans-31" x="290.576172"/>
       <use xlink:href="#DejaVuSans-32" x="354.199219"/>
       <use xlink:href="#DejaVuSans-2d" x="417.822266"/>
       <use xlink:href="#DejaVuSans-30" x="453.90625"/>
       <use xlink:href="#DejaVuSans-37" x="517.529297"/>
      </g>
     </g>
    </g>
    <g id="xtick_6">
     <g id="line2d_6">
      <g>
       <use xlink:href="#m5243313a81" x="644.323727" y="128.16" style="stroke: #000000; stroke-width: 0.8"/>
      </g>
     </g>
    </g>
    <g id="text_6">
     <!-- date -->
     <g transform="translate(357.725 156.436563) scale(0.1 -0.1)">
      <defs>
       <path id="DejaVuSans-64" d="M 2906 2969 
L 2906 4863 
L 3481 4863 
L 3481 0 
L 2906 0 
L 2906 525 
Q 2725 213 2448 61 
Q 2172 -91 1784 -91 
Q 1150 -91 751 415 
Q 353 922 353 1747 
Q 353 2572 751 3078 
Q 1150 3584 1784 3584 
Q 2172 3584 2448 3432 
Q 2725 3281 2906 2969 
z
M 947 1747 
Q 947 1113 1208 752 
Q 1469 391 1925 391 
Q 2381 391 2643 752 
Q 2906 1113 2906 1747 
Q 2906 2381 2643 2742 
Q 2381 3103 1925 3103 
Q 1469 3103 1208 2742 
Q 947 2381 947 1747 
z
" transform="scale(0.015625)"/>
       <path id="DejaVuSans-61" d="M 2194 1759 
Q 1497 1759 1228 1600 
Q 959 1441 959 1056 
Q 959 750 1161 570 
Q 1363 391 1709 391 
Q 2188 391 2477 730 
Q 2766 1069 2766 1631 
L 2766 1759 
L 2194 1759 
z
M 3341 1997 
L 3341 0 
L 2766 0 
L 2766 531 
Q 2569 213 2275 61 
Q 1981 -91 1556 -91 
Q 1019 -91 701 211 
Q 384 513 384 1019 
Q 384 1609 779 1909 
Q 1175 2209 1959 2209 
L 2766 2209 
L 2766 2266 
Q 2766 2663 2505 2880 
Q 2244 3097 1772 3097 
Q 1472 3097 1187 3025 
Q 903 2953 641 2809 
L 641 3341 
Q 956 3463 1253 3523 
Q 1550 3584 1831 3584 
Q 2591 3584 2966 3190 
Q 3341 2797 3341 1997 
z
" transform="scale(0.015625)"/>
       <path id="DejaVuSans-74" d="M 1172 4494 
L 1172 3500 
L 2356 3500 
L 2356 3053 
L 1172 3053 
L 1172 1153 
Q 1172 725 1289 603 
Q 1406 481 1766 481 
L 2356 481 
L 2356 0 
L 1766 0 
Q 1100 0 847 248 
Q 594 497 594 1153 
L 594 3053 
L 172 3053 
L 172 3500 
L 594 3500 
L 594 4494 
L 1172 4494 
z
" transform="scale(0.015625)"/>
       <path id="DejaVuSans-65" d="M 3597 1894 
L 3597 1613 
L 953 1613 
Q 991 1019 1311 708 
Q 1631 397 2203 397 
Q 2534 397 2845 478 
Q 3156 559 3463 722 
L 3463 178 
Q 3153 47 2828 -22 
Q 2503 -91 2169 -91 
Q 1331 -91 842 396 
Q 353 884 353 1716 
Q 353 2575 817 3079 
Q 1281 3584 2069 3584 
Q 2775 3584 3186 3129 
Q 3597 2675 3597 1894 
z
M 3022 2063 
Q 3016 2534 2758 2815 
Q 2500 3097 2075 3097 
Q 1594 3097 1305 2825 
Q 1016 2553 972 2059 
L 3022 2063 
z
" transform="scale(0.015625)"/>
      </defs>
      <use xlink:href="#DejaVuSans-64"/>
      <use xlink:href="#DejaVuSans-61" x="63.476562"/>
      <use xlink:href="#DejaVuSans-74" x="124.755859"/>
      <use xlink:href="#DejaVuSans-65" x="163.964844"/>
     </g>
    </g>
   </g>
   <g id="matplotlib.axis_2">
    <g id="ytick_1">
     <g id="line2d_7">
      <defs>
       <path id="m67e13f887d" d="M 0 0 
L -3.5 0 
" style="stroke: #000000; stroke-width: 0.8"/>
      </defs>
      <g>
       <use xlink:href="#m67e13f887d" x="90" y="123.895385" style="stroke: #000000; stroke-width: 0.8"/>
      </g>
     </g>
     <g id="text_7">
      <!-- 0 -->
      <g transform="translate(76.6375 127.694603) scale(0.1 -0.1)">
       <use xlink:href="#DejaVuSans-30"/>
      </g>
     </g>
    </g>
    <g id="ytick_2">
     <g id="line2d_8">
      <g>
       <use xlink:href="#m67e13f887d" x="90" y="85.126154" style="stroke: #000000; stroke-width: 0.8"/>
      </g>
     </g>
     <g id="text_8">
      <!-- 50 -->
      <g transform="translate(70.275 88.925373) scale(0.1 -0.1)">
       <use xlink:href="#DejaVuSans-35"/>
       <use xlink:href="#DejaVuSans-30" x="63.623047"/>
      </g>
     </g>
    </g>
    <g id="ytick_3">
     <g id="line2d_9">
      <g>
       <use xlink:href="#m67e13f887d" x="90" y="46.356923" style="stroke: #000000; stroke-width: 0.8"/>
      </g>
     </g>
     <g id="text_9">
      <!-- 100 -->
      <g transform="translate(63.9125 50.156142) scale(0.1 -0.1)">
       <use xlink:href="#DejaVuSans-31"/>
       <use xlink:href="#DejaVuSans-30" x="63.623047"/>
       <use xlink:href="#DejaVuSans-30" x="127.246094"/>
      </g>
     </g>
    </g>
   </g>
   <g id="line2d_10">
    <path d="M 115.363636 106.836923 
L 115.892596 113.04 
L 116.421557 120.793846 
L 118.008437 123.12 
L 118.537397 121.569231 
L 119.066357 117.692308 
L 119.595317 122.344615 
L 120.124277 121.569231 
L 120.653237 122.344615 
L 121.182197 105.286154 
L 121.711157 118.467692 
L 122.240118 121.569231 
L 122.769078 117.692308 
L 123.298038 122.344615 
L 123.826998 119.243077 
L 124.355958 118.467692 
L 124.884918 123.12 
L 125.413878 121.569231 
L 125.942838 116.141538 
L 126.471798 117.692308 
L 127.000758 120.793846 
L 127.529718 121.569231 
L 128.058679 121.569231 
L 129.116599 123.12 
L 129.645559 116.916923 
L 130.174519 84.350769 
L 130.703479 119.243077 
L 131.232439 121.569231 
L 131.761399 121.569231 
L 132.290359 120.018462 
L 132.819319 122.344615 
L 133.348279 120.793846 
L 133.87724 123.12 
L 134.4062 121.569231 
L 134.93516 121.569231 
L 135.46412 123.12 
L 135.99308 122.344615 
L 136.52204 120.793846 
L 137.051 120.793846 
L 137.57996 119.243077 
L 138.10892 123.12 
L 138.63788 123.12 
L 139.16684 122.344615 
L 139.695801 122.344615 
L 140.224761 123.12 
L 140.753721 123.12 
L 141.282681 111.489231 
L 141.811641 120.018462 
L 142.340601 118.467692 
L 142.869561 122.344615 
L 143.398521 120.018462 
L 143.927481 118.467692 
L 144.456441 120.018462 
L 144.985401 123.12 
L 145.514362 122.344615 
L 146.043322 120.018462 
L 146.572282 123.12 
L 147.630202 121.569231 
L 148.159162 118.467692 
L 149.217082 123.12 
L 149.746042 120.793846 
L 150.275002 120.018462 
L 150.803962 123.12 
L 151.332923 120.793846 
L 151.861883 123.12 
L 152.390843 122.344615 
L 152.919803 120.018462 
L 153.448763 123.12 
L 153.977723 122.344615 
L 154.506683 122.344615 
L 155.035643 123.12 
L 155.564603 120.018462 
L 156.093563 123.12 
L 156.622523 121.569231 
L 157.680444 121.569231 
L 158.209404 120.793846 
L 158.738364 119.243077 
L 159.267324 121.569231 
L 159.796284 119.243077 
L 160.325244 123.12 
L 161.383164 121.569231 
L 161.912124 120.018462 
L 162.441084 122.344615 
L 162.970045 123.12 
L 163.499005 122.344615 
L 164.027965 120.793846 
L 164.556925 121.569231 
L 165.085885 123.12 
L 165.614845 113.04 
L 166.143805 123.12 
L 166.672765 121.569231 
L 167.201725 120.793846 
L 167.730685 123.12 
L 168.259645 120.793846 
L 168.788606 117.692308 
L 169.317566 121.569231 
L 169.846526 123.12 
L 170.375486 123.12 
L 170.904446 122.344615 
L 171.433406 123.12 
L 171.962366 123.12 
L 172.491326 122.344615 
L 173.020286 122.344615 
L 173.549246 121.569231 
L 174.078206 122.344615 
L 175.665087 120.018462 
L 176.194047 121.569231 
L 176.723007 121.569231 
L 177.780927 120.018462 
L 178.309887 122.344615 
L 178.838847 123.12 
L 179.367807 118.467692 
L 179.896767 122.344615 
L 180.425728 122.344615 
L 180.954688 117.692308 
L 181.483648 121.569231 
L 182.012608 121.569231 
L 182.541568 104.510769 
L 183.070528 120.018462 
L 183.599488 121.569231 
L 184.128448 118.467692 
L 184.657408 122.344615 
L 185.186368 119.243077 
L 185.715328 122.344615 
L 186.244289 117.692308 
L 186.773249 120.018462 
L 187.302209 123.12 
L 187.831169 122.344615 
L 188.360129 113.815385 
L 188.889089 120.018462 
L 189.418049 122.344615 
L 189.947009 123.12 
L 190.475969 123.12 
L 191.004929 117.692308 
L 191.533889 123.12 
L 192.06285 123.12 
L 192.59181 120.793846 
L 193.12077 123.12 
L 193.64973 123.12 
L 194.70765 120.018462 
L 195.23661 123.12 
L 195.76557 121.569231 
L 196.82349 123.12 
L 197.35245 120.018462 
L 197.881411 123.12 
L 198.410371 123.12 
L 198.939331 122.344615 
L 199.468291 123.12 
L 199.997251 123.12 
L 200.526211 120.018462 
L 201.584131 123.12 
L 202.642051 121.569231 
L 203.171011 121.569231 
L 203.699972 122.344615 
L 204.228932 120.793846 
L 204.757892 122.344615 
L 205.286852 123.12 
L 206.344772 123.12 
L 206.873732 120.018462 
L 207.402692 123.12 
L 207.931652 122.344615 
L 208.460612 123.12 
L 208.989572 120.018462 
L 209.518533 121.569231 
L 210.047493 122.344615 
L 210.576453 122.344615 
L 211.105413 120.793846 
L 211.634373 122.344615 
L 212.163333 121.569231 
L 212.692293 121.569231 
L 213.221253 122.344615 
L 213.750213 122.344615 
L 214.279173 123.12 
L 214.808133 118.467692 
L 215.337094 122.344615 
L 215.866054 122.344615 
L 216.395014 123.12 
L 216.923974 122.344615 
L 217.452934 123.12 
L 217.981894 123.12 
L 219.039814 121.569231 
L 219.568774 115.366154 
L 220.097734 100.633846 
L 220.626694 117.692308 
L 221.155655 123.12 
L 221.684615 122.344615 
L 222.213575 118.467692 
L 222.742535 120.018462 
L 223.271495 119.243077 
L 223.800455 113.04 
L 224.329415 123.12 
L 224.858375 122.344615 
L 225.387335 120.793846 
L 225.916295 118.467692 
L 226.445255 115.366154 
L 226.974216 106.061538 
L 227.503176 112.264615 
L 228.032136 122.344615 
L 228.561096 97.532308 
L 229.090056 111.489231 
L 229.619016 117.692308 
L 230.147976 113.04 
L 230.676936 120.018462 
L 231.205896 113.04 
L 231.734856 113.815385 
L 232.263816 112.264615 
L 232.792777 106.061538 
L 233.321737 121.569231 
L 233.850697 118.467692 
L 234.379657 121.569231 
L 234.908617 123.12 
L 235.437577 120.018462 
L 235.966537 123.12 
L 236.495497 121.569231 
L 237.024457 123.12 
L 237.553417 122.344615 
L 238.082377 113.04 
L 238.611338 121.569231 
L 239.140298 119.243077 
L 239.669258 120.793846 
L 240.198218 120.018462 
L 240.727178 123.12 
L 241.256138 118.467692 
L 241.785098 120.018462 
L 242.314058 122.344615 
L 242.843018 119.243077 
L 243.371978 123.12 
L 243.900938 121.569231 
L 244.429899 123.12 
L 244.958859 120.793846 
L 245.487819 122.344615 
L 246.016779 120.793846 
L 246.545739 120.018462 
L 247.074699 122.344615 
L 248.132619 122.344615 
L 248.661579 120.793846 
L 249.190539 120.018462 
L 249.719499 106.836923 
L 250.24846 108.387692 
L 250.77742 121.569231 
L 251.30638 122.344615 
L 251.83534 119.243077 
L 252.3643 120.018462 
L 252.89326 118.467692 
L 253.42222 122.344615 
L 253.95118 123.12 
L 254.48014 119.243077 
L 255.0091 118.467692 
L 255.53806 116.141538 
L 256.067021 122.344615 
L 256.595981 120.018462 
L 257.124941 122.344615 
L 257.653901 122.344615 
L 258.182861 123.12 
L 259.240781 120.018462 
L 260.298701 123.12 
L 260.827661 121.569231 
L 261.356621 122.344615 
L 261.885582 118.467692 
L 262.414542 116.916923 
L 262.943502 118.467692 
L 263.472462 119.243077 
L 264.001422 117.692308 
L 264.530382 111.489231 
L 265.059342 119.243077 
L 265.588302 120.793846 
L 266.117262 120.018462 
L 266.646222 117.692308 
L 267.175182 112.264615 
L 267.704143 122.344615 
L 268.233103 121.569231 
L 268.762063 123.12 
L 269.291023 116.916923 
L 269.819983 117.692308 
L 270.348943 120.793846 
L 270.877903 116.141538 
L 271.406863 114.590769 
L 271.935823 122.344615 
L 272.464783 122.344615 
L 272.993743 116.141538 
L 273.522704 102.184615 
L 274.051664 113.04 
L 274.580624 119.243077 
L 275.109584 120.018462 
L 275.638544 120.018462 
L 276.696464 121.569231 
L 277.225424 119.243077 
L 277.754384 119.243077 
L 278.283344 122.344615 
L 278.812304 122.344615 
L 279.341265 121.569231 
L 279.870225 122.344615 
L 280.399185 117.692308 
L 280.928145 117.692308 
L 281.457105 119.243077 
L 281.986065 116.916923 
L 282.515025 111.489231 
L 283.043985 117.692308 
L 283.572945 117.692308 
L 284.101905 121.569231 
L 284.630865 121.569231 
L 285.159826 118.467692 
L 285.688786 123.12 
L 286.217746 109.938462 
L 286.746706 108.387692 
L 287.275666 119.243077 
L 287.804626 120.018462 
L 288.333586 113.04 
L 289.391506 121.569231 
L 289.920466 120.018462 
L 290.449426 123.12 
L 290.978387 116.916923 
L 291.507347 106.836923 
L 292.036307 122.344615 
L 292.565267 121.569231 
L 293.623187 123.12 
L 294.152147 120.793846 
L 294.681107 108.387692 
L 295.210067 117.692308 
L 295.739027 122.344615 
L 296.267987 122.344615 
L 296.796948 111.489231 
L 297.325908 121.569231 
L 297.854868 122.344615 
L 298.383828 121.569231 
L 300.499668 121.569231 
L 301.028628 120.018462 
L 301.557588 123.12 
L 302.086548 122.344615 
L 302.615509 122.344615 
L 303.144469 123.12 
L 303.673429 123.12 
L 304.202389 122.344615 
L 304.731349 123.12 
L 305.260309 119.243077 
L 305.789269 122.344615 
L 306.318229 120.018462 
L 306.847189 120.018462 
L 307.376149 118.467692 
L 307.905109 120.018462 
L 308.43407 123.12 
L 308.96303 121.569231 
L 310.02095 121.569231 
L 310.54991 123.12 
L 311.07887 122.344615 
L 311.60783 122.344615 
L 312.13679 120.793846 
L 312.66575 122.344615 
L 314.252631 122.344615 
L 314.781591 95.981538 
L 315.310551 120.018462 
L 315.839511 123.12 
L 316.368471 122.344615 
L 316.897431 120.793846 
L 317.426391 123.12 
L 317.955351 120.018462 
L 318.484311 122.344615 
L 319.013271 119.243077 
L 319.542231 118.467692 
L 320.071192 118.467692 
L 320.600152 117.692308 
L 321.129112 108.387692 
L 321.658072 108.387692 
L 322.187032 118.467692 
L 322.715992 120.793846 
L 323.244952 122.344615 
L 323.773912 110.713846 
L 324.302872 120.018462 
L 324.831832 122.344615 
L 325.360792 122.344615 
L 325.889753 121.569231 
L 326.418713 121.569231 
L 326.947673 122.344615 
L 327.476633 122.344615 
L 328.005593 120.018462 
L 328.534553 123.12 
L 329.063513 122.344615 
L 329.592473 120.018462 
L 330.121433 120.018462 
L 330.650393 121.569231 
L 331.708314 108.387692 
L 332.237274 116.916923 
L 332.766234 116.141538 
L 333.295194 111.489231 
L 333.824154 114.590769 
L 334.882074 116.141538 
L 335.411034 115.366154 
L 335.939994 110.713846 
L 336.468954 113.04 
L 336.997914 120.018462 
L 337.526875 120.793846 
L 338.055835 119.243077 
L 338.584795 119.243077 
L 339.113755 116.916923 
L 339.642715 118.467692 
L 340.171675 113.815385 
L 340.700635 117.692308 
L 341.229595 118.467692 
L 341.758555 115.366154 
L 342.287515 108.387692 
L 342.816475 115.366154 
L 343.345436 118.467692 
L 344.403356 115.366154 
L 344.932316 118.467692 
L 345.461276 113.04 
L 345.990236 118.467692 
L 346.519196 115.366154 
L 347.577116 121.569231 
L 348.106076 113.04 
L 348.635036 121.569231 
L 349.163997 120.018462 
L 349.692957 120.793846 
L 350.221917 117.692308 
L 350.750877 116.916923 
L 351.279837 104.510769 
L 351.808797 102.184615 
L 352.337757 116.141538 
L 352.866717 95.206154 
L 353.395677 121.569231 
L 353.924637 120.018462 
L 354.453597 121.569231 
L 354.982558 101.409231 
L 355.511518 102.184615 
L 356.569438 122.344615 
L 357.098398 120.018462 
L 357.627358 113.815385 
L 358.156318 120.018462 
L 358.685278 120.018462 
L 359.214238 102.184615 
L 359.743198 115.366154 
L 360.272158 117.692308 
L 361.330079 119.243077 
L 361.859039 119.243077 
L 362.387999 117.692308 
L 363.974879 122.344615 
L 364.503839 116.916923 
L 365.032799 122.344615 
L 365.561759 122.344615 
L 366.61968 120.793846 
L 367.14864 123.12 
L 367.6776 120.793846 
L 368.20656 119.243077 
L 368.73552 121.569231 
L 369.26448 122.344615 
L 369.79344 122.344615 
L 370.3224 116.916923 
L 370.85136 123.12 
L 371.38032 106.061538 
L 371.909281 121.569231 
L 372.438241 122.344615 
L 372.967201 120.018462 
L 373.496161 120.018462 
L 374.025121 120.793846 
L 374.554081 122.344615 
L 375.083041 117.692308 
L 375.612001 121.569231 
L 376.140961 120.018462 
L 376.669921 120.793846 
L 377.198881 105.286154 
L 377.727842 121.569231 
L 378.256802 119.243077 
L 378.785762 123.12 
L 379.314722 123.12 
L 379.843682 122.344615 
L 380.372642 116.916923 
L 380.901602 122.344615 
L 381.430562 117.692308 
L 381.959522 120.018462 
L 382.488482 123.12 
L 383.017442 120.018462 
L 384.075363 120.018462 
L 384.604323 117.692308 
L 385.133283 116.141538 
L 385.662243 120.793846 
L 386.191203 120.793846 
L 386.720163 120.018462 
L 387.249123 121.569231 
L 387.778083 121.569231 
L 388.307043 120.018462 
L 388.836003 117.692308 
L 389.364964 117.692308 
L 389.893924 119.243077 
L 390.422884 122.344615 
L 391.480804 122.344615 
L 392.009764 108.387692 
L 392.538724 75.821538 
L 393.067684 91.329231 
L 393.596644 119.243077 
L 394.125604 121.569231 
L 394.654564 120.018462 
L 395.712485 109.163077 
L 396.241445 118.467692 
L 396.770405 105.286154 
L 397.299365 88.227692 
L 397.828325 120.018462 
L 398.357285 87.452308 
L 398.886245 113.815385 
L 399.415205 122.344615 
L 399.944165 78.147692 
L 400.473125 102.96 
L 401.002086 111.489231 
L 401.531046 73.495385 
L 402.060006 119.243077 
L 402.588966 120.018462 
L 403.117926 102.184615 
L 403.646886 113.04 
L 404.175846 99.858462 
L 404.704806 113.04 
L 405.233766 120.793846 
L 405.762726 56.436923 
L 406.291686 119.243077 
L 406.820647 120.018462 
L 407.349607 120.018462 
L 407.878567 114.590769 
L 408.407527 118.467692 
L 408.936487 107.612308 
L 409.465447 118.467692 
L 409.994407 120.793846 
L 410.523367 102.96 
L 411.052327 102.96 
L 411.581287 114.590769 
L 412.110247 100.633846 
L 412.639208 119.243077 
L 413.168168 120.018462 
L 413.697128 102.96 
L 414.226088 123.12 
L 414.755048 121.569231 
L 415.284008 120.793846 
L 415.812968 119.243077 
L 416.341928 121.569231 
L 416.870888 120.793846 
L 417.399848 119.243077 
L 417.928808 115.366154 
L 418.457769 117.692308 
L 418.986729 110.713846 
L 420.044649 122.344615 
L 420.573609 123.12 
L 421.102569 116.916923 
L 422.160489 121.569231 
L 422.689449 123.12 
L 423.218409 119.243077 
L 423.747369 122.344615 
L 424.27633 119.243077 
L 424.80529 123.12 
L 425.86321 121.569231 
L 426.39217 123.12 
L 426.92113 123.12 
L 427.45009 121.569231 
L 428.50801 120.018462 
L 429.03697 120.018462 
L 429.56593 120.793846 
L 430.094891 120.793846 
L 430.623851 123.12 
L 431.152811 121.569231 
L 431.681771 96.756923 
L 432.210731 120.793846 
L 432.739691 122.344615 
L 433.797611 122.344615 
L 434.326571 118.467692 
L 434.855531 119.243077 
L 435.384491 110.713846 
L 435.913452 121.569231 
L 436.442412 117.692308 
L 436.971372 122.344615 
L 437.500332 123.12 
L 438.029292 120.793846 
L 438.558252 121.569231 
L 439.087212 117.692308 
L 439.616172 119.243077 
L 440.145132 121.569231 
L 440.674092 122.344615 
L 441.203052 121.569231 
L 441.732013 118.467692 
L 442.260973 120.018462 
L 442.789933 119.243077 
L 443.318893 120.793846 
L 443.847853 116.916923 
L 444.376813 118.467692 
L 444.905773 123.12 
L 445.434733 119.243077 
L 445.963693 120.018462 
L 446.492653 111.489231 
L 447.021613 122.344615 
L 447.550574 119.243077 
L 448.079534 119.243077 
L 448.608494 120.018462 
L 449.137454 112.264615 
L 449.666414 99.858462 
L 450.195374 120.018462 
L 450.724334 122.344615 
L 451.253294 117.692308 
L 451.782254 121.569231 
L 452.311214 120.793846 
L 452.840174 120.793846 
L 453.369135 123.12 
L 454.427055 121.569231 
L 454.956015 120.018462 
L 455.484975 122.344615 
L 456.013935 120.018462 
L 456.542895 122.344615 
L 457.071855 120.018462 
L 457.600815 123.12 
L 458.129775 120.018462 
L 458.658735 121.569231 
L 459.187696 121.569231 
L 459.716656 120.018462 
L 460.245616 123.12 
L 460.774576 120.018462 
L 461.303536 121.569231 
L 461.832496 116.916923 
L 462.361456 122.344615 
L 462.890416 116.141538 
L 463.419376 99.858462 
L 463.948336 122.344615 
L 464.477296 123.12 
L 465.006257 121.569231 
L 465.535217 117.692308 
L 466.064177 121.569231 
L 467.122097 123.12 
L 467.651057 116.916923 
L 468.180017 121.569231 
L 468.708977 120.793846 
L 469.237937 113.815385 
L 469.766897 108.387692 
L 470.295857 118.467692 
L 470.824818 121.569231 
L 471.353778 121.569231 
L 471.882738 117.692308 
L 472.411698 91.329231 
L 472.940658 110.713846 
L 473.469618 117.692308 
L 473.998578 120.793846 
L 474.527538 120.793846 
L 475.056498 98.307692 
L 475.585458 120.018462 
L 476.114418 122.344615 
L 477.172339 122.344615 
L 477.701299 120.793846 
L 478.230259 120.018462 
L 478.759219 121.569231 
L 479.288179 119.243077 
L 479.817139 120.793846 
L 480.346099 123.12 
L 480.875059 121.569231 
L 481.404019 118.467692 
L 481.932979 121.569231 
L 482.46194 117.692308 
L 482.9909 117.692308 
L 483.51986 119.243077 
L 484.04882 121.569231 
L 484.57778 107.612308 
L 485.10674 120.018462 
L 485.6357 110.713846 
L 486.16466 117.692308 
L 486.69362 119.243077 
L 487.22258 111.489231 
L 487.75154 121.569231 
L 488.809461 114.590769 
L 489.338421 120.018462 
L 489.867381 116.916923 
L 490.396341 110.713846 
L 490.925301 109.938462 
L 491.454261 119.243077 
L 491.983221 105.286154 
L 492.512181 111.489231 
L 493.041141 120.793846 
L 493.570101 109.938462 
L 494.099062 122.344615 
L 494.628022 121.569231 
L 495.156982 114.590769 
L 495.685942 116.916923 
L 496.214902 101.409231 
L 496.743862 114.590769 
L 497.272822 113.815385 
L 497.801782 113.815385 
L 498.330742 115.366154 
L 498.859702 119.243077 
L 499.388662 120.018462 
L 499.917623 117.692308 
L 500.446583 119.243077 
L 500.975543 113.04 
L 501.504503 120.018462 
L 502.033463 115.366154 
L 502.562423 109.163077 
L 503.091383 115.366154 
L 503.620343 116.141538 
L 504.149303 115.366154 
L 504.678263 122.344615 
L 505.207223 117.692308 
L 505.736184 121.569231 
L 506.265144 120.793846 
L 506.794104 113.815385 
L 507.323064 113.04 
L 507.852024 101.409231 
L 508.380984 113.04 
L 508.909944 110.713846 
L 509.438904 118.467692 
L 509.967864 120.018462 
L 510.496824 119.243077 
L 511.025784 119.243077 
L 511.554745 122.344615 
L 512.083705 119.243077 
L 512.612665 109.163077 
L 513.141625 119.243077 
L 514.199545 119.243077 
L 514.728505 122.344615 
L 515.257465 123.12 
L 515.786425 122.344615 
L 516.315385 118.467692 
L 516.844345 106.836923 
L 517.373306 120.018462 
L 517.902266 120.018462 
L 518.431226 123.12 
L 518.960186 123.12 
L 519.489146 98.307692 
L 520.018106 106.836923 
L 520.547066 117.692308 
L 521.076026 113.04 
L 522.133946 122.344615 
L 522.662906 121.569231 
L 523.191867 122.344615 
L 523.720827 116.141538 
L 524.249787 122.344615 
L 524.778747 120.793846 
L 525.307707 121.569231 
L 525.836667 123.12 
L 526.365627 100.633846 
L 526.894587 120.018462 
L 527.423547 111.489231 
L 527.952507 111.489231 
L 528.481467 114.590769 
L 529.010428 120.793846 
L 529.539388 121.569231 
L 530.068348 116.141538 
L 530.597308 118.467692 
L 531.126268 117.692308 
L 531.655228 116.141538 
L 532.184188 122.344615 
L 532.713148 120.018462 
L 533.242108 121.569231 
L 534.300028 123.12 
L 536.415869 120.018462 
L 537.473789 105.286154 
L 538.002749 118.467692 
L 538.531709 116.141538 
L 539.060669 122.344615 
L 539.589629 116.141538 
L 540.118589 123.12 
L 540.64755 121.569231 
L 541.70547 120.018462 
L 542.23443 120.793846 
L 542.76339 120.018462 
L 543.29235 118.467692 
L 543.82131 107.612308 
L 544.35027 118.467692 
L 544.87923 117.692308 
L 545.40819 106.061538 
L 545.93715 122.344615 
L 546.466111 114.590769 
L 546.995071 122.344615 
L 547.524031 118.467692 
L 548.052991 121.569231 
L 548.581951 123.12 
L 549.110911 120.793846 
L 549.639871 122.344615 
L 550.168831 120.018462 
L 550.697791 123.12 
L 551.755711 123.12 
L 552.284672 120.018462 
L 552.813632 123.12 
L 553.342592 118.467692 
L 553.871552 123.12 
L 554.400512 122.344615 
L 554.929472 120.018462 
L 555.458432 107.612308 
L 555.987392 123.12 
L 556.516352 123.12 
L 557.045312 112.264615 
L 557.574272 113.04 
L 558.103233 110.713846 
L 558.632193 113.815385 
L 559.161153 122.344615 
L 559.690113 112.264615 
L 560.219073 120.018462 
L 560.748033 121.569231 
L 561.276993 122.344615 
L 561.805953 122.344615 
L 562.334913 123.12 
L 562.863873 122.344615 
L 563.392833 119.243077 
L 563.921794 121.569231 
L 564.979714 123.12 
L 565.508674 123.12 
L 566.037634 117.692308 
L 566.566594 118.467692 
L 567.095554 121.569231 
L 568.153474 121.569231 
L 568.682434 120.793846 
L 569.211394 120.793846 
L 569.740355 116.141538 
L 570.269315 122.344615 
L 570.798275 105.286154 
L 571.327235 118.467692 
L 571.856195 122.344615 
L 572.385155 119.243077 
L 572.914115 120.018462 
L 573.972035 113.04 
L 574.500995 118.467692 
L 575.029955 103.735385 
L 575.558916 123.12 
L 576.087876 117.692308 
L 577.145796 102.96 
L 577.674756 110.713846 
L 578.203716 82.8 
L 578.732676 116.141538 
L 579.261636 123.12 
L 579.790596 93.655385 
L 580.319556 113.04 
L 580.848516 109.163077 
L 581.377477 110.713846 
L 581.906437 117.692308 
L 582.435397 113.815385 
L 582.964357 122.344615 
L 583.493317 106.836923 
L 584.022277 112.264615 
L 584.551237 112.264615 
L 585.080197 107.612308 
L 585.609157 108.387692 
L 586.138117 121.569231 
L 586.667077 123.12 
L 587.196038 92.104615 
L 587.724998 22.32 
L 588.253958 102.184615 
L 588.782918 106.836923 
L 589.311878 106.061538 
L 589.840838 120.018462 
L 590.369798 120.793846 
L 590.898758 92.88 
L 591.427718 73.495385 
L 591.956678 110.713846 
L 592.485638 108.387692 
L 593.014599 103.735385 
L 593.543559 120.018462 
L 594.072519 123.12 
L 594.601479 85.901538 
L 595.659399 90.553846 
L 596.717319 120.018462 
L 597.246279 121.569231 
L 597.775239 122.344615 
L 598.304199 117.692308 
L 598.83316 106.836923 
L 599.36212 113.04 
L 599.89108 90.553846 
L 600.42004 92.88 
L 600.949 121.569231 
L 601.47796 120.018462 
L 602.00692 101.409231 
L 602.53588 115.366154 
L 603.06484 96.756923 
L 603.5938 116.141538 
L 604.12276 123.12 
L 604.651721 123.12 
L 605.180681 116.141538 
L 605.709641 105.286154 
L 606.238601 118.467692 
L 606.767561 118.467692 
L 607.296521 121.569231 
L 607.825481 123.12 
L 608.354441 123.12 
L 608.883401 121.569231 
L 609.412361 113.815385 
L 609.941321 120.793846 
L 610.470282 123.12 
L 610.999242 99.083077 
L 611.528202 117.692308 
L 612.057162 116.141538 
L 612.586122 95.981538 
L 613.115082 114.590769 
L 613.644042 122.344615 
L 614.173002 120.793846 
L 614.701962 123.12 
L 615.230922 121.569231 
L 615.759882 100.633846 
L 616.288843 98.307692 
L 616.817803 115.366154 
L 617.346763 109.938462 
L 617.875723 116.916923 
L 618.404683 106.836923 
L 618.933643 120.793846 
L 619.462603 114.590769 
L 619.991563 121.569231 
L 620.520523 120.793846 
L 621.049483 121.569231 
L 621.578443 123.12 
L 622.107404 105.286154 
L 622.636364 111.489231 
L 622.636364 111.489231 
" clip-path="url(#pf3f213fa44)" style="fill: none; stroke: #1f77b4; stroke-width: 1.5; stroke-linecap: square"/>
   </g>
   <g id="patch_3">
    <path d="M 90 128.16 
L 90 17.28 
" style="fill: none; stroke: #000000; stroke-width: 0.8; stroke-linejoin: miter; stroke-linecap: square"/>
   </g>
   <g id="patch_4">
    <path d="M 648 128.16 
L 648 17.28 
" style="fill: none; stroke: #000000; stroke-width: 0.8; stroke-linejoin: miter; stroke-linecap: square"/>
   </g>
   <g id="patch_5">
    <path d="M 90 128.16 
L 648 128.16 
" style="fill: none; stroke: #000000; stroke-width: 0.8; stroke-linejoin: miter; stroke-linecap: square"/>
   </g>
   <g id="patch_6">
    <path d="M 90 17.28 
L 648 17.28 
" style="fill: none; stroke: #000000; stroke-width: 0.8; stroke-linejoin: miter; stroke-linecap: square"/>
   </g>
   <g id="legend_1">
    <g id="patch_7">
     <path d="M 97 39.958125 
L 264.190625 39.958125 
Q 266.190625 39.958125 266.190625 37.958125 
L 266.190625 24.28 
Q 266.190625 22.28 264.190625 22.28 
L 97 22.28 
Q 95 22.28 95 24.28 
L 95 37.958125 
Q 95 39.958125 97 39.958125 
z
" style="fill: #ffffff; opacity: 0.8; stroke: #cccccc; stroke-linejoin: miter"/>
    </g>
    <g id="line2d_11">
     <path d="M 99 30.378437 
L 109 30.378437 
L 119 30.378437 
" style="fill: none; stroke: #1f77b4; stroke-width: 1.5; stroke-linecap: square"/>
    </g>
    <g id="text_10">
     <!-- Number of PyPI Downloads -->
     <g transform="translate(127 33.878437) scale(0.1 -0.1)">
      <defs>
       <path id="DejaVuSans-4e" d="M 628 4666 
L 1478 4666 
L 3547 763 
L 3547 4666 
L 4159 4666 
L 4159 0 
L 3309 0 
L 1241 3903 
L 1241 0 
L 628 0 
L 628 4666 
z
" transform="scale(0.015625)"/>
       <path id="DejaVuSans-75" d="M 544 1381 
L 544 3500 
L 1119 3500 
L 1119 1403 
Q 1119 906 1312 657 
Q 1506 409 1894 409 
Q 2359 409 2629 706 
Q 2900 1003 2900 1516 
L 2900 3500 
L 3475 3500 
L 3475 0 
L 2900 0 
L 2900 538 
Q 2691 219 2414 64 
Q 2138 -91 1772 -91 
Q 1169 -91 856 284 
Q 544 659 544 1381 
z
M 1991 3584 
L 1991 3584 
z
" transform="scale(0.015625)"/>
       <path id="DejaVuSans-6d" d="M 3328 2828 
Q 3544 3216 3844 3400 
Q 4144 3584 4550 3584 
Q 5097 3584 5394 3201 
Q 5691 2819 5691 2113 
L 5691 0 
L 5113 0 
L 5113 2094 
Q 5113 2597 4934 2840 
Q 4756 3084 4391 3084 
Q 3944 3084 3684 2787 
Q 3425 2491 3425 1978 
L 3425 0 
L 2847 0 
L 2847 2094 
Q 2847 2600 2669 2842 
Q 2491 3084 2119 3084 
Q 1678 3084 1418 2786 
Q 1159 2488 1159 1978 
L 1159 0 
L 581 0 
L 581 3500 
L 1159 3500 
L 1159 2956 
Q 1356 3278 1631 3431 
Q 1906 3584 2284 3584 
Q 2666 3584 2933 3390 
Q 3200 3197 3328 2828 
z
" transform="scale(0.015625)"/>
       <path id="DejaVuSans-62" d="M 3116 1747 
Q 3116 2381 2855 2742 
Q 2594 3103 2138 3103 
Q 1681 3103 1420 2742 
Q 1159 2381 1159 1747 
Q 1159 1113 1420 752 
Q 1681 391 2138 391 
Q 2594 391 2855 752 
Q 3116 1113 3116 1747 
z
M 1159 2969 
Q 1341 3281 1617 3432 
Q 1894 3584 2278 3584 
Q 2916 3584 3314 3078 
Q 3713 2572 3713 1747 
Q 3713 922 3314 415 
Q 2916 -91 2278 -91 
Q 1894 -91 1617 61 
Q 1341 213 1159 525 
L 1159 0 
L 581 0 
L 581 4863 
L 1159 4863 
L 1159 2969 
z
" transform="scale(0.015625)"/>
       <path id="DejaVuSans-72" d="M 2631 2963 
Q 2534 3019 2420 3045 
Q 2306 3072 2169 3072 
Q 1681 3072 1420 2755 
Q 1159 2438 1159 1844 
L 1159 0 
L 581 0 
L 581 3500 
L 1159 3500 
L 1159 2956 
Q 1341 3275 1631 3429 
Q 1922 3584 2338 3584 
Q 2397 3584 2469 3576 
Q 2541 3569 2628 3553 
L 2631 2963 
z
" transform="scale(0.015625)"/>
       <path id="DejaVuSans-20" transform="scale(0.015625)"/>
       <path id="DejaVuSans-6f" d="M 1959 3097 
Q 1497 3097 1228 2736 
Q 959 2375 959 1747 
Q 959 1119 1226 758 
Q 1494 397 1959 397 
Q 2419 397 2687 759 
Q 2956 1122 2956 1747 
Q 2956 2369 2687 2733 
Q 2419 3097 1959 3097 
z
M 1959 3584 
Q 2709 3584 3137 3096 
Q 3566 2609 3566 1747 
Q 3566 888 3137 398 
Q 2709 -91 1959 -91 
Q 1206 -91 779 398 
Q 353 888 353 1747 
Q 353 2609 779 3096 
Q 1206 3584 1959 3584 
z
" transform="scale(0.015625)"/>
       <path id="DejaVuSans-66" d="M 2375 4863 
L 2375 4384 
L 1825 4384 
Q 1516 4384 1395 4259 
Q 1275 4134 1275 3809 
L 1275 3500 
L 2222 3500 
L 2222 3053 
L 1275 3053 
L 1275 0 
L 697 0 
L 697 3053 
L 147 3053 
L 147 3500 
L 697 3500 
L 697 3744 
Q 697 4328 969 4595 
Q 1241 4863 1831 4863 
L 2375 4863 
z
" transform="scale(0.015625)"/>
       <path id="DejaVuSans-50" d="M 1259 4147 
L 1259 2394 
L 2053 2394 
Q 2494 2394 2734 2622 
Q 2975 2850 2975 3272 
Q 2975 3691 2734 3919 
Q 2494 4147 2053 4147 
L 1259 4147 
z
M 628 4666 
L 2053 4666 
Q 2838 4666 3239 4311 
Q 3641 3956 3641 3272 
Q 3641 2581 3239 2228 
Q 2838 1875 2053 1875 
L 1259 1875 
L 1259 0 
L 628 0 
L 628 4666 
z
" transform="scale(0.015625)"/>
       <path id="DejaVuSans-79" d="M 2059 -325 
Q 1816 -950 1584 -1140 
Q 1353 -1331 966 -1331 
L 506 -1331 
L 506 -850 
L 844 -850 
Q 1081 -850 1212 -737 
Q 1344 -625 1503 -206 
L 1606 56 
L 191 3500 
L 800 3500 
L 1894 763 
L 2988 3500 
L 3597 3500 
L 2059 -325 
z
" transform="scale(0.015625)"/>
       <path id="DejaVuSans-49" d="M 628 4666 
L 1259 4666 
L 1259 0 
L 628 0 
L 628 4666 
z
" transform="scale(0.015625)"/>
       <path id="DejaVuSans-44" d="M 1259 4147 
L 1259 519 
L 2022 519 
Q 2988 519 3436 956 
Q 3884 1394 3884 2338 
Q 3884 3275 3436 3711 
Q 2988 4147 2022 4147 
L 1259 4147 
z
M 628 4666 
L 1925 4666 
Q 3281 4666 3915 4102 
Q 4550 3538 4550 2338 
Q 4550 1131 3912 565 
Q 3275 0 1925 0 
L 628 0 
L 628 4666 
z
" transform="scale(0.015625)"/>
       <path id="DejaVuSans-77" d="M 269 3500 
L 844 3500 
L 1563 769 
L 2278 3500 
L 2956 3500 
L 3675 769 
L 4391 3500 
L 4966 3500 
L 4050 0 
L 3372 0 
L 2619 2869 
L 1863 0 
L 1184 0 
L 269 3500 
z
" transform="scale(0.015625)"/>
       <path id="DejaVuSans-6e" d="M 3513 2113 
L 3513 0 
L 2938 0 
L 2938 2094 
Q 2938 2591 2744 2837 
Q 2550 3084 2163 3084 
Q 1697 3084 1428 2787 
Q 1159 2491 1159 1978 
L 1159 0 
L 581 0 
L 581 3500 
L 1159 3500 
L 1159 2956 
Q 1366 3272 1645 3428 
Q 1925 3584 2291 3584 
Q 2894 3584 3203 3211 
Q 3513 2838 3513 2113 
z
" transform="scale(0.015625)"/>
       <path id="DejaVuSans-6c" d="M 603 4863 
L 1178 4863 
L 1178 0 
L 603 0 
L 603 4863 
z
" transform="scale(0.015625)"/>
       <path id="DejaVuSans-73" d="M 2834 3397 
L 2834 2853 
Q 2591 2978 2328 3040 
Q 2066 3103 1784 3103 
Q 1356 3103 1142 2972 
Q 928 2841 928 2578 
Q 928 2378 1081 2264 
Q 1234 2150 1697 2047 
L 1894 2003 
Q 2506 1872 2764 1633 
Q 3022 1394 3022 966 
Q 3022 478 2636 193 
Q 2250 -91 1575 -91 
Q 1294 -91 989 -36 
Q 684 19 347 128 
L 347 722 
Q 666 556 975 473 
Q 1284 391 1588 391 
Q 1994 391 2212 530 
Q 2431 669 2431 922 
Q 2431 1156 2273 1281 
Q 2116 1406 1581 1522 
L 1381 1569 
Q 847 1681 609 1914 
Q 372 2147 372 2553 
Q 372 3047 722 3315 
Q 1072 3584 1716 3584 
Q 2034 3584 2315 3537 
Q 2597 3491 2834 3397 
z
" transform="scale(0.015625)"/>
      </defs>
      <use xlink:href="#DejaVuSans-4e"/>
      <use xlink:href="#DejaVuSans-75" x="74.804688"/>
      <use xlink:href="#DejaVuSans-6d" x="138.183594"/>
      <use xlink:href="#DejaVuSans-62" x="235.595703"/>
      <use xlink:href="#DejaVuSans-65" x="299.072266"/>
      <use xlink:href="#DejaVuSans-72" x="360.595703"/>
      <use xlink:href="#DejaVuSans-20" x="401.708984"/>
      <use xlink:href="#DejaVuSans-6f" x="433.496094"/>
      <use xlink:href="#DejaVuSans-66" x="494.677734"/>
      <use xlink:href="#DejaVuSans-20" x="529.882812"/>
      <use xlink:href="#DejaVuSans-50" x="561.669922"/>
      <use xlink:href="#DejaVuSans-79" x="621.972656"/>
      <use xlink:href="#DejaVuSans-50" x="681.152344"/>
      <use xlink:href="#DejaVuSans-49" x="741.455078"/>
      <use xlink:href="#DejaVuSans-20" x="770.947266"/>
      <use xlink:href="#DejaVuSans-44" x="802.734375"/>
      <use xlink:href="#DejaVuSans-6f" x="879.736328"/>
      <use xlink:href="#DejaVuSans-77" x="940.917969"/>
      <use xlink:href="#DejaVuSans-6e" x="1022.705078"/>
      <use xlink:href="#DejaVuSans-6c" x="1086.083984"/>
      <use xlink:href="#DejaVuSans-6f" x="1113.867188"/>
      <use xlink:href="#DejaVuSans-61" x="1175.048828"/>
      <use xlink:href="#DejaVuSans-64" x="1236.328125"/>
      <use xlink:href="#DejaVuSans-73" x="1299.804688"/>
     </g>
    </g>
   </g>
  </g>
 </g>
 <defs>
  <clipPath id="pf3f213fa44">
   <rect x="90" y="17.28" width="558" height="110.88"/>
  </clipPath>
 </defs>
</svg>
