<?xml version="1.0" encoding="utf-8" standalone="no"?>
<!DOCTYPE svg PUBLIC "-//W3C//DTD SVG 1.1//EN"
  "http://www.w3.org/Graphics/SVG/1.1/DTD/svg11.dtd">
<svg xmlns:xlink="http://www.w3.org/1999/xlink" width="720pt" height="144pt" viewBox="0 0 720 144" xmlns="http://www.w3.org/2000/svg" version="1.1">
 <metadata>
  <rdf:RDF xmlns:dc="http://purl.org/dc/elements/1.1/" xmlns:cc="http://creativecommons.org/ns#" xmlns:rdf="http://www.w3.org/1999/02/22-rdf-syntax-ns#">
   <cc:Work>
    <dc:type rdf:resource="http://purl.org/dc/dcmitype/StillImage"/>
    <dc:date>2024-09-01T20:56:47.103398</dc:date>
    <dc:format>image/svg+xml</dc:format>
    <dc:creator>
     <cc:Agent>
      <dc:title>Matplotlib v3.9.2, https://matplotlib.org/</dc:title>
     </cc:Agent>
    </dc:creator>
   </cc:Work>
  </rdf:RDF>
 </metadata>
 <defs>
  <style type="text/css">*{stroke-linejoin: round; stroke-linecap: butt}</style>
 </defs>
 <g id="figure_1">
  <g id="patch_1">
   <path d="M 0 144 
L 720 144 
L 720 0 
L 0 0 
z
" style="fill: #ffffff"/>
  </g>
  <g id="axes_1">
   <g id="patch_2">
    <path d="M 90 128.16 
L 648 128.16 
L 648 17.28 
L 90 17.28 
z
" style="fill: #ffffff"/>
   </g>
   <g id="matplotlib.axis_1">
    <g id="xtick_1">
     <g id="line2d_1">
      <defs>
       <path id="m5df939944c" d="M 0 0 
L 0 3.5 
" style="stroke: #000000; stroke-width: 0.8"/>
      </defs>
      <g>
       <use xlink:href="#m5df939944c" x="115.363636" y="128.16" style="stroke: #000000; stroke-width: 0.8"/>
      </g>
     </g>
     <g id="text_1">
      <!-- 2020-06-18 -->
      <g transform="translate(86.305824 142.758438) scale(0.1 -0.1)">
       <defs>
        <path id="DejaVuSans-32" d="M 1228 531 
L 3431 531 
L 3431 0 
L 469 0 
L 469 531 
Q 828 903 1448 1529 
Q 2069 2156 2228 2338 
Q 2531 2678 2651 2914 
Q 2772 3150 2772 3378 
Q 2772 3750 2511 3984 
Q 2250 4219 1831 4219 
Q 1534 4219 1204 4116 
Q 875 4013 500 3803 
L 500 4441 
Q 881 4594 1212 4672 
Q 1544 4750 1819 4750 
Q 2544 4750 2975 4387 
Q 3406 4025 3406 3419 
Q 3406 3131 3298 2873 
Q 3191 2616 2906 2266 
Q 2828 2175 2409 1742 
Q 1991 1309 1228 531 
z
" transform="scale(0.015625)"/>
        <path id="DejaVuSans-30" d="M 2034 4250 
Q 1547 4250 1301 3770 
Q 1056 3291 1056 2328 
Q 1056 1369 1301 889 
Q 1547 409 2034 409 
Q 2525 409 2770 889 
Q 3016 1369 3016 2328 
Q 3016 3291 2770 3770 
Q 2525 4250 2034 4250 
z
M 2034 4750 
Q 2819 4750 3233 4129 
Q 3647 3509 3647 2328 
Q 3647 1150 3233 529 
Q 2819 -91 2034 -91 
Q 1250 -91 836 529 
Q 422 1150 422 2328 
Q 422 3509 836 4129 
Q 1250 4750 2034 4750 
z
" transform="scale(0.015625)"/>
        <path id="DejaVuSans-2d" d="M 313 2009 
L 1997 2009 
L 1997 1497 
L 313 1497 
L 313 2009 
z
" transform="scale(0.015625)"/>
        <path id="DejaVuSans-36" d="M 2113 2584 
Q 1688 2584 1439 2293 
Q 1191 2003 1191 1497 
Q 1191 994 1439 701 
Q 1688 409 2113 409 
Q 2538 409 2786 701 
Q 3034 994 3034 1497 
Q 3034 2003 2786 2293 
Q 2538 2584 2113 2584 
z
M 3366 4563 
L 3366 3988 
Q 3128 4100 2886 4159 
Q 2644 4219 2406 4219 
Q 1781 4219 1451 3797 
Q 1122 3375 1075 2522 
Q 1259 2794 1537 2939 
Q 1816 3084 2150 3084 
Q 2853 3084 3261 2657 
Q 3669 2231 3669 1497 
Q 3669 778 3244 343 
Q 2819 -91 2113 -91 
Q 1303 -91 875 529 
Q 447 1150 447 2328 
Q 447 3434 972 4092 
Q 1497 4750 2381 4750 
Q 2619 4750 2861 4703 
Q 3103 4656 3366 4563 
z
" transform="scale(0.015625)"/>
        <path id="DejaVuSans-31" d="M 794 531 
L 1825 531 
L 1825 4091 
L 703 3866 
L 703 4441 
L 1819 4666 
L 2450 4666 
L 2450 531 
L 3481 531 
L 3481 0 
L 794 0 
L 794 531 
z
" transform="scale(0.015625)"/>
        <path id="DejaVuSans-38" d="M 2034 2216 
Q 1584 2216 1326 1975 
Q 1069 1734 1069 1313 
Q 1069 891 1326 650 
Q 1584 409 2034 409 
Q 2484 409 2743 651 
Q 3003 894 3003 1313 
Q 3003 1734 2745 1975 
Q 2488 2216 2034 2216 
z
M 1403 2484 
Q 997 2584 770 2862 
Q 544 3141 544 3541 
Q 544 4100 942 4425 
Q 1341 4750 2034 4750 
Q 2731 4750 3128 4425 
Q 3525 4100 3525 3541 
Q 3525 3141 3298 2862 
Q 3072 2584 2669 2484 
Q 3125 2378 3379 2068 
Q 3634 1759 3634 1313 
Q 3634 634 3220 271 
Q 2806 -91 2034 -91 
Q 1263 -91 848 271 
Q 434 634 434 1313 
Q 434 1759 690 2068 
Q 947 2378 1403 2484 
z
M 1172 3481 
Q 1172 3119 1398 2916 
Q 1625 2713 2034 2713 
Q 2441 2713 2670 2916 
Q 2900 3119 2900 3481 
Q 2900 3844 2670 4047 
Q 2441 4250 2034 4250 
Q 1625 4250 1398 4047 
Q 1172 3844 1172 3481 
z
" transform="scale(0.015625)"/>
       </defs>
       <use xlink:href="#DejaVuSans-32"/>
       <use xlink:href="#DejaVuSans-30" x="63.623047"/>
       <use xlink:href="#DejaVuSans-32" x="127.246094"/>
       <use xlink:href="#DejaVuSans-30" x="190.869141"/>
       <use xlink:href="#DejaVuSans-2d" x="254.492188"/>
       <use xlink:href="#DejaVuSans-30" x="290.576172"/>
       <use xlink:href="#DejaVuSans-36" x="354.199219"/>
       <use xlink:href="#DejaVuSans-2d" x="417.822266"/>
       <use xlink:href="#DejaVuSans-31" x="453.90625"/>
       <use xlink:href="#DejaVuSans-38" x="517.529297"/>
      </g>
     </g>
    </g>
    <g id="xtick_2">
     <g id="line2d_2">
      <g>
       <use xlink:href="#m5df939944c" x="187.624709" y="128.16" style="stroke: #000000; stroke-width: 0.8"/>
      </g>
     </g>
     <g id="text_2">
      <!-- 2021-03-15 -->
      <g transform="translate(158.566896 142.758438) scale(0.1 -0.1)">
       <defs>
        <path id="DejaVuSans-33" d="M 2597 2516 
Q 3050 2419 3304 2112 
Q 3559 1806 3559 1356 
Q 3559 666 3084 287 
Q 2609 -91 1734 -91 
Q 1441 -91 1130 -33 
Q 819 25 488 141 
L 488 750 
Q 750 597 1062 519 
Q 1375 441 1716 441 
Q 2309 441 2620 675 
Q 2931 909 2931 1356 
Q 2931 1769 2642 2001 
Q 2353 2234 1838 2234 
L 1294 2234 
L 1294 2753 
L 1863 2753 
Q 2328 2753 2575 2939 
Q 2822 3125 2822 3475 
Q 2822 3834 2567 4026 
Q 2313 4219 1838 4219 
Q 1578 4219 1281 4162 
Q 984 4106 628 3988 
L 628 4550 
Q 988 4650 1302 4700 
Q 1616 4750 1894 4750 
Q 2613 4750 3031 4423 
Q 3450 4097 3450 3541 
Q 3450 3153 3228 2886 
Q 3006 2619 2597 2516 
z
" transform="scale(0.015625)"/>
        <path id="DejaVuSans-35" d="M 691 4666 
L 3169 4666 
L 3169 4134 
L 1269 4134 
L 1269 2991 
Q 1406 3038 1543 3061 
Q 1681 3084 1819 3084 
Q 2600 3084 3056 2656 
Q 3513 2228 3513 1497 
Q 3513 744 3044 326 
Q 2575 -91 1722 -91 
Q 1428 -91 1123 -41 
Q 819 9 494 109 
L 494 744 
Q 775 591 1075 516 
Q 1375 441 1709 441 
Q 2250 441 2565 725 
Q 2881 1009 2881 1497 
Q 2881 1984 2565 2268 
Q 2250 2553 1709 2553 
Q 1456 2553 1204 2497 
Q 953 2441 691 2322 
L 691 4666 
z
" transform="scale(0.015625)"/>
       </defs>
       <use xlink:href="#DejaVuSans-32"/>
       <use xlink:href="#DejaVuSans-30" x="63.623047"/>
       <use xlink:href="#DejaVuSans-32" x="127.246094"/>
       <use xlink:href="#DejaVuSans-31" x="190.869141"/>
       <use xlink:href="#DejaVuSans-2d" x="254.492188"/>
       <use xlink:href="#DejaVuSans-30" x="290.576172"/>
       <use xlink:href="#DejaVuSans-33" x="354.199219"/>
       <use xlink:href="#DejaVuSans-2d" x="417.822266"/>
       <use xlink:href="#DejaVuSans-31" x="453.90625"/>
       <use xlink:href="#DejaVuSans-35" x="517.529297"/>
      </g>
     </g>
    </g>
    <g id="xtick_3">
     <g id="line2d_3">
      <g>
       <use xlink:href="#m5df939944c" x="259.885781" y="128.16" style="stroke: #000000; stroke-width: 0.8"/>
      </g>
     </g>
     <g id="text_3">
      <!-- 2021-10-17 -->
      <g transform="translate(230.827968 142.758438) scale(0.1 -0.1)">
       <defs>
        <path id="DejaVuSans-37" d="M 525 4666 
L 3525 4666 
L 3525 4397 
L 1831 0 
L 1172 0 
L 2766 4134 
L 525 4134 
L 525 4666 
z
" transform="scale(0.015625)"/>
       </defs>
       <use xlink:href="#DejaVuSans-32"/>
       <use xlink:href="#DejaVuSans-30" x="63.623047"/>
       <use xlink:href="#DejaVuSans-32" x="127.246094"/>
       <use xlink:href="#DejaVuSans-31" x="190.869141"/>
       <use xlink:href="#DejaVuSans-2d" x="254.492188"/>
       <use xlink:href="#DejaVuSans-31" x="290.576172"/>
       <use xlink:href="#DejaVuSans-30" x="354.199219"/>
       <use xlink:href="#DejaVuSans-2d" x="417.822266"/>
       <use xlink:href="#DejaVuSans-31" x="453.90625"/>
       <use xlink:href="#DejaVuSans-37" x="517.529297"/>
      </g>
     </g>
    </g>
    <g id="xtick_4">
     <g id="line2d_4">
      <g>
       <use xlink:href="#m5df939944c" x="332.146853" y="128.16" style="stroke: #000000; stroke-width: 0.8"/>
      </g>
     </g>
     <g id="text_4">
      <!-- 2022-05-15 -->
      <g transform="translate(303.089041 142.758438) scale(0.1 -0.1)">
       <use xlink:href="#DejaVuSans-32"/>
       <use xlink:href="#DejaVuSans-30" x="63.623047"/>
       <use xlink:href="#DejaVuSans-32" x="127.246094"/>
       <use xlink:href="#DejaVuSans-32" x="190.869141"/>
       <use xlink:href="#DejaVuSans-2d" x="254.492188"/>
       <use xlink:href="#DejaVuSans-30" x="290.576172"/>
       <use xlink:href="#DejaVuSans-35" x="354.199219"/>
       <use xlink:href="#DejaVuSans-2d" x="417.822266"/>
       <use xlink:href="#DejaVuSans-31" x="453.90625"/>
       <use xlink:href="#DejaVuSans-35" x="517.529297"/>
      </g>
     </g>
    </g>
    <g id="xtick_5">
     <g id="line2d_5">
      <g>
       <use xlink:href="#m5df939944c" x="404.407925" y="128.16" style="stroke: #000000; stroke-width: 0.8"/>
      </g>
     </g>
     <g id="text_5">
      <!-- 2022-12-10 -->
      <g transform="translate(375.350113 142.758438) scale(0.1 -0.1)">
       <use xlink:href="#DejaVuSans-32"/>
       <use xlink:href="#DejaVuSans-30" x="63.623047"/>
       <use xlink:href="#DejaVuSans-32" x="127.246094"/>
       <use xlink:href="#DejaVuSans-32" x="190.869141"/>
       <use xlink:href="#DejaVuSans-2d" x="254.492188"/>
       <use xlink:href="#DejaVuSans-31" x="290.576172"/>
       <use xlink:href="#DejaVuSans-32" x="354.199219"/>
       <use xlink:href="#DejaVuSans-2d" x="417.822266"/>
       <use xlink:href="#DejaVuSans-31" x="453.90625"/>
       <use xlink:href="#DejaVuSans-30" x="517.529297"/>
      </g>
     </g>
    </g>
    <g id="xtick_6">
     <g id="line2d_6">
      <g>
       <use xlink:href="#m5df939944c" x="476.668998" y="128.16" style="stroke: #000000; stroke-width: 0.8"/>
      </g>
     </g>
     <g id="text_6">
      <!-- 2023-07-14 -->
      <g transform="translate(447.611185 142.758438) scale(0.1 -0.1)">
       <defs>
        <path id="DejaVuSans-34" d="M 2419 4116 
L 825 1625 
L 2419 1625 
L 2419 4116 
z
M 2253 4666 
L 3047 4666 
L 3047 1625 
L 3713 1625 
L 3713 1100 
L 3047 1100 
L 3047 0 
L 2419 0 
L 2419 1100 
L 313 1100 
L 313 1709 
L 2253 4666 
z
" transform="scale(0.015625)"/>
       </defs>
       <use xlink:href="#DejaVuSans-32"/>
       <use xlink:href="#DejaVuSans-30" x="63.623047"/>
       <use xlink:href="#DejaVuSans-32" x="127.246094"/>
       <use xlink:href="#DejaVuSans-33" x="190.869141"/>
       <use xlink:href="#DejaVuSans-2d" x="254.492188"/>
       <use xlink:href="#DejaVuSans-30" x="290.576172"/>
       <use xlink:href="#DejaVuSans-37" x="354.199219"/>
       <use xlink:href="#DejaVuSans-2d" x="417.822266"/>
       <use xlink:href="#DejaVuSans-31" x="453.90625"/>
       <use xlink:href="#DejaVuSans-34" x="517.529297"/>
      </g>
     </g>
    </g>
    <g id="xtick_7">
     <g id="line2d_7">
      <g>
       <use xlink:href="#m5df939944c" x="548.93007" y="128.16" style="stroke: #000000; stroke-width: 0.8"/>
      </g>
     </g>
     <g id="text_7">
      <!-- 2024-02-07 -->
      <g transform="translate(519.872257 142.758438) scale(0.1 -0.1)">
       <use xlink:href="#DejaVuSans-32"/>
       <use xlink:href="#DejaVuSans-30" x="63.623047"/>
       <use xlink:href="#DejaVuSans-32" x="127.246094"/>
       <use xlink:href="#DejaVuSans-34" x="190.869141"/>
       <use xlink:href="#DejaVuSans-2d" x="254.492188"/>
       <use xlink:href="#DejaVuSans-30" x="290.576172"/>
       <use xlink:href="#DejaVuSans-32" x="354.199219"/>
       <use xlink:href="#DejaVuSans-2d" x="417.822266"/>
       <use xlink:href="#DejaVuSans-30" x="453.90625"/>
       <use xlink:href="#DejaVuSans-37" x="517.529297"/>
      </g>
     </g>
    </g>
    <g id="xtick_8">
     <g id="line2d_8">
      <g>
       <use xlink:href="#m5df939944c" x="621.191142" y="128.16" style="stroke: #000000; stroke-width: 0.8"/>
      </g>
     </g>
     <g id="text_8">
      <!-- 2024-08-27 -->
      <g transform="translate(592.13333 142.758438) scale(0.1 -0.1)">
       <use xlink:href="#DejaVuSans-32"/>
       <use xlink:href="#DejaVuSans-30" x="63.623047"/>
       <use xlink:href="#DejaVuSans-32" x="127.246094"/>
       <use xlink:href="#DejaVuSans-34" x="190.869141"/>
       <use xlink:href="#DejaVuSans-2d" x="254.492188"/>
       <use xlink:href="#DejaVuSans-30" x="290.576172"/>
       <use xlink:href="#DejaVuSans-38" x="354.199219"/>
       <use xlink:href="#DejaVuSans-2d" x="417.822266"/>
       <use xlink:href="#DejaVuSans-32" x="453.90625"/>
       <use xlink:href="#DejaVuSans-37" x="517.529297"/>
      </g>
     </g>
    </g>
    <g id="text_9">
     <!-- date -->
     <g transform="translate(357.725 156.436563) scale(0.1 -0.1)">
      <defs>
       <path id="DejaVuSans-64" d="M 2906 2969 
L 2906 4863 
L 3481 4863 
L 3481 0 
L 2906 0 
L 2906 525 
Q 2725 213 2448 61 
Q 2172 -91 1784 -91 
Q 1150 -91 751 415 
Q 353 922 353 1747 
Q 353 2572 751 3078 
Q 1150 3584 1784 3584 
Q 2172 3584 2448 3432 
Q 2725 3281 2906 2969 
z
M 947 1747 
Q 947 1113 1208 752 
Q 1469 391 1925 391 
Q 2381 391 2643 752 
Q 2906 1113 2906 1747 
Q 2906 2381 2643 2742 
Q 2381 3103 1925 3103 
Q 1469 3103 1208 2742 
Q 947 2381 947 1747 
z
" transform="scale(0.015625)"/>
       <path id="DejaVuSans-61" d="M 2194 1759 
Q 1497 1759 1228 1600 
Q 959 1441 959 1056 
Q 959 750 1161 570 
Q 1363 391 1709 391 
Q 2188 391 2477 730 
Q 2766 1069 2766 1631 
L 2766 1759 
L 2194 1759 
z
M 3341 1997 
L 3341 0 
L 2766 0 
L 2766 531 
Q 2569 213 2275 61 
Q 1981 -91 1556 -91 
Q 1019 -91 701 211 
Q 384 513 384 1019 
Q 384 1609 779 1909 
Q 1175 2209 1959 2209 
L 2766 2209 
L 2766 2266 
Q 2766 2663 2505 2880 
Q 2244 3097 1772 3097 
Q 1472 3097 1187 3025 
Q 903 2953 641 2809 
L 641 3341 
Q 956 3463 1253 3523 
Q 1550 3584 1831 3584 
Q 2591 3584 2966 3190 
Q 3341 2797 3341 1997 
z
" transform="scale(0.015625)"/>
       <path id="DejaVuSans-74" d="M 1172 4494 
L 1172 3500 
L 2356 3500 
L 2356 3053 
L 1172 3053 
L 1172 1153 
Q 1172 725 1289 603 
Q 1406 481 1766 481 
L 2356 481 
L 2356 0 
L 1766 0 
Q 1100 0 847 248 
Q 594 497 594 1153 
L 594 3053 
L 172 3053 
L 172 3500 
L 594 3500 
L 594 4494 
L 1172 4494 
z
" transform="scale(0.015625)"/>
       <path id="DejaVuSans-65" d="M 3597 1894 
L 3597 1613 
L 953 1613 
Q 991 1019 1311 708 
Q 1631 397 2203 397 
Q 2534 397 2845 478 
Q 3156 559 3463 722 
L 3463 178 
Q 3153 47 2828 -22 
Q 2503 -91 2169 -91 
Q 1331 -91 842 396 
Q 353 884 353 1716 
Q 353 2575 817 3079 
Q 1281 3584 2069 3584 
Q 2775 3584 3186 3129 
Q 3597 2675 3597 1894 
z
M 3022 2063 
Q 3016 2534 2758 2815 
Q 2500 3097 2075 3097 
Q 1594 3097 1305 2825 
Q 1016 2553 972 2059 
L 3022 2063 
z
" transform="scale(0.015625)"/>
      </defs>
      <use xlink:href="#DejaVuSans-64"/>
      <use xlink:href="#DejaVuSans-61" x="63.476562"/>
      <use xlink:href="#DejaVuSans-74" x="124.755859"/>
      <use xlink:href="#DejaVuSans-65" x="163.964844"/>
     </g>
    </g>
   </g>
   <g id="matplotlib.axis_2">
    <g id="ytick_1">
     <g id="line2d_9">
      <defs>
       <path id="mb99365c95e" d="M 0 0 
L -3.5 0 
" style="stroke: #000000; stroke-width: 0.8"/>
      </defs>
      <g>
       <use xlink:href="#mb99365c95e" x="90" y="123.783158" style="stroke: #000000; stroke-width: 0.8"/>
      </g>
     </g>
     <g id="text_10">
      <!-- 0 -->
      <g transform="translate(76.6375 127.582377) scale(0.1 -0.1)">
       <use xlink:href="#DejaVuSans-30"/>
      </g>
     </g>
    </g>
    <g id="ytick_2">
     <g id="line2d_10">
      <g>
       <use xlink:href="#mb99365c95e" x="90" y="90.625263" style="stroke: #000000; stroke-width: 0.8"/>
      </g>
     </g>
     <g id="text_11">
      <!-- 50 -->
      <g transform="translate(70.275 94.424482) scale(0.1 -0.1)">
       <use xlink:href="#DejaVuSans-35"/>
       <use xlink:href="#DejaVuSans-30" x="63.623047"/>
      </g>
     </g>
    </g>
    <g id="ytick_3">
     <g id="line2d_11">
      <g>
       <use xlink:href="#mb99365c95e" x="90" y="57.467368" style="stroke: #000000; stroke-width: 0.8"/>
      </g>
     </g>
     <g id="text_12">
      <!-- 100 -->
      <g transform="translate(63.9125 61.266587) scale(0.1 -0.1)">
       <use xlink:href="#DejaVuSans-31"/>
       <use xlink:href="#DejaVuSans-30" x="63.623047"/>
       <use xlink:href="#DejaVuSans-30" x="127.246094"/>
      </g>
     </g>
    </g>
    <g id="ytick_4">
     <g id="line2d_12">
      <g>
       <use xlink:href="#mb99365c95e" x="90" y="24.309474" style="stroke: #000000; stroke-width: 0.8"/>
      </g>
     </g>
     <g id="text_13">
      <!-- 150 -->
      <g transform="translate(63.9125 28.108692) scale(0.1 -0.1)">
       <use xlink:href="#DejaVuSans-31"/>
       <use xlink:href="#DejaVuSans-35" x="63.623047"/>
       <use xlink:href="#DejaVuSans-30" x="127.246094"/>
      </g>
     </g>
    </g>
   </g>
   <g id="line2d_13">
    <path d="M 115.363636 109.193684 
L 116.086247 121.130526 
L 117.170163 123.12 
L 117.531469 121.793684 
L 117.892774 118.477895 
L 118.254079 122.456842 
L 118.615385 121.793684 
L 118.97669 122.456842 
L 119.337995 107.867368 
L 119.699301 119.141053 
L 120.060606 121.793684 
L 120.421911 118.477895 
L 120.783217 122.456842 
L 121.144522 119.804211 
L 121.505828 119.141053 
L 121.867133 123.12 
L 122.228438 121.793684 
L 122.589744 117.151579 
L 122.951049 118.477895 
L 123.312354 121.130526 
L 123.67366 121.793684 
L 124.034965 121.793684 
L 124.757576 123.12 
L 125.118881 117.814737 
L 125.480186 89.962105 
L 125.841492 119.804211 
L 126.202797 121.793684 
L 126.564103 121.793684 
L 126.925408 120.467368 
L 127.286713 122.456842 
L 127.648019 121.130526 
L 128.009324 123.12 
L 128.370629 121.793684 
L 128.731935 121.793684 
L 129.09324 123.12 
L 129.454545 122.456842 
L 129.815851 121.130526 
L 130.177156 121.130526 
L 130.538462 119.804211 
L 130.899767 123.12 
L 131.261072 123.12 
L 131.622378 122.456842 
L 131.983683 122.456842 
L 132.344988 123.12 
L 132.706294 123.12 
L 133.067599 113.172632 
L 133.428904 120.467368 
L 133.79021 119.141053 
L 134.151515 122.456842 
L 134.512821 120.467368 
L 134.874126 119.141053 
L 135.235431 120.467368 
L 135.596737 123.12 
L 135.958042 122.456842 
L 136.319347 120.467368 
L 136.680653 123.12 
L 137.403263 121.793684 
L 137.764569 119.141053 
L 138.487179 123.12 
L 138.848485 121.130526 
L 139.20979 120.467368 
L 139.571096 123.12 
L 139.932401 121.130526 
L 140.293706 123.12 
L 140.655012 122.456842 
L 141.016317 120.467368 
L 141.377622 123.12 
L 141.738928 122.456842 
L 142.100233 122.456842 
L 142.461538 123.12 
L 142.822844 120.467368 
L 143.184149 123.12 
L 143.545455 121.793684 
L 144.268065 121.793684 
L 144.629371 121.130526 
L 144.990676 119.804211 
L 145.351981 121.793684 
L 145.713287 119.804211 
L 146.074592 123.12 
L 146.797203 121.793684 
L 147.158508 120.467368 
L 147.519814 122.456842 
L 147.881119 123.12 
L 148.242424 122.456842 
L 148.60373 121.130526 
L 148.965035 121.793684 
L 149.32634 123.12 
L 149.687646 114.498947 
L 150.048951 123.12 
L 150.410256 121.793684 
L 150.771562 121.130526 
L 151.132867 123.12 
L 151.494172 121.130526 
L 151.855478 118.477895 
L 152.216783 121.793684 
L 152.578089 123.12 
L 152.939394 123.12 
L 153.300699 122.456842 
L 153.662005 123.12 
L 154.02331 123.12 
L 154.384615 122.456842 
L 154.745921 122.456842 
L 155.107226 121.793684 
L 155.468531 122.456842 
L 156.552448 120.467368 
L 156.913753 121.793684 
L 157.275058 121.793684 
L 157.997669 120.467368 
L 158.358974 122.456842 
L 158.72028 123.12 
L 159.081585 119.141053 
L 159.44289 122.456842 
L 159.804196 122.456842 
L 160.165501 118.477895 
L 160.526807 121.793684 
L 160.888112 121.793684 
L 161.249417 107.204211 
L 161.610723 120.467368 
L 161.972028 121.793684 
L 162.333333 119.141053 
L 162.694639 122.456842 
L 163.055944 119.804211 
L 163.417249 122.456842 
L 163.778555 118.477895 
L 164.13986 120.467368 
L 164.501166 123.12 
L 164.862471 122.456842 
L 165.223776 115.162105 
L 165.585082 120.467368 
L 165.946387 122.456842 
L 166.307692 123.12 
L 166.668998 123.12 
L 167.030303 118.477895 
L 167.391608 123.12 
L 167.752914 123.12 
L 168.114219 121.130526 
L 168.475524 123.12 
L 168.83683 123.12 
L 169.559441 120.467368 
L 169.920746 123.12 
L 170.282051 121.793684 
L 171.004662 123.12 
L 171.365967 120.467368 
L 171.727273 123.12 
L 172.088578 123.12 
L 172.449883 122.456842 
L 172.811189 123.12 
L 173.172494 123.12 
L 173.5338 120.467368 
L 174.25641 123.12 
L 174.979021 121.793684 
L 175.340326 121.793684 
L 175.701632 122.456842 
L 176.062937 121.130526 
L 176.424242 122.456842 
L 176.785548 123.12 
L 177.508159 123.12 
L 177.869464 120.467368 
L 178.230769 123.12 
L 178.592075 122.456842 
L 178.95338 123.12 
L 179.314685 120.467368 
L 179.675991 121.793684 
L 180.037296 122.456842 
L 180.398601 122.456842 
L 180.759907 121.130526 
L 181.121212 122.456842 
L 181.482517 121.793684 
L 181.843823 121.793684 
L 182.205128 122.456842 
L 182.566434 122.456842 
L 182.927739 123.12 
L 183.289044 119.141053 
L 183.65035 122.456842 
L 184.011655 122.456842 
L 184.37296 123.12 
L 184.734266 122.456842 
L 185.095571 123.12 
L 185.456876 123.12 
L 186.179487 121.793684 
L 186.540793 116.488421 
L 186.902098 103.888421 
L 187.263403 123.12 
L 187.624709 122.456842 
L 187.986014 119.141053 
L 188.347319 120.467368 
L 188.708625 119.804211 
L 189.06993 114.498947 
L 189.431235 123.12 
L 189.792541 122.456842 
L 190.153846 121.130526 
L 190.515152 119.141053 
L 190.876457 116.488421 
L 191.237762 108.530526 
L 191.599068 113.835789 
L 191.960373 122.456842 
L 192.321678 101.235789 
L 192.682984 113.172632 
L 193.044289 118.477895 
L 193.405594 114.498947 
L 193.7669 120.467368 
L 194.128205 114.498947 
L 194.48951 115.162105 
L 194.850816 113.835789 
L 195.212121 108.530526 
L 195.573427 121.793684 
L 195.934732 119.141053 
L 196.296037 121.793684 
L 196.657343 123.12 
L 197.018648 120.467368 
L 197.379953 123.12 
L 197.741259 121.793684 
L 198.102564 123.12 
L 198.463869 122.456842 
L 198.825175 114.498947 
L 199.18648 121.793684 
L 199.547786 119.804211 
L 199.909091 121.130526 
L 200.270396 120.467368 
L 200.631702 123.12 
L 200.993007 119.141053 
L 201.354312 120.467368 
L 201.715618 122.456842 
L 202.076923 119.804211 
L 202.438228 123.12 
L 202.799534 121.793684 
L 203.160839 123.12 
L 203.522145 121.130526 
L 203.88345 122.456842 
L 204.244755 121.130526 
L 204.606061 120.467368 
L 204.967366 122.456842 
L 205.689977 122.456842 
L 206.051282 121.130526 
L 206.412587 120.467368 
L 206.773893 109.193684 
L 207.135198 110.52 
L 207.496503 121.793684 
L 207.857809 122.456842 
L 208.219114 119.804211 
L 208.58042 120.467368 
L 208.941725 119.141053 
L 209.30303 122.456842 
L 209.664336 123.12 
L 210.025641 119.804211 
L 210.386946 119.141053 
L 210.748252 117.151579 
L 211.109557 122.456842 
L 211.470862 120.467368 
L 211.832168 122.456842 
L 212.193473 122.456842 
L 212.554779 123.12 
L 213.277389 120.467368 
L 214 123.12 
L 214.361305 121.793684 
L 214.722611 122.456842 
L 215.083916 119.141053 
L 215.445221 117.814737 
L 215.806527 119.141053 
L 216.167832 119.804211 
L 216.529138 118.477895 
L 216.890443 113.172632 
L 217.251748 119.804211 
L 217.613054 121.130526 
L 217.974359 120.467368 
L 218.335664 118.477895 
L 218.69697 113.835789 
L 219.058275 122.456842 
L 219.41958 121.793684 
L 219.780886 123.12 
L 220.142191 117.814737 
L 220.503497 118.477895 
L 220.864802 121.130526 
L 221.226107 117.151579 
L 221.587413 115.825263 
L 221.948718 122.456842 
L 222.310023 122.456842 
L 222.671329 117.151579 
L 223.032634 105.214737 
L 223.393939 114.498947 
L 223.755245 119.804211 
L 224.11655 120.467368 
L 224.477855 120.467368 
L 225.200466 121.793684 
L 225.561772 119.804211 
L 225.923077 119.804211 
L 226.284382 122.456842 
L 226.645688 122.456842 
L 227.006993 121.793684 
L 227.368298 122.456842 
L 227.729604 118.477895 
L 228.090909 118.477895 
L 228.452214 119.804211 
L 228.81352 117.814737 
L 229.174825 113.172632 
L 229.536131 118.477895 
L 229.897436 118.477895 
L 230.258741 121.793684 
L 230.620047 121.793684 
L 230.981352 119.141053 
L 231.342657 123.12 
L 231.703963 111.846316 
L 232.065268 110.52 
L 232.426573 119.804211 
L 232.787879 120.467368 
L 233.149184 114.498947 
L 233.871795 121.793684 
L 234.2331 120.467368 
L 234.594406 123.12 
L 234.955711 117.814737 
L 235.317016 109.193684 
L 235.678322 122.456842 
L 236.039627 121.793684 
L 236.762238 123.12 
L 237.123543 121.130526 
L 237.484848 110.52 
L 237.846154 118.477895 
L 238.207459 122.456842 
L 238.568765 122.456842 
L 238.93007 113.172632 
L 239.291375 121.793684 
L 239.652681 122.456842 
L 240.013986 121.793684 
L 241.459207 121.793684 
L 241.820513 120.467368 
L 242.181818 123.12 
L 242.543124 122.456842 
L 242.904429 122.456842 
L 243.265734 123.12 
L 243.62704 123.12 
L 243.988345 122.456842 
L 244.34965 123.12 
L 244.710956 119.804211 
L 245.072261 122.456842 
L 245.433566 120.467368 
L 245.794872 120.467368 
L 246.156177 119.141053 
L 246.517483 120.467368 
L 246.878788 123.12 
L 247.240093 121.793684 
L 247.962704 121.793684 
L 248.324009 123.12 
L 248.685315 122.456842 
L 249.04662 122.456842 
L 249.407925 121.130526 
L 249.769231 122.456842 
L 250.853147 122.456842 
L 251.214452 99.909474 
L 251.575758 120.467368 
L 251.937063 123.12 
L 252.298368 122.456842 
L 252.659674 121.130526 
L 253.020979 123.12 
L 253.382284 120.467368 
L 253.74359 122.456842 
L 254.104895 119.804211 
L 254.4662 119.141053 
L 254.827506 119.141053 
L 255.188811 118.477895 
L 255.550117 110.52 
L 255.911422 110.52 
L 256.272727 119.141053 
L 256.634033 121.130526 
L 256.995338 122.456842 
L 257.356643 112.509474 
L 257.717949 120.467368 
L 258.079254 122.456842 
L 258.440559 122.456842 
L 258.801865 121.793684 
L 259.16317 121.793684 
L 259.524476 122.456842 
L 259.885781 122.456842 
L 260.247086 120.467368 
L 260.608392 123.12 
L 260.969697 122.456842 
L 261.331002 120.467368 
L 261.692308 120.467368 
L 262.053613 121.793684 
L 262.776224 110.52 
L 263.137529 117.814737 
L 263.498834 117.151579 
L 263.86014 113.172632 
L 264.221445 115.825263 
L 264.944056 117.151579 
L 265.305361 116.488421 
L 265.666667 112.509474 
L 266.027972 114.498947 
L 266.389277 120.467368 
L 266.750583 121.130526 
L 267.111888 119.804211 
L 267.473193 119.804211 
L 267.834499 117.814737 
L 268.195804 119.141053 
L 268.55711 115.162105 
L 268.918415 118.477895 
L 269.27972 119.141053 
L 269.641026 116.488421 
L 270.002331 110.52 
L 270.363636 116.488421 
L 270.724942 119.141053 
L 271.447552 116.488421 
L 271.808858 119.141053 
L 272.170163 114.498947 
L 272.531469 116.488421 
L 272.892774 119.141053 
L 273.254079 114.498947 
L 273.615385 121.793684 
L 273.97669 120.467368 
L 274.337995 121.130526 
L 274.699301 118.477895 
L 275.060606 117.814737 
L 275.421911 107.204211 
L 275.783217 105.214737 
L 276.144522 117.151579 
L 276.505828 99.246316 
L 276.867133 121.793684 
L 277.228438 120.467368 
L 277.589744 121.793684 
L 277.951049 104.551579 
L 278.312354 105.214737 
L 279.034965 122.456842 
L 279.39627 120.467368 
L 279.757576 115.162105 
L 280.118881 120.467368 
L 280.480186 120.467368 
L 280.841492 105.214737 
L 281.202797 116.488421 
L 281.564103 118.477895 
L 282.286713 119.804211 
L 282.648019 119.804211 
L 283.009324 118.477895 
L 284.09324 122.456842 
L 284.454545 117.814737 
L 284.815851 122.456842 
L 285.177156 122.456842 
L 285.899767 121.130526 
L 286.261072 123.12 
L 286.622378 121.130526 
L 286.983683 119.804211 
L 287.344988 121.793684 
L 287.706294 122.456842 
L 288.067599 122.456842 
L 288.428904 117.814737 
L 288.79021 123.12 
L 289.151515 108.530526 
L 289.512821 121.793684 
L 289.874126 122.456842 
L 290.235431 120.467368 
L 290.596737 120.467368 
L 290.958042 121.130526 
L 291.319347 122.456842 
L 291.680653 118.477895 
L 292.041958 121.793684 
L 292.403263 120.467368 
L 292.764569 121.130526 
L 293.125874 107.867368 
L 293.487179 121.793684 
L 293.848485 119.804211 
L 294.20979 123.12 
L 294.571096 123.12 
L 294.932401 122.456842 
L 295.293706 117.814737 
L 295.655012 122.456842 
L 296.016317 118.477895 
L 296.377622 120.467368 
L 296.738928 123.12 
L 297.100233 120.467368 
L 297.822844 120.467368 
L 298.184149 118.477895 
L 298.545455 117.151579 
L 298.90676 121.130526 
L 299.268065 121.130526 
L 299.629371 120.467368 
L 299.990676 121.793684 
L 300.351981 121.793684 
L 300.713287 120.467368 
L 301.074592 118.477895 
L 301.435897 118.477895 
L 301.797203 119.804211 
L 302.158508 122.456842 
L 302.881119 122.456842 
L 303.242424 110.52 
L 303.60373 82.667368 
L 303.965035 95.930526 
L 304.32634 119.804211 
L 304.687646 121.793684 
L 305.048951 120.467368 
L 305.771562 111.183158 
L 306.132867 119.141053 
L 306.855478 93.277895 
L 307.216783 120.467368 
L 307.578089 92.614737 
L 307.939394 115.162105 
L 308.300699 122.456842 
L 308.662005 84.656842 
L 309.02331 105.877895 
L 309.384615 113.172632 
L 309.745921 80.677895 
L 310.107226 119.804211 
L 310.468531 120.467368 
L 310.829837 105.214737 
L 311.191142 114.498947 
L 311.552448 103.225263 
L 311.913753 114.498947 
L 312.275058 121.130526 
L 312.636364 66.088421 
L 312.997669 119.804211 
L 313.358974 120.467368 
L 313.72028 120.467368 
L 314.081585 115.825263 
L 314.44289 119.141053 
L 314.804196 109.856842 
L 315.165501 119.141053 
L 315.526807 121.130526 
L 315.888112 105.877895 
L 316.249417 105.877895 
L 316.610723 115.825263 
L 316.972028 103.888421 
L 317.333333 119.804211 
L 317.694639 120.467368 
L 318.055944 105.877895 
L 318.417249 123.12 
L 318.778555 121.793684 
L 319.13986 121.130526 
L 319.501166 119.804211 
L 319.862471 121.793684 
L 320.223776 121.130526 
L 320.585082 119.804211 
L 320.946387 116.488421 
L 321.307692 118.477895 
L 321.668998 112.509474 
L 322.391608 122.456842 
L 322.752914 123.12 
L 323.114219 117.814737 
L 323.83683 121.793684 
L 324.198135 123.12 
L 324.559441 119.804211 
L 324.920746 122.456842 
L 325.282051 119.804211 
L 325.643357 123.12 
L 326.365967 121.793684 
L 326.727273 123.12 
L 327.088578 123.12 
L 327.449883 121.793684 
L 328.172494 120.467368 
L 328.5338 120.467368 
L 328.895105 121.130526 
L 329.25641 121.130526 
L 329.617716 123.12 
L 329.979021 121.793684 
L 330.340326 100.572632 
L 330.701632 121.130526 
L 331.062937 122.456842 
L 331.785548 122.456842 
L 332.146853 119.141053 
L 332.508159 119.804211 
L 332.869464 112.509474 
L 333.230769 121.793684 
L 333.592075 118.477895 
L 333.95338 122.456842 
L 334.314685 123.12 
L 334.675991 121.130526 
L 335.037296 121.793684 
L 335.398601 118.477895 
L 335.759907 119.804211 
L 336.121212 121.793684 
L 336.482517 122.456842 
L 336.843823 121.793684 
L 337.205128 119.141053 
L 337.566434 120.467368 
L 337.927739 119.804211 
L 338.289044 121.130526 
L 338.65035 117.814737 
L 339.011655 119.141053 
L 339.37296 123.12 
L 339.734266 119.804211 
L 340.095571 120.467368 
L 340.456876 113.172632 
L 340.818182 122.456842 
L 341.179487 119.804211 
L 341.540793 119.804211 
L 341.902098 120.467368 
L 342.263403 113.835789 
L 342.624709 103.225263 
L 342.986014 120.467368 
L 343.347319 122.456842 
L 343.708625 118.477895 
L 344.06993 121.793684 
L 344.431235 121.130526 
L 344.792541 121.130526 
L 345.153846 123.12 
L 345.876457 121.793684 
L 346.237762 120.467368 
L 346.599068 122.456842 
L 346.960373 120.467368 
L 347.321678 122.456842 
L 347.682984 120.467368 
L 348.044289 123.12 
L 348.405594 120.467368 
L 348.7669 121.793684 
L 349.128205 121.793684 
L 349.48951 120.467368 
L 349.850816 123.12 
L 350.212121 120.467368 
L 350.573427 121.793684 
L 350.934732 117.814737 
L 351.296037 122.456842 
L 351.657343 117.151579 
L 352.018648 103.225263 
L 352.379953 122.456842 
L 352.741259 123.12 
L 353.102564 121.793684 
L 353.463869 118.477895 
L 353.825175 121.793684 
L 354.547786 123.12 
L 354.909091 117.814737 
L 355.270396 121.793684 
L 355.631702 121.130526 
L 356.354312 110.52 
L 356.715618 119.141053 
L 357.076923 121.793684 
L 357.438228 121.793684 
L 357.799534 118.477895 
L 358.160839 95.930526 
L 358.522145 112.509474 
L 358.88345 118.477895 
L 359.244755 121.130526 
L 359.606061 121.130526 
L 359.967366 101.898947 
L 360.328671 120.467368 
L 360.689977 122.456842 
L 361.412587 122.456842 
L 361.773893 121.130526 
L 362.135198 120.467368 
L 362.496503 121.793684 
L 362.857809 119.804211 
L 363.219114 121.130526 
L 363.58042 123.12 
L 363.941725 121.793684 
L 364.30303 119.141053 
L 364.664336 121.793684 
L 365.025641 118.477895 
L 365.386946 118.477895 
L 365.748252 119.804211 
L 366.109557 121.793684 
L 366.470862 109.856842 
L 366.832168 120.467368 
L 367.193473 112.509474 
L 367.554779 118.477895 
L 367.916084 119.804211 
L 368.277389 113.172632 
L 368.638695 121.793684 
L 369.361305 115.825263 
L 369.722611 120.467368 
L 370.083916 117.814737 
L 370.445221 112.509474 
L 370.806527 111.846316 
L 371.167832 119.804211 
L 371.529138 107.867368 
L 371.890443 113.172632 
L 372.251748 121.130526 
L 372.613054 111.846316 
L 372.974359 122.456842 
L 373.335664 121.793684 
L 373.69697 115.825263 
L 374.058275 117.814737 
L 374.41958 104.551579 
L 374.780886 115.825263 
L 375.142191 115.162105 
L 375.503497 115.162105 
L 375.864802 116.488421 
L 376.226107 119.804211 
L 376.587413 120.467368 
L 376.948718 118.477895 
L 377.310023 119.804211 
L 377.671329 114.498947 
L 378.032634 120.467368 
L 378.393939 116.488421 
L 378.755245 111.183158 
L 379.11655 116.488421 
L 379.477855 117.151579 
L 379.839161 116.488421 
L 380.200466 122.456842 
L 380.561772 118.477895 
L 380.923077 121.793684 
L 381.284382 121.130526 
L 381.645688 115.162105 
L 382.006993 114.498947 
L 382.368298 104.551579 
L 382.729604 114.498947 
L 383.090909 112.509474 
L 383.452214 119.141053 
L 383.81352 120.467368 
L 384.174825 119.804211 
L 384.536131 119.804211 
L 384.897436 122.456842 
L 385.258741 119.804211 
L 385.620047 111.183158 
L 385.981352 119.804211 
L 386.703963 119.804211 
L 387.065268 122.456842 
L 387.426573 123.12 
L 387.787879 122.456842 
L 388.149184 119.141053 
L 388.51049 109.193684 
L 388.871795 120.467368 
L 389.2331 120.467368 
L 389.594406 123.12 
L 389.955711 123.12 
L 390.317016 101.898947 
L 391.039627 118.477895 
L 391.400932 114.498947 
L 392.123543 122.456842 
L 392.484848 121.793684 
L 392.846154 122.456842 
L 393.207459 117.151579 
L 393.568765 122.456842 
L 393.93007 121.130526 
L 394.291375 121.793684 
L 394.652681 123.12 
L 395.013986 103.888421 
L 395.375291 120.467368 
L 395.736597 113.172632 
L 396.097902 113.172632 
L 396.459207 115.825263 
L 396.820513 121.130526 
L 397.181818 121.793684 
L 397.543124 117.151579 
L 397.904429 119.141053 
L 398.265734 118.477895 
L 398.62704 117.151579 
L 398.988345 122.456842 
L 399.34965 120.467368 
L 399.710956 121.793684 
L 400.433566 123.12 
L 401.878788 120.467368 
L 402.601399 107.867368 
L 402.962704 119.141053 
L 403.324009 117.151579 
L 403.685315 122.456842 
L 404.04662 117.151579 
L 404.407925 123.12 
L 404.769231 121.793684 
L 405.491841 120.467368 
L 405.853147 121.130526 
L 406.214452 120.467368 
L 406.575758 119.141053 
L 406.937063 109.856842 
L 407.298368 119.141053 
L 407.659674 118.477895 
L 408.020979 108.530526 
L 408.382284 122.456842 
L 408.74359 115.825263 
L 409.104895 122.456842 
L 409.4662 119.141053 
L 409.827506 121.793684 
L 410.188811 123.12 
L 410.550117 121.130526 
L 410.911422 122.456842 
L 411.272727 120.467368 
L 411.634033 123.12 
L 412.356643 123.12 
L 412.717949 120.467368 
L 413.079254 123.12 
L 413.440559 119.141053 
L 413.801865 123.12 
L 414.16317 122.456842 
L 414.524476 120.467368 
L 414.885781 109.856842 
L 415.247086 123.12 
L 415.608392 123.12 
L 415.969697 113.835789 
L 416.331002 114.498947 
L 416.692308 112.509474 
L 417.053613 115.162105 
L 417.414918 122.456842 
L 417.776224 113.835789 
L 418.137529 120.467368 
L 418.498834 121.793684 
L 418.86014 122.456842 
L 419.221445 122.456842 
L 419.582751 123.12 
L 419.944056 122.456842 
L 420.305361 119.804211 
L 420.666667 121.793684 
L 421.389277 123.12 
L 421.750583 123.12 
L 422.111888 118.477895 
L 422.473193 119.141053 
L 422.834499 121.793684 
L 423.55711 121.793684 
L 423.918415 121.130526 
L 424.27972 121.130526 
L 424.641026 117.151579 
L 425.002331 122.456842 
L 425.363636 107.867368 
L 425.724942 119.141053 
L 426.086247 122.456842 
L 426.447552 119.804211 
L 426.808858 120.467368 
L 427.531469 114.498947 
L 427.892774 119.141053 
L 428.254079 106.541053 
L 428.615385 123.12 
L 428.97669 118.477895 
L 429.699301 105.877895 
L 430.060606 112.509474 
L 430.421911 88.635789 
L 430.783217 117.151579 
L 431.144522 123.12 
L 431.505828 97.92 
L 431.867133 114.498947 
L 432.228438 111.183158 
L 432.589744 112.509474 
L 432.951049 118.477895 
L 433.312354 115.162105 
L 433.67366 122.456842 
L 434.034965 109.193684 
L 434.39627 113.835789 
L 434.757576 113.835789 
L 435.118881 109.856842 
L 435.480186 110.52 
L 435.841492 121.793684 
L 436.202797 123.12 
L 436.564103 96.593684 
L 436.925408 36.909474 
L 437.286713 105.214737 
L 437.648019 109.193684 
L 438.009324 108.530526 
L 438.370629 120.467368 
L 438.731935 121.130526 
L 439.454545 80.677895 
L 439.815851 112.509474 
L 440.177156 110.52 
L 440.538462 106.541053 
L 440.899767 120.467368 
L 441.261072 123.12 
L 441.622378 91.288421 
L 442.344988 95.267368 
L 443.067599 120.467368 
L 443.428904 121.793684 
L 443.79021 122.456842 
L 444.151515 118.477895 
L 444.512821 109.193684 
L 444.874126 114.498947 
L 445.235431 95.267368 
L 445.596737 97.256842 
L 445.958042 121.793684 
L 446.319347 120.467368 
L 446.680653 104.551579 
L 447.041958 116.488421 
L 447.403263 100.572632 
L 447.764569 117.151579 
L 448.125874 123.12 
L 448.487179 123.12 
L 448.848485 117.151579 
L 449.20979 107.867368 
L 449.571096 119.141053 
L 449.932401 119.141053 
L 450.293706 121.793684 
L 450.655012 123.12 
L 451.016317 123.12 
L 451.377622 121.793684 
L 451.738928 115.162105 
L 452.100233 121.130526 
L 452.461538 123.12 
L 452.822844 102.562105 
L 453.184149 118.477895 
L 453.545455 117.151579 
L 453.90676 99.909474 
L 454.268065 115.825263 
L 454.629371 122.456842 
L 454.990676 121.130526 
L 455.351981 123.12 
L 455.713287 121.793684 
L 456.074592 103.888421 
L 456.435897 101.898947 
L 456.797203 116.488421 
L 457.158508 111.846316 
L 457.519814 117.814737 
L 457.881119 109.193684 
L 458.242424 121.130526 
L 458.60373 115.825263 
L 458.965035 121.793684 
L 459.32634 121.130526 
L 459.687646 121.793684 
L 460.048951 123.12 
L 460.410256 107.867368 
L 460.771562 113.172632 
L 461.132867 121.130526 
L 461.494172 122.456842 
L 462.578089 122.456842 
L 462.939394 119.804211 
L 463.300699 98.583158 
L 463.662005 119.141053 
L 464.02331 113.172632 
L 464.384615 119.141053 
L 464.745921 120.467368 
L 465.107226 121.130526 
L 465.468531 119.804211 
L 465.829837 121.793684 
L 466.191142 122.456842 
L 466.552448 120.467368 
L 466.913753 122.456842 
L 467.275058 111.846316 
L 467.636364 119.804211 
L 467.997669 118.477895 
L 468.358974 121.130526 
L 468.72028 99.909474 
L 469.081585 120.467368 
L 469.44289 121.130526 
L 469.804196 119.804211 
L 470.165501 121.130526 
L 470.526807 119.804211 
L 470.888112 101.235789 
L 471.249417 117.151579 
L 471.610723 119.141053 
L 471.972028 120.467368 
L 472.333333 117.151579 
L 472.694639 120.467368 
L 473.055944 120.467368 
L 473.417249 121.130526 
L 473.778555 119.804211 
L 474.13986 119.804211 
L 474.501166 121.130526 
L 474.862471 119.804211 
L 475.223776 119.804211 
L 475.585082 120.467368 
L 475.946387 110.52 
L 476.307692 115.162105 
L 476.668998 122.456842 
L 477.030303 121.793684 
L 477.391608 120.467368 
L 477.752914 121.793684 
L 478.114219 120.467368 
L 478.475524 121.793684 
L 478.83683 117.151579 
L 479.198135 116.488421 
L 479.559441 111.846316 
L 479.920746 119.804211 
L 480.282051 121.130526 
L 481.004662 116.488421 
L 481.365967 119.141053 
L 481.727273 119.804211 
L 482.088578 121.793684 
L 482.449883 121.793684 
L 482.811189 117.151579 
L 483.172494 96.593684 
L 483.5338 118.477895 
L 483.895105 118.477895 
L 484.25641 116.488421 
L 484.617716 121.130526 
L 484.979021 121.130526 
L 485.340326 118.477895 
L 485.701632 121.130526 
L 486.062937 87.309474 
L 486.424242 121.130526 
L 486.785548 122.456842 
L 487.146853 121.793684 
L 487.508159 121.793684 
L 487.869464 105.877895 
L 488.230769 115.162105 
L 488.592075 120.467368 
L 488.95338 121.793684 
L 489.314685 122.456842 
L 489.675991 113.835789 
L 490.037296 119.804211 
L 490.398601 122.456842 
L 490.759907 109.193684 
L 491.121212 116.488421 
L 491.482517 119.804211 
L 491.843823 101.898947 
L 492.205128 122.456842 
L 492.566434 123.12 
L 492.927739 121.130526 
L 493.65035 122.456842 
L 494.011655 119.804211 
L 494.37296 119.141053 
L 494.734266 121.130526 
L 495.095571 122.456842 
L 495.456876 121.793684 
L 495.818182 122.456842 
L 496.179487 122.456842 
L 496.540793 123.12 
L 496.902098 123.12 
L 497.263403 120.467368 
L 497.624709 74.046316 
L 497.986014 112.509474 
L 498.347319 113.835789 
L 498.708625 117.151579 
L 499.06993 109.193684 
L 499.431235 113.835789 
L 499.792541 113.835789 
L 500.153846 107.204211 
L 500.515152 118.477895 
L 500.876457 107.867368 
L 501.237762 121.130526 
L 501.599068 117.814737 
L 501.960373 116.488421 
L 502.321678 121.130526 
L 502.682984 119.804211 
L 503.044289 117.814737 
L 503.405594 120.467368 
L 503.7669 121.130526 
L 504.128205 107.204211 
L 504.48951 118.477895 
L 504.850816 107.867368 
L 505.212121 117.814737 
L 505.573427 109.856842 
L 505.934732 118.477895 
L 506.296037 119.141053 
L 506.657343 110.52 
L 507.018648 111.183158 
L 507.379953 118.477895 
L 507.741259 121.130526 
L 508.102564 117.814737 
L 508.463869 118.477895 
L 508.825175 123.12 
L 509.18648 118.477895 
L 509.547786 100.572632 
L 509.909091 117.151579 
L 510.270396 119.141053 
L 510.631702 115.825263 
L 510.993007 118.477895 
L 511.354312 119.804211 
L 511.715618 110.52 
L 512.076923 119.141053 
L 512.438228 109.856842 
L 512.799534 117.151579 
L 513.160839 118.477895 
L 513.522145 109.856842 
L 513.88345 118.477895 
L 514.244755 99.246316 
L 514.606061 105.877895 
L 514.967366 117.151579 
L 515.689977 118.477895 
L 516.051282 99.246316 
L 516.412587 93.941053 
L 516.773893 112.509474 
L 517.135198 121.130526 
L 517.857809 119.804211 
L 518.219114 115.825263 
L 518.58042 113.172632 
L 518.941725 112.509474 
L 519.30303 47.52 
L 519.664336 93.941053 
L 520.025641 114.498947 
L 520.748252 120.467368 
L 521.109557 111.183158 
L 521.470862 108.530526 
L 521.832168 103.888421 
L 522.193473 118.477895 
L 522.554779 119.804211 
L 522.916084 117.814737 
L 523.277389 114.498947 
L 523.638695 113.172632 
L 524 115.825263 
L 524.722611 93.941053 
L 525.083916 121.130526 
L 525.445221 122.456842 
L 525.806527 114.498947 
L 526.167832 120.467368 
L 526.529138 109.856842 
L 526.890443 120.467368 
L 527.251748 116.488421 
L 527.613054 119.804211 
L 527.974359 121.793684 
L 528.335664 115.162105 
L 528.69697 121.793684 
L 529.058275 120.467368 
L 529.41958 117.151579 
L 530.142191 123.12 
L 530.503497 122.456842 
L 530.864802 113.835789 
L 531.226107 120.467368 
L 531.587413 117.814737 
L 531.948718 119.141053 
L 532.310023 117.151579 
L 532.671329 118.477895 
L 533.032634 106.541053 
L 533.393939 120.467368 
L 533.755245 116.488421 
L 534.11655 120.467368 
L 534.477855 121.130526 
L 534.839161 119.804211 
L 535.200466 107.867368 
L 535.561772 123.12 
L 535.923077 111.846316 
L 536.284382 123.12 
L 536.645688 112.509474 
L 537.006993 62.772632 
L 537.368298 107.867368 
L 537.729604 121.130526 
L 538.090909 112.509474 
L 538.452214 116.488421 
L 538.81352 117.814737 
L 539.174825 121.130526 
L 539.536131 119.804211 
L 539.897436 80.677895 
L 540.258741 118.477895 
L 540.620047 115.162105 
L 540.981352 119.141053 
L 541.342657 114.498947 
L 541.703963 122.456842 
L 542.065268 118.477895 
L 542.426573 115.825263 
L 542.787879 118.477895 
L 543.51049 114.498947 
L 543.871795 121.793684 
L 544.2331 123.12 
L 544.594406 122.456842 
L 544.955711 121.130526 
L 545.317016 96.593684 
L 545.678322 115.825263 
L 546.039627 118.477895 
L 546.400932 119.804211 
L 546.762238 92.614737 
L 547.123543 115.825263 
L 547.484848 98.583158 
L 547.846154 120.467368 
L 548.207459 115.162105 
L 548.568765 113.172632 
L 548.93007 119.804211 
L 549.291375 121.130526 
L 549.652681 91.288421 
L 550.013986 122.456842 
L 550.375291 101.898947 
L 550.736597 93.941053 
L 551.097902 122.456842 
L 551.459207 115.162105 
L 551.820513 117.814737 
L 552.543124 100.572632 
L 552.904429 119.141053 
L 553.265734 105.877895 
L 553.62704 115.162105 
L 553.988345 117.151579 
L 554.34965 99.246316 
L 554.710956 119.804211 
L 555.072261 121.130526 
L 556.156177 101.235789 
L 556.878788 121.130526 
L 557.240093 111.183158 
L 557.601399 122.456842 
L 557.962704 117.814737 
L 558.324009 107.204211 
L 558.685315 89.962105 
L 559.04662 95.930526 
L 559.407925 97.256842 
L 559.769231 121.130526 
L 560.130536 121.130526 
L 560.491841 91.951579 
L 560.853147 107.867368 
L 561.214452 109.856842 
L 561.575758 122.456842 
L 561.937063 119.141053 
L 562.298368 104.551579 
L 562.659674 103.888421 
L 563.020979 103.888421 
L 563.382284 114.498947 
L 563.74359 108.530526 
L 564.104895 116.488421 
L 564.4662 107.867368 
L 564.827506 119.804211 
L 565.188811 121.130526 
L 565.550117 121.793684 
L 565.911422 119.804211 
L 566.272727 115.162105 
L 566.634033 115.162105 
L 567.356643 120.467368 
L 567.717949 121.793684 
L 568.079254 115.825263 
L 568.440559 105.877895 
L 568.801865 119.804211 
L 569.16317 117.151579 
L 569.524476 98.583158 
L 569.885781 123.12 
L 570.247086 121.130526 
L 570.608392 107.867368 
L 570.969697 105.214737 
L 571.692308 120.467368 
L 572.053613 109.193684 
L 572.414918 122.456842 
L 572.776224 119.141053 
L 573.137529 105.214737 
L 573.498834 114.498947 
L 573.86014 64.762105 
L 574.221445 107.204211 
L 574.582751 97.256842 
L 574.944056 114.498947 
L 575.305361 118.477895 
L 575.666667 115.162105 
L 576.027972 101.898947 
L 576.389277 114.498947 
L 576.750583 81.341053 
L 577.111888 104.551579 
L 577.473193 114.498947 
L 577.834499 101.898947 
L 578.195804 97.256842 
L 578.55711 90.625263 
L 578.918415 119.141053 
L 579.27972 114.498947 
L 579.641026 107.204211 
L 580.002331 119.141053 
L 580.363636 113.172632 
L 580.724942 119.804211 
L 581.086247 75.372632 
L 581.447552 95.267368 
L 581.808858 95.267368 
L 582.170163 107.204211 
L 582.531469 123.12 
L 582.892774 122.456842 
L 583.254079 99.246316 
L 583.615385 117.814737 
L 583.97669 108.530526 
L 584.699301 116.488421 
L 585.421911 117.814737 
L 585.783217 92.614737 
L 586.144522 108.530526 
L 586.505828 96.593684 
L 586.867133 108.530526 
L 587.228438 94.604211 
L 587.589744 115.162105 
L 587.951049 113.172632 
L 588.312354 89.962105 
L 588.67366 115.825263 
L 589.034965 103.225263 
L 589.757576 91.951579 
L 590.118881 118.477895 
L 590.480186 119.141053 
L 590.841492 116.488421 
L 591.202797 119.141053 
L 591.564103 102.562105 
L 591.925408 22.32 
L 592.286713 89.298947 
L 592.648019 121.130526 
L 593.009324 119.141053 
L 593.370629 110.52 
L 593.731935 95.930526 
L 594.09324 115.162105 
L 594.454545 113.835789 
L 594.815851 95.267368 
L 595.177156 121.130526 
L 595.538462 97.92 
L 595.899767 117.151579 
L 596.261072 122.456842 
L 596.622378 123.12 
L 597.344988 102.562105 
L 597.706294 108.530526 
L 598.067599 96.593684 
L 598.428904 103.225263 
L 598.79021 78.025263 
L 599.151515 85.983158 
L 599.512821 114.498947 
L 599.874126 116.488421 
L 600.235431 121.793684 
L 600.596737 103.225263 
L 601.319347 83.330526 
L 601.680653 99.909474 
L 602.041958 76.698947 
L 602.403263 113.835789 
L 602.764569 114.498947 
L 603.125874 72.056842 
L 603.487179 90.625263 
L 603.848485 91.951579 
L 604.20979 101.235789 
L 604.571096 101.898947 
L 604.932401 121.130526 
L 605.293706 118.477895 
L 605.655012 99.909474 
L 606.016317 93.941053 
L 606.377622 83.330526 
L 606.738928 95.930526 
L 607.100233 92.614737 
L 607.461538 119.141053 
L 607.822844 120.467368 
L 608.184149 88.635789 
L 608.545455 70.730526 
L 608.90676 95.267368 
L 609.268065 90.625263 
L 609.629371 91.951579 
L 609.990676 102.562105 
L 610.351981 105.214737 
L 611.074592 82.667368 
L 611.435897 90.625263 
L 611.797203 40.225263 
L 612.158508 77.362105 
L 612.519814 71.393684 
L 612.881119 93.277895 
L 613.242424 57.467368 
L 613.60373 72.056842 
L 613.965035 60.12 
L 614.32634 82.004211 
L 614.687646 68.741053 
L 615.048951 77.362105 
L 615.410256 117.151579 
L 615.771562 87.309474 
L 616.132867 105.214737 
L 616.494172 48.846316 
L 617.216783 83.993684 
L 617.578089 91.288421 
L 617.939394 118.477895 
L 618.300699 65.425263 
L 618.662005 85.983158 
L 619.384615 62.109474 
L 620.107226 114.498947 
L 620.468531 114.498947 
L 620.829837 106.541053 
L 621.191142 111.846316 
L 621.552448 109.856842 
L 621.913753 70.067368 
L 622.275058 116.488421 
L 622.636364 118.477895 
L 622.636364 118.477895 
" clip-path="url(#p9503b87778)" style="fill: none; stroke: #1f77b4; stroke-width: 1.5; stroke-linecap: square"/>
   </g>
   <g id="patch_3">
    <path d="M 90 128.16 
L 90 17.28 
" style="fill: none; stroke: #000000; stroke-width: 0.8; stroke-linejoin: miter; stroke-linecap: square"/>
   </g>
   <g id="patch_4">
    <path d="M 648 128.16 
L 648 17.28 
" style="fill: none; stroke: #000000; stroke-width: 0.8; stroke-linejoin: miter; stroke-linecap: square"/>
   </g>
   <g id="patch_5">
    <path d="M 90 128.16 
L 648 128.16 
" style="fill: none; stroke: #000000; stroke-width: 0.8; stroke-linejoin: miter; stroke-linecap: square"/>
   </g>
   <g id="patch_6">
    <path d="M 90 17.28 
L 648 17.28 
" style="fill: none; stroke: #000000; stroke-width: 0.8; stroke-linejoin: miter; stroke-linecap: square"/>
   </g>
   <g id="legend_1">
    <g id="patch_7">
     <path d="M 97 39.958125 
L 264.190625 39.958125 
Q 266.190625 39.958125 266.190625 37.958125 
L 266.190625 24.28 
Q 266.190625 22.28 264.190625 22.28 
L 97 22.28 
Q 95 22.28 95 24.28 
L 95 37.958125 
Q 95 39.958125 97 39.958125 
z
" style="fill: #ffffff; opacity: 0.8; stroke: #cccccc; stroke-linejoin: miter"/>
    </g>
    <g id="line2d_14">
     <path d="M 99 30.378437 
L 109 30.378437 
L 119 30.378437 
" style="fill: none; stroke: #1f77b4; stroke-width: 1.5; stroke-linecap: square"/>
    </g>
    <g id="text_14">
     <!-- Number of PyPI Downloads -->
     <g transform="translate(127 33.878437) scale(0.1 -0.1)">
      <defs>
       <path id="DejaVuSans-4e" d="M 628 4666 
L 1478 4666 
L 3547 763 
L 3547 4666 
L 4159 4666 
L 4159 0 
L 3309 0 
L 1241 3903 
L 1241 0 
L 628 0 
L 628 4666 
z
" transform="scale(0.015625)"/>
       <path id="DejaVuSans-75" d="M 544 1381 
L 544 3500 
L 1119 3500 
L 1119 1403 
Q 1119 906 1312 657 
Q 1506 409 1894 409 
Q 2359 409 2629 706 
Q 2900 1003 2900 1516 
L 2900 3500 
L 3475 3500 
L 3475 0 
L 2900 0 
L 2900 538 
Q 2691 219 2414 64 
Q 2138 -91 1772 -91 
Q 1169 -91 856 284 
Q 544 659 544 1381 
z
M 1991 3584 
L 1991 3584 
z
" transform="scale(0.015625)"/>
       <path id="DejaVuSans-6d" d="M 3328 2828 
Q 3544 3216 3844 3400 
Q 4144 3584 4550 3584 
Q 5097 3584 5394 3201 
Q 5691 2819 5691 2113 
L 5691 0 
L 5113 0 
L 5113 2094 
Q 5113 2597 4934 2840 
Q 4756 3084 4391 3084 
Q 3944 3084 3684 2787 
Q 3425 2491 3425 1978 
L 3425 0 
L 2847 0 
L 2847 2094 
Q 2847 2600 2669 2842 
Q 2491 3084 2119 3084 
Q 1678 3084 1418 2786 
Q 1159 2488 1159 1978 
L 1159 0 
L 581 0 
L 581 3500 
L 1159 3500 
L 1159 2956 
Q 1356 3278 1631 3431 
Q 1906 3584 2284 3584 
Q 2666 3584 2933 3390 
Q 3200 3197 3328 2828 
z
" transform="scale(0.015625)"/>
       <path id="DejaVuSans-62" d="M 3116 1747 
Q 3116 2381 2855 2742 
Q 2594 3103 2138 3103 
Q 1681 3103 1420 2742 
Q 1159 2381 1159 1747 
Q 1159 1113 1420 752 
Q 1681 391 2138 391 
Q 2594 391 2855 752 
Q 3116 1113 3116 1747 
z
M 1159 2969 
Q 1341 3281 1617 3432 
Q 1894 3584 2278 3584 
Q 2916 3584 3314 3078 
Q 3713 2572 3713 1747 
Q 3713 922 3314 415 
Q 2916 -91 2278 -91 
Q 1894 -91 1617 61 
Q 1341 213 1159 525 
L 1159 0 
L 581 0 
L 581 4863 
L 1159 4863 
L 1159 2969 
z
" transform="scale(0.015625)"/>
       <path id="DejaVuSans-72" d="M 2631 2963 
Q 2534 3019 2420 3045 
Q 2306 3072 2169 3072 
Q 1681 3072 1420 2755 
Q 1159 2438 1159 1844 
L 1159 0 
L 581 0 
L 581 3500 
L 1159 3500 
L 1159 2956 
Q 1341 3275 1631 3429 
Q 1922 3584 2338 3584 
Q 2397 3584 2469 3576 
Q 2541 3569 2628 3553 
L 2631 2963 
z
" transform="scale(0.015625)"/>
       <path id="DejaVuSans-20" transform="scale(0.015625)"/>
       <path id="DejaVuSans-6f" d="M 1959 3097 
Q 1497 3097 1228 2736 
Q 959 2375 959 1747 
Q 959 1119 1226 758 
Q 1494 397 1959 397 
Q 2419 397 2687 759 
Q 2956 1122 2956 1747 
Q 2956 2369 2687 2733 
Q 2419 3097 1959 3097 
z
M 1959 3584 
Q 2709 3584 3137 3096 
Q 3566 2609 3566 1747 
Q 3566 888 3137 398 
Q 2709 -91 1959 -91 
Q 1206 -91 779 398 
Q 353 888 353 1747 
Q 353 2609 779 3096 
Q 1206 3584 1959 3584 
z
" transform="scale(0.015625)"/>
       <path id="DejaVuSans-66" d="M 2375 4863 
L 2375 4384 
L 1825 4384 
Q 1516 4384 1395 4259 
Q 1275 4134 1275 3809 
L 1275 3500 
L 2222 3500 
L 2222 3053 
L 1275 3053 
L 1275 0 
L 697 0 
L 697 3053 
L 147 3053 
L 147 3500 
L 697 3500 
L 697 3744 
Q 697 4328 969 4595 
Q 1241 4863 1831 4863 
L 2375 4863 
z
" transform="scale(0.015625)"/>
       <path id="DejaVuSans-50" d="M 1259 4147 
L 1259 2394 
L 2053 2394 
Q 2494 2394 2734 2622 
Q 2975 2850 2975 3272 
Q 2975 3691 2734 3919 
Q 2494 4147 2053 4147 
L 1259 4147 
z
M 628 4666 
L 2053 4666 
Q 2838 4666 3239 4311 
Q 3641 3956 3641 3272 
Q 3641 2581 3239 2228 
Q 2838 1875 2053 1875 
L 1259 1875 
L 1259 0 
L 628 0 
L 628 4666 
z
" transform="scale(0.015625)"/>
       <path id="DejaVuSans-79" d="M 2059 -325 
Q 1816 -950 1584 -1140 
Q 1353 -1331 966 -1331 
L 506 -1331 
L 506 -850 
L 844 -850 
Q 1081 -850 1212 -737 
Q 1344 -625 1503 -206 
L 1606 56 
L 191 3500 
L 800 3500 
L 1894 763 
L 2988 3500 
L 3597 3500 
L 2059 -325 
z
" transform="scale(0.015625)"/>
       <path id="DejaVuSans-49" d="M 628 4666 
L 1259 4666 
L 1259 0 
L 628 0 
L 628 4666 
z
" transform="scale(0.015625)"/>
       <path id="DejaVuSans-44" d="M 1259 4147 
L 1259 519 
L 2022 519 
Q 2988 519 3436 956 
Q 3884 1394 3884 2338 
Q 3884 3275 3436 3711 
Q 2988 4147 2022 4147 
L 1259 4147 
z
M 628 4666 
L 1925 4666 
Q 3281 4666 3915 4102 
Q 4550 3538 4550 2338 
Q 4550 1131 3912 565 
Q 3275 0 1925 0 
L 628 0 
L 628 4666 
z
" transform="scale(0.015625)"/>
       <path id="DejaVuSans-77" d="M 269 3500 
L 844 3500 
L 1563 769 
L 2278 3500 
L 2956 3500 
L 3675 769 
L 4391 3500 
L 4966 3500 
L 4050 0 
L 3372 0 
L 2619 2869 
L 1863 0 
L 1184 0 
L 269 3500 
z
" transform="scale(0.015625)"/>
       <path id="DejaVuSans-6e" d="M 3513 2113 
L 3513 0 
L 2938 0 
L 2938 2094 
Q 2938 2591 2744 2837 
Q 2550 3084 2163 3084 
Q 1697 3084 1428 2787 
Q 1159 2491 1159 1978 
L 1159 0 
L 581 0 
L 581 3500 
L 1159 3500 
L 1159 2956 
Q 1366 3272 1645 3428 
Q 1925 3584 2291 3584 
Q 2894 3584 3203 3211 
Q 3513 2838 3513 2113 
z
" transform="scale(0.015625)"/>
       <path id="DejaVuSans-6c" d="M 603 4863 
L 1178 4863 
L 1178 0 
L 603 0 
L 603 4863 
z
" transform="scale(0.015625)"/>
       <path id="DejaVuSans-73" d="M 2834 3397 
L 2834 2853 
Q 2591 2978 2328 3040 
Q 2066 3103 1784 3103 
Q 1356 3103 1142 2972 
Q 928 2841 928 2578 
Q 928 2378 1081 2264 
Q 1234 2150 1697 2047 
L 1894 2003 
Q 2506 1872 2764 1633 
Q 3022 1394 3022 966 
Q 3022 478 2636 193 
Q 2250 -91 1575 -91 
Q 1294 -91 989 -36 
Q 684 19 347 128 
L 347 722 
Q 666 556 975 473 
Q 1284 391 1588 391 
Q 1994 391 2212 530 
Q 2431 669 2431 922 
Q 2431 1156 2273 1281 
Q 2116 1406 1581 1522 
L 1381 1569 
Q 847 1681 609 1914 
Q 372 2147 372 2553 
Q 372 3047 722 3315 
Q 1072 3584 1716 3584 
Q 2034 3584 2315 3537 
Q 2597 3491 2834 3397 
z
" transform="scale(0.015625)"/>
      </defs>
      <use xlink:href="#DejaVuSans-4e"/>
      <use xlink:href="#DejaVuSans-75" x="74.804688"/>
      <use xlink:href="#DejaVuSans-6d" x="138.183594"/>
      <use xlink:href="#DejaVuSans-62" x="235.595703"/>
      <use xlink:href="#DejaVuSans-65" x="299.072266"/>
      <use xlink:href="#DejaVuSans-72" x="360.595703"/>
      <use xlink:href="#DejaVuSans-20" x="401.708984"/>
      <use xlink:href="#DejaVuSans-6f" x="433.496094"/>
      <use xlink:href="#DejaVuSans-66" x="494.677734"/>
      <use xlink:href="#DejaVuSans-20" x="529.882812"/>
      <use xlink:href="#DejaVuSans-50" x="561.669922"/>
      <use xlink:href="#DejaVuSans-79" x="621.972656"/>
      <use xlink:href="#DejaVuSans-50" x="681.152344"/>
      <use xlink:href="#DejaVuSans-49" x="741.455078"/>
      <use xlink:href="#DejaVuSans-20" x="770.947266"/>
      <use xlink:href="#DejaVuSans-44" x="802.734375"/>
      <use xlink:href="#DejaVuSans-6f" x="879.736328"/>
      <use xlink:href="#DejaVuSans-77" x="940.917969"/>
      <use xlink:href="#DejaVuSans-6e" x="1022.705078"/>
      <use xlink:href="#DejaVuSans-6c" x="1086.083984"/>
      <use xlink:href="#DejaVuSans-6f" x="1113.867188"/>
      <use xlink:href="#DejaVuSans-61" x="1175.048828"/>
      <use xlink:href="#DejaVuSans-64" x="1236.328125"/>
      <use xlink:href="#DejaVuSans-73" x="1299.804688"/>
     </g>
    </g>
   </g>
  </g>
 </g>
 <defs>
  <clipPath id="p9503b87778">
   <rect x="90" y="17.28" width="558" height="110.88"/>
  </clipPath>
 </defs>
</svg>
