<?xml version="1.0" encoding="utf-8" standalone="no"?>
<!DOCTYPE svg PUBLIC "-//W3C//DTD SVG 1.1//EN"
  "http://www.w3.org/Graphics/SVG/1.1/DTD/svg11.dtd">
<svg xmlns:xlink="http://www.w3.org/1999/xlink" width="720pt" height="144pt" viewBox="0 0 720 144" xmlns="http://www.w3.org/2000/svg" version="1.1">
 <metadata>
  <rdf:RDF xmlns:dc="http://purl.org/dc/elements/1.1/" xmlns:cc="http://creativecommons.org/ns#" xmlns:rdf="http://www.w3.org/1999/02/22-rdf-syntax-ns#">
   <cc:Work>
    <dc:type rdf:resource="http://purl.org/dc/dcmitype/StillImage"/>
    <dc:date>2023-05-01T20:57:14.901611</dc:date>
    <dc:format>image/svg+xml</dc:format>
    <dc:creator>
     <cc:Agent>
      <dc:title>Matplotlib v3.7.1, https://matplotlib.org/</dc:title>
     </cc:Agent>
    </dc:creator>
   </cc:Work>
  </rdf:RDF>
 </metadata>
 <defs>
  <style type="text/css">*{stroke-linejoin: round; stroke-linecap: butt}</style>
 </defs>
 <g id="figure_1">
  <g id="patch_1">
   <path d="M 0 144 
L 720 144 
L 720 0 
L 0 0 
z
" style="fill: #ffffff"/>
  </g>
  <g id="axes_1">
   <g id="patch_2">
    <path d="M 90 128.16 
L 648 128.16 
L 648 17.28 
L 90 17.28 
z
" style="fill: #ffffff"/>
   </g>
   <g id="matplotlib.axis_1">
    <g id="xtick_1">
     <g id="line2d_1">
      <defs>
       <path id="mbbf2de1292" d="M 0 0 
L 0 3.5 
" style="stroke: #000000; stroke-width: 0.8"/>
      </defs>
      <g>
       <use xlink:href="#mbbf2de1292" x="115.363636" y="128.16" style="stroke: #000000; stroke-width: 0.8"/>
      </g>
     </g>
     <g id="text_1">
      <!-- 2020-06-18 -->
      <g transform="translate(86.305824 142.758438) scale(0.1 -0.1)">
       <defs>
        <path id="DejaVuSans-32" d="M 1228 531 
L 3431 531 
L 3431 0 
L 469 0 
L 469 531 
Q 828 903 1448 1529 
Q 2069 2156 2228 2338 
Q 2531 2678 2651 2914 
Q 2772 3150 2772 3378 
Q 2772 3750 2511 3984 
Q 2250 4219 1831 4219 
Q 1534 4219 1204 4116 
Q 875 4013 500 3803 
L 500 4441 
Q 881 4594 1212 4672 
Q 1544 4750 1819 4750 
Q 2544 4750 2975 4387 
Q 3406 4025 3406 3419 
Q 3406 3131 3298 2873 
Q 3191 2616 2906 2266 
Q 2828 2175 2409 1742 
Q 1991 1309 1228 531 
z
" transform="scale(0.015625)"/>
        <path id="DejaVuSans-30" d="M 2034 4250 
Q 1547 4250 1301 3770 
Q 1056 3291 1056 2328 
Q 1056 1369 1301 889 
Q 1547 409 2034 409 
Q 2525 409 2770 889 
Q 3016 1369 3016 2328 
Q 3016 3291 2770 3770 
Q 2525 4250 2034 4250 
z
M 2034 4750 
Q 2819 4750 3233 4129 
Q 3647 3509 3647 2328 
Q 3647 1150 3233 529 
Q 2819 -91 2034 -91 
Q 1250 -91 836 529 
Q 422 1150 422 2328 
Q 422 3509 836 4129 
Q 1250 4750 2034 4750 
z
" transform="scale(0.015625)"/>
        <path id="DejaVuSans-2d" d="M 313 2009 
L 1997 2009 
L 1997 1497 
L 313 1497 
L 313 2009 
z
" transform="scale(0.015625)"/>
        <path id="DejaVuSans-36" d="M 2113 2584 
Q 1688 2584 1439 2293 
Q 1191 2003 1191 1497 
Q 1191 994 1439 701 
Q 1688 409 2113 409 
Q 2538 409 2786 701 
Q 3034 994 3034 1497 
Q 3034 2003 2786 2293 
Q 2538 2584 2113 2584 
z
M 3366 4563 
L 3366 3988 
Q 3128 4100 2886 4159 
Q 2644 4219 2406 4219 
Q 1781 4219 1451 3797 
Q 1122 3375 1075 2522 
Q 1259 2794 1537 2939 
Q 1816 3084 2150 3084 
Q 2853 3084 3261 2657 
Q 3669 2231 3669 1497 
Q 3669 778 3244 343 
Q 2819 -91 2113 -91 
Q 1303 -91 875 529 
Q 447 1150 447 2328 
Q 447 3434 972 4092 
Q 1497 4750 2381 4750 
Q 2619 4750 2861 4703 
Q 3103 4656 3366 4563 
z
" transform="scale(0.015625)"/>
        <path id="DejaVuSans-31" d="M 794 531 
L 1825 531 
L 1825 4091 
L 703 3866 
L 703 4441 
L 1819 4666 
L 2450 4666 
L 2450 531 
L 3481 531 
L 3481 0 
L 794 0 
L 794 531 
z
" transform="scale(0.015625)"/>
        <path id="DejaVuSans-38" d="M 2034 2216 
Q 1584 2216 1326 1975 
Q 1069 1734 1069 1313 
Q 1069 891 1326 650 
Q 1584 409 2034 409 
Q 2484 409 2743 651 
Q 3003 894 3003 1313 
Q 3003 1734 2745 1975 
Q 2488 2216 2034 2216 
z
M 1403 2484 
Q 997 2584 770 2862 
Q 544 3141 544 3541 
Q 544 4100 942 4425 
Q 1341 4750 2034 4750 
Q 2731 4750 3128 4425 
Q 3525 4100 3525 3541 
Q 3525 3141 3298 2862 
Q 3072 2584 2669 2484 
Q 3125 2378 3379 2068 
Q 3634 1759 3634 1313 
Q 3634 634 3220 271 
Q 2806 -91 2034 -91 
Q 1263 -91 848 271 
Q 434 634 434 1313 
Q 434 1759 690 2068 
Q 947 2378 1403 2484 
z
M 1172 3481 
Q 1172 3119 1398 2916 
Q 1625 2713 2034 2713 
Q 2441 2713 2670 2916 
Q 2900 3119 2900 3481 
Q 2900 3844 2670 4047 
Q 2441 4250 2034 4250 
Q 1625 4250 1398 4047 
Q 1172 3844 1172 3481 
z
" transform="scale(0.015625)"/>
       </defs>
       <use xlink:href="#DejaVuSans-32"/>
       <use xlink:href="#DejaVuSans-30" x="63.623047"/>
       <use xlink:href="#DejaVuSans-32" x="127.246094"/>
       <use xlink:href="#DejaVuSans-30" x="190.869141"/>
       <use xlink:href="#DejaVuSans-2d" x="254.492188"/>
       <use xlink:href="#DejaVuSans-30" x="290.576172"/>
       <use xlink:href="#DejaVuSans-36" x="354.199219"/>
       <use xlink:href="#DejaVuSans-2d" x="417.822266"/>
       <use xlink:href="#DejaVuSans-31" x="453.90625"/>
       <use xlink:href="#DejaVuSans-38" x="517.529297"/>
      </g>
     </g>
    </g>
    <g id="xtick_2">
     <g id="line2d_2">
      <g>
       <use xlink:href="#mbbf2de1292" x="224.220445" y="128.16" style="stroke: #000000; stroke-width: 0.8"/>
      </g>
     </g>
     <g id="text_2">
      <!-- 2021-03-13 -->
      <g transform="translate(195.162632 142.758438) scale(0.1 -0.1)">
       <defs>
        <path id="DejaVuSans-33" d="M 2597 2516 
Q 3050 2419 3304 2112 
Q 3559 1806 3559 1356 
Q 3559 666 3084 287 
Q 2609 -91 1734 -91 
Q 1441 -91 1130 -33 
Q 819 25 488 141 
L 488 750 
Q 750 597 1062 519 
Q 1375 441 1716 441 
Q 2309 441 2620 675 
Q 2931 909 2931 1356 
Q 2931 1769 2642 2001 
Q 2353 2234 1838 2234 
L 1294 2234 
L 1294 2753 
L 1863 2753 
Q 2328 2753 2575 2939 
Q 2822 3125 2822 3475 
Q 2822 3834 2567 4026 
Q 2313 4219 1838 4219 
Q 1578 4219 1281 4162 
Q 984 4106 628 3988 
L 628 4550 
Q 988 4650 1302 4700 
Q 1616 4750 1894 4750 
Q 2613 4750 3031 4423 
Q 3450 4097 3450 3541 
Q 3450 3153 3228 2886 
Q 3006 2619 2597 2516 
z
" transform="scale(0.015625)"/>
       </defs>
       <use xlink:href="#DejaVuSans-32"/>
       <use xlink:href="#DejaVuSans-30" x="63.623047"/>
       <use xlink:href="#DejaVuSans-32" x="127.246094"/>
       <use xlink:href="#DejaVuSans-31" x="190.869141"/>
       <use xlink:href="#DejaVuSans-2d" x="254.492188"/>
       <use xlink:href="#DejaVuSans-30" x="290.576172"/>
       <use xlink:href="#DejaVuSans-33" x="354.199219"/>
       <use xlink:href="#DejaVuSans-2d" x="417.822266"/>
       <use xlink:href="#DejaVuSans-31" x="453.90625"/>
       <use xlink:href="#DejaVuSans-33" x="517.529297"/>
      </g>
     </g>
    </g>
    <g id="xtick_3">
     <g id="line2d_3">
      <g>
       <use xlink:href="#mbbf2de1292" x="333.077253" y="128.16" style="stroke: #000000; stroke-width: 0.8"/>
      </g>
     </g>
     <g id="text_3">
      <!-- 2021-10-16 -->
      <g transform="translate(304.019441 142.758438) scale(0.1 -0.1)">
       <use xlink:href="#DejaVuSans-32"/>
       <use xlink:href="#DejaVuSans-30" x="63.623047"/>
       <use xlink:href="#DejaVuSans-32" x="127.246094"/>
       <use xlink:href="#DejaVuSans-31" x="190.869141"/>
       <use xlink:href="#DejaVuSans-2d" x="254.492188"/>
       <use xlink:href="#DejaVuSans-31" x="290.576172"/>
       <use xlink:href="#DejaVuSans-30" x="354.199219"/>
       <use xlink:href="#DejaVuSans-2d" x="417.822266"/>
       <use xlink:href="#DejaVuSans-31" x="453.90625"/>
       <use xlink:href="#DejaVuSans-36" x="517.529297"/>
      </g>
     </g>
    </g>
    <g id="xtick_4">
     <g id="line2d_4">
      <g>
       <use xlink:href="#mbbf2de1292" x="441.934062" y="128.16" style="stroke: #000000; stroke-width: 0.8"/>
      </g>
     </g>
     <g id="text_4">
      <!-- 2022-05-12 -->
      <g transform="translate(412.876249 142.758438) scale(0.1 -0.1)">
       <defs>
        <path id="DejaVuSans-35" d="M 691 4666 
L 3169 4666 
L 3169 4134 
L 1269 4134 
L 1269 2991 
Q 1406 3038 1543 3061 
Q 1681 3084 1819 3084 
Q 2600 3084 3056 2656 
Q 3513 2228 3513 1497 
Q 3513 744 3044 326 
Q 2575 -91 1722 -91 
Q 1428 -91 1123 -41 
Q 819 9 494 109 
L 494 744 
Q 775 591 1075 516 
Q 1375 441 1709 441 
Q 2250 441 2565 725 
Q 2881 1009 2881 1497 
Q 2881 1984 2565 2268 
Q 2250 2553 1709 2553 
Q 1456 2553 1204 2497 
Q 953 2441 691 2322 
L 691 4666 
z
" transform="scale(0.015625)"/>
       </defs>
       <use xlink:href="#DejaVuSans-32"/>
       <use xlink:href="#DejaVuSans-30" x="63.623047"/>
       <use xlink:href="#DejaVuSans-32" x="127.246094"/>
       <use xlink:href="#DejaVuSans-32" x="190.869141"/>
       <use xlink:href="#DejaVuSans-2d" x="254.492188"/>
       <use xlink:href="#DejaVuSans-30" x="290.576172"/>
       <use xlink:href="#DejaVuSans-35" x="354.199219"/>
       <use xlink:href="#DejaVuSans-2d" x="417.822266"/>
       <use xlink:href="#DejaVuSans-31" x="453.90625"/>
       <use xlink:href="#DejaVuSans-32" x="517.529297"/>
      </g>
     </g>
    </g>
    <g id="xtick_5">
     <g id="line2d_5">
      <g>
       <use xlink:href="#mbbf2de1292" x="550.79087" y="128.16" style="stroke: #000000; stroke-width: 0.8"/>
      </g>
     </g>
     <g id="text_5">
      <!-- 2022-12-07 -->
      <g transform="translate(521.733058 142.758438) scale(0.1 -0.1)">
       <defs>
        <path id="DejaVuSans-37" d="M 525 4666 
L 3525 4666 
L 3525 4397 
L 1831 0 
L 1172 0 
L 2766 4134 
L 525 4134 
L 525 4666 
z
" transform="scale(0.015625)"/>
       </defs>
       <use xlink:href="#DejaVuSans-32"/>
       <use xlink:href="#DejaVuSans-30" x="63.623047"/>
       <use xlink:href="#DejaVuSans-32" x="127.246094"/>
       <use xlink:href="#DejaVuSans-32" x="190.869141"/>
       <use xlink:href="#DejaVuSans-2d" x="254.492188"/>
       <use xlink:href="#DejaVuSans-31" x="290.576172"/>
       <use xlink:href="#DejaVuSans-32" x="354.199219"/>
       <use xlink:href="#DejaVuSans-2d" x="417.822266"/>
       <use xlink:href="#DejaVuSans-30" x="453.90625"/>
       <use xlink:href="#DejaVuSans-37" x="517.529297"/>
      </g>
     </g>
    </g>
    <g id="text_6">
     <!-- date -->
     <g transform="translate(357.725 156.436563) scale(0.1 -0.1)">
      <defs>
       <path id="DejaVuSans-64" d="M 2906 2969 
L 2906 4863 
L 3481 4863 
L 3481 0 
L 2906 0 
L 2906 525 
Q 2725 213 2448 61 
Q 2172 -91 1784 -91 
Q 1150 -91 751 415 
Q 353 922 353 1747 
Q 353 2572 751 3078 
Q 1150 3584 1784 3584 
Q 2172 3584 2448 3432 
Q 2725 3281 2906 2969 
z
M 947 1747 
Q 947 1113 1208 752 
Q 1469 391 1925 391 
Q 2381 391 2643 752 
Q 2906 1113 2906 1747 
Q 2906 2381 2643 2742 
Q 2381 3103 1925 3103 
Q 1469 3103 1208 2742 
Q 947 2381 947 1747 
z
" transform="scale(0.015625)"/>
       <path id="DejaVuSans-61" d="M 2194 1759 
Q 1497 1759 1228 1600 
Q 959 1441 959 1056 
Q 959 750 1161 570 
Q 1363 391 1709 391 
Q 2188 391 2477 730 
Q 2766 1069 2766 1631 
L 2766 1759 
L 2194 1759 
z
M 3341 1997 
L 3341 0 
L 2766 0 
L 2766 531 
Q 2569 213 2275 61 
Q 1981 -91 1556 -91 
Q 1019 -91 701 211 
Q 384 513 384 1019 
Q 384 1609 779 1909 
Q 1175 2209 1959 2209 
L 2766 2209 
L 2766 2266 
Q 2766 2663 2505 2880 
Q 2244 3097 1772 3097 
Q 1472 3097 1187 3025 
Q 903 2953 641 2809 
L 641 3341 
Q 956 3463 1253 3523 
Q 1550 3584 1831 3584 
Q 2591 3584 2966 3190 
Q 3341 2797 3341 1997 
z
" transform="scale(0.015625)"/>
       <path id="DejaVuSans-74" d="M 1172 4494 
L 1172 3500 
L 2356 3500 
L 2356 3053 
L 1172 3053 
L 1172 1153 
Q 1172 725 1289 603 
Q 1406 481 1766 481 
L 2356 481 
L 2356 0 
L 1766 0 
Q 1100 0 847 248 
Q 594 497 594 1153 
L 594 3053 
L 172 3053 
L 172 3500 
L 594 3500 
L 594 4494 
L 1172 4494 
z
" transform="scale(0.015625)"/>
       <path id="DejaVuSans-65" d="M 3597 1894 
L 3597 1613 
L 953 1613 
Q 991 1019 1311 708 
Q 1631 397 2203 397 
Q 2534 397 2845 478 
Q 3156 559 3463 722 
L 3463 178 
Q 3153 47 2828 -22 
Q 2503 -91 2169 -91 
Q 1331 -91 842 396 
Q 353 884 353 1716 
Q 353 2575 817 3079 
Q 1281 3584 2069 3584 
Q 2775 3584 3186 3129 
Q 3597 2675 3597 1894 
z
M 3022 2063 
Q 3016 2534 2758 2815 
Q 2500 3097 2075 3097 
Q 1594 3097 1305 2825 
Q 1016 2553 972 2059 
L 3022 2063 
z
" transform="scale(0.015625)"/>
      </defs>
      <use xlink:href="#DejaVuSans-64"/>
      <use xlink:href="#DejaVuSans-61" x="63.476562"/>
      <use xlink:href="#DejaVuSans-74" x="124.755859"/>
      <use xlink:href="#DejaVuSans-65" x="163.964844"/>
     </g>
    </g>
   </g>
   <g id="matplotlib.axis_2">
    <g id="ytick_1">
     <g id="line2d_6">
      <defs>
       <path id="mbb9ad98a52" d="M 0 0 
L -3.5 0 
" style="stroke: #000000; stroke-width: 0.8"/>
      </defs>
      <g>
       <use xlink:href="#mbb9ad98a52" x="90" y="123.895385" style="stroke: #000000; stroke-width: 0.8"/>
      </g>
     </g>
     <g id="text_7">
      <!-- 0 -->
      <g transform="translate(76.6375 127.694603) scale(0.1 -0.1)">
       <use xlink:href="#DejaVuSans-30"/>
      </g>
     </g>
    </g>
    <g id="ytick_2">
     <g id="line2d_7">
      <g>
       <use xlink:href="#mbb9ad98a52" x="90" y="85.126154" style="stroke: #000000; stroke-width: 0.8"/>
      </g>
     </g>
     <g id="text_8">
      <!-- 50 -->
      <g transform="translate(70.275 88.925373) scale(0.1 -0.1)">
       <use xlink:href="#DejaVuSans-35"/>
       <use xlink:href="#DejaVuSans-30" x="63.623047"/>
      </g>
     </g>
    </g>
    <g id="ytick_3">
     <g id="line2d_8">
      <g>
       <use xlink:href="#mbb9ad98a52" x="90" y="46.356923" style="stroke: #000000; stroke-width: 0.8"/>
      </g>
     </g>
     <g id="text_9">
      <!-- 100 -->
      <g transform="translate(63.9125 50.156142) scale(0.1 -0.1)">
       <use xlink:href="#DejaVuSans-31"/>
       <use xlink:href="#DejaVuSans-30" x="63.623047"/>
       <use xlink:href="#DejaVuSans-30" x="127.246094"/>
      </g>
     </g>
    </g>
   </g>
   <g id="line2d_9">
    <path d="M 115.363636 106.836923 
L 115.90792 113.04 
L 116.452204 120.793846 
L 118.085057 123.12 
L 118.629341 121.569231 
L 119.173625 117.692308 
L 119.717909 122.344615 
L 120.262193 121.569231 
L 120.806477 122.344615 
L 121.350761 105.286154 
L 121.895045 118.467692 
L 122.439329 121.569231 
L 122.983613 117.692308 
L 123.527897 122.344615 
L 124.072181 119.243077 
L 124.616465 118.467692 
L 125.160749 123.12 
L 125.705033 121.569231 
L 126.249317 116.141538 
L 126.793601 117.692308 
L 127.337885 120.793846 
L 127.882169 121.569231 
L 128.426453 121.569231 
L 129.515021 123.12 
L 130.059306 116.916923 
L 130.60359 84.350769 
L 131.147874 119.243077 
L 131.692158 121.569231 
L 132.236442 121.569231 
L 132.780726 120.018462 
L 133.32501 122.344615 
L 133.869294 120.793846 
L 134.413578 123.12 
L 134.957862 121.569231 
L 135.502146 121.569231 
L 136.04643 123.12 
L 136.590714 122.344615 
L 137.134998 120.793846 
L 137.679282 120.793846 
L 138.223566 119.243077 
L 138.76785 123.12 
L 139.312134 123.12 
L 139.856418 122.344615 
L 140.400702 122.344615 
L 140.944986 123.12 
L 141.48927 123.12 
L 142.033554 111.489231 
L 142.577838 120.018462 
L 143.122123 118.467692 
L 143.666407 122.344615 
L 144.210691 120.018462 
L 144.754975 118.467692 
L 145.299259 120.018462 
L 145.843543 123.12 
L 146.387827 122.344615 
L 146.932111 120.018462 
L 147.476395 123.12 
L 148.564963 121.569231 
L 149.109247 118.467692 
L 150.197815 123.12 
L 150.742099 120.793846 
L 151.286383 120.018462 
L 151.830667 123.12 
L 152.374951 120.793846 
L 152.919235 123.12 
L 153.463519 122.344615 
L 154.007803 120.018462 
L 154.552087 123.12 
L 155.096371 122.344615 
L 155.640655 122.344615 
L 156.18494 123.12 
L 156.729224 120.018462 
L 157.273508 123.12 
L 157.817792 121.569231 
L 158.90636 121.569231 
L 159.450644 120.793846 
L 159.994928 119.243077 
L 160.539212 121.569231 
L 161.083496 119.243077 
L 161.62778 123.12 
L 162.716348 121.569231 
L 163.260632 120.018462 
L 163.804916 122.344615 
L 164.3492 123.12 
L 164.893484 122.344615 
L 165.437768 120.793846 
L 165.982052 121.569231 
L 166.526336 123.12 
L 167.07062 113.04 
L 167.614904 123.12 
L 168.159188 121.569231 
L 168.703472 120.793846 
L 169.247757 123.12 
L 169.792041 120.793846 
L 170.336325 117.692308 
L 170.880609 121.569231 
L 171.424893 123.12 
L 171.969177 123.12 
L 172.513461 122.344615 
L 173.057745 123.12 
L 173.602029 123.12 
L 174.146313 122.344615 
L 174.690597 122.344615 
L 175.234881 121.569231 
L 175.779165 122.344615 
L 177.412017 120.018462 
L 177.956301 121.569231 
L 178.500585 121.569231 
L 179.589153 120.018462 
L 180.133437 122.344615 
L 180.677721 123.12 
L 181.222005 118.467692 
L 181.76629 122.344615 
L 182.310574 122.344615 
L 182.854858 117.692308 
L 183.399142 121.569231 
L 183.943426 121.569231 
L 184.48771 104.510769 
L 185.031994 120.018462 
L 185.576278 121.569231 
L 186.120562 118.467692 
L 186.664846 122.344615 
L 187.20913 119.243077 
L 187.753414 122.344615 
L 188.297698 117.692308 
L 188.841982 120.018462 
L 189.386266 123.12 
L 189.93055 122.344615 
L 190.474834 113.815385 
L 191.019118 120.018462 
L 191.563402 122.344615 
L 192.107686 123.12 
L 192.65197 123.12 
L 193.196254 117.692308 
L 193.740538 123.12 
L 194.284822 123.12 
L 194.829107 120.793846 
L 195.373391 123.12 
L 195.917675 123.12 
L 197.006243 120.018462 
L 197.550527 123.12 
L 198.094811 121.569231 
L 199.183379 123.12 
L 199.727663 120.018462 
L 200.271947 123.12 
L 200.816231 123.12 
L 201.360515 122.344615 
L 201.904799 123.12 
L 202.449083 123.12 
L 202.993367 120.018462 
L 204.081935 123.12 
L 205.170503 121.569231 
L 205.714787 121.569231 
L 206.259071 122.344615 
L 206.803355 120.793846 
L 207.347639 122.344615 
L 207.891924 123.12 
L 208.980492 123.12 
L 209.524776 120.018462 
L 210.06906 123.12 
L 210.613344 122.344615 
L 211.157628 123.12 
L 211.701912 120.018462 
L 212.246196 121.569231 
L 212.79048 122.344615 
L 213.334764 122.344615 
L 213.879048 120.793846 
L 214.423332 122.344615 
L 214.967616 121.569231 
L 215.5119 121.569231 
L 216.056184 122.344615 
L 216.600468 122.344615 
L 217.144752 123.12 
L 217.689036 118.467692 
L 218.23332 122.344615 
L 218.777604 122.344615 
L 219.321888 123.12 
L 219.866172 122.344615 
L 220.410456 123.12 
L 220.954741 123.12 
L 222.043309 121.569231 
L 222.587593 115.366154 
L 223.131877 117.692308 
L 223.676161 100.633846 
L 224.220445 123.12 
L 224.764729 122.344615 
L 225.309013 118.467692 
L 225.853297 120.018462 
L 226.397581 119.243077 
L 226.941865 113.04 
L 227.486149 123.12 
L 228.030433 122.344615 
L 228.574717 120.793846 
L 229.119001 118.467692 
L 229.663285 115.366154 
L 230.207569 106.061538 
L 230.751853 112.264615 
L 231.296137 122.344615 
L 231.840421 97.532308 
L 232.384705 111.489231 
L 232.928989 117.692308 
L 233.473274 113.04 
L 234.017558 120.018462 
L 234.561842 113.04 
L 235.106126 113.815385 
L 235.65041 112.264615 
L 236.194694 106.061538 
L 236.738978 121.569231 
L 237.283262 118.467692 
L 237.827546 121.569231 
L 238.37183 123.12 
L 238.916114 120.018462 
L 239.460398 123.12 
L 240.004682 121.569231 
L 240.548966 123.12 
L 241.09325 122.344615 
L 241.637534 113.04 
L 242.181818 121.569231 
L 242.726102 119.243077 
L 243.270386 120.793846 
L 243.81467 120.018462 
L 244.358954 123.12 
L 244.903238 118.467692 
L 245.447522 120.018462 
L 245.991806 122.344615 
L 246.536091 119.243077 
L 247.080375 123.12 
L 247.624659 121.569231 
L 248.168943 123.12 
L 248.713227 120.793846 
L 249.257511 122.344615 
L 249.801795 120.793846 
L 250.346079 120.018462 
L 250.890363 122.344615 
L 251.978931 122.344615 
L 252.523215 120.793846 
L 253.067499 120.018462 
L 253.611783 106.836923 
L 254.156067 108.387692 
L 254.700351 121.569231 
L 255.244635 122.344615 
L 255.788919 119.243077 
L 256.333203 120.018462 
L 256.877487 118.467692 
L 257.421771 122.344615 
L 257.966055 123.12 
L 258.510339 119.243077 
L 259.054623 118.467692 
L 259.598908 116.141538 
L 260.143192 122.344615 
L 260.687476 120.018462 
L 261.23176 122.344615 
L 261.776044 122.344615 
L 262.320328 123.12 
L 263.408896 120.018462 
L 264.497464 123.12 
L 265.041748 121.569231 
L 265.586032 122.344615 
L 266.130316 118.467692 
L 266.6746 116.916923 
L 267.218884 118.467692 
L 267.763168 119.243077 
L 268.307452 117.692308 
L 268.851736 111.489231 
L 269.39602 119.243077 
L 269.940304 120.793846 
L 270.484588 120.018462 
L 271.028872 117.692308 
L 271.573156 112.264615 
L 272.11744 122.344615 
L 272.661725 121.569231 
L 273.206009 123.12 
L 273.750293 116.916923 
L 274.294577 117.692308 
L 274.838861 120.793846 
L 275.383145 116.141538 
L 275.927429 114.590769 
L 276.471713 122.344615 
L 277.015997 122.344615 
L 277.560281 116.141538 
L 278.104565 102.184615 
L 278.648849 113.04 
L 279.193133 119.243077 
L 279.737417 120.018462 
L 280.281701 120.018462 
L 281.370269 121.569231 
L 281.914553 119.243077 
L 282.458837 119.243077 
L 283.003121 122.344615 
L 283.547405 122.344615 
L 284.091689 121.569231 
L 284.635973 122.344615 
L 285.180258 117.692308 
L 285.724542 117.692308 
L 286.268826 119.243077 
L 286.81311 116.916923 
L 287.357394 111.489231 
L 287.901678 117.692308 
L 288.445962 117.692308 
L 288.990246 121.569231 
L 289.53453 121.569231 
L 290.078814 118.467692 
L 290.623098 123.12 
L 291.167382 109.938462 
L 291.711666 108.387692 
L 292.25595 119.243077 
L 292.800234 120.018462 
L 293.344518 113.04 
L 294.433086 121.569231 
L 294.97737 120.018462 
L 295.521654 123.12 
L 296.065938 116.916923 
L 296.610222 106.836923 
L 297.154506 122.344615 
L 297.69879 121.569231 
L 298.787359 123.12 
L 299.331643 120.793846 
L 299.875927 108.387692 
L 300.420211 117.692308 
L 300.964495 122.344615 
L 301.508779 122.344615 
L 302.053063 111.489231 
L 302.597347 121.569231 
L 303.141631 122.344615 
L 303.685915 121.569231 
L 305.863051 121.569231 
L 306.407335 120.018462 
L 306.951619 123.12 
L 307.495903 122.344615 
L 308.040187 122.344615 
L 308.584471 123.12 
L 309.128755 123.12 
L 309.673039 122.344615 
L 310.217323 123.12 
L 310.761607 119.243077 
L 311.305892 122.344615 
L 311.850176 120.018462 
L 312.39446 120.018462 
L 312.938744 118.467692 
L 313.483028 120.018462 
L 314.027312 123.12 
L 314.571596 121.569231 
L 315.660164 121.569231 
L 316.204448 123.12 
L 316.748732 122.344615 
L 317.293016 122.344615 
L 317.8373 120.793846 
L 318.381584 122.344615 
L 320.014436 122.344615 
L 320.55872 95.981538 
L 321.103004 120.018462 
L 321.647288 123.12 
L 322.191572 122.344615 
L 322.735856 120.793846 
L 323.28014 123.12 
L 323.824425 120.018462 
L 324.368709 122.344615 
L 324.912993 119.243077 
L 325.457277 118.467692 
L 326.001561 118.467692 
L 326.545845 117.692308 
L 327.090129 108.387692 
L 327.634413 108.387692 
L 328.178697 118.467692 
L 328.722981 120.793846 
L 329.267265 122.344615 
L 329.811549 110.713846 
L 330.355833 120.018462 
L 330.900117 122.344615 
L 331.444401 122.344615 
L 331.988685 121.569231 
L 332.532969 121.569231 
L 333.077253 122.344615 
L 333.621537 122.344615 
L 334.165821 120.018462 
L 334.710105 123.12 
L 335.254389 122.344615 
L 335.798673 120.018462 
L 336.342957 120.018462 
L 336.887242 121.569231 
L 337.97581 108.387692 
L 338.520094 116.916923 
L 339.064378 116.141538 
L 339.608662 111.489231 
L 340.152946 114.590769 
L 341.241514 116.141538 
L 341.785798 115.366154 
L 342.330082 110.713846 
L 342.874366 113.04 
L 343.41865 120.018462 
L 343.962934 120.793846 
L 344.507218 119.243077 
L 345.051502 119.243077 
L 345.595786 116.916923 
L 346.14007 118.467692 
L 346.684354 113.815385 
L 347.228638 117.692308 
L 347.772922 118.467692 
L 348.317206 115.366154 
L 348.86149 108.387692 
L 349.405774 115.366154 
L 349.950059 118.467692 
L 351.038627 115.366154 
L 351.582911 118.467692 
L 352.127195 113.04 
L 352.671479 115.366154 
L 353.760047 121.569231 
L 354.304331 118.467692 
L 354.848615 113.04 
L 355.392899 121.569231 
L 355.937183 120.018462 
L 356.481467 120.793846 
L 357.025751 117.692308 
L 357.570035 116.916923 
L 358.114319 104.510769 
L 358.658603 102.184615 
L 359.202887 116.141538 
L 359.747171 95.206154 
L 360.291455 121.569231 
L 360.835739 120.018462 
L 361.380023 121.569231 
L 361.924307 101.409231 
L 362.468591 102.184615 
L 363.55716 122.344615 
L 364.101444 120.018462 
L 364.645728 113.815385 
L 365.190012 120.018462 
L 365.734296 120.018462 
L 366.27858 102.184615 
L 366.822864 115.366154 
L 367.367148 117.692308 
L 368.455716 119.243077 
L 369 119.243077 
L 369.544284 117.692308 
L 371.177136 122.344615 
L 371.72142 116.916923 
L 372.265704 122.344615 
L 372.809988 122.344615 
L 373.898556 120.793846 
L 374.44284 123.12 
L 374.987124 120.793846 
L 375.531409 119.243077 
L 376.075693 121.569231 
L 376.619977 122.344615 
L 377.164261 122.344615 
L 377.708545 116.916923 
L 378.252829 123.12 
L 378.797113 106.061538 
L 379.341397 121.569231 
L 379.885681 122.344615 
L 380.429965 120.018462 
L 380.974249 120.018462 
L 381.518533 120.793846 
L 382.062817 122.344615 
L 382.607101 117.692308 
L 383.151385 121.569231 
L 383.695669 120.018462 
L 384.239953 120.793846 
L 384.784237 105.286154 
L 385.328521 121.569231 
L 385.872805 119.243077 
L 386.417089 123.12 
L 386.961373 123.12 
L 387.505657 122.344615 
L 388.049941 116.916923 
L 388.594226 122.344615 
L 389.13851 117.692308 
L 389.682794 120.018462 
L 390.227078 123.12 
L 390.771362 120.018462 
L 391.85993 120.018462 
L 392.404214 117.692308 
L 392.948498 116.141538 
L 393.492782 120.793846 
L 394.037066 120.793846 
L 394.58135 120.018462 
L 395.125634 121.569231 
L 395.669918 121.569231 
L 396.214202 120.018462 
L 396.758486 117.692308 
L 397.30277 117.692308 
L 397.847054 119.243077 
L 398.391338 122.344615 
L 399.479906 122.344615 
L 400.02419 108.387692 
L 400.568474 75.821538 
L 401.112758 91.329231 
L 401.657043 119.243077 
L 402.201327 121.569231 
L 402.745611 120.018462 
L 403.834179 109.163077 
L 404.378463 118.467692 
L 404.922747 105.286154 
L 405.467031 88.227692 
L 406.011315 120.018462 
L 406.555599 87.452308 
L 407.099883 113.815385 
L 407.644167 122.344615 
L 408.188451 78.147692 
L 408.732735 102.96 
L 409.277019 111.489231 
L 409.821303 73.495385 
L 410.365587 119.243077 
L 410.909871 120.018462 
L 411.454155 102.184615 
L 411.998439 113.04 
L 412.542723 99.858462 
L 413.087007 113.04 
L 413.631291 120.793846 
L 414.175575 56.436923 
L 414.71986 119.243077 
L 415.264144 120.018462 
L 415.808428 120.018462 
L 416.352712 114.590769 
L 416.896996 118.467692 
L 417.44128 107.612308 
L 417.985564 118.467692 
L 418.529848 120.793846 
L 419.074132 102.96 
L 419.618416 102.96 
L 420.1627 114.590769 
L 420.706984 100.633846 
L 421.251268 119.243077 
L 421.795552 120.018462 
L 422.339836 102.96 
L 422.88412 123.12 
L 423.428404 121.569231 
L 423.972688 120.793846 
L 424.516972 119.243077 
L 425.061256 121.569231 
L 425.60554 120.793846 
L 426.149824 119.243077 
L 426.694108 115.366154 
L 427.238393 117.692308 
L 427.782677 110.713846 
L 428.871245 122.344615 
L 429.415529 123.12 
L 429.959813 116.916923 
L 431.048381 121.569231 
L 431.592665 123.12 
L 432.136949 119.243077 
L 432.681233 122.344615 
L 433.225517 119.243077 
L 433.769801 123.12 
L 434.858369 121.569231 
L 435.402653 123.12 
L 435.946937 123.12 
L 436.491221 121.569231 
L 437.579789 120.018462 
L 438.124073 120.018462 
L 438.668357 120.793846 
L 439.212641 120.793846 
L 439.756925 123.12 
L 440.30121 121.569231 
L 440.845494 96.756923 
L 441.389778 120.793846 
L 441.934062 122.344615 
L 443.02263 122.344615 
L 443.566914 118.467692 
L 444.111198 119.243077 
L 444.655482 110.713846 
L 445.199766 121.569231 
L 445.74405 117.692308 
L 446.288334 122.344615 
L 446.832618 123.12 
L 447.376902 120.793846 
L 447.921186 121.569231 
L 448.46547 117.692308 
L 449.009754 119.243077 
L 449.554038 121.569231 
L 450.098322 122.344615 
L 450.642606 121.569231 
L 451.18689 118.467692 
L 451.731174 120.018462 
L 452.275458 119.243077 
L 452.819742 120.793846 
L 453.364027 116.916923 
L 453.908311 118.467692 
L 454.452595 123.12 
L 454.996879 119.243077 
L 455.541163 120.018462 
L 456.085447 111.489231 
L 456.629731 122.344615 
L 457.174015 119.243077 
L 457.718299 119.243077 
L 458.262583 120.018462 
L 458.806867 112.264615 
L 459.351151 99.858462 
L 459.895435 120.018462 
L 460.439719 122.344615 
L 460.984003 117.692308 
L 461.528287 121.569231 
L 462.072571 120.793846 
L 462.616855 120.793846 
L 463.161139 123.12 
L 464.249707 121.569231 
L 464.793991 120.018462 
L 465.338275 122.344615 
L 465.88256 120.018462 
L 466.426844 122.344615 
L 466.971128 120.018462 
L 467.515412 123.12 
L 468.059696 120.018462 
L 468.60398 121.569231 
L 469.148264 121.569231 
L 469.692548 120.018462 
L 470.236832 123.12 
L 470.781116 120.018462 
L 471.3254 121.569231 
L 471.869684 116.916923 
L 472.413968 122.344615 
L 472.958252 116.141538 
L 473.502536 99.858462 
L 474.04682 122.344615 
L 474.591104 123.12 
L 475.135388 121.569231 
L 475.679672 117.692308 
L 476.223956 121.569231 
L 477.312524 123.12 
L 477.856808 116.916923 
L 478.401092 121.569231 
L 478.945377 120.793846 
L 479.489661 113.815385 
L 480.033945 108.387692 
L 480.578229 118.467692 
L 481.122513 121.569231 
L 481.666797 121.569231 
L 482.211081 117.692308 
L 482.755365 91.329231 
L 483.299649 110.713846 
L 483.843933 117.692308 
L 484.388217 120.793846 
L 484.932501 120.793846 
L 485.476785 98.307692 
L 486.021069 120.018462 
L 486.565353 122.344615 
L 487.653921 122.344615 
L 488.198205 120.793846 
L 488.742489 120.018462 
L 489.286773 121.569231 
L 489.831057 119.243077 
L 490.375341 120.793846 
L 490.919625 123.12 
L 491.463909 121.569231 
L 492.008194 118.467692 
L 492.552478 121.569231 
L 493.096762 117.692308 
L 493.641046 117.692308 
L 494.18533 119.243077 
L 494.729614 121.569231 
L 495.273898 107.612308 
L 495.818182 120.018462 
L 496.362466 110.713846 
L 496.90675 117.692308 
L 497.451034 119.243077 
L 497.995318 111.489231 
L 498.539602 121.569231 
L 499.62817 114.590769 
L 500.172454 120.018462 
L 500.716738 116.916923 
L 501.261022 110.713846 
L 501.805306 109.938462 
L 502.34959 119.243077 
L 502.893874 105.286154 
L 503.438158 111.489231 
L 503.982442 120.793846 
L 504.526726 109.938462 
L 505.071011 122.344615 
L 505.615295 121.569231 
L 506.159579 114.590769 
L 506.703863 116.916923 
L 507.248147 101.409231 
L 507.792431 114.590769 
L 508.336715 113.815385 
L 508.880999 113.815385 
L 509.425283 115.366154 
L 509.969567 119.243077 
L 510.513851 120.018462 
L 511.058135 117.692308 
L 511.602419 119.243077 
L 512.146703 113.04 
L 512.690987 120.018462 
L 513.235271 115.366154 
L 513.779555 109.163077 
L 514.323839 115.366154 
L 514.868123 116.141538 
L 515.412407 115.366154 
L 515.956691 122.344615 
L 516.500975 117.692308 
L 517.045259 121.569231 
L 517.589544 120.793846 
L 518.133828 113.815385 
L 518.678112 113.04 
L 519.222396 101.409231 
L 519.76668 113.04 
L 520.310964 110.713846 
L 520.855248 118.467692 
L 521.399532 120.018462 
L 521.943816 119.243077 
L 522.4881 119.243077 
L 523.032384 122.344615 
L 523.576668 119.243077 
L 524.120952 109.163077 
L 524.665236 119.243077 
L 525.753804 119.243077 
L 526.298088 122.344615 
L 526.842372 123.12 
L 527.386656 122.344615 
L 527.93094 118.467692 
L 528.475224 106.836923 
L 529.019508 120.018462 
L 529.563792 120.018462 
L 530.108076 123.12 
L 530.652361 123.12 
L 531.196645 98.307692 
L 531.740929 106.836923 
L 532.285213 117.692308 
L 532.829497 113.04 
L 533.918065 122.344615 
L 534.462349 121.569231 
L 535.006633 122.344615 
L 535.550917 116.141538 
L 536.095201 122.344615 
L 536.639485 120.793846 
L 537.183769 121.569231 
L 537.728053 123.12 
L 538.272337 100.633846 
L 538.816621 120.018462 
L 539.360905 111.489231 
L 539.905189 111.489231 
L 540.449473 114.590769 
L 540.993757 120.793846 
L 541.538041 121.569231 
L 542.082325 116.141538 
L 542.626609 118.467692 
L 543.170893 117.692308 
L 543.715178 116.141538 
L 544.259462 122.344615 
L 544.803746 120.018462 
L 545.34803 121.569231 
L 546.436598 123.12 
L 548.613734 120.018462 
L 549.702302 105.286154 
L 550.246586 118.467692 
L 550.79087 116.141538 
L 551.335154 122.344615 
L 551.879438 116.141538 
L 552.423722 123.12 
L 552.968006 121.569231 
L 554.056574 120.018462 
L 554.600858 120.793846 
L 555.145142 120.018462 
L 555.689426 118.467692 
L 556.23371 107.612308 
L 556.777995 118.467692 
L 557.322279 117.692308 
L 557.866563 106.061538 
L 558.410847 122.344615 
L 558.955131 114.590769 
L 559.499415 122.344615 
L 560.043699 118.467692 
L 560.587983 121.569231 
L 561.132267 123.12 
L 561.676551 120.793846 
L 562.220835 122.344615 
L 562.765119 120.018462 
L 563.309403 123.12 
L 564.397971 123.12 
L 564.942255 120.018462 
L 565.486539 123.12 
L 566.030823 118.467692 
L 566.575107 123.12 
L 567.119391 122.344615 
L 567.663675 120.018462 
L 568.207959 107.612308 
L 568.752243 123.12 
L 569.296528 123.12 
L 569.840812 112.264615 
L 570.385096 113.04 
L 570.92938 110.713846 
L 571.473664 113.815385 
L 572.017948 122.344615 
L 572.562232 112.264615 
L 573.106516 120.018462 
L 573.6508 121.569231 
L 574.195084 122.344615 
L 574.739368 122.344615 
L 575.283652 123.12 
L 575.827936 122.344615 
L 576.37222 119.243077 
L 576.916504 121.569231 
L 578.005072 123.12 
L 578.549356 123.12 
L 579.09364 117.692308 
L 579.637924 118.467692 
L 580.182208 121.569231 
L 581.270776 121.569231 
L 581.81506 120.793846 
L 582.359345 120.793846 
L 582.903629 116.141538 
L 583.447913 122.344615 
L 583.992197 105.286154 
L 584.536481 118.467692 
L 585.080765 122.344615 
L 585.625049 119.243077 
L 586.169333 120.018462 
L 587.257901 113.04 
L 587.802185 118.467692 
L 588.346469 103.735385 
L 588.890753 123.12 
L 589.435037 117.692308 
L 590.523605 102.96 
L 591.067889 110.713846 
L 591.612173 82.8 
L 592.156457 116.141538 
L 592.700741 123.12 
L 593.245025 93.655385 
L 593.789309 113.04 
L 594.333593 109.163077 
L 594.877877 110.713846 
L 595.422162 117.692308 
L 595.966446 113.815385 
L 596.51073 122.344615 
L 597.055014 106.836923 
L 597.599298 112.264615 
L 598.143582 112.264615 
L 598.687866 107.612308 
L 599.23215 108.387692 
L 599.776434 121.569231 
L 600.320718 123.12 
L 600.865002 92.104615 
L 601.409286 22.32 
L 601.95357 102.184615 
L 602.497854 106.836923 
L 603.042138 106.061538 
L 603.586422 120.018462 
L 604.130706 120.793846 
L 604.67499 92.88 
L 605.219274 73.495385 
L 605.763558 110.713846 
L 606.307842 108.387692 
L 606.852126 103.735385 
L 607.39641 120.018462 
L 607.940694 123.12 
L 608.484979 85.901538 
L 609.573547 90.553846 
L 610.662115 120.018462 
L 611.206399 121.569231 
L 611.750683 122.344615 
L 612.294967 117.692308 
L 612.839251 106.836923 
L 613.383535 113.04 
L 613.927819 90.553846 
L 614.472103 92.88 
L 615.016387 121.569231 
L 615.560671 120.018462 
L 616.104955 101.409231 
L 616.649239 115.366154 
L 617.193523 96.756923 
L 617.737807 116.141538 
L 618.282091 123.12 
L 618.826375 123.12 
L 619.370659 116.141538 
L 619.914943 105.286154 
L 620.459227 118.467692 
L 621.003512 118.467692 
L 621.547796 121.569231 
L 622.09208 123.12 
L 622.636364 123.12 
L 622.636364 123.12 
" clip-path="url(#paa8c977469)" style="fill: none; stroke: #1f77b4; stroke-width: 1.5; stroke-linecap: square"/>
   </g>
   <g id="patch_3">
    <path d="M 90 128.16 
L 90 17.28 
" style="fill: none; stroke: #000000; stroke-width: 0.8; stroke-linejoin: miter; stroke-linecap: square"/>
   </g>
   <g id="patch_4">
    <path d="M 648 128.16 
L 648 17.28 
" style="fill: none; stroke: #000000; stroke-width: 0.8; stroke-linejoin: miter; stroke-linecap: square"/>
   </g>
   <g id="patch_5">
    <path d="M 90 128.16 
L 648 128.16 
" style="fill: none; stroke: #000000; stroke-width: 0.8; stroke-linejoin: miter; stroke-linecap: square"/>
   </g>
   <g id="patch_6">
    <path d="M 90 17.28 
L 648 17.28 
" style="fill: none; stroke: #000000; stroke-width: 0.8; stroke-linejoin: miter; stroke-linecap: square"/>
   </g>
   <g id="legend_1">
    <g id="patch_7">
     <path d="M 97 39.958125 
L 264.190625 39.958125 
Q 266.190625 39.958125 266.190625 37.958125 
L 266.190625 24.28 
Q 266.190625 22.28 264.190625 22.28 
L 97 22.28 
Q 95 22.28 95 24.28 
L 95 37.958125 
Q 95 39.958125 97 39.958125 
z
" style="fill: #ffffff; opacity: 0.8; stroke: #cccccc; stroke-linejoin: miter"/>
    </g>
    <g id="line2d_10">
     <path d="M 99 30.378437 
L 109 30.378437 
L 119 30.378437 
" style="fill: none; stroke: #1f77b4; stroke-width: 1.5; stroke-linecap: square"/>
    </g>
    <g id="text_10">
     <!-- Number of PyPI Downloads -->
     <g transform="translate(127 33.878437) scale(0.1 -0.1)">
      <defs>
       <path id="DejaVuSans-4e" d="M 628 4666 
L 1478 4666 
L 3547 763 
L 3547 4666 
L 4159 4666 
L 4159 0 
L 3309 0 
L 1241 3903 
L 1241 0 
L 628 0 
L 628 4666 
z
" transform="scale(0.015625)"/>
       <path id="DejaVuSans-75" d="M 544 1381 
L 544 3500 
L 1119 3500 
L 1119 1403 
Q 1119 906 1312 657 
Q 1506 409 1894 409 
Q 2359 409 2629 706 
Q 2900 1003 2900 1516 
L 2900 3500 
L 3475 3500 
L 3475 0 
L 2900 0 
L 2900 538 
Q 2691 219 2414 64 
Q 2138 -91 1772 -91 
Q 1169 -91 856 284 
Q 544 659 544 1381 
z
M 1991 3584 
L 1991 3584 
z
" transform="scale(0.015625)"/>
       <path id="DejaVuSans-6d" d="M 3328 2828 
Q 3544 3216 3844 3400 
Q 4144 3584 4550 3584 
Q 5097 3584 5394 3201 
Q 5691 2819 5691 2113 
L 5691 0 
L 5113 0 
L 5113 2094 
Q 5113 2597 4934 2840 
Q 4756 3084 4391 3084 
Q 3944 3084 3684 2787 
Q 3425 2491 3425 1978 
L 3425 0 
L 2847 0 
L 2847 2094 
Q 2847 2600 2669 2842 
Q 2491 3084 2119 3084 
Q 1678 3084 1418 2786 
Q 1159 2488 1159 1978 
L 1159 0 
L 581 0 
L 581 3500 
L 1159 3500 
L 1159 2956 
Q 1356 3278 1631 3431 
Q 1906 3584 2284 3584 
Q 2666 3584 2933 3390 
Q 3200 3197 3328 2828 
z
" transform="scale(0.015625)"/>
       <path id="DejaVuSans-62" d="M 3116 1747 
Q 3116 2381 2855 2742 
Q 2594 3103 2138 3103 
Q 1681 3103 1420 2742 
Q 1159 2381 1159 1747 
Q 1159 1113 1420 752 
Q 1681 391 2138 391 
Q 2594 391 2855 752 
Q 3116 1113 3116 1747 
z
M 1159 2969 
Q 1341 3281 1617 3432 
Q 1894 3584 2278 3584 
Q 2916 3584 3314 3078 
Q 3713 2572 3713 1747 
Q 3713 922 3314 415 
Q 2916 -91 2278 -91 
Q 1894 -91 1617 61 
Q 1341 213 1159 525 
L 1159 0 
L 581 0 
L 581 4863 
L 1159 4863 
L 1159 2969 
z
" transform="scale(0.015625)"/>
       <path id="DejaVuSans-72" d="M 2631 2963 
Q 2534 3019 2420 3045 
Q 2306 3072 2169 3072 
Q 1681 3072 1420 2755 
Q 1159 2438 1159 1844 
L 1159 0 
L 581 0 
L 581 3500 
L 1159 3500 
L 1159 2956 
Q 1341 3275 1631 3429 
Q 1922 3584 2338 3584 
Q 2397 3584 2469 3576 
Q 2541 3569 2628 3553 
L 2631 2963 
z
" transform="scale(0.015625)"/>
       <path id="DejaVuSans-20" transform="scale(0.015625)"/>
       <path id="DejaVuSans-6f" d="M 1959 3097 
Q 1497 3097 1228 2736 
Q 959 2375 959 1747 
Q 959 1119 1226 758 
Q 1494 397 1959 397 
Q 2419 397 2687 759 
Q 2956 1122 2956 1747 
Q 2956 2369 2687 2733 
Q 2419 3097 1959 3097 
z
M 1959 3584 
Q 2709 3584 3137 3096 
Q 3566 2609 3566 1747 
Q 3566 888 3137 398 
Q 2709 -91 1959 -91 
Q 1206 -91 779 398 
Q 353 888 353 1747 
Q 353 2609 779 3096 
Q 1206 3584 1959 3584 
z
" transform="scale(0.015625)"/>
       <path id="DejaVuSans-66" d="M 2375 4863 
L 2375 4384 
L 1825 4384 
Q 1516 4384 1395 4259 
Q 1275 4134 1275 3809 
L 1275 3500 
L 2222 3500 
L 2222 3053 
L 1275 3053 
L 1275 0 
L 697 0 
L 697 3053 
L 147 3053 
L 147 3500 
L 697 3500 
L 697 3744 
Q 697 4328 969 4595 
Q 1241 4863 1831 4863 
L 2375 4863 
z
" transform="scale(0.015625)"/>
       <path id="DejaVuSans-50" d="M 1259 4147 
L 1259 2394 
L 2053 2394 
Q 2494 2394 2734 2622 
Q 2975 2850 2975 3272 
Q 2975 3691 2734 3919 
Q 2494 4147 2053 4147 
L 1259 4147 
z
M 628 4666 
L 2053 4666 
Q 2838 4666 3239 4311 
Q 3641 3956 3641 3272 
Q 3641 2581 3239 2228 
Q 2838 1875 2053 1875 
L 1259 1875 
L 1259 0 
L 628 0 
L 628 4666 
z
" transform="scale(0.015625)"/>
       <path id="DejaVuSans-79" d="M 2059 -325 
Q 1816 -950 1584 -1140 
Q 1353 -1331 966 -1331 
L 506 -1331 
L 506 -850 
L 844 -850 
Q 1081 -850 1212 -737 
Q 1344 -625 1503 -206 
L 1606 56 
L 191 3500 
L 800 3500 
L 1894 763 
L 2988 3500 
L 3597 3500 
L 2059 -325 
z
" transform="scale(0.015625)"/>
       <path id="DejaVuSans-49" d="M 628 4666 
L 1259 4666 
L 1259 0 
L 628 0 
L 628 4666 
z
" transform="scale(0.015625)"/>
       <path id="DejaVuSans-44" d="M 1259 4147 
L 1259 519 
L 2022 519 
Q 2988 519 3436 956 
Q 3884 1394 3884 2338 
Q 3884 3275 3436 3711 
Q 2988 4147 2022 4147 
L 1259 4147 
z
M 628 4666 
L 1925 4666 
Q 3281 4666 3915 4102 
Q 4550 3538 4550 2338 
Q 4550 1131 3912 565 
Q 3275 0 1925 0 
L 628 0 
L 628 4666 
z
" transform="scale(0.015625)"/>
       <path id="DejaVuSans-77" d="M 269 3500 
L 844 3500 
L 1563 769 
L 2278 3500 
L 2956 3500 
L 3675 769 
L 4391 3500 
L 4966 3500 
L 4050 0 
L 3372 0 
L 2619 2869 
L 1863 0 
L 1184 0 
L 269 3500 
z
" transform="scale(0.015625)"/>
       <path id="DejaVuSans-6e" d="M 3513 2113 
L 3513 0 
L 2938 0 
L 2938 2094 
Q 2938 2591 2744 2837 
Q 2550 3084 2163 3084 
Q 1697 3084 1428 2787 
Q 1159 2491 1159 1978 
L 1159 0 
L 581 0 
L 581 3500 
L 1159 3500 
L 1159 2956 
Q 1366 3272 1645 3428 
Q 1925 3584 2291 3584 
Q 2894 3584 3203 3211 
Q 3513 2838 3513 2113 
z
" transform="scale(0.015625)"/>
       <path id="DejaVuSans-6c" d="M 603 4863 
L 1178 4863 
L 1178 0 
L 603 0 
L 603 4863 
z
" transform="scale(0.015625)"/>
       <path id="DejaVuSans-73" d="M 2834 3397 
L 2834 2853 
Q 2591 2978 2328 3040 
Q 2066 3103 1784 3103 
Q 1356 3103 1142 2972 
Q 928 2841 928 2578 
Q 928 2378 1081 2264 
Q 1234 2150 1697 2047 
L 1894 2003 
Q 2506 1872 2764 1633 
Q 3022 1394 3022 966 
Q 3022 478 2636 193 
Q 2250 -91 1575 -91 
Q 1294 -91 989 -36 
Q 684 19 347 128 
L 347 722 
Q 666 556 975 473 
Q 1284 391 1588 391 
Q 1994 391 2212 530 
Q 2431 669 2431 922 
Q 2431 1156 2273 1281 
Q 2116 1406 1581 1522 
L 1381 1569 
Q 847 1681 609 1914 
Q 372 2147 372 2553 
Q 372 3047 722 3315 
Q 1072 3584 1716 3584 
Q 2034 3584 2315 3537 
Q 2597 3491 2834 3397 
z
" transform="scale(0.015625)"/>
      </defs>
      <use xlink:href="#DejaVuSans-4e"/>
      <use xlink:href="#DejaVuSans-75" x="74.804688"/>
      <use xlink:href="#DejaVuSans-6d" x="138.183594"/>
      <use xlink:href="#DejaVuSans-62" x="235.595703"/>
      <use xlink:href="#DejaVuSans-65" x="299.072266"/>
      <use xlink:href="#DejaVuSans-72" x="360.595703"/>
      <use xlink:href="#DejaVuSans-20" x="401.708984"/>
      <use xlink:href="#DejaVuSans-6f" x="433.496094"/>
      <use xlink:href="#DejaVuSans-66" x="494.677734"/>
      <use xlink:href="#DejaVuSans-20" x="529.882812"/>
      <use xlink:href="#DejaVuSans-50" x="561.669922"/>
      <use xlink:href="#DejaVuSans-79" x="621.972656"/>
      <use xlink:href="#DejaVuSans-50" x="681.152344"/>
      <use xlink:href="#DejaVuSans-49" x="741.455078"/>
      <use xlink:href="#DejaVuSans-20" x="770.947266"/>
      <use xlink:href="#DejaVuSans-44" x="802.734375"/>
      <use xlink:href="#DejaVuSans-6f" x="879.736328"/>
      <use xlink:href="#DejaVuSans-77" x="940.917969"/>
      <use xlink:href="#DejaVuSans-6e" x="1022.705078"/>
      <use xlink:href="#DejaVuSans-6c" x="1086.083984"/>
      <use xlink:href="#DejaVuSans-6f" x="1113.867188"/>
      <use xlink:href="#DejaVuSans-61" x="1175.048828"/>
      <use xlink:href="#DejaVuSans-64" x="1236.328125"/>
      <use xlink:href="#DejaVuSans-73" x="1299.804688"/>
     </g>
    </g>
   </g>
  </g>
 </g>
 <defs>
  <clipPath id="paa8c977469">
   <rect x="90" y="17.28" width="558" height="110.88"/>
  </clipPath>
 </defs>
</svg>
