<?xml version="1.0" encoding="utf-8" standalone="no"?>
<!DOCTYPE svg PUBLIC "-//W3C//DTD SVG 1.1//EN"
  "http://www.w3.org/Graphics/SVG/1.1/DTD/svg11.dtd">
<svg xmlns:xlink="http://www.w3.org/1999/xlink" width="720pt" height="144pt" viewBox="0 0 720 144" xmlns="http://www.w3.org/2000/svg" version="1.1">
 <metadata>
  <rdf:RDF xmlns:dc="http://purl.org/dc/elements/1.1/" xmlns:cc="http://creativecommons.org/ns#" xmlns:rdf="http://www.w3.org/1999/02/22-rdf-syntax-ns#">
   <cc:Work>
    <dc:type rdf:resource="http://purl.org/dc/dcmitype/StillImage"/>
    <dc:date>2024-08-01T20:56:57.394368</dc:date>
    <dc:format>image/svg+xml</dc:format>
    <dc:creator>
     <cc:Agent>
      <dc:title>Matplotlib v3.9.1, https://matplotlib.org/</dc:title>
     </cc:Agent>
    </dc:creator>
   </cc:Work>
  </rdf:RDF>
 </metadata>
 <defs>
  <style type="text/css">*{stroke-linejoin: round; stroke-linecap: butt}</style>
 </defs>
 <g id="figure_1">
  <g id="patch_1">
   <path d="M 0 144 
L 720 144 
L 720 0 
L 0 0 
z
" style="fill: #ffffff"/>
  </g>
  <g id="axes_1">
   <g id="patch_2">
    <path d="M 90 128.16 
L 648 128.16 
L 648 17.28 
L 90 17.28 
z
" style="fill: #ffffff"/>
   </g>
   <g id="matplotlib.axis_1">
    <g id="xtick_1">
     <g id="line2d_1">
      <defs>
       <path id="m4f459eafee" d="M 0 0 
L 0 3.5 
" style="stroke: #000000; stroke-width: 0.8"/>
      </defs>
      <g>
       <use xlink:href="#m4f459eafee" x="115.363636" y="128.16" style="stroke: #000000; stroke-width: 0.8"/>
      </g>
     </g>
     <g id="text_1">
      <!-- 2020-06-18 -->
      <g transform="translate(86.305824 142.758438) scale(0.1 -0.1)">
       <defs>
        <path id="DejaVuSans-32" d="M 1228 531 
L 3431 531 
L 3431 0 
L 469 0 
L 469 531 
Q 828 903 1448 1529 
Q 2069 2156 2228 2338 
Q 2531 2678 2651 2914 
Q 2772 3150 2772 3378 
Q 2772 3750 2511 3984 
Q 2250 4219 1831 4219 
Q 1534 4219 1204 4116 
Q 875 4013 500 3803 
L 500 4441 
Q 881 4594 1212 4672 
Q 1544 4750 1819 4750 
Q 2544 4750 2975 4387 
Q 3406 4025 3406 3419 
Q 3406 3131 3298 2873 
Q 3191 2616 2906 2266 
Q 2828 2175 2409 1742 
Q 1991 1309 1228 531 
z
" transform="scale(0.015625)"/>
        <path id="DejaVuSans-30" d="M 2034 4250 
Q 1547 4250 1301 3770 
Q 1056 3291 1056 2328 
Q 1056 1369 1301 889 
Q 1547 409 2034 409 
Q 2525 409 2770 889 
Q 3016 1369 3016 2328 
Q 3016 3291 2770 3770 
Q 2525 4250 2034 4250 
z
M 2034 4750 
Q 2819 4750 3233 4129 
Q 3647 3509 3647 2328 
Q 3647 1150 3233 529 
Q 2819 -91 2034 -91 
Q 1250 -91 836 529 
Q 422 1150 422 2328 
Q 422 3509 836 4129 
Q 1250 4750 2034 4750 
z
" transform="scale(0.015625)"/>
        <path id="DejaVuSans-2d" d="M 313 2009 
L 1997 2009 
L 1997 1497 
L 313 1497 
L 313 2009 
z
" transform="scale(0.015625)"/>
        <path id="DejaVuSans-36" d="M 2113 2584 
Q 1688 2584 1439 2293 
Q 1191 2003 1191 1497 
Q 1191 994 1439 701 
Q 1688 409 2113 409 
Q 2538 409 2786 701 
Q 3034 994 3034 1497 
Q 3034 2003 2786 2293 
Q 2538 2584 2113 2584 
z
M 3366 4563 
L 3366 3988 
Q 3128 4100 2886 4159 
Q 2644 4219 2406 4219 
Q 1781 4219 1451 3797 
Q 1122 3375 1075 2522 
Q 1259 2794 1537 2939 
Q 1816 3084 2150 3084 
Q 2853 3084 3261 2657 
Q 3669 2231 3669 1497 
Q 3669 778 3244 343 
Q 2819 -91 2113 -91 
Q 1303 -91 875 529 
Q 447 1150 447 2328 
Q 447 3434 972 4092 
Q 1497 4750 2381 4750 
Q 2619 4750 2861 4703 
Q 3103 4656 3366 4563 
z
" transform="scale(0.015625)"/>
        <path id="DejaVuSans-31" d="M 794 531 
L 1825 531 
L 1825 4091 
L 703 3866 
L 703 4441 
L 1819 4666 
L 2450 4666 
L 2450 531 
L 3481 531 
L 3481 0 
L 794 0 
L 794 531 
z
" transform="scale(0.015625)"/>
        <path id="DejaVuSans-38" d="M 2034 2216 
Q 1584 2216 1326 1975 
Q 1069 1734 1069 1313 
Q 1069 891 1326 650 
Q 1584 409 2034 409 
Q 2484 409 2743 651 
Q 3003 894 3003 1313 
Q 3003 1734 2745 1975 
Q 2488 2216 2034 2216 
z
M 1403 2484 
Q 997 2584 770 2862 
Q 544 3141 544 3541 
Q 544 4100 942 4425 
Q 1341 4750 2034 4750 
Q 2731 4750 3128 4425 
Q 3525 4100 3525 3541 
Q 3525 3141 3298 2862 
Q 3072 2584 2669 2484 
Q 3125 2378 3379 2068 
Q 3634 1759 3634 1313 
Q 3634 634 3220 271 
Q 2806 -91 2034 -91 
Q 1263 -91 848 271 
Q 434 634 434 1313 
Q 434 1759 690 2068 
Q 947 2378 1403 2484 
z
M 1172 3481 
Q 1172 3119 1398 2916 
Q 1625 2713 2034 2713 
Q 2441 2713 2670 2916 
Q 2900 3119 2900 3481 
Q 2900 3844 2670 4047 
Q 2441 4250 2034 4250 
Q 1625 4250 1398 4047 
Q 1172 3844 1172 3481 
z
" transform="scale(0.015625)"/>
       </defs>
       <use xlink:href="#DejaVuSans-32"/>
       <use xlink:href="#DejaVuSans-30" x="63.623047"/>
       <use xlink:href="#DejaVuSans-32" x="127.246094"/>
       <use xlink:href="#DejaVuSans-30" x="190.869141"/>
       <use xlink:href="#DejaVuSans-2d" x="254.492188"/>
       <use xlink:href="#DejaVuSans-30" x="290.576172"/>
       <use xlink:href="#DejaVuSans-36" x="354.199219"/>
       <use xlink:href="#DejaVuSans-2d" x="417.822266"/>
       <use xlink:href="#DejaVuSans-31" x="453.90625"/>
       <use xlink:href="#DejaVuSans-38" x="517.529297"/>
      </g>
     </g>
    </g>
    <g id="xtick_2">
     <g id="line2d_2">
      <g>
       <use xlink:href="#m4f459eafee" x="189.25624" y="128.16" style="stroke: #000000; stroke-width: 0.8"/>
      </g>
     </g>
     <g id="text_2">
      <!-- 2021-03-15 -->
      <g transform="translate(160.198428 142.758438) scale(0.1 -0.1)">
       <defs>
        <path id="DejaVuSans-33" d="M 2597 2516 
Q 3050 2419 3304 2112 
Q 3559 1806 3559 1356 
Q 3559 666 3084 287 
Q 2609 -91 1734 -91 
Q 1441 -91 1130 -33 
Q 819 25 488 141 
L 488 750 
Q 750 597 1062 519 
Q 1375 441 1716 441 
Q 2309 441 2620 675 
Q 2931 909 2931 1356 
Q 2931 1769 2642 2001 
Q 2353 2234 1838 2234 
L 1294 2234 
L 1294 2753 
L 1863 2753 
Q 2328 2753 2575 2939 
Q 2822 3125 2822 3475 
Q 2822 3834 2567 4026 
Q 2313 4219 1838 4219 
Q 1578 4219 1281 4162 
Q 984 4106 628 3988 
L 628 4550 
Q 988 4650 1302 4700 
Q 1616 4750 1894 4750 
Q 2613 4750 3031 4423 
Q 3450 4097 3450 3541 
Q 3450 3153 3228 2886 
Q 3006 2619 2597 2516 
z
" transform="scale(0.015625)"/>
        <path id="DejaVuSans-35" d="M 691 4666 
L 3169 4666 
L 3169 4134 
L 1269 4134 
L 1269 2991 
Q 1406 3038 1543 3061 
Q 1681 3084 1819 3084 
Q 2600 3084 3056 2656 
Q 3513 2228 3513 1497 
Q 3513 744 3044 326 
Q 2575 -91 1722 -91 
Q 1428 -91 1123 -41 
Q 819 9 494 109 
L 494 744 
Q 775 591 1075 516 
Q 1375 441 1709 441 
Q 2250 441 2565 725 
Q 2881 1009 2881 1497 
Q 2881 1984 2565 2268 
Q 2250 2553 1709 2553 
Q 1456 2553 1204 2497 
Q 953 2441 691 2322 
L 691 4666 
z
" transform="scale(0.015625)"/>
       </defs>
       <use xlink:href="#DejaVuSans-32"/>
       <use xlink:href="#DejaVuSans-30" x="63.623047"/>
       <use xlink:href="#DejaVuSans-32" x="127.246094"/>
       <use xlink:href="#DejaVuSans-31" x="190.869141"/>
       <use xlink:href="#DejaVuSans-2d" x="254.492188"/>
       <use xlink:href="#DejaVuSans-30" x="290.576172"/>
       <use xlink:href="#DejaVuSans-33" x="354.199219"/>
       <use xlink:href="#DejaVuSans-2d" x="417.822266"/>
       <use xlink:href="#DejaVuSans-31" x="453.90625"/>
       <use xlink:href="#DejaVuSans-35" x="517.529297"/>
      </g>
     </g>
    </g>
    <g id="xtick_3">
     <g id="line2d_3">
      <g>
       <use xlink:href="#m4f459eafee" x="263.148845" y="128.16" style="stroke: #000000; stroke-width: 0.8"/>
      </g>
     </g>
     <g id="text_3">
      <!-- 2021-10-17 -->
      <g transform="translate(234.091032 142.758438) scale(0.1 -0.1)">
       <defs>
        <path id="DejaVuSans-37" d="M 525 4666 
L 3525 4666 
L 3525 4397 
L 1831 0 
L 1172 0 
L 2766 4134 
L 525 4134 
L 525 4666 
z
" transform="scale(0.015625)"/>
       </defs>
       <use xlink:href="#DejaVuSans-32"/>
       <use xlink:href="#DejaVuSans-30" x="63.623047"/>
       <use xlink:href="#DejaVuSans-32" x="127.246094"/>
       <use xlink:href="#DejaVuSans-31" x="190.869141"/>
       <use xlink:href="#DejaVuSans-2d" x="254.492188"/>
       <use xlink:href="#DejaVuSans-31" x="290.576172"/>
       <use xlink:href="#DejaVuSans-30" x="354.199219"/>
       <use xlink:href="#DejaVuSans-2d" x="417.822266"/>
       <use xlink:href="#DejaVuSans-31" x="453.90625"/>
       <use xlink:href="#DejaVuSans-37" x="517.529297"/>
      </g>
     </g>
    </g>
    <g id="xtick_4">
     <g id="line2d_4">
      <g>
       <use xlink:href="#m4f459eafee" x="337.041449" y="128.16" style="stroke: #000000; stroke-width: 0.8"/>
      </g>
     </g>
     <g id="text_4">
      <!-- 2022-05-15 -->
      <g transform="translate(307.983636 142.758438) scale(0.1 -0.1)">
       <use xlink:href="#DejaVuSans-32"/>
       <use xlink:href="#DejaVuSans-30" x="63.623047"/>
       <use xlink:href="#DejaVuSans-32" x="127.246094"/>
       <use xlink:href="#DejaVuSans-32" x="190.869141"/>
       <use xlink:href="#DejaVuSans-2d" x="254.492188"/>
       <use xlink:href="#DejaVuSans-30" x="290.576172"/>
       <use xlink:href="#DejaVuSans-35" x="354.199219"/>
       <use xlink:href="#DejaVuSans-2d" x="417.822266"/>
       <use xlink:href="#DejaVuSans-31" x="453.90625"/>
       <use xlink:href="#DejaVuSans-35" x="517.529297"/>
      </g>
     </g>
    </g>
    <g id="xtick_5">
     <g id="line2d_5">
      <g>
       <use xlink:href="#m4f459eafee" x="410.934053" y="128.16" style="stroke: #000000; stroke-width: 0.8"/>
      </g>
     </g>
     <g id="text_5">
      <!-- 2022-12-10 -->
      <g transform="translate(381.87624 142.758438) scale(0.1 -0.1)">
       <use xlink:href="#DejaVuSans-32"/>
       <use xlink:href="#DejaVuSans-30" x="63.623047"/>
       <use xlink:href="#DejaVuSans-32" x="127.246094"/>
       <use xlink:href="#DejaVuSans-32" x="190.869141"/>
       <use xlink:href="#DejaVuSans-2d" x="254.492188"/>
       <use xlink:href="#DejaVuSans-31" x="290.576172"/>
       <use xlink:href="#DejaVuSans-32" x="354.199219"/>
       <use xlink:href="#DejaVuSans-2d" x="417.822266"/>
       <use xlink:href="#DejaVuSans-31" x="453.90625"/>
       <use xlink:href="#DejaVuSans-30" x="517.529297"/>
      </g>
     </g>
    </g>
    <g id="xtick_6">
     <g id="line2d_6">
      <g>
       <use xlink:href="#m4f459eafee" x="484.826657" y="128.16" style="stroke: #000000; stroke-width: 0.8"/>
      </g>
     </g>
     <g id="text_6">
      <!-- 2023-07-14 -->
      <g transform="translate(455.768844 142.758438) scale(0.1 -0.1)">
       <defs>
        <path id="DejaVuSans-34" d="M 2419 4116 
L 825 1625 
L 2419 1625 
L 2419 4116 
z
M 2253 4666 
L 3047 4666 
L 3047 1625 
L 3713 1625 
L 3713 1100 
L 3047 1100 
L 3047 0 
L 2419 0 
L 2419 1100 
L 313 1100 
L 313 1709 
L 2253 4666 
z
" transform="scale(0.015625)"/>
       </defs>
       <use xlink:href="#DejaVuSans-32"/>
       <use xlink:href="#DejaVuSans-30" x="63.623047"/>
       <use xlink:href="#DejaVuSans-32" x="127.246094"/>
       <use xlink:href="#DejaVuSans-33" x="190.869141"/>
       <use xlink:href="#DejaVuSans-2d" x="254.492188"/>
       <use xlink:href="#DejaVuSans-30" x="290.576172"/>
       <use xlink:href="#DejaVuSans-37" x="354.199219"/>
       <use xlink:href="#DejaVuSans-2d" x="417.822266"/>
       <use xlink:href="#DejaVuSans-31" x="453.90625"/>
       <use xlink:href="#DejaVuSans-34" x="517.529297"/>
      </g>
     </g>
    </g>
    <g id="xtick_7">
     <g id="line2d_7">
      <g>
       <use xlink:href="#m4f459eafee" x="558.719261" y="128.16" style="stroke: #000000; stroke-width: 0.8"/>
      </g>
     </g>
     <g id="text_7">
      <!-- 2024-02-07 -->
      <g transform="translate(529.661449 142.758438) scale(0.1 -0.1)">
       <use xlink:href="#DejaVuSans-32"/>
       <use xlink:href="#DejaVuSans-30" x="63.623047"/>
       <use xlink:href="#DejaVuSans-32" x="127.246094"/>
       <use xlink:href="#DejaVuSans-34" x="190.869141"/>
       <use xlink:href="#DejaVuSans-2d" x="254.492188"/>
       <use xlink:href="#DejaVuSans-30" x="290.576172"/>
       <use xlink:href="#DejaVuSans-32" x="354.199219"/>
       <use xlink:href="#DejaVuSans-2d" x="417.822266"/>
       <use xlink:href="#DejaVuSans-30" x="453.90625"/>
       <use xlink:href="#DejaVuSans-37" x="517.529297"/>
      </g>
     </g>
    </g>
    <g id="xtick_8">
     <g id="line2d_8">
      <g>
       <use xlink:href="#m4f459eafee" x="632.611865" y="128.16" style="stroke: #000000; stroke-width: 0.8"/>
      </g>
     </g>
    </g>
    <g id="text_8">
     <!-- date -->
     <g transform="translate(357.725 156.436563) scale(0.1 -0.1)">
      <defs>
       <path id="DejaVuSans-64" d="M 2906 2969 
L 2906 4863 
L 3481 4863 
L 3481 0 
L 2906 0 
L 2906 525 
Q 2725 213 2448 61 
Q 2172 -91 1784 -91 
Q 1150 -91 751 415 
Q 353 922 353 1747 
Q 353 2572 751 3078 
Q 1150 3584 1784 3584 
Q 2172 3584 2448 3432 
Q 2725 3281 2906 2969 
z
M 947 1747 
Q 947 1113 1208 752 
Q 1469 391 1925 391 
Q 2381 391 2643 752 
Q 2906 1113 2906 1747 
Q 2906 2381 2643 2742 
Q 2381 3103 1925 3103 
Q 1469 3103 1208 2742 
Q 947 2381 947 1747 
z
" transform="scale(0.015625)"/>
       <path id="DejaVuSans-61" d="M 2194 1759 
Q 1497 1759 1228 1600 
Q 959 1441 959 1056 
Q 959 750 1161 570 
Q 1363 391 1709 391 
Q 2188 391 2477 730 
Q 2766 1069 2766 1631 
L 2766 1759 
L 2194 1759 
z
M 3341 1997 
L 3341 0 
L 2766 0 
L 2766 531 
Q 2569 213 2275 61 
Q 1981 -91 1556 -91 
Q 1019 -91 701 211 
Q 384 513 384 1019 
Q 384 1609 779 1909 
Q 1175 2209 1959 2209 
L 2766 2209 
L 2766 2266 
Q 2766 2663 2505 2880 
Q 2244 3097 1772 3097 
Q 1472 3097 1187 3025 
Q 903 2953 641 2809 
L 641 3341 
Q 956 3463 1253 3523 
Q 1550 3584 1831 3584 
Q 2591 3584 2966 3190 
Q 3341 2797 3341 1997 
z
" transform="scale(0.015625)"/>
       <path id="DejaVuSans-74" d="M 1172 4494 
L 1172 3500 
L 2356 3500 
L 2356 3053 
L 1172 3053 
L 1172 1153 
Q 1172 725 1289 603 
Q 1406 481 1766 481 
L 2356 481 
L 2356 0 
L 1766 0 
Q 1100 0 847 248 
Q 594 497 594 1153 
L 594 3053 
L 172 3053 
L 172 3500 
L 594 3500 
L 594 4494 
L 1172 4494 
z
" transform="scale(0.015625)"/>
       <path id="DejaVuSans-65" d="M 3597 1894 
L 3597 1613 
L 953 1613 
Q 991 1019 1311 708 
Q 1631 397 2203 397 
Q 2534 397 2845 478 
Q 3156 559 3463 722 
L 3463 178 
Q 3153 47 2828 -22 
Q 2503 -91 2169 -91 
Q 1331 -91 842 396 
Q 353 884 353 1716 
Q 353 2575 817 3079 
Q 1281 3584 2069 3584 
Q 2775 3584 3186 3129 
Q 3597 2675 3597 1894 
z
M 3022 2063 
Q 3016 2534 2758 2815 
Q 2500 3097 2075 3097 
Q 1594 3097 1305 2825 
Q 1016 2553 972 2059 
L 3022 2063 
z
" transform="scale(0.015625)"/>
      </defs>
      <use xlink:href="#DejaVuSans-64"/>
      <use xlink:href="#DejaVuSans-61" x="63.476562"/>
      <use xlink:href="#DejaVuSans-74" x="124.755859"/>
      <use xlink:href="#DejaVuSans-65" x="163.964844"/>
     </g>
    </g>
   </g>
   <g id="matplotlib.axis_2">
    <g id="ytick_1">
     <g id="line2d_9">
      <defs>
       <path id="me8d40b1f3b" d="M 0 0 
L -3.5 0 
" style="stroke: #000000; stroke-width: 0.8"/>
      </defs>
      <g>
       <use xlink:href="#me8d40b1f3b" x="90" y="123.783158" style="stroke: #000000; stroke-width: 0.8"/>
      </g>
     </g>
     <g id="text_9">
      <!-- 0 -->
      <g transform="translate(76.6375 127.582377) scale(0.1 -0.1)">
       <use xlink:href="#DejaVuSans-30"/>
      </g>
     </g>
    </g>
    <g id="ytick_2">
     <g id="line2d_10">
      <g>
       <use xlink:href="#me8d40b1f3b" x="90" y="90.625263" style="stroke: #000000; stroke-width: 0.8"/>
      </g>
     </g>
     <g id="text_10">
      <!-- 50 -->
      <g transform="translate(70.275 94.424482) scale(0.1 -0.1)">
       <use xlink:href="#DejaVuSans-35"/>
       <use xlink:href="#DejaVuSans-30" x="63.623047"/>
      </g>
     </g>
    </g>
    <g id="ytick_3">
     <g id="line2d_11">
      <g>
       <use xlink:href="#me8d40b1f3b" x="90" y="57.467368" style="stroke: #000000; stroke-width: 0.8"/>
      </g>
     </g>
     <g id="text_11">
      <!-- 100 -->
      <g transform="translate(63.9125 61.266587) scale(0.1 -0.1)">
       <use xlink:href="#DejaVuSans-31"/>
       <use xlink:href="#DejaVuSans-30" x="63.623047"/>
       <use xlink:href="#DejaVuSans-30" x="127.246094"/>
      </g>
     </g>
    </g>
    <g id="ytick_4">
     <g id="line2d_12">
      <g>
       <use xlink:href="#me8d40b1f3b" x="90" y="24.309474" style="stroke: #000000; stroke-width: 0.8"/>
      </g>
     </g>
     <g id="text_12">
      <!-- 150 -->
      <g transform="translate(63.9125 28.108692) scale(0.1 -0.1)">
       <use xlink:href="#DejaVuSans-31"/>
       <use xlink:href="#DejaVuSans-35" x="63.623047"/>
       <use xlink:href="#DejaVuSans-30" x="127.246094"/>
      </g>
     </g>
    </g>
   </g>
   <g id="line2d_13">
    <path d="M 115.363636 109.193684 
L 116.102562 121.130526 
L 117.210951 123.12 
L 117.580414 121.793684 
L 117.949878 118.477895 
L 118.319341 122.456842 
L 118.688804 121.793684 
L 119.058267 122.456842 
L 119.42773 107.867368 
L 119.797193 119.141053 
L 120.166656 121.793684 
L 120.536119 118.477895 
L 120.905582 122.456842 
L 121.275045 119.804211 
L 121.644508 119.141053 
L 122.013971 123.12 
L 122.383434 121.793684 
L 122.752897 117.151579 
L 123.12236 118.477895 
L 123.491823 121.130526 
L 123.861286 121.793684 
L 124.230749 121.793684 
L 124.969675 123.12 
L 125.339138 117.814737 
L 125.708601 89.962105 
L 126.078064 119.804211 
L 126.447527 121.793684 
L 126.81699 121.793684 
L 127.186453 120.467368 
L 127.555916 122.456842 
L 127.925379 121.130526 
L 128.294842 123.12 
L 128.664305 121.793684 
L 129.033768 121.793684 
L 129.403231 123.12 
L 129.772694 122.456842 
L 130.142157 121.130526 
L 130.51162 121.130526 
L 130.881083 119.804211 
L 131.250546 123.12 
L 131.620009 123.12 
L 131.989472 122.456842 
L 132.358935 122.456842 
L 132.728398 123.12 
L 133.097861 123.12 
L 133.467324 113.172632 
L 133.836787 120.467368 
L 134.20625 119.141053 
L 134.575713 122.456842 
L 134.945176 120.467368 
L 135.314639 119.141053 
L 135.684102 120.467368 
L 136.053566 123.12 
L 136.423029 122.456842 
L 136.792492 120.467368 
L 137.161955 123.12 
L 137.900881 121.793684 
L 138.270344 119.141053 
L 139.00927 123.12 
L 139.378733 121.130526 
L 139.748196 120.467368 
L 140.117659 123.12 
L 140.487122 121.130526 
L 140.856585 123.12 
L 141.226048 122.456842 
L 141.595511 120.467368 
L 141.964974 123.12 
L 142.334437 122.456842 
L 142.7039 122.456842 
L 143.073363 123.12 
L 143.442826 120.467368 
L 143.812289 123.12 
L 144.181752 121.793684 
L 144.920678 121.793684 
L 145.290141 121.130526 
L 145.659604 119.804211 
L 146.029067 121.793684 
L 146.39853 119.804211 
L 146.767993 123.12 
L 147.506919 121.793684 
L 147.876382 120.467368 
L 148.245845 122.456842 
L 148.615308 123.12 
L 148.984771 122.456842 
L 149.354234 121.130526 
L 149.723697 121.793684 
L 150.09316 123.12 
L 150.462623 114.498947 
L 150.832086 123.12 
L 151.201549 121.793684 
L 151.571012 121.130526 
L 151.940475 123.12 
L 152.309938 121.130526 
L 152.679401 118.477895 
L 153.048864 121.793684 
L 153.418327 123.12 
L 153.787791 123.12 
L 154.157254 122.456842 
L 154.526717 123.12 
L 154.89618 123.12 
L 155.265643 122.456842 
L 155.635106 122.456842 
L 156.004569 121.793684 
L 156.374032 122.456842 
L 157.482421 120.467368 
L 157.851884 121.793684 
L 158.221347 121.793684 
L 158.960273 120.467368 
L 159.329736 122.456842 
L 159.699199 123.12 
L 160.068662 119.141053 
L 160.438125 122.456842 
L 160.807588 122.456842 
L 161.177051 118.477895 
L 161.546514 121.793684 
L 161.915977 121.793684 
L 162.28544 107.204211 
L 162.654903 120.467368 
L 163.024366 121.793684 
L 163.393829 119.141053 
L 163.763292 122.456842 
L 164.132755 119.804211 
L 164.502218 122.456842 
L 164.871681 118.477895 
L 165.241144 120.467368 
L 165.610607 123.12 
L 165.98007 122.456842 
L 166.349533 115.162105 
L 166.718996 120.467368 
L 167.088459 122.456842 
L 167.457922 123.12 
L 167.827385 123.12 
L 168.196848 118.477895 
L 168.566311 123.12 
L 168.935774 123.12 
L 169.305237 121.130526 
L 169.6747 123.12 
L 170.044163 123.12 
L 170.783089 120.467368 
L 171.152552 123.12 
L 171.522015 121.793684 
L 172.260942 123.12 
L 172.630405 120.467368 
L 172.999868 123.12 
L 173.369331 123.12 
L 173.738794 122.456842 
L 174.108257 123.12 
L 174.47772 123.12 
L 174.847183 120.467368 
L 175.586109 123.12 
L 176.325035 121.793684 
L 176.694498 121.793684 
L 177.063961 122.456842 
L 177.433424 121.130526 
L 177.802887 122.456842 
L 178.17235 123.12 
L 178.911276 123.12 
L 179.280739 120.467368 
L 179.650202 123.12 
L 180.019665 122.456842 
L 180.389128 123.12 
L 180.758591 120.467368 
L 181.128054 121.793684 
L 181.497517 122.456842 
L 181.86698 122.456842 
L 182.236443 121.130526 
L 182.605906 122.456842 
L 182.975369 121.793684 
L 183.344832 121.793684 
L 183.714295 122.456842 
L 184.083758 122.456842 
L 184.453221 123.12 
L 184.822684 119.141053 
L 185.192147 122.456842 
L 185.56161 122.456842 
L 185.931073 123.12 
L 186.300536 122.456842 
L 186.669999 123.12 
L 187.039462 123.12 
L 187.778388 121.793684 
L 188.147851 116.488421 
L 188.517314 103.888421 
L 188.886777 123.12 
L 189.25624 122.456842 
L 189.625704 119.141053 
L 189.995167 120.467368 
L 190.36463 119.804211 
L 190.734093 114.498947 
L 191.103556 123.12 
L 191.473019 122.456842 
L 191.842482 121.130526 
L 192.211945 119.141053 
L 192.581408 116.488421 
L 192.950871 108.530526 
L 193.320334 113.835789 
L 193.689797 122.456842 
L 194.05926 101.235789 
L 194.428723 113.172632 
L 194.798186 118.477895 
L 195.167649 114.498947 
L 195.537112 120.467368 
L 195.906575 114.498947 
L 196.276038 115.162105 
L 196.645501 113.835789 
L 197.014964 108.530526 
L 197.384427 121.793684 
L 197.75389 119.141053 
L 198.123353 121.793684 
L 198.492816 123.12 
L 198.862279 120.467368 
L 199.231742 123.12 
L 199.601205 121.793684 
L 199.970668 123.12 
L 200.340131 122.456842 
L 200.709594 114.498947 
L 201.079057 121.793684 
L 201.44852 119.804211 
L 201.817983 121.130526 
L 202.187446 120.467368 
L 202.556909 123.12 
L 202.926372 119.141053 
L 203.295835 120.467368 
L 203.665298 122.456842 
L 204.034761 119.804211 
L 204.404224 123.12 
L 204.773687 121.793684 
L 205.14315 123.12 
L 205.512613 121.130526 
L 205.882076 122.456842 
L 206.251539 121.130526 
L 206.621002 120.467368 
L 206.990465 122.456842 
L 207.729392 122.456842 
L 208.098855 121.130526 
L 208.468318 120.467368 
L 208.837781 109.193684 
L 209.207244 110.52 
L 209.576707 121.793684 
L 209.94617 122.456842 
L 210.315633 119.804211 
L 210.685096 120.467368 
L 211.054559 119.141053 
L 211.424022 122.456842 
L 211.793485 123.12 
L 212.162948 119.804211 
L 212.532411 119.141053 
L 212.901874 117.151579 
L 213.271337 122.456842 
L 213.6408 120.467368 
L 214.010263 122.456842 
L 214.379726 122.456842 
L 214.749189 123.12 
L 215.488115 120.467368 
L 216.227041 123.12 
L 216.596504 121.793684 
L 216.965967 122.456842 
L 217.33543 119.141053 
L 217.704893 117.814737 
L 218.074356 119.141053 
L 218.443819 119.804211 
L 218.813282 118.477895 
L 219.182745 113.172632 
L 219.552208 119.804211 
L 219.921671 121.130526 
L 220.291134 120.467368 
L 220.660597 118.477895 
L 221.03006 113.835789 
L 221.399523 122.456842 
L 221.768986 121.793684 
L 222.138449 123.12 
L 222.507912 117.814737 
L 222.877375 118.477895 
L 223.246838 121.130526 
L 223.616301 117.151579 
L 223.985764 115.825263 
L 224.355227 122.456842 
L 224.72469 122.456842 
L 225.094153 117.151579 
L 225.463617 105.214737 
L 225.83308 114.498947 
L 226.202543 119.804211 
L 226.572006 120.467368 
L 226.941469 120.467368 
L 227.680395 121.793684 
L 228.049858 119.804211 
L 228.419321 119.804211 
L 228.788784 122.456842 
L 229.158247 122.456842 
L 229.52771 121.793684 
L 229.897173 122.456842 
L 230.266636 118.477895 
L 230.636099 118.477895 
L 231.005562 119.804211 
L 231.375025 117.814737 
L 231.744488 113.172632 
L 232.113951 118.477895 
L 232.483414 118.477895 
L 232.852877 121.793684 
L 233.22234 121.793684 
L 233.591803 119.141053 
L 233.961266 123.12 
L 234.330729 111.846316 
L 234.700192 110.52 
L 235.069655 119.804211 
L 235.439118 120.467368 
L 235.808581 114.498947 
L 236.547507 121.793684 
L 236.91697 120.467368 
L 237.286433 123.12 
L 237.655896 117.814737 
L 238.025359 109.193684 
L 238.394822 122.456842 
L 238.764285 121.793684 
L 239.503211 123.12 
L 239.872674 121.130526 
L 240.242137 110.52 
L 240.6116 118.477895 
L 240.981063 122.456842 
L 241.350526 122.456842 
L 241.719989 113.172632 
L 242.089452 121.793684 
L 242.458915 122.456842 
L 242.828378 121.793684 
L 244.306231 121.793684 
L 244.675694 120.467368 
L 245.045157 123.12 
L 245.41462 122.456842 
L 245.784083 122.456842 
L 246.153546 123.12 
L 246.523009 123.12 
L 246.892472 122.456842 
L 247.261935 123.12 
L 247.631398 119.804211 
L 248.000861 122.456842 
L 248.370324 120.467368 
L 248.739787 120.467368 
L 249.10925 119.141053 
L 249.478713 120.467368 
L 249.848176 123.12 
L 250.217639 121.793684 
L 250.956565 121.793684 
L 251.326028 123.12 
L 251.695491 122.456842 
L 252.064954 122.456842 
L 252.434417 121.130526 
L 252.80388 122.456842 
L 253.912269 122.456842 
L 254.281732 99.909474 
L 254.651195 120.467368 
L 255.020658 123.12 
L 255.390121 122.456842 
L 255.759584 121.130526 
L 256.129047 123.12 
L 256.49851 120.467368 
L 256.867973 122.456842 
L 257.237436 119.804211 
L 257.606899 119.141053 
L 257.976362 119.141053 
L 258.345825 118.477895 
L 258.715288 110.52 
L 259.084751 110.52 
L 259.454214 119.141053 
L 259.823677 121.130526 
L 260.19314 122.456842 
L 260.562603 112.509474 
L 260.932066 120.467368 
L 261.301529 122.456842 
L 261.670993 122.456842 
L 262.040456 121.793684 
L 262.409919 121.793684 
L 262.779382 122.456842 
L 263.148845 122.456842 
L 263.518308 120.467368 
L 263.887771 123.12 
L 264.257234 122.456842 
L 264.626697 120.467368 
L 264.99616 120.467368 
L 265.365623 121.793684 
L 266.104549 110.52 
L 266.474012 117.814737 
L 266.843475 117.151579 
L 267.212938 113.172632 
L 267.582401 115.825263 
L 268.321327 117.151579 
L 268.69079 116.488421 
L 269.060253 112.509474 
L 269.429716 114.498947 
L 269.799179 120.467368 
L 270.168642 121.130526 
L 270.538105 119.804211 
L 270.907568 119.804211 
L 271.277031 117.814737 
L 271.646494 119.141053 
L 272.015957 115.162105 
L 272.38542 118.477895 
L 272.754883 119.141053 
L 273.124346 116.488421 
L 273.493809 110.52 
L 273.863272 116.488421 
L 274.232735 119.141053 
L 274.971661 116.488421 
L 275.341124 119.141053 
L 275.710587 114.498947 
L 276.08005 116.488421 
L 276.449513 119.141053 
L 276.818976 114.498947 
L 277.188439 121.793684 
L 277.557902 120.467368 
L 277.927365 121.130526 
L 278.296828 118.477895 
L 278.666291 117.814737 
L 279.035754 107.204211 
L 279.405218 105.214737 
L 279.774681 117.151579 
L 280.144144 99.246316 
L 280.513607 121.793684 
L 280.88307 120.467368 
L 281.252533 121.793684 
L 281.621996 104.551579 
L 281.991459 105.214737 
L 282.730385 122.456842 
L 283.099848 120.467368 
L 283.469311 115.162105 
L 283.838774 120.467368 
L 284.208237 120.467368 
L 284.5777 105.214737 
L 284.947163 116.488421 
L 285.316626 118.477895 
L 286.055552 119.804211 
L 286.425015 119.804211 
L 286.794478 118.477895 
L 287.902867 122.456842 
L 288.27233 117.814737 
L 288.641793 122.456842 
L 289.011256 122.456842 
L 289.750182 121.130526 
L 290.119645 123.12 
L 290.489108 121.130526 
L 290.858571 119.804211 
L 291.228034 121.793684 
L 291.597497 122.456842 
L 291.96696 122.456842 
L 292.336423 117.814737 
L 292.705886 123.12 
L 293.075349 108.530526 
L 293.444812 121.793684 
L 293.814275 122.456842 
L 294.183738 120.467368 
L 294.553201 120.467368 
L 294.922664 121.130526 
L 295.292127 122.456842 
L 295.66159 118.477895 
L 296.031053 121.793684 
L 296.400516 120.467368 
L 296.769979 121.130526 
L 297.139442 107.867368 
L 297.508906 121.793684 
L 297.878369 119.804211 
L 298.247832 123.12 
L 298.617295 123.12 
L 298.986758 122.456842 
L 299.356221 117.814737 
L 299.725684 122.456842 
L 300.095147 118.477895 
L 300.46461 120.467368 
L 300.834073 123.12 
L 301.203536 120.467368 
L 301.942462 120.467368 
L 302.311925 118.477895 
L 302.681388 117.151579 
L 303.050851 121.130526 
L 303.420314 121.130526 
L 303.789777 120.467368 
L 304.15924 121.793684 
L 304.528703 121.793684 
L 304.898166 120.467368 
L 305.267629 118.477895 
L 305.637092 118.477895 
L 306.006555 119.804211 
L 306.376018 122.456842 
L 307.114944 122.456842 
L 307.484407 110.52 
L 307.85387 82.667368 
L 308.223333 95.930526 
L 308.592796 119.804211 
L 308.962259 121.793684 
L 309.331722 120.467368 
L 310.070648 111.183158 
L 310.440111 119.141053 
L 311.179037 93.277895 
L 311.5485 120.467368 
L 311.917963 92.614737 
L 312.287426 115.162105 
L 312.656889 122.456842 
L 313.026352 84.656842 
L 313.395815 105.877895 
L 313.765278 113.172632 
L 314.134741 80.677895 
L 314.504204 119.804211 
L 314.873667 120.467368 
L 315.243131 105.214737 
L 315.612594 114.498947 
L 315.982057 103.225263 
L 316.35152 114.498947 
L 316.720983 121.130526 
L 317.090446 66.088421 
L 317.459909 119.804211 
L 317.829372 120.467368 
L 318.198835 120.467368 
L 318.568298 115.825263 
L 318.937761 119.141053 
L 319.307224 109.856842 
L 319.676687 119.141053 
L 320.04615 121.130526 
L 320.415613 105.877895 
L 320.785076 105.877895 
L 321.154539 115.825263 
L 321.524002 103.888421 
L 321.893465 119.804211 
L 322.262928 120.467368 
L 322.632391 105.877895 
L 323.001854 123.12 
L 323.371317 121.793684 
L 323.74078 121.130526 
L 324.110243 119.804211 
L 324.479706 121.793684 
L 324.849169 121.130526 
L 325.218632 119.804211 
L 325.588095 116.488421 
L 325.957558 118.477895 
L 326.327021 112.509474 
L 327.065947 122.456842 
L 327.43541 123.12 
L 327.804873 117.814737 
L 328.543799 121.793684 
L 328.913262 123.12 
L 329.282725 119.804211 
L 329.652188 122.456842 
L 330.021651 119.804211 
L 330.391114 123.12 
L 331.13004 121.793684 
L 331.499503 123.12 
L 331.868966 123.12 
L 332.238429 121.793684 
L 332.977355 120.467368 
L 333.346819 120.467368 
L 333.716282 121.130526 
L 334.085745 121.130526 
L 334.455208 123.12 
L 334.824671 121.793684 
L 335.194134 100.572632 
L 335.563597 121.130526 
L 335.93306 122.456842 
L 336.671986 122.456842 
L 337.041449 119.141053 
L 337.410912 119.804211 
L 337.780375 112.509474 
L 338.149838 121.793684 
L 338.519301 118.477895 
L 338.888764 122.456842 
L 339.258227 123.12 
L 339.62769 121.130526 
L 339.997153 121.793684 
L 340.366616 118.477895 
L 340.736079 119.804211 
L 341.105542 121.793684 
L 341.475005 122.456842 
L 341.844468 121.793684 
L 342.213931 119.141053 
L 342.583394 120.467368 
L 342.952857 119.804211 
L 343.32232 121.130526 
L 343.691783 117.814737 
L 344.061246 119.141053 
L 344.430709 123.12 
L 344.800172 119.804211 
L 345.169635 120.467368 
L 345.539098 113.172632 
L 345.908561 122.456842 
L 346.278024 119.804211 
L 346.647487 119.804211 
L 347.01695 120.467368 
L 347.386413 113.835789 
L 347.755876 103.225263 
L 348.125339 120.467368 
L 348.494802 122.456842 
L 348.864265 118.477895 
L 349.233728 121.793684 
L 349.603191 121.130526 
L 349.972654 121.130526 
L 350.342117 123.12 
L 351.081044 121.793684 
L 351.450507 120.467368 
L 351.81997 122.456842 
L 352.189433 120.467368 
L 352.558896 122.456842 
L 352.928359 120.467368 
L 353.297822 123.12 
L 353.667285 120.467368 
L 354.036748 121.793684 
L 354.406211 121.793684 
L 354.775674 120.467368 
L 355.145137 123.12 
L 355.5146 120.467368 
L 355.884063 121.793684 
L 356.253526 117.814737 
L 356.622989 122.456842 
L 356.992452 117.151579 
L 357.361915 103.225263 
L 357.731378 122.456842 
L 358.100841 123.12 
L 358.470304 121.793684 
L 358.839767 118.477895 
L 359.20923 121.793684 
L 359.948156 123.12 
L 360.317619 117.814737 
L 360.687082 121.793684 
L 361.056545 121.130526 
L 361.795471 110.52 
L 362.164934 119.141053 
L 362.534397 121.793684 
L 362.90386 121.793684 
L 363.273323 118.477895 
L 363.642786 95.930526 
L 364.012249 112.509474 
L 364.381712 118.477895 
L 364.751175 121.130526 
L 365.120638 121.130526 
L 365.490101 101.898947 
L 365.859564 120.467368 
L 366.229027 122.456842 
L 366.967953 122.456842 
L 367.337416 121.130526 
L 367.706879 120.467368 
L 368.076342 121.793684 
L 368.445805 119.804211 
L 368.815268 121.130526 
L 369.184732 123.12 
L 369.554195 121.793684 
L 369.923658 119.141053 
L 370.293121 121.793684 
L 370.662584 118.477895 
L 371.032047 118.477895 
L 371.40151 119.804211 
L 371.770973 121.793684 
L 372.140436 109.856842 
L 372.509899 120.467368 
L 372.879362 112.509474 
L 373.248825 118.477895 
L 373.618288 119.804211 
L 373.987751 113.172632 
L 374.357214 121.793684 
L 375.09614 115.825263 
L 375.465603 120.467368 
L 375.835066 117.814737 
L 376.204529 112.509474 
L 376.573992 111.846316 
L 376.943455 119.804211 
L 377.312918 107.867368 
L 377.682381 113.172632 
L 378.051844 121.130526 
L 378.421307 111.846316 
L 378.79077 122.456842 
L 379.160233 121.793684 
L 379.529696 115.825263 
L 379.899159 117.814737 
L 380.268622 104.551579 
L 380.638085 115.825263 
L 381.007548 115.162105 
L 381.377011 115.162105 
L 381.746474 116.488421 
L 382.115937 119.804211 
L 382.4854 120.467368 
L 382.854863 118.477895 
L 383.224326 119.804211 
L 383.593789 114.498947 
L 383.963252 120.467368 
L 384.332715 116.488421 
L 384.702178 111.183158 
L 385.071641 116.488421 
L 385.441104 117.151579 
L 385.810567 116.488421 
L 386.18003 122.456842 
L 386.549493 118.477895 
L 386.918956 121.793684 
L 387.28842 121.130526 
L 387.657883 115.162105 
L 388.027346 114.498947 
L 388.396809 104.551579 
L 388.766272 114.498947 
L 389.135735 112.509474 
L 389.505198 119.141053 
L 389.874661 120.467368 
L 390.244124 119.804211 
L 390.613587 119.804211 
L 390.98305 122.456842 
L 391.352513 119.804211 
L 391.721976 111.183158 
L 392.091439 119.804211 
L 392.830365 119.804211 
L 393.199828 122.456842 
L 393.569291 123.12 
L 393.938754 122.456842 
L 394.308217 119.141053 
L 394.67768 109.193684 
L 395.047143 120.467368 
L 395.416606 120.467368 
L 395.786069 123.12 
L 396.155532 123.12 
L 396.524995 101.898947 
L 397.263921 118.477895 
L 397.633384 114.498947 
L 398.37231 122.456842 
L 398.741773 121.793684 
L 399.111236 122.456842 
L 399.480699 117.151579 
L 399.850162 122.456842 
L 400.219625 121.130526 
L 400.589088 121.793684 
L 400.958551 123.12 
L 401.328014 103.888421 
L 401.697477 120.467368 
L 402.06694 113.172632 
L 402.436403 113.172632 
L 402.805866 115.825263 
L 403.175329 121.130526 
L 403.544792 121.793684 
L 403.914255 117.151579 
L 404.283718 119.141053 
L 404.653181 118.477895 
L 405.022645 117.151579 
L 405.392108 122.456842 
L 405.761571 120.467368 
L 406.131034 121.793684 
L 406.86996 123.12 
L 408.347812 120.467368 
L 409.086738 107.867368 
L 409.456201 119.141053 
L 409.825664 117.151579 
L 410.195127 122.456842 
L 410.56459 117.151579 
L 410.934053 123.12 
L 411.303516 121.793684 
L 412.042442 120.467368 
L 412.411905 121.130526 
L 412.781368 120.467368 
L 413.150831 119.141053 
L 413.520294 109.856842 
L 413.889757 119.141053 
L 414.25922 118.477895 
L 414.628683 108.530526 
L 414.998146 122.456842 
L 415.367609 115.825263 
L 415.737072 122.456842 
L 416.106535 119.141053 
L 416.475998 121.793684 
L 416.845461 123.12 
L 417.214924 121.130526 
L 417.584387 122.456842 
L 417.95385 120.467368 
L 418.323313 123.12 
L 419.062239 123.12 
L 419.431702 120.467368 
L 419.801165 123.12 
L 420.170628 119.141053 
L 420.540091 123.12 
L 420.909554 122.456842 
L 421.279017 120.467368 
L 421.64848 109.856842 
L 422.017943 123.12 
L 422.387406 123.12 
L 422.756869 113.835789 
L 423.126333 114.498947 
L 423.495796 112.509474 
L 423.865259 115.162105 
L 424.234722 122.456842 
L 424.604185 113.835789 
L 424.973648 120.467368 
L 425.343111 121.793684 
L 425.712574 122.456842 
L 426.082037 122.456842 
L 426.4515 123.12 
L 426.820963 122.456842 
L 427.190426 119.804211 
L 427.559889 121.793684 
L 428.298815 123.12 
L 428.668278 123.12 
L 429.037741 118.477895 
L 429.407204 119.141053 
L 429.776667 121.793684 
L 430.515593 121.793684 
L 430.885056 121.130526 
L 431.254519 121.130526 
L 431.623982 117.151579 
L 431.993445 122.456842 
L 432.362908 107.867368 
L 432.732371 119.141053 
L 433.101834 122.456842 
L 433.471297 119.804211 
L 433.84076 120.467368 
L 434.579686 114.498947 
L 434.949149 119.141053 
L 435.318612 106.541053 
L 435.688075 123.12 
L 436.057538 118.477895 
L 436.796464 105.877895 
L 437.165927 112.509474 
L 437.53539 88.635789 
L 437.904853 117.151579 
L 438.274316 123.12 
L 438.643779 97.92 
L 439.013242 114.498947 
L 439.382705 111.183158 
L 439.752168 112.509474 
L 440.121631 118.477895 
L 440.491094 115.162105 
L 440.860558 122.456842 
L 441.230021 109.193684 
L 441.599484 113.835789 
L 441.968947 113.835789 
L 442.33841 109.856842 
L 442.707873 110.52 
L 443.077336 121.793684 
L 443.446799 123.12 
L 443.816262 96.593684 
L 444.185725 36.909474 
L 444.555188 105.214737 
L 444.924651 109.193684 
L 445.294114 108.530526 
L 445.663577 120.467368 
L 446.03304 121.130526 
L 446.402503 97.256842 
L 446.771966 80.677895 
L 447.141429 112.509474 
L 447.510892 110.52 
L 447.880355 106.541053 
L 448.249818 120.467368 
L 448.619281 123.12 
L 448.988744 91.288421 
L 449.72767 95.267368 
L 450.466596 120.467368 
L 450.836059 121.793684 
L 451.205522 122.456842 
L 451.574985 118.477895 
L 451.944448 109.193684 
L 452.313911 114.498947 
L 452.683374 95.267368 
L 453.052837 97.256842 
L 453.4223 121.793684 
L 453.791763 120.467368 
L 454.161226 104.551579 
L 454.530689 116.488421 
L 454.900152 100.572632 
L 455.269615 117.151579 
L 455.639078 123.12 
L 456.008541 123.12 
L 456.378004 117.151579 
L 456.747467 107.867368 
L 457.11693 119.141053 
L 457.486393 119.141053 
L 457.855856 121.793684 
L 458.225319 123.12 
L 458.594782 123.12 
L 458.964246 121.793684 
L 459.333709 115.162105 
L 459.703172 121.130526 
L 460.072635 123.12 
L 460.442098 102.562105 
L 460.811561 118.477895 
L 461.181024 117.151579 
L 461.550487 99.909474 
L 461.91995 115.825263 
L 462.289413 122.456842 
L 462.658876 121.130526 
L 463.028339 123.12 
L 463.397802 121.793684 
L 463.767265 103.888421 
L 464.136728 101.898947 
L 464.506191 116.488421 
L 464.875654 111.846316 
L 465.245117 117.814737 
L 465.61458 109.193684 
L 465.984043 121.130526 
L 466.353506 115.825263 
L 466.722969 121.793684 
L 467.092432 121.130526 
L 467.461895 121.793684 
L 467.831358 123.12 
L 468.200821 107.867368 
L 468.570284 113.172632 
L 468.939747 121.130526 
L 469.30921 122.456842 
L 470.417599 122.456842 
L 470.787062 119.804211 
L 471.156525 98.583158 
L 471.525988 119.141053 
L 471.895451 113.172632 
L 472.264914 119.141053 
L 472.634377 120.467368 
L 473.00384 121.130526 
L 473.373303 119.804211 
L 473.742766 121.793684 
L 474.112229 122.456842 
L 474.481692 120.467368 
L 474.851155 122.456842 
L 475.220618 111.846316 
L 475.590081 119.804211 
L 475.959544 118.477895 
L 476.329007 121.130526 
L 476.698471 99.909474 
L 477.067934 120.467368 
L 477.437397 121.130526 
L 477.80686 119.804211 
L 478.176323 121.130526 
L 478.545786 119.804211 
L 478.915249 101.235789 
L 479.284712 117.151579 
L 479.654175 119.141053 
L 480.023638 120.467368 
L 480.393101 117.151579 
L 480.762564 120.467368 
L 481.132027 120.467368 
L 481.50149 121.130526 
L 481.870953 119.804211 
L 482.240416 119.804211 
L 482.609879 121.130526 
L 482.979342 119.804211 
L 483.348805 119.804211 
L 483.718268 120.467368 
L 484.087731 110.52 
L 484.457194 115.162105 
L 484.826657 122.456842 
L 485.19612 121.793684 
L 485.565583 120.467368 
L 485.935046 121.793684 
L 486.304509 120.467368 
L 486.673972 121.793684 
L 487.043435 117.151579 
L 487.412898 116.488421 
L 487.782361 111.846316 
L 488.151824 119.804211 
L 488.521287 121.130526 
L 489.260213 116.488421 
L 489.629676 119.141053 
L 489.999139 119.804211 
L 490.368602 121.793684 
L 490.738065 121.793684 
L 491.107528 117.151579 
L 491.476991 96.593684 
L 491.846454 118.477895 
L 492.215917 118.477895 
L 492.58538 116.488421 
L 492.954843 121.130526 
L 493.324306 121.130526 
L 493.693769 118.477895 
L 494.063232 121.130526 
L 494.432695 87.309474 
L 494.802159 121.130526 
L 495.171622 122.456842 
L 495.541085 121.793684 
L 495.910548 121.793684 
L 496.280011 105.877895 
L 496.649474 115.162105 
L 497.018937 120.467368 
L 497.3884 121.793684 
L 497.757863 122.456842 
L 498.127326 113.835789 
L 498.496789 119.804211 
L 498.866252 122.456842 
L 499.235715 109.193684 
L 499.605178 116.488421 
L 499.974641 119.804211 
L 500.344104 101.898947 
L 500.713567 122.456842 
L 501.08303 123.12 
L 501.452493 121.130526 
L 502.191419 122.456842 
L 502.560882 119.804211 
L 502.930345 119.141053 
L 503.299808 121.130526 
L 503.669271 122.456842 
L 504.038734 121.793684 
L 504.408197 122.456842 
L 504.77766 122.456842 
L 505.147123 123.12 
L 505.516586 123.12 
L 505.886049 120.467368 
L 506.255512 74.046316 
L 506.624975 112.509474 
L 506.994438 113.835789 
L 507.363901 117.151579 
L 507.733364 109.193684 
L 508.102827 113.835789 
L 508.47229 113.835789 
L 508.841753 107.204211 
L 509.211216 118.477895 
L 509.580679 107.867368 
L 509.950142 121.130526 
L 510.319605 117.814737 
L 510.689068 116.488421 
L 511.058531 121.130526 
L 511.427994 119.804211 
L 511.797457 117.814737 
L 512.16692 120.467368 
L 512.536383 121.130526 
L 512.905847 107.204211 
L 513.27531 118.477895 
L 513.644773 107.867368 
L 514.014236 117.814737 
L 514.383699 109.856842 
L 514.753162 118.477895 
L 515.122625 119.141053 
L 515.492088 110.52 
L 515.861551 111.183158 
L 516.231014 118.477895 
L 516.600477 121.130526 
L 516.96994 117.814737 
L 517.339403 118.477895 
L 517.708866 123.12 
L 518.078329 118.477895 
L 518.447792 100.572632 
L 518.817255 117.151579 
L 519.186718 119.141053 
L 519.556181 115.825263 
L 519.925644 118.477895 
L 520.295107 119.804211 
L 520.66457 110.52 
L 521.034033 119.141053 
L 521.403496 109.856842 
L 521.772959 117.151579 
L 522.142422 118.477895 
L 522.511885 109.856842 
L 522.881348 118.477895 
L 523.250811 99.246316 
L 523.620274 105.877895 
L 523.989737 117.151579 
L 524.728663 118.477895 
L 525.098126 99.246316 
L 525.467589 93.941053 
L 525.837052 112.509474 
L 526.206515 121.130526 
L 526.945441 119.804211 
L 527.314904 115.825263 
L 527.684367 113.172632 
L 528.05383 112.509474 
L 528.423293 47.52 
L 528.792756 93.941053 
L 529.162219 114.498947 
L 529.901145 120.467368 
L 530.270608 111.183158 
L 530.640072 108.530526 
L 531.009535 103.888421 
L 531.378998 118.477895 
L 531.748461 119.804211 
L 532.117924 117.814737 
L 532.487387 114.498947 
L 532.85685 113.172632 
L 533.226313 115.825263 
L 533.965239 93.941053 
L 534.334702 121.130526 
L 534.704165 122.456842 
L 535.073628 114.498947 
L 535.443091 120.467368 
L 535.812554 109.856842 
L 536.182017 120.467368 
L 536.55148 116.488421 
L 536.920943 119.804211 
L 537.290406 121.793684 
L 537.659869 115.162105 
L 538.029332 121.793684 
L 538.398795 120.467368 
L 538.768258 117.151579 
L 539.507184 123.12 
L 539.876647 122.456842 
L 540.24611 113.835789 
L 540.615573 120.467368 
L 540.985036 117.814737 
L 541.354499 119.141053 
L 541.723962 117.151579 
L 542.093425 118.477895 
L 542.462888 106.541053 
L 542.832351 120.467368 
L 543.201814 116.488421 
L 543.571277 120.467368 
L 543.94074 121.130526 
L 544.310203 119.804211 
L 544.679666 107.867368 
L 545.049129 123.12 
L 545.418592 111.846316 
L 545.788055 123.12 
L 546.157518 112.509474 
L 546.526981 62.772632 
L 546.896444 107.867368 
L 547.265907 121.130526 
L 547.63537 112.509474 
L 548.004833 116.488421 
L 548.374296 117.814737 
L 548.74376 121.130526 
L 549.113223 119.804211 
L 549.482686 80.677895 
L 549.852149 118.477895 
L 550.221612 115.162105 
L 550.591075 119.141053 
L 550.960538 114.498947 
L 551.330001 122.456842 
L 551.699464 118.477895 
L 552.068927 115.825263 
L 552.43839 118.477895 
L 553.177316 114.498947 
L 553.546779 121.793684 
L 553.916242 123.12 
L 554.285705 122.456842 
L 554.655168 121.130526 
L 555.024631 96.593684 
L 555.394094 115.825263 
L 555.763557 118.477895 
L 556.13302 119.804211 
L 556.502483 92.614737 
L 556.871946 115.825263 
L 557.241409 98.583158 
L 557.610872 120.467368 
L 557.980335 115.162105 
L 558.349798 113.172632 
L 558.719261 119.804211 
L 559.088724 121.130526 
L 559.458187 91.288421 
L 559.82765 122.456842 
L 560.197113 101.898947 
L 560.566576 93.941053 
L 560.936039 122.456842 
L 561.305502 115.162105 
L 561.674965 117.814737 
L 562.413891 100.572632 
L 562.783354 119.141053 
L 563.152817 105.877895 
L 563.52228 115.162105 
L 563.891743 117.151579 
L 564.261206 99.246316 
L 564.630669 119.804211 
L 565.000132 121.130526 
L 566.108521 101.235789 
L 566.847448 121.130526 
L 567.216911 111.183158 
L 567.586374 122.456842 
L 567.955837 117.814737 
L 568.3253 107.204211 
L 568.694763 89.962105 
L 569.064226 95.930526 
L 569.433689 97.256842 
L 569.803152 121.130526 
L 570.172615 121.130526 
L 570.542078 91.951579 
L 570.911541 107.867368 
L 571.281004 109.856842 
L 571.650467 122.456842 
L 572.01993 119.141053 
L 572.389393 104.551579 
L 572.758856 103.888421 
L 573.128319 103.888421 
L 573.497782 114.498947 
L 573.867245 108.530526 
L 574.236708 116.488421 
L 574.606171 107.867368 
L 574.975634 119.804211 
L 575.345097 121.130526 
L 575.71456 121.793684 
L 576.084023 119.804211 
L 576.453486 115.162105 
L 576.822949 115.162105 
L 577.561875 120.467368 
L 577.931338 121.793684 
L 578.300801 115.825263 
L 578.670264 105.877895 
L 579.039727 119.804211 
L 579.40919 117.151579 
L 579.778653 98.583158 
L 580.148116 123.12 
L 580.517579 121.130526 
L 580.887042 107.867368 
L 581.256505 105.214737 
L 581.995431 120.467368 
L 582.364894 109.193684 
L 582.734357 122.456842 
L 583.10382 119.141053 
L 583.473283 105.214737 
L 583.842746 114.498947 
L 584.212209 64.762105 
L 584.581673 107.204211 
L 584.951136 97.256842 
L 585.320599 114.498947 
L 585.690062 118.477895 
L 586.059525 115.162105 
L 586.428988 101.898947 
L 586.798451 114.498947 
L 587.167914 81.341053 
L 587.537377 104.551579 
L 587.90684 114.498947 
L 588.276303 101.898947 
L 588.645766 97.256842 
L 589.015229 90.625263 
L 589.384692 119.141053 
L 589.754155 114.498947 
L 590.123618 107.204211 
L 590.493081 119.141053 
L 590.862544 113.172632 
L 591.232007 119.804211 
L 591.60147 75.372632 
L 591.970933 95.267368 
L 592.340396 95.267368 
L 592.709859 107.204211 
L 593.079322 123.12 
L 593.448785 122.456842 
L 593.818248 99.246316 
L 594.187711 117.814737 
L 594.557174 108.530526 
L 595.2961 116.488421 
L 596.035026 117.814737 
L 596.404489 92.614737 
L 596.773952 108.530526 
L 597.143415 96.593684 
L 597.512878 108.530526 
L 597.882341 94.604211 
L 598.251804 115.162105 
L 598.621267 113.172632 
L 598.99073 89.962105 
L 599.360193 115.825263 
L 599.729656 103.225263 
L 600.468582 91.951579 
L 600.838045 118.477895 
L 601.207508 119.141053 
L 601.576971 116.488421 
L 601.946434 119.141053 
L 602.315898 102.562105 
L 602.685361 22.32 
L 603.054824 89.298947 
L 603.424287 121.130526 
L 603.79375 119.141053 
L 604.163213 110.52 
L 604.532676 95.930526 
L 604.902139 115.162105 
L 605.271602 113.835789 
L 605.641065 95.267368 
L 606.010528 121.130526 
L 606.379991 97.92 
L 606.749454 117.151579 
L 607.118917 122.456842 
L 607.48838 123.12 
L 608.227306 102.562105 
L 608.596769 108.530526 
L 608.966232 96.593684 
L 609.335695 103.225263 
L 609.705158 78.025263 
L 610.074621 85.983158 
L 610.444084 114.498947 
L 610.813547 116.488421 
L 611.18301 121.793684 
L 611.552473 103.225263 
L 612.291399 83.330526 
L 612.660862 99.909474 
L 613.030325 76.698947 
L 613.399788 113.835789 
L 613.769251 114.498947 
L 614.138714 72.056842 
L 614.508177 90.625263 
L 614.87764 91.951579 
L 615.247103 101.235789 
L 615.616566 101.898947 
L 615.986029 121.130526 
L 616.355492 118.477895 
L 616.724955 99.909474 
L 617.094418 93.941053 
L 617.463881 83.330526 
L 617.833344 95.930526 
L 618.202807 92.614737 
L 618.57227 119.141053 
L 618.941733 120.467368 
L 619.311196 88.635789 
L 619.680659 70.730526 
L 620.050122 95.267368 
L 620.419586 90.625263 
L 620.789049 91.951579 
L 621.158512 102.562105 
L 621.527975 105.214737 
L 622.266901 82.667368 
L 622.636364 90.625263 
L 622.636364 90.625263 
" clip-path="url(#p471750522e)" style="fill: none; stroke: #1f77b4; stroke-width: 1.5; stroke-linecap: square"/>
   </g>
   <g id="patch_3">
    <path d="M 90 128.16 
L 90 17.28 
" style="fill: none; stroke: #000000; stroke-width: 0.8; stroke-linejoin: miter; stroke-linecap: square"/>
   </g>
   <g id="patch_4">
    <path d="M 648 128.16 
L 648 17.28 
" style="fill: none; stroke: #000000; stroke-width: 0.8; stroke-linejoin: miter; stroke-linecap: square"/>
   </g>
   <g id="patch_5">
    <path d="M 90 128.16 
L 648 128.16 
" style="fill: none; stroke: #000000; stroke-width: 0.8; stroke-linejoin: miter; stroke-linecap: square"/>
   </g>
   <g id="patch_6">
    <path d="M 90 17.28 
L 648 17.28 
" style="fill: none; stroke: #000000; stroke-width: 0.8; stroke-linejoin: miter; stroke-linecap: square"/>
   </g>
   <g id="legend_1">
    <g id="patch_7">
     <path d="M 97 39.958125 
L 264.190625 39.958125 
Q 266.190625 39.958125 266.190625 37.958125 
L 266.190625 24.28 
Q 266.190625 22.28 264.190625 22.28 
L 97 22.28 
Q 95 22.28 95 24.28 
L 95 37.958125 
Q 95 39.958125 97 39.958125 
z
" style="fill: #ffffff; opacity: 0.8; stroke: #cccccc; stroke-linejoin: miter"/>
    </g>
    <g id="line2d_14">
     <path d="M 99 30.378437 
L 109 30.378437 
L 119 30.378437 
" style="fill: none; stroke: #1f77b4; stroke-width: 1.5; stroke-linecap: square"/>
    </g>
    <g id="text_13">
     <!-- Number of PyPI Downloads -->
     <g transform="translate(127 33.878437) scale(0.1 -0.1)">
      <defs>
       <path id="DejaVuSans-4e" d="M 628 4666 
L 1478 4666 
L 3547 763 
L 3547 4666 
L 4159 4666 
L 4159 0 
L 3309 0 
L 1241 3903 
L 1241 0 
L 628 0 
L 628 4666 
z
" transform="scale(0.015625)"/>
       <path id="DejaVuSans-75" d="M 544 1381 
L 544 3500 
L 1119 3500 
L 1119 1403 
Q 1119 906 1312 657 
Q 1506 409 1894 409 
Q 2359 409 2629 706 
Q 2900 1003 2900 1516 
L 2900 3500 
L 3475 3500 
L 3475 0 
L 2900 0 
L 2900 538 
Q 2691 219 2414 64 
Q 2138 -91 1772 -91 
Q 1169 -91 856 284 
Q 544 659 544 1381 
z
M 1991 3584 
L 1991 3584 
z
" transform="scale(0.015625)"/>
       <path id="DejaVuSans-6d" d="M 3328 2828 
Q 3544 3216 3844 3400 
Q 4144 3584 4550 3584 
Q 5097 3584 5394 3201 
Q 5691 2819 5691 2113 
L 5691 0 
L 5113 0 
L 5113 2094 
Q 5113 2597 4934 2840 
Q 4756 3084 4391 3084 
Q 3944 3084 3684 2787 
Q 3425 2491 3425 1978 
L 3425 0 
L 2847 0 
L 2847 2094 
Q 2847 2600 2669 2842 
Q 2491 3084 2119 3084 
Q 1678 3084 1418 2786 
Q 1159 2488 1159 1978 
L 1159 0 
L 581 0 
L 581 3500 
L 1159 3500 
L 1159 2956 
Q 1356 3278 1631 3431 
Q 1906 3584 2284 3584 
Q 2666 3584 2933 3390 
Q 3200 3197 3328 2828 
z
" transform="scale(0.015625)"/>
       <path id="DejaVuSans-62" d="M 3116 1747 
Q 3116 2381 2855 2742 
Q 2594 3103 2138 3103 
Q 1681 3103 1420 2742 
Q 1159 2381 1159 1747 
Q 1159 1113 1420 752 
Q 1681 391 2138 391 
Q 2594 391 2855 752 
Q 3116 1113 3116 1747 
z
M 1159 2969 
Q 1341 3281 1617 3432 
Q 1894 3584 2278 3584 
Q 2916 3584 3314 3078 
Q 3713 2572 3713 1747 
Q 3713 922 3314 415 
Q 2916 -91 2278 -91 
Q 1894 -91 1617 61 
Q 1341 213 1159 525 
L 1159 0 
L 581 0 
L 581 4863 
L 1159 4863 
L 1159 2969 
z
" transform="scale(0.015625)"/>
       <path id="DejaVuSans-72" d="M 2631 2963 
Q 2534 3019 2420 3045 
Q 2306 3072 2169 3072 
Q 1681 3072 1420 2755 
Q 1159 2438 1159 1844 
L 1159 0 
L 581 0 
L 581 3500 
L 1159 3500 
L 1159 2956 
Q 1341 3275 1631 3429 
Q 1922 3584 2338 3584 
Q 2397 3584 2469 3576 
Q 2541 3569 2628 3553 
L 2631 2963 
z
" transform="scale(0.015625)"/>
       <path id="DejaVuSans-20" transform="scale(0.015625)"/>
       <path id="DejaVuSans-6f" d="M 1959 3097 
Q 1497 3097 1228 2736 
Q 959 2375 959 1747 
Q 959 1119 1226 758 
Q 1494 397 1959 397 
Q 2419 397 2687 759 
Q 2956 1122 2956 1747 
Q 2956 2369 2687 2733 
Q 2419 3097 1959 3097 
z
M 1959 3584 
Q 2709 3584 3137 3096 
Q 3566 2609 3566 1747 
Q 3566 888 3137 398 
Q 2709 -91 1959 -91 
Q 1206 -91 779 398 
Q 353 888 353 1747 
Q 353 2609 779 3096 
Q 1206 3584 1959 3584 
z
" transform="scale(0.015625)"/>
       <path id="DejaVuSans-66" d="M 2375 4863 
L 2375 4384 
L 1825 4384 
Q 1516 4384 1395 4259 
Q 1275 4134 1275 3809 
L 1275 3500 
L 2222 3500 
L 2222 3053 
L 1275 3053 
L 1275 0 
L 697 0 
L 697 3053 
L 147 3053 
L 147 3500 
L 697 3500 
L 697 3744 
Q 697 4328 969 4595 
Q 1241 4863 1831 4863 
L 2375 4863 
z
" transform="scale(0.015625)"/>
       <path id="DejaVuSans-50" d="M 1259 4147 
L 1259 2394 
L 2053 2394 
Q 2494 2394 2734 2622 
Q 2975 2850 2975 3272 
Q 2975 3691 2734 3919 
Q 2494 4147 2053 4147 
L 1259 4147 
z
M 628 4666 
L 2053 4666 
Q 2838 4666 3239 4311 
Q 3641 3956 3641 3272 
Q 3641 2581 3239 2228 
Q 2838 1875 2053 1875 
L 1259 1875 
L 1259 0 
L 628 0 
L 628 4666 
z
" transform="scale(0.015625)"/>
       <path id="DejaVuSans-79" d="M 2059 -325 
Q 1816 -950 1584 -1140 
Q 1353 -1331 966 -1331 
L 506 -1331 
L 506 -850 
L 844 -850 
Q 1081 -850 1212 -737 
Q 1344 -625 1503 -206 
L 1606 56 
L 191 3500 
L 800 3500 
L 1894 763 
L 2988 3500 
L 3597 3500 
L 2059 -325 
z
" transform="scale(0.015625)"/>
       <path id="DejaVuSans-49" d="M 628 4666 
L 1259 4666 
L 1259 0 
L 628 0 
L 628 4666 
z
" transform="scale(0.015625)"/>
       <path id="DejaVuSans-44" d="M 1259 4147 
L 1259 519 
L 2022 519 
Q 2988 519 3436 956 
Q 3884 1394 3884 2338 
Q 3884 3275 3436 3711 
Q 2988 4147 2022 4147 
L 1259 4147 
z
M 628 4666 
L 1925 4666 
Q 3281 4666 3915 4102 
Q 4550 3538 4550 2338 
Q 4550 1131 3912 565 
Q 3275 0 1925 0 
L 628 0 
L 628 4666 
z
" transform="scale(0.015625)"/>
       <path id="DejaVuSans-77" d="M 269 3500 
L 844 3500 
L 1563 769 
L 2278 3500 
L 2956 3500 
L 3675 769 
L 4391 3500 
L 4966 3500 
L 4050 0 
L 3372 0 
L 2619 2869 
L 1863 0 
L 1184 0 
L 269 3500 
z
" transform="scale(0.015625)"/>
       <path id="DejaVuSans-6e" d="M 3513 2113 
L 3513 0 
L 2938 0 
L 2938 2094 
Q 2938 2591 2744 2837 
Q 2550 3084 2163 3084 
Q 1697 3084 1428 2787 
Q 1159 2491 1159 1978 
L 1159 0 
L 581 0 
L 581 3500 
L 1159 3500 
L 1159 2956 
Q 1366 3272 1645 3428 
Q 1925 3584 2291 3584 
Q 2894 3584 3203 3211 
Q 3513 2838 3513 2113 
z
" transform="scale(0.015625)"/>
       <path id="DejaVuSans-6c" d="M 603 4863 
L 1178 4863 
L 1178 0 
L 603 0 
L 603 4863 
z
" transform="scale(0.015625)"/>
       <path id="DejaVuSans-73" d="M 2834 3397 
L 2834 2853 
Q 2591 2978 2328 3040 
Q 2066 3103 1784 3103 
Q 1356 3103 1142 2972 
Q 928 2841 928 2578 
Q 928 2378 1081 2264 
Q 1234 2150 1697 2047 
L 1894 2003 
Q 2506 1872 2764 1633 
Q 3022 1394 3022 966 
Q 3022 478 2636 193 
Q 2250 -91 1575 -91 
Q 1294 -91 989 -36 
Q 684 19 347 128 
L 347 722 
Q 666 556 975 473 
Q 1284 391 1588 391 
Q 1994 391 2212 530 
Q 2431 669 2431 922 
Q 2431 1156 2273 1281 
Q 2116 1406 1581 1522 
L 1381 1569 
Q 847 1681 609 1914 
Q 372 2147 372 2553 
Q 372 3047 722 3315 
Q 1072 3584 1716 3584 
Q 2034 3584 2315 3537 
Q 2597 3491 2834 3397 
z
" transform="scale(0.015625)"/>
      </defs>
      <use xlink:href="#DejaVuSans-4e"/>
      <use xlink:href="#DejaVuSans-75" x="74.804688"/>
      <use xlink:href="#DejaVuSans-6d" x="138.183594"/>
      <use xlink:href="#DejaVuSans-62" x="235.595703"/>
      <use xlink:href="#DejaVuSans-65" x="299.072266"/>
      <use xlink:href="#DejaVuSans-72" x="360.595703"/>
      <use xlink:href="#DejaVuSans-20" x="401.708984"/>
      <use xlink:href="#DejaVuSans-6f" x="433.496094"/>
      <use xlink:href="#DejaVuSans-66" x="494.677734"/>
      <use xlink:href="#DejaVuSans-20" x="529.882812"/>
      <use xlink:href="#DejaVuSans-50" x="561.669922"/>
      <use xlink:href="#DejaVuSans-79" x="621.972656"/>
      <use xlink:href="#DejaVuSans-50" x="681.152344"/>
      <use xlink:href="#DejaVuSans-49" x="741.455078"/>
      <use xlink:href="#DejaVuSans-20" x="770.947266"/>
      <use xlink:href="#DejaVuSans-44" x="802.734375"/>
      <use xlink:href="#DejaVuSans-6f" x="879.736328"/>
      <use xlink:href="#DejaVuSans-77" x="940.917969"/>
      <use xlink:href="#DejaVuSans-6e" x="1022.705078"/>
      <use xlink:href="#DejaVuSans-6c" x="1086.083984"/>
      <use xlink:href="#DejaVuSans-6f" x="1113.867188"/>
      <use xlink:href="#DejaVuSans-61" x="1175.048828"/>
      <use xlink:href="#DejaVuSans-64" x="1236.328125"/>
      <use xlink:href="#DejaVuSans-73" x="1299.804688"/>
     </g>
    </g>
   </g>
  </g>
 </g>
 <defs>
  <clipPath id="p471750522e">
   <rect x="90" y="17.28" width="558" height="110.88"/>
  </clipPath>
 </defs>
</svg>
