<?xml version="1.0" encoding="utf-8" standalone="no"?>
<!DOCTYPE svg PUBLIC "-//W3C//DTD SVG 1.1//EN"
  "http://www.w3.org/Graphics/SVG/1.1/DTD/svg11.dtd">
<svg xmlns:xlink="http://www.w3.org/1999/xlink" width="720pt" height="144pt" viewBox="0 0 720 144" xmlns="http://www.w3.org/2000/svg" version="1.1">
 <metadata>
  <rdf:RDF xmlns:dc="http://purl.org/dc/elements/1.1/" xmlns:cc="http://creativecommons.org/ns#" xmlns:rdf="http://www.w3.org/1999/02/22-rdf-syntax-ns#">
   <cc:Work>
    <dc:type rdf:resource="http://purl.org/dc/dcmitype/StillImage"/>
    <dc:date>2023-07-01T20:57:02.983701</dc:date>
    <dc:format>image/svg+xml</dc:format>
    <dc:creator>
     <cc:Agent>
      <dc:title>Matplotlib v3.7.1, https://matplotlib.org/</dc:title>
     </cc:Agent>
    </dc:creator>
   </cc:Work>
  </rdf:RDF>
 </metadata>
 <defs>
  <style type="text/css">*{stroke-linejoin: round; stroke-linecap: butt}</style>
 </defs>
 <g id="figure_1">
  <g id="patch_1">
   <path d="M 0 144 
L 720 144 
L 720 0 
L 0 0 
z
" style="fill: #ffffff"/>
  </g>
  <g id="axes_1">
   <g id="patch_2">
    <path d="M 90 128.16 
L 648 128.16 
L 648 17.28 
L 90 17.28 
z
" style="fill: #ffffff"/>
   </g>
   <g id="matplotlib.axis_1">
    <g id="xtick_1">
     <g id="line2d_1">
      <defs>
       <path id="m8e7ec53023" d="M 0 0 
L 0 3.5 
" style="stroke: #000000; stroke-width: 0.8"/>
      </defs>
      <g>
       <use xlink:href="#m8e7ec53023" x="115.363636" y="128.16" style="stroke: #000000; stroke-width: 0.8"/>
      </g>
     </g>
     <g id="text_1">
      <!-- 2020-06-18 -->
      <g transform="translate(86.305824 142.758438) scale(0.1 -0.1)">
       <defs>
        <path id="DejaVuSans-32" d="M 1228 531 
L 3431 531 
L 3431 0 
L 469 0 
L 469 531 
Q 828 903 1448 1529 
Q 2069 2156 2228 2338 
Q 2531 2678 2651 2914 
Q 2772 3150 2772 3378 
Q 2772 3750 2511 3984 
Q 2250 4219 1831 4219 
Q 1534 4219 1204 4116 
Q 875 4013 500 3803 
L 500 4441 
Q 881 4594 1212 4672 
Q 1544 4750 1819 4750 
Q 2544 4750 2975 4387 
Q 3406 4025 3406 3419 
Q 3406 3131 3298 2873 
Q 3191 2616 2906 2266 
Q 2828 2175 2409 1742 
Q 1991 1309 1228 531 
z
" transform="scale(0.015625)"/>
        <path id="DejaVuSans-30" d="M 2034 4250 
Q 1547 4250 1301 3770 
Q 1056 3291 1056 2328 
Q 1056 1369 1301 889 
Q 1547 409 2034 409 
Q 2525 409 2770 889 
Q 3016 1369 3016 2328 
Q 3016 3291 2770 3770 
Q 2525 4250 2034 4250 
z
M 2034 4750 
Q 2819 4750 3233 4129 
Q 3647 3509 3647 2328 
Q 3647 1150 3233 529 
Q 2819 -91 2034 -91 
Q 1250 -91 836 529 
Q 422 1150 422 2328 
Q 422 3509 836 4129 
Q 1250 4750 2034 4750 
z
" transform="scale(0.015625)"/>
        <path id="DejaVuSans-2d" d="M 313 2009 
L 1997 2009 
L 1997 1497 
L 313 1497 
L 313 2009 
z
" transform="scale(0.015625)"/>
        <path id="DejaVuSans-36" d="M 2113 2584 
Q 1688 2584 1439 2293 
Q 1191 2003 1191 1497 
Q 1191 994 1439 701 
Q 1688 409 2113 409 
Q 2538 409 2786 701 
Q 3034 994 3034 1497 
Q 3034 2003 2786 2293 
Q 2538 2584 2113 2584 
z
M 3366 4563 
L 3366 3988 
Q 3128 4100 2886 4159 
Q 2644 4219 2406 4219 
Q 1781 4219 1451 3797 
Q 1122 3375 1075 2522 
Q 1259 2794 1537 2939 
Q 1816 3084 2150 3084 
Q 2853 3084 3261 2657 
Q 3669 2231 3669 1497 
Q 3669 778 3244 343 
Q 2819 -91 2113 -91 
Q 1303 -91 875 529 
Q 447 1150 447 2328 
Q 447 3434 972 4092 
Q 1497 4750 2381 4750 
Q 2619 4750 2861 4703 
Q 3103 4656 3366 4563 
z
" transform="scale(0.015625)"/>
        <path id="DejaVuSans-31" d="M 794 531 
L 1825 531 
L 1825 4091 
L 703 3866 
L 703 4441 
L 1819 4666 
L 2450 4666 
L 2450 531 
L 3481 531 
L 3481 0 
L 794 0 
L 794 531 
z
" transform="scale(0.015625)"/>
        <path id="DejaVuSans-38" d="M 2034 2216 
Q 1584 2216 1326 1975 
Q 1069 1734 1069 1313 
Q 1069 891 1326 650 
Q 1584 409 2034 409 
Q 2484 409 2743 651 
Q 3003 894 3003 1313 
Q 3003 1734 2745 1975 
Q 2488 2216 2034 2216 
z
M 1403 2484 
Q 997 2584 770 2862 
Q 544 3141 544 3541 
Q 544 4100 942 4425 
Q 1341 4750 2034 4750 
Q 2731 4750 3128 4425 
Q 3525 4100 3525 3541 
Q 3525 3141 3298 2862 
Q 3072 2584 2669 2484 
Q 3125 2378 3379 2068 
Q 3634 1759 3634 1313 
Q 3634 634 3220 271 
Q 2806 -91 2034 -91 
Q 1263 -91 848 271 
Q 434 634 434 1313 
Q 434 1759 690 2068 
Q 947 2378 1403 2484 
z
M 1172 3481 
Q 1172 3119 1398 2916 
Q 1625 2713 2034 2713 
Q 2441 2713 2670 2916 
Q 2900 3119 2900 3481 
Q 2900 3844 2670 4047 
Q 2441 4250 2034 4250 
Q 1625 4250 1398 4047 
Q 1172 3844 1172 3481 
z
" transform="scale(0.015625)"/>
       </defs>
       <use xlink:href="#DejaVuSans-32"/>
       <use xlink:href="#DejaVuSans-30" x="63.623047"/>
       <use xlink:href="#DejaVuSans-32" x="127.246094"/>
       <use xlink:href="#DejaVuSans-30" x="190.869141"/>
       <use xlink:href="#DejaVuSans-2d" x="254.492188"/>
       <use xlink:href="#DejaVuSans-30" x="290.576172"/>
       <use xlink:href="#DejaVuSans-36" x="354.199219"/>
       <use xlink:href="#DejaVuSans-2d" x="417.822266"/>
       <use xlink:href="#DejaVuSans-31" x="453.90625"/>
       <use xlink:href="#DejaVuSans-38" x="517.529297"/>
      </g>
     </g>
    </g>
    <g id="xtick_2">
     <g id="line2d_2">
      <g>
       <use xlink:href="#m8e7ec53023" x="217.946594" y="128.16" style="stroke: #000000; stroke-width: 0.8"/>
      </g>
     </g>
     <g id="text_2">
      <!-- 2021-03-13 -->
      <g transform="translate(188.888782 142.758438) scale(0.1 -0.1)">
       <defs>
        <path id="DejaVuSans-33" d="M 2597 2516 
Q 3050 2419 3304 2112 
Q 3559 1806 3559 1356 
Q 3559 666 3084 287 
Q 2609 -91 1734 -91 
Q 1441 -91 1130 -33 
Q 819 25 488 141 
L 488 750 
Q 750 597 1062 519 
Q 1375 441 1716 441 
Q 2309 441 2620 675 
Q 2931 909 2931 1356 
Q 2931 1769 2642 2001 
Q 2353 2234 1838 2234 
L 1294 2234 
L 1294 2753 
L 1863 2753 
Q 2328 2753 2575 2939 
Q 2822 3125 2822 3475 
Q 2822 3834 2567 4026 
Q 2313 4219 1838 4219 
Q 1578 4219 1281 4162 
Q 984 4106 628 3988 
L 628 4550 
Q 988 4650 1302 4700 
Q 1616 4750 1894 4750 
Q 2613 4750 3031 4423 
Q 3450 4097 3450 3541 
Q 3450 3153 3228 2886 
Q 3006 2619 2597 2516 
z
" transform="scale(0.015625)"/>
       </defs>
       <use xlink:href="#DejaVuSans-32"/>
       <use xlink:href="#DejaVuSans-30" x="63.623047"/>
       <use xlink:href="#DejaVuSans-32" x="127.246094"/>
       <use xlink:href="#DejaVuSans-31" x="190.869141"/>
       <use xlink:href="#DejaVuSans-2d" x="254.492188"/>
       <use xlink:href="#DejaVuSans-30" x="290.576172"/>
       <use xlink:href="#DejaVuSans-33" x="354.199219"/>
       <use xlink:href="#DejaVuSans-2d" x="417.822266"/>
       <use xlink:href="#DejaVuSans-31" x="453.90625"/>
       <use xlink:href="#DejaVuSans-33" x="517.529297"/>
      </g>
     </g>
    </g>
    <g id="xtick_3">
     <g id="line2d_3">
      <g>
       <use xlink:href="#m8e7ec53023" x="320.529552" y="128.16" style="stroke: #000000; stroke-width: 0.8"/>
      </g>
     </g>
     <g id="text_3">
      <!-- 2021-10-16 -->
      <g transform="translate(291.47174 142.758438) scale(0.1 -0.1)">
       <use xlink:href="#DejaVuSans-32"/>
       <use xlink:href="#DejaVuSans-30" x="63.623047"/>
       <use xlink:href="#DejaVuSans-32" x="127.246094"/>
       <use xlink:href="#DejaVuSans-31" x="190.869141"/>
       <use xlink:href="#DejaVuSans-2d" x="254.492188"/>
       <use xlink:href="#DejaVuSans-31" x="290.576172"/>
       <use xlink:href="#DejaVuSans-30" x="354.199219"/>
       <use xlink:href="#DejaVuSans-2d" x="417.822266"/>
       <use xlink:href="#DejaVuSans-31" x="453.90625"/>
       <use xlink:href="#DejaVuSans-36" x="517.529297"/>
      </g>
     </g>
    </g>
    <g id="xtick_4">
     <g id="line2d_4">
      <g>
       <use xlink:href="#m8e7ec53023" x="423.11251" y="128.16" style="stroke: #000000; stroke-width: 0.8"/>
      </g>
     </g>
     <g id="text_4">
      <!-- 2022-05-12 -->
      <g transform="translate(394.054698 142.758438) scale(0.1 -0.1)">
       <defs>
        <path id="DejaVuSans-35" d="M 691 4666 
L 3169 4666 
L 3169 4134 
L 1269 4134 
L 1269 2991 
Q 1406 3038 1543 3061 
Q 1681 3084 1819 3084 
Q 2600 3084 3056 2656 
Q 3513 2228 3513 1497 
Q 3513 744 3044 326 
Q 2575 -91 1722 -91 
Q 1428 -91 1123 -41 
Q 819 9 494 109 
L 494 744 
Q 775 591 1075 516 
Q 1375 441 1709 441 
Q 2250 441 2565 725 
Q 2881 1009 2881 1497 
Q 2881 1984 2565 2268 
Q 2250 2553 1709 2553 
Q 1456 2553 1204 2497 
Q 953 2441 691 2322 
L 691 4666 
z
" transform="scale(0.015625)"/>
       </defs>
       <use xlink:href="#DejaVuSans-32"/>
       <use xlink:href="#DejaVuSans-30" x="63.623047"/>
       <use xlink:href="#DejaVuSans-32" x="127.246094"/>
       <use xlink:href="#DejaVuSans-32" x="190.869141"/>
       <use xlink:href="#DejaVuSans-2d" x="254.492188"/>
       <use xlink:href="#DejaVuSans-30" x="290.576172"/>
       <use xlink:href="#DejaVuSans-35" x="354.199219"/>
       <use xlink:href="#DejaVuSans-2d" x="417.822266"/>
       <use xlink:href="#DejaVuSans-31" x="453.90625"/>
       <use xlink:href="#DejaVuSans-32" x="517.529297"/>
      </g>
     </g>
    </g>
    <g id="xtick_5">
     <g id="line2d_5">
      <g>
       <use xlink:href="#m8e7ec53023" x="525.695468" y="128.16" style="stroke: #000000; stroke-width: 0.8"/>
      </g>
     </g>
     <g id="text_5">
      <!-- 2022-12-07 -->
      <g transform="translate(496.637656 142.758438) scale(0.1 -0.1)">
       <defs>
        <path id="DejaVuSans-37" d="M 525 4666 
L 3525 4666 
L 3525 4397 
L 1831 0 
L 1172 0 
L 2766 4134 
L 525 4134 
L 525 4666 
z
" transform="scale(0.015625)"/>
       </defs>
       <use xlink:href="#DejaVuSans-32"/>
       <use xlink:href="#DejaVuSans-30" x="63.623047"/>
       <use xlink:href="#DejaVuSans-32" x="127.246094"/>
       <use xlink:href="#DejaVuSans-32" x="190.869141"/>
       <use xlink:href="#DejaVuSans-2d" x="254.492188"/>
       <use xlink:href="#DejaVuSans-31" x="290.576172"/>
       <use xlink:href="#DejaVuSans-32" x="354.199219"/>
       <use xlink:href="#DejaVuSans-2d" x="417.822266"/>
       <use xlink:href="#DejaVuSans-30" x="453.90625"/>
       <use xlink:href="#DejaVuSans-37" x="517.529297"/>
      </g>
     </g>
    </g>
    <g id="xtick_6">
     <g id="line2d_6">
      <g>
       <use xlink:href="#m8e7ec53023" x="628.278426" y="128.16" style="stroke: #000000; stroke-width: 0.8"/>
      </g>
     </g>
    </g>
    <g id="text_6">
     <!-- date -->
     <g transform="translate(357.725 156.436563) scale(0.1 -0.1)">
      <defs>
       <path id="DejaVuSans-64" d="M 2906 2969 
L 2906 4863 
L 3481 4863 
L 3481 0 
L 2906 0 
L 2906 525 
Q 2725 213 2448 61 
Q 2172 -91 1784 -91 
Q 1150 -91 751 415 
Q 353 922 353 1747 
Q 353 2572 751 3078 
Q 1150 3584 1784 3584 
Q 2172 3584 2448 3432 
Q 2725 3281 2906 2969 
z
M 947 1747 
Q 947 1113 1208 752 
Q 1469 391 1925 391 
Q 2381 391 2643 752 
Q 2906 1113 2906 1747 
Q 2906 2381 2643 2742 
Q 2381 3103 1925 3103 
Q 1469 3103 1208 2742 
Q 947 2381 947 1747 
z
" transform="scale(0.015625)"/>
       <path id="DejaVuSans-61" d="M 2194 1759 
Q 1497 1759 1228 1600 
Q 959 1441 959 1056 
Q 959 750 1161 570 
Q 1363 391 1709 391 
Q 2188 391 2477 730 
Q 2766 1069 2766 1631 
L 2766 1759 
L 2194 1759 
z
M 3341 1997 
L 3341 0 
L 2766 0 
L 2766 531 
Q 2569 213 2275 61 
Q 1981 -91 1556 -91 
Q 1019 -91 701 211 
Q 384 513 384 1019 
Q 384 1609 779 1909 
Q 1175 2209 1959 2209 
L 2766 2209 
L 2766 2266 
Q 2766 2663 2505 2880 
Q 2244 3097 1772 3097 
Q 1472 3097 1187 3025 
Q 903 2953 641 2809 
L 641 3341 
Q 956 3463 1253 3523 
Q 1550 3584 1831 3584 
Q 2591 3584 2966 3190 
Q 3341 2797 3341 1997 
z
" transform="scale(0.015625)"/>
       <path id="DejaVuSans-74" d="M 1172 4494 
L 1172 3500 
L 2356 3500 
L 2356 3053 
L 1172 3053 
L 1172 1153 
Q 1172 725 1289 603 
Q 1406 481 1766 481 
L 2356 481 
L 2356 0 
L 1766 0 
Q 1100 0 847 248 
Q 594 497 594 1153 
L 594 3053 
L 172 3053 
L 172 3500 
L 594 3500 
L 594 4494 
L 1172 4494 
z
" transform="scale(0.015625)"/>
       <path id="DejaVuSans-65" d="M 3597 1894 
L 3597 1613 
L 953 1613 
Q 991 1019 1311 708 
Q 1631 397 2203 397 
Q 2534 397 2845 478 
Q 3156 559 3463 722 
L 3463 178 
Q 3153 47 2828 -22 
Q 2503 -91 2169 -91 
Q 1331 -91 842 396 
Q 353 884 353 1716 
Q 353 2575 817 3079 
Q 1281 3584 2069 3584 
Q 2775 3584 3186 3129 
Q 3597 2675 3597 1894 
z
M 3022 2063 
Q 3016 2534 2758 2815 
Q 2500 3097 2075 3097 
Q 1594 3097 1305 2825 
Q 1016 2553 972 2059 
L 3022 2063 
z
" transform="scale(0.015625)"/>
      </defs>
      <use xlink:href="#DejaVuSans-64"/>
      <use xlink:href="#DejaVuSans-61" x="63.476562"/>
      <use xlink:href="#DejaVuSans-74" x="124.755859"/>
      <use xlink:href="#DejaVuSans-65" x="163.964844"/>
     </g>
    </g>
   </g>
   <g id="matplotlib.axis_2">
    <g id="ytick_1">
     <g id="line2d_7">
      <defs>
       <path id="me1d588ebdc" d="M 0 0 
L -3.5 0 
" style="stroke: #000000; stroke-width: 0.8"/>
      </defs>
      <g>
       <use xlink:href="#me1d588ebdc" x="90" y="123.895385" style="stroke: #000000; stroke-width: 0.8"/>
      </g>
     </g>
     <g id="text_7">
      <!-- 0 -->
      <g transform="translate(76.6375 127.694603) scale(0.1 -0.1)">
       <use xlink:href="#DejaVuSans-30"/>
      </g>
     </g>
    </g>
    <g id="ytick_2">
     <g id="line2d_8">
      <g>
       <use xlink:href="#me1d588ebdc" x="90" y="85.126154" style="stroke: #000000; stroke-width: 0.8"/>
      </g>
     </g>
     <g id="text_8">
      <!-- 50 -->
      <g transform="translate(70.275 88.925373) scale(0.1 -0.1)">
       <use xlink:href="#DejaVuSans-35"/>
       <use xlink:href="#DejaVuSans-30" x="63.623047"/>
      </g>
     </g>
    </g>
    <g id="ytick_3">
     <g id="line2d_9">
      <g>
       <use xlink:href="#me1d588ebdc" x="90" y="46.356923" style="stroke: #000000; stroke-width: 0.8"/>
      </g>
     </g>
     <g id="text_9">
      <!-- 100 -->
      <g transform="translate(63.9125 50.156142) scale(0.1 -0.1)">
       <use xlink:href="#DejaVuSans-31"/>
       <use xlink:href="#DejaVuSans-30" x="63.623047"/>
       <use xlink:href="#DejaVuSans-30" x="127.246094"/>
      </g>
     </g>
    </g>
   </g>
   <g id="line2d_10">
    <path d="M 115.363636 106.836923 
L 115.876551 113.04 
L 116.389466 120.793846 
L 117.92821 123.12 
L 118.441125 121.569231 
L 118.95404 117.692308 
L 119.466955 122.344615 
L 119.979869 121.569231 
L 120.492784 122.344615 
L 121.005699 105.286154 
L 121.518614 118.467692 
L 122.031529 121.569231 
L 122.544443 117.692308 
L 123.057358 122.344615 
L 123.570273 119.243077 
L 124.083188 118.467692 
L 124.596103 123.12 
L 125.109017 121.569231 
L 125.621932 116.141538 
L 126.134847 117.692308 
L 126.647762 120.793846 
L 127.160677 121.569231 
L 127.673591 121.569231 
L 128.699421 123.12 
L 129.212336 116.916923 
L 129.72525 84.350769 
L 130.238165 119.243077 
L 130.75108 121.569231 
L 131.263995 121.569231 
L 131.77691 120.018462 
L 132.289824 122.344615 
L 132.802739 120.793846 
L 133.315654 123.12 
L 133.828569 121.569231 
L 134.341484 121.569231 
L 134.854398 123.12 
L 135.367313 122.344615 
L 135.880228 120.793846 
L 136.393143 120.793846 
L 136.906058 119.243077 
L 137.418972 123.12 
L 137.931887 123.12 
L 138.444802 122.344615 
L 138.957717 122.344615 
L 139.470631 123.12 
L 139.983546 123.12 
L 140.496461 111.489231 
L 141.009376 120.018462 
L 141.522291 118.467692 
L 142.035205 122.344615 
L 142.54812 120.018462 
L 143.061035 118.467692 
L 143.57395 120.018462 
L 144.086865 123.12 
L 144.599779 122.344615 
L 145.112694 120.018462 
L 145.625609 123.12 
L 146.651439 121.569231 
L 147.164353 118.467692 
L 148.190183 123.12 
L 148.703098 120.793846 
L 149.216013 120.018462 
L 149.728927 123.12 
L 150.241842 120.793846 
L 150.754757 123.12 
L 151.267672 122.344615 
L 151.780586 120.018462 
L 152.293501 123.12 
L 152.806416 122.344615 
L 153.319331 122.344615 
L 153.832246 123.12 
L 154.34516 120.018462 
L 154.858075 123.12 
L 155.37099 121.569231 
L 156.39682 121.569231 
L 156.909734 120.793846 
L 157.422649 119.243077 
L 157.935564 121.569231 
L 158.448479 119.243077 
L 158.961394 123.12 
L 159.987223 121.569231 
L 160.500138 120.018462 
L 161.013053 122.344615 
L 161.525967 123.12 
L 162.038882 122.344615 
L 162.551797 120.793846 
L 163.064712 121.569231 
L 163.577627 123.12 
L 164.090541 113.04 
L 164.603456 123.12 
L 165.116371 121.569231 
L 165.629286 120.793846 
L 166.142201 123.12 
L 166.655115 120.793846 
L 167.16803 117.692308 
L 167.680945 121.569231 
L 168.19386 123.12 
L 168.706775 123.12 
L 169.219689 122.344615 
L 169.732604 123.12 
L 170.245519 123.12 
L 170.758434 122.344615 
L 171.271348 122.344615 
L 171.784263 121.569231 
L 172.297178 122.344615 
L 173.835922 120.018462 
L 174.348837 121.569231 
L 174.861752 121.569231 
L 175.887582 120.018462 
L 176.400496 122.344615 
L 176.913411 123.12 
L 177.426326 118.467692 
L 177.939241 122.344615 
L 178.452156 122.344615 
L 178.96507 117.692308 
L 179.477985 121.569231 
L 179.9909 121.569231 
L 180.503815 104.510769 
L 181.016729 120.018462 
L 181.529644 121.569231 
L 182.042559 118.467692 
L 182.555474 122.344615 
L 183.068389 119.243077 
L 183.581303 122.344615 
L 184.094218 117.692308 
L 184.607133 120.018462 
L 185.120048 123.12 
L 185.632963 122.344615 
L 186.145877 113.815385 
L 186.658792 120.018462 
L 187.171707 122.344615 
L 187.684622 123.12 
L 188.197537 123.12 
L 188.710451 117.692308 
L 189.223366 123.12 
L 189.736281 123.12 
L 190.249196 120.793846 
L 190.76211 123.12 
L 191.275025 123.12 
L 192.300855 120.018462 
L 192.81377 123.12 
L 193.326684 121.569231 
L 194.352514 123.12 
L 194.865429 120.018462 
L 195.378344 123.12 
L 195.891258 123.12 
L 196.404173 122.344615 
L 196.917088 123.12 
L 197.430003 123.12 
L 197.942918 120.018462 
L 198.968747 123.12 
L 199.994577 121.569231 
L 200.507491 121.569231 
L 201.020406 122.344615 
L 201.533321 120.793846 
L 202.046236 122.344615 
L 202.559151 123.12 
L 203.58498 123.12 
L 204.097895 120.018462 
L 204.61081 123.12 
L 205.123725 122.344615 
L 205.636639 123.12 
L 206.149554 120.018462 
L 206.662469 121.569231 
L 207.175384 122.344615 
L 207.688299 122.344615 
L 208.201213 120.793846 
L 208.714128 122.344615 
L 209.227043 121.569231 
L 209.739958 121.569231 
L 210.252873 122.344615 
L 210.765787 122.344615 
L 211.278702 123.12 
L 211.791617 118.467692 
L 212.304532 122.344615 
L 212.817446 122.344615 
L 213.330361 123.12 
L 213.843276 122.344615 
L 214.356191 123.12 
L 214.869106 123.12 
L 215.894935 121.569231 
L 216.40785 115.366154 
L 216.920765 100.633846 
L 217.43368 117.692308 
L 217.946594 123.12 
L 218.459509 122.344615 
L 218.972424 118.467692 
L 219.485339 120.018462 
L 219.998254 119.243077 
L 220.511168 113.04 
L 221.024083 123.12 
L 221.536998 122.344615 
L 222.049913 120.793846 
L 222.562827 118.467692 
L 223.075742 115.366154 
L 223.588657 106.061538 
L 224.101572 112.264615 
L 224.614487 122.344615 
L 225.127401 97.532308 
L 225.640316 111.489231 
L 226.153231 117.692308 
L 226.666146 113.04 
L 227.179061 120.018462 
L 227.691975 113.04 
L 228.20489 113.815385 
L 228.717805 112.264615 
L 229.23072 106.061538 
L 229.743635 121.569231 
L 230.256549 118.467692 
L 230.769464 121.569231 
L 231.282379 123.12 
L 231.795294 120.018462 
L 232.308208 123.12 
L 232.821123 121.569231 
L 233.334038 123.12 
L 233.846953 122.344615 
L 234.359868 113.04 
L 234.872782 121.569231 
L 235.385697 119.243077 
L 235.898612 120.793846 
L 236.411527 120.018462 
L 236.924442 123.12 
L 237.437356 118.467692 
L 237.950271 120.018462 
L 238.463186 122.344615 
L 238.976101 119.243077 
L 239.489016 123.12 
L 240.00193 121.569231 
L 240.514845 123.12 
L 241.02776 120.793846 
L 241.540675 122.344615 
L 242.053589 120.793846 
L 242.566504 120.018462 
L 243.079419 122.344615 
L 244.105249 122.344615 
L 244.618163 120.793846 
L 245.131078 120.018462 
L 245.643993 106.836923 
L 246.156908 108.387692 
L 246.669823 121.569231 
L 247.182737 122.344615 
L 247.695652 119.243077 
L 248.208567 120.018462 
L 248.721482 118.467692 
L 249.234397 122.344615 
L 249.747311 123.12 
L 250.260226 119.243077 
L 250.773141 118.467692 
L 251.286056 116.141538 
L 251.79897 122.344615 
L 252.311885 120.018462 
L 252.8248 122.344615 
L 253.337715 122.344615 
L 253.85063 123.12 
L 254.876459 120.018462 
L 255.902289 123.12 
L 256.415204 121.569231 
L 256.928118 122.344615 
L 257.441033 118.467692 
L 257.953948 116.916923 
L 258.466863 118.467692 
L 258.979778 119.243077 
L 259.492692 117.692308 
L 260.005607 111.489231 
L 260.518522 119.243077 
L 261.031437 120.793846 
L 261.544352 120.018462 
L 262.057266 117.692308 
L 262.570181 112.264615 
L 263.083096 122.344615 
L 263.596011 121.569231 
L 264.108925 123.12 
L 264.62184 116.916923 
L 265.134755 117.692308 
L 265.64767 120.793846 
L 266.160585 116.141538 
L 266.673499 114.590769 
L 267.186414 122.344615 
L 267.699329 122.344615 
L 268.212244 116.141538 
L 268.725159 102.184615 
L 269.238073 113.04 
L 269.750988 119.243077 
L 270.263903 120.018462 
L 270.776818 120.018462 
L 271.802647 121.569231 
L 272.315562 119.243077 
L 272.828477 119.243077 
L 273.341392 122.344615 
L 273.854306 122.344615 
L 274.367221 121.569231 
L 274.880136 122.344615 
L 275.393051 117.692308 
L 275.905966 117.692308 
L 276.41888 119.243077 
L 276.931795 116.916923 
L 277.44471 111.489231 
L 277.957625 117.692308 
L 278.47054 117.692308 
L 278.983454 121.569231 
L 279.496369 121.569231 
L 280.009284 118.467692 
L 280.522199 123.12 
L 281.035114 109.938462 
L 281.548028 108.387692 
L 282.060943 119.243077 
L 282.573858 120.018462 
L 283.086773 113.04 
L 284.112602 121.569231 
L 284.625517 120.018462 
L 285.138432 123.12 
L 285.651347 116.916923 
L 286.164261 106.836923 
L 286.677176 122.344615 
L 287.190091 121.569231 
L 288.215921 123.12 
L 288.728835 120.793846 
L 289.24175 108.387692 
L 289.754665 117.692308 
L 290.26758 122.344615 
L 290.780495 122.344615 
L 291.293409 111.489231 
L 291.806324 121.569231 
L 292.319239 122.344615 
L 292.832154 121.569231 
L 294.883813 121.569231 
L 295.396728 120.018462 
L 295.909642 123.12 
L 296.422557 122.344615 
L 296.935472 122.344615 
L 297.448387 123.12 
L 297.961302 123.12 
L 298.474216 122.344615 
L 298.987131 123.12 
L 299.500046 119.243077 
L 300.012961 122.344615 
L 300.525876 120.018462 
L 301.03879 120.018462 
L 301.551705 118.467692 
L 302.06462 120.018462 
L 302.577535 123.12 
L 303.090449 121.569231 
L 304.116279 121.569231 
L 304.629194 123.12 
L 305.142109 122.344615 
L 305.655023 122.344615 
L 306.167938 120.793846 
L 306.680853 122.344615 
L 308.219597 122.344615 
L 308.732512 95.981538 
L 309.245427 120.018462 
L 309.758342 123.12 
L 310.271257 122.344615 
L 310.784171 120.793846 
L 311.297086 123.12 
L 311.810001 120.018462 
L 312.322916 122.344615 
L 312.83583 119.243077 
L 313.348745 118.467692 
L 313.86166 118.467692 
L 314.374575 117.692308 
L 314.88749 108.387692 
L 315.400404 108.387692 
L 315.913319 118.467692 
L 316.426234 120.793846 
L 316.939149 122.344615 
L 317.452064 110.713846 
L 317.964978 120.018462 
L 318.477893 122.344615 
L 318.990808 122.344615 
L 319.503723 121.569231 
L 320.016638 121.569231 
L 320.529552 122.344615 
L 321.042467 122.344615 
L 321.555382 120.018462 
L 322.068297 123.12 
L 322.581212 122.344615 
L 323.094126 120.018462 
L 323.607041 120.018462 
L 324.119956 121.569231 
L 325.145785 108.387692 
L 325.6587 116.916923 
L 326.171615 116.141538 
L 326.68453 111.489231 
L 327.197445 114.590769 
L 328.223274 116.141538 
L 328.736189 115.366154 
L 329.249104 110.713846 
L 329.762019 113.04 
L 330.274933 120.018462 
L 330.787848 120.793846 
L 331.300763 119.243077 
L 331.813678 119.243077 
L 332.326593 116.916923 
L 332.839507 118.467692 
L 333.352422 113.815385 
L 333.865337 117.692308 
L 334.378252 118.467692 
L 334.891166 115.366154 
L 335.404081 108.387692 
L 335.916996 115.366154 
L 336.429911 118.467692 
L 337.45574 115.366154 
L 337.968655 118.467692 
L 338.48157 113.04 
L 338.994485 118.467692 
L 339.5074 115.366154 
L 340.020314 121.569231 
L 340.533229 118.467692 
L 341.046144 113.04 
L 341.559059 121.569231 
L 342.071974 120.018462 
L 342.584888 120.793846 
L 343.097803 117.692308 
L 343.610718 116.916923 
L 344.123633 104.510769 
L 344.636547 102.184615 
L 345.149462 116.141538 
L 345.662377 95.206154 
L 346.175292 121.569231 
L 346.688207 120.018462 
L 347.201121 121.569231 
L 347.714036 101.409231 
L 348.226951 102.184615 
L 349.252781 122.344615 
L 349.765695 120.018462 
L 350.27861 113.815385 
L 350.791525 120.018462 
L 351.30444 120.018462 
L 351.817355 102.184615 
L 352.330269 115.366154 
L 352.843184 117.692308 
L 353.869014 119.243077 
L 354.381928 119.243077 
L 354.894843 117.692308 
L 356.433588 122.344615 
L 356.946502 116.916923 
L 357.459417 122.344615 
L 357.972332 122.344615 
L 358.998162 120.793846 
L 359.511076 123.12 
L 360.023991 120.793846 
L 360.536906 119.243077 
L 361.049821 121.569231 
L 361.562736 122.344615 
L 362.07565 122.344615 
L 362.588565 116.916923 
L 363.10148 123.12 
L 363.614395 106.061538 
L 364.127309 121.569231 
L 364.640224 122.344615 
L 365.153139 120.018462 
L 365.666054 120.018462 
L 366.178969 120.793846 
L 366.691883 122.344615 
L 367.204798 117.692308 
L 367.717713 121.569231 
L 368.230628 120.018462 
L 368.743543 120.793846 
L 369.256457 105.286154 
L 369.769372 121.569231 
L 370.282287 119.243077 
L 370.795202 123.12 
L 371.308117 123.12 
L 371.821031 122.344615 
L 372.333946 116.916923 
L 372.846861 122.344615 
L 373.359776 117.692308 
L 373.872691 120.018462 
L 374.385605 123.12 
L 374.89852 120.018462 
L 375.92435 120.018462 
L 376.437264 117.692308 
L 376.950179 116.141538 
L 377.463094 120.793846 
L 377.976009 120.793846 
L 378.488924 120.018462 
L 379.001838 121.569231 
L 379.514753 121.569231 
L 380.027668 120.018462 
L 380.540583 117.692308 
L 381.053498 117.692308 
L 381.566412 119.243077 
L 382.079327 122.344615 
L 383.105157 122.344615 
L 383.618072 108.387692 
L 384.130986 75.821538 
L 384.643901 91.329231 
L 385.156816 119.243077 
L 385.669731 121.569231 
L 386.182645 120.018462 
L 387.208475 109.163077 
L 387.72139 118.467692 
L 388.234305 105.286154 
L 388.747219 88.227692 
L 389.260134 120.018462 
L 389.773049 87.452308 
L 390.285964 113.815385 
L 390.798879 122.344615 
L 391.311793 78.147692 
L 391.824708 102.96 
L 392.337623 111.489231 
L 392.850538 73.495385 
L 393.363453 119.243077 
L 393.876367 120.018462 
L 394.389282 102.184615 
L 394.902197 113.04 
L 395.415112 99.858462 
L 395.928026 113.04 
L 396.440941 120.793846 
L 396.953856 56.436923 
L 397.466771 119.243077 
L 397.979686 120.018462 
L 398.4926 120.018462 
L 399.005515 114.590769 
L 399.51843 118.467692 
L 400.031345 107.612308 
L 400.54426 118.467692 
L 401.057174 120.793846 
L 401.570089 102.96 
L 402.083004 102.96 
L 402.595919 114.590769 
L 403.108834 100.633846 
L 403.621748 119.243077 
L 404.134663 120.018462 
L 404.647578 102.96 
L 405.160493 123.12 
L 405.673407 121.569231 
L 406.186322 120.793846 
L 406.699237 119.243077 
L 407.212152 121.569231 
L 407.725067 120.793846 
L 408.237981 119.243077 
L 408.750896 115.366154 
L 409.263811 117.692308 
L 409.776726 110.713846 
L 410.802555 122.344615 
L 411.31547 123.12 
L 411.828385 116.916923 
L 412.854215 121.569231 
L 413.367129 123.12 
L 413.880044 119.243077 
L 414.392959 122.344615 
L 414.905874 119.243077 
L 415.418788 123.12 
L 416.444618 121.569231 
L 416.957533 123.12 
L 417.470448 123.12 
L 417.983362 121.569231 
L 419.009192 120.018462 
L 419.522107 120.018462 
L 420.035022 120.793846 
L 420.547936 120.793846 
L 421.060851 123.12 
L 421.573766 121.569231 
L 422.086681 96.756923 
L 422.599596 120.793846 
L 423.11251 122.344615 
L 424.13834 122.344615 
L 424.651255 118.467692 
L 425.16417 119.243077 
L 425.677084 110.713846 
L 426.189999 121.569231 
L 426.702914 117.692308 
L 427.215829 122.344615 
L 427.728743 123.12 
L 428.241658 120.793846 
L 428.754573 121.569231 
L 429.267488 117.692308 
L 429.780403 119.243077 
L 430.293317 121.569231 
L 430.806232 122.344615 
L 431.319147 121.569231 
L 431.832062 118.467692 
L 432.344977 120.018462 
L 432.857891 119.243077 
L 433.370806 120.793846 
L 433.883721 116.916923 
L 434.396636 118.467692 
L 434.909551 123.12 
L 435.422465 119.243077 
L 435.93538 120.018462 
L 436.448295 111.489231 
L 436.96121 122.344615 
L 437.474124 119.243077 
L 437.987039 119.243077 
L 438.499954 120.018462 
L 439.012869 112.264615 
L 439.525784 99.858462 
L 440.038698 120.018462 
L 440.551613 122.344615 
L 441.064528 117.692308 
L 441.577443 121.569231 
L 442.090358 120.793846 
L 442.603272 120.793846 
L 443.116187 123.12 
L 444.142017 121.569231 
L 444.654932 120.018462 
L 445.167846 122.344615 
L 445.680761 120.018462 
L 446.193676 122.344615 
L 446.706591 120.018462 
L 447.219505 123.12 
L 447.73242 120.018462 
L 448.245335 121.569231 
L 448.75825 121.569231 
L 449.271165 120.018462 
L 449.784079 123.12 
L 450.296994 120.018462 
L 450.809909 121.569231 
L 451.322824 116.916923 
L 451.835739 122.344615 
L 452.348653 116.141538 
L 452.861568 99.858462 
L 453.374483 122.344615 
L 453.887398 123.12 
L 454.400313 121.569231 
L 454.913227 117.692308 
L 455.426142 121.569231 
L 456.451972 123.12 
L 456.964886 116.916923 
L 457.477801 121.569231 
L 457.990716 120.793846 
L 458.503631 113.815385 
L 459.016546 108.387692 
L 459.52946 118.467692 
L 460.042375 121.569231 
L 460.55529 121.569231 
L 461.068205 117.692308 
L 461.58112 91.329231 
L 462.094034 110.713846 
L 462.606949 117.692308 
L 463.119864 120.793846 
L 463.632779 120.793846 
L 464.145694 98.307692 
L 464.658608 120.018462 
L 465.171523 122.344615 
L 466.197353 122.344615 
L 466.710267 120.793846 
L 467.223182 120.018462 
L 467.736097 121.569231 
L 468.249012 119.243077 
L 468.761927 120.793846 
L 469.274841 123.12 
L 469.787756 121.569231 
L 470.300671 118.467692 
L 470.813586 121.569231 
L 471.326501 117.692308 
L 471.839415 117.692308 
L 472.35233 119.243077 
L 472.865245 121.569231 
L 473.37816 107.612308 
L 473.891075 120.018462 
L 474.403989 110.713846 
L 474.916904 117.692308 
L 475.429819 119.243077 
L 475.942734 111.489231 
L 476.455648 121.569231 
L 477.481478 114.590769 
L 477.994393 120.018462 
L 478.507308 116.916923 
L 479.020222 110.713846 
L 479.533137 109.938462 
L 480.046052 119.243077 
L 480.558967 105.286154 
L 481.071882 111.489231 
L 481.584796 120.793846 
L 482.097711 109.938462 
L 482.610626 122.344615 
L 483.123541 121.569231 
L 483.636456 114.590769 
L 484.14937 116.916923 
L 484.662285 101.409231 
L 485.1752 114.590769 
L 485.688115 113.815385 
L 486.20103 113.815385 
L 486.713944 115.366154 
L 487.226859 119.243077 
L 487.739774 120.018462 
L 488.252689 117.692308 
L 488.765603 119.243077 
L 489.278518 113.04 
L 489.791433 120.018462 
L 490.304348 115.366154 
L 490.817263 109.163077 
L 491.330177 115.366154 
L 491.843092 116.141538 
L 492.356007 115.366154 
L 492.868922 122.344615 
L 493.381837 117.692308 
L 493.894751 121.569231 
L 494.407666 120.793846 
L 494.920581 113.815385 
L 495.433496 113.04 
L 495.946411 101.409231 
L 496.459325 113.04 
L 496.97224 110.713846 
L 497.485155 118.467692 
L 497.99807 120.018462 
L 498.510984 119.243077 
L 499.023899 119.243077 
L 499.536814 122.344615 
L 500.049729 119.243077 
L 500.562644 109.163077 
L 501.075558 119.243077 
L 502.101388 119.243077 
L 502.614303 122.344615 
L 503.127218 123.12 
L 503.640132 122.344615 
L 504.153047 118.467692 
L 504.665962 106.836923 
L 505.178877 120.018462 
L 505.691792 120.018462 
L 506.204706 123.12 
L 506.717621 123.12 
L 507.230536 98.307692 
L 507.743451 106.836923 
L 508.256365 117.692308 
L 508.76928 113.04 
L 509.79511 122.344615 
L 510.308025 121.569231 
L 510.820939 122.344615 
L 511.333854 116.141538 
L 511.846769 122.344615 
L 512.359684 120.793846 
L 512.872599 121.569231 
L 513.385513 123.12 
L 513.898428 100.633846 
L 514.411343 120.018462 
L 514.924258 111.489231 
L 515.437173 111.489231 
L 515.950087 114.590769 
L 516.463002 120.793846 
L 516.975917 121.569231 
L 517.488832 116.141538 
L 518.001746 118.467692 
L 518.514661 117.692308 
L 519.027576 116.141538 
L 519.540491 122.344615 
L 520.053406 120.018462 
L 520.56632 121.569231 
L 521.59215 123.12 
L 523.643809 120.018462 
L 524.669639 105.286154 
L 525.182554 118.467692 
L 525.695468 116.141538 
L 526.208383 122.344615 
L 526.721298 116.141538 
L 527.234213 123.12 
L 527.747127 121.569231 
L 528.772957 120.018462 
L 529.285872 120.793846 
L 529.798787 120.018462 
L 530.311701 118.467692 
L 530.824616 107.612308 
L 531.337531 118.467692 
L 531.850446 117.692308 
L 532.363361 106.061538 
L 532.876275 122.344615 
L 533.38919 114.590769 
L 533.902105 122.344615 
L 534.41502 118.467692 
L 534.927935 121.569231 
L 535.440849 123.12 
L 535.953764 120.793846 
L 536.466679 122.344615 
L 536.979594 120.018462 
L 537.492509 123.12 
L 538.518338 123.12 
L 539.031253 120.018462 
L 539.544168 123.12 
L 540.057082 118.467692 
L 540.569997 123.12 
L 541.082912 122.344615 
L 541.595827 120.018462 
L 542.108742 107.612308 
L 542.621656 123.12 
L 543.134571 123.12 
L 543.647486 112.264615 
L 544.160401 113.04 
L 544.673316 110.713846 
L 545.18623 113.815385 
L 545.699145 122.344615 
L 546.21206 112.264615 
L 546.724975 120.018462 
L 547.23789 121.569231 
L 547.750804 122.344615 
L 548.263719 122.344615 
L 548.776634 123.12 
L 549.289549 122.344615 
L 549.802463 119.243077 
L 550.315378 121.569231 
L 551.341208 123.12 
L 551.854123 123.12 
L 552.367037 117.692308 
L 552.879952 118.467692 
L 553.392867 121.569231 
L 554.418697 121.569231 
L 554.931611 120.793846 
L 555.444526 120.793846 
L 555.957441 116.141538 
L 556.470356 122.344615 
L 556.983271 105.286154 
L 557.496185 118.467692 
L 558.0091 122.344615 
L 558.522015 119.243077 
L 559.03493 120.018462 
L 560.060759 113.04 
L 560.573674 118.467692 
L 561.086589 103.735385 
L 561.599504 123.12 
L 562.112418 117.692308 
L 563.138248 102.96 
L 563.651163 110.713846 
L 564.164078 82.8 
L 564.676992 116.141538 
L 565.189907 123.12 
L 565.702822 93.655385 
L 566.215737 113.04 
L 566.728652 109.163077 
L 567.241566 110.713846 
L 567.754481 117.692308 
L 568.267396 113.815385 
L 568.780311 122.344615 
L 569.293225 106.836923 
L 569.80614 112.264615 
L 570.319055 112.264615 
L 570.83197 107.612308 
L 571.344885 108.387692 
L 571.857799 121.569231 
L 572.370714 123.12 
L 572.883629 92.104615 
L 573.396544 22.32 
L 573.909459 102.184615 
L 574.422373 106.836923 
L 574.935288 106.061538 
L 575.448203 120.018462 
L 575.961118 120.793846 
L 576.474033 92.88 
L 576.986947 73.495385 
L 577.499862 110.713846 
L 578.012777 108.387692 
L 578.525692 103.735385 
L 579.038606 120.018462 
L 579.551521 123.12 
L 580.064436 85.901538 
L 581.090266 90.553846 
L 582.116095 120.018462 
L 582.62901 121.569231 
L 583.141925 122.344615 
L 583.65484 117.692308 
L 584.167754 106.836923 
L 584.680669 113.04 
L 585.193584 90.553846 
L 585.706499 92.88 
L 586.219414 121.569231 
L 586.732328 120.018462 
L 587.245243 101.409231 
L 587.758158 115.366154 
L 588.271073 96.756923 
L 588.783987 116.141538 
L 589.296902 123.12 
L 589.809817 123.12 
L 590.322732 116.141538 
L 590.835647 105.286154 
L 591.348561 118.467692 
L 591.861476 118.467692 
L 592.374391 121.569231 
L 592.887306 123.12 
L 593.400221 123.12 
L 593.913135 121.569231 
L 594.42605 113.815385 
L 594.938965 120.793846 
L 595.45188 123.12 
L 595.964795 99.083077 
L 596.477709 117.692308 
L 596.990624 116.141538 
L 597.503539 95.981538 
L 598.016454 114.590769 
L 598.529369 122.344615 
L 599.042283 120.793846 
L 599.555198 123.12 
L 600.068113 121.569231 
L 600.581028 100.633846 
L 601.093942 98.307692 
L 601.606857 115.366154 
L 602.119772 109.938462 
L 602.632687 116.916923 
L 603.145602 106.836923 
L 603.658516 120.793846 
L 604.171431 114.590769 
L 604.684346 121.569231 
L 605.197261 120.793846 
L 605.710176 121.569231 
L 606.22309 123.12 
L 606.736005 105.286154 
L 607.24892 111.489231 
L 607.761835 120.793846 
L 608.27475 122.344615 
L 609.813494 122.344615 
L 610.326409 119.243077 
L 610.839323 94.430769 
L 611.352238 118.467692 
L 611.865153 111.489231 
L 612.378068 118.467692 
L 612.890983 120.018462 
L 613.403897 120.793846 
L 613.916812 119.243077 
L 614.429727 121.569231 
L 614.942642 122.344615 
L 615.455557 120.018462 
L 615.968471 122.344615 
L 616.481386 109.938462 
L 616.994301 119.243077 
L 617.507216 117.692308 
L 618.020131 120.793846 
L 618.533045 95.981538 
L 619.04596 120.018462 
L 619.558875 120.793846 
L 620.07179 119.243077 
L 620.584704 120.793846 
L 621.097619 119.243077 
L 621.610534 97.532308 
L 622.123449 116.141538 
L 622.636364 118.467692 
L 622.636364 118.467692 
" clip-path="url(#p195b9c40d5)" style="fill: none; stroke: #1f77b4; stroke-width: 1.5; stroke-linecap: square"/>
   </g>
   <g id="patch_3">
    <path d="M 90 128.16 
L 90 17.28 
" style="fill: none; stroke: #000000; stroke-width: 0.8; stroke-linejoin: miter; stroke-linecap: square"/>
   </g>
   <g id="patch_4">
    <path d="M 648 128.16 
L 648 17.28 
" style="fill: none; stroke: #000000; stroke-width: 0.8; stroke-linejoin: miter; stroke-linecap: square"/>
   </g>
   <g id="patch_5">
    <path d="M 90 128.16 
L 648 128.16 
" style="fill: none; stroke: #000000; stroke-width: 0.8; stroke-linejoin: miter; stroke-linecap: square"/>
   </g>
   <g id="patch_6">
    <path d="M 90 17.28 
L 648 17.28 
" style="fill: none; stroke: #000000; stroke-width: 0.8; stroke-linejoin: miter; stroke-linecap: square"/>
   </g>
   <g id="legend_1">
    <g id="patch_7">
     <path d="M 97 39.958125 
L 264.190625 39.958125 
Q 266.190625 39.958125 266.190625 37.958125 
L 266.190625 24.28 
Q 266.190625 22.28 264.190625 22.28 
L 97 22.28 
Q 95 22.28 95 24.28 
L 95 37.958125 
Q 95 39.958125 97 39.958125 
z
" style="fill: #ffffff; opacity: 0.8; stroke: #cccccc; stroke-linejoin: miter"/>
    </g>
    <g id="line2d_11">
     <path d="M 99 30.378437 
L 109 30.378437 
L 119 30.378437 
" style="fill: none; stroke: #1f77b4; stroke-width: 1.5; stroke-linecap: square"/>
    </g>
    <g id="text_10">
     <!-- Number of PyPI Downloads -->
     <g transform="translate(127 33.878437) scale(0.1 -0.1)">
      <defs>
       <path id="DejaVuSans-4e" d="M 628 4666 
L 1478 4666 
L 3547 763 
L 3547 4666 
L 4159 4666 
L 4159 0 
L 3309 0 
L 1241 3903 
L 1241 0 
L 628 0 
L 628 4666 
z
" transform="scale(0.015625)"/>
       <path id="DejaVuSans-75" d="M 544 1381 
L 544 3500 
L 1119 3500 
L 1119 1403 
Q 1119 906 1312 657 
Q 1506 409 1894 409 
Q 2359 409 2629 706 
Q 2900 1003 2900 1516 
L 2900 3500 
L 3475 3500 
L 3475 0 
L 2900 0 
L 2900 538 
Q 2691 219 2414 64 
Q 2138 -91 1772 -91 
Q 1169 -91 856 284 
Q 544 659 544 1381 
z
M 1991 3584 
L 1991 3584 
z
" transform="scale(0.015625)"/>
       <path id="DejaVuSans-6d" d="M 3328 2828 
Q 3544 3216 3844 3400 
Q 4144 3584 4550 3584 
Q 5097 3584 5394 3201 
Q 5691 2819 5691 2113 
L 5691 0 
L 5113 0 
L 5113 2094 
Q 5113 2597 4934 2840 
Q 4756 3084 4391 3084 
Q 3944 3084 3684 2787 
Q 3425 2491 3425 1978 
L 3425 0 
L 2847 0 
L 2847 2094 
Q 2847 2600 2669 2842 
Q 2491 3084 2119 3084 
Q 1678 3084 1418 2786 
Q 1159 2488 1159 1978 
L 1159 0 
L 581 0 
L 581 3500 
L 1159 3500 
L 1159 2956 
Q 1356 3278 1631 3431 
Q 1906 3584 2284 3584 
Q 2666 3584 2933 3390 
Q 3200 3197 3328 2828 
z
" transform="scale(0.015625)"/>
       <path id="DejaVuSans-62" d="M 3116 1747 
Q 3116 2381 2855 2742 
Q 2594 3103 2138 3103 
Q 1681 3103 1420 2742 
Q 1159 2381 1159 1747 
Q 1159 1113 1420 752 
Q 1681 391 2138 391 
Q 2594 391 2855 752 
Q 3116 1113 3116 1747 
z
M 1159 2969 
Q 1341 3281 1617 3432 
Q 1894 3584 2278 3584 
Q 2916 3584 3314 3078 
Q 3713 2572 3713 1747 
Q 3713 922 3314 415 
Q 2916 -91 2278 -91 
Q 1894 -91 1617 61 
Q 1341 213 1159 525 
L 1159 0 
L 581 0 
L 581 4863 
L 1159 4863 
L 1159 2969 
z
" transform="scale(0.015625)"/>
       <path id="DejaVuSans-72" d="M 2631 2963 
Q 2534 3019 2420 3045 
Q 2306 3072 2169 3072 
Q 1681 3072 1420 2755 
Q 1159 2438 1159 1844 
L 1159 0 
L 581 0 
L 581 3500 
L 1159 3500 
L 1159 2956 
Q 1341 3275 1631 3429 
Q 1922 3584 2338 3584 
Q 2397 3584 2469 3576 
Q 2541 3569 2628 3553 
L 2631 2963 
z
" transform="scale(0.015625)"/>
       <path id="DejaVuSans-20" transform="scale(0.015625)"/>
       <path id="DejaVuSans-6f" d="M 1959 3097 
Q 1497 3097 1228 2736 
Q 959 2375 959 1747 
Q 959 1119 1226 758 
Q 1494 397 1959 397 
Q 2419 397 2687 759 
Q 2956 1122 2956 1747 
Q 2956 2369 2687 2733 
Q 2419 3097 1959 3097 
z
M 1959 3584 
Q 2709 3584 3137 3096 
Q 3566 2609 3566 1747 
Q 3566 888 3137 398 
Q 2709 -91 1959 -91 
Q 1206 -91 779 398 
Q 353 888 353 1747 
Q 353 2609 779 3096 
Q 1206 3584 1959 3584 
z
" transform="scale(0.015625)"/>
       <path id="DejaVuSans-66" d="M 2375 4863 
L 2375 4384 
L 1825 4384 
Q 1516 4384 1395 4259 
Q 1275 4134 1275 3809 
L 1275 3500 
L 2222 3500 
L 2222 3053 
L 1275 3053 
L 1275 0 
L 697 0 
L 697 3053 
L 147 3053 
L 147 3500 
L 697 3500 
L 697 3744 
Q 697 4328 969 4595 
Q 1241 4863 1831 4863 
L 2375 4863 
z
" transform="scale(0.015625)"/>
       <path id="DejaVuSans-50" d="M 1259 4147 
L 1259 2394 
L 2053 2394 
Q 2494 2394 2734 2622 
Q 2975 2850 2975 3272 
Q 2975 3691 2734 3919 
Q 2494 4147 2053 4147 
L 1259 4147 
z
M 628 4666 
L 2053 4666 
Q 2838 4666 3239 4311 
Q 3641 3956 3641 3272 
Q 3641 2581 3239 2228 
Q 2838 1875 2053 1875 
L 1259 1875 
L 1259 0 
L 628 0 
L 628 4666 
z
" transform="scale(0.015625)"/>
       <path id="DejaVuSans-79" d="M 2059 -325 
Q 1816 -950 1584 -1140 
Q 1353 -1331 966 -1331 
L 506 -1331 
L 506 -850 
L 844 -850 
Q 1081 -850 1212 -737 
Q 1344 -625 1503 -206 
L 1606 56 
L 191 3500 
L 800 3500 
L 1894 763 
L 2988 3500 
L 3597 3500 
L 2059 -325 
z
" transform="scale(0.015625)"/>
       <path id="DejaVuSans-49" d="M 628 4666 
L 1259 4666 
L 1259 0 
L 628 0 
L 628 4666 
z
" transform="scale(0.015625)"/>
       <path id="DejaVuSans-44" d="M 1259 4147 
L 1259 519 
L 2022 519 
Q 2988 519 3436 956 
Q 3884 1394 3884 2338 
Q 3884 3275 3436 3711 
Q 2988 4147 2022 4147 
L 1259 4147 
z
M 628 4666 
L 1925 4666 
Q 3281 4666 3915 4102 
Q 4550 3538 4550 2338 
Q 4550 1131 3912 565 
Q 3275 0 1925 0 
L 628 0 
L 628 4666 
z
" transform="scale(0.015625)"/>
       <path id="DejaVuSans-77" d="M 269 3500 
L 844 3500 
L 1563 769 
L 2278 3500 
L 2956 3500 
L 3675 769 
L 4391 3500 
L 4966 3500 
L 4050 0 
L 3372 0 
L 2619 2869 
L 1863 0 
L 1184 0 
L 269 3500 
z
" transform="scale(0.015625)"/>
       <path id="DejaVuSans-6e" d="M 3513 2113 
L 3513 0 
L 2938 0 
L 2938 2094 
Q 2938 2591 2744 2837 
Q 2550 3084 2163 3084 
Q 1697 3084 1428 2787 
Q 1159 2491 1159 1978 
L 1159 0 
L 581 0 
L 581 3500 
L 1159 3500 
L 1159 2956 
Q 1366 3272 1645 3428 
Q 1925 3584 2291 3584 
Q 2894 3584 3203 3211 
Q 3513 2838 3513 2113 
z
" transform="scale(0.015625)"/>
       <path id="DejaVuSans-6c" d="M 603 4863 
L 1178 4863 
L 1178 0 
L 603 0 
L 603 4863 
z
" transform="scale(0.015625)"/>
       <path id="DejaVuSans-73" d="M 2834 3397 
L 2834 2853 
Q 2591 2978 2328 3040 
Q 2066 3103 1784 3103 
Q 1356 3103 1142 2972 
Q 928 2841 928 2578 
Q 928 2378 1081 2264 
Q 1234 2150 1697 2047 
L 1894 2003 
Q 2506 1872 2764 1633 
Q 3022 1394 3022 966 
Q 3022 478 2636 193 
Q 2250 -91 1575 -91 
Q 1294 -91 989 -36 
Q 684 19 347 128 
L 347 722 
Q 666 556 975 473 
Q 1284 391 1588 391 
Q 1994 391 2212 530 
Q 2431 669 2431 922 
Q 2431 1156 2273 1281 
Q 2116 1406 1581 1522 
L 1381 1569 
Q 847 1681 609 1914 
Q 372 2147 372 2553 
Q 372 3047 722 3315 
Q 1072 3584 1716 3584 
Q 2034 3584 2315 3537 
Q 2597 3491 2834 3397 
z
" transform="scale(0.015625)"/>
      </defs>
      <use xlink:href="#DejaVuSans-4e"/>
      <use xlink:href="#DejaVuSans-75" x="74.804688"/>
      <use xlink:href="#DejaVuSans-6d" x="138.183594"/>
      <use xlink:href="#DejaVuSans-62" x="235.595703"/>
      <use xlink:href="#DejaVuSans-65" x="299.072266"/>
      <use xlink:href="#DejaVuSans-72" x="360.595703"/>
      <use xlink:href="#DejaVuSans-20" x="401.708984"/>
      <use xlink:href="#DejaVuSans-6f" x="433.496094"/>
      <use xlink:href="#DejaVuSans-66" x="494.677734"/>
      <use xlink:href="#DejaVuSans-20" x="529.882812"/>
      <use xlink:href="#DejaVuSans-50" x="561.669922"/>
      <use xlink:href="#DejaVuSans-79" x="621.972656"/>
      <use xlink:href="#DejaVuSans-50" x="681.152344"/>
      <use xlink:href="#DejaVuSans-49" x="741.455078"/>
      <use xlink:href="#DejaVuSans-20" x="770.947266"/>
      <use xlink:href="#DejaVuSans-44" x="802.734375"/>
      <use xlink:href="#DejaVuSans-6f" x="879.736328"/>
      <use xlink:href="#DejaVuSans-77" x="940.917969"/>
      <use xlink:href="#DejaVuSans-6e" x="1022.705078"/>
      <use xlink:href="#DejaVuSans-6c" x="1086.083984"/>
      <use xlink:href="#DejaVuSans-6f" x="1113.867188"/>
      <use xlink:href="#DejaVuSans-61" x="1175.048828"/>
      <use xlink:href="#DejaVuSans-64" x="1236.328125"/>
      <use xlink:href="#DejaVuSans-73" x="1299.804688"/>
     </g>
    </g>
   </g>
  </g>
 </g>
 <defs>
  <clipPath id="p195b9c40d5">
   <rect x="90" y="17.28" width="558" height="110.88"/>
  </clipPath>
 </defs>
</svg>
