<?xml version="1.0" encoding="utf-8" standalone="no"?>
<!DOCTYPE svg PUBLIC "-//W3C//DTD SVG 1.1//EN"
  "http://www.w3.org/Graphics/SVG/1.1/DTD/svg11.dtd">
<svg xmlns:xlink="http://www.w3.org/1999/xlink" width="720pt" height="144pt" viewBox="0 0 720 144" xmlns="http://www.w3.org/2000/svg" version="1.1">
 <metadata>
  <rdf:RDF xmlns:dc="http://purl.org/dc/elements/1.1/" xmlns:cc="http://creativecommons.org/ns#" xmlns:rdf="http://www.w3.org/1999/02/22-rdf-syntax-ns#">
   <cc:Work>
    <dc:type rdf:resource="http://purl.org/dc/dcmitype/StillImage"/>
    <dc:date>2024-06-01T20:56:56.557972</dc:date>
    <dc:format>image/svg+xml</dc:format>
    <dc:creator>
     <cc:Agent>
      <dc:title>Matplotlib v3.9.0, https://matplotlib.org/</dc:title>
     </cc:Agent>
    </dc:creator>
   </cc:Work>
  </rdf:RDF>
 </metadata>
 <defs>
  <style type="text/css">*{stroke-linejoin: round; stroke-linecap: butt}</style>
 </defs>
 <g id="figure_1">
  <g id="patch_1">
   <path d="M 0 144 
L 720 144 
L 720 0 
L 0 0 
z
" style="fill: #ffffff"/>
  </g>
  <g id="axes_1">
   <g id="patch_2">
    <path d="M 90 128.16 
L 648 128.16 
L 648 17.28 
L 90 17.28 
z
" style="fill: #ffffff"/>
   </g>
   <g id="matplotlib.axis_1">
    <g id="xtick_1">
     <g id="line2d_1">
      <defs>
       <path id="md154b0b54b" d="M 0 0 
L 0 3.5 
" style="stroke: #000000; stroke-width: 0.8"/>
      </defs>
      <g>
       <use xlink:href="#md154b0b54b" x="115.363636" y="128.16" style="stroke: #000000; stroke-width: 0.8"/>
      </g>
     </g>
     <g id="text_1">
      <!-- 2020-06-18 -->
      <g transform="translate(86.305824 142.758438) scale(0.1 -0.1)">
       <defs>
        <path id="DejaVuSans-32" d="M 1228 531 
L 3431 531 
L 3431 0 
L 469 0 
L 469 531 
Q 828 903 1448 1529 
Q 2069 2156 2228 2338 
Q 2531 2678 2651 2914 
Q 2772 3150 2772 3378 
Q 2772 3750 2511 3984 
Q 2250 4219 1831 4219 
Q 1534 4219 1204 4116 
Q 875 4013 500 3803 
L 500 4441 
Q 881 4594 1212 4672 
Q 1544 4750 1819 4750 
Q 2544 4750 2975 4387 
Q 3406 4025 3406 3419 
Q 3406 3131 3298 2873 
Q 3191 2616 2906 2266 
Q 2828 2175 2409 1742 
Q 1991 1309 1228 531 
z
" transform="scale(0.015625)"/>
        <path id="DejaVuSans-30" d="M 2034 4250 
Q 1547 4250 1301 3770 
Q 1056 3291 1056 2328 
Q 1056 1369 1301 889 
Q 1547 409 2034 409 
Q 2525 409 2770 889 
Q 3016 1369 3016 2328 
Q 3016 3291 2770 3770 
Q 2525 4250 2034 4250 
z
M 2034 4750 
Q 2819 4750 3233 4129 
Q 3647 3509 3647 2328 
Q 3647 1150 3233 529 
Q 2819 -91 2034 -91 
Q 1250 -91 836 529 
Q 422 1150 422 2328 
Q 422 3509 836 4129 
Q 1250 4750 2034 4750 
z
" transform="scale(0.015625)"/>
        <path id="DejaVuSans-2d" d="M 313 2009 
L 1997 2009 
L 1997 1497 
L 313 1497 
L 313 2009 
z
" transform="scale(0.015625)"/>
        <path id="DejaVuSans-36" d="M 2113 2584 
Q 1688 2584 1439 2293 
Q 1191 2003 1191 1497 
Q 1191 994 1439 701 
Q 1688 409 2113 409 
Q 2538 409 2786 701 
Q 3034 994 3034 1497 
Q 3034 2003 2786 2293 
Q 2538 2584 2113 2584 
z
M 3366 4563 
L 3366 3988 
Q 3128 4100 2886 4159 
Q 2644 4219 2406 4219 
Q 1781 4219 1451 3797 
Q 1122 3375 1075 2522 
Q 1259 2794 1537 2939 
Q 1816 3084 2150 3084 
Q 2853 3084 3261 2657 
Q 3669 2231 3669 1497 
Q 3669 778 3244 343 
Q 2819 -91 2113 -91 
Q 1303 -91 875 529 
Q 447 1150 447 2328 
Q 447 3434 972 4092 
Q 1497 4750 2381 4750 
Q 2619 4750 2861 4703 
Q 3103 4656 3366 4563 
z
" transform="scale(0.015625)"/>
        <path id="DejaVuSans-31" d="M 794 531 
L 1825 531 
L 1825 4091 
L 703 3866 
L 703 4441 
L 1819 4666 
L 2450 4666 
L 2450 531 
L 3481 531 
L 3481 0 
L 794 0 
L 794 531 
z
" transform="scale(0.015625)"/>
        <path id="DejaVuSans-38" d="M 2034 2216 
Q 1584 2216 1326 1975 
Q 1069 1734 1069 1313 
Q 1069 891 1326 650 
Q 1584 409 2034 409 
Q 2484 409 2743 651 
Q 3003 894 3003 1313 
Q 3003 1734 2745 1975 
Q 2488 2216 2034 2216 
z
M 1403 2484 
Q 997 2584 770 2862 
Q 544 3141 544 3541 
Q 544 4100 942 4425 
Q 1341 4750 2034 4750 
Q 2731 4750 3128 4425 
Q 3525 4100 3525 3541 
Q 3525 3141 3298 2862 
Q 3072 2584 2669 2484 
Q 3125 2378 3379 2068 
Q 3634 1759 3634 1313 
Q 3634 634 3220 271 
Q 2806 -91 2034 -91 
Q 1263 -91 848 271 
Q 434 634 434 1313 
Q 434 1759 690 2068 
Q 947 2378 1403 2484 
z
M 1172 3481 
Q 1172 3119 1398 2916 
Q 1625 2713 2034 2713 
Q 2441 2713 2670 2916 
Q 2900 3119 2900 3481 
Q 2900 3844 2670 4047 
Q 2441 4250 2034 4250 
Q 1625 4250 1398 4047 
Q 1172 3844 1172 3481 
z
" transform="scale(0.015625)"/>
       </defs>
       <use xlink:href="#DejaVuSans-32"/>
       <use xlink:href="#DejaVuSans-30" x="63.623047"/>
       <use xlink:href="#DejaVuSans-32" x="127.246094"/>
       <use xlink:href="#DejaVuSans-30" x="190.869141"/>
       <use xlink:href="#DejaVuSans-2d" x="254.492188"/>
       <use xlink:href="#DejaVuSans-30" x="290.576172"/>
       <use xlink:href="#DejaVuSans-36" x="354.199219"/>
       <use xlink:href="#DejaVuSans-2d" x="417.822266"/>
       <use xlink:href="#DejaVuSans-31" x="453.90625"/>
       <use xlink:href="#DejaVuSans-38" x="517.529297"/>
      </g>
     </g>
    </g>
    <g id="xtick_2">
     <g id="line2d_2">
      <g>
       <use xlink:href="#md154b0b54b" x="192.632902" y="128.16" style="stroke: #000000; stroke-width: 0.8"/>
      </g>
     </g>
     <g id="text_2">
      <!-- 2021-03-15 -->
      <g transform="translate(163.575089 142.758438) scale(0.1 -0.1)">
       <defs>
        <path id="DejaVuSans-33" d="M 2597 2516 
Q 3050 2419 3304 2112 
Q 3559 1806 3559 1356 
Q 3559 666 3084 287 
Q 2609 -91 1734 -91 
Q 1441 -91 1130 -33 
Q 819 25 488 141 
L 488 750 
Q 750 597 1062 519 
Q 1375 441 1716 441 
Q 2309 441 2620 675 
Q 2931 909 2931 1356 
Q 2931 1769 2642 2001 
Q 2353 2234 1838 2234 
L 1294 2234 
L 1294 2753 
L 1863 2753 
Q 2328 2753 2575 2939 
Q 2822 3125 2822 3475 
Q 2822 3834 2567 4026 
Q 2313 4219 1838 4219 
Q 1578 4219 1281 4162 
Q 984 4106 628 3988 
L 628 4550 
Q 988 4650 1302 4700 
Q 1616 4750 1894 4750 
Q 2613 4750 3031 4423 
Q 3450 4097 3450 3541 
Q 3450 3153 3228 2886 
Q 3006 2619 2597 2516 
z
" transform="scale(0.015625)"/>
        <path id="DejaVuSans-35" d="M 691 4666 
L 3169 4666 
L 3169 4134 
L 1269 4134 
L 1269 2991 
Q 1406 3038 1543 3061 
Q 1681 3084 1819 3084 
Q 2600 3084 3056 2656 
Q 3513 2228 3513 1497 
Q 3513 744 3044 326 
Q 2575 -91 1722 -91 
Q 1428 -91 1123 -41 
Q 819 9 494 109 
L 494 744 
Q 775 591 1075 516 
Q 1375 441 1709 441 
Q 2250 441 2565 725 
Q 2881 1009 2881 1497 
Q 2881 1984 2565 2268 
Q 2250 2553 1709 2553 
Q 1456 2553 1204 2497 
Q 953 2441 691 2322 
L 691 4666 
z
" transform="scale(0.015625)"/>
       </defs>
       <use xlink:href="#DejaVuSans-32"/>
       <use xlink:href="#DejaVuSans-30" x="63.623047"/>
       <use xlink:href="#DejaVuSans-32" x="127.246094"/>
       <use xlink:href="#DejaVuSans-31" x="190.869141"/>
       <use xlink:href="#DejaVuSans-2d" x="254.492188"/>
       <use xlink:href="#DejaVuSans-30" x="290.576172"/>
       <use xlink:href="#DejaVuSans-33" x="354.199219"/>
       <use xlink:href="#DejaVuSans-2d" x="417.822266"/>
       <use xlink:href="#DejaVuSans-31" x="453.90625"/>
       <use xlink:href="#DejaVuSans-35" x="517.529297"/>
      </g>
     </g>
    </g>
    <g id="xtick_3">
     <g id="line2d_3">
      <g>
       <use xlink:href="#md154b0b54b" x="269.902167" y="128.16" style="stroke: #000000; stroke-width: 0.8"/>
      </g>
     </g>
     <g id="text_3">
      <!-- 2021-10-17 -->
      <g transform="translate(240.844355 142.758438) scale(0.1 -0.1)">
       <defs>
        <path id="DejaVuSans-37" d="M 525 4666 
L 3525 4666 
L 3525 4397 
L 1831 0 
L 1172 0 
L 2766 4134 
L 525 4134 
L 525 4666 
z
" transform="scale(0.015625)"/>
       </defs>
       <use xlink:href="#DejaVuSans-32"/>
       <use xlink:href="#DejaVuSans-30" x="63.623047"/>
       <use xlink:href="#DejaVuSans-32" x="127.246094"/>
       <use xlink:href="#DejaVuSans-31" x="190.869141"/>
       <use xlink:href="#DejaVuSans-2d" x="254.492188"/>
       <use xlink:href="#DejaVuSans-31" x="290.576172"/>
       <use xlink:href="#DejaVuSans-30" x="354.199219"/>
       <use xlink:href="#DejaVuSans-2d" x="417.822266"/>
       <use xlink:href="#DejaVuSans-31" x="453.90625"/>
       <use xlink:href="#DejaVuSans-37" x="517.529297"/>
      </g>
     </g>
    </g>
    <g id="xtick_4">
     <g id="line2d_4">
      <g>
       <use xlink:href="#md154b0b54b" x="347.171433" y="128.16" style="stroke: #000000; stroke-width: 0.8"/>
      </g>
     </g>
     <g id="text_4">
      <!-- 2022-05-15 -->
      <g transform="translate(318.11362 142.758438) scale(0.1 -0.1)">
       <use xlink:href="#DejaVuSans-32"/>
       <use xlink:href="#DejaVuSans-30" x="63.623047"/>
       <use xlink:href="#DejaVuSans-32" x="127.246094"/>
       <use xlink:href="#DejaVuSans-32" x="190.869141"/>
       <use xlink:href="#DejaVuSans-2d" x="254.492188"/>
       <use xlink:href="#DejaVuSans-30" x="290.576172"/>
       <use xlink:href="#DejaVuSans-35" x="354.199219"/>
       <use xlink:href="#DejaVuSans-2d" x="417.822266"/>
       <use xlink:href="#DejaVuSans-31" x="453.90625"/>
       <use xlink:href="#DejaVuSans-35" x="517.529297"/>
      </g>
     </g>
    </g>
    <g id="xtick_5">
     <g id="line2d_5">
      <g>
       <use xlink:href="#md154b0b54b" x="424.440698" y="128.16" style="stroke: #000000; stroke-width: 0.8"/>
      </g>
     </g>
     <g id="text_5">
      <!-- 2022-12-10 -->
      <g transform="translate(395.382885 142.758438) scale(0.1 -0.1)">
       <use xlink:href="#DejaVuSans-32"/>
       <use xlink:href="#DejaVuSans-30" x="63.623047"/>
       <use xlink:href="#DejaVuSans-32" x="127.246094"/>
       <use xlink:href="#DejaVuSans-32" x="190.869141"/>
       <use xlink:href="#DejaVuSans-2d" x="254.492188"/>
       <use xlink:href="#DejaVuSans-31" x="290.576172"/>
       <use xlink:href="#DejaVuSans-32" x="354.199219"/>
       <use xlink:href="#DejaVuSans-2d" x="417.822266"/>
       <use xlink:href="#DejaVuSans-31" x="453.90625"/>
       <use xlink:href="#DejaVuSans-30" x="517.529297"/>
      </g>
     </g>
    </g>
    <g id="xtick_6">
     <g id="line2d_6">
      <g>
       <use xlink:href="#md154b0b54b" x="501.709963" y="128.16" style="stroke: #000000; stroke-width: 0.8"/>
      </g>
     </g>
     <g id="text_6">
      <!-- 2023-07-14 -->
      <g transform="translate(472.652151 142.758438) scale(0.1 -0.1)">
       <defs>
        <path id="DejaVuSans-34" d="M 2419 4116 
L 825 1625 
L 2419 1625 
L 2419 4116 
z
M 2253 4666 
L 3047 4666 
L 3047 1625 
L 3713 1625 
L 3713 1100 
L 3047 1100 
L 3047 0 
L 2419 0 
L 2419 1100 
L 313 1100 
L 313 1709 
L 2253 4666 
z
" transform="scale(0.015625)"/>
       </defs>
       <use xlink:href="#DejaVuSans-32"/>
       <use xlink:href="#DejaVuSans-30" x="63.623047"/>
       <use xlink:href="#DejaVuSans-32" x="127.246094"/>
       <use xlink:href="#DejaVuSans-33" x="190.869141"/>
       <use xlink:href="#DejaVuSans-2d" x="254.492188"/>
       <use xlink:href="#DejaVuSans-30" x="290.576172"/>
       <use xlink:href="#DejaVuSans-37" x="354.199219"/>
       <use xlink:href="#DejaVuSans-2d" x="417.822266"/>
       <use xlink:href="#DejaVuSans-31" x="453.90625"/>
       <use xlink:href="#DejaVuSans-34" x="517.529297"/>
      </g>
     </g>
    </g>
    <g id="xtick_7">
     <g id="line2d_7">
      <g>
       <use xlink:href="#md154b0b54b" x="578.979229" y="128.16" style="stroke: #000000; stroke-width: 0.8"/>
      </g>
     </g>
     <g id="text_7">
      <!-- 2024-02-07 -->
      <g transform="translate(549.921416 142.758438) scale(0.1 -0.1)">
       <use xlink:href="#DejaVuSans-32"/>
       <use xlink:href="#DejaVuSans-30" x="63.623047"/>
       <use xlink:href="#DejaVuSans-32" x="127.246094"/>
       <use xlink:href="#DejaVuSans-34" x="190.869141"/>
       <use xlink:href="#DejaVuSans-2d" x="254.492188"/>
       <use xlink:href="#DejaVuSans-30" x="290.576172"/>
       <use xlink:href="#DejaVuSans-32" x="354.199219"/>
       <use xlink:href="#DejaVuSans-2d" x="417.822266"/>
       <use xlink:href="#DejaVuSans-30" x="453.90625"/>
       <use xlink:href="#DejaVuSans-37" x="517.529297"/>
      </g>
     </g>
    </g>
    <g id="text_8">
     <!-- date -->
     <g transform="translate(357.725 156.436563) scale(0.1 -0.1)">
      <defs>
       <path id="DejaVuSans-64" d="M 2906 2969 
L 2906 4863 
L 3481 4863 
L 3481 0 
L 2906 0 
L 2906 525 
Q 2725 213 2448 61 
Q 2172 -91 1784 -91 
Q 1150 -91 751 415 
Q 353 922 353 1747 
Q 353 2572 751 3078 
Q 1150 3584 1784 3584 
Q 2172 3584 2448 3432 
Q 2725 3281 2906 2969 
z
M 947 1747 
Q 947 1113 1208 752 
Q 1469 391 1925 391 
Q 2381 391 2643 752 
Q 2906 1113 2906 1747 
Q 2906 2381 2643 2742 
Q 2381 3103 1925 3103 
Q 1469 3103 1208 2742 
Q 947 2381 947 1747 
z
" transform="scale(0.015625)"/>
       <path id="DejaVuSans-61" d="M 2194 1759 
Q 1497 1759 1228 1600 
Q 959 1441 959 1056 
Q 959 750 1161 570 
Q 1363 391 1709 391 
Q 2188 391 2477 730 
Q 2766 1069 2766 1631 
L 2766 1759 
L 2194 1759 
z
M 3341 1997 
L 3341 0 
L 2766 0 
L 2766 531 
Q 2569 213 2275 61 
Q 1981 -91 1556 -91 
Q 1019 -91 701 211 
Q 384 513 384 1019 
Q 384 1609 779 1909 
Q 1175 2209 1959 2209 
L 2766 2209 
L 2766 2266 
Q 2766 2663 2505 2880 
Q 2244 3097 1772 3097 
Q 1472 3097 1187 3025 
Q 903 2953 641 2809 
L 641 3341 
Q 956 3463 1253 3523 
Q 1550 3584 1831 3584 
Q 2591 3584 2966 3190 
Q 3341 2797 3341 1997 
z
" transform="scale(0.015625)"/>
       <path id="DejaVuSans-74" d="M 1172 4494 
L 1172 3500 
L 2356 3500 
L 2356 3053 
L 1172 3053 
L 1172 1153 
Q 1172 725 1289 603 
Q 1406 481 1766 481 
L 2356 481 
L 2356 0 
L 1766 0 
Q 1100 0 847 248 
Q 594 497 594 1153 
L 594 3053 
L 172 3053 
L 172 3500 
L 594 3500 
L 594 4494 
L 1172 4494 
z
" transform="scale(0.015625)"/>
       <path id="DejaVuSans-65" d="M 3597 1894 
L 3597 1613 
L 953 1613 
Q 991 1019 1311 708 
Q 1631 397 2203 397 
Q 2534 397 2845 478 
Q 3156 559 3463 722 
L 3463 178 
Q 3153 47 2828 -22 
Q 2503 -91 2169 -91 
Q 1331 -91 842 396 
Q 353 884 353 1716 
Q 353 2575 817 3079 
Q 1281 3584 2069 3584 
Q 2775 3584 3186 3129 
Q 3597 2675 3597 1894 
z
M 3022 2063 
Q 3016 2534 2758 2815 
Q 2500 3097 2075 3097 
Q 1594 3097 1305 2825 
Q 1016 2553 972 2059 
L 3022 2063 
z
" transform="scale(0.015625)"/>
      </defs>
      <use xlink:href="#DejaVuSans-64"/>
      <use xlink:href="#DejaVuSans-61" x="63.476562"/>
      <use xlink:href="#DejaVuSans-74" x="124.755859"/>
      <use xlink:href="#DejaVuSans-65" x="163.964844"/>
     </g>
    </g>
   </g>
   <g id="matplotlib.axis_2">
    <g id="ytick_1">
     <g id="line2d_8">
      <defs>
       <path id="mb84ae0678a" d="M 0 0 
L -3.5 0 
" style="stroke: #000000; stroke-width: 0.8"/>
      </defs>
      <g>
       <use xlink:href="#mb84ae0678a" x="90" y="123.895385" style="stroke: #000000; stroke-width: 0.8"/>
      </g>
     </g>
     <g id="text_9">
      <!-- 0 -->
      <g transform="translate(76.6375 127.694603) scale(0.1 -0.1)">
       <use xlink:href="#DejaVuSans-30"/>
      </g>
     </g>
    </g>
    <g id="ytick_2">
     <g id="line2d_9">
      <g>
       <use xlink:href="#mb84ae0678a" x="90" y="85.126154" style="stroke: #000000; stroke-width: 0.8"/>
      </g>
     </g>
     <g id="text_10">
      <!-- 50 -->
      <g transform="translate(70.275 88.925373) scale(0.1 -0.1)">
       <use xlink:href="#DejaVuSans-35"/>
       <use xlink:href="#DejaVuSans-30" x="63.623047"/>
      </g>
     </g>
    </g>
    <g id="ytick_3">
     <g id="line2d_10">
      <g>
       <use xlink:href="#mb84ae0678a" x="90" y="46.356923" style="stroke: #000000; stroke-width: 0.8"/>
      </g>
     </g>
     <g id="text_11">
      <!-- 100 -->
      <g transform="translate(63.9125 50.156142) scale(0.1 -0.1)">
       <use xlink:href="#DejaVuSans-31"/>
       <use xlink:href="#DejaVuSans-30" x="63.623047"/>
       <use xlink:href="#DejaVuSans-30" x="127.246094"/>
      </g>
     </g>
    </g>
   </g>
   <g id="line2d_11">
    <path d="M 115.363636 106.836923 
L 116.136329 120.793846 
L 117.295368 123.12 
L 117.681714 121.569231 
L 118.068061 117.692308 
L 118.454407 122.344615 
L 118.840753 121.569231 
L 119.2271 122.344615 
L 119.613446 105.286154 
L 119.999792 118.467692 
L 120.386139 121.569231 
L 120.772485 117.692308 
L 121.158831 122.344615 
L 121.545178 119.243077 
L 121.931524 118.467692 
L 122.31787 123.12 
L 122.704217 121.569231 
L 123.090563 116.141538 
L 123.476909 117.692308 
L 123.863256 120.793846 
L 124.249602 121.569231 
L 124.635948 121.569231 
L 125.408641 123.12 
L 125.794987 116.916923 
L 126.181334 84.350769 
L 126.56768 119.243077 
L 126.954026 121.569231 
L 127.340372 121.569231 
L 127.726719 120.018462 
L 128.113065 122.344615 
L 128.499411 120.793846 
L 128.885758 123.12 
L 129.272104 121.569231 
L 129.65845 121.569231 
L 130.044797 123.12 
L 130.431143 122.344615 
L 130.817489 120.793846 
L 131.203836 120.793846 
L 131.590182 119.243077 
L 131.976528 123.12 
L 132.362875 123.12 
L 132.749221 122.344615 
L 133.135567 122.344615 
L 133.521914 123.12 
L 133.90826 123.12 
L 134.294606 111.489231 
L 134.680953 120.018462 
L 135.067299 118.467692 
L 135.453645 122.344615 
L 135.839992 120.018462 
L 136.226338 118.467692 
L 136.612684 120.018462 
L 136.999031 123.12 
L 137.385377 122.344615 
L 137.771723 120.018462 
L 138.15807 123.12 
L 138.930762 121.569231 
L 139.317109 118.467692 
L 140.089801 123.12 
L 140.476148 120.793846 
L 140.862494 120.018462 
L 141.24884 123.12 
L 141.635187 120.793846 
L 142.021533 123.12 
L 142.407879 122.344615 
L 142.794226 120.018462 
L 143.180572 123.12 
L 143.566918 122.344615 
L 143.953265 122.344615 
L 144.339611 123.12 
L 144.725957 120.018462 
L 145.112304 123.12 
L 145.49865 121.569231 
L 146.271343 121.569231 
L 146.657689 120.793846 
L 147.044035 119.243077 
L 147.430381 121.569231 
L 147.816728 119.243077 
L 148.203074 123.12 
L 148.975767 121.569231 
L 149.362113 120.018462 
L 149.748459 122.344615 
L 150.134806 123.12 
L 150.521152 122.344615 
L 150.907498 120.793846 
L 151.293845 121.569231 
L 151.680191 123.12 
L 152.066537 113.04 
L 152.452884 123.12 
L 152.83923 121.569231 
L 153.225576 120.793846 
L 153.611923 123.12 
L 153.998269 120.793846 
L 154.384615 117.692308 
L 154.770962 121.569231 
L 155.157308 123.12 
L 155.543654 123.12 
L 155.930001 122.344615 
L 156.316347 123.12 
L 156.702693 123.12 
L 157.08904 122.344615 
L 157.475386 122.344615 
L 157.861732 121.569231 
L 158.248079 122.344615 
L 159.407118 120.018462 
L 159.793464 121.569231 
L 160.17981 121.569231 
L 160.952503 120.018462 
L 161.338849 122.344615 
L 161.725196 123.12 
L 162.111542 118.467692 
L 162.497888 122.344615 
L 162.884235 122.344615 
L 163.270581 117.692308 
L 163.656927 121.569231 
L 164.043274 121.569231 
L 164.42962 104.510769 
L 164.815966 120.018462 
L 165.202313 121.569231 
L 165.588659 118.467692 
L 165.975005 122.344615 
L 166.361352 119.243077 
L 166.747698 122.344615 
L 167.134044 117.692308 
L 167.520391 120.018462 
L 167.906737 123.12 
L 168.293083 122.344615 
L 168.679429 113.815385 
L 169.065776 120.018462 
L 169.452122 122.344615 
L 169.838468 123.12 
L 170.224815 123.12 
L 170.611161 117.692308 
L 170.997507 123.12 
L 171.383854 123.12 
L 171.7702 120.793846 
L 172.156546 123.12 
L 172.542893 123.12 
L 173.315585 120.018462 
L 173.701932 123.12 
L 174.088278 121.569231 
L 174.860971 123.12 
L 175.247317 120.018462 
L 175.633663 123.12 
L 176.02001 123.12 
L 176.406356 122.344615 
L 176.792702 123.12 
L 177.179049 123.12 
L 177.565395 120.018462 
L 178.338088 123.12 
L 179.11078 121.569231 
L 179.497127 121.569231 
L 179.883473 122.344615 
L 180.269819 120.793846 
L 180.656166 122.344615 
L 181.042512 123.12 
L 181.815205 123.12 
L 182.201551 120.018462 
L 182.587897 123.12 
L 182.974244 122.344615 
L 183.36059 123.12 
L 183.746936 120.018462 
L 184.133283 121.569231 
L 184.519629 122.344615 
L 184.905975 122.344615 
L 185.292322 120.793846 
L 185.678668 122.344615 
L 186.065014 121.569231 
L 186.451361 121.569231 
L 186.837707 122.344615 
L 187.224053 122.344615 
L 187.6104 123.12 
L 187.996746 118.467692 
L 188.383092 122.344615 
L 188.769438 122.344615 
L 189.155785 123.12 
L 189.542131 122.344615 
L 189.928477 123.12 
L 190.314824 123.12 
L 191.087516 121.569231 
L 191.473863 115.366154 
L 191.860209 100.633846 
L 192.246555 123.12 
L 192.632902 122.344615 
L 193.019248 118.467692 
L 193.405594 120.018462 
L 193.791941 119.243077 
L 194.178287 113.04 
L 194.564633 123.12 
L 194.95098 122.344615 
L 195.337326 120.793846 
L 195.723672 118.467692 
L 196.110019 115.366154 
L 196.496365 106.061538 
L 196.882711 112.264615 
L 197.269058 122.344615 
L 197.655404 97.532308 
L 198.04175 111.489231 
L 198.428097 117.692308 
L 198.814443 113.04 
L 199.200789 120.018462 
L 199.587136 113.04 
L 199.973482 113.815385 
L 200.359828 112.264615 
L 200.746175 106.061538 
L 201.132521 121.569231 
L 201.518867 118.467692 
L 201.905214 121.569231 
L 202.29156 123.12 
L 202.677906 120.018462 
L 203.064253 123.12 
L 203.450599 121.569231 
L 203.836945 123.12 
L 204.223292 122.344615 
L 204.609638 113.04 
L 204.995984 121.569231 
L 205.382331 119.243077 
L 205.768677 120.793846 
L 206.155023 120.018462 
L 206.54137 123.12 
L 206.927716 118.467692 
L 207.314062 120.018462 
L 207.700409 122.344615 
L 208.086755 119.243077 
L 208.473101 123.12 
L 208.859447 121.569231 
L 209.245794 123.12 
L 209.63214 120.793846 
L 210.018486 122.344615 
L 210.404833 120.793846 
L 210.791179 120.018462 
L 211.177525 122.344615 
L 211.950218 122.344615 
L 212.336564 120.793846 
L 212.722911 120.018462 
L 213.109257 106.836923 
L 213.495603 108.387692 
L 213.88195 121.569231 
L 214.268296 122.344615 
L 214.654642 119.243077 
L 215.040989 120.018462 
L 215.427335 118.467692 
L 215.813681 122.344615 
L 216.200028 123.12 
L 216.586374 119.243077 
L 216.97272 118.467692 
L 217.359067 116.141538 
L 217.745413 122.344615 
L 218.131759 120.018462 
L 218.518106 122.344615 
L 218.904452 122.344615 
L 219.290798 123.12 
L 220.063491 120.018462 
L 220.836184 123.12 
L 221.22253 121.569231 
L 221.608876 122.344615 
L 221.995223 118.467692 
L 222.381569 116.916923 
L 222.767915 118.467692 
L 223.154262 119.243077 
L 223.540608 117.692308 
L 223.926954 111.489231 
L 224.313301 119.243077 
L 224.699647 120.793846 
L 225.085993 120.018462 
L 225.47234 117.692308 
L 225.858686 112.264615 
L 226.245032 122.344615 
L 226.631379 121.569231 
L 227.017725 123.12 
L 227.404071 116.916923 
L 227.790418 117.692308 
L 228.176764 120.793846 
L 228.56311 116.141538 
L 228.949456 114.590769 
L 229.335803 122.344615 
L 229.722149 122.344615 
L 230.108495 116.141538 
L 230.494842 102.184615 
L 230.881188 113.04 
L 231.267534 119.243077 
L 231.653881 120.018462 
L 232.040227 120.018462 
L 232.81292 121.569231 
L 233.199266 119.243077 
L 233.585612 119.243077 
L 233.971959 122.344615 
L 234.358305 122.344615 
L 234.744651 121.569231 
L 235.130998 122.344615 
L 235.517344 117.692308 
L 235.90369 117.692308 
L 236.290037 119.243077 
L 236.676383 116.916923 
L 237.062729 111.489231 
L 237.449076 117.692308 
L 237.835422 117.692308 
L 238.221768 121.569231 
L 238.608115 121.569231 
L 238.994461 118.467692 
L 239.380807 123.12 
L 239.767154 109.938462 
L 240.1535 108.387692 
L 240.539846 119.243077 
L 240.926193 120.018462 
L 241.312539 113.04 
L 242.085232 121.569231 
L 242.471578 120.018462 
L 242.857924 123.12 
L 243.244271 116.916923 
L 243.630617 106.836923 
L 244.016963 122.344615 
L 244.40331 121.569231 
L 245.176002 123.12 
L 245.562349 120.793846 
L 245.948695 108.387692 
L 246.335041 117.692308 
L 246.721388 122.344615 
L 247.107734 122.344615 
L 247.49408 111.489231 
L 247.880427 121.569231 
L 248.266773 122.344615 
L 248.653119 121.569231 
L 250.198504 121.569231 
L 250.584851 120.018462 
L 250.971197 123.12 
L 251.357543 122.344615 
L 251.74389 122.344615 
L 252.130236 123.12 
L 252.516582 123.12 
L 252.902929 122.344615 
L 253.289275 123.12 
L 253.675621 119.243077 
L 254.061968 122.344615 
L 254.448314 120.018462 
L 254.83466 120.018462 
L 255.221007 118.467692 
L 255.607353 120.018462 
L 255.993699 123.12 
L 256.380046 121.569231 
L 257.152738 121.569231 
L 257.539085 123.12 
L 257.925431 122.344615 
L 258.311777 122.344615 
L 258.698124 120.793846 
L 259.08447 122.344615 
L 260.243509 122.344615 
L 260.629855 95.981538 
L 261.016202 120.018462 
L 261.402548 123.12 
L 261.788894 122.344615 
L 262.175241 120.793846 
L 262.561587 123.12 
L 262.947933 120.018462 
L 263.33428 122.344615 
L 263.720626 119.243077 
L 264.106972 118.467692 
L 264.493319 118.467692 
L 264.879665 117.692308 
L 265.266011 108.387692 
L 265.652358 108.387692 
L 266.038704 118.467692 
L 266.42505 120.793846 
L 266.811397 122.344615 
L 267.197743 110.713846 
L 267.584089 120.018462 
L 267.970436 122.344615 
L 268.356782 122.344615 
L 268.743128 121.569231 
L 269.129474 121.569231 
L 269.515821 122.344615 
L 269.902167 122.344615 
L 270.288513 120.018462 
L 270.67486 123.12 
L 271.061206 122.344615 
L 271.447552 120.018462 
L 271.833899 120.018462 
L 272.220245 121.569231 
L 272.992938 108.387692 
L 273.379284 116.916923 
L 273.76563 116.141538 
L 274.151977 111.489231 
L 274.538323 114.590769 
L 275.311016 116.141538 
L 275.697362 115.366154 
L 276.083708 110.713846 
L 276.470055 113.04 
L 276.856401 120.018462 
L 277.242747 120.793846 
L 277.629094 119.243077 
L 278.01544 119.243077 
L 278.401786 116.916923 
L 278.788133 118.467692 
L 279.174479 113.815385 
L 279.560825 117.692308 
L 279.947172 118.467692 
L 280.333518 115.366154 
L 280.719864 108.387692 
L 281.106211 115.366154 
L 281.492557 118.467692 
L 282.26525 115.366154 
L 282.651596 118.467692 
L 283.037942 113.04 
L 283.424289 115.366154 
L 283.810635 118.467692 
L 284.196981 113.04 
L 284.583328 121.569231 
L 284.969674 120.018462 
L 285.35602 120.793846 
L 285.742367 117.692308 
L 286.128713 116.916923 
L 286.515059 104.510769 
L 286.901406 102.184615 
L 287.287752 116.141538 
L 287.674098 95.206154 
L 288.060445 121.569231 
L 288.446791 120.018462 
L 288.833137 121.569231 
L 289.219483 101.409231 
L 289.60583 102.184615 
L 290.378522 122.344615 
L 290.764869 120.018462 
L 291.151215 113.815385 
L 291.537561 120.018462 
L 291.923908 120.018462 
L 292.310254 102.184615 
L 292.6966 115.366154 
L 293.082947 117.692308 
L 293.855639 119.243077 
L 294.241986 119.243077 
L 294.628332 117.692308 
L 295.787371 122.344615 
L 296.173717 116.916923 
L 296.560064 122.344615 
L 296.94641 122.344615 
L 297.719103 120.793846 
L 298.105449 123.12 
L 298.491795 120.793846 
L 298.878142 119.243077 
L 299.264488 121.569231 
L 299.650834 122.344615 
L 300.037181 122.344615 
L 300.423527 116.916923 
L 300.809873 123.12 
L 301.19622 106.061538 
L 301.582566 121.569231 
L 301.968912 122.344615 
L 302.355259 120.018462 
L 302.741605 120.018462 
L 303.127951 120.793846 
L 303.514298 122.344615 
L 303.900644 117.692308 
L 304.28699 121.569231 
L 304.673337 120.018462 
L 305.059683 120.793846 
L 305.446029 105.286154 
L 305.832376 121.569231 
L 306.218722 119.243077 
L 306.605068 123.12 
L 306.991415 123.12 
L 307.377761 122.344615 
L 307.764107 116.916923 
L 308.150454 122.344615 
L 308.5368 117.692308 
L 308.923146 120.018462 
L 309.309492 123.12 
L 309.695839 120.018462 
L 310.468531 120.018462 
L 310.854878 117.692308 
L 311.241224 116.141538 
L 311.62757 120.793846 
L 312.013917 120.793846 
L 312.400263 120.018462 
L 312.786609 121.569231 
L 313.172956 121.569231 
L 313.559302 120.018462 
L 313.945648 117.692308 
L 314.331995 117.692308 
L 314.718341 119.243077 
L 315.104687 122.344615 
L 315.87738 122.344615 
L 316.263726 108.387692 
L 316.650073 75.821538 
L 317.036419 91.329231 
L 317.422765 119.243077 
L 317.809112 121.569231 
L 318.195458 120.018462 
L 318.968151 109.163077 
L 319.354497 118.467692 
L 319.740843 105.286154 
L 320.12719 88.227692 
L 320.513536 120.018462 
L 320.899882 87.452308 
L 321.286229 113.815385 
L 321.672575 122.344615 
L 322.058921 78.147692 
L 322.445268 102.96 
L 322.831614 111.489231 
L 323.21796 73.495385 
L 323.604307 119.243077 
L 323.990653 120.018462 
L 324.376999 102.184615 
L 324.763346 113.04 
L 325.149692 99.858462 
L 325.536038 113.04 
L 325.922385 120.793846 
L 326.308731 56.436923 
L 326.695077 119.243077 
L 327.081424 120.018462 
L 327.46777 120.018462 
L 327.854116 114.590769 
L 328.240463 118.467692 
L 328.626809 107.612308 
L 329.013155 118.467692 
L 329.399501 120.793846 
L 329.785848 102.96 
L 330.172194 102.96 
L 330.55854 114.590769 
L 330.944887 100.633846 
L 331.331233 119.243077 
L 331.717579 120.018462 
L 332.103926 102.96 
L 332.490272 123.12 
L 332.876618 121.569231 
L 333.262965 120.793846 
L 333.649311 119.243077 
L 334.035657 121.569231 
L 334.422004 120.793846 
L 334.80835 119.243077 
L 335.194696 115.366154 
L 335.581043 117.692308 
L 335.967389 110.713846 
L 336.740082 122.344615 
L 337.126428 123.12 
L 337.512774 116.916923 
L 338.285467 121.569231 
L 338.671813 123.12 
L 339.05816 119.243077 
L 339.444506 122.344615 
L 339.830852 119.243077 
L 340.217199 123.12 
L 340.989891 121.569231 
L 341.376238 123.12 
L 341.762584 123.12 
L 342.14893 121.569231 
L 342.921623 120.018462 
L 343.307969 120.018462 
L 343.694316 120.793846 
L 344.080662 120.793846 
L 344.467008 123.12 
L 344.853355 121.569231 
L 345.239701 96.756923 
L 345.626047 120.793846 
L 346.012394 122.344615 
L 346.785086 122.344615 
L 347.171433 118.467692 
L 347.557779 119.243077 
L 347.944125 110.713846 
L 348.330472 121.569231 
L 348.716818 117.692308 
L 349.103164 122.344615 
L 349.48951 123.12 
L 349.875857 120.793846 
L 350.262203 121.569231 
L 350.648549 117.692308 
L 351.034896 119.243077 
L 351.421242 121.569231 
L 351.807588 122.344615 
L 352.193935 121.569231 
L 352.580281 118.467692 
L 352.966627 120.018462 
L 353.352974 119.243077 
L 353.73932 120.793846 
L 354.125666 116.916923 
L 354.512013 118.467692 
L 354.898359 123.12 
L 355.284705 119.243077 
L 355.671052 120.018462 
L 356.057398 111.489231 
L 356.443744 122.344615 
L 356.830091 119.243077 
L 357.216437 119.243077 
L 357.602783 120.018462 
L 357.98913 112.264615 
L 358.375476 99.858462 
L 358.761822 120.018462 
L 359.148169 122.344615 
L 359.534515 117.692308 
L 359.920861 121.569231 
L 360.307208 120.793846 
L 360.693554 120.793846 
L 361.0799 123.12 
L 361.852593 121.569231 
L 362.238939 120.018462 
L 362.625286 122.344615 
L 363.011632 120.018462 
L 363.397978 122.344615 
L 363.784325 120.018462 
L 364.170671 123.12 
L 364.557017 120.018462 
L 364.943364 121.569231 
L 365.32971 121.569231 
L 365.716056 120.018462 
L 366.102403 123.12 
L 366.488749 120.018462 
L 366.875095 121.569231 
L 367.261442 116.916923 
L 367.647788 122.344615 
L 368.034134 116.141538 
L 368.420481 99.858462 
L 368.806827 122.344615 
L 369.193173 123.12 
L 369.579519 121.569231 
L 369.965866 117.692308 
L 370.352212 121.569231 
L 371.124905 123.12 
L 371.511251 116.916923 
L 371.897597 121.569231 
L 372.283944 120.793846 
L 373.056636 108.387692 
L 373.442983 118.467692 
L 373.829329 121.569231 
L 374.215675 121.569231 
L 374.602022 117.692308 
L 374.988368 91.329231 
L 375.374714 110.713846 
L 375.761061 117.692308 
L 376.147407 120.793846 
L 376.533753 120.793846 
L 376.9201 98.307692 
L 377.306446 120.018462 
L 377.692792 122.344615 
L 378.465485 122.344615 
L 378.851831 120.793846 
L 379.238178 120.018462 
L 379.624524 121.569231 
L 380.01087 119.243077 
L 380.397217 120.793846 
L 380.783563 123.12 
L 381.169909 121.569231 
L 381.556256 118.467692 
L 381.942602 121.569231 
L 382.328948 117.692308 
L 382.715295 117.692308 
L 383.101641 119.243077 
L 383.487987 121.569231 
L 383.874334 107.612308 
L 384.26068 120.018462 
L 384.647026 110.713846 
L 385.033373 117.692308 
L 385.419719 119.243077 
L 385.806065 111.489231 
L 386.192412 121.569231 
L 386.965104 114.590769 
L 387.351451 120.018462 
L 387.737797 116.916923 
L 388.124143 110.713846 
L 388.51049 109.938462 
L 388.896836 119.243077 
L 389.283182 105.286154 
L 389.669528 111.489231 
L 390.055875 120.793846 
L 390.442221 109.938462 
L 390.828567 122.344615 
L 391.214914 121.569231 
L 391.60126 114.590769 
L 391.987606 116.916923 
L 392.373953 101.409231 
L 392.760299 114.590769 
L 393.146645 113.815385 
L 393.532992 113.815385 
L 393.919338 115.366154 
L 394.305684 119.243077 
L 394.692031 120.018462 
L 395.078377 117.692308 
L 395.464723 119.243077 
L 395.85107 113.04 
L 396.237416 120.018462 
L 396.623762 115.366154 
L 397.010109 109.163077 
L 397.396455 115.366154 
L 397.782801 116.141538 
L 398.169148 115.366154 
L 398.555494 122.344615 
L 398.94184 117.692308 
L 399.328187 121.569231 
L 399.714533 120.793846 
L 400.100879 113.815385 
L 400.487226 113.04 
L 400.873572 101.409231 
L 401.259918 113.04 
L 401.646265 110.713846 
L 402.032611 118.467692 
L 402.418957 120.018462 
L 402.805304 119.243077 
L 403.19165 119.243077 
L 403.577996 122.344615 
L 403.964343 119.243077 
L 404.350689 109.163077 
L 404.737035 119.243077 
L 405.509728 119.243077 
L 405.896074 122.344615 
L 406.282421 123.12 
L 406.668767 122.344615 
L 407.055113 118.467692 
L 407.44146 106.836923 
L 407.827806 120.018462 
L 408.214152 120.018462 
L 408.600499 123.12 
L 408.986845 123.12 
L 409.373191 98.307692 
L 410.145884 117.692308 
L 410.53223 113.04 
L 411.304923 122.344615 
L 411.691269 121.569231 
L 412.077615 122.344615 
L 412.463962 116.141538 
L 412.850308 122.344615 
L 413.236654 120.793846 
L 413.623001 121.569231 
L 414.009347 123.12 
L 414.395693 100.633846 
L 414.78204 120.018462 
L 415.168386 111.489231 
L 415.554732 111.489231 
L 415.941079 114.590769 
L 416.327425 120.793846 
L 416.713771 121.569231 
L 417.100118 116.141538 
L 417.486464 118.467692 
L 417.87281 117.692308 
L 418.259157 116.141538 
L 418.645503 122.344615 
L 419.031849 120.018462 
L 419.418196 121.569231 
L 420.190888 123.12 
L 421.736274 120.018462 
L 422.508966 105.286154 
L 422.895313 118.467692 
L 423.281659 116.141538 
L 423.668005 122.344615 
L 424.054352 116.141538 
L 424.440698 123.12 
L 424.827044 121.569231 
L 425.599737 120.018462 
L 425.986083 120.793846 
L 426.37243 120.018462 
L 426.758776 118.467692 
L 427.145122 107.612308 
L 427.531469 118.467692 
L 427.917815 117.692308 
L 428.304161 106.061538 
L 428.690508 122.344615 
L 429.076854 114.590769 
L 429.4632 122.344615 
L 429.849546 118.467692 
L 430.235893 121.569231 
L 430.622239 123.12 
L 431.008585 120.793846 
L 431.394932 122.344615 
L 431.781278 120.018462 
L 432.167624 123.12 
L 432.940317 123.12 
L 433.326663 120.018462 
L 433.71301 123.12 
L 434.099356 118.467692 
L 434.485702 123.12 
L 434.872049 122.344615 
L 435.258395 120.018462 
L 435.644741 107.612308 
L 436.031088 123.12 
L 436.417434 123.12 
L 436.80378 112.264615 
L 437.190127 113.04 
L 437.576473 110.713846 
L 437.962819 113.815385 
L 438.349166 122.344615 
L 438.735512 112.264615 
L 439.121858 120.018462 
L 439.508205 121.569231 
L 439.894551 122.344615 
L 440.280897 122.344615 
L 440.667244 123.12 
L 441.05359 122.344615 
L 441.439936 119.243077 
L 441.826283 121.569231 
L 442.598975 123.12 
L 442.985322 123.12 
L 443.371668 117.692308 
L 443.758014 118.467692 
L 444.144361 121.569231 
L 444.917053 121.569231 
L 445.3034 120.793846 
L 445.689746 120.793846 
L 446.076092 116.141538 
L 446.462439 122.344615 
L 446.848785 105.286154 
L 447.235131 118.467692 
L 447.621478 122.344615 
L 448.007824 119.243077 
L 448.39417 120.018462 
L 449.166863 113.04 
L 449.553209 118.467692 
L 449.939555 103.735385 
L 450.325902 123.12 
L 450.712248 117.692308 
L 451.484941 102.96 
L 451.871287 110.713846 
L 452.257633 82.8 
L 452.64398 116.141538 
L 453.030326 123.12 
L 453.416672 93.655385 
L 453.803019 113.04 
L 454.189365 109.163077 
L 454.575711 110.713846 
L 454.962058 117.692308 
L 455.348404 113.815385 
L 455.73475 122.344615 
L 456.121097 106.836923 
L 456.507443 112.264615 
L 456.893789 112.264615 
L 457.280136 107.612308 
L 457.666482 108.387692 
L 458.052828 121.569231 
L 458.439175 123.12 
L 458.825521 92.104615 
L 459.211867 22.32 
L 459.598214 102.184615 
L 459.98456 106.836923 
L 460.370906 106.061538 
L 460.757253 120.018462 
L 461.143599 120.793846 
L 461.529945 92.88 
L 461.916292 73.495385 
L 462.302638 110.713846 
L 462.688984 108.387692 
L 463.075331 103.735385 
L 463.461677 120.018462 
L 463.848023 123.12 
L 464.23437 85.901538 
L 465.007062 90.553846 
L 465.779755 120.018462 
L 466.166101 121.569231 
L 466.552448 122.344615 
L 466.938794 117.692308 
L 467.32514 106.836923 
L 467.711487 113.04 
L 468.097833 90.553846 
L 468.484179 92.88 
L 468.870526 121.569231 
L 469.256872 120.018462 
L 469.643218 101.409231 
L 470.029564 115.366154 
L 470.415911 96.756923 
L 470.802257 116.141538 
L 471.188603 123.12 
L 471.57495 123.12 
L 471.961296 116.141538 
L 472.347642 105.286154 
L 472.733989 118.467692 
L 473.120335 118.467692 
L 473.506681 121.569231 
L 473.893028 123.12 
L 474.279374 123.12 
L 474.66572 121.569231 
L 475.052067 113.815385 
L 475.438413 120.793846 
L 475.824759 123.12 
L 476.211106 99.083077 
L 476.597452 117.692308 
L 476.983798 116.141538 
L 477.370145 95.981538 
L 477.756491 114.590769 
L 478.142837 122.344615 
L 478.529184 120.793846 
L 478.91553 123.12 
L 479.301876 121.569231 
L 479.688223 100.633846 
L 480.074569 98.307692 
L 480.460915 115.366154 
L 480.847262 109.938462 
L 481.233608 116.916923 
L 481.619954 106.836923 
L 482.006301 120.793846 
L 482.392647 114.590769 
L 482.778993 121.569231 
L 483.16534 120.793846 
L 483.551686 121.569231 
L 483.938032 123.12 
L 484.324379 105.286154 
L 484.710725 111.489231 
L 485.097071 120.793846 
L 485.483418 122.344615 
L 486.642457 122.344615 
L 487.028803 119.243077 
L 487.415149 94.430769 
L 487.801496 118.467692 
L 488.187842 111.489231 
L 488.574188 118.467692 
L 488.960535 120.018462 
L 489.346881 120.793846 
L 489.733227 119.243077 
L 490.119573 121.569231 
L 490.50592 122.344615 
L 490.892266 120.018462 
L 491.278612 122.344615 
L 491.664959 109.938462 
L 492.051305 119.243077 
L 492.437651 117.692308 
L 492.823998 120.793846 
L 493.210344 95.981538 
L 493.59669 120.018462 
L 493.983037 120.793846 
L 494.369383 119.243077 
L 494.755729 120.793846 
L 495.142076 119.243077 
L 495.528422 97.532308 
L 495.914768 116.141538 
L 496.301115 118.467692 
L 496.687461 120.018462 
L 497.073807 116.141538 
L 497.460154 120.018462 
L 497.8465 120.018462 
L 498.232846 120.793846 
L 498.619193 119.243077 
L 499.005539 119.243077 
L 499.391885 120.793846 
L 499.778232 119.243077 
L 500.164578 119.243077 
L 500.550924 120.018462 
L 500.937271 108.387692 
L 501.323617 113.815385 
L 501.709963 122.344615 
L 502.09631 121.569231 
L 502.482656 120.018462 
L 502.869002 121.569231 
L 503.255349 120.018462 
L 503.641695 121.569231 
L 504.028041 116.141538 
L 504.414388 115.366154 
L 504.800734 109.938462 
L 505.18708 119.243077 
L 505.573427 120.793846 
L 506.346119 115.366154 
L 506.732466 118.467692 
L 507.118812 119.243077 
L 507.505158 121.569231 
L 507.891505 121.569231 
L 508.277851 116.141538 
L 508.664197 92.104615 
L 509.050544 117.692308 
L 509.43689 117.692308 
L 509.823236 115.366154 
L 510.209582 120.793846 
L 510.595929 120.793846 
L 510.982275 117.692308 
L 511.368621 120.793846 
L 511.754968 81.249231 
L 512.141314 120.793846 
L 512.52766 122.344615 
L 512.914007 121.569231 
L 513.300353 121.569231 
L 513.686699 102.96 
L 514.073046 113.815385 
L 514.459392 120.018462 
L 514.845738 121.569231 
L 515.232085 122.344615 
L 515.618431 112.264615 
L 516.004777 119.243077 
L 516.391124 122.344615 
L 516.77747 106.836923 
L 517.163816 115.366154 
L 517.550163 119.243077 
L 517.936509 98.307692 
L 518.322855 122.344615 
L 518.709202 123.12 
L 519.095548 120.793846 
L 519.868241 122.344615 
L 520.254587 119.243077 
L 520.640933 118.467692 
L 521.02728 120.793846 
L 521.413626 122.344615 
L 521.799972 121.569231 
L 522.186319 122.344615 
L 522.572665 122.344615 
L 522.959011 123.12 
L 523.345358 123.12 
L 523.731704 120.018462 
L 524.11805 65.741538 
L 524.504397 110.713846 
L 524.890743 112.264615 
L 525.277089 116.141538 
L 525.663436 106.836923 
L 526.049782 112.264615 
L 526.436128 112.264615 
L 526.822475 104.510769 
L 527.208821 117.692308 
L 527.595167 105.286154 
L 527.981514 120.793846 
L 528.36786 116.916923 
L 528.754206 115.366154 
L 529.140553 120.793846 
L 529.526899 119.243077 
L 529.913245 116.916923 
L 530.299591 120.018462 
L 530.685938 120.793846 
L 531.072284 104.510769 
L 531.45863 117.692308 
L 531.844977 105.286154 
L 532.231323 116.916923 
L 532.617669 107.612308 
L 533.004016 117.692308 
L 533.390362 118.467692 
L 533.776708 108.387692 
L 534.163055 109.163077 
L 534.549401 117.692308 
L 534.935747 120.793846 
L 535.322094 116.916923 
L 535.70844 117.692308 
L 536.094786 123.12 
L 536.481133 117.692308 
L 536.867479 96.756923 
L 537.253825 116.141538 
L 537.640172 118.467692 
L 538.026518 114.590769 
L 538.412864 117.692308 
L 538.799211 119.243077 
L 539.185557 108.387692 
L 539.571903 118.467692 
L 539.95825 107.612308 
L 540.344596 116.141538 
L 540.730942 117.692308 
L 541.117289 107.612308 
L 541.503635 117.692308 
L 541.889981 95.206154 
L 542.276328 102.96 
L 542.662674 116.141538 
L 543.435367 117.692308 
L 543.821713 95.206154 
L 544.208059 89.003077 
L 544.594406 110.713846 
L 544.980752 120.793846 
L 545.753445 119.243077 
L 546.139791 114.590769 
L 546.526137 111.489231 
L 546.912484 110.713846 
L 547.29883 34.726154 
L 547.685176 89.003077 
L 548.071523 113.04 
L 548.844215 120.018462 
L 549.230562 109.163077 
L 549.616908 106.061538 
L 550.003254 100.633846 
L 550.3896 117.692308 
L 550.775947 119.243077 
L 551.162293 116.916923 
L 551.548639 113.04 
L 551.934986 111.489231 
L 552.321332 114.590769 
L 553.094025 89.003077 
L 553.480371 120.793846 
L 553.866717 122.344615 
L 554.253064 113.04 
L 554.63941 120.018462 
L 555.025756 107.612308 
L 555.412103 120.018462 
L 555.798449 115.366154 
L 556.184795 119.243077 
L 556.571142 121.569231 
L 556.957488 113.815385 
L 557.343834 121.569231 
L 557.730181 120.018462 
L 558.116527 116.141538 
L 558.88922 123.12 
L 559.275566 122.344615 
L 559.661912 112.264615 
L 560.048259 120.018462 
L 560.434605 116.916923 
L 560.820951 118.467692 
L 561.207298 116.141538 
L 561.593644 117.692308 
L 561.97999 103.735385 
L 562.366337 120.018462 
L 562.752683 115.366154 
L 563.139029 120.018462 
L 563.525376 120.793846 
L 563.911722 119.243077 
L 564.298068 105.286154 
L 564.684415 123.12 
L 565.070761 109.938462 
L 565.457107 123.12 
L 565.843454 110.713846 
L 566.2298 52.56 
L 566.616146 105.286154 
L 567.002493 120.793846 
L 567.388839 110.713846 
L 567.775185 115.366154 
L 568.161532 116.916923 
L 568.547878 120.793846 
L 568.934224 119.243077 
L 569.320571 73.495385 
L 569.706917 117.692308 
L 570.093263 113.815385 
L 570.479609 118.467692 
L 570.865956 113.04 
L 571.252302 122.344615 
L 571.638648 117.692308 
L 572.024995 114.590769 
L 572.411341 117.692308 
L 573.184034 113.04 
L 573.57038 121.569231 
L 573.956726 123.12 
L 574.343073 122.344615 
L 574.729419 120.793846 
L 575.115765 92.104615 
L 575.502112 114.590769 
L 575.888458 117.692308 
L 576.274804 119.243077 
L 576.661151 87.452308 
L 577.047497 114.590769 
L 577.433843 94.430769 
L 577.82019 120.018462 
L 578.206536 113.815385 
L 578.592882 111.489231 
L 578.979229 119.243077 
L 579.365575 120.793846 
L 579.751921 85.901538 
L 580.138268 122.344615 
L 580.524614 98.307692 
L 580.91096 89.003077 
L 581.297307 122.344615 
L 581.683653 113.815385 
L 582.069999 116.916923 
L 582.842692 96.756923 
L 583.229038 118.467692 
L 583.615385 102.96 
L 584.001731 113.815385 
L 584.388077 116.141538 
L 584.774424 95.206154 
L 585.16077 119.243077 
L 585.547116 120.793846 
L 586.706155 97.532308 
L 587.478848 120.793846 
L 587.865194 109.163077 
L 588.251541 122.344615 
L 588.637887 116.916923 
L 589.024233 104.510769 
L 589.41058 84.350769 
L 589.796926 91.329231 
L 590.183272 92.88 
L 590.569619 120.793846 
L 590.955965 120.793846 
L 591.342311 86.676923 
L 591.728657 105.286154 
L 592.115004 107.612308 
L 592.50135 122.344615 
L 592.887696 118.467692 
L 593.274043 101.409231 
L 593.660389 100.633846 
L 594.046735 100.633846 
L 594.433082 113.04 
L 594.819428 106.061538 
L 595.205774 115.366154 
L 595.592121 105.286154 
L 595.978467 119.243077 
L 596.364813 120.793846 
L 596.75116 121.569231 
L 597.137506 119.243077 
L 597.523852 113.815385 
L 597.910199 113.815385 
L 598.682891 120.018462 
L 599.069238 121.569231 
L 599.455584 114.590769 
L 599.84193 102.96 
L 600.228277 119.243077 
L 600.614623 116.141538 
L 601.000969 94.430769 
L 601.387316 123.12 
L 601.773662 120.793846 
L 602.160008 105.286154 
L 602.546355 102.184615 
L 603.319047 120.018462 
L 603.705394 106.836923 
L 604.09174 122.344615 
L 604.478086 118.467692 
L 604.864433 102.184615 
L 605.250779 113.04 
L 605.637125 54.886154 
L 606.023472 104.510769 
L 606.409818 92.88 
L 606.796164 113.04 
L 607.182511 117.692308 
L 607.568857 113.815385 
L 607.955203 98.307692 
L 608.34155 113.04 
L 608.727896 74.270769 
L 609.114242 101.409231 
L 609.500589 113.04 
L 609.886935 98.307692 
L 610.273281 92.88 
L 610.659628 85.126154 
L 611.045974 118.467692 
L 611.43232 113.04 
L 611.818666 104.510769 
L 612.205013 118.467692 
L 612.591359 111.489231 
L 612.977705 119.243077 
L 613.364052 67.292308 
L 613.750398 90.553846 
L 614.136744 90.553846 
L 614.523091 104.510769 
L 614.909437 123.12 
L 615.295783 122.344615 
L 615.68213 95.206154 
L 616.068476 116.916923 
L 616.454822 106.061538 
L 617.227515 115.366154 
L 618.000208 116.916923 
L 618.386554 87.452308 
L 618.7729 106.061538 
L 619.159247 92.104615 
L 619.545593 106.061538 
L 619.931939 89.778462 
L 620.318286 113.815385 
L 620.704632 111.489231 
L 621.090978 84.350769 
L 621.477325 114.590769 
L 621.863671 99.858462 
L 622.250017 92.104615 
L 622.636364 86.676923 
L 622.636364 86.676923 
" clip-path="url(#p81caeb7185)" style="fill: none; stroke: #1f77b4; stroke-width: 1.5; stroke-linecap: square"/>
   </g>
   <g id="patch_3">
    <path d="M 90 128.16 
L 90 17.28 
" style="fill: none; stroke: #000000; stroke-width: 0.8; stroke-linejoin: miter; stroke-linecap: square"/>
   </g>
   <g id="patch_4">
    <path d="M 648 128.16 
L 648 17.28 
" style="fill: none; stroke: #000000; stroke-width: 0.8; stroke-linejoin: miter; stroke-linecap: square"/>
   </g>
   <g id="patch_5">
    <path d="M 90 128.16 
L 648 128.16 
" style="fill: none; stroke: #000000; stroke-width: 0.8; stroke-linejoin: miter; stroke-linecap: square"/>
   </g>
   <g id="patch_6">
    <path d="M 90 17.28 
L 648 17.28 
" style="fill: none; stroke: #000000; stroke-width: 0.8; stroke-linejoin: miter; stroke-linecap: square"/>
   </g>
   <g id="legend_1">
    <g id="patch_7">
     <path d="M 97 39.958125 
L 264.190625 39.958125 
Q 266.190625 39.958125 266.190625 37.958125 
L 266.190625 24.28 
Q 266.190625 22.28 264.190625 22.28 
L 97 22.28 
Q 95 22.28 95 24.28 
L 95 37.958125 
Q 95 39.958125 97 39.958125 
z
" style="fill: #ffffff; opacity: 0.8; stroke: #cccccc; stroke-linejoin: miter"/>
    </g>
    <g id="line2d_12">
     <path d="M 99 30.378437 
L 109 30.378437 
L 119 30.378437 
" style="fill: none; stroke: #1f77b4; stroke-width: 1.5; stroke-linecap: square"/>
    </g>
    <g id="text_12">
     <!-- Number of PyPI Downloads -->
     <g transform="translate(127 33.878437) scale(0.1 -0.1)">
      <defs>
       <path id="DejaVuSans-4e" d="M 628 4666 
L 1478 4666 
L 3547 763 
L 3547 4666 
L 4159 4666 
L 4159 0 
L 3309 0 
L 1241 3903 
L 1241 0 
L 628 0 
L 628 4666 
z
" transform="scale(0.015625)"/>
       <path id="DejaVuSans-75" d="M 544 1381 
L 544 3500 
L 1119 3500 
L 1119 1403 
Q 1119 906 1312 657 
Q 1506 409 1894 409 
Q 2359 409 2629 706 
Q 2900 1003 2900 1516 
L 2900 3500 
L 3475 3500 
L 3475 0 
L 2900 0 
L 2900 538 
Q 2691 219 2414 64 
Q 2138 -91 1772 -91 
Q 1169 -91 856 284 
Q 544 659 544 1381 
z
M 1991 3584 
L 1991 3584 
z
" transform="scale(0.015625)"/>
       <path id="DejaVuSans-6d" d="M 3328 2828 
Q 3544 3216 3844 3400 
Q 4144 3584 4550 3584 
Q 5097 3584 5394 3201 
Q 5691 2819 5691 2113 
L 5691 0 
L 5113 0 
L 5113 2094 
Q 5113 2597 4934 2840 
Q 4756 3084 4391 3084 
Q 3944 3084 3684 2787 
Q 3425 2491 3425 1978 
L 3425 0 
L 2847 0 
L 2847 2094 
Q 2847 2600 2669 2842 
Q 2491 3084 2119 3084 
Q 1678 3084 1418 2786 
Q 1159 2488 1159 1978 
L 1159 0 
L 581 0 
L 581 3500 
L 1159 3500 
L 1159 2956 
Q 1356 3278 1631 3431 
Q 1906 3584 2284 3584 
Q 2666 3584 2933 3390 
Q 3200 3197 3328 2828 
z
" transform="scale(0.015625)"/>
       <path id="DejaVuSans-62" d="M 3116 1747 
Q 3116 2381 2855 2742 
Q 2594 3103 2138 3103 
Q 1681 3103 1420 2742 
Q 1159 2381 1159 1747 
Q 1159 1113 1420 752 
Q 1681 391 2138 391 
Q 2594 391 2855 752 
Q 3116 1113 3116 1747 
z
M 1159 2969 
Q 1341 3281 1617 3432 
Q 1894 3584 2278 3584 
Q 2916 3584 3314 3078 
Q 3713 2572 3713 1747 
Q 3713 922 3314 415 
Q 2916 -91 2278 -91 
Q 1894 -91 1617 61 
Q 1341 213 1159 525 
L 1159 0 
L 581 0 
L 581 4863 
L 1159 4863 
L 1159 2969 
z
" transform="scale(0.015625)"/>
       <path id="DejaVuSans-72" d="M 2631 2963 
Q 2534 3019 2420 3045 
Q 2306 3072 2169 3072 
Q 1681 3072 1420 2755 
Q 1159 2438 1159 1844 
L 1159 0 
L 581 0 
L 581 3500 
L 1159 3500 
L 1159 2956 
Q 1341 3275 1631 3429 
Q 1922 3584 2338 3584 
Q 2397 3584 2469 3576 
Q 2541 3569 2628 3553 
L 2631 2963 
z
" transform="scale(0.015625)"/>
       <path id="DejaVuSans-20" transform="scale(0.015625)"/>
       <path id="DejaVuSans-6f" d="M 1959 3097 
Q 1497 3097 1228 2736 
Q 959 2375 959 1747 
Q 959 1119 1226 758 
Q 1494 397 1959 397 
Q 2419 397 2687 759 
Q 2956 1122 2956 1747 
Q 2956 2369 2687 2733 
Q 2419 3097 1959 3097 
z
M 1959 3584 
Q 2709 3584 3137 3096 
Q 3566 2609 3566 1747 
Q 3566 888 3137 398 
Q 2709 -91 1959 -91 
Q 1206 -91 779 398 
Q 353 888 353 1747 
Q 353 2609 779 3096 
Q 1206 3584 1959 3584 
z
" transform="scale(0.015625)"/>
       <path id="DejaVuSans-66" d="M 2375 4863 
L 2375 4384 
L 1825 4384 
Q 1516 4384 1395 4259 
Q 1275 4134 1275 3809 
L 1275 3500 
L 2222 3500 
L 2222 3053 
L 1275 3053 
L 1275 0 
L 697 0 
L 697 3053 
L 147 3053 
L 147 3500 
L 697 3500 
L 697 3744 
Q 697 4328 969 4595 
Q 1241 4863 1831 4863 
L 2375 4863 
z
" transform="scale(0.015625)"/>
       <path id="DejaVuSans-50" d="M 1259 4147 
L 1259 2394 
L 2053 2394 
Q 2494 2394 2734 2622 
Q 2975 2850 2975 3272 
Q 2975 3691 2734 3919 
Q 2494 4147 2053 4147 
L 1259 4147 
z
M 628 4666 
L 2053 4666 
Q 2838 4666 3239 4311 
Q 3641 3956 3641 3272 
Q 3641 2581 3239 2228 
Q 2838 1875 2053 1875 
L 1259 1875 
L 1259 0 
L 628 0 
L 628 4666 
z
" transform="scale(0.015625)"/>
       <path id="DejaVuSans-79" d="M 2059 -325 
Q 1816 -950 1584 -1140 
Q 1353 -1331 966 -1331 
L 506 -1331 
L 506 -850 
L 844 -850 
Q 1081 -850 1212 -737 
Q 1344 -625 1503 -206 
L 1606 56 
L 191 3500 
L 800 3500 
L 1894 763 
L 2988 3500 
L 3597 3500 
L 2059 -325 
z
" transform="scale(0.015625)"/>
       <path id="DejaVuSans-49" d="M 628 4666 
L 1259 4666 
L 1259 0 
L 628 0 
L 628 4666 
z
" transform="scale(0.015625)"/>
       <path id="DejaVuSans-44" d="M 1259 4147 
L 1259 519 
L 2022 519 
Q 2988 519 3436 956 
Q 3884 1394 3884 2338 
Q 3884 3275 3436 3711 
Q 2988 4147 2022 4147 
L 1259 4147 
z
M 628 4666 
L 1925 4666 
Q 3281 4666 3915 4102 
Q 4550 3538 4550 2338 
Q 4550 1131 3912 565 
Q 3275 0 1925 0 
L 628 0 
L 628 4666 
z
" transform="scale(0.015625)"/>
       <path id="DejaVuSans-77" d="M 269 3500 
L 844 3500 
L 1563 769 
L 2278 3500 
L 2956 3500 
L 3675 769 
L 4391 3500 
L 4966 3500 
L 4050 0 
L 3372 0 
L 2619 2869 
L 1863 0 
L 1184 0 
L 269 3500 
z
" transform="scale(0.015625)"/>
       <path id="DejaVuSans-6e" d="M 3513 2113 
L 3513 0 
L 2938 0 
L 2938 2094 
Q 2938 2591 2744 2837 
Q 2550 3084 2163 3084 
Q 1697 3084 1428 2787 
Q 1159 2491 1159 1978 
L 1159 0 
L 581 0 
L 581 3500 
L 1159 3500 
L 1159 2956 
Q 1366 3272 1645 3428 
Q 1925 3584 2291 3584 
Q 2894 3584 3203 3211 
Q 3513 2838 3513 2113 
z
" transform="scale(0.015625)"/>
       <path id="DejaVuSans-6c" d="M 603 4863 
L 1178 4863 
L 1178 0 
L 603 0 
L 603 4863 
z
" transform="scale(0.015625)"/>
       <path id="DejaVuSans-73" d="M 2834 3397 
L 2834 2853 
Q 2591 2978 2328 3040 
Q 2066 3103 1784 3103 
Q 1356 3103 1142 2972 
Q 928 2841 928 2578 
Q 928 2378 1081 2264 
Q 1234 2150 1697 2047 
L 1894 2003 
Q 2506 1872 2764 1633 
Q 3022 1394 3022 966 
Q 3022 478 2636 193 
Q 2250 -91 1575 -91 
Q 1294 -91 989 -36 
Q 684 19 347 128 
L 347 722 
Q 666 556 975 473 
Q 1284 391 1588 391 
Q 1994 391 2212 530 
Q 2431 669 2431 922 
Q 2431 1156 2273 1281 
Q 2116 1406 1581 1522 
L 1381 1569 
Q 847 1681 609 1914 
Q 372 2147 372 2553 
Q 372 3047 722 3315 
Q 1072 3584 1716 3584 
Q 2034 3584 2315 3537 
Q 2597 3491 2834 3397 
z
" transform="scale(0.015625)"/>
      </defs>
      <use xlink:href="#DejaVuSans-4e"/>
      <use xlink:href="#DejaVuSans-75" x="74.804688"/>
      <use xlink:href="#DejaVuSans-6d" x="138.183594"/>
      <use xlink:href="#DejaVuSans-62" x="235.595703"/>
      <use xlink:href="#DejaVuSans-65" x="299.072266"/>
      <use xlink:href="#DejaVuSans-72" x="360.595703"/>
      <use xlink:href="#DejaVuSans-20" x="401.708984"/>
      <use xlink:href="#DejaVuSans-6f" x="433.496094"/>
      <use xlink:href="#DejaVuSans-66" x="494.677734"/>
      <use xlink:href="#DejaVuSans-20" x="529.882812"/>
      <use xlink:href="#DejaVuSans-50" x="561.669922"/>
      <use xlink:href="#DejaVuSans-79" x="621.972656"/>
      <use xlink:href="#DejaVuSans-50" x="681.152344"/>
      <use xlink:href="#DejaVuSans-49" x="741.455078"/>
      <use xlink:href="#DejaVuSans-20" x="770.947266"/>
      <use xlink:href="#DejaVuSans-44" x="802.734375"/>
      <use xlink:href="#DejaVuSans-6f" x="879.736328"/>
      <use xlink:href="#DejaVuSans-77" x="940.917969"/>
      <use xlink:href="#DejaVuSans-6e" x="1022.705078"/>
      <use xlink:href="#DejaVuSans-6c" x="1086.083984"/>
      <use xlink:href="#DejaVuSans-6f" x="1113.867188"/>
      <use xlink:href="#DejaVuSans-61" x="1175.048828"/>
      <use xlink:href="#DejaVuSans-64" x="1236.328125"/>
      <use xlink:href="#DejaVuSans-73" x="1299.804688"/>
     </g>
    </g>
   </g>
  </g>
 </g>
 <defs>
  <clipPath id="p81caeb7185">
   <rect x="90" y="17.28" width="558" height="110.88"/>
  </clipPath>
 </defs>
</svg>
