<?xml version="1.0" encoding="utf-8" standalone="no"?>
<!DOCTYPE svg PUBLIC "-//W3C//DTD SVG 1.1//EN"
  "http://www.w3.org/Graphics/SVG/1.1/DTD/svg11.dtd">
<svg xmlns:xlink="http://www.w3.org/1999/xlink" width="720pt" height="144pt" viewBox="0 0 720 144" xmlns="http://www.w3.org/2000/svg" version="1.1">
 <metadata>
  <rdf:RDF xmlns:dc="http://purl.org/dc/elements/1.1/" xmlns:cc="http://creativecommons.org/ns#" xmlns:rdf="http://www.w3.org/1999/02/22-rdf-syntax-ns#">
   <cc:Work>
    <dc:type rdf:resource="http://purl.org/dc/dcmitype/StillImage"/>
    <dc:date>2024-02-01T20:56:49.532417</dc:date>
    <dc:format>image/svg+xml</dc:format>
    <dc:creator>
     <cc:Agent>
      <dc:title>Matplotlib v3.8.2, https://matplotlib.org/</dc:title>
     </cc:Agent>
    </dc:creator>
   </cc:Work>
  </rdf:RDF>
 </metadata>
 <defs>
  <style type="text/css">*{stroke-linejoin: round; stroke-linecap: butt}</style>
 </defs>
 <g id="figure_1">
  <g id="patch_1">
   <path d="M 0 144 
L 720 144 
L 720 0 
L 0 0 
z
" style="fill: #ffffff"/>
  </g>
  <g id="axes_1">
   <g id="patch_2">
    <path d="M 90 128.16 
L 648 128.16 
L 648 17.28 
L 90 17.28 
z
" style="fill: #ffffff"/>
   </g>
   <g id="matplotlib.axis_1">
    <g id="xtick_1">
     <g id="line2d_1">
      <defs>
       <path id="m54b7ddd3a2" d="M 0 0 
L 0 3.5 
" style="stroke: #000000; stroke-width: 0.8"/>
      </defs>
      <g>
       <use xlink:href="#m54b7ddd3a2" x="115.363636" y="128.16" style="stroke: #000000; stroke-width: 0.8"/>
      </g>
     </g>
     <g id="text_1">
      <!-- 2020-06-18 -->
      <g transform="translate(86.305824 142.758438) scale(0.1 -0.1)">
       <defs>
        <path id="DejaVuSans-32" d="M 1228 531 
L 3431 531 
L 3431 0 
L 469 0 
L 469 531 
Q 828 903 1448 1529 
Q 2069 2156 2228 2338 
Q 2531 2678 2651 2914 
Q 2772 3150 2772 3378 
Q 2772 3750 2511 3984 
Q 2250 4219 1831 4219 
Q 1534 4219 1204 4116 
Q 875 4013 500 3803 
L 500 4441 
Q 881 4594 1212 4672 
Q 1544 4750 1819 4750 
Q 2544 4750 2975 4387 
Q 3406 4025 3406 3419 
Q 3406 3131 3298 2873 
Q 3191 2616 2906 2266 
Q 2828 2175 2409 1742 
Q 1991 1309 1228 531 
z
" transform="scale(0.015625)"/>
        <path id="DejaVuSans-30" d="M 2034 4250 
Q 1547 4250 1301 3770 
Q 1056 3291 1056 2328 
Q 1056 1369 1301 889 
Q 1547 409 2034 409 
Q 2525 409 2770 889 
Q 3016 1369 3016 2328 
Q 3016 3291 2770 3770 
Q 2525 4250 2034 4250 
z
M 2034 4750 
Q 2819 4750 3233 4129 
Q 3647 3509 3647 2328 
Q 3647 1150 3233 529 
Q 2819 -91 2034 -91 
Q 1250 -91 836 529 
Q 422 1150 422 2328 
Q 422 3509 836 4129 
Q 1250 4750 2034 4750 
z
" transform="scale(0.015625)"/>
        <path id="DejaVuSans-2d" d="M 313 2009 
L 1997 2009 
L 1997 1497 
L 313 1497 
L 313 2009 
z
" transform="scale(0.015625)"/>
        <path id="DejaVuSans-36" d="M 2113 2584 
Q 1688 2584 1439 2293 
Q 1191 2003 1191 1497 
Q 1191 994 1439 701 
Q 1688 409 2113 409 
Q 2538 409 2786 701 
Q 3034 994 3034 1497 
Q 3034 2003 2786 2293 
Q 2538 2584 2113 2584 
z
M 3366 4563 
L 3366 3988 
Q 3128 4100 2886 4159 
Q 2644 4219 2406 4219 
Q 1781 4219 1451 3797 
Q 1122 3375 1075 2522 
Q 1259 2794 1537 2939 
Q 1816 3084 2150 3084 
Q 2853 3084 3261 2657 
Q 3669 2231 3669 1497 
Q 3669 778 3244 343 
Q 2819 -91 2113 -91 
Q 1303 -91 875 529 
Q 447 1150 447 2328 
Q 447 3434 972 4092 
Q 1497 4750 2381 4750 
Q 2619 4750 2861 4703 
Q 3103 4656 3366 4563 
z
" transform="scale(0.015625)"/>
        <path id="DejaVuSans-31" d="M 794 531 
L 1825 531 
L 1825 4091 
L 703 3866 
L 703 4441 
L 1819 4666 
L 2450 4666 
L 2450 531 
L 3481 531 
L 3481 0 
L 794 0 
L 794 531 
z
" transform="scale(0.015625)"/>
        <path id="DejaVuSans-38" d="M 2034 2216 
Q 1584 2216 1326 1975 
Q 1069 1734 1069 1313 
Q 1069 891 1326 650 
Q 1584 409 2034 409 
Q 2484 409 2743 651 
Q 3003 894 3003 1313 
Q 3003 1734 2745 1975 
Q 2488 2216 2034 2216 
z
M 1403 2484 
Q 997 2584 770 2862 
Q 544 3141 544 3541 
Q 544 4100 942 4425 
Q 1341 4750 2034 4750 
Q 2731 4750 3128 4425 
Q 3525 4100 3525 3541 
Q 3525 3141 3298 2862 
Q 3072 2584 2669 2484 
Q 3125 2378 3379 2068 
Q 3634 1759 3634 1313 
Q 3634 634 3220 271 
Q 2806 -91 2034 -91 
Q 1263 -91 848 271 
Q 434 634 434 1313 
Q 434 1759 690 2068 
Q 947 2378 1403 2484 
z
M 1172 3481 
Q 1172 3119 1398 2916 
Q 1625 2713 2034 2713 
Q 2441 2713 2670 2916 
Q 2900 3119 2900 3481 
Q 2900 3844 2670 4047 
Q 2441 4250 2034 4250 
Q 1625 4250 1398 4047 
Q 1172 3844 1172 3481 
z
" transform="scale(0.015625)"/>
       </defs>
       <use xlink:href="#DejaVuSans-32"/>
       <use xlink:href="#DejaVuSans-30" x="63.623047"/>
       <use xlink:href="#DejaVuSans-32" x="127.246094"/>
       <use xlink:href="#DejaVuSans-30" x="190.869141"/>
       <use xlink:href="#DejaVuSans-2d" x="254.492188"/>
       <use xlink:href="#DejaVuSans-30" x="290.576172"/>
       <use xlink:href="#DejaVuSans-36" x="354.199219"/>
       <use xlink:href="#DejaVuSans-2d" x="417.822266"/>
       <use xlink:href="#DejaVuSans-31" x="453.90625"/>
       <use xlink:href="#DejaVuSans-38" x="517.529297"/>
      </g>
     </g>
    </g>
    <g id="xtick_2">
     <g id="line2d_2">
      <g>
       <use xlink:href="#m54b7ddd3a2" x="200.191852" y="128.16" style="stroke: #000000; stroke-width: 0.8"/>
      </g>
     </g>
     <g id="text_2">
      <!-- 2021-03-13 -->
      <g transform="translate(171.134039 142.758438) scale(0.1 -0.1)">
       <defs>
        <path id="DejaVuSans-33" d="M 2597 2516 
Q 3050 2419 3304 2112 
Q 3559 1806 3559 1356 
Q 3559 666 3084 287 
Q 2609 -91 1734 -91 
Q 1441 -91 1130 -33 
Q 819 25 488 141 
L 488 750 
Q 750 597 1062 519 
Q 1375 441 1716 441 
Q 2309 441 2620 675 
Q 2931 909 2931 1356 
Q 2931 1769 2642 2001 
Q 2353 2234 1838 2234 
L 1294 2234 
L 1294 2753 
L 1863 2753 
Q 2328 2753 2575 2939 
Q 2822 3125 2822 3475 
Q 2822 3834 2567 4026 
Q 2313 4219 1838 4219 
Q 1578 4219 1281 4162 
Q 984 4106 628 3988 
L 628 4550 
Q 988 4650 1302 4700 
Q 1616 4750 1894 4750 
Q 2613 4750 3031 4423 
Q 3450 4097 3450 3541 
Q 3450 3153 3228 2886 
Q 3006 2619 2597 2516 
z
" transform="scale(0.015625)"/>
       </defs>
       <use xlink:href="#DejaVuSans-32"/>
       <use xlink:href="#DejaVuSans-30" x="63.623047"/>
       <use xlink:href="#DejaVuSans-32" x="127.246094"/>
       <use xlink:href="#DejaVuSans-31" x="190.869141"/>
       <use xlink:href="#DejaVuSans-2d" x="254.492188"/>
       <use xlink:href="#DejaVuSans-30" x="290.576172"/>
       <use xlink:href="#DejaVuSans-33" x="354.199219"/>
       <use xlink:href="#DejaVuSans-2d" x="417.822266"/>
       <use xlink:href="#DejaVuSans-31" x="453.90625"/>
       <use xlink:href="#DejaVuSans-33" x="517.529297"/>
      </g>
     </g>
    </g>
    <g id="xtick_3">
     <g id="line2d_3">
      <g>
       <use xlink:href="#m54b7ddd3a2" x="285.020067" y="128.16" style="stroke: #000000; stroke-width: 0.8"/>
      </g>
     </g>
     <g id="text_3">
      <!-- 2021-10-16 -->
      <g transform="translate(255.962254 142.758438) scale(0.1 -0.1)">
       <use xlink:href="#DejaVuSans-32"/>
       <use xlink:href="#DejaVuSans-30" x="63.623047"/>
       <use xlink:href="#DejaVuSans-32" x="127.246094"/>
       <use xlink:href="#DejaVuSans-31" x="190.869141"/>
       <use xlink:href="#DejaVuSans-2d" x="254.492188"/>
       <use xlink:href="#DejaVuSans-31" x="290.576172"/>
       <use xlink:href="#DejaVuSans-30" x="354.199219"/>
       <use xlink:href="#DejaVuSans-2d" x="417.822266"/>
       <use xlink:href="#DejaVuSans-31" x="453.90625"/>
       <use xlink:href="#DejaVuSans-36" x="517.529297"/>
      </g>
     </g>
    </g>
    <g id="xtick_4">
     <g id="line2d_4">
      <g>
       <use xlink:href="#m54b7ddd3a2" x="369.848282" y="128.16" style="stroke: #000000; stroke-width: 0.8"/>
      </g>
     </g>
     <g id="text_4">
      <!-- 2022-05-12 -->
      <g transform="translate(340.79047 142.758438) scale(0.1 -0.1)">
       <defs>
        <path id="DejaVuSans-35" d="M 691 4666 
L 3169 4666 
L 3169 4134 
L 1269 4134 
L 1269 2991 
Q 1406 3038 1543 3061 
Q 1681 3084 1819 3084 
Q 2600 3084 3056 2656 
Q 3513 2228 3513 1497 
Q 3513 744 3044 326 
Q 2575 -91 1722 -91 
Q 1428 -91 1123 -41 
Q 819 9 494 109 
L 494 744 
Q 775 591 1075 516 
Q 1375 441 1709 441 
Q 2250 441 2565 725 
Q 2881 1009 2881 1497 
Q 2881 1984 2565 2268 
Q 2250 2553 1709 2553 
Q 1456 2553 1204 2497 
Q 953 2441 691 2322 
L 691 4666 
z
" transform="scale(0.015625)"/>
       </defs>
       <use xlink:href="#DejaVuSans-32"/>
       <use xlink:href="#DejaVuSans-30" x="63.623047"/>
       <use xlink:href="#DejaVuSans-32" x="127.246094"/>
       <use xlink:href="#DejaVuSans-32" x="190.869141"/>
       <use xlink:href="#DejaVuSans-2d" x="254.492188"/>
       <use xlink:href="#DejaVuSans-30" x="290.576172"/>
       <use xlink:href="#DejaVuSans-35" x="354.199219"/>
       <use xlink:href="#DejaVuSans-2d" x="417.822266"/>
       <use xlink:href="#DejaVuSans-31" x="453.90625"/>
       <use xlink:href="#DejaVuSans-32" x="517.529297"/>
      </g>
     </g>
    </g>
    <g id="xtick_5">
     <g id="line2d_5">
      <g>
       <use xlink:href="#m54b7ddd3a2" x="454.676497" y="128.16" style="stroke: #000000; stroke-width: 0.8"/>
      </g>
     </g>
     <g id="text_5">
      <!-- 2022-12-07 -->
      <g transform="translate(425.618685 142.758438) scale(0.1 -0.1)">
       <defs>
        <path id="DejaVuSans-37" d="M 525 4666 
L 3525 4666 
L 3525 4397 
L 1831 0 
L 1172 0 
L 2766 4134 
L 525 4134 
L 525 4666 
z
" transform="scale(0.015625)"/>
       </defs>
       <use xlink:href="#DejaVuSans-32"/>
       <use xlink:href="#DejaVuSans-30" x="63.623047"/>
       <use xlink:href="#DejaVuSans-32" x="127.246094"/>
       <use xlink:href="#DejaVuSans-32" x="190.869141"/>
       <use xlink:href="#DejaVuSans-2d" x="254.492188"/>
       <use xlink:href="#DejaVuSans-31" x="290.576172"/>
       <use xlink:href="#DejaVuSans-32" x="354.199219"/>
       <use xlink:href="#DejaVuSans-2d" x="417.822266"/>
       <use xlink:href="#DejaVuSans-30" x="453.90625"/>
       <use xlink:href="#DejaVuSans-37" x="517.529297"/>
      </g>
     </g>
    </g>
    <g id="xtick_6">
     <g id="line2d_6">
      <g>
       <use xlink:href="#m54b7ddd3a2" x="539.504713" y="128.16" style="stroke: #000000; stroke-width: 0.8"/>
      </g>
     </g>
     <g id="text_6">
      <!-- 2023-07-11 -->
      <g transform="translate(510.4469 142.758438) scale(0.1 -0.1)">
       <use xlink:href="#DejaVuSans-32"/>
       <use xlink:href="#DejaVuSans-30" x="63.623047"/>
       <use xlink:href="#DejaVuSans-32" x="127.246094"/>
       <use xlink:href="#DejaVuSans-33" x="190.869141"/>
       <use xlink:href="#DejaVuSans-2d" x="254.492188"/>
       <use xlink:href="#DejaVuSans-30" x="290.576172"/>
       <use xlink:href="#DejaVuSans-37" x="354.199219"/>
       <use xlink:href="#DejaVuSans-2d" x="417.822266"/>
       <use xlink:href="#DejaVuSans-31" x="453.90625"/>
       <use xlink:href="#DejaVuSans-31" x="517.529297"/>
      </g>
     </g>
    </g>
    <g id="xtick_7">
     <g id="line2d_7">
      <g>
       <use xlink:href="#m54b7ddd3a2" x="624.332928" y="128.16" style="stroke: #000000; stroke-width: 0.8"/>
      </g>
     </g>
    </g>
    <g id="text_7">
     <!-- date -->
     <g transform="translate(357.725 156.436563) scale(0.1 -0.1)">
      <defs>
       <path id="DejaVuSans-64" d="M 2906 2969 
L 2906 4863 
L 3481 4863 
L 3481 0 
L 2906 0 
L 2906 525 
Q 2725 213 2448 61 
Q 2172 -91 1784 -91 
Q 1150 -91 751 415 
Q 353 922 353 1747 
Q 353 2572 751 3078 
Q 1150 3584 1784 3584 
Q 2172 3584 2448 3432 
Q 2725 3281 2906 2969 
z
M 947 1747 
Q 947 1113 1208 752 
Q 1469 391 1925 391 
Q 2381 391 2643 752 
Q 2906 1113 2906 1747 
Q 2906 2381 2643 2742 
Q 2381 3103 1925 3103 
Q 1469 3103 1208 2742 
Q 947 2381 947 1747 
z
" transform="scale(0.015625)"/>
       <path id="DejaVuSans-61" d="M 2194 1759 
Q 1497 1759 1228 1600 
Q 959 1441 959 1056 
Q 959 750 1161 570 
Q 1363 391 1709 391 
Q 2188 391 2477 730 
Q 2766 1069 2766 1631 
L 2766 1759 
L 2194 1759 
z
M 3341 1997 
L 3341 0 
L 2766 0 
L 2766 531 
Q 2569 213 2275 61 
Q 1981 -91 1556 -91 
Q 1019 -91 701 211 
Q 384 513 384 1019 
Q 384 1609 779 1909 
Q 1175 2209 1959 2209 
L 2766 2209 
L 2766 2266 
Q 2766 2663 2505 2880 
Q 2244 3097 1772 3097 
Q 1472 3097 1187 3025 
Q 903 2953 641 2809 
L 641 3341 
Q 956 3463 1253 3523 
Q 1550 3584 1831 3584 
Q 2591 3584 2966 3190 
Q 3341 2797 3341 1997 
z
" transform="scale(0.015625)"/>
       <path id="DejaVuSans-74" d="M 1172 4494 
L 1172 3500 
L 2356 3500 
L 2356 3053 
L 1172 3053 
L 1172 1153 
Q 1172 725 1289 603 
Q 1406 481 1766 481 
L 2356 481 
L 2356 0 
L 1766 0 
Q 1100 0 847 248 
Q 594 497 594 1153 
L 594 3053 
L 172 3053 
L 172 3500 
L 594 3500 
L 594 4494 
L 1172 4494 
z
" transform="scale(0.015625)"/>
       <path id="DejaVuSans-65" d="M 3597 1894 
L 3597 1613 
L 953 1613 
Q 991 1019 1311 708 
Q 1631 397 2203 397 
Q 2534 397 2845 478 
Q 3156 559 3463 722 
L 3463 178 
Q 3153 47 2828 -22 
Q 2503 -91 2169 -91 
Q 1331 -91 842 396 
Q 353 884 353 1716 
Q 353 2575 817 3079 
Q 1281 3584 2069 3584 
Q 2775 3584 3186 3129 
Q 3597 2675 3597 1894 
z
M 3022 2063 
Q 3016 2534 2758 2815 
Q 2500 3097 2075 3097 
Q 1594 3097 1305 2825 
Q 1016 2553 972 2059 
L 3022 2063 
z
" transform="scale(0.015625)"/>
      </defs>
      <use xlink:href="#DejaVuSans-64"/>
      <use xlink:href="#DejaVuSans-61" x="63.476562"/>
      <use xlink:href="#DejaVuSans-74" x="124.755859"/>
      <use xlink:href="#DejaVuSans-65" x="163.964844"/>
     </g>
    </g>
   </g>
   <g id="matplotlib.axis_2">
    <g id="ytick_1">
     <g id="line2d_8">
      <defs>
       <path id="m114652333c" d="M 0 0 
L -3.5 0 
" style="stroke: #000000; stroke-width: 0.8"/>
      </defs>
      <g>
       <use xlink:href="#m114652333c" x="90" y="123.895385" style="stroke: #000000; stroke-width: 0.8"/>
      </g>
     </g>
     <g id="text_8">
      <!-- 0 -->
      <g transform="translate(76.6375 127.694603) scale(0.1 -0.1)">
       <use xlink:href="#DejaVuSans-30"/>
      </g>
     </g>
    </g>
    <g id="ytick_2">
     <g id="line2d_9">
      <g>
       <use xlink:href="#m114652333c" x="90" y="85.126154" style="stroke: #000000; stroke-width: 0.8"/>
      </g>
     </g>
     <g id="text_9">
      <!-- 50 -->
      <g transform="translate(70.275 88.925373) scale(0.1 -0.1)">
       <use xlink:href="#DejaVuSans-35"/>
       <use xlink:href="#DejaVuSans-30" x="63.623047"/>
      </g>
     </g>
    </g>
    <g id="ytick_3">
     <g id="line2d_10">
      <g>
       <use xlink:href="#m114652333c" x="90" y="46.356923" style="stroke: #000000; stroke-width: 0.8"/>
      </g>
     </g>
     <g id="text_10">
      <!-- 100 -->
      <g transform="translate(63.9125 50.156142) scale(0.1 -0.1)">
       <use xlink:href="#DejaVuSans-31"/>
       <use xlink:href="#DejaVuSans-30" x="63.623047"/>
       <use xlink:href="#DejaVuSans-30" x="127.246094"/>
      </g>
     </g>
    </g>
   </g>
   <g id="line2d_11">
    <path d="M 115.363636 106.836923 
L 116.211919 120.793846 
L 117.484342 123.12 
L 117.908483 121.569231 
L 118.332624 117.692308 
L 118.756765 122.344615 
L 119.180906 121.569231 
L 119.605047 122.344615 
L 120.029188 105.286154 
L 120.453329 118.467692 
L 120.87747 121.569231 
L 121.301611 117.692308 
L 121.725753 122.344615 
L 122.149894 119.243077 
L 122.574035 118.467692 
L 122.998176 123.12 
L 123.422317 121.569231 
L 123.846458 116.141538 
L 124.270599 117.692308 
L 124.69474 120.793846 
L 125.118881 121.569231 
L 125.543022 121.569231 
L 126.391304 123.12 
L 126.815445 116.916923 
L 127.239587 84.350769 
L 127.663728 119.243077 
L 128.087869 121.569231 
L 128.51201 121.569231 
L 128.936151 120.018462 
L 129.360292 122.344615 
L 129.784433 120.793846 
L 130.208574 123.12 
L 130.632715 121.569231 
L 131.056856 121.569231 
L 131.480997 123.12 
L 131.905138 122.344615 
L 132.329279 120.793846 
L 132.75342 120.793846 
L 133.177562 119.243077 
L 133.601703 123.12 
L 134.025844 123.12 
L 134.449985 122.344615 
L 134.874126 122.344615 
L 135.298267 123.12 
L 135.722408 123.12 
L 136.146549 111.489231 
L 136.57069 120.018462 
L 136.994831 118.467692 
L 137.418972 122.344615 
L 137.843113 120.018462 
L 138.267254 118.467692 
L 138.691396 120.018462 
L 139.115537 123.12 
L 139.539678 122.344615 
L 139.963819 120.018462 
L 140.38796 123.12 
L 141.236242 121.569231 
L 141.660383 118.467692 
L 142.508665 123.12 
L 142.932806 120.793846 
L 143.356947 120.018462 
L 143.781088 123.12 
L 144.20523 120.793846 
L 144.629371 123.12 
L 145.053512 122.344615 
L 145.477653 120.018462 
L 145.901794 123.12 
L 146.325935 122.344615 
L 146.750076 122.344615 
L 147.174217 123.12 
L 147.598358 120.018462 
L 148.022499 123.12 
L 148.44664 121.569231 
L 149.294922 121.569231 
L 149.719064 120.793846 
L 150.143205 119.243077 
L 150.567346 121.569231 
L 150.991487 119.243077 
L 151.415628 123.12 
L 152.26391 121.569231 
L 152.688051 120.018462 
L 153.112192 122.344615 
L 153.536333 123.12 
L 153.960474 122.344615 
L 154.384615 120.793846 
L 154.808756 121.569231 
L 155.232898 123.12 
L 155.657039 113.04 
L 156.08118 123.12 
L 156.505321 121.569231 
L 156.929462 120.793846 
L 157.353603 123.12 
L 157.777744 120.793846 
L 158.201885 117.692308 
L 158.626026 121.569231 
L 159.050167 123.12 
L 159.474308 123.12 
L 159.898449 122.344615 
L 160.32259 123.12 
L 160.746732 123.12 
L 161.170873 122.344615 
L 161.595014 122.344615 
L 162.019155 121.569231 
L 162.443296 122.344615 
L 163.715719 120.018462 
L 164.13986 121.569231 
L 164.564001 121.569231 
L 165.412283 120.018462 
L 165.836424 122.344615 
L 166.260566 123.12 
L 166.684707 118.467692 
L 167.108848 122.344615 
L 167.532989 122.344615 
L 167.95713 117.692308 
L 168.381271 121.569231 
L 168.805412 121.569231 
L 169.229553 104.510769 
L 169.653694 120.018462 
L 170.077835 121.569231 
L 170.501976 118.467692 
L 170.926117 122.344615 
L 171.350258 119.243077 
L 171.7744 122.344615 
L 172.198541 117.692308 
L 172.622682 120.018462 
L 173.046823 123.12 
L 173.470964 122.344615 
L 173.895105 113.815385 
L 174.319246 120.018462 
L 174.743387 122.344615 
L 175.167528 123.12 
L 175.591669 123.12 
L 176.01581 117.692308 
L 176.439951 123.12 
L 176.864092 123.12 
L 177.288234 120.793846 
L 177.712375 123.12 
L 178.136516 123.12 
L 178.984798 120.018462 
L 179.408939 123.12 
L 179.83308 121.569231 
L 180.681362 123.12 
L 181.105503 120.018462 
L 181.529644 123.12 
L 181.953785 123.12 
L 182.377926 122.344615 
L 182.802067 123.12 
L 183.226209 123.12 
L 183.65035 120.018462 
L 184.498632 123.12 
L 185.346914 121.569231 
L 185.771055 121.569231 
L 186.195196 122.344615 
L 186.619337 120.793846 
L 187.043478 122.344615 
L 187.467619 123.12 
L 188.315901 123.12 
L 188.740043 120.018462 
L 189.164184 123.12 
L 189.588325 122.344615 
L 190.012466 123.12 
L 190.436607 120.018462 
L 190.860748 121.569231 
L 191.284889 122.344615 
L 191.70903 122.344615 
L 192.133171 120.793846 
L 192.557312 122.344615 
L 192.981453 121.569231 
L 193.405594 121.569231 
L 193.829735 122.344615 
L 194.253877 122.344615 
L 194.678018 123.12 
L 195.102159 118.467692 
L 195.5263 122.344615 
L 195.950441 122.344615 
L 196.374582 123.12 
L 196.798723 122.344615 
L 197.222864 123.12 
L 197.647005 123.12 
L 198.495287 121.569231 
L 198.919428 115.366154 
L 199.343569 117.692308 
L 199.767711 100.633846 
L 200.191852 123.12 
L 200.615993 122.344615 
L 201.040134 118.467692 
L 201.464275 120.018462 
L 201.888416 119.243077 
L 202.312557 113.04 
L 202.736698 123.12 
L 203.160839 122.344615 
L 203.58498 120.793846 
L 204.009121 118.467692 
L 204.433262 115.366154 
L 204.857403 106.061538 
L 205.281545 112.264615 
L 205.705686 122.344615 
L 206.129827 97.532308 
L 206.553968 111.489231 
L 206.978109 117.692308 
L 207.40225 113.04 
L 207.826391 120.018462 
L 208.250532 113.04 
L 208.674673 113.815385 
L 209.098814 112.264615 
L 209.522955 106.061538 
L 209.947096 121.569231 
L 210.371237 118.467692 
L 210.795379 121.569231 
L 211.21952 123.12 
L 211.643661 120.018462 
L 212.067802 123.12 
L 212.491943 121.569231 
L 212.916084 123.12 
L 213.340225 122.344615 
L 213.764366 113.04 
L 214.188507 121.569231 
L 214.612648 119.243077 
L 215.036789 120.793846 
L 215.46093 120.018462 
L 215.885071 123.12 
L 216.309213 118.467692 
L 216.733354 120.018462 
L 217.157495 122.344615 
L 217.581636 119.243077 
L 218.005777 123.12 
L 218.429918 121.569231 
L 218.854059 123.12 
L 219.2782 120.793846 
L 219.702341 122.344615 
L 220.126482 120.793846 
L 220.550623 120.018462 
L 220.974764 122.344615 
L 221.823047 122.344615 
L 222.247188 120.793846 
L 222.671329 120.018462 
L 223.09547 106.836923 
L 223.519611 108.387692 
L 223.943752 121.569231 
L 224.367893 122.344615 
L 224.792034 119.243077 
L 225.216175 120.018462 
L 225.640316 118.467692 
L 226.064457 122.344615 
L 226.488598 123.12 
L 226.912739 119.243077 
L 227.336881 118.467692 
L 227.761022 116.141538 
L 228.185163 122.344615 
L 228.609304 120.018462 
L 229.033445 122.344615 
L 229.457586 122.344615 
L 229.881727 123.12 
L 230.730009 120.018462 
L 231.578291 123.12 
L 232.002432 121.569231 
L 232.426573 122.344615 
L 232.850715 118.467692 
L 233.274856 116.916923 
L 233.698997 118.467692 
L 234.123138 119.243077 
L 234.547279 117.692308 
L 234.97142 111.489231 
L 235.395561 119.243077 
L 235.819702 120.793846 
L 236.243843 120.018462 
L 236.667984 117.692308 
L 237.092125 112.264615 
L 237.516266 122.344615 
L 237.940407 121.569231 
L 238.364548 123.12 
L 238.78869 116.916923 
L 239.212831 117.692308 
L 239.636972 120.793846 
L 240.061113 116.141538 
L 240.485254 114.590769 
L 240.909395 122.344615 
L 241.333536 122.344615 
L 241.757677 116.141538 
L 242.181818 102.184615 
L 242.605959 113.04 
L 243.0301 119.243077 
L 243.454241 120.018462 
L 243.878382 120.018462 
L 244.726665 121.569231 
L 245.150806 119.243077 
L 245.574947 119.243077 
L 245.999088 122.344615 
L 246.423229 122.344615 
L 246.84737 121.569231 
L 247.271511 122.344615 
L 247.695652 117.692308 
L 248.119793 117.692308 
L 248.543934 119.243077 
L 248.968075 116.916923 
L 249.392216 111.489231 
L 249.816358 117.692308 
L 250.240499 117.692308 
L 250.66464 121.569231 
L 251.088781 121.569231 
L 251.512922 118.467692 
L 251.937063 123.12 
L 252.361204 109.938462 
L 252.785345 108.387692 
L 253.209486 119.243077 
L 253.633627 120.018462 
L 254.057768 113.04 
L 254.90605 121.569231 
L 255.330192 120.018462 
L 255.754333 123.12 
L 256.178474 116.916923 
L 256.602615 106.836923 
L 257.026756 122.344615 
L 257.450897 121.569231 
L 258.299179 123.12 
L 258.72332 120.793846 
L 259.147461 108.387692 
L 259.571602 117.692308 
L 259.995743 122.344615 
L 260.419884 122.344615 
L 260.844026 111.489231 
L 261.268167 121.569231 
L 261.692308 122.344615 
L 262.116449 121.569231 
L 263.813013 121.569231 
L 264.237154 120.018462 
L 264.661295 123.12 
L 265.085436 122.344615 
L 265.509577 122.344615 
L 265.933718 123.12 
L 266.35786 123.12 
L 266.782001 122.344615 
L 267.206142 123.12 
L 267.630283 119.243077 
L 268.054424 122.344615 
L 268.478565 120.018462 
L 268.902706 120.018462 
L 269.326847 118.467692 
L 269.750988 120.018462 
L 270.175129 123.12 
L 270.59927 121.569231 
L 271.447552 121.569231 
L 271.871694 123.12 
L 272.295835 122.344615 
L 272.719976 122.344615 
L 273.144117 120.793846 
L 273.568258 122.344615 
L 274.840681 122.344615 
L 275.264822 95.981538 
L 275.688963 120.018462 
L 276.113104 123.12 
L 276.537245 122.344615 
L 276.961386 120.793846 
L 277.385528 123.12 
L 277.809669 120.018462 
L 278.23381 122.344615 
L 278.657951 119.243077 
L 279.082092 118.467692 
L 279.506233 118.467692 
L 279.930374 117.692308 
L 280.354515 108.387692 
L 280.778656 108.387692 
L 281.202797 118.467692 
L 281.626938 120.793846 
L 282.051079 122.344615 
L 282.47522 110.713846 
L 282.899362 120.018462 
L 283.323503 122.344615 
L 283.747644 122.344615 
L 284.171785 121.569231 
L 284.595926 121.569231 
L 285.020067 122.344615 
L 285.444208 122.344615 
L 285.868349 120.018462 
L 286.29249 123.12 
L 286.716631 122.344615 
L 287.140772 120.018462 
L 287.564913 120.018462 
L 287.989054 121.569231 
L 288.837337 108.387692 
L 289.261478 116.916923 
L 289.685619 116.141538 
L 290.10976 111.489231 
L 290.533901 114.590769 
L 291.382183 116.141538 
L 291.806324 115.366154 
L 292.230465 110.713846 
L 292.654606 113.04 
L 293.078747 120.018462 
L 293.502888 120.793846 
L 293.927029 119.243077 
L 294.351171 119.243077 
L 294.775312 116.916923 
L 295.199453 118.467692 
L 295.623594 113.815385 
L 296.047735 117.692308 
L 296.471876 118.467692 
L 296.896017 115.366154 
L 297.320158 108.387692 
L 297.744299 115.366154 
L 298.16844 118.467692 
L 299.016722 115.366154 
L 299.440863 118.467692 
L 299.865005 113.04 
L 300.289146 118.467692 
L 300.713287 115.366154 
L 301.561569 121.569231 
L 301.98571 113.04 
L 302.409851 121.569231 
L 302.833992 120.018462 
L 303.258133 120.793846 
L 303.682274 117.692308 
L 304.106415 116.916923 
L 304.530556 104.510769 
L 304.954697 102.184615 
L 305.378839 116.141538 
L 305.80298 95.206154 
L 306.227121 121.569231 
L 306.651262 120.018462 
L 307.075403 121.569231 
L 307.499544 101.409231 
L 307.923685 102.184615 
L 308.771967 122.344615 
L 309.196108 120.018462 
L 309.620249 113.815385 
L 310.04439 120.018462 
L 310.468531 120.018462 
L 310.892673 102.184615 
L 311.316814 115.366154 
L 311.740955 117.692308 
L 312.589237 119.243077 
L 313.013378 119.243077 
L 313.437519 117.692308 
L 314.709942 122.344615 
L 315.134083 116.916923 
L 315.558224 122.344615 
L 315.982365 122.344615 
L 316.830648 120.793846 
L 317.254789 123.12 
L 317.67893 120.793846 
L 318.103071 119.243077 
L 318.527212 121.569231 
L 318.951353 122.344615 
L 319.375494 122.344615 
L 319.799635 116.916923 
L 320.223776 123.12 
L 320.647917 106.061538 
L 321.072058 121.569231 
L 321.496199 122.344615 
L 321.920341 120.018462 
L 322.344482 120.018462 
L 322.768623 120.793846 
L 323.192764 122.344615 
L 323.616905 117.692308 
L 324.041046 121.569231 
L 324.465187 120.018462 
L 324.889328 120.793846 
L 325.313469 105.286154 
L 325.73761 121.569231 
L 326.161751 119.243077 
L 326.585892 123.12 
L 327.010033 123.12 
L 327.434175 122.344615 
L 327.858316 116.916923 
L 328.282457 122.344615 
L 328.706598 117.692308 
L 329.130739 120.018462 
L 329.55488 123.12 
L 329.979021 120.018462 
L 330.827303 120.018462 
L 331.251444 117.692308 
L 331.675585 116.141538 
L 332.099726 120.793846 
L 332.523867 120.793846 
L 332.948009 120.018462 
L 333.37215 121.569231 
L 333.796291 121.569231 
L 334.220432 120.018462 
L 334.644573 117.692308 
L 335.068714 117.692308 
L 335.492855 119.243077 
L 335.916996 122.344615 
L 336.765278 122.344615 
L 337.189419 108.387692 
L 337.61356 75.821538 
L 338.037701 91.329231 
L 338.461843 119.243077 
L 338.885984 121.569231 
L 339.310125 120.018462 
L 340.158407 109.163077 
L 340.582548 118.467692 
L 341.006689 105.286154 
L 341.43083 88.227692 
L 341.854971 120.018462 
L 342.279112 87.452308 
L 342.703253 113.815385 
L 343.127394 122.344615 
L 343.551535 78.147692 
L 343.975676 102.96 
L 344.399818 111.489231 
L 344.823959 73.495385 
L 345.2481 119.243077 
L 345.672241 120.018462 
L 346.096382 102.184615 
L 346.520523 113.04 
L 346.944664 99.858462 
L 347.368805 113.04 
L 347.792946 120.793846 
L 348.217087 56.436923 
L 348.641228 119.243077 
L 349.065369 120.018462 
L 349.48951 120.018462 
L 349.913652 114.590769 
L 350.337793 118.467692 
L 350.761934 107.612308 
L 351.186075 118.467692 
L 351.610216 120.793846 
L 352.034357 102.96 
L 352.458498 102.96 
L 352.882639 114.590769 
L 353.30678 100.633846 
L 353.730921 119.243077 
L 354.155062 120.018462 
L 354.579203 102.96 
L 355.003344 123.12 
L 355.427486 121.569231 
L 355.851627 120.793846 
L 356.275768 119.243077 
L 356.699909 121.569231 
L 357.12405 120.793846 
L 357.548191 119.243077 
L 357.972332 115.366154 
L 358.396473 117.692308 
L 358.820614 110.713846 
L 359.668896 122.344615 
L 360.093037 123.12 
L 360.517178 116.916923 
L 361.365461 121.569231 
L 361.789602 123.12 
L 362.213743 119.243077 
L 362.637884 122.344615 
L 363.062025 119.243077 
L 363.486166 123.12 
L 364.334448 121.569231 
L 364.758589 123.12 
L 365.18273 123.12 
L 365.606871 121.569231 
L 366.455154 120.018462 
L 366.879295 120.018462 
L 367.303436 120.793846 
L 367.727577 120.793846 
L 368.151718 123.12 
L 368.575859 121.569231 
L 369 96.756923 
L 369.424141 120.793846 
L 369.848282 122.344615 
L 370.696564 122.344615 
L 371.120705 118.467692 
L 371.544846 119.243077 
L 371.968988 110.713846 
L 372.393129 121.569231 
L 372.81727 117.692308 
L 373.241411 122.344615 
L 373.665552 123.12 
L 374.089693 120.793846 
L 374.513834 121.569231 
L 374.937975 117.692308 
L 375.362116 119.243077 
L 375.786257 121.569231 
L 376.210398 122.344615 
L 376.634539 121.569231 
L 377.05868 118.467692 
L 377.482822 120.018462 
L 377.906963 119.243077 
L 378.331104 120.793846 
L 378.755245 116.916923 
L 379.179386 118.467692 
L 379.603527 123.12 
L 380.027668 119.243077 
L 380.451809 120.018462 
L 380.87595 111.489231 
L 381.300091 122.344615 
L 381.724232 119.243077 
L 382.148373 119.243077 
L 382.572514 120.018462 
L 382.996656 112.264615 
L 383.420797 99.858462 
L 383.844938 120.018462 
L 384.269079 122.344615 
L 384.69322 117.692308 
L 385.117361 121.569231 
L 385.541502 120.793846 
L 385.965643 120.793846 
L 386.389784 123.12 
L 387.238066 121.569231 
L 387.662207 120.018462 
L 388.086348 122.344615 
L 388.51049 120.018462 
L 388.934631 122.344615 
L 389.358772 120.018462 
L 389.782913 123.12 
L 390.207054 120.018462 
L 390.631195 121.569231 
L 391.055336 121.569231 
L 391.479477 120.018462 
L 391.903618 123.12 
L 392.327759 120.018462 
L 392.7519 121.569231 
L 393.176041 116.916923 
L 393.600182 122.344615 
L 394.024324 116.141538 
L 394.448465 99.858462 
L 394.872606 122.344615 
L 395.296747 123.12 
L 395.720888 121.569231 
L 396.145029 117.692308 
L 396.56917 121.569231 
L 397.417452 123.12 
L 397.841593 116.916923 
L 398.265734 121.569231 
L 398.689875 120.793846 
L 399.538157 108.387692 
L 399.962299 118.467692 
L 400.38644 121.569231 
L 400.810581 121.569231 
L 401.234722 117.692308 
L 401.658863 91.329231 
L 402.083004 110.713846 
L 402.507145 117.692308 
L 402.931286 120.793846 
L 403.355427 120.793846 
L 403.779568 98.307692 
L 404.203709 120.018462 
L 404.62785 122.344615 
L 405.476133 122.344615 
L 405.900274 120.793846 
L 406.324415 120.018462 
L 406.748556 121.569231 
L 407.172697 119.243077 
L 407.596838 120.793846 
L 408.020979 123.12 
L 408.44512 121.569231 
L 408.869261 118.467692 
L 409.293402 121.569231 
L 409.717543 117.692308 
L 410.141684 117.692308 
L 410.565825 119.243077 
L 410.989967 121.569231 
L 411.414108 107.612308 
L 411.838249 120.018462 
L 412.26239 110.713846 
L 412.686531 117.692308 
L 413.110672 119.243077 
L 413.534813 111.489231 
L 413.958954 121.569231 
L 414.807236 114.590769 
L 415.231377 120.018462 
L 415.655518 116.916923 
L 416.079659 110.713846 
L 416.503801 109.938462 
L 416.927942 119.243077 
L 417.352083 105.286154 
L 417.776224 111.489231 
L 418.200365 120.793846 
L 418.624506 109.938462 
L 419.048647 122.344615 
L 419.472788 121.569231 
L 419.896929 114.590769 
L 420.32107 116.916923 
L 420.745211 101.409231 
L 421.169352 114.590769 
L 421.593493 113.815385 
L 422.017635 113.815385 
L 422.441776 115.366154 
L 422.865917 119.243077 
L 423.290058 120.018462 
L 423.714199 117.692308 
L 424.13834 119.243077 
L 424.562481 113.04 
L 424.986622 120.018462 
L 425.410763 115.366154 
L 425.834904 109.163077 
L 426.259045 115.366154 
L 426.683186 116.141538 
L 427.107327 115.366154 
L 427.531469 122.344615 
L 427.95561 117.692308 
L 428.379751 121.569231 
L 428.803892 120.793846 
L 429.228033 113.815385 
L 429.652174 113.04 
L 430.076315 101.409231 
L 430.500456 113.04 
L 430.924597 110.713846 
L 431.348738 118.467692 
L 431.772879 120.018462 
L 432.19702 119.243077 
L 432.621161 119.243077 
L 433.045303 122.344615 
L 433.469444 119.243077 
L 433.893585 109.163077 
L 434.317726 119.243077 
L 435.166008 119.243077 
L 435.590149 122.344615 
L 436.01429 123.12 
L 436.438431 122.344615 
L 436.862572 118.467692 
L 437.286713 106.836923 
L 437.710854 120.018462 
L 438.134995 120.018462 
L 438.559137 123.12 
L 438.983278 123.12 
L 439.407419 98.307692 
L 439.83156 106.836923 
L 440.255701 117.692308 
L 440.679842 113.04 
L 441.528124 122.344615 
L 441.952265 121.569231 
L 442.376406 122.344615 
L 442.800547 116.141538 
L 443.224688 122.344615 
L 443.648829 120.793846 
L 444.072971 121.569231 
L 444.497112 123.12 
L 444.921253 100.633846 
L 445.345394 120.018462 
L 445.769535 111.489231 
L 446.193676 111.489231 
L 446.617817 114.590769 
L 447.041958 120.793846 
L 447.466099 121.569231 
L 447.89024 116.141538 
L 448.314381 118.467692 
L 448.738522 117.692308 
L 449.162663 116.141538 
L 449.586804 122.344615 
L 450.010946 120.018462 
L 450.435087 121.569231 
L 451.283369 123.12 
L 452.979933 120.018462 
L 453.828215 105.286154 
L 454.252356 118.467692 
L 454.676497 116.141538 
L 455.100638 122.344615 
L 455.52478 116.141538 
L 455.948921 123.12 
L 456.373062 121.569231 
L 457.221344 120.018462 
L 457.645485 120.793846 
L 458.069626 120.018462 
L 458.493767 118.467692 
L 458.917908 107.612308 
L 459.342049 118.467692 
L 459.76619 117.692308 
L 460.190331 106.061538 
L 460.614472 122.344615 
L 461.038614 114.590769 
L 461.462755 122.344615 
L 461.886896 118.467692 
L 462.311037 121.569231 
L 462.735178 123.12 
L 463.159319 120.793846 
L 463.58346 122.344615 
L 464.007601 120.018462 
L 464.431742 123.12 
L 465.280024 123.12 
L 465.704165 120.018462 
L 466.128306 123.12 
L 466.552448 118.467692 
L 466.976589 123.12 
L 467.40073 122.344615 
L 467.824871 120.018462 
L 468.249012 107.612308 
L 468.673153 123.12 
L 469.097294 123.12 
L 469.521435 112.264615 
L 469.945576 113.04 
L 470.369717 110.713846 
L 470.793858 113.815385 
L 471.217999 122.344615 
L 471.64214 112.264615 
L 472.066282 120.018462 
L 472.490423 121.569231 
L 472.914564 122.344615 
L 473.338705 122.344615 
L 473.762846 123.12 
L 474.186987 122.344615 
L 474.611128 119.243077 
L 475.035269 121.569231 
L 475.883551 123.12 
L 476.307692 123.12 
L 476.731833 117.692308 
L 477.155974 118.467692 
L 477.580116 121.569231 
L 478.428398 121.569231 
L 478.852539 120.793846 
L 479.27668 120.793846 
L 479.700821 116.141538 
L 480.124962 122.344615 
L 480.549103 105.286154 
L 480.973244 118.467692 
L 481.397385 122.344615 
L 481.821526 119.243077 
L 482.245667 120.018462 
L 483.09395 113.04 
L 483.518091 118.467692 
L 483.942232 103.735385 
L 484.366373 123.12 
L 484.790514 117.692308 
L 485.638796 102.96 
L 486.062937 110.713846 
L 486.487078 82.8 
L 486.911219 116.141538 
L 487.33536 123.12 
L 487.759501 93.655385 
L 488.183642 113.04 
L 488.607784 109.163077 
L 489.031925 110.713846 
L 489.456066 117.692308 
L 489.880207 113.815385 
L 490.304348 122.344615 
L 490.728489 106.836923 
L 491.15263 112.264615 
L 491.576771 112.264615 
L 492.000912 107.612308 
L 492.425053 108.387692 
L 492.849194 121.569231 
L 493.273335 123.12 
L 493.697476 92.104615 
L 494.121618 22.32 
L 494.545759 102.184615 
L 494.9699 106.836923 
L 495.394041 106.061538 
L 495.818182 120.018462 
L 496.242323 120.793846 
L 496.666464 92.88 
L 497.090605 73.495385 
L 497.514746 110.713846 
L 497.938887 108.387692 
L 498.363028 103.735385 
L 498.787169 120.018462 
L 499.21131 123.12 
L 499.635452 85.901538 
L 500.483734 90.553846 
L 501.332016 120.018462 
L 501.756157 121.569231 
L 502.180298 122.344615 
L 502.604439 117.692308 
L 503.02858 106.836923 
L 503.452721 113.04 
L 503.876862 90.553846 
L 504.301003 92.88 
L 504.725144 121.569231 
L 505.149285 120.018462 
L 505.573427 101.409231 
L 505.997568 115.366154 
L 506.421709 96.756923 
L 506.84585 116.141538 
L 507.269991 123.12 
L 507.694132 123.12 
L 508.118273 116.141538 
L 508.542414 105.286154 
L 508.966555 118.467692 
L 509.390696 118.467692 
L 509.814837 121.569231 
L 510.238978 123.12 
L 510.663119 123.12 
L 511.087261 121.569231 
L 511.511402 113.815385 
L 511.935543 120.793846 
L 512.359684 123.12 
L 512.783825 99.083077 
L 513.207966 117.692308 
L 513.632107 116.141538 
L 514.056248 95.981538 
L 514.480389 114.590769 
L 514.90453 122.344615 
L 515.328671 120.793846 
L 515.752812 123.12 
L 516.176953 121.569231 
L 516.601095 100.633846 
L 517.025236 98.307692 
L 517.449377 115.366154 
L 517.873518 109.938462 
L 518.297659 116.916923 
L 518.7218 106.836923 
L 519.145941 120.793846 
L 519.570082 114.590769 
L 519.994223 121.569231 
L 520.418364 120.793846 
L 520.842505 121.569231 
L 521.266646 123.12 
L 521.690787 105.286154 
L 522.114929 111.489231 
L 522.53907 120.793846 
L 522.963211 122.344615 
L 524.235634 122.344615 
L 524.659775 119.243077 
L 525.083916 94.430769 
L 525.508057 118.467692 
L 525.932198 111.489231 
L 526.356339 118.467692 
L 526.78048 120.018462 
L 527.204621 120.793846 
L 527.628763 119.243077 
L 528.052904 121.569231 
L 528.477045 122.344615 
L 528.901186 120.018462 
L 529.325327 122.344615 
L 529.749468 109.938462 
L 530.173609 119.243077 
L 530.59775 117.692308 
L 531.021891 120.793846 
L 531.446032 95.981538 
L 531.870173 120.018462 
L 532.294314 120.793846 
L 532.718455 119.243077 
L 533.142597 120.793846 
L 533.566738 119.243077 
L 533.990879 97.532308 
L 534.41502 116.141538 
L 534.839161 118.467692 
L 535.263302 120.018462 
L 535.687443 116.141538 
L 536.111584 120.018462 
L 536.535725 120.018462 
L 536.959866 120.793846 
L 537.384007 119.243077 
L 537.808148 119.243077 
L 538.232289 120.793846 
L 538.656431 119.243077 
L 539.080572 119.243077 
L 539.504713 120.018462 
L 539.928854 108.387692 
L 540.352995 113.815385 
L 540.777136 122.344615 
L 541.201277 121.569231 
L 541.625418 120.018462 
L 542.049559 121.569231 
L 542.4737 120.018462 
L 542.897841 121.569231 
L 543.321982 116.141538 
L 543.746123 115.366154 
L 544.170265 109.938462 
L 544.594406 119.243077 
L 545.018547 120.793846 
L 545.866829 115.366154 
L 546.29097 118.467692 
L 546.715111 119.243077 
L 547.139252 121.569231 
L 547.563393 121.569231 
L 547.987534 116.141538 
L 548.411675 92.104615 
L 548.835816 117.692308 
L 549.259957 117.692308 
L 549.684099 115.366154 
L 550.10824 120.793846 
L 550.532381 120.793846 
L 550.956522 117.692308 
L 551.380663 120.793846 
L 551.804804 81.249231 
L 552.228945 120.793846 
L 552.653086 122.344615 
L 553.077227 121.569231 
L 553.501368 121.569231 
L 553.925509 102.96 
L 554.34965 113.815385 
L 554.773791 120.018462 
L 555.197933 121.569231 
L 555.622074 122.344615 
L 556.046215 112.264615 
L 556.470356 119.243077 
L 556.894497 122.344615 
L 557.318638 106.836923 
L 557.742779 115.366154 
L 558.16692 119.243077 
L 558.591061 98.307692 
L 559.015202 122.344615 
L 559.439343 123.12 
L 559.863484 120.793846 
L 560.711766 122.344615 
L 561.135908 119.243077 
L 561.560049 118.467692 
L 561.98419 120.793846 
L 562.408331 122.344615 
L 562.832472 121.569231 
L 563.256613 122.344615 
L 563.680754 122.344615 
L 564.104895 123.12 
L 564.529036 123.12 
L 564.953177 120.018462 
L 565.377318 65.741538 
L 565.801459 110.713846 
L 566.2256 112.264615 
L 566.649742 116.141538 
L 567.073883 106.836923 
L 567.498024 112.264615 
L 567.922165 112.264615 
L 568.346306 104.510769 
L 568.770447 117.692308 
L 569.194588 105.286154 
L 569.618729 120.793846 
L 570.04287 116.916923 
L 570.467011 115.366154 
L 570.891152 120.793846 
L 571.315293 119.243077 
L 571.739434 116.916923 
L 572.163576 120.018462 
L 572.587717 120.793846 
L 573.011858 104.510769 
L 573.435999 117.692308 
L 573.86014 105.286154 
L 574.284281 116.916923 
L 574.708422 107.612308 
L 575.132563 117.692308 
L 575.556704 118.467692 
L 575.980845 108.387692 
L 576.404986 109.163077 
L 576.829127 117.692308 
L 577.253268 120.793846 
L 577.67741 116.916923 
L 578.101551 117.692308 
L 578.525692 123.12 
L 578.949833 117.692308 
L 579.373974 96.756923 
L 579.798115 116.141538 
L 580.222256 118.467692 
L 580.646397 114.590769 
L 581.070538 117.692308 
L 581.494679 119.243077 
L 581.91882 108.387692 
L 582.342961 118.467692 
L 582.767102 107.612308 
L 583.191244 116.141538 
L 583.615385 117.692308 
L 584.039526 107.612308 
L 584.463667 117.692308 
L 584.887808 95.206154 
L 585.311949 102.96 
L 585.73609 116.141538 
L 586.584372 117.692308 
L 587.008513 95.206154 
L 587.432654 89.003077 
L 587.856795 110.713846 
L 588.280936 120.793846 
L 589.129219 119.243077 
L 589.55336 114.590769 
L 589.977501 111.489231 
L 590.401642 110.713846 
L 590.825783 34.726154 
L 591.249924 89.003077 
L 591.674065 113.04 
L 592.522347 120.018462 
L 592.946488 109.163077 
L 593.370629 106.061538 
L 593.79477 100.633846 
L 594.218912 117.692308 
L 594.643053 119.243077 
L 595.067194 116.916923 
L 595.491335 113.04 
L 595.915476 111.489231 
L 596.339617 114.590769 
L 597.187899 89.003077 
L 597.61204 120.793846 
L 598.036181 122.344615 
L 598.460322 113.04 
L 598.884463 120.018462 
L 599.308604 107.612308 
L 599.732746 120.018462 
L 600.156887 115.366154 
L 600.581028 119.243077 
L 601.005169 121.569231 
L 601.42931 113.815385 
L 601.853451 121.569231 
L 602.277592 120.018462 
L 602.701733 116.141538 
L 603.550015 123.12 
L 603.974156 122.344615 
L 604.398297 112.264615 
L 604.822438 120.018462 
L 605.24658 116.916923 
L 605.670721 118.467692 
L 606.094862 116.141538 
L 606.519003 117.692308 
L 606.943144 103.735385 
L 607.367285 120.018462 
L 607.791426 115.366154 
L 608.215567 120.018462 
L 608.639708 120.793846 
L 609.063849 119.243077 
L 609.48799 105.286154 
L 609.912131 123.12 
L 610.336272 109.938462 
L 610.760413 123.12 
L 611.184555 110.713846 
L 611.608696 52.56 
L 612.032837 105.286154 
L 612.456978 120.793846 
L 612.881119 110.713846 
L 613.30526 115.366154 
L 613.729401 116.916923 
L 614.153542 120.793846 
L 614.577683 119.243077 
L 615.001824 73.495385 
L 615.425965 117.692308 
L 615.850106 113.815385 
L 616.274247 118.467692 
L 616.698389 113.04 
L 617.12253 122.344615 
L 617.546671 117.692308 
L 617.970812 114.590769 
L 618.394953 117.692308 
L 619.243235 113.04 
L 619.667376 121.569231 
L 620.091517 123.12 
L 620.515658 122.344615 
L 620.939799 120.793846 
L 621.36394 92.104615 
L 621.788081 114.590769 
L 622.212223 117.692308 
L 622.636364 119.243077 
L 622.636364 119.243077 
" clip-path="url(#p1109e6108b)" style="fill: none; stroke: #1f77b4; stroke-width: 1.5; stroke-linecap: square"/>
   </g>
   <g id="patch_3">
    <path d="M 90 128.16 
L 90 17.28 
" style="fill: none; stroke: #000000; stroke-width: 0.8; stroke-linejoin: miter; stroke-linecap: square"/>
   </g>
   <g id="patch_4">
    <path d="M 648 128.16 
L 648 17.28 
" style="fill: none; stroke: #000000; stroke-width: 0.8; stroke-linejoin: miter; stroke-linecap: square"/>
   </g>
   <g id="patch_5">
    <path d="M 90 128.16 
L 648 128.16 
" style="fill: none; stroke: #000000; stroke-width: 0.8; stroke-linejoin: miter; stroke-linecap: square"/>
   </g>
   <g id="patch_6">
    <path d="M 90 17.28 
L 648 17.28 
" style="fill: none; stroke: #000000; stroke-width: 0.8; stroke-linejoin: miter; stroke-linecap: square"/>
   </g>
   <g id="legend_1">
    <g id="patch_7">
     <path d="M 97 39.958125 
L 264.190625 39.958125 
Q 266.190625 39.958125 266.190625 37.958125 
L 266.190625 24.28 
Q 266.190625 22.28 264.190625 22.28 
L 97 22.28 
Q 95 22.28 95 24.28 
L 95 37.958125 
Q 95 39.958125 97 39.958125 
z
" style="fill: #ffffff; opacity: 0.8; stroke: #cccccc; stroke-linejoin: miter"/>
    </g>
    <g id="line2d_12">
     <path d="M 99 30.378437 
L 109 30.378437 
L 119 30.378437 
" style="fill: none; stroke: #1f77b4; stroke-width: 1.5; stroke-linecap: square"/>
    </g>
    <g id="text_11">
     <!-- Number of PyPI Downloads -->
     <g transform="translate(127 33.878437) scale(0.1 -0.1)">
      <defs>
       <path id="DejaVuSans-4e" d="M 628 4666 
L 1478 4666 
L 3547 763 
L 3547 4666 
L 4159 4666 
L 4159 0 
L 3309 0 
L 1241 3903 
L 1241 0 
L 628 0 
L 628 4666 
z
" transform="scale(0.015625)"/>
       <path id="DejaVuSans-75" d="M 544 1381 
L 544 3500 
L 1119 3500 
L 1119 1403 
Q 1119 906 1312 657 
Q 1506 409 1894 409 
Q 2359 409 2629 706 
Q 2900 1003 2900 1516 
L 2900 3500 
L 3475 3500 
L 3475 0 
L 2900 0 
L 2900 538 
Q 2691 219 2414 64 
Q 2138 -91 1772 -91 
Q 1169 -91 856 284 
Q 544 659 544 1381 
z
M 1991 3584 
L 1991 3584 
z
" transform="scale(0.015625)"/>
       <path id="DejaVuSans-6d" d="M 3328 2828 
Q 3544 3216 3844 3400 
Q 4144 3584 4550 3584 
Q 5097 3584 5394 3201 
Q 5691 2819 5691 2113 
L 5691 0 
L 5113 0 
L 5113 2094 
Q 5113 2597 4934 2840 
Q 4756 3084 4391 3084 
Q 3944 3084 3684 2787 
Q 3425 2491 3425 1978 
L 3425 0 
L 2847 0 
L 2847 2094 
Q 2847 2600 2669 2842 
Q 2491 3084 2119 3084 
Q 1678 3084 1418 2786 
Q 1159 2488 1159 1978 
L 1159 0 
L 581 0 
L 581 3500 
L 1159 3500 
L 1159 2956 
Q 1356 3278 1631 3431 
Q 1906 3584 2284 3584 
Q 2666 3584 2933 3390 
Q 3200 3197 3328 2828 
z
" transform="scale(0.015625)"/>
       <path id="DejaVuSans-62" d="M 3116 1747 
Q 3116 2381 2855 2742 
Q 2594 3103 2138 3103 
Q 1681 3103 1420 2742 
Q 1159 2381 1159 1747 
Q 1159 1113 1420 752 
Q 1681 391 2138 391 
Q 2594 391 2855 752 
Q 3116 1113 3116 1747 
z
M 1159 2969 
Q 1341 3281 1617 3432 
Q 1894 3584 2278 3584 
Q 2916 3584 3314 3078 
Q 3713 2572 3713 1747 
Q 3713 922 3314 415 
Q 2916 -91 2278 -91 
Q 1894 -91 1617 61 
Q 1341 213 1159 525 
L 1159 0 
L 581 0 
L 581 4863 
L 1159 4863 
L 1159 2969 
z
" transform="scale(0.015625)"/>
       <path id="DejaVuSans-72" d="M 2631 2963 
Q 2534 3019 2420 3045 
Q 2306 3072 2169 3072 
Q 1681 3072 1420 2755 
Q 1159 2438 1159 1844 
L 1159 0 
L 581 0 
L 581 3500 
L 1159 3500 
L 1159 2956 
Q 1341 3275 1631 3429 
Q 1922 3584 2338 3584 
Q 2397 3584 2469 3576 
Q 2541 3569 2628 3553 
L 2631 2963 
z
" transform="scale(0.015625)"/>
       <path id="DejaVuSans-20" transform="scale(0.015625)"/>
       <path id="DejaVuSans-6f" d="M 1959 3097 
Q 1497 3097 1228 2736 
Q 959 2375 959 1747 
Q 959 1119 1226 758 
Q 1494 397 1959 397 
Q 2419 397 2687 759 
Q 2956 1122 2956 1747 
Q 2956 2369 2687 2733 
Q 2419 3097 1959 3097 
z
M 1959 3584 
Q 2709 3584 3137 3096 
Q 3566 2609 3566 1747 
Q 3566 888 3137 398 
Q 2709 -91 1959 -91 
Q 1206 -91 779 398 
Q 353 888 353 1747 
Q 353 2609 779 3096 
Q 1206 3584 1959 3584 
z
" transform="scale(0.015625)"/>
       <path id="DejaVuSans-66" d="M 2375 4863 
L 2375 4384 
L 1825 4384 
Q 1516 4384 1395 4259 
Q 1275 4134 1275 3809 
L 1275 3500 
L 2222 3500 
L 2222 3053 
L 1275 3053 
L 1275 0 
L 697 0 
L 697 3053 
L 147 3053 
L 147 3500 
L 697 3500 
L 697 3744 
Q 697 4328 969 4595 
Q 1241 4863 1831 4863 
L 2375 4863 
z
" transform="scale(0.015625)"/>
       <path id="DejaVuSans-50" d="M 1259 4147 
L 1259 2394 
L 2053 2394 
Q 2494 2394 2734 2622 
Q 2975 2850 2975 3272 
Q 2975 3691 2734 3919 
Q 2494 4147 2053 4147 
L 1259 4147 
z
M 628 4666 
L 2053 4666 
Q 2838 4666 3239 4311 
Q 3641 3956 3641 3272 
Q 3641 2581 3239 2228 
Q 2838 1875 2053 1875 
L 1259 1875 
L 1259 0 
L 628 0 
L 628 4666 
z
" transform="scale(0.015625)"/>
       <path id="DejaVuSans-79" d="M 2059 -325 
Q 1816 -950 1584 -1140 
Q 1353 -1331 966 -1331 
L 506 -1331 
L 506 -850 
L 844 -850 
Q 1081 -850 1212 -737 
Q 1344 -625 1503 -206 
L 1606 56 
L 191 3500 
L 800 3500 
L 1894 763 
L 2988 3500 
L 3597 3500 
L 2059 -325 
z
" transform="scale(0.015625)"/>
       <path id="DejaVuSans-49" d="M 628 4666 
L 1259 4666 
L 1259 0 
L 628 0 
L 628 4666 
z
" transform="scale(0.015625)"/>
       <path id="DejaVuSans-44" d="M 1259 4147 
L 1259 519 
L 2022 519 
Q 2988 519 3436 956 
Q 3884 1394 3884 2338 
Q 3884 3275 3436 3711 
Q 2988 4147 2022 4147 
L 1259 4147 
z
M 628 4666 
L 1925 4666 
Q 3281 4666 3915 4102 
Q 4550 3538 4550 2338 
Q 4550 1131 3912 565 
Q 3275 0 1925 0 
L 628 0 
L 628 4666 
z
" transform="scale(0.015625)"/>
       <path id="DejaVuSans-77" d="M 269 3500 
L 844 3500 
L 1563 769 
L 2278 3500 
L 2956 3500 
L 3675 769 
L 4391 3500 
L 4966 3500 
L 4050 0 
L 3372 0 
L 2619 2869 
L 1863 0 
L 1184 0 
L 269 3500 
z
" transform="scale(0.015625)"/>
       <path id="DejaVuSans-6e" d="M 3513 2113 
L 3513 0 
L 2938 0 
L 2938 2094 
Q 2938 2591 2744 2837 
Q 2550 3084 2163 3084 
Q 1697 3084 1428 2787 
Q 1159 2491 1159 1978 
L 1159 0 
L 581 0 
L 581 3500 
L 1159 3500 
L 1159 2956 
Q 1366 3272 1645 3428 
Q 1925 3584 2291 3584 
Q 2894 3584 3203 3211 
Q 3513 2838 3513 2113 
z
" transform="scale(0.015625)"/>
       <path id="DejaVuSans-6c" d="M 603 4863 
L 1178 4863 
L 1178 0 
L 603 0 
L 603 4863 
z
" transform="scale(0.015625)"/>
       <path id="DejaVuSans-73" d="M 2834 3397 
L 2834 2853 
Q 2591 2978 2328 3040 
Q 2066 3103 1784 3103 
Q 1356 3103 1142 2972 
Q 928 2841 928 2578 
Q 928 2378 1081 2264 
Q 1234 2150 1697 2047 
L 1894 2003 
Q 2506 1872 2764 1633 
Q 3022 1394 3022 966 
Q 3022 478 2636 193 
Q 2250 -91 1575 -91 
Q 1294 -91 989 -36 
Q 684 19 347 128 
L 347 722 
Q 666 556 975 473 
Q 1284 391 1588 391 
Q 1994 391 2212 530 
Q 2431 669 2431 922 
Q 2431 1156 2273 1281 
Q 2116 1406 1581 1522 
L 1381 1569 
Q 847 1681 609 1914 
Q 372 2147 372 2553 
Q 372 3047 722 3315 
Q 1072 3584 1716 3584 
Q 2034 3584 2315 3537 
Q 2597 3491 2834 3397 
z
" transform="scale(0.015625)"/>
      </defs>
      <use xlink:href="#DejaVuSans-4e"/>
      <use xlink:href="#DejaVuSans-75" x="74.804688"/>
      <use xlink:href="#DejaVuSans-6d" x="138.183594"/>
      <use xlink:href="#DejaVuSans-62" x="235.595703"/>
      <use xlink:href="#DejaVuSans-65" x="299.072266"/>
      <use xlink:href="#DejaVuSans-72" x="360.595703"/>
      <use xlink:href="#DejaVuSans-20" x="401.708984"/>
      <use xlink:href="#DejaVuSans-6f" x="433.496094"/>
      <use xlink:href="#DejaVuSans-66" x="494.677734"/>
      <use xlink:href="#DejaVuSans-20" x="529.882812"/>
      <use xlink:href="#DejaVuSans-50" x="561.669922"/>
      <use xlink:href="#DejaVuSans-79" x="621.972656"/>
      <use xlink:href="#DejaVuSans-50" x="681.152344"/>
      <use xlink:href="#DejaVuSans-49" x="741.455078"/>
      <use xlink:href="#DejaVuSans-20" x="770.947266"/>
      <use xlink:href="#DejaVuSans-44" x="802.734375"/>
      <use xlink:href="#DejaVuSans-6f" x="879.736328"/>
      <use xlink:href="#DejaVuSans-77" x="940.917969"/>
      <use xlink:href="#DejaVuSans-6e" x="1022.705078"/>
      <use xlink:href="#DejaVuSans-6c" x="1086.083984"/>
      <use xlink:href="#DejaVuSans-6f" x="1113.867188"/>
      <use xlink:href="#DejaVuSans-61" x="1175.048828"/>
      <use xlink:href="#DejaVuSans-64" x="1236.328125"/>
      <use xlink:href="#DejaVuSans-73" x="1299.804688"/>
     </g>
    </g>
   </g>
  </g>
 </g>
 <defs>
  <clipPath id="p1109e6108b">
   <rect x="90" y="17.28" width="558" height="110.88"/>
  </clipPath>
 </defs>
</svg>
