<?xml version="1.0" encoding="utf-8" standalone="no"?>
<!DOCTYPE svg PUBLIC "-//W3C//DTD SVG 1.1//EN"
  "http://www.w3.org/Graphics/SVG/1.1/DTD/svg11.dtd">
<svg xmlns:xlink="http://www.w3.org/1999/xlink" width="720pt" height="144pt" viewBox="0 0 720 144" xmlns="http://www.w3.org/2000/svg" version="1.1">
 <metadata>
  <rdf:RDF xmlns:dc="http://purl.org/dc/elements/1.1/" xmlns:cc="http://creativecommons.org/ns#" xmlns:rdf="http://www.w3.org/1999/02/22-rdf-syntax-ns#">
   <cc:Work>
    <dc:type rdf:resource="http://purl.org/dc/dcmitype/StillImage"/>
    <dc:date>2023-04-01T20:56:58.759334</dc:date>
    <dc:format>image/svg+xml</dc:format>
    <dc:creator>
     <cc:Agent>
      <dc:title>Matplotlib v3.7.1, https://matplotlib.org/</dc:title>
     </cc:Agent>
    </dc:creator>
   </cc:Work>
  </rdf:RDF>
 </metadata>
 <defs>
  <style type="text/css">*{stroke-linejoin: round; stroke-linecap: butt}</style>
 </defs>
 <g id="figure_1">
  <g id="patch_1">
   <path d="M 0 144 
L 720 144 
L 720 0 
L 0 0 
z
" style="fill: #ffffff"/>
  </g>
  <g id="axes_1">
   <g id="patch_2">
    <path d="M 90 128.16 
L 648 128.16 
L 648 17.28 
L 90 17.28 
z
" style="fill: #ffffff"/>
   </g>
   <g id="matplotlib.axis_1">
    <g id="xtick_1">
     <g id="line2d_1">
      <defs>
       <path id="mbd9efef105" d="M 0 0 
L 0 3.5 
" style="stroke: #000000; stroke-width: 0.8"/>
      </defs>
      <g>
       <use xlink:href="#mbd9efef105" x="115.363636" y="128.16" style="stroke: #000000; stroke-width: 0.8"/>
      </g>
     </g>
     <g id="text_1">
      <!-- 2020-06-18 -->
      <g transform="translate(86.305824 142.758438) scale(0.1 -0.1)">
       <defs>
        <path id="DejaVuSans-32" d="M 1228 531 
L 3431 531 
L 3431 0 
L 469 0 
L 469 531 
Q 828 903 1448 1529 
Q 2069 2156 2228 2338 
Q 2531 2678 2651 2914 
Q 2772 3150 2772 3378 
Q 2772 3750 2511 3984 
Q 2250 4219 1831 4219 
Q 1534 4219 1204 4116 
Q 875 4013 500 3803 
L 500 4441 
Q 881 4594 1212 4672 
Q 1544 4750 1819 4750 
Q 2544 4750 2975 4387 
Q 3406 4025 3406 3419 
Q 3406 3131 3298 2873 
Q 3191 2616 2906 2266 
Q 2828 2175 2409 1742 
Q 1991 1309 1228 531 
z
" transform="scale(0.015625)"/>
        <path id="DejaVuSans-30" d="M 2034 4250 
Q 1547 4250 1301 3770 
Q 1056 3291 1056 2328 
Q 1056 1369 1301 889 
Q 1547 409 2034 409 
Q 2525 409 2770 889 
Q 3016 1369 3016 2328 
Q 3016 3291 2770 3770 
Q 2525 4250 2034 4250 
z
M 2034 4750 
Q 2819 4750 3233 4129 
Q 3647 3509 3647 2328 
Q 3647 1150 3233 529 
Q 2819 -91 2034 -91 
Q 1250 -91 836 529 
Q 422 1150 422 2328 
Q 422 3509 836 4129 
Q 1250 4750 2034 4750 
z
" transform="scale(0.015625)"/>
        <path id="DejaVuSans-2d" d="M 313 2009 
L 1997 2009 
L 1997 1497 
L 313 1497 
L 313 2009 
z
" transform="scale(0.015625)"/>
        <path id="DejaVuSans-36" d="M 2113 2584 
Q 1688 2584 1439 2293 
Q 1191 2003 1191 1497 
Q 1191 994 1439 701 
Q 1688 409 2113 409 
Q 2538 409 2786 701 
Q 3034 994 3034 1497 
Q 3034 2003 2786 2293 
Q 2538 2584 2113 2584 
z
M 3366 4563 
L 3366 3988 
Q 3128 4100 2886 4159 
Q 2644 4219 2406 4219 
Q 1781 4219 1451 3797 
Q 1122 3375 1075 2522 
Q 1259 2794 1537 2939 
Q 1816 3084 2150 3084 
Q 2853 3084 3261 2657 
Q 3669 2231 3669 1497 
Q 3669 778 3244 343 
Q 2819 -91 2113 -91 
Q 1303 -91 875 529 
Q 447 1150 447 2328 
Q 447 3434 972 4092 
Q 1497 4750 2381 4750 
Q 2619 4750 2861 4703 
Q 3103 4656 3366 4563 
z
" transform="scale(0.015625)"/>
        <path id="DejaVuSans-31" d="M 794 531 
L 1825 531 
L 1825 4091 
L 703 3866 
L 703 4441 
L 1819 4666 
L 2450 4666 
L 2450 531 
L 3481 531 
L 3481 0 
L 794 0 
L 794 531 
z
" transform="scale(0.015625)"/>
        <path id="DejaVuSans-38" d="M 2034 2216 
Q 1584 2216 1326 1975 
Q 1069 1734 1069 1313 
Q 1069 891 1326 650 
Q 1584 409 2034 409 
Q 2484 409 2743 651 
Q 3003 894 3003 1313 
Q 3003 1734 2745 1975 
Q 2488 2216 2034 2216 
z
M 1403 2484 
Q 997 2584 770 2862 
Q 544 3141 544 3541 
Q 544 4100 942 4425 
Q 1341 4750 2034 4750 
Q 2731 4750 3128 4425 
Q 3525 4100 3525 3541 
Q 3525 3141 3298 2862 
Q 3072 2584 2669 2484 
Q 3125 2378 3379 2068 
Q 3634 1759 3634 1313 
Q 3634 634 3220 271 
Q 2806 -91 2034 -91 
Q 1263 -91 848 271 
Q 434 634 434 1313 
Q 434 1759 690 2068 
Q 947 2378 1403 2484 
z
M 1172 3481 
Q 1172 3119 1398 2916 
Q 1625 2713 2034 2713 
Q 2441 2713 2670 2916 
Q 2900 3119 2900 3481 
Q 2900 3844 2670 4047 
Q 2441 4250 2034 4250 
Q 1625 4250 1398 4047 
Q 1172 3844 1172 3481 
z
" transform="scale(0.015625)"/>
       </defs>
       <use xlink:href="#DejaVuSans-32"/>
       <use xlink:href="#DejaVuSans-30" x="63.623047"/>
       <use xlink:href="#DejaVuSans-32" x="127.246094"/>
       <use xlink:href="#DejaVuSans-30" x="190.869141"/>
       <use xlink:href="#DejaVuSans-2d" x="254.492188"/>
       <use xlink:href="#DejaVuSans-30" x="290.576172"/>
       <use xlink:href="#DejaVuSans-36" x="354.199219"/>
       <use xlink:href="#DejaVuSans-2d" x="417.822266"/>
       <use xlink:href="#DejaVuSans-31" x="453.90625"/>
       <use xlink:href="#DejaVuSans-38" x="517.529297"/>
      </g>
     </g>
    </g>
    <g id="xtick_2">
     <g id="line2d_2">
      <g>
       <use xlink:href="#mbd9efef105" x="227.7164" y="128.16" style="stroke: #000000; stroke-width: 0.8"/>
      </g>
     </g>
     <g id="text_2">
      <!-- 2021-03-13 -->
      <g transform="translate(198.658587 142.758438) scale(0.1 -0.1)">
       <defs>
        <path id="DejaVuSans-33" d="M 2597 2516 
Q 3050 2419 3304 2112 
Q 3559 1806 3559 1356 
Q 3559 666 3084 287 
Q 2609 -91 1734 -91 
Q 1441 -91 1130 -33 
Q 819 25 488 141 
L 488 750 
Q 750 597 1062 519 
Q 1375 441 1716 441 
Q 2309 441 2620 675 
Q 2931 909 2931 1356 
Q 2931 1769 2642 2001 
Q 2353 2234 1838 2234 
L 1294 2234 
L 1294 2753 
L 1863 2753 
Q 2328 2753 2575 2939 
Q 2822 3125 2822 3475 
Q 2822 3834 2567 4026 
Q 2313 4219 1838 4219 
Q 1578 4219 1281 4162 
Q 984 4106 628 3988 
L 628 4550 
Q 988 4650 1302 4700 
Q 1616 4750 1894 4750 
Q 2613 4750 3031 4423 
Q 3450 4097 3450 3541 
Q 3450 3153 3228 2886 
Q 3006 2619 2597 2516 
z
" transform="scale(0.015625)"/>
       </defs>
       <use xlink:href="#DejaVuSans-32"/>
       <use xlink:href="#DejaVuSans-30" x="63.623047"/>
       <use xlink:href="#DejaVuSans-32" x="127.246094"/>
       <use xlink:href="#DejaVuSans-31" x="190.869141"/>
       <use xlink:href="#DejaVuSans-2d" x="254.492188"/>
       <use xlink:href="#DejaVuSans-30" x="290.576172"/>
       <use xlink:href="#DejaVuSans-33" x="354.199219"/>
       <use xlink:href="#DejaVuSans-2d" x="417.822266"/>
       <use xlink:href="#DejaVuSans-31" x="453.90625"/>
       <use xlink:href="#DejaVuSans-33" x="517.529297"/>
      </g>
     </g>
    </g>
    <g id="xtick_3">
     <g id="line2d_3">
      <g>
       <use xlink:href="#mbd9efef105" x="340.069163" y="128.16" style="stroke: #000000; stroke-width: 0.8"/>
      </g>
     </g>
     <g id="text_3">
      <!-- 2021-10-16 -->
      <g transform="translate(311.011351 142.758438) scale(0.1 -0.1)">
       <use xlink:href="#DejaVuSans-32"/>
       <use xlink:href="#DejaVuSans-30" x="63.623047"/>
       <use xlink:href="#DejaVuSans-32" x="127.246094"/>
       <use xlink:href="#DejaVuSans-31" x="190.869141"/>
       <use xlink:href="#DejaVuSans-2d" x="254.492188"/>
       <use xlink:href="#DejaVuSans-31" x="290.576172"/>
       <use xlink:href="#DejaVuSans-30" x="354.199219"/>
       <use xlink:href="#DejaVuSans-2d" x="417.822266"/>
       <use xlink:href="#DejaVuSans-31" x="453.90625"/>
       <use xlink:href="#DejaVuSans-36" x="517.529297"/>
      </g>
     </g>
    </g>
    <g id="xtick_4">
     <g id="line2d_4">
      <g>
       <use xlink:href="#mbd9efef105" x="452.421927" y="128.16" style="stroke: #000000; stroke-width: 0.8"/>
      </g>
     </g>
     <g id="text_4">
      <!-- 2022-05-12 -->
      <g transform="translate(423.364114 142.758438) scale(0.1 -0.1)">
       <defs>
        <path id="DejaVuSans-35" d="M 691 4666 
L 3169 4666 
L 3169 4134 
L 1269 4134 
L 1269 2991 
Q 1406 3038 1543 3061 
Q 1681 3084 1819 3084 
Q 2600 3084 3056 2656 
Q 3513 2228 3513 1497 
Q 3513 744 3044 326 
Q 2575 -91 1722 -91 
Q 1428 -91 1123 -41 
Q 819 9 494 109 
L 494 744 
Q 775 591 1075 516 
Q 1375 441 1709 441 
Q 2250 441 2565 725 
Q 2881 1009 2881 1497 
Q 2881 1984 2565 2268 
Q 2250 2553 1709 2553 
Q 1456 2553 1204 2497 
Q 953 2441 691 2322 
L 691 4666 
z
" transform="scale(0.015625)"/>
       </defs>
       <use xlink:href="#DejaVuSans-32"/>
       <use xlink:href="#DejaVuSans-30" x="63.623047"/>
       <use xlink:href="#DejaVuSans-32" x="127.246094"/>
       <use xlink:href="#DejaVuSans-32" x="190.869141"/>
       <use xlink:href="#DejaVuSans-2d" x="254.492188"/>
       <use xlink:href="#DejaVuSans-30" x="290.576172"/>
       <use xlink:href="#DejaVuSans-35" x="354.199219"/>
       <use xlink:href="#DejaVuSans-2d" x="417.822266"/>
       <use xlink:href="#DejaVuSans-31" x="453.90625"/>
       <use xlink:href="#DejaVuSans-32" x="517.529297"/>
      </g>
     </g>
    </g>
    <g id="xtick_5">
     <g id="line2d_5">
      <g>
       <use xlink:href="#mbd9efef105" x="564.77469" y="128.16" style="stroke: #000000; stroke-width: 0.8"/>
      </g>
     </g>
     <g id="text_5">
      <!-- 2022-12-07 -->
      <g transform="translate(535.716878 142.758438) scale(0.1 -0.1)">
       <defs>
        <path id="DejaVuSans-37" d="M 525 4666 
L 3525 4666 
L 3525 4397 
L 1831 0 
L 1172 0 
L 2766 4134 
L 525 4134 
L 525 4666 
z
" transform="scale(0.015625)"/>
       </defs>
       <use xlink:href="#DejaVuSans-32"/>
       <use xlink:href="#DejaVuSans-30" x="63.623047"/>
       <use xlink:href="#DejaVuSans-32" x="127.246094"/>
       <use xlink:href="#DejaVuSans-32" x="190.869141"/>
       <use xlink:href="#DejaVuSans-2d" x="254.492188"/>
       <use xlink:href="#DejaVuSans-31" x="290.576172"/>
       <use xlink:href="#DejaVuSans-32" x="354.199219"/>
       <use xlink:href="#DejaVuSans-2d" x="417.822266"/>
       <use xlink:href="#DejaVuSans-30" x="453.90625"/>
       <use xlink:href="#DejaVuSans-37" x="517.529297"/>
      </g>
     </g>
    </g>
    <g id="text_6">
     <!-- date -->
     <g transform="translate(357.725 156.436563) scale(0.1 -0.1)">
      <defs>
       <path id="DejaVuSans-64" d="M 2906 2969 
L 2906 4863 
L 3481 4863 
L 3481 0 
L 2906 0 
L 2906 525 
Q 2725 213 2448 61 
Q 2172 -91 1784 -91 
Q 1150 -91 751 415 
Q 353 922 353 1747 
Q 353 2572 751 3078 
Q 1150 3584 1784 3584 
Q 2172 3584 2448 3432 
Q 2725 3281 2906 2969 
z
M 947 1747 
Q 947 1113 1208 752 
Q 1469 391 1925 391 
Q 2381 391 2643 752 
Q 2906 1113 2906 1747 
Q 2906 2381 2643 2742 
Q 2381 3103 1925 3103 
Q 1469 3103 1208 2742 
Q 947 2381 947 1747 
z
" transform="scale(0.015625)"/>
       <path id="DejaVuSans-61" d="M 2194 1759 
Q 1497 1759 1228 1600 
Q 959 1441 959 1056 
Q 959 750 1161 570 
Q 1363 391 1709 391 
Q 2188 391 2477 730 
Q 2766 1069 2766 1631 
L 2766 1759 
L 2194 1759 
z
M 3341 1997 
L 3341 0 
L 2766 0 
L 2766 531 
Q 2569 213 2275 61 
Q 1981 -91 1556 -91 
Q 1019 -91 701 211 
Q 384 513 384 1019 
Q 384 1609 779 1909 
Q 1175 2209 1959 2209 
L 2766 2209 
L 2766 2266 
Q 2766 2663 2505 2880 
Q 2244 3097 1772 3097 
Q 1472 3097 1187 3025 
Q 903 2953 641 2809 
L 641 3341 
Q 956 3463 1253 3523 
Q 1550 3584 1831 3584 
Q 2591 3584 2966 3190 
Q 3341 2797 3341 1997 
z
" transform="scale(0.015625)"/>
       <path id="DejaVuSans-74" d="M 1172 4494 
L 1172 3500 
L 2356 3500 
L 2356 3053 
L 1172 3053 
L 1172 1153 
Q 1172 725 1289 603 
Q 1406 481 1766 481 
L 2356 481 
L 2356 0 
L 1766 0 
Q 1100 0 847 248 
Q 594 497 594 1153 
L 594 3053 
L 172 3053 
L 172 3500 
L 594 3500 
L 594 4494 
L 1172 4494 
z
" transform="scale(0.015625)"/>
       <path id="DejaVuSans-65" d="M 3597 1894 
L 3597 1613 
L 953 1613 
Q 991 1019 1311 708 
Q 1631 397 2203 397 
Q 2534 397 2845 478 
Q 3156 559 3463 722 
L 3463 178 
Q 3153 47 2828 -22 
Q 2503 -91 2169 -91 
Q 1331 -91 842 396 
Q 353 884 353 1716 
Q 353 2575 817 3079 
Q 1281 3584 2069 3584 
Q 2775 3584 3186 3129 
Q 3597 2675 3597 1894 
z
M 3022 2063 
Q 3016 2534 2758 2815 
Q 2500 3097 2075 3097 
Q 1594 3097 1305 2825 
Q 1016 2553 972 2059 
L 3022 2063 
z
" transform="scale(0.015625)"/>
      </defs>
      <use xlink:href="#DejaVuSans-64"/>
      <use xlink:href="#DejaVuSans-61" x="63.476562"/>
      <use xlink:href="#DejaVuSans-74" x="124.755859"/>
      <use xlink:href="#DejaVuSans-65" x="163.964844"/>
     </g>
    </g>
   </g>
   <g id="matplotlib.axis_2">
    <g id="ytick_1">
     <g id="line2d_6">
      <defs>
       <path id="m86c52daae6" d="M 0 0 
L -3.5 0 
" style="stroke: #000000; stroke-width: 0.8"/>
      </defs>
      <g>
       <use xlink:href="#m86c52daae6" x="90" y="123.895385" style="stroke: #000000; stroke-width: 0.8"/>
      </g>
     </g>
     <g id="text_7">
      <!-- 0 -->
      <g transform="translate(76.6375 127.694603) scale(0.1 -0.1)">
       <use xlink:href="#DejaVuSans-30"/>
      </g>
     </g>
    </g>
    <g id="ytick_2">
     <g id="line2d_7">
      <g>
       <use xlink:href="#m86c52daae6" x="90" y="85.126154" style="stroke: #000000; stroke-width: 0.8"/>
      </g>
     </g>
     <g id="text_8">
      <!-- 50 -->
      <g transform="translate(70.275 88.925373) scale(0.1 -0.1)">
       <use xlink:href="#DejaVuSans-35"/>
       <use xlink:href="#DejaVuSans-30" x="63.623047"/>
      </g>
     </g>
    </g>
    <g id="ytick_3">
     <g id="line2d_8">
      <g>
       <use xlink:href="#m86c52daae6" x="90" y="46.356923" style="stroke: #000000; stroke-width: 0.8"/>
      </g>
     </g>
     <g id="text_9">
      <!-- 100 -->
      <g transform="translate(63.9125 50.156142) scale(0.1 -0.1)">
       <use xlink:href="#DejaVuSans-31"/>
       <use xlink:href="#DejaVuSans-30" x="63.623047"/>
       <use xlink:href="#DejaVuSans-30" x="127.246094"/>
      </g>
     </g>
    </g>
   </g>
   <g id="line2d_9">
    <path d="M 115.363636 106.836923 
L 115.9254 113.04 
L 116.487164 120.793846 
L 118.172455 123.12 
L 118.734219 121.569231 
L 119.295983 117.692308 
L 119.857747 122.344615 
L 120.419511 121.569231 
L 120.981275 122.344615 
L 121.543038 105.286154 
L 122.104802 118.467692 
L 122.666566 121.569231 
L 123.22833 117.692308 
L 123.790094 122.344615 
L 124.351857 119.243077 
L 124.913621 118.467692 
L 125.475385 123.12 
L 126.037149 121.569231 
L 126.598913 116.141538 
L 127.160677 117.692308 
L 127.72244 120.793846 
L 128.284204 121.569231 
L 128.845968 121.569231 
L 129.969496 123.12 
L 130.531259 116.916923 
L 131.093023 84.350769 
L 131.654787 119.243077 
L 132.216551 121.569231 
L 132.778315 121.569231 
L 133.340079 120.018462 
L 133.901842 122.344615 
L 134.463606 120.793846 
L 135.02537 123.12 
L 135.587134 121.569231 
L 136.148898 121.569231 
L 136.710661 123.12 
L 137.272425 122.344615 
L 137.834189 120.793846 
L 138.395953 120.793846 
L 138.957717 119.243077 
L 139.519481 123.12 
L 140.081244 123.12 
L 140.643008 122.344615 
L 141.204772 122.344615 
L 141.766536 123.12 
L 142.3283 123.12 
L 142.890063 111.489231 
L 143.451827 120.018462 
L 144.013591 118.467692 
L 144.575355 122.344615 
L 145.137119 120.018462 
L 145.698883 118.467692 
L 146.260646 120.018462 
L 146.82241 123.12 
L 147.384174 122.344615 
L 147.945938 120.018462 
L 148.507702 123.12 
L 149.631229 121.569231 
L 150.192993 118.467692 
L 151.316521 123.12 
L 151.878285 120.793846 
L 152.440048 120.018462 
L 153.001812 123.12 
L 153.563576 120.793846 
L 154.12534 123.12 
L 154.687104 122.344615 
L 155.248867 120.018462 
L 155.810631 123.12 
L 156.372395 122.344615 
L 156.934159 122.344615 
L 157.495923 123.12 
L 158.057686 120.018462 
L 158.61945 123.12 
L 159.181214 121.569231 
L 160.304742 121.569231 
L 160.866506 120.793846 
L 161.428269 119.243077 
L 161.990033 121.569231 
L 162.551797 119.243077 
L 163.113561 123.12 
L 164.237088 121.569231 
L 164.798852 120.018462 
L 165.360616 122.344615 
L 165.92238 123.12 
L 166.484144 122.344615 
L 167.045908 120.793846 
L 167.607671 121.569231 
L 168.169435 123.12 
L 168.731199 113.04 
L 169.292963 123.12 
L 169.854727 121.569231 
L 170.41649 120.793846 
L 170.978254 123.12 
L 171.540018 120.793846 
L 172.101782 117.692308 
L 172.663546 121.569231 
L 173.22531 123.12 
L 173.787073 123.12 
L 174.348837 122.344615 
L 174.910601 123.12 
L 175.472365 123.12 
L 176.034129 122.344615 
L 176.595892 122.344615 
L 177.157656 121.569231 
L 177.71942 122.344615 
L 179.404712 120.018462 
L 179.966475 121.569231 
L 180.528239 121.569231 
L 181.651767 120.018462 
L 182.213531 122.344615 
L 182.775294 123.12 
L 183.337058 118.467692 
L 183.898822 122.344615 
L 184.460586 122.344615 
L 185.02235 117.692308 
L 185.584114 121.569231 
L 186.145877 121.569231 
L 186.707641 104.510769 
L 187.269405 120.018462 
L 187.831169 121.569231 
L 188.392933 118.467692 
L 188.954696 122.344615 
L 189.51646 119.243077 
L 190.078224 122.344615 
L 190.639988 117.692308 
L 191.201752 120.018462 
L 191.763516 123.12 
L 192.325279 122.344615 
L 192.887043 113.815385 
L 193.448807 120.018462 
L 194.010571 122.344615 
L 194.572335 123.12 
L 195.134098 123.12 
L 195.695862 117.692308 
L 196.257626 123.12 
L 196.81939 123.12 
L 197.381154 120.793846 
L 197.942918 123.12 
L 198.504681 123.12 
L 199.628209 120.018462 
L 200.189973 123.12 
L 200.751737 121.569231 
L 201.875264 123.12 
L 202.437028 120.018462 
L 202.998792 123.12 
L 203.560556 123.12 
L 204.12232 122.344615 
L 204.684083 123.12 
L 205.245847 123.12 
L 205.807611 120.018462 
L 206.931139 123.12 
L 208.054666 121.569231 
L 208.61643 121.569231 
L 209.178194 122.344615 
L 209.739958 120.793846 
L 210.301722 122.344615 
L 210.863485 123.12 
L 211.987013 123.12 
L 212.548777 120.018462 
L 213.110541 123.12 
L 213.672304 122.344615 
L 214.234068 123.12 
L 214.795832 120.018462 
L 215.357596 121.569231 
L 215.91936 122.344615 
L 216.481124 122.344615 
L 217.042887 120.793846 
L 217.604651 122.344615 
L 218.166415 121.569231 
L 218.728179 121.569231 
L 219.289943 122.344615 
L 219.851706 122.344615 
L 220.41347 123.12 
L 220.975234 118.467692 
L 221.536998 122.344615 
L 222.098762 122.344615 
L 222.660526 123.12 
L 223.222289 122.344615 
L 223.784053 123.12 
L 224.345817 123.12 
L 225.469345 121.569231 
L 226.031108 115.366154 
L 226.592872 100.633846 
L 227.154636 117.692308 
L 227.7164 123.12 
L 228.278164 122.344615 
L 228.839928 118.467692 
L 229.401691 120.018462 
L 229.963455 119.243077 
L 230.525219 113.04 
L 231.086983 123.12 
L 231.648747 122.344615 
L 232.21051 120.793846 
L 232.772274 118.467692 
L 233.334038 115.366154 
L 233.895802 106.061538 
L 234.457566 112.264615 
L 235.01933 122.344615 
L 235.581093 97.532308 
L 236.142857 111.489231 
L 236.704621 117.692308 
L 237.266385 113.04 
L 237.828149 120.018462 
L 238.389912 113.04 
L 238.951676 113.815385 
L 239.51344 112.264615 
L 240.075204 106.061538 
L 240.636968 121.569231 
L 241.198732 118.467692 
L 241.760495 121.569231 
L 242.322259 123.12 
L 242.884023 120.018462 
L 243.445787 123.12 
L 244.007551 121.569231 
L 244.569314 123.12 
L 245.131078 122.344615 
L 245.692842 113.04 
L 246.254606 121.569231 
L 246.81637 119.243077 
L 247.378133 120.793846 
L 247.939897 120.018462 
L 248.501661 123.12 
L 249.063425 118.467692 
L 249.625189 120.018462 
L 250.186953 122.344615 
L 250.748716 119.243077 
L 251.31048 123.12 
L 251.872244 121.569231 
L 252.434008 123.12 
L 252.995772 120.793846 
L 253.557535 122.344615 
L 254.119299 120.793846 
L 254.681063 120.018462 
L 255.242827 122.344615 
L 256.366355 122.344615 
L 256.928118 120.793846 
L 257.489882 120.018462 
L 258.051646 106.836923 
L 258.61341 108.387692 
L 259.175174 121.569231 
L 259.736937 122.344615 
L 260.298701 119.243077 
L 260.860465 120.018462 
L 261.422229 118.467692 
L 261.983993 122.344615 
L 262.545757 123.12 
L 263.10752 119.243077 
L 263.669284 118.467692 
L 264.231048 116.141538 
L 264.792812 122.344615 
L 265.354576 120.018462 
L 265.916339 122.344615 
L 266.478103 122.344615 
L 267.039867 123.12 
L 268.163395 120.018462 
L 269.286922 123.12 
L 269.848686 121.569231 
L 270.41045 122.344615 
L 270.972214 118.467692 
L 271.533978 116.916923 
L 272.095741 118.467692 
L 272.657505 119.243077 
L 273.219269 117.692308 
L 273.781033 111.489231 
L 274.342797 119.243077 
L 274.904561 120.793846 
L 275.466324 120.018462 
L 276.028088 117.692308 
L 276.589852 112.264615 
L 277.151616 122.344615 
L 277.71338 121.569231 
L 278.275143 123.12 
L 278.836907 116.916923 
L 279.398671 117.692308 
L 279.960435 120.793846 
L 280.522199 116.141538 
L 281.083963 114.590769 
L 281.645726 122.344615 
L 282.20749 122.344615 
L 282.769254 116.141538 
L 283.331018 102.184615 
L 283.892782 113.04 
L 284.454545 119.243077 
L 285.016309 120.018462 
L 285.578073 120.018462 
L 286.701601 121.569231 
L 287.263365 119.243077 
L 287.825128 119.243077 
L 288.386892 122.344615 
L 288.948656 122.344615 
L 289.51042 121.569231 
L 290.072184 122.344615 
L 290.633947 117.692308 
L 291.195711 117.692308 
L 291.757475 119.243077 
L 292.319239 116.916923 
L 292.881003 111.489231 
L 293.442767 117.692308 
L 294.00453 117.692308 
L 294.566294 121.569231 
L 295.128058 121.569231 
L 295.689822 118.467692 
L 296.251586 123.12 
L 296.813349 109.938462 
L 297.375113 108.387692 
L 297.936877 119.243077 
L 298.498641 120.018462 
L 299.060405 113.04 
L 299.622169 116.916923 
L 300.183932 121.569231 
L 300.745696 120.018462 
L 301.30746 123.12 
L 301.869224 116.916923 
L 302.430988 106.836923 
L 302.992751 122.344615 
L 303.554515 121.569231 
L 304.678043 123.12 
L 305.239807 120.793846 
L 305.801571 108.387692 
L 306.363334 117.692308 
L 306.925098 122.344615 
L 307.486862 122.344615 
L 308.048626 111.489231 
L 308.61039 121.569231 
L 309.172153 122.344615 
L 309.733917 121.569231 
L 311.980973 121.569231 
L 312.542736 120.018462 
L 313.1045 123.12 
L 313.666264 122.344615 
L 314.228028 122.344615 
L 314.789792 123.12 
L 315.351555 123.12 
L 315.913319 122.344615 
L 316.475083 123.12 
L 317.036847 119.243077 
L 317.598611 122.344615 
L 318.160375 120.018462 
L 318.722138 120.018462 
L 319.283902 118.467692 
L 319.845666 120.018462 
L 320.40743 123.12 
L 320.969194 121.569231 
L 322.092721 121.569231 
L 322.654485 123.12 
L 323.216249 122.344615 
L 323.778013 122.344615 
L 324.339777 120.793846 
L 324.90154 122.344615 
L 326.586832 122.344615 
L 327.148596 95.981538 
L 327.710359 120.018462 
L 328.272123 123.12 
L 328.833887 122.344615 
L 329.395651 120.793846 
L 329.957415 123.12 
L 330.519178 120.018462 
L 331.080942 122.344615 
L 331.642706 119.243077 
L 332.20447 118.467692 
L 332.766234 118.467692 
L 333.327998 117.692308 
L 333.889761 108.387692 
L 334.451525 108.387692 
L 335.013289 118.467692 
L 335.575053 120.793846 
L 336.136817 122.344615 
L 336.69858 110.713846 
L 337.260344 120.018462 
L 337.822108 122.344615 
L 338.383872 122.344615 
L 338.945636 121.569231 
L 339.5074 121.569231 
L 340.069163 122.344615 
L 340.630927 122.344615 
L 341.192691 120.018462 
L 341.754455 123.12 
L 342.316219 122.344615 
L 342.877982 120.018462 
L 343.439746 120.018462 
L 344.00151 121.569231 
L 345.125038 108.387692 
L 345.686802 116.916923 
L 346.248565 116.141538 
L 346.810329 111.489231 
L 347.372093 114.590769 
L 348.495621 116.141538 
L 349.057384 115.366154 
L 349.619148 110.713846 
L 350.180912 113.04 
L 350.742676 120.018462 
L 351.30444 120.793846 
L 351.866204 119.243077 
L 352.427967 119.243077 
L 352.989731 116.916923 
L 353.551495 118.467692 
L 354.113259 113.815385 
L 354.675023 117.692308 
L 355.236786 118.467692 
L 355.79855 115.366154 
L 356.360314 108.387692 
L 356.922078 115.366154 
L 357.483842 118.467692 
L 358.607369 115.366154 
L 359.169133 118.467692 
L 359.730897 113.04 
L 360.292661 118.467692 
L 360.854425 115.366154 
L 361.416188 121.569231 
L 361.977952 118.467692 
L 362.539716 113.04 
L 363.10148 121.569231 
L 363.663244 120.018462 
L 364.225008 120.793846 
L 364.786771 117.692308 
L 365.348535 116.916923 
L 365.910299 104.510769 
L 366.472063 102.184615 
L 367.033827 116.141538 
L 367.59559 95.206154 
L 368.157354 121.569231 
L 368.719118 120.018462 
L 369.280882 121.569231 
L 369.842646 101.409231 
L 370.40441 102.184615 
L 371.527937 122.344615 
L 372.089701 120.018462 
L 372.651465 113.815385 
L 373.213229 120.018462 
L 373.774992 120.018462 
L 374.336756 102.184615 
L 374.89852 115.366154 
L 375.460284 117.692308 
L 376.583812 119.243077 
L 377.145575 119.243077 
L 377.707339 117.692308 
L 379.392631 122.344615 
L 379.954394 116.916923 
L 380.516158 122.344615 
L 381.077922 122.344615 
L 382.20145 120.793846 
L 382.763214 123.12 
L 383.324977 120.793846 
L 383.886741 119.243077 
L 384.448505 121.569231 
L 385.010269 122.344615 
L 385.572033 122.344615 
L 386.133796 116.916923 
L 386.69556 123.12 
L 387.257324 106.061538 
L 387.819088 121.569231 
L 388.380852 122.344615 
L 388.942616 120.018462 
L 389.504379 120.018462 
L 390.066143 120.793846 
L 390.627907 122.344615 
L 391.189671 117.692308 
L 391.751435 121.569231 
L 392.313198 120.018462 
L 392.874962 120.793846 
L 393.436726 105.286154 
L 393.99849 121.569231 
L 394.560254 119.243077 
L 395.122018 123.12 
L 395.683781 123.12 
L 396.245545 122.344615 
L 396.807309 116.916923 
L 397.369073 122.344615 
L 397.930837 117.692308 
L 398.4926 120.018462 
L 399.054364 123.12 
L 399.616128 120.018462 
L 400.739656 120.018462 
L 401.30142 117.692308 
L 401.863183 116.141538 
L 402.424947 120.793846 
L 402.986711 120.793846 
L 403.548475 120.018462 
L 404.110239 121.569231 
L 404.672002 121.569231 
L 405.233766 120.018462 
L 405.79553 117.692308 
L 406.357294 117.692308 
L 406.919058 119.243077 
L 407.480822 122.344615 
L 408.604349 122.344615 
L 409.166113 108.387692 
L 409.727877 75.821538 
L 410.289641 91.329231 
L 410.851404 119.243077 
L 411.413168 121.569231 
L 411.974932 120.018462 
L 413.09846 109.163077 
L 413.660223 118.467692 
L 414.221987 105.286154 
L 414.783751 88.227692 
L 415.345515 120.018462 
L 415.907279 87.452308 
L 416.469043 113.815385 
L 417.030806 122.344615 
L 417.59257 78.147692 
L 418.154334 102.96 
L 418.716098 111.489231 
L 419.277862 73.495385 
L 419.839625 119.243077 
L 420.401389 120.018462 
L 420.963153 102.184615 
L 421.524917 113.04 
L 422.086681 99.858462 
L 422.648445 113.04 
L 423.210208 120.793846 
L 423.771972 56.436923 
L 424.333736 119.243077 
L 424.8955 120.018462 
L 425.457264 120.018462 
L 426.019027 114.590769 
L 426.580791 118.467692 
L 427.142555 107.612308 
L 427.704319 118.467692 
L 428.266083 120.793846 
L 428.827847 102.96 
L 429.38961 102.96 
L 429.951374 114.590769 
L 430.513138 100.633846 
L 431.074902 119.243077 
L 431.636666 120.018462 
L 432.198429 102.96 
L 432.760193 123.12 
L 433.321957 121.569231 
L 433.883721 120.793846 
L 434.445485 119.243077 
L 435.007249 121.569231 
L 435.569012 120.793846 
L 436.130776 119.243077 
L 436.69254 115.366154 
L 437.254304 117.692308 
L 437.816068 110.713846 
L 438.939595 122.344615 
L 439.501359 123.12 
L 440.063123 116.916923 
L 441.186651 121.569231 
L 441.748414 123.12 
L 442.310178 119.243077 
L 442.871942 122.344615 
L 443.433706 119.243077 
L 443.99547 123.12 
L 445.118997 121.569231 
L 445.680761 123.12 
L 446.242525 123.12 
L 446.804289 121.569231 
L 447.927816 120.018462 
L 448.48958 120.018462 
L 449.051344 120.793846 
L 449.613108 120.793846 
L 450.174872 123.12 
L 450.736635 121.569231 
L 451.298399 96.756923 
L 451.860163 120.793846 
L 452.421927 122.344615 
L 453.545455 122.344615 
L 454.107218 118.467692 
L 454.668982 119.243077 
L 455.230746 110.713846 
L 455.79251 121.569231 
L 456.354274 117.692308 
L 456.916037 122.344615 
L 457.477801 123.12 
L 458.039565 120.793846 
L 458.601329 121.569231 
L 459.163093 117.692308 
L 459.724857 119.243077 
L 460.28662 121.569231 
L 460.848384 122.344615 
L 461.410148 121.569231 
L 461.971912 118.467692 
L 462.533676 120.018462 
L 463.095439 119.243077 
L 463.657203 120.793846 
L 464.218967 116.916923 
L 464.780731 118.467692 
L 465.342495 123.12 
L 465.904259 119.243077 
L 466.466022 120.018462 
L 467.027786 111.489231 
L 467.58955 122.344615 
L 468.151314 119.243077 
L 468.713078 119.243077 
L 469.274841 120.018462 
L 469.836605 112.264615 
L 470.398369 99.858462 
L 470.960133 120.018462 
L 471.521897 122.344615 
L 472.083661 117.692308 
L 472.645424 121.569231 
L 473.207188 120.793846 
L 473.768952 120.793846 
L 474.330716 123.12 
L 475.454243 121.569231 
L 476.016007 120.018462 
L 476.577771 122.344615 
L 477.139535 120.018462 
L 477.701299 122.344615 
L 478.263063 120.018462 
L 478.824826 123.12 
L 479.38659 120.018462 
L 479.948354 121.569231 
L 480.510118 121.569231 
L 481.071882 120.018462 
L 481.633645 123.12 
L 482.195409 120.018462 
L 482.757173 121.569231 
L 483.318937 116.916923 
L 483.880701 122.344615 
L 484.442465 116.141538 
L 485.004228 99.858462 
L 485.565992 122.344615 
L 486.127756 123.12 
L 486.68952 121.569231 
L 487.251284 117.692308 
L 487.813047 121.569231 
L 488.936575 123.12 
L 489.498339 116.916923 
L 490.060103 121.569231 
L 490.621867 120.793846 
L 491.18363 113.815385 
L 491.745394 108.387692 
L 492.307158 118.467692 
L 492.868922 121.569231 
L 493.430686 121.569231 
L 493.992449 117.692308 
L 494.554213 91.329231 
L 495.115977 110.713846 
L 495.677741 117.692308 
L 496.239505 120.793846 
L 496.801268 120.793846 
L 497.363032 98.307692 
L 497.924796 120.018462 
L 498.48656 122.344615 
L 499.610088 122.344615 
L 500.171851 120.793846 
L 500.733615 120.018462 
L 501.295379 121.569231 
L 501.857143 119.243077 
L 502.418907 120.793846 
L 502.98067 123.12 
L 503.542434 121.569231 
L 504.104198 118.467692 
L 504.665962 121.569231 
L 505.227726 117.692308 
L 505.78949 117.692308 
L 506.351253 119.243077 
L 506.913017 121.569231 
L 507.474781 107.612308 
L 508.036545 120.018462 
L 508.598309 110.713846 
L 509.160072 117.692308 
L 509.721836 119.243077 
L 510.2836 111.489231 
L 510.845364 121.569231 
L 511.407128 117.692308 
L 511.968892 114.590769 
L 512.530655 120.018462 
L 513.092419 116.916923 
L 513.654183 110.713846 
L 514.215947 109.938462 
L 514.777711 119.243077 
L 515.339474 105.286154 
L 515.901238 111.489231 
L 516.463002 120.793846 
L 517.024766 109.938462 
L 517.58653 122.344615 
L 518.148294 121.569231 
L 518.710057 114.590769 
L 519.271821 116.916923 
L 519.833585 101.409231 
L 520.395349 114.590769 
L 520.957113 113.815385 
L 521.518876 113.815385 
L 522.08064 115.366154 
L 522.642404 119.243077 
L 523.204168 120.018462 
L 523.765932 117.692308 
L 524.327696 119.243077 
L 524.889459 113.04 
L 525.451223 120.018462 
L 526.012987 115.366154 
L 526.574751 109.163077 
L 527.136515 115.366154 
L 527.698278 116.141538 
L 528.260042 115.366154 
L 528.821806 122.344615 
L 529.38357 117.692308 
L 529.945334 121.569231 
L 530.507098 120.793846 
L 531.068861 113.815385 
L 531.630625 113.04 
L 532.192389 101.409231 
L 532.754153 113.04 
L 533.315917 110.713846 
L 533.87768 118.467692 
L 534.439444 120.018462 
L 535.001208 119.243077 
L 535.562972 119.243077 
L 536.124736 122.344615 
L 536.6865 119.243077 
L 537.248263 109.163077 
L 537.810027 119.243077 
L 538.933555 119.243077 
L 539.495319 122.344615 
L 540.057082 123.12 
L 540.618846 122.344615 
L 541.18061 118.467692 
L 541.742374 106.836923 
L 542.304138 120.018462 
L 542.865902 120.018462 
L 543.427665 123.12 
L 543.989429 123.12 
L 544.551193 98.307692 
L 545.112957 106.836923 
L 545.674721 117.692308 
L 546.236484 113.04 
L 547.360012 122.344615 
L 547.921776 121.569231 
L 548.48354 122.344615 
L 549.045304 116.141538 
L 549.607067 122.344615 
L 550.168831 120.793846 
L 550.730595 121.569231 
L 551.292359 123.12 
L 551.854123 100.633846 
L 552.415886 120.018462 
L 552.97765 111.489231 
L 553.539414 111.489231 
L 554.101178 114.590769 
L 554.662942 120.793846 
L 555.224706 121.569231 
L 555.786469 116.141538 
L 556.348233 118.467692 
L 556.909997 117.692308 
L 557.471761 116.141538 
L 558.033525 122.344615 
L 558.595288 120.018462 
L 559.157052 121.569231 
L 560.28058 123.12 
L 562.527635 120.018462 
L 563.651163 105.286154 
L 564.212927 118.467692 
L 564.77469 116.141538 
L 565.336454 122.344615 
L 565.898218 116.141538 
L 566.459982 123.12 
L 567.021746 121.569231 
L 568.145273 120.018462 
L 568.707037 120.793846 
L 569.268801 120.018462 
L 569.830565 118.467692 
L 570.392329 107.612308 
L 570.954092 118.467692 
L 571.515856 117.692308 
L 572.07762 106.061538 
L 572.639384 122.344615 
L 573.201148 114.590769 
L 573.762912 122.344615 
L 574.324675 118.467692 
L 574.886439 121.569231 
L 575.448203 123.12 
L 576.009967 120.793846 
L 576.571731 122.344615 
L 577.133494 120.018462 
L 577.695258 123.12 
L 578.818786 123.12 
L 579.38055 120.018462 
L 579.942314 123.12 
L 580.504077 118.467692 
L 581.065841 123.12 
L 581.627605 122.344615 
L 582.189369 120.018462 
L 582.751133 107.612308 
L 583.312896 123.12 
L 583.87466 123.12 
L 584.436424 112.264615 
L 584.998188 113.04 
L 585.559952 110.713846 
L 586.121715 113.815385 
L 586.683479 122.344615 
L 587.245243 112.264615 
L 587.807007 120.018462 
L 588.368771 121.569231 
L 588.930535 122.344615 
L 589.492298 122.344615 
L 590.054062 123.12 
L 590.615826 122.344615 
L 591.17759 119.243077 
L 591.739354 121.569231 
L 592.862881 123.12 
L 593.424645 123.12 
L 593.986409 117.692308 
L 594.548173 118.467692 
L 595.109937 121.569231 
L 596.233464 121.569231 
L 596.795228 120.793846 
L 597.356992 120.793846 
L 597.918756 116.141538 
L 598.480519 122.344615 
L 599.042283 105.286154 
L 599.604047 118.467692 
L 600.165811 122.344615 
L 600.727575 119.243077 
L 601.289339 120.018462 
L 601.851102 116.141538 
L 602.412866 113.04 
L 602.97463 118.467692 
L 603.536394 103.735385 
L 604.098158 123.12 
L 604.659921 117.692308 
L 605.783449 102.96 
L 606.345213 110.713846 
L 606.906977 82.8 
L 607.468741 116.141538 
L 608.030504 123.12 
L 608.592268 93.655385 
L 609.154032 113.04 
L 609.715796 109.163077 
L 610.27756 110.713846 
L 610.839323 117.692308 
L 611.401087 113.815385 
L 611.962851 122.344615 
L 612.524615 106.836923 
L 613.086379 112.264615 
L 613.648143 112.264615 
L 614.209906 107.612308 
L 614.77167 108.387692 
L 615.333434 121.569231 
L 615.895198 123.12 
L 616.456962 92.104615 
L 617.018725 22.32 
L 617.580489 102.184615 
L 618.142253 106.836923 
L 618.704017 106.061538 
L 619.265781 120.018462 
L 619.827545 120.793846 
L 620.389308 92.88 
L 620.951072 73.495385 
L 621.512836 110.713846 
L 622.0746 108.387692 
L 622.636364 103.735385 
L 622.636364 103.735385 
" clip-path="url(#p876addbde8)" style="fill: none; stroke: #1f77b4; stroke-width: 1.5; stroke-linecap: square"/>
   </g>
   <g id="patch_3">
    <path d="M 90 128.16 
L 90 17.28 
" style="fill: none; stroke: #000000; stroke-width: 0.8; stroke-linejoin: miter; stroke-linecap: square"/>
   </g>
   <g id="patch_4">
    <path d="M 648 128.16 
L 648 17.28 
" style="fill: none; stroke: #000000; stroke-width: 0.8; stroke-linejoin: miter; stroke-linecap: square"/>
   </g>
   <g id="patch_5">
    <path d="M 90 128.16 
L 648 128.16 
" style="fill: none; stroke: #000000; stroke-width: 0.8; stroke-linejoin: miter; stroke-linecap: square"/>
   </g>
   <g id="patch_6">
    <path d="M 90 17.28 
L 648 17.28 
" style="fill: none; stroke: #000000; stroke-width: 0.8; stroke-linejoin: miter; stroke-linecap: square"/>
   </g>
   <g id="legend_1">
    <g id="patch_7">
     <path d="M 97 39.958125 
L 264.190625 39.958125 
Q 266.190625 39.958125 266.190625 37.958125 
L 266.190625 24.28 
Q 266.190625 22.28 264.190625 22.28 
L 97 22.28 
Q 95 22.28 95 24.28 
L 95 37.958125 
Q 95 39.958125 97 39.958125 
z
" style="fill: #ffffff; opacity: 0.8; stroke: #cccccc; stroke-linejoin: miter"/>
    </g>
    <g id="line2d_10">
     <path d="M 99 30.378437 
L 109 30.378437 
L 119 30.378437 
" style="fill: none; stroke: #1f77b4; stroke-width: 1.5; stroke-linecap: square"/>
    </g>
    <g id="text_10">
     <!-- Number of PyPI Downloads -->
     <g transform="translate(127 33.878437) scale(0.1 -0.1)">
      <defs>
       <path id="DejaVuSans-4e" d="M 628 4666 
L 1478 4666 
L 3547 763 
L 3547 4666 
L 4159 4666 
L 4159 0 
L 3309 0 
L 1241 3903 
L 1241 0 
L 628 0 
L 628 4666 
z
" transform="scale(0.015625)"/>
       <path id="DejaVuSans-75" d="M 544 1381 
L 544 3500 
L 1119 3500 
L 1119 1403 
Q 1119 906 1312 657 
Q 1506 409 1894 409 
Q 2359 409 2629 706 
Q 2900 1003 2900 1516 
L 2900 3500 
L 3475 3500 
L 3475 0 
L 2900 0 
L 2900 538 
Q 2691 219 2414 64 
Q 2138 -91 1772 -91 
Q 1169 -91 856 284 
Q 544 659 544 1381 
z
M 1991 3584 
L 1991 3584 
z
" transform="scale(0.015625)"/>
       <path id="DejaVuSans-6d" d="M 3328 2828 
Q 3544 3216 3844 3400 
Q 4144 3584 4550 3584 
Q 5097 3584 5394 3201 
Q 5691 2819 5691 2113 
L 5691 0 
L 5113 0 
L 5113 2094 
Q 5113 2597 4934 2840 
Q 4756 3084 4391 3084 
Q 3944 3084 3684 2787 
Q 3425 2491 3425 1978 
L 3425 0 
L 2847 0 
L 2847 2094 
Q 2847 2600 2669 2842 
Q 2491 3084 2119 3084 
Q 1678 3084 1418 2786 
Q 1159 2488 1159 1978 
L 1159 0 
L 581 0 
L 581 3500 
L 1159 3500 
L 1159 2956 
Q 1356 3278 1631 3431 
Q 1906 3584 2284 3584 
Q 2666 3584 2933 3390 
Q 3200 3197 3328 2828 
z
" transform="scale(0.015625)"/>
       <path id="DejaVuSans-62" d="M 3116 1747 
Q 3116 2381 2855 2742 
Q 2594 3103 2138 3103 
Q 1681 3103 1420 2742 
Q 1159 2381 1159 1747 
Q 1159 1113 1420 752 
Q 1681 391 2138 391 
Q 2594 391 2855 752 
Q 3116 1113 3116 1747 
z
M 1159 2969 
Q 1341 3281 1617 3432 
Q 1894 3584 2278 3584 
Q 2916 3584 3314 3078 
Q 3713 2572 3713 1747 
Q 3713 922 3314 415 
Q 2916 -91 2278 -91 
Q 1894 -91 1617 61 
Q 1341 213 1159 525 
L 1159 0 
L 581 0 
L 581 4863 
L 1159 4863 
L 1159 2969 
z
" transform="scale(0.015625)"/>
       <path id="DejaVuSans-72" d="M 2631 2963 
Q 2534 3019 2420 3045 
Q 2306 3072 2169 3072 
Q 1681 3072 1420 2755 
Q 1159 2438 1159 1844 
L 1159 0 
L 581 0 
L 581 3500 
L 1159 3500 
L 1159 2956 
Q 1341 3275 1631 3429 
Q 1922 3584 2338 3584 
Q 2397 3584 2469 3576 
Q 2541 3569 2628 3553 
L 2631 2963 
z
" transform="scale(0.015625)"/>
       <path id="DejaVuSans-20" transform="scale(0.015625)"/>
       <path id="DejaVuSans-6f" d="M 1959 3097 
Q 1497 3097 1228 2736 
Q 959 2375 959 1747 
Q 959 1119 1226 758 
Q 1494 397 1959 397 
Q 2419 397 2687 759 
Q 2956 1122 2956 1747 
Q 2956 2369 2687 2733 
Q 2419 3097 1959 3097 
z
M 1959 3584 
Q 2709 3584 3137 3096 
Q 3566 2609 3566 1747 
Q 3566 888 3137 398 
Q 2709 -91 1959 -91 
Q 1206 -91 779 398 
Q 353 888 353 1747 
Q 353 2609 779 3096 
Q 1206 3584 1959 3584 
z
" transform="scale(0.015625)"/>
       <path id="DejaVuSans-66" d="M 2375 4863 
L 2375 4384 
L 1825 4384 
Q 1516 4384 1395 4259 
Q 1275 4134 1275 3809 
L 1275 3500 
L 2222 3500 
L 2222 3053 
L 1275 3053 
L 1275 0 
L 697 0 
L 697 3053 
L 147 3053 
L 147 3500 
L 697 3500 
L 697 3744 
Q 697 4328 969 4595 
Q 1241 4863 1831 4863 
L 2375 4863 
z
" transform="scale(0.015625)"/>
       <path id="DejaVuSans-50" d="M 1259 4147 
L 1259 2394 
L 2053 2394 
Q 2494 2394 2734 2622 
Q 2975 2850 2975 3272 
Q 2975 3691 2734 3919 
Q 2494 4147 2053 4147 
L 1259 4147 
z
M 628 4666 
L 2053 4666 
Q 2838 4666 3239 4311 
Q 3641 3956 3641 3272 
Q 3641 2581 3239 2228 
Q 2838 1875 2053 1875 
L 1259 1875 
L 1259 0 
L 628 0 
L 628 4666 
z
" transform="scale(0.015625)"/>
       <path id="DejaVuSans-79" d="M 2059 -325 
Q 1816 -950 1584 -1140 
Q 1353 -1331 966 -1331 
L 506 -1331 
L 506 -850 
L 844 -850 
Q 1081 -850 1212 -737 
Q 1344 -625 1503 -206 
L 1606 56 
L 191 3500 
L 800 3500 
L 1894 763 
L 2988 3500 
L 3597 3500 
L 2059 -325 
z
" transform="scale(0.015625)"/>
       <path id="DejaVuSans-49" d="M 628 4666 
L 1259 4666 
L 1259 0 
L 628 0 
L 628 4666 
z
" transform="scale(0.015625)"/>
       <path id="DejaVuSans-44" d="M 1259 4147 
L 1259 519 
L 2022 519 
Q 2988 519 3436 956 
Q 3884 1394 3884 2338 
Q 3884 3275 3436 3711 
Q 2988 4147 2022 4147 
L 1259 4147 
z
M 628 4666 
L 1925 4666 
Q 3281 4666 3915 4102 
Q 4550 3538 4550 2338 
Q 4550 1131 3912 565 
Q 3275 0 1925 0 
L 628 0 
L 628 4666 
z
" transform="scale(0.015625)"/>
       <path id="DejaVuSans-77" d="M 269 3500 
L 844 3500 
L 1563 769 
L 2278 3500 
L 2956 3500 
L 3675 769 
L 4391 3500 
L 4966 3500 
L 4050 0 
L 3372 0 
L 2619 2869 
L 1863 0 
L 1184 0 
L 269 3500 
z
" transform="scale(0.015625)"/>
       <path id="DejaVuSans-6e" d="M 3513 2113 
L 3513 0 
L 2938 0 
L 2938 2094 
Q 2938 2591 2744 2837 
Q 2550 3084 2163 3084 
Q 1697 3084 1428 2787 
Q 1159 2491 1159 1978 
L 1159 0 
L 581 0 
L 581 3500 
L 1159 3500 
L 1159 2956 
Q 1366 3272 1645 3428 
Q 1925 3584 2291 3584 
Q 2894 3584 3203 3211 
Q 3513 2838 3513 2113 
z
" transform="scale(0.015625)"/>
       <path id="DejaVuSans-6c" d="M 603 4863 
L 1178 4863 
L 1178 0 
L 603 0 
L 603 4863 
z
" transform="scale(0.015625)"/>
       <path id="DejaVuSans-73" d="M 2834 3397 
L 2834 2853 
Q 2591 2978 2328 3040 
Q 2066 3103 1784 3103 
Q 1356 3103 1142 2972 
Q 928 2841 928 2578 
Q 928 2378 1081 2264 
Q 1234 2150 1697 2047 
L 1894 2003 
Q 2506 1872 2764 1633 
Q 3022 1394 3022 966 
Q 3022 478 2636 193 
Q 2250 -91 1575 -91 
Q 1294 -91 989 -36 
Q 684 19 347 128 
L 347 722 
Q 666 556 975 473 
Q 1284 391 1588 391 
Q 1994 391 2212 530 
Q 2431 669 2431 922 
Q 2431 1156 2273 1281 
Q 2116 1406 1581 1522 
L 1381 1569 
Q 847 1681 609 1914 
Q 372 2147 372 2553 
Q 372 3047 722 3315 
Q 1072 3584 1716 3584 
Q 2034 3584 2315 3537 
Q 2597 3491 2834 3397 
z
" transform="scale(0.015625)"/>
      </defs>
      <use xlink:href="#DejaVuSans-4e"/>
      <use xlink:href="#DejaVuSans-75" x="74.804688"/>
      <use xlink:href="#DejaVuSans-6d" x="138.183594"/>
      <use xlink:href="#DejaVuSans-62" x="235.595703"/>
      <use xlink:href="#DejaVuSans-65" x="299.072266"/>
      <use xlink:href="#DejaVuSans-72" x="360.595703"/>
      <use xlink:href="#DejaVuSans-20" x="401.708984"/>
      <use xlink:href="#DejaVuSans-6f" x="433.496094"/>
      <use xlink:href="#DejaVuSans-66" x="494.677734"/>
      <use xlink:href="#DejaVuSans-20" x="529.882812"/>
      <use xlink:href="#DejaVuSans-50" x="561.669922"/>
      <use xlink:href="#DejaVuSans-79" x="621.972656"/>
      <use xlink:href="#DejaVuSans-50" x="681.152344"/>
      <use xlink:href="#DejaVuSans-49" x="741.455078"/>
      <use xlink:href="#DejaVuSans-20" x="770.947266"/>
      <use xlink:href="#DejaVuSans-44" x="802.734375"/>
      <use xlink:href="#DejaVuSans-6f" x="879.736328"/>
      <use xlink:href="#DejaVuSans-77" x="940.917969"/>
      <use xlink:href="#DejaVuSans-6e" x="1022.705078"/>
      <use xlink:href="#DejaVuSans-6c" x="1086.083984"/>
      <use xlink:href="#DejaVuSans-6f" x="1113.867188"/>
      <use xlink:href="#DejaVuSans-61" x="1175.048828"/>
      <use xlink:href="#DejaVuSans-64" x="1236.328125"/>
      <use xlink:href="#DejaVuSans-73" x="1299.804688"/>
     </g>
    </g>
   </g>
  </g>
 </g>
 <defs>
  <clipPath id="p876addbde8">
   <rect x="90" y="17.28" width="558" height="110.88"/>
  </clipPath>
 </defs>
</svg>
