<?xml version="1.0" encoding="utf-8" standalone="no"?>
<!DOCTYPE svg PUBLIC "-//W3C//DTD SVG 1.1//EN"
  "http://www.w3.org/Graphics/SVG/1.1/DTD/svg11.dtd">
<svg xmlns:xlink="http://www.w3.org/1999/xlink" width="720pt" height="144pt" viewBox="0 0 720 144" xmlns="http://www.w3.org/2000/svg" version="1.1">
 <metadata>
  <rdf:RDF xmlns:dc="http://purl.org/dc/elements/1.1/" xmlns:cc="http://creativecommons.org/ns#" xmlns:rdf="http://www.w3.org/1999/02/22-rdf-syntax-ns#">
   <cc:Work>
    <dc:type rdf:resource="http://purl.org/dc/dcmitype/StillImage"/>
    <dc:date>2022-08-01T20:57:02.309907</dc:date>
    <dc:format>image/svg+xml</dc:format>
    <dc:creator>
     <cc:Agent>
      <dc:title>Matplotlib v3.5.2, https://matplotlib.org/</dc:title>
     </cc:Agent>
    </dc:creator>
   </cc:Work>
  </rdf:RDF>
 </metadata>
 <defs>
  <style type="text/css">*{stroke-linejoin: round; stroke-linecap: butt}</style>
 </defs>
 <g id="figure_1">
  <g id="patch_1">
   <path d="M 0 144 
L 720 144 
L 720 0 
L 0 0 
z
" style="fill: #ffffff"/>
  </g>
  <g id="axes_1">
   <g id="patch_2">
    <path d="M 90 128.16 
L 648 128.16 
L 648 17.28 
L 90 17.28 
z
" style="fill: #ffffff"/>
   </g>
   <g id="matplotlib.axis_1">
    <g id="xtick_1">
     <g id="line2d_1">
      <defs>
       <path id="m0ee149dc69" d="M 0 0 
L 0 3.5 
" style="stroke: #000000; stroke-width: 0.8"/>
      </defs>
      <g>
       <use xlink:href="#m0ee149dc69" x="115.363636" y="128.16" style="stroke: #000000; stroke-width: 0.8"/>
      </g>
     </g>
     <g id="text_1">
      <!-- 2020-06-18 -->
      <g transform="translate(86.305824 142.758438)scale(0.1 -0.1)">
       <defs>
        <path id="DejaVuSans-32" d="M 1228 531 
L 3431 531 
L 3431 0 
L 469 0 
L 469 531 
Q 828 903 1448 1529 
Q 2069 2156 2228 2338 
Q 2531 2678 2651 2914 
Q 2772 3150 2772 3378 
Q 2772 3750 2511 3984 
Q 2250 4219 1831 4219 
Q 1534 4219 1204 4116 
Q 875 4013 500 3803 
L 500 4441 
Q 881 4594 1212 4672 
Q 1544 4750 1819 4750 
Q 2544 4750 2975 4387 
Q 3406 4025 3406 3419 
Q 3406 3131 3298 2873 
Q 3191 2616 2906 2266 
Q 2828 2175 2409 1742 
Q 1991 1309 1228 531 
z
" transform="scale(0.015625)"/>
        <path id="DejaVuSans-30" d="M 2034 4250 
Q 1547 4250 1301 3770 
Q 1056 3291 1056 2328 
Q 1056 1369 1301 889 
Q 1547 409 2034 409 
Q 2525 409 2770 889 
Q 3016 1369 3016 2328 
Q 3016 3291 2770 3770 
Q 2525 4250 2034 4250 
z
M 2034 4750 
Q 2819 4750 3233 4129 
Q 3647 3509 3647 2328 
Q 3647 1150 3233 529 
Q 2819 -91 2034 -91 
Q 1250 -91 836 529 
Q 422 1150 422 2328 
Q 422 3509 836 4129 
Q 1250 4750 2034 4750 
z
" transform="scale(0.015625)"/>
        <path id="DejaVuSans-2d" d="M 313 2009 
L 1997 2009 
L 1997 1497 
L 313 1497 
L 313 2009 
z
" transform="scale(0.015625)"/>
        <path id="DejaVuSans-36" d="M 2113 2584 
Q 1688 2584 1439 2293 
Q 1191 2003 1191 1497 
Q 1191 994 1439 701 
Q 1688 409 2113 409 
Q 2538 409 2786 701 
Q 3034 994 3034 1497 
Q 3034 2003 2786 2293 
Q 2538 2584 2113 2584 
z
M 3366 4563 
L 3366 3988 
Q 3128 4100 2886 4159 
Q 2644 4219 2406 4219 
Q 1781 4219 1451 3797 
Q 1122 3375 1075 2522 
Q 1259 2794 1537 2939 
Q 1816 3084 2150 3084 
Q 2853 3084 3261 2657 
Q 3669 2231 3669 1497 
Q 3669 778 3244 343 
Q 2819 -91 2113 -91 
Q 1303 -91 875 529 
Q 447 1150 447 2328 
Q 447 3434 972 4092 
Q 1497 4750 2381 4750 
Q 2619 4750 2861 4703 
Q 3103 4656 3366 4563 
z
" transform="scale(0.015625)"/>
        <path id="DejaVuSans-31" d="M 794 531 
L 1825 531 
L 1825 4091 
L 703 3866 
L 703 4441 
L 1819 4666 
L 2450 4666 
L 2450 531 
L 3481 531 
L 3481 0 
L 794 0 
L 794 531 
z
" transform="scale(0.015625)"/>
        <path id="DejaVuSans-38" d="M 2034 2216 
Q 1584 2216 1326 1975 
Q 1069 1734 1069 1313 
Q 1069 891 1326 650 
Q 1584 409 2034 409 
Q 2484 409 2743 651 
Q 3003 894 3003 1313 
Q 3003 1734 2745 1975 
Q 2488 2216 2034 2216 
z
M 1403 2484 
Q 997 2584 770 2862 
Q 544 3141 544 3541 
Q 544 4100 942 4425 
Q 1341 4750 2034 4750 
Q 2731 4750 3128 4425 
Q 3525 4100 3525 3541 
Q 3525 3141 3298 2862 
Q 3072 2584 2669 2484 
Q 3125 2378 3379 2068 
Q 3634 1759 3634 1313 
Q 3634 634 3220 271 
Q 2806 -91 2034 -91 
Q 1263 -91 848 271 
Q 434 634 434 1313 
Q 434 1759 690 2068 
Q 947 2378 1403 2484 
z
M 1172 3481 
Q 1172 3119 1398 2916 
Q 1625 2713 2034 2713 
Q 2441 2713 2670 2916 
Q 2900 3119 2900 3481 
Q 2900 3844 2670 4047 
Q 2441 4250 2034 4250 
Q 1625 4250 1398 4047 
Q 1172 3844 1172 3481 
z
" transform="scale(0.015625)"/>
       </defs>
       <use xlink:href="#DejaVuSans-32"/>
       <use xlink:href="#DejaVuSans-30" x="63.623047"/>
       <use xlink:href="#DejaVuSans-32" x="127.246094"/>
       <use xlink:href="#DejaVuSans-30" x="190.869141"/>
       <use xlink:href="#DejaVuSans-2d" x="254.492188"/>
       <use xlink:href="#DejaVuSans-30" x="290.576172"/>
       <use xlink:href="#DejaVuSans-36" x="354.199219"/>
       <use xlink:href="#DejaVuSans-2d" x="417.822266"/>
       <use xlink:href="#DejaVuSans-31" x="453.90625"/>
       <use xlink:href="#DejaVuSans-38" x="517.529297"/>
      </g>
     </g>
    </g>
    <g id="xtick_2">
     <g id="line2d_2">
      <g>
       <use xlink:href="#m0ee149dc69" x="190.293138" y="128.16" style="stroke: #000000; stroke-width: 0.8"/>
      </g>
     </g>
     <g id="text_2">
      <!-- 2020-10-23 -->
      <g transform="translate(161.235326 142.758438)scale(0.1 -0.1)">
       <defs>
        <path id="DejaVuSans-33" d="M 2597 2516 
Q 3050 2419 3304 2112 
Q 3559 1806 3559 1356 
Q 3559 666 3084 287 
Q 2609 -91 1734 -91 
Q 1441 -91 1130 -33 
Q 819 25 488 141 
L 488 750 
Q 750 597 1062 519 
Q 1375 441 1716 441 
Q 2309 441 2620 675 
Q 2931 909 2931 1356 
Q 2931 1769 2642 2001 
Q 2353 2234 1838 2234 
L 1294 2234 
L 1294 2753 
L 1863 2753 
Q 2328 2753 2575 2939 
Q 2822 3125 2822 3475 
Q 2822 3834 2567 4026 
Q 2313 4219 1838 4219 
Q 1578 4219 1281 4162 
Q 984 4106 628 3988 
L 628 4550 
Q 988 4650 1302 4700 
Q 1616 4750 1894 4750 
Q 2613 4750 3031 4423 
Q 3450 4097 3450 3541 
Q 3450 3153 3228 2886 
Q 3006 2619 2597 2516 
z
" transform="scale(0.015625)"/>
       </defs>
       <use xlink:href="#DejaVuSans-32"/>
       <use xlink:href="#DejaVuSans-30" x="63.623047"/>
       <use xlink:href="#DejaVuSans-32" x="127.246094"/>
       <use xlink:href="#DejaVuSans-30" x="190.869141"/>
       <use xlink:href="#DejaVuSans-2d" x="254.492188"/>
       <use xlink:href="#DejaVuSans-31" x="290.576172"/>
       <use xlink:href="#DejaVuSans-30" x="354.199219"/>
       <use xlink:href="#DejaVuSans-2d" x="417.822266"/>
       <use xlink:href="#DejaVuSans-32" x="453.90625"/>
       <use xlink:href="#DejaVuSans-33" x="517.529297"/>
      </g>
     </g>
    </g>
    <g id="xtick_3">
     <g id="line2d_3">
      <g>
       <use xlink:href="#m0ee149dc69" x="265.22264" y="128.16" style="stroke: #000000; stroke-width: 0.8"/>
      </g>
     </g>
     <g id="text_3">
      <!-- 2021-03-13 -->
      <g transform="translate(236.164827 142.758438)scale(0.1 -0.1)">
       <use xlink:href="#DejaVuSans-32"/>
       <use xlink:href="#DejaVuSans-30" x="63.623047"/>
       <use xlink:href="#DejaVuSans-32" x="127.246094"/>
       <use xlink:href="#DejaVuSans-31" x="190.869141"/>
       <use xlink:href="#DejaVuSans-2d" x="254.492188"/>
       <use xlink:href="#DejaVuSans-30" x="290.576172"/>
       <use xlink:href="#DejaVuSans-33" x="354.199219"/>
       <use xlink:href="#DejaVuSans-2d" x="417.822266"/>
       <use xlink:href="#DejaVuSans-31" x="453.90625"/>
       <use xlink:href="#DejaVuSans-33" x="517.529297"/>
      </g>
     </g>
    </g>
    <g id="xtick_4">
     <g id="line2d_4">
      <g>
       <use xlink:href="#m0ee149dc69" x="340.152142" y="128.16" style="stroke: #000000; stroke-width: 0.8"/>
      </g>
     </g>
     <g id="text_4">
      <!-- 2021-07-01 -->
      <g transform="translate(311.094329 142.758438)scale(0.1 -0.1)">
       <defs>
        <path id="DejaVuSans-37" d="M 525 4666 
L 3525 4666 
L 3525 4397 
L 1831 0 
L 1172 0 
L 2766 4134 
L 525 4134 
L 525 4666 
z
" transform="scale(0.015625)"/>
       </defs>
       <use xlink:href="#DejaVuSans-32"/>
       <use xlink:href="#DejaVuSans-30" x="63.623047"/>
       <use xlink:href="#DejaVuSans-32" x="127.246094"/>
       <use xlink:href="#DejaVuSans-31" x="190.869141"/>
       <use xlink:href="#DejaVuSans-2d" x="254.492188"/>
       <use xlink:href="#DejaVuSans-30" x="290.576172"/>
       <use xlink:href="#DejaVuSans-37" x="354.199219"/>
       <use xlink:href="#DejaVuSans-2d" x="417.822266"/>
       <use xlink:href="#DejaVuSans-30" x="453.90625"/>
       <use xlink:href="#DejaVuSans-31" x="517.529297"/>
      </g>
     </g>
    </g>
    <g id="xtick_5">
     <g id="line2d_5">
      <g>
       <use xlink:href="#m0ee149dc69" x="415.081644" y="128.16" style="stroke: #000000; stroke-width: 0.8"/>
      </g>
     </g>
     <g id="text_5">
      <!-- 2021-10-16 -->
      <g transform="translate(386.023831 142.758438)scale(0.1 -0.1)">
       <use xlink:href="#DejaVuSans-32"/>
       <use xlink:href="#DejaVuSans-30" x="63.623047"/>
       <use xlink:href="#DejaVuSans-32" x="127.246094"/>
       <use xlink:href="#DejaVuSans-31" x="190.869141"/>
       <use xlink:href="#DejaVuSans-2d" x="254.492188"/>
       <use xlink:href="#DejaVuSans-31" x="290.576172"/>
       <use xlink:href="#DejaVuSans-30" x="354.199219"/>
       <use xlink:href="#DejaVuSans-2d" x="417.822266"/>
       <use xlink:href="#DejaVuSans-31" x="453.90625"/>
       <use xlink:href="#DejaVuSans-36" x="517.529297"/>
      </g>
     </g>
    </g>
    <g id="xtick_6">
     <g id="line2d_6">
      <g>
       <use xlink:href="#m0ee149dc69" x="490.011145" y="128.16" style="stroke: #000000; stroke-width: 0.8"/>
      </g>
     </g>
     <g id="text_6">
      <!-- 2022-01-27 -->
      <g transform="translate(460.953333 142.758438)scale(0.1 -0.1)">
       <use xlink:href="#DejaVuSans-32"/>
       <use xlink:href="#DejaVuSans-30" x="63.623047"/>
       <use xlink:href="#DejaVuSans-32" x="127.246094"/>
       <use xlink:href="#DejaVuSans-32" x="190.869141"/>
       <use xlink:href="#DejaVuSans-2d" x="254.492188"/>
       <use xlink:href="#DejaVuSans-30" x="290.576172"/>
       <use xlink:href="#DejaVuSans-31" x="354.199219"/>
       <use xlink:href="#DejaVuSans-2d" x="417.822266"/>
       <use xlink:href="#DejaVuSans-32" x="453.90625"/>
       <use xlink:href="#DejaVuSans-37" x="517.529297"/>
      </g>
     </g>
    </g>
    <g id="xtick_7">
     <g id="line2d_7">
      <g>
       <use xlink:href="#m0ee149dc69" x="564.940647" y="128.16" style="stroke: #000000; stroke-width: 0.8"/>
      </g>
     </g>
     <g id="text_7">
      <!-- 2022-05-12 -->
      <g transform="translate(535.882835 142.758438)scale(0.1 -0.1)">
       <defs>
        <path id="DejaVuSans-35" d="M 691 4666 
L 3169 4666 
L 3169 4134 
L 1269 4134 
L 1269 2991 
Q 1406 3038 1543 3061 
Q 1681 3084 1819 3084 
Q 2600 3084 3056 2656 
Q 3513 2228 3513 1497 
Q 3513 744 3044 326 
Q 2575 -91 1722 -91 
Q 1428 -91 1123 -41 
Q 819 9 494 109 
L 494 744 
Q 775 591 1075 516 
Q 1375 441 1709 441 
Q 2250 441 2565 725 
Q 2881 1009 2881 1497 
Q 2881 1984 2565 2268 
Q 2250 2553 1709 2553 
Q 1456 2553 1204 2497 
Q 953 2441 691 2322 
L 691 4666 
z
" transform="scale(0.015625)"/>
       </defs>
       <use xlink:href="#DejaVuSans-32"/>
       <use xlink:href="#DejaVuSans-30" x="63.623047"/>
       <use xlink:href="#DejaVuSans-32" x="127.246094"/>
       <use xlink:href="#DejaVuSans-32" x="190.869141"/>
       <use xlink:href="#DejaVuSans-2d" x="254.492188"/>
       <use xlink:href="#DejaVuSans-30" x="290.576172"/>
       <use xlink:href="#DejaVuSans-35" x="354.199219"/>
       <use xlink:href="#DejaVuSans-2d" x="417.822266"/>
       <use xlink:href="#DejaVuSans-31" x="453.90625"/>
       <use xlink:href="#DejaVuSans-32" x="517.529297"/>
      </g>
     </g>
    </g>
    <g id="xtick_8">
     <g id="line2d_8">
      <g>
       <use xlink:href="#m0ee149dc69" x="639.870149" y="128.16" style="stroke: #000000; stroke-width: 0.8"/>
      </g>
     </g>
    </g>
    <g id="text_8">
     <!-- date -->
     <g transform="translate(357.725 156.436563)scale(0.1 -0.1)">
      <defs>
       <path id="DejaVuSans-64" d="M 2906 2969 
L 2906 4863 
L 3481 4863 
L 3481 0 
L 2906 0 
L 2906 525 
Q 2725 213 2448 61 
Q 2172 -91 1784 -91 
Q 1150 -91 751 415 
Q 353 922 353 1747 
Q 353 2572 751 3078 
Q 1150 3584 1784 3584 
Q 2172 3584 2448 3432 
Q 2725 3281 2906 2969 
z
M 947 1747 
Q 947 1113 1208 752 
Q 1469 391 1925 391 
Q 2381 391 2643 752 
Q 2906 1113 2906 1747 
Q 2906 2381 2643 2742 
Q 2381 3103 1925 3103 
Q 1469 3103 1208 2742 
Q 947 2381 947 1747 
z
" transform="scale(0.015625)"/>
       <path id="DejaVuSans-61" d="M 2194 1759 
Q 1497 1759 1228 1600 
Q 959 1441 959 1056 
Q 959 750 1161 570 
Q 1363 391 1709 391 
Q 2188 391 2477 730 
Q 2766 1069 2766 1631 
L 2766 1759 
L 2194 1759 
z
M 3341 1997 
L 3341 0 
L 2766 0 
L 2766 531 
Q 2569 213 2275 61 
Q 1981 -91 1556 -91 
Q 1019 -91 701 211 
Q 384 513 384 1019 
Q 384 1609 779 1909 
Q 1175 2209 1959 2209 
L 2766 2209 
L 2766 2266 
Q 2766 2663 2505 2880 
Q 2244 3097 1772 3097 
Q 1472 3097 1187 3025 
Q 903 2953 641 2809 
L 641 3341 
Q 956 3463 1253 3523 
Q 1550 3584 1831 3584 
Q 2591 3584 2966 3190 
Q 3341 2797 3341 1997 
z
" transform="scale(0.015625)"/>
       <path id="DejaVuSans-74" d="M 1172 4494 
L 1172 3500 
L 2356 3500 
L 2356 3053 
L 1172 3053 
L 1172 1153 
Q 1172 725 1289 603 
Q 1406 481 1766 481 
L 2356 481 
L 2356 0 
L 1766 0 
Q 1100 0 847 248 
Q 594 497 594 1153 
L 594 3053 
L 172 3053 
L 172 3500 
L 594 3500 
L 594 4494 
L 1172 4494 
z
" transform="scale(0.015625)"/>
       <path id="DejaVuSans-65" d="M 3597 1894 
L 3597 1613 
L 953 1613 
Q 991 1019 1311 708 
Q 1631 397 2203 397 
Q 2534 397 2845 478 
Q 3156 559 3463 722 
L 3463 178 
Q 3153 47 2828 -22 
Q 2503 -91 2169 -91 
Q 1331 -91 842 396 
Q 353 884 353 1716 
Q 353 2575 817 3079 
Q 1281 3584 2069 3584 
Q 2775 3584 3186 3129 
Q 3597 2675 3597 1894 
z
M 3022 2063 
Q 3016 2534 2758 2815 
Q 2500 3097 2075 3097 
Q 1594 3097 1305 2825 
Q 1016 2553 972 2059 
L 3022 2063 
z
" transform="scale(0.015625)"/>
      </defs>
      <use xlink:href="#DejaVuSans-64"/>
      <use xlink:href="#DejaVuSans-61" x="63.476562"/>
      <use xlink:href="#DejaVuSans-74" x="124.755859"/>
      <use xlink:href="#DejaVuSans-65" x="163.964844"/>
     </g>
    </g>
   </g>
   <g id="matplotlib.axis_2">
    <g id="ytick_1">
     <g id="line2d_9">
      <defs>
       <path id="mf16c774d1b" d="M 0 0 
L -3.5 0 
" style="stroke: #000000; stroke-width: 0.8"/>
      </defs>
      <g>
       <use xlink:href="#mf16c774d1b" x="90" y="124.292093" style="stroke: #000000; stroke-width: 0.8"/>
      </g>
     </g>
     <g id="text_9">
      <!-- 0 -->
      <g transform="translate(76.6375 128.091312)scale(0.1 -0.1)">
       <use xlink:href="#DejaVuSans-30"/>
      </g>
     </g>
    </g>
    <g id="ytick_2">
     <g id="line2d_10">
      <g>
       <use xlink:href="#mf16c774d1b" x="90" y="100.850233" style="stroke: #000000; stroke-width: 0.8"/>
      </g>
     </g>
     <g id="text_10">
      <!-- 20 -->
      <g transform="translate(70.275 104.649451)scale(0.1 -0.1)">
       <use xlink:href="#DejaVuSans-32"/>
       <use xlink:href="#DejaVuSans-30" x="63.623047"/>
      </g>
     </g>
    </g>
    <g id="ytick_3">
     <g id="line2d_11">
      <g>
       <use xlink:href="#mf16c774d1b" x="90" y="77.408372" style="stroke: #000000; stroke-width: 0.8"/>
      </g>
     </g>
     <g id="text_11">
      <!-- 40 -->
      <g transform="translate(70.275 81.207591)scale(0.1 -0.1)">
       <defs>
        <path id="DejaVuSans-34" d="M 2419 4116 
L 825 1625 
L 2419 1625 
L 2419 4116 
z
M 2253 4666 
L 3047 4666 
L 3047 1625 
L 3713 1625 
L 3713 1100 
L 3047 1100 
L 3047 0 
L 2419 0 
L 2419 1100 
L 313 1100 
L 313 1709 
L 2253 4666 
z
" transform="scale(0.015625)"/>
       </defs>
       <use xlink:href="#DejaVuSans-34"/>
       <use xlink:href="#DejaVuSans-30" x="63.623047"/>
      </g>
     </g>
    </g>
    <g id="ytick_4">
     <g id="line2d_12">
      <g>
       <use xlink:href="#mf16c774d1b" x="90" y="53.966512" style="stroke: #000000; stroke-width: 0.8"/>
      </g>
     </g>
     <g id="text_12">
      <!-- 60 -->
      <g transform="translate(70.275 57.76573)scale(0.1 -0.1)">
       <use xlink:href="#DejaVuSans-36"/>
       <use xlink:href="#DejaVuSans-30" x="63.623047"/>
      </g>
     </g>
    </g>
    <g id="ytick_5">
     <g id="line2d_13">
      <g>
       <use xlink:href="#mf16c774d1b" x="90" y="30.524651" style="stroke: #000000; stroke-width: 0.8"/>
      </g>
     </g>
     <g id="text_13">
      <!-- 80 -->
      <g transform="translate(70.275 34.32387)scale(0.1 -0.1)">
       <use xlink:href="#DejaVuSans-38"/>
       <use xlink:href="#DejaVuSans-30" x="63.623047"/>
      </g>
     </g>
    </g>
   </g>
   <g id="line2d_14">
    <path d="M 115.363636 98.506047 
L 116.112931 107.882791 
L 116.862226 119.603721 
L 119.110111 123.12 
L 119.859406 120.775814 
L 120.608701 114.915349 
L 121.357997 121.947907 
L 122.107292 120.775814 
L 122.856587 121.947907 
L 123.605882 96.16186 
L 124.355177 116.087442 
L 125.104472 120.775814 
L 125.853767 114.915349 
L 126.603062 121.947907 
L 127.352357 117.259535 
L 128.101652 116.087442 
L 128.850947 123.12 
L 129.600242 120.775814 
L 130.349537 112.571163 
L 131.098832 114.915349 
L 131.848127 119.603721 
L 132.597422 120.775814 
L 133.346717 120.775814 
L 134.845307 123.12 
L 135.594602 113.743256 
L 136.343897 64.515349 
L 137.093192 117.259535 
L 137.842487 120.775814 
L 138.591782 120.775814 
L 139.341077 118.431628 
L 140.090372 121.947907 
L 140.839667 119.603721 
L 141.588962 123.12 
L 142.338257 120.775814 
L 143.087552 120.775814 
L 143.836847 123.12 
L 144.586142 121.947907 
L 145.335437 119.603721 
L 146.084732 119.603721 
L 146.834027 117.259535 
L 147.583322 123.12 
L 148.332617 123.12 
L 149.081912 121.947907 
L 149.831207 121.947907 
L 150.580502 123.12 
L 151.329797 123.12 
L 152.079092 105.538605 
L 152.828387 118.431628 
L 153.577682 116.087442 
L 154.326977 121.947907 
L 155.076272 118.431628 
L 155.825567 116.087442 
L 156.574862 118.431628 
L 157.324157 123.12 
L 158.073452 121.947907 
L 158.822747 118.431628 
L 159.572042 123.12 
L 161.070632 120.775814 
L 161.819927 116.087442 
L 163.318518 123.12 
L 164.067813 119.603721 
L 164.817108 118.431628 
L 165.566403 123.12 
L 166.315698 119.603721 
L 167.064993 123.12 
L 167.814288 121.947907 
L 168.563583 118.431628 
L 169.312878 123.12 
L 170.062173 121.947907 
L 170.811468 121.947907 
L 171.560763 123.12 
L 172.310058 118.431628 
L 173.059353 123.12 
L 173.808648 120.775814 
L 175.307238 120.775814 
L 176.056533 119.603721 
L 176.805828 117.259535 
L 177.555123 120.775814 
L 178.304418 117.259535 
L 179.053713 123.12 
L 180.552303 120.775814 
L 181.301598 118.431628 
L 182.050893 121.947907 
L 182.800188 123.12 
L 183.549483 121.947907 
L 184.298778 119.603721 
L 185.048073 120.775814 
L 185.797368 123.12 
L 186.546663 107.882791 
L 187.295958 123.12 
L 188.045253 120.775814 
L 188.794548 119.603721 
L 189.543843 123.12 
L 190.293138 119.603721 
L 191.042433 114.915349 
L 191.791728 120.775814 
L 192.541023 123.12 
L 193.290318 123.12 
L 194.039613 121.947907 
L 194.788908 123.12 
L 195.538203 123.12 
L 196.287498 121.947907 
L 197.036793 121.947907 
L 197.786088 120.775814 
L 198.535383 121.947907 
L 200.783268 118.431628 
L 201.532563 120.775814 
L 202.281858 120.775814 
L 203.780449 118.431628 
L 204.529744 121.947907 
L 205.279039 123.12 
L 206.028334 116.087442 
L 206.777629 121.947907 
L 207.526924 121.947907 
L 208.276219 114.915349 
L 209.025514 120.775814 
L 209.774809 120.775814 
L 210.524104 94.989767 
L 211.273399 118.431628 
L 212.022694 120.775814 
L 212.771989 116.087442 
L 213.521284 121.947907 
L 214.270579 117.259535 
L 215.019874 121.947907 
L 215.769169 114.915349 
L 216.518464 118.431628 
L 217.267759 123.12 
L 218.017054 121.947907 
L 218.766349 109.054884 
L 219.515644 118.431628 
L 220.264939 121.947907 
L 221.014234 123.12 
L 221.763529 123.12 
L 222.512824 114.915349 
L 223.262119 123.12 
L 224.011414 123.12 
L 224.760709 119.603721 
L 225.510004 123.12 
L 226.259299 123.12 
L 227.757889 118.431628 
L 228.507184 123.12 
L 229.256479 120.775814 
L 230.755069 123.12 
L 231.504364 118.431628 
L 232.253659 123.12 
L 233.002954 123.12 
L 233.752249 121.947907 
L 234.501544 123.12 
L 235.250839 123.12 
L 236.000134 118.431628 
L 237.498724 123.12 
L 238.997314 120.775814 
L 239.746609 120.775814 
L 240.495904 121.947907 
L 241.245199 119.603721 
L 241.994494 121.947907 
L 242.743789 123.12 
L 244.242379 123.12 
L 244.991674 118.431628 
L 245.74097 123.12 
L 246.490265 121.947907 
L 247.23956 123.12 
L 247.988855 118.431628 
L 248.73815 120.775814 
L 249.487445 121.947907 
L 250.23674 121.947907 
L 250.986035 119.603721 
L 251.73533 121.947907 
L 252.484625 120.775814 
L 253.23392 120.775814 
L 253.983215 121.947907 
L 254.73251 121.947907 
L 255.481805 123.12 
L 256.2311 116.087442 
L 256.980395 121.947907 
L 257.72969 121.947907 
L 258.478985 123.12 
L 259.22828 121.947907 
L 259.977575 123.12 
L 260.72687 123.12 
L 262.22546 120.775814 
L 262.974755 111.39907 
L 263.72405 89.129302 
L 264.473345 114.915349 
L 265.22264 123.12 
L 265.971935 121.947907 
L 266.72123 116.087442 
L 267.470525 118.431628 
L 268.21982 117.259535 
L 268.969115 107.882791 
L 269.71841 123.12 
L 270.467705 121.947907 
L 271.217 119.603721 
L 271.966295 116.087442 
L 272.71559 111.39907 
L 273.464885 97.333953 
L 274.21418 106.710698 
L 274.963475 121.947907 
L 275.71277 84.44093 
L 276.462065 105.538605 
L 277.21136 114.915349 
L 277.960655 107.882791 
L 278.70995 118.431628 
L 279.459245 107.882791 
L 280.20854 109.054884 
L 280.957835 106.710698 
L 281.70713 97.333953 
L 282.456425 120.775814 
L 283.20572 116.087442 
L 283.955015 120.775814 
L 284.70431 123.12 
L 285.453605 118.431628 
L 286.2029 123.12 
L 286.952196 120.775814 
L 287.701491 123.12 
L 288.450786 121.947907 
L 289.200081 107.882791 
L 289.949376 120.775814 
L 290.698671 117.259535 
L 291.447966 119.603721 
L 292.197261 118.431628 
L 292.946556 123.12 
L 293.695851 116.087442 
L 294.445146 118.431628 
L 295.194441 121.947907 
L 295.943736 117.259535 
L 296.693031 123.12 
L 297.442326 120.775814 
L 298.191621 123.12 
L 298.940916 119.603721 
L 299.690211 121.947907 
L 300.439506 119.603721 
L 301.188801 118.431628 
L 301.938096 121.947907 
L 303.436686 121.947907 
L 304.185981 119.603721 
L 304.935276 118.431628 
L 305.684571 98.506047 
L 306.433866 100.850233 
L 307.183161 120.775814 
L 307.932456 121.947907 
L 308.681751 117.259535 
L 309.431046 118.431628 
L 310.180341 116.087442 
L 310.929636 121.947907 
L 311.678931 123.12 
L 312.428226 117.259535 
L 313.177521 116.087442 
L 313.926816 112.571163 
L 314.676111 121.947907 
L 315.425406 118.431628 
L 316.174701 121.947907 
L 316.923996 121.947907 
L 317.673291 123.12 
L 319.171881 118.431628 
L 320.670471 123.12 
L 321.419766 120.775814 
L 322.169061 121.947907 
L 322.918356 116.087442 
L 323.667651 113.743256 
L 324.416946 116.087442 
L 325.166241 117.259535 
L 325.915536 114.915349 
L 326.664831 105.538605 
L 327.414126 117.259535 
L 328.163422 119.603721 
L 328.912717 118.431628 
L 329.662012 114.915349 
L 330.411307 106.710698 
L 331.160602 121.947907 
L 331.909897 120.775814 
L 332.659192 123.12 
L 333.408487 113.743256 
L 334.157782 114.915349 
L 334.907077 119.603721 
L 335.656372 112.571163 
L 336.405667 110.226977 
L 337.154962 121.947907 
L 337.904257 121.947907 
L 338.653552 112.571163 
L 339.402847 91.473488 
L 340.152142 107.882791 
L 340.901437 117.259535 
L 341.650732 118.431628 
L 342.400027 118.431628 
L 343.898617 120.775814 
L 344.647912 117.259535 
L 345.397207 117.259535 
L 346.146502 121.947907 
L 346.895797 121.947907 
L 347.645092 120.775814 
L 348.394387 121.947907 
L 349.143682 114.915349 
L 349.892977 114.915349 
L 350.642272 117.259535 
L 351.391567 113.743256 
L 352.140862 105.538605 
L 352.890157 114.915349 
L 353.639452 114.915349 
L 354.388747 120.775814 
L 355.138042 120.775814 
L 355.887337 116.087442 
L 356.636632 123.12 
L 357.385927 103.194419 
L 358.135222 100.850233 
L 358.884517 117.259535 
L 359.633812 118.431628 
L 360.383107 107.882791 
L 361.132402 113.743256 
L 361.881697 120.775814 
L 362.630992 118.431628 
L 363.380287 123.12 
L 364.129582 113.743256 
L 364.878877 98.506047 
L 365.628172 121.947907 
L 366.377467 120.775814 
L 367.876057 123.12 
L 368.625352 119.603721 
L 369.374648 100.850233 
L 370.123943 114.915349 
L 370.873238 121.947907 
L 371.622533 121.947907 
L 372.371828 105.538605 
L 373.121123 120.775814 
L 373.870418 121.947907 
L 374.619713 120.775814 
L 377.616893 120.775814 
L 378.366188 118.431628 
L 379.115483 123.12 
L 379.864778 121.947907 
L 380.614073 121.947907 
L 381.363368 123.12 
L 382.112663 123.12 
L 382.861958 121.947907 
L 383.611253 123.12 
L 384.360548 117.259535 
L 385.109843 121.947907 
L 385.859138 118.431628 
L 386.608433 118.431628 
L 387.357728 116.087442 
L 388.107023 118.431628 
L 388.856318 123.12 
L 389.605613 120.775814 
L 391.104203 120.775814 
L 391.853498 123.12 
L 392.602793 121.947907 
L 393.352088 121.947907 
L 394.101383 119.603721 
L 394.850678 121.947907 
L 397.098563 121.947907 
L 397.847858 82.096744 
L 398.597153 118.431628 
L 399.346448 123.12 
L 400.095743 121.947907 
L 400.845038 119.603721 
L 401.594333 123.12 
L 402.343628 118.431628 
L 403.092923 121.947907 
L 403.842218 117.259535 
L 404.591513 116.087442 
L 405.340808 116.087442 
L 406.090103 114.915349 
L 406.839398 100.850233 
L 407.588693 100.850233 
L 408.337988 116.087442 
L 409.087283 119.603721 
L 409.836578 121.947907 
L 410.585874 104.366512 
L 411.335169 118.431628 
L 412.084464 121.947907 
L 412.833759 121.947907 
L 413.583054 120.775814 
L 414.332349 120.775814 
L 415.081644 121.947907 
L 415.830939 121.947907 
L 416.580234 118.431628 
L 417.329529 123.12 
L 418.078824 121.947907 
L 418.828119 118.431628 
L 419.577414 118.431628 
L 420.326709 120.775814 
L 421.825299 100.850233 
L 422.574594 113.743256 
L 423.323889 112.571163 
L 424.073184 105.538605 
L 424.822479 110.226977 
L 426.321069 112.571163 
L 427.070364 111.39907 
L 427.819659 104.366512 
L 428.568954 107.882791 
L 429.318249 118.431628 
L 430.067544 119.603721 
L 430.816839 117.259535 
L 431.566134 117.259535 
L 432.315429 113.743256 
L 433.064724 116.087442 
L 433.814019 109.054884 
L 434.563314 114.915349 
L 435.312609 116.087442 
L 436.061904 111.39907 
L 436.811199 100.850233 
L 437.560494 111.39907 
L 438.309789 116.087442 
L 439.808379 111.39907 
L 440.557674 116.087442 
L 441.306969 107.882791 
L 442.056264 111.39907 
L 442.805559 116.087442 
L 443.554854 116.087442 
L 444.304149 120.775814 
L 445.053444 107.882791 
L 445.802739 120.775814 
L 446.552034 118.431628 
L 447.301329 119.603721 
L 448.050624 114.915349 
L 448.799919 113.743256 
L 449.549214 94.989767 
L 450.298509 91.473488 
L 451.047804 112.571163 
L 451.7971 80.924651 
L 452.546395 120.775814 
L 453.29569 118.431628 
L 454.044985 120.775814 
L 454.79428 90.301395 
L 455.543575 91.473488 
L 457.042165 121.947907 
L 457.79146 118.431628 
L 458.540755 109.054884 
L 459.29005 118.431628 
L 460.039345 118.431628 
L 460.78864 91.473488 
L 461.537935 111.39907 
L 462.28723 114.915349 
L 463.78582 117.259535 
L 464.535115 117.259535 
L 465.28441 114.915349 
L 467.532295 121.947907 
L 468.28159 113.743256 
L 469.030885 121.947907 
L 469.78018 121.947907 
L 471.27877 119.603721 
L 472.028065 123.12 
L 472.77736 119.603721 
L 473.526655 117.259535 
L 474.27595 120.775814 
L 475.025245 121.947907 
L 475.77454 121.947907 
L 476.523835 113.743256 
L 477.27313 123.12 
L 478.022425 97.333953 
L 478.77172 120.775814 
L 479.521015 121.947907 
L 480.27031 118.431628 
L 481.019605 118.431628 
L 481.7689 119.603721 
L 482.518195 121.947907 
L 483.26749 114.915349 
L 484.016785 120.775814 
L 484.76608 118.431628 
L 485.515375 119.603721 
L 486.26467 96.16186 
L 487.013965 120.775814 
L 487.76326 117.259535 
L 488.512555 123.12 
L 489.26185 123.12 
L 490.011145 121.947907 
L 490.76044 113.743256 
L 491.509735 121.947907 
L 492.25903 114.915349 
L 493.008326 118.431628 
L 493.757621 123.12 
L 494.506916 118.431628 
L 496.005506 118.431628 
L 496.754801 114.915349 
L 497.504096 112.571163 
L 498.253391 119.603721 
L 499.002686 119.603721 
L 499.751981 118.431628 
L 500.501276 120.775814 
L 501.250571 120.775814 
L 501.999866 118.431628 
L 502.749161 114.915349 
L 503.498456 114.915349 
L 504.247751 117.259535 
L 504.997046 121.947907 
L 506.495636 121.947907 
L 507.244931 100.850233 
L 507.994226 51.622326 
L 508.743521 75.064186 
L 509.492816 117.259535 
L 510.242111 120.775814 
L 510.991406 118.431628 
L 512.489996 102.022326 
L 513.239291 116.087442 
L 513.988586 96.16186 
L 514.737881 70.375814 
L 515.487176 118.431628 
L 516.236471 69.203721 
L 516.985766 109.054884 
L 517.735061 121.947907 
L 518.484356 55.138605 
L 519.233651 92.645581 
L 519.982946 105.538605 
L 520.732241 48.106047 
L 521.481536 117.259535 
L 522.230831 118.431628 
L 522.980126 91.473488 
L 523.729421 107.882791 
L 524.478716 87.957209 
L 525.228011 107.882791 
L 525.977306 119.603721 
L 526.726601 22.32 
L 527.475896 117.259535 
L 528.225191 118.431628 
L 528.974486 118.431628 
L 529.723781 110.226977 
L 530.473076 116.087442 
L 531.222371 99.67814 
L 531.971666 116.087442 
L 532.720961 119.603721 
L 533.470256 92.645581 
L 534.219551 92.645581 
L 534.968847 110.226977 
L 535.718142 89.129302 
L 536.467437 117.259535 
L 537.216732 118.431628 
L 537.966027 92.645581 
L 538.715322 123.12 
L 539.464617 120.775814 
L 540.213912 119.603721 
L 540.963207 117.259535 
L 541.712502 120.775814 
L 542.461797 119.603721 
L 543.211092 117.259535 
L 543.960387 111.39907 
L 544.709682 114.915349 
L 545.458977 104.366512 
L 546.957567 121.947907 
L 547.706862 123.12 
L 548.456157 113.743256 
L 549.954747 120.775814 
L 550.704042 123.12 
L 551.453337 117.259535 
L 552.202632 121.947907 
L 552.951927 117.259535 
L 553.701222 123.12 
L 555.199812 120.775814 
L 555.949107 123.12 
L 556.698402 123.12 
L 557.447697 120.775814 
L 558.946287 118.431628 
L 559.695582 118.431628 
L 560.444877 119.603721 
L 561.194172 119.603721 
L 561.943467 123.12 
L 562.692762 120.775814 
L 563.442057 83.268837 
L 564.191352 119.603721 
L 564.940647 121.947907 
L 566.439237 121.947907 
L 567.188532 116.087442 
L 567.937827 117.259535 
L 568.687122 104.366512 
L 569.436417 120.775814 
L 570.185712 114.915349 
L 570.935007 121.947907 
L 571.684302 123.12 
L 572.433597 119.603721 
L 573.182892 120.775814 
L 573.932187 114.915349 
L 574.681482 117.259535 
L 575.430777 120.775814 
L 576.180073 121.947907 
L 576.929368 120.775814 
L 577.678663 116.087442 
L 578.427958 118.431628 
L 579.177253 117.259535 
L 579.926548 119.603721 
L 580.675843 113.743256 
L 581.425138 116.087442 
L 582.174433 123.12 
L 582.923728 117.259535 
L 583.673023 118.431628 
L 584.422318 105.538605 
L 585.171613 121.947907 
L 585.920908 117.259535 
L 586.670203 117.259535 
L 587.419498 118.431628 
L 588.168793 106.710698 
L 588.918088 87.957209 
L 589.667383 118.431628 
L 590.416678 121.947907 
L 591.165973 114.915349 
L 591.915268 120.775814 
L 592.664563 119.603721 
L 593.413858 119.603721 
L 594.163153 123.12 
L 595.661743 120.775814 
L 596.411038 118.431628 
L 597.160333 121.947907 
L 597.909628 118.431628 
L 598.658923 121.947907 
L 599.408218 118.431628 
L 600.157513 123.12 
L 600.906808 118.431628 
L 601.656103 120.775814 
L 602.405398 120.775814 
L 603.154693 118.431628 
L 603.903988 123.12 
L 604.653283 118.431628 
L 605.402578 120.775814 
L 606.151873 113.743256 
L 606.901168 121.947907 
L 607.650463 112.571163 
L 608.399758 87.957209 
L 609.149053 121.947907 
L 609.898348 123.12 
L 610.647643 120.775814 
L 611.396938 114.915349 
L 612.146233 120.775814 
L 613.644823 123.12 
L 614.394118 113.743256 
L 615.143413 120.775814 
L 615.892708 119.603721 
L 616.642003 109.054884 
L 617.391299 100.850233 
L 618.140594 116.087442 
L 618.889889 120.775814 
L 619.639184 120.775814 
L 620.388479 114.915349 
L 621.137774 75.064186 
L 621.887069 104.366512 
L 622.636364 114.915349 
L 622.636364 114.915349 
" clip-path="url(#pc59b73d459)" style="fill: none; stroke: #1f77b4; stroke-width: 1.5; stroke-linecap: square"/>
   </g>
   <g id="patch_3">
    <path d="M 90 128.16 
L 90 17.28 
" style="fill: none; stroke: #000000; stroke-width: 0.8; stroke-linejoin: miter; stroke-linecap: square"/>
   </g>
   <g id="patch_4">
    <path d="M 648 128.16 
L 648 17.28 
" style="fill: none; stroke: #000000; stroke-width: 0.8; stroke-linejoin: miter; stroke-linecap: square"/>
   </g>
   <g id="patch_5">
    <path d="M 90 128.16 
L 648 128.16 
" style="fill: none; stroke: #000000; stroke-width: 0.8; stroke-linejoin: miter; stroke-linecap: square"/>
   </g>
   <g id="patch_6">
    <path d="M 90 17.28 
L 648 17.28 
" style="fill: none; stroke: #000000; stroke-width: 0.8; stroke-linejoin: miter; stroke-linecap: square"/>
   </g>
   <g id="legend_1">
    <g id="patch_7">
     <path d="M 97 39.958125 
L 264.190625 39.958125 
Q 266.190625 39.958125 266.190625 37.958125 
L 266.190625 24.28 
Q 266.190625 22.28 264.190625 22.28 
L 97 22.28 
Q 95 22.28 95 24.28 
L 95 37.958125 
Q 95 39.958125 97 39.958125 
z
" style="fill: #ffffff; opacity: 0.8; stroke: #cccccc; stroke-linejoin: miter"/>
    </g>
    <g id="line2d_15">
     <path d="M 99 30.378437 
L 109 30.378437 
L 119 30.378437 
" style="fill: none; stroke: #1f77b4; stroke-width: 1.5; stroke-linecap: square"/>
    </g>
    <g id="text_14">
     <!-- Number of PyPI Downloads -->
     <g transform="translate(127 33.878437)scale(0.1 -0.1)">
      <defs>
       <path id="DejaVuSans-4e" d="M 628 4666 
L 1478 4666 
L 3547 763 
L 3547 4666 
L 4159 4666 
L 4159 0 
L 3309 0 
L 1241 3903 
L 1241 0 
L 628 0 
L 628 4666 
z
" transform="scale(0.015625)"/>
       <path id="DejaVuSans-75" d="M 544 1381 
L 544 3500 
L 1119 3500 
L 1119 1403 
Q 1119 906 1312 657 
Q 1506 409 1894 409 
Q 2359 409 2629 706 
Q 2900 1003 2900 1516 
L 2900 3500 
L 3475 3500 
L 3475 0 
L 2900 0 
L 2900 538 
Q 2691 219 2414 64 
Q 2138 -91 1772 -91 
Q 1169 -91 856 284 
Q 544 659 544 1381 
z
M 1991 3584 
L 1991 3584 
z
" transform="scale(0.015625)"/>
       <path id="DejaVuSans-6d" d="M 3328 2828 
Q 3544 3216 3844 3400 
Q 4144 3584 4550 3584 
Q 5097 3584 5394 3201 
Q 5691 2819 5691 2113 
L 5691 0 
L 5113 0 
L 5113 2094 
Q 5113 2597 4934 2840 
Q 4756 3084 4391 3084 
Q 3944 3084 3684 2787 
Q 3425 2491 3425 1978 
L 3425 0 
L 2847 0 
L 2847 2094 
Q 2847 2600 2669 2842 
Q 2491 3084 2119 3084 
Q 1678 3084 1418 2786 
Q 1159 2488 1159 1978 
L 1159 0 
L 581 0 
L 581 3500 
L 1159 3500 
L 1159 2956 
Q 1356 3278 1631 3431 
Q 1906 3584 2284 3584 
Q 2666 3584 2933 3390 
Q 3200 3197 3328 2828 
z
" transform="scale(0.015625)"/>
       <path id="DejaVuSans-62" d="M 3116 1747 
Q 3116 2381 2855 2742 
Q 2594 3103 2138 3103 
Q 1681 3103 1420 2742 
Q 1159 2381 1159 1747 
Q 1159 1113 1420 752 
Q 1681 391 2138 391 
Q 2594 391 2855 752 
Q 3116 1113 3116 1747 
z
M 1159 2969 
Q 1341 3281 1617 3432 
Q 1894 3584 2278 3584 
Q 2916 3584 3314 3078 
Q 3713 2572 3713 1747 
Q 3713 922 3314 415 
Q 2916 -91 2278 -91 
Q 1894 -91 1617 61 
Q 1341 213 1159 525 
L 1159 0 
L 581 0 
L 581 4863 
L 1159 4863 
L 1159 2969 
z
" transform="scale(0.015625)"/>
       <path id="DejaVuSans-72" d="M 2631 2963 
Q 2534 3019 2420 3045 
Q 2306 3072 2169 3072 
Q 1681 3072 1420 2755 
Q 1159 2438 1159 1844 
L 1159 0 
L 581 0 
L 581 3500 
L 1159 3500 
L 1159 2956 
Q 1341 3275 1631 3429 
Q 1922 3584 2338 3584 
Q 2397 3584 2469 3576 
Q 2541 3569 2628 3553 
L 2631 2963 
z
" transform="scale(0.015625)"/>
       <path id="DejaVuSans-20" transform="scale(0.015625)"/>
       <path id="DejaVuSans-6f" d="M 1959 3097 
Q 1497 3097 1228 2736 
Q 959 2375 959 1747 
Q 959 1119 1226 758 
Q 1494 397 1959 397 
Q 2419 397 2687 759 
Q 2956 1122 2956 1747 
Q 2956 2369 2687 2733 
Q 2419 3097 1959 3097 
z
M 1959 3584 
Q 2709 3584 3137 3096 
Q 3566 2609 3566 1747 
Q 3566 888 3137 398 
Q 2709 -91 1959 -91 
Q 1206 -91 779 398 
Q 353 888 353 1747 
Q 353 2609 779 3096 
Q 1206 3584 1959 3584 
z
" transform="scale(0.015625)"/>
       <path id="DejaVuSans-66" d="M 2375 4863 
L 2375 4384 
L 1825 4384 
Q 1516 4384 1395 4259 
Q 1275 4134 1275 3809 
L 1275 3500 
L 2222 3500 
L 2222 3053 
L 1275 3053 
L 1275 0 
L 697 0 
L 697 3053 
L 147 3053 
L 147 3500 
L 697 3500 
L 697 3744 
Q 697 4328 969 4595 
Q 1241 4863 1831 4863 
L 2375 4863 
z
" transform="scale(0.015625)"/>
       <path id="DejaVuSans-50" d="M 1259 4147 
L 1259 2394 
L 2053 2394 
Q 2494 2394 2734 2622 
Q 2975 2850 2975 3272 
Q 2975 3691 2734 3919 
Q 2494 4147 2053 4147 
L 1259 4147 
z
M 628 4666 
L 2053 4666 
Q 2838 4666 3239 4311 
Q 3641 3956 3641 3272 
Q 3641 2581 3239 2228 
Q 2838 1875 2053 1875 
L 1259 1875 
L 1259 0 
L 628 0 
L 628 4666 
z
" transform="scale(0.015625)"/>
       <path id="DejaVuSans-79" d="M 2059 -325 
Q 1816 -950 1584 -1140 
Q 1353 -1331 966 -1331 
L 506 -1331 
L 506 -850 
L 844 -850 
Q 1081 -850 1212 -737 
Q 1344 -625 1503 -206 
L 1606 56 
L 191 3500 
L 800 3500 
L 1894 763 
L 2988 3500 
L 3597 3500 
L 2059 -325 
z
" transform="scale(0.015625)"/>
       <path id="DejaVuSans-49" d="M 628 4666 
L 1259 4666 
L 1259 0 
L 628 0 
L 628 4666 
z
" transform="scale(0.015625)"/>
       <path id="DejaVuSans-44" d="M 1259 4147 
L 1259 519 
L 2022 519 
Q 2988 519 3436 956 
Q 3884 1394 3884 2338 
Q 3884 3275 3436 3711 
Q 2988 4147 2022 4147 
L 1259 4147 
z
M 628 4666 
L 1925 4666 
Q 3281 4666 3915 4102 
Q 4550 3538 4550 2338 
Q 4550 1131 3912 565 
Q 3275 0 1925 0 
L 628 0 
L 628 4666 
z
" transform="scale(0.015625)"/>
       <path id="DejaVuSans-77" d="M 269 3500 
L 844 3500 
L 1563 769 
L 2278 3500 
L 2956 3500 
L 3675 769 
L 4391 3500 
L 4966 3500 
L 4050 0 
L 3372 0 
L 2619 2869 
L 1863 0 
L 1184 0 
L 269 3500 
z
" transform="scale(0.015625)"/>
       <path id="DejaVuSans-6e" d="M 3513 2113 
L 3513 0 
L 2938 0 
L 2938 2094 
Q 2938 2591 2744 2837 
Q 2550 3084 2163 3084 
Q 1697 3084 1428 2787 
Q 1159 2491 1159 1978 
L 1159 0 
L 581 0 
L 581 3500 
L 1159 3500 
L 1159 2956 
Q 1366 3272 1645 3428 
Q 1925 3584 2291 3584 
Q 2894 3584 3203 3211 
Q 3513 2838 3513 2113 
z
" transform="scale(0.015625)"/>
       <path id="DejaVuSans-6c" d="M 603 4863 
L 1178 4863 
L 1178 0 
L 603 0 
L 603 4863 
z
" transform="scale(0.015625)"/>
       <path id="DejaVuSans-73" d="M 2834 3397 
L 2834 2853 
Q 2591 2978 2328 3040 
Q 2066 3103 1784 3103 
Q 1356 3103 1142 2972 
Q 928 2841 928 2578 
Q 928 2378 1081 2264 
Q 1234 2150 1697 2047 
L 1894 2003 
Q 2506 1872 2764 1633 
Q 3022 1394 3022 966 
Q 3022 478 2636 193 
Q 2250 -91 1575 -91 
Q 1294 -91 989 -36 
Q 684 19 347 128 
L 347 722 
Q 666 556 975 473 
Q 1284 391 1588 391 
Q 1994 391 2212 530 
Q 2431 669 2431 922 
Q 2431 1156 2273 1281 
Q 2116 1406 1581 1522 
L 1381 1569 
Q 847 1681 609 1914 
Q 372 2147 372 2553 
Q 372 3047 722 3315 
Q 1072 3584 1716 3584 
Q 2034 3584 2315 3537 
Q 2597 3491 2834 3397 
z
" transform="scale(0.015625)"/>
      </defs>
      <use xlink:href="#DejaVuSans-4e"/>
      <use xlink:href="#DejaVuSans-75" x="74.804688"/>
      <use xlink:href="#DejaVuSans-6d" x="138.183594"/>
      <use xlink:href="#DejaVuSans-62" x="235.595703"/>
      <use xlink:href="#DejaVuSans-65" x="299.072266"/>
      <use xlink:href="#DejaVuSans-72" x="360.595703"/>
      <use xlink:href="#DejaVuSans-20" x="401.708984"/>
      <use xlink:href="#DejaVuSans-6f" x="433.496094"/>
      <use xlink:href="#DejaVuSans-66" x="494.677734"/>
      <use xlink:href="#DejaVuSans-20" x="529.882812"/>
      <use xlink:href="#DejaVuSans-50" x="561.669922"/>
      <use xlink:href="#DejaVuSans-79" x="621.972656"/>
      <use xlink:href="#DejaVuSans-50" x="681.152344"/>
      <use xlink:href="#DejaVuSans-49" x="741.455078"/>
      <use xlink:href="#DejaVuSans-20" x="770.947266"/>
      <use xlink:href="#DejaVuSans-44" x="802.734375"/>
      <use xlink:href="#DejaVuSans-6f" x="879.736328"/>
      <use xlink:href="#DejaVuSans-77" x="940.917969"/>
      <use xlink:href="#DejaVuSans-6e" x="1022.705078"/>
      <use xlink:href="#DejaVuSans-6c" x="1086.083984"/>
      <use xlink:href="#DejaVuSans-6f" x="1113.867188"/>
      <use xlink:href="#DejaVuSans-61" x="1175.048828"/>
      <use xlink:href="#DejaVuSans-64" x="1236.328125"/>
      <use xlink:href="#DejaVuSans-73" x="1299.804688"/>
     </g>
    </g>
   </g>
  </g>
 </g>
 <defs>
  <clipPath id="pc59b73d459">
   <rect x="90" y="17.28" width="558" height="110.88"/>
  </clipPath>
 </defs>
</svg>
