<?xml version="1.0" encoding="utf-8" standalone="no"?>
<!DOCTYPE svg PUBLIC "-//W3C//DTD SVG 1.1//EN"
  "http://www.w3.org/Graphics/SVG/1.1/DTD/svg11.dtd">
<svg xmlns:xlink="http://www.w3.org/1999/xlink" width="720pt" height="144pt" viewBox="0 0 720 144" xmlns="http://www.w3.org/2000/svg" version="1.1">
 <metadata>
  <rdf:RDF xmlns:dc="http://purl.org/dc/elements/1.1/" xmlns:cc="http://creativecommons.org/ns#" xmlns:rdf="http://www.w3.org/1999/02/22-rdf-syntax-ns#">
   <cc:Work>
    <dc:type rdf:resource="http://purl.org/dc/dcmitype/StillImage"/>
    <dc:date>2023-11-01T20:56:51.820576</dc:date>
    <dc:format>image/svg+xml</dc:format>
    <dc:creator>
     <cc:Agent>
      <dc:title>Matplotlib v3.8.1, https://matplotlib.org/</dc:title>
     </cc:Agent>
    </dc:creator>
   </cc:Work>
  </rdf:RDF>
 </metadata>
 <defs>
  <style type="text/css">*{stroke-linejoin: round; stroke-linecap: butt}</style>
 </defs>
 <g id="figure_1">
  <g id="patch_1">
   <path d="M 0 144 
L 720 144 
L 720 0 
L 0 0 
z
" style="fill: #ffffff"/>
  </g>
  <g id="axes_1">
   <g id="patch_2">
    <path d="M 90 128.16 
L 648 128.16 
L 648 17.28 
L 90 17.28 
z
" style="fill: #ffffff"/>
   </g>
   <g id="matplotlib.axis_1">
    <g id="xtick_1">
     <g id="line2d_1">
      <defs>
       <path id="ma491eb13d1" d="M 0 0 
L 0 3.5 
" style="stroke: #000000; stroke-width: 0.8"/>
      </defs>
      <g>
       <use xlink:href="#ma491eb13d1" x="115.363636" y="128.16" style="stroke: #000000; stroke-width: 0.8"/>
      </g>
     </g>
     <g id="text_1">
      <!-- 2020-06-18 -->
      <g transform="translate(86.305824 142.758438) scale(0.1 -0.1)">
       <defs>
        <path id="DejaVuSans-32" d="M 1228 531 
L 3431 531 
L 3431 0 
L 469 0 
L 469 531 
Q 828 903 1448 1529 
Q 2069 2156 2228 2338 
Q 2531 2678 2651 2914 
Q 2772 3150 2772 3378 
Q 2772 3750 2511 3984 
Q 2250 4219 1831 4219 
Q 1534 4219 1204 4116 
Q 875 4013 500 3803 
L 500 4441 
Q 881 4594 1212 4672 
Q 1544 4750 1819 4750 
Q 2544 4750 2975 4387 
Q 3406 4025 3406 3419 
Q 3406 3131 3298 2873 
Q 3191 2616 2906 2266 
Q 2828 2175 2409 1742 
Q 1991 1309 1228 531 
z
" transform="scale(0.015625)"/>
        <path id="DejaVuSans-30" d="M 2034 4250 
Q 1547 4250 1301 3770 
Q 1056 3291 1056 2328 
Q 1056 1369 1301 889 
Q 1547 409 2034 409 
Q 2525 409 2770 889 
Q 3016 1369 3016 2328 
Q 3016 3291 2770 3770 
Q 2525 4250 2034 4250 
z
M 2034 4750 
Q 2819 4750 3233 4129 
Q 3647 3509 3647 2328 
Q 3647 1150 3233 529 
Q 2819 -91 2034 -91 
Q 1250 -91 836 529 
Q 422 1150 422 2328 
Q 422 3509 836 4129 
Q 1250 4750 2034 4750 
z
" transform="scale(0.015625)"/>
        <path id="DejaVuSans-2d" d="M 313 2009 
L 1997 2009 
L 1997 1497 
L 313 1497 
L 313 2009 
z
" transform="scale(0.015625)"/>
        <path id="DejaVuSans-36" d="M 2113 2584 
Q 1688 2584 1439 2293 
Q 1191 2003 1191 1497 
Q 1191 994 1439 701 
Q 1688 409 2113 409 
Q 2538 409 2786 701 
Q 3034 994 3034 1497 
Q 3034 2003 2786 2293 
Q 2538 2584 2113 2584 
z
M 3366 4563 
L 3366 3988 
Q 3128 4100 2886 4159 
Q 2644 4219 2406 4219 
Q 1781 4219 1451 3797 
Q 1122 3375 1075 2522 
Q 1259 2794 1537 2939 
Q 1816 3084 2150 3084 
Q 2853 3084 3261 2657 
Q 3669 2231 3669 1497 
Q 3669 778 3244 343 
Q 2819 -91 2113 -91 
Q 1303 -91 875 529 
Q 447 1150 447 2328 
Q 447 3434 972 4092 
Q 1497 4750 2381 4750 
Q 2619 4750 2861 4703 
Q 3103 4656 3366 4563 
z
" transform="scale(0.015625)"/>
        <path id="DejaVuSans-31" d="M 794 531 
L 1825 531 
L 1825 4091 
L 703 3866 
L 703 4441 
L 1819 4666 
L 2450 4666 
L 2450 531 
L 3481 531 
L 3481 0 
L 794 0 
L 794 531 
z
" transform="scale(0.015625)"/>
        <path id="DejaVuSans-38" d="M 2034 2216 
Q 1584 2216 1326 1975 
Q 1069 1734 1069 1313 
Q 1069 891 1326 650 
Q 1584 409 2034 409 
Q 2484 409 2743 651 
Q 3003 894 3003 1313 
Q 3003 1734 2745 1975 
Q 2488 2216 2034 2216 
z
M 1403 2484 
Q 997 2584 770 2862 
Q 544 3141 544 3541 
Q 544 4100 942 4425 
Q 1341 4750 2034 4750 
Q 2731 4750 3128 4425 
Q 3525 4100 3525 3541 
Q 3525 3141 3298 2862 
Q 3072 2584 2669 2484 
Q 3125 2378 3379 2068 
Q 3634 1759 3634 1313 
Q 3634 634 3220 271 
Q 2806 -91 2034 -91 
Q 1263 -91 848 271 
Q 434 634 434 1313 
Q 434 1759 690 2068 
Q 947 2378 1403 2484 
z
M 1172 3481 
Q 1172 3119 1398 2916 
Q 1625 2713 2034 2713 
Q 2441 2713 2670 2916 
Q 2900 3119 2900 3481 
Q 2900 3844 2670 4047 
Q 2441 4250 2034 4250 
Q 1625 4250 1398 4047 
Q 1172 3844 1172 3481 
z
" transform="scale(0.015625)"/>
       </defs>
       <use xlink:href="#DejaVuSans-32"/>
       <use xlink:href="#DejaVuSans-30" x="63.623047"/>
       <use xlink:href="#DejaVuSans-32" x="127.246094"/>
       <use xlink:href="#DejaVuSans-30" x="190.869141"/>
       <use xlink:href="#DejaVuSans-2d" x="254.492188"/>
       <use xlink:href="#DejaVuSans-30" x="290.576172"/>
       <use xlink:href="#DejaVuSans-36" x="354.199219"/>
       <use xlink:href="#DejaVuSans-2d" x="417.822266"/>
       <use xlink:href="#DejaVuSans-31" x="453.90625"/>
       <use xlink:href="#DejaVuSans-38" x="517.529297"/>
      </g>
     </g>
    </g>
    <g id="xtick_2">
     <g id="line2d_2">
      <g>
       <use xlink:href="#ma491eb13d1" x="206.929111" y="128.16" style="stroke: #000000; stroke-width: 0.8"/>
      </g>
     </g>
     <g id="text_2">
      <!-- 2021-03-13 -->
      <g transform="translate(177.871298 142.758438) scale(0.1 -0.1)">
       <defs>
        <path id="DejaVuSans-33" d="M 2597 2516 
Q 3050 2419 3304 2112 
Q 3559 1806 3559 1356 
Q 3559 666 3084 287 
Q 2609 -91 1734 -91 
Q 1441 -91 1130 -33 
Q 819 25 488 141 
L 488 750 
Q 750 597 1062 519 
Q 1375 441 1716 441 
Q 2309 441 2620 675 
Q 2931 909 2931 1356 
Q 2931 1769 2642 2001 
Q 2353 2234 1838 2234 
L 1294 2234 
L 1294 2753 
L 1863 2753 
Q 2328 2753 2575 2939 
Q 2822 3125 2822 3475 
Q 2822 3834 2567 4026 
Q 2313 4219 1838 4219 
Q 1578 4219 1281 4162 
Q 984 4106 628 3988 
L 628 4550 
Q 988 4650 1302 4700 
Q 1616 4750 1894 4750 
Q 2613 4750 3031 4423 
Q 3450 4097 3450 3541 
Q 3450 3153 3228 2886 
Q 3006 2619 2597 2516 
z
" transform="scale(0.015625)"/>
       </defs>
       <use xlink:href="#DejaVuSans-32"/>
       <use xlink:href="#DejaVuSans-30" x="63.623047"/>
       <use xlink:href="#DejaVuSans-32" x="127.246094"/>
       <use xlink:href="#DejaVuSans-31" x="190.869141"/>
       <use xlink:href="#DejaVuSans-2d" x="254.492188"/>
       <use xlink:href="#DejaVuSans-30" x="290.576172"/>
       <use xlink:href="#DejaVuSans-33" x="354.199219"/>
       <use xlink:href="#DejaVuSans-2d" x="417.822266"/>
       <use xlink:href="#DejaVuSans-31" x="453.90625"/>
       <use xlink:href="#DejaVuSans-33" x="517.529297"/>
      </g>
     </g>
    </g>
    <g id="xtick_3">
     <g id="line2d_3">
      <g>
       <use xlink:href="#ma491eb13d1" x="298.494585" y="128.16" style="stroke: #000000; stroke-width: 0.8"/>
      </g>
     </g>
     <g id="text_3">
      <!-- 2021-10-16 -->
      <g transform="translate(269.436772 142.758438) scale(0.1 -0.1)">
       <use xlink:href="#DejaVuSans-32"/>
       <use xlink:href="#DejaVuSans-30" x="63.623047"/>
       <use xlink:href="#DejaVuSans-32" x="127.246094"/>
       <use xlink:href="#DejaVuSans-31" x="190.869141"/>
       <use xlink:href="#DejaVuSans-2d" x="254.492188"/>
       <use xlink:href="#DejaVuSans-31" x="290.576172"/>
       <use xlink:href="#DejaVuSans-30" x="354.199219"/>
       <use xlink:href="#DejaVuSans-2d" x="417.822266"/>
       <use xlink:href="#DejaVuSans-31" x="453.90625"/>
       <use xlink:href="#DejaVuSans-36" x="517.529297"/>
      </g>
     </g>
    </g>
    <g id="xtick_4">
     <g id="line2d_4">
      <g>
       <use xlink:href="#ma491eb13d1" x="390.060059" y="128.16" style="stroke: #000000; stroke-width: 0.8"/>
      </g>
     </g>
     <g id="text_4">
      <!-- 2022-05-12 -->
      <g transform="translate(361.002247 142.758438) scale(0.1 -0.1)">
       <defs>
        <path id="DejaVuSans-35" d="M 691 4666 
L 3169 4666 
L 3169 4134 
L 1269 4134 
L 1269 2991 
Q 1406 3038 1543 3061 
Q 1681 3084 1819 3084 
Q 2600 3084 3056 2656 
Q 3513 2228 3513 1497 
Q 3513 744 3044 326 
Q 2575 -91 1722 -91 
Q 1428 -91 1123 -41 
Q 819 9 494 109 
L 494 744 
Q 775 591 1075 516 
Q 1375 441 1709 441 
Q 2250 441 2565 725 
Q 2881 1009 2881 1497 
Q 2881 1984 2565 2268 
Q 2250 2553 1709 2553 
Q 1456 2553 1204 2497 
Q 953 2441 691 2322 
L 691 4666 
z
" transform="scale(0.015625)"/>
       </defs>
       <use xlink:href="#DejaVuSans-32"/>
       <use xlink:href="#DejaVuSans-30" x="63.623047"/>
       <use xlink:href="#DejaVuSans-32" x="127.246094"/>
       <use xlink:href="#DejaVuSans-32" x="190.869141"/>
       <use xlink:href="#DejaVuSans-2d" x="254.492188"/>
       <use xlink:href="#DejaVuSans-30" x="290.576172"/>
       <use xlink:href="#DejaVuSans-35" x="354.199219"/>
       <use xlink:href="#DejaVuSans-2d" x="417.822266"/>
       <use xlink:href="#DejaVuSans-31" x="453.90625"/>
       <use xlink:href="#DejaVuSans-32" x="517.529297"/>
      </g>
     </g>
    </g>
    <g id="xtick_5">
     <g id="line2d_5">
      <g>
       <use xlink:href="#ma491eb13d1" x="481.625533" y="128.16" style="stroke: #000000; stroke-width: 0.8"/>
      </g>
     </g>
     <g id="text_5">
      <!-- 2022-12-07 -->
      <g transform="translate(452.567721 142.758438) scale(0.1 -0.1)">
       <defs>
        <path id="DejaVuSans-37" d="M 525 4666 
L 3525 4666 
L 3525 4397 
L 1831 0 
L 1172 0 
L 2766 4134 
L 525 4134 
L 525 4666 
z
" transform="scale(0.015625)"/>
       </defs>
       <use xlink:href="#DejaVuSans-32"/>
       <use xlink:href="#DejaVuSans-30" x="63.623047"/>
       <use xlink:href="#DejaVuSans-32" x="127.246094"/>
       <use xlink:href="#DejaVuSans-32" x="190.869141"/>
       <use xlink:href="#DejaVuSans-2d" x="254.492188"/>
       <use xlink:href="#DejaVuSans-31" x="290.576172"/>
       <use xlink:href="#DejaVuSans-32" x="354.199219"/>
       <use xlink:href="#DejaVuSans-2d" x="417.822266"/>
       <use xlink:href="#DejaVuSans-30" x="453.90625"/>
       <use xlink:href="#DejaVuSans-37" x="517.529297"/>
      </g>
     </g>
    </g>
    <g id="xtick_6">
     <g id="line2d_6">
      <g>
       <use xlink:href="#ma491eb13d1" x="573.191008" y="128.16" style="stroke: #000000; stroke-width: 0.8"/>
      </g>
     </g>
     <g id="text_6">
      <!-- 2023-07-11 -->
      <g transform="translate(544.133195 142.758438) scale(0.1 -0.1)">
       <use xlink:href="#DejaVuSans-32"/>
       <use xlink:href="#DejaVuSans-30" x="63.623047"/>
       <use xlink:href="#DejaVuSans-32" x="127.246094"/>
       <use xlink:href="#DejaVuSans-33" x="190.869141"/>
       <use xlink:href="#DejaVuSans-2d" x="254.492188"/>
       <use xlink:href="#DejaVuSans-30" x="290.576172"/>
       <use xlink:href="#DejaVuSans-37" x="354.199219"/>
       <use xlink:href="#DejaVuSans-2d" x="417.822266"/>
       <use xlink:href="#DejaVuSans-31" x="453.90625"/>
       <use xlink:href="#DejaVuSans-31" x="517.529297"/>
      </g>
     </g>
    </g>
    <g id="text_7">
     <!-- date -->
     <g transform="translate(357.725 156.436563) scale(0.1 -0.1)">
      <defs>
       <path id="DejaVuSans-64" d="M 2906 2969 
L 2906 4863 
L 3481 4863 
L 3481 0 
L 2906 0 
L 2906 525 
Q 2725 213 2448 61 
Q 2172 -91 1784 -91 
Q 1150 -91 751 415 
Q 353 922 353 1747 
Q 353 2572 751 3078 
Q 1150 3584 1784 3584 
Q 2172 3584 2448 3432 
Q 2725 3281 2906 2969 
z
M 947 1747 
Q 947 1113 1208 752 
Q 1469 391 1925 391 
Q 2381 391 2643 752 
Q 2906 1113 2906 1747 
Q 2906 2381 2643 2742 
Q 2381 3103 1925 3103 
Q 1469 3103 1208 2742 
Q 947 2381 947 1747 
z
" transform="scale(0.015625)"/>
       <path id="DejaVuSans-61" d="M 2194 1759 
Q 1497 1759 1228 1600 
Q 959 1441 959 1056 
Q 959 750 1161 570 
Q 1363 391 1709 391 
Q 2188 391 2477 730 
Q 2766 1069 2766 1631 
L 2766 1759 
L 2194 1759 
z
M 3341 1997 
L 3341 0 
L 2766 0 
L 2766 531 
Q 2569 213 2275 61 
Q 1981 -91 1556 -91 
Q 1019 -91 701 211 
Q 384 513 384 1019 
Q 384 1609 779 1909 
Q 1175 2209 1959 2209 
L 2766 2209 
L 2766 2266 
Q 2766 2663 2505 2880 
Q 2244 3097 1772 3097 
Q 1472 3097 1187 3025 
Q 903 2953 641 2809 
L 641 3341 
Q 956 3463 1253 3523 
Q 1550 3584 1831 3584 
Q 2591 3584 2966 3190 
Q 3341 2797 3341 1997 
z
" transform="scale(0.015625)"/>
       <path id="DejaVuSans-74" d="M 1172 4494 
L 1172 3500 
L 2356 3500 
L 2356 3053 
L 1172 3053 
L 1172 1153 
Q 1172 725 1289 603 
Q 1406 481 1766 481 
L 2356 481 
L 2356 0 
L 1766 0 
Q 1100 0 847 248 
Q 594 497 594 1153 
L 594 3053 
L 172 3053 
L 172 3500 
L 594 3500 
L 594 4494 
L 1172 4494 
z
" transform="scale(0.015625)"/>
       <path id="DejaVuSans-65" d="M 3597 1894 
L 3597 1613 
L 953 1613 
Q 991 1019 1311 708 
Q 1631 397 2203 397 
Q 2534 397 2845 478 
Q 3156 559 3463 722 
L 3463 178 
Q 3153 47 2828 -22 
Q 2503 -91 2169 -91 
Q 1331 -91 842 396 
Q 353 884 353 1716 
Q 353 2575 817 3079 
Q 1281 3584 2069 3584 
Q 2775 3584 3186 3129 
Q 3597 2675 3597 1894 
z
M 3022 2063 
Q 3016 2534 2758 2815 
Q 2500 3097 2075 3097 
Q 1594 3097 1305 2825 
Q 1016 2553 972 2059 
L 3022 2063 
z
" transform="scale(0.015625)"/>
      </defs>
      <use xlink:href="#DejaVuSans-64"/>
      <use xlink:href="#DejaVuSans-61" x="63.476562"/>
      <use xlink:href="#DejaVuSans-74" x="124.755859"/>
      <use xlink:href="#DejaVuSans-65" x="163.964844"/>
     </g>
    </g>
   </g>
   <g id="matplotlib.axis_2">
    <g id="ytick_1">
     <g id="line2d_7">
      <defs>
       <path id="m68e23a0086" d="M 0 0 
L -3.5 0 
" style="stroke: #000000; stroke-width: 0.8"/>
      </defs>
      <g>
       <use xlink:href="#m68e23a0086" x="90" y="123.895385" style="stroke: #000000; stroke-width: 0.8"/>
      </g>
     </g>
     <g id="text_8">
      <!-- 0 -->
      <g transform="translate(76.6375 127.694603) scale(0.1 -0.1)">
       <use xlink:href="#DejaVuSans-30"/>
      </g>
     </g>
    </g>
    <g id="ytick_2">
     <g id="line2d_8">
      <g>
       <use xlink:href="#m68e23a0086" x="90" y="85.126154" style="stroke: #000000; stroke-width: 0.8"/>
      </g>
     </g>
     <g id="text_9">
      <!-- 50 -->
      <g transform="translate(70.275 88.925373) scale(0.1 -0.1)">
       <use xlink:href="#DejaVuSans-35"/>
       <use xlink:href="#DejaVuSans-30" x="63.623047"/>
      </g>
     </g>
    </g>
    <g id="ytick_3">
     <g id="line2d_9">
      <g>
       <use xlink:href="#m68e23a0086" x="90" y="46.356923" style="stroke: #000000; stroke-width: 0.8"/>
      </g>
     </g>
     <g id="text_10">
      <!-- 100 -->
      <g transform="translate(63.9125 50.156142) scale(0.1 -0.1)">
       <use xlink:href="#DejaVuSans-31"/>
       <use xlink:href="#DejaVuSans-30" x="63.623047"/>
       <use xlink:href="#DejaVuSans-30" x="127.246094"/>
      </g>
     </g>
    </g>
   </g>
   <g id="line2d_10">
    <path d="M 115.363636 106.836923 
L 115.821464 113.04 
L 116.279291 120.793846 
L 117.652773 123.12 
L 118.110601 121.569231 
L 118.568428 117.692308 
L 119.026255 122.344615 
L 119.484083 121.569231 
L 119.94191 122.344615 
L 120.399737 105.286154 
L 120.857565 118.467692 
L 121.315392 121.569231 
L 121.77322 117.692308 
L 122.231047 122.344615 
L 122.688874 119.243077 
L 123.146702 118.467692 
L 123.604529 123.12 
L 124.062356 121.569231 
L 124.520184 116.141538 
L 124.978011 117.692308 
L 125.435839 120.793846 
L 125.893666 121.569231 
L 126.351493 121.569231 
L 127.267148 123.12 
L 127.724975 116.916923 
L 128.182803 84.350769 
L 128.64063 119.243077 
L 129.098457 121.569231 
L 129.556285 121.569231 
L 130.014112 120.018462 
L 130.47194 122.344615 
L 130.929767 120.793846 
L 131.387594 123.12 
L 131.845422 121.569231 
L 132.303249 121.569231 
L 132.761076 123.12 
L 133.218904 122.344615 
L 133.676731 120.793846 
L 134.134559 120.793846 
L 134.592386 119.243077 
L 135.050213 123.12 
L 135.508041 123.12 
L 135.965868 122.344615 
L 136.423695 122.344615 
L 136.881523 123.12 
L 137.33935 123.12 
L 137.797178 111.489231 
L 138.255005 120.018462 
L 138.712832 118.467692 
L 139.17066 122.344615 
L 139.628487 120.018462 
L 140.086314 118.467692 
L 140.544142 120.018462 
L 141.001969 123.12 
L 141.459797 122.344615 
L 141.917624 120.018462 
L 142.375451 123.12 
L 143.291106 121.569231 
L 143.748933 118.467692 
L 144.664588 123.12 
L 145.122415 120.793846 
L 145.580243 120.018462 
L 146.03807 123.12 
L 146.495898 120.793846 
L 146.953725 123.12 
L 147.411552 122.344615 
L 147.86938 120.018462 
L 148.327207 123.12 
L 148.785034 122.344615 
L 149.242862 122.344615 
L 149.700689 123.12 
L 150.158517 120.018462 
L 150.616344 123.12 
L 151.074171 121.569231 
L 151.989826 121.569231 
L 152.447653 120.793846 
L 152.905481 119.243077 
L 153.363308 121.569231 
L 153.821136 119.243077 
L 154.278963 123.12 
L 155.194618 121.569231 
L 155.652445 120.018462 
L 156.110272 122.344615 
L 156.5681 123.12 
L 157.025927 122.344615 
L 157.483755 120.793846 
L 157.941582 121.569231 
L 158.399409 123.12 
L 158.857237 113.04 
L 159.315064 123.12 
L 159.772891 121.569231 
L 160.230719 120.793846 
L 160.688546 123.12 
L 161.146373 120.793846 
L 161.604201 117.692308 
L 162.062028 121.569231 
L 162.519856 123.12 
L 162.977683 123.12 
L 163.43551 122.344615 
L 163.893338 123.12 
L 164.351165 123.12 
L 164.808992 122.344615 
L 165.26682 122.344615 
L 165.724647 121.569231 
L 166.182475 122.344615 
L 167.555957 120.018462 
L 168.013784 121.569231 
L 168.471611 121.569231 
L 169.387266 120.018462 
L 169.845094 122.344615 
L 170.302921 123.12 
L 170.760748 118.467692 
L 171.218576 122.344615 
L 171.676403 122.344615 
L 172.13423 117.692308 
L 172.592058 121.569231 
L 173.049885 121.569231 
L 173.507713 104.510769 
L 173.96554 120.018462 
L 174.423367 121.569231 
L 174.881195 118.467692 
L 175.339022 122.344615 
L 175.796849 119.243077 
L 176.254677 122.344615 
L 176.712504 117.692308 
L 177.170331 120.018462 
L 177.628159 123.12 
L 178.085986 122.344615 
L 178.543814 113.815385 
L 179.001641 120.018462 
L 179.459468 122.344615 
L 179.917296 123.12 
L 180.375123 123.12 
L 180.83295 117.692308 
L 181.290778 123.12 
L 181.748605 123.12 
L 182.206433 120.793846 
L 182.66426 123.12 
L 183.122087 123.12 
L 184.037742 120.018462 
L 184.495569 123.12 
L 184.953397 121.569231 
L 185.869052 123.12 
L 186.326879 120.018462 
L 186.784706 123.12 
L 187.242534 123.12 
L 187.700361 122.344615 
L 188.158188 123.12 
L 188.616016 123.12 
L 189.073843 120.018462 
L 189.989498 123.12 
L 190.905153 121.569231 
L 191.36298 121.569231 
L 191.820807 122.344615 
L 192.278635 120.793846 
L 192.736462 122.344615 
L 193.194289 123.12 
L 194.109944 123.12 
L 194.567772 120.018462 
L 195.025599 123.12 
L 195.483426 122.344615 
L 195.941254 123.12 
L 196.399081 120.018462 
L 196.856908 121.569231 
L 197.314736 122.344615 
L 197.772563 122.344615 
L 198.230391 120.793846 
L 198.688218 122.344615 
L 199.146045 121.569231 
L 199.603873 121.569231 
L 200.0617 122.344615 
L 200.519527 122.344615 
L 200.977355 123.12 
L 201.435182 118.467692 
L 201.89301 122.344615 
L 202.350837 122.344615 
L 202.808664 123.12 
L 203.266492 122.344615 
L 203.724319 123.12 
L 204.182146 123.12 
L 205.097801 121.569231 
L 205.555628 115.366154 
L 206.013456 100.633846 
L 206.471283 117.692308 
L 206.929111 123.12 
L 207.386938 122.344615 
L 207.844765 118.467692 
L 208.302593 120.018462 
L 208.76042 119.243077 
L 209.218247 113.04 
L 209.676075 123.12 
L 210.133902 122.344615 
L 210.59173 120.793846 
L 211.049557 118.467692 
L 211.507384 115.366154 
L 211.965212 106.061538 
L 212.423039 112.264615 
L 212.880866 122.344615 
L 213.338694 97.532308 
L 213.796521 111.489231 
L 214.254349 117.692308 
L 214.712176 113.04 
L 215.170003 120.018462 
L 215.627831 113.04 
L 216.085658 113.815385 
L 216.543485 112.264615 
L 217.001313 106.061538 
L 217.45914 121.569231 
L 217.916968 118.467692 
L 218.374795 121.569231 
L 218.832622 123.12 
L 219.29045 120.018462 
L 219.748277 123.12 
L 220.206104 121.569231 
L 220.663932 123.12 
L 221.121759 122.344615 
L 221.579586 113.04 
L 222.037414 121.569231 
L 222.495241 119.243077 
L 222.953069 120.793846 
L 223.410896 120.018462 
L 223.868723 123.12 
L 224.326551 118.467692 
L 224.784378 120.018462 
L 225.242205 122.344615 
L 225.700033 119.243077 
L 226.15786 123.12 
L 226.615688 121.569231 
L 227.073515 123.12 
L 227.531342 120.793846 
L 227.98917 122.344615 
L 228.446997 120.793846 
L 228.904824 120.018462 
L 229.362652 122.344615 
L 230.278307 122.344615 
L 230.736134 120.793846 
L 231.193961 120.018462 
L 231.651789 106.836923 
L 232.109616 108.387692 
L 232.567443 121.569231 
L 233.025271 122.344615 
L 233.483098 119.243077 
L 233.940926 120.018462 
L 234.398753 118.467692 
L 234.85658 122.344615 
L 235.314408 123.12 
L 235.772235 119.243077 
L 236.230062 118.467692 
L 236.68789 116.141538 
L 237.145717 122.344615 
L 237.603544 120.018462 
L 238.061372 122.344615 
L 238.519199 122.344615 
L 238.977027 123.12 
L 239.892681 120.018462 
L 240.808336 123.12 
L 241.266163 121.569231 
L 241.723991 122.344615 
L 242.181818 118.467692 
L 242.639646 116.916923 
L 243.097473 118.467692 
L 243.5553 119.243077 
L 244.013128 117.692308 
L 244.470955 111.489231 
L 244.928782 119.243077 
L 245.38661 120.793846 
L 245.844437 120.018462 
L 246.302265 117.692308 
L 246.760092 112.264615 
L 247.217919 122.344615 
L 247.675747 121.569231 
L 248.133574 123.12 
L 248.591401 116.916923 
L 249.049229 117.692308 
L 249.507056 120.793846 
L 249.964883 116.141538 
L 250.422711 114.590769 
L 250.880538 122.344615 
L 251.338366 122.344615 
L 251.796193 116.141538 
L 252.25402 102.184615 
L 252.711848 113.04 
L 253.169675 119.243077 
L 253.627502 120.018462 
L 254.08533 120.018462 
L 255.000985 121.569231 
L 255.458812 119.243077 
L 255.916639 119.243077 
L 256.374467 122.344615 
L 256.832294 122.344615 
L 257.290121 121.569231 
L 257.747949 122.344615 
L 258.205776 117.692308 
L 258.663604 117.692308 
L 259.121431 119.243077 
L 259.579258 116.916923 
L 260.037086 111.489231 
L 260.494913 117.692308 
L 260.95274 117.692308 
L 261.410568 121.569231 
L 261.868395 121.569231 
L 262.326223 118.467692 
L 262.78405 123.12 
L 263.241877 109.938462 
L 263.699705 108.387692 
L 264.157532 119.243077 
L 264.615359 120.018462 
L 265.073187 113.04 
L 265.988841 121.569231 
L 266.446669 120.018462 
L 266.904496 123.12 
L 267.362324 116.916923 
L 267.820151 106.836923 
L 268.277978 122.344615 
L 268.735806 121.569231 
L 269.65146 123.12 
L 270.109288 120.793846 
L 270.567115 108.387692 
L 271.024943 117.692308 
L 271.48277 122.344615 
L 271.940597 122.344615 
L 272.398425 111.489231 
L 272.856252 121.569231 
L 273.314079 122.344615 
L 273.771907 121.569231 
L 275.603216 121.569231 
L 276.061044 120.018462 
L 276.518871 123.12 
L 276.976698 122.344615 
L 277.434526 122.344615 
L 277.892353 123.12 
L 278.350181 123.12 
L 278.808008 122.344615 
L 279.265835 123.12 
L 279.723663 119.243077 
L 280.18149 122.344615 
L 280.639317 120.018462 
L 281.097145 120.018462 
L 281.554972 118.467692 
L 282.012799 120.018462 
L 282.470627 123.12 
L 282.928454 121.569231 
L 283.844109 121.569231 
L 284.301936 123.12 
L 284.759764 122.344615 
L 285.217591 122.344615 
L 285.675418 120.793846 
L 286.133246 122.344615 
L 287.506728 122.344615 
L 287.964555 95.981538 
L 288.422383 120.018462 
L 288.88021 123.12 
L 289.338037 122.344615 
L 289.795865 120.793846 
L 290.253692 123.12 
L 290.71152 120.018462 
L 291.169347 122.344615 
L 291.627174 119.243077 
L 292.085002 118.467692 
L 292.542829 118.467692 
L 293.000656 117.692308 
L 293.458484 108.387692 
L 293.916311 108.387692 
L 294.374138 118.467692 
L 294.831966 120.793846 
L 295.289793 122.344615 
L 295.747621 110.713846 
L 296.205448 120.018462 
L 296.663275 122.344615 
L 297.121103 122.344615 
L 297.57893 121.569231 
L 298.036757 121.569231 
L 298.494585 122.344615 
L 298.952412 122.344615 
L 299.41024 120.018462 
L 299.868067 123.12 
L 300.325894 122.344615 
L 300.783722 120.018462 
L 301.241549 120.018462 
L 301.699376 121.569231 
L 302.615031 108.387692 
L 303.072859 116.916923 
L 303.530686 116.141538 
L 303.988513 111.489231 
L 304.446341 114.590769 
L 305.361995 116.141538 
L 305.819823 115.366154 
L 306.27765 110.713846 
L 306.735478 113.04 
L 307.193305 120.018462 
L 307.651132 120.793846 
L 308.10896 119.243077 
L 308.566787 119.243077 
L 309.024614 116.916923 
L 309.482442 118.467692 
L 309.940269 113.815385 
L 310.398096 117.692308 
L 310.855924 118.467692 
L 311.313751 115.366154 
L 311.771579 108.387692 
L 312.229406 115.366154 
L 312.687233 118.467692 
L 313.602888 115.366154 
L 314.060715 118.467692 
L 314.518543 113.04 
L 314.97637 118.467692 
L 315.434198 115.366154 
L 316.349852 121.569231 
L 316.80768 113.04 
L 317.265507 121.569231 
L 317.723334 120.018462 
L 318.181162 120.793846 
L 318.638989 117.692308 
L 319.096817 116.916923 
L 319.554644 104.510769 
L 320.012471 102.184615 
L 320.470299 116.141538 
L 320.928126 95.206154 
L 321.385953 121.569231 
L 321.843781 120.018462 
L 322.301608 121.569231 
L 322.759436 101.409231 
L 323.217263 102.184615 
L 324.132918 122.344615 
L 324.590745 120.018462 
L 325.048572 113.815385 
L 325.5064 120.018462 
L 325.964227 120.018462 
L 326.422054 102.184615 
L 326.879882 115.366154 
L 327.337709 117.692308 
L 328.253364 119.243077 
L 328.711191 119.243077 
L 329.169019 117.692308 
L 330.542501 122.344615 
L 331.000328 116.916923 
L 331.458156 122.344615 
L 331.915983 122.344615 
L 332.831638 120.793846 
L 333.289465 123.12 
L 333.747292 120.793846 
L 334.20512 119.243077 
L 334.662947 121.569231 
L 335.120775 122.344615 
L 335.578602 122.344615 
L 336.036429 116.916923 
L 336.494257 123.12 
L 336.952084 106.061538 
L 337.409911 121.569231 
L 337.867739 122.344615 
L 338.325566 120.018462 
L 338.783394 120.018462 
L 339.241221 120.793846 
L 339.699048 122.344615 
L 340.156876 117.692308 
L 340.614703 121.569231 
L 341.07253 120.018462 
L 341.530358 120.793846 
L 341.988185 105.286154 
L 342.446012 121.569231 
L 342.90384 119.243077 
L 343.361667 123.12 
L 343.819495 123.12 
L 344.277322 122.344615 
L 344.735149 116.916923 
L 345.192977 122.344615 
L 345.650804 117.692308 
L 346.108631 120.018462 
L 346.566459 123.12 
L 347.024286 120.018462 
L 347.939941 120.018462 
L 348.397768 117.692308 
L 348.855596 116.141538 
L 349.313423 120.793846 
L 349.77125 120.793846 
L 350.229078 120.018462 
L 350.686905 121.569231 
L 351.144733 121.569231 
L 351.60256 120.018462 
L 352.060387 117.692308 
L 352.518215 117.692308 
L 352.976042 119.243077 
L 353.433869 122.344615 
L 354.349524 122.344615 
L 354.807351 108.387692 
L 355.265179 75.821538 
L 355.723006 91.329231 
L 356.180834 119.243077 
L 356.638661 121.569231 
L 357.096488 120.018462 
L 358.012143 109.163077 
L 358.46997 118.467692 
L 358.927798 105.286154 
L 359.385625 88.227692 
L 359.843453 120.018462 
L 360.30128 87.452308 
L 360.759107 113.815385 
L 361.216935 122.344615 
L 361.674762 78.147692 
L 362.132589 102.96 
L 362.590417 111.489231 
L 363.048244 73.495385 
L 363.506072 119.243077 
L 363.963899 120.018462 
L 364.421726 102.184615 
L 364.879554 113.04 
L 365.337381 99.858462 
L 365.795208 113.04 
L 366.253036 120.793846 
L 366.710863 56.436923 
L 367.168691 119.243077 
L 367.626518 120.018462 
L 368.084345 120.018462 
L 368.542173 114.590769 
L 369 118.467692 
L 369.457827 107.612308 
L 369.915655 118.467692 
L 370.373482 120.793846 
L 370.831309 102.96 
L 371.289137 102.96 
L 371.746964 114.590769 
L 372.204792 100.633846 
L 372.662619 119.243077 
L 373.120446 120.018462 
L 373.578274 102.96 
L 374.036101 123.12 
L 374.493928 121.569231 
L 374.951756 120.793846 
L 375.409583 119.243077 
L 375.867411 121.569231 
L 376.325238 120.793846 
L 376.783065 119.243077 
L 377.240893 115.366154 
L 377.69872 117.692308 
L 378.156547 110.713846 
L 379.072202 122.344615 
L 379.53003 123.12 
L 379.987857 116.916923 
L 380.903512 121.569231 
L 381.361339 123.12 
L 381.819166 119.243077 
L 382.276994 122.344615 
L 382.734821 119.243077 
L 383.192649 123.12 
L 384.108303 121.569231 
L 384.566131 123.12 
L 385.023958 123.12 
L 385.481785 121.569231 
L 386.39744 120.018462 
L 386.855267 120.018462 
L 387.313095 120.793846 
L 387.770922 120.793846 
L 388.22875 123.12 
L 388.686577 121.569231 
L 389.144404 96.756923 
L 389.602232 120.793846 
L 390.060059 122.344615 
L 390.975714 122.344615 
L 391.433541 118.467692 
L 391.891369 119.243077 
L 392.349196 110.713846 
L 392.807023 121.569231 
L 393.264851 117.692308 
L 393.722678 122.344615 
L 394.180505 123.12 
L 394.638333 120.793846 
L 395.09616 121.569231 
L 395.553988 117.692308 
L 396.011815 119.243077 
L 396.469642 121.569231 
L 396.92747 122.344615 
L 397.385297 121.569231 
L 397.843124 118.467692 
L 398.300952 120.018462 
L 398.758779 119.243077 
L 399.216606 120.793846 
L 399.674434 116.916923 
L 400.132261 118.467692 
L 400.590089 123.12 
L 401.047916 119.243077 
L 401.505743 120.018462 
L 401.963571 111.489231 
L 402.421398 122.344615 
L 402.879225 119.243077 
L 403.337053 119.243077 
L 403.79488 120.018462 
L 404.252708 112.264615 
L 404.710535 99.858462 
L 405.168362 120.018462 
L 405.62619 122.344615 
L 406.084017 117.692308 
L 406.541844 121.569231 
L 406.999672 120.793846 
L 407.457499 120.793846 
L 407.915327 123.12 
L 408.830981 121.569231 
L 409.288809 120.018462 
L 409.746636 122.344615 
L 410.204463 120.018462 
L 410.662291 122.344615 
L 411.120118 120.018462 
L 411.577946 123.12 
L 412.035773 120.018462 
L 412.4936 121.569231 
L 412.951428 121.569231 
L 413.409255 120.018462 
L 413.867082 123.12 
L 414.32491 120.018462 
L 414.782737 121.569231 
L 415.240564 116.916923 
L 415.698392 122.344615 
L 416.156219 116.141538 
L 416.614047 99.858462 
L 417.071874 122.344615 
L 417.529701 123.12 
L 417.987529 121.569231 
L 418.445356 117.692308 
L 418.903183 121.569231 
L 419.818838 123.12 
L 420.276666 116.916923 
L 420.734493 121.569231 
L 421.19232 120.793846 
L 422.107975 108.387692 
L 422.565802 118.467692 
L 423.02363 121.569231 
L 423.481457 121.569231 
L 423.939285 117.692308 
L 424.397112 91.329231 
L 424.854939 110.713846 
L 425.312767 117.692308 
L 425.770594 120.793846 
L 426.228421 120.793846 
L 426.686249 98.307692 
L 427.144076 120.018462 
L 427.601904 122.344615 
L 428.517558 122.344615 
L 428.975386 120.793846 
L 429.433213 120.018462 
L 429.89104 121.569231 
L 430.348868 119.243077 
L 430.806695 120.793846 
L 431.264522 123.12 
L 431.72235 121.569231 
L 432.180177 118.467692 
L 432.638005 121.569231 
L 433.095832 117.692308 
L 433.553659 117.692308 
L 434.011487 119.243077 
L 434.469314 121.569231 
L 434.927141 107.612308 
L 435.384969 120.018462 
L 435.842796 110.713846 
L 436.300624 117.692308 
L 436.758451 119.243077 
L 437.216278 111.489231 
L 437.674106 121.569231 
L 438.58976 114.590769 
L 439.047588 120.018462 
L 439.505415 116.916923 
L 439.963243 110.713846 
L 440.42107 109.938462 
L 440.878897 119.243077 
L 441.336725 105.286154 
L 441.794552 111.489231 
L 442.252379 120.793846 
L 442.710207 109.938462 
L 443.168034 122.344615 
L 443.625862 121.569231 
L 444.083689 114.590769 
L 444.541516 116.916923 
L 444.999344 101.409231 
L 445.457171 114.590769 
L 445.914998 113.815385 
L 446.372826 113.815385 
L 446.830653 115.366154 
L 447.28848 119.243077 
L 447.746308 120.018462 
L 448.204135 117.692308 
L 448.661963 119.243077 
L 449.11979 113.04 
L 449.577617 120.018462 
L 450.035445 115.366154 
L 450.493272 109.163077 
L 450.951099 115.366154 
L 451.408927 116.141538 
L 451.866754 115.366154 
L 452.324582 122.344615 
L 452.782409 117.692308 
L 453.240236 121.569231 
L 453.698064 120.793846 
L 454.155891 113.815385 
L 454.613718 113.04 
L 455.071546 101.409231 
L 455.529373 113.04 
L 455.987201 110.713846 
L 456.445028 118.467692 
L 456.902855 120.018462 
L 457.360683 119.243077 
L 457.81851 119.243077 
L 458.276337 122.344615 
L 458.734165 119.243077 
L 459.191992 109.163077 
L 459.649819 119.243077 
L 460.565474 119.243077 
L 461.023302 122.344615 
L 461.481129 123.12 
L 461.938956 122.344615 
L 462.396784 118.467692 
L 462.854611 106.836923 
L 463.312438 120.018462 
L 463.770266 120.018462 
L 464.228093 123.12 
L 464.685921 123.12 
L 465.143748 98.307692 
L 465.601575 106.836923 
L 466.059403 117.692308 
L 466.51723 113.04 
L 467.432885 122.344615 
L 467.890712 121.569231 
L 468.34854 122.344615 
L 468.806367 116.141538 
L 469.264194 122.344615 
L 469.722022 120.793846 
L 470.179849 121.569231 
L 470.637676 123.12 
L 471.095504 100.633846 
L 471.553331 120.018462 
L 472.011159 111.489231 
L 472.468986 111.489231 
L 472.926813 114.590769 
L 473.384641 120.793846 
L 473.842468 121.569231 
L 474.300295 116.141538 
L 474.758123 118.467692 
L 475.21595 117.692308 
L 475.673777 116.141538 
L 476.131605 122.344615 
L 476.589432 120.018462 
L 477.04726 121.569231 
L 477.962914 123.12 
L 479.794224 120.018462 
L 480.709879 105.286154 
L 481.167706 118.467692 
L 481.625533 116.141538 
L 482.083361 122.344615 
L 482.541188 116.141538 
L 482.999015 123.12 
L 483.456843 121.569231 
L 484.372498 120.018462 
L 484.830325 120.793846 
L 485.288152 120.018462 
L 485.74598 118.467692 
L 486.203807 107.612308 
L 486.661634 118.467692 
L 487.119462 117.692308 
L 487.577289 106.061538 
L 488.035117 122.344615 
L 488.492944 114.590769 
L 488.950771 122.344615 
L 489.408599 118.467692 
L 489.866426 121.569231 
L 490.324253 123.12 
L 490.782081 120.793846 
L 491.239908 122.344615 
L 491.697735 120.018462 
L 492.155563 123.12 
L 493.071218 123.12 
L 493.529045 120.018462 
L 493.986872 123.12 
L 494.4447 118.467692 
L 494.902527 123.12 
L 495.360354 122.344615 
L 495.818182 120.018462 
L 496.276009 107.612308 
L 496.733837 123.12 
L 497.191664 123.12 
L 497.649491 112.264615 
L 498.107319 113.04 
L 498.565146 110.713846 
L 499.022973 113.815385 
L 499.480801 122.344615 
L 499.938628 112.264615 
L 500.396456 120.018462 
L 500.854283 121.569231 
L 501.31211 122.344615 
L 501.769938 122.344615 
L 502.227765 123.12 
L 502.685592 122.344615 
L 503.14342 119.243077 
L 503.601247 121.569231 
L 504.516902 123.12 
L 504.974729 123.12 
L 505.432557 117.692308 
L 505.890384 118.467692 
L 506.348211 121.569231 
L 507.263866 121.569231 
L 507.721693 120.793846 
L 508.179521 120.793846 
L 508.637348 116.141538 
L 509.095176 122.344615 
L 509.553003 105.286154 
L 510.01083 118.467692 
L 510.468658 122.344615 
L 510.926485 119.243077 
L 511.384312 120.018462 
L 512.299967 113.04 
L 512.757795 118.467692 
L 513.215622 103.735385 
L 513.673449 123.12 
L 514.131277 117.692308 
L 515.046931 102.96 
L 515.504759 110.713846 
L 515.962586 82.8 
L 516.420414 116.141538 
L 516.878241 123.12 
L 517.336068 93.655385 
L 517.793896 113.04 
L 518.251723 109.163077 
L 518.70955 110.713846 
L 519.167378 117.692308 
L 519.625205 113.815385 
L 520.083032 122.344615 
L 520.54086 106.836923 
L 520.998687 112.264615 
L 521.456515 112.264615 
L 521.914342 107.612308 
L 522.372169 108.387692 
L 522.829997 121.569231 
L 523.287824 123.12 
L 523.745651 92.104615 
L 524.203479 22.32 
L 524.661306 102.184615 
L 525.119134 106.836923 
L 525.576961 106.061538 
L 526.034788 120.018462 
L 526.492616 120.793846 
L 526.950443 92.88 
L 527.40827 73.495385 
L 527.866098 110.713846 
L 528.323925 108.387692 
L 528.781753 103.735385 
L 529.23958 120.018462 
L 529.697407 123.12 
L 530.155235 85.901538 
L 531.070889 90.553846 
L 531.986544 120.018462 
L 532.444372 121.569231 
L 532.902199 122.344615 
L 533.360026 117.692308 
L 533.817854 106.836923 
L 534.275681 113.04 
L 534.733508 90.553846 
L 535.191336 92.88 
L 535.649163 121.569231 
L 536.10699 120.018462 
L 536.564818 101.409231 
L 537.022645 115.366154 
L 537.480473 96.756923 
L 537.9383 116.141538 
L 538.396127 123.12 
L 538.853955 123.12 
L 539.311782 116.141538 
L 539.769609 105.286154 
L 540.227437 118.467692 
L 540.685264 118.467692 
L 541.143092 121.569231 
L 541.600919 123.12 
L 542.058746 123.12 
L 542.516574 121.569231 
L 542.974401 113.815385 
L 543.432228 120.793846 
L 543.890056 123.12 
L 544.347883 99.083077 
L 544.805711 117.692308 
L 545.263538 116.141538 
L 545.721365 95.981538 
L 546.179193 114.590769 
L 546.63702 122.344615 
L 547.094847 120.793846 
L 547.552675 123.12 
L 548.010502 121.569231 
L 548.46833 100.633846 
L 548.926157 98.307692 
L 549.383984 115.366154 
L 549.841812 109.938462 
L 550.299639 116.916923 
L 550.757466 106.836923 
L 551.215294 120.793846 
L 551.673121 114.590769 
L 552.130948 121.569231 
L 552.588776 120.793846 
L 553.046603 121.569231 
L 553.504431 123.12 
L 553.962258 105.286154 
L 554.420085 111.489231 
L 554.877913 120.793846 
L 555.33574 122.344615 
L 556.709222 122.344615 
L 557.16705 119.243077 
L 557.624877 94.430769 
L 558.082704 118.467692 
L 558.540532 111.489231 
L 558.998359 118.467692 
L 559.456186 120.018462 
L 559.914014 120.793846 
L 560.371841 119.243077 
L 560.829669 121.569231 
L 561.287496 122.344615 
L 561.745323 120.018462 
L 562.203151 122.344615 
L 562.660978 109.938462 
L 563.118805 119.243077 
L 563.576633 117.692308 
L 564.03446 120.793846 
L 564.492287 95.981538 
L 564.950115 120.018462 
L 565.407942 120.793846 
L 565.86577 119.243077 
L 566.323597 120.793846 
L 566.781424 119.243077 
L 567.239252 97.532308 
L 567.697079 116.141538 
L 568.154906 118.467692 
L 568.612734 120.018462 
L 569.070561 116.141538 
L 569.528389 120.018462 
L 569.986216 120.018462 
L 570.444043 120.793846 
L 570.901871 119.243077 
L 571.359698 119.243077 
L 571.817525 120.793846 
L 572.275353 119.243077 
L 572.73318 119.243077 
L 573.191008 120.018462 
L 573.648835 108.387692 
L 574.106662 113.815385 
L 574.56449 122.344615 
L 575.022317 121.569231 
L 575.480144 120.018462 
L 575.937972 121.569231 
L 576.395799 120.018462 
L 576.853627 121.569231 
L 577.311454 116.141538 
L 577.769281 115.366154 
L 578.227109 109.938462 
L 578.684936 119.243077 
L 579.142763 120.793846 
L 579.600591 117.692308 
L 580.058418 115.366154 
L 580.516245 118.467692 
L 580.974073 119.243077 
L 581.4319 121.569231 
L 581.889728 121.569231 
L 582.347555 116.141538 
L 582.805382 92.104615 
L 583.26321 117.692308 
L 583.721037 117.692308 
L 584.178864 115.366154 
L 584.636692 120.793846 
L 585.094519 120.793846 
L 585.552347 117.692308 
L 586.010174 120.793846 
L 586.468001 81.249231 
L 586.925829 120.793846 
L 587.383656 122.344615 
L 587.841483 121.569231 
L 588.299311 121.569231 
L 588.757138 102.96 
L 589.214966 113.815385 
L 589.672793 120.018462 
L 590.13062 121.569231 
L 590.588448 122.344615 
L 591.046275 112.264615 
L 591.504102 119.243077 
L 591.96193 122.344615 
L 592.419757 106.836923 
L 592.877585 115.366154 
L 593.335412 119.243077 
L 593.793239 98.307692 
L 594.251067 122.344615 
L 594.708894 123.12 
L 595.166721 120.793846 
L 596.082376 122.344615 
L 596.540203 119.243077 
L 596.998031 118.467692 
L 597.455858 120.793846 
L 597.913686 122.344615 
L 598.371513 121.569231 
L 598.82934 122.344615 
L 599.287168 122.344615 
L 599.744995 123.12 
L 600.202822 123.12 
L 600.66065 120.018462 
L 601.118477 65.741538 
L 601.576305 110.713846 
L 602.034132 112.264615 
L 602.491959 116.141538 
L 602.949787 106.836923 
L 603.407614 112.264615 
L 603.865441 112.264615 
L 604.323269 104.510769 
L 604.781096 117.692308 
L 605.238924 105.286154 
L 605.696751 120.793846 
L 606.154578 116.916923 
L 606.612406 115.366154 
L 607.070233 120.793846 
L 607.52806 119.243077 
L 607.985888 116.916923 
L 608.443715 120.018462 
L 608.901543 120.793846 
L 609.35937 104.510769 
L 609.817197 117.692308 
L 610.275025 105.286154 
L 610.732852 116.916923 
L 611.190679 107.612308 
L 611.648507 117.692308 
L 612.106334 118.467692 
L 612.564161 108.387692 
L 613.021989 109.163077 
L 613.479816 117.692308 
L 613.937644 120.793846 
L 614.395471 116.916923 
L 614.853298 117.692308 
L 615.311126 123.12 
L 615.768953 117.692308 
L 616.22678 96.756923 
L 616.684608 116.141538 
L 617.142435 118.467692 
L 617.600263 114.590769 
L 618.05809 117.692308 
L 618.515917 119.243077 
L 618.973745 108.387692 
L 619.431572 118.467692 
L 619.889399 107.612308 
L 620.347227 116.141538 
L 620.805054 117.692308 
L 621.262882 107.612308 
L 621.720709 117.692308 
L 622.178536 95.206154 
L 622.636364 102.96 
L 622.636364 102.96 
" clip-path="url(#pc175cf4467)" style="fill: none; stroke: #1f77b4; stroke-width: 1.5; stroke-linecap: square"/>
   </g>
   <g id="patch_3">
    <path d="M 90 128.16 
L 90 17.28 
" style="fill: none; stroke: #000000; stroke-width: 0.8; stroke-linejoin: miter; stroke-linecap: square"/>
   </g>
   <g id="patch_4">
    <path d="M 648 128.16 
L 648 17.28 
" style="fill: none; stroke: #000000; stroke-width: 0.8; stroke-linejoin: miter; stroke-linecap: square"/>
   </g>
   <g id="patch_5">
    <path d="M 90 128.16 
L 648 128.16 
" style="fill: none; stroke: #000000; stroke-width: 0.8; stroke-linejoin: miter; stroke-linecap: square"/>
   </g>
   <g id="patch_6">
    <path d="M 90 17.28 
L 648 17.28 
" style="fill: none; stroke: #000000; stroke-width: 0.8; stroke-linejoin: miter; stroke-linecap: square"/>
   </g>
   <g id="legend_1">
    <g id="patch_7">
     <path d="M 97 39.958125 
L 264.190625 39.958125 
Q 266.190625 39.958125 266.190625 37.958125 
L 266.190625 24.28 
Q 266.190625 22.28 264.190625 22.28 
L 97 22.28 
Q 95 22.28 95 24.28 
L 95 37.958125 
Q 95 39.958125 97 39.958125 
z
" style="fill: #ffffff; opacity: 0.8; stroke: #cccccc; stroke-linejoin: miter"/>
    </g>
    <g id="line2d_11">
     <path d="M 99 30.378437 
L 109 30.378437 
L 119 30.378437 
" style="fill: none; stroke: #1f77b4; stroke-width: 1.5; stroke-linecap: square"/>
    </g>
    <g id="text_11">
     <!-- Number of PyPI Downloads -->
     <g transform="translate(127 33.878437) scale(0.1 -0.1)">
      <defs>
       <path id="DejaVuSans-4e" d="M 628 4666 
L 1478 4666 
L 3547 763 
L 3547 4666 
L 4159 4666 
L 4159 0 
L 3309 0 
L 1241 3903 
L 1241 0 
L 628 0 
L 628 4666 
z
" transform="scale(0.015625)"/>
       <path id="DejaVuSans-75" d="M 544 1381 
L 544 3500 
L 1119 3500 
L 1119 1403 
Q 1119 906 1312 657 
Q 1506 409 1894 409 
Q 2359 409 2629 706 
Q 2900 1003 2900 1516 
L 2900 3500 
L 3475 3500 
L 3475 0 
L 2900 0 
L 2900 538 
Q 2691 219 2414 64 
Q 2138 -91 1772 -91 
Q 1169 -91 856 284 
Q 544 659 544 1381 
z
M 1991 3584 
L 1991 3584 
z
" transform="scale(0.015625)"/>
       <path id="DejaVuSans-6d" d="M 3328 2828 
Q 3544 3216 3844 3400 
Q 4144 3584 4550 3584 
Q 5097 3584 5394 3201 
Q 5691 2819 5691 2113 
L 5691 0 
L 5113 0 
L 5113 2094 
Q 5113 2597 4934 2840 
Q 4756 3084 4391 3084 
Q 3944 3084 3684 2787 
Q 3425 2491 3425 1978 
L 3425 0 
L 2847 0 
L 2847 2094 
Q 2847 2600 2669 2842 
Q 2491 3084 2119 3084 
Q 1678 3084 1418 2786 
Q 1159 2488 1159 1978 
L 1159 0 
L 581 0 
L 581 3500 
L 1159 3500 
L 1159 2956 
Q 1356 3278 1631 3431 
Q 1906 3584 2284 3584 
Q 2666 3584 2933 3390 
Q 3200 3197 3328 2828 
z
" transform="scale(0.015625)"/>
       <path id="DejaVuSans-62" d="M 3116 1747 
Q 3116 2381 2855 2742 
Q 2594 3103 2138 3103 
Q 1681 3103 1420 2742 
Q 1159 2381 1159 1747 
Q 1159 1113 1420 752 
Q 1681 391 2138 391 
Q 2594 391 2855 752 
Q 3116 1113 3116 1747 
z
M 1159 2969 
Q 1341 3281 1617 3432 
Q 1894 3584 2278 3584 
Q 2916 3584 3314 3078 
Q 3713 2572 3713 1747 
Q 3713 922 3314 415 
Q 2916 -91 2278 -91 
Q 1894 -91 1617 61 
Q 1341 213 1159 525 
L 1159 0 
L 581 0 
L 581 4863 
L 1159 4863 
L 1159 2969 
z
" transform="scale(0.015625)"/>
       <path id="DejaVuSans-72" d="M 2631 2963 
Q 2534 3019 2420 3045 
Q 2306 3072 2169 3072 
Q 1681 3072 1420 2755 
Q 1159 2438 1159 1844 
L 1159 0 
L 581 0 
L 581 3500 
L 1159 3500 
L 1159 2956 
Q 1341 3275 1631 3429 
Q 1922 3584 2338 3584 
Q 2397 3584 2469 3576 
Q 2541 3569 2628 3553 
L 2631 2963 
z
" transform="scale(0.015625)"/>
       <path id="DejaVuSans-20" transform="scale(0.015625)"/>
       <path id="DejaVuSans-6f" d="M 1959 3097 
Q 1497 3097 1228 2736 
Q 959 2375 959 1747 
Q 959 1119 1226 758 
Q 1494 397 1959 397 
Q 2419 397 2687 759 
Q 2956 1122 2956 1747 
Q 2956 2369 2687 2733 
Q 2419 3097 1959 3097 
z
M 1959 3584 
Q 2709 3584 3137 3096 
Q 3566 2609 3566 1747 
Q 3566 888 3137 398 
Q 2709 -91 1959 -91 
Q 1206 -91 779 398 
Q 353 888 353 1747 
Q 353 2609 779 3096 
Q 1206 3584 1959 3584 
z
" transform="scale(0.015625)"/>
       <path id="DejaVuSans-66" d="M 2375 4863 
L 2375 4384 
L 1825 4384 
Q 1516 4384 1395 4259 
Q 1275 4134 1275 3809 
L 1275 3500 
L 2222 3500 
L 2222 3053 
L 1275 3053 
L 1275 0 
L 697 0 
L 697 3053 
L 147 3053 
L 147 3500 
L 697 3500 
L 697 3744 
Q 697 4328 969 4595 
Q 1241 4863 1831 4863 
L 2375 4863 
z
" transform="scale(0.015625)"/>
       <path id="DejaVuSans-50" d="M 1259 4147 
L 1259 2394 
L 2053 2394 
Q 2494 2394 2734 2622 
Q 2975 2850 2975 3272 
Q 2975 3691 2734 3919 
Q 2494 4147 2053 4147 
L 1259 4147 
z
M 628 4666 
L 2053 4666 
Q 2838 4666 3239 4311 
Q 3641 3956 3641 3272 
Q 3641 2581 3239 2228 
Q 2838 1875 2053 1875 
L 1259 1875 
L 1259 0 
L 628 0 
L 628 4666 
z
" transform="scale(0.015625)"/>
       <path id="DejaVuSans-79" d="M 2059 -325 
Q 1816 -950 1584 -1140 
Q 1353 -1331 966 -1331 
L 506 -1331 
L 506 -850 
L 844 -850 
Q 1081 -850 1212 -737 
Q 1344 -625 1503 -206 
L 1606 56 
L 191 3500 
L 800 3500 
L 1894 763 
L 2988 3500 
L 3597 3500 
L 2059 -325 
z
" transform="scale(0.015625)"/>
       <path id="DejaVuSans-49" d="M 628 4666 
L 1259 4666 
L 1259 0 
L 628 0 
L 628 4666 
z
" transform="scale(0.015625)"/>
       <path id="DejaVuSans-44" d="M 1259 4147 
L 1259 519 
L 2022 519 
Q 2988 519 3436 956 
Q 3884 1394 3884 2338 
Q 3884 3275 3436 3711 
Q 2988 4147 2022 4147 
L 1259 4147 
z
M 628 4666 
L 1925 4666 
Q 3281 4666 3915 4102 
Q 4550 3538 4550 2338 
Q 4550 1131 3912 565 
Q 3275 0 1925 0 
L 628 0 
L 628 4666 
z
" transform="scale(0.015625)"/>
       <path id="DejaVuSans-77" d="M 269 3500 
L 844 3500 
L 1563 769 
L 2278 3500 
L 2956 3500 
L 3675 769 
L 4391 3500 
L 4966 3500 
L 4050 0 
L 3372 0 
L 2619 2869 
L 1863 0 
L 1184 0 
L 269 3500 
z
" transform="scale(0.015625)"/>
       <path id="DejaVuSans-6e" d="M 3513 2113 
L 3513 0 
L 2938 0 
L 2938 2094 
Q 2938 2591 2744 2837 
Q 2550 3084 2163 3084 
Q 1697 3084 1428 2787 
Q 1159 2491 1159 1978 
L 1159 0 
L 581 0 
L 581 3500 
L 1159 3500 
L 1159 2956 
Q 1366 3272 1645 3428 
Q 1925 3584 2291 3584 
Q 2894 3584 3203 3211 
Q 3513 2838 3513 2113 
z
" transform="scale(0.015625)"/>
       <path id="DejaVuSans-6c" d="M 603 4863 
L 1178 4863 
L 1178 0 
L 603 0 
L 603 4863 
z
" transform="scale(0.015625)"/>
       <path id="DejaVuSans-73" d="M 2834 3397 
L 2834 2853 
Q 2591 2978 2328 3040 
Q 2066 3103 1784 3103 
Q 1356 3103 1142 2972 
Q 928 2841 928 2578 
Q 928 2378 1081 2264 
Q 1234 2150 1697 2047 
L 1894 2003 
Q 2506 1872 2764 1633 
Q 3022 1394 3022 966 
Q 3022 478 2636 193 
Q 2250 -91 1575 -91 
Q 1294 -91 989 -36 
Q 684 19 347 128 
L 347 722 
Q 666 556 975 473 
Q 1284 391 1588 391 
Q 1994 391 2212 530 
Q 2431 669 2431 922 
Q 2431 1156 2273 1281 
Q 2116 1406 1581 1522 
L 1381 1569 
Q 847 1681 609 1914 
Q 372 2147 372 2553 
Q 372 3047 722 3315 
Q 1072 3584 1716 3584 
Q 2034 3584 2315 3537 
Q 2597 3491 2834 3397 
z
" transform="scale(0.015625)"/>
      </defs>
      <use xlink:href="#DejaVuSans-4e"/>
      <use xlink:href="#DejaVuSans-75" x="74.804688"/>
      <use xlink:href="#DejaVuSans-6d" x="138.183594"/>
      <use xlink:href="#DejaVuSans-62" x="235.595703"/>
      <use xlink:href="#DejaVuSans-65" x="299.072266"/>
      <use xlink:href="#DejaVuSans-72" x="360.595703"/>
      <use xlink:href="#DejaVuSans-20" x="401.708984"/>
      <use xlink:href="#DejaVuSans-6f" x="433.496094"/>
      <use xlink:href="#DejaVuSans-66" x="494.677734"/>
      <use xlink:href="#DejaVuSans-20" x="529.882812"/>
      <use xlink:href="#DejaVuSans-50" x="561.669922"/>
      <use xlink:href="#DejaVuSans-79" x="621.972656"/>
      <use xlink:href="#DejaVuSans-50" x="681.152344"/>
      <use xlink:href="#DejaVuSans-49" x="741.455078"/>
      <use xlink:href="#DejaVuSans-20" x="770.947266"/>
      <use xlink:href="#DejaVuSans-44" x="802.734375"/>
      <use xlink:href="#DejaVuSans-6f" x="879.736328"/>
      <use xlink:href="#DejaVuSans-77" x="940.917969"/>
      <use xlink:href="#DejaVuSans-6e" x="1022.705078"/>
      <use xlink:href="#DejaVuSans-6c" x="1086.083984"/>
      <use xlink:href="#DejaVuSans-6f" x="1113.867188"/>
      <use xlink:href="#DejaVuSans-61" x="1175.048828"/>
      <use xlink:href="#DejaVuSans-64" x="1236.328125"/>
      <use xlink:href="#DejaVuSans-73" x="1299.804688"/>
     </g>
    </g>
   </g>
  </g>
 </g>
 <defs>
  <clipPath id="pc175cf4467">
   <rect x="90" y="17.28" width="558" height="110.88"/>
  </clipPath>
 </defs>
</svg>
