<?xml version="1.0" encoding="UTF-8" standalone="no"?>
<!DOCTYPE svg PUBLIC "-//W3C//DTD SVG 1.1//EN"
 "http://www.w3.org/Graphics/SVG/1.1/DTD/svg11.dtd">
<!-- Generated by graphviz version 2.43.0 (0)
 -->
<!-- Title: classes_user_uml Pages: 1 -->
<svg width="2412pt" height="860pt"
 viewBox="0.00 0.00 2412.00 860.00" xmlns="http://www.w3.org/2000/svg" xmlns:xlink="http://www.w3.org/1999/xlink">
<g id="graph0" class="graph" transform="scale(1 1) rotate(0) translate(4 856)">
<title>classes_user_uml</title>
<polygon fill="white" stroke="transparent" points="-4,4 -4,-856 2408,-856 2408,4 -4,4"/>
<!-- icepyx.core.auth.AuthenticationError -->
<g id="node1" class="node">
<title>icepyx.core.auth.AuthenticationError</title>
<polygon fill="none" stroke="black" points="0,-74.6 0,-145.4 161,-145.4 161,-74.6 0,-74.6"/>
<text text-anchor="start" x="8" y="-130.2" font-family="Times,serif" font-size="14.00" fill="red">AuthenticationError</text>
<polyline fill="none" stroke="black" points="0,-122.4 161,-122.4 "/>
<polyline fill="none" stroke="black" points="0,-97.6 161,-97.6 "/>
<text text-anchor="start" x="78" y="-82.4" font-family="Times,serif" font-size="14.00" fill="red"> </text>
</g>
<!-- icepyx.core.exceptions.DeprecationError -->
<g id="node2" class="node">
<title>icepyx.core.exceptions.DeprecationError</title>
<polygon fill="none" stroke="black" points="179,-74.6 179,-145.4 322,-145.4 322,-74.6 179,-74.6"/>
<text text-anchor="start" x="187" y="-130.2" font-family="Times,serif" font-size="14.00" fill="red">DeprecationError</text>
<polyline fill="none" stroke="black" points="179,-122.4 322,-122.4 "/>
<polyline fill="none" stroke="black" points="179,-97.6 322,-97.6 "/>
<text text-anchor="start" x="248" y="-82.4" font-family="Times,serif" font-size="14.00" fill="red"> </text>
</g>
<!-- icepyx.core.auth.EarthdataAuthMixin -->
<g id="node3" class="node">
<title>icepyx.core.auth.EarthdataAuthMixin</title>
<polygon fill="none" stroke="black" points="1280,-752.5 1280,-851.5 1601,-851.5 1601,-752.5 1280,-752.5"/>
<text text-anchor="start" x="1367" y="-836.3" font-family="Times,serif" font-size="14.00">EarthdataAuthMixin</text>
<polyline fill="none" stroke="black" points="1280,-828.5 1601,-828.5 "/>
<text text-anchor="start" x="1371" y="-813.3" font-family="Times,serif" font-size="14.00">auth</text>
<text text-anchor="start" x="1371" y="-798.3" font-family="Times,serif" font-size="14.00">s3login_credentials</text>
<text text-anchor="start" x="1371" y="-783.3" font-family="Times,serif" font-size="14.00">session</text>
<polyline fill="none" stroke="black" points="1280,-775.5 1601,-775.5 "/>
<text text-anchor="start" x="1288" y="-760.3" font-family="Times,serif" font-size="14.00">earthdata_login(uid, email, s3token): None</text>
</g>
<!-- icepyx.core.query.GenQuery -->
<g id="node4" class="node">
<title>icepyx.core.query.GenQuery</title>
<polygon fill="none" stroke="black" points="850,-766.6 850,-837.4 939,-837.4 939,-766.6 850,-766.6"/>
<text text-anchor="start" x="858" y="-822.2" font-family="Times,serif" font-size="14.00">GenQuery</text>
<polyline fill="none" stroke="black" points="850,-814.4 939,-814.4 "/>
<polyline fill="none" stroke="black" points="850,-789.6 939,-789.6 "/>
<text text-anchor="start" x="892" y="-774.4" font-family="Times,serif" font-size="14.00"> </text>
</g>
<!-- icepyx.core.granules.Granules -->
<g id="node5" class="node">
<title>icepyx.core.granules.Granules</title>
<polygon fill="none" stroke="black" points="339.5,-53 339.5,-167 1025.5,-167 1025.5,-53 339.5,-53"/>
<text text-anchor="start" x="650" y="-151.8" font-family="Times,serif" font-size="14.00">Granules</text>
<polyline fill="none" stroke="black" points="339.5,-144 1025.5,-144 "/>
<text text-anchor="start" x="632.5" y="-128.8" font-family="Times,serif" font-size="14.00">avail : list</text>
<text text-anchor="start" x="632.5" y="-113.8" font-family="Times,serif" font-size="14.00">orderIDs : list</text>
<polyline fill="none" stroke="black" points="339.5,-106 1025.5,-106 "/>
<text text-anchor="start" x="347.5" y="-90.8" font-family="Times,serif" font-size="14.00">download(verbose, path, session, restart)</text>
<text text-anchor="start" x="347.5" y="-75.8" font-family="Times,serif" font-size="14.00">get_avail(CMRparams, reqparams, cloud)</text>
<text text-anchor="start" x="347.5" y="-60.8" font-family="Times,serif" font-size="14.00">place_order(CMRparams, reqparams, subsetparams, verbose, subset, session, geom_filepath)</text>
</g>
<!-- icepyx.core.query.Query -->
<g id="node9" class="node">
<title>icepyx.core.query.Query</title>
<polygon fill="none" stroke="black" points="993,-271.5 993,-700.5 1370,-700.5 1370,-271.5 993,-271.5"/>
<text text-anchor="start" x="1159.5" y="-685.3" font-family="Times,serif" font-size="14.00">Query</text>
<polyline fill="none" stroke="black" points="993,-677.5 1370,-677.5 "/>
<text text-anchor="start" x="1124" y="-662.3" font-family="Times,serif" font-size="14.00">CMRparams</text>
<text text-anchor="start" x="1124" y="-647.3" font-family="Times,serif" font-size="14.00">cycles</text>
<text text-anchor="start" x="1124" y="-632.3" font-family="Times,serif" font-size="14.00">dataset</text>
<text text-anchor="start" x="1124" y="-617.3" font-family="Times,serif" font-size="14.00">dates</text>
<text text-anchor="start" x="1124" y="-602.3" font-family="Times,serif" font-size="14.00">end_time</text>
<text text-anchor="start" x="1124" y="-587.3" font-family="Times,serif" font-size="14.00">file_vars</text>
<text text-anchor="start" x="1124" y="-572.3" font-family="Times,serif" font-size="14.00">granules</text>
<text text-anchor="start" x="1124" y="-557.3" font-family="Times,serif" font-size="14.00">order_vars</text>
<text text-anchor="start" x="1124" y="-542.3" font-family="Times,serif" font-size="14.00">product</text>
<text text-anchor="start" x="1124" y="-527.3" font-family="Times,serif" font-size="14.00">product_version</text>
<text text-anchor="start" x="1124" y="-512.3" font-family="Times,serif" font-size="14.00">reqparams</text>
<text text-anchor="start" x="1124" y="-497.3" font-family="Times,serif" font-size="14.00">spatial</text>
<text text-anchor="start" x="1124" y="-482.3" font-family="Times,serif" font-size="14.00">spatial_extent</text>
<text text-anchor="start" x="1124" y="-467.3" font-family="Times,serif" font-size="14.00">start_time</text>
<text text-anchor="start" x="1124" y="-452.3" font-family="Times,serif" font-size="14.00">temporal</text>
<text text-anchor="start" x="1124" y="-437.3" font-family="Times,serif" font-size="14.00">tracks</text>
<polyline fill="none" stroke="black" points="993,-429.5 1370,-429.5 "/>
<text text-anchor="start" x="1001" y="-414.3" font-family="Times,serif" font-size="14.00">avail_granules(ids, cycles, tracks, cloud)</text>
<text text-anchor="start" x="1001" y="-399.3" font-family="Times,serif" font-size="14.00">download_granules(path, verbose, subset, restart)</text>
<text text-anchor="start" x="1001" y="-384.3" font-family="Times,serif" font-size="14.00">latest_version()</text>
<text text-anchor="start" x="1001" y="-369.3" font-family="Times,serif" font-size="14.00">order_granules(verbose, subset, email)</text>
<text text-anchor="start" x="1001" y="-354.3" font-family="Times,serif" font-size="14.00">product_all_info()</text>
<text text-anchor="start" x="1001" y="-339.3" font-family="Times,serif" font-size="14.00">product_summary_info()</text>
<text text-anchor="start" x="1001" y="-324.3" font-family="Times,serif" font-size="14.00">show_custom_options(dictview)</text>
<text text-anchor="start" x="1001" y="-309.3" font-family="Times,serif" font-size="14.00">subsetparams()</text>
<text text-anchor="start" x="1001" y="-294.3" font-family="Times,serif" font-size="14.00">visualize_elevation()</text>
<text text-anchor="start" x="1001" y="-279.3" font-family="Times,serif" font-size="14.00">visualize_spatial_extent()</text>
</g>
<!-- icepyx.core.granules.Granules&#45;&gt;icepyx.core.query.Query -->
<g id="edge9" class="edge">
<title>icepyx.core.granules.Granules&#45;&gt;icepyx.core.query.Query</title>
<path fill="none" stroke="black" d="M674.06,-167.08C672.96,-196.83 677.68,-231.56 700.5,-253 744.01,-293.87 907.96,-249.18 981.31,-271.27"/>
<polygon fill="black" stroke="black" points="981.47,-271.33 988.5,-269.74 992.68,-275.61 985.65,-277.21 981.47,-271.33"/>
<text text-anchor="middle" x="735.5" y="-241.8" font-family="Times,serif" font-size="14.00" fill="green">_granules</text>
</g>
<!-- icepyx.core.granules.Granules&#45;&gt;icepyx.core.query.Query -->
<g id="edge10" class="edge">
<title>icepyx.core.granules.Granules&#45;&gt;icepyx.core.query.Query</title>
<path fill="none" stroke="black" d="M716.71,-167.21C738.63,-197.98 769.98,-233.68 807.5,-253 874.13,-287.31 909.72,-240.66 982,-270.92"/>
<polygon fill="black" stroke="black" points="982.04,-270.94 989.16,-269.82 992.93,-275.96 985.81,-277.08 982.04,-270.94"/>
<text text-anchor="middle" x="842.5" y="-241.8" font-family="Times,serif" font-size="14.00" fill="green">_granules</text>
</g>
<!-- icepyx.core.icesat2data.Icesat2Data -->
<g id="node6" class="node">
<title>icepyx.core.icesat2data.Icesat2Data</title>
<polygon fill="none" stroke="black" points="1797.5,-74.6 1797.5,-145.4 1899.5,-145.4 1899.5,-74.6 1797.5,-74.6"/>
<text text-anchor="start" x="1805.5" y="-130.2" font-family="Times,serif" font-size="14.00">Icesat2Data</text>
<polyline fill="none" stroke="black" points="1797.5,-122.4 1899.5,-122.4 "/>
<polyline fill="none" stroke="black" points="1797.5,-97.6 1899.5,-97.6 "/>
<text text-anchor="start" x="1846" y="-82.4" font-family="Times,serif" font-size="14.00"> </text>
</g>
<!-- icepyx.core.exceptions.NsidcQueryError -->
<g id="node7" class="node">
<title>icepyx.core.exceptions.NsidcQueryError</title>
<polygon fill="none" stroke="black" points="1917.5,-68 1917.5,-152 2057.5,-152 2057.5,-68 1917.5,-68"/>
<text text-anchor="start" x="1925.5" y="-136.8" font-family="Times,serif" font-size="14.00" fill="red">NsidcQueryError</text>
<polyline fill="none" stroke="black" points="1917.5,-129 2057.5,-129 "/>
<text text-anchor="start" x="1945" y="-113.8" font-family="Times,serif" font-size="14.00" fill="red">errmsg</text>
<text text-anchor="start" x="1945" y="-98.8" font-family="Times,serif" font-size="14.00" fill="red">msgtxt : str</text>
<polyline fill="none" stroke="black" points="1917.5,-91 2057.5,-91 "/>
<text text-anchor="start" x="1985" y="-75.8" font-family="Times,serif" font-size="14.00" fill="red"> </text>
</g>
<!-- icepyx.core.exceptions.QueryError -->
<g id="node10" class="node">
<title>icepyx.core.exceptions.QueryError</title>
<polygon fill="none" stroke="black" points="1938,-450.6 1938,-521.4 2037,-521.4 2037,-450.6 1938,-450.6"/>
<text text-anchor="start" x="1946" y="-506.2" font-family="Times,serif" font-size="14.00" fill="red">QueryError</text>
<polyline fill="none" stroke="black" points="1938,-498.4 2037,-498.4 "/>
<polyline fill="none" stroke="black" points="1938,-473.6 2037,-473.6 "/>
<text text-anchor="start" x="1985" y="-458.4" font-family="Times,serif" font-size="14.00" fill="red"> </text>
</g>
<!-- icepyx.core.exceptions.NsidcQueryError&#45;&gt;icepyx.core.exceptions.QueryError -->
<g id="edge1" class="edge">
<title>icepyx.core.exceptions.NsidcQueryError&#45;&gt;icepyx.core.exceptions.QueryError</title>
<path fill="none" stroke="black" d="M1987.5,-152.09C1987.5,-222.81 1987.5,-366.96 1987.5,-440.17"/>
<polygon fill="none" stroke="black" points="1984,-440.44 1987.5,-450.44 1991,-440.44 1984,-440.44"/>
</g>
<!-- icepyx.core.APIformatting.Parameters -->
<g id="node8" class="node">
<title>icepyx.core.APIformatting.Parameters</title>
<polygon fill="none" stroke="black" points="1043,-45.5 1043,-174.5 1194,-174.5 1194,-45.5 1043,-45.5"/>
<text text-anchor="start" x="1077" y="-159.3" font-family="Times,serif" font-size="14.00">Parameters</text>
<polyline fill="none" stroke="black" points="1043,-151.5 1194,-151.5 "/>
<text text-anchor="start" x="1077.5" y="-136.3" font-family="Times,serif" font-size="14.00">fmted_keys</text>
<text text-anchor="start" x="1077.5" y="-121.3" font-family="Times,serif" font-size="14.00">partype</text>
<text text-anchor="start" x="1077.5" y="-106.3" font-family="Times,serif" font-size="14.00">poss_keys</text>
<polyline fill="none" stroke="black" points="1043,-98.5 1194,-98.5 "/>
<text text-anchor="start" x="1051" y="-83.3" font-family="Times,serif" font-size="14.00">build_params()</text>
<text text-anchor="start" x="1051" y="-68.3" font-family="Times,serif" font-size="14.00">check_req_values()</text>
<text text-anchor="start" x="1051" y="-53.3" font-family="Times,serif" font-size="14.00">check_values()</text>
</g>
<!-- icepyx.core.APIformatting.Parameters&#45;&gt;icepyx.core.query.Query -->
<g id="edge5" class="edge">
<title>icepyx.core.APIformatting.Parameters&#45;&gt;icepyx.core.query.Query</title>
<path fill="none" stroke="black" d="M1082.54,-174.75C1069.63,-192.14 1053.48,-209.16 1034.5,-220 977.11,-252.77 847.39,-202.06 889.5,-253 914.38,-283.1 941.45,-255.71 981.63,-271.12"/>
<polygon fill="black" stroke="black" points="981.87,-271.24 989.01,-270.18 992.73,-276.35 985.6,-277.41 981.87,-271.24"/>
<text text-anchor="middle" x="937.5" y="-241.8" font-family="Times,serif" font-size="14.00" fill="green">_CMRparams</text>
</g>
<!-- icepyx.core.APIformatting.Parameters&#45;&gt;icepyx.core.query.Query -->
<g id="edge6" class="edge">
<title>icepyx.core.APIformatting.Parameters&#45;&gt;icepyx.core.query.Query</title>
<path fill="none" stroke="black" d="M1074.74,-174.63C1062.59,-190.28 1048.79,-206.42 1034.5,-220 1024.31,-229.68 1015.02,-225.55 1008.5,-238 1005.41,-243.91 1006.4,-246.67 1008.5,-253 1009.3,-255.42 1010.14,-257.84 1011.02,-260.25"/>
<polygon fill="black" stroke="black" points="1011.03,-260.29 1016.93,-264.45 1015.35,-271.49 1009.46,-267.33 1011.03,-260.29"/>
<text text-anchor="middle" x="1051" y="-241.8" font-family="Times,serif" font-size="14.00" fill="green">_reqparams</text>
</g>
<!-- icepyx.core.APIformatting.Parameters&#45;&gt;icepyx.core.query.Query -->
<g id="edge7" class="edge">
<title>icepyx.core.APIformatting.Parameters&#45;&gt;icepyx.core.query.Query</title>
<path fill="none" stroke="black" d="M1117.3,-174.63C1116.97,-194.88 1116.66,-217.38 1116.5,-238 1116.45,-244.67 1115.59,-246.4 1116.5,-253 1116.78,-255.07 1117.08,-257.14 1117.39,-259.22"/>
<polygon fill="black" stroke="black" points="1117.41,-259.34 1122.31,-264.63 1119.31,-271.19 1114.41,-265.9 1117.41,-259.34"/>
<text text-anchor="middle" x="1170.5" y="-241.8" font-family="Times,serif" font-size="14.00" fill="green">_subsetparams</text>
</g>
<!-- icepyx.core.APIformatting.Parameters&#45;&gt;icepyx.core.query.Query -->
<g id="edge8" class="edge">
<title>icepyx.core.APIformatting.Parameters&#45;&gt;icepyx.core.query.Query</title>
<path fill="none" stroke="black" d="M1186.07,-174.57C1201.7,-193.34 1216.18,-215.05 1224.5,-238 1227.02,-244.97 1229.02,-252.1 1230.56,-259.34"/>
<polygon fill="black" stroke="black" points="1230.57,-259.4 1235.54,-264.61 1232.64,-271.21 1227.67,-266 1230.57,-259.4"/>
<text text-anchor="middle" x="1282.5" y="-241.8" font-family="Times,serif" font-size="14.00" fill="green">_subsetparams</text>
</g>
<!-- icepyx.core.query.Query&#45;&gt;icepyx.core.auth.EarthdataAuthMixin -->
<g id="edge2" class="edge">
<title>icepyx.core.query.Query&#45;&gt;icepyx.core.auth.EarthdataAuthMixin</title>
<path fill="none" stroke="black" d="M1357.84,-700.79C1370.74,-716.43 1382.93,-731.21 1393.79,-744.37"/>
<polygon fill="none" stroke="black" points="1391.3,-746.86 1400.37,-752.34 1396.7,-742.4 1391.3,-746.86"/>
</g>
<!-- icepyx.core.query.Query&#45;&gt;icepyx.core.query.GenQuery -->
<g id="edge3" class="edge">
<title>icepyx.core.query.Query&#45;&gt;icepyx.core.query.GenQuery</title>
<path fill="none" stroke="black" d="M1023.3,-700.57C1012.56,-712.2 1001.59,-723.44 990.5,-734 977.58,-746.3 962.24,-758.04 947.65,-768.17"/>
<polygon fill="none" stroke="black" points="945.47,-765.41 939.17,-773.93 949.41,-771.2 945.47,-765.41"/>
</g>
<!-- icepyx.core.read.Read -->
<g id="node11" class="node">
<title>icepyx.core.read.Read</title>
<polygon fill="none" stroke="black" points="1701.5,-444 1701.5,-528 1803.5,-528 1803.5,-444 1701.5,-444"/>
<text text-anchor="start" x="1734" y="-512.8" font-family="Times,serif" font-size="14.00">Read</text>
<polyline fill="none" stroke="black" points="1701.5,-505 1803.5,-505 "/>
<text text-anchor="start" x="1709.5" y="-489.8" font-family="Times,serif" font-size="14.00">data_source</text>
<text text-anchor="start" x="1709.5" y="-474.8" font-family="Times,serif" font-size="14.00">vars</text>
<polyline fill="none" stroke="black" points="1701.5,-467 1803.5,-467 "/>
<text text-anchor="start" x="1732" y="-451.8" font-family="Times,serif" font-size="14.00">load()</text>
</g>
<!-- icepyx.core.spatial.Spatial -->
<g id="node12" class="node">
<title>icepyx.core.spatial.Spatial</title>
<polygon fill="none" stroke="black" points="735,-421.5 735,-550.5 856,-550.5 856,-421.5 735,-421.5"/>
<text text-anchor="start" x="770" y="-535.3" font-family="Times,serif" font-size="14.00">Spatial</text>
<polyline fill="none" stroke="black" points="735,-527.5 856,-527.5 "/>
<text text-anchor="start" x="746" y="-512.3" font-family="Times,serif" font-size="14.00">extent</text>
<text text-anchor="start" x="746" y="-497.3" font-family="Times,serif" font-size="14.00">extent_as_gdf</text>
<text text-anchor="start" x="746" y="-482.3" font-family="Times,serif" font-size="14.00">extent_file</text>
<text text-anchor="start" x="746" y="-467.3" font-family="Times,serif" font-size="14.00">extent_type</text>
<polyline fill="none" stroke="black" points="735,-459.5 856,-459.5 "/>
<text text-anchor="start" x="743" y="-444.3" font-family="Times,serif" font-size="14.00">fmt_for_CMR()</text>
<text text-anchor="start" x="743" y="-429.3" font-family="Times,serif" font-size="14.00">fmt_for_EGI()</text>
</g>
<!-- icepyx.core.spatial.Spatial&#45;&gt;icepyx.core.query.GenQuery -->
<g id="edge11" class="edge">
<title>icepyx.core.spatial.Spatial&#45;&gt;icepyx.core.query.GenQuery</title>
<path fill="none" stroke="black" d="M772.52,-550.52C757.61,-603.21 746.32,-678.25 778.5,-734 791.64,-756.76 815.78,-772.48 838.65,-782.95"/>
<polygon fill="black" stroke="black" points="838.69,-782.96 845.78,-781.63 849.73,-787.67 842.64,-788.99 838.69,-782.96"/>
<text text-anchor="middle" x="806" y="-722.8" font-family="Times,serif" font-size="14.00" fill="green">_spatial</text>
</g>
<!-- icepyx.core.spatial.Spatial&#45;&gt;icepyx.core.query.GenQuery -->
<g id="edge12" class="edge">
<title>icepyx.core.spatial.Spatial&#45;&gt;icepyx.core.query.GenQuery</title>
<path fill="none" stroke="black" d="M804.21,-550.71C812.59,-601.67 827.7,-674.25 852.5,-734 855.54,-741.33 859.35,-748.76 863.42,-755.87"/>
<polygon fill="black" stroke="black" points="863.55,-756.1 870.07,-759.17 869.74,-766.38 863.22,-763.3 863.55,-756.1"/>
<text text-anchor="middle" x="880" y="-722.8" font-family="Times,serif" font-size="14.00" fill="green">_spatial</text>
</g>
<!-- icepyx.core.temporal.Temporal -->
<g id="node13" class="node">
<title>icepyx.core.temporal.Temporal</title>
<polygon fill="none" stroke="black" points="892,-444 892,-528 975,-528 975,-444 892,-444"/>
<text text-anchor="start" x="900" y="-512.8" font-family="Times,serif" font-size="14.00">Temporal</text>
<polyline fill="none" stroke="black" points="892,-505 975,-505 "/>
<text text-anchor="start" x="916" y="-489.8" font-family="Times,serif" font-size="14.00">end</text>
<text text-anchor="start" x="916" y="-474.8" font-family="Times,serif" font-size="14.00">start</text>
<polyline fill="none" stroke="black" points="892,-467 975,-467 "/>
<text text-anchor="start" x="931" y="-451.8" font-family="Times,serif" font-size="14.00"> </text>
</g>
<!-- icepyx.core.temporal.Temporal&#45;&gt;icepyx.core.query.GenQuery -->
<g id="edge13" class="edge">
<title>icepyx.core.temporal.Temporal&#45;&gt;icepyx.core.query.GenQuery</title>
<path fill="none" stroke="black" d="M931.84,-528.34C929.39,-577.61 923.71,-662.28 911.5,-734 910.35,-740.74 908.87,-747.79 907.27,-754.69"/>
<polygon fill="black" stroke="black" points="907.24,-754.8 909.7,-761.58 904.39,-766.45 901.93,-759.67 907.24,-754.8"/>
<text text-anchor="middle" x="950.5" y="-722.8" font-family="Times,serif" font-size="14.00" fill="green">_temporal</text>
</g>
<!-- icepyx.core.variables.Variables -->
<g id="node14" class="node">
<title>icepyx.core.variables.Variables</title>
<polygon fill="none" stroke="black" points="1404,-38 1404,-182 1779,-182 1779,-38 1404,-38"/>
<text text-anchor="start" x="1558" y="-166.8" font-family="Times,serif" font-size="14.00">Variables</text>
<polyline fill="none" stroke="black" points="1404,-159 1779,-159 "/>
<text text-anchor="start" x="1504" y="-143.8" font-family="Times,serif" font-size="14.00">path : NoneType</text>
<text text-anchor="start" x="1504" y="-128.8" font-family="Times,serif" font-size="14.00">product : NoneType</text>
<text text-anchor="start" x="1504" y="-113.8" font-family="Times,serif" font-size="14.00">wanted : NoneType, dict</text>
<polyline fill="none" stroke="black" points="1404,-106 1779,-106 "/>
<text text-anchor="start" x="1412" y="-90.8" font-family="Times,serif" font-size="14.00">append(defaults, var_list, beam_list, keyword_list)</text>
<text text-anchor="start" x="1412" y="-75.8" font-family="Times,serif" font-size="14.00">avail(options, internal)</text>
<text text-anchor="start" x="1412" y="-60.8" font-family="Times,serif" font-size="14.00">parse_var_list(varlist, tiered, tiered_vars)</text>
<text text-anchor="start" x="1412" y="-45.8" font-family="Times,serif" font-size="14.00">remove(all, var_list, beam_list, keyword_list)</text>
</g>
<!-- icepyx.core.variables.Variables&#45;&gt;icepyx.core.auth.EarthdataAuthMixin -->
<g id="edge4" class="edge">
<title>icepyx.core.variables.Variables&#45;&gt;icepyx.core.auth.EarthdataAuthMixin</title>
<path fill="none" stroke="black" d="M1634.31,-182.19C1643.21,-204.41 1648.77,-229.3 1644.5,-253 1610.9,-439.56 1517.78,-645.52 1469.85,-743.32"/>
<polygon fill="none" stroke="black" points="1466.63,-741.92 1465.35,-752.44 1472.91,-745.02 1466.63,-741.92"/>
</g>
<!-- icepyx.core.variables.Variables&#45;&gt;icepyx.core.query.Query -->
<g id="edge14" class="edge">
<title>icepyx.core.variables.Variables&#45;&gt;icepyx.core.query.Query</title>
<path fill="none" stroke="black" d="M1455.48,-182.1C1428.73,-198.78 1401.77,-217.69 1378.5,-238 1369.51,-245.84 1360.63,-254.14 1351.9,-262.75"/>
<polygon fill="black" stroke="black" points="1351.69,-262.96 1350.29,-270.04 1343.22,-271.46 1344.62,-264.39 1351.69,-262.96"/>
<text text-anchor="middle" x="1420.5" y="-241.8" font-family="Times,serif" font-size="14.00" fill="green">_order_vars</text>
</g>
<!-- icepyx.core.variables.Variables&#45;&gt;icepyx.core.query.Query -->
<g id="edge15" class="edge">
<title>icepyx.core.variables.Variables&#45;&gt;icepyx.core.query.Query</title>
<path fill="none" stroke="black" d="M1530.43,-182.21C1509.56,-205.45 1485.64,-230.93 1462.5,-253 1436.37,-277.92 1407.93,-303.26 1379.5,-327.59"/>
<polygon fill="black" stroke="black" points="1379.4,-327.67 1377.43,-334.61 1370.27,-335.46 1372.24,-328.52 1379.4,-327.67"/>
<text text-anchor="middle" x="1519.5" y="-241.8" font-family="Times,serif" font-size="14.00" fill="green">_order_vars</text>
</g>
<!-- icepyx.core.variables.Variables&#45;&gt;icepyx.core.query.Query -->
<g id="edge16" class="edge">
<title>icepyx.core.variables.Variables&#45;&gt;icepyx.core.query.Query</title>
<path fill="none" stroke="black" d="M1590.11,-182.31C1586.75,-206.46 1579.67,-232.48 1565.5,-253 1520.14,-318.71 1449.53,-369 1381.16,-405.68"/>
<polygon fill="black" stroke="black" points="1380.83,-405.85 1377.39,-412.19 1370.22,-411.45 1373.66,-405.11 1380.83,-405.85"/>
<text text-anchor="middle" x="1607" y="-241.8" font-family="Times,serif" font-size="14.00" fill="green">_file_vars</text>
</g>
<!-- icepyx.core.variables.Variables&#45;&gt;icepyx.core.read.Read -->
<g id="edge17" class="edge">
<title>icepyx.core.variables.Variables&#45;&gt;icepyx.core.read.Read</title>
<path fill="none" stroke="black" d="M1652.78,-182.03C1665.65,-199.49 1678.14,-218.73 1687.5,-238 1718.11,-301.01 1735.7,-380.31 1744.67,-431.8"/>
<polygon fill="black" stroke="black" points="1744.73,-432.11 1749.67,-437.37 1746.72,-443.95 1741.78,-438.7 1744.73,-432.11"/>
<text text-anchor="middle" x="1732" y="-241.8" font-family="Times,serif" font-size="14.00" fill="green">_read_vars</text>
</g>
<!-- icepyx.core.visualization.Visualize -->
<g id="node15" class="node">
<title>icepyx.core.visualization.Visualize</title>
<polygon fill="none" stroke="black" points="2075,-0.5 2075,-219.5 2404,-219.5 2404,-0.5 2075,-0.5"/>
<text text-anchor="start" x="2207.5" y="-204.3" font-family="Times,serif" font-size="14.00">Visualize</text>
<polyline fill="none" stroke="black" points="2075,-196.5 2404,-196.5 "/>
<text text-anchor="start" x="2154" y="-181.3" font-family="Times,serif" font-size="14.00">bbox : list</text>
<text text-anchor="start" x="2154" y="-166.3" font-family="Times,serif" font-size="14.00">cycles : NoneType</text>
<text text-anchor="start" x="2154" y="-151.3" font-family="Times,serif" font-size="14.00">date_range : NoneType</text>
<text text-anchor="start" x="2154" y="-136.3" font-family="Times,serif" font-size="14.00">product : NoneType, str</text>
<text text-anchor="start" x="2154" y="-121.3" font-family="Times,serif" font-size="14.00">tracks : NoneType</text>
<polyline fill="none" stroke="black" points="2075,-113.5 2404,-113.5 "/>
<text text-anchor="start" x="2083" y="-98.3" font-family="Times,serif" font-size="14.00">generate_OA_parameters(): list</text>
<text text-anchor="start" x="2083" y="-83.3" font-family="Times,serif" font-size="14.00">grid_bbox(binsize): list</text>
<text text-anchor="start" x="2083" y="-68.3" font-family="Times,serif" font-size="14.00">make_request(base_url, payload)</text>
<text text-anchor="start" x="2083" y="-53.3" font-family="Times,serif" font-size="14.00">parallel_request_OA(): da.array</text>
<text text-anchor="start" x="2083" y="-38.3" font-family="Times,serif" font-size="14.00">query_icesat2_filelist(): tuple</text>
<text text-anchor="start" x="2083" y="-23.3" font-family="Times,serif" font-size="14.00">request_OA_data(paras): da.array</text>
<text text-anchor="start" x="2083" y="-8.3" font-family="Times,serif" font-size="14.00">viz_elevation(): (hv.DynamicMap, hv.Layout)</text>
</g>
</g>
</svg>
