<?xml version="1.0" encoding="UTF-8" standalone="no"?>
<!DOCTYPE svg PUBLIC "-//W3C//DTD SVG 1.1//EN"
 "http://www.w3.org/Graphics/SVG/1.1/DTD/svg11.dtd">
<!-- Generated by graphviz version 2.43.0 (0)
 -->
<!-- Title: classes_user_uml Pages: 1 -->
<svg width="2025pt" height="832pt"
 viewBox="0.00 0.00 2024.50 831.80" xmlns="http://www.w3.org/2000/svg" xmlns:xlink="http://www.w3.org/1999/xlink">
<g id="graph0" class="graph" transform="scale(1 1) rotate(0) translate(4 827.8)">
<title>classes_user_uml</title>
<polygon fill="white" stroke="transparent" points="-4,4 -4,-827.8 2020.5,-827.8 2020.5,4 -4,4"/>
<!-- icepyx.core.query.GenQuery -->
<g id="node1" class="node">
<title>icepyx.core.query.GenQuery</title>
<polygon fill="none" stroke="black" points="1349.5,-752.5 1349.5,-823.3 1438.5,-823.3 1438.5,-752.5 1349.5,-752.5"/>
<text text-anchor="start" x="1357.5" y="-808.1" font-family="Times,serif" font-size="14.00">GenQuery</text>
<polyline fill="none" stroke="black" points="1349.5,-800.3 1438.5,-800.3 "/>
<polyline fill="none" stroke="black" points="1349.5,-775.5 1438.5,-775.5 "/>
<text text-anchor="start" x="1391.5" y="-760.3" font-family="Times,serif" font-size="14.00"> </text>
</g>
<!-- icepyx.core.granules.Granules -->
<g id="node2" class="node">
<title>icepyx.core.granules.Granules</title>
<polygon fill="none" stroke="black" points="0,-53 0,-167 686,-167 686,-53 0,-53"/>
<text text-anchor="start" x="310.5" y="-151.8" font-family="Times,serif" font-size="14.00">Granules</text>
<polyline fill="none" stroke="black" points="0,-144 686,-144 "/>
<text text-anchor="start" x="293" y="-128.8" font-family="Times,serif" font-size="14.00">avail : list</text>
<text text-anchor="start" x="293" y="-113.8" font-family="Times,serif" font-size="14.00">orderIDs : list</text>
<polyline fill="none" stroke="black" points="0,-106 686,-106 "/>
<text text-anchor="start" x="8" y="-90.8" font-family="Times,serif" font-size="14.00">download(verbose, path, session, restart)</text>
<text text-anchor="start" x="8" y="-75.8" font-family="Times,serif" font-size="14.00">get_avail(CMRparams, reqparams, cloud)</text>
<text text-anchor="start" x="8" y="-60.8" font-family="Times,serif" font-size="14.00">place_order(CMRparams, reqparams, subsetparams, verbose, subset, session, geom_filepath)</text>
</g>
<!-- icepyx.core.query.Query -->
<g id="node6" class="node">
<title>icepyx.core.query.Query</title>
<polygon fill="none" stroke="black" points="653.5,-271.5 653.5,-700.5 1030.5,-700.5 1030.5,-271.5 653.5,-271.5"/>
<text text-anchor="start" x="820" y="-685.3" font-family="Times,serif" font-size="14.00">Query</text>
<polyline fill="none" stroke="black" points="653.5,-677.5 1030.5,-677.5 "/>
<text text-anchor="start" x="784.5" y="-662.3" font-family="Times,serif" font-size="14.00">CMRparams</text>
<text text-anchor="start" x="784.5" y="-647.3" font-family="Times,serif" font-size="14.00">cycles</text>
<text text-anchor="start" x="784.5" y="-632.3" font-family="Times,serif" font-size="14.00">dataset</text>
<text text-anchor="start" x="784.5" y="-617.3" font-family="Times,serif" font-size="14.00">dates</text>
<text text-anchor="start" x="784.5" y="-602.3" font-family="Times,serif" font-size="14.00">end_time</text>
<text text-anchor="start" x="784.5" y="-587.3" font-family="Times,serif" font-size="14.00">file_vars</text>
<text text-anchor="start" x="784.5" y="-572.3" font-family="Times,serif" font-size="14.00">granules</text>
<text text-anchor="start" x="784.5" y="-557.3" font-family="Times,serif" font-size="14.00">order_vars</text>
<text text-anchor="start" x="784.5" y="-542.3" font-family="Times,serif" font-size="14.00">product</text>
<text text-anchor="start" x="784.5" y="-527.3" font-family="Times,serif" font-size="14.00">product_version</text>
<text text-anchor="start" x="784.5" y="-512.3" font-family="Times,serif" font-size="14.00">reqparams</text>
<text text-anchor="start" x="784.5" y="-497.3" font-family="Times,serif" font-size="14.00">spatial</text>
<text text-anchor="start" x="784.5" y="-482.3" font-family="Times,serif" font-size="14.00">spatial_extent</text>
<text text-anchor="start" x="784.5" y="-467.3" font-family="Times,serif" font-size="14.00">start_time</text>
<text text-anchor="start" x="784.5" y="-452.3" font-family="Times,serif" font-size="14.00">tracks</text>
<polyline fill="none" stroke="black" points="653.5,-444.5 1030.5,-444.5 "/>
<text text-anchor="start" x="661.5" y="-429.3" font-family="Times,serif" font-size="14.00">avail_granules(ids, cycles, tracks, cloud)</text>
<text text-anchor="start" x="661.5" y="-414.3" font-family="Times,serif" font-size="14.00">download_granules(path, verbose, subset, restart)</text>
<text text-anchor="start" x="661.5" y="-399.3" font-family="Times,serif" font-size="14.00">earthdata_login(uid, email, s3token): None</text>
<text text-anchor="start" x="661.5" y="-384.3" font-family="Times,serif" font-size="14.00">latest_version()</text>
<text text-anchor="start" x="661.5" y="-369.3" font-family="Times,serif" font-size="14.00">order_granules(verbose, subset, email)</text>
<text text-anchor="start" x="661.5" y="-354.3" font-family="Times,serif" font-size="14.00">product_all_info()</text>
<text text-anchor="start" x="661.5" y="-339.3" font-family="Times,serif" font-size="14.00">product_summary_info()</text>
<text text-anchor="start" x="661.5" y="-324.3" font-family="Times,serif" font-size="14.00">show_custom_options(dictview)</text>
<text text-anchor="start" x="661.5" y="-309.3" font-family="Times,serif" font-size="14.00">subsetparams()</text>
<text text-anchor="start" x="661.5" y="-294.3" font-family="Times,serif" font-size="14.00">visualize_elevation()</text>
<text text-anchor="start" x="661.5" y="-279.3" font-family="Times,serif" font-size="14.00">visualize_spatial_extent()</text>
</g>
<!-- icepyx.core.granules.Granules&#45;&gt;icepyx.core.query.Query -->
<g id="edge7" class="edge">
<title>icepyx.core.granules.Granules&#45;&gt;icepyx.core.query.Query</title>
<path fill="none" stroke="black" d="M338.08,-167.11C338.42,-195.26 343.37,-228.49 361,-253 427.74,-345.75 541.71,-402.97 641.96,-437.37"/>
<polygon fill="black" stroke="black" points="642.11,-437.42 649.07,-435.54 653.49,-441.25 646.52,-443.12 642.11,-437.42"/>
<text text-anchor="middle" x="396" y="-241.8" font-family="Times,serif" font-size="14.00" fill="green">_granules</text>
</g>
<!-- icepyx.core.granules.Granules&#45;&gt;icepyx.core.query.Query -->
<g id="edge8" class="edge">
<title>icepyx.core.granules.Granules&#45;&gt;icepyx.core.query.Query</title>
<path fill="none" stroke="black" d="M387.88,-167.28C411.34,-194.82 441.47,-227.46 472,-253 524.25,-296.72 585.41,-338.33 642.78,-373.92"/>
<polygon fill="black" stroke="black" points="642.85,-373.97 650.06,-373.71 653.07,-380.27 645.86,-380.52 642.85,-373.97"/>
<text text-anchor="middle" x="507" y="-241.8" font-family="Times,serif" font-size="14.00" fill="green">_granules</text>
</g>
<!-- icepyx.core.icesat2data.Icesat2Data -->
<g id="node3" class="node">
<title>icepyx.core.icesat2data.Icesat2Data</title>
<polygon fill="none" stroke="black" points="1381,-74.6 1381,-145.4 1483,-145.4 1483,-74.6 1381,-74.6"/>
<text text-anchor="start" x="1389" y="-130.2" font-family="Times,serif" font-size="14.00">Icesat2Data</text>
<polyline fill="none" stroke="black" points="1381,-122.4 1483,-122.4 "/>
<polyline fill="none" stroke="black" points="1381,-97.6 1483,-97.6 "/>
<text text-anchor="start" x="1429.5" y="-82.4" font-family="Times,serif" font-size="14.00"> </text>
</g>
<!-- icepyx.core.exceptions.NsidcQueryError -->
<g id="node4" class="node">
<title>icepyx.core.exceptions.NsidcQueryError</title>
<polygon fill="none" stroke="black" points="1530,-68 1530,-152 1670,-152 1670,-68 1530,-68"/>
<text text-anchor="start" x="1538" y="-136.8" font-family="Times,serif" font-size="14.00" fill="red">NsidcQueryError</text>
<polyline fill="none" stroke="black" points="1530,-129 1670,-129 "/>
<text text-anchor="start" x="1557.5" y="-113.8" font-family="Times,serif" font-size="14.00" fill="red">errmsg</text>
<text text-anchor="start" x="1557.5" y="-98.8" font-family="Times,serif" font-size="14.00" fill="red">msgtxt : str</text>
<polyline fill="none" stroke="black" points="1530,-91 1670,-91 "/>
<text text-anchor="start" x="1597.5" y="-75.8" font-family="Times,serif" font-size="14.00" fill="red"> </text>
</g>
<!-- icepyx.core.exceptions.QueryError -->
<g id="node7" class="node">
<title>icepyx.core.exceptions.QueryError</title>
<polygon fill="none" stroke="black" points="1550.5,-450.6 1550.5,-521.4 1649.5,-521.4 1649.5,-450.6 1550.5,-450.6"/>
<text text-anchor="start" x="1558.5" y="-506.2" font-family="Times,serif" font-size="14.00" fill="red">QueryError</text>
<polyline fill="none" stroke="black" points="1550.5,-498.4 1649.5,-498.4 "/>
<polyline fill="none" stroke="black" points="1550.5,-473.6 1649.5,-473.6 "/>
<text text-anchor="start" x="1597.5" y="-458.4" font-family="Times,serif" font-size="14.00" fill="red"> </text>
</g>
<!-- icepyx.core.exceptions.NsidcQueryError&#45;&gt;icepyx.core.exceptions.QueryError -->
<g id="edge1" class="edge">
<title>icepyx.core.exceptions.NsidcQueryError&#45;&gt;icepyx.core.exceptions.QueryError</title>
<path fill="none" stroke="black" d="M1600,-152.09C1600,-222.81 1600,-366.96 1600,-440.17"/>
<polygon fill="none" stroke="black" points="1596.5,-440.44 1600,-450.44 1603.5,-440.44 1596.5,-440.44"/>
</g>
<!-- icepyx.core.APIformatting.Parameters -->
<g id="node5" class="node">
<title>icepyx.core.APIformatting.Parameters</title>
<polygon fill="none" stroke="black" points="703.5,-45.5 703.5,-174.5 854.5,-174.5 854.5,-45.5 703.5,-45.5"/>
<text text-anchor="start" x="737.5" y="-159.3" font-family="Times,serif" font-size="14.00">Parameters</text>
<polyline fill="none" stroke="black" points="703.5,-151.5 854.5,-151.5 "/>
<text text-anchor="start" x="738" y="-136.3" font-family="Times,serif" font-size="14.00">fmted_keys</text>
<text text-anchor="start" x="738" y="-121.3" font-family="Times,serif" font-size="14.00">partype</text>
<text text-anchor="start" x="738" y="-106.3" font-family="Times,serif" font-size="14.00">poss_keys</text>
<polyline fill="none" stroke="black" points="703.5,-98.5 854.5,-98.5 "/>
<text text-anchor="start" x="711.5" y="-83.3" font-family="Times,serif" font-size="14.00">build_params()</text>
<text text-anchor="start" x="711.5" y="-68.3" font-family="Times,serif" font-size="14.00">check_req_values()</text>
<text text-anchor="start" x="711.5" y="-53.3" font-family="Times,serif" font-size="14.00">check_values()</text>
</g>
<!-- icepyx.core.APIformatting.Parameters&#45;&gt;icepyx.core.query.Query -->
<g id="edge3" class="edge">
<title>icepyx.core.APIformatting.Parameters&#45;&gt;icepyx.core.query.Query</title>
<path fill="none" stroke="black" d="M743.04,-174.75C730.13,-192.14 713.98,-209.16 695,-220 637.61,-252.77 521.27,-193.48 550,-253 571.41,-297.35 605.87,-335.82 643.73,-368"/>
<polygon fill="black" stroke="black" points="644.19,-368.38 651.36,-369.13 653.43,-376.04 646.26,-375.29 644.19,-368.38"/>
<text text-anchor="middle" x="598" y="-241.8" font-family="Times,serif" font-size="14.00" fill="green">_CMRparams</text>
</g>
<!-- icepyx.core.APIformatting.Parameters&#45;&gt;icepyx.core.query.Query -->
<g id="edge4" class="edge">
<title>icepyx.core.APIformatting.Parameters&#45;&gt;icepyx.core.query.Query</title>
<path fill="none" stroke="black" d="M735.24,-174.63C723.09,-190.28 709.29,-206.42 695,-220 684.81,-229.68 675.52,-225.55 669,-238 665.91,-243.91 666.9,-246.67 669,-253 669.8,-255.42 670.64,-257.84 671.52,-260.25"/>
<polygon fill="black" stroke="black" points="671.53,-260.29 677.43,-264.45 675.85,-271.49 669.96,-267.33 671.53,-260.29"/>
<text text-anchor="middle" x="711.5" y="-241.8" font-family="Times,serif" font-size="14.00" fill="green">_reqparams</text>
</g>
<!-- icepyx.core.APIformatting.Parameters&#45;&gt;icepyx.core.query.Query -->
<g id="edge5" class="edge">
<title>icepyx.core.APIformatting.Parameters&#45;&gt;icepyx.core.query.Query</title>
<path fill="none" stroke="black" d="M777.8,-174.63C777.47,-194.88 777.16,-217.38 777,-238 776.95,-244.67 776.09,-246.4 777,-253 777.28,-255.07 777.58,-257.14 777.89,-259.22"/>
<polygon fill="black" stroke="black" points="777.91,-259.34 782.81,-264.63 779.81,-271.19 774.91,-265.9 777.91,-259.34"/>
<text text-anchor="middle" x="831" y="-241.8" font-family="Times,serif" font-size="14.00" fill="green">_subsetparams</text>
</g>
<!-- icepyx.core.APIformatting.Parameters&#45;&gt;icepyx.core.query.Query -->
<g id="edge6" class="edge">
<title>icepyx.core.APIformatting.Parameters&#45;&gt;icepyx.core.query.Query</title>
<path fill="none" stroke="black" d="M846.57,-174.57C862.2,-193.34 876.68,-215.05 885,-238 887.52,-244.97 889.52,-252.1 891.06,-259.34"/>
<polygon fill="black" stroke="black" points="891.07,-259.4 896.04,-264.61 893.14,-271.21 888.17,-266 891.07,-259.4"/>
<text text-anchor="middle" x="943" y="-241.8" font-family="Times,serif" font-size="14.00" fill="green">_subsetparams</text>
</g>
<!-- icepyx.core.query.Query&#45;&gt;icepyx.core.query.GenQuery -->
<g id="edge2" class="edge">
<title>icepyx.core.query.Query&#45;&gt;icepyx.core.query.GenQuery</title>
<path fill="none" stroke="black" d="M1030.81,-589.58C1139.94,-648.87 1269.34,-719.18 1340.47,-757.82"/>
<polygon fill="none" stroke="black" points="1338.82,-760.9 1349.27,-762.6 1342.16,-754.75 1338.82,-760.9"/>
</g>
<!-- icepyx.core.read.Read -->
<g id="node8" class="node">
<title>icepyx.core.read.Read</title>
<polygon fill="none" stroke="black" points="1291,-436.5 1291,-535.5 1393,-535.5 1393,-436.5 1291,-436.5"/>
<text text-anchor="start" x="1323.5" y="-520.3" font-family="Times,serif" font-size="14.00">Read</text>
<polyline fill="none" stroke="black" points="1291,-512.5 1393,-512.5 "/>
<text text-anchor="start" x="1299" y="-497.3" font-family="Times,serif" font-size="14.00">data_source</text>
<text text-anchor="start" x="1299" y="-482.3" font-family="Times,serif" font-size="14.00">is2catalog</text>
<text text-anchor="start" x="1299" y="-467.3" font-family="Times,serif" font-size="14.00">vars</text>
<polyline fill="none" stroke="black" points="1291,-459.5 1393,-459.5 "/>
<text text-anchor="start" x="1321.5" y="-444.3" font-family="Times,serif" font-size="14.00">load()</text>
</g>
<!-- icepyx.core.spatial.Spatial -->
<g id="node9" class="node">
<title>icepyx.core.spatial.Spatial</title>
<polygon fill="none" stroke="black" points="1411.5,-421.5 1411.5,-550.5 1532.5,-550.5 1532.5,-421.5 1411.5,-421.5"/>
<text text-anchor="start" x="1446.5" y="-535.3" font-family="Times,serif" font-size="14.00">Spatial</text>
<polyline fill="none" stroke="black" points="1411.5,-527.5 1532.5,-527.5 "/>
<text text-anchor="start" x="1422.5" y="-512.3" font-family="Times,serif" font-size="14.00">extent</text>
<text text-anchor="start" x="1422.5" y="-497.3" font-family="Times,serif" font-size="14.00">extent_as_gdf</text>
<text text-anchor="start" x="1422.5" y="-482.3" font-family="Times,serif" font-size="14.00">extent_file</text>
<text text-anchor="start" x="1422.5" y="-467.3" font-family="Times,serif" font-size="14.00">extent_type</text>
<polyline fill="none" stroke="black" points="1411.5,-459.5 1532.5,-459.5 "/>
<text text-anchor="start" x="1419.5" y="-444.3" font-family="Times,serif" font-size="14.00">fmt_for_CMR()</text>
<text text-anchor="start" x="1419.5" y="-429.3" font-family="Times,serif" font-size="14.00">fmt_for_EGI()</text>
</g>
<!-- icepyx.core.spatial.Spatial&#45;&gt;icepyx.core.query.GenQuery -->
<g id="edge9" class="edge">
<title>icepyx.core.spatial.Spatial&#45;&gt;icepyx.core.query.GenQuery</title>
<path fill="none" stroke="black" d="M1452.23,-550.52C1438.68,-593.25 1419.97,-650.76 1402,-701 1399.11,-709.08 1396.64,-710.58 1395,-719 1393.67,-725.81 1392.9,-733.08 1392.5,-740.23"/>
<polygon fill="black" stroke="black" points="1392.49,-740.47 1396.32,-746.58 1392.14,-752.46 1388.32,-746.35 1392.49,-740.47"/>
<text text-anchor="middle" x="1422.5" y="-722.8" font-family="Times,serif" font-size="14.00" fill="green">_spatial</text>
</g>
<!-- icepyx.core.spatial.Spatial&#45;&gt;icepyx.core.query.GenQuery -->
<g id="edge10" class="edge">
<title>icepyx.core.spatial.Spatial&#45;&gt;icepyx.core.query.GenQuery</title>
<path fill="none" stroke="black" d="M1478.37,-550.65C1480.82,-602.57 1477.89,-676.47 1450,-734 1448.57,-736.94 1446.91,-739.81 1445.06,-742.58"/>
<polygon fill="black" stroke="black" points="1444.99,-742.68 1444.52,-749.87 1437.69,-752.21 1438.16,-745.01 1444.99,-742.68"/>
<text text-anchor="middle" x="1483.5" y="-722.8" font-family="Times,serif" font-size="14.00" fill="green">_spatial</text>
</g>
<!-- icepyx.core.variables.Variables -->
<g id="node10" class="node">
<title>icepyx.core.variables.Variables</title>
<polygon fill="none" stroke="black" points="972.5,-38 972.5,-182 1347.5,-182 1347.5,-38 972.5,-38"/>
<text text-anchor="start" x="1126.5" y="-166.8" font-family="Times,serif" font-size="14.00">Variables</text>
<polyline fill="none" stroke="black" points="972.5,-159 1347.5,-159 "/>
<text text-anchor="start" x="1072.5" y="-143.8" font-family="Times,serif" font-size="14.00">path : NoneType</text>
<text text-anchor="start" x="1072.5" y="-128.8" font-family="Times,serif" font-size="14.00">product : NoneType</text>
<text text-anchor="start" x="1072.5" y="-113.8" font-family="Times,serif" font-size="14.00">wanted : NoneType, dict</text>
<polyline fill="none" stroke="black" points="972.5,-106 1347.5,-106 "/>
<text text-anchor="start" x="980.5" y="-90.8" font-family="Times,serif" font-size="14.00">append(defaults, var_list, beam_list, keyword_list)</text>
<text text-anchor="start" x="980.5" y="-75.8" font-family="Times,serif" font-size="14.00">avail(options, internal)</text>
<text text-anchor="start" x="980.5" y="-60.8" font-family="Times,serif" font-size="14.00">parse_var_list(varlist, tiered, tiered_vars)</text>
<text text-anchor="start" x="980.5" y="-45.8" font-family="Times,serif" font-size="14.00">remove(all, var_list, beam_list, keyword_list)</text>
</g>
<!-- icepyx.core.variables.Variables&#45;&gt;icepyx.core.query.Query -->
<g id="edge11" class="edge">
<title>icepyx.core.variables.Variables&#45;&gt;icepyx.core.query.Query</title>
<path fill="none" stroke="black" d="M1090.09,-182.18C1073.06,-200.11 1055.11,-219.52 1039,-238 1032.12,-245.88 1025.18,-253.96 1018.21,-262.17"/>
<polygon fill="black" stroke="black" points="1018.09,-262.31 1017.27,-269.48 1010.34,-271.48 1011.16,-264.31 1018.09,-262.31"/>
<text text-anchor="middle" x="1081" y="-241.8" font-family="Times,serif" font-size="14.00" fill="green">_order_vars</text>
</g>
<!-- icepyx.core.variables.Variables&#45;&gt;icepyx.core.query.Query -->
<g id="edge12" class="edge">
<title>icepyx.core.variables.Variables&#45;&gt;icepyx.core.query.Query</title>
<path fill="none" stroke="black" d="M1150.54,-182.09C1145.08,-205.94 1136.49,-231.84 1123,-253 1100.71,-287.95 1071.41,-320.21 1040.17,-348.87"/>
<polygon fill="black" stroke="black" points="1039.78,-349.22 1037.99,-356.21 1030.86,-357.25 1032.64,-350.26 1039.78,-349.22"/>
<text text-anchor="middle" x="1173" y="-241.8" font-family="Times,serif" font-size="14.00" fill="green">_order_vars</text>
</g>
<!-- icepyx.core.variables.Variables&#45;&gt;icepyx.core.query.Query -->
<g id="edge13" class="edge">
<title>icepyx.core.variables.Variables&#45;&gt;icepyx.core.query.Query</title>
<path fill="none" stroke="black" d="M1215.16,-182.22C1226.38,-205.33 1231.44,-230.74 1219,-253 1180.03,-322.73 1110.56,-374.08 1041.78,-410.49"/>
<polygon fill="black" stroke="black" points="1041.41,-410.68 1037.92,-416.99 1030.75,-416.2 1034.24,-409.89 1041.41,-410.68"/>
<text text-anchor="middle" x="1258.5" y="-241.8" font-family="Times,serif" font-size="14.00" fill="green">_file_vars</text>
</g>
<!-- icepyx.core.variables.Variables&#45;&gt;icepyx.core.read.Read -->
<g id="edge14" class="edge">
<title>icepyx.core.variables.Variables&#45;&gt;icepyx.core.read.Read</title>
<path fill="none" stroke="black" d="M1274.42,-182.25C1292.39,-198.42 1308.73,-217.08 1320,-238 1351.01,-295.54 1352.98,-371.71 1349.44,-424.17"/>
<polygon fill="black" stroke="black" points="1349.43,-424.34 1352.95,-430.64 1348.5,-436.31 1344.98,-430.02 1349.43,-424.34"/>
<text text-anchor="middle" x="1364.5" y="-241.8" font-family="Times,serif" font-size="14.00" fill="green">_read_vars</text>
</g>
<!-- icepyx.core.visualization.Visualize -->
<g id="node11" class="node">
<title>icepyx.core.visualization.Visualize</title>
<polygon fill="none" stroke="black" points="1687.5,-0.5 1687.5,-219.5 2016.5,-219.5 2016.5,-0.5 1687.5,-0.5"/>
<text text-anchor="start" x="1820" y="-204.3" font-family="Times,serif" font-size="14.00">Visualize</text>
<polyline fill="none" stroke="black" points="1687.5,-196.5 2016.5,-196.5 "/>
<text text-anchor="start" x="1766.5" y="-181.3" font-family="Times,serif" font-size="14.00">bbox : list</text>
<text text-anchor="start" x="1766.5" y="-166.3" font-family="Times,serif" font-size="14.00">cycles : NoneType</text>
<text text-anchor="start" x="1766.5" y="-151.3" font-family="Times,serif" font-size="14.00">date_range : NoneType</text>
<text text-anchor="start" x="1766.5" y="-136.3" font-family="Times,serif" font-size="14.00">product : NoneType, str</text>
<text text-anchor="start" x="1766.5" y="-121.3" font-family="Times,serif" font-size="14.00">tracks : NoneType</text>
<polyline fill="none" stroke="black" points="1687.5,-113.5 2016.5,-113.5 "/>
<text text-anchor="start" x="1695.5" y="-98.3" font-family="Times,serif" font-size="14.00">generate_OA_parameters(): list</text>
<text text-anchor="start" x="1695.5" y="-83.3" font-family="Times,serif" font-size="14.00">grid_bbox(binsize): list</text>
<text text-anchor="start" x="1695.5" y="-68.3" font-family="Times,serif" font-size="14.00">make_request(base_url, payload)</text>
<text text-anchor="start" x="1695.5" y="-53.3" font-family="Times,serif" font-size="14.00">parallel_request_OA(): da.array</text>
<text text-anchor="start" x="1695.5" y="-38.3" font-family="Times,serif" font-size="14.00">query_icesat2_filelist(): tuple</text>
<text text-anchor="start" x="1695.5" y="-23.3" font-family="Times,serif" font-size="14.00">request_OA_data(paras): da.array</text>
<text text-anchor="start" x="1695.5" y="-8.3" font-family="Times,serif" font-size="14.00">viz_elevation(): (hv.DynamicMap, hv.Layout)</text>
</g>
</g>
</svg>
