<?xml version="1.0" encoding="UTF-8" standalone="no"?>
<!DOCTYPE svg PUBLIC "-//W3C//DTD SVG 1.1//EN"
 "http://www.w3.org/Graphics/SVG/1.1/DTD/svg11.dtd">
<!-- Generated by graphviz version 2.43.0 (0)
 -->
<!-- Title: classes_user_uml Pages: 1 -->
<svg width="2412pt" height="815pt"
 viewBox="0.00 0.00 2412.00 815.00" xmlns="http://www.w3.org/2000/svg" xmlns:xlink="http://www.w3.org/1999/xlink">
<g id="graph0" class="graph" transform="scale(1 1) rotate(0) translate(4 811)">
<title>classes_user_uml</title>
<polygon fill="white" stroke="transparent" points="-4,4 -4,-811 2408,-811 2408,4 -4,4"/>
<!-- icepyx.core.auth.AuthenticationError -->
<g id="node1" class="node">
<title>icepyx.core.auth.AuthenticationError</title>
<polygon fill="none" stroke="black" points="0,-74.6 0,-145.4 161,-145.4 161,-74.6 0,-74.6"/>
<text text-anchor="start" x="8" y="-130.2" font-family="Times,serif" font-size="14.00" fill="red">AuthenticationError</text>
<polyline fill="none" stroke="black" points="0,-122.4 161,-122.4 "/>
<polyline fill="none" stroke="black" points="0,-97.6 161,-97.6 "/>
<text text-anchor="start" x="78" y="-82.4" font-family="Times,serif" font-size="14.00" fill="red"> </text>
</g>
<!-- icepyx.core.exceptions.DeprecationError -->
<g id="node2" class="node">
<title>icepyx.core.exceptions.DeprecationError</title>
<polygon fill="none" stroke="black" points="179,-74.6 179,-145.4 322,-145.4 322,-74.6 179,-74.6"/>
<text text-anchor="start" x="187" y="-130.2" font-family="Times,serif" font-size="14.00" fill="red">DeprecationError</text>
<polyline fill="none" stroke="black" points="179,-122.4 322,-122.4 "/>
<polyline fill="none" stroke="black" points="179,-97.6 322,-97.6 "/>
<text text-anchor="start" x="248" y="-82.4" font-family="Times,serif" font-size="14.00" fill="red"> </text>
</g>
<!-- icepyx.core.auth.EarthdataAuthMixin -->
<g id="node3" class="node">
<title>icepyx.core.auth.EarthdataAuthMixin</title>
<polygon fill="none" stroke="black" points="1280,-685 1280,-784 1601,-784 1601,-685 1280,-685"/>
<text text-anchor="start" x="1367" y="-768.8" font-family="Times,serif" font-size="14.00">EarthdataAuthMixin</text>
<polyline fill="none" stroke="black" points="1280,-761 1601,-761 "/>
<text text-anchor="start" x="1371" y="-745.8" font-family="Times,serif" font-size="14.00">auth</text>
<text text-anchor="start" x="1371" y="-730.8" font-family="Times,serif" font-size="14.00">s3login_credentials</text>
<text text-anchor="start" x="1371" y="-715.8" font-family="Times,serif" font-size="14.00">session</text>
<polyline fill="none" stroke="black" points="1280,-708 1601,-708 "/>
<text text-anchor="start" x="1288" y="-692.8" font-family="Times,serif" font-size="14.00">earthdata_login(uid, email, s3token): None</text>
</g>
<!-- icepyx.core.query.GenQuery -->
<g id="node4" class="node">
<title>icepyx.core.query.GenQuery</title>
<polygon fill="none" stroke="black" points="836,-662.5 836,-806.5 953,-806.5 953,-662.5 836,-662.5"/>
<text text-anchor="start" x="858" y="-791.3" font-family="Times,serif" font-size="14.00">GenQuery</text>
<polyline fill="none" stroke="black" points="836,-783.5 953,-783.5 "/>
<text text-anchor="start" x="844" y="-768.3" font-family="Times,serif" font-size="14.00">dates</text>
<text text-anchor="start" x="844" y="-753.3" font-family="Times,serif" font-size="14.00">end_time</text>
<text text-anchor="start" x="844" y="-738.3" font-family="Times,serif" font-size="14.00">spatial</text>
<text text-anchor="start" x="844" y="-723.3" font-family="Times,serif" font-size="14.00">spatial_extent</text>
<text text-anchor="start" x="844" y="-708.3" font-family="Times,serif" font-size="14.00">start_time</text>
<text text-anchor="start" x="844" y="-693.3" font-family="Times,serif" font-size="14.00">temporal</text>
<polyline fill="none" stroke="black" points="836,-685.5 953,-685.5 "/>
<text text-anchor="start" x="892" y="-670.3" font-family="Times,serif" font-size="14.00"> </text>
</g>
<!-- icepyx.core.granules.Granules -->
<g id="node5" class="node">
<title>icepyx.core.granules.Granules</title>
<polygon fill="none" stroke="black" points="339.5,-53 339.5,-167 1025.5,-167 1025.5,-53 339.5,-53"/>
<text text-anchor="start" x="650" y="-151.8" font-family="Times,serif" font-size="14.00">Granules</text>
<polyline fill="none" stroke="black" points="339.5,-144 1025.5,-144 "/>
<text text-anchor="start" x="632.5" y="-128.8" font-family="Times,serif" font-size="14.00">avail : list</text>
<text text-anchor="start" x="632.5" y="-113.8" font-family="Times,serif" font-size="14.00">orderIDs : list</text>
<polyline fill="none" stroke="black" points="339.5,-106 1025.5,-106 "/>
<text text-anchor="start" x="347.5" y="-90.8" font-family="Times,serif" font-size="14.00">download(verbose, path, session, restart)</text>
<text text-anchor="start" x="347.5" y="-75.8" font-family="Times,serif" font-size="14.00">get_avail(CMRparams, reqparams, cloud)</text>
<text text-anchor="start" x="347.5" y="-60.8" font-family="Times,serif" font-size="14.00">place_order(CMRparams, reqparams, subsetparams, verbose, subset, session, geom_filepath)</text>
</g>
<!-- icepyx.core.query.Query -->
<g id="node9" class="node">
<title>icepyx.core.query.Query</title>
<polygon fill="none" stroke="black" points="993,-271.5 993,-610.5 1370,-610.5 1370,-271.5 993,-271.5"/>
<text text-anchor="start" x="1159.5" y="-595.3" font-family="Times,serif" font-size="14.00">Query</text>
<polyline fill="none" stroke="black" points="993,-587.5 1370,-587.5 "/>
<text text-anchor="start" x="1124" y="-572.3" font-family="Times,serif" font-size="14.00">CMRparams</text>
<text text-anchor="start" x="1124" y="-557.3" font-family="Times,serif" font-size="14.00">cycles</text>
<text text-anchor="start" x="1124" y="-542.3" font-family="Times,serif" font-size="14.00">dataset</text>
<text text-anchor="start" x="1124" y="-527.3" font-family="Times,serif" font-size="14.00">file_vars</text>
<text text-anchor="start" x="1124" y="-512.3" font-family="Times,serif" font-size="14.00">granules</text>
<text text-anchor="start" x="1124" y="-497.3" font-family="Times,serif" font-size="14.00">order_vars</text>
<text text-anchor="start" x="1124" y="-482.3" font-family="Times,serif" font-size="14.00">product</text>
<text text-anchor="start" x="1124" y="-467.3" font-family="Times,serif" font-size="14.00">product_version</text>
<text text-anchor="start" x="1124" y="-452.3" font-family="Times,serif" font-size="14.00">reqparams</text>
<text text-anchor="start" x="1124" y="-437.3" font-family="Times,serif" font-size="14.00">tracks</text>
<polyline fill="none" stroke="black" points="993,-429.5 1370,-429.5 "/>
<text text-anchor="start" x="1001" y="-414.3" font-family="Times,serif" font-size="14.00">avail_granules(ids, cycles, tracks, cloud)</text>
<text text-anchor="start" x="1001" y="-399.3" font-family="Times,serif" font-size="14.00">download_granules(path, verbose, subset, restart)</text>
<text text-anchor="start" x="1001" y="-384.3" font-family="Times,serif" font-size="14.00">latest_version()</text>
<text text-anchor="start" x="1001" y="-369.3" font-family="Times,serif" font-size="14.00">order_granules(verbose, subset, email)</text>
<text text-anchor="start" x="1001" y="-354.3" font-family="Times,serif" font-size="14.00">product_all_info()</text>
<text text-anchor="start" x="1001" y="-339.3" font-family="Times,serif" font-size="14.00">product_summary_info()</text>
<text text-anchor="start" x="1001" y="-324.3" font-family="Times,serif" font-size="14.00">show_custom_options(dictview)</text>
<text text-anchor="start" x="1001" y="-309.3" font-family="Times,serif" font-size="14.00">subsetparams()</text>
<text text-anchor="start" x="1001" y="-294.3" font-family="Times,serif" font-size="14.00">visualize_elevation()</text>
<text text-anchor="start" x="1001" y="-279.3" font-family="Times,serif" font-size="14.00">visualize_spatial_extent()</text>
</g>
<!-- icepyx.core.granules.Granules&#45;&gt;icepyx.core.query.Query -->
<g id="edge9" class="edge">
<title>icepyx.core.granules.Granules&#45;&gt;icepyx.core.query.Query</title>
<path fill="none" stroke="black" d="M674.06,-167.08C672.96,-196.83 677.68,-231.56 700.5,-253 721.72,-272.93 920.34,-261.3 980.89,-271.92"/>
<polygon fill="black" stroke="black" points="981.26,-272.01 988.08,-269.65 992.88,-275.03 986.07,-277.39 981.26,-272.01"/>
<text text-anchor="middle" x="735.5" y="-241.8" font-family="Times,serif" font-size="14.00" fill="green">_granules</text>
</g>
<!-- icepyx.core.granules.Granules&#45;&gt;icepyx.core.query.Query -->
<g id="edge10" class="edge">
<title>icepyx.core.granules.Granules&#45;&gt;icepyx.core.query.Query</title>
<path fill="none" stroke="black" d="M716.71,-167.21C738.63,-197.98 769.98,-233.68 807.5,-253 874.13,-287.31 907.96,-244.47 981.64,-270.79"/>
<polygon fill="black" stroke="black" points="981.65,-270.79 988.69,-269.27 992.81,-275.2 985.76,-276.72 981.65,-270.79"/>
<text text-anchor="middle" x="842.5" y="-241.8" font-family="Times,serif" font-size="14.00" fill="green">_granules</text>
</g>
<!-- icepyx.core.icesat2data.Icesat2Data -->
<g id="node6" class="node">
<title>icepyx.core.icesat2data.Icesat2Data</title>
<polygon fill="none" stroke="black" points="1797.5,-74.6 1797.5,-145.4 1899.5,-145.4 1899.5,-74.6 1797.5,-74.6"/>
<text text-anchor="start" x="1805.5" y="-130.2" font-family="Times,serif" font-size="14.00">Icesat2Data</text>
<polyline fill="none" stroke="black" points="1797.5,-122.4 1899.5,-122.4 "/>
<polyline fill="none" stroke="black" points="1797.5,-97.6 1899.5,-97.6 "/>
<text text-anchor="start" x="1846" y="-82.4" font-family="Times,serif" font-size="14.00"> </text>
</g>
<!-- icepyx.core.exceptions.NsidcQueryError -->
<g id="node7" class="node">
<title>icepyx.core.exceptions.NsidcQueryError</title>
<polygon fill="none" stroke="black" points="1917.5,-68 1917.5,-152 2057.5,-152 2057.5,-68 1917.5,-68"/>
<text text-anchor="start" x="1925.5" y="-136.8" font-family="Times,serif" font-size="14.00" fill="red">NsidcQueryError</text>
<polyline fill="none" stroke="black" points="1917.5,-129 2057.5,-129 "/>
<text text-anchor="start" x="1945" y="-113.8" font-family="Times,serif" font-size="14.00" fill="red">errmsg</text>
<text text-anchor="start" x="1945" y="-98.8" font-family="Times,serif" font-size="14.00" fill="red">msgtxt : str</text>
<polyline fill="none" stroke="black" points="1917.5,-91 2057.5,-91 "/>
<text text-anchor="start" x="1985" y="-75.8" font-family="Times,serif" font-size="14.00" fill="red"> </text>
</g>
<!-- icepyx.core.exceptions.QueryError -->
<g id="node10" class="node">
<title>icepyx.core.exceptions.QueryError</title>
<polygon fill="none" stroke="black" points="1938,-405.6 1938,-476.4 2037,-476.4 2037,-405.6 1938,-405.6"/>
<text text-anchor="start" x="1946" y="-461.2" font-family="Times,serif" font-size="14.00" fill="red">QueryError</text>
<polyline fill="none" stroke="black" points="1938,-453.4 2037,-453.4 "/>
<polyline fill="none" stroke="black" points="1938,-428.6 2037,-428.6 "/>
<text text-anchor="start" x="1985" y="-413.4" font-family="Times,serif" font-size="14.00" fill="red"> </text>
</g>
<!-- icepyx.core.exceptions.NsidcQueryError&#45;&gt;icepyx.core.exceptions.QueryError -->
<g id="edge1" class="edge">
<title>icepyx.core.exceptions.NsidcQueryError&#45;&gt;icepyx.core.exceptions.QueryError</title>
<path fill="none" stroke="black" d="M1987.5,-152C1987.5,-214.01 1987.5,-331.18 1987.5,-395.3"/>
<polygon fill="none" stroke="black" points="1984,-395.5 1987.5,-405.5 1991,-395.5 1984,-395.5"/>
</g>
<!-- icepyx.core.APIformatting.Parameters -->
<g id="node8" class="node">
<title>icepyx.core.APIformatting.Parameters</title>
<polygon fill="none" stroke="black" points="1043,-45.5 1043,-174.5 1194,-174.5 1194,-45.5 1043,-45.5"/>
<text text-anchor="start" x="1077" y="-159.3" font-family="Times,serif" font-size="14.00">Parameters</text>
<polyline fill="none" stroke="black" points="1043,-151.5 1194,-151.5 "/>
<text text-anchor="start" x="1077.5" y="-136.3" font-family="Times,serif" font-size="14.00">fmted_keys</text>
<text text-anchor="start" x="1077.5" y="-121.3" font-family="Times,serif" font-size="14.00">partype</text>
<text text-anchor="start" x="1077.5" y="-106.3" font-family="Times,serif" font-size="14.00">poss_keys</text>
<polyline fill="none" stroke="black" points="1043,-98.5 1194,-98.5 "/>
<text text-anchor="start" x="1051" y="-83.3" font-family="Times,serif" font-size="14.00">build_params()</text>
<text text-anchor="start" x="1051" y="-68.3" font-family="Times,serif" font-size="14.00">check_req_values()</text>
<text text-anchor="start" x="1051" y="-53.3" font-family="Times,serif" font-size="14.00">check_values()</text>
</g>
<!-- icepyx.core.APIformatting.Parameters&#45;&gt;icepyx.core.query.Query -->
<g id="edge5" class="edge">
<title>icepyx.core.APIformatting.Parameters&#45;&gt;icepyx.core.query.Query</title>
<path fill="none" stroke="black" d="M1082.54,-174.75C1069.63,-192.14 1053.48,-209.16 1034.5,-220 977.11,-252.77 847.39,-202.06 889.5,-253 914.43,-283.16 940.59,-257.47 981.82,-271.19"/>
<polygon fill="black" stroke="black" points="981.83,-271.2 988.9,-269.76 992.94,-275.73 985.87,-277.17 981.83,-271.2"/>
<text text-anchor="middle" x="937.5" y="-241.8" font-family="Times,serif" font-size="14.00" fill="green">_CMRparams</text>
</g>
<!-- icepyx.core.APIformatting.Parameters&#45;&gt;icepyx.core.query.Query -->
<g id="edge6" class="edge">
<title>icepyx.core.APIformatting.Parameters&#45;&gt;icepyx.core.query.Query</title>
<path fill="none" stroke="black" d="M1074.74,-174.63C1062.59,-190.28 1048.79,-206.42 1034.5,-220 1024.31,-229.68 1015.02,-225.55 1008.5,-238 1005.41,-243.91 1006.07,-246.79 1008.5,-253 1009.44,-255.41 1010.44,-257.81 1011.47,-260.2"/>
<polygon fill="black" stroke="black" points="1011.57,-260.4 1017.73,-264.15 1016.64,-271.27 1010.48,-267.53 1011.57,-260.4"/>
<text text-anchor="middle" x="1051" y="-241.8" font-family="Times,serif" font-size="14.00" fill="green">_reqparams</text>
</g>
<!-- icepyx.core.APIformatting.Parameters&#45;&gt;icepyx.core.query.Query -->
<g id="edge7" class="edge">
<title>icepyx.core.APIformatting.Parameters&#45;&gt;icepyx.core.query.Query</title>
<path fill="none" stroke="black" d="M1117.3,-174.63C1116.97,-194.88 1116.66,-217.38 1116.5,-238 1116.45,-244.67 1115.39,-246.43 1116.5,-253 1116.87,-255.19 1117.26,-257.39 1117.68,-259.6"/>
<polygon fill="black" stroke="black" points="1117.7,-259.7 1122.81,-264.78 1120.09,-271.46 1114.97,-266.38 1117.7,-259.7"/>
<text text-anchor="middle" x="1170.5" y="-241.8" font-family="Times,serif" font-size="14.00" fill="green">_subsetparams</text>
</g>
<!-- icepyx.core.APIformatting.Parameters&#45;&gt;icepyx.core.query.Query -->
<g id="edge8" class="edge">
<title>icepyx.core.APIformatting.Parameters&#45;&gt;icepyx.core.query.Query</title>
<path fill="none" stroke="black" d="M1186.07,-174.57C1201.7,-193.34 1216.18,-215.05 1224.5,-238 1227.04,-244.99 1228.88,-252.18 1230.12,-259.49"/>
<polygon fill="black" stroke="black" points="1230.13,-259.55 1234.85,-265 1231.63,-271.46 1226.91,-266 1230.13,-259.55"/>
<text text-anchor="middle" x="1282.5" y="-241.8" font-family="Times,serif" font-size="14.00" fill="green">_subsetparams</text>
</g>
<!-- icepyx.core.query.Query&#45;&gt;icepyx.core.auth.EarthdataAuthMixin -->
<g id="edge2" class="edge">
<title>icepyx.core.query.Query&#45;&gt;icepyx.core.auth.EarthdataAuthMixin</title>
<path fill="none" stroke="black" d="M1331.41,-610.72C1352.64,-634.62 1373.13,-657.67 1390.5,-677.22"/>
<polygon fill="none" stroke="black" points="1387.99,-679.67 1397.24,-684.82 1393.22,-675.02 1387.99,-679.67"/>
</g>
<!-- icepyx.core.query.Query&#45;&gt;icepyx.core.query.GenQuery -->
<g id="edge3" class="edge">
<title>icepyx.core.query.Query&#45;&gt;icepyx.core.query.GenQuery</title>
<path fill="none" stroke="black" d="M1022.42,-610.77C1011.35,-622.08 1000.3,-633.25 989.5,-644 980.22,-653.24 970.29,-662.86 960.48,-672.23"/>
<polygon fill="none" stroke="black" points="957.85,-669.91 953.01,-679.33 962.67,-674.98 957.85,-669.91"/>
</g>
<!-- icepyx.core.read.Read -->
<g id="node11" class="node">
<title>icepyx.core.read.Read</title>
<polygon fill="none" stroke="black" points="1701.5,-391.5 1701.5,-490.5 1773.5,-490.5 1773.5,-391.5 1701.5,-391.5"/>
<text text-anchor="start" x="1719" y="-475.3" font-family="Times,serif" font-size="14.00">Read</text>
<polyline fill="none" stroke="black" points="1701.5,-467.5 1773.5,-467.5 "/>
<text text-anchor="start" x="1709.5" y="-452.3" font-family="Times,serif" font-size="14.00">filelist</text>
<text text-anchor="start" x="1709.5" y="-437.3" font-family="Times,serif" font-size="14.00">product</text>
<text text-anchor="start" x="1709.5" y="-422.3" font-family="Times,serif" font-size="14.00">vars</text>
<polyline fill="none" stroke="black" points="1701.5,-414.5 1773.5,-414.5 "/>
<text text-anchor="start" x="1717" y="-399.3" font-family="Times,serif" font-size="14.00">load()</text>
</g>
<!-- icepyx.core.spatial.Spatial -->
<g id="node12" class="node">
<title>icepyx.core.spatial.Spatial</title>
<polygon fill="none" stroke="black" points="735,-376.5 735,-505.5 856,-505.5 856,-376.5 735,-376.5"/>
<text text-anchor="start" x="770" y="-490.3" font-family="Times,serif" font-size="14.00">Spatial</text>
<polyline fill="none" stroke="black" points="735,-482.5 856,-482.5 "/>
<text text-anchor="start" x="746" y="-467.3" font-family="Times,serif" font-size="14.00">extent</text>
<text text-anchor="start" x="746" y="-452.3" font-family="Times,serif" font-size="14.00">extent_as_gdf</text>
<text text-anchor="start" x="746" y="-437.3" font-family="Times,serif" font-size="14.00">extent_file</text>
<text text-anchor="start" x="746" y="-422.3" font-family="Times,serif" font-size="14.00">extent_type</text>
<polyline fill="none" stroke="black" points="735,-414.5 856,-414.5 "/>
<text text-anchor="start" x="743" y="-399.3" font-family="Times,serif" font-size="14.00">fmt_for_CMR()</text>
<text text-anchor="start" x="743" y="-384.3" font-family="Times,serif" font-size="14.00">fmt_for_EGI()</text>
</g>
<!-- icepyx.core.spatial.Spatial&#45;&gt;icepyx.core.query.GenQuery -->
<g id="edge11" class="edge">
<title>icepyx.core.spatial.Spatial&#45;&gt;icepyx.core.query.GenQuery</title>
<path fill="none" stroke="black" d="M773.76,-505.69C763.46,-547.12 757.47,-601.2 778.5,-644 788.91,-665.19 807.03,-682.78 825.89,-696.59"/>
<polygon fill="black" stroke="black" points="825.93,-696.62 833.14,-696.76 835.78,-703.47 828.57,-703.33 825.93,-696.62"/>
<text text-anchor="middle" x="806" y="-632.8" font-family="Times,serif" font-size="14.00" fill="green">_spatial</text>
</g>
<!-- icepyx.core.spatial.Spatial&#45;&gt;icepyx.core.query.GenQuery -->
<g id="edge12" class="edge">
<title>icepyx.core.spatial.Spatial&#45;&gt;icepyx.core.query.GenQuery</title>
<path fill="none" stroke="black" d="M810.6,-505.64C820.84,-545.84 835.57,-598.59 852.5,-644 853.33,-646.23 854.2,-648.48 855.09,-650.75"/>
<polygon fill="black" stroke="black" points="855.2,-651.03 861.18,-655.06 859.75,-662.13 853.77,-658.1 855.2,-651.03"/>
<text text-anchor="middle" x="880" y="-632.8" font-family="Times,serif" font-size="14.00" fill="green">_spatial</text>
</g>
<!-- icepyx.core.temporal.Temporal -->
<g id="node13" class="node">
<title>icepyx.core.temporal.Temporal</title>
<polygon fill="none" stroke="black" points="892,-399 892,-483 975,-483 975,-399 892,-399"/>
<text text-anchor="start" x="900" y="-467.8" font-family="Times,serif" font-size="14.00">Temporal</text>
<polyline fill="none" stroke="black" points="892,-460 975,-460 "/>
<text text-anchor="start" x="916" y="-444.8" font-family="Times,serif" font-size="14.00">end</text>
<text text-anchor="start" x="916" y="-429.8" font-family="Times,serif" font-size="14.00">start</text>
<polyline fill="none" stroke="black" points="892,-422 975,-422 "/>
<text text-anchor="start" x="931" y="-406.8" font-family="Times,serif" font-size="14.00"> </text>
</g>
<!-- icepyx.core.temporal.Temporal&#45;&gt;icepyx.core.query.GenQuery -->
<g id="edge13" class="edge">
<title>icepyx.core.temporal.Temporal&#45;&gt;icepyx.core.query.GenQuery</title>
<path fill="none" stroke="black" d="M929.98,-483.13C926.26,-524.04 919.78,-588.52 911.5,-644 911.2,-646.04 910.88,-648.11 910.55,-650.2"/>
<polygon fill="black" stroke="black" points="910.51,-650.42 913.48,-656.99 908.56,-662.26 905.59,-655.69 910.51,-650.42"/>
<text text-anchor="middle" x="949.5" y="-632.8" font-family="Times,serif" font-size="14.00" fill="green">_temporal</text>
</g>
<!-- icepyx.core.variables.Variables -->
<g id="node14" class="node">
<title>icepyx.core.variables.Variables</title>
<polygon fill="none" stroke="black" points="1404,-30.5 1404,-189.5 1779,-189.5 1779,-30.5 1404,-30.5"/>
<text text-anchor="start" x="1558" y="-174.3" font-family="Times,serif" font-size="14.00">Variables</text>
<polyline fill="none" stroke="black" points="1404,-166.5 1779,-166.5 "/>
<text text-anchor="start" x="1504" y="-151.3" font-family="Times,serif" font-size="14.00">path</text>
<text text-anchor="start" x="1504" y="-136.3" font-family="Times,serif" font-size="14.00">product</text>
<text text-anchor="start" x="1504" y="-121.3" font-family="Times,serif" font-size="14.00">version</text>
<text text-anchor="start" x="1504" y="-106.3" font-family="Times,serif" font-size="14.00">wanted : NoneType, dict</text>
<polyline fill="none" stroke="black" points="1404,-98.5 1779,-98.5 "/>
<text text-anchor="start" x="1412" y="-83.3" font-family="Times,serif" font-size="14.00">append(defaults, var_list, beam_list, keyword_list)</text>
<text text-anchor="start" x="1412" y="-68.3" font-family="Times,serif" font-size="14.00">avail(options, internal)</text>
<text text-anchor="start" x="1412" y="-53.3" font-family="Times,serif" font-size="14.00">parse_var_list(varlist, tiered, tiered_vars)</text>
<text text-anchor="start" x="1412" y="-38.3" font-family="Times,serif" font-size="14.00">remove(all, var_list, beam_list, keyword_list)</text>
</g>
<!-- icepyx.core.variables.Variables&#45;&gt;icepyx.core.auth.EarthdataAuthMixin -->
<g id="edge4" class="edge">
<title>icepyx.core.variables.Variables&#45;&gt;icepyx.core.auth.EarthdataAuthMixin</title>
<path fill="none" stroke="black" d="M1639.37,-189.57C1646.83,-209.83 1650.83,-231.89 1646.5,-253 1613.36,-414.38 1523.65,-588.48 1474.25,-676.13"/>
<polygon fill="none" stroke="black" points="1471.2,-674.42 1469.31,-684.85 1477.29,-677.87 1471.2,-674.42"/>
</g>
<!-- icepyx.core.variables.Variables&#45;&gt;icepyx.core.query.Query -->
<g id="edge14" class="edge">
<title>icepyx.core.variables.Variables&#45;&gt;icepyx.core.query.Query</title>
<path fill="none" stroke="black" d="M1448.01,-189.54C1424.08,-204.6 1400.05,-221 1378.5,-238 1368.41,-245.95 1358.33,-254.4 1348.35,-263.15"/>
<polygon fill="black" stroke="black" points="1348.18,-263.3 1346.35,-270.27 1339.21,-271.27 1341.04,-264.29 1348.18,-263.3"/>
<text text-anchor="middle" x="1420.5" y="-241.8" font-family="Times,serif" font-size="14.00" fill="green">_order_vars</text>
</g>
<!-- icepyx.core.variables.Variables&#45;&gt;icepyx.core.query.Query -->
<g id="edge15" class="edge">
<title>icepyx.core.variables.Variables&#45;&gt;icepyx.core.query.Query</title>
<path fill="none" stroke="black" d="M1526.46,-189.51C1506.91,-211.14 1484.72,-233.89 1462.5,-253 1436.96,-274.96 1408.73,-296.49 1380.3,-316.66"/>
<polygon fill="black" stroke="black" points="1380.05,-316.84 1377.45,-323.56 1370.24,-323.74 1372.84,-317.02 1380.05,-316.84"/>
<text text-anchor="middle" x="1520.5" y="-241.8" font-family="Times,serif" font-size="14.00" fill="green">_order_vars</text>
</g>
<!-- icepyx.core.variables.Variables&#45;&gt;icepyx.core.query.Query -->
<g id="edge16" class="edge">
<title>icepyx.core.variables.Variables&#45;&gt;icepyx.core.query.Query</title>
<path fill="none" stroke="black" d="M1590.77,-189.64C1587.27,-211.87 1580.15,-234.92 1566.5,-253 1520.71,-313.68 1450.03,-355.73 1381.67,-384.34"/>
<polygon fill="black" stroke="black" points="1381.39,-384.46 1377.35,-390.43 1370.28,-389 1374.32,-383.02 1381.39,-384.46"/>
<text text-anchor="middle" x="1609" y="-241.8" font-family="Times,serif" font-size="14.00" fill="green">_file_vars</text>
</g>
<!-- icepyx.core.variables.Variables&#45;&gt;icepyx.core.read.Read -->
<g id="edge17" class="edge">
<title>icepyx.core.variables.Variables&#45;&gt;icepyx.core.read.Read</title>
<path fill="none" stroke="black" d="M1658.67,-189.82C1669.46,-205.12 1679.65,-221.53 1687.5,-238 1708.9,-282.87 1721.74,-337.86 1729.04,-379.13"/>
<polygon fill="black" stroke="black" points="1729.08,-379.37 1734.02,-384.61 1731.08,-391.2 1726.14,-385.95 1729.08,-379.37"/>
<text text-anchor="middle" x="1731" y="-241.8" font-family="Times,serif" font-size="14.00" fill="green">_read_vars</text>
</g>
<!-- icepyx.core.visualization.Visualize -->
<g id="node15" class="node">
<title>icepyx.core.visualization.Visualize</title>
<polygon fill="none" stroke="black" points="2075,-0.5 2075,-219.5 2404,-219.5 2404,-0.5 2075,-0.5"/>
<text text-anchor="start" x="2207.5" y="-204.3" font-family="Times,serif" font-size="14.00">Visualize</text>
<polyline fill="none" stroke="black" points="2075,-196.5 2404,-196.5 "/>
<text text-anchor="start" x="2154" y="-181.3" font-family="Times,serif" font-size="14.00">bbox : list</text>
<text text-anchor="start" x="2154" y="-166.3" font-family="Times,serif" font-size="14.00">cycles : NoneType</text>
<text text-anchor="start" x="2154" y="-151.3" font-family="Times,serif" font-size="14.00">date_range : NoneType</text>
<text text-anchor="start" x="2154" y="-136.3" font-family="Times,serif" font-size="14.00">product : NoneType, str</text>
<text text-anchor="start" x="2154" y="-121.3" font-family="Times,serif" font-size="14.00">tracks : NoneType</text>
<polyline fill="none" stroke="black" points="2075,-113.5 2404,-113.5 "/>
<text text-anchor="start" x="2083" y="-98.3" font-family="Times,serif" font-size="14.00">generate_OA_parameters(): list</text>
<text text-anchor="start" x="2083" y="-83.3" font-family="Times,serif" font-size="14.00">grid_bbox(binsize): list</text>
<text text-anchor="start" x="2083" y="-68.3" font-family="Times,serif" font-size="14.00">make_request(base_url, payload)</text>
<text text-anchor="start" x="2083" y="-53.3" font-family="Times,serif" font-size="14.00">parallel_request_OA(): da.array</text>
<text text-anchor="start" x="2083" y="-38.3" font-family="Times,serif" font-size="14.00">query_icesat2_filelist(): tuple</text>
<text text-anchor="start" x="2083" y="-23.3" font-family="Times,serif" font-size="14.00">request_OA_data(paras): da.array</text>
<text text-anchor="start" x="2083" y="-8.3" font-family="Times,serif" font-size="14.00">viz_elevation(): (hv.DynamicMap, hv.Layout)</text>
</g>
</g>
</svg>
