<?xml version="1.0" encoding="UTF-8" standalone="no"?>
<!DOCTYPE svg PUBLIC "-//W3C//DTD SVG 1.1//EN"
 "http://www.w3.org/Graphics/SVG/1.1/DTD/svg11.dtd">
<!-- Generated by graphviz version 2.43.0 (0)
 -->
<!-- Title: classes_quest_user_uml Pages: 1 -->
<svg width="1054pt" height="302pt"
 viewBox="0.00 0.00 1053.50 301.80" xmlns="http://www.w3.org/2000/svg" xmlns:xlink="http://www.w3.org/1999/xlink">
<g id="graph0" class="graph" transform="scale(1 1) rotate(0) translate(4 297.8)">
<title>classes_quest_user_uml</title>
<polygon fill="white" stroke="transparent" points="-4,4 -4,-297.8 1049.5,-297.8 1049.5,4 -4,4"/>
<!-- icepyx.quest.dataset_scripts.argo.Argo -->
<g id="node1" class="node">
<title>icepyx.quest.dataset_scripts.argo.Argo</title>
<polygon fill="none" stroke="black" points="0,-0.5 0,-144.5 452,-144.5 452,-0.5 0,-0.5"/>
<text text-anchor="start" x="209" y="-129.3" font-family="Times,serif" font-size="14.00">Argo</text>
<polyline fill="none" stroke="black" points="0,-121.5 452,-121.5 "/>
<text text-anchor="start" x="106.5" y="-106.3" font-family="Times,serif" font-size="14.00">argodata : DataFrame, NoneType</text>
<text text-anchor="start" x="106.5" y="-91.3" font-family="Times,serif" font-size="14.00">params</text>
<text text-anchor="start" x="106.5" y="-76.3" font-family="Times,serif" font-size="14.00">presRange</text>
<text text-anchor="start" x="106.5" y="-61.3" font-family="Times,serif" font-size="14.00">prof_ids : list</text>
<polyline fill="none" stroke="black" points="0,-53.5 452,-53.5 "/>
<text text-anchor="start" x="8" y="-38.3" font-family="Times,serif" font-size="14.00">download(params, presRange, keep_existing): pd.DataFrame</text>
<text text-anchor="start" x="8" y="-23.3" font-family="Times,serif" font-size="14.00">save(filepath)</text>
<text text-anchor="start" x="8" y="-8.3" font-family="Times,serif" font-size="14.00">search_data(params, presRange, printURL): str</text>
</g>
<!-- icepyx.quest.dataset_scripts.dataset.DataSet -->
<g id="node2" class="node">
<title>icepyx.quest.dataset_scripts.dataset.DataSet</title>
<polygon fill="none" stroke="black" points="169,-181.5 169,-293.3 283,-293.3 283,-181.5 169,-181.5"/>
<text text-anchor="start" x="197" y="-278.1" font-family="Times,serif" font-size="14.00">DataSet</text>
<polyline fill="none" stroke="black" points="169,-270.3 283,-270.3 "/>
<polyline fill="none" stroke="black" points="169,-245.5 283,-245.5 "/>
<text text-anchor="start" x="177" y="-231.3" font-family="Times,serif" font-style="italic" font-size="14.00">download</text>
<text text-anchor="start" x="246" y="-231.3" font-family="Times,serif" font-size="14.00">()</text>
<text text-anchor="start" x="177" y="-217.3" font-family="Times,serif" font-style="italic" font-size="14.00">save</text>
<text text-anchor="start" x="210" y="-217.3" font-family="Times,serif" font-size="14.00">(filepath)</text>
<text text-anchor="start" x="177" y="-203.3" font-family="Times,serif" font-style="italic" font-size="14.00">search_data</text>
<text text-anchor="start" x="263" y="-203.3" font-family="Times,serif" font-size="14.00">()</text>
<text text-anchor="start" x="177" y="-189.3" font-family="Times,serif" font-style="italic" font-size="14.00">visualize</text>
<text text-anchor="start" x="240" y="-189.3" font-family="Times,serif" font-size="14.00">()</text>
</g>
<!-- icepyx.quest.dataset_scripts.argo.Argo&#45;&gt;icepyx.quest.dataset_scripts.dataset.DataSet -->
<g id="edge1" class="edge">
<title>icepyx.quest.dataset_scripts.argo.Argo&#45;&gt;icepyx.quest.dataset_scripts.dataset.DataSet</title>
<path fill="none" stroke="black" d="M226,-144.95C226,-153.58 226,-162.36 226,-170.9"/>
<polygon fill="none" stroke="black" points="222.5,-171.17 226,-181.17 229.5,-171.17 222.5,-171.17"/>
</g>
<!-- icepyx.quest.quest.Quest -->
<g id="node3" class="node">
<title>icepyx.quest.quest.Quest</title>
<polygon fill="none" stroke="black" points="470.5,-8 470.5,-137 1045.5,-137 1045.5,-8 470.5,-8"/>
<text text-anchor="start" x="736.5" y="-121.8" font-family="Times,serif" font-size="14.00">Quest</text>
<polyline fill="none" stroke="black" points="470.5,-114 1045.5,-114 "/>
<text text-anchor="start" x="707" y="-98.8" font-family="Times,serif" font-size="14.00">datasets : dict</text>
<polyline fill="none" stroke="black" points="470.5,-91 1045.5,-91 "/>
<text text-anchor="start" x="478.5" y="-75.8" font-family="Times,serif" font-size="14.00">add_argo(params, presRange): None</text>
<text text-anchor="start" x="478.5" y="-60.8" font-family="Times,serif" font-size="14.00">add_icesat2(product, start_time, end_time, version, cycles, tracks, files): None</text>
<text text-anchor="start" x="478.5" y="-45.8" font-family="Times,serif" font-size="14.00">download_all(path)</text>
<text text-anchor="start" x="478.5" y="-30.8" font-family="Times,serif" font-size="14.00">save_all(path)</text>
<text text-anchor="start" x="478.5" y="-15.8" font-family="Times,serif" font-size="14.00">search_all()</text>
</g>
</g>
</svg>
