<?xml version="1.0" encoding="UTF-8" standalone="no"?>
<!DOCTYPE svg PUBLIC "-//W3C//DTD SVG 1.1//EN"
 "http://www.w3.org/Graphics/SVG/1.1/DTD/svg11.dtd">
<!-- Generated by graphviz version 2.43.0 (0)
 -->
<!-- Title: classes_user_uml Pages: 1 -->
<svg width="2205pt" height="801pt"
 viewBox="0.00 0.00 2205.00 801.00" xmlns="http://www.w3.org/2000/svg" xmlns:xlink="http://www.w3.org/1999/xlink">
<g id="graph0" class="graph" transform="scale(1 1) rotate(0) translate(4 797)">
<title>classes_user_uml</title>
<polygon fill="white" stroke="transparent" points="-4,4 -4,-797 2201,-797 2201,4 -4,4"/>
<!-- icepyx.core.Earthdata.Earthdata -->
<g id="node1" class="node">
<title>icepyx.core.Earthdata.Earthdata</title>
<polygon fill="none" stroke="black" points="0,-38 0,-182 169,-182 169,-38 0,-38"/>
<text text-anchor="middle" x="84.5" y="-166.8" font-family="Times,serif" font-size="14.00">Earthdata</text>
<polyline fill="none" stroke="black" points="0,-159 169,-159 "/>
<text text-anchor="start" x="8" y="-143.8" font-family="Times,serif" font-size="14.00">capability_url</text>
<text text-anchor="start" x="8" y="-128.8" font-family="Times,serif" font-size="14.00">email</text>
<text text-anchor="start" x="8" y="-113.8" font-family="Times,serif" font-size="14.00">netrc : NoneType</text>
<text text-anchor="start" x="8" y="-98.8" font-family="Times,serif" font-size="14.00">pswd : NoneType, str</text>
<text text-anchor="start" x="8" y="-83.8" font-family="Times,serif" font-size="14.00">session : Session</text>
<text text-anchor="start" x="8" y="-68.8" font-family="Times,serif" font-size="14.00">uid</text>
<polyline fill="none" stroke="black" points="0,-61 169,-61 "/>
<text text-anchor="start" x="8" y="-45.8" font-family="Times,serif" font-size="14.00">login(attempts)</text>
</g>
<!-- icepyx.core.query.GenQuery -->
<g id="node2" class="node">
<title>icepyx.core.query.GenQuery</title>
<polygon fill="none" stroke="black" points="895.5,-723.5 895.5,-792.5 1029.5,-792.5 1029.5,-723.5 895.5,-723.5"/>
<text text-anchor="middle" x="962.5" y="-777.3" font-family="Times,serif" font-size="14.00">GenQuery</text>
<polyline fill="none" stroke="black" points="895.5,-769.5 1029.5,-769.5 "/>
<text text-anchor="start" x="903.5" y="-754.3" font-family="Times,serif" font-size="14.00">extent_type : str</text>
<polyline fill="none" stroke="black" points="895.5,-746.5 1029.5,-746.5 "/>
<text text-anchor="middle" x="962.5" y="-731.3" font-family="Times,serif" font-size="14.00"> </text>
</g>
<!-- icepyx.core.granules.Granules -->
<g id="node3" class="node">
<title>icepyx.core.granules.Granules</title>
<polygon fill="none" stroke="black" points="186.5,-53 186.5,-167 872.5,-167 872.5,-53 186.5,-53"/>
<text text-anchor="middle" x="529.5" y="-151.8" font-family="Times,serif" font-size="14.00">Granules</text>
<polyline fill="none" stroke="black" points="186.5,-144 872.5,-144 "/>
<text text-anchor="start" x="194.5" y="-128.8" font-family="Times,serif" font-size="14.00">avail : list</text>
<text text-anchor="start" x="194.5" y="-113.8" font-family="Times,serif" font-size="14.00">orderIDs : list</text>
<polyline fill="none" stroke="black" points="186.5,-106 872.5,-106 "/>
<text text-anchor="start" x="194.5" y="-90.8" font-family="Times,serif" font-size="14.00">download(verbose, path, session, restart)</text>
<text text-anchor="start" x="194.5" y="-75.8" font-family="Times,serif" font-size="14.00">get_avail(CMRparams, reqparams)</text>
<text text-anchor="start" x="194.5" y="-60.8" font-family="Times,serif" font-size="14.00">place_order(CMRparams, reqparams, subsetparams, verbose, subset, session, geom_filepath)</text>
</g>
<!-- icepyx.core.query.Query -->
<g id="node7" class="node">
<title>icepyx.core.query.Query</title>
<polygon fill="none" stroke="black" points="774,-271.5 774,-685.5 1151,-685.5 1151,-271.5 774,-271.5"/>
<text text-anchor="middle" x="962.5" y="-670.3" font-family="Times,serif" font-size="14.00">Query</text>
<polyline fill="none" stroke="black" points="774,-662.5 1151,-662.5 "/>
<text text-anchor="start" x="782" y="-647.3" font-family="Times,serif" font-size="14.00">CMRparams</text>
<text text-anchor="start" x="782" y="-632.3" font-family="Times,serif" font-size="14.00">cycles</text>
<text text-anchor="start" x="782" y="-617.3" font-family="Times,serif" font-size="14.00">dataset</text>
<text text-anchor="start" x="782" y="-602.3" font-family="Times,serif" font-size="14.00">dates</text>
<text text-anchor="start" x="782" y="-587.3" font-family="Times,serif" font-size="14.00">end_time</text>
<text text-anchor="start" x="782" y="-572.3" font-family="Times,serif" font-size="14.00">file_vars</text>
<text text-anchor="start" x="782" y="-557.3" font-family="Times,serif" font-size="14.00">granules</text>
<text text-anchor="start" x="782" y="-542.3" font-family="Times,serif" font-size="14.00">order_vars</text>
<text text-anchor="start" x="782" y="-527.3" font-family="Times,serif" font-size="14.00">product</text>
<text text-anchor="start" x="782" y="-512.3" font-family="Times,serif" font-size="14.00">product_version</text>
<text text-anchor="start" x="782" y="-497.3" font-family="Times,serif" font-size="14.00">reqparams</text>
<text text-anchor="start" x="782" y="-482.3" font-family="Times,serif" font-size="14.00">spatial_extent</text>
<text text-anchor="start" x="782" y="-467.3" font-family="Times,serif" font-size="14.00">start_time</text>
<text text-anchor="start" x="782" y="-452.3" font-family="Times,serif" font-size="14.00">tracks</text>
<polyline fill="none" stroke="black" points="774,-444.5 1151,-444.5 "/>
<text text-anchor="start" x="782" y="-429.3" font-family="Times,serif" font-size="14.00">avail_granules(ids, cycles, tracks, s3urls)</text>
<text text-anchor="start" x="782" y="-414.3" font-family="Times,serif" font-size="14.00">download_granules(path, verbose, subset, restart)</text>
<text text-anchor="start" x="782" y="-399.3" font-family="Times,serif" font-size="14.00">earthdata_login(uid, email, s3token)</text>
<text text-anchor="start" x="782" y="-384.3" font-family="Times,serif" font-size="14.00">latest_version()</text>
<text text-anchor="start" x="782" y="-369.3" font-family="Times,serif" font-size="14.00">order_granules(verbose, subset, email)</text>
<text text-anchor="start" x="782" y="-354.3" font-family="Times,serif" font-size="14.00">product_all_info()</text>
<text text-anchor="start" x="782" y="-339.3" font-family="Times,serif" font-size="14.00">product_summary_info()</text>
<text text-anchor="start" x="782" y="-324.3" font-family="Times,serif" font-size="14.00">show_custom_options(dictview)</text>
<text text-anchor="start" x="782" y="-309.3" font-family="Times,serif" font-size="14.00">subsetparams()</text>
<text text-anchor="start" x="782" y="-294.3" font-family="Times,serif" font-size="14.00">visualize_elevation()</text>
<text text-anchor="start" x="782" y="-279.3" font-family="Times,serif" font-size="14.00">visualize_spatial_extent()</text>
</g>
<!-- icepyx.core.granules.Granules&#45;&gt;icepyx.core.query.Query -->
<g id="edge7" class="edge">
<title>icepyx.core.granules.Granules&#45;&gt;icepyx.core.query.Query</title>
<path fill="none" stroke="black" d="M525.06,-167.12C525.56,-195.11 530.51,-228.19 547.5,-253 598.73,-327.8 683.22,-379.88 762.64,-414.91"/>
<polygon fill="black" stroke="black" points="762.8,-414.97 769.89,-413.68 773.81,-419.74 766.72,-421.03 762.8,-414.97"/>
<text text-anchor="middle" x="582.5" y="-241.8" font-family="Times,serif" font-size="14.00" fill="green">_granules</text>
</g>
<!-- icepyx.core.granules.Granules&#45;&gt;icepyx.core.query.Query -->
<g id="edge8" class="edge">
<title>icepyx.core.granules.Granules&#45;&gt;icepyx.core.query.Query</title>
<path fill="none" stroke="black" d="M573.62,-167.24C596.18,-194.46 624.88,-226.83 653.5,-253 687.68,-284.25 726.2,-315.15 764.15,-343.57"/>
<polygon fill="black" stroke="black" points="764.16,-343.58 771.36,-343.95 773.79,-350.74 766.59,-350.37 764.16,-343.58"/>
<text text-anchor="middle" x="688.5" y="-241.8" font-family="Times,serif" font-size="14.00" fill="green">_granules</text>
</g>
<!-- icepyx.core.icesat2data.Icesat2Data -->
<g id="node4" class="node">
<title>icepyx.core.icesat2data.Icesat2Data</title>
<polygon fill="none" stroke="black" points="1590.5,-75 1590.5,-145 1692.5,-145 1692.5,-75 1590.5,-75"/>
<text text-anchor="middle" x="1641.5" y="-129.8" font-family="Times,serif" font-size="14.00">Icesat2Data</text>
<polyline fill="none" stroke="black" points="1590.5,-122 1692.5,-122 "/>
<polyline fill="none" stroke="black" points="1590.5,-98 1692.5,-98 "/>
<text text-anchor="middle" x="1641.5" y="-82.8" font-family="Times,serif" font-size="14.00"> </text>
</g>
<!-- icepyx.core.exceptions.NsidcQueryError -->
<g id="node5" class="node">
<title>icepyx.core.exceptions.NsidcQueryError</title>
<polygon fill="none" stroke="black" points="1710.5,-68 1710.5,-152 1850.5,-152 1850.5,-68 1710.5,-68"/>
<text text-anchor="middle" x="1780.5" y="-136.8" font-family="Times,serif" font-size="14.00" fill="red">NsidcQueryError</text>
<polyline fill="none" stroke="black" points="1710.5,-129 1850.5,-129 "/>
<text text-anchor="start" x="1718.5" y="-113.8" font-family="Times,serif" font-size="14.00" fill="red">errmsg</text>
<text text-anchor="start" x="1718.5" y="-98.8" font-family="Times,serif" font-size="14.00" fill="red">msgtxt : str</text>
<polyline fill="none" stroke="black" points="1710.5,-91 1850.5,-91 "/>
<text text-anchor="middle" x="1780.5" y="-75.8" font-family="Times,serif" font-size="14.00" fill="red"> </text>
</g>
<!-- icepyx.core.exceptions.QueryError -->
<g id="node8" class="node">
<title>icepyx.core.exceptions.QueryError</title>
<polygon fill="none" stroke="black" points="1731,-443.5 1731,-513.5 1830,-513.5 1830,-443.5 1731,-443.5"/>
<text text-anchor="middle" x="1780.5" y="-498.3" font-family="Times,serif" font-size="14.00" fill="red">QueryError</text>
<polyline fill="none" stroke="black" points="1731,-490.5 1830,-490.5 "/>
<polyline fill="none" stroke="black" points="1731,-466.5 1830,-466.5 "/>
<text text-anchor="middle" x="1780.5" y="-451.3" font-family="Times,serif" font-size="14.00" fill="red"> </text>
</g>
<!-- icepyx.core.exceptions.NsidcQueryError&#45;&gt;icepyx.core.exceptions.QueryError -->
<g id="edge1" class="edge">
<title>icepyx.core.exceptions.NsidcQueryError&#45;&gt;icepyx.core.exceptions.QueryError</title>
<path fill="none" stroke="black" d="M1780.5,-152.33C1780.5,-221.92 1780.5,-361.86 1780.5,-433.32"/>
<polygon fill="none" stroke="black" points="1777,-433.35 1780.5,-443.35 1784,-433.35 1777,-433.35"/>
</g>
<!-- icepyx.core.APIformatting.Parameters -->
<g id="node6" class="node">
<title>icepyx.core.APIformatting.Parameters</title>
<polygon fill="none" stroke="black" points="890,-45.5 890,-174.5 1041,-174.5 1041,-45.5 890,-45.5"/>
<text text-anchor="middle" x="965.5" y="-159.3" font-family="Times,serif" font-size="14.00">Parameters</text>
<polyline fill="none" stroke="black" points="890,-151.5 1041,-151.5 "/>
<text text-anchor="start" x="898" y="-136.3" font-family="Times,serif" font-size="14.00">fmted_keys</text>
<text text-anchor="start" x="898" y="-121.3" font-family="Times,serif" font-size="14.00">partype</text>
<text text-anchor="start" x="898" y="-106.3" font-family="Times,serif" font-size="14.00">poss_keys</text>
<polyline fill="none" stroke="black" points="890,-98.5 1041,-98.5 "/>
<text text-anchor="start" x="898" y="-83.3" font-family="Times,serif" font-size="14.00">build_params()</text>
<text text-anchor="start" x="898" y="-68.3" font-family="Times,serif" font-size="14.00">check_req_values()</text>
<text text-anchor="start" x="898" y="-53.3" font-family="Times,serif" font-size="14.00">check_values()</text>
</g>
<!-- icepyx.core.APIformatting.Parameters&#45;&gt;icepyx.core.query.Query -->
<g id="edge3" class="edge">
<title>icepyx.core.APIformatting.Parameters&#45;&gt;icepyx.core.query.Query</title>
<path fill="none" stroke="black" d="M929.54,-174.75C916.63,-192.14 900.48,-209.16 881.5,-220 853.3,-236.1 758,-213.67 736.5,-238 700.29,-278.98 722.7,-322.78 764.97,-361.56"/>
<polygon fill="black" stroke="black" points="764.98,-361.57 772.12,-362.54 773.98,-369.51 766.83,-368.54 764.98,-361.57"/>
<text text-anchor="middle" x="784.5" y="-241.8" font-family="Times,serif" font-size="14.00" fill="green">_CMRparams</text>
</g>
<!-- icepyx.core.APIformatting.Parameters&#45;&gt;icepyx.core.query.Query -->
<g id="edge4" class="edge">
<title>icepyx.core.APIformatting.Parameters&#45;&gt;icepyx.core.query.Query</title>
<path fill="none" stroke="black" d="M921.74,-174.63C909.59,-190.28 895.79,-206.42 881.5,-220 871.31,-229.68 862.02,-225.55 855.5,-238 851.83,-245 849.16,-252.15 847.35,-259.39"/>
<polygon fill="black" stroke="black" points="847.34,-259.46 850.18,-266.08 845.16,-271.26 842.31,-264.63 847.34,-259.46"/>
<text text-anchor="middle" x="898" y="-241.8" font-family="Times,serif" font-size="14.00" fill="green">_reqparams</text>
</g>
<!-- icepyx.core.APIformatting.Parameters&#45;&gt;icepyx.core.query.Query -->
<g id="edge5" class="edge">
<title>icepyx.core.APIformatting.Parameters&#45;&gt;icepyx.core.query.Query</title>
<path fill="none" stroke="black" d="M964.35,-174.63C964.03,-194.88 963.71,-217.38 963.5,-238 963.43,-244.99 963.37,-252.1 963.31,-259.28"/>
<polygon fill="black" stroke="black" points="963.3,-259.41 967.26,-265.44 963.21,-271.41 959.26,-265.38 963.3,-259.41"/>
<text text-anchor="middle" x="1017.5" y="-241.8" font-family="Times,serif" font-size="14.00" fill="green">_subsetparams</text>
</g>
<!-- icepyx.core.APIformatting.Parameters&#45;&gt;icepyx.core.query.Query -->
<g id="edge6" class="edge">
<title>icepyx.core.APIformatting.Parameters&#45;&gt;icepyx.core.query.Query</title>
<path fill="none" stroke="black" d="M1041.13,-169.1C1062.67,-192.82 1078.63,-221.97 1071.5,-253 1070.99,-255.2 1070.46,-257.4 1069.91,-259.61"/>
<polygon fill="black" stroke="black" points="1069.85,-259.84 1072.15,-266.67 1066.73,-271.43 1064.43,-264.59 1069.85,-259.84"/>
<text text-anchor="middle" x="1127.5" y="-241.8" font-family="Times,serif" font-size="14.00" fill="green">_subsetparams</text>
</g>
<!-- icepyx.core.query.Query&#45;&gt;icepyx.core.query.GenQuery -->
<g id="edge2" class="edge">
<title>icepyx.core.query.Query&#45;&gt;icepyx.core.query.GenQuery</title>
<path fill="none" stroke="black" d="M962.5,-685.54C962.5,-695.42 962.5,-704.69 962.5,-713.08"/>
<polygon fill="none" stroke="black" points="959,-713.22 962.5,-723.22 966,-713.22 959,-713.22"/>
</g>
<!-- icepyx.core.read.Read -->
<g id="node9" class="node">
<title>icepyx.core.read.Read</title>
<polygon fill="none" stroke="black" points="1434.5,-429 1434.5,-528 1622.5,-528 1622.5,-429 1434.5,-429"/>
<text text-anchor="middle" x="1528.5" y="-512.8" font-family="Times,serif" font-size="14.00">Read</text>
<polyline fill="none" stroke="black" points="1434.5,-505 1622.5,-505 "/>
<text text-anchor="start" x="1442.5" y="-489.8" font-family="Times,serif" font-size="14.00">data_source : NoneType</text>
<text text-anchor="start" x="1442.5" y="-474.8" font-family="Times,serif" font-size="14.00">is2catalog</text>
<text text-anchor="start" x="1442.5" y="-459.8" font-family="Times,serif" font-size="14.00">vars</text>
<polyline fill="none" stroke="black" points="1434.5,-452 1622.5,-452 "/>
<text text-anchor="start" x="1442.5" y="-436.8" font-family="Times,serif" font-size="14.00">load()</text>
</g>
<!-- icepyx.core.variables.Variables -->
<g id="node10" class="node">
<title>icepyx.core.variables.Variables</title>
<polygon fill="none" stroke="black" points="1197,-38 1197,-182 1572,-182 1572,-38 1197,-38"/>
<text text-anchor="middle" x="1384.5" y="-166.8" font-family="Times,serif" font-size="14.00">Variables</text>
<polyline fill="none" stroke="black" points="1197,-159 1572,-159 "/>
<text text-anchor="start" x="1205" y="-143.8" font-family="Times,serif" font-size="14.00">path : NoneType</text>
<text text-anchor="start" x="1205" y="-128.8" font-family="Times,serif" font-size="14.00">product : NoneType</text>
<text text-anchor="start" x="1205" y="-113.8" font-family="Times,serif" font-size="14.00">wanted : NoneType, dict</text>
<polyline fill="none" stroke="black" points="1197,-106 1572,-106 "/>
<text text-anchor="start" x="1205" y="-90.8" font-family="Times,serif" font-size="14.00">append(defaults, var_list, beam_list, keyword_list)</text>
<text text-anchor="start" x="1205" y="-75.8" font-family="Times,serif" font-size="14.00">avail(options, internal)</text>
<text text-anchor="start" x="1205" y="-60.8" font-family="Times,serif" font-size="14.00">parse_var_list(varlist, tiered, tiered_vars)</text>
<text text-anchor="start" x="1205" y="-45.8" font-family="Times,serif" font-size="14.00">remove(all, var_list, beam_list, keyword_list)</text>
</g>
<!-- icepyx.core.variables.Variables&#45;&gt;icepyx.core.query.Query -->
<g id="edge9" class="edge">
<title>icepyx.core.variables.Variables&#45;&gt;icepyx.core.query.Query</title>
<path fill="none" stroke="black" d="M1293.28,-182.2C1270.89,-200.13 1247.14,-219.54 1225.5,-238 1204.13,-256.23 1182.05,-275.54 1160.19,-294.98"/>
<polygon fill="black" stroke="black" points="1160.13,-295.03 1158.31,-302.01 1151.17,-303.02 1152.99,-296.04 1160.13,-295.03"/>
<text text-anchor="middle" x="1267.5" y="-241.8" font-family="Times,serif" font-size="14.00" fill="green">_order_vars</text>
</g>
<!-- icepyx.core.variables.Variables&#45;&gt;icepyx.core.query.Query -->
<g id="edge10" class="edge">
<title>icepyx.core.variables.Variables&#45;&gt;icepyx.core.query.Query</title>
<path fill="none" stroke="black" d="M1355.86,-182.02C1343.89,-206.27 1328.32,-232.43 1309.5,-253 1267.37,-299.02 1213.83,-339.68 1161.49,-373.31"/>
<polygon fill="black" stroke="black" points="1161.17,-373.51 1158.25,-380.1 1151.04,-379.94 1153.96,-373.35 1161.17,-373.51"/>
<text text-anchor="middle" x="1363.5" y="-241.8" font-family="Times,serif" font-size="14.00" fill="green">_order_vars</text>
</g>
<!-- icepyx.core.variables.Variables&#45;&gt;icepyx.core.query.Query -->
<g id="edge11" class="edge">
<title>icepyx.core.variables.Variables&#45;&gt;icepyx.core.query.Query</title>
<path fill="none" stroke="black" d="M1415.94,-182.28C1421.73,-206.16 1422.44,-232.01 1409.5,-253 1355.18,-341.07 1254.58,-395.79 1162.56,-429.13"/>
<polygon fill="black" stroke="black" points="1162.41,-429.19 1158.09,-434.96 1151.1,-433.19 1155.42,-427.42 1162.41,-429.19"/>
<text text-anchor="middle" x="1450" y="-241.8" font-family="Times,serif" font-size="14.00" fill="green">_file_vars</text>
</g>
<!-- icepyx.core.variables.Variables&#45;&gt;icepyx.core.read.Read -->
<g id="edge12" class="edge">
<title>icepyx.core.variables.Variables&#45;&gt;icepyx.core.read.Read</title>
<path fill="none" stroke="black" d="M1468.49,-182.13C1483.51,-198.91 1497.29,-217.84 1506.5,-238 1532.33,-294.55 1535.56,-366.33 1533.73,-416.5"/>
<polygon fill="black" stroke="black" points="1533.72,-416.78 1537.44,-422.95 1533.17,-428.76 1529.45,-422.59 1533.72,-416.78"/>
<text text-anchor="middle" x="1551" y="-241.8" font-family="Times,serif" font-size="14.00" fill="green">_read_vars</text>
</g>
<!-- icepyx.core.visualization.Visualize -->
<g id="node11" class="node">
<title>icepyx.core.visualization.Visualize</title>
<polygon fill="none" stroke="black" points="1868,-0.5 1868,-219.5 2197,-219.5 2197,-0.5 1868,-0.5"/>
<text text-anchor="middle" x="2032.5" y="-204.3" font-family="Times,serif" font-size="14.00">Visualize</text>
<polyline fill="none" stroke="black" points="1868,-196.5 2197,-196.5 "/>
<text text-anchor="start" x="1876" y="-181.3" font-family="Times,serif" font-size="14.00">bbox : list</text>
<text text-anchor="start" x="1876" y="-166.3" font-family="Times,serif" font-size="14.00">cycles : NoneType</text>
<text text-anchor="start" x="1876" y="-151.3" font-family="Times,serif" font-size="14.00">date_range : NoneType</text>
<text text-anchor="start" x="1876" y="-136.3" font-family="Times,serif" font-size="14.00">product : NoneType, str</text>
<text text-anchor="start" x="1876" y="-121.3" font-family="Times,serif" font-size="14.00">tracks : NoneType</text>
<polyline fill="none" stroke="black" points="1868,-113.5 2197,-113.5 "/>
<text text-anchor="start" x="1876" y="-98.3" font-family="Times,serif" font-size="14.00">generate_OA_parameters(): list</text>
<text text-anchor="start" x="1876" y="-83.3" font-family="Times,serif" font-size="14.00">grid_bbox(binsize): list</text>
<text text-anchor="start" x="1876" y="-68.3" font-family="Times,serif" font-size="14.00">make_request(base_url, payload)</text>
<text text-anchor="start" x="1876" y="-53.3" font-family="Times,serif" font-size="14.00">parallel_request_OA(): da.array</text>
<text text-anchor="start" x="1876" y="-38.3" font-family="Times,serif" font-size="14.00">query_icesat2_filelist(): tuple</text>
<text text-anchor="start" x="1876" y="-23.3" font-family="Times,serif" font-size="14.00">request_OA_data(paras): da.array</text>
<text text-anchor="start" x="1876" y="-8.3" font-family="Times,serif" font-size="14.00">viz_elevation(): (hv.DynamicMap, hv.Layout)</text>
</g>
</g>
</svg>
