<?xml version="1.0" encoding="UTF-8" standalone="no"?>
<!DOCTYPE svg PUBLIC "-//W3C//DTD SVG 1.1//EN"
 "http://www.w3.org/Graphics/SVG/1.1/DTD/svg11.dtd">
<!-- Generated by graphviz version 2.43.0 (0)
 -->
<!-- Title: classes_user_uml Pages: 1 -->
<svg width="2160pt" height="800pt"
 viewBox="0.00 0.00 2160.00 800.00" xmlns="http://www.w3.org/2000/svg" xmlns:xlink="http://www.w3.org/1999/xlink">
<g id="graph0" class="graph" transform="scale(1 1) rotate(0) translate(4 796)">
<title>classes_user_uml</title>
<polygon fill="white" stroke="transparent" points="-4,4 -4,-796 2156,-796 2156,4 -4,4"/>
<!-- icepyx.core.auth.AuthenticationError -->
<g id="node1" class="node">
<title>icepyx.core.auth.AuthenticationError</title>
<polygon fill="none" stroke="black" points="0,-74.6 0,-145.4 161,-145.4 161,-74.6 0,-74.6"/>
<text text-anchor="start" x="8" y="-130.2" font-family="Times,serif" font-size="14.00" fill="red">AuthenticationError</text>
<polyline fill="none" stroke="black" points="0,-122.4 161,-122.4 "/>
<polyline fill="none" stroke="black" points="0,-97.6 161,-97.6 "/>
<text text-anchor="start" x="78" y="-82.4" font-family="Times,serif" font-size="14.00" fill="red"> </text>
</g>
<!-- icepyx.core.exceptions.DeprecationError -->
<g id="node2" class="node">
<title>icepyx.core.exceptions.DeprecationError</title>
<polygon fill="none" stroke="black" points="179,-74.6 179,-145.4 322,-145.4 322,-74.6 179,-74.6"/>
<text text-anchor="start" x="187" y="-130.2" font-family="Times,serif" font-size="14.00" fill="red">DeprecationError</text>
<polyline fill="none" stroke="black" points="179,-122.4 322,-122.4 "/>
<polyline fill="none" stroke="black" points="179,-97.6 322,-97.6 "/>
<text text-anchor="start" x="248" y="-82.4" font-family="Times,serif" font-size="14.00" fill="red"> </text>
</g>
<!-- icepyx.core.auth.EarthdataAuthMixin -->
<g id="node3" class="node">
<title>icepyx.core.auth.EarthdataAuthMixin</title>
<polygon fill="none" stroke="black" points="621,-670 621,-769 942,-769 942,-670 621,-670"/>
<text text-anchor="start" x="708" y="-753.8" font-family="Times,serif" font-size="14.00">EarthdataAuthMixin</text>
<polyline fill="none" stroke="black" points="621,-746 942,-746 "/>
<text text-anchor="start" x="712" y="-730.8" font-family="Times,serif" font-size="14.00">auth</text>
<text text-anchor="start" x="712" y="-715.8" font-family="Times,serif" font-size="14.00">s3login_credentials</text>
<text text-anchor="start" x="712" y="-700.8" font-family="Times,serif" font-size="14.00">session</text>
<polyline fill="none" stroke="black" points="621,-693 942,-693 "/>
<text text-anchor="start" x="629" y="-677.8" font-family="Times,serif" font-size="14.00">earthdata_login(uid, email, s3token): None</text>
</g>
<!-- icepyx.core.query.GenQuery -->
<g id="node4" class="node">
<title>icepyx.core.query.GenQuery</title>
<polygon fill="none" stroke="black" points="1274,-647.5 1274,-791.5 1391,-791.5 1391,-647.5 1274,-647.5"/>
<text text-anchor="start" x="1296" y="-776.3" font-family="Times,serif" font-size="14.00">GenQuery</text>
<polyline fill="none" stroke="black" points="1274,-768.5 1391,-768.5 "/>
<text text-anchor="start" x="1282" y="-753.3" font-family="Times,serif" font-size="14.00">dates</text>
<text text-anchor="start" x="1282" y="-738.3" font-family="Times,serif" font-size="14.00">end_time</text>
<text text-anchor="start" x="1282" y="-723.3" font-family="Times,serif" font-size="14.00">spatial</text>
<text text-anchor="start" x="1282" y="-708.3" font-family="Times,serif" font-size="14.00">spatial_extent</text>
<text text-anchor="start" x="1282" y="-693.3" font-family="Times,serif" font-size="14.00">start_time</text>
<text text-anchor="start" x="1282" y="-678.3" font-family="Times,serif" font-size="14.00">temporal</text>
<polyline fill="none" stroke="black" points="1274,-670.5 1391,-670.5 "/>
<text text-anchor="start" x="1330" y="-655.3" font-family="Times,serif" font-size="14.00"> </text>
</g>
<!-- icepyx.core.granules.Granules -->
<g id="node5" class="node">
<title>icepyx.core.granules.Granules</title>
<polygon fill="none" stroke="black" points="733,-53 733,-167 1358,-167 1358,-53 733,-53"/>
<text text-anchor="start" x="1013" y="-151.8" font-family="Times,serif" font-size="14.00">Granules</text>
<polyline fill="none" stroke="black" points="733,-144 1358,-144 "/>
<text text-anchor="start" x="995.5" y="-128.8" font-family="Times,serif" font-size="14.00">avail : list</text>
<text text-anchor="start" x="995.5" y="-113.8" font-family="Times,serif" font-size="14.00">orderIDs : list</text>
<polyline fill="none" stroke="black" points="733,-106 1358,-106 "/>
<text text-anchor="start" x="741" y="-90.8" font-family="Times,serif" font-size="14.00">download(verbose, path, restart)</text>
<text text-anchor="start" x="741" y="-75.8" font-family="Times,serif" font-size="14.00">get_avail(CMRparams, reqparams, cloud)</text>
<text text-anchor="start" x="741" y="-60.8" font-family="Times,serif" font-size="14.00">place_order(CMRparams, reqparams, subsetparams, verbose, subset, geom_filepath)</text>
</g>
<!-- icepyx.core.granules.Granules&#45;&gt;icepyx.core.auth.EarthdataAuthMixin -->
<g id="edge2" class="edge">
<title>icepyx.core.granules.Granules&#45;&gt;icepyx.core.auth.EarthdataAuthMixin</title>
<path fill="none" stroke="black" d="M973.31,-167.2C941.95,-195.2 907.43,-231.5 885.5,-271 815.11,-397.78 792.24,-570.18 784.91,-659.46"/>
<polygon fill="none" stroke="black" points="781.4,-659.43 784.1,-669.67 788.38,-659.97 781.4,-659.43"/>
</g>
<!-- icepyx.core.query.Query -->
<g id="node9" class="node">
<title>icepyx.core.query.Query</title>
<polygon fill="none" stroke="black" points="895,-271.5 895,-595.5 1272,-595.5 1272,-271.5 895,-271.5"/>
<text text-anchor="start" x="1061.5" y="-580.3" font-family="Times,serif" font-size="14.00">Query</text>
<polyline fill="none" stroke="black" points="895,-572.5 1272,-572.5 "/>
<text text-anchor="start" x="1026" y="-557.3" font-family="Times,serif" font-size="14.00">CMRparams</text>
<text text-anchor="start" x="1026" y="-542.3" font-family="Times,serif" font-size="14.00">cycles</text>
<text text-anchor="start" x="1026" y="-527.3" font-family="Times,serif" font-size="14.00">dataset</text>
<text text-anchor="start" x="1026" y="-512.3" font-family="Times,serif" font-size="14.00">granules</text>
<text text-anchor="start" x="1026" y="-497.3" font-family="Times,serif" font-size="14.00">order_vars</text>
<text text-anchor="start" x="1026" y="-482.3" font-family="Times,serif" font-size="14.00">product</text>
<text text-anchor="start" x="1026" y="-467.3" font-family="Times,serif" font-size="14.00">product_version</text>
<text text-anchor="start" x="1026" y="-452.3" font-family="Times,serif" font-size="14.00">reqparams</text>
<text text-anchor="start" x="1026" y="-437.3" font-family="Times,serif" font-size="14.00">tracks</text>
<polyline fill="none" stroke="black" points="895,-429.5 1272,-429.5 "/>
<text text-anchor="start" x="903" y="-414.3" font-family="Times,serif" font-size="14.00">avail_granules(ids, cycles, tracks, cloud)</text>
<text text-anchor="start" x="903" y="-399.3" font-family="Times,serif" font-size="14.00">download_granules(path, verbose, subset, restart)</text>
<text text-anchor="start" x="903" y="-384.3" font-family="Times,serif" font-size="14.00">latest_version()</text>
<text text-anchor="start" x="903" y="-369.3" font-family="Times,serif" font-size="14.00">order_granules(verbose, subset, email)</text>
<text text-anchor="start" x="903" y="-354.3" font-family="Times,serif" font-size="14.00">product_all_info()</text>
<text text-anchor="start" x="903" y="-339.3" font-family="Times,serif" font-size="14.00">product_summary_info()</text>
<text text-anchor="start" x="903" y="-324.3" font-family="Times,serif" font-size="14.00">show_custom_options(dictview)</text>
<text text-anchor="start" x="903" y="-309.3" font-family="Times,serif" font-size="14.00">subsetparams()</text>
<text text-anchor="start" x="903" y="-294.3" font-family="Times,serif" font-size="14.00">visualize_elevation()</text>
<text text-anchor="start" x="903" y="-279.3" font-family="Times,serif" font-size="14.00">visualize_spatial_extent()</text>
</g>
<!-- icepyx.core.granules.Granules&#45;&gt;icepyx.core.query.Query -->
<g id="edge11" class="edge">
<title>icepyx.core.granules.Granules&#45;&gt;icepyx.core.query.Query</title>
<path fill="none" stroke="black" d="M993.91,-167.24C976.81,-192.5 964.05,-223.27 972.5,-253 973.16,-255.31 973.85,-257.63 974.59,-259.94"/>
<polygon fill="black" stroke="black" points="974.65,-260.11 980.38,-264.49 978.55,-271.46 972.82,-267.09 974.65,-260.11"/>
<text text-anchor="middle" x="1007.5" y="-241.8" font-family="Times,serif" font-size="14.00" fill="green">_granules</text>
</g>
<!-- icepyx.core.granules.Granules&#45;&gt;icepyx.core.query.Query -->
<g id="edge12" class="edge">
<title>icepyx.core.granules.Granules&#45;&gt;icepyx.core.query.Query</title>
<path fill="none" stroke="black" d="M1052.12,-167C1055.21,-193.12 1059.07,-225.77 1063.01,-259.15"/>
<polygon fill="black" stroke="black" points="1063.06,-259.55 1067.73,-265.04 1064.47,-271.47 1059.79,-265.98 1063.06,-259.55"/>
<text text-anchor="middle" x="1097.5" y="-241.8" font-family="Times,serif" font-size="14.00" fill="green">_granules</text>
</g>
<!-- icepyx.core.icesat2data.Icesat2Data -->
<g id="node6" class="node">
<title>icepyx.core.icesat2data.Icesat2Data</title>
<polygon fill="none" stroke="black" points="1545.5,-74.6 1545.5,-145.4 1647.5,-145.4 1647.5,-74.6 1545.5,-74.6"/>
<text text-anchor="start" x="1553.5" y="-130.2" font-family="Times,serif" font-size="14.00">Icesat2Data</text>
<polyline fill="none" stroke="black" points="1545.5,-122.4 1647.5,-122.4 "/>
<polyline fill="none" stroke="black" points="1545.5,-97.6 1647.5,-97.6 "/>
<text text-anchor="start" x="1594" y="-82.4" font-family="Times,serif" font-size="14.00"> </text>
</g>
<!-- icepyx.core.exceptions.NsidcQueryError -->
<g id="node7" class="node">
<title>icepyx.core.exceptions.NsidcQueryError</title>
<polygon fill="none" stroke="black" points="1665.5,-68 1665.5,-152 1805.5,-152 1805.5,-68 1665.5,-68"/>
<text text-anchor="start" x="1673.5" y="-136.8" font-family="Times,serif" font-size="14.00" fill="red">NsidcQueryError</text>
<polyline fill="none" stroke="black" points="1665.5,-129 1805.5,-129 "/>
<text text-anchor="start" x="1693" y="-113.8" font-family="Times,serif" font-size="14.00" fill="red">errmsg</text>
<text text-anchor="start" x="1693" y="-98.8" font-family="Times,serif" font-size="14.00" fill="red">msgtxt : str</text>
<polyline fill="none" stroke="black" points="1665.5,-91 1805.5,-91 "/>
<text text-anchor="start" x="1733" y="-75.8" font-family="Times,serif" font-size="14.00" fill="red"> </text>
</g>
<!-- icepyx.core.exceptions.QueryError -->
<g id="node10" class="node">
<title>icepyx.core.exceptions.QueryError</title>
<polygon fill="none" stroke="black" points="1686,-398.1 1686,-468.9 1785,-468.9 1785,-398.1 1686,-398.1"/>
<text text-anchor="start" x="1694" y="-453.7" font-family="Times,serif" font-size="14.00" fill="red">QueryError</text>
<polyline fill="none" stroke="black" points="1686,-445.9 1785,-445.9 "/>
<polyline fill="none" stroke="black" points="1686,-421.1 1785,-421.1 "/>
<text text-anchor="start" x="1733" y="-405.9" font-family="Times,serif" font-size="14.00" fill="red"> </text>
</g>
<!-- icepyx.core.exceptions.NsidcQueryError&#45;&gt;icepyx.core.exceptions.QueryError -->
<g id="edge1" class="edge">
<title>icepyx.core.exceptions.NsidcQueryError&#45;&gt;icepyx.core.exceptions.QueryError</title>
<path fill="none" stroke="black" d="M1735.5,-152.04C1735.5,-212.53 1735.5,-325.19 1735.5,-387.74"/>
<polygon fill="none" stroke="black" points="1732,-388.07 1735.5,-398.07 1739,-388.07 1732,-388.07"/>
</g>
<!-- icepyx.core.APIformatting.Parameters -->
<g id="node8" class="node">
<title>icepyx.core.APIformatting.Parameters</title>
<polygon fill="none" stroke="black" points="1376,-45.5 1376,-174.5 1527,-174.5 1527,-45.5 1376,-45.5"/>
<text text-anchor="start" x="1410" y="-159.3" font-family="Times,serif" font-size="14.00">Parameters</text>
<polyline fill="none" stroke="black" points="1376,-151.5 1527,-151.5 "/>
<text text-anchor="start" x="1410.5" y="-136.3" font-family="Times,serif" font-size="14.00">fmted_keys</text>
<text text-anchor="start" x="1410.5" y="-121.3" font-family="Times,serif" font-size="14.00">partype</text>
<text text-anchor="start" x="1410.5" y="-106.3" font-family="Times,serif" font-size="14.00">poss_keys</text>
<polyline fill="none" stroke="black" points="1376,-98.5 1527,-98.5 "/>
<text text-anchor="start" x="1384" y="-83.3" font-family="Times,serif" font-size="14.00">build_params()</text>
<text text-anchor="start" x="1384" y="-68.3" font-family="Times,serif" font-size="14.00">check_req_values()</text>
<text text-anchor="start" x="1384" y="-53.3" font-family="Times,serif" font-size="14.00">check_values()</text>
</g>
<!-- icepyx.core.APIformatting.Parameters&#45;&gt;icepyx.core.query.Query -->
<g id="edge7" class="edge">
<title>icepyx.core.APIformatting.Parameters&#45;&gt;icepyx.core.query.Query</title>
<path fill="none" stroke="black" d="M1502.56,-174.64C1517.71,-201.4 1525.54,-231.3 1505.5,-253 1473.67,-287.48 1345.18,-256.78 1283.88,-270.91"/>
<polygon fill="black" stroke="black" points="1283.69,-270.97 1279.13,-276.56 1272.22,-274.51 1276.78,-268.92 1283.69,-270.97"/>
<text text-anchor="middle" x="1562.5" y="-241.8" font-family="Times,serif" font-size="14.00" fill="green">_CMRparams</text>
</g>
<!-- icepyx.core.APIformatting.Parameters&#45;&gt;icepyx.core.query.Query -->
<g id="edge8" class="edge">
<title>icepyx.core.APIformatting.Parameters&#45;&gt;icepyx.core.query.Query</title>
<path fill="none" stroke="black" d="M1415.64,-174.63C1402.52,-192.24 1386.01,-209.41 1366.5,-220 1325.73,-242.14 1195.59,-210.12 1158.5,-238 1149.58,-244.71 1141.72,-252.62 1134.79,-261.35"/>
<polygon fill="black" stroke="black" points="1134.72,-261.45 1134.41,-268.65 1127.63,-271.13 1127.95,-263.93 1134.72,-261.45"/>
<text text-anchor="middle" x="1201" y="-241.8" font-family="Times,serif" font-size="14.00" fill="green">_reqparams</text>
</g>
<!-- icepyx.core.APIformatting.Parameters&#45;&gt;icepyx.core.query.Query -->
<g id="edge9" class="edge">
<title>icepyx.core.APIformatting.Parameters&#45;&gt;icepyx.core.query.Query</title>
<path fill="none" stroke="black" d="M1414.17,-174.69C1401.16,-191.86 1385.09,-208.77 1366.5,-220 1327.84,-243.34 1306.2,-216.47 1266.5,-238 1257.56,-242.85 1246.31,-251.75 1233.8,-263.17"/>
<polygon fill="black" stroke="black" points="1233.71,-263.25 1232.07,-270.28 1224.95,-271.46 1226.6,-264.44 1233.71,-263.25"/>
<text text-anchor="middle" x="1320.5" y="-241.8" font-family="Times,serif" font-size="14.00" fill="green">_subsetparams</text>
</g>
<!-- icepyx.core.APIformatting.Parameters&#45;&gt;icepyx.core.query.Query -->
<g id="edge10" class="edge">
<title>icepyx.core.APIformatting.Parameters&#45;&gt;icepyx.core.query.Query</title>
<path fill="none" stroke="black" d="M1431.16,-174.72C1419.03,-202.84 1400.76,-233.79 1374.5,-253 1343.05,-276 1322.67,-256.83 1283.41,-270.45"/>
<polygon fill="black" stroke="black" points="1283.21,-270.53 1279.18,-276.51 1272.11,-275.08 1276.14,-269.1 1283.21,-270.53"/>
<text text-anchor="middle" x="1445.5" y="-241.8" font-family="Times,serif" font-size="14.00" fill="green">_subsetparams</text>
</g>
<!-- icepyx.core.query.Query&#45;&gt;icepyx.core.auth.EarthdataAuthMixin -->
<g id="edge3" class="edge">
<title>icepyx.core.query.Query&#45;&gt;icepyx.core.auth.EarthdataAuthMixin</title>
<path fill="none" stroke="black" d="M916.04,-595.68C904.05,-606.99 892.11,-618.19 880.5,-629 868.63,-640.05 855.85,-651.74 843.55,-662.9"/>
<polygon fill="none" stroke="black" points="841.03,-660.47 835.97,-669.78 845.73,-665.66 841.03,-660.47"/>
</g>
<!-- icepyx.core.query.Query&#45;&gt;icepyx.core.query.GenQuery -->
<g id="edge4" class="edge">
<title>icepyx.core.query.Query&#45;&gt;icepyx.core.query.GenQuery</title>
<path fill="none" stroke="black" d="M1224.73,-595.59C1239.41,-612.32 1253.77,-628.7 1266.98,-643.76"/>
<polygon fill="none" stroke="black" points="1264.55,-646.31 1273.77,-651.52 1269.81,-641.69 1264.55,-646.31"/>
</g>
<!-- icepyx.core.read.Read -->
<g id="node11" class="node">
<title>icepyx.core.read.Read</title>
<polygon fill="none" stroke="black" points="660.5,-376.5 660.5,-490.5 732.5,-490.5 732.5,-376.5 660.5,-376.5"/>
<text text-anchor="start" x="678" y="-475.3" font-family="Times,serif" font-size="14.00">Read</text>
<polyline fill="none" stroke="black" points="660.5,-467.5 732.5,-467.5 "/>
<text text-anchor="start" x="668.5" y="-452.3" font-family="Times,serif" font-size="14.00">filelist</text>
<text text-anchor="start" x="668.5" y="-437.3" font-family="Times,serif" font-size="14.00">is_s3</text>
<text text-anchor="start" x="668.5" y="-422.3" font-family="Times,serif" font-size="14.00">product</text>
<text text-anchor="start" x="668.5" y="-407.3" font-family="Times,serif" font-size="14.00">vars</text>
<polyline fill="none" stroke="black" points="660.5,-399.5 732.5,-399.5 "/>
<text text-anchor="start" x="676" y="-384.3" font-family="Times,serif" font-size="14.00">load()</text>
</g>
<!-- icepyx.core.read.Read&#45;&gt;icepyx.core.auth.EarthdataAuthMixin -->
<g id="edge5" class="edge">
<title>icepyx.core.read.Read&#45;&gt;icepyx.core.auth.EarthdataAuthMixin</title>
<path fill="none" stroke="black" d="M713.29,-490.61C727.94,-539.56 749.12,-610.32 763.98,-659.97"/>
<polygon fill="none" stroke="black" points="760.65,-661.03 766.87,-669.61 767.35,-659.03 760.65,-661.03"/>
</g>
<!-- icepyx.core.spatial.Spatial -->
<g id="node12" class="node">
<title>icepyx.core.spatial.Spatial</title>
<polygon fill="none" stroke="black" points="1290,-369 1290,-498 1411,-498 1411,-369 1290,-369"/>
<text text-anchor="start" x="1325" y="-482.8" font-family="Times,serif" font-size="14.00">Spatial</text>
<polyline fill="none" stroke="black" points="1290,-475 1411,-475 "/>
<text text-anchor="start" x="1301" y="-459.8" font-family="Times,serif" font-size="14.00">extent</text>
<text text-anchor="start" x="1301" y="-444.8" font-family="Times,serif" font-size="14.00">extent_as_gdf</text>
<text text-anchor="start" x="1301" y="-429.8" font-family="Times,serif" font-size="14.00">extent_file</text>
<text text-anchor="start" x="1301" y="-414.8" font-family="Times,serif" font-size="14.00">extent_type</text>
<polyline fill="none" stroke="black" points="1290,-407 1411,-407 "/>
<text text-anchor="start" x="1298" y="-391.8" font-family="Times,serif" font-size="14.00">fmt_for_CMR()</text>
<text text-anchor="start" x="1298" y="-376.8" font-family="Times,serif" font-size="14.00">fmt_for_EGI()</text>
</g>
<!-- icepyx.core.spatial.Spatial&#45;&gt;icepyx.core.query.GenQuery -->
<g id="edge13" class="edge">
<title>icepyx.core.spatial.Spatial&#45;&gt;icepyx.core.query.GenQuery</title>
<path fill="none" stroke="black" d="M1315.96,-498.25C1299.64,-535.92 1285.5,-584.75 1294.5,-629 1294.94,-631.14 1295.42,-633.29 1295.96,-635.45"/>
<polygon fill="black" stroke="black" points="1295.96,-635.46 1301.44,-640.14 1299.23,-647.01 1293.75,-642.32 1295.96,-635.46"/>
<text text-anchor="middle" x="1322" y="-617.8" font-family="Times,serif" font-size="14.00" fill="green">_spatial</text>
</g>
<!-- icepyx.core.spatial.Spatial&#45;&gt;icepyx.core.query.GenQuery -->
<g id="edge14" class="edge">
<title>icepyx.core.spatial.Spatial&#45;&gt;icepyx.core.query.GenQuery</title>
<path fill="none" stroke="black" d="M1353.09,-498.16C1353.92,-536.21 1353.71,-585.47 1349.5,-629 1349.3,-631.06 1349.08,-633.14 1348.83,-635.23"/>
<polygon fill="black" stroke="black" points="1348.81,-635.45 1351.98,-641.92 1347.23,-647.34 1344.05,-640.87 1348.81,-635.45"/>
<text text-anchor="middle" x="1378" y="-617.8" font-family="Times,serif" font-size="14.00" fill="green">_spatial</text>
</g>
<!-- icepyx.core.temporal.Temporal -->
<g id="node13" class="node">
<title>icepyx.core.temporal.Temporal</title>
<polygon fill="none" stroke="black" points="1429,-391.5 1429,-475.5 1512,-475.5 1512,-391.5 1429,-391.5"/>
<text text-anchor="start" x="1437" y="-460.3" font-family="Times,serif" font-size="14.00">Temporal</text>
<polyline fill="none" stroke="black" points="1429,-452.5 1512,-452.5 "/>
<text text-anchor="start" x="1453" y="-437.3" font-family="Times,serif" font-size="14.00">end</text>
<text text-anchor="start" x="1453" y="-422.3" font-family="Times,serif" font-size="14.00">start</text>
<polyline fill="none" stroke="black" points="1429,-414.5 1512,-414.5 "/>
<text text-anchor="start" x="1468" y="-399.3" font-family="Times,serif" font-size="14.00"> </text>
</g>
<!-- icepyx.core.temporal.Temporal&#45;&gt;icepyx.core.query.GenQuery -->
<g id="edge15" class="edge">
<title>icepyx.core.temporal.Temporal&#45;&gt;icepyx.core.query.GenQuery</title>
<path fill="none" stroke="black" d="M1462.72,-475.54C1453.85,-516.3 1436.92,-579.66 1409.5,-629 1406.12,-635.08 1402.28,-641.13 1398.17,-647.04"/>
<polygon fill="black" stroke="black" points="1398.09,-647.14 1397.78,-654.35 1391.01,-656.83 1391.32,-649.63 1398.09,-647.14"/>
<text text-anchor="middle" x="1453.5" y="-617.8" font-family="Times,serif" font-size="14.00" fill="green">_temporal</text>
</g>
<!-- icepyx.core.variables.Variables -->
<g id="node14" class="node">
<title>icepyx.core.variables.Variables</title>
<polygon fill="none" stroke="black" points="340,-30.5 340,-189.5 715,-189.5 715,-30.5 340,-30.5"/>
<text text-anchor="start" x="494" y="-174.3" font-family="Times,serif" font-size="14.00">Variables</text>
<polyline fill="none" stroke="black" points="340,-166.5 715,-166.5 "/>
<text text-anchor="start" x="440" y="-151.3" font-family="Times,serif" font-size="14.00">path</text>
<text text-anchor="start" x="440" y="-136.3" font-family="Times,serif" font-size="14.00">product</text>
<text text-anchor="start" x="440" y="-121.3" font-family="Times,serif" font-size="14.00">version</text>
<text text-anchor="start" x="440" y="-106.3" font-family="Times,serif" font-size="14.00">wanted : NoneType, dict</text>
<polyline fill="none" stroke="black" points="340,-98.5 715,-98.5 "/>
<text text-anchor="start" x="348" y="-83.3" font-family="Times,serif" font-size="14.00">append(defaults, var_list, beam_list, keyword_list)</text>
<text text-anchor="start" x="348" y="-68.3" font-family="Times,serif" font-size="14.00">avail(options, internal)</text>
<text text-anchor="start" x="348" y="-53.3" font-family="Times,serif" font-size="14.00">parse_var_list(varlist, tiered, tiered_vars)</text>
<text text-anchor="start" x="348" y="-38.3" font-family="Times,serif" font-size="14.00">remove(all, var_list, beam_list, keyword_list)</text>
</g>
<!-- icepyx.core.variables.Variables&#45;&gt;icepyx.core.auth.EarthdataAuthMixin -->
<g id="edge6" class="edge">
<title>icepyx.core.variables.Variables&#45;&gt;icepyx.core.auth.EarthdataAuthMixin</title>
<path fill="none" stroke="black" d="M533.3,-189.58C543.8,-290.34 572.76,-467.4 651.5,-596 666.71,-620.84 688.26,-643.94 709.45,-663.24"/>
<polygon fill="none" stroke="black" points="707.12,-665.86 716.92,-669.9 711.78,-660.63 707.12,-665.86"/>
</g>
<!-- icepyx.core.variables.Variables&#45;&gt;icepyx.core.query.Query -->
<g id="edge16" class="edge">
<title>icepyx.core.variables.Variables&#45;&gt;icepyx.core.query.Query</title>
<path fill="none" stroke="black" d="M586.3,-189.56C607.58,-213.15 633.37,-236.98 661.5,-253 693.17,-271.04 707.04,-259.15 741.5,-271 788.64,-287.21 837.89,-308.01 883.86,-329.25"/>
<polygon fill="black" stroke="black" points="883.97,-329.3 891.1,-328.21 894.85,-334.36 887.73,-335.46 883.97,-329.3"/>
<text text-anchor="middle" x="703.5" y="-241.8" font-family="Times,serif" font-size="14.00" fill="green">_order_vars</text>
</g>
<!-- icepyx.core.variables.Variables&#45;&gt;icepyx.core.query.Query -->
<g id="edge17" class="edge">
<title>icepyx.core.variables.Variables&#45;&gt;icepyx.core.query.Query</title>
<path fill="none" stroke="black" d="M663.51,-189.65C729.85,-228.01 810.94,-274.89 884.11,-317.2"/>
<polygon fill="black" stroke="black" points="884.46,-317.41 891.65,-316.95 894.84,-323.41 887.65,-323.87 884.46,-317.41"/>
<text text-anchor="middle" x="814.5" y="-241.8" font-family="Times,serif" font-size="14.00" fill="green">_order_vars</text>
</g>
<!-- icepyx.core.variables.Variables&#45;&gt;icepyx.core.read.Read -->
<g id="edge18" class="edge">
<title>icepyx.core.variables.Variables&#45;&gt;icepyx.core.read.Read</title>
<path fill="none" stroke="black" d="M540.28,-189.6C545.33,-210.78 552.22,-233.28 561.5,-253 584.57,-302.02 622.36,-350.7 652.1,-384.97"/>
<polygon fill="black" stroke="black" points="652.33,-385.24 659.3,-387.1 660.26,-394.25 653.29,-392.38 652.33,-385.24"/>
<text text-anchor="middle" x="600" y="-241.8" font-family="Times,serif" font-size="14.00" fill="green">_read_vars</text>
</g>
<!-- icepyx.core.visualization.Visualize -->
<g id="node15" class="node">
<title>icepyx.core.visualization.Visualize</title>
<polygon fill="none" stroke="black" points="1823,-0.5 1823,-219.5 2152,-219.5 2152,-0.5 1823,-0.5"/>
<text text-anchor="start" x="1955.5" y="-204.3" font-family="Times,serif" font-size="14.00">Visualize</text>
<polyline fill="none" stroke="black" points="1823,-196.5 2152,-196.5 "/>
<text text-anchor="start" x="1902" y="-181.3" font-family="Times,serif" font-size="14.00">bbox : list</text>
<text text-anchor="start" x="1902" y="-166.3" font-family="Times,serif" font-size="14.00">cycles : NoneType</text>
<text text-anchor="start" x="1902" y="-151.3" font-family="Times,serif" font-size="14.00">date_range : NoneType</text>
<text text-anchor="start" x="1902" y="-136.3" font-family="Times,serif" font-size="14.00">product : NoneType, str</text>
<text text-anchor="start" x="1902" y="-121.3" font-family="Times,serif" font-size="14.00">tracks : NoneType</text>
<polyline fill="none" stroke="black" points="1823,-113.5 2152,-113.5 "/>
<text text-anchor="start" x="1831" y="-98.3" font-family="Times,serif" font-size="14.00">generate_OA_parameters(): list</text>
<text text-anchor="start" x="1831" y="-83.3" font-family="Times,serif" font-size="14.00">grid_bbox(binsize): list</text>
<text text-anchor="start" x="1831" y="-68.3" font-family="Times,serif" font-size="14.00">make_request(base_url, payload)</text>
<text text-anchor="start" x="1831" y="-53.3" font-family="Times,serif" font-size="14.00">parallel_request_OA(): da.array</text>
<text text-anchor="start" x="1831" y="-38.3" font-family="Times,serif" font-size="14.00">query_icesat2_filelist(): tuple</text>
<text text-anchor="start" x="1831" y="-23.3" font-family="Times,serif" font-size="14.00">request_OA_data(paras): da.array</text>
<text text-anchor="start" x="1831" y="-8.3" font-family="Times,serif" font-size="14.00">viz_elevation(): (hv.DynamicMap, hv.Layout)</text>
</g>
</g>
</svg>
