<?xml version="1.0" encoding="UTF-8" standalone="no"?>
<!DOCTYPE svg PUBLIC "-//W3C//DTD SVG 1.1//EN"
 "http://www.w3.org/Graphics/SVG/1.1/DTD/svg11.dtd">
<!-- Generated by graphviz version 2.43.0 (0)
 -->
<!-- Title: classes_user_uml Pages: 1 -->
<svg width="4079pt" height="996pt"
 viewBox="0.00 0.00 4078.50 996.00" xmlns="http://www.w3.org/2000/svg" xmlns:xlink="http://www.w3.org/1999/xlink">
<g id="graph0" class="graph" transform="scale(1 1) rotate(0) translate(4 992)">
<title>classes_user_uml</title>
<polygon fill="white" stroke="transparent" points="-4,4 -4,-992 4074.5,-992 4074.5,4 -4,4"/>
<!-- icepyx.core.auth.AuthenticationError -->
<g id="node1" class="node">
<title>icepyx.core.auth.AuthenticationError</title>
<polygon fill="none" stroke="black" points="0,-74.6 0,-145.4 161,-145.4 161,-74.6 0,-74.6"/>
<text text-anchor="start" x="8" y="-130.2" font-family="Times,serif" font-size="14.00" fill="red">AuthenticationError</text>
<polyline fill="none" stroke="black" points="0,-122.4 161,-122.4 "/>
<polyline fill="none" stroke="black" points="0,-97.6 161,-97.6 "/>
<text text-anchor="start" x="78" y="-82.4" font-family="Times,serif" font-size="14.00" fill="red"> </text>
</g>
<!-- icepyx.core.types.CMRParamsWithBbox -->
<g id="node2" class="node">
<title>icepyx.core.types.CMRParamsWithBbox</title>
<polygon fill="none" stroke="black" points="179,-75.5 179,-144.5 354,-144.5 354,-75.5 179,-75.5"/>
<text text-anchor="start" x="187" y="-129.3" font-family="Times,serif" font-size="14.00">CMRParamsWithBbox</text>
<polyline fill="none" stroke="black" points="179,-121.5 354,-121.5 "/>
<text text-anchor="start" x="200" y="-106.3" font-family="Times,serif" font-size="14.00">bounding_box : str</text>
<polyline fill="none" stroke="black" points="179,-98.5 354,-98.5 "/>
<text text-anchor="start" x="264" y="-83.3" font-family="Times,serif" font-size="14.00"> </text>
</g>
<!-- icepyx.core.types.CMRParamsWithPolygon -->
<g id="node3" class="node">
<title>icepyx.core.types.CMRParamsWithPolygon</title>
<polygon fill="none" stroke="black" points="372,-75.5 372,-144.5 567,-144.5 567,-75.5 372,-75.5"/>
<text text-anchor="start" x="380" y="-129.3" font-family="Times,serif" font-size="14.00">CMRParamsWithPolygon</text>
<polyline fill="none" stroke="black" points="372,-121.5 567,-121.5 "/>
<text text-anchor="start" x="424" y="-106.3" font-family="Times,serif" font-size="14.00">polygon : str</text>
<polyline fill="none" stroke="black" points="372,-98.5 567,-98.5 "/>
<text text-anchor="start" x="467" y="-83.3" font-family="Times,serif" font-size="14.00"> </text>
</g>
<!-- icepyx.core.exceptions.DeprecationError -->
<g id="node4" class="node">
<title>icepyx.core.exceptions.DeprecationError</title>
<polygon fill="none" stroke="black" points="585,-74.6 585,-145.4 728,-145.4 728,-74.6 585,-74.6"/>
<text text-anchor="start" x="593" y="-130.2" font-family="Times,serif" font-size="14.00" fill="red">DeprecationError</text>
<polyline fill="none" stroke="black" points="585,-122.4 728,-122.4 "/>
<polyline fill="none" stroke="black" points="585,-97.6 728,-97.6 "/>
<text text-anchor="start" x="654" y="-82.4" font-family="Times,serif" font-size="14.00" fill="red"> </text>
</g>
<!-- icepyx.core.types.EGIParamsSubsetBase -->
<g id="node5" class="node">
<title>icepyx.core.types.EGIParamsSubsetBase</title>
<polygon fill="none" stroke="black" points="804.5,-286.5 804.5,-415.5 1118.5,-415.5 1118.5,-286.5 804.5,-286.5"/>
<text text-anchor="start" x="879" y="-400.3" font-family="Times,serif" font-size="14.00">EGIParamsSubsetBase</text>
<polyline fill="none" stroke="black" points="804.5,-392.5 1118.5,-392.5 "/>
<text text-anchor="start" x="812.5" y="-377.3" font-family="Times,serif" font-size="14.00">Coverage : NotRequired[str]</text>
<text text-anchor="start" x="812.5" y="-362.3" font-family="Times,serif" font-size="14.00">format : NotRequired[str]</text>
<text text-anchor="start" x="812.5" y="-347.3" font-family="Times,serif" font-size="14.00">projection : NotRequired[str]</text>
<text text-anchor="start" x="812.5" y="-332.3" font-family="Times,serif" font-size="14.00">projection_parameters : NotRequired[str]</text>
<text text-anchor="start" x="812.5" y="-317.3" font-family="Times,serif" font-size="14.00">time : NotRequired[str]</text>
<polyline fill="none" stroke="black" points="804.5,-309.5 1118.5,-309.5 "/>
<text text-anchor="start" x="959" y="-294.3" font-family="Times,serif" font-size="14.00"> </text>
</g>
<!-- icepyx.core.types.EGIParamsSubsetBbox -->
<g id="node6" class="node">
<title>icepyx.core.types.EGIParamsSubsetBbox</title>
<polygon fill="none" stroke="black" points="746,-75.5 746,-144.5 933,-144.5 933,-75.5 746,-75.5"/>
<text text-anchor="start" x="756.5" y="-129.3" font-family="Times,serif" font-size="14.00">EGIParamsSubsetBbox</text>
<polyline fill="none" stroke="black" points="746,-121.5 933,-121.5 "/>
<text text-anchor="start" x="754" y="-106.3" font-family="Times,serif" font-size="14.00">bbox : NotRequired[str]</text>
<polyline fill="none" stroke="black" points="746,-98.5 933,-98.5 "/>
<text text-anchor="start" x="837" y="-83.3" font-family="Times,serif" font-size="14.00"> </text>
</g>
<!-- icepyx.core.types.EGIParamsSubsetBbox&#45;&gt;icepyx.core.types.EGIParamsSubsetBase -->
<g id="edge7" class="edge">
<title>icepyx.core.types.EGIParamsSubsetBbox&#45;&gt;icepyx.core.types.EGIParamsSubsetBase</title>
<path fill="none" stroke="black" d="M856.72,-144.74C874.23,-179.04 901.92,-233.29 924.44,-277.4"/>
<polygon fill="none" stroke="black" points="921.35,-279.04 929.01,-286.36 927.58,-275.86 921.35,-279.04"/>
</g>
<!-- icepyx.core.types.EGIParamsSubsetBoundingShape -->
<g id="node7" class="node">
<title>icepyx.core.types.EGIParamsSubsetBoundingShape</title>
<polygon fill="none" stroke="black" points="951,-75.5 951,-144.5 1214,-144.5 1214,-75.5 951,-75.5"/>
<text text-anchor="start" x="961" y="-129.3" font-family="Times,serif" font-size="14.00">EGIParamsSubsetBoundingShape</text>
<polyline fill="none" stroke="black" points="951,-121.5 1214,-121.5 "/>
<text text-anchor="start" x="959" y="-106.3" font-family="Times,serif" font-size="14.00">Boundingshape : NotRequired[str]</text>
<polyline fill="none" stroke="black" points="951,-98.5 1214,-98.5 "/>
<text text-anchor="start" x="1080" y="-83.3" font-family="Times,serif" font-size="14.00"> </text>
</g>
<!-- icepyx.core.types.EGIParamsSubsetBoundingShape&#45;&gt;icepyx.core.types.EGIParamsSubsetBase -->
<g id="edge8" class="edge">
<title>icepyx.core.types.EGIParamsSubsetBoundingShape&#45;&gt;icepyx.core.types.EGIParamsSubsetBase</title>
<path fill="none" stroke="black" d="M1065.42,-144.74C1048.05,-179.04 1020.59,-233.29 998.26,-277.4"/>
<polygon fill="none" stroke="black" points="995.11,-275.86 993.72,-286.36 1001.36,-279.02 995.11,-275.86"/>
</g>
<!-- icepyx.core.types.EGIRequiredParamsBase -->
<g id="node8" class="node">
<title>icepyx.core.types.EGIRequiredParamsBase</title>
<polygon fill="none" stroke="black" points="1460,-294 1460,-408 1657,-408 1657,-294 1460,-294"/>
<text text-anchor="start" x="1468" y="-392.8" font-family="Times,serif" font-size="14.00">EGIRequiredParamsBase</text>
<polyline fill="none" stroke="black" points="1460,-385 1657,-385 "/>
<text text-anchor="start" x="1486" y="-369.8" font-family="Times,serif" font-size="14.00">page_num : int</text>
<text text-anchor="start" x="1486" y="-354.8" font-family="Times,serif" font-size="14.00">page_size : int</text>
<text text-anchor="start" x="1486" y="-339.8" font-family="Times,serif" font-size="14.00">short_name : Literal</text>
<text text-anchor="start" x="1486" y="-324.8" font-family="Times,serif" font-size="14.00">version : str</text>
<polyline fill="none" stroke="black" points="1460,-317 1657,-317 "/>
<text text-anchor="start" x="1556" y="-301.8" font-family="Times,serif" font-size="14.00"> </text>
</g>
<!-- icepyx.core.types.EGIRequiredParamsDownload -->
<g id="node9" class="node">
<title>icepyx.core.types.EGIRequiredParamsDownload</title>
<polygon fill="none" stroke="black" points="1232.5,-60.5 1232.5,-159.5 1584.5,-159.5 1584.5,-60.5 1232.5,-60.5"/>
<text text-anchor="start" x="1300" y="-144.3" font-family="Times,serif" font-size="14.00">EGIRequiredParamsDownload</text>
<polyline fill="none" stroke="black" points="1232.5,-136.5 1584.5,-136.5 "/>
<text text-anchor="start" x="1240.5" y="-121.3" font-family="Times,serif" font-size="14.00">client_string : Literal[&#39;icepyx&#39;]</text>
<text text-anchor="start" x="1240.5" y="-106.3" font-family="Times,serif" font-size="14.00">include_meta : Literal[&#39;Y&#39;, &#39;N&#39;]</text>
<text text-anchor="start" x="1240.5" y="-91.3" font-family="Times,serif" font-size="14.00">request_mode : Literal[&#39;sync&#39;, &#39;async&#39;, &#39;stream&#39;]</text>
<polyline fill="none" stroke="black" points="1232.5,-83.5 1584.5,-83.5 "/>
<text text-anchor="start" x="1406" y="-68.3" font-family="Times,serif" font-size="14.00"> </text>
</g>
<!-- icepyx.core.types.EGIRequiredParamsDownload&#45;&gt;icepyx.core.types.EGIRequiredParamsBase -->
<g id="edge9" class="edge">
<title>icepyx.core.types.EGIRequiredParamsDownload&#45;&gt;icepyx.core.types.EGIRequiredParamsBase</title>
<path fill="none" stroke="black" d="M1439.04,-159.65C1461.73,-195.82 1492.93,-245.53 1517.75,-285.08"/>
<polygon fill="none" stroke="black" points="1514.99,-287.26 1523.27,-293.87 1520.92,-283.54 1514.99,-287.26"/>
</g>
<!-- icepyx.core.types.EGIRequiredParamsSearch -->
<g id="node10" class="node">
<title>icepyx.core.types.EGIRequiredParamsSearch</title>
<polygon fill="none" stroke="black" points="1602.5,-74.6 1602.5,-145.4 1814.5,-145.4 1814.5,-74.6 1602.5,-74.6"/>
<text text-anchor="start" x="1610.5" y="-130.2" font-family="Times,serif" font-size="14.00">EGIRequiredParamsSearch</text>
<polyline fill="none" stroke="black" points="1602.5,-122.4 1814.5,-122.4 "/>
<polyline fill="none" stroke="black" points="1602.5,-97.6 1814.5,-97.6 "/>
<text text-anchor="start" x="1706" y="-82.4" font-family="Times,serif" font-size="14.00"> </text>
</g>
<!-- icepyx.core.types.EGIRequiredParamsSearch&#45;&gt;icepyx.core.types.EGIRequiredParamsBase -->
<g id="edge10" class="edge">
<title>icepyx.core.types.EGIRequiredParamsSearch&#45;&gt;icepyx.core.types.EGIRequiredParamsBase</title>
<path fill="none" stroke="black" d="M1686.85,-145.5C1663.98,-181.93 1627.4,-240.22 1599.13,-285.26"/>
<polygon fill="none" stroke="black" points="1596.12,-283.47 1593.77,-293.8 1602.05,-287.19 1596.12,-283.47"/>
</g>
<!-- icepyx.core.auth.EarthdataAuthMixin -->
<g id="node11" class="node">
<title>icepyx.core.auth.EarthdataAuthMixin</title>
<polygon fill="none" stroke="black" points="2806,-866 2806,-965 2969,-965 2969,-866 2806,-866"/>
<text text-anchor="start" x="2814" y="-949.8" font-family="Times,serif" font-size="14.00">EarthdataAuthMixin</text>
<polyline fill="none" stroke="black" points="2806,-942 2969,-942 "/>
<text text-anchor="start" x="2818" y="-926.8" font-family="Times,serif" font-size="14.00">auth</text>
<text text-anchor="start" x="2818" y="-911.8" font-family="Times,serif" font-size="14.00">s3login_credentials</text>
<text text-anchor="start" x="2818" y="-896.8" font-family="Times,serif" font-size="14.00">session</text>
<polyline fill="none" stroke="black" points="2806,-889 2969,-889 "/>
<text text-anchor="start" x="2885" y="-873.8" font-family="Times,serif" font-size="14.00"> </text>
</g>
<!-- icepyx.core.exceptions.ExhaustiveTypeGuardException -->
<g id="node12" class="node">
<title>icepyx.core.exceptions.ExhaustiveTypeGuardException</title>
<polygon fill="none" stroke="black" points="3282.5,-74.6 3282.5,-145.4 3528.5,-145.4 3528.5,-74.6 3282.5,-74.6"/>
<text text-anchor="start" x="3290.5" y="-130.2" font-family="Times,serif" font-size="14.00" fill="red">ExhaustiveTypeGuardException</text>
<polyline fill="none" stroke="black" points="3282.5,-122.4 3528.5,-122.4 "/>
<polyline fill="none" stroke="black" points="3282.5,-97.6 3528.5,-97.6 "/>
<text text-anchor="start" x="3403" y="-82.4" font-family="Times,serif" font-size="14.00" fill="red"> </text>
</g>
<!-- icepyx.core.exceptions.TypeGuardException -->
<g id="node22" class="node">
<title>icepyx.core.exceptions.TypeGuardException</title>
<polygon fill="none" stroke="black" points="3322,-315.6 3322,-386.4 3489,-386.4 3489,-315.6 3322,-315.6"/>
<text text-anchor="start" x="3330" y="-371.2" font-family="Times,serif" font-size="14.00" fill="red">TypeGuardException</text>
<polyline fill="none" stroke="black" points="3322,-363.4 3489,-363.4 "/>
<polyline fill="none" stroke="black" points="3322,-338.6 3489,-338.6 "/>
<text text-anchor="start" x="3403" y="-323.4" font-family="Times,serif" font-size="14.00" fill="red"> </text>
</g>
<!-- icepyx.core.exceptions.ExhaustiveTypeGuardException&#45;&gt;icepyx.core.exceptions.TypeGuardException -->
<g id="edge1" class="edge">
<title>icepyx.core.exceptions.ExhaustiveTypeGuardException&#45;&gt;icepyx.core.exceptions.TypeGuardException</title>
<path fill="none" stroke="black" d="M3405.5,-145.5C3405.5,-187.68 3405.5,-259.16 3405.5,-305.46"/>
<polygon fill="none" stroke="black" points="3402,-305.51 3405.5,-315.51 3409,-305.51 3402,-305.51"/>
</g>
<!-- icepyx.core.query.GenQuery -->
<g id="node13" class="node">
<title>icepyx.core.query.GenQuery</title>
<polygon fill="none" stroke="black" points="3332,-843.5 3332,-987.5 3449,-987.5 3449,-843.5 3332,-843.5"/>
<text text-anchor="start" x="3354" y="-972.3" font-family="Times,serif" font-size="14.00">GenQuery</text>
<polyline fill="none" stroke="black" points="3332,-964.5 3449,-964.5 "/>
<text text-anchor="start" x="3340" y="-949.3" font-family="Times,serif" font-size="14.00">dates</text>
<text text-anchor="start" x="3340" y="-934.3" font-family="Times,serif" font-size="14.00">end_time</text>
<text text-anchor="start" x="3340" y="-919.3" font-family="Times,serif" font-size="14.00">spatial</text>
<text text-anchor="start" x="3340" y="-904.3" font-family="Times,serif" font-size="14.00">spatial_extent</text>
<text text-anchor="start" x="3340" y="-889.3" font-family="Times,serif" font-size="14.00">start_time</text>
<text text-anchor="start" x="3340" y="-874.3" font-family="Times,serif" font-size="14.00">temporal</text>
<polyline fill="none" stroke="black" points="3332,-866.5 3449,-866.5 "/>
<text text-anchor="start" x="3388" y="-851.3" font-family="Times,serif" font-size="14.00"> </text>
</g>
<!-- icepyx.core.granules.Granules -->
<g id="node14" class="node">
<title>icepyx.core.granules.Granules</title>
<polygon fill="none" stroke="black" points="1675,-294 1675,-408 2622,-408 2622,-294 1675,-294"/>
<text text-anchor="start" x="2116" y="-392.8" font-family="Times,serif" font-size="14.00">Granules</text>
<polyline fill="none" stroke="black" points="1675,-385 2622,-385 "/>
<text text-anchor="start" x="2098.5" y="-369.8" font-family="Times,serif" font-size="14.00">avail : list</text>
<text text-anchor="start" x="2098.5" y="-354.8" font-family="Times,serif" font-size="14.00">orderIDs : list</text>
<polyline fill="none" stroke="black" points="1675,-347 2622,-347 "/>
<text text-anchor="start" x="1683" y="-331.8" font-family="Times,serif" font-size="14.00">download(verbose, path, restart)</text>
<text text-anchor="start" x="1683" y="-316.8" font-family="Times,serif" font-size="14.00">get_avail(CMRparams: CMRParams, reqparams: EGIRequiredParamsSearch, cloud: bool)</text>
<text text-anchor="start" x="1683" y="-301.8" font-family="Times,serif" font-size="14.00">place_order(CMRparams: CMRParams, reqparams: EGIRequiredParamsDownload, subsetparams, verbose, subset, geom_filepath)</text>
</g>
<!-- icepyx.core.granules.Granules&#45;&gt;icepyx.core.auth.EarthdataAuthMixin -->
<g id="edge3" class="edge">
<title>icepyx.core.granules.Granules&#45;&gt;icepyx.core.auth.EarthdataAuthMixin</title>
<path fill="none" stroke="black" d="M2186.65,-408.24C2251.89,-500.5 2393.54,-684.45 2554.5,-792 2628.86,-841.68 2725.97,-874.41 2796.11,-893.44"/>
<polygon fill="none" stroke="black" points="2795.26,-896.83 2805.83,-896.03 2797.07,-890.07 2795.26,-896.83"/>
</g>
<!-- icepyx.core.query.Query -->
<g id="node17" class="node">
<title>icepyx.core.query.Query</title>
<polygon fill="none" stroke="black" points="2564,-482.5 2564,-791.5 3025,-791.5 3025,-482.5 2564,-482.5"/>
<text text-anchor="start" x="2772.5" y="-776.3" font-family="Times,serif" font-size="14.00">Query</text>
<polyline fill="none" stroke="black" points="2564,-768.5 3025,-768.5 "/>
<text text-anchor="start" x="2737" y="-753.3" font-family="Times,serif" font-size="14.00">CMRparams</text>
<text text-anchor="start" x="2737" y="-738.3" font-family="Times,serif" font-size="14.00">cycles</text>
<text text-anchor="start" x="2737" y="-723.3" font-family="Times,serif" font-size="14.00">granules</text>
<text text-anchor="start" x="2737" y="-708.3" font-family="Times,serif" font-size="14.00">order_vars</text>
<text text-anchor="start" x="2737" y="-693.3" font-family="Times,serif" font-size="14.00">product</text>
<text text-anchor="start" x="2737" y="-678.3" font-family="Times,serif" font-size="14.00">product_version</text>
<text text-anchor="start" x="2737" y="-663.3" font-family="Times,serif" font-size="14.00">reqparams</text>
<text text-anchor="start" x="2737" y="-648.3" font-family="Times,serif" font-size="14.00">tracks</text>
<polyline fill="none" stroke="black" points="2564,-640.5 3025,-640.5 "/>
<text text-anchor="start" x="2572" y="-625.3" font-family="Times,serif" font-size="14.00">avail_granules(ids, cycles, tracks, cloud)</text>
<text text-anchor="start" x="2572" y="-610.3" font-family="Times,serif" font-size="14.00">download_granules(path, verbose, subset, restart)</text>
<text text-anchor="start" x="2572" y="-595.3" font-family="Times,serif" font-size="14.00">latest_version()</text>
<text text-anchor="start" x="2572" y="-580.3" font-family="Times,serif" font-size="14.00">order_granules(verbose, subset, email)</text>
<text text-anchor="start" x="2572" y="-565.3" font-family="Times,serif" font-size="14.00">product_all_info()</text>
<text text-anchor="start" x="2572" y="-550.3" font-family="Times,serif" font-size="14.00">product_summary_info()</text>
<text text-anchor="start" x="2572" y="-535.3" font-family="Times,serif" font-size="14.00">show_custom_options(dictview)</text>
<text text-anchor="start" x="2572" y="-520.3" font-family="Times,serif" font-size="14.00">subsetparams(): Union[EGIParamsSubset, dict[Never, Never]]</text>
<text text-anchor="start" x="2572" y="-505.3" font-family="Times,serif" font-size="14.00">visualize_elevation()</text>
<text text-anchor="start" x="2572" y="-490.3" font-family="Times,serif" font-size="14.00">visualize_spatial_extent()</text>
</g>
<!-- icepyx.core.granules.Granules&#45;&gt;icepyx.core.query.Query -->
<g id="edge17" class="edge">
<title>icepyx.core.granules.Granules&#45;&gt;icepyx.core.query.Query</title>
<path fill="none" stroke="black" d="M2236.15,-408.27C2267.48,-427.21 2303.46,-447.66 2337.5,-464 2405.87,-496.82 2482.27,-527.7 2552.74,-554"/>
<polygon fill="black" stroke="black" points="2552.74,-554 2559.76,-552.34 2563.99,-558.18 2556.97,-559.84 2552.74,-554"/>
<text text-anchor="middle" x="2372.5" y="-452.8" font-family="Times,serif" font-size="14.00" fill="green">_granules</text>
</g>
<!-- icepyx.core.exceptions.NsidcQueryError -->
<g id="node15" class="node">
<title>icepyx.core.exceptions.NsidcQueryError</title>
<polygon fill="none" stroke="black" points="3546.5,-68 3546.5,-152 3686.5,-152 3686.5,-68 3546.5,-68"/>
<text text-anchor="start" x="3554.5" y="-136.8" font-family="Times,serif" font-size="14.00" fill="red">NsidcQueryError</text>
<polyline fill="none" stroke="black" points="3546.5,-129 3686.5,-129 "/>
<text text-anchor="start" x="3574" y="-113.8" font-family="Times,serif" font-size="14.00" fill="red">errmsg</text>
<text text-anchor="start" x="3574" y="-98.8" font-family="Times,serif" font-size="14.00" fill="red">msgtxt : str</text>
<polyline fill="none" stroke="black" points="3546.5,-91 3686.5,-91 "/>
<text text-anchor="start" x="3614" y="-75.8" font-family="Times,serif" font-size="14.00" fill="red"> </text>
</g>
<!-- icepyx.core.exceptions.QueryError -->
<g id="node18" class="node">
<title>icepyx.core.exceptions.QueryError</title>
<polygon fill="none" stroke="black" points="3567,-315.6 3567,-386.4 3666,-386.4 3666,-315.6 3567,-315.6"/>
<text text-anchor="start" x="3575" y="-371.2" font-family="Times,serif" font-size="14.00" fill="red">QueryError</text>
<polyline fill="none" stroke="black" points="3567,-363.4 3666,-363.4 "/>
<polyline fill="none" stroke="black" points="3567,-338.6 3666,-338.6 "/>
<text text-anchor="start" x="3614" y="-323.4" font-family="Times,serif" font-size="14.00" fill="red"> </text>
</g>
<!-- icepyx.core.exceptions.NsidcQueryError&#45;&gt;icepyx.core.exceptions.QueryError -->
<g id="edge2" class="edge">
<title>icepyx.core.exceptions.NsidcQueryError&#45;&gt;icepyx.core.exceptions.QueryError</title>
<path fill="none" stroke="black" d="M3616.5,-152.09C3616.5,-194.71 3616.5,-261.18 3616.5,-305.15"/>
<polygon fill="none" stroke="black" points="3613,-305.26 3616.5,-315.26 3620,-305.26 3613,-305.26"/>
</g>
<!-- icepyx.core.APIformatting.Parameters -->
<g id="node16" class="node">
<title>icepyx.core.APIformatting.Parameters</title>
<polygon fill="none" stroke="black" points="2640.5,-286.5 2640.5,-415.5 2830.5,-415.5 2830.5,-286.5 2640.5,-286.5"/>
<text text-anchor="start" x="2694" y="-400.3" font-family="Times,serif" font-size="14.00">Parameters</text>
<polyline fill="none" stroke="black" points="2640.5,-392.5 2830.5,-392.5 "/>
<text text-anchor="start" x="2694.5" y="-377.3" font-family="Times,serif" font-size="14.00">fmted_keys</text>
<text text-anchor="start" x="2694.5" y="-362.3" font-family="Times,serif" font-size="14.00">partype : T</text>
<text text-anchor="start" x="2694.5" y="-347.3" font-family="Times,serif" font-size="14.00">poss_keys</text>
<polyline fill="none" stroke="black" points="2640.5,-339.5 2830.5,-339.5 "/>
<text text-anchor="start" x="2648.5" y="-324.3" font-family="Times,serif" font-size="14.00">build_params(): None</text>
<text text-anchor="start" x="2648.5" y="-309.3" font-family="Times,serif" font-size="14.00">check_req_values(): bool</text>
<text text-anchor="start" x="2648.5" y="-294.3" font-family="Times,serif" font-size="14.00">check_values(): bool</text>
</g>
<!-- icepyx.core.APIformatting.Parameters&#45;&gt;icepyx.core.query.Query -->
<g id="edge12" class="edge">
<title>icepyx.core.APIformatting.Parameters&#45;&gt;icepyx.core.query.Query</title>
<path fill="none" stroke="black" d="M2682.09,-415.69C2674.87,-431.05 2671.46,-447.73 2676.5,-464 2677.21,-466.3 2677.97,-468.6 2678.77,-470.9"/>
<polygon fill="black" stroke="black" points="2678.84,-471.09 2684.7,-475.29 2683.07,-482.32 2677.21,-478.11 2678.84,-471.09"/>
<text text-anchor="middle" x="2724.5" y="-452.8" font-family="Times,serif" font-size="14.00" fill="green">_CMRparams</text>
</g>
<!-- icepyx.core.APIformatting.Parameters&#45;&gt;icepyx.core.query.Query -->
<g id="edge13" class="edge">
<title>icepyx.core.APIformatting.Parameters&#45;&gt;icepyx.core.query.Query</title>
<path fill="none" stroke="black" d="M2762.36,-415.73C2766.23,-426.68 2769.81,-438.06 2772.5,-449 2774.22,-456 2775.8,-463.18 2777.27,-470.46"/>
<polygon fill="black" stroke="black" points="2777.29,-470.58 2782.34,-475.73 2779.54,-482.37 2774.49,-477.23 2777.29,-470.58"/>
<text text-anchor="middle" x="2819" y="-452.8" font-family="Times,serif" font-size="14.00" fill="green">_reqparams</text>
</g>
<!-- icepyx.core.APIformatting.Parameters&#45;&gt;icepyx.core.query.Query -->
<g id="edge14" class="edge">
<title>icepyx.core.APIformatting.Parameters&#45;&gt;icepyx.core.query.Query</title>
<path fill="none" stroke="black" d="M2661.06,-415.62C2651.24,-421.67 2640.95,-427.02 2630.5,-431 2585.49,-448.15 2447.11,-413.56 2414.5,-449 2409.99,-453.91 2410.89,-458.4 2414.5,-464 2447.07,-514.49 2498.44,-550.32 2553.01,-575.69"/>
<polygon fill="black" stroke="black" points="2553.02,-575.69 2560.13,-574.51 2563.96,-580.62 2556.84,-581.8 2553.02,-575.69"/>
<text text-anchor="middle" x="2468.5" y="-452.8" font-family="Times,serif" font-size="14.00" fill="green">_subsetparams</text>
</g>
<!-- icepyx.core.APIformatting.Parameters&#45;&gt;icepyx.core.query.Query -->
<g id="edge15" class="edge">
<title>icepyx.core.APIformatting.Parameters&#45;&gt;icepyx.core.query.Query</title>
<path fill="none" stroke="black" d="M2657.62,-415.59C2648.76,-421.29 2639.63,-426.57 2630.5,-431 2600.28,-445.67 2547.39,-434 2562.5,-464 2563.83,-466.65 2565.23,-469.26 2566.68,-471.84"/>
<polygon fill="black" stroke="black" points="2566.78,-472.01 2573.3,-475.09 2572.97,-482.3 2566.45,-479.22 2566.78,-472.01"/>
<text text-anchor="middle" x="2616.5" y="-452.8" font-family="Times,serif" font-size="14.00" fill="green">_subsetparams</text>
</g>
<!-- icepyx.core.query.Query&#45;&gt;icepyx.core.auth.EarthdataAuthMixin -->
<g id="edge4" class="edge">
<title>icepyx.core.query.Query&#45;&gt;icepyx.core.auth.EarthdataAuthMixin</title>
<path fill="none" stroke="black" d="M2846.17,-791.61C2853.93,-814.69 2861.5,-837.18 2867.99,-856.49"/>
<polygon fill="none" stroke="black" points="2864.68,-857.63 2871.18,-865.99 2871.31,-855.39 2864.68,-857.63"/>
</g>
<!-- icepyx.core.query.Query&#45;&gt;icepyx.core.query.GenQuery -->
<g id="edge5" class="edge">
<title>icepyx.core.query.Query&#45;&gt;icepyx.core.query.GenQuery</title>
<path fill="none" stroke="black" d="M3025.25,-769.43C3040.78,-777.3 3056.3,-784.9 3071.5,-792 3155.86,-831.41 3256.68,-868.54 3322.07,-891.37"/>
<polygon fill="none" stroke="black" points="3321.26,-894.79 3331.85,-894.77 3323.55,-888.18 3321.26,-894.79"/>
</g>
<!-- icepyx.core.read.Read -->
<g id="node19" class="node">
<title>icepyx.core.read.Read</title>
<polygon fill="none" stroke="black" points="3080.5,-580 3080.5,-694 3152.5,-694 3152.5,-580 3080.5,-580"/>
<text text-anchor="start" x="3098" y="-678.8" font-family="Times,serif" font-size="14.00">Read</text>
<polyline fill="none" stroke="black" points="3080.5,-671 3152.5,-671 "/>
<text text-anchor="start" x="3088.5" y="-655.8" font-family="Times,serif" font-size="14.00">filelist</text>
<text text-anchor="start" x="3088.5" y="-640.8" font-family="Times,serif" font-size="14.00">is_s3</text>
<text text-anchor="start" x="3088.5" y="-625.8" font-family="Times,serif" font-size="14.00">product</text>
<text text-anchor="start" x="3088.5" y="-610.8" font-family="Times,serif" font-size="14.00">vars</text>
<polyline fill="none" stroke="black" points="3080.5,-603 3152.5,-603 "/>
<text text-anchor="start" x="3096" y="-587.8" font-family="Times,serif" font-size="14.00">load()</text>
</g>
<!-- icepyx.core.read.Read&#45;&gt;icepyx.core.auth.EarthdataAuthMixin -->
<g id="edge6" class="edge">
<title>icepyx.core.read.Read&#45;&gt;icepyx.core.auth.EarthdataAuthMixin</title>
<path fill="none" stroke="black" d="M3092.55,-694.22C3077.99,-724.86 3057.57,-762.45 3033.5,-792 3013.51,-816.55 2988.06,-839.86 2964.04,-859.43"/>
<polygon fill="none" stroke="black" points="2961.56,-856.93 2955.95,-865.92 2965.94,-862.39 2961.56,-856.93"/>
</g>
<!-- icepyx.core.spatial.Spatial -->
<g id="node20" class="node">
<title>icepyx.core.spatial.Spatial</title>
<polygon fill="none" stroke="black" points="3337,-572.5 3337,-701.5 3458,-701.5 3458,-572.5 3337,-572.5"/>
<text text-anchor="start" x="3372" y="-686.3" font-family="Times,serif" font-size="14.00">Spatial</text>
<polyline fill="none" stroke="black" points="3337,-678.5 3458,-678.5 "/>
<text text-anchor="start" x="3348" y="-663.3" font-family="Times,serif" font-size="14.00">extent</text>
<text text-anchor="start" x="3348" y="-648.3" font-family="Times,serif" font-size="14.00">extent_as_gdf</text>
<text text-anchor="start" x="3348" y="-633.3" font-family="Times,serif" font-size="14.00">extent_file</text>
<text text-anchor="start" x="3348" y="-618.3" font-family="Times,serif" font-size="14.00">extent_type</text>
<polyline fill="none" stroke="black" points="3337,-610.5 3458,-610.5 "/>
<text text-anchor="start" x="3345" y="-595.3" font-family="Times,serif" font-size="14.00">fmt_for_CMR()</text>
<text text-anchor="start" x="3345" y="-580.3" font-family="Times,serif" font-size="14.00">fmt_for_EGI()</text>
</g>
<!-- icepyx.core.spatial.Spatial&#45;&gt;icepyx.core.query.GenQuery -->
<g id="edge18" class="edge">
<title>icepyx.core.spatial.Spatial&#45;&gt;icepyx.core.query.GenQuery</title>
<path fill="none" stroke="black" d="M3367.98,-701.8C3354.88,-737.83 3344.11,-783.77 3352.5,-825 3352.94,-827.14 3353.42,-829.29 3353.96,-831.45"/>
<polygon fill="black" stroke="black" points="3353.96,-831.46 3359.44,-836.14 3357.23,-843.01 3351.75,-838.32 3353.96,-831.46"/>
<text text-anchor="middle" x="3380" y="-813.8" font-family="Times,serif" font-size="14.00" fill="green">_spatial</text>
</g>
<!-- icepyx.core.spatial.Spatial&#45;&gt;icepyx.core.query.GenQuery -->
<g id="edge19" class="edge">
<title>icepyx.core.spatial.Spatial&#45;&gt;icepyx.core.query.GenQuery</title>
<path fill="none" stroke="black" d="M3405.55,-701.71C3408.96,-737.91 3411.35,-784.05 3407.5,-825 3407.31,-827.06 3407.09,-829.14 3406.85,-831.23"/>
<polygon fill="black" stroke="black" points="3406.82,-831.45 3410.01,-837.92 3405.26,-843.35 3402.08,-836.88 3406.82,-831.45"/>
<text text-anchor="middle" x="3436" y="-813.8" font-family="Times,serif" font-size="14.00" fill="green">_spatial</text>
</g>
<!-- icepyx.core.temporal.Temporal -->
<g id="node21" class="node">
<title>icepyx.core.temporal.Temporal</title>
<polygon fill="none" stroke="black" points="3476,-595 3476,-679 3559,-679 3559,-595 3476,-595"/>
<text text-anchor="start" x="3484" y="-663.8" font-family="Times,serif" font-size="14.00">Temporal</text>
<polyline fill="none" stroke="black" points="3476,-656 3559,-656 "/>
<text text-anchor="start" x="3500" y="-640.8" font-family="Times,serif" font-size="14.00">end</text>
<text text-anchor="start" x="3500" y="-625.8" font-family="Times,serif" font-size="14.00">start</text>
<polyline fill="none" stroke="black" points="3476,-618 3559,-618 "/>
<text text-anchor="start" x="3515" y="-602.8" font-family="Times,serif" font-size="14.00"> </text>
</g>
<!-- icepyx.core.temporal.Temporal&#45;&gt;icepyx.core.query.GenQuery -->
<g id="edge20" class="edge">
<title>icepyx.core.temporal.Temporal&#45;&gt;icepyx.core.query.GenQuery</title>
<path fill="none" stroke="black" d="M3511.9,-679.34C3505.36,-718.58 3492.14,-778.34 3467.5,-825 3464.19,-831.27 3460.37,-837.48 3456.23,-843.53"/>
<polygon fill="black" stroke="black" points="3456.03,-843.81 3455.77,-851.02 3449.01,-853.55 3449.28,-846.34 3456.03,-843.81"/>
<text text-anchor="middle" x="3510.5" y="-813.8" font-family="Times,serif" font-size="14.00" fill="green">_temporal</text>
</g>
<!-- icepyx.core.variables.Variables -->
<g id="node23" class="node">
<title>icepyx.core.variables.Variables</title>
<polygon fill="none" stroke="black" points="2929,-271.5 2929,-430.5 3304,-430.5 3304,-271.5 2929,-271.5"/>
<text text-anchor="start" x="3083" y="-415.3" font-family="Times,serif" font-size="14.00">Variables</text>
<polyline fill="none" stroke="black" points="2929,-407.5 3304,-407.5 "/>
<text text-anchor="start" x="3029" y="-392.3" font-family="Times,serif" font-size="14.00">path</text>
<text text-anchor="start" x="3029" y="-377.3" font-family="Times,serif" font-size="14.00">product</text>
<text text-anchor="start" x="3029" y="-362.3" font-family="Times,serif" font-size="14.00">version</text>
<text text-anchor="start" x="3029" y="-347.3" font-family="Times,serif" font-size="14.00">wanted : NoneType, dict</text>
<polyline fill="none" stroke="black" points="2929,-339.5 3304,-339.5 "/>
<text text-anchor="start" x="2937" y="-324.3" font-family="Times,serif" font-size="14.00">append(defaults, var_list, beam_list, keyword_list)</text>
<text text-anchor="start" x="2937" y="-309.3" font-family="Times,serif" font-size="14.00">avail(options, internal)</text>
<text text-anchor="start" x="2937" y="-294.3" font-family="Times,serif" font-size="14.00">parse_var_list(varlist, tiered, tiered_vars)</text>
<text text-anchor="start" x="2937" y="-279.3" font-family="Times,serif" font-size="14.00">remove(all, var_list, beam_list, keyword_list)</text>
</g>
<!-- icepyx.core.variables.Variables&#45;&gt;icepyx.core.auth.EarthdataAuthMixin -->
<g id="edge11" class="edge">
<title>icepyx.core.variables.Variables&#45;&gt;icepyx.core.auth.EarthdataAuthMixin</title>
<path fill="none" stroke="black" d="M3265.89,-430.87C3270.61,-436.55 3274.86,-442.58 3278.5,-449 3357.92,-589.13 3270.88,-673.76 3161.5,-792 3113.07,-844.36 3038.09,-875.75 2978.81,-893.62"/>
<polygon fill="none" stroke="black" points="2977.67,-890.31 2969.06,-896.48 2979.64,-897.02 2977.67,-890.31"/>
</g>
<!-- icepyx.core.variables.Variables&#45;&gt;icepyx.core.query.Query -->
<g id="edge21" class="edge">
<title>icepyx.core.variables.Variables&#45;&gt;icepyx.core.query.Query</title>
<path fill="none" stroke="black" d="M2928.88,-428.86C2919.94,-435.14 2911.41,-441.85 2903.5,-449 2895.42,-456.31 2887.76,-464.37 2880.55,-472.9"/>
<polygon fill="black" stroke="black" points="2880.45,-473.02 2879.78,-480.2 2872.89,-482.34 2873.57,-475.16 2880.45,-473.02"/>
<text text-anchor="middle" x="2945.5" y="-452.8" font-family="Times,serif" font-size="14.00" fill="green">_order_vars</text>
</g>
<!-- icepyx.core.variables.Variables&#45;&gt;icepyx.core.query.Query -->
<g id="edge22" class="edge">
<title>icepyx.core.variables.Variables&#45;&gt;icepyx.core.query.Query</title>
<path fill="none" stroke="black" d="M3027.23,-430.73C3011.76,-444.38 2995.19,-459 2978.26,-473.92"/>
<polygon fill="black" stroke="black" points="2977.83,-474.3 2975.98,-481.27 2968.83,-482.24 2970.69,-475.27 2977.83,-474.3"/>
<text text-anchor="middle" x="3045.5" y="-452.8" font-family="Times,serif" font-size="14.00" fill="green">_order_vars</text>
</g>
<!-- icepyx.core.variables.Variables&#45;&gt;icepyx.core.read.Read -->
<g id="edge23" class="edge">
<title>icepyx.core.variables.Variables&#45;&gt;icepyx.core.read.Read</title>
<path fill="none" stroke="black" d="M3116.5,-430.73C3116.5,-473.67 3116.5,-526.31 3116.5,-567.53"/>
<polygon fill="black" stroke="black" points="3116.5,-567.66 3120.5,-573.66 3116.5,-579.66 3112.5,-573.66 3116.5,-567.66"/>
<text text-anchor="middle" x="3155" y="-452.8" font-family="Times,serif" font-size="14.00" fill="green">_read_vars</text>
</g>
<!-- icepyx.core.variables.Variables&#45;&gt;icepyx.core.read.Read -->
<g id="edge24" class="edge">
<title>icepyx.core.variables.Variables&#45;&gt;icepyx.core.read.Read</title>
<path fill="none" stroke="black" d="M3186.35,-430.73C3189.54,-436.67 3192.31,-442.78 3194.5,-449 3210.9,-495.55 3185.89,-547.25 3159.94,-584.47"/>
<polygon fill="black" stroke="black" points="3159.66,-584.84 3159.39,-592.05 3152.63,-594.56 3152.91,-587.36 3159.66,-584.84"/>
<text text-anchor="middle" x="3236" y="-452.8" font-family="Times,serif" font-size="14.00" fill="green">_read_vars</text>
</g>
<!-- icepyx.core.visualization.Visualize -->
<g id="node24" class="node">
<title>icepyx.core.visualization.Visualize</title>
<polygon fill="none" stroke="black" points="3704.5,-0.5 3704.5,-219.5 4070.5,-219.5 4070.5,-0.5 3704.5,-0.5"/>
<text text-anchor="start" x="3855.5" y="-204.3" font-family="Times,serif" font-size="14.00">Visualize</text>
<polyline fill="none" stroke="black" points="3704.5,-196.5 4070.5,-196.5 "/>
<text text-anchor="start" x="3802" y="-181.3" font-family="Times,serif" font-size="14.00">bbox : list</text>
<text text-anchor="start" x="3802" y="-166.3" font-family="Times,serif" font-size="14.00">cycles : NoneType</text>
<text text-anchor="start" x="3802" y="-151.3" font-family="Times,serif" font-size="14.00">date_range : NoneType</text>
<text text-anchor="start" x="3802" y="-136.3" font-family="Times,serif" font-size="14.00">product : NoneType, str</text>
<text text-anchor="start" x="3802" y="-121.3" font-family="Times,serif" font-size="14.00">tracks : NoneType</text>
<polyline fill="none" stroke="black" points="3704.5,-113.5 4070.5,-113.5 "/>
<text text-anchor="start" x="3712.5" y="-98.3" font-family="Times,serif" font-size="14.00">generate_OA_parameters(): list</text>
<text text-anchor="start" x="3712.5" y="-83.3" font-family="Times,serif" font-size="14.00">grid_bbox(binsize): list</text>
<text text-anchor="start" x="3712.5" y="-68.3" font-family="Times,serif" font-size="14.00">make_request(base_url, payload)</text>
<text text-anchor="start" x="3712.5" y="-53.3" font-family="Times,serif" font-size="14.00">parallel_request_OA(): da.array</text>
<text text-anchor="start" x="3712.5" y="-38.3" font-family="Times,serif" font-size="14.00">query_icesat2_filelist(): tuple</text>
<text text-anchor="start" x="3712.5" y="-23.3" font-family="Times,serif" font-size="14.00">request_OA_data(paras): da.array</text>
<text text-anchor="start" x="3712.5" y="-8.3" font-family="Times,serif" font-size="14.00">viz_elevation(): tuple[hv.DynamicMap, hv.Layout]</text>
</g>
<!-- icepyx.core.APIformatting._FmtedKeysDescriptor -->
<g id="node25" class="node">
<title>icepyx.core.APIformatting._FmtedKeysDescriptor</title>
<polygon fill="none" stroke="black" points="2646,-74.6 2646,-145.4 2825,-145.4 2825,-74.6 2646,-74.6"/>
<text text-anchor="start" x="2654" y="-130.2" font-family="Times,serif" font-size="14.00">_FmtedKeysDescriptor</text>
<polyline fill="none" stroke="black" points="2646,-122.4 2825,-122.4 "/>
<polyline fill="none" stroke="black" points="2646,-97.6 2825,-97.6 "/>
<text text-anchor="start" x="2733" y="-82.4" font-family="Times,serif" font-size="14.00"> </text>
</g>
<!-- icepyx.core.APIformatting._FmtedKeysDescriptor&#45;&gt;icepyx.core.APIformatting.Parameters -->
<g id="edge16" class="edge">
<title>icepyx.core.APIformatting._FmtedKeysDescriptor&#45;&gt;icepyx.core.APIformatting.Parameters</title>
<path fill="none" stroke="black" d="M2735.5,-145.5C2735.5,-178.98 2735.5,-230.93 2735.5,-274.09"/>
<polygon fill="black" stroke="black" points="2735.5,-274.3 2739.5,-280.3 2735.5,-286.3 2731.5,-280.3 2735.5,-274.3"/>
<text text-anchor="middle" x="2776.5" y="-241.8" font-family="Times,serif" font-size="14.00" fill="green">fmted_keys</text>
</g>
</g>
</svg>
