<?xml version="1.0" encoding="UTF-8" standalone="no"?>
<!DOCTYPE svg PUBLIC "-//W3C//DTD SVG 1.1//EN"
 "http://www.w3.org/Graphics/SVG/1.1/DTD/svg11.dtd">
<!-- Generated by graphviz version 2.43.0 (0)
 -->
<!-- Title: classes_user_uml Pages: 1 -->
<svg width="2248pt" height="831pt"
 viewBox="0.00 0.00 2248.00 831.00" xmlns="http://www.w3.org/2000/svg" xmlns:xlink="http://www.w3.org/1999/xlink">
<g id="graph0" class="graph" transform="scale(1 1) rotate(0) translate(4 827)">
<title>classes_user_uml</title>
<polygon fill="white" stroke="transparent" points="-4,4 -4,-827 2244,-827 2244,4 -4,4"/>
<!-- icepyx.core.Earthdata.Earthdata -->
<g id="node1" class="node">
<title>icepyx.core.Earthdata.Earthdata</title>
<polygon fill="none" stroke="black" points="0,-38 0,-182 167,-182 167,-38 0,-38"/>
<text text-anchor="middle" x="83.5" y="-166.8" font-family="Times,serif" font-size="14.00">Earthdata</text>
<polyline fill="none" stroke="black" points="0,-159 167,-159 "/>
<text text-anchor="start" x="8" y="-143.8" font-family="Times,serif" font-size="14.00">capability_url</text>
<text text-anchor="start" x="8" y="-128.8" font-family="Times,serif" font-size="14.00">email</text>
<text text-anchor="start" x="8" y="-113.8" font-family="Times,serif" font-size="14.00">netrc : NoneType</text>
<text text-anchor="start" x="8" y="-98.8" font-family="Times,serif" font-size="14.00">pswd : str, NoneType</text>
<text text-anchor="start" x="8" y="-83.8" font-family="Times,serif" font-size="14.00">session : Session</text>
<text text-anchor="start" x="8" y="-68.8" font-family="Times,serif" font-size="14.00">uid</text>
<polyline fill="none" stroke="black" points="0,-61 167,-61 "/>
<text text-anchor="start" x="8" y="-45.8" font-family="Times,serif" font-size="14.00">login(attempts)</text>
</g>
<!-- icepyx.core.query.GenQuery -->
<g id="node2" class="node">
<title>icepyx.core.query.GenQuery</title>
<polygon fill="none" stroke="black" points="1350,-752.5 1350,-822.5 1439,-822.5 1439,-752.5 1350,-752.5"/>
<text text-anchor="middle" x="1394.5" y="-807.3" font-family="Times,serif" font-size="14.00">GenQuery</text>
<polyline fill="none" stroke="black" points="1350,-799.5 1439,-799.5 "/>
<polyline fill="none" stroke="black" points="1350,-775.5 1439,-775.5 "/>
<text text-anchor="middle" x="1394.5" y="-760.3" font-family="Times,serif" font-size="14.00"> </text>
</g>
<!-- icepyx.core.granules.Granules -->
<g id="node3" class="node">
<title>icepyx.core.granules.Granules</title>
<polygon fill="none" stroke="black" points="184.5,-53 184.5,-167 870.5,-167 870.5,-53 184.5,-53"/>
<text text-anchor="middle" x="527.5" y="-151.8" font-family="Times,serif" font-size="14.00">Granules</text>
<polyline fill="none" stroke="black" points="184.5,-144 870.5,-144 "/>
<text text-anchor="start" x="192.5" y="-128.8" font-family="Times,serif" font-size="14.00">avail : list</text>
<text text-anchor="start" x="192.5" y="-113.8" font-family="Times,serif" font-size="14.00">orderIDs : list</text>
<polyline fill="none" stroke="black" points="184.5,-106 870.5,-106 "/>
<text text-anchor="start" x="192.5" y="-90.8" font-family="Times,serif" font-size="14.00">download(verbose, path, session, restart)</text>
<text text-anchor="start" x="192.5" y="-75.8" font-family="Times,serif" font-size="14.00">get_avail(CMRparams, reqparams)</text>
<text text-anchor="start" x="192.5" y="-60.8" font-family="Times,serif" font-size="14.00">place_order(CMRparams, reqparams, subsetparams, verbose, subset, session, geom_filepath)</text>
</g>
<!-- icepyx.core.query.Query -->
<g id="node7" class="node">
<title>icepyx.core.query.Query</title>
<polygon fill="none" stroke="black" points="838,-271.5 838,-700.5 1215,-700.5 1215,-271.5 838,-271.5"/>
<text text-anchor="middle" x="1026.5" y="-685.3" font-family="Times,serif" font-size="14.00">Query</text>
<polyline fill="none" stroke="black" points="838,-677.5 1215,-677.5 "/>
<text text-anchor="start" x="846" y="-662.3" font-family="Times,serif" font-size="14.00">CMRparams</text>
<text text-anchor="start" x="846" y="-647.3" font-family="Times,serif" font-size="14.00">cycles</text>
<text text-anchor="start" x="846" y="-632.3" font-family="Times,serif" font-size="14.00">dataset</text>
<text text-anchor="start" x="846" y="-617.3" font-family="Times,serif" font-size="14.00">dates</text>
<text text-anchor="start" x="846" y="-602.3" font-family="Times,serif" font-size="14.00">end_time</text>
<text text-anchor="start" x="846" y="-587.3" font-family="Times,serif" font-size="14.00">file_vars</text>
<text text-anchor="start" x="846" y="-572.3" font-family="Times,serif" font-size="14.00">granules</text>
<text text-anchor="start" x="846" y="-557.3" font-family="Times,serif" font-size="14.00">order_vars</text>
<text text-anchor="start" x="846" y="-542.3" font-family="Times,serif" font-size="14.00">product</text>
<text text-anchor="start" x="846" y="-527.3" font-family="Times,serif" font-size="14.00">product_version</text>
<text text-anchor="start" x="846" y="-512.3" font-family="Times,serif" font-size="14.00">reqparams</text>
<text text-anchor="start" x="846" y="-497.3" font-family="Times,serif" font-size="14.00">spatial</text>
<text text-anchor="start" x="846" y="-482.3" font-family="Times,serif" font-size="14.00">spatial_extent</text>
<text text-anchor="start" x="846" y="-467.3" font-family="Times,serif" font-size="14.00">start_time</text>
<text text-anchor="start" x="846" y="-452.3" font-family="Times,serif" font-size="14.00">tracks</text>
<polyline fill="none" stroke="black" points="838,-444.5 1215,-444.5 "/>
<text text-anchor="start" x="846" y="-429.3" font-family="Times,serif" font-size="14.00">avail_granules(ids, cycles, tracks, s3urls)</text>
<text text-anchor="start" x="846" y="-414.3" font-family="Times,serif" font-size="14.00">download_granules(path, verbose, subset, restart)</text>
<text text-anchor="start" x="846" y="-399.3" font-family="Times,serif" font-size="14.00">earthdata_login(uid, email, s3token)</text>
<text text-anchor="start" x="846" y="-384.3" font-family="Times,serif" font-size="14.00">latest_version()</text>
<text text-anchor="start" x="846" y="-369.3" font-family="Times,serif" font-size="14.00">order_granules(verbose, subset, email)</text>
<text text-anchor="start" x="846" y="-354.3" font-family="Times,serif" font-size="14.00">product_all_info()</text>
<text text-anchor="start" x="846" y="-339.3" font-family="Times,serif" font-size="14.00">product_summary_info()</text>
<text text-anchor="start" x="846" y="-324.3" font-family="Times,serif" font-size="14.00">show_custom_options(dictview)</text>
<text text-anchor="start" x="846" y="-309.3" font-family="Times,serif" font-size="14.00">subsetparams()</text>
<text text-anchor="start" x="846" y="-294.3" font-family="Times,serif" font-size="14.00">visualize_elevation()</text>
<text text-anchor="start" x="846" y="-279.3" font-family="Times,serif" font-size="14.00">visualize_spatial_extent()</text>
</g>
<!-- icepyx.core.granules.Granules&#45;&gt;icepyx.core.query.Query -->
<g id="edge7" class="edge">
<title>icepyx.core.granules.Granules&#45;&gt;icepyx.core.query.Query</title>
<path fill="none" stroke="black" d="M522.58,-167.11C522.92,-195.26 527.87,-228.49 545.5,-253 612.24,-345.75 726.21,-402.97 826.46,-437.37"/>
<polygon fill="black" stroke="black" points="826.61,-437.42 833.57,-435.54 837.99,-441.25 831.02,-443.12 826.61,-437.42"/>
<text text-anchor="middle" x="580.5" y="-241.8" font-family="Times,serif" font-size="14.00" fill="green">_granules</text>
</g>
<!-- icepyx.core.granules.Granules&#45;&gt;icepyx.core.query.Query -->
<g id="edge8" class="edge">
<title>icepyx.core.granules.Granules&#45;&gt;icepyx.core.query.Query</title>
<path fill="none" stroke="black" d="M572.38,-167.28C595.84,-194.82 625.97,-227.46 656.5,-253 708.75,-296.72 769.91,-338.33 827.28,-373.92"/>
<polygon fill="black" stroke="black" points="827.35,-373.97 834.56,-373.71 837.57,-380.27 830.36,-380.52 827.35,-373.97"/>
<text text-anchor="middle" x="691.5" y="-241.8" font-family="Times,serif" font-size="14.00" fill="green">_granules</text>
</g>
<!-- icepyx.core.icesat2data.Icesat2Data -->
<g id="node4" class="node">
<title>icepyx.core.icesat2data.Icesat2Data</title>
<polygon fill="none" stroke="black" points="1584.5,-75 1584.5,-145 1686.5,-145 1686.5,-75 1584.5,-75"/>
<text text-anchor="middle" x="1635.5" y="-129.8" font-family="Times,serif" font-size="14.00">Icesat2Data</text>
<polyline fill="none" stroke="black" points="1584.5,-122 1686.5,-122 "/>
<polyline fill="none" stroke="black" points="1584.5,-98 1686.5,-98 "/>
<text text-anchor="middle" x="1635.5" y="-82.8" font-family="Times,serif" font-size="14.00"> </text>
</g>
<!-- icepyx.core.exceptions.NsidcQueryError -->
<g id="node5" class="node">
<title>icepyx.core.exceptions.NsidcQueryError</title>
<polygon fill="none" stroke="black" points="1753.5,-68 1753.5,-152 1893.5,-152 1893.5,-68 1753.5,-68"/>
<text text-anchor="middle" x="1823.5" y="-136.8" font-family="Times,serif" font-size="14.00" fill="red">NsidcQueryError</text>
<polyline fill="none" stroke="black" points="1753.5,-129 1893.5,-129 "/>
<text text-anchor="start" x="1761.5" y="-113.8" font-family="Times,serif" font-size="14.00" fill="red">errmsg</text>
<text text-anchor="start" x="1761.5" y="-98.8" font-family="Times,serif" font-size="14.00" fill="red">msgtxt : str</text>
<polyline fill="none" stroke="black" points="1753.5,-91 1893.5,-91 "/>
<text text-anchor="middle" x="1823.5" y="-75.8" font-family="Times,serif" font-size="14.00" fill="red"> </text>
</g>
<!-- icepyx.core.exceptions.QueryError -->
<g id="node8" class="node">
<title>icepyx.core.exceptions.QueryError</title>
<polygon fill="none" stroke="black" points="1774,-451 1774,-521 1873,-521 1873,-451 1774,-451"/>
<text text-anchor="middle" x="1823.5" y="-505.8" font-family="Times,serif" font-size="14.00" fill="red">QueryError</text>
<polyline fill="none" stroke="black" points="1774,-498 1873,-498 "/>
<polyline fill="none" stroke="black" points="1774,-474 1873,-474 "/>
<text text-anchor="middle" x="1823.5" y="-458.8" font-family="Times,serif" font-size="14.00" fill="red"> </text>
</g>
<!-- icepyx.core.exceptions.NsidcQueryError&#45;&gt;icepyx.core.exceptions.QueryError -->
<g id="edge1" class="edge">
<title>icepyx.core.exceptions.NsidcQueryError&#45;&gt;icepyx.core.exceptions.QueryError</title>
<path fill="none" stroke="black" d="M1823.5,-152.09C1823.5,-222.99 1823.5,-367.69 1823.5,-440.73"/>
<polygon fill="none" stroke="black" points="1820,-440.97 1823.5,-450.97 1827,-440.97 1820,-440.97"/>
</g>
<!-- icepyx.core.APIformatting.Parameters -->
<g id="node6" class="node">
<title>icepyx.core.APIformatting.Parameters</title>
<polygon fill="none" stroke="black" points="888,-45.5 888,-174.5 1039,-174.5 1039,-45.5 888,-45.5"/>
<text text-anchor="middle" x="963.5" y="-159.3" font-family="Times,serif" font-size="14.00">Parameters</text>
<polyline fill="none" stroke="black" points="888,-151.5 1039,-151.5 "/>
<text text-anchor="start" x="896" y="-136.3" font-family="Times,serif" font-size="14.00">fmted_keys</text>
<text text-anchor="start" x="896" y="-121.3" font-family="Times,serif" font-size="14.00">partype</text>
<text text-anchor="start" x="896" y="-106.3" font-family="Times,serif" font-size="14.00">poss_keys</text>
<polyline fill="none" stroke="black" points="888,-98.5 1039,-98.5 "/>
<text text-anchor="start" x="896" y="-83.3" font-family="Times,serif" font-size="14.00">build_params()</text>
<text text-anchor="start" x="896" y="-68.3" font-family="Times,serif" font-size="14.00">check_req_values()</text>
<text text-anchor="start" x="896" y="-53.3" font-family="Times,serif" font-size="14.00">check_values()</text>
</g>
<!-- icepyx.core.APIformatting.Parameters&#45;&gt;icepyx.core.query.Query -->
<g id="edge3" class="edge">
<title>icepyx.core.APIformatting.Parameters&#45;&gt;icepyx.core.query.Query</title>
<path fill="none" stroke="black" d="M927.54,-174.75C914.63,-192.14 898.48,-209.16 879.5,-220 822.11,-252.77 705.77,-193.48 734.5,-253 755.91,-297.35 790.37,-335.82 828.23,-368"/>
<polygon fill="black" stroke="black" points="828.69,-368.38 835.86,-369.13 837.93,-376.04 830.76,-375.29 828.69,-368.38"/>
<text text-anchor="middle" x="782.5" y="-241.8" font-family="Times,serif" font-size="14.00" fill="green">_CMRparams</text>
</g>
<!-- icepyx.core.APIformatting.Parameters&#45;&gt;icepyx.core.query.Query -->
<g id="edge4" class="edge">
<title>icepyx.core.APIformatting.Parameters&#45;&gt;icepyx.core.query.Query</title>
<path fill="none" stroke="black" d="M919.74,-174.63C907.59,-190.28 893.79,-206.42 879.5,-220 869.31,-229.68 860.02,-225.55 853.5,-238 850.41,-243.91 851.4,-246.67 853.5,-253 854.3,-255.42 855.14,-257.84 856.02,-260.25"/>
<polygon fill="black" stroke="black" points="856.03,-260.29 861.93,-264.45 860.35,-271.49 854.46,-267.33 856.03,-260.29"/>
<text text-anchor="middle" x="896" y="-241.8" font-family="Times,serif" font-size="14.00" fill="green">_reqparams</text>
</g>
<!-- icepyx.core.APIformatting.Parameters&#45;&gt;icepyx.core.query.Query -->
<g id="edge5" class="edge">
<title>icepyx.core.APIformatting.Parameters&#45;&gt;icepyx.core.query.Query</title>
<path fill="none" stroke="black" d="M962.3,-174.63C961.97,-194.88 961.66,-217.38 961.5,-238 961.45,-244.67 960.59,-246.4 961.5,-253 961.78,-255.07 962.08,-257.14 962.39,-259.22"/>
<polygon fill="black" stroke="black" points="962.41,-259.34 967.31,-264.63 964.31,-271.19 959.41,-265.9 962.41,-259.34"/>
<text text-anchor="middle" x="1015.5" y="-241.8" font-family="Times,serif" font-size="14.00" fill="green">_subsetparams</text>
</g>
<!-- icepyx.core.APIformatting.Parameters&#45;&gt;icepyx.core.query.Query -->
<g id="edge6" class="edge">
<title>icepyx.core.APIformatting.Parameters&#45;&gt;icepyx.core.query.Query</title>
<path fill="none" stroke="black" d="M1031.07,-174.57C1046.7,-193.34 1061.18,-215.05 1069.5,-238 1072.02,-244.97 1074.02,-252.1 1075.56,-259.34"/>
<polygon fill="black" stroke="black" points="1075.57,-259.4 1080.54,-264.61 1077.64,-271.21 1072.67,-266 1075.57,-259.4"/>
<text text-anchor="middle" x="1127.5" y="-241.8" font-family="Times,serif" font-size="14.00" fill="green">_subsetparams</text>
</g>
<!-- icepyx.core.query.Query&#45;&gt;icepyx.core.query.GenQuery -->
<g id="edge2" class="edge">
<title>icepyx.core.query.Query&#45;&gt;icepyx.core.query.GenQuery</title>
<path fill="none" stroke="black" d="M1215.08,-640.48C1263,-679.48 1310.5,-718.14 1344.58,-745.87"/>
<polygon fill="none" stroke="black" points="1342.55,-748.73 1352.51,-752.33 1346.97,-743.3 1342.55,-748.73"/>
</g>
<!-- icepyx.core.read.Read -->
<g id="node9" class="node">
<title>icepyx.core.read.Read</title>
<polygon fill="none" stroke="black" points="1432.5,-436.5 1432.5,-535.5 1620.5,-535.5 1620.5,-436.5 1432.5,-436.5"/>
<text text-anchor="middle" x="1526.5" y="-520.3" font-family="Times,serif" font-size="14.00">Read</text>
<polyline fill="none" stroke="black" points="1432.5,-512.5 1620.5,-512.5 "/>
<text text-anchor="start" x="1440.5" y="-497.3" font-family="Times,serif" font-size="14.00">data_source : NoneType</text>
<text text-anchor="start" x="1440.5" y="-482.3" font-family="Times,serif" font-size="14.00">is2catalog</text>
<text text-anchor="start" x="1440.5" y="-467.3" font-family="Times,serif" font-size="14.00">vars</text>
<polyline fill="none" stroke="black" points="1432.5,-459.5 1620.5,-459.5 "/>
<text text-anchor="start" x="1440.5" y="-444.3" font-family="Times,serif" font-size="14.00">load()</text>
</g>
<!-- icepyx.core.spatial.Spatial -->
<g id="node10" class="node">
<title>icepyx.core.spatial.Spatial</title>
<polygon fill="none" stroke="black" points="1639,-436.5 1639,-535.5 1756,-535.5 1756,-436.5 1639,-436.5"/>
<text text-anchor="middle" x="1697.5" y="-520.3" font-family="Times,serif" font-size="14.00">Spatial</text>
<polyline fill="none" stroke="black" points="1639,-512.5 1756,-512.5 "/>
<text text-anchor="start" x="1647" y="-497.3" font-family="Times,serif" font-size="14.00">extent_file</text>
<text text-anchor="start" x="1647" y="-482.3" font-family="Times,serif" font-size="14.00">extent_type</text>
<text text-anchor="start" x="1647" y="-467.3" font-family="Times,serif" font-size="14.00">spatial_extent</text>
<polyline fill="none" stroke="black" points="1639,-459.5 1756,-459.5 "/>
<text text-anchor="middle" x="1697.5" y="-444.3" font-family="Times,serif" font-size="14.00"> </text>
</g>
<!-- icepyx.core.spatial.Spatial&#45;&gt;icepyx.core.query.GenQuery -->
<g id="edge9" class="edge">
<title>icepyx.core.spatial.Spatial&#45;&gt;icepyx.core.query.GenQuery</title>
<path fill="none" stroke="black" d="M1694.2,-535.72C1688.45,-583.65 1672.69,-655.99 1629.5,-701 1582.23,-750.26 1504.36,-771.26 1451.32,-780.14"/>
<polygon fill="black" stroke="black" points="1451.26,-780.15 1445.95,-785.03 1439.41,-782 1444.72,-777.12 1451.26,-780.15"/>
<text text-anchor="middle" x="1642.5" y="-722.8" font-family="Times,serif" font-size="14.00" fill="green">_sp_extent</text>
</g>
<!-- icepyx.core.variables.Variables -->
<g id="node11" class="node">
<title>icepyx.core.variables.Variables</title>
<polygon fill="none" stroke="black" points="1166,-38 1166,-182 1541,-182 1541,-38 1166,-38"/>
<text text-anchor="middle" x="1353.5" y="-166.8" font-family="Times,serif" font-size="14.00">Variables</text>
<polyline fill="none" stroke="black" points="1166,-159 1541,-159 "/>
<text text-anchor="start" x="1174" y="-143.8" font-family="Times,serif" font-size="14.00">path : NoneType</text>
<text text-anchor="start" x="1174" y="-128.8" font-family="Times,serif" font-size="14.00">product : NoneType</text>
<text text-anchor="start" x="1174" y="-113.8" font-family="Times,serif" font-size="14.00">wanted : dict, NoneType</text>
<polyline fill="none" stroke="black" points="1166,-106 1541,-106 "/>
<text text-anchor="start" x="1174" y="-90.8" font-family="Times,serif" font-size="14.00">append(defaults, var_list, beam_list, keyword_list)</text>
<text text-anchor="start" x="1174" y="-75.8" font-family="Times,serif" font-size="14.00">avail(options, internal)</text>
<text text-anchor="start" x="1174" y="-60.8" font-family="Times,serif" font-size="14.00">parse_var_list(varlist, tiered, tiered_vars)</text>
<text text-anchor="start" x="1174" y="-45.8" font-family="Times,serif" font-size="14.00">remove(all, var_list, beam_list, keyword_list)</text>
</g>
<!-- icepyx.core.variables.Variables&#45;&gt;icepyx.core.query.Query -->
<g id="edge10" class="edge">
<title>icepyx.core.variables.Variables&#45;&gt;icepyx.core.query.Query</title>
<path fill="none" stroke="black" d="M1277.32,-182.33C1259.24,-200.1 1240.32,-219.39 1223.5,-238 1216.42,-245.83 1209.28,-253.89 1202.15,-262.08"/>
<polygon fill="black" stroke="black" points="1201.95,-262.31 1201.05,-269.47 1194.1,-271.39 1195,-264.23 1201.95,-262.31"/>
<text text-anchor="middle" x="1265.5" y="-241.8" font-family="Times,serif" font-size="14.00" fill="green">_order_vars</text>
</g>
<!-- icepyx.core.variables.Variables&#45;&gt;icepyx.core.query.Query -->
<g id="edge11" class="edge">
<title>icepyx.core.variables.Variables&#45;&gt;icepyx.core.query.Query</title>
<path fill="none" stroke="black" d="M1338.98,-182.14C1331.97,-206 1321.85,-231.89 1307.5,-253 1284.52,-286.81 1255.24,-318.34 1224.3,-346.57"/>
<polygon fill="black" stroke="black" points="1224.02,-346.82 1222.23,-353.81 1215.09,-354.84 1216.88,-347.85 1224.02,-346.82"/>
<text text-anchor="middle" x="1358.5" y="-241.8" font-family="Times,serif" font-size="14.00" fill="green">_order_vars</text>
</g>
<!-- icepyx.core.variables.Variables&#45;&gt;icepyx.core.query.Query -->
<g id="edge12" class="edge">
<title>icepyx.core.variables.Variables&#45;&gt;icepyx.core.query.Query</title>
<path fill="none" stroke="black" d="M1402.75,-182.35C1412.68,-205.6 1416.78,-231.06 1404.5,-253 1365.33,-323 1295.44,-374.45 1226.32,-410.85"/>
<polygon fill="black" stroke="black" points="1225.91,-411.07 1222.41,-417.37 1215.24,-416.57 1218.74,-410.26 1225.91,-411.07"/>
<text text-anchor="middle" x="1444" y="-241.8" font-family="Times,serif" font-size="14.00" fill="green">_file_vars</text>
</g>
<!-- icepyx.core.variables.Variables&#45;&gt;icepyx.core.read.Read -->
<g id="edge13" class="edge">
<title>icepyx.core.variables.Variables&#45;&gt;icepyx.core.read.Read</title>
<path fill="none" stroke="black" d="M1460.41,-182.1C1477.81,-198.42 1493.66,-217.19 1504.5,-238 1534.69,-295.97 1536.81,-372.06 1533.54,-424.39"/>
<polygon fill="black" stroke="black" points="1533.53,-424.52 1537.08,-430.8 1532.65,-436.49 1529.1,-430.22 1533.53,-424.52"/>
<text text-anchor="middle" x="1549" y="-241.8" font-family="Times,serif" font-size="14.00" fill="green">_read_vars</text>
</g>
<!-- icepyx.core.visualization.Visualize -->
<g id="node12" class="node">
<title>icepyx.core.visualization.Visualize</title>
<polygon fill="none" stroke="black" points="1911,-0.5 1911,-219.5 2240,-219.5 2240,-0.5 1911,-0.5"/>
<text text-anchor="middle" x="2075.5" y="-204.3" font-family="Times,serif" font-size="14.00">Visualize</text>
<polyline fill="none" stroke="black" points="1911,-196.5 2240,-196.5 "/>
<text text-anchor="start" x="1919" y="-181.3" font-family="Times,serif" font-size="14.00">bbox : list</text>
<text text-anchor="start" x="1919" y="-166.3" font-family="Times,serif" font-size="14.00">cycles : NoneType</text>
<text text-anchor="start" x="1919" y="-151.3" font-family="Times,serif" font-size="14.00">date_range : NoneType</text>
<text text-anchor="start" x="1919" y="-136.3" font-family="Times,serif" font-size="14.00">product : NoneType, str</text>
<text text-anchor="start" x="1919" y="-121.3" font-family="Times,serif" font-size="14.00">tracks : NoneType</text>
<polyline fill="none" stroke="black" points="1911,-113.5 2240,-113.5 "/>
<text text-anchor="start" x="1919" y="-98.3" font-family="Times,serif" font-size="14.00">generate_OA_parameters(): list</text>
<text text-anchor="start" x="1919" y="-83.3" font-family="Times,serif" font-size="14.00">grid_bbox(binsize): list</text>
<text text-anchor="start" x="1919" y="-68.3" font-family="Times,serif" font-size="14.00">make_request(base_url, payload)</text>
<text text-anchor="start" x="1919" y="-53.3" font-family="Times,serif" font-size="14.00">parallel_request_OA(): da.array</text>
<text text-anchor="start" x="1919" y="-38.3" font-family="Times,serif" font-size="14.00">query_icesat2_filelist(): tuple</text>
<text text-anchor="start" x="1919" y="-23.3" font-family="Times,serif" font-size="14.00">request_OA_data(paras): da.array</text>
<text text-anchor="start" x="1919" y="-8.3" font-family="Times,serif" font-size="14.00">viz_elevation(): (hv.DynamicMap, hv.Layout)</text>
</g>
</g>
</svg>
