<?xml version="1.0" encoding="UTF-8" standalone="no"?>
<!DOCTYPE svg PUBLIC "-//W3C//DTD SVG 1.1//EN"
 "http://www.w3.org/Graphics/SVG/1.1/DTD/svg11.dtd">
<!-- Generated by graphviz version 2.47.2 (0)
 -->
<!-- Title: classes_user_uml Pages: 1 -->
<svg width="1651pt" height="694pt"
 viewBox="0.00 0.00 1650.50 694.00" xmlns="http://www.w3.org/2000/svg" xmlns:xlink="http://www.w3.org/1999/xlink">
<g id="graph0" class="graph" transform="scale(1 1) rotate(0) translate(4 690)">
<title>classes_user_uml</title>
<polygon fill="white" stroke="transparent" points="-4,4 -4,-690 1646.5,-690 1646.5,4 -4,4"/>
<!-- 0 -->
<g id="node1" class="node">
<title>0</title>
<polygon fill="none" stroke="black" points="0,-38 0,-182 134,-182 134,-38 0,-38"/>
<text text-anchor="middle" x="67" y="-166.8" font-family="Times,serif" font-size="14.00">Earthdata</text>
<polyline fill="none" stroke="black" points="0,-159 134,-159 "/>
<text text-anchor="start" x="8" y="-143.8" font-family="Times,serif" font-size="14.00">capability_url</text>
<text text-anchor="start" x="8" y="-128.8" font-family="Times,serif" font-size="14.00">email</text>
<text text-anchor="start" x="8" y="-113.8" font-family="Times,serif" font-size="14.00">netrc : NoneType</text>
<text text-anchor="start" x="8" y="-98.8" font-family="Times,serif" font-size="14.00">pswd : NoneType, str</text>
<text text-anchor="start" x="8" y="-83.8" font-family="Times,serif" font-size="14.00">session : Session</text>
<text text-anchor="start" x="8" y="-68.8" font-family="Times,serif" font-size="14.00">uid</text>
<polyline fill="none" stroke="black" points="0,-61 134,-61 "/>
<text text-anchor="start" x="8" y="-45.8" font-family="Times,serif" font-size="14.00">login()</text>
</g>
<!-- 1 -->
<g id="node2" class="node">
<title>1</title>
<polygon fill="none" stroke="black" points="152,-53 152,-167 680,-167 680,-53 152,-53"/>
<text text-anchor="middle" x="416" y="-151.8" font-family="Times,serif" font-size="14.00">Granules</text>
<polyline fill="none" stroke="black" points="152,-144 680,-144 "/>
<text text-anchor="start" x="160" y="-128.8" font-family="Times,serif" font-size="14.00">avail : list</text>
<text text-anchor="start" x="160" y="-113.8" font-family="Times,serif" font-size="14.00">orderIDs : list</text>
<polyline fill="none" stroke="black" points="152,-106 680,-106 "/>
<text text-anchor="start" x="160" y="-90.8" font-family="Times,serif" font-size="14.00">download(verbose, path, session, restart)</text>
<text text-anchor="start" x="160" y="-75.8" font-family="Times,serif" font-size="14.00">get_avail(CMRparams, reqparams)</text>
<text text-anchor="start" x="160" y="-60.8" font-family="Times,serif" font-size="14.00">place_order(CMRparams, reqparams, subsetparams, verbose, subset, session, geom_filepath)</text>
</g>
<!-- 5 -->
<g id="node6" class="node">
<title>5</title>
<polygon fill="none" stroke="black" points="614.5,-271.5 614.5,-685.5 901.5,-685.5 901.5,-271.5 614.5,-271.5"/>
<text text-anchor="middle" x="758" y="-670.3" font-family="Times,serif" font-size="14.00">Query</text>
<polyline fill="none" stroke="black" points="614.5,-662.5 901.5,-662.5 "/>
<text text-anchor="start" x="622.5" y="-647.3" font-family="Times,serif" font-size="14.00">CMRparams</text>
<text text-anchor="start" x="622.5" y="-632.3" font-family="Times,serif" font-size="14.00">cycles</text>
<text text-anchor="start" x="622.5" y="-617.3" font-family="Times,serif" font-size="14.00">dataset</text>
<text text-anchor="start" x="622.5" y="-602.3" font-family="Times,serif" font-size="14.00">dataset_version</text>
<text text-anchor="start" x="622.5" y="-587.3" font-family="Times,serif" font-size="14.00">dates</text>
<text text-anchor="start" x="622.5" y="-572.3" font-family="Times,serif" font-size="14.00">end_time</text>
<text text-anchor="start" x="622.5" y="-557.3" font-family="Times,serif" font-size="14.00">extent_type : str</text>
<text text-anchor="start" x="622.5" y="-542.3" font-family="Times,serif" font-size="14.00">file_vars</text>
<text text-anchor="start" x="622.5" y="-527.3" font-family="Times,serif" font-size="14.00">granules</text>
<text text-anchor="start" x="622.5" y="-512.3" font-family="Times,serif" font-size="14.00">order_vars</text>
<text text-anchor="start" x="622.5" y="-497.3" font-family="Times,serif" font-size="14.00">reqparams</text>
<text text-anchor="start" x="622.5" y="-482.3" font-family="Times,serif" font-size="14.00">spatial_extent</text>
<text text-anchor="start" x="622.5" y="-467.3" font-family="Times,serif" font-size="14.00">start_time</text>
<text text-anchor="start" x="622.5" y="-452.3" font-family="Times,serif" font-size="14.00">tracks</text>
<polyline fill="none" stroke="black" points="614.5,-444.5 901.5,-444.5 "/>
<text text-anchor="start" x="622.5" y="-429.3" font-family="Times,serif" font-size="14.00">avail_granules(ids, cycles, tracks)</text>
<text text-anchor="start" x="622.5" y="-414.3" font-family="Times,serif" font-size="14.00">dataset_all_info()</text>
<text text-anchor="start" x="622.5" y="-399.3" font-family="Times,serif" font-size="14.00">dataset_summary_info()</text>
<text text-anchor="start" x="622.5" y="-384.3" font-family="Times,serif" font-size="14.00">download_granules(path, verbose, subset, restart)</text>
<text text-anchor="start" x="622.5" y="-369.3" font-family="Times,serif" font-size="14.00">earthdata_login(uid, email)</text>
<text text-anchor="start" x="622.5" y="-354.3" font-family="Times,serif" font-size="14.00">latest_version()</text>
<text text-anchor="start" x="622.5" y="-339.3" font-family="Times,serif" font-size="14.00">order_granules(verbose, subset, email)</text>
<text text-anchor="start" x="622.5" y="-324.3" font-family="Times,serif" font-size="14.00">show_custom_options(dictview)</text>
<text text-anchor="start" x="622.5" y="-309.3" font-family="Times,serif" font-size="14.00">subsetparams()</text>
<text text-anchor="start" x="622.5" y="-294.3" font-family="Times,serif" font-size="14.00">visualize_elevation()</text>
<text text-anchor="start" x="622.5" y="-279.3" font-family="Times,serif" font-size="14.00">visualize_spatial_extent()</text>
</g>
<!-- 1&#45;&gt;5 -->
<g id="edge2" class="edge">
<title>1&#45;&gt;5</title>
<path fill="none" stroke="black" d="M405.52,-167.05C403.18,-194.53 404.78,-227.19 419,-253 459.09,-325.78 533.98,-379.09 603.19,-415.45"/>
<polygon fill="black" stroke="black" points="603.57,-415.65 610.74,-414.84 614.24,-421.14 607.08,-421.95 603.57,-415.65"/>
<text text-anchor="middle" x="445.5" y="-241.8" font-family="Times,serif" font-size="14.00" fill="green">_granules</text>
</g>
<!-- 1&#45;&gt;5 -->
<g id="edge3" class="edge">
<title>1&#45;&gt;5</title>
<path fill="none" stroke="black" d="M446.63,-167.07C462.67,-194.25 483.61,-226.64 506,-253 535.68,-287.95 570.76,-322.51 605.17,-353.66"/>
<polygon fill="black" stroke="black" points="605.45,-353.91 612.58,-354.94 614.37,-361.92 607.24,-360.89 605.45,-353.91"/>
<text text-anchor="middle" x="532.5" y="-241.8" font-family="Times,serif" font-size="14.00" fill="green">_granules</text>
</g>
<!-- 2 -->
<g id="node3" class="node">
<title>2</title>
<polygon fill="none" stroke="black" points="1219,-75 1219,-145 1299,-145 1299,-75 1219,-75"/>
<text text-anchor="middle" x="1259" y="-129.8" font-family="Times,serif" font-size="14.00">Icesat2Data</text>
<polyline fill="none" stroke="black" points="1219,-122 1299,-122 "/>
<polyline fill="none" stroke="black" points="1219,-98 1299,-98 "/>
<text text-anchor="middle" x="1259" y="-82.8" font-family="Times,serif" font-size="14.00"> </text>
</g>
<!-- 3 -->
<g id="node4" class="node">
<title>3</title>
<polygon fill="none" stroke="black" points="1317,-68 1317,-152 1427,-152 1427,-68 1317,-68"/>
<text text-anchor="middle" x="1372" y="-136.8" font-family="Times,serif" font-size="14.00" fill="red">NsidcQueryError</text>
<polyline fill="none" stroke="black" points="1317,-129 1427,-129 "/>
<text text-anchor="start" x="1325" y="-113.8" font-family="Times,serif" font-size="14.00" fill="red">errmsg</text>
<text text-anchor="start" x="1325" y="-98.8" font-family="Times,serif" font-size="14.00" fill="red">msgtxt : str</text>
<polyline fill="none" stroke="black" points="1317,-91 1427,-91 "/>
<text text-anchor="middle" x="1372" y="-75.8" font-family="Times,serif" font-size="14.00" fill="red"> </text>
</g>
<!-- 6 -->
<g id="node7" class="node">
<title>6</title>
<polygon fill="none" stroke="black" points="1332.5,-443.5 1332.5,-513.5 1411.5,-513.5 1411.5,-443.5 1332.5,-443.5"/>
<text text-anchor="middle" x="1372" y="-498.3" font-family="Times,serif" font-size="14.00" fill="red">QueryError</text>
<polyline fill="none" stroke="black" points="1332.5,-490.5 1411.5,-490.5 "/>
<polyline fill="none" stroke="black" points="1332.5,-466.5 1411.5,-466.5 "/>
<text text-anchor="middle" x="1372" y="-451.3" font-family="Times,serif" font-size="14.00" fill="red"> </text>
</g>
<!-- 3&#45;&gt;6 -->
<g id="edge1" class="edge">
<title>3&#45;&gt;6</title>
<path fill="none" stroke="black" d="M1372,-152.33C1372,-221.92 1372,-361.86 1372,-433.32"/>
<polygon fill="none" stroke="black" points="1368.5,-433.35 1372,-443.35 1375.5,-433.35 1368.5,-433.35"/>
</g>
<!-- 4 -->
<g id="node5" class="node">
<title>4</title>
<polygon fill="none" stroke="black" points="698,-45.5 698,-174.5 820,-174.5 820,-45.5 698,-45.5"/>
<text text-anchor="middle" x="759" y="-159.3" font-family="Times,serif" font-size="14.00">Parameters</text>
<polyline fill="none" stroke="black" points="698,-151.5 820,-151.5 "/>
<text text-anchor="start" x="706" y="-136.3" font-family="Times,serif" font-size="14.00">fmted_keys</text>
<text text-anchor="start" x="706" y="-121.3" font-family="Times,serif" font-size="14.00">partype</text>
<text text-anchor="start" x="706" y="-106.3" font-family="Times,serif" font-size="14.00">poss_keys</text>
<polyline fill="none" stroke="black" points="698,-98.5 820,-98.5 "/>
<text text-anchor="start" x="706" y="-83.3" font-family="Times,serif" font-size="14.00">build_params()</text>
<text text-anchor="start" x="706" y="-68.3" font-family="Times,serif" font-size="14.00">check_req_values()</text>
<text text-anchor="start" x="706" y="-53.3" font-family="Times,serif" font-size="14.00">check_values()</text>
</g>
<!-- 4&#45;&gt;5 -->
<g id="edge4" class="edge">
<title>4&#45;&gt;5</title>
<path fill="none" stroke="black" d="M730.64,-174.59C719.98,-191.87 706.17,-208.86 689,-220 644.5,-248.88 605.57,-197.76 571,-238 533.94,-281.14 561.26,-330.42 605.31,-373.02"/>
<polygon fill="black" stroke="black" points="605.56,-373.26 612.68,-374.43 614.33,-381.45 607.21,-380.28 605.56,-373.26"/>
<text text-anchor="middle" x="610" y="-241.8" font-family="Times,serif" font-size="14.00" fill="green">_CMRparams</text>
</g>
<!-- 4&#45;&gt;5 -->
<g id="edge5" class="edge">
<title>4&#45;&gt;5</title>
<path fill="none" stroke="black" d="M720.95,-174.63C711.08,-189.87 700.09,-205.83 689,-220 682.22,-228.67 676.07,-227.77 672,-238 669.2,-245.05 667.15,-252.24 665.79,-259.51"/>
<polygon fill="black" stroke="black" points="665.79,-259.51 668.93,-266 664.15,-271.4 661,-264.91 665.79,-259.51"/>
<text text-anchor="middle" x="704" y="-241.8" font-family="Times,serif" font-size="14.00" fill="green">_reqparams</text>
</g>
<!-- 4&#45;&gt;5 -->
<g id="edge6" class="edge">
<title>4&#45;&gt;5</title>
<path fill="none" stroke="black" d="M758.83,-174.84C758.76,-199.1 758.68,-228.31 758.6,-258.88"/>
<polygon fill="black" stroke="black" points="758.6,-259.12 762.58,-265.13 758.56,-271.12 754.58,-265.11 758.6,-259.12"/>
<text text-anchor="middle" x="799.5" y="-241.8" font-family="Times,serif" font-size="14.00" fill="green">_subsetparams</text>
</g>
<!-- 4&#45;&gt;5 -->
<g id="edge7" class="edge">
<title>4&#45;&gt;5</title>
<path fill="none" stroke="black" d="M809.54,-174.75C821.97,-194 833.55,-215.91 840,-238 842.05,-245.03 843.49,-252.15 844.38,-259.34"/>
<polygon fill="black" stroke="black" points="844.39,-259.51 848.88,-265.16 845.38,-271.47 840.9,-265.82 844.39,-259.51"/>
<text text-anchor="middle" x="884.5" y="-241.8" font-family="Times,serif" font-size="14.00" fill="green">_subsetparams</text>
</g>
<!-- 7 -->
<g id="node8" class="node">
<title>7</title>
<polygon fill="none" stroke="black" points="907,-38 907,-182 1201,-182 1201,-38 907,-38"/>
<text text-anchor="middle" x="1054" y="-166.8" font-family="Times,serif" font-size="14.00">Variables</text>
<polyline fill="none" stroke="black" points="907,-159 1201,-159 "/>
<text text-anchor="start" x="915" y="-143.8" font-family="Times,serif" font-size="14.00">dataset : NoneType</text>
<text text-anchor="start" x="915" y="-128.8" font-family="Times,serif" font-size="14.00">source : NoneType</text>
<text text-anchor="start" x="915" y="-113.8" font-family="Times,serif" font-size="14.00">wanted : NoneType, dict</text>
<polyline fill="none" stroke="black" points="907,-106 1201,-106 "/>
<text text-anchor="start" x="915" y="-90.8" font-family="Times,serif" font-size="14.00">append(defaults, var_list, beam_list, keyword_list)</text>
<text text-anchor="start" x="915" y="-75.8" font-family="Times,serif" font-size="14.00">avail(options, internal)</text>
<text text-anchor="start" x="915" y="-60.8" font-family="Times,serif" font-size="14.00">parse_var_list(varlist)</text>
<text text-anchor="start" x="915" y="-45.8" font-family="Times,serif" font-size="14.00">remove(all, var_list, beam_list, keyword_list)</text>
</g>
<!-- 7&#45;&gt;5 -->
<g id="edge8" class="edge">
<title>7&#45;&gt;5</title>
<path fill="none" stroke="black" d="M996.58,-182.1C971.39,-213.28 940.52,-251.51 909.45,-289.98"/>
<polygon fill="black" stroke="black" points="909.08,-290.43 908.43,-297.61 901.54,-299.77 902.2,-292.59 909.08,-290.43"/>
<text text-anchor="middle" x="982.5" y="-241.8" font-family="Times,serif" font-size="14.00" fill="green">_order_vars</text>
</g>
<!-- 7&#45;&gt;5 -->
<g id="edge9" class="edge">
<title>7&#45;&gt;5</title>
<path fill="none" stroke="black" d="M1045.35,-182.28C1040.21,-206.02 1032.03,-231.8 1019,-253 991.2,-298.23 951.27,-339.11 910.97,-373.2"/>
<polygon fill="black" stroke="black" points="910.77,-373.36 908.72,-380.28 901.55,-381.04 903.6,-374.13 910.77,-373.36"/>
<text text-anchor="middle" x="1059.5" y="-241.8" font-family="Times,serif" font-size="14.00" fill="green">_order_vars</text>
</g>
<!-- 7&#45;&gt;5 -->
<g id="edge10" class="edge">
<title>7&#45;&gt;5</title>
<path fill="none" stroke="black" d="M1096.25,-182.22C1104.64,-205.58 1107.72,-231.14 1096,-253 1056.73,-326.22 981.91,-379.62 912.62,-415.93"/>
<polygon fill="black" stroke="black" points="912.23,-416.13 908.72,-422.43 901.56,-421.61 905.07,-415.31 912.23,-416.13"/>
<text text-anchor="middle" x="1129" y="-241.8" font-family="Times,serif" font-size="14.00" fill="green">_file_vars</text>
</g>
<!-- 8 -->
<g id="node9" class="node">
<title>8</title>
<polygon fill="none" stroke="black" points="1445.5,-0.5 1445.5,-219.5 1642.5,-219.5 1642.5,-0.5 1445.5,-0.5"/>
<text text-anchor="middle" x="1544" y="-204.3" font-family="Times,serif" font-size="14.00">Visualize</text>
<polyline fill="none" stroke="black" points="1445.5,-196.5 1642.5,-196.5 "/>
<text text-anchor="start" x="1453.5" y="-181.3" font-family="Times,serif" font-size="14.00">bbox : list</text>
<text text-anchor="start" x="1453.5" y="-166.3" font-family="Times,serif" font-size="14.00">cycles : NoneType</text>
<text text-anchor="start" x="1453.5" y="-151.3" font-family="Times,serif" font-size="14.00">date_range : NoneType</text>
<text text-anchor="start" x="1453.5" y="-136.3" font-family="Times,serif" font-size="14.00">product : NoneType, str</text>
<text text-anchor="start" x="1453.5" y="-121.3" font-family="Times,serif" font-size="14.00">tracks : NoneType</text>
<polyline fill="none" stroke="black" points="1445.5,-113.5 1642.5,-113.5 "/>
<text text-anchor="start" x="1453.5" y="-98.3" font-family="Times,serif" font-size="14.00">generate_OA_parameters()</text>
<text text-anchor="start" x="1453.5" y="-83.3" font-family="Times,serif" font-size="14.00">grid_bbox(binsize)</text>
<text text-anchor="start" x="1453.5" y="-68.3" font-family="Times,serif" font-size="14.00">make_request(base_url, payload)</text>
<text text-anchor="start" x="1453.5" y="-53.3" font-family="Times,serif" font-size="14.00">parallel_request_OA()</text>
<text text-anchor="start" x="1453.5" y="-38.3" font-family="Times,serif" font-size="14.00">query_icesat2_filelist()</text>
<text text-anchor="start" x="1453.5" y="-23.3" font-family="Times,serif" font-size="14.00">request_OA_data(paras)</text>
<text text-anchor="start" x="1453.5" y="-8.3" font-family="Times,serif" font-size="14.00">viz_elevation()</text>
</g>
</g>
</svg>
