<?xml version="1.0" encoding="UTF-8" standalone="no"?>
<!DOCTYPE svg PUBLIC "-//W3C//DTD SVG 1.1//EN"
 "http://www.w3.org/Graphics/SVG/1.1/DTD/svg11.dtd">
<!-- Generated by graphviz version 2.43.0 (0)
 -->
<!-- Title: classes_user_uml Pages: 1 -->
<svg width="2126pt" height="801pt"
 viewBox="0.00 0.00 2126.00 801.00" xmlns="http://www.w3.org/2000/svg" xmlns:xlink="http://www.w3.org/1999/xlink">
<g id="graph0" class="graph" transform="scale(1 1) rotate(0) translate(4 797)">
<title>classes_user_uml</title>
<polygon fill="white" stroke="transparent" points="-4,4 -4,-797 2122,-797 2122,4 -4,4"/>
<!-- icepyx.core.Earthdata.Earthdata -->
<g id="node1" class="node">
<title>icepyx.core.Earthdata.Earthdata</title>
<polygon fill="none" stroke="black" points="0,-38 0,-182 167,-182 167,-38 0,-38"/>
<text text-anchor="middle" x="83.5" y="-166.8" font-family="Times,serif" font-size="14.00">Earthdata</text>
<polyline fill="none" stroke="black" points="0,-159 167,-159 "/>
<text text-anchor="start" x="8" y="-143.8" font-family="Times,serif" font-size="14.00">capability_url</text>
<text text-anchor="start" x="8" y="-128.8" font-family="Times,serif" font-size="14.00">email</text>
<text text-anchor="start" x="8" y="-113.8" font-family="Times,serif" font-size="14.00">netrc : NoneType</text>
<text text-anchor="start" x="8" y="-98.8" font-family="Times,serif" font-size="14.00">pswd : str, NoneType</text>
<text text-anchor="start" x="8" y="-83.8" font-family="Times,serif" font-size="14.00">session : Session</text>
<text text-anchor="start" x="8" y="-68.8" font-family="Times,serif" font-size="14.00">uid</text>
<polyline fill="none" stroke="black" points="0,-61 167,-61 "/>
<text text-anchor="start" x="8" y="-45.8" font-family="Times,serif" font-size="14.00">login(attempts)</text>
</g>
<!-- icepyx.core.query.GenQuery -->
<g id="node2" class="node">
<title>icepyx.core.query.GenQuery</title>
<polygon fill="none" stroke="black" points="893.5,-723.5 893.5,-792.5 1027.5,-792.5 1027.5,-723.5 893.5,-723.5"/>
<text text-anchor="middle" x="960.5" y="-777.3" font-family="Times,serif" font-size="14.00">GenQuery</text>
<polyline fill="none" stroke="black" points="893.5,-769.5 1027.5,-769.5 "/>
<text text-anchor="start" x="901.5" y="-754.3" font-family="Times,serif" font-size="14.00">extent_type : str</text>
<polyline fill="none" stroke="black" points="893.5,-746.5 1027.5,-746.5 "/>
<text text-anchor="middle" x="960.5" y="-731.3" font-family="Times,serif" font-size="14.00"> </text>
</g>
<!-- icepyx.core.granules.Granules -->
<g id="node3" class="node">
<title>icepyx.core.granules.Granules</title>
<polygon fill="none" stroke="black" points="184.5,-53 184.5,-167 870.5,-167 870.5,-53 184.5,-53"/>
<text text-anchor="middle" x="527.5" y="-151.8" font-family="Times,serif" font-size="14.00">Granules</text>
<polyline fill="none" stroke="black" points="184.5,-144 870.5,-144 "/>
<text text-anchor="start" x="192.5" y="-128.8" font-family="Times,serif" font-size="14.00">avail : list</text>
<text text-anchor="start" x="192.5" y="-113.8" font-family="Times,serif" font-size="14.00">orderIDs : list</text>
<polyline fill="none" stroke="black" points="184.5,-106 870.5,-106 "/>
<text text-anchor="start" x="192.5" y="-90.8" font-family="Times,serif" font-size="14.00">download(verbose, path, session, restart)</text>
<text text-anchor="start" x="192.5" y="-75.8" font-family="Times,serif" font-size="14.00">get_avail(CMRparams, reqparams)</text>
<text text-anchor="start" x="192.5" y="-60.8" font-family="Times,serif" font-size="14.00">place_order(CMRparams, reqparams, subsetparams, verbose, subset, session, geom_filepath)</text>
</g>
<!-- icepyx.core.query.Query -->
<g id="node7" class="node">
<title>icepyx.core.query.Query</title>
<polygon fill="none" stroke="black" points="772,-271.5 772,-685.5 1149,-685.5 1149,-271.5 772,-271.5"/>
<text text-anchor="middle" x="960.5" y="-670.3" font-family="Times,serif" font-size="14.00">Query</text>
<polyline fill="none" stroke="black" points="772,-662.5 1149,-662.5 "/>
<text text-anchor="start" x="780" y="-647.3" font-family="Times,serif" font-size="14.00">CMRparams</text>
<text text-anchor="start" x="780" y="-632.3" font-family="Times,serif" font-size="14.00">cycles</text>
<text text-anchor="start" x="780" y="-617.3" font-family="Times,serif" font-size="14.00">dataset</text>
<text text-anchor="start" x="780" y="-602.3" font-family="Times,serif" font-size="14.00">dates</text>
<text text-anchor="start" x="780" y="-587.3" font-family="Times,serif" font-size="14.00">end_time</text>
<text text-anchor="start" x="780" y="-572.3" font-family="Times,serif" font-size="14.00">file_vars</text>
<text text-anchor="start" x="780" y="-557.3" font-family="Times,serif" font-size="14.00">granules</text>
<text text-anchor="start" x="780" y="-542.3" font-family="Times,serif" font-size="14.00">order_vars</text>
<text text-anchor="start" x="780" y="-527.3" font-family="Times,serif" font-size="14.00">product</text>
<text text-anchor="start" x="780" y="-512.3" font-family="Times,serif" font-size="14.00">product_version</text>
<text text-anchor="start" x="780" y="-497.3" font-family="Times,serif" font-size="14.00">reqparams</text>
<text text-anchor="start" x="780" y="-482.3" font-family="Times,serif" font-size="14.00">spatial_extent</text>
<text text-anchor="start" x="780" y="-467.3" font-family="Times,serif" font-size="14.00">start_time</text>
<text text-anchor="start" x="780" y="-452.3" font-family="Times,serif" font-size="14.00">tracks</text>
<polyline fill="none" stroke="black" points="772,-444.5 1149,-444.5 "/>
<text text-anchor="start" x="780" y="-429.3" font-family="Times,serif" font-size="14.00">avail_granules(ids, cycles, tracks, s3urls)</text>
<text text-anchor="start" x="780" y="-414.3" font-family="Times,serif" font-size="14.00">download_granules(path, verbose, subset, restart)</text>
<text text-anchor="start" x="780" y="-399.3" font-family="Times,serif" font-size="14.00">earthdata_login(uid, email, s3token)</text>
<text text-anchor="start" x="780" y="-384.3" font-family="Times,serif" font-size="14.00">latest_version()</text>
<text text-anchor="start" x="780" y="-369.3" font-family="Times,serif" font-size="14.00">order_granules(verbose, subset, email)</text>
<text text-anchor="start" x="780" y="-354.3" font-family="Times,serif" font-size="14.00">product_all_info()</text>
<text text-anchor="start" x="780" y="-339.3" font-family="Times,serif" font-size="14.00">product_summary_info()</text>
<text text-anchor="start" x="780" y="-324.3" font-family="Times,serif" font-size="14.00">show_custom_options(dictview)</text>
<text text-anchor="start" x="780" y="-309.3" font-family="Times,serif" font-size="14.00">subsetparams()</text>
<text text-anchor="start" x="780" y="-294.3" font-family="Times,serif" font-size="14.00">visualize_elevation()</text>
<text text-anchor="start" x="780" y="-279.3" font-family="Times,serif" font-size="14.00">visualize_spatial_extent()</text>
</g>
<!-- icepyx.core.granules.Granules&#45;&gt;icepyx.core.query.Query -->
<g id="edge7" class="edge">
<title>icepyx.core.granules.Granules&#45;&gt;icepyx.core.query.Query</title>
<path fill="none" stroke="black" d="M523.06,-167.12C523.56,-195.11 528.51,-228.19 545.5,-253 596.73,-327.8 681.22,-379.88 760.64,-414.91"/>
<polygon fill="black" stroke="black" points="760.8,-414.97 767.89,-413.68 771.81,-419.74 764.72,-421.03 760.8,-414.97"/>
<text text-anchor="middle" x="580.5" y="-241.8" font-family="Times,serif" font-size="14.00" fill="green">_granules</text>
</g>
<!-- icepyx.core.granules.Granules&#45;&gt;icepyx.core.query.Query -->
<g id="edge8" class="edge">
<title>icepyx.core.granules.Granules&#45;&gt;icepyx.core.query.Query</title>
<path fill="none" stroke="black" d="M571.62,-167.24C594.18,-194.46 622.88,-226.83 651.5,-253 685.68,-284.25 724.2,-315.15 762.15,-343.57"/>
<polygon fill="black" stroke="black" points="762.16,-343.58 769.36,-343.95 771.79,-350.74 764.59,-350.37 762.16,-343.58"/>
<text text-anchor="middle" x="686.5" y="-241.8" font-family="Times,serif" font-size="14.00" fill="green">_granules</text>
</g>
<!-- icepyx.core.icesat2data.Icesat2Data -->
<g id="node4" class="node">
<title>icepyx.core.icesat2data.Icesat2Data</title>
<polygon fill="none" stroke="black" points="1588.5,-75 1588.5,-145 1690.5,-145 1690.5,-75 1588.5,-75"/>
<text text-anchor="middle" x="1639.5" y="-129.8" font-family="Times,serif" font-size="14.00">Icesat2Data</text>
<polyline fill="none" stroke="black" points="1588.5,-122 1690.5,-122 "/>
<polyline fill="none" stroke="black" points="1588.5,-98 1690.5,-98 "/>
<text text-anchor="middle" x="1639.5" y="-82.8" font-family="Times,serif" font-size="14.00"> </text>
</g>
<!-- icepyx.core.exceptions.NsidcQueryError -->
<g id="node5" class="node">
<title>icepyx.core.exceptions.NsidcQueryError</title>
<polygon fill="none" stroke="black" points="1708.5,-68 1708.5,-152 1848.5,-152 1848.5,-68 1708.5,-68"/>
<text text-anchor="middle" x="1778.5" y="-136.8" font-family="Times,serif" font-size="14.00" fill="red">NsidcQueryError</text>
<polyline fill="none" stroke="black" points="1708.5,-129 1848.5,-129 "/>
<text text-anchor="start" x="1716.5" y="-113.8" font-family="Times,serif" font-size="14.00" fill="red">errmsg</text>
<text text-anchor="start" x="1716.5" y="-98.8" font-family="Times,serif" font-size="14.00" fill="red">msgtxt : str</text>
<polyline fill="none" stroke="black" points="1708.5,-91 1848.5,-91 "/>
<text text-anchor="middle" x="1778.5" y="-75.8" font-family="Times,serif" font-size="14.00" fill="red"> </text>
</g>
<!-- icepyx.core.exceptions.QueryError -->
<g id="node8" class="node">
<title>icepyx.core.exceptions.QueryError</title>
<polygon fill="none" stroke="black" points="1729,-443.5 1729,-513.5 1828,-513.5 1828,-443.5 1729,-443.5"/>
<text text-anchor="middle" x="1778.5" y="-498.3" font-family="Times,serif" font-size="14.00" fill="red">QueryError</text>
<polyline fill="none" stroke="black" points="1729,-490.5 1828,-490.5 "/>
<polyline fill="none" stroke="black" points="1729,-466.5 1828,-466.5 "/>
<text text-anchor="middle" x="1778.5" y="-451.3" font-family="Times,serif" font-size="14.00" fill="red"> </text>
</g>
<!-- icepyx.core.exceptions.NsidcQueryError&#45;&gt;icepyx.core.exceptions.QueryError -->
<g id="edge1" class="edge">
<title>icepyx.core.exceptions.NsidcQueryError&#45;&gt;icepyx.core.exceptions.QueryError</title>
<path fill="none" stroke="black" d="M1778.5,-152.33C1778.5,-221.92 1778.5,-361.86 1778.5,-433.32"/>
<polygon fill="none" stroke="black" points="1775,-433.35 1778.5,-443.35 1782,-433.35 1775,-433.35"/>
</g>
<!-- icepyx.core.APIformatting.Parameters -->
<g id="node6" class="node">
<title>icepyx.core.APIformatting.Parameters</title>
<polygon fill="none" stroke="black" points="888,-45.5 888,-174.5 1039,-174.5 1039,-45.5 888,-45.5"/>
<text text-anchor="middle" x="963.5" y="-159.3" font-family="Times,serif" font-size="14.00">Parameters</text>
<polyline fill="none" stroke="black" points="888,-151.5 1039,-151.5 "/>
<text text-anchor="start" x="896" y="-136.3" font-family="Times,serif" font-size="14.00">fmted_keys</text>
<text text-anchor="start" x="896" y="-121.3" font-family="Times,serif" font-size="14.00">partype</text>
<text text-anchor="start" x="896" y="-106.3" font-family="Times,serif" font-size="14.00">poss_keys</text>
<polyline fill="none" stroke="black" points="888,-98.5 1039,-98.5 "/>
<text text-anchor="start" x="896" y="-83.3" font-family="Times,serif" font-size="14.00">build_params()</text>
<text text-anchor="start" x="896" y="-68.3" font-family="Times,serif" font-size="14.00">check_req_values()</text>
<text text-anchor="start" x="896" y="-53.3" font-family="Times,serif" font-size="14.00">check_values()</text>
</g>
<!-- icepyx.core.APIformatting.Parameters&#45;&gt;icepyx.core.query.Query -->
<g id="edge3" class="edge">
<title>icepyx.core.APIformatting.Parameters&#45;&gt;icepyx.core.query.Query</title>
<path fill="none" stroke="black" d="M927.54,-174.75C914.63,-192.14 898.48,-209.16 879.5,-220 851.3,-236.1 756,-213.67 734.5,-238 698.29,-278.98 720.7,-322.78 762.97,-361.56"/>
<polygon fill="black" stroke="black" points="762.98,-361.57 770.12,-362.54 771.98,-369.51 764.83,-368.54 762.98,-361.57"/>
<text text-anchor="middle" x="782.5" y="-241.8" font-family="Times,serif" font-size="14.00" fill="green">_CMRparams</text>
</g>
<!-- icepyx.core.APIformatting.Parameters&#45;&gt;icepyx.core.query.Query -->
<g id="edge4" class="edge">
<title>icepyx.core.APIformatting.Parameters&#45;&gt;icepyx.core.query.Query</title>
<path fill="none" stroke="black" d="M919.74,-174.63C907.59,-190.28 893.79,-206.42 879.5,-220 869.31,-229.68 860.02,-225.55 853.5,-238 849.83,-245 847.16,-252.15 845.35,-259.39"/>
<polygon fill="black" stroke="black" points="845.34,-259.46 848.18,-266.08 843.16,-271.26 840.31,-264.63 845.34,-259.46"/>
<text text-anchor="middle" x="896" y="-241.8" font-family="Times,serif" font-size="14.00" fill="green">_reqparams</text>
</g>
<!-- icepyx.core.APIformatting.Parameters&#45;&gt;icepyx.core.query.Query -->
<g id="edge5" class="edge">
<title>icepyx.core.APIformatting.Parameters&#45;&gt;icepyx.core.query.Query</title>
<path fill="none" stroke="black" d="M962.35,-174.63C962.03,-194.88 961.71,-217.38 961.5,-238 961.43,-244.99 961.37,-252.1 961.31,-259.28"/>
<polygon fill="black" stroke="black" points="961.3,-259.41 965.26,-265.44 961.21,-271.41 957.26,-265.38 961.3,-259.41"/>
<text text-anchor="middle" x="1015.5" y="-241.8" font-family="Times,serif" font-size="14.00" fill="green">_subsetparams</text>
</g>
<!-- icepyx.core.APIformatting.Parameters&#45;&gt;icepyx.core.query.Query -->
<g id="edge6" class="edge">
<title>icepyx.core.APIformatting.Parameters&#45;&gt;icepyx.core.query.Query</title>
<path fill="none" stroke="black" d="M1039.13,-169.1C1060.67,-192.82 1076.63,-221.97 1069.5,-253 1068.99,-255.2 1068.46,-257.4 1067.91,-259.61"/>
<polygon fill="black" stroke="black" points="1067.85,-259.84 1070.15,-266.67 1064.73,-271.43 1062.43,-264.59 1067.85,-259.84"/>
<text text-anchor="middle" x="1125.5" y="-241.8" font-family="Times,serif" font-size="14.00" fill="green">_subsetparams</text>
</g>
<!-- icepyx.core.query.Query&#45;&gt;icepyx.core.query.GenQuery -->
<g id="edge2" class="edge">
<title>icepyx.core.query.Query&#45;&gt;icepyx.core.query.GenQuery</title>
<path fill="none" stroke="black" d="M960.5,-685.54C960.5,-695.42 960.5,-704.69 960.5,-713.08"/>
<polygon fill="none" stroke="black" points="957,-713.22 960.5,-723.22 964,-713.22 957,-713.22"/>
</g>
<!-- icepyx.core.read.Read -->
<g id="node9" class="node">
<title>icepyx.core.read.Read</title>
<polygon fill="none" stroke="black" points="1432.5,-429 1432.5,-528 1620.5,-528 1620.5,-429 1432.5,-429"/>
<text text-anchor="middle" x="1526.5" y="-512.8" font-family="Times,serif" font-size="14.00">Read</text>
<polyline fill="none" stroke="black" points="1432.5,-505 1620.5,-505 "/>
<text text-anchor="start" x="1440.5" y="-489.8" font-family="Times,serif" font-size="14.00">data_source : NoneType</text>
<text text-anchor="start" x="1440.5" y="-474.8" font-family="Times,serif" font-size="14.00">is2catalog</text>
<text text-anchor="start" x="1440.5" y="-459.8" font-family="Times,serif" font-size="14.00">vars</text>
<polyline fill="none" stroke="black" points="1432.5,-452 1620.5,-452 "/>
<text text-anchor="start" x="1440.5" y="-436.8" font-family="Times,serif" font-size="14.00">load()</text>
</g>
<!-- icepyx.core.variables.Variables -->
<g id="node10" class="node">
<title>icepyx.core.variables.Variables</title>
<polygon fill="none" stroke="black" points="1195,-38 1195,-182 1570,-182 1570,-38 1195,-38"/>
<text text-anchor="middle" x="1382.5" y="-166.8" font-family="Times,serif" font-size="14.00">Variables</text>
<polyline fill="none" stroke="black" points="1195,-159 1570,-159 "/>
<text text-anchor="start" x="1203" y="-143.8" font-family="Times,serif" font-size="14.00">path : NoneType</text>
<text text-anchor="start" x="1203" y="-128.8" font-family="Times,serif" font-size="14.00">product : NoneType</text>
<text text-anchor="start" x="1203" y="-113.8" font-family="Times,serif" font-size="14.00">wanted : NoneType, dict</text>
<polyline fill="none" stroke="black" points="1195,-106 1570,-106 "/>
<text text-anchor="start" x="1203" y="-90.8" font-family="Times,serif" font-size="14.00">append(defaults, var_list, beam_list, keyword_list)</text>
<text text-anchor="start" x="1203" y="-75.8" font-family="Times,serif" font-size="14.00">avail(options, internal)</text>
<text text-anchor="start" x="1203" y="-60.8" font-family="Times,serif" font-size="14.00">parse_var_list(varlist, tiered)</text>
<text text-anchor="start" x="1203" y="-45.8" font-family="Times,serif" font-size="14.00">remove(all, var_list, beam_list, keyword_list)</text>
</g>
<!-- icepyx.core.variables.Variables&#45;&gt;icepyx.core.query.Query -->
<g id="edge9" class="edge">
<title>icepyx.core.variables.Variables&#45;&gt;icepyx.core.query.Query</title>
<path fill="none" stroke="black" d="M1291.28,-182.2C1268.89,-200.13 1245.14,-219.54 1223.5,-238 1202.13,-256.23 1180.05,-275.54 1158.19,-294.98"/>
<polygon fill="black" stroke="black" points="1158.13,-295.03 1156.31,-302.01 1149.17,-303.02 1150.99,-296.04 1158.13,-295.03"/>
<text text-anchor="middle" x="1265.5" y="-241.8" font-family="Times,serif" font-size="14.00" fill="green">_order_vars</text>
</g>
<!-- icepyx.core.variables.Variables&#45;&gt;icepyx.core.query.Query -->
<g id="edge10" class="edge">
<title>icepyx.core.variables.Variables&#45;&gt;icepyx.core.query.Query</title>
<path fill="none" stroke="black" d="M1353.86,-182.02C1341.89,-206.27 1326.32,-232.43 1307.5,-253 1265.37,-299.02 1211.83,-339.68 1159.49,-373.31"/>
<polygon fill="black" stroke="black" points="1159.17,-373.51 1156.25,-380.1 1149.04,-379.94 1151.96,-373.35 1159.17,-373.51"/>
<text text-anchor="middle" x="1361.5" y="-241.8" font-family="Times,serif" font-size="14.00" fill="green">_order_vars</text>
</g>
<!-- icepyx.core.variables.Variables&#45;&gt;icepyx.core.query.Query -->
<g id="edge11" class="edge">
<title>icepyx.core.variables.Variables&#45;&gt;icepyx.core.query.Query</title>
<path fill="none" stroke="black" d="M1413.94,-182.28C1419.73,-206.16 1420.44,-232.01 1407.5,-253 1353.18,-341.07 1252.58,-395.79 1160.56,-429.13"/>
<polygon fill="black" stroke="black" points="1160.41,-429.19 1156.09,-434.96 1149.1,-433.19 1153.42,-427.42 1160.41,-429.19"/>
<text text-anchor="middle" x="1448" y="-241.8" font-family="Times,serif" font-size="14.00" fill="green">_file_vars</text>
</g>
<!-- icepyx.core.variables.Variables&#45;&gt;icepyx.core.read.Read -->
<g id="edge12" class="edge">
<title>icepyx.core.variables.Variables&#45;&gt;icepyx.core.read.Read</title>
<path fill="none" stroke="black" d="M1466.49,-182.13C1481.51,-198.91 1495.29,-217.84 1504.5,-238 1530.33,-294.55 1533.56,-366.33 1531.73,-416.5"/>
<polygon fill="black" stroke="black" points="1531.72,-416.78 1535.44,-422.95 1531.17,-428.76 1527.45,-422.59 1531.72,-416.78"/>
<text text-anchor="middle" x="1549" y="-241.8" font-family="Times,serif" font-size="14.00" fill="green">_read_vars</text>
</g>
<!-- icepyx.core.visualization.Visualize -->
<g id="node11" class="node">
<title>icepyx.core.visualization.Visualize</title>
<polygon fill="none" stroke="black" points="1867,-0.5 1867,-219.5 2118,-219.5 2118,-0.5 1867,-0.5"/>
<text text-anchor="middle" x="1992.5" y="-204.3" font-family="Times,serif" font-size="14.00">Visualize</text>
<polyline fill="none" stroke="black" points="1867,-196.5 2118,-196.5 "/>
<text text-anchor="start" x="1875" y="-181.3" font-family="Times,serif" font-size="14.00">bbox : list</text>
<text text-anchor="start" x="1875" y="-166.3" font-family="Times,serif" font-size="14.00">cycles : NoneType</text>
<text text-anchor="start" x="1875" y="-151.3" font-family="Times,serif" font-size="14.00">date_range : NoneType</text>
<text text-anchor="start" x="1875" y="-136.3" font-family="Times,serif" font-size="14.00">product : str, NoneType</text>
<text text-anchor="start" x="1875" y="-121.3" font-family="Times,serif" font-size="14.00">tracks : NoneType</text>
<polyline fill="none" stroke="black" points="1867,-113.5 2118,-113.5 "/>
<text text-anchor="start" x="1875" y="-98.3" font-family="Times,serif" font-size="14.00">generate_OA_parameters(): list</text>
<text text-anchor="start" x="1875" y="-83.3" font-family="Times,serif" font-size="14.00">grid_bbox(binsize): list</text>
<text text-anchor="start" x="1875" y="-68.3" font-family="Times,serif" font-size="14.00">make_request(base_url, payload)</text>
<text text-anchor="start" x="1875" y="-53.3" font-family="Times,serif" font-size="14.00">parallel_request_OA(): </text>
<text text-anchor="start" x="1875" y="-38.3" font-family="Times,serif" font-size="14.00">query_icesat2_filelist(): tuple</text>
<text text-anchor="start" x="1875" y="-23.3" font-family="Times,serif" font-size="14.00">request_OA_data(paras): </text>
<text text-anchor="start" x="1875" y="-8.3" font-family="Times,serif" font-size="14.00">viz_elevation(): </text>
</g>
</g>
</svg>
