<?xml version="1.0" encoding="UTF-8" standalone="no"?>
<!DOCTYPE svg PUBLIC "-//W3C//DTD SVG 1.1//EN"
 "http://www.w3.org/Graphics/SVG/1.1/DTD/svg11.dtd">
<!-- Generated by graphviz version 2.43.0 (0)
 -->
<!-- Title: classes_user_uml Pages: 1 -->
<svg width="2250pt" height="831pt"
 viewBox="0.00 0.00 2250.00 831.00" xmlns="http://www.w3.org/2000/svg" xmlns:xlink="http://www.w3.org/1999/xlink">
<g id="graph0" class="graph" transform="scale(1 1) rotate(0) translate(4 827)">
<title>classes_user_uml</title>
<polygon fill="white" stroke="transparent" points="-4,4 -4,-827 2246,-827 2246,4 -4,4"/>
<!-- icepyx.core.Earthdata.Earthdata -->
<g id="node1" class="node">
<title>icepyx.core.Earthdata.Earthdata</title>
<polygon fill="none" stroke="black" points="0,-38 0,-182 169,-182 169,-38 0,-38"/>
<text text-anchor="middle" x="84.5" y="-166.8" font-family="Times,serif" font-size="14.00">Earthdata</text>
<polyline fill="none" stroke="black" points="0,-159 169,-159 "/>
<text text-anchor="start" x="8" y="-143.8" font-family="Times,serif" font-size="14.00">capability_url</text>
<text text-anchor="start" x="8" y="-128.8" font-family="Times,serif" font-size="14.00">email</text>
<text text-anchor="start" x="8" y="-113.8" font-family="Times,serif" font-size="14.00">netrc : NoneType</text>
<text text-anchor="start" x="8" y="-98.8" font-family="Times,serif" font-size="14.00">pswd : NoneType, str</text>
<text text-anchor="start" x="8" y="-83.8" font-family="Times,serif" font-size="14.00">session : Session</text>
<text text-anchor="start" x="8" y="-68.8" font-family="Times,serif" font-size="14.00">uid</text>
<polyline fill="none" stroke="black" points="0,-61 169,-61 "/>
<text text-anchor="start" x="8" y="-45.8" font-family="Times,serif" font-size="14.00">login(attempts)</text>
</g>
<!-- icepyx.core.query.GenQuery -->
<g id="node2" class="node">
<title>icepyx.core.query.GenQuery</title>
<polygon fill="none" stroke="black" points="1352,-752.5 1352,-822.5 1441,-822.5 1441,-752.5 1352,-752.5"/>
<text text-anchor="middle" x="1396.5" y="-807.3" font-family="Times,serif" font-size="14.00">GenQuery</text>
<polyline fill="none" stroke="black" points="1352,-799.5 1441,-799.5 "/>
<polyline fill="none" stroke="black" points="1352,-775.5 1441,-775.5 "/>
<text text-anchor="middle" x="1396.5" y="-760.3" font-family="Times,serif" font-size="14.00"> </text>
</g>
<!-- icepyx.core.granules.Granules -->
<g id="node3" class="node">
<title>icepyx.core.granules.Granules</title>
<polygon fill="none" stroke="black" points="186.5,-53 186.5,-167 872.5,-167 872.5,-53 186.5,-53"/>
<text text-anchor="middle" x="529.5" y="-151.8" font-family="Times,serif" font-size="14.00">Granules</text>
<polyline fill="none" stroke="black" points="186.5,-144 872.5,-144 "/>
<text text-anchor="start" x="194.5" y="-128.8" font-family="Times,serif" font-size="14.00">avail : list</text>
<text text-anchor="start" x="194.5" y="-113.8" font-family="Times,serif" font-size="14.00">orderIDs : list</text>
<polyline fill="none" stroke="black" points="186.5,-106 872.5,-106 "/>
<text text-anchor="start" x="194.5" y="-90.8" font-family="Times,serif" font-size="14.00">download(verbose, path, session, restart)</text>
<text text-anchor="start" x="194.5" y="-75.8" font-family="Times,serif" font-size="14.00">get_avail(CMRparams, reqparams)</text>
<text text-anchor="start" x="194.5" y="-60.8" font-family="Times,serif" font-size="14.00">place_order(CMRparams, reqparams, subsetparams, verbose, subset, session, geom_filepath)</text>
</g>
<!-- icepyx.core.query.Query -->
<g id="node7" class="node">
<title>icepyx.core.query.Query</title>
<polygon fill="none" stroke="black" points="840,-271.5 840,-700.5 1217,-700.5 1217,-271.5 840,-271.5"/>
<text text-anchor="middle" x="1028.5" y="-685.3" font-family="Times,serif" font-size="14.00">Query</text>
<polyline fill="none" stroke="black" points="840,-677.5 1217,-677.5 "/>
<text text-anchor="start" x="848" y="-662.3" font-family="Times,serif" font-size="14.00">CMRparams</text>
<text text-anchor="start" x="848" y="-647.3" font-family="Times,serif" font-size="14.00">cycles</text>
<text text-anchor="start" x="848" y="-632.3" font-family="Times,serif" font-size="14.00">dataset</text>
<text text-anchor="start" x="848" y="-617.3" font-family="Times,serif" font-size="14.00">dates</text>
<text text-anchor="start" x="848" y="-602.3" font-family="Times,serif" font-size="14.00">end_time</text>
<text text-anchor="start" x="848" y="-587.3" font-family="Times,serif" font-size="14.00">file_vars</text>
<text text-anchor="start" x="848" y="-572.3" font-family="Times,serif" font-size="14.00">granules</text>
<text text-anchor="start" x="848" y="-557.3" font-family="Times,serif" font-size="14.00">order_vars</text>
<text text-anchor="start" x="848" y="-542.3" font-family="Times,serif" font-size="14.00">product</text>
<text text-anchor="start" x="848" y="-527.3" font-family="Times,serif" font-size="14.00">product_version</text>
<text text-anchor="start" x="848" y="-512.3" font-family="Times,serif" font-size="14.00">reqparams</text>
<text text-anchor="start" x="848" y="-497.3" font-family="Times,serif" font-size="14.00">spatial</text>
<text text-anchor="start" x="848" y="-482.3" font-family="Times,serif" font-size="14.00">spatial_extent</text>
<text text-anchor="start" x="848" y="-467.3" font-family="Times,serif" font-size="14.00">start_time</text>
<text text-anchor="start" x="848" y="-452.3" font-family="Times,serif" font-size="14.00">tracks</text>
<polyline fill="none" stroke="black" points="840,-444.5 1217,-444.5 "/>
<text text-anchor="start" x="848" y="-429.3" font-family="Times,serif" font-size="14.00">avail_granules(ids, cycles, tracks, s3urls)</text>
<text text-anchor="start" x="848" y="-414.3" font-family="Times,serif" font-size="14.00">download_granules(path, verbose, subset, restart)</text>
<text text-anchor="start" x="848" y="-399.3" font-family="Times,serif" font-size="14.00">earthdata_login(uid, email, s3token)</text>
<text text-anchor="start" x="848" y="-384.3" font-family="Times,serif" font-size="14.00">latest_version()</text>
<text text-anchor="start" x="848" y="-369.3" font-family="Times,serif" font-size="14.00">order_granules(verbose, subset, email)</text>
<text text-anchor="start" x="848" y="-354.3" font-family="Times,serif" font-size="14.00">product_all_info()</text>
<text text-anchor="start" x="848" y="-339.3" font-family="Times,serif" font-size="14.00">product_summary_info()</text>
<text text-anchor="start" x="848" y="-324.3" font-family="Times,serif" font-size="14.00">show_custom_options(dictview)</text>
<text text-anchor="start" x="848" y="-309.3" font-family="Times,serif" font-size="14.00">subsetparams()</text>
<text text-anchor="start" x="848" y="-294.3" font-family="Times,serif" font-size="14.00">visualize_elevation()</text>
<text text-anchor="start" x="848" y="-279.3" font-family="Times,serif" font-size="14.00">visualize_spatial_extent()</text>
</g>
<!-- icepyx.core.granules.Granules&#45;&gt;icepyx.core.query.Query -->
<g id="edge7" class="edge">
<title>icepyx.core.granules.Granules&#45;&gt;icepyx.core.query.Query</title>
<path fill="none" stroke="black" d="M524.58,-167.11C524.92,-195.26 529.87,-228.49 547.5,-253 614.24,-345.75 728.21,-402.97 828.46,-437.37"/>
<polygon fill="black" stroke="black" points="828.61,-437.42 835.57,-435.54 839.99,-441.25 833.02,-443.12 828.61,-437.42"/>
<text text-anchor="middle" x="582.5" y="-241.8" font-family="Times,serif" font-size="14.00" fill="green">_granules</text>
</g>
<!-- icepyx.core.granules.Granules&#45;&gt;icepyx.core.query.Query -->
<g id="edge8" class="edge">
<title>icepyx.core.granules.Granules&#45;&gt;icepyx.core.query.Query</title>
<path fill="none" stroke="black" d="M574.38,-167.28C597.84,-194.82 627.97,-227.46 658.5,-253 710.75,-296.72 771.91,-338.33 829.28,-373.92"/>
<polygon fill="black" stroke="black" points="829.35,-373.97 836.56,-373.71 839.57,-380.27 832.36,-380.52 829.35,-373.97"/>
<text text-anchor="middle" x="693.5" y="-241.8" font-family="Times,serif" font-size="14.00" fill="green">_granules</text>
</g>
<!-- icepyx.core.icesat2data.Icesat2Data -->
<g id="node4" class="node">
<title>icepyx.core.icesat2data.Icesat2Data</title>
<polygon fill="none" stroke="black" points="1586.5,-75 1586.5,-145 1688.5,-145 1688.5,-75 1586.5,-75"/>
<text text-anchor="middle" x="1637.5" y="-129.8" font-family="Times,serif" font-size="14.00">Icesat2Data</text>
<polyline fill="none" stroke="black" points="1586.5,-122 1688.5,-122 "/>
<polyline fill="none" stroke="black" points="1586.5,-98 1688.5,-98 "/>
<text text-anchor="middle" x="1637.5" y="-82.8" font-family="Times,serif" font-size="14.00"> </text>
</g>
<!-- icepyx.core.exceptions.NsidcQueryError -->
<g id="node5" class="node">
<title>icepyx.core.exceptions.NsidcQueryError</title>
<polygon fill="none" stroke="black" points="1755.5,-68 1755.5,-152 1895.5,-152 1895.5,-68 1755.5,-68"/>
<text text-anchor="middle" x="1825.5" y="-136.8" font-family="Times,serif" font-size="14.00" fill="red">NsidcQueryError</text>
<polyline fill="none" stroke="black" points="1755.5,-129 1895.5,-129 "/>
<text text-anchor="start" x="1763.5" y="-113.8" font-family="Times,serif" font-size="14.00" fill="red">errmsg</text>
<text text-anchor="start" x="1763.5" y="-98.8" font-family="Times,serif" font-size="14.00" fill="red">msgtxt : str</text>
<polyline fill="none" stroke="black" points="1755.5,-91 1895.5,-91 "/>
<text text-anchor="middle" x="1825.5" y="-75.8" font-family="Times,serif" font-size="14.00" fill="red"> </text>
</g>
<!-- icepyx.core.exceptions.QueryError -->
<g id="node8" class="node">
<title>icepyx.core.exceptions.QueryError</title>
<polygon fill="none" stroke="black" points="1776,-451 1776,-521 1875,-521 1875,-451 1776,-451"/>
<text text-anchor="middle" x="1825.5" y="-505.8" font-family="Times,serif" font-size="14.00" fill="red">QueryError</text>
<polyline fill="none" stroke="black" points="1776,-498 1875,-498 "/>
<polyline fill="none" stroke="black" points="1776,-474 1875,-474 "/>
<text text-anchor="middle" x="1825.5" y="-458.8" font-family="Times,serif" font-size="14.00" fill="red"> </text>
</g>
<!-- icepyx.core.exceptions.NsidcQueryError&#45;&gt;icepyx.core.exceptions.QueryError -->
<g id="edge1" class="edge">
<title>icepyx.core.exceptions.NsidcQueryError&#45;&gt;icepyx.core.exceptions.QueryError</title>
<path fill="none" stroke="black" d="M1825.5,-152.09C1825.5,-222.99 1825.5,-367.69 1825.5,-440.73"/>
<polygon fill="none" stroke="black" points="1822,-440.97 1825.5,-450.97 1829,-440.97 1822,-440.97"/>
</g>
<!-- icepyx.core.APIformatting.Parameters -->
<g id="node6" class="node">
<title>icepyx.core.APIformatting.Parameters</title>
<polygon fill="none" stroke="black" points="890,-45.5 890,-174.5 1041,-174.5 1041,-45.5 890,-45.5"/>
<text text-anchor="middle" x="965.5" y="-159.3" font-family="Times,serif" font-size="14.00">Parameters</text>
<polyline fill="none" stroke="black" points="890,-151.5 1041,-151.5 "/>
<text text-anchor="start" x="898" y="-136.3" font-family="Times,serif" font-size="14.00">fmted_keys</text>
<text text-anchor="start" x="898" y="-121.3" font-family="Times,serif" font-size="14.00">partype</text>
<text text-anchor="start" x="898" y="-106.3" font-family="Times,serif" font-size="14.00">poss_keys</text>
<polyline fill="none" stroke="black" points="890,-98.5 1041,-98.5 "/>
<text text-anchor="start" x="898" y="-83.3" font-family="Times,serif" font-size="14.00">build_params()</text>
<text text-anchor="start" x="898" y="-68.3" font-family="Times,serif" font-size="14.00">check_req_values()</text>
<text text-anchor="start" x="898" y="-53.3" font-family="Times,serif" font-size="14.00">check_values()</text>
</g>
<!-- icepyx.core.APIformatting.Parameters&#45;&gt;icepyx.core.query.Query -->
<g id="edge3" class="edge">
<title>icepyx.core.APIformatting.Parameters&#45;&gt;icepyx.core.query.Query</title>
<path fill="none" stroke="black" d="M929.54,-174.75C916.63,-192.14 900.48,-209.16 881.5,-220 824.11,-252.77 707.77,-193.48 736.5,-253 757.91,-297.35 792.37,-335.82 830.23,-368"/>
<polygon fill="black" stroke="black" points="830.69,-368.38 837.86,-369.13 839.93,-376.04 832.76,-375.29 830.69,-368.38"/>
<text text-anchor="middle" x="784.5" y="-241.8" font-family="Times,serif" font-size="14.00" fill="green">_CMRparams</text>
</g>
<!-- icepyx.core.APIformatting.Parameters&#45;&gt;icepyx.core.query.Query -->
<g id="edge4" class="edge">
<title>icepyx.core.APIformatting.Parameters&#45;&gt;icepyx.core.query.Query</title>
<path fill="none" stroke="black" d="M921.74,-174.63C909.59,-190.28 895.79,-206.42 881.5,-220 871.31,-229.68 862.02,-225.55 855.5,-238 852.41,-243.91 853.4,-246.67 855.5,-253 856.3,-255.42 857.14,-257.84 858.02,-260.25"/>
<polygon fill="black" stroke="black" points="858.03,-260.29 863.93,-264.45 862.35,-271.49 856.46,-267.33 858.03,-260.29"/>
<text text-anchor="middle" x="898" y="-241.8" font-family="Times,serif" font-size="14.00" fill="green">_reqparams</text>
</g>
<!-- icepyx.core.APIformatting.Parameters&#45;&gt;icepyx.core.query.Query -->
<g id="edge5" class="edge">
<title>icepyx.core.APIformatting.Parameters&#45;&gt;icepyx.core.query.Query</title>
<path fill="none" stroke="black" d="M964.3,-174.63C963.97,-194.88 963.66,-217.38 963.5,-238 963.45,-244.67 962.59,-246.4 963.5,-253 963.78,-255.07 964.08,-257.14 964.39,-259.22"/>
<polygon fill="black" stroke="black" points="964.41,-259.34 969.31,-264.63 966.31,-271.19 961.41,-265.9 964.41,-259.34"/>
<text text-anchor="middle" x="1017.5" y="-241.8" font-family="Times,serif" font-size="14.00" fill="green">_subsetparams</text>
</g>
<!-- icepyx.core.APIformatting.Parameters&#45;&gt;icepyx.core.query.Query -->
<g id="edge6" class="edge">
<title>icepyx.core.APIformatting.Parameters&#45;&gt;icepyx.core.query.Query</title>
<path fill="none" stroke="black" d="M1033.07,-174.57C1048.7,-193.34 1063.18,-215.05 1071.5,-238 1074.02,-244.97 1076.02,-252.1 1077.56,-259.34"/>
<polygon fill="black" stroke="black" points="1077.57,-259.4 1082.54,-264.61 1079.64,-271.21 1074.67,-266 1077.57,-259.4"/>
<text text-anchor="middle" x="1129.5" y="-241.8" font-family="Times,serif" font-size="14.00" fill="green">_subsetparams</text>
</g>
<!-- icepyx.core.query.Query&#45;&gt;icepyx.core.query.GenQuery -->
<g id="edge2" class="edge">
<title>icepyx.core.query.Query&#45;&gt;icepyx.core.query.GenQuery</title>
<path fill="none" stroke="black" d="M1217.08,-640.48C1265,-679.48 1312.5,-718.14 1346.58,-745.87"/>
<polygon fill="none" stroke="black" points="1344.55,-748.73 1354.51,-752.33 1348.97,-743.3 1344.55,-748.73"/>
</g>
<!-- icepyx.core.read.Read -->
<g id="node9" class="node">
<title>icepyx.core.read.Read</title>
<polygon fill="none" stroke="black" points="1434.5,-436.5 1434.5,-535.5 1622.5,-535.5 1622.5,-436.5 1434.5,-436.5"/>
<text text-anchor="middle" x="1528.5" y="-520.3" font-family="Times,serif" font-size="14.00">Read</text>
<polyline fill="none" stroke="black" points="1434.5,-512.5 1622.5,-512.5 "/>
<text text-anchor="start" x="1442.5" y="-497.3" font-family="Times,serif" font-size="14.00">data_source : NoneType</text>
<text text-anchor="start" x="1442.5" y="-482.3" font-family="Times,serif" font-size="14.00">is2catalog</text>
<text text-anchor="start" x="1442.5" y="-467.3" font-family="Times,serif" font-size="14.00">vars</text>
<polyline fill="none" stroke="black" points="1434.5,-459.5 1622.5,-459.5 "/>
<text text-anchor="start" x="1442.5" y="-444.3" font-family="Times,serif" font-size="14.00">load()</text>
</g>
<!-- icepyx.core.spatial.Spatial -->
<g id="node10" class="node">
<title>icepyx.core.spatial.Spatial</title>
<polygon fill="none" stroke="black" points="1641,-436.5 1641,-535.5 1758,-535.5 1758,-436.5 1641,-436.5"/>
<text text-anchor="middle" x="1699.5" y="-520.3" font-family="Times,serif" font-size="14.00">Spatial</text>
<polyline fill="none" stroke="black" points="1641,-512.5 1758,-512.5 "/>
<text text-anchor="start" x="1649" y="-497.3" font-family="Times,serif" font-size="14.00">extent_file</text>
<text text-anchor="start" x="1649" y="-482.3" font-family="Times,serif" font-size="14.00">extent_type</text>
<text text-anchor="start" x="1649" y="-467.3" font-family="Times,serif" font-size="14.00">spatial_extent</text>
<polyline fill="none" stroke="black" points="1641,-459.5 1758,-459.5 "/>
<text text-anchor="middle" x="1699.5" y="-444.3" font-family="Times,serif" font-size="14.00"> </text>
</g>
<!-- icepyx.core.spatial.Spatial&#45;&gt;icepyx.core.query.GenQuery -->
<g id="edge9" class="edge">
<title>icepyx.core.spatial.Spatial&#45;&gt;icepyx.core.query.GenQuery</title>
<path fill="none" stroke="black" d="M1696.2,-535.72C1690.45,-583.65 1674.69,-655.99 1631.5,-701 1584.23,-750.26 1506.36,-771.26 1453.32,-780.14"/>
<polygon fill="black" stroke="black" points="1453.26,-780.15 1447.95,-785.03 1441.41,-782 1446.72,-777.12 1453.26,-780.15"/>
<text text-anchor="middle" x="1644.5" y="-722.8" font-family="Times,serif" font-size="14.00" fill="green">_sp_extent</text>
</g>
<!-- icepyx.core.variables.Variables -->
<g id="node11" class="node">
<title>icepyx.core.variables.Variables</title>
<polygon fill="none" stroke="black" points="1168,-38 1168,-182 1543,-182 1543,-38 1168,-38"/>
<text text-anchor="middle" x="1355.5" y="-166.8" font-family="Times,serif" font-size="14.00">Variables</text>
<polyline fill="none" stroke="black" points="1168,-159 1543,-159 "/>
<text text-anchor="start" x="1176" y="-143.8" font-family="Times,serif" font-size="14.00">path : NoneType</text>
<text text-anchor="start" x="1176" y="-128.8" font-family="Times,serif" font-size="14.00">product : NoneType</text>
<text text-anchor="start" x="1176" y="-113.8" font-family="Times,serif" font-size="14.00">wanted : dict, NoneType</text>
<polyline fill="none" stroke="black" points="1168,-106 1543,-106 "/>
<text text-anchor="start" x="1176" y="-90.8" font-family="Times,serif" font-size="14.00">append(defaults, var_list, beam_list, keyword_list)</text>
<text text-anchor="start" x="1176" y="-75.8" font-family="Times,serif" font-size="14.00">avail(options, internal)</text>
<text text-anchor="start" x="1176" y="-60.8" font-family="Times,serif" font-size="14.00">parse_var_list(varlist, tiered, tiered_vars)</text>
<text text-anchor="start" x="1176" y="-45.8" font-family="Times,serif" font-size="14.00">remove(all, var_list, beam_list, keyword_list)</text>
</g>
<!-- icepyx.core.variables.Variables&#45;&gt;icepyx.core.query.Query -->
<g id="edge10" class="edge">
<title>icepyx.core.variables.Variables&#45;&gt;icepyx.core.query.Query</title>
<path fill="none" stroke="black" d="M1279.32,-182.33C1261.24,-200.1 1242.32,-219.39 1225.5,-238 1218.42,-245.83 1211.28,-253.89 1204.15,-262.08"/>
<polygon fill="black" stroke="black" points="1203.95,-262.31 1203.05,-269.47 1196.1,-271.39 1197,-264.23 1203.95,-262.31"/>
<text text-anchor="middle" x="1267.5" y="-241.8" font-family="Times,serif" font-size="14.00" fill="green">_order_vars</text>
</g>
<!-- icepyx.core.variables.Variables&#45;&gt;icepyx.core.query.Query -->
<g id="edge11" class="edge">
<title>icepyx.core.variables.Variables&#45;&gt;icepyx.core.query.Query</title>
<path fill="none" stroke="black" d="M1340.98,-182.14C1333.97,-206 1323.85,-231.89 1309.5,-253 1286.52,-286.81 1257.24,-318.34 1226.3,-346.57"/>
<polygon fill="black" stroke="black" points="1226.02,-346.82 1224.23,-353.81 1217.09,-354.84 1218.88,-347.85 1226.02,-346.82"/>
<text text-anchor="middle" x="1360.5" y="-241.8" font-family="Times,serif" font-size="14.00" fill="green">_order_vars</text>
</g>
<!-- icepyx.core.variables.Variables&#45;&gt;icepyx.core.query.Query -->
<g id="edge12" class="edge">
<title>icepyx.core.variables.Variables&#45;&gt;icepyx.core.query.Query</title>
<path fill="none" stroke="black" d="M1404.75,-182.35C1414.68,-205.6 1418.78,-231.06 1406.5,-253 1367.33,-323 1297.44,-374.45 1228.32,-410.85"/>
<polygon fill="black" stroke="black" points="1227.91,-411.07 1224.41,-417.37 1217.24,-416.57 1220.74,-410.26 1227.91,-411.07"/>
<text text-anchor="middle" x="1446" y="-241.8" font-family="Times,serif" font-size="14.00" fill="green">_file_vars</text>
</g>
<!-- icepyx.core.variables.Variables&#45;&gt;icepyx.core.read.Read -->
<g id="edge13" class="edge">
<title>icepyx.core.variables.Variables&#45;&gt;icepyx.core.read.Read</title>
<path fill="none" stroke="black" d="M1462.41,-182.1C1479.81,-198.42 1495.66,-217.19 1506.5,-238 1536.69,-295.97 1538.81,-372.06 1535.54,-424.39"/>
<polygon fill="black" stroke="black" points="1535.53,-424.52 1539.08,-430.8 1534.65,-436.49 1531.1,-430.22 1535.53,-424.52"/>
<text text-anchor="middle" x="1551" y="-241.8" font-family="Times,serif" font-size="14.00" fill="green">_read_vars</text>
</g>
<!-- icepyx.core.visualization.Visualize -->
<g id="node12" class="node">
<title>icepyx.core.visualization.Visualize</title>
<polygon fill="none" stroke="black" points="1913,-0.5 1913,-219.5 2242,-219.5 2242,-0.5 1913,-0.5"/>
<text text-anchor="middle" x="2077.5" y="-204.3" font-family="Times,serif" font-size="14.00">Visualize</text>
<polyline fill="none" stroke="black" points="1913,-196.5 2242,-196.5 "/>
<text text-anchor="start" x="1921" y="-181.3" font-family="Times,serif" font-size="14.00">bbox : list</text>
<text text-anchor="start" x="1921" y="-166.3" font-family="Times,serif" font-size="14.00">cycles : NoneType</text>
<text text-anchor="start" x="1921" y="-151.3" font-family="Times,serif" font-size="14.00">date_range : NoneType</text>
<text text-anchor="start" x="1921" y="-136.3" font-family="Times,serif" font-size="14.00">product : str, NoneType</text>
<text text-anchor="start" x="1921" y="-121.3" font-family="Times,serif" font-size="14.00">tracks : NoneType</text>
<polyline fill="none" stroke="black" points="1913,-113.5 2242,-113.5 "/>
<text text-anchor="start" x="1921" y="-98.3" font-family="Times,serif" font-size="14.00">generate_OA_parameters(): list</text>
<text text-anchor="start" x="1921" y="-83.3" font-family="Times,serif" font-size="14.00">grid_bbox(binsize): list</text>
<text text-anchor="start" x="1921" y="-68.3" font-family="Times,serif" font-size="14.00">make_request(base_url, payload)</text>
<text text-anchor="start" x="1921" y="-53.3" font-family="Times,serif" font-size="14.00">parallel_request_OA(): da.array</text>
<text text-anchor="start" x="1921" y="-38.3" font-family="Times,serif" font-size="14.00">query_icesat2_filelist(): tuple</text>
<text text-anchor="start" x="1921" y="-23.3" font-family="Times,serif" font-size="14.00">request_OA_data(paras): da.array</text>
<text text-anchor="start" x="1921" y="-8.3" font-family="Times,serif" font-size="14.00">viz_elevation(): (hv.DynamicMap, hv.Layout)</text>
</g>
</g>
</svg>
