<?xml version="1.0" encoding="UTF-8" standalone="no"?>
<!DOCTYPE svg PUBLIC "-//W3C//DTD SVG 1.1//EN"
 "http://www.w3.org/Graphics/SVG/1.1/DTD/svg11.dtd">
<!-- Generated by graphviz version 2.43.0 (0)
 -->
<!-- Title: classes_user_uml Pages: 1 -->
<svg width="3928pt" height="1087pt"
 viewBox="0.00 0.00 3927.50 1087.00" xmlns="http://www.w3.org/2000/svg" xmlns:xlink="http://www.w3.org/1999/xlink">
<g id="graph0" class="graph" transform="scale(1 1) rotate(0) translate(4 1083)">
<title>classes_user_uml</title>
<polygon fill="white" stroke="transparent" points="-4,4 -4,-1083 3923.5,-1083 3923.5,4 -4,4"/>
<!-- icepyx.core.auth.AuthenticationError -->
<g id="node1" class="node">
<title>icepyx.core.auth.AuthenticationError</title>
<polygon fill="none" stroke="black" points="0,-74.6 0,-145.4 161,-145.4 161,-74.6 0,-74.6"/>
<text text-anchor="start" x="8" y="-130.2" font-family="Times,serif" font-size="14.00" fill="red">AuthenticationError</text>
<polyline fill="none" stroke="black" points="0,-122.4 161,-122.4 "/>
<polyline fill="none" stroke="black" points="0,-97.6 161,-97.6 "/>
<text text-anchor="start" x="78" y="-82.4" font-family="Times,serif" font-size="14.00" fill="red"> </text>
</g>
<!-- icepyx.core.types.CMRParamsWithBbox -->
<g id="node2" class="node">
<title>icepyx.core.types.CMRParamsWithBbox</title>
<polygon fill="none" stroke="black" points="179,-75.5 179,-144.5 354,-144.5 354,-75.5 179,-75.5"/>
<text text-anchor="start" x="187" y="-129.3" font-family="Times,serif" font-size="14.00">CMRParamsWithBbox</text>
<polyline fill="none" stroke="black" points="179,-121.5 354,-121.5 "/>
<text text-anchor="start" x="200" y="-106.3" font-family="Times,serif" font-size="14.00">bounding_box : str</text>
<polyline fill="none" stroke="black" points="179,-98.5 354,-98.5 "/>
<text text-anchor="start" x="264" y="-83.3" font-family="Times,serif" font-size="14.00"> </text>
</g>
<!-- icepyx.core.types.CMRParamsWithPolygon -->
<g id="node3" class="node">
<title>icepyx.core.types.CMRParamsWithPolygon</title>
<polygon fill="none" stroke="black" points="372,-75.5 372,-144.5 567,-144.5 567,-75.5 372,-75.5"/>
<text text-anchor="start" x="380" y="-129.3" font-family="Times,serif" font-size="14.00">CMRParamsWithPolygon</text>
<polyline fill="none" stroke="black" points="372,-121.5 567,-121.5 "/>
<text text-anchor="start" x="424" y="-106.3" font-family="Times,serif" font-size="14.00">polygon : str</text>
<polyline fill="none" stroke="black" points="372,-98.5 567,-98.5 "/>
<text text-anchor="start" x="467" y="-83.3" font-family="Times,serif" font-size="14.00"> </text>
</g>
<!-- icepyx.core.orders.DataOrder -->
<g id="node4" class="node">
<title>icepyx.core.orders.DataOrder</title>
<polygon fill="none" stroke="black" points="345.5,-271.5 345.5,-475.5 751.5,-475.5 751.5,-271.5 345.5,-271.5"/>
<text text-anchor="start" x="510.5" y="-460.3" font-family="Times,serif" font-size="14.00">DataOrder</text>
<polyline fill="none" stroke="black" points="345.5,-452.5 751.5,-452.5 "/>
<text text-anchor="start" x="414.5" y="-437.3" font-family="Times,serif" font-size="14.00">HARMONY_BASE_URL : str</text>
<text text-anchor="start" x="414.5" y="-422.3" font-family="Times,serif" font-size="14.00">granules : Union[List[Any], Granules]</text>
<text text-anchor="start" x="414.5" y="-407.3" font-family="Times,serif" font-size="14.00">harmony_api : Any</text>
<text text-anchor="start" x="414.5" y="-392.3" font-family="Times,serif" font-size="14.00">type : str</text>
<polyline fill="none" stroke="black" points="345.5,-384.5 751.5,-384.5 "/>
<text text-anchor="start" x="353.5" y="-369.3" font-family="Times,serif" font-size="14.00">download(path, overwrite): Union[list, None]</text>
<text text-anchor="start" x="353.5" y="-354.3" font-family="Times,serif" font-size="14.00">download_granules(path, overwrite): Union[list, None]</text>
<text text-anchor="start" x="353.5" y="-339.3" font-family="Times,serif" font-size="14.00">job_id(): str</text>
<text text-anchor="start" x="353.5" y="-324.3" font-family="Times,serif" font-size="14.00">pause(): Union[Dict[str, Any], None]</text>
<text text-anchor="start" x="353.5" y="-309.3" font-family="Times,serif" font-size="14.00">resume(): Union[Dict[str, Any], None]</text>
<text text-anchor="start" x="353.5" y="-294.3" font-family="Times,serif" font-size="14.00">skip_preview(): Union[Dict[str, Any], None]</text>
<text text-anchor="start" x="353.5" y="-279.3" font-family="Times,serif" font-size="14.00">status(): Dict[str, Any]</text>
</g>
<!-- icepyx.core.query.Query -->
<g id="node14" class="node">
<title>icepyx.core.query.Query</title>
<polygon fill="none" stroke="black" points="832,-527.5 832,-896.5 1585,-896.5 1585,-527.5 832,-527.5"/>
<text text-anchor="start" x="1186.5" y="-881.3" font-family="Times,serif" font-size="14.00">Query</text>
<polyline fill="none" stroke="black" points="832,-873.5 1585,-873.5 "/>
<text text-anchor="start" x="1046" y="-858.3" font-family="Times,serif" font-size="14.00">CMRparams : CMRParams</text>
<text text-anchor="start" x="1046" y="-843.3" font-family="Times,serif" font-size="14.00">REQUEST_RETRY_INTERVAL_SECONDS : int</text>
<text text-anchor="start" x="1046" y="-828.3" font-family="Times,serif" font-size="14.00">concept_id : str</text>
<text text-anchor="start" x="1046" y="-813.3" font-family="Times,serif" font-size="14.00">cycles</text>
<text text-anchor="start" x="1046" y="-798.3" font-family="Times,serif" font-size="14.00">granules</text>
<text text-anchor="start" x="1046" y="-783.3" font-family="Times,serif" font-size="14.00">harmony_api</text>
<text text-anchor="start" x="1046" y="-768.3" font-family="Times,serif" font-size="14.00">last_order</text>
<text text-anchor="start" x="1046" y="-753.3" font-family="Times,serif" font-size="14.00">order_vars : Union[Variables, None]</text>
<text text-anchor="start" x="1046" y="-738.3" font-family="Times,serif" font-size="14.00">product</text>
<text text-anchor="start" x="1046" y="-723.3" font-family="Times,serif" font-size="14.00">product_version</text>
<text text-anchor="start" x="1046" y="-708.3" font-family="Times,serif" font-size="14.00">tracks</text>
<text text-anchor="start" x="1046" y="-693.3" font-family="Times,serif" font-size="14.00">variables : Variables</text>
<polyline fill="none" stroke="black" points="832,-685.5 1585,-685.5 "/>
<text text-anchor="start" x="840" y="-670.3" font-family="Times,serif" font-size="14.00">avail_granules(ids, cycles, tracks, cloud)</text>
<text text-anchor="start" x="840" y="-655.3" font-family="Times,serif" font-size="14.00">download_granules(path: Path, overwrite: bool, subset: bool, skip_preview: bool): Union[list[str], None]</text>
<text text-anchor="start" x="840" y="-640.3" font-family="Times,serif" font-size="14.00">latest_version()</text>
<text text-anchor="start" x="840" y="-625.3" font-family="Times,serif" font-size="14.00">order_granules(subset: bool, skip_preview: bool): DataOrder</text>
<text text-anchor="start" x="840" y="-610.3" font-family="Times,serif" font-size="14.00">product_all_info()</text>
<text text-anchor="start" x="840" y="-595.3" font-family="Times,serif" font-size="14.00">product_summary_info()</text>
<text text-anchor="start" x="840" y="-580.3" font-family="Times,serif" font-size="14.00">show_custom_options(): Dict[str, Any]</text>
<text text-anchor="start" x="840" y="-565.3" font-family="Times,serif" font-size="14.00">skip_preview()</text>
<text text-anchor="start" x="840" y="-550.3" font-family="Times,serif" font-size="14.00">visualize_elevation()</text>
<text text-anchor="start" x="840" y="-535.3" font-family="Times,serif" font-size="14.00">visualize_spatial_extent()</text>
</g>
<!-- icepyx.core.orders.DataOrder&#45;&gt;icepyx.core.query.Query -->
<g id="edge11" class="edge">
<title>icepyx.core.orders.DataOrder&#45;&gt;icepyx.core.query.Query</title>
<path fill="none" stroke="black" d="M746.97,-475.69C775.92,-490.45 806.48,-506.03 837.54,-521.87"/>
<polygon fill="black" stroke="black" points="837.85,-522.03 845.02,-521.19 848.54,-527.48 841.38,-528.32 837.85,-522.03"/>
<text text-anchor="middle" x="837" y="-497.8" font-family="Times,serif" font-size="14.00" fill="green">last_order</text>
</g>
<!-- icepyx.core.exceptions.DeprecationError -->
<g id="node5" class="node">
<title>icepyx.core.exceptions.DeprecationError</title>
<polygon fill="none" stroke="black" points="1945,-74.6 1945,-145.4 2088,-145.4 2088,-74.6 1945,-74.6"/>
<text text-anchor="start" x="1953" y="-130.2" font-family="Times,serif" font-size="14.00" fill="red">DeprecationError</text>
<polyline fill="none" stroke="black" points="1945,-122.4 2088,-122.4 "/>
<polyline fill="none" stroke="black" points="1945,-97.6 2088,-97.6 "/>
<text text-anchor="start" x="2014" y="-82.4" font-family="Times,serif" font-size="14.00" fill="red"> </text>
</g>
<!-- icepyx.core.auth.EarthdataAuthMixin -->
<g id="node6" class="node">
<title>icepyx.core.auth.EarthdataAuthMixin</title>
<polygon fill="none" stroke="black" points="1600,-957 1600,-1056 1763,-1056 1763,-957 1600,-957"/>
<text text-anchor="start" x="1608" y="-1040.8" font-family="Times,serif" font-size="14.00">EarthdataAuthMixin</text>
<polyline fill="none" stroke="black" points="1600,-1033 1763,-1033 "/>
<text text-anchor="start" x="1612" y="-1017.8" font-family="Times,serif" font-size="14.00">auth</text>
<text text-anchor="start" x="1612" y="-1002.8" font-family="Times,serif" font-size="14.00">s3login_credentials</text>
<text text-anchor="start" x="1612" y="-987.8" font-family="Times,serif" font-size="14.00">session</text>
<polyline fill="none" stroke="black" points="1600,-980 1763,-980 "/>
<text text-anchor="start" x="1679" y="-964.8" font-family="Times,serif" font-size="14.00"> </text>
</g>
<!-- icepyx.core.exceptions.ExhaustiveTypeGuardException -->
<g id="node7" class="node">
<title>icepyx.core.exceptions.ExhaustiveTypeGuardException</title>
<polygon fill="none" stroke="black" points="2460.5,-74.6 2460.5,-145.4 2706.5,-145.4 2706.5,-74.6 2460.5,-74.6"/>
<text text-anchor="start" x="2468.5" y="-130.2" font-family="Times,serif" font-size="14.00" fill="red">ExhaustiveTypeGuardException</text>
<polyline fill="none" stroke="black" points="2460.5,-122.4 2706.5,-122.4 "/>
<polyline fill="none" stroke="black" points="2460.5,-97.6 2706.5,-97.6 "/>
<text text-anchor="start" x="2581" y="-82.4" font-family="Times,serif" font-size="14.00" fill="red"> </text>
</g>
<!-- icepyx.core.exceptions.TypeGuardException -->
<g id="node19" class="node">
<title>icepyx.core.exceptions.TypeGuardException</title>
<polygon fill="none" stroke="black" points="2500,-338.1 2500,-408.9 2667,-408.9 2667,-338.1 2500,-338.1"/>
<text text-anchor="start" x="2508" y="-393.7" font-family="Times,serif" font-size="14.00" fill="red">TypeGuardException</text>
<polyline fill="none" stroke="black" points="2500,-385.9 2667,-385.9 "/>
<polyline fill="none" stroke="black" points="2500,-361.1 2667,-361.1 "/>
<text text-anchor="start" x="2581" y="-345.9" font-family="Times,serif" font-size="14.00" fill="red"> </text>
</g>
<!-- icepyx.core.exceptions.ExhaustiveTypeGuardException&#45;&gt;icepyx.core.exceptions.TypeGuardException -->
<g id="edge1" class="edge">
<title>icepyx.core.exceptions.ExhaustiveTypeGuardException&#45;&gt;icepyx.core.exceptions.TypeGuardException</title>
<path fill="none" stroke="black" d="M2583.5,-145.46C2583.5,-192.3 2583.5,-276.13 2583.5,-327.78"/>
<polygon fill="none" stroke="black" points="2580,-327.97 2583.5,-337.97 2587,-327.97 2580,-327.97"/>
</g>
<!-- icepyx.core.query.GenQuery -->
<g id="node8" class="node">
<title>icepyx.core.query.GenQuery</title>
<polygon fill="none" stroke="black" points="1060.5,-934.5 1060.5,-1078.5 1356.5,-1078.5 1356.5,-934.5 1060.5,-934.5"/>
<text text-anchor="start" x="1172" y="-1063.3" font-family="Times,serif" font-size="14.00">GenQuery</text>
<polyline fill="none" stroke="black" points="1060.5,-1055.5 1356.5,-1055.5 "/>
<text text-anchor="start" x="1068.5" y="-1040.3" font-family="Times,serif" font-size="14.00">dates : list[str]</text>
<text text-anchor="start" x="1068.5" y="-1025.3" font-family="Times,serif" font-size="14.00">end_time : Union[list[str], str]</text>
<text text-anchor="start" x="1068.5" y="-1010.3" font-family="Times,serif" font-size="14.00">spatial</text>
<text text-anchor="start" x="1068.5" y="-995.3" font-family="Times,serif" font-size="14.00">spatial_extent</text>
<text text-anchor="start" x="1068.5" y="-980.3" font-family="Times,serif" font-size="14.00">start_time : Union[list[str], str]</text>
<text text-anchor="start" x="1068.5" y="-965.3" font-family="Times,serif" font-size="14.00">temporal : Union[tp.Temporal, list[str]]</text>
<polyline fill="none" stroke="black" points="1060.5,-957.5 1356.5,-957.5 "/>
<text text-anchor="start" x="1206" y="-942.3" font-family="Times,serif" font-size="14.00"> </text>
</g>
<!-- icepyx.core.granules.Granules -->
<g id="node9" class="node">
<title>icepyx.core.granules.Granules</title>
<polygon fill="none" stroke="black" points="584.5,-60.5 584.5,-159.5 1220.5,-159.5 1220.5,-60.5 584.5,-60.5"/>
<text text-anchor="start" x="870" y="-144.3" font-family="Times,serif" font-size="14.00">Granules</text>
<polyline fill="none" stroke="black" points="584.5,-136.5 1220.5,-136.5 "/>
<text text-anchor="start" x="867.5" y="-121.3" font-family="Times,serif" font-size="14.00">avail : list</text>
<polyline fill="none" stroke="black" points="584.5,-113.5 1220.5,-113.5 "/>
<text text-anchor="start" x="592.5" y="-98.3" font-family="Times,serif" font-size="14.00">download(verbose, path, restart)</text>
<text text-anchor="start" x="592.5" y="-83.3" font-family="Times,serif" font-size="14.00">get_avail(CMRparams: CMRParams, cloud: bool)</text>
<text text-anchor="start" x="592.5" y="-68.3" font-family="Times,serif" font-size="14.00">place_order(CMRparams: CMRParams, subsetparams, verbose, subset, geom_filepath)</text>
</g>
<!-- icepyx.core.granules.Granules&#45;&gt;icepyx.core.orders.DataOrder -->
<g id="edge12" class="edge">
<title>icepyx.core.granules.Granules&#45;&gt;icepyx.core.orders.DataOrder</title>
<path fill="none" stroke="black" d="M836.74,-159.57C796.91,-189 744.44,-227.76 695.19,-264.14"/>
<polygon fill="none" stroke="black" points="695.04,-264.25 692.59,-271.03 685.39,-271.38 687.84,-264.6 695.04,-264.25"/>
<text text-anchor="middle" x="757" y="-241.8" font-family="Times,serif" font-size="14.00" fill="green">granules</text>
</g>
<!-- icepyx.core.granules.Granules&#45;&gt;icepyx.core.auth.EarthdataAuthMixin -->
<g id="edge3" class="edge">
<title>icepyx.core.granules.Granules&#45;&gt;icepyx.core.auth.EarthdataAuthMixin</title>
<path fill="none" stroke="black" d="M1220.9,-143.93C1610.41,-184.97 2220.66,-252.02 2237.5,-271 2352.39,-400.48 2194.52,-828.51 2124.5,-897 2075.25,-945.17 1888.3,-977.98 1773.58,-994.06"/>
<polygon fill="none" stroke="black" points="1772.82,-990.63 1763.4,-995.47 1773.78,-997.57 1772.82,-990.63"/>
</g>
<!-- icepyx.core.harmony.HarmonyApi -->
<g id="node10" class="node">
<title>icepyx.core.harmony.HarmonyApi</title>
<polygon fill="none" stroke="black" points="770,-286.5 770,-460.5 2229,-460.5 2229,-286.5 770,-286.5"/>
<text text-anchor="start" x="1454.5" y="-445.3" font-family="Times,serif" font-size="14.00">HarmonyApi</text>
<polyline fill="none" stroke="black" points="770,-437.5 2229,-437.5 "/>
<text text-anchor="start" x="1416.5" y="-422.3" font-family="Times,serif" font-size="14.00">harmony_client : Client</text>
<text text-anchor="start" x="1416.5" y="-407.3" font-family="Times,serif" font-size="14.00">job_ids : list</text>
<polyline fill="none" stroke="black" points="770,-399.5 2229,-399.5 "/>
<text text-anchor="start" x="778" y="-384.3" font-family="Times,serif" font-size="14.00">check_order_status(job_id: str): dict[str, Any]</text>
<text text-anchor="start" x="778" y="-369.3" font-family="Times,serif" font-size="14.00">download_granules(download_dir: Path, overwrite: bool): list[Path]</text>
<text text-anchor="start" x="778" y="-354.3" font-family="Times,serif" font-size="14.00">get_capabilities(concept_id: str): dict[str, Any]</text>
<text text-anchor="start" x="778" y="-339.3" font-family="Times,serif" font-size="14.00">pause_order(job_id: str): None</text>
<text text-anchor="start" x="778" y="-324.3" font-family="Times,serif" font-size="14.00">place_order(concept_id: str, spatial: Union[harmony.BBox, str, harmony.WKT, None], temporal: Union[HarmonyTemporal, None], shape: Union[str, None], granule_name: list[str], skip_preview: bool): Any</text>
<text text-anchor="start" x="778" y="-309.3" font-family="Times,serif" font-size="14.00">resume_order(job_id: str): None</text>
<text text-anchor="start" x="778" y="-294.3" font-family="Times,serif" font-size="14.00">skip_preview(job_id: str): Dict[str, Any]</text>
</g>
<!-- icepyx.core.harmony.HarmonyApi&#45;&gt;icepyx.core.auth.EarthdataAuthMixin -->
<g id="edge4" class="edge">
<title>icepyx.core.harmony.HarmonyApi&#45;&gt;icepyx.core.auth.EarthdataAuthMixin</title>
<path fill="none" stroke="black" d="M1561.81,-460.65C1574.23,-481.49 1585.8,-504.32 1593.5,-527 1646.66,-683.53 1587.87,-737.55 1631.5,-897 1636.14,-913.97 1643.2,-931.62 1650.56,-947.62"/>
<polygon fill="none" stroke="black" points="1647.48,-949.28 1654.92,-956.83 1653.81,-946.29 1647.48,-949.28"/>
</g>
<!-- icepyx.core.harmony.HarmonyApi&#45;&gt;icepyx.core.query.Query -->
<g id="edge10" class="edge">
<title>icepyx.core.harmony.HarmonyApi&#45;&gt;icepyx.core.query.Query</title>
<path fill="none" stroke="black" d="M1424.94,-460.72C1409.46,-478.62 1392.56,-498.16 1375.25,-518.17"/>
<polygon fill="black" stroke="black" points="1375.13,-518.32 1374.23,-525.48 1367.28,-527.4 1368.18,-520.24 1375.13,-518.32"/>
<text text-anchor="middle" x="1435.5" y="-497.8" font-family="Times,serif" font-size="14.00" fill="green">harmony_api</text>
</g>
<!-- icepyx.core.harmony.HarmonyTemporal -->
<g id="node11" class="node">
<title>icepyx.core.harmony.HarmonyTemporal</title>
<polygon fill="none" stroke="black" points="2725,-68 2725,-152 2874,-152 2874,-68 2725,-68"/>
<text text-anchor="start" x="2733" y="-136.8" font-family="Times,serif" font-size="14.00">HarmonyTemporal</text>
<polyline fill="none" stroke="black" points="2725,-129 2874,-129 "/>
<text text-anchor="start" x="2743.5" y="-113.8" font-family="Times,serif" font-size="14.00">start : datetime</text>
<text text-anchor="start" x="2743.5" y="-98.8" font-family="Times,serif" font-size="14.00">stop : datetime</text>
<polyline fill="none" stroke="black" points="2725,-91 2874,-91 "/>
<text text-anchor="start" x="2797" y="-75.8" font-family="Times,serif" font-size="14.00"> </text>
</g>
<!-- icepyx.core.exceptions.NsidcQueryError -->
<g id="node12" class="node">
<title>icepyx.core.exceptions.NsidcQueryError</title>
<polygon fill="none" stroke="black" points="2892.5,-68 2892.5,-152 3032.5,-152 3032.5,-68 2892.5,-68"/>
<text text-anchor="start" x="2900.5" y="-136.8" font-family="Times,serif" font-size="14.00" fill="red">NsidcQueryError</text>
<polyline fill="none" stroke="black" points="2892.5,-129 3032.5,-129 "/>
<text text-anchor="start" x="2920" y="-113.8" font-family="Times,serif" font-size="14.00" fill="red">errmsg</text>
<text text-anchor="start" x="2920" y="-98.8" font-family="Times,serif" font-size="14.00" fill="red">msgtxt : str</text>
<polyline fill="none" stroke="black" points="2892.5,-91 3032.5,-91 "/>
<text text-anchor="start" x="2960" y="-75.8" font-family="Times,serif" font-size="14.00" fill="red"> </text>
</g>
<!-- icepyx.core.exceptions.QueryError -->
<g id="node15" class="node">
<title>icepyx.core.exceptions.QueryError</title>
<polygon fill="none" stroke="black" points="2913,-338.1 2913,-408.9 3012,-408.9 3012,-338.1 2913,-338.1"/>
<text text-anchor="start" x="2921" y="-393.7" font-family="Times,serif" font-size="14.00" fill="red">QueryError</text>
<polyline fill="none" stroke="black" points="2913,-385.9 3012,-385.9 "/>
<polyline fill="none" stroke="black" points="2913,-361.1 3012,-361.1 "/>
<text text-anchor="start" x="2960" y="-345.9" font-family="Times,serif" font-size="14.00" fill="red"> </text>
</g>
<!-- icepyx.core.exceptions.NsidcQueryError&#45;&gt;icepyx.core.exceptions.QueryError -->
<g id="edge2" class="edge">
<title>icepyx.core.exceptions.NsidcQueryError&#45;&gt;icepyx.core.exceptions.QueryError</title>
<path fill="none" stroke="black" d="M2962.5,-152.15C2962.5,-199.95 2962.5,-278.54 2962.5,-327.81"/>
<polygon fill="none" stroke="black" points="2959,-327.86 2962.5,-337.86 2966,-327.86 2959,-327.86"/>
</g>
<!-- icepyx.core.APIformatting.Parameters -->
<g id="node13" class="node">
<title>icepyx.core.APIformatting.Parameters</title>
<polygon fill="none" stroke="black" points="3030.5,-309 3030.5,-438 3250.5,-438 3250.5,-309 3030.5,-309"/>
<text text-anchor="start" x="3099" y="-422.8" font-family="Times,serif" font-size="14.00">Parameters</text>
<polyline fill="none" stroke="black" points="3030.5,-415 3250.5,-415 "/>
<text text-anchor="start" x="3038.5" y="-399.8" font-family="Times,serif" font-size="14.00">fmted_keys</text>
<text text-anchor="start" x="3038.5" y="-384.8" font-family="Times,serif" font-size="14.00">partype : T</text>
<text text-anchor="start" x="3038.5" y="-369.8" font-family="Times,serif" font-size="14.00">poss_keys : dict[str, list[str]]</text>
<polyline fill="none" stroke="black" points="3030.5,-362 3250.5,-362 "/>
<text text-anchor="start" x="3053.5" y="-346.8" font-family="Times,serif" font-size="14.00">build_params(): None</text>
<text text-anchor="start" x="3053.5" y="-331.8" font-family="Times,serif" font-size="14.00">check_req_values(): bool</text>
<text text-anchor="start" x="3053.5" y="-316.8" font-family="Times,serif" font-size="14.00">check_values(): bool</text>
</g>
<!-- icepyx.core.query.Query&#45;&gt;icepyx.core.auth.EarthdataAuthMixin -->
<g id="edge5" class="edge">
<title>icepyx.core.query.Query&#45;&gt;icepyx.core.auth.EarthdataAuthMixin</title>
<path fill="none" stroke="black" d="M1505.37,-896.58C1537.39,-916.38 1567.83,-935.2 1594.11,-951.46"/>
<polygon fill="none" stroke="black" points="1592.52,-954.59 1602.86,-956.87 1596.2,-948.63 1592.52,-954.59"/>
</g>
<!-- icepyx.core.query.Query&#45;&gt;icepyx.core.query.GenQuery -->
<g id="edge6" class="edge">
<title>icepyx.core.query.Query&#45;&gt;icepyx.core.query.GenQuery</title>
<path fill="none" stroke="black" d="M1208.5,-896.58C1208.5,-906.07 1208.5,-915.33 1208.5,-924.2"/>
<polygon fill="none" stroke="black" points="1205,-924.41 1208.5,-934.41 1212,-924.41 1205,-924.41"/>
</g>
<!-- icepyx.core.read.Read -->
<g id="node16" class="node">
<title>icepyx.core.read.Read</title>
<polygon fill="none" stroke="black" points="1640.5,-655 1640.5,-769 1722.5,-769 1722.5,-655 1640.5,-655"/>
<text text-anchor="start" x="1663" y="-753.8" font-family="Times,serif" font-size="14.00">Read</text>
<polyline fill="none" stroke="black" points="1640.5,-746 1722.5,-746 "/>
<text text-anchor="start" x="1648.5" y="-730.8" font-family="Times,serif" font-size="14.00">filelist</text>
<text text-anchor="start" x="1648.5" y="-715.8" font-family="Times,serif" font-size="14.00">is_s3</text>
<text text-anchor="start" x="1648.5" y="-700.8" font-family="Times,serif" font-size="14.00">product</text>
<text text-anchor="start" x="1648.5" y="-685.8" font-family="Times,serif" font-size="14.00">variables</text>
<polyline fill="none" stroke="black" points="1640.5,-678 1722.5,-678 "/>
<text text-anchor="start" x="1661" y="-662.8" font-family="Times,serif" font-size="14.00">load()</text>
</g>
<!-- icepyx.core.read.Read&#45;&gt;icepyx.core.auth.EarthdataAuthMixin -->
<g id="edge7" class="edge">
<title>icepyx.core.read.Read&#45;&gt;icepyx.core.auth.EarthdataAuthMixin</title>
<path fill="none" stroke="black" d="M1681.5,-769.05C1681.5,-820.06 1681.5,-895.09 1681.5,-946.88"/>
<polygon fill="none" stroke="black" points="1678,-946.92 1681.5,-956.92 1685,-946.92 1678,-946.92"/>
</g>
<!-- icepyx.core.spatial.Spatial -->
<g id="node17" class="node">
<title>icepyx.core.spatial.Spatial</title>
<polygon fill="none" stroke="black" points="3248,-45.5 3248,-174.5 3369,-174.5 3369,-45.5 3248,-45.5"/>
<text text-anchor="start" x="3283" y="-159.3" font-family="Times,serif" font-size="14.00">Spatial</text>
<polyline fill="none" stroke="black" points="3248,-151.5 3369,-151.5 "/>
<text text-anchor="start" x="3259" y="-136.3" font-family="Times,serif" font-size="14.00">extent</text>
<text text-anchor="start" x="3259" y="-121.3" font-family="Times,serif" font-size="14.00">extent_as_gdf</text>
<text text-anchor="start" x="3259" y="-106.3" font-family="Times,serif" font-size="14.00">extent_file</text>
<text text-anchor="start" x="3259" y="-91.3" font-family="Times,serif" font-size="14.00">extent_type</text>
<polyline fill="none" stroke="black" points="3248,-83.5 3369,-83.5 "/>
<text text-anchor="start" x="3256" y="-68.3" font-family="Times,serif" font-size="14.00">fmt_for_CMR()</text>
<text text-anchor="start" x="3256" y="-53.3" font-family="Times,serif" font-size="14.00">fmt_for_EGI()</text>
</g>
<!-- icepyx.core.temporal.Temporal -->
<g id="node18" class="node">
<title>icepyx.core.temporal.Temporal</title>
<polygon fill="none" stroke="black" points="3387.5,-68 3387.5,-152 3535.5,-152 3535.5,-68 3387.5,-68"/>
<text text-anchor="start" x="3428" y="-136.8" font-family="Times,serif" font-size="14.00">Temporal</text>
<polyline fill="none" stroke="black" points="3387.5,-129 3535.5,-129 "/>
<text text-anchor="start" x="3395.5" y="-113.8" font-family="Times,serif" font-size="14.00">end : dt.datetime</text>
<text text-anchor="start" x="3395.5" y="-98.8" font-family="Times,serif" font-size="14.00">start : dt.datetime</text>
<polyline fill="none" stroke="black" points="3387.5,-91 3535.5,-91 "/>
<text text-anchor="start" x="3459" y="-75.8" font-family="Times,serif" font-size="14.00"> </text>
</g>
<!-- icepyx.core.variables.Variables -->
<g id="node20" class="node">
<title>icepyx.core.variables.Variables</title>
<polygon fill="none" stroke="black" points="1741,-632.5 1741,-791.5 2116,-791.5 2116,-632.5 1741,-632.5"/>
<text text-anchor="start" x="1895" y="-776.3" font-family="Times,serif" font-size="14.00">Variables</text>
<polyline fill="none" stroke="black" points="1741,-768.5 2116,-768.5 "/>
<text text-anchor="start" x="1841" y="-753.3" font-family="Times,serif" font-size="14.00">path</text>
<text text-anchor="start" x="1841" y="-738.3" font-family="Times,serif" font-size="14.00">product</text>
<text text-anchor="start" x="1841" y="-723.3" font-family="Times,serif" font-size="14.00">version</text>
<text text-anchor="start" x="1841" y="-708.3" font-family="Times,serif" font-size="14.00">wanted : NoneType, dict</text>
<polyline fill="none" stroke="black" points="1741,-700.5 2116,-700.5 "/>
<text text-anchor="start" x="1749" y="-685.3" font-family="Times,serif" font-size="14.00">append(defaults, var_list, beam_list, keyword_list)</text>
<text text-anchor="start" x="1749" y="-670.3" font-family="Times,serif" font-size="14.00">avail(options, internal)</text>
<text text-anchor="start" x="1749" y="-655.3" font-family="Times,serif" font-size="14.00">parse_var_list(varlist, tiered, tiered_vars)</text>
<text text-anchor="start" x="1749" y="-640.3" font-family="Times,serif" font-size="14.00">remove(all, var_list, beam_list, keyword_list)</text>
</g>
<!-- icepyx.core.variables.Variables&#45;&gt;icepyx.core.auth.EarthdataAuthMixin -->
<g id="edge8" class="edge">
<title>icepyx.core.variables.Variables&#45;&gt;icepyx.core.auth.EarthdataAuthMixin</title>
<path fill="none" stroke="black" d="M1861.98,-791.77C1820.06,-841.41 1766.92,-904.34 1729.19,-949.03"/>
<polygon fill="none" stroke="black" points="1726.34,-946.98 1722.56,-956.87 1731.69,-951.49 1726.34,-946.98"/>
</g>
<!-- icepyx.core.visualization.Visualize -->
<g id="node21" class="node">
<title>icepyx.core.visualization.Visualize</title>
<polygon fill="none" stroke="black" points="3553.5,-0.5 3553.5,-219.5 3919.5,-219.5 3919.5,-0.5 3553.5,-0.5"/>
<text text-anchor="start" x="3704.5" y="-204.3" font-family="Times,serif" font-size="14.00">Visualize</text>
<polyline fill="none" stroke="black" points="3553.5,-196.5 3919.5,-196.5 "/>
<text text-anchor="start" x="3651" y="-181.3" font-family="Times,serif" font-size="14.00">bbox : list</text>
<text text-anchor="start" x="3651" y="-166.3" font-family="Times,serif" font-size="14.00">cycles : NoneType</text>
<text text-anchor="start" x="3651" y="-151.3" font-family="Times,serif" font-size="14.00">date_range : NoneType</text>
<text text-anchor="start" x="3651" y="-136.3" font-family="Times,serif" font-size="14.00">product : NoneType, str</text>
<text text-anchor="start" x="3651" y="-121.3" font-family="Times,serif" font-size="14.00">tracks : NoneType</text>
<polyline fill="none" stroke="black" points="3553.5,-113.5 3919.5,-113.5 "/>
<text text-anchor="start" x="3561.5" y="-98.3" font-family="Times,serif" font-size="14.00">generate_OA_parameters(): list</text>
<text text-anchor="start" x="3561.5" y="-83.3" font-family="Times,serif" font-size="14.00">grid_bbox(binsize): list</text>
<text text-anchor="start" x="3561.5" y="-68.3" font-family="Times,serif" font-size="14.00">make_request(base_url, payload)</text>
<text text-anchor="start" x="3561.5" y="-53.3" font-family="Times,serif" font-size="14.00">parallel_request_OA(): da.array</text>
<text text-anchor="start" x="3561.5" y="-38.3" font-family="Times,serif" font-size="14.00">query_icesat2_filelist(): tuple</text>
<text text-anchor="start" x="3561.5" y="-23.3" font-family="Times,serif" font-size="14.00">request_OA_data(paras): da.array</text>
<text text-anchor="start" x="3561.5" y="-8.3" font-family="Times,serif" font-size="14.00">viz_elevation(): tuple[hv.DynamicMap, hv.Layout]</text>
</g>
<!-- icepyx.core.APIformatting._FmtedKeysDescriptor -->
<g id="node22" class="node">
<title>icepyx.core.APIformatting._FmtedKeysDescriptor</title>
<polygon fill="none" stroke="black" points="3051,-74.6 3051,-145.4 3230,-145.4 3230,-74.6 3051,-74.6"/>
<text text-anchor="start" x="3059" y="-130.2" font-family="Times,serif" font-size="14.00">_FmtedKeysDescriptor</text>
<polyline fill="none" stroke="black" points="3051,-122.4 3230,-122.4 "/>
<polyline fill="none" stroke="black" points="3051,-97.6 3230,-97.6 "/>
<text text-anchor="start" x="3138" y="-82.4" font-family="Times,serif" font-size="14.00"> </text>
</g>
<!-- icepyx.core.APIformatting._FmtedKeysDescriptor&#45;&gt;icepyx.core.APIformatting.Parameters -->
<g id="edge9" class="edge">
<title>icepyx.core.APIformatting._FmtedKeysDescriptor&#45;&gt;icepyx.core.APIformatting.Parameters</title>
<path fill="none" stroke="black" d="M3140.5,-145.46C3140.5,-183.76 3140.5,-246.82 3140.5,-296.77"/>
<polygon fill="black" stroke="black" points="3140.5,-296.84 3144.5,-302.84 3140.5,-308.84 3136.5,-302.84 3140.5,-296.84"/>
<text text-anchor="middle" x="3181.5" y="-241.8" font-family="Times,serif" font-size="14.00" fill="green">fmted_keys</text>
</g>
</g>
</svg>
