<?xml version="1.0" encoding="UTF-8" standalone="no"?>
<!DOCTYPE svg PUBLIC "-//W3C//DTD SVG 1.1//EN"
 "http://www.w3.org/Graphics/SVG/1.1/DTD/svg11.dtd">
<!-- Generated by graphviz version 2.43.0 (0)
 -->
<!-- Title: classes_user_uml Pages: 1 -->
<svg width="2251pt" height="860pt"
 viewBox="0.00 0.00 2251.00 860.00" xmlns="http://www.w3.org/2000/svg" xmlns:xlink="http://www.w3.org/1999/xlink">
<g id="graph0" class="graph" transform="scale(1 1) rotate(0) translate(4 856)">
<title>classes_user_uml</title>
<polygon fill="white" stroke="transparent" points="-4,4 -4,-856 2247,-856 2247,4 -4,4"/>
<!-- icepyx.core.auth.AuthenticationError -->
<g id="node1" class="node">
<title>icepyx.core.auth.AuthenticationError</title>
<polygon fill="none" stroke="black" points="0,-74.6 0,-145.4 161,-145.4 161,-74.6 0,-74.6"/>
<text text-anchor="start" x="8" y="-130.2" font-family="Times,serif" font-size="14.00" fill="red">AuthenticationError</text>
<polyline fill="none" stroke="black" points="0,-122.4 161,-122.4 "/>
<polyline fill="none" stroke="black" points="0,-97.6 161,-97.6 "/>
<text text-anchor="start" x="78" y="-82.4" font-family="Times,serif" font-size="14.00" fill="red"> </text>
</g>
<!-- icepyx.core.auth.EarthdataAuthMixin -->
<g id="node2" class="node">
<title>icepyx.core.auth.EarthdataAuthMixin</title>
<polygon fill="none" stroke="black" points="1119,-752.5 1119,-851.5 1440,-851.5 1440,-752.5 1119,-752.5"/>
<text text-anchor="start" x="1206" y="-836.3" font-family="Times,serif" font-size="14.00">EarthdataAuthMixin</text>
<polyline fill="none" stroke="black" points="1119,-828.5 1440,-828.5 "/>
<text text-anchor="start" x="1210" y="-813.3" font-family="Times,serif" font-size="14.00">auth</text>
<text text-anchor="start" x="1210" y="-798.3" font-family="Times,serif" font-size="14.00">s3login_credentials</text>
<text text-anchor="start" x="1210" y="-783.3" font-family="Times,serif" font-size="14.00">session</text>
<polyline fill="none" stroke="black" points="1119,-775.5 1440,-775.5 "/>
<text text-anchor="start" x="1127" y="-760.3" font-family="Times,serif" font-size="14.00">earthdata_login(uid, email, s3token): None</text>
</g>
<!-- icepyx.core.query.GenQuery -->
<g id="node3" class="node">
<title>icepyx.core.query.GenQuery</title>
<polygon fill="none" stroke="black" points="689,-766.6 689,-837.4 778,-837.4 778,-766.6 689,-766.6"/>
<text text-anchor="start" x="697" y="-822.2" font-family="Times,serif" font-size="14.00">GenQuery</text>
<polyline fill="none" stroke="black" points="689,-814.4 778,-814.4 "/>
<polyline fill="none" stroke="black" points="689,-789.6 778,-789.6 "/>
<text text-anchor="start" x="731" y="-774.4" font-family="Times,serif" font-size="14.00"> </text>
</g>
<!-- icepyx.core.granules.Granules -->
<g id="node4" class="node">
<title>icepyx.core.granules.Granules</title>
<polygon fill="none" stroke="black" points="178.5,-53 178.5,-167 864.5,-167 864.5,-53 178.5,-53"/>
<text text-anchor="start" x="489" y="-151.8" font-family="Times,serif" font-size="14.00">Granules</text>
<polyline fill="none" stroke="black" points="178.5,-144 864.5,-144 "/>
<text text-anchor="start" x="471.5" y="-128.8" font-family="Times,serif" font-size="14.00">avail : list</text>
<text text-anchor="start" x="471.5" y="-113.8" font-family="Times,serif" font-size="14.00">orderIDs : list</text>
<polyline fill="none" stroke="black" points="178.5,-106 864.5,-106 "/>
<text text-anchor="start" x="186.5" y="-90.8" font-family="Times,serif" font-size="14.00">download(verbose, path, session, restart)</text>
<text text-anchor="start" x="186.5" y="-75.8" font-family="Times,serif" font-size="14.00">get_avail(CMRparams, reqparams, cloud)</text>
<text text-anchor="start" x="186.5" y="-60.8" font-family="Times,serif" font-size="14.00">place_order(CMRparams, reqparams, subsetparams, verbose, subset, session, geom_filepath)</text>
</g>
<!-- icepyx.core.query.Query -->
<g id="node8" class="node">
<title>icepyx.core.query.Query</title>
<polygon fill="none" stroke="black" points="832,-271.5 832,-700.5 1209,-700.5 1209,-271.5 832,-271.5"/>
<text text-anchor="start" x="998.5" y="-685.3" font-family="Times,serif" font-size="14.00">Query</text>
<polyline fill="none" stroke="black" points="832,-677.5 1209,-677.5 "/>
<text text-anchor="start" x="963" y="-662.3" font-family="Times,serif" font-size="14.00">CMRparams</text>
<text text-anchor="start" x="963" y="-647.3" font-family="Times,serif" font-size="14.00">cycles</text>
<text text-anchor="start" x="963" y="-632.3" font-family="Times,serif" font-size="14.00">dataset</text>
<text text-anchor="start" x="963" y="-617.3" font-family="Times,serif" font-size="14.00">dates</text>
<text text-anchor="start" x="963" y="-602.3" font-family="Times,serif" font-size="14.00">end_time</text>
<text text-anchor="start" x="963" y="-587.3" font-family="Times,serif" font-size="14.00">file_vars</text>
<text text-anchor="start" x="963" y="-572.3" font-family="Times,serif" font-size="14.00">granules</text>
<text text-anchor="start" x="963" y="-557.3" font-family="Times,serif" font-size="14.00">order_vars</text>
<text text-anchor="start" x="963" y="-542.3" font-family="Times,serif" font-size="14.00">product</text>
<text text-anchor="start" x="963" y="-527.3" font-family="Times,serif" font-size="14.00">product_version</text>
<text text-anchor="start" x="963" y="-512.3" font-family="Times,serif" font-size="14.00">reqparams</text>
<text text-anchor="start" x="963" y="-497.3" font-family="Times,serif" font-size="14.00">spatial</text>
<text text-anchor="start" x="963" y="-482.3" font-family="Times,serif" font-size="14.00">spatial_extent</text>
<text text-anchor="start" x="963" y="-467.3" font-family="Times,serif" font-size="14.00">start_time</text>
<text text-anchor="start" x="963" y="-452.3" font-family="Times,serif" font-size="14.00">temporal</text>
<text text-anchor="start" x="963" y="-437.3" font-family="Times,serif" font-size="14.00">tracks</text>
<polyline fill="none" stroke="black" points="832,-429.5 1209,-429.5 "/>
<text text-anchor="start" x="840" y="-414.3" font-family="Times,serif" font-size="14.00">avail_granules(ids, cycles, tracks, cloud)</text>
<text text-anchor="start" x="840" y="-399.3" font-family="Times,serif" font-size="14.00">download_granules(path, verbose, subset, restart)</text>
<text text-anchor="start" x="840" y="-384.3" font-family="Times,serif" font-size="14.00">latest_version()</text>
<text text-anchor="start" x="840" y="-369.3" font-family="Times,serif" font-size="14.00">order_granules(verbose, subset, email)</text>
<text text-anchor="start" x="840" y="-354.3" font-family="Times,serif" font-size="14.00">product_all_info()</text>
<text text-anchor="start" x="840" y="-339.3" font-family="Times,serif" font-size="14.00">product_summary_info()</text>
<text text-anchor="start" x="840" y="-324.3" font-family="Times,serif" font-size="14.00">show_custom_options(dictview)</text>
<text text-anchor="start" x="840" y="-309.3" font-family="Times,serif" font-size="14.00">subsetparams()</text>
<text text-anchor="start" x="840" y="-294.3" font-family="Times,serif" font-size="14.00">visualize_elevation()</text>
<text text-anchor="start" x="840" y="-279.3" font-family="Times,serif" font-size="14.00">visualize_spatial_extent()</text>
</g>
<!-- icepyx.core.granules.Granules&#45;&gt;icepyx.core.query.Query -->
<g id="edge9" class="edge">
<title>icepyx.core.granules.Granules&#45;&gt;icepyx.core.query.Query</title>
<path fill="none" stroke="black" d="M513.06,-167.08C511.96,-196.83 516.68,-231.56 539.5,-253 583.01,-293.87 746.96,-249.18 820.31,-271.27"/>
<polygon fill="black" stroke="black" points="820.47,-271.33 827.5,-269.74 831.68,-275.61 824.65,-277.21 820.47,-271.33"/>
<text text-anchor="middle" x="574.5" y="-241.8" font-family="Times,serif" font-size="14.00" fill="green">_granules</text>
</g>
<!-- icepyx.core.granules.Granules&#45;&gt;icepyx.core.query.Query -->
<g id="edge10" class="edge">
<title>icepyx.core.granules.Granules&#45;&gt;icepyx.core.query.Query</title>
<path fill="none" stroke="black" d="M555.71,-167.21C577.63,-197.98 608.98,-233.68 646.5,-253 713.13,-287.31 748.72,-240.66 821,-270.92"/>
<polygon fill="black" stroke="black" points="821.04,-270.94 828.16,-269.82 831.93,-275.96 824.81,-277.08 821.04,-270.94"/>
<text text-anchor="middle" x="681.5" y="-241.8" font-family="Times,serif" font-size="14.00" fill="green">_granules</text>
</g>
<!-- icepyx.core.icesat2data.Icesat2Data -->
<g id="node5" class="node">
<title>icepyx.core.icesat2data.Icesat2Data</title>
<polygon fill="none" stroke="black" points="1636.5,-74.6 1636.5,-145.4 1738.5,-145.4 1738.5,-74.6 1636.5,-74.6"/>
<text text-anchor="start" x="1644.5" y="-130.2" font-family="Times,serif" font-size="14.00">Icesat2Data</text>
<polyline fill="none" stroke="black" points="1636.5,-122.4 1738.5,-122.4 "/>
<polyline fill="none" stroke="black" points="1636.5,-97.6 1738.5,-97.6 "/>
<text text-anchor="start" x="1685" y="-82.4" font-family="Times,serif" font-size="14.00"> </text>
</g>
<!-- icepyx.core.exceptions.NsidcQueryError -->
<g id="node6" class="node">
<title>icepyx.core.exceptions.NsidcQueryError</title>
<polygon fill="none" stroke="black" points="1756.5,-68 1756.5,-152 1896.5,-152 1896.5,-68 1756.5,-68"/>
<text text-anchor="start" x="1764.5" y="-136.8" font-family="Times,serif" font-size="14.00" fill="red">NsidcQueryError</text>
<polyline fill="none" stroke="black" points="1756.5,-129 1896.5,-129 "/>
<text text-anchor="start" x="1784" y="-113.8" font-family="Times,serif" font-size="14.00" fill="red">errmsg</text>
<text text-anchor="start" x="1784" y="-98.8" font-family="Times,serif" font-size="14.00" fill="red">msgtxt : str</text>
<polyline fill="none" stroke="black" points="1756.5,-91 1896.5,-91 "/>
<text text-anchor="start" x="1824" y="-75.8" font-family="Times,serif" font-size="14.00" fill="red"> </text>
</g>
<!-- icepyx.core.exceptions.QueryError -->
<g id="node9" class="node">
<title>icepyx.core.exceptions.QueryError</title>
<polygon fill="none" stroke="black" points="1777,-450.6 1777,-521.4 1876,-521.4 1876,-450.6 1777,-450.6"/>
<text text-anchor="start" x="1785" y="-506.2" font-family="Times,serif" font-size="14.00" fill="red">QueryError</text>
<polyline fill="none" stroke="black" points="1777,-498.4 1876,-498.4 "/>
<polyline fill="none" stroke="black" points="1777,-473.6 1876,-473.6 "/>
<text text-anchor="start" x="1824" y="-458.4" font-family="Times,serif" font-size="14.00" fill="red"> </text>
</g>
<!-- icepyx.core.exceptions.NsidcQueryError&#45;&gt;icepyx.core.exceptions.QueryError -->
<g id="edge1" class="edge">
<title>icepyx.core.exceptions.NsidcQueryError&#45;&gt;icepyx.core.exceptions.QueryError</title>
<path fill="none" stroke="black" d="M1826.5,-152.09C1826.5,-222.81 1826.5,-366.96 1826.5,-440.17"/>
<polygon fill="none" stroke="black" points="1823,-440.44 1826.5,-450.44 1830,-440.44 1823,-440.44"/>
</g>
<!-- icepyx.core.APIformatting.Parameters -->
<g id="node7" class="node">
<title>icepyx.core.APIformatting.Parameters</title>
<polygon fill="none" stroke="black" points="882,-45.5 882,-174.5 1033,-174.5 1033,-45.5 882,-45.5"/>
<text text-anchor="start" x="916" y="-159.3" font-family="Times,serif" font-size="14.00">Parameters</text>
<polyline fill="none" stroke="black" points="882,-151.5 1033,-151.5 "/>
<text text-anchor="start" x="916.5" y="-136.3" font-family="Times,serif" font-size="14.00">fmted_keys</text>
<text text-anchor="start" x="916.5" y="-121.3" font-family="Times,serif" font-size="14.00">partype</text>
<text text-anchor="start" x="916.5" y="-106.3" font-family="Times,serif" font-size="14.00">poss_keys</text>
<polyline fill="none" stroke="black" points="882,-98.5 1033,-98.5 "/>
<text text-anchor="start" x="890" y="-83.3" font-family="Times,serif" font-size="14.00">build_params()</text>
<text text-anchor="start" x="890" y="-68.3" font-family="Times,serif" font-size="14.00">check_req_values()</text>
<text text-anchor="start" x="890" y="-53.3" font-family="Times,serif" font-size="14.00">check_values()</text>
</g>
<!-- icepyx.core.APIformatting.Parameters&#45;&gt;icepyx.core.query.Query -->
<g id="edge5" class="edge">
<title>icepyx.core.APIformatting.Parameters&#45;&gt;icepyx.core.query.Query</title>
<path fill="none" stroke="black" d="M921.54,-174.75C908.63,-192.14 892.48,-209.16 873.5,-220 816.11,-252.77 686.39,-202.06 728.5,-253 753.38,-283.1 780.45,-255.71 820.63,-271.12"/>
<polygon fill="black" stroke="black" points="820.87,-271.24 828.01,-270.18 831.73,-276.35 824.6,-277.41 820.87,-271.24"/>
<text text-anchor="middle" x="776.5" y="-241.8" font-family="Times,serif" font-size="14.00" fill="green">_CMRparams</text>
</g>
<!-- icepyx.core.APIformatting.Parameters&#45;&gt;icepyx.core.query.Query -->
<g id="edge6" class="edge">
<title>icepyx.core.APIformatting.Parameters&#45;&gt;icepyx.core.query.Query</title>
<path fill="none" stroke="black" d="M913.74,-174.63C901.59,-190.28 887.79,-206.42 873.5,-220 863.31,-229.68 854.02,-225.55 847.5,-238 844.41,-243.91 845.4,-246.67 847.5,-253 848.3,-255.42 849.14,-257.84 850.02,-260.25"/>
<polygon fill="black" stroke="black" points="850.03,-260.29 855.93,-264.45 854.35,-271.49 848.46,-267.33 850.03,-260.29"/>
<text text-anchor="middle" x="890" y="-241.8" font-family="Times,serif" font-size="14.00" fill="green">_reqparams</text>
</g>
<!-- icepyx.core.APIformatting.Parameters&#45;&gt;icepyx.core.query.Query -->
<g id="edge7" class="edge">
<title>icepyx.core.APIformatting.Parameters&#45;&gt;icepyx.core.query.Query</title>
<path fill="none" stroke="black" d="M956.3,-174.63C955.97,-194.88 955.66,-217.38 955.5,-238 955.45,-244.67 954.59,-246.4 955.5,-253 955.78,-255.07 956.08,-257.14 956.39,-259.22"/>
<polygon fill="black" stroke="black" points="956.41,-259.34 961.31,-264.63 958.31,-271.19 953.41,-265.9 956.41,-259.34"/>
<text text-anchor="middle" x="1009.5" y="-241.8" font-family="Times,serif" font-size="14.00" fill="green">_subsetparams</text>
</g>
<!-- icepyx.core.APIformatting.Parameters&#45;&gt;icepyx.core.query.Query -->
<g id="edge8" class="edge">
<title>icepyx.core.APIformatting.Parameters&#45;&gt;icepyx.core.query.Query</title>
<path fill="none" stroke="black" d="M1025.07,-174.57C1040.7,-193.34 1055.18,-215.05 1063.5,-238 1066.02,-244.97 1068.02,-252.1 1069.56,-259.34"/>
<polygon fill="black" stroke="black" points="1069.57,-259.4 1074.54,-264.61 1071.64,-271.21 1066.67,-266 1069.57,-259.4"/>
<text text-anchor="middle" x="1121.5" y="-241.8" font-family="Times,serif" font-size="14.00" fill="green">_subsetparams</text>
</g>
<!-- icepyx.core.query.Query&#45;&gt;icepyx.core.auth.EarthdataAuthMixin -->
<g id="edge2" class="edge">
<title>icepyx.core.query.Query&#45;&gt;icepyx.core.auth.EarthdataAuthMixin</title>
<path fill="none" stroke="black" d="M1196.84,-700.79C1209.74,-716.43 1221.93,-731.21 1232.79,-744.37"/>
<polygon fill="none" stroke="black" points="1230.3,-746.86 1239.37,-752.34 1235.7,-742.4 1230.3,-746.86"/>
</g>
<!-- icepyx.core.query.Query&#45;&gt;icepyx.core.query.GenQuery -->
<g id="edge3" class="edge">
<title>icepyx.core.query.Query&#45;&gt;icepyx.core.query.GenQuery</title>
<path fill="none" stroke="black" d="M862.3,-700.57C851.56,-712.2 840.59,-723.44 829.5,-734 816.58,-746.3 801.24,-758.04 786.65,-768.17"/>
<polygon fill="none" stroke="black" points="784.47,-765.41 778.17,-773.93 788.41,-771.2 784.47,-765.41"/>
</g>
<!-- icepyx.core.read.Read -->
<g id="node10" class="node">
<title>icepyx.core.read.Read</title>
<polygon fill="none" stroke="black" points="1540.5,-444 1540.5,-528 1642.5,-528 1642.5,-444 1540.5,-444"/>
<text text-anchor="start" x="1573" y="-512.8" font-family="Times,serif" font-size="14.00">Read</text>
<polyline fill="none" stroke="black" points="1540.5,-505 1642.5,-505 "/>
<text text-anchor="start" x="1548.5" y="-489.8" font-family="Times,serif" font-size="14.00">data_source</text>
<text text-anchor="start" x="1548.5" y="-474.8" font-family="Times,serif" font-size="14.00">vars</text>
<polyline fill="none" stroke="black" points="1540.5,-467 1642.5,-467 "/>
<text text-anchor="start" x="1571" y="-451.8" font-family="Times,serif" font-size="14.00">load()</text>
</g>
<!-- icepyx.core.spatial.Spatial -->
<g id="node11" class="node">
<title>icepyx.core.spatial.Spatial</title>
<polygon fill="none" stroke="black" points="574,-421.5 574,-550.5 695,-550.5 695,-421.5 574,-421.5"/>
<text text-anchor="start" x="609" y="-535.3" font-family="Times,serif" font-size="14.00">Spatial</text>
<polyline fill="none" stroke="black" points="574,-527.5 695,-527.5 "/>
<text text-anchor="start" x="585" y="-512.3" font-family="Times,serif" font-size="14.00">extent</text>
<text text-anchor="start" x="585" y="-497.3" font-family="Times,serif" font-size="14.00">extent_as_gdf</text>
<text text-anchor="start" x="585" y="-482.3" font-family="Times,serif" font-size="14.00">extent_file</text>
<text text-anchor="start" x="585" y="-467.3" font-family="Times,serif" font-size="14.00">extent_type</text>
<polyline fill="none" stroke="black" points="574,-459.5 695,-459.5 "/>
<text text-anchor="start" x="582" y="-444.3" font-family="Times,serif" font-size="14.00">fmt_for_CMR()</text>
<text text-anchor="start" x="582" y="-429.3" font-family="Times,serif" font-size="14.00">fmt_for_EGI()</text>
</g>
<!-- icepyx.core.spatial.Spatial&#45;&gt;icepyx.core.query.GenQuery -->
<g id="edge11" class="edge">
<title>icepyx.core.spatial.Spatial&#45;&gt;icepyx.core.query.GenQuery</title>
<path fill="none" stroke="black" d="M611.52,-550.52C596.61,-603.21 585.32,-678.25 617.5,-734 630.64,-756.76 654.78,-772.48 677.65,-782.95"/>
<polygon fill="black" stroke="black" points="677.69,-782.96 684.78,-781.63 688.73,-787.67 681.64,-788.99 677.69,-782.96"/>
<text text-anchor="middle" x="645" y="-722.8" font-family="Times,serif" font-size="14.00" fill="green">_spatial</text>
</g>
<!-- icepyx.core.spatial.Spatial&#45;&gt;icepyx.core.query.GenQuery -->
<g id="edge12" class="edge">
<title>icepyx.core.spatial.Spatial&#45;&gt;icepyx.core.query.GenQuery</title>
<path fill="none" stroke="black" d="M643.21,-550.71C651.59,-601.67 666.7,-674.25 691.5,-734 694.54,-741.33 698.35,-748.76 702.42,-755.87"/>
<polygon fill="black" stroke="black" points="702.55,-756.1 709.07,-759.17 708.74,-766.38 702.22,-763.3 702.55,-756.1"/>
<text text-anchor="middle" x="719" y="-722.8" font-family="Times,serif" font-size="14.00" fill="green">_spatial</text>
</g>
<!-- icepyx.core.temporal.Temporal -->
<g id="node12" class="node">
<title>icepyx.core.temporal.Temporal</title>
<polygon fill="none" stroke="black" points="731,-444 731,-528 814,-528 814,-444 731,-444"/>
<text text-anchor="start" x="739" y="-512.8" font-family="Times,serif" font-size="14.00">Temporal</text>
<polyline fill="none" stroke="black" points="731,-505 814,-505 "/>
<text text-anchor="start" x="755" y="-489.8" font-family="Times,serif" font-size="14.00">end</text>
<text text-anchor="start" x="755" y="-474.8" font-family="Times,serif" font-size="14.00">start</text>
<polyline fill="none" stroke="black" points="731,-467 814,-467 "/>
<text text-anchor="start" x="770" y="-451.8" font-family="Times,serif" font-size="14.00"> </text>
</g>
<!-- icepyx.core.temporal.Temporal&#45;&gt;icepyx.core.query.GenQuery -->
<g id="edge13" class="edge">
<title>icepyx.core.temporal.Temporal&#45;&gt;icepyx.core.query.GenQuery</title>
<path fill="none" stroke="black" d="M770.84,-528.34C768.39,-577.61 762.71,-662.28 750.5,-734 749.35,-740.74 747.87,-747.79 746.27,-754.69"/>
<polygon fill="black" stroke="black" points="746.24,-754.8 748.7,-761.58 743.39,-766.45 740.93,-759.67 746.24,-754.8"/>
<text text-anchor="middle" x="789.5" y="-722.8" font-family="Times,serif" font-size="14.00" fill="green">_temporal</text>
</g>
<!-- icepyx.core.variables.Variables -->
<g id="node13" class="node">
<title>icepyx.core.variables.Variables</title>
<polygon fill="none" stroke="black" points="1243,-38 1243,-182 1618,-182 1618,-38 1243,-38"/>
<text text-anchor="start" x="1397" y="-166.8" font-family="Times,serif" font-size="14.00">Variables</text>
<polyline fill="none" stroke="black" points="1243,-159 1618,-159 "/>
<text text-anchor="start" x="1343" y="-143.8" font-family="Times,serif" font-size="14.00">path : NoneType</text>
<text text-anchor="start" x="1343" y="-128.8" font-family="Times,serif" font-size="14.00">product : NoneType</text>
<text text-anchor="start" x="1343" y="-113.8" font-family="Times,serif" font-size="14.00">wanted : dict, NoneType</text>
<polyline fill="none" stroke="black" points="1243,-106 1618,-106 "/>
<text text-anchor="start" x="1251" y="-90.8" font-family="Times,serif" font-size="14.00">append(defaults, var_list, beam_list, keyword_list)</text>
<text text-anchor="start" x="1251" y="-75.8" font-family="Times,serif" font-size="14.00">avail(options, internal)</text>
<text text-anchor="start" x="1251" y="-60.8" font-family="Times,serif" font-size="14.00">parse_var_list(varlist, tiered, tiered_vars)</text>
<text text-anchor="start" x="1251" y="-45.8" font-family="Times,serif" font-size="14.00">remove(all, var_list, beam_list, keyword_list)</text>
</g>
<!-- icepyx.core.variables.Variables&#45;&gt;icepyx.core.auth.EarthdataAuthMixin -->
<g id="edge4" class="edge">
<title>icepyx.core.variables.Variables&#45;&gt;icepyx.core.auth.EarthdataAuthMixin</title>
<path fill="none" stroke="black" d="M1473.31,-182.19C1482.21,-204.41 1487.77,-229.3 1483.5,-253 1449.9,-439.56 1356.78,-645.52 1308.85,-743.32"/>
<polygon fill="none" stroke="black" points="1305.63,-741.92 1304.35,-752.44 1311.91,-745.02 1305.63,-741.92"/>
</g>
<!-- icepyx.core.variables.Variables&#45;&gt;icepyx.core.query.Query -->
<g id="edge14" class="edge">
<title>icepyx.core.variables.Variables&#45;&gt;icepyx.core.query.Query</title>
<path fill="none" stroke="black" d="M1294.48,-182.1C1267.73,-198.78 1240.77,-217.69 1217.5,-238 1208.51,-245.84 1199.63,-254.14 1190.9,-262.75"/>
<polygon fill="black" stroke="black" points="1190.69,-262.96 1189.29,-270.04 1182.22,-271.46 1183.62,-264.39 1190.69,-262.96"/>
<text text-anchor="middle" x="1259.5" y="-241.8" font-family="Times,serif" font-size="14.00" fill="green">_order_vars</text>
</g>
<!-- icepyx.core.variables.Variables&#45;&gt;icepyx.core.query.Query -->
<g id="edge15" class="edge">
<title>icepyx.core.variables.Variables&#45;&gt;icepyx.core.query.Query</title>
<path fill="none" stroke="black" d="M1369.43,-182.21C1348.56,-205.45 1324.64,-230.93 1301.5,-253 1275.37,-277.92 1246.93,-303.26 1218.5,-327.59"/>
<polygon fill="black" stroke="black" points="1218.4,-327.67 1216.43,-334.61 1209.27,-335.46 1211.24,-328.52 1218.4,-327.67"/>
<text text-anchor="middle" x="1358.5" y="-241.8" font-family="Times,serif" font-size="14.00" fill="green">_order_vars</text>
</g>
<!-- icepyx.core.variables.Variables&#45;&gt;icepyx.core.query.Query -->
<g id="edge16" class="edge">
<title>icepyx.core.variables.Variables&#45;&gt;icepyx.core.query.Query</title>
<path fill="none" stroke="black" d="M1429.11,-182.31C1425.75,-206.46 1418.67,-232.48 1404.5,-253 1359.14,-318.71 1288.53,-369 1220.16,-405.68"/>
<polygon fill="black" stroke="black" points="1219.83,-405.85 1216.39,-412.19 1209.22,-411.45 1212.66,-405.11 1219.83,-405.85"/>
<text text-anchor="middle" x="1446" y="-241.8" font-family="Times,serif" font-size="14.00" fill="green">_file_vars</text>
</g>
<!-- icepyx.core.variables.Variables&#45;&gt;icepyx.core.read.Read -->
<g id="edge17" class="edge">
<title>icepyx.core.variables.Variables&#45;&gt;icepyx.core.read.Read</title>
<path fill="none" stroke="black" d="M1491.78,-182.03C1504.65,-199.49 1517.14,-218.73 1526.5,-238 1557.11,-301.01 1574.7,-380.31 1583.67,-431.8"/>
<polygon fill="black" stroke="black" points="1583.73,-432.11 1588.67,-437.37 1585.72,-443.95 1580.78,-438.7 1583.73,-432.11"/>
<text text-anchor="middle" x="1571" y="-241.8" font-family="Times,serif" font-size="14.00" fill="green">_read_vars</text>
</g>
<!-- icepyx.core.visualization.Visualize -->
<g id="node14" class="node">
<title>icepyx.core.visualization.Visualize</title>
<polygon fill="none" stroke="black" points="1914,-0.5 1914,-219.5 2243,-219.5 2243,-0.5 1914,-0.5"/>
<text text-anchor="start" x="2046.5" y="-204.3" font-family="Times,serif" font-size="14.00">Visualize</text>
<polyline fill="none" stroke="black" points="1914,-196.5 2243,-196.5 "/>
<text text-anchor="start" x="1994" y="-181.3" font-family="Times,serif" font-size="14.00">bbox : list</text>
<text text-anchor="start" x="1994" y="-166.3" font-family="Times,serif" font-size="14.00">cycles : NoneType</text>
<text text-anchor="start" x="1994" y="-151.3" font-family="Times,serif" font-size="14.00">date_range : NoneType</text>
<text text-anchor="start" x="1994" y="-136.3" font-family="Times,serif" font-size="14.00">product : str, NoneType</text>
<text text-anchor="start" x="1994" y="-121.3" font-family="Times,serif" font-size="14.00">tracks : NoneType</text>
<polyline fill="none" stroke="black" points="1914,-113.5 2243,-113.5 "/>
<text text-anchor="start" x="1922" y="-98.3" font-family="Times,serif" font-size="14.00">generate_OA_parameters(): list</text>
<text text-anchor="start" x="1922" y="-83.3" font-family="Times,serif" font-size="14.00">grid_bbox(binsize): list</text>
<text text-anchor="start" x="1922" y="-68.3" font-family="Times,serif" font-size="14.00">make_request(base_url, payload)</text>
<text text-anchor="start" x="1922" y="-53.3" font-family="Times,serif" font-size="14.00">parallel_request_OA(): da.array</text>
<text text-anchor="start" x="1922" y="-38.3" font-family="Times,serif" font-size="14.00">query_icesat2_filelist(): tuple</text>
<text text-anchor="start" x="1922" y="-23.3" font-family="Times,serif" font-size="14.00">request_OA_data(paras): da.array</text>
<text text-anchor="start" x="1922" y="-8.3" font-family="Times,serif" font-size="14.00">viz_elevation(): (hv.DynamicMap, hv.Layout)</text>
</g>
</g>
</svg>
