<?xml version="1.0" encoding="UTF-8" standalone="no"?>
<!DOCTYPE svg PUBLIC "-//W3C//DTD SVG 1.1//EN"
 "http://www.w3.org/Graphics/SVG/1.1/DTD/svg11.dtd">
<!-- Generated by graphviz version 2.43.0 (0)
 -->
<!-- Title: classes_user_uml Pages: 1 -->
<svg width="2211pt" height="832pt"
 viewBox="0.00 0.00 2211.00 831.80" xmlns="http://www.w3.org/2000/svg" xmlns:xlink="http://www.w3.org/1999/xlink">
<g id="graph0" class="graph" transform="scale(1 1) rotate(0) translate(4 827.8)">
<title>classes_user_uml</title>
<polygon fill="white" stroke="transparent" points="-4,4 -4,-827.8 2207,-827.8 2207,4 -4,4"/>
<!-- icepyx.core.Earthdata.Earthdata -->
<g id="node1" class="node">
<title>icepyx.core.Earthdata.Earthdata</title>
<polygon fill="none" stroke="black" points="0,-38 0,-182 169,-182 169,-38 0,-38"/>
<text text-anchor="start" x="48" y="-166.8" font-family="Times,serif" font-size="14.00">Earthdata</text>
<polyline fill="none" stroke="black" points="0,-159 169,-159 "/>
<text text-anchor="start" x="8" y="-143.8" font-family="Times,serif" font-size="14.00">capability_url</text>
<text text-anchor="start" x="8" y="-128.8" font-family="Times,serif" font-size="14.00">email</text>
<text text-anchor="start" x="8" y="-113.8" font-family="Times,serif" font-size="14.00">netrc : NoneType</text>
<text text-anchor="start" x="8" y="-98.8" font-family="Times,serif" font-size="14.00">pswd : NoneType, str</text>
<text text-anchor="start" x="8" y="-83.8" font-family="Times,serif" font-size="14.00">session : Session</text>
<text text-anchor="start" x="8" y="-68.8" font-family="Times,serif" font-size="14.00">uid</text>
<polyline fill="none" stroke="black" points="0,-61 169,-61 "/>
<text text-anchor="start" x="29" y="-45.8" font-family="Times,serif" font-size="14.00">login(attempts)</text>
</g>
<!-- icepyx.core.query.GenQuery -->
<g id="node2" class="node">
<title>icepyx.core.query.GenQuery</title>
<polygon fill="none" stroke="black" points="1536,-752.5 1536,-823.3 1625,-823.3 1625,-752.5 1536,-752.5"/>
<text text-anchor="start" x="1544" y="-808.1" font-family="Times,serif" font-size="14.00">GenQuery</text>
<polyline fill="none" stroke="black" points="1536,-800.3 1625,-800.3 "/>
<polyline fill="none" stroke="black" points="1536,-775.5 1625,-775.5 "/>
<text text-anchor="start" x="1578" y="-760.3" font-family="Times,serif" font-size="14.00"> </text>
</g>
<!-- icepyx.core.granules.Granules -->
<g id="node3" class="node">
<title>icepyx.core.granules.Granules</title>
<polygon fill="none" stroke="black" points="186.5,-53 186.5,-167 872.5,-167 872.5,-53 186.5,-53"/>
<text text-anchor="start" x="497" y="-151.8" font-family="Times,serif" font-size="14.00">Granules</text>
<polyline fill="none" stroke="black" points="186.5,-144 872.5,-144 "/>
<text text-anchor="start" x="479.5" y="-128.8" font-family="Times,serif" font-size="14.00">avail : list</text>
<text text-anchor="start" x="479.5" y="-113.8" font-family="Times,serif" font-size="14.00">orderIDs : list</text>
<polyline fill="none" stroke="black" points="186.5,-106 872.5,-106 "/>
<text text-anchor="start" x="194.5" y="-90.8" font-family="Times,serif" font-size="14.00">download(verbose, path, session, restart)</text>
<text text-anchor="start" x="194.5" y="-75.8" font-family="Times,serif" font-size="14.00">get_avail(CMRparams, reqparams, cloud)</text>
<text text-anchor="start" x="194.5" y="-60.8" font-family="Times,serif" font-size="14.00">place_order(CMRparams, reqparams, subsetparams, verbose, subset, session, geom_filepath)</text>
</g>
<!-- icepyx.core.query.Query -->
<g id="node7" class="node">
<title>icepyx.core.query.Query</title>
<polygon fill="none" stroke="black" points="840,-271.5 840,-700.5 1217,-700.5 1217,-271.5 840,-271.5"/>
<text text-anchor="start" x="1006.5" y="-685.3" font-family="Times,serif" font-size="14.00">Query</text>
<polyline fill="none" stroke="black" points="840,-677.5 1217,-677.5 "/>
<text text-anchor="start" x="971" y="-662.3" font-family="Times,serif" font-size="14.00">CMRparams</text>
<text text-anchor="start" x="971" y="-647.3" font-family="Times,serif" font-size="14.00">cycles</text>
<text text-anchor="start" x="971" y="-632.3" font-family="Times,serif" font-size="14.00">dataset</text>
<text text-anchor="start" x="971" y="-617.3" font-family="Times,serif" font-size="14.00">dates</text>
<text text-anchor="start" x="971" y="-602.3" font-family="Times,serif" font-size="14.00">end_time</text>
<text text-anchor="start" x="971" y="-587.3" font-family="Times,serif" font-size="14.00">file_vars</text>
<text text-anchor="start" x="971" y="-572.3" font-family="Times,serif" font-size="14.00">granules</text>
<text text-anchor="start" x="971" y="-557.3" font-family="Times,serif" font-size="14.00">order_vars</text>
<text text-anchor="start" x="971" y="-542.3" font-family="Times,serif" font-size="14.00">product</text>
<text text-anchor="start" x="971" y="-527.3" font-family="Times,serif" font-size="14.00">product_version</text>
<text text-anchor="start" x="971" y="-512.3" font-family="Times,serif" font-size="14.00">reqparams</text>
<text text-anchor="start" x="971" y="-497.3" font-family="Times,serif" font-size="14.00">spatial</text>
<text text-anchor="start" x="971" y="-482.3" font-family="Times,serif" font-size="14.00">spatial_extent</text>
<text text-anchor="start" x="971" y="-467.3" font-family="Times,serif" font-size="14.00">start_time</text>
<text text-anchor="start" x="971" y="-452.3" font-family="Times,serif" font-size="14.00">tracks</text>
<polyline fill="none" stroke="black" points="840,-444.5 1217,-444.5 "/>
<text text-anchor="start" x="848" y="-429.3" font-family="Times,serif" font-size="14.00">avail_granules(ids, cycles, tracks, cloud)</text>
<text text-anchor="start" x="848" y="-414.3" font-family="Times,serif" font-size="14.00">download_granules(path, verbose, subset, restart)</text>
<text text-anchor="start" x="848" y="-399.3" font-family="Times,serif" font-size="14.00">earthdata_login(uid, email, s3token)</text>
<text text-anchor="start" x="848" y="-384.3" font-family="Times,serif" font-size="14.00">latest_version()</text>
<text text-anchor="start" x="848" y="-369.3" font-family="Times,serif" font-size="14.00">order_granules(verbose, subset, email)</text>
<text text-anchor="start" x="848" y="-354.3" font-family="Times,serif" font-size="14.00">product_all_info()</text>
<text text-anchor="start" x="848" y="-339.3" font-family="Times,serif" font-size="14.00">product_summary_info()</text>
<text text-anchor="start" x="848" y="-324.3" font-family="Times,serif" font-size="14.00">show_custom_options(dictview)</text>
<text text-anchor="start" x="848" y="-309.3" font-family="Times,serif" font-size="14.00">subsetparams()</text>
<text text-anchor="start" x="848" y="-294.3" font-family="Times,serif" font-size="14.00">visualize_elevation()</text>
<text text-anchor="start" x="848" y="-279.3" font-family="Times,serif" font-size="14.00">visualize_spatial_extent()</text>
</g>
<!-- icepyx.core.granules.Granules&#45;&gt;icepyx.core.query.Query -->
<g id="edge7" class="edge">
<title>icepyx.core.granules.Granules&#45;&gt;icepyx.core.query.Query</title>
<path fill="none" stroke="black" d="M524.58,-167.11C524.92,-195.26 529.87,-228.49 547.5,-253 614.24,-345.75 728.21,-402.97 828.46,-437.37"/>
<polygon fill="black" stroke="black" points="828.61,-437.42 835.57,-435.54 839.99,-441.25 833.02,-443.12 828.61,-437.42"/>
<text text-anchor="middle" x="582.5" y="-241.8" font-family="Times,serif" font-size="14.00" fill="green">_granules</text>
</g>
<!-- icepyx.core.granules.Granules&#45;&gt;icepyx.core.query.Query -->
<g id="edge8" class="edge">
<title>icepyx.core.granules.Granules&#45;&gt;icepyx.core.query.Query</title>
<path fill="none" stroke="black" d="M574.38,-167.28C597.84,-194.82 627.97,-227.46 658.5,-253 710.75,-296.72 771.91,-338.33 829.28,-373.92"/>
<polygon fill="black" stroke="black" points="829.35,-373.97 836.56,-373.71 839.57,-380.27 832.36,-380.52 829.35,-373.97"/>
<text text-anchor="middle" x="693.5" y="-241.8" font-family="Times,serif" font-size="14.00" fill="green">_granules</text>
</g>
<!-- icepyx.core.icesat2data.Icesat2Data -->
<g id="node4" class="node">
<title>icepyx.core.icesat2data.Icesat2Data</title>
<polygon fill="none" stroke="black" points="1567.5,-74.6 1567.5,-145.4 1669.5,-145.4 1669.5,-74.6 1567.5,-74.6"/>
<text text-anchor="start" x="1575.5" y="-130.2" font-family="Times,serif" font-size="14.00">Icesat2Data</text>
<polyline fill="none" stroke="black" points="1567.5,-122.4 1669.5,-122.4 "/>
<polyline fill="none" stroke="black" points="1567.5,-97.6 1669.5,-97.6 "/>
<text text-anchor="start" x="1616" y="-82.4" font-family="Times,serif" font-size="14.00"> </text>
</g>
<!-- icepyx.core.exceptions.NsidcQueryError -->
<g id="node5" class="node">
<title>icepyx.core.exceptions.NsidcQueryError</title>
<polygon fill="none" stroke="black" points="1716.5,-68 1716.5,-152 1856.5,-152 1856.5,-68 1716.5,-68"/>
<text text-anchor="start" x="1724.5" y="-136.8" font-family="Times,serif" font-size="14.00" fill="red">NsidcQueryError</text>
<polyline fill="none" stroke="black" points="1716.5,-129 1856.5,-129 "/>
<text text-anchor="start" x="1744" y="-113.8" font-family="Times,serif" font-size="14.00" fill="red">errmsg</text>
<text text-anchor="start" x="1744" y="-98.8" font-family="Times,serif" font-size="14.00" fill="red">msgtxt : str</text>
<polyline fill="none" stroke="black" points="1716.5,-91 1856.5,-91 "/>
<text text-anchor="start" x="1784" y="-75.8" font-family="Times,serif" font-size="14.00" fill="red"> </text>
</g>
<!-- icepyx.core.exceptions.QueryError -->
<g id="node8" class="node">
<title>icepyx.core.exceptions.QueryError</title>
<polygon fill="none" stroke="black" points="1737,-450.6 1737,-521.4 1836,-521.4 1836,-450.6 1737,-450.6"/>
<text text-anchor="start" x="1745" y="-506.2" font-family="Times,serif" font-size="14.00" fill="red">QueryError</text>
<polyline fill="none" stroke="black" points="1737,-498.4 1836,-498.4 "/>
<polyline fill="none" stroke="black" points="1737,-473.6 1836,-473.6 "/>
<text text-anchor="start" x="1784" y="-458.4" font-family="Times,serif" font-size="14.00" fill="red"> </text>
</g>
<!-- icepyx.core.exceptions.NsidcQueryError&#45;&gt;icepyx.core.exceptions.QueryError -->
<g id="edge1" class="edge">
<title>icepyx.core.exceptions.NsidcQueryError&#45;&gt;icepyx.core.exceptions.QueryError</title>
<path fill="none" stroke="black" d="M1786.5,-152.09C1786.5,-222.81 1786.5,-366.96 1786.5,-440.17"/>
<polygon fill="none" stroke="black" points="1783,-440.44 1786.5,-450.44 1790,-440.44 1783,-440.44"/>
</g>
<!-- icepyx.core.APIformatting.Parameters -->
<g id="node6" class="node">
<title>icepyx.core.APIformatting.Parameters</title>
<polygon fill="none" stroke="black" points="890,-45.5 890,-174.5 1041,-174.5 1041,-45.5 890,-45.5"/>
<text text-anchor="start" x="924" y="-159.3" font-family="Times,serif" font-size="14.00">Parameters</text>
<polyline fill="none" stroke="black" points="890,-151.5 1041,-151.5 "/>
<text text-anchor="start" x="924.5" y="-136.3" font-family="Times,serif" font-size="14.00">fmted_keys</text>
<text text-anchor="start" x="924.5" y="-121.3" font-family="Times,serif" font-size="14.00">partype</text>
<text text-anchor="start" x="924.5" y="-106.3" font-family="Times,serif" font-size="14.00">poss_keys</text>
<polyline fill="none" stroke="black" points="890,-98.5 1041,-98.5 "/>
<text text-anchor="start" x="898" y="-83.3" font-family="Times,serif" font-size="14.00">build_params()</text>
<text text-anchor="start" x="898" y="-68.3" font-family="Times,serif" font-size="14.00">check_req_values()</text>
<text text-anchor="start" x="898" y="-53.3" font-family="Times,serif" font-size="14.00">check_values()</text>
</g>
<!-- icepyx.core.APIformatting.Parameters&#45;&gt;icepyx.core.query.Query -->
<g id="edge3" class="edge">
<title>icepyx.core.APIformatting.Parameters&#45;&gt;icepyx.core.query.Query</title>
<path fill="none" stroke="black" d="M929.54,-174.75C916.63,-192.14 900.48,-209.16 881.5,-220 824.11,-252.77 707.77,-193.48 736.5,-253 757.91,-297.35 792.37,-335.82 830.23,-368"/>
<polygon fill="black" stroke="black" points="830.69,-368.38 837.86,-369.13 839.93,-376.04 832.76,-375.29 830.69,-368.38"/>
<text text-anchor="middle" x="784.5" y="-241.8" font-family="Times,serif" font-size="14.00" fill="green">_CMRparams</text>
</g>
<!-- icepyx.core.APIformatting.Parameters&#45;&gt;icepyx.core.query.Query -->
<g id="edge4" class="edge">
<title>icepyx.core.APIformatting.Parameters&#45;&gt;icepyx.core.query.Query</title>
<path fill="none" stroke="black" d="M921.74,-174.63C909.59,-190.28 895.79,-206.42 881.5,-220 871.31,-229.68 862.02,-225.55 855.5,-238 852.41,-243.91 853.4,-246.67 855.5,-253 856.3,-255.42 857.14,-257.84 858.02,-260.25"/>
<polygon fill="black" stroke="black" points="858.03,-260.29 863.93,-264.45 862.35,-271.49 856.46,-267.33 858.03,-260.29"/>
<text text-anchor="middle" x="898" y="-241.8" font-family="Times,serif" font-size="14.00" fill="green">_reqparams</text>
</g>
<!-- icepyx.core.APIformatting.Parameters&#45;&gt;icepyx.core.query.Query -->
<g id="edge5" class="edge">
<title>icepyx.core.APIformatting.Parameters&#45;&gt;icepyx.core.query.Query</title>
<path fill="none" stroke="black" d="M964.3,-174.63C963.97,-194.88 963.66,-217.38 963.5,-238 963.45,-244.67 962.59,-246.4 963.5,-253 963.78,-255.07 964.08,-257.14 964.39,-259.22"/>
<polygon fill="black" stroke="black" points="964.41,-259.34 969.31,-264.63 966.31,-271.19 961.41,-265.9 964.41,-259.34"/>
<text text-anchor="middle" x="1017.5" y="-241.8" font-family="Times,serif" font-size="14.00" fill="green">_subsetparams</text>
</g>
<!-- icepyx.core.APIformatting.Parameters&#45;&gt;icepyx.core.query.Query -->
<g id="edge6" class="edge">
<title>icepyx.core.APIformatting.Parameters&#45;&gt;icepyx.core.query.Query</title>
<path fill="none" stroke="black" d="M1033.07,-174.57C1048.7,-193.34 1063.18,-215.05 1071.5,-238 1074.02,-244.97 1076.02,-252.1 1077.56,-259.34"/>
<polygon fill="black" stroke="black" points="1077.57,-259.4 1082.54,-264.61 1079.64,-271.21 1074.67,-266 1077.57,-259.4"/>
<text text-anchor="middle" x="1129.5" y="-241.8" font-family="Times,serif" font-size="14.00" fill="green">_subsetparams</text>
</g>
<!-- icepyx.core.query.Query&#45;&gt;icepyx.core.query.GenQuery -->
<g id="edge2" class="edge">
<title>icepyx.core.query.Query&#45;&gt;icepyx.core.query.GenQuery</title>
<path fill="none" stroke="black" d="M1217.31,-589.58C1326.44,-648.87 1455.84,-719.18 1526.97,-757.82"/>
<polygon fill="none" stroke="black" points="1525.32,-760.9 1535.77,-762.6 1528.66,-754.75 1525.32,-760.9"/>
</g>
<!-- icepyx.core.read.Read -->
<g id="node9" class="node">
<title>icepyx.core.read.Read</title>
<polygon fill="none" stroke="black" points="1477.5,-436.5 1477.5,-535.5 1579.5,-535.5 1579.5,-436.5 1477.5,-436.5"/>
<text text-anchor="start" x="1510" y="-520.3" font-family="Times,serif" font-size="14.00">Read</text>
<polyline fill="none" stroke="black" points="1477.5,-512.5 1579.5,-512.5 "/>
<text text-anchor="start" x="1485.5" y="-497.3" font-family="Times,serif" font-size="14.00">data_source</text>
<text text-anchor="start" x="1485.5" y="-482.3" font-family="Times,serif" font-size="14.00">is2catalog</text>
<text text-anchor="start" x="1485.5" y="-467.3" font-family="Times,serif" font-size="14.00">vars</text>
<polyline fill="none" stroke="black" points="1477.5,-459.5 1579.5,-459.5 "/>
<text text-anchor="start" x="1508" y="-444.3" font-family="Times,serif" font-size="14.00">load()</text>
</g>
<!-- icepyx.core.spatial.Spatial -->
<g id="node10" class="node">
<title>icepyx.core.spatial.Spatial</title>
<polygon fill="none" stroke="black" points="1598,-421.5 1598,-550.5 1719,-550.5 1719,-421.5 1598,-421.5"/>
<text text-anchor="start" x="1633" y="-535.3" font-family="Times,serif" font-size="14.00">Spatial</text>
<polyline fill="none" stroke="black" points="1598,-527.5 1719,-527.5 "/>
<text text-anchor="start" x="1609" y="-512.3" font-family="Times,serif" font-size="14.00">extent</text>
<text text-anchor="start" x="1609" y="-497.3" font-family="Times,serif" font-size="14.00">extent_as_gdf</text>
<text text-anchor="start" x="1609" y="-482.3" font-family="Times,serif" font-size="14.00">extent_file</text>
<text text-anchor="start" x="1609" y="-467.3" font-family="Times,serif" font-size="14.00">extent_type</text>
<polyline fill="none" stroke="black" points="1598,-459.5 1719,-459.5 "/>
<text text-anchor="start" x="1606" y="-444.3" font-family="Times,serif" font-size="14.00">fmt_for_CMR()</text>
<text text-anchor="start" x="1606" y="-429.3" font-family="Times,serif" font-size="14.00">fmt_for_EGI()</text>
</g>
<!-- icepyx.core.spatial.Spatial&#45;&gt;icepyx.core.query.GenQuery -->
<g id="edge9" class="edge">
<title>icepyx.core.spatial.Spatial&#45;&gt;icepyx.core.query.GenQuery</title>
<path fill="none" stroke="black" d="M1638.73,-550.52C1625.18,-593.25 1606.47,-650.76 1588.5,-701 1585.61,-709.08 1583.14,-710.58 1581.5,-719 1580.17,-725.81 1579.4,-733.08 1579,-740.23"/>
<polygon fill="black" stroke="black" points="1578.99,-740.47 1582.82,-746.58 1578.64,-752.46 1574.82,-746.35 1578.99,-740.47"/>
<text text-anchor="middle" x="1609" y="-722.8" font-family="Times,serif" font-size="14.00" fill="green">_spatial</text>
</g>
<!-- icepyx.core.spatial.Spatial&#45;&gt;icepyx.core.query.GenQuery -->
<g id="edge10" class="edge">
<title>icepyx.core.spatial.Spatial&#45;&gt;icepyx.core.query.GenQuery</title>
<path fill="none" stroke="black" d="M1664.87,-550.65C1667.32,-602.57 1664.39,-676.47 1636.5,-734 1635.07,-736.94 1633.41,-739.81 1631.56,-742.58"/>
<polygon fill="black" stroke="black" points="1631.49,-742.68 1631.02,-749.87 1624.19,-752.21 1624.66,-745.01 1631.49,-742.68"/>
<text text-anchor="middle" x="1670" y="-722.8" font-family="Times,serif" font-size="14.00" fill="green">_spatial</text>
</g>
<!-- icepyx.core.variables.Variables -->
<g id="node11" class="node">
<title>icepyx.core.variables.Variables</title>
<polygon fill="none" stroke="black" points="1159,-38 1159,-182 1534,-182 1534,-38 1159,-38"/>
<text text-anchor="start" x="1313" y="-166.8" font-family="Times,serif" font-size="14.00">Variables</text>
<polyline fill="none" stroke="black" points="1159,-159 1534,-159 "/>
<text text-anchor="start" x="1259" y="-143.8" font-family="Times,serif" font-size="14.00">path : NoneType</text>
<text text-anchor="start" x="1259" y="-128.8" font-family="Times,serif" font-size="14.00">product : NoneType</text>
<text text-anchor="start" x="1259" y="-113.8" font-family="Times,serif" font-size="14.00">wanted : NoneType, dict</text>
<polyline fill="none" stroke="black" points="1159,-106 1534,-106 "/>
<text text-anchor="start" x="1167" y="-90.8" font-family="Times,serif" font-size="14.00">append(defaults, var_list, beam_list, keyword_list)</text>
<text text-anchor="start" x="1167" y="-75.8" font-family="Times,serif" font-size="14.00">avail(options, internal)</text>
<text text-anchor="start" x="1167" y="-60.8" font-family="Times,serif" font-size="14.00">parse_var_list(varlist, tiered, tiered_vars)</text>
<text text-anchor="start" x="1167" y="-45.8" font-family="Times,serif" font-size="14.00">remove(all, var_list, beam_list, keyword_list)</text>
</g>
<!-- icepyx.core.variables.Variables&#45;&gt;icepyx.core.query.Query -->
<g id="edge11" class="edge">
<title>icepyx.core.variables.Variables&#45;&gt;icepyx.core.query.Query</title>
<path fill="none" stroke="black" d="M1276.59,-182.18C1259.56,-200.11 1241.61,-219.52 1225.5,-238 1218.62,-245.88 1211.68,-253.96 1204.71,-262.17"/>
<polygon fill="black" stroke="black" points="1204.59,-262.31 1203.77,-269.48 1196.84,-271.48 1197.66,-264.31 1204.59,-262.31"/>
<text text-anchor="middle" x="1267.5" y="-241.8" font-family="Times,serif" font-size="14.00" fill="green">_order_vars</text>
</g>
<!-- icepyx.core.variables.Variables&#45;&gt;icepyx.core.query.Query -->
<g id="edge12" class="edge">
<title>icepyx.core.variables.Variables&#45;&gt;icepyx.core.query.Query</title>
<path fill="none" stroke="black" d="M1337.04,-182.09C1331.58,-205.94 1322.99,-231.84 1309.5,-253 1287.21,-287.95 1257.91,-320.21 1226.67,-348.87"/>
<polygon fill="black" stroke="black" points="1226.28,-349.22 1224.49,-356.21 1217.36,-357.25 1219.14,-350.26 1226.28,-349.22"/>
<text text-anchor="middle" x="1359.5" y="-241.8" font-family="Times,serif" font-size="14.00" fill="green">_order_vars</text>
</g>
<!-- icepyx.core.variables.Variables&#45;&gt;icepyx.core.query.Query -->
<g id="edge13" class="edge">
<title>icepyx.core.variables.Variables&#45;&gt;icepyx.core.query.Query</title>
<path fill="none" stroke="black" d="M1401.66,-182.22C1412.88,-205.33 1417.94,-230.74 1405.5,-253 1366.53,-322.73 1297.06,-374.08 1228.28,-410.49"/>
<polygon fill="black" stroke="black" points="1227.91,-410.68 1224.42,-416.99 1217.25,-416.2 1220.74,-409.89 1227.91,-410.68"/>
<text text-anchor="middle" x="1445" y="-241.8" font-family="Times,serif" font-size="14.00" fill="green">_file_vars</text>
</g>
<!-- icepyx.core.variables.Variables&#45;&gt;icepyx.core.read.Read -->
<g id="edge14" class="edge">
<title>icepyx.core.variables.Variables&#45;&gt;icepyx.core.read.Read</title>
<path fill="none" stroke="black" d="M1460.92,-182.25C1478.89,-198.42 1495.23,-217.08 1506.5,-238 1537.51,-295.54 1539.48,-371.71 1535.94,-424.17"/>
<polygon fill="black" stroke="black" points="1535.93,-424.34 1539.45,-430.64 1535,-436.31 1531.48,-430.02 1535.93,-424.34"/>
<text text-anchor="middle" x="1551" y="-241.8" font-family="Times,serif" font-size="14.00" fill="green">_read_vars</text>
</g>
<!-- icepyx.core.visualization.Visualize -->
<g id="node12" class="node">
<title>icepyx.core.visualization.Visualize</title>
<polygon fill="none" stroke="black" points="1874,-0.5 1874,-219.5 2203,-219.5 2203,-0.5 1874,-0.5"/>
<text text-anchor="start" x="2006.5" y="-204.3" font-family="Times,serif" font-size="14.00">Visualize</text>
<polyline fill="none" stroke="black" points="1874,-196.5 2203,-196.5 "/>
<text text-anchor="start" x="1953" y="-181.3" font-family="Times,serif" font-size="14.00">bbox : list</text>
<text text-anchor="start" x="1953" y="-166.3" font-family="Times,serif" font-size="14.00">cycles : NoneType</text>
<text text-anchor="start" x="1953" y="-151.3" font-family="Times,serif" font-size="14.00">date_range : NoneType</text>
<text text-anchor="start" x="1953" y="-136.3" font-family="Times,serif" font-size="14.00">product : NoneType, str</text>
<text text-anchor="start" x="1953" y="-121.3" font-family="Times,serif" font-size="14.00">tracks : NoneType</text>
<polyline fill="none" stroke="black" points="1874,-113.5 2203,-113.5 "/>
<text text-anchor="start" x="1882" y="-98.3" font-family="Times,serif" font-size="14.00">generate_OA_parameters(): list</text>
<text text-anchor="start" x="1882" y="-83.3" font-family="Times,serif" font-size="14.00">grid_bbox(binsize): list</text>
<text text-anchor="start" x="1882" y="-68.3" font-family="Times,serif" font-size="14.00">make_request(base_url, payload)</text>
<text text-anchor="start" x="1882" y="-53.3" font-family="Times,serif" font-size="14.00">parallel_request_OA(): da.array</text>
<text text-anchor="start" x="1882" y="-38.3" font-family="Times,serif" font-size="14.00">query_icesat2_filelist(): tuple</text>
<text text-anchor="start" x="1882" y="-23.3" font-family="Times,serif" font-size="14.00">request_OA_data(paras): da.array</text>
<text text-anchor="start" x="1882" y="-8.3" font-family="Times,serif" font-size="14.00">viz_elevation(): (hv.DynamicMap, hv.Layout)</text>
</g>
</g>
</svg>
