<?xml version="1.0" encoding="UTF-8" standalone="no"?>
<!DOCTYPE svg PUBLIC "-//W3C//DTD SVG 1.1//EN"
 "http://www.w3.org/Graphics/SVG/1.1/DTD/svg11.dtd">
<!-- Generated by graphviz version 2.43.0 (0)
 -->
<!-- Title: classes_user_uml Pages: 1 -->
<svg width="4199pt" height="1011pt"
 viewBox="0.00 0.00 4198.50 1011.00" xmlns="http://www.w3.org/2000/svg" xmlns:xlink="http://www.w3.org/1999/xlink">
<g id="graph0" class="graph" transform="scale(1 1) rotate(0) translate(4 1007)">
<title>classes_user_uml</title>
<polygon fill="white" stroke="transparent" points="-4,4 -4,-1007 4194.5,-1007 4194.5,4 -4,4"/>
<!-- icepyx.core.auth.AuthenticationError -->
<g id="node1" class="node">
<title>icepyx.core.auth.AuthenticationError</title>
<polygon fill="none" stroke="black" points="0,-74.6 0,-145.4 161,-145.4 161,-74.6 0,-74.6"/>
<text text-anchor="start" x="8" y="-130.2" font-family="Times,serif" font-size="14.00" fill="red">AuthenticationError</text>
<polyline fill="none" stroke="black" points="0,-122.4 161,-122.4 "/>
<polyline fill="none" stroke="black" points="0,-97.6 161,-97.6 "/>
<text text-anchor="start" x="78" y="-82.4" font-family="Times,serif" font-size="14.00" fill="red"> </text>
</g>
<!-- icepyx.core.types.CMRParamsWithBbox -->
<g id="node2" class="node">
<title>icepyx.core.types.CMRParamsWithBbox</title>
<polygon fill="none" stroke="black" points="179,-75.5 179,-144.5 354,-144.5 354,-75.5 179,-75.5"/>
<text text-anchor="start" x="187" y="-129.3" font-family="Times,serif" font-size="14.00">CMRParamsWithBbox</text>
<polyline fill="none" stroke="black" points="179,-121.5 354,-121.5 "/>
<text text-anchor="start" x="200" y="-106.3" font-family="Times,serif" font-size="14.00">bounding_box : str</text>
<polyline fill="none" stroke="black" points="179,-98.5 354,-98.5 "/>
<text text-anchor="start" x="264" y="-83.3" font-family="Times,serif" font-size="14.00"> </text>
</g>
<!-- icepyx.core.types.CMRParamsWithPolygon -->
<g id="node3" class="node">
<title>icepyx.core.types.CMRParamsWithPolygon</title>
<polygon fill="none" stroke="black" points="372,-75.5 372,-144.5 567,-144.5 567,-75.5 372,-75.5"/>
<text text-anchor="start" x="380" y="-129.3" font-family="Times,serif" font-size="14.00">CMRParamsWithPolygon</text>
<polyline fill="none" stroke="black" points="372,-121.5 567,-121.5 "/>
<text text-anchor="start" x="424" y="-106.3" font-family="Times,serif" font-size="14.00">polygon : str</text>
<polyline fill="none" stroke="black" points="372,-98.5 567,-98.5 "/>
<text text-anchor="start" x="467" y="-83.3" font-family="Times,serif" font-size="14.00"> </text>
</g>
<!-- icepyx.core.exceptions.DeprecationError -->
<g id="node4" class="node">
<title>icepyx.core.exceptions.DeprecationError</title>
<polygon fill="none" stroke="black" points="585,-74.6 585,-145.4 728,-145.4 728,-74.6 585,-74.6"/>
<text text-anchor="start" x="593" y="-130.2" font-family="Times,serif" font-size="14.00" fill="red">DeprecationError</text>
<polyline fill="none" stroke="black" points="585,-122.4 728,-122.4 "/>
<polyline fill="none" stroke="black" points="585,-97.6 728,-97.6 "/>
<text text-anchor="start" x="654" y="-82.4" font-family="Times,serif" font-size="14.00" fill="red"> </text>
</g>
<!-- icepyx.core.types.EGIParamsSubsetBase -->
<g id="node5" class="node">
<title>icepyx.core.types.EGIParamsSubsetBase</title>
<polygon fill="none" stroke="black" points="804.5,-286.5 804.5,-415.5 1118.5,-415.5 1118.5,-286.5 804.5,-286.5"/>
<text text-anchor="start" x="879" y="-400.3" font-family="Times,serif" font-size="14.00">EGIParamsSubsetBase</text>
<polyline fill="none" stroke="black" points="804.5,-392.5 1118.5,-392.5 "/>
<text text-anchor="start" x="812.5" y="-377.3" font-family="Times,serif" font-size="14.00">Coverage : NotRequired[str]</text>
<text text-anchor="start" x="812.5" y="-362.3" font-family="Times,serif" font-size="14.00">format : NotRequired[str]</text>
<text text-anchor="start" x="812.5" y="-347.3" font-family="Times,serif" font-size="14.00">projection : NotRequired[str]</text>
<text text-anchor="start" x="812.5" y="-332.3" font-family="Times,serif" font-size="14.00">projection_parameters : NotRequired[str]</text>
<text text-anchor="start" x="812.5" y="-317.3" font-family="Times,serif" font-size="14.00">time : NotRequired[str]</text>
<polyline fill="none" stroke="black" points="804.5,-309.5 1118.5,-309.5 "/>
<text text-anchor="start" x="959" y="-294.3" font-family="Times,serif" font-size="14.00"> </text>
</g>
<!-- icepyx.core.types.EGIParamsSubsetBbox -->
<g id="node6" class="node">
<title>icepyx.core.types.EGIParamsSubsetBbox</title>
<polygon fill="none" stroke="black" points="746,-75.5 746,-144.5 933,-144.5 933,-75.5 746,-75.5"/>
<text text-anchor="start" x="756.5" y="-129.3" font-family="Times,serif" font-size="14.00">EGIParamsSubsetBbox</text>
<polyline fill="none" stroke="black" points="746,-121.5 933,-121.5 "/>
<text text-anchor="start" x="754" y="-106.3" font-family="Times,serif" font-size="14.00">bbox : NotRequired[str]</text>
<polyline fill="none" stroke="black" points="746,-98.5 933,-98.5 "/>
<text text-anchor="start" x="837" y="-83.3" font-family="Times,serif" font-size="14.00"> </text>
</g>
<!-- icepyx.core.types.EGIParamsSubsetBbox&#45;&gt;icepyx.core.types.EGIParamsSubsetBase -->
<g id="edge7" class="edge">
<title>icepyx.core.types.EGIParamsSubsetBbox&#45;&gt;icepyx.core.types.EGIParamsSubsetBase</title>
<path fill="none" stroke="black" d="M856.72,-144.74C874.23,-179.04 901.92,-233.29 924.44,-277.4"/>
<polygon fill="none" stroke="black" points="921.35,-279.04 929.01,-286.36 927.58,-275.86 921.35,-279.04"/>
</g>
<!-- icepyx.core.types.EGIParamsSubsetBoundingShape -->
<g id="node7" class="node">
<title>icepyx.core.types.EGIParamsSubsetBoundingShape</title>
<polygon fill="none" stroke="black" points="951,-75.5 951,-144.5 1214,-144.5 1214,-75.5 951,-75.5"/>
<text text-anchor="start" x="961" y="-129.3" font-family="Times,serif" font-size="14.00">EGIParamsSubsetBoundingShape</text>
<polyline fill="none" stroke="black" points="951,-121.5 1214,-121.5 "/>
<text text-anchor="start" x="959" y="-106.3" font-family="Times,serif" font-size="14.00">Boundingshape : NotRequired[str]</text>
<polyline fill="none" stroke="black" points="951,-98.5 1214,-98.5 "/>
<text text-anchor="start" x="1080" y="-83.3" font-family="Times,serif" font-size="14.00"> </text>
</g>
<!-- icepyx.core.types.EGIParamsSubsetBoundingShape&#45;&gt;icepyx.core.types.EGIParamsSubsetBase -->
<g id="edge8" class="edge">
<title>icepyx.core.types.EGIParamsSubsetBoundingShape&#45;&gt;icepyx.core.types.EGIParamsSubsetBase</title>
<path fill="none" stroke="black" d="M1065.42,-144.74C1048.05,-179.04 1020.59,-233.29 998.26,-277.4"/>
<polygon fill="none" stroke="black" points="995.11,-275.86 993.72,-286.36 1001.36,-279.02 995.11,-275.86"/>
</g>
<!-- icepyx.core.types.EGIRequiredParamsBase -->
<g id="node8" class="node">
<title>icepyx.core.types.EGIRequiredParamsBase</title>
<polygon fill="none" stroke="black" points="1460,-294 1460,-408 1657,-408 1657,-294 1460,-294"/>
<text text-anchor="start" x="1468" y="-392.8" font-family="Times,serif" font-size="14.00">EGIRequiredParamsBase</text>
<polyline fill="none" stroke="black" points="1460,-385 1657,-385 "/>
<text text-anchor="start" x="1486" y="-369.8" font-family="Times,serif" font-size="14.00">page_num : int</text>
<text text-anchor="start" x="1486" y="-354.8" font-family="Times,serif" font-size="14.00">page_size : int</text>
<text text-anchor="start" x="1486" y="-339.8" font-family="Times,serif" font-size="14.00">short_name : Literal</text>
<text text-anchor="start" x="1486" y="-324.8" font-family="Times,serif" font-size="14.00">version : str</text>
<polyline fill="none" stroke="black" points="1460,-317 1657,-317 "/>
<text text-anchor="start" x="1556" y="-301.8" font-family="Times,serif" font-size="14.00"> </text>
</g>
<!-- icepyx.core.types.EGIRequiredParamsDownload -->
<g id="node9" class="node">
<title>icepyx.core.types.EGIRequiredParamsDownload</title>
<polygon fill="none" stroke="black" points="1232.5,-60.5 1232.5,-159.5 1584.5,-159.5 1584.5,-60.5 1232.5,-60.5"/>
<text text-anchor="start" x="1300" y="-144.3" font-family="Times,serif" font-size="14.00">EGIRequiredParamsDownload</text>
<polyline fill="none" stroke="black" points="1232.5,-136.5 1584.5,-136.5 "/>
<text text-anchor="start" x="1240.5" y="-121.3" font-family="Times,serif" font-size="14.00">client_string : Literal[&#39;icepyx&#39;]</text>
<text text-anchor="start" x="1240.5" y="-106.3" font-family="Times,serif" font-size="14.00">include_meta : Literal[&#39;Y&#39;, &#39;N&#39;]</text>
<text text-anchor="start" x="1240.5" y="-91.3" font-family="Times,serif" font-size="14.00">request_mode : Literal[&#39;sync&#39;, &#39;async&#39;, &#39;stream&#39;]</text>
<polyline fill="none" stroke="black" points="1232.5,-83.5 1584.5,-83.5 "/>
<text text-anchor="start" x="1406" y="-68.3" font-family="Times,serif" font-size="14.00"> </text>
</g>
<!-- icepyx.core.types.EGIRequiredParamsDownload&#45;&gt;icepyx.core.types.EGIRequiredParamsBase -->
<g id="edge9" class="edge">
<title>icepyx.core.types.EGIRequiredParamsDownload&#45;&gt;icepyx.core.types.EGIRequiredParamsBase</title>
<path fill="none" stroke="black" d="M1439.04,-159.65C1461.73,-195.82 1492.93,-245.53 1517.75,-285.08"/>
<polygon fill="none" stroke="black" points="1514.99,-287.26 1523.27,-293.87 1520.92,-283.54 1514.99,-287.26"/>
</g>
<!-- icepyx.core.types.EGIRequiredParamsSearch -->
<g id="node10" class="node">
<title>icepyx.core.types.EGIRequiredParamsSearch</title>
<polygon fill="none" stroke="black" points="1602.5,-74.6 1602.5,-145.4 1814.5,-145.4 1814.5,-74.6 1602.5,-74.6"/>
<text text-anchor="start" x="1610.5" y="-130.2" font-family="Times,serif" font-size="14.00">EGIRequiredParamsSearch</text>
<polyline fill="none" stroke="black" points="1602.5,-122.4 1814.5,-122.4 "/>
<polyline fill="none" stroke="black" points="1602.5,-97.6 1814.5,-97.6 "/>
<text text-anchor="start" x="1706" y="-82.4" font-family="Times,serif" font-size="14.00"> </text>
</g>
<!-- icepyx.core.types.EGIRequiredParamsSearch&#45;&gt;icepyx.core.types.EGIRequiredParamsBase -->
<g id="edge10" class="edge">
<title>icepyx.core.types.EGIRequiredParamsSearch&#45;&gt;icepyx.core.types.EGIRequiredParamsBase</title>
<path fill="none" stroke="black" d="M1686.85,-145.5C1663.98,-181.93 1627.4,-240.22 1599.13,-285.26"/>
<polygon fill="none" stroke="black" points="1596.12,-283.47 1593.77,-293.8 1602.05,-287.19 1596.12,-283.47"/>
</g>
<!-- icepyx.core.auth.EarthdataAuthMixin -->
<g id="node11" class="node">
<title>icepyx.core.auth.EarthdataAuthMixin</title>
<polygon fill="none" stroke="black" points="2727,-881 2727,-980 3048,-980 3048,-881 2727,-881"/>
<text text-anchor="start" x="2814" y="-964.8" font-family="Times,serif" font-size="14.00">EarthdataAuthMixin</text>
<polyline fill="none" stroke="black" points="2727,-957 3048,-957 "/>
<text text-anchor="start" x="2818" y="-941.8" font-family="Times,serif" font-size="14.00">auth</text>
<text text-anchor="start" x="2818" y="-926.8" font-family="Times,serif" font-size="14.00">s3login_credentials</text>
<text text-anchor="start" x="2818" y="-911.8" font-family="Times,serif" font-size="14.00">session</text>
<polyline fill="none" stroke="black" points="2727,-904 3048,-904 "/>
<text text-anchor="start" x="2735" y="-888.8" font-family="Times,serif" font-size="14.00">earthdata_login(uid, email, s3token): None</text>
</g>
<!-- icepyx.core.exceptions.ExhaustiveTypeGuardException -->
<g id="node12" class="node">
<title>icepyx.core.exceptions.ExhaustiveTypeGuardException</title>
<polygon fill="none" stroke="black" points="3282.5,-74.6 3282.5,-145.4 3528.5,-145.4 3528.5,-74.6 3282.5,-74.6"/>
<text text-anchor="start" x="3290.5" y="-130.2" font-family="Times,serif" font-size="14.00" fill="red">ExhaustiveTypeGuardException</text>
<polyline fill="none" stroke="black" points="3282.5,-122.4 3528.5,-122.4 "/>
<polyline fill="none" stroke="black" points="3282.5,-97.6 3528.5,-97.6 "/>
<text text-anchor="start" x="3403" y="-82.4" font-family="Times,serif" font-size="14.00" fill="red"> </text>
</g>
<!-- icepyx.core.exceptions.TypeGuardException -->
<g id="node23" class="node">
<title>icepyx.core.exceptions.TypeGuardException</title>
<polygon fill="none" stroke="black" points="3322,-315.6 3322,-386.4 3489,-386.4 3489,-315.6 3322,-315.6"/>
<text text-anchor="start" x="3330" y="-371.2" font-family="Times,serif" font-size="14.00" fill="red">TypeGuardException</text>
<polyline fill="none" stroke="black" points="3322,-363.4 3489,-363.4 "/>
<polyline fill="none" stroke="black" points="3322,-338.6 3489,-338.6 "/>
<text text-anchor="start" x="3403" y="-323.4" font-family="Times,serif" font-size="14.00" fill="red"> </text>
</g>
<!-- icepyx.core.exceptions.ExhaustiveTypeGuardException&#45;&gt;icepyx.core.exceptions.TypeGuardException -->
<g id="edge1" class="edge">
<title>icepyx.core.exceptions.ExhaustiveTypeGuardException&#45;&gt;icepyx.core.exceptions.TypeGuardException</title>
<path fill="none" stroke="black" d="M3405.5,-145.5C3405.5,-187.68 3405.5,-259.16 3405.5,-305.46"/>
<polygon fill="none" stroke="black" points="3402,-305.51 3405.5,-315.51 3409,-305.51 3402,-305.51"/>
</g>
<!-- icepyx.core.query.GenQuery -->
<g id="node13" class="node">
<title>icepyx.core.query.GenQuery</title>
<polygon fill="none" stroke="black" points="3332,-858.5 3332,-1002.5 3449,-1002.5 3449,-858.5 3332,-858.5"/>
<text text-anchor="start" x="3354" y="-987.3" font-family="Times,serif" font-size="14.00">GenQuery</text>
<polyline fill="none" stroke="black" points="3332,-979.5 3449,-979.5 "/>
<text text-anchor="start" x="3340" y="-964.3" font-family="Times,serif" font-size="14.00">dates</text>
<text text-anchor="start" x="3340" y="-949.3" font-family="Times,serif" font-size="14.00">end_time</text>
<text text-anchor="start" x="3340" y="-934.3" font-family="Times,serif" font-size="14.00">spatial</text>
<text text-anchor="start" x="3340" y="-919.3" font-family="Times,serif" font-size="14.00">spatial_extent</text>
<text text-anchor="start" x="3340" y="-904.3" font-family="Times,serif" font-size="14.00">start_time</text>
<text text-anchor="start" x="3340" y="-889.3" font-family="Times,serif" font-size="14.00">temporal</text>
<polyline fill="none" stroke="black" points="3332,-881.5 3449,-881.5 "/>
<text text-anchor="start" x="3388" y="-866.3" font-family="Times,serif" font-size="14.00"> </text>
</g>
<!-- icepyx.core.granules.Granules -->
<g id="node14" class="node">
<title>icepyx.core.granules.Granules</title>
<polygon fill="none" stroke="black" points="1675,-294 1675,-408 2622,-408 2622,-294 1675,-294"/>
<text text-anchor="start" x="2116" y="-392.8" font-family="Times,serif" font-size="14.00">Granules</text>
<polyline fill="none" stroke="black" points="1675,-385 2622,-385 "/>
<text text-anchor="start" x="2098.5" y="-369.8" font-family="Times,serif" font-size="14.00">avail : list</text>
<text text-anchor="start" x="2098.5" y="-354.8" font-family="Times,serif" font-size="14.00">orderIDs : list</text>
<polyline fill="none" stroke="black" points="1675,-347 2622,-347 "/>
<text text-anchor="start" x="1683" y="-331.8" font-family="Times,serif" font-size="14.00">download(verbose, path, restart)</text>
<text text-anchor="start" x="1683" y="-316.8" font-family="Times,serif" font-size="14.00">get_avail(CMRparams: CMRParams, reqparams: EGIRequiredParamsSearch, cloud: bool)</text>
<text text-anchor="start" x="1683" y="-301.8" font-family="Times,serif" font-size="14.00">place_order(CMRparams: CMRParams, reqparams: EGIRequiredParamsDownload, subsetparams, verbose, subset, geom_filepath)</text>
</g>
<!-- icepyx.core.granules.Granules&#45;&gt;icepyx.core.auth.EarthdataAuthMixin -->
<g id="edge3" class="edge">
<title>icepyx.core.granules.Granules&#45;&gt;icepyx.core.auth.EarthdataAuthMixin</title>
<path fill="none" stroke="black" d="M2184.9,-408.32C2248.87,-503.17 2390.37,-695.35 2554.5,-807 2603.39,-840.26 2662.43,-865.8 2717.14,-884.73"/>
<polygon fill="none" stroke="black" points="2716.35,-888.16 2726.94,-888.07 2718.61,-881.53 2716.35,-888.16"/>
</g>
<!-- icepyx.core.query.Query -->
<g id="node18" class="node">
<title>icepyx.core.query.Query</title>
<polygon fill="none" stroke="black" points="2564,-482.5 2564,-806.5 3025,-806.5 3025,-482.5 2564,-482.5"/>
<text text-anchor="start" x="2772.5" y="-791.3" font-family="Times,serif" font-size="14.00">Query</text>
<polyline fill="none" stroke="black" points="2564,-783.5 3025,-783.5 "/>
<text text-anchor="start" x="2737" y="-768.3" font-family="Times,serif" font-size="14.00">CMRparams</text>
<text text-anchor="start" x="2737" y="-753.3" font-family="Times,serif" font-size="14.00">cycles</text>
<text text-anchor="start" x="2737" y="-738.3" font-family="Times,serif" font-size="14.00">dataset</text>
<text text-anchor="start" x="2737" y="-723.3" font-family="Times,serif" font-size="14.00">granules</text>
<text text-anchor="start" x="2737" y="-708.3" font-family="Times,serif" font-size="14.00">order_vars</text>
<text text-anchor="start" x="2737" y="-693.3" font-family="Times,serif" font-size="14.00">product</text>
<text text-anchor="start" x="2737" y="-678.3" font-family="Times,serif" font-size="14.00">product_version</text>
<text text-anchor="start" x="2737" y="-663.3" font-family="Times,serif" font-size="14.00">reqparams</text>
<text text-anchor="start" x="2737" y="-648.3" font-family="Times,serif" font-size="14.00">tracks</text>
<polyline fill="none" stroke="black" points="2564,-640.5 3025,-640.5 "/>
<text text-anchor="start" x="2572" y="-625.3" font-family="Times,serif" font-size="14.00">avail_granules(ids, cycles, tracks, cloud)</text>
<text text-anchor="start" x="2572" y="-610.3" font-family="Times,serif" font-size="14.00">download_granules(path, verbose, subset, restart)</text>
<text text-anchor="start" x="2572" y="-595.3" font-family="Times,serif" font-size="14.00">latest_version()</text>
<text text-anchor="start" x="2572" y="-580.3" font-family="Times,serif" font-size="14.00">order_granules(verbose, subset, email)</text>
<text text-anchor="start" x="2572" y="-565.3" font-family="Times,serif" font-size="14.00">product_all_info()</text>
<text text-anchor="start" x="2572" y="-550.3" font-family="Times,serif" font-size="14.00">product_summary_info()</text>
<text text-anchor="start" x="2572" y="-535.3" font-family="Times,serif" font-size="14.00">show_custom_options(dictview)</text>
<text text-anchor="start" x="2572" y="-520.3" font-family="Times,serif" font-size="14.00">subsetparams(): Union[EGIParamsSubset, dict[Never, Never]]</text>
<text text-anchor="start" x="2572" y="-505.3" font-family="Times,serif" font-size="14.00">visualize_elevation()</text>
<text text-anchor="start" x="2572" y="-490.3" font-family="Times,serif" font-size="14.00">visualize_spatial_extent()</text>
</g>
<!-- icepyx.core.granules.Granules&#45;&gt;icepyx.core.query.Query -->
<g id="edge17" class="edge">
<title>icepyx.core.granules.Granules&#45;&gt;icepyx.core.query.Query</title>
<path fill="none" stroke="black" d="M2236.76,-408.28C2267.99,-427.12 2303.75,-447.5 2337.5,-464 2405.92,-497.44 2482.25,-529.41 2552.63,-556.85"/>
<polygon fill="black" stroke="black" points="2552.69,-556.87 2559.73,-555.31 2563.87,-561.21 2556.83,-562.77 2552.69,-556.87"/>
<text text-anchor="middle" x="2372.5" y="-452.8" font-family="Times,serif" font-size="14.00" fill="green">_granules</text>
</g>
<!-- icepyx.core.icesat2data.Icesat2Data -->
<g id="node15" class="node">
<title>icepyx.core.icesat2data.Icesat2Data</title>
<polygon fill="none" stroke="black" points="3546.5,-74.6 3546.5,-145.4 3648.5,-145.4 3648.5,-74.6 3546.5,-74.6"/>
<text text-anchor="start" x="3554.5" y="-130.2" font-family="Times,serif" font-size="14.00">Icesat2Data</text>
<polyline fill="none" stroke="black" points="3546.5,-122.4 3648.5,-122.4 "/>
<polyline fill="none" stroke="black" points="3546.5,-97.6 3648.5,-97.6 "/>
<text text-anchor="start" x="3595" y="-82.4" font-family="Times,serif" font-size="14.00"> </text>
</g>
<!-- icepyx.core.exceptions.NsidcQueryError -->
<g id="node16" class="node">
<title>icepyx.core.exceptions.NsidcQueryError</title>
<polygon fill="none" stroke="black" points="3666.5,-68 3666.5,-152 3806.5,-152 3806.5,-68 3666.5,-68"/>
<text text-anchor="start" x="3674.5" y="-136.8" font-family="Times,serif" font-size="14.00" fill="red">NsidcQueryError</text>
<polyline fill="none" stroke="black" points="3666.5,-129 3806.5,-129 "/>
<text text-anchor="start" x="3694" y="-113.8" font-family="Times,serif" font-size="14.00" fill="red">errmsg</text>
<text text-anchor="start" x="3694" y="-98.8" font-family="Times,serif" font-size="14.00" fill="red">msgtxt : str</text>
<polyline fill="none" stroke="black" points="3666.5,-91 3806.5,-91 "/>
<text text-anchor="start" x="3734" y="-75.8" font-family="Times,serif" font-size="14.00" fill="red"> </text>
</g>
<!-- icepyx.core.exceptions.QueryError -->
<g id="node19" class="node">
<title>icepyx.core.exceptions.QueryError</title>
<polygon fill="none" stroke="black" points="3687,-315.6 3687,-386.4 3786,-386.4 3786,-315.6 3687,-315.6"/>
<text text-anchor="start" x="3695" y="-371.2" font-family="Times,serif" font-size="14.00" fill="red">QueryError</text>
<polyline fill="none" stroke="black" points="3687,-363.4 3786,-363.4 "/>
<polyline fill="none" stroke="black" points="3687,-338.6 3786,-338.6 "/>
<text text-anchor="start" x="3734" y="-323.4" font-family="Times,serif" font-size="14.00" fill="red"> </text>
</g>
<!-- icepyx.core.exceptions.NsidcQueryError&#45;&gt;icepyx.core.exceptions.QueryError -->
<g id="edge2" class="edge">
<title>icepyx.core.exceptions.NsidcQueryError&#45;&gt;icepyx.core.exceptions.QueryError</title>
<path fill="none" stroke="black" d="M3736.5,-152.09C3736.5,-194.71 3736.5,-261.18 3736.5,-305.15"/>
<polygon fill="none" stroke="black" points="3733,-305.26 3736.5,-315.26 3740,-305.26 3733,-305.26"/>
</g>
<!-- icepyx.core.APIformatting.Parameters -->
<g id="node17" class="node">
<title>icepyx.core.APIformatting.Parameters</title>
<polygon fill="none" stroke="black" points="2640.5,-286.5 2640.5,-415.5 2830.5,-415.5 2830.5,-286.5 2640.5,-286.5"/>
<text text-anchor="start" x="2694" y="-400.3" font-family="Times,serif" font-size="14.00">Parameters</text>
<polyline fill="none" stroke="black" points="2640.5,-392.5 2830.5,-392.5 "/>
<text text-anchor="start" x="2694.5" y="-377.3" font-family="Times,serif" font-size="14.00">fmted_keys</text>
<text text-anchor="start" x="2694.5" y="-362.3" font-family="Times,serif" font-size="14.00">partype : T</text>
<text text-anchor="start" x="2694.5" y="-347.3" font-family="Times,serif" font-size="14.00">poss_keys</text>
<polyline fill="none" stroke="black" points="2640.5,-339.5 2830.5,-339.5 "/>
<text text-anchor="start" x="2648.5" y="-324.3" font-family="Times,serif" font-size="14.00">build_params(): None</text>
<text text-anchor="start" x="2648.5" y="-309.3" font-family="Times,serif" font-size="14.00">check_req_values(): bool</text>
<text text-anchor="start" x="2648.5" y="-294.3" font-family="Times,serif" font-size="14.00">check_values(): bool</text>
</g>
<!-- icepyx.core.APIformatting.Parameters&#45;&gt;icepyx.core.query.Query -->
<g id="edge12" class="edge">
<title>icepyx.core.APIformatting.Parameters&#45;&gt;icepyx.core.query.Query</title>
<path fill="none" stroke="black" d="M2682.33,-415.62C2675.1,-430.98 2671.62,-447.68 2676.5,-464 2677.19,-466.31 2677.92,-468.62 2678.69,-470.93"/>
<polygon fill="black" stroke="black" points="2678.77,-471.13 2684.57,-475.41 2682.85,-482.42 2677.05,-478.13 2678.77,-471.13"/>
<text text-anchor="middle" x="2724.5" y="-452.8" font-family="Times,serif" font-size="14.00" fill="green">_CMRparams</text>
</g>
<!-- icepyx.core.APIformatting.Parameters&#45;&gt;icepyx.core.query.Query -->
<g id="edge13" class="edge">
<title>icepyx.core.APIformatting.Parameters&#45;&gt;icepyx.core.query.Query</title>
<path fill="none" stroke="black" d="M2762.4,-415.72C2766.27,-426.67 2769.84,-438.05 2772.5,-449 2774.21,-456.01 2775.78,-463.2 2777.23,-470.48"/>
<polygon fill="black" stroke="black" points="2777.26,-470.62 2782.3,-475.77 2779.49,-482.41 2774.44,-477.26 2777.26,-470.62"/>
<text text-anchor="middle" x="2818" y="-452.8" font-family="Times,serif" font-size="14.00" fill="green">_reqparams</text>
</g>
<!-- icepyx.core.APIformatting.Parameters&#45;&gt;icepyx.core.query.Query -->
<g id="edge14" class="edge">
<title>icepyx.core.APIformatting.Parameters&#45;&gt;icepyx.core.query.Query</title>
<path fill="none" stroke="black" d="M2661.06,-415.62C2651.24,-421.67 2640.95,-427.02 2630.5,-431 2585.49,-448.15 2447.11,-413.56 2414.5,-449 2409.99,-453.91 2410.93,-458.37 2414.5,-464 2446.9,-515.14 2498.21,-551.98 2552.78,-578.43"/>
<polygon fill="black" stroke="black" points="2552.87,-578.47 2560,-577.4 2563.73,-583.58 2556.6,-584.64 2552.87,-578.47"/>
<text text-anchor="middle" x="2468.5" y="-452.8" font-family="Times,serif" font-size="14.00" fill="green">_subsetparams</text>
</g>
<!-- icepyx.core.APIformatting.Parameters&#45;&gt;icepyx.core.query.Query -->
<g id="edge15" class="edge">
<title>icepyx.core.APIformatting.Parameters&#45;&gt;icepyx.core.query.Query</title>
<path fill="none" stroke="black" d="M2657.62,-415.59C2648.76,-421.29 2639.63,-426.57 2630.5,-431 2600.28,-445.67 2547.7,-433.84 2562.5,-464 2563.8,-466.65 2565.16,-469.28 2566.58,-471.87"/>
<polygon fill="black" stroke="black" points="2566.67,-472.02 2573.15,-475.19 2572.72,-482.39 2566.24,-479.22 2566.67,-472.02"/>
<text text-anchor="middle" x="2616.5" y="-452.8" font-family="Times,serif" font-size="14.00" fill="green">_subsetparams</text>
</g>
<!-- icepyx.core.query.Query&#45;&gt;icepyx.core.auth.EarthdataAuthMixin -->
<g id="edge4" class="edge">
<title>icepyx.core.query.Query&#45;&gt;icepyx.core.auth.EarthdataAuthMixin</title>
<path fill="none" stroke="black" d="M2847.25,-806.59C2854.79,-829.61 2862.11,-851.96 2868.39,-871.14"/>
<polygon fill="none" stroke="black" points="2865.14,-872.46 2871.58,-880.87 2871.79,-870.28 2865.14,-872.46"/>
</g>
<!-- icepyx.core.query.Query&#45;&gt;icepyx.core.query.GenQuery -->
<g id="edge5" class="edge">
<title>icepyx.core.query.Query&#45;&gt;icepyx.core.query.GenQuery</title>
<path fill="none" stroke="black" d="M3025.01,-783.58C3040.6,-791.77 3056.19,-799.66 3071.5,-807 3155.58,-847.33 3256.67,-884.31 3322.18,-906.86"/>
<polygon fill="none" stroke="black" points="3321.39,-910.29 3331.98,-910.22 3323.66,-903.67 3321.39,-910.29"/>
</g>
<!-- icepyx.core.read.Read -->
<g id="node20" class="node">
<title>icepyx.core.read.Read</title>
<polygon fill="none" stroke="black" points="3080.5,-587.5 3080.5,-701.5 3152.5,-701.5 3152.5,-587.5 3080.5,-587.5"/>
<text text-anchor="start" x="3098" y="-686.3" font-family="Times,serif" font-size="14.00">Read</text>
<polyline fill="none" stroke="black" points="3080.5,-678.5 3152.5,-678.5 "/>
<text text-anchor="start" x="3088.5" y="-663.3" font-family="Times,serif" font-size="14.00">filelist</text>
<text text-anchor="start" x="3088.5" y="-648.3" font-family="Times,serif" font-size="14.00">is_s3</text>
<text text-anchor="start" x="3088.5" y="-633.3" font-family="Times,serif" font-size="14.00">product</text>
<text text-anchor="start" x="3088.5" y="-618.3" font-family="Times,serif" font-size="14.00">vars</text>
<polyline fill="none" stroke="black" points="3080.5,-610.5 3152.5,-610.5 "/>
<text text-anchor="start" x="3096" y="-595.3" font-family="Times,serif" font-size="14.00">load()</text>
</g>
<!-- icepyx.core.read.Read&#45;&gt;icepyx.core.auth.EarthdataAuthMixin -->
<g id="edge6" class="edge">
<title>icepyx.core.read.Read&#45;&gt;icepyx.core.auth.EarthdataAuthMixin</title>
<path fill="none" stroke="black" d="M3094.22,-701.84C3079.75,-734.46 3058.87,-775.22 3033.5,-807 3013.84,-831.63 2988.6,-854.88 2964.66,-874.38"/>
<polygon fill="none" stroke="black" points="2962.21,-871.86 2956.6,-880.85 2966.59,-877.32 2962.21,-871.86"/>
</g>
<!-- icepyx.core.spatial.Spatial -->
<g id="node21" class="node">
<title>icepyx.core.spatial.Spatial</title>
<polygon fill="none" stroke="black" points="3337,-580 3337,-709 3458,-709 3458,-580 3337,-580"/>
<text text-anchor="start" x="3372" y="-693.8" font-family="Times,serif" font-size="14.00">Spatial</text>
<polyline fill="none" stroke="black" points="3337,-686 3458,-686 "/>
<text text-anchor="start" x="3348" y="-670.8" font-family="Times,serif" font-size="14.00">extent</text>
<text text-anchor="start" x="3348" y="-655.8" font-family="Times,serif" font-size="14.00">extent_as_gdf</text>
<text text-anchor="start" x="3348" y="-640.8" font-family="Times,serif" font-size="14.00">extent_file</text>
<text text-anchor="start" x="3348" y="-625.8" font-family="Times,serif" font-size="14.00">extent_type</text>
<polyline fill="none" stroke="black" points="3337,-618 3458,-618 "/>
<text text-anchor="start" x="3345" y="-602.8" font-family="Times,serif" font-size="14.00">fmt_for_CMR()</text>
<text text-anchor="start" x="3345" y="-587.8" font-family="Times,serif" font-size="14.00">fmt_for_EGI()</text>
</g>
<!-- icepyx.core.spatial.Spatial&#45;&gt;icepyx.core.query.GenQuery -->
<g id="edge18" class="edge">
<title>icepyx.core.spatial.Spatial&#45;&gt;icepyx.core.query.GenQuery</title>
<path fill="none" stroke="black" d="M3368.68,-709.26C3355.08,-747.14 3343.58,-796.19 3352.5,-840 3352.94,-842.14 3353.42,-844.29 3353.96,-846.45"/>
<polygon fill="black" stroke="black" points="3353.96,-846.46 3359.44,-851.14 3357.23,-858.01 3351.75,-853.32 3353.96,-846.46"/>
<text text-anchor="middle" x="3380" y="-828.8" font-family="Times,serif" font-size="14.00" fill="green">_spatial</text>
</g>
<!-- icepyx.core.spatial.Spatial&#45;&gt;icepyx.core.query.GenQuery -->
<g id="edge19" class="edge">
<title>icepyx.core.spatial.Spatial&#45;&gt;icepyx.core.query.GenQuery</title>
<path fill="none" stroke="black" d="M3405.42,-709.11C3409,-747.15 3411.6,-796.41 3407.5,-840 3407.31,-842.06 3407.09,-844.14 3406.85,-846.23"/>
<polygon fill="black" stroke="black" points="3406.82,-846.45 3410.01,-852.92 3405.26,-858.35 3402.08,-851.88 3406.82,-846.45"/>
<text text-anchor="middle" x="3436" y="-828.8" font-family="Times,serif" font-size="14.00" fill="green">_spatial</text>
</g>
<!-- icepyx.core.temporal.Temporal -->
<g id="node22" class="node">
<title>icepyx.core.temporal.Temporal</title>
<polygon fill="none" stroke="black" points="3476,-602.5 3476,-686.5 3559,-686.5 3559,-602.5 3476,-602.5"/>
<text text-anchor="start" x="3484" y="-671.3" font-family="Times,serif" font-size="14.00">Temporal</text>
<polyline fill="none" stroke="black" points="3476,-663.5 3559,-663.5 "/>
<text text-anchor="start" x="3500" y="-648.3" font-family="Times,serif" font-size="14.00">end</text>
<text text-anchor="start" x="3500" y="-633.3" font-family="Times,serif" font-size="14.00">start</text>
<polyline fill="none" stroke="black" points="3476,-625.5 3559,-625.5 "/>
<text text-anchor="start" x="3515" y="-610.3" font-family="Times,serif" font-size="14.00"> </text>
</g>
<!-- icepyx.core.temporal.Temporal&#45;&gt;icepyx.core.query.GenQuery -->
<g id="edge20" class="edge">
<title>icepyx.core.temporal.Temporal&#45;&gt;icepyx.core.query.GenQuery</title>
<path fill="none" stroke="black" d="M3512.51,-686.56C3506.31,-727.33 3493.23,-790.7 3467.5,-840 3464.22,-846.29 3460.42,-852.51 3456.3,-858.57"/>
<polygon fill="black" stroke="black" points="3456.1,-858.85 3455.85,-866.05 3449.1,-868.6 3449.35,-861.39 3456.1,-858.85"/>
<text text-anchor="middle" x="3511.5" y="-828.8" font-family="Times,serif" font-size="14.00" fill="green">_temporal</text>
</g>
<!-- icepyx.core.variables.Variables -->
<g id="node24" class="node">
<title>icepyx.core.variables.Variables</title>
<polygon fill="none" stroke="black" points="2929,-271.5 2929,-430.5 3304,-430.5 3304,-271.5 2929,-271.5"/>
<text text-anchor="start" x="3083" y="-415.3" font-family="Times,serif" font-size="14.00">Variables</text>
<polyline fill="none" stroke="black" points="2929,-407.5 3304,-407.5 "/>
<text text-anchor="start" x="3029" y="-392.3" font-family="Times,serif" font-size="14.00">path</text>
<text text-anchor="start" x="3029" y="-377.3" font-family="Times,serif" font-size="14.00">product</text>
<text text-anchor="start" x="3029" y="-362.3" font-family="Times,serif" font-size="14.00">version</text>
<text text-anchor="start" x="3029" y="-347.3" font-family="Times,serif" font-size="14.00">wanted : NoneType, dict</text>
<polyline fill="none" stroke="black" points="2929,-339.5 3304,-339.5 "/>
<text text-anchor="start" x="2937" y="-324.3" font-family="Times,serif" font-size="14.00">append(defaults, var_list, beam_list, keyword_list)</text>
<text text-anchor="start" x="2937" y="-309.3" font-family="Times,serif" font-size="14.00">avail(options, internal)</text>
<text text-anchor="start" x="2937" y="-294.3" font-family="Times,serif" font-size="14.00">parse_var_list(varlist, tiered, tiered_vars)</text>
<text text-anchor="start" x="2937" y="-279.3" font-family="Times,serif" font-size="14.00">remove(all, var_list, beam_list, keyword_list)</text>
</g>
<!-- icepyx.core.variables.Variables&#45;&gt;icepyx.core.auth.EarthdataAuthMixin -->
<g id="edge11" class="edge">
<title>icepyx.core.variables.Variables&#45;&gt;icepyx.core.auth.EarthdataAuthMixin</title>
<path fill="none" stroke="black" d="M3266.8,-430.81C3271.56,-436.5 3275.84,-442.56 3279.5,-449 3362.31,-594.64 3274.57,-683.38 3161.5,-807 3133.17,-837.97 3095.55,-861.58 3057.28,-879.39"/>
<polygon fill="none" stroke="black" points="3055.74,-876.25 3048.07,-883.56 3058.62,-882.62 3055.74,-876.25"/>
</g>
<!-- icepyx.core.variables.Variables&#45;&gt;icepyx.core.query.Query -->
<g id="edge21" class="edge">
<title>icepyx.core.variables.Variables&#45;&gt;icepyx.core.query.Query</title>
<path fill="none" stroke="black" d="M2928.98,-428.52C2919.99,-434.89 2911.43,-441.71 2903.5,-449 2895.55,-456.31 2888.04,-464.34 2880.96,-472.85"/>
<polygon fill="black" stroke="black" points="2880.94,-472.87 2880.33,-480.05 2873.46,-482.25 2874.07,-475.06 2880.94,-472.87"/>
<text text-anchor="middle" x="2945.5" y="-452.8" font-family="Times,serif" font-size="14.00" fill="green">_order_vars</text>
</g>
<!-- icepyx.core.variables.Variables&#45;&gt;icepyx.core.query.Query -->
<g id="edge22" class="edge">
<title>icepyx.core.variables.Variables&#45;&gt;icepyx.core.query.Query</title>
<path fill="none" stroke="black" d="M3029.79,-430.5C3014.62,-444.23 2998.33,-458.98 2981.65,-474.08"/>
<polygon fill="black" stroke="black" points="2981.24,-474.44 2979.48,-481.44 2972.35,-482.5 2974.11,-475.51 2981.24,-474.44"/>
<text text-anchor="middle" x="3045.5" y="-452.8" font-family="Times,serif" font-size="14.00" fill="green">_order_vars</text>
</g>
<!-- icepyx.core.variables.Variables&#45;&gt;icepyx.core.read.Read -->
<g id="edge23" class="edge">
<title>icepyx.core.variables.Variables&#45;&gt;icepyx.core.read.Read</title>
<path fill="none" stroke="black" d="M3116.5,-430.5C3116.5,-475.57 3116.5,-531.62 3116.5,-574.91"/>
<polygon fill="black" stroke="black" points="3116.5,-575.05 3120.5,-581.05 3116.5,-587.05 3112.5,-581.05 3116.5,-575.05"/>
<text text-anchor="middle" x="3155" y="-452.8" font-family="Times,serif" font-size="14.00" fill="green">_read_vars</text>
</g>
<!-- icepyx.core.variables.Variables&#45;&gt;icepyx.core.read.Read -->
<g id="edge24" class="edge">
<title>icepyx.core.variables.Variables&#45;&gt;icepyx.core.read.Read</title>
<path fill="none" stroke="black" d="M3186.35,-430.73C3189.54,-436.67 3192.31,-442.78 3194.5,-449 3211.59,-497.51 3186.02,-551.76 3159.69,-590.61"/>
<polygon fill="black" stroke="black" points="3159.54,-590.82 3159.37,-598.03 3152.64,-600.64 3152.82,-593.43 3159.54,-590.82"/>
<text text-anchor="middle" x="3237" y="-452.8" font-family="Times,serif" font-size="14.00" fill="green">_read_vars</text>
</g>
<!-- icepyx.core.visualization.Visualize -->
<g id="node25" class="node">
<title>icepyx.core.visualization.Visualize</title>
<polygon fill="none" stroke="black" points="3824.5,-0.5 3824.5,-219.5 4190.5,-219.5 4190.5,-0.5 3824.5,-0.5"/>
<text text-anchor="start" x="3975.5" y="-204.3" font-family="Times,serif" font-size="14.00">Visualize</text>
<polyline fill="none" stroke="black" points="3824.5,-196.5 4190.5,-196.5 "/>
<text text-anchor="start" x="3922" y="-181.3" font-family="Times,serif" font-size="14.00">bbox : list</text>
<text text-anchor="start" x="3922" y="-166.3" font-family="Times,serif" font-size="14.00">cycles : NoneType</text>
<text text-anchor="start" x="3922" y="-151.3" font-family="Times,serif" font-size="14.00">date_range : NoneType</text>
<text text-anchor="start" x="3922" y="-136.3" font-family="Times,serif" font-size="14.00">product : NoneType, str</text>
<text text-anchor="start" x="3922" y="-121.3" font-family="Times,serif" font-size="14.00">tracks : NoneType</text>
<polyline fill="none" stroke="black" points="3824.5,-113.5 4190.5,-113.5 "/>
<text text-anchor="start" x="3832.5" y="-98.3" font-family="Times,serif" font-size="14.00">generate_OA_parameters(): list</text>
<text text-anchor="start" x="3832.5" y="-83.3" font-family="Times,serif" font-size="14.00">grid_bbox(binsize): list</text>
<text text-anchor="start" x="3832.5" y="-68.3" font-family="Times,serif" font-size="14.00">make_request(base_url, payload)</text>
<text text-anchor="start" x="3832.5" y="-53.3" font-family="Times,serif" font-size="14.00">parallel_request_OA(): da.array</text>
<text text-anchor="start" x="3832.5" y="-38.3" font-family="Times,serif" font-size="14.00">query_icesat2_filelist(): tuple</text>
<text text-anchor="start" x="3832.5" y="-23.3" font-family="Times,serif" font-size="14.00">request_OA_data(paras): da.array</text>
<text text-anchor="start" x="3832.5" y="-8.3" font-family="Times,serif" font-size="14.00">viz_elevation(): tuple[hv.DynamicMap, hv.Layout]</text>
</g>
<!-- icepyx.core.APIformatting._FmtedKeysDescriptor -->
<g id="node26" class="node">
<title>icepyx.core.APIformatting._FmtedKeysDescriptor</title>
<polygon fill="none" stroke="black" points="2646,-74.6 2646,-145.4 2825,-145.4 2825,-74.6 2646,-74.6"/>
<text text-anchor="start" x="2654" y="-130.2" font-family="Times,serif" font-size="14.00">_FmtedKeysDescriptor</text>
<polyline fill="none" stroke="black" points="2646,-122.4 2825,-122.4 "/>
<polyline fill="none" stroke="black" points="2646,-97.6 2825,-97.6 "/>
<text text-anchor="start" x="2733" y="-82.4" font-family="Times,serif" font-size="14.00"> </text>
</g>
<!-- icepyx.core.APIformatting._FmtedKeysDescriptor&#45;&gt;icepyx.core.APIformatting.Parameters -->
<g id="edge16" class="edge">
<title>icepyx.core.APIformatting._FmtedKeysDescriptor&#45;&gt;icepyx.core.APIformatting.Parameters</title>
<path fill="none" stroke="black" d="M2735.5,-145.5C2735.5,-178.98 2735.5,-230.93 2735.5,-274.09"/>
<polygon fill="black" stroke="black" points="2735.5,-274.3 2739.5,-280.3 2735.5,-286.3 2731.5,-280.3 2735.5,-274.3"/>
<text text-anchor="middle" x="2776.5" y="-241.8" font-family="Times,serif" font-size="14.00" fill="green">fmted_keys</text>
</g>
</g>
</svg>
