<?xml version="1.0" encoding="UTF-8" standalone="no"?>
<!DOCTYPE svg PUBLIC "-//W3C//DTD SVG 1.1//EN"
 "http://www.w3.org/Graphics/SVG/1.1/DTD/svg11.dtd">
<!-- Generated by graphviz version 2.43.0 (0)
 -->
<!-- Title: classes_user_uml Pages: 1 -->
<svg width="2126pt" height="847pt"
 viewBox="0.00 0.00 2125.50 846.80" xmlns="http://www.w3.org/2000/svg" xmlns:xlink="http://www.w3.org/1999/xlink">
<g id="graph0" class="graph" transform="scale(1 1) rotate(0) translate(4 842.8)">
<title>classes_user_uml</title>
<polygon fill="white" stroke="transparent" points="-4,4 -4,-842.8 2121.5,-842.8 2121.5,4 -4,4"/>
<!-- icepyx.core.query.GenQuery -->
<g id="node1" class="node">
<title>icepyx.core.query.GenQuery</title>
<polygon fill="none" stroke="black" points="1409.5,-767.5 1409.5,-838.3 1498.5,-838.3 1498.5,-767.5 1409.5,-767.5"/>
<text text-anchor="start" x="1417.5" y="-823.1" font-family="Times,serif" font-size="14.00">GenQuery</text>
<polyline fill="none" stroke="black" points="1409.5,-815.3 1498.5,-815.3 "/>
<polyline fill="none" stroke="black" points="1409.5,-790.5 1498.5,-790.5 "/>
<text text-anchor="start" x="1451.5" y="-775.3" font-family="Times,serif" font-size="14.00"> </text>
</g>
<!-- icepyx.core.granules.Granules -->
<g id="node2" class="node">
<title>icepyx.core.granules.Granules</title>
<polygon fill="none" stroke="black" points="0,-53 0,-167 686,-167 686,-53 0,-53"/>
<text text-anchor="start" x="310.5" y="-151.8" font-family="Times,serif" font-size="14.00">Granules</text>
<polyline fill="none" stroke="black" points="0,-144 686,-144 "/>
<text text-anchor="start" x="293" y="-128.8" font-family="Times,serif" font-size="14.00">avail : list</text>
<text text-anchor="start" x="293" y="-113.8" font-family="Times,serif" font-size="14.00">orderIDs : list</text>
<polyline fill="none" stroke="black" points="0,-106 686,-106 "/>
<text text-anchor="start" x="8" y="-90.8" font-family="Times,serif" font-size="14.00">download(verbose, path, session, restart)</text>
<text text-anchor="start" x="8" y="-75.8" font-family="Times,serif" font-size="14.00">get_avail(CMRparams, reqparams, cloud)</text>
<text text-anchor="start" x="8" y="-60.8" font-family="Times,serif" font-size="14.00">place_order(CMRparams, reqparams, subsetparams, verbose, subset, session, geom_filepath)</text>
</g>
<!-- icepyx.core.query.Query -->
<g id="node6" class="node">
<title>icepyx.core.query.Query</title>
<polygon fill="none" stroke="black" points="653.5,-271.5 653.5,-715.5 1030.5,-715.5 1030.5,-271.5 653.5,-271.5"/>
<text text-anchor="start" x="820" y="-700.3" font-family="Times,serif" font-size="14.00">Query</text>
<polyline fill="none" stroke="black" points="653.5,-692.5 1030.5,-692.5 "/>
<text text-anchor="start" x="784.5" y="-677.3" font-family="Times,serif" font-size="14.00">CMRparams</text>
<text text-anchor="start" x="784.5" y="-662.3" font-family="Times,serif" font-size="14.00">cycles</text>
<text text-anchor="start" x="784.5" y="-647.3" font-family="Times,serif" font-size="14.00">dataset</text>
<text text-anchor="start" x="784.5" y="-632.3" font-family="Times,serif" font-size="14.00">dates</text>
<text text-anchor="start" x="784.5" y="-617.3" font-family="Times,serif" font-size="14.00">end_time</text>
<text text-anchor="start" x="784.5" y="-602.3" font-family="Times,serif" font-size="14.00">file_vars</text>
<text text-anchor="start" x="784.5" y="-587.3" font-family="Times,serif" font-size="14.00">granules</text>
<text text-anchor="start" x="784.5" y="-572.3" font-family="Times,serif" font-size="14.00">order_vars</text>
<text text-anchor="start" x="784.5" y="-557.3" font-family="Times,serif" font-size="14.00">product</text>
<text text-anchor="start" x="784.5" y="-542.3" font-family="Times,serif" font-size="14.00">product_version</text>
<text text-anchor="start" x="784.5" y="-527.3" font-family="Times,serif" font-size="14.00">reqparams</text>
<text text-anchor="start" x="784.5" y="-512.3" font-family="Times,serif" font-size="14.00">spatial</text>
<text text-anchor="start" x="784.5" y="-497.3" font-family="Times,serif" font-size="14.00">spatial_extent</text>
<text text-anchor="start" x="784.5" y="-482.3" font-family="Times,serif" font-size="14.00">start_time</text>
<text text-anchor="start" x="784.5" y="-467.3" font-family="Times,serif" font-size="14.00">temporal</text>
<text text-anchor="start" x="784.5" y="-452.3" font-family="Times,serif" font-size="14.00">tracks</text>
<polyline fill="none" stroke="black" points="653.5,-444.5 1030.5,-444.5 "/>
<text text-anchor="start" x="661.5" y="-429.3" font-family="Times,serif" font-size="14.00">avail_granules(ids, cycles, tracks, cloud)</text>
<text text-anchor="start" x="661.5" y="-414.3" font-family="Times,serif" font-size="14.00">download_granules(path, verbose, subset, restart)</text>
<text text-anchor="start" x="661.5" y="-399.3" font-family="Times,serif" font-size="14.00">earthdata_login(uid, email, s3token): None</text>
<text text-anchor="start" x="661.5" y="-384.3" font-family="Times,serif" font-size="14.00">latest_version()</text>
<text text-anchor="start" x="661.5" y="-369.3" font-family="Times,serif" font-size="14.00">order_granules(verbose, subset, email)</text>
<text text-anchor="start" x="661.5" y="-354.3" font-family="Times,serif" font-size="14.00">product_all_info()</text>
<text text-anchor="start" x="661.5" y="-339.3" font-family="Times,serif" font-size="14.00">product_summary_info()</text>
<text text-anchor="start" x="661.5" y="-324.3" font-family="Times,serif" font-size="14.00">show_custom_options(dictview)</text>
<text text-anchor="start" x="661.5" y="-309.3" font-family="Times,serif" font-size="14.00">subsetparams()</text>
<text text-anchor="start" x="661.5" y="-294.3" font-family="Times,serif" font-size="14.00">visualize_elevation()</text>
<text text-anchor="start" x="661.5" y="-279.3" font-family="Times,serif" font-size="14.00">visualize_spatial_extent()</text>
</g>
<!-- icepyx.core.granules.Granules&#45;&gt;icepyx.core.query.Query -->
<g id="edge7" class="edge">
<title>icepyx.core.granules.Granules&#45;&gt;icepyx.core.query.Query</title>
<path fill="none" stroke="black" d="M338.21,-167.02C338.58,-195.15 343.52,-228.38 361,-253 427.57,-346.75 541.53,-405.74 641.82,-441.71"/>
<polygon fill="black" stroke="black" points="642.03,-441.79 649.02,-440 653.35,-445.77 646.36,-447.55 642.03,-441.79"/>
<text text-anchor="middle" x="396" y="-241.8" font-family="Times,serif" font-size="14.00" fill="green">_granules</text>
</g>
<!-- icepyx.core.granules.Granules&#45;&gt;icepyx.core.query.Query -->
<g id="edge8" class="edge">
<title>icepyx.core.granules.Granules&#45;&gt;icepyx.core.query.Query</title>
<path fill="none" stroke="black" d="M388.04,-167.09C411.53,-194.59 441.66,-227.24 472,-253 524.41,-297.5 585.62,-340.27 642.98,-377.03"/>
<polygon fill="black" stroke="black" points="643.15,-377.14 650.36,-376.99 653.27,-383.59 646.06,-383.74 643.15,-377.14"/>
<text text-anchor="middle" x="507" y="-241.8" font-family="Times,serif" font-size="14.00" fill="green">_granules</text>
</g>
<!-- icepyx.core.icesat2data.Icesat2Data -->
<g id="node3" class="node">
<title>icepyx.core.icesat2data.Icesat2Data</title>
<polygon fill="none" stroke="black" points="1431,-74.6 1431,-145.4 1533,-145.4 1533,-74.6 1431,-74.6"/>
<text text-anchor="start" x="1439" y="-130.2" font-family="Times,serif" font-size="14.00">Icesat2Data</text>
<polyline fill="none" stroke="black" points="1431,-122.4 1533,-122.4 "/>
<polyline fill="none" stroke="black" points="1431,-97.6 1533,-97.6 "/>
<text text-anchor="start" x="1479.5" y="-82.4" font-family="Times,serif" font-size="14.00"> </text>
</g>
<!-- icepyx.core.exceptions.NsidcQueryError -->
<g id="node4" class="node">
<title>icepyx.core.exceptions.NsidcQueryError</title>
<polygon fill="none" stroke="black" points="1631,-68 1631,-152 1771,-152 1771,-68 1631,-68"/>
<text text-anchor="start" x="1639" y="-136.8" font-family="Times,serif" font-size="14.00" fill="red">NsidcQueryError</text>
<polyline fill="none" stroke="black" points="1631,-129 1771,-129 "/>
<text text-anchor="start" x="1658.5" y="-113.8" font-family="Times,serif" font-size="14.00" fill="red">errmsg</text>
<text text-anchor="start" x="1658.5" y="-98.8" font-family="Times,serif" font-size="14.00" fill="red">msgtxt : str</text>
<polyline fill="none" stroke="black" points="1631,-91 1771,-91 "/>
<text text-anchor="start" x="1698.5" y="-75.8" font-family="Times,serif" font-size="14.00" fill="red"> </text>
</g>
<!-- icepyx.core.exceptions.QueryError -->
<g id="node7" class="node">
<title>icepyx.core.exceptions.QueryError</title>
<polygon fill="none" stroke="black" points="1651.5,-458.1 1651.5,-528.9 1750.5,-528.9 1750.5,-458.1 1651.5,-458.1"/>
<text text-anchor="start" x="1659.5" y="-513.7" font-family="Times,serif" font-size="14.00" fill="red">QueryError</text>
<polyline fill="none" stroke="black" points="1651.5,-505.9 1750.5,-505.9 "/>
<polyline fill="none" stroke="black" points="1651.5,-481.1 1750.5,-481.1 "/>
<text text-anchor="start" x="1698.5" y="-465.9" font-family="Times,serif" font-size="14.00" fill="red"> </text>
</g>
<!-- icepyx.core.exceptions.NsidcQueryError&#45;&gt;icepyx.core.exceptions.QueryError -->
<g id="edge1" class="edge">
<title>icepyx.core.exceptions.NsidcQueryError&#45;&gt;icepyx.core.exceptions.QueryError</title>
<path fill="none" stroke="black" d="M1701,-152.19C1701,-224.42 1701,-373.31 1701,-447.88"/>
<polygon fill="none" stroke="black" points="1697.5,-447.9 1701,-457.9 1704.5,-447.9 1697.5,-447.9"/>
</g>
<!-- icepyx.core.APIformatting.Parameters -->
<g id="node5" class="node">
<title>icepyx.core.APIformatting.Parameters</title>
<polygon fill="none" stroke="black" points="703.5,-45.5 703.5,-174.5 854.5,-174.5 854.5,-45.5 703.5,-45.5"/>
<text text-anchor="start" x="737.5" y="-159.3" font-family="Times,serif" font-size="14.00">Parameters</text>
<polyline fill="none" stroke="black" points="703.5,-151.5 854.5,-151.5 "/>
<text text-anchor="start" x="738" y="-136.3" font-family="Times,serif" font-size="14.00">fmted_keys</text>
<text text-anchor="start" x="738" y="-121.3" font-family="Times,serif" font-size="14.00">partype</text>
<text text-anchor="start" x="738" y="-106.3" font-family="Times,serif" font-size="14.00">poss_keys</text>
<polyline fill="none" stroke="black" points="703.5,-98.5 854.5,-98.5 "/>
<text text-anchor="start" x="711.5" y="-83.3" font-family="Times,serif" font-size="14.00">build_params()</text>
<text text-anchor="start" x="711.5" y="-68.3" font-family="Times,serif" font-size="14.00">check_req_values()</text>
<text text-anchor="start" x="711.5" y="-53.3" font-family="Times,serif" font-size="14.00">check_values()</text>
</g>
<!-- icepyx.core.APIformatting.Parameters&#45;&gt;icepyx.core.query.Query -->
<g id="edge3" class="edge">
<title>icepyx.core.APIformatting.Parameters&#45;&gt;icepyx.core.query.Query</title>
<path fill="none" stroke="black" d="M743.04,-174.75C730.13,-192.14 713.98,-209.16 695,-220 637.61,-252.77 521.73,-193.26 550,-253 571.42,-298.27 606.05,-337.84 644.1,-371.09"/>
<polygon fill="black" stroke="black" points="644.19,-371.17 651.35,-372.02 653.31,-378.96 646.15,-378.11 644.19,-371.17"/>
<text text-anchor="middle" x="598" y="-241.8" font-family="Times,serif" font-size="14.00" fill="green">_CMRparams</text>
</g>
<!-- icepyx.core.APIformatting.Parameters&#45;&gt;icepyx.core.query.Query -->
<g id="edge4" class="edge">
<title>icepyx.core.APIformatting.Parameters&#45;&gt;icepyx.core.query.Query</title>
<path fill="none" stroke="black" d="M735.24,-174.63C723.09,-190.28 709.29,-206.42 695,-220 684.81,-229.68 675.52,-225.55 669,-238 665.91,-243.91 666.95,-246.66 669,-253 669.74,-255.29 670.51,-257.57 671.31,-259.85"/>
<polygon fill="black" stroke="black" points="671.36,-259.97 677.2,-264.2 675.55,-271.22 669.71,-266.99 671.36,-259.97"/>
<text text-anchor="middle" x="711.5" y="-241.8" font-family="Times,serif" font-size="14.00" fill="green">_reqparams</text>
</g>
<!-- icepyx.core.APIformatting.Parameters&#45;&gt;icepyx.core.query.Query -->
<g id="edge5" class="edge">
<title>icepyx.core.APIformatting.Parameters&#45;&gt;icepyx.core.query.Query</title>
<path fill="none" stroke="black" d="M777.8,-174.63C777.47,-194.88 777.16,-217.38 777,-238 776.95,-244.67 776.12,-246.39 777,-253 777.28,-255.09 777.57,-257.19 777.88,-259.3"/>
<polygon fill="black" stroke="black" points="777.92,-259.57 782.79,-264.88 779.75,-271.42 774.88,-266.11 777.92,-259.57"/>
<text text-anchor="middle" x="831" y="-241.8" font-family="Times,serif" font-size="14.00" fill="green">_subsetparams</text>
</g>
<!-- icepyx.core.APIformatting.Parameters&#45;&gt;icepyx.core.query.Query -->
<g id="edge6" class="edge">
<title>icepyx.core.APIformatting.Parameters&#45;&gt;icepyx.core.query.Query</title>
<path fill="none" stroke="black" d="M846.57,-174.57C862.2,-193.34 876.68,-215.05 885,-238 887.53,-244.97 889.54,-252.09 891.11,-259.33"/>
<polygon fill="black" stroke="black" points="891.12,-259.39 896.14,-264.58 893.28,-271.2 888.26,-266.01 891.12,-259.39"/>
<text text-anchor="middle" x="944" y="-241.8" font-family="Times,serif" font-size="14.00" fill="green">_subsetparams</text>
</g>
<!-- icepyx.core.query.Query&#45;&gt;icepyx.core.query.GenQuery -->
<g id="edge2" class="edge">
<title>icepyx.core.query.Query&#45;&gt;icepyx.core.query.GenQuery</title>
<path fill="none" stroke="black" d="M1030.63,-589.62C1108.43,-628.82 1199.53,-674.65 1282,-716 1321.55,-735.83 1366.25,-758.15 1400.17,-775.07"/>
<polygon fill="none" stroke="black" points="1398.92,-778.36 1409.43,-779.69 1402.05,-772.1 1398.92,-778.36"/>
</g>
<!-- icepyx.core.read.Read -->
<g id="node8" class="node">
<title>icepyx.core.read.Read</title>
<polygon fill="none" stroke="black" points="1291,-444 1291,-543 1393,-543 1393,-444 1291,-444"/>
<text text-anchor="start" x="1323.5" y="-527.8" font-family="Times,serif" font-size="14.00">Read</text>
<polyline fill="none" stroke="black" points="1291,-520 1393,-520 "/>
<text text-anchor="start" x="1299" y="-504.8" font-family="Times,serif" font-size="14.00">data_source</text>
<text text-anchor="start" x="1299" y="-489.8" font-family="Times,serif" font-size="14.00">is2catalog</text>
<text text-anchor="start" x="1299" y="-474.8" font-family="Times,serif" font-size="14.00">vars</text>
<polyline fill="none" stroke="black" points="1291,-467 1393,-467 "/>
<text text-anchor="start" x="1321.5" y="-451.8" font-family="Times,serif" font-size="14.00">load()</text>
</g>
<!-- icepyx.core.spatial.Spatial -->
<g id="node9" class="node">
<title>icepyx.core.spatial.Spatial</title>
<polygon fill="none" stroke="black" points="1411.5,-429 1411.5,-558 1532.5,-558 1532.5,-429 1411.5,-429"/>
<text text-anchor="start" x="1446.5" y="-542.8" font-family="Times,serif" font-size="14.00">Spatial</text>
<polyline fill="none" stroke="black" points="1411.5,-535 1532.5,-535 "/>
<text text-anchor="start" x="1422.5" y="-519.8" font-family="Times,serif" font-size="14.00">extent</text>
<text text-anchor="start" x="1422.5" y="-504.8" font-family="Times,serif" font-size="14.00">extent_as_gdf</text>
<text text-anchor="start" x="1422.5" y="-489.8" font-family="Times,serif" font-size="14.00">extent_file</text>
<text text-anchor="start" x="1422.5" y="-474.8" font-family="Times,serif" font-size="14.00">extent_type</text>
<polyline fill="none" stroke="black" points="1411.5,-467 1532.5,-467 "/>
<text text-anchor="start" x="1419.5" y="-451.8" font-family="Times,serif" font-size="14.00">fmt_for_CMR()</text>
<text text-anchor="start" x="1419.5" y="-436.8" font-family="Times,serif" font-size="14.00">fmt_for_EGI()</text>
</g>
<!-- icepyx.core.spatial.Spatial&#45;&gt;icepyx.core.query.GenQuery -->
<g id="edge9" class="edge">
<title>icepyx.core.spatial.Spatial&#45;&gt;icepyx.core.query.GenQuery</title>
<path fill="none" stroke="black" d="M1452.92,-558.09C1439.59,-605.95 1422.99,-673.45 1416,-734 1415.24,-740.62 1413.96,-742.65 1416,-749 1416.83,-751.58 1417.84,-754.14 1418.98,-756.66"/>
<polygon fill="black" stroke="black" points="1419.08,-756.84 1425.44,-760.24 1424.76,-767.42 1418.39,-764.02 1419.08,-756.84"/>
<text text-anchor="middle" x="1443.5" y="-737.8" font-family="Times,serif" font-size="14.00" fill="green">_spatial</text>
</g>
<!-- icepyx.core.spatial.Spatial&#45;&gt;icepyx.core.query.GenQuery -->
<g id="edge10" class="edge">
<title>icepyx.core.spatial.Spatial&#45;&gt;icepyx.core.query.GenQuery</title>
<path fill="none" stroke="black" d="M1477.12,-558.21C1479.99,-609.95 1481.22,-684.63 1471,-749 1470.66,-751.16 1470.24,-753.35 1469.77,-755.55"/>
<polygon fill="black" stroke="black" points="1469.75,-755.64 1472.15,-762.44 1466.79,-767.27 1464.39,-760.47 1469.75,-755.64"/>
<text text-anchor="middle" x="1500.5" y="-737.8" font-family="Times,serif" font-size="14.00" fill="green">_spatial</text>
</g>
<!-- icepyx.core.temporal.Temporal -->
<g id="node10" class="node">
<title>icepyx.core.temporal.Temporal</title>
<polygon fill="none" stroke="black" points="1550.5,-451.5 1550.5,-535.5 1633.5,-535.5 1633.5,-451.5 1550.5,-451.5"/>
<text text-anchor="start" x="1558.5" y="-520.3" font-family="Times,serif" font-size="14.00">Temporal</text>
<polyline fill="none" stroke="black" points="1550.5,-512.5 1633.5,-512.5 "/>
<text text-anchor="start" x="1574.5" y="-497.3" font-family="Times,serif" font-size="14.00">end</text>
<text text-anchor="start" x="1574.5" y="-482.3" font-family="Times,serif" font-size="14.00">start</text>
<polyline fill="none" stroke="black" points="1550.5,-474.5 1633.5,-474.5 "/>
<text text-anchor="start" x="1589.5" y="-459.3" font-family="Times,serif" font-size="14.00"> </text>
</g>
<!-- icepyx.core.temporal.Temporal&#45;&gt;icepyx.core.query.GenQuery -->
<g id="edge11" class="edge">
<title>icepyx.core.temporal.Temporal&#45;&gt;icepyx.core.query.GenQuery</title>
<path fill="none" stroke="black" d="M1591.63,-535.86C1589.21,-589.72 1578.06,-684.55 1532,-749 1525.71,-757.8 1517.47,-765.58 1508.7,-772.29"/>
<polygon fill="black" stroke="black" points="1508.45,-772.47 1505.86,-779.2 1498.65,-779.4 1501.24,-772.67 1508.45,-772.47"/>
<text text-anchor="middle" x="1576" y="-737.8" font-family="Times,serif" font-size="14.00" fill="green">_temporal</text>
</g>
<!-- icepyx.core.variables.Variables -->
<g id="node11" class="node">
<title>icepyx.core.variables.Variables</title>
<polygon fill="none" stroke="black" points="997.5,-38 997.5,-182 1372.5,-182 1372.5,-38 997.5,-38"/>
<text text-anchor="start" x="1151.5" y="-166.8" font-family="Times,serif" font-size="14.00">Variables</text>
<polyline fill="none" stroke="black" points="997.5,-159 1372.5,-159 "/>
<text text-anchor="start" x="1097.5" y="-143.8" font-family="Times,serif" font-size="14.00">path : NoneType</text>
<text text-anchor="start" x="1097.5" y="-128.8" font-family="Times,serif" font-size="14.00">product : NoneType</text>
<text text-anchor="start" x="1097.5" y="-113.8" font-family="Times,serif" font-size="14.00">wanted : dict, NoneType</text>
<polyline fill="none" stroke="black" points="997.5,-106 1372.5,-106 "/>
<text text-anchor="start" x="1005.5" y="-90.8" font-family="Times,serif" font-size="14.00">append(defaults, var_list, beam_list, keyword_list)</text>
<text text-anchor="start" x="1005.5" y="-75.8" font-family="Times,serif" font-size="14.00">avail(options, internal)</text>
<text text-anchor="start" x="1005.5" y="-60.8" font-family="Times,serif" font-size="14.00">parse_var_list(varlist, tiered, tiered_vars)</text>
<text text-anchor="start" x="1005.5" y="-45.8" font-family="Times,serif" font-size="14.00">remove(all, var_list, beam_list, keyword_list)</text>
</g>
<!-- icepyx.core.variables.Variables&#45;&gt;icepyx.core.query.Query -->
<g id="edge12" class="edge">
<title>icepyx.core.variables.Variables&#45;&gt;icepyx.core.query.Query</title>
<path fill="none" stroke="black" d="M1097.5,-182.18C1077.57,-199.72 1056.99,-218.95 1039,-238 1031.6,-245.83 1024.21,-253.93 1016.85,-262.2"/>
<polygon fill="black" stroke="black" points="1016.81,-262.24 1015.85,-269.39 1008.88,-271.25 1009.84,-264.1 1016.81,-262.24"/>
<text text-anchor="middle" x="1081" y="-241.8" font-family="Times,serif" font-size="14.00" fill="green">_order_vars</text>
</g>
<!-- icepyx.core.variables.Variables&#45;&gt;icepyx.core.query.Query -->
<g id="edge13" class="edge">
<title>icepyx.core.variables.Variables&#45;&gt;icepyx.core.query.Query</title>
<path fill="none" stroke="black" d="M1161.25,-182.31C1151.48,-206.06 1138.71,-231.83 1123,-253 1099.01,-285.33 1069.89,-316.21 1039.58,-344.41"/>
<polygon fill="black" stroke="black" points="1039.42,-344.56 1037.7,-351.56 1030.58,-352.68 1032.29,-345.67 1039.42,-344.56"/>
<text text-anchor="middle" x="1175" y="-241.8" font-family="Times,serif" font-size="14.00" fill="green">_order_vars</text>
</g>
<!-- icepyx.core.variables.Variables&#45;&gt;icepyx.core.query.Query -->
<g id="edge14" class="edge">
<title>icepyx.core.variables.Variables&#45;&gt;icepyx.core.query.Query</title>
<path fill="none" stroke="black" d="M1223.19,-182.28C1230.62,-205.77 1232.91,-231.39 1221,-253 1181.7,-324.33 1111.21,-377.36 1041.6,-415.13"/>
<polygon fill="black" stroke="black" points="1041.49,-415.19 1038.07,-421.54 1030.89,-420.83 1034.31,-414.48 1041.49,-415.19"/>
<text text-anchor="middle" x="1260.5" y="-241.8" font-family="Times,serif" font-size="14.00" fill="green">_file_vars</text>
</g>
<!-- icepyx.core.variables.Variables&#45;&gt;icepyx.core.read.Read -->
<g id="edge15" class="edge">
<title>icepyx.core.variables.Variables&#45;&gt;icepyx.core.read.Read</title>
<path fill="none" stroke="black" d="M1279.35,-182.25C1295.43,-198.78 1310.11,-217.58 1320,-238 1349.59,-299.1 1351.66,-378.12 1348.54,-431.79"/>
<polygon fill="black" stroke="black" points="1348.54,-431.88 1352.12,-438.14 1347.73,-443.85 1344.14,-437.6 1348.54,-431.88"/>
<text text-anchor="middle" x="1364.5" y="-241.8" font-family="Times,serif" font-size="14.00" fill="green">_read_vars</text>
</g>
<!-- icepyx.core.visualization.Visualize -->
<g id="node12" class="node">
<title>icepyx.core.visualization.Visualize</title>
<polygon fill="none" stroke="black" points="1788.5,-0.5 1788.5,-219.5 2117.5,-219.5 2117.5,-0.5 1788.5,-0.5"/>
<text text-anchor="start" x="1921" y="-204.3" font-family="Times,serif" font-size="14.00">Visualize</text>
<polyline fill="none" stroke="black" points="1788.5,-196.5 2117.5,-196.5 "/>
<text text-anchor="start" x="1867.5" y="-181.3" font-family="Times,serif" font-size="14.00">bbox : list</text>
<text text-anchor="start" x="1867.5" y="-166.3" font-family="Times,serif" font-size="14.00">cycles : NoneType</text>
<text text-anchor="start" x="1867.5" y="-151.3" font-family="Times,serif" font-size="14.00">date_range : NoneType</text>
<text text-anchor="start" x="1867.5" y="-136.3" font-family="Times,serif" font-size="14.00">product : NoneType, str</text>
<text text-anchor="start" x="1867.5" y="-121.3" font-family="Times,serif" font-size="14.00">tracks : NoneType</text>
<polyline fill="none" stroke="black" points="1788.5,-113.5 2117.5,-113.5 "/>
<text text-anchor="start" x="1796.5" y="-98.3" font-family="Times,serif" font-size="14.00">generate_OA_parameters(): list</text>
<text text-anchor="start" x="1796.5" y="-83.3" font-family="Times,serif" font-size="14.00">grid_bbox(binsize): list</text>
<text text-anchor="start" x="1796.5" y="-68.3" font-family="Times,serif" font-size="14.00">make_request(base_url, payload)</text>
<text text-anchor="start" x="1796.5" y="-53.3" font-family="Times,serif" font-size="14.00">parallel_request_OA(): da.array</text>
<text text-anchor="start" x="1796.5" y="-38.3" font-family="Times,serif" font-size="14.00">query_icesat2_filelist(): tuple</text>
<text text-anchor="start" x="1796.5" y="-23.3" font-family="Times,serif" font-size="14.00">request_OA_data(paras): da.array</text>
<text text-anchor="start" x="1796.5" y="-8.3" font-family="Times,serif" font-size="14.00">viz_elevation(): (hv.DynamicMap, hv.Layout)</text>
</g>
</g>
</svg>
