<?xml version="1.0" encoding="UTF-8" standalone="no"?>
<!DOCTYPE svg PUBLIC "-//W3C//DTD SVG 1.1//EN"
 "http://www.w3.org/Graphics/SVG/1.1/DTD/svg11.dtd">
<!-- Generated by graphviz version 2.43.0 (0)
 -->
<!-- Title: classes_user_uml Pages: 1 -->
<svg width="2302pt" height="800pt"
 viewBox="0.00 0.00 2302.00 800.00" xmlns="http://www.w3.org/2000/svg" xmlns:xlink="http://www.w3.org/1999/xlink">
<g id="graph0" class="graph" transform="scale(1 1) rotate(0) translate(4 796)">
<title>classes_user_uml</title>
<polygon fill="white" stroke="transparent" points="-4,4 -4,-796 2298,-796 2298,4 -4,4"/>
<!-- icepyx.core.auth.AuthenticationError -->
<g id="node1" class="node">
<title>icepyx.core.auth.AuthenticationError</title>
<polygon fill="none" stroke="black" points="0,-74.6 0,-145.4 161,-145.4 161,-74.6 0,-74.6"/>
<text text-anchor="start" x="8" y="-130.2" font-family="Times,serif" font-size="14.00" fill="red">AuthenticationError</text>
<polyline fill="none" stroke="black" points="0,-122.4 161,-122.4 "/>
<polyline fill="none" stroke="black" points="0,-97.6 161,-97.6 "/>
<text text-anchor="start" x="78" y="-82.4" font-family="Times,serif" font-size="14.00" fill="red"> </text>
</g>
<!-- icepyx.core.exceptions.DeprecationError -->
<g id="node2" class="node">
<title>icepyx.core.exceptions.DeprecationError</title>
<polygon fill="none" stroke="black" points="179,-74.6 179,-145.4 322,-145.4 322,-74.6 179,-74.6"/>
<text text-anchor="start" x="187" y="-130.2" font-family="Times,serif" font-size="14.00" fill="red">DeprecationError</text>
<polyline fill="none" stroke="black" points="179,-122.4 322,-122.4 "/>
<polyline fill="none" stroke="black" points="179,-97.6 322,-97.6 "/>
<text text-anchor="start" x="248" y="-82.4" font-family="Times,serif" font-size="14.00" fill="red"> </text>
</g>
<!-- icepyx.core.auth.EarthdataAuthMixin -->
<g id="node3" class="node">
<title>icepyx.core.auth.EarthdataAuthMixin</title>
<polygon fill="none" stroke="black" points="621,-670 621,-769 942,-769 942,-670 621,-670"/>
<text text-anchor="start" x="708" y="-753.8" font-family="Times,serif" font-size="14.00">EarthdataAuthMixin</text>
<polyline fill="none" stroke="black" points="621,-746 942,-746 "/>
<text text-anchor="start" x="712" y="-730.8" font-family="Times,serif" font-size="14.00">auth</text>
<text text-anchor="start" x="712" y="-715.8" font-family="Times,serif" font-size="14.00">s3login_credentials</text>
<text text-anchor="start" x="712" y="-700.8" font-family="Times,serif" font-size="14.00">session</text>
<polyline fill="none" stroke="black" points="621,-693 942,-693 "/>
<text text-anchor="start" x="629" y="-677.8" font-family="Times,serif" font-size="14.00">earthdata_login(uid, email, s3token): None</text>
</g>
<!-- icepyx.core.query.GenQuery -->
<g id="node4" class="node">
<title>icepyx.core.query.GenQuery</title>
<polygon fill="none" stroke="black" points="1465,-647.5 1465,-791.5 1582,-791.5 1582,-647.5 1465,-647.5"/>
<text text-anchor="start" x="1487" y="-776.3" font-family="Times,serif" font-size="14.00">GenQuery</text>
<polyline fill="none" stroke="black" points="1465,-768.5 1582,-768.5 "/>
<text text-anchor="start" x="1473" y="-753.3" font-family="Times,serif" font-size="14.00">dates</text>
<text text-anchor="start" x="1473" y="-738.3" font-family="Times,serif" font-size="14.00">end_time</text>
<text text-anchor="start" x="1473" y="-723.3" font-family="Times,serif" font-size="14.00">spatial</text>
<text text-anchor="start" x="1473" y="-708.3" font-family="Times,serif" font-size="14.00">spatial_extent</text>
<text text-anchor="start" x="1473" y="-693.3" font-family="Times,serif" font-size="14.00">start_time</text>
<text text-anchor="start" x="1473" y="-678.3" font-family="Times,serif" font-size="14.00">temporal</text>
<polyline fill="none" stroke="black" points="1465,-670.5 1582,-670.5 "/>
<text text-anchor="start" x="1521" y="-655.3" font-family="Times,serif" font-size="14.00"> </text>
</g>
<!-- icepyx.core.granules.Granules -->
<g id="node5" class="node">
<title>icepyx.core.granules.Granules</title>
<polygon fill="none" stroke="black" points="1044,-53 1044,-167 1669,-167 1669,-53 1044,-53"/>
<text text-anchor="start" x="1324" y="-151.8" font-family="Times,serif" font-size="14.00">Granules</text>
<polyline fill="none" stroke="black" points="1044,-144 1669,-144 "/>
<text text-anchor="start" x="1306.5" y="-128.8" font-family="Times,serif" font-size="14.00">avail : list</text>
<text text-anchor="start" x="1306.5" y="-113.8" font-family="Times,serif" font-size="14.00">orderIDs : list</text>
<polyline fill="none" stroke="black" points="1044,-106 1669,-106 "/>
<text text-anchor="start" x="1052" y="-90.8" font-family="Times,serif" font-size="14.00">download(verbose, path, restart)</text>
<text text-anchor="start" x="1052" y="-75.8" font-family="Times,serif" font-size="14.00">get_avail(CMRparams, reqparams, cloud)</text>
<text text-anchor="start" x="1052" y="-60.8" font-family="Times,serif" font-size="14.00">place_order(CMRparams, reqparams, subsetparams, verbose, subset, geom_filepath)</text>
</g>
<!-- icepyx.core.granules.Granules&#45;&gt;icepyx.core.auth.EarthdataAuthMixin -->
<g id="edge2" class="edge">
<title>icepyx.core.granules.Granules&#45;&gt;icepyx.core.auth.EarthdataAuthMixin</title>
<path fill="none" stroke="black" d="M1400.93,-167.1C1416.01,-192.85 1426.93,-224.04 1417.5,-253 1359.07,-432.36 1320.58,-485.76 1167.5,-596 1104.29,-641.52 1023.5,-670.58 952.18,-688.91"/>
<polygon fill="none" stroke="black" points="951.03,-685.59 942.18,-691.42 952.73,-692.38 951.03,-685.59"/>
</g>
<!-- icepyx.core.query.Query -->
<g id="node9" class="node">
<title>icepyx.core.query.Query</title>
<polygon fill="none" stroke="black" points="782,-271.5 782,-595.5 1159,-595.5 1159,-271.5 782,-271.5"/>
<text text-anchor="start" x="948.5" y="-580.3" font-family="Times,serif" font-size="14.00">Query</text>
<polyline fill="none" stroke="black" points="782,-572.5 1159,-572.5 "/>
<text text-anchor="start" x="913" y="-557.3" font-family="Times,serif" font-size="14.00">CMRparams</text>
<text text-anchor="start" x="913" y="-542.3" font-family="Times,serif" font-size="14.00">cycles</text>
<text text-anchor="start" x="913" y="-527.3" font-family="Times,serif" font-size="14.00">dataset</text>
<text text-anchor="start" x="913" y="-512.3" font-family="Times,serif" font-size="14.00">granules</text>
<text text-anchor="start" x="913" y="-497.3" font-family="Times,serif" font-size="14.00">order_vars</text>
<text text-anchor="start" x="913" y="-482.3" font-family="Times,serif" font-size="14.00">product</text>
<text text-anchor="start" x="913" y="-467.3" font-family="Times,serif" font-size="14.00">product_version</text>
<text text-anchor="start" x="913" y="-452.3" font-family="Times,serif" font-size="14.00">reqparams</text>
<text text-anchor="start" x="913" y="-437.3" font-family="Times,serif" font-size="14.00">tracks</text>
<polyline fill="none" stroke="black" points="782,-429.5 1159,-429.5 "/>
<text text-anchor="start" x="790" y="-414.3" font-family="Times,serif" font-size="14.00">avail_granules(ids, cycles, tracks, cloud)</text>
<text text-anchor="start" x="790" y="-399.3" font-family="Times,serif" font-size="14.00">download_granules(path, verbose, subset, restart)</text>
<text text-anchor="start" x="790" y="-384.3" font-family="Times,serif" font-size="14.00">latest_version()</text>
<text text-anchor="start" x="790" y="-369.3" font-family="Times,serif" font-size="14.00">order_granules(verbose, subset, email)</text>
<text text-anchor="start" x="790" y="-354.3" font-family="Times,serif" font-size="14.00">product_all_info()</text>
<text text-anchor="start" x="790" y="-339.3" font-family="Times,serif" font-size="14.00">product_summary_info()</text>
<text text-anchor="start" x="790" y="-324.3" font-family="Times,serif" font-size="14.00">show_custom_options(dictview)</text>
<text text-anchor="start" x="790" y="-309.3" font-family="Times,serif" font-size="14.00">subsetparams()</text>
<text text-anchor="start" x="790" y="-294.3" font-family="Times,serif" font-size="14.00">visualize_elevation()</text>
<text text-anchor="start" x="790" y="-279.3" font-family="Times,serif" font-size="14.00">visualize_spatial_extent()</text>
</g>
<!-- icepyx.core.granules.Granules&#45;&gt;icepyx.core.query.Query -->
<g id="edge11" class="edge">
<title>icepyx.core.granules.Granules&#45;&gt;icepyx.core.query.Query</title>
<path fill="none" stroke="black" d="M1359.52,-167.17C1358.3,-195.34 1352.44,-228.57 1334.5,-253 1293.99,-308.19 1231.79,-347.35 1170.21,-374.69"/>
<polygon fill="black" stroke="black" points="1170.14,-374.72 1166.22,-380.77 1159.13,-379.48 1163.04,-373.43 1170.14,-374.72"/>
<text text-anchor="middle" x="1378.5" y="-241.8" font-family="Times,serif" font-size="14.00" fill="green">_granules</text>
</g>
<!-- icepyx.core.granules.Granules&#45;&gt;icepyx.core.query.Query -->
<g id="edge12" class="edge">
<title>icepyx.core.granules.Granules&#45;&gt;icepyx.core.query.Query</title>
<path fill="none" stroke="black" d="M1303.62,-167.21C1277.39,-194.12 1244.7,-226.23 1213.5,-253 1199.16,-265.3 1184.04,-277.7 1168.65,-289.91"/>
<polygon fill="black" stroke="black" points="1168.46,-290.06 1166.23,-296.92 1159.04,-297.49 1161.28,-290.64 1168.46,-290.06"/>
<text text-anchor="middle" x="1265.5" y="-241.8" font-family="Times,serif" font-size="14.00" fill="green">_granules</text>
</g>
<!-- icepyx.core.icesat2data.Icesat2Data -->
<g id="node6" class="node">
<title>icepyx.core.icesat2data.Icesat2Data</title>
<polygon fill="none" stroke="black" points="1687.5,-74.6 1687.5,-145.4 1789.5,-145.4 1789.5,-74.6 1687.5,-74.6"/>
<text text-anchor="start" x="1695.5" y="-130.2" font-family="Times,serif" font-size="14.00">Icesat2Data</text>
<polyline fill="none" stroke="black" points="1687.5,-122.4 1789.5,-122.4 "/>
<polyline fill="none" stroke="black" points="1687.5,-97.6 1789.5,-97.6 "/>
<text text-anchor="start" x="1736" y="-82.4" font-family="Times,serif" font-size="14.00"> </text>
</g>
<!-- icepyx.core.exceptions.NsidcQueryError -->
<g id="node7" class="node">
<title>icepyx.core.exceptions.NsidcQueryError</title>
<polygon fill="none" stroke="black" points="1807.5,-68 1807.5,-152 1947.5,-152 1947.5,-68 1807.5,-68"/>
<text text-anchor="start" x="1815.5" y="-136.8" font-family="Times,serif" font-size="14.00" fill="red">NsidcQueryError</text>
<polyline fill="none" stroke="black" points="1807.5,-129 1947.5,-129 "/>
<text text-anchor="start" x="1835" y="-113.8" font-family="Times,serif" font-size="14.00" fill="red">errmsg</text>
<text text-anchor="start" x="1835" y="-98.8" font-family="Times,serif" font-size="14.00" fill="red">msgtxt : str</text>
<polyline fill="none" stroke="black" points="1807.5,-91 1947.5,-91 "/>
<text text-anchor="start" x="1875" y="-75.8" font-family="Times,serif" font-size="14.00" fill="red"> </text>
</g>
<!-- icepyx.core.exceptions.QueryError -->
<g id="node10" class="node">
<title>icepyx.core.exceptions.QueryError</title>
<polygon fill="none" stroke="black" points="1828,-398.1 1828,-468.9 1927,-468.9 1927,-398.1 1828,-398.1"/>
<text text-anchor="start" x="1836" y="-453.7" font-family="Times,serif" font-size="14.00" fill="red">QueryError</text>
<polyline fill="none" stroke="black" points="1828,-445.9 1927,-445.9 "/>
<polyline fill="none" stroke="black" points="1828,-421.1 1927,-421.1 "/>
<text text-anchor="start" x="1875" y="-405.9" font-family="Times,serif" font-size="14.00" fill="red"> </text>
</g>
<!-- icepyx.core.exceptions.NsidcQueryError&#45;&gt;icepyx.core.exceptions.QueryError -->
<g id="edge1" class="edge">
<title>icepyx.core.exceptions.NsidcQueryError&#45;&gt;icepyx.core.exceptions.QueryError</title>
<path fill="none" stroke="black" d="M1877.5,-152.04C1877.5,-212.53 1877.5,-325.19 1877.5,-387.74"/>
<polygon fill="none" stroke="black" points="1874,-388.07 1877.5,-398.07 1881,-388.07 1874,-388.07"/>
</g>
<!-- icepyx.core.APIformatting.Parameters -->
<g id="node8" class="node">
<title>icepyx.core.APIformatting.Parameters</title>
<polygon fill="none" stroke="black" points="852,-45.5 852,-174.5 1003,-174.5 1003,-45.5 852,-45.5"/>
<text text-anchor="start" x="886" y="-159.3" font-family="Times,serif" font-size="14.00">Parameters</text>
<polyline fill="none" stroke="black" points="852,-151.5 1003,-151.5 "/>
<text text-anchor="start" x="886.5" y="-136.3" font-family="Times,serif" font-size="14.00">fmted_keys</text>
<text text-anchor="start" x="886.5" y="-121.3" font-family="Times,serif" font-size="14.00">partype</text>
<text text-anchor="start" x="886.5" y="-106.3" font-family="Times,serif" font-size="14.00">poss_keys</text>
<polyline fill="none" stroke="black" points="852,-98.5 1003,-98.5 "/>
<text text-anchor="start" x="860" y="-83.3" font-family="Times,serif" font-size="14.00">build_params()</text>
<text text-anchor="start" x="860" y="-68.3" font-family="Times,serif" font-size="14.00">check_req_values()</text>
<text text-anchor="start" x="860" y="-53.3" font-family="Times,serif" font-size="14.00">check_values()</text>
</g>
<!-- icepyx.core.APIformatting.Parameters&#45;&gt;icepyx.core.query.Query -->
<g id="edge7" class="edge">
<title>icepyx.core.APIformatting.Parameters&#45;&gt;icepyx.core.query.Query</title>
<path fill="none" stroke="black" d="M981.97,-174.6C995.23,-193.76 1007.58,-215.66 1014.5,-238 1016.65,-244.94 1018.15,-252.05 1019.09,-259.25"/>
<polygon fill="black" stroke="black" points="1019.12,-259.49 1023.63,-265.12 1020.18,-271.45 1015.66,-265.82 1019.12,-259.49"/>
<text text-anchor="middle" x="1065.5" y="-241.8" font-family="Times,serif" font-size="14.00" fill="green">_CMRparams</text>
</g>
<!-- icepyx.core.APIformatting.Parameters&#45;&gt;icepyx.core.query.Query -->
<g id="edge8" class="edge">
<title>icepyx.core.APIformatting.Parameters&#45;&gt;icepyx.core.query.Query</title>
<path fill="none" stroke="black" d="M977.76,-174.52C994.17,-191.58 1013.6,-208.47 1034.5,-220 1067.55,-238.23 1093.81,-208.62 1117.5,-238 1123.14,-245 1126.84,-252.17 1128.87,-259.45"/>
<polygon fill="black" stroke="black" points="1128.88,-259.5 1133.76,-264.8 1130.75,-271.35 1125.86,-266.05 1128.88,-259.5"/>
<text text-anchor="middle" x="1167" y="-241.8" font-family="Times,serif" font-size="14.00" fill="green">_reqparams</text>
</g>
<!-- icepyx.core.APIformatting.Parameters&#45;&gt;icepyx.core.query.Query -->
<g id="edge9" class="edge">
<title>icepyx.core.APIformatting.Parameters&#45;&gt;icepyx.core.query.Query</title>
<path fill="none" stroke="black" d="M851.92,-142.33C804.09,-167.35 754.86,-205.96 775.5,-253 776.61,-255.52 777.77,-258.03 778.98,-260.51"/>
<polygon fill="black" stroke="black" points="779.06,-260.65 785.39,-264.11 784.63,-271.28 778.3,-267.82 779.06,-260.65"/>
<text text-anchor="middle" x="829.5" y="-241.8" font-family="Times,serif" font-size="14.00" fill="green">_subsetparams</text>
</g>
<!-- icepyx.core.APIformatting.Parameters&#45;&gt;icepyx.core.query.Query -->
<g id="edge10" class="edge">
<title>icepyx.core.APIformatting.Parameters&#45;&gt;icepyx.core.query.Query</title>
<path fill="none" stroke="black" d="M906.57,-174.65C901.06,-199.16 897.81,-227.39 902.5,-253 902.9,-255.18 903.32,-257.37 903.77,-259.56"/>
<polygon fill="black" stroke="black" points="903.78,-259.62 908.99,-264.61 906.38,-271.34 901.18,-266.34 903.78,-259.62"/>
<text text-anchor="middle" x="956.5" y="-241.8" font-family="Times,serif" font-size="14.00" fill="green">_subsetparams</text>
</g>
<!-- icepyx.core.query.Query&#45;&gt;icepyx.core.auth.EarthdataAuthMixin -->
<g id="edge3" class="edge">
<title>icepyx.core.query.Query&#45;&gt;icepyx.core.auth.EarthdataAuthMixin</title>
<path fill="none" stroke="black" d="M863.3,-595.59C847.62,-619.14 832.42,-641.98 819.46,-661.46"/>
<polygon fill="none" stroke="black" points="816.49,-659.61 813.86,-669.87 822.32,-663.48 816.49,-659.61"/>
</g>
<!-- icepyx.core.query.Query&#45;&gt;icepyx.core.query.GenQuery -->
<g id="edge4" class="edge">
<title>icepyx.core.query.Query&#45;&gt;icepyx.core.query.GenQuery</title>
<path fill="none" stroke="black" d="M1159.26,-531.44C1261.73,-584.07 1382.14,-645.9 1455.61,-683.63"/>
<polygon fill="none" stroke="black" points="1454.28,-686.89 1464.77,-688.34 1457.48,-680.66 1454.28,-686.89"/>
</g>
<!-- icepyx.core.read.Read -->
<g id="node11" class="node">
<title>icepyx.core.read.Read</title>
<polygon fill="none" stroke="black" points="399.5,-376.5 399.5,-490.5 471.5,-490.5 471.5,-376.5 399.5,-376.5"/>
<text text-anchor="start" x="417" y="-475.3" font-family="Times,serif" font-size="14.00">Read</text>
<polyline fill="none" stroke="black" points="399.5,-467.5 471.5,-467.5 "/>
<text text-anchor="start" x="407.5" y="-452.3" font-family="Times,serif" font-size="14.00">filelist</text>
<text text-anchor="start" x="407.5" y="-437.3" font-family="Times,serif" font-size="14.00">is_s3</text>
<text text-anchor="start" x="407.5" y="-422.3" font-family="Times,serif" font-size="14.00">product</text>
<text text-anchor="start" x="407.5" y="-407.3" font-family="Times,serif" font-size="14.00">vars</text>
<polyline fill="none" stroke="black" points="399.5,-399.5 471.5,-399.5 "/>
<text text-anchor="start" x="415" y="-384.3" font-family="Times,serif" font-size="14.00">load()</text>
</g>
<!-- icepyx.core.read.Read&#45;&gt;icepyx.core.auth.EarthdataAuthMixin -->
<g id="edge5" class="edge">
<title>icepyx.core.read.Read&#45;&gt;icepyx.core.auth.EarthdataAuthMixin</title>
<path fill="none" stroke="black" d="M444.82,-490.75C454.78,-534.03 474.72,-592.44 513.5,-629 540.78,-654.71 575.65,-673.05 611.16,-686.12"/>
<polygon fill="none" stroke="black" points="610.09,-689.46 620.69,-689.5 612.43,-682.86 610.09,-689.46"/>
</g>
<!-- icepyx.core.spatial.Spatial -->
<g id="node12" class="node">
<title>icepyx.core.spatial.Spatial</title>
<polygon fill="none" stroke="black" points="1470,-369 1470,-498 1591,-498 1591,-369 1470,-369"/>
<text text-anchor="start" x="1505" y="-482.8" font-family="Times,serif" font-size="14.00">Spatial</text>
<polyline fill="none" stroke="black" points="1470,-475 1591,-475 "/>
<text text-anchor="start" x="1481" y="-459.8" font-family="Times,serif" font-size="14.00">extent</text>
<text text-anchor="start" x="1481" y="-444.8" font-family="Times,serif" font-size="14.00">extent_as_gdf</text>
<text text-anchor="start" x="1481" y="-429.8" font-family="Times,serif" font-size="14.00">extent_file</text>
<text text-anchor="start" x="1481" y="-414.8" font-family="Times,serif" font-size="14.00">extent_type</text>
<polyline fill="none" stroke="black" points="1470,-407 1591,-407 "/>
<text text-anchor="start" x="1478" y="-391.8" font-family="Times,serif" font-size="14.00">fmt_for_CMR()</text>
<text text-anchor="start" x="1478" y="-376.8" font-family="Times,serif" font-size="14.00">fmt_for_EGI()</text>
</g>
<!-- icepyx.core.spatial.Spatial&#45;&gt;icepyx.core.query.GenQuery -->
<g id="edge13" class="edge">
<title>icepyx.core.spatial.Spatial&#45;&gt;icepyx.core.query.GenQuery</title>
<path fill="none" stroke="black" d="M1501.68,-498.26C1488.08,-536.14 1476.58,-585.19 1485.5,-629 1485.94,-631.14 1486.42,-633.29 1486.96,-635.45"/>
<polygon fill="black" stroke="black" points="1486.96,-635.46 1492.44,-640.14 1490.23,-647.01 1484.75,-642.32 1486.96,-635.46"/>
<text text-anchor="middle" x="1513" y="-617.8" font-family="Times,serif" font-size="14.00" fill="green">_spatial</text>
</g>
<!-- icepyx.core.spatial.Spatial&#45;&gt;icepyx.core.query.GenQuery -->
<g id="edge14" class="edge">
<title>icepyx.core.spatial.Spatial&#45;&gt;icepyx.core.query.GenQuery</title>
<path fill="none" stroke="black" d="M1538.42,-498.11C1542,-536.15 1544.6,-585.41 1540.5,-629 1540.31,-631.06 1540.09,-633.14 1539.85,-635.23"/>
<polygon fill="black" stroke="black" points="1539.82,-635.45 1543.01,-641.92 1538.26,-647.35 1535.08,-640.88 1539.82,-635.45"/>
<text text-anchor="middle" x="1569" y="-617.8" font-family="Times,serif" font-size="14.00" fill="green">_spatial</text>
</g>
<!-- icepyx.core.temporal.Temporal -->
<g id="node13" class="node">
<title>icepyx.core.temporal.Temporal</title>
<polygon fill="none" stroke="black" points="1609,-391.5 1609,-475.5 1692,-475.5 1692,-391.5 1609,-391.5"/>
<text text-anchor="start" x="1617" y="-460.3" font-family="Times,serif" font-size="14.00">Temporal</text>
<polyline fill="none" stroke="black" points="1609,-452.5 1692,-452.5 "/>
<text text-anchor="start" x="1633" y="-437.3" font-family="Times,serif" font-size="14.00">end</text>
<text text-anchor="start" x="1633" y="-422.3" font-family="Times,serif" font-size="14.00">start</text>
<polyline fill="none" stroke="black" points="1609,-414.5 1692,-414.5 "/>
<text text-anchor="start" x="1648" y="-399.3" font-family="Times,serif" font-size="14.00"> </text>
</g>
<!-- icepyx.core.temporal.Temporal&#45;&gt;icepyx.core.query.GenQuery -->
<g id="edge15" class="edge">
<title>icepyx.core.temporal.Temporal&#45;&gt;icepyx.core.query.GenQuery</title>
<path fill="none" stroke="black" d="M1645.51,-475.56C1639.31,-516.33 1626.23,-579.7 1600.5,-629 1597.22,-635.29 1593.42,-641.51 1589.3,-647.57"/>
<polygon fill="black" stroke="black" points="1589.1,-647.85 1588.85,-655.05 1582.1,-657.6 1582.35,-650.39 1589.1,-647.85"/>
<text text-anchor="middle" x="1644.5" y="-617.8" font-family="Times,serif" font-size="14.00" fill="green">_temporal</text>
</g>
<!-- icepyx.core.variables.Variables -->
<g id="node14" class="node">
<title>icepyx.core.variables.Variables</title>
<polygon fill="none" stroke="black" points="340,-30.5 340,-189.5 715,-189.5 715,-30.5 340,-30.5"/>
<text text-anchor="start" x="494" y="-174.3" font-family="Times,serif" font-size="14.00">Variables</text>
<polyline fill="none" stroke="black" points="340,-166.5 715,-166.5 "/>
<text text-anchor="start" x="440" y="-151.3" font-family="Times,serif" font-size="14.00">path</text>
<text text-anchor="start" x="440" y="-136.3" font-family="Times,serif" font-size="14.00">product</text>
<text text-anchor="start" x="440" y="-121.3" font-family="Times,serif" font-size="14.00">version</text>
<text text-anchor="start" x="440" y="-106.3" font-family="Times,serif" font-size="14.00">wanted : NoneType, dict</text>
<polyline fill="none" stroke="black" points="340,-98.5 715,-98.5 "/>
<text text-anchor="start" x="348" y="-83.3" font-family="Times,serif" font-size="14.00">append(defaults, var_list, beam_list, keyword_list)</text>
<text text-anchor="start" x="348" y="-68.3" font-family="Times,serif" font-size="14.00">avail(options, internal)</text>
<text text-anchor="start" x="348" y="-53.3" font-family="Times,serif" font-size="14.00">parse_var_list(varlist, tiered, tiered_vars)</text>
<text text-anchor="start" x="348" y="-38.3" font-family="Times,serif" font-size="14.00">remove(all, var_list, beam_list, keyword_list)</text>
</g>
<!-- icepyx.core.variables.Variables&#45;&gt;icepyx.core.auth.EarthdataAuthMixin -->
<g id="edge6" class="edge">
<title>icepyx.core.variables.Variables&#45;&gt;icepyx.core.auth.EarthdataAuthMixin</title>
<path fill="none" stroke="black" d="M534.62,-189.76C537.73,-210.62 542.17,-232.92 548.5,-253 597.45,-408.25 692.87,-575.49 745.13,-660.98"/>
<polygon fill="none" stroke="black" points="742.3,-663.05 750.51,-669.74 748.26,-659.39 742.3,-663.05"/>
</g>
<!-- icepyx.core.variables.Variables&#45;&gt;icepyx.core.query.Query -->
<g id="edge16" class="edge">
<title>icepyx.core.variables.Variables&#45;&gt;icepyx.core.query.Query</title>
<path fill="none" stroke="black" d="M533.23,-189.87C538.14,-212.24 546.71,-235.3 561.5,-253 614.71,-316.67 694.9,-358.48 770.21,-385.57"/>
<polygon fill="black" stroke="black" points="770.45,-385.65 777.43,-383.87 781.77,-389.63 774.78,-391.41 770.45,-385.65"/>
<text text-anchor="middle" x="603.5" y="-241.8" font-family="Times,serif" font-size="14.00" fill="green">_order_vars</text>
</g>
<!-- icepyx.core.variables.Variables&#45;&gt;icepyx.core.query.Query -->
<g id="edge17" class="edge">
<title>icepyx.core.variables.Variables&#45;&gt;icepyx.core.query.Query</title>
<path fill="none" stroke="black" d="M608.5,-189.78C631.96,-211.18 658.11,-233.75 683.5,-253 711.27,-274.05 741.57,-294.98 771.75,-314.72"/>
<polygon fill="black" stroke="black" points="771.91,-314.82 779.12,-314.74 781.97,-321.36 774.76,-321.45 771.91,-314.82"/>
<text text-anchor="middle" x="725.5" y="-241.8" font-family="Times,serif" font-size="14.00" fill="green">_order_vars</text>
</g>
<!-- icepyx.core.variables.Variables&#45;&gt;icepyx.core.read.Read -->
<g id="edge18" class="edge">
<title>icepyx.core.variables.Variables&#45;&gt;icepyx.core.read.Read</title>
<path fill="none" stroke="black" d="M375.57,-189.64C359.97,-203.67 346.28,-219.75 336.5,-238 308.21,-290.78 352.59,-352.52 390.68,-392.05"/>
<polygon fill="black" stroke="black" points="390.74,-392.1 397.8,-393.54 399.19,-400.62 392.12,-399.18 390.74,-392.1"/>
<text text-anchor="middle" x="375" y="-241.8" font-family="Times,serif" font-size="14.00" fill="green">_read_vars</text>
</g>
<!-- icepyx.core.variables.Variables&#45;&gt;icepyx.core.read.Read -->
<g id="edge19" class="edge">
<title>icepyx.core.variables.Variables&#45;&gt;icepyx.core.read.Read</title>
<path fill="none" stroke="black" d="M460.2,-189.59C450.48,-204.79 441.94,-221.23 436.5,-238 423.39,-278.43 422.93,-326.13 425.85,-364.17"/>
<polygon fill="black" stroke="black" points="425.86,-364.21 430.37,-369.83 426.91,-376.16 422.4,-370.53 425.86,-364.21"/>
<text text-anchor="middle" x="475" y="-241.8" font-family="Times,serif" font-size="14.00" fill="green">_read_vars</text>
</g>
<!-- icepyx.core.visualization.Visualize -->
<g id="node15" class="node">
<title>icepyx.core.visualization.Visualize</title>
<polygon fill="none" stroke="black" points="1965,-0.5 1965,-219.5 2294,-219.5 2294,-0.5 1965,-0.5"/>
<text text-anchor="start" x="2097.5" y="-204.3" font-family="Times,serif" font-size="14.00">Visualize</text>
<polyline fill="none" stroke="black" points="1965,-196.5 2294,-196.5 "/>
<text text-anchor="start" x="2044" y="-181.3" font-family="Times,serif" font-size="14.00">bbox : list</text>
<text text-anchor="start" x="2044" y="-166.3" font-family="Times,serif" font-size="14.00">cycles : NoneType</text>
<text text-anchor="start" x="2044" y="-151.3" font-family="Times,serif" font-size="14.00">date_range : NoneType</text>
<text text-anchor="start" x="2044" y="-136.3" font-family="Times,serif" font-size="14.00">product : NoneType, str</text>
<text text-anchor="start" x="2044" y="-121.3" font-family="Times,serif" font-size="14.00">tracks : NoneType</text>
<polyline fill="none" stroke="black" points="1965,-113.5 2294,-113.5 "/>
<text text-anchor="start" x="1973" y="-98.3" font-family="Times,serif" font-size="14.00">generate_OA_parameters(): list</text>
<text text-anchor="start" x="1973" y="-83.3" font-family="Times,serif" font-size="14.00">grid_bbox(binsize): list</text>
<text text-anchor="start" x="1973" y="-68.3" font-family="Times,serif" font-size="14.00">make_request(base_url, payload)</text>
<text text-anchor="start" x="1973" y="-53.3" font-family="Times,serif" font-size="14.00">parallel_request_OA(): da.array</text>
<text text-anchor="start" x="1973" y="-38.3" font-family="Times,serif" font-size="14.00">query_icesat2_filelist(): tuple</text>
<text text-anchor="start" x="1973" y="-23.3" font-family="Times,serif" font-size="14.00">request_OA_data(paras): da.array</text>
<text text-anchor="start" x="1973" y="-8.3" font-family="Times,serif" font-size="14.00">viz_elevation(): (hv.DynamicMap, hv.Layout)</text>
</g>
</g>
</svg>
