<?xml version="1.0" encoding="UTF-8" standalone="no"?>
<!DOCTYPE svg PUBLIC "-//W3C//DTD SVG 1.1//EN"
 "http://www.w3.org/Graphics/SVG/1.1/DTD/svg11.dtd">
<!-- Generated by graphviz version 2.43.0 (0)
 -->
<!-- Title: classes_user_uml Pages: 1 -->
<svg width="2825pt" height="800pt"
 viewBox="0.00 0.00 2824.50 800.00" xmlns="http://www.w3.org/2000/svg" xmlns:xlink="http://www.w3.org/1999/xlink">
<g id="graph0" class="graph" transform="scale(1 1) rotate(0) translate(4 796)">
<title>classes_user_uml</title>
<polygon fill="white" stroke="transparent" points="-4,4 -4,-796 2820.5,-796 2820.5,4 -4,4"/>
<!-- icepyx.quest.dataset_scripts.argo.Argo -->
<g id="node1" class="node">
<title>icepyx.quest.dataset_scripts.argo.Argo</title>
<polygon fill="none" stroke="black" points="0,-38 0,-182 452,-182 452,-38 0,-38"/>
<text text-anchor="start" x="209" y="-166.8" font-family="Times,serif" font-size="14.00">Argo</text>
<polyline fill="none" stroke="black" points="0,-159 452,-159 "/>
<text text-anchor="start" x="106.5" y="-143.8" font-family="Times,serif" font-size="14.00">argodata : DataFrame, NoneType</text>
<text text-anchor="start" x="106.5" y="-128.8" font-family="Times,serif" font-size="14.00">params</text>
<text text-anchor="start" x="106.5" y="-113.8" font-family="Times,serif" font-size="14.00">presRange</text>
<text text-anchor="start" x="106.5" y="-98.8" font-family="Times,serif" font-size="14.00">prof_ids : list</text>
<polyline fill="none" stroke="black" points="0,-91 452,-91 "/>
<text text-anchor="start" x="8" y="-75.8" font-family="Times,serif" font-size="14.00">download(params, presRange, keep_existing): pd.DataFrame</text>
<text text-anchor="start" x="8" y="-60.8" font-family="Times,serif" font-size="14.00">save(filepath)</text>
<text text-anchor="start" x="8" y="-45.8" font-family="Times,serif" font-size="14.00">search_data(params, presRange, printURL): str</text>
</g>
<!-- icepyx.quest.dataset_scripts.dataset.DataSet -->
<g id="node3" class="node">
<title>icepyx.quest.dataset_scripts.dataset.DataSet</title>
<polygon fill="none" stroke="black" points="169,-377.6 169,-489.4 283,-489.4 283,-377.6 169,-377.6"/>
<text text-anchor="start" x="197" y="-474.2" font-family="Times,serif" font-size="14.00">DataSet</text>
<polyline fill="none" stroke="black" points="169,-466.4 283,-466.4 "/>
<polyline fill="none" stroke="black" points="169,-441.6 283,-441.6 "/>
<text text-anchor="start" x="177" y="-427.4" font-family="Times,serif" font-style="italic" font-size="14.00">download</text>
<text text-anchor="start" x="246" y="-427.4" font-family="Times,serif" font-size="14.00">()</text>
<text text-anchor="start" x="177" y="-413.4" font-family="Times,serif" font-style="italic" font-size="14.00">save</text>
<text text-anchor="start" x="210" y="-413.4" font-family="Times,serif" font-size="14.00">(filepath)</text>
<text text-anchor="start" x="177" y="-399.4" font-family="Times,serif" font-style="italic" font-size="14.00">search_data</text>
<text text-anchor="start" x="263" y="-399.4" font-family="Times,serif" font-size="14.00">()</text>
<text text-anchor="start" x="177" y="-385.4" font-family="Times,serif" font-style="italic" font-size="14.00">visualize</text>
<text text-anchor="start" x="240" y="-385.4" font-family="Times,serif" font-size="14.00">()</text>
</g>
<!-- icepyx.quest.dataset_scripts.argo.Argo&#45;&gt;icepyx.quest.dataset_scripts.dataset.DataSet -->
<g id="edge6" class="edge">
<title>icepyx.quest.dataset_scripts.argo.Argo&#45;&gt;icepyx.quest.dataset_scripts.dataset.DataSet</title>
<path fill="none" stroke="black" d="M226,-182.35C226,-237.7 226,-313.79 226,-367.48"/>
<polygon fill="none" stroke="black" points="222.5,-367.57 226,-377.57 229.5,-367.57 222.5,-367.57"/>
</g>
<!-- icepyx.core.auth.AuthenticationError -->
<g id="node2" class="node">
<title>icepyx.core.auth.AuthenticationError</title>
<polygon fill="none" stroke="black" points="470.5,-74.6 470.5,-145.4 631.5,-145.4 631.5,-74.6 470.5,-74.6"/>
<text text-anchor="start" x="478.5" y="-130.2" font-family="Times,serif" font-size="14.00" fill="red">AuthenticationError</text>
<polyline fill="none" stroke="black" points="470.5,-122.4 631.5,-122.4 "/>
<polyline fill="none" stroke="black" points="470.5,-97.6 631.5,-97.6 "/>
<text text-anchor="start" x="548.5" y="-82.4" font-family="Times,serif" font-size="14.00" fill="red"> </text>
</g>
<!-- icepyx.core.exceptions.DeprecationError -->
<g id="node4" class="node">
<title>icepyx.core.exceptions.DeprecationError</title>
<polygon fill="none" stroke="black" points="649.5,-74.6 649.5,-145.4 792.5,-145.4 792.5,-74.6 649.5,-74.6"/>
<text text-anchor="start" x="657.5" y="-130.2" font-family="Times,serif" font-size="14.00" fill="red">DeprecationError</text>
<polyline fill="none" stroke="black" points="649.5,-122.4 792.5,-122.4 "/>
<polyline fill="none" stroke="black" points="649.5,-97.6 792.5,-97.6 "/>
<text text-anchor="start" x="718.5" y="-82.4" font-family="Times,serif" font-size="14.00" fill="red"> </text>
</g>
<!-- icepyx.core.auth.EarthdataAuthMixin -->
<g id="node5" class="node">
<title>icepyx.core.auth.EarthdataAuthMixin</title>
<polygon fill="none" stroke="black" points="1893.5,-670 1893.5,-769 2214.5,-769 2214.5,-670 1893.5,-670"/>
<text text-anchor="start" x="1980.5" y="-753.8" font-family="Times,serif" font-size="14.00">EarthdataAuthMixin</text>
<polyline fill="none" stroke="black" points="1893.5,-746 2214.5,-746 "/>
<text text-anchor="start" x="1984.5" y="-730.8" font-family="Times,serif" font-size="14.00">auth</text>
<text text-anchor="start" x="1984.5" y="-715.8" font-family="Times,serif" font-size="14.00">s3login_credentials</text>
<text text-anchor="start" x="1984.5" y="-700.8" font-family="Times,serif" font-size="14.00">session</text>
<polyline fill="none" stroke="black" points="1893.5,-693 2214.5,-693 "/>
<text text-anchor="start" x="1901.5" y="-677.8" font-family="Times,serif" font-size="14.00">earthdata_login(uid, email, s3token): None</text>
</g>
<!-- icepyx.core.query.GenQuery -->
<g id="node6" class="node">
<title>icepyx.core.query.GenQuery</title>
<polygon fill="none" stroke="black" points="1201.5,-647.5 1201.5,-791.5 1318.5,-791.5 1318.5,-647.5 1201.5,-647.5"/>
<text text-anchor="start" x="1223.5" y="-776.3" font-family="Times,serif" font-size="14.00">GenQuery</text>
<polyline fill="none" stroke="black" points="1201.5,-768.5 1318.5,-768.5 "/>
<text text-anchor="start" x="1209.5" y="-753.3" font-family="Times,serif" font-size="14.00">dates</text>
<text text-anchor="start" x="1209.5" y="-738.3" font-family="Times,serif" font-size="14.00">end_time</text>
<text text-anchor="start" x="1209.5" y="-723.3" font-family="Times,serif" font-size="14.00">spatial</text>
<text text-anchor="start" x="1209.5" y="-708.3" font-family="Times,serif" font-size="14.00">spatial_extent</text>
<text text-anchor="start" x="1209.5" y="-693.3" font-family="Times,serif" font-size="14.00">start_time</text>
<text text-anchor="start" x="1209.5" y="-678.3" font-family="Times,serif" font-size="14.00">temporal</text>
<polyline fill="none" stroke="black" points="1201.5,-670.5 1318.5,-670.5 "/>
<text text-anchor="start" x="1257.5" y="-655.3" font-family="Times,serif" font-size="14.00"> </text>
</g>
<!-- icepyx.core.granules.Granules -->
<g id="node7" class="node">
<title>icepyx.core.granules.Granules</title>
<polygon fill="none" stroke="black" points="810,-53 810,-167 1496,-167 1496,-53 810,-53"/>
<text text-anchor="start" x="1120.5" y="-151.8" font-family="Times,serif" font-size="14.00">Granules</text>
<polyline fill="none" stroke="black" points="810,-144 1496,-144 "/>
<text text-anchor="start" x="1103" y="-128.8" font-family="Times,serif" font-size="14.00">avail : list</text>
<text text-anchor="start" x="1103" y="-113.8" font-family="Times,serif" font-size="14.00">orderIDs : list</text>
<polyline fill="none" stroke="black" points="810,-106 1496,-106 "/>
<text text-anchor="start" x="818" y="-90.8" font-family="Times,serif" font-size="14.00">download(verbose, path, session, restart)</text>
<text text-anchor="start" x="818" y="-75.8" font-family="Times,serif" font-size="14.00">get_avail(CMRparams, reqparams, cloud)</text>
<text text-anchor="start" x="818" y="-60.8" font-family="Times,serif" font-size="14.00">place_order(CMRparams, reqparams, subsetparams, verbose, subset, session, geom_filepath)</text>
</g>
<!-- icepyx.core.query.Query -->
<g id="node11" class="node">
<title>icepyx.core.query.Query</title>
<polygon fill="none" stroke="black" points="1397.5,-271.5 1397.5,-595.5 1774.5,-595.5 1774.5,-271.5 1397.5,-271.5"/>
<text text-anchor="start" x="1564" y="-580.3" font-family="Times,serif" font-size="14.00">Query</text>
<polyline fill="none" stroke="black" points="1397.5,-572.5 1774.5,-572.5 "/>
<text text-anchor="start" x="1528.5" y="-557.3" font-family="Times,serif" font-size="14.00">CMRparams</text>
<text text-anchor="start" x="1528.5" y="-542.3" font-family="Times,serif" font-size="14.00">cycles</text>
<text text-anchor="start" x="1528.5" y="-527.3" font-family="Times,serif" font-size="14.00">dataset</text>
<text text-anchor="start" x="1528.5" y="-512.3" font-family="Times,serif" font-size="14.00">granules</text>
<text text-anchor="start" x="1528.5" y="-497.3" font-family="Times,serif" font-size="14.00">order_vars</text>
<text text-anchor="start" x="1528.5" y="-482.3" font-family="Times,serif" font-size="14.00">product</text>
<text text-anchor="start" x="1528.5" y="-467.3" font-family="Times,serif" font-size="14.00">product_version</text>
<text text-anchor="start" x="1528.5" y="-452.3" font-family="Times,serif" font-size="14.00">reqparams</text>
<text text-anchor="start" x="1528.5" y="-437.3" font-family="Times,serif" font-size="14.00">tracks</text>
<polyline fill="none" stroke="black" points="1397.5,-429.5 1774.5,-429.5 "/>
<text text-anchor="start" x="1405.5" y="-414.3" font-family="Times,serif" font-size="14.00">avail_granules(ids, cycles, tracks, cloud)</text>
<text text-anchor="start" x="1405.5" y="-399.3" font-family="Times,serif" font-size="14.00">download_granules(path, verbose, subset, restart)</text>
<text text-anchor="start" x="1405.5" y="-384.3" font-family="Times,serif" font-size="14.00">latest_version()</text>
<text text-anchor="start" x="1405.5" y="-369.3" font-family="Times,serif" font-size="14.00">order_granules(verbose, subset, email)</text>
<text text-anchor="start" x="1405.5" y="-354.3" font-family="Times,serif" font-size="14.00">product_all_info()</text>
<text text-anchor="start" x="1405.5" y="-339.3" font-family="Times,serif" font-size="14.00">product_summary_info()</text>
<text text-anchor="start" x="1405.5" y="-324.3" font-family="Times,serif" font-size="14.00">show_custom_options(dictview)</text>
<text text-anchor="start" x="1405.5" y="-309.3" font-family="Times,serif" font-size="14.00">subsetparams()</text>
<text text-anchor="start" x="1405.5" y="-294.3" font-family="Times,serif" font-size="14.00">visualize_elevation()</text>
<text text-anchor="start" x="1405.5" y="-279.3" font-family="Times,serif" font-size="14.00">visualize_spatial_extent()</text>
</g>
<!-- icepyx.core.granules.Granules&#45;&gt;icepyx.core.query.Query -->
<g id="edge12" class="edge">
<title>icepyx.core.granules.Granules&#45;&gt;icepyx.core.query.Query</title>
<path fill="none" stroke="black" d="M1143.37,-167.13C1141.7,-196.71 1145.74,-231.26 1168,-253 1200.83,-285.06 1324.96,-256.85 1385.64,-271.29"/>
<polygon fill="black" stroke="black" points="1385.77,-271.34 1392.69,-269.31 1397.22,-274.92 1390.3,-276.95 1385.77,-271.34"/>
<text text-anchor="middle" x="1203" y="-241.8" font-family="Times,serif" font-size="14.00" fill="green">_granules</text>
</g>
<!-- icepyx.core.granules.Granules&#45;&gt;icepyx.core.query.Query -->
<g id="edge13" class="edge">
<title>icepyx.core.granules.Granules&#45;&gt;icepyx.core.query.Query</title>
<path fill="none" stroke="black" d="M1189.72,-167.01C1212.6,-197.31 1244.75,-232.61 1282,-253 1320.81,-274.24 1341.32,-254.65 1386.1,-270.82"/>
<polygon fill="black" stroke="black" points="1386.26,-270.89 1393.33,-269.47 1397.36,-275.44 1390.3,-276.87 1386.26,-270.89"/>
<text text-anchor="middle" x="1317" y="-241.8" font-family="Times,serif" font-size="14.00" fill="green">_granules</text>
</g>
<!-- icepyx.core.icesat2data.Icesat2Data -->
<g id="node8" class="node">
<title>icepyx.core.icesat2data.Icesat2Data</title>
<polygon fill="none" stroke="black" points="2210,-74.6 2210,-145.4 2312,-145.4 2312,-74.6 2210,-74.6"/>
<text text-anchor="start" x="2218" y="-130.2" font-family="Times,serif" font-size="14.00">Icesat2Data</text>
<polyline fill="none" stroke="black" points="2210,-122.4 2312,-122.4 "/>
<polyline fill="none" stroke="black" points="2210,-97.6 2312,-97.6 "/>
<text text-anchor="start" x="2258.5" y="-82.4" font-family="Times,serif" font-size="14.00"> </text>
</g>
<!-- icepyx.core.exceptions.NsidcQueryError -->
<g id="node9" class="node">
<title>icepyx.core.exceptions.NsidcQueryError</title>
<polygon fill="none" stroke="black" points="2330,-68 2330,-152 2470,-152 2470,-68 2330,-68"/>
<text text-anchor="start" x="2338" y="-136.8" font-family="Times,serif" font-size="14.00" fill="red">NsidcQueryError</text>
<polyline fill="none" stroke="black" points="2330,-129 2470,-129 "/>
<text text-anchor="start" x="2357.5" y="-113.8" font-family="Times,serif" font-size="14.00" fill="red">errmsg</text>
<text text-anchor="start" x="2357.5" y="-98.8" font-family="Times,serif" font-size="14.00" fill="red">msgtxt : str</text>
<polyline fill="none" stroke="black" points="2330,-91 2470,-91 "/>
<text text-anchor="start" x="2397.5" y="-75.8" font-family="Times,serif" font-size="14.00" fill="red"> </text>
</g>
<!-- icepyx.core.exceptions.QueryError -->
<g id="node12" class="node">
<title>icepyx.core.exceptions.QueryError</title>
<polygon fill="none" stroke="black" points="2350.5,-398.1 2350.5,-468.9 2449.5,-468.9 2449.5,-398.1 2350.5,-398.1"/>
<text text-anchor="start" x="2358.5" y="-453.7" font-family="Times,serif" font-size="14.00" fill="red">QueryError</text>
<polyline fill="none" stroke="black" points="2350.5,-445.9 2449.5,-445.9 "/>
<polyline fill="none" stroke="black" points="2350.5,-421.1 2449.5,-421.1 "/>
<text text-anchor="start" x="2397.5" y="-405.9" font-family="Times,serif" font-size="14.00" fill="red"> </text>
</g>
<!-- icepyx.core.exceptions.NsidcQueryError&#45;&gt;icepyx.core.exceptions.QueryError -->
<g id="edge1" class="edge">
<title>icepyx.core.exceptions.NsidcQueryError&#45;&gt;icepyx.core.exceptions.QueryError</title>
<path fill="none" stroke="black" d="M2400,-152.04C2400,-212.53 2400,-325.19 2400,-387.74"/>
<polygon fill="none" stroke="black" points="2396.5,-388.07 2400,-398.07 2403.5,-388.07 2396.5,-388.07"/>
</g>
<!-- icepyx.core.APIformatting.Parameters -->
<g id="node10" class="node">
<title>icepyx.core.APIformatting.Parameters</title>
<polygon fill="none" stroke="black" points="1513.5,-45.5 1513.5,-174.5 1664.5,-174.5 1664.5,-45.5 1513.5,-45.5"/>
<text text-anchor="start" x="1547.5" y="-159.3" font-family="Times,serif" font-size="14.00">Parameters</text>
<polyline fill="none" stroke="black" points="1513.5,-151.5 1664.5,-151.5 "/>
<text text-anchor="start" x="1548" y="-136.3" font-family="Times,serif" font-size="14.00">fmted_keys</text>
<text text-anchor="start" x="1548" y="-121.3" font-family="Times,serif" font-size="14.00">partype</text>
<text text-anchor="start" x="1548" y="-106.3" font-family="Times,serif" font-size="14.00">poss_keys</text>
<polyline fill="none" stroke="black" points="1513.5,-98.5 1664.5,-98.5 "/>
<text text-anchor="start" x="1521.5" y="-83.3" font-family="Times,serif" font-size="14.00">build_params()</text>
<text text-anchor="start" x="1521.5" y="-68.3" font-family="Times,serif" font-size="14.00">check_req_values()</text>
<text text-anchor="start" x="1521.5" y="-53.3" font-family="Times,serif" font-size="14.00">check_values()</text>
</g>
<!-- icepyx.core.APIformatting.Parameters&#45;&gt;icepyx.core.query.Query -->
<g id="edge8" class="edge">
<title>icepyx.core.APIformatting.Parameters&#45;&gt;icepyx.core.query.Query</title>
<path fill="none" stroke="black" d="M1553.04,-174.75C1540.13,-192.14 1523.98,-209.16 1505,-220 1476.8,-236.1 1381.5,-213.67 1360,-238 1344.69,-255.33 1370.06,-265.48 1386.67,-272.59"/>
<polygon fill="black" stroke="black" points="1386.71,-272.61 1393.86,-271.69 1397.47,-277.93 1390.32,-278.86 1386.71,-272.61"/>
<text text-anchor="middle" x="1408" y="-241.8" font-family="Times,serif" font-size="14.00" fill="green">_CMRparams</text>
</g>
<!-- icepyx.core.APIformatting.Parameters&#45;&gt;icepyx.core.query.Query -->
<g id="edge9" class="edge">
<title>icepyx.core.APIformatting.Parameters&#45;&gt;icepyx.core.query.Query</title>
<path fill="none" stroke="black" d="M1545.24,-174.63C1533.09,-190.28 1519.29,-206.42 1505,-220 1494.81,-229.68 1485.52,-225.55 1479,-238 1475.33,-245 1472.94,-252.12 1471.64,-259.31"/>
<polygon fill="black" stroke="black" points="1471.62,-259.51 1475.02,-265.87 1470.45,-271.45 1467.05,-265.09 1471.62,-259.51"/>
<text text-anchor="middle" x="1521.5" y="-241.8" font-family="Times,serif" font-size="14.00" fill="green">_reqparams</text>
</g>
<!-- icepyx.core.APIformatting.Parameters&#45;&gt;icepyx.core.query.Query -->
<g id="edge10" class="edge">
<title>icepyx.core.APIformatting.Parameters&#45;&gt;icepyx.core.query.Query</title>
<path fill="none" stroke="black" d="M1587.87,-174.63C1587.54,-194.88 1587.22,-217.38 1587,-238 1586.93,-244.98 1586.86,-252.09 1586.8,-259.28"/>
<polygon fill="black" stroke="black" points="1586.8,-259.44 1590.75,-265.47 1586.7,-271.44 1582.75,-265.41 1586.8,-259.44"/>
<text text-anchor="middle" x="1641" y="-241.8" font-family="Times,serif" font-size="14.00" fill="green">_subsetparams</text>
</g>
<!-- icepyx.core.APIformatting.Parameters&#45;&gt;icepyx.core.query.Query -->
<g id="edge11" class="edge">
<title>icepyx.core.APIformatting.Parameters&#45;&gt;icepyx.core.query.Query</title>
<path fill="none" stroke="black" d="M1664.58,-167.78C1687.13,-191.85 1703.79,-221.6 1695,-253 1694.36,-255.3 1693.67,-257.61 1692.95,-259.91"/>
<polygon fill="black" stroke="black" points="1692.91,-260.03 1694.78,-267 1689.06,-271.4 1687.2,-264.43 1692.91,-260.03"/>
<text text-anchor="middle" x="1752" y="-241.8" font-family="Times,serif" font-size="14.00" fill="green">_subsetparams</text>
</g>
<!-- icepyx.core.query.Query&#45;&gt;icepyx.core.auth.EarthdataAuthMixin -->
<g id="edge2" class="edge">
<title>icepyx.core.query.Query&#45;&gt;icepyx.core.auth.EarthdataAuthMixin</title>
<path fill="none" stroke="black" d="M1774.67,-548.99C1840.43,-588.9 1911.16,-631.82 1965,-664.49"/>
<polygon fill="none" stroke="black" points="1963.46,-667.65 1973.83,-669.85 1967.09,-661.67 1963.46,-667.65"/>
</g>
<!-- icepyx.core.query.Query&#45;&gt;icepyx.core.query.GenQuery -->
<g id="edge3" class="edge">
<title>icepyx.core.query.Query&#45;&gt;icepyx.core.query.GenQuery</title>
<path fill="none" stroke="black" d="M1424.47,-595.59C1411.66,-607.12 1398.75,-618.38 1386,-629 1367.51,-644.4 1346.51,-660 1327.03,-673.76"/>
<polygon fill="none" stroke="black" points="1324.96,-670.93 1318.78,-679.54 1328.98,-676.67 1324.96,-670.93"/>
</g>
<!-- icepyx.quest.quest.Quest -->
<g id="node13" class="node">
<title>icepyx.quest.quest.Quest</title>
<polygon fill="none" stroke="black" points="564.5,-369 564.5,-498 1139.5,-498 1139.5,-369 564.5,-369"/>
<text text-anchor="start" x="830.5" y="-482.8" font-family="Times,serif" font-size="14.00">Quest</text>
<polyline fill="none" stroke="black" points="564.5,-475 1139.5,-475 "/>
<text text-anchor="start" x="801" y="-459.8" font-family="Times,serif" font-size="14.00">datasets : dict</text>
<polyline fill="none" stroke="black" points="564.5,-452 1139.5,-452 "/>
<text text-anchor="start" x="572.5" y="-436.8" font-family="Times,serif" font-size="14.00">add_argo(params, presRange): None</text>
<text text-anchor="start" x="572.5" y="-421.8" font-family="Times,serif" font-size="14.00">add_icesat2(product, start_time, end_time, version, cycles, tracks, files): None</text>
<text text-anchor="start" x="572.5" y="-406.8" font-family="Times,serif" font-size="14.00">download_all(path)</text>
<text text-anchor="start" x="572.5" y="-391.8" font-family="Times,serif" font-size="14.00">save_all(path)</text>
<text text-anchor="start" x="572.5" y="-376.8" font-family="Times,serif" font-size="14.00">search_all()</text>
</g>
<!-- icepyx.quest.quest.Quest&#45;&gt;icepyx.core.query.GenQuery -->
<g id="edge7" class="edge">
<title>icepyx.quest.quest.Quest&#45;&gt;icepyx.core.query.GenQuery</title>
<path fill="none" stroke="black" d="M943.31,-498.06C1019,-550.74 1124.85,-624.42 1192.92,-671.81"/>
<polygon fill="none" stroke="black" points="1191.23,-674.9 1201.44,-677.74 1195.23,-669.15 1191.23,-674.9"/>
</g>
<!-- icepyx.core.read.Read -->
<g id="node14" class="node">
<title>icepyx.core.read.Read</title>
<polygon fill="none" stroke="black" points="2082,-376.5 2082,-490.5 2154,-490.5 2154,-376.5 2082,-376.5"/>
<text text-anchor="start" x="2099.5" y="-475.3" font-family="Times,serif" font-size="14.00">Read</text>
<polyline fill="none" stroke="black" points="2082,-467.5 2154,-467.5 "/>
<text text-anchor="start" x="2090" y="-452.3" font-family="Times,serif" font-size="14.00">filelist</text>
<text text-anchor="start" x="2090" y="-437.3" font-family="Times,serif" font-size="14.00">is_s3</text>
<text text-anchor="start" x="2090" y="-422.3" font-family="Times,serif" font-size="14.00">product</text>
<text text-anchor="start" x="2090" y="-407.3" font-family="Times,serif" font-size="14.00">vars</text>
<polyline fill="none" stroke="black" points="2082,-399.5 2154,-399.5 "/>
<text text-anchor="start" x="2097.5" y="-384.3" font-family="Times,serif" font-size="14.00">load()</text>
</g>
<!-- icepyx.core.read.Read&#45;&gt;icepyx.core.auth.EarthdataAuthMixin -->
<g id="edge4" class="edge">
<title>icepyx.core.read.Read&#45;&gt;icepyx.core.auth.EarthdataAuthMixin</title>
<path fill="none" stroke="black" d="M2105.36,-490.61C2094.35,-539.46 2078.44,-610.03 2067.26,-659.66"/>
<polygon fill="none" stroke="black" points="2063.8,-659.09 2065.02,-669.61 2070.63,-660.62 2063.8,-659.09"/>
</g>
<!-- icepyx.core.spatial.Spatial -->
<g id="node15" class="node">
<title>icepyx.core.spatial.Spatial</title>
<polygon fill="none" stroke="black" points="1157.5,-369 1157.5,-498 1278.5,-498 1278.5,-369 1157.5,-369"/>
<text text-anchor="start" x="1192.5" y="-482.8" font-family="Times,serif" font-size="14.00">Spatial</text>
<polyline fill="none" stroke="black" points="1157.5,-475 1278.5,-475 "/>
<text text-anchor="start" x="1168.5" y="-459.8" font-family="Times,serif" font-size="14.00">extent</text>
<text text-anchor="start" x="1168.5" y="-444.8" font-family="Times,serif" font-size="14.00">extent_as_gdf</text>
<text text-anchor="start" x="1168.5" y="-429.8" font-family="Times,serif" font-size="14.00">extent_file</text>
<text text-anchor="start" x="1168.5" y="-414.8" font-family="Times,serif" font-size="14.00">extent_type</text>
<polyline fill="none" stroke="black" points="1157.5,-407 1278.5,-407 "/>
<text text-anchor="start" x="1165.5" y="-391.8" font-family="Times,serif" font-size="14.00">fmt_for_CMR()</text>
<text text-anchor="start" x="1165.5" y="-376.8" font-family="Times,serif" font-size="14.00">fmt_for_EGI()</text>
</g>
<!-- icepyx.core.spatial.Spatial&#45;&gt;icepyx.core.query.GenQuery -->
<g id="edge14" class="edge">
<title>icepyx.core.spatial.Spatial&#45;&gt;icepyx.core.query.GenQuery</title>
<path fill="none" stroke="black" d="M1189.93,-498.19C1176.9,-536.92 1167.37,-586.86 1183,-629 1185.93,-636.9 1189.91,-644.58 1194.52,-651.89"/>
<polygon fill="black" stroke="black" points="1194.64,-652.07 1201.33,-654.76 1201.42,-661.98 1194.73,-659.28 1194.64,-652.07"/>
<text text-anchor="middle" x="1210.5" y="-617.8" font-family="Times,serif" font-size="14.00" fill="green">_spatial</text>
</g>
<!-- icepyx.core.spatial.Spatial&#45;&gt;icepyx.core.query.GenQuery -->
<g id="edge15" class="edge">
<title>icepyx.core.spatial.Spatial&#45;&gt;icepyx.core.query.GenQuery</title>
<path fill="none" stroke="black" d="M1227.43,-498.24C1233.42,-538.75 1241.24,-591.62 1247.71,-635.4"/>
<polygon fill="black" stroke="black" points="1247.74,-635.62 1252.58,-640.97 1249.5,-647.49 1244.66,-642.14 1247.74,-635.62"/>
<text text-anchor="middle" x="1274.5" y="-617.8" font-family="Times,serif" font-size="14.00" fill="green">_spatial</text>
</g>
<!-- icepyx.core.temporal.Temporal -->
<g id="node16" class="node">
<title>icepyx.core.temporal.Temporal</title>
<polygon fill="none" stroke="black" points="1296.5,-391.5 1296.5,-475.5 1379.5,-475.5 1379.5,-391.5 1296.5,-391.5"/>
<text text-anchor="start" x="1304.5" y="-460.3" font-family="Times,serif" font-size="14.00">Temporal</text>
<polyline fill="none" stroke="black" points="1296.5,-452.5 1379.5,-452.5 "/>
<text text-anchor="start" x="1320.5" y="-437.3" font-family="Times,serif" font-size="14.00">end</text>
<text text-anchor="start" x="1320.5" y="-422.3" font-family="Times,serif" font-size="14.00">start</text>
<polyline fill="none" stroke="black" points="1296.5,-414.5 1379.5,-414.5 "/>
<text text-anchor="start" x="1335.5" y="-399.3" font-family="Times,serif" font-size="14.00"> </text>
</g>
<!-- icepyx.core.temporal.Temporal&#45;&gt;icepyx.core.query.GenQuery -->
<g id="edge16" class="edge">
<title>icepyx.core.temporal.Temporal&#45;&gt;icepyx.core.query.GenQuery</title>
<path fill="none" stroke="black" d="M1334.97,-475.61C1331.17,-515.6 1322.95,-577.66 1306,-629 1305.22,-631.37 1304.38,-633.74 1303.5,-636.13"/>
<polygon fill="black" stroke="black" points="1303.49,-636.15 1304.99,-643.2 1299.05,-647.29 1297.56,-640.24 1303.49,-636.15"/>
<text text-anchor="middle" x="1346" y="-617.8" font-family="Times,serif" font-size="14.00" fill="green">_temporal</text>
</g>
<!-- icepyx.core.variables.Variables -->
<g id="node17" class="node">
<title>icepyx.core.variables.Variables</title>
<polygon fill="none" stroke="black" points="1816.5,-30.5 1816.5,-189.5 2191.5,-189.5 2191.5,-30.5 1816.5,-30.5"/>
<text text-anchor="start" x="1970.5" y="-174.3" font-family="Times,serif" font-size="14.00">Variables</text>
<polyline fill="none" stroke="black" points="1816.5,-166.5 2191.5,-166.5 "/>
<text text-anchor="start" x="1916.5" y="-151.3" font-family="Times,serif" font-size="14.00">path</text>
<text text-anchor="start" x="1916.5" y="-136.3" font-family="Times,serif" font-size="14.00">product</text>
<text text-anchor="start" x="1916.5" y="-121.3" font-family="Times,serif" font-size="14.00">version</text>
<text text-anchor="start" x="1916.5" y="-106.3" font-family="Times,serif" font-size="14.00">wanted : NoneType, dict</text>
<polyline fill="none" stroke="black" points="1816.5,-98.5 2191.5,-98.5 "/>
<text text-anchor="start" x="1824.5" y="-83.3" font-family="Times,serif" font-size="14.00">append(defaults, var_list, beam_list, keyword_list)</text>
<text text-anchor="start" x="1824.5" y="-68.3" font-family="Times,serif" font-size="14.00">avail(options, internal)</text>
<text text-anchor="start" x="1824.5" y="-53.3" font-family="Times,serif" font-size="14.00">parse_var_list(varlist, tiered, tiered_vars)</text>
<text text-anchor="start" x="1824.5" y="-38.3" font-family="Times,serif" font-size="14.00">remove(all, var_list, beam_list, keyword_list)</text>
</g>
<!-- icepyx.core.variables.Variables&#45;&gt;icepyx.core.auth.EarthdataAuthMixin -->
<g id="edge5" class="edge">
<title>icepyx.core.variables.Variables&#45;&gt;icepyx.core.auth.EarthdataAuthMixin</title>
<path fill="none" stroke="black" d="M2016.1,-189.81C2018.28,-205.74 2020.38,-222.38 2022,-238 2037.78,-389.73 2047.32,-569.28 2051.5,-659.9"/>
<polygon fill="none" stroke="black" points="2048.01,-660.14 2051.96,-669.97 2055,-659.83 2048.01,-660.14"/>
</g>
<!-- icepyx.core.variables.Variables&#45;&gt;icepyx.core.query.Query -->
<g id="edge17" class="edge">
<title>icepyx.core.variables.Variables&#45;&gt;icepyx.core.query.Query</title>
<path fill="none" stroke="black" d="M1901.75,-189.65C1866.17,-217.01 1824.95,-248.71 1784.27,-280"/>
<polygon fill="black" stroke="black" points="1784.02,-280.2 1781.7,-287.03 1774.51,-287.51 1776.82,-280.68 1784.02,-280.2"/>
<text text-anchor="middle" x="1875" y="-241.8" font-family="Times,serif" font-size="14.00" fill="green">_order_vars</text>
</g>
<!-- icepyx.core.variables.Variables&#45;&gt;icepyx.core.query.Query -->
<g id="edge18" class="edge">
<title>icepyx.core.variables.Variables&#45;&gt;icepyx.core.query.Query</title>
<path fill="none" stroke="black" d="M1968.12,-189.83C1955.43,-212.07 1939.61,-235.07 1921,-253 1881.91,-290.67 1833.34,-322.67 1785.42,-348.75"/>
<polygon fill="black" stroke="black" points="1785.15,-348.9 1781.75,-355.26 1774.57,-354.56 1777.97,-348.2 1785.15,-348.9"/>
<text text-anchor="middle" x="1976" y="-241.8" font-family="Times,serif" font-size="14.00" fill="green">_order_vars</text>
</g>
<!-- icepyx.core.variables.Variables&#45;&gt;icepyx.core.read.Read -->
<g id="edge19" class="edge">
<title>icepyx.core.variables.Variables&#45;&gt;icepyx.core.read.Read</title>
<path fill="none" stroke="black" d="M2046.97,-189.76C2054.6,-205.47 2062.01,-222.05 2068,-238 2083.37,-278.94 2095.68,-326.45 2104.24,-364.27"/>
<polygon fill="black" stroke="black" points="2104.29,-364.47 2109.49,-369.46 2106.89,-376.19 2101.68,-371.2 2104.29,-364.47"/>
<text text-anchor="middle" x="2110.5" y="-241.8" font-family="Times,serif" font-size="14.00" fill="green">_read_vars</text>
</g>
<!-- icepyx.core.visualization.Visualize -->
<g id="node18" class="node">
<title>icepyx.core.visualization.Visualize</title>
<polygon fill="none" stroke="black" points="2487.5,-0.5 2487.5,-219.5 2816.5,-219.5 2816.5,-0.5 2487.5,-0.5"/>
<text text-anchor="start" x="2620" y="-204.3" font-family="Times,serif" font-size="14.00">Visualize</text>
<polyline fill="none" stroke="black" points="2487.5,-196.5 2816.5,-196.5 "/>
<text text-anchor="start" x="2566.5" y="-181.3" font-family="Times,serif" font-size="14.00">bbox : list</text>
<text text-anchor="start" x="2566.5" y="-166.3" font-family="Times,serif" font-size="14.00">cycles : NoneType</text>
<text text-anchor="start" x="2566.5" y="-151.3" font-family="Times,serif" font-size="14.00">date_range : NoneType</text>
<text text-anchor="start" x="2566.5" y="-136.3" font-family="Times,serif" font-size="14.00">product : NoneType, str</text>
<text text-anchor="start" x="2566.5" y="-121.3" font-family="Times,serif" font-size="14.00">tracks : NoneType</text>
<polyline fill="none" stroke="black" points="2487.5,-113.5 2816.5,-113.5 "/>
<text text-anchor="start" x="2495.5" y="-98.3" font-family="Times,serif" font-size="14.00">generate_OA_parameters(): list</text>
<text text-anchor="start" x="2495.5" y="-83.3" font-family="Times,serif" font-size="14.00">grid_bbox(binsize): list</text>
<text text-anchor="start" x="2495.5" y="-68.3" font-family="Times,serif" font-size="14.00">make_request(base_url, payload)</text>
<text text-anchor="start" x="2495.5" y="-53.3" font-family="Times,serif" font-size="14.00">parallel_request_OA(): da.array</text>
<text text-anchor="start" x="2495.5" y="-38.3" font-family="Times,serif" font-size="14.00">query_icesat2_filelist(): tuple</text>
<text text-anchor="start" x="2495.5" y="-23.3" font-family="Times,serif" font-size="14.00">request_OA_data(paras): da.array</text>
<text text-anchor="start" x="2495.5" y="-8.3" font-family="Times,serif" font-size="14.00">viz_elevation(): (hv.DynamicMap, hv.Layout)</text>
</g>
</g>
</svg>
