<?xml version="1.0" encoding="UTF-8" standalone="no"?>
<!DOCTYPE svg PUBLIC "-//W3C//DTD SVG 1.1//EN"
 "http://www.w3.org/Graphics/SVG/1.1/DTD/svg11.dtd">
<!-- Generated by graphviz version 2.43.0 (0)
 -->
<!-- Title: classes Pages: 1 -->
<svg width="2073pt" height="694pt"
 viewBox="0.00 0.00 2073.00 694.00" xmlns="http://www.w3.org/2000/svg" xmlns:xlink="http://www.w3.org/1999/xlink">
<g id="graph0" class="graph" transform="scale(1 1) rotate(0) translate(4 690)">
<title>classes</title>
<polygon fill="white" stroke="transparent" points="-4,4 -4,-690 2069,-690 2069,4 -4,4"/>
<!-- 0 -->
<g id="node1" class="node">
<title>0</title>
<polygon fill="none" stroke="black" points="0,-38 0,-182 167,-182 167,-38 0,-38"/>
<text text-anchor="middle" x="83.5" y="-166.8" font-family="Times,serif" font-size="14.00">Earthdata</text>
<polyline fill="none" stroke="black" points="0,-159 167,-159 "/>
<text text-anchor="start" x="8" y="-143.8" font-family="Times,serif" font-size="14.00">capability_url</text>
<text text-anchor="start" x="8" y="-128.8" font-family="Times,serif" font-size="14.00">email</text>
<text text-anchor="start" x="8" y="-113.8" font-family="Times,serif" font-size="14.00">netrc : NoneType</text>
<text text-anchor="start" x="8" y="-98.8" font-family="Times,serif" font-size="14.00">pswd : str, NoneType</text>
<text text-anchor="start" x="8" y="-83.8" font-family="Times,serif" font-size="14.00">session : Session</text>
<text text-anchor="start" x="8" y="-68.8" font-family="Times,serif" font-size="14.00">uid</text>
<polyline fill="none" stroke="black" points="0,-61 167,-61 "/>
<text text-anchor="start" x="8" y="-45.8" font-family="Times,serif" font-size="14.00">login()</text>
</g>
<!-- 1 -->
<g id="node2" class="node">
<title>1</title>
<polygon fill="none" stroke="black" points="184.5,-53 184.5,-167 870.5,-167 870.5,-53 184.5,-53"/>
<text text-anchor="middle" x="527.5" y="-151.8" font-family="Times,serif" font-size="14.00">Granules</text>
<polyline fill="none" stroke="black" points="184.5,-144 870.5,-144 "/>
<text text-anchor="start" x="192.5" y="-128.8" font-family="Times,serif" font-size="14.00">avail : list</text>
<text text-anchor="start" x="192.5" y="-113.8" font-family="Times,serif" font-size="14.00">orderIDs : list</text>
<polyline fill="none" stroke="black" points="184.5,-106 870.5,-106 "/>
<text text-anchor="start" x="192.5" y="-90.8" font-family="Times,serif" font-size="14.00">download(verbose, path, session, restart)</text>
<text text-anchor="start" x="192.5" y="-75.8" font-family="Times,serif" font-size="14.00">get_avail(CMRparams, reqparams)</text>
<text text-anchor="start" x="192.5" y="-60.8" font-family="Times,serif" font-size="14.00">place_order(CMRparams, reqparams, subsetparams, verbose, subset, session, geom_filepath)</text>
</g>
<!-- 5 -->
<g id="node6" class="node">
<title>5</title>
<polygon fill="none" stroke="black" points="772,-271.5 772,-685.5 1149,-685.5 1149,-271.5 772,-271.5"/>
<text text-anchor="middle" x="960.5" y="-670.3" font-family="Times,serif" font-size="14.00">Query</text>
<polyline fill="none" stroke="black" points="772,-662.5 1149,-662.5 "/>
<text text-anchor="start" x="780" y="-647.3" font-family="Times,serif" font-size="14.00">CMRparams</text>
<text text-anchor="start" x="780" y="-632.3" font-family="Times,serif" font-size="14.00">cycles</text>
<text text-anchor="start" x="780" y="-617.3" font-family="Times,serif" font-size="14.00">dataset</text>
<text text-anchor="start" x="780" y="-602.3" font-family="Times,serif" font-size="14.00">dataset_version</text>
<text text-anchor="start" x="780" y="-587.3" font-family="Times,serif" font-size="14.00">dates</text>
<text text-anchor="start" x="780" y="-572.3" font-family="Times,serif" font-size="14.00">end_time</text>
<text text-anchor="start" x="780" y="-557.3" font-family="Times,serif" font-size="14.00">extent_type : str</text>
<text text-anchor="start" x="780" y="-542.3" font-family="Times,serif" font-size="14.00">file_vars</text>
<text text-anchor="start" x="780" y="-527.3" font-family="Times,serif" font-size="14.00">granules</text>
<text text-anchor="start" x="780" y="-512.3" font-family="Times,serif" font-size="14.00">order_vars</text>
<text text-anchor="start" x="780" y="-497.3" font-family="Times,serif" font-size="14.00">reqparams</text>
<text text-anchor="start" x="780" y="-482.3" font-family="Times,serif" font-size="14.00">spatial_extent</text>
<text text-anchor="start" x="780" y="-467.3" font-family="Times,serif" font-size="14.00">start_time</text>
<text text-anchor="start" x="780" y="-452.3" font-family="Times,serif" font-size="14.00">tracks</text>
<polyline fill="none" stroke="black" points="772,-444.5 1149,-444.5 "/>
<text text-anchor="start" x="780" y="-429.3" font-family="Times,serif" font-size="14.00">avail_granules(ids, cycles, tracks)</text>
<text text-anchor="start" x="780" y="-414.3" font-family="Times,serif" font-size="14.00">dataset_all_info()</text>
<text text-anchor="start" x="780" y="-399.3" font-family="Times,serif" font-size="14.00">dataset_summary_info()</text>
<text text-anchor="start" x="780" y="-384.3" font-family="Times,serif" font-size="14.00">download_granules(path, verbose, subset, restart)</text>
<text text-anchor="start" x="780" y="-369.3" font-family="Times,serif" font-size="14.00">earthdata_login(uid, email)</text>
<text text-anchor="start" x="780" y="-354.3" font-family="Times,serif" font-size="14.00">latest_version()</text>
<text text-anchor="start" x="780" y="-339.3" font-family="Times,serif" font-size="14.00">order_granules(verbose, subset, email)</text>
<text text-anchor="start" x="780" y="-324.3" font-family="Times,serif" font-size="14.00">show_custom_options(dictview)</text>
<text text-anchor="start" x="780" y="-309.3" font-family="Times,serif" font-size="14.00">subsetparams()</text>
<text text-anchor="start" x="780" y="-294.3" font-family="Times,serif" font-size="14.00">visualize_elevation()</text>
<text text-anchor="start" x="780" y="-279.3" font-family="Times,serif" font-size="14.00">visualize_spatial_extent()</text>
</g>
<!-- 1&#45;&gt;5 -->
<g id="edge2" class="edge">
<title>1&#45;&gt;5</title>
<path fill="none" stroke="black" d="M523.06,-167.12C523.56,-195.11 528.51,-228.19 545.5,-253 596.73,-327.8 681.22,-379.88 760.64,-414.91"/>
<polygon fill="black" stroke="black" points="760.8,-414.97 767.89,-413.68 771.81,-419.74 764.72,-421.03 760.8,-414.97"/>
<text text-anchor="middle" x="580.5" y="-241.8" font-family="Times,serif" font-size="14.00" fill="green">_granules</text>
</g>
<!-- 1&#45;&gt;5 -->
<g id="edge3" class="edge">
<title>1&#45;&gt;5</title>
<path fill="none" stroke="black" d="M571.62,-167.24C594.18,-194.46 622.88,-226.83 651.5,-253 685.68,-284.25 724.2,-315.15 762.15,-343.57"/>
<polygon fill="black" stroke="black" points="762.16,-343.58 769.36,-343.95 771.79,-350.74 764.59,-350.37 762.16,-343.58"/>
<text text-anchor="middle" x="686.5" y="-241.8" font-family="Times,serif" font-size="14.00" fill="green">_granules</text>
</g>
<!-- 2 -->
<g id="node3" class="node">
<title>2</title>
<polygon fill="none" stroke="black" points="1535.5,-75 1535.5,-145 1637.5,-145 1637.5,-75 1535.5,-75"/>
<text text-anchor="middle" x="1586.5" y="-129.8" font-family="Times,serif" font-size="14.00">Icesat2Data</text>
<polyline fill="none" stroke="black" points="1535.5,-122 1637.5,-122 "/>
<polyline fill="none" stroke="black" points="1535.5,-98 1637.5,-98 "/>
<text text-anchor="middle" x="1586.5" y="-82.8" font-family="Times,serif" font-size="14.00"> </text>
</g>
<!-- 3 -->
<g id="node4" class="node">
<title>3</title>
<polygon fill="none" stroke="black" points="1655.5,-68 1655.5,-152 1795.5,-152 1795.5,-68 1655.5,-68"/>
<text text-anchor="middle" x="1725.5" y="-136.8" font-family="Times,serif" font-size="14.00" fill="red">NsidcQueryError</text>
<polyline fill="none" stroke="black" points="1655.5,-129 1795.5,-129 "/>
<text text-anchor="start" x="1663.5" y="-113.8" font-family="Times,serif" font-size="14.00" fill="red">errmsg</text>
<text text-anchor="start" x="1663.5" y="-98.8" font-family="Times,serif" font-size="14.00" fill="red">msgtxt : str</text>
<polyline fill="none" stroke="black" points="1655.5,-91 1795.5,-91 "/>
<text text-anchor="middle" x="1725.5" y="-75.8" font-family="Times,serif" font-size="14.00" fill="red"> </text>
</g>
<!-- 6 -->
<g id="node7" class="node">
<title>6</title>
<polygon fill="none" stroke="black" points="1676,-443.5 1676,-513.5 1775,-513.5 1775,-443.5 1676,-443.5"/>
<text text-anchor="middle" x="1725.5" y="-498.3" font-family="Times,serif" font-size="14.00" fill="red">QueryError</text>
<polyline fill="none" stroke="black" points="1676,-490.5 1775,-490.5 "/>
<polyline fill="none" stroke="black" points="1676,-466.5 1775,-466.5 "/>
<text text-anchor="middle" x="1725.5" y="-451.3" font-family="Times,serif" font-size="14.00" fill="red"> </text>
</g>
<!-- 3&#45;&gt;6 -->
<g id="edge1" class="edge">
<title>3&#45;&gt;6</title>
<path fill="none" stroke="black" d="M1725.5,-152.33C1725.5,-221.92 1725.5,-361.86 1725.5,-433.32"/>
<polygon fill="none" stroke="black" points="1722,-433.35 1725.5,-443.35 1729,-433.35 1722,-433.35"/>
</g>
<!-- 4 -->
<g id="node5" class="node">
<title>4</title>
<polygon fill="none" stroke="black" points="888,-45.5 888,-174.5 1039,-174.5 1039,-45.5 888,-45.5"/>
<text text-anchor="middle" x="963.5" y="-159.3" font-family="Times,serif" font-size="14.00">Parameters</text>
<polyline fill="none" stroke="black" points="888,-151.5 1039,-151.5 "/>
<text text-anchor="start" x="896" y="-136.3" font-family="Times,serif" font-size="14.00">fmted_keys</text>
<text text-anchor="start" x="896" y="-121.3" font-family="Times,serif" font-size="14.00">partype</text>
<text text-anchor="start" x="896" y="-106.3" font-family="Times,serif" font-size="14.00">poss_keys</text>
<polyline fill="none" stroke="black" points="888,-98.5 1039,-98.5 "/>
<text text-anchor="start" x="896" y="-83.3" font-family="Times,serif" font-size="14.00">build_params()</text>
<text text-anchor="start" x="896" y="-68.3" font-family="Times,serif" font-size="14.00">check_req_values()</text>
<text text-anchor="start" x="896" y="-53.3" font-family="Times,serif" font-size="14.00">check_values()</text>
</g>
<!-- 4&#45;&gt;5 -->
<g id="edge4" class="edge">
<title>4&#45;&gt;5</title>
<path fill="none" stroke="black" d="M927.54,-174.75C914.63,-192.14 898.48,-209.16 879.5,-220 851.3,-236.1 756,-213.67 734.5,-238 698.29,-278.98 720.7,-322.78 762.97,-361.56"/>
<polygon fill="black" stroke="black" points="762.98,-361.57 770.12,-362.54 771.98,-369.51 764.83,-368.54 762.98,-361.57"/>
<text text-anchor="middle" x="782.5" y="-241.8" font-family="Times,serif" font-size="14.00" fill="green">_CMRparams</text>
</g>
<!-- 4&#45;&gt;5 -->
<g id="edge5" class="edge">
<title>4&#45;&gt;5</title>
<path fill="none" stroke="black" d="M919.74,-174.63C907.59,-190.28 893.79,-206.42 879.5,-220 869.31,-229.68 860.02,-225.55 853.5,-238 849.83,-245 847.16,-252.15 845.35,-259.39"/>
<polygon fill="black" stroke="black" points="845.34,-259.46 848.18,-266.08 843.16,-271.26 840.31,-264.63 845.34,-259.46"/>
<text text-anchor="middle" x="896" y="-241.8" font-family="Times,serif" font-size="14.00" fill="green">_reqparams</text>
</g>
<!-- 4&#45;&gt;5 -->
<g id="edge6" class="edge">
<title>4&#45;&gt;5</title>
<path fill="none" stroke="black" d="M962.35,-174.63C962.03,-194.88 961.71,-217.38 961.5,-238 961.43,-244.99 961.37,-252.1 961.31,-259.28"/>
<polygon fill="black" stroke="black" points="961.3,-259.41 965.26,-265.44 961.21,-271.41 957.26,-265.38 961.3,-259.41"/>
<text text-anchor="middle" x="1015.5" y="-241.8" font-family="Times,serif" font-size="14.00" fill="green">_subsetparams</text>
</g>
<!-- 4&#45;&gt;5 -->
<g id="edge7" class="edge">
<title>4&#45;&gt;5</title>
<path fill="none" stroke="black" d="M1039.13,-169.1C1060.67,-192.82 1076.63,-221.97 1069.5,-253 1068.99,-255.2 1068.46,-257.4 1067.91,-259.61"/>
<polygon fill="black" stroke="black" points="1067.85,-259.84 1070.15,-266.67 1064.73,-271.43 1062.43,-264.59 1067.85,-259.84"/>
<text text-anchor="middle" x="1125.5" y="-241.8" font-family="Times,serif" font-size="14.00" fill="green">_subsetparams</text>
</g>
<!-- 7 -->
<g id="node8" class="node">
<title>7</title>
<polygon fill="none" stroke="black" points="1142,-38 1142,-182 1517,-182 1517,-38 1142,-38"/>
<text text-anchor="middle" x="1329.5" y="-166.8" font-family="Times,serif" font-size="14.00">Variables</text>
<polyline fill="none" stroke="black" points="1142,-159 1517,-159 "/>
<text text-anchor="start" x="1150" y="-143.8" font-family="Times,serif" font-size="14.00">dataset : NoneType</text>
<text text-anchor="start" x="1150" y="-128.8" font-family="Times,serif" font-size="14.00">source : NoneType</text>
<text text-anchor="start" x="1150" y="-113.8" font-family="Times,serif" font-size="14.00">wanted : NoneType, dict</text>
<polyline fill="none" stroke="black" points="1142,-106 1517,-106 "/>
<text text-anchor="start" x="1150" y="-90.8" font-family="Times,serif" font-size="14.00">append(defaults, var_list, beam_list, keyword_list)</text>
<text text-anchor="start" x="1150" y="-75.8" font-family="Times,serif" font-size="14.00">avail(options, internal)</text>
<text text-anchor="start" x="1150" y="-60.8" font-family="Times,serif" font-size="14.00">parse_var_list(varlist)</text>
<text text-anchor="start" x="1150" y="-45.8" font-family="Times,serif" font-size="14.00">remove(all, var_list, beam_list, keyword_list)</text>
</g>
<!-- 7&#45;&gt;5 -->
<g id="edge8" class="edge">
<title>7&#45;&gt;5</title>
<path fill="none" stroke="black" d="M1257.92,-182.1C1228.81,-211.01 1193.62,-245.96 1157.77,-281.56"/>
<polygon fill="black" stroke="black" points="1157.66,-281.68 1156.22,-288.74 1149.14,-290.13 1150.58,-283.07 1157.66,-281.68"/>
<text text-anchor="middle" x="1242.5" y="-241.8" font-family="Times,serif" font-size="14.00" fill="green">_order_vars</text>
</g>
<!-- 7&#45;&gt;5 -->
<g id="edge9" class="edge">
<title>7&#45;&gt;5</title>
<path fill="none" stroke="black" d="M1319.03,-182.12C1312.98,-206.25 1303.46,-232.31 1288.5,-253 1254.37,-300.22 1207.07,-340.71 1159.01,-373.78"/>
<polygon fill="black" stroke="black" points="1159.01,-373.78 1156.28,-380.46 1149.07,-380.51 1151.8,-373.83 1159.01,-373.78"/>
<text text-anchor="middle" x="1339.5" y="-241.8" font-family="Times,serif" font-size="14.00" fill="green">_order_vars</text>
</g>
<!-- 7&#45;&gt;5 -->
<g id="edge10" class="edge">
<title>7&#45;&gt;5</title>
<path fill="none" stroke="black" d="M1383,-182.17C1393.99,-205.53 1398.7,-231.1 1385.5,-253 1336.03,-335.08 1245.42,-388.69 1160.53,-422.87"/>
<polygon fill="black" stroke="black" points="1160.3,-422.96 1156.18,-428.88 1149.13,-427.35 1153.25,-421.43 1160.3,-422.96"/>
<text text-anchor="middle" x="1426" y="-241.8" font-family="Times,serif" font-size="14.00" fill="green">_file_vars</text>
</g>
<!-- 8 -->
<g id="node9" class="node">
<title>8</title>
<polygon fill="none" stroke="black" points="1814,-0.5 1814,-219.5 2065,-219.5 2065,-0.5 1814,-0.5"/>
<text text-anchor="middle" x="1939.5" y="-204.3" font-family="Times,serif" font-size="14.00">Visualize</text>
<polyline fill="none" stroke="black" points="1814,-196.5 2065,-196.5 "/>
<text text-anchor="start" x="1822" y="-181.3" font-family="Times,serif" font-size="14.00">bbox : list</text>
<text text-anchor="start" x="1822" y="-166.3" font-family="Times,serif" font-size="14.00">cycles : NoneType</text>
<text text-anchor="start" x="1822" y="-151.3" font-family="Times,serif" font-size="14.00">date_range : NoneType</text>
<text text-anchor="start" x="1822" y="-136.3" font-family="Times,serif" font-size="14.00">product : str, NoneType</text>
<text text-anchor="start" x="1822" y="-121.3" font-family="Times,serif" font-size="14.00">tracks : NoneType</text>
<polyline fill="none" stroke="black" points="1814,-113.5 2065,-113.5 "/>
<text text-anchor="start" x="1822" y="-98.3" font-family="Times,serif" font-size="14.00">generate_OA_parameters()</text>
<text text-anchor="start" x="1822" y="-83.3" font-family="Times,serif" font-size="14.00">grid_bbox(binsize)</text>
<text text-anchor="start" x="1822" y="-68.3" font-family="Times,serif" font-size="14.00">make_request(base_url, payload)</text>
<text text-anchor="start" x="1822" y="-53.3" font-family="Times,serif" font-size="14.00">parallel_request_OA()</text>
<text text-anchor="start" x="1822" y="-38.3" font-family="Times,serif" font-size="14.00">query_icesat2_filelist()</text>
<text text-anchor="start" x="1822" y="-23.3" font-family="Times,serif" font-size="14.00">request_OA_data(paras)</text>
<text text-anchor="start" x="1822" y="-8.3" font-family="Times,serif" font-size="14.00">viz_elevation()</text>
</g>
</g>
</svg>
