<?xml version="1.0" encoding="UTF-8" standalone="no"?>
<!DOCTYPE svg PUBLIC "-//W3C//DTD SVG 1.1//EN"
 "http://www.w3.org/Graphics/SVG/1.1/DTD/svg11.dtd">
<!-- Generated by graphviz version 2.43.0 (0)
 -->
<!-- Title: classes_user_uml Pages: 1 -->
<svg width="2354pt" height="800pt"
 viewBox="0.00 0.00 2354.00 800.00" xmlns="http://www.w3.org/2000/svg" xmlns:xlink="http://www.w3.org/1999/xlink">
<g id="graph0" class="graph" transform="scale(1 1) rotate(0) translate(4 796)">
<title>classes_user_uml</title>
<polygon fill="white" stroke="transparent" points="-4,4 -4,-796 2350,-796 2350,4 -4,4"/>
<!-- icepyx.core.auth.AuthenticationError -->
<g id="node1" class="node">
<title>icepyx.core.auth.AuthenticationError</title>
<polygon fill="none" stroke="black" points="0,-74.6 0,-145.4 161,-145.4 161,-74.6 0,-74.6"/>
<text text-anchor="start" x="8" y="-130.2" font-family="Times,serif" font-size="14.00" fill="red">AuthenticationError</text>
<polyline fill="none" stroke="black" points="0,-122.4 161,-122.4 "/>
<polyline fill="none" stroke="black" points="0,-97.6 161,-97.6 "/>
<text text-anchor="start" x="78" y="-82.4" font-family="Times,serif" font-size="14.00" fill="red"> </text>
</g>
<!-- icepyx.core.exceptions.DeprecationError -->
<g id="node2" class="node">
<title>icepyx.core.exceptions.DeprecationError</title>
<polygon fill="none" stroke="black" points="179,-74.6 179,-145.4 322,-145.4 322,-74.6 179,-74.6"/>
<text text-anchor="start" x="187" y="-130.2" font-family="Times,serif" font-size="14.00" fill="red">DeprecationError</text>
<polyline fill="none" stroke="black" points="179,-122.4 322,-122.4 "/>
<polyline fill="none" stroke="black" points="179,-97.6 322,-97.6 "/>
<text text-anchor="start" x="248" y="-82.4" font-family="Times,serif" font-size="14.00" fill="red"> </text>
</g>
<!-- icepyx.core.auth.EarthdataAuthMixin -->
<g id="node3" class="node">
<title>icepyx.core.auth.EarthdataAuthMixin</title>
<polygon fill="none" stroke="black" points="1235,-670 1235,-769 1556,-769 1556,-670 1235,-670"/>
<text text-anchor="start" x="1322" y="-753.8" font-family="Times,serif" font-size="14.00">EarthdataAuthMixin</text>
<polyline fill="none" stroke="black" points="1235,-746 1556,-746 "/>
<text text-anchor="start" x="1326" y="-730.8" font-family="Times,serif" font-size="14.00">auth</text>
<text text-anchor="start" x="1326" y="-715.8" font-family="Times,serif" font-size="14.00">s3login_credentials</text>
<text text-anchor="start" x="1326" y="-700.8" font-family="Times,serif" font-size="14.00">session</text>
<polyline fill="none" stroke="black" points="1235,-693 1556,-693 "/>
<text text-anchor="start" x="1243" y="-677.8" font-family="Times,serif" font-size="14.00">earthdata_login(uid, email, s3token): None</text>
</g>
<!-- icepyx.core.query.GenQuery -->
<g id="node4" class="node">
<title>icepyx.core.query.GenQuery</title>
<polygon fill="none" stroke="black" points="770,-647.5 770,-791.5 887,-791.5 887,-647.5 770,-647.5"/>
<text text-anchor="start" x="792" y="-776.3" font-family="Times,serif" font-size="14.00">GenQuery</text>
<polyline fill="none" stroke="black" points="770,-768.5 887,-768.5 "/>
<text text-anchor="start" x="778" y="-753.3" font-family="Times,serif" font-size="14.00">dates</text>
<text text-anchor="start" x="778" y="-738.3" font-family="Times,serif" font-size="14.00">end_time</text>
<text text-anchor="start" x="778" y="-723.3" font-family="Times,serif" font-size="14.00">spatial</text>
<text text-anchor="start" x="778" y="-708.3" font-family="Times,serif" font-size="14.00">spatial_extent</text>
<text text-anchor="start" x="778" y="-693.3" font-family="Times,serif" font-size="14.00">start_time</text>
<text text-anchor="start" x="778" y="-678.3" font-family="Times,serif" font-size="14.00">temporal</text>
<polyline fill="none" stroke="black" points="770,-670.5 887,-670.5 "/>
<text text-anchor="start" x="826" y="-655.3" font-family="Times,serif" font-size="14.00"> </text>
</g>
<!-- icepyx.core.granules.Granules -->
<g id="node5" class="node">
<title>icepyx.core.granules.Granules</title>
<polygon fill="none" stroke="black" points="339.5,-53 339.5,-167 1025.5,-167 1025.5,-53 339.5,-53"/>
<text text-anchor="start" x="650" y="-151.8" font-family="Times,serif" font-size="14.00">Granules</text>
<polyline fill="none" stroke="black" points="339.5,-144 1025.5,-144 "/>
<text text-anchor="start" x="632.5" y="-128.8" font-family="Times,serif" font-size="14.00">avail : list</text>
<text text-anchor="start" x="632.5" y="-113.8" font-family="Times,serif" font-size="14.00">orderIDs : list</text>
<polyline fill="none" stroke="black" points="339.5,-106 1025.5,-106 "/>
<text text-anchor="start" x="347.5" y="-90.8" font-family="Times,serif" font-size="14.00">download(verbose, path, session, restart)</text>
<text text-anchor="start" x="347.5" y="-75.8" font-family="Times,serif" font-size="14.00">get_avail(CMRparams, reqparams, cloud)</text>
<text text-anchor="start" x="347.5" y="-60.8" font-family="Times,serif" font-size="14.00">place_order(CMRparams, reqparams, subsetparams, verbose, subset, session, geom_filepath)</text>
</g>
<!-- icepyx.core.query.Query -->
<g id="node9" class="node">
<title>icepyx.core.query.Query</title>
<polygon fill="none" stroke="black" points="927,-271.5 927,-595.5 1304,-595.5 1304,-271.5 927,-271.5"/>
<text text-anchor="start" x="1093.5" y="-580.3" font-family="Times,serif" font-size="14.00">Query</text>
<polyline fill="none" stroke="black" points="927,-572.5 1304,-572.5 "/>
<text text-anchor="start" x="1058" y="-557.3" font-family="Times,serif" font-size="14.00">CMRparams</text>
<text text-anchor="start" x="1058" y="-542.3" font-family="Times,serif" font-size="14.00">cycles</text>
<text text-anchor="start" x="1058" y="-527.3" font-family="Times,serif" font-size="14.00">dataset</text>
<text text-anchor="start" x="1058" y="-512.3" font-family="Times,serif" font-size="14.00">granules</text>
<text text-anchor="start" x="1058" y="-497.3" font-family="Times,serif" font-size="14.00">order_vars</text>
<text text-anchor="start" x="1058" y="-482.3" font-family="Times,serif" font-size="14.00">product</text>
<text text-anchor="start" x="1058" y="-467.3" font-family="Times,serif" font-size="14.00">product_version</text>
<text text-anchor="start" x="1058" y="-452.3" font-family="Times,serif" font-size="14.00">reqparams</text>
<text text-anchor="start" x="1058" y="-437.3" font-family="Times,serif" font-size="14.00">tracks</text>
<polyline fill="none" stroke="black" points="927,-429.5 1304,-429.5 "/>
<text text-anchor="start" x="935" y="-414.3" font-family="Times,serif" font-size="14.00">avail_granules(ids, cycles, tracks, cloud)</text>
<text text-anchor="start" x="935" y="-399.3" font-family="Times,serif" font-size="14.00">download_granules(path, verbose, subset, restart)</text>
<text text-anchor="start" x="935" y="-384.3" font-family="Times,serif" font-size="14.00">latest_version()</text>
<text text-anchor="start" x="935" y="-369.3" font-family="Times,serif" font-size="14.00">order_granules(verbose, subset, email)</text>
<text text-anchor="start" x="935" y="-354.3" font-family="Times,serif" font-size="14.00">product_all_info()</text>
<text text-anchor="start" x="935" y="-339.3" font-family="Times,serif" font-size="14.00">product_summary_info()</text>
<text text-anchor="start" x="935" y="-324.3" font-family="Times,serif" font-size="14.00">show_custom_options(dictview)</text>
<text text-anchor="start" x="935" y="-309.3" font-family="Times,serif" font-size="14.00">subsetparams()</text>
<text text-anchor="start" x="935" y="-294.3" font-family="Times,serif" font-size="14.00">visualize_elevation()</text>
<text text-anchor="start" x="935" y="-279.3" font-family="Times,serif" font-size="14.00">visualize_spatial_extent()</text>
</g>
<!-- icepyx.core.granules.Granules&#45;&gt;icepyx.core.query.Query -->
<g id="edge9" class="edge">
<title>icepyx.core.granules.Granules&#45;&gt;icepyx.core.query.Query</title>
<path fill="none" stroke="black" d="M674.2,-167.26C673.21,-196.88 677.98,-231.43 700.5,-253 733.13,-284.24 854.86,-257.06 914.9,-271.24"/>
<polygon fill="black" stroke="black" points="915.27,-271.35 922.19,-269.32 926.72,-274.93 919.8,-276.96 915.27,-271.35"/>
<text text-anchor="middle" x="735.5" y="-241.8" font-family="Times,serif" font-size="14.00" fill="green">_granules</text>
</g>
<!-- icepyx.core.granules.Granules&#45;&gt;icepyx.core.query.Query -->
<g id="edge10" class="edge">
<title>icepyx.core.granules.Granules&#45;&gt;icepyx.core.query.Query</title>
<path fill="none" stroke="black" d="M719.22,-167.01C742.1,-197.31 774.25,-232.61 811.5,-253 850.31,-274.24 870.82,-254.65 915.6,-270.82"/>
<polygon fill="black" stroke="black" points="915.76,-270.89 922.83,-269.47 926.86,-275.44 919.8,-276.87 915.76,-270.89"/>
<text text-anchor="middle" x="846.5" y="-241.8" font-family="Times,serif" font-size="14.00" fill="green">_granules</text>
</g>
<!-- icepyx.core.icesat2data.Icesat2Data -->
<g id="node6" class="node">
<title>icepyx.core.icesat2data.Icesat2Data</title>
<polygon fill="none" stroke="black" points="1739.5,-74.6 1739.5,-145.4 1841.5,-145.4 1841.5,-74.6 1739.5,-74.6"/>
<text text-anchor="start" x="1747.5" y="-130.2" font-family="Times,serif" font-size="14.00">Icesat2Data</text>
<polyline fill="none" stroke="black" points="1739.5,-122.4 1841.5,-122.4 "/>
<polyline fill="none" stroke="black" points="1739.5,-97.6 1841.5,-97.6 "/>
<text text-anchor="start" x="1788" y="-82.4" font-family="Times,serif" font-size="14.00"> </text>
</g>
<!-- icepyx.core.exceptions.NsidcQueryError -->
<g id="node7" class="node">
<title>icepyx.core.exceptions.NsidcQueryError</title>
<polygon fill="none" stroke="black" points="1859.5,-68 1859.5,-152 1999.5,-152 1999.5,-68 1859.5,-68"/>
<text text-anchor="start" x="1867.5" y="-136.8" font-family="Times,serif" font-size="14.00" fill="red">NsidcQueryError</text>
<polyline fill="none" stroke="black" points="1859.5,-129 1999.5,-129 "/>
<text text-anchor="start" x="1887" y="-113.8" font-family="Times,serif" font-size="14.00" fill="red">errmsg</text>
<text text-anchor="start" x="1887" y="-98.8" font-family="Times,serif" font-size="14.00" fill="red">msgtxt : str</text>
<polyline fill="none" stroke="black" points="1859.5,-91 1999.5,-91 "/>
<text text-anchor="start" x="1927" y="-75.8" font-family="Times,serif" font-size="14.00" fill="red"> </text>
</g>
<!-- icepyx.core.exceptions.QueryError -->
<g id="node10" class="node">
<title>icepyx.core.exceptions.QueryError</title>
<polygon fill="none" stroke="black" points="1880,-398.1 1880,-468.9 1979,-468.9 1979,-398.1 1880,-398.1"/>
<text text-anchor="start" x="1888" y="-453.7" font-family="Times,serif" font-size="14.00" fill="red">QueryError</text>
<polyline fill="none" stroke="black" points="1880,-445.9 1979,-445.9 "/>
<polyline fill="none" stroke="black" points="1880,-421.1 1979,-421.1 "/>
<text text-anchor="start" x="1927" y="-405.9" font-family="Times,serif" font-size="14.00" fill="red"> </text>
</g>
<!-- icepyx.core.exceptions.NsidcQueryError&#45;&gt;icepyx.core.exceptions.QueryError -->
<g id="edge1" class="edge">
<title>icepyx.core.exceptions.NsidcQueryError&#45;&gt;icepyx.core.exceptions.QueryError</title>
<path fill="none" stroke="black" d="M1929.5,-152.04C1929.5,-212.53 1929.5,-325.19 1929.5,-387.74"/>
<polygon fill="none" stroke="black" points="1926,-388.07 1929.5,-398.07 1933,-388.07 1926,-388.07"/>
</g>
<!-- icepyx.core.APIformatting.Parameters -->
<g id="node8" class="node">
<title>icepyx.core.APIformatting.Parameters</title>
<polygon fill="none" stroke="black" points="1043,-45.5 1043,-174.5 1194,-174.5 1194,-45.5 1043,-45.5"/>
<text text-anchor="start" x="1077" y="-159.3" font-family="Times,serif" font-size="14.00">Parameters</text>
<polyline fill="none" stroke="black" points="1043,-151.5 1194,-151.5 "/>
<text text-anchor="start" x="1077.5" y="-136.3" font-family="Times,serif" font-size="14.00">fmted_keys</text>
<text text-anchor="start" x="1077.5" y="-121.3" font-family="Times,serif" font-size="14.00">partype</text>
<text text-anchor="start" x="1077.5" y="-106.3" font-family="Times,serif" font-size="14.00">poss_keys</text>
<polyline fill="none" stroke="black" points="1043,-98.5 1194,-98.5 "/>
<text text-anchor="start" x="1051" y="-83.3" font-family="Times,serif" font-size="14.00">build_params()</text>
<text text-anchor="start" x="1051" y="-68.3" font-family="Times,serif" font-size="14.00">check_req_values()</text>
<text text-anchor="start" x="1051" y="-53.3" font-family="Times,serif" font-size="14.00">check_values()</text>
</g>
<!-- icepyx.core.APIformatting.Parameters&#45;&gt;icepyx.core.query.Query -->
<g id="edge5" class="edge">
<title>icepyx.core.APIformatting.Parameters&#45;&gt;icepyx.core.query.Query</title>
<path fill="none" stroke="black" d="M1082.54,-174.75C1069.63,-192.14 1053.48,-209.16 1034.5,-220 1006.3,-236.1 911,-213.67 889.5,-238 874.19,-255.33 899.56,-265.48 916.17,-272.59"/>
<polygon fill="black" stroke="black" points="916.21,-272.61 923.36,-271.69 926.97,-277.93 919.82,-278.86 916.21,-272.61"/>
<text text-anchor="middle" x="937.5" y="-241.8" font-family="Times,serif" font-size="14.00" fill="green">_CMRparams</text>
</g>
<!-- icepyx.core.APIformatting.Parameters&#45;&gt;icepyx.core.query.Query -->
<g id="edge6" class="edge">
<title>icepyx.core.APIformatting.Parameters&#45;&gt;icepyx.core.query.Query</title>
<path fill="none" stroke="black" d="M1074.74,-174.63C1062.59,-190.28 1048.79,-206.42 1034.5,-220 1024.31,-229.68 1015.02,-225.55 1008.5,-238 1004.83,-245 1002.44,-252.12 1001.14,-259.31"/>
<polygon fill="black" stroke="black" points="1001.12,-259.51 1004.52,-265.87 999.95,-271.45 996.55,-265.09 1001.12,-259.51"/>
<text text-anchor="middle" x="1051" y="-241.8" font-family="Times,serif" font-size="14.00" fill="green">_reqparams</text>
</g>
<!-- icepyx.core.APIformatting.Parameters&#45;&gt;icepyx.core.query.Query -->
<g id="edge7" class="edge">
<title>icepyx.core.APIformatting.Parameters&#45;&gt;icepyx.core.query.Query</title>
<path fill="none" stroke="black" d="M1117.37,-174.63C1117.04,-194.88 1116.72,-217.38 1116.5,-238 1116.43,-244.98 1116.36,-252.09 1116.3,-259.28"/>
<polygon fill="black" stroke="black" points="1116.3,-259.44 1120.25,-265.47 1116.2,-271.44 1112.25,-265.41 1116.3,-259.44"/>
<text text-anchor="middle" x="1170.5" y="-241.8" font-family="Times,serif" font-size="14.00" fill="green">_subsetparams</text>
</g>
<!-- icepyx.core.APIformatting.Parameters&#45;&gt;icepyx.core.query.Query -->
<g id="edge8" class="edge">
<title>icepyx.core.APIformatting.Parameters&#45;&gt;icepyx.core.query.Query</title>
<path fill="none" stroke="black" d="M1194.08,-167.78C1216.63,-191.85 1233.29,-221.6 1224.5,-253 1223.86,-255.3 1223.17,-257.61 1222.45,-259.91"/>
<polygon fill="black" stroke="black" points="1222.41,-260.03 1224.28,-267 1218.56,-271.4 1216.7,-264.43 1222.41,-260.03"/>
<text text-anchor="middle" x="1281.5" y="-241.8" font-family="Times,serif" font-size="14.00" fill="green">_subsetparams</text>
</g>
<!-- icepyx.core.query.Query&#45;&gt;icepyx.core.auth.EarthdataAuthMixin -->
<g id="edge2" class="edge">
<title>icepyx.core.query.Query&#45;&gt;icepyx.core.auth.EarthdataAuthMixin</title>
<path fill="none" stroke="black" d="M1274.32,-595.59C1297.96,-619.56 1320.87,-642.8 1340.29,-662.5"/>
<polygon fill="none" stroke="black" points="1338.04,-665.21 1347.56,-669.87 1343.03,-660.29 1338.04,-665.21"/>
</g>
<!-- icepyx.core.query.Query&#45;&gt;icepyx.core.query.GenQuery -->
<g id="edge3" class="edge">
<title>icepyx.core.query.Query&#45;&gt;icepyx.core.query.GenQuery</title>
<path fill="none" stroke="black" d="M957.22,-595.75C945.85,-607.05 934.53,-618.22 923.5,-629 914.2,-638.09 904.3,-647.59 894.53,-656.88"/>
<polygon fill="none" stroke="black" points="891.95,-654.51 887.1,-663.93 896.76,-659.59 891.95,-654.51"/>
</g>
<!-- icepyx.core.read.Read -->
<g id="node11" class="node">
<title>icepyx.core.read.Read</title>
<polygon fill="none" stroke="black" points="1611.5,-384 1611.5,-483 1683.5,-483 1683.5,-384 1611.5,-384"/>
<text text-anchor="start" x="1629" y="-467.8" font-family="Times,serif" font-size="14.00">Read</text>
<polyline fill="none" stroke="black" points="1611.5,-460 1683.5,-460 "/>
<text text-anchor="start" x="1619.5" y="-444.8" font-family="Times,serif" font-size="14.00">filelist</text>
<text text-anchor="start" x="1619.5" y="-429.8" font-family="Times,serif" font-size="14.00">product</text>
<text text-anchor="start" x="1619.5" y="-414.8" font-family="Times,serif" font-size="14.00">vars</text>
<polyline fill="none" stroke="black" points="1611.5,-407 1683.5,-407 "/>
<text text-anchor="start" x="1627" y="-391.8" font-family="Times,serif" font-size="14.00">load()</text>
</g>
<!-- icepyx.core.spatial.Spatial -->
<g id="node12" class="node">
<title>icepyx.core.spatial.Spatial</title>
<polygon fill="none" stroke="black" points="669,-369 669,-498 790,-498 790,-369 669,-369"/>
<text text-anchor="start" x="704" y="-482.8" font-family="Times,serif" font-size="14.00">Spatial</text>
<polyline fill="none" stroke="black" points="669,-475 790,-475 "/>
<text text-anchor="start" x="680" y="-459.8" font-family="Times,serif" font-size="14.00">extent</text>
<text text-anchor="start" x="680" y="-444.8" font-family="Times,serif" font-size="14.00">extent_as_gdf</text>
<text text-anchor="start" x="680" y="-429.8" font-family="Times,serif" font-size="14.00">extent_file</text>
<text text-anchor="start" x="680" y="-414.8" font-family="Times,serif" font-size="14.00">extent_type</text>
<polyline fill="none" stroke="black" points="669,-407 790,-407 "/>
<text text-anchor="start" x="677" y="-391.8" font-family="Times,serif" font-size="14.00">fmt_for_CMR()</text>
<text text-anchor="start" x="677" y="-376.8" font-family="Times,serif" font-size="14.00">fmt_for_EGI()</text>
</g>
<!-- icepyx.core.spatial.Spatial&#45;&gt;icepyx.core.query.GenQuery -->
<g id="edge11" class="edge">
<title>icepyx.core.spatial.Spatial&#45;&gt;icepyx.core.query.GenQuery</title>
<path fill="none" stroke="black" d="M707.73,-498.03C697.98,-537.62 692.61,-588.54 712.5,-629 722.91,-650.19 741.03,-667.78 759.89,-681.59"/>
<polygon fill="black" stroke="black" points="759.93,-681.62 767.14,-681.76 769.78,-688.47 762.57,-688.33 759.93,-681.62"/>
<text text-anchor="middle" x="740" y="-617.8" font-family="Times,serif" font-size="14.00" fill="green">_spatial</text>
</g>
<!-- icepyx.core.spatial.Spatial&#45;&gt;icepyx.core.query.GenQuery -->
<g id="edge12" class="edge">
<title>icepyx.core.spatial.Spatial&#45;&gt;icepyx.core.query.GenQuery</title>
<path fill="none" stroke="black" d="M745.56,-498.38C755.86,-536.73 770.3,-586.22 786.5,-629 787.34,-631.23 788.22,-633.48 789.12,-635.74"/>
<polygon fill="black" stroke="black" points="789.23,-636.02 795.22,-640.04 793.82,-647.11 787.83,-643.09 789.23,-636.02"/>
<text text-anchor="middle" x="814" y="-617.8" font-family="Times,serif" font-size="14.00" fill="green">_spatial</text>
</g>
<!-- icepyx.core.temporal.Temporal -->
<g id="node13" class="node">
<title>icepyx.core.temporal.Temporal</title>
<polygon fill="none" stroke="black" points="826,-391.5 826,-475.5 909,-475.5 909,-391.5 826,-391.5"/>
<text text-anchor="start" x="834" y="-460.3" font-family="Times,serif" font-size="14.00">Temporal</text>
<polyline fill="none" stroke="black" points="826,-452.5 909,-452.5 "/>
<text text-anchor="start" x="850" y="-437.3" font-family="Times,serif" font-size="14.00">end</text>
<text text-anchor="start" x="850" y="-422.3" font-family="Times,serif" font-size="14.00">start</text>
<polyline fill="none" stroke="black" points="826,-414.5 909,-414.5 "/>
<text text-anchor="start" x="865" y="-399.3" font-family="Times,serif" font-size="14.00"> </text>
</g>
<!-- icepyx.core.temporal.Temporal&#45;&gt;icepyx.core.query.GenQuery -->
<g id="edge13" class="edge">
<title>icepyx.core.temporal.Temporal&#45;&gt;icepyx.core.query.GenQuery</title>
<path fill="none" stroke="black" d="M863.76,-475.6C859.95,-515.05 853.48,-576.25 845.5,-629 845.19,-631.04 844.87,-633.11 844.54,-635.19"/>
<polygon fill="black" stroke="black" points="844.5,-635.42 847.46,-642 842.53,-647.26 839.57,-640.68 844.5,-635.42"/>
<text text-anchor="middle" x="883.5" y="-617.8" font-family="Times,serif" font-size="14.00" fill="green">_temporal</text>
</g>
<!-- icepyx.core.variables.Variables -->
<g id="node14" class="node">
<title>icepyx.core.variables.Variables</title>
<polygon fill="none" stroke="black" points="1346,-30.5 1346,-189.5 1721,-189.5 1721,-30.5 1346,-30.5"/>
<text text-anchor="start" x="1500" y="-174.3" font-family="Times,serif" font-size="14.00">Variables</text>
<polyline fill="none" stroke="black" points="1346,-166.5 1721,-166.5 "/>
<text text-anchor="start" x="1446" y="-151.3" font-family="Times,serif" font-size="14.00">path</text>
<text text-anchor="start" x="1446" y="-136.3" font-family="Times,serif" font-size="14.00">product</text>
<text text-anchor="start" x="1446" y="-121.3" font-family="Times,serif" font-size="14.00">version</text>
<text text-anchor="start" x="1446" y="-106.3" font-family="Times,serif" font-size="14.00">wanted : NoneType, dict</text>
<polyline fill="none" stroke="black" points="1346,-98.5 1721,-98.5 "/>
<text text-anchor="start" x="1354" y="-83.3" font-family="Times,serif" font-size="14.00">append(defaults, var_list, beam_list, keyword_list)</text>
<text text-anchor="start" x="1354" y="-68.3" font-family="Times,serif" font-size="14.00">avail(options, internal)</text>
<text text-anchor="start" x="1354" y="-53.3" font-family="Times,serif" font-size="14.00">parse_var_list(varlist, tiered, tiered_vars)</text>
<text text-anchor="start" x="1354" y="-38.3" font-family="Times,serif" font-size="14.00">remove(all, var_list, beam_list, keyword_list)</text>
</g>
<!-- icepyx.core.variables.Variables&#45;&gt;icepyx.core.auth.EarthdataAuthMixin -->
<g id="edge4" class="edge">
<title>icepyx.core.variables.Variables&#45;&gt;icepyx.core.auth.EarthdataAuthMixin</title>
<path fill="none" stroke="black" d="M1551.55,-189.64C1554.09,-210.29 1554.84,-232.52 1551.5,-253 1526.74,-404.83 1459.35,-573.95 1421.75,-660.51"/>
<polygon fill="none" stroke="black" points="1418.45,-659.33 1417.65,-669.9 1424.86,-662.13 1418.45,-659.33"/>
</g>
<!-- icepyx.core.variables.Variables&#45;&gt;icepyx.core.query.Query -->
<g id="edge14" class="edge">
<title>icepyx.core.variables.Variables&#45;&gt;icepyx.core.query.Query</title>
<path fill="none" stroke="black" d="M1431.25,-189.65C1395.67,-217.01 1354.45,-248.71 1313.77,-280"/>
<polygon fill="black" stroke="black" points="1313.52,-280.2 1311.2,-287.03 1304.01,-287.51 1306.32,-280.68 1313.52,-280.2"/>
<text text-anchor="middle" x="1404.5" y="-241.8" font-family="Times,serif" font-size="14.00" fill="green">_order_vars</text>
</g>
<!-- icepyx.core.variables.Variables&#45;&gt;icepyx.core.query.Query -->
<g id="edge15" class="edge">
<title>icepyx.core.variables.Variables&#45;&gt;icepyx.core.query.Query</title>
<path fill="none" stroke="black" d="M1497.62,-189.83C1484.93,-212.07 1469.11,-235.07 1450.5,-253 1411.41,-290.67 1362.84,-322.67 1314.92,-348.75"/>
<polygon fill="black" stroke="black" points="1314.65,-348.9 1311.25,-355.26 1304.07,-354.56 1307.47,-348.2 1314.65,-348.9"/>
<text text-anchor="middle" x="1505.5" y="-241.8" font-family="Times,serif" font-size="14.00" fill="green">_order_vars</text>
</g>
<!-- icepyx.core.variables.Variables&#45;&gt;icepyx.core.read.Read -->
<g id="edge16" class="edge">
<title>icepyx.core.variables.Variables&#45;&gt;icepyx.core.read.Read</title>
<path fill="none" stroke="black" d="M1576.47,-189.76C1584.1,-205.47 1591.51,-222.05 1597.5,-238 1613.9,-281.68 1626.82,-332.85 1635.41,-371.74"/>
<polygon fill="black" stroke="black" points="1635.45,-371.92 1640.63,-376.94 1638,-383.65 1632.82,-378.63 1635.45,-371.92"/>
<text text-anchor="middle" x="1640" y="-241.8" font-family="Times,serif" font-size="14.00" fill="green">_read_vars</text>
</g>
<!-- icepyx.core.visualization.Visualize -->
<g id="node15" class="node">
<title>icepyx.core.visualization.Visualize</title>
<polygon fill="none" stroke="black" points="2017,-0.5 2017,-219.5 2346,-219.5 2346,-0.5 2017,-0.5"/>
<text text-anchor="start" x="2149.5" y="-204.3" font-family="Times,serif" font-size="14.00">Visualize</text>
<polyline fill="none" stroke="black" points="2017,-196.5 2346,-196.5 "/>
<text text-anchor="start" x="2096" y="-181.3" font-family="Times,serif" font-size="14.00">bbox : list</text>
<text text-anchor="start" x="2096" y="-166.3" font-family="Times,serif" font-size="14.00">cycles : NoneType</text>
<text text-anchor="start" x="2096" y="-151.3" font-family="Times,serif" font-size="14.00">date_range : NoneType</text>
<text text-anchor="start" x="2096" y="-136.3" font-family="Times,serif" font-size="14.00">product : NoneType, str</text>
<text text-anchor="start" x="2096" y="-121.3" font-family="Times,serif" font-size="14.00">tracks : NoneType</text>
<polyline fill="none" stroke="black" points="2017,-113.5 2346,-113.5 "/>
<text text-anchor="start" x="2025" y="-98.3" font-family="Times,serif" font-size="14.00">generate_OA_parameters(): list</text>
<text text-anchor="start" x="2025" y="-83.3" font-family="Times,serif" font-size="14.00">grid_bbox(binsize): list</text>
<text text-anchor="start" x="2025" y="-68.3" font-family="Times,serif" font-size="14.00">make_request(base_url, payload)</text>
<text text-anchor="start" x="2025" y="-53.3" font-family="Times,serif" font-size="14.00">parallel_request_OA(): da.array</text>
<text text-anchor="start" x="2025" y="-38.3" font-family="Times,serif" font-size="14.00">query_icesat2_filelist(): tuple</text>
<text text-anchor="start" x="2025" y="-23.3" font-family="Times,serif" font-size="14.00">request_OA_data(paras): da.array</text>
<text text-anchor="start" x="2025" y="-8.3" font-family="Times,serif" font-size="14.00">viz_elevation(): (hv.DynamicMap, hv.Layout)</text>
</g>
</g>
</svg>
