<?xml version="1.0" encoding="UTF-8" standalone="no"?>
<!DOCTYPE svg PUBLIC "-//W3C//DTD SVG 1.1//EN"
 "http://www.w3.org/Graphics/SVG/1.1/DTD/svg11.dtd">
<!-- Generated by graphviz version 2.43.0 (0)
 -->
<!-- Title: classes_user_uml Pages: 1 -->
<svg width="4082pt" height="1101pt"
 viewBox="0.00 0.00 4081.50 1101.00" xmlns="http://www.w3.org/2000/svg" xmlns:xlink="http://www.w3.org/1999/xlink">
<g id="graph0" class="graph" transform="scale(1 1) rotate(0) translate(4 1097)">
<title>classes_user_uml</title>
<polygon fill="white" stroke="transparent" points="-4,4 -4,-1097 4077.5,-1097 4077.5,4 -4,4"/>
<!-- icepyx.core.auth.AuthenticationError -->
<g id="node1" class="node">
<title>icepyx.core.auth.AuthenticationError</title>
<polygon fill="none" stroke="black" points="468,-74.6 468,-145.4 629,-145.4 629,-74.6 468,-74.6"/>
<text text-anchor="start" x="476" y="-130.2" font-family="Times,serif" font-size="14.00" fill="red">AuthenticationError</text>
<polyline fill="none" stroke="black" points="468,-122.4 629,-122.4 "/>
<polyline fill="none" stroke="black" points="468,-97.6 629,-97.6 "/>
<text text-anchor="start" x="546" y="-82.4" font-family="Times,serif" font-size="14.00" fill="red"> </text>
</g>
<!-- icepyx.core.types.CMRParamsWithBbox -->
<g id="node2" class="node">
<title>icepyx.core.types.CMRParamsWithBbox</title>
<polygon fill="none" stroke="black" points="647,-75.5 647,-144.5 822,-144.5 822,-75.5 647,-75.5"/>
<text text-anchor="start" x="655" y="-129.3" font-family="Times,serif" font-size="14.00">CMRParamsWithBbox</text>
<polyline fill="none" stroke="black" points="647,-121.5 822,-121.5 "/>
<text text-anchor="start" x="668" y="-106.3" font-family="Times,serif" font-size="14.00">bounding_box : str</text>
<polyline fill="none" stroke="black" points="647,-98.5 822,-98.5 "/>
<text text-anchor="start" x="732" y="-83.3" font-family="Times,serif" font-size="14.00"> </text>
</g>
<!-- icepyx.core.types.CMRParamsWithPolygon -->
<g id="node3" class="node">
<title>icepyx.core.types.CMRParamsWithPolygon</title>
<polygon fill="none" stroke="black" points="840,-75.5 840,-144.5 1035,-144.5 1035,-75.5 840,-75.5"/>
<text text-anchor="start" x="848" y="-129.3" font-family="Times,serif" font-size="14.00">CMRParamsWithPolygon</text>
<polyline fill="none" stroke="black" points="840,-121.5 1035,-121.5 "/>
<text text-anchor="start" x="892" y="-106.3" font-family="Times,serif" font-size="14.00">polygon : str</text>
<polyline fill="none" stroke="black" points="840,-98.5 1035,-98.5 "/>
<text text-anchor="start" x="935" y="-83.3" font-family="Times,serif" font-size="14.00"> </text>
</g>
<!-- icepyx.core.orders.DataOrder -->
<g id="node4" class="node">
<title>icepyx.core.orders.DataOrder</title>
<polygon fill="none" stroke="black" points="1255.5,-271.5 1255.5,-475.5 1661.5,-475.5 1661.5,-271.5 1255.5,-271.5"/>
<text text-anchor="start" x="1420.5" y="-460.3" font-family="Times,serif" font-size="14.00">DataOrder</text>
<polyline fill="none" stroke="black" points="1255.5,-452.5 1661.5,-452.5 "/>
<text text-anchor="start" x="1324.5" y="-437.3" font-family="Times,serif" font-size="14.00">HARMONY_BASE_URL : str</text>
<text text-anchor="start" x="1324.5" y="-422.3" font-family="Times,serif" font-size="14.00">granules : Union[List[Any], Granules]</text>
<text text-anchor="start" x="1324.5" y="-407.3" font-family="Times,serif" font-size="14.00">harmony_api : Any</text>
<text text-anchor="start" x="1324.5" y="-392.3" font-family="Times,serif" font-size="14.00">type : str</text>
<polyline fill="none" stroke="black" points="1255.5,-384.5 1661.5,-384.5 "/>
<text text-anchor="start" x="1263.5" y="-369.3" font-family="Times,serif" font-size="14.00">download(path, overwrite): Union[list, None]</text>
<text text-anchor="start" x="1263.5" y="-354.3" font-family="Times,serif" font-size="14.00">download_granules(path, overwrite): Union[list, None]</text>
<text text-anchor="start" x="1263.5" y="-339.3" font-family="Times,serif" font-size="14.00">job_id(): str</text>
<text text-anchor="start" x="1263.5" y="-324.3" font-family="Times,serif" font-size="14.00">pause(): Union[Dict[str, Any], None]</text>
<text text-anchor="start" x="1263.5" y="-309.3" font-family="Times,serif" font-size="14.00">resume(): Union[Dict[str, Any], None]</text>
<text text-anchor="start" x="1263.5" y="-294.3" font-family="Times,serif" font-size="14.00">skip_preview(): Union[Dict[str, Any], None]</text>
<text text-anchor="start" x="1263.5" y="-279.3" font-family="Times,serif" font-size="14.00">status(): Dict[str, Any]</text>
</g>
<!-- icepyx.core.query.Query -->
<g id="node14" class="node">
<title>icepyx.core.query.Query</title>
<polygon fill="none" stroke="black" points="943,-527.5 943,-896.5 1460,-896.5 1460,-527.5 943,-527.5"/>
<text text-anchor="start" x="1179.5" y="-881.3" font-family="Times,serif" font-size="14.00">Query</text>
<polyline fill="none" stroke="black" points="943,-873.5 1460,-873.5 "/>
<text text-anchor="start" x="1039" y="-858.3" font-family="Times,serif" font-size="14.00">CMRparams</text>
<text text-anchor="start" x="1039" y="-843.3" font-family="Times,serif" font-size="14.00">REQUEST_RETRY_INTERVAL_SECONDS : int</text>
<text text-anchor="start" x="1039" y="-828.3" font-family="Times,serif" font-size="14.00">concept_id</text>
<text text-anchor="start" x="1039" y="-813.3" font-family="Times,serif" font-size="14.00">cycles</text>
<text text-anchor="start" x="1039" y="-798.3" font-family="Times,serif" font-size="14.00">granules</text>
<text text-anchor="start" x="1039" y="-783.3" font-family="Times,serif" font-size="14.00">harmony_api</text>
<text text-anchor="start" x="1039" y="-768.3" font-family="Times,serif" font-size="14.00">last_order</text>
<text text-anchor="start" x="1039" y="-753.3" font-family="Times,serif" font-size="14.00">order_vars</text>
<text text-anchor="start" x="1039" y="-738.3" font-family="Times,serif" font-size="14.00">product</text>
<text text-anchor="start" x="1039" y="-723.3" font-family="Times,serif" font-size="14.00">product_version</text>
<text text-anchor="start" x="1039" y="-708.3" font-family="Times,serif" font-size="14.00">tracks</text>
<text text-anchor="start" x="1039" y="-693.3" font-family="Times,serif" font-size="14.00">variables</text>
<polyline fill="none" stroke="black" points="943,-685.5 1460,-685.5 "/>
<text text-anchor="start" x="951" y="-670.3" font-family="Times,serif" font-size="14.00">avail_granules(ids, cycles, tracks, cloud)</text>
<text text-anchor="start" x="951" y="-655.3" font-family="Times,serif" font-size="14.00">download_granules(path: Path, overwrite: bool): Union[list[str], None]</text>
<text text-anchor="start" x="951" y="-640.3" font-family="Times,serif" font-size="14.00">latest_version()</text>
<text text-anchor="start" x="951" y="-625.3" font-family="Times,serif" font-size="14.00">order_granules(subset: bool, skip_preview: bool): DataOrder</text>
<text text-anchor="start" x="951" y="-610.3" font-family="Times,serif" font-size="14.00">product_all_info()</text>
<text text-anchor="start" x="951" y="-595.3" font-family="Times,serif" font-size="14.00">product_summary_info()</text>
<text text-anchor="start" x="951" y="-580.3" font-family="Times,serif" font-size="14.00">show_custom_options(): Dict[str, Any]</text>
<text text-anchor="start" x="951" y="-565.3" font-family="Times,serif" font-size="14.00">skip_preview()</text>
<text text-anchor="start" x="951" y="-550.3" font-family="Times,serif" font-size="14.00">visualize_elevation()</text>
<text text-anchor="start" x="951" y="-535.3" font-family="Times,serif" font-size="14.00">visualize_spatial_extent()</text>
</g>
<!-- icepyx.core.orders.DataOrder&#45;&gt;icepyx.core.query.Query -->
<g id="edge14" class="edge">
<title>icepyx.core.orders.DataOrder&#45;&gt;icepyx.core.query.Query</title>
<path fill="none" stroke="black" d="M1372.9,-475.8C1367.99,-481.92 1363.15,-488.02 1358.5,-494 1352.51,-501.69 1346.45,-509.59 1340.36,-517.59"/>
<polygon fill="black" stroke="black" points="1340.18,-517.83 1339.75,-525.03 1332.94,-527.4 1333.37,-520.2 1340.18,-517.83"/>
<text text-anchor="middle" x="1395" y="-497.8" font-family="Times,serif" font-size="14.00" fill="green">last_order</text>
</g>
<!-- icepyx.core.orders.DataOrder&#45;&gt;icepyx.core.query.Query -->
<g id="edge15" class="edge">
<title>icepyx.core.orders.DataOrder&#45;&gt;icepyx.core.query.Query</title>
<path fill="none" stroke="black" d="M1289.46,-475.67C1283.77,-481.54 1278.42,-487.65 1273.5,-494 1267.92,-501.2 1262.77,-508.86 1258.01,-516.82"/>
<polygon fill="black" stroke="black" points="1257.89,-517.03 1258.41,-524.22 1251.96,-527.47 1251.45,-520.27 1257.89,-517.03"/>
<text text-anchor="middle" x="1310" y="-497.8" font-family="Times,serif" font-size="14.00" fill="green">last_order</text>
</g>
<!-- icepyx.core.exceptions.DeprecationError -->
<g id="node5" class="node">
<title>icepyx.core.exceptions.DeprecationError</title>
<polygon fill="none" stroke="black" points="2103,-74.6 2103,-145.4 2246,-145.4 2246,-74.6 2103,-74.6"/>
<text text-anchor="start" x="2111" y="-130.2" font-family="Times,serif" font-size="14.00" fill="red">DeprecationError</text>
<polyline fill="none" stroke="black" points="2103,-122.4 2246,-122.4 "/>
<polyline fill="none" stroke="black" points="2103,-97.6 2246,-97.6 "/>
<text text-anchor="start" x="2172" y="-82.4" font-family="Times,serif" font-size="14.00" fill="red"> </text>
</g>
<!-- icepyx.core.auth.EarthdataAuthMixin -->
<g id="node6" class="node">
<title>icepyx.core.auth.EarthdataAuthMixin</title>
<polygon fill="none" stroke="black" points="630,-971 630,-1070 793,-1070 793,-971 630,-971"/>
<text text-anchor="start" x="638" y="-1054.8" font-family="Times,serif" font-size="14.00">EarthdataAuthMixin</text>
<polyline fill="none" stroke="black" points="630,-1047 793,-1047 "/>
<text text-anchor="start" x="642" y="-1031.8" font-family="Times,serif" font-size="14.00">auth</text>
<text text-anchor="start" x="642" y="-1016.8" font-family="Times,serif" font-size="14.00">s3login_credentials</text>
<text text-anchor="start" x="642" y="-1001.8" font-family="Times,serif" font-size="14.00">session</text>
<polyline fill="none" stroke="black" points="630,-994 793,-994 "/>
<text text-anchor="start" x="709" y="-978.8" font-family="Times,serif" font-size="14.00"> </text>
</g>
<!-- icepyx.core.exceptions.ExhaustiveTypeGuardException -->
<g id="node7" class="node">
<title>icepyx.core.exceptions.ExhaustiveTypeGuardException</title>
<polygon fill="none" stroke="black" points="3117.5,-74.6 3117.5,-145.4 3363.5,-145.4 3363.5,-74.6 3117.5,-74.6"/>
<text text-anchor="start" x="3125.5" y="-130.2" font-family="Times,serif" font-size="14.00" fill="red">ExhaustiveTypeGuardException</text>
<polyline fill="none" stroke="black" points="3117.5,-122.4 3363.5,-122.4 "/>
<polyline fill="none" stroke="black" points="3117.5,-97.6 3363.5,-97.6 "/>
<text text-anchor="start" x="3238" y="-82.4" font-family="Times,serif" font-size="14.00" fill="red"> </text>
</g>
<!-- icepyx.core.exceptions.TypeGuardException -->
<g id="node19" class="node">
<title>icepyx.core.exceptions.TypeGuardException</title>
<polygon fill="none" stroke="black" points="3157,-338.1 3157,-408.9 3324,-408.9 3324,-338.1 3157,-338.1"/>
<text text-anchor="start" x="3165" y="-393.7" font-family="Times,serif" font-size="14.00" fill="red">TypeGuardException</text>
<polyline fill="none" stroke="black" points="3157,-385.9 3324,-385.9 "/>
<polyline fill="none" stroke="black" points="3157,-361.1 3324,-361.1 "/>
<text text-anchor="start" x="3238" y="-345.9" font-family="Times,serif" font-size="14.00" fill="red"> </text>
</g>
<!-- icepyx.core.exceptions.ExhaustiveTypeGuardException&#45;&gt;icepyx.core.exceptions.TypeGuardException -->
<g id="edge1" class="edge">
<title>icepyx.core.exceptions.ExhaustiveTypeGuardException&#45;&gt;icepyx.core.exceptions.TypeGuardException</title>
<path fill="none" stroke="black" d="M3240.5,-145.46C3240.5,-192.3 3240.5,-276.13 3240.5,-327.78"/>
<polygon fill="none" stroke="black" points="3237,-327.97 3240.5,-337.97 3244,-327.97 3237,-327.97"/>
</g>
<!-- icepyx.core.query.GenQuery -->
<g id="node8" class="node">
<title>icepyx.core.query.GenQuery</title>
<polygon fill="none" stroke="black" points="1699,-948.5 1699,-1092.5 1816,-1092.5 1816,-948.5 1699,-948.5"/>
<text text-anchor="start" x="1721" y="-1077.3" font-family="Times,serif" font-size="14.00">GenQuery</text>
<polyline fill="none" stroke="black" points="1699,-1069.5 1816,-1069.5 "/>
<text text-anchor="start" x="1707" y="-1054.3" font-family="Times,serif" font-size="14.00">dates</text>
<text text-anchor="start" x="1707" y="-1039.3" font-family="Times,serif" font-size="14.00">end_time</text>
<text text-anchor="start" x="1707" y="-1024.3" font-family="Times,serif" font-size="14.00">spatial</text>
<text text-anchor="start" x="1707" y="-1009.3" font-family="Times,serif" font-size="14.00">spatial_extent</text>
<text text-anchor="start" x="1707" y="-994.3" font-family="Times,serif" font-size="14.00">start_time</text>
<text text-anchor="start" x="1707" y="-979.3" font-family="Times,serif" font-size="14.00">temporal</text>
<polyline fill="none" stroke="black" points="1699,-971.5 1816,-971.5 "/>
<text text-anchor="start" x="1755" y="-956.3" font-family="Times,serif" font-size="14.00"> </text>
</g>
<!-- icepyx.core.granules.Granules -->
<g id="node9" class="node">
<title>icepyx.core.granules.Granules</title>
<polygon fill="none" stroke="black" points="393.5,-324 393.5,-423 1029.5,-423 1029.5,-324 393.5,-324"/>
<text text-anchor="start" x="679" y="-407.8" font-family="Times,serif" font-size="14.00">Granules</text>
<polyline fill="none" stroke="black" points="393.5,-400 1029.5,-400 "/>
<text text-anchor="start" x="676.5" y="-384.8" font-family="Times,serif" font-size="14.00">avail : list</text>
<polyline fill="none" stroke="black" points="393.5,-377 1029.5,-377 "/>
<text text-anchor="start" x="401.5" y="-361.8" font-family="Times,serif" font-size="14.00">download(verbose, path, restart)</text>
<text text-anchor="start" x="401.5" y="-346.8" font-family="Times,serif" font-size="14.00">get_avail(CMRparams: CMRParams, cloud: bool)</text>
<text text-anchor="start" x="401.5" y="-331.8" font-family="Times,serif" font-size="14.00">place_order(CMRparams: CMRParams, subsetparams, verbose, subset, geom_filepath)</text>
</g>
<!-- icepyx.core.granules.Granules&#45;&gt;icepyx.core.auth.EarthdataAuthMixin -->
<g id="edge3" class="edge">
<title>icepyx.core.granules.Granules&#45;&gt;icepyx.core.auth.EarthdataAuthMixin</title>
<path fill="none" stroke="black" d="M711.5,-423.24C711.5,-539.85 711.5,-834.56 711.5,-960.72"/>
<polygon fill="none" stroke="black" points="708,-960.95 711.5,-970.95 715,-960.95 708,-960.95"/>
</g>
<!-- icepyx.core.granules.Granules&#45;&gt;icepyx.core.query.Query -->
<g id="edge11" class="edge">
<title>icepyx.core.granules.Granules&#45;&gt;icepyx.core.query.Query</title>
<path fill="none" stroke="black" d="M782.23,-423.07C822.98,-451.06 877.07,-488.2 932.81,-526.48"/>
<polygon fill="black" stroke="black" points="932.98,-526.6 940.19,-526.7 942.87,-533.39 935.66,-533.29 932.98,-526.6"/>
<text text-anchor="middle" x="933.5" y="-497.8" font-family="Times,serif" font-size="14.00" fill="green">_granules</text>
</g>
<!-- icepyx.core.harmony.HarmonyApi -->
<g id="node10" class="node">
<title>icepyx.core.harmony.HarmonyApi</title>
<polygon fill="none" stroke="black" points="1680,-286.5 1680,-460.5 3139,-460.5 3139,-286.5 1680,-286.5"/>
<text text-anchor="start" x="2364.5" y="-445.3" font-family="Times,serif" font-size="14.00">HarmonyApi</text>
<polyline fill="none" stroke="black" points="1680,-437.5 3139,-437.5 "/>
<text text-anchor="start" x="2326.5" y="-422.3" font-family="Times,serif" font-size="14.00">harmony_client : Client</text>
<text text-anchor="start" x="2326.5" y="-407.3" font-family="Times,serif" font-size="14.00">job_ids : list</text>
<polyline fill="none" stroke="black" points="1680,-399.5 3139,-399.5 "/>
<text text-anchor="start" x="1688" y="-384.3" font-family="Times,serif" font-size="14.00">check_order_status(job_id: str): dict[str, Any]</text>
<text text-anchor="start" x="1688" y="-369.3" font-family="Times,serif" font-size="14.00">download_granules(download_dir: Path, overwrite: bool): list[Path]</text>
<text text-anchor="start" x="1688" y="-354.3" font-family="Times,serif" font-size="14.00">get_capabilities(concept_id: str): dict[str, Any]</text>
<text text-anchor="start" x="1688" y="-339.3" font-family="Times,serif" font-size="14.00">pause_order(job_id: str): None</text>
<text text-anchor="start" x="1688" y="-324.3" font-family="Times,serif" font-size="14.00">place_order(concept_id: str, spatial: Union[harmony.BBox, str, harmony.WKT, None], temporal: Union[HarmonyTemporal, None], shape: Union[str, None], granule_name: list[str], skip_preview: bool): Any</text>
<text text-anchor="start" x="1688" y="-309.3" font-family="Times,serif" font-size="14.00">resume_order(job_id: str): None</text>
<text text-anchor="start" x="1688" y="-294.3" font-family="Times,serif" font-size="14.00">skip_preview(job_id: str): Dict[str, Any]</text>
</g>
<!-- icepyx.core.harmony.HarmonyApi&#45;&gt;icepyx.core.auth.EarthdataAuthMixin -->
<g id="edge4" class="edge">
<title>icepyx.core.harmony.HarmonyApi&#45;&gt;icepyx.core.auth.EarthdataAuthMixin</title>
<path fill="none" stroke="black" d="M1874.27,-460.51C1795.69,-479.93 1729.46,-502.24 1694.5,-527 1537.26,-638.38 1628.46,-789.56 1468.5,-897 1361.1,-969.13 980.47,-1002.35 803.37,-1014.16"/>
<polygon fill="none" stroke="black" points="803.04,-1010.67 793.29,-1014.82 803.5,-1017.66 803.04,-1010.67"/>
</g>
<!-- icepyx.core.harmony.HarmonyApi&#45;&gt;icepyx.core.query.Query -->
<g id="edge12" class="edge">
<title>icepyx.core.harmony.HarmonyApi&#45;&gt;icepyx.core.query.Query</title>
<path fill="none" stroke="black" d="M1788.83,-460.51C1668.43,-477.66 1576.69,-491.3 1569.5,-494 1558.08,-498.29 1556.88,-502.58 1546.5,-509 1522.11,-524.08 1496.62,-539.55 1471,-554.9"/>
<polygon fill="black" stroke="black" points="1470.7,-555.07 1467.61,-561.58 1460.4,-561.23 1463.5,-554.72 1470.7,-555.07"/>
<text text-anchor="middle" x="1615.5" y="-497.8" font-family="Times,serif" font-size="14.00" fill="green">harmony_api</text>
</g>
<!-- icepyx.core.harmony.HarmonyApi&#45;&gt;icepyx.core.query.Query -->
<g id="edge13" class="edge">
<title>icepyx.core.harmony.HarmonyApi&#45;&gt;icepyx.core.query.Query</title>
<path fill="none" stroke="black" d="M1803.14,-460.51C1758.29,-466.03 1713.71,-471.27 1670.5,-476 1621.74,-481.34 1495.69,-474.93 1450.5,-494 1448.76,-494.73 1437.23,-504.32 1420.01,-519.09"/>
<polygon fill="black" stroke="black" points="1419.6,-519.45 1417.66,-526.39 1410.5,-527.27 1412.44,-520.33 1419.6,-519.45"/>
<text text-anchor="middle" x="1496.5" y="-497.8" font-family="Times,serif" font-size="14.00" fill="green">harmony_api</text>
</g>
<!-- icepyx.core.harmony.HarmonyTemporal -->
<g id="node11" class="node">
<title>icepyx.core.harmony.HarmonyTemporal</title>
<polygon fill="none" stroke="black" points="3382,-68 3382,-152 3531,-152 3531,-68 3382,-68"/>
<text text-anchor="start" x="3390" y="-136.8" font-family="Times,serif" font-size="14.00">HarmonyTemporal</text>
<polyline fill="none" stroke="black" points="3382,-129 3531,-129 "/>
<text text-anchor="start" x="3400.5" y="-113.8" font-family="Times,serif" font-size="14.00">start : datetime</text>
<text text-anchor="start" x="3400.5" y="-98.8" font-family="Times,serif" font-size="14.00">stop : datetime</text>
<polyline fill="none" stroke="black" points="3382,-91 3531,-91 "/>
<text text-anchor="start" x="3454" y="-75.8" font-family="Times,serif" font-size="14.00"> </text>
</g>
<!-- icepyx.core.exceptions.NsidcQueryError -->
<g id="node12" class="node">
<title>icepyx.core.exceptions.NsidcQueryError</title>
<polygon fill="none" stroke="black" points="3549.5,-68 3549.5,-152 3689.5,-152 3689.5,-68 3549.5,-68"/>
<text text-anchor="start" x="3557.5" y="-136.8" font-family="Times,serif" font-size="14.00" fill="red">NsidcQueryError</text>
<polyline fill="none" stroke="black" points="3549.5,-129 3689.5,-129 "/>
<text text-anchor="start" x="3577" y="-113.8" font-family="Times,serif" font-size="14.00" fill="red">errmsg</text>
<text text-anchor="start" x="3577" y="-98.8" font-family="Times,serif" font-size="14.00" fill="red">msgtxt : str</text>
<polyline fill="none" stroke="black" points="3549.5,-91 3689.5,-91 "/>
<text text-anchor="start" x="3617" y="-75.8" font-family="Times,serif" font-size="14.00" fill="red"> </text>
</g>
<!-- icepyx.core.exceptions.QueryError -->
<g id="node15" class="node">
<title>icepyx.core.exceptions.QueryError</title>
<polygon fill="none" stroke="black" points="3570,-338.1 3570,-408.9 3669,-408.9 3669,-338.1 3570,-338.1"/>
<text text-anchor="start" x="3578" y="-393.7" font-family="Times,serif" font-size="14.00" fill="red">QueryError</text>
<polyline fill="none" stroke="black" points="3570,-385.9 3669,-385.9 "/>
<polyline fill="none" stroke="black" points="3570,-361.1 3669,-361.1 "/>
<text text-anchor="start" x="3617" y="-345.9" font-family="Times,serif" font-size="14.00" fill="red"> </text>
</g>
<!-- icepyx.core.exceptions.NsidcQueryError&#45;&gt;icepyx.core.exceptions.QueryError -->
<g id="edge2" class="edge">
<title>icepyx.core.exceptions.NsidcQueryError&#45;&gt;icepyx.core.exceptions.QueryError</title>
<path fill="none" stroke="black" d="M3619.5,-152.15C3619.5,-199.95 3619.5,-278.54 3619.5,-327.81"/>
<polygon fill="none" stroke="black" points="3616,-327.86 3619.5,-337.86 3623,-327.86 3616,-327.86"/>
</g>
<!-- icepyx.core.APIformatting.Parameters -->
<g id="node13" class="node">
<title>icepyx.core.APIformatting.Parameters</title>
<polygon fill="none" stroke="black" points="1047.5,-309 1047.5,-438 1237.5,-438 1237.5,-309 1047.5,-309"/>
<text text-anchor="start" x="1101" y="-422.8" font-family="Times,serif" font-size="14.00">Parameters</text>
<polyline fill="none" stroke="black" points="1047.5,-415 1237.5,-415 "/>
<text text-anchor="start" x="1101.5" y="-399.8" font-family="Times,serif" font-size="14.00">fmted_keys</text>
<text text-anchor="start" x="1101.5" y="-384.8" font-family="Times,serif" font-size="14.00">partype : T</text>
<text text-anchor="start" x="1101.5" y="-369.8" font-family="Times,serif" font-size="14.00">poss_keys</text>
<polyline fill="none" stroke="black" points="1047.5,-362 1237.5,-362 "/>
<text text-anchor="start" x="1055.5" y="-346.8" font-family="Times,serif" font-size="14.00">build_params(): None</text>
<text text-anchor="start" x="1055.5" y="-331.8" font-family="Times,serif" font-size="14.00">check_req_values(): bool</text>
<text text-anchor="start" x="1055.5" y="-316.8" font-family="Times,serif" font-size="14.00">check_values(): bool</text>
</g>
<!-- icepyx.core.APIformatting.Parameters&#45;&gt;icepyx.core.query.Query -->
<g id="edge9" class="edge">
<title>icepyx.core.APIformatting.Parameters&#45;&gt;icepyx.core.query.Query</title>
<path fill="none" stroke="black" d="M1139.44,-438.06C1139.29,-460.57 1140.18,-486 1143.5,-509 1143.8,-511.08 1144.12,-513.17 1144.45,-515.26"/>
<polygon fill="black" stroke="black" points="1144.49,-515.5 1149.44,-520.74 1146.5,-527.33 1141.55,-522.09 1144.49,-515.5"/>
<text text-anchor="middle" x="1191.5" y="-497.8" font-family="Times,serif" font-size="14.00" fill="green">_CMRparams</text>
</g>
<!-- icepyx.core.query.Query&#45;&gt;icepyx.core.auth.EarthdataAuthMixin -->
<g id="edge5" class="edge">
<title>icepyx.core.query.Query&#45;&gt;icepyx.core.auth.EarthdataAuthMixin</title>
<path fill="none" stroke="black" d="M942.87,-874.78C890.46,-907.56 838.89,-939.82 797.78,-965.53"/>
<polygon fill="none" stroke="black" points="795.79,-962.65 789.17,-970.92 799.51,-968.58 795.79,-962.65"/>
</g>
<!-- icepyx.core.query.Query&#45;&gt;icepyx.core.query.GenQuery -->
<g id="edge6" class="edge">
<title>icepyx.core.query.Query&#45;&gt;icepyx.core.query.GenQuery</title>
<path fill="none" stroke="black" d="M1460.37,-855.71C1544.96,-902.34 1631.92,-950.27 1689.73,-982.14"/>
<polygon fill="none" stroke="black" points="1688.31,-985.35 1698.75,-987.12 1691.69,-979.22 1688.31,-985.35"/>
</g>
<!-- icepyx.core.read.Read -->
<g id="node16" class="node">
<title>icepyx.core.read.Read</title>
<polygon fill="none" stroke="black" points="279.5,-655 279.5,-769 361.5,-769 361.5,-655 279.5,-655"/>
<text text-anchor="start" x="302" y="-753.8" font-family="Times,serif" font-size="14.00">Read</text>
<polyline fill="none" stroke="black" points="279.5,-746 361.5,-746 "/>
<text text-anchor="start" x="287.5" y="-730.8" font-family="Times,serif" font-size="14.00">filelist</text>
<text text-anchor="start" x="287.5" y="-715.8" font-family="Times,serif" font-size="14.00">is_s3</text>
<text text-anchor="start" x="287.5" y="-700.8" font-family="Times,serif" font-size="14.00">product</text>
<text text-anchor="start" x="287.5" y="-685.8" font-family="Times,serif" font-size="14.00">variables</text>
<polyline fill="none" stroke="black" points="279.5,-678 361.5,-678 "/>
<text text-anchor="start" x="300" y="-662.8" font-family="Times,serif" font-size="14.00">load()</text>
</g>
<!-- icepyx.core.read.Read&#45;&gt;icepyx.core.auth.EarthdataAuthMixin -->
<g id="edge7" class="edge">
<title>icepyx.core.read.Read&#45;&gt;icepyx.core.auth.EarthdataAuthMixin</title>
<path fill="none" stroke="black" d="M361.6,-745.22C428.05,-797.3 559.81,-900.59 641.32,-964.49"/>
<polygon fill="none" stroke="black" points="639.51,-967.51 649.54,-970.93 643.82,-962 639.51,-967.51"/>
</g>
<!-- icepyx.core.spatial.Spatial -->
<g id="node17" class="node">
<title>icepyx.core.spatial.Spatial</title>
<polygon fill="none" stroke="black" points="1704,-647.5 1704,-776.5 1825,-776.5 1825,-647.5 1704,-647.5"/>
<text text-anchor="start" x="1739" y="-761.3" font-family="Times,serif" font-size="14.00">Spatial</text>
<polyline fill="none" stroke="black" points="1704,-753.5 1825,-753.5 "/>
<text text-anchor="start" x="1715" y="-738.3" font-family="Times,serif" font-size="14.00">extent</text>
<text text-anchor="start" x="1715" y="-723.3" font-family="Times,serif" font-size="14.00">extent_as_gdf</text>
<text text-anchor="start" x="1715" y="-708.3" font-family="Times,serif" font-size="14.00">extent_file</text>
<text text-anchor="start" x="1715" y="-693.3" font-family="Times,serif" font-size="14.00">extent_type</text>
<polyline fill="none" stroke="black" points="1704,-685.5 1825,-685.5 "/>
<text text-anchor="start" x="1712" y="-670.3" font-family="Times,serif" font-size="14.00">fmt_for_CMR()</text>
<text text-anchor="start" x="1712" y="-655.3" font-family="Times,serif" font-size="14.00">fmt_for_EGI()</text>
</g>
<!-- icepyx.core.spatial.Spatial&#45;&gt;icepyx.core.query.GenQuery -->
<g id="edge16" class="edge">
<title>icepyx.core.spatial.Spatial&#45;&gt;icepyx.core.query.GenQuery</title>
<path fill="none" stroke="black" d="M1737.56,-776.59C1722.62,-819.83 1708.99,-878.35 1719.5,-930 1719.94,-932.14 1720.42,-934.29 1720.96,-936.45"/>
<polygon fill="black" stroke="black" points="1720.96,-936.46 1726.44,-941.14 1724.23,-948.01 1718.75,-943.32 1720.96,-936.46"/>
<text text-anchor="middle" x="1747" y="-918.8" font-family="Times,serif" font-size="14.00" fill="green">_spatial</text>
</g>
<!-- icepyx.core.spatial.Spatial&#45;&gt;icepyx.core.query.GenQuery -->
<g id="edge17" class="edge">
<title>icepyx.core.spatial.Spatial&#45;&gt;icepyx.core.query.GenQuery</title>
<path fill="none" stroke="black" d="M1772.11,-776.73C1776.14,-820.03 1779.34,-878.56 1774.5,-930 1774.31,-932.06 1774.09,-934.14 1773.85,-936.23"/>
<polygon fill="black" stroke="black" points="1773.82,-936.45 1777.01,-942.92 1772.26,-948.35 1769.08,-941.88 1773.82,-936.45"/>
<text text-anchor="middle" x="1803" y="-918.8" font-family="Times,serif" font-size="14.00" fill="green">_spatial</text>
</g>
<!-- icepyx.core.temporal.Temporal -->
<g id="node18" class="node">
<title>icepyx.core.temporal.Temporal</title>
<polygon fill="none" stroke="black" points="1843,-670 1843,-754 1926,-754 1926,-670 1843,-670"/>
<text text-anchor="start" x="1851" y="-738.8" font-family="Times,serif" font-size="14.00">Temporal</text>
<polyline fill="none" stroke="black" points="1843,-731 1926,-731 "/>
<text text-anchor="start" x="1867" y="-715.8" font-family="Times,serif" font-size="14.00">end</text>
<text text-anchor="start" x="1867" y="-700.8" font-family="Times,serif" font-size="14.00">start</text>
<polyline fill="none" stroke="black" points="1843,-693 1926,-693 "/>
<text text-anchor="start" x="1882" y="-677.8" font-family="Times,serif" font-size="14.00"> </text>
</g>
<!-- icepyx.core.temporal.Temporal&#45;&gt;icepyx.core.query.GenQuery -->
<g id="edge18" class="edge">
<title>icepyx.core.temporal.Temporal&#45;&gt;icepyx.core.query.GenQuery</title>
<path fill="none" stroke="black" d="M1880.96,-754.19C1875.75,-799.39 1863.3,-873.08 1834.5,-930 1831.27,-936.39 1827.49,-942.69 1823.36,-948.83"/>
<polygon fill="black" stroke="black" points="1823.1,-949.19 1822.88,-956.4 1816.14,-958.97 1816.36,-951.76 1823.1,-949.19"/>
<text text-anchor="middle" x="1876.5" y="-918.8" font-family="Times,serif" font-size="14.00" fill="green">_temporal</text>
</g>
<!-- icepyx.core.variables.Variables -->
<g id="node20" class="node">
<title>icepyx.core.variables.Variables</title>
<polygon fill="none" stroke="black" points="0,-294 0,-453 375,-453 375,-294 0,-294"/>
<text text-anchor="start" x="154" y="-437.8" font-family="Times,serif" font-size="14.00">Variables</text>
<polyline fill="none" stroke="black" points="0,-430 375,-430 "/>
<text text-anchor="start" x="100" y="-414.8" font-family="Times,serif" font-size="14.00">path</text>
<text text-anchor="start" x="100" y="-399.8" font-family="Times,serif" font-size="14.00">product</text>
<text text-anchor="start" x="100" y="-384.8" font-family="Times,serif" font-size="14.00">version</text>
<text text-anchor="start" x="100" y="-369.8" font-family="Times,serif" font-size="14.00">wanted : NoneType, dict</text>
<polyline fill="none" stroke="black" points="0,-362 375,-362 "/>
<text text-anchor="start" x="8" y="-346.8" font-family="Times,serif" font-size="14.00">append(defaults, var_list, beam_list, keyword_list)</text>
<text text-anchor="start" x="8" y="-331.8" font-family="Times,serif" font-size="14.00">avail(options, internal)</text>
<text text-anchor="start" x="8" y="-316.8" font-family="Times,serif" font-size="14.00">parse_var_list(varlist, tiered, tiered_vars)</text>
<text text-anchor="start" x="8" y="-301.8" font-family="Times,serif" font-size="14.00">remove(all, var_list, beam_list, keyword_list)</text>
</g>
<!-- icepyx.core.variables.Variables&#45;&gt;icepyx.core.auth.EarthdataAuthMixin -->
<g id="edge8" class="edge">
<title>icepyx.core.variables.Variables&#45;&gt;icepyx.core.auth.EarthdataAuthMixin</title>
<path fill="none" stroke="black" d="M175.94,-453.17C164.09,-566.03 160.56,-773.83 270.5,-897 316.64,-948.7 504.62,-986.81 619.74,-1005.86"/>
<polygon fill="none" stroke="black" points="619.18,-1009.31 629.62,-1007.47 620.31,-1002.4 619.18,-1009.31"/>
</g>
<!-- icepyx.core.variables.Variables&#45;&gt;icepyx.core.query.Query -->
<g id="edge19" class="edge">
<title>icepyx.core.variables.Variables&#45;&gt;icepyx.core.query.Query</title>
<path fill="none" stroke="black" d="M332.06,-453.01C349.5,-461.28 367.25,-469.15 384.5,-476 562.32,-546.6 769.55,-605.95 930.8,-647.35"/>
<polygon fill="black" stroke="black" points="931.19,-647.45 937.99,-645.06 942.82,-650.43 936.01,-652.81 931.19,-647.45"/>
<text text-anchor="middle" x="508" y="-497.8" font-family="Times,serif" font-size="14.00" fill="green">_variables</text>
</g>
<!-- icepyx.core.variables.Variables&#45;&gt;icepyx.core.query.Query -->
<g id="edge20" class="edge">
<title>icepyx.core.variables.Variables&#45;&gt;icepyx.core.query.Query</title>
<path fill="none" stroke="black" d="M324.47,-453.04C344.15,-461.95 364.51,-469.98 384.5,-476 454.71,-497.15 476.86,-478.35 548.5,-494 676.7,-522.01 815.1,-565.93 931.35,-606.95"/>
<polygon fill="black" stroke="black" points="931.58,-607.03 938.57,-605.27 942.89,-611.04 935.9,-612.81 931.58,-607.03"/>
<text text-anchor="middle" x="640" y="-497.8" font-family="Times,serif" font-size="14.00" fill="green">_variables</text>
</g>
<!-- icepyx.core.variables.Variables&#45;&gt;icepyx.core.read.Read -->
<g id="edge21" class="edge">
<title>icepyx.core.variables.Variables&#45;&gt;icepyx.core.read.Read</title>
<path fill="none" stroke="black" d="M204.48,-453.22C209.27,-471.74 214.99,-491.25 221.5,-509 238.52,-555.39 262.89,-605.26 283.2,-643.84"/>
<polygon fill="black" stroke="black" points="283.46,-644.32 289.8,-647.75 289.08,-654.92 282.74,-651.5 283.46,-644.32"/>
<text text-anchor="middle" x="260" y="-497.8" font-family="Times,serif" font-size="14.00" fill="green">_read_vars</text>
</g>
<!-- icepyx.core.variables.Variables&#45;&gt;icepyx.core.read.Read -->
<g id="edge22" class="edge">
<title>icepyx.core.variables.Variables&#45;&gt;icepyx.core.read.Read</title>
<path fill="none" stroke="black" d="M273.19,-453.24C283.14,-465.95 292.02,-479.68 298.5,-494 319.61,-540.67 324.55,-598.62 324.52,-642.88"/>
<polygon fill="black" stroke="black" points="324.52,-642.99 328.45,-649.03 324.39,-654.99 320.46,-648.94 324.52,-642.99"/>
<text text-anchor="middle" x="342" y="-497.8" font-family="Times,serif" font-size="14.00" fill="green">_read_vars</text>
</g>
<!-- icepyx.core.visualization.Visualize -->
<g id="node21" class="node">
<title>icepyx.core.visualization.Visualize</title>
<polygon fill="none" stroke="black" points="3707.5,-0.5 3707.5,-219.5 4073.5,-219.5 4073.5,-0.5 3707.5,-0.5"/>
<text text-anchor="start" x="3858.5" y="-204.3" font-family="Times,serif" font-size="14.00">Visualize</text>
<polyline fill="none" stroke="black" points="3707.5,-196.5 4073.5,-196.5 "/>
<text text-anchor="start" x="3805" y="-181.3" font-family="Times,serif" font-size="14.00">bbox : list</text>
<text text-anchor="start" x="3805" y="-166.3" font-family="Times,serif" font-size="14.00">cycles : NoneType</text>
<text text-anchor="start" x="3805" y="-151.3" font-family="Times,serif" font-size="14.00">date_range : NoneType</text>
<text text-anchor="start" x="3805" y="-136.3" font-family="Times,serif" font-size="14.00">product : NoneType, str</text>
<text text-anchor="start" x="3805" y="-121.3" font-family="Times,serif" font-size="14.00">tracks : NoneType</text>
<polyline fill="none" stroke="black" points="3707.5,-113.5 4073.5,-113.5 "/>
<text text-anchor="start" x="3715.5" y="-98.3" font-family="Times,serif" font-size="14.00">generate_OA_parameters(): list</text>
<text text-anchor="start" x="3715.5" y="-83.3" font-family="Times,serif" font-size="14.00">grid_bbox(binsize): list</text>
<text text-anchor="start" x="3715.5" y="-68.3" font-family="Times,serif" font-size="14.00">make_request(base_url, payload)</text>
<text text-anchor="start" x="3715.5" y="-53.3" font-family="Times,serif" font-size="14.00">parallel_request_OA(): da.array</text>
<text text-anchor="start" x="3715.5" y="-38.3" font-family="Times,serif" font-size="14.00">query_icesat2_filelist(): tuple</text>
<text text-anchor="start" x="3715.5" y="-23.3" font-family="Times,serif" font-size="14.00">request_OA_data(paras): da.array</text>
<text text-anchor="start" x="3715.5" y="-8.3" font-family="Times,serif" font-size="14.00">viz_elevation(): tuple[hv.DynamicMap, hv.Layout]</text>
</g>
<!-- icepyx.core.APIformatting._FmtedKeysDescriptor -->
<g id="node22" class="node">
<title>icepyx.core.APIformatting._FmtedKeysDescriptor</title>
<polygon fill="none" stroke="black" points="1053,-74.6 1053,-145.4 1232,-145.4 1232,-74.6 1053,-74.6"/>
<text text-anchor="start" x="1061" y="-130.2" font-family="Times,serif" font-size="14.00">_FmtedKeysDescriptor</text>
<polyline fill="none" stroke="black" points="1053,-122.4 1232,-122.4 "/>
<polyline fill="none" stroke="black" points="1053,-97.6 1232,-97.6 "/>
<text text-anchor="start" x="1140" y="-82.4" font-family="Times,serif" font-size="14.00"> </text>
</g>
<!-- icepyx.core.APIformatting._FmtedKeysDescriptor&#45;&gt;icepyx.core.APIformatting.Parameters -->
<g id="edge10" class="edge">
<title>icepyx.core.APIformatting._FmtedKeysDescriptor&#45;&gt;icepyx.core.APIformatting.Parameters</title>
<path fill="none" stroke="black" d="M1142.5,-145.46C1142.5,-183.76 1142.5,-246.82 1142.5,-296.77"/>
<polygon fill="black" stroke="black" points="1142.5,-296.84 1146.5,-302.84 1142.5,-308.84 1138.5,-302.84 1142.5,-296.84"/>
<text text-anchor="middle" x="1183.5" y="-241.8" font-family="Times,serif" font-size="14.00" fill="green">fmted_keys</text>
</g>
</g>
</svg>
