<?xml version="1.0" encoding="UTF-8" standalone="no"?>
<!DOCTYPE svg PUBLIC "-//W3C//DTD SVG 1.1//EN"
 "http://www.w3.org/Graphics/SVG/1.1/DTD/svg11.dtd">
<!-- Generated by graphviz version 2.43.0 (0)
 -->
<!-- Title: classes_user_uml Pages: 1 -->
<svg width="2126pt" height="709pt"
 viewBox="0.00 0.00 2126.00 709.00" xmlns="http://www.w3.org/2000/svg" xmlns:xlink="http://www.w3.org/1999/xlink">
<g id="graph0" class="graph" transform="scale(1 1) rotate(0) translate(4 705)">
<title>classes_user_uml</title>
<polygon fill="white" stroke="transparent" points="-4,4 -4,-705 2122,-705 2122,4 -4,4"/>
<!-- icepyx.core.Earthdata.Earthdata -->
<g id="node1" class="node">
<title>icepyx.core.Earthdata.Earthdata</title>
<polygon fill="none" stroke="black" points="0,-38 0,-182 167,-182 167,-38 0,-38"/>
<text text-anchor="middle" x="83.5" y="-166.8" font-family="Times,serif" font-size="14.00">Earthdata</text>
<polyline fill="none" stroke="black" points="0,-159 167,-159 "/>
<text text-anchor="start" x="8" y="-143.8" font-family="Times,serif" font-size="14.00">capability_url</text>
<text text-anchor="start" x="8" y="-128.8" font-family="Times,serif" font-size="14.00">email</text>
<text text-anchor="start" x="8" y="-113.8" font-family="Times,serif" font-size="14.00">netrc : NoneType</text>
<text text-anchor="start" x="8" y="-98.8" font-family="Times,serif" font-size="14.00">pswd : str, NoneType</text>
<text text-anchor="start" x="8" y="-83.8" font-family="Times,serif" font-size="14.00">session : Session</text>
<text text-anchor="start" x="8" y="-68.8" font-family="Times,serif" font-size="14.00">uid</text>
<polyline fill="none" stroke="black" points="0,-61 167,-61 "/>
<text text-anchor="start" x="8" y="-45.8" font-family="Times,serif" font-size="14.00">login()</text>
</g>
<!-- icepyx.core.granules.Granules -->
<g id="node2" class="node">
<title>icepyx.core.granules.Granules</title>
<polygon fill="none" stroke="black" points="184.5,-53 184.5,-167 870.5,-167 870.5,-53 184.5,-53"/>
<text text-anchor="middle" x="527.5" y="-151.8" font-family="Times,serif" font-size="14.00">Granules</text>
<polyline fill="none" stroke="black" points="184.5,-144 870.5,-144 "/>
<text text-anchor="start" x="192.5" y="-128.8" font-family="Times,serif" font-size="14.00">avail : list</text>
<text text-anchor="start" x="192.5" y="-113.8" font-family="Times,serif" font-size="14.00">orderIDs : list</text>
<polyline fill="none" stroke="black" points="184.5,-106 870.5,-106 "/>
<text text-anchor="start" x="192.5" y="-90.8" font-family="Times,serif" font-size="14.00">download(verbose, path, session, restart)</text>
<text text-anchor="start" x="192.5" y="-75.8" font-family="Times,serif" font-size="14.00">get_avail(CMRparams, reqparams)</text>
<text text-anchor="start" x="192.5" y="-60.8" font-family="Times,serif" font-size="14.00">place_order(CMRparams, reqparams, subsetparams, verbose, subset, session, geom_filepath)</text>
</g>
<!-- icepyx.core.query.Query -->
<g id="node6" class="node">
<title>icepyx.core.query.Query</title>
<polygon fill="none" stroke="black" points="772,-271.5 772,-700.5 1149,-700.5 1149,-271.5 772,-271.5"/>
<text text-anchor="middle" x="960.5" y="-685.3" font-family="Times,serif" font-size="14.00">Query</text>
<polyline fill="none" stroke="black" points="772,-677.5 1149,-677.5 "/>
<text text-anchor="start" x="780" y="-662.3" font-family="Times,serif" font-size="14.00">CMRparams</text>
<text text-anchor="start" x="780" y="-647.3" font-family="Times,serif" font-size="14.00">cycles</text>
<text text-anchor="start" x="780" y="-632.3" font-family="Times,serif" font-size="14.00">dataset</text>
<text text-anchor="start" x="780" y="-617.3" font-family="Times,serif" font-size="14.00">dates</text>
<text text-anchor="start" x="780" y="-602.3" font-family="Times,serif" font-size="14.00">end_time</text>
<text text-anchor="start" x="780" y="-587.3" font-family="Times,serif" font-size="14.00">extent_type : str</text>
<text text-anchor="start" x="780" y="-572.3" font-family="Times,serif" font-size="14.00">file_vars</text>
<text text-anchor="start" x="780" y="-557.3" font-family="Times,serif" font-size="14.00">granules</text>
<text text-anchor="start" x="780" y="-542.3" font-family="Times,serif" font-size="14.00">order_vars</text>
<text text-anchor="start" x="780" y="-527.3" font-family="Times,serif" font-size="14.00">product</text>
<text text-anchor="start" x="780" y="-512.3" font-family="Times,serif" font-size="14.00">product_version</text>
<text text-anchor="start" x="780" y="-497.3" font-family="Times,serif" font-size="14.00">reqparams</text>
<text text-anchor="start" x="780" y="-482.3" font-family="Times,serif" font-size="14.00">spatial_extent</text>
<text text-anchor="start" x="780" y="-467.3" font-family="Times,serif" font-size="14.00">start_time</text>
<text text-anchor="start" x="780" y="-452.3" font-family="Times,serif" font-size="14.00">tracks</text>
<polyline fill="none" stroke="black" points="772,-444.5 1149,-444.5 "/>
<text text-anchor="start" x="780" y="-429.3" font-family="Times,serif" font-size="14.00">avail_granules(ids, cycles, tracks, s3urls)</text>
<text text-anchor="start" x="780" y="-414.3" font-family="Times,serif" font-size="14.00">download_granules(path, verbose, subset, restart)</text>
<text text-anchor="start" x="780" y="-399.3" font-family="Times,serif" font-size="14.00">earthdata_login(uid, email, s3token)</text>
<text text-anchor="start" x="780" y="-384.3" font-family="Times,serif" font-size="14.00">latest_version()</text>
<text text-anchor="start" x="780" y="-369.3" font-family="Times,serif" font-size="14.00">order_granules(verbose, subset, email)</text>
<text text-anchor="start" x="780" y="-354.3" font-family="Times,serif" font-size="14.00">product_all_info()</text>
<text text-anchor="start" x="780" y="-339.3" font-family="Times,serif" font-size="14.00">product_summary_info()</text>
<text text-anchor="start" x="780" y="-324.3" font-family="Times,serif" font-size="14.00">show_custom_options(dictview)</text>
<text text-anchor="start" x="780" y="-309.3" font-family="Times,serif" font-size="14.00">subsetparams()</text>
<text text-anchor="start" x="780" y="-294.3" font-family="Times,serif" font-size="14.00">visualize_elevation()</text>
<text text-anchor="start" x="780" y="-279.3" font-family="Times,serif" font-size="14.00">visualize_spatial_extent()</text>
</g>
<!-- icepyx.core.granules.Granules&#45;&gt;icepyx.core.query.Query -->
<g id="edge6" class="edge">
<title>icepyx.core.granules.Granules&#45;&gt;icepyx.core.query.Query</title>
<path fill="none" stroke="black" d="M523.21,-167.02C523.74,-194.99 528.68,-228.07 545.5,-253 596.65,-328.81 681.25,-382.45 760.77,-418.92"/>
<polygon fill="black" stroke="black" points="761.01,-419.02 768.13,-417.84 771.96,-423.95 764.84,-425.13 761.01,-419.02"/>
<text text-anchor="middle" x="580.5" y="-241.8" font-family="Times,serif" font-size="14.00" fill="green">_granules</text>
</g>
<!-- icepyx.core.granules.Granules&#45;&gt;icepyx.core.query.Query -->
<g id="edge7" class="edge">
<title>icepyx.core.granules.Granules&#45;&gt;icepyx.core.query.Query</title>
<path fill="none" stroke="black" d="M571.8,-167.05C594.4,-194.22 623.08,-226.61 651.5,-253 685.71,-284.77 724.16,-316.42 762.02,-345.66"/>
<polygon fill="black" stroke="black" points="762.11,-345.73 769.3,-346.21 771.62,-353.04 764.43,-352.56 762.11,-345.73"/>
<text text-anchor="middle" x="686.5" y="-241.8" font-family="Times,serif" font-size="14.00" fill="green">_granules</text>
</g>
<!-- icepyx.core.icesat2data.Icesat2Data -->
<g id="node3" class="node">
<title>icepyx.core.icesat2data.Icesat2Data</title>
<polygon fill="none" stroke="black" points="1588.5,-75 1588.5,-145 1690.5,-145 1690.5,-75 1588.5,-75"/>
<text text-anchor="middle" x="1639.5" y="-129.8" font-family="Times,serif" font-size="14.00">Icesat2Data</text>
<polyline fill="none" stroke="black" points="1588.5,-122 1690.5,-122 "/>
<polyline fill="none" stroke="black" points="1588.5,-98 1690.5,-98 "/>
<text text-anchor="middle" x="1639.5" y="-82.8" font-family="Times,serif" font-size="14.00"> </text>
</g>
<!-- icepyx.core.exceptions.NsidcQueryError -->
<g id="node4" class="node">
<title>icepyx.core.exceptions.NsidcQueryError</title>
<polygon fill="none" stroke="black" points="1708.5,-68 1708.5,-152 1848.5,-152 1848.5,-68 1708.5,-68"/>
<text text-anchor="middle" x="1778.5" y="-136.8" font-family="Times,serif" font-size="14.00" fill="red">NsidcQueryError</text>
<polyline fill="none" stroke="black" points="1708.5,-129 1848.5,-129 "/>
<text text-anchor="start" x="1716.5" y="-113.8" font-family="Times,serif" font-size="14.00" fill="red">errmsg</text>
<text text-anchor="start" x="1716.5" y="-98.8" font-family="Times,serif" font-size="14.00" fill="red">msgtxt : str</text>
<polyline fill="none" stroke="black" points="1708.5,-91 1848.5,-91 "/>
<text text-anchor="middle" x="1778.5" y="-75.8" font-family="Times,serif" font-size="14.00" fill="red"> </text>
</g>
<!-- icepyx.core.exceptions.QueryError -->
<g id="node7" class="node">
<title>icepyx.core.exceptions.QueryError</title>
<polygon fill="none" stroke="black" points="1729,-451 1729,-521 1828,-521 1828,-451 1729,-451"/>
<text text-anchor="middle" x="1778.5" y="-505.8" font-family="Times,serif" font-size="14.00" fill="red">QueryError</text>
<polyline fill="none" stroke="black" points="1729,-498 1828,-498 "/>
<polyline fill="none" stroke="black" points="1729,-474 1828,-474 "/>
<text text-anchor="middle" x="1778.5" y="-458.8" font-family="Times,serif" font-size="14.00" fill="red"> </text>
</g>
<!-- icepyx.core.exceptions.NsidcQueryError&#45;&gt;icepyx.core.exceptions.QueryError -->
<g id="edge1" class="edge">
<title>icepyx.core.exceptions.NsidcQueryError&#45;&gt;icepyx.core.exceptions.QueryError</title>
<path fill="none" stroke="black" d="M1778.5,-152.09C1778.5,-222.99 1778.5,-367.69 1778.5,-440.73"/>
<polygon fill="none" stroke="black" points="1775,-440.97 1778.5,-450.97 1782,-440.97 1775,-440.97"/>
</g>
<!-- icepyx.core.APIformatting.Parameters -->
<g id="node5" class="node">
<title>icepyx.core.APIformatting.Parameters</title>
<polygon fill="none" stroke="black" points="888,-45.5 888,-174.5 1039,-174.5 1039,-45.5 888,-45.5"/>
<text text-anchor="middle" x="963.5" y="-159.3" font-family="Times,serif" font-size="14.00">Parameters</text>
<polyline fill="none" stroke="black" points="888,-151.5 1039,-151.5 "/>
<text text-anchor="start" x="896" y="-136.3" font-family="Times,serif" font-size="14.00">fmted_keys</text>
<text text-anchor="start" x="896" y="-121.3" font-family="Times,serif" font-size="14.00">partype</text>
<text text-anchor="start" x="896" y="-106.3" font-family="Times,serif" font-size="14.00">poss_keys</text>
<polyline fill="none" stroke="black" points="888,-98.5 1039,-98.5 "/>
<text text-anchor="start" x="896" y="-83.3" font-family="Times,serif" font-size="14.00">build_params()</text>
<text text-anchor="start" x="896" y="-68.3" font-family="Times,serif" font-size="14.00">check_req_values()</text>
<text text-anchor="start" x="896" y="-53.3" font-family="Times,serif" font-size="14.00">check_values()</text>
</g>
<!-- icepyx.core.APIformatting.Parameters&#45;&gt;icepyx.core.query.Query -->
<g id="edge2" class="edge">
<title>icepyx.core.APIformatting.Parameters&#45;&gt;icepyx.core.query.Query</title>
<path fill="none" stroke="black" d="M927.54,-174.75C914.63,-192.14 898.48,-209.16 879.5,-220 851.3,-236.1 756,-213.67 734.5,-238 697.51,-279.87 720.16,-325.12 762.88,-365.31"/>
<polygon fill="black" stroke="black" points="763.08,-365.5 770.22,-366.56 771.99,-373.55 764.85,-372.49 763.08,-365.5"/>
<text text-anchor="middle" x="782.5" y="-241.8" font-family="Times,serif" font-size="14.00" fill="green">_CMRparams</text>
</g>
<!-- icepyx.core.APIformatting.Parameters&#45;&gt;icepyx.core.query.Query -->
<g id="edge3" class="edge">
<title>icepyx.core.APIformatting.Parameters&#45;&gt;icepyx.core.query.Query</title>
<path fill="none" stroke="black" d="M919.74,-174.63C907.59,-190.28 893.79,-206.42 879.5,-220 869.31,-229.68 860.02,-225.55 853.5,-238 849.84,-244.98 847.13,-252.11 845.26,-259.34"/>
<polygon fill="black" stroke="black" points="845.24,-259.41 848.01,-266.07 842.93,-271.19 840.16,-264.53 845.24,-259.41"/>
<text text-anchor="middle" x="896" y="-241.8" font-family="Times,serif" font-size="14.00" fill="green">_reqparams</text>
</g>
<!-- icepyx.core.APIformatting.Parameters&#45;&gt;icepyx.core.query.Query -->
<g id="edge4" class="edge">
<title>icepyx.core.APIformatting.Parameters&#45;&gt;icepyx.core.query.Query</title>
<path fill="none" stroke="black" d="M962.35,-174.63C962.03,-194.88 961.7,-217.38 961.5,-238 961.43,-245 961.37,-252.12 961.31,-259.31"/>
<polygon fill="black" stroke="black" points="961.3,-259.46 965.26,-265.49 961.21,-271.46 957.26,-265.43 961.3,-259.46"/>
<text text-anchor="middle" x="1015.5" y="-241.8" font-family="Times,serif" font-size="14.00" fill="green">_subsetparams</text>
</g>
<!-- icepyx.core.APIformatting.Parameters&#45;&gt;icepyx.core.query.Query -->
<g id="edge5" class="edge">
<title>icepyx.core.APIformatting.Parameters&#45;&gt;icepyx.core.query.Query</title>
<path fill="none" stroke="black" d="M1031.07,-174.57C1046.7,-193.34 1061.18,-215.05 1069.5,-238 1072.03,-244.99 1073.83,-252.06 1074.98,-259.17"/>
<polygon fill="black" stroke="black" points="1074.99,-259.25 1079.63,-264.77 1076.32,-271.18 1071.68,-265.66 1074.99,-259.25"/>
<text text-anchor="middle" x="1128.5" y="-241.8" font-family="Times,serif" font-size="14.00" fill="green">_subsetparams</text>
</g>
<!-- icepyx.core.read.Read -->
<g id="node8" class="node">
<title>icepyx.core.read.Read</title>
<polygon fill="none" stroke="black" points="1432.5,-436.5 1432.5,-535.5 1620.5,-535.5 1620.5,-436.5 1432.5,-436.5"/>
<text text-anchor="middle" x="1526.5" y="-520.3" font-family="Times,serif" font-size="14.00">Read</text>
<polyline fill="none" stroke="black" points="1432.5,-512.5 1620.5,-512.5 "/>
<text text-anchor="start" x="1440.5" y="-497.3" font-family="Times,serif" font-size="14.00">data_source : NoneType</text>
<text text-anchor="start" x="1440.5" y="-482.3" font-family="Times,serif" font-size="14.00">is2catalog</text>
<text text-anchor="start" x="1440.5" y="-467.3" font-family="Times,serif" font-size="14.00">vars</text>
<polyline fill="none" stroke="black" points="1432.5,-459.5 1620.5,-459.5 "/>
<text text-anchor="start" x="1440.5" y="-444.3" font-family="Times,serif" font-size="14.00">load()</text>
</g>
<!-- icepyx.core.variables.Variables -->
<g id="node9" class="node">
<title>icepyx.core.variables.Variables</title>
<polygon fill="none" stroke="black" points="1195,-38 1195,-182 1570,-182 1570,-38 1195,-38"/>
<text text-anchor="middle" x="1382.5" y="-166.8" font-family="Times,serif" font-size="14.00">Variables</text>
<polyline fill="none" stroke="black" points="1195,-159 1570,-159 "/>
<text text-anchor="start" x="1203" y="-143.8" font-family="Times,serif" font-size="14.00">path : NoneType</text>
<text text-anchor="start" x="1203" y="-128.8" font-family="Times,serif" font-size="14.00">product : NoneType</text>
<text text-anchor="start" x="1203" y="-113.8" font-family="Times,serif" font-size="14.00">wanted : NoneType, dict</text>
<polyline fill="none" stroke="black" points="1195,-106 1570,-106 "/>
<text text-anchor="start" x="1203" y="-90.8" font-family="Times,serif" font-size="14.00">append(defaults, var_list, beam_list, keyword_list)</text>
<text text-anchor="start" x="1203" y="-75.8" font-family="Times,serif" font-size="14.00">avail(options, internal)</text>
<text text-anchor="start" x="1203" y="-60.8" font-family="Times,serif" font-size="14.00">parse_var_list(varlist, tiered)</text>
<text text-anchor="start" x="1203" y="-45.8" font-family="Times,serif" font-size="14.00">remove(all, var_list, beam_list, keyword_list)</text>
</g>
<!-- icepyx.core.variables.Variables&#45;&gt;icepyx.core.query.Query -->
<g id="edge8" class="edge">
<title>icepyx.core.variables.Variables&#45;&gt;icepyx.core.query.Query</title>
<path fill="none" stroke="black" d="M1290.66,-182.3C1268.4,-200.15 1244.86,-219.49 1223.5,-238 1202.07,-256.57 1180,-276.29 1158.18,-296.18"/>
<polygon fill="black" stroke="black" points="1158.04,-296.31 1156.31,-303.31 1149.18,-304.41 1150.91,-297.41 1158.04,-296.31"/>
<text text-anchor="middle" x="1265.5" y="-241.8" font-family="Times,serif" font-size="14.00" fill="green">_order_vars</text>
</g>
<!-- icepyx.core.variables.Variables&#45;&gt;icepyx.core.query.Query -->
<g id="edge9" class="edge">
<title>icepyx.core.variables.Variables&#45;&gt;icepyx.core.query.Query</title>
<path fill="none" stroke="black" d="M1353.51,-182.22C1341.54,-206.36 1326.08,-232.4 1307.5,-253 1265.33,-299.77 1211.81,-341.52 1159.5,-376.27"/>
<polygon fill="black" stroke="black" points="1159.43,-376.31 1156.61,-382.95 1149.4,-382.9 1152.22,-376.26 1159.43,-376.31"/>
<text text-anchor="middle" x="1361.5" y="-241.8" font-family="Times,serif" font-size="14.00" fill="green">_order_vars</text>
</g>
<!-- icepyx.core.variables.Variables&#45;&gt;icepyx.core.query.Query -->
<g id="edge10" class="edge">
<title>icepyx.core.variables.Variables&#45;&gt;icepyx.core.query.Query</title>
<path fill="none" stroke="black" d="M1413.78,-182.18C1419.55,-206.05 1420.3,-231.93 1407.5,-253 1353.4,-342.03 1252.82,-398.45 1160.75,-433.32"/>
<polygon fill="black" stroke="black" points="1160.53,-433.4 1156.3,-439.24 1149.28,-437.57 1153.52,-431.73 1160.53,-433.4"/>
<text text-anchor="middle" x="1448" y="-241.8" font-family="Times,serif" font-size="14.00" fill="green">_file_vars</text>
</g>
<!-- icepyx.core.variables.Variables&#45;&gt;icepyx.core.read.Read -->
<g id="edge11" class="edge">
<title>icepyx.core.variables.Variables&#45;&gt;icepyx.core.read.Read</title>
<path fill="none" stroke="black" d="M1466.54,-182.11C1481.55,-198.89 1495.32,-217.82 1504.5,-238 1531.41,-297.13 1534.24,-372.37 1532.03,-424.19"/>
<polygon fill="black" stroke="black" points="1532.03,-424.2 1535.71,-430.39 1531.41,-436.18 1527.72,-429.98 1532.03,-424.2"/>
<text text-anchor="middle" x="1549" y="-241.8" font-family="Times,serif" font-size="14.00" fill="green">_read_vars</text>
</g>
<!-- icepyx.core.visualization.Visualize -->
<g id="node10" class="node">
<title>icepyx.core.visualization.Visualize</title>
<polygon fill="none" stroke="black" points="1867,-0.5 1867,-219.5 2118,-219.5 2118,-0.5 1867,-0.5"/>
<text text-anchor="middle" x="1992.5" y="-204.3" font-family="Times,serif" font-size="14.00">Visualize</text>
<polyline fill="none" stroke="black" points="1867,-196.5 2118,-196.5 "/>
<text text-anchor="start" x="1875" y="-181.3" font-family="Times,serif" font-size="14.00">bbox : list</text>
<text text-anchor="start" x="1875" y="-166.3" font-family="Times,serif" font-size="14.00">cycles : NoneType</text>
<text text-anchor="start" x="1875" y="-151.3" font-family="Times,serif" font-size="14.00">date_range : NoneType</text>
<text text-anchor="start" x="1875" y="-136.3" font-family="Times,serif" font-size="14.00">product : str, NoneType</text>
<text text-anchor="start" x="1875" y="-121.3" font-family="Times,serif" font-size="14.00">tracks : NoneType</text>
<polyline fill="none" stroke="black" points="1867,-113.5 2118,-113.5 "/>
<text text-anchor="start" x="1875" y="-98.3" font-family="Times,serif" font-size="14.00">generate_OA_parameters(): list</text>
<text text-anchor="start" x="1875" y="-83.3" font-family="Times,serif" font-size="14.00">grid_bbox(binsize): list</text>
<text text-anchor="start" x="1875" y="-68.3" font-family="Times,serif" font-size="14.00">make_request(base_url, payload)</text>
<text text-anchor="start" x="1875" y="-53.3" font-family="Times,serif" font-size="14.00">parallel_request_OA(): </text>
<text text-anchor="start" x="1875" y="-38.3" font-family="Times,serif" font-size="14.00">query_icesat2_filelist(): tuple</text>
<text text-anchor="start" x="1875" y="-23.3" font-family="Times,serif" font-size="14.00">request_OA_data(paras): </text>
<text text-anchor="start" x="1875" y="-8.3" font-family="Times,serif" font-size="14.00">viz_elevation(): </text>
</g>
</g>
</svg>
