<?xml version="1.0" encoding="UTF-8" standalone="no"?>
<!DOCTYPE svg PUBLIC "-//W3C//DTD SVG 1.1//EN"
 "http://www.w3.org/Graphics/SVG/1.1/DTD/svg11.dtd">
<!-- Generated by graphviz version 2.43.0 (0)
 -->
<!-- Title: classes_user_uml Pages: 1 -->
<svg width="2128pt" height="709pt"
 viewBox="0.00 0.00 2128.00 709.00" xmlns="http://www.w3.org/2000/svg" xmlns:xlink="http://www.w3.org/1999/xlink">
<g id="graph0" class="graph" transform="scale(1 1) rotate(0) translate(4 705)">
<title>classes_user_uml</title>
<polygon fill="white" stroke="transparent" points="-4,4 -4,-705 2124,-705 2124,4 -4,4"/>
<!-- icepyx.core.Earthdata.Earthdata -->
<g id="node1" class="node">
<title>icepyx.core.Earthdata.Earthdata</title>
<polygon fill="none" stroke="black" points="0,-38 0,-182 169,-182 169,-38 0,-38"/>
<text text-anchor="middle" x="84.5" y="-166.8" font-family="Times,serif" font-size="14.00">Earthdata</text>
<polyline fill="none" stroke="black" points="0,-159 169,-159 "/>
<text text-anchor="start" x="8" y="-143.8" font-family="Times,serif" font-size="14.00">capability_url</text>
<text text-anchor="start" x="8" y="-128.8" font-family="Times,serif" font-size="14.00">email</text>
<text text-anchor="start" x="8" y="-113.8" font-family="Times,serif" font-size="14.00">netrc : NoneType</text>
<text text-anchor="start" x="8" y="-98.8" font-family="Times,serif" font-size="14.00">pswd : NoneType, str</text>
<text text-anchor="start" x="8" y="-83.8" font-family="Times,serif" font-size="14.00">session : Session</text>
<text text-anchor="start" x="8" y="-68.8" font-family="Times,serif" font-size="14.00">uid</text>
<polyline fill="none" stroke="black" points="0,-61 169,-61 "/>
<text text-anchor="start" x="8" y="-45.8" font-family="Times,serif" font-size="14.00">login()</text>
</g>
<!-- icepyx.core.granules.Granules -->
<g id="node2" class="node">
<title>icepyx.core.granules.Granules</title>
<polygon fill="none" stroke="black" points="186.5,-53 186.5,-167 872.5,-167 872.5,-53 186.5,-53"/>
<text text-anchor="middle" x="529.5" y="-151.8" font-family="Times,serif" font-size="14.00">Granules</text>
<polyline fill="none" stroke="black" points="186.5,-144 872.5,-144 "/>
<text text-anchor="start" x="194.5" y="-128.8" font-family="Times,serif" font-size="14.00">avail : list</text>
<text text-anchor="start" x="194.5" y="-113.8" font-family="Times,serif" font-size="14.00">orderIDs : list</text>
<polyline fill="none" stroke="black" points="186.5,-106 872.5,-106 "/>
<text text-anchor="start" x="194.5" y="-90.8" font-family="Times,serif" font-size="14.00">download(verbose, path, session, restart)</text>
<text text-anchor="start" x="194.5" y="-75.8" font-family="Times,serif" font-size="14.00">get_avail(CMRparams, reqparams)</text>
<text text-anchor="start" x="194.5" y="-60.8" font-family="Times,serif" font-size="14.00">place_order(CMRparams, reqparams, subsetparams, verbose, subset, session, geom_filepath)</text>
</g>
<!-- icepyx.core.query.Query -->
<g id="node6" class="node">
<title>icepyx.core.query.Query</title>
<polygon fill="none" stroke="black" points="774,-271.5 774,-700.5 1151,-700.5 1151,-271.5 774,-271.5"/>
<text text-anchor="middle" x="962.5" y="-685.3" font-family="Times,serif" font-size="14.00">Query</text>
<polyline fill="none" stroke="black" points="774,-677.5 1151,-677.5 "/>
<text text-anchor="start" x="782" y="-662.3" font-family="Times,serif" font-size="14.00">CMRparams</text>
<text text-anchor="start" x="782" y="-647.3" font-family="Times,serif" font-size="14.00">cycles</text>
<text text-anchor="start" x="782" y="-632.3" font-family="Times,serif" font-size="14.00">dataset</text>
<text text-anchor="start" x="782" y="-617.3" font-family="Times,serif" font-size="14.00">dates</text>
<text text-anchor="start" x="782" y="-602.3" font-family="Times,serif" font-size="14.00">end_time</text>
<text text-anchor="start" x="782" y="-587.3" font-family="Times,serif" font-size="14.00">extent_type : str</text>
<text text-anchor="start" x="782" y="-572.3" font-family="Times,serif" font-size="14.00">file_vars</text>
<text text-anchor="start" x="782" y="-557.3" font-family="Times,serif" font-size="14.00">granules</text>
<text text-anchor="start" x="782" y="-542.3" font-family="Times,serif" font-size="14.00">order_vars</text>
<text text-anchor="start" x="782" y="-527.3" font-family="Times,serif" font-size="14.00">product</text>
<text text-anchor="start" x="782" y="-512.3" font-family="Times,serif" font-size="14.00">product_version</text>
<text text-anchor="start" x="782" y="-497.3" font-family="Times,serif" font-size="14.00">reqparams</text>
<text text-anchor="start" x="782" y="-482.3" font-family="Times,serif" font-size="14.00">spatial_extent</text>
<text text-anchor="start" x="782" y="-467.3" font-family="Times,serif" font-size="14.00">start_time</text>
<text text-anchor="start" x="782" y="-452.3" font-family="Times,serif" font-size="14.00">tracks</text>
<polyline fill="none" stroke="black" points="774,-444.5 1151,-444.5 "/>
<text text-anchor="start" x="782" y="-429.3" font-family="Times,serif" font-size="14.00">avail_granules(ids, cycles, tracks, s3urls)</text>
<text text-anchor="start" x="782" y="-414.3" font-family="Times,serif" font-size="14.00">download_granules(path, verbose, subset, restart)</text>
<text text-anchor="start" x="782" y="-399.3" font-family="Times,serif" font-size="14.00">earthdata_login(uid, email, s3token)</text>
<text text-anchor="start" x="782" y="-384.3" font-family="Times,serif" font-size="14.00">latest_version()</text>
<text text-anchor="start" x="782" y="-369.3" font-family="Times,serif" font-size="14.00">order_granules(verbose, subset, email)</text>
<text text-anchor="start" x="782" y="-354.3" font-family="Times,serif" font-size="14.00">product_all_info()</text>
<text text-anchor="start" x="782" y="-339.3" font-family="Times,serif" font-size="14.00">product_summary_info()</text>
<text text-anchor="start" x="782" y="-324.3" font-family="Times,serif" font-size="14.00">show_custom_options(dictview)</text>
<text text-anchor="start" x="782" y="-309.3" font-family="Times,serif" font-size="14.00">subsetparams()</text>
<text text-anchor="start" x="782" y="-294.3" font-family="Times,serif" font-size="14.00">visualize_elevation()</text>
<text text-anchor="start" x="782" y="-279.3" font-family="Times,serif" font-size="14.00">visualize_spatial_extent()</text>
</g>
<!-- icepyx.core.granules.Granules&#45;&gt;icepyx.core.query.Query -->
<g id="edge6" class="edge">
<title>icepyx.core.granules.Granules&#45;&gt;icepyx.core.query.Query</title>
<path fill="none" stroke="black" d="M525.21,-167.02C525.74,-194.99 530.68,-228.07 547.5,-253 598.65,-328.81 683.25,-382.45 762.77,-418.92"/>
<polygon fill="black" stroke="black" points="763.01,-419.02 770.13,-417.84 773.96,-423.95 766.84,-425.13 763.01,-419.02"/>
<text text-anchor="middle" x="582.5" y="-241.8" font-family="Times,serif" font-size="14.00" fill="green">_granules</text>
</g>
<!-- icepyx.core.granules.Granules&#45;&gt;icepyx.core.query.Query -->
<g id="edge7" class="edge">
<title>icepyx.core.granules.Granules&#45;&gt;icepyx.core.query.Query</title>
<path fill="none" stroke="black" d="M573.8,-167.05C596.4,-194.22 625.08,-226.61 653.5,-253 687.71,-284.77 726.16,-316.42 764.02,-345.66"/>
<polygon fill="black" stroke="black" points="764.11,-345.73 771.3,-346.21 773.62,-353.04 766.43,-352.56 764.11,-345.73"/>
<text text-anchor="middle" x="688.5" y="-241.8" font-family="Times,serif" font-size="14.00" fill="green">_granules</text>
</g>
<!-- icepyx.core.icesat2data.Icesat2Data -->
<g id="node3" class="node">
<title>icepyx.core.icesat2data.Icesat2Data</title>
<polygon fill="none" stroke="black" points="1590.5,-75 1590.5,-145 1692.5,-145 1692.5,-75 1590.5,-75"/>
<text text-anchor="middle" x="1641.5" y="-129.8" font-family="Times,serif" font-size="14.00">Icesat2Data</text>
<polyline fill="none" stroke="black" points="1590.5,-122 1692.5,-122 "/>
<polyline fill="none" stroke="black" points="1590.5,-98 1692.5,-98 "/>
<text text-anchor="middle" x="1641.5" y="-82.8" font-family="Times,serif" font-size="14.00"> </text>
</g>
<!-- icepyx.core.exceptions.NsidcQueryError -->
<g id="node4" class="node">
<title>icepyx.core.exceptions.NsidcQueryError</title>
<polygon fill="none" stroke="black" points="1710.5,-68 1710.5,-152 1850.5,-152 1850.5,-68 1710.5,-68"/>
<text text-anchor="middle" x="1780.5" y="-136.8" font-family="Times,serif" font-size="14.00" fill="red">NsidcQueryError</text>
<polyline fill="none" stroke="black" points="1710.5,-129 1850.5,-129 "/>
<text text-anchor="start" x="1718.5" y="-113.8" font-family="Times,serif" font-size="14.00" fill="red">errmsg</text>
<text text-anchor="start" x="1718.5" y="-98.8" font-family="Times,serif" font-size="14.00" fill="red">msgtxt : str</text>
<polyline fill="none" stroke="black" points="1710.5,-91 1850.5,-91 "/>
<text text-anchor="middle" x="1780.5" y="-75.8" font-family="Times,serif" font-size="14.00" fill="red"> </text>
</g>
<!-- icepyx.core.exceptions.QueryError -->
<g id="node7" class="node">
<title>icepyx.core.exceptions.QueryError</title>
<polygon fill="none" stroke="black" points="1731,-451 1731,-521 1830,-521 1830,-451 1731,-451"/>
<text text-anchor="middle" x="1780.5" y="-505.8" font-family="Times,serif" font-size="14.00" fill="red">QueryError</text>
<polyline fill="none" stroke="black" points="1731,-498 1830,-498 "/>
<polyline fill="none" stroke="black" points="1731,-474 1830,-474 "/>
<text text-anchor="middle" x="1780.5" y="-458.8" font-family="Times,serif" font-size="14.00" fill="red"> </text>
</g>
<!-- icepyx.core.exceptions.NsidcQueryError&#45;&gt;icepyx.core.exceptions.QueryError -->
<g id="edge1" class="edge">
<title>icepyx.core.exceptions.NsidcQueryError&#45;&gt;icepyx.core.exceptions.QueryError</title>
<path fill="none" stroke="black" d="M1780.5,-152.09C1780.5,-222.99 1780.5,-367.69 1780.5,-440.73"/>
<polygon fill="none" stroke="black" points="1777,-440.97 1780.5,-450.97 1784,-440.97 1777,-440.97"/>
</g>
<!-- icepyx.core.APIformatting.Parameters -->
<g id="node5" class="node">
<title>icepyx.core.APIformatting.Parameters</title>
<polygon fill="none" stroke="black" points="890,-45.5 890,-174.5 1041,-174.5 1041,-45.5 890,-45.5"/>
<text text-anchor="middle" x="965.5" y="-159.3" font-family="Times,serif" font-size="14.00">Parameters</text>
<polyline fill="none" stroke="black" points="890,-151.5 1041,-151.5 "/>
<text text-anchor="start" x="898" y="-136.3" font-family="Times,serif" font-size="14.00">fmted_keys</text>
<text text-anchor="start" x="898" y="-121.3" font-family="Times,serif" font-size="14.00">partype</text>
<text text-anchor="start" x="898" y="-106.3" font-family="Times,serif" font-size="14.00">poss_keys</text>
<polyline fill="none" stroke="black" points="890,-98.5 1041,-98.5 "/>
<text text-anchor="start" x="898" y="-83.3" font-family="Times,serif" font-size="14.00">build_params()</text>
<text text-anchor="start" x="898" y="-68.3" font-family="Times,serif" font-size="14.00">check_req_values()</text>
<text text-anchor="start" x="898" y="-53.3" font-family="Times,serif" font-size="14.00">check_values()</text>
</g>
<!-- icepyx.core.APIformatting.Parameters&#45;&gt;icepyx.core.query.Query -->
<g id="edge2" class="edge">
<title>icepyx.core.APIformatting.Parameters&#45;&gt;icepyx.core.query.Query</title>
<path fill="none" stroke="black" d="M929.54,-174.75C916.63,-192.14 900.48,-209.16 881.5,-220 853.3,-236.1 758,-213.67 736.5,-238 699.51,-279.87 722.16,-325.12 764.88,-365.31"/>
<polygon fill="black" stroke="black" points="765.08,-365.5 772.22,-366.56 773.99,-373.55 766.85,-372.49 765.08,-365.5"/>
<text text-anchor="middle" x="784.5" y="-241.8" font-family="Times,serif" font-size="14.00" fill="green">_CMRparams</text>
</g>
<!-- icepyx.core.APIformatting.Parameters&#45;&gt;icepyx.core.query.Query -->
<g id="edge3" class="edge">
<title>icepyx.core.APIformatting.Parameters&#45;&gt;icepyx.core.query.Query</title>
<path fill="none" stroke="black" d="M921.74,-174.63C909.59,-190.28 895.79,-206.42 881.5,-220 871.31,-229.68 862.02,-225.55 855.5,-238 851.84,-244.98 849.13,-252.11 847.26,-259.34"/>
<polygon fill="black" stroke="black" points="847.24,-259.41 850.01,-266.07 844.93,-271.19 842.16,-264.53 847.24,-259.41"/>
<text text-anchor="middle" x="898" y="-241.8" font-family="Times,serif" font-size="14.00" fill="green">_reqparams</text>
</g>
<!-- icepyx.core.APIformatting.Parameters&#45;&gt;icepyx.core.query.Query -->
<g id="edge4" class="edge">
<title>icepyx.core.APIformatting.Parameters&#45;&gt;icepyx.core.query.Query</title>
<path fill="none" stroke="black" d="M964.35,-174.63C964.03,-194.88 963.7,-217.38 963.5,-238 963.43,-245 963.37,-252.12 963.31,-259.31"/>
<polygon fill="black" stroke="black" points="963.3,-259.46 967.26,-265.49 963.21,-271.46 959.26,-265.43 963.3,-259.46"/>
<text text-anchor="middle" x="1017.5" y="-241.8" font-family="Times,serif" font-size="14.00" fill="green">_subsetparams</text>
</g>
<!-- icepyx.core.APIformatting.Parameters&#45;&gt;icepyx.core.query.Query -->
<g id="edge5" class="edge">
<title>icepyx.core.APIformatting.Parameters&#45;&gt;icepyx.core.query.Query</title>
<path fill="none" stroke="black" d="M1033.07,-174.57C1048.7,-193.34 1063.18,-215.05 1071.5,-238 1074.03,-244.99 1075.83,-252.06 1076.98,-259.17"/>
<polygon fill="black" stroke="black" points="1076.99,-259.25 1081.63,-264.77 1078.32,-271.18 1073.68,-265.66 1076.99,-259.25"/>
<text text-anchor="middle" x="1130.5" y="-241.8" font-family="Times,serif" font-size="14.00" fill="green">_subsetparams</text>
</g>
<!-- icepyx.core.read.Read -->
<g id="node8" class="node">
<title>icepyx.core.read.Read</title>
<polygon fill="none" stroke="black" points="1434.5,-436.5 1434.5,-535.5 1622.5,-535.5 1622.5,-436.5 1434.5,-436.5"/>
<text text-anchor="middle" x="1528.5" y="-520.3" font-family="Times,serif" font-size="14.00">Read</text>
<polyline fill="none" stroke="black" points="1434.5,-512.5 1622.5,-512.5 "/>
<text text-anchor="start" x="1442.5" y="-497.3" font-family="Times,serif" font-size="14.00">data_source : NoneType</text>
<text text-anchor="start" x="1442.5" y="-482.3" font-family="Times,serif" font-size="14.00">is2catalog</text>
<text text-anchor="start" x="1442.5" y="-467.3" font-family="Times,serif" font-size="14.00">vars</text>
<polyline fill="none" stroke="black" points="1434.5,-459.5 1622.5,-459.5 "/>
<text text-anchor="start" x="1442.5" y="-444.3" font-family="Times,serif" font-size="14.00">load()</text>
</g>
<!-- icepyx.core.variables.Variables -->
<g id="node9" class="node">
<title>icepyx.core.variables.Variables</title>
<polygon fill="none" stroke="black" points="1197,-38 1197,-182 1572,-182 1572,-38 1197,-38"/>
<text text-anchor="middle" x="1384.5" y="-166.8" font-family="Times,serif" font-size="14.00">Variables</text>
<polyline fill="none" stroke="black" points="1197,-159 1572,-159 "/>
<text text-anchor="start" x="1205" y="-143.8" font-family="Times,serif" font-size="14.00">path : NoneType</text>
<text text-anchor="start" x="1205" y="-128.8" font-family="Times,serif" font-size="14.00">product : NoneType</text>
<text text-anchor="start" x="1205" y="-113.8" font-family="Times,serif" font-size="14.00">wanted : NoneType, dict</text>
<polyline fill="none" stroke="black" points="1197,-106 1572,-106 "/>
<text text-anchor="start" x="1205" y="-90.8" font-family="Times,serif" font-size="14.00">append(defaults, var_list, beam_list, keyword_list)</text>
<text text-anchor="start" x="1205" y="-75.8" font-family="Times,serif" font-size="14.00">avail(options, internal)</text>
<text text-anchor="start" x="1205" y="-60.8" font-family="Times,serif" font-size="14.00">parse_var_list(varlist, tiered)</text>
<text text-anchor="start" x="1205" y="-45.8" font-family="Times,serif" font-size="14.00">remove(all, var_list, beam_list, keyword_list)</text>
</g>
<!-- icepyx.core.variables.Variables&#45;&gt;icepyx.core.query.Query -->
<g id="edge8" class="edge">
<title>icepyx.core.variables.Variables&#45;&gt;icepyx.core.query.Query</title>
<path fill="none" stroke="black" d="M1292.66,-182.3C1270.4,-200.15 1246.86,-219.49 1225.5,-238 1204.07,-256.57 1182,-276.29 1160.18,-296.18"/>
<polygon fill="black" stroke="black" points="1160.04,-296.31 1158.31,-303.31 1151.18,-304.41 1152.91,-297.41 1160.04,-296.31"/>
<text text-anchor="middle" x="1267.5" y="-241.8" font-family="Times,serif" font-size="14.00" fill="green">_order_vars</text>
</g>
<!-- icepyx.core.variables.Variables&#45;&gt;icepyx.core.query.Query -->
<g id="edge9" class="edge">
<title>icepyx.core.variables.Variables&#45;&gt;icepyx.core.query.Query</title>
<path fill="none" stroke="black" d="M1355.51,-182.22C1343.54,-206.36 1328.08,-232.4 1309.5,-253 1267.33,-299.77 1213.81,-341.52 1161.5,-376.27"/>
<polygon fill="black" stroke="black" points="1161.43,-376.31 1158.61,-382.95 1151.4,-382.9 1154.22,-376.26 1161.43,-376.31"/>
<text text-anchor="middle" x="1363.5" y="-241.8" font-family="Times,serif" font-size="14.00" fill="green">_order_vars</text>
</g>
<!-- icepyx.core.variables.Variables&#45;&gt;icepyx.core.query.Query -->
<g id="edge10" class="edge">
<title>icepyx.core.variables.Variables&#45;&gt;icepyx.core.query.Query</title>
<path fill="none" stroke="black" d="M1415.78,-182.18C1421.55,-206.05 1422.3,-231.93 1409.5,-253 1355.4,-342.03 1254.82,-398.45 1162.75,-433.32"/>
<polygon fill="black" stroke="black" points="1162.53,-433.4 1158.3,-439.24 1151.28,-437.57 1155.52,-431.73 1162.53,-433.4"/>
<text text-anchor="middle" x="1450" y="-241.8" font-family="Times,serif" font-size="14.00" fill="green">_file_vars</text>
</g>
<!-- icepyx.core.variables.Variables&#45;&gt;icepyx.core.read.Read -->
<g id="edge11" class="edge">
<title>icepyx.core.variables.Variables&#45;&gt;icepyx.core.read.Read</title>
<path fill="none" stroke="black" d="M1468.54,-182.11C1483.55,-198.89 1497.32,-217.82 1506.5,-238 1533.41,-297.13 1536.24,-372.37 1534.03,-424.19"/>
<polygon fill="black" stroke="black" points="1534.03,-424.2 1537.71,-430.39 1533.41,-436.18 1529.72,-429.98 1534.03,-424.2"/>
<text text-anchor="middle" x="1551" y="-241.8" font-family="Times,serif" font-size="14.00" fill="green">_read_vars</text>
</g>
<!-- icepyx.core.visualization.Visualize -->
<g id="node10" class="node">
<title>icepyx.core.visualization.Visualize</title>
<polygon fill="none" stroke="black" points="1869,-0.5 1869,-219.5 2120,-219.5 2120,-0.5 1869,-0.5"/>
<text text-anchor="middle" x="1994.5" y="-204.3" font-family="Times,serif" font-size="14.00">Visualize</text>
<polyline fill="none" stroke="black" points="1869,-196.5 2120,-196.5 "/>
<text text-anchor="start" x="1877" y="-181.3" font-family="Times,serif" font-size="14.00">bbox : list</text>
<text text-anchor="start" x="1877" y="-166.3" font-family="Times,serif" font-size="14.00">cycles : NoneType</text>
<text text-anchor="start" x="1877" y="-151.3" font-family="Times,serif" font-size="14.00">date_range : NoneType</text>
<text text-anchor="start" x="1877" y="-136.3" font-family="Times,serif" font-size="14.00">product : str, NoneType</text>
<text text-anchor="start" x="1877" y="-121.3" font-family="Times,serif" font-size="14.00">tracks : NoneType</text>
<polyline fill="none" stroke="black" points="1869,-113.5 2120,-113.5 "/>
<text text-anchor="start" x="1877" y="-98.3" font-family="Times,serif" font-size="14.00">generate_OA_parameters(): list</text>
<text text-anchor="start" x="1877" y="-83.3" font-family="Times,serif" font-size="14.00">grid_bbox(binsize): list</text>
<text text-anchor="start" x="1877" y="-68.3" font-family="Times,serif" font-size="14.00">make_request(base_url, payload)</text>
<text text-anchor="start" x="1877" y="-53.3" font-family="Times,serif" font-size="14.00">parallel_request_OA(): </text>
<text text-anchor="start" x="1877" y="-38.3" font-family="Times,serif" font-size="14.00">query_icesat2_filelist(): tuple</text>
<text text-anchor="start" x="1877" y="-23.3" font-family="Times,serif" font-size="14.00">request_OA_data(paras): </text>
<text text-anchor="start" x="1877" y="-8.3" font-family="Times,serif" font-size="14.00">viz_elevation(): </text>
</g>
</g>
</svg>
