<?xml version="1.0" encoding="UTF-8" standalone="no"?>
<!DOCTYPE svg PUBLIC "-//W3C//DTD SVG 1.1//EN"
 "http://www.w3.org/Graphics/SVG/1.1/DTD/svg11.dtd">
<!-- Generated by graphviz version 2.43.0 (0)
 -->
<!-- Title: classes_user_uml Pages: 1 -->
<svg width="2431pt" height="800pt"
 viewBox="0.00 0.00 2431.00 800.00" xmlns="http://www.w3.org/2000/svg" xmlns:xlink="http://www.w3.org/1999/xlink">
<g id="graph0" class="graph" transform="scale(1 1) rotate(0) translate(4 796)">
<title>classes_user_uml</title>
<polygon fill="white" stroke="transparent" points="-4,4 -4,-796 2427,-796 2427,4 -4,4"/>
<!-- icepyx.core.auth.AuthenticationError -->
<g id="node1" class="node">
<title>icepyx.core.auth.AuthenticationError</title>
<polygon fill="none" stroke="black" points="0,-74.6 0,-145.4 161,-145.4 161,-74.6 0,-74.6"/>
<text text-anchor="start" x="8" y="-130.2" font-family="Times,serif" font-size="14.00" fill="red">AuthenticationError</text>
<polyline fill="none" stroke="black" points="0,-122.4 161,-122.4 "/>
<polyline fill="none" stroke="black" points="0,-97.6 161,-97.6 "/>
<text text-anchor="start" x="78" y="-82.4" font-family="Times,serif" font-size="14.00" fill="red"> </text>
</g>
<!-- icepyx.core.exceptions.DeprecationError -->
<g id="node2" class="node">
<title>icepyx.core.exceptions.DeprecationError</title>
<polygon fill="none" stroke="black" points="179,-74.6 179,-145.4 322,-145.4 322,-74.6 179,-74.6"/>
<text text-anchor="start" x="187" y="-130.2" font-family="Times,serif" font-size="14.00" fill="red">DeprecationError</text>
<polyline fill="none" stroke="black" points="179,-122.4 322,-122.4 "/>
<polyline fill="none" stroke="black" points="179,-97.6 322,-97.6 "/>
<text text-anchor="start" x="248" y="-82.4" font-family="Times,serif" font-size="14.00" fill="red"> </text>
</g>
<!-- icepyx.core.auth.EarthdataAuthMixin -->
<g id="node3" class="node">
<title>icepyx.core.auth.EarthdataAuthMixin</title>
<polygon fill="none" stroke="black" points="1141,-670 1141,-769 1462,-769 1462,-670 1141,-670"/>
<text text-anchor="start" x="1228" y="-753.8" font-family="Times,serif" font-size="14.00">EarthdataAuthMixin</text>
<polyline fill="none" stroke="black" points="1141,-746 1462,-746 "/>
<text text-anchor="start" x="1232" y="-730.8" font-family="Times,serif" font-size="14.00">auth</text>
<text text-anchor="start" x="1232" y="-715.8" font-family="Times,serif" font-size="14.00">s3login_credentials</text>
<text text-anchor="start" x="1232" y="-700.8" font-family="Times,serif" font-size="14.00">session</text>
<polyline fill="none" stroke="black" points="1141,-693 1462,-693 "/>
<text text-anchor="start" x="1149" y="-677.8" font-family="Times,serif" font-size="14.00">earthdata_login(uid, email, s3token): None</text>
</g>
<!-- icepyx.core.query.GenQuery -->
<g id="node4" class="node">
<title>icepyx.core.query.GenQuery</title>
<polygon fill="none" stroke="black" points="1712,-647.5 1712,-791.5 1829,-791.5 1829,-647.5 1712,-647.5"/>
<text text-anchor="start" x="1734" y="-776.3" font-family="Times,serif" font-size="14.00">GenQuery</text>
<polyline fill="none" stroke="black" points="1712,-768.5 1829,-768.5 "/>
<text text-anchor="start" x="1720" y="-753.3" font-family="Times,serif" font-size="14.00">dates</text>
<text text-anchor="start" x="1720" y="-738.3" font-family="Times,serif" font-size="14.00">end_time</text>
<text text-anchor="start" x="1720" y="-723.3" font-family="Times,serif" font-size="14.00">spatial</text>
<text text-anchor="start" x="1720" y="-708.3" font-family="Times,serif" font-size="14.00">spatial_extent</text>
<text text-anchor="start" x="1720" y="-693.3" font-family="Times,serif" font-size="14.00">start_time</text>
<text text-anchor="start" x="1720" y="-678.3" font-family="Times,serif" font-size="14.00">temporal</text>
<polyline fill="none" stroke="black" points="1712,-670.5 1829,-670.5 "/>
<text text-anchor="start" x="1768" y="-655.3" font-family="Times,serif" font-size="14.00"> </text>
</g>
<!-- icepyx.core.granules.Granules -->
<g id="node5" class="node">
<title>icepyx.core.granules.Granules</title>
<polygon fill="none" stroke="black" points="340,-53 340,-167 965,-167 965,-53 340,-53"/>
<text text-anchor="start" x="620" y="-151.8" font-family="Times,serif" font-size="14.00">Granules</text>
<polyline fill="none" stroke="black" points="340,-144 965,-144 "/>
<text text-anchor="start" x="602.5" y="-128.8" font-family="Times,serif" font-size="14.00">avail : list</text>
<text text-anchor="start" x="602.5" y="-113.8" font-family="Times,serif" font-size="14.00">orderIDs : list</text>
<polyline fill="none" stroke="black" points="340,-106 965,-106 "/>
<text text-anchor="start" x="348" y="-90.8" font-family="Times,serif" font-size="14.00">download(verbose, path, restart)</text>
<text text-anchor="start" x="348" y="-75.8" font-family="Times,serif" font-size="14.00">get_avail(CMRparams, reqparams, cloud)</text>
<text text-anchor="start" x="348" y="-60.8" font-family="Times,serif" font-size="14.00">place_order(CMRparams, reqparams, subsetparams, verbose, subset, geom_filepath)</text>
</g>
<!-- icepyx.core.granules.Granules&#45;&gt;icepyx.core.auth.EarthdataAuthMixin -->
<g id="edge2" class="edge">
<title>icepyx.core.granules.Granules&#45;&gt;icepyx.core.auth.EarthdataAuthMixin</title>
<path fill="none" stroke="black" d="M666.05,-167.2C673.78,-194.1 684.89,-226.22 699.5,-253 793.36,-425.01 817.7,-481.2 976.5,-596 1022.6,-629.33 1078.85,-654.73 1131.52,-673.51"/>
<polygon fill="none" stroke="black" points="1130.37,-676.82 1140.97,-676.83 1132.69,-670.21 1130.37,-676.82"/>
</g>
<!-- icepyx.core.query.Query -->
<g id="node9" class="node">
<title>icepyx.core.query.Query</title>
<polygon fill="none" stroke="black" points="986,-271.5 986,-595.5 1363,-595.5 1363,-271.5 986,-271.5"/>
<text text-anchor="start" x="1152.5" y="-580.3" font-family="Times,serif" font-size="14.00">Query</text>
<polyline fill="none" stroke="black" points="986,-572.5 1363,-572.5 "/>
<text text-anchor="start" x="1117" y="-557.3" font-family="Times,serif" font-size="14.00">CMRparams</text>
<text text-anchor="start" x="1117" y="-542.3" font-family="Times,serif" font-size="14.00">cycles</text>
<text text-anchor="start" x="1117" y="-527.3" font-family="Times,serif" font-size="14.00">dataset</text>
<text text-anchor="start" x="1117" y="-512.3" font-family="Times,serif" font-size="14.00">granules</text>
<text text-anchor="start" x="1117" y="-497.3" font-family="Times,serif" font-size="14.00">order_vars</text>
<text text-anchor="start" x="1117" y="-482.3" font-family="Times,serif" font-size="14.00">product</text>
<text text-anchor="start" x="1117" y="-467.3" font-family="Times,serif" font-size="14.00">product_version</text>
<text text-anchor="start" x="1117" y="-452.3" font-family="Times,serif" font-size="14.00">reqparams</text>
<text text-anchor="start" x="1117" y="-437.3" font-family="Times,serif" font-size="14.00">tracks</text>
<polyline fill="none" stroke="black" points="986,-429.5 1363,-429.5 "/>
<text text-anchor="start" x="994" y="-414.3" font-family="Times,serif" font-size="14.00">avail_granules(ids, cycles, tracks, cloud)</text>
<text text-anchor="start" x="994" y="-399.3" font-family="Times,serif" font-size="14.00">download_granules(path, verbose, subset, restart)</text>
<text text-anchor="start" x="994" y="-384.3" font-family="Times,serif" font-size="14.00">latest_version()</text>
<text text-anchor="start" x="994" y="-369.3" font-family="Times,serif" font-size="14.00">order_granules(verbose, subset, email)</text>
<text text-anchor="start" x="994" y="-354.3" font-family="Times,serif" font-size="14.00">product_all_info()</text>
<text text-anchor="start" x="994" y="-339.3" font-family="Times,serif" font-size="14.00">product_summary_info()</text>
<text text-anchor="start" x="994" y="-324.3" font-family="Times,serif" font-size="14.00">show_custom_options(dictview)</text>
<text text-anchor="start" x="994" y="-309.3" font-family="Times,serif" font-size="14.00">subsetparams()</text>
<text text-anchor="start" x="994" y="-294.3" font-family="Times,serif" font-size="14.00">visualize_elevation()</text>
<text text-anchor="start" x="994" y="-279.3" font-family="Times,serif" font-size="14.00">visualize_spatial_extent()</text>
</g>
<!-- icepyx.core.granules.Granules&#45;&gt;icepyx.core.query.Query -->
<g id="edge11" class="edge">
<title>icepyx.core.granules.Granules&#45;&gt;icepyx.core.query.Query</title>
<path fill="none" stroke="black" d="M665.88,-167.24C675.28,-196.12 690.55,-229.98 714.5,-253 785.55,-321.29 885.56,-364.45 974.18,-391.27"/>
<polygon fill="black" stroke="black" points="974.26,-391.29 981.15,-389.16 985.76,-394.7 978.87,-396.83 974.26,-391.29"/>
<text text-anchor="middle" x="749.5" y="-241.8" font-family="Times,serif" font-size="14.00" fill="green">_granules</text>
</g>
<!-- icepyx.core.icesat2data.Icesat2Data -->
<g id="node6" class="node">
<title>icepyx.core.icesat2data.Icesat2Data</title>
<polygon fill="none" stroke="black" points="1759.5,-74.6 1759.5,-145.4 1861.5,-145.4 1861.5,-74.6 1759.5,-74.6"/>
<text text-anchor="start" x="1767.5" y="-130.2" font-family="Times,serif" font-size="14.00">Icesat2Data</text>
<polyline fill="none" stroke="black" points="1759.5,-122.4 1861.5,-122.4 "/>
<polyline fill="none" stroke="black" points="1759.5,-97.6 1861.5,-97.6 "/>
<text text-anchor="start" x="1808" y="-82.4" font-family="Times,serif" font-size="14.00"> </text>
</g>
<!-- icepyx.core.exceptions.NsidcQueryError -->
<g id="node7" class="node">
<title>icepyx.core.exceptions.NsidcQueryError</title>
<polygon fill="none" stroke="black" points="1936.5,-68 1936.5,-152 2076.5,-152 2076.5,-68 1936.5,-68"/>
<text text-anchor="start" x="1944.5" y="-136.8" font-family="Times,serif" font-size="14.00" fill="red">NsidcQueryError</text>
<polyline fill="none" stroke="black" points="1936.5,-129 2076.5,-129 "/>
<text text-anchor="start" x="1964" y="-113.8" font-family="Times,serif" font-size="14.00" fill="red">errmsg</text>
<text text-anchor="start" x="1964" y="-98.8" font-family="Times,serif" font-size="14.00" fill="red">msgtxt : str</text>
<polyline fill="none" stroke="black" points="1936.5,-91 2076.5,-91 "/>
<text text-anchor="start" x="2004" y="-75.8" font-family="Times,serif" font-size="14.00" fill="red"> </text>
</g>
<!-- icepyx.core.exceptions.QueryError -->
<g id="node10" class="node">
<title>icepyx.core.exceptions.QueryError</title>
<polygon fill="none" stroke="black" points="1957,-398.1 1957,-468.9 2056,-468.9 2056,-398.1 1957,-398.1"/>
<text text-anchor="start" x="1965" y="-453.7" font-family="Times,serif" font-size="14.00" fill="red">QueryError</text>
<polyline fill="none" stroke="black" points="1957,-445.9 2056,-445.9 "/>
<polyline fill="none" stroke="black" points="1957,-421.1 2056,-421.1 "/>
<text text-anchor="start" x="2004" y="-405.9" font-family="Times,serif" font-size="14.00" fill="red"> </text>
</g>
<!-- icepyx.core.exceptions.NsidcQueryError&#45;&gt;icepyx.core.exceptions.QueryError -->
<g id="edge1" class="edge">
<title>icepyx.core.exceptions.NsidcQueryError&#45;&gt;icepyx.core.exceptions.QueryError</title>
<path fill="none" stroke="black" d="M2006.5,-152.04C2006.5,-212.53 2006.5,-325.19 2006.5,-387.74"/>
<polygon fill="none" stroke="black" points="2003,-388.07 2006.5,-398.07 2010,-388.07 2003,-388.07"/>
</g>
<!-- icepyx.core.APIformatting.Parameters -->
<g id="node8" class="node">
<title>icepyx.core.APIformatting.Parameters</title>
<polygon fill="none" stroke="black" points="983,-45.5 983,-174.5 1134,-174.5 1134,-45.5 983,-45.5"/>
<text text-anchor="start" x="1017" y="-159.3" font-family="Times,serif" font-size="14.00">Parameters</text>
<polyline fill="none" stroke="black" points="983,-151.5 1134,-151.5 "/>
<text text-anchor="start" x="1017.5" y="-136.3" font-family="Times,serif" font-size="14.00">fmted_keys</text>
<text text-anchor="start" x="1017.5" y="-121.3" font-family="Times,serif" font-size="14.00">partype</text>
<text text-anchor="start" x="1017.5" y="-106.3" font-family="Times,serif" font-size="14.00">poss_keys</text>
<polyline fill="none" stroke="black" points="983,-98.5 1134,-98.5 "/>
<text text-anchor="start" x="991" y="-83.3" font-family="Times,serif" font-size="14.00">build_params()</text>
<text text-anchor="start" x="991" y="-68.3" font-family="Times,serif" font-size="14.00">check_req_values()</text>
<text text-anchor="start" x="991" y="-53.3" font-family="Times,serif" font-size="14.00">check_values()</text>
</g>
<!-- icepyx.core.APIformatting.Parameters&#45;&gt;icepyx.core.query.Query -->
<g id="edge7" class="edge">
<title>icepyx.core.APIformatting.Parameters&#45;&gt;icepyx.core.query.Query</title>
<path fill="none" stroke="black" d="M1049.51,-174.69C1048.07,-199.58 1049.04,-228.08 1056.5,-253 1057.19,-255.31 1057.92,-257.62 1058.69,-259.93"/>
<polygon fill="black" stroke="black" points="1058.77,-260.13 1064.57,-264.41 1062.85,-271.42 1057.05,-267.13 1058.77,-260.13"/>
<text text-anchor="middle" x="1104.5" y="-241.8" font-family="Times,serif" font-size="14.00" fill="green">_CMRparams</text>
</g>
<!-- icepyx.core.APIformatting.Parameters&#45;&gt;icepyx.core.query.Query -->
<g id="edge8" class="edge">
<title>icepyx.core.APIformatting.Parameters&#45;&gt;icepyx.core.query.Query</title>
<path fill="none" stroke="black" d="M1115.64,-174.6C1129.95,-193.76 1143.71,-215.66 1152.5,-238 1155.26,-245 1157.7,-252.25 1159.87,-259.65"/>
<polygon fill="black" stroke="black" points="1159.91,-259.8 1165.34,-264.55 1163.04,-271.38 1157.61,-266.64 1159.91,-259.8"/>
<text text-anchor="middle" x="1201" y="-241.8" font-family="Times,serif" font-size="14.00" fill="green">_reqparams</text>
</g>
<!-- icepyx.core.APIformatting.Parameters&#45;&gt;icepyx.core.query.Query -->
<g id="edge9" class="edge">
<title>icepyx.core.APIformatting.Parameters&#45;&gt;icepyx.core.query.Query</title>
<path fill="none" stroke="black" d="M1022.34,-174.75C1009.24,-192.25 992.83,-209.33 973.5,-220 902.68,-259.09 751.2,-184.67 794.5,-253 835,-316.93 905.07,-358.52 974.09,-385.38"/>
<polygon fill="black" stroke="black" points="974.38,-385.49 981.41,-383.87 985.6,-389.73 978.58,-391.35 974.38,-385.49"/>
<text text-anchor="middle" x="848.5" y="-241.8" font-family="Times,serif" font-size="14.00" fill="green">_subsetparams</text>
</g>
<!-- icepyx.core.APIformatting.Parameters&#45;&gt;icepyx.core.query.Query -->
<g id="edge10" class="edge">
<title>icepyx.core.APIformatting.Parameters&#45;&gt;icepyx.core.query.Query</title>
<path fill="none" stroke="black" d="M1015.64,-174.69C1003.19,-190.6 988.78,-206.85 973.5,-220 961.13,-230.64 949.74,-223.91 941.5,-238 938.13,-243.75 938.56,-247.02 941.5,-253 950.78,-271.86 963.1,-289.3 977.25,-305.29"/>
<polygon fill="black" stroke="black" points="977.64,-305.71 984.65,-307.41 985.78,-314.53 978.77,-312.83 977.64,-305.71"/>
<text text-anchor="middle" x="995.5" y="-241.8" font-family="Times,serif" font-size="14.00" fill="green">_subsetparams</text>
</g>
<!-- icepyx.core.query.Query&#45;&gt;icepyx.core.auth.EarthdataAuthMixin -->
<g id="edge3" class="edge">
<title>icepyx.core.query.Query&#45;&gt;icepyx.core.auth.EarthdataAuthMixin</title>
<path fill="none" stroke="black" d="M1246.53,-595.59C1256.93,-618.82 1267.01,-641.37 1275.64,-660.67"/>
<polygon fill="none" stroke="black" points="1272.48,-662.17 1279.75,-669.87 1278.87,-659.31 1272.48,-662.17"/>
</g>
<!-- icepyx.core.query.Query&#45;&gt;icepyx.core.query.GenQuery -->
<g id="edge4" class="edge">
<title>icepyx.core.query.Query&#45;&gt;icepyx.core.query.GenQuery</title>
<path fill="none" stroke="black" d="M1363.04,-549.83C1392.25,-566.11 1422.39,-582.04 1451.5,-596 1535.58,-636.33 1636.67,-673.31 1702.18,-695.86"/>
<polygon fill="none" stroke="black" points="1701.39,-699.29 1711.98,-699.22 1703.66,-692.67 1701.39,-699.29"/>
</g>
<!-- icepyx.core.read.Read -->
<g id="node11" class="node">
<title>icepyx.core.read.Read</title>
<polygon fill="none" stroke="black" points="1460.5,-376.5 1460.5,-490.5 1532.5,-490.5 1532.5,-376.5 1460.5,-376.5"/>
<text text-anchor="start" x="1478" y="-475.3" font-family="Times,serif" font-size="14.00">Read</text>
<polyline fill="none" stroke="black" points="1460.5,-467.5 1532.5,-467.5 "/>
<text text-anchor="start" x="1468.5" y="-452.3" font-family="Times,serif" font-size="14.00">filelist</text>
<text text-anchor="start" x="1468.5" y="-437.3" font-family="Times,serif" font-size="14.00">is_s3</text>
<text text-anchor="start" x="1468.5" y="-422.3" font-family="Times,serif" font-size="14.00">product</text>
<text text-anchor="start" x="1468.5" y="-407.3" font-family="Times,serif" font-size="14.00">vars</text>
<polyline fill="none" stroke="black" points="1460.5,-399.5 1532.5,-399.5 "/>
<text text-anchor="start" x="1476" y="-384.3" font-family="Times,serif" font-size="14.00">load()</text>
</g>
<!-- icepyx.core.read.Read&#45;&gt;icepyx.core.auth.EarthdataAuthMixin -->
<g id="edge5" class="edge">
<title>icepyx.core.read.Read&#45;&gt;icepyx.core.auth.EarthdataAuthMixin</title>
<path fill="none" stroke="black" d="M1460.28,-487.25C1426.27,-536.79 1375.52,-610.69 1340.6,-661.55"/>
<polygon fill="none" stroke="black" points="1337.7,-659.6 1334.92,-669.82 1343.47,-663.56 1337.7,-659.6"/>
</g>
<!-- icepyx.core.spatial.Spatial -->
<g id="node12" class="node">
<title>icepyx.core.spatial.Spatial</title>
<polygon fill="none" stroke="black" points="1717,-369 1717,-498 1838,-498 1838,-369 1717,-369"/>
<text text-anchor="start" x="1752" y="-482.8" font-family="Times,serif" font-size="14.00">Spatial</text>
<polyline fill="none" stroke="black" points="1717,-475 1838,-475 "/>
<text text-anchor="start" x="1728" y="-459.8" font-family="Times,serif" font-size="14.00">extent</text>
<text text-anchor="start" x="1728" y="-444.8" font-family="Times,serif" font-size="14.00">extent_as_gdf</text>
<text text-anchor="start" x="1728" y="-429.8" font-family="Times,serif" font-size="14.00">extent_file</text>
<text text-anchor="start" x="1728" y="-414.8" font-family="Times,serif" font-size="14.00">extent_type</text>
<polyline fill="none" stroke="black" points="1717,-407 1838,-407 "/>
<text text-anchor="start" x="1725" y="-391.8" font-family="Times,serif" font-size="14.00">fmt_for_CMR()</text>
<text text-anchor="start" x="1725" y="-376.8" font-family="Times,serif" font-size="14.00">fmt_for_EGI()</text>
</g>
<!-- icepyx.core.spatial.Spatial&#45;&gt;icepyx.core.query.GenQuery -->
<g id="edge12" class="edge">
<title>icepyx.core.spatial.Spatial&#45;&gt;icepyx.core.query.GenQuery</title>
<path fill="none" stroke="black" d="M1748.68,-498.26C1735.08,-536.14 1723.58,-585.19 1732.5,-629 1732.94,-631.14 1733.42,-633.29 1733.96,-635.45"/>
<polygon fill="black" stroke="black" points="1733.96,-635.46 1739.44,-640.14 1737.23,-647.01 1731.75,-642.32 1733.96,-635.46"/>
<text text-anchor="middle" x="1760" y="-617.8" font-family="Times,serif" font-size="14.00" fill="green">_spatial</text>
</g>
<!-- icepyx.core.spatial.Spatial&#45;&gt;icepyx.core.query.GenQuery -->
<g id="edge13" class="edge">
<title>icepyx.core.spatial.Spatial&#45;&gt;icepyx.core.query.GenQuery</title>
<path fill="none" stroke="black" d="M1785.42,-498.11C1789,-536.15 1791.6,-585.41 1787.5,-629 1787.31,-631.06 1787.09,-633.14 1786.85,-635.23"/>
<polygon fill="black" stroke="black" points="1786.82,-635.45 1790.01,-641.92 1785.26,-647.35 1782.08,-640.88 1786.82,-635.45"/>
<text text-anchor="middle" x="1816" y="-617.8" font-family="Times,serif" font-size="14.00" fill="green">_spatial</text>
</g>
<!-- icepyx.core.temporal.Temporal -->
<g id="node13" class="node">
<title>icepyx.core.temporal.Temporal</title>
<polygon fill="none" stroke="black" points="1856,-391.5 1856,-475.5 1939,-475.5 1939,-391.5 1856,-391.5"/>
<text text-anchor="start" x="1864" y="-460.3" font-family="Times,serif" font-size="14.00">Temporal</text>
<polyline fill="none" stroke="black" points="1856,-452.5 1939,-452.5 "/>
<text text-anchor="start" x="1880" y="-437.3" font-family="Times,serif" font-size="14.00">end</text>
<text text-anchor="start" x="1880" y="-422.3" font-family="Times,serif" font-size="14.00">start</text>
<polyline fill="none" stroke="black" points="1856,-414.5 1939,-414.5 "/>
<text text-anchor="start" x="1895" y="-399.3" font-family="Times,serif" font-size="14.00"> </text>
</g>
<!-- icepyx.core.temporal.Temporal&#45;&gt;icepyx.core.query.GenQuery -->
<g id="edge14" class="edge">
<title>icepyx.core.temporal.Temporal&#45;&gt;icepyx.core.query.GenQuery</title>
<path fill="none" stroke="black" d="M1892.51,-475.56C1886.31,-516.33 1873.23,-579.7 1847.5,-629 1844.22,-635.29 1840.42,-641.51 1836.3,-647.57"/>
<polygon fill="black" stroke="black" points="1836.1,-647.85 1835.85,-655.05 1829.1,-657.6 1829.35,-650.39 1836.1,-647.85"/>
<text text-anchor="middle" x="1891.5" y="-617.8" font-family="Times,serif" font-size="14.00" fill="green">_temporal</text>
</g>
<!-- icepyx.core.variables.Variables -->
<g id="node14" class="node">
<title>icepyx.core.variables.Variables</title>
<polygon fill="none" stroke="black" points="1309,-30.5 1309,-189.5 1684,-189.5 1684,-30.5 1309,-30.5"/>
<text text-anchor="start" x="1463" y="-174.3" font-family="Times,serif" font-size="14.00">Variables</text>
<polyline fill="none" stroke="black" points="1309,-166.5 1684,-166.5 "/>
<text text-anchor="start" x="1409" y="-151.3" font-family="Times,serif" font-size="14.00">path</text>
<text text-anchor="start" x="1409" y="-136.3" font-family="Times,serif" font-size="14.00">product</text>
<text text-anchor="start" x="1409" y="-121.3" font-family="Times,serif" font-size="14.00">version</text>
<text text-anchor="start" x="1409" y="-106.3" font-family="Times,serif" font-size="14.00">wanted : NoneType, dict</text>
<polyline fill="none" stroke="black" points="1309,-98.5 1684,-98.5 "/>
<text text-anchor="start" x="1317" y="-83.3" font-family="Times,serif" font-size="14.00">append(defaults, var_list, beam_list, keyword_list)</text>
<text text-anchor="start" x="1317" y="-68.3" font-family="Times,serif" font-size="14.00">avail(options, internal)</text>
<text text-anchor="start" x="1317" y="-53.3" font-family="Times,serif" font-size="14.00">parse_var_list(varlist, tiered, tiered_vars)</text>
<text text-anchor="start" x="1317" y="-38.3" font-family="Times,serif" font-size="14.00">remove(all, var_list, beam_list, keyword_list)</text>
</g>
<!-- icepyx.core.variables.Variables&#45;&gt;icepyx.core.auth.EarthdataAuthMixin -->
<g id="edge6" class="edge">
<title>icepyx.core.variables.Variables&#45;&gt;icepyx.core.auth.EarthdataAuthMixin</title>
<path fill="none" stroke="black" d="M1638.77,-189.72C1653.86,-207.74 1662.51,-228.83 1658.5,-253 1632.14,-411.9 1646.95,-474.25 1541.5,-596 1516.62,-624.73 1483.36,-647.56 1449.54,-665.34"/>
<polygon fill="none" stroke="black" points="1447.78,-662.32 1440.47,-669.99 1450.97,-668.55 1447.78,-662.32"/>
</g>
<!-- icepyx.core.variables.Variables&#45;&gt;icepyx.core.query.Query -->
<g id="edge15" class="edge">
<title>icepyx.core.variables.Variables&#45;&gt;icepyx.core.query.Query</title>
<path fill="none" stroke="black" d="M1342.06,-189.66C1321.03,-204.08 1300.77,-220.26 1283.5,-238 1276.42,-245.28 1269.64,-253.1 1263.18,-261.29"/>
<polygon fill="black" stroke="black" points="1263.02,-261.51 1262.56,-268.71 1255.75,-271.06 1256.2,-263.86 1263.02,-261.51"/>
<text text-anchor="middle" x="1325.5" y="-241.8" font-family="Times,serif" font-size="14.00" fill="green">_order_vars</text>
</g>
<!-- icepyx.core.variables.Variables&#45;&gt;icepyx.core.query.Query -->
<g id="edge16" class="edge">
<title>icepyx.core.variables.Variables&#45;&gt;icepyx.core.query.Query</title>
<path fill="none" stroke="black" d="M1427.02,-189.85C1408.06,-210.71 1387.28,-232.98 1367.5,-253 1364.3,-256.24 1361.05,-259.5 1357.77,-262.78"/>
<polygon fill="black" stroke="black" points="1357.52,-263.02 1356.08,-270.08 1349.01,-271.47 1350.45,-264.41 1357.52,-263.02"/>
<text text-anchor="middle" x="1424.5" y="-241.8" font-family="Times,serif" font-size="14.00" fill="green">_order_vars</text>
</g>
<!-- icepyx.core.variables.Variables&#45;&gt;icepyx.core.read.Read -->
<g id="edge17" class="edge">
<title>icepyx.core.variables.Variables&#45;&gt;icepyx.core.read.Read</title>
<path fill="none" stroke="black" d="M1496.5,-189.65C1496.5,-243.06 1496.5,-313 1496.5,-364.1"/>
<polygon fill="black" stroke="black" points="1496.5,-364.33 1500.5,-370.33 1496.5,-376.33 1492.5,-370.33 1496.5,-364.33"/>
<text text-anchor="middle" x="1535" y="-241.8" font-family="Times,serif" font-size="14.00" fill="green">_read_vars</text>
</g>
<!-- icepyx.core.variables.Variables&#45;&gt;icepyx.core.read.Read -->
<g id="edge18" class="edge">
<title>icepyx.core.variables.Variables&#45;&gt;icepyx.core.read.Read</title>
<path fill="none" stroke="black" d="M1553.75,-189.52C1562.31,-204.92 1569.82,-221.44 1574.5,-238 1588.15,-286.32 1564.41,-339.08 1539.63,-377.44"/>
<polygon fill="black" stroke="black" points="1539.32,-377.89 1539.3,-385.1 1532.64,-387.86 1532.66,-380.65 1539.32,-377.89"/>
<text text-anchor="middle" x="1616" y="-241.8" font-family="Times,serif" font-size="14.00" fill="green">_read_vars</text>
</g>
<!-- icepyx.core.visualization.Visualize -->
<g id="node15" class="node">
<title>icepyx.core.visualization.Visualize</title>
<polygon fill="none" stroke="black" points="2094,-0.5 2094,-219.5 2423,-219.5 2423,-0.5 2094,-0.5"/>
<text text-anchor="start" x="2226.5" y="-204.3" font-family="Times,serif" font-size="14.00">Visualize</text>
<polyline fill="none" stroke="black" points="2094,-196.5 2423,-196.5 "/>
<text text-anchor="start" x="2173" y="-181.3" font-family="Times,serif" font-size="14.00">bbox : list</text>
<text text-anchor="start" x="2173" y="-166.3" font-family="Times,serif" font-size="14.00">cycles : NoneType</text>
<text text-anchor="start" x="2173" y="-151.3" font-family="Times,serif" font-size="14.00">date_range : NoneType</text>
<text text-anchor="start" x="2173" y="-136.3" font-family="Times,serif" font-size="14.00">product : NoneType, str</text>
<text text-anchor="start" x="2173" y="-121.3" font-family="Times,serif" font-size="14.00">tracks : NoneType</text>
<polyline fill="none" stroke="black" points="2094,-113.5 2423,-113.5 "/>
<text text-anchor="start" x="2102" y="-98.3" font-family="Times,serif" font-size="14.00">generate_OA_parameters(): list</text>
<text text-anchor="start" x="2102" y="-83.3" font-family="Times,serif" font-size="14.00">grid_bbox(binsize): list</text>
<text text-anchor="start" x="2102" y="-68.3" font-family="Times,serif" font-size="14.00">make_request(base_url, payload)</text>
<text text-anchor="start" x="2102" y="-53.3" font-family="Times,serif" font-size="14.00">parallel_request_OA(): da.array</text>
<text text-anchor="start" x="2102" y="-38.3" font-family="Times,serif" font-size="14.00">query_icesat2_filelist(): tuple</text>
<text text-anchor="start" x="2102" y="-23.3" font-family="Times,serif" font-size="14.00">request_OA_data(paras): da.array</text>
<text text-anchor="start" x="2102" y="-8.3" font-family="Times,serif" font-size="14.00">viz_elevation(): (hv.DynamicMap, hv.Layout)</text>
</g>
</g>
</svg>
