<?xml version="1.0" encoding="UTF-8" standalone="no"?>
<!DOCTYPE svg PUBLIC "-//W3C//DTD SVG 1.1//EN"
 "http://www.w3.org/Graphics/SVG/1.1/DTD/svg11.dtd">
<!-- Generated by graphviz version 2.42.3 ()
 -->
<!-- Title: classes Pages: 1 -->
<svg width="1949pt" height="709pt"
 viewBox="0.00 0.00 1948.50 709.00" xmlns="http://www.w3.org/2000/svg" xmlns:xlink="http://www.w3.org/1999/xlink">
<g id="graph0" class="graph" transform="scale(1 1) rotate(0) translate(4 705)">
<title>classes</title>
<polygon fill="white" stroke="transparent" points="-4,4 -4,-705 1944.5,-705 1944.5,4 -4,4"/>
<!-- 0 -->
<g id="node1" class="node">
<title>0</title>
<polygon fill="none" stroke="black" points="0,-38 0,-182 155,-182 155,-38 0,-38"/>
<text text-anchor="middle" x="77.5" y="-166.8" font-family="Times,serif" font-size="14.00">Earthdata</text>
<polyline fill="none" stroke="black" points="0,-159 155,-159 "/>
<text text-anchor="start" x="8" y="-143.8" font-family="Times,serif" font-size="14.00">capability_url</text>
<text text-anchor="start" x="8" y="-128.8" font-family="Times,serif" font-size="14.00">email</text>
<text text-anchor="start" x="8" y="-113.8" font-family="Times,serif" font-size="14.00">netrc : NoneType</text>
<text text-anchor="start" x="8" y="-98.8" font-family="Times,serif" font-size="14.00">pswd : str, NoneType</text>
<text text-anchor="start" x="8" y="-83.8" font-family="Times,serif" font-size="14.00">session : Session</text>
<text text-anchor="start" x="8" y="-68.8" font-family="Times,serif" font-size="14.00">uid</text>
<polyline fill="none" stroke="black" points="0,-61 155,-61 "/>
<text text-anchor="start" x="8" y="-45.8" font-family="Times,serif" font-size="14.00">login()</text>
</g>
<!-- 1 -->
<g id="node2" class="node">
<title>1</title>
<polygon fill="none" stroke="black" points="173.5,-53 173.5,-167 807.5,-167 807.5,-53 173.5,-53"/>
<text text-anchor="middle" x="490.5" y="-151.8" font-family="Times,serif" font-size="14.00">Granules</text>
<polyline fill="none" stroke="black" points="173.5,-144 807.5,-144 "/>
<text text-anchor="start" x="181.5" y="-128.8" font-family="Times,serif" font-size="14.00">avail : list</text>
<text text-anchor="start" x="181.5" y="-113.8" font-family="Times,serif" font-size="14.00">orderIDs : list</text>
<polyline fill="none" stroke="black" points="173.5,-106 807.5,-106 "/>
<text text-anchor="start" x="181.5" y="-90.8" font-family="Times,serif" font-size="14.00">download(verbose, path, session, restart)</text>
<text text-anchor="start" x="181.5" y="-75.8" font-family="Times,serif" font-size="14.00">get_avail(CMRparams, reqparams)</text>
<text text-anchor="start" x="181.5" y="-60.8" font-family="Times,serif" font-size="14.00">place_order(CMRparams, reqparams, subsetparams, verbose, subset, session, geom_filepath)</text>
</g>
<!-- 5 -->
<g id="node6" class="node">
<title>5</title>
<polygon fill="none" stroke="black" points="719.5,-271.5 719.5,-700.5 1069.5,-700.5 1069.5,-271.5 719.5,-271.5"/>
<text text-anchor="middle" x="894.5" y="-685.3" font-family="Times,serif" font-size="14.00">Query</text>
<polyline fill="none" stroke="black" points="719.5,-677.5 1069.5,-677.5 "/>
<text text-anchor="start" x="727.5" y="-662.3" font-family="Times,serif" font-size="14.00">CMRparams</text>
<text text-anchor="start" x="727.5" y="-647.3" font-family="Times,serif" font-size="14.00">cycles</text>
<text text-anchor="start" x="727.5" y="-632.3" font-family="Times,serif" font-size="14.00">dataset</text>
<text text-anchor="start" x="727.5" y="-617.3" font-family="Times,serif" font-size="14.00">dataset_version</text>
<text text-anchor="start" x="727.5" y="-602.3" font-family="Times,serif" font-size="14.00">dates</text>
<text text-anchor="start" x="727.5" y="-587.3" font-family="Times,serif" font-size="14.00">end_time</text>
<text text-anchor="start" x="727.5" y="-572.3" font-family="Times,serif" font-size="14.00">extent_type : str</text>
<text text-anchor="start" x="727.5" y="-557.3" font-family="Times,serif" font-size="14.00">file_vars</text>
<text text-anchor="start" x="727.5" y="-542.3" font-family="Times,serif" font-size="14.00">granules</text>
<text text-anchor="start" x="727.5" y="-527.3" font-family="Times,serif" font-size="14.00">order_vars</text>
<text text-anchor="start" x="727.5" y="-512.3" font-family="Times,serif" font-size="14.00">reqparams</text>
<text text-anchor="start" x="727.5" y="-497.3" font-family="Times,serif" font-size="14.00">reqparams : NoneType</text>
<text text-anchor="start" x="727.5" y="-482.3" font-family="Times,serif" font-size="14.00">spatial_extent</text>
<text text-anchor="start" x="727.5" y="-467.3" font-family="Times,serif" font-size="14.00">start_time</text>
<text text-anchor="start" x="727.5" y="-452.3" font-family="Times,serif" font-size="14.00">tracks</text>
<polyline fill="none" stroke="black" points="719.5,-444.5 1069.5,-444.5 "/>
<text text-anchor="start" x="727.5" y="-429.3" font-family="Times,serif" font-size="14.00">avail_granules(ids, cycles, tracks)</text>
<text text-anchor="start" x="727.5" y="-414.3" font-family="Times,serif" font-size="14.00">dataset_all_info()</text>
<text text-anchor="start" x="727.5" y="-399.3" font-family="Times,serif" font-size="14.00">dataset_summary_info()</text>
<text text-anchor="start" x="727.5" y="-384.3" font-family="Times,serif" font-size="14.00">download_granules(path, verbose, subset, restart)</text>
<text text-anchor="start" x="727.5" y="-369.3" font-family="Times,serif" font-size="14.00">earthdata_login(uid, email)</text>
<text text-anchor="start" x="727.5" y="-354.3" font-family="Times,serif" font-size="14.00">latest_version()</text>
<text text-anchor="start" x="727.5" y="-339.3" font-family="Times,serif" font-size="14.00">order_granules(verbose, subset, email)</text>
<text text-anchor="start" x="727.5" y="-324.3" font-family="Times,serif" font-size="14.00">show_custom_options(dictview)</text>
<text text-anchor="start" x="727.5" y="-309.3" font-family="Times,serif" font-size="14.00">subsetparams()</text>
<text text-anchor="start" x="727.5" y="-294.3" font-family="Times,serif" font-size="14.00">visualize_elevation()</text>
<text text-anchor="start" x="727.5" y="-279.3" font-family="Times,serif" font-size="14.00">visualize_spatial_extent()</text>
</g>
<!-- 1&#45;&gt;5 -->
<g id="edge2" class="edge">
<title>1&#45;&gt;5</title>
<path fill="none" stroke="black" d="M484.18,-167.03C483.76,-194.84 487.57,-227.78 503.5,-253 550.9,-328.06 632.12,-381.94 708.3,-418.77"/>
<polygon fill="black" stroke="black" points="708.65,-418.94 715.79,-417.9 719.49,-424.09 712.36,-425.13 708.65,-418.94"/>
<text text-anchor="middle" x="536" y="-241.8" font-family="Times,serif" font-size="14.00" fill="green">_granules</text>
</g>
<!-- 1&#45;&gt;5 -->
<g id="edge3" class="edge">
<title>1&#45;&gt;5</title>
<path fill="none" stroke="black" d="M530.44,-167.03C550.94,-194.2 577.11,-226.59 603.5,-253 636.09,-285.62 673.13,-318.09 709.6,-347.95"/>
<polygon fill="black" stroke="black" points="710.05,-348.32 717.23,-349 719.36,-355.89 712.18,-355.21 710.05,-348.32"/>
<text text-anchor="middle" x="636" y="-241.8" font-family="Times,serif" font-size="14.00" fill="green">_granules</text>
</g>
<!-- 2 -->
<g id="node3" class="node">
<title>2</title>
<polygon fill="none" stroke="black" points="1439,-75 1439,-145 1534,-145 1534,-75 1439,-75"/>
<text text-anchor="middle" x="1486.5" y="-129.8" font-family="Times,serif" font-size="14.00">Icesat2Data</text>
<polyline fill="none" stroke="black" points="1439,-122 1534,-122 "/>
<polyline fill="none" stroke="black" points="1439,-98 1534,-98 "/>
<text text-anchor="middle" x="1486.5" y="-82.8" font-family="Times,serif" font-size="14.00"> </text>
</g>
<!-- 3 -->
<g id="node4" class="node">
<title>3</title>
<polygon fill="none" stroke="black" points="1552.5,-68 1552.5,-152 1684.5,-152 1684.5,-68 1552.5,-68"/>
<text text-anchor="middle" x="1618.5" y="-136.8" font-family="Times,serif" font-size="14.00" fill="red">NsidcQueryError</text>
<polyline fill="none" stroke="black" points="1552.5,-129 1684.5,-129 "/>
<text text-anchor="start" x="1560.5" y="-113.8" font-family="Times,serif" font-size="14.00" fill="red">errmsg</text>
<text text-anchor="start" x="1560.5" y="-98.8" font-family="Times,serif" font-size="14.00" fill="red">msgtxt : str</text>
<polyline fill="none" stroke="black" points="1552.5,-91 1684.5,-91 "/>
<text text-anchor="middle" x="1618.5" y="-75.8" font-family="Times,serif" font-size="14.00" fill="red"> </text>
</g>
<!-- 6 -->
<g id="node7" class="node">
<title>6</title>
<polygon fill="none" stroke="black" points="1570.5,-451 1570.5,-521 1666.5,-521 1666.5,-451 1570.5,-451"/>
<text text-anchor="middle" x="1618.5" y="-505.8" font-family="Times,serif" font-size="14.00" fill="red">QueryError</text>
<polyline fill="none" stroke="black" points="1570.5,-498 1666.5,-498 "/>
<polyline fill="none" stroke="black" points="1570.5,-474 1666.5,-474 "/>
<text text-anchor="middle" x="1618.5" y="-458.8" font-family="Times,serif" font-size="14.00" fill="red"> </text>
</g>
<!-- 3&#45;&gt;6 -->
<g id="edge1" class="edge">
<title>3&#45;&gt;6</title>
<path fill="none" stroke="black" d="M1618.5,-152.09C1618.5,-222.99 1618.5,-367.69 1618.5,-440.73"/>
<polygon fill="none" stroke="black" points="1615,-440.97 1618.5,-450.97 1622,-440.97 1615,-440.97"/>
</g>
<!-- 4 -->
<g id="node5" class="node">
<title>4</title>
<polygon fill="none" stroke="black" points="826,-45.5 826,-174.5 969,-174.5 969,-45.5 826,-45.5"/>
<text text-anchor="middle" x="897.5" y="-159.3" font-family="Times,serif" font-size="14.00">Parameters</text>
<polyline fill="none" stroke="black" points="826,-151.5 969,-151.5 "/>
<text text-anchor="start" x="834" y="-136.3" font-family="Times,serif" font-size="14.00">fmted_keys</text>
<text text-anchor="start" x="834" y="-121.3" font-family="Times,serif" font-size="14.00">partype</text>
<text text-anchor="start" x="834" y="-106.3" font-family="Times,serif" font-size="14.00">poss_keys</text>
<polyline fill="none" stroke="black" points="826,-98.5 969,-98.5 "/>
<text text-anchor="start" x="834" y="-83.3" font-family="Times,serif" font-size="14.00">build_params()</text>
<text text-anchor="start" x="834" y="-68.3" font-family="Times,serif" font-size="14.00">check_req_values()</text>
<text text-anchor="start" x="834" y="-53.3" font-family="Times,serif" font-size="14.00">check_values()</text>
</g>
<!-- 4&#45;&gt;5 -->
<g id="edge4" class="edge">
<title>4&#45;&gt;5</title>
<path fill="none" stroke="black" d="M863.17,-174.62C850.74,-192.01 835.09,-209.05 816.5,-220 790.42,-235.36 701.44,-215.23 681.5,-238 644.68,-280.05 667.92,-326.39 710.37,-367.46"/>
<polygon fill="black" stroke="black" points="710.62,-367.7 717.74,-368.86 719.41,-375.87 712.29,-374.71 710.62,-367.7"/>
<text text-anchor="middle" x="725.5" y="-241.8" font-family="Times,serif" font-size="14.00" fill="green">_CMRparams</text>
</g>
<!-- 4&#45;&gt;5 -->
<g id="edge5" class="edge">
<title>4&#45;&gt;5</title>
<path fill="none" stroke="black" d="M855.01,-174.63C843.35,-190.19 830.14,-206.3 816.5,-220 807.09,-229.45 798.46,-226.07 792.5,-238 789,-245 786.41,-252.14 784.61,-259.39"/>
<polygon fill="black" stroke="black" points="784.6,-259.46 787.42,-266.1 782.38,-271.25 779.56,-264.62 784.6,-259.46"/>
<text text-anchor="middle" x="832.5" y="-241.8" font-family="Times,serif" font-size="14.00" fill="green">_reqparams</text>
</g>
<!-- 4&#45;&gt;5 -->
<g id="edge6" class="edge">
<title>4&#45;&gt;5</title>
<path fill="none" stroke="black" d="M896.35,-174.63C896.03,-194.88 895.7,-217.38 895.5,-238 895.43,-245 895.37,-252.12 895.31,-259.31"/>
<polygon fill="black" stroke="black" points="895.3,-259.46 899.26,-265.49 895.21,-271.46 891.26,-265.43 895.3,-259.46"/>
<text text-anchor="middle" x="945.5" y="-241.8" font-family="Times,serif" font-size="14.00" fill="green">_subsetparams</text>
</g>
<!-- 4&#45;&gt;5 -->
<g id="edge7" class="edge">
<title>4&#45;&gt;5</title>
<path fill="none" stroke="black" d="M959.53,-174.64C974.17,-193.56 987.77,-215.33 995.5,-238 997.89,-245.02 999.59,-252.13 1000.68,-259.29"/>
<polygon fill="black" stroke="black" points="1000.69,-259.45 1005.29,-265 1001.93,-271.38 997.33,-265.83 1000.69,-259.45"/>
<text text-anchor="middle" x="1049.5" y="-241.8" font-family="Times,serif" font-size="14.00" fill="green">_subsetparams</text>
</g>
<!-- 7 -->
<g id="node8" class="node">
<title>7</title>
<polygon fill="none" stroke="black" points="1068,-38 1068,-182 1421,-182 1421,-38 1068,-38"/>
<text text-anchor="middle" x="1244.5" y="-166.8" font-family="Times,serif" font-size="14.00">Variables</text>
<polyline fill="none" stroke="black" points="1068,-159 1421,-159 "/>
<text text-anchor="start" x="1076" y="-143.8" font-family="Times,serif" font-size="14.00">dataset : NoneType</text>
<text text-anchor="start" x="1076" y="-128.8" font-family="Times,serif" font-size="14.00">source : NoneType</text>
<text text-anchor="start" x="1076" y="-113.8" font-family="Times,serif" font-size="14.00">wanted : NoneType, dict</text>
<polyline fill="none" stroke="black" points="1068,-106 1421,-106 "/>
<text text-anchor="start" x="1076" y="-90.8" font-family="Times,serif" font-size="14.00">append(defaults, var_list, beam_list, keyword_list)</text>
<text text-anchor="start" x="1076" y="-75.8" font-family="Times,serif" font-size="14.00">avail(options, internal)</text>
<text text-anchor="start" x="1076" y="-60.8" font-family="Times,serif" font-size="14.00">parse_var_list(varlist)</text>
<text text-anchor="start" x="1076" y="-45.8" font-family="Times,serif" font-size="14.00">remove(all, var_list, beam_list, keyword_list)</text>
</g>
<!-- 7&#45;&gt;5 -->
<g id="edge8" class="edge">
<title>7&#45;&gt;5</title>
<path fill="none" stroke="black" d="M1177.84,-182.23C1149.11,-212.93 1113.95,-250.51 1078.3,-288.6"/>
<polygon fill="black" stroke="black" points="1077.91,-289.01 1076.74,-296.12 1069.72,-297.77 1070.89,-290.66 1077.91,-289.01"/>
<text text-anchor="middle" x="1162" y="-241.8" font-family="Times,serif" font-size="14.00" fill="green">_order_vars</text>
</g>
<!-- 7&#45;&gt;5 -->
<g id="edge9" class="edge">
<title>7&#45;&gt;5</title>
<path fill="none" stroke="black" d="M1235.17,-182.13C1229.59,-206.13 1220.69,-232.1 1206.5,-253 1173.42,-301.72 1126.66,-344.18 1079.37,-378.98"/>
<polygon fill="black" stroke="black" points="1079.31,-379.02 1076.8,-385.78 1069.6,-386.06 1072.11,-379.31 1079.31,-379.02"/>
<text text-anchor="middle" x="1256" y="-241.8" font-family="Times,serif" font-size="14.00" fill="green">_order_vars</text>
</g>
<!-- 7&#45;&gt;5 -->
<g id="edge10" class="edge">
<title>7&#45;&gt;5</title>
<path fill="none" stroke="black" d="M1297.75,-182.28C1308.59,-205.53 1313.27,-231 1300.5,-253 1252.68,-335.4 1163.38,-391.01 1080.69,-427.07"/>
<polygon fill="black" stroke="black" points="1080.63,-427.1 1076.68,-433.13 1069.59,-431.81 1073.54,-425.78 1080.63,-427.1"/>
<text text-anchor="middle" x="1339" y="-241.8" font-family="Times,serif" font-size="14.00" fill="green">_file_vars</text>
</g>
<!-- 8 -->
<g id="node9" class="node">
<title>8</title>
<polygon fill="none" stroke="black" points="1702.5,-0.5 1702.5,-219.5 1940.5,-219.5 1940.5,-0.5 1702.5,-0.5"/>
<text text-anchor="middle" x="1821.5" y="-204.3" font-family="Times,serif" font-size="14.00">Visualize</text>
<polyline fill="none" stroke="black" points="1702.5,-196.5 1940.5,-196.5 "/>
<text text-anchor="start" x="1710.5" y="-181.3" font-family="Times,serif" font-size="14.00">bbox : list</text>
<text text-anchor="start" x="1710.5" y="-166.3" font-family="Times,serif" font-size="14.00">cycles : NoneType</text>
<text text-anchor="start" x="1710.5" y="-151.3" font-family="Times,serif" font-size="14.00">date_range : NoneType</text>
<text text-anchor="start" x="1710.5" y="-136.3" font-family="Times,serif" font-size="14.00">product : NoneType, str</text>
<text text-anchor="start" x="1710.5" y="-121.3" font-family="Times,serif" font-size="14.00">tracks : NoneType</text>
<polyline fill="none" stroke="black" points="1702.5,-113.5 1940.5,-113.5 "/>
<text text-anchor="start" x="1710.5" y="-98.3" font-family="Times,serif" font-size="14.00">generate_OA_parameters()</text>
<text text-anchor="start" x="1710.5" y="-83.3" font-family="Times,serif" font-size="14.00">grid_bbox(binsize)</text>
<text text-anchor="start" x="1710.5" y="-68.3" font-family="Times,serif" font-size="14.00">make_request(base_url, payload)</text>
<text text-anchor="start" x="1710.5" y="-53.3" font-family="Times,serif" font-size="14.00">parallel_request_OA()</text>
<text text-anchor="start" x="1710.5" y="-38.3" font-family="Times,serif" font-size="14.00">query_icesat2_filelist()</text>
<text text-anchor="start" x="1710.5" y="-23.3" font-family="Times,serif" font-size="14.00">request_OA_data(paras)</text>
<text text-anchor="start" x="1710.5" y="-8.3" font-family="Times,serif" font-size="14.00">viz_elevation()</text>
</g>
</g>
</svg>
