<?xml version="1.0" encoding="UTF-8" standalone="no"?>
<!DOCTYPE svg PUBLIC "-//W3C//DTD SVG 1.1//EN"
 "http://www.w3.org/Graphics/SVG/1.1/DTD/svg11.dtd">
<!-- Generated by graphviz version 2.43.0 (0)
 -->
<!-- Title: classes_user_uml Pages: 1 -->
<svg width="2254pt" height="831pt"
 viewBox="0.00 0.00 2254.00 831.00" xmlns="http://www.w3.org/2000/svg" xmlns:xlink="http://www.w3.org/1999/xlink">
<g id="graph0" class="graph" transform="scale(1 1) rotate(0) translate(4 827)">
<title>classes_user_uml</title>
<polygon fill="white" stroke="transparent" points="-4,4 -4,-827 2250,-827 2250,4 -4,4"/>
<!-- icepyx.core.Earthdata.Earthdata -->
<g id="node1" class="node">
<title>icepyx.core.Earthdata.Earthdata</title>
<polygon fill="none" stroke="black" points="0,-38 0,-182 169,-182 169,-38 0,-38"/>
<text text-anchor="middle" x="84.5" y="-166.8" font-family="Times,serif" font-size="14.00">Earthdata</text>
<polyline fill="none" stroke="black" points="0,-159 169,-159 "/>
<text text-anchor="start" x="8" y="-143.8" font-family="Times,serif" font-size="14.00">capability_url</text>
<text text-anchor="start" x="8" y="-128.8" font-family="Times,serif" font-size="14.00">email</text>
<text text-anchor="start" x="8" y="-113.8" font-family="Times,serif" font-size="14.00">netrc : NoneType</text>
<text text-anchor="start" x="8" y="-98.8" font-family="Times,serif" font-size="14.00">pswd : NoneType, str</text>
<text text-anchor="start" x="8" y="-83.8" font-family="Times,serif" font-size="14.00">session : Session</text>
<text text-anchor="start" x="8" y="-68.8" font-family="Times,serif" font-size="14.00">uid</text>
<polyline fill="none" stroke="black" points="0,-61 169,-61 "/>
<text text-anchor="start" x="8" y="-45.8" font-family="Times,serif" font-size="14.00">login(attempts)</text>
</g>
<!-- icepyx.core.query.GenQuery -->
<g id="node2" class="node">
<title>icepyx.core.query.GenQuery</title>
<polygon fill="none" stroke="black" points="1579,-752.5 1579,-822.5 1668,-822.5 1668,-752.5 1579,-752.5"/>
<text text-anchor="middle" x="1623.5" y="-807.3" font-family="Times,serif" font-size="14.00">GenQuery</text>
<polyline fill="none" stroke="black" points="1579,-799.5 1668,-799.5 "/>
<polyline fill="none" stroke="black" points="1579,-775.5 1668,-775.5 "/>
<text text-anchor="middle" x="1623.5" y="-760.3" font-family="Times,serif" font-size="14.00"> </text>
</g>
<!-- icepyx.core.granules.Granules -->
<g id="node3" class="node">
<title>icepyx.core.granules.Granules</title>
<polygon fill="none" stroke="black" points="186.5,-53 186.5,-167 872.5,-167 872.5,-53 186.5,-53"/>
<text text-anchor="middle" x="529.5" y="-151.8" font-family="Times,serif" font-size="14.00">Granules</text>
<polyline fill="none" stroke="black" points="186.5,-144 872.5,-144 "/>
<text text-anchor="start" x="194.5" y="-128.8" font-family="Times,serif" font-size="14.00">avail : list</text>
<text text-anchor="start" x="194.5" y="-113.8" font-family="Times,serif" font-size="14.00">orderIDs : list</text>
<polyline fill="none" stroke="black" points="186.5,-106 872.5,-106 "/>
<text text-anchor="start" x="194.5" y="-90.8" font-family="Times,serif" font-size="14.00">download(verbose, path, session, restart)</text>
<text text-anchor="start" x="194.5" y="-75.8" font-family="Times,serif" font-size="14.00">get_avail(CMRparams, reqparams, cloud)</text>
<text text-anchor="start" x="194.5" y="-60.8" font-family="Times,serif" font-size="14.00">place_order(CMRparams, reqparams, subsetparams, verbose, subset, session, geom_filepath)</text>
</g>
<!-- icepyx.core.query.Query -->
<g id="node7" class="node">
<title>icepyx.core.query.Query</title>
<polygon fill="none" stroke="black" points="840,-271.5 840,-700.5 1217,-700.5 1217,-271.5 840,-271.5"/>
<text text-anchor="middle" x="1028.5" y="-685.3" font-family="Times,serif" font-size="14.00">Query</text>
<polyline fill="none" stroke="black" points="840,-677.5 1217,-677.5 "/>
<text text-anchor="start" x="848" y="-662.3" font-family="Times,serif" font-size="14.00">CMRparams</text>
<text text-anchor="start" x="848" y="-647.3" font-family="Times,serif" font-size="14.00">cycles</text>
<text text-anchor="start" x="848" y="-632.3" font-family="Times,serif" font-size="14.00">dataset</text>
<text text-anchor="start" x="848" y="-617.3" font-family="Times,serif" font-size="14.00">dates</text>
<text text-anchor="start" x="848" y="-602.3" font-family="Times,serif" font-size="14.00">end_time</text>
<text text-anchor="start" x="848" y="-587.3" font-family="Times,serif" font-size="14.00">file_vars</text>
<text text-anchor="start" x="848" y="-572.3" font-family="Times,serif" font-size="14.00">granules</text>
<text text-anchor="start" x="848" y="-557.3" font-family="Times,serif" font-size="14.00">order_vars</text>
<text text-anchor="start" x="848" y="-542.3" font-family="Times,serif" font-size="14.00">product</text>
<text text-anchor="start" x="848" y="-527.3" font-family="Times,serif" font-size="14.00">product_version</text>
<text text-anchor="start" x="848" y="-512.3" font-family="Times,serif" font-size="14.00">reqparams</text>
<text text-anchor="start" x="848" y="-497.3" font-family="Times,serif" font-size="14.00">spatial</text>
<text text-anchor="start" x="848" y="-482.3" font-family="Times,serif" font-size="14.00">spatial_extent</text>
<text text-anchor="start" x="848" y="-467.3" font-family="Times,serif" font-size="14.00">start_time</text>
<text text-anchor="start" x="848" y="-452.3" font-family="Times,serif" font-size="14.00">tracks</text>
<polyline fill="none" stroke="black" points="840,-444.5 1217,-444.5 "/>
<text text-anchor="start" x="848" y="-429.3" font-family="Times,serif" font-size="14.00">avail_granules(ids, cycles, tracks, s3urls)</text>
<text text-anchor="start" x="848" y="-414.3" font-family="Times,serif" font-size="14.00">download_granules(path, verbose, subset, restart)</text>
<text text-anchor="start" x="848" y="-399.3" font-family="Times,serif" font-size="14.00">earthdata_login(uid, email, s3token)</text>
<text text-anchor="start" x="848" y="-384.3" font-family="Times,serif" font-size="14.00">latest_version()</text>
<text text-anchor="start" x="848" y="-369.3" font-family="Times,serif" font-size="14.00">order_granules(verbose, subset, email)</text>
<text text-anchor="start" x="848" y="-354.3" font-family="Times,serif" font-size="14.00">product_all_info()</text>
<text text-anchor="start" x="848" y="-339.3" font-family="Times,serif" font-size="14.00">product_summary_info()</text>
<text text-anchor="start" x="848" y="-324.3" font-family="Times,serif" font-size="14.00">show_custom_options(dictview)</text>
<text text-anchor="start" x="848" y="-309.3" font-family="Times,serif" font-size="14.00">subsetparams()</text>
<text text-anchor="start" x="848" y="-294.3" font-family="Times,serif" font-size="14.00">visualize_elevation()</text>
<text text-anchor="start" x="848" y="-279.3" font-family="Times,serif" font-size="14.00">visualize_spatial_extent()</text>
</g>
<!-- icepyx.core.granules.Granules&#45;&gt;icepyx.core.query.Query -->
<g id="edge7" class="edge">
<title>icepyx.core.granules.Granules&#45;&gt;icepyx.core.query.Query</title>
<path fill="none" stroke="black" d="M524.58,-167.11C524.92,-195.26 529.87,-228.49 547.5,-253 614.24,-345.75 728.21,-402.97 828.46,-437.37"/>
<polygon fill="black" stroke="black" points="828.61,-437.42 835.57,-435.54 839.99,-441.25 833.02,-443.12 828.61,-437.42"/>
<text text-anchor="middle" x="582.5" y="-241.8" font-family="Times,serif" font-size="14.00" fill="green">_granules</text>
</g>
<!-- icepyx.core.granules.Granules&#45;&gt;icepyx.core.query.Query -->
<g id="edge8" class="edge">
<title>icepyx.core.granules.Granules&#45;&gt;icepyx.core.query.Query</title>
<path fill="none" stroke="black" d="M574.38,-167.28C597.84,-194.82 627.97,-227.46 658.5,-253 710.75,-296.72 771.91,-338.33 829.28,-373.92"/>
<polygon fill="black" stroke="black" points="829.35,-373.97 836.56,-373.71 839.57,-380.27 832.36,-380.52 829.35,-373.97"/>
<text text-anchor="middle" x="693.5" y="-241.8" font-family="Times,serif" font-size="14.00" fill="green">_granules</text>
</g>
<!-- icepyx.core.icesat2data.Icesat2Data -->
<g id="node4" class="node">
<title>icepyx.core.icesat2data.Icesat2Data</title>
<polygon fill="none" stroke="black" points="1588.5,-75 1588.5,-145 1690.5,-145 1690.5,-75 1588.5,-75"/>
<text text-anchor="middle" x="1639.5" y="-129.8" font-family="Times,serif" font-size="14.00">Icesat2Data</text>
<polyline fill="none" stroke="black" points="1588.5,-122 1690.5,-122 "/>
<polyline fill="none" stroke="black" points="1588.5,-98 1690.5,-98 "/>
<text text-anchor="middle" x="1639.5" y="-82.8" font-family="Times,serif" font-size="14.00"> </text>
</g>
<!-- icepyx.core.exceptions.NsidcQueryError -->
<g id="node5" class="node">
<title>icepyx.core.exceptions.NsidcQueryError</title>
<polygon fill="none" stroke="black" points="1759.5,-68 1759.5,-152 1899.5,-152 1899.5,-68 1759.5,-68"/>
<text text-anchor="middle" x="1829.5" y="-136.8" font-family="Times,serif" font-size="14.00" fill="red">NsidcQueryError</text>
<polyline fill="none" stroke="black" points="1759.5,-129 1899.5,-129 "/>
<text text-anchor="start" x="1767.5" y="-113.8" font-family="Times,serif" font-size="14.00" fill="red">errmsg</text>
<text text-anchor="start" x="1767.5" y="-98.8" font-family="Times,serif" font-size="14.00" fill="red">msgtxt : str</text>
<polyline fill="none" stroke="black" points="1759.5,-91 1899.5,-91 "/>
<text text-anchor="middle" x="1829.5" y="-75.8" font-family="Times,serif" font-size="14.00" fill="red"> </text>
</g>
<!-- icepyx.core.exceptions.QueryError -->
<g id="node8" class="node">
<title>icepyx.core.exceptions.QueryError</title>
<polygon fill="none" stroke="black" points="1780,-451 1780,-521 1879,-521 1879,-451 1780,-451"/>
<text text-anchor="middle" x="1829.5" y="-505.8" font-family="Times,serif" font-size="14.00" fill="red">QueryError</text>
<polyline fill="none" stroke="black" points="1780,-498 1879,-498 "/>
<polyline fill="none" stroke="black" points="1780,-474 1879,-474 "/>
<text text-anchor="middle" x="1829.5" y="-458.8" font-family="Times,serif" font-size="14.00" fill="red"> </text>
</g>
<!-- icepyx.core.exceptions.NsidcQueryError&#45;&gt;icepyx.core.exceptions.QueryError -->
<g id="edge1" class="edge">
<title>icepyx.core.exceptions.NsidcQueryError&#45;&gt;icepyx.core.exceptions.QueryError</title>
<path fill="none" stroke="black" d="M1829.5,-152.09C1829.5,-222.99 1829.5,-367.69 1829.5,-440.73"/>
<polygon fill="none" stroke="black" points="1826,-440.97 1829.5,-450.97 1833,-440.97 1826,-440.97"/>
</g>
<!-- icepyx.core.APIformatting.Parameters -->
<g id="node6" class="node">
<title>icepyx.core.APIformatting.Parameters</title>
<polygon fill="none" stroke="black" points="890,-45.5 890,-174.5 1041,-174.5 1041,-45.5 890,-45.5"/>
<text text-anchor="middle" x="965.5" y="-159.3" font-family="Times,serif" font-size="14.00">Parameters</text>
<polyline fill="none" stroke="black" points="890,-151.5 1041,-151.5 "/>
<text text-anchor="start" x="898" y="-136.3" font-family="Times,serif" font-size="14.00">fmted_keys</text>
<text text-anchor="start" x="898" y="-121.3" font-family="Times,serif" font-size="14.00">partype</text>
<text text-anchor="start" x="898" y="-106.3" font-family="Times,serif" font-size="14.00">poss_keys</text>
<polyline fill="none" stroke="black" points="890,-98.5 1041,-98.5 "/>
<text text-anchor="start" x="898" y="-83.3" font-family="Times,serif" font-size="14.00">build_params()</text>
<text text-anchor="start" x="898" y="-68.3" font-family="Times,serif" font-size="14.00">check_req_values()</text>
<text text-anchor="start" x="898" y="-53.3" font-family="Times,serif" font-size="14.00">check_values()</text>
</g>
<!-- icepyx.core.APIformatting.Parameters&#45;&gt;icepyx.core.query.Query -->
<g id="edge3" class="edge">
<title>icepyx.core.APIformatting.Parameters&#45;&gt;icepyx.core.query.Query</title>
<path fill="none" stroke="black" d="M929.54,-174.75C916.63,-192.14 900.48,-209.16 881.5,-220 824.11,-252.77 707.77,-193.48 736.5,-253 757.91,-297.35 792.37,-335.82 830.23,-368"/>
<polygon fill="black" stroke="black" points="830.69,-368.38 837.86,-369.13 839.93,-376.04 832.76,-375.29 830.69,-368.38"/>
<text text-anchor="middle" x="784.5" y="-241.8" font-family="Times,serif" font-size="14.00" fill="green">_CMRparams</text>
</g>
<!-- icepyx.core.APIformatting.Parameters&#45;&gt;icepyx.core.query.Query -->
<g id="edge4" class="edge">
<title>icepyx.core.APIformatting.Parameters&#45;&gt;icepyx.core.query.Query</title>
<path fill="none" stroke="black" d="M921.74,-174.63C909.59,-190.28 895.79,-206.42 881.5,-220 871.31,-229.68 862.02,-225.55 855.5,-238 852.41,-243.91 853.4,-246.67 855.5,-253 856.3,-255.42 857.14,-257.84 858.02,-260.25"/>
<polygon fill="black" stroke="black" points="858.03,-260.29 863.93,-264.45 862.35,-271.49 856.46,-267.33 858.03,-260.29"/>
<text text-anchor="middle" x="898" y="-241.8" font-family="Times,serif" font-size="14.00" fill="green">_reqparams</text>
</g>
<!-- icepyx.core.APIformatting.Parameters&#45;&gt;icepyx.core.query.Query -->
<g id="edge5" class="edge">
<title>icepyx.core.APIformatting.Parameters&#45;&gt;icepyx.core.query.Query</title>
<path fill="none" stroke="black" d="M964.3,-174.63C963.97,-194.88 963.66,-217.38 963.5,-238 963.45,-244.67 962.59,-246.4 963.5,-253 963.78,-255.07 964.08,-257.14 964.39,-259.22"/>
<polygon fill="black" stroke="black" points="964.41,-259.34 969.31,-264.63 966.31,-271.19 961.41,-265.9 964.41,-259.34"/>
<text text-anchor="middle" x="1017.5" y="-241.8" font-family="Times,serif" font-size="14.00" fill="green">_subsetparams</text>
</g>
<!-- icepyx.core.APIformatting.Parameters&#45;&gt;icepyx.core.query.Query -->
<g id="edge6" class="edge">
<title>icepyx.core.APIformatting.Parameters&#45;&gt;icepyx.core.query.Query</title>
<path fill="none" stroke="black" d="M1033.07,-174.57C1048.7,-193.34 1063.18,-215.05 1071.5,-238 1074.02,-244.97 1076.02,-252.1 1077.56,-259.34"/>
<polygon fill="black" stroke="black" points="1077.57,-259.4 1082.54,-264.61 1079.64,-271.21 1074.67,-266 1077.57,-259.4"/>
<text text-anchor="middle" x="1129.5" y="-241.8" font-family="Times,serif" font-size="14.00" fill="green">_subsetparams</text>
</g>
<!-- icepyx.core.query.Query&#45;&gt;icepyx.core.query.GenQuery -->
<g id="edge2" class="edge">
<title>icepyx.core.query.Query&#45;&gt;icepyx.core.query.GenQuery</title>
<path fill="none" stroke="black" d="M1217.09,-592.98C1282.45,-628.55 1356.62,-667.64 1425.5,-701 1473.54,-724.27 1529.49,-748.14 1569.63,-764.72"/>
<polygon fill="none" stroke="black" points="1568.39,-768 1578.97,-768.57 1571.05,-761.52 1568.39,-768"/>
</g>
<!-- icepyx.core.read.Read -->
<g id="node9" class="node">
<title>icepyx.core.read.Read</title>
<polygon fill="none" stroke="black" points="1434.5,-436.5 1434.5,-535.5 1622.5,-535.5 1622.5,-436.5 1434.5,-436.5"/>
<text text-anchor="middle" x="1528.5" y="-520.3" font-family="Times,serif" font-size="14.00">Read</text>
<polyline fill="none" stroke="black" points="1434.5,-512.5 1622.5,-512.5 "/>
<text text-anchor="start" x="1442.5" y="-497.3" font-family="Times,serif" font-size="14.00">data_source : NoneType</text>
<text text-anchor="start" x="1442.5" y="-482.3" font-family="Times,serif" font-size="14.00">is2catalog</text>
<text text-anchor="start" x="1442.5" y="-467.3" font-family="Times,serif" font-size="14.00">vars</text>
<polyline fill="none" stroke="black" points="1434.5,-459.5 1622.5,-459.5 "/>
<text text-anchor="start" x="1442.5" y="-444.3" font-family="Times,serif" font-size="14.00">load()</text>
</g>
<!-- icepyx.core.spatial.Spatial -->
<g id="node10" class="node">
<title>icepyx.core.spatial.Spatial</title>
<polygon fill="none" stroke="black" points="1641,-421.5 1641,-550.5 1762,-550.5 1762,-421.5 1641,-421.5"/>
<text text-anchor="middle" x="1701.5" y="-535.3" font-family="Times,serif" font-size="14.00">Spatial</text>
<polyline fill="none" stroke="black" points="1641,-527.5 1762,-527.5 "/>
<text text-anchor="start" x="1649" y="-512.3" font-family="Times,serif" font-size="14.00">extent</text>
<text text-anchor="start" x="1649" y="-497.3" font-family="Times,serif" font-size="14.00">extent_as_gdf</text>
<text text-anchor="start" x="1649" y="-482.3" font-family="Times,serif" font-size="14.00">extent_file</text>
<text text-anchor="start" x="1649" y="-467.3" font-family="Times,serif" font-size="14.00">extent_type</text>
<polyline fill="none" stroke="black" points="1641,-459.5 1762,-459.5 "/>
<text text-anchor="start" x="1649" y="-444.3" font-family="Times,serif" font-size="14.00">fmt_for_CMR()</text>
<text text-anchor="start" x="1649" y="-429.3" font-family="Times,serif" font-size="14.00">fmt_for_EGI()</text>
</g>
<!-- icepyx.core.spatial.Spatial&#45;&gt;icepyx.core.query.GenQuery -->
<g id="edge9" class="edge">
<title>icepyx.core.spatial.Spatial&#45;&gt;icepyx.core.query.GenQuery</title>
<path fill="none" stroke="black" d="M1681.73,-550.52C1668.18,-593.25 1649.47,-650.76 1631.5,-701 1628.61,-709.08 1626.15,-710.58 1624.5,-719 1623.18,-725.77 1622.41,-732.99 1622.01,-740.11"/>
<polygon fill="black" stroke="black" points="1622.01,-740.27 1625.83,-746.38 1621.66,-752.26 1617.84,-746.15 1622.01,-740.27"/>
<text text-anchor="middle" x="1652" y="-722.8" font-family="Times,serif" font-size="14.00" fill="green">_spatial</text>
</g>
<!-- icepyx.core.spatial.Spatial&#45;&gt;icepyx.core.query.GenQuery -->
<g id="edge10" class="edge">
<title>icepyx.core.spatial.Spatial&#45;&gt;icepyx.core.query.GenQuery</title>
<path fill="none" stroke="black" d="M1707.93,-550.68C1710.41,-602.62 1707.49,-676.52 1679.5,-734 1678.05,-736.99 1676.34,-739.89 1674.46,-742.69"/>
<polygon fill="black" stroke="black" points="1674.27,-742.93 1673.76,-750.12 1666.92,-752.42 1667.44,-745.22 1674.27,-742.93"/>
<text text-anchor="middle" x="1713" y="-722.8" font-family="Times,serif" font-size="14.00" fill="green">_spatial</text>
</g>
<!-- icepyx.core.variables.Variables -->
<g id="node11" class="node">
<title>icepyx.core.variables.Variables</title>
<polygon fill="none" stroke="black" points="1169,-38 1169,-182 1544,-182 1544,-38 1169,-38"/>
<text text-anchor="middle" x="1356.5" y="-166.8" font-family="Times,serif" font-size="14.00">Variables</text>
<polyline fill="none" stroke="black" points="1169,-159 1544,-159 "/>
<text text-anchor="start" x="1177" y="-143.8" font-family="Times,serif" font-size="14.00">path : NoneType</text>
<text text-anchor="start" x="1177" y="-128.8" font-family="Times,serif" font-size="14.00">product : NoneType</text>
<text text-anchor="start" x="1177" y="-113.8" font-family="Times,serif" font-size="14.00">wanted : NoneType, dict</text>
<polyline fill="none" stroke="black" points="1169,-106 1544,-106 "/>
<text text-anchor="start" x="1177" y="-90.8" font-family="Times,serif" font-size="14.00">append(defaults, var_list, beam_list, keyword_list)</text>
<text text-anchor="start" x="1177" y="-75.8" font-family="Times,serif" font-size="14.00">avail(options, internal)</text>
<text text-anchor="start" x="1177" y="-60.8" font-family="Times,serif" font-size="14.00">parse_var_list(varlist, tiered, tiered_vars)</text>
<text text-anchor="start" x="1177" y="-45.8" font-family="Times,serif" font-size="14.00">remove(all, var_list, beam_list, keyword_list)</text>
</g>
<!-- icepyx.core.variables.Variables&#45;&gt;icepyx.core.query.Query -->
<g id="edge11" class="edge">
<title>icepyx.core.variables.Variables&#45;&gt;icepyx.core.query.Query</title>
<path fill="none" stroke="black" d="M1279.69,-182.27C1261.47,-200.04 1242.43,-219.35 1225.5,-238 1218.4,-245.82 1211.26,-253.86 1204.11,-262.04"/>
<polygon fill="black" stroke="black" points="1203.91,-262.28 1203,-269.43 1196.05,-271.34 1196.96,-264.19 1203.91,-262.28"/>
<text text-anchor="middle" x="1267.5" y="-241.8" font-family="Times,serif" font-size="14.00" fill="green">_order_vars</text>
</g>
<!-- icepyx.core.variables.Variables&#45;&gt;icepyx.core.query.Query -->
<g id="edge12" class="edge">
<title>icepyx.core.variables.Variables&#45;&gt;icepyx.core.query.Query</title>
<path fill="none" stroke="black" d="M1341.42,-182.14C1334.23,-206 1323.95,-231.89 1309.5,-253 1286.49,-286.62 1257.28,-318 1226.44,-346.15"/>
<polygon fill="black" stroke="black" points="1226.19,-346.37 1224.4,-353.36 1217.27,-354.39 1219.06,-347.41 1226.19,-346.37"/>
<text text-anchor="middle" x="1360.5" y="-241.8" font-family="Times,serif" font-size="14.00" fill="green">_order_vars</text>
</g>
<!-- icepyx.core.variables.Variables&#45;&gt;icepyx.core.query.Query -->
<g id="edge13" class="edge">
<title>icepyx.core.variables.Variables&#45;&gt;icepyx.core.query.Query</title>
<path fill="none" stroke="black" d="M1404.89,-182.05C1414.74,-205.4 1418.82,-230.99 1406.5,-253 1367.33,-323 1297.44,-374.45 1228.32,-410.85"/>
<polygon fill="black" stroke="black" points="1227.91,-411.07 1224.41,-417.37 1217.24,-416.57 1220.74,-410.26 1227.91,-411.07"/>
<text text-anchor="middle" x="1446" y="-241.8" font-family="Times,serif" font-size="14.00" fill="green">_file_vars</text>
</g>
<!-- icepyx.core.variables.Variables&#45;&gt;icepyx.core.read.Read -->
<g id="edge14" class="edge">
<title>icepyx.core.variables.Variables&#45;&gt;icepyx.core.read.Read</title>
<path fill="none" stroke="black" d="M1462.71,-182.2C1479.99,-198.51 1495.74,-217.25 1506.5,-238 1536.51,-295.85 1538.72,-371.64 1535.52,-423.93"/>
<polygon fill="black" stroke="black" points="1535.51,-424.06 1539.07,-430.33 1534.65,-436.03 1531.09,-429.76 1535.51,-424.06"/>
<text text-anchor="middle" x="1551" y="-241.8" font-family="Times,serif" font-size="14.00" fill="green">_read_vars</text>
</g>
<!-- icepyx.core.visualization.Visualize -->
<g id="node12" class="node">
<title>icepyx.core.visualization.Visualize</title>
<polygon fill="none" stroke="black" points="1917,-0.5 1917,-219.5 2246,-219.5 2246,-0.5 1917,-0.5"/>
<text text-anchor="middle" x="2081.5" y="-204.3" font-family="Times,serif" font-size="14.00">Visualize</text>
<polyline fill="none" stroke="black" points="1917,-196.5 2246,-196.5 "/>
<text text-anchor="start" x="1925" y="-181.3" font-family="Times,serif" font-size="14.00">bbox : list</text>
<text text-anchor="start" x="1925" y="-166.3" font-family="Times,serif" font-size="14.00">cycles : NoneType</text>
<text text-anchor="start" x="1925" y="-151.3" font-family="Times,serif" font-size="14.00">date_range : NoneType</text>
<text text-anchor="start" x="1925" y="-136.3" font-family="Times,serif" font-size="14.00">product : str, NoneType</text>
<text text-anchor="start" x="1925" y="-121.3" font-family="Times,serif" font-size="14.00">tracks : NoneType</text>
<polyline fill="none" stroke="black" points="1917,-113.5 2246,-113.5 "/>
<text text-anchor="start" x="1925" y="-98.3" font-family="Times,serif" font-size="14.00">generate_OA_parameters(): list</text>
<text text-anchor="start" x="1925" y="-83.3" font-family="Times,serif" font-size="14.00">grid_bbox(binsize): list</text>
<text text-anchor="start" x="1925" y="-68.3" font-family="Times,serif" font-size="14.00">make_request(base_url, payload)</text>
<text text-anchor="start" x="1925" y="-53.3" font-family="Times,serif" font-size="14.00">parallel_request_OA(): da.array</text>
<text text-anchor="start" x="1925" y="-38.3" font-family="Times,serif" font-size="14.00">query_icesat2_filelist(): tuple</text>
<text text-anchor="start" x="1925" y="-23.3" font-family="Times,serif" font-size="14.00">request_OA_data(paras): da.array</text>
<text text-anchor="start" x="1925" y="-8.3" font-family="Times,serif" font-size="14.00">viz_elevation(): (hv.DynamicMap, hv.Layout)</text>
</g>
</g>
</svg>
