<?xml version="1.0" encoding="UTF-8" standalone="no"?>
<!DOCTYPE svg PUBLIC "-//W3C//DTD SVG 1.1//EN"
 "http://www.w3.org/Graphics/SVG/1.1/DTD/svg11.dtd">
<!-- Generated by graphviz version 2.43.0 (0)
 -->
<!-- Title: packages_quest_user_uml Pages: 1 -->
<svg width="504pt" height="188pt"
 viewBox="0.00 0.00 503.50 188.00" xmlns="http://www.w3.org/2000/svg" xmlns:xlink="http://www.w3.org/1999/xlink">
<g id="graph0" class="graph" transform="scale(1 1) rotate(0) translate(4 184)">
<title>packages_quest_user_uml</title>
<polygon fill="white" stroke="transparent" points="-4,4 -4,-184 499.5,-184 499.5,4 -4,4"/>
<!-- icepyx.quest -->
<g id="node1" class="node">
<title>icepyx.quest</title>
<polygon fill="none" stroke="black" points="273.5,-36 166.5,-36 166.5,0 273.5,0 273.5,-36"/>
<text text-anchor="middle" x="220" y="-14.3" font-family="Times,serif" font-size="14.00">icepyx.quest</text>
</g>
<!-- icepyx.quest.dataset_scripts -->
<g id="node2" class="node">
<title>icepyx.quest.dataset_scripts</title>
<polygon fill="none" stroke="black" points="220,-108 0,-108 0,-72 220,-72 220,-108"/>
<text text-anchor="middle" x="110" y="-86.3" font-family="Times,serif" font-size="14.00">icepyx.quest.dataset_scripts</text>
</g>
<!-- icepyx.quest.dataset_scripts.dataset -->
<g id="node4" class="node">
<title>icepyx.quest.dataset_scripts.dataset</title>
<polygon fill="none" stroke="black" points="377,-180 99,-180 99,-144 377,-144 377,-180"/>
<text text-anchor="middle" x="238" y="-158.3" font-family="Times,serif" font-size="14.00">icepyx.quest.dataset_scripts.dataset</text>
</g>
<!-- icepyx.quest.dataset_scripts&#45;&gt;icepyx.quest.dataset_scripts.dataset -->
<g id="edge1" class="edge">
<title>icepyx.quest.dataset_scripts&#45;&gt;icepyx.quest.dataset_scripts.dataset</title>
<path fill="none" stroke="black" d="M141.31,-108.12C158.2,-117.36 179.25,-128.87 197.38,-138.79"/>
<polygon fill="black" stroke="black" points="206.57,-143.81 195.63,-142.96 202.18,-141.41 197.79,-139.01 197.79,-139.01 197.79,-139.01 202.18,-141.41 199.95,-135.06 206.57,-143.81 206.57,-143.81"/>
</g>
<!-- icepyx.quest.dataset_scripts.argo -->
<g id="node3" class="node">
<title>icepyx.quest.dataset_scripts.argo</title>
<polygon fill="none" stroke="black" points="495.5,-108 238.5,-108 238.5,-72 495.5,-72 495.5,-108"/>
<text text-anchor="middle" x="367" y="-86.3" font-family="Times,serif" font-size="14.00">icepyx.quest.dataset_scripts.argo</text>
</g>
<!-- icepyx.quest.dataset_scripts.argo&#45;&gt;icepyx.quest.dataset_scripts.dataset -->
<g id="edge2" class="edge">
<title>icepyx.quest.dataset_scripts.argo&#45;&gt;icepyx.quest.dataset_scripts.dataset</title>
<path fill="none" stroke="black" d="M335.44,-108.12C318.34,-117.4 297.02,-128.97 278.68,-138.92"/>
<polygon fill="black" stroke="black" points="269.68,-143.81 276.32,-135.09 274.07,-141.43 278.47,-139.04 278.47,-139.04 278.47,-139.04 274.07,-141.43 280.61,-143 269.68,-143.81 269.68,-143.81"/>
</g>
<!-- icepyx.quest.quest -->
<g id="node5" class="node">
<title>icepyx.quest.quest</title>
<polygon fill="none" stroke="black" points="442.5,-36 291.5,-36 291.5,0 442.5,0 442.5,-36"/>
<text text-anchor="middle" x="367" y="-14.3" font-family="Times,serif" font-size="14.00">icepyx.quest.quest</text>
</g>
<!-- icepyx.quest.quest&#45;&gt;icepyx.quest.dataset_scripts.argo -->
<g id="edge3" class="edge">
<title>icepyx.quest.quest&#45;&gt;icepyx.quest.dataset_scripts.argo</title>
<path fill="none" stroke="black" d="M367,-36.3C367,-44.02 367,-53.29 367,-61.89"/>
<polygon fill="black" stroke="black" points="367,-71.9 362.5,-61.9 367,-66.9 367,-61.9 367,-61.9 367,-61.9 367,-66.9 371.5,-61.9 367,-71.9 367,-71.9"/>
</g>
</g>
</svg>
