<?xml version="1.0" encoding="UTF-8" standalone="no"?>
<!DOCTYPE svg PUBLIC "-//W3C//DTD SVG 1.1//EN"
 "http://www.w3.org/Graphics/SVG/1.1/DTD/svg11.dtd">
<!-- Generated by graphviz version 2.43.0 (0)
 -->
<!-- Title: packages_user_uml Pages: 1 -->
<svg width="1708pt" height="188pt"
 viewBox="0.00 0.00 1707.50 188.00" xmlns="http://www.w3.org/2000/svg" xmlns:xlink="http://www.w3.org/1999/xlink">
<g id="graph0" class="graph" transform="scale(1 1) rotate(0) translate(4 184)">
<title>packages_user_uml</title>
<polygon fill="white" stroke="transparent" points="-4,4 -4,-184 1703.5,-184 1703.5,4 -4,4"/>
<!-- icepyx.core -->
<g id="node1" class="node">
<title>icepyx.core</title>
<polygon fill="none" stroke="black" points="98,-36 0,-36 0,0 98,0 98,-36"/>
<text text-anchor="middle" x="49" y="-14.3" font-family="Times,serif" font-size="14.00">icepyx.core</text>
</g>
<!-- icepyx.core.APIformatting -->
<g id="node2" class="node">
<title>icepyx.core.APIformatting</title>
<polygon fill="none" stroke="black" points="319.5,-36 116.5,-36 116.5,0 319.5,0 319.5,-36"/>
<text text-anchor="middle" x="218" y="-14.3" font-family="Times,serif" font-size="14.00">icepyx.core.APIformatting</text>
</g>
<!-- icepyx.core.auth -->
<g id="node3" class="node">
<title>icepyx.core.auth</title>
<polygon fill="none" stroke="black" points="609,-180 475,-180 475,-144 609,-144 609,-180"/>
<text text-anchor="middle" x="542" y="-158.3" font-family="Times,serif" font-size="14.00">icepyx.core.auth</text>
</g>
<!-- icepyx.core.exceptions -->
<g id="node4" class="node">
<title>icepyx.core.exceptions</title>
<polygon fill="none" stroke="black" points="456.5,-180 277.5,-180 277.5,-144 456.5,-144 456.5,-180"/>
<text text-anchor="middle" x="367" y="-158.3" font-family="Times,serif" font-size="14.00">icepyx.core.exceptions</text>
</g>
<!-- icepyx.core.granules -->
<g id="node5" class="node">
<title>icepyx.core.granules</title>
<polygon fill="none" stroke="black" points="819,-108 655,-108 655,-72 819,-72 819,-108"/>
<text text-anchor="middle" x="737" y="-86.3" font-family="Times,serif" font-size="14.00">icepyx.core.granules</text>
</g>
<!-- icepyx.core.icesat2data -->
<g id="node6" class="node">
<title>icepyx.core.icesat2data</title>
<polygon fill="none" stroke="black" points="956.5,-36 771.5,-36 771.5,0 956.5,0 956.5,-36"/>
<text text-anchor="middle" x="864" y="-14.3" font-family="Times,serif" font-size="14.00">icepyx.core.icesat2data</text>
</g>
<!-- icepyx.core.is2ref -->
<g id="node7" class="node">
<title>icepyx.core.is2ref</title>
<polygon fill="none" stroke="black" points="1117.5,-36 974.5,-36 974.5,0 1117.5,0 1117.5,-36"/>
<text text-anchor="middle" x="1046" y="-14.3" font-family="Times,serif" font-size="14.00">icepyx.core.is2ref</text>
</g>
<!-- icepyx.core.query -->
<g id="node8" class="node">
<title>icepyx.core.query</title>
<polygon fill="none" stroke="black" points="753.5,-36 610.5,-36 610.5,0 753.5,0 753.5,-36"/>
<text text-anchor="middle" x="682" y="-14.3" font-family="Times,serif" font-size="14.00">icepyx.core.query</text>
</g>
<!-- icepyx.core.query&#45;&gt;icepyx.core.auth -->
<g id="edge1" class="edge">
<title>icepyx.core.query&#45;&gt;icepyx.core.auth</title>
<path fill="none" stroke="black" d="M669.55,-36.32C655.76,-54.97 632.38,-85.03 609,-108 598.36,-118.46 585.74,-128.88 574.33,-137.68"/>
<polygon fill="black" stroke="black" points="566.29,-143.78 571.54,-134.15 570.27,-140.75 574.26,-137.73 574.26,-137.73 574.26,-137.73 570.27,-140.75 576.98,-141.32 566.29,-143.78 566.29,-143.78"/>
</g>
<!-- icepyx.core.query&#45;&gt;icepyx.core.granules -->
<g id="edge2" class="edge">
<title>icepyx.core.query&#45;&gt;icepyx.core.granules</title>
<path fill="none" stroke="black" d="M695.6,-36.3C702.12,-44.61 710.07,-54.72 717.25,-63.86"/>
<polygon fill="black" stroke="black" points="723.56,-71.9 713.84,-66.81 720.47,-67.96 717.38,-64.03 717.38,-64.03 717.38,-64.03 720.47,-67.96 720.92,-61.25 723.56,-71.9 723.56,-71.9"/>
</g>
<!-- icepyx.core.variables -->
<g id="node13" class="node">
<title>icepyx.core.variables</title>
<polygon fill="none" stroke="black" points="599.5,-108 432.5,-108 432.5,-72 599.5,-72 599.5,-108"/>
<text text-anchor="middle" x="516" y="-86.3" font-family="Times,serif" font-size="14.00">icepyx.core.variables</text>
</g>
<!-- icepyx.core.query&#45;&gt;icepyx.core.variables -->
<g id="edge3" class="edge">
<title>icepyx.core.query&#45;&gt;icepyx.core.variables</title>
<path fill="none" stroke="black" d="M641.39,-36.12C618.6,-45.74 589.97,-57.81 565.83,-67.99"/>
<polygon fill="black" stroke="black" points="556.48,-71.93 563.94,-63.9 561.08,-69.99 565.69,-68.05 565.69,-68.05 565.69,-68.05 561.08,-69.99 567.44,-72.19 556.48,-71.93 556.48,-71.93"/>
</g>
<!-- icepyx.core.visualization -->
<g id="node14" class="node">
<title>icepyx.core.visualization</title>
<polygon fill="none" stroke="black" points="1029,-108 837,-108 837,-72 1029,-72 1029,-108"/>
<text text-anchor="middle" x="933" y="-86.3" font-family="Times,serif" font-size="14.00">icepyx.core.visualization</text>
</g>
<!-- icepyx.core.query&#45;&gt;icepyx.core.visualization -->
<g id="edge4" class="edge">
<title>icepyx.core.query&#45;&gt;icepyx.core.visualization</title>
<path fill="none" stroke="black" d="M743.08,-36.03C778.91,-46.03 824.36,-58.7 861.81,-69.15"/>
<polygon fill="black" stroke="black" points="871.65,-71.89 860.8,-73.54 866.83,-70.55 862.01,-69.2 862.01,-69.2 862.01,-69.2 866.83,-70.55 863.22,-64.87 871.65,-71.89 871.65,-71.89"/>
</g>
<!-- icepyx.core.read -->
<g id="node9" class="node">
<title>icepyx.core.read</title>
<polygon fill="none" stroke="black" points="472,-36 338,-36 338,0 472,0 472,-36"/>
<text text-anchor="middle" x="405" y="-14.3" font-family="Times,serif" font-size="14.00">icepyx.core.read</text>
</g>
<!-- icepyx.core.read&#45;&gt;icepyx.core.auth -->
<g id="edge5" class="edge">
<title>icepyx.core.read&#45;&gt;icepyx.core.auth</title>
<path fill="none" stroke="black" d="M404.28,-36C404.35,-55.48 407.32,-87.35 424,-108 435.09,-121.73 450.49,-132.02 466.51,-139.7"/>
<polygon fill="black" stroke="black" points="475.98,-143.92 465.02,-143.96 471.41,-141.88 466.85,-139.85 466.85,-139.85 466.85,-139.85 471.41,-141.88 468.68,-135.74 475.98,-143.92 475.98,-143.92"/>
</g>
<!-- icepyx.core.read&#45;&gt;icepyx.core.exceptions -->
<g id="edge6" class="edge">
<title>icepyx.core.read&#45;&gt;icepyx.core.exceptions</title>
<path fill="none" stroke="black" d="M400.42,-36.13C393.91,-60.44 381.94,-105.18 374.23,-133.99"/>
<polygon fill="black" stroke="black" points="371.6,-143.81 369.84,-132.99 372.89,-138.98 374.19,-134.15 374.19,-134.15 374.19,-134.15 372.89,-138.98 378.53,-135.31 371.6,-143.81 371.6,-143.81"/>
</g>
<!-- icepyx.core.read&#45;&gt;icepyx.core.variables -->
<g id="edge7" class="edge">
<title>icepyx.core.read&#45;&gt;icepyx.core.variables</title>
<path fill="none" stroke="black" d="M432.15,-36.12C446.53,-45.19 464.38,-56.45 479.91,-66.24"/>
<polygon fill="black" stroke="black" points="488.74,-71.81 477.88,-70.28 484.51,-69.14 480.28,-66.48 480.28,-66.48 480.28,-66.48 484.51,-69.14 482.68,-62.67 488.74,-71.81 488.74,-71.81"/>
</g>
<!-- icepyx.core.spatial -->
<g id="node10" class="node">
<title>icepyx.core.spatial</title>
<polygon fill="none" stroke="black" points="1286,-36 1136,-36 1136,0 1286,0 1286,-36"/>
<text text-anchor="middle" x="1211" y="-14.3" font-family="Times,serif" font-size="14.00">icepyx.core.spatial</text>
</g>
<!-- icepyx.core.temporal -->
<g id="node11" class="node">
<title>icepyx.core.temporal</title>
<polygon fill="none" stroke="black" points="1470.5,-36 1303.5,-36 1303.5,0 1470.5,0 1470.5,-36"/>
<text text-anchor="middle" x="1387" y="-14.3" font-family="Times,serif" font-size="14.00">icepyx.core.temporal</text>
</g>
<!-- icepyx.core.validate_inputs -->
<g id="node12" class="node">
<title>icepyx.core.validate_inputs</title>
<polygon fill="none" stroke="black" points="1699.5,-36 1488.5,-36 1488.5,0 1699.5,0 1699.5,-36"/>
<text text-anchor="middle" x="1594" y="-14.3" font-family="Times,serif" font-size="14.00">icepyx.core.validate_inputs</text>
</g>
<!-- icepyx.core.variables&#45;&gt;icepyx.core.auth -->
<g id="edge8" class="edge">
<title>icepyx.core.variables&#45;&gt;icepyx.core.auth</title>
<path fill="none" stroke="black" d="M522.43,-108.3C525.36,-116.19 528.89,-125.7 532.14,-134.45"/>
<polygon fill="black" stroke="black" points="535.65,-143.9 527.95,-136.09 533.91,-139.21 532.17,-134.52 532.17,-134.52 532.17,-134.52 533.91,-139.21 536.38,-132.95 535.65,-143.9 535.65,-143.9"/>
</g>
<!-- icepyx.core.variables&#45;&gt;icepyx.core.exceptions -->
<g id="edge9" class="edge">
<title>icepyx.core.variables&#45;&gt;icepyx.core.exceptions</title>
<path fill="none" stroke="black" d="M479.55,-108.12C459.36,-117.61 434.08,-129.49 412.59,-139.58"/>
<polygon fill="black" stroke="black" points="403.33,-143.93 410.47,-135.61 407.86,-141.81 412.38,-139.68 412.38,-139.68 412.38,-139.68 407.86,-141.81 414.3,-143.75 403.33,-143.93 403.33,-143.93"/>
</g>
</g>
</svg>
