<?xml version="1.0" encoding="UTF-8" standalone="no"?>
<!DOCTYPE svg PUBLIC "-//W3C//DTD SVG 1.1//EN"
 "http://www.w3.org/Graphics/SVG/1.1/DTD/svg11.dtd">
<!-- Generated by graphviz version 2.43.0 (0)
 -->
<!-- Title: packages_user_uml Pages: 1 -->
<svg width="1661pt" height="260pt"
 viewBox="0.00 0.00 1660.50 260.00" xmlns="http://www.w3.org/2000/svg" xmlns:xlink="http://www.w3.org/1999/xlink">
<g id="graph0" class="graph" transform="scale(1 1) rotate(0) translate(4 256)">
<title>packages_user_uml</title>
<polygon fill="white" stroke="transparent" points="-4,4 -4,-256 1656.5,-256 1656.5,4 -4,4"/>
<!-- icepyx.core -->
<g id="node1" class="node">
<title>icepyx.core</title>
<polygon fill="none" stroke="black" points="98,-36 0,-36 0,0 98,0 98,-36"/>
<text text-anchor="middle" x="49" y="-14.3" font-family="Times,serif" font-size="14.00">icepyx.core</text>
</g>
<!-- icepyx.core.APIformatting -->
<g id="node2" class="node">
<title>icepyx.core.APIformatting</title>
<polygon fill="none" stroke="black" points="319.5,-36 116.5,-36 116.5,0 319.5,0 319.5,-36"/>
<text text-anchor="middle" x="218" y="-14.3" font-family="Times,serif" font-size="14.00">icepyx.core.APIformatting</text>
</g>
<!-- icepyx.core.auth -->
<g id="node3" class="node">
<title>icepyx.core.auth</title>
<polygon fill="none" stroke="black" points="703,-180 569,-180 569,-144 703,-144 703,-180"/>
<text text-anchor="middle" x="636" y="-158.3" font-family="Times,serif" font-size="14.00">icepyx.core.auth</text>
</g>
<!-- icepyx.core.exceptions -->
<g id="node4" class="node">
<title>icepyx.core.exceptions</title>
<polygon fill="none" stroke="black" points="725.5,-252 546.5,-252 546.5,-216 725.5,-216 725.5,-252"/>
<text text-anchor="middle" x="636" y="-230.3" font-family="Times,serif" font-size="14.00">icepyx.core.exceptions</text>
</g>
<!-- icepyx.core.auth&#45;&gt;icepyx.core.exceptions -->
<g id="edge1" class="edge">
<title>icepyx.core.auth&#45;&gt;icepyx.core.exceptions</title>
<path fill="none" stroke="black" d="M636,-180.3C636,-188.02 636,-197.29 636,-205.89"/>
<polygon fill="black" stroke="black" points="636,-215.9 631.5,-205.9 636,-210.9 636,-205.9 636,-205.9 636,-205.9 636,-210.9 640.5,-205.9 636,-215.9 636,-215.9"/>
</g>
<!-- icepyx.core.granules -->
<g id="node5" class="node">
<title>icepyx.core.granules</title>
<polygon fill="none" stroke="black" points="381,-108 217,-108 217,-72 381,-72 381,-108"/>
<text text-anchor="middle" x="299" y="-86.3" font-family="Times,serif" font-size="14.00">icepyx.core.granules</text>
</g>
<!-- icepyx.core.granules&#45;&gt;icepyx.core.auth -->
<g id="edge2" class="edge">
<title>icepyx.core.granules&#45;&gt;icepyx.core.auth</title>
<path fill="none" stroke="black" d="M381.04,-107.37C432.25,-117.68 499.52,-131.37 559,-144 559.1,-144.02 559.2,-144.04 559.3,-144.06"/>
<polygon fill="black" stroke="black" points="568.82,-146.1 558.1,-148.41 563.93,-145.06 559.04,-144.01 559.04,-144.01 559.04,-144.01 563.93,-145.06 559.99,-139.61 568.82,-146.1 568.82,-146.1"/>
</g>
<!-- icepyx.core.icesat2data -->
<g id="node6" class="node">
<title>icepyx.core.icesat2data</title>
<polygon fill="none" stroke="black" points="550.5,-180 365.5,-180 365.5,-144 550.5,-144 550.5,-180"/>
<text text-anchor="middle" x="458" y="-158.3" font-family="Times,serif" font-size="14.00">icepyx.core.icesat2data</text>
</g>
<!-- icepyx.core.icesat2data&#45;&gt;icepyx.core.exceptions -->
<g id="edge3" class="edge">
<title>icepyx.core.icesat2data&#45;&gt;icepyx.core.exceptions</title>
<path fill="none" stroke="black" d="M501.54,-180.12C526.2,-189.82 557.22,-202.02 583.25,-212.26"/>
<polygon fill="black" stroke="black" points="592.6,-215.93 581.64,-216.46 587.94,-214.1 583.29,-212.27 583.29,-212.27 583.29,-212.27 587.94,-214.1 584.94,-208.08 592.6,-215.93 592.6,-215.93"/>
</g>
<!-- icepyx.core.is2ref -->
<g id="node7" class="node">
<title>icepyx.core.is2ref</title>
<polygon fill="none" stroke="black" points="1070.5,-36 927.5,-36 927.5,0 1070.5,0 1070.5,-36"/>
<text text-anchor="middle" x="999" y="-14.3" font-family="Times,serif" font-size="14.00">icepyx.core.is2ref</text>
</g>
<!-- icepyx.core.query -->
<g id="node8" class="node">
<title>icepyx.core.query</title>
<polygon fill="none" stroke="black" points="480.5,-36 337.5,-36 337.5,0 480.5,0 480.5,-36"/>
<text text-anchor="middle" x="409" y="-14.3" font-family="Times,serif" font-size="14.00">icepyx.core.query</text>
</g>
<!-- icepyx.core.query&#45;&gt;icepyx.core.auth -->
<g id="edge4" class="edge">
<title>icepyx.core.query&#45;&gt;icepyx.core.auth</title>
<path fill="none" stroke="black" d="M407.68,-36.18C407.14,-56.13 409.49,-88.75 428,-108 432.78,-112.98 501.72,-129.95 558.93,-143.36"/>
<polygon fill="black" stroke="black" points="568.73,-145.65 557.97,-147.76 563.86,-144.51 558.99,-143.38 558.99,-143.38 558.99,-143.38 563.86,-144.51 560.02,-138.99 568.73,-145.65 568.73,-145.65"/>
</g>
<!-- icepyx.core.query&#45;&gt;icepyx.core.exceptions -->
<g id="edge5" class="edge">
<title>icepyx.core.query&#45;&gt;icepyx.core.exceptions</title>
<path fill="none" stroke="black" d="M337.39,-35.71C281.34,-49.13 212.16,-66.6 208,-72 198.23,-84.67 199.51,-94.44 208,-108 243,-163.96 421.29,-200.83 536.44,-219.22"/>
<polygon fill="black" stroke="black" points="546.34,-220.78 535.76,-223.66 541.4,-220 536.46,-219.22 536.46,-219.22 536.46,-219.22 541.4,-220 537.16,-214.77 546.34,-220.78 546.34,-220.78"/>
</g>
<!-- icepyx.core.query&#45;&gt;icepyx.core.granules -->
<g id="edge6" class="edge">
<title>icepyx.core.query&#45;&gt;icepyx.core.granules</title>
<path fill="none" stroke="black" d="M382.09,-36.12C367.84,-45.19 350.15,-56.45 334.76,-66.24"/>
<polygon fill="black" stroke="black" points="326.01,-71.81 332.03,-62.64 330.23,-69.13 334.45,-66.44 334.45,-66.44 334.45,-66.44 330.23,-69.13 336.87,-70.24 326.01,-71.81 326.01,-71.81"/>
</g>
<!-- icepyx.core.variables -->
<g id="node13" class="node">
<title>icepyx.core.variables</title>
<polygon fill="none" stroke="black" points="814.5,-108 647.5,-108 647.5,-72 814.5,-72 814.5,-108"/>
<text text-anchor="middle" x="731" y="-86.3" font-family="Times,serif" font-size="14.00">icepyx.core.variables</text>
</g>
<!-- icepyx.core.query&#45;&gt;icepyx.core.variables -->
<g id="edge7" class="edge">
<title>icepyx.core.query&#45;&gt;icepyx.core.variables</title>
<path fill="none" stroke="black" d="M480.86,-34.62C528.65,-45.01 591.73,-58.72 642.59,-69.78"/>
<polygon fill="black" stroke="black" points="652.59,-71.96 641.87,-74.23 647.71,-70.89 642.82,-69.83 642.82,-69.83 642.82,-69.83 647.71,-70.89 643.78,-65.43 652.59,-71.96 652.59,-71.96"/>
</g>
<!-- icepyx.core.visualization -->
<g id="node14" class="node">
<title>icepyx.core.visualization</title>
<polygon fill="none" stroke="black" points="629,-108 437,-108 437,-72 629,-72 629,-108"/>
<text text-anchor="middle" x="533" y="-86.3" font-family="Times,serif" font-size="14.00">icepyx.core.visualization</text>
</g>
<!-- icepyx.core.query&#45;&gt;icepyx.core.visualization -->
<g id="edge8" class="edge">
<title>icepyx.core.query&#45;&gt;icepyx.core.visualization</title>
<path fill="none" stroke="black" d="M439.33,-36.12C455.7,-45.36 476.08,-56.87 493.65,-66.79"/>
<polygon fill="black" stroke="black" points="502.55,-71.81 491.63,-70.81 498.2,-69.35 493.84,-66.89 493.84,-66.89 493.84,-66.89 498.2,-69.35 496.05,-62.98 502.55,-71.81 502.55,-71.81"/>
</g>
<!-- icepyx.core.read -->
<g id="node9" class="node">
<title>icepyx.core.read</title>
<polygon fill="none" stroke="black" points="909,-36 775,-36 775,0 909,0 909,-36"/>
<text text-anchor="middle" x="842" y="-14.3" font-family="Times,serif" font-size="14.00">icepyx.core.read</text>
</g>
<!-- icepyx.core.read&#45;&gt;icepyx.core.auth -->
<g id="edge9" class="edge">
<title>icepyx.core.read&#45;&gt;icepyx.core.auth</title>
<path fill="none" stroke="black" d="M843.23,-36.1C843.68,-55.96 841.25,-88.51 823,-108 794.95,-137.96 751.34,-151.42 713.29,-157.29"/>
<polygon fill="black" stroke="black" points="703.24,-158.69 712.52,-152.85 708.19,-158 713.14,-157.31 713.14,-157.31 713.14,-157.31 708.19,-158 713.76,-161.76 703.24,-158.69 703.24,-158.69"/>
</g>
<!-- icepyx.core.read&#45;&gt;icepyx.core.exceptions -->
<g id="edge10" class="edge">
<title>icepyx.core.read&#45;&gt;icepyx.core.exceptions</title>
<path fill="none" stroke="black" d="M847.81,-36.26C853.06,-55.12 858.27,-85.63 846,-108 816.92,-161.01 755.15,-193.73 706.09,-212.33"/>
<polygon fill="black" stroke="black" points="696.46,-215.87 704.3,-208.2 701.15,-214.14 705.85,-212.42 705.85,-212.42 705.85,-212.42 701.15,-214.14 707.4,-216.65 696.46,-215.87 696.46,-215.87"/>
</g>
<!-- icepyx.core.read&#45;&gt;icepyx.core.variables -->
<g id="edge11" class="edge">
<title>icepyx.core.read&#45;&gt;icepyx.core.variables</title>
<path fill="none" stroke="black" d="M814.85,-36.12C800.47,-45.19 782.62,-56.45 767.09,-66.24"/>
<polygon fill="black" stroke="black" points="758.26,-71.81 764.32,-62.67 762.49,-69.14 766.72,-66.48 766.72,-66.48 766.72,-66.48 762.49,-69.14 769.12,-70.28 758.26,-71.81 758.26,-71.81"/>
</g>
<!-- icepyx.core.spatial -->
<g id="node10" class="node">
<title>icepyx.core.spatial</title>
<polygon fill="none" stroke="black" points="1239,-36 1089,-36 1089,0 1239,0 1239,-36"/>
<text text-anchor="middle" x="1164" y="-14.3" font-family="Times,serif" font-size="14.00">icepyx.core.spatial</text>
</g>
<!-- icepyx.core.temporal -->
<g id="node11" class="node">
<title>icepyx.core.temporal</title>
<polygon fill="none" stroke="black" points="1423.5,-36 1256.5,-36 1256.5,0 1423.5,0 1423.5,-36"/>
<text text-anchor="middle" x="1340" y="-14.3" font-family="Times,serif" font-size="14.00">icepyx.core.temporal</text>
</g>
<!-- icepyx.core.validate_inputs -->
<g id="node12" class="node">
<title>icepyx.core.validate_inputs</title>
<polygon fill="none" stroke="black" points="1652.5,-36 1441.5,-36 1441.5,0 1652.5,0 1652.5,-36"/>
<text text-anchor="middle" x="1547" y="-14.3" font-family="Times,serif" font-size="14.00">icepyx.core.validate_inputs</text>
</g>
<!-- icepyx.core.variables&#45;&gt;icepyx.core.auth -->
<g id="edge12" class="edge">
<title>icepyx.core.variables&#45;&gt;icepyx.core.auth</title>
<path fill="none" stroke="black" d="M707.52,-108.3C695.44,-117.2 680.55,-128.18 667.48,-137.8"/>
<polygon fill="black" stroke="black" points="659.21,-143.9 664.59,-134.34 663.24,-140.93 667.26,-137.96 667.26,-137.96 667.26,-137.96 663.24,-140.93 669.93,-141.59 659.21,-143.9 659.21,-143.9"/>
</g>
<!-- icepyx.core.variables&#45;&gt;icepyx.core.exceptions -->
<g id="edge13" class="edge">
<title>icepyx.core.variables&#45;&gt;icepyx.core.exceptions</title>
<path fill="none" stroke="black" d="M730.98,-108.16C730.19,-127.21 726.51,-158.15 712,-180 703.98,-192.08 692.19,-202.22 680.27,-210.29"/>
<polygon fill="black" stroke="black" points="671.63,-215.8 677.64,-206.63 675.85,-213.12 680.06,-210.43 680.06,-210.43 680.06,-210.43 675.85,-213.12 682.48,-214.22 671.63,-215.8 671.63,-215.8"/>
</g>
</g>
</svg>
