<?xml version="1.0" encoding="UTF-8" standalone="no"?>
<!DOCTYPE svg PUBLIC "-//W3C//DTD SVG 1.1//EN"
 "http://www.w3.org/Graphics/SVG/1.1/DTD/svg11.dtd">
<!-- Generated by graphviz version 2.43.0 (0)
 -->
<!-- Title: packages_user_uml Pages: 1 -->
<svg width="1183pt" height="260pt"
 viewBox="0.00 0.00 1182.50 260.00" xmlns="http://www.w3.org/2000/svg" xmlns:xlink="http://www.w3.org/1999/xlink">
<g id="graph0" class="graph" transform="scale(1 1) rotate(0) translate(4 256)">
<title>packages_user_uml</title>
<polygon fill="white" stroke="transparent" points="-4,4 -4,-256 1178.5,-256 1178.5,4 -4,4"/>
<!-- icepyx.core -->
<g id="node1" class="node">
<title>icepyx.core</title>
<polygon fill="none" stroke="black" points="431,-36 333,-36 333,0 431,0 431,-36"/>
<text text-anchor="middle" x="382" y="-14.3" font-family="Times,serif" font-size="14.00">icepyx.core</text>
</g>
<!-- icepyx.core.APIformatting -->
<g id="node2" class="node">
<title>icepyx.core.APIformatting</title>
<polygon fill="none" stroke="black" points="679.5,-180 476.5,-180 476.5,-144 679.5,-144 679.5,-180"/>
<text text-anchor="middle" x="578" y="-158.3" font-family="Times,serif" font-size="14.00">icepyx.core.APIformatting</text>
</g>
<!-- icepyx.core.exceptions -->
<g id="node4" class="node">
<title>icepyx.core.exceptions</title>
<polygon fill="none" stroke="black" points="670.5,-252 491.5,-252 491.5,-216 670.5,-216 670.5,-252"/>
<text text-anchor="middle" x="581" y="-230.3" font-family="Times,serif" font-size="14.00">icepyx.core.exceptions</text>
</g>
<!-- icepyx.core.APIformatting&#45;&gt;icepyx.core.exceptions -->
<g id="edge1" class="edge">
<title>icepyx.core.APIformatting&#45;&gt;icepyx.core.exceptions</title>
<path fill="none" stroke="black" d="M578.74,-180.3C579.07,-188.02 579.47,-197.29 579.84,-205.89"/>
<polygon fill="black" stroke="black" points="580.27,-215.9 575.34,-206.1 580.05,-210.9 579.84,-205.9 579.84,-205.9 579.84,-205.9 580.05,-210.9 584.33,-205.71 580.27,-215.9 580.27,-215.9"/>
</g>
<!-- icepyx.core.types -->
<g id="node13" class="node">
<title>icepyx.core.types</title>
<polygon fill="none" stroke="black" points="850.5,-252 709.5,-252 709.5,-216 850.5,-216 850.5,-252"/>
<text text-anchor="middle" x="780" y="-230.3" font-family="Times,serif" font-size="14.00">icepyx.core.types</text>
</g>
<!-- icepyx.core.APIformatting&#45;&gt;icepyx.core.types -->
<g id="edge2" class="edge">
<title>icepyx.core.APIformatting&#45;&gt;icepyx.core.types</title>
<path fill="none" stroke="black" d="M627.16,-180.03C655.5,-189.86 691.32,-202.27 721.16,-212.61"/>
<polygon fill="black" stroke="black" points="730.62,-215.89 719.7,-216.87 725.9,-214.25 721.17,-212.61 721.17,-212.61 721.17,-212.61 725.9,-214.25 722.65,-208.36 730.62,-215.89 730.62,-215.89"/>
</g>
<!-- icepyx.core.auth -->
<g id="node3" class="node">
<title>icepyx.core.auth</title>
<polygon fill="none" stroke="black" points="473,-252 339,-252 339,-216 473,-216 473,-252"/>
<text text-anchor="middle" x="406" y="-230.3" font-family="Times,serif" font-size="14.00">icepyx.core.auth</text>
</g>
<!-- icepyx.core.granules -->
<g id="node5" class="node">
<title>icepyx.core.granules</title>
<polygon fill="none" stroke="black" points="862,-180 698,-180 698,-144 862,-144 862,-180"/>
<text text-anchor="middle" x="780" y="-158.3" font-family="Times,serif" font-size="14.00">icepyx.core.granules</text>
</g>
<!-- icepyx.core.granules&#45;&gt;icepyx.core.auth -->
<g id="edge3" class="edge">
<title>icepyx.core.granules&#45;&gt;icepyx.core.auth</title>
<path fill="none" stroke="black" d="M697.67,-178.43C694.74,-178.96 691.85,-179.49 689,-180 597.54,-196.53 574.18,-197.98 483,-216 482.9,-216.02 482.8,-216.04 482.7,-216.06"/>
<polygon fill="black" stroke="black" points="473.16,-217.99 482.06,-211.6 478.06,-217 482.96,-216.01 482.96,-216.01 482.96,-216.01 478.06,-217 483.85,-220.42 473.16,-217.99 473.16,-217.99"/>
</g>
<!-- icepyx.core.granules&#45;&gt;icepyx.core.types -->
<g id="edge4" class="edge">
<title>icepyx.core.granules&#45;&gt;icepyx.core.types</title>
<path fill="none" stroke="black" d="M780,-180.3C780,-188.02 780,-197.29 780,-205.89"/>
<polygon fill="black" stroke="black" points="780,-215.9 775.5,-205.9 780,-210.9 780,-205.9 780,-205.9 780,-205.9 780,-210.9 784.5,-205.9 780,-215.9 780,-215.9"/>
</g>
<!-- icepyx.core.urls -->
<g id="node14" class="node">
<title>icepyx.core.urls</title>
<polygon fill="none" stroke="black" points="1027,-252 897,-252 897,-216 1027,-216 1027,-252"/>
<text text-anchor="middle" x="962" y="-230.3" font-family="Times,serif" font-size="14.00">icepyx.core.urls</text>
</g>
<!-- icepyx.core.granules&#45;&gt;icepyx.core.urls -->
<g id="edge5" class="edge">
<title>icepyx.core.granules&#45;&gt;icepyx.core.urls</title>
<path fill="none" stroke="black" d="M824.52,-180.12C849.73,-189.82 881.45,-202.02 908.07,-212.26"/>
<polygon fill="black" stroke="black" points="917.62,-215.93 906.67,-216.54 912.96,-214.14 908.29,-212.34 908.29,-212.34 908.29,-212.34 912.96,-214.14 909.9,-208.14 917.62,-215.93 917.62,-215.93"/>
</g>
<!-- icepyx.core.harmony -->
<g id="node6" class="node">
<title>icepyx.core.harmony</title>
<polygon fill="none" stroke="black" points="603.5,-108 438.5,-108 438.5,-72 603.5,-72 603.5,-108"/>
<text text-anchor="middle" x="521" y="-86.3" font-family="Times,serif" font-size="14.00">icepyx.core.harmony</text>
</g>
<!-- icepyx.core.harmony&#45;&gt;icepyx.core.auth -->
<g id="edge6" class="edge">
<title>icepyx.core.harmony&#45;&gt;icepyx.core.auth</title>
<path fill="none" stroke="black" d="M502.27,-108.16C491.73,-118.18 478.61,-131.33 468,-144 451.04,-164.26 434.05,-189.04 422.15,-207.31"/>
<polygon fill="black" stroke="black" points="416.59,-215.95 418.22,-205.11 419.29,-211.75 422,-207.55 422,-207.55 422,-207.55 419.29,-211.75 425.78,-209.98 416.59,-215.95 416.59,-215.95"/>
</g>
<!-- icepyx.core.is2ref -->
<g id="node7" class="node">
<title>icepyx.core.is2ref</title>
<polygon fill="none" stroke="black" points="1061.5,-180 918.5,-180 918.5,-144 1061.5,-144 1061.5,-180"/>
<text text-anchor="middle" x="990" y="-158.3" font-family="Times,serif" font-size="14.00">icepyx.core.is2ref</text>
</g>
<!-- icepyx.core.is2ref&#45;&gt;icepyx.core.urls -->
<g id="edge7" class="edge">
<title>icepyx.core.is2ref&#45;&gt;icepyx.core.urls</title>
<path fill="none" stroke="black" d="M983.08,-180.3C979.93,-188.19 976.12,-197.7 972.62,-206.45"/>
<polygon fill="black" stroke="black" points="968.84,-215.9 968.38,-204.94 970.7,-211.25 972.56,-206.61 972.56,-206.61 972.56,-206.61 970.7,-211.25 976.73,-208.28 968.84,-215.9 968.84,-215.9"/>
</g>
<!-- icepyx.core.orders -->
<g id="node8" class="node">
<title>icepyx.core.orders</title>
<polygon fill="none" stroke="black" points="843.5,-108 694.5,-108 694.5,-72 843.5,-72 843.5,-108"/>
<text text-anchor="middle" x="769" y="-86.3" font-family="Times,serif" font-size="14.00">icepyx.core.orders</text>
</g>
<!-- icepyx.core.orders&#45;&gt;icepyx.core.granules -->
<g id="edge8" class="edge">
<title>icepyx.core.orders&#45;&gt;icepyx.core.granules</title>
<path fill="none" stroke="black" d="M771.72,-108.3C772.93,-116.02 774.39,-125.29 775.74,-133.89"/>
<polygon fill="black" stroke="black" points="777.31,-143.9 771.31,-134.72 776.54,-138.96 775.76,-134.02 775.76,-134.02 775.76,-134.02 776.54,-138.96 780.21,-133.32 777.31,-143.9 777.31,-143.9"/>
</g>
<!-- icepyx.core.query -->
<g id="node9" class="node">
<title>icepyx.core.query</title>
<polygon fill="none" stroke="black" points="592.5,-36 449.5,-36 449.5,0 592.5,0 592.5,-36"/>
<text text-anchor="middle" x="521" y="-14.3" font-family="Times,serif" font-size="14.00">icepyx.core.query</text>
</g>
<!-- icepyx.core.query&#45;&gt;icepyx.core.auth -->
<g id="edge9" class="edge">
<title>icepyx.core.query&#45;&gt;icepyx.core.auth</title>
<path fill="none" stroke="black" d="M473.58,-36.08C456.94,-44.4 439.75,-56.12 429,-72 401.72,-112.3 400.75,-171.31 403.03,-205.57"/>
<polygon fill="black" stroke="black" points="403.85,-215.77 398.56,-206.17 403.45,-210.79 403.04,-205.8 403.04,-205.8 403.04,-205.8 403.45,-210.79 407.53,-205.44 403.85,-215.77 403.85,-215.77"/>
</g>
<!-- icepyx.core.query&#45;&gt;icepyx.core.granules -->
<g id="edge10" class="edge">
<title>icepyx.core.query&#45;&gt;icepyx.core.granules</title>
<path fill="none" stroke="black" d="M552.24,-36.13C599.2,-61.88 687.99,-110.55 739.74,-138.93"/>
<polygon fill="black" stroke="black" points="748.65,-143.81 737.72,-142.95 744.26,-141.41 739.88,-139 739.88,-139 739.88,-139 744.26,-141.41 742.04,-135.06 748.65,-143.81 748.65,-143.81"/>
</g>
<!-- icepyx.core.query&#45;&gt;icepyx.core.harmony -->
<g id="edge11" class="edge">
<title>icepyx.core.query&#45;&gt;icepyx.core.harmony</title>
<path fill="none" stroke="black" d="M521,-36.3C521,-44.02 521,-53.29 521,-61.89"/>
<polygon fill="black" stroke="black" points="521,-71.9 516.5,-61.9 521,-66.9 521,-61.9 521,-61.9 521,-61.9 521,-66.9 525.5,-61.9 521,-71.9 521,-71.9"/>
</g>
<!-- icepyx.core.query&#45;&gt;icepyx.core.orders -->
<g id="edge12" class="edge">
<title>icepyx.core.query&#45;&gt;icepyx.core.orders</title>
<path fill="none" stroke="black" d="M581.35,-36.03C616.75,-46.03 661.66,-58.7 698.66,-69.15"/>
<polygon fill="black" stroke="black" points="708.38,-71.89 697.53,-73.5 703.57,-70.53 698.75,-69.17 698.75,-69.17 698.75,-69.17 703.57,-70.53 699.98,-64.84 708.38,-71.89 708.38,-71.89"/>
</g>
<!-- icepyx.core.query&#45;&gt;icepyx.core.types -->
<g id="edge13" class="edge">
<title>icepyx.core.query&#45;&gt;icepyx.core.types</title>
<path fill="none" stroke="black" d="M592.51,-34.27C595.71,-34.87 598.89,-35.45 602,-36 657.49,-45.79 811.17,-34.25 853,-72 889.13,-104.6 895.25,-137.81 871,-180 863.52,-193.01 851.49,-203.12 838.59,-210.86"/>
<polygon fill="black" stroke="black" points="829.56,-215.85 836.14,-207.07 833.94,-213.43 838.32,-211.01 838.32,-211.01 838.32,-211.01 833.94,-213.43 840.49,-214.95 829.56,-215.85 829.56,-215.85"/>
</g>
<!-- icepyx.core.variables -->
<g id="node16" class="node">
<title>icepyx.core.variables</title>
<polygon fill="none" stroke="black" points="382.5,-180 215.5,-180 215.5,-144 382.5,-144 382.5,-180"/>
<text text-anchor="middle" x="299" y="-158.3" font-family="Times,serif" font-size="14.00">icepyx.core.variables</text>
</g>
<!-- icepyx.core.query&#45;&gt;icepyx.core.variables -->
<g id="edge14" class="edge">
<title>icepyx.core.query&#45;&gt;icepyx.core.variables</title>
<path fill="none" stroke="black" d="M470.06,-36.06C446.58,-45.04 418.9,-57.27 396,-72 380.65,-81.88 346.7,-114.07 323.33,-136.89"/>
<polygon fill="black" stroke="black" points="316.15,-143.93 320.14,-133.72 319.72,-140.43 323.29,-136.93 323.29,-136.93 323.29,-136.93 319.72,-140.43 326.44,-140.14 316.15,-143.93 316.15,-143.93"/>
</g>
<!-- icepyx.core.visualization -->
<g id="node17" class="node">
<title>icepyx.core.visualization</title>
<polygon fill="none" stroke="black" points="344,-108 152,-108 152,-72 344,-72 344,-108"/>
<text text-anchor="middle" x="248" y="-86.3" font-family="Times,serif" font-size="14.00">icepyx.core.visualization</text>
</g>
<!-- icepyx.core.query&#45;&gt;icepyx.core.visualization -->
<g id="edge15" class="edge">
<title>icepyx.core.query&#45;&gt;icepyx.core.visualization</title>
<path fill="none" stroke="black" d="M454.57,-36.03C415.34,-46.09 365.53,-58.86 324.65,-69.35"/>
<polygon fill="black" stroke="black" points="314.73,-71.89 323.3,-65.05 319.58,-70.65 324.42,-69.41 324.42,-69.41 324.42,-69.41 319.58,-70.65 325.54,-73.76 314.73,-71.89 314.73,-71.89"/>
</g>
<!-- icepyx.core.read -->
<g id="node10" class="node">
<title>icepyx.core.read</title>
<polygon fill="none" stroke="black" points="134,-108 0,-108 0,-72 134,-72 134,-108"/>
<text text-anchor="middle" x="67" y="-86.3" font-family="Times,serif" font-size="14.00">icepyx.core.read</text>
</g>
<!-- icepyx.core.read&#45;&gt;icepyx.core.auth -->
<g id="edge16" class="edge">
<title>icepyx.core.read&#45;&gt;icepyx.core.auth</title>
<path fill="none" stroke="black" d="M88.89,-108.1C115.29,-127.96 161.67,-160.51 206,-180 245.09,-197.19 291,-209.84 328.97,-218.47"/>
<polygon fill="black" stroke="black" points="338.95,-220.68 328.21,-222.91 334.07,-219.6 329.19,-218.51 329.19,-218.51 329.19,-218.51 334.07,-219.6 330.16,-214.12 338.95,-220.68 338.95,-220.68"/>
</g>
<!-- icepyx.core.read&#45;&gt;icepyx.core.variables -->
<g id="edge17" class="edge">
<title>icepyx.core.read&#45;&gt;icepyx.core.variables</title>
<path fill="none" stroke="black" d="M123.46,-108.03C156.3,-117.94 197.87,-130.49 232.31,-140.88"/>
<polygon fill="black" stroke="black" points="242.29,-143.89 231.42,-145.31 237.5,-142.44 232.72,-141 232.72,-141 232.72,-141 237.5,-142.44 234.02,-136.69 242.29,-143.89 242.29,-143.89"/>
</g>
<!-- icepyx.core.spatial -->
<g id="node11" class="node">
<title>icepyx.core.spatial</title>
<polygon fill="none" stroke="black" points="761,-36 611,-36 611,0 761,0 761,-36"/>
<text text-anchor="middle" x="686" y="-14.3" font-family="Times,serif" font-size="14.00">icepyx.core.spatial</text>
</g>
<!-- icepyx.core.temporal -->
<g id="node12" class="node">
<title>icepyx.core.temporal</title>
<polygon fill="none" stroke="black" points="945.5,-36 778.5,-36 778.5,0 945.5,0 945.5,-36"/>
<text text-anchor="middle" x="862" y="-14.3" font-family="Times,serif" font-size="14.00">icepyx.core.temporal</text>
</g>
<!-- icepyx.core.validate_inputs -->
<g id="node15" class="node">
<title>icepyx.core.validate_inputs</title>
<polygon fill="none" stroke="black" points="1174.5,-36 963.5,-36 963.5,0 1174.5,0 1174.5,-36"/>
<text text-anchor="middle" x="1069" y="-14.3" font-family="Times,serif" font-size="14.00">icepyx.core.validate_inputs</text>
</g>
<!-- icepyx.core.variables&#45;&gt;icepyx.core.auth -->
<g id="edge18" class="edge">
<title>icepyx.core.variables&#45;&gt;icepyx.core.auth</title>
<path fill="none" stroke="black" d="M325.18,-180.12C339.04,-189.19 356.24,-200.45 371.21,-210.24"/>
<polygon fill="black" stroke="black" points="379.72,-215.81 368.89,-214.1 375.54,-213.07 371.36,-210.34 371.36,-210.34 371.36,-210.34 375.54,-213.07 373.82,-206.57 379.72,-215.81 379.72,-215.81"/>
</g>
</g>
</svg>
