<?xml version="1.0" encoding="UTF-8" standalone="no"?>
<!DOCTYPE svg PUBLIC "-//W3C//DTD SVG 1.1//EN"
 "http://www.w3.org/Graphics/SVG/1.1/DTD/svg11.dtd">
<!-- Generated by graphviz version 2.43.0 (0)
 -->
<!-- Title: packages_user_uml Pages: 1 -->
<svg width="1822pt" height="188pt"
 viewBox="0.00 0.00 1821.50 188.00" xmlns="http://www.w3.org/2000/svg" xmlns:xlink="http://www.w3.org/1999/xlink">
<g id="graph0" class="graph" transform="scale(1 1) rotate(0) translate(4 184)">
<title>packages_user_uml</title>
<polygon fill="white" stroke="transparent" points="-4,4 -4,-184 1817.5,-184 1817.5,4 -4,4"/>
<!-- icepyx.core -->
<g id="node1" class="node">
<title>icepyx.core</title>
<polygon fill="none" stroke="black" points="98,-36 0,-36 0,0 98,0 98,-36"/>
<text text-anchor="middle" x="49" y="-14.3" font-family="Times,serif" font-size="14.00">icepyx.core</text>
</g>
<!-- icepyx.core.APIformatting -->
<g id="node2" class="node">
<title>icepyx.core.APIformatting</title>
<polygon fill="none" stroke="black" points="319.5,-36 116.5,-36 116.5,0 319.5,0 319.5,-36"/>
<text text-anchor="middle" x="218" y="-14.3" font-family="Times,serif" font-size="14.00">icepyx.core.APIformatting</text>
</g>
<!-- icepyx.core.auth -->
<g id="node3" class="node">
<title>icepyx.core.auth</title>
<polygon fill="none" stroke="black" points="520,-180 386,-180 386,-144 520,-144 520,-180"/>
<text text-anchor="middle" x="453" y="-158.3" font-family="Times,serif" font-size="14.00">icepyx.core.auth</text>
</g>
<!-- icepyx.core.exceptions -->
<g id="node4" class="node">
<title>icepyx.core.exceptions</title>
<polygon fill="none" stroke="black" points="985.5,-108 806.5,-108 806.5,-72 985.5,-72 985.5,-108"/>
<text text-anchor="middle" x="896" y="-86.3" font-family="Times,serif" font-size="14.00">icepyx.core.exceptions</text>
</g>
<!-- icepyx.core.granules -->
<g id="node5" class="node">
<title>icepyx.core.granules</title>
<polygon fill="none" stroke="black" points="393,-108 229,-108 229,-72 393,-72 393,-108"/>
<text text-anchor="middle" x="311" y="-86.3" font-family="Times,serif" font-size="14.00">icepyx.core.granules</text>
</g>
<!-- icepyx.core.icesat2data -->
<g id="node6" class="node">
<title>icepyx.core.icesat2data</title>
<polygon fill="none" stroke="black" points="1070.5,-36 885.5,-36 885.5,0 1070.5,0 1070.5,-36"/>
<text text-anchor="middle" x="978" y="-14.3" font-family="Times,serif" font-size="14.00">icepyx.core.icesat2data</text>
</g>
<!-- icepyx.core.is2ref -->
<g id="node7" class="node">
<title>icepyx.core.is2ref</title>
<polygon fill="none" stroke="black" points="1231.5,-36 1088.5,-36 1088.5,0 1231.5,0 1231.5,-36"/>
<text text-anchor="middle" x="1160" y="-14.3" font-family="Times,serif" font-size="14.00">icepyx.core.is2ref</text>
</g>
<!-- icepyx.core.query -->
<g id="node8" class="node">
<title>icepyx.core.query</title>
<polygon fill="none" stroke="black" points="480.5,-36 337.5,-36 337.5,0 480.5,0 480.5,-36"/>
<text text-anchor="middle" x="409" y="-14.3" font-family="Times,serif" font-size="14.00">icepyx.core.query</text>
</g>
<!-- icepyx.core.query&#45;&gt;icepyx.core.auth -->
<g id="edge1" class="edge">
<title>icepyx.core.query&#45;&gt;icepyx.core.auth</title>
<path fill="none" stroke="black" d="M337.42,-34.7C287.11,-46.46 227.46,-62.16 220,-72 210.33,-84.75 210.02,-95.49 220,-108 239.36,-132.25 315.65,-146.26 375.73,-153.71"/>
<polygon fill="black" stroke="black" points="385.99,-154.94 375.52,-158.22 381.02,-154.35 376.06,-153.75 376.06,-153.75 376.06,-153.75 381.02,-154.35 376.59,-149.28 385.99,-154.94 385.99,-154.94"/>
</g>
<!-- icepyx.core.query&#45;&gt;icepyx.core.granules -->
<g id="edge2" class="edge">
<title>icepyx.core.query&#45;&gt;icepyx.core.granules</title>
<path fill="none" stroke="black" d="M385.03,-36.12C372.45,-45.11 356.87,-56.24 343.25,-65.97"/>
<polygon fill="black" stroke="black" points="335.07,-71.81 340.59,-62.34 339.13,-68.9 343.2,-66 343.2,-66 343.2,-66 339.13,-68.9 345.82,-69.66 335.07,-71.81 335.07,-71.81"/>
</g>
<!-- icepyx.core.variables -->
<g id="node13" class="node">
<title>icepyx.core.variables</title>
<polygon fill="none" stroke="black" points="788.5,-108 621.5,-108 621.5,-72 788.5,-72 788.5,-108"/>
<text text-anchor="middle" x="705" y="-86.3" font-family="Times,serif" font-size="14.00">icepyx.core.variables</text>
</g>
<!-- icepyx.core.query&#45;&gt;icepyx.core.variables -->
<g id="edge3" class="edge">
<title>icepyx.core.query&#45;&gt;icepyx.core.variables</title>
<path fill="none" stroke="black" d="M480.65,-35.95C523.6,-46.1 578.36,-59.05 623.03,-69.61"/>
<polygon fill="black" stroke="black" points="632.98,-71.97 622.21,-74.05 628.11,-70.82 623.25,-69.67 623.25,-69.67 623.25,-69.67 628.11,-70.82 624.28,-65.29 632.98,-71.97 632.98,-71.97"/>
</g>
<!-- icepyx.core.visualization -->
<g id="node14" class="node">
<title>icepyx.core.visualization</title>
<polygon fill="none" stroke="black" points="603,-108 411,-108 411,-72 603,-72 603,-108"/>
<text text-anchor="middle" x="507" y="-86.3" font-family="Times,serif" font-size="14.00">icepyx.core.visualization</text>
</g>
<!-- icepyx.core.query&#45;&gt;icepyx.core.visualization -->
<g id="edge4" class="edge">
<title>icepyx.core.query&#45;&gt;icepyx.core.visualization</title>
<path fill="none" stroke="black" d="M432.97,-36.12C445.55,-45.11 461.13,-56.24 474.75,-65.97"/>
<polygon fill="black" stroke="black" points="482.93,-71.81 472.18,-69.66 478.87,-68.9 474.8,-66 474.8,-66 474.8,-66 478.87,-68.9 477.41,-62.34 482.93,-71.81 482.93,-71.81"/>
</g>
<!-- icepyx.core.read -->
<g id="node9" class="node">
<title>icepyx.core.read</title>
<polygon fill="none" stroke="black" points="867,-36 733,-36 733,0 867,0 867,-36"/>
<text text-anchor="middle" x="800" y="-14.3" font-family="Times,serif" font-size="14.00">icepyx.core.read</text>
</g>
<!-- icepyx.core.read&#45;&gt;icepyx.core.exceptions -->
<g id="edge5" class="edge">
<title>icepyx.core.read&#45;&gt;icepyx.core.exceptions</title>
<path fill="none" stroke="black" d="M823.73,-36.3C835.94,-45.2 850.99,-56.18 864.18,-65.8"/>
<polygon fill="black" stroke="black" points="872.54,-71.9 861.81,-69.64 868.5,-68.95 864.46,-66 864.46,-66 864.46,-66 868.5,-68.95 867.11,-62.37 872.54,-71.9 872.54,-71.9"/>
</g>
<!-- icepyx.core.read&#45;&gt;icepyx.core.variables -->
<g id="edge6" class="edge">
<title>icepyx.core.read&#45;&gt;icepyx.core.variables</title>
<path fill="none" stroke="black" d="M776.52,-36.3C764.44,-45.2 749.55,-56.18 736.48,-65.8"/>
<polygon fill="black" stroke="black" points="728.21,-71.9 733.59,-62.34 732.24,-68.93 736.26,-65.96 736.26,-65.96 736.26,-65.96 732.24,-68.93 738.93,-69.59 728.21,-71.9 728.21,-71.9"/>
</g>
<!-- icepyx.core.spatial -->
<g id="node10" class="node">
<title>icepyx.core.spatial</title>
<polygon fill="none" stroke="black" points="1400,-36 1250,-36 1250,0 1400,0 1400,-36"/>
<text text-anchor="middle" x="1325" y="-14.3" font-family="Times,serif" font-size="14.00">icepyx.core.spatial</text>
</g>
<!-- icepyx.core.temporal -->
<g id="node11" class="node">
<title>icepyx.core.temporal</title>
<polygon fill="none" stroke="black" points="1584.5,-36 1417.5,-36 1417.5,0 1584.5,0 1584.5,-36"/>
<text text-anchor="middle" x="1501" y="-14.3" font-family="Times,serif" font-size="14.00">icepyx.core.temporal</text>
</g>
<!-- icepyx.core.validate_inputs -->
<g id="node12" class="node">
<title>icepyx.core.validate_inputs</title>
<polygon fill="none" stroke="black" points="1813.5,-36 1602.5,-36 1602.5,0 1813.5,0 1813.5,-36"/>
<text text-anchor="middle" x="1708" y="-14.3" font-family="Times,serif" font-size="14.00">icepyx.core.validate_inputs</text>
</g>
<!-- icepyx.core.variables&#45;&gt;icepyx.core.auth -->
<g id="edge7" class="edge">
<title>icepyx.core.variables&#45;&gt;icepyx.core.auth</title>
<path fill="none" stroke="black" d="M643.68,-108.03C607.7,-118.03 562.07,-130.7 524.47,-141.15"/>
<polygon fill="black" stroke="black" points="514.6,-143.89 523.03,-136.88 519.42,-142.55 524.23,-141.21 524.23,-141.21 524.23,-141.21 519.42,-142.55 525.44,-145.55 514.6,-143.89 514.6,-143.89"/>
</g>
</g>
</svg>
