<?xml version="1.0" encoding="UTF-8" standalone="no"?>
<!DOCTYPE svg PUBLIC "-//W3C//DTD SVG 1.1//EN"
 "http://www.w3.org/Graphics/SVG/1.1/DTD/svg11.dtd">
<!-- Generated by graphviz version 2.43.0 (0)
 -->
<!-- Title: packages_user_uml Pages: 1 -->
<svg width="1740pt" height="260pt"
 viewBox="0.00 0.00 1740.00 260.00" xmlns="http://www.w3.org/2000/svg" xmlns:xlink="http://www.w3.org/1999/xlink">
<g id="graph0" class="graph" transform="scale(1 1) rotate(0) translate(4 256)">
<title>packages_user_uml</title>
<polygon fill="white" stroke="transparent" points="-4,4 -4,-256 1736,-256 1736,4 -4,4"/>
<!-- icepyx.core -->
<g id="node1" class="node">
<title>icepyx.core</title>
<polygon fill="none" stroke="black" points="678.5,-36 580.5,-36 580.5,0 678.5,0 678.5,-36"/>
<text text-anchor="middle" x="629.5" y="-14.3" font-family="Times,serif" font-size="14.00">icepyx.core</text>
</g>
<!-- icepyx.core.APIformatting -->
<g id="node2" class="node">
<title>icepyx.core.APIformatting</title>
<polygon fill="none" stroke="black" points="203,-108 0,-108 0,-72 203,-72 203,-108"/>
<text text-anchor="middle" x="101.5" y="-86.3" font-family="Times,serif" font-size="14.00">icepyx.core.APIformatting</text>
</g>
<!-- icepyx.core.types -->
<g id="node12" class="node">
<title>icepyx.core.types</title>
<polygon fill="none" stroke="black" points="444,-180 303,-180 303,-144 444,-144 444,-180"/>
<text text-anchor="middle" x="373.5" y="-158.3" font-family="Times,serif" font-size="14.00">icepyx.core.types</text>
</g>
<!-- icepyx.core.APIformatting&#45;&gt;icepyx.core.types -->
<g id="edge1" class="edge">
<title>icepyx.core.APIformatting&#45;&gt;icepyx.core.types</title>
<path fill="none" stroke="black" d="M167.69,-108.03C206.77,-118.09 256.4,-130.86 297.13,-141.35"/>
<polygon fill="black" stroke="black" points="307.01,-143.89 296.21,-145.75 302.17,-142.64 297.33,-141.4 297.33,-141.4 297.33,-141.4 302.17,-142.64 298.45,-137.04 307.01,-143.89 307.01,-143.89"/>
</g>
<!-- icepyx.core.auth -->
<g id="node3" class="node">
<title>icepyx.core.auth</title>
<polygon fill="none" stroke="black" points="985.5,-180 851.5,-180 851.5,-144 985.5,-144 985.5,-180"/>
<text text-anchor="middle" x="918.5" y="-158.3" font-family="Times,serif" font-size="14.00">icepyx.core.auth</text>
</g>
<!-- icepyx.core.exceptions -->
<g id="node4" class="node">
<title>icepyx.core.exceptions</title>
<polygon fill="none" stroke="black" points="1008,-252 829,-252 829,-216 1008,-216 1008,-252"/>
<text text-anchor="middle" x="918.5" y="-230.3" font-family="Times,serif" font-size="14.00">icepyx.core.exceptions</text>
</g>
<!-- icepyx.core.auth&#45;&gt;icepyx.core.exceptions -->
<g id="edge2" class="edge">
<title>icepyx.core.auth&#45;&gt;icepyx.core.exceptions</title>
<path fill="none" stroke="black" d="M918.5,-180.3C918.5,-188.02 918.5,-197.29 918.5,-205.89"/>
<polygon fill="black" stroke="black" points="918.5,-215.9 914,-205.9 918.5,-210.9 918.5,-205.9 918.5,-205.9 918.5,-205.9 918.5,-210.9 923,-205.9 918.5,-215.9 918.5,-215.9"/>
</g>
<!-- icepyx.core.granules -->
<g id="node5" class="node">
<title>icepyx.core.granules</title>
<polygon fill="none" stroke="black" points="795.5,-108 631.5,-108 631.5,-72 795.5,-72 795.5,-108"/>
<text text-anchor="middle" x="713.5" y="-86.3" font-family="Times,serif" font-size="14.00">icepyx.core.granules</text>
</g>
<!-- icepyx.core.granules&#45;&gt;icepyx.core.auth -->
<g id="edge3" class="edge">
<title>icepyx.core.granules&#45;&gt;icepyx.core.auth</title>
<path fill="none" stroke="black" d="M763.39,-108.03C792.15,-117.86 828.51,-130.27 858.79,-140.61"/>
<polygon fill="black" stroke="black" points="868.39,-143.89 857.47,-144.92 863.66,-142.27 858.93,-140.66 858.93,-140.66 858.93,-140.66 863.66,-142.27 860.38,-136.4 868.39,-143.89 868.39,-143.89"/>
</g>
<!-- icepyx.core.granules&#45;&gt;icepyx.core.types -->
<g id="edge4" class="edge">
<title>icepyx.core.granules&#45;&gt;icepyx.core.types</title>
<path fill="none" stroke="black" d="M631.49,-107.54C582.8,-117.4 519.56,-130.28 454.24,-143.85"/>
<polygon fill="black" stroke="black" points="444.16,-145.95 453.04,-139.51 449.06,-144.93 453.95,-143.91 453.95,-143.91 453.95,-143.91 449.06,-144.93 454.87,-148.32 444.16,-145.95 444.16,-145.95"/>
</g>
<!-- icepyx.core.urls -->
<g id="node13" class="node">
<title>icepyx.core.urls</title>
<polygon fill="none" stroke="black" points="592.5,-180 462.5,-180 462.5,-144 592.5,-144 592.5,-180"/>
<text text-anchor="middle" x="527.5" y="-158.3" font-family="Times,serif" font-size="14.00">icepyx.core.urls</text>
</g>
<!-- icepyx.core.granules&#45;&gt;icepyx.core.urls -->
<g id="edge5" class="edge">
<title>icepyx.core.granules&#45;&gt;icepyx.core.urls</title>
<path fill="none" stroke="black" d="M668,-108.12C642.12,-117.86 609.53,-130.13 582.26,-140.39"/>
<polygon fill="black" stroke="black" points="572.85,-143.93 580.63,-136.2 577.53,-142.17 582.21,-140.41 582.21,-140.41 582.21,-140.41 577.53,-142.17 583.8,-144.62 572.85,-143.93 572.85,-143.93"/>
</g>
<!-- icepyx.core.icesat2data -->
<g id="node6" class="node">
<title>icepyx.core.icesat2data</title>
<polygon fill="none" stroke="black" points="796,-180 611,-180 611,-144 796,-144 796,-180"/>
<text text-anchor="middle" x="703.5" y="-158.3" font-family="Times,serif" font-size="14.00">icepyx.core.icesat2data</text>
</g>
<!-- icepyx.core.icesat2data&#45;&gt;icepyx.core.exceptions -->
<g id="edge6" class="edge">
<title>icepyx.core.icesat2data&#45;&gt;icepyx.core.exceptions</title>
<path fill="none" stroke="black" d="M755.82,-180.03C786.12,-189.9 824.45,-202.38 856.29,-212.75"/>
<polygon fill="black" stroke="black" points="865.95,-215.89 855.04,-217.07 861.19,-214.34 856.44,-212.79 856.44,-212.79 856.44,-212.79 861.19,-214.34 857.83,-208.51 865.95,-215.89 865.95,-215.89"/>
</g>
<!-- icepyx.core.is2ref -->
<g id="node7" class="node">
<title>icepyx.core.is2ref</title>
<polygon fill="none" stroke="black" points="613,-108 470,-108 470,-72 613,-72 613,-108"/>
<text text-anchor="middle" x="541.5" y="-86.3" font-family="Times,serif" font-size="14.00">icepyx.core.is2ref</text>
</g>
<!-- icepyx.core.is2ref&#45;&gt;icepyx.core.urls -->
<g id="edge7" class="edge">
<title>icepyx.core.is2ref&#45;&gt;icepyx.core.urls</title>
<path fill="none" stroke="black" d="M538.04,-108.3C536.5,-116.02 534.64,-125.29 532.92,-133.89"/>
<polygon fill="black" stroke="black" points="530.92,-143.9 528.47,-133.21 531.9,-138.99 532.88,-134.09 532.88,-134.09 532.88,-134.09 531.9,-138.99 537.29,-134.97 530.92,-143.9 530.92,-143.9"/>
</g>
<!-- icepyx.core.query -->
<g id="node8" class="node">
<title>icepyx.core.query</title>
<polygon fill="none" stroke="black" points="840,-36 697,-36 697,0 840,0 840,-36"/>
<text text-anchor="middle" x="768.5" y="-14.3" font-family="Times,serif" font-size="14.00">icepyx.core.query</text>
</g>
<!-- icepyx.core.query&#45;&gt;icepyx.core.auth -->
<g id="edge8" class="edge">
<title>icepyx.core.query&#45;&gt;icepyx.core.auth</title>
<path fill="none" stroke="black" d="M792.97,-36.15C806.56,-46.07 823.49,-59.11 837.5,-72 859.47,-92.21 882.14,-117.58 897.89,-136.05"/>
<polygon fill="black" stroke="black" points="904.41,-143.77 894.52,-139.03 901.18,-139.95 897.95,-136.13 897.95,-136.13 897.95,-136.13 901.18,-139.95 901.39,-133.22 904.41,-143.77 904.41,-143.77"/>
</g>
<!-- icepyx.core.query&#45;&gt;icepyx.core.exceptions -->
<g id="edge9" class="edge">
<title>icepyx.core.query&#45;&gt;icepyx.core.exceptions</title>
<path fill="none" stroke="black" d="M782.04,-36.44C789.36,-46.45 798.18,-59.49 804.5,-72 827.43,-117.42 811.7,-139.49 842.5,-180 851.6,-191.96 864.18,-202.26 876.49,-210.5"/>
<polygon fill="black" stroke="black" points="884.92,-215.88 874.07,-214.3 880.7,-213.19 876.49,-210.5 876.49,-210.5 876.49,-210.5 880.7,-213.19 878.91,-206.71 884.92,-215.88 884.92,-215.88"/>
</g>
<!-- icepyx.core.query&#45;&gt;icepyx.core.granules -->
<g id="edge10" class="edge">
<title>icepyx.core.query&#45;&gt;icepyx.core.granules</title>
<path fill="none" stroke="black" d="M754.9,-36.3C748.38,-44.61 740.43,-54.72 733.25,-63.86"/>
<polygon fill="black" stroke="black" points="726.94,-71.9 729.58,-61.25 730.03,-67.96 733.12,-64.03 733.12,-64.03 733.12,-64.03 730.03,-67.96 736.66,-66.81 726.94,-71.9 726.94,-71.9"/>
</g>
<!-- icepyx.core.query&#45;&gt;icepyx.core.types -->
<g id="edge11" class="edge">
<title>icepyx.core.query&#45;&gt;icepyx.core.types</title>
<path fill="none" stroke="black" d="M696.98,-34.21C693.78,-34.83 690.61,-35.43 687.5,-36 587.04,-54.5 551.25,-25.1 460.5,-72 452.66,-76.05 419.41,-111.16 396.37,-136.05"/>
<polygon fill="black" stroke="black" points="389.29,-143.72 392.77,-133.31 392.68,-140.04 396.07,-136.37 396.07,-136.37 396.07,-136.37 392.68,-140.04 399.38,-139.42 389.29,-143.72 389.29,-143.72"/>
</g>
<!-- icepyx.core.variables -->
<g id="node15" class="node">
<title>icepyx.core.variables</title>
<polygon fill="none" stroke="black" points="1056,-108 889,-108 889,-72 1056,-72 1056,-108"/>
<text text-anchor="middle" x="972.5" y="-86.3" font-family="Times,serif" font-size="14.00">icepyx.core.variables</text>
</g>
<!-- icepyx.core.query&#45;&gt;icepyx.core.variables -->
<g id="edge12" class="edge">
<title>icepyx.core.query&#45;&gt;icepyx.core.variables</title>
<path fill="none" stroke="black" d="M818.14,-36.03C846.77,-45.86 882.95,-58.27 913.08,-68.61"/>
<polygon fill="black" stroke="black" points="922.63,-71.89 911.72,-72.9 917.9,-70.27 913.18,-68.64 913.18,-68.64 913.18,-68.64 917.9,-70.27 914.64,-64.39 922.63,-71.89 922.63,-71.89"/>
</g>
<!-- icepyx.core.visualization -->
<g id="node16" class="node">
<title>icepyx.core.visualization</title>
<polygon fill="none" stroke="black" points="413.5,-108 221.5,-108 221.5,-72 413.5,-72 413.5,-108"/>
<text text-anchor="middle" x="317.5" y="-86.3" font-family="Times,serif" font-size="14.00">icepyx.core.visualization</text>
</g>
<!-- icepyx.core.query&#45;&gt;icepyx.core.visualization -->
<g id="edge13" class="edge">
<title>icepyx.core.query&#45;&gt;icepyx.core.visualization</title>
<path fill="none" stroke="black" d="M697,-34.29C693.79,-34.88 690.61,-35.46 687.5,-36 572.57,-55.99 542.93,-55.09 427.5,-72 426.24,-72.19 424.96,-72.37 423.69,-72.56"/>
<polygon fill="black" stroke="black" points="413.77,-74.03 423,-68.11 418.72,-73.3 423.66,-72.56 423.66,-72.56 423.66,-72.56 418.72,-73.3 424.32,-77.02 413.77,-74.03 413.77,-74.03"/>
</g>
<!-- icepyx.core.read -->
<g id="node9" class="node">
<title>icepyx.core.read</title>
<polygon fill="none" stroke="black" points="1150.5,-36 1016.5,-36 1016.5,0 1150.5,0 1150.5,-36"/>
<text text-anchor="middle" x="1083.5" y="-14.3" font-family="Times,serif" font-size="14.00">icepyx.core.read</text>
</g>
<!-- icepyx.core.read&#45;&gt;icepyx.core.auth -->
<g id="edge14" class="edge">
<title>icepyx.core.read&#45;&gt;icepyx.core.auth</title>
<path fill="none" stroke="black" d="M1084.72,-36.21C1085.15,-55.89 1082.81,-87.95 1065.5,-108 1047.66,-128.67 1021.13,-141.28 995.49,-148.97"/>
<polygon fill="black" stroke="black" points="985.73,-151.68 994.16,-144.67 990.55,-150.34 995.37,-149 995.37,-149 995.37,-149 990.55,-150.34 996.57,-153.34 985.73,-151.68 985.73,-151.68"/>
</g>
<!-- icepyx.core.read&#45;&gt;icepyx.core.exceptions -->
<g id="edge15" class="edge">
<title>icepyx.core.read&#45;&gt;icepyx.core.exceptions</title>
<path fill="none" stroke="black" d="M1088.59,-36.21C1093.12,-54.75 1097.6,-84.73 1087.5,-108 1065.96,-157.64 1012.67,-191.71 971.64,-211.6"/>
<polygon fill="black" stroke="black" points="962.56,-215.87 969.69,-207.54 967.08,-213.74 971.61,-211.61 971.61,-211.61 971.61,-211.61 967.08,-213.74 973.52,-215.68 962.56,-215.87 962.56,-215.87"/>
</g>
<!-- icepyx.core.read&#45;&gt;icepyx.core.variables -->
<g id="edge16" class="edge">
<title>icepyx.core.read&#45;&gt;icepyx.core.variables</title>
<path fill="none" stroke="black" d="M1056.35,-36.12C1041.97,-45.19 1024.12,-56.45 1008.59,-66.24"/>
<polygon fill="black" stroke="black" points="999.76,-71.81 1005.82,-62.67 1003.99,-69.14 1008.22,-66.48 1008.22,-66.48 1008.22,-66.48 1003.99,-69.14 1010.62,-70.28 999.76,-71.81 999.76,-71.81"/>
</g>
<!-- icepyx.core.spatial -->
<g id="node10" class="node">
<title>icepyx.core.spatial</title>
<polygon fill="none" stroke="black" points="1318.5,-36 1168.5,-36 1168.5,0 1318.5,0 1318.5,-36"/>
<text text-anchor="middle" x="1243.5" y="-14.3" font-family="Times,serif" font-size="14.00">icepyx.core.spatial</text>
</g>
<!-- icepyx.core.temporal -->
<g id="node11" class="node">
<title>icepyx.core.temporal</title>
<polygon fill="none" stroke="black" points="1503,-36 1336,-36 1336,0 1503,0 1503,-36"/>
<text text-anchor="middle" x="1419.5" y="-14.3" font-family="Times,serif" font-size="14.00">icepyx.core.temporal</text>
</g>
<!-- icepyx.core.validate_inputs -->
<g id="node14" class="node">
<title>icepyx.core.validate_inputs</title>
<polygon fill="none" stroke="black" points="1732,-36 1521,-36 1521,0 1732,0 1732,-36"/>
<text text-anchor="middle" x="1626.5" y="-14.3" font-family="Times,serif" font-size="14.00">icepyx.core.validate_inputs</text>
</g>
<!-- icepyx.core.variables&#45;&gt;icepyx.core.auth -->
<g id="edge17" class="edge">
<title>icepyx.core.variables&#45;&gt;icepyx.core.auth</title>
<path fill="none" stroke="black" d="M959.15,-108.3C952.74,-116.61 944.94,-126.72 937.89,-135.86"/>
<polygon fill="black" stroke="black" points="931.69,-143.9 934.24,-133.23 934.75,-139.94 937.8,-135.98 937.8,-135.98 937.8,-135.98 934.75,-139.94 941.37,-138.73 931.69,-143.9 931.69,-143.9"/>
</g>
<!-- icepyx.core.variables&#45;&gt;icepyx.core.exceptions -->
<g id="edge18" class="edge">
<title>icepyx.core.variables&#45;&gt;icepyx.core.exceptions</title>
<path fill="none" stroke="black" d="M983.66,-108.26C994.15,-126.84 1006.58,-156.86 994.5,-180 988.03,-192.39 977.2,-202.48 965.71,-210.4"/>
<polygon fill="black" stroke="black" points="957.28,-215.78 963.28,-206.61 961.49,-213.09 965.7,-210.4 965.7,-210.4 965.7,-210.4 961.49,-213.09 968.13,-214.19 957.28,-215.78 957.28,-215.78"/>
</g>
</g>
</svg>
