<?xml version="1.0" encoding="UTF-8" standalone="no"?>
<!DOCTYPE svg PUBLIC "-//W3C//DTD SVG 1.1//EN"
 "http://www.w3.org/Graphics/SVG/1.1/DTD/svg11.dtd">
<!-- Generated by graphviz version 2.43.0 (0)
 -->
<!-- Title: packages_user_uml Pages: 1 -->
<svg width="1546pt" height="332pt"
 viewBox="0.00 0.00 1546.17 332.00" xmlns="http://www.w3.org/2000/svg" xmlns:xlink="http://www.w3.org/1999/xlink">
<g id="graph0" class="graph" transform="scale(1 1) rotate(0) translate(4 328)">
<title>packages_user_uml</title>
<polygon fill="white" stroke="transparent" points="-4,4 -4,-328 1542.17,-328 1542.17,4 -4,4"/>
<!-- icepyx.core -->
<g id="node1" class="node">
<title>icepyx.core</title>
<polygon fill="none" stroke="black" points="447.67,-36 349.67,-36 349.67,0 447.67,0 447.67,-36"/>
<text text-anchor="middle" x="398.67" y="-14.3" font-family="Times,serif" font-size="14.00">icepyx.core</text>
</g>
<!-- icepyx.core.APIformatting -->
<g id="node2" class="node">
<title>icepyx.core.APIformatting</title>
<polygon fill="none" stroke="black" points="669.17,-36 466.17,-36 466.17,0 669.17,0 669.17,-36"/>
<text text-anchor="middle" x="567.67" y="-14.3" font-family="Times,serif" font-size="14.00">icepyx.core.APIformatting</text>
</g>
<!-- icepyx.core.auth -->
<g id="node3" class="node">
<title>icepyx.core.auth</title>
<polygon fill="none" stroke="black" points="358.67,-252 224.67,-252 224.67,-216 358.67,-216 358.67,-252"/>
<text text-anchor="middle" x="291.67" y="-230.3" font-family="Times,serif" font-size="14.00">icepyx.core.auth</text>
</g>
<!-- icepyx.core.exceptions -->
<g id="node4" class="node">
<title>icepyx.core.exceptions</title>
<polygon fill="none" stroke="black" points="381.17,-324 202.17,-324 202.17,-288 381.17,-288 381.17,-324"/>
<text text-anchor="middle" x="291.67" y="-302.3" font-family="Times,serif" font-size="14.00">icepyx.core.exceptions</text>
</g>
<!-- icepyx.core.auth&#45;&gt;icepyx.core.exceptions -->
<g id="edge1" class="edge">
<title>icepyx.core.auth&#45;&gt;icepyx.core.exceptions</title>
<path fill="none" stroke="black" d="M291.67,-252.3C291.67,-260.02 291.67,-269.29 291.67,-277.89"/>
<polygon fill="black" stroke="black" points="291.67,-287.9 287.17,-277.9 291.67,-282.9 291.67,-277.9 291.67,-277.9 291.67,-277.9 291.67,-282.9 296.17,-277.9 291.67,-287.9 291.67,-287.9"/>
</g>
<!-- icepyx.core.granules -->
<g id="node5" class="node">
<title>icepyx.core.granules</title>
<polygon fill="none" stroke="black" points="538.67,-180 374.67,-180 374.67,-144 538.67,-144 538.67,-180"/>
<text text-anchor="middle" x="456.67" y="-158.3" font-family="Times,serif" font-size="14.00">icepyx.core.granules</text>
</g>
<!-- icepyx.core.icesat2data -->
<g id="node6" class="node">
<title>icepyx.core.icesat2data</title>
<polygon fill="none" stroke="black" points="206.17,-252 21.17,-252 21.17,-216 206.17,-216 206.17,-252"/>
<text text-anchor="middle" x="113.67" y="-230.3" font-family="Times,serif" font-size="14.00">icepyx.core.icesat2data</text>
</g>
<!-- icepyx.core.icesat2data&#45;&gt;icepyx.core.exceptions -->
<g id="edge2" class="edge">
<title>icepyx.core.icesat2data&#45;&gt;icepyx.core.exceptions</title>
<path fill="none" stroke="black" d="M157.22,-252.12C181.87,-261.82 212.9,-274.02 238.93,-284.26"/>
<polygon fill="black" stroke="black" points="248.27,-287.93 237.32,-288.46 243.62,-286.1 238.96,-284.27 238.96,-284.27 238.96,-284.27 243.62,-286.1 240.61,-280.08 248.27,-287.93 248.27,-287.93"/>
</g>
<!-- icepyx.core.is2ref -->
<g id="node7" class="node">
<title>icepyx.core.is2ref</title>
<polygon fill="none" stroke="black" points="999.17,-36 856.17,-36 856.17,0 999.17,0 999.17,-36"/>
<text text-anchor="middle" x="927.67" y="-14.3" font-family="Times,serif" font-size="14.00">icepyx.core.is2ref</text>
</g>
<!-- icepyx.core.query -->
<g id="node8" class="node">
<title>icepyx.core.query</title>
<polygon fill="none" stroke="black" points="626.17,-108 483.17,-108 483.17,-72 626.17,-72 626.17,-108"/>
<text text-anchor="middle" x="554.67" y="-86.3" font-family="Times,serif" font-size="14.00">icepyx.core.query</text>
</g>
<!-- icepyx.core.query&#45;&gt;icepyx.core.auth -->
<g id="edge3" class="edge">
<title>icepyx.core.query&#45;&gt;icepyx.core.auth</title>
<path fill="none" stroke="black" d="M483.12,-100.59C445.85,-108.07 400.84,-121.19 365.67,-144 352.31,-152.67 327.12,-184.73 309.87,-207.89"/>
<polygon fill="black" stroke="black" points="303.92,-215.96 306.24,-205.24 306.89,-211.94 309.86,-207.91 309.86,-207.91 309.86,-207.91 306.89,-211.94 313.48,-210.59 303.92,-215.96 303.92,-215.96"/>
</g>
<!-- icepyx.core.query&#45;&gt;icepyx.core.exceptions -->
<g id="edge4" class="edge">
<title>icepyx.core.query&#45;&gt;icepyx.core.exceptions</title>
<path fill="none" stroke="black" d="M626.39,-97.43C699.36,-106.87 796.61,-129.24 757.67,-180 713.41,-237.69 514.85,-274.63 391.64,-292.42"/>
<polygon fill="black" stroke="black" points="381.43,-293.88 390.69,-288.01 386.38,-293.17 391.33,-292.47 391.33,-292.47 391.33,-292.47 386.38,-293.17 391.96,-296.92 381.43,-293.88 381.43,-293.88"/>
</g>
<!-- icepyx.core.query&#45;&gt;icepyx.core.granules -->
<g id="edge5" class="edge">
<title>icepyx.core.query&#45;&gt;icepyx.core.granules</title>
<path fill="none" stroke="black" d="M530.7,-108.12C518.12,-117.11 502.54,-128.24 488.92,-137.97"/>
<polygon fill="black" stroke="black" points="480.74,-143.81 486.26,-134.34 484.81,-140.9 488.88,-138 488.88,-138 488.88,-138 484.81,-140.9 491.49,-141.66 480.74,-143.81 480.74,-143.81"/>
</g>
<!-- icepyx.core.variables -->
<g id="node13" class="node">
<title>icepyx.core.variables</title>
<polygon fill="none" stroke="black" points="319.17,-180 152.17,-180 152.17,-144 319.17,-144 319.17,-180"/>
<text text-anchor="middle" x="235.67" y="-158.3" font-family="Times,serif" font-size="14.00">icepyx.core.variables</text>
</g>
<!-- icepyx.core.query&#45;&gt;icepyx.core.variables -->
<g id="edge6" class="edge">
<title>icepyx.core.query&#45;&gt;icepyx.core.variables</title>
<path fill="none" stroke="black" d="M483.08,-106.71C435.72,-117.1 373.33,-130.79 323.05,-141.83"/>
<polygon fill="black" stroke="black" points="313.16,-144 321.96,-137.46 318.04,-142.92 322.93,-141.85 322.93,-141.85 322.93,-141.85 318.04,-142.92 323.89,-146.25 313.16,-144 313.16,-144"/>
</g>
<!-- icepyx.core.visualization -->
<g id="node14" class="node">
<title>icepyx.core.visualization</title>
<polygon fill="none" stroke="black" points="748.67,-180 556.67,-180 556.67,-144 748.67,-144 748.67,-180"/>
<text text-anchor="middle" x="652.67" y="-158.3" font-family="Times,serif" font-size="14.00">icepyx.core.visualization</text>
</g>
<!-- icepyx.core.query&#45;&gt;icepyx.core.visualization -->
<g id="edge7" class="edge">
<title>icepyx.core.query&#45;&gt;icepyx.core.visualization</title>
<path fill="none" stroke="black" d="M578.65,-108.12C591.22,-117.11 606.8,-128.24 620.42,-137.97"/>
<polygon fill="black" stroke="black" points="628.61,-143.81 617.85,-141.66 624.54,-140.9 620.47,-138 620.47,-138 620.47,-138 624.54,-140.9 623.09,-134.34 628.61,-143.81 628.61,-143.81"/>
</g>
<!-- icepyx.core.read -->
<g id="node9" class="node">
<title>icepyx.core.read</title>
<polygon fill="none" stroke="black" points="191.67,-108 57.67,-108 57.67,-72 191.67,-72 191.67,-108"/>
<text text-anchor="middle" x="124.67" y="-86.3" font-family="Times,serif" font-size="14.00">icepyx.core.read</text>
</g>
<!-- icepyx.core.read&#45;&gt;icepyx.core.auth -->
<g id="edge8" class="edge">
<title>icepyx.core.read&#45;&gt;icepyx.core.auth</title>
<path fill="none" stroke="black" d="M123.44,-108.23C122.99,-127.91 125.32,-159.99 142.67,-180 152.98,-191.89 183.94,-203.76 214.98,-213.24"/>
<polygon fill="black" stroke="black" points="224.6,-216.11 213.73,-217.56 219.8,-214.68 215.01,-213.25 215.01,-213.25 215.01,-213.25 219.8,-214.68 216.3,-208.94 224.6,-216.11 224.6,-216.11"/>
</g>
<!-- icepyx.core.read&#45;&gt;icepyx.core.exceptions -->
<g id="edge9" class="edge">
<title>icepyx.core.read&#45;&gt;icepyx.core.exceptions</title>
<path fill="none" stroke="black" d="M97.04,-108.1C51.71,-138.23 -29.5,-202.3 11.67,-252 34.5,-279.55 120.91,-292.89 191.77,-299.28"/>
<polygon fill="black" stroke="black" points="202.1,-300.17 191.75,-303.79 197.12,-299.74 192.14,-299.31 192.14,-299.31 192.14,-299.31 197.12,-299.74 192.53,-294.83 202.1,-300.17 202.1,-300.17"/>
</g>
<!-- icepyx.core.read&#45;&gt;icepyx.core.variables -->
<g id="edge10" class="edge">
<title>icepyx.core.read&#45;&gt;icepyx.core.variables</title>
<path fill="none" stroke="black" d="M151.83,-108.12C166.21,-117.19 184.05,-128.45 199.58,-138.24"/>
<polygon fill="black" stroke="black" points="208.41,-143.81 197.56,-142.28 204.19,-141.14 199.96,-138.48 199.96,-138.48 199.96,-138.48 204.19,-141.14 202.36,-134.67 208.41,-143.81 208.41,-143.81"/>
</g>
<!-- icepyx.core.spatial -->
<g id="node10" class="node">
<title>icepyx.core.spatial</title>
<polygon fill="none" stroke="black" points="954.67,-180 804.67,-180 804.67,-144 954.67,-144 954.67,-180"/>
<text text-anchor="middle" x="879.67" y="-158.3" font-family="Times,serif" font-size="14.00">icepyx.core.spatial</text>
</g>
<!-- icepyx.core.temporal -->
<g id="node11" class="node">
<title>icepyx.core.temporal</title>
<polygon fill="none" stroke="black" points="1184.17,-36 1017.17,-36 1017.17,0 1184.17,0 1184.17,-36"/>
<text text-anchor="middle" x="1100.67" y="-14.3" font-family="Times,serif" font-size="14.00">icepyx.core.temporal</text>
</g>
<!-- icepyx.core.validate_inputs -->
<g id="node12" class="node">
<title>icepyx.core.validate_inputs</title>
<polygon fill="none" stroke="black" points="1413.17,-36 1202.17,-36 1202.17,0 1413.17,0 1413.17,-36"/>
<text text-anchor="middle" x="1307.67" y="-14.3" font-family="Times,serif" font-size="14.00">icepyx.core.validate_inputs</text>
</g>
<!-- icepyx.core.variables&#45;&gt;icepyx.core.auth -->
<g id="edge11" class="edge">
<title>icepyx.core.variables&#45;&gt;icepyx.core.auth</title>
<path fill="none" stroke="black" d="M249.52,-180.3C256.16,-188.61 264.25,-198.72 271.56,-207.86"/>
<polygon fill="black" stroke="black" points="277.99,-215.9 268.23,-210.9 274.87,-211.99 271.74,-208.09 271.74,-208.09 271.74,-208.09 274.87,-211.99 275.26,-205.28 277.99,-215.9 277.99,-215.9"/>
</g>
<!-- icepyx.core.variables&#45;&gt;icepyx.core.exceptions -->
<g id="edge12" class="edge">
<title>icepyx.core.variables&#45;&gt;icepyx.core.exceptions</title>
<path fill="none" stroke="black" d="M319.32,-179.64C338.28,-187.48 356.19,-199.02 367.67,-216 376.63,-229.25 375.07,-237.81 367.67,-252 361.21,-264.39 350.37,-274.48 338.88,-282.4"/>
<polygon fill="black" stroke="black" points="330.45,-287.78 336.45,-278.61 334.66,-285.09 338.88,-282.4 338.88,-282.4 338.88,-282.4 334.66,-285.09 341.3,-286.19 330.45,-287.78 330.45,-287.78"/>
</g>
<!-- icepyx.quest -->
<g id="node15" class="node">
<title>icepyx.quest</title>
<polygon fill="none" stroke="black" points="1538.17,-36 1431.17,-36 1431.17,0 1538.17,0 1538.17,-36"/>
<text text-anchor="middle" x="1484.67" y="-14.3" font-family="Times,serif" font-size="14.00">icepyx.quest</text>
</g>
<!-- icepyx.quest.dataset_scripts -->
<g id="node16" class="node">
<title>icepyx.quest.dataset_scripts</title>
<polygon fill="none" stroke="black" points="1239.67,-108 1019.67,-108 1019.67,-72 1239.67,-72 1239.67,-108"/>
<text text-anchor="middle" x="1129.67" y="-86.3" font-family="Times,serif" font-size="14.00">icepyx.quest.dataset_scripts</text>
</g>
<!-- icepyx.quest.dataset_scripts.dataset -->
<g id="node18" class="node">
<title>icepyx.quest.dataset_scripts.dataset</title>
<polygon fill="none" stroke="black" points="1262.67,-180 984.67,-180 984.67,-144 1262.67,-144 1262.67,-180"/>
<text text-anchor="middle" x="1123.67" y="-158.3" font-family="Times,serif" font-size="14.00">icepyx.quest.dataset_scripts.dataset</text>
</g>
<!-- icepyx.quest.dataset_scripts&#45;&gt;icepyx.quest.dataset_scripts.dataset -->
<g id="edge13" class="edge">
<title>icepyx.quest.dataset_scripts&#45;&gt;icepyx.quest.dataset_scripts.dataset</title>
<path fill="none" stroke="black" d="M1128.19,-108.3C1127.53,-116.02 1126.73,-125.29 1126,-133.89"/>
<polygon fill="black" stroke="black" points="1125.14,-143.9 1121.51,-133.55 1125.57,-138.91 1125.99,-133.93 1125.99,-133.93 1125.99,-133.93 1125.57,-138.91 1130.48,-134.32 1125.14,-143.9 1125.14,-143.9"/>
</g>
<!-- icepyx.quest.dataset_scripts.argo -->
<g id="node17" class="node">
<title>icepyx.quest.dataset_scripts.argo</title>
<polygon fill="none" stroke="black" points="1001.17,-108 744.17,-108 744.17,-72 1001.17,-72 1001.17,-108"/>
<text text-anchor="middle" x="872.67" y="-86.3" font-family="Times,serif" font-size="14.00">icepyx.quest.dataset_scripts.argo</text>
</g>
<!-- icepyx.quest.dataset_scripts.argo&#45;&gt;icepyx.core.spatial -->
<g id="edge14" class="edge">
<title>icepyx.quest.dataset_scripts.argo&#45;&gt;icepyx.core.spatial</title>
<path fill="none" stroke="black" d="M874.4,-108.3C875.17,-116.02 876.1,-125.29 876.96,-133.89"/>
<polygon fill="black" stroke="black" points="877.96,-143.9 872.49,-134.39 877.46,-138.92 876.97,-133.95 876.97,-133.95 876.97,-133.95 877.46,-138.92 881.44,-133.5 877.96,-143.9 877.96,-143.9"/>
</g>
<!-- icepyx.quest.dataset_scripts.argo&#45;&gt;icepyx.quest.dataset_scripts.dataset -->
<g id="edge15" class="edge">
<title>icepyx.quest.dataset_scripts.argo&#45;&gt;icepyx.quest.dataset_scripts.dataset</title>
<path fill="none" stroke="black" d="M933.75,-108.03C969.59,-118.03 1015.03,-130.7 1052.48,-141.15"/>
<polygon fill="black" stroke="black" points="1062.32,-143.89 1051.48,-145.54 1057.5,-142.55 1052.69,-141.2 1052.69,-141.2 1052.69,-141.2 1057.5,-142.55 1053.89,-136.87 1062.32,-143.89 1062.32,-143.89"/>
</g>
<!-- icepyx.quest.quest -->
<g id="node19" class="node">
<title>icepyx.quest.quest</title>
<polygon fill="none" stroke="black" points="838.17,-36 687.17,-36 687.17,0 838.17,0 838.17,-36"/>
<text text-anchor="middle" x="762.67" y="-14.3" font-family="Times,serif" font-size="14.00">icepyx.quest.quest</text>
</g>
<!-- icepyx.quest.quest&#45;&gt;icepyx.core.query -->
<g id="edge16" class="edge">
<title>icepyx.quest.quest&#45;&gt;icepyx.core.query</title>
<path fill="none" stroke="black" d="M712.06,-36.03C682.87,-45.86 645.98,-58.27 615.26,-68.61"/>
<polygon fill="black" stroke="black" points="605.52,-71.89 613.56,-64.43 610.25,-70.29 614.99,-68.7 614.99,-68.7 614.99,-68.7 610.25,-70.29 616.43,-72.96 605.52,-71.89 605.52,-71.89"/>
</g>
<!-- icepyx.quest.quest&#45;&gt;icepyx.quest.dataset_scripts.argo -->
<g id="edge17" class="edge">
<title>icepyx.quest.quest&#45;&gt;icepyx.quest.dataset_scripts.argo</title>
<path fill="none" stroke="black" d="M789.58,-36.12C803.83,-45.19 821.52,-56.45 836.91,-66.24"/>
<polygon fill="black" stroke="black" points="845.66,-71.81 834.81,-70.24 841.44,-69.13 837.22,-66.44 837.22,-66.44 837.22,-66.44 841.44,-69.13 839.64,-62.64 845.66,-71.81 845.66,-71.81"/>
</g>
</g>
</svg>
