<?xml version="1.0" encoding="UTF-8" standalone="no"?>
<!DOCTYPE svg PUBLIC "-//W3C//DTD SVG 1.1//EN"
 "http://www.w3.org/Graphics/SVG/1.1/DTD/svg11.dtd">
<!-- Generated by graphviz version 2.43.0 (0)
 -->
<!-- Title: packages_user_uml Pages: 1 -->
<svg width="1928pt" height="116pt"
 viewBox="0.00 0.00 1927.50 116.00" xmlns="http://www.w3.org/2000/svg" xmlns:xlink="http://www.w3.org/1999/xlink">
<g id="graph0" class="graph" transform="scale(1 1) rotate(0) translate(4 112)">
<title>packages_user_uml</title>
<polygon fill="white" stroke="transparent" points="-4,4 -4,-112 1923.5,-112 1923.5,4 -4,4"/>
<!-- icepyx.core -->
<g id="node1" class="node">
<title>icepyx.core</title>
<polygon fill="none" stroke="black" points="98,-36 0,-36 0,0 98,0 98,-36"/>
<text text-anchor="middle" x="49" y="-14.3" font-family="Times,serif" font-size="14.00">icepyx.core</text>
</g>
<!-- icepyx.core.APIformatting -->
<g id="node2" class="node">
<title>icepyx.core.APIformatting</title>
<polygon fill="none" stroke="black" points="319.5,-36 116.5,-36 116.5,0 319.5,0 319.5,-36"/>
<text text-anchor="middle" x="218" y="-14.3" font-family="Times,serif" font-size="14.00">icepyx.core.APIformatting</text>
</g>
<!-- icepyx.core.Earthdata -->
<g id="node3" class="node">
<title>icepyx.core.Earthdata</title>
<polygon fill="none" stroke="black" points="211,-108 37,-108 37,-72 211,-72 211,-108"/>
<text text-anchor="middle" x="124" y="-86.3" font-family="Times,serif" font-size="14.00">icepyx.core.Earthdata</text>
</g>
<!-- icepyx.core.exceptions -->
<g id="node4" class="node">
<title>icepyx.core.exceptions</title>
<polygon fill="none" stroke="black" points="969.5,-36 790.5,-36 790.5,0 969.5,0 969.5,-36"/>
<text text-anchor="middle" x="880" y="-14.3" font-family="Times,serif" font-size="14.00">icepyx.core.exceptions</text>
</g>
<!-- icepyx.core.geospatial -->
<g id="node5" class="node">
<title>icepyx.core.geospatial</title>
<polygon fill="none" stroke="black" points="1164,-36 988,-36 988,0 1164,0 1164,-36"/>
<text text-anchor="middle" x="1076" y="-14.3" font-family="Times,serif" font-size="14.00">icepyx.core.geospatial</text>
</g>
<!-- icepyx.core.granules -->
<g id="node6" class="node">
<title>icepyx.core.granules</title>
<polygon fill="none" stroke="black" points="393,-108 229,-108 229,-72 393,-72 393,-108"/>
<text text-anchor="middle" x="311" y="-86.3" font-family="Times,serif" font-size="14.00">icepyx.core.granules</text>
</g>
<!-- icepyx.core.icesat2data -->
<g id="node7" class="node">
<title>icepyx.core.icesat2data</title>
<polygon fill="none" stroke="black" points="1366.5,-36 1181.5,-36 1181.5,0 1366.5,0 1366.5,-36"/>
<text text-anchor="middle" x="1274" y="-14.3" font-family="Times,serif" font-size="14.00">icepyx.core.icesat2data</text>
</g>
<!-- icepyx.core.is2cat -->
<g id="node8" class="node">
<title>icepyx.core.is2cat</title>
<polygon fill="none" stroke="black" points="1529.5,-36 1384.5,-36 1384.5,0 1529.5,0 1529.5,-36"/>
<text text-anchor="middle" x="1457" y="-14.3" font-family="Times,serif" font-size="14.00">icepyx.core.is2cat</text>
</g>
<!-- icepyx.core.is2ref -->
<g id="node9" class="node">
<title>icepyx.core.is2ref</title>
<polygon fill="none" stroke="black" points="1690.5,-36 1547.5,-36 1547.5,0 1690.5,0 1690.5,-36"/>
<text text-anchor="middle" x="1619" y="-14.3" font-family="Times,serif" font-size="14.00">icepyx.core.is2ref</text>
</g>
<!-- icepyx.core.query -->
<g id="node10" class="node">
<title>icepyx.core.query</title>
<polygon fill="none" stroke="black" points="480.5,-36 337.5,-36 337.5,0 480.5,0 480.5,-36"/>
<text text-anchor="middle" x="409" y="-14.3" font-family="Times,serif" font-size="14.00">icepyx.core.query</text>
</g>
<!-- icepyx.core.query&#45;&gt;icepyx.core.Earthdata -->
<g id="edge1" class="edge">
<title>icepyx.core.query&#45;&gt;icepyx.core.Earthdata</title>
<path fill="none" stroke="black" d="M339.65,-36.03C298.53,-46.13 246.26,-58.97 203.48,-69.48"/>
<polygon fill="black" stroke="black" points="193.67,-71.89 202.3,-65.13 198.52,-70.7 203.38,-69.5 203.38,-69.5 203.38,-69.5 198.52,-70.7 204.45,-73.87 193.67,-71.89 193.67,-71.89"/>
</g>
<!-- icepyx.core.query&#45;&gt;icepyx.core.granules -->
<g id="edge2" class="edge">
<title>icepyx.core.query&#45;&gt;icepyx.core.granules</title>
<path fill="none" stroke="black" d="M385.03,-36.12C372.45,-45.11 356.87,-56.24 343.25,-65.97"/>
<polygon fill="black" stroke="black" points="335.07,-71.81 340.59,-62.34 339.13,-68.9 343.2,-66 343.2,-66 343.2,-66 339.13,-68.9 345.82,-69.66 335.07,-71.81 335.07,-71.81"/>
</g>
<!-- icepyx.core.variables -->
<g id="node13" class="node">
<title>icepyx.core.variables</title>
<polygon fill="none" stroke="black" points="788.5,-108 621.5,-108 621.5,-72 788.5,-72 788.5,-108"/>
<text text-anchor="middle" x="705" y="-86.3" font-family="Times,serif" font-size="14.00">icepyx.core.variables</text>
</g>
<!-- icepyx.core.query&#45;&gt;icepyx.core.variables -->
<g id="edge3" class="edge">
<title>icepyx.core.query&#45;&gt;icepyx.core.variables</title>
<path fill="none" stroke="black" d="M480.65,-35.95C523.6,-46.1 578.36,-59.05 623.03,-69.61"/>
<polygon fill="black" stroke="black" points="632.98,-71.97 622.21,-74.05 628.11,-70.82 623.25,-69.67 623.25,-69.67 623.25,-69.67 628.11,-70.82 624.28,-65.29 632.98,-71.97 632.98,-71.97"/>
</g>
<!-- icepyx.core.visualization -->
<g id="node14" class="node">
<title>icepyx.core.visualization</title>
<polygon fill="none" stroke="black" points="603,-108 411,-108 411,-72 603,-72 603,-108"/>
<text text-anchor="middle" x="507" y="-86.3" font-family="Times,serif" font-size="14.00">icepyx.core.visualization</text>
</g>
<!-- icepyx.core.query&#45;&gt;icepyx.core.visualization -->
<g id="edge4" class="edge">
<title>icepyx.core.query&#45;&gt;icepyx.core.visualization</title>
<path fill="none" stroke="black" d="M432.97,-36.12C445.55,-45.11 461.13,-56.24 474.75,-65.97"/>
<polygon fill="black" stroke="black" points="482.93,-71.81 472.18,-69.66 478.87,-68.9 474.8,-66 474.8,-66 474.8,-66 478.87,-68.9 477.41,-62.34 482.93,-71.81 482.93,-71.81"/>
</g>
<!-- icepyx.core.read -->
<g id="node11" class="node">
<title>icepyx.core.read</title>
<polygon fill="none" stroke="black" points="772,-36 638,-36 638,0 772,0 772,-36"/>
<text text-anchor="middle" x="705" y="-14.3" font-family="Times,serif" font-size="14.00">icepyx.core.read</text>
</g>
<!-- icepyx.core.read&#45;&gt;icepyx.core.variables -->
<g id="edge5" class="edge">
<title>icepyx.core.read&#45;&gt;icepyx.core.variables</title>
<path fill="none" stroke="black" d="M705,-36.3C705,-44.02 705,-53.29 705,-61.89"/>
<polygon fill="black" stroke="black" points="705,-71.9 700.5,-61.9 705,-66.9 705,-61.9 705,-61.9 705,-61.9 705,-66.9 709.5,-61.9 705,-71.9 705,-71.9"/>
</g>
<!-- icepyx.core.validate_inputs -->
<g id="node12" class="node">
<title>icepyx.core.validate_inputs</title>
<polygon fill="none" stroke="black" points="1919.5,-36 1708.5,-36 1708.5,0 1919.5,0 1919.5,-36"/>
<text text-anchor="middle" x="1814" y="-14.3" font-family="Times,serif" font-size="14.00">icepyx.core.validate_inputs</text>
</g>
</g>
</svg>
