<?xml version="1.0" encoding="UTF-8" standalone="no"?>
<!DOCTYPE svg PUBLIC "-//W3C//DTD SVG 1.1//EN"
 "http://www.w3.org/Graphics/SVG/1.1/DTD/svg11.dtd">
<!-- Generated by graphviz version 2.43.0 (0)
 -->
<!-- Title: packages Pages: 1 -->
<svg width="1473pt" height="116pt"
 viewBox="0.00 0.00 1472.50 116.00" xmlns="http://www.w3.org/2000/svg" xmlns:xlink="http://www.w3.org/1999/xlink">
<g id="graph0" class="graph" transform="scale(1 1) rotate(0) translate(4 112)">
<title>packages</title>
<polygon fill="white" stroke="transparent" points="-4,4 -4,-112 1468.5,-112 1468.5,4 -4,4"/>
<!-- 0 -->
<g id="node1" class="node">
<title>0</title>
<polygon fill="none" stroke="black" points="98,-36 0,-36 0,0 98,0 98,-36"/>
<text text-anchor="middle" x="49" y="-14.3" font-family="Times,serif" font-size="14.00">icepyx.core</text>
</g>
<!-- 1 -->
<g id="node2" class="node">
<title>1</title>
<polygon fill="none" stroke="black" points="319.5,-36 116.5,-36 116.5,0 319.5,0 319.5,-36"/>
<text text-anchor="middle" x="218" y="-14.3" font-family="Times,serif" font-size="14.00">icepyx.core.APIformatting</text>
</g>
<!-- 2 -->
<g id="node3" class="node">
<title>2</title>
<polygon fill="none" stroke="black" points="217,-108 43,-108 43,-72 217,-72 217,-108"/>
<text text-anchor="middle" x="130" y="-86.3" font-family="Times,serif" font-size="14.00">icepyx.core.Earthdata</text>
</g>
<!-- 3 -->
<g id="node4" class="node">
<title>3</title>
<polygon fill="none" stroke="black" points="677.5,-36 498.5,-36 498.5,0 677.5,0 677.5,-36"/>
<text text-anchor="middle" x="588" y="-14.3" font-family="Times,serif" font-size="14.00">icepyx.core.exceptions</text>
</g>
<!-- 4 -->
<g id="node5" class="node">
<title>4</title>
<polygon fill="none" stroke="black" points="872,-36 696,-36 696,0 872,0 872,-36"/>
<text text-anchor="middle" x="784" y="-14.3" font-family="Times,serif" font-size="14.00">icepyx.core.geospatial</text>
</g>
<!-- 5 -->
<g id="node6" class="node">
<title>5</title>
<polygon fill="none" stroke="black" points="399,-108 235,-108 235,-72 399,-72 399,-108"/>
<text text-anchor="middle" x="317" y="-86.3" font-family="Times,serif" font-size="14.00">icepyx.core.granules</text>
</g>
<!-- 6 -->
<g id="node7" class="node">
<title>6</title>
<polygon fill="none" stroke="black" points="1074.5,-36 889.5,-36 889.5,0 1074.5,0 1074.5,-36"/>
<text text-anchor="middle" x="982" y="-14.3" font-family="Times,serif" font-size="14.00">icepyx.core.icesat2data</text>
</g>
<!-- 7 -->
<g id="node8" class="node">
<title>7</title>
<polygon fill="none" stroke="black" points="1235.5,-36 1092.5,-36 1092.5,0 1235.5,0 1235.5,-36"/>
<text text-anchor="middle" x="1164" y="-14.3" font-family="Times,serif" font-size="14.00">icepyx.core.is2ref</text>
</g>
<!-- 8 -->
<g id="node9" class="node">
<title>8</title>
<polygon fill="none" stroke="black" points="480.5,-36 337.5,-36 337.5,0 480.5,0 480.5,-36"/>
<text text-anchor="middle" x="409" y="-14.3" font-family="Times,serif" font-size="14.00">icepyx.core.query</text>
</g>
<!-- 8&#45;&gt;2 -->
<g id="edge1" class="edge">
<title>8&#45;&gt;2</title>
<path fill="none" stroke="black" d="M341.11,-36.03C300.94,-46.11 249.9,-58.92 208.07,-69.41"/>
<polygon fill="black" stroke="black" points="198.2,-71.89 206.8,-65.09 203.05,-70.67 207.9,-69.46 207.9,-69.46 207.9,-69.46 203.05,-70.67 208.99,-73.82 198.2,-71.89 198.2,-71.89"/>
</g>
<!-- 8&#45;&gt;5 -->
<g id="edge2" class="edge">
<title>8&#45;&gt;5</title>
<path fill="none" stroke="black" d="M386.26,-36.3C374.56,-45.2 360.14,-56.18 347.49,-65.8"/>
<polygon fill="black" stroke="black" points="339.48,-71.9 344.71,-62.26 343.46,-68.87 347.44,-65.84 347.44,-65.84 347.44,-65.84 343.46,-68.87 350.16,-69.42 339.48,-71.9 339.48,-71.9"/>
</g>
<!-- 10 -->
<g id="node11" class="node">
<title>10</title>
<polygon fill="none" stroke="black" points="584.5,-108 417.5,-108 417.5,-72 584.5,-72 584.5,-108"/>
<text text-anchor="middle" x="501" y="-86.3" font-family="Times,serif" font-size="14.00">icepyx.core.variables</text>
</g>
<!-- 8&#45;&gt;10 -->
<g id="edge3" class="edge">
<title>8&#45;&gt;10</title>
<path fill="none" stroke="black" d="M431.74,-36.3C443.44,-45.2 457.86,-56.18 470.51,-65.8"/>
<polygon fill="black" stroke="black" points="478.52,-71.9 467.84,-69.42 474.54,-68.87 470.56,-65.84 470.56,-65.84 470.56,-65.84 474.54,-68.87 473.29,-62.26 478.52,-71.9 478.52,-71.9"/>
</g>
<!-- 11 -->
<g id="node12" class="node">
<title>11</title>
<polygon fill="none" stroke="black" points="795,-108 603,-108 603,-72 795,-72 795,-108"/>
<text text-anchor="middle" x="699" y="-86.3" font-family="Times,serif" font-size="14.00">icepyx.core.visualization</text>
</g>
<!-- 8&#45;&gt;11 -->
<g id="edge4" class="edge">
<title>8&#45;&gt;11</title>
<path fill="none" stroke="black" d="M479.57,-36.03C521.49,-46.15 574.79,-59.02 618.37,-69.54"/>
<polygon fill="black" stroke="black" points="628.36,-71.95 617.59,-73.98 623.5,-70.78 618.64,-69.6 618.64,-69.6 618.64,-69.6 623.5,-70.78 619.7,-65.23 628.36,-71.95 628.36,-71.95"/>
</g>
<!-- 9 -->
<g id="node10" class="node">
<title>9</title>
<polygon fill="none" stroke="black" points="1464.5,-36 1253.5,-36 1253.5,0 1464.5,0 1464.5,-36"/>
<text text-anchor="middle" x="1359" y="-14.3" font-family="Times,serif" font-size="14.00">icepyx.core.validate_inputs</text>
</g>
</g>
</svg>
