<?xml version="1.0" encoding="UTF-8" standalone="no"?>
<!DOCTYPE svg PUBLIC "-//W3C//DTD SVG 1.1//EN"
 "http://www.w3.org/Graphics/SVG/1.1/DTD/svg11.dtd">
<!-- Generated by graphviz version 2.43.0 (0)
 -->
<!-- Title: packages_user_uml Pages: 1 -->
<svg width="1782pt" height="188pt"
 viewBox="0.00 0.00 1781.50 188.00" xmlns="http://www.w3.org/2000/svg" xmlns:xlink="http://www.w3.org/1999/xlink">
<g id="graph0" class="graph" transform="scale(1 1) rotate(0) translate(4 184)">
<title>packages_user_uml</title>
<polygon fill="white" stroke="transparent" points="-4,4 -4,-184 1777.5,-184 1777.5,4 -4,4"/>
<!-- icepyx.core -->
<g id="node1" class="node">
<title>icepyx.core</title>
<polygon fill="none" stroke="black" points="98,-36 0,-36 0,0 98,0 98,-36"/>
<text text-anchor="middle" x="49" y="-14.3" font-family="Times,serif" font-size="14.00">icepyx.core</text>
</g>
<!-- icepyx.core.APIformatting -->
<g id="node2" class="node">
<title>icepyx.core.APIformatting</title>
<polygon fill="none" stroke="black" points="319.5,-36 116.5,-36 116.5,0 319.5,0 319.5,-36"/>
<text text-anchor="middle" x="218" y="-14.3" font-family="Times,serif" font-size="14.00">icepyx.core.APIformatting</text>
</g>
<!-- icepyx.core.auth -->
<g id="node3" class="node">
<title>icepyx.core.auth</title>
<polygon fill="none" stroke="black" points="488,-180 354,-180 354,-144 488,-144 488,-180"/>
<text text-anchor="middle" x="421" y="-158.3" font-family="Times,serif" font-size="14.00">icepyx.core.auth</text>
</g>
<!-- icepyx.core.exceptions -->
<g id="node4" class="node">
<title>icepyx.core.exceptions</title>
<polygon fill="none" stroke="black" points="849.5,-180 670.5,-180 670.5,-144 849.5,-144 849.5,-180"/>
<text text-anchor="middle" x="760" y="-158.3" font-family="Times,serif" font-size="14.00">icepyx.core.exceptions</text>
</g>
<!-- icepyx.core.granules -->
<g id="node5" class="node">
<title>icepyx.core.granules</title>
<polygon fill="none" stroke="black" points="393,-108 229,-108 229,-72 393,-72 393,-108"/>
<text text-anchor="middle" x="311" y="-86.3" font-family="Times,serif" font-size="14.00">icepyx.core.granules</text>
</g>
<!-- icepyx.core.icesat2data -->
<g id="node6" class="node">
<title>icepyx.core.icesat2data</title>
<polygon fill="none" stroke="black" points="1030.5,-36 845.5,-36 845.5,0 1030.5,0 1030.5,-36"/>
<text text-anchor="middle" x="938" y="-14.3" font-family="Times,serif" font-size="14.00">icepyx.core.icesat2data</text>
</g>
<!-- icepyx.core.is2ref -->
<g id="node7" class="node">
<title>icepyx.core.is2ref</title>
<polygon fill="none" stroke="black" points="1191.5,-36 1048.5,-36 1048.5,0 1191.5,0 1191.5,-36"/>
<text text-anchor="middle" x="1120" y="-14.3" font-family="Times,serif" font-size="14.00">icepyx.core.is2ref</text>
</g>
<!-- icepyx.core.query -->
<g id="node8" class="node">
<title>icepyx.core.query</title>
<polygon fill="none" stroke="black" points="480.5,-36 337.5,-36 337.5,0 480.5,0 480.5,-36"/>
<text text-anchor="middle" x="409" y="-14.3" font-family="Times,serif" font-size="14.00">icepyx.core.query</text>
</g>
<!-- icepyx.core.query&#45;&gt;icepyx.core.auth -->
<g id="edge1" class="edge">
<title>icepyx.core.query&#45;&gt;icepyx.core.auth</title>
<path fill="none" stroke="black" d="M337.42,-34.7C287.11,-46.46 227.46,-62.16 220,-72 210.33,-84.75 210.23,-95.33 220,-108 235.41,-128 294.02,-141.97 344,-150.53"/>
<polygon fill="black" stroke="black" points="353.87,-152.17 343.27,-154.97 348.94,-151.35 344.01,-150.53 344.01,-150.53 344.01,-150.53 348.94,-151.35 344.74,-146.09 353.87,-152.17 353.87,-152.17"/>
</g>
<!-- icepyx.core.query&#45;&gt;icepyx.core.granules -->
<g id="edge2" class="edge">
<title>icepyx.core.query&#45;&gt;icepyx.core.granules</title>
<path fill="none" stroke="black" d="M385.03,-36.12C372.45,-45.11 356.87,-56.24 343.25,-65.97"/>
<polygon fill="black" stroke="black" points="335.07,-71.81 340.59,-62.34 339.13,-68.9 343.2,-66 343.2,-66 343.2,-66 339.13,-68.9 345.82,-69.66 335.07,-71.81 335.07,-71.81"/>
</g>
<!-- icepyx.core.variables -->
<g id="node13" class="node">
<title>icepyx.core.variables</title>
<polygon fill="none" stroke="black" points="788.5,-108 621.5,-108 621.5,-72 788.5,-72 788.5,-108"/>
<text text-anchor="middle" x="705" y="-86.3" font-family="Times,serif" font-size="14.00">icepyx.core.variables</text>
</g>
<!-- icepyx.core.query&#45;&gt;icepyx.core.variables -->
<g id="edge3" class="edge">
<title>icepyx.core.query&#45;&gt;icepyx.core.variables</title>
<path fill="none" stroke="black" d="M480.65,-35.95C523.6,-46.1 578.36,-59.05 623.03,-69.61"/>
<polygon fill="black" stroke="black" points="632.98,-71.97 622.21,-74.05 628.11,-70.82 623.25,-69.67 623.25,-69.67 623.25,-69.67 628.11,-70.82 624.28,-65.29 632.98,-71.97 632.98,-71.97"/>
</g>
<!-- icepyx.core.visualization -->
<g id="node14" class="node">
<title>icepyx.core.visualization</title>
<polygon fill="none" stroke="black" points="603,-108 411,-108 411,-72 603,-72 603,-108"/>
<text text-anchor="middle" x="507" y="-86.3" font-family="Times,serif" font-size="14.00">icepyx.core.visualization</text>
</g>
<!-- icepyx.core.query&#45;&gt;icepyx.core.visualization -->
<g id="edge4" class="edge">
<title>icepyx.core.query&#45;&gt;icepyx.core.visualization</title>
<path fill="none" stroke="black" d="M432.97,-36.12C445.55,-45.11 461.13,-56.24 474.75,-65.97"/>
<polygon fill="black" stroke="black" points="482.93,-71.81 472.18,-69.66 478.87,-68.9 474.8,-66 474.8,-66 474.8,-66 478.87,-68.9 477.41,-62.34 482.93,-71.81 482.93,-71.81"/>
</g>
<!-- icepyx.core.read -->
<g id="node9" class="node">
<title>icepyx.core.read</title>
<polygon fill="none" stroke="black" points="827,-36 693,-36 693,0 827,0 827,-36"/>
<text text-anchor="middle" x="760" y="-14.3" font-family="Times,serif" font-size="14.00">icepyx.core.read</text>
</g>
<!-- icepyx.core.read&#45;&gt;icepyx.core.exceptions -->
<g id="edge5" class="edge">
<title>icepyx.core.read&#45;&gt;icepyx.core.exceptions</title>
<path fill="none" stroke="black" d="M776.04,-36.15C784.01,-45.88 792.83,-58.73 797,-72 801.8,-87.26 801.8,-92.74 797,-108 793.9,-117.85 788.25,-127.47 782.28,-135.75"/>
<polygon fill="black" stroke="black" points="776.04,-143.85 778.58,-133.18 779.09,-139.89 782.14,-135.93 782.14,-135.93 782.14,-135.93 779.09,-139.89 785.71,-138.67 776.04,-143.85 776.04,-143.85"/>
</g>
<!-- icepyx.core.read&#45;&gt;icepyx.core.variables -->
<g id="edge6" class="edge">
<title>icepyx.core.read&#45;&gt;icepyx.core.variables</title>
<path fill="none" stroke="black" d="M746.4,-36.3C739.88,-44.61 731.93,-54.72 724.75,-63.86"/>
<polygon fill="black" stroke="black" points="718.44,-71.9 721.08,-61.25 721.53,-67.96 724.62,-64.03 724.62,-64.03 724.62,-64.03 721.53,-67.96 728.16,-66.81 718.44,-71.9 718.44,-71.9"/>
</g>
<!-- icepyx.core.spatial -->
<g id="node10" class="node">
<title>icepyx.core.spatial</title>
<polygon fill="none" stroke="black" points="1360,-36 1210,-36 1210,0 1360,0 1360,-36"/>
<text text-anchor="middle" x="1285" y="-14.3" font-family="Times,serif" font-size="14.00">icepyx.core.spatial</text>
</g>
<!-- icepyx.core.temporal -->
<g id="node11" class="node">
<title>icepyx.core.temporal</title>
<polygon fill="none" stroke="black" points="1544.5,-36 1377.5,-36 1377.5,0 1544.5,0 1544.5,-36"/>
<text text-anchor="middle" x="1461" y="-14.3" font-family="Times,serif" font-size="14.00">icepyx.core.temporal</text>
</g>
<!-- icepyx.core.validate_inputs -->
<g id="node12" class="node">
<title>icepyx.core.validate_inputs</title>
<polygon fill="none" stroke="black" points="1773.5,-36 1562.5,-36 1562.5,0 1773.5,0 1773.5,-36"/>
<text text-anchor="middle" x="1668" y="-14.3" font-family="Times,serif" font-size="14.00">icepyx.core.validate_inputs</text>
</g>
<!-- icepyx.core.variables&#45;&gt;icepyx.core.auth -->
<g id="edge7" class="edge">
<title>icepyx.core.variables&#45;&gt;icepyx.core.auth</title>
<path fill="none" stroke="black" d="M635.89,-108.03C594.3,-118.28 541.28,-131.35 498.31,-141.95"/>
<polygon fill="black" stroke="black" points="488.46,-144.37 497.09,-137.61 493.31,-143.18 498.17,-141.98 498.17,-141.98 498.17,-141.98 493.31,-143.18 499.24,-146.35 488.46,-144.37 488.46,-144.37"/>
</g>
<!-- icepyx.core.variables&#45;&gt;icepyx.core.exceptions -->
<g id="edge8" class="edge">
<title>icepyx.core.variables&#45;&gt;icepyx.core.exceptions</title>
<path fill="none" stroke="black" d="M718.6,-108.3C725.12,-116.61 733.07,-126.72 740.25,-135.86"/>
<polygon fill="black" stroke="black" points="746.56,-143.9 736.84,-138.81 743.47,-139.96 740.38,-136.03 740.38,-136.03 740.38,-136.03 743.47,-139.96 743.92,-133.25 746.56,-143.9 746.56,-143.9"/>
</g>
</g>
</svg>
