<?xml version="1.0" encoding="utf-8" standalone="no"?>
<!DOCTYPE svg PUBLIC "-//W3C//DTD SVG 1.1//EN"
  "http://www.w3.org/Graphics/SVG/1.1/DTD/svg11.dtd">
<svg height="288pt" version="1.1" viewBox="0 0 720 288" width="720pt" xmlns="http://www.w3.org/2000/svg" xmlns:xlink="http://www.w3.org/1999/xlink">
 <metadata>
  <rdf:RDF xmlns:cc="http://creativecommons.org/ns#" xmlns:dc="http://purl.org/dc/elements/1.1/" xmlns:rdf="http://www.w3.org/1999/02/22-rdf-syntax-ns#">
   <cc:Work>
    <dc:type rdf:resource="http://purl.org/dc/dcmitype/StillImage"/>
    <dc:date>2021-03-29T16:34:08.892176</dc:date>
    <dc:format>image/svg+xml</dc:format>
    <dc:creator>
     <cc:Agent>
      <dc:title>Matplotlib v3.4.0, https://matplotlib.org/</dc:title>
     </cc:Agent>
    </dc:creator>
   </cc:Work>
  </rdf:RDF>
 </metadata>
 <defs>
  <style type="text/css">*{stroke-linecap:butt;stroke-linejoin:round;}</style>
 </defs>
 <g id="figure_1">
  <g id="patch_1">
   <path d="M 0 288 
L 720 288 
L 720 0 
L 0 0 
z
" style="fill:#ffffff;"/>
  </g>
  <g id="axes_1">
   <g id="patch_2">
    <path d="M 90 135.36 
L 648 135.36 
L 648 34.56 
L 90 34.56 
z
" style="fill:#ffffff;"/>
   </g>
   <g id="matplotlib.axis_1">
    <g id="xtick_1">
     <g id="line2d_1">
      <defs>
       <path d="M 0 0 
L 0 3.5 
" id="me9ad58822a" style="stroke:#000000;stroke-width:0.8;"/>
      </defs>
      <g>
       <use style="stroke:#000000;stroke-width:0.8;" x="115.363636" xlink:href="#me9ad58822a" y="135.36"/>
      </g>
     </g>
     <g id="text_1">
      <!-- 2020-10-22 -->
      <g transform="translate(86.305824 149.958437)scale(0.1 -0.1)">
       <defs>
        <path d="M 1228 531 
L 3431 531 
L 3431 0 
L 469 0 
L 469 531 
Q 828 903 1448 1529 
Q 2069 2156 2228 2338 
Q 2531 2678 2651 2914 
Q 2772 3150 2772 3378 
Q 2772 3750 2511 3984 
Q 2250 4219 1831 4219 
Q 1534 4219 1204 4116 
Q 875 4013 500 3803 
L 500 4441 
Q 881 4594 1212 4672 
Q 1544 4750 1819 4750 
Q 2544 4750 2975 4387 
Q 3406 4025 3406 3419 
Q 3406 3131 3298 2873 
Q 3191 2616 2906 2266 
Q 2828 2175 2409 1742 
Q 1991 1309 1228 531 
z
" id="DejaVuSans-32" transform="scale(0.015625)"/>
        <path d="M 2034 4250 
Q 1547 4250 1301 3770 
Q 1056 3291 1056 2328 
Q 1056 1369 1301 889 
Q 1547 409 2034 409 
Q 2525 409 2770 889 
Q 3016 1369 3016 2328 
Q 3016 3291 2770 3770 
Q 2525 4250 2034 4250 
z
M 2034 4750 
Q 2819 4750 3233 4129 
Q 3647 3509 3647 2328 
Q 3647 1150 3233 529 
Q 2819 -91 2034 -91 
Q 1250 -91 836 529 
Q 422 1150 422 2328 
Q 422 3509 836 4129 
Q 1250 4750 2034 4750 
z
" id="DejaVuSans-30" transform="scale(0.015625)"/>
        <path d="M 313 2009 
L 1997 2009 
L 1997 1497 
L 313 1497 
L 313 2009 
z
" id="DejaVuSans-2d" transform="scale(0.015625)"/>
        <path d="M 794 531 
L 1825 531 
L 1825 4091 
L 703 3866 
L 703 4441 
L 1819 4666 
L 2450 4666 
L 2450 531 
L 3481 531 
L 3481 0 
L 794 0 
L 794 531 
z
" id="DejaVuSans-31" transform="scale(0.015625)"/>
       </defs>
       <use xlink:href="#DejaVuSans-32"/>
       <use x="63.623047" xlink:href="#DejaVuSans-30"/>
       <use x="127.246094" xlink:href="#DejaVuSans-32"/>
       <use x="190.869141" xlink:href="#DejaVuSans-30"/>
       <use x="254.492188" xlink:href="#DejaVuSans-2d"/>
       <use x="290.576172" xlink:href="#DejaVuSans-31"/>
       <use x="354.199219" xlink:href="#DejaVuSans-30"/>
       <use x="417.822266" xlink:href="#DejaVuSans-2d"/>
       <use x="453.90625" xlink:href="#DejaVuSans-32"/>
       <use x="517.529297" xlink:href="#DejaVuSans-32"/>
      </g>
     </g>
    </g>
    <g id="xtick_2">
     <g id="line2d_2">
      <g>
       <use style="stroke:#000000;stroke-width:0.8;" x="206.764128" xlink:href="#me9ad58822a" y="135.36"/>
      </g>
     </g>
     <g id="text_2">
      <!-- 2020-11-19 -->
      <g transform="translate(177.706315 149.958437)scale(0.1 -0.1)">
       <defs>
        <path d="M 703 97 
L 703 672 
Q 941 559 1184 500 
Q 1428 441 1663 441 
Q 2288 441 2617 861 
Q 2947 1281 2994 2138 
Q 2813 1869 2534 1725 
Q 2256 1581 1919 1581 
Q 1219 1581 811 2004 
Q 403 2428 403 3163 
Q 403 3881 828 4315 
Q 1253 4750 1959 4750 
Q 2769 4750 3195 4129 
Q 3622 3509 3622 2328 
Q 3622 1225 3098 567 
Q 2575 -91 1691 -91 
Q 1453 -91 1209 -44 
Q 966 3 703 97 
z
M 1959 2075 
Q 2384 2075 2632 2365 
Q 2881 2656 2881 3163 
Q 2881 3666 2632 3958 
Q 2384 4250 1959 4250 
Q 1534 4250 1286 3958 
Q 1038 3666 1038 3163 
Q 1038 2656 1286 2365 
Q 1534 2075 1959 2075 
z
" id="DejaVuSans-39" transform="scale(0.015625)"/>
       </defs>
       <use xlink:href="#DejaVuSans-32"/>
       <use x="63.623047" xlink:href="#DejaVuSans-30"/>
       <use x="127.246094" xlink:href="#DejaVuSans-32"/>
       <use x="190.869141" xlink:href="#DejaVuSans-30"/>
       <use x="254.492188" xlink:href="#DejaVuSans-2d"/>
       <use x="290.576172" xlink:href="#DejaVuSans-31"/>
       <use x="354.199219" xlink:href="#DejaVuSans-31"/>
       <use x="417.822266" xlink:href="#DejaVuSans-2d"/>
       <use x="453.90625" xlink:href="#DejaVuSans-31"/>
       <use x="517.529297" xlink:href="#DejaVuSans-39"/>
      </g>
     </g>
    </g>
    <g id="xtick_3">
     <g id="line2d_3">
      <g>
       <use style="stroke:#000000;stroke-width:0.8;" x="298.164619" xlink:href="#me9ad58822a" y="135.36"/>
      </g>
     </g>
     <g id="text_3">
      <!-- 2020-12-15 -->
      <g transform="translate(269.106807 149.958437)scale(0.1 -0.1)">
       <defs>
        <path d="M 691 4666 
L 3169 4666 
L 3169 4134 
L 1269 4134 
L 1269 2991 
Q 1406 3038 1543 3061 
Q 1681 3084 1819 3084 
Q 2600 3084 3056 2656 
Q 3513 2228 3513 1497 
Q 3513 744 3044 326 
Q 2575 -91 1722 -91 
Q 1428 -91 1123 -41 
Q 819 9 494 109 
L 494 744 
Q 775 591 1075 516 
Q 1375 441 1709 441 
Q 2250 441 2565 725 
Q 2881 1009 2881 1497 
Q 2881 1984 2565 2268 
Q 2250 2553 1709 2553 
Q 1456 2553 1204 2497 
Q 953 2441 691 2322 
L 691 4666 
z
" id="DejaVuSans-35" transform="scale(0.015625)"/>
       </defs>
       <use xlink:href="#DejaVuSans-32"/>
       <use x="63.623047" xlink:href="#DejaVuSans-30"/>
       <use x="127.246094" xlink:href="#DejaVuSans-32"/>
       <use x="190.869141" xlink:href="#DejaVuSans-30"/>
       <use x="254.492188" xlink:href="#DejaVuSans-2d"/>
       <use x="290.576172" xlink:href="#DejaVuSans-31"/>
       <use x="354.199219" xlink:href="#DejaVuSans-32"/>
       <use x="417.822266" xlink:href="#DejaVuSans-2d"/>
       <use x="453.90625" xlink:href="#DejaVuSans-31"/>
       <use x="517.529297" xlink:href="#DejaVuSans-35"/>
      </g>
     </g>
    </g>
    <g id="xtick_4">
     <g id="line2d_4">
      <g>
       <use style="stroke:#000000;stroke-width:0.8;" x="389.565111" xlink:href="#me9ad58822a" y="135.36"/>
      </g>
     </g>
     <g id="text_4">
      <!-- 2021-01-22 -->
      <g transform="translate(360.507298 149.958437)scale(0.1 -0.1)">
       <use xlink:href="#DejaVuSans-32"/>
       <use x="63.623047" xlink:href="#DejaVuSans-30"/>
       <use x="127.246094" xlink:href="#DejaVuSans-32"/>
       <use x="190.869141" xlink:href="#DejaVuSans-31"/>
       <use x="254.492188" xlink:href="#DejaVuSans-2d"/>
       <use x="290.576172" xlink:href="#DejaVuSans-30"/>
       <use x="354.199219" xlink:href="#DejaVuSans-31"/>
       <use x="417.822266" xlink:href="#DejaVuSans-2d"/>
       <use x="453.90625" xlink:href="#DejaVuSans-32"/>
       <use x="517.529297" xlink:href="#DejaVuSans-32"/>
      </g>
     </g>
    </g>
    <g id="xtick_5">
     <g id="line2d_5">
      <g>
       <use style="stroke:#000000;stroke-width:0.8;" x="480.965602" xlink:href="#me9ad58822a" y="135.36"/>
      </g>
     </g>
     <g id="text_5">
      <!-- 2021-02-23 -->
      <g transform="translate(451.907789 149.958437)scale(0.1 -0.1)">
       <defs>
        <path d="M 2597 2516 
Q 3050 2419 3304 2112 
Q 3559 1806 3559 1356 
Q 3559 666 3084 287 
Q 2609 -91 1734 -91 
Q 1441 -91 1130 -33 
Q 819 25 488 141 
L 488 750 
Q 750 597 1062 519 
Q 1375 441 1716 441 
Q 2309 441 2620 675 
Q 2931 909 2931 1356 
Q 2931 1769 2642 2001 
Q 2353 2234 1838 2234 
L 1294 2234 
L 1294 2753 
L 1863 2753 
Q 2328 2753 2575 2939 
Q 2822 3125 2822 3475 
Q 2822 3834 2567 4026 
Q 2313 4219 1838 4219 
Q 1578 4219 1281 4162 
Q 984 4106 628 3988 
L 628 4550 
Q 988 4650 1302 4700 
Q 1616 4750 1894 4750 
Q 2613 4750 3031 4423 
Q 3450 4097 3450 3541 
Q 3450 3153 3228 2886 
Q 3006 2619 2597 2516 
z
" id="DejaVuSans-33" transform="scale(0.015625)"/>
       </defs>
       <use xlink:href="#DejaVuSans-32"/>
       <use x="63.623047" xlink:href="#DejaVuSans-30"/>
       <use x="127.246094" xlink:href="#DejaVuSans-32"/>
       <use x="190.869141" xlink:href="#DejaVuSans-31"/>
       <use x="254.492188" xlink:href="#DejaVuSans-2d"/>
       <use x="290.576172" xlink:href="#DejaVuSans-30"/>
       <use x="354.199219" xlink:href="#DejaVuSans-32"/>
       <use x="417.822266" xlink:href="#DejaVuSans-2d"/>
       <use x="453.90625" xlink:href="#DejaVuSans-32"/>
       <use x="517.529297" xlink:href="#DejaVuSans-33"/>
      </g>
     </g>
    </g>
    <g id="xtick_6">
     <g id="line2d_6">
      <g>
       <use style="stroke:#000000;stroke-width:0.8;" x="572.366093" xlink:href="#me9ad58822a" y="135.36"/>
      </g>
     </g>
     <g id="text_6">
      <!-- 2021-03-17 -->
      <g transform="translate(543.308281 149.958437)scale(0.1 -0.1)">
       <defs>
        <path d="M 525 4666 
L 3525 4666 
L 3525 4397 
L 1831 0 
L 1172 0 
L 2766 4134 
L 525 4134 
L 525 4666 
z
" id="DejaVuSans-37" transform="scale(0.015625)"/>
       </defs>
       <use xlink:href="#DejaVuSans-32"/>
       <use x="63.623047" xlink:href="#DejaVuSans-30"/>
       <use x="127.246094" xlink:href="#DejaVuSans-32"/>
       <use x="190.869141" xlink:href="#DejaVuSans-31"/>
       <use x="254.492188" xlink:href="#DejaVuSans-2d"/>
       <use x="290.576172" xlink:href="#DejaVuSans-30"/>
       <use x="354.199219" xlink:href="#DejaVuSans-33"/>
       <use x="417.822266" xlink:href="#DejaVuSans-2d"/>
       <use x="453.90625" xlink:href="#DejaVuSans-31"/>
       <use x="517.529297" xlink:href="#DejaVuSans-37"/>
      </g>
     </g>
    </g>
    <g id="text_7">
     <!-- _date -->
     <g transform="translate(355.225 163.636562)scale(0.1 -0.1)">
      <defs>
       <path d="M 3263 -1063 
L 3263 -1509 
L -63 -1509 
L -63 -1063 
L 3263 -1063 
z
" id="DejaVuSans-5f" transform="scale(0.015625)"/>
       <path d="M 2906 2969 
L 2906 4863 
L 3481 4863 
L 3481 0 
L 2906 0 
L 2906 525 
Q 2725 213 2448 61 
Q 2172 -91 1784 -91 
Q 1150 -91 751 415 
Q 353 922 353 1747 
Q 353 2572 751 3078 
Q 1150 3584 1784 3584 
Q 2172 3584 2448 3432 
Q 2725 3281 2906 2969 
z
M 947 1747 
Q 947 1113 1208 752 
Q 1469 391 1925 391 
Q 2381 391 2643 752 
Q 2906 1113 2906 1747 
Q 2906 2381 2643 2742 
Q 2381 3103 1925 3103 
Q 1469 3103 1208 2742 
Q 947 2381 947 1747 
z
" id="DejaVuSans-64" transform="scale(0.015625)"/>
       <path d="M 2194 1759 
Q 1497 1759 1228 1600 
Q 959 1441 959 1056 
Q 959 750 1161 570 
Q 1363 391 1709 391 
Q 2188 391 2477 730 
Q 2766 1069 2766 1631 
L 2766 1759 
L 2194 1759 
z
M 3341 1997 
L 3341 0 
L 2766 0 
L 2766 531 
Q 2569 213 2275 61 
Q 1981 -91 1556 -91 
Q 1019 -91 701 211 
Q 384 513 384 1019 
Q 384 1609 779 1909 
Q 1175 2209 1959 2209 
L 2766 2209 
L 2766 2266 
Q 2766 2663 2505 2880 
Q 2244 3097 1772 3097 
Q 1472 3097 1187 3025 
Q 903 2953 641 2809 
L 641 3341 
Q 956 3463 1253 3523 
Q 1550 3584 1831 3584 
Q 2591 3584 2966 3190 
Q 3341 2797 3341 1997 
z
" id="DejaVuSans-61" transform="scale(0.015625)"/>
       <path d="M 1172 4494 
L 1172 3500 
L 2356 3500 
L 2356 3053 
L 1172 3053 
L 1172 1153 
Q 1172 725 1289 603 
Q 1406 481 1766 481 
L 2356 481 
L 2356 0 
L 1766 0 
Q 1100 0 847 248 
Q 594 497 594 1153 
L 594 3053 
L 172 3053 
L 172 3500 
L 594 3500 
L 594 4494 
L 1172 4494 
z
" id="DejaVuSans-74" transform="scale(0.015625)"/>
       <path d="M 3597 1894 
L 3597 1613 
L 953 1613 
Q 991 1019 1311 708 
Q 1631 397 2203 397 
Q 2534 397 2845 478 
Q 3156 559 3463 722 
L 3463 178 
Q 3153 47 2828 -22 
Q 2503 -91 2169 -91 
Q 1331 -91 842 396 
Q 353 884 353 1716 
Q 353 2575 817 3079 
Q 1281 3584 2069 3584 
Q 2775 3584 3186 3129 
Q 3597 2675 3597 1894 
z
M 3022 2063 
Q 3016 2534 2758 2815 
Q 2500 3097 2075 3097 
Q 1594 3097 1305 2825 
Q 1016 2553 972 2059 
L 3022 2063 
z
" id="DejaVuSans-65" transform="scale(0.015625)"/>
      </defs>
      <use xlink:href="#DejaVuSans-5f"/>
      <use x="50" xlink:href="#DejaVuSans-64"/>
      <use x="113.476562" xlink:href="#DejaVuSans-61"/>
      <use x="174.755859" xlink:href="#DejaVuSans-74"/>
      <use x="213.964844" xlink:href="#DejaVuSans-65"/>
     </g>
    </g>
   </g>
   <g id="matplotlib.axis_2">
    <g id="ytick_1">
     <g id="line2d_7">
      <defs>
       <path d="M 0 0 
L -3.5 0 
" id="m15ccbc58b3" style="stroke:#000000;stroke-width:0.8;"/>
      </defs>
      <g>
       <use style="stroke:#000000;stroke-width:0.8;" x="90" xlink:href="#m15ccbc58b3" y="132.087273"/>
      </g>
     </g>
     <g id="text_8">
      <!-- 0 -->
      <g transform="translate(76.6375 135.886491)scale(0.1 -0.1)">
       <use xlink:href="#DejaVuSans-30"/>
      </g>
     </g>
    </g>
    <g id="ytick_2">
     <g id="line2d_8">
      <g>
       <use style="stroke:#000000;stroke-width:0.8;" x="90" xlink:href="#m15ccbc58b3" y="105.905455"/>
      </g>
     </g>
     <g id="text_9">
      <!-- 20 -->
      <g transform="translate(70.275 109.704673)scale(0.1 -0.1)">
       <use xlink:href="#DejaVuSans-32"/>
       <use x="63.623047" xlink:href="#DejaVuSans-30"/>
      </g>
     </g>
    </g>
    <g id="ytick_3">
     <g id="line2d_9">
      <g>
       <use style="stroke:#000000;stroke-width:0.8;" x="90" xlink:href="#m15ccbc58b3" y="79.723636"/>
      </g>
     </g>
     <g id="text_10">
      <!-- 40 -->
      <g transform="translate(70.275 83.522855)scale(0.1 -0.1)">
       <defs>
        <path d="M 2419 4116 
L 825 1625 
L 2419 1625 
L 2419 4116 
z
M 2253 4666 
L 3047 4666 
L 3047 1625 
L 3713 1625 
L 3713 1100 
L 3047 1100 
L 3047 0 
L 2419 0 
L 2419 1100 
L 313 1100 
L 313 1709 
L 2253 4666 
z
" id="DejaVuSans-34" transform="scale(0.015625)"/>
       </defs>
       <use xlink:href="#DejaVuSans-34"/>
       <use x="63.623047" xlink:href="#DejaVuSans-30"/>
      </g>
     </g>
    </g>
    <g id="ytick_4">
     <g id="line2d_10">
      <g>
       <use style="stroke:#000000;stroke-width:0.8;" x="90" xlink:href="#m15ccbc58b3" y="53.541818"/>
      </g>
     </g>
     <g id="text_11">
      <!-- 60 -->
      <g transform="translate(70.275 57.341037)scale(0.1 -0.1)">
       <defs>
        <path d="M 2113 2584 
Q 1688 2584 1439 2293 
Q 1191 2003 1191 1497 
Q 1191 994 1439 701 
Q 1688 409 2113 409 
Q 2538 409 2786 701 
Q 3034 994 3034 1497 
Q 3034 2003 2786 2293 
Q 2538 2584 2113 2584 
z
M 3366 4563 
L 3366 3988 
Q 3128 4100 2886 4159 
Q 2644 4219 2406 4219 
Q 1781 4219 1451 3797 
Q 1122 3375 1075 2522 
Q 1259 2794 1537 2939 
Q 1816 3084 2150 3084 
Q 2853 3084 3261 2657 
Q 3669 2231 3669 1497 
Q 3669 778 3244 343 
Q 2819 -91 2113 -91 
Q 1303 -91 875 529 
Q 447 1150 447 2328 
Q 447 3434 972 4092 
Q 1497 4750 2381 4750 
Q 2619 4750 2861 4703 
Q 3103 4656 3366 4563 
z
" id="DejaVuSans-36" transform="scale(0.015625)"/>
       </defs>
       <use xlink:href="#DejaVuSans-36"/>
       <use x="63.623047" xlink:href="#DejaVuSans-30"/>
      </g>
     </g>
    </g>
   </g>
   <g id="line2d_11">
    <path clip-path="url(#pc9b78f5f50)" d="M 115.363636 124.232727 
L 119.933661 125.541818 
L 124.503686 130.778182 
L 129.07371 130.778182 
L 133.643735 128.16 
L 138.213759 128.16 
L 142.783784 109.832727 
L 147.353808 109.832727 
L 151.923833 130.778182 
L 156.493857 130.778182 
L 161.063882 117.687273 
L 165.633907 121.614545 
L 170.203931 130.778182 
L 174.773956 124.232727 
L 179.34398 126.850909 
L 183.914005 126.850909 
L 188.484029 130.778182 
L 193.054054 128.16 
L 197.624079 125.541818 
L 202.194103 129.469091 
L 206.764128 130.778182 
L 211.334152 129.469091 
L 215.904177 129.469091 
L 220.474201 128.16 
L 225.044226 129.469091 
L 229.614251 129.469091 
L 234.184275 126.850909 
L 238.7543 129.469091 
L 243.324324 129.469091 
L 247.894349 113.76 
L 252.464373 124.232727 
L 257.034398 129.469091 
L 261.604423 99.36 
L 266.174447 130.778182 
L 270.744472 130.778182 
L 275.314496 130.778182 
L 279.884521 130.778182 
L 284.454545 130.778182 
L 289.02457 130.778182 
L 293.594595 130.778182 
L 298.164619 130.778182 
L 302.734644 130.778182 
L 307.304668 129.469091 
L 311.874693 130.778182 
L 316.444717 130.778182 
L 321.014742 130.778182 
L 325.584767 130.778182 
L 330.154791 130.778182 
L 334.724816 130.778182 
L 339.29484 130.778182 
L 343.864865 130.778182 
L 348.434889 126.850909 
L 353.004914 128.16 
L 357.574939 130.778182 
L 362.144963 128.16 
L 366.714988 124.232727 
L 371.285012 129.469091 
L 375.855037 129.469091 
L 380.425061 126.850909 
L 384.995086 109.832727 
L 389.565111 129.469091 
L 394.135135 130.778182 
L 398.70516 129.469091 
L 403.275184 122.923636 
L 407.845209 129.469091 
L 412.415233 128.16 
L 416.985258 118.996364 
L 421.555283 126.850909 
L 426.125307 122.923636 
L 430.695332 129.469091 
L 435.265356 128.16 
L 439.835381 129.469091 
L 444.405405 128.16 
L 448.97543 128.16 
L 453.545455 128.16 
L 458.115479 125.541818 
L 462.685504 130.778182 
L 467.255528 130.778182 
L 471.825553 125.541818 
L 476.395577 125.541818 
L 480.965602 118.996364 
L 485.535627 128.16 
L 490.105651 124.232727 
L 494.675676 130.778182 
L 499.2457 120.305455 
L 503.815725 126.850909 
L 508.385749 128.16 
L 512.955774 126.850909 
L 517.525799 121.614545 
L 522.095823 129.469091 
L 526.665848 125.541818 
L 531.235872 111.141818 
L 535.805897 121.614545 
L 540.375921 109.832727 
L 544.945946 39.141818 
L 549.515971 124.232727 
L 554.085995 130.778182 
L 558.65602 126.850909 
L 563.226044 115.069091 
L 567.796069 117.687273 
L 572.366093 124.232727 
L 576.936118 107.214545 
L 581.506143 126.850909 
L 586.076167 126.850909 
L 590.646192 129.469091 
L 595.216216 113.76 
L 599.786241 117.687273 
L 604.356265 130.778182 
L 608.92629 128.16 
L 613.496314 130.778182 
L 618.066339 125.541818 
L 622.636364 108.523636 
" style="fill:none;stroke:#1f77b4;stroke-linecap:square;stroke-width:1.5;"/>
   </g>
   <g id="line2d_12">
    <path clip-path="url(#pc9b78f5f50)" d="M 115.363636 124.232727 
L 119.933661 125.541818 
L 124.503686 130.778182 
L 129.07371 130.778182 
L 133.643735 128.16 
L 138.213759 128.16 
L 142.783784 129.469091 
L 147.353808 125.541818 
L 151.923833 130.778182 
L 156.493857 130.778182 
L 161.063882 117.687273 
L 165.633907 128.16 
L 170.203931 130.778182 
L 174.773956 126.850909 
L 179.34398 126.850909 
L 183.914005 128.16 
L 188.484029 130.778182 
L 193.054054 128.16 
L 197.624079 126.850909 
L 202.194103 129.469091 
L 206.764128 130.778182 
L 211.334152 129.469091 
L 215.904177 130.778182 
L 220.474201 128.16 
L 225.044226 129.469091 
L 229.614251 130.778182 
L 234.184275 129.469091 
L 238.7543 130.778182 
L 243.324324 129.469091 
L 247.894349 120.305455 
L 252.464373 124.232727 
L 257.034398 129.469091 
L 261.604423 118.996364 
L 266.174447 130.778182 
L 270.744472 130.778182 
L 275.314496 130.778182 
L 279.884521 130.778182 
L 284.454545 130.778182 
L 289.02457 130.778182 
L 293.594595 130.778182 
L 298.164619 130.778182 
L 302.734644 130.778182 
L 307.304668 129.469091 
L 311.874693 130.778182 
L 316.444717 130.778182 
L 321.014742 130.778182 
L 325.584767 130.778182 
L 330.154791 130.778182 
L 334.724816 130.778182 
L 339.29484 130.778182 
L 343.864865 130.778182 
L 348.434889 128.16 
L 353.004914 130.778182 
L 357.574939 130.778182 
L 362.144963 129.469091 
L 366.714988 128.16 
L 371.285012 130.778182 
L 375.855037 130.778182 
L 380.425061 130.778182 
L 384.995086 117.687273 
L 389.565111 130.778182 
L 394.135135 130.778182 
L 398.70516 129.469091 
L 403.275184 126.850909 
L 407.845209 129.469091 
L 412.415233 128.16 
L 416.985258 122.923636 
L 421.555283 128.16 
L 426.125307 130.778182 
L 430.695332 129.469091 
L 435.265356 130.778182 
L 439.835381 129.469091 
L 444.405405 130.778182 
L 448.97543 128.16 
L 453.545455 128.16 
L 458.115479 128.16 
L 462.685504 130.778182 
L 467.255528 130.778182 
L 471.825553 128.16 
L 476.395577 125.541818 
L 480.965602 122.923636 
L 485.535627 128.16 
L 490.105651 125.541818 
L 494.675676 130.778182 
L 499.2457 122.923636 
L 503.815725 126.850909 
L 508.385749 128.16 
L 512.955774 126.850909 
L 517.525799 121.614545 
L 522.095823 129.469091 
L 526.665848 125.541818 
L 531.235872 117.687273 
L 535.805897 122.923636 
L 540.375921 115.069091 
L 544.945946 84.96 
L 549.515971 124.232727 
L 554.085995 130.778182 
L 558.65602 128.16 
L 563.226044 116.378182 
L 567.796069 120.305455 
L 572.366093 124.232727 
L 576.936118 112.450909 
L 581.506143 126.850909 
L 586.076167 126.850909 
L 590.646192 129.469091 
L 595.216216 117.687273 
L 599.786241 117.687273 
L 604.356265 130.778182 
L 608.92629 128.16 
L 613.496314 130.778182 
L 618.066339 126.850909 
L 622.636364 111.141818 
" style="fill:none;stroke:#ff7f0e;stroke-linecap:square;stroke-width:1.5;"/>
   </g>
   <g id="patch_3">
    <path d="M 90 135.36 
L 90 34.56 
" style="fill:none;stroke:#000000;stroke-linecap:square;stroke-linejoin:miter;stroke-width:0.8;"/>
   </g>
   <g id="patch_4">
    <path d="M 648 135.36 
L 648 34.56 
" style="fill:none;stroke:#000000;stroke-linecap:square;stroke-linejoin:miter;stroke-width:0.8;"/>
   </g>
   <g id="patch_5">
    <path d="M 90 135.36 
L 648 135.36 
" style="fill:none;stroke:#000000;stroke-linecap:square;stroke-linejoin:miter;stroke-width:0.8;"/>
   </g>
   <g id="patch_6">
    <path d="M 90 34.56 
L 648 34.56 
" style="fill:none;stroke:#000000;stroke-linecap:square;stroke-linejoin:miter;stroke-width:0.8;"/>
   </g>
   <g id="legend_1">
    <g id="patch_7">
     <path d="M 97 71.91625 
L 238.8625 71.91625 
Q 240.8625 71.91625 240.8625 69.91625 
L 240.8625 41.56 
Q 240.8625 39.56 238.8625 39.56 
L 97 39.56 
Q 95 39.56 95 41.56 
L 95 69.91625 
Q 95 71.91625 97 71.91625 
z
" style="fill:#ffffff;opacity:0.8;stroke:#cccccc;stroke-linejoin:miter;"/>
    </g>
    <g id="line2d_13">
     <path d="M 99 47.658437 
L 119 47.658437 
" style="fill:none;stroke:#1f77b4;stroke-linecap:square;stroke-width:1.5;"/>
    </g>
    <g id="line2d_14"/>
    <g id="text_12">
     <!-- Total GitHub Clones -->
     <g transform="translate(127 51.158437)scale(0.1 -0.1)">
      <defs>
       <path d="M -19 4666 
L 3928 4666 
L 3928 4134 
L 2272 4134 
L 2272 0 
L 1638 0 
L 1638 4134 
L -19 4134 
L -19 4666 
z
" id="DejaVuSans-54" transform="scale(0.015625)"/>
       <path d="M 1959 3097 
Q 1497 3097 1228 2736 
Q 959 2375 959 1747 
Q 959 1119 1226 758 
Q 1494 397 1959 397 
Q 2419 397 2687 759 
Q 2956 1122 2956 1747 
Q 2956 2369 2687 2733 
Q 2419 3097 1959 3097 
z
M 1959 3584 
Q 2709 3584 3137 3096 
Q 3566 2609 3566 1747 
Q 3566 888 3137 398 
Q 2709 -91 1959 -91 
Q 1206 -91 779 398 
Q 353 888 353 1747 
Q 353 2609 779 3096 
Q 1206 3584 1959 3584 
z
" id="DejaVuSans-6f" transform="scale(0.015625)"/>
       <path d="M 603 4863 
L 1178 4863 
L 1178 0 
L 603 0 
L 603 4863 
z
" id="DejaVuSans-6c" transform="scale(0.015625)"/>
       <path id="DejaVuSans-20" transform="scale(0.015625)"/>
       <path d="M 3809 666 
L 3809 1919 
L 2778 1919 
L 2778 2438 
L 4434 2438 
L 4434 434 
Q 4069 175 3628 42 
Q 3188 -91 2688 -91 
Q 1594 -91 976 548 
Q 359 1188 359 2328 
Q 359 3472 976 4111 
Q 1594 4750 2688 4750 
Q 3144 4750 3555 4637 
Q 3966 4525 4313 4306 
L 4313 3634 
Q 3963 3931 3569 4081 
Q 3175 4231 2741 4231 
Q 1884 4231 1454 3753 
Q 1025 3275 1025 2328 
Q 1025 1384 1454 906 
Q 1884 428 2741 428 
Q 3075 428 3337 486 
Q 3600 544 3809 666 
z
" id="DejaVuSans-47" transform="scale(0.015625)"/>
       <path d="M 603 3500 
L 1178 3500 
L 1178 0 
L 603 0 
L 603 3500 
z
M 603 4863 
L 1178 4863 
L 1178 4134 
L 603 4134 
L 603 4863 
z
" id="DejaVuSans-69" transform="scale(0.015625)"/>
       <path d="M 628 4666 
L 1259 4666 
L 1259 2753 
L 3553 2753 
L 3553 4666 
L 4184 4666 
L 4184 0 
L 3553 0 
L 3553 2222 
L 1259 2222 
L 1259 0 
L 628 0 
L 628 4666 
z
" id="DejaVuSans-48" transform="scale(0.015625)"/>
       <path d="M 544 1381 
L 544 3500 
L 1119 3500 
L 1119 1403 
Q 1119 906 1312 657 
Q 1506 409 1894 409 
Q 2359 409 2629 706 
Q 2900 1003 2900 1516 
L 2900 3500 
L 3475 3500 
L 3475 0 
L 2900 0 
L 2900 538 
Q 2691 219 2414 64 
Q 2138 -91 1772 -91 
Q 1169 -91 856 284 
Q 544 659 544 1381 
z
M 1991 3584 
L 1991 3584 
z
" id="DejaVuSans-75" transform="scale(0.015625)"/>
       <path d="M 3116 1747 
Q 3116 2381 2855 2742 
Q 2594 3103 2138 3103 
Q 1681 3103 1420 2742 
Q 1159 2381 1159 1747 
Q 1159 1113 1420 752 
Q 1681 391 2138 391 
Q 2594 391 2855 752 
Q 3116 1113 3116 1747 
z
M 1159 2969 
Q 1341 3281 1617 3432 
Q 1894 3584 2278 3584 
Q 2916 3584 3314 3078 
Q 3713 2572 3713 1747 
Q 3713 922 3314 415 
Q 2916 -91 2278 -91 
Q 1894 -91 1617 61 
Q 1341 213 1159 525 
L 1159 0 
L 581 0 
L 581 4863 
L 1159 4863 
L 1159 2969 
z
" id="DejaVuSans-62" transform="scale(0.015625)"/>
       <path d="M 4122 4306 
L 4122 3641 
Q 3803 3938 3442 4084 
Q 3081 4231 2675 4231 
Q 1875 4231 1450 3742 
Q 1025 3253 1025 2328 
Q 1025 1406 1450 917 
Q 1875 428 2675 428 
Q 3081 428 3442 575 
Q 3803 722 4122 1019 
L 4122 359 
Q 3791 134 3420 21 
Q 3050 -91 2638 -91 
Q 1578 -91 968 557 
Q 359 1206 359 2328 
Q 359 3453 968 4101 
Q 1578 4750 2638 4750 
Q 3056 4750 3426 4639 
Q 3797 4528 4122 4306 
z
" id="DejaVuSans-43" transform="scale(0.015625)"/>
       <path d="M 3513 2113 
L 3513 0 
L 2938 0 
L 2938 2094 
Q 2938 2591 2744 2837 
Q 2550 3084 2163 3084 
Q 1697 3084 1428 2787 
Q 1159 2491 1159 1978 
L 1159 0 
L 581 0 
L 581 3500 
L 1159 3500 
L 1159 2956 
Q 1366 3272 1645 3428 
Q 1925 3584 2291 3584 
Q 2894 3584 3203 3211 
Q 3513 2838 3513 2113 
z
" id="DejaVuSans-6e" transform="scale(0.015625)"/>
       <path d="M 2834 3397 
L 2834 2853 
Q 2591 2978 2328 3040 
Q 2066 3103 1784 3103 
Q 1356 3103 1142 2972 
Q 928 2841 928 2578 
Q 928 2378 1081 2264 
Q 1234 2150 1697 2047 
L 1894 2003 
Q 2506 1872 2764 1633 
Q 3022 1394 3022 966 
Q 3022 478 2636 193 
Q 2250 -91 1575 -91 
Q 1294 -91 989 -36 
Q 684 19 347 128 
L 347 722 
Q 666 556 975 473 
Q 1284 391 1588 391 
Q 1994 391 2212 530 
Q 2431 669 2431 922 
Q 2431 1156 2273 1281 
Q 2116 1406 1581 1522 
L 1381 1569 
Q 847 1681 609 1914 
Q 372 2147 372 2553 
Q 372 3047 722 3315 
Q 1072 3584 1716 3584 
Q 2034 3584 2315 3537 
Q 2597 3491 2834 3397 
z
" id="DejaVuSans-73" transform="scale(0.015625)"/>
      </defs>
      <use xlink:href="#DejaVuSans-54"/>
      <use x="44.083984" xlink:href="#DejaVuSans-6f"/>
      <use x="105.265625" xlink:href="#DejaVuSans-74"/>
      <use x="144.474609" xlink:href="#DejaVuSans-61"/>
      <use x="205.753906" xlink:href="#DejaVuSans-6c"/>
      <use x="233.537109" xlink:href="#DejaVuSans-20"/>
      <use x="265.324219" xlink:href="#DejaVuSans-47"/>
      <use x="342.814453" xlink:href="#DejaVuSans-69"/>
      <use x="370.597656" xlink:href="#DejaVuSans-74"/>
      <use x="409.806641" xlink:href="#DejaVuSans-48"/>
      <use x="485.001953" xlink:href="#DejaVuSans-75"/>
      <use x="548.380859" xlink:href="#DejaVuSans-62"/>
      <use x="611.857422" xlink:href="#DejaVuSans-20"/>
      <use x="643.644531" xlink:href="#DejaVuSans-43"/>
      <use x="713.46875" xlink:href="#DejaVuSans-6c"/>
      <use x="741.251953" xlink:href="#DejaVuSans-6f"/>
      <use x="802.433594" xlink:href="#DejaVuSans-6e"/>
      <use x="865.8125" xlink:href="#DejaVuSans-65"/>
      <use x="927.335938" xlink:href="#DejaVuSans-73"/>
     </g>
    </g>
    <g id="line2d_15">
     <path d="M 99 62.336562 
L 119 62.336562 
" style="fill:none;stroke:#ff7f0e;stroke-linecap:square;stroke-width:1.5;"/>
    </g>
    <g id="line2d_16"/>
    <g id="text_13">
     <!-- Unique GitHub Clones -->
     <g transform="translate(127 65.836562)scale(0.1 -0.1)">
      <defs>
       <path d="M 556 4666 
L 1191 4666 
L 1191 1831 
Q 1191 1081 1462 751 
Q 1734 422 2344 422 
Q 2950 422 3222 751 
Q 3494 1081 3494 1831 
L 3494 4666 
L 4128 4666 
L 4128 1753 
Q 4128 841 3676 375 
Q 3225 -91 2344 -91 
Q 1459 -91 1007 375 
Q 556 841 556 1753 
L 556 4666 
z
" id="DejaVuSans-55" transform="scale(0.015625)"/>
       <path d="M 947 1747 
Q 947 1113 1208 752 
Q 1469 391 1925 391 
Q 2381 391 2643 752 
Q 2906 1113 2906 1747 
Q 2906 2381 2643 2742 
Q 2381 3103 1925 3103 
Q 1469 3103 1208 2742 
Q 947 2381 947 1747 
z
M 2906 525 
Q 2725 213 2448 61 
Q 2172 -91 1784 -91 
Q 1150 -91 751 415 
Q 353 922 353 1747 
Q 353 2572 751 3078 
Q 1150 3584 1784 3584 
Q 2172 3584 2448 3432 
Q 2725 3281 2906 2969 
L 2906 3500 
L 3481 3500 
L 3481 -1331 
L 2906 -1331 
L 2906 525 
z
" id="DejaVuSans-71" transform="scale(0.015625)"/>
      </defs>
      <use xlink:href="#DejaVuSans-55"/>
      <use x="73.193359" xlink:href="#DejaVuSans-6e"/>
      <use x="136.572266" xlink:href="#DejaVuSans-69"/>
      <use x="164.355469" xlink:href="#DejaVuSans-71"/>
      <use x="227.832031" xlink:href="#DejaVuSans-75"/>
      <use x="291.210938" xlink:href="#DejaVuSans-65"/>
      <use x="352.734375" xlink:href="#DejaVuSans-20"/>
      <use x="384.521484" xlink:href="#DejaVuSans-47"/>
      <use x="462.011719" xlink:href="#DejaVuSans-69"/>
      <use x="489.794922" xlink:href="#DejaVuSans-74"/>
      <use x="529.003906" xlink:href="#DejaVuSans-48"/>
      <use x="604.199219" xlink:href="#DejaVuSans-75"/>
      <use x="667.578125" xlink:href="#DejaVuSans-62"/>
      <use x="731.054688" xlink:href="#DejaVuSans-20"/>
      <use x="762.841797" xlink:href="#DejaVuSans-43"/>
      <use x="832.666016" xlink:href="#DejaVuSans-6c"/>
      <use x="860.449219" xlink:href="#DejaVuSans-6f"/>
      <use x="921.630859" xlink:href="#DejaVuSans-6e"/>
      <use x="985.009766" xlink:href="#DejaVuSans-65"/>
      <use x="1046.533203" xlink:href="#DejaVuSans-73"/>
     </g>
    </g>
   </g>
  </g>
  <g id="axes_2">
   <g id="patch_8">
    <path d="M 90 256.32 
L 648 256.32 
L 648 155.52 
L 90 155.52 
z
" style="fill:#ffffff;"/>
   </g>
   <g id="matplotlib.axis_3">
    <g id="xtick_7">
     <g id="line2d_17">
      <g>
       <use style="stroke:#000000;stroke-width:0.8;" x="115.363636" xlink:href="#me9ad58822a" y="256.32"/>
      </g>
     </g>
     <g id="text_14">
      <!-- 2020-10-21 -->
      <g transform="translate(86.305824 270.918437)scale(0.1 -0.1)">
       <use xlink:href="#DejaVuSans-32"/>
       <use x="63.623047" xlink:href="#DejaVuSans-30"/>
       <use x="127.246094" xlink:href="#DejaVuSans-32"/>
       <use x="190.869141" xlink:href="#DejaVuSans-30"/>
       <use x="254.492188" xlink:href="#DejaVuSans-2d"/>
       <use x="290.576172" xlink:href="#DejaVuSans-31"/>
       <use x="354.199219" xlink:href="#DejaVuSans-30"/>
       <use x="417.822266" xlink:href="#DejaVuSans-2d"/>
       <use x="453.90625" xlink:href="#DejaVuSans-32"/>
       <use x="517.529297" xlink:href="#DejaVuSans-31"/>
      </g>
     </g>
    </g>
    <g id="xtick_8">
     <g id="line2d_18">
      <g>
       <use style="stroke:#000000;stroke-width:0.8;" x="179.171527" xlink:href="#me9ad58822a" y="256.32"/>
      </g>
     </g>
     <g id="text_15">
      <!-- 2020-11-10 -->
      <g transform="translate(150.113714 270.918437)scale(0.1 -0.1)">
       <use xlink:href="#DejaVuSans-32"/>
       <use x="63.623047" xlink:href="#DejaVuSans-30"/>
       <use x="127.246094" xlink:href="#DejaVuSans-32"/>
       <use x="190.869141" xlink:href="#DejaVuSans-30"/>
       <use x="254.492188" xlink:href="#DejaVuSans-2d"/>
       <use x="290.576172" xlink:href="#DejaVuSans-31"/>
       <use x="354.199219" xlink:href="#DejaVuSans-31"/>
       <use x="417.822266" xlink:href="#DejaVuSans-2d"/>
       <use x="453.90625" xlink:href="#DejaVuSans-31"/>
       <use x="517.529297" xlink:href="#DejaVuSans-30"/>
      </g>
     </g>
    </g>
    <g id="xtick_9">
     <g id="line2d_19">
      <g>
       <use style="stroke:#000000;stroke-width:0.8;" x="242.979417" xlink:href="#me9ad58822a" y="256.32"/>
      </g>
     </g>
     <g id="text_16">
      <!-- 2020-11-30 -->
      <g transform="translate(213.921604 270.918437)scale(0.1 -0.1)">
       <use xlink:href="#DejaVuSans-32"/>
       <use x="63.623047" xlink:href="#DejaVuSans-30"/>
       <use x="127.246094" xlink:href="#DejaVuSans-32"/>
       <use x="190.869141" xlink:href="#DejaVuSans-30"/>
       <use x="254.492188" xlink:href="#DejaVuSans-2d"/>
       <use x="290.576172" xlink:href="#DejaVuSans-31"/>
       <use x="354.199219" xlink:href="#DejaVuSans-31"/>
       <use x="417.822266" xlink:href="#DejaVuSans-2d"/>
       <use x="453.90625" xlink:href="#DejaVuSans-33"/>
       <use x="517.529297" xlink:href="#DejaVuSans-30"/>
      </g>
     </g>
    </g>
    <g id="xtick_10">
     <g id="line2d_20">
      <g>
       <use style="stroke:#000000;stroke-width:0.8;" x="306.787307" xlink:href="#me9ad58822a" y="256.32"/>
      </g>
     </g>
     <g id="text_17">
      <!-- 2020-12-21 -->
      <g transform="translate(277.729495 270.918437)scale(0.1 -0.1)">
       <use xlink:href="#DejaVuSans-32"/>
       <use x="63.623047" xlink:href="#DejaVuSans-30"/>
       <use x="127.246094" xlink:href="#DejaVuSans-32"/>
       <use x="190.869141" xlink:href="#DejaVuSans-30"/>
       <use x="254.492188" xlink:href="#DejaVuSans-2d"/>
       <use x="290.576172" xlink:href="#DejaVuSans-31"/>
       <use x="354.199219" xlink:href="#DejaVuSans-32"/>
       <use x="417.822266" xlink:href="#DejaVuSans-2d"/>
       <use x="453.90625" xlink:href="#DejaVuSans-32"/>
       <use x="517.529297" xlink:href="#DejaVuSans-31"/>
      </g>
     </g>
    </g>
    <g id="xtick_11">
     <g id="line2d_21">
      <g>
       <use style="stroke:#000000;stroke-width:0.8;" x="370.595197" xlink:href="#me9ad58822a" y="256.32"/>
      </g>
     </g>
     <g id="text_18">
      <!-- 2021-01-11 -->
      <g transform="translate(341.537385 270.918437)scale(0.1 -0.1)">
       <use xlink:href="#DejaVuSans-32"/>
       <use x="63.623047" xlink:href="#DejaVuSans-30"/>
       <use x="127.246094" xlink:href="#DejaVuSans-32"/>
       <use x="190.869141" xlink:href="#DejaVuSans-31"/>
       <use x="254.492188" xlink:href="#DejaVuSans-2d"/>
       <use x="290.576172" xlink:href="#DejaVuSans-30"/>
       <use x="354.199219" xlink:href="#DejaVuSans-31"/>
       <use x="417.822266" xlink:href="#DejaVuSans-2d"/>
       <use x="453.90625" xlink:href="#DejaVuSans-31"/>
       <use x="517.529297" xlink:href="#DejaVuSans-31"/>
      </g>
     </g>
    </g>
    <g id="xtick_12">
     <g id="line2d_22">
      <g>
       <use style="stroke:#000000;stroke-width:0.8;" x="434.403087" xlink:href="#me9ad58822a" y="256.32"/>
      </g>
     </g>
     <g id="text_19">
      <!-- 2021-01-31 -->
      <g transform="translate(405.345275 270.918437)scale(0.1 -0.1)">
       <use xlink:href="#DejaVuSans-32"/>
       <use x="63.623047" xlink:href="#DejaVuSans-30"/>
       <use x="127.246094" xlink:href="#DejaVuSans-32"/>
       <use x="190.869141" xlink:href="#DejaVuSans-31"/>
       <use x="254.492188" xlink:href="#DejaVuSans-2d"/>
       <use x="290.576172" xlink:href="#DejaVuSans-30"/>
       <use x="354.199219" xlink:href="#DejaVuSans-31"/>
       <use x="417.822266" xlink:href="#DejaVuSans-2d"/>
       <use x="453.90625" xlink:href="#DejaVuSans-33"/>
       <use x="517.529297" xlink:href="#DejaVuSans-31"/>
      </g>
     </g>
    </g>
    <g id="xtick_13">
     <g id="line2d_23">
      <g>
       <use style="stroke:#000000;stroke-width:0.8;" x="498.210978" xlink:href="#me9ad58822a" y="256.32"/>
      </g>
     </g>
     <g id="text_20">
      <!-- 2021-02-20 -->
      <g transform="translate(469.153165 270.918437)scale(0.1 -0.1)">
       <use xlink:href="#DejaVuSans-32"/>
       <use x="63.623047" xlink:href="#DejaVuSans-30"/>
       <use x="127.246094" xlink:href="#DejaVuSans-32"/>
       <use x="190.869141" xlink:href="#DejaVuSans-31"/>
       <use x="254.492188" xlink:href="#DejaVuSans-2d"/>
       <use x="290.576172" xlink:href="#DejaVuSans-30"/>
       <use x="354.199219" xlink:href="#DejaVuSans-32"/>
       <use x="417.822266" xlink:href="#DejaVuSans-2d"/>
       <use x="453.90625" xlink:href="#DejaVuSans-32"/>
       <use x="517.529297" xlink:href="#DejaVuSans-30"/>
      </g>
     </g>
    </g>
    <g id="xtick_14">
     <g id="line2d_24">
      <g>
       <use style="stroke:#000000;stroke-width:0.8;" x="562.018868" xlink:href="#me9ad58822a" y="256.32"/>
      </g>
     </g>
     <g id="text_21">
      <!-- 2021-03-12 -->
      <g transform="translate(532.961055 270.918437)scale(0.1 -0.1)">
       <use xlink:href="#DejaVuSans-32"/>
       <use x="63.623047" xlink:href="#DejaVuSans-30"/>
       <use x="127.246094" xlink:href="#DejaVuSans-32"/>
       <use x="190.869141" xlink:href="#DejaVuSans-31"/>
       <use x="254.492188" xlink:href="#DejaVuSans-2d"/>
       <use x="290.576172" xlink:href="#DejaVuSans-30"/>
       <use x="354.199219" xlink:href="#DejaVuSans-33"/>
       <use x="417.822266" xlink:href="#DejaVuSans-2d"/>
       <use x="453.90625" xlink:href="#DejaVuSans-31"/>
       <use x="517.529297" xlink:href="#DejaVuSans-32"/>
      </g>
     </g>
    </g>
    <g id="xtick_15">
     <g id="line2d_25">
      <g>
       <use style="stroke:#000000;stroke-width:0.8;" x="625.826758" xlink:href="#me9ad58822a" y="256.32"/>
      </g>
     </g>
    </g>
    <g id="text_22">
     <!-- _date -->
     <g transform="translate(355.225 284.596563)scale(0.1 -0.1)">
      <use xlink:href="#DejaVuSans-5f"/>
      <use x="50" xlink:href="#DejaVuSans-64"/>
      <use x="113.476562" xlink:href="#DejaVuSans-61"/>
      <use x="174.755859" xlink:href="#DejaVuSans-74"/>
      <use x="213.964844" xlink:href="#DejaVuSans-65"/>
     </g>
    </g>
   </g>
   <g id="matplotlib.axis_4">
    <g id="ytick_5">
     <g id="line2d_26">
      <g>
       <use style="stroke:#000000;stroke-width:0.8;" x="90" xlink:href="#m15ccbc58b3" y="252.072621"/>
      </g>
     </g>
     <g id="text_23">
      <!-- 0 -->
      <g transform="translate(76.6375 255.87184)scale(0.1 -0.1)">
       <use xlink:href="#DejaVuSans-30"/>
      </g>
     </g>
    </g>
    <g id="ytick_6">
     <g id="line2d_27">
      <g>
       <use style="stroke:#000000;stroke-width:0.8;" x="90" xlink:href="#m15ccbc58b3" y="218.628693"/>
      </g>
     </g>
     <g id="text_24">
      <!-- 100 -->
      <g transform="translate(63.9125 222.427912)scale(0.1 -0.1)">
       <use xlink:href="#DejaVuSans-31"/>
       <use x="63.623047" xlink:href="#DejaVuSans-30"/>
       <use x="127.246094" xlink:href="#DejaVuSans-30"/>
      </g>
     </g>
    </g>
    <g id="ytick_7">
     <g id="line2d_28">
      <g>
       <use style="stroke:#000000;stroke-width:0.8;" x="90" xlink:href="#m15ccbc58b3" y="185.184764"/>
      </g>
     </g>
     <g id="text_25">
      <!-- 200 -->
      <g transform="translate(63.9125 188.983983)scale(0.1 -0.1)">
       <use xlink:href="#DejaVuSans-32"/>
       <use x="63.623047" xlink:href="#DejaVuSans-30"/>
       <use x="127.246094" xlink:href="#DejaVuSans-30"/>
      </g>
     </g>
    </g>
   </g>
   <g id="line2d_29">
    <path clip-path="url(#pfdf26dfec3)" d="M 115.363636 251.738182 
L 118.554031 226.989675 
L 121.744425 223.979721 
L 124.93482 243.04276 
L 128.125214 251.403743 
L 131.315609 236.353975 
L 134.506003 236.019536 
L 137.696398 231.337386 
L 140.886792 236.019536 
L 144.077187 237.022853 
L 147.267581 250.400425 
L 150.457976 247.72491 
L 153.64837 246.721593 
L 156.838765 237.022853 
L 160.02916 204.247804 
L 163.219554 221.304207 
L 166.409949 242.373882 
L 169.600343 246.387153 
L 172.790738 251.069303 
L 175.981132 236.019536 
L 179.171527 219.297571 
L 182.361921 244.714957 
L 185.552316 241.705003 
L 188.74271 234.0129 
L 191.933105 234.0129 
L 195.123499 249.397107 
L 198.313894 234.347339 
L 201.504288 229.999628 
L 204.694683 242.039443 
L 207.885077 242.039443 
L 211.075472 236.353975 
L 214.265866 246.052714 
L 217.456261 248.728228 
L 220.646655 221.638646 
L 223.83705 248.393789 
L 227.027444 247.390471 
L 230.217839 249.397107 
L 233.408233 247.056032 
L 236.598628 251.403743 
L 239.789022 251.403743 
L 242.979417 223.645282 
L 246.169811 208.595514 
L 249.360206 242.373882 
L 252.5506 244.046078 
L 255.740995 221.973086 
L 258.931389 250.734864 
L 262.121784 243.711639 
L 265.312178 239.698368 
L 268.502573 245.049396 
L 271.692967 233.344021 
L 274.883362 246.052714 
L 278.073756 250.734864 
L 281.264151 251.738182 
L 284.454545 242.373882 
L 287.64494 240.367246 
L 290.835334 240.701685 
L 294.025729 239.029489 
L 297.216123 248.393789 
L 300.406518 250.734864 
L 303.596913 250.400425 
L 306.787307 246.387153 
L 309.977702 247.056032 
L 313.168096 241.036125 
L 316.358491 249.731546 
L 319.548885 251.069303 
L 322.73928 251.403743 
L 325.929674 247.72491 
L 329.120069 249.062668 
L 332.310463 250.065985 
L 335.500858 251.738182 
L 338.691252 246.387153 
L 341.881647 246.721593 
L 345.072041 250.734864 
L 348.262436 245.383835 
L 351.45283 241.036125 
L 354.643225 238.026171 
L 357.833619 247.056032 
L 361.024014 248.393789 
L 364.214408 228.996311 
L 367.404803 250.065985 
L 370.595197 231.002946 
L 373.785592 233.009582 
L 376.975986 238.026171 
L 380.166381 230.334068 
L 383.356775 246.052714 
L 386.54717 232.006264 
L 389.737564 251.069303 
L 392.927959 230.668507 
L 396.118353 232.340703 
L 399.308748 222.307525 
L 402.499142 229.33075 
L 405.689537 238.026171 
L 408.879931 241.370564 
L 412.070326 247.72491 
L 415.26072 224.983039 
L 418.451115 219.632011 
L 421.641509 233.678461 
L 424.831904 232.006264 
L 428.022298 228.996311 
L 431.212693 246.721593 
L 434.403087 248.05935 
L 437.593482 226.320796 
L 440.783877 246.052714 
L 447.164666 229.999628 
L 453.545455 250.734864 
L 456.735849 247.056032 
L 459.926244 232.675143 
L 463.116638 232.006264 
L 466.307033 220.635328 
L 469.497427 240.367246 
L 472.687822 250.065985 
L 475.878216 250.400425 
L 479.068611 248.728228 
L 482.259005 241.036125 
L 485.4494 241.370564 
L 488.639794 246.052714 
L 491.830189 227.324114 
L 495.020583 247.72491 
L 498.210978 240.367246 
L 501.401372 237.022853 
L 504.591767 239.029489 
L 507.782161 220.969768 
L 510.972556 233.009582 
L 514.16295 232.006264 
L 517.353345 238.026171 
L 520.543739 236.019536 
L 523.734134 237.357293 
L 526.924528 171.472754 
L 530.114923 244.714957 
L 533.305317 227.324114 
L 536.495712 231.671825 
L 539.686106 222.641964 
L 542.876501 240.032807 
L 546.066895 190.870232 
L 549.25729 188.863597 
L 552.447684 195.886821 
L 555.638079 225.317478 
L 558.828473 160.101818 
L 562.018868 218.628693 
L 565.209262 245.049396 
L 568.399657 244.046078 
L 571.590051 245.718275 
L 574.780446 235.016218 
L 577.97084 227.658553 
L 581.161235 248.393789 
L 584.35163 223.645282 
L 587.542024 231.671825 
L 590.732419 218.963132 
L 593.922813 242.373882 
L 597.113208 244.714957 
L 600.303602 197.224579 
L 603.493997 229.33075 
L 606.684391 231.337386 
L 609.874786 245.383835 
L 613.06518 248.05935 
L 616.255575 247.390471 
L 619.445969 229.665189 
L 622.636364 216.622057 
L 622.636364 216.622057 
" style="fill:none;stroke:#1f77b4;stroke-linecap:square;stroke-width:1.5;"/>
   </g>
   <g id="line2d_30">
    <path clip-path="url(#pfdf26dfec3)" d="M 115.363636 251.738182 
L 118.554031 249.062668 
L 121.744425 247.72491 
L 124.93482 249.062668 
L 128.125214 251.738182 
L 131.315609 249.731546 
L 134.506003 248.728228 
L 137.696398 248.728228 
L 140.886792 248.393789 
L 144.077187 249.062668 
L 147.267581 251.403743 
L 160.02916 248.728228 
L 163.219554 248.393789 
L 166.409949 249.731546 
L 172.790738 251.738182 
L 175.981132 248.393789 
L 179.171527 249.062668 
L 182.361921 250.400425 
L 185.552316 250.734864 
L 188.74271 250.400425 
L 191.933105 251.403743 
L 195.123499 251.069303 
L 198.313894 249.731546 
L 201.504288 251.069303 
L 204.694683 248.393789 
L 207.885077 249.397107 
L 211.075472 250.065985 
L 214.265866 251.069303 
L 217.456261 251.069303 
L 220.646655 246.721593 
L 223.83705 251.403743 
L 227.027444 251.403743 
L 230.217839 251.069303 
L 236.598628 251.738182 
L 239.789022 251.403743 
L 242.979417 249.062668 
L 246.169811 246.052714 
L 249.360206 248.05935 
L 252.5506 249.731546 
L 255.740995 249.731546 
L 258.931389 251.403743 
L 262.121784 250.065985 
L 265.312178 249.731546 
L 268.502573 250.734864 
L 271.692967 247.056032 
L 274.883362 249.062668 
L 278.073756 251.403743 
L 281.264151 251.738182 
L 284.454545 248.728228 
L 290.835334 248.728228 
L 294.025729 249.731546 
L 297.216123 250.065985 
L 300.406518 251.069303 
L 303.596913 251.403743 
L 306.787307 250.734864 
L 309.977702 250.400425 
L 313.168096 251.069303 
L 319.548885 251.069303 
L 322.73928 251.403743 
L 325.929674 250.734864 
L 332.310463 250.734864 
L 335.500858 251.738182 
L 338.691252 251.069303 
L 341.881647 251.069303 
L 345.072041 250.734864 
L 348.262436 249.397107 
L 351.45283 247.390471 
L 354.643225 249.731546 
L 357.833619 251.069303 
L 361.024014 250.734864 
L 364.214408 250.734864 
L 367.404803 251.069303 
L 370.595197 249.062668 
L 373.785592 248.05935 
L 376.975986 249.397107 
L 380.166381 246.052714 
L 383.356775 249.397107 
L 386.54717 250.065985 
L 389.737564 251.069303 
L 392.927959 250.400425 
L 396.118353 250.400425 
L 399.308748 247.72491 
L 402.499142 249.062668 
L 405.689537 248.728228 
L 408.879931 248.728228 
L 412.070326 250.065985 
L 415.26072 245.049396 
L 418.451115 247.056032 
L 421.641509 248.728228 
L 424.831904 246.721593 
L 428.022298 245.383835 
L 431.212693 250.734864 
L 434.403087 250.400425 
L 437.593482 248.05935 
L 440.783877 249.731546 
L 443.974271 247.390471 
L 447.164666 249.062668 
L 450.35506 249.062668 
L 453.545455 250.734864 
L 456.735849 251.069303 
L 459.926244 248.393789 
L 463.116638 247.390471 
L 466.307033 247.72491 
L 469.497427 250.734864 
L 472.687822 251.403743 
L 479.068611 250.734864 
L 482.259005 250.734864 
L 485.4494 249.062668 
L 488.639794 250.065985 
L 491.830189 248.393789 
L 495.020583 250.734864 
L 498.210978 250.065985 
L 501.401372 250.734864 
L 504.591767 248.728228 
L 507.782161 248.393789 
L 510.972556 248.393789 
L 514.16295 247.390471 
L 517.353345 250.065985 
L 520.543739 250.734864 
L 523.734134 250.734864 
L 526.924528 240.701685 
L 530.114923 248.393789 
L 533.305317 248.393789 
L 536.495712 246.721593 
L 539.686106 248.728228 
L 542.876501 250.400425 
L 546.066895 250.400425 
L 549.25729 245.383835 
L 552.447684 245.718275 
L 555.638079 247.72491 
L 558.828473 245.718275 
L 562.018868 246.721593 
L 565.209262 249.731546 
L 568.399657 250.734864 
L 571.590051 249.397107 
L 574.780446 246.721593 
L 577.97084 245.049396 
L 581.161235 249.731546 
L 584.35163 246.387153 
L 587.542024 246.721593 
L 590.732419 249.062668 
L 593.922813 251.069303 
L 597.113208 249.731546 
L 600.303602 247.056032 
L 603.493997 247.056032 
L 606.684391 248.05935 
L 609.874786 250.400425 
L 616.255575 251.069303 
L 619.445969 249.731546 
L 622.636364 249.062668 
L 622.636364 249.062668 
" style="fill:none;stroke:#ff7f0e;stroke-linecap:square;stroke-width:1.5;"/>
   </g>
   <g id="patch_9">
    <path d="M 90 256.32 
L 90 155.52 
" style="fill:none;stroke:#000000;stroke-linecap:square;stroke-linejoin:miter;stroke-width:0.8;"/>
   </g>
   <g id="patch_10">
    <path d="M 648 256.32 
L 648 155.52 
" style="fill:none;stroke:#000000;stroke-linecap:square;stroke-linejoin:miter;stroke-width:0.8;"/>
   </g>
   <g id="patch_11">
    <path d="M 90 256.32 
L 648 256.32 
" style="fill:none;stroke:#000000;stroke-linecap:square;stroke-linejoin:miter;stroke-width:0.8;"/>
   </g>
   <g id="patch_12">
    <path d="M 90 155.52 
L 648 155.52 
" style="fill:none;stroke:#000000;stroke-linecap:square;stroke-linejoin:miter;stroke-width:0.8;"/>
   </g>
   <g id="legend_2">
    <g id="patch_13">
     <path d="M 97 192.87625 
L 234.217188 192.87625 
Q 236.217188 192.87625 236.217188 190.87625 
L 236.217188 162.52 
Q 236.217188 160.52 234.217188 160.52 
L 97 160.52 
Q 95 160.52 95 162.52 
L 95 190.87625 
Q 95 192.87625 97 192.87625 
z
" style="fill:#ffffff;opacity:0.8;stroke:#cccccc;stroke-linejoin:miter;"/>
    </g>
    <g id="line2d_31">
     <path d="M 99 168.618437 
L 119 168.618437 
" style="fill:none;stroke:#1f77b4;stroke-linecap:square;stroke-width:1.5;"/>
    </g>
    <g id="line2d_32"/>
    <g id="text_26">
     <!-- Total GitHub Views -->
     <g transform="translate(127 172.118437)scale(0.1 -0.1)">
      <defs>
       <path d="M 1831 0 
L 50 4666 
L 709 4666 
L 2188 738 
L 3669 4666 
L 4325 4666 
L 2547 0 
L 1831 0 
z
" id="DejaVuSans-56" transform="scale(0.015625)"/>
       <path d="M 269 3500 
L 844 3500 
L 1563 769 
L 2278 3500 
L 2956 3500 
L 3675 769 
L 4391 3500 
L 4966 3500 
L 4050 0 
L 3372 0 
L 2619 2869 
L 1863 0 
L 1184 0 
L 269 3500 
z
" id="DejaVuSans-77" transform="scale(0.015625)"/>
      </defs>
      <use xlink:href="#DejaVuSans-54"/>
      <use x="44.083984" xlink:href="#DejaVuSans-6f"/>
      <use x="105.265625" xlink:href="#DejaVuSans-74"/>
      <use x="144.474609" xlink:href="#DejaVuSans-61"/>
      <use x="205.753906" xlink:href="#DejaVuSans-6c"/>
      <use x="233.537109" xlink:href="#DejaVuSans-20"/>
      <use x="265.324219" xlink:href="#DejaVuSans-47"/>
      <use x="342.814453" xlink:href="#DejaVuSans-69"/>
      <use x="370.597656" xlink:href="#DejaVuSans-74"/>
      <use x="409.806641" xlink:href="#DejaVuSans-48"/>
      <use x="485.001953" xlink:href="#DejaVuSans-75"/>
      <use x="548.380859" xlink:href="#DejaVuSans-62"/>
      <use x="611.857422" xlink:href="#DejaVuSans-20"/>
      <use x="643.644531" xlink:href="#DejaVuSans-56"/>
      <use x="709.802734" xlink:href="#DejaVuSans-69"/>
      <use x="737.585938" xlink:href="#DejaVuSans-65"/>
      <use x="799.109375" xlink:href="#DejaVuSans-77"/>
      <use x="880.896484" xlink:href="#DejaVuSans-73"/>
     </g>
    </g>
    <g id="line2d_33">
     <path d="M 99 183.296562 
L 119 183.296562 
" style="fill:none;stroke:#ff7f0e;stroke-linecap:square;stroke-width:1.5;"/>
    </g>
    <g id="line2d_34"/>
    <g id="text_27">
     <!-- Unique GitHub Views -->
     <g transform="translate(127 186.796562)scale(0.1 -0.1)">
      <use xlink:href="#DejaVuSans-55"/>
      <use x="73.193359" xlink:href="#DejaVuSans-6e"/>
      <use x="136.572266" xlink:href="#DejaVuSans-69"/>
      <use x="164.355469" xlink:href="#DejaVuSans-71"/>
      <use x="227.832031" xlink:href="#DejaVuSans-75"/>
      <use x="291.210938" xlink:href="#DejaVuSans-65"/>
      <use x="352.734375" xlink:href="#DejaVuSans-20"/>
      <use x="384.521484" xlink:href="#DejaVuSans-47"/>
      <use x="462.011719" xlink:href="#DejaVuSans-69"/>
      <use x="489.794922" xlink:href="#DejaVuSans-74"/>
      <use x="529.003906" xlink:href="#DejaVuSans-48"/>
      <use x="604.199219" xlink:href="#DejaVuSans-75"/>
      <use x="667.578125" xlink:href="#DejaVuSans-62"/>
      <use x="731.054688" xlink:href="#DejaVuSans-20"/>
      <use x="762.841797" xlink:href="#DejaVuSans-56"/>
      <use x="829" xlink:href="#DejaVuSans-69"/>
      <use x="856.783203" xlink:href="#DejaVuSans-65"/>
      <use x="918.306641" xlink:href="#DejaVuSans-77"/>
      <use x="1000.09375" xlink:href="#DejaVuSans-73"/>
     </g>
    </g>
   </g>
  </g>
 </g>
 <defs>
  <clipPath id="pc9b78f5f50">
   <rect height="100.8" width="558" x="90" y="34.56"/>
  </clipPath>
  <clipPath id="pfdf26dfec3">
   <rect height="100.8" width="558" x="90" y="155.52"/>
  </clipPath>
 </defs>
</svg>
