<?xml version="1.0" encoding="utf-8" standalone="no"?>
<!DOCTYPE svg PUBLIC "-//W3C//DTD SVG 1.1//EN"
  "http://www.w3.org/Graphics/SVG/1.1/DTD/svg11.dtd">
<svg xmlns:xlink="http://www.w3.org/1999/xlink" width="720pt" height="288pt" viewBox="0 0 720 288" xmlns="http://www.w3.org/2000/svg" version="1.1">
 <metadata>
  <rdf:RDF xmlns:dc="http://purl.org/dc/elements/1.1/" xmlns:cc="http://creativecommons.org/ns#" xmlns:rdf="http://www.w3.org/1999/02/22-rdf-syntax-ns#">
   <cc:Work>
    <dc:type rdf:resource="http://purl.org/dc/dcmitype/StillImage"/>
    <dc:date>2022-01-31T00:30:01.605971</dc:date>
    <dc:format>image/svg+xml</dc:format>
    <dc:creator>
     <cc:Agent>
      <dc:title>Matplotlib v3.5.1, https://matplotlib.org/</dc:title>
     </cc:Agent>
    </dc:creator>
   </cc:Work>
  </rdf:RDF>
 </metadata>
 <defs>
  <style type="text/css">*{stroke-linejoin: round; stroke-linecap: butt}</style>
 </defs>
 <g id="figure_1">
  <g id="patch_1">
   <path d="M 0 288 
L 720 288 
L 720 0 
L 0 0 
z
" style="fill: #ffffff"/>
  </g>
  <g id="axes_1">
   <g id="patch_2">
    <path d="M 90 135.36 
L 648 135.36 
L 648 34.56 
L 90 34.56 
z
" style="fill: #ffffff"/>
   </g>
   <g id="matplotlib.axis_1">
    <g id="xtick_1">
     <g id="line2d_1">
      <defs>
       <path id="m33d115197f" d="M 0 0 
L 0 3.5 
" style="stroke: #000000; stroke-width: 0.8"/>
      </defs>
      <g>
       <use xlink:href="#m33d115197f" x="115.363636" y="135.36" style="stroke: #000000; stroke-width: 0.8"/>
      </g>
     </g>
     <g id="text_1">
      <!-- 2020-10-22 -->
      <g transform="translate(86.305824 149.958437)scale(0.1 -0.1)">
       <defs>
        <path id="DejaVuSans-32" d="M 1228 531 
L 3431 531 
L 3431 0 
L 469 0 
L 469 531 
Q 828 903 1448 1529 
Q 2069 2156 2228 2338 
Q 2531 2678 2651 2914 
Q 2772 3150 2772 3378 
Q 2772 3750 2511 3984 
Q 2250 4219 1831 4219 
Q 1534 4219 1204 4116 
Q 875 4013 500 3803 
L 500 4441 
Q 881 4594 1212 4672 
Q 1544 4750 1819 4750 
Q 2544 4750 2975 4387 
Q 3406 4025 3406 3419 
Q 3406 3131 3298 2873 
Q 3191 2616 2906 2266 
Q 2828 2175 2409 1742 
Q 1991 1309 1228 531 
z
" transform="scale(0.015625)"/>
        <path id="DejaVuSans-30" d="M 2034 4250 
Q 1547 4250 1301 3770 
Q 1056 3291 1056 2328 
Q 1056 1369 1301 889 
Q 1547 409 2034 409 
Q 2525 409 2770 889 
Q 3016 1369 3016 2328 
Q 3016 3291 2770 3770 
Q 2525 4250 2034 4250 
z
M 2034 4750 
Q 2819 4750 3233 4129 
Q 3647 3509 3647 2328 
Q 3647 1150 3233 529 
Q 2819 -91 2034 -91 
Q 1250 -91 836 529 
Q 422 1150 422 2328 
Q 422 3509 836 4129 
Q 1250 4750 2034 4750 
z
" transform="scale(0.015625)"/>
        <path id="DejaVuSans-2d" d="M 313 2009 
L 1997 2009 
L 1997 1497 
L 313 1497 
L 313 2009 
z
" transform="scale(0.015625)"/>
        <path id="DejaVuSans-31" d="M 794 531 
L 1825 531 
L 1825 4091 
L 703 3866 
L 703 4441 
L 1819 4666 
L 2450 4666 
L 2450 531 
L 3481 531 
L 3481 0 
L 794 0 
L 794 531 
z
" transform="scale(0.015625)"/>
       </defs>
       <use xlink:href="#DejaVuSans-32"/>
       <use xlink:href="#DejaVuSans-30" x="63.623047"/>
       <use xlink:href="#DejaVuSans-32" x="127.246094"/>
       <use xlink:href="#DejaVuSans-30" x="190.869141"/>
       <use xlink:href="#DejaVuSans-2d" x="254.492188"/>
       <use xlink:href="#DejaVuSans-31" x="290.576172"/>
       <use xlink:href="#DejaVuSans-30" x="354.199219"/>
       <use xlink:href="#DejaVuSans-2d" x="417.822266"/>
       <use xlink:href="#DejaVuSans-32" x="453.90625"/>
       <use xlink:href="#DejaVuSans-32" x="517.529297"/>
      </g>
     </g>
    </g>
    <g id="xtick_2">
     <g id="line2d_2">
      <g>
       <use xlink:href="#m33d115197f" x="184.853051" y="135.36" style="stroke: #000000; stroke-width: 0.8"/>
      </g>
     </g>
     <g id="text_2">
      <!-- 2021-01-05 -->
      <g transform="translate(155.795239 149.958437)scale(0.1 -0.1)">
       <defs>
        <path id="DejaVuSans-35" d="M 691 4666 
L 3169 4666 
L 3169 4134 
L 1269 4134 
L 1269 2991 
Q 1406 3038 1543 3061 
Q 1681 3084 1819 3084 
Q 2600 3084 3056 2656 
Q 3513 2228 3513 1497 
Q 3513 744 3044 326 
Q 2575 -91 1722 -91 
Q 1428 -91 1123 -41 
Q 819 9 494 109 
L 494 744 
Q 775 591 1075 516 
Q 1375 441 1709 441 
Q 2250 441 2565 725 
Q 2881 1009 2881 1497 
Q 2881 1984 2565 2268 
Q 2250 2553 1709 2553 
Q 1456 2553 1204 2497 
Q 953 2441 691 2322 
L 691 4666 
z
" transform="scale(0.015625)"/>
       </defs>
       <use xlink:href="#DejaVuSans-32"/>
       <use xlink:href="#DejaVuSans-30" x="63.623047"/>
       <use xlink:href="#DejaVuSans-32" x="127.246094"/>
       <use xlink:href="#DejaVuSans-31" x="190.869141"/>
       <use xlink:href="#DejaVuSans-2d" x="254.492188"/>
       <use xlink:href="#DejaVuSans-30" x="290.576172"/>
       <use xlink:href="#DejaVuSans-31" x="354.199219"/>
       <use xlink:href="#DejaVuSans-2d" x="417.822266"/>
       <use xlink:href="#DejaVuSans-30" x="453.90625"/>
       <use xlink:href="#DejaVuSans-35" x="517.529297"/>
      </g>
     </g>
    </g>
    <g id="xtick_3">
     <g id="line2d_3">
      <g>
       <use xlink:href="#m33d115197f" x="254.342466" y="135.36" style="stroke: #000000; stroke-width: 0.8"/>
      </g>
     </g>
     <g id="text_3">
      <!-- 2021-03-17 -->
      <g transform="translate(225.284653 149.958437)scale(0.1 -0.1)">
       <defs>
        <path id="DejaVuSans-33" d="M 2597 2516 
Q 3050 2419 3304 2112 
Q 3559 1806 3559 1356 
Q 3559 666 3084 287 
Q 2609 -91 1734 -91 
Q 1441 -91 1130 -33 
Q 819 25 488 141 
L 488 750 
Q 750 597 1062 519 
Q 1375 441 1716 441 
Q 2309 441 2620 675 
Q 2931 909 2931 1356 
Q 2931 1769 2642 2001 
Q 2353 2234 1838 2234 
L 1294 2234 
L 1294 2753 
L 1863 2753 
Q 2328 2753 2575 2939 
Q 2822 3125 2822 3475 
Q 2822 3834 2567 4026 
Q 2313 4219 1838 4219 
Q 1578 4219 1281 4162 
Q 984 4106 628 3988 
L 628 4550 
Q 988 4650 1302 4700 
Q 1616 4750 1894 4750 
Q 2613 4750 3031 4423 
Q 3450 4097 3450 3541 
Q 3450 3153 3228 2886 
Q 3006 2619 2597 2516 
z
" transform="scale(0.015625)"/>
        <path id="DejaVuSans-37" d="M 525 4666 
L 3525 4666 
L 3525 4397 
L 1831 0 
L 1172 0 
L 2766 4134 
L 525 4134 
L 525 4666 
z
" transform="scale(0.015625)"/>
       </defs>
       <use xlink:href="#DejaVuSans-32"/>
       <use xlink:href="#DejaVuSans-30" x="63.623047"/>
       <use xlink:href="#DejaVuSans-32" x="127.246094"/>
       <use xlink:href="#DejaVuSans-31" x="190.869141"/>
       <use xlink:href="#DejaVuSans-2d" x="254.492188"/>
       <use xlink:href="#DejaVuSans-30" x="290.576172"/>
       <use xlink:href="#DejaVuSans-33" x="354.199219"/>
       <use xlink:href="#DejaVuSans-2d" x="417.822266"/>
       <use xlink:href="#DejaVuSans-31" x="453.90625"/>
       <use xlink:href="#DejaVuSans-37" x="517.529297"/>
      </g>
     </g>
    </g>
    <g id="xtick_4">
     <g id="line2d_4">
      <g>
       <use xlink:href="#m33d115197f" x="323.83188" y="135.36" style="stroke: #000000; stroke-width: 0.8"/>
      </g>
     </g>
     <g id="text_4">
      <!-- 2021-05-10 -->
      <g transform="translate(294.774068 149.958437)scale(0.1 -0.1)">
       <use xlink:href="#DejaVuSans-32"/>
       <use xlink:href="#DejaVuSans-30" x="63.623047"/>
       <use xlink:href="#DejaVuSans-32" x="127.246094"/>
       <use xlink:href="#DejaVuSans-31" x="190.869141"/>
       <use xlink:href="#DejaVuSans-2d" x="254.492188"/>
       <use xlink:href="#DejaVuSans-30" x="290.576172"/>
       <use xlink:href="#DejaVuSans-35" x="354.199219"/>
       <use xlink:href="#DejaVuSans-2d" x="417.822266"/>
       <use xlink:href="#DejaVuSans-31" x="453.90625"/>
       <use xlink:href="#DejaVuSans-30" x="517.529297"/>
      </g>
     </g>
    </g>
    <g id="xtick_5">
     <g id="line2d_5">
      <g>
       <use xlink:href="#m33d115197f" x="393.321295" y="135.36" style="stroke: #000000; stroke-width: 0.8"/>
      </g>
     </g>
     <g id="text_5">
      <!-- 2021-07-07 -->
      <g transform="translate(364.263483 149.958437)scale(0.1 -0.1)">
       <use xlink:href="#DejaVuSans-32"/>
       <use xlink:href="#DejaVuSans-30" x="63.623047"/>
       <use xlink:href="#DejaVuSans-32" x="127.246094"/>
       <use xlink:href="#DejaVuSans-31" x="190.869141"/>
       <use xlink:href="#DejaVuSans-2d" x="254.492188"/>
       <use xlink:href="#DejaVuSans-30" x="290.576172"/>
       <use xlink:href="#DejaVuSans-37" x="354.199219"/>
       <use xlink:href="#DejaVuSans-2d" x="417.822266"/>
       <use xlink:href="#DejaVuSans-30" x="453.90625"/>
       <use xlink:href="#DejaVuSans-37" x="517.529297"/>
      </g>
     </g>
    </g>
    <g id="xtick_6">
     <g id="line2d_6">
      <g>
       <use xlink:href="#m33d115197f" x="462.81071" y="135.36" style="stroke: #000000; stroke-width: 0.8"/>
      </g>
     </g>
     <g id="text_6">
      <!-- 2021-09-13 -->
      <g transform="translate(433.752897 149.958437)scale(0.1 -0.1)">
       <defs>
        <path id="DejaVuSans-39" d="M 703 97 
L 703 672 
Q 941 559 1184 500 
Q 1428 441 1663 441 
Q 2288 441 2617 861 
Q 2947 1281 2994 2138 
Q 2813 1869 2534 1725 
Q 2256 1581 1919 1581 
Q 1219 1581 811 2004 
Q 403 2428 403 3163 
Q 403 3881 828 4315 
Q 1253 4750 1959 4750 
Q 2769 4750 3195 4129 
Q 3622 3509 3622 2328 
Q 3622 1225 3098 567 
Q 2575 -91 1691 -91 
Q 1453 -91 1209 -44 
Q 966 3 703 97 
z
M 1959 2075 
Q 2384 2075 2632 2365 
Q 2881 2656 2881 3163 
Q 2881 3666 2632 3958 
Q 2384 4250 1959 4250 
Q 1534 4250 1286 3958 
Q 1038 3666 1038 3163 
Q 1038 2656 1286 2365 
Q 1534 2075 1959 2075 
z
" transform="scale(0.015625)"/>
       </defs>
       <use xlink:href="#DejaVuSans-32"/>
       <use xlink:href="#DejaVuSans-30" x="63.623047"/>
       <use xlink:href="#DejaVuSans-32" x="127.246094"/>
       <use xlink:href="#DejaVuSans-31" x="190.869141"/>
       <use xlink:href="#DejaVuSans-2d" x="254.492188"/>
       <use xlink:href="#DejaVuSans-30" x="290.576172"/>
       <use xlink:href="#DejaVuSans-39" x="354.199219"/>
       <use xlink:href="#DejaVuSans-2d" x="417.822266"/>
       <use xlink:href="#DejaVuSans-31" x="453.90625"/>
       <use xlink:href="#DejaVuSans-33" x="517.529297"/>
      </g>
     </g>
    </g>
    <g id="xtick_7">
     <g id="line2d_7">
      <g>
       <use xlink:href="#m33d115197f" x="532.300125" y="135.36" style="stroke: #000000; stroke-width: 0.8"/>
      </g>
     </g>
     <g id="text_7">
      <!-- 2021-11-16 -->
      <g transform="translate(503.242312 149.958437)scale(0.1 -0.1)">
       <defs>
        <path id="DejaVuSans-36" d="M 2113 2584 
Q 1688 2584 1439 2293 
Q 1191 2003 1191 1497 
Q 1191 994 1439 701 
Q 1688 409 2113 409 
Q 2538 409 2786 701 
Q 3034 994 3034 1497 
Q 3034 2003 2786 2293 
Q 2538 2584 2113 2584 
z
M 3366 4563 
L 3366 3988 
Q 3128 4100 2886 4159 
Q 2644 4219 2406 4219 
Q 1781 4219 1451 3797 
Q 1122 3375 1075 2522 
Q 1259 2794 1537 2939 
Q 1816 3084 2150 3084 
Q 2853 3084 3261 2657 
Q 3669 2231 3669 1497 
Q 3669 778 3244 343 
Q 2819 -91 2113 -91 
Q 1303 -91 875 529 
Q 447 1150 447 2328 
Q 447 3434 972 4092 
Q 1497 4750 2381 4750 
Q 2619 4750 2861 4703 
Q 3103 4656 3366 4563 
z
" transform="scale(0.015625)"/>
       </defs>
       <use xlink:href="#DejaVuSans-32"/>
       <use xlink:href="#DejaVuSans-30" x="63.623047"/>
       <use xlink:href="#DejaVuSans-32" x="127.246094"/>
       <use xlink:href="#DejaVuSans-31" x="190.869141"/>
       <use xlink:href="#DejaVuSans-2d" x="254.492188"/>
       <use xlink:href="#DejaVuSans-31" x="290.576172"/>
       <use xlink:href="#DejaVuSans-31" x="354.199219"/>
       <use xlink:href="#DejaVuSans-2d" x="417.822266"/>
       <use xlink:href="#DejaVuSans-31" x="453.90625"/>
       <use xlink:href="#DejaVuSans-36" x="517.529297"/>
      </g>
     </g>
    </g>
    <g id="xtick_8">
     <g id="line2d_8">
      <g>
       <use xlink:href="#m33d115197f" x="601.789539" y="135.36" style="stroke: #000000; stroke-width: 0.8"/>
      </g>
     </g>
     <g id="text_8">
      <!-- 2022-01-15 -->
      <g transform="translate(572.731727 149.958437)scale(0.1 -0.1)">
       <use xlink:href="#DejaVuSans-32"/>
       <use xlink:href="#DejaVuSans-30" x="63.623047"/>
       <use xlink:href="#DejaVuSans-32" x="127.246094"/>
       <use xlink:href="#DejaVuSans-32" x="190.869141"/>
       <use xlink:href="#DejaVuSans-2d" x="254.492188"/>
       <use xlink:href="#DejaVuSans-30" x="290.576172"/>
       <use xlink:href="#DejaVuSans-31" x="354.199219"/>
       <use xlink:href="#DejaVuSans-2d" x="417.822266"/>
       <use xlink:href="#DejaVuSans-31" x="453.90625"/>
       <use xlink:href="#DejaVuSans-35" x="517.529297"/>
      </g>
     </g>
    </g>
    <g id="text_9">
     <!-- _date -->
     <g transform="translate(355.225 163.636562)scale(0.1 -0.1)">
      <defs>
       <path id="DejaVuSans-5f" d="M 3263 -1063 
L 3263 -1509 
L -63 -1509 
L -63 -1063 
L 3263 -1063 
z
" transform="scale(0.015625)"/>
       <path id="DejaVuSans-64" d="M 2906 2969 
L 2906 4863 
L 3481 4863 
L 3481 0 
L 2906 0 
L 2906 525 
Q 2725 213 2448 61 
Q 2172 -91 1784 -91 
Q 1150 -91 751 415 
Q 353 922 353 1747 
Q 353 2572 751 3078 
Q 1150 3584 1784 3584 
Q 2172 3584 2448 3432 
Q 2725 3281 2906 2969 
z
M 947 1747 
Q 947 1113 1208 752 
Q 1469 391 1925 391 
Q 2381 391 2643 752 
Q 2906 1113 2906 1747 
Q 2906 2381 2643 2742 
Q 2381 3103 1925 3103 
Q 1469 3103 1208 2742 
Q 947 2381 947 1747 
z
" transform="scale(0.015625)"/>
       <path id="DejaVuSans-61" d="M 2194 1759 
Q 1497 1759 1228 1600 
Q 959 1441 959 1056 
Q 959 750 1161 570 
Q 1363 391 1709 391 
Q 2188 391 2477 730 
Q 2766 1069 2766 1631 
L 2766 1759 
L 2194 1759 
z
M 3341 1997 
L 3341 0 
L 2766 0 
L 2766 531 
Q 2569 213 2275 61 
Q 1981 -91 1556 -91 
Q 1019 -91 701 211 
Q 384 513 384 1019 
Q 384 1609 779 1909 
Q 1175 2209 1959 2209 
L 2766 2209 
L 2766 2266 
Q 2766 2663 2505 2880 
Q 2244 3097 1772 3097 
Q 1472 3097 1187 3025 
Q 903 2953 641 2809 
L 641 3341 
Q 956 3463 1253 3523 
Q 1550 3584 1831 3584 
Q 2591 3584 2966 3190 
Q 3341 2797 3341 1997 
z
" transform="scale(0.015625)"/>
       <path id="DejaVuSans-74" d="M 1172 4494 
L 1172 3500 
L 2356 3500 
L 2356 3053 
L 1172 3053 
L 1172 1153 
Q 1172 725 1289 603 
Q 1406 481 1766 481 
L 2356 481 
L 2356 0 
L 1766 0 
Q 1100 0 847 248 
Q 594 497 594 1153 
L 594 3053 
L 172 3053 
L 172 3500 
L 594 3500 
L 594 4494 
L 1172 4494 
z
" transform="scale(0.015625)"/>
       <path id="DejaVuSans-65" d="M 3597 1894 
L 3597 1613 
L 953 1613 
Q 991 1019 1311 708 
Q 1631 397 2203 397 
Q 2534 397 2845 478 
Q 3156 559 3463 722 
L 3463 178 
Q 3153 47 2828 -22 
Q 2503 -91 2169 -91 
Q 1331 -91 842 396 
Q 353 884 353 1716 
Q 353 2575 817 3079 
Q 1281 3584 2069 3584 
Q 2775 3584 3186 3129 
Q 3597 2675 3597 1894 
z
M 3022 2063 
Q 3016 2534 2758 2815 
Q 2500 3097 2075 3097 
Q 1594 3097 1305 2825 
Q 1016 2553 972 2059 
L 3022 2063 
z
" transform="scale(0.015625)"/>
      </defs>
      <use xlink:href="#DejaVuSans-5f"/>
      <use xlink:href="#DejaVuSans-64" x="50"/>
      <use xlink:href="#DejaVuSans-61" x="113.476562"/>
      <use xlink:href="#DejaVuSans-74" x="174.755859"/>
      <use xlink:href="#DejaVuSans-65" x="213.964844"/>
     </g>
    </g>
   </g>
   <g id="matplotlib.axis_2">
    <g id="ytick_1">
     <g id="line2d_9">
      <defs>
       <path id="m29718a5d4d" d="M 0 0 
L -3.5 0 
" style="stroke: #000000; stroke-width: 0.8"/>
      </defs>
      <g>
       <use xlink:href="#m29718a5d4d" x="90" y="131.401558" style="stroke: #000000; stroke-width: 0.8"/>
      </g>
     </g>
     <g id="text_10">
      <!-- 0 -->
      <g transform="translate(76.6375 135.200777)scale(0.1 -0.1)">
       <use xlink:href="#DejaVuSans-30"/>
      </g>
     </g>
    </g>
    <g id="ytick_2">
     <g id="line2d_10">
      <g>
       <use xlink:href="#m29718a5d4d" x="90" y="100.232727" style="stroke: #000000; stroke-width: 0.8"/>
      </g>
     </g>
     <g id="text_11">
      <!-- 50 -->
      <g transform="translate(70.275 104.031946)scale(0.1 -0.1)">
       <use xlink:href="#DejaVuSans-35"/>
       <use xlink:href="#DejaVuSans-30" x="63.623047"/>
      </g>
     </g>
    </g>
    <g id="ytick_3">
     <g id="line2d_11">
      <g>
       <use xlink:href="#m29718a5d4d" x="90" y="69.063896" style="stroke: #000000; stroke-width: 0.8"/>
      </g>
     </g>
     <g id="text_12">
      <!-- 100 -->
      <g transform="translate(63.9125 72.863115)scale(0.1 -0.1)">
       <use xlink:href="#DejaVuSans-31"/>
       <use xlink:href="#DejaVuSans-30" x="63.623047"/>
       <use xlink:href="#DejaVuSans-30" x="127.246094"/>
      </g>
     </g>
    </g>
    <g id="ytick_4">
     <g id="line2d_12">
      <g>
       <use xlink:href="#m29718a5d4d" x="90" y="37.895065" style="stroke: #000000; stroke-width: 0.8"/>
      </g>
     </g>
     <g id="text_13">
      <!-- 150 -->
      <g transform="translate(63.9125 41.694284)scale(0.1 -0.1)">
       <use xlink:href="#DejaVuSans-31"/>
       <use xlink:href="#DejaVuSans-35" x="63.623047"/>
       <use xlink:href="#DejaVuSans-30" x="127.246094"/>
      </g>
     </g>
    </g>
   </g>
   <g id="line2d_13">
    <path d="M 115.363636 127.661299 
L 116.753425 128.284675 
L 118.143213 130.778182 
L 119.533001 130.778182 
L 120.92279 129.531429 
L 122.312578 129.531429 
L 123.702366 120.804156 
L 125.092154 120.804156 
L 126.481943 130.778182 
L 127.871731 130.778182 
L 129.261519 124.544416 
L 130.651308 126.414545 
L 132.041096 130.778182 
L 133.430884 127.661299 
L 134.820672 128.908052 
L 136.210461 128.908052 
L 137.600249 130.778182 
L 140.379826 128.284675 
L 141.769614 130.154805 
L 143.159402 130.778182 
L 144.549191 130.154805 
L 145.938979 130.154805 
L 147.328767 129.531429 
L 148.718555 130.154805 
L 150.108344 130.154805 
L 151.498132 128.908052 
L 152.88792 130.154805 
L 154.277709 130.154805 
L 155.667497 122.674286 
L 157.057285 127.661299 
L 158.447073 130.154805 
L 159.836862 115.817143 
L 161.22665 130.778182 
L 172.344956 130.778182 
L 173.734745 130.154805 
L 175.124533 130.778182 
L 184.853051 130.778182 
L 186.242839 128.908052 
L 187.632628 129.531429 
L 189.022416 130.778182 
L 190.412204 129.531429 
L 191.801993 127.661299 
L 193.191781 130.154805 
L 194.581569 130.154805 
L 195.971357 128.908052 
L 197.361146 120.804156 
L 198.750934 130.154805 
L 200.140722 130.778182 
L 201.530511 130.154805 
L 202.920299 127.037922 
L 204.310087 130.154805 
L 205.699875 129.531429 
L 207.089664 125.167792 
L 208.479452 128.908052 
L 209.86924 127.037922 
L 211.259029 130.154805 
L 212.648817 129.531429 
L 214.038605 130.154805 
L 215.428394 129.531429 
L 218.20797 129.531429 
L 219.597758 128.284675 
L 220.987547 130.778182 
L 222.377335 130.778182 
L 223.767123 128.284675 
L 225.156912 128.284675 
L 226.5467 125.167792 
L 227.936488 129.531429 
L 229.326276 127.661299 
L 230.716065 130.778182 
L 232.105853 125.791169 
L 233.495641 128.908052 
L 234.88543 129.531429 
L 236.275218 128.908052 
L 237.665006 126.414545 
L 239.054795 130.154805 
L 240.444583 128.284675 
L 241.834371 121.427532 
L 243.224159 126.414545 
L 244.613948 120.804156 
L 246.003736 87.141818 
L 247.393524 127.661299 
L 248.783313 130.778182 
L 250.173101 128.908052 
L 251.562889 123.297662 
L 252.952677 124.544416 
L 254.342466 127.661299 
L 255.732254 119.557403 
L 257.122042 128.908052 
L 258.511831 128.908052 
L 259.901619 130.154805 
L 261.291407 122.674286 
L 262.681196 124.544416 
L 264.070984 130.778182 
L 265.460772 129.531429 
L 266.85056 130.778182 
L 268.240349 128.284675 
L 269.630137 100.232727 
L 271.019925 118.310649 
L 272.409714 121.427532 
L 273.799502 127.661299 
L 275.18929 130.778182 
L 276.579078 126.414545 
L 277.968867 128.908052 
L 279.358655 122.050909 
L 280.748443 128.908052 
L 282.138232 123.297662 
L 283.52802 115.817143 
L 284.917808 122.674286 
L 286.307597 127.661299 
L 287.697385 115.193766 
L 289.087173 115.193766 
L 290.476961 116.440519 
L 291.86675 92.128831 
L 293.256538 107.08987 
L 294.646326 107.08987 
L 296.036115 119.557403 
L 297.425903 110.206753 
L 298.815691 118.934026 
L 300.205479 129.531429 
L 301.595268 130.154805 
L 302.985056 116.440519 
L 304.374844 114.57039 
L 305.764633 115.817143 
L 307.154421 111.453506 
L 308.544209 105.843117 
L 309.933998 128.284675 
L 311.323786 130.154805 
L 312.713574 116.440519 
L 314.103362 117.687273 
L 315.493151 100.232727 
L 316.882939 115.817143 
L 318.272727 116.440519 
L 319.662516 130.154805 
L 321.052304 128.908052 
L 322.442092 114.57039 
L 323.83188 102.102857 
L 325.221669 117.063896 
L 326.611457 113.323636 
L 328.001245 95.245714 
L 329.391034 117.063896 
L 330.780822 130.154805 
L 332.17061 114.57039 
L 333.560399 105.843117 
L 334.950187 102.726234 
L 336.339975 108.96 
L 337.729763 111.453506 
L 339.119552 129.531429 
L 340.50934 115.193766 
L 341.899128 108.336623 
L 343.288917 115.817143 
L 344.678705 115.193766 
L 346.068493 113.947013 
L 347.458281 125.791169 
L 348.84807 115.817143 
L 350.237858 113.323636 
L 351.627646 115.817143 
L 353.017435 116.440519 
L 354.407223 116.440519 
L 355.797011 130.778182 
L 357.1868 130.778182 
L 358.576588 115.193766 
L 359.966376 112.076883 
L 361.356164 115.193766 
L 362.745953 102.726234 
L 364.135741 105.843117 
L 365.525529 130.778182 
L 366.915318 115.817143 
L 368.305106 113.947013 
L 369.694894 113.323636 
L 371.084682 112.076883 
L 372.474471 117.063896 
L 373.864259 130.154805 
L 375.254047 114.57039 
L 376.643836 110.83013 
L 378.033624 105.21974 
L 379.423412 104.596364 
L 380.8132 39.141818 
L 383.592777 130.778182 
L 384.982565 118.310649 
L 386.372354 117.063896 
L 387.762142 124.544416 
L 389.15193 130.778182 
L 390.541719 130.154805 
L 391.931507 123.297662 
L 393.321295 125.167792 
L 394.711083 130.154805 
L 396.100872 128.908052 
L 397.49066 130.154805 
L 398.880448 130.778182 
L 400.270237 130.778182 
L 401.660025 130.154805 
L 403.049813 130.778182 
L 404.439601 128.908052 
L 405.82939 129.531429 
L 407.219178 130.778182 
L 411.388543 130.778182 
L 412.778331 128.284675 
L 414.16812 130.154805 
L 415.557908 130.778182 
L 416.947696 130.154805 
L 418.337484 127.037922 
L 419.727273 130.778182 
L 421.117061 117.063896 
L 422.506849 129.531429 
L 423.896638 130.778182 
L 426.676214 129.531429 
L 428.066002 130.778182 
L 429.455791 130.154805 
L 430.845579 130.778182 
L 432.235367 128.908052 
L 433.625156 130.154805 
L 435.014944 129.531429 
L 436.404732 130.778182 
L 439.184309 130.778182 
L 441.963885 129.531429 
L 443.353674 127.037922 
L 444.743462 130.154805 
L 446.13325 130.154805 
L 447.523039 124.544416 
L 448.912827 122.050909 
L 450.302615 130.778182 
L 453.082192 130.778182 
L 455.861768 129.531429 
L 457.251557 130.154805 
L 458.641345 125.167792 
L 460.031133 113.323636 
L 461.420922 127.661299 
L 462.81071 110.206753 
L 464.200498 126.414545 
L 465.590286 130.154805 
L 466.980075 130.778182 
L 469.759651 130.778182 
L 471.14944 130.154805 
L 472.539228 130.778182 
L 473.929016 130.778182 
L 475.318804 128.284675 
L 476.708593 98.362597 
L 478.098381 117.063896 
L 479.488169 129.531429 
L 480.877958 122.674286 
L 482.267746 98.985974 
L 483.657534 96.492468 
L 485.047323 90.882078 
L 486.437111 103.972987 
L 487.826899 120.804156 
L 489.216687 122.674286 
L 490.606476 130.778182 
L 491.996264 125.791169 
L 493.386052 130.778182 
L 494.775841 130.778182 
L 496.165629 122.050909 
L 497.555417 129.531429 
L 498.945205 97.739221 
L 500.334994 122.674286 
L 501.724782 95.869091 
L 503.11457 123.297662 
L 504.504359 128.284675 
L 505.894147 121.427532 
L 507.283935 93.998961 
L 508.673724 120.804156 
L 510.063512 122.674286 
L 511.4533 129.531429 
L 512.843088 130.778182 
L 514.232877 130.778182 
L 515.622665 129.531429 
L 517.012453 126.414545 
L 518.402242 123.921039 
L 519.79203 122.674286 
L 521.181818 130.778182 
L 522.571606 130.778182 
L 523.961395 120.180779 
L 525.351183 115.817143 
L 526.740971 130.778182 
L 528.13076 129.531429 
L 529.520548 130.778182 
L 530.910336 125.167792 
L 532.300125 129.531429 
L 533.689913 130.778182 
L 535.079701 130.154805 
L 536.469489 128.908052 
L 537.859278 128.908052 
L 539.249066 106.466494 
L 540.638854 128.908052 
L 542.028643 128.908052 
L 543.418431 120.804156 
L 544.808219 105.21974 
L 546.198007 123.297662 
L 547.587796 123.297662 
L 548.977584 129.531429 
L 550.367372 120.804156 
L 551.757161 120.180779 
L 553.146949 103.34961 
L 554.536737 63.453506 
L 555.926526 123.297662 
L 557.316314 113.323636 
L 558.706102 130.778182 
L 560.09589 104.596364 
L 561.485679 99.609351 
L 562.875467 127.037922 
L 564.265255 117.063896 
L 565.655044 130.778182 
L 567.044832 130.778182 
L 568.43462 100.856104 
L 569.824408 130.778182 
L 571.214197 98.985974 
L 572.603985 130.154805 
L 573.993773 120.804156 
L 575.383562 130.778182 
L 576.77335 130.778182 
L 578.163138 129.531429 
L 579.552927 130.778182 
L 580.942715 130.154805 
L 582.332503 128.908052 
L 583.722291 130.778182 
L 585.11208 122.050909 
L 586.501868 122.674286 
L 587.891656 117.063896 
L 589.281445 93.998961 
L 590.671233 124.544416 
L 592.061021 130.154805 
L 593.450809 115.193766 
L 594.840598 116.440519 
L 596.230386 130.154805 
L 597.620174 125.791169 
L 599.009963 120.180779 
L 600.399751 122.674286 
L 601.789539 127.661299 
L 603.179328 130.154805 
L 604.569116 128.284675 
L 605.958904 127.037922 
L 607.348692 115.817143 
L 608.738481 128.284675 
L 610.128269 122.674286 
L 611.518057 125.167792 
L 612.907846 130.778182 
L 614.297634 75.297662 
L 615.687422 117.687273 
L 617.07721 97.115844 
L 618.466999 122.050909 
L 619.856787 78.414545 
L 621.246575 130.778182 
L 622.636364 118.934026 
L 622.636364 118.934026 
" clip-path="url(#pf3bef46356)" style="fill: none; stroke: #1f77b4; stroke-width: 1.5; stroke-linecap: square"/>
   </g>
   <g id="line2d_14">
    <path d="M 115.363636 127.661299 
L 116.753425 128.284675 
L 118.143213 130.778182 
L 119.533001 130.778182 
L 120.92279 129.531429 
L 122.312578 129.531429 
L 123.702366 130.154805 
L 125.092154 128.284675 
L 126.481943 130.778182 
L 127.871731 130.778182 
L 129.261519 124.544416 
L 130.651308 129.531429 
L 132.041096 130.778182 
L 133.430884 128.908052 
L 134.820672 128.908052 
L 136.210461 129.531429 
L 137.600249 130.778182 
L 138.990037 129.531429 
L 140.379826 128.908052 
L 141.769614 130.154805 
L 143.159402 130.778182 
L 144.549191 130.154805 
L 145.938979 130.778182 
L 147.328767 129.531429 
L 150.108344 130.778182 
L 151.498132 130.154805 
L 152.88792 130.778182 
L 154.277709 130.154805 
L 155.667497 125.791169 
L 157.057285 127.661299 
L 158.447073 130.154805 
L 159.836862 125.167792 
L 161.22665 130.778182 
L 172.344956 130.778182 
L 173.734745 130.154805 
L 175.124533 130.778182 
L 184.853051 130.778182 
L 186.242839 129.531429 
L 187.632628 130.778182 
L 189.022416 130.778182 
L 191.801993 129.531429 
L 193.191781 130.778182 
L 195.971357 130.778182 
L 197.361146 124.544416 
L 198.750934 130.778182 
L 200.140722 130.778182 
L 201.530511 130.154805 
L 202.920299 128.908052 
L 204.310087 130.154805 
L 205.699875 129.531429 
L 207.089664 127.037922 
L 208.479452 129.531429 
L 209.86924 130.778182 
L 211.259029 130.154805 
L 212.648817 130.778182 
L 214.038605 130.154805 
L 215.428394 130.778182 
L 216.818182 129.531429 
L 219.597758 129.531429 
L 220.987547 130.778182 
L 222.377335 130.778182 
L 226.5467 127.037922 
L 227.936488 129.531429 
L 229.326276 128.284675 
L 230.716065 130.778182 
L 232.105853 127.037922 
L 233.495641 128.908052 
L 234.88543 129.531429 
L 236.275218 128.908052 
L 237.665006 126.414545 
L 239.054795 130.154805 
L 240.444583 128.284675 
L 241.834371 124.544416 
L 243.224159 127.037922 
L 244.613948 123.297662 
L 246.003736 108.96 
L 247.393524 127.661299 
L 248.783313 130.778182 
L 250.173101 129.531429 
L 251.562889 123.921039 
L 254.342466 127.661299 
L 255.732254 122.050909 
L 257.122042 128.908052 
L 258.511831 128.908052 
L 259.901619 130.154805 
L 261.291407 124.544416 
L 262.681196 124.544416 
L 264.070984 130.778182 
L 265.460772 129.531429 
L 266.85056 130.778182 
L 268.240349 128.908052 
L 269.630137 116.440519 
L 271.019925 122.674286 
L 272.409714 124.544416 
L 273.799502 128.284675 
L 275.18929 130.778182 
L 276.579078 127.661299 
L 277.968867 130.154805 
L 279.358655 123.921039 
L 280.748443 129.531429 
L 282.138232 123.921039 
L 283.52802 120.180779 
L 284.917808 123.297662 
L 286.307597 128.284675 
L 287.697385 120.804156 
L 289.087173 125.167792 
L 290.476961 130.154805 
L 291.86675 121.427532 
L 293.256538 128.908052 
L 294.646326 125.791169 
L 296.036115 121.427532 
L 297.425903 125.167792 
L 298.815691 130.778182 
L 300.205479 130.154805 
L 301.595268 130.154805 
L 302.985056 130.778182 
L 304.374844 128.908052 
L 305.764633 129.531429 
L 308.544209 120.804156 
L 309.933998 128.284675 
L 311.323786 130.154805 
L 312.713574 130.778182 
L 314.103362 128.908052 
L 315.493151 117.687273 
L 316.882939 130.778182 
L 318.272727 129.531429 
L 319.662516 130.154805 
L 322.442092 130.154805 
L 323.83188 118.934026 
L 325.221669 128.908052 
L 326.611457 127.037922 
L 328.001245 115.817143 
L 329.391034 120.180779 
L 330.780822 130.154805 
L 332.17061 130.778182 
L 333.560399 125.791169 
L 334.950187 129.531429 
L 336.339975 128.908052 
L 337.729763 130.154805 
L 339.119552 130.154805 
L 340.50934 130.778182 
L 341.899128 123.921039 
L 343.288917 130.778182 
L 344.678705 130.154805 
L 346.068493 128.908052 
L 347.458281 127.037922 
L 348.84807 130.778182 
L 350.237858 128.908052 
L 351.627646 130.778182 
L 353.017435 129.531429 
L 354.407223 129.531429 
L 355.797011 130.778182 
L 358.576588 130.778182 
L 359.966376 127.661299 
L 361.356164 130.778182 
L 362.745953 128.908052 
L 364.135741 125.791169 
L 365.525529 130.778182 
L 366.915318 130.778182 
L 368.305106 130.154805 
L 369.694894 128.908052 
L 373.864259 130.778182 
L 375.254047 130.154805 
L 376.643836 126.414545 
L 378.033624 126.414545 
L 379.423412 127.661299 
L 380.8132 130.778182 
L 382.202989 121.427532 
L 383.592777 130.778182 
L 384.982565 130.154805 
L 386.372354 126.414545 
L 387.762142 125.791169 
L 389.15193 130.778182 
L 390.541719 130.154805 
L 391.931507 123.297662 
L 393.321295 126.414545 
L 394.711083 130.154805 
L 396.100872 128.908052 
L 397.49066 130.778182 
L 400.270237 130.778182 
L 401.660025 130.154805 
L 403.049813 130.778182 
L 404.439601 128.908052 
L 405.82939 129.531429 
L 407.219178 130.778182 
L 411.388543 130.778182 
L 412.778331 128.284675 
L 414.16812 130.154805 
L 415.557908 130.778182 
L 416.947696 130.154805 
L 418.337484 127.661299 
L 419.727273 130.778182 
L 421.117061 130.778182 
L 422.506849 129.531429 
L 423.896638 130.778182 
L 426.676214 129.531429 
L 428.066002 130.778182 
L 429.455791 130.154805 
L 430.845579 130.778182 
L 432.235367 128.908052 
L 433.625156 130.154805 
L 435.014944 129.531429 
L 436.404732 130.778182 
L 439.184309 130.778182 
L 441.963885 129.531429 
L 443.353674 127.037922 
L 444.743462 130.154805 
L 446.13325 130.778182 
L 447.523039 124.544416 
L 448.912827 123.921039 
L 450.302615 130.778182 
L 453.082192 130.778182 
L 455.861768 129.531429 
L 457.251557 130.778182 
L 458.641345 125.791169 
L 460.031133 122.050909 
L 461.420922 130.154805 
L 462.81071 121.427532 
L 464.200498 127.661299 
L 465.590286 130.778182 
L 469.759651 130.778182 
L 471.14944 130.154805 
L 472.539228 130.778182 
L 473.929016 130.778182 
L 475.318804 128.284675 
L 476.708593 114.57039 
L 478.098381 119.557403 
L 479.488169 129.531429 
L 480.877958 123.921039 
L 482.267746 114.57039 
L 483.657534 112.076883 
L 485.047323 112.076883 
L 486.437111 119.557403 
L 487.826899 121.427532 
L 489.216687 124.544416 
L 490.606476 130.778182 
L 491.996264 126.414545 
L 493.386052 130.778182 
L 494.775841 130.778182 
L 496.165629 123.297662 
L 497.555417 129.531429 
L 498.945205 122.674286 
L 500.334994 128.284675 
L 501.724782 126.414545 
L 503.11457 130.154805 
L 504.504359 130.778182 
L 505.894147 128.284675 
L 507.283935 121.427532 
L 508.673724 125.791169 
L 510.063512 126.414545 
L 511.4533 130.154805 
L 512.843088 130.778182 
L 514.232877 130.778182 
L 515.622665 129.531429 
L 517.012453 128.908052 
L 518.402242 127.037922 
L 519.79203 127.037922 
L 521.181818 130.778182 
L 522.571606 130.778182 
L 523.961395 125.167792 
L 525.351183 123.921039 
L 526.740971 130.778182 
L 528.13076 129.531429 
L 529.520548 130.778182 
L 530.910336 127.661299 
L 532.300125 129.531429 
L 533.689913 130.778182 
L 535.079701 130.154805 
L 536.469489 128.908052 
L 537.859278 128.908052 
L 539.249066 122.050909 
L 540.638854 128.908052 
L 542.028643 129.531429 
L 543.418431 126.414545 
L 544.808219 120.180779 
L 546.198007 126.414545 
L 547.587796 127.037922 
L 548.977584 130.154805 
L 550.367372 127.037922 
L 551.757161 126.414545 
L 554.536737 112.70026 
L 555.926526 127.661299 
L 557.316314 123.921039 
L 558.706102 130.778182 
L 560.09589 120.804156 
L 561.485679 117.063896 
L 562.875467 128.284675 
L 564.265255 123.921039 
L 565.655044 130.778182 
L 567.044832 130.778182 
L 568.43462 120.180779 
L 569.824408 130.778182 
L 571.214197 116.440519 
L 572.603985 130.154805 
L 573.993773 125.791169 
L 575.383562 130.778182 
L 576.77335 130.778182 
L 578.163138 130.154805 
L 579.552927 130.778182 
L 580.942715 130.778182 
L 582.332503 130.154805 
L 583.722291 130.778182 
L 585.11208 126.414545 
L 586.501868 126.414545 
L 587.891656 124.544416 
L 589.281445 117.063896 
L 590.671233 127.661299 
L 592.061021 130.778182 
L 593.450809 122.674286 
L 594.840598 123.297662 
L 596.230386 130.154805 
L 599.009963 126.414545 
L 600.399751 127.661299 
L 601.789539 128.284675 
L 603.179328 130.778182 
L 604.569116 128.908052 
L 605.958904 127.661299 
L 607.348692 122.674286 
L 608.738481 129.531429 
L 610.128269 127.037922 
L 611.518057 127.661299 
L 612.907846 130.778182 
L 614.297634 110.206753 
L 615.687422 123.921039 
L 617.07721 118.310649 
L 618.466999 126.414545 
L 619.856787 112.076883 
L 621.246575 130.778182 
L 622.636364 130.154805 
L 622.636364 130.154805 
" clip-path="url(#pf3bef46356)" style="fill: none; stroke: #ff7f0e; stroke-width: 1.5; stroke-linecap: square"/>
   </g>
   <g id="patch_3">
    <path d="M 90 135.36 
L 90 34.56 
" style="fill: none; stroke: #000000; stroke-width: 0.8; stroke-linejoin: miter; stroke-linecap: square"/>
   </g>
   <g id="patch_4">
    <path d="M 648 135.36 
L 648 34.56 
" style="fill: none; stroke: #000000; stroke-width: 0.8; stroke-linejoin: miter; stroke-linecap: square"/>
   </g>
   <g id="patch_5">
    <path d="M 90 135.36 
L 648 135.36 
" style="fill: none; stroke: #000000; stroke-width: 0.8; stroke-linejoin: miter; stroke-linecap: square"/>
   </g>
   <g id="patch_6">
    <path d="M 90 34.56 
L 648 34.56 
" style="fill: none; stroke: #000000; stroke-width: 0.8; stroke-linejoin: miter; stroke-linecap: square"/>
   </g>
   <g id="legend_1">
    <g id="patch_7">
     <path d="M 97 71.91625 
L 238.8625 71.91625 
Q 240.8625 71.91625 240.8625 69.91625 
L 240.8625 41.56 
Q 240.8625 39.56 238.8625 39.56 
L 97 39.56 
Q 95 39.56 95 41.56 
L 95 69.91625 
Q 95 71.91625 97 71.91625 
z
" style="fill: #ffffff; opacity: 0.8; stroke: #cccccc; stroke-linejoin: miter"/>
    </g>
    <g id="line2d_15">
     <path d="M 99 47.658437 
L 109 47.658437 
L 119 47.658437 
" style="fill: none; stroke: #1f77b4; stroke-width: 1.5; stroke-linecap: square"/>
    </g>
    <g id="text_14">
     <!-- Total GitHub Clones -->
     <g transform="translate(127 51.158437)scale(0.1 -0.1)">
      <defs>
       <path id="DejaVuSans-54" d="M -19 4666 
L 3928 4666 
L 3928 4134 
L 2272 4134 
L 2272 0 
L 1638 0 
L 1638 4134 
L -19 4134 
L -19 4666 
z
" transform="scale(0.015625)"/>
       <path id="DejaVuSans-6f" d="M 1959 3097 
Q 1497 3097 1228 2736 
Q 959 2375 959 1747 
Q 959 1119 1226 758 
Q 1494 397 1959 397 
Q 2419 397 2687 759 
Q 2956 1122 2956 1747 
Q 2956 2369 2687 2733 
Q 2419 3097 1959 3097 
z
M 1959 3584 
Q 2709 3584 3137 3096 
Q 3566 2609 3566 1747 
Q 3566 888 3137 398 
Q 2709 -91 1959 -91 
Q 1206 -91 779 398 
Q 353 888 353 1747 
Q 353 2609 779 3096 
Q 1206 3584 1959 3584 
z
" transform="scale(0.015625)"/>
       <path id="DejaVuSans-6c" d="M 603 4863 
L 1178 4863 
L 1178 0 
L 603 0 
L 603 4863 
z
" transform="scale(0.015625)"/>
       <path id="DejaVuSans-20" transform="scale(0.015625)"/>
       <path id="DejaVuSans-47" d="M 3809 666 
L 3809 1919 
L 2778 1919 
L 2778 2438 
L 4434 2438 
L 4434 434 
Q 4069 175 3628 42 
Q 3188 -91 2688 -91 
Q 1594 -91 976 548 
Q 359 1188 359 2328 
Q 359 3472 976 4111 
Q 1594 4750 2688 4750 
Q 3144 4750 3555 4637 
Q 3966 4525 4313 4306 
L 4313 3634 
Q 3963 3931 3569 4081 
Q 3175 4231 2741 4231 
Q 1884 4231 1454 3753 
Q 1025 3275 1025 2328 
Q 1025 1384 1454 906 
Q 1884 428 2741 428 
Q 3075 428 3337 486 
Q 3600 544 3809 666 
z
" transform="scale(0.015625)"/>
       <path id="DejaVuSans-69" d="M 603 3500 
L 1178 3500 
L 1178 0 
L 603 0 
L 603 3500 
z
M 603 4863 
L 1178 4863 
L 1178 4134 
L 603 4134 
L 603 4863 
z
" transform="scale(0.015625)"/>
       <path id="DejaVuSans-48" d="M 628 4666 
L 1259 4666 
L 1259 2753 
L 3553 2753 
L 3553 4666 
L 4184 4666 
L 4184 0 
L 3553 0 
L 3553 2222 
L 1259 2222 
L 1259 0 
L 628 0 
L 628 4666 
z
" transform="scale(0.015625)"/>
       <path id="DejaVuSans-75" d="M 544 1381 
L 544 3500 
L 1119 3500 
L 1119 1403 
Q 1119 906 1312 657 
Q 1506 409 1894 409 
Q 2359 409 2629 706 
Q 2900 1003 2900 1516 
L 2900 3500 
L 3475 3500 
L 3475 0 
L 2900 0 
L 2900 538 
Q 2691 219 2414 64 
Q 2138 -91 1772 -91 
Q 1169 -91 856 284 
Q 544 659 544 1381 
z
M 1991 3584 
L 1991 3584 
z
" transform="scale(0.015625)"/>
       <path id="DejaVuSans-62" d="M 3116 1747 
Q 3116 2381 2855 2742 
Q 2594 3103 2138 3103 
Q 1681 3103 1420 2742 
Q 1159 2381 1159 1747 
Q 1159 1113 1420 752 
Q 1681 391 2138 391 
Q 2594 391 2855 752 
Q 3116 1113 3116 1747 
z
M 1159 2969 
Q 1341 3281 1617 3432 
Q 1894 3584 2278 3584 
Q 2916 3584 3314 3078 
Q 3713 2572 3713 1747 
Q 3713 922 3314 415 
Q 2916 -91 2278 -91 
Q 1894 -91 1617 61 
Q 1341 213 1159 525 
L 1159 0 
L 581 0 
L 581 4863 
L 1159 4863 
L 1159 2969 
z
" transform="scale(0.015625)"/>
       <path id="DejaVuSans-43" d="M 4122 4306 
L 4122 3641 
Q 3803 3938 3442 4084 
Q 3081 4231 2675 4231 
Q 1875 4231 1450 3742 
Q 1025 3253 1025 2328 
Q 1025 1406 1450 917 
Q 1875 428 2675 428 
Q 3081 428 3442 575 
Q 3803 722 4122 1019 
L 4122 359 
Q 3791 134 3420 21 
Q 3050 -91 2638 -91 
Q 1578 -91 968 557 
Q 359 1206 359 2328 
Q 359 3453 968 4101 
Q 1578 4750 2638 4750 
Q 3056 4750 3426 4639 
Q 3797 4528 4122 4306 
z
" transform="scale(0.015625)"/>
       <path id="DejaVuSans-6e" d="M 3513 2113 
L 3513 0 
L 2938 0 
L 2938 2094 
Q 2938 2591 2744 2837 
Q 2550 3084 2163 3084 
Q 1697 3084 1428 2787 
Q 1159 2491 1159 1978 
L 1159 0 
L 581 0 
L 581 3500 
L 1159 3500 
L 1159 2956 
Q 1366 3272 1645 3428 
Q 1925 3584 2291 3584 
Q 2894 3584 3203 3211 
Q 3513 2838 3513 2113 
z
" transform="scale(0.015625)"/>
       <path id="DejaVuSans-73" d="M 2834 3397 
L 2834 2853 
Q 2591 2978 2328 3040 
Q 2066 3103 1784 3103 
Q 1356 3103 1142 2972 
Q 928 2841 928 2578 
Q 928 2378 1081 2264 
Q 1234 2150 1697 2047 
L 1894 2003 
Q 2506 1872 2764 1633 
Q 3022 1394 3022 966 
Q 3022 478 2636 193 
Q 2250 -91 1575 -91 
Q 1294 -91 989 -36 
Q 684 19 347 128 
L 347 722 
Q 666 556 975 473 
Q 1284 391 1588 391 
Q 1994 391 2212 530 
Q 2431 669 2431 922 
Q 2431 1156 2273 1281 
Q 2116 1406 1581 1522 
L 1381 1569 
Q 847 1681 609 1914 
Q 372 2147 372 2553 
Q 372 3047 722 3315 
Q 1072 3584 1716 3584 
Q 2034 3584 2315 3537 
Q 2597 3491 2834 3397 
z
" transform="scale(0.015625)"/>
      </defs>
      <use xlink:href="#DejaVuSans-54"/>
      <use xlink:href="#DejaVuSans-6f" x="44.083984"/>
      <use xlink:href="#DejaVuSans-74" x="105.265625"/>
      <use xlink:href="#DejaVuSans-61" x="144.474609"/>
      <use xlink:href="#DejaVuSans-6c" x="205.753906"/>
      <use xlink:href="#DejaVuSans-20" x="233.537109"/>
      <use xlink:href="#DejaVuSans-47" x="265.324219"/>
      <use xlink:href="#DejaVuSans-69" x="342.814453"/>
      <use xlink:href="#DejaVuSans-74" x="370.597656"/>
      <use xlink:href="#DejaVuSans-48" x="409.806641"/>
      <use xlink:href="#DejaVuSans-75" x="485.001953"/>
      <use xlink:href="#DejaVuSans-62" x="548.380859"/>
      <use xlink:href="#DejaVuSans-20" x="611.857422"/>
      <use xlink:href="#DejaVuSans-43" x="643.644531"/>
      <use xlink:href="#DejaVuSans-6c" x="713.46875"/>
      <use xlink:href="#DejaVuSans-6f" x="741.251953"/>
      <use xlink:href="#DejaVuSans-6e" x="802.433594"/>
      <use xlink:href="#DejaVuSans-65" x="865.8125"/>
      <use xlink:href="#DejaVuSans-73" x="927.335938"/>
     </g>
    </g>
    <g id="line2d_16">
     <path d="M 99 62.336562 
L 109 62.336562 
L 119 62.336562 
" style="fill: none; stroke: #ff7f0e; stroke-width: 1.5; stroke-linecap: square"/>
    </g>
    <g id="text_15">
     <!-- Unique GitHub Clones -->
     <g transform="translate(127 65.836562)scale(0.1 -0.1)">
      <defs>
       <path id="DejaVuSans-55" d="M 556 4666 
L 1191 4666 
L 1191 1831 
Q 1191 1081 1462 751 
Q 1734 422 2344 422 
Q 2950 422 3222 751 
Q 3494 1081 3494 1831 
L 3494 4666 
L 4128 4666 
L 4128 1753 
Q 4128 841 3676 375 
Q 3225 -91 2344 -91 
Q 1459 -91 1007 375 
Q 556 841 556 1753 
L 556 4666 
z
" transform="scale(0.015625)"/>
       <path id="DejaVuSans-71" d="M 947 1747 
Q 947 1113 1208 752 
Q 1469 391 1925 391 
Q 2381 391 2643 752 
Q 2906 1113 2906 1747 
Q 2906 2381 2643 2742 
Q 2381 3103 1925 3103 
Q 1469 3103 1208 2742 
Q 947 2381 947 1747 
z
M 2906 525 
Q 2725 213 2448 61 
Q 2172 -91 1784 -91 
Q 1150 -91 751 415 
Q 353 922 353 1747 
Q 353 2572 751 3078 
Q 1150 3584 1784 3584 
Q 2172 3584 2448 3432 
Q 2725 3281 2906 2969 
L 2906 3500 
L 3481 3500 
L 3481 -1331 
L 2906 -1331 
L 2906 525 
z
" transform="scale(0.015625)"/>
      </defs>
      <use xlink:href="#DejaVuSans-55"/>
      <use xlink:href="#DejaVuSans-6e" x="73.193359"/>
      <use xlink:href="#DejaVuSans-69" x="136.572266"/>
      <use xlink:href="#DejaVuSans-71" x="164.355469"/>
      <use xlink:href="#DejaVuSans-75" x="227.832031"/>
      <use xlink:href="#DejaVuSans-65" x="291.210938"/>
      <use xlink:href="#DejaVuSans-20" x="352.734375"/>
      <use xlink:href="#DejaVuSans-47" x="384.521484"/>
      <use xlink:href="#DejaVuSans-69" x="462.011719"/>
      <use xlink:href="#DejaVuSans-74" x="489.794922"/>
      <use xlink:href="#DejaVuSans-48" x="529.003906"/>
      <use xlink:href="#DejaVuSans-75" x="604.199219"/>
      <use xlink:href="#DejaVuSans-62" x="667.578125"/>
      <use xlink:href="#DejaVuSans-20" x="731.054688"/>
      <use xlink:href="#DejaVuSans-43" x="762.841797"/>
      <use xlink:href="#DejaVuSans-6c" x="832.666016"/>
      <use xlink:href="#DejaVuSans-6f" x="860.449219"/>
      <use xlink:href="#DejaVuSans-6e" x="921.630859"/>
      <use xlink:href="#DejaVuSans-65" x="985.009766"/>
      <use xlink:href="#DejaVuSans-73" x="1046.533203"/>
     </g>
    </g>
   </g>
  </g>
  <g id="axes_2">
   <g id="patch_8">
    <path d="M 90 256.32 
L 648 256.32 
L 648 155.52 
L 90 155.52 
z
" style="fill: #ffffff"/>
   </g>
   <g id="matplotlib.axis_3">
    <g id="xtick_9">
     <g id="line2d_17">
      <g>
       <use xlink:href="#m33d115197f" x="115.363636" y="256.32" style="stroke: #000000; stroke-width: 0.8"/>
      </g>
     </g>
     <g id="text_16">
      <!-- 2020-10-21 -->
      <g transform="translate(86.305824 270.918437)scale(0.1 -0.1)">
       <use xlink:href="#DejaVuSans-32"/>
       <use xlink:href="#DejaVuSans-30" x="63.623047"/>
       <use xlink:href="#DejaVuSans-32" x="127.246094"/>
       <use xlink:href="#DejaVuSans-30" x="190.869141"/>
       <use xlink:href="#DejaVuSans-2d" x="254.492188"/>
       <use xlink:href="#DejaVuSans-31" x="290.576172"/>
       <use xlink:href="#DejaVuSans-30" x="354.199219"/>
       <use xlink:href="#DejaVuSans-2d" x="417.822266"/>
       <use xlink:href="#DejaVuSans-32" x="453.90625"/>
       <use xlink:href="#DejaVuSans-31" x="517.529297"/>
      </g>
     </g>
    </g>
    <g id="xtick_10">
     <g id="line2d_18">
      <g>
       <use xlink:href="#m33d115197f" x="224.220445" y="256.32" style="stroke: #000000; stroke-width: 0.8"/>
      </g>
     </g>
     <g id="text_17">
      <!-- 2021-01-31 -->
      <g transform="translate(195.162632 270.918437)scale(0.1 -0.1)">
       <use xlink:href="#DejaVuSans-32"/>
       <use xlink:href="#DejaVuSans-30" x="63.623047"/>
       <use xlink:href="#DejaVuSans-32" x="127.246094"/>
       <use xlink:href="#DejaVuSans-31" x="190.869141"/>
       <use xlink:href="#DejaVuSans-2d" x="254.492188"/>
       <use xlink:href="#DejaVuSans-30" x="290.576172"/>
       <use xlink:href="#DejaVuSans-31" x="354.199219"/>
       <use xlink:href="#DejaVuSans-2d" x="417.822266"/>
       <use xlink:href="#DejaVuSans-33" x="453.90625"/>
       <use xlink:href="#DejaVuSans-31" x="517.529297"/>
      </g>
     </g>
    </g>
    <g id="xtick_11">
     <g id="line2d_19">
      <g>
       <use xlink:href="#m33d115197f" x="333.077253" y="256.32" style="stroke: #000000; stroke-width: 0.8"/>
      </g>
     </g>
     <g id="text_18">
      <!-- 2021-05-11 -->
      <g transform="translate(304.019441 270.918437)scale(0.1 -0.1)">
       <use xlink:href="#DejaVuSans-32"/>
       <use xlink:href="#DejaVuSans-30" x="63.623047"/>
       <use xlink:href="#DejaVuSans-32" x="127.246094"/>
       <use xlink:href="#DejaVuSans-31" x="190.869141"/>
       <use xlink:href="#DejaVuSans-2d" x="254.492188"/>
       <use xlink:href="#DejaVuSans-30" x="290.576172"/>
       <use xlink:href="#DejaVuSans-35" x="354.199219"/>
       <use xlink:href="#DejaVuSans-2d" x="417.822266"/>
       <use xlink:href="#DejaVuSans-31" x="453.90625"/>
       <use xlink:href="#DejaVuSans-31" x="517.529297"/>
      </g>
     </g>
    </g>
    <g id="xtick_12">
     <g id="line2d_20">
      <g>
       <use xlink:href="#m33d115197f" x="441.934062" y="256.32" style="stroke: #000000; stroke-width: 0.8"/>
      </g>
     </g>
     <g id="text_19">
      <!-- 2021-08-19 -->
      <g transform="translate(412.876249 270.918437)scale(0.1 -0.1)">
       <defs>
        <path id="DejaVuSans-38" d="M 2034 2216 
Q 1584 2216 1326 1975 
Q 1069 1734 1069 1313 
Q 1069 891 1326 650 
Q 1584 409 2034 409 
Q 2484 409 2743 651 
Q 3003 894 3003 1313 
Q 3003 1734 2745 1975 
Q 2488 2216 2034 2216 
z
M 1403 2484 
Q 997 2584 770 2862 
Q 544 3141 544 3541 
Q 544 4100 942 4425 
Q 1341 4750 2034 4750 
Q 2731 4750 3128 4425 
Q 3525 4100 3525 3541 
Q 3525 3141 3298 2862 
Q 3072 2584 2669 2484 
Q 3125 2378 3379 2068 
Q 3634 1759 3634 1313 
Q 3634 634 3220 271 
Q 2806 -91 2034 -91 
Q 1263 -91 848 271 
Q 434 634 434 1313 
Q 434 1759 690 2068 
Q 947 2378 1403 2484 
z
M 1172 3481 
Q 1172 3119 1398 2916 
Q 1625 2713 2034 2713 
Q 2441 2713 2670 2916 
Q 2900 3119 2900 3481 
Q 2900 3844 2670 4047 
Q 2441 4250 2034 4250 
Q 1625 4250 1398 4047 
Q 1172 3844 1172 3481 
z
" transform="scale(0.015625)"/>
       </defs>
       <use xlink:href="#DejaVuSans-32"/>
       <use xlink:href="#DejaVuSans-30" x="63.623047"/>
       <use xlink:href="#DejaVuSans-32" x="127.246094"/>
       <use xlink:href="#DejaVuSans-31" x="190.869141"/>
       <use xlink:href="#DejaVuSans-2d" x="254.492188"/>
       <use xlink:href="#DejaVuSans-30" x="290.576172"/>
       <use xlink:href="#DejaVuSans-38" x="354.199219"/>
       <use xlink:href="#DejaVuSans-2d" x="417.822266"/>
       <use xlink:href="#DejaVuSans-31" x="453.90625"/>
       <use xlink:href="#DejaVuSans-39" x="517.529297"/>
      </g>
     </g>
    </g>
    <g id="xtick_13">
     <g id="line2d_21">
      <g>
       <use xlink:href="#m33d115197f" x="550.79087" y="256.32" style="stroke: #000000; stroke-width: 0.8"/>
      </g>
     </g>
     <g id="text_20">
      <!-- 2021-11-27 -->
      <g transform="translate(521.733058 270.918437)scale(0.1 -0.1)">
       <use xlink:href="#DejaVuSans-32"/>
       <use xlink:href="#DejaVuSans-30" x="63.623047"/>
       <use xlink:href="#DejaVuSans-32" x="127.246094"/>
       <use xlink:href="#DejaVuSans-31" x="190.869141"/>
       <use xlink:href="#DejaVuSans-2d" x="254.492188"/>
       <use xlink:href="#DejaVuSans-31" x="290.576172"/>
       <use xlink:href="#DejaVuSans-31" x="354.199219"/>
       <use xlink:href="#DejaVuSans-2d" x="417.822266"/>
       <use xlink:href="#DejaVuSans-32" x="453.90625"/>
       <use xlink:href="#DejaVuSans-37" x="517.529297"/>
      </g>
     </g>
    </g>
    <g id="text_21">
     <!-- _date -->
     <g transform="translate(355.225 284.596563)scale(0.1 -0.1)">
      <use xlink:href="#DejaVuSans-5f"/>
      <use xlink:href="#DejaVuSans-64" x="50"/>
      <use xlink:href="#DejaVuSans-61" x="113.476562"/>
      <use xlink:href="#DejaVuSans-74" x="174.755859"/>
      <use xlink:href="#DejaVuSans-65" x="213.964844"/>
     </g>
    </g>
   </g>
   <g id="matplotlib.axis_4">
    <g id="ytick_5">
     <g id="line2d_22">
      <g>
       <use xlink:href="#m29718a5d4d" x="90" y="252.02101" style="stroke: #000000; stroke-width: 0.8"/>
      </g>
     </g>
     <g id="text_22">
      <!-- 0 -->
      <g transform="translate(76.6375 255.820229)scale(0.1 -0.1)">
       <use xlink:href="#DejaVuSans-30"/>
      </g>
     </g>
    </g>
    <g id="ytick_6">
     <g id="line2d_23">
      <g>
       <use xlink:href="#m29718a5d4d" x="90" y="223.738182" style="stroke: #000000; stroke-width: 0.8"/>
      </g>
     </g>
     <g id="text_23">
      <!-- 100 -->
      <g transform="translate(63.9125 227.537401)scale(0.1 -0.1)">
       <use xlink:href="#DejaVuSans-31"/>
       <use xlink:href="#DejaVuSans-30" x="63.623047"/>
       <use xlink:href="#DejaVuSans-30" x="127.246094"/>
      </g>
     </g>
    </g>
    <g id="ytick_7">
     <g id="line2d_24">
      <g>
       <use xlink:href="#m29718a5d4d" x="90" y="195.455354" style="stroke: #000000; stroke-width: 0.8"/>
      </g>
     </g>
     <g id="text_24">
      <!-- 200 -->
      <g transform="translate(63.9125 199.254572)scale(0.1 -0.1)">
       <use xlink:href="#DejaVuSans-32"/>
       <use xlink:href="#DejaVuSans-30" x="63.623047"/>
       <use xlink:href="#DejaVuSans-30" x="127.246094"/>
      </g>
     </g>
    </g>
    <g id="ytick_8">
     <g id="line2d_25">
      <g>
       <use xlink:href="#m29718a5d4d" x="90" y="167.172525" style="stroke: #000000; stroke-width: 0.8"/>
      </g>
     </g>
     <g id="text_25">
      <!-- 300 -->
      <g transform="translate(63.9125 170.971744)scale(0.1 -0.1)">
       <use xlink:href="#DejaVuSans-33"/>
       <use xlink:href="#DejaVuSans-30" x="63.623047"/>
       <use xlink:href="#DejaVuSans-30" x="127.246094"/>
      </g>
     </g>
    </g>
   </g>
   <g id="line2d_26">
    <path d="M 115.363636 251.738182 
L 116.452204 230.808889 
L 117.540773 228.263434 
L 118.629341 244.384646 
L 119.717909 251.455354 
L 120.806477 238.728081 
L 121.895045 238.445253 
L 122.983613 234.485657 
L 124.072181 238.445253 
L 125.160749 239.293737 
L 126.249317 250.606869 
L 127.337885 248.344242 
L 128.426453 247.495758 
L 129.515021 239.293737 
L 130.60359 211.576566 
L 131.692158 226.000808 
L 132.780726 243.81899 
L 133.869294 247.212929 
L 134.957862 251.172525 
L 136.04643 238.445253 
L 137.134998 224.303838 
L 138.223566 245.798788 
L 139.312134 243.253333 
L 140.400702 236.748283 
L 141.48927 236.748283 
L 142.577838 249.758384 
L 143.666407 237.031111 
L 144.754975 233.354343 
L 145.843543 243.536162 
L 146.932111 243.536162 
L 148.020679 238.728081 
L 149.109247 246.930101 
L 150.197815 249.192727 
L 151.286383 226.283636 
L 152.374951 248.909899 
L 153.463519 248.061414 
L 154.552087 249.758384 
L 155.640655 247.778586 
L 156.729224 251.455354 
L 157.817792 251.455354 
L 158.90636 227.980606 
L 159.994928 215.253333 
L 161.083496 243.81899 
L 162.172064 245.233131 
L 163.260632 226.566465 
L 164.3492 250.889697 
L 165.437768 244.950303 
L 166.526336 241.556364 
L 167.614904 246.081616 
L 168.703472 236.182626 
L 169.792041 246.930101 
L 170.880609 250.889697 
L 171.969177 251.738182 
L 173.057745 243.81899 
L 174.146313 242.12202 
L 175.234881 242.404848 
L 176.323449 240.990707 
L 177.412017 248.909899 
L 178.500585 250.889697 
L 179.589153 250.606869 
L 180.677721 247.212929 
L 181.76629 247.778586 
L 182.854858 242.687677 
L 183.943426 250.041212 
L 185.031994 251.172525 
L 186.120562 251.455354 
L 187.20913 248.344242 
L 188.297698 249.475556 
L 189.386266 250.32404 
L 190.474834 251.738182 
L 191.563402 247.212929 
L 192.65197 247.495758 
L 193.740538 250.889697 
L 194.829107 246.364444 
L 195.917675 242.687677 
L 197.006243 240.142222 
L 198.094811 247.778586 
L 199.183379 248.909899 
L 200.271947 232.505859 
L 201.360515 250.32404 
L 202.449083 234.202828 
L 203.537651 235.899798 
L 204.626219 240.142222 
L 205.714787 233.637172 
L 206.803355 246.930101 
L 207.891924 235.051313 
L 208.980492 251.172525 
L 210.06906 233.92 
L 211.157628 235.334141 
L 212.246196 226.849293 
L 213.334764 232.788687 
L 214.423332 240.142222 
L 215.5119 242.970505 
L 216.600468 248.344242 
L 217.689036 229.111919 
L 218.777604 224.586667 
L 219.866172 236.465455 
L 220.954741 235.051313 
L 222.043309 232.505859 
L 223.131877 247.495758 
L 224.220445 248.627071 
L 225.309013 230.243232 
L 226.397581 246.930101 
L 228.574717 233.354343 
L 230.751853 250.889697 
L 231.840421 247.778586 
L 232.928989 235.61697 
L 234.017558 235.051313 
L 235.106126 225.435152 
L 236.194694 242.12202 
L 237.283262 250.32404 
L 238.37183 250.606869 
L 239.460398 249.192727 
L 240.548966 242.687677 
L 241.637534 242.970505 
L 242.726102 246.930101 
L 243.81467 231.091717 
L 244.903238 248.344242 
L 245.991806 242.12202 
L 247.080375 239.293737 
L 248.168943 240.990707 
L 249.257511 225.71798 
L 250.346079 235.899798 
L 251.434647 235.051313 
L 252.523215 240.142222 
L 253.611783 238.445253 
L 254.700351 239.576566 
L 255.788919 183.859394 
L 256.877487 245.798788 
L 257.966055 231.091717 
L 259.054623 234.768485 
L 260.143192 227.132121 
L 261.23176 241.839192 
L 262.320328 200.263434 
L 263.408896 198.566465 
L 264.497464 204.505859 
L 265.586032 229.394747 
L 266.6746 174.243232 
L 267.763168 223.738182 
L 268.851736 246.081616 
L 269.940304 245.233131 
L 271.028872 237.596768 
L 272.11744 231.374545 
L 273.206009 227.980606 
L 274.294577 234.768485 
L 275.383145 224.02101 
L 276.471713 243.81899 
L 277.560281 245.798788 
L 278.648849 205.637172 
L 279.737417 232.788687 
L 280.825985 234.485657 
L 281.914553 246.364444 
L 283.003121 248.627071 
L 284.091689 248.061414 
L 285.180258 233.071515 
L 286.268826 184.425051 
L 287.357394 229.960404 
L 288.445962 234.485657 
L 289.53453 214.404848 
L 290.623098 244.384646 
L 291.711666 248.344242 
L 292.800234 244.950303 
L 293.888802 222.041212 
L 294.97737 238.728081 
L 296.065938 223.455354 
L 297.154506 200.546263 
L 298.243075 233.92 
L 299.331643 241.273535 
L 300.420211 246.081616 
L 301.508779 176.505859 
L 302.597347 227.697778 
L 303.685915 243.536162 
L 304.774483 235.334141 
L 305.863051 236.748283 
L 306.951619 248.909899 
L 308.040187 246.930101 
L 309.128755 187.81899 
L 310.217323 181.031111 
L 311.305892 198.566465 
L 312.39446 242.970505 
L 313.483028 249.192727 
L 314.571596 236.748283 
L 315.660164 247.495758 
L 317.8373 224.586667 
L 318.925868 162.647273 
L 320.014436 222.32404 
L 321.103004 221.475556 
L 322.191572 226.283636 
L 323.28014 245.51596 
L 324.368709 246.364444 
L 325.457277 220.344242 
L 326.545845 236.182626 
L 327.634413 235.899798 
L 328.722981 226.566465 
L 329.811549 243.253333 
L 330.900117 249.192727 
L 331.988685 198.283636 
L 333.077253 237.313939 
L 334.165821 212.990707 
L 335.254389 206.768485 
L 336.342957 213.556364 
L 337.431526 249.758384 
L 338.520094 249.758384 
L 339.608662 222.606869 
L 340.69723 233.071515 
L 341.785798 232.505859 
L 342.874366 239.010909 
L 343.962934 242.687677 
L 345.051502 248.344242 
L 346.14007 246.081616 
L 347.228638 226.000808 
L 348.317206 244.101818 
L 349.405774 240.425051 
L 350.494343 232.22303 
L 351.582911 238.728081 
L 352.671479 249.758384 
L 353.760047 249.758384 
L 354.848615 242.970505 
L 355.937183 240.142222 
L 357.025751 246.364444 
L 358.114319 241.273535 
L 359.202887 243.536162 
L 360.291455 249.192727 
L 361.380023 247.495758 
L 362.468591 231.091717 
L 363.55716 236.465455 
L 364.645728 168.303838 
L 365.734296 213.839192 
L 366.822864 244.101818 
L 367.911432 242.12202 
L 369 250.041212 
L 370.088568 232.22303 
L 371.177136 234.202828 
L 372.265704 241.839192 
L 373.354272 240.990707 
L 374.44284 235.61697 
L 375.531409 249.758384 
L 376.619977 250.32404 
L 377.708545 193.192727 
L 378.797113 239.293737 
L 379.885681 244.950303 
L 380.974249 247.212929 
L 382.062817 201.677576 
L 383.151385 247.212929 
L 384.239953 248.061414 
L 386.417089 241.839192 
L 387.505657 242.12202 
L 388.594226 224.02101 
L 389.682794 244.384646 
L 390.771362 249.758384 
L 391.85993 243.536162 
L 392.948498 245.233131 
L 394.037066 180.182626 
L 395.125634 197.435152 
L 396.214202 240.425051 
L 397.30277 242.404848 
L 398.391338 244.667475 
L 399.479906 244.101818 
L 400.568474 231.657374 
L 401.657043 242.12202 
L 402.745611 243.253333 
L 403.834179 222.32404 
L 404.922747 239.293737 
L 406.011315 250.32404 
L 407.099883 251.738182 
L 408.188451 244.667475 
L 409.277019 245.233131 
L 410.365587 246.647273 
L 411.454155 243.536162 
L 412.542723 246.081616 
L 413.631291 249.475556 
L 414.71986 251.172525 
L 415.808428 243.536162 
L 416.896996 243.253333 
L 417.985564 230.808889 
L 419.074132 229.111919 
L 420.1627 250.606869 
L 421.251268 246.081616 
L 422.339836 251.738182 
L 423.428404 239.010909 
L 424.516972 240.142222 
L 425.60554 242.687677 
L 426.694108 239.859394 
L 427.782677 248.344242 
L 428.871245 245.51596 
L 429.959813 250.041212 
L 431.048381 236.748283 
L 432.136949 238.728081 
L 433.225517 243.81899 
L 434.314085 240.707879 
L 435.402653 231.374545 
L 436.491221 241.839192 
L 437.579789 248.344242 
L 438.668357 232.505859 
L 439.756925 250.32404 
L 440.845494 245.798788 
L 441.934062 244.101818 
L 443.02263 251.172525 
L 444.111198 250.889697 
L 445.199766 244.667475 
L 446.288334 245.233131 
L 447.376902 232.22303 
L 448.46547 230.526061 
L 449.554038 248.909899 
L 450.642606 249.758384 
L 451.731174 250.32404 
L 452.819742 242.12202 
L 453.908311 242.404848 
L 454.996879 226.849293 
L 456.085447 235.61697 
L 457.174015 235.334141 
L 458.262583 244.950303 
L 459.351151 249.758384 
L 460.439719 245.51596 
L 461.528287 246.364444 
L 462.616855 249.758384 
L 463.705423 236.465455 
L 464.793991 247.495758 
L 465.88256 242.12202 
L 466.971128 224.586667 
L 468.059696 250.889697 
L 469.148264 248.061414 
L 470.236832 232.788687 
L 471.3254 214.970505 
L 472.413968 235.899798 
L 473.502536 248.061414 
L 474.591104 247.495758 
L 475.679672 250.32404 
L 476.76824 246.364444 
L 477.856808 231.091717 
L 478.945377 229.394747 
L 480.033945 219.778586 
L 481.122513 232.788687 
L 482.211081 248.344242 
L 483.299649 251.455354 
L 484.388217 248.344242 
L 485.476785 249.758384 
L 486.565353 239.293737 
L 487.653921 186.12202 
L 488.742489 228.263434 
L 489.831057 242.12202 
L 490.919625 240.425051 
L 492.008194 229.677576 
L 493.096762 229.677576 
L 494.18533 219.212929 
L 495.273898 195.455354 
L 496.362466 215.536162 
L 497.451034 246.081616 
L 498.539602 250.606869 
L 499.62817 223.172525 
L 500.716738 226.849293 
L 501.805306 210.445253 
L 502.893874 239.576566 
L 503.982442 235.334141 
L 505.071011 245.798788 
L 506.159579 248.061414 
L 507.248147 213.556364 
L 508.336715 237.879596 
L 509.425283 249.475556 
L 510.513851 222.041212 
L 511.602419 160.101818 
L 512.690987 239.859394 
L 513.779555 235.051313 
L 514.868123 226.566465 
L 515.956691 227.697778 
L 517.045259 242.404848 
L 518.133828 231.374545 
L 519.222396 238.162424 
L 520.310964 246.647273 
L 521.399532 245.51596 
L 522.4881 235.051313 
L 523.576668 248.909899 
L 524.665236 242.970505 
L 525.753804 228.263434 
L 527.93094 250.889697 
L 529.019508 250.041212 
L 530.108076 244.667475 
L 531.196645 230.526061 
L 532.285213 240.142222 
L 533.373781 246.930101 
L 534.462349 247.778586 
L 535.550917 247.778586 
L 536.639485 248.627071 
L 537.728053 238.728081 
L 538.816621 234.768485 
L 539.905189 243.536162 
L 542.082325 236.748283 
L 543.170893 250.041212 
L 544.259462 249.758384 
L 545.34803 233.637172 
L 546.436598 231.940202 
L 547.525166 245.233131 
L 549.702302 250.889697 
L 550.79087 248.344242 
L 551.879438 247.495758 
L 552.968006 244.101818 
L 554.056574 227.414949 
L 555.145142 237.596768 
L 556.23371 238.162424 
L 557.322279 225.435152 
L 558.410847 249.758384 
L 559.499415 228.546263 
L 560.587983 226.849293 
L 561.676551 236.465455 
L 562.765119 200.263434 
L 563.853687 239.293737 
L 564.942255 220.344242 
L 566.030823 247.212929 
L 567.119391 248.061414 
L 568.207959 228.829091 
L 569.296528 206.202828 
L 570.385096 242.12202 
L 571.473664 233.637172 
L 572.562232 236.465455 
L 573.6508 242.970505 
L 574.739368 232.22303 
L 575.827936 248.909899 
L 576.916504 242.404848 
L 578.005072 215.253333 
L 579.09364 235.051313 
L 580.182208 239.293737 
L 581.270776 242.12202 
L 582.359345 242.404848 
L 583.447913 246.647273 
L 584.536481 248.909899 
L 585.625049 245.51596 
L 586.713617 248.627071 
L 587.802185 250.889697 
L 588.890753 249.475556 
L 589.979321 249.192727 
L 591.067889 246.647273 
L 592.156457 215.81899 
L 594.333593 241.556364 
L 595.422162 242.687677 
L 596.51073 249.758384 
L 597.599298 250.889697 
L 598.687866 251.738182 
L 599.776434 243.253333 
L 600.865002 235.899798 
L 601.95357 240.707879 
L 603.042138 217.798788 
L 604.130706 246.647273 
L 605.219274 245.798788 
L 606.307842 250.889697 
L 607.39641 247.495758 
L 608.484979 238.728081 
L 609.573547 244.384646 
L 610.662115 241.556364 
L 611.750683 245.51596 
L 612.839251 250.606869 
L 613.927819 250.041212 
L 615.016387 251.172525 
L 616.104955 217.798788 
L 617.193523 218.364444 
L 618.282091 235.051313 
L 619.370659 247.495758 
L 620.459227 215.536162 
L 621.547796 246.647273 
L 622.636364 235.051313 
L 622.636364 235.051313 
" clip-path="url(#pb9cf1e9933)" style="fill: none; stroke: #1f77b4; stroke-width: 1.5; stroke-linecap: square"/>
   </g>
   <g id="line2d_27">
    <path d="M 115.363636 251.738182 
L 116.452204 249.475556 
L 117.540773 248.344242 
L 118.629341 249.475556 
L 119.717909 251.738182 
L 120.806477 250.041212 
L 121.895045 249.192727 
L 122.983613 249.192727 
L 124.072181 248.909899 
L 125.160749 249.475556 
L 126.249317 251.455354 
L 130.60359 249.192727 
L 131.692158 248.909899 
L 132.780726 250.041212 
L 134.957862 251.738182 
L 136.04643 248.909899 
L 137.134998 249.475556 
L 138.223566 250.606869 
L 139.312134 250.889697 
L 140.400702 250.606869 
L 141.48927 251.455354 
L 142.577838 251.172525 
L 143.666407 250.041212 
L 144.754975 251.172525 
L 145.843543 248.909899 
L 146.932111 249.758384 
L 148.020679 250.32404 
L 149.109247 251.172525 
L 150.197815 251.172525 
L 151.286383 247.495758 
L 152.374951 251.455354 
L 153.463519 251.455354 
L 154.552087 251.172525 
L 156.729224 251.738182 
L 157.817792 251.455354 
L 158.90636 249.475556 
L 159.994928 246.930101 
L 161.083496 248.627071 
L 162.172064 250.041212 
L 163.260632 250.041212 
L 164.3492 251.455354 
L 165.437768 250.32404 
L 166.526336 250.041212 
L 167.614904 250.889697 
L 168.703472 247.778586 
L 169.792041 249.475556 
L 170.880609 251.455354 
L 171.969177 251.738182 
L 173.057745 249.192727 
L 175.234881 249.192727 
L 176.323449 250.041212 
L 177.412017 250.32404 
L 178.500585 251.172525 
L 179.589153 251.455354 
L 180.677721 250.889697 
L 181.76629 250.606869 
L 182.854858 251.172525 
L 185.031994 251.172525 
L 186.120562 251.455354 
L 187.20913 250.889697 
L 189.386266 250.889697 
L 190.474834 251.738182 
L 191.563402 251.172525 
L 192.65197 251.172525 
L 193.740538 250.889697 
L 194.829107 249.758384 
L 195.917675 248.061414 
L 197.006243 250.041212 
L 198.094811 251.172525 
L 199.183379 250.889697 
L 200.271947 250.889697 
L 201.360515 251.172525 
L 202.449083 249.475556 
L 203.537651 248.627071 
L 204.626219 249.758384 
L 205.714787 246.930101 
L 206.803355 249.758384 
L 207.891924 250.32404 
L 208.980492 251.172525 
L 210.06906 250.606869 
L 211.157628 250.606869 
L 212.246196 248.344242 
L 213.334764 249.475556 
L 214.423332 249.192727 
L 215.5119 249.192727 
L 216.600468 250.32404 
L 217.689036 246.081616 
L 218.777604 247.778586 
L 219.866172 249.192727 
L 220.954741 247.495758 
L 222.043309 246.364444 
L 223.131877 250.889697 
L 224.220445 250.606869 
L 225.309013 248.627071 
L 226.397581 250.041212 
L 227.486149 248.061414 
L 228.574717 249.475556 
L 229.663285 249.475556 
L 230.751853 250.889697 
L 231.840421 251.172525 
L 232.928989 248.909899 
L 234.017558 248.061414 
L 235.106126 248.344242 
L 236.194694 250.889697 
L 237.283262 251.455354 
L 239.460398 250.889697 
L 240.548966 250.889697 
L 241.637534 249.475556 
L 242.726102 250.32404 
L 243.81467 248.909899 
L 244.903238 250.889697 
L 245.991806 250.32404 
L 247.080375 250.889697 
L 248.168943 249.192727 
L 249.257511 248.909899 
L 250.346079 248.909899 
L 251.434647 248.061414 
L 252.523215 250.32404 
L 253.611783 250.889697 
L 254.700351 250.889697 
L 255.788919 242.404848 
L 256.877487 248.909899 
L 257.966055 248.909899 
L 259.054623 247.495758 
L 260.143192 249.192727 
L 261.23176 250.606869 
L 262.320328 250.606869 
L 263.408896 246.364444 
L 264.497464 246.647273 
L 265.586032 248.344242 
L 266.6746 246.647273 
L 267.763168 247.495758 
L 268.851736 250.041212 
L 269.940304 250.889697 
L 271.028872 247.495758 
L 272.11744 246.081616 
L 273.206009 247.212929 
L 274.294577 247.495758 
L 275.383145 249.475556 
L 276.471713 251.172525 
L 277.560281 250.041212 
L 278.648849 247.778586 
L 279.737417 247.778586 
L 280.825985 248.627071 
L 281.914553 250.606869 
L 284.091689 251.172525 
L 285.180258 250.041212 
L 286.268826 246.364444 
L 287.357394 247.212929 
L 288.445962 248.627071 
L 289.53453 246.930101 
L 290.623098 249.758384 
L 291.711666 251.172525 
L 293.888802 249.475556 
L 294.97737 248.344242 
L 296.065938 248.627071 
L 297.154506 247.495758 
L 298.243075 249.192727 
L 299.331643 249.475556 
L 300.420211 250.889697 
L 301.508779 245.51596 
L 302.597347 248.061414 
L 303.685915 248.909899 
L 304.774483 249.192727 
L 305.863051 249.192727 
L 306.951619 250.889697 
L 308.040187 250.32404 
L 309.128755 245.798788 
L 310.217323 244.384646 
L 311.305892 246.930101 
L 312.39446 248.909899 
L 313.483028 250.32404 
L 314.571596 249.192727 
L 315.660164 250.32404 
L 316.748732 246.364444 
L 317.8373 246.647273 
L 318.925868 229.111919 
L 320.014436 248.061414 
L 321.103004 246.647273 
L 322.191572 250.606869 
L 323.28014 251.738182 
L 324.368709 249.758384 
L 325.457277 248.344242 
L 326.545845 248.344242 
L 327.634413 248.627071 
L 328.722981 247.778586 
L 330.900117 251.172525 
L 331.988685 249.192727 
L 333.077253 248.344242 
L 334.165821 246.930101 
L 335.254389 247.212929 
L 336.342957 245.798788 
L 337.431526 250.606869 
L 338.520094 251.738182 
L 339.608662 245.798788 
L 340.69723 247.212929 
L 341.785798 249.475556 
L 342.874366 247.495758 
L 343.962934 248.344242 
L 345.051502 251.455354 
L 346.14007 250.32404 
L 347.228638 248.344242 
L 348.317206 249.475556 
L 349.405774 248.061414 
L 350.494343 246.364444 
L 352.671479 250.889697 
L 353.760047 251.172525 
L 354.848615 249.192727 
L 355.937183 247.778586 
L 357.025751 250.041212 
L 358.114319 249.475556 
L 359.202887 249.475556 
L 361.380023 250.041212 
L 362.468591 246.930101 
L 363.55716 248.909899 
L 364.645728 248.909899 
L 365.734296 250.041212 
L 366.822864 249.192727 
L 367.911432 251.172525 
L 369 250.32404 
L 370.088568 248.344242 
L 371.177136 249.192727 
L 372.265704 248.909899 
L 373.354272 248.344242 
L 374.44284 249.192727 
L 375.531409 251.172525 
L 376.619977 250.889697 
L 377.708545 247.495758 
L 378.797113 250.606869 
L 379.885681 249.758384 
L 380.974249 249.192727 
L 382.062817 245.798788 
L 383.151385 251.172525 
L 384.239953 250.606869 
L 385.328521 249.758384 
L 386.417089 250.32404 
L 387.505657 248.909899 
L 388.594226 248.061414 
L 389.682794 249.192727 
L 390.771362 250.889697 
L 391.85993 250.889697 
L 392.948498 249.475556 
L 394.037066 247.212929 
L 395.125634 247.212929 
L 396.214202 250.32404 
L 397.30277 248.627071 
L 398.391338 250.606869 
L 399.479906 249.475556 
L 400.568474 247.778586 
L 401.657043 248.627071 
L 402.745611 248.627071 
L 403.834179 247.778586 
L 404.922747 248.061414 
L 406.011315 251.172525 
L 407.099883 251.738182 
L 408.188451 250.041212 
L 409.277019 250.041212 
L 410.365587 250.32404 
L 411.454155 250.32404 
L 412.542723 250.606869 
L 414.71986 251.738182 
L 415.808428 250.32404 
L 416.896996 249.475556 
L 417.985564 249.758384 
L 419.074132 248.627071 
L 420.1627 251.172525 
L 421.251268 250.32404 
L 422.339836 251.738182 
L 423.428404 250.32404 
L 424.516972 250.32404 
L 425.60554 248.344242 
L 426.694108 247.778586 
L 427.782677 249.475556 
L 428.871245 250.606869 
L 429.959813 250.606869 
L 431.048381 248.627071 
L 432.136949 249.475556 
L 433.225517 249.758384 
L 434.314085 249.758384 
L 435.402653 248.909899 
L 436.491221 249.192727 
L 437.579789 250.606869 
L 438.668357 248.344242 
L 439.756925 251.455354 
L 440.845494 249.758384 
L 441.934062 249.758384 
L 443.02263 251.172525 
L 444.111198 250.889697 
L 445.199766 250.041212 
L 446.288334 250.041212 
L 447.376902 249.192727 
L 448.46547 249.475556 
L 449.554038 251.172525 
L 450.642606 250.889697 
L 451.731174 251.455354 
L 452.819742 250.32404 
L 453.908311 250.606869 
L 454.996879 250.041212 
L 456.085447 248.627071 
L 457.174015 249.192727 
L 458.262583 250.32404 
L 459.351151 250.889697 
L 460.439719 250.32404 
L 461.528287 251.455354 
L 462.616855 250.889697 
L 463.705423 249.192727 
L 464.793991 250.041212 
L 465.88256 251.172525 
L 466.971128 248.344242 
L 468.059696 251.455354 
L 469.148264 251.172525 
L 470.236832 248.061414 
L 472.413968 249.192727 
L 473.502536 250.32404 
L 474.591104 249.758384 
L 475.679672 251.172525 
L 476.76824 250.606869 
L 477.856808 247.778586 
L 478.945377 249.758384 
L 480.033945 249.192727 
L 481.122513 249.758384 
L 482.211081 249.758384 
L 483.299649 251.455354 
L 484.388217 251.455354 
L 485.476785 250.889697 
L 486.565353 248.344242 
L 488.742489 248.344242 
L 489.831057 249.758384 
L 490.919625 249.758384 
L 492.008194 248.909899 
L 493.096762 248.627071 
L 494.18533 247.212929 
L 495.273898 249.475556 
L 496.362466 247.495758 
L 497.451034 250.041212 
L 498.539602 251.172525 
L 499.62817 250.32404 
L 500.716738 249.758384 
L 501.805306 248.061414 
L 502.893874 248.344242 
L 503.982442 249.192727 
L 505.071011 249.758384 
L 506.159579 250.041212 
L 507.248147 247.495758 
L 508.336715 248.344242 
L 509.425283 250.606869 
L 510.513851 249.475556 
L 512.690987 248.909899 
L 513.779555 249.475556 
L 514.868123 247.495758 
L 515.956691 250.041212 
L 517.045259 250.32404 
L 518.133828 248.344242 
L 519.222396 248.909899 
L 520.310964 250.889697 
L 521.399532 250.32404 
L 522.4881 249.475556 
L 523.576668 250.889697 
L 524.665236 249.192727 
L 525.753804 248.627071 
L 526.842372 248.909899 
L 527.93094 251.172525 
L 529.019508 251.172525 
L 530.108076 249.192727 
L 531.196645 250.32404 
L 532.285213 247.778586 
L 534.462349 250.041212 
L 535.550917 250.606869 
L 536.639485 250.041212 
L 537.728053 248.909899 
L 538.816621 247.212929 
L 539.905189 248.344242 
L 540.993757 247.778586 
L 542.082325 248.909899 
L 543.170893 250.606869 
L 544.259462 250.889697 
L 545.34803 249.192727 
L 546.436598 250.606869 
L 547.525166 249.758384 
L 548.613734 250.041212 
L 549.702302 251.455354 
L 550.79087 250.889697 
L 551.879438 250.889697 
L 552.968006 251.455354 
L 554.056574 249.475556 
L 555.145142 250.32404 
L 556.23371 248.909899 
L 557.322279 250.606869 
L 558.410847 251.172525 
L 560.587983 248.909899 
L 561.676551 249.475556 
L 562.765119 249.475556 
L 563.853687 246.647273 
L 564.942255 246.364444 
L 566.030823 250.32404 
L 567.119391 250.32404 
L 568.207959 248.627071 
L 569.296528 248.627071 
L 570.385096 250.32404 
L 572.562232 249.192727 
L 573.6508 250.32404 
L 574.739368 250.606869 
L 575.827936 250.606869 
L 576.916504 249.475556 
L 578.005072 248.061414 
L 579.09364 249.758384 
L 580.182208 250.606869 
L 581.270776 250.889697 
L 582.359345 249.475556 
L 583.447913 251.738182 
L 584.536481 251.455354 
L 585.625049 250.889697 
L 586.713617 250.889697 
L 587.802185 251.172525 
L 588.890753 250.606869 
L 589.979321 251.172525 
L 591.067889 250.32404 
L 592.156457 244.384646 
L 593.245025 247.212929 
L 594.333593 249.192727 
L 597.599298 250.889697 
L 598.687866 251.738182 
L 599.776434 249.475556 
L 600.865002 249.475556 
L 601.95357 248.909899 
L 603.042138 245.798788 
L 604.130706 250.606869 
L 605.219274 251.738182 
L 606.307842 251.455354 
L 607.39641 250.606869 
L 608.484979 248.061414 
L 609.573547 250.889697 
L 610.662115 250.041212 
L 611.750683 248.344242 
L 612.839251 251.172525 
L 613.927819 251.172525 
L 615.016387 251.455354 
L 616.104955 250.041212 
L 617.193523 247.778586 
L 618.282091 248.627071 
L 619.370659 249.758384 
L 620.459227 249.192727 
L 621.547796 250.889697 
L 622.636364 250.606869 
L 622.636364 250.606869 
" clip-path="url(#pb9cf1e9933)" style="fill: none; stroke: #ff7f0e; stroke-width: 1.5; stroke-linecap: square"/>
   </g>
   <g id="patch_9">
    <path d="M 90 256.32 
L 90 155.52 
" style="fill: none; stroke: #000000; stroke-width: 0.8; stroke-linejoin: miter; stroke-linecap: square"/>
   </g>
   <g id="patch_10">
    <path d="M 648 256.32 
L 648 155.52 
" style="fill: none; stroke: #000000; stroke-width: 0.8; stroke-linejoin: miter; stroke-linecap: square"/>
   </g>
   <g id="patch_11">
    <path d="M 90 256.32 
L 648 256.32 
" style="fill: none; stroke: #000000; stroke-width: 0.8; stroke-linejoin: miter; stroke-linecap: square"/>
   </g>
   <g id="patch_12">
    <path d="M 90 155.52 
L 648 155.52 
" style="fill: none; stroke: #000000; stroke-width: 0.8; stroke-linejoin: miter; stroke-linecap: square"/>
   </g>
   <g id="legend_2">
    <g id="patch_13">
     <path d="M 97 192.87625 
L 234.217188 192.87625 
Q 236.217188 192.87625 236.217188 190.87625 
L 236.217188 162.52 
Q 236.217188 160.52 234.217188 160.52 
L 97 160.52 
Q 95 160.52 95 162.52 
L 95 190.87625 
Q 95 192.87625 97 192.87625 
z
" style="fill: #ffffff; opacity: 0.8; stroke: #cccccc; stroke-linejoin: miter"/>
    </g>
    <g id="line2d_28">
     <path d="M 99 168.618437 
L 109 168.618437 
L 119 168.618437 
" style="fill: none; stroke: #1f77b4; stroke-width: 1.5; stroke-linecap: square"/>
    </g>
    <g id="text_26">
     <!-- Total GitHub Views -->
     <g transform="translate(127 172.118437)scale(0.1 -0.1)">
      <defs>
       <path id="DejaVuSans-56" d="M 1831 0 
L 50 4666 
L 709 4666 
L 2188 738 
L 3669 4666 
L 4325 4666 
L 2547 0 
L 1831 0 
z
" transform="scale(0.015625)"/>
       <path id="DejaVuSans-77" d="M 269 3500 
L 844 3500 
L 1563 769 
L 2278 3500 
L 2956 3500 
L 3675 769 
L 4391 3500 
L 4966 3500 
L 4050 0 
L 3372 0 
L 2619 2869 
L 1863 0 
L 1184 0 
L 269 3500 
z
" transform="scale(0.015625)"/>
      </defs>
      <use xlink:href="#DejaVuSans-54"/>
      <use xlink:href="#DejaVuSans-6f" x="44.083984"/>
      <use xlink:href="#DejaVuSans-74" x="105.265625"/>
      <use xlink:href="#DejaVuSans-61" x="144.474609"/>
      <use xlink:href="#DejaVuSans-6c" x="205.753906"/>
      <use xlink:href="#DejaVuSans-20" x="233.537109"/>
      <use xlink:href="#DejaVuSans-47" x="265.324219"/>
      <use xlink:href="#DejaVuSans-69" x="342.814453"/>
      <use xlink:href="#DejaVuSans-74" x="370.597656"/>
      <use xlink:href="#DejaVuSans-48" x="409.806641"/>
      <use xlink:href="#DejaVuSans-75" x="485.001953"/>
      <use xlink:href="#DejaVuSans-62" x="548.380859"/>
      <use xlink:href="#DejaVuSans-20" x="611.857422"/>
      <use xlink:href="#DejaVuSans-56" x="643.644531"/>
      <use xlink:href="#DejaVuSans-69" x="709.802734"/>
      <use xlink:href="#DejaVuSans-65" x="737.585938"/>
      <use xlink:href="#DejaVuSans-77" x="799.109375"/>
      <use xlink:href="#DejaVuSans-73" x="880.896484"/>
     </g>
    </g>
    <g id="line2d_29">
     <path d="M 99 183.296562 
L 109 183.296562 
L 119 183.296562 
" style="fill: none; stroke: #ff7f0e; stroke-width: 1.5; stroke-linecap: square"/>
    </g>
    <g id="text_27">
     <!-- Unique GitHub Views -->
     <g transform="translate(127 186.796562)scale(0.1 -0.1)">
      <use xlink:href="#DejaVuSans-55"/>
      <use xlink:href="#DejaVuSans-6e" x="73.193359"/>
      <use xlink:href="#DejaVuSans-69" x="136.572266"/>
      <use xlink:href="#DejaVuSans-71" x="164.355469"/>
      <use xlink:href="#DejaVuSans-75" x="227.832031"/>
      <use xlink:href="#DejaVuSans-65" x="291.210938"/>
      <use xlink:href="#DejaVuSans-20" x="352.734375"/>
      <use xlink:href="#DejaVuSans-47" x="384.521484"/>
      <use xlink:href="#DejaVuSans-69" x="462.011719"/>
      <use xlink:href="#DejaVuSans-74" x="489.794922"/>
      <use xlink:href="#DejaVuSans-48" x="529.003906"/>
      <use xlink:href="#DejaVuSans-75" x="604.199219"/>
      <use xlink:href="#DejaVuSans-62" x="667.578125"/>
      <use xlink:href="#DejaVuSans-20" x="731.054688"/>
      <use xlink:href="#DejaVuSans-56" x="762.841797"/>
      <use xlink:href="#DejaVuSans-69" x="829"/>
      <use xlink:href="#DejaVuSans-65" x="856.783203"/>
      <use xlink:href="#DejaVuSans-77" x="918.306641"/>
      <use xlink:href="#DejaVuSans-73" x="1000.09375"/>
     </g>
    </g>
   </g>
  </g>
 </g>
 <defs>
  <clipPath id="pf3bef46356">
   <rect x="90" y="34.56" width="558" height="100.8"/>
  </clipPath>
  <clipPath id="pb9cf1e9933">
   <rect x="90" y="155.52" width="558" height="100.8"/>
  </clipPath>
 </defs>
</svg>
