<?xml version="1.0" encoding="utf-8" standalone="no"?>
<!DOCTYPE svg PUBLIC "-//W3C//DTD SVG 1.1//EN"
  "http://www.w3.org/Graphics/SVG/1.1/DTD/svg11.dtd">
<svg xmlns:xlink="http://www.w3.org/1999/xlink" width="720pt" height="288pt" viewBox="0 0 720 288" xmlns="http://www.w3.org/2000/svg" version="1.1">
 <metadata>
  <rdf:RDF xmlns:dc="http://purl.org/dc/elements/1.1/" xmlns:cc="http://creativecommons.org/ns#" xmlns:rdf="http://www.w3.org/1999/02/22-rdf-syntax-ns#">
   <cc:Work>
    <dc:type rdf:resource="http://purl.org/dc/dcmitype/StillImage"/>
    <dc:date>2022-02-14T00:30:57.123130</dc:date>
    <dc:format>image/svg+xml</dc:format>
    <dc:creator>
     <cc:Agent>
      <dc:title>Matplotlib v3.5.1, https://matplotlib.org/</dc:title>
     </cc:Agent>
    </dc:creator>
   </cc:Work>
  </rdf:RDF>
 </metadata>
 <defs>
  <style type="text/css">*{stroke-linejoin: round; stroke-linecap: butt}</style>
 </defs>
 <g id="figure_1">
  <g id="patch_1">
   <path d="M 0 288 
L 720 288 
L 720 0 
L 0 0 
z
" style="fill: #ffffff"/>
  </g>
  <g id="axes_1">
   <g id="patch_2">
    <path d="M 90 135.36 
L 648 135.36 
L 648 34.56 
L 90 34.56 
z
" style="fill: #ffffff"/>
   </g>
   <g id="matplotlib.axis_1">
    <g id="xtick_1">
     <g id="line2d_1">
      <defs>
       <path id="m3b69243080" d="M 0 0 
L 0 3.5 
" style="stroke: #000000; stroke-width: 0.8"/>
      </defs>
      <g>
       <use xlink:href="#m3b69243080" x="115.363636" y="135.36" style="stroke: #000000; stroke-width: 0.8"/>
      </g>
     </g>
     <g id="text_1">
      <!-- 2020-10-22 -->
      <g transform="translate(86.305824 149.958437)scale(0.1 -0.1)">
       <defs>
        <path id="DejaVuSans-32" d="M 1228 531 
L 3431 531 
L 3431 0 
L 469 0 
L 469 531 
Q 828 903 1448 1529 
Q 2069 2156 2228 2338 
Q 2531 2678 2651 2914 
Q 2772 3150 2772 3378 
Q 2772 3750 2511 3984 
Q 2250 4219 1831 4219 
Q 1534 4219 1204 4116 
Q 875 4013 500 3803 
L 500 4441 
Q 881 4594 1212 4672 
Q 1544 4750 1819 4750 
Q 2544 4750 2975 4387 
Q 3406 4025 3406 3419 
Q 3406 3131 3298 2873 
Q 3191 2616 2906 2266 
Q 2828 2175 2409 1742 
Q 1991 1309 1228 531 
z
" transform="scale(0.015625)"/>
        <path id="DejaVuSans-30" d="M 2034 4250 
Q 1547 4250 1301 3770 
Q 1056 3291 1056 2328 
Q 1056 1369 1301 889 
Q 1547 409 2034 409 
Q 2525 409 2770 889 
Q 3016 1369 3016 2328 
Q 3016 3291 2770 3770 
Q 2525 4250 2034 4250 
z
M 2034 4750 
Q 2819 4750 3233 4129 
Q 3647 3509 3647 2328 
Q 3647 1150 3233 529 
Q 2819 -91 2034 -91 
Q 1250 -91 836 529 
Q 422 1150 422 2328 
Q 422 3509 836 4129 
Q 1250 4750 2034 4750 
z
" transform="scale(0.015625)"/>
        <path id="DejaVuSans-2d" d="M 313 2009 
L 1997 2009 
L 1997 1497 
L 313 1497 
L 313 2009 
z
" transform="scale(0.015625)"/>
        <path id="DejaVuSans-31" d="M 794 531 
L 1825 531 
L 1825 4091 
L 703 3866 
L 703 4441 
L 1819 4666 
L 2450 4666 
L 2450 531 
L 3481 531 
L 3481 0 
L 794 0 
L 794 531 
z
" transform="scale(0.015625)"/>
       </defs>
       <use xlink:href="#DejaVuSans-32"/>
       <use xlink:href="#DejaVuSans-30" x="63.623047"/>
       <use xlink:href="#DejaVuSans-32" x="127.246094"/>
       <use xlink:href="#DejaVuSans-30" x="190.869141"/>
       <use xlink:href="#DejaVuSans-2d" x="254.492188"/>
       <use xlink:href="#DejaVuSans-31" x="290.576172"/>
       <use xlink:href="#DejaVuSans-30" x="354.199219"/>
       <use xlink:href="#DejaVuSans-2d" x="417.822266"/>
       <use xlink:href="#DejaVuSans-32" x="453.90625"/>
       <use xlink:href="#DejaVuSans-32" x="517.529297"/>
      </g>
     </g>
    </g>
    <g id="xtick_2">
     <g id="line2d_2">
      <g>
       <use xlink:href="#m3b69243080" x="182.463203" y="135.36" style="stroke: #000000; stroke-width: 0.8"/>
      </g>
     </g>
     <g id="text_2">
      <!-- 2021-01-05 -->
      <g transform="translate(153.405391 149.958437)scale(0.1 -0.1)">
       <defs>
        <path id="DejaVuSans-35" d="M 691 4666 
L 3169 4666 
L 3169 4134 
L 1269 4134 
L 1269 2991 
Q 1406 3038 1543 3061 
Q 1681 3084 1819 3084 
Q 2600 3084 3056 2656 
Q 3513 2228 3513 1497 
Q 3513 744 3044 326 
Q 2575 -91 1722 -91 
Q 1428 -91 1123 -41 
Q 819 9 494 109 
L 494 744 
Q 775 591 1075 516 
Q 1375 441 1709 441 
Q 2250 441 2565 725 
Q 2881 1009 2881 1497 
Q 2881 1984 2565 2268 
Q 2250 2553 1709 2553 
Q 1456 2553 1204 2497 
Q 953 2441 691 2322 
L 691 4666 
z
" transform="scale(0.015625)"/>
       </defs>
       <use xlink:href="#DejaVuSans-32"/>
       <use xlink:href="#DejaVuSans-30" x="63.623047"/>
       <use xlink:href="#DejaVuSans-32" x="127.246094"/>
       <use xlink:href="#DejaVuSans-31" x="190.869141"/>
       <use xlink:href="#DejaVuSans-2d" x="254.492188"/>
       <use xlink:href="#DejaVuSans-30" x="290.576172"/>
       <use xlink:href="#DejaVuSans-31" x="354.199219"/>
       <use xlink:href="#DejaVuSans-2d" x="417.822266"/>
       <use xlink:href="#DejaVuSans-30" x="453.90625"/>
       <use xlink:href="#DejaVuSans-35" x="517.529297"/>
      </g>
     </g>
    </g>
    <g id="xtick_3">
     <g id="line2d_3">
      <g>
       <use xlink:href="#m3b69243080" x="249.562771" y="135.36" style="stroke: #000000; stroke-width: 0.8"/>
      </g>
     </g>
     <g id="text_3">
      <!-- 2021-03-17 -->
      <g transform="translate(220.504958 149.958437)scale(0.1 -0.1)">
       <defs>
        <path id="DejaVuSans-33" d="M 2597 2516 
Q 3050 2419 3304 2112 
Q 3559 1806 3559 1356 
Q 3559 666 3084 287 
Q 2609 -91 1734 -91 
Q 1441 -91 1130 -33 
Q 819 25 488 141 
L 488 750 
Q 750 597 1062 519 
Q 1375 441 1716 441 
Q 2309 441 2620 675 
Q 2931 909 2931 1356 
Q 2931 1769 2642 2001 
Q 2353 2234 1838 2234 
L 1294 2234 
L 1294 2753 
L 1863 2753 
Q 2328 2753 2575 2939 
Q 2822 3125 2822 3475 
Q 2822 3834 2567 4026 
Q 2313 4219 1838 4219 
Q 1578 4219 1281 4162 
Q 984 4106 628 3988 
L 628 4550 
Q 988 4650 1302 4700 
Q 1616 4750 1894 4750 
Q 2613 4750 3031 4423 
Q 3450 4097 3450 3541 
Q 3450 3153 3228 2886 
Q 3006 2619 2597 2516 
z
" transform="scale(0.015625)"/>
        <path id="DejaVuSans-37" d="M 525 4666 
L 3525 4666 
L 3525 4397 
L 1831 0 
L 1172 0 
L 2766 4134 
L 525 4134 
L 525 4666 
z
" transform="scale(0.015625)"/>
       </defs>
       <use xlink:href="#DejaVuSans-32"/>
       <use xlink:href="#DejaVuSans-30" x="63.623047"/>
       <use xlink:href="#DejaVuSans-32" x="127.246094"/>
       <use xlink:href="#DejaVuSans-31" x="190.869141"/>
       <use xlink:href="#DejaVuSans-2d" x="254.492188"/>
       <use xlink:href="#DejaVuSans-30" x="290.576172"/>
       <use xlink:href="#DejaVuSans-33" x="354.199219"/>
       <use xlink:href="#DejaVuSans-2d" x="417.822266"/>
       <use xlink:href="#DejaVuSans-31" x="453.90625"/>
       <use xlink:href="#DejaVuSans-37" x="517.529297"/>
      </g>
     </g>
    </g>
    <g id="xtick_4">
     <g id="line2d_4">
      <g>
       <use xlink:href="#m3b69243080" x="316.662338" y="135.36" style="stroke: #000000; stroke-width: 0.8"/>
      </g>
     </g>
     <g id="text_4">
      <!-- 2021-05-10 -->
      <g transform="translate(287.604525 149.958437)scale(0.1 -0.1)">
       <use xlink:href="#DejaVuSans-32"/>
       <use xlink:href="#DejaVuSans-30" x="63.623047"/>
       <use xlink:href="#DejaVuSans-32" x="127.246094"/>
       <use xlink:href="#DejaVuSans-31" x="190.869141"/>
       <use xlink:href="#DejaVuSans-2d" x="254.492188"/>
       <use xlink:href="#DejaVuSans-30" x="290.576172"/>
       <use xlink:href="#DejaVuSans-35" x="354.199219"/>
       <use xlink:href="#DejaVuSans-2d" x="417.822266"/>
       <use xlink:href="#DejaVuSans-31" x="453.90625"/>
       <use xlink:href="#DejaVuSans-30" x="517.529297"/>
      </g>
     </g>
    </g>
    <g id="xtick_5">
     <g id="line2d_5">
      <g>
       <use xlink:href="#m3b69243080" x="383.761905" y="135.36" style="stroke: #000000; stroke-width: 0.8"/>
      </g>
     </g>
     <g id="text_5">
      <!-- 2021-07-07 -->
      <g transform="translate(354.704092 149.958437)scale(0.1 -0.1)">
       <use xlink:href="#DejaVuSans-32"/>
       <use xlink:href="#DejaVuSans-30" x="63.623047"/>
       <use xlink:href="#DejaVuSans-32" x="127.246094"/>
       <use xlink:href="#DejaVuSans-31" x="190.869141"/>
       <use xlink:href="#DejaVuSans-2d" x="254.492188"/>
       <use xlink:href="#DejaVuSans-30" x="290.576172"/>
       <use xlink:href="#DejaVuSans-37" x="354.199219"/>
       <use xlink:href="#DejaVuSans-2d" x="417.822266"/>
       <use xlink:href="#DejaVuSans-30" x="453.90625"/>
       <use xlink:href="#DejaVuSans-37" x="517.529297"/>
      </g>
     </g>
    </g>
    <g id="xtick_6">
     <g id="line2d_6">
      <g>
       <use xlink:href="#m3b69243080" x="450.861472" y="135.36" style="stroke: #000000; stroke-width: 0.8"/>
      </g>
     </g>
     <g id="text_6">
      <!-- 2021-09-13 -->
      <g transform="translate(421.803659 149.958437)scale(0.1 -0.1)">
       <defs>
        <path id="DejaVuSans-39" d="M 703 97 
L 703 672 
Q 941 559 1184 500 
Q 1428 441 1663 441 
Q 2288 441 2617 861 
Q 2947 1281 2994 2138 
Q 2813 1869 2534 1725 
Q 2256 1581 1919 1581 
Q 1219 1581 811 2004 
Q 403 2428 403 3163 
Q 403 3881 828 4315 
Q 1253 4750 1959 4750 
Q 2769 4750 3195 4129 
Q 3622 3509 3622 2328 
Q 3622 1225 3098 567 
Q 2575 -91 1691 -91 
Q 1453 -91 1209 -44 
Q 966 3 703 97 
z
M 1959 2075 
Q 2384 2075 2632 2365 
Q 2881 2656 2881 3163 
Q 2881 3666 2632 3958 
Q 2384 4250 1959 4250 
Q 1534 4250 1286 3958 
Q 1038 3666 1038 3163 
Q 1038 2656 1286 2365 
Q 1534 2075 1959 2075 
z
" transform="scale(0.015625)"/>
       </defs>
       <use xlink:href="#DejaVuSans-32"/>
       <use xlink:href="#DejaVuSans-30" x="63.623047"/>
       <use xlink:href="#DejaVuSans-32" x="127.246094"/>
       <use xlink:href="#DejaVuSans-31" x="190.869141"/>
       <use xlink:href="#DejaVuSans-2d" x="254.492188"/>
       <use xlink:href="#DejaVuSans-30" x="290.576172"/>
       <use xlink:href="#DejaVuSans-39" x="354.199219"/>
       <use xlink:href="#DejaVuSans-2d" x="417.822266"/>
       <use xlink:href="#DejaVuSans-31" x="453.90625"/>
       <use xlink:href="#DejaVuSans-33" x="517.529297"/>
      </g>
     </g>
    </g>
    <g id="xtick_7">
     <g id="line2d_7">
      <g>
       <use xlink:href="#m3b69243080" x="517.961039" y="135.36" style="stroke: #000000; stroke-width: 0.8"/>
      </g>
     </g>
     <g id="text_7">
      <!-- 2021-11-16 -->
      <g transform="translate(488.903226 149.958437)scale(0.1 -0.1)">
       <defs>
        <path id="DejaVuSans-36" d="M 2113 2584 
Q 1688 2584 1439 2293 
Q 1191 2003 1191 1497 
Q 1191 994 1439 701 
Q 1688 409 2113 409 
Q 2538 409 2786 701 
Q 3034 994 3034 1497 
Q 3034 2003 2786 2293 
Q 2538 2584 2113 2584 
z
M 3366 4563 
L 3366 3988 
Q 3128 4100 2886 4159 
Q 2644 4219 2406 4219 
Q 1781 4219 1451 3797 
Q 1122 3375 1075 2522 
Q 1259 2794 1537 2939 
Q 1816 3084 2150 3084 
Q 2853 3084 3261 2657 
Q 3669 2231 3669 1497 
Q 3669 778 3244 343 
Q 2819 -91 2113 -91 
Q 1303 -91 875 529 
Q 447 1150 447 2328 
Q 447 3434 972 4092 
Q 1497 4750 2381 4750 
Q 2619 4750 2861 4703 
Q 3103 4656 3366 4563 
z
" transform="scale(0.015625)"/>
       </defs>
       <use xlink:href="#DejaVuSans-32"/>
       <use xlink:href="#DejaVuSans-30" x="63.623047"/>
       <use xlink:href="#DejaVuSans-32" x="127.246094"/>
       <use xlink:href="#DejaVuSans-31" x="190.869141"/>
       <use xlink:href="#DejaVuSans-2d" x="254.492188"/>
       <use xlink:href="#DejaVuSans-31" x="290.576172"/>
       <use xlink:href="#DejaVuSans-31" x="354.199219"/>
       <use xlink:href="#DejaVuSans-2d" x="417.822266"/>
       <use xlink:href="#DejaVuSans-31" x="453.90625"/>
       <use xlink:href="#DejaVuSans-36" x="517.529297"/>
      </g>
     </g>
    </g>
    <g id="xtick_8">
     <g id="line2d_8">
      <g>
       <use xlink:href="#m3b69243080" x="585.060606" y="135.36" style="stroke: #000000; stroke-width: 0.8"/>
      </g>
     </g>
     <g id="text_8">
      <!-- 2022-01-15 -->
      <g transform="translate(556.002794 149.958437)scale(0.1 -0.1)">
       <use xlink:href="#DejaVuSans-32"/>
       <use xlink:href="#DejaVuSans-30" x="63.623047"/>
       <use xlink:href="#DejaVuSans-32" x="127.246094"/>
       <use xlink:href="#DejaVuSans-32" x="190.869141"/>
       <use xlink:href="#DejaVuSans-2d" x="254.492188"/>
       <use xlink:href="#DejaVuSans-30" x="290.576172"/>
       <use xlink:href="#DejaVuSans-31" x="354.199219"/>
       <use xlink:href="#DejaVuSans-2d" x="417.822266"/>
       <use xlink:href="#DejaVuSans-31" x="453.90625"/>
       <use xlink:href="#DejaVuSans-35" x="517.529297"/>
      </g>
     </g>
    </g>
    <g id="text_9">
     <!-- _date -->
     <g transform="translate(355.225 163.636562)scale(0.1 -0.1)">
      <defs>
       <path id="DejaVuSans-5f" d="M 3263 -1063 
L 3263 -1509 
L -63 -1509 
L -63 -1063 
L 3263 -1063 
z
" transform="scale(0.015625)"/>
       <path id="DejaVuSans-64" d="M 2906 2969 
L 2906 4863 
L 3481 4863 
L 3481 0 
L 2906 0 
L 2906 525 
Q 2725 213 2448 61 
Q 2172 -91 1784 -91 
Q 1150 -91 751 415 
Q 353 922 353 1747 
Q 353 2572 751 3078 
Q 1150 3584 1784 3584 
Q 2172 3584 2448 3432 
Q 2725 3281 2906 2969 
z
M 947 1747 
Q 947 1113 1208 752 
Q 1469 391 1925 391 
Q 2381 391 2643 752 
Q 2906 1113 2906 1747 
Q 2906 2381 2643 2742 
Q 2381 3103 1925 3103 
Q 1469 3103 1208 2742 
Q 947 2381 947 1747 
z
" transform="scale(0.015625)"/>
       <path id="DejaVuSans-61" d="M 2194 1759 
Q 1497 1759 1228 1600 
Q 959 1441 959 1056 
Q 959 750 1161 570 
Q 1363 391 1709 391 
Q 2188 391 2477 730 
Q 2766 1069 2766 1631 
L 2766 1759 
L 2194 1759 
z
M 3341 1997 
L 3341 0 
L 2766 0 
L 2766 531 
Q 2569 213 2275 61 
Q 1981 -91 1556 -91 
Q 1019 -91 701 211 
Q 384 513 384 1019 
Q 384 1609 779 1909 
Q 1175 2209 1959 2209 
L 2766 2209 
L 2766 2266 
Q 2766 2663 2505 2880 
Q 2244 3097 1772 3097 
Q 1472 3097 1187 3025 
Q 903 2953 641 2809 
L 641 3341 
Q 956 3463 1253 3523 
Q 1550 3584 1831 3584 
Q 2591 3584 2966 3190 
Q 3341 2797 3341 1997 
z
" transform="scale(0.015625)"/>
       <path id="DejaVuSans-74" d="M 1172 4494 
L 1172 3500 
L 2356 3500 
L 2356 3053 
L 1172 3053 
L 1172 1153 
Q 1172 725 1289 603 
Q 1406 481 1766 481 
L 2356 481 
L 2356 0 
L 1766 0 
Q 1100 0 847 248 
Q 594 497 594 1153 
L 594 3053 
L 172 3053 
L 172 3500 
L 594 3500 
L 594 4494 
L 1172 4494 
z
" transform="scale(0.015625)"/>
       <path id="DejaVuSans-65" d="M 3597 1894 
L 3597 1613 
L 953 1613 
Q 991 1019 1311 708 
Q 1631 397 2203 397 
Q 2534 397 2845 478 
Q 3156 559 3463 722 
L 3463 178 
Q 3153 47 2828 -22 
Q 2503 -91 2169 -91 
Q 1331 -91 842 396 
Q 353 884 353 1716 
Q 353 2575 817 3079 
Q 1281 3584 2069 3584 
Q 2775 3584 3186 3129 
Q 3597 2675 3597 1894 
z
M 3022 2063 
Q 3016 2534 2758 2815 
Q 2500 3097 2075 3097 
Q 1594 3097 1305 2825 
Q 1016 2553 972 2059 
L 3022 2063 
z
" transform="scale(0.015625)"/>
      </defs>
      <use xlink:href="#DejaVuSans-5f"/>
      <use xlink:href="#DejaVuSans-64" x="50"/>
      <use xlink:href="#DejaVuSans-61" x="113.476562"/>
      <use xlink:href="#DejaVuSans-74" x="174.755859"/>
      <use xlink:href="#DejaVuSans-65" x="213.964844"/>
     </g>
    </g>
   </g>
   <g id="matplotlib.axis_2">
    <g id="ytick_1">
     <g id="line2d_9">
      <defs>
       <path id="mcf8817d1e4" d="M 0 0 
L -3.5 0 
" style="stroke: #000000; stroke-width: 0.8"/>
      </defs>
      <g>
       <use xlink:href="#mcf8817d1e4" x="90" y="131.401558" style="stroke: #000000; stroke-width: 0.8"/>
      </g>
     </g>
     <g id="text_10">
      <!-- 0 -->
      <g transform="translate(76.6375 135.200777)scale(0.1 -0.1)">
       <use xlink:href="#DejaVuSans-30"/>
      </g>
     </g>
    </g>
    <g id="ytick_2">
     <g id="line2d_10">
      <g>
       <use xlink:href="#mcf8817d1e4" x="90" y="100.232727" style="stroke: #000000; stroke-width: 0.8"/>
      </g>
     </g>
     <g id="text_11">
      <!-- 50 -->
      <g transform="translate(70.275 104.031946)scale(0.1 -0.1)">
       <use xlink:href="#DejaVuSans-35"/>
       <use xlink:href="#DejaVuSans-30" x="63.623047"/>
      </g>
     </g>
    </g>
    <g id="ytick_3">
     <g id="line2d_11">
      <g>
       <use xlink:href="#mcf8817d1e4" x="90" y="69.063896" style="stroke: #000000; stroke-width: 0.8"/>
      </g>
     </g>
     <g id="text_12">
      <!-- 100 -->
      <g transform="translate(63.9125 72.863115)scale(0.1 -0.1)">
       <use xlink:href="#DejaVuSans-31"/>
       <use xlink:href="#DejaVuSans-30" x="63.623047"/>
       <use xlink:href="#DejaVuSans-30" x="127.246094"/>
      </g>
     </g>
    </g>
    <g id="ytick_4">
     <g id="line2d_12">
      <g>
       <use xlink:href="#mcf8817d1e4" x="90" y="37.895065" style="stroke: #000000; stroke-width: 0.8"/>
      </g>
     </g>
     <g id="text_13">
      <!-- 150 -->
      <g transform="translate(63.9125 41.694284)scale(0.1 -0.1)">
       <use xlink:href="#DejaVuSans-31"/>
       <use xlink:href="#DejaVuSans-35" x="63.623047"/>
       <use xlink:href="#DejaVuSans-30" x="127.246094"/>
      </g>
     </g>
    </g>
   </g>
   <g id="line2d_13">
    <path d="M 115.363636 127.661299 
L 116.705628 128.284675 
L 118.047619 130.778182 
L 119.38961 130.778182 
L 120.731602 129.531429 
L 122.073593 129.531429 
L 123.415584 120.804156 
L 124.757576 120.804156 
L 126.099567 130.778182 
L 127.441558 130.778182 
L 128.78355 124.544416 
L 130.125541 126.414545 
L 131.467532 130.778182 
L 132.809524 127.661299 
L 134.151515 128.908052 
L 135.493506 128.908052 
L 136.835498 130.778182 
L 139.519481 128.284675 
L 140.861472 130.154805 
L 142.203463 130.778182 
L 143.545455 130.154805 
L 144.887446 130.154805 
L 146.229437 129.531429 
L 147.571429 130.154805 
L 148.91342 130.154805 
L 150.255411 128.908052 
L 151.597403 130.154805 
L 152.939394 130.154805 
L 154.281385 122.674286 
L 155.623377 127.661299 
L 156.965368 130.154805 
L 158.307359 115.817143 
L 159.649351 130.778182 
L 170.385281 130.778182 
L 171.727273 130.154805 
L 173.069264 130.778182 
L 182.463203 130.778182 
L 183.805195 128.908052 
L 185.147186 129.531429 
L 186.489177 130.778182 
L 187.831169 129.531429 
L 189.17316 127.661299 
L 190.515152 130.154805 
L 191.857143 130.154805 
L 193.199134 128.908052 
L 194.541126 120.804156 
L 195.883117 130.154805 
L 197.225108 130.778182 
L 198.5671 130.154805 
L 199.909091 127.037922 
L 201.251082 130.154805 
L 202.593074 129.531429 
L 203.935065 125.167792 
L 205.277056 128.908052 
L 206.619048 127.037922 
L 207.961039 130.154805 
L 209.30303 129.531429 
L 210.645022 130.154805 
L 211.987013 129.531429 
L 214.670996 129.531429 
L 216.012987 128.284675 
L 217.354978 130.778182 
L 218.69697 130.778182 
L 220.038961 128.284675 
L 221.380952 128.284675 
L 222.722944 125.167792 
L 224.064935 129.531429 
L 225.406926 127.661299 
L 226.748918 130.778182 
L 228.090909 125.791169 
L 229.4329 128.908052 
L 230.774892 129.531429 
L 232.116883 128.908052 
L 233.458874 126.414545 
L 234.800866 130.154805 
L 236.142857 128.284675 
L 237.484848 121.427532 
L 238.82684 126.414545 
L 240.168831 120.804156 
L 241.510823 87.141818 
L 242.852814 127.661299 
L 244.194805 130.778182 
L 245.536797 128.908052 
L 246.878788 123.297662 
L 248.220779 124.544416 
L 249.562771 127.661299 
L 250.904762 119.557403 
L 252.246753 128.908052 
L 253.588745 128.908052 
L 254.930736 130.154805 
L 256.272727 122.674286 
L 257.614719 124.544416 
L 258.95671 130.778182 
L 260.298701 129.531429 
L 261.640693 130.778182 
L 262.982684 128.284675 
L 264.324675 100.232727 
L 265.666667 118.310649 
L 267.008658 121.427532 
L 268.350649 127.661299 
L 269.692641 130.778182 
L 271.034632 126.414545 
L 272.376623 128.908052 
L 273.718615 122.050909 
L 275.060606 128.908052 
L 276.402597 123.297662 
L 277.744589 115.817143 
L 279.08658 122.674286 
L 280.428571 127.661299 
L 281.770563 115.193766 
L 283.112554 115.193766 
L 284.454545 116.440519 
L 285.796537 92.128831 
L 287.138528 107.08987 
L 288.480519 107.08987 
L 289.822511 119.557403 
L 291.164502 110.206753 
L 292.506494 118.934026 
L 293.848485 129.531429 
L 295.190476 130.154805 
L 296.532468 116.440519 
L 297.874459 114.57039 
L 299.21645 115.817143 
L 300.558442 111.453506 
L 301.900433 105.843117 
L 303.242424 128.284675 
L 304.584416 130.154805 
L 305.926407 116.440519 
L 307.268398 117.687273 
L 308.61039 100.232727 
L 309.952381 115.817143 
L 311.294372 116.440519 
L 312.636364 130.154805 
L 313.978355 128.908052 
L 315.320346 114.57039 
L 316.662338 102.102857 
L 318.004329 117.063896 
L 319.34632 113.323636 
L 320.688312 95.245714 
L 322.030303 117.063896 
L 323.372294 130.154805 
L 324.714286 114.57039 
L 326.056277 105.843117 
L 327.398268 102.726234 
L 328.74026 108.96 
L 330.082251 111.453506 
L 331.424242 129.531429 
L 332.766234 115.193766 
L 334.108225 108.336623 
L 335.450216 115.817143 
L 336.792208 115.193766 
L 338.134199 113.947013 
L 339.47619 125.791169 
L 340.818182 115.817143 
L 342.160173 113.323636 
L 343.502165 115.817143 
L 344.844156 116.440519 
L 346.186147 116.440519 
L 347.528139 130.778182 
L 348.87013 130.778182 
L 350.212121 115.193766 
L 351.554113 112.076883 
L 352.896104 115.193766 
L 354.238095 102.726234 
L 355.580087 105.843117 
L 356.922078 130.778182 
L 358.264069 115.817143 
L 359.606061 113.947013 
L 360.948052 113.323636 
L 362.290043 112.076883 
L 363.632035 117.063896 
L 364.974026 130.154805 
L 366.316017 114.57039 
L 367.658009 110.83013 
L 369 105.21974 
L 370.341991 104.596364 
L 371.683983 39.141818 
L 374.367965 130.778182 
L 375.709957 118.310649 
L 377.051948 117.063896 
L 378.393939 124.544416 
L 379.735931 130.778182 
L 381.077922 130.154805 
L 382.419913 123.297662 
L 383.761905 125.167792 
L 385.103896 130.154805 
L 386.445887 128.908052 
L 387.787879 130.154805 
L 389.12987 130.778182 
L 390.471861 130.154805 
L 391.813853 130.778182 
L 393.155844 130.778182 
L 394.497835 128.908052 
L 395.839827 129.531429 
L 397.181818 130.778182 
L 401.207792 130.778182 
L 402.549784 128.284675 
L 403.891775 130.154805 
L 405.233766 130.778182 
L 406.575758 130.154805 
L 407.917749 127.037922 
L 409.25974 130.778182 
L 410.601732 117.063896 
L 411.943723 129.531429 
L 413.285714 130.778182 
L 415.969697 129.531429 
L 417.311688 130.778182 
L 418.65368 130.154805 
L 419.995671 130.778182 
L 421.337662 128.908052 
L 422.679654 130.154805 
L 424.021645 129.531429 
L 425.363636 130.778182 
L 428.047619 130.778182 
L 430.731602 129.531429 
L 432.073593 127.037922 
L 433.415584 130.154805 
L 434.757576 130.154805 
L 436.099567 124.544416 
L 437.441558 122.050909 
L 438.78355 130.778182 
L 441.467532 130.778182 
L 444.151515 129.531429 
L 445.493506 130.154805 
L 446.835498 125.167792 
L 448.177489 113.323636 
L 449.519481 127.661299 
L 450.861472 110.206753 
L 452.203463 126.414545 
L 453.545455 130.154805 
L 454.887446 130.778182 
L 457.571429 130.778182 
L 458.91342 130.154805 
L 460.255411 130.778182 
L 461.597403 130.778182 
L 462.939394 128.284675 
L 464.281385 98.362597 
L 465.623377 117.063896 
L 466.965368 129.531429 
L 468.307359 122.674286 
L 469.649351 98.985974 
L 470.991342 96.492468 
L 472.333333 90.882078 
L 473.675325 103.972987 
L 475.017316 120.804156 
L 476.359307 122.674286 
L 477.701299 130.778182 
L 479.04329 125.791169 
L 480.385281 130.778182 
L 481.727273 130.778182 
L 483.069264 122.050909 
L 484.411255 129.531429 
L 485.753247 97.739221 
L 487.095238 122.674286 
L 488.437229 95.869091 
L 489.779221 123.297662 
L 491.121212 128.284675 
L 492.463203 121.427532 
L 493.805195 93.998961 
L 495.147186 120.804156 
L 496.489177 122.674286 
L 497.831169 129.531429 
L 499.17316 130.778182 
L 500.515152 130.778182 
L 501.857143 129.531429 
L 503.199134 126.414545 
L 504.541126 123.921039 
L 505.883117 122.674286 
L 507.225108 130.778182 
L 508.5671 130.778182 
L 509.909091 120.180779 
L 511.251082 115.817143 
L 512.593074 130.778182 
L 513.935065 129.531429 
L 515.277056 130.778182 
L 516.619048 125.167792 
L 517.961039 129.531429 
L 519.30303 130.778182 
L 520.645022 130.154805 
L 521.987013 128.908052 
L 523.329004 128.908052 
L 524.670996 106.466494 
L 526.012987 128.908052 
L 527.354978 128.908052 
L 528.69697 120.804156 
L 530.038961 105.21974 
L 531.380952 123.297662 
L 532.722944 123.297662 
L 534.064935 129.531429 
L 535.406926 120.804156 
L 536.748918 120.180779 
L 538.090909 103.34961 
L 539.4329 63.453506 
L 540.774892 123.297662 
L 542.116883 113.323636 
L 543.458874 130.778182 
L 544.800866 104.596364 
L 546.142857 99.609351 
L 547.484848 127.037922 
L 548.82684 117.063896 
L 550.168831 130.778182 
L 551.510823 130.778182 
L 552.852814 100.856104 
L 554.194805 130.778182 
L 555.536797 98.985974 
L 556.878788 130.154805 
L 558.220779 120.804156 
L 559.562771 130.778182 
L 560.904762 130.778182 
L 562.246753 129.531429 
L 563.588745 130.778182 
L 564.930736 130.154805 
L 566.272727 128.908052 
L 567.614719 130.778182 
L 568.95671 122.050909 
L 570.298701 122.674286 
L 571.640693 117.063896 
L 572.982684 93.998961 
L 574.324675 124.544416 
L 575.666667 130.154805 
L 577.008658 115.193766 
L 578.350649 116.440519 
L 579.692641 130.154805 
L 581.034632 125.791169 
L 582.376623 120.180779 
L 583.718615 122.674286 
L 585.060606 127.661299 
L 586.402597 130.154805 
L 587.744589 128.284675 
L 589.08658 127.037922 
L 590.428571 115.817143 
L 591.770563 128.284675 
L 593.112554 122.674286 
L 594.454545 125.167792 
L 595.796537 130.778182 
L 597.138528 75.297662 
L 598.480519 75.921039 
L 599.822511 117.687273 
L 601.164502 97.115844 
L 602.506494 122.050909 
L 603.848485 78.414545 
L 605.190476 130.778182 
L 606.532468 118.934026 
L 607.874459 109.583377 
L 609.21645 108.96 
L 610.558442 99.609351 
L 611.900433 108.96 
L 613.242424 125.791169 
L 614.584416 130.778182 
L 617.268398 87.765195 
L 618.61039 90.882078 
L 619.952381 130.778182 
L 621.294372 122.674286 
L 622.636364 128.908052 
L 622.636364 128.908052 
" clip-path="url(#p55cf06aa84)" style="fill: none; stroke: #1f77b4; stroke-width: 1.5; stroke-linecap: square"/>
   </g>
   <g id="line2d_14">
    <path d="M 115.363636 127.661299 
L 116.705628 128.284675 
L 118.047619 130.778182 
L 119.38961 130.778182 
L 120.731602 129.531429 
L 122.073593 129.531429 
L 123.415584 130.154805 
L 124.757576 128.284675 
L 126.099567 130.778182 
L 127.441558 130.778182 
L 128.78355 124.544416 
L 130.125541 129.531429 
L 131.467532 130.778182 
L 132.809524 128.908052 
L 134.151515 128.908052 
L 135.493506 129.531429 
L 136.835498 130.778182 
L 138.177489 129.531429 
L 139.519481 128.908052 
L 140.861472 130.154805 
L 142.203463 130.778182 
L 143.545455 130.154805 
L 144.887446 130.778182 
L 146.229437 129.531429 
L 148.91342 130.778182 
L 150.255411 130.154805 
L 151.597403 130.778182 
L 152.939394 130.154805 
L 154.281385 125.791169 
L 155.623377 127.661299 
L 156.965368 130.154805 
L 158.307359 125.167792 
L 159.649351 130.778182 
L 170.385281 130.778182 
L 171.727273 130.154805 
L 173.069264 130.778182 
L 182.463203 130.778182 
L 183.805195 129.531429 
L 185.147186 130.778182 
L 186.489177 130.778182 
L 189.17316 129.531429 
L 190.515152 130.778182 
L 193.199134 130.778182 
L 194.541126 124.544416 
L 195.883117 130.778182 
L 197.225108 130.778182 
L 198.5671 130.154805 
L 199.909091 128.908052 
L 201.251082 130.154805 
L 202.593074 129.531429 
L 203.935065 127.037922 
L 205.277056 129.531429 
L 206.619048 130.778182 
L 207.961039 130.154805 
L 209.30303 130.778182 
L 210.645022 130.154805 
L 211.987013 130.778182 
L 213.329004 129.531429 
L 216.012987 129.531429 
L 217.354978 130.778182 
L 218.69697 130.778182 
L 222.722944 127.037922 
L 224.064935 129.531429 
L 225.406926 128.284675 
L 226.748918 130.778182 
L 228.090909 127.037922 
L 229.4329 128.908052 
L 230.774892 129.531429 
L 232.116883 128.908052 
L 233.458874 126.414545 
L 234.800866 130.154805 
L 236.142857 128.284675 
L 237.484848 124.544416 
L 238.82684 127.037922 
L 240.168831 123.297662 
L 241.510823 108.96 
L 242.852814 127.661299 
L 244.194805 130.778182 
L 245.536797 129.531429 
L 246.878788 123.921039 
L 249.562771 127.661299 
L 250.904762 122.050909 
L 252.246753 128.908052 
L 253.588745 128.908052 
L 254.930736 130.154805 
L 256.272727 124.544416 
L 257.614719 124.544416 
L 258.95671 130.778182 
L 260.298701 129.531429 
L 261.640693 130.778182 
L 262.982684 128.908052 
L 264.324675 116.440519 
L 265.666667 122.674286 
L 267.008658 124.544416 
L 268.350649 128.284675 
L 269.692641 130.778182 
L 271.034632 127.661299 
L 272.376623 130.154805 
L 273.718615 123.921039 
L 275.060606 129.531429 
L 276.402597 123.921039 
L 277.744589 120.180779 
L 279.08658 123.297662 
L 280.428571 128.284675 
L 281.770563 120.804156 
L 283.112554 125.167792 
L 284.454545 130.154805 
L 285.796537 121.427532 
L 287.138528 128.908052 
L 288.480519 125.791169 
L 289.822511 121.427532 
L 291.164502 125.167792 
L 292.506494 130.778182 
L 293.848485 130.154805 
L 295.190476 130.154805 
L 296.532468 130.778182 
L 297.874459 128.908052 
L 299.21645 129.531429 
L 301.900433 120.804156 
L 303.242424 128.284675 
L 304.584416 130.154805 
L 305.926407 130.778182 
L 307.268398 128.908052 
L 308.61039 117.687273 
L 309.952381 130.778182 
L 311.294372 129.531429 
L 312.636364 130.154805 
L 315.320346 130.154805 
L 316.662338 118.934026 
L 318.004329 128.908052 
L 319.34632 127.037922 
L 320.688312 115.817143 
L 322.030303 120.180779 
L 323.372294 130.154805 
L 324.714286 130.778182 
L 326.056277 125.791169 
L 327.398268 129.531429 
L 328.74026 128.908052 
L 330.082251 130.154805 
L 331.424242 130.154805 
L 332.766234 130.778182 
L 334.108225 123.921039 
L 335.450216 130.778182 
L 336.792208 130.154805 
L 338.134199 128.908052 
L 339.47619 127.037922 
L 340.818182 130.778182 
L 342.160173 128.908052 
L 343.502165 130.778182 
L 344.844156 129.531429 
L 346.186147 129.531429 
L 347.528139 130.778182 
L 350.212121 130.778182 
L 351.554113 127.661299 
L 352.896104 130.778182 
L 354.238095 128.908052 
L 355.580087 125.791169 
L 356.922078 130.778182 
L 358.264069 130.778182 
L 359.606061 130.154805 
L 360.948052 128.908052 
L 364.974026 130.778182 
L 366.316017 130.154805 
L 367.658009 126.414545 
L 369 126.414545 
L 370.341991 127.661299 
L 371.683983 130.778182 
L 373.025974 121.427532 
L 374.367965 130.778182 
L 375.709957 130.154805 
L 377.051948 126.414545 
L 378.393939 125.791169 
L 379.735931 130.778182 
L 381.077922 130.154805 
L 382.419913 123.297662 
L 383.761905 126.414545 
L 385.103896 130.154805 
L 386.445887 128.908052 
L 387.787879 130.778182 
L 389.12987 130.778182 
L 390.471861 130.154805 
L 391.813853 130.778182 
L 393.155844 130.778182 
L 394.497835 128.908052 
L 395.839827 129.531429 
L 397.181818 130.778182 
L 401.207792 130.778182 
L 402.549784 128.284675 
L 403.891775 130.154805 
L 405.233766 130.778182 
L 406.575758 130.154805 
L 407.917749 127.661299 
L 409.25974 130.778182 
L 410.601732 130.778182 
L 411.943723 129.531429 
L 413.285714 130.778182 
L 415.969697 129.531429 
L 417.311688 130.778182 
L 418.65368 130.154805 
L 419.995671 130.778182 
L 421.337662 128.908052 
L 422.679654 130.154805 
L 424.021645 129.531429 
L 425.363636 130.778182 
L 428.047619 130.778182 
L 430.731602 129.531429 
L 432.073593 127.037922 
L 433.415584 130.154805 
L 434.757576 130.778182 
L 436.099567 124.544416 
L 437.441558 123.921039 
L 438.78355 130.778182 
L 441.467532 130.778182 
L 444.151515 129.531429 
L 445.493506 130.778182 
L 446.835498 125.791169 
L 448.177489 122.050909 
L 449.519481 130.154805 
L 450.861472 121.427532 
L 452.203463 127.661299 
L 453.545455 130.778182 
L 457.571429 130.778182 
L 458.91342 130.154805 
L 460.255411 130.778182 
L 461.597403 130.778182 
L 462.939394 128.284675 
L 464.281385 114.57039 
L 465.623377 119.557403 
L 466.965368 129.531429 
L 468.307359 123.921039 
L 469.649351 114.57039 
L 470.991342 112.076883 
L 472.333333 112.076883 
L 473.675325 119.557403 
L 475.017316 121.427532 
L 476.359307 124.544416 
L 477.701299 130.778182 
L 479.04329 126.414545 
L 480.385281 130.778182 
L 481.727273 130.778182 
L 483.069264 123.297662 
L 484.411255 129.531429 
L 485.753247 122.674286 
L 487.095238 128.284675 
L 488.437229 126.414545 
L 489.779221 130.154805 
L 491.121212 130.778182 
L 492.463203 128.284675 
L 493.805195 121.427532 
L 495.147186 125.791169 
L 496.489177 126.414545 
L 497.831169 130.154805 
L 499.17316 130.778182 
L 500.515152 130.778182 
L 501.857143 129.531429 
L 503.199134 128.908052 
L 504.541126 127.037922 
L 505.883117 127.037922 
L 507.225108 130.778182 
L 508.5671 130.778182 
L 509.909091 125.167792 
L 511.251082 123.921039 
L 512.593074 130.778182 
L 513.935065 129.531429 
L 515.277056 130.778182 
L 516.619048 127.661299 
L 517.961039 129.531429 
L 519.30303 130.778182 
L 520.645022 130.154805 
L 521.987013 128.908052 
L 523.329004 128.908052 
L 524.670996 122.050909 
L 526.012987 128.908052 
L 527.354978 129.531429 
L 528.69697 126.414545 
L 530.038961 120.180779 
L 531.380952 126.414545 
L 532.722944 127.037922 
L 534.064935 130.154805 
L 535.406926 127.037922 
L 536.748918 126.414545 
L 539.4329 112.70026 
L 540.774892 127.661299 
L 542.116883 123.921039 
L 543.458874 130.778182 
L 544.800866 120.804156 
L 546.142857 117.063896 
L 547.484848 128.284675 
L 548.82684 123.921039 
L 550.168831 130.778182 
L 551.510823 130.778182 
L 552.852814 120.180779 
L 554.194805 130.778182 
L 555.536797 116.440519 
L 556.878788 130.154805 
L 558.220779 125.791169 
L 559.562771 130.778182 
L 560.904762 130.778182 
L 562.246753 130.154805 
L 563.588745 130.778182 
L 564.930736 130.778182 
L 566.272727 130.154805 
L 567.614719 130.778182 
L 568.95671 126.414545 
L 570.298701 126.414545 
L 571.640693 124.544416 
L 572.982684 117.063896 
L 574.324675 127.661299 
L 575.666667 130.778182 
L 577.008658 122.674286 
L 578.350649 123.297662 
L 579.692641 130.154805 
L 582.376623 126.414545 
L 583.718615 127.661299 
L 585.060606 128.284675 
L 586.402597 130.778182 
L 587.744589 128.908052 
L 589.08658 127.661299 
L 590.428571 122.674286 
L 591.770563 129.531429 
L 593.112554 127.037922 
L 594.454545 127.661299 
L 595.796537 130.778182 
L 597.138528 110.206753 
L 598.480519 110.206753 
L 599.822511 123.921039 
L 601.164502 118.310649 
L 602.506494 126.414545 
L 603.848485 112.076883 
L 605.190476 130.778182 
L 606.532468 130.154805 
L 607.874459 118.934026 
L 609.21645 118.934026 
L 610.558442 117.063896 
L 611.900433 118.934026 
L 613.242424 128.284675 
L 614.584416 130.778182 
L 615.926407 121.427532 
L 617.268398 113.947013 
L 618.61039 113.323636 
L 619.952381 130.778182 
L 621.294372 127.037922 
L 622.636364 130.778182 
L 622.636364 130.778182 
" clip-path="url(#p55cf06aa84)" style="fill: none; stroke: #ff7f0e; stroke-width: 1.5; stroke-linecap: square"/>
   </g>
   <g id="patch_3">
    <path d="M 90 135.36 
L 90 34.56 
" style="fill: none; stroke: #000000; stroke-width: 0.8; stroke-linejoin: miter; stroke-linecap: square"/>
   </g>
   <g id="patch_4">
    <path d="M 648 135.36 
L 648 34.56 
" style="fill: none; stroke: #000000; stroke-width: 0.8; stroke-linejoin: miter; stroke-linecap: square"/>
   </g>
   <g id="patch_5">
    <path d="M 90 135.36 
L 648 135.36 
" style="fill: none; stroke: #000000; stroke-width: 0.8; stroke-linejoin: miter; stroke-linecap: square"/>
   </g>
   <g id="patch_6">
    <path d="M 90 34.56 
L 648 34.56 
" style="fill: none; stroke: #000000; stroke-width: 0.8; stroke-linejoin: miter; stroke-linecap: square"/>
   </g>
   <g id="legend_1">
    <g id="patch_7">
     <path d="M 97 71.91625 
L 238.8625 71.91625 
Q 240.8625 71.91625 240.8625 69.91625 
L 240.8625 41.56 
Q 240.8625 39.56 238.8625 39.56 
L 97 39.56 
Q 95 39.56 95 41.56 
L 95 69.91625 
Q 95 71.91625 97 71.91625 
z
" style="fill: #ffffff; opacity: 0.8; stroke: #cccccc; stroke-linejoin: miter"/>
    </g>
    <g id="line2d_15">
     <path d="M 99 47.658437 
L 109 47.658437 
L 119 47.658437 
" style="fill: none; stroke: #1f77b4; stroke-width: 1.5; stroke-linecap: square"/>
    </g>
    <g id="text_14">
     <!-- Total GitHub Clones -->
     <g transform="translate(127 51.158437)scale(0.1 -0.1)">
      <defs>
       <path id="DejaVuSans-54" d="M -19 4666 
L 3928 4666 
L 3928 4134 
L 2272 4134 
L 2272 0 
L 1638 0 
L 1638 4134 
L -19 4134 
L -19 4666 
z
" transform="scale(0.015625)"/>
       <path id="DejaVuSans-6f" d="M 1959 3097 
Q 1497 3097 1228 2736 
Q 959 2375 959 1747 
Q 959 1119 1226 758 
Q 1494 397 1959 397 
Q 2419 397 2687 759 
Q 2956 1122 2956 1747 
Q 2956 2369 2687 2733 
Q 2419 3097 1959 3097 
z
M 1959 3584 
Q 2709 3584 3137 3096 
Q 3566 2609 3566 1747 
Q 3566 888 3137 398 
Q 2709 -91 1959 -91 
Q 1206 -91 779 398 
Q 353 888 353 1747 
Q 353 2609 779 3096 
Q 1206 3584 1959 3584 
z
" transform="scale(0.015625)"/>
       <path id="DejaVuSans-6c" d="M 603 4863 
L 1178 4863 
L 1178 0 
L 603 0 
L 603 4863 
z
" transform="scale(0.015625)"/>
       <path id="DejaVuSans-20" transform="scale(0.015625)"/>
       <path id="DejaVuSans-47" d="M 3809 666 
L 3809 1919 
L 2778 1919 
L 2778 2438 
L 4434 2438 
L 4434 434 
Q 4069 175 3628 42 
Q 3188 -91 2688 -91 
Q 1594 -91 976 548 
Q 359 1188 359 2328 
Q 359 3472 976 4111 
Q 1594 4750 2688 4750 
Q 3144 4750 3555 4637 
Q 3966 4525 4313 4306 
L 4313 3634 
Q 3963 3931 3569 4081 
Q 3175 4231 2741 4231 
Q 1884 4231 1454 3753 
Q 1025 3275 1025 2328 
Q 1025 1384 1454 906 
Q 1884 428 2741 428 
Q 3075 428 3337 486 
Q 3600 544 3809 666 
z
" transform="scale(0.015625)"/>
       <path id="DejaVuSans-69" d="M 603 3500 
L 1178 3500 
L 1178 0 
L 603 0 
L 603 3500 
z
M 603 4863 
L 1178 4863 
L 1178 4134 
L 603 4134 
L 603 4863 
z
" transform="scale(0.015625)"/>
       <path id="DejaVuSans-48" d="M 628 4666 
L 1259 4666 
L 1259 2753 
L 3553 2753 
L 3553 4666 
L 4184 4666 
L 4184 0 
L 3553 0 
L 3553 2222 
L 1259 2222 
L 1259 0 
L 628 0 
L 628 4666 
z
" transform="scale(0.015625)"/>
       <path id="DejaVuSans-75" d="M 544 1381 
L 544 3500 
L 1119 3500 
L 1119 1403 
Q 1119 906 1312 657 
Q 1506 409 1894 409 
Q 2359 409 2629 706 
Q 2900 1003 2900 1516 
L 2900 3500 
L 3475 3500 
L 3475 0 
L 2900 0 
L 2900 538 
Q 2691 219 2414 64 
Q 2138 -91 1772 -91 
Q 1169 -91 856 284 
Q 544 659 544 1381 
z
M 1991 3584 
L 1991 3584 
z
" transform="scale(0.015625)"/>
       <path id="DejaVuSans-62" d="M 3116 1747 
Q 3116 2381 2855 2742 
Q 2594 3103 2138 3103 
Q 1681 3103 1420 2742 
Q 1159 2381 1159 1747 
Q 1159 1113 1420 752 
Q 1681 391 2138 391 
Q 2594 391 2855 752 
Q 3116 1113 3116 1747 
z
M 1159 2969 
Q 1341 3281 1617 3432 
Q 1894 3584 2278 3584 
Q 2916 3584 3314 3078 
Q 3713 2572 3713 1747 
Q 3713 922 3314 415 
Q 2916 -91 2278 -91 
Q 1894 -91 1617 61 
Q 1341 213 1159 525 
L 1159 0 
L 581 0 
L 581 4863 
L 1159 4863 
L 1159 2969 
z
" transform="scale(0.015625)"/>
       <path id="DejaVuSans-43" d="M 4122 4306 
L 4122 3641 
Q 3803 3938 3442 4084 
Q 3081 4231 2675 4231 
Q 1875 4231 1450 3742 
Q 1025 3253 1025 2328 
Q 1025 1406 1450 917 
Q 1875 428 2675 428 
Q 3081 428 3442 575 
Q 3803 722 4122 1019 
L 4122 359 
Q 3791 134 3420 21 
Q 3050 -91 2638 -91 
Q 1578 -91 968 557 
Q 359 1206 359 2328 
Q 359 3453 968 4101 
Q 1578 4750 2638 4750 
Q 3056 4750 3426 4639 
Q 3797 4528 4122 4306 
z
" transform="scale(0.015625)"/>
       <path id="DejaVuSans-6e" d="M 3513 2113 
L 3513 0 
L 2938 0 
L 2938 2094 
Q 2938 2591 2744 2837 
Q 2550 3084 2163 3084 
Q 1697 3084 1428 2787 
Q 1159 2491 1159 1978 
L 1159 0 
L 581 0 
L 581 3500 
L 1159 3500 
L 1159 2956 
Q 1366 3272 1645 3428 
Q 1925 3584 2291 3584 
Q 2894 3584 3203 3211 
Q 3513 2838 3513 2113 
z
" transform="scale(0.015625)"/>
       <path id="DejaVuSans-73" d="M 2834 3397 
L 2834 2853 
Q 2591 2978 2328 3040 
Q 2066 3103 1784 3103 
Q 1356 3103 1142 2972 
Q 928 2841 928 2578 
Q 928 2378 1081 2264 
Q 1234 2150 1697 2047 
L 1894 2003 
Q 2506 1872 2764 1633 
Q 3022 1394 3022 966 
Q 3022 478 2636 193 
Q 2250 -91 1575 -91 
Q 1294 -91 989 -36 
Q 684 19 347 128 
L 347 722 
Q 666 556 975 473 
Q 1284 391 1588 391 
Q 1994 391 2212 530 
Q 2431 669 2431 922 
Q 2431 1156 2273 1281 
Q 2116 1406 1581 1522 
L 1381 1569 
Q 847 1681 609 1914 
Q 372 2147 372 2553 
Q 372 3047 722 3315 
Q 1072 3584 1716 3584 
Q 2034 3584 2315 3537 
Q 2597 3491 2834 3397 
z
" transform="scale(0.015625)"/>
      </defs>
      <use xlink:href="#DejaVuSans-54"/>
      <use xlink:href="#DejaVuSans-6f" x="44.083984"/>
      <use xlink:href="#DejaVuSans-74" x="105.265625"/>
      <use xlink:href="#DejaVuSans-61" x="144.474609"/>
      <use xlink:href="#DejaVuSans-6c" x="205.753906"/>
      <use xlink:href="#DejaVuSans-20" x="233.537109"/>
      <use xlink:href="#DejaVuSans-47" x="265.324219"/>
      <use xlink:href="#DejaVuSans-69" x="342.814453"/>
      <use xlink:href="#DejaVuSans-74" x="370.597656"/>
      <use xlink:href="#DejaVuSans-48" x="409.806641"/>
      <use xlink:href="#DejaVuSans-75" x="485.001953"/>
      <use xlink:href="#DejaVuSans-62" x="548.380859"/>
      <use xlink:href="#DejaVuSans-20" x="611.857422"/>
      <use xlink:href="#DejaVuSans-43" x="643.644531"/>
      <use xlink:href="#DejaVuSans-6c" x="713.46875"/>
      <use xlink:href="#DejaVuSans-6f" x="741.251953"/>
      <use xlink:href="#DejaVuSans-6e" x="802.433594"/>
      <use xlink:href="#DejaVuSans-65" x="865.8125"/>
      <use xlink:href="#DejaVuSans-73" x="927.335938"/>
     </g>
    </g>
    <g id="line2d_16">
     <path d="M 99 62.336562 
L 109 62.336562 
L 119 62.336562 
" style="fill: none; stroke: #ff7f0e; stroke-width: 1.5; stroke-linecap: square"/>
    </g>
    <g id="text_15">
     <!-- Unique GitHub Clones -->
     <g transform="translate(127 65.836562)scale(0.1 -0.1)">
      <defs>
       <path id="DejaVuSans-55" d="M 556 4666 
L 1191 4666 
L 1191 1831 
Q 1191 1081 1462 751 
Q 1734 422 2344 422 
Q 2950 422 3222 751 
Q 3494 1081 3494 1831 
L 3494 4666 
L 4128 4666 
L 4128 1753 
Q 4128 841 3676 375 
Q 3225 -91 2344 -91 
Q 1459 -91 1007 375 
Q 556 841 556 1753 
L 556 4666 
z
" transform="scale(0.015625)"/>
       <path id="DejaVuSans-71" d="M 947 1747 
Q 947 1113 1208 752 
Q 1469 391 1925 391 
Q 2381 391 2643 752 
Q 2906 1113 2906 1747 
Q 2906 2381 2643 2742 
Q 2381 3103 1925 3103 
Q 1469 3103 1208 2742 
Q 947 2381 947 1747 
z
M 2906 525 
Q 2725 213 2448 61 
Q 2172 -91 1784 -91 
Q 1150 -91 751 415 
Q 353 922 353 1747 
Q 353 2572 751 3078 
Q 1150 3584 1784 3584 
Q 2172 3584 2448 3432 
Q 2725 3281 2906 2969 
L 2906 3500 
L 3481 3500 
L 3481 -1331 
L 2906 -1331 
L 2906 525 
z
" transform="scale(0.015625)"/>
      </defs>
      <use xlink:href="#DejaVuSans-55"/>
      <use xlink:href="#DejaVuSans-6e" x="73.193359"/>
      <use xlink:href="#DejaVuSans-69" x="136.572266"/>
      <use xlink:href="#DejaVuSans-71" x="164.355469"/>
      <use xlink:href="#DejaVuSans-75" x="227.832031"/>
      <use xlink:href="#DejaVuSans-65" x="291.210938"/>
      <use xlink:href="#DejaVuSans-20" x="352.734375"/>
      <use xlink:href="#DejaVuSans-47" x="384.521484"/>
      <use xlink:href="#DejaVuSans-69" x="462.011719"/>
      <use xlink:href="#DejaVuSans-74" x="489.794922"/>
      <use xlink:href="#DejaVuSans-48" x="529.003906"/>
      <use xlink:href="#DejaVuSans-75" x="604.199219"/>
      <use xlink:href="#DejaVuSans-62" x="667.578125"/>
      <use xlink:href="#DejaVuSans-20" x="731.054688"/>
      <use xlink:href="#DejaVuSans-43" x="762.841797"/>
      <use xlink:href="#DejaVuSans-6c" x="832.666016"/>
      <use xlink:href="#DejaVuSans-6f" x="860.449219"/>
      <use xlink:href="#DejaVuSans-6e" x="921.630859"/>
      <use xlink:href="#DejaVuSans-65" x="985.009766"/>
      <use xlink:href="#DejaVuSans-73" x="1046.533203"/>
     </g>
    </g>
   </g>
  </g>
  <g id="axes_2">
   <g id="patch_8">
    <path d="M 90 256.32 
L 648 256.32 
L 648 155.52 
L 90 155.52 
z
" style="fill: #ffffff"/>
   </g>
   <g id="matplotlib.axis_3">
    <g id="xtick_9">
     <g id="line2d_17">
      <g>
       <use xlink:href="#m3b69243080" x="115.363636" y="256.32" style="stroke: #000000; stroke-width: 0.8"/>
      </g>
     </g>
     <g id="text_16">
      <!-- 2020-10-21 -->
      <g transform="translate(86.305824 270.918437)scale(0.1 -0.1)">
       <use xlink:href="#DejaVuSans-32"/>
       <use xlink:href="#DejaVuSans-30" x="63.623047"/>
       <use xlink:href="#DejaVuSans-32" x="127.246094"/>
       <use xlink:href="#DejaVuSans-30" x="190.869141"/>
       <use xlink:href="#DejaVuSans-2d" x="254.492188"/>
       <use xlink:href="#DejaVuSans-31" x="290.576172"/>
       <use xlink:href="#DejaVuSans-30" x="354.199219"/>
       <use xlink:href="#DejaVuSans-2d" x="417.822266"/>
       <use xlink:href="#DejaVuSans-32" x="453.90625"/>
       <use xlink:href="#DejaVuSans-31" x="517.529297"/>
      </g>
     </g>
    </g>
    <g id="xtick_10">
     <g id="line2d_18">
      <g>
       <use xlink:href="#m3b69243080" x="221.045455" y="256.32" style="stroke: #000000; stroke-width: 0.8"/>
      </g>
     </g>
     <g id="text_17">
      <!-- 2021-01-31 -->
      <g transform="translate(191.987642 270.918437)scale(0.1 -0.1)">
       <use xlink:href="#DejaVuSans-32"/>
       <use xlink:href="#DejaVuSans-30" x="63.623047"/>
       <use xlink:href="#DejaVuSans-32" x="127.246094"/>
       <use xlink:href="#DejaVuSans-31" x="190.869141"/>
       <use xlink:href="#DejaVuSans-2d" x="254.492188"/>
       <use xlink:href="#DejaVuSans-30" x="290.576172"/>
       <use xlink:href="#DejaVuSans-31" x="354.199219"/>
       <use xlink:href="#DejaVuSans-2d" x="417.822266"/>
       <use xlink:href="#DejaVuSans-33" x="453.90625"/>
       <use xlink:href="#DejaVuSans-31" x="517.529297"/>
      </g>
     </g>
    </g>
    <g id="xtick_11">
     <g id="line2d_19">
      <g>
       <use xlink:href="#m3b69243080" x="326.727273" y="256.32" style="stroke: #000000; stroke-width: 0.8"/>
      </g>
     </g>
     <g id="text_18">
      <!-- 2021-05-11 -->
      <g transform="translate(297.66946 270.918437)scale(0.1 -0.1)">
       <use xlink:href="#DejaVuSans-32"/>
       <use xlink:href="#DejaVuSans-30" x="63.623047"/>
       <use xlink:href="#DejaVuSans-32" x="127.246094"/>
       <use xlink:href="#DejaVuSans-31" x="190.869141"/>
       <use xlink:href="#DejaVuSans-2d" x="254.492188"/>
       <use xlink:href="#DejaVuSans-30" x="290.576172"/>
       <use xlink:href="#DejaVuSans-35" x="354.199219"/>
       <use xlink:href="#DejaVuSans-2d" x="417.822266"/>
       <use xlink:href="#DejaVuSans-31" x="453.90625"/>
       <use xlink:href="#DejaVuSans-31" x="517.529297"/>
      </g>
     </g>
    </g>
    <g id="xtick_12">
     <g id="line2d_20">
      <g>
       <use xlink:href="#m3b69243080" x="432.409091" y="256.32" style="stroke: #000000; stroke-width: 0.8"/>
      </g>
     </g>
     <g id="text_19">
      <!-- 2021-08-19 -->
      <g transform="translate(403.351278 270.918437)scale(0.1 -0.1)">
       <defs>
        <path id="DejaVuSans-38" d="M 2034 2216 
Q 1584 2216 1326 1975 
Q 1069 1734 1069 1313 
Q 1069 891 1326 650 
Q 1584 409 2034 409 
Q 2484 409 2743 651 
Q 3003 894 3003 1313 
Q 3003 1734 2745 1975 
Q 2488 2216 2034 2216 
z
M 1403 2484 
Q 997 2584 770 2862 
Q 544 3141 544 3541 
Q 544 4100 942 4425 
Q 1341 4750 2034 4750 
Q 2731 4750 3128 4425 
Q 3525 4100 3525 3541 
Q 3525 3141 3298 2862 
Q 3072 2584 2669 2484 
Q 3125 2378 3379 2068 
Q 3634 1759 3634 1313 
Q 3634 634 3220 271 
Q 2806 -91 2034 -91 
Q 1263 -91 848 271 
Q 434 634 434 1313 
Q 434 1759 690 2068 
Q 947 2378 1403 2484 
z
M 1172 3481 
Q 1172 3119 1398 2916 
Q 1625 2713 2034 2713 
Q 2441 2713 2670 2916 
Q 2900 3119 2900 3481 
Q 2900 3844 2670 4047 
Q 2441 4250 2034 4250 
Q 1625 4250 1398 4047 
Q 1172 3844 1172 3481 
z
" transform="scale(0.015625)"/>
       </defs>
       <use xlink:href="#DejaVuSans-32"/>
       <use xlink:href="#DejaVuSans-30" x="63.623047"/>
       <use xlink:href="#DejaVuSans-32" x="127.246094"/>
       <use xlink:href="#DejaVuSans-31" x="190.869141"/>
       <use xlink:href="#DejaVuSans-2d" x="254.492188"/>
       <use xlink:href="#DejaVuSans-30" x="290.576172"/>
       <use xlink:href="#DejaVuSans-38" x="354.199219"/>
       <use xlink:href="#DejaVuSans-2d" x="417.822266"/>
       <use xlink:href="#DejaVuSans-31" x="453.90625"/>
       <use xlink:href="#DejaVuSans-39" x="517.529297"/>
      </g>
     </g>
    </g>
    <g id="xtick_13">
     <g id="line2d_21">
      <g>
       <use xlink:href="#m3b69243080" x="538.090909" y="256.32" style="stroke: #000000; stroke-width: 0.8"/>
      </g>
     </g>
     <g id="text_20">
      <!-- 2021-11-27 -->
      <g transform="translate(509.033097 270.918437)scale(0.1 -0.1)">
       <use xlink:href="#DejaVuSans-32"/>
       <use xlink:href="#DejaVuSans-30" x="63.623047"/>
       <use xlink:href="#DejaVuSans-32" x="127.246094"/>
       <use xlink:href="#DejaVuSans-31" x="190.869141"/>
       <use xlink:href="#DejaVuSans-2d" x="254.492188"/>
       <use xlink:href="#DejaVuSans-31" x="290.576172"/>
       <use xlink:href="#DejaVuSans-31" x="354.199219"/>
       <use xlink:href="#DejaVuSans-2d" x="417.822266"/>
       <use xlink:href="#DejaVuSans-32" x="453.90625"/>
       <use xlink:href="#DejaVuSans-37" x="517.529297"/>
      </g>
     </g>
    </g>
    <g id="xtick_14">
     <g id="line2d_22">
      <g>
       <use xlink:href="#m3b69243080" x="643.772727" y="256.32" style="stroke: #000000; stroke-width: 0.8"/>
      </g>
     </g>
    </g>
    <g id="text_21">
     <!-- _date -->
     <g transform="translate(355.225 284.596563)scale(0.1 -0.1)">
      <use xlink:href="#DejaVuSans-5f"/>
      <use xlink:href="#DejaVuSans-64" x="50"/>
      <use xlink:href="#DejaVuSans-61" x="113.476562"/>
      <use xlink:href="#DejaVuSans-74" x="174.755859"/>
      <use xlink:href="#DejaVuSans-65" x="213.964844"/>
     </g>
    </g>
   </g>
   <g id="matplotlib.axis_4">
    <g id="ytick_5">
     <g id="line2d_23">
      <g>
       <use xlink:href="#mcf8817d1e4" x="90" y="252.02101" style="stroke: #000000; stroke-width: 0.8"/>
      </g>
     </g>
     <g id="text_22">
      <!-- 0 -->
      <g transform="translate(76.6375 255.820229)scale(0.1 -0.1)">
       <use xlink:href="#DejaVuSans-30"/>
      </g>
     </g>
    </g>
    <g id="ytick_6">
     <g id="line2d_24">
      <g>
       <use xlink:href="#mcf8817d1e4" x="90" y="223.738182" style="stroke: #000000; stroke-width: 0.8"/>
      </g>
     </g>
     <g id="text_23">
      <!-- 100 -->
      <g transform="translate(63.9125 227.537401)scale(0.1 -0.1)">
       <use xlink:href="#DejaVuSans-31"/>
       <use xlink:href="#DejaVuSans-30" x="63.623047"/>
       <use xlink:href="#DejaVuSans-30" x="127.246094"/>
      </g>
     </g>
    </g>
    <g id="ytick_7">
     <g id="line2d_25">
      <g>
       <use xlink:href="#mcf8817d1e4" x="90" y="195.455354" style="stroke: #000000; stroke-width: 0.8"/>
      </g>
     </g>
     <g id="text_24">
      <!-- 200 -->
      <g transform="translate(63.9125 199.254572)scale(0.1 -0.1)">
       <use xlink:href="#DejaVuSans-32"/>
       <use xlink:href="#DejaVuSans-30" x="63.623047"/>
       <use xlink:href="#DejaVuSans-30" x="127.246094"/>
      </g>
     </g>
    </g>
    <g id="ytick_8">
     <g id="line2d_26">
      <g>
       <use xlink:href="#mcf8817d1e4" x="90" y="167.172525" style="stroke: #000000; stroke-width: 0.8"/>
      </g>
     </g>
     <g id="text_25">
      <!-- 300 -->
      <g transform="translate(63.9125 170.971744)scale(0.1 -0.1)">
       <use xlink:href="#DejaVuSans-33"/>
       <use xlink:href="#DejaVuSans-30" x="63.623047"/>
       <use xlink:href="#DejaVuSans-30" x="127.246094"/>
      </g>
     </g>
    </g>
   </g>
   <g id="line2d_27">
    <path d="M 115.363636 251.738182 
L 116.420455 230.808889 
L 117.477273 228.263434 
L 118.534091 244.384646 
L 119.590909 251.455354 
L 120.647727 238.728081 
L 121.704545 238.445253 
L 122.761364 234.485657 
L 123.818182 238.445253 
L 124.875 239.293737 
L 125.931818 250.606869 
L 126.988636 248.344242 
L 128.045455 247.495758 
L 129.102273 239.293737 
L 130.159091 211.576566 
L 131.215909 226.000808 
L 132.272727 243.81899 
L 133.329545 247.212929 
L 134.386364 251.172525 
L 135.443182 238.445253 
L 136.5 224.303838 
L 137.556818 245.798788 
L 138.613636 243.253333 
L 139.670455 236.748283 
L 140.727273 236.748283 
L 141.784091 249.758384 
L 142.840909 237.031111 
L 143.897727 233.354343 
L 144.954545 243.536162 
L 146.011364 243.536162 
L 147.068182 238.728081 
L 148.125 246.930101 
L 149.181818 249.192727 
L 150.238636 226.283636 
L 151.295455 248.909899 
L 152.352273 248.061414 
L 153.409091 249.758384 
L 154.465909 247.778586 
L 155.522727 251.455354 
L 156.579545 251.455354 
L 157.636364 227.980606 
L 158.693182 215.253333 
L 159.75 243.81899 
L 160.806818 245.233131 
L 161.863636 226.566465 
L 162.920455 250.889697 
L 163.977273 244.950303 
L 165.034091 241.556364 
L 166.090909 246.081616 
L 167.147727 236.182626 
L 168.204545 246.930101 
L 169.261364 250.889697 
L 170.318182 251.738182 
L 171.375 243.81899 
L 172.431818 242.12202 
L 173.488636 242.404848 
L 174.545455 240.990707 
L 175.602273 248.909899 
L 176.659091 250.889697 
L 177.715909 250.606869 
L 178.772727 247.212929 
L 179.829545 247.778586 
L 180.886364 242.687677 
L 181.943182 250.041212 
L 183 251.172525 
L 184.056818 251.455354 
L 185.113636 248.344242 
L 186.170455 249.475556 
L 187.227273 250.32404 
L 188.284091 251.738182 
L 189.340909 247.212929 
L 190.397727 247.495758 
L 191.454545 250.889697 
L 192.511364 246.364444 
L 193.568182 242.687677 
L 194.625 240.142222 
L 195.681818 247.778586 
L 196.738636 248.909899 
L 197.795455 232.505859 
L 198.852273 250.32404 
L 199.909091 234.202828 
L 200.965909 235.899798 
L 202.022727 240.142222 
L 203.079545 233.637172 
L 204.136364 246.930101 
L 205.193182 235.051313 
L 206.25 251.172525 
L 207.306818 233.92 
L 208.363636 235.334141 
L 209.420455 226.849293 
L 210.477273 232.788687 
L 211.534091 240.142222 
L 212.590909 242.970505 
L 213.647727 248.344242 
L 214.704545 229.111919 
L 215.761364 224.586667 
L 216.818182 236.465455 
L 217.875 235.051313 
L 218.931818 232.505859 
L 219.988636 247.495758 
L 221.045455 248.627071 
L 222.102273 230.243232 
L 223.159091 246.930101 
L 225.272727 233.354343 
L 227.386364 250.889697 
L 228.443182 247.778586 
L 229.5 235.61697 
L 230.556818 235.051313 
L 231.613636 225.435152 
L 232.670455 242.12202 
L 233.727273 250.32404 
L 234.784091 250.606869 
L 235.840909 249.192727 
L 236.897727 242.687677 
L 237.954545 242.970505 
L 239.011364 246.930101 
L 240.068182 231.091717 
L 241.125 248.344242 
L 242.181818 242.12202 
L 243.238636 239.293737 
L 244.295455 240.990707 
L 245.352273 225.71798 
L 246.409091 235.899798 
L 247.465909 235.051313 
L 248.522727 240.142222 
L 249.579545 238.445253 
L 250.636364 239.576566 
L 251.693182 183.859394 
L 252.75 245.798788 
L 253.806818 231.091717 
L 254.863636 234.768485 
L 255.920455 227.132121 
L 256.977273 241.839192 
L 258.034091 200.263434 
L 259.090909 198.566465 
L 260.147727 204.505859 
L 261.204545 229.394747 
L 262.261364 174.243232 
L 263.318182 223.738182 
L 264.375 246.081616 
L 265.431818 245.233131 
L 266.488636 237.596768 
L 267.545455 231.374545 
L 268.602273 227.980606 
L 269.659091 234.768485 
L 270.715909 224.02101 
L 271.772727 243.81899 
L 272.829545 245.798788 
L 273.886364 205.637172 
L 274.943182 232.788687 
L 276 234.485657 
L 277.056818 246.364444 
L 278.113636 248.627071 
L 279.170455 248.061414 
L 280.227273 233.071515 
L 281.284091 184.425051 
L 282.340909 229.960404 
L 283.397727 234.485657 
L 284.454545 214.404848 
L 285.511364 244.384646 
L 286.568182 248.344242 
L 287.625 244.950303 
L 288.681818 222.041212 
L 289.738636 238.728081 
L 290.795455 223.455354 
L 291.852273 200.546263 
L 292.909091 233.92 
L 293.965909 241.273535 
L 295.022727 246.081616 
L 296.079545 176.505859 
L 297.136364 227.697778 
L 298.193182 243.536162 
L 299.25 235.334141 
L 300.306818 236.748283 
L 301.363636 248.909899 
L 302.420455 246.930101 
L 303.477273 187.81899 
L 304.534091 181.031111 
L 305.590909 198.566465 
L 306.647727 242.970505 
L 307.704545 249.192727 
L 308.761364 236.748283 
L 309.818182 247.495758 
L 311.931818 224.586667 
L 312.988636 162.647273 
L 314.045455 222.32404 
L 315.102273 221.475556 
L 316.159091 226.283636 
L 317.215909 245.51596 
L 318.272727 246.364444 
L 319.329545 220.344242 
L 320.386364 236.182626 
L 321.443182 235.899798 
L 322.5 226.566465 
L 323.556818 243.253333 
L 324.613636 249.192727 
L 325.670455 198.283636 
L 326.727273 237.313939 
L 327.784091 212.990707 
L 328.840909 206.768485 
L 329.897727 213.556364 
L 330.954545 249.758384 
L 332.011364 249.758384 
L 333.068182 222.606869 
L 334.125 233.071515 
L 335.181818 232.505859 
L 336.238636 239.010909 
L 337.295455 242.687677 
L 338.352273 248.344242 
L 339.409091 246.081616 
L 340.465909 226.000808 
L 341.522727 244.101818 
L 342.579545 240.425051 
L 343.636364 232.22303 
L 344.693182 238.728081 
L 345.75 249.758384 
L 346.806818 249.758384 
L 347.863636 242.970505 
L 348.920455 240.142222 
L 349.977273 246.364444 
L 351.034091 241.273535 
L 352.090909 243.536162 
L 353.147727 249.192727 
L 354.204545 247.495758 
L 355.261364 231.091717 
L 356.318182 236.465455 
L 357.375 168.303838 
L 358.431818 213.839192 
L 359.488636 244.101818 
L 360.545455 242.12202 
L 361.602273 250.041212 
L 362.659091 232.22303 
L 363.715909 234.202828 
L 364.772727 241.839192 
L 365.829545 240.990707 
L 366.886364 235.61697 
L 367.943182 249.758384 
L 369 250.32404 
L 370.056818 193.192727 
L 371.113636 239.293737 
L 372.170455 244.950303 
L 373.227273 247.212929 
L 374.284091 201.677576 
L 375.340909 247.212929 
L 376.397727 248.061414 
L 378.511364 241.839192 
L 379.568182 242.12202 
L 380.625 224.02101 
L 381.681818 244.384646 
L 382.738636 249.758384 
L 383.795455 243.536162 
L 384.852273 245.233131 
L 385.909091 180.182626 
L 386.965909 197.435152 
L 388.022727 240.425051 
L 389.079545 242.404848 
L 390.136364 244.667475 
L 391.193182 244.101818 
L 392.25 231.657374 
L 393.306818 242.12202 
L 394.363636 243.253333 
L 395.420455 222.32404 
L 396.477273 239.293737 
L 397.534091 250.32404 
L 398.590909 251.738182 
L 399.647727 244.667475 
L 400.704545 245.233131 
L 401.761364 246.647273 
L 402.818182 243.536162 
L 403.875 246.081616 
L 404.931818 249.475556 
L 405.988636 251.172525 
L 407.045455 243.536162 
L 408.102273 243.253333 
L 409.159091 230.808889 
L 410.215909 229.111919 
L 411.272727 250.606869 
L 412.329545 246.081616 
L 413.386364 251.738182 
L 414.443182 239.010909 
L 415.5 240.142222 
L 416.556818 242.687677 
L 417.613636 239.859394 
L 418.670455 248.344242 
L 419.727273 245.51596 
L 420.784091 250.041212 
L 421.840909 236.748283 
L 422.897727 238.728081 
L 423.954545 243.81899 
L 425.011364 240.707879 
L 426.068182 231.374545 
L 427.125 241.839192 
L 428.181818 248.344242 
L 429.238636 232.505859 
L 430.295455 250.32404 
L 431.352273 245.798788 
L 432.409091 244.101818 
L 433.465909 251.172525 
L 434.522727 250.889697 
L 435.579545 244.667475 
L 436.636364 245.233131 
L 437.693182 232.22303 
L 438.75 230.526061 
L 439.806818 248.909899 
L 440.863636 249.758384 
L 441.920455 250.32404 
L 442.977273 242.12202 
L 444.034091 242.404848 
L 445.090909 226.849293 
L 446.147727 235.61697 
L 447.204545 235.334141 
L 448.261364 244.950303 
L 449.318182 249.758384 
L 450.375 245.51596 
L 451.431818 246.364444 
L 452.488636 249.758384 
L 453.545455 236.465455 
L 454.602273 247.495758 
L 455.659091 242.12202 
L 456.715909 224.586667 
L 457.772727 250.889697 
L 458.829545 248.061414 
L 459.886364 232.788687 
L 460.943182 214.970505 
L 462 235.899798 
L 463.056818 248.061414 
L 464.113636 247.495758 
L 465.170455 250.32404 
L 466.227273 246.364444 
L 467.284091 231.091717 
L 468.340909 229.394747 
L 469.397727 219.778586 
L 470.454545 232.788687 
L 471.511364 248.344242 
L 472.568182 251.455354 
L 473.625 248.344242 
L 474.681818 249.758384 
L 475.738636 239.293737 
L 476.795455 186.12202 
L 477.852273 228.263434 
L 478.909091 242.12202 
L 479.965909 240.425051 
L 481.022727 229.677576 
L 482.079545 229.677576 
L 483.136364 219.212929 
L 484.193182 195.455354 
L 485.25 215.536162 
L 486.306818 246.081616 
L 487.363636 250.606869 
L 488.420455 223.172525 
L 489.477273 226.849293 
L 490.534091 210.445253 
L 491.590909 239.576566 
L 492.647727 235.334141 
L 493.704545 245.798788 
L 494.761364 248.061414 
L 495.818182 213.556364 
L 496.875 237.879596 
L 497.931818 249.475556 
L 498.988636 222.041212 
L 500.045455 160.101818 
L 501.102273 239.859394 
L 502.159091 235.051313 
L 503.215909 226.566465 
L 504.272727 227.697778 
L 505.329545 242.404848 
L 506.386364 231.374545 
L 507.443182 238.162424 
L 508.5 246.647273 
L 509.556818 245.51596 
L 510.613636 235.051313 
L 511.670455 248.909899 
L 512.727273 242.970505 
L 513.784091 228.263434 
L 515.897727 250.889697 
L 516.954545 250.041212 
L 518.011364 244.667475 
L 519.068182 230.526061 
L 520.125 240.142222 
L 521.181818 246.930101 
L 522.238636 247.778586 
L 523.295455 247.778586 
L 524.352273 248.627071 
L 525.409091 238.728081 
L 526.465909 234.768485 
L 527.522727 243.536162 
L 529.636364 236.748283 
L 530.693182 250.041212 
L 531.75 249.758384 
L 532.806818 233.637172 
L 533.863636 231.940202 
L 534.920455 245.233131 
L 537.034091 250.889697 
L 538.090909 248.344242 
L 539.147727 247.495758 
L 540.204545 244.101818 
L 541.261364 227.414949 
L 542.318182 237.596768 
L 543.375 238.162424 
L 544.431818 225.435152 
L 545.488636 249.758384 
L 546.545455 226.849293 
L 547.602273 228.546263 
L 548.659091 236.465455 
L 549.715909 200.263434 
L 550.772727 239.293737 
L 551.829545 220.344242 
L 552.886364 247.212929 
L 553.943182 248.061414 
L 555 228.829091 
L 556.056818 206.202828 
L 557.113636 242.12202 
L 558.170455 233.637172 
L 559.227273 236.465455 
L 560.284091 242.970505 
L 561.340909 232.22303 
L 562.397727 248.909899 
L 563.454545 242.404848 
L 564.511364 215.253333 
L 565.568182 235.051313 
L 566.625 239.293737 
L 567.681818 242.12202 
L 568.738636 242.404848 
L 569.795455 246.647273 
L 570.852273 248.909899 
L 571.909091 245.51596 
L 572.965909 248.627071 
L 574.022727 250.889697 
L 575.079545 249.475556 
L 576.136364 249.192727 
L 577.193182 246.647273 
L 578.25 215.81899 
L 580.363636 241.556364 
L 581.420455 242.687677 
L 582.477273 249.758384 
L 583.534091 250.889697 
L 584.590909 251.738182 
L 585.647727 243.253333 
L 586.704545 235.899798 
L 587.761364 240.707879 
L 588.818182 217.798788 
L 589.875 246.647273 
L 590.931818 245.798788 
L 591.988636 250.889697 
L 593.045455 247.495758 
L 594.102273 238.728081 
L 595.159091 244.384646 
L 596.215909 241.556364 
L 597.272727 245.51596 
L 598.329545 250.606869 
L 599.386364 250.041212 
L 600.443182 251.172525 
L 601.5 217.798788 
L 602.556818 218.364444 
L 603.613636 235.051313 
L 604.670455 247.495758 
L 605.727273 215.536162 
L 606.784091 246.647273 
L 607.840909 235.051313 
L 608.897727 210.728081 
L 609.954545 237.313939 
L 611.011364 207.61697 
L 612.068182 195.738182 
L 613.125 231.657374 
L 614.181818 250.606869 
L 615.238636 249.758384 
L 616.295455 193.758384 
L 617.352273 206.485657 
L 618.409091 222.32404 
L 619.465909 224.02101 
L 620.522727 175.091717 
L 621.579545 243.536162 
L 622.636364 245.233131 
L 622.636364 245.233131 
" clip-path="url(#p7f9acbb189)" style="fill: none; stroke: #1f77b4; stroke-width: 1.5; stroke-linecap: square"/>
   </g>
   <g id="line2d_28">
    <path d="M 115.363636 251.738182 
L 116.420455 249.475556 
L 117.477273 248.344242 
L 118.534091 249.475556 
L 119.590909 251.738182 
L 120.647727 250.041212 
L 121.704545 249.192727 
L 122.761364 249.192727 
L 123.818182 248.909899 
L 124.875 249.475556 
L 125.931818 251.455354 
L 130.159091 249.192727 
L 131.215909 248.909899 
L 132.272727 250.041212 
L 134.386364 251.738182 
L 135.443182 248.909899 
L 136.5 249.475556 
L 137.556818 250.606869 
L 138.613636 250.889697 
L 139.670455 250.606869 
L 140.727273 251.455354 
L 141.784091 251.172525 
L 142.840909 250.041212 
L 143.897727 251.172525 
L 144.954545 248.909899 
L 146.011364 249.758384 
L 147.068182 250.32404 
L 148.125 251.172525 
L 149.181818 251.172525 
L 150.238636 247.495758 
L 151.295455 251.455354 
L 152.352273 251.455354 
L 153.409091 251.172525 
L 155.522727 251.738182 
L 156.579545 251.455354 
L 157.636364 249.475556 
L 158.693182 246.930101 
L 159.75 248.627071 
L 160.806818 250.041212 
L 161.863636 250.041212 
L 162.920455 251.455354 
L 163.977273 250.32404 
L 165.034091 250.041212 
L 166.090909 250.889697 
L 167.147727 247.778586 
L 168.204545 249.475556 
L 169.261364 251.455354 
L 170.318182 251.738182 
L 171.375 249.192727 
L 173.488636 249.192727 
L 174.545455 250.041212 
L 175.602273 250.32404 
L 176.659091 251.172525 
L 177.715909 251.455354 
L 178.772727 250.889697 
L 179.829545 250.606869 
L 180.886364 251.172525 
L 183 251.172525 
L 184.056818 251.455354 
L 185.113636 250.889697 
L 187.227273 250.889697 
L 188.284091 251.738182 
L 189.340909 251.172525 
L 190.397727 251.172525 
L 191.454545 250.889697 
L 192.511364 249.758384 
L 193.568182 248.061414 
L 194.625 250.041212 
L 195.681818 251.172525 
L 196.738636 250.889697 
L 197.795455 250.889697 
L 198.852273 251.172525 
L 199.909091 249.475556 
L 200.965909 248.627071 
L 202.022727 249.758384 
L 203.079545 246.930101 
L 204.136364 249.758384 
L 205.193182 250.32404 
L 206.25 251.172525 
L 207.306818 250.606869 
L 208.363636 250.606869 
L 209.420455 248.344242 
L 210.477273 249.475556 
L 211.534091 249.192727 
L 212.590909 249.192727 
L 213.647727 250.32404 
L 214.704545 246.081616 
L 215.761364 247.778586 
L 216.818182 249.192727 
L 217.875 247.495758 
L 218.931818 246.364444 
L 219.988636 250.889697 
L 221.045455 250.606869 
L 222.102273 248.627071 
L 223.159091 250.041212 
L 224.215909 248.061414 
L 225.272727 249.475556 
L 226.329545 249.475556 
L 227.386364 250.889697 
L 228.443182 251.172525 
L 229.5 248.909899 
L 230.556818 248.061414 
L 231.613636 248.344242 
L 232.670455 250.889697 
L 233.727273 251.455354 
L 235.840909 250.889697 
L 236.897727 250.889697 
L 237.954545 249.475556 
L 239.011364 250.32404 
L 240.068182 248.909899 
L 241.125 250.889697 
L 242.181818 250.32404 
L 243.238636 250.889697 
L 244.295455 249.192727 
L 245.352273 248.909899 
L 246.409091 248.909899 
L 247.465909 248.061414 
L 248.522727 250.32404 
L 249.579545 250.889697 
L 250.636364 250.889697 
L 251.693182 242.404848 
L 252.75 248.909899 
L 253.806818 248.909899 
L 254.863636 247.495758 
L 255.920455 249.192727 
L 256.977273 250.606869 
L 258.034091 250.606869 
L 259.090909 246.364444 
L 260.147727 246.647273 
L 261.204545 248.344242 
L 262.261364 246.647273 
L 263.318182 247.495758 
L 264.375 250.041212 
L 265.431818 250.889697 
L 266.488636 247.495758 
L 267.545455 246.081616 
L 268.602273 247.212929 
L 269.659091 247.495758 
L 270.715909 249.475556 
L 271.772727 251.172525 
L 272.829545 250.041212 
L 273.886364 247.778586 
L 274.943182 247.778586 
L 276 248.627071 
L 277.056818 250.606869 
L 279.170455 251.172525 
L 280.227273 250.041212 
L 281.284091 246.364444 
L 282.340909 247.212929 
L 283.397727 248.627071 
L 284.454545 246.930101 
L 285.511364 249.758384 
L 286.568182 251.172525 
L 288.681818 249.475556 
L 289.738636 248.344242 
L 290.795455 248.627071 
L 291.852273 247.495758 
L 292.909091 249.192727 
L 293.965909 249.475556 
L 295.022727 250.889697 
L 296.079545 245.51596 
L 297.136364 248.061414 
L 298.193182 248.909899 
L 299.25 249.192727 
L 300.306818 249.192727 
L 301.363636 250.889697 
L 302.420455 250.32404 
L 303.477273 245.798788 
L 304.534091 244.384646 
L 305.590909 246.930101 
L 306.647727 248.909899 
L 307.704545 250.32404 
L 308.761364 249.192727 
L 309.818182 250.32404 
L 310.875 246.364444 
L 311.931818 246.647273 
L 312.988636 229.111919 
L 314.045455 248.061414 
L 315.102273 246.647273 
L 316.159091 250.606869 
L 317.215909 251.738182 
L 318.272727 249.758384 
L 319.329545 248.344242 
L 320.386364 248.344242 
L 321.443182 248.627071 
L 322.5 247.778586 
L 324.613636 251.172525 
L 325.670455 249.192727 
L 326.727273 248.344242 
L 327.784091 246.930101 
L 328.840909 247.212929 
L 329.897727 245.798788 
L 330.954545 250.606869 
L 332.011364 251.738182 
L 333.068182 245.798788 
L 334.125 247.212929 
L 335.181818 249.475556 
L 336.238636 247.495758 
L 337.295455 248.344242 
L 338.352273 251.455354 
L 339.409091 250.32404 
L 340.465909 248.344242 
L 341.522727 249.475556 
L 342.579545 248.061414 
L 343.636364 246.364444 
L 345.75 250.889697 
L 346.806818 251.172525 
L 347.863636 249.192727 
L 348.920455 247.778586 
L 349.977273 250.041212 
L 351.034091 249.475556 
L 352.090909 249.475556 
L 354.204545 250.041212 
L 355.261364 246.930101 
L 356.318182 248.909899 
L 357.375 248.909899 
L 358.431818 250.041212 
L 359.488636 249.192727 
L 360.545455 251.172525 
L 361.602273 250.32404 
L 362.659091 248.344242 
L 363.715909 249.192727 
L 364.772727 248.909899 
L 365.829545 248.344242 
L 366.886364 249.192727 
L 367.943182 251.172525 
L 369 250.889697 
L 370.056818 247.495758 
L 371.113636 250.606869 
L 372.170455 249.758384 
L 373.227273 249.192727 
L 374.284091 245.798788 
L 375.340909 251.172525 
L 376.397727 250.606869 
L 377.454545 249.758384 
L 378.511364 250.32404 
L 379.568182 248.909899 
L 380.625 248.061414 
L 381.681818 249.192727 
L 382.738636 250.889697 
L 383.795455 250.889697 
L 384.852273 249.475556 
L 385.909091 247.212929 
L 386.965909 247.212929 
L 388.022727 250.32404 
L 389.079545 248.627071 
L 390.136364 250.606869 
L 391.193182 249.475556 
L 392.25 247.778586 
L 393.306818 248.627071 
L 394.363636 248.627071 
L 395.420455 247.778586 
L 396.477273 248.061414 
L 397.534091 251.172525 
L 398.590909 251.738182 
L 399.647727 250.041212 
L 400.704545 250.041212 
L 401.761364 250.32404 
L 402.818182 250.32404 
L 403.875 250.606869 
L 405.988636 251.738182 
L 407.045455 250.32404 
L 408.102273 249.475556 
L 409.159091 249.758384 
L 410.215909 248.627071 
L 411.272727 251.172525 
L 412.329545 250.32404 
L 413.386364 251.738182 
L 414.443182 250.32404 
L 415.5 250.32404 
L 416.556818 248.344242 
L 417.613636 247.778586 
L 418.670455 249.475556 
L 419.727273 250.606869 
L 420.784091 250.606869 
L 421.840909 248.627071 
L 422.897727 249.475556 
L 423.954545 249.758384 
L 425.011364 249.758384 
L 426.068182 248.909899 
L 427.125 249.192727 
L 428.181818 250.606869 
L 429.238636 248.344242 
L 430.295455 251.455354 
L 431.352273 249.758384 
L 432.409091 249.758384 
L 433.465909 251.172525 
L 434.522727 250.889697 
L 435.579545 250.041212 
L 436.636364 250.041212 
L 437.693182 249.192727 
L 438.75 249.475556 
L 439.806818 251.172525 
L 440.863636 250.889697 
L 441.920455 251.455354 
L 442.977273 250.32404 
L 444.034091 250.606869 
L 445.090909 250.041212 
L 446.147727 248.627071 
L 447.204545 249.192727 
L 448.261364 250.32404 
L 449.318182 250.889697 
L 450.375 250.32404 
L 451.431818 251.455354 
L 452.488636 250.889697 
L 453.545455 249.192727 
L 454.602273 250.041212 
L 455.659091 251.172525 
L 456.715909 248.344242 
L 457.772727 251.455354 
L 458.829545 251.172525 
L 459.886364 248.061414 
L 462 249.192727 
L 463.056818 250.32404 
L 464.113636 249.758384 
L 465.170455 251.172525 
L 466.227273 250.606869 
L 467.284091 247.778586 
L 468.340909 249.758384 
L 469.397727 249.192727 
L 470.454545 249.758384 
L 471.511364 249.758384 
L 472.568182 251.455354 
L 473.625 251.455354 
L 474.681818 250.889697 
L 475.738636 248.344242 
L 477.852273 248.344242 
L 478.909091 249.758384 
L 479.965909 249.758384 
L 481.022727 248.909899 
L 482.079545 248.627071 
L 483.136364 247.212929 
L 484.193182 249.475556 
L 485.25 247.495758 
L 486.306818 250.041212 
L 487.363636 251.172525 
L 488.420455 250.32404 
L 489.477273 249.758384 
L 490.534091 248.061414 
L 491.590909 248.344242 
L 492.647727 249.192727 
L 493.704545 249.758384 
L 494.761364 250.041212 
L 495.818182 247.495758 
L 496.875 248.344242 
L 497.931818 250.606869 
L 498.988636 249.475556 
L 501.102273 248.909899 
L 502.159091 249.475556 
L 503.215909 247.495758 
L 504.272727 250.041212 
L 505.329545 250.32404 
L 506.386364 248.344242 
L 507.443182 248.909899 
L 508.5 250.889697 
L 509.556818 250.32404 
L 510.613636 249.475556 
L 511.670455 250.889697 
L 512.727273 249.192727 
L 513.784091 248.627071 
L 514.840909 248.909899 
L 515.897727 251.172525 
L 516.954545 251.172525 
L 518.011364 249.192727 
L 519.068182 250.32404 
L 520.125 247.778586 
L 522.238636 250.041212 
L 523.295455 250.606869 
L 524.352273 250.041212 
L 525.409091 248.909899 
L 526.465909 247.212929 
L 527.522727 248.344242 
L 528.579545 247.778586 
L 529.636364 248.909899 
L 530.693182 250.606869 
L 531.75 250.889697 
L 532.806818 249.192727 
L 533.863636 250.606869 
L 534.920455 249.758384 
L 535.977273 250.041212 
L 537.034091 251.455354 
L 538.090909 250.889697 
L 539.147727 250.889697 
L 540.204545 251.455354 
L 541.261364 249.475556 
L 542.318182 250.32404 
L 543.375 248.909899 
L 544.431818 250.606869 
L 545.488636 251.172525 
L 546.545455 248.909899 
L 547.602273 250.041212 
L 548.659091 249.475556 
L 549.715909 249.475556 
L 550.772727 246.647273 
L 551.829545 246.364444 
L 552.886364 250.32404 
L 553.943182 250.32404 
L 555 248.627071 
L 556.056818 248.627071 
L 557.113636 250.32404 
L 559.227273 249.192727 
L 560.284091 250.32404 
L 561.340909 250.606869 
L 562.397727 250.606869 
L 563.454545 249.475556 
L 564.511364 248.061414 
L 565.568182 249.758384 
L 566.625 250.606869 
L 567.681818 250.889697 
L 568.738636 249.475556 
L 569.795455 251.738182 
L 570.852273 251.455354 
L 571.909091 250.889697 
L 572.965909 250.889697 
L 574.022727 251.172525 
L 575.079545 250.606869 
L 576.136364 251.172525 
L 577.193182 250.32404 
L 578.25 244.384646 
L 579.306818 247.212929 
L 580.363636 249.192727 
L 583.534091 250.889697 
L 584.590909 251.738182 
L 585.647727 249.475556 
L 586.704545 249.475556 
L 587.761364 248.909899 
L 588.818182 245.798788 
L 589.875 250.606869 
L 590.931818 251.738182 
L 591.988636 251.455354 
L 593.045455 250.606869 
L 594.102273 248.061414 
L 595.159091 250.889697 
L 596.215909 250.041212 
L 597.272727 248.344242 
L 598.329545 251.172525 
L 599.386364 251.172525 
L 600.443182 251.455354 
L 601.5 250.041212 
L 602.556818 247.778586 
L 603.613636 248.627071 
L 604.670455 249.758384 
L 605.727273 249.192727 
L 606.784091 250.889697 
L 607.840909 250.606869 
L 608.897727 248.061414 
L 609.954545 249.192727 
L 611.011364 246.930101 
L 612.068182 246.364444 
L 613.125 246.930101 
L 614.181818 251.172525 
L 615.238636 251.738182 
L 616.295455 247.778586 
L 617.352273 245.798788 
L 618.409091 247.778586 
L 619.465909 246.647273 
L 620.522727 242.970505 
L 621.579545 249.475556 
L 622.636364 249.192727 
L 622.636364 249.192727 
" clip-path="url(#p7f9acbb189)" style="fill: none; stroke: #ff7f0e; stroke-width: 1.5; stroke-linecap: square"/>
   </g>
   <g id="patch_9">
    <path d="M 90 256.32 
L 90 155.52 
" style="fill: none; stroke: #000000; stroke-width: 0.8; stroke-linejoin: miter; stroke-linecap: square"/>
   </g>
   <g id="patch_10">
    <path d="M 648 256.32 
L 648 155.52 
" style="fill: none; stroke: #000000; stroke-width: 0.8; stroke-linejoin: miter; stroke-linecap: square"/>
   </g>
   <g id="patch_11">
    <path d="M 90 256.32 
L 648 256.32 
" style="fill: none; stroke: #000000; stroke-width: 0.8; stroke-linejoin: miter; stroke-linecap: square"/>
   </g>
   <g id="patch_12">
    <path d="M 90 155.52 
L 648 155.52 
" style="fill: none; stroke: #000000; stroke-width: 0.8; stroke-linejoin: miter; stroke-linecap: square"/>
   </g>
   <g id="legend_2">
    <g id="patch_13">
     <path d="M 97 192.87625 
L 234.217188 192.87625 
Q 236.217188 192.87625 236.217188 190.87625 
L 236.217188 162.52 
Q 236.217188 160.52 234.217188 160.52 
L 97 160.52 
Q 95 160.52 95 162.52 
L 95 190.87625 
Q 95 192.87625 97 192.87625 
z
" style="fill: #ffffff; opacity: 0.8; stroke: #cccccc; stroke-linejoin: miter"/>
    </g>
    <g id="line2d_29">
     <path d="M 99 168.618437 
L 109 168.618437 
L 119 168.618437 
" style="fill: none; stroke: #1f77b4; stroke-width: 1.5; stroke-linecap: square"/>
    </g>
    <g id="text_26">
     <!-- Total GitHub Views -->
     <g transform="translate(127 172.118437)scale(0.1 -0.1)">
      <defs>
       <path id="DejaVuSans-56" d="M 1831 0 
L 50 4666 
L 709 4666 
L 2188 738 
L 3669 4666 
L 4325 4666 
L 2547 0 
L 1831 0 
z
" transform="scale(0.015625)"/>
       <path id="DejaVuSans-77" d="M 269 3500 
L 844 3500 
L 1563 769 
L 2278 3500 
L 2956 3500 
L 3675 769 
L 4391 3500 
L 4966 3500 
L 4050 0 
L 3372 0 
L 2619 2869 
L 1863 0 
L 1184 0 
L 269 3500 
z
" transform="scale(0.015625)"/>
      </defs>
      <use xlink:href="#DejaVuSans-54"/>
      <use xlink:href="#DejaVuSans-6f" x="44.083984"/>
      <use xlink:href="#DejaVuSans-74" x="105.265625"/>
      <use xlink:href="#DejaVuSans-61" x="144.474609"/>
      <use xlink:href="#DejaVuSans-6c" x="205.753906"/>
      <use xlink:href="#DejaVuSans-20" x="233.537109"/>
      <use xlink:href="#DejaVuSans-47" x="265.324219"/>
      <use xlink:href="#DejaVuSans-69" x="342.814453"/>
      <use xlink:href="#DejaVuSans-74" x="370.597656"/>
      <use xlink:href="#DejaVuSans-48" x="409.806641"/>
      <use xlink:href="#DejaVuSans-75" x="485.001953"/>
      <use xlink:href="#DejaVuSans-62" x="548.380859"/>
      <use xlink:href="#DejaVuSans-20" x="611.857422"/>
      <use xlink:href="#DejaVuSans-56" x="643.644531"/>
      <use xlink:href="#DejaVuSans-69" x="709.802734"/>
      <use xlink:href="#DejaVuSans-65" x="737.585938"/>
      <use xlink:href="#DejaVuSans-77" x="799.109375"/>
      <use xlink:href="#DejaVuSans-73" x="880.896484"/>
     </g>
    </g>
    <g id="line2d_30">
     <path d="M 99 183.296562 
L 109 183.296562 
L 119 183.296562 
" style="fill: none; stroke: #ff7f0e; stroke-width: 1.5; stroke-linecap: square"/>
    </g>
    <g id="text_27">
     <!-- Unique GitHub Views -->
     <g transform="translate(127 186.796562)scale(0.1 -0.1)">
      <use xlink:href="#DejaVuSans-55"/>
      <use xlink:href="#DejaVuSans-6e" x="73.193359"/>
      <use xlink:href="#DejaVuSans-69" x="136.572266"/>
      <use xlink:href="#DejaVuSans-71" x="164.355469"/>
      <use xlink:href="#DejaVuSans-75" x="227.832031"/>
      <use xlink:href="#DejaVuSans-65" x="291.210938"/>
      <use xlink:href="#DejaVuSans-20" x="352.734375"/>
      <use xlink:href="#DejaVuSans-47" x="384.521484"/>
      <use xlink:href="#DejaVuSans-69" x="462.011719"/>
      <use xlink:href="#DejaVuSans-74" x="489.794922"/>
      <use xlink:href="#DejaVuSans-48" x="529.003906"/>
      <use xlink:href="#DejaVuSans-75" x="604.199219"/>
      <use xlink:href="#DejaVuSans-62" x="667.578125"/>
      <use xlink:href="#DejaVuSans-20" x="731.054688"/>
      <use xlink:href="#DejaVuSans-56" x="762.841797"/>
      <use xlink:href="#DejaVuSans-69" x="829"/>
      <use xlink:href="#DejaVuSans-65" x="856.783203"/>
      <use xlink:href="#DejaVuSans-77" x="918.306641"/>
      <use xlink:href="#DejaVuSans-73" x="1000.09375"/>
     </g>
    </g>
   </g>
  </g>
 </g>
 <defs>
  <clipPath id="p55cf06aa84">
   <rect x="90" y="34.56" width="558" height="100.8"/>
  </clipPath>
  <clipPath id="p7f9acbb189">
   <rect x="90" y="155.52" width="558" height="100.8"/>
  </clipPath>
 </defs>
</svg>
