<?xml version="1.0" encoding="utf-8" standalone="no"?>
<!DOCTYPE svg PUBLIC "-//W3C//DTD SVG 1.1//EN"
  "http://www.w3.org/Graphics/SVG/1.1/DTD/svg11.dtd">
<svg xmlns:xlink="http://www.w3.org/1999/xlink" width="720pt" height="288pt" viewBox="0 0 720 288" xmlns="http://www.w3.org/2000/svg" version="1.1">
 <metadata>
  <rdf:RDF xmlns:dc="http://purl.org/dc/elements/1.1/" xmlns:cc="http://creativecommons.org/ns#" xmlns:rdf="http://www.w3.org/1999/02/22-rdf-syntax-ns#">
   <cc:Work>
    <dc:type rdf:resource="http://purl.org/dc/dcmitype/StillImage"/>
    <dc:date>2022-08-22T00:54:47.465827</dc:date>
    <dc:format>image/svg+xml</dc:format>
    <dc:creator>
     <cc:Agent>
      <dc:title>Matplotlib v3.5.3, https://matplotlib.org/</dc:title>
     </cc:Agent>
    </dc:creator>
   </cc:Work>
  </rdf:RDF>
 </metadata>
 <defs>
  <style type="text/css">*{stroke-linejoin: round; stroke-linecap: butt}</style>
 </defs>
 <g id="figure_1">
  <g id="patch_1">
   <path d="M 0 288 
L 720 288 
L 720 0 
L 0 0 
z
" style="fill: #ffffff"/>
  </g>
  <g id="axes_1">
   <g id="patch_2">
    <path d="M 90 135.36 
L 648 135.36 
L 648 34.56 
L 90 34.56 
z
" style="fill: #ffffff"/>
   </g>
   <g id="matplotlib.axis_1">
    <g id="xtick_1">
     <g id="line2d_1">
      <defs>
       <path id="m3f3ab940a8" d="M 0 0 
L 0 3.5 
" style="stroke: #000000; stroke-width: 0.8"/>
      </defs>
      <g>
       <use xlink:href="#m3f3ab940a8" x="115.363636" y="135.36" style="stroke: #000000; stroke-width: 0.8"/>
      </g>
     </g>
     <g id="text_1">
      <!-- 2020-10-22 -->
      <g transform="translate(86.305824 149.958437)scale(0.1 -0.1)">
       <defs>
        <path id="DejaVuSans-32" d="M 1228 531 
L 3431 531 
L 3431 0 
L 469 0 
L 469 531 
Q 828 903 1448 1529 
Q 2069 2156 2228 2338 
Q 2531 2678 2651 2914 
Q 2772 3150 2772 3378 
Q 2772 3750 2511 3984 
Q 2250 4219 1831 4219 
Q 1534 4219 1204 4116 
Q 875 4013 500 3803 
L 500 4441 
Q 881 4594 1212 4672 
Q 1544 4750 1819 4750 
Q 2544 4750 2975 4387 
Q 3406 4025 3406 3419 
Q 3406 3131 3298 2873 
Q 3191 2616 2906 2266 
Q 2828 2175 2409 1742 
Q 1991 1309 1228 531 
z
" transform="scale(0.015625)"/>
        <path id="DejaVuSans-30" d="M 2034 4250 
Q 1547 4250 1301 3770 
Q 1056 3291 1056 2328 
Q 1056 1369 1301 889 
Q 1547 409 2034 409 
Q 2525 409 2770 889 
Q 3016 1369 3016 2328 
Q 3016 3291 2770 3770 
Q 2525 4250 2034 4250 
z
M 2034 4750 
Q 2819 4750 3233 4129 
Q 3647 3509 3647 2328 
Q 3647 1150 3233 529 
Q 2819 -91 2034 -91 
Q 1250 -91 836 529 
Q 422 1150 422 2328 
Q 422 3509 836 4129 
Q 1250 4750 2034 4750 
z
" transform="scale(0.015625)"/>
        <path id="DejaVuSans-2d" d="M 313 2009 
L 1997 2009 
L 1997 1497 
L 313 1497 
L 313 2009 
z
" transform="scale(0.015625)"/>
        <path id="DejaVuSans-31" d="M 794 531 
L 1825 531 
L 1825 4091 
L 703 3866 
L 703 4441 
L 1819 4666 
L 2450 4666 
L 2450 531 
L 3481 531 
L 3481 0 
L 794 0 
L 794 531 
z
" transform="scale(0.015625)"/>
       </defs>
       <use xlink:href="#DejaVuSans-32"/>
       <use xlink:href="#DejaVuSans-30" x="63.623047"/>
       <use xlink:href="#DejaVuSans-32" x="127.246094"/>
       <use xlink:href="#DejaVuSans-30" x="190.869141"/>
       <use xlink:href="#DejaVuSans-2d" x="254.492188"/>
       <use xlink:href="#DejaVuSans-31" x="290.576172"/>
       <use xlink:href="#DejaVuSans-30" x="354.199219"/>
       <use xlink:href="#DejaVuSans-2d" x="417.822266"/>
       <use xlink:href="#DejaVuSans-32" x="453.90625"/>
       <use xlink:href="#DejaVuSans-32" x="517.529297"/>
      </g>
     </g>
    </g>
    <g id="xtick_2">
     <g id="line2d_2">
      <g>
       <use xlink:href="#m3f3ab940a8" x="211.256401" y="135.36" style="stroke: #000000; stroke-width: 0.8"/>
      </g>
     </g>
     <g id="text_2">
      <!-- 2021-03-17 -->
      <g transform="translate(182.198589 149.958437)scale(0.1 -0.1)">
       <defs>
        <path id="DejaVuSans-33" d="M 2597 2516 
Q 3050 2419 3304 2112 
Q 3559 1806 3559 1356 
Q 3559 666 3084 287 
Q 2609 -91 1734 -91 
Q 1441 -91 1130 -33 
Q 819 25 488 141 
L 488 750 
Q 750 597 1062 519 
Q 1375 441 1716 441 
Q 2309 441 2620 675 
Q 2931 909 2931 1356 
Q 2931 1769 2642 2001 
Q 2353 2234 1838 2234 
L 1294 2234 
L 1294 2753 
L 1863 2753 
Q 2328 2753 2575 2939 
Q 2822 3125 2822 3475 
Q 2822 3834 2567 4026 
Q 2313 4219 1838 4219 
Q 1578 4219 1281 4162 
Q 984 4106 628 3988 
L 628 4550 
Q 988 4650 1302 4700 
Q 1616 4750 1894 4750 
Q 2613 4750 3031 4423 
Q 3450 4097 3450 3541 
Q 3450 3153 3228 2886 
Q 3006 2619 2597 2516 
z
" transform="scale(0.015625)"/>
        <path id="DejaVuSans-37" d="M 525 4666 
L 3525 4666 
L 3525 4397 
L 1831 0 
L 1172 0 
L 2766 4134 
L 525 4134 
L 525 4666 
z
" transform="scale(0.015625)"/>
       </defs>
       <use xlink:href="#DejaVuSans-32"/>
       <use xlink:href="#DejaVuSans-30" x="63.623047"/>
       <use xlink:href="#DejaVuSans-32" x="127.246094"/>
       <use xlink:href="#DejaVuSans-31" x="190.869141"/>
       <use xlink:href="#DejaVuSans-2d" x="254.492188"/>
       <use xlink:href="#DejaVuSans-30" x="290.576172"/>
       <use xlink:href="#DejaVuSans-33" x="354.199219"/>
       <use xlink:href="#DejaVuSans-2d" x="417.822266"/>
       <use xlink:href="#DejaVuSans-31" x="453.90625"/>
       <use xlink:href="#DejaVuSans-37" x="517.529297"/>
      </g>
     </g>
    </g>
    <g id="xtick_3">
     <g id="line2d_3">
      <g>
       <use xlink:href="#m3f3ab940a8" x="307.149167" y="135.36" style="stroke: #000000; stroke-width: 0.8"/>
      </g>
     </g>
     <g id="text_3">
      <!-- 2021-07-07 -->
      <g transform="translate(278.091354 149.958437)scale(0.1 -0.1)">
       <use xlink:href="#DejaVuSans-32"/>
       <use xlink:href="#DejaVuSans-30" x="63.623047"/>
       <use xlink:href="#DejaVuSans-32" x="127.246094"/>
       <use xlink:href="#DejaVuSans-31" x="190.869141"/>
       <use xlink:href="#DejaVuSans-2d" x="254.492188"/>
       <use xlink:href="#DejaVuSans-30" x="290.576172"/>
       <use xlink:href="#DejaVuSans-37" x="354.199219"/>
       <use xlink:href="#DejaVuSans-2d" x="417.822266"/>
       <use xlink:href="#DejaVuSans-30" x="453.90625"/>
       <use xlink:href="#DejaVuSans-37" x="517.529297"/>
      </g>
     </g>
    </g>
    <g id="xtick_4">
     <g id="line2d_4">
      <g>
       <use xlink:href="#m3f3ab940a8" x="403.041932" y="135.36" style="stroke: #000000; stroke-width: 0.8"/>
      </g>
     </g>
     <g id="text_4">
      <!-- 2021-11-18 -->
      <g transform="translate(373.984119 149.958437)scale(0.1 -0.1)">
       <defs>
        <path id="DejaVuSans-38" d="M 2034 2216 
Q 1584 2216 1326 1975 
Q 1069 1734 1069 1313 
Q 1069 891 1326 650 
Q 1584 409 2034 409 
Q 2484 409 2743 651 
Q 3003 894 3003 1313 
Q 3003 1734 2745 1975 
Q 2488 2216 2034 2216 
z
M 1403 2484 
Q 997 2584 770 2862 
Q 544 3141 544 3541 
Q 544 4100 942 4425 
Q 1341 4750 2034 4750 
Q 2731 4750 3128 4425 
Q 3525 4100 3525 3541 
Q 3525 3141 3298 2862 
Q 3072 2584 2669 2484 
Q 3125 2378 3379 2068 
Q 3634 1759 3634 1313 
Q 3634 634 3220 271 
Q 2806 -91 2034 -91 
Q 1263 -91 848 271 
Q 434 634 434 1313 
Q 434 1759 690 2068 
Q 947 2378 1403 2484 
z
M 1172 3481 
Q 1172 3119 1398 2916 
Q 1625 2713 2034 2713 
Q 2441 2713 2670 2916 
Q 2900 3119 2900 3481 
Q 2900 3844 2670 4047 
Q 2441 4250 2034 4250 
Q 1625 4250 1398 4047 
Q 1172 3844 1172 3481 
z
" transform="scale(0.015625)"/>
       </defs>
       <use xlink:href="#DejaVuSans-32"/>
       <use xlink:href="#DejaVuSans-30" x="63.623047"/>
       <use xlink:href="#DejaVuSans-32" x="127.246094"/>
       <use xlink:href="#DejaVuSans-31" x="190.869141"/>
       <use xlink:href="#DejaVuSans-2d" x="254.492188"/>
       <use xlink:href="#DejaVuSans-31" x="290.576172"/>
       <use xlink:href="#DejaVuSans-31" x="354.199219"/>
       <use xlink:href="#DejaVuSans-2d" x="417.822266"/>
       <use xlink:href="#DejaVuSans-31" x="453.90625"/>
       <use xlink:href="#DejaVuSans-38" x="517.529297"/>
      </g>
     </g>
    </g>
    <g id="xtick_5">
     <g id="line2d_5">
      <g>
       <use xlink:href="#m3f3ab940a8" x="498.934697" y="135.36" style="stroke: #000000; stroke-width: 0.8"/>
      </g>
     </g>
     <g id="text_5">
      <!-- 2022-03-21 -->
      <g transform="translate(469.876884 149.958437)scale(0.1 -0.1)">
       <use xlink:href="#DejaVuSans-32"/>
       <use xlink:href="#DejaVuSans-30" x="63.623047"/>
       <use xlink:href="#DejaVuSans-32" x="127.246094"/>
       <use xlink:href="#DejaVuSans-32" x="190.869141"/>
       <use xlink:href="#DejaVuSans-2d" x="254.492188"/>
       <use xlink:href="#DejaVuSans-30" x="290.576172"/>
       <use xlink:href="#DejaVuSans-33" x="354.199219"/>
       <use xlink:href="#DejaVuSans-2d" x="417.822266"/>
       <use xlink:href="#DejaVuSans-32" x="453.90625"/>
       <use xlink:href="#DejaVuSans-31" x="517.529297"/>
      </g>
     </g>
    </g>
    <g id="xtick_6">
     <g id="line2d_6">
      <g>
       <use xlink:href="#m3f3ab940a8" x="594.827462" y="135.36" style="stroke: #000000; stroke-width: 0.8"/>
      </g>
     </g>
     <g id="text_6">
      <!-- 2022-07-21 -->
      <g transform="translate(565.769649 149.958437)scale(0.1 -0.1)">
       <use xlink:href="#DejaVuSans-32"/>
       <use xlink:href="#DejaVuSans-30" x="63.623047"/>
       <use xlink:href="#DejaVuSans-32" x="127.246094"/>
       <use xlink:href="#DejaVuSans-32" x="190.869141"/>
       <use xlink:href="#DejaVuSans-2d" x="254.492188"/>
       <use xlink:href="#DejaVuSans-30" x="290.576172"/>
       <use xlink:href="#DejaVuSans-37" x="354.199219"/>
       <use xlink:href="#DejaVuSans-2d" x="417.822266"/>
       <use xlink:href="#DejaVuSans-32" x="453.90625"/>
       <use xlink:href="#DejaVuSans-31" x="517.529297"/>
      </g>
     </g>
    </g>
    <g id="text_7">
     <!-- _date -->
     <g transform="translate(355.225 163.636562)scale(0.1 -0.1)">
      <defs>
       <path id="DejaVuSans-5f" d="M 3263 -1063 
L 3263 -1509 
L -63 -1509 
L -63 -1063 
L 3263 -1063 
z
" transform="scale(0.015625)"/>
       <path id="DejaVuSans-64" d="M 2906 2969 
L 2906 4863 
L 3481 4863 
L 3481 0 
L 2906 0 
L 2906 525 
Q 2725 213 2448 61 
Q 2172 -91 1784 -91 
Q 1150 -91 751 415 
Q 353 922 353 1747 
Q 353 2572 751 3078 
Q 1150 3584 1784 3584 
Q 2172 3584 2448 3432 
Q 2725 3281 2906 2969 
z
M 947 1747 
Q 947 1113 1208 752 
Q 1469 391 1925 391 
Q 2381 391 2643 752 
Q 2906 1113 2906 1747 
Q 2906 2381 2643 2742 
Q 2381 3103 1925 3103 
Q 1469 3103 1208 2742 
Q 947 2381 947 1747 
z
" transform="scale(0.015625)"/>
       <path id="DejaVuSans-61" d="M 2194 1759 
Q 1497 1759 1228 1600 
Q 959 1441 959 1056 
Q 959 750 1161 570 
Q 1363 391 1709 391 
Q 2188 391 2477 730 
Q 2766 1069 2766 1631 
L 2766 1759 
L 2194 1759 
z
M 3341 1997 
L 3341 0 
L 2766 0 
L 2766 531 
Q 2569 213 2275 61 
Q 1981 -91 1556 -91 
Q 1019 -91 701 211 
Q 384 513 384 1019 
Q 384 1609 779 1909 
Q 1175 2209 1959 2209 
L 2766 2209 
L 2766 2266 
Q 2766 2663 2505 2880 
Q 2244 3097 1772 3097 
Q 1472 3097 1187 3025 
Q 903 2953 641 2809 
L 641 3341 
Q 956 3463 1253 3523 
Q 1550 3584 1831 3584 
Q 2591 3584 2966 3190 
Q 3341 2797 3341 1997 
z
" transform="scale(0.015625)"/>
       <path id="DejaVuSans-74" d="M 1172 4494 
L 1172 3500 
L 2356 3500 
L 2356 3053 
L 1172 3053 
L 1172 1153 
Q 1172 725 1289 603 
Q 1406 481 1766 481 
L 2356 481 
L 2356 0 
L 1766 0 
Q 1100 0 847 248 
Q 594 497 594 1153 
L 594 3053 
L 172 3053 
L 172 3500 
L 594 3500 
L 594 4494 
L 1172 4494 
z
" transform="scale(0.015625)"/>
       <path id="DejaVuSans-65" d="M 3597 1894 
L 3597 1613 
L 953 1613 
Q 991 1019 1311 708 
Q 1631 397 2203 397 
Q 2534 397 2845 478 
Q 3156 559 3463 722 
L 3463 178 
Q 3153 47 2828 -22 
Q 2503 -91 2169 -91 
Q 1331 -91 842 396 
Q 353 884 353 1716 
Q 353 2575 817 3079 
Q 1281 3584 2069 3584 
Q 2775 3584 3186 3129 
Q 3597 2675 3597 1894 
z
M 3022 2063 
Q 3016 2534 2758 2815 
Q 2500 3097 2075 3097 
Q 1594 3097 1305 2825 
Q 1016 2553 972 2059 
L 3022 2063 
z
" transform="scale(0.015625)"/>
      </defs>
      <use xlink:href="#DejaVuSans-5f"/>
      <use xlink:href="#DejaVuSans-64" x="50"/>
      <use xlink:href="#DejaVuSans-61" x="113.476562"/>
      <use xlink:href="#DejaVuSans-74" x="174.755859"/>
      <use xlink:href="#DejaVuSans-65" x="213.964844"/>
     </g>
    </g>
   </g>
   <g id="matplotlib.axis_2">
    <g id="ytick_1">
     <g id="line2d_7">
      <defs>
       <path id="m9fcc73bad0" d="M 0 0 
L -3.5 0 
" style="stroke: #000000; stroke-width: 0.8"/>
      </defs>
      <g>
       <use xlink:href="#m9fcc73bad0" x="90" y="131.401558" style="stroke: #000000; stroke-width: 0.8"/>
      </g>
     </g>
     <g id="text_8">
      <!-- 0 -->
      <g transform="translate(76.6375 135.200777)scale(0.1 -0.1)">
       <use xlink:href="#DejaVuSans-30"/>
      </g>
     </g>
    </g>
    <g id="ytick_2">
     <g id="line2d_8">
      <g>
       <use xlink:href="#m9fcc73bad0" x="90" y="100.232727" style="stroke: #000000; stroke-width: 0.8"/>
      </g>
     </g>
     <g id="text_9">
      <!-- 50 -->
      <g transform="translate(70.275 104.031946)scale(0.1 -0.1)">
       <defs>
        <path id="DejaVuSans-35" d="M 691 4666 
L 3169 4666 
L 3169 4134 
L 1269 4134 
L 1269 2991 
Q 1406 3038 1543 3061 
Q 1681 3084 1819 3084 
Q 2600 3084 3056 2656 
Q 3513 2228 3513 1497 
Q 3513 744 3044 326 
Q 2575 -91 1722 -91 
Q 1428 -91 1123 -41 
Q 819 9 494 109 
L 494 744 
Q 775 591 1075 516 
Q 1375 441 1709 441 
Q 2250 441 2565 725 
Q 2881 1009 2881 1497 
Q 2881 1984 2565 2268 
Q 2250 2553 1709 2553 
Q 1456 2553 1204 2497 
Q 953 2441 691 2322 
L 691 4666 
z
" transform="scale(0.015625)"/>
       </defs>
       <use xlink:href="#DejaVuSans-35"/>
       <use xlink:href="#DejaVuSans-30" x="63.623047"/>
      </g>
     </g>
    </g>
    <g id="ytick_3">
     <g id="line2d_9">
      <g>
       <use xlink:href="#m9fcc73bad0" x="90" y="69.063896" style="stroke: #000000; stroke-width: 0.8"/>
      </g>
     </g>
     <g id="text_10">
      <!-- 100 -->
      <g transform="translate(63.9125 72.863115)scale(0.1 -0.1)">
       <use xlink:href="#DejaVuSans-31"/>
       <use xlink:href="#DejaVuSans-30" x="63.623047"/>
       <use xlink:href="#DejaVuSans-30" x="127.246094"/>
      </g>
     </g>
    </g>
    <g id="ytick_4">
     <g id="line2d_10">
      <g>
       <use xlink:href="#m9fcc73bad0" x="90" y="37.895065" style="stroke: #000000; stroke-width: 0.8"/>
      </g>
     </g>
     <g id="text_11">
      <!-- 150 -->
      <g transform="translate(63.9125 41.694284)scale(0.1 -0.1)">
       <use xlink:href="#DejaVuSans-31"/>
       <use xlink:href="#DejaVuSans-35" x="63.623047"/>
       <use xlink:href="#DejaVuSans-30" x="127.246094"/>
      </g>
     </g>
    </g>
   </g>
   <g id="line2d_11">
    <path d="M 115.363636 127.661299 
L 116.322564 128.284675 
L 117.281492 130.778182 
L 118.240419 130.778182 
L 119.199347 129.531429 
L 120.158275 129.531429 
L 121.117202 120.804156 
L 122.07613 120.804156 
L 123.035058 130.778182 
L 123.993985 130.778182 
L 124.952913 124.544416 
L 125.911841 126.414545 
L 126.870768 130.778182 
L 127.829696 127.661299 
L 128.788623 128.908052 
L 129.747551 128.908052 
L 130.706479 130.778182 
L 132.624334 128.284675 
L 133.583262 130.154805 
L 134.542189 130.778182 
L 135.501117 130.154805 
L 136.460045 130.154805 
L 137.418972 129.531429 
L 138.3779 130.154805 
L 139.336828 130.154805 
L 140.295755 128.908052 
L 141.254683 130.154805 
L 142.213611 130.154805 
L 143.172538 122.674286 
L 144.131466 127.661299 
L 145.090394 130.154805 
L 146.049321 115.817143 
L 147.008249 130.778182 
L 154.67967 130.778182 
L 155.638598 130.154805 
L 156.597525 130.778182 
L 163.310019 130.778182 
L 164.268947 128.908052 
L 165.227874 129.531429 
L 166.186802 130.778182 
L 167.14573 129.531429 
L 168.104657 127.661299 
L 169.063585 130.154805 
L 170.022512 130.154805 
L 170.98144 128.908052 
L 171.940368 120.804156 
L 172.899295 130.154805 
L 173.858223 130.778182 
L 174.817151 130.154805 
L 175.776078 127.037922 
L 176.735006 130.154805 
L 177.693934 129.531429 
L 178.652861 125.167792 
L 179.611789 128.908052 
L 180.570717 127.037922 
L 181.529644 130.154805 
L 182.488572 129.531429 
L 183.4475 130.154805 
L 184.406427 129.531429 
L 186.324283 129.531429 
L 187.28321 128.284675 
L 188.242138 130.778182 
L 189.201065 130.778182 
L 190.159993 128.284675 
L 191.118921 128.284675 
L 192.077848 125.167792 
L 193.036776 129.531429 
L 193.995704 127.661299 
L 194.954631 130.778182 
L 195.913559 125.791169 
L 196.872487 128.908052 
L 197.831414 129.531429 
L 198.790342 128.908052 
L 199.74927 126.414545 
L 200.708197 130.154805 
L 201.667125 128.284675 
L 202.626053 121.427532 
L 203.58498 126.414545 
L 204.543908 120.804156 
L 205.502836 87.141818 
L 206.461763 127.661299 
L 207.420691 130.778182 
L 208.379618 128.908052 
L 209.338546 123.297662 
L 210.297474 124.544416 
L 211.256401 127.661299 
L 212.215329 119.557403 
L 213.174257 128.908052 
L 214.133184 128.908052 
L 215.092112 130.154805 
L 216.05104 122.674286 
L 217.009967 124.544416 
L 217.968895 130.778182 
L 218.927823 129.531429 
L 219.88675 130.778182 
L 220.845678 128.284675 
L 221.804606 100.232727 
L 222.763533 118.310649 
L 223.722461 121.427532 
L 224.681389 127.661299 
L 225.640316 130.778182 
L 226.599244 126.414545 
L 227.558172 128.908052 
L 228.517099 122.050909 
L 229.476027 128.908052 
L 230.434954 123.297662 
L 231.393882 115.817143 
L 232.35281 122.674286 
L 233.311737 127.661299 
L 234.270665 115.193766 
L 235.229593 115.193766 
L 236.18852 116.440519 
L 237.147448 92.128831 
L 238.106376 107.08987 
L 239.065303 107.08987 
L 240.024231 119.557403 
L 240.983159 110.206753 
L 241.942086 118.934026 
L 242.901014 129.531429 
L 243.859942 130.154805 
L 244.818869 116.440519 
L 245.777797 114.57039 
L 246.736725 115.817143 
L 247.695652 111.453506 
L 248.65458 105.843117 
L 249.613507 128.284675 
L 250.572435 130.154805 
L 251.531363 116.440519 
L 252.49029 117.687273 
L 253.449218 100.232727 
L 254.408146 115.817143 
L 255.367073 116.440519 
L 256.326001 130.154805 
L 257.284929 128.908052 
L 258.243856 114.57039 
L 259.202784 102.102857 
L 260.161712 117.063896 
L 261.120639 113.323636 
L 262.079567 95.245714 
L 263.038495 117.063896 
L 263.997422 130.154805 
L 264.95635 114.57039 
L 265.915278 105.843117 
L 266.874205 102.726234 
L 267.833133 108.96 
L 268.79206 111.453506 
L 269.750988 129.531429 
L 270.709916 115.193766 
L 271.668843 108.336623 
L 272.627771 115.817143 
L 273.586699 115.193766 
L 274.545626 113.947013 
L 275.504554 125.791169 
L 276.463482 115.817143 
L 277.422409 113.323636 
L 278.381337 115.817143 
L 279.340265 116.440519 
L 280.299192 116.440519 
L 281.25812 130.778182 
L 282.217048 130.778182 
L 283.175975 115.193766 
L 284.134903 112.076883 
L 285.093831 115.193766 
L 286.052758 102.726234 
L 287.011686 105.843117 
L 287.970614 130.778182 
L 288.929541 115.817143 
L 289.888469 113.947013 
L 290.847396 113.323636 
L 291.806324 112.076883 
L 292.765252 117.063896 
L 293.724179 130.154805 
L 294.683107 114.57039 
L 295.642035 110.83013 
L 296.600962 105.21974 
L 297.55989 104.596364 
L 298.518818 39.141818 
L 300.436673 130.778182 
L 301.395601 118.310649 
L 302.354528 117.063896 
L 303.313456 124.544416 
L 304.272384 130.778182 
L 305.231311 130.154805 
L 306.190239 123.297662 
L 307.149167 125.167792 
L 308.108094 130.154805 
L 309.067022 128.908052 
L 310.025949 130.154805 
L 310.984877 130.778182 
L 311.943805 130.154805 
L 312.902732 130.778182 
L 313.86166 128.908052 
L 314.820588 129.531429 
L 315.779515 130.778182 
L 318.656298 130.778182 
L 319.615226 128.284675 
L 320.574154 130.154805 
L 321.533081 130.778182 
L 322.492009 130.154805 
L 323.450937 127.037922 
L 324.409864 130.778182 
L 325.368792 117.063896 
L 326.32772 129.531429 
L 327.286647 130.778182 
L 329.204502 129.531429 
L 330.16343 130.778182 
L 331.122358 130.154805 
L 332.081285 130.778182 
L 333.040213 128.908052 
L 333.999141 130.154805 
L 334.958068 129.531429 
L 335.916996 130.778182 
L 337.834851 130.778182 
L 339.752707 129.531429 
L 340.711634 127.037922 
L 341.670562 130.154805 
L 342.62949 130.154805 
L 343.588417 124.544416 
L 344.547345 122.050909 
L 345.506273 130.778182 
L 347.424128 130.778182 
L 349.341983 129.531429 
L 350.300911 130.154805 
L 351.259838 125.167792 
L 352.218766 113.323636 
L 353.177694 127.661299 
L 354.136621 110.206753 
L 355.095549 126.414545 
L 356.054477 130.154805 
L 357.013404 130.778182 
L 358.93126 130.778182 
L 359.890187 130.154805 
L 360.849115 130.778182 
L 361.808043 130.778182 
L 362.76697 128.284675 
L 363.725898 98.362597 
L 364.684826 117.063896 
L 365.643753 129.531429 
L 366.602681 122.674286 
L 367.561609 98.985974 
L 368.520536 96.492468 
L 369.479464 90.882078 
L 370.438391 103.972987 
L 371.397319 120.804156 
L 372.356247 122.674286 
L 373.315174 130.778182 
L 374.274102 125.791169 
L 375.23303 130.778182 
L 376.191957 130.778182 
L 377.150885 122.050909 
L 378.109813 129.531429 
L 379.06874 97.739221 
L 380.027668 122.674286 
L 380.986596 95.869091 
L 381.945523 123.297662 
L 382.904451 128.284675 
L 383.863379 121.427532 
L 384.822306 93.998961 
L 385.781234 120.804156 
L 386.740162 122.674286 
L 387.699089 129.531429 
L 388.658017 130.778182 
L 389.616944 130.778182 
L 390.575872 129.531429 
L 391.5348 126.414545 
L 392.493727 123.921039 
L 393.452655 122.674286 
L 394.411583 130.778182 
L 395.37051 130.778182 
L 396.329438 120.180779 
L 397.288366 115.817143 
L 398.247293 130.778182 
L 399.206221 129.531429 
L 400.165149 130.778182 
L 401.124076 125.167792 
L 402.083004 129.531429 
L 403.041932 130.778182 
L 404.000859 130.154805 
L 404.959787 128.908052 
L 405.918715 128.908052 
L 406.877642 106.466494 
L 407.83657 128.908052 
L 408.795498 128.908052 
L 409.754425 120.804156 
L 410.713353 105.21974 
L 411.67228 123.297662 
L 412.631208 123.297662 
L 413.590136 129.531429 
L 414.549063 120.180779 
L 415.507991 103.34961 
L 416.466919 63.453506 
L 417.425846 123.297662 
L 418.384774 113.323636 
L 419.343702 130.778182 
L 420.302629 104.596364 
L 421.261557 99.609351 
L 422.220485 127.037922 
L 423.179412 117.063896 
L 424.13834 130.778182 
L 426.056195 130.778182 
L 427.015123 100.856104 
L 427.974051 98.985974 
L 428.932978 130.154805 
L 429.891906 120.804156 
L 430.850833 130.778182 
L 431.809761 130.778182 
L 432.768689 129.531429 
L 433.727616 130.154805 
L 434.686544 128.908052 
L 435.645472 130.778182 
L 436.604399 122.050909 
L 437.563327 117.063896 
L 438.522255 93.998961 
L 439.481182 124.544416 
L 440.44011 130.154805 
L 441.399038 115.193766 
L 442.357965 130.154805 
L 443.316893 125.791169 
L 444.275821 120.180779 
L 445.234748 122.674286 
L 446.193676 127.661299 
L 447.152604 130.154805 
L 448.111531 127.037922 
L 449.070459 115.817143 
L 450.029386 128.284675 
L 450.988314 122.674286 
L 451.947242 125.167792 
L 452.906169 130.778182 
L 453.865097 75.297662 
L 454.824025 117.687273 
L 455.782952 97.115844 
L 456.74188 122.050909 
L 457.700808 78.414545 
L 458.659735 130.778182 
L 459.618663 118.934026 
L 461.536518 99.609351 
L 462.495446 108.96 
L 463.454374 125.791169 
L 464.413301 130.778182 
L 466.331157 87.765195 
L 467.290084 90.882078 
L 468.249012 130.778182 
L 469.20794 122.674286 
L 470.166867 128.908052 
L 471.125795 94.622338 
L 472.084722 128.908052 
L 473.04365 130.778182 
L 474.961505 130.778182 
L 475.920433 128.284675 
L 476.879361 128.908052 
L 477.838288 124.544416 
L 478.797216 127.037922 
L 479.756144 123.921039 
L 480.715071 112.70026 
L 481.673999 130.154805 
L 482.632927 79.037922 
L 483.591854 123.297662 
L 484.550782 122.050909 
L 485.50971 95.869091 
L 486.468637 95.245714 
L 487.427565 117.687273 
L 489.34542 130.154805 
L 490.304348 127.661299 
L 491.263275 130.154805 
L 492.222203 124.544416 
L 493.181131 125.167792 
L 494.140058 75.297662 
L 495.098986 50.985974 
L 496.057914 110.206753 
L 497.016841 130.154805 
L 497.975769 120.804156 
L 498.934697 128.908052 
L 499.893624 129.531429 
L 500.852552 129.531429 
L 501.81148 130.778182 
L 502.770407 130.778182 
L 503.729335 130.154805 
L 505.64719 130.154805 
L 506.606118 130.778182 
L 509.482901 130.778182 
L 510.441828 129.531429 
L 511.400756 129.531429 
L 512.359684 130.778182 
L 513.318611 130.778182 
L 514.277539 130.154805 
L 515.236467 130.778182 
L 516.195394 130.154805 
L 517.154322 130.778182 
L 518.11325 130.154805 
L 519.072177 128.908052 
L 520.031105 130.778182 
L 520.990033 130.154805 
L 521.94896 130.778182 
L 522.907888 130.778182 
L 523.866816 129.531429 
L 524.825743 129.531429 
L 525.784671 128.284675 
L 526.743599 123.297662 
L 527.702526 128.284675 
L 528.661454 130.154805 
L 529.620382 129.531429 
L 530.579309 130.778182 
L 531.538237 125.791169 
L 532.497164 120.180779 
L 533.456092 130.778182 
L 534.41502 130.154805 
L 535.373947 130.778182 
L 537.291803 130.778182 
L 538.25073 123.297662 
L 539.209658 130.778182 
L 540.168586 123.297662 
L 541.127513 124.544416 
L 542.086441 130.778182 
L 543.045369 130.154805 
L 544.004296 113.323636 
L 544.963224 130.154805 
L 545.922152 104.596364 
L 546.881079 105.21974 
L 547.840007 123.921039 
L 548.798935 69.687273 
L 549.757862 105.21974 
L 550.71679 128.284675 
L 551.675717 130.154805 
L 552.634645 130.778182 
L 553.593573 129.531429 
L 554.5525 130.154805 
L 555.511428 102.726234 
L 556.470356 128.908052 
L 557.429283 130.778182 
L 558.388211 130.778182 
L 559.347139 130.154805 
L 560.306066 120.180779 
L 561.264994 130.778182 
L 563.182849 130.778182 
L 564.141777 127.037922 
L 565.100705 126.414545 
L 566.059632 108.96 
L 567.01856 130.778182 
L 567.977488 128.908052 
L 568.936415 115.817143 
L 569.895343 128.284675 
L 570.85427 113.323636 
L 571.813198 130.778182 
L 572.772126 128.908052 
L 573.731053 129.531429 
L 574.689981 124.544416 
L 575.648909 125.167792 
L 576.607836 129.531429 
L 577.566764 127.661299 
L 578.525692 130.154805 
L 579.484619 130.778182 
L 580.443547 128.284675 
L 581.402475 128.908052 
L 582.361402 127.037922 
L 583.32033 128.908052 
L 584.279258 105.843117 
L 585.238185 129.531429 
L 586.197113 112.076883 
L 587.156041 112.70026 
L 588.114968 130.778182 
L 589.073896 127.037922 
L 590.032824 120.180779 
L 590.991751 130.778182 
L 592.909606 129.531429 
L 593.868534 130.154805 
L 594.827462 88.388571 
L 595.786389 127.037922 
L 596.745317 130.778182 
L 597.704245 130.154805 
L 598.663172 130.778182 
L 599.6221 113.947013 
L 600.581028 120.804156 
L 601.539955 130.154805 
L 602.498883 117.063896 
L 603.457811 130.778182 
L 604.416738 130.778182 
L 605.375666 128.284675 
L 606.334594 130.778182 
L 607.293521 123.297662 
L 608.252449 129.531429 
L 610.170304 130.778182 
L 611.129232 130.154805 
L 612.088159 128.908052 
L 613.047087 123.297662 
L 614.006015 120.804156 
L 614.964942 121.427532 
L 615.92387 130.154805 
L 616.882798 130.154805 
L 618.800653 93.998961 
L 619.759581 130.778182 
L 620.718508 110.206753 
L 621.677436 128.908052 
L 622.636364 130.778182 
L 622.636364 130.778182 
" clip-path="url(#pff532949a7)" style="fill: none; stroke: #1f77b4; stroke-width: 1.5; stroke-linecap: square"/>
   </g>
   <g id="line2d_12">
    <path d="M 115.363636 127.661299 
L 116.322564 128.284675 
L 117.281492 130.778182 
L 118.240419 130.778182 
L 119.199347 129.531429 
L 120.158275 129.531429 
L 121.117202 130.154805 
L 122.07613 128.284675 
L 123.035058 130.778182 
L 123.993985 130.778182 
L 124.952913 124.544416 
L 125.911841 129.531429 
L 126.870768 130.778182 
L 127.829696 128.908052 
L 128.788623 128.908052 
L 129.747551 129.531429 
L 130.706479 130.778182 
L 131.665406 129.531429 
L 132.624334 128.908052 
L 133.583262 130.154805 
L 134.542189 130.778182 
L 135.501117 130.154805 
L 136.460045 130.778182 
L 137.418972 129.531429 
L 139.336828 130.778182 
L 140.295755 130.154805 
L 141.254683 130.778182 
L 142.213611 130.154805 
L 143.172538 125.791169 
L 144.131466 127.661299 
L 145.090394 130.154805 
L 146.049321 125.167792 
L 147.008249 130.778182 
L 154.67967 130.778182 
L 155.638598 130.154805 
L 156.597525 130.778182 
L 163.310019 130.778182 
L 164.268947 129.531429 
L 165.227874 130.778182 
L 166.186802 130.778182 
L 168.104657 129.531429 
L 169.063585 130.778182 
L 170.98144 130.778182 
L 171.940368 124.544416 
L 172.899295 130.778182 
L 173.858223 130.778182 
L 174.817151 130.154805 
L 175.776078 128.908052 
L 176.735006 130.154805 
L 177.693934 129.531429 
L 178.652861 127.037922 
L 179.611789 129.531429 
L 180.570717 130.778182 
L 181.529644 130.154805 
L 182.488572 130.778182 
L 183.4475 130.154805 
L 184.406427 130.778182 
L 185.365355 129.531429 
L 187.28321 129.531429 
L 188.242138 130.778182 
L 189.201065 130.778182 
L 192.077848 127.037922 
L 193.036776 129.531429 
L 193.995704 128.284675 
L 194.954631 130.778182 
L 195.913559 127.037922 
L 196.872487 128.908052 
L 197.831414 129.531429 
L 198.790342 128.908052 
L 199.74927 126.414545 
L 200.708197 130.154805 
L 201.667125 128.284675 
L 202.626053 124.544416 
L 203.58498 127.037922 
L 204.543908 123.297662 
L 205.502836 108.96 
L 206.461763 127.661299 
L 207.420691 130.778182 
L 208.379618 129.531429 
L 209.338546 123.921039 
L 211.256401 127.661299 
L 212.215329 122.050909 
L 213.174257 128.908052 
L 214.133184 128.908052 
L 215.092112 130.154805 
L 216.05104 124.544416 
L 217.009967 124.544416 
L 217.968895 130.778182 
L 218.927823 129.531429 
L 219.88675 130.778182 
L 220.845678 128.908052 
L 221.804606 116.440519 
L 222.763533 122.674286 
L 223.722461 124.544416 
L 224.681389 128.284675 
L 225.640316 130.778182 
L 226.599244 127.661299 
L 227.558172 130.154805 
L 228.517099 123.921039 
L 229.476027 129.531429 
L 230.434954 123.921039 
L 231.393882 120.180779 
L 232.35281 123.297662 
L 233.311737 128.284675 
L 234.270665 120.804156 
L 235.229593 125.167792 
L 236.18852 130.154805 
L 237.147448 121.427532 
L 238.106376 128.908052 
L 239.065303 125.791169 
L 240.024231 121.427532 
L 240.983159 125.167792 
L 241.942086 130.778182 
L 242.901014 130.154805 
L 243.859942 130.154805 
L 244.818869 130.778182 
L 245.777797 128.908052 
L 246.736725 129.531429 
L 248.65458 120.804156 
L 249.613507 128.284675 
L 250.572435 130.154805 
L 251.531363 130.778182 
L 252.49029 128.908052 
L 253.449218 117.687273 
L 254.408146 130.778182 
L 255.367073 129.531429 
L 256.326001 130.154805 
L 258.243856 130.154805 
L 259.202784 118.934026 
L 260.161712 128.908052 
L 261.120639 127.037922 
L 262.079567 115.817143 
L 263.038495 120.180779 
L 263.997422 130.154805 
L 264.95635 130.778182 
L 265.915278 125.791169 
L 266.874205 129.531429 
L 267.833133 128.908052 
L 268.79206 130.154805 
L 269.750988 130.154805 
L 270.709916 130.778182 
L 271.668843 123.921039 
L 272.627771 130.778182 
L 273.586699 130.154805 
L 274.545626 128.908052 
L 275.504554 127.037922 
L 276.463482 130.778182 
L 277.422409 128.908052 
L 278.381337 130.778182 
L 279.340265 129.531429 
L 280.299192 129.531429 
L 281.25812 130.778182 
L 283.175975 130.778182 
L 284.134903 127.661299 
L 285.093831 130.778182 
L 286.052758 128.908052 
L 287.011686 125.791169 
L 287.970614 130.778182 
L 288.929541 130.778182 
L 289.888469 130.154805 
L 290.847396 128.908052 
L 293.724179 130.778182 
L 294.683107 130.154805 
L 295.642035 126.414545 
L 296.600962 126.414545 
L 297.55989 127.661299 
L 298.518818 130.778182 
L 299.477745 121.427532 
L 300.436673 130.778182 
L 301.395601 130.154805 
L 302.354528 126.414545 
L 303.313456 125.791169 
L 304.272384 130.778182 
L 305.231311 130.154805 
L 306.190239 123.297662 
L 307.149167 126.414545 
L 308.108094 130.154805 
L 309.067022 128.908052 
L 310.025949 130.778182 
L 310.984877 130.778182 
L 311.943805 130.154805 
L 312.902732 130.778182 
L 313.86166 128.908052 
L 314.820588 129.531429 
L 315.779515 130.778182 
L 318.656298 130.778182 
L 319.615226 128.284675 
L 320.574154 130.154805 
L 321.533081 130.778182 
L 322.492009 130.154805 
L 323.450937 127.661299 
L 324.409864 130.778182 
L 325.368792 130.778182 
L 326.32772 129.531429 
L 327.286647 130.778182 
L 329.204502 129.531429 
L 330.16343 130.778182 
L 331.122358 130.154805 
L 332.081285 130.778182 
L 333.040213 128.908052 
L 333.999141 130.154805 
L 334.958068 129.531429 
L 335.916996 130.778182 
L 337.834851 130.778182 
L 339.752707 129.531429 
L 340.711634 127.037922 
L 341.670562 130.154805 
L 342.62949 130.778182 
L 343.588417 124.544416 
L 344.547345 123.921039 
L 345.506273 130.778182 
L 347.424128 130.778182 
L 349.341983 129.531429 
L 350.300911 130.778182 
L 351.259838 125.791169 
L 352.218766 122.050909 
L 353.177694 130.154805 
L 354.136621 121.427532 
L 355.095549 127.661299 
L 356.054477 130.778182 
L 358.93126 130.778182 
L 359.890187 130.154805 
L 360.849115 130.778182 
L 361.808043 130.778182 
L 362.76697 128.284675 
L 363.725898 114.57039 
L 364.684826 119.557403 
L 365.643753 129.531429 
L 366.602681 123.921039 
L 367.561609 114.57039 
L 368.520536 112.076883 
L 369.479464 112.076883 
L 370.438391 119.557403 
L 371.397319 121.427532 
L 372.356247 124.544416 
L 373.315174 130.778182 
L 374.274102 126.414545 
L 375.23303 130.778182 
L 376.191957 130.778182 
L 377.150885 123.297662 
L 378.109813 129.531429 
L 379.06874 122.674286 
L 380.027668 128.284675 
L 380.986596 126.414545 
L 381.945523 130.154805 
L 382.904451 130.778182 
L 383.863379 128.284675 
L 384.822306 121.427532 
L 385.781234 125.791169 
L 386.740162 126.414545 
L 387.699089 130.154805 
L 388.658017 130.778182 
L 389.616944 130.778182 
L 390.575872 129.531429 
L 391.5348 128.908052 
L 392.493727 127.037922 
L 393.452655 127.037922 
L 394.411583 130.778182 
L 395.37051 130.778182 
L 396.329438 125.167792 
L 397.288366 123.921039 
L 398.247293 130.778182 
L 399.206221 129.531429 
L 400.165149 130.778182 
L 401.124076 127.661299 
L 402.083004 129.531429 
L 403.041932 130.778182 
L 404.000859 130.154805 
L 404.959787 128.908052 
L 405.918715 128.908052 
L 406.877642 122.050909 
L 407.83657 128.908052 
L 408.795498 129.531429 
L 409.754425 126.414545 
L 410.713353 120.180779 
L 411.67228 126.414545 
L 412.631208 127.037922 
L 413.590136 130.154805 
L 414.549063 126.414545 
L 416.466919 112.70026 
L 417.425846 127.661299 
L 418.384774 123.921039 
L 419.343702 130.778182 
L 420.302629 120.804156 
L 421.261557 117.063896 
L 422.220485 128.284675 
L 423.179412 123.921039 
L 424.13834 130.778182 
L 426.056195 130.778182 
L 427.015123 120.180779 
L 427.974051 116.440519 
L 428.932978 130.154805 
L 429.891906 125.791169 
L 430.850833 130.778182 
L 431.809761 130.778182 
L 432.768689 130.154805 
L 433.727616 130.778182 
L 434.686544 130.154805 
L 435.645472 130.778182 
L 436.604399 126.414545 
L 437.563327 124.544416 
L 438.522255 117.063896 
L 439.481182 127.661299 
L 440.44011 130.778182 
L 441.399038 122.674286 
L 442.357965 130.154805 
L 444.275821 126.414545 
L 445.234748 127.661299 
L 446.193676 128.284675 
L 447.152604 130.778182 
L 448.111531 127.661299 
L 449.070459 122.674286 
L 450.029386 129.531429 
L 450.988314 127.037922 
L 451.947242 127.661299 
L 452.906169 130.778182 
L 453.865097 110.206753 
L 454.824025 123.921039 
L 455.782952 118.310649 
L 456.74188 126.414545 
L 457.700808 112.076883 
L 458.659735 130.778182 
L 459.618663 130.154805 
L 460.577591 118.934026 
L 461.536518 117.063896 
L 462.495446 118.934026 
L 463.454374 128.284675 
L 464.413301 130.778182 
L 465.372229 121.427532 
L 466.331157 113.947013 
L 467.290084 113.323636 
L 468.249012 130.778182 
L 469.20794 127.037922 
L 470.166867 130.778182 
L 471.125795 117.063896 
L 472.084722 129.531429 
L 473.04365 130.778182 
L 474.961505 130.778182 
L 475.920433 128.908052 
L 476.879361 130.154805 
L 477.838288 127.661299 
L 478.797216 128.908052 
L 479.756144 127.661299 
L 480.715071 121.427532 
L 481.673999 130.154805 
L 482.632927 112.076883 
L 483.591854 126.414545 
L 484.550782 125.791169 
L 485.50971 117.687273 
L 486.468637 117.687273 
L 487.427565 125.167792 
L 488.386493 126.414545 
L 489.34542 130.778182 
L 490.304348 128.908052 
L 491.263275 130.778182 
L 492.222203 128.284675 
L 493.181131 128.908052 
L 494.140058 118.310649 
L 495.098986 104.596364 
L 496.057914 122.050909 
L 497.016841 130.154805 
L 497.975769 130.778182 
L 498.934697 128.908052 
L 499.893624 129.531429 
L 500.852552 129.531429 
L 501.81148 130.778182 
L 502.770407 130.778182 
L 503.729335 130.154805 
L 504.688263 130.778182 
L 505.64719 130.154805 
L 506.606118 130.778182 
L 509.482901 130.778182 
L 510.441828 129.531429 
L 512.359684 130.778182 
L 513.318611 130.778182 
L 514.277539 130.154805 
L 515.236467 130.778182 
L 516.195394 130.154805 
L 517.154322 130.778182 
L 518.11325 130.154805 
L 519.072177 130.154805 
L 520.031105 130.778182 
L 520.990033 130.154805 
L 521.94896 130.778182 
L 522.907888 130.778182 
L 523.866816 129.531429 
L 524.825743 130.154805 
L 525.784671 128.908052 
L 526.743599 127.037922 
L 527.702526 129.531429 
L 528.661454 130.154805 
L 529.620382 129.531429 
L 530.579309 130.778182 
L 531.538237 128.284675 
L 532.497164 127.037922 
L 533.456092 130.778182 
L 534.41502 130.154805 
L 535.373947 130.778182 
L 537.291803 130.778182 
L 538.25073 128.284675 
L 539.209658 130.778182 
L 540.168586 126.414545 
L 541.127513 127.037922 
L 542.086441 130.778182 
L 543.045369 130.778182 
L 544.004296 123.921039 
L 544.963224 130.778182 
L 545.922152 119.557403 
L 546.881079 119.557403 
L 547.840007 126.414545 
L 548.798935 113.323636 
L 549.757862 120.804156 
L 550.71679 129.531429 
L 552.634645 130.778182 
L 553.593573 130.154805 
L 556.470356 130.154805 
L 557.429283 130.778182 
L 558.388211 130.778182 
L 559.347139 130.154805 
L 560.306066 130.154805 
L 561.264994 130.778182 
L 563.182849 130.778182 
L 564.141777 128.284675 
L 565.100705 127.661299 
L 566.059632 119.557403 
L 567.01856 130.778182 
L 567.977488 129.531429 
L 568.936415 127.661299 
L 569.895343 128.908052 
L 570.85427 123.297662 
L 571.813198 130.778182 
L 572.772126 129.531429 
L 573.731053 130.154805 
L 574.689981 127.661299 
L 575.648909 127.661299 
L 576.607836 130.154805 
L 577.566764 129.531429 
L 579.484619 130.778182 
L 580.443547 128.908052 
L 581.402475 129.531429 
L 582.361402 128.908052 
L 583.32033 130.154805 
L 584.279258 119.557403 
L 585.238185 129.531429 
L 586.197113 122.050909 
L 587.156041 122.674286 
L 588.114968 130.778182 
L 589.073896 128.908052 
L 590.032824 125.791169 
L 590.991751 130.778182 
L 592.909606 129.531429 
L 593.868534 130.154805 
L 594.827462 116.440519 
L 595.786389 128.284675 
L 596.745317 130.778182 
L 597.704245 130.154805 
L 598.663172 130.778182 
L 599.6221 124.544416 
L 600.581028 125.167792 
L 601.539955 130.154805 
L 602.498883 123.297662 
L 603.457811 130.778182 
L 604.416738 130.778182 
L 605.375666 128.908052 
L 606.334594 130.778182 
L 607.293521 127.661299 
L 608.252449 129.531429 
L 609.211377 130.778182 
L 610.170304 130.778182 
L 611.129232 130.154805 
L 612.088159 130.154805 
L 613.047087 127.037922 
L 614.006015 130.154805 
L 614.964942 130.778182 
L 616.882798 130.778182 
L 617.841725 122.050909 
L 618.800653 115.817143 
L 619.759581 130.778182 
L 620.718508 121.427532 
L 621.677436 130.154805 
L 622.636364 130.778182 
L 622.636364 130.778182 
" clip-path="url(#pff532949a7)" style="fill: none; stroke: #ff7f0e; stroke-width: 1.5; stroke-linecap: square"/>
   </g>
   <g id="patch_3">
    <path d="M 90 135.36 
L 90 34.56 
" style="fill: none; stroke: #000000; stroke-width: 0.8; stroke-linejoin: miter; stroke-linecap: square"/>
   </g>
   <g id="patch_4">
    <path d="M 648 135.36 
L 648 34.56 
" style="fill: none; stroke: #000000; stroke-width: 0.8; stroke-linejoin: miter; stroke-linecap: square"/>
   </g>
   <g id="patch_5">
    <path d="M 90 135.36 
L 648 135.36 
" style="fill: none; stroke: #000000; stroke-width: 0.8; stroke-linejoin: miter; stroke-linecap: square"/>
   </g>
   <g id="patch_6">
    <path d="M 90 34.56 
L 648 34.56 
" style="fill: none; stroke: #000000; stroke-width: 0.8; stroke-linejoin: miter; stroke-linecap: square"/>
   </g>
   <g id="legend_1">
    <g id="patch_7">
     <path d="M 97 71.91625 
L 238.8625 71.91625 
Q 240.8625 71.91625 240.8625 69.91625 
L 240.8625 41.56 
Q 240.8625 39.56 238.8625 39.56 
L 97 39.56 
Q 95 39.56 95 41.56 
L 95 69.91625 
Q 95 71.91625 97 71.91625 
z
" style="fill: #ffffff; opacity: 0.8; stroke: #cccccc; stroke-linejoin: miter"/>
    </g>
    <g id="line2d_13">
     <path d="M 99 47.658437 
L 109 47.658437 
L 119 47.658437 
" style="fill: none; stroke: #1f77b4; stroke-width: 1.5; stroke-linecap: square"/>
    </g>
    <g id="text_12">
     <!-- Total GitHub Clones -->
     <g transform="translate(127 51.158437)scale(0.1 -0.1)">
      <defs>
       <path id="DejaVuSans-54" d="M -19 4666 
L 3928 4666 
L 3928 4134 
L 2272 4134 
L 2272 0 
L 1638 0 
L 1638 4134 
L -19 4134 
L -19 4666 
z
" transform="scale(0.015625)"/>
       <path id="DejaVuSans-6f" d="M 1959 3097 
Q 1497 3097 1228 2736 
Q 959 2375 959 1747 
Q 959 1119 1226 758 
Q 1494 397 1959 397 
Q 2419 397 2687 759 
Q 2956 1122 2956 1747 
Q 2956 2369 2687 2733 
Q 2419 3097 1959 3097 
z
M 1959 3584 
Q 2709 3584 3137 3096 
Q 3566 2609 3566 1747 
Q 3566 888 3137 398 
Q 2709 -91 1959 -91 
Q 1206 -91 779 398 
Q 353 888 353 1747 
Q 353 2609 779 3096 
Q 1206 3584 1959 3584 
z
" transform="scale(0.015625)"/>
       <path id="DejaVuSans-6c" d="M 603 4863 
L 1178 4863 
L 1178 0 
L 603 0 
L 603 4863 
z
" transform="scale(0.015625)"/>
       <path id="DejaVuSans-20" transform="scale(0.015625)"/>
       <path id="DejaVuSans-47" d="M 3809 666 
L 3809 1919 
L 2778 1919 
L 2778 2438 
L 4434 2438 
L 4434 434 
Q 4069 175 3628 42 
Q 3188 -91 2688 -91 
Q 1594 -91 976 548 
Q 359 1188 359 2328 
Q 359 3472 976 4111 
Q 1594 4750 2688 4750 
Q 3144 4750 3555 4637 
Q 3966 4525 4313 4306 
L 4313 3634 
Q 3963 3931 3569 4081 
Q 3175 4231 2741 4231 
Q 1884 4231 1454 3753 
Q 1025 3275 1025 2328 
Q 1025 1384 1454 906 
Q 1884 428 2741 428 
Q 3075 428 3337 486 
Q 3600 544 3809 666 
z
" transform="scale(0.015625)"/>
       <path id="DejaVuSans-69" d="M 603 3500 
L 1178 3500 
L 1178 0 
L 603 0 
L 603 3500 
z
M 603 4863 
L 1178 4863 
L 1178 4134 
L 603 4134 
L 603 4863 
z
" transform="scale(0.015625)"/>
       <path id="DejaVuSans-48" d="M 628 4666 
L 1259 4666 
L 1259 2753 
L 3553 2753 
L 3553 4666 
L 4184 4666 
L 4184 0 
L 3553 0 
L 3553 2222 
L 1259 2222 
L 1259 0 
L 628 0 
L 628 4666 
z
" transform="scale(0.015625)"/>
       <path id="DejaVuSans-75" d="M 544 1381 
L 544 3500 
L 1119 3500 
L 1119 1403 
Q 1119 906 1312 657 
Q 1506 409 1894 409 
Q 2359 409 2629 706 
Q 2900 1003 2900 1516 
L 2900 3500 
L 3475 3500 
L 3475 0 
L 2900 0 
L 2900 538 
Q 2691 219 2414 64 
Q 2138 -91 1772 -91 
Q 1169 -91 856 284 
Q 544 659 544 1381 
z
M 1991 3584 
L 1991 3584 
z
" transform="scale(0.015625)"/>
       <path id="DejaVuSans-62" d="M 3116 1747 
Q 3116 2381 2855 2742 
Q 2594 3103 2138 3103 
Q 1681 3103 1420 2742 
Q 1159 2381 1159 1747 
Q 1159 1113 1420 752 
Q 1681 391 2138 391 
Q 2594 391 2855 752 
Q 3116 1113 3116 1747 
z
M 1159 2969 
Q 1341 3281 1617 3432 
Q 1894 3584 2278 3584 
Q 2916 3584 3314 3078 
Q 3713 2572 3713 1747 
Q 3713 922 3314 415 
Q 2916 -91 2278 -91 
Q 1894 -91 1617 61 
Q 1341 213 1159 525 
L 1159 0 
L 581 0 
L 581 4863 
L 1159 4863 
L 1159 2969 
z
" transform="scale(0.015625)"/>
       <path id="DejaVuSans-43" d="M 4122 4306 
L 4122 3641 
Q 3803 3938 3442 4084 
Q 3081 4231 2675 4231 
Q 1875 4231 1450 3742 
Q 1025 3253 1025 2328 
Q 1025 1406 1450 917 
Q 1875 428 2675 428 
Q 3081 428 3442 575 
Q 3803 722 4122 1019 
L 4122 359 
Q 3791 134 3420 21 
Q 3050 -91 2638 -91 
Q 1578 -91 968 557 
Q 359 1206 359 2328 
Q 359 3453 968 4101 
Q 1578 4750 2638 4750 
Q 3056 4750 3426 4639 
Q 3797 4528 4122 4306 
z
" transform="scale(0.015625)"/>
       <path id="DejaVuSans-6e" d="M 3513 2113 
L 3513 0 
L 2938 0 
L 2938 2094 
Q 2938 2591 2744 2837 
Q 2550 3084 2163 3084 
Q 1697 3084 1428 2787 
Q 1159 2491 1159 1978 
L 1159 0 
L 581 0 
L 581 3500 
L 1159 3500 
L 1159 2956 
Q 1366 3272 1645 3428 
Q 1925 3584 2291 3584 
Q 2894 3584 3203 3211 
Q 3513 2838 3513 2113 
z
" transform="scale(0.015625)"/>
       <path id="DejaVuSans-73" d="M 2834 3397 
L 2834 2853 
Q 2591 2978 2328 3040 
Q 2066 3103 1784 3103 
Q 1356 3103 1142 2972 
Q 928 2841 928 2578 
Q 928 2378 1081 2264 
Q 1234 2150 1697 2047 
L 1894 2003 
Q 2506 1872 2764 1633 
Q 3022 1394 3022 966 
Q 3022 478 2636 193 
Q 2250 -91 1575 -91 
Q 1294 -91 989 -36 
Q 684 19 347 128 
L 347 722 
Q 666 556 975 473 
Q 1284 391 1588 391 
Q 1994 391 2212 530 
Q 2431 669 2431 922 
Q 2431 1156 2273 1281 
Q 2116 1406 1581 1522 
L 1381 1569 
Q 847 1681 609 1914 
Q 372 2147 372 2553 
Q 372 3047 722 3315 
Q 1072 3584 1716 3584 
Q 2034 3584 2315 3537 
Q 2597 3491 2834 3397 
z
" transform="scale(0.015625)"/>
      </defs>
      <use xlink:href="#DejaVuSans-54"/>
      <use xlink:href="#DejaVuSans-6f" x="44.083984"/>
      <use xlink:href="#DejaVuSans-74" x="105.265625"/>
      <use xlink:href="#DejaVuSans-61" x="144.474609"/>
      <use xlink:href="#DejaVuSans-6c" x="205.753906"/>
      <use xlink:href="#DejaVuSans-20" x="233.537109"/>
      <use xlink:href="#DejaVuSans-47" x="265.324219"/>
      <use xlink:href="#DejaVuSans-69" x="342.814453"/>
      <use xlink:href="#DejaVuSans-74" x="370.597656"/>
      <use xlink:href="#DejaVuSans-48" x="409.806641"/>
      <use xlink:href="#DejaVuSans-75" x="485.001953"/>
      <use xlink:href="#DejaVuSans-62" x="548.380859"/>
      <use xlink:href="#DejaVuSans-20" x="611.857422"/>
      <use xlink:href="#DejaVuSans-43" x="643.644531"/>
      <use xlink:href="#DejaVuSans-6c" x="713.46875"/>
      <use xlink:href="#DejaVuSans-6f" x="741.251953"/>
      <use xlink:href="#DejaVuSans-6e" x="802.433594"/>
      <use xlink:href="#DejaVuSans-65" x="865.8125"/>
      <use xlink:href="#DejaVuSans-73" x="927.335938"/>
     </g>
    </g>
    <g id="line2d_14">
     <path d="M 99 62.336562 
L 109 62.336562 
L 119 62.336562 
" style="fill: none; stroke: #ff7f0e; stroke-width: 1.5; stroke-linecap: square"/>
    </g>
    <g id="text_13">
     <!-- Unique GitHub Clones -->
     <g transform="translate(127 65.836562)scale(0.1 -0.1)">
      <defs>
       <path id="DejaVuSans-55" d="M 556 4666 
L 1191 4666 
L 1191 1831 
Q 1191 1081 1462 751 
Q 1734 422 2344 422 
Q 2950 422 3222 751 
Q 3494 1081 3494 1831 
L 3494 4666 
L 4128 4666 
L 4128 1753 
Q 4128 841 3676 375 
Q 3225 -91 2344 -91 
Q 1459 -91 1007 375 
Q 556 841 556 1753 
L 556 4666 
z
" transform="scale(0.015625)"/>
       <path id="DejaVuSans-71" d="M 947 1747 
Q 947 1113 1208 752 
Q 1469 391 1925 391 
Q 2381 391 2643 752 
Q 2906 1113 2906 1747 
Q 2906 2381 2643 2742 
Q 2381 3103 1925 3103 
Q 1469 3103 1208 2742 
Q 947 2381 947 1747 
z
M 2906 525 
Q 2725 213 2448 61 
Q 2172 -91 1784 -91 
Q 1150 -91 751 415 
Q 353 922 353 1747 
Q 353 2572 751 3078 
Q 1150 3584 1784 3584 
Q 2172 3584 2448 3432 
Q 2725 3281 2906 2969 
L 2906 3500 
L 3481 3500 
L 3481 -1331 
L 2906 -1331 
L 2906 525 
z
" transform="scale(0.015625)"/>
      </defs>
      <use xlink:href="#DejaVuSans-55"/>
      <use xlink:href="#DejaVuSans-6e" x="73.193359"/>
      <use xlink:href="#DejaVuSans-69" x="136.572266"/>
      <use xlink:href="#DejaVuSans-71" x="164.355469"/>
      <use xlink:href="#DejaVuSans-75" x="227.832031"/>
      <use xlink:href="#DejaVuSans-65" x="291.210938"/>
      <use xlink:href="#DejaVuSans-20" x="352.734375"/>
      <use xlink:href="#DejaVuSans-47" x="384.521484"/>
      <use xlink:href="#DejaVuSans-69" x="462.011719"/>
      <use xlink:href="#DejaVuSans-74" x="489.794922"/>
      <use xlink:href="#DejaVuSans-48" x="529.003906"/>
      <use xlink:href="#DejaVuSans-75" x="604.199219"/>
      <use xlink:href="#DejaVuSans-62" x="667.578125"/>
      <use xlink:href="#DejaVuSans-20" x="731.054688"/>
      <use xlink:href="#DejaVuSans-43" x="762.841797"/>
      <use xlink:href="#DejaVuSans-6c" x="832.666016"/>
      <use xlink:href="#DejaVuSans-6f" x="860.449219"/>
      <use xlink:href="#DejaVuSans-6e" x="921.630859"/>
      <use xlink:href="#DejaVuSans-65" x="985.009766"/>
      <use xlink:href="#DejaVuSans-73" x="1046.533203"/>
     </g>
    </g>
   </g>
  </g>
  <g id="axes_2">
   <g id="patch_8">
    <path d="M 90 256.32 
L 648 256.32 
L 648 155.52 
L 90 155.52 
z
" style="fill: #ffffff"/>
   </g>
   <g id="matplotlib.axis_3">
    <g id="xtick_7">
     <g id="line2d_15">
      <g>
       <use xlink:href="#m3f3ab940a8" x="115.363636" y="256.32" style="stroke: #000000; stroke-width: 0.8"/>
      </g>
     </g>
     <g id="text_14">
      <!-- 2020-10-21 -->
      <g transform="translate(86.305824 270.918437)scale(0.1 -0.1)">
       <use xlink:href="#DejaVuSans-32"/>
       <use xlink:href="#DejaVuSans-30" x="63.623047"/>
       <use xlink:href="#DejaVuSans-32" x="127.246094"/>
       <use xlink:href="#DejaVuSans-30" x="190.869141"/>
       <use xlink:href="#DejaVuSans-2d" x="254.492188"/>
       <use xlink:href="#DejaVuSans-31" x="290.576172"/>
       <use xlink:href="#DejaVuSans-30" x="354.199219"/>
       <use xlink:href="#DejaVuSans-2d" x="417.822266"/>
       <use xlink:href="#DejaVuSans-32" x="453.90625"/>
       <use xlink:href="#DejaVuSans-31" x="517.529297"/>
      </g>
     </g>
    </g>
    <g id="xtick_8">
     <g id="line2d_16">
      <g>
       <use xlink:href="#m3f3ab940a8" x="191.645249" y="256.32" style="stroke: #000000; stroke-width: 0.8"/>
      </g>
     </g>
     <g id="text_15">
      <!-- 2021-01-31 -->
      <g transform="translate(162.587437 270.918437)scale(0.1 -0.1)">
       <use xlink:href="#DejaVuSans-32"/>
       <use xlink:href="#DejaVuSans-30" x="63.623047"/>
       <use xlink:href="#DejaVuSans-32" x="127.246094"/>
       <use xlink:href="#DejaVuSans-31" x="190.869141"/>
       <use xlink:href="#DejaVuSans-2d" x="254.492188"/>
       <use xlink:href="#DejaVuSans-30" x="290.576172"/>
       <use xlink:href="#DejaVuSans-31" x="354.199219"/>
       <use xlink:href="#DejaVuSans-2d" x="417.822266"/>
       <use xlink:href="#DejaVuSans-33" x="453.90625"/>
       <use xlink:href="#DejaVuSans-31" x="517.529297"/>
      </g>
     </g>
    </g>
    <g id="xtick_9">
     <g id="line2d_17">
      <g>
       <use xlink:href="#m3f3ab940a8" x="267.926863" y="256.32" style="stroke: #000000; stroke-width: 0.8"/>
      </g>
     </g>
     <g id="text_16">
      <!-- 2021-05-11 -->
      <g transform="translate(238.86905 270.918437)scale(0.1 -0.1)">
       <use xlink:href="#DejaVuSans-32"/>
       <use xlink:href="#DejaVuSans-30" x="63.623047"/>
       <use xlink:href="#DejaVuSans-32" x="127.246094"/>
       <use xlink:href="#DejaVuSans-31" x="190.869141"/>
       <use xlink:href="#DejaVuSans-2d" x="254.492188"/>
       <use xlink:href="#DejaVuSans-30" x="290.576172"/>
       <use xlink:href="#DejaVuSans-35" x="354.199219"/>
       <use xlink:href="#DejaVuSans-2d" x="417.822266"/>
       <use xlink:href="#DejaVuSans-31" x="453.90625"/>
       <use xlink:href="#DejaVuSans-31" x="517.529297"/>
      </g>
     </g>
    </g>
    <g id="xtick_10">
     <g id="line2d_18">
      <g>
       <use xlink:href="#m3f3ab940a8" x="344.208476" y="256.32" style="stroke: #000000; stroke-width: 0.8"/>
      </g>
     </g>
     <g id="text_17">
      <!-- 2021-08-19 -->
      <g transform="translate(315.150663 270.918437)scale(0.1 -0.1)">
       <defs>
        <path id="DejaVuSans-39" d="M 703 97 
L 703 672 
Q 941 559 1184 500 
Q 1428 441 1663 441 
Q 2288 441 2617 861 
Q 2947 1281 2994 2138 
Q 2813 1869 2534 1725 
Q 2256 1581 1919 1581 
Q 1219 1581 811 2004 
Q 403 2428 403 3163 
Q 403 3881 828 4315 
Q 1253 4750 1959 4750 
Q 2769 4750 3195 4129 
Q 3622 3509 3622 2328 
Q 3622 1225 3098 567 
Q 2575 -91 1691 -91 
Q 1453 -91 1209 -44 
Q 966 3 703 97 
z
M 1959 2075 
Q 2384 2075 2632 2365 
Q 2881 2656 2881 3163 
Q 2881 3666 2632 3958 
Q 2384 4250 1959 4250 
Q 1534 4250 1286 3958 
Q 1038 3666 1038 3163 
Q 1038 2656 1286 2365 
Q 1534 2075 1959 2075 
z
" transform="scale(0.015625)"/>
       </defs>
       <use xlink:href="#DejaVuSans-32"/>
       <use xlink:href="#DejaVuSans-30" x="63.623047"/>
       <use xlink:href="#DejaVuSans-32" x="127.246094"/>
       <use xlink:href="#DejaVuSans-31" x="190.869141"/>
       <use xlink:href="#DejaVuSans-2d" x="254.492188"/>
       <use xlink:href="#DejaVuSans-30" x="290.576172"/>
       <use xlink:href="#DejaVuSans-38" x="354.199219"/>
       <use xlink:href="#DejaVuSans-2d" x="417.822266"/>
       <use xlink:href="#DejaVuSans-31" x="453.90625"/>
       <use xlink:href="#DejaVuSans-39" x="517.529297"/>
      </g>
     </g>
    </g>
    <g id="xtick_11">
     <g id="line2d_19">
      <g>
       <use xlink:href="#m3f3ab940a8" x="420.490089" y="256.32" style="stroke: #000000; stroke-width: 0.8"/>
      </g>
     </g>
     <g id="text_18">
      <!-- 2021-11-28 -->
      <g transform="translate(391.432276 270.918437)scale(0.1 -0.1)">
       <use xlink:href="#DejaVuSans-32"/>
       <use xlink:href="#DejaVuSans-30" x="63.623047"/>
       <use xlink:href="#DejaVuSans-32" x="127.246094"/>
       <use xlink:href="#DejaVuSans-31" x="190.869141"/>
       <use xlink:href="#DejaVuSans-2d" x="254.492188"/>
       <use xlink:href="#DejaVuSans-31" x="290.576172"/>
       <use xlink:href="#DejaVuSans-31" x="354.199219"/>
       <use xlink:href="#DejaVuSans-2d" x="417.822266"/>
       <use xlink:href="#DejaVuSans-32" x="453.90625"/>
       <use xlink:href="#DejaVuSans-38" x="517.529297"/>
      </g>
     </g>
    </g>
    <g id="xtick_12">
     <g id="line2d_20">
      <g>
       <use xlink:href="#m3f3ab940a8" x="496.771702" y="256.32" style="stroke: #000000; stroke-width: 0.8"/>
      </g>
     </g>
     <g id="text_19">
      <!-- 2022-03-10 -->
      <g transform="translate(467.713889 270.918437)scale(0.1 -0.1)">
       <use xlink:href="#DejaVuSans-32"/>
       <use xlink:href="#DejaVuSans-30" x="63.623047"/>
       <use xlink:href="#DejaVuSans-32" x="127.246094"/>
       <use xlink:href="#DejaVuSans-32" x="190.869141"/>
       <use xlink:href="#DejaVuSans-2d" x="254.492188"/>
       <use xlink:href="#DejaVuSans-30" x="290.576172"/>
       <use xlink:href="#DejaVuSans-33" x="354.199219"/>
       <use xlink:href="#DejaVuSans-2d" x="417.822266"/>
       <use xlink:href="#DejaVuSans-31" x="453.90625"/>
       <use xlink:href="#DejaVuSans-30" x="517.529297"/>
      </g>
     </g>
    </g>
    <g id="xtick_13">
     <g id="line2d_21">
      <g>
       <use xlink:href="#m3f3ab940a8" x="573.053315" y="256.32" style="stroke: #000000; stroke-width: 0.8"/>
      </g>
     </g>
     <g id="text_20">
      <!-- 2022-06-19 -->
      <g transform="translate(543.995503 270.918437)scale(0.1 -0.1)">
       <defs>
        <path id="DejaVuSans-36" d="M 2113 2584 
Q 1688 2584 1439 2293 
Q 1191 2003 1191 1497 
Q 1191 994 1439 701 
Q 1688 409 2113 409 
Q 2538 409 2786 701 
Q 3034 994 3034 1497 
Q 3034 2003 2786 2293 
Q 2538 2584 2113 2584 
z
M 3366 4563 
L 3366 3988 
Q 3128 4100 2886 4159 
Q 2644 4219 2406 4219 
Q 1781 4219 1451 3797 
Q 1122 3375 1075 2522 
Q 1259 2794 1537 2939 
Q 1816 3084 2150 3084 
Q 2853 3084 3261 2657 
Q 3669 2231 3669 1497 
Q 3669 778 3244 343 
Q 2819 -91 2113 -91 
Q 1303 -91 875 529 
Q 447 1150 447 2328 
Q 447 3434 972 4092 
Q 1497 4750 2381 4750 
Q 2619 4750 2861 4703 
Q 3103 4656 3366 4563 
z
" transform="scale(0.015625)"/>
       </defs>
       <use xlink:href="#DejaVuSans-32"/>
       <use xlink:href="#DejaVuSans-30" x="63.623047"/>
       <use xlink:href="#DejaVuSans-32" x="127.246094"/>
       <use xlink:href="#DejaVuSans-32" x="190.869141"/>
       <use xlink:href="#DejaVuSans-2d" x="254.492188"/>
       <use xlink:href="#DejaVuSans-30" x="290.576172"/>
       <use xlink:href="#DejaVuSans-36" x="354.199219"/>
       <use xlink:href="#DejaVuSans-2d" x="417.822266"/>
       <use xlink:href="#DejaVuSans-31" x="453.90625"/>
       <use xlink:href="#DejaVuSans-39" x="517.529297"/>
      </g>
     </g>
    </g>
    <g id="text_21">
     <!-- _date -->
     <g transform="translate(355.225 284.596563)scale(0.1 -0.1)">
      <use xlink:href="#DejaVuSans-5f"/>
      <use xlink:href="#DejaVuSans-64" x="50"/>
      <use xlink:href="#DejaVuSans-61" x="113.476562"/>
      <use xlink:href="#DejaVuSans-74" x="174.755859"/>
      <use xlink:href="#DejaVuSans-65" x="213.964844"/>
     </g>
    </g>
   </g>
   <g id="matplotlib.axis_4">
    <g id="ytick_5">
     <g id="line2d_22">
      <g>
       <use xlink:href="#m9fcc73bad0" x="90" y="252.006124" style="stroke: #000000; stroke-width: 0.8"/>
      </g>
     </g>
     <g id="text_22">
      <!-- 0 -->
      <g transform="translate(76.6375 255.805343)scale(0.1 -0.1)">
       <use xlink:href="#DejaVuSans-30"/>
      </g>
     </g>
    </g>
    <g id="ytick_6">
     <g id="line2d_23">
      <g>
       <use xlink:href="#m9fcc73bad0" x="90" y="225.211866" style="stroke: #000000; stroke-width: 0.8"/>
      </g>
     </g>
     <g id="text_23">
      <!-- 100 -->
      <g transform="translate(63.9125 229.011085)scale(0.1 -0.1)">
       <use xlink:href="#DejaVuSans-31"/>
       <use xlink:href="#DejaVuSans-30" x="63.623047"/>
       <use xlink:href="#DejaVuSans-30" x="127.246094"/>
      </g>
     </g>
    </g>
    <g id="ytick_7">
     <g id="line2d_24">
      <g>
       <use xlink:href="#m9fcc73bad0" x="90" y="198.417608" style="stroke: #000000; stroke-width: 0.8"/>
      </g>
     </g>
     <g id="text_24">
      <!-- 200 -->
      <g transform="translate(63.9125 202.216826)scale(0.1 -0.1)">
       <use xlink:href="#DejaVuSans-32"/>
       <use xlink:href="#DejaVuSans-30" x="63.623047"/>
       <use xlink:href="#DejaVuSans-30" x="127.246094"/>
      </g>
     </g>
    </g>
    <g id="ytick_8">
     <g id="line2d_25">
      <g>
       <use xlink:href="#m9fcc73bad0" x="90" y="171.623349" style="stroke: #000000; stroke-width: 0.8"/>
      </g>
     </g>
     <g id="text_25">
      <!-- 300 -->
      <g transform="translate(63.9125 175.422568)scale(0.1 -0.1)">
       <use xlink:href="#DejaVuSans-33"/>
       <use xlink:href="#DejaVuSans-30" x="63.623047"/>
       <use xlink:href="#DejaVuSans-30" x="127.246094"/>
      </g>
     </g>
    </g>
   </g>
   <g id="line2d_26">
    <path d="M 115.363636 251.738182 
L 116.126452 231.910431 
L 116.889269 229.498947 
L 117.652085 244.771675 
L 118.414901 251.470239 
L 119.177717 239.412823 
L 119.940533 239.14488 
L 120.703349 235.393684 
L 121.466165 239.14488 
L 122.228982 239.948708 
L 122.991798 250.666411 
L 123.754614 248.522871 
L 124.51743 247.719043 
L 125.280246 239.948708 
L 126.043062 213.690335 
L 126.805878 227.355407 
L 127.568694 244.235789 
L 128.331511 247.4511 
L 129.094327 251.202297 
L 130.619959 225.747751 
L 131.382775 246.111388 
L 132.145591 243.699904 
L 132.908407 237.537225 
L 133.671224 237.537225 
L 134.43404 249.862584 
L 135.196856 237.805167 
L 135.959672 234.321914 
L 136.722488 243.967847 
L 137.485304 243.967847 
L 138.24812 239.412823 
L 139.010936 247.183158 
L 139.773753 249.326699 
L 140.536569 227.623349 
L 141.299385 249.058756 
L 142.062201 248.254928 
L 142.825017 249.862584 
L 143.587833 247.986986 
L 144.350649 251.470239 
L 145.113465 251.470239 
L 145.876282 229.231005 
L 146.639098 217.173589 
L 147.401914 244.235789 
L 148.16473 245.575502 
L 148.927546 227.891292 
L 149.690362 250.934354 
L 150.453178 245.30756 
L 151.215995 242.092249 
L 151.978811 246.37933 
L 152.741627 237.00134 
L 153.504443 247.183158 
L 154.267259 250.934354 
L 155.030075 251.738182 
L 155.792891 244.235789 
L 156.555707 242.628134 
L 157.318524 242.896077 
L 158.08134 241.556364 
L 158.844156 249.058756 
L 159.606972 250.934354 
L 160.369788 250.666411 
L 161.132604 247.4511 
L 161.89542 247.986986 
L 162.658237 243.164019 
L 163.421053 250.130526 
L 164.183869 251.202297 
L 164.946685 251.470239 
L 165.709501 248.522871 
L 166.472317 249.594641 
L 167.235133 250.398469 
L 167.997949 251.738182 
L 168.760766 247.4511 
L 169.523582 247.719043 
L 170.286398 250.934354 
L 171.049214 246.647273 
L 171.81203 243.164019 
L 172.574846 240.752536 
L 173.337662 247.986986 
L 174.100478 249.058756 
L 174.863295 233.518086 
L 175.626111 250.398469 
L 176.388927 235.125742 
L 177.151743 236.733397 
L 177.914559 240.752536 
L 178.677375 234.589856 
L 179.440191 247.183158 
L 180.203008 235.929569 
L 180.965824 251.202297 
L 181.72864 234.857799 
L 182.491456 236.197512 
L 183.254272 228.159234 
L 184.017088 233.786029 
L 184.779904 240.752536 
L 185.54272 243.431962 
L 186.305537 248.522871 
L 187.068353 230.302775 
L 187.831169 226.015694 
L 188.593985 237.269282 
L 189.356801 235.929569 
L 190.119617 233.518086 
L 190.882433 247.719043 
L 191.645249 248.790813 
L 192.408066 231.374545 
L 193.170882 247.183158 
L 194.696514 234.321914 
L 196.222146 250.934354 
L 196.984962 247.986986 
L 197.747779 236.465455 
L 198.510595 235.929569 
L 199.273411 226.819522 
L 200.036227 242.628134 
L 200.799043 250.398469 
L 201.561859 250.666411 
L 202.324675 249.326699 
L 203.087491 243.164019 
L 203.850308 243.431962 
L 204.613124 247.183158 
L 205.37594 232.178373 
L 206.138756 248.522871 
L 206.901572 242.628134 
L 207.664388 239.948708 
L 208.427204 241.556364 
L 209.190021 227.087464 
L 209.952837 236.733397 
L 210.715653 235.929569 
L 211.478469 240.752536 
L 212.241285 239.14488 
L 213.004101 240.216651 
L 213.766917 187.431962 
L 214.529733 246.111388 
L 215.29255 232.178373 
L 216.055366 235.661627 
L 216.818182 228.427177 
L 217.580998 242.360191 
L 218.343814 202.972632 
L 219.10663 201.364976 
L 219.869446 206.99177 
L 220.632262 230.570718 
L 221.395079 178.321914 
L 222.157895 225.211866 
L 222.920711 246.37933 
L 223.683527 245.575502 
L 224.446343 238.341053 
L 225.209159 232.446316 
L 225.971975 229.231005 
L 226.734792 235.661627 
L 227.497608 225.479809 
L 228.260424 244.235789 
L 229.02324 246.111388 
L 229.786056 208.063541 
L 230.548872 233.786029 
L 231.311688 235.393684 
L 232.074504 246.647273 
L 232.837321 248.790813 
L 233.600137 248.254928 
L 234.362953 234.053971 
L 235.125769 187.967847 
L 235.888585 231.106603 
L 236.651401 235.393684 
L 237.414217 216.369761 
L 238.177033 244.771675 
L 238.93985 248.522871 
L 239.702666 245.30756 
L 240.465482 223.604211 
L 241.228298 239.412823 
L 241.991114 224.943923 
L 242.75393 203.240574 
L 243.516746 234.857799 
L 244.279563 241.824306 
L 245.042379 246.37933 
L 245.805195 180.465455 
L 246.568011 228.963062 
L 247.330827 243.967847 
L 248.093643 236.197512 
L 248.856459 237.537225 
L 249.619275 249.058756 
L 250.382092 247.183158 
L 251.144908 191.183158 
L 251.907724 184.752536 
L 252.67054 201.364976 
L 253.433356 243.431962 
L 254.196172 249.326699 
L 254.958988 237.537225 
L 255.721805 247.719043 
L 257.247437 226.015694 
L 258.010253 167.336268 
L 258.773069 223.872153 
L 259.535885 223.068325 
L 260.298701 227.623349 
L 261.061517 245.843445 
L 261.824334 246.647273 
L 262.58715 221.996555 
L 263.349966 237.00134 
L 264.112782 236.733397 
L 264.875598 227.891292 
L 265.638414 243.699904 
L 266.40123 249.326699 
L 267.164046 201.097033 
L 267.926863 238.07311 
L 268.689679 215.030048 
L 269.452495 209.135311 
L 270.215311 215.565933 
L 270.978127 249.862584 
L 271.740943 249.862584 
L 272.503759 224.140096 
L 273.266576 234.053971 
L 274.029392 233.518086 
L 274.792208 239.680766 
L 275.555024 243.164019 
L 276.31784 248.522871 
L 277.080656 246.37933 
L 277.843472 227.355407 
L 278.606288 244.503732 
L 279.369105 241.020478 
L 280.131921 233.250144 
L 280.894737 239.412823 
L 281.657553 249.862584 
L 282.420369 249.862584 
L 283.183185 243.431962 
L 283.946001 240.752536 
L 284.708817 246.647273 
L 285.471634 241.824306 
L 286.23445 243.967847 
L 286.997266 249.326699 
L 287.760082 247.719043 
L 288.522898 232.178373 
L 289.285714 237.269282 
L 290.04853 172.69512 
L 290.811347 215.833876 
L 291.574163 244.503732 
L 292.336979 242.628134 
L 293.099795 250.130526 
L 293.862611 233.250144 
L 294.625427 235.125742 
L 295.388243 242.360191 
L 296.151059 241.556364 
L 296.913876 236.465455 
L 297.676692 249.862584 
L 298.439508 250.398469 
L 299.202324 196.274067 
L 299.96514 239.948708 
L 300.727956 245.30756 
L 301.490772 247.4511 
L 302.253589 204.312344 
L 303.016405 247.4511 
L 303.779221 248.254928 
L 305.304853 242.360191 
L 306.067669 242.628134 
L 306.830485 225.479809 
L 307.593301 244.771675 
L 308.356118 249.862584 
L 309.118934 243.967847 
L 309.88175 245.575502 
L 310.644566 183.948708 
L 311.407382 200.293206 
L 312.170198 241.020478 
L 313.69583 245.039617 
L 314.458647 244.503732 
L 315.221463 232.714258 
L 315.984279 242.628134 
L 316.747095 243.699904 
L 317.509911 223.872153 
L 318.272727 239.948708 
L 319.035543 250.398469 
L 319.79836 251.738182 
L 320.561176 245.039617 
L 321.323992 245.575502 
L 322.086808 246.915215 
L 322.849624 243.967847 
L 323.61244 246.37933 
L 324.375256 249.594641 
L 325.138072 251.202297 
L 325.900889 243.967847 
L 326.663705 243.699904 
L 327.426521 231.910431 
L 328.189337 230.302775 
L 328.952153 250.666411 
L 329.714969 246.37933 
L 330.477785 251.738182 
L 331.240602 239.680766 
L 332.003418 240.752536 
L 332.766234 243.164019 
L 333.52905 240.484593 
L 334.291866 248.522871 
L 335.054682 245.843445 
L 335.817498 250.130526 
L 336.580314 237.537225 
L 337.343131 239.412823 
L 338.105947 244.235789 
L 338.868763 241.288421 
L 339.631579 232.446316 
L 340.394395 242.360191 
L 341.157211 248.522871 
L 341.920027 233.518086 
L 342.682843 250.398469 
L 343.44566 246.111388 
L 344.208476 244.503732 
L 344.971292 251.202297 
L 345.734108 250.934354 
L 346.496924 245.039617 
L 347.25974 245.575502 
L 348.022556 233.250144 
L 348.785373 231.642488 
L 349.548189 249.058756 
L 350.311005 249.862584 
L 351.073821 250.398469 
L 351.836637 242.628134 
L 352.599453 228.159234 
L 353.362269 236.465455 
L 354.125085 236.197512 
L 354.887902 245.30756 
L 355.650718 249.862584 
L 356.413534 245.843445 
L 357.17635 246.647273 
L 357.939166 249.862584 
L 358.701982 237.269282 
L 359.464798 247.719043 
L 360.227614 242.628134 
L 360.990431 226.015694 
L 361.753247 250.934354 
L 362.516063 248.254928 
L 363.278879 233.786029 
L 364.041695 216.905646 
L 364.804511 236.733397 
L 365.567327 248.254928 
L 366.330144 247.719043 
L 367.09296 250.398469 
L 367.855776 246.647273 
L 368.618592 232.178373 
L 369.381408 230.570718 
L 370.144224 221.46067 
L 370.90704 233.786029 
L 371.669856 248.522871 
L 372.432673 251.470239 
L 373.195489 248.522871 
L 373.958305 249.862584 
L 374.721121 239.948708 
L 375.483937 189.575502 
L 376.246753 229.498947 
L 377.009569 242.628134 
L 377.772386 241.020478 
L 378.535202 230.83866 
L 379.298018 230.83866 
L 380.060834 220.924785 
L 380.82365 198.417608 
L 381.586466 217.441531 
L 382.349282 246.37933 
L 383.112098 250.666411 
L 383.874915 224.675981 
L 384.637731 228.159234 
L 385.400547 212.618565 
L 386.163363 240.216651 
L 386.926179 236.197512 
L 387.688995 246.111388 
L 388.451811 248.254928 
L 389.214627 215.565933 
L 389.977444 238.608995 
L 390.74026 249.594641 
L 391.503076 223.604211 
L 392.265892 164.924785 
L 393.028708 240.484593 
L 393.791524 235.929569 
L 394.55434 227.891292 
L 395.317157 228.963062 
L 396.079973 242.896077 
L 396.842789 232.446316 
L 397.605605 238.876938 
L 398.368421 246.915215 
L 399.131237 245.843445 
L 399.894053 235.929569 
L 400.656869 249.058756 
L 401.419686 243.431962 
L 402.182502 229.498947 
L 403.708134 250.934354 
L 404.47095 250.130526 
L 405.233766 245.039617 
L 405.996582 231.642488 
L 406.759398 240.752536 
L 407.522215 247.183158 
L 408.285031 247.986986 
L 409.047847 247.986986 
L 409.810663 248.790813 
L 410.573479 239.412823 
L 411.336295 235.661627 
L 412.099111 243.967847 
L 413.624744 237.537225 
L 414.38756 250.130526 
L 415.150376 249.862584 
L 415.913192 234.589856 
L 416.676008 232.982201 
L 417.438824 245.575502 
L 418.964457 250.934354 
L 419.727273 248.522871 
L 420.490089 247.719043 
L 421.252905 244.503732 
L 422.015721 228.69512 
L 422.778537 238.341053 
L 423.541353 238.876938 
L 424.30417 226.819522 
L 425.066986 249.862584 
L 425.829802 228.159234 
L 426.592618 237.269282 
L 427.355434 202.972632 
L 428.11825 239.948708 
L 428.881066 221.996555 
L 429.643882 247.4511 
L 430.406699 248.254928 
L 431.169515 230.034833 
L 431.932331 208.599426 
L 432.695147 234.589856 
L 433.457963 237.269282 
L 434.220779 243.431962 
L 434.983595 233.250144 
L 435.746411 249.058756 
L 436.509228 217.173589 
L 437.272044 235.929569 
L 438.03486 239.948708 
L 438.797676 242.628134 
L 439.560492 242.896077 
L 440.323308 246.915215 
L 441.086124 249.058756 
L 441.848941 245.843445 
L 442.611757 248.790813 
L 443.374573 250.934354 
L 444.137389 249.594641 
L 444.900205 249.326699 
L 445.663021 246.915215 
L 446.425837 217.709474 
L 447.95147 242.092249 
L 448.714286 243.164019 
L 449.477102 249.862584 
L 450.239918 250.934354 
L 451.002734 251.738182 
L 452.528366 236.733397 
L 453.291183 241.288421 
L 454.053999 219.585072 
L 454.816815 246.915215 
L 455.579631 246.111388 
L 456.342447 250.934354 
L 457.105263 247.719043 
L 457.868079 239.412823 
L 458.630895 244.771675 
L 459.393712 242.092249 
L 460.156528 245.843445 
L 460.919344 250.666411 
L 461.68216 250.130526 
L 462.444976 219.585072 
L 463.207792 220.120957 
L 463.970608 235.929569 
L 464.733424 247.719043 
L 465.496241 217.441531 
L 466.259057 246.915215 
L 467.021873 235.929569 
L 467.784689 212.886507 
L 468.547505 238.07311 
L 469.310321 209.939139 
L 470.073137 198.68555 
L 470.835954 232.714258 
L 471.59877 250.666411 
L 472.361586 249.862584 
L 473.124402 196.809952 
L 473.887218 208.867368 
L 474.650034 223.872153 
L 475.41285 224.675981 
L 476.175666 179.125742 
L 476.938483 243.967847 
L 477.701299 245.575502 
L 478.464115 217.441531 
L 479.226931 226.015694 
L 479.989747 242.628134 
L 480.752563 240.752536 
L 481.515379 226.283636 
L 482.278195 247.719043 
L 483.041012 249.862584 
L 483.803828 225.747751 
L 484.566644 235.929569 
L 485.32946 223.336268 
L 486.092276 232.178373 
L 486.855092 216.369761 
L 487.617908 239.680766 
L 488.380725 248.254928 
L 489.143541 222.264498 
L 489.906357 228.427177 
L 490.669173 231.910431 
L 491.431989 227.623349 
L 492.194805 185.824306 
L 492.957621 223.872153 
L 493.720437 241.288421 
L 494.483254 160.101818 
L 495.24607 200.829091 
L 496.008886 224.943923 
L 496.771702 241.288421 
L 497.534518 239.680766 
L 498.297334 243.967847 
L 499.06015 247.4511 
L 499.822967 211.814737 
L 500.585783 223.068325 
L 501.348599 209.671196 
L 502.111415 213.15445 
L 502.874231 225.211866 
L 503.637047 250.130526 
L 504.399863 249.594641 
L 505.162679 213.422392 
L 505.925496 235.661627 
L 506.688312 222.53244 
L 507.451128 230.570718 
L 508.213944 235.393684 
L 508.97676 242.896077 
L 509.739576 247.719043 
L 510.502392 229.76689 
L 511.265208 236.197512 
L 512.028025 216.637703 
L 512.790841 214.22622 
L 513.553657 242.896077 
L 514.316473 249.058756 
L 515.079289 251.738182 
L 515.842105 239.680766 
L 516.604921 237.805167 
L 517.367738 243.699904 
L 518.130554 235.661627 
L 518.89337 244.235789 
L 519.656186 249.326699 
L 520.419002 250.130526 
L 521.181818 242.896077 
L 521.944634 234.589856 
L 522.70745 247.986986 
L 523.470267 247.986986 
L 524.233083 243.967847 
L 524.995899 240.752536 
L 525.758715 229.498947 
L 526.521531 239.14488 
L 527.284347 238.608995 
L 528.047163 246.37933 
L 529.572796 247.4511 
L 530.335612 250.398469 
L 531.098428 248.790813 
L 532.62406 232.178373 
L 533.386876 234.857799 
L 534.149692 242.896077 
L 534.912509 235.661627 
L 535.675325 249.862584 
L 536.438141 251.470239 
L 537.200957 243.699904 
L 537.963773 246.37933 
L 538.726589 233.786029 
L 539.489405 213.15445 
L 540.252221 244.235789 
L 541.015038 250.666411 
L 541.777854 249.326699 
L 542.54067 240.484593 
L 543.303486 236.733397 
L 544.066302 239.412823 
L 544.829118 238.341053 
L 545.591934 234.857799 
L 546.354751 250.934354 
L 547.117567 241.288421 
L 547.880383 228.159234 
L 548.643199 226.819522 
L 549.406015 245.575502 
L 550.168831 248.254928 
L 550.931647 211.278852 
L 551.694463 247.986986 
L 552.45728 250.666411 
L 553.220096 227.891292 
L 553.982912 246.111388 
L 554.745728 221.192727 
L 555.508544 229.498947 
L 556.27136 246.111388 
L 557.034176 251.470239 
L 557.796992 251.470239 
L 558.559809 249.862584 
L 559.322625 244.503732 
L 560.085441 245.843445 
L 560.848257 243.431962 
L 561.611073 251.470239 
L 562.373889 249.862584 
L 563.136705 251.738182 
L 563.899522 245.575502 
L 564.662338 247.986986 
L 565.425154 244.771675 
L 566.18797 243.164019 
L 566.950786 250.666411 
L 567.713602 251.202297 
L 568.476418 241.020478 
L 569.239234 220.656842 
L 570.002051 245.843445 
L 570.764867 246.111388 
L 571.527683 240.484593 
L 572.290499 248.254928 
L 573.053315 251.470239 
L 573.816131 247.986986 
L 574.578947 247.4511 
L 575.341763 241.556364 
L 576.10458 243.699904 
L 576.867396 244.235789 
L 577.630212 249.326699 
L 578.393028 251.470239 
L 579.155844 251.202297 
L 579.91866 243.164019 
L 580.681476 243.967847 
L 581.444293 247.4511 
L 582.207109 237.537225 
L 582.969925 249.058756 
L 583.732741 250.934354 
L 584.495557 248.790813 
L 585.258373 250.934354 
L 586.021189 239.14488 
L 587.546822 227.623349 
L 588.309638 228.427177 
L 589.072454 247.719043 
L 589.83527 249.594641 
L 590.598086 221.728612 
L 591.360902 222.800383 
L 592.123718 238.07311 
L 592.886535 246.647273 
L 593.649351 243.699904 
L 594.412167 234.589856 
L 595.174983 251.202297 
L 595.937799 246.111388 
L 596.700615 238.876938 
L 597.463431 247.4511 
L 598.226247 228.159234 
L 598.989064 234.321914 
L 599.75188 250.934354 
L 600.514696 251.470239 
L 601.277512 250.130526 
L 602.040328 239.948708 
L 602.803144 241.556364 
L 603.56596 248.790813 
L 604.328776 231.106603 
L 605.091593 249.594641 
L 605.854409 251.470239 
L 606.617225 249.058756 
L 607.380041 249.326699 
L 608.142857 249.058756 
L 608.905673 241.020478 
L 609.668489 247.183158 
L 610.431306 241.288421 
L 611.194122 249.326699 
L 611.956938 251.738182 
L 612.719754 248.254928 
L 613.48257 227.087464 
L 614.245386 246.915215 
L 615.008202 241.824306 
L 615.771018 247.719043 
L 616.533835 249.862584 
L 617.296651 251.470239 
L 618.059467 244.771675 
L 618.822283 215.833876 
L 619.585099 249.862584 
L 620.347915 226.551579 
L 621.110731 243.164019 
L 621.873548 251.738182 
L 622.636364 251.470239 
L 622.636364 251.470239 
" clip-path="url(#p9ca05e0118)" style="fill: none; stroke: #1f77b4; stroke-width: 1.5; stroke-linecap: square"/>
   </g>
   <g id="line2d_27">
    <path d="M 115.363636 251.738182 
L 116.126452 249.594641 
L 116.889269 248.522871 
L 117.652085 249.594641 
L 118.414901 251.738182 
L 119.177717 250.130526 
L 119.940533 249.326699 
L 120.703349 249.326699 
L 121.466165 249.058756 
L 122.228982 249.594641 
L 122.991798 251.470239 
L 126.043062 249.326699 
L 126.805878 249.058756 
L 127.568694 250.130526 
L 129.094327 251.738182 
L 129.857143 249.058756 
L 130.619959 249.594641 
L 131.382775 250.666411 
L 132.145591 250.934354 
L 132.908407 250.666411 
L 133.671224 251.470239 
L 134.43404 251.202297 
L 135.196856 250.130526 
L 135.959672 251.202297 
L 136.722488 249.058756 
L 137.485304 249.862584 
L 138.24812 250.398469 
L 139.010936 251.202297 
L 139.773753 251.202297 
L 140.536569 247.719043 
L 141.299385 251.470239 
L 142.062201 251.470239 
L 142.825017 251.202297 
L 144.350649 251.738182 
L 145.113465 251.470239 
L 145.876282 249.594641 
L 146.639098 247.183158 
L 147.401914 248.790813 
L 148.16473 250.130526 
L 148.927546 250.130526 
L 149.690362 251.470239 
L 150.453178 250.398469 
L 151.215995 250.130526 
L 151.978811 250.934354 
L 152.741627 247.986986 
L 153.504443 249.594641 
L 154.267259 251.470239 
L 155.030075 251.738182 
L 155.792891 249.326699 
L 157.318524 249.326699 
L 158.08134 250.130526 
L 158.844156 250.398469 
L 159.606972 251.202297 
L 160.369788 251.470239 
L 161.132604 250.934354 
L 161.89542 250.666411 
L 162.658237 251.202297 
L 164.183869 251.202297 
L 164.946685 251.470239 
L 165.709501 250.934354 
L 167.235133 250.934354 
L 167.997949 251.738182 
L 168.760766 251.202297 
L 169.523582 251.202297 
L 170.286398 250.934354 
L 171.049214 249.862584 
L 171.81203 248.254928 
L 172.574846 250.130526 
L 173.337662 251.202297 
L 174.100478 250.934354 
L 174.863295 250.934354 
L 175.626111 251.202297 
L 176.388927 249.594641 
L 177.151743 248.790813 
L 177.914559 249.862584 
L 178.677375 247.183158 
L 179.440191 249.862584 
L 180.203008 250.398469 
L 180.965824 251.202297 
L 181.72864 250.666411 
L 182.491456 250.666411 
L 183.254272 248.522871 
L 184.017088 249.594641 
L 184.779904 249.326699 
L 185.54272 249.326699 
L 186.305537 250.398469 
L 187.068353 246.37933 
L 187.831169 247.986986 
L 188.593985 249.326699 
L 189.356801 247.719043 
L 190.119617 246.647273 
L 190.882433 250.934354 
L 191.645249 250.666411 
L 192.408066 248.790813 
L 193.170882 250.130526 
L 193.933698 248.254928 
L 194.696514 249.594641 
L 195.45933 249.594641 
L 196.222146 250.934354 
L 196.984962 251.202297 
L 197.747779 249.058756 
L 198.510595 248.254928 
L 199.273411 248.522871 
L 200.036227 250.934354 
L 200.799043 251.470239 
L 202.324675 250.934354 
L 203.087491 250.934354 
L 203.850308 249.594641 
L 204.613124 250.398469 
L 205.37594 249.058756 
L 206.138756 250.934354 
L 206.901572 250.398469 
L 207.664388 250.934354 
L 208.427204 249.326699 
L 209.190021 249.058756 
L 209.952837 249.058756 
L 210.715653 248.254928 
L 211.478469 250.398469 
L 212.241285 250.934354 
L 213.004101 250.934354 
L 213.766917 242.896077 
L 214.529733 249.058756 
L 215.29255 249.058756 
L 216.055366 247.719043 
L 216.818182 249.326699 
L 217.580998 250.666411 
L 218.343814 250.666411 
L 219.10663 246.647273 
L 219.869446 246.915215 
L 220.632262 248.522871 
L 221.395079 246.915215 
L 222.157895 247.719043 
L 222.920711 250.130526 
L 223.683527 250.934354 
L 224.446343 247.719043 
L 225.209159 246.37933 
L 225.971975 247.4511 
L 226.734792 247.719043 
L 228.260424 251.202297 
L 229.02324 250.130526 
L 229.786056 247.986986 
L 230.548872 247.986986 
L 231.311688 248.790813 
L 232.074504 250.666411 
L 233.600137 251.202297 
L 234.362953 250.130526 
L 235.125769 246.647273 
L 235.888585 247.4511 
L 236.651401 248.790813 
L 237.414217 247.183158 
L 238.177033 249.862584 
L 238.93985 251.202297 
L 240.465482 249.594641 
L 241.228298 248.522871 
L 241.991114 248.790813 
L 242.75393 247.719043 
L 243.516746 249.326699 
L 244.279563 249.594641 
L 245.042379 250.934354 
L 245.805195 245.843445 
L 246.568011 248.254928 
L 247.330827 249.058756 
L 248.093643 249.326699 
L 248.856459 249.326699 
L 249.619275 250.934354 
L 250.382092 250.398469 
L 251.144908 246.111388 
L 251.907724 244.771675 
L 252.67054 247.183158 
L 253.433356 249.058756 
L 254.196172 250.398469 
L 254.958988 249.326699 
L 255.721805 250.398469 
L 256.484621 246.647273 
L 257.247437 246.915215 
L 258.010253 230.302775 
L 258.773069 248.254928 
L 259.535885 246.915215 
L 260.298701 250.666411 
L 261.061517 251.738182 
L 261.824334 249.862584 
L 262.58715 248.522871 
L 263.349966 248.522871 
L 264.112782 248.790813 
L 264.875598 247.986986 
L 266.40123 251.202297 
L 267.164046 249.326699 
L 267.926863 248.522871 
L 268.689679 247.183158 
L 269.452495 247.4511 
L 270.215311 246.111388 
L 270.978127 250.666411 
L 271.740943 251.738182 
L 272.503759 246.111388 
L 273.266576 247.4511 
L 274.029392 249.594641 
L 274.792208 247.719043 
L 275.555024 248.522871 
L 276.31784 251.470239 
L 277.080656 250.398469 
L 277.843472 248.522871 
L 278.606288 249.594641 
L 279.369105 248.254928 
L 280.131921 246.647273 
L 281.657553 250.934354 
L 282.420369 251.202297 
L 283.183185 249.326699 
L 283.946001 247.986986 
L 284.708817 250.130526 
L 285.471634 249.594641 
L 286.23445 249.594641 
L 287.760082 250.130526 
L 288.522898 247.183158 
L 289.285714 249.058756 
L 290.04853 249.058756 
L 290.811347 250.130526 
L 291.574163 249.326699 
L 292.336979 251.202297 
L 293.099795 250.398469 
L 293.862611 248.522871 
L 294.625427 249.326699 
L 295.388243 249.058756 
L 296.151059 248.522871 
L 296.913876 249.326699 
L 297.676692 251.202297 
L 298.439508 250.934354 
L 299.202324 247.719043 
L 299.96514 250.666411 
L 300.727956 249.862584 
L 301.490772 249.326699 
L 302.253589 246.111388 
L 303.016405 251.202297 
L 303.779221 250.666411 
L 304.542037 249.862584 
L 305.304853 250.398469 
L 306.067669 249.058756 
L 306.830485 248.254928 
L 307.593301 249.326699 
L 308.356118 250.934354 
L 309.118934 250.934354 
L 309.88175 249.594641 
L 310.644566 247.4511 
L 311.407382 247.4511 
L 312.170198 250.398469 
L 312.933014 248.790813 
L 313.69583 250.666411 
L 314.458647 249.594641 
L 315.221463 247.986986 
L 315.984279 248.790813 
L 316.747095 248.790813 
L 317.509911 247.986986 
L 318.272727 248.254928 
L 319.035543 251.202297 
L 319.79836 251.738182 
L 320.561176 250.130526 
L 321.323992 250.130526 
L 322.086808 250.398469 
L 322.849624 250.398469 
L 323.61244 250.666411 
L 325.138072 251.738182 
L 325.900889 250.398469 
L 326.663705 249.594641 
L 327.426521 249.862584 
L 328.189337 248.790813 
L 328.952153 251.202297 
L 329.714969 250.398469 
L 330.477785 251.738182 
L 331.240602 250.398469 
L 332.003418 250.398469 
L 332.766234 248.522871 
L 333.52905 247.986986 
L 334.291866 249.594641 
L 335.054682 250.666411 
L 335.817498 250.666411 
L 336.580314 248.790813 
L 337.343131 249.594641 
L 338.105947 249.862584 
L 338.868763 249.862584 
L 339.631579 249.058756 
L 340.394395 249.326699 
L 341.157211 250.666411 
L 341.920027 248.522871 
L 342.682843 251.470239 
L 343.44566 249.862584 
L 344.208476 249.862584 
L 344.971292 251.202297 
L 345.734108 250.934354 
L 346.496924 250.130526 
L 347.25974 250.130526 
L 348.022556 249.326699 
L 348.785373 249.594641 
L 349.548189 251.202297 
L 350.311005 250.934354 
L 351.073821 251.470239 
L 351.836637 250.398469 
L 352.599453 250.130526 
L 353.362269 248.790813 
L 354.125085 249.326699 
L 354.887902 250.398469 
L 355.650718 250.934354 
L 356.413534 250.398469 
L 357.17635 251.470239 
L 357.939166 250.934354 
L 358.701982 249.326699 
L 359.464798 250.130526 
L 360.227614 251.202297 
L 360.990431 248.522871 
L 361.753247 251.470239 
L 362.516063 251.202297 
L 363.278879 248.254928 
L 364.804511 249.326699 
L 365.567327 250.398469 
L 366.330144 249.862584 
L 367.09296 251.202297 
L 367.855776 250.666411 
L 368.618592 247.986986 
L 369.381408 249.862584 
L 370.144224 249.326699 
L 370.90704 249.862584 
L 371.669856 249.862584 
L 372.432673 251.470239 
L 373.195489 251.470239 
L 373.958305 250.934354 
L 374.721121 248.522871 
L 376.246753 248.522871 
L 377.009569 249.862584 
L 377.772386 249.862584 
L 378.535202 249.058756 
L 379.298018 248.790813 
L 380.060834 247.4511 
L 380.82365 249.594641 
L 381.586466 247.719043 
L 382.349282 250.130526 
L 383.112098 251.202297 
L 383.874915 250.398469 
L 384.637731 249.862584 
L 385.400547 248.254928 
L 386.163363 248.522871 
L 386.926179 249.326699 
L 387.688995 249.862584 
L 388.451811 250.130526 
L 389.214627 247.719043 
L 389.977444 248.522871 
L 390.74026 250.666411 
L 391.503076 249.594641 
L 393.028708 249.058756 
L 393.791524 249.594641 
L 394.55434 247.719043 
L 395.317157 250.130526 
L 396.079973 250.398469 
L 396.842789 248.522871 
L 397.605605 249.058756 
L 398.368421 250.934354 
L 399.131237 250.398469 
L 399.894053 249.594641 
L 400.656869 250.934354 
L 401.419686 249.326699 
L 402.182502 248.790813 
L 402.945318 249.058756 
L 403.708134 251.202297 
L 404.47095 251.202297 
L 405.233766 249.326699 
L 405.996582 250.398469 
L 406.759398 247.986986 
L 408.285031 250.130526 
L 409.047847 250.666411 
L 409.810663 250.130526 
L 410.573479 249.058756 
L 411.336295 247.4511 
L 412.099111 248.522871 
L 412.861928 247.986986 
L 413.624744 249.058756 
L 414.38756 250.666411 
L 415.150376 250.934354 
L 415.913192 249.326699 
L 416.676008 250.666411 
L 417.438824 249.862584 
L 418.20164 250.130526 
L 418.964457 251.470239 
L 419.727273 250.934354 
L 420.490089 250.934354 
L 421.252905 251.470239 
L 422.015721 249.594641 
L 422.778537 250.398469 
L 423.541353 249.058756 
L 424.30417 250.666411 
L 425.066986 251.202297 
L 425.829802 249.058756 
L 426.592618 249.594641 
L 427.355434 249.594641 
L 428.11825 246.915215 
L 428.881066 246.647273 
L 429.643882 250.398469 
L 430.406699 250.398469 
L 431.169515 248.790813 
L 431.932331 248.790813 
L 432.695147 249.862584 
L 433.457963 249.326699 
L 434.220779 250.398469 
L 434.983595 250.666411 
L 435.746411 250.666411 
L 436.509228 248.254928 
L 437.272044 249.862584 
L 438.03486 250.666411 
L 438.797676 250.934354 
L 439.560492 249.594641 
L 440.323308 251.738182 
L 441.086124 251.470239 
L 441.848941 250.934354 
L 442.611757 250.934354 
L 443.374573 251.202297 
L 444.137389 250.666411 
L 444.900205 251.202297 
L 445.663021 250.398469 
L 446.425837 244.771675 
L 447.188653 247.4511 
L 447.95147 249.326699 
L 450.239918 250.934354 
L 451.002734 251.738182 
L 451.76555 249.594641 
L 452.528366 249.594641 
L 453.291183 249.058756 
L 454.053999 246.111388 
L 454.816815 250.666411 
L 455.579631 251.738182 
L 456.342447 251.470239 
L 457.105263 250.666411 
L 457.868079 248.254928 
L 458.630895 250.934354 
L 459.393712 250.130526 
L 460.156528 248.522871 
L 460.919344 251.202297 
L 461.68216 251.202297 
L 462.444976 250.130526 
L 463.207792 247.986986 
L 463.970608 248.790813 
L 464.733424 249.862584 
L 465.496241 249.326699 
L 466.259057 250.934354 
L 467.021873 250.666411 
L 467.784689 248.254928 
L 468.547505 249.326699 
L 469.310321 247.183158 
L 470.073137 246.647273 
L 470.835954 247.183158 
L 471.59877 251.202297 
L 472.361586 251.738182 
L 473.124402 247.986986 
L 473.887218 246.111388 
L 474.650034 247.986986 
L 475.41285 246.647273 
L 476.175666 243.431962 
L 476.938483 249.594641 
L 477.701299 249.326699 
L 478.464115 247.4511 
L 479.226931 247.183158 
L 479.989747 248.254928 
L 480.752563 248.790813 
L 481.515379 247.986986 
L 482.278195 249.862584 
L 483.041012 250.934354 
L 483.803828 247.719043 
L 485.32946 248.254928 
L 486.092276 246.915215 
L 486.855092 247.4511 
L 487.617908 247.719043 
L 488.380725 250.666411 
L 489.143541 245.843445 
L 489.906357 245.843445 
L 490.669173 243.967847 
L 491.431989 247.183158 
L 492.194805 247.183158 
L 492.957621 249.862584 
L 493.720437 249.058756 
L 494.483254 247.986986 
L 495.24607 245.843445 
L 496.008886 248.522871 
L 496.771702 249.058756 
L 497.534518 249.326699 
L 498.297334 249.326699 
L 499.06015 249.862584 
L 499.822967 246.647273 
L 500.585783 247.183158 
L 501.348599 245.039617 
L 502.111415 247.986986 
L 502.874231 247.183158 
L 503.637047 250.934354 
L 504.399863 251.202297 
L 505.162679 243.967847 
L 505.925496 247.4511 
L 506.688312 245.575502 
L 507.451128 246.37933 
L 508.213944 249.594641 
L 508.97676 250.398469 
L 509.739576 250.398469 
L 510.502392 248.522871 
L 511.265208 249.326699 
L 512.028025 247.183158 
L 512.790841 246.915215 
L 513.553657 249.594641 
L 514.316473 249.862584 
L 515.079289 251.738182 
L 515.842105 248.522871 
L 516.604921 248.254928 
L 517.367738 249.058756 
L 518.130554 244.771675 
L 518.89337 249.326699 
L 519.656186 251.470239 
L 520.419002 250.934354 
L 521.181818 249.058756 
L 521.944634 249.594641 
L 522.70745 249.594641 
L 523.470267 250.666411 
L 524.233083 250.666411 
L 524.995899 251.202297 
L 525.758715 250.666411 
L 526.521531 249.326699 
L 527.284347 249.058756 
L 528.047163 249.326699 
L 528.809979 250.130526 
L 529.572796 249.594641 
L 530.335612 250.666411 
L 531.098428 249.594641 
L 531.861244 248.790813 
L 532.62406 248.522871 
L 533.386876 248.522871 
L 534.149692 249.862584 
L 534.912509 246.915215 
L 535.675325 251.470239 
L 536.438141 251.470239 
L 537.200957 249.058756 
L 537.963773 250.398469 
L 538.726589 250.398469 
L 539.489405 248.254928 
L 540.252221 249.862584 
L 541.015038 251.202297 
L 541.777854 250.398469 
L 542.54067 249.326699 
L 543.303486 248.522871 
L 544.066302 249.058756 
L 544.829118 247.4511 
L 545.591934 249.594641 
L 546.354751 250.934354 
L 547.117567 250.130526 
L 547.880383 246.647273 
L 548.643199 247.986986 
L 549.406015 250.666411 
L 550.168831 250.130526 
L 550.931647 248.522871 
L 551.694463 250.130526 
L 552.45728 251.470239 
L 553.220096 249.594641 
L 553.982912 250.130526 
L 554.745728 249.594641 
L 555.508544 248.790813 
L 556.27136 250.398469 
L 557.034176 251.470239 
L 557.796992 251.470239 
L 558.559809 250.666411 
L 559.322625 250.130526 
L 560.085441 250.130526 
L 560.848257 249.058756 
L 561.611073 251.470239 
L 562.373889 250.934354 
L 563.136705 251.738182 
L 563.899522 250.398469 
L 564.662338 249.862584 
L 565.425154 249.594641 
L 566.18797 248.522871 
L 566.950786 251.202297 
L 567.713602 251.470239 
L 568.476418 249.326699 
L 569.239234 249.594641 
L 570.002051 250.130526 
L 570.764867 250.398469 
L 571.527683 249.862584 
L 572.290499 251.470239 
L 573.053315 251.738182 
L 573.816131 251.202297 
L 574.578947 250.934354 
L 575.341763 250.398469 
L 576.10458 249.058756 
L 576.867396 251.202297 
L 577.630212 250.666411 
L 578.393028 251.470239 
L 579.155844 251.202297 
L 579.91866 250.130526 
L 580.681476 249.594641 
L 581.444293 250.130526 
L 582.207109 249.058756 
L 582.969925 250.666411 
L 583.732741 251.470239 
L 584.495557 250.130526 
L 585.258373 251.202297 
L 586.021189 250.666411 
L 586.784005 250.666411 
L 587.546822 248.522871 
L 588.309638 249.594641 
L 589.072454 250.934354 
L 589.83527 251.202297 
L 590.598086 249.594641 
L 591.360902 249.862584 
L 592.123718 249.594641 
L 592.886535 250.666411 
L 593.649351 249.594641 
L 594.412167 249.594641 
L 595.174983 251.470239 
L 595.937799 249.594641 
L 596.700615 249.326699 
L 597.463431 250.666411 
L 598.226247 249.594641 
L 598.989064 249.326699 
L 599.75188 251.202297 
L 600.514696 251.738182 
L 601.277512 250.130526 
L 602.040328 249.594641 
L 602.803144 250.666411 
L 604.328776 250.130526 
L 605.091593 250.666411 
L 605.854409 251.470239 
L 606.617225 250.130526 
L 607.380041 250.398469 
L 608.142857 250.130526 
L 608.905673 249.326699 
L 609.668489 249.862584 
L 610.431306 249.862584 
L 611.194122 250.934354 
L 611.956938 251.738182 
L 612.719754 251.202297 
L 613.48257 250.398469 
L 614.245386 250.398469 
L 615.008202 250.934354 
L 615.771018 250.130526 
L 616.533835 250.934354 
L 617.296651 251.470239 
L 618.059467 250.398469 
L 618.822283 249.862584 
L 619.585099 250.130526 
L 620.347915 249.058756 
L 621.110731 249.594641 
L 621.873548 251.738182 
L 622.636364 251.470239 
L 622.636364 251.470239 
" clip-path="url(#p9ca05e0118)" style="fill: none; stroke: #ff7f0e; stroke-width: 1.5; stroke-linecap: square"/>
   </g>
   <g id="patch_9">
    <path d="M 90 256.32 
L 90 155.52 
" style="fill: none; stroke: #000000; stroke-width: 0.8; stroke-linejoin: miter; stroke-linecap: square"/>
   </g>
   <g id="patch_10">
    <path d="M 648 256.32 
L 648 155.52 
" style="fill: none; stroke: #000000; stroke-width: 0.8; stroke-linejoin: miter; stroke-linecap: square"/>
   </g>
   <g id="patch_11">
    <path d="M 90 256.32 
L 648 256.32 
" style="fill: none; stroke: #000000; stroke-width: 0.8; stroke-linejoin: miter; stroke-linecap: square"/>
   </g>
   <g id="patch_12">
    <path d="M 90 155.52 
L 648 155.52 
" style="fill: none; stroke: #000000; stroke-width: 0.8; stroke-linejoin: miter; stroke-linecap: square"/>
   </g>
   <g id="legend_2">
    <g id="patch_13">
     <path d="M 503.782812 192.87625 
L 641 192.87625 
Q 643 192.87625 643 190.87625 
L 643 162.52 
Q 643 160.52 641 160.52 
L 503.782812 160.52 
Q 501.782812 160.52 501.782812 162.52 
L 501.782812 190.87625 
Q 501.782812 192.87625 503.782812 192.87625 
z
" style="fill: #ffffff; opacity: 0.8; stroke: #cccccc; stroke-linejoin: miter"/>
    </g>
    <g id="line2d_28">
     <path d="M 505.782812 168.618437 
L 515.782812 168.618437 
L 525.782812 168.618437 
" style="fill: none; stroke: #1f77b4; stroke-width: 1.5; stroke-linecap: square"/>
    </g>
    <g id="text_26">
     <!-- Total GitHub Views -->
     <g transform="translate(533.782812 172.118437)scale(0.1 -0.1)">
      <defs>
       <path id="DejaVuSans-56" d="M 1831 0 
L 50 4666 
L 709 4666 
L 2188 738 
L 3669 4666 
L 4325 4666 
L 2547 0 
L 1831 0 
z
" transform="scale(0.015625)"/>
       <path id="DejaVuSans-77" d="M 269 3500 
L 844 3500 
L 1563 769 
L 2278 3500 
L 2956 3500 
L 3675 769 
L 4391 3500 
L 4966 3500 
L 4050 0 
L 3372 0 
L 2619 2869 
L 1863 0 
L 1184 0 
L 269 3500 
z
" transform="scale(0.015625)"/>
      </defs>
      <use xlink:href="#DejaVuSans-54"/>
      <use xlink:href="#DejaVuSans-6f" x="44.083984"/>
      <use xlink:href="#DejaVuSans-74" x="105.265625"/>
      <use xlink:href="#DejaVuSans-61" x="144.474609"/>
      <use xlink:href="#DejaVuSans-6c" x="205.753906"/>
      <use xlink:href="#DejaVuSans-20" x="233.537109"/>
      <use xlink:href="#DejaVuSans-47" x="265.324219"/>
      <use xlink:href="#DejaVuSans-69" x="342.814453"/>
      <use xlink:href="#DejaVuSans-74" x="370.597656"/>
      <use xlink:href="#DejaVuSans-48" x="409.806641"/>
      <use xlink:href="#DejaVuSans-75" x="485.001953"/>
      <use xlink:href="#DejaVuSans-62" x="548.380859"/>
      <use xlink:href="#DejaVuSans-20" x="611.857422"/>
      <use xlink:href="#DejaVuSans-56" x="643.644531"/>
      <use xlink:href="#DejaVuSans-69" x="709.802734"/>
      <use xlink:href="#DejaVuSans-65" x="737.585938"/>
      <use xlink:href="#DejaVuSans-77" x="799.109375"/>
      <use xlink:href="#DejaVuSans-73" x="880.896484"/>
     </g>
    </g>
    <g id="line2d_29">
     <path d="M 505.782812 183.296562 
L 515.782812 183.296562 
L 525.782812 183.296562 
" style="fill: none; stroke: #ff7f0e; stroke-width: 1.5; stroke-linecap: square"/>
    </g>
    <g id="text_27">
     <!-- Unique GitHub Views -->
     <g transform="translate(533.782812 186.796562)scale(0.1 -0.1)">
      <use xlink:href="#DejaVuSans-55"/>
      <use xlink:href="#DejaVuSans-6e" x="73.193359"/>
      <use xlink:href="#DejaVuSans-69" x="136.572266"/>
      <use xlink:href="#DejaVuSans-71" x="164.355469"/>
      <use xlink:href="#DejaVuSans-75" x="227.832031"/>
      <use xlink:href="#DejaVuSans-65" x="291.210938"/>
      <use xlink:href="#DejaVuSans-20" x="352.734375"/>
      <use xlink:href="#DejaVuSans-47" x="384.521484"/>
      <use xlink:href="#DejaVuSans-69" x="462.011719"/>
      <use xlink:href="#DejaVuSans-74" x="489.794922"/>
      <use xlink:href="#DejaVuSans-48" x="529.003906"/>
      <use xlink:href="#DejaVuSans-75" x="604.199219"/>
      <use xlink:href="#DejaVuSans-62" x="667.578125"/>
      <use xlink:href="#DejaVuSans-20" x="731.054688"/>
      <use xlink:href="#DejaVuSans-56" x="762.841797"/>
      <use xlink:href="#DejaVuSans-69" x="829"/>
      <use xlink:href="#DejaVuSans-65" x="856.783203"/>
      <use xlink:href="#DejaVuSans-77" x="918.306641"/>
      <use xlink:href="#DejaVuSans-73" x="1000.09375"/>
     </g>
    </g>
   </g>
  </g>
 </g>
 <defs>
  <clipPath id="pff532949a7">
   <rect x="90" y="34.56" width="558" height="100.8"/>
  </clipPath>
  <clipPath id="p9ca05e0118">
   <rect x="90" y="155.52" width="558" height="100.8"/>
  </clipPath>
 </defs>
</svg>
