<?xml version="1.0" encoding="utf-8" standalone="no"?>
<!DOCTYPE svg PUBLIC "-//W3C//DTD SVG 1.1//EN"
  "http://www.w3.org/Graphics/SVG/1.1/DTD/svg11.dtd">
<svg xmlns:xlink="http://www.w3.org/1999/xlink" width="720pt" height="288pt" viewBox="0 0 720 288" xmlns="http://www.w3.org/2000/svg" version="1.1">
 <metadata>
  <rdf:RDF xmlns:dc="http://purl.org/dc/elements/1.1/" xmlns:cc="http://creativecommons.org/ns#" xmlns:rdf="http://www.w3.org/1999/02/22-rdf-syntax-ns#">
   <cc:Work>
    <dc:type rdf:resource="http://purl.org/dc/dcmitype/StillImage"/>
    <dc:date>2022-02-07T00:30:56.581274</dc:date>
    <dc:format>image/svg+xml</dc:format>
    <dc:creator>
     <cc:Agent>
      <dc:title>Matplotlib v3.5.1, https://matplotlib.org/</dc:title>
     </cc:Agent>
    </dc:creator>
   </cc:Work>
  </rdf:RDF>
 </metadata>
 <defs>
  <style type="text/css">*{stroke-linejoin: round; stroke-linecap: butt}</style>
 </defs>
 <g id="figure_1">
  <g id="patch_1">
   <path d="M 0 288 
L 720 288 
L 720 0 
L 0 0 
z
" style="fill: #ffffff"/>
  </g>
  <g id="axes_1">
   <g id="patch_2">
    <path d="M 90 135.36 
L 648 135.36 
L 648 34.56 
L 90 34.56 
z
" style="fill: #ffffff"/>
   </g>
   <g id="matplotlib.axis_1">
    <g id="xtick_1">
     <g id="line2d_1">
      <defs>
       <path id="m2fd648a284" d="M 0 0 
L 0 3.5 
" style="stroke: #000000; stroke-width: 0.8"/>
      </defs>
      <g>
       <use xlink:href="#m2fd648a284" x="115.363636" y="135.36" style="stroke: #000000; stroke-width: 0.8"/>
      </g>
     </g>
     <g id="text_1">
      <!-- 2020-10-22 -->
      <g transform="translate(86.305824 149.958437)scale(0.1 -0.1)">
       <defs>
        <path id="DejaVuSans-32" d="M 1228 531 
L 3431 531 
L 3431 0 
L 469 0 
L 469 531 
Q 828 903 1448 1529 
Q 2069 2156 2228 2338 
Q 2531 2678 2651 2914 
Q 2772 3150 2772 3378 
Q 2772 3750 2511 3984 
Q 2250 4219 1831 4219 
Q 1534 4219 1204 4116 
Q 875 4013 500 3803 
L 500 4441 
Q 881 4594 1212 4672 
Q 1544 4750 1819 4750 
Q 2544 4750 2975 4387 
Q 3406 4025 3406 3419 
Q 3406 3131 3298 2873 
Q 3191 2616 2906 2266 
Q 2828 2175 2409 1742 
Q 1991 1309 1228 531 
z
" transform="scale(0.015625)"/>
        <path id="DejaVuSans-30" d="M 2034 4250 
Q 1547 4250 1301 3770 
Q 1056 3291 1056 2328 
Q 1056 1369 1301 889 
Q 1547 409 2034 409 
Q 2525 409 2770 889 
Q 3016 1369 3016 2328 
Q 3016 3291 2770 3770 
Q 2525 4250 2034 4250 
z
M 2034 4750 
Q 2819 4750 3233 4129 
Q 3647 3509 3647 2328 
Q 3647 1150 3233 529 
Q 2819 -91 2034 -91 
Q 1250 -91 836 529 
Q 422 1150 422 2328 
Q 422 3509 836 4129 
Q 1250 4750 2034 4750 
z
" transform="scale(0.015625)"/>
        <path id="DejaVuSans-2d" d="M 313 2009 
L 1997 2009 
L 1997 1497 
L 313 1497 
L 313 2009 
z
" transform="scale(0.015625)"/>
        <path id="DejaVuSans-31" d="M 794 531 
L 1825 531 
L 1825 4091 
L 703 3866 
L 703 4441 
L 1819 4666 
L 2450 4666 
L 2450 531 
L 3481 531 
L 3481 0 
L 794 0 
L 794 531 
z
" transform="scale(0.015625)"/>
       </defs>
       <use xlink:href="#DejaVuSans-32"/>
       <use xlink:href="#DejaVuSans-30" x="63.623047"/>
       <use xlink:href="#DejaVuSans-32" x="127.246094"/>
       <use xlink:href="#DejaVuSans-30" x="190.869141"/>
       <use xlink:href="#DejaVuSans-2d" x="254.492188"/>
       <use xlink:href="#DejaVuSans-31" x="290.576172"/>
       <use xlink:href="#DejaVuSans-30" x="354.199219"/>
       <use xlink:href="#DejaVuSans-2d" x="417.822266"/>
       <use xlink:href="#DejaVuSans-32" x="453.90625"/>
       <use xlink:href="#DejaVuSans-32" x="517.529297"/>
      </g>
     </g>
    </g>
    <g id="xtick_2">
     <g id="line2d_2">
      <g>
       <use xlink:href="#m2fd648a284" x="183.729233" y="135.36" style="stroke: #000000; stroke-width: 0.8"/>
      </g>
     </g>
     <g id="text_2">
      <!-- 2021-01-05 -->
      <g transform="translate(154.671421 149.958437)scale(0.1 -0.1)">
       <defs>
        <path id="DejaVuSans-35" d="M 691 4666 
L 3169 4666 
L 3169 4134 
L 1269 4134 
L 1269 2991 
Q 1406 3038 1543 3061 
Q 1681 3084 1819 3084 
Q 2600 3084 3056 2656 
Q 3513 2228 3513 1497 
Q 3513 744 3044 326 
Q 2575 -91 1722 -91 
Q 1428 -91 1123 -41 
Q 819 9 494 109 
L 494 744 
Q 775 591 1075 516 
Q 1375 441 1709 441 
Q 2250 441 2565 725 
Q 2881 1009 2881 1497 
Q 2881 1984 2565 2268 
Q 2250 2553 1709 2553 
Q 1456 2553 1204 2497 
Q 953 2441 691 2322 
L 691 4666 
z
" transform="scale(0.015625)"/>
       </defs>
       <use xlink:href="#DejaVuSans-32"/>
       <use xlink:href="#DejaVuSans-30" x="63.623047"/>
       <use xlink:href="#DejaVuSans-32" x="127.246094"/>
       <use xlink:href="#DejaVuSans-31" x="190.869141"/>
       <use xlink:href="#DejaVuSans-2d" x="254.492188"/>
       <use xlink:href="#DejaVuSans-30" x="290.576172"/>
       <use xlink:href="#DejaVuSans-31" x="354.199219"/>
       <use xlink:href="#DejaVuSans-2d" x="417.822266"/>
       <use xlink:href="#DejaVuSans-30" x="453.90625"/>
       <use xlink:href="#DejaVuSans-35" x="517.529297"/>
      </g>
     </g>
    </g>
    <g id="xtick_3">
     <g id="line2d_3">
      <g>
       <use xlink:href="#m2fd648a284" x="252.09483" y="135.36" style="stroke: #000000; stroke-width: 0.8"/>
      </g>
     </g>
     <g id="text_3">
      <!-- 2021-03-17 -->
      <g transform="translate(223.037017 149.958437)scale(0.1 -0.1)">
       <defs>
        <path id="DejaVuSans-33" d="M 2597 2516 
Q 3050 2419 3304 2112 
Q 3559 1806 3559 1356 
Q 3559 666 3084 287 
Q 2609 -91 1734 -91 
Q 1441 -91 1130 -33 
Q 819 25 488 141 
L 488 750 
Q 750 597 1062 519 
Q 1375 441 1716 441 
Q 2309 441 2620 675 
Q 2931 909 2931 1356 
Q 2931 1769 2642 2001 
Q 2353 2234 1838 2234 
L 1294 2234 
L 1294 2753 
L 1863 2753 
Q 2328 2753 2575 2939 
Q 2822 3125 2822 3475 
Q 2822 3834 2567 4026 
Q 2313 4219 1838 4219 
Q 1578 4219 1281 4162 
Q 984 4106 628 3988 
L 628 4550 
Q 988 4650 1302 4700 
Q 1616 4750 1894 4750 
Q 2613 4750 3031 4423 
Q 3450 4097 3450 3541 
Q 3450 3153 3228 2886 
Q 3006 2619 2597 2516 
z
" transform="scale(0.015625)"/>
        <path id="DejaVuSans-37" d="M 525 4666 
L 3525 4666 
L 3525 4397 
L 1831 0 
L 1172 0 
L 2766 4134 
L 525 4134 
L 525 4666 
z
" transform="scale(0.015625)"/>
       </defs>
       <use xlink:href="#DejaVuSans-32"/>
       <use xlink:href="#DejaVuSans-30" x="63.623047"/>
       <use xlink:href="#DejaVuSans-32" x="127.246094"/>
       <use xlink:href="#DejaVuSans-31" x="190.869141"/>
       <use xlink:href="#DejaVuSans-2d" x="254.492188"/>
       <use xlink:href="#DejaVuSans-30" x="290.576172"/>
       <use xlink:href="#DejaVuSans-33" x="354.199219"/>
       <use xlink:href="#DejaVuSans-2d" x="417.822266"/>
       <use xlink:href="#DejaVuSans-31" x="453.90625"/>
       <use xlink:href="#DejaVuSans-37" x="517.529297"/>
      </g>
     </g>
    </g>
    <g id="xtick_4">
     <g id="line2d_4">
      <g>
       <use xlink:href="#m2fd648a284" x="320.460426" y="135.36" style="stroke: #000000; stroke-width: 0.8"/>
      </g>
     </g>
     <g id="text_4">
      <!-- 2021-05-10 -->
      <g transform="translate(291.402614 149.958437)scale(0.1 -0.1)">
       <use xlink:href="#DejaVuSans-32"/>
       <use xlink:href="#DejaVuSans-30" x="63.623047"/>
       <use xlink:href="#DejaVuSans-32" x="127.246094"/>
       <use xlink:href="#DejaVuSans-31" x="190.869141"/>
       <use xlink:href="#DejaVuSans-2d" x="254.492188"/>
       <use xlink:href="#DejaVuSans-30" x="290.576172"/>
       <use xlink:href="#DejaVuSans-35" x="354.199219"/>
       <use xlink:href="#DejaVuSans-2d" x="417.822266"/>
       <use xlink:href="#DejaVuSans-31" x="453.90625"/>
       <use xlink:href="#DejaVuSans-30" x="517.529297"/>
      </g>
     </g>
    </g>
    <g id="xtick_5">
     <g id="line2d_5">
      <g>
       <use xlink:href="#m2fd648a284" x="388.826023" y="135.36" style="stroke: #000000; stroke-width: 0.8"/>
      </g>
     </g>
     <g id="text_5">
      <!-- 2021-07-07 -->
      <g transform="translate(359.768211 149.958437)scale(0.1 -0.1)">
       <use xlink:href="#DejaVuSans-32"/>
       <use xlink:href="#DejaVuSans-30" x="63.623047"/>
       <use xlink:href="#DejaVuSans-32" x="127.246094"/>
       <use xlink:href="#DejaVuSans-31" x="190.869141"/>
       <use xlink:href="#DejaVuSans-2d" x="254.492188"/>
       <use xlink:href="#DejaVuSans-30" x="290.576172"/>
       <use xlink:href="#DejaVuSans-37" x="354.199219"/>
       <use xlink:href="#DejaVuSans-2d" x="417.822266"/>
       <use xlink:href="#DejaVuSans-30" x="453.90625"/>
       <use xlink:href="#DejaVuSans-37" x="517.529297"/>
      </g>
     </g>
    </g>
    <g id="xtick_6">
     <g id="line2d_6">
      <g>
       <use xlink:href="#m2fd648a284" x="457.19162" y="135.36" style="stroke: #000000; stroke-width: 0.8"/>
      </g>
     </g>
     <g id="text_6">
      <!-- 2021-09-13 -->
      <g transform="translate(428.133807 149.958437)scale(0.1 -0.1)">
       <defs>
        <path id="DejaVuSans-39" d="M 703 97 
L 703 672 
Q 941 559 1184 500 
Q 1428 441 1663 441 
Q 2288 441 2617 861 
Q 2947 1281 2994 2138 
Q 2813 1869 2534 1725 
Q 2256 1581 1919 1581 
Q 1219 1581 811 2004 
Q 403 2428 403 3163 
Q 403 3881 828 4315 
Q 1253 4750 1959 4750 
Q 2769 4750 3195 4129 
Q 3622 3509 3622 2328 
Q 3622 1225 3098 567 
Q 2575 -91 1691 -91 
Q 1453 -91 1209 -44 
Q 966 3 703 97 
z
M 1959 2075 
Q 2384 2075 2632 2365 
Q 2881 2656 2881 3163 
Q 2881 3666 2632 3958 
Q 2384 4250 1959 4250 
Q 1534 4250 1286 3958 
Q 1038 3666 1038 3163 
Q 1038 2656 1286 2365 
Q 1534 2075 1959 2075 
z
" transform="scale(0.015625)"/>
       </defs>
       <use xlink:href="#DejaVuSans-32"/>
       <use xlink:href="#DejaVuSans-30" x="63.623047"/>
       <use xlink:href="#DejaVuSans-32" x="127.246094"/>
       <use xlink:href="#DejaVuSans-31" x="190.869141"/>
       <use xlink:href="#DejaVuSans-2d" x="254.492188"/>
       <use xlink:href="#DejaVuSans-30" x="290.576172"/>
       <use xlink:href="#DejaVuSans-39" x="354.199219"/>
       <use xlink:href="#DejaVuSans-2d" x="417.822266"/>
       <use xlink:href="#DejaVuSans-31" x="453.90625"/>
       <use xlink:href="#DejaVuSans-33" x="517.529297"/>
      </g>
     </g>
    </g>
    <g id="xtick_7">
     <g id="line2d_7">
      <g>
       <use xlink:href="#m2fd648a284" x="525.557216" y="135.36" style="stroke: #000000; stroke-width: 0.8"/>
      </g>
     </g>
     <g id="text_7">
      <!-- 2021-11-16 -->
      <g transform="translate(496.499404 149.958437)scale(0.1 -0.1)">
       <defs>
        <path id="DejaVuSans-36" d="M 2113 2584 
Q 1688 2584 1439 2293 
Q 1191 2003 1191 1497 
Q 1191 994 1439 701 
Q 1688 409 2113 409 
Q 2538 409 2786 701 
Q 3034 994 3034 1497 
Q 3034 2003 2786 2293 
Q 2538 2584 2113 2584 
z
M 3366 4563 
L 3366 3988 
Q 3128 4100 2886 4159 
Q 2644 4219 2406 4219 
Q 1781 4219 1451 3797 
Q 1122 3375 1075 2522 
Q 1259 2794 1537 2939 
Q 1816 3084 2150 3084 
Q 2853 3084 3261 2657 
Q 3669 2231 3669 1497 
Q 3669 778 3244 343 
Q 2819 -91 2113 -91 
Q 1303 -91 875 529 
Q 447 1150 447 2328 
Q 447 3434 972 4092 
Q 1497 4750 2381 4750 
Q 2619 4750 2861 4703 
Q 3103 4656 3366 4563 
z
" transform="scale(0.015625)"/>
       </defs>
       <use xlink:href="#DejaVuSans-32"/>
       <use xlink:href="#DejaVuSans-30" x="63.623047"/>
       <use xlink:href="#DejaVuSans-32" x="127.246094"/>
       <use xlink:href="#DejaVuSans-31" x="190.869141"/>
       <use xlink:href="#DejaVuSans-2d" x="254.492188"/>
       <use xlink:href="#DejaVuSans-31" x="290.576172"/>
       <use xlink:href="#DejaVuSans-31" x="354.199219"/>
       <use xlink:href="#DejaVuSans-2d" x="417.822266"/>
       <use xlink:href="#DejaVuSans-31" x="453.90625"/>
       <use xlink:href="#DejaVuSans-36" x="517.529297"/>
      </g>
     </g>
    </g>
    <g id="xtick_8">
     <g id="line2d_8">
      <g>
       <use xlink:href="#m2fd648a284" x="593.922813" y="135.36" style="stroke: #000000; stroke-width: 0.8"/>
      </g>
     </g>
     <g id="text_8">
      <!-- 2022-01-15 -->
      <g transform="translate(564.865001 149.958437)scale(0.1 -0.1)">
       <use xlink:href="#DejaVuSans-32"/>
       <use xlink:href="#DejaVuSans-30" x="63.623047"/>
       <use xlink:href="#DejaVuSans-32" x="127.246094"/>
       <use xlink:href="#DejaVuSans-32" x="190.869141"/>
       <use xlink:href="#DejaVuSans-2d" x="254.492188"/>
       <use xlink:href="#DejaVuSans-30" x="290.576172"/>
       <use xlink:href="#DejaVuSans-31" x="354.199219"/>
       <use xlink:href="#DejaVuSans-2d" x="417.822266"/>
       <use xlink:href="#DejaVuSans-31" x="453.90625"/>
       <use xlink:href="#DejaVuSans-35" x="517.529297"/>
      </g>
     </g>
    </g>
    <g id="text_9">
     <!-- _date -->
     <g transform="translate(355.225 163.636562)scale(0.1 -0.1)">
      <defs>
       <path id="DejaVuSans-5f" d="M 3263 -1063 
L 3263 -1509 
L -63 -1509 
L -63 -1063 
L 3263 -1063 
z
" transform="scale(0.015625)"/>
       <path id="DejaVuSans-64" d="M 2906 2969 
L 2906 4863 
L 3481 4863 
L 3481 0 
L 2906 0 
L 2906 525 
Q 2725 213 2448 61 
Q 2172 -91 1784 -91 
Q 1150 -91 751 415 
Q 353 922 353 1747 
Q 353 2572 751 3078 
Q 1150 3584 1784 3584 
Q 2172 3584 2448 3432 
Q 2725 3281 2906 2969 
z
M 947 1747 
Q 947 1113 1208 752 
Q 1469 391 1925 391 
Q 2381 391 2643 752 
Q 2906 1113 2906 1747 
Q 2906 2381 2643 2742 
Q 2381 3103 1925 3103 
Q 1469 3103 1208 2742 
Q 947 2381 947 1747 
z
" transform="scale(0.015625)"/>
       <path id="DejaVuSans-61" d="M 2194 1759 
Q 1497 1759 1228 1600 
Q 959 1441 959 1056 
Q 959 750 1161 570 
Q 1363 391 1709 391 
Q 2188 391 2477 730 
Q 2766 1069 2766 1631 
L 2766 1759 
L 2194 1759 
z
M 3341 1997 
L 3341 0 
L 2766 0 
L 2766 531 
Q 2569 213 2275 61 
Q 1981 -91 1556 -91 
Q 1019 -91 701 211 
Q 384 513 384 1019 
Q 384 1609 779 1909 
Q 1175 2209 1959 2209 
L 2766 2209 
L 2766 2266 
Q 2766 2663 2505 2880 
Q 2244 3097 1772 3097 
Q 1472 3097 1187 3025 
Q 903 2953 641 2809 
L 641 3341 
Q 956 3463 1253 3523 
Q 1550 3584 1831 3584 
Q 2591 3584 2966 3190 
Q 3341 2797 3341 1997 
z
" transform="scale(0.015625)"/>
       <path id="DejaVuSans-74" d="M 1172 4494 
L 1172 3500 
L 2356 3500 
L 2356 3053 
L 1172 3053 
L 1172 1153 
Q 1172 725 1289 603 
Q 1406 481 1766 481 
L 2356 481 
L 2356 0 
L 1766 0 
Q 1100 0 847 248 
Q 594 497 594 1153 
L 594 3053 
L 172 3053 
L 172 3500 
L 594 3500 
L 594 4494 
L 1172 4494 
z
" transform="scale(0.015625)"/>
       <path id="DejaVuSans-65" d="M 3597 1894 
L 3597 1613 
L 953 1613 
Q 991 1019 1311 708 
Q 1631 397 2203 397 
Q 2534 397 2845 478 
Q 3156 559 3463 722 
L 3463 178 
Q 3153 47 2828 -22 
Q 2503 -91 2169 -91 
Q 1331 -91 842 396 
Q 353 884 353 1716 
Q 353 2575 817 3079 
Q 1281 3584 2069 3584 
Q 2775 3584 3186 3129 
Q 3597 2675 3597 1894 
z
M 3022 2063 
Q 3016 2534 2758 2815 
Q 2500 3097 2075 3097 
Q 1594 3097 1305 2825 
Q 1016 2553 972 2059 
L 3022 2063 
z
" transform="scale(0.015625)"/>
      </defs>
      <use xlink:href="#DejaVuSans-5f"/>
      <use xlink:href="#DejaVuSans-64" x="50"/>
      <use xlink:href="#DejaVuSans-61" x="113.476562"/>
      <use xlink:href="#DejaVuSans-74" x="174.755859"/>
      <use xlink:href="#DejaVuSans-65" x="213.964844"/>
     </g>
    </g>
   </g>
   <g id="matplotlib.axis_2">
    <g id="ytick_1">
     <g id="line2d_9">
      <defs>
       <path id="me23703238a" d="M 0 0 
L -3.5 0 
" style="stroke: #000000; stroke-width: 0.8"/>
      </defs>
      <g>
       <use xlink:href="#me23703238a" x="90" y="131.401558" style="stroke: #000000; stroke-width: 0.8"/>
      </g>
     </g>
     <g id="text_10">
      <!-- 0 -->
      <g transform="translate(76.6375 135.200777)scale(0.1 -0.1)">
       <use xlink:href="#DejaVuSans-30"/>
      </g>
     </g>
    </g>
    <g id="ytick_2">
     <g id="line2d_10">
      <g>
       <use xlink:href="#me23703238a" x="90" y="100.232727" style="stroke: #000000; stroke-width: 0.8"/>
      </g>
     </g>
     <g id="text_11">
      <!-- 50 -->
      <g transform="translate(70.275 104.031946)scale(0.1 -0.1)">
       <use xlink:href="#DejaVuSans-35"/>
       <use xlink:href="#DejaVuSans-30" x="63.623047"/>
      </g>
     </g>
    </g>
    <g id="ytick_3">
     <g id="line2d_11">
      <g>
       <use xlink:href="#me23703238a" x="90" y="69.063896" style="stroke: #000000; stroke-width: 0.8"/>
      </g>
     </g>
     <g id="text_12">
      <!-- 100 -->
      <g transform="translate(63.9125 72.863115)scale(0.1 -0.1)">
       <use xlink:href="#DejaVuSans-31"/>
       <use xlink:href="#DejaVuSans-30" x="63.623047"/>
       <use xlink:href="#DejaVuSans-30" x="127.246094"/>
      </g>
     </g>
    </g>
    <g id="ytick_4">
     <g id="line2d_12">
      <g>
       <use xlink:href="#me23703238a" x="90" y="37.895065" style="stroke: #000000; stroke-width: 0.8"/>
      </g>
     </g>
     <g id="text_13">
      <!-- 150 -->
      <g transform="translate(63.9125 41.694284)scale(0.1 -0.1)">
       <use xlink:href="#DejaVuSans-31"/>
       <use xlink:href="#DejaVuSans-35" x="63.623047"/>
       <use xlink:href="#DejaVuSans-30" x="127.246094"/>
      </g>
     </g>
    </g>
   </g>
   <g id="line2d_13">
    <path d="M 115.363636 127.661299 
L 116.730948 128.284675 
L 118.09826 130.778182 
L 119.465572 130.778182 
L 120.832884 129.531429 
L 122.200196 129.531429 
L 123.567508 120.804156 
L 124.93482 120.804156 
L 126.302132 130.778182 
L 127.669444 130.778182 
L 129.036756 124.544416 
L 130.404068 126.414545 
L 131.77138 130.778182 
L 133.138691 127.661299 
L 134.506003 128.908052 
L 135.873315 128.908052 
L 137.240627 130.778182 
L 139.975251 128.284675 
L 141.342563 130.154805 
L 142.709875 130.778182 
L 144.077187 130.154805 
L 145.444499 130.154805 
L 146.811811 129.531429 
L 148.179123 130.154805 
L 149.546435 130.154805 
L 150.913747 128.908052 
L 152.281059 130.154805 
L 153.64837 130.154805 
L 155.015682 122.674286 
L 156.382994 127.661299 
L 157.750306 130.154805 
L 159.117618 115.817143 
L 160.48493 130.778182 
L 171.423426 130.778182 
L 172.790738 130.154805 
L 174.158049 130.778182 
L 183.729233 130.778182 
L 185.096545 128.908052 
L 186.463857 129.531429 
L 187.831169 130.778182 
L 189.198481 129.531429 
L 190.565793 127.661299 
L 191.933105 130.154805 
L 193.300417 130.154805 
L 194.667728 128.908052 
L 196.03504 120.804156 
L 197.402352 130.154805 
L 198.769664 130.778182 
L 200.136976 130.154805 
L 201.504288 127.037922 
L 202.8716 130.154805 
L 204.238912 129.531429 
L 205.606224 125.167792 
L 206.973536 128.908052 
L 208.340848 127.037922 
L 209.70816 130.154805 
L 211.075472 129.531429 
L 212.442784 130.154805 
L 213.810096 129.531429 
L 216.544719 129.531429 
L 217.912031 128.284675 
L 219.279343 130.778182 
L 220.646655 130.778182 
L 222.013967 128.284675 
L 223.381279 128.284675 
L 224.748591 125.167792 
L 226.115903 129.531429 
L 227.483215 127.661299 
L 228.850527 130.778182 
L 230.217839 125.791169 
L 231.585151 128.908052 
L 232.952463 129.531429 
L 234.319775 128.908052 
L 235.687086 126.414545 
L 237.054398 130.154805 
L 238.42171 128.284675 
L 239.789022 121.427532 
L 241.156334 126.414545 
L 242.523646 120.804156 
L 243.890958 87.141818 
L 245.25827 127.661299 
L 246.625582 130.778182 
L 247.992894 128.908052 
L 249.360206 123.297662 
L 250.727518 124.544416 
L 252.09483 127.661299 
L 253.462142 119.557403 
L 254.829454 128.908052 
L 256.196765 128.908052 
L 257.564077 130.154805 
L 258.931389 122.674286 
L 260.298701 124.544416 
L 261.666013 130.778182 
L 263.033325 129.531429 
L 264.400637 130.778182 
L 265.767949 128.284675 
L 267.135261 100.232727 
L 268.502573 118.310649 
L 269.869885 121.427532 
L 271.237197 127.661299 
L 272.604509 130.778182 
L 273.971821 126.414545 
L 275.339133 128.908052 
L 276.706444 122.050909 
L 278.073756 128.908052 
L 279.441068 123.297662 
L 280.80838 115.817143 
L 282.175692 122.674286 
L 283.543004 127.661299 
L 284.910316 115.193766 
L 286.277628 115.193766 
L 287.64494 116.440519 
L 289.012252 92.128831 
L 290.379564 107.08987 
L 291.746876 107.08987 
L 293.114188 119.557403 
L 294.4815 110.206753 
L 295.848812 118.934026 
L 297.216123 129.531429 
L 298.583435 130.154805 
L 299.950747 116.440519 
L 301.318059 114.57039 
L 302.685371 115.817143 
L 304.052683 111.453506 
L 305.419995 105.843117 
L 306.787307 128.284675 
L 308.154619 130.154805 
L 309.521931 116.440519 
L 310.889243 117.687273 
L 312.256555 100.232727 
L 313.623867 115.817143 
L 314.991179 116.440519 
L 316.358491 130.154805 
L 317.725802 128.908052 
L 319.093114 114.57039 
L 320.460426 102.102857 
L 321.827738 117.063896 
L 323.19505 113.323636 
L 324.562362 95.245714 
L 325.929674 117.063896 
L 327.296986 130.154805 
L 328.664298 114.57039 
L 330.03161 105.843117 
L 331.398922 102.726234 
L 332.766234 108.96 
L 334.133546 111.453506 
L 335.500858 129.531429 
L 336.86817 115.193766 
L 338.235481 108.336623 
L 339.602793 115.817143 
L 340.970105 115.193766 
L 342.337417 113.947013 
L 343.704729 125.791169 
L 345.072041 115.817143 
L 346.439353 113.323636 
L 347.806665 115.817143 
L 349.173977 116.440519 
L 350.541289 116.440519 
L 351.908601 130.778182 
L 353.275913 130.778182 
L 354.643225 115.193766 
L 356.010537 112.076883 
L 357.377849 115.193766 
L 358.74516 102.726234 
L 360.112472 105.843117 
L 361.479784 130.778182 
L 362.847096 115.817143 
L 364.214408 113.947013 
L 365.58172 113.323636 
L 366.949032 112.076883 
L 368.316344 117.063896 
L 369.683656 130.154805 
L 371.050968 114.57039 
L 372.41828 110.83013 
L 373.785592 105.21974 
L 375.152904 104.596364 
L 376.520216 39.141818 
L 379.25484 130.778182 
L 380.622151 118.310649 
L 381.989463 117.063896 
L 383.356775 124.544416 
L 384.724087 130.778182 
L 386.091399 130.154805 
L 387.458711 123.297662 
L 388.826023 125.167792 
L 390.193335 130.154805 
L 391.560647 128.908052 
L 392.927959 130.154805 
L 394.295271 130.778182 
L 395.662583 130.154805 
L 397.029895 130.778182 
L 398.397207 130.778182 
L 399.764519 128.908052 
L 401.13183 129.531429 
L 402.499142 130.778182 
L 406.601078 130.778182 
L 407.96839 128.284675 
L 409.335702 130.154805 
L 410.703014 130.778182 
L 412.070326 130.154805 
L 413.437638 127.037922 
L 414.80495 130.778182 
L 416.172262 117.063896 
L 417.539574 129.531429 
L 418.906886 130.778182 
L 421.641509 129.531429 
L 423.008821 130.778182 
L 424.376133 130.154805 
L 425.743445 130.778182 
L 427.110757 128.908052 
L 428.478069 130.154805 
L 429.845381 129.531429 
L 431.212693 130.778182 
L 433.947317 130.778182 
L 436.681941 129.531429 
L 438.049253 127.037922 
L 439.416565 130.154805 
L 440.783877 130.154805 
L 442.151188 124.544416 
L 443.5185 122.050909 
L 444.885812 130.778182 
L 447.620436 130.778182 
L 450.35506 129.531429 
L 451.722372 130.154805 
L 453.089684 125.167792 
L 454.456996 113.323636 
L 455.824308 127.661299 
L 457.19162 110.206753 
L 458.558932 126.414545 
L 459.926244 130.154805 
L 461.293556 130.778182 
L 464.028179 130.778182 
L 465.395491 130.154805 
L 466.762803 130.778182 
L 468.130115 130.778182 
L 469.497427 128.284675 
L 470.864739 98.362597 
L 472.232051 117.063896 
L 473.599363 129.531429 
L 474.966675 122.674286 
L 476.333987 98.985974 
L 477.701299 96.492468 
L 479.068611 90.882078 
L 480.435923 103.972987 
L 481.803235 120.804156 
L 483.170546 122.674286 
L 484.537858 130.778182 
L 485.90517 125.791169 
L 487.272482 130.778182 
L 488.639794 130.778182 
L 490.007106 122.050909 
L 491.374418 129.531429 
L 492.74173 97.739221 
L 494.109042 122.674286 
L 495.476354 95.869091 
L 496.843666 123.297662 
L 498.210978 128.284675 
L 499.57829 121.427532 
L 500.945602 93.998961 
L 502.312914 120.804156 
L 503.680225 122.674286 
L 505.047537 129.531429 
L 506.414849 130.778182 
L 507.782161 130.778182 
L 509.149473 129.531429 
L 510.516785 126.414545 
L 511.884097 123.921039 
L 513.251409 122.674286 
L 514.618721 130.778182 
L 515.986033 130.778182 
L 517.353345 120.180779 
L 518.720657 115.817143 
L 520.087969 130.778182 
L 521.455281 129.531429 
L 522.822593 130.778182 
L 524.189904 125.167792 
L 525.557216 129.531429 
L 526.924528 130.778182 
L 528.29184 130.154805 
L 529.659152 128.908052 
L 531.026464 128.908052 
L 532.393776 106.466494 
L 533.761088 128.908052 
L 535.1284 128.908052 
L 536.495712 120.804156 
L 537.863024 105.21974 
L 539.230336 123.297662 
L 540.597648 123.297662 
L 541.96496 129.531429 
L 543.332272 120.180779 
L 544.699583 120.804156 
L 546.066895 103.34961 
L 547.434207 63.453506 
L 548.801519 123.297662 
L 550.168831 113.323636 
L 551.536143 130.778182 
L 552.903455 104.596364 
L 554.270767 99.609351 
L 555.638079 127.037922 
L 557.005391 117.063896 
L 558.372703 130.778182 
L 561.107327 130.778182 
L 562.474639 100.856104 
L 563.841951 98.985974 
L 565.209262 130.154805 
L 566.576574 120.804156 
L 567.943886 130.778182 
L 569.311198 130.778182 
L 570.67851 129.531429 
L 572.045822 130.778182 
L 573.413134 130.154805 
L 574.780446 128.908052 
L 576.147758 130.778182 
L 577.51507 122.674286 
L 578.882382 122.050909 
L 580.249694 117.063896 
L 581.617006 93.998961 
L 582.984318 124.544416 
L 584.35163 130.154805 
L 585.718941 115.193766 
L 587.086253 116.440519 
L 588.453565 130.154805 
L 589.820877 125.791169 
L 591.188189 120.180779 
L 592.555501 122.674286 
L 593.922813 127.661299 
L 595.290125 130.154805 
L 596.657437 127.037922 
L 598.024749 128.284675 
L 599.392061 115.817143 
L 600.759373 128.284675 
L 602.126685 122.674286 
L 603.493997 125.167792 
L 604.861309 130.778182 
L 606.22862 75.921039 
L 607.595932 75.297662 
L 608.963244 117.687273 
L 610.330556 97.115844 
L 611.697868 122.050909 
L 613.06518 78.414545 
L 614.432492 130.778182 
L 615.799804 118.934026 
L 618.534428 99.609351 
L 619.90174 108.96 
L 621.269052 125.791169 
L 622.636364 130.778182 
L 622.636364 130.778182 
" clip-path="url(#pd0db84c5dc)" style="fill: none; stroke: #1f77b4; stroke-width: 1.5; stroke-linecap: square"/>
   </g>
   <g id="line2d_14">
    <path d="M 115.363636 127.661299 
L 116.730948 128.284675 
L 118.09826 130.778182 
L 119.465572 130.778182 
L 120.832884 129.531429 
L 122.200196 129.531429 
L 123.567508 130.154805 
L 124.93482 128.284675 
L 126.302132 130.778182 
L 127.669444 130.778182 
L 129.036756 124.544416 
L 130.404068 129.531429 
L 131.77138 130.778182 
L 133.138691 128.908052 
L 134.506003 128.908052 
L 135.873315 129.531429 
L 137.240627 130.778182 
L 138.607939 129.531429 
L 139.975251 128.908052 
L 141.342563 130.154805 
L 142.709875 130.778182 
L 144.077187 130.154805 
L 145.444499 130.778182 
L 146.811811 129.531429 
L 149.546435 130.778182 
L 150.913747 130.154805 
L 152.281059 130.778182 
L 153.64837 130.154805 
L 155.015682 125.791169 
L 156.382994 127.661299 
L 157.750306 130.154805 
L 159.117618 125.167792 
L 160.48493 130.778182 
L 171.423426 130.778182 
L 172.790738 130.154805 
L 174.158049 130.778182 
L 183.729233 130.778182 
L 185.096545 129.531429 
L 186.463857 130.778182 
L 187.831169 130.778182 
L 190.565793 129.531429 
L 191.933105 130.778182 
L 194.667728 130.778182 
L 196.03504 124.544416 
L 197.402352 130.778182 
L 198.769664 130.778182 
L 200.136976 130.154805 
L 201.504288 128.908052 
L 202.8716 130.154805 
L 204.238912 129.531429 
L 205.606224 127.037922 
L 206.973536 129.531429 
L 208.340848 130.778182 
L 209.70816 130.154805 
L 211.075472 130.778182 
L 212.442784 130.154805 
L 213.810096 130.778182 
L 215.177407 129.531429 
L 217.912031 129.531429 
L 219.279343 130.778182 
L 220.646655 130.778182 
L 224.748591 127.037922 
L 226.115903 129.531429 
L 227.483215 128.284675 
L 228.850527 130.778182 
L 230.217839 127.037922 
L 231.585151 128.908052 
L 232.952463 129.531429 
L 234.319775 128.908052 
L 235.687086 126.414545 
L 237.054398 130.154805 
L 238.42171 128.284675 
L 239.789022 124.544416 
L 241.156334 127.037922 
L 242.523646 123.297662 
L 243.890958 108.96 
L 245.25827 127.661299 
L 246.625582 130.778182 
L 247.992894 129.531429 
L 249.360206 123.921039 
L 252.09483 127.661299 
L 253.462142 122.050909 
L 254.829454 128.908052 
L 256.196765 128.908052 
L 257.564077 130.154805 
L 258.931389 124.544416 
L 260.298701 124.544416 
L 261.666013 130.778182 
L 263.033325 129.531429 
L 264.400637 130.778182 
L 265.767949 128.908052 
L 267.135261 116.440519 
L 268.502573 122.674286 
L 269.869885 124.544416 
L 271.237197 128.284675 
L 272.604509 130.778182 
L 273.971821 127.661299 
L 275.339133 130.154805 
L 276.706444 123.921039 
L 278.073756 129.531429 
L 279.441068 123.921039 
L 280.80838 120.180779 
L 282.175692 123.297662 
L 283.543004 128.284675 
L 284.910316 120.804156 
L 286.277628 125.167792 
L 287.64494 130.154805 
L 289.012252 121.427532 
L 290.379564 128.908052 
L 291.746876 125.791169 
L 293.114188 121.427532 
L 294.4815 125.167792 
L 295.848812 130.778182 
L 297.216123 130.154805 
L 298.583435 130.154805 
L 299.950747 130.778182 
L 301.318059 128.908052 
L 302.685371 129.531429 
L 305.419995 120.804156 
L 306.787307 128.284675 
L 308.154619 130.154805 
L 309.521931 130.778182 
L 310.889243 128.908052 
L 312.256555 117.687273 
L 313.623867 130.778182 
L 314.991179 129.531429 
L 316.358491 130.154805 
L 319.093114 130.154805 
L 320.460426 118.934026 
L 321.827738 128.908052 
L 323.19505 127.037922 
L 324.562362 115.817143 
L 325.929674 120.180779 
L 327.296986 130.154805 
L 328.664298 130.778182 
L 330.03161 125.791169 
L 331.398922 129.531429 
L 332.766234 128.908052 
L 334.133546 130.154805 
L 335.500858 130.154805 
L 336.86817 130.778182 
L 338.235481 123.921039 
L 339.602793 130.778182 
L 340.970105 130.154805 
L 342.337417 128.908052 
L 343.704729 127.037922 
L 345.072041 130.778182 
L 346.439353 128.908052 
L 347.806665 130.778182 
L 349.173977 129.531429 
L 350.541289 129.531429 
L 351.908601 130.778182 
L 354.643225 130.778182 
L 356.010537 127.661299 
L 357.377849 130.778182 
L 358.74516 128.908052 
L 360.112472 125.791169 
L 361.479784 130.778182 
L 362.847096 130.778182 
L 364.214408 130.154805 
L 365.58172 128.908052 
L 369.683656 130.778182 
L 371.050968 130.154805 
L 372.41828 126.414545 
L 373.785592 126.414545 
L 375.152904 127.661299 
L 376.520216 130.778182 
L 377.887528 121.427532 
L 379.25484 130.778182 
L 380.622151 130.154805 
L 381.989463 126.414545 
L 383.356775 125.791169 
L 384.724087 130.778182 
L 386.091399 130.154805 
L 387.458711 123.297662 
L 388.826023 126.414545 
L 390.193335 130.154805 
L 391.560647 128.908052 
L 392.927959 130.778182 
L 394.295271 130.778182 
L 395.662583 130.154805 
L 397.029895 130.778182 
L 398.397207 130.778182 
L 399.764519 128.908052 
L 401.13183 129.531429 
L 402.499142 130.778182 
L 406.601078 130.778182 
L 407.96839 128.284675 
L 409.335702 130.154805 
L 410.703014 130.778182 
L 412.070326 130.154805 
L 413.437638 127.661299 
L 414.80495 130.778182 
L 416.172262 130.778182 
L 417.539574 129.531429 
L 418.906886 130.778182 
L 421.641509 129.531429 
L 423.008821 130.778182 
L 424.376133 130.154805 
L 425.743445 130.778182 
L 427.110757 128.908052 
L 428.478069 130.154805 
L 429.845381 129.531429 
L 431.212693 130.778182 
L 433.947317 130.778182 
L 436.681941 129.531429 
L 438.049253 127.037922 
L 439.416565 130.154805 
L 440.783877 130.778182 
L 442.151188 124.544416 
L 443.5185 123.921039 
L 444.885812 130.778182 
L 447.620436 130.778182 
L 450.35506 129.531429 
L 451.722372 130.778182 
L 453.089684 125.791169 
L 454.456996 122.050909 
L 455.824308 130.154805 
L 457.19162 121.427532 
L 458.558932 127.661299 
L 459.926244 130.778182 
L 464.028179 130.778182 
L 465.395491 130.154805 
L 466.762803 130.778182 
L 468.130115 130.778182 
L 469.497427 128.284675 
L 470.864739 114.57039 
L 472.232051 119.557403 
L 473.599363 129.531429 
L 474.966675 123.921039 
L 476.333987 114.57039 
L 477.701299 112.076883 
L 479.068611 112.076883 
L 480.435923 119.557403 
L 481.803235 121.427532 
L 483.170546 124.544416 
L 484.537858 130.778182 
L 485.90517 126.414545 
L 487.272482 130.778182 
L 488.639794 130.778182 
L 490.007106 123.297662 
L 491.374418 129.531429 
L 492.74173 122.674286 
L 494.109042 128.284675 
L 495.476354 126.414545 
L 496.843666 130.154805 
L 498.210978 130.778182 
L 499.57829 128.284675 
L 500.945602 121.427532 
L 502.312914 125.791169 
L 503.680225 126.414545 
L 505.047537 130.154805 
L 506.414849 130.778182 
L 507.782161 130.778182 
L 509.149473 129.531429 
L 510.516785 128.908052 
L 511.884097 127.037922 
L 513.251409 127.037922 
L 514.618721 130.778182 
L 515.986033 130.778182 
L 517.353345 125.167792 
L 518.720657 123.921039 
L 520.087969 130.778182 
L 521.455281 129.531429 
L 522.822593 130.778182 
L 524.189904 127.661299 
L 525.557216 129.531429 
L 526.924528 130.778182 
L 528.29184 130.154805 
L 529.659152 128.908052 
L 531.026464 128.908052 
L 532.393776 122.050909 
L 533.761088 128.908052 
L 535.1284 129.531429 
L 536.495712 126.414545 
L 537.863024 120.180779 
L 539.230336 126.414545 
L 540.597648 127.037922 
L 541.96496 130.154805 
L 543.332272 126.414545 
L 544.699583 127.037922 
L 546.066895 119.557403 
L 547.434207 112.70026 
L 548.801519 127.661299 
L 550.168831 123.921039 
L 551.536143 130.778182 
L 552.903455 120.804156 
L 554.270767 117.063896 
L 555.638079 128.284675 
L 557.005391 123.921039 
L 558.372703 130.778182 
L 561.107327 130.778182 
L 562.474639 120.180779 
L 563.841951 116.440519 
L 565.209262 130.154805 
L 566.576574 125.791169 
L 567.943886 130.778182 
L 569.311198 130.778182 
L 570.67851 130.154805 
L 572.045822 130.778182 
L 573.413134 130.778182 
L 574.780446 130.154805 
L 576.147758 130.778182 
L 577.51507 126.414545 
L 578.882382 126.414545 
L 580.249694 124.544416 
L 581.617006 117.063896 
L 582.984318 127.661299 
L 584.35163 130.778182 
L 585.718941 122.674286 
L 587.086253 123.297662 
L 588.453565 130.154805 
L 591.188189 126.414545 
L 592.555501 127.661299 
L 593.922813 128.284675 
L 595.290125 130.778182 
L 596.657437 127.661299 
L 598.024749 128.908052 
L 599.392061 122.674286 
L 600.759373 129.531429 
L 602.126685 127.037922 
L 603.493997 127.661299 
L 604.861309 130.778182 
L 606.22862 110.206753 
L 607.595932 110.206753 
L 608.963244 123.921039 
L 610.330556 118.310649 
L 611.697868 126.414545 
L 613.06518 112.076883 
L 614.432492 130.778182 
L 615.799804 130.154805 
L 617.167116 118.934026 
L 618.534428 117.063896 
L 619.90174 118.934026 
L 621.269052 128.284675 
L 622.636364 130.778182 
L 622.636364 130.778182 
" clip-path="url(#pd0db84c5dc)" style="fill: none; stroke: #ff7f0e; stroke-width: 1.5; stroke-linecap: square"/>
   </g>
   <g id="patch_3">
    <path d="M 90 135.36 
L 90 34.56 
" style="fill: none; stroke: #000000; stroke-width: 0.8; stroke-linejoin: miter; stroke-linecap: square"/>
   </g>
   <g id="patch_4">
    <path d="M 648 135.36 
L 648 34.56 
" style="fill: none; stroke: #000000; stroke-width: 0.8; stroke-linejoin: miter; stroke-linecap: square"/>
   </g>
   <g id="patch_5">
    <path d="M 90 135.36 
L 648 135.36 
" style="fill: none; stroke: #000000; stroke-width: 0.8; stroke-linejoin: miter; stroke-linecap: square"/>
   </g>
   <g id="patch_6">
    <path d="M 90 34.56 
L 648 34.56 
" style="fill: none; stroke: #000000; stroke-width: 0.8; stroke-linejoin: miter; stroke-linecap: square"/>
   </g>
   <g id="legend_1">
    <g id="patch_7">
     <path d="M 97 71.91625 
L 238.8625 71.91625 
Q 240.8625 71.91625 240.8625 69.91625 
L 240.8625 41.56 
Q 240.8625 39.56 238.8625 39.56 
L 97 39.56 
Q 95 39.56 95 41.56 
L 95 69.91625 
Q 95 71.91625 97 71.91625 
z
" style="fill: #ffffff; opacity: 0.8; stroke: #cccccc; stroke-linejoin: miter"/>
    </g>
    <g id="line2d_15">
     <path d="M 99 47.658437 
L 109 47.658437 
L 119 47.658437 
" style="fill: none; stroke: #1f77b4; stroke-width: 1.5; stroke-linecap: square"/>
    </g>
    <g id="text_14">
     <!-- Total GitHub Clones -->
     <g transform="translate(127 51.158437)scale(0.1 -0.1)">
      <defs>
       <path id="DejaVuSans-54" d="M -19 4666 
L 3928 4666 
L 3928 4134 
L 2272 4134 
L 2272 0 
L 1638 0 
L 1638 4134 
L -19 4134 
L -19 4666 
z
" transform="scale(0.015625)"/>
       <path id="DejaVuSans-6f" d="M 1959 3097 
Q 1497 3097 1228 2736 
Q 959 2375 959 1747 
Q 959 1119 1226 758 
Q 1494 397 1959 397 
Q 2419 397 2687 759 
Q 2956 1122 2956 1747 
Q 2956 2369 2687 2733 
Q 2419 3097 1959 3097 
z
M 1959 3584 
Q 2709 3584 3137 3096 
Q 3566 2609 3566 1747 
Q 3566 888 3137 398 
Q 2709 -91 1959 -91 
Q 1206 -91 779 398 
Q 353 888 353 1747 
Q 353 2609 779 3096 
Q 1206 3584 1959 3584 
z
" transform="scale(0.015625)"/>
       <path id="DejaVuSans-6c" d="M 603 4863 
L 1178 4863 
L 1178 0 
L 603 0 
L 603 4863 
z
" transform="scale(0.015625)"/>
       <path id="DejaVuSans-20" transform="scale(0.015625)"/>
       <path id="DejaVuSans-47" d="M 3809 666 
L 3809 1919 
L 2778 1919 
L 2778 2438 
L 4434 2438 
L 4434 434 
Q 4069 175 3628 42 
Q 3188 -91 2688 -91 
Q 1594 -91 976 548 
Q 359 1188 359 2328 
Q 359 3472 976 4111 
Q 1594 4750 2688 4750 
Q 3144 4750 3555 4637 
Q 3966 4525 4313 4306 
L 4313 3634 
Q 3963 3931 3569 4081 
Q 3175 4231 2741 4231 
Q 1884 4231 1454 3753 
Q 1025 3275 1025 2328 
Q 1025 1384 1454 906 
Q 1884 428 2741 428 
Q 3075 428 3337 486 
Q 3600 544 3809 666 
z
" transform="scale(0.015625)"/>
       <path id="DejaVuSans-69" d="M 603 3500 
L 1178 3500 
L 1178 0 
L 603 0 
L 603 3500 
z
M 603 4863 
L 1178 4863 
L 1178 4134 
L 603 4134 
L 603 4863 
z
" transform="scale(0.015625)"/>
       <path id="DejaVuSans-48" d="M 628 4666 
L 1259 4666 
L 1259 2753 
L 3553 2753 
L 3553 4666 
L 4184 4666 
L 4184 0 
L 3553 0 
L 3553 2222 
L 1259 2222 
L 1259 0 
L 628 0 
L 628 4666 
z
" transform="scale(0.015625)"/>
       <path id="DejaVuSans-75" d="M 544 1381 
L 544 3500 
L 1119 3500 
L 1119 1403 
Q 1119 906 1312 657 
Q 1506 409 1894 409 
Q 2359 409 2629 706 
Q 2900 1003 2900 1516 
L 2900 3500 
L 3475 3500 
L 3475 0 
L 2900 0 
L 2900 538 
Q 2691 219 2414 64 
Q 2138 -91 1772 -91 
Q 1169 -91 856 284 
Q 544 659 544 1381 
z
M 1991 3584 
L 1991 3584 
z
" transform="scale(0.015625)"/>
       <path id="DejaVuSans-62" d="M 3116 1747 
Q 3116 2381 2855 2742 
Q 2594 3103 2138 3103 
Q 1681 3103 1420 2742 
Q 1159 2381 1159 1747 
Q 1159 1113 1420 752 
Q 1681 391 2138 391 
Q 2594 391 2855 752 
Q 3116 1113 3116 1747 
z
M 1159 2969 
Q 1341 3281 1617 3432 
Q 1894 3584 2278 3584 
Q 2916 3584 3314 3078 
Q 3713 2572 3713 1747 
Q 3713 922 3314 415 
Q 2916 -91 2278 -91 
Q 1894 -91 1617 61 
Q 1341 213 1159 525 
L 1159 0 
L 581 0 
L 581 4863 
L 1159 4863 
L 1159 2969 
z
" transform="scale(0.015625)"/>
       <path id="DejaVuSans-43" d="M 4122 4306 
L 4122 3641 
Q 3803 3938 3442 4084 
Q 3081 4231 2675 4231 
Q 1875 4231 1450 3742 
Q 1025 3253 1025 2328 
Q 1025 1406 1450 917 
Q 1875 428 2675 428 
Q 3081 428 3442 575 
Q 3803 722 4122 1019 
L 4122 359 
Q 3791 134 3420 21 
Q 3050 -91 2638 -91 
Q 1578 -91 968 557 
Q 359 1206 359 2328 
Q 359 3453 968 4101 
Q 1578 4750 2638 4750 
Q 3056 4750 3426 4639 
Q 3797 4528 4122 4306 
z
" transform="scale(0.015625)"/>
       <path id="DejaVuSans-6e" d="M 3513 2113 
L 3513 0 
L 2938 0 
L 2938 2094 
Q 2938 2591 2744 2837 
Q 2550 3084 2163 3084 
Q 1697 3084 1428 2787 
Q 1159 2491 1159 1978 
L 1159 0 
L 581 0 
L 581 3500 
L 1159 3500 
L 1159 2956 
Q 1366 3272 1645 3428 
Q 1925 3584 2291 3584 
Q 2894 3584 3203 3211 
Q 3513 2838 3513 2113 
z
" transform="scale(0.015625)"/>
       <path id="DejaVuSans-73" d="M 2834 3397 
L 2834 2853 
Q 2591 2978 2328 3040 
Q 2066 3103 1784 3103 
Q 1356 3103 1142 2972 
Q 928 2841 928 2578 
Q 928 2378 1081 2264 
Q 1234 2150 1697 2047 
L 1894 2003 
Q 2506 1872 2764 1633 
Q 3022 1394 3022 966 
Q 3022 478 2636 193 
Q 2250 -91 1575 -91 
Q 1294 -91 989 -36 
Q 684 19 347 128 
L 347 722 
Q 666 556 975 473 
Q 1284 391 1588 391 
Q 1994 391 2212 530 
Q 2431 669 2431 922 
Q 2431 1156 2273 1281 
Q 2116 1406 1581 1522 
L 1381 1569 
Q 847 1681 609 1914 
Q 372 2147 372 2553 
Q 372 3047 722 3315 
Q 1072 3584 1716 3584 
Q 2034 3584 2315 3537 
Q 2597 3491 2834 3397 
z
" transform="scale(0.015625)"/>
      </defs>
      <use xlink:href="#DejaVuSans-54"/>
      <use xlink:href="#DejaVuSans-6f" x="44.083984"/>
      <use xlink:href="#DejaVuSans-74" x="105.265625"/>
      <use xlink:href="#DejaVuSans-61" x="144.474609"/>
      <use xlink:href="#DejaVuSans-6c" x="205.753906"/>
      <use xlink:href="#DejaVuSans-20" x="233.537109"/>
      <use xlink:href="#DejaVuSans-47" x="265.324219"/>
      <use xlink:href="#DejaVuSans-69" x="342.814453"/>
      <use xlink:href="#DejaVuSans-74" x="370.597656"/>
      <use xlink:href="#DejaVuSans-48" x="409.806641"/>
      <use xlink:href="#DejaVuSans-75" x="485.001953"/>
      <use xlink:href="#DejaVuSans-62" x="548.380859"/>
      <use xlink:href="#DejaVuSans-20" x="611.857422"/>
      <use xlink:href="#DejaVuSans-43" x="643.644531"/>
      <use xlink:href="#DejaVuSans-6c" x="713.46875"/>
      <use xlink:href="#DejaVuSans-6f" x="741.251953"/>
      <use xlink:href="#DejaVuSans-6e" x="802.433594"/>
      <use xlink:href="#DejaVuSans-65" x="865.8125"/>
      <use xlink:href="#DejaVuSans-73" x="927.335938"/>
     </g>
    </g>
    <g id="line2d_16">
     <path d="M 99 62.336562 
L 109 62.336562 
L 119 62.336562 
" style="fill: none; stroke: #ff7f0e; stroke-width: 1.5; stroke-linecap: square"/>
    </g>
    <g id="text_15">
     <!-- Unique GitHub Clones -->
     <g transform="translate(127 65.836562)scale(0.1 -0.1)">
      <defs>
       <path id="DejaVuSans-55" d="M 556 4666 
L 1191 4666 
L 1191 1831 
Q 1191 1081 1462 751 
Q 1734 422 2344 422 
Q 2950 422 3222 751 
Q 3494 1081 3494 1831 
L 3494 4666 
L 4128 4666 
L 4128 1753 
Q 4128 841 3676 375 
Q 3225 -91 2344 -91 
Q 1459 -91 1007 375 
Q 556 841 556 1753 
L 556 4666 
z
" transform="scale(0.015625)"/>
       <path id="DejaVuSans-71" d="M 947 1747 
Q 947 1113 1208 752 
Q 1469 391 1925 391 
Q 2381 391 2643 752 
Q 2906 1113 2906 1747 
Q 2906 2381 2643 2742 
Q 2381 3103 1925 3103 
Q 1469 3103 1208 2742 
Q 947 2381 947 1747 
z
M 2906 525 
Q 2725 213 2448 61 
Q 2172 -91 1784 -91 
Q 1150 -91 751 415 
Q 353 922 353 1747 
Q 353 2572 751 3078 
Q 1150 3584 1784 3584 
Q 2172 3584 2448 3432 
Q 2725 3281 2906 2969 
L 2906 3500 
L 3481 3500 
L 3481 -1331 
L 2906 -1331 
L 2906 525 
z
" transform="scale(0.015625)"/>
      </defs>
      <use xlink:href="#DejaVuSans-55"/>
      <use xlink:href="#DejaVuSans-6e" x="73.193359"/>
      <use xlink:href="#DejaVuSans-69" x="136.572266"/>
      <use xlink:href="#DejaVuSans-71" x="164.355469"/>
      <use xlink:href="#DejaVuSans-75" x="227.832031"/>
      <use xlink:href="#DejaVuSans-65" x="291.210938"/>
      <use xlink:href="#DejaVuSans-20" x="352.734375"/>
      <use xlink:href="#DejaVuSans-47" x="384.521484"/>
      <use xlink:href="#DejaVuSans-69" x="462.011719"/>
      <use xlink:href="#DejaVuSans-74" x="489.794922"/>
      <use xlink:href="#DejaVuSans-48" x="529.003906"/>
      <use xlink:href="#DejaVuSans-75" x="604.199219"/>
      <use xlink:href="#DejaVuSans-62" x="667.578125"/>
      <use xlink:href="#DejaVuSans-20" x="731.054688"/>
      <use xlink:href="#DejaVuSans-43" x="762.841797"/>
      <use xlink:href="#DejaVuSans-6c" x="832.666016"/>
      <use xlink:href="#DejaVuSans-6f" x="860.449219"/>
      <use xlink:href="#DejaVuSans-6e" x="921.630859"/>
      <use xlink:href="#DejaVuSans-65" x="985.009766"/>
      <use xlink:href="#DejaVuSans-73" x="1046.533203"/>
     </g>
    </g>
   </g>
  </g>
  <g id="axes_2">
   <g id="patch_8">
    <path d="M 90 256.32 
L 648 256.32 
L 648 155.52 
L 90 155.52 
z
" style="fill: #ffffff"/>
   </g>
   <g id="matplotlib.axis_3">
    <g id="xtick_9">
     <g id="line2d_17">
      <g>
       <use xlink:href="#m2fd648a284" x="115.363636" y="256.32" style="stroke: #000000; stroke-width: 0.8"/>
      </g>
     </g>
     <g id="text_16">
      <!-- 2020-10-21 -->
      <g transform="translate(86.305824 270.918437)scale(0.1 -0.1)">
       <use xlink:href="#DejaVuSans-32"/>
       <use xlink:href="#DejaVuSans-30" x="63.623047"/>
       <use xlink:href="#DejaVuSans-32" x="127.246094"/>
       <use xlink:href="#DejaVuSans-30" x="190.869141"/>
       <use xlink:href="#DejaVuSans-2d" x="254.492188"/>
       <use xlink:href="#DejaVuSans-31" x="290.576172"/>
       <use xlink:href="#DejaVuSans-30" x="354.199219"/>
       <use xlink:href="#DejaVuSans-2d" x="417.822266"/>
       <use xlink:href="#DejaVuSans-32" x="453.90625"/>
       <use xlink:href="#DejaVuSans-31" x="517.529297"/>
      </g>
     </g>
    </g>
    <g id="xtick_10">
     <g id="line2d_18">
      <g>
       <use xlink:href="#m2fd648a284" x="222.609456" y="256.32" style="stroke: #000000; stroke-width: 0.8"/>
      </g>
     </g>
     <g id="text_17">
      <!-- 2021-01-31 -->
      <g transform="translate(193.551644 270.918437)scale(0.1 -0.1)">
       <use xlink:href="#DejaVuSans-32"/>
       <use xlink:href="#DejaVuSans-30" x="63.623047"/>
       <use xlink:href="#DejaVuSans-32" x="127.246094"/>
       <use xlink:href="#DejaVuSans-31" x="190.869141"/>
       <use xlink:href="#DejaVuSans-2d" x="254.492188"/>
       <use xlink:href="#DejaVuSans-30" x="290.576172"/>
       <use xlink:href="#DejaVuSans-31" x="354.199219"/>
       <use xlink:href="#DejaVuSans-2d" x="417.822266"/>
       <use xlink:href="#DejaVuSans-33" x="453.90625"/>
       <use xlink:href="#DejaVuSans-31" x="517.529297"/>
      </g>
     </g>
    </g>
    <g id="xtick_11">
     <g id="line2d_19">
      <g>
       <use xlink:href="#m2fd648a284" x="329.855276" y="256.32" style="stroke: #000000; stroke-width: 0.8"/>
      </g>
     </g>
     <g id="text_18">
      <!-- 2021-05-11 -->
      <g transform="translate(300.797463 270.918437)scale(0.1 -0.1)">
       <use xlink:href="#DejaVuSans-32"/>
       <use xlink:href="#DejaVuSans-30" x="63.623047"/>
       <use xlink:href="#DejaVuSans-32" x="127.246094"/>
       <use xlink:href="#DejaVuSans-31" x="190.869141"/>
       <use xlink:href="#DejaVuSans-2d" x="254.492188"/>
       <use xlink:href="#DejaVuSans-30" x="290.576172"/>
       <use xlink:href="#DejaVuSans-35" x="354.199219"/>
       <use xlink:href="#DejaVuSans-2d" x="417.822266"/>
       <use xlink:href="#DejaVuSans-31" x="453.90625"/>
       <use xlink:href="#DejaVuSans-31" x="517.529297"/>
      </g>
     </g>
    </g>
    <g id="xtick_12">
     <g id="line2d_20">
      <g>
       <use xlink:href="#m2fd648a284" x="437.101096" y="256.32" style="stroke: #000000; stroke-width: 0.8"/>
      </g>
     </g>
     <g id="text_19">
      <!-- 2021-08-19 -->
      <g transform="translate(408.043283 270.918437)scale(0.1 -0.1)">
       <defs>
        <path id="DejaVuSans-38" d="M 2034 2216 
Q 1584 2216 1326 1975 
Q 1069 1734 1069 1313 
Q 1069 891 1326 650 
Q 1584 409 2034 409 
Q 2484 409 2743 651 
Q 3003 894 3003 1313 
Q 3003 1734 2745 1975 
Q 2488 2216 2034 2216 
z
M 1403 2484 
Q 997 2584 770 2862 
Q 544 3141 544 3541 
Q 544 4100 942 4425 
Q 1341 4750 2034 4750 
Q 2731 4750 3128 4425 
Q 3525 4100 3525 3541 
Q 3525 3141 3298 2862 
Q 3072 2584 2669 2484 
Q 3125 2378 3379 2068 
Q 3634 1759 3634 1313 
Q 3634 634 3220 271 
Q 2806 -91 2034 -91 
Q 1263 -91 848 271 
Q 434 634 434 1313 
Q 434 1759 690 2068 
Q 947 2378 1403 2484 
z
M 1172 3481 
Q 1172 3119 1398 2916 
Q 1625 2713 2034 2713 
Q 2441 2713 2670 2916 
Q 2900 3119 2900 3481 
Q 2900 3844 2670 4047 
Q 2441 4250 2034 4250 
Q 1625 4250 1398 4047 
Q 1172 3844 1172 3481 
z
" transform="scale(0.015625)"/>
       </defs>
       <use xlink:href="#DejaVuSans-32"/>
       <use xlink:href="#DejaVuSans-30" x="63.623047"/>
       <use xlink:href="#DejaVuSans-32" x="127.246094"/>
       <use xlink:href="#DejaVuSans-31" x="190.869141"/>
       <use xlink:href="#DejaVuSans-2d" x="254.492188"/>
       <use xlink:href="#DejaVuSans-30" x="290.576172"/>
       <use xlink:href="#DejaVuSans-38" x="354.199219"/>
       <use xlink:href="#DejaVuSans-2d" x="417.822266"/>
       <use xlink:href="#DejaVuSans-31" x="453.90625"/>
       <use xlink:href="#DejaVuSans-39" x="517.529297"/>
      </g>
     </g>
    </g>
    <g id="xtick_13">
     <g id="line2d_21">
      <g>
       <use xlink:href="#m2fd648a284" x="544.346915" y="256.32" style="stroke: #000000; stroke-width: 0.8"/>
      </g>
     </g>
     <g id="text_20">
      <!-- 2021-11-27 -->
      <g transform="translate(515.289103 270.918437)scale(0.1 -0.1)">
       <use xlink:href="#DejaVuSans-32"/>
       <use xlink:href="#DejaVuSans-30" x="63.623047"/>
       <use xlink:href="#DejaVuSans-32" x="127.246094"/>
       <use xlink:href="#DejaVuSans-31" x="190.869141"/>
       <use xlink:href="#DejaVuSans-2d" x="254.492188"/>
       <use xlink:href="#DejaVuSans-31" x="290.576172"/>
       <use xlink:href="#DejaVuSans-31" x="354.199219"/>
       <use xlink:href="#DejaVuSans-2d" x="417.822266"/>
       <use xlink:href="#DejaVuSans-32" x="453.90625"/>
       <use xlink:href="#DejaVuSans-37" x="517.529297"/>
      </g>
     </g>
    </g>
    <g id="text_21">
     <!-- _date -->
     <g transform="translate(355.225 284.596563)scale(0.1 -0.1)">
      <use xlink:href="#DejaVuSans-5f"/>
      <use xlink:href="#DejaVuSans-64" x="50"/>
      <use xlink:href="#DejaVuSans-61" x="113.476562"/>
      <use xlink:href="#DejaVuSans-74" x="174.755859"/>
      <use xlink:href="#DejaVuSans-65" x="213.964844"/>
     </g>
    </g>
   </g>
   <g id="matplotlib.axis_4">
    <g id="ytick_5">
     <g id="line2d_22">
      <g>
       <use xlink:href="#me23703238a" x="90" y="252.02101" style="stroke: #000000; stroke-width: 0.8"/>
      </g>
     </g>
     <g id="text_22">
      <!-- 0 -->
      <g transform="translate(76.6375 255.820229)scale(0.1 -0.1)">
       <use xlink:href="#DejaVuSans-30"/>
      </g>
     </g>
    </g>
    <g id="ytick_6">
     <g id="line2d_23">
      <g>
       <use xlink:href="#me23703238a" x="90" y="223.738182" style="stroke: #000000; stroke-width: 0.8"/>
      </g>
     </g>
     <g id="text_23">
      <!-- 100 -->
      <g transform="translate(63.9125 227.537401)scale(0.1 -0.1)">
       <use xlink:href="#DejaVuSans-31"/>
       <use xlink:href="#DejaVuSans-30" x="63.623047"/>
       <use xlink:href="#DejaVuSans-30" x="127.246094"/>
      </g>
     </g>
    </g>
    <g id="ytick_7">
     <g id="line2d_24">
      <g>
       <use xlink:href="#me23703238a" x="90" y="195.455354" style="stroke: #000000; stroke-width: 0.8"/>
      </g>
     </g>
     <g id="text_24">
      <!-- 200 -->
      <g transform="translate(63.9125 199.254572)scale(0.1 -0.1)">
       <use xlink:href="#DejaVuSans-32"/>
       <use xlink:href="#DejaVuSans-30" x="63.623047"/>
       <use xlink:href="#DejaVuSans-30" x="127.246094"/>
      </g>
     </g>
    </g>
    <g id="ytick_8">
     <g id="line2d_25">
      <g>
       <use xlink:href="#me23703238a" x="90" y="167.172525" style="stroke: #000000; stroke-width: 0.8"/>
      </g>
     </g>
     <g id="text_25">
      <!-- 300 -->
      <g transform="translate(63.9125 170.971744)scale(0.1 -0.1)">
       <use xlink:href="#DejaVuSans-33"/>
       <use xlink:href="#DejaVuSans-30" x="63.623047"/>
       <use xlink:href="#DejaVuSans-30" x="127.246094"/>
      </g>
     </g>
    </g>
   </g>
   <g id="line2d_26">
    <path d="M 115.363636 251.738182 
L 116.436095 230.808889 
L 117.508553 228.263434 
L 118.581011 244.384646 
L 119.653469 251.455354 
L 120.725927 238.728081 
L 121.798386 238.445253 
L 122.870844 234.485657 
L 123.943302 238.445253 
L 125.01576 239.293737 
L 126.088218 250.606869 
L 127.160677 248.344242 
L 128.233135 247.495758 
L 129.305593 239.293737 
L 130.378051 211.576566 
L 131.450509 226.000808 
L 132.522968 243.81899 
L 133.595426 247.212929 
L 134.667884 251.172525 
L 135.740342 238.445253 
L 136.8128 224.303838 
L 137.885259 245.798788 
L 138.957717 243.253333 
L 140.030175 236.748283 
L 141.102633 236.748283 
L 142.175091 249.758384 
L 143.247549 237.031111 
L 144.320008 233.354343 
L 145.392466 243.536162 
L 146.464924 243.536162 
L 147.537382 238.728081 
L 148.60984 246.930101 
L 149.682299 249.192727 
L 150.754757 226.283636 
L 151.827215 248.909899 
L 152.899673 248.061414 
L 153.972131 249.758384 
L 155.04459 247.778586 
L 156.117048 251.455354 
L 157.189506 251.455354 
L 158.261964 227.980606 
L 159.334422 215.253333 
L 160.406881 243.81899 
L 161.479339 245.233131 
L 162.551797 226.566465 
L 163.624255 250.889697 
L 164.696713 244.950303 
L 165.769172 241.556364 
L 166.84163 246.081616 
L 167.914088 236.182626 
L 168.986546 246.930101 
L 170.059004 250.889697 
L 171.131463 251.738182 
L 172.203921 243.81899 
L 173.276379 242.12202 
L 174.348837 242.404848 
L 175.421295 240.990707 
L 176.493754 248.909899 
L 177.566212 250.889697 
L 178.63867 250.606869 
L 179.711128 247.212929 
L 180.783586 247.778586 
L 181.856045 242.687677 
L 182.928503 250.041212 
L 184.000961 251.172525 
L 185.073419 251.455354 
L 186.145877 248.344242 
L 187.218336 249.475556 
L 188.290794 250.32404 
L 189.363252 251.738182 
L 190.43571 247.212929 
L 191.508168 247.495758 
L 192.580627 250.889697 
L 193.653085 246.364444 
L 194.725543 242.687677 
L 195.798001 240.142222 
L 196.870459 247.778586 
L 197.942918 248.909899 
L 199.015376 232.505859 
L 200.087834 250.32404 
L 201.160292 234.202828 
L 202.23275 235.899798 
L 203.305209 240.142222 
L 204.377667 233.637172 
L 205.450125 246.930101 
L 206.522583 235.051313 
L 207.595041 251.172525 
L 208.6675 233.92 
L 209.739958 235.334141 
L 210.812416 226.849293 
L 211.884874 232.788687 
L 212.957332 240.142222 
L 214.029791 242.970505 
L 215.102249 248.344242 
L 216.174707 229.111919 
L 217.247165 224.586667 
L 218.319623 236.465455 
L 219.392081 235.051313 
L 220.46454 232.505859 
L 221.536998 247.495758 
L 222.609456 248.627071 
L 223.681914 230.243232 
L 224.754372 246.930101 
L 226.899289 233.354343 
L 229.044205 250.889697 
L 230.116663 247.778586 
L 231.189122 235.61697 
L 232.26158 235.051313 
L 233.334038 225.435152 
L 234.406496 242.12202 
L 235.478954 250.32404 
L 236.551413 250.606869 
L 237.623871 249.192727 
L 238.696329 242.687677 
L 239.768787 242.970505 
L 240.841245 246.930101 
L 241.913704 231.091717 
L 242.986162 248.344242 
L 244.05862 242.12202 
L 245.131078 239.293737 
L 246.203536 240.990707 
L 247.275995 225.71798 
L 248.348453 235.899798 
L 249.420911 235.051313 
L 250.493369 240.142222 
L 251.565827 238.445253 
L 252.638286 239.576566 
L 253.710744 183.859394 
L 254.783202 245.798788 
L 255.85566 231.091717 
L 256.928118 234.768485 
L 258.000577 227.132121 
L 259.073035 241.839192 
L 260.145493 200.263434 
L 261.217951 198.566465 
L 262.290409 204.505859 
L 263.362868 229.394747 
L 264.435326 174.243232 
L 265.507784 223.738182 
L 266.580242 246.081616 
L 267.6527 245.233131 
L 268.725159 237.596768 
L 269.797617 231.374545 
L 270.870075 227.980606 
L 271.942533 234.768485 
L 273.014991 224.02101 
L 274.08745 243.81899 
L 275.159908 245.798788 
L 276.232366 205.637172 
L 277.304824 232.788687 
L 278.377282 234.485657 
L 279.449741 246.364444 
L 280.522199 248.627071 
L 281.594657 248.061414 
L 282.667115 233.071515 
L 283.739573 184.425051 
L 284.812032 229.960404 
L 285.88449 234.485657 
L 286.956948 214.404848 
L 288.029406 244.384646 
L 289.101864 248.344242 
L 290.174323 244.950303 
L 291.246781 222.041212 
L 292.319239 238.728081 
L 293.391697 223.455354 
L 294.464155 200.546263 
L 295.536613 233.92 
L 296.609072 241.273535 
L 297.68153 246.081616 
L 298.753988 176.505859 
L 299.826446 227.697778 
L 300.898904 243.536162 
L 301.971363 235.334141 
L 303.043821 236.748283 
L 304.116279 248.909899 
L 305.188737 246.930101 
L 306.261195 187.81899 
L 307.333654 181.031111 
L 308.406112 198.566465 
L 309.47857 242.970505 
L 310.551028 249.192727 
L 311.623486 236.748283 
L 312.695945 247.495758 
L 314.840861 224.586667 
L 315.913319 162.647273 
L 316.985777 222.32404 
L 318.058236 221.475556 
L 319.130694 226.283636 
L 320.203152 245.51596 
L 321.27561 246.364444 
L 322.348068 220.344242 
L 323.420527 236.182626 
L 324.492985 235.899798 
L 325.565443 226.566465 
L 326.637901 243.253333 
L 327.710359 249.192727 
L 328.782818 198.283636 
L 329.855276 237.313939 
L 330.927734 212.990707 
L 332.000192 206.768485 
L 333.07265 213.556364 
L 334.145109 249.758384 
L 335.217567 249.758384 
L 336.290025 222.606869 
L 337.362483 233.071515 
L 338.434941 232.505859 
L 339.5074 239.010909 
L 340.579858 242.687677 
L 341.652316 248.344242 
L 342.724774 246.081616 
L 343.797232 226.000808 
L 344.869691 244.101818 
L 345.942149 240.425051 
L 347.014607 232.22303 
L 348.087065 238.728081 
L 349.159523 249.758384 
L 350.231982 249.758384 
L 351.30444 242.970505 
L 352.376898 240.142222 
L 353.449356 246.364444 
L 354.521814 241.273535 
L 355.594273 243.536162 
L 356.666731 249.192727 
L 357.739189 247.495758 
L 358.811647 231.091717 
L 359.884105 236.465455 
L 360.956564 168.303838 
L 362.029022 213.839192 
L 363.10148 244.101818 
L 364.173938 242.12202 
L 365.246396 250.041212 
L 366.318855 232.22303 
L 367.391313 234.202828 
L 368.463771 241.839192 
L 369.536229 240.990707 
L 370.608687 235.61697 
L 371.681145 249.758384 
L 372.753604 250.32404 
L 373.826062 193.192727 
L 374.89852 239.293737 
L 375.970978 244.950303 
L 377.043436 247.212929 
L 378.115895 201.677576 
L 379.188353 247.212929 
L 380.260811 248.061414 
L 382.405727 241.839192 
L 383.478186 242.12202 
L 384.550644 224.02101 
L 385.623102 244.384646 
L 386.69556 249.758384 
L 387.768018 243.536162 
L 388.840477 245.233131 
L 389.912935 180.182626 
L 390.985393 197.435152 
L 392.057851 240.425051 
L 393.130309 242.404848 
L 394.202768 244.667475 
L 395.275226 244.101818 
L 396.347684 231.657374 
L 397.420142 242.12202 
L 398.4926 243.253333 
L 399.565059 222.32404 
L 400.637517 239.293737 
L 401.709975 250.32404 
L 402.782433 251.738182 
L 403.854891 244.667475 
L 404.92735 245.233131 
L 405.999808 246.647273 
L 407.072266 243.536162 
L 408.144724 246.081616 
L 409.217182 249.475556 
L 410.289641 251.172525 
L 411.362099 243.536162 
L 412.434557 243.253333 
L 413.507015 230.808889 
L 414.579473 229.111919 
L 415.651932 250.606869 
L 416.72439 246.081616 
L 417.796848 251.738182 
L 418.869306 239.010909 
L 419.941764 240.142222 
L 421.014223 242.687677 
L 422.086681 239.859394 
L 423.159139 248.344242 
L 424.231597 245.51596 
L 425.304055 250.041212 
L 426.376514 236.748283 
L 427.448972 238.728081 
L 428.52143 243.81899 
L 429.593888 240.707879 
L 430.666346 231.374545 
L 431.738805 241.839192 
L 432.811263 248.344242 
L 433.883721 232.505859 
L 434.956179 250.32404 
L 436.028637 245.798788 
L 437.101096 244.101818 
L 438.173554 251.172525 
L 439.246012 250.889697 
L 440.31847 244.667475 
L 441.390928 245.233131 
L 442.463387 232.22303 
L 443.535845 230.526061 
L 444.608303 248.909899 
L 445.680761 249.758384 
L 446.753219 250.32404 
L 447.825677 242.404848 
L 448.898136 242.12202 
L 449.970594 226.849293 
L 451.043052 235.61697 
L 452.11551 235.334141 
L 453.187968 244.950303 
L 454.260427 249.758384 
L 455.332885 245.51596 
L 456.405343 246.364444 
L 457.477801 249.758384 
L 458.550259 236.465455 
L 459.622718 247.495758 
L 460.695176 242.12202 
L 461.767634 224.586667 
L 462.840092 250.889697 
L 463.91255 248.061414 
L 464.985009 232.788687 
L 466.057467 214.970505 
L 467.129925 235.899798 
L 468.202383 248.061414 
L 469.274841 247.495758 
L 470.3473 250.32404 
L 471.419758 246.364444 
L 472.492216 231.091717 
L 473.564674 229.394747 
L 474.637132 219.778586 
L 475.709591 232.788687 
L 476.782049 248.344242 
L 477.854507 251.455354 
L 478.926965 248.344242 
L 479.999423 249.758384 
L 481.071882 239.293737 
L 482.14434 186.12202 
L 483.216798 228.263434 
L 484.289256 242.12202 
L 485.361714 240.425051 
L 486.434173 229.677576 
L 487.506631 229.677576 
L 488.579089 219.212929 
L 489.651547 195.455354 
L 490.724005 215.536162 
L 491.796464 246.081616 
L 492.868922 250.606869 
L 493.94138 223.172525 
L 495.013838 226.849293 
L 496.086296 210.445253 
L 497.158755 239.576566 
L 498.231213 235.334141 
L 499.303671 245.798788 
L 500.376129 248.061414 
L 501.448587 213.556364 
L 502.521046 237.879596 
L 503.593504 249.475556 
L 504.665962 222.041212 
L 505.73842 160.101818 
L 506.810878 239.859394 
L 507.883337 235.051313 
L 508.955795 226.566465 
L 510.028253 227.697778 
L 511.100711 242.404848 
L 512.173169 231.374545 
L 513.245628 238.162424 
L 514.318086 246.647273 
L 515.390544 245.51596 
L 516.463002 235.051313 
L 517.53546 248.909899 
L 518.607919 242.970505 
L 519.680377 228.263434 
L 521.825293 250.889697 
L 522.897751 250.041212 
L 523.970209 244.667475 
L 525.042668 230.526061 
L 526.115126 240.142222 
L 527.187584 246.930101 
L 528.260042 247.778586 
L 529.3325 247.778586 
L 530.404959 248.627071 
L 531.477417 238.728081 
L 532.549875 234.768485 
L 533.622333 243.536162 
L 535.76725 236.748283 
L 536.839708 250.041212 
L 537.912166 249.758384 
L 538.984624 233.637172 
L 540.057082 231.940202 
L 541.129541 245.233131 
L 543.274457 250.889697 
L 544.346915 248.344242 
L 545.419373 247.495758 
L 546.491832 244.101818 
L 547.56429 227.414949 
L 548.636748 237.596768 
L 549.709206 238.162424 
L 550.781664 225.435152 
L 551.854123 249.758384 
L 552.926581 226.849293 
L 553.999039 228.546263 
L 555.071497 236.465455 
L 556.143955 200.263434 
L 557.216414 239.293737 
L 558.288872 220.344242 
L 559.36133 247.212929 
L 560.433788 248.061414 
L 561.506246 228.829091 
L 562.578705 242.12202 
L 563.651163 206.202828 
L 564.723621 233.637172 
L 565.796079 236.465455 
L 566.868537 242.970505 
L 567.940996 232.22303 
L 569.013454 248.909899 
L 570.085912 215.253333 
L 571.15837 242.404848 
L 572.230828 235.051313 
L 573.303287 239.293737 
L 574.375745 242.12202 
L 575.448203 242.404848 
L 576.520661 246.647273 
L 577.593119 248.909899 
L 578.665578 245.51596 
L 579.738036 248.627071 
L 580.810494 250.889697 
L 581.882952 249.475556 
L 582.95541 249.192727 
L 584.027869 246.647273 
L 585.100327 215.81899 
L 587.245243 241.556364 
L 588.317701 242.687677 
L 589.39016 249.758384 
L 590.462618 250.889697 
L 591.535076 251.738182 
L 592.607534 243.253333 
L 593.679992 235.899798 
L 594.752451 240.707879 
L 595.824909 217.798788 
L 596.897367 246.647273 
L 597.969825 245.798788 
L 599.042283 250.889697 
L 600.114741 247.495758 
L 601.1872 238.728081 
L 602.259658 244.384646 
L 603.332116 241.556364 
L 604.404574 245.51596 
L 605.477032 250.606869 
L 606.549491 251.172525 
L 607.621949 250.041212 
L 608.694407 217.798788 
L 609.766865 218.364444 
L 610.839323 235.051313 
L 611.911782 247.495758 
L 612.98424 215.536162 
L 614.056698 246.647273 
L 615.129156 235.051313 
L 616.201614 210.728081 
L 617.274073 237.313939 
L 618.346531 207.61697 
L 619.418989 195.738182 
L 620.491447 231.657374 
L 621.563905 250.606869 
L 622.636364 249.758384 
L 622.636364 249.758384 
" clip-path="url(#p34fa80a19c)" style="fill: none; stroke: #1f77b4; stroke-width: 1.5; stroke-linecap: square"/>
   </g>
   <g id="line2d_27">
    <path d="M 115.363636 251.738182 
L 116.436095 249.475556 
L 117.508553 248.344242 
L 118.581011 249.475556 
L 119.653469 251.738182 
L 120.725927 250.041212 
L 121.798386 249.192727 
L 122.870844 249.192727 
L 123.943302 248.909899 
L 125.01576 249.475556 
L 126.088218 251.455354 
L 130.378051 249.192727 
L 131.450509 248.909899 
L 132.522968 250.041212 
L 134.667884 251.738182 
L 135.740342 248.909899 
L 136.8128 249.475556 
L 137.885259 250.606869 
L 138.957717 250.889697 
L 140.030175 250.606869 
L 141.102633 251.455354 
L 142.175091 251.172525 
L 143.247549 250.041212 
L 144.320008 251.172525 
L 145.392466 248.909899 
L 146.464924 249.758384 
L 147.537382 250.32404 
L 148.60984 251.172525 
L 149.682299 251.172525 
L 150.754757 247.495758 
L 151.827215 251.455354 
L 152.899673 251.455354 
L 153.972131 251.172525 
L 156.117048 251.738182 
L 157.189506 251.455354 
L 158.261964 249.475556 
L 159.334422 246.930101 
L 160.406881 248.627071 
L 161.479339 250.041212 
L 162.551797 250.041212 
L 163.624255 251.455354 
L 164.696713 250.32404 
L 165.769172 250.041212 
L 166.84163 250.889697 
L 167.914088 247.778586 
L 168.986546 249.475556 
L 170.059004 251.455354 
L 171.131463 251.738182 
L 172.203921 249.192727 
L 174.348837 249.192727 
L 175.421295 250.041212 
L 176.493754 250.32404 
L 177.566212 251.172525 
L 178.63867 251.455354 
L 179.711128 250.889697 
L 180.783586 250.606869 
L 181.856045 251.172525 
L 184.000961 251.172525 
L 185.073419 251.455354 
L 186.145877 250.889697 
L 188.290794 250.889697 
L 189.363252 251.738182 
L 190.43571 251.172525 
L 191.508168 251.172525 
L 192.580627 250.889697 
L 193.653085 249.758384 
L 194.725543 248.061414 
L 195.798001 250.041212 
L 196.870459 251.172525 
L 197.942918 250.889697 
L 199.015376 250.889697 
L 200.087834 251.172525 
L 201.160292 249.475556 
L 202.23275 248.627071 
L 203.305209 249.758384 
L 204.377667 246.930101 
L 205.450125 249.758384 
L 206.522583 250.32404 
L 207.595041 251.172525 
L 208.6675 250.606869 
L 209.739958 250.606869 
L 210.812416 248.344242 
L 211.884874 249.475556 
L 212.957332 249.192727 
L 214.029791 249.192727 
L 215.102249 250.32404 
L 216.174707 246.081616 
L 217.247165 247.778586 
L 218.319623 249.192727 
L 219.392081 247.495758 
L 220.46454 246.364444 
L 221.536998 250.889697 
L 222.609456 250.606869 
L 223.681914 248.627071 
L 224.754372 250.041212 
L 225.826831 248.061414 
L 226.899289 249.475556 
L 227.971747 249.475556 
L 229.044205 250.889697 
L 230.116663 251.172525 
L 231.189122 248.909899 
L 232.26158 248.061414 
L 233.334038 248.344242 
L 234.406496 250.889697 
L 235.478954 251.455354 
L 237.623871 250.889697 
L 238.696329 250.889697 
L 239.768787 249.475556 
L 240.841245 250.32404 
L 241.913704 248.909899 
L 242.986162 250.889697 
L 244.05862 250.32404 
L 245.131078 250.889697 
L 246.203536 249.192727 
L 247.275995 248.909899 
L 248.348453 248.909899 
L 249.420911 248.061414 
L 250.493369 250.32404 
L 251.565827 250.889697 
L 252.638286 250.889697 
L 253.710744 242.404848 
L 254.783202 248.909899 
L 255.85566 248.909899 
L 256.928118 247.495758 
L 258.000577 249.192727 
L 259.073035 250.606869 
L 260.145493 250.606869 
L 261.217951 246.364444 
L 262.290409 246.647273 
L 263.362868 248.344242 
L 264.435326 246.647273 
L 265.507784 247.495758 
L 266.580242 250.041212 
L 267.6527 250.889697 
L 268.725159 247.495758 
L 269.797617 246.081616 
L 270.870075 247.212929 
L 271.942533 247.495758 
L 273.014991 249.475556 
L 274.08745 251.172525 
L 275.159908 250.041212 
L 276.232366 247.778586 
L 277.304824 247.778586 
L 278.377282 248.627071 
L 279.449741 250.606869 
L 281.594657 251.172525 
L 282.667115 250.041212 
L 283.739573 246.364444 
L 284.812032 247.212929 
L 285.88449 248.627071 
L 286.956948 246.930101 
L 288.029406 249.758384 
L 289.101864 251.172525 
L 291.246781 249.475556 
L 292.319239 248.344242 
L 293.391697 248.627071 
L 294.464155 247.495758 
L 295.536613 249.192727 
L 296.609072 249.475556 
L 297.68153 250.889697 
L 298.753988 245.51596 
L 299.826446 248.061414 
L 300.898904 248.909899 
L 301.971363 249.192727 
L 303.043821 249.192727 
L 304.116279 250.889697 
L 305.188737 250.32404 
L 306.261195 245.798788 
L 307.333654 244.384646 
L 308.406112 246.930101 
L 309.47857 248.909899 
L 310.551028 250.32404 
L 311.623486 249.192727 
L 312.695945 250.32404 
L 313.768403 246.364444 
L 314.840861 246.647273 
L 315.913319 229.111919 
L 316.985777 248.061414 
L 318.058236 246.647273 
L 319.130694 250.606869 
L 320.203152 251.738182 
L 321.27561 249.758384 
L 322.348068 248.344242 
L 323.420527 248.344242 
L 324.492985 248.627071 
L 325.565443 247.778586 
L 327.710359 251.172525 
L 328.782818 249.192727 
L 329.855276 248.344242 
L 330.927734 246.930101 
L 332.000192 247.212929 
L 333.07265 245.798788 
L 334.145109 250.606869 
L 335.217567 251.738182 
L 336.290025 245.798788 
L 337.362483 247.212929 
L 338.434941 249.475556 
L 339.5074 247.495758 
L 340.579858 248.344242 
L 341.652316 251.455354 
L 342.724774 250.32404 
L 343.797232 248.344242 
L 344.869691 249.475556 
L 345.942149 248.061414 
L 347.014607 246.364444 
L 349.159523 250.889697 
L 350.231982 251.172525 
L 351.30444 249.192727 
L 352.376898 247.778586 
L 353.449356 250.041212 
L 354.521814 249.475556 
L 355.594273 249.475556 
L 357.739189 250.041212 
L 358.811647 246.930101 
L 359.884105 248.909899 
L 360.956564 248.909899 
L 362.029022 250.041212 
L 363.10148 249.192727 
L 364.173938 251.172525 
L 365.246396 250.32404 
L 366.318855 248.344242 
L 367.391313 249.192727 
L 368.463771 248.909899 
L 369.536229 248.344242 
L 370.608687 249.192727 
L 371.681145 251.172525 
L 372.753604 250.889697 
L 373.826062 247.495758 
L 374.89852 250.606869 
L 375.970978 249.758384 
L 377.043436 249.192727 
L 378.115895 245.798788 
L 379.188353 251.172525 
L 380.260811 250.606869 
L 381.333269 249.758384 
L 382.405727 250.32404 
L 383.478186 248.909899 
L 384.550644 248.061414 
L 385.623102 249.192727 
L 386.69556 250.889697 
L 387.768018 250.889697 
L 388.840477 249.475556 
L 389.912935 247.212929 
L 390.985393 247.212929 
L 392.057851 250.32404 
L 393.130309 248.627071 
L 394.202768 250.606869 
L 395.275226 249.475556 
L 396.347684 247.778586 
L 397.420142 248.627071 
L 398.4926 248.627071 
L 399.565059 247.778586 
L 400.637517 248.061414 
L 401.709975 251.172525 
L 402.782433 251.738182 
L 403.854891 250.041212 
L 404.92735 250.041212 
L 405.999808 250.32404 
L 407.072266 250.32404 
L 408.144724 250.606869 
L 410.289641 251.738182 
L 411.362099 250.32404 
L 412.434557 249.475556 
L 413.507015 249.758384 
L 414.579473 248.627071 
L 415.651932 251.172525 
L 416.72439 250.32404 
L 417.796848 251.738182 
L 418.869306 250.32404 
L 419.941764 250.32404 
L 421.014223 248.344242 
L 422.086681 247.778586 
L 423.159139 249.475556 
L 424.231597 250.606869 
L 425.304055 250.606869 
L 426.376514 248.627071 
L 427.448972 249.475556 
L 428.52143 249.758384 
L 429.593888 249.758384 
L 430.666346 248.909899 
L 431.738805 249.192727 
L 432.811263 250.606869 
L 433.883721 248.344242 
L 434.956179 251.455354 
L 436.028637 249.758384 
L 437.101096 249.758384 
L 438.173554 251.172525 
L 439.246012 250.889697 
L 440.31847 250.041212 
L 441.390928 250.041212 
L 442.463387 249.192727 
L 443.535845 249.475556 
L 444.608303 251.172525 
L 445.680761 250.889697 
L 446.753219 251.455354 
L 447.825677 250.606869 
L 449.970594 250.041212 
L 451.043052 248.627071 
L 452.11551 249.192727 
L 453.187968 250.32404 
L 454.260427 250.889697 
L 455.332885 250.32404 
L 456.405343 251.455354 
L 457.477801 250.889697 
L 458.550259 249.192727 
L 459.622718 250.041212 
L 460.695176 251.172525 
L 461.767634 248.344242 
L 462.840092 251.455354 
L 463.91255 251.172525 
L 464.985009 248.061414 
L 467.129925 249.192727 
L 468.202383 250.32404 
L 469.274841 249.758384 
L 470.3473 251.172525 
L 471.419758 250.606869 
L 472.492216 247.778586 
L 473.564674 249.758384 
L 474.637132 249.192727 
L 475.709591 249.758384 
L 476.782049 249.758384 
L 477.854507 251.455354 
L 478.926965 251.455354 
L 479.999423 250.889697 
L 481.071882 248.344242 
L 483.216798 248.344242 
L 484.289256 249.758384 
L 485.361714 249.758384 
L 486.434173 248.909899 
L 487.506631 248.627071 
L 488.579089 247.212929 
L 489.651547 249.475556 
L 490.724005 247.495758 
L 491.796464 250.041212 
L 492.868922 251.172525 
L 493.94138 250.32404 
L 495.013838 249.758384 
L 496.086296 248.061414 
L 497.158755 248.344242 
L 498.231213 249.192727 
L 499.303671 249.758384 
L 500.376129 250.041212 
L 501.448587 247.495758 
L 502.521046 248.344242 
L 503.593504 250.606869 
L 504.665962 249.475556 
L 506.810878 248.909899 
L 507.883337 249.475556 
L 508.955795 247.495758 
L 510.028253 250.041212 
L 511.100711 250.32404 
L 512.173169 248.344242 
L 513.245628 248.909899 
L 514.318086 250.889697 
L 515.390544 250.32404 
L 516.463002 249.475556 
L 517.53546 250.889697 
L 518.607919 249.192727 
L 519.680377 248.627071 
L 520.752835 248.909899 
L 521.825293 251.172525 
L 522.897751 251.172525 
L 523.970209 249.192727 
L 525.042668 250.32404 
L 526.115126 247.778586 
L 528.260042 250.041212 
L 529.3325 250.606869 
L 530.404959 250.041212 
L 531.477417 248.909899 
L 532.549875 247.212929 
L 533.622333 248.344242 
L 534.694791 247.778586 
L 535.76725 248.909899 
L 536.839708 250.606869 
L 537.912166 250.889697 
L 538.984624 249.192727 
L 540.057082 250.606869 
L 541.129541 249.758384 
L 542.201999 250.041212 
L 543.274457 251.455354 
L 544.346915 250.889697 
L 545.419373 250.889697 
L 546.491832 251.455354 
L 547.56429 249.475556 
L 548.636748 250.32404 
L 549.709206 248.909899 
L 550.781664 250.606869 
L 551.854123 251.172525 
L 552.926581 248.909899 
L 553.999039 250.041212 
L 555.071497 249.475556 
L 556.143955 249.475556 
L 557.216414 246.647273 
L 558.288872 246.364444 
L 559.36133 250.32404 
L 560.433788 250.32404 
L 561.506246 248.627071 
L 562.578705 250.32404 
L 563.651163 248.627071 
L 564.723621 249.758384 
L 565.796079 249.192727 
L 566.868537 250.32404 
L 567.940996 250.606869 
L 569.013454 250.606869 
L 570.085912 248.061414 
L 571.15837 249.475556 
L 572.230828 249.758384 
L 573.303287 250.606869 
L 574.375745 250.889697 
L 575.448203 249.475556 
L 576.520661 251.738182 
L 577.593119 251.455354 
L 578.665578 250.889697 
L 579.738036 250.889697 
L 580.810494 251.172525 
L 581.882952 250.606869 
L 582.95541 251.172525 
L 584.027869 250.32404 
L 585.100327 244.384646 
L 586.172785 247.212929 
L 587.245243 249.192727 
L 590.462618 250.889697 
L 591.535076 251.738182 
L 592.607534 249.475556 
L 593.679992 249.475556 
L 594.752451 248.909899 
L 595.824909 245.798788 
L 596.897367 250.606869 
L 597.969825 251.738182 
L 599.042283 251.455354 
L 600.114741 250.606869 
L 601.1872 248.061414 
L 602.259658 250.889697 
L 603.332116 250.041212 
L 604.404574 248.344242 
L 605.477032 251.172525 
L 606.549491 251.455354 
L 607.621949 251.172525 
L 608.694407 250.041212 
L 609.766865 247.778586 
L 610.839323 248.627071 
L 611.911782 249.758384 
L 612.98424 249.192727 
L 614.056698 250.889697 
L 615.129156 250.606869 
L 616.201614 248.061414 
L 617.274073 249.192727 
L 618.346531 246.930101 
L 619.418989 246.364444 
L 620.491447 246.930101 
L 621.563905 251.172525 
L 622.636364 251.738182 
L 622.636364 251.738182 
" clip-path="url(#p34fa80a19c)" style="fill: none; stroke: #ff7f0e; stroke-width: 1.5; stroke-linecap: square"/>
   </g>
   <g id="patch_9">
    <path d="M 90 256.32 
L 90 155.52 
" style="fill: none; stroke: #000000; stroke-width: 0.8; stroke-linejoin: miter; stroke-linecap: square"/>
   </g>
   <g id="patch_10">
    <path d="M 648 256.32 
L 648 155.52 
" style="fill: none; stroke: #000000; stroke-width: 0.8; stroke-linejoin: miter; stroke-linecap: square"/>
   </g>
   <g id="patch_11">
    <path d="M 90 256.32 
L 648 256.32 
" style="fill: none; stroke: #000000; stroke-width: 0.8; stroke-linejoin: miter; stroke-linecap: square"/>
   </g>
   <g id="patch_12">
    <path d="M 90 155.52 
L 648 155.52 
" style="fill: none; stroke: #000000; stroke-width: 0.8; stroke-linejoin: miter; stroke-linecap: square"/>
   </g>
   <g id="legend_2">
    <g id="patch_13">
     <path d="M 97 192.87625 
L 234.217188 192.87625 
Q 236.217188 192.87625 236.217188 190.87625 
L 236.217188 162.52 
Q 236.217188 160.52 234.217188 160.52 
L 97 160.52 
Q 95 160.52 95 162.52 
L 95 190.87625 
Q 95 192.87625 97 192.87625 
z
" style="fill: #ffffff; opacity: 0.8; stroke: #cccccc; stroke-linejoin: miter"/>
    </g>
    <g id="line2d_28">
     <path d="M 99 168.618437 
L 109 168.618437 
L 119 168.618437 
" style="fill: none; stroke: #1f77b4; stroke-width: 1.5; stroke-linecap: square"/>
    </g>
    <g id="text_26">
     <!-- Total GitHub Views -->
     <g transform="translate(127 172.118437)scale(0.1 -0.1)">
      <defs>
       <path id="DejaVuSans-56" d="M 1831 0 
L 50 4666 
L 709 4666 
L 2188 738 
L 3669 4666 
L 4325 4666 
L 2547 0 
L 1831 0 
z
" transform="scale(0.015625)"/>
       <path id="DejaVuSans-77" d="M 269 3500 
L 844 3500 
L 1563 769 
L 2278 3500 
L 2956 3500 
L 3675 769 
L 4391 3500 
L 4966 3500 
L 4050 0 
L 3372 0 
L 2619 2869 
L 1863 0 
L 1184 0 
L 269 3500 
z
" transform="scale(0.015625)"/>
      </defs>
      <use xlink:href="#DejaVuSans-54"/>
      <use xlink:href="#DejaVuSans-6f" x="44.083984"/>
      <use xlink:href="#DejaVuSans-74" x="105.265625"/>
      <use xlink:href="#DejaVuSans-61" x="144.474609"/>
      <use xlink:href="#DejaVuSans-6c" x="205.753906"/>
      <use xlink:href="#DejaVuSans-20" x="233.537109"/>
      <use xlink:href="#DejaVuSans-47" x="265.324219"/>
      <use xlink:href="#DejaVuSans-69" x="342.814453"/>
      <use xlink:href="#DejaVuSans-74" x="370.597656"/>
      <use xlink:href="#DejaVuSans-48" x="409.806641"/>
      <use xlink:href="#DejaVuSans-75" x="485.001953"/>
      <use xlink:href="#DejaVuSans-62" x="548.380859"/>
      <use xlink:href="#DejaVuSans-20" x="611.857422"/>
      <use xlink:href="#DejaVuSans-56" x="643.644531"/>
      <use xlink:href="#DejaVuSans-69" x="709.802734"/>
      <use xlink:href="#DejaVuSans-65" x="737.585938"/>
      <use xlink:href="#DejaVuSans-77" x="799.109375"/>
      <use xlink:href="#DejaVuSans-73" x="880.896484"/>
     </g>
    </g>
    <g id="line2d_29">
     <path d="M 99 183.296562 
L 109 183.296562 
L 119 183.296562 
" style="fill: none; stroke: #ff7f0e; stroke-width: 1.5; stroke-linecap: square"/>
    </g>
    <g id="text_27">
     <!-- Unique GitHub Views -->
     <g transform="translate(127 186.796562)scale(0.1 -0.1)">
      <use xlink:href="#DejaVuSans-55"/>
      <use xlink:href="#DejaVuSans-6e" x="73.193359"/>
      <use xlink:href="#DejaVuSans-69" x="136.572266"/>
      <use xlink:href="#DejaVuSans-71" x="164.355469"/>
      <use xlink:href="#DejaVuSans-75" x="227.832031"/>
      <use xlink:href="#DejaVuSans-65" x="291.210938"/>
      <use xlink:href="#DejaVuSans-20" x="352.734375"/>
      <use xlink:href="#DejaVuSans-47" x="384.521484"/>
      <use xlink:href="#DejaVuSans-69" x="462.011719"/>
      <use xlink:href="#DejaVuSans-74" x="489.794922"/>
      <use xlink:href="#DejaVuSans-48" x="529.003906"/>
      <use xlink:href="#DejaVuSans-75" x="604.199219"/>
      <use xlink:href="#DejaVuSans-62" x="667.578125"/>
      <use xlink:href="#DejaVuSans-20" x="731.054688"/>
      <use xlink:href="#DejaVuSans-56" x="762.841797"/>
      <use xlink:href="#DejaVuSans-69" x="829"/>
      <use xlink:href="#DejaVuSans-65" x="856.783203"/>
      <use xlink:href="#DejaVuSans-77" x="918.306641"/>
      <use xlink:href="#DejaVuSans-73" x="1000.09375"/>
     </g>
    </g>
   </g>
  </g>
 </g>
 <defs>
  <clipPath id="pd0db84c5dc">
   <rect x="90" y="34.56" width="558" height="100.8"/>
  </clipPath>
  <clipPath id="p34fa80a19c">
   <rect x="90" y="155.52" width="558" height="100.8"/>
  </clipPath>
 </defs>
</svg>
