<?xml version="1.0" encoding="utf-8" standalone="no"?>
<!DOCTYPE svg PUBLIC "-//W3C//DTD SVG 1.1//EN"
  "http://www.w3.org/Graphics/SVG/1.1/DTD/svg11.dtd">
<svg xmlns:xlink="http://www.w3.org/1999/xlink" width="720pt" height="288pt" viewBox="0 0 720 288" xmlns="http://www.w3.org/2000/svg" version="1.1">
 <metadata>
  <rdf:RDF xmlns:dc="http://purl.org/dc/elements/1.1/" xmlns:cc="http://creativecommons.org/ns#" xmlns:rdf="http://www.w3.org/1999/02/22-rdf-syntax-ns#">
   <cc:Work>
    <dc:type rdf:resource="http://purl.org/dc/dcmitype/StillImage"/>
    <dc:date>2022-04-11T00:41:58.397326</dc:date>
    <dc:format>image/svg+xml</dc:format>
    <dc:creator>
     <cc:Agent>
      <dc:title>Matplotlib v3.5.1, https://matplotlib.org/</dc:title>
     </cc:Agent>
    </dc:creator>
   </cc:Work>
  </rdf:RDF>
 </metadata>
 <defs>
  <style type="text/css">*{stroke-linejoin: round; stroke-linecap: butt}</style>
 </defs>
 <g id="figure_1">
  <g id="patch_1">
   <path d="M 0 288 
L 720 288 
L 720 0 
L 0 0 
z
" style="fill: #ffffff"/>
  </g>
  <g id="axes_1">
   <g id="patch_2">
    <path d="M 90 135.36 
L 648 135.36 
L 648 34.56 
L 90 34.56 
z
" style="fill: #ffffff"/>
   </g>
   <g id="matplotlib.axis_1">
    <g id="xtick_1">
     <g id="line2d_1">
      <defs>
       <path id="mda01a758cb" d="M 0 0 
L 0 3.5 
" style="stroke: #000000; stroke-width: 0.8"/>
      </defs>
      <g>
       <use xlink:href="#mda01a758cb" x="115.363636" y="135.36" style="stroke: #000000; stroke-width: 0.8"/>
      </g>
     </g>
     <g id="text_1">
      <!-- 2020-10-22 -->
      <g transform="translate(86.305824 149.958437)scale(0.1 -0.1)">
       <defs>
        <path id="DejaVuSans-32" d="M 1228 531 
L 3431 531 
L 3431 0 
L 469 0 
L 469 531 
Q 828 903 1448 1529 
Q 2069 2156 2228 2338 
Q 2531 2678 2651 2914 
Q 2772 3150 2772 3378 
Q 2772 3750 2511 3984 
Q 2250 4219 1831 4219 
Q 1534 4219 1204 4116 
Q 875 4013 500 3803 
L 500 4441 
Q 881 4594 1212 4672 
Q 1544 4750 1819 4750 
Q 2544 4750 2975 4387 
Q 3406 4025 3406 3419 
Q 3406 3131 3298 2873 
Q 3191 2616 2906 2266 
Q 2828 2175 2409 1742 
Q 1991 1309 1228 531 
z
" transform="scale(0.015625)"/>
        <path id="DejaVuSans-30" d="M 2034 4250 
Q 1547 4250 1301 3770 
Q 1056 3291 1056 2328 
Q 1056 1369 1301 889 
Q 1547 409 2034 409 
Q 2525 409 2770 889 
Q 3016 1369 3016 2328 
Q 3016 3291 2770 3770 
Q 2525 4250 2034 4250 
z
M 2034 4750 
Q 2819 4750 3233 4129 
Q 3647 3509 3647 2328 
Q 3647 1150 3233 529 
Q 2819 -91 2034 -91 
Q 1250 -91 836 529 
Q 422 1150 422 2328 
Q 422 3509 836 4129 
Q 1250 4750 2034 4750 
z
" transform="scale(0.015625)"/>
        <path id="DejaVuSans-2d" d="M 313 2009 
L 1997 2009 
L 1997 1497 
L 313 1497 
L 313 2009 
z
" transform="scale(0.015625)"/>
        <path id="DejaVuSans-31" d="M 794 531 
L 1825 531 
L 1825 4091 
L 703 3866 
L 703 4441 
L 1819 4666 
L 2450 4666 
L 2450 531 
L 3481 531 
L 3481 0 
L 794 0 
L 794 531 
z
" transform="scale(0.015625)"/>
       </defs>
       <use xlink:href="#DejaVuSans-32"/>
       <use xlink:href="#DejaVuSans-30" x="63.623047"/>
       <use xlink:href="#DejaVuSans-32" x="127.246094"/>
       <use xlink:href="#DejaVuSans-30" x="190.869141"/>
       <use xlink:href="#DejaVuSans-2d" x="254.492188"/>
       <use xlink:href="#DejaVuSans-31" x="290.576172"/>
       <use xlink:href="#DejaVuSans-30" x="354.199219"/>
       <use xlink:href="#DejaVuSans-2d" x="417.822266"/>
       <use xlink:href="#DejaVuSans-32" x="453.90625"/>
       <use xlink:href="#DejaVuSans-32" x="517.529297"/>
      </g>
     </g>
    </g>
    <g id="xtick_2">
     <g id="line2d_2">
      <g>
       <use xlink:href="#mda01a758cb" x="237.598028" y="135.36" style="stroke: #000000; stroke-width: 0.8"/>
      </g>
     </g>
     <g id="text_2">
      <!-- 2021-03-17 -->
      <g transform="translate(208.540216 149.958437)scale(0.1 -0.1)">
       <defs>
        <path id="DejaVuSans-33" d="M 2597 2516 
Q 3050 2419 3304 2112 
Q 3559 1806 3559 1356 
Q 3559 666 3084 287 
Q 2609 -91 1734 -91 
Q 1441 -91 1130 -33 
Q 819 25 488 141 
L 488 750 
Q 750 597 1062 519 
Q 1375 441 1716 441 
Q 2309 441 2620 675 
Q 2931 909 2931 1356 
Q 2931 1769 2642 2001 
Q 2353 2234 1838 2234 
L 1294 2234 
L 1294 2753 
L 1863 2753 
Q 2328 2753 2575 2939 
Q 2822 3125 2822 3475 
Q 2822 3834 2567 4026 
Q 2313 4219 1838 4219 
Q 1578 4219 1281 4162 
Q 984 4106 628 3988 
L 628 4550 
Q 988 4650 1302 4700 
Q 1616 4750 1894 4750 
Q 2613 4750 3031 4423 
Q 3450 4097 3450 3541 
Q 3450 3153 3228 2886 
Q 3006 2619 2597 2516 
z
" transform="scale(0.015625)"/>
        <path id="DejaVuSans-37" d="M 525 4666 
L 3525 4666 
L 3525 4397 
L 1831 0 
L 1172 0 
L 2766 4134 
L 525 4134 
L 525 4666 
z
" transform="scale(0.015625)"/>
       </defs>
       <use xlink:href="#DejaVuSans-32"/>
       <use xlink:href="#DejaVuSans-30" x="63.623047"/>
       <use xlink:href="#DejaVuSans-32" x="127.246094"/>
       <use xlink:href="#DejaVuSans-31" x="190.869141"/>
       <use xlink:href="#DejaVuSans-2d" x="254.492188"/>
       <use xlink:href="#DejaVuSans-30" x="290.576172"/>
       <use xlink:href="#DejaVuSans-33" x="354.199219"/>
       <use xlink:href="#DejaVuSans-2d" x="417.822266"/>
       <use xlink:href="#DejaVuSans-31" x="453.90625"/>
       <use xlink:href="#DejaVuSans-37" x="517.529297"/>
      </g>
     </g>
    </g>
    <g id="xtick_3">
     <g id="line2d_3">
      <g>
       <use xlink:href="#mda01a758cb" x="359.832421" y="135.36" style="stroke: #000000; stroke-width: 0.8"/>
      </g>
     </g>
     <g id="text_3">
      <!-- 2021-07-07 -->
      <g transform="translate(330.774608 149.958437)scale(0.1 -0.1)">
       <use xlink:href="#DejaVuSans-32"/>
       <use xlink:href="#DejaVuSans-30" x="63.623047"/>
       <use xlink:href="#DejaVuSans-32" x="127.246094"/>
       <use xlink:href="#DejaVuSans-31" x="190.869141"/>
       <use xlink:href="#DejaVuSans-2d" x="254.492188"/>
       <use xlink:href="#DejaVuSans-30" x="290.576172"/>
       <use xlink:href="#DejaVuSans-37" x="354.199219"/>
       <use xlink:href="#DejaVuSans-2d" x="417.822266"/>
       <use xlink:href="#DejaVuSans-30" x="453.90625"/>
       <use xlink:href="#DejaVuSans-37" x="517.529297"/>
      </g>
     </g>
    </g>
    <g id="xtick_4">
     <g id="line2d_4">
      <g>
       <use xlink:href="#mda01a758cb" x="482.066813" y="135.36" style="stroke: #000000; stroke-width: 0.8"/>
      </g>
     </g>
     <g id="text_4">
      <!-- 2021-11-18 -->
      <g transform="translate(453.009 149.958437)scale(0.1 -0.1)">
       <defs>
        <path id="DejaVuSans-38" d="M 2034 2216 
Q 1584 2216 1326 1975 
Q 1069 1734 1069 1313 
Q 1069 891 1326 650 
Q 1584 409 2034 409 
Q 2484 409 2743 651 
Q 3003 894 3003 1313 
Q 3003 1734 2745 1975 
Q 2488 2216 2034 2216 
z
M 1403 2484 
Q 997 2584 770 2862 
Q 544 3141 544 3541 
Q 544 4100 942 4425 
Q 1341 4750 2034 4750 
Q 2731 4750 3128 4425 
Q 3525 4100 3525 3541 
Q 3525 3141 3298 2862 
Q 3072 2584 2669 2484 
Q 3125 2378 3379 2068 
Q 3634 1759 3634 1313 
Q 3634 634 3220 271 
Q 2806 -91 2034 -91 
Q 1263 -91 848 271 
Q 434 634 434 1313 
Q 434 1759 690 2068 
Q 947 2378 1403 2484 
z
M 1172 3481 
Q 1172 3119 1398 2916 
Q 1625 2713 2034 2713 
Q 2441 2713 2670 2916 
Q 2900 3119 2900 3481 
Q 2900 3844 2670 4047 
Q 2441 4250 2034 4250 
Q 1625 4250 1398 4047 
Q 1172 3844 1172 3481 
z
" transform="scale(0.015625)"/>
       </defs>
       <use xlink:href="#DejaVuSans-32"/>
       <use xlink:href="#DejaVuSans-30" x="63.623047"/>
       <use xlink:href="#DejaVuSans-32" x="127.246094"/>
       <use xlink:href="#DejaVuSans-31" x="190.869141"/>
       <use xlink:href="#DejaVuSans-2d" x="254.492188"/>
       <use xlink:href="#DejaVuSans-31" x="290.576172"/>
       <use xlink:href="#DejaVuSans-31" x="354.199219"/>
       <use xlink:href="#DejaVuSans-2d" x="417.822266"/>
       <use xlink:href="#DejaVuSans-31" x="453.90625"/>
       <use xlink:href="#DejaVuSans-38" x="517.529297"/>
      </g>
     </g>
    </g>
    <g id="xtick_5">
     <g id="line2d_5">
      <g>
       <use xlink:href="#mda01a758cb" x="604.301205" y="135.36" style="stroke: #000000; stroke-width: 0.8"/>
      </g>
     </g>
     <g id="text_5">
      <!-- 2022-03-21 -->
      <g transform="translate(575.243392 149.958437)scale(0.1 -0.1)">
       <use xlink:href="#DejaVuSans-32"/>
       <use xlink:href="#DejaVuSans-30" x="63.623047"/>
       <use xlink:href="#DejaVuSans-32" x="127.246094"/>
       <use xlink:href="#DejaVuSans-32" x="190.869141"/>
       <use xlink:href="#DejaVuSans-2d" x="254.492188"/>
       <use xlink:href="#DejaVuSans-30" x="290.576172"/>
       <use xlink:href="#DejaVuSans-33" x="354.199219"/>
       <use xlink:href="#DejaVuSans-2d" x="417.822266"/>
       <use xlink:href="#DejaVuSans-32" x="453.90625"/>
       <use xlink:href="#DejaVuSans-31" x="517.529297"/>
      </g>
     </g>
    </g>
    <g id="text_6">
     <!-- _date -->
     <g transform="translate(355.225 163.636562)scale(0.1 -0.1)">
      <defs>
       <path id="DejaVuSans-5f" d="M 3263 -1063 
L 3263 -1509 
L -63 -1509 
L -63 -1063 
L 3263 -1063 
z
" transform="scale(0.015625)"/>
       <path id="DejaVuSans-64" d="M 2906 2969 
L 2906 4863 
L 3481 4863 
L 3481 0 
L 2906 0 
L 2906 525 
Q 2725 213 2448 61 
Q 2172 -91 1784 -91 
Q 1150 -91 751 415 
Q 353 922 353 1747 
Q 353 2572 751 3078 
Q 1150 3584 1784 3584 
Q 2172 3584 2448 3432 
Q 2725 3281 2906 2969 
z
M 947 1747 
Q 947 1113 1208 752 
Q 1469 391 1925 391 
Q 2381 391 2643 752 
Q 2906 1113 2906 1747 
Q 2906 2381 2643 2742 
Q 2381 3103 1925 3103 
Q 1469 3103 1208 2742 
Q 947 2381 947 1747 
z
" transform="scale(0.015625)"/>
       <path id="DejaVuSans-61" d="M 2194 1759 
Q 1497 1759 1228 1600 
Q 959 1441 959 1056 
Q 959 750 1161 570 
Q 1363 391 1709 391 
Q 2188 391 2477 730 
Q 2766 1069 2766 1631 
L 2766 1759 
L 2194 1759 
z
M 3341 1997 
L 3341 0 
L 2766 0 
L 2766 531 
Q 2569 213 2275 61 
Q 1981 -91 1556 -91 
Q 1019 -91 701 211 
Q 384 513 384 1019 
Q 384 1609 779 1909 
Q 1175 2209 1959 2209 
L 2766 2209 
L 2766 2266 
Q 2766 2663 2505 2880 
Q 2244 3097 1772 3097 
Q 1472 3097 1187 3025 
Q 903 2953 641 2809 
L 641 3341 
Q 956 3463 1253 3523 
Q 1550 3584 1831 3584 
Q 2591 3584 2966 3190 
Q 3341 2797 3341 1997 
z
" transform="scale(0.015625)"/>
       <path id="DejaVuSans-74" d="M 1172 4494 
L 1172 3500 
L 2356 3500 
L 2356 3053 
L 1172 3053 
L 1172 1153 
Q 1172 725 1289 603 
Q 1406 481 1766 481 
L 2356 481 
L 2356 0 
L 1766 0 
Q 1100 0 847 248 
Q 594 497 594 1153 
L 594 3053 
L 172 3053 
L 172 3500 
L 594 3500 
L 594 4494 
L 1172 4494 
z
" transform="scale(0.015625)"/>
       <path id="DejaVuSans-65" d="M 3597 1894 
L 3597 1613 
L 953 1613 
Q 991 1019 1311 708 
Q 1631 397 2203 397 
Q 2534 397 2845 478 
Q 3156 559 3463 722 
L 3463 178 
Q 3153 47 2828 -22 
Q 2503 -91 2169 -91 
Q 1331 -91 842 396 
Q 353 884 353 1716 
Q 353 2575 817 3079 
Q 1281 3584 2069 3584 
Q 2775 3584 3186 3129 
Q 3597 2675 3597 1894 
z
M 3022 2063 
Q 3016 2534 2758 2815 
Q 2500 3097 2075 3097 
Q 1594 3097 1305 2825 
Q 1016 2553 972 2059 
L 3022 2063 
z
" transform="scale(0.015625)"/>
      </defs>
      <use xlink:href="#DejaVuSans-5f"/>
      <use xlink:href="#DejaVuSans-64" x="50"/>
      <use xlink:href="#DejaVuSans-61" x="113.476562"/>
      <use xlink:href="#DejaVuSans-74" x="174.755859"/>
      <use xlink:href="#DejaVuSans-65" x="213.964844"/>
     </g>
    </g>
   </g>
   <g id="matplotlib.axis_2">
    <g id="ytick_1">
     <g id="line2d_6">
      <defs>
       <path id="m03e7237cf8" d="M 0 0 
L -3.5 0 
" style="stroke: #000000; stroke-width: 0.8"/>
      </defs>
      <g>
       <use xlink:href="#m03e7237cf8" x="90" y="131.401558" style="stroke: #000000; stroke-width: 0.8"/>
      </g>
     </g>
     <g id="text_7">
      <!-- 0 -->
      <g transform="translate(76.6375 135.200777)scale(0.1 -0.1)">
       <use xlink:href="#DejaVuSans-30"/>
      </g>
     </g>
    </g>
    <g id="ytick_2">
     <g id="line2d_7">
      <g>
       <use xlink:href="#m03e7237cf8" x="90" y="100.232727" style="stroke: #000000; stroke-width: 0.8"/>
      </g>
     </g>
     <g id="text_8">
      <!-- 50 -->
      <g transform="translate(70.275 104.031946)scale(0.1 -0.1)">
       <defs>
        <path id="DejaVuSans-35" d="M 691 4666 
L 3169 4666 
L 3169 4134 
L 1269 4134 
L 1269 2991 
Q 1406 3038 1543 3061 
Q 1681 3084 1819 3084 
Q 2600 3084 3056 2656 
Q 3513 2228 3513 1497 
Q 3513 744 3044 326 
Q 2575 -91 1722 -91 
Q 1428 -91 1123 -41 
Q 819 9 494 109 
L 494 744 
Q 775 591 1075 516 
Q 1375 441 1709 441 
Q 2250 441 2565 725 
Q 2881 1009 2881 1497 
Q 2881 1984 2565 2268 
Q 2250 2553 1709 2553 
Q 1456 2553 1204 2497 
Q 953 2441 691 2322 
L 691 4666 
z
" transform="scale(0.015625)"/>
       </defs>
       <use xlink:href="#DejaVuSans-35"/>
       <use xlink:href="#DejaVuSans-30" x="63.623047"/>
      </g>
     </g>
    </g>
    <g id="ytick_3">
     <g id="line2d_8">
      <g>
       <use xlink:href="#m03e7237cf8" x="90" y="69.063896" style="stroke: #000000; stroke-width: 0.8"/>
      </g>
     </g>
     <g id="text_9">
      <!-- 100 -->
      <g transform="translate(63.9125 72.863115)scale(0.1 -0.1)">
       <use xlink:href="#DejaVuSans-31"/>
       <use xlink:href="#DejaVuSans-30" x="63.623047"/>
       <use xlink:href="#DejaVuSans-30" x="127.246094"/>
      </g>
     </g>
    </g>
    <g id="ytick_4">
     <g id="line2d_9">
      <g>
       <use xlink:href="#m03e7237cf8" x="90" y="37.895065" style="stroke: #000000; stroke-width: 0.8"/>
      </g>
     </g>
     <g id="text_10">
      <!-- 150 -->
      <g transform="translate(63.9125 41.694284)scale(0.1 -0.1)">
       <use xlink:href="#DejaVuSans-31"/>
       <use xlink:href="#DejaVuSans-35" x="63.623047"/>
       <use xlink:href="#DejaVuSans-30" x="127.246094"/>
      </g>
     </g>
    </g>
   </g>
   <g id="line2d_10">
    <path d="M 115.363636 127.661299 
L 116.58598 128.284675 
L 117.808324 130.778182 
L 119.030668 130.778182 
L 120.253012 129.531429 
L 121.475356 129.531429 
L 122.6977 120.804156 
L 123.920044 120.804156 
L 125.142388 130.778182 
L 126.364732 130.778182 
L 127.587076 124.544416 
L 128.809419 126.414545 
L 130.031763 130.778182 
L 131.254107 127.661299 
L 132.476451 128.908052 
L 133.698795 128.908052 
L 134.921139 130.778182 
L 137.365827 128.284675 
L 138.588171 130.154805 
L 139.810515 130.778182 
L 141.032859 130.154805 
L 142.255203 130.154805 
L 143.477547 129.531429 
L 144.69989 130.154805 
L 145.922234 130.154805 
L 147.144578 128.908052 
L 148.366922 130.154805 
L 149.589266 130.154805 
L 150.81161 122.674286 
L 152.033954 127.661299 
L 153.256298 130.154805 
L 154.478642 115.817143 
L 155.700986 130.778182 
L 165.479737 130.778182 
L 166.702081 130.154805 
L 167.924425 130.778182 
L 176.480832 130.778182 
L 177.703176 128.908052 
L 178.92552 129.531429 
L 180.147864 130.778182 
L 181.370208 129.531429 
L 182.592552 127.661299 
L 183.814896 130.154805 
L 185.03724 130.154805 
L 186.259584 128.908052 
L 187.481928 120.804156 
L 188.704272 130.154805 
L 189.926616 130.778182 
L 191.148959 130.154805 
L 192.371303 127.037922 
L 193.593647 130.154805 
L 194.815991 129.531429 
L 196.038335 125.167792 
L 197.260679 128.908052 
L 198.483023 127.037922 
L 199.705367 130.154805 
L 200.927711 129.531429 
L 202.150055 130.154805 
L 203.372399 129.531429 
L 205.817087 129.531429 
L 207.03943 128.284675 
L 208.261774 130.778182 
L 209.484118 130.778182 
L 210.706462 128.284675 
L 211.928806 128.284675 
L 213.15115 125.167792 
L 214.373494 129.531429 
L 215.595838 127.661299 
L 216.818182 130.778182 
L 218.040526 125.791169 
L 219.26287 128.908052 
L 220.485214 129.531429 
L 221.707558 128.908052 
L 222.929901 126.414545 
L 224.152245 130.154805 
L 225.374589 128.284675 
L 226.596933 121.427532 
L 227.819277 126.414545 
L 229.041621 120.804156 
L 230.263965 87.141818 
L 231.486309 127.661299 
L 232.708653 130.778182 
L 233.930997 128.908052 
L 235.153341 123.297662 
L 236.375685 124.544416 
L 237.598028 127.661299 
L 238.820372 119.557403 
L 240.042716 128.908052 
L 241.26506 128.908052 
L 242.487404 130.154805 
L 243.709748 122.674286 
L 244.932092 124.544416 
L 246.154436 130.778182 
L 247.37678 129.531429 
L 248.599124 130.778182 
L 249.821468 128.284675 
L 251.043812 100.232727 
L 252.266156 118.310649 
L 253.488499 121.427532 
L 254.710843 127.661299 
L 255.933187 130.778182 
L 257.155531 126.414545 
L 258.377875 128.908052 
L 259.600219 122.050909 
L 260.822563 128.908052 
L 262.044907 123.297662 
L 263.267251 115.817143 
L 264.489595 122.674286 
L 265.711939 127.661299 
L 266.934283 115.193766 
L 268.156627 115.193766 
L 269.37897 116.440519 
L 270.601314 92.128831 
L 271.823658 107.08987 
L 273.046002 107.08987 
L 274.268346 119.557403 
L 275.49069 110.206753 
L 276.713034 118.934026 
L 277.935378 129.531429 
L 279.157722 130.154805 
L 280.380066 116.440519 
L 281.60241 114.57039 
L 282.824754 115.817143 
L 284.047097 111.453506 
L 285.269441 105.843117 
L 286.491785 128.284675 
L 287.714129 130.154805 
L 288.936473 116.440519 
L 290.158817 117.687273 
L 291.381161 100.232727 
L 292.603505 115.817143 
L 293.825849 116.440519 
L 295.048193 130.154805 
L 296.270537 128.908052 
L 297.492881 114.57039 
L 298.715225 102.102857 
L 299.937568 117.063896 
L 301.159912 113.323636 
L 302.382256 95.245714 
L 303.6046 117.063896 
L 304.826944 130.154805 
L 306.049288 114.57039 
L 307.271632 105.843117 
L 308.493976 102.726234 
L 309.71632 108.96 
L 310.938664 111.453506 
L 312.161008 129.531429 
L 313.383352 115.193766 
L 314.605696 108.336623 
L 315.828039 115.817143 
L 317.050383 115.193766 
L 318.272727 113.947013 
L 319.495071 125.791169 
L 320.717415 115.817143 
L 321.939759 113.323636 
L 323.162103 115.817143 
L 324.384447 116.440519 
L 325.606791 116.440519 
L 326.829135 130.778182 
L 328.051479 130.778182 
L 329.273823 115.193766 
L 330.496166 112.076883 
L 331.71851 115.193766 
L 332.940854 102.726234 
L 334.163198 105.843117 
L 335.385542 130.778182 
L 336.607886 115.817143 
L 337.83023 113.947013 
L 339.052574 113.323636 
L 340.274918 112.076883 
L 341.497262 117.063896 
L 342.719606 130.154805 
L 343.94195 114.57039 
L 345.164294 110.83013 
L 346.386637 105.21974 
L 347.608981 104.596364 
L 348.831325 39.141818 
L 351.276013 130.778182 
L 352.498357 118.310649 
L 353.720701 117.063896 
L 354.943045 124.544416 
L 356.165389 130.778182 
L 357.387733 130.154805 
L 358.610077 123.297662 
L 359.832421 125.167792 
L 361.054765 130.154805 
L 362.277108 128.908052 
L 363.499452 130.154805 
L 364.721796 130.778182 
L 365.94414 130.154805 
L 367.166484 130.778182 
L 368.388828 128.908052 
L 369.611172 129.531429 
L 370.833516 130.778182 
L 374.500548 130.778182 
L 375.722892 128.284675 
L 376.945235 130.154805 
L 378.167579 130.778182 
L 379.389923 130.154805 
L 380.612267 127.037922 
L 381.834611 130.778182 
L 383.056955 117.063896 
L 384.279299 129.531429 
L 385.501643 130.778182 
L 387.946331 129.531429 
L 389.168675 130.778182 
L 390.391019 130.154805 
L 391.613363 130.778182 
L 392.835706 128.908052 
L 394.05805 130.154805 
L 395.280394 129.531429 
L 396.502738 130.778182 
L 398.947426 130.778182 
L 401.392114 129.531429 
L 402.614458 127.037922 
L 403.836802 130.154805 
L 405.059146 130.154805 
L 406.28149 124.544416 
L 407.503834 122.050909 
L 408.726177 130.778182 
L 411.170865 130.778182 
L 413.615553 129.531429 
L 414.837897 130.154805 
L 416.060241 125.167792 
L 417.282585 113.323636 
L 418.504929 127.661299 
L 419.727273 110.206753 
L 420.949617 126.414545 
L 422.171961 130.154805 
L 423.394304 130.778182 
L 425.838992 130.778182 
L 427.061336 130.154805 
L 428.28368 130.778182 
L 429.506024 130.778182 
L 430.728368 128.284675 
L 431.950712 98.362597 
L 433.173056 117.063896 
L 434.3954 129.531429 
L 435.617744 122.674286 
L 436.840088 98.985974 
L 438.062432 96.492468 
L 439.284775 90.882078 
L 440.507119 103.972987 
L 441.729463 120.804156 
L 442.951807 122.674286 
L 444.174151 130.778182 
L 445.396495 125.791169 
L 446.618839 130.778182 
L 447.841183 130.778182 
L 449.063527 122.050909 
L 450.285871 129.531429 
L 451.508215 97.739221 
L 452.730559 122.674286 
L 453.952903 95.869091 
L 455.175246 123.297662 
L 456.39759 128.284675 
L 457.619934 121.427532 
L 458.842278 93.998961 
L 460.064622 120.804156 
L 461.286966 122.674286 
L 462.50931 129.531429 
L 463.731654 130.778182 
L 464.953998 130.778182 
L 466.176342 129.531429 
L 467.398686 126.414545 
L 468.62103 123.921039 
L 469.843373 122.674286 
L 471.065717 130.778182 
L 472.288061 130.778182 
L 473.510405 120.180779 
L 474.732749 115.817143 
L 475.955093 130.778182 
L 477.177437 129.531429 
L 478.399781 130.778182 
L 479.622125 125.167792 
L 480.844469 129.531429 
L 482.066813 130.778182 
L 483.289157 130.154805 
L 484.511501 128.908052 
L 485.733844 128.908052 
L 486.956188 106.466494 
L 488.178532 128.908052 
L 489.400876 128.908052 
L 490.62322 120.804156 
L 491.845564 105.21974 
L 493.067908 123.297662 
L 494.290252 123.297662 
L 495.512596 129.531429 
L 496.73494 120.180779 
L 497.957284 103.34961 
L 499.179628 63.453506 
L 500.401972 123.297662 
L 501.624315 113.323636 
L 502.846659 130.778182 
L 504.069003 104.596364 
L 505.291347 99.609351 
L 506.513691 127.037922 
L 507.736035 117.063896 
L 508.958379 130.778182 
L 511.403067 130.778182 
L 512.625411 100.856104 
L 513.847755 98.985974 
L 515.070099 130.154805 
L 516.292442 120.804156 
L 517.514786 130.778182 
L 518.73713 130.778182 
L 519.959474 129.531429 
L 521.181818 130.154805 
L 522.404162 128.908052 
L 523.626506 130.778182 
L 524.84885 122.050909 
L 526.071194 117.063896 
L 527.293538 93.998961 
L 528.515882 124.544416 
L 529.738226 130.154805 
L 530.96057 115.193766 
L 532.182913 130.154805 
L 533.405257 125.791169 
L 534.627601 120.180779 
L 535.849945 122.674286 
L 537.072289 127.661299 
L 538.294633 130.154805 
L 539.516977 127.037922 
L 540.739321 115.817143 
L 541.961665 128.284675 
L 543.184009 122.674286 
L 544.406353 125.167792 
L 545.628697 130.778182 
L 546.851041 75.297662 
L 548.073384 117.687273 
L 549.295728 97.115844 
L 550.518072 122.050909 
L 551.740416 78.414545 
L 552.96276 130.778182 
L 554.185104 118.934026 
L 556.629792 99.609351 
L 557.852136 108.96 
L 559.07448 125.791169 
L 560.296824 130.778182 
L 562.741512 87.765195 
L 563.963855 90.882078 
L 565.186199 130.778182 
L 566.408543 122.674286 
L 567.630887 128.908052 
L 568.853231 94.622338 
L 570.075575 128.908052 
L 571.297919 130.778182 
L 573.742607 130.778182 
L 574.964951 128.284675 
L 576.187295 128.908052 
L 577.409639 124.544416 
L 578.631982 127.037922 
L 579.854326 123.921039 
L 581.07667 112.70026 
L 582.299014 130.154805 
L 583.521358 79.037922 
L 584.743702 123.297662 
L 585.966046 122.050909 
L 587.18839 95.245714 
L 588.410734 95.869091 
L 589.633078 117.687273 
L 592.077766 130.154805 
L 593.30011 127.661299 
L 594.522453 130.154805 
L 595.744797 125.167792 
L 596.967141 124.544416 
L 598.189485 75.297662 
L 599.411829 50.985974 
L 600.634173 110.206753 
L 601.856517 130.154805 
L 603.078861 120.804156 
L 604.301205 128.908052 
L 605.523549 129.531429 
L 606.745893 129.531429 
L 607.968237 130.778182 
L 609.190581 130.778182 
L 610.412924 130.154805 
L 611.635268 130.154805 
L 612.857612 130.778182 
L 614.079956 130.154805 
L 615.3023 130.778182 
L 616.524644 130.778182 
L 617.746988 129.531429 
L 618.969332 129.531429 
L 620.191676 130.778182 
L 621.41402 130.778182 
L 622.636364 130.154805 
L 622.636364 130.154805 
" clip-path="url(#pb519be3a1a)" style="fill: none; stroke: #1f77b4; stroke-width: 1.5; stroke-linecap: square"/>
   </g>
   <g id="line2d_11">
    <path d="M 115.363636 127.661299 
L 116.58598 128.284675 
L 117.808324 130.778182 
L 119.030668 130.778182 
L 120.253012 129.531429 
L 121.475356 129.531429 
L 122.6977 130.154805 
L 123.920044 128.284675 
L 125.142388 130.778182 
L 126.364732 130.778182 
L 127.587076 124.544416 
L 128.809419 129.531429 
L 130.031763 130.778182 
L 131.254107 128.908052 
L 132.476451 128.908052 
L 133.698795 129.531429 
L 134.921139 130.778182 
L 136.143483 129.531429 
L 137.365827 128.908052 
L 138.588171 130.154805 
L 139.810515 130.778182 
L 141.032859 130.154805 
L 142.255203 130.778182 
L 143.477547 129.531429 
L 145.922234 130.778182 
L 147.144578 130.154805 
L 148.366922 130.778182 
L 149.589266 130.154805 
L 150.81161 125.791169 
L 152.033954 127.661299 
L 153.256298 130.154805 
L 154.478642 125.167792 
L 155.700986 130.778182 
L 165.479737 130.778182 
L 166.702081 130.154805 
L 167.924425 130.778182 
L 176.480832 130.778182 
L 177.703176 129.531429 
L 178.92552 130.778182 
L 180.147864 130.778182 
L 182.592552 129.531429 
L 183.814896 130.778182 
L 186.259584 130.778182 
L 187.481928 124.544416 
L 188.704272 130.778182 
L 189.926616 130.778182 
L 191.148959 130.154805 
L 192.371303 128.908052 
L 193.593647 130.154805 
L 194.815991 129.531429 
L 196.038335 127.037922 
L 197.260679 129.531429 
L 198.483023 130.778182 
L 199.705367 130.154805 
L 200.927711 130.778182 
L 202.150055 130.154805 
L 203.372399 130.778182 
L 204.594743 129.531429 
L 207.03943 129.531429 
L 208.261774 130.778182 
L 209.484118 130.778182 
L 213.15115 127.037922 
L 214.373494 129.531429 
L 215.595838 128.284675 
L 216.818182 130.778182 
L 218.040526 127.037922 
L 219.26287 128.908052 
L 220.485214 129.531429 
L 221.707558 128.908052 
L 222.929901 126.414545 
L 224.152245 130.154805 
L 225.374589 128.284675 
L 226.596933 124.544416 
L 227.819277 127.037922 
L 229.041621 123.297662 
L 230.263965 108.96 
L 231.486309 127.661299 
L 232.708653 130.778182 
L 233.930997 129.531429 
L 235.153341 123.921039 
L 237.598028 127.661299 
L 238.820372 122.050909 
L 240.042716 128.908052 
L 241.26506 128.908052 
L 242.487404 130.154805 
L 243.709748 124.544416 
L 244.932092 124.544416 
L 246.154436 130.778182 
L 247.37678 129.531429 
L 248.599124 130.778182 
L 249.821468 128.908052 
L 251.043812 116.440519 
L 252.266156 122.674286 
L 253.488499 124.544416 
L 254.710843 128.284675 
L 255.933187 130.778182 
L 257.155531 127.661299 
L 258.377875 130.154805 
L 259.600219 123.921039 
L 260.822563 129.531429 
L 262.044907 123.921039 
L 263.267251 120.180779 
L 264.489595 123.297662 
L 265.711939 128.284675 
L 266.934283 120.804156 
L 268.156627 125.167792 
L 269.37897 130.154805 
L 270.601314 121.427532 
L 271.823658 128.908052 
L 273.046002 125.791169 
L 274.268346 121.427532 
L 275.49069 125.167792 
L 276.713034 130.778182 
L 277.935378 130.154805 
L 279.157722 130.154805 
L 280.380066 130.778182 
L 281.60241 128.908052 
L 282.824754 129.531429 
L 285.269441 120.804156 
L 286.491785 128.284675 
L 287.714129 130.154805 
L 288.936473 130.778182 
L 290.158817 128.908052 
L 291.381161 117.687273 
L 292.603505 130.778182 
L 293.825849 129.531429 
L 295.048193 130.154805 
L 297.492881 130.154805 
L 298.715225 118.934026 
L 299.937568 128.908052 
L 301.159912 127.037922 
L 302.382256 115.817143 
L 303.6046 120.180779 
L 304.826944 130.154805 
L 306.049288 130.778182 
L 307.271632 125.791169 
L 308.493976 129.531429 
L 309.71632 128.908052 
L 310.938664 130.154805 
L 312.161008 130.154805 
L 313.383352 130.778182 
L 314.605696 123.921039 
L 315.828039 130.778182 
L 317.050383 130.154805 
L 318.272727 128.908052 
L 319.495071 127.037922 
L 320.717415 130.778182 
L 321.939759 128.908052 
L 323.162103 130.778182 
L 324.384447 129.531429 
L 325.606791 129.531429 
L 326.829135 130.778182 
L 329.273823 130.778182 
L 330.496166 127.661299 
L 331.71851 130.778182 
L 332.940854 128.908052 
L 334.163198 125.791169 
L 335.385542 130.778182 
L 336.607886 130.778182 
L 337.83023 130.154805 
L 339.052574 128.908052 
L 342.719606 130.778182 
L 343.94195 130.154805 
L 345.164294 126.414545 
L 346.386637 126.414545 
L 347.608981 127.661299 
L 348.831325 130.778182 
L 350.053669 121.427532 
L 351.276013 130.778182 
L 352.498357 130.154805 
L 353.720701 126.414545 
L 354.943045 125.791169 
L 356.165389 130.778182 
L 357.387733 130.154805 
L 358.610077 123.297662 
L 359.832421 126.414545 
L 361.054765 130.154805 
L 362.277108 128.908052 
L 363.499452 130.778182 
L 364.721796 130.778182 
L 365.94414 130.154805 
L 367.166484 130.778182 
L 368.388828 128.908052 
L 369.611172 129.531429 
L 370.833516 130.778182 
L 374.500548 130.778182 
L 375.722892 128.284675 
L 376.945235 130.154805 
L 378.167579 130.778182 
L 379.389923 130.154805 
L 380.612267 127.661299 
L 381.834611 130.778182 
L 383.056955 130.778182 
L 384.279299 129.531429 
L 385.501643 130.778182 
L 387.946331 129.531429 
L 389.168675 130.778182 
L 390.391019 130.154805 
L 391.613363 130.778182 
L 392.835706 128.908052 
L 394.05805 130.154805 
L 395.280394 129.531429 
L 396.502738 130.778182 
L 398.947426 130.778182 
L 401.392114 129.531429 
L 402.614458 127.037922 
L 403.836802 130.154805 
L 405.059146 130.778182 
L 406.28149 124.544416 
L 407.503834 123.921039 
L 408.726177 130.778182 
L 411.170865 130.778182 
L 413.615553 129.531429 
L 414.837897 130.778182 
L 416.060241 125.791169 
L 417.282585 122.050909 
L 418.504929 130.154805 
L 419.727273 121.427532 
L 420.949617 127.661299 
L 422.171961 130.778182 
L 425.838992 130.778182 
L 427.061336 130.154805 
L 428.28368 130.778182 
L 429.506024 130.778182 
L 430.728368 128.284675 
L 431.950712 114.57039 
L 433.173056 119.557403 
L 434.3954 129.531429 
L 435.617744 123.921039 
L 436.840088 114.57039 
L 438.062432 112.076883 
L 439.284775 112.076883 
L 440.507119 119.557403 
L 441.729463 121.427532 
L 442.951807 124.544416 
L 444.174151 130.778182 
L 445.396495 126.414545 
L 446.618839 130.778182 
L 447.841183 130.778182 
L 449.063527 123.297662 
L 450.285871 129.531429 
L 451.508215 122.674286 
L 452.730559 128.284675 
L 453.952903 126.414545 
L 455.175246 130.154805 
L 456.39759 130.778182 
L 457.619934 128.284675 
L 458.842278 121.427532 
L 460.064622 125.791169 
L 461.286966 126.414545 
L 462.50931 130.154805 
L 463.731654 130.778182 
L 464.953998 130.778182 
L 466.176342 129.531429 
L 467.398686 128.908052 
L 468.62103 127.037922 
L 469.843373 127.037922 
L 471.065717 130.778182 
L 472.288061 130.778182 
L 473.510405 125.167792 
L 474.732749 123.921039 
L 475.955093 130.778182 
L 477.177437 129.531429 
L 478.399781 130.778182 
L 479.622125 127.661299 
L 480.844469 129.531429 
L 482.066813 130.778182 
L 483.289157 130.154805 
L 484.511501 128.908052 
L 485.733844 128.908052 
L 486.956188 122.050909 
L 488.178532 128.908052 
L 489.400876 129.531429 
L 490.62322 126.414545 
L 491.845564 120.180779 
L 493.067908 126.414545 
L 494.290252 127.037922 
L 495.512596 130.154805 
L 496.73494 126.414545 
L 499.179628 112.70026 
L 500.401972 127.661299 
L 501.624315 123.921039 
L 502.846659 130.778182 
L 504.069003 120.804156 
L 505.291347 117.063896 
L 506.513691 128.284675 
L 507.736035 123.921039 
L 508.958379 130.778182 
L 511.403067 130.778182 
L 512.625411 120.180779 
L 513.847755 116.440519 
L 515.070099 130.154805 
L 516.292442 125.791169 
L 517.514786 130.778182 
L 518.73713 130.778182 
L 519.959474 130.154805 
L 521.181818 130.778182 
L 522.404162 130.154805 
L 523.626506 130.778182 
L 524.84885 126.414545 
L 526.071194 124.544416 
L 527.293538 117.063896 
L 528.515882 127.661299 
L 529.738226 130.778182 
L 530.96057 122.674286 
L 532.182913 130.154805 
L 534.627601 126.414545 
L 535.849945 127.661299 
L 537.072289 128.284675 
L 538.294633 130.778182 
L 539.516977 127.661299 
L 540.739321 122.674286 
L 541.961665 129.531429 
L 543.184009 127.037922 
L 544.406353 127.661299 
L 545.628697 130.778182 
L 546.851041 110.206753 
L 548.073384 123.921039 
L 549.295728 118.310649 
L 550.518072 126.414545 
L 551.740416 112.076883 
L 552.96276 130.778182 
L 554.185104 130.154805 
L 555.407448 118.934026 
L 556.629792 117.063896 
L 557.852136 118.934026 
L 559.07448 128.284675 
L 560.296824 130.778182 
L 561.519168 121.427532 
L 562.741512 113.947013 
L 563.963855 113.323636 
L 565.186199 130.778182 
L 566.408543 127.037922 
L 567.630887 130.778182 
L 568.853231 117.063896 
L 570.075575 129.531429 
L 571.297919 130.778182 
L 573.742607 130.778182 
L 574.964951 128.908052 
L 576.187295 130.154805 
L 577.409639 127.661299 
L 578.631982 128.908052 
L 579.854326 127.661299 
L 581.07667 121.427532 
L 582.299014 130.154805 
L 583.521358 112.076883 
L 584.743702 126.414545 
L 585.966046 125.791169 
L 587.18839 117.687273 
L 588.410734 117.687273 
L 589.633078 125.167792 
L 590.855422 126.414545 
L 592.077766 130.778182 
L 593.30011 128.908052 
L 594.522453 130.778182 
L 595.744797 128.908052 
L 596.967141 128.284675 
L 598.189485 118.310649 
L 599.411829 104.596364 
L 600.634173 122.050909 
L 601.856517 130.154805 
L 603.078861 130.778182 
L 604.301205 128.908052 
L 605.523549 129.531429 
L 606.745893 129.531429 
L 607.968237 130.778182 
L 609.190581 130.778182 
L 610.412924 130.154805 
L 611.635268 130.778182 
L 612.857612 130.778182 
L 614.079956 130.154805 
L 615.3023 130.778182 
L 616.524644 130.778182 
L 617.746988 129.531429 
L 620.191676 130.778182 
L 621.41402 130.778182 
L 622.636364 130.154805 
L 622.636364 130.154805 
" clip-path="url(#pb519be3a1a)" style="fill: none; stroke: #ff7f0e; stroke-width: 1.5; stroke-linecap: square"/>
   </g>
   <g id="patch_3">
    <path d="M 90 135.36 
L 90 34.56 
" style="fill: none; stroke: #000000; stroke-width: 0.8; stroke-linejoin: miter; stroke-linecap: square"/>
   </g>
   <g id="patch_4">
    <path d="M 648 135.36 
L 648 34.56 
" style="fill: none; stroke: #000000; stroke-width: 0.8; stroke-linejoin: miter; stroke-linecap: square"/>
   </g>
   <g id="patch_5">
    <path d="M 90 135.36 
L 648 135.36 
" style="fill: none; stroke: #000000; stroke-width: 0.8; stroke-linejoin: miter; stroke-linecap: square"/>
   </g>
   <g id="patch_6">
    <path d="M 90 34.56 
L 648 34.56 
" style="fill: none; stroke: #000000; stroke-width: 0.8; stroke-linejoin: miter; stroke-linecap: square"/>
   </g>
   <g id="legend_1">
    <g id="patch_7">
     <path d="M 97 71.91625 
L 238.8625 71.91625 
Q 240.8625 71.91625 240.8625 69.91625 
L 240.8625 41.56 
Q 240.8625 39.56 238.8625 39.56 
L 97 39.56 
Q 95 39.56 95 41.56 
L 95 69.91625 
Q 95 71.91625 97 71.91625 
z
" style="fill: #ffffff; opacity: 0.8; stroke: #cccccc; stroke-linejoin: miter"/>
    </g>
    <g id="line2d_12">
     <path d="M 99 47.658437 
L 109 47.658437 
L 119 47.658437 
" style="fill: none; stroke: #1f77b4; stroke-width: 1.5; stroke-linecap: square"/>
    </g>
    <g id="text_11">
     <!-- Total GitHub Clones -->
     <g transform="translate(127 51.158437)scale(0.1 -0.1)">
      <defs>
       <path id="DejaVuSans-54" d="M -19 4666 
L 3928 4666 
L 3928 4134 
L 2272 4134 
L 2272 0 
L 1638 0 
L 1638 4134 
L -19 4134 
L -19 4666 
z
" transform="scale(0.015625)"/>
       <path id="DejaVuSans-6f" d="M 1959 3097 
Q 1497 3097 1228 2736 
Q 959 2375 959 1747 
Q 959 1119 1226 758 
Q 1494 397 1959 397 
Q 2419 397 2687 759 
Q 2956 1122 2956 1747 
Q 2956 2369 2687 2733 
Q 2419 3097 1959 3097 
z
M 1959 3584 
Q 2709 3584 3137 3096 
Q 3566 2609 3566 1747 
Q 3566 888 3137 398 
Q 2709 -91 1959 -91 
Q 1206 -91 779 398 
Q 353 888 353 1747 
Q 353 2609 779 3096 
Q 1206 3584 1959 3584 
z
" transform="scale(0.015625)"/>
       <path id="DejaVuSans-6c" d="M 603 4863 
L 1178 4863 
L 1178 0 
L 603 0 
L 603 4863 
z
" transform="scale(0.015625)"/>
       <path id="DejaVuSans-20" transform="scale(0.015625)"/>
       <path id="DejaVuSans-47" d="M 3809 666 
L 3809 1919 
L 2778 1919 
L 2778 2438 
L 4434 2438 
L 4434 434 
Q 4069 175 3628 42 
Q 3188 -91 2688 -91 
Q 1594 -91 976 548 
Q 359 1188 359 2328 
Q 359 3472 976 4111 
Q 1594 4750 2688 4750 
Q 3144 4750 3555 4637 
Q 3966 4525 4313 4306 
L 4313 3634 
Q 3963 3931 3569 4081 
Q 3175 4231 2741 4231 
Q 1884 4231 1454 3753 
Q 1025 3275 1025 2328 
Q 1025 1384 1454 906 
Q 1884 428 2741 428 
Q 3075 428 3337 486 
Q 3600 544 3809 666 
z
" transform="scale(0.015625)"/>
       <path id="DejaVuSans-69" d="M 603 3500 
L 1178 3500 
L 1178 0 
L 603 0 
L 603 3500 
z
M 603 4863 
L 1178 4863 
L 1178 4134 
L 603 4134 
L 603 4863 
z
" transform="scale(0.015625)"/>
       <path id="DejaVuSans-48" d="M 628 4666 
L 1259 4666 
L 1259 2753 
L 3553 2753 
L 3553 4666 
L 4184 4666 
L 4184 0 
L 3553 0 
L 3553 2222 
L 1259 2222 
L 1259 0 
L 628 0 
L 628 4666 
z
" transform="scale(0.015625)"/>
       <path id="DejaVuSans-75" d="M 544 1381 
L 544 3500 
L 1119 3500 
L 1119 1403 
Q 1119 906 1312 657 
Q 1506 409 1894 409 
Q 2359 409 2629 706 
Q 2900 1003 2900 1516 
L 2900 3500 
L 3475 3500 
L 3475 0 
L 2900 0 
L 2900 538 
Q 2691 219 2414 64 
Q 2138 -91 1772 -91 
Q 1169 -91 856 284 
Q 544 659 544 1381 
z
M 1991 3584 
L 1991 3584 
z
" transform="scale(0.015625)"/>
       <path id="DejaVuSans-62" d="M 3116 1747 
Q 3116 2381 2855 2742 
Q 2594 3103 2138 3103 
Q 1681 3103 1420 2742 
Q 1159 2381 1159 1747 
Q 1159 1113 1420 752 
Q 1681 391 2138 391 
Q 2594 391 2855 752 
Q 3116 1113 3116 1747 
z
M 1159 2969 
Q 1341 3281 1617 3432 
Q 1894 3584 2278 3584 
Q 2916 3584 3314 3078 
Q 3713 2572 3713 1747 
Q 3713 922 3314 415 
Q 2916 -91 2278 -91 
Q 1894 -91 1617 61 
Q 1341 213 1159 525 
L 1159 0 
L 581 0 
L 581 4863 
L 1159 4863 
L 1159 2969 
z
" transform="scale(0.015625)"/>
       <path id="DejaVuSans-43" d="M 4122 4306 
L 4122 3641 
Q 3803 3938 3442 4084 
Q 3081 4231 2675 4231 
Q 1875 4231 1450 3742 
Q 1025 3253 1025 2328 
Q 1025 1406 1450 917 
Q 1875 428 2675 428 
Q 3081 428 3442 575 
Q 3803 722 4122 1019 
L 4122 359 
Q 3791 134 3420 21 
Q 3050 -91 2638 -91 
Q 1578 -91 968 557 
Q 359 1206 359 2328 
Q 359 3453 968 4101 
Q 1578 4750 2638 4750 
Q 3056 4750 3426 4639 
Q 3797 4528 4122 4306 
z
" transform="scale(0.015625)"/>
       <path id="DejaVuSans-6e" d="M 3513 2113 
L 3513 0 
L 2938 0 
L 2938 2094 
Q 2938 2591 2744 2837 
Q 2550 3084 2163 3084 
Q 1697 3084 1428 2787 
Q 1159 2491 1159 1978 
L 1159 0 
L 581 0 
L 581 3500 
L 1159 3500 
L 1159 2956 
Q 1366 3272 1645 3428 
Q 1925 3584 2291 3584 
Q 2894 3584 3203 3211 
Q 3513 2838 3513 2113 
z
" transform="scale(0.015625)"/>
       <path id="DejaVuSans-73" d="M 2834 3397 
L 2834 2853 
Q 2591 2978 2328 3040 
Q 2066 3103 1784 3103 
Q 1356 3103 1142 2972 
Q 928 2841 928 2578 
Q 928 2378 1081 2264 
Q 1234 2150 1697 2047 
L 1894 2003 
Q 2506 1872 2764 1633 
Q 3022 1394 3022 966 
Q 3022 478 2636 193 
Q 2250 -91 1575 -91 
Q 1294 -91 989 -36 
Q 684 19 347 128 
L 347 722 
Q 666 556 975 473 
Q 1284 391 1588 391 
Q 1994 391 2212 530 
Q 2431 669 2431 922 
Q 2431 1156 2273 1281 
Q 2116 1406 1581 1522 
L 1381 1569 
Q 847 1681 609 1914 
Q 372 2147 372 2553 
Q 372 3047 722 3315 
Q 1072 3584 1716 3584 
Q 2034 3584 2315 3537 
Q 2597 3491 2834 3397 
z
" transform="scale(0.015625)"/>
      </defs>
      <use xlink:href="#DejaVuSans-54"/>
      <use xlink:href="#DejaVuSans-6f" x="44.083984"/>
      <use xlink:href="#DejaVuSans-74" x="105.265625"/>
      <use xlink:href="#DejaVuSans-61" x="144.474609"/>
      <use xlink:href="#DejaVuSans-6c" x="205.753906"/>
      <use xlink:href="#DejaVuSans-20" x="233.537109"/>
      <use xlink:href="#DejaVuSans-47" x="265.324219"/>
      <use xlink:href="#DejaVuSans-69" x="342.814453"/>
      <use xlink:href="#DejaVuSans-74" x="370.597656"/>
      <use xlink:href="#DejaVuSans-48" x="409.806641"/>
      <use xlink:href="#DejaVuSans-75" x="485.001953"/>
      <use xlink:href="#DejaVuSans-62" x="548.380859"/>
      <use xlink:href="#DejaVuSans-20" x="611.857422"/>
      <use xlink:href="#DejaVuSans-43" x="643.644531"/>
      <use xlink:href="#DejaVuSans-6c" x="713.46875"/>
      <use xlink:href="#DejaVuSans-6f" x="741.251953"/>
      <use xlink:href="#DejaVuSans-6e" x="802.433594"/>
      <use xlink:href="#DejaVuSans-65" x="865.8125"/>
      <use xlink:href="#DejaVuSans-73" x="927.335938"/>
     </g>
    </g>
    <g id="line2d_13">
     <path d="M 99 62.336562 
L 109 62.336562 
L 119 62.336562 
" style="fill: none; stroke: #ff7f0e; stroke-width: 1.5; stroke-linecap: square"/>
    </g>
    <g id="text_12">
     <!-- Unique GitHub Clones -->
     <g transform="translate(127 65.836562)scale(0.1 -0.1)">
      <defs>
       <path id="DejaVuSans-55" d="M 556 4666 
L 1191 4666 
L 1191 1831 
Q 1191 1081 1462 751 
Q 1734 422 2344 422 
Q 2950 422 3222 751 
Q 3494 1081 3494 1831 
L 3494 4666 
L 4128 4666 
L 4128 1753 
Q 4128 841 3676 375 
Q 3225 -91 2344 -91 
Q 1459 -91 1007 375 
Q 556 841 556 1753 
L 556 4666 
z
" transform="scale(0.015625)"/>
       <path id="DejaVuSans-71" d="M 947 1747 
Q 947 1113 1208 752 
Q 1469 391 1925 391 
Q 2381 391 2643 752 
Q 2906 1113 2906 1747 
Q 2906 2381 2643 2742 
Q 2381 3103 1925 3103 
Q 1469 3103 1208 2742 
Q 947 2381 947 1747 
z
M 2906 525 
Q 2725 213 2448 61 
Q 2172 -91 1784 -91 
Q 1150 -91 751 415 
Q 353 922 353 1747 
Q 353 2572 751 3078 
Q 1150 3584 1784 3584 
Q 2172 3584 2448 3432 
Q 2725 3281 2906 2969 
L 2906 3500 
L 3481 3500 
L 3481 -1331 
L 2906 -1331 
L 2906 525 
z
" transform="scale(0.015625)"/>
      </defs>
      <use xlink:href="#DejaVuSans-55"/>
      <use xlink:href="#DejaVuSans-6e" x="73.193359"/>
      <use xlink:href="#DejaVuSans-69" x="136.572266"/>
      <use xlink:href="#DejaVuSans-71" x="164.355469"/>
      <use xlink:href="#DejaVuSans-75" x="227.832031"/>
      <use xlink:href="#DejaVuSans-65" x="291.210938"/>
      <use xlink:href="#DejaVuSans-20" x="352.734375"/>
      <use xlink:href="#DejaVuSans-47" x="384.521484"/>
      <use xlink:href="#DejaVuSans-69" x="462.011719"/>
      <use xlink:href="#DejaVuSans-74" x="489.794922"/>
      <use xlink:href="#DejaVuSans-48" x="529.003906"/>
      <use xlink:href="#DejaVuSans-75" x="604.199219"/>
      <use xlink:href="#DejaVuSans-62" x="667.578125"/>
      <use xlink:href="#DejaVuSans-20" x="731.054688"/>
      <use xlink:href="#DejaVuSans-43" x="762.841797"/>
      <use xlink:href="#DejaVuSans-6c" x="832.666016"/>
      <use xlink:href="#DejaVuSans-6f" x="860.449219"/>
      <use xlink:href="#DejaVuSans-6e" x="921.630859"/>
      <use xlink:href="#DejaVuSans-65" x="985.009766"/>
      <use xlink:href="#DejaVuSans-73" x="1046.533203"/>
     </g>
    </g>
   </g>
  </g>
  <g id="axes_2">
   <g id="patch_8">
    <path d="M 90 256.32 
L 648 256.32 
L 648 155.52 
L 90 155.52 
z
" style="fill: #ffffff"/>
   </g>
   <g id="matplotlib.axis_3">
    <g id="xtick_6">
     <g id="line2d_14">
      <g>
       <use xlink:href="#mda01a758cb" x="115.363636" y="256.32" style="stroke: #000000; stroke-width: 0.8"/>
      </g>
     </g>
     <g id="text_13">
      <!-- 2020-10-21 -->
      <g transform="translate(86.305824 270.918437)scale(0.1 -0.1)">
       <use xlink:href="#DejaVuSans-32"/>
       <use xlink:href="#DejaVuSans-30" x="63.623047"/>
       <use xlink:href="#DejaVuSans-32" x="127.246094"/>
       <use xlink:href="#DejaVuSans-30" x="190.869141"/>
       <use xlink:href="#DejaVuSans-2d" x="254.492188"/>
       <use xlink:href="#DejaVuSans-31" x="290.576172"/>
       <use xlink:href="#DejaVuSans-30" x="354.199219"/>
       <use xlink:href="#DejaVuSans-2d" x="417.822266"/>
       <use xlink:href="#DejaVuSans-32" x="453.90625"/>
       <use xlink:href="#DejaVuSans-31" x="517.529297"/>
      </g>
     </g>
    </g>
    <g id="xtick_7">
     <g id="line2d_15">
      <g>
       <use xlink:href="#mda01a758cb" x="210.895223" y="256.32" style="stroke: #000000; stroke-width: 0.8"/>
      </g>
     </g>
     <g id="text_14">
      <!-- 2021-01-31 -->
      <g transform="translate(181.837411 270.918437)scale(0.1 -0.1)">
       <use xlink:href="#DejaVuSans-32"/>
       <use xlink:href="#DejaVuSans-30" x="63.623047"/>
       <use xlink:href="#DejaVuSans-32" x="127.246094"/>
       <use xlink:href="#DejaVuSans-31" x="190.869141"/>
       <use xlink:href="#DejaVuSans-2d" x="254.492188"/>
       <use xlink:href="#DejaVuSans-30" x="290.576172"/>
       <use xlink:href="#DejaVuSans-31" x="354.199219"/>
       <use xlink:href="#DejaVuSans-2d" x="417.822266"/>
       <use xlink:href="#DejaVuSans-33" x="453.90625"/>
       <use xlink:href="#DejaVuSans-31" x="517.529297"/>
      </g>
     </g>
    </g>
    <g id="xtick_8">
     <g id="line2d_16">
      <g>
       <use xlink:href="#mda01a758cb" x="306.42681" y="256.32" style="stroke: #000000; stroke-width: 0.8"/>
      </g>
     </g>
     <g id="text_15">
      <!-- 2021-05-11 -->
      <g transform="translate(277.368998 270.918437)scale(0.1 -0.1)">
       <use xlink:href="#DejaVuSans-32"/>
       <use xlink:href="#DejaVuSans-30" x="63.623047"/>
       <use xlink:href="#DejaVuSans-32" x="127.246094"/>
       <use xlink:href="#DejaVuSans-31" x="190.869141"/>
       <use xlink:href="#DejaVuSans-2d" x="254.492188"/>
       <use xlink:href="#DejaVuSans-30" x="290.576172"/>
       <use xlink:href="#DejaVuSans-35" x="354.199219"/>
       <use xlink:href="#DejaVuSans-2d" x="417.822266"/>
       <use xlink:href="#DejaVuSans-31" x="453.90625"/>
       <use xlink:href="#DejaVuSans-31" x="517.529297"/>
      </g>
     </g>
    </g>
    <g id="xtick_9">
     <g id="line2d_17">
      <g>
       <use xlink:href="#mda01a758cb" x="401.958398" y="256.32" style="stroke: #000000; stroke-width: 0.8"/>
      </g>
     </g>
     <g id="text_16">
      <!-- 2021-08-19 -->
      <g transform="translate(372.900585 270.918437)scale(0.1 -0.1)">
       <defs>
        <path id="DejaVuSans-39" d="M 703 97 
L 703 672 
Q 941 559 1184 500 
Q 1428 441 1663 441 
Q 2288 441 2617 861 
Q 2947 1281 2994 2138 
Q 2813 1869 2534 1725 
Q 2256 1581 1919 1581 
Q 1219 1581 811 2004 
Q 403 2428 403 3163 
Q 403 3881 828 4315 
Q 1253 4750 1959 4750 
Q 2769 4750 3195 4129 
Q 3622 3509 3622 2328 
Q 3622 1225 3098 567 
Q 2575 -91 1691 -91 
Q 1453 -91 1209 -44 
Q 966 3 703 97 
z
M 1959 2075 
Q 2384 2075 2632 2365 
Q 2881 2656 2881 3163 
Q 2881 3666 2632 3958 
Q 2384 4250 1959 4250 
Q 1534 4250 1286 3958 
Q 1038 3666 1038 3163 
Q 1038 2656 1286 2365 
Q 1534 2075 1959 2075 
z
" transform="scale(0.015625)"/>
       </defs>
       <use xlink:href="#DejaVuSans-32"/>
       <use xlink:href="#DejaVuSans-30" x="63.623047"/>
       <use xlink:href="#DejaVuSans-32" x="127.246094"/>
       <use xlink:href="#DejaVuSans-31" x="190.869141"/>
       <use xlink:href="#DejaVuSans-2d" x="254.492188"/>
       <use xlink:href="#DejaVuSans-30" x="290.576172"/>
       <use xlink:href="#DejaVuSans-38" x="354.199219"/>
       <use xlink:href="#DejaVuSans-2d" x="417.822266"/>
       <use xlink:href="#DejaVuSans-31" x="453.90625"/>
       <use xlink:href="#DejaVuSans-39" x="517.529297"/>
      </g>
     </g>
    </g>
    <g id="xtick_10">
     <g id="line2d_18">
      <g>
       <use xlink:href="#mda01a758cb" x="497.489985" y="256.32" style="stroke: #000000; stroke-width: 0.8"/>
      </g>
     </g>
     <g id="text_17">
      <!-- 2021-11-28 -->
      <g transform="translate(468.432172 270.918437)scale(0.1 -0.1)">
       <use xlink:href="#DejaVuSans-32"/>
       <use xlink:href="#DejaVuSans-30" x="63.623047"/>
       <use xlink:href="#DejaVuSans-32" x="127.246094"/>
       <use xlink:href="#DejaVuSans-31" x="190.869141"/>
       <use xlink:href="#DejaVuSans-2d" x="254.492188"/>
       <use xlink:href="#DejaVuSans-31" x="290.576172"/>
       <use xlink:href="#DejaVuSans-31" x="354.199219"/>
       <use xlink:href="#DejaVuSans-2d" x="417.822266"/>
       <use xlink:href="#DejaVuSans-32" x="453.90625"/>
       <use xlink:href="#DejaVuSans-38" x="517.529297"/>
      </g>
     </g>
    </g>
    <g id="xtick_11">
     <g id="line2d_19">
      <g>
       <use xlink:href="#mda01a758cb" x="593.021572" y="256.32" style="stroke: #000000; stroke-width: 0.8"/>
      </g>
     </g>
     <g id="text_18">
      <!-- 2022-03-10 -->
      <g transform="translate(563.963759 270.918437)scale(0.1 -0.1)">
       <use xlink:href="#DejaVuSans-32"/>
       <use xlink:href="#DejaVuSans-30" x="63.623047"/>
       <use xlink:href="#DejaVuSans-32" x="127.246094"/>
       <use xlink:href="#DejaVuSans-32" x="190.869141"/>
       <use xlink:href="#DejaVuSans-2d" x="254.492188"/>
       <use xlink:href="#DejaVuSans-30" x="290.576172"/>
       <use xlink:href="#DejaVuSans-33" x="354.199219"/>
       <use xlink:href="#DejaVuSans-2d" x="417.822266"/>
       <use xlink:href="#DejaVuSans-31" x="453.90625"/>
       <use xlink:href="#DejaVuSans-30" x="517.529297"/>
      </g>
     </g>
    </g>
    <g id="text_19">
     <!-- _date -->
     <g transform="translate(355.225 284.596563)scale(0.1 -0.1)">
      <use xlink:href="#DejaVuSans-5f"/>
      <use xlink:href="#DejaVuSans-64" x="50"/>
      <use xlink:href="#DejaVuSans-61" x="113.476562"/>
      <use xlink:href="#DejaVuSans-74" x="174.755859"/>
      <use xlink:href="#DejaVuSans-65" x="213.964844"/>
     </g>
    </g>
   </g>
   <g id="matplotlib.axis_4">
    <g id="ytick_5">
     <g id="line2d_20">
      <g>
       <use xlink:href="#m03e7237cf8" x="90" y="252.006124" style="stroke: #000000; stroke-width: 0.8"/>
      </g>
     </g>
     <g id="text_20">
      <!-- 0 -->
      <g transform="translate(76.6375 255.805343)scale(0.1 -0.1)">
       <use xlink:href="#DejaVuSans-30"/>
      </g>
     </g>
    </g>
    <g id="ytick_6">
     <g id="line2d_21">
      <g>
       <use xlink:href="#m03e7237cf8" x="90" y="225.211866" style="stroke: #000000; stroke-width: 0.8"/>
      </g>
     </g>
     <g id="text_21">
      <!-- 100 -->
      <g transform="translate(63.9125 229.011085)scale(0.1 -0.1)">
       <use xlink:href="#DejaVuSans-31"/>
       <use xlink:href="#DejaVuSans-30" x="63.623047"/>
       <use xlink:href="#DejaVuSans-30" x="127.246094"/>
      </g>
     </g>
    </g>
    <g id="ytick_7">
     <g id="line2d_22">
      <g>
       <use xlink:href="#m03e7237cf8" x="90" y="198.417608" style="stroke: #000000; stroke-width: 0.8"/>
      </g>
     </g>
     <g id="text_22">
      <!-- 200 -->
      <g transform="translate(63.9125 202.216826)scale(0.1 -0.1)">
       <use xlink:href="#DejaVuSans-32"/>
       <use xlink:href="#DejaVuSans-30" x="63.623047"/>
       <use xlink:href="#DejaVuSans-30" x="127.246094"/>
      </g>
     </g>
    </g>
    <g id="ytick_8">
     <g id="line2d_23">
      <g>
       <use xlink:href="#m03e7237cf8" x="90" y="171.623349" style="stroke: #000000; stroke-width: 0.8"/>
      </g>
     </g>
     <g id="text_23">
      <!-- 300 -->
      <g transform="translate(63.9125 175.422568)scale(0.1 -0.1)">
       <use xlink:href="#DejaVuSans-33"/>
       <use xlink:href="#DejaVuSans-30" x="63.623047"/>
       <use xlink:href="#DejaVuSans-30" x="127.246094"/>
      </g>
     </g>
    </g>
   </g>
   <g id="line2d_24">
    <path d="M 115.363636 251.738182 
L 116.318952 231.910431 
L 117.274268 229.498947 
L 118.229584 244.771675 
L 119.1849 251.470239 
L 120.140216 239.412823 
L 121.095532 239.14488 
L 122.050847 235.393684 
L 123.006163 239.14488 
L 123.961479 239.948708 
L 124.916795 250.666411 
L 125.872111 248.522871 
L 126.827427 247.719043 
L 127.782743 239.948708 
L 128.738059 213.690335 
L 129.693374 227.355407 
L 130.64869 244.235789 
L 131.604006 247.4511 
L 132.559322 251.202297 
L 134.469954 225.747751 
L 135.42527 246.111388 
L 136.380586 243.699904 
L 137.335901 237.537225 
L 138.291217 237.537225 
L 139.246533 249.862584 
L 140.201849 237.805167 
L 141.157165 234.321914 
L 142.112481 243.967847 
L 143.067797 243.967847 
L 144.023112 239.412823 
L 144.978428 247.183158 
L 145.933744 249.326699 
L 146.88906 227.623349 
L 147.844376 249.058756 
L 148.799692 248.254928 
L 149.755008 249.862584 
L 150.710324 247.986986 
L 151.665639 251.470239 
L 152.620955 251.470239 
L 153.576271 229.231005 
L 154.531587 217.173589 
L 155.486903 244.235789 
L 156.442219 245.575502 
L 157.397535 227.891292 
L 158.352851 250.934354 
L 159.308166 245.30756 
L 160.263482 242.092249 
L 161.218798 246.37933 
L 162.174114 237.00134 
L 163.12943 247.183158 
L 164.084746 250.934354 
L 165.040062 251.738182 
L 165.995378 244.235789 
L 166.950693 242.628134 
L 167.906009 242.896077 
L 168.861325 241.556364 
L 169.816641 249.058756 
L 170.771957 250.934354 
L 171.727273 250.666411 
L 172.682589 247.4511 
L 173.637904 247.986986 
L 174.59322 243.164019 
L 175.548536 250.130526 
L 176.503852 251.202297 
L 177.459168 251.470239 
L 178.414484 248.522871 
L 179.3698 249.594641 
L 180.325116 250.398469 
L 181.280431 251.738182 
L 182.235747 247.4511 
L 183.191063 247.719043 
L 184.146379 250.934354 
L 185.101695 246.647273 
L 186.057011 243.164019 
L 187.012327 240.752536 
L 187.967643 247.986986 
L 188.922958 249.058756 
L 189.878274 233.518086 
L 190.83359 250.398469 
L 191.788906 235.125742 
L 192.744222 236.733397 
L 193.699538 240.752536 
L 194.654854 234.589856 
L 195.610169 247.183158 
L 196.565485 235.929569 
L 197.520801 251.202297 
L 198.476117 234.857799 
L 199.431433 236.197512 
L 200.386749 228.159234 
L 201.342065 233.786029 
L 202.297381 240.752536 
L 203.252696 243.431962 
L 204.208012 248.522871 
L 205.163328 230.302775 
L 206.118644 226.015694 
L 207.07396 237.269282 
L 208.029276 235.929569 
L 208.984592 233.518086 
L 209.939908 247.719043 
L 210.895223 248.790813 
L 211.850539 231.374545 
L 212.805855 247.183158 
L 214.716487 234.321914 
L 216.627119 250.934354 
L 217.582435 247.986986 
L 218.53775 236.465455 
L 219.493066 235.929569 
L 220.448382 226.819522 
L 221.403698 242.628134 
L 222.359014 250.398469 
L 223.31433 250.666411 
L 224.269646 249.326699 
L 225.224961 243.164019 
L 226.180277 243.431962 
L 227.135593 247.183158 
L 228.090909 232.178373 
L 229.046225 248.522871 
L 230.001541 242.628134 
L 230.956857 239.948708 
L 231.912173 241.556364 
L 232.867488 227.087464 
L 233.822804 236.733397 
L 234.77812 235.929569 
L 235.733436 240.752536 
L 236.688752 239.14488 
L 237.644068 240.216651 
L 238.599384 187.431962 
L 239.5547 246.111388 
L 240.510015 232.178373 
L 241.465331 235.661627 
L 242.420647 228.427177 
L 243.375963 242.360191 
L 244.331279 202.972632 
L 245.286595 201.364976 
L 246.241911 206.99177 
L 247.197227 230.570718 
L 248.152542 178.321914 
L 249.107858 225.211866 
L 250.063174 246.37933 
L 251.01849 245.575502 
L 251.973806 238.341053 
L 252.929122 232.446316 
L 253.884438 229.231005 
L 254.839753 235.661627 
L 255.795069 225.479809 
L 256.750385 244.235789 
L 257.705701 246.111388 
L 258.661017 208.063541 
L 259.616333 233.786029 
L 260.571649 235.393684 
L 261.526965 246.647273 
L 262.48228 248.790813 
L 263.437596 248.254928 
L 264.392912 234.053971 
L 265.348228 187.967847 
L 266.303544 231.106603 
L 267.25886 235.393684 
L 268.214176 216.369761 
L 269.169492 244.771675 
L 270.124807 248.522871 
L 271.080123 245.30756 
L 272.035439 223.604211 
L 272.990755 239.412823 
L 273.946071 224.943923 
L 274.901387 203.240574 
L 275.856703 234.857799 
L 276.812018 241.824306 
L 277.767334 246.37933 
L 278.72265 180.465455 
L 279.677966 228.963062 
L 280.633282 243.967847 
L 281.588598 236.197512 
L 282.543914 237.537225 
L 283.49923 249.058756 
L 284.454545 247.183158 
L 285.409861 191.183158 
L 286.365177 184.752536 
L 287.320493 201.364976 
L 288.275809 243.431962 
L 289.231125 249.326699 
L 290.186441 237.537225 
L 291.141757 247.719043 
L 293.052388 226.015694 
L 294.007704 167.336268 
L 294.96302 223.872153 
L 295.918336 223.068325 
L 296.873652 227.623349 
L 297.828968 245.843445 
L 298.784284 246.647273 
L 299.739599 221.996555 
L 300.694915 237.00134 
L 301.650231 236.733397 
L 302.605547 227.891292 
L 303.560863 243.699904 
L 304.516179 249.326699 
L 305.471495 201.097033 
L 306.42681 238.07311 
L 307.382126 215.030048 
L 308.337442 209.135311 
L 309.292758 215.565933 
L 310.248074 249.862584 
L 311.20339 249.862584 
L 312.158706 224.140096 
L 313.114022 234.053971 
L 314.069337 233.518086 
L 315.024653 239.680766 
L 315.979969 243.164019 
L 316.935285 248.522871 
L 317.890601 246.37933 
L 318.845917 227.355407 
L 319.801233 244.503732 
L 320.756549 241.020478 
L 321.711864 233.250144 
L 322.66718 239.412823 
L 323.622496 249.862584 
L 324.577812 249.862584 
L 325.533128 243.431962 
L 326.488444 240.752536 
L 327.44376 246.647273 
L 328.399076 241.824306 
L 329.354391 243.967847 
L 330.309707 249.326699 
L 331.265023 247.719043 
L 332.220339 232.178373 
L 333.175655 237.269282 
L 334.130971 172.69512 
L 335.086287 215.833876 
L 336.041602 244.503732 
L 336.996918 242.628134 
L 337.952234 250.130526 
L 338.90755 233.250144 
L 339.862866 235.125742 
L 340.818182 242.360191 
L 341.773498 241.556364 
L 342.728814 236.465455 
L 343.684129 249.862584 
L 344.639445 250.398469 
L 345.594761 196.274067 
L 346.550077 239.948708 
L 347.505393 245.30756 
L 348.460709 247.4511 
L 349.416025 204.312344 
L 350.371341 247.4511 
L 351.326656 248.254928 
L 353.237288 242.360191 
L 354.192604 242.628134 
L 355.14792 225.479809 
L 356.103236 244.771675 
L 357.058552 249.862584 
L 358.013867 243.967847 
L 358.969183 245.575502 
L 359.924499 183.948708 
L 360.879815 200.293206 
L 361.835131 241.020478 
L 362.790447 242.896077 
L 363.745763 245.039617 
L 364.701079 244.503732 
L 365.656394 232.714258 
L 366.61171 242.628134 
L 367.567026 243.699904 
L 368.522342 223.872153 
L 369.477658 239.948708 
L 370.432974 250.398469 
L 371.38829 251.738182 
L 372.343606 245.039617 
L 373.298921 245.575502 
L 374.254237 246.915215 
L 375.209553 243.967847 
L 376.164869 246.37933 
L 377.120185 249.594641 
L 378.075501 251.202297 
L 379.030817 243.967847 
L 379.986133 243.699904 
L 380.941448 231.910431 
L 381.896764 230.302775 
L 382.85208 250.666411 
L 383.807396 246.37933 
L 384.762712 251.738182 
L 385.718028 239.680766 
L 386.673344 240.752536 
L 387.628659 243.164019 
L 388.583975 240.484593 
L 389.539291 248.522871 
L 390.494607 245.843445 
L 391.449923 250.130526 
L 392.405239 237.537225 
L 393.360555 239.412823 
L 394.315871 244.235789 
L 395.271186 241.288421 
L 396.226502 232.446316 
L 397.181818 242.360191 
L 398.137134 248.522871 
L 399.09245 233.518086 
L 400.047766 250.398469 
L 401.003082 246.111388 
L 401.958398 244.503732 
L 402.913713 251.202297 
L 403.869029 250.934354 
L 404.824345 245.039617 
L 405.779661 245.575502 
L 406.734977 233.250144 
L 407.690293 231.642488 
L 408.645609 249.058756 
L 409.600924 249.862584 
L 410.55624 250.398469 
L 411.511556 242.628134 
L 412.466872 228.159234 
L 413.422188 236.465455 
L 414.377504 236.197512 
L 415.33282 245.30756 
L 416.288136 249.862584 
L 417.243451 245.843445 
L 418.198767 246.647273 
L 419.154083 249.862584 
L 420.109399 237.269282 
L 421.064715 247.719043 
L 422.020031 242.628134 
L 422.975347 226.015694 
L 423.930663 250.934354 
L 424.885978 248.254928 
L 425.841294 233.786029 
L 426.79661 216.905646 
L 427.751926 236.733397 
L 428.707242 248.254928 
L 429.662558 247.719043 
L 430.617874 250.398469 
L 431.57319 246.647273 
L 432.528505 232.178373 
L 433.483821 230.570718 
L 434.439137 221.46067 
L 435.394453 233.786029 
L 436.349769 248.522871 
L 437.305085 251.470239 
L 438.260401 248.522871 
L 439.215716 249.862584 
L 440.171032 239.948708 
L 441.126348 189.575502 
L 442.081664 229.498947 
L 443.03698 242.628134 
L 443.992296 241.020478 
L 444.947612 230.83866 
L 445.902928 230.83866 
L 446.858243 220.924785 
L 447.813559 198.417608 
L 448.768875 217.441531 
L 449.724191 246.37933 
L 450.679507 250.666411 
L 451.634823 224.675981 
L 452.590139 228.159234 
L 453.545455 212.618565 
L 454.50077 240.216651 
L 455.456086 236.197512 
L 456.411402 246.111388 
L 457.366718 248.254928 
L 458.322034 215.565933 
L 459.27735 238.608995 
L 460.232666 249.594641 
L 461.187982 223.604211 
L 462.143297 164.924785 
L 463.098613 240.484593 
L 464.053929 235.929569 
L 465.009245 227.891292 
L 465.964561 228.963062 
L 466.919877 242.896077 
L 467.875193 232.446316 
L 468.830508 238.876938 
L 469.785824 246.915215 
L 470.74114 245.843445 
L 471.696456 235.929569 
L 472.651772 249.058756 
L 473.607088 243.431962 
L 474.562404 229.498947 
L 476.473035 250.934354 
L 477.428351 250.130526 
L 478.383667 245.039617 
L 479.338983 231.642488 
L 480.294299 240.752536 
L 481.249615 247.183158 
L 482.204931 247.986986 
L 483.160247 247.986986 
L 484.115562 248.790813 
L 485.070878 239.412823 
L 486.026194 235.661627 
L 486.98151 243.967847 
L 488.892142 237.537225 
L 489.847458 250.130526 
L 490.802773 249.862584 
L 491.758089 234.589856 
L 492.713405 232.982201 
L 493.668721 245.575502 
L 495.579353 250.934354 
L 496.534669 248.522871 
L 497.489985 247.719043 
L 498.4453 244.503732 
L 499.400616 228.69512 
L 500.355932 238.341053 
L 501.311248 238.876938 
L 502.266564 226.819522 
L 503.22188 249.862584 
L 504.177196 228.159234 
L 505.132512 237.269282 
L 506.087827 202.972632 
L 507.043143 239.948708 
L 507.998459 221.996555 
L 508.953775 247.4511 
L 509.909091 248.254928 
L 510.864407 230.034833 
L 511.819723 208.599426 
L 512.775039 234.589856 
L 513.730354 237.269282 
L 514.68567 243.431962 
L 515.640986 233.250144 
L 516.596302 249.058756 
L 517.551618 217.173589 
L 518.506934 235.929569 
L 519.46225 239.948708 
L 520.417565 242.628134 
L 521.372881 242.896077 
L 522.328197 246.915215 
L 523.283513 249.058756 
L 524.238829 245.843445 
L 525.194145 248.790813 
L 526.149461 250.934354 
L 527.104777 249.594641 
L 528.060092 249.326699 
L 529.015408 246.915215 
L 529.970724 217.709474 
L 531.881356 242.092249 
L 532.836672 243.164019 
L 533.791988 249.862584 
L 534.747304 250.934354 
L 535.702619 251.738182 
L 536.657935 243.699904 
L 537.613251 236.733397 
L 538.568567 241.288421 
L 539.523883 219.585072 
L 540.479199 246.915215 
L 541.434515 246.111388 
L 542.389831 250.934354 
L 543.345146 247.719043 
L 544.300462 239.412823 
L 545.255778 244.771675 
L 546.211094 242.092249 
L 547.16641 245.843445 
L 548.121726 250.666411 
L 549.077042 250.130526 
L 550.032357 219.585072 
L 550.987673 220.120957 
L 551.942989 235.929569 
L 552.898305 247.719043 
L 553.853621 217.441531 
L 554.808937 246.915215 
L 555.764253 235.929569 
L 556.719569 212.886507 
L 557.674884 238.07311 
L 558.6302 209.939139 
L 559.585516 198.68555 
L 560.540832 232.714258 
L 561.496148 250.666411 
L 562.451464 249.862584 
L 563.40678 196.809952 
L 564.362096 208.867368 
L 565.317411 223.872153 
L 566.272727 224.675981 
L 567.228043 179.125742 
L 568.183359 243.967847 
L 569.138675 245.575502 
L 570.093991 217.441531 
L 571.049307 226.015694 
L 572.004622 242.628134 
L 572.959938 240.752536 
L 573.915254 226.283636 
L 574.87057 247.719043 
L 575.825886 249.862584 
L 576.781202 225.747751 
L 577.736518 235.929569 
L 578.691834 223.336268 
L 579.647149 232.178373 
L 580.602465 216.369761 
L 581.557781 239.680766 
L 582.513097 248.254928 
L 583.468413 222.264498 
L 584.423729 228.427177 
L 585.379045 231.910431 
L 586.334361 227.623349 
L 587.289676 185.824306 
L 588.244992 223.872153 
L 589.200308 241.288421 
L 590.155624 160.101818 
L 591.11094 200.829091 
L 592.066256 224.943923 
L 593.021572 241.288421 
L 593.976888 239.680766 
L 594.932203 243.967847 
L 595.887519 247.4511 
L 596.842835 211.814737 
L 597.798151 223.068325 
L 598.753467 209.671196 
L 599.708783 213.15445 
L 600.664099 225.211866 
L 601.619414 250.130526 
L 602.57473 249.594641 
L 603.530046 213.422392 
L 604.485362 235.661627 
L 605.440678 222.53244 
L 606.395994 230.570718 
L 607.35131 235.393684 
L 608.306626 242.896077 
L 609.261941 247.719043 
L 610.217257 229.76689 
L 611.172573 236.197512 
L 612.127889 216.637703 
L 613.083205 214.22622 
L 614.038521 242.896077 
L 614.993837 249.058756 
L 615.949153 251.738182 
L 616.904468 239.680766 
L 617.859784 237.805167 
L 618.8151 243.699904 
L 619.770416 235.661627 
L 620.725732 244.235789 
L 621.681048 249.326699 
L 622.636364 250.130526 
L 622.636364 250.130526 
" clip-path="url(#p9402e6dfc7)" style="fill: none; stroke: #1f77b4; stroke-width: 1.5; stroke-linecap: square"/>
   </g>
   <g id="line2d_25">
    <path d="M 115.363636 251.738182 
L 116.318952 249.594641 
L 117.274268 248.522871 
L 118.229584 249.594641 
L 119.1849 251.738182 
L 120.140216 250.130526 
L 121.095532 249.326699 
L 122.050847 249.326699 
L 123.006163 249.058756 
L 123.961479 249.594641 
L 124.916795 251.470239 
L 128.738059 249.326699 
L 129.693374 249.058756 
L 130.64869 250.130526 
L 132.559322 251.738182 
L 133.514638 249.058756 
L 134.469954 249.594641 
L 135.42527 250.666411 
L 136.380586 250.934354 
L 137.335901 250.666411 
L 138.291217 251.470239 
L 139.246533 251.202297 
L 140.201849 250.130526 
L 141.157165 251.202297 
L 142.112481 249.058756 
L 143.067797 249.862584 
L 144.023112 250.398469 
L 144.978428 251.202297 
L 145.933744 251.202297 
L 146.88906 247.719043 
L 147.844376 251.470239 
L 148.799692 251.470239 
L 149.755008 251.202297 
L 151.665639 251.738182 
L 152.620955 251.470239 
L 153.576271 249.594641 
L 154.531587 247.183158 
L 155.486903 248.790813 
L 156.442219 250.130526 
L 157.397535 250.130526 
L 158.352851 251.470239 
L 159.308166 250.398469 
L 160.263482 250.130526 
L 161.218798 250.934354 
L 162.174114 247.986986 
L 163.12943 249.594641 
L 164.084746 251.470239 
L 165.040062 251.738182 
L 165.995378 249.326699 
L 167.906009 249.326699 
L 168.861325 250.130526 
L 169.816641 250.398469 
L 170.771957 251.202297 
L 171.727273 251.470239 
L 172.682589 250.934354 
L 173.637904 250.666411 
L 174.59322 251.202297 
L 176.503852 251.202297 
L 177.459168 251.470239 
L 178.414484 250.934354 
L 180.325116 250.934354 
L 181.280431 251.738182 
L 182.235747 251.202297 
L 183.191063 251.202297 
L 184.146379 250.934354 
L 185.101695 249.862584 
L 186.057011 248.254928 
L 187.012327 250.130526 
L 187.967643 251.202297 
L 188.922958 250.934354 
L 189.878274 250.934354 
L 190.83359 251.202297 
L 191.788906 249.594641 
L 192.744222 248.790813 
L 193.699538 249.862584 
L 194.654854 247.183158 
L 195.610169 249.862584 
L 196.565485 250.398469 
L 197.520801 251.202297 
L 198.476117 250.666411 
L 199.431433 250.666411 
L 200.386749 248.522871 
L 201.342065 249.594641 
L 202.297381 249.326699 
L 203.252696 249.326699 
L 204.208012 250.398469 
L 205.163328 246.37933 
L 206.118644 247.986986 
L 207.07396 249.326699 
L 208.029276 247.719043 
L 208.984592 246.647273 
L 209.939908 250.934354 
L 210.895223 250.666411 
L 211.850539 248.790813 
L 212.805855 250.130526 
L 213.761171 248.254928 
L 214.716487 249.594641 
L 215.671803 249.594641 
L 216.627119 250.934354 
L 217.582435 251.202297 
L 218.53775 249.058756 
L 219.493066 248.254928 
L 220.448382 248.522871 
L 221.403698 250.934354 
L 222.359014 251.470239 
L 224.269646 250.934354 
L 225.224961 250.934354 
L 226.180277 249.594641 
L 227.135593 250.398469 
L 228.090909 249.058756 
L 229.046225 250.934354 
L 230.001541 250.398469 
L 230.956857 250.934354 
L 231.912173 249.326699 
L 232.867488 249.058756 
L 233.822804 249.058756 
L 234.77812 248.254928 
L 235.733436 250.398469 
L 236.688752 250.934354 
L 237.644068 250.934354 
L 238.599384 242.896077 
L 239.5547 249.058756 
L 240.510015 249.058756 
L 241.465331 247.719043 
L 242.420647 249.326699 
L 243.375963 250.666411 
L 244.331279 250.666411 
L 245.286595 246.647273 
L 246.241911 246.915215 
L 247.197227 248.522871 
L 248.152542 246.915215 
L 249.107858 247.719043 
L 250.063174 250.130526 
L 251.01849 250.934354 
L 251.973806 247.719043 
L 252.929122 246.37933 
L 253.884438 247.4511 
L 254.839753 247.719043 
L 255.795069 249.594641 
L 256.750385 251.202297 
L 257.705701 250.130526 
L 258.661017 247.986986 
L 259.616333 247.986986 
L 260.571649 248.790813 
L 261.526965 250.666411 
L 263.437596 251.202297 
L 264.392912 250.130526 
L 265.348228 246.647273 
L 266.303544 247.4511 
L 267.25886 248.790813 
L 268.214176 247.183158 
L 269.169492 249.862584 
L 270.124807 251.202297 
L 272.035439 249.594641 
L 272.990755 248.522871 
L 273.946071 248.790813 
L 274.901387 247.719043 
L 275.856703 249.326699 
L 276.812018 249.594641 
L 277.767334 250.934354 
L 278.72265 245.843445 
L 279.677966 248.254928 
L 280.633282 249.058756 
L 281.588598 249.326699 
L 282.543914 249.326699 
L 283.49923 250.934354 
L 284.454545 250.398469 
L 285.409861 246.111388 
L 286.365177 244.771675 
L 287.320493 247.183158 
L 288.275809 249.058756 
L 289.231125 250.398469 
L 290.186441 249.326699 
L 291.141757 250.398469 
L 292.097072 246.647273 
L 293.052388 246.915215 
L 294.007704 230.302775 
L 294.96302 248.254928 
L 295.918336 246.915215 
L 296.873652 250.666411 
L 297.828968 251.738182 
L 298.784284 249.862584 
L 299.739599 248.522871 
L 300.694915 248.522871 
L 301.650231 248.790813 
L 302.605547 247.986986 
L 304.516179 251.202297 
L 305.471495 249.326699 
L 306.42681 248.522871 
L 307.382126 247.183158 
L 308.337442 247.4511 
L 309.292758 246.111388 
L 310.248074 250.666411 
L 311.20339 251.738182 
L 312.158706 246.111388 
L 313.114022 247.4511 
L 314.069337 249.594641 
L 315.024653 247.719043 
L 315.979969 248.522871 
L 316.935285 251.470239 
L 317.890601 250.398469 
L 318.845917 248.522871 
L 319.801233 249.594641 
L 320.756549 248.254928 
L 321.711864 246.647273 
L 323.622496 250.934354 
L 324.577812 251.202297 
L 325.533128 249.326699 
L 326.488444 247.986986 
L 327.44376 250.130526 
L 328.399076 249.594641 
L 329.354391 249.594641 
L 331.265023 250.130526 
L 332.220339 247.183158 
L 333.175655 249.058756 
L 334.130971 249.058756 
L 335.086287 250.130526 
L 336.041602 249.326699 
L 336.996918 251.202297 
L 337.952234 250.398469 
L 338.90755 248.522871 
L 339.862866 249.326699 
L 340.818182 249.058756 
L 341.773498 248.522871 
L 342.728814 249.326699 
L 343.684129 251.202297 
L 344.639445 250.934354 
L 345.594761 247.719043 
L 346.550077 250.666411 
L 347.505393 249.862584 
L 348.460709 249.326699 
L 349.416025 246.111388 
L 350.371341 251.202297 
L 351.326656 250.666411 
L 352.281972 249.862584 
L 353.237288 250.398469 
L 354.192604 249.058756 
L 355.14792 248.254928 
L 356.103236 249.326699 
L 357.058552 250.934354 
L 358.013867 250.934354 
L 358.969183 249.594641 
L 359.924499 247.4511 
L 360.879815 247.4511 
L 361.835131 250.398469 
L 362.790447 248.790813 
L 363.745763 250.666411 
L 364.701079 249.594641 
L 365.656394 247.986986 
L 366.61171 248.790813 
L 367.567026 248.790813 
L 368.522342 247.986986 
L 369.477658 248.254928 
L 370.432974 251.202297 
L 371.38829 251.738182 
L 372.343606 250.130526 
L 373.298921 250.130526 
L 374.254237 250.398469 
L 375.209553 250.398469 
L 376.164869 250.666411 
L 378.075501 251.738182 
L 379.030817 250.398469 
L 379.986133 249.594641 
L 380.941448 249.862584 
L 381.896764 248.790813 
L 382.85208 251.202297 
L 383.807396 250.398469 
L 384.762712 251.738182 
L 385.718028 250.398469 
L 386.673344 250.398469 
L 387.628659 248.522871 
L 388.583975 247.986986 
L 389.539291 249.594641 
L 390.494607 250.666411 
L 391.449923 250.666411 
L 392.405239 248.790813 
L 393.360555 249.594641 
L 394.315871 249.862584 
L 395.271186 249.862584 
L 396.226502 249.058756 
L 397.181818 249.326699 
L 398.137134 250.666411 
L 399.09245 248.522871 
L 400.047766 251.470239 
L 401.003082 249.862584 
L 401.958398 249.862584 
L 402.913713 251.202297 
L 403.869029 250.934354 
L 404.824345 250.130526 
L 405.779661 250.130526 
L 406.734977 249.326699 
L 407.690293 249.594641 
L 408.645609 251.202297 
L 409.600924 250.934354 
L 410.55624 251.470239 
L 411.511556 250.398469 
L 412.466872 250.130526 
L 413.422188 248.790813 
L 414.377504 249.326699 
L 415.33282 250.398469 
L 416.288136 250.934354 
L 417.243451 250.398469 
L 418.198767 251.470239 
L 419.154083 250.934354 
L 420.109399 249.326699 
L 421.064715 250.130526 
L 422.020031 251.202297 
L 422.975347 248.522871 
L 423.930663 251.470239 
L 424.885978 251.202297 
L 425.841294 248.254928 
L 427.751926 249.326699 
L 428.707242 250.398469 
L 429.662558 249.862584 
L 430.617874 251.202297 
L 431.57319 250.666411 
L 432.528505 247.986986 
L 433.483821 249.862584 
L 434.439137 249.326699 
L 435.394453 249.862584 
L 436.349769 249.862584 
L 437.305085 251.470239 
L 438.260401 251.470239 
L 439.215716 250.934354 
L 440.171032 248.522871 
L 442.081664 248.522871 
L 443.03698 249.862584 
L 443.992296 249.862584 
L 444.947612 249.058756 
L 445.902928 248.790813 
L 446.858243 247.4511 
L 447.813559 249.594641 
L 448.768875 247.719043 
L 449.724191 250.130526 
L 450.679507 251.202297 
L 451.634823 250.398469 
L 452.590139 249.862584 
L 453.545455 248.254928 
L 454.50077 248.522871 
L 455.456086 249.326699 
L 456.411402 249.862584 
L 457.366718 250.130526 
L 458.322034 247.719043 
L 459.27735 248.522871 
L 460.232666 250.666411 
L 461.187982 249.594641 
L 463.098613 249.058756 
L 464.053929 249.594641 
L 465.009245 247.719043 
L 465.964561 250.130526 
L 466.919877 250.398469 
L 467.875193 248.522871 
L 468.830508 249.058756 
L 469.785824 250.934354 
L 470.74114 250.398469 
L 471.696456 249.594641 
L 472.651772 250.934354 
L 473.607088 249.326699 
L 474.562404 248.790813 
L 475.51772 249.058756 
L 476.473035 251.202297 
L 477.428351 251.202297 
L 478.383667 249.326699 
L 479.338983 250.398469 
L 480.294299 247.986986 
L 482.204931 250.130526 
L 483.160247 250.666411 
L 484.115562 250.130526 
L 485.070878 249.058756 
L 486.026194 247.4511 
L 486.98151 248.522871 
L 487.936826 247.986986 
L 488.892142 249.058756 
L 489.847458 250.666411 
L 490.802773 250.934354 
L 491.758089 249.326699 
L 492.713405 250.666411 
L 493.668721 249.862584 
L 494.624037 250.130526 
L 495.579353 251.470239 
L 496.534669 250.934354 
L 497.489985 250.934354 
L 498.4453 251.470239 
L 499.400616 249.594641 
L 500.355932 250.398469 
L 501.311248 249.058756 
L 502.266564 250.666411 
L 503.22188 251.202297 
L 504.177196 249.058756 
L 505.132512 249.594641 
L 506.087827 249.594641 
L 507.043143 246.915215 
L 507.998459 246.647273 
L 508.953775 250.398469 
L 509.909091 250.398469 
L 510.864407 248.790813 
L 511.819723 248.790813 
L 512.775039 249.862584 
L 513.730354 249.326699 
L 514.68567 250.398469 
L 515.640986 250.666411 
L 516.596302 250.666411 
L 517.551618 248.254928 
L 518.506934 249.862584 
L 519.46225 250.666411 
L 520.417565 250.934354 
L 521.372881 249.594641 
L 522.328197 251.738182 
L 523.283513 251.470239 
L 524.238829 250.934354 
L 525.194145 250.934354 
L 526.149461 251.202297 
L 527.104777 250.666411 
L 528.060092 251.202297 
L 529.015408 250.398469 
L 529.970724 244.771675 
L 530.92604 247.4511 
L 531.881356 249.326699 
L 534.747304 250.934354 
L 535.702619 251.738182 
L 536.657935 249.594641 
L 537.613251 249.594641 
L 538.568567 249.058756 
L 539.523883 246.111388 
L 540.479199 250.666411 
L 541.434515 251.738182 
L 542.389831 251.470239 
L 543.345146 250.666411 
L 544.300462 248.254928 
L 545.255778 250.934354 
L 546.211094 250.130526 
L 547.16641 248.522871 
L 548.121726 251.202297 
L 549.077042 251.202297 
L 550.032357 250.130526 
L 550.987673 247.986986 
L 551.942989 248.790813 
L 552.898305 249.862584 
L 553.853621 249.326699 
L 554.808937 250.934354 
L 555.764253 250.666411 
L 556.719569 248.254928 
L 557.674884 249.326699 
L 558.6302 247.183158 
L 559.585516 246.647273 
L 560.540832 247.183158 
L 561.496148 251.202297 
L 562.451464 251.738182 
L 563.40678 247.986986 
L 564.362096 246.111388 
L 565.317411 247.986986 
L 566.272727 246.647273 
L 567.228043 243.431962 
L 568.183359 249.594641 
L 569.138675 249.326699 
L 570.093991 247.4511 
L 571.049307 247.183158 
L 572.004622 248.254928 
L 572.959938 248.790813 
L 573.915254 247.986986 
L 574.87057 249.862584 
L 575.825886 250.934354 
L 576.781202 247.719043 
L 578.691834 248.254928 
L 579.647149 246.915215 
L 580.602465 247.4511 
L 581.557781 247.719043 
L 582.513097 250.666411 
L 583.468413 245.843445 
L 584.423729 245.843445 
L 585.379045 243.967847 
L 586.334361 247.183158 
L 587.289676 247.183158 
L 588.244992 249.862584 
L 589.200308 249.058756 
L 590.155624 247.986986 
L 591.11094 245.843445 
L 592.066256 248.522871 
L 593.021572 249.058756 
L 593.976888 249.326699 
L 594.932203 249.326699 
L 595.887519 249.862584 
L 596.842835 246.647273 
L 597.798151 247.183158 
L 598.753467 245.039617 
L 599.708783 247.986986 
L 600.664099 247.183158 
L 601.619414 250.934354 
L 602.57473 251.202297 
L 603.530046 243.967847 
L 604.485362 247.4511 
L 605.440678 245.575502 
L 606.395994 246.37933 
L 607.35131 249.594641 
L 608.306626 250.398469 
L 609.261941 250.398469 
L 610.217257 248.522871 
L 611.172573 249.326699 
L 612.127889 247.183158 
L 613.083205 246.915215 
L 614.038521 249.594641 
L 614.993837 249.862584 
L 615.949153 251.738182 
L 616.904468 248.522871 
L 617.859784 248.254928 
L 618.8151 249.058756 
L 619.770416 244.771675 
L 620.725732 249.326699 
L 621.681048 251.470239 
L 622.636364 250.934354 
L 622.636364 250.934354 
" clip-path="url(#p9402e6dfc7)" style="fill: none; stroke: #ff7f0e; stroke-width: 1.5; stroke-linecap: square"/>
   </g>
   <g id="patch_9">
    <path d="M 90 256.32 
L 90 155.52 
" style="fill: none; stroke: #000000; stroke-width: 0.8; stroke-linejoin: miter; stroke-linecap: square"/>
   </g>
   <g id="patch_10">
    <path d="M 648 256.32 
L 648 155.52 
" style="fill: none; stroke: #000000; stroke-width: 0.8; stroke-linejoin: miter; stroke-linecap: square"/>
   </g>
   <g id="patch_11">
    <path d="M 90 256.32 
L 648 256.32 
" style="fill: none; stroke: #000000; stroke-width: 0.8; stroke-linejoin: miter; stroke-linecap: square"/>
   </g>
   <g id="patch_12">
    <path d="M 90 155.52 
L 648 155.52 
" style="fill: none; stroke: #000000; stroke-width: 0.8; stroke-linejoin: miter; stroke-linecap: square"/>
   </g>
   <g id="legend_2">
    <g id="patch_13">
     <path d="M 97 192.87625 
L 234.217188 192.87625 
Q 236.217188 192.87625 236.217188 190.87625 
L 236.217188 162.52 
Q 236.217188 160.52 234.217188 160.52 
L 97 160.52 
Q 95 160.52 95 162.52 
L 95 190.87625 
Q 95 192.87625 97 192.87625 
z
" style="fill: #ffffff; opacity: 0.8; stroke: #cccccc; stroke-linejoin: miter"/>
    </g>
    <g id="line2d_26">
     <path d="M 99 168.618437 
L 109 168.618437 
L 119 168.618437 
" style="fill: none; stroke: #1f77b4; stroke-width: 1.5; stroke-linecap: square"/>
    </g>
    <g id="text_24">
     <!-- Total GitHub Views -->
     <g transform="translate(127 172.118437)scale(0.1 -0.1)">
      <defs>
       <path id="DejaVuSans-56" d="M 1831 0 
L 50 4666 
L 709 4666 
L 2188 738 
L 3669 4666 
L 4325 4666 
L 2547 0 
L 1831 0 
z
" transform="scale(0.015625)"/>
       <path id="DejaVuSans-77" d="M 269 3500 
L 844 3500 
L 1563 769 
L 2278 3500 
L 2956 3500 
L 3675 769 
L 4391 3500 
L 4966 3500 
L 4050 0 
L 3372 0 
L 2619 2869 
L 1863 0 
L 1184 0 
L 269 3500 
z
" transform="scale(0.015625)"/>
      </defs>
      <use xlink:href="#DejaVuSans-54"/>
      <use xlink:href="#DejaVuSans-6f" x="44.083984"/>
      <use xlink:href="#DejaVuSans-74" x="105.265625"/>
      <use xlink:href="#DejaVuSans-61" x="144.474609"/>
      <use xlink:href="#DejaVuSans-6c" x="205.753906"/>
      <use xlink:href="#DejaVuSans-20" x="233.537109"/>
      <use xlink:href="#DejaVuSans-47" x="265.324219"/>
      <use xlink:href="#DejaVuSans-69" x="342.814453"/>
      <use xlink:href="#DejaVuSans-74" x="370.597656"/>
      <use xlink:href="#DejaVuSans-48" x="409.806641"/>
      <use xlink:href="#DejaVuSans-75" x="485.001953"/>
      <use xlink:href="#DejaVuSans-62" x="548.380859"/>
      <use xlink:href="#DejaVuSans-20" x="611.857422"/>
      <use xlink:href="#DejaVuSans-56" x="643.644531"/>
      <use xlink:href="#DejaVuSans-69" x="709.802734"/>
      <use xlink:href="#DejaVuSans-65" x="737.585938"/>
      <use xlink:href="#DejaVuSans-77" x="799.109375"/>
      <use xlink:href="#DejaVuSans-73" x="880.896484"/>
     </g>
    </g>
    <g id="line2d_27">
     <path d="M 99 183.296562 
L 109 183.296562 
L 119 183.296562 
" style="fill: none; stroke: #ff7f0e; stroke-width: 1.5; stroke-linecap: square"/>
    </g>
    <g id="text_25">
     <!-- Unique GitHub Views -->
     <g transform="translate(127 186.796562)scale(0.1 -0.1)">
      <use xlink:href="#DejaVuSans-55"/>
      <use xlink:href="#DejaVuSans-6e" x="73.193359"/>
      <use xlink:href="#DejaVuSans-69" x="136.572266"/>
      <use xlink:href="#DejaVuSans-71" x="164.355469"/>
      <use xlink:href="#DejaVuSans-75" x="227.832031"/>
      <use xlink:href="#DejaVuSans-65" x="291.210938"/>
      <use xlink:href="#DejaVuSans-20" x="352.734375"/>
      <use xlink:href="#DejaVuSans-47" x="384.521484"/>
      <use xlink:href="#DejaVuSans-69" x="462.011719"/>
      <use xlink:href="#DejaVuSans-74" x="489.794922"/>
      <use xlink:href="#DejaVuSans-48" x="529.003906"/>
      <use xlink:href="#DejaVuSans-75" x="604.199219"/>
      <use xlink:href="#DejaVuSans-62" x="667.578125"/>
      <use xlink:href="#DejaVuSans-20" x="731.054688"/>
      <use xlink:href="#DejaVuSans-56" x="762.841797"/>
      <use xlink:href="#DejaVuSans-69" x="829"/>
      <use xlink:href="#DejaVuSans-65" x="856.783203"/>
      <use xlink:href="#DejaVuSans-77" x="918.306641"/>
      <use xlink:href="#DejaVuSans-73" x="1000.09375"/>
     </g>
    </g>
   </g>
  </g>
 </g>
 <defs>
  <clipPath id="pb519be3a1a">
   <rect x="90" y="34.56" width="558" height="100.8"/>
  </clipPath>
  <clipPath id="p9402e6dfc7">
   <rect x="90" y="155.52" width="558" height="100.8"/>
  </clipPath>
 </defs>
</svg>
