<?xml version="1.0" encoding="utf-8" standalone="no"?>
<!DOCTYPE svg PUBLIC "-//W3C//DTD SVG 1.1//EN"
  "http://www.w3.org/Graphics/SVG/1.1/DTD/svg11.dtd">
<svg xmlns:xlink="http://www.w3.org/1999/xlink" width="720pt" height="288pt" viewBox="0 0 720 288" xmlns="http://www.w3.org/2000/svg" version="1.1">
 <metadata>
  <rdf:RDF xmlns:dc="http://purl.org/dc/elements/1.1/" xmlns:cc="http://creativecommons.org/ns#" xmlns:rdf="http://www.w3.org/1999/02/22-rdf-syntax-ns#">
   <cc:Work>
    <dc:type rdf:resource="http://purl.org/dc/dcmitype/StillImage"/>
    <dc:date>2022-09-12T00:58:37.208585</dc:date>
    <dc:format>image/svg+xml</dc:format>
    <dc:creator>
     <cc:Agent>
      <dc:title>Matplotlib v3.5.3, https://matplotlib.org/</dc:title>
     </cc:Agent>
    </dc:creator>
   </cc:Work>
  </rdf:RDF>
 </metadata>
 <defs>
  <style type="text/css">*{stroke-linejoin: round; stroke-linecap: butt}</style>
 </defs>
 <g id="figure_1">
  <g id="patch_1">
   <path d="M 0 288 
L 720 288 
L 720 0 
L 0 0 
z
" style="fill: #ffffff"/>
  </g>
  <g id="axes_1">
   <g id="patch_2">
    <path d="M 90 135.36 
L 648 135.36 
L 648 34.56 
L 90 34.56 
z
" style="fill: #ffffff"/>
   </g>
   <g id="matplotlib.axis_1">
    <g id="xtick_1">
     <g id="line2d_1">
      <defs>
       <path id="m5e1d7dad5d" d="M 0 0 
L 0 3.5 
" style="stroke: #000000; stroke-width: 0.8"/>
      </defs>
      <g>
       <use xlink:href="#m5e1d7dad5d" x="115.363636" y="135.36" style="stroke: #000000; stroke-width: 0.8"/>
      </g>
     </g>
     <g id="text_1">
      <!-- 2020-10-22 -->
      <g transform="translate(86.305824 149.958437)scale(0.1 -0.1)">
       <defs>
        <path id="DejaVuSans-32" d="M 1228 531 
L 3431 531 
L 3431 0 
L 469 0 
L 469 531 
Q 828 903 1448 1529 
Q 2069 2156 2228 2338 
Q 2531 2678 2651 2914 
Q 2772 3150 2772 3378 
Q 2772 3750 2511 3984 
Q 2250 4219 1831 4219 
Q 1534 4219 1204 4116 
Q 875 4013 500 3803 
L 500 4441 
Q 881 4594 1212 4672 
Q 1544 4750 1819 4750 
Q 2544 4750 2975 4387 
Q 3406 4025 3406 3419 
Q 3406 3131 3298 2873 
Q 3191 2616 2906 2266 
Q 2828 2175 2409 1742 
Q 1991 1309 1228 531 
z
" transform="scale(0.015625)"/>
        <path id="DejaVuSans-30" d="M 2034 4250 
Q 1547 4250 1301 3770 
Q 1056 3291 1056 2328 
Q 1056 1369 1301 889 
Q 1547 409 2034 409 
Q 2525 409 2770 889 
Q 3016 1369 3016 2328 
Q 3016 3291 2770 3770 
Q 2525 4250 2034 4250 
z
M 2034 4750 
Q 2819 4750 3233 4129 
Q 3647 3509 3647 2328 
Q 3647 1150 3233 529 
Q 2819 -91 2034 -91 
Q 1250 -91 836 529 
Q 422 1150 422 2328 
Q 422 3509 836 4129 
Q 1250 4750 2034 4750 
z
" transform="scale(0.015625)"/>
        <path id="DejaVuSans-2d" d="M 313 2009 
L 1997 2009 
L 1997 1497 
L 313 1497 
L 313 2009 
z
" transform="scale(0.015625)"/>
        <path id="DejaVuSans-31" d="M 794 531 
L 1825 531 
L 1825 4091 
L 703 3866 
L 703 4441 
L 1819 4666 
L 2450 4666 
L 2450 531 
L 3481 531 
L 3481 0 
L 794 0 
L 794 531 
z
" transform="scale(0.015625)"/>
       </defs>
       <use xlink:href="#DejaVuSans-32"/>
       <use xlink:href="#DejaVuSans-30" x="63.623047"/>
       <use xlink:href="#DejaVuSans-32" x="127.246094"/>
       <use xlink:href="#DejaVuSans-30" x="190.869141"/>
       <use xlink:href="#DejaVuSans-2d" x="254.492188"/>
       <use xlink:href="#DejaVuSans-31" x="290.576172"/>
       <use xlink:href="#DejaVuSans-30" x="354.199219"/>
       <use xlink:href="#DejaVuSans-2d" x="417.822266"/>
       <use xlink:href="#DejaVuSans-32" x="453.90625"/>
       <use xlink:href="#DejaVuSans-32" x="517.529297"/>
      </g>
     </g>
    </g>
    <g id="xtick_2">
     <g id="line2d_2">
      <g>
       <use xlink:href="#m5e1d7dad5d" x="212.35651" y="135.36" style="stroke: #000000; stroke-width: 0.8"/>
      </g>
     </g>
     <g id="text_2">
      <!-- 2021-03-17 -->
      <g transform="translate(183.298697 149.958437)scale(0.1 -0.1)">
       <defs>
        <path id="DejaVuSans-33" d="M 2597 2516 
Q 3050 2419 3304 2112 
Q 3559 1806 3559 1356 
Q 3559 666 3084 287 
Q 2609 -91 1734 -91 
Q 1441 -91 1130 -33 
Q 819 25 488 141 
L 488 750 
Q 750 597 1062 519 
Q 1375 441 1716 441 
Q 2309 441 2620 675 
Q 2931 909 2931 1356 
Q 2931 1769 2642 2001 
Q 2353 2234 1838 2234 
L 1294 2234 
L 1294 2753 
L 1863 2753 
Q 2328 2753 2575 2939 
Q 2822 3125 2822 3475 
Q 2822 3834 2567 4026 
Q 2313 4219 1838 4219 
Q 1578 4219 1281 4162 
Q 984 4106 628 3988 
L 628 4550 
Q 988 4650 1302 4700 
Q 1616 4750 1894 4750 
Q 2613 4750 3031 4423 
Q 3450 4097 3450 3541 
Q 3450 3153 3228 2886 
Q 3006 2619 2597 2516 
z
" transform="scale(0.015625)"/>
        <path id="DejaVuSans-37" d="M 525 4666 
L 3525 4666 
L 3525 4397 
L 1831 0 
L 1172 0 
L 2766 4134 
L 525 4134 
L 525 4666 
z
" transform="scale(0.015625)"/>
       </defs>
       <use xlink:href="#DejaVuSans-32"/>
       <use xlink:href="#DejaVuSans-30" x="63.623047"/>
       <use xlink:href="#DejaVuSans-32" x="127.246094"/>
       <use xlink:href="#DejaVuSans-31" x="190.869141"/>
       <use xlink:href="#DejaVuSans-2d" x="254.492188"/>
       <use xlink:href="#DejaVuSans-30" x="290.576172"/>
       <use xlink:href="#DejaVuSans-33" x="354.199219"/>
       <use xlink:href="#DejaVuSans-2d" x="417.822266"/>
       <use xlink:href="#DejaVuSans-31" x="453.90625"/>
       <use xlink:href="#DejaVuSans-37" x="517.529297"/>
      </g>
     </g>
    </g>
    <g id="xtick_3">
     <g id="line2d_3">
      <g>
       <use xlink:href="#m5e1d7dad5d" x="309.349383" y="135.36" style="stroke: #000000; stroke-width: 0.8"/>
      </g>
     </g>
     <g id="text_3">
      <!-- 2021-07-07 -->
      <g transform="translate(280.29157 149.958437)scale(0.1 -0.1)">
       <use xlink:href="#DejaVuSans-32"/>
       <use xlink:href="#DejaVuSans-30" x="63.623047"/>
       <use xlink:href="#DejaVuSans-32" x="127.246094"/>
       <use xlink:href="#DejaVuSans-31" x="190.869141"/>
       <use xlink:href="#DejaVuSans-2d" x="254.492188"/>
       <use xlink:href="#DejaVuSans-30" x="290.576172"/>
       <use xlink:href="#DejaVuSans-37" x="354.199219"/>
       <use xlink:href="#DejaVuSans-2d" x="417.822266"/>
       <use xlink:href="#DejaVuSans-30" x="453.90625"/>
       <use xlink:href="#DejaVuSans-37" x="517.529297"/>
      </g>
     </g>
    </g>
    <g id="xtick_4">
     <g id="line2d_4">
      <g>
       <use xlink:href="#m5e1d7dad5d" x="406.342256" y="135.36" style="stroke: #000000; stroke-width: 0.8"/>
      </g>
     </g>
     <g id="text_4">
      <!-- 2021-11-18 -->
      <g transform="translate(377.284444 149.958437)scale(0.1 -0.1)">
       <defs>
        <path id="DejaVuSans-38" d="M 2034 2216 
Q 1584 2216 1326 1975 
Q 1069 1734 1069 1313 
Q 1069 891 1326 650 
Q 1584 409 2034 409 
Q 2484 409 2743 651 
Q 3003 894 3003 1313 
Q 3003 1734 2745 1975 
Q 2488 2216 2034 2216 
z
M 1403 2484 
Q 997 2584 770 2862 
Q 544 3141 544 3541 
Q 544 4100 942 4425 
Q 1341 4750 2034 4750 
Q 2731 4750 3128 4425 
Q 3525 4100 3525 3541 
Q 3525 3141 3298 2862 
Q 3072 2584 2669 2484 
Q 3125 2378 3379 2068 
Q 3634 1759 3634 1313 
Q 3634 634 3220 271 
Q 2806 -91 2034 -91 
Q 1263 -91 848 271 
Q 434 634 434 1313 
Q 434 1759 690 2068 
Q 947 2378 1403 2484 
z
M 1172 3481 
Q 1172 3119 1398 2916 
Q 1625 2713 2034 2713 
Q 2441 2713 2670 2916 
Q 2900 3119 2900 3481 
Q 2900 3844 2670 4047 
Q 2441 4250 2034 4250 
Q 1625 4250 1398 4047 
Q 1172 3844 1172 3481 
z
" transform="scale(0.015625)"/>
       </defs>
       <use xlink:href="#DejaVuSans-32"/>
       <use xlink:href="#DejaVuSans-30" x="63.623047"/>
       <use xlink:href="#DejaVuSans-32" x="127.246094"/>
       <use xlink:href="#DejaVuSans-31" x="190.869141"/>
       <use xlink:href="#DejaVuSans-2d" x="254.492188"/>
       <use xlink:href="#DejaVuSans-31" x="290.576172"/>
       <use xlink:href="#DejaVuSans-31" x="354.199219"/>
       <use xlink:href="#DejaVuSans-2d" x="417.822266"/>
       <use xlink:href="#DejaVuSans-31" x="453.90625"/>
       <use xlink:href="#DejaVuSans-38" x="517.529297"/>
      </g>
     </g>
    </g>
    <g id="xtick_5">
     <g id="line2d_5">
      <g>
       <use xlink:href="#m5e1d7dad5d" x="503.335129" y="135.36" style="stroke: #000000; stroke-width: 0.8"/>
      </g>
     </g>
     <g id="text_5">
      <!-- 2022-03-24 -->
      <g transform="translate(474.277317 149.958437)scale(0.1 -0.1)">
       <defs>
        <path id="DejaVuSans-34" d="M 2419 4116 
L 825 1625 
L 2419 1625 
L 2419 4116 
z
M 2253 4666 
L 3047 4666 
L 3047 1625 
L 3713 1625 
L 3713 1100 
L 3047 1100 
L 3047 0 
L 2419 0 
L 2419 1100 
L 313 1100 
L 313 1709 
L 2253 4666 
z
" transform="scale(0.015625)"/>
       </defs>
       <use xlink:href="#DejaVuSans-32"/>
       <use xlink:href="#DejaVuSans-30" x="63.623047"/>
       <use xlink:href="#DejaVuSans-32" x="127.246094"/>
       <use xlink:href="#DejaVuSans-32" x="190.869141"/>
       <use xlink:href="#DejaVuSans-2d" x="254.492188"/>
       <use xlink:href="#DejaVuSans-30" x="290.576172"/>
       <use xlink:href="#DejaVuSans-33" x="354.199219"/>
       <use xlink:href="#DejaVuSans-2d" x="417.822266"/>
       <use xlink:href="#DejaVuSans-32" x="453.90625"/>
       <use xlink:href="#DejaVuSans-34" x="517.529297"/>
      </g>
     </g>
    </g>
    <g id="xtick_6">
     <g id="line2d_6">
      <g>
       <use xlink:href="#m5e1d7dad5d" x="600.328003" y="135.36" style="stroke: #000000; stroke-width: 0.8"/>
      </g>
     </g>
     <g id="text_6">
      <!-- 2022-08-14 -->
      <g transform="translate(571.27019 149.958437)scale(0.1 -0.1)">
       <use xlink:href="#DejaVuSans-32"/>
       <use xlink:href="#DejaVuSans-30" x="63.623047"/>
       <use xlink:href="#DejaVuSans-32" x="127.246094"/>
       <use xlink:href="#DejaVuSans-32" x="190.869141"/>
       <use xlink:href="#DejaVuSans-2d" x="254.492188"/>
       <use xlink:href="#DejaVuSans-30" x="290.576172"/>
       <use xlink:href="#DejaVuSans-38" x="354.199219"/>
       <use xlink:href="#DejaVuSans-2d" x="417.822266"/>
       <use xlink:href="#DejaVuSans-31" x="453.90625"/>
       <use xlink:href="#DejaVuSans-34" x="517.529297"/>
      </g>
     </g>
    </g>
    <g id="text_7">
     <!-- _date -->
     <g transform="translate(355.225 163.636562)scale(0.1 -0.1)">
      <defs>
       <path id="DejaVuSans-5f" d="M 3263 -1063 
L 3263 -1509 
L -63 -1509 
L -63 -1063 
L 3263 -1063 
z
" transform="scale(0.015625)"/>
       <path id="DejaVuSans-64" d="M 2906 2969 
L 2906 4863 
L 3481 4863 
L 3481 0 
L 2906 0 
L 2906 525 
Q 2725 213 2448 61 
Q 2172 -91 1784 -91 
Q 1150 -91 751 415 
Q 353 922 353 1747 
Q 353 2572 751 3078 
Q 1150 3584 1784 3584 
Q 2172 3584 2448 3432 
Q 2725 3281 2906 2969 
z
M 947 1747 
Q 947 1113 1208 752 
Q 1469 391 1925 391 
Q 2381 391 2643 752 
Q 2906 1113 2906 1747 
Q 2906 2381 2643 2742 
Q 2381 3103 1925 3103 
Q 1469 3103 1208 2742 
Q 947 2381 947 1747 
z
" transform="scale(0.015625)"/>
       <path id="DejaVuSans-61" d="M 2194 1759 
Q 1497 1759 1228 1600 
Q 959 1441 959 1056 
Q 959 750 1161 570 
Q 1363 391 1709 391 
Q 2188 391 2477 730 
Q 2766 1069 2766 1631 
L 2766 1759 
L 2194 1759 
z
M 3341 1997 
L 3341 0 
L 2766 0 
L 2766 531 
Q 2569 213 2275 61 
Q 1981 -91 1556 -91 
Q 1019 -91 701 211 
Q 384 513 384 1019 
Q 384 1609 779 1909 
Q 1175 2209 1959 2209 
L 2766 2209 
L 2766 2266 
Q 2766 2663 2505 2880 
Q 2244 3097 1772 3097 
Q 1472 3097 1187 3025 
Q 903 2953 641 2809 
L 641 3341 
Q 956 3463 1253 3523 
Q 1550 3584 1831 3584 
Q 2591 3584 2966 3190 
Q 3341 2797 3341 1997 
z
" transform="scale(0.015625)"/>
       <path id="DejaVuSans-74" d="M 1172 4494 
L 1172 3500 
L 2356 3500 
L 2356 3053 
L 1172 3053 
L 1172 1153 
Q 1172 725 1289 603 
Q 1406 481 1766 481 
L 2356 481 
L 2356 0 
L 1766 0 
Q 1100 0 847 248 
Q 594 497 594 1153 
L 594 3053 
L 172 3053 
L 172 3500 
L 594 3500 
L 594 4494 
L 1172 4494 
z
" transform="scale(0.015625)"/>
       <path id="DejaVuSans-65" d="M 3597 1894 
L 3597 1613 
L 953 1613 
Q 991 1019 1311 708 
Q 1631 397 2203 397 
Q 2534 397 2845 478 
Q 3156 559 3463 722 
L 3463 178 
Q 3153 47 2828 -22 
Q 2503 -91 2169 -91 
Q 1331 -91 842 396 
Q 353 884 353 1716 
Q 353 2575 817 3079 
Q 1281 3584 2069 3584 
Q 2775 3584 3186 3129 
Q 3597 2675 3597 1894 
z
M 3022 2063 
Q 3016 2534 2758 2815 
Q 2500 3097 2075 3097 
Q 1594 3097 1305 2825 
Q 1016 2553 972 2059 
L 3022 2063 
z
" transform="scale(0.015625)"/>
      </defs>
      <use xlink:href="#DejaVuSans-5f"/>
      <use xlink:href="#DejaVuSans-64" x="50"/>
      <use xlink:href="#DejaVuSans-61" x="113.476562"/>
      <use xlink:href="#DejaVuSans-74" x="174.755859"/>
      <use xlink:href="#DejaVuSans-65" x="213.964844"/>
     </g>
    </g>
   </g>
   <g id="matplotlib.axis_2">
    <g id="ytick_1">
     <g id="line2d_7">
      <defs>
       <path id="mb773876f29" d="M 0 0 
L -3.5 0 
" style="stroke: #000000; stroke-width: 0.8"/>
      </defs>
      <g>
       <use xlink:href="#mb773876f29" x="90" y="131.070017" style="stroke: #000000; stroke-width: 0.8"/>
      </g>
     </g>
     <g id="text_8">
      <!-- 0 -->
      <g transform="translate(76.6375 134.869236)scale(0.1 -0.1)">
       <use xlink:href="#DejaVuSans-30"/>
      </g>
     </g>
    </g>
    <g id="ytick_2">
     <g id="line2d_8">
      <g>
       <use xlink:href="#mb773876f29" x="90" y="101.886462" style="stroke: #000000; stroke-width: 0.8"/>
      </g>
     </g>
     <g id="text_9">
      <!-- 100 -->
      <g transform="translate(63.9125 105.685681)scale(0.1 -0.1)">
       <use xlink:href="#DejaVuSans-31"/>
       <use xlink:href="#DejaVuSans-30" x="63.623047"/>
       <use xlink:href="#DejaVuSans-30" x="127.246094"/>
      </g>
     </g>
    </g>
    <g id="ytick_3">
     <g id="line2d_9">
      <g>
       <use xlink:href="#mb773876f29" x="90" y="72.702907" style="stroke: #000000; stroke-width: 0.8"/>
      </g>
     </g>
     <g id="text_10">
      <!-- 200 -->
      <g transform="translate(63.9125 76.502126)scale(0.1 -0.1)">
       <use xlink:href="#DejaVuSans-32"/>
       <use xlink:href="#DejaVuSans-30" x="63.623047"/>
       <use xlink:href="#DejaVuSans-30" x="127.246094"/>
      </g>
     </g>
    </g>
    <g id="ytick_4">
     <g id="line2d_10">
      <g>
       <use xlink:href="#mb773876f29" x="90" y="43.519351" style="stroke: #000000; stroke-width: 0.8"/>
      </g>
     </g>
     <g id="text_11">
      <!-- 300 -->
      <g transform="translate(63.9125 47.31857)scale(0.1 -0.1)">
       <use xlink:href="#DejaVuSans-33"/>
       <use xlink:href="#DejaVuSans-30" x="63.623047"/>
       <use xlink:href="#DejaVuSans-30" x="127.246094"/>
      </g>
     </g>
    </g>
   </g>
   <g id="line2d_11">
    <path d="M 115.363636 129.319004 
L 116.333565 129.61084 
L 117.303494 130.778182 
L 118.273423 130.778182 
L 119.243351 130.194511 
L 120.21328 130.194511 
L 121.183209 126.108813 
L 122.153137 126.108813 
L 123.123066 130.778182 
L 124.092995 130.778182 
L 125.062924 127.859826 
L 126.032852 128.735333 
L 127.002781 130.778182 
L 127.97271 129.319004 
L 128.942639 129.902675 
L 129.912567 129.902675 
L 130.882496 130.778182 
L 132.822354 129.61084 
L 133.792282 130.486346 
L 134.762211 130.778182 
L 135.73214 130.486346 
L 136.702068 130.486346 
L 137.671997 130.194511 
L 138.641926 130.486346 
L 139.611855 130.486346 
L 140.581783 129.902675 
L 141.551712 130.486346 
L 142.521641 130.486346 
L 143.49157 126.98432 
L 144.461498 129.319004 
L 145.431427 130.486346 
L 146.401356 123.774129 
L 147.371285 130.778182 
L 155.130714 130.778182 
L 156.100643 130.486346 
L 157.070572 130.778182 
L 163.860073 130.778182 
L 164.830002 129.902675 
L 165.79993 130.194511 
L 166.769859 130.778182 
L 167.739788 130.194511 
L 168.709717 129.319004 
L 169.679645 130.486346 
L 170.649574 130.486346 
L 171.619503 129.902675 
L 172.589432 126.108813 
L 173.55936 130.486346 
L 174.529289 130.778182 
L 175.499218 130.486346 
L 176.469147 129.027169 
L 177.439075 130.486346 
L 178.409004 130.194511 
L 179.378933 128.151662 
L 180.348861 129.902675 
L 181.31879 129.027169 
L 182.288719 130.486346 
L 183.258648 130.194511 
L 184.228576 130.486346 
L 185.198505 130.194511 
L 187.138363 130.194511 
L 188.108291 129.61084 
L 189.07822 130.778182 
L 190.048149 130.778182 
L 191.018078 129.61084 
L 191.988006 129.61084 
L 192.957935 128.151662 
L 193.927864 130.194511 
L 194.897792 129.319004 
L 195.867721 130.778182 
L 196.83765 128.443497 
L 197.807579 129.902675 
L 198.777507 130.194511 
L 199.747436 129.902675 
L 200.717365 128.735333 
L 201.687294 130.486346 
L 202.657222 129.61084 
L 203.627151 126.400649 
L 204.59708 128.735333 
L 205.567009 126.108813 
L 206.536937 110.349693 
L 207.506866 129.319004 
L 208.476795 130.778182 
L 209.446723 129.902675 
L 210.416652 127.276155 
L 211.386581 127.859826 
L 212.35651 129.319004 
L 213.326438 125.525142 
L 214.296367 129.902675 
L 215.266296 129.902675 
L 216.236225 130.486346 
L 217.206153 126.98432 
L 218.176082 127.859826 
L 219.146011 130.778182 
L 220.11594 130.194511 
L 221.085868 130.778182 
L 222.055797 129.61084 
L 223.025726 116.47824 
L 223.995654 124.941471 
L 224.965583 126.400649 
L 225.935512 129.319004 
L 226.905441 130.778182 
L 227.875369 128.735333 
L 228.845298 129.902675 
L 229.815227 126.692484 
L 230.785156 129.902675 
L 231.755084 127.276155 
L 232.725013 123.774129 
L 233.694942 126.98432 
L 234.664871 129.319004 
L 235.634799 123.482293 
L 236.604728 123.482293 
L 237.574657 124.065964 
L 238.544585 112.684378 
L 239.514514 119.688431 
L 240.484443 119.688431 
L 241.454372 125.525142 
L 242.4243 121.147609 
L 243.394229 125.233306 
L 244.364158 130.194511 
L 245.334087 130.486346 
L 246.304015 124.065964 
L 247.273944 123.190457 
L 248.243873 123.774129 
L 249.213801 121.73128 
L 250.18373 119.10476 
L 251.153659 129.61084 
L 252.123588 130.486346 
L 253.093516 124.065964 
L 254.063445 124.649635 
L 255.033374 116.47824 
L 256.003303 123.774129 
L 256.973231 124.065964 
L 257.94316 130.486346 
L 258.913089 129.902675 
L 259.883018 123.190457 
L 260.852946 117.353746 
L 261.822875 124.3578 
L 262.792804 122.606786 
L 263.762732 114.143555 
L 264.732661 124.3578 
L 265.70259 130.486346 
L 266.672519 123.190457 
L 267.642447 119.10476 
L 268.612376 117.645582 
L 269.582305 120.563937 
L 270.552234 121.73128 
L 271.522162 130.194511 
L 272.492091 123.482293 
L 273.46202 120.272102 
L 274.431949 123.774129 
L 275.401877 123.482293 
L 276.371806 122.898622 
L 277.341735 128.443497 
L 278.311663 123.774129 
L 279.281592 122.606786 
L 280.251521 123.774129 
L 281.22145 124.065964 
L 282.191378 124.065964 
L 283.161307 130.778182 
L 284.131236 130.778182 
L 285.101165 123.482293 
L 286.071093 122.023115 
L 287.041022 123.482293 
L 288.010951 117.645582 
L 288.98088 119.10476 
L 289.950808 130.778182 
L 290.920737 123.774129 
L 291.890666 122.898622 
L 292.860594 122.606786 
L 293.830523 122.023115 
L 294.800452 124.3578 
L 295.770381 130.486346 
L 296.740309 123.190457 
L 297.710238 121.439444 
L 298.680167 118.812924 
L 299.650096 118.521089 
L 300.620024 87.878356 
L 302.559882 130.778182 
L 303.529811 124.941471 
L 304.499739 124.3578 
L 305.469668 127.859826 
L 306.439597 130.778182 
L 307.409525 130.486346 
L 308.379454 127.276155 
L 309.349383 128.151662 
L 310.319312 130.486346 
L 311.28924 129.902675 
L 312.259169 130.486346 
L 313.229098 130.778182 
L 314.199027 130.486346 
L 315.168955 130.778182 
L 316.138884 129.902675 
L 317.108813 130.194511 
L 318.078742 130.778182 
L 320.988528 130.778182 
L 321.958456 129.61084 
L 322.928385 130.486346 
L 323.898314 130.778182 
L 324.868243 130.486346 
L 325.838171 129.027169 
L 326.8081 130.778182 
L 327.778029 124.3578 
L 328.747958 130.194511 
L 329.717886 130.778182 
L 331.657744 130.194511 
L 332.627673 130.778182 
L 333.597601 130.486346 
L 334.56753 130.778182 
L 335.537459 129.902675 
L 336.507387 130.486346 
L 337.477316 130.194511 
L 338.447245 130.778182 
L 340.387102 130.778182 
L 342.32696 130.194511 
L 343.296889 129.027169 
L 344.266817 130.486346 
L 345.236746 130.486346 
L 346.206675 127.859826 
L 347.176604 126.692484 
L 348.146532 130.778182 
L 350.08639 130.778182 
L 352.026247 130.194511 
L 352.996176 130.486346 
L 353.966105 128.151662 
L 354.936033 122.606786 
L 355.905962 129.319004 
L 356.875891 121.147609 
L 357.84582 128.735333 
L 358.815748 130.486346 
L 359.785677 130.778182 
L 361.725535 130.778182 
L 362.695463 130.486346 
L 363.665392 130.778182 
L 364.635321 130.778182 
L 365.605249 129.61084 
L 366.575178 115.602733 
L 367.545107 124.3578 
L 368.515036 130.194511 
L 369.484964 126.98432 
L 370.454893 115.894569 
L 371.424822 114.727226 
L 372.394751 112.100706 
L 373.364679 118.229253 
L 374.334608 126.108813 
L 375.304537 126.98432 
L 376.274465 130.778182 
L 377.244394 128.443497 
L 378.214323 130.778182 
L 379.184252 130.778182 
L 380.15418 126.692484 
L 381.124109 130.194511 
L 382.094038 115.310898 
L 383.063967 126.98432 
L 384.033895 114.435391 
L 385.003824 127.276155 
L 385.973753 129.61084 
L 386.943682 126.400649 
L 387.91361 113.559884 
L 388.883539 126.108813 
L 389.853468 126.98432 
L 390.823396 130.194511 
L 391.793325 130.778182 
L 392.763254 130.778182 
L 393.733183 130.194511 
L 394.703111 128.735333 
L 395.67304 127.567991 
L 396.642969 126.98432 
L 397.612898 130.778182 
L 398.582826 130.778182 
L 399.552755 125.816977 
L 400.522684 123.774129 
L 401.492613 130.778182 
L 402.462541 130.194511 
L 403.43247 130.778182 
L 404.402399 128.151662 
L 405.372327 130.194511 
L 406.342256 130.778182 
L 407.312185 130.486346 
L 408.282114 129.902675 
L 409.252042 129.902675 
L 410.221971 119.396595 
L 411.1919 129.902675 
L 412.161829 129.902675 
L 413.131757 126.108813 
L 414.101686 118.812924 
L 415.071615 127.276155 
L 416.041544 127.276155 
L 417.011472 130.194511 
L 417.981401 125.816977 
L 418.95133 117.937417 
L 419.921258 99.259942 
L 420.891187 127.276155 
L 421.861116 122.606786 
L 422.831045 130.778182 
L 423.800973 118.521089 
L 424.770902 116.186404 
L 425.740831 129.027169 
L 426.71076 124.3578 
L 427.680688 130.778182 
L 428.650617 130.778182 
L 429.620546 116.770075 
L 430.590475 115.894569 
L 431.560403 130.486346 
L 432.530332 126.108813 
L 433.500261 130.778182 
L 434.470189 130.778182 
L 435.440118 130.194511 
L 436.410047 130.486346 
L 437.379976 129.902675 
L 438.349904 130.778182 
L 439.319833 126.692484 
L 440.289762 124.3578 
L 441.259691 113.559884 
L 442.229619 127.859826 
L 443.199548 130.486346 
L 444.169477 123.482293 
L 445.139406 130.486346 
L 446.109334 128.443497 
L 447.079263 125.816977 
L 448.049192 126.98432 
L 449.01912 129.319004 
L 449.989049 130.486346 
L 450.958978 129.027169 
L 451.928907 123.774129 
L 452.898835 129.61084 
L 453.868764 126.98432 
L 454.838693 128.151662 
L 455.808622 130.778182 
L 456.77855 104.804818 
L 457.748479 124.649635 
L 458.718408 115.019062 
L 459.688337 126.692484 
L 460.658265 106.263995 
L 461.628194 130.778182 
L 462.598123 125.233306 
L 464.53798 116.186404 
L 465.507909 120.563937 
L 466.477838 128.443497 
L 467.447766 130.778182 
L 469.387624 110.641529 
L 470.357553 112.100706 
L 471.327481 130.778182 
L 472.29741 126.98432 
L 473.267339 129.902675 
L 474.237268 113.85172 
L 475.207196 129.902675 
L 476.177125 130.778182 
L 478.116982 130.778182 
L 479.086911 129.61084 
L 480.05684 129.902675 
L 481.026769 127.859826 
L 481.996697 129.027169 
L 482.966626 127.567991 
L 483.936555 122.314951 
L 484.906484 130.486346 
L 485.876412 106.555831 
L 486.846341 127.276155 
L 487.81627 126.692484 
L 488.786199 114.143555 
L 489.756127 124.649635 
L 491.695985 130.486346 
L 492.665913 129.319004 
L 493.635842 130.486346 
L 494.605771 127.859826 
L 495.5757 104.804818 
L 496.545628 93.423231 
L 497.515557 121.147609 
L 498.485486 130.486346 
L 499.455415 126.108813 
L 500.425343 129.902675 
L 501.395272 130.194511 
L 502.365201 130.778182 
L 503.335129 130.778182 
L 504.305058 130.486346 
L 506.244916 130.486346 
L 507.214844 130.778182 
L 508.184773 130.778182 
L 509.154702 130.194511 
L 510.124631 130.194511 
L 511.094559 130.778182 
L 512.064488 130.778182 
L 513.034417 130.486346 
L 514.004346 130.486346 
L 514.974274 130.778182 
L 515.944203 130.486346 
L 516.914132 129.902675 
L 517.88406 130.486346 
L 518.853989 130.778182 
L 519.823918 130.194511 
L 520.793847 130.194511 
L 521.763775 129.61084 
L 522.733704 127.276155 
L 523.703633 129.61084 
L 524.673562 130.486346 
L 525.64349 130.194511 
L 526.613419 128.443497 
L 527.583348 125.816977 
L 528.553277 130.778182 
L 529.523205 130.486346 
L 530.493134 130.778182 
L 531.463063 130.778182 
L 532.432991 127.276155 
L 533.40292 130.778182 
L 534.372849 127.276155 
L 535.342778 130.778182 
L 536.312706 130.486346 
L 537.282635 122.606786 
L 538.252564 130.486346 
L 539.222493 118.521089 
L 540.192421 127.567991 
L 541.16235 102.178298 
L 542.132279 118.812924 
L 543.102208 129.61084 
L 544.072136 130.486346 
L 545.042065 130.194511 
L 546.011994 130.486346 
L 546.981922 117.645582 
L 547.951851 129.902675 
L 548.92178 130.778182 
L 549.891709 130.486346 
L 550.861637 125.816977 
L 551.831566 130.778182 
L 553.771424 130.778182 
L 554.741352 128.735333 
L 555.711281 120.563937 
L 556.68121 130.778182 
L 557.651139 129.902675 
L 558.621067 123.774129 
L 559.590996 122.606786 
L 560.560925 130.778182 
L 561.530853 129.902675 
L 562.500782 130.194511 
L 563.470711 127.859826 
L 564.44064 130.194511 
L 565.410568 129.319004 
L 566.380497 130.486346 
L 567.350426 130.778182 
L 568.320355 129.61084 
L 569.290283 129.027169 
L 570.260212 129.902675 
L 571.230141 119.10476 
L 572.20007 130.194511 
L 573.169998 122.023115 
L 574.139927 130.778182 
L 575.109856 129.027169 
L 576.079784 125.816977 
L 577.049713 130.778182 
L 578.019642 130.194511 
L 578.989571 130.486346 
L 579.959499 110.933364 
L 580.929428 129.027169 
L 581.899357 130.778182 
L 582.869286 130.486346 
L 583.839214 122.898622 
L 584.809143 126.108813 
L 585.779072 130.486346 
L 586.749001 124.3578 
L 587.718929 130.778182 
L 588.688858 130.778182 
L 589.658787 129.61084 
L 590.628715 130.778182 
L 591.598644 127.276155 
L 592.568573 130.194511 
L 593.538502 130.486346 
L 594.50843 130.486346 
L 595.478359 129.902675 
L 596.448288 127.276155 
L 597.418217 126.108813 
L 598.388145 126.400649 
L 599.358074 130.486346 
L 600.328003 130.486346 
L 602.26786 113.559884 
L 603.237789 130.778182 
L 604.207718 121.147609 
L 605.177646 129.902675 
L 606.147575 130.778182 
L 607.117504 129.319004 
L 608.087433 129.61084 
L 609.057361 130.778182 
L 610.02729 39.141818 
L 610.997219 129.027169 
L 611.967148 126.98432 
L 612.937076 100.71912 
L 613.907005 125.816977 
L 614.876934 130.486346 
L 615.846863 128.443497 
L 616.816791 130.778182 
L 617.78672 130.194511 
L 618.756649 127.859826 
L 619.726577 130.486346 
L 620.696506 124.3578 
L 621.666435 127.567991 
L 622.636364 129.902675 
L 622.636364 129.902675 
" clip-path="url(#pd4e8d35d81)" style="fill: none; stroke: #1f77b4; stroke-width: 1.5; stroke-linecap: square"/>
   </g>
   <g id="line2d_12">
    <path d="M 115.363636 129.319004 
L 116.333565 129.61084 
L 117.303494 130.778182 
L 118.273423 130.778182 
L 119.243351 130.194511 
L 120.21328 130.194511 
L 121.183209 130.486346 
L 122.153137 129.61084 
L 123.123066 130.778182 
L 124.092995 130.778182 
L 125.062924 127.859826 
L 126.032852 130.194511 
L 127.002781 130.778182 
L 127.97271 129.902675 
L 128.942639 129.902675 
L 129.912567 130.194511 
L 130.882496 130.778182 
L 131.852425 130.194511 
L 132.822354 129.902675 
L 133.792282 130.486346 
L 134.762211 130.778182 
L 135.73214 130.486346 
L 136.702068 130.778182 
L 137.671997 130.194511 
L 139.611855 130.778182 
L 140.581783 130.486346 
L 141.551712 130.778182 
L 142.521641 130.486346 
L 143.49157 128.443497 
L 144.461498 129.319004 
L 145.431427 130.486346 
L 146.401356 128.151662 
L 147.371285 130.778182 
L 155.130714 130.778182 
L 156.100643 130.486346 
L 157.070572 130.778182 
L 163.860073 130.778182 
L 164.830002 130.194511 
L 165.79993 130.778182 
L 166.769859 130.778182 
L 168.709717 130.194511 
L 169.679645 130.778182 
L 171.619503 130.778182 
L 172.589432 127.859826 
L 173.55936 130.778182 
L 174.529289 130.778182 
L 175.499218 130.486346 
L 176.469147 129.902675 
L 177.439075 130.486346 
L 178.409004 130.194511 
L 179.378933 129.027169 
L 180.348861 130.194511 
L 181.31879 130.778182 
L 182.288719 130.486346 
L 183.258648 130.778182 
L 184.228576 130.486346 
L 185.198505 130.778182 
L 186.168434 130.194511 
L 188.108291 130.194511 
L 189.07822 130.778182 
L 190.048149 130.778182 
L 192.957935 129.027169 
L 193.927864 130.194511 
L 194.897792 129.61084 
L 195.867721 130.778182 
L 196.83765 129.027169 
L 197.807579 129.902675 
L 198.777507 130.194511 
L 199.747436 129.902675 
L 200.717365 128.735333 
L 201.687294 130.486346 
L 202.657222 129.61084 
L 203.627151 127.859826 
L 204.59708 129.027169 
L 205.567009 127.276155 
L 206.536937 120.563937 
L 207.506866 129.319004 
L 208.476795 130.778182 
L 209.446723 130.194511 
L 210.416652 127.567991 
L 212.35651 129.319004 
L 213.326438 126.692484 
L 214.296367 129.902675 
L 215.266296 129.902675 
L 216.236225 130.486346 
L 217.206153 127.859826 
L 218.176082 127.859826 
L 219.146011 130.778182 
L 220.11594 130.194511 
L 221.085868 130.778182 
L 222.055797 129.902675 
L 223.025726 124.065964 
L 223.995654 126.98432 
L 224.965583 127.859826 
L 225.935512 129.61084 
L 226.905441 130.778182 
L 227.875369 129.319004 
L 228.845298 130.486346 
L 229.815227 127.567991 
L 230.785156 130.194511 
L 231.755084 127.567991 
L 232.725013 125.816977 
L 233.694942 127.276155 
L 234.664871 129.61084 
L 235.634799 126.108813 
L 236.604728 128.151662 
L 237.574657 130.486346 
L 238.544585 126.400649 
L 239.514514 129.902675 
L 240.484443 128.443497 
L 241.454372 126.400649 
L 242.4243 128.151662 
L 243.394229 130.778182 
L 244.364158 130.486346 
L 245.334087 130.486346 
L 246.304015 130.778182 
L 247.273944 129.902675 
L 248.243873 130.194511 
L 250.18373 126.108813 
L 251.153659 129.61084 
L 252.123588 130.486346 
L 253.093516 130.778182 
L 254.063445 129.902675 
L 255.033374 124.649635 
L 256.003303 130.778182 
L 256.973231 130.194511 
L 257.94316 130.486346 
L 259.883018 130.486346 
L 260.852946 125.233306 
L 261.822875 129.902675 
L 262.792804 129.027169 
L 263.762732 123.774129 
L 264.732661 125.816977 
L 265.70259 130.486346 
L 266.672519 130.778182 
L 267.642447 128.443497 
L 268.612376 130.194511 
L 269.582305 129.902675 
L 270.552234 130.486346 
L 271.522162 130.486346 
L 272.492091 130.778182 
L 273.46202 127.567991 
L 274.431949 130.778182 
L 275.401877 130.486346 
L 276.371806 129.902675 
L 277.341735 129.027169 
L 278.311663 130.778182 
L 279.281592 129.902675 
L 280.251521 130.778182 
L 281.22145 130.194511 
L 282.191378 130.194511 
L 283.161307 130.778182 
L 285.101165 130.778182 
L 286.071093 129.319004 
L 287.041022 130.778182 
L 288.010951 129.902675 
L 288.98088 128.443497 
L 289.950808 130.778182 
L 290.920737 130.778182 
L 291.890666 130.486346 
L 292.860594 129.902675 
L 295.770381 130.778182 
L 296.740309 130.486346 
L 297.710238 128.735333 
L 298.680167 128.735333 
L 299.650096 129.319004 
L 300.620024 130.778182 
L 301.589953 126.400649 
L 302.559882 130.778182 
L 303.529811 130.486346 
L 304.499739 128.735333 
L 305.469668 128.443497 
L 306.439597 130.778182 
L 307.409525 130.486346 
L 308.379454 127.276155 
L 309.349383 128.735333 
L 310.319312 130.486346 
L 311.28924 129.902675 
L 312.259169 130.778182 
L 313.229098 130.778182 
L 314.199027 130.486346 
L 315.168955 130.778182 
L 316.138884 129.902675 
L 317.108813 130.194511 
L 318.078742 130.778182 
L 320.988528 130.778182 
L 321.958456 129.61084 
L 322.928385 130.486346 
L 323.898314 130.778182 
L 324.868243 130.486346 
L 325.838171 129.319004 
L 326.8081 130.778182 
L 327.778029 130.778182 
L 328.747958 130.194511 
L 329.717886 130.778182 
L 331.657744 130.194511 
L 332.627673 130.778182 
L 333.597601 130.486346 
L 334.56753 130.778182 
L 335.537459 129.902675 
L 336.507387 130.486346 
L 337.477316 130.194511 
L 338.447245 130.778182 
L 340.387102 130.778182 
L 342.32696 130.194511 
L 343.296889 129.027169 
L 344.266817 130.486346 
L 345.236746 130.778182 
L 346.206675 127.859826 
L 347.176604 127.567991 
L 348.146532 130.778182 
L 350.08639 130.778182 
L 352.026247 130.194511 
L 352.996176 130.778182 
L 353.966105 128.443497 
L 354.936033 126.692484 
L 355.905962 130.486346 
L 356.875891 126.400649 
L 357.84582 129.319004 
L 358.815748 130.778182 
L 361.725535 130.778182 
L 362.695463 130.486346 
L 363.665392 130.778182 
L 364.635321 130.778182 
L 365.605249 129.61084 
L 366.575178 123.190457 
L 367.545107 125.525142 
L 368.515036 130.194511 
L 369.484964 127.567991 
L 370.454893 123.190457 
L 371.424822 122.023115 
L 372.394751 122.023115 
L 373.364679 125.525142 
L 374.334608 126.400649 
L 375.304537 127.859826 
L 376.274465 130.778182 
L 377.244394 128.735333 
L 378.214323 130.778182 
L 379.184252 130.778182 
L 380.15418 127.276155 
L 381.124109 130.194511 
L 382.094038 126.98432 
L 383.063967 129.61084 
L 384.033895 128.735333 
L 385.003824 130.486346 
L 385.973753 130.778182 
L 386.943682 129.61084 
L 387.91361 126.400649 
L 388.883539 128.443497 
L 389.853468 128.735333 
L 390.823396 130.486346 
L 391.793325 130.778182 
L 392.763254 130.778182 
L 393.733183 130.194511 
L 394.703111 129.902675 
L 395.67304 129.027169 
L 396.642969 129.027169 
L 397.612898 130.778182 
L 398.582826 130.778182 
L 399.552755 128.151662 
L 400.522684 127.567991 
L 401.492613 130.778182 
L 402.462541 130.194511 
L 403.43247 130.778182 
L 404.402399 129.319004 
L 405.372327 130.194511 
L 406.342256 130.778182 
L 407.312185 130.486346 
L 408.282114 129.902675 
L 409.252042 129.902675 
L 410.221971 126.692484 
L 411.1919 129.902675 
L 412.161829 130.194511 
L 413.131757 128.735333 
L 414.101686 125.816977 
L 415.071615 128.735333 
L 416.041544 129.027169 
L 417.011472 130.486346 
L 417.981401 128.735333 
L 419.921258 122.314951 
L 420.891187 129.319004 
L 421.861116 127.567991 
L 422.831045 130.778182 
L 423.800973 126.108813 
L 424.770902 124.3578 
L 425.740831 129.61084 
L 426.71076 127.567991 
L 427.680688 130.778182 
L 428.650617 130.778182 
L 429.620546 125.816977 
L 430.590475 124.065964 
L 431.560403 130.486346 
L 432.530332 128.443497 
L 433.500261 130.778182 
L 434.470189 130.778182 
L 435.440118 130.486346 
L 436.410047 130.778182 
L 437.379976 130.486346 
L 438.349904 130.778182 
L 439.319833 128.735333 
L 440.289762 127.859826 
L 441.259691 124.3578 
L 442.229619 129.319004 
L 443.199548 130.778182 
L 444.169477 126.98432 
L 445.139406 130.486346 
L 447.079263 128.735333 
L 448.049192 129.319004 
L 449.01912 129.61084 
L 449.989049 130.778182 
L 450.958978 129.319004 
L 451.928907 126.98432 
L 452.898835 130.194511 
L 453.868764 129.027169 
L 454.838693 129.319004 
L 455.808622 130.778182 
L 456.77855 121.147609 
L 457.748479 127.567991 
L 458.718408 124.941471 
L 459.688337 128.735333 
L 460.658265 122.023115 
L 461.628194 130.778182 
L 462.598123 130.486346 
L 463.568051 125.233306 
L 464.53798 124.3578 
L 465.507909 125.233306 
L 466.477838 129.61084 
L 467.447766 130.778182 
L 468.417695 126.400649 
L 469.387624 122.898622 
L 470.357553 122.606786 
L 471.327481 130.778182 
L 472.29741 129.027169 
L 473.267339 130.778182 
L 474.237268 124.3578 
L 475.207196 130.194511 
L 476.177125 130.778182 
L 478.116982 130.778182 
L 479.086911 129.902675 
L 480.05684 130.486346 
L 481.026769 129.319004 
L 481.996697 129.902675 
L 482.966626 129.319004 
L 483.936555 126.400649 
L 484.906484 130.486346 
L 485.876412 122.023115 
L 486.846341 128.735333 
L 487.81627 128.443497 
L 488.786199 124.649635 
L 489.756127 128.151662 
L 490.726056 128.735333 
L 491.695985 130.778182 
L 492.665913 129.902675 
L 493.635842 130.778182 
L 494.605771 129.61084 
L 495.5757 124.941471 
L 496.545628 118.521089 
L 497.515557 126.692484 
L 498.485486 130.486346 
L 499.455415 130.778182 
L 500.425343 129.902675 
L 501.395272 130.194511 
L 502.365201 130.778182 
L 503.335129 130.778182 
L 504.305058 130.486346 
L 505.274987 130.778182 
L 506.244916 130.486346 
L 507.214844 130.778182 
L 508.184773 130.778182 
L 509.154702 130.194511 
L 511.094559 130.778182 
L 512.064488 130.778182 
L 513.034417 130.486346 
L 514.004346 130.486346 
L 514.974274 130.778182 
L 515.944203 130.486346 
L 517.88406 130.486346 
L 518.853989 130.778182 
L 519.823918 130.194511 
L 520.793847 130.486346 
L 521.763775 129.902675 
L 522.733704 129.027169 
L 523.703633 130.194511 
L 524.673562 130.486346 
L 525.64349 130.194511 
L 527.583348 129.027169 
L 528.553277 130.778182 
L 529.523205 130.486346 
L 530.493134 130.778182 
L 531.463063 130.778182 
L 532.432991 129.61084 
L 533.40292 130.778182 
L 534.372849 128.735333 
L 535.342778 130.778182 
L 536.312706 130.778182 
L 537.282635 127.567991 
L 538.252564 130.778182 
L 539.222493 125.525142 
L 540.192421 128.735333 
L 541.16235 122.606786 
L 542.132279 126.108813 
L 543.102208 130.194511 
L 544.072136 130.486346 
L 547.951851 130.486346 
L 548.92178 130.778182 
L 549.891709 130.486346 
L 550.861637 130.486346 
L 551.831566 130.778182 
L 553.771424 130.778182 
L 554.741352 129.319004 
L 555.711281 125.525142 
L 556.68121 130.778182 
L 557.651139 130.194511 
L 558.621067 129.319004 
L 559.590996 127.276155 
L 560.560925 130.778182 
L 561.530853 130.194511 
L 562.500782 130.486346 
L 563.470711 129.319004 
L 564.44064 130.486346 
L 565.410568 130.194511 
L 567.350426 130.778182 
L 568.320355 129.902675 
L 569.290283 129.902675 
L 570.260212 130.486346 
L 571.230141 125.525142 
L 572.20007 130.194511 
L 573.169998 126.692484 
L 574.139927 130.778182 
L 575.109856 129.902675 
L 576.079784 128.443497 
L 577.049713 130.778182 
L 578.019642 130.194511 
L 578.989571 130.486346 
L 579.959499 124.065964 
L 580.929428 129.61084 
L 581.899357 130.778182 
L 582.869286 130.486346 
L 583.839214 127.859826 
L 584.809143 128.151662 
L 585.779072 130.486346 
L 586.749001 127.276155 
L 587.718929 130.778182 
L 588.688858 130.778182 
L 589.658787 129.902675 
L 590.628715 130.778182 
L 591.598644 129.319004 
L 592.568573 130.194511 
L 593.538502 130.778182 
L 594.50843 130.486346 
L 595.478359 130.486346 
L 596.448288 129.027169 
L 597.418217 130.486346 
L 598.388145 130.778182 
L 600.328003 130.778182 
L 601.297932 126.692484 
L 602.26786 123.774129 
L 603.237789 130.778182 
L 604.207718 126.400649 
L 605.177646 130.486346 
L 606.147575 130.778182 
L 607.117504 130.194511 
L 608.087433 130.194511 
L 609.057361 130.778182 
L 610.02729 118.229253 
L 610.997219 129.902675 
L 611.967148 129.027169 
L 612.937076 120.272102 
L 613.907005 128.443497 
L 614.876934 130.486346 
L 615.846863 129.61084 
L 616.816791 130.778182 
L 617.78672 130.194511 
L 618.756649 129.027169 
L 619.726577 130.486346 
L 620.696506 128.443497 
L 621.666435 129.902675 
L 622.636364 130.486346 
L 622.636364 130.486346 
" clip-path="url(#pd4e8d35d81)" style="fill: none; stroke: #ff7f0e; stroke-width: 1.5; stroke-linecap: square"/>
   </g>
   <g id="patch_3">
    <path d="M 90 135.36 
L 90 34.56 
" style="fill: none; stroke: #000000; stroke-width: 0.8; stroke-linejoin: miter; stroke-linecap: square"/>
   </g>
   <g id="patch_4">
    <path d="M 648 135.36 
L 648 34.56 
" style="fill: none; stroke: #000000; stroke-width: 0.8; stroke-linejoin: miter; stroke-linecap: square"/>
   </g>
   <g id="patch_5">
    <path d="M 90 135.36 
L 648 135.36 
" style="fill: none; stroke: #000000; stroke-width: 0.8; stroke-linejoin: miter; stroke-linecap: square"/>
   </g>
   <g id="patch_6">
    <path d="M 90 34.56 
L 648 34.56 
" style="fill: none; stroke: #000000; stroke-width: 0.8; stroke-linejoin: miter; stroke-linecap: square"/>
   </g>
   <g id="legend_1">
    <g id="patch_7">
     <path d="M 97 71.91625 
L 238.8625 71.91625 
Q 240.8625 71.91625 240.8625 69.91625 
L 240.8625 41.56 
Q 240.8625 39.56 238.8625 39.56 
L 97 39.56 
Q 95 39.56 95 41.56 
L 95 69.91625 
Q 95 71.91625 97 71.91625 
z
" style="fill: #ffffff; opacity: 0.8; stroke: #cccccc; stroke-linejoin: miter"/>
    </g>
    <g id="line2d_13">
     <path d="M 99 47.658437 
L 109 47.658437 
L 119 47.658437 
" style="fill: none; stroke: #1f77b4; stroke-width: 1.5; stroke-linecap: square"/>
    </g>
    <g id="text_12">
     <!-- Total GitHub Clones -->
     <g transform="translate(127 51.158437)scale(0.1 -0.1)">
      <defs>
       <path id="DejaVuSans-54" d="M -19 4666 
L 3928 4666 
L 3928 4134 
L 2272 4134 
L 2272 0 
L 1638 0 
L 1638 4134 
L -19 4134 
L -19 4666 
z
" transform="scale(0.015625)"/>
       <path id="DejaVuSans-6f" d="M 1959 3097 
Q 1497 3097 1228 2736 
Q 959 2375 959 1747 
Q 959 1119 1226 758 
Q 1494 397 1959 397 
Q 2419 397 2687 759 
Q 2956 1122 2956 1747 
Q 2956 2369 2687 2733 
Q 2419 3097 1959 3097 
z
M 1959 3584 
Q 2709 3584 3137 3096 
Q 3566 2609 3566 1747 
Q 3566 888 3137 398 
Q 2709 -91 1959 -91 
Q 1206 -91 779 398 
Q 353 888 353 1747 
Q 353 2609 779 3096 
Q 1206 3584 1959 3584 
z
" transform="scale(0.015625)"/>
       <path id="DejaVuSans-6c" d="M 603 4863 
L 1178 4863 
L 1178 0 
L 603 0 
L 603 4863 
z
" transform="scale(0.015625)"/>
       <path id="DejaVuSans-20" transform="scale(0.015625)"/>
       <path id="DejaVuSans-47" d="M 3809 666 
L 3809 1919 
L 2778 1919 
L 2778 2438 
L 4434 2438 
L 4434 434 
Q 4069 175 3628 42 
Q 3188 -91 2688 -91 
Q 1594 -91 976 548 
Q 359 1188 359 2328 
Q 359 3472 976 4111 
Q 1594 4750 2688 4750 
Q 3144 4750 3555 4637 
Q 3966 4525 4313 4306 
L 4313 3634 
Q 3963 3931 3569 4081 
Q 3175 4231 2741 4231 
Q 1884 4231 1454 3753 
Q 1025 3275 1025 2328 
Q 1025 1384 1454 906 
Q 1884 428 2741 428 
Q 3075 428 3337 486 
Q 3600 544 3809 666 
z
" transform="scale(0.015625)"/>
       <path id="DejaVuSans-69" d="M 603 3500 
L 1178 3500 
L 1178 0 
L 603 0 
L 603 3500 
z
M 603 4863 
L 1178 4863 
L 1178 4134 
L 603 4134 
L 603 4863 
z
" transform="scale(0.015625)"/>
       <path id="DejaVuSans-48" d="M 628 4666 
L 1259 4666 
L 1259 2753 
L 3553 2753 
L 3553 4666 
L 4184 4666 
L 4184 0 
L 3553 0 
L 3553 2222 
L 1259 2222 
L 1259 0 
L 628 0 
L 628 4666 
z
" transform="scale(0.015625)"/>
       <path id="DejaVuSans-75" d="M 544 1381 
L 544 3500 
L 1119 3500 
L 1119 1403 
Q 1119 906 1312 657 
Q 1506 409 1894 409 
Q 2359 409 2629 706 
Q 2900 1003 2900 1516 
L 2900 3500 
L 3475 3500 
L 3475 0 
L 2900 0 
L 2900 538 
Q 2691 219 2414 64 
Q 2138 -91 1772 -91 
Q 1169 -91 856 284 
Q 544 659 544 1381 
z
M 1991 3584 
L 1991 3584 
z
" transform="scale(0.015625)"/>
       <path id="DejaVuSans-62" d="M 3116 1747 
Q 3116 2381 2855 2742 
Q 2594 3103 2138 3103 
Q 1681 3103 1420 2742 
Q 1159 2381 1159 1747 
Q 1159 1113 1420 752 
Q 1681 391 2138 391 
Q 2594 391 2855 752 
Q 3116 1113 3116 1747 
z
M 1159 2969 
Q 1341 3281 1617 3432 
Q 1894 3584 2278 3584 
Q 2916 3584 3314 3078 
Q 3713 2572 3713 1747 
Q 3713 922 3314 415 
Q 2916 -91 2278 -91 
Q 1894 -91 1617 61 
Q 1341 213 1159 525 
L 1159 0 
L 581 0 
L 581 4863 
L 1159 4863 
L 1159 2969 
z
" transform="scale(0.015625)"/>
       <path id="DejaVuSans-43" d="M 4122 4306 
L 4122 3641 
Q 3803 3938 3442 4084 
Q 3081 4231 2675 4231 
Q 1875 4231 1450 3742 
Q 1025 3253 1025 2328 
Q 1025 1406 1450 917 
Q 1875 428 2675 428 
Q 3081 428 3442 575 
Q 3803 722 4122 1019 
L 4122 359 
Q 3791 134 3420 21 
Q 3050 -91 2638 -91 
Q 1578 -91 968 557 
Q 359 1206 359 2328 
Q 359 3453 968 4101 
Q 1578 4750 2638 4750 
Q 3056 4750 3426 4639 
Q 3797 4528 4122 4306 
z
" transform="scale(0.015625)"/>
       <path id="DejaVuSans-6e" d="M 3513 2113 
L 3513 0 
L 2938 0 
L 2938 2094 
Q 2938 2591 2744 2837 
Q 2550 3084 2163 3084 
Q 1697 3084 1428 2787 
Q 1159 2491 1159 1978 
L 1159 0 
L 581 0 
L 581 3500 
L 1159 3500 
L 1159 2956 
Q 1366 3272 1645 3428 
Q 1925 3584 2291 3584 
Q 2894 3584 3203 3211 
Q 3513 2838 3513 2113 
z
" transform="scale(0.015625)"/>
       <path id="DejaVuSans-73" d="M 2834 3397 
L 2834 2853 
Q 2591 2978 2328 3040 
Q 2066 3103 1784 3103 
Q 1356 3103 1142 2972 
Q 928 2841 928 2578 
Q 928 2378 1081 2264 
Q 1234 2150 1697 2047 
L 1894 2003 
Q 2506 1872 2764 1633 
Q 3022 1394 3022 966 
Q 3022 478 2636 193 
Q 2250 -91 1575 -91 
Q 1294 -91 989 -36 
Q 684 19 347 128 
L 347 722 
Q 666 556 975 473 
Q 1284 391 1588 391 
Q 1994 391 2212 530 
Q 2431 669 2431 922 
Q 2431 1156 2273 1281 
Q 2116 1406 1581 1522 
L 1381 1569 
Q 847 1681 609 1914 
Q 372 2147 372 2553 
Q 372 3047 722 3315 
Q 1072 3584 1716 3584 
Q 2034 3584 2315 3537 
Q 2597 3491 2834 3397 
z
" transform="scale(0.015625)"/>
      </defs>
      <use xlink:href="#DejaVuSans-54"/>
      <use xlink:href="#DejaVuSans-6f" x="44.083984"/>
      <use xlink:href="#DejaVuSans-74" x="105.265625"/>
      <use xlink:href="#DejaVuSans-61" x="144.474609"/>
      <use xlink:href="#DejaVuSans-6c" x="205.753906"/>
      <use xlink:href="#DejaVuSans-20" x="233.537109"/>
      <use xlink:href="#DejaVuSans-47" x="265.324219"/>
      <use xlink:href="#DejaVuSans-69" x="342.814453"/>
      <use xlink:href="#DejaVuSans-74" x="370.597656"/>
      <use xlink:href="#DejaVuSans-48" x="409.806641"/>
      <use xlink:href="#DejaVuSans-75" x="485.001953"/>
      <use xlink:href="#DejaVuSans-62" x="548.380859"/>
      <use xlink:href="#DejaVuSans-20" x="611.857422"/>
      <use xlink:href="#DejaVuSans-43" x="643.644531"/>
      <use xlink:href="#DejaVuSans-6c" x="713.46875"/>
      <use xlink:href="#DejaVuSans-6f" x="741.251953"/>
      <use xlink:href="#DejaVuSans-6e" x="802.433594"/>
      <use xlink:href="#DejaVuSans-65" x="865.8125"/>
      <use xlink:href="#DejaVuSans-73" x="927.335938"/>
     </g>
    </g>
    <g id="line2d_14">
     <path d="M 99 62.336562 
L 109 62.336562 
L 119 62.336562 
" style="fill: none; stroke: #ff7f0e; stroke-width: 1.5; stroke-linecap: square"/>
    </g>
    <g id="text_13">
     <!-- Unique GitHub Clones -->
     <g transform="translate(127 65.836562)scale(0.1 -0.1)">
      <defs>
       <path id="DejaVuSans-55" d="M 556 4666 
L 1191 4666 
L 1191 1831 
Q 1191 1081 1462 751 
Q 1734 422 2344 422 
Q 2950 422 3222 751 
Q 3494 1081 3494 1831 
L 3494 4666 
L 4128 4666 
L 4128 1753 
Q 4128 841 3676 375 
Q 3225 -91 2344 -91 
Q 1459 -91 1007 375 
Q 556 841 556 1753 
L 556 4666 
z
" transform="scale(0.015625)"/>
       <path id="DejaVuSans-71" d="M 947 1747 
Q 947 1113 1208 752 
Q 1469 391 1925 391 
Q 2381 391 2643 752 
Q 2906 1113 2906 1747 
Q 2906 2381 2643 2742 
Q 2381 3103 1925 3103 
Q 1469 3103 1208 2742 
Q 947 2381 947 1747 
z
M 2906 525 
Q 2725 213 2448 61 
Q 2172 -91 1784 -91 
Q 1150 -91 751 415 
Q 353 922 353 1747 
Q 353 2572 751 3078 
Q 1150 3584 1784 3584 
Q 2172 3584 2448 3432 
Q 2725 3281 2906 2969 
L 2906 3500 
L 3481 3500 
L 3481 -1331 
L 2906 -1331 
L 2906 525 
z
" transform="scale(0.015625)"/>
      </defs>
      <use xlink:href="#DejaVuSans-55"/>
      <use xlink:href="#DejaVuSans-6e" x="73.193359"/>
      <use xlink:href="#DejaVuSans-69" x="136.572266"/>
      <use xlink:href="#DejaVuSans-71" x="164.355469"/>
      <use xlink:href="#DejaVuSans-75" x="227.832031"/>
      <use xlink:href="#DejaVuSans-65" x="291.210938"/>
      <use xlink:href="#DejaVuSans-20" x="352.734375"/>
      <use xlink:href="#DejaVuSans-47" x="384.521484"/>
      <use xlink:href="#DejaVuSans-69" x="462.011719"/>
      <use xlink:href="#DejaVuSans-74" x="489.794922"/>
      <use xlink:href="#DejaVuSans-48" x="529.003906"/>
      <use xlink:href="#DejaVuSans-75" x="604.199219"/>
      <use xlink:href="#DejaVuSans-62" x="667.578125"/>
      <use xlink:href="#DejaVuSans-20" x="731.054688"/>
      <use xlink:href="#DejaVuSans-43" x="762.841797"/>
      <use xlink:href="#DejaVuSans-6c" x="832.666016"/>
      <use xlink:href="#DejaVuSans-6f" x="860.449219"/>
      <use xlink:href="#DejaVuSans-6e" x="921.630859"/>
      <use xlink:href="#DejaVuSans-65" x="985.009766"/>
      <use xlink:href="#DejaVuSans-73" x="1046.533203"/>
     </g>
    </g>
   </g>
  </g>
  <g id="axes_2">
   <g id="patch_8">
    <path d="M 90 256.32 
L 648 256.32 
L 648 155.52 
L 90 155.52 
z
" style="fill: #ffffff"/>
   </g>
   <g id="matplotlib.axis_3">
    <g id="xtick_7">
     <g id="line2d_15">
      <g>
       <use xlink:href="#m5e1d7dad5d" x="115.363636" y="256.32" style="stroke: #000000; stroke-width: 0.8"/>
      </g>
     </g>
     <g id="text_14">
      <!-- 2020-10-21 -->
      <g transform="translate(86.305824 270.918437)scale(0.1 -0.1)">
       <use xlink:href="#DejaVuSans-32"/>
       <use xlink:href="#DejaVuSans-30" x="63.623047"/>
       <use xlink:href="#DejaVuSans-32" x="127.246094"/>
       <use xlink:href="#DejaVuSans-30" x="190.869141"/>
       <use xlink:href="#DejaVuSans-2d" x="254.492188"/>
       <use xlink:href="#DejaVuSans-31" x="290.576172"/>
       <use xlink:href="#DejaVuSans-30" x="354.199219"/>
       <use xlink:href="#DejaVuSans-2d" x="417.822266"/>
       <use xlink:href="#DejaVuSans-32" x="453.90625"/>
       <use xlink:href="#DejaVuSans-31" x="517.529297"/>
      </g>
     </g>
    </g>
    <g id="xtick_8">
     <g id="line2d_16">
      <g>
       <use xlink:href="#m5e1d7dad5d" x="189.6349" y="256.32" style="stroke: #000000; stroke-width: 0.8"/>
      </g>
     </g>
     <g id="text_15">
      <!-- 2021-01-31 -->
      <g transform="translate(160.577087 270.918437)scale(0.1 -0.1)">
       <use xlink:href="#DejaVuSans-32"/>
       <use xlink:href="#DejaVuSans-30" x="63.623047"/>
       <use xlink:href="#DejaVuSans-32" x="127.246094"/>
       <use xlink:href="#DejaVuSans-31" x="190.869141"/>
       <use xlink:href="#DejaVuSans-2d" x="254.492188"/>
       <use xlink:href="#DejaVuSans-30" x="290.576172"/>
       <use xlink:href="#DejaVuSans-31" x="354.199219"/>
       <use xlink:href="#DejaVuSans-2d" x="417.822266"/>
       <use xlink:href="#DejaVuSans-33" x="453.90625"/>
       <use xlink:href="#DejaVuSans-31" x="517.529297"/>
      </g>
     </g>
    </g>
    <g id="xtick_9">
     <g id="line2d_17">
      <g>
       <use xlink:href="#m5e1d7dad5d" x="263.906163" y="256.32" style="stroke: #000000; stroke-width: 0.8"/>
      </g>
     </g>
     <g id="text_16">
      <!-- 2021-05-11 -->
      <g transform="translate(234.84835 270.918437)scale(0.1 -0.1)">
       <defs>
        <path id="DejaVuSans-35" d="M 691 4666 
L 3169 4666 
L 3169 4134 
L 1269 4134 
L 1269 2991 
Q 1406 3038 1543 3061 
Q 1681 3084 1819 3084 
Q 2600 3084 3056 2656 
Q 3513 2228 3513 1497 
Q 3513 744 3044 326 
Q 2575 -91 1722 -91 
Q 1428 -91 1123 -41 
Q 819 9 494 109 
L 494 744 
Q 775 591 1075 516 
Q 1375 441 1709 441 
Q 2250 441 2565 725 
Q 2881 1009 2881 1497 
Q 2881 1984 2565 2268 
Q 2250 2553 1709 2553 
Q 1456 2553 1204 2497 
Q 953 2441 691 2322 
L 691 4666 
z
" transform="scale(0.015625)"/>
       </defs>
       <use xlink:href="#DejaVuSans-32"/>
       <use xlink:href="#DejaVuSans-30" x="63.623047"/>
       <use xlink:href="#DejaVuSans-32" x="127.246094"/>
       <use xlink:href="#DejaVuSans-31" x="190.869141"/>
       <use xlink:href="#DejaVuSans-2d" x="254.492188"/>
       <use xlink:href="#DejaVuSans-30" x="290.576172"/>
       <use xlink:href="#DejaVuSans-35" x="354.199219"/>
       <use xlink:href="#DejaVuSans-2d" x="417.822266"/>
       <use xlink:href="#DejaVuSans-31" x="453.90625"/>
       <use xlink:href="#DejaVuSans-31" x="517.529297"/>
      </g>
     </g>
    </g>
    <g id="xtick_10">
     <g id="line2d_18">
      <g>
       <use xlink:href="#m5e1d7dad5d" x="338.177426" y="256.32" style="stroke: #000000; stroke-width: 0.8"/>
      </g>
     </g>
     <g id="text_17">
      <!-- 2021-08-19 -->
      <g transform="translate(309.119613 270.918437)scale(0.1 -0.1)">
       <defs>
        <path id="DejaVuSans-39" d="M 703 97 
L 703 672 
Q 941 559 1184 500 
Q 1428 441 1663 441 
Q 2288 441 2617 861 
Q 2947 1281 2994 2138 
Q 2813 1869 2534 1725 
Q 2256 1581 1919 1581 
Q 1219 1581 811 2004 
Q 403 2428 403 3163 
Q 403 3881 828 4315 
Q 1253 4750 1959 4750 
Q 2769 4750 3195 4129 
Q 3622 3509 3622 2328 
Q 3622 1225 3098 567 
Q 2575 -91 1691 -91 
Q 1453 -91 1209 -44 
Q 966 3 703 97 
z
M 1959 2075 
Q 2384 2075 2632 2365 
Q 2881 2656 2881 3163 
Q 2881 3666 2632 3958 
Q 2384 4250 1959 4250 
Q 1534 4250 1286 3958 
Q 1038 3666 1038 3163 
Q 1038 2656 1286 2365 
Q 1534 2075 1959 2075 
z
" transform="scale(0.015625)"/>
       </defs>
       <use xlink:href="#DejaVuSans-32"/>
       <use xlink:href="#DejaVuSans-30" x="63.623047"/>
       <use xlink:href="#DejaVuSans-32" x="127.246094"/>
       <use xlink:href="#DejaVuSans-31" x="190.869141"/>
       <use xlink:href="#DejaVuSans-2d" x="254.492188"/>
       <use xlink:href="#DejaVuSans-30" x="290.576172"/>
       <use xlink:href="#DejaVuSans-38" x="354.199219"/>
       <use xlink:href="#DejaVuSans-2d" x="417.822266"/>
       <use xlink:href="#DejaVuSans-31" x="453.90625"/>
       <use xlink:href="#DejaVuSans-39" x="517.529297"/>
      </g>
     </g>
    </g>
    <g id="xtick_11">
     <g id="line2d_19">
      <g>
       <use xlink:href="#m5e1d7dad5d" x="412.448689" y="256.32" style="stroke: #000000; stroke-width: 0.8"/>
      </g>
     </g>
     <g id="text_18">
      <!-- 2021-11-28 -->
      <g transform="translate(383.390876 270.918437)scale(0.1 -0.1)">
       <use xlink:href="#DejaVuSans-32"/>
       <use xlink:href="#DejaVuSans-30" x="63.623047"/>
       <use xlink:href="#DejaVuSans-32" x="127.246094"/>
       <use xlink:href="#DejaVuSans-31" x="190.869141"/>
       <use xlink:href="#DejaVuSans-2d" x="254.492188"/>
       <use xlink:href="#DejaVuSans-31" x="290.576172"/>
       <use xlink:href="#DejaVuSans-31" x="354.199219"/>
       <use xlink:href="#DejaVuSans-2d" x="417.822266"/>
       <use xlink:href="#DejaVuSans-32" x="453.90625"/>
       <use xlink:href="#DejaVuSans-38" x="517.529297"/>
      </g>
     </g>
    </g>
    <g id="xtick_12">
     <g id="line2d_20">
      <g>
       <use xlink:href="#m5e1d7dad5d" x="486.719952" y="256.32" style="stroke: #000000; stroke-width: 0.8"/>
      </g>
     </g>
     <g id="text_19">
      <!-- 2022-03-10 -->
      <g transform="translate(457.66214 270.918437)scale(0.1 -0.1)">
       <use xlink:href="#DejaVuSans-32"/>
       <use xlink:href="#DejaVuSans-30" x="63.623047"/>
       <use xlink:href="#DejaVuSans-32" x="127.246094"/>
       <use xlink:href="#DejaVuSans-32" x="190.869141"/>
       <use xlink:href="#DejaVuSans-2d" x="254.492188"/>
       <use xlink:href="#DejaVuSans-30" x="290.576172"/>
       <use xlink:href="#DejaVuSans-33" x="354.199219"/>
       <use xlink:href="#DejaVuSans-2d" x="417.822266"/>
       <use xlink:href="#DejaVuSans-31" x="453.90625"/>
       <use xlink:href="#DejaVuSans-30" x="517.529297"/>
      </g>
     </g>
    </g>
    <g id="xtick_13">
     <g id="line2d_21">
      <g>
       <use xlink:href="#m5e1d7dad5d" x="560.991215" y="256.32" style="stroke: #000000; stroke-width: 0.8"/>
      </g>
     </g>
     <g id="text_20">
      <!-- 2022-06-19 -->
      <g transform="translate(531.933403 270.918437)scale(0.1 -0.1)">
       <defs>
        <path id="DejaVuSans-36" d="M 2113 2584 
Q 1688 2584 1439 2293 
Q 1191 2003 1191 1497 
Q 1191 994 1439 701 
Q 1688 409 2113 409 
Q 2538 409 2786 701 
Q 3034 994 3034 1497 
Q 3034 2003 2786 2293 
Q 2538 2584 2113 2584 
z
M 3366 4563 
L 3366 3988 
Q 3128 4100 2886 4159 
Q 2644 4219 2406 4219 
Q 1781 4219 1451 3797 
Q 1122 3375 1075 2522 
Q 1259 2794 1537 2939 
Q 1816 3084 2150 3084 
Q 2853 3084 3261 2657 
Q 3669 2231 3669 1497 
Q 3669 778 3244 343 
Q 2819 -91 2113 -91 
Q 1303 -91 875 529 
Q 447 1150 447 2328 
Q 447 3434 972 4092 
Q 1497 4750 2381 4750 
Q 2619 4750 2861 4703 
Q 3103 4656 3366 4563 
z
" transform="scale(0.015625)"/>
       </defs>
       <use xlink:href="#DejaVuSans-32"/>
       <use xlink:href="#DejaVuSans-30" x="63.623047"/>
       <use xlink:href="#DejaVuSans-32" x="127.246094"/>
       <use xlink:href="#DejaVuSans-32" x="190.869141"/>
       <use xlink:href="#DejaVuSans-2d" x="254.492188"/>
       <use xlink:href="#DejaVuSans-30" x="290.576172"/>
       <use xlink:href="#DejaVuSans-36" x="354.199219"/>
       <use xlink:href="#DejaVuSans-2d" x="417.822266"/>
       <use xlink:href="#DejaVuSans-31" x="453.90625"/>
       <use xlink:href="#DejaVuSans-39" x="517.529297"/>
      </g>
     </g>
    </g>
    <g id="xtick_14">
     <g id="line2d_22">
      <g>
       <use xlink:href="#m5e1d7dad5d" x="635.262478" y="256.32" style="stroke: #000000; stroke-width: 0.8"/>
      </g>
     </g>
    </g>
    <g id="text_21">
     <!-- _date -->
     <g transform="translate(355.225 284.596563)scale(0.1 -0.1)">
      <use xlink:href="#DejaVuSans-5f"/>
      <use xlink:href="#DejaVuSans-64" x="50"/>
      <use xlink:href="#DejaVuSans-61" x="113.476562"/>
      <use xlink:href="#DejaVuSans-74" x="174.755859"/>
      <use xlink:href="#DejaVuSans-65" x="213.964844"/>
     </g>
    </g>
   </g>
   <g id="matplotlib.axis_4">
    <g id="ytick_5">
     <g id="line2d_23">
      <g>
       <use xlink:href="#mb773876f29" x="90" y="252.006124" style="stroke: #000000; stroke-width: 0.8"/>
      </g>
     </g>
     <g id="text_22">
      <!-- 0 -->
      <g transform="translate(76.6375 255.805343)scale(0.1 -0.1)">
       <use xlink:href="#DejaVuSans-30"/>
      </g>
     </g>
    </g>
    <g id="ytick_6">
     <g id="line2d_24">
      <g>
       <use xlink:href="#mb773876f29" x="90" y="225.211866" style="stroke: #000000; stroke-width: 0.8"/>
      </g>
     </g>
     <g id="text_23">
      <!-- 100 -->
      <g transform="translate(63.9125 229.011085)scale(0.1 -0.1)">
       <use xlink:href="#DejaVuSans-31"/>
       <use xlink:href="#DejaVuSans-30" x="63.623047"/>
       <use xlink:href="#DejaVuSans-30" x="127.246094"/>
      </g>
     </g>
    </g>
    <g id="ytick_7">
     <g id="line2d_25">
      <g>
       <use xlink:href="#mb773876f29" x="90" y="198.417608" style="stroke: #000000; stroke-width: 0.8"/>
      </g>
     </g>
     <g id="text_24">
      <!-- 200 -->
      <g transform="translate(63.9125 202.216826)scale(0.1 -0.1)">
       <use xlink:href="#DejaVuSans-32"/>
       <use xlink:href="#DejaVuSans-30" x="63.623047"/>
       <use xlink:href="#DejaVuSans-30" x="127.246094"/>
      </g>
     </g>
    </g>
    <g id="ytick_8">
     <g id="line2d_26">
      <g>
       <use xlink:href="#mb773876f29" x="90" y="171.623349" style="stroke: #000000; stroke-width: 0.8"/>
      </g>
     </g>
     <g id="text_25">
      <!-- 300 -->
      <g transform="translate(63.9125 175.422568)scale(0.1 -0.1)">
       <use xlink:href="#DejaVuSans-33"/>
       <use xlink:href="#DejaVuSans-30" x="63.623047"/>
       <use xlink:href="#DejaVuSans-30" x="127.246094"/>
      </g>
     </g>
    </g>
   </g>
   <g id="line2d_27">
    <path d="M 115.363636 251.738182 
L 116.106349 231.910431 
L 116.849062 229.498947 
L 117.591774 244.771675 
L 118.334487 251.470239 
L 119.0772 239.412823 
L 119.819912 239.14488 
L 120.562625 235.393684 
L 121.305337 239.14488 
L 122.04805 239.948708 
L 122.790763 250.666411 
L 123.533475 248.522871 
L 124.276188 247.719043 
L 125.018901 239.948708 
L 125.761613 213.690335 
L 126.504326 227.355407 
L 127.247038 244.235789 
L 127.989751 247.4511 
L 128.732464 251.202297 
L 130.217889 225.747751 
L 130.960602 246.111388 
L 131.703314 243.699904 
L 132.446027 237.537225 
L 133.18874 237.537225 
L 133.931452 249.862584 
L 134.674165 237.805167 
L 135.416877 234.321914 
L 136.15959 243.967847 
L 136.902303 243.967847 
L 137.645015 239.412823 
L 138.387728 247.183158 
L 139.130441 249.326699 
L 139.873153 227.623349 
L 140.615866 249.058756 
L 141.358578 248.254928 
L 142.101291 249.862584 
L 142.844004 247.986986 
L 143.586716 251.470239 
L 144.329429 251.470239 
L 145.072142 229.231005 
L 145.814854 217.173589 
L 146.557567 244.235789 
L 147.30028 245.575502 
L 148.042992 227.891292 
L 148.785705 250.934354 
L 149.528417 245.30756 
L 150.27113 242.092249 
L 151.013843 246.37933 
L 151.756555 237.00134 
L 152.499268 247.183158 
L 153.241981 250.934354 
L 153.984693 251.738182 
L 154.727406 244.235789 
L 155.470118 242.628134 
L 156.212831 242.896077 
L 156.955544 241.556364 
L 157.698256 249.058756 
L 158.440969 250.934354 
L 159.183682 250.666411 
L 159.926394 247.4511 
L 160.669107 247.986986 
L 161.41182 243.164019 
L 162.154532 250.130526 
L 162.897245 251.202297 
L 163.639957 251.470239 
L 164.38267 248.522871 
L 165.125383 249.594641 
L 165.868095 250.398469 
L 166.610808 251.738182 
L 167.353521 247.4511 
L 168.096233 247.719043 
L 168.838946 250.934354 
L 169.581658 246.647273 
L 170.324371 243.164019 
L 171.067084 240.752536 
L 171.809796 247.986986 
L 172.552509 249.058756 
L 173.295222 233.518086 
L 174.037934 250.398469 
L 174.780647 235.125742 
L 175.52336 236.733397 
L 176.266072 240.752536 
L 177.008785 234.589856 
L 177.751497 247.183158 
L 178.49421 235.929569 
L 179.236923 251.202297 
L 179.979635 234.857799 
L 180.722348 236.197512 
L 181.465061 228.159234 
L 182.207773 233.786029 
L 182.950486 240.752536 
L 183.693198 243.431962 
L 184.435911 248.522871 
L 185.178624 230.302775 
L 185.921336 226.015694 
L 186.664049 237.269282 
L 187.406762 235.929569 
L 188.149474 233.518086 
L 188.892187 247.719043 
L 189.6349 248.790813 
L 190.377612 231.374545 
L 191.120325 247.183158 
L 192.60575 234.321914 
L 194.091175 250.934354 
L 194.833888 247.986986 
L 195.576601 236.465455 
L 196.319313 235.929569 
L 197.062026 226.819522 
L 197.804738 242.628134 
L 198.547451 250.398469 
L 199.290164 250.666411 
L 200.032876 249.326699 
L 200.775589 243.164019 
L 201.518302 243.431962 
L 202.261014 247.183158 
L 203.003727 232.178373 
L 203.74644 248.522871 
L 204.489152 242.628134 
L 205.231865 239.948708 
L 205.974577 241.556364 
L 206.71729 227.087464 
L 207.460003 236.733397 
L 208.202715 235.929569 
L 208.945428 240.752536 
L 209.688141 239.14488 
L 210.430853 240.216651 
L 211.173566 187.431962 
L 211.916278 246.111388 
L 212.658991 232.178373 
L 213.401704 235.661627 
L 214.144416 228.427177 
L 214.887129 242.360191 
L 215.629842 202.972632 
L 216.372554 201.364976 
L 217.115267 206.99177 
L 217.85798 230.570718 
L 218.600692 178.321914 
L 219.343405 225.211866 
L 220.086117 246.37933 
L 220.82883 245.575502 
L 221.571543 238.341053 
L 222.314255 232.446316 
L 223.056968 229.231005 
L 223.799681 235.661627 
L 224.542393 225.479809 
L 225.285106 244.235789 
L 226.027818 246.111388 
L 226.770531 208.063541 
L 227.513244 233.786029 
L 228.255956 235.393684 
L 228.998669 246.647273 
L 229.741382 248.790813 
L 230.484094 248.254928 
L 231.226807 234.053971 
L 231.969519 187.967847 
L 232.712232 231.106603 
L 233.454945 235.393684 
L 234.197657 216.369761 
L 234.94037 244.771675 
L 235.683083 248.522871 
L 236.425795 245.30756 
L 237.168508 223.604211 
L 237.911221 239.412823 
L 238.653933 224.943923 
L 239.396646 203.240574 
L 240.139358 234.857799 
L 240.882071 241.824306 
L 241.624784 246.37933 
L 242.367496 180.465455 
L 243.110209 228.963062 
L 243.852922 243.967847 
L 244.595634 236.197512 
L 245.338347 237.537225 
L 246.081059 249.058756 
L 246.823772 247.183158 
L 247.566485 191.183158 
L 248.309197 184.752536 
L 249.05191 201.364976 
L 249.794623 243.431962 
L 250.537335 249.326699 
L 251.280048 237.537225 
L 252.022761 247.719043 
L 253.508186 226.015694 
L 254.250898 167.336268 
L 254.993611 223.872153 
L 255.736324 223.068325 
L 256.479036 227.623349 
L 257.221749 245.843445 
L 257.964462 246.647273 
L 258.707174 221.996555 
L 259.449887 237.00134 
L 260.192599 236.733397 
L 260.935312 227.891292 
L 261.678025 243.699904 
L 262.420737 249.326699 
L 263.16345 201.097033 
L 263.906163 238.07311 
L 264.648875 215.030048 
L 265.391588 209.135311 
L 266.134301 215.565933 
L 266.877013 249.862584 
L 267.619726 249.862584 
L 268.362438 224.140096 
L 269.105151 234.053971 
L 269.847864 233.518086 
L 270.590576 239.680766 
L 271.333289 243.164019 
L 272.076002 248.522871 
L 272.818714 246.37933 
L 273.561427 227.355407 
L 274.304139 244.503732 
L 275.046852 241.020478 
L 275.789565 233.250144 
L 276.532277 239.412823 
L 277.27499 249.862584 
L 278.017703 249.862584 
L 278.760415 243.431962 
L 279.503128 240.752536 
L 280.245841 246.647273 
L 280.988553 241.824306 
L 281.731266 243.967847 
L 282.473978 249.326699 
L 283.216691 247.719043 
L 283.959404 232.178373 
L 284.702116 237.269282 
L 285.444829 172.69512 
L 286.187542 215.833876 
L 286.930254 244.503732 
L 287.672967 242.628134 
L 288.415679 250.130526 
L 289.158392 233.250144 
L 289.901105 235.125742 
L 290.643817 242.360191 
L 291.38653 241.556364 
L 292.129243 236.465455 
L 292.871955 249.862584 
L 293.614668 250.398469 
L 294.357381 196.274067 
L 295.100093 239.948708 
L 295.842806 245.30756 
L 296.585518 247.4511 
L 297.328231 204.312344 
L 298.070944 247.4511 
L 298.813656 248.254928 
L 300.299082 242.360191 
L 301.041794 242.628134 
L 301.784507 225.479809 
L 302.527219 244.771675 
L 303.269932 249.862584 
L 304.012645 243.967847 
L 304.755357 245.575502 
L 305.49807 183.948708 
L 306.240783 200.293206 
L 306.983495 241.020478 
L 308.468921 245.039617 
L 309.211633 244.503732 
L 309.954346 232.714258 
L 310.697058 242.628134 
L 311.439771 243.699904 
L 312.182484 223.872153 
L 312.925196 239.948708 
L 313.667909 250.398469 
L 314.410622 251.738182 
L 315.153334 245.039617 
L 315.896047 245.575502 
L 316.638759 246.915215 
L 317.381472 243.967847 
L 318.124185 246.37933 
L 318.866897 249.594641 
L 319.60961 251.202297 
L 320.352323 243.967847 
L 321.095035 243.699904 
L 321.837748 231.910431 
L 322.580461 230.302775 
L 323.323173 250.666411 
L 324.065886 246.37933 
L 324.808598 251.738182 
L 325.551311 239.680766 
L 326.294024 240.752536 
L 327.036736 243.164019 
L 327.779449 240.484593 
L 328.522162 248.522871 
L 329.264874 245.843445 
L 330.007587 250.130526 
L 330.750299 237.537225 
L 331.493012 239.412823 
L 332.235725 244.235789 
L 332.978437 241.288421 
L 333.72115 232.446316 
L 334.463863 242.360191 
L 335.206575 248.522871 
L 335.949288 233.518086 
L 336.692001 250.398469 
L 337.434713 246.111388 
L 338.177426 244.503732 
L 338.920138 251.202297 
L 339.662851 250.934354 
L 340.405564 245.039617 
L 341.148276 245.575502 
L 341.890989 233.250144 
L 342.633702 231.642488 
L 343.376414 249.058756 
L 344.119127 249.862584 
L 344.861839 250.398469 
L 345.604552 242.628134 
L 346.347265 228.159234 
L 347.089977 236.465455 
L 347.83269 236.197512 
L 348.575403 245.30756 
L 349.318115 249.862584 
L 350.060828 245.843445 
L 350.803541 246.647273 
L 351.546253 249.862584 
L 352.288966 237.269282 
L 353.031678 247.719043 
L 353.774391 242.628134 
L 354.517104 226.015694 
L 355.259816 250.934354 
L 356.002529 248.254928 
L 356.745242 233.786029 
L 357.487954 216.905646 
L 358.230667 236.733397 
L 358.973379 248.254928 
L 359.716092 247.719043 
L 360.458805 250.398469 
L 361.201517 246.647273 
L 361.94423 232.178373 
L 362.686943 230.570718 
L 363.429655 221.46067 
L 364.172368 233.786029 
L 364.915081 248.522871 
L 365.657793 251.470239 
L 366.400506 248.522871 
L 367.143218 249.862584 
L 367.885931 239.948708 
L 368.628644 189.575502 
L 369.371356 229.498947 
L 370.114069 242.628134 
L 370.856782 241.020478 
L 371.599494 230.83866 
L 372.342207 230.83866 
L 373.084919 220.924785 
L 373.827632 198.417608 
L 374.570345 217.441531 
L 375.313057 246.37933 
L 376.05577 250.666411 
L 376.798483 224.675981 
L 377.541195 228.159234 
L 378.283908 212.618565 
L 379.026621 240.216651 
L 379.769333 236.197512 
L 380.512046 246.111388 
L 381.254758 248.254928 
L 381.997471 215.565933 
L 382.740184 238.608995 
L 383.482896 249.594641 
L 384.225609 223.604211 
L 384.968322 164.924785 
L 385.711034 240.484593 
L 386.453747 235.929569 
L 387.196459 227.891292 
L 387.939172 228.963062 
L 388.681885 242.896077 
L 389.424597 232.446316 
L 390.16731 238.876938 
L 390.910023 246.915215 
L 391.652735 245.843445 
L 392.395448 235.929569 
L 393.138161 249.058756 
L 393.880873 243.431962 
L 394.623586 229.498947 
L 396.109011 250.934354 
L 396.851724 250.130526 
L 397.594436 245.039617 
L 398.337149 231.642488 
L 399.079862 240.752536 
L 399.822574 247.183158 
L 400.565287 247.986986 
L 401.307999 247.986986 
L 402.050712 248.790813 
L 402.793425 239.412823 
L 403.536137 235.661627 
L 404.27885 243.967847 
L 405.764275 237.537225 
L 406.506988 250.130526 
L 407.249701 249.862584 
L 407.992413 234.589856 
L 408.735126 232.982201 
L 409.477838 245.575502 
L 410.963264 250.934354 
L 411.705976 248.522871 
L 412.448689 247.719043 
L 413.191402 244.503732 
L 413.934114 228.69512 
L 414.676827 238.341053 
L 415.419539 238.876938 
L 416.162252 226.819522 
L 416.904965 249.862584 
L 417.647677 228.159234 
L 418.39039 237.269282 
L 419.133103 202.972632 
L 419.875815 239.948708 
L 420.618528 221.996555 
L 421.361241 247.4511 
L 422.103953 248.254928 
L 422.846666 230.034833 
L 423.589378 208.599426 
L 424.332091 234.589856 
L 425.074804 237.269282 
L 425.817516 243.431962 
L 426.560229 233.250144 
L 427.302942 249.058756 
L 428.045654 217.173589 
L 428.788367 235.929569 
L 429.531079 239.948708 
L 430.273792 242.628134 
L 431.016505 242.896077 
L 431.759217 246.915215 
L 432.50193 249.058756 
L 433.244643 245.843445 
L 433.987355 248.790813 
L 434.730068 250.934354 
L 435.472781 249.594641 
L 436.215493 249.326699 
L 436.958206 246.915215 
L 437.700918 217.709474 
L 439.186344 242.092249 
L 439.929056 243.164019 
L 440.671769 249.862584 
L 441.414482 250.934354 
L 442.157194 251.738182 
L 443.642619 236.733397 
L 444.385332 241.288421 
L 445.128045 219.585072 
L 445.870757 246.915215 
L 446.61347 246.111388 
L 447.356183 250.934354 
L 448.098895 247.719043 
L 448.841608 239.412823 
L 449.584321 244.771675 
L 450.327033 242.092249 
L 451.069746 245.843445 
L 451.812458 250.666411 
L 452.555171 250.130526 
L 453.297884 219.585072 
L 454.040596 220.120957 
L 454.783309 235.929569 
L 455.526022 247.719043 
L 456.268734 217.441531 
L 457.011447 246.915215 
L 457.754159 235.929569 
L 458.496872 212.886507 
L 459.239585 238.07311 
L 459.982297 209.939139 
L 460.72501 198.68555 
L 461.467723 232.714258 
L 462.210435 250.666411 
L 462.953148 249.862584 
L 463.695861 196.809952 
L 464.438573 208.867368 
L 465.181286 223.872153 
L 465.923998 224.675981 
L 466.666711 179.125742 
L 467.409424 243.967847 
L 468.152136 245.575502 
L 468.894849 217.441531 
L 469.637562 226.015694 
L 470.380274 242.628134 
L 471.122987 240.752536 
L 471.865699 226.283636 
L 472.608412 247.719043 
L 473.351125 249.862584 
L 474.093837 225.747751 
L 474.83655 235.929569 
L 475.579263 223.336268 
L 476.321975 232.178373 
L 477.064688 216.369761 
L 477.807401 239.680766 
L 478.550113 248.254928 
L 479.292826 222.264498 
L 480.035538 228.427177 
L 480.778251 231.910431 
L 481.520964 227.623349 
L 482.263676 185.824306 
L 483.006389 223.872153 
L 483.749102 241.288421 
L 484.491814 160.101818 
L 485.234527 200.829091 
L 485.977239 224.943923 
L 486.719952 241.288421 
L 487.462665 239.680766 
L 488.205377 243.967847 
L 488.94809 247.4511 
L 489.690803 211.814737 
L 490.433515 223.068325 
L 491.176228 209.671196 
L 491.918941 213.15445 
L 492.661653 225.211866 
L 493.404366 250.130526 
L 494.147078 249.594641 
L 494.889791 213.422392 
L 495.632504 235.661627 
L 496.375216 222.53244 
L 497.117929 230.570718 
L 497.860642 235.393684 
L 498.603354 242.896077 
L 499.346067 247.719043 
L 500.088779 229.76689 
L 500.831492 236.197512 
L 501.574205 216.637703 
L 502.316917 214.22622 
L 503.05963 242.896077 
L 503.802343 249.058756 
L 504.545055 251.738182 
L 505.287768 239.680766 
L 506.030481 237.805167 
L 506.773193 243.699904 
L 507.515906 235.661627 
L 508.258618 244.235789 
L 509.001331 249.326699 
L 509.744044 250.130526 
L 511.229469 234.589856 
L 511.972182 247.986986 
L 512.714894 247.986986 
L 513.457607 243.967847 
L 514.200319 240.752536 
L 514.943032 229.498947 
L 515.685745 239.14488 
L 516.428457 238.608995 
L 517.17117 246.37933 
L 518.656595 247.4511 
L 519.399308 250.398469 
L 520.14202 248.790813 
L 521.627446 232.178373 
L 522.370158 234.857799 
L 523.112871 242.896077 
L 523.855584 235.661627 
L 524.598296 249.862584 
L 525.341009 251.470239 
L 526.083722 243.699904 
L 526.826434 246.37933 
L 527.569147 233.786029 
L 528.311859 213.15445 
L 529.054572 244.235789 
L 529.797285 250.666411 
L 530.539997 249.326699 
L 531.28271 240.484593 
L 532.025423 236.733397 
L 532.768135 239.412823 
L 533.510848 238.341053 
L 534.25356 234.857799 
L 534.996273 250.934354 
L 535.738986 241.288421 
L 536.481698 228.159234 
L 537.224411 226.819522 
L 537.967124 245.575502 
L 538.709836 248.254928 
L 539.452549 211.278852 
L 540.195262 247.986986 
L 540.937974 250.666411 
L 541.680687 227.891292 
L 542.423399 246.111388 
L 543.166112 221.192727 
L 543.908825 229.498947 
L 544.651537 246.111388 
L 545.39425 251.470239 
L 546.136963 251.470239 
L 546.879675 249.862584 
L 547.622388 244.503732 
L 548.3651 245.843445 
L 549.107813 243.431962 
L 549.850526 251.470239 
L 550.593238 249.862584 
L 551.335951 251.738182 
L 552.078664 245.575502 
L 552.821376 247.986986 
L 553.564089 244.771675 
L 554.306802 243.164019 
L 555.049514 250.666411 
L 555.792227 251.202297 
L 556.534939 241.020478 
L 557.277652 220.656842 
L 558.020365 245.843445 
L 558.763077 246.111388 
L 559.50579 240.484593 
L 560.248503 248.254928 
L 560.991215 251.470239 
L 561.733928 247.4511 
L 562.47664 241.556364 
L 563.219353 243.699904 
L 563.962066 244.235789 
L 564.704778 249.326699 
L 565.447491 251.470239 
L 566.190204 251.202297 
L 566.932916 243.164019 
L 567.675629 243.967847 
L 568.418342 247.4511 
L 569.161054 237.537225 
L 569.903767 249.058756 
L 570.646479 250.934354 
L 571.389192 248.790813 
L 572.131905 250.934354 
L 572.874617 239.14488 
L 574.360043 227.623349 
L 575.102755 228.427177 
L 575.845468 247.719043 
L 576.58818 249.594641 
L 577.330893 221.728612 
L 578.073606 238.07311 
L 578.816318 246.647273 
L 579.559031 243.699904 
L 580.301744 234.589856 
L 581.044456 251.202297 
L 581.787169 246.111388 
L 582.529882 238.876938 
L 583.272594 247.4511 
L 584.015307 228.159234 
L 584.758019 234.321914 
L 585.500732 250.934354 
L 586.243445 251.470239 
L 586.986157 250.130526 
L 587.72887 239.948708 
L 588.471583 241.556364 
L 589.214295 248.790813 
L 589.957008 231.106603 
L 590.69972 249.594641 
L 591.442433 251.470239 
L 592.185146 249.058756 
L 592.927858 249.058756 
L 593.670571 241.020478 
L 594.413284 247.183158 
L 595.155996 241.288421 
L 595.898709 249.326699 
L 596.641422 251.738182 
L 597.384134 248.254928 
L 598.126847 227.087464 
L 598.869559 246.915215 
L 599.612272 241.824306 
L 600.354985 247.719043 
L 601.097697 249.862584 
L 601.84041 251.470239 
L 602.583123 244.771675 
L 603.325835 215.833876 
L 604.068548 249.862584 
L 604.81126 226.551579 
L 605.553973 243.164019 
L 606.296686 251.738182 
L 607.039398 251.470239 
L 607.782111 250.130526 
L 608.524824 248.254928 
L 609.267536 238.876938 
L 610.010249 242.092249 
L 610.752962 203.240574 
L 611.495674 249.862584 
L 612.238387 249.326699 
L 613.723812 212.082679 
L 614.466525 237.805167 
L 615.209237 246.647273 
L 615.95195 247.4511 
L 616.694663 250.666411 
L 617.437375 250.934354 
L 618.180088 249.594641 
L 618.9228 237.00134 
L 619.665513 245.575502 
L 620.408226 219.317129 
L 621.150938 237.00134 
L 621.893651 240.216651 
L 622.636364 251.202297 
L 622.636364 251.202297 
" clip-path="url(#p182cc69bf5)" style="fill: none; stroke: #1f77b4; stroke-width: 1.5; stroke-linecap: square"/>
   </g>
   <g id="line2d_28">
    <path d="M 115.363636 251.738182 
L 116.106349 249.594641 
L 116.849062 248.522871 
L 117.591774 249.594641 
L 118.334487 251.738182 
L 119.0772 250.130526 
L 119.819912 249.326699 
L 120.562625 249.326699 
L 121.305337 249.058756 
L 122.04805 249.594641 
L 122.790763 251.470239 
L 125.761613 249.326699 
L 126.504326 249.058756 
L 127.247038 250.130526 
L 128.732464 251.738182 
L 129.475176 249.058756 
L 130.217889 249.594641 
L 130.960602 250.666411 
L 131.703314 250.934354 
L 132.446027 250.666411 
L 133.18874 251.470239 
L 133.931452 251.202297 
L 134.674165 250.130526 
L 135.416877 251.202297 
L 136.15959 249.058756 
L 136.902303 249.862584 
L 137.645015 250.398469 
L 138.387728 251.202297 
L 139.130441 251.202297 
L 139.873153 247.719043 
L 140.615866 251.470239 
L 141.358578 251.470239 
L 142.101291 251.202297 
L 143.586716 251.738182 
L 144.329429 251.470239 
L 145.072142 249.594641 
L 145.814854 247.183158 
L 146.557567 248.790813 
L 147.30028 250.130526 
L 148.042992 250.130526 
L 148.785705 251.470239 
L 149.528417 250.398469 
L 150.27113 250.130526 
L 151.013843 250.934354 
L 151.756555 247.986986 
L 152.499268 249.594641 
L 153.241981 251.470239 
L 153.984693 251.738182 
L 154.727406 249.326699 
L 156.212831 249.326699 
L 156.955544 250.130526 
L 157.698256 250.398469 
L 158.440969 251.202297 
L 159.183682 251.470239 
L 159.926394 250.934354 
L 160.669107 250.666411 
L 161.41182 251.202297 
L 162.897245 251.202297 
L 163.639957 251.470239 
L 164.38267 250.934354 
L 165.868095 250.934354 
L 166.610808 251.738182 
L 167.353521 251.202297 
L 168.096233 251.202297 
L 168.838946 250.934354 
L 169.581658 249.862584 
L 170.324371 248.254928 
L 171.067084 250.130526 
L 171.809796 251.202297 
L 172.552509 250.934354 
L 173.295222 250.934354 
L 174.037934 251.202297 
L 174.780647 249.594641 
L 175.52336 248.790813 
L 176.266072 249.862584 
L 177.008785 247.183158 
L 177.751497 249.862584 
L 178.49421 250.398469 
L 179.236923 251.202297 
L 179.979635 250.666411 
L 180.722348 250.666411 
L 181.465061 248.522871 
L 182.207773 249.594641 
L 182.950486 249.326699 
L 183.693198 249.326699 
L 184.435911 250.398469 
L 185.178624 246.37933 
L 185.921336 247.986986 
L 186.664049 249.326699 
L 187.406762 247.719043 
L 188.149474 246.647273 
L 188.892187 250.934354 
L 189.6349 250.666411 
L 190.377612 248.790813 
L 191.120325 250.130526 
L 191.863037 248.254928 
L 192.60575 249.594641 
L 193.348463 249.594641 
L 194.091175 250.934354 
L 194.833888 251.202297 
L 195.576601 249.058756 
L 196.319313 248.254928 
L 197.062026 248.522871 
L 197.804738 250.934354 
L 198.547451 251.470239 
L 200.032876 250.934354 
L 200.775589 250.934354 
L 201.518302 249.594641 
L 202.261014 250.398469 
L 203.003727 249.058756 
L 203.74644 250.934354 
L 204.489152 250.398469 
L 205.231865 250.934354 
L 205.974577 249.326699 
L 206.71729 249.058756 
L 207.460003 249.058756 
L 208.202715 248.254928 
L 208.945428 250.398469 
L 209.688141 250.934354 
L 210.430853 250.934354 
L 211.173566 242.896077 
L 211.916278 249.058756 
L 212.658991 249.058756 
L 213.401704 247.719043 
L 214.144416 249.326699 
L 214.887129 250.666411 
L 215.629842 250.666411 
L 216.372554 246.647273 
L 217.115267 246.915215 
L 217.85798 248.522871 
L 218.600692 246.915215 
L 219.343405 247.719043 
L 220.086117 250.130526 
L 220.82883 250.934354 
L 221.571543 247.719043 
L 222.314255 246.37933 
L 223.056968 247.4511 
L 223.799681 247.719043 
L 225.285106 251.202297 
L 226.027818 250.130526 
L 226.770531 247.986986 
L 227.513244 247.986986 
L 228.255956 248.790813 
L 228.998669 250.666411 
L 230.484094 251.202297 
L 231.226807 250.130526 
L 231.969519 246.647273 
L 232.712232 247.4511 
L 233.454945 248.790813 
L 234.197657 247.183158 
L 234.94037 249.862584 
L 235.683083 251.202297 
L 237.168508 249.594641 
L 237.911221 248.522871 
L 238.653933 248.790813 
L 239.396646 247.719043 
L 240.139358 249.326699 
L 240.882071 249.594641 
L 241.624784 250.934354 
L 242.367496 245.843445 
L 243.110209 248.254928 
L 243.852922 249.058756 
L 244.595634 249.326699 
L 245.338347 249.326699 
L 246.081059 250.934354 
L 246.823772 250.398469 
L 247.566485 246.111388 
L 248.309197 244.771675 
L 249.05191 247.183158 
L 249.794623 249.058756 
L 250.537335 250.398469 
L 251.280048 249.326699 
L 252.022761 250.398469 
L 252.765473 246.647273 
L 253.508186 246.915215 
L 254.250898 230.302775 
L 254.993611 248.254928 
L 255.736324 246.915215 
L 256.479036 250.666411 
L 257.221749 251.738182 
L 257.964462 249.862584 
L 258.707174 248.522871 
L 259.449887 248.522871 
L 260.192599 248.790813 
L 260.935312 247.986986 
L 262.420737 251.202297 
L 263.16345 249.326699 
L 263.906163 248.522871 
L 264.648875 247.183158 
L 265.391588 247.4511 
L 266.134301 246.111388 
L 266.877013 250.666411 
L 267.619726 251.738182 
L 268.362438 246.111388 
L 269.105151 247.4511 
L 269.847864 249.594641 
L 270.590576 247.719043 
L 271.333289 248.522871 
L 272.076002 251.470239 
L 272.818714 250.398469 
L 273.561427 248.522871 
L 274.304139 249.594641 
L 275.046852 248.254928 
L 275.789565 246.647273 
L 277.27499 250.934354 
L 278.017703 251.202297 
L 278.760415 249.326699 
L 279.503128 247.986986 
L 280.245841 250.130526 
L 280.988553 249.594641 
L 281.731266 249.594641 
L 283.216691 250.130526 
L 283.959404 247.183158 
L 284.702116 249.058756 
L 285.444829 249.058756 
L 286.187542 250.130526 
L 286.930254 249.326699 
L 287.672967 251.202297 
L 288.415679 250.398469 
L 289.158392 248.522871 
L 289.901105 249.326699 
L 290.643817 249.058756 
L 291.38653 248.522871 
L 292.129243 249.326699 
L 292.871955 251.202297 
L 293.614668 250.934354 
L 294.357381 247.719043 
L 295.100093 250.666411 
L 295.842806 249.862584 
L 296.585518 249.326699 
L 297.328231 246.111388 
L 298.070944 251.202297 
L 298.813656 250.666411 
L 299.556369 249.862584 
L 300.299082 250.398469 
L 301.041794 249.058756 
L 301.784507 248.254928 
L 302.527219 249.326699 
L 303.269932 250.934354 
L 304.012645 250.934354 
L 304.755357 249.594641 
L 305.49807 247.4511 
L 306.240783 247.4511 
L 306.983495 250.398469 
L 307.726208 248.790813 
L 308.468921 250.666411 
L 309.211633 249.594641 
L 309.954346 247.986986 
L 310.697058 248.790813 
L 311.439771 248.790813 
L 312.182484 247.986986 
L 312.925196 248.254928 
L 313.667909 251.202297 
L 314.410622 251.738182 
L 315.153334 250.130526 
L 315.896047 250.130526 
L 316.638759 250.398469 
L 317.381472 250.398469 
L 318.124185 250.666411 
L 319.60961 251.738182 
L 320.352323 250.398469 
L 321.095035 249.594641 
L 321.837748 249.862584 
L 322.580461 248.790813 
L 323.323173 251.202297 
L 324.065886 250.398469 
L 324.808598 251.738182 
L 325.551311 250.398469 
L 326.294024 250.398469 
L 327.036736 248.522871 
L 327.779449 247.986986 
L 328.522162 249.594641 
L 329.264874 250.666411 
L 330.007587 250.666411 
L 330.750299 248.790813 
L 331.493012 249.594641 
L 332.235725 249.862584 
L 332.978437 249.862584 
L 333.72115 249.058756 
L 334.463863 249.326699 
L 335.206575 250.666411 
L 335.949288 248.522871 
L 336.692001 251.470239 
L 337.434713 249.862584 
L 338.177426 249.862584 
L 338.920138 251.202297 
L 339.662851 250.934354 
L 340.405564 250.130526 
L 341.148276 250.130526 
L 341.890989 249.326699 
L 342.633702 249.594641 
L 343.376414 251.202297 
L 344.119127 250.934354 
L 344.861839 251.470239 
L 345.604552 250.398469 
L 346.347265 250.130526 
L 347.089977 248.790813 
L 347.83269 249.326699 
L 348.575403 250.398469 
L 349.318115 250.934354 
L 350.060828 250.398469 
L 350.803541 251.470239 
L 351.546253 250.934354 
L 352.288966 249.326699 
L 353.031678 250.130526 
L 353.774391 251.202297 
L 354.517104 248.522871 
L 355.259816 251.470239 
L 356.002529 251.202297 
L 356.745242 248.254928 
L 358.230667 249.326699 
L 358.973379 250.398469 
L 359.716092 249.862584 
L 360.458805 251.202297 
L 361.201517 250.666411 
L 361.94423 247.986986 
L 362.686943 249.862584 
L 363.429655 249.326699 
L 364.172368 249.862584 
L 364.915081 249.862584 
L 365.657793 251.470239 
L 366.400506 251.470239 
L 367.143218 250.934354 
L 367.885931 248.522871 
L 369.371356 248.522871 
L 370.114069 249.862584 
L 370.856782 249.862584 
L 371.599494 249.058756 
L 372.342207 248.790813 
L 373.084919 247.4511 
L 373.827632 249.594641 
L 374.570345 247.719043 
L 375.313057 250.130526 
L 376.05577 251.202297 
L 376.798483 250.398469 
L 377.541195 249.862584 
L 378.283908 248.254928 
L 379.026621 248.522871 
L 379.769333 249.326699 
L 380.512046 249.862584 
L 381.254758 250.130526 
L 381.997471 247.719043 
L 382.740184 248.522871 
L 383.482896 250.666411 
L 384.225609 249.594641 
L 385.711034 249.058756 
L 386.453747 249.594641 
L 387.196459 247.719043 
L 387.939172 250.130526 
L 388.681885 250.398469 
L 389.424597 248.522871 
L 390.16731 249.058756 
L 390.910023 250.934354 
L 391.652735 250.398469 
L 392.395448 249.594641 
L 393.138161 250.934354 
L 393.880873 249.326699 
L 394.623586 248.790813 
L 395.366298 249.058756 
L 396.109011 251.202297 
L 396.851724 251.202297 
L 397.594436 249.326699 
L 398.337149 250.398469 
L 399.079862 247.986986 
L 400.565287 250.130526 
L 401.307999 250.666411 
L 402.050712 250.130526 
L 402.793425 249.058756 
L 403.536137 247.4511 
L 404.27885 248.522871 
L 405.021563 247.986986 
L 405.764275 249.058756 
L 406.506988 250.666411 
L 407.249701 250.934354 
L 407.992413 249.326699 
L 408.735126 250.666411 
L 409.477838 249.862584 
L 410.220551 250.130526 
L 410.963264 251.470239 
L 411.705976 250.934354 
L 412.448689 250.934354 
L 413.191402 251.470239 
L 413.934114 249.594641 
L 414.676827 250.398469 
L 415.419539 249.058756 
L 416.162252 250.666411 
L 416.904965 251.202297 
L 417.647677 249.058756 
L 418.39039 249.594641 
L 419.133103 249.594641 
L 419.875815 246.915215 
L 420.618528 246.647273 
L 421.361241 250.398469 
L 422.103953 250.398469 
L 422.846666 248.790813 
L 423.589378 248.790813 
L 424.332091 249.862584 
L 425.074804 249.326699 
L 425.817516 250.398469 
L 426.560229 250.666411 
L 427.302942 250.666411 
L 428.045654 248.254928 
L 428.788367 249.862584 
L 429.531079 250.666411 
L 430.273792 250.934354 
L 431.016505 249.594641 
L 431.759217 251.738182 
L 432.50193 251.470239 
L 433.244643 250.934354 
L 433.987355 250.934354 
L 434.730068 251.202297 
L 435.472781 250.666411 
L 436.215493 251.202297 
L 436.958206 250.398469 
L 437.700918 244.771675 
L 438.443631 247.4511 
L 439.186344 249.326699 
L 441.414482 250.934354 
L 442.157194 251.738182 
L 442.899907 249.594641 
L 443.642619 249.594641 
L 444.385332 249.058756 
L 445.128045 246.111388 
L 445.870757 250.666411 
L 446.61347 251.738182 
L 447.356183 251.470239 
L 448.098895 250.666411 
L 448.841608 248.254928 
L 449.584321 250.934354 
L 450.327033 250.130526 
L 451.069746 248.522871 
L 451.812458 251.202297 
L 452.555171 251.202297 
L 453.297884 250.130526 
L 454.040596 247.986986 
L 454.783309 248.790813 
L 455.526022 249.862584 
L 456.268734 249.326699 
L 457.011447 250.934354 
L 457.754159 250.666411 
L 458.496872 248.254928 
L 459.239585 249.326699 
L 459.982297 247.183158 
L 460.72501 246.647273 
L 461.467723 247.183158 
L 462.210435 251.202297 
L 462.953148 251.738182 
L 463.695861 247.986986 
L 464.438573 246.111388 
L 465.181286 247.986986 
L 465.923998 246.647273 
L 466.666711 243.431962 
L 467.409424 249.594641 
L 468.152136 249.326699 
L 468.894849 247.4511 
L 469.637562 247.183158 
L 470.380274 248.254928 
L 471.122987 248.790813 
L 471.865699 247.986986 
L 472.608412 249.862584 
L 473.351125 250.934354 
L 474.093837 247.719043 
L 475.579263 248.254928 
L 476.321975 246.915215 
L 477.064688 247.4511 
L 477.807401 247.719043 
L 478.550113 250.666411 
L 479.292826 245.843445 
L 480.035538 245.843445 
L 480.778251 243.967847 
L 481.520964 247.183158 
L 482.263676 247.183158 
L 483.006389 249.862584 
L 483.749102 249.058756 
L 484.491814 247.986986 
L 485.234527 245.843445 
L 485.977239 248.522871 
L 486.719952 249.058756 
L 487.462665 249.326699 
L 488.205377 249.326699 
L 488.94809 249.862584 
L 489.690803 246.647273 
L 490.433515 247.183158 
L 491.176228 245.039617 
L 491.918941 247.986986 
L 492.661653 247.183158 
L 493.404366 250.934354 
L 494.147078 251.202297 
L 494.889791 243.967847 
L 495.632504 247.4511 
L 496.375216 245.575502 
L 497.117929 246.37933 
L 497.860642 249.594641 
L 498.603354 250.398469 
L 499.346067 250.398469 
L 500.088779 248.522871 
L 500.831492 249.326699 
L 501.574205 247.183158 
L 502.316917 246.915215 
L 503.05963 249.594641 
L 503.802343 249.862584 
L 504.545055 251.738182 
L 505.287768 248.522871 
L 506.030481 248.254928 
L 506.773193 249.058756 
L 507.515906 244.771675 
L 508.258618 249.326699 
L 509.001331 251.470239 
L 509.744044 250.934354 
L 510.486756 249.058756 
L 511.229469 249.594641 
L 511.972182 249.594641 
L 512.714894 250.666411 
L 513.457607 250.666411 
L 514.200319 251.202297 
L 514.943032 250.666411 
L 515.685745 249.326699 
L 516.428457 249.058756 
L 517.17117 249.326699 
L 517.913883 250.130526 
L 518.656595 249.594641 
L 519.399308 250.666411 
L 520.14202 249.594641 
L 520.884733 248.790813 
L 521.627446 248.522871 
L 522.370158 248.522871 
L 523.112871 249.862584 
L 523.855584 246.915215 
L 524.598296 251.470239 
L 525.341009 251.470239 
L 526.083722 249.058756 
L 526.826434 250.398469 
L 527.569147 250.398469 
L 528.311859 248.254928 
L 529.054572 249.862584 
L 529.797285 251.202297 
L 530.539997 250.398469 
L 531.28271 249.326699 
L 532.025423 248.522871 
L 532.768135 249.058756 
L 533.510848 247.4511 
L 534.25356 249.594641 
L 534.996273 250.934354 
L 535.738986 250.130526 
L 536.481698 246.647273 
L 537.224411 247.986986 
L 537.967124 250.666411 
L 538.709836 250.130526 
L 539.452549 248.522871 
L 540.195262 250.130526 
L 540.937974 251.470239 
L 541.680687 249.594641 
L 542.423399 250.130526 
L 543.166112 249.594641 
L 543.908825 248.790813 
L 544.651537 250.398469 
L 545.39425 251.470239 
L 546.136963 251.470239 
L 546.879675 250.666411 
L 547.622388 250.130526 
L 548.3651 250.130526 
L 549.107813 249.058756 
L 549.850526 251.470239 
L 550.593238 250.934354 
L 551.335951 251.738182 
L 552.078664 250.398469 
L 552.821376 249.862584 
L 553.564089 249.594641 
L 554.306802 248.522871 
L 555.049514 251.202297 
L 555.792227 251.470239 
L 556.534939 249.326699 
L 557.277652 249.594641 
L 558.020365 250.130526 
L 558.763077 250.398469 
L 559.50579 249.862584 
L 560.248503 251.470239 
L 560.991215 251.738182 
L 561.733928 250.934354 
L 562.47664 250.398469 
L 563.219353 249.058756 
L 563.962066 251.202297 
L 564.704778 250.666411 
L 565.447491 251.470239 
L 566.190204 251.202297 
L 566.932916 250.130526 
L 567.675629 249.594641 
L 568.418342 250.130526 
L 569.161054 249.058756 
L 569.903767 250.666411 
L 570.646479 251.470239 
L 571.389192 250.130526 
L 572.131905 251.202297 
L 572.874617 250.666411 
L 573.61733 250.666411 
L 574.360043 248.522871 
L 575.102755 249.594641 
L 575.845468 250.934354 
L 576.58818 251.202297 
L 577.330893 249.594641 
L 578.073606 249.594641 
L 578.816318 250.666411 
L 579.559031 249.594641 
L 580.301744 249.594641 
L 581.044456 251.470239 
L 581.787169 249.594641 
L 582.529882 249.326699 
L 583.272594 250.666411 
L 584.015307 249.594641 
L 584.758019 249.326699 
L 585.500732 251.202297 
L 586.243445 251.738182 
L 586.986157 250.130526 
L 587.72887 249.594641 
L 588.471583 250.666411 
L 589.957008 250.130526 
L 590.69972 250.666411 
L 591.442433 251.470239 
L 592.185146 250.130526 
L 592.927858 250.130526 
L 593.670571 249.326699 
L 594.413284 249.862584 
L 595.155996 249.862584 
L 595.898709 250.934354 
L 596.641422 251.738182 
L 597.384134 251.202297 
L 598.126847 250.398469 
L 598.869559 250.398469 
L 599.612272 250.934354 
L 600.354985 250.130526 
L 601.097697 250.934354 
L 601.84041 251.470239 
L 602.583123 250.398469 
L 603.325835 249.862584 
L 604.068548 250.130526 
L 604.81126 249.058756 
L 605.553973 249.594641 
L 606.296686 251.738182 
L 607.039398 251.470239 
L 607.782111 250.398469 
L 608.524824 249.862584 
L 609.267536 249.058756 
L 610.010249 249.594641 
L 610.752962 245.039617 
L 611.495674 251.202297 
L 612.238387 250.666411 
L 612.981099 249.058756 
L 613.723812 247.183158 
L 614.466525 248.790813 
L 615.209237 249.862584 
L 615.95195 250.398469 
L 616.694663 251.202297 
L 617.437375 251.202297 
L 618.180088 250.130526 
L 618.9228 248.254928 
L 619.665513 249.862584 
L 620.408226 246.915215 
L 621.150938 246.915215 
L 621.893651 251.202297 
L 622.636364 251.470239 
L 622.636364 251.470239 
" clip-path="url(#p182cc69bf5)" style="fill: none; stroke: #ff7f0e; stroke-width: 1.5; stroke-linecap: square"/>
   </g>
   <g id="patch_9">
    <path d="M 90 256.32 
L 90 155.52 
" style="fill: none; stroke: #000000; stroke-width: 0.8; stroke-linejoin: miter; stroke-linecap: square"/>
   </g>
   <g id="patch_10">
    <path d="M 648 256.32 
L 648 155.52 
" style="fill: none; stroke: #000000; stroke-width: 0.8; stroke-linejoin: miter; stroke-linecap: square"/>
   </g>
   <g id="patch_11">
    <path d="M 90 256.32 
L 648 256.32 
" style="fill: none; stroke: #000000; stroke-width: 0.8; stroke-linejoin: miter; stroke-linecap: square"/>
   </g>
   <g id="patch_12">
    <path d="M 90 155.52 
L 648 155.52 
" style="fill: none; stroke: #000000; stroke-width: 0.8; stroke-linejoin: miter; stroke-linecap: square"/>
   </g>
   <g id="legend_2">
    <g id="patch_13">
     <path d="M 503.782812 192.87625 
L 641 192.87625 
Q 643 192.87625 643 190.87625 
L 643 162.52 
Q 643 160.52 641 160.52 
L 503.782812 160.52 
Q 501.782812 160.52 501.782812 162.52 
L 501.782812 190.87625 
Q 501.782812 192.87625 503.782812 192.87625 
z
" style="fill: #ffffff; opacity: 0.8; stroke: #cccccc; stroke-linejoin: miter"/>
    </g>
    <g id="line2d_29">
     <path d="M 505.782812 168.618437 
L 515.782812 168.618437 
L 525.782812 168.618437 
" style="fill: none; stroke: #1f77b4; stroke-width: 1.5; stroke-linecap: square"/>
    </g>
    <g id="text_26">
     <!-- Total GitHub Views -->
     <g transform="translate(533.782812 172.118437)scale(0.1 -0.1)">
      <defs>
       <path id="DejaVuSans-56" d="M 1831 0 
L 50 4666 
L 709 4666 
L 2188 738 
L 3669 4666 
L 4325 4666 
L 2547 0 
L 1831 0 
z
" transform="scale(0.015625)"/>
       <path id="DejaVuSans-77" d="M 269 3500 
L 844 3500 
L 1563 769 
L 2278 3500 
L 2956 3500 
L 3675 769 
L 4391 3500 
L 4966 3500 
L 4050 0 
L 3372 0 
L 2619 2869 
L 1863 0 
L 1184 0 
L 269 3500 
z
" transform="scale(0.015625)"/>
      </defs>
      <use xlink:href="#DejaVuSans-54"/>
      <use xlink:href="#DejaVuSans-6f" x="44.083984"/>
      <use xlink:href="#DejaVuSans-74" x="105.265625"/>
      <use xlink:href="#DejaVuSans-61" x="144.474609"/>
      <use xlink:href="#DejaVuSans-6c" x="205.753906"/>
      <use xlink:href="#DejaVuSans-20" x="233.537109"/>
      <use xlink:href="#DejaVuSans-47" x="265.324219"/>
      <use xlink:href="#DejaVuSans-69" x="342.814453"/>
      <use xlink:href="#DejaVuSans-74" x="370.597656"/>
      <use xlink:href="#DejaVuSans-48" x="409.806641"/>
      <use xlink:href="#DejaVuSans-75" x="485.001953"/>
      <use xlink:href="#DejaVuSans-62" x="548.380859"/>
      <use xlink:href="#DejaVuSans-20" x="611.857422"/>
      <use xlink:href="#DejaVuSans-56" x="643.644531"/>
      <use xlink:href="#DejaVuSans-69" x="709.802734"/>
      <use xlink:href="#DejaVuSans-65" x="737.585938"/>
      <use xlink:href="#DejaVuSans-77" x="799.109375"/>
      <use xlink:href="#DejaVuSans-73" x="880.896484"/>
     </g>
    </g>
    <g id="line2d_30">
     <path d="M 505.782812 183.296562 
L 515.782812 183.296562 
L 525.782812 183.296562 
" style="fill: none; stroke: #ff7f0e; stroke-width: 1.5; stroke-linecap: square"/>
    </g>
    <g id="text_27">
     <!-- Unique GitHub Views -->
     <g transform="translate(533.782812 186.796562)scale(0.1 -0.1)">
      <use xlink:href="#DejaVuSans-55"/>
      <use xlink:href="#DejaVuSans-6e" x="73.193359"/>
      <use xlink:href="#DejaVuSans-69" x="136.572266"/>
      <use xlink:href="#DejaVuSans-71" x="164.355469"/>
      <use xlink:href="#DejaVuSans-75" x="227.832031"/>
      <use xlink:href="#DejaVuSans-65" x="291.210938"/>
      <use xlink:href="#DejaVuSans-20" x="352.734375"/>
      <use xlink:href="#DejaVuSans-47" x="384.521484"/>
      <use xlink:href="#DejaVuSans-69" x="462.011719"/>
      <use xlink:href="#DejaVuSans-74" x="489.794922"/>
      <use xlink:href="#DejaVuSans-48" x="529.003906"/>
      <use xlink:href="#DejaVuSans-75" x="604.199219"/>
      <use xlink:href="#DejaVuSans-62" x="667.578125"/>
      <use xlink:href="#DejaVuSans-20" x="731.054688"/>
      <use xlink:href="#DejaVuSans-56" x="762.841797"/>
      <use xlink:href="#DejaVuSans-69" x="829"/>
      <use xlink:href="#DejaVuSans-65" x="856.783203"/>
      <use xlink:href="#DejaVuSans-77" x="918.306641"/>
      <use xlink:href="#DejaVuSans-73" x="1000.09375"/>
     </g>
    </g>
   </g>
  </g>
 </g>
 <defs>
  <clipPath id="pd4e8d35d81">
   <rect x="90" y="34.56" width="558" height="100.8"/>
  </clipPath>
  <clipPath id="p182cc69bf5">
   <rect x="90" y="155.52" width="558" height="100.8"/>
  </clipPath>
 </defs>
</svg>
