<?xml version="1.0" encoding="utf-8" standalone="no"?>
<!DOCTYPE svg PUBLIC "-//W3C//DTD SVG 1.1//EN"
  "http://www.w3.org/Graphics/SVG/1.1/DTD/svg11.dtd">
<svg xmlns:xlink="http://www.w3.org/1999/xlink" width="720pt" height="288pt" viewBox="0 0 720 288" xmlns="http://www.w3.org/2000/svg" version="1.1">
 <metadata>
  <rdf:RDF xmlns:dc="http://purl.org/dc/elements/1.1/" xmlns:cc="http://creativecommons.org/ns#" xmlns:rdf="http://www.w3.org/1999/02/22-rdf-syntax-ns#">
   <cc:Work>
    <dc:type rdf:resource="http://purl.org/dc/dcmitype/StillImage"/>
    <dc:date>2022-06-13T00:51:05.071962</dc:date>
    <dc:format>image/svg+xml</dc:format>
    <dc:creator>
     <cc:Agent>
      <dc:title>Matplotlib v3.5.2, https://matplotlib.org/</dc:title>
     </cc:Agent>
    </dc:creator>
   </cc:Work>
  </rdf:RDF>
 </metadata>
 <defs>
  <style type="text/css">*{stroke-linejoin: round; stroke-linecap: butt}</style>
 </defs>
 <g id="figure_1">
  <g id="patch_1">
   <path d="M 0 288 
L 720 288 
L 720 0 
L 0 0 
z
" style="fill: #ffffff"/>
  </g>
  <g id="axes_1">
   <g id="patch_2">
    <path d="M 90 135.36 
L 648 135.36 
L 648 34.56 
L 90 34.56 
z
" style="fill: #ffffff"/>
   </g>
   <g id="matplotlib.axis_1">
    <g id="xtick_1">
     <g id="line2d_1">
      <defs>
       <path id="mcaa2354aec" d="M 0 0 
L 0 3.5 
" style="stroke: #000000; stroke-width: 0.8"/>
      </defs>
      <g>
       <use xlink:href="#mcaa2354aec" x="115.363636" y="135.36" style="stroke: #000000; stroke-width: 0.8"/>
      </g>
     </g>
     <g id="text_1">
      <!-- 2020-10-22 -->
      <g transform="translate(86.305824 149.958437)scale(0.1 -0.1)">
       <defs>
        <path id="DejaVuSans-32" d="M 1228 531 
L 3431 531 
L 3431 0 
L 469 0 
L 469 531 
Q 828 903 1448 1529 
Q 2069 2156 2228 2338 
Q 2531 2678 2651 2914 
Q 2772 3150 2772 3378 
Q 2772 3750 2511 3984 
Q 2250 4219 1831 4219 
Q 1534 4219 1204 4116 
Q 875 4013 500 3803 
L 500 4441 
Q 881 4594 1212 4672 
Q 1544 4750 1819 4750 
Q 2544 4750 2975 4387 
Q 3406 4025 3406 3419 
Q 3406 3131 3298 2873 
Q 3191 2616 2906 2266 
Q 2828 2175 2409 1742 
Q 1991 1309 1228 531 
z
" transform="scale(0.015625)"/>
        <path id="DejaVuSans-30" d="M 2034 4250 
Q 1547 4250 1301 3770 
Q 1056 3291 1056 2328 
Q 1056 1369 1301 889 
Q 1547 409 2034 409 
Q 2525 409 2770 889 
Q 3016 1369 3016 2328 
Q 3016 3291 2770 3770 
Q 2525 4250 2034 4250 
z
M 2034 4750 
Q 2819 4750 3233 4129 
Q 3647 3509 3647 2328 
Q 3647 1150 3233 529 
Q 2819 -91 2034 -91 
Q 1250 -91 836 529 
Q 422 1150 422 2328 
Q 422 3509 836 4129 
Q 1250 4750 2034 4750 
z
" transform="scale(0.015625)"/>
        <path id="DejaVuSans-2d" d="M 313 2009 
L 1997 2009 
L 1997 1497 
L 313 1497 
L 313 2009 
z
" transform="scale(0.015625)"/>
        <path id="DejaVuSans-31" d="M 794 531 
L 1825 531 
L 1825 4091 
L 703 3866 
L 703 4441 
L 1819 4666 
L 2450 4666 
L 2450 531 
L 3481 531 
L 3481 0 
L 794 0 
L 794 531 
z
" transform="scale(0.015625)"/>
       </defs>
       <use xlink:href="#DejaVuSans-32"/>
       <use xlink:href="#DejaVuSans-30" x="63.623047"/>
       <use xlink:href="#DejaVuSans-32" x="127.246094"/>
       <use xlink:href="#DejaVuSans-30" x="190.869141"/>
       <use xlink:href="#DejaVuSans-2d" x="254.492188"/>
       <use xlink:href="#DejaVuSans-31" x="290.576172"/>
       <use xlink:href="#DejaVuSans-30" x="354.199219"/>
       <use xlink:href="#DejaVuSans-2d" x="417.822266"/>
       <use xlink:href="#DejaVuSans-32" x="453.90625"/>
       <use xlink:href="#DejaVuSans-32" x="517.529297"/>
      </g>
     </g>
    </g>
    <g id="xtick_2">
     <g id="line2d_2">
      <g>
       <use xlink:href="#mcaa2354aec" x="224.220445" y="135.36" style="stroke: #000000; stroke-width: 0.8"/>
      </g>
     </g>
     <g id="text_2">
      <!-- 2021-03-17 -->
      <g transform="translate(195.162632 149.958437)scale(0.1 -0.1)">
       <defs>
        <path id="DejaVuSans-33" d="M 2597 2516 
Q 3050 2419 3304 2112 
Q 3559 1806 3559 1356 
Q 3559 666 3084 287 
Q 2609 -91 1734 -91 
Q 1441 -91 1130 -33 
Q 819 25 488 141 
L 488 750 
Q 750 597 1062 519 
Q 1375 441 1716 441 
Q 2309 441 2620 675 
Q 2931 909 2931 1356 
Q 2931 1769 2642 2001 
Q 2353 2234 1838 2234 
L 1294 2234 
L 1294 2753 
L 1863 2753 
Q 2328 2753 2575 2939 
Q 2822 3125 2822 3475 
Q 2822 3834 2567 4026 
Q 2313 4219 1838 4219 
Q 1578 4219 1281 4162 
Q 984 4106 628 3988 
L 628 4550 
Q 988 4650 1302 4700 
Q 1616 4750 1894 4750 
Q 2613 4750 3031 4423 
Q 3450 4097 3450 3541 
Q 3450 3153 3228 2886 
Q 3006 2619 2597 2516 
z
" transform="scale(0.015625)"/>
        <path id="DejaVuSans-37" d="M 525 4666 
L 3525 4666 
L 3525 4397 
L 1831 0 
L 1172 0 
L 2766 4134 
L 525 4134 
L 525 4666 
z
" transform="scale(0.015625)"/>
       </defs>
       <use xlink:href="#DejaVuSans-32"/>
       <use xlink:href="#DejaVuSans-30" x="63.623047"/>
       <use xlink:href="#DejaVuSans-32" x="127.246094"/>
       <use xlink:href="#DejaVuSans-31" x="190.869141"/>
       <use xlink:href="#DejaVuSans-2d" x="254.492188"/>
       <use xlink:href="#DejaVuSans-30" x="290.576172"/>
       <use xlink:href="#DejaVuSans-33" x="354.199219"/>
       <use xlink:href="#DejaVuSans-2d" x="417.822266"/>
       <use xlink:href="#DejaVuSans-31" x="453.90625"/>
       <use xlink:href="#DejaVuSans-37" x="517.529297"/>
      </g>
     </g>
    </g>
    <g id="xtick_3">
     <g id="line2d_3">
      <g>
       <use xlink:href="#mcaa2354aec" x="333.077253" y="135.36" style="stroke: #000000; stroke-width: 0.8"/>
      </g>
     </g>
     <g id="text_3">
      <!-- 2021-07-07 -->
      <g transform="translate(304.019441 149.958437)scale(0.1 -0.1)">
       <use xlink:href="#DejaVuSans-32"/>
       <use xlink:href="#DejaVuSans-30" x="63.623047"/>
       <use xlink:href="#DejaVuSans-32" x="127.246094"/>
       <use xlink:href="#DejaVuSans-31" x="190.869141"/>
       <use xlink:href="#DejaVuSans-2d" x="254.492188"/>
       <use xlink:href="#DejaVuSans-30" x="290.576172"/>
       <use xlink:href="#DejaVuSans-37" x="354.199219"/>
       <use xlink:href="#DejaVuSans-2d" x="417.822266"/>
       <use xlink:href="#DejaVuSans-30" x="453.90625"/>
       <use xlink:href="#DejaVuSans-37" x="517.529297"/>
      </g>
     </g>
    </g>
    <g id="xtick_4">
     <g id="line2d_4">
      <g>
       <use xlink:href="#mcaa2354aec" x="441.934062" y="135.36" style="stroke: #000000; stroke-width: 0.8"/>
      </g>
     </g>
     <g id="text_4">
      <!-- 2021-11-18 -->
      <g transform="translate(412.876249 149.958437)scale(0.1 -0.1)">
       <defs>
        <path id="DejaVuSans-38" d="M 2034 2216 
Q 1584 2216 1326 1975 
Q 1069 1734 1069 1313 
Q 1069 891 1326 650 
Q 1584 409 2034 409 
Q 2484 409 2743 651 
Q 3003 894 3003 1313 
Q 3003 1734 2745 1975 
Q 2488 2216 2034 2216 
z
M 1403 2484 
Q 997 2584 770 2862 
Q 544 3141 544 3541 
Q 544 4100 942 4425 
Q 1341 4750 2034 4750 
Q 2731 4750 3128 4425 
Q 3525 4100 3525 3541 
Q 3525 3141 3298 2862 
Q 3072 2584 2669 2484 
Q 3125 2378 3379 2068 
Q 3634 1759 3634 1313 
Q 3634 634 3220 271 
Q 2806 -91 2034 -91 
Q 1263 -91 848 271 
Q 434 634 434 1313 
Q 434 1759 690 2068 
Q 947 2378 1403 2484 
z
M 1172 3481 
Q 1172 3119 1398 2916 
Q 1625 2713 2034 2713 
Q 2441 2713 2670 2916 
Q 2900 3119 2900 3481 
Q 2900 3844 2670 4047 
Q 2441 4250 2034 4250 
Q 1625 4250 1398 4047 
Q 1172 3844 1172 3481 
z
" transform="scale(0.015625)"/>
       </defs>
       <use xlink:href="#DejaVuSans-32"/>
       <use xlink:href="#DejaVuSans-30" x="63.623047"/>
       <use xlink:href="#DejaVuSans-32" x="127.246094"/>
       <use xlink:href="#DejaVuSans-31" x="190.869141"/>
       <use xlink:href="#DejaVuSans-2d" x="254.492188"/>
       <use xlink:href="#DejaVuSans-31" x="290.576172"/>
       <use xlink:href="#DejaVuSans-31" x="354.199219"/>
       <use xlink:href="#DejaVuSans-2d" x="417.822266"/>
       <use xlink:href="#DejaVuSans-31" x="453.90625"/>
       <use xlink:href="#DejaVuSans-38" x="517.529297"/>
      </g>
     </g>
    </g>
    <g id="xtick_5">
     <g id="line2d_5">
      <g>
       <use xlink:href="#mcaa2354aec" x="550.79087" y="135.36" style="stroke: #000000; stroke-width: 0.8"/>
      </g>
     </g>
     <g id="text_5">
      <!-- 2022-03-21 -->
      <g transform="translate(521.733058 149.958437)scale(0.1 -0.1)">
       <use xlink:href="#DejaVuSans-32"/>
       <use xlink:href="#DejaVuSans-30" x="63.623047"/>
       <use xlink:href="#DejaVuSans-32" x="127.246094"/>
       <use xlink:href="#DejaVuSans-32" x="190.869141"/>
       <use xlink:href="#DejaVuSans-2d" x="254.492188"/>
       <use xlink:href="#DejaVuSans-30" x="290.576172"/>
       <use xlink:href="#DejaVuSans-33" x="354.199219"/>
       <use xlink:href="#DejaVuSans-2d" x="417.822266"/>
       <use xlink:href="#DejaVuSans-32" x="453.90625"/>
       <use xlink:href="#DejaVuSans-31" x="517.529297"/>
      </g>
     </g>
    </g>
    <g id="text_6">
     <!-- _date -->
     <g transform="translate(355.225 163.636562)scale(0.1 -0.1)">
      <defs>
       <path id="DejaVuSans-5f" d="M 3263 -1063 
L 3263 -1509 
L -63 -1509 
L -63 -1063 
L 3263 -1063 
z
" transform="scale(0.015625)"/>
       <path id="DejaVuSans-64" d="M 2906 2969 
L 2906 4863 
L 3481 4863 
L 3481 0 
L 2906 0 
L 2906 525 
Q 2725 213 2448 61 
Q 2172 -91 1784 -91 
Q 1150 -91 751 415 
Q 353 922 353 1747 
Q 353 2572 751 3078 
Q 1150 3584 1784 3584 
Q 2172 3584 2448 3432 
Q 2725 3281 2906 2969 
z
M 947 1747 
Q 947 1113 1208 752 
Q 1469 391 1925 391 
Q 2381 391 2643 752 
Q 2906 1113 2906 1747 
Q 2906 2381 2643 2742 
Q 2381 3103 1925 3103 
Q 1469 3103 1208 2742 
Q 947 2381 947 1747 
z
" transform="scale(0.015625)"/>
       <path id="DejaVuSans-61" d="M 2194 1759 
Q 1497 1759 1228 1600 
Q 959 1441 959 1056 
Q 959 750 1161 570 
Q 1363 391 1709 391 
Q 2188 391 2477 730 
Q 2766 1069 2766 1631 
L 2766 1759 
L 2194 1759 
z
M 3341 1997 
L 3341 0 
L 2766 0 
L 2766 531 
Q 2569 213 2275 61 
Q 1981 -91 1556 -91 
Q 1019 -91 701 211 
Q 384 513 384 1019 
Q 384 1609 779 1909 
Q 1175 2209 1959 2209 
L 2766 2209 
L 2766 2266 
Q 2766 2663 2505 2880 
Q 2244 3097 1772 3097 
Q 1472 3097 1187 3025 
Q 903 2953 641 2809 
L 641 3341 
Q 956 3463 1253 3523 
Q 1550 3584 1831 3584 
Q 2591 3584 2966 3190 
Q 3341 2797 3341 1997 
z
" transform="scale(0.015625)"/>
       <path id="DejaVuSans-74" d="M 1172 4494 
L 1172 3500 
L 2356 3500 
L 2356 3053 
L 1172 3053 
L 1172 1153 
Q 1172 725 1289 603 
Q 1406 481 1766 481 
L 2356 481 
L 2356 0 
L 1766 0 
Q 1100 0 847 248 
Q 594 497 594 1153 
L 594 3053 
L 172 3053 
L 172 3500 
L 594 3500 
L 594 4494 
L 1172 4494 
z
" transform="scale(0.015625)"/>
       <path id="DejaVuSans-65" d="M 3597 1894 
L 3597 1613 
L 953 1613 
Q 991 1019 1311 708 
Q 1631 397 2203 397 
Q 2534 397 2845 478 
Q 3156 559 3463 722 
L 3463 178 
Q 3153 47 2828 -22 
Q 2503 -91 2169 -91 
Q 1331 -91 842 396 
Q 353 884 353 1716 
Q 353 2575 817 3079 
Q 1281 3584 2069 3584 
Q 2775 3584 3186 3129 
Q 3597 2675 3597 1894 
z
M 3022 2063 
Q 3016 2534 2758 2815 
Q 2500 3097 2075 3097 
Q 1594 3097 1305 2825 
Q 1016 2553 972 2059 
L 3022 2063 
z
" transform="scale(0.015625)"/>
      </defs>
      <use xlink:href="#DejaVuSans-5f"/>
      <use xlink:href="#DejaVuSans-64" x="50"/>
      <use xlink:href="#DejaVuSans-61" x="113.476562"/>
      <use xlink:href="#DejaVuSans-74" x="174.755859"/>
      <use xlink:href="#DejaVuSans-65" x="213.964844"/>
     </g>
    </g>
   </g>
   <g id="matplotlib.axis_2">
    <g id="ytick_1">
     <g id="line2d_6">
      <defs>
       <path id="m7fc5fea7e9" d="M 0 0 
L -3.5 0 
" style="stroke: #000000; stroke-width: 0.8"/>
      </defs>
      <g>
       <use xlink:href="#m7fc5fea7e9" x="90" y="131.401558" style="stroke: #000000; stroke-width: 0.8"/>
      </g>
     </g>
     <g id="text_7">
      <!-- 0 -->
      <g transform="translate(76.6375 135.200777)scale(0.1 -0.1)">
       <use xlink:href="#DejaVuSans-30"/>
      </g>
     </g>
    </g>
    <g id="ytick_2">
     <g id="line2d_7">
      <g>
       <use xlink:href="#m7fc5fea7e9" x="90" y="100.232727" style="stroke: #000000; stroke-width: 0.8"/>
      </g>
     </g>
     <g id="text_8">
      <!-- 50 -->
      <g transform="translate(70.275 104.031946)scale(0.1 -0.1)">
       <defs>
        <path id="DejaVuSans-35" d="M 691 4666 
L 3169 4666 
L 3169 4134 
L 1269 4134 
L 1269 2991 
Q 1406 3038 1543 3061 
Q 1681 3084 1819 3084 
Q 2600 3084 3056 2656 
Q 3513 2228 3513 1497 
Q 3513 744 3044 326 
Q 2575 -91 1722 -91 
Q 1428 -91 1123 -41 
Q 819 9 494 109 
L 494 744 
Q 775 591 1075 516 
Q 1375 441 1709 441 
Q 2250 441 2565 725 
Q 2881 1009 2881 1497 
Q 2881 1984 2565 2268 
Q 2250 2553 1709 2553 
Q 1456 2553 1204 2497 
Q 953 2441 691 2322 
L 691 4666 
z
" transform="scale(0.015625)"/>
       </defs>
       <use xlink:href="#DejaVuSans-35"/>
       <use xlink:href="#DejaVuSans-30" x="63.623047"/>
      </g>
     </g>
    </g>
    <g id="ytick_3">
     <g id="line2d_8">
      <g>
       <use xlink:href="#m7fc5fea7e9" x="90" y="69.063896" style="stroke: #000000; stroke-width: 0.8"/>
      </g>
     </g>
     <g id="text_9">
      <!-- 100 -->
      <g transform="translate(63.9125 72.863115)scale(0.1 -0.1)">
       <use xlink:href="#DejaVuSans-31"/>
       <use xlink:href="#DejaVuSans-30" x="63.623047"/>
       <use xlink:href="#DejaVuSans-30" x="127.246094"/>
      </g>
     </g>
    </g>
    <g id="ytick_4">
     <g id="line2d_9">
      <g>
       <use xlink:href="#m7fc5fea7e9" x="90" y="37.895065" style="stroke: #000000; stroke-width: 0.8"/>
      </g>
     </g>
     <g id="text_10">
      <!-- 150 -->
      <g transform="translate(63.9125 41.694284)scale(0.1 -0.1)">
       <use xlink:href="#DejaVuSans-31"/>
       <use xlink:href="#DejaVuSans-35" x="63.623047"/>
       <use xlink:href="#DejaVuSans-30" x="127.246094"/>
      </g>
     </g>
    </g>
   </g>
   <g id="line2d_10">
    <path d="M 115.363636 127.661299 
L 116.452204 128.284675 
L 117.540773 130.778182 
L 118.629341 130.778182 
L 119.717909 129.531429 
L 120.806477 129.531429 
L 121.895045 120.804156 
L 122.983613 120.804156 
L 124.072181 130.778182 
L 125.160749 130.778182 
L 126.249317 124.544416 
L 127.337885 126.414545 
L 128.426453 130.778182 
L 129.515021 127.661299 
L 130.60359 128.908052 
L 131.692158 128.908052 
L 132.780726 130.778182 
L 134.957862 128.284675 
L 136.04643 130.154805 
L 137.134998 130.778182 
L 138.223566 130.154805 
L 139.312134 130.154805 
L 140.400702 129.531429 
L 141.48927 130.154805 
L 142.577838 130.154805 
L 143.666407 128.908052 
L 144.754975 130.154805 
L 145.843543 130.154805 
L 146.932111 122.674286 
L 148.020679 127.661299 
L 149.109247 130.154805 
L 150.197815 115.817143 
L 151.286383 130.778182 
L 159.994928 130.778182 
L 161.083496 130.154805 
L 162.172064 130.778182 
L 169.792041 130.778182 
L 170.880609 128.908052 
L 171.969177 129.531429 
L 173.057745 130.778182 
L 174.146313 129.531429 
L 175.234881 127.661299 
L 176.323449 130.154805 
L 177.412017 130.154805 
L 178.500585 128.908052 
L 179.589153 120.804156 
L 180.677721 130.154805 
L 181.76629 130.778182 
L 182.854858 130.154805 
L 183.943426 127.037922 
L 185.031994 130.154805 
L 186.120562 129.531429 
L 187.20913 125.167792 
L 188.297698 128.908052 
L 189.386266 127.037922 
L 190.474834 130.154805 
L 191.563402 129.531429 
L 192.65197 130.154805 
L 193.740538 129.531429 
L 195.917675 129.531429 
L 197.006243 128.284675 
L 198.094811 130.778182 
L 199.183379 130.778182 
L 200.271947 128.284675 
L 201.360515 128.284675 
L 202.449083 125.167792 
L 203.537651 129.531429 
L 204.626219 127.661299 
L 205.714787 130.778182 
L 206.803355 125.791169 
L 207.891924 128.908052 
L 208.980492 129.531429 
L 210.06906 128.908052 
L 211.157628 126.414545 
L 212.246196 130.154805 
L 213.334764 128.284675 
L 214.423332 121.427532 
L 215.5119 126.414545 
L 216.600468 120.804156 
L 217.689036 87.141818 
L 218.777604 127.661299 
L 219.866172 130.778182 
L 220.954741 128.908052 
L 222.043309 123.297662 
L 223.131877 124.544416 
L 224.220445 127.661299 
L 225.309013 119.557403 
L 226.397581 128.908052 
L 227.486149 128.908052 
L 228.574717 130.154805 
L 229.663285 122.674286 
L 230.751853 124.544416 
L 231.840421 130.778182 
L 232.928989 129.531429 
L 234.017558 130.778182 
L 235.106126 128.284675 
L 236.194694 100.232727 
L 237.283262 118.310649 
L 238.37183 121.427532 
L 239.460398 127.661299 
L 240.548966 130.778182 
L 241.637534 126.414545 
L 242.726102 128.908052 
L 243.81467 122.050909 
L 244.903238 128.908052 
L 245.991806 123.297662 
L 247.080375 115.817143 
L 248.168943 122.674286 
L 249.257511 127.661299 
L 250.346079 115.193766 
L 251.434647 115.193766 
L 252.523215 116.440519 
L 253.611783 92.128831 
L 254.700351 107.08987 
L 255.788919 107.08987 
L 256.877487 119.557403 
L 257.966055 110.206753 
L 259.054623 118.934026 
L 260.143192 129.531429 
L 261.23176 130.154805 
L 262.320328 116.440519 
L 263.408896 114.57039 
L 264.497464 115.817143 
L 265.586032 111.453506 
L 266.6746 105.843117 
L 267.763168 128.284675 
L 268.851736 130.154805 
L 269.940304 116.440519 
L 271.028872 117.687273 
L 272.11744 100.232727 
L 273.206009 115.817143 
L 274.294577 116.440519 
L 275.383145 130.154805 
L 276.471713 128.908052 
L 277.560281 114.57039 
L 278.648849 102.102857 
L 279.737417 117.063896 
L 280.825985 113.323636 
L 281.914553 95.245714 
L 283.003121 117.063896 
L 284.091689 130.154805 
L 285.180258 114.57039 
L 286.268826 105.843117 
L 287.357394 102.726234 
L 288.445962 108.96 
L 289.53453 111.453506 
L 290.623098 129.531429 
L 291.711666 115.193766 
L 292.800234 108.336623 
L 293.888802 115.817143 
L 294.97737 115.193766 
L 296.065938 113.947013 
L 297.154506 125.791169 
L 298.243075 115.817143 
L 299.331643 113.323636 
L 300.420211 115.817143 
L 301.508779 116.440519 
L 302.597347 116.440519 
L 303.685915 130.778182 
L 304.774483 130.778182 
L 305.863051 115.193766 
L 306.951619 112.076883 
L 308.040187 115.193766 
L 309.128755 102.726234 
L 310.217323 105.843117 
L 311.305892 130.778182 
L 312.39446 115.817143 
L 313.483028 113.947013 
L 314.571596 113.323636 
L 315.660164 112.076883 
L 316.748732 117.063896 
L 317.8373 130.154805 
L 318.925868 114.57039 
L 320.014436 110.83013 
L 321.103004 105.21974 
L 322.191572 104.596364 
L 323.28014 39.141818 
L 325.457277 130.778182 
L 326.545845 118.310649 
L 327.634413 117.063896 
L 328.722981 124.544416 
L 329.811549 130.778182 
L 330.900117 130.154805 
L 331.988685 123.297662 
L 333.077253 125.167792 
L 334.165821 130.154805 
L 335.254389 128.908052 
L 336.342957 130.154805 
L 337.431526 130.778182 
L 338.520094 130.154805 
L 339.608662 130.778182 
L 340.69723 128.908052 
L 341.785798 129.531429 
L 342.874366 130.778182 
L 346.14007 130.778182 
L 347.228638 128.284675 
L 348.317206 130.154805 
L 349.405774 130.778182 
L 350.494343 130.154805 
L 351.582911 127.037922 
L 352.671479 130.778182 
L 353.760047 117.063896 
L 354.848615 129.531429 
L 355.937183 130.778182 
L 358.114319 129.531429 
L 359.202887 130.778182 
L 360.291455 130.154805 
L 361.380023 130.778182 
L 362.468591 128.908052 
L 363.55716 130.154805 
L 364.645728 129.531429 
L 365.734296 130.778182 
L 367.911432 130.778182 
L 370.088568 129.531429 
L 371.177136 127.037922 
L 372.265704 130.154805 
L 373.354272 130.154805 
L 374.44284 124.544416 
L 375.531409 122.050909 
L 376.619977 130.778182 
L 378.797113 130.778182 
L 380.974249 129.531429 
L 382.062817 130.154805 
L 383.151385 125.167792 
L 384.239953 113.323636 
L 385.328521 127.661299 
L 386.417089 110.206753 
L 387.505657 126.414545 
L 388.594226 130.154805 
L 389.682794 130.778182 
L 391.85993 130.778182 
L 392.948498 130.154805 
L 394.037066 130.778182 
L 395.125634 130.778182 
L 396.214202 128.284675 
L 397.30277 98.362597 
L 398.391338 117.063896 
L 399.479906 129.531429 
L 400.568474 122.674286 
L 401.657043 98.985974 
L 402.745611 96.492468 
L 403.834179 90.882078 
L 404.922747 103.972987 
L 406.011315 120.804156 
L 407.099883 122.674286 
L 408.188451 130.778182 
L 409.277019 125.791169 
L 410.365587 130.778182 
L 411.454155 130.778182 
L 412.542723 122.050909 
L 413.631291 129.531429 
L 414.71986 97.739221 
L 415.808428 122.674286 
L 416.896996 95.869091 
L 417.985564 123.297662 
L 419.074132 128.284675 
L 420.1627 121.427532 
L 421.251268 93.998961 
L 422.339836 120.804156 
L 423.428404 122.674286 
L 424.516972 129.531429 
L 425.60554 130.778182 
L 426.694108 130.778182 
L 427.782677 129.531429 
L 428.871245 126.414545 
L 429.959813 123.921039 
L 431.048381 122.674286 
L 432.136949 130.778182 
L 433.225517 130.778182 
L 434.314085 120.180779 
L 435.402653 115.817143 
L 436.491221 130.778182 
L 437.579789 129.531429 
L 438.668357 130.778182 
L 439.756925 125.167792 
L 440.845494 129.531429 
L 441.934062 130.778182 
L 443.02263 130.154805 
L 444.111198 128.908052 
L 445.199766 128.908052 
L 446.288334 106.466494 
L 447.376902 128.908052 
L 448.46547 128.908052 
L 449.554038 120.804156 
L 450.642606 105.21974 
L 451.731174 123.297662 
L 452.819742 123.297662 
L 453.908311 129.531429 
L 454.996879 120.180779 
L 456.085447 103.34961 
L 457.174015 63.453506 
L 458.262583 123.297662 
L 459.351151 113.323636 
L 460.439719 130.778182 
L 461.528287 104.596364 
L 462.616855 99.609351 
L 463.705423 127.037922 
L 464.793991 117.063896 
L 465.88256 130.778182 
L 466.971128 130.778182 
L 468.059696 100.856104 
L 469.148264 130.778182 
L 470.236832 98.985974 
L 471.3254 130.154805 
L 472.413968 120.804156 
L 473.502536 130.778182 
L 474.591104 130.778182 
L 475.679672 129.531429 
L 476.76824 130.154805 
L 477.856808 128.908052 
L 478.945377 130.778182 
L 480.033945 122.050909 
L 481.122513 117.063896 
L 482.211081 93.998961 
L 483.299649 124.544416 
L 484.388217 130.154805 
L 485.476785 115.193766 
L 486.565353 130.154805 
L 487.653921 125.791169 
L 488.742489 120.180779 
L 489.831057 122.674286 
L 490.919625 127.661299 
L 492.008194 130.154805 
L 493.096762 127.037922 
L 494.18533 115.817143 
L 495.273898 128.284675 
L 496.362466 122.674286 
L 497.451034 125.167792 
L 498.539602 130.778182 
L 499.62817 75.297662 
L 500.716738 117.687273 
L 501.805306 97.115844 
L 502.893874 122.050909 
L 503.982442 78.414545 
L 505.071011 130.778182 
L 506.159579 118.934026 
L 508.336715 99.609351 
L 509.425283 108.96 
L 510.513851 125.791169 
L 511.602419 130.778182 
L 513.779555 87.765195 
L 514.868123 90.882078 
L 515.956691 130.778182 
L 517.045259 122.674286 
L 518.133828 128.908052 
L 519.222396 94.622338 
L 520.310964 128.908052 
L 521.399532 130.778182 
L 523.576668 130.778182 
L 524.665236 128.284675 
L 525.753804 128.908052 
L 526.842372 124.544416 
L 527.93094 127.037922 
L 529.019508 123.921039 
L 530.108076 112.70026 
L 531.196645 130.154805 
L 532.285213 79.037922 
L 533.373781 123.297662 
L 534.462349 122.050909 
L 535.550917 95.245714 
L 536.639485 95.869091 
L 537.728053 117.687273 
L 539.905189 130.154805 
L 540.993757 127.661299 
L 542.082325 130.154805 
L 543.170893 125.167792 
L 544.259462 124.544416 
L 545.34803 75.297662 
L 546.436598 50.985974 
L 547.525166 110.206753 
L 548.613734 130.154805 
L 549.702302 120.804156 
L 550.79087 128.908052 
L 551.879438 129.531429 
L 552.968006 129.531429 
L 554.056574 130.778182 
L 555.145142 130.778182 
L 556.23371 130.154805 
L 557.322279 130.154805 
L 558.410847 130.778182 
L 559.499415 130.154805 
L 560.587983 130.778182 
L 562.765119 130.778182 
L 563.853687 129.531429 
L 564.942255 129.531429 
L 566.030823 130.778182 
L 567.119391 130.778182 
L 568.207959 130.154805 
L 569.296528 130.778182 
L 570.385096 130.154805 
L 571.473664 130.778182 
L 572.562232 130.154805 
L 573.6508 128.908052 
L 574.739368 130.778182 
L 575.827936 130.154805 
L 576.916504 130.778182 
L 578.005072 130.778182 
L 579.09364 129.531429 
L 580.182208 129.531429 
L 581.270776 128.284675 
L 582.359345 123.297662 
L 583.447913 128.284675 
L 584.536481 130.154805 
L 585.625049 130.778182 
L 586.713617 129.531429 
L 587.802185 125.791169 
L 588.890753 120.180779 
L 589.979321 130.778182 
L 591.067889 130.778182 
L 592.156457 130.154805 
L 593.245025 130.778182 
L 594.333593 130.778182 
L 595.422162 123.297662 
L 596.51073 130.778182 
L 597.599298 123.297662 
L 598.687866 124.544416 
L 599.776434 130.778182 
L 600.865002 130.154805 
L 601.95357 113.323636 
L 603.042138 130.154805 
L 604.130706 104.596364 
L 605.219274 105.21974 
L 606.307842 123.921039 
L 607.39641 69.687273 
L 608.484979 105.21974 
L 609.573547 128.284675 
L 610.662115 130.778182 
L 612.839251 129.531429 
L 613.927819 130.154805 
L 615.016387 102.726234 
L 616.104955 128.908052 
L 617.193523 130.778182 
L 618.282091 130.154805 
L 619.370659 120.180779 
L 620.459227 130.778182 
L 622.636364 130.778182 
L 622.636364 130.778182 
" clip-path="url(#p940736b8e1)" style="fill: none; stroke: #1f77b4; stroke-width: 1.5; stroke-linecap: square"/>
   </g>
   <g id="line2d_11">
    <path d="M 115.363636 127.661299 
L 116.452204 128.284675 
L 117.540773 130.778182 
L 118.629341 130.778182 
L 119.717909 129.531429 
L 120.806477 129.531429 
L 121.895045 130.154805 
L 122.983613 128.284675 
L 124.072181 130.778182 
L 125.160749 130.778182 
L 126.249317 124.544416 
L 127.337885 129.531429 
L 128.426453 130.778182 
L 129.515021 128.908052 
L 130.60359 128.908052 
L 131.692158 129.531429 
L 132.780726 130.778182 
L 133.869294 129.531429 
L 134.957862 128.908052 
L 136.04643 130.154805 
L 137.134998 130.778182 
L 138.223566 130.154805 
L 139.312134 130.778182 
L 140.400702 129.531429 
L 142.577838 130.778182 
L 143.666407 130.154805 
L 144.754975 130.778182 
L 145.843543 130.154805 
L 146.932111 125.791169 
L 148.020679 127.661299 
L 149.109247 130.154805 
L 150.197815 125.167792 
L 151.286383 130.778182 
L 159.994928 130.778182 
L 161.083496 130.154805 
L 162.172064 130.778182 
L 169.792041 130.778182 
L 170.880609 129.531429 
L 171.969177 130.778182 
L 173.057745 130.778182 
L 175.234881 129.531429 
L 176.323449 130.778182 
L 178.500585 130.778182 
L 179.589153 124.544416 
L 180.677721 130.778182 
L 181.76629 130.778182 
L 182.854858 130.154805 
L 183.943426 128.908052 
L 185.031994 130.154805 
L 186.120562 129.531429 
L 187.20913 127.037922 
L 188.297698 129.531429 
L 189.386266 130.778182 
L 190.474834 130.154805 
L 191.563402 130.778182 
L 192.65197 130.154805 
L 193.740538 130.778182 
L 194.829107 129.531429 
L 197.006243 129.531429 
L 198.094811 130.778182 
L 199.183379 130.778182 
L 202.449083 127.037922 
L 203.537651 129.531429 
L 204.626219 128.284675 
L 205.714787 130.778182 
L 206.803355 127.037922 
L 207.891924 128.908052 
L 208.980492 129.531429 
L 210.06906 128.908052 
L 211.157628 126.414545 
L 212.246196 130.154805 
L 213.334764 128.284675 
L 214.423332 124.544416 
L 215.5119 127.037922 
L 216.600468 123.297662 
L 217.689036 108.96 
L 218.777604 127.661299 
L 219.866172 130.778182 
L 220.954741 129.531429 
L 222.043309 123.921039 
L 224.220445 127.661299 
L 225.309013 122.050909 
L 226.397581 128.908052 
L 227.486149 128.908052 
L 228.574717 130.154805 
L 229.663285 124.544416 
L 230.751853 124.544416 
L 231.840421 130.778182 
L 232.928989 129.531429 
L 234.017558 130.778182 
L 235.106126 128.908052 
L 236.194694 116.440519 
L 237.283262 122.674286 
L 238.37183 124.544416 
L 239.460398 128.284675 
L 240.548966 130.778182 
L 241.637534 127.661299 
L 242.726102 130.154805 
L 243.81467 123.921039 
L 244.903238 129.531429 
L 245.991806 123.921039 
L 247.080375 120.180779 
L 248.168943 123.297662 
L 249.257511 128.284675 
L 250.346079 120.804156 
L 251.434647 125.167792 
L 252.523215 130.154805 
L 253.611783 121.427532 
L 254.700351 128.908052 
L 255.788919 125.791169 
L 256.877487 121.427532 
L 257.966055 125.167792 
L 259.054623 130.778182 
L 260.143192 130.154805 
L 261.23176 130.154805 
L 262.320328 130.778182 
L 263.408896 128.908052 
L 264.497464 129.531429 
L 266.6746 120.804156 
L 267.763168 128.284675 
L 268.851736 130.154805 
L 269.940304 130.778182 
L 271.028872 128.908052 
L 272.11744 117.687273 
L 273.206009 130.778182 
L 274.294577 129.531429 
L 275.383145 130.154805 
L 277.560281 130.154805 
L 278.648849 118.934026 
L 279.737417 128.908052 
L 280.825985 127.037922 
L 281.914553 115.817143 
L 283.003121 120.180779 
L 284.091689 130.154805 
L 285.180258 130.778182 
L 286.268826 125.791169 
L 287.357394 129.531429 
L 288.445962 128.908052 
L 289.53453 130.154805 
L 290.623098 130.154805 
L 291.711666 130.778182 
L 292.800234 123.921039 
L 293.888802 130.778182 
L 294.97737 130.154805 
L 296.065938 128.908052 
L 297.154506 127.037922 
L 298.243075 130.778182 
L 299.331643 128.908052 
L 300.420211 130.778182 
L 301.508779 129.531429 
L 302.597347 129.531429 
L 303.685915 130.778182 
L 305.863051 130.778182 
L 306.951619 127.661299 
L 308.040187 130.778182 
L 309.128755 128.908052 
L 310.217323 125.791169 
L 311.305892 130.778182 
L 312.39446 130.778182 
L 313.483028 130.154805 
L 314.571596 128.908052 
L 317.8373 130.778182 
L 318.925868 130.154805 
L 320.014436 126.414545 
L 321.103004 126.414545 
L 322.191572 127.661299 
L 323.28014 130.778182 
L 324.368709 121.427532 
L 325.457277 130.778182 
L 326.545845 130.154805 
L 327.634413 126.414545 
L 328.722981 125.791169 
L 329.811549 130.778182 
L 330.900117 130.154805 
L 331.988685 123.297662 
L 333.077253 126.414545 
L 334.165821 130.154805 
L 335.254389 128.908052 
L 336.342957 130.778182 
L 337.431526 130.778182 
L 338.520094 130.154805 
L 339.608662 130.778182 
L 340.69723 128.908052 
L 341.785798 129.531429 
L 342.874366 130.778182 
L 346.14007 130.778182 
L 347.228638 128.284675 
L 348.317206 130.154805 
L 349.405774 130.778182 
L 350.494343 130.154805 
L 351.582911 127.661299 
L 352.671479 130.778182 
L 353.760047 130.778182 
L 354.848615 129.531429 
L 355.937183 130.778182 
L 358.114319 129.531429 
L 359.202887 130.778182 
L 360.291455 130.154805 
L 361.380023 130.778182 
L 362.468591 128.908052 
L 363.55716 130.154805 
L 364.645728 129.531429 
L 365.734296 130.778182 
L 367.911432 130.778182 
L 370.088568 129.531429 
L 371.177136 127.037922 
L 372.265704 130.154805 
L 373.354272 130.778182 
L 374.44284 124.544416 
L 375.531409 123.921039 
L 376.619977 130.778182 
L 378.797113 130.778182 
L 380.974249 129.531429 
L 382.062817 130.778182 
L 383.151385 125.791169 
L 384.239953 122.050909 
L 385.328521 130.154805 
L 386.417089 121.427532 
L 387.505657 127.661299 
L 388.594226 130.778182 
L 391.85993 130.778182 
L 392.948498 130.154805 
L 394.037066 130.778182 
L 395.125634 130.778182 
L 396.214202 128.284675 
L 397.30277 114.57039 
L 398.391338 119.557403 
L 399.479906 129.531429 
L 400.568474 123.921039 
L 401.657043 114.57039 
L 402.745611 112.076883 
L 403.834179 112.076883 
L 404.922747 119.557403 
L 406.011315 121.427532 
L 407.099883 124.544416 
L 408.188451 130.778182 
L 409.277019 126.414545 
L 410.365587 130.778182 
L 411.454155 130.778182 
L 412.542723 123.297662 
L 413.631291 129.531429 
L 414.71986 122.674286 
L 415.808428 128.284675 
L 416.896996 126.414545 
L 417.985564 130.154805 
L 419.074132 130.778182 
L 420.1627 128.284675 
L 421.251268 121.427532 
L 422.339836 125.791169 
L 423.428404 126.414545 
L 424.516972 130.154805 
L 425.60554 130.778182 
L 426.694108 130.778182 
L 427.782677 129.531429 
L 428.871245 128.908052 
L 429.959813 127.037922 
L 431.048381 127.037922 
L 432.136949 130.778182 
L 433.225517 130.778182 
L 434.314085 125.167792 
L 435.402653 123.921039 
L 436.491221 130.778182 
L 437.579789 129.531429 
L 438.668357 130.778182 
L 439.756925 127.661299 
L 440.845494 129.531429 
L 441.934062 130.778182 
L 443.02263 130.154805 
L 444.111198 128.908052 
L 445.199766 128.908052 
L 446.288334 122.050909 
L 447.376902 128.908052 
L 448.46547 129.531429 
L 449.554038 126.414545 
L 450.642606 120.180779 
L 451.731174 126.414545 
L 452.819742 127.037922 
L 453.908311 130.154805 
L 454.996879 126.414545 
L 457.174015 112.70026 
L 458.262583 127.661299 
L 459.351151 123.921039 
L 460.439719 130.778182 
L 461.528287 120.804156 
L 462.616855 117.063896 
L 463.705423 128.284675 
L 464.793991 123.921039 
L 465.88256 130.778182 
L 466.971128 130.778182 
L 468.059696 120.180779 
L 469.148264 130.778182 
L 470.236832 116.440519 
L 471.3254 130.154805 
L 472.413968 125.791169 
L 473.502536 130.778182 
L 474.591104 130.778182 
L 475.679672 130.154805 
L 476.76824 130.778182 
L 477.856808 130.154805 
L 478.945377 130.778182 
L 480.033945 126.414545 
L 481.122513 124.544416 
L 482.211081 117.063896 
L 483.299649 127.661299 
L 484.388217 130.778182 
L 485.476785 122.674286 
L 486.565353 130.154805 
L 488.742489 126.414545 
L 489.831057 127.661299 
L 490.919625 128.284675 
L 492.008194 130.778182 
L 493.096762 127.661299 
L 494.18533 122.674286 
L 495.273898 129.531429 
L 496.362466 127.037922 
L 497.451034 127.661299 
L 498.539602 130.778182 
L 499.62817 110.206753 
L 500.716738 123.921039 
L 501.805306 118.310649 
L 502.893874 126.414545 
L 503.982442 112.076883 
L 505.071011 130.778182 
L 506.159579 130.154805 
L 507.248147 118.934026 
L 508.336715 117.063896 
L 509.425283 118.934026 
L 510.513851 128.284675 
L 511.602419 130.778182 
L 512.690987 121.427532 
L 513.779555 113.947013 
L 514.868123 113.323636 
L 515.956691 130.778182 
L 517.045259 127.037922 
L 518.133828 130.778182 
L 519.222396 117.063896 
L 520.310964 129.531429 
L 521.399532 130.778182 
L 523.576668 130.778182 
L 524.665236 128.908052 
L 525.753804 130.154805 
L 526.842372 127.661299 
L 527.93094 128.908052 
L 529.019508 127.661299 
L 530.108076 121.427532 
L 531.196645 130.154805 
L 532.285213 112.076883 
L 533.373781 126.414545 
L 534.462349 125.791169 
L 535.550917 117.687273 
L 536.639485 117.687273 
L 537.728053 125.167792 
L 538.816621 126.414545 
L 539.905189 130.778182 
L 540.993757 128.908052 
L 542.082325 130.778182 
L 543.170893 128.908052 
L 544.259462 128.284675 
L 545.34803 118.310649 
L 546.436598 104.596364 
L 547.525166 122.050909 
L 548.613734 130.154805 
L 549.702302 130.778182 
L 550.79087 128.908052 
L 551.879438 129.531429 
L 552.968006 129.531429 
L 554.056574 130.778182 
L 555.145142 130.778182 
L 556.23371 130.154805 
L 557.322279 130.778182 
L 558.410847 130.778182 
L 559.499415 130.154805 
L 560.587983 130.778182 
L 562.765119 130.778182 
L 563.853687 129.531429 
L 566.030823 130.778182 
L 567.119391 130.778182 
L 568.207959 130.154805 
L 569.296528 130.778182 
L 570.385096 130.154805 
L 571.473664 130.778182 
L 572.562232 130.154805 
L 573.6508 130.154805 
L 574.739368 130.778182 
L 575.827936 130.154805 
L 576.916504 130.778182 
L 578.005072 130.778182 
L 579.09364 129.531429 
L 580.182208 130.154805 
L 581.270776 128.908052 
L 582.359345 127.037922 
L 583.447913 129.531429 
L 585.625049 130.778182 
L 588.890753 127.037922 
L 589.979321 130.778182 
L 591.067889 130.778182 
L 592.156457 130.154805 
L 593.245025 130.778182 
L 594.333593 130.778182 
L 595.422162 128.284675 
L 596.51073 130.778182 
L 597.599298 126.414545 
L 598.687866 127.037922 
L 599.776434 130.778182 
L 600.865002 130.778182 
L 601.95357 123.921039 
L 603.042138 130.778182 
L 604.130706 119.557403 
L 605.219274 119.557403 
L 606.307842 126.414545 
L 607.39641 113.323636 
L 608.484979 120.804156 
L 609.573547 129.531429 
L 610.662115 130.778182 
L 611.750683 130.154805 
L 616.104955 130.154805 
L 617.193523 130.778182 
L 618.282091 130.154805 
L 619.370659 130.154805 
L 620.459227 130.778182 
L 622.636364 130.778182 
L 622.636364 130.778182 
" clip-path="url(#p940736b8e1)" style="fill: none; stroke: #ff7f0e; stroke-width: 1.5; stroke-linecap: square"/>
   </g>
   <g id="patch_3">
    <path d="M 90 135.36 
L 90 34.56 
" style="fill: none; stroke: #000000; stroke-width: 0.8; stroke-linejoin: miter; stroke-linecap: square"/>
   </g>
   <g id="patch_4">
    <path d="M 648 135.36 
L 648 34.56 
" style="fill: none; stroke: #000000; stroke-width: 0.8; stroke-linejoin: miter; stroke-linecap: square"/>
   </g>
   <g id="patch_5">
    <path d="M 90 135.36 
L 648 135.36 
" style="fill: none; stroke: #000000; stroke-width: 0.8; stroke-linejoin: miter; stroke-linecap: square"/>
   </g>
   <g id="patch_6">
    <path d="M 90 34.56 
L 648 34.56 
" style="fill: none; stroke: #000000; stroke-width: 0.8; stroke-linejoin: miter; stroke-linecap: square"/>
   </g>
   <g id="legend_1">
    <g id="patch_7">
     <path d="M 97 71.91625 
L 238.8625 71.91625 
Q 240.8625 71.91625 240.8625 69.91625 
L 240.8625 41.56 
Q 240.8625 39.56 238.8625 39.56 
L 97 39.56 
Q 95 39.56 95 41.56 
L 95 69.91625 
Q 95 71.91625 97 71.91625 
z
" style="fill: #ffffff; opacity: 0.8; stroke: #cccccc; stroke-linejoin: miter"/>
    </g>
    <g id="line2d_12">
     <path d="M 99 47.658437 
L 109 47.658437 
L 119 47.658437 
" style="fill: none; stroke: #1f77b4; stroke-width: 1.5; stroke-linecap: square"/>
    </g>
    <g id="text_11">
     <!-- Total GitHub Clones -->
     <g transform="translate(127 51.158437)scale(0.1 -0.1)">
      <defs>
       <path id="DejaVuSans-54" d="M -19 4666 
L 3928 4666 
L 3928 4134 
L 2272 4134 
L 2272 0 
L 1638 0 
L 1638 4134 
L -19 4134 
L -19 4666 
z
" transform="scale(0.015625)"/>
       <path id="DejaVuSans-6f" d="M 1959 3097 
Q 1497 3097 1228 2736 
Q 959 2375 959 1747 
Q 959 1119 1226 758 
Q 1494 397 1959 397 
Q 2419 397 2687 759 
Q 2956 1122 2956 1747 
Q 2956 2369 2687 2733 
Q 2419 3097 1959 3097 
z
M 1959 3584 
Q 2709 3584 3137 3096 
Q 3566 2609 3566 1747 
Q 3566 888 3137 398 
Q 2709 -91 1959 -91 
Q 1206 -91 779 398 
Q 353 888 353 1747 
Q 353 2609 779 3096 
Q 1206 3584 1959 3584 
z
" transform="scale(0.015625)"/>
       <path id="DejaVuSans-6c" d="M 603 4863 
L 1178 4863 
L 1178 0 
L 603 0 
L 603 4863 
z
" transform="scale(0.015625)"/>
       <path id="DejaVuSans-20" transform="scale(0.015625)"/>
       <path id="DejaVuSans-47" d="M 3809 666 
L 3809 1919 
L 2778 1919 
L 2778 2438 
L 4434 2438 
L 4434 434 
Q 4069 175 3628 42 
Q 3188 -91 2688 -91 
Q 1594 -91 976 548 
Q 359 1188 359 2328 
Q 359 3472 976 4111 
Q 1594 4750 2688 4750 
Q 3144 4750 3555 4637 
Q 3966 4525 4313 4306 
L 4313 3634 
Q 3963 3931 3569 4081 
Q 3175 4231 2741 4231 
Q 1884 4231 1454 3753 
Q 1025 3275 1025 2328 
Q 1025 1384 1454 906 
Q 1884 428 2741 428 
Q 3075 428 3337 486 
Q 3600 544 3809 666 
z
" transform="scale(0.015625)"/>
       <path id="DejaVuSans-69" d="M 603 3500 
L 1178 3500 
L 1178 0 
L 603 0 
L 603 3500 
z
M 603 4863 
L 1178 4863 
L 1178 4134 
L 603 4134 
L 603 4863 
z
" transform="scale(0.015625)"/>
       <path id="DejaVuSans-48" d="M 628 4666 
L 1259 4666 
L 1259 2753 
L 3553 2753 
L 3553 4666 
L 4184 4666 
L 4184 0 
L 3553 0 
L 3553 2222 
L 1259 2222 
L 1259 0 
L 628 0 
L 628 4666 
z
" transform="scale(0.015625)"/>
       <path id="DejaVuSans-75" d="M 544 1381 
L 544 3500 
L 1119 3500 
L 1119 1403 
Q 1119 906 1312 657 
Q 1506 409 1894 409 
Q 2359 409 2629 706 
Q 2900 1003 2900 1516 
L 2900 3500 
L 3475 3500 
L 3475 0 
L 2900 0 
L 2900 538 
Q 2691 219 2414 64 
Q 2138 -91 1772 -91 
Q 1169 -91 856 284 
Q 544 659 544 1381 
z
M 1991 3584 
L 1991 3584 
z
" transform="scale(0.015625)"/>
       <path id="DejaVuSans-62" d="M 3116 1747 
Q 3116 2381 2855 2742 
Q 2594 3103 2138 3103 
Q 1681 3103 1420 2742 
Q 1159 2381 1159 1747 
Q 1159 1113 1420 752 
Q 1681 391 2138 391 
Q 2594 391 2855 752 
Q 3116 1113 3116 1747 
z
M 1159 2969 
Q 1341 3281 1617 3432 
Q 1894 3584 2278 3584 
Q 2916 3584 3314 3078 
Q 3713 2572 3713 1747 
Q 3713 922 3314 415 
Q 2916 -91 2278 -91 
Q 1894 -91 1617 61 
Q 1341 213 1159 525 
L 1159 0 
L 581 0 
L 581 4863 
L 1159 4863 
L 1159 2969 
z
" transform="scale(0.015625)"/>
       <path id="DejaVuSans-43" d="M 4122 4306 
L 4122 3641 
Q 3803 3938 3442 4084 
Q 3081 4231 2675 4231 
Q 1875 4231 1450 3742 
Q 1025 3253 1025 2328 
Q 1025 1406 1450 917 
Q 1875 428 2675 428 
Q 3081 428 3442 575 
Q 3803 722 4122 1019 
L 4122 359 
Q 3791 134 3420 21 
Q 3050 -91 2638 -91 
Q 1578 -91 968 557 
Q 359 1206 359 2328 
Q 359 3453 968 4101 
Q 1578 4750 2638 4750 
Q 3056 4750 3426 4639 
Q 3797 4528 4122 4306 
z
" transform="scale(0.015625)"/>
       <path id="DejaVuSans-6e" d="M 3513 2113 
L 3513 0 
L 2938 0 
L 2938 2094 
Q 2938 2591 2744 2837 
Q 2550 3084 2163 3084 
Q 1697 3084 1428 2787 
Q 1159 2491 1159 1978 
L 1159 0 
L 581 0 
L 581 3500 
L 1159 3500 
L 1159 2956 
Q 1366 3272 1645 3428 
Q 1925 3584 2291 3584 
Q 2894 3584 3203 3211 
Q 3513 2838 3513 2113 
z
" transform="scale(0.015625)"/>
       <path id="DejaVuSans-73" d="M 2834 3397 
L 2834 2853 
Q 2591 2978 2328 3040 
Q 2066 3103 1784 3103 
Q 1356 3103 1142 2972 
Q 928 2841 928 2578 
Q 928 2378 1081 2264 
Q 1234 2150 1697 2047 
L 1894 2003 
Q 2506 1872 2764 1633 
Q 3022 1394 3022 966 
Q 3022 478 2636 193 
Q 2250 -91 1575 -91 
Q 1294 -91 989 -36 
Q 684 19 347 128 
L 347 722 
Q 666 556 975 473 
Q 1284 391 1588 391 
Q 1994 391 2212 530 
Q 2431 669 2431 922 
Q 2431 1156 2273 1281 
Q 2116 1406 1581 1522 
L 1381 1569 
Q 847 1681 609 1914 
Q 372 2147 372 2553 
Q 372 3047 722 3315 
Q 1072 3584 1716 3584 
Q 2034 3584 2315 3537 
Q 2597 3491 2834 3397 
z
" transform="scale(0.015625)"/>
      </defs>
      <use xlink:href="#DejaVuSans-54"/>
      <use xlink:href="#DejaVuSans-6f" x="44.083984"/>
      <use xlink:href="#DejaVuSans-74" x="105.265625"/>
      <use xlink:href="#DejaVuSans-61" x="144.474609"/>
      <use xlink:href="#DejaVuSans-6c" x="205.753906"/>
      <use xlink:href="#DejaVuSans-20" x="233.537109"/>
      <use xlink:href="#DejaVuSans-47" x="265.324219"/>
      <use xlink:href="#DejaVuSans-69" x="342.814453"/>
      <use xlink:href="#DejaVuSans-74" x="370.597656"/>
      <use xlink:href="#DejaVuSans-48" x="409.806641"/>
      <use xlink:href="#DejaVuSans-75" x="485.001953"/>
      <use xlink:href="#DejaVuSans-62" x="548.380859"/>
      <use xlink:href="#DejaVuSans-20" x="611.857422"/>
      <use xlink:href="#DejaVuSans-43" x="643.644531"/>
      <use xlink:href="#DejaVuSans-6c" x="713.46875"/>
      <use xlink:href="#DejaVuSans-6f" x="741.251953"/>
      <use xlink:href="#DejaVuSans-6e" x="802.433594"/>
      <use xlink:href="#DejaVuSans-65" x="865.8125"/>
      <use xlink:href="#DejaVuSans-73" x="927.335938"/>
     </g>
    </g>
    <g id="line2d_13">
     <path d="M 99 62.336562 
L 109 62.336562 
L 119 62.336562 
" style="fill: none; stroke: #ff7f0e; stroke-width: 1.5; stroke-linecap: square"/>
    </g>
    <g id="text_12">
     <!-- Unique GitHub Clones -->
     <g transform="translate(127 65.836562)scale(0.1 -0.1)">
      <defs>
       <path id="DejaVuSans-55" d="M 556 4666 
L 1191 4666 
L 1191 1831 
Q 1191 1081 1462 751 
Q 1734 422 2344 422 
Q 2950 422 3222 751 
Q 3494 1081 3494 1831 
L 3494 4666 
L 4128 4666 
L 4128 1753 
Q 4128 841 3676 375 
Q 3225 -91 2344 -91 
Q 1459 -91 1007 375 
Q 556 841 556 1753 
L 556 4666 
z
" transform="scale(0.015625)"/>
       <path id="DejaVuSans-71" d="M 947 1747 
Q 947 1113 1208 752 
Q 1469 391 1925 391 
Q 2381 391 2643 752 
Q 2906 1113 2906 1747 
Q 2906 2381 2643 2742 
Q 2381 3103 1925 3103 
Q 1469 3103 1208 2742 
Q 947 2381 947 1747 
z
M 2906 525 
Q 2725 213 2448 61 
Q 2172 -91 1784 -91 
Q 1150 -91 751 415 
Q 353 922 353 1747 
Q 353 2572 751 3078 
Q 1150 3584 1784 3584 
Q 2172 3584 2448 3432 
Q 2725 3281 2906 2969 
L 2906 3500 
L 3481 3500 
L 3481 -1331 
L 2906 -1331 
L 2906 525 
z
" transform="scale(0.015625)"/>
      </defs>
      <use xlink:href="#DejaVuSans-55"/>
      <use xlink:href="#DejaVuSans-6e" x="73.193359"/>
      <use xlink:href="#DejaVuSans-69" x="136.572266"/>
      <use xlink:href="#DejaVuSans-71" x="164.355469"/>
      <use xlink:href="#DejaVuSans-75" x="227.832031"/>
      <use xlink:href="#DejaVuSans-65" x="291.210938"/>
      <use xlink:href="#DejaVuSans-20" x="352.734375"/>
      <use xlink:href="#DejaVuSans-47" x="384.521484"/>
      <use xlink:href="#DejaVuSans-69" x="462.011719"/>
      <use xlink:href="#DejaVuSans-74" x="489.794922"/>
      <use xlink:href="#DejaVuSans-48" x="529.003906"/>
      <use xlink:href="#DejaVuSans-75" x="604.199219"/>
      <use xlink:href="#DejaVuSans-62" x="667.578125"/>
      <use xlink:href="#DejaVuSans-20" x="731.054688"/>
      <use xlink:href="#DejaVuSans-43" x="762.841797"/>
      <use xlink:href="#DejaVuSans-6c" x="832.666016"/>
      <use xlink:href="#DejaVuSans-6f" x="860.449219"/>
      <use xlink:href="#DejaVuSans-6e" x="921.630859"/>
      <use xlink:href="#DejaVuSans-65" x="985.009766"/>
      <use xlink:href="#DejaVuSans-73" x="1046.533203"/>
     </g>
    </g>
   </g>
  </g>
  <g id="axes_2">
   <g id="patch_8">
    <path d="M 90 256.32 
L 648 256.32 
L 648 155.52 
L 90 155.52 
z
" style="fill: #ffffff"/>
   </g>
   <g id="matplotlib.axis_3">
    <g id="xtick_6">
     <g id="line2d_14">
      <g>
       <use xlink:href="#mcaa2354aec" x="115.363636" y="256.32" style="stroke: #000000; stroke-width: 0.8"/>
      </g>
     </g>
     <g id="text_13">
      <!-- 2020-10-21 -->
      <g transform="translate(86.305824 270.918437)scale(0.1 -0.1)">
       <use xlink:href="#DejaVuSans-32"/>
       <use xlink:href="#DejaVuSans-30" x="63.623047"/>
       <use xlink:href="#DejaVuSans-32" x="127.246094"/>
       <use xlink:href="#DejaVuSans-30" x="190.869141"/>
       <use xlink:href="#DejaVuSans-2d" x="254.492188"/>
       <use xlink:href="#DejaVuSans-31" x="290.576172"/>
       <use xlink:href="#DejaVuSans-30" x="354.199219"/>
       <use xlink:href="#DejaVuSans-2d" x="417.822266"/>
       <use xlink:href="#DejaVuSans-32" x="453.90625"/>
       <use xlink:href="#DejaVuSans-31" x="517.529297"/>
      </g>
     </g>
    </g>
    <g id="xtick_7">
     <g id="line2d_15">
      <g>
       <use xlink:href="#mcaa2354aec" x="200.907098" y="256.32" style="stroke: #000000; stroke-width: 0.8"/>
      </g>
     </g>
     <g id="text_14">
      <!-- 2021-01-31 -->
      <g transform="translate(171.849285 270.918437)scale(0.1 -0.1)">
       <use xlink:href="#DejaVuSans-32"/>
       <use xlink:href="#DejaVuSans-30" x="63.623047"/>
       <use xlink:href="#DejaVuSans-32" x="127.246094"/>
       <use xlink:href="#DejaVuSans-31" x="190.869141"/>
       <use xlink:href="#DejaVuSans-2d" x="254.492188"/>
       <use xlink:href="#DejaVuSans-30" x="290.576172"/>
       <use xlink:href="#DejaVuSans-31" x="354.199219"/>
       <use xlink:href="#DejaVuSans-2d" x="417.822266"/>
       <use xlink:href="#DejaVuSans-33" x="453.90625"/>
       <use xlink:href="#DejaVuSans-31" x="517.529297"/>
      </g>
     </g>
    </g>
    <g id="xtick_8">
     <g id="line2d_16">
      <g>
       <use xlink:href="#mcaa2354aec" x="286.45056" y="256.32" style="stroke: #000000; stroke-width: 0.8"/>
      </g>
     </g>
     <g id="text_15">
      <!-- 2021-05-11 -->
      <g transform="translate(257.392747 270.918437)scale(0.1 -0.1)">
       <use xlink:href="#DejaVuSans-32"/>
       <use xlink:href="#DejaVuSans-30" x="63.623047"/>
       <use xlink:href="#DejaVuSans-32" x="127.246094"/>
       <use xlink:href="#DejaVuSans-31" x="190.869141"/>
       <use xlink:href="#DejaVuSans-2d" x="254.492188"/>
       <use xlink:href="#DejaVuSans-30" x="290.576172"/>
       <use xlink:href="#DejaVuSans-35" x="354.199219"/>
       <use xlink:href="#DejaVuSans-2d" x="417.822266"/>
       <use xlink:href="#DejaVuSans-31" x="453.90625"/>
       <use xlink:href="#DejaVuSans-31" x="517.529297"/>
      </g>
     </g>
    </g>
    <g id="xtick_9">
     <g id="line2d_17">
      <g>
       <use xlink:href="#mcaa2354aec" x="371.994021" y="256.32" style="stroke: #000000; stroke-width: 0.8"/>
      </g>
     </g>
     <g id="text_16">
      <!-- 2021-08-19 -->
      <g transform="translate(342.936209 270.918437)scale(0.1 -0.1)">
       <defs>
        <path id="DejaVuSans-39" d="M 703 97 
L 703 672 
Q 941 559 1184 500 
Q 1428 441 1663 441 
Q 2288 441 2617 861 
Q 2947 1281 2994 2138 
Q 2813 1869 2534 1725 
Q 2256 1581 1919 1581 
Q 1219 1581 811 2004 
Q 403 2428 403 3163 
Q 403 3881 828 4315 
Q 1253 4750 1959 4750 
Q 2769 4750 3195 4129 
Q 3622 3509 3622 2328 
Q 3622 1225 3098 567 
Q 2575 -91 1691 -91 
Q 1453 -91 1209 -44 
Q 966 3 703 97 
z
M 1959 2075 
Q 2384 2075 2632 2365 
Q 2881 2656 2881 3163 
Q 2881 3666 2632 3958 
Q 2384 4250 1959 4250 
Q 1534 4250 1286 3958 
Q 1038 3666 1038 3163 
Q 1038 2656 1286 2365 
Q 1534 2075 1959 2075 
z
" transform="scale(0.015625)"/>
       </defs>
       <use xlink:href="#DejaVuSans-32"/>
       <use xlink:href="#DejaVuSans-30" x="63.623047"/>
       <use xlink:href="#DejaVuSans-32" x="127.246094"/>
       <use xlink:href="#DejaVuSans-31" x="190.869141"/>
       <use xlink:href="#DejaVuSans-2d" x="254.492188"/>
       <use xlink:href="#DejaVuSans-30" x="290.576172"/>
       <use xlink:href="#DejaVuSans-38" x="354.199219"/>
       <use xlink:href="#DejaVuSans-2d" x="417.822266"/>
       <use xlink:href="#DejaVuSans-31" x="453.90625"/>
       <use xlink:href="#DejaVuSans-39" x="517.529297"/>
      </g>
     </g>
    </g>
    <g id="xtick_10">
     <g id="line2d_18">
      <g>
       <use xlink:href="#mcaa2354aec" x="457.537483" y="256.32" style="stroke: #000000; stroke-width: 0.8"/>
      </g>
     </g>
     <g id="text_17">
      <!-- 2021-11-28 -->
      <g transform="translate(428.47967 270.918437)scale(0.1 -0.1)">
       <use xlink:href="#DejaVuSans-32"/>
       <use xlink:href="#DejaVuSans-30" x="63.623047"/>
       <use xlink:href="#DejaVuSans-32" x="127.246094"/>
       <use xlink:href="#DejaVuSans-31" x="190.869141"/>
       <use xlink:href="#DejaVuSans-2d" x="254.492188"/>
       <use xlink:href="#DejaVuSans-31" x="290.576172"/>
       <use xlink:href="#DejaVuSans-31" x="354.199219"/>
       <use xlink:href="#DejaVuSans-2d" x="417.822266"/>
       <use xlink:href="#DejaVuSans-32" x="453.90625"/>
       <use xlink:href="#DejaVuSans-38" x="517.529297"/>
      </g>
     </g>
    </g>
    <g id="xtick_11">
     <g id="line2d_19">
      <g>
       <use xlink:href="#mcaa2354aec" x="543.080944" y="256.32" style="stroke: #000000; stroke-width: 0.8"/>
      </g>
     </g>
     <g id="text_18">
      <!-- 2022-03-10 -->
      <g transform="translate(514.023132 270.918437)scale(0.1 -0.1)">
       <use xlink:href="#DejaVuSans-32"/>
       <use xlink:href="#DejaVuSans-30" x="63.623047"/>
       <use xlink:href="#DejaVuSans-32" x="127.246094"/>
       <use xlink:href="#DejaVuSans-32" x="190.869141"/>
       <use xlink:href="#DejaVuSans-2d" x="254.492188"/>
       <use xlink:href="#DejaVuSans-30" x="290.576172"/>
       <use xlink:href="#DejaVuSans-33" x="354.199219"/>
       <use xlink:href="#DejaVuSans-2d" x="417.822266"/>
       <use xlink:href="#DejaVuSans-31" x="453.90625"/>
       <use xlink:href="#DejaVuSans-30" x="517.529297"/>
      </g>
     </g>
    </g>
    <g id="xtick_12">
     <g id="line2d_20">
      <g>
       <use xlink:href="#mcaa2354aec" x="628.624406" y="256.32" style="stroke: #000000; stroke-width: 0.8"/>
      </g>
     </g>
    </g>
    <g id="text_19">
     <!-- _date -->
     <g transform="translate(355.225 284.596563)scale(0.1 -0.1)">
      <use xlink:href="#DejaVuSans-5f"/>
      <use xlink:href="#DejaVuSans-64" x="50"/>
      <use xlink:href="#DejaVuSans-61" x="113.476562"/>
      <use xlink:href="#DejaVuSans-74" x="174.755859"/>
      <use xlink:href="#DejaVuSans-65" x="213.964844"/>
     </g>
    </g>
   </g>
   <g id="matplotlib.axis_4">
    <g id="ytick_5">
     <g id="line2d_21">
      <g>
       <use xlink:href="#m7fc5fea7e9" x="90" y="252.006124" style="stroke: #000000; stroke-width: 0.8"/>
      </g>
     </g>
     <g id="text_20">
      <!-- 0 -->
      <g transform="translate(76.6375 255.805343)scale(0.1 -0.1)">
       <use xlink:href="#DejaVuSans-30"/>
      </g>
     </g>
    </g>
    <g id="ytick_6">
     <g id="line2d_22">
      <g>
       <use xlink:href="#m7fc5fea7e9" x="90" y="225.211866" style="stroke: #000000; stroke-width: 0.8"/>
      </g>
     </g>
     <g id="text_21">
      <!-- 100 -->
      <g transform="translate(63.9125 229.011085)scale(0.1 -0.1)">
       <use xlink:href="#DejaVuSans-31"/>
       <use xlink:href="#DejaVuSans-30" x="63.623047"/>
       <use xlink:href="#DejaVuSans-30" x="127.246094"/>
      </g>
     </g>
    </g>
    <g id="ytick_7">
     <g id="line2d_23">
      <g>
       <use xlink:href="#m7fc5fea7e9" x="90" y="198.417608" style="stroke: #000000; stroke-width: 0.8"/>
      </g>
     </g>
     <g id="text_22">
      <!-- 200 -->
      <g transform="translate(63.9125 202.216826)scale(0.1 -0.1)">
       <use xlink:href="#DejaVuSans-32"/>
       <use xlink:href="#DejaVuSans-30" x="63.623047"/>
       <use xlink:href="#DejaVuSans-30" x="127.246094"/>
      </g>
     </g>
    </g>
    <g id="ytick_8">
     <g id="line2d_24">
      <g>
       <use xlink:href="#m7fc5fea7e9" x="90" y="171.623349" style="stroke: #000000; stroke-width: 0.8"/>
      </g>
     </g>
     <g id="text_23">
      <!-- 300 -->
      <g transform="translate(63.9125 175.422568)scale(0.1 -0.1)">
       <use xlink:href="#DejaVuSans-33"/>
       <use xlink:href="#DejaVuSans-30" x="63.623047"/>
       <use xlink:href="#DejaVuSans-30" x="127.246094"/>
      </g>
     </g>
    </g>
   </g>
   <g id="line2d_25">
    <path d="M 115.363636 251.738182 
L 116.219071 231.910431 
L 117.074506 229.498947 
L 117.92994 244.771675 
L 118.785375 251.470239 
L 119.640809 239.412823 
L 120.496244 239.14488 
L 121.351679 235.393684 
L 122.207113 239.14488 
L 123.062548 239.948708 
L 123.917983 250.666411 
L 124.773417 248.522871 
L 125.628852 247.719043 
L 126.484286 239.948708 
L 127.339721 213.690335 
L 128.195156 227.355407 
L 129.05059 244.235789 
L 129.906025 247.4511 
L 130.761459 251.202297 
L 132.472329 225.747751 
L 133.327763 246.111388 
L 134.183198 243.699904 
L 135.038633 237.537225 
L 135.894067 237.537225 
L 136.749502 249.862584 
L 137.604936 237.805167 
L 138.460371 234.321914 
L 139.315806 243.967847 
L 140.17124 243.967847 
L 141.026675 239.412823 
L 141.882109 247.183158 
L 142.737544 249.326699 
L 143.592979 227.623349 
L 144.448413 249.058756 
L 145.303848 248.254928 
L 146.159283 249.862584 
L 147.014717 247.986986 
L 147.870152 251.470239 
L 148.725586 251.470239 
L 149.581021 229.231005 
L 150.436456 217.173589 
L 151.29189 244.235789 
L 152.147325 245.575502 
L 153.002759 227.891292 
L 153.858194 250.934354 
L 154.713629 245.30756 
L 155.569063 242.092249 
L 156.424498 246.37933 
L 157.279933 237.00134 
L 158.135367 247.183158 
L 158.990802 250.934354 
L 159.846236 251.738182 
L 160.701671 244.235789 
L 161.557106 242.628134 
L 162.41254 242.896077 
L 163.267975 241.556364 
L 164.123409 249.058756 
L 164.978844 250.934354 
L 165.834279 250.666411 
L 166.689713 247.4511 
L 167.545148 247.986986 
L 168.400583 243.164019 
L 169.256017 250.130526 
L 170.111452 251.202297 
L 170.966886 251.470239 
L 171.822321 248.522871 
L 172.677756 249.594641 
L 173.53319 250.398469 
L 174.388625 251.738182 
L 175.244059 247.4511 
L 176.099494 247.719043 
L 176.954929 250.934354 
L 177.810363 246.647273 
L 178.665798 243.164019 
L 179.521233 240.752536 
L 180.376667 247.986986 
L 181.232102 249.058756 
L 182.087536 233.518086 
L 182.942971 250.398469 
L 183.798406 235.125742 
L 184.65384 236.733397 
L 185.509275 240.752536 
L 186.364709 234.589856 
L 187.220144 247.183158 
L 188.075579 235.929569 
L 188.931013 251.202297 
L 189.786448 234.857799 
L 190.641883 236.197512 
L 191.497317 228.159234 
L 192.352752 233.786029 
L 193.208186 240.752536 
L 194.063621 243.431962 
L 194.919056 248.522871 
L 195.77449 230.302775 
L 196.629925 226.015694 
L 197.485359 237.269282 
L 198.340794 235.929569 
L 199.196229 233.518086 
L 200.051663 247.719043 
L 200.907098 248.790813 
L 201.762533 231.374545 
L 202.617967 247.183158 
L 204.328836 234.321914 
L 206.039706 250.934354 
L 206.89514 247.986986 
L 207.750575 236.465455 
L 208.60601 235.929569 
L 209.461444 226.819522 
L 210.316879 242.628134 
L 211.172313 250.398469 
L 212.027748 250.666411 
L 212.883183 249.326699 
L 213.738617 243.164019 
L 214.594052 243.431962 
L 215.449486 247.183158 
L 216.304921 232.178373 
L 217.160356 248.522871 
L 218.01579 242.628134 
L 218.871225 239.948708 
L 219.72666 241.556364 
L 220.582094 227.087464 
L 221.437529 236.733397 
L 222.292963 235.929569 
L 223.148398 240.752536 
L 224.003833 239.14488 
L 224.859267 240.216651 
L 225.714702 187.431962 
L 226.570136 246.111388 
L 227.425571 232.178373 
L 228.281006 235.661627 
L 229.13644 228.427177 
L 229.991875 242.360191 
L 230.84731 202.972632 
L 231.702744 201.364976 
L 232.558179 206.99177 
L 233.413613 230.570718 
L 234.269048 178.321914 
L 235.124483 225.211866 
L 235.979917 246.37933 
L 236.835352 245.575502 
L 237.690786 238.341053 
L 238.546221 232.446316 
L 239.401656 229.231005 
L 240.25709 235.661627 
L 241.112525 225.479809 
L 241.96796 244.235789 
L 242.823394 246.111388 
L 243.678829 208.063541 
L 244.534263 233.786029 
L 245.389698 235.393684 
L 246.245133 246.647273 
L 247.100567 248.790813 
L 247.956002 248.254928 
L 248.811436 234.053971 
L 249.666871 187.967847 
L 250.522306 231.106603 
L 251.37774 235.393684 
L 252.233175 216.369761 
L 253.08861 244.771675 
L 253.944044 248.522871 
L 254.799479 245.30756 
L 255.654913 223.604211 
L 256.510348 239.412823 
L 257.365783 224.943923 
L 258.221217 203.240574 
L 259.076652 234.857799 
L 259.932086 241.824306 
L 260.787521 246.37933 
L 261.642956 180.465455 
L 262.49839 228.963062 
L 263.353825 243.967847 
L 264.20926 236.197512 
L 265.064694 237.537225 
L 265.920129 249.058756 
L 266.775563 247.183158 
L 267.630998 191.183158 
L 268.486433 184.752536 
L 269.341867 201.364976 
L 270.197302 243.431962 
L 271.052736 249.326699 
L 271.908171 237.537225 
L 272.763606 247.719043 
L 274.474475 226.015694 
L 275.32991 167.336268 
L 276.185344 223.872153 
L 277.040779 223.068325 
L 277.896213 227.623349 
L 278.751648 245.843445 
L 279.607083 246.647273 
L 280.462517 221.996555 
L 281.317952 237.00134 
L 282.173386 236.733397 
L 283.028821 227.891292 
L 283.884256 243.699904 
L 284.73969 249.326699 
L 285.595125 201.097033 
L 286.45056 238.07311 
L 287.305994 215.030048 
L 288.161429 209.135311 
L 289.016863 215.565933 
L 289.872298 249.862584 
L 290.727733 249.862584 
L 291.583167 224.140096 
L 292.438602 234.053971 
L 293.294036 233.518086 
L 294.149471 239.680766 
L 295.004906 243.164019 
L 295.86034 248.522871 
L 296.715775 246.37933 
L 297.57121 227.355407 
L 298.426644 244.503732 
L 299.282079 241.020478 
L 300.137513 233.250144 
L 300.992948 239.412823 
L 301.848383 249.862584 
L 302.703817 249.862584 
L 303.559252 243.431962 
L 304.414686 240.752536 
L 305.270121 246.647273 
L 306.125556 241.824306 
L 306.98099 243.967847 
L 307.836425 249.326699 
L 308.69186 247.719043 
L 309.547294 232.178373 
L 310.402729 237.269282 
L 311.258163 172.69512 
L 312.113598 215.833876 
L 312.969033 244.503732 
L 313.824467 242.628134 
L 314.679902 250.130526 
L 315.535337 233.250144 
L 316.390771 235.125742 
L 317.246206 242.360191 
L 318.10164 241.556364 
L 318.957075 236.465455 
L 319.81251 249.862584 
L 320.667944 250.398469 
L 321.523379 196.274067 
L 322.378813 239.948708 
L 323.234248 245.30756 
L 324.089683 247.4511 
L 324.945117 204.312344 
L 325.800552 247.4511 
L 326.655987 248.254928 
L 328.366856 242.360191 
L 329.22229 242.628134 
L 330.077725 225.479809 
L 330.93316 244.771675 
L 331.788594 249.862584 
L 332.644029 243.967847 
L 333.499463 245.575502 
L 334.354898 183.948708 
L 335.210333 200.293206 
L 336.065767 241.020478 
L 336.921202 242.896077 
L 337.776637 245.039617 
L 338.632071 244.503732 
L 339.487506 232.714258 
L 340.34294 242.628134 
L 341.198375 243.699904 
L 342.05381 223.872153 
L 342.909244 239.948708 
L 343.764679 250.398469 
L 344.620113 251.738182 
L 345.475548 245.039617 
L 346.330983 245.575502 
L 347.186417 246.915215 
L 348.041852 243.967847 
L 348.897287 246.37933 
L 349.752721 249.594641 
L 350.608156 251.202297 
L 351.46359 243.967847 
L 352.319025 243.699904 
L 353.17446 231.910431 
L 354.029894 230.302775 
L 354.885329 250.666411 
L 355.740763 246.37933 
L 356.596198 251.738182 
L 357.451633 239.680766 
L 358.307067 240.752536 
L 359.162502 243.164019 
L 360.017937 240.484593 
L 360.873371 248.522871 
L 361.728806 245.843445 
L 362.58424 250.130526 
L 363.439675 237.537225 
L 364.29511 239.412823 
L 365.150544 244.235789 
L 366.005979 241.288421 
L 366.861413 232.446316 
L 367.716848 242.360191 
L 368.572283 248.522871 
L 369.427717 233.518086 
L 370.283152 250.398469 
L 371.138587 246.111388 
L 371.994021 244.503732 
L 372.849456 251.202297 
L 373.70489 250.934354 
L 374.560325 245.039617 
L 375.41576 245.575502 
L 376.271194 233.250144 
L 377.126629 231.642488 
L 377.982063 249.058756 
L 378.837498 249.862584 
L 379.692933 250.398469 
L 380.548367 242.628134 
L 381.403802 228.159234 
L 382.259237 236.465455 
L 383.114671 236.197512 
L 383.970106 245.30756 
L 384.82554 249.862584 
L 385.680975 245.843445 
L 386.53641 246.647273 
L 387.391844 249.862584 
L 388.247279 237.269282 
L 389.102713 247.719043 
L 389.958148 242.628134 
L 390.813583 226.015694 
L 391.669017 250.934354 
L 392.524452 248.254928 
L 393.379887 233.786029 
L 394.235321 216.905646 
L 395.090756 236.733397 
L 395.94619 248.254928 
L 396.801625 247.719043 
L 397.65706 250.398469 
L 398.512494 246.647273 
L 399.367929 232.178373 
L 400.223363 230.570718 
L 401.078798 221.46067 
L 401.934233 233.786029 
L 402.789667 248.522871 
L 403.645102 251.470239 
L 404.500537 248.522871 
L 405.355971 249.862584 
L 406.211406 239.948708 
L 407.06684 189.575502 
L 407.922275 229.498947 
L 408.77771 242.628134 
L 409.633144 241.020478 
L 410.488579 230.83866 
L 411.344013 230.83866 
L 412.199448 220.924785 
L 413.054883 198.417608 
L 413.910317 217.441531 
L 414.765752 246.37933 
L 415.621187 250.666411 
L 416.476621 224.675981 
L 417.332056 228.159234 
L 418.18749 212.618565 
L 419.042925 240.216651 
L 419.89836 236.197512 
L 420.753794 246.111388 
L 421.609229 248.254928 
L 422.464663 215.565933 
L 423.320098 238.608995 
L 424.175533 249.594641 
L 425.030967 223.604211 
L 425.886402 164.924785 
L 426.741837 240.484593 
L 427.597271 235.929569 
L 428.452706 227.891292 
L 429.30814 228.963062 
L 430.163575 242.896077 
L 431.01901 232.446316 
L 431.874444 238.876938 
L 432.729879 246.915215 
L 433.585314 245.843445 
L 434.440748 235.929569 
L 435.296183 249.058756 
L 436.151617 243.431962 
L 437.007052 229.498947 
L 438.717921 250.934354 
L 439.573356 250.130526 
L 440.42879 245.039617 
L 441.284225 231.642488 
L 442.13966 240.752536 
L 442.995094 247.183158 
L 443.850529 247.986986 
L 444.705964 247.986986 
L 445.561398 248.790813 
L 446.416833 239.412823 
L 447.272267 235.661627 
L 448.127702 243.967847 
L 449.838571 237.537225 
L 450.694006 250.130526 
L 451.54944 249.862584 
L 452.404875 234.589856 
L 453.26031 232.982201 
L 454.115744 245.575502 
L 455.826614 250.934354 
L 456.682048 248.522871 
L 457.537483 247.719043 
L 458.392917 244.503732 
L 459.248352 228.69512 
L 460.103787 238.341053 
L 460.959221 238.876938 
L 461.814656 226.819522 
L 462.67009 249.862584 
L 463.525525 228.159234 
L 464.38096 237.269282 
L 465.236394 202.972632 
L 466.091829 239.948708 
L 466.947264 221.996555 
L 467.802698 247.4511 
L 468.658133 248.254928 
L 469.513567 230.034833 
L 470.369002 208.599426 
L 471.224437 234.589856 
L 472.079871 237.269282 
L 472.935306 243.431962 
L 473.79074 233.250144 
L 474.646175 249.058756 
L 475.50161 217.173589 
L 476.357044 235.929569 
L 477.212479 239.948708 
L 478.067914 242.628134 
L 478.923348 242.896077 
L 479.778783 246.915215 
L 480.634217 249.058756 
L 481.489652 245.843445 
L 482.345087 248.790813 
L 483.200521 250.934354 
L 484.055956 249.594641 
L 484.91139 249.326699 
L 485.766825 246.915215 
L 486.62226 217.709474 
L 488.333129 242.092249 
L 489.188564 243.164019 
L 490.043998 249.862584 
L 490.899433 250.934354 
L 491.754867 251.738182 
L 492.610302 243.699904 
L 493.465737 236.733397 
L 494.321171 241.288421 
L 495.176606 219.585072 
L 496.03204 246.915215 
L 496.887475 246.111388 
L 497.74291 250.934354 
L 498.598344 247.719043 
L 499.453779 239.412823 
L 500.309214 244.771675 
L 501.164648 242.092249 
L 502.020083 245.843445 
L 502.875517 250.666411 
L 503.730952 250.130526 
L 504.586387 219.585072 
L 505.441821 220.120957 
L 506.297256 235.929569 
L 507.15269 247.719043 
L 508.008125 217.441531 
L 508.86356 246.915215 
L 509.718994 235.929569 
L 510.574429 212.886507 
L 511.429864 238.07311 
L 512.285298 209.939139 
L 513.140733 198.68555 
L 513.996167 232.714258 
L 514.851602 250.666411 
L 515.707037 249.862584 
L 516.562471 196.809952 
L 517.417906 208.867368 
L 518.27334 223.872153 
L 519.128775 224.675981 
L 519.98421 179.125742 
L 520.839644 243.967847 
L 521.695079 245.575502 
L 522.550514 217.441531 
L 523.405948 226.015694 
L 524.261383 242.628134 
L 525.116817 240.752536 
L 525.972252 226.283636 
L 526.827687 247.719043 
L 527.683121 249.862584 
L 528.538556 225.747751 
L 529.39399 235.929569 
L 530.249425 223.336268 
L 531.10486 232.178373 
L 531.960294 216.369761 
L 532.815729 239.680766 
L 533.671164 248.254928 
L 534.526598 222.264498 
L 535.382033 228.427177 
L 536.237467 231.910431 
L 537.092902 227.623349 
L 537.948337 185.824306 
L 538.803771 223.872153 
L 539.659206 241.288421 
L 540.514641 160.101818 
L 541.370075 200.829091 
L 542.22551 224.943923 
L 543.080944 241.288421 
L 543.936379 239.680766 
L 544.791814 243.967847 
L 545.647248 247.4511 
L 546.502683 211.814737 
L 547.358117 223.068325 
L 548.213552 209.671196 
L 549.068987 213.15445 
L 549.924421 225.211866 
L 550.779856 250.130526 
L 551.635291 249.594641 
L 552.490725 213.422392 
L 553.34616 235.661627 
L 554.201594 222.53244 
L 555.057029 230.570718 
L 555.912464 235.393684 
L 556.767898 242.896077 
L 557.623333 247.719043 
L 558.478767 229.76689 
L 559.334202 236.197512 
L 560.189637 216.637703 
L 561.045071 214.22622 
L 561.900506 242.896077 
L 562.755941 249.058756 
L 563.611375 251.738182 
L 564.46681 239.680766 
L 565.322244 237.805167 
L 566.177679 243.699904 
L 567.033114 235.661627 
L 567.888548 244.235789 
L 568.743983 249.326699 
L 569.599417 250.130526 
L 570.454852 242.896077 
L 571.310287 234.589856 
L 572.165721 247.986986 
L 573.021156 247.986986 
L 573.876591 243.967847 
L 574.732025 240.752536 
L 575.58746 229.498947 
L 576.442894 239.14488 
L 577.298329 238.608995 
L 578.153764 246.37933 
L 579.864633 247.4511 
L 580.720067 250.398469 
L 581.575502 248.790813 
L 583.286371 232.178373 
L 584.141806 234.857799 
L 584.997241 242.896077 
L 585.852675 235.661627 
L 586.70811 249.862584 
L 587.563544 251.470239 
L 588.418979 243.699904 
L 589.274414 246.37933 
L 590.129848 233.786029 
L 590.985283 213.15445 
L 591.840717 244.235789 
L 592.696152 250.666411 
L 593.551587 249.326699 
L 594.407021 240.484593 
L 595.262456 236.733397 
L 596.117891 239.412823 
L 596.973325 238.341053 
L 597.82876 234.857799 
L 598.684194 250.934354 
L 599.539629 241.288421 
L 600.395064 228.159234 
L 601.250498 226.819522 
L 602.105933 245.575502 
L 602.961367 248.254928 
L 603.816802 211.278852 
L 604.672237 247.986986 
L 605.527671 250.666411 
L 606.383106 227.891292 
L 607.238541 246.111388 
L 608.093975 221.192727 
L 608.94941 229.498947 
L 609.804844 246.111388 
L 610.660279 251.470239 
L 611.515714 251.470239 
L 612.371148 249.862584 
L 613.226583 244.503732 
L 614.082017 245.843445 
L 614.937452 243.431962 
L 615.792887 251.470239 
L 616.648321 249.862584 
L 617.503756 251.738182 
L 618.359191 245.575502 
L 619.214625 247.986986 
L 620.07006 244.771675 
L 620.925494 243.164019 
L 621.780929 250.666411 
L 622.636364 251.202297 
L 622.636364 251.202297 
" clip-path="url(#p2bcb73c30b)" style="fill: none; stroke: #1f77b4; stroke-width: 1.5; stroke-linecap: square"/>
   </g>
   <g id="line2d_26">
    <path d="M 115.363636 251.738182 
L 116.219071 249.594641 
L 117.074506 248.522871 
L 117.92994 249.594641 
L 118.785375 251.738182 
L 119.640809 250.130526 
L 120.496244 249.326699 
L 121.351679 249.326699 
L 122.207113 249.058756 
L 123.062548 249.594641 
L 123.917983 251.470239 
L 127.339721 249.326699 
L 128.195156 249.058756 
L 129.05059 250.130526 
L 130.761459 251.738182 
L 131.616894 249.058756 
L 132.472329 249.594641 
L 133.327763 250.666411 
L 134.183198 250.934354 
L 135.038633 250.666411 
L 135.894067 251.470239 
L 136.749502 251.202297 
L 137.604936 250.130526 
L 138.460371 251.202297 
L 139.315806 249.058756 
L 140.17124 249.862584 
L 141.026675 250.398469 
L 141.882109 251.202297 
L 142.737544 251.202297 
L 143.592979 247.719043 
L 144.448413 251.470239 
L 145.303848 251.470239 
L 146.159283 251.202297 
L 147.870152 251.738182 
L 148.725586 251.470239 
L 149.581021 249.594641 
L 150.436456 247.183158 
L 151.29189 248.790813 
L 152.147325 250.130526 
L 153.002759 250.130526 
L 153.858194 251.470239 
L 154.713629 250.398469 
L 155.569063 250.130526 
L 156.424498 250.934354 
L 157.279933 247.986986 
L 158.135367 249.594641 
L 158.990802 251.470239 
L 159.846236 251.738182 
L 160.701671 249.326699 
L 162.41254 249.326699 
L 163.267975 250.130526 
L 164.123409 250.398469 
L 164.978844 251.202297 
L 165.834279 251.470239 
L 166.689713 250.934354 
L 167.545148 250.666411 
L 168.400583 251.202297 
L 170.111452 251.202297 
L 170.966886 251.470239 
L 171.822321 250.934354 
L 173.53319 250.934354 
L 174.388625 251.738182 
L 175.244059 251.202297 
L 176.099494 251.202297 
L 176.954929 250.934354 
L 177.810363 249.862584 
L 178.665798 248.254928 
L 179.521233 250.130526 
L 180.376667 251.202297 
L 181.232102 250.934354 
L 182.087536 250.934354 
L 182.942971 251.202297 
L 183.798406 249.594641 
L 184.65384 248.790813 
L 185.509275 249.862584 
L 186.364709 247.183158 
L 187.220144 249.862584 
L 188.075579 250.398469 
L 188.931013 251.202297 
L 189.786448 250.666411 
L 190.641883 250.666411 
L 191.497317 248.522871 
L 192.352752 249.594641 
L 193.208186 249.326699 
L 194.063621 249.326699 
L 194.919056 250.398469 
L 195.77449 246.37933 
L 196.629925 247.986986 
L 197.485359 249.326699 
L 198.340794 247.719043 
L 199.196229 246.647273 
L 200.051663 250.934354 
L 200.907098 250.666411 
L 201.762533 248.790813 
L 202.617967 250.130526 
L 203.473402 248.254928 
L 204.328836 249.594641 
L 205.184271 249.594641 
L 206.039706 250.934354 
L 206.89514 251.202297 
L 207.750575 249.058756 
L 208.60601 248.254928 
L 209.461444 248.522871 
L 210.316879 250.934354 
L 211.172313 251.470239 
L 212.883183 250.934354 
L 213.738617 250.934354 
L 214.594052 249.594641 
L 215.449486 250.398469 
L 216.304921 249.058756 
L 217.160356 250.934354 
L 218.01579 250.398469 
L 218.871225 250.934354 
L 219.72666 249.326699 
L 220.582094 249.058756 
L 221.437529 249.058756 
L 222.292963 248.254928 
L 223.148398 250.398469 
L 224.003833 250.934354 
L 224.859267 250.934354 
L 225.714702 242.896077 
L 226.570136 249.058756 
L 227.425571 249.058756 
L 228.281006 247.719043 
L 229.13644 249.326699 
L 229.991875 250.666411 
L 230.84731 250.666411 
L 231.702744 246.647273 
L 232.558179 246.915215 
L 233.413613 248.522871 
L 234.269048 246.915215 
L 235.124483 247.719043 
L 235.979917 250.130526 
L 236.835352 250.934354 
L 237.690786 247.719043 
L 238.546221 246.37933 
L 239.401656 247.4511 
L 240.25709 247.719043 
L 241.112525 249.594641 
L 241.96796 251.202297 
L 242.823394 250.130526 
L 243.678829 247.986986 
L 244.534263 247.986986 
L 245.389698 248.790813 
L 246.245133 250.666411 
L 247.956002 251.202297 
L 248.811436 250.130526 
L 249.666871 246.647273 
L 250.522306 247.4511 
L 251.37774 248.790813 
L 252.233175 247.183158 
L 253.08861 249.862584 
L 253.944044 251.202297 
L 255.654913 249.594641 
L 256.510348 248.522871 
L 257.365783 248.790813 
L 258.221217 247.719043 
L 259.076652 249.326699 
L 259.932086 249.594641 
L 260.787521 250.934354 
L 261.642956 245.843445 
L 262.49839 248.254928 
L 263.353825 249.058756 
L 264.20926 249.326699 
L 265.064694 249.326699 
L 265.920129 250.934354 
L 266.775563 250.398469 
L 267.630998 246.111388 
L 268.486433 244.771675 
L 269.341867 247.183158 
L 270.197302 249.058756 
L 271.052736 250.398469 
L 271.908171 249.326699 
L 272.763606 250.398469 
L 273.61904 246.647273 
L 274.474475 246.915215 
L 275.32991 230.302775 
L 276.185344 248.254928 
L 277.040779 246.915215 
L 277.896213 250.666411 
L 278.751648 251.738182 
L 279.607083 249.862584 
L 280.462517 248.522871 
L 281.317952 248.522871 
L 282.173386 248.790813 
L 283.028821 247.986986 
L 284.73969 251.202297 
L 285.595125 249.326699 
L 286.45056 248.522871 
L 287.305994 247.183158 
L 288.161429 247.4511 
L 289.016863 246.111388 
L 289.872298 250.666411 
L 290.727733 251.738182 
L 291.583167 246.111388 
L 292.438602 247.4511 
L 293.294036 249.594641 
L 294.149471 247.719043 
L 295.004906 248.522871 
L 295.86034 251.470239 
L 296.715775 250.398469 
L 297.57121 248.522871 
L 298.426644 249.594641 
L 299.282079 248.254928 
L 300.137513 246.647273 
L 301.848383 250.934354 
L 302.703817 251.202297 
L 303.559252 249.326699 
L 304.414686 247.986986 
L 305.270121 250.130526 
L 306.125556 249.594641 
L 306.98099 249.594641 
L 308.69186 250.130526 
L 309.547294 247.183158 
L 310.402729 249.058756 
L 311.258163 249.058756 
L 312.113598 250.130526 
L 312.969033 249.326699 
L 313.824467 251.202297 
L 314.679902 250.398469 
L 315.535337 248.522871 
L 316.390771 249.326699 
L 317.246206 249.058756 
L 318.10164 248.522871 
L 318.957075 249.326699 
L 319.81251 251.202297 
L 320.667944 250.934354 
L 321.523379 247.719043 
L 322.378813 250.666411 
L 323.234248 249.862584 
L 324.089683 249.326699 
L 324.945117 246.111388 
L 325.800552 251.202297 
L 326.655987 250.666411 
L 327.511421 249.862584 
L 328.366856 250.398469 
L 329.22229 249.058756 
L 330.077725 248.254928 
L 330.93316 249.326699 
L 331.788594 250.934354 
L 332.644029 250.934354 
L 333.499463 249.594641 
L 334.354898 247.4511 
L 335.210333 247.4511 
L 336.065767 250.398469 
L 336.921202 248.790813 
L 337.776637 250.666411 
L 338.632071 249.594641 
L 339.487506 247.986986 
L 340.34294 248.790813 
L 341.198375 248.790813 
L 342.05381 247.986986 
L 342.909244 248.254928 
L 343.764679 251.202297 
L 344.620113 251.738182 
L 345.475548 250.130526 
L 346.330983 250.130526 
L 347.186417 250.398469 
L 348.041852 250.398469 
L 348.897287 250.666411 
L 350.608156 251.738182 
L 351.46359 250.398469 
L 352.319025 249.594641 
L 353.17446 249.862584 
L 354.029894 248.790813 
L 354.885329 251.202297 
L 355.740763 250.398469 
L 356.596198 251.738182 
L 357.451633 250.398469 
L 358.307067 250.398469 
L 359.162502 248.522871 
L 360.017937 247.986986 
L 360.873371 249.594641 
L 361.728806 250.666411 
L 362.58424 250.666411 
L 363.439675 248.790813 
L 364.29511 249.594641 
L 365.150544 249.862584 
L 366.005979 249.862584 
L 366.861413 249.058756 
L 367.716848 249.326699 
L 368.572283 250.666411 
L 369.427717 248.522871 
L 370.283152 251.470239 
L 371.138587 249.862584 
L 371.994021 249.862584 
L 372.849456 251.202297 
L 373.70489 250.934354 
L 374.560325 250.130526 
L 375.41576 250.130526 
L 376.271194 249.326699 
L 377.126629 249.594641 
L 377.982063 251.202297 
L 378.837498 250.934354 
L 379.692933 251.470239 
L 380.548367 250.398469 
L 381.403802 250.130526 
L 382.259237 248.790813 
L 383.114671 249.326699 
L 383.970106 250.398469 
L 384.82554 250.934354 
L 385.680975 250.398469 
L 386.53641 251.470239 
L 387.391844 250.934354 
L 388.247279 249.326699 
L 389.102713 250.130526 
L 389.958148 251.202297 
L 390.813583 248.522871 
L 391.669017 251.470239 
L 392.524452 251.202297 
L 393.379887 248.254928 
L 395.090756 249.326699 
L 395.94619 250.398469 
L 396.801625 249.862584 
L 397.65706 251.202297 
L 398.512494 250.666411 
L 399.367929 247.986986 
L 400.223363 249.862584 
L 401.078798 249.326699 
L 401.934233 249.862584 
L 402.789667 249.862584 
L 403.645102 251.470239 
L 404.500537 251.470239 
L 405.355971 250.934354 
L 406.211406 248.522871 
L 407.922275 248.522871 
L 408.77771 249.862584 
L 409.633144 249.862584 
L 410.488579 249.058756 
L 411.344013 248.790813 
L 412.199448 247.4511 
L 413.054883 249.594641 
L 413.910317 247.719043 
L 414.765752 250.130526 
L 415.621187 251.202297 
L 416.476621 250.398469 
L 417.332056 249.862584 
L 418.18749 248.254928 
L 419.042925 248.522871 
L 419.89836 249.326699 
L 420.753794 249.862584 
L 421.609229 250.130526 
L 422.464663 247.719043 
L 423.320098 248.522871 
L 424.175533 250.666411 
L 425.030967 249.594641 
L 426.741837 249.058756 
L 427.597271 249.594641 
L 428.452706 247.719043 
L 429.30814 250.130526 
L 430.163575 250.398469 
L 431.01901 248.522871 
L 431.874444 249.058756 
L 432.729879 250.934354 
L 433.585314 250.398469 
L 434.440748 249.594641 
L 435.296183 250.934354 
L 436.151617 249.326699 
L 437.007052 248.790813 
L 437.862487 249.058756 
L 438.717921 251.202297 
L 439.573356 251.202297 
L 440.42879 249.326699 
L 441.284225 250.398469 
L 442.13966 247.986986 
L 443.850529 250.130526 
L 444.705964 250.666411 
L 445.561398 250.130526 
L 446.416833 249.058756 
L 447.272267 247.4511 
L 448.127702 248.522871 
L 448.983137 247.986986 
L 449.838571 249.058756 
L 450.694006 250.666411 
L 451.54944 250.934354 
L 452.404875 249.326699 
L 453.26031 250.666411 
L 454.115744 249.862584 
L 454.971179 250.130526 
L 455.826614 251.470239 
L 456.682048 250.934354 
L 457.537483 250.934354 
L 458.392917 251.470239 
L 459.248352 249.594641 
L 460.103787 250.398469 
L 460.959221 249.058756 
L 461.814656 250.666411 
L 462.67009 251.202297 
L 463.525525 249.058756 
L 464.38096 249.594641 
L 465.236394 249.594641 
L 466.091829 246.915215 
L 466.947264 246.647273 
L 467.802698 250.398469 
L 468.658133 250.398469 
L 469.513567 248.790813 
L 470.369002 248.790813 
L 471.224437 249.862584 
L 472.079871 249.326699 
L 472.935306 250.398469 
L 473.79074 250.666411 
L 474.646175 250.666411 
L 475.50161 248.254928 
L 476.357044 249.862584 
L 477.212479 250.666411 
L 478.067914 250.934354 
L 478.923348 249.594641 
L 479.778783 251.738182 
L 480.634217 251.470239 
L 481.489652 250.934354 
L 482.345087 250.934354 
L 483.200521 251.202297 
L 484.055956 250.666411 
L 484.91139 251.202297 
L 485.766825 250.398469 
L 486.62226 244.771675 
L 487.477694 247.4511 
L 488.333129 249.326699 
L 490.899433 250.934354 
L 491.754867 251.738182 
L 492.610302 249.594641 
L 493.465737 249.594641 
L 494.321171 249.058756 
L 495.176606 246.111388 
L 496.03204 250.666411 
L 496.887475 251.738182 
L 497.74291 251.470239 
L 498.598344 250.666411 
L 499.453779 248.254928 
L 500.309214 250.934354 
L 501.164648 250.130526 
L 502.020083 248.522871 
L 502.875517 251.202297 
L 503.730952 251.202297 
L 504.586387 250.130526 
L 505.441821 247.986986 
L 506.297256 248.790813 
L 507.15269 249.862584 
L 508.008125 249.326699 
L 508.86356 250.934354 
L 509.718994 250.666411 
L 510.574429 248.254928 
L 511.429864 249.326699 
L 512.285298 247.183158 
L 513.140733 246.647273 
L 513.996167 247.183158 
L 514.851602 251.202297 
L 515.707037 251.738182 
L 516.562471 247.986986 
L 517.417906 246.111388 
L 518.27334 247.986986 
L 519.128775 246.647273 
L 519.98421 243.431962 
L 520.839644 249.594641 
L 521.695079 249.326699 
L 522.550514 247.4511 
L 523.405948 247.183158 
L 524.261383 248.254928 
L 525.116817 248.790813 
L 525.972252 247.986986 
L 526.827687 249.862584 
L 527.683121 250.934354 
L 528.538556 247.719043 
L 530.249425 248.254928 
L 531.10486 246.915215 
L 531.960294 247.4511 
L 532.815729 247.719043 
L 533.671164 250.666411 
L 534.526598 245.843445 
L 535.382033 245.843445 
L 536.237467 243.967847 
L 537.092902 247.183158 
L 537.948337 247.183158 
L 538.803771 249.862584 
L 539.659206 249.058756 
L 540.514641 247.986986 
L 541.370075 245.843445 
L 542.22551 248.522871 
L 543.080944 249.058756 
L 543.936379 249.326699 
L 544.791814 249.326699 
L 545.647248 249.862584 
L 546.502683 246.647273 
L 547.358117 247.183158 
L 548.213552 245.039617 
L 549.068987 247.986986 
L 549.924421 247.183158 
L 550.779856 250.934354 
L 551.635291 251.202297 
L 552.490725 243.967847 
L 553.34616 247.4511 
L 554.201594 245.575502 
L 555.057029 246.37933 
L 555.912464 249.594641 
L 556.767898 250.398469 
L 557.623333 250.398469 
L 558.478767 248.522871 
L 559.334202 249.326699 
L 560.189637 247.183158 
L 561.045071 246.915215 
L 561.900506 249.594641 
L 562.755941 249.862584 
L 563.611375 251.738182 
L 564.46681 248.522871 
L 565.322244 248.254928 
L 566.177679 249.058756 
L 567.033114 244.771675 
L 567.888548 249.326699 
L 568.743983 251.470239 
L 569.599417 250.934354 
L 570.454852 249.058756 
L 571.310287 249.594641 
L 572.165721 249.594641 
L 573.021156 250.666411 
L 573.876591 250.666411 
L 574.732025 251.202297 
L 575.58746 250.666411 
L 576.442894 249.326699 
L 577.298329 249.058756 
L 578.153764 249.326699 
L 579.009198 250.130526 
L 579.864633 249.594641 
L 580.720067 250.666411 
L 581.575502 249.594641 
L 582.430937 248.790813 
L 583.286371 248.522871 
L 584.141806 248.522871 
L 584.997241 249.862584 
L 585.852675 246.915215 
L 586.70811 251.470239 
L 587.563544 251.470239 
L 588.418979 249.058756 
L 589.274414 250.398469 
L 590.129848 250.398469 
L 590.985283 248.254928 
L 591.840717 249.862584 
L 592.696152 251.202297 
L 593.551587 250.398469 
L 594.407021 249.326699 
L 595.262456 248.522871 
L 596.117891 249.058756 
L 596.973325 247.4511 
L 597.82876 249.594641 
L 598.684194 250.934354 
L 599.539629 250.130526 
L 600.395064 246.647273 
L 601.250498 247.986986 
L 602.105933 250.666411 
L 602.961367 250.130526 
L 603.816802 248.522871 
L 604.672237 250.130526 
L 605.527671 251.470239 
L 606.383106 249.594641 
L 607.238541 250.130526 
L 608.093975 249.594641 
L 608.94941 248.790813 
L 609.804844 250.398469 
L 610.660279 251.470239 
L 611.515714 251.470239 
L 612.371148 250.666411 
L 613.226583 250.130526 
L 614.082017 250.130526 
L 614.937452 249.058756 
L 615.792887 251.470239 
L 616.648321 250.934354 
L 617.503756 251.738182 
L 618.359191 250.398469 
L 619.214625 249.862584 
L 620.07006 249.594641 
L 620.925494 248.522871 
L 621.780929 251.202297 
L 622.636364 251.470239 
L 622.636364 251.470239 
" clip-path="url(#p2bcb73c30b)" style="fill: none; stroke: #ff7f0e; stroke-width: 1.5; stroke-linecap: square"/>
   </g>
   <g id="patch_9">
    <path d="M 90 256.32 
L 90 155.52 
" style="fill: none; stroke: #000000; stroke-width: 0.8; stroke-linejoin: miter; stroke-linecap: square"/>
   </g>
   <g id="patch_10">
    <path d="M 648 256.32 
L 648 155.52 
" style="fill: none; stroke: #000000; stroke-width: 0.8; stroke-linejoin: miter; stroke-linecap: square"/>
   </g>
   <g id="patch_11">
    <path d="M 90 256.32 
L 648 256.32 
" style="fill: none; stroke: #000000; stroke-width: 0.8; stroke-linejoin: miter; stroke-linecap: square"/>
   </g>
   <g id="patch_12">
    <path d="M 90 155.52 
L 648 155.52 
" style="fill: none; stroke: #000000; stroke-width: 0.8; stroke-linejoin: miter; stroke-linecap: square"/>
   </g>
   <g id="legend_2">
    <g id="patch_13">
     <path d="M 503.782812 192.87625 
L 641 192.87625 
Q 643 192.87625 643 190.87625 
L 643 162.52 
Q 643 160.52 641 160.52 
L 503.782812 160.52 
Q 501.782812 160.52 501.782812 162.52 
L 501.782812 190.87625 
Q 501.782812 192.87625 503.782812 192.87625 
z
" style="fill: #ffffff; opacity: 0.8; stroke: #cccccc; stroke-linejoin: miter"/>
    </g>
    <g id="line2d_27">
     <path d="M 505.782812 168.618437 
L 515.782812 168.618437 
L 525.782812 168.618437 
" style="fill: none; stroke: #1f77b4; stroke-width: 1.5; stroke-linecap: square"/>
    </g>
    <g id="text_24">
     <!-- Total GitHub Views -->
     <g transform="translate(533.782812 172.118437)scale(0.1 -0.1)">
      <defs>
       <path id="DejaVuSans-56" d="M 1831 0 
L 50 4666 
L 709 4666 
L 2188 738 
L 3669 4666 
L 4325 4666 
L 2547 0 
L 1831 0 
z
" transform="scale(0.015625)"/>
       <path id="DejaVuSans-77" d="M 269 3500 
L 844 3500 
L 1563 769 
L 2278 3500 
L 2956 3500 
L 3675 769 
L 4391 3500 
L 4966 3500 
L 4050 0 
L 3372 0 
L 2619 2869 
L 1863 0 
L 1184 0 
L 269 3500 
z
" transform="scale(0.015625)"/>
      </defs>
      <use xlink:href="#DejaVuSans-54"/>
      <use xlink:href="#DejaVuSans-6f" x="44.083984"/>
      <use xlink:href="#DejaVuSans-74" x="105.265625"/>
      <use xlink:href="#DejaVuSans-61" x="144.474609"/>
      <use xlink:href="#DejaVuSans-6c" x="205.753906"/>
      <use xlink:href="#DejaVuSans-20" x="233.537109"/>
      <use xlink:href="#DejaVuSans-47" x="265.324219"/>
      <use xlink:href="#DejaVuSans-69" x="342.814453"/>
      <use xlink:href="#DejaVuSans-74" x="370.597656"/>
      <use xlink:href="#DejaVuSans-48" x="409.806641"/>
      <use xlink:href="#DejaVuSans-75" x="485.001953"/>
      <use xlink:href="#DejaVuSans-62" x="548.380859"/>
      <use xlink:href="#DejaVuSans-20" x="611.857422"/>
      <use xlink:href="#DejaVuSans-56" x="643.644531"/>
      <use xlink:href="#DejaVuSans-69" x="709.802734"/>
      <use xlink:href="#DejaVuSans-65" x="737.585938"/>
      <use xlink:href="#DejaVuSans-77" x="799.109375"/>
      <use xlink:href="#DejaVuSans-73" x="880.896484"/>
     </g>
    </g>
    <g id="line2d_28">
     <path d="M 505.782812 183.296562 
L 515.782812 183.296562 
L 525.782812 183.296562 
" style="fill: none; stroke: #ff7f0e; stroke-width: 1.5; stroke-linecap: square"/>
    </g>
    <g id="text_25">
     <!-- Unique GitHub Views -->
     <g transform="translate(533.782812 186.796562)scale(0.1 -0.1)">
      <use xlink:href="#DejaVuSans-55"/>
      <use xlink:href="#DejaVuSans-6e" x="73.193359"/>
      <use xlink:href="#DejaVuSans-69" x="136.572266"/>
      <use xlink:href="#DejaVuSans-71" x="164.355469"/>
      <use xlink:href="#DejaVuSans-75" x="227.832031"/>
      <use xlink:href="#DejaVuSans-65" x="291.210938"/>
      <use xlink:href="#DejaVuSans-20" x="352.734375"/>
      <use xlink:href="#DejaVuSans-47" x="384.521484"/>
      <use xlink:href="#DejaVuSans-69" x="462.011719"/>
      <use xlink:href="#DejaVuSans-74" x="489.794922"/>
      <use xlink:href="#DejaVuSans-48" x="529.003906"/>
      <use xlink:href="#DejaVuSans-75" x="604.199219"/>
      <use xlink:href="#DejaVuSans-62" x="667.578125"/>
      <use xlink:href="#DejaVuSans-20" x="731.054688"/>
      <use xlink:href="#DejaVuSans-56" x="762.841797"/>
      <use xlink:href="#DejaVuSans-69" x="829"/>
      <use xlink:href="#DejaVuSans-65" x="856.783203"/>
      <use xlink:href="#DejaVuSans-77" x="918.306641"/>
      <use xlink:href="#DejaVuSans-73" x="1000.09375"/>
     </g>
    </g>
   </g>
  </g>
 </g>
 <defs>
  <clipPath id="p940736b8e1">
   <rect x="90" y="34.56" width="558" height="100.8"/>
  </clipPath>
  <clipPath id="p2bcb73c30b">
   <rect x="90" y="155.52" width="558" height="100.8"/>
  </clipPath>
 </defs>
</svg>
