<?xml version="1.0" encoding="utf-8" standalone="no"?>
<!DOCTYPE svg PUBLIC "-//W3C//DTD SVG 1.1//EN"
  "http://www.w3.org/Graphics/SVG/1.1/DTD/svg11.dtd">
<svg height="288pt" version="1.1" viewBox="0 0 720 288" width="720pt" xmlns="http://www.w3.org/2000/svg" xmlns:xlink="http://www.w3.org/1999/xlink">
 <metadata>
  <rdf:RDF xmlns:cc="http://creativecommons.org/ns#" xmlns:dc="http://purl.org/dc/elements/1.1/" xmlns:rdf="http://www.w3.org/1999/02/22-rdf-syntax-ns#">
   <cc:Work>
    <dc:type rdf:resource="http://purl.org/dc/dcmitype/StillImage"/>
    <dc:date>2021-10-25T00:29:18.626298</dc:date>
    <dc:format>image/svg+xml</dc:format>
    <dc:creator>
     <cc:Agent>
      <dc:title>Matplotlib v3.4.3, https://matplotlib.org/</dc:title>
     </cc:Agent>
    </dc:creator>
   </cc:Work>
  </rdf:RDF>
 </metadata>
 <defs>
  <style type="text/css">*{stroke-linecap:butt;stroke-linejoin:round;}</style>
 </defs>
 <g id="figure_1">
  <g id="patch_1">
   <path d="M 0 288 
L 720 288 
L 720 0 
L 0 0 
z
" style="fill:#ffffff;"/>
  </g>
  <g id="axes_1">
   <g id="patch_2">
    <path d="M 90 135.36 
L 648 135.36 
L 648 34.56 
L 90 34.56 
z
" style="fill:#ffffff;"/>
   </g>
   <g id="matplotlib.axis_1">
    <g id="xtick_1">
     <g id="line2d_1">
      <defs>
       <path d="M 0 0 
L 0 3.5 
" id="m14e33a1c78" style="stroke:#000000;stroke-width:0.8;"/>
      </defs>
      <g>
       <use style="stroke:#000000;stroke-width:0.8;" x="115.363636" xlink:href="#m14e33a1c78" y="135.36"/>
      </g>
     </g>
     <g id="text_1">
      <!-- 2020-10-22 -->
      <g transform="translate(86.305824 149.958437)scale(0.1 -0.1)">
       <defs>
        <path d="M 1228 531 
L 3431 531 
L 3431 0 
L 469 0 
L 469 531 
Q 828 903 1448 1529 
Q 2069 2156 2228 2338 
Q 2531 2678 2651 2914 
Q 2772 3150 2772 3378 
Q 2772 3750 2511 3984 
Q 2250 4219 1831 4219 
Q 1534 4219 1204 4116 
Q 875 4013 500 3803 
L 500 4441 
Q 881 4594 1212 4672 
Q 1544 4750 1819 4750 
Q 2544 4750 2975 4387 
Q 3406 4025 3406 3419 
Q 3406 3131 3298 2873 
Q 3191 2616 2906 2266 
Q 2828 2175 2409 1742 
Q 1991 1309 1228 531 
z
" id="DejaVuSans-32" transform="scale(0.015625)"/>
        <path d="M 2034 4250 
Q 1547 4250 1301 3770 
Q 1056 3291 1056 2328 
Q 1056 1369 1301 889 
Q 1547 409 2034 409 
Q 2525 409 2770 889 
Q 3016 1369 3016 2328 
Q 3016 3291 2770 3770 
Q 2525 4250 2034 4250 
z
M 2034 4750 
Q 2819 4750 3233 4129 
Q 3647 3509 3647 2328 
Q 3647 1150 3233 529 
Q 2819 -91 2034 -91 
Q 1250 -91 836 529 
Q 422 1150 422 2328 
Q 422 3509 836 4129 
Q 1250 4750 2034 4750 
z
" id="DejaVuSans-30" transform="scale(0.015625)"/>
        <path d="M 313 2009 
L 1997 2009 
L 1997 1497 
L 313 1497 
L 313 2009 
z
" id="DejaVuSans-2d" transform="scale(0.015625)"/>
        <path d="M 794 531 
L 1825 531 
L 1825 4091 
L 703 3866 
L 703 4441 
L 1819 4666 
L 2450 4666 
L 2450 531 
L 3481 531 
L 3481 0 
L 794 0 
L 794 531 
z
" id="DejaVuSans-31" transform="scale(0.015625)"/>
       </defs>
       <use xlink:href="#DejaVuSans-32"/>
       <use x="63.623047" xlink:href="#DejaVuSans-30"/>
       <use x="127.246094" xlink:href="#DejaVuSans-32"/>
       <use x="190.869141" xlink:href="#DejaVuSans-30"/>
       <use x="254.492188" xlink:href="#DejaVuSans-2d"/>
       <use x="290.576172" xlink:href="#DejaVuSans-31"/>
       <use x="354.199219" xlink:href="#DejaVuSans-30"/>
       <use x="417.822266" xlink:href="#DejaVuSans-2d"/>
       <use x="453.90625" xlink:href="#DejaVuSans-32"/>
       <use x="517.529297" xlink:href="#DejaVuSans-32"/>
      </g>
     </g>
    </g>
    <g id="xtick_2">
     <g id="line2d_2">
      <g>
       <use style="stroke:#000000;stroke-width:0.8;" x="198.5231" xlink:href="#m14e33a1c78" y="135.36"/>
      </g>
     </g>
     <g id="text_2">
      <!-- 2021-01-05 -->
      <g transform="translate(169.465287 149.958437)scale(0.1 -0.1)">
       <defs>
        <path d="M 691 4666 
L 3169 4666 
L 3169 4134 
L 1269 4134 
L 1269 2991 
Q 1406 3038 1543 3061 
Q 1681 3084 1819 3084 
Q 2600 3084 3056 2656 
Q 3513 2228 3513 1497 
Q 3513 744 3044 326 
Q 2575 -91 1722 -91 
Q 1428 -91 1123 -41 
Q 819 9 494 109 
L 494 744 
Q 775 591 1075 516 
Q 1375 441 1709 441 
Q 2250 441 2565 725 
Q 2881 1009 2881 1497 
Q 2881 1984 2565 2268 
Q 2250 2553 1709 2553 
Q 1456 2553 1204 2497 
Q 953 2441 691 2322 
L 691 4666 
z
" id="DejaVuSans-35" transform="scale(0.015625)"/>
       </defs>
       <use xlink:href="#DejaVuSans-32"/>
       <use x="63.623047" xlink:href="#DejaVuSans-30"/>
       <use x="127.246094" xlink:href="#DejaVuSans-32"/>
       <use x="190.869141" xlink:href="#DejaVuSans-31"/>
       <use x="254.492188" xlink:href="#DejaVuSans-2d"/>
       <use x="290.576172" xlink:href="#DejaVuSans-30"/>
       <use x="354.199219" xlink:href="#DejaVuSans-31"/>
       <use x="417.822266" xlink:href="#DejaVuSans-2d"/>
       <use x="453.90625" xlink:href="#DejaVuSans-30"/>
       <use x="517.529297" xlink:href="#DejaVuSans-35"/>
      </g>
     </g>
    </g>
    <g id="xtick_3">
     <g id="line2d_3">
      <g>
       <use style="stroke:#000000;stroke-width:0.8;" x="281.682563" xlink:href="#m14e33a1c78" y="135.36"/>
      </g>
     </g>
     <g id="text_3">
      <!-- 2021-03-17 -->
      <g transform="translate(252.624751 149.958437)scale(0.1 -0.1)">
       <defs>
        <path d="M 2597 2516 
Q 3050 2419 3304 2112 
Q 3559 1806 3559 1356 
Q 3559 666 3084 287 
Q 2609 -91 1734 -91 
Q 1441 -91 1130 -33 
Q 819 25 488 141 
L 488 750 
Q 750 597 1062 519 
Q 1375 441 1716 441 
Q 2309 441 2620 675 
Q 2931 909 2931 1356 
Q 2931 1769 2642 2001 
Q 2353 2234 1838 2234 
L 1294 2234 
L 1294 2753 
L 1863 2753 
Q 2328 2753 2575 2939 
Q 2822 3125 2822 3475 
Q 2822 3834 2567 4026 
Q 2313 4219 1838 4219 
Q 1578 4219 1281 4162 
Q 984 4106 628 3988 
L 628 4550 
Q 988 4650 1302 4700 
Q 1616 4750 1894 4750 
Q 2613 4750 3031 4423 
Q 3450 4097 3450 3541 
Q 3450 3153 3228 2886 
Q 3006 2619 2597 2516 
z
" id="DejaVuSans-33" transform="scale(0.015625)"/>
        <path d="M 525 4666 
L 3525 4666 
L 3525 4397 
L 1831 0 
L 1172 0 
L 2766 4134 
L 525 4134 
L 525 4666 
z
" id="DejaVuSans-37" transform="scale(0.015625)"/>
       </defs>
       <use xlink:href="#DejaVuSans-32"/>
       <use x="63.623047" xlink:href="#DejaVuSans-30"/>
       <use x="127.246094" xlink:href="#DejaVuSans-32"/>
       <use x="190.869141" xlink:href="#DejaVuSans-31"/>
       <use x="254.492188" xlink:href="#DejaVuSans-2d"/>
       <use x="290.576172" xlink:href="#DejaVuSans-30"/>
       <use x="354.199219" xlink:href="#DejaVuSans-33"/>
       <use x="417.822266" xlink:href="#DejaVuSans-2d"/>
       <use x="453.90625" xlink:href="#DejaVuSans-31"/>
       <use x="517.529297" xlink:href="#DejaVuSans-37"/>
      </g>
     </g>
    </g>
    <g id="xtick_4">
     <g id="line2d_4">
      <g>
       <use style="stroke:#000000;stroke-width:0.8;" x="364.842027" xlink:href="#m14e33a1c78" y="135.36"/>
      </g>
     </g>
     <g id="text_4">
      <!-- 2021-05-04 -->
      <g transform="translate(335.784214 149.958437)scale(0.1 -0.1)">
       <defs>
        <path d="M 2419 4116 
L 825 1625 
L 2419 1625 
L 2419 4116 
z
M 2253 4666 
L 3047 4666 
L 3047 1625 
L 3713 1625 
L 3713 1100 
L 3047 1100 
L 3047 0 
L 2419 0 
L 2419 1100 
L 313 1100 
L 313 1709 
L 2253 4666 
z
" id="DejaVuSans-34" transform="scale(0.015625)"/>
       </defs>
       <use xlink:href="#DejaVuSans-32"/>
       <use x="63.623047" xlink:href="#DejaVuSans-30"/>
       <use x="127.246094" xlink:href="#DejaVuSans-32"/>
       <use x="190.869141" xlink:href="#DejaVuSans-31"/>
       <use x="254.492188" xlink:href="#DejaVuSans-2d"/>
       <use x="290.576172" xlink:href="#DejaVuSans-30"/>
       <use x="354.199219" xlink:href="#DejaVuSans-35"/>
       <use x="417.822266" xlink:href="#DejaVuSans-2d"/>
       <use x="453.90625" xlink:href="#DejaVuSans-30"/>
       <use x="517.529297" xlink:href="#DejaVuSans-34"/>
      </g>
     </g>
    </g>
    <g id="xtick_5">
     <g id="line2d_5">
      <g>
       <use style="stroke:#000000;stroke-width:0.8;" x="448.00149" xlink:href="#m14e33a1c78" y="135.36"/>
      </g>
     </g>
     <g id="text_5">
      <!-- 2021-06-22 -->
      <g transform="translate(418.943678 149.958437)scale(0.1 -0.1)">
       <defs>
        <path d="M 2113 2584 
Q 1688 2584 1439 2293 
Q 1191 2003 1191 1497 
Q 1191 994 1439 701 
Q 1688 409 2113 409 
Q 2538 409 2786 701 
Q 3034 994 3034 1497 
Q 3034 2003 2786 2293 
Q 2538 2584 2113 2584 
z
M 3366 4563 
L 3366 3988 
Q 3128 4100 2886 4159 
Q 2644 4219 2406 4219 
Q 1781 4219 1451 3797 
Q 1122 3375 1075 2522 
Q 1259 2794 1537 2939 
Q 1816 3084 2150 3084 
Q 2853 3084 3261 2657 
Q 3669 2231 3669 1497 
Q 3669 778 3244 343 
Q 2819 -91 2113 -91 
Q 1303 -91 875 529 
Q 447 1150 447 2328 
Q 447 3434 972 4092 
Q 1497 4750 2381 4750 
Q 2619 4750 2861 4703 
Q 3103 4656 3366 4563 
z
" id="DejaVuSans-36" transform="scale(0.015625)"/>
       </defs>
       <use xlink:href="#DejaVuSans-32"/>
       <use x="63.623047" xlink:href="#DejaVuSans-30"/>
       <use x="127.246094" xlink:href="#DejaVuSans-32"/>
       <use x="190.869141" xlink:href="#DejaVuSans-31"/>
       <use x="254.492188" xlink:href="#DejaVuSans-2d"/>
       <use x="290.576172" xlink:href="#DejaVuSans-30"/>
       <use x="354.199219" xlink:href="#DejaVuSans-36"/>
       <use x="417.822266" xlink:href="#DejaVuSans-2d"/>
       <use x="453.90625" xlink:href="#DejaVuSans-32"/>
       <use x="517.529297" xlink:href="#DejaVuSans-32"/>
      </g>
     </g>
    </g>
    <g id="xtick_6">
     <g id="line2d_6">
      <g>
       <use style="stroke:#000000;stroke-width:0.8;" x="531.160954" xlink:href="#m14e33a1c78" y="135.36"/>
      </g>
     </g>
     <g id="text_6">
      <!-- 2021-08-19 -->
      <g transform="translate(502.103141 149.958437)scale(0.1 -0.1)">
       <defs>
        <path d="M 2034 2216 
Q 1584 2216 1326 1975 
Q 1069 1734 1069 1313 
Q 1069 891 1326 650 
Q 1584 409 2034 409 
Q 2484 409 2743 651 
Q 3003 894 3003 1313 
Q 3003 1734 2745 1975 
Q 2488 2216 2034 2216 
z
M 1403 2484 
Q 997 2584 770 2862 
Q 544 3141 544 3541 
Q 544 4100 942 4425 
Q 1341 4750 2034 4750 
Q 2731 4750 3128 4425 
Q 3525 4100 3525 3541 
Q 3525 3141 3298 2862 
Q 3072 2584 2669 2484 
Q 3125 2378 3379 2068 
Q 3634 1759 3634 1313 
Q 3634 634 3220 271 
Q 2806 -91 2034 -91 
Q 1263 -91 848 271 
Q 434 634 434 1313 
Q 434 1759 690 2068 
Q 947 2378 1403 2484 
z
M 1172 3481 
Q 1172 3119 1398 2916 
Q 1625 2713 2034 2713 
Q 2441 2713 2670 2916 
Q 2900 3119 2900 3481 
Q 2900 3844 2670 4047 
Q 2441 4250 2034 4250 
Q 1625 4250 1398 4047 
Q 1172 3844 1172 3481 
z
" id="DejaVuSans-38" transform="scale(0.015625)"/>
        <path d="M 703 97 
L 703 672 
Q 941 559 1184 500 
Q 1428 441 1663 441 
Q 2288 441 2617 861 
Q 2947 1281 2994 2138 
Q 2813 1869 2534 1725 
Q 2256 1581 1919 1581 
Q 1219 1581 811 2004 
Q 403 2428 403 3163 
Q 403 3881 828 4315 
Q 1253 4750 1959 4750 
Q 2769 4750 3195 4129 
Q 3622 3509 3622 2328 
Q 3622 1225 3098 567 
Q 2575 -91 1691 -91 
Q 1453 -91 1209 -44 
Q 966 3 703 97 
z
M 1959 2075 
Q 2384 2075 2632 2365 
Q 2881 2656 2881 3163 
Q 2881 3666 2632 3958 
Q 2384 4250 1959 4250 
Q 1534 4250 1286 3958 
Q 1038 3666 1038 3163 
Q 1038 2656 1286 2365 
Q 1534 2075 1959 2075 
z
" id="DejaVuSans-39" transform="scale(0.015625)"/>
       </defs>
       <use xlink:href="#DejaVuSans-32"/>
       <use x="63.623047" xlink:href="#DejaVuSans-30"/>
       <use x="127.246094" xlink:href="#DejaVuSans-32"/>
       <use x="190.869141" xlink:href="#DejaVuSans-31"/>
       <use x="254.492188" xlink:href="#DejaVuSans-2d"/>
       <use x="290.576172" xlink:href="#DejaVuSans-30"/>
       <use x="354.199219" xlink:href="#DejaVuSans-38"/>
       <use x="417.822266" xlink:href="#DejaVuSans-2d"/>
       <use x="453.90625" xlink:href="#DejaVuSans-31"/>
       <use x="517.529297" xlink:href="#DejaVuSans-39"/>
      </g>
     </g>
    </g>
    <g id="xtick_7">
     <g id="line2d_7">
      <g>
       <use style="stroke:#000000;stroke-width:0.8;" x="614.320417" xlink:href="#m14e33a1c78" y="135.36"/>
      </g>
     </g>
     <g id="text_7">
      <!-- 2021-10-19 -->
      <g transform="translate(585.262605 149.958437)scale(0.1 -0.1)">
       <use xlink:href="#DejaVuSans-32"/>
       <use x="63.623047" xlink:href="#DejaVuSans-30"/>
       <use x="127.246094" xlink:href="#DejaVuSans-32"/>
       <use x="190.869141" xlink:href="#DejaVuSans-31"/>
       <use x="254.492188" xlink:href="#DejaVuSans-2d"/>
       <use x="290.576172" xlink:href="#DejaVuSans-31"/>
       <use x="354.199219" xlink:href="#DejaVuSans-30"/>
       <use x="417.822266" xlink:href="#DejaVuSans-2d"/>
       <use x="453.90625" xlink:href="#DejaVuSans-31"/>
       <use x="517.529297" xlink:href="#DejaVuSans-39"/>
      </g>
     </g>
    </g>
    <g id="text_8">
     <!-- _date -->
     <g transform="translate(355.225 163.636562)scale(0.1 -0.1)">
      <defs>
       <path d="M 3263 -1063 
L 3263 -1509 
L -63 -1509 
L -63 -1063 
L 3263 -1063 
z
" id="DejaVuSans-5f" transform="scale(0.015625)"/>
       <path d="M 2906 2969 
L 2906 4863 
L 3481 4863 
L 3481 0 
L 2906 0 
L 2906 525 
Q 2725 213 2448 61 
Q 2172 -91 1784 -91 
Q 1150 -91 751 415 
Q 353 922 353 1747 
Q 353 2572 751 3078 
Q 1150 3584 1784 3584 
Q 2172 3584 2448 3432 
Q 2725 3281 2906 2969 
z
M 947 1747 
Q 947 1113 1208 752 
Q 1469 391 1925 391 
Q 2381 391 2643 752 
Q 2906 1113 2906 1747 
Q 2906 2381 2643 2742 
Q 2381 3103 1925 3103 
Q 1469 3103 1208 2742 
Q 947 2381 947 1747 
z
" id="DejaVuSans-64" transform="scale(0.015625)"/>
       <path d="M 2194 1759 
Q 1497 1759 1228 1600 
Q 959 1441 959 1056 
Q 959 750 1161 570 
Q 1363 391 1709 391 
Q 2188 391 2477 730 
Q 2766 1069 2766 1631 
L 2766 1759 
L 2194 1759 
z
M 3341 1997 
L 3341 0 
L 2766 0 
L 2766 531 
Q 2569 213 2275 61 
Q 1981 -91 1556 -91 
Q 1019 -91 701 211 
Q 384 513 384 1019 
Q 384 1609 779 1909 
Q 1175 2209 1959 2209 
L 2766 2209 
L 2766 2266 
Q 2766 2663 2505 2880 
Q 2244 3097 1772 3097 
Q 1472 3097 1187 3025 
Q 903 2953 641 2809 
L 641 3341 
Q 956 3463 1253 3523 
Q 1550 3584 1831 3584 
Q 2591 3584 2966 3190 
Q 3341 2797 3341 1997 
z
" id="DejaVuSans-61" transform="scale(0.015625)"/>
       <path d="M 1172 4494 
L 1172 3500 
L 2356 3500 
L 2356 3053 
L 1172 3053 
L 1172 1153 
Q 1172 725 1289 603 
Q 1406 481 1766 481 
L 2356 481 
L 2356 0 
L 1766 0 
Q 1100 0 847 248 
Q 594 497 594 1153 
L 594 3053 
L 172 3053 
L 172 3500 
L 594 3500 
L 594 4494 
L 1172 4494 
z
" id="DejaVuSans-74" transform="scale(0.015625)"/>
       <path d="M 3597 1894 
L 3597 1613 
L 953 1613 
Q 991 1019 1311 708 
Q 1631 397 2203 397 
Q 2534 397 2845 478 
Q 3156 559 3463 722 
L 3463 178 
Q 3153 47 2828 -22 
Q 2503 -91 2169 -91 
Q 1331 -91 842 396 
Q 353 884 353 1716 
Q 353 2575 817 3079 
Q 1281 3584 2069 3584 
Q 2775 3584 3186 3129 
Q 3597 2675 3597 1894 
z
M 3022 2063 
Q 3016 2534 2758 2815 
Q 2500 3097 2075 3097 
Q 1594 3097 1305 2825 
Q 1016 2553 972 2059 
L 3022 2063 
z
" id="DejaVuSans-65" transform="scale(0.015625)"/>
      </defs>
      <use xlink:href="#DejaVuSans-5f"/>
      <use x="50" xlink:href="#DejaVuSans-64"/>
      <use x="113.476562" xlink:href="#DejaVuSans-61"/>
      <use x="174.755859" xlink:href="#DejaVuSans-74"/>
      <use x="213.964844" xlink:href="#DejaVuSans-65"/>
     </g>
    </g>
   </g>
   <g id="matplotlib.axis_2">
    <g id="ytick_1">
     <g id="line2d_8">
      <defs>
       <path d="M 0 0 
L -3.5 0 
" id="mc69d9d2c24" style="stroke:#000000;stroke-width:0.8;"/>
      </defs>
      <g>
       <use style="stroke:#000000;stroke-width:0.8;" x="90" xlink:href="#mc69d9d2c24" y="131.401558"/>
      </g>
     </g>
     <g id="text_9">
      <!-- 0 -->
      <g transform="translate(76.6375 135.200777)scale(0.1 -0.1)">
       <use xlink:href="#DejaVuSans-30"/>
      </g>
     </g>
    </g>
    <g id="ytick_2">
     <g id="line2d_9">
      <g>
       <use style="stroke:#000000;stroke-width:0.8;" x="90" xlink:href="#mc69d9d2c24" y="100.232727"/>
      </g>
     </g>
     <g id="text_10">
      <!-- 50 -->
      <g transform="translate(70.275 104.031946)scale(0.1 -0.1)">
       <use xlink:href="#DejaVuSans-35"/>
       <use x="63.623047" xlink:href="#DejaVuSans-30"/>
      </g>
     </g>
    </g>
    <g id="ytick_3">
     <g id="line2d_10">
      <g>
       <use style="stroke:#000000;stroke-width:0.8;" x="90" xlink:href="#mc69d9d2c24" y="69.063896"/>
      </g>
     </g>
     <g id="text_11">
      <!-- 100 -->
      <g transform="translate(63.9125 72.863115)scale(0.1 -0.1)">
       <use xlink:href="#DejaVuSans-31"/>
       <use x="63.623047" xlink:href="#DejaVuSans-30"/>
       <use x="127.246094" xlink:href="#DejaVuSans-30"/>
      </g>
     </g>
    </g>
    <g id="ytick_4">
     <g id="line2d_11">
      <g>
       <use style="stroke:#000000;stroke-width:0.8;" x="90" xlink:href="#mc69d9d2c24" y="37.895065"/>
      </g>
     </g>
     <g id="text_12">
      <!-- 150 -->
      <g transform="translate(63.9125 41.694284)scale(0.1 -0.1)">
       <use xlink:href="#DejaVuSans-31"/>
       <use x="63.623047" xlink:href="#DejaVuSans-35"/>
       <use x="127.246094" xlink:href="#DejaVuSans-30"/>
      </g>
     </g>
    </g>
   </g>
   <g id="line2d_12">
    <path clip-path="url(#pf5b977e06d)" d="M 115.363636 127.661299 
L 117.026826 128.284675 
L 118.690015 130.778182 
L 120.353204 130.778182 
L 122.016393 129.531429 
L 123.679583 129.531429 
L 125.342772 120.804156 
L 127.005961 120.804156 
L 128.669151 130.778182 
L 130.33234 130.778182 
L 131.995529 124.544416 
L 133.658718 126.414545 
L 135.321908 130.778182 
L 136.985097 127.661299 
L 138.648286 128.908052 
L 140.311475 128.908052 
L 141.974665 130.778182 
L 145.301043 128.284675 
L 146.964232 130.154805 
L 148.627422 130.778182 
L 150.290611 130.154805 
L 151.9538 130.154805 
L 153.61699 129.531429 
L 155.280179 130.154805 
L 156.943368 130.154805 
L 158.606557 128.908052 
L 160.269747 130.154805 
L 161.932936 130.154805 
L 163.596125 122.674286 
L 165.259314 127.661299 
L 166.922504 130.154805 
L 168.585693 115.817143 
L 170.248882 130.778182 
L 183.554396 130.778182 
L 185.217586 130.154805 
L 186.880775 130.778182 
L 198.5231 130.778182 
L 200.186289 128.908052 
L 201.849478 129.531429 
L 203.512668 130.778182 
L 205.175857 129.531429 
L 206.839046 127.661299 
L 208.502235 130.154805 
L 210.165425 130.154805 
L 211.828614 128.908052 
L 213.491803 120.804156 
L 215.154993 130.154805 
L 216.818182 130.778182 
L 218.481371 130.154805 
L 220.14456 127.037922 
L 221.80775 130.154805 
L 223.470939 129.531429 
L 225.134128 125.167792 
L 226.797317 128.908052 
L 228.460507 127.037922 
L 230.123696 130.154805 
L 231.786885 129.531429 
L 233.450075 130.154805 
L 235.113264 129.531429 
L 238.439642 129.531429 
L 240.102832 128.284675 
L 241.766021 130.778182 
L 243.42921 130.778182 
L 245.092399 128.284675 
L 246.755589 128.284675 
L 248.418778 125.167792 
L 250.081967 129.531429 
L 251.745156 127.661299 
L 253.408346 130.778182 
L 255.071535 125.791169 
L 256.734724 128.908052 
L 258.397914 129.531429 
L 260.061103 128.908052 
L 261.724292 126.414545 
L 263.387481 130.154805 
L 265.050671 128.284675 
L 266.71386 121.427532 
L 268.377049 126.414545 
L 270.040238 120.804156 
L 271.703428 87.141818 
L 273.366617 127.661299 
L 275.029806 130.778182 
L 276.692996 128.908052 
L 278.356185 123.297662 
L 280.019374 124.544416 
L 281.682563 127.661299 
L 283.345753 119.557403 
L 285.008942 128.908052 
L 286.672131 128.908052 
L 288.33532 130.154805 
L 289.99851 122.674286 
L 291.661699 124.544416 
L 293.324888 130.778182 
L 294.988077 129.531429 
L 296.651267 130.778182 
L 298.314456 128.284675 
L 299.977645 100.232727 
L 301.640835 118.310649 
L 303.304024 121.427532 
L 304.967213 127.661299 
L 306.630402 130.778182 
L 308.293592 126.414545 
L 309.956781 128.908052 
L 311.61997 122.674286 
L 313.283159 122.050909 
L 314.946349 128.908052 
L 316.609538 123.297662 
L 318.272727 115.817143 
L 319.935917 122.674286 
L 321.599106 127.661299 
L 323.262295 115.193766 
L 324.925484 115.817143 
L 326.588674 115.193766 
L 328.251863 116.440519 
L 329.915052 92.128831 
L 331.578241 109.583377 
L 333.241431 107.08987 
L 334.90462 107.08987 
L 336.567809 107.713247 
L 338.230999 119.557403 
L 339.894188 110.206753 
L 341.557377 118.934026 
L 343.220566 129.531429 
L 344.883756 130.154805 
L 346.546945 116.440519 
L 348.210134 114.57039 
L 351.536513 115.817143 
L 353.199702 111.453506 
L 354.862891 105.843117 
L 356.52608 128.284675 
L 358.18927 130.154805 
L 359.852459 116.440519 
L 361.515648 117.687273 
L 363.178838 119.557403 
L 364.842027 100.232727 
L 366.505216 115.817143 
L 368.168405 116.440519 
L 369.831595 130.154805 
L 371.494784 128.908052 
L 373.157973 114.57039 
L 374.821162 102.726234 
L 376.484352 102.102857 
L 378.147541 117.063896 
L 379.81073 113.323636 
L 381.47392 95.245714 
L 383.137109 117.063896 
L 384.800298 130.154805 
L 386.463487 114.57039 
L 388.126677 107.713247 
L 389.789866 105.843117 
L 391.453055 102.726234 
L 393.116244 108.96 
L 394.779434 111.453506 
L 396.442623 129.531429 
L 398.105812 115.193766 
L 399.769001 108.336623 
L 401.432191 110.206753 
L 403.09538 115.817143 
L 404.758569 115.193766 
L 406.421759 113.947013 
L 408.084948 125.791169 
L 409.748137 115.817143 
L 413.074516 113.323636 
L 414.737705 115.817143 
L 416.400894 116.440519 
L 418.064083 116.440519 
L 419.727273 130.778182 
L 421.390462 130.778182 
L 423.053651 115.193766 
L 424.716841 112.076883 
L 426.38003 115.193766 
L 428.043219 102.726234 
L 429.706408 105.843117 
L 431.369598 130.778182 
L 433.032787 115.817143 
L 434.695976 113.947013 
L 436.359165 113.323636 
L 438.022355 112.076883 
L 439.685544 117.063896 
L 441.348733 130.154805 
L 443.011923 114.57039 
L 444.675112 115.193766 
L 446.338301 110.83013 
L 448.00149 105.21974 
L 449.66468 104.596364 
L 451.327869 39.141818 
L 454.654247 130.778182 
L 456.317437 118.310649 
L 457.980626 120.180779 
L 459.643815 117.687273 
L 461.307004 117.063896 
L 462.970194 124.544416 
L 464.633383 130.778182 
L 466.296572 130.778182 
L 467.959762 130.154805 
L 469.622951 123.297662 
L 471.28614 125.167792 
L 472.949329 130.154805 
L 474.612519 128.908052 
L 476.275708 130.154805 
L 477.938897 130.778182 
L 479.602086 130.778182 
L 481.265276 130.154805 
L 482.928465 130.778182 
L 484.591654 128.908052 
L 489.581222 130.778182 
L 494.57079 130.778182 
L 496.233979 128.284675 
L 497.897168 128.908052 
L 499.560358 130.154805 
L 501.223547 130.778182 
L 502.886736 130.778182 
L 504.549925 130.154805 
L 506.213115 127.037922 
L 507.876304 130.778182 
L 509.539493 117.063896 
L 511.202683 130.154805 
L 512.865872 129.531429 
L 514.529061 130.778182 
L 517.85544 129.531429 
L 519.518629 130.778182 
L 521.181818 130.154805 
L 522.845007 130.778182 
L 524.508197 128.908052 
L 526.171386 130.154805 
L 527.834575 130.154805 
L 529.497765 129.531429 
L 531.160954 130.778182 
L 534.487332 130.778182 
L 537.813711 129.531429 
L 539.4769 127.037922 
L 541.140089 130.154805 
L 542.803279 130.154805 
L 544.466468 124.544416 
L 546.129657 125.791169 
L 547.792846 122.050909 
L 549.456036 130.778182 
L 552.782414 130.778182 
L 556.108793 129.531429 
L 557.771982 130.154805 
L 559.435171 125.167792 
L 561.098361 113.323636 
L 562.76155 127.661299 
L 564.424739 110.206753 
L 566.087928 112.70026 
L 567.751118 126.414545 
L 569.414307 130.778182 
L 571.077496 130.154805 
L 572.740686 130.778182 
L 576.067064 130.778182 
L 577.730253 130.154805 
L 579.393443 130.778182 
L 581.056632 130.778182 
L 584.38301 128.284675 
L 586.0462 98.362597 
L 587.709389 117.063896 
L 589.372578 129.531429 
L 591.035768 130.154805 
L 592.698957 122.674286 
L 594.362146 98.985974 
L 596.025335 96.492468 
L 597.688525 90.882078 
L 599.351714 104.596364 
L 601.014903 103.972987 
L 602.678092 120.804156 
L 604.341282 122.674286 
L 606.004471 130.778182 
L 607.66766 125.791169 
L 609.330849 130.778182 
L 610.994039 130.778182 
L 612.657228 122.050909 
L 614.320417 129.531429 
L 615.983607 120.804156 
L 617.646796 128.284675 
L 619.309985 121.427532 
L 620.973174 128.908052 
L 622.636364 130.778182 
L 622.636364 130.778182 
" style="fill:none;stroke:#1f77b4;stroke-linecap:square;stroke-width:1.5;"/>
   </g>
   <g id="line2d_13">
    <path clip-path="url(#pf5b977e06d)" d="M 115.363636 127.661299 
L 117.026826 128.284675 
L 118.690015 130.778182 
L 120.353204 130.778182 
L 122.016393 129.531429 
L 123.679583 129.531429 
L 125.342772 130.154805 
L 127.005961 128.284675 
L 128.669151 130.778182 
L 130.33234 130.778182 
L 131.995529 124.544416 
L 133.658718 129.531429 
L 135.321908 130.778182 
L 136.985097 128.908052 
L 138.648286 128.908052 
L 140.311475 129.531429 
L 141.974665 130.778182 
L 143.637854 129.531429 
L 145.301043 128.908052 
L 146.964232 130.154805 
L 148.627422 130.778182 
L 150.290611 130.154805 
L 151.9538 130.778182 
L 153.61699 129.531429 
L 156.943368 130.778182 
L 158.606557 130.154805 
L 160.269747 130.778182 
L 161.932936 130.154805 
L 163.596125 125.791169 
L 165.259314 127.661299 
L 166.922504 130.154805 
L 168.585693 125.167792 
L 170.248882 130.778182 
L 183.554396 130.778182 
L 185.217586 130.154805 
L 186.880775 130.778182 
L 198.5231 130.778182 
L 200.186289 129.531429 
L 201.849478 130.778182 
L 203.512668 130.778182 
L 206.839046 129.531429 
L 208.502235 130.778182 
L 211.828614 130.778182 
L 213.491803 124.544416 
L 215.154993 130.778182 
L 216.818182 130.778182 
L 218.481371 130.154805 
L 220.14456 128.908052 
L 221.80775 130.154805 
L 223.470939 129.531429 
L 225.134128 127.037922 
L 226.797317 129.531429 
L 228.460507 130.778182 
L 230.123696 130.154805 
L 231.786885 130.778182 
L 233.450075 130.154805 
L 235.113264 130.778182 
L 236.776453 129.531429 
L 240.102832 129.531429 
L 241.766021 130.778182 
L 243.42921 130.778182 
L 248.418778 127.037922 
L 250.081967 129.531429 
L 251.745156 128.284675 
L 253.408346 130.778182 
L 255.071535 127.037922 
L 256.734724 128.908052 
L 258.397914 129.531429 
L 260.061103 128.908052 
L 261.724292 126.414545 
L 263.387481 130.154805 
L 265.050671 128.284675 
L 266.71386 124.544416 
L 268.377049 127.037922 
L 270.040238 123.297662 
L 271.703428 108.96 
L 273.366617 127.661299 
L 275.029806 130.778182 
L 276.692996 129.531429 
L 278.356185 123.921039 
L 281.682563 127.661299 
L 283.345753 122.050909 
L 285.008942 128.908052 
L 286.672131 128.908052 
L 288.33532 130.154805 
L 289.99851 124.544416 
L 291.661699 124.544416 
L 293.324888 130.778182 
L 294.988077 129.531429 
L 296.651267 130.778182 
L 298.314456 128.908052 
L 299.977645 116.440519 
L 301.640835 122.674286 
L 303.304024 124.544416 
L 304.967213 128.284675 
L 306.630402 130.778182 
L 308.293592 127.661299 
L 309.956781 130.154805 
L 311.61997 123.921039 
L 313.283159 123.921039 
L 314.946349 129.531429 
L 316.609538 123.921039 
L 318.272727 120.180779 
L 319.935917 123.297662 
L 321.599106 128.284675 
L 323.262295 120.804156 
L 324.925484 120.804156 
L 326.588674 125.167792 
L 328.251863 130.154805 
L 329.915052 121.427532 
L 331.578241 129.531429 
L 333.241431 128.908052 
L 334.90462 125.791169 
L 336.567809 125.791169 
L 338.230999 121.427532 
L 339.894188 125.167792 
L 341.557377 130.778182 
L 343.220566 130.154805 
L 344.883756 130.154805 
L 346.546945 130.778182 
L 348.210134 128.908052 
L 349.873323 129.531429 
L 351.536513 129.531429 
L 354.862891 120.804156 
L 356.52608 128.284675 
L 358.18927 130.154805 
L 359.852459 130.778182 
L 361.515648 128.908052 
L 363.178838 130.778182 
L 364.842027 117.687273 
L 366.505216 130.778182 
L 368.168405 129.531429 
L 369.831595 130.154805 
L 373.157973 130.154805 
L 374.821162 118.934026 
L 376.484352 118.934026 
L 378.147541 128.908052 
L 379.81073 127.037922 
L 381.47392 115.817143 
L 383.137109 120.180779 
L 384.800298 130.154805 
L 386.463487 130.778182 
L 388.126677 127.661299 
L 389.789866 125.791169 
L 391.453055 129.531429 
L 393.116244 128.908052 
L 394.779434 130.154805 
L 396.442623 130.154805 
L 398.105812 130.778182 
L 399.769001 123.921039 
L 401.432191 125.167792 
L 403.09538 130.778182 
L 404.758569 130.154805 
L 406.421759 128.908052 
L 408.084948 127.037922 
L 409.748137 130.778182 
L 411.411326 130.154805 
L 413.074516 128.908052 
L 414.737705 130.778182 
L 416.400894 129.531429 
L 418.064083 129.531429 
L 419.727273 130.778182 
L 423.053651 130.778182 
L 424.716841 127.661299 
L 426.38003 130.778182 
L 428.043219 128.908052 
L 429.706408 125.791169 
L 431.369598 130.778182 
L 433.032787 130.778182 
L 434.695976 130.154805 
L 436.359165 128.908052 
L 441.348733 130.778182 
L 443.011923 130.154805 
L 444.675112 130.778182 
L 446.338301 126.414545 
L 448.00149 126.414545 
L 449.66468 127.661299 
L 451.327869 130.778182 
L 452.991058 121.427532 
L 454.654247 130.778182 
L 456.317437 130.154805 
L 457.980626 130.778182 
L 459.643815 127.037922 
L 462.970194 125.791169 
L 464.633383 130.778182 
L 466.296572 130.778182 
L 467.959762 130.154805 
L 469.622951 123.297662 
L 471.28614 126.414545 
L 472.949329 130.154805 
L 474.612519 128.908052 
L 476.275708 130.778182 
L 479.602086 130.778182 
L 481.265276 130.154805 
L 482.928465 130.778182 
L 484.591654 128.908052 
L 489.581222 130.778182 
L 494.57079 130.778182 
L 496.233979 128.284675 
L 497.897168 128.908052 
L 499.560358 130.154805 
L 501.223547 130.778182 
L 502.886736 130.778182 
L 504.549925 130.154805 
L 506.213115 127.661299 
L 507.876304 130.778182 
L 509.539493 130.778182 
L 512.865872 129.531429 
L 514.529061 130.778182 
L 517.85544 129.531429 
L 519.518629 130.778182 
L 521.181818 130.154805 
L 522.845007 130.778182 
L 524.508197 128.908052 
L 526.171386 130.154805 
L 527.834575 130.154805 
L 529.497765 129.531429 
L 531.160954 130.778182 
L 534.487332 130.778182 
L 537.813711 129.531429 
L 539.4769 127.037922 
L 541.140089 130.154805 
L 542.803279 130.778182 
L 544.466468 124.544416 
L 546.129657 125.791169 
L 547.792846 123.921039 
L 549.456036 130.778182 
L 552.782414 130.778182 
L 556.108793 129.531429 
L 557.771982 130.778182 
L 559.435171 125.791169 
L 561.098361 122.050909 
L 562.76155 130.154805 
L 564.424739 121.427532 
L 566.087928 123.921039 
L 567.751118 127.661299 
L 569.414307 130.778182 
L 576.067064 130.778182 
L 577.730253 130.154805 
L 579.393443 130.778182 
L 581.056632 130.778182 
L 584.38301 128.284675 
L 586.0462 114.57039 
L 587.709389 119.557403 
L 589.372578 129.531429 
L 591.035768 130.154805 
L 592.698957 123.921039 
L 594.362146 114.57039 
L 596.025335 112.076883 
L 597.688525 112.076883 
L 599.351714 119.557403 
L 601.014903 119.557403 
L 602.678092 121.427532 
L 604.341282 124.544416 
L 606.004471 130.778182 
L 607.66766 126.414545 
L 609.330849 130.778182 
L 610.994039 130.778182 
L 612.657228 123.297662 
L 614.320417 129.531429 
L 615.983607 122.674286 
L 617.646796 128.284675 
L 619.309985 126.414545 
L 620.973174 130.154805 
L 622.636364 130.778182 
L 622.636364 130.778182 
" style="fill:none;stroke:#ff7f0e;stroke-linecap:square;stroke-width:1.5;"/>
   </g>
   <g id="patch_3">
    <path d="M 90 135.36 
L 90 34.56 
" style="fill:none;stroke:#000000;stroke-linecap:square;stroke-linejoin:miter;stroke-width:0.8;"/>
   </g>
   <g id="patch_4">
    <path d="M 648 135.36 
L 648 34.56 
" style="fill:none;stroke:#000000;stroke-linecap:square;stroke-linejoin:miter;stroke-width:0.8;"/>
   </g>
   <g id="patch_5">
    <path d="M 90 135.36 
L 648 135.36 
" style="fill:none;stroke:#000000;stroke-linecap:square;stroke-linejoin:miter;stroke-width:0.8;"/>
   </g>
   <g id="patch_6">
    <path d="M 90 34.56 
L 648 34.56 
" style="fill:none;stroke:#000000;stroke-linecap:square;stroke-linejoin:miter;stroke-width:0.8;"/>
   </g>
   <g id="legend_1">
    <g id="patch_7">
     <path d="M 499.1375 71.91625 
L 641 71.91625 
Q 643 71.91625 643 69.91625 
L 643 41.56 
Q 643 39.56 641 39.56 
L 499.1375 39.56 
Q 497.1375 39.56 497.1375 41.56 
L 497.1375 69.91625 
Q 497.1375 71.91625 499.1375 71.91625 
z
" style="fill:#ffffff;opacity:0.8;stroke:#cccccc;stroke-linejoin:miter;"/>
    </g>
    <g id="line2d_14">
     <path d="M 501.1375 47.658437 
L 521.1375 47.658437 
" style="fill:none;stroke:#1f77b4;stroke-linecap:square;stroke-width:1.5;"/>
    </g>
    <g id="line2d_15"/>
    <g id="text_13">
     <!-- Total GitHub Clones -->
     <g transform="translate(529.1375 51.158437)scale(0.1 -0.1)">
      <defs>
       <path d="M -19 4666 
L 3928 4666 
L 3928 4134 
L 2272 4134 
L 2272 0 
L 1638 0 
L 1638 4134 
L -19 4134 
L -19 4666 
z
" id="DejaVuSans-54" transform="scale(0.015625)"/>
       <path d="M 1959 3097 
Q 1497 3097 1228 2736 
Q 959 2375 959 1747 
Q 959 1119 1226 758 
Q 1494 397 1959 397 
Q 2419 397 2687 759 
Q 2956 1122 2956 1747 
Q 2956 2369 2687 2733 
Q 2419 3097 1959 3097 
z
M 1959 3584 
Q 2709 3584 3137 3096 
Q 3566 2609 3566 1747 
Q 3566 888 3137 398 
Q 2709 -91 1959 -91 
Q 1206 -91 779 398 
Q 353 888 353 1747 
Q 353 2609 779 3096 
Q 1206 3584 1959 3584 
z
" id="DejaVuSans-6f" transform="scale(0.015625)"/>
       <path d="M 603 4863 
L 1178 4863 
L 1178 0 
L 603 0 
L 603 4863 
z
" id="DejaVuSans-6c" transform="scale(0.015625)"/>
       <path id="DejaVuSans-20" transform="scale(0.015625)"/>
       <path d="M 3809 666 
L 3809 1919 
L 2778 1919 
L 2778 2438 
L 4434 2438 
L 4434 434 
Q 4069 175 3628 42 
Q 3188 -91 2688 -91 
Q 1594 -91 976 548 
Q 359 1188 359 2328 
Q 359 3472 976 4111 
Q 1594 4750 2688 4750 
Q 3144 4750 3555 4637 
Q 3966 4525 4313 4306 
L 4313 3634 
Q 3963 3931 3569 4081 
Q 3175 4231 2741 4231 
Q 1884 4231 1454 3753 
Q 1025 3275 1025 2328 
Q 1025 1384 1454 906 
Q 1884 428 2741 428 
Q 3075 428 3337 486 
Q 3600 544 3809 666 
z
" id="DejaVuSans-47" transform="scale(0.015625)"/>
       <path d="M 603 3500 
L 1178 3500 
L 1178 0 
L 603 0 
L 603 3500 
z
M 603 4863 
L 1178 4863 
L 1178 4134 
L 603 4134 
L 603 4863 
z
" id="DejaVuSans-69" transform="scale(0.015625)"/>
       <path d="M 628 4666 
L 1259 4666 
L 1259 2753 
L 3553 2753 
L 3553 4666 
L 4184 4666 
L 4184 0 
L 3553 0 
L 3553 2222 
L 1259 2222 
L 1259 0 
L 628 0 
L 628 4666 
z
" id="DejaVuSans-48" transform="scale(0.015625)"/>
       <path d="M 544 1381 
L 544 3500 
L 1119 3500 
L 1119 1403 
Q 1119 906 1312 657 
Q 1506 409 1894 409 
Q 2359 409 2629 706 
Q 2900 1003 2900 1516 
L 2900 3500 
L 3475 3500 
L 3475 0 
L 2900 0 
L 2900 538 
Q 2691 219 2414 64 
Q 2138 -91 1772 -91 
Q 1169 -91 856 284 
Q 544 659 544 1381 
z
M 1991 3584 
L 1991 3584 
z
" id="DejaVuSans-75" transform="scale(0.015625)"/>
       <path d="M 3116 1747 
Q 3116 2381 2855 2742 
Q 2594 3103 2138 3103 
Q 1681 3103 1420 2742 
Q 1159 2381 1159 1747 
Q 1159 1113 1420 752 
Q 1681 391 2138 391 
Q 2594 391 2855 752 
Q 3116 1113 3116 1747 
z
M 1159 2969 
Q 1341 3281 1617 3432 
Q 1894 3584 2278 3584 
Q 2916 3584 3314 3078 
Q 3713 2572 3713 1747 
Q 3713 922 3314 415 
Q 2916 -91 2278 -91 
Q 1894 -91 1617 61 
Q 1341 213 1159 525 
L 1159 0 
L 581 0 
L 581 4863 
L 1159 4863 
L 1159 2969 
z
" id="DejaVuSans-62" transform="scale(0.015625)"/>
       <path d="M 4122 4306 
L 4122 3641 
Q 3803 3938 3442 4084 
Q 3081 4231 2675 4231 
Q 1875 4231 1450 3742 
Q 1025 3253 1025 2328 
Q 1025 1406 1450 917 
Q 1875 428 2675 428 
Q 3081 428 3442 575 
Q 3803 722 4122 1019 
L 4122 359 
Q 3791 134 3420 21 
Q 3050 -91 2638 -91 
Q 1578 -91 968 557 
Q 359 1206 359 2328 
Q 359 3453 968 4101 
Q 1578 4750 2638 4750 
Q 3056 4750 3426 4639 
Q 3797 4528 4122 4306 
z
" id="DejaVuSans-43" transform="scale(0.015625)"/>
       <path d="M 3513 2113 
L 3513 0 
L 2938 0 
L 2938 2094 
Q 2938 2591 2744 2837 
Q 2550 3084 2163 3084 
Q 1697 3084 1428 2787 
Q 1159 2491 1159 1978 
L 1159 0 
L 581 0 
L 581 3500 
L 1159 3500 
L 1159 2956 
Q 1366 3272 1645 3428 
Q 1925 3584 2291 3584 
Q 2894 3584 3203 3211 
Q 3513 2838 3513 2113 
z
" id="DejaVuSans-6e" transform="scale(0.015625)"/>
       <path d="M 2834 3397 
L 2834 2853 
Q 2591 2978 2328 3040 
Q 2066 3103 1784 3103 
Q 1356 3103 1142 2972 
Q 928 2841 928 2578 
Q 928 2378 1081 2264 
Q 1234 2150 1697 2047 
L 1894 2003 
Q 2506 1872 2764 1633 
Q 3022 1394 3022 966 
Q 3022 478 2636 193 
Q 2250 -91 1575 -91 
Q 1294 -91 989 -36 
Q 684 19 347 128 
L 347 722 
Q 666 556 975 473 
Q 1284 391 1588 391 
Q 1994 391 2212 530 
Q 2431 669 2431 922 
Q 2431 1156 2273 1281 
Q 2116 1406 1581 1522 
L 1381 1569 
Q 847 1681 609 1914 
Q 372 2147 372 2553 
Q 372 3047 722 3315 
Q 1072 3584 1716 3584 
Q 2034 3584 2315 3537 
Q 2597 3491 2834 3397 
z
" id="DejaVuSans-73" transform="scale(0.015625)"/>
      </defs>
      <use xlink:href="#DejaVuSans-54"/>
      <use x="44.083984" xlink:href="#DejaVuSans-6f"/>
      <use x="105.265625" xlink:href="#DejaVuSans-74"/>
      <use x="144.474609" xlink:href="#DejaVuSans-61"/>
      <use x="205.753906" xlink:href="#DejaVuSans-6c"/>
      <use x="233.537109" xlink:href="#DejaVuSans-20"/>
      <use x="265.324219" xlink:href="#DejaVuSans-47"/>
      <use x="342.814453" xlink:href="#DejaVuSans-69"/>
      <use x="370.597656" xlink:href="#DejaVuSans-74"/>
      <use x="409.806641" xlink:href="#DejaVuSans-48"/>
      <use x="485.001953" xlink:href="#DejaVuSans-75"/>
      <use x="548.380859" xlink:href="#DejaVuSans-62"/>
      <use x="611.857422" xlink:href="#DejaVuSans-20"/>
      <use x="643.644531" xlink:href="#DejaVuSans-43"/>
      <use x="713.46875" xlink:href="#DejaVuSans-6c"/>
      <use x="741.251953" xlink:href="#DejaVuSans-6f"/>
      <use x="802.433594" xlink:href="#DejaVuSans-6e"/>
      <use x="865.8125" xlink:href="#DejaVuSans-65"/>
      <use x="927.335938" xlink:href="#DejaVuSans-73"/>
     </g>
    </g>
    <g id="line2d_16">
     <path d="M 501.1375 62.336562 
L 521.1375 62.336562 
" style="fill:none;stroke:#ff7f0e;stroke-linecap:square;stroke-width:1.5;"/>
    </g>
    <g id="line2d_17"/>
    <g id="text_14">
     <!-- Unique GitHub Clones -->
     <g transform="translate(529.1375 65.836562)scale(0.1 -0.1)">
      <defs>
       <path d="M 556 4666 
L 1191 4666 
L 1191 1831 
Q 1191 1081 1462 751 
Q 1734 422 2344 422 
Q 2950 422 3222 751 
Q 3494 1081 3494 1831 
L 3494 4666 
L 4128 4666 
L 4128 1753 
Q 4128 841 3676 375 
Q 3225 -91 2344 -91 
Q 1459 -91 1007 375 
Q 556 841 556 1753 
L 556 4666 
z
" id="DejaVuSans-55" transform="scale(0.015625)"/>
       <path d="M 947 1747 
Q 947 1113 1208 752 
Q 1469 391 1925 391 
Q 2381 391 2643 752 
Q 2906 1113 2906 1747 
Q 2906 2381 2643 2742 
Q 2381 3103 1925 3103 
Q 1469 3103 1208 2742 
Q 947 2381 947 1747 
z
M 2906 525 
Q 2725 213 2448 61 
Q 2172 -91 1784 -91 
Q 1150 -91 751 415 
Q 353 922 353 1747 
Q 353 2572 751 3078 
Q 1150 3584 1784 3584 
Q 2172 3584 2448 3432 
Q 2725 3281 2906 2969 
L 2906 3500 
L 3481 3500 
L 3481 -1331 
L 2906 -1331 
L 2906 525 
z
" id="DejaVuSans-71" transform="scale(0.015625)"/>
      </defs>
      <use xlink:href="#DejaVuSans-55"/>
      <use x="73.193359" xlink:href="#DejaVuSans-6e"/>
      <use x="136.572266" xlink:href="#DejaVuSans-69"/>
      <use x="164.355469" xlink:href="#DejaVuSans-71"/>
      <use x="227.832031" xlink:href="#DejaVuSans-75"/>
      <use x="291.210938" xlink:href="#DejaVuSans-65"/>
      <use x="352.734375" xlink:href="#DejaVuSans-20"/>
      <use x="384.521484" xlink:href="#DejaVuSans-47"/>
      <use x="462.011719" xlink:href="#DejaVuSans-69"/>
      <use x="489.794922" xlink:href="#DejaVuSans-74"/>
      <use x="529.003906" xlink:href="#DejaVuSans-48"/>
      <use x="604.199219" xlink:href="#DejaVuSans-75"/>
      <use x="667.578125" xlink:href="#DejaVuSans-62"/>
      <use x="731.054688" xlink:href="#DejaVuSans-20"/>
      <use x="762.841797" xlink:href="#DejaVuSans-43"/>
      <use x="832.666016" xlink:href="#DejaVuSans-6c"/>
      <use x="860.449219" xlink:href="#DejaVuSans-6f"/>
      <use x="921.630859" xlink:href="#DejaVuSans-6e"/>
      <use x="985.009766" xlink:href="#DejaVuSans-65"/>
      <use x="1046.533203" xlink:href="#DejaVuSans-73"/>
     </g>
    </g>
   </g>
  </g>
  <g id="axes_2">
   <g id="patch_8">
    <path d="M 90 256.32 
L 648 256.32 
L 648 155.52 
L 90 155.52 
z
" style="fill:#ffffff;"/>
   </g>
   <g id="matplotlib.axis_3">
    <g id="xtick_8">
     <g id="line2d_18">
      <g>
       <use style="stroke:#000000;stroke-width:0.8;" x="115.363636" xlink:href="#m14e33a1c78" y="256.32"/>
      </g>
     </g>
     <g id="text_15">
      <!-- 2020-10-21 -->
      <g transform="translate(86.305824 270.918437)scale(0.1 -0.1)">
       <use xlink:href="#DejaVuSans-32"/>
       <use x="63.623047" xlink:href="#DejaVuSans-30"/>
       <use x="127.246094" xlink:href="#DejaVuSans-32"/>
       <use x="190.869141" xlink:href="#DejaVuSans-30"/>
       <use x="254.492188" xlink:href="#DejaVuSans-2d"/>
       <use x="290.576172" xlink:href="#DejaVuSans-31"/>
       <use x="354.199219" xlink:href="#DejaVuSans-30"/>
       <use x="417.822266" xlink:href="#DejaVuSans-2d"/>
       <use x="453.90625" xlink:href="#DejaVuSans-32"/>
       <use x="517.529297" xlink:href="#DejaVuSans-31"/>
      </g>
     </g>
    </g>
    <g id="xtick_9">
     <g id="line2d_19">
      <g>
       <use style="stroke:#000000;stroke-width:0.8;" x="183.914005" xlink:href="#m14e33a1c78" y="256.32"/>
      </g>
     </g>
     <g id="text_16">
      <!-- 2020-12-11 -->
      <g transform="translate(154.856192 270.918437)scale(0.1 -0.1)">
       <use xlink:href="#DejaVuSans-32"/>
       <use x="63.623047" xlink:href="#DejaVuSans-30"/>
       <use x="127.246094" xlink:href="#DejaVuSans-32"/>
       <use x="190.869141" xlink:href="#DejaVuSans-30"/>
       <use x="254.492188" xlink:href="#DejaVuSans-2d"/>
       <use x="290.576172" xlink:href="#DejaVuSans-31"/>
       <use x="354.199219" xlink:href="#DejaVuSans-32"/>
       <use x="417.822266" xlink:href="#DejaVuSans-2d"/>
       <use x="453.90625" xlink:href="#DejaVuSans-31"/>
       <use x="517.529297" xlink:href="#DejaVuSans-31"/>
      </g>
     </g>
    </g>
    <g id="xtick_10">
     <g id="line2d_20">
      <g>
       <use style="stroke:#000000;stroke-width:0.8;" x="252.464373" xlink:href="#m14e33a1c78" y="256.32"/>
      </g>
     </g>
     <g id="text_17">
      <!-- 2021-01-31 -->
      <g transform="translate(223.406561 270.918437)scale(0.1 -0.1)">
       <use xlink:href="#DejaVuSans-32"/>
       <use x="63.623047" xlink:href="#DejaVuSans-30"/>
       <use x="127.246094" xlink:href="#DejaVuSans-32"/>
       <use x="190.869141" xlink:href="#DejaVuSans-31"/>
       <use x="254.492188" xlink:href="#DejaVuSans-2d"/>
       <use x="290.576172" xlink:href="#DejaVuSans-30"/>
       <use x="354.199219" xlink:href="#DejaVuSans-31"/>
       <use x="417.822266" xlink:href="#DejaVuSans-2d"/>
       <use x="453.90625" xlink:href="#DejaVuSans-33"/>
       <use x="517.529297" xlink:href="#DejaVuSans-31"/>
      </g>
     </g>
    </g>
    <g id="xtick_11">
     <g id="line2d_21">
      <g>
       <use style="stroke:#000000;stroke-width:0.8;" x="321.014742" xlink:href="#m14e33a1c78" y="256.32"/>
      </g>
     </g>
     <g id="text_18">
      <!-- 2021-03-22 -->
      <g transform="translate(291.95693 270.918437)scale(0.1 -0.1)">
       <use xlink:href="#DejaVuSans-32"/>
       <use x="63.623047" xlink:href="#DejaVuSans-30"/>
       <use x="127.246094" xlink:href="#DejaVuSans-32"/>
       <use x="190.869141" xlink:href="#DejaVuSans-31"/>
       <use x="254.492188" xlink:href="#DejaVuSans-2d"/>
       <use x="290.576172" xlink:href="#DejaVuSans-30"/>
       <use x="354.199219" xlink:href="#DejaVuSans-33"/>
       <use x="417.822266" xlink:href="#DejaVuSans-2d"/>
       <use x="453.90625" xlink:href="#DejaVuSans-32"/>
       <use x="517.529297" xlink:href="#DejaVuSans-32"/>
      </g>
     </g>
    </g>
    <g id="xtick_12">
     <g id="line2d_22">
      <g>
       <use style="stroke:#000000;stroke-width:0.8;" x="389.565111" xlink:href="#m14e33a1c78" y="256.32"/>
      </g>
     </g>
     <g id="text_19">
      <!-- 2021-05-10 -->
      <g transform="translate(360.507298 270.918437)scale(0.1 -0.1)">
       <use xlink:href="#DejaVuSans-32"/>
       <use x="63.623047" xlink:href="#DejaVuSans-30"/>
       <use x="127.246094" xlink:href="#DejaVuSans-32"/>
       <use x="190.869141" xlink:href="#DejaVuSans-31"/>
       <use x="254.492188" xlink:href="#DejaVuSans-2d"/>
       <use x="290.576172" xlink:href="#DejaVuSans-30"/>
       <use x="354.199219" xlink:href="#DejaVuSans-35"/>
       <use x="417.822266" xlink:href="#DejaVuSans-2d"/>
       <use x="453.90625" xlink:href="#DejaVuSans-31"/>
       <use x="517.529297" xlink:href="#DejaVuSans-30"/>
      </g>
     </g>
    </g>
    <g id="xtick_13">
     <g id="line2d_23">
      <g>
       <use style="stroke:#000000;stroke-width:0.8;" x="458.115479" xlink:href="#m14e33a1c78" y="256.32"/>
      </g>
     </g>
     <g id="text_20">
      <!-- 2021-06-29 -->
      <g transform="translate(429.057667 270.918437)scale(0.1 -0.1)">
       <use xlink:href="#DejaVuSans-32"/>
       <use x="63.623047" xlink:href="#DejaVuSans-30"/>
       <use x="127.246094" xlink:href="#DejaVuSans-32"/>
       <use x="190.869141" xlink:href="#DejaVuSans-31"/>
       <use x="254.492188" xlink:href="#DejaVuSans-2d"/>
       <use x="290.576172" xlink:href="#DejaVuSans-30"/>
       <use x="354.199219" xlink:href="#DejaVuSans-36"/>
       <use x="417.822266" xlink:href="#DejaVuSans-2d"/>
       <use x="453.90625" xlink:href="#DejaVuSans-32"/>
       <use x="517.529297" xlink:href="#DejaVuSans-39"/>
      </g>
     </g>
    </g>
    <g id="xtick_14">
     <g id="line2d_24">
      <g>
       <use style="stroke:#000000;stroke-width:0.8;" x="526.665848" xlink:href="#m14e33a1c78" y="256.32"/>
      </g>
     </g>
     <g id="text_21">
      <!-- 2021-08-17 -->
      <g transform="translate(497.608035 270.918437)scale(0.1 -0.1)">
       <use xlink:href="#DejaVuSans-32"/>
       <use x="63.623047" xlink:href="#DejaVuSans-30"/>
       <use x="127.246094" xlink:href="#DejaVuSans-32"/>
       <use x="190.869141" xlink:href="#DejaVuSans-31"/>
       <use x="254.492188" xlink:href="#DejaVuSans-2d"/>
       <use x="290.576172" xlink:href="#DejaVuSans-30"/>
       <use x="354.199219" xlink:href="#DejaVuSans-38"/>
       <use x="417.822266" xlink:href="#DejaVuSans-2d"/>
       <use x="453.90625" xlink:href="#DejaVuSans-31"/>
       <use x="517.529297" xlink:href="#DejaVuSans-37"/>
      </g>
     </g>
    </g>
    <g id="xtick_15">
     <g id="line2d_25">
      <g>
       <use style="stroke:#000000;stroke-width:0.8;" x="595.216216" xlink:href="#m14e33a1c78" y="256.32"/>
      </g>
     </g>
     <g id="text_22">
      <!-- 2021-10-04 -->
      <g transform="translate(566.158404 270.918437)scale(0.1 -0.1)">
       <use xlink:href="#DejaVuSans-32"/>
       <use x="63.623047" xlink:href="#DejaVuSans-30"/>
       <use x="127.246094" xlink:href="#DejaVuSans-32"/>
       <use x="190.869141" xlink:href="#DejaVuSans-31"/>
       <use x="254.492188" xlink:href="#DejaVuSans-2d"/>
       <use x="290.576172" xlink:href="#DejaVuSans-31"/>
       <use x="354.199219" xlink:href="#DejaVuSans-30"/>
       <use x="417.822266" xlink:href="#DejaVuSans-2d"/>
       <use x="453.90625" xlink:href="#DejaVuSans-30"/>
       <use x="517.529297" xlink:href="#DejaVuSans-34"/>
      </g>
     </g>
    </g>
    <g id="text_23">
     <!-- _date -->
     <g transform="translate(355.225 284.596563)scale(0.1 -0.1)">
      <use xlink:href="#DejaVuSans-5f"/>
      <use x="50" xlink:href="#DejaVuSans-64"/>
      <use x="113.476562" xlink:href="#DejaVuSans-61"/>
      <use x="174.755859" xlink:href="#DejaVuSans-74"/>
      <use x="213.964844" xlink:href="#DejaVuSans-65"/>
     </g>
    </g>
   </g>
   <g id="matplotlib.axis_4">
    <g id="ytick_5">
     <g id="line2d_26">
      <g>
       <use style="stroke:#000000;stroke-width:0.8;" x="90" xlink:href="#mc69d9d2c24" y="252.029091"/>
      </g>
     </g>
     <g id="text_24">
      <!-- 0 -->
      <g transform="translate(76.6375 255.82831)scale(0.1 -0.1)">
       <use xlink:href="#DejaVuSans-30"/>
      </g>
     </g>
    </g>
    <g id="ytick_6">
     <g id="line2d_27">
      <g>
       <use style="stroke:#000000;stroke-width:0.8;" x="90" xlink:href="#mc69d9d2c24" y="222.938182"/>
      </g>
     </g>
     <g id="text_25">
      <!-- 100 -->
      <g transform="translate(63.9125 226.737401)scale(0.1 -0.1)">
       <use xlink:href="#DejaVuSans-31"/>
       <use x="63.623047" xlink:href="#DejaVuSans-30"/>
       <use x="127.246094" xlink:href="#DejaVuSans-30"/>
      </g>
     </g>
    </g>
    <g id="ytick_7">
     <g id="line2d_28">
      <g>
       <use style="stroke:#000000;stroke-width:0.8;" x="90" xlink:href="#mc69d9d2c24" y="193.847273"/>
      </g>
     </g>
     <g id="text_26">
      <!-- 200 -->
      <g transform="translate(63.9125 197.646491)scale(0.1 -0.1)">
       <use xlink:href="#DejaVuSans-32"/>
       <use x="63.623047" xlink:href="#DejaVuSans-30"/>
       <use x="127.246094" xlink:href="#DejaVuSans-30"/>
      </g>
     </g>
    </g>
    <g id="ytick_8">
     <g id="line2d_29">
      <g>
       <use style="stroke:#000000;stroke-width:0.8;" x="90" xlink:href="#mc69d9d2c24" y="164.756364"/>
      </g>
     </g>
     <g id="text_27">
      <!-- 300 -->
      <g transform="translate(63.9125 168.555582)scale(0.1 -0.1)">
       <use xlink:href="#DejaVuSans-33"/>
       <use x="63.623047" xlink:href="#DejaVuSans-30"/>
       <use x="127.246094" xlink:href="#DejaVuSans-30"/>
      </g>
     </g>
    </g>
   </g>
   <g id="line2d_30">
    <path clip-path="url(#p53f5aa3ae8)" d="M 115.363636 251.738182 
L 116.734644 230.210909 
L 118.105651 227.592727 
L 119.476658 244.174545 
L 120.847666 251.447273 
L 122.218673 238.356364 
L 123.589681 238.065455 
L 124.960688 233.992727 
L 126.331695 238.065455 
L 127.702703 238.938182 
L 129.07371 250.574545 
L 130.444717 248.247273 
L 131.815725 247.374545 
L 133.186732 238.938182 
L 134.55774 210.429091 
L 135.928747 225.265455 
L 137.299754 243.592727 
L 138.670762 247.083636 
L 140.041769 251.156364 
L 141.412776 238.065455 
L 142.783784 223.52 
L 144.154791 245.629091 
L 145.525799 243.010909 
L 146.896806 236.32 
L 148.267813 236.32 
L 149.638821 249.701818 
L 151.009828 236.610909 
L 152.380835 232.829091 
L 153.751843 243.301818 
L 155.12285 243.301818 
L 156.493857 238.356364 
L 157.864865 246.792727 
L 159.235872 249.12 
L 160.60688 225.556364 
L 161.977887 248.829091 
L 163.348894 247.956364 
L 164.719902 249.701818 
L 166.090909 247.665455 
L 167.461916 251.447273 
L 168.832924 251.447273 
L 170.203931 227.301818 
L 171.574939 214.210909 
L 172.945946 243.592727 
L 174.316953 245.047273 
L 175.687961 225.847273 
L 177.058968 250.865455 
L 178.429975 244.756364 
L 179.800983 241.265455 
L 181.17199 245.92 
L 182.542998 235.738182 
L 183.914005 246.792727 
L 185.285012 250.865455 
L 186.65602 251.738182 
L 188.027027 243.592727 
L 189.398034 241.847273 
L 190.769042 242.138182 
L 192.140049 240.683636 
L 193.511057 248.829091 
L 194.882064 250.865455 
L 196.253071 250.574545 
L 197.624079 247.083636 
L 198.995086 247.665455 
L 200.366093 242.429091 
L 201.737101 249.992727 
L 203.108108 251.156364 
L 204.479115 251.447273 
L 205.850123 248.247273 
L 207.22113 249.410909 
L 208.592138 250.283636 
L 209.963145 251.738182 
L 211.334152 247.083636 
L 212.70516 247.374545 
L 214.076167 250.865455 
L 215.447174 246.210909 
L 216.818182 242.429091 
L 218.189189 239.810909 
L 219.560197 247.665455 
L 220.931204 248.829091 
L 222.302211 231.956364 
L 223.673219 250.283636 
L 225.044226 233.701818 
L 226.415233 235.447273 
L 227.786241 239.810909 
L 229.157248 233.12 
L 230.528256 246.792727 
L 231.899263 234.574545 
L 233.27027 251.156364 
L 234.641278 233.410909 
L 236.012285 234.865455 
L 237.383292 226.138182 
L 238.7543 232.247273 
L 240.125307 239.810909 
L 241.496314 242.72 
L 242.867322 248.247273 
L 244.238329 228.465455 
L 245.609337 223.810909 
L 246.980344 236.029091 
L 248.351351 234.574545 
L 249.722359 231.956364 
L 251.093366 247.374545 
L 252.464373 248.538182 
L 253.835381 229.629091 
L 255.206388 246.792727 
L 257.948403 232.829091 
L 260.690418 250.865455 
L 262.061425 247.665455 
L 263.432432 235.156364 
L 264.80344 234.574545 
L 266.174447 224.683636 
L 267.545455 241.847273 
L 268.916462 250.283636 
L 270.287469 250.574545 
L 271.658477 249.12 
L 273.029484 242.429091 
L 274.400491 242.72 
L 275.771499 246.792727 
L 277.142506 230.501818 
L 278.513514 248.247273 
L 279.884521 241.847273 
L 281.255528 238.938182 
L 282.626536 240.683636 
L 283.997543 224.974545 
L 285.36855 235.447273 
L 286.739558 234.574545 
L 288.110565 239.810909 
L 289.481572 238.065455 
L 290.85258 239.229091 
L 292.223587 181.92 
L 293.594595 245.629091 
L 294.965602 230.501818 
L 296.336609 234.283636 
L 297.707617 226.429091 
L 299.078624 241.556364 
L 300.449631 198.792727 
L 301.820639 197.047273 
L 303.191646 203.156364 
L 304.562654 228.756364 
L 305.933661 172.029091 
L 307.304668 222.938182 
L 308.675676 245.92 
L 310.046683 245.047273 
L 311.41769 237.192727 
L 312.788698 230.792727 
L 314.159705 227.301818 
L 315.530713 234.283636 
L 316.90172 223.229091 
L 318.272727 243.592727 
L 319.643735 245.629091 
L 321.014742 204.32 
L 322.385749 232.247273 
L 323.756757 233.992727 
L 325.127764 246.210909 
L 326.498771 248.538182 
L 327.869779 247.956364 
L 329.240786 232.538182 
L 330.611794 182.501818 
L 331.982801 229.338182 
L 333.353808 233.992727 
L 334.724816 213.338182 
L 336.095823 244.174545 
L 337.46683 248.247273 
L 338.837838 244.756364 
L 340.208845 221.192727 
L 341.579853 238.356364 
L 342.95086 222.647273 
L 344.321867 199.083636 
L 345.692875 233.410909 
L 347.063882 240.974545 
L 348.434889 245.92 
L 349.805897 175.229091 
L 351.176904 174.356364 
L 352.547912 227.010909 
L 353.918919 243.301818 
L 355.289926 234.865455 
L 356.660934 236.32 
L 358.031941 248.829091 
L 359.402948 246.792727 
L 360.773956 185.992727 
L 362.144963 179.010909 
L 363.515971 197.047273 
L 364.886978 242.72 
L 366.257985 249.12 
L 367.628993 236.32 
L 369 247.374545 
L 371.742015 223.810909 
L 373.113022 160.101818 
L 374.484029 221.483636 
L 375.855037 220.610909 
L 377.226044 225.556364 
L 378.597052 245.338182 
L 379.968059 246.210909 
L 381.339066 219.447273 
L 382.710074 235.738182 
L 384.081081 235.447273 
L 385.452088 225.847273 
L 386.823096 243.010909 
L 388.194103 249.12 
L 389.565111 196.756364 
L 390.936118 236.901818 
L 392.307125 211.883636 
L 393.678133 205.483636 
L 395.04914 212.465455 
L 396.420147 249.701818 
L 397.791155 249.701818 
L 399.162162 221.774545 
L 400.53317 232.538182 
L 401.904177 231.956364 
L 403.275184 238.647273 
L 404.646192 242.429091 
L 406.017199 248.247273 
L 407.388206 245.92 
L 408.759214 225.265455 
L 410.130221 243.883636 
L 411.501229 240.101818 
L 412.872236 231.665455 
L 414.243243 238.356364 
L 415.614251 249.701818 
L 416.985258 249.701818 
L 418.356265 242.72 
L 419.727273 239.810909 
L 421.09828 246.210909 
L 422.469287 240.974545 
L 423.840295 243.301818 
L 425.211302 249.12 
L 426.58231 247.374545 
L 427.953317 230.501818 
L 429.324324 236.029091 
L 430.695332 165.92 
L 432.066339 212.756364 
L 433.437346 243.883636 
L 434.808354 241.847273 
L 436.179361 249.992727 
L 437.550369 231.665455 
L 438.921376 233.701818 
L 440.292383 241.556364 
L 441.663391 240.683636 
L 443.034398 235.156364 
L 444.405405 249.701818 
L 445.776413 250.283636 
L 447.14742 191.52 
L 448.518428 238.938182 
L 449.889435 244.756364 
L 451.260442 247.083636 
L 452.63145 200.247273 
L 454.002457 247.083636 
L 455.373464 247.956364 
L 458.115479 241.556364 
L 459.486486 241.847273 
L 460.857494 223.229091 
L 462.228501 244.174545 
L 463.599509 249.701818 
L 464.970516 243.301818 
L 466.341523 245.047273 
L 467.712531 178.138182 
L 469.083538 195.883636 
L 470.454545 240.101818 
L 471.825553 242.138182 
L 473.19656 244.465455 
L 474.567568 243.883636 
L 475.938575 231.083636 
L 477.309582 241.847273 
L 478.68059 243.010909 
L 480.051597 221.483636 
L 481.422604 238.938182 
L 482.793612 250.283636 
L 484.164619 251.738182 
L 485.535627 244.465455 
L 486.906634 245.047273 
L 488.277641 246.501818 
L 489.648649 243.301818 
L 491.019656 245.92 
L 492.390663 249.410909 
L 493.761671 251.156364 
L 495.132678 243.301818 
L 496.503686 243.010909 
L 497.874693 230.210909 
L 499.2457 228.465455 
L 500.616708 250.574545 
L 501.987715 245.92 
L 503.358722 251.738182 
L 504.72973 238.647273 
L 506.100737 239.810909 
L 507.471744 242.429091 
L 508.842752 239.52 
L 510.213759 248.247273 
L 511.584767 245.338182 
L 512.955774 250.283636 
L 514.326781 249.992727 
L 515.697789 236.32 
L 517.068796 238.356364 
L 518.439803 243.592727 
L 519.810811 240.392727 
L 521.181818 230.792727 
L 522.552826 241.556364 
L 523.923833 248.247273 
L 525.29484 231.956364 
L 526.665848 250.283636 
L 528.036855 245.629091 
L 529.407862 243.883636 
L 530.77887 251.156364 
L 532.149877 250.865455 
L 533.520885 244.465455 
L 534.891892 245.047273 
L 536.262899 231.665455 
L 537.633907 229.92 
L 539.004914 248.829091 
L 540.375921 249.701818 
L 541.746929 250.283636 
L 543.117936 242.138182 
L 544.488943 241.847273 
L 545.859951 226.138182 
L 547.230958 235.156364 
L 548.601966 234.865455 
L 549.972973 244.756364 
L 551.34398 249.701818 
L 552.714988 245.338182 
L 554.085995 246.210909 
L 555.457002 249.701818 
L 556.82801 251.156364 
L 558.199017 236.029091 
L 559.570025 247.374545 
L 560.941032 241.847273 
L 562.312039 223.810909 
L 563.683047 250.865455 
L 565.054054 247.956364 
L 566.425061 232.247273 
L 567.796069 213.92 
L 569.167076 235.447273 
L 570.538084 247.956364 
L 571.909091 247.374545 
L 573.280098 250.283636 
L 574.651106 246.210909 
L 576.022113 230.501818 
L 577.39312 236.029091 
L 578.764128 228.756364 
L 580.135135 218.865455 
L 581.506143 232.247273 
L 582.87715 248.247273 
L 584.248157 251.447273 
L 585.619165 248.247273 
L 586.990172 249.701818 
L 588.361179 238.938182 
L 589.732187 184.247273 
L 591.103194 227.592727 
L 592.474201 241.847273 
L 593.845209 240.101818 
L 595.216216 229.047273 
L 596.587224 229.047273 
L 597.958231 218.283636 
L 599.329238 193.847273 
L 600.700246 214.501818 
L 602.071253 245.92 
L 603.44226 250.574545 
L 604.813268 222.356364 
L 606.184275 226.138182 
L 607.555283 209.265455 
L 608.92629 239.229091 
L 610.297297 234.865455 
L 611.668305 245.629091 
L 613.039312 247.956364 
L 614.410319 212.465455 
L 615.781327 237.483636 
L 617.152334 249.410909 
L 618.523342 250.283636 
L 619.894349 240.392727 
L 621.265356 248.538182 
L 622.636364 250.283636 
L 622.636364 250.283636 
" style="fill:none;stroke:#1f77b4;stroke-linecap:square;stroke-width:1.5;"/>
   </g>
   <g id="line2d_31">
    <path clip-path="url(#p53f5aa3ae8)" d="M 115.363636 251.738182 
L 116.734644 249.410909 
L 118.105651 248.247273 
L 119.476658 249.410909 
L 120.847666 251.738182 
L 122.218673 249.992727 
L 123.589681 249.12 
L 124.960688 249.12 
L 126.331695 248.829091 
L 127.702703 249.410909 
L 129.07371 251.447273 
L 134.55774 249.12 
L 135.928747 248.829091 
L 137.299754 249.992727 
L 140.041769 251.738182 
L 141.412776 248.829091 
L 142.783784 249.410909 
L 144.154791 250.574545 
L 145.525799 250.865455 
L 146.896806 250.574545 
L 148.267813 251.447273 
L 149.638821 251.156364 
L 151.009828 249.992727 
L 152.380835 251.156364 
L 153.751843 248.829091 
L 155.12285 249.701818 
L 156.493857 250.283636 
L 157.864865 251.156364 
L 159.235872 251.156364 
L 160.60688 247.374545 
L 161.977887 251.447273 
L 163.348894 251.447273 
L 164.719902 251.156364 
L 167.461916 251.738182 
L 168.832924 251.447273 
L 170.203931 249.410909 
L 171.574939 246.792727 
L 172.945946 248.538182 
L 174.316953 249.992727 
L 175.687961 249.992727 
L 177.058968 251.447273 
L 178.429975 250.283636 
L 179.800983 249.992727 
L 181.17199 250.865455 
L 182.542998 247.665455 
L 183.914005 249.410909 
L 185.285012 251.447273 
L 186.65602 251.738182 
L 188.027027 249.12 
L 190.769042 249.12 
L 192.140049 249.992727 
L 193.511057 250.283636 
L 194.882064 251.156364 
L 196.253071 251.447273 
L 197.624079 250.865455 
L 198.995086 250.574545 
L 200.366093 251.156364 
L 203.108108 251.156364 
L 204.479115 251.447273 
L 205.850123 250.865455 
L 208.592138 250.865455 
L 209.963145 251.738182 
L 211.334152 251.156364 
L 212.70516 251.156364 
L 214.076167 250.865455 
L 215.447174 249.701818 
L 216.818182 247.956364 
L 218.189189 249.992727 
L 219.560197 251.156364 
L 220.931204 250.865455 
L 222.302211 250.865455 
L 223.673219 251.156364 
L 225.044226 249.410909 
L 226.415233 248.538182 
L 227.786241 249.701818 
L 229.157248 246.792727 
L 230.528256 249.701818 
L 231.899263 250.283636 
L 233.27027 251.156364 
L 234.641278 250.574545 
L 236.012285 250.574545 
L 237.383292 248.247273 
L 238.7543 249.410909 
L 240.125307 249.12 
L 241.496314 249.12 
L 242.867322 250.283636 
L 244.238329 245.92 
L 245.609337 247.665455 
L 246.980344 249.12 
L 248.351351 247.374545 
L 249.722359 246.210909 
L 251.093366 250.865455 
L 252.464373 250.574545 
L 253.835381 248.538182 
L 255.206388 249.992727 
L 256.577396 247.956364 
L 257.948403 249.410909 
L 259.31941 249.410909 
L 260.690418 250.865455 
L 262.061425 251.156364 
L 263.432432 248.829091 
L 264.80344 247.956364 
L 266.174447 248.247273 
L 267.545455 250.865455 
L 268.916462 251.447273 
L 271.658477 250.865455 
L 273.029484 250.865455 
L 274.400491 249.410909 
L 275.771499 250.283636 
L 277.142506 248.829091 
L 278.513514 250.865455 
L 279.884521 250.283636 
L 281.255528 250.865455 
L 282.626536 249.12 
L 283.997543 248.829091 
L 285.36855 248.829091 
L 286.739558 247.956364 
L 288.110565 250.283636 
L 289.481572 250.865455 
L 290.85258 250.865455 
L 292.223587 242.138182 
L 293.594595 248.829091 
L 294.965602 248.829091 
L 296.336609 247.374545 
L 297.707617 249.12 
L 299.078624 250.574545 
L 300.449631 250.574545 
L 301.820639 246.210909 
L 303.191646 246.501818 
L 304.562654 248.247273 
L 305.933661 246.501818 
L 307.304668 247.374545 
L 308.675676 249.992727 
L 310.046683 250.865455 
L 311.41769 247.374545 
L 312.788698 245.92 
L 314.159705 247.083636 
L 315.530713 247.374545 
L 316.90172 249.410909 
L 318.272727 251.156364 
L 319.643735 249.992727 
L 321.014742 247.665455 
L 322.385749 247.665455 
L 323.756757 248.538182 
L 325.127764 250.574545 
L 327.869779 251.156364 
L 329.240786 249.992727 
L 330.611794 246.210909 
L 331.982801 247.083636 
L 333.353808 248.538182 
L 334.724816 246.792727 
L 336.095823 249.701818 
L 337.46683 251.156364 
L 340.208845 249.410909 
L 341.579853 248.247273 
L 342.95086 248.538182 
L 344.321867 247.374545 
L 345.692875 249.12 
L 347.063882 249.410909 
L 348.434889 250.865455 
L 349.805897 245.629091 
L 351.176904 245.338182 
L 352.547912 247.956364 
L 353.918919 248.829091 
L 355.289926 249.12 
L 356.660934 249.12 
L 358.031941 250.865455 
L 359.402948 250.283636 
L 360.773956 245.629091 
L 362.144963 244.174545 
L 363.515971 246.792727 
L 364.886978 248.829091 
L 366.257985 250.283636 
L 367.628993 249.12 
L 369 250.283636 
L 370.371007 246.210909 
L 371.742015 246.501818 
L 373.113022 228.465455 
L 374.484029 247.956364 
L 375.855037 246.501818 
L 377.226044 250.574545 
L 378.597052 251.738182 
L 379.968059 249.701818 
L 381.339066 248.247273 
L 382.710074 248.247273 
L 384.081081 248.538182 
L 385.452088 247.665455 
L 388.194103 251.156364 
L 389.565111 249.12 
L 390.936118 248.247273 
L 392.307125 246.792727 
L 393.678133 247.083636 
L 395.04914 245.629091 
L 396.420147 250.574545 
L 397.791155 251.738182 
L 399.162162 245.629091 
L 400.53317 247.083636 
L 401.904177 249.410909 
L 403.275184 247.374545 
L 404.646192 248.247273 
L 406.017199 251.447273 
L 407.388206 250.283636 
L 408.759214 248.247273 
L 410.130221 249.410909 
L 411.501229 247.956364 
L 412.872236 246.210909 
L 415.614251 250.865455 
L 416.985258 251.156364 
L 418.356265 249.12 
L 419.727273 247.665455 
L 421.09828 249.992727 
L 422.469287 249.410909 
L 423.840295 249.410909 
L 426.58231 249.992727 
L 427.953317 246.792727 
L 429.324324 248.829091 
L 430.695332 248.829091 
L 432.066339 249.992727 
L 433.437346 249.12 
L 434.808354 251.156364 
L 436.179361 250.283636 
L 437.550369 248.247273 
L 438.921376 249.12 
L 440.292383 248.829091 
L 441.663391 248.247273 
L 443.034398 249.12 
L 444.405405 251.156364 
L 445.776413 250.865455 
L 447.14742 247.374545 
L 448.518428 250.574545 
L 449.889435 249.701818 
L 451.260442 249.12 
L 452.63145 245.629091 
L 454.002457 251.156364 
L 455.373464 250.574545 
L 456.744472 249.701818 
L 458.115479 250.283636 
L 459.486486 248.829091 
L 460.857494 247.956364 
L 462.228501 249.12 
L 463.599509 250.865455 
L 464.970516 250.865455 
L 466.341523 249.410909 
L 467.712531 247.083636 
L 469.083538 247.083636 
L 470.454545 250.283636 
L 471.825553 248.538182 
L 473.19656 250.574545 
L 474.567568 249.410909 
L 475.938575 247.665455 
L 477.309582 248.538182 
L 478.68059 248.538182 
L 480.051597 247.665455 
L 481.422604 247.956364 
L 482.793612 251.156364 
L 484.164619 251.738182 
L 485.535627 249.992727 
L 486.906634 249.992727 
L 488.277641 250.283636 
L 489.648649 250.283636 
L 491.019656 250.574545 
L 493.761671 251.738182 
L 495.132678 250.283636 
L 496.503686 249.410909 
L 497.874693 249.701818 
L 499.2457 248.538182 
L 500.616708 251.156364 
L 501.987715 250.283636 
L 503.358722 251.738182 
L 504.72973 250.283636 
L 506.100737 250.283636 
L 507.471744 248.247273 
L 508.842752 247.665455 
L 510.213759 249.410909 
L 511.584767 250.574545 
L 512.955774 250.865455 
L 514.326781 250.574545 
L 515.697789 248.538182 
L 517.068796 249.410909 
L 518.439803 249.701818 
L 519.810811 249.701818 
L 521.181818 248.829091 
L 522.552826 249.12 
L 523.923833 250.574545 
L 525.29484 248.247273 
L 526.665848 251.447273 
L 528.036855 249.701818 
L 529.407862 249.701818 
L 530.77887 251.156364 
L 532.149877 250.865455 
L 533.520885 249.992727 
L 534.891892 249.992727 
L 536.262899 249.12 
L 537.633907 249.410909 
L 539.004914 251.156364 
L 540.375921 250.865455 
L 541.746929 251.447273 
L 543.117936 250.574545 
L 545.859951 249.992727 
L 547.230958 248.538182 
L 548.601966 249.12 
L 549.972973 250.283636 
L 551.34398 250.865455 
L 552.714988 250.283636 
L 554.085995 251.447273 
L 555.457002 250.865455 
L 556.82801 251.738182 
L 558.199017 249.12 
L 559.570025 249.992727 
L 560.941032 251.156364 
L 562.312039 248.247273 
L 563.683047 251.447273 
L 565.054054 251.156364 
L 566.425061 247.956364 
L 569.167076 249.12 
L 570.538084 250.283636 
L 571.909091 249.701818 
L 573.280098 251.156364 
L 574.651106 250.574545 
L 576.022113 247.665455 
L 577.39312 249.992727 
L 578.764128 249.701818 
L 580.135135 249.12 
L 581.506143 249.701818 
L 582.87715 249.701818 
L 584.248157 251.447273 
L 585.619165 251.447273 
L 586.990172 250.865455 
L 588.361179 248.247273 
L 591.103194 248.247273 
L 592.474201 249.701818 
L 593.845209 249.701818 
L 595.216216 248.829091 
L 596.587224 248.538182 
L 597.958231 247.083636 
L 599.329238 249.410909 
L 600.700246 247.374545 
L 602.071253 249.992727 
L 603.44226 251.156364 
L 604.813268 250.283636 
L 606.184275 249.701818 
L 607.555283 247.956364 
L 608.92629 248.247273 
L 610.297297 249.12 
L 611.668305 249.701818 
L 613.039312 249.992727 
L 614.410319 247.374545 
L 615.781327 248.247273 
L 617.152334 250.574545 
L 618.523342 250.865455 
L 619.894349 250.865455 
L 621.265356 249.992727 
L 622.636364 250.574545 
L 622.636364 250.574545 
" style="fill:none;stroke:#ff7f0e;stroke-linecap:square;stroke-width:1.5;"/>
   </g>
   <g id="patch_9">
    <path d="M 90 256.32 
L 90 155.52 
" style="fill:none;stroke:#000000;stroke-linecap:square;stroke-linejoin:miter;stroke-width:0.8;"/>
   </g>
   <g id="patch_10">
    <path d="M 648 256.32 
L 648 155.52 
" style="fill:none;stroke:#000000;stroke-linecap:square;stroke-linejoin:miter;stroke-width:0.8;"/>
   </g>
   <g id="patch_11">
    <path d="M 90 256.32 
L 648 256.32 
" style="fill:none;stroke:#000000;stroke-linecap:square;stroke-linejoin:miter;stroke-width:0.8;"/>
   </g>
   <g id="patch_12">
    <path d="M 90 155.52 
L 648 155.52 
" style="fill:none;stroke:#000000;stroke-linecap:square;stroke-linejoin:miter;stroke-width:0.8;"/>
   </g>
   <g id="legend_2">
    <g id="patch_13">
     <path d="M 97 192.87625 
L 234.217188 192.87625 
Q 236.217188 192.87625 236.217188 190.87625 
L 236.217188 162.52 
Q 236.217188 160.52 234.217188 160.52 
L 97 160.52 
Q 95 160.52 95 162.52 
L 95 190.87625 
Q 95 192.87625 97 192.87625 
z
" style="fill:#ffffff;opacity:0.8;stroke:#cccccc;stroke-linejoin:miter;"/>
    </g>
    <g id="line2d_32">
     <path d="M 99 168.618437 
L 119 168.618437 
" style="fill:none;stroke:#1f77b4;stroke-linecap:square;stroke-width:1.5;"/>
    </g>
    <g id="line2d_33"/>
    <g id="text_28">
     <!-- Total GitHub Views -->
     <g transform="translate(127 172.118437)scale(0.1 -0.1)">
      <defs>
       <path d="M 1831 0 
L 50 4666 
L 709 4666 
L 2188 738 
L 3669 4666 
L 4325 4666 
L 2547 0 
L 1831 0 
z
" id="DejaVuSans-56" transform="scale(0.015625)"/>
       <path d="M 269 3500 
L 844 3500 
L 1563 769 
L 2278 3500 
L 2956 3500 
L 3675 769 
L 4391 3500 
L 4966 3500 
L 4050 0 
L 3372 0 
L 2619 2869 
L 1863 0 
L 1184 0 
L 269 3500 
z
" id="DejaVuSans-77" transform="scale(0.015625)"/>
      </defs>
      <use xlink:href="#DejaVuSans-54"/>
      <use x="44.083984" xlink:href="#DejaVuSans-6f"/>
      <use x="105.265625" xlink:href="#DejaVuSans-74"/>
      <use x="144.474609" xlink:href="#DejaVuSans-61"/>
      <use x="205.753906" xlink:href="#DejaVuSans-6c"/>
      <use x="233.537109" xlink:href="#DejaVuSans-20"/>
      <use x="265.324219" xlink:href="#DejaVuSans-47"/>
      <use x="342.814453" xlink:href="#DejaVuSans-69"/>
      <use x="370.597656" xlink:href="#DejaVuSans-74"/>
      <use x="409.806641" xlink:href="#DejaVuSans-48"/>
      <use x="485.001953" xlink:href="#DejaVuSans-75"/>
      <use x="548.380859" xlink:href="#DejaVuSans-62"/>
      <use x="611.857422" xlink:href="#DejaVuSans-20"/>
      <use x="643.644531" xlink:href="#DejaVuSans-56"/>
      <use x="709.802734" xlink:href="#DejaVuSans-69"/>
      <use x="737.585938" xlink:href="#DejaVuSans-65"/>
      <use x="799.109375" xlink:href="#DejaVuSans-77"/>
      <use x="880.896484" xlink:href="#DejaVuSans-73"/>
     </g>
    </g>
    <g id="line2d_34">
     <path d="M 99 183.296562 
L 119 183.296562 
" style="fill:none;stroke:#ff7f0e;stroke-linecap:square;stroke-width:1.5;"/>
    </g>
    <g id="line2d_35"/>
    <g id="text_29">
     <!-- Unique GitHub Views -->
     <g transform="translate(127 186.796562)scale(0.1 -0.1)">
      <use xlink:href="#DejaVuSans-55"/>
      <use x="73.193359" xlink:href="#DejaVuSans-6e"/>
      <use x="136.572266" xlink:href="#DejaVuSans-69"/>
      <use x="164.355469" xlink:href="#DejaVuSans-71"/>
      <use x="227.832031" xlink:href="#DejaVuSans-75"/>
      <use x="291.210938" xlink:href="#DejaVuSans-65"/>
      <use x="352.734375" xlink:href="#DejaVuSans-20"/>
      <use x="384.521484" xlink:href="#DejaVuSans-47"/>
      <use x="462.011719" xlink:href="#DejaVuSans-69"/>
      <use x="489.794922" xlink:href="#DejaVuSans-74"/>
      <use x="529.003906" xlink:href="#DejaVuSans-48"/>
      <use x="604.199219" xlink:href="#DejaVuSans-75"/>
      <use x="667.578125" xlink:href="#DejaVuSans-62"/>
      <use x="731.054688" xlink:href="#DejaVuSans-20"/>
      <use x="762.841797" xlink:href="#DejaVuSans-56"/>
      <use x="829" xlink:href="#DejaVuSans-69"/>
      <use x="856.783203" xlink:href="#DejaVuSans-65"/>
      <use x="918.306641" xlink:href="#DejaVuSans-77"/>
      <use x="1000.09375" xlink:href="#DejaVuSans-73"/>
     </g>
    </g>
   </g>
  </g>
 </g>
 <defs>
  <clipPath id="pf5b977e06d">
   <rect height="100.8" width="558" x="90" y="34.56"/>
  </clipPath>
  <clipPath id="p53f5aa3ae8">
   <rect height="100.8" width="558" x="90" y="155.52"/>
  </clipPath>
 </defs>
</svg>
