<?xml version="1.0" encoding="utf-8" standalone="no"?>
<!DOCTYPE svg PUBLIC "-//W3C//DTD SVG 1.1//EN"
  "http://www.w3.org/Graphics/SVG/1.1/DTD/svg11.dtd">
<svg xmlns:xlink="http://www.w3.org/1999/xlink" width="720pt" height="288pt" viewBox="0 0 720 288" xmlns="http://www.w3.org/2000/svg" version="1.1">
 <metadata>
  <rdf:RDF xmlns:dc="http://purl.org/dc/elements/1.1/" xmlns:cc="http://creativecommons.org/ns#" xmlns:rdf="http://www.w3.org/1999/02/22-rdf-syntax-ns#">
   <cc:Work>
    <dc:type rdf:resource="http://purl.org/dc/dcmitype/StillImage"/>
    <dc:date>2022-09-19T01:00:14.409157</dc:date>
    <dc:format>image/svg+xml</dc:format>
    <dc:creator>
     <cc:Agent>
      <dc:title>Matplotlib v3.6.0, https://matplotlib.org/</dc:title>
     </cc:Agent>
    </dc:creator>
   </cc:Work>
  </rdf:RDF>
 </metadata>
 <defs>
  <style type="text/css">*{stroke-linejoin: round; stroke-linecap: butt}</style>
 </defs>
 <g id="figure_1">
  <g id="patch_1">
   <path d="M 0 288 
L 720 288 
L 720 0 
L 0 0 
z
" style="fill: #ffffff"/>
  </g>
  <g id="axes_1">
   <g id="patch_2">
    <path d="M 90 135.36 
L 648 135.36 
L 648 34.56 
L 90 34.56 
z
" style="fill: #ffffff"/>
   </g>
   <g id="matplotlib.axis_1">
    <g id="xtick_1">
     <g id="line2d_1">
      <defs>
       <path id="mf62b335d6e" d="M 0 0 
L 0 3.5 
" style="stroke: #000000; stroke-width: 0.8"/>
      </defs>
      <g>
       <use xlink:href="#mf62b335d6e" x="115.363636" y="135.36" style="stroke: #000000; stroke-width: 0.8"/>
      </g>
     </g>
     <g id="text_1">
      <!-- 2020-10-22 -->
      <g transform="translate(86.305824 149.958437) scale(0.1 -0.1)">
       <defs>
        <path id="DejaVuSans-32" d="M 1228 531 
L 3431 531 
L 3431 0 
L 469 0 
L 469 531 
Q 828 903 1448 1529 
Q 2069 2156 2228 2338 
Q 2531 2678 2651 2914 
Q 2772 3150 2772 3378 
Q 2772 3750 2511 3984 
Q 2250 4219 1831 4219 
Q 1534 4219 1204 4116 
Q 875 4013 500 3803 
L 500 4441 
Q 881 4594 1212 4672 
Q 1544 4750 1819 4750 
Q 2544 4750 2975 4387 
Q 3406 4025 3406 3419 
Q 3406 3131 3298 2873 
Q 3191 2616 2906 2266 
Q 2828 2175 2409 1742 
Q 1991 1309 1228 531 
z
" transform="scale(0.015625)"/>
        <path id="DejaVuSans-30" d="M 2034 4250 
Q 1547 4250 1301 3770 
Q 1056 3291 1056 2328 
Q 1056 1369 1301 889 
Q 1547 409 2034 409 
Q 2525 409 2770 889 
Q 3016 1369 3016 2328 
Q 3016 3291 2770 3770 
Q 2525 4250 2034 4250 
z
M 2034 4750 
Q 2819 4750 3233 4129 
Q 3647 3509 3647 2328 
Q 3647 1150 3233 529 
Q 2819 -91 2034 -91 
Q 1250 -91 836 529 
Q 422 1150 422 2328 
Q 422 3509 836 4129 
Q 1250 4750 2034 4750 
z
" transform="scale(0.015625)"/>
        <path id="DejaVuSans-2d" d="M 313 2009 
L 1997 2009 
L 1997 1497 
L 313 1497 
L 313 2009 
z
" transform="scale(0.015625)"/>
        <path id="DejaVuSans-31" d="M 794 531 
L 1825 531 
L 1825 4091 
L 703 3866 
L 703 4441 
L 1819 4666 
L 2450 4666 
L 2450 531 
L 3481 531 
L 3481 0 
L 794 0 
L 794 531 
z
" transform="scale(0.015625)"/>
       </defs>
       <use xlink:href="#DejaVuSans-32"/>
       <use xlink:href="#DejaVuSans-30" x="63.623047"/>
       <use xlink:href="#DejaVuSans-32" x="127.246094"/>
       <use xlink:href="#DejaVuSans-30" x="190.869141"/>
       <use xlink:href="#DejaVuSans-2d" x="254.492188"/>
       <use xlink:href="#DejaVuSans-31" x="290.576172"/>
       <use xlink:href="#DejaVuSans-30" x="354.199219"/>
       <use xlink:href="#DejaVuSans-2d" x="417.822266"/>
       <use xlink:href="#DejaVuSans-32" x="453.90625"/>
       <use xlink:href="#DejaVuSans-32" x="517.529297"/>
      </g>
     </g>
    </g>
    <g id="xtick_2">
     <g id="line2d_2">
      <g>
       <use xlink:href="#mf62b335d6e" x="211.256401" y="135.36" style="stroke: #000000; stroke-width: 0.8"/>
      </g>
     </g>
     <g id="text_2">
      <!-- 2021-03-17 -->
      <g transform="translate(182.198589 149.958437) scale(0.1 -0.1)">
       <defs>
        <path id="DejaVuSans-33" d="M 2597 2516 
Q 3050 2419 3304 2112 
Q 3559 1806 3559 1356 
Q 3559 666 3084 287 
Q 2609 -91 1734 -91 
Q 1441 -91 1130 -33 
Q 819 25 488 141 
L 488 750 
Q 750 597 1062 519 
Q 1375 441 1716 441 
Q 2309 441 2620 675 
Q 2931 909 2931 1356 
Q 2931 1769 2642 2001 
Q 2353 2234 1838 2234 
L 1294 2234 
L 1294 2753 
L 1863 2753 
Q 2328 2753 2575 2939 
Q 2822 3125 2822 3475 
Q 2822 3834 2567 4026 
Q 2313 4219 1838 4219 
Q 1578 4219 1281 4162 
Q 984 4106 628 3988 
L 628 4550 
Q 988 4650 1302 4700 
Q 1616 4750 1894 4750 
Q 2613 4750 3031 4423 
Q 3450 4097 3450 3541 
Q 3450 3153 3228 2886 
Q 3006 2619 2597 2516 
z
" transform="scale(0.015625)"/>
        <path id="DejaVuSans-37" d="M 525 4666 
L 3525 4666 
L 3525 4397 
L 1831 0 
L 1172 0 
L 2766 4134 
L 525 4134 
L 525 4666 
z
" transform="scale(0.015625)"/>
       </defs>
       <use xlink:href="#DejaVuSans-32"/>
       <use xlink:href="#DejaVuSans-30" x="63.623047"/>
       <use xlink:href="#DejaVuSans-32" x="127.246094"/>
       <use xlink:href="#DejaVuSans-31" x="190.869141"/>
       <use xlink:href="#DejaVuSans-2d" x="254.492188"/>
       <use xlink:href="#DejaVuSans-30" x="290.576172"/>
       <use xlink:href="#DejaVuSans-33" x="354.199219"/>
       <use xlink:href="#DejaVuSans-2d" x="417.822266"/>
       <use xlink:href="#DejaVuSans-31" x="453.90625"/>
       <use xlink:href="#DejaVuSans-37" x="517.529297"/>
      </g>
     </g>
    </g>
    <g id="xtick_3">
     <g id="line2d_3">
      <g>
       <use xlink:href="#mf62b335d6e" x="307.149167" y="135.36" style="stroke: #000000; stroke-width: 0.8"/>
      </g>
     </g>
     <g id="text_3">
      <!-- 2021-07-07 -->
      <g transform="translate(278.091354 149.958437) scale(0.1 -0.1)">
       <use xlink:href="#DejaVuSans-32"/>
       <use xlink:href="#DejaVuSans-30" x="63.623047"/>
       <use xlink:href="#DejaVuSans-32" x="127.246094"/>
       <use xlink:href="#DejaVuSans-31" x="190.869141"/>
       <use xlink:href="#DejaVuSans-2d" x="254.492188"/>
       <use xlink:href="#DejaVuSans-30" x="290.576172"/>
       <use xlink:href="#DejaVuSans-37" x="354.199219"/>
       <use xlink:href="#DejaVuSans-2d" x="417.822266"/>
       <use xlink:href="#DejaVuSans-30" x="453.90625"/>
       <use xlink:href="#DejaVuSans-37" x="517.529297"/>
      </g>
     </g>
    </g>
    <g id="xtick_4">
     <g id="line2d_4">
      <g>
       <use xlink:href="#mf62b335d6e" x="403.041932" y="135.36" style="stroke: #000000; stroke-width: 0.8"/>
      </g>
     </g>
     <g id="text_4">
      <!-- 2021-11-18 -->
      <g transform="translate(373.984119 149.958437) scale(0.1 -0.1)">
       <defs>
        <path id="DejaVuSans-38" d="M 2034 2216 
Q 1584 2216 1326 1975 
Q 1069 1734 1069 1313 
Q 1069 891 1326 650 
Q 1584 409 2034 409 
Q 2484 409 2743 651 
Q 3003 894 3003 1313 
Q 3003 1734 2745 1975 
Q 2488 2216 2034 2216 
z
M 1403 2484 
Q 997 2584 770 2862 
Q 544 3141 544 3541 
Q 544 4100 942 4425 
Q 1341 4750 2034 4750 
Q 2731 4750 3128 4425 
Q 3525 4100 3525 3541 
Q 3525 3141 3298 2862 
Q 3072 2584 2669 2484 
Q 3125 2378 3379 2068 
Q 3634 1759 3634 1313 
Q 3634 634 3220 271 
Q 2806 -91 2034 -91 
Q 1263 -91 848 271 
Q 434 634 434 1313 
Q 434 1759 690 2068 
Q 947 2378 1403 2484 
z
M 1172 3481 
Q 1172 3119 1398 2916 
Q 1625 2713 2034 2713 
Q 2441 2713 2670 2916 
Q 2900 3119 2900 3481 
Q 2900 3844 2670 4047 
Q 2441 4250 2034 4250 
Q 1625 4250 1398 4047 
Q 1172 3844 1172 3481 
z
" transform="scale(0.015625)"/>
       </defs>
       <use xlink:href="#DejaVuSans-32"/>
       <use xlink:href="#DejaVuSans-30" x="63.623047"/>
       <use xlink:href="#DejaVuSans-32" x="127.246094"/>
       <use xlink:href="#DejaVuSans-31" x="190.869141"/>
       <use xlink:href="#DejaVuSans-2d" x="254.492188"/>
       <use xlink:href="#DejaVuSans-31" x="290.576172"/>
       <use xlink:href="#DejaVuSans-31" x="354.199219"/>
       <use xlink:href="#DejaVuSans-2d" x="417.822266"/>
       <use xlink:href="#DejaVuSans-31" x="453.90625"/>
       <use xlink:href="#DejaVuSans-38" x="517.529297"/>
      </g>
     </g>
    </g>
    <g id="xtick_5">
     <g id="line2d_5">
      <g>
       <use xlink:href="#mf62b335d6e" x="498.934697" y="135.36" style="stroke: #000000; stroke-width: 0.8"/>
      </g>
     </g>
     <g id="text_5">
      <!-- 2022-03-24 -->
      <g transform="translate(469.876884 149.958437) scale(0.1 -0.1)">
       <defs>
        <path id="DejaVuSans-34" d="M 2419 4116 
L 825 1625 
L 2419 1625 
L 2419 4116 
z
M 2253 4666 
L 3047 4666 
L 3047 1625 
L 3713 1625 
L 3713 1100 
L 3047 1100 
L 3047 0 
L 2419 0 
L 2419 1100 
L 313 1100 
L 313 1709 
L 2253 4666 
z
" transform="scale(0.015625)"/>
       </defs>
       <use xlink:href="#DejaVuSans-32"/>
       <use xlink:href="#DejaVuSans-30" x="63.623047"/>
       <use xlink:href="#DejaVuSans-32" x="127.246094"/>
       <use xlink:href="#DejaVuSans-32" x="190.869141"/>
       <use xlink:href="#DejaVuSans-2d" x="254.492188"/>
       <use xlink:href="#DejaVuSans-30" x="290.576172"/>
       <use xlink:href="#DejaVuSans-33" x="354.199219"/>
       <use xlink:href="#DejaVuSans-2d" x="417.822266"/>
       <use xlink:href="#DejaVuSans-32" x="453.90625"/>
       <use xlink:href="#DejaVuSans-34" x="517.529297"/>
      </g>
     </g>
    </g>
    <g id="xtick_6">
     <g id="line2d_6">
      <g>
       <use xlink:href="#mf62b335d6e" x="594.827462" y="135.36" style="stroke: #000000; stroke-width: 0.8"/>
      </g>
     </g>
     <g id="text_6">
      <!-- 2022-08-14 -->
      <g transform="translate(565.769649 149.958437) scale(0.1 -0.1)">
       <use xlink:href="#DejaVuSans-32"/>
       <use xlink:href="#DejaVuSans-30" x="63.623047"/>
       <use xlink:href="#DejaVuSans-32" x="127.246094"/>
       <use xlink:href="#DejaVuSans-32" x="190.869141"/>
       <use xlink:href="#DejaVuSans-2d" x="254.492188"/>
       <use xlink:href="#DejaVuSans-30" x="290.576172"/>
       <use xlink:href="#DejaVuSans-38" x="354.199219"/>
       <use xlink:href="#DejaVuSans-2d" x="417.822266"/>
       <use xlink:href="#DejaVuSans-31" x="453.90625"/>
       <use xlink:href="#DejaVuSans-34" x="517.529297"/>
      </g>
     </g>
    </g>
    <g id="text_7">
     <!-- _date -->
     <g transform="translate(355.225 163.636562) scale(0.1 -0.1)">
      <defs>
       <path id="DejaVuSans-5f" d="M 3263 -1063 
L 3263 -1509 
L -63 -1509 
L -63 -1063 
L 3263 -1063 
z
" transform="scale(0.015625)"/>
       <path id="DejaVuSans-64" d="M 2906 2969 
L 2906 4863 
L 3481 4863 
L 3481 0 
L 2906 0 
L 2906 525 
Q 2725 213 2448 61 
Q 2172 -91 1784 -91 
Q 1150 -91 751 415 
Q 353 922 353 1747 
Q 353 2572 751 3078 
Q 1150 3584 1784 3584 
Q 2172 3584 2448 3432 
Q 2725 3281 2906 2969 
z
M 947 1747 
Q 947 1113 1208 752 
Q 1469 391 1925 391 
Q 2381 391 2643 752 
Q 2906 1113 2906 1747 
Q 2906 2381 2643 2742 
Q 2381 3103 1925 3103 
Q 1469 3103 1208 2742 
Q 947 2381 947 1747 
z
" transform="scale(0.015625)"/>
       <path id="DejaVuSans-61" d="M 2194 1759 
Q 1497 1759 1228 1600 
Q 959 1441 959 1056 
Q 959 750 1161 570 
Q 1363 391 1709 391 
Q 2188 391 2477 730 
Q 2766 1069 2766 1631 
L 2766 1759 
L 2194 1759 
z
M 3341 1997 
L 3341 0 
L 2766 0 
L 2766 531 
Q 2569 213 2275 61 
Q 1981 -91 1556 -91 
Q 1019 -91 701 211 
Q 384 513 384 1019 
Q 384 1609 779 1909 
Q 1175 2209 1959 2209 
L 2766 2209 
L 2766 2266 
Q 2766 2663 2505 2880 
Q 2244 3097 1772 3097 
Q 1472 3097 1187 3025 
Q 903 2953 641 2809 
L 641 3341 
Q 956 3463 1253 3523 
Q 1550 3584 1831 3584 
Q 2591 3584 2966 3190 
Q 3341 2797 3341 1997 
z
" transform="scale(0.015625)"/>
       <path id="DejaVuSans-74" d="M 1172 4494 
L 1172 3500 
L 2356 3500 
L 2356 3053 
L 1172 3053 
L 1172 1153 
Q 1172 725 1289 603 
Q 1406 481 1766 481 
L 2356 481 
L 2356 0 
L 1766 0 
Q 1100 0 847 248 
Q 594 497 594 1153 
L 594 3053 
L 172 3053 
L 172 3500 
L 594 3500 
L 594 4494 
L 1172 4494 
z
" transform="scale(0.015625)"/>
       <path id="DejaVuSans-65" d="M 3597 1894 
L 3597 1613 
L 953 1613 
Q 991 1019 1311 708 
Q 1631 397 2203 397 
Q 2534 397 2845 478 
Q 3156 559 3463 722 
L 3463 178 
Q 3153 47 2828 -22 
Q 2503 -91 2169 -91 
Q 1331 -91 842 396 
Q 353 884 353 1716 
Q 353 2575 817 3079 
Q 1281 3584 2069 3584 
Q 2775 3584 3186 3129 
Q 3597 2675 3597 1894 
z
M 3022 2063 
Q 3016 2534 2758 2815 
Q 2500 3097 2075 3097 
Q 1594 3097 1305 2825 
Q 1016 2553 972 2059 
L 3022 2063 
z
" transform="scale(0.015625)"/>
      </defs>
      <use xlink:href="#DejaVuSans-5f"/>
      <use xlink:href="#DejaVuSans-64" x="50"/>
      <use xlink:href="#DejaVuSans-61" x="113.476562"/>
      <use xlink:href="#DejaVuSans-74" x="174.755859"/>
      <use xlink:href="#DejaVuSans-65" x="213.964844"/>
     </g>
    </g>
   </g>
   <g id="matplotlib.axis_2">
    <g id="ytick_1">
     <g id="line2d_7">
      <defs>
       <path id="ma43ea18759" d="M 0 0 
L -3.5 0 
" style="stroke: #000000; stroke-width: 0.8"/>
      </defs>
      <g>
       <use xlink:href="#ma43ea18759" x="90" y="131.070017" style="stroke: #000000; stroke-width: 0.8"/>
      </g>
     </g>
     <g id="text_8">
      <!-- 0 -->
      <g transform="translate(76.6375 134.869236) scale(0.1 -0.1)">
       <use xlink:href="#DejaVuSans-30"/>
      </g>
     </g>
    </g>
    <g id="ytick_2">
     <g id="line2d_8">
      <g>
       <use xlink:href="#ma43ea18759" x="90" y="101.886462" style="stroke: #000000; stroke-width: 0.8"/>
      </g>
     </g>
     <g id="text_9">
      <!-- 100 -->
      <g transform="translate(63.9125 105.685681) scale(0.1 -0.1)">
       <use xlink:href="#DejaVuSans-31"/>
       <use xlink:href="#DejaVuSans-30" x="63.623047"/>
       <use xlink:href="#DejaVuSans-30" x="127.246094"/>
      </g>
     </g>
    </g>
    <g id="ytick_3">
     <g id="line2d_9">
      <g>
       <use xlink:href="#ma43ea18759" x="90" y="72.702907" style="stroke: #000000; stroke-width: 0.8"/>
      </g>
     </g>
     <g id="text_10">
      <!-- 200 -->
      <g transform="translate(63.9125 76.502126) scale(0.1 -0.1)">
       <use xlink:href="#DejaVuSans-32"/>
       <use xlink:href="#DejaVuSans-30" x="63.623047"/>
       <use xlink:href="#DejaVuSans-30" x="127.246094"/>
      </g>
     </g>
    </g>
    <g id="ytick_4">
     <g id="line2d_10">
      <g>
       <use xlink:href="#ma43ea18759" x="90" y="43.519351" style="stroke: #000000; stroke-width: 0.8"/>
      </g>
     </g>
     <g id="text_11">
      <!-- 300 -->
      <g transform="translate(63.9125 47.31857) scale(0.1 -0.1)">
       <use xlink:href="#DejaVuSans-33"/>
       <use xlink:href="#DejaVuSans-30" x="63.623047"/>
       <use xlink:href="#DejaVuSans-30" x="127.246094"/>
      </g>
     </g>
    </g>
   </g>
   <g id="line2d_11">
    <path d="M 115.363636 129.319004 
L 116.322564 129.61084 
L 117.281492 130.778182 
L 118.240419 130.778182 
L 119.199347 130.194511 
L 120.158275 130.194511 
L 121.117202 126.108813 
L 122.07613 126.108813 
L 123.035058 130.778182 
L 123.993985 130.778182 
L 124.952913 127.859826 
L 125.911841 128.735333 
L 126.870768 130.778182 
L 127.829696 129.319004 
L 128.788623 129.902675 
L 129.747551 129.902675 
L 130.706479 130.778182 
L 132.624334 129.61084 
L 133.583262 130.486346 
L 134.542189 130.778182 
L 135.501117 130.486346 
L 136.460045 130.486346 
L 137.418972 130.194511 
L 138.3779 130.486346 
L 139.336828 130.486346 
L 140.295755 129.902675 
L 141.254683 130.486346 
L 142.213611 130.486346 
L 143.172538 126.98432 
L 144.131466 129.319004 
L 145.090394 130.486346 
L 146.049321 123.774129 
L 147.008249 130.778182 
L 154.67967 130.778182 
L 155.638598 130.486346 
L 156.597525 130.778182 
L 163.310019 130.778182 
L 164.268947 129.902675 
L 165.227874 130.194511 
L 166.186802 130.778182 
L 167.14573 130.194511 
L 168.104657 129.319004 
L 169.063585 130.486346 
L 170.022512 130.486346 
L 170.98144 129.902675 
L 171.940368 126.108813 
L 172.899295 130.486346 
L 173.858223 130.778182 
L 174.817151 130.486346 
L 175.776078 129.027169 
L 176.735006 130.486346 
L 177.693934 130.194511 
L 178.652861 128.151662 
L 179.611789 129.902675 
L 180.570717 129.027169 
L 181.529644 130.486346 
L 182.488572 130.194511 
L 183.4475 130.486346 
L 184.406427 130.194511 
L 186.324283 130.194511 
L 187.28321 129.61084 
L 188.242138 130.778182 
L 189.201065 130.778182 
L 190.159993 129.61084 
L 191.118921 129.61084 
L 192.077848 128.151662 
L 193.036776 130.194511 
L 193.995704 129.319004 
L 194.954631 130.778182 
L 195.913559 128.443497 
L 196.872487 129.902675 
L 197.831414 130.194511 
L 198.790342 129.902675 
L 199.74927 128.735333 
L 200.708197 130.486346 
L 201.667125 129.61084 
L 202.626053 126.400649 
L 203.58498 128.735333 
L 204.543908 126.108813 
L 205.502836 110.349693 
L 206.461763 129.319004 
L 207.420691 130.778182 
L 208.379618 129.902675 
L 209.338546 127.276155 
L 210.297474 127.859826 
L 211.256401 129.319004 
L 212.215329 125.525142 
L 213.174257 129.902675 
L 214.133184 129.902675 
L 215.092112 130.486346 
L 216.05104 126.98432 
L 217.009967 127.859826 
L 217.968895 130.778182 
L 218.927823 130.194511 
L 219.88675 130.778182 
L 220.845678 129.61084 
L 221.804606 116.47824 
L 222.763533 124.941471 
L 223.722461 126.400649 
L 224.681389 129.319004 
L 225.640316 130.778182 
L 226.599244 128.735333 
L 227.558172 129.902675 
L 228.517099 126.692484 
L 229.476027 129.902675 
L 230.434954 127.276155 
L 231.393882 123.774129 
L 232.35281 126.98432 
L 233.311737 129.319004 
L 234.270665 123.482293 
L 235.229593 123.482293 
L 236.18852 124.065964 
L 237.147448 112.684378 
L 238.106376 119.688431 
L 239.065303 119.688431 
L 240.024231 125.525142 
L 240.983159 121.147609 
L 241.942086 125.233306 
L 242.901014 130.194511 
L 243.859942 130.486346 
L 244.818869 124.065964 
L 245.777797 123.190457 
L 246.736725 123.774129 
L 247.695652 121.73128 
L 248.65458 119.10476 
L 249.613507 129.61084 
L 250.572435 130.486346 
L 251.531363 124.065964 
L 252.49029 124.649635 
L 253.449218 116.47824 
L 254.408146 123.774129 
L 255.367073 124.065964 
L 256.326001 130.486346 
L 257.284929 129.902675 
L 258.243856 123.190457 
L 259.202784 117.353746 
L 260.161712 124.3578 
L 261.120639 122.606786 
L 262.079567 114.143555 
L 263.038495 124.3578 
L 263.997422 130.486346 
L 264.95635 123.190457 
L 265.915278 119.10476 
L 266.874205 117.645582 
L 267.833133 120.563937 
L 268.79206 121.73128 
L 269.750988 130.194511 
L 270.709916 123.482293 
L 271.668843 120.272102 
L 272.627771 123.774129 
L 273.586699 123.482293 
L 274.545626 122.898622 
L 275.504554 128.443497 
L 276.463482 123.774129 
L 277.422409 122.606786 
L 278.381337 123.774129 
L 279.340265 124.065964 
L 280.299192 124.065964 
L 281.25812 130.778182 
L 282.217048 130.778182 
L 283.175975 123.482293 
L 284.134903 122.023115 
L 285.093831 123.482293 
L 286.052758 117.645582 
L 287.011686 119.10476 
L 287.970614 130.778182 
L 288.929541 123.774129 
L 289.888469 122.898622 
L 290.847396 122.606786 
L 291.806324 122.023115 
L 292.765252 124.3578 
L 293.724179 130.486346 
L 294.683107 123.190457 
L 295.642035 121.439444 
L 296.600962 118.812924 
L 297.55989 118.521089 
L 298.518818 87.878356 
L 300.436673 130.778182 
L 301.395601 124.941471 
L 302.354528 124.3578 
L 303.313456 127.859826 
L 304.272384 130.778182 
L 305.231311 130.486346 
L 306.190239 127.276155 
L 307.149167 128.151662 
L 308.108094 130.486346 
L 309.067022 129.902675 
L 310.025949 130.486346 
L 310.984877 130.778182 
L 311.943805 130.486346 
L 312.902732 130.778182 
L 313.86166 129.902675 
L 314.820588 130.194511 
L 315.779515 130.778182 
L 318.656298 130.778182 
L 319.615226 129.61084 
L 320.574154 130.486346 
L 321.533081 130.778182 
L 322.492009 130.486346 
L 323.450937 129.027169 
L 324.409864 130.778182 
L 325.368792 124.3578 
L 326.32772 130.194511 
L 327.286647 130.778182 
L 329.204502 130.194511 
L 330.16343 130.778182 
L 331.122358 130.486346 
L 332.081285 130.778182 
L 333.040213 129.902675 
L 333.999141 130.486346 
L 334.958068 130.194511 
L 335.916996 130.778182 
L 337.834851 130.778182 
L 339.752707 130.194511 
L 340.711634 129.027169 
L 341.670562 130.486346 
L 342.62949 130.486346 
L 343.588417 127.859826 
L 344.547345 126.692484 
L 345.506273 130.778182 
L 347.424128 130.778182 
L 349.341983 130.194511 
L 350.300911 130.486346 
L 351.259838 128.151662 
L 352.218766 122.606786 
L 353.177694 129.319004 
L 354.136621 121.147609 
L 355.095549 128.735333 
L 356.054477 130.486346 
L 357.013404 130.778182 
L 358.93126 130.778182 
L 359.890187 130.486346 
L 360.849115 130.778182 
L 361.808043 130.778182 
L 362.76697 129.61084 
L 363.725898 115.602733 
L 364.684826 124.3578 
L 365.643753 130.194511 
L 366.602681 126.98432 
L 367.561609 115.894569 
L 368.520536 114.727226 
L 369.479464 112.100706 
L 370.438391 118.229253 
L 371.397319 126.108813 
L 372.356247 126.98432 
L 373.315174 130.778182 
L 374.274102 128.443497 
L 375.23303 130.778182 
L 376.191957 130.778182 
L 377.150885 126.692484 
L 378.109813 130.194511 
L 379.06874 115.310898 
L 380.027668 126.98432 
L 380.986596 114.435391 
L 381.945523 127.276155 
L 382.904451 129.61084 
L 383.863379 126.400649 
L 384.822306 113.559884 
L 385.781234 126.108813 
L 386.740162 126.98432 
L 387.699089 130.194511 
L 388.658017 130.778182 
L 389.616944 130.778182 
L 390.575872 130.194511 
L 391.5348 128.735333 
L 392.493727 127.567991 
L 393.452655 126.98432 
L 394.411583 130.778182 
L 395.37051 130.778182 
L 396.329438 125.816977 
L 397.288366 123.774129 
L 398.247293 130.778182 
L 399.206221 130.194511 
L 400.165149 130.778182 
L 401.124076 128.151662 
L 402.083004 130.194511 
L 403.041932 130.778182 
L 404.000859 130.486346 
L 404.959787 129.902675 
L 405.918715 129.902675 
L 406.877642 119.396595 
L 407.83657 129.902675 
L 408.795498 129.902675 
L 409.754425 126.108813 
L 410.713353 118.812924 
L 411.67228 127.276155 
L 412.631208 127.276155 
L 413.590136 130.194511 
L 414.549063 125.816977 
L 415.507991 117.937417 
L 416.466919 99.259942 
L 417.425846 127.276155 
L 418.384774 122.606786 
L 419.343702 130.778182 
L 420.302629 118.521089 
L 421.261557 116.186404 
L 422.220485 129.027169 
L 423.179412 124.3578 
L 424.13834 130.778182 
L 425.097268 130.778182 
L 426.056195 116.770075 
L 427.015123 115.894569 
L 427.974051 130.486346 
L 428.932978 126.108813 
L 429.891906 130.778182 
L 430.850833 130.778182 
L 431.809761 130.194511 
L 432.768689 130.486346 
L 433.727616 129.902675 
L 434.686544 130.778182 
L 435.645472 126.692484 
L 436.604399 124.3578 
L 437.563327 113.559884 
L 438.522255 127.859826 
L 439.481182 130.486346 
L 440.44011 123.482293 
L 441.399038 130.486346 
L 442.357965 128.443497 
L 443.316893 125.816977 
L 444.275821 126.98432 
L 445.234748 129.319004 
L 446.193676 130.486346 
L 447.152604 129.027169 
L 448.111531 123.774129 
L 449.070459 129.61084 
L 450.029386 126.98432 
L 450.988314 128.151662 
L 451.947242 130.778182 
L 452.906169 104.804818 
L 453.865097 124.649635 
L 454.824025 115.019062 
L 455.782952 126.692484 
L 456.74188 106.263995 
L 457.700808 130.778182 
L 458.659735 125.233306 
L 460.577591 116.186404 
L 461.536518 120.563937 
L 462.495446 128.443497 
L 463.454374 130.778182 
L 465.372229 110.641529 
L 466.331157 112.100706 
L 467.290084 130.778182 
L 468.249012 126.98432 
L 469.20794 129.902675 
L 470.166867 113.85172 
L 471.125795 129.902675 
L 472.084722 130.778182 
L 474.002578 130.778182 
L 474.961505 129.61084 
L 475.920433 129.902675 
L 476.879361 127.859826 
L 477.838288 129.027169 
L 478.797216 127.567991 
L 479.756144 122.314951 
L 480.715071 130.486346 
L 481.673999 106.555831 
L 482.632927 127.276155 
L 483.591854 126.692484 
L 484.550782 114.143555 
L 485.50971 124.649635 
L 487.427565 130.486346 
L 488.386493 129.319004 
L 489.34542 130.486346 
L 490.304348 127.859826 
L 491.263275 104.804818 
L 492.222203 93.423231 
L 493.181131 121.147609 
L 494.140058 130.486346 
L 495.098986 126.108813 
L 496.057914 129.902675 
L 497.016841 130.194511 
L 497.975769 130.778182 
L 498.934697 130.778182 
L 499.893624 130.486346 
L 501.81148 130.486346 
L 502.770407 130.778182 
L 503.729335 130.778182 
L 504.688263 130.194511 
L 505.64719 130.194511 
L 506.606118 130.778182 
L 507.565046 130.778182 
L 508.523973 130.486346 
L 509.482901 130.486346 
L 510.441828 130.778182 
L 511.400756 130.486346 
L 512.359684 129.902675 
L 513.318611 130.486346 
L 514.277539 130.778182 
L 515.236467 130.194511 
L 516.195394 130.194511 
L 517.154322 129.61084 
L 518.11325 127.276155 
L 519.072177 129.61084 
L 520.031105 130.486346 
L 520.990033 130.194511 
L 521.94896 128.443497 
L 522.907888 125.816977 
L 523.866816 130.778182 
L 524.825743 130.486346 
L 525.784671 130.778182 
L 526.743599 130.778182 
L 527.702526 127.276155 
L 528.661454 130.778182 
L 529.620382 127.276155 
L 530.579309 130.778182 
L 531.538237 130.486346 
L 532.497164 122.606786 
L 533.456092 130.486346 
L 534.41502 118.521089 
L 535.373947 127.567991 
L 536.332875 102.178298 
L 537.291803 118.812924 
L 538.25073 129.61084 
L 539.209658 130.486346 
L 540.168586 130.194511 
L 541.127513 130.486346 
L 542.086441 117.645582 
L 543.045369 129.902675 
L 544.004296 130.778182 
L 544.963224 130.486346 
L 545.922152 125.816977 
L 546.881079 130.778182 
L 548.798935 130.778182 
L 549.757862 128.735333 
L 550.71679 120.563937 
L 551.675717 130.778182 
L 552.634645 129.902675 
L 553.593573 123.774129 
L 554.5525 122.606786 
L 555.511428 130.778182 
L 556.470356 129.902675 
L 557.429283 130.194511 
L 558.388211 127.859826 
L 559.347139 130.194511 
L 560.306066 129.319004 
L 561.264994 130.486346 
L 562.223922 130.778182 
L 563.182849 129.61084 
L 564.141777 129.027169 
L 565.100705 129.902675 
L 566.059632 119.10476 
L 567.01856 130.194511 
L 567.977488 122.023115 
L 568.936415 130.778182 
L 569.895343 129.027169 
L 570.85427 125.816977 
L 571.813198 130.778182 
L 572.772126 130.194511 
L 573.731053 130.486346 
L 574.689981 110.933364 
L 575.648909 129.027169 
L 576.607836 130.778182 
L 577.566764 130.486346 
L 578.525692 122.898622 
L 579.484619 126.108813 
L 580.443547 130.486346 
L 581.402475 124.3578 
L 582.361402 130.778182 
L 583.32033 130.778182 
L 584.279258 129.61084 
L 585.238185 130.778182 
L 586.197113 127.276155 
L 587.156041 130.194511 
L 588.114968 130.486346 
L 589.073896 130.486346 
L 590.032824 129.902675 
L 590.991751 127.276155 
L 591.950679 126.108813 
L 592.909606 126.400649 
L 593.868534 130.486346 
L 594.827462 130.486346 
L 596.745317 113.559884 
L 597.704245 130.778182 
L 598.663172 121.147609 
L 599.6221 129.902675 
L 600.581028 130.778182 
L 601.539955 129.319004 
L 602.498883 129.61084 
L 603.457811 130.778182 
L 604.416738 39.141818 
L 605.375666 129.027169 
L 606.334594 126.98432 
L 607.293521 100.71912 
L 608.252449 125.816977 
L 609.211377 130.486346 
L 610.170304 128.443497 
L 611.129232 130.778182 
L 612.088159 130.194511 
L 613.047087 127.859826 
L 614.006015 130.486346 
L 614.964942 124.3578 
L 615.92387 127.567991 
L 616.882798 129.902675 
L 617.841725 129.319004 
L 618.800653 121.73128 
L 619.759581 130.778182 
L 620.718508 130.486346 
L 621.677436 129.61084 
L 622.636364 126.400649 
L 622.636364 126.400649 
" clip-path="url(#pbcf8eb558e)" style="fill: none; stroke: #1f77b4; stroke-width: 1.5; stroke-linecap: square"/>
   </g>
   <g id="line2d_12">
    <path d="M 115.363636 129.319004 
L 116.322564 129.61084 
L 117.281492 130.778182 
L 118.240419 130.778182 
L 119.199347 130.194511 
L 120.158275 130.194511 
L 121.117202 130.486346 
L 122.07613 129.61084 
L 123.035058 130.778182 
L 123.993985 130.778182 
L 124.952913 127.859826 
L 125.911841 130.194511 
L 126.870768 130.778182 
L 127.829696 129.902675 
L 128.788623 129.902675 
L 129.747551 130.194511 
L 130.706479 130.778182 
L 131.665406 130.194511 
L 132.624334 129.902675 
L 133.583262 130.486346 
L 134.542189 130.778182 
L 135.501117 130.486346 
L 136.460045 130.778182 
L 137.418972 130.194511 
L 139.336828 130.778182 
L 140.295755 130.486346 
L 141.254683 130.778182 
L 142.213611 130.486346 
L 143.172538 128.443497 
L 144.131466 129.319004 
L 145.090394 130.486346 
L 146.049321 128.151662 
L 147.008249 130.778182 
L 154.67967 130.778182 
L 155.638598 130.486346 
L 156.597525 130.778182 
L 163.310019 130.778182 
L 164.268947 130.194511 
L 165.227874 130.778182 
L 166.186802 130.778182 
L 168.104657 130.194511 
L 169.063585 130.778182 
L 170.98144 130.778182 
L 171.940368 127.859826 
L 172.899295 130.778182 
L 173.858223 130.778182 
L 174.817151 130.486346 
L 175.776078 129.902675 
L 176.735006 130.486346 
L 177.693934 130.194511 
L 178.652861 129.027169 
L 179.611789 130.194511 
L 180.570717 130.778182 
L 181.529644 130.486346 
L 182.488572 130.778182 
L 183.4475 130.486346 
L 184.406427 130.778182 
L 185.365355 130.194511 
L 187.28321 130.194511 
L 188.242138 130.778182 
L 189.201065 130.778182 
L 192.077848 129.027169 
L 193.036776 130.194511 
L 193.995704 129.61084 
L 194.954631 130.778182 
L 195.913559 129.027169 
L 196.872487 129.902675 
L 197.831414 130.194511 
L 198.790342 129.902675 
L 199.74927 128.735333 
L 200.708197 130.486346 
L 201.667125 129.61084 
L 202.626053 127.859826 
L 203.58498 129.027169 
L 204.543908 127.276155 
L 205.502836 120.563937 
L 206.461763 129.319004 
L 207.420691 130.778182 
L 208.379618 130.194511 
L 209.338546 127.567991 
L 211.256401 129.319004 
L 212.215329 126.692484 
L 213.174257 129.902675 
L 214.133184 129.902675 
L 215.092112 130.486346 
L 216.05104 127.859826 
L 217.009967 127.859826 
L 217.968895 130.778182 
L 218.927823 130.194511 
L 219.88675 130.778182 
L 220.845678 129.902675 
L 221.804606 124.065964 
L 222.763533 126.98432 
L 223.722461 127.859826 
L 224.681389 129.61084 
L 225.640316 130.778182 
L 226.599244 129.319004 
L 227.558172 130.486346 
L 228.517099 127.567991 
L 229.476027 130.194511 
L 230.434954 127.567991 
L 231.393882 125.816977 
L 232.35281 127.276155 
L 233.311737 129.61084 
L 234.270665 126.108813 
L 235.229593 128.151662 
L 236.18852 130.486346 
L 237.147448 126.400649 
L 238.106376 129.902675 
L 239.065303 128.443497 
L 240.024231 126.400649 
L 240.983159 128.151662 
L 241.942086 130.778182 
L 242.901014 130.486346 
L 243.859942 130.486346 
L 244.818869 130.778182 
L 245.777797 129.902675 
L 246.736725 130.194511 
L 248.65458 126.108813 
L 249.613507 129.61084 
L 250.572435 130.486346 
L 251.531363 130.778182 
L 252.49029 129.902675 
L 253.449218 124.649635 
L 254.408146 130.778182 
L 255.367073 130.194511 
L 256.326001 130.486346 
L 258.243856 130.486346 
L 259.202784 125.233306 
L 260.161712 129.902675 
L 261.120639 129.027169 
L 262.079567 123.774129 
L 263.038495 125.816977 
L 263.997422 130.486346 
L 264.95635 130.778182 
L 265.915278 128.443497 
L 266.874205 130.194511 
L 267.833133 129.902675 
L 268.79206 130.486346 
L 269.750988 130.486346 
L 270.709916 130.778182 
L 271.668843 127.567991 
L 272.627771 130.778182 
L 273.586699 130.486346 
L 274.545626 129.902675 
L 275.504554 129.027169 
L 276.463482 130.778182 
L 277.422409 129.902675 
L 278.381337 130.778182 
L 279.340265 130.194511 
L 280.299192 130.194511 
L 281.25812 130.778182 
L 283.175975 130.778182 
L 284.134903 129.319004 
L 285.093831 130.778182 
L 286.052758 129.902675 
L 287.011686 128.443497 
L 287.970614 130.778182 
L 288.929541 130.778182 
L 289.888469 130.486346 
L 290.847396 129.902675 
L 293.724179 130.778182 
L 294.683107 130.486346 
L 295.642035 128.735333 
L 296.600962 128.735333 
L 297.55989 129.319004 
L 298.518818 130.778182 
L 299.477745 126.400649 
L 300.436673 130.778182 
L 301.395601 130.486346 
L 302.354528 128.735333 
L 303.313456 128.443497 
L 304.272384 130.778182 
L 305.231311 130.486346 
L 306.190239 127.276155 
L 307.149167 128.735333 
L 308.108094 130.486346 
L 309.067022 129.902675 
L 310.025949 130.778182 
L 310.984877 130.778182 
L 311.943805 130.486346 
L 312.902732 130.778182 
L 313.86166 129.902675 
L 314.820588 130.194511 
L 315.779515 130.778182 
L 318.656298 130.778182 
L 319.615226 129.61084 
L 320.574154 130.486346 
L 321.533081 130.778182 
L 322.492009 130.486346 
L 323.450937 129.319004 
L 324.409864 130.778182 
L 325.368792 130.778182 
L 326.32772 130.194511 
L 327.286647 130.778182 
L 329.204502 130.194511 
L 330.16343 130.778182 
L 331.122358 130.486346 
L 332.081285 130.778182 
L 333.040213 129.902675 
L 333.999141 130.486346 
L 334.958068 130.194511 
L 335.916996 130.778182 
L 337.834851 130.778182 
L 339.752707 130.194511 
L 340.711634 129.027169 
L 341.670562 130.486346 
L 342.62949 130.778182 
L 343.588417 127.859826 
L 344.547345 127.567991 
L 345.506273 130.778182 
L 347.424128 130.778182 
L 349.341983 130.194511 
L 350.300911 130.778182 
L 351.259838 128.443497 
L 352.218766 126.692484 
L 353.177694 130.486346 
L 354.136621 126.400649 
L 355.095549 129.319004 
L 356.054477 130.778182 
L 358.93126 130.778182 
L 359.890187 130.486346 
L 360.849115 130.778182 
L 361.808043 130.778182 
L 362.76697 129.61084 
L 363.725898 123.190457 
L 364.684826 125.525142 
L 365.643753 130.194511 
L 366.602681 127.567991 
L 367.561609 123.190457 
L 368.520536 122.023115 
L 369.479464 122.023115 
L 370.438391 125.525142 
L 371.397319 126.400649 
L 372.356247 127.859826 
L 373.315174 130.778182 
L 374.274102 128.735333 
L 375.23303 130.778182 
L 376.191957 130.778182 
L 377.150885 127.276155 
L 378.109813 130.194511 
L 379.06874 126.98432 
L 380.027668 129.61084 
L 380.986596 128.735333 
L 381.945523 130.486346 
L 382.904451 130.778182 
L 383.863379 129.61084 
L 384.822306 126.400649 
L 385.781234 128.443497 
L 386.740162 128.735333 
L 387.699089 130.486346 
L 388.658017 130.778182 
L 389.616944 130.778182 
L 390.575872 130.194511 
L 391.5348 129.902675 
L 392.493727 129.027169 
L 393.452655 129.027169 
L 394.411583 130.778182 
L 395.37051 130.778182 
L 396.329438 128.151662 
L 397.288366 127.567991 
L 398.247293 130.778182 
L 399.206221 130.194511 
L 400.165149 130.778182 
L 401.124076 129.319004 
L 402.083004 130.194511 
L 403.041932 130.778182 
L 404.000859 130.486346 
L 404.959787 129.902675 
L 405.918715 129.902675 
L 406.877642 126.692484 
L 407.83657 129.902675 
L 408.795498 130.194511 
L 409.754425 128.735333 
L 410.713353 125.816977 
L 411.67228 128.735333 
L 412.631208 129.027169 
L 413.590136 130.486346 
L 414.549063 128.735333 
L 416.466919 122.314951 
L 417.425846 129.319004 
L 418.384774 127.567991 
L 419.343702 130.778182 
L 420.302629 126.108813 
L 421.261557 124.3578 
L 422.220485 129.61084 
L 423.179412 127.567991 
L 424.13834 130.778182 
L 425.097268 130.778182 
L 426.056195 125.816977 
L 427.015123 124.065964 
L 427.974051 130.486346 
L 428.932978 128.443497 
L 429.891906 130.778182 
L 430.850833 130.778182 
L 431.809761 130.486346 
L 432.768689 130.778182 
L 433.727616 130.486346 
L 434.686544 130.778182 
L 435.645472 128.735333 
L 436.604399 127.859826 
L 437.563327 124.3578 
L 438.522255 129.319004 
L 439.481182 130.778182 
L 440.44011 126.98432 
L 441.399038 130.486346 
L 443.316893 128.735333 
L 444.275821 129.319004 
L 445.234748 129.61084 
L 446.193676 130.778182 
L 447.152604 129.319004 
L 448.111531 126.98432 
L 449.070459 130.194511 
L 450.029386 129.027169 
L 450.988314 129.319004 
L 451.947242 130.778182 
L 452.906169 121.147609 
L 453.865097 127.567991 
L 454.824025 124.941471 
L 455.782952 128.735333 
L 456.74188 122.023115 
L 457.700808 130.778182 
L 458.659735 130.486346 
L 459.618663 125.233306 
L 460.577591 124.3578 
L 461.536518 125.233306 
L 462.495446 129.61084 
L 463.454374 130.778182 
L 464.413301 126.400649 
L 465.372229 122.898622 
L 466.331157 122.606786 
L 467.290084 130.778182 
L 468.249012 129.027169 
L 469.20794 130.778182 
L 470.166867 124.3578 
L 471.125795 130.194511 
L 472.084722 130.778182 
L 474.002578 130.778182 
L 474.961505 129.902675 
L 475.920433 130.486346 
L 476.879361 129.319004 
L 477.838288 129.902675 
L 478.797216 129.319004 
L 479.756144 126.400649 
L 480.715071 130.486346 
L 481.673999 122.023115 
L 482.632927 128.735333 
L 483.591854 128.443497 
L 484.550782 124.649635 
L 485.50971 128.151662 
L 486.468637 128.735333 
L 487.427565 130.778182 
L 488.386493 129.902675 
L 489.34542 130.778182 
L 490.304348 129.61084 
L 491.263275 124.941471 
L 492.222203 118.521089 
L 493.181131 126.692484 
L 494.140058 130.486346 
L 495.098986 130.778182 
L 496.057914 129.902675 
L 497.016841 130.194511 
L 497.975769 130.778182 
L 498.934697 130.778182 
L 499.893624 130.486346 
L 500.852552 130.778182 
L 501.81148 130.486346 
L 502.770407 130.778182 
L 503.729335 130.778182 
L 504.688263 130.194511 
L 506.606118 130.778182 
L 507.565046 130.778182 
L 508.523973 130.486346 
L 509.482901 130.486346 
L 510.441828 130.778182 
L 511.400756 130.486346 
L 513.318611 130.486346 
L 514.277539 130.778182 
L 515.236467 130.194511 
L 516.195394 130.486346 
L 517.154322 129.902675 
L 518.11325 129.027169 
L 519.072177 130.194511 
L 520.031105 130.486346 
L 520.990033 130.194511 
L 522.907888 129.027169 
L 523.866816 130.778182 
L 524.825743 130.486346 
L 525.784671 130.778182 
L 526.743599 130.778182 
L 527.702526 129.61084 
L 528.661454 130.778182 
L 529.620382 128.735333 
L 530.579309 130.778182 
L 531.538237 130.778182 
L 532.497164 127.567991 
L 533.456092 130.778182 
L 534.41502 125.525142 
L 535.373947 128.735333 
L 536.332875 122.606786 
L 537.291803 126.108813 
L 538.25073 130.194511 
L 539.209658 130.486346 
L 543.045369 130.486346 
L 544.004296 130.778182 
L 544.963224 130.486346 
L 545.922152 130.486346 
L 546.881079 130.778182 
L 548.798935 130.778182 
L 549.757862 129.319004 
L 550.71679 125.525142 
L 551.675717 130.778182 
L 552.634645 130.194511 
L 553.593573 129.319004 
L 554.5525 127.276155 
L 555.511428 130.778182 
L 556.470356 130.194511 
L 557.429283 130.486346 
L 558.388211 129.319004 
L 559.347139 130.486346 
L 560.306066 130.194511 
L 562.223922 130.778182 
L 563.182849 129.902675 
L 564.141777 129.902675 
L 565.100705 130.486346 
L 566.059632 125.525142 
L 567.01856 130.194511 
L 567.977488 126.692484 
L 568.936415 130.778182 
L 569.895343 129.902675 
L 570.85427 128.443497 
L 571.813198 130.778182 
L 572.772126 130.194511 
L 573.731053 130.486346 
L 574.689981 124.065964 
L 575.648909 129.61084 
L 576.607836 130.778182 
L 577.566764 130.486346 
L 578.525692 127.859826 
L 579.484619 128.151662 
L 580.443547 130.486346 
L 581.402475 127.276155 
L 582.361402 130.778182 
L 583.32033 130.778182 
L 584.279258 129.902675 
L 585.238185 130.778182 
L 586.197113 129.319004 
L 587.156041 130.194511 
L 588.114968 130.778182 
L 589.073896 130.486346 
L 590.032824 130.486346 
L 590.991751 129.027169 
L 591.950679 130.486346 
L 592.909606 130.778182 
L 594.827462 130.778182 
L 595.786389 126.692484 
L 596.745317 123.774129 
L 597.704245 130.778182 
L 598.663172 126.400649 
L 599.6221 130.486346 
L 600.581028 130.778182 
L 601.539955 130.194511 
L 602.498883 130.194511 
L 603.457811 130.778182 
L 604.416738 118.229253 
L 605.375666 129.902675 
L 606.334594 129.027169 
L 607.293521 120.272102 
L 608.252449 128.443497 
L 609.211377 130.486346 
L 610.170304 129.61084 
L 611.129232 130.778182 
L 612.088159 130.194511 
L 613.047087 129.027169 
L 614.006015 130.486346 
L 614.964942 128.443497 
L 615.92387 129.902675 
L 616.882798 130.486346 
L 617.841725 130.194511 
L 618.800653 128.735333 
L 619.759581 130.778182 
L 621.677436 130.778182 
L 622.636364 130.194511 
L 622.636364 130.194511 
" clip-path="url(#pbcf8eb558e)" style="fill: none; stroke: #ff7f0e; stroke-width: 1.5; stroke-linecap: square"/>
   </g>
   <g id="patch_3">
    <path d="M 90 135.36 
L 90 34.56 
" style="fill: none; stroke: #000000; stroke-width: 0.8; stroke-linejoin: miter; stroke-linecap: square"/>
   </g>
   <g id="patch_4">
    <path d="M 648 135.36 
L 648 34.56 
" style="fill: none; stroke: #000000; stroke-width: 0.8; stroke-linejoin: miter; stroke-linecap: square"/>
   </g>
   <g id="patch_5">
    <path d="M 90 135.36 
L 648 135.36 
" style="fill: none; stroke: #000000; stroke-width: 0.8; stroke-linejoin: miter; stroke-linecap: square"/>
   </g>
   <g id="patch_6">
    <path d="M 90 34.56 
L 648 34.56 
" style="fill: none; stroke: #000000; stroke-width: 0.8; stroke-linejoin: miter; stroke-linecap: square"/>
   </g>
   <g id="legend_1">
    <g id="patch_7">
     <path d="M 97 71.91625 
L 238.8625 71.91625 
Q 240.8625 71.91625 240.8625 69.91625 
L 240.8625 41.56 
Q 240.8625 39.56 238.8625 39.56 
L 97 39.56 
Q 95 39.56 95 41.56 
L 95 69.91625 
Q 95 71.91625 97 71.91625 
z
" style="fill: #ffffff; opacity: 0.8; stroke: #cccccc; stroke-linejoin: miter"/>
    </g>
    <g id="line2d_13">
     <path d="M 99 47.658437 
L 109 47.658437 
L 119 47.658437 
" style="fill: none; stroke: #1f77b4; stroke-width: 1.5; stroke-linecap: square"/>
    </g>
    <g id="text_12">
     <!-- Total GitHub Clones -->
     <g transform="translate(127 51.158437) scale(0.1 -0.1)">
      <defs>
       <path id="DejaVuSans-54" d="M -19 4666 
L 3928 4666 
L 3928 4134 
L 2272 4134 
L 2272 0 
L 1638 0 
L 1638 4134 
L -19 4134 
L -19 4666 
z
" transform="scale(0.015625)"/>
       <path id="DejaVuSans-6f" d="M 1959 3097 
Q 1497 3097 1228 2736 
Q 959 2375 959 1747 
Q 959 1119 1226 758 
Q 1494 397 1959 397 
Q 2419 397 2687 759 
Q 2956 1122 2956 1747 
Q 2956 2369 2687 2733 
Q 2419 3097 1959 3097 
z
M 1959 3584 
Q 2709 3584 3137 3096 
Q 3566 2609 3566 1747 
Q 3566 888 3137 398 
Q 2709 -91 1959 -91 
Q 1206 -91 779 398 
Q 353 888 353 1747 
Q 353 2609 779 3096 
Q 1206 3584 1959 3584 
z
" transform="scale(0.015625)"/>
       <path id="DejaVuSans-6c" d="M 603 4863 
L 1178 4863 
L 1178 0 
L 603 0 
L 603 4863 
z
" transform="scale(0.015625)"/>
       <path id="DejaVuSans-20" transform="scale(0.015625)"/>
       <path id="DejaVuSans-47" d="M 3809 666 
L 3809 1919 
L 2778 1919 
L 2778 2438 
L 4434 2438 
L 4434 434 
Q 4069 175 3628 42 
Q 3188 -91 2688 -91 
Q 1594 -91 976 548 
Q 359 1188 359 2328 
Q 359 3472 976 4111 
Q 1594 4750 2688 4750 
Q 3144 4750 3555 4637 
Q 3966 4525 4313 4306 
L 4313 3634 
Q 3963 3931 3569 4081 
Q 3175 4231 2741 4231 
Q 1884 4231 1454 3753 
Q 1025 3275 1025 2328 
Q 1025 1384 1454 906 
Q 1884 428 2741 428 
Q 3075 428 3337 486 
Q 3600 544 3809 666 
z
" transform="scale(0.015625)"/>
       <path id="DejaVuSans-69" d="M 603 3500 
L 1178 3500 
L 1178 0 
L 603 0 
L 603 3500 
z
M 603 4863 
L 1178 4863 
L 1178 4134 
L 603 4134 
L 603 4863 
z
" transform="scale(0.015625)"/>
       <path id="DejaVuSans-48" d="M 628 4666 
L 1259 4666 
L 1259 2753 
L 3553 2753 
L 3553 4666 
L 4184 4666 
L 4184 0 
L 3553 0 
L 3553 2222 
L 1259 2222 
L 1259 0 
L 628 0 
L 628 4666 
z
" transform="scale(0.015625)"/>
       <path id="DejaVuSans-75" d="M 544 1381 
L 544 3500 
L 1119 3500 
L 1119 1403 
Q 1119 906 1312 657 
Q 1506 409 1894 409 
Q 2359 409 2629 706 
Q 2900 1003 2900 1516 
L 2900 3500 
L 3475 3500 
L 3475 0 
L 2900 0 
L 2900 538 
Q 2691 219 2414 64 
Q 2138 -91 1772 -91 
Q 1169 -91 856 284 
Q 544 659 544 1381 
z
M 1991 3584 
L 1991 3584 
z
" transform="scale(0.015625)"/>
       <path id="DejaVuSans-62" d="M 3116 1747 
Q 3116 2381 2855 2742 
Q 2594 3103 2138 3103 
Q 1681 3103 1420 2742 
Q 1159 2381 1159 1747 
Q 1159 1113 1420 752 
Q 1681 391 2138 391 
Q 2594 391 2855 752 
Q 3116 1113 3116 1747 
z
M 1159 2969 
Q 1341 3281 1617 3432 
Q 1894 3584 2278 3584 
Q 2916 3584 3314 3078 
Q 3713 2572 3713 1747 
Q 3713 922 3314 415 
Q 2916 -91 2278 -91 
Q 1894 -91 1617 61 
Q 1341 213 1159 525 
L 1159 0 
L 581 0 
L 581 4863 
L 1159 4863 
L 1159 2969 
z
" transform="scale(0.015625)"/>
       <path id="DejaVuSans-43" d="M 4122 4306 
L 4122 3641 
Q 3803 3938 3442 4084 
Q 3081 4231 2675 4231 
Q 1875 4231 1450 3742 
Q 1025 3253 1025 2328 
Q 1025 1406 1450 917 
Q 1875 428 2675 428 
Q 3081 428 3442 575 
Q 3803 722 4122 1019 
L 4122 359 
Q 3791 134 3420 21 
Q 3050 -91 2638 -91 
Q 1578 -91 968 557 
Q 359 1206 359 2328 
Q 359 3453 968 4101 
Q 1578 4750 2638 4750 
Q 3056 4750 3426 4639 
Q 3797 4528 4122 4306 
z
" transform="scale(0.015625)"/>
       <path id="DejaVuSans-6e" d="M 3513 2113 
L 3513 0 
L 2938 0 
L 2938 2094 
Q 2938 2591 2744 2837 
Q 2550 3084 2163 3084 
Q 1697 3084 1428 2787 
Q 1159 2491 1159 1978 
L 1159 0 
L 581 0 
L 581 3500 
L 1159 3500 
L 1159 2956 
Q 1366 3272 1645 3428 
Q 1925 3584 2291 3584 
Q 2894 3584 3203 3211 
Q 3513 2838 3513 2113 
z
" transform="scale(0.015625)"/>
       <path id="DejaVuSans-73" d="M 2834 3397 
L 2834 2853 
Q 2591 2978 2328 3040 
Q 2066 3103 1784 3103 
Q 1356 3103 1142 2972 
Q 928 2841 928 2578 
Q 928 2378 1081 2264 
Q 1234 2150 1697 2047 
L 1894 2003 
Q 2506 1872 2764 1633 
Q 3022 1394 3022 966 
Q 3022 478 2636 193 
Q 2250 -91 1575 -91 
Q 1294 -91 989 -36 
Q 684 19 347 128 
L 347 722 
Q 666 556 975 473 
Q 1284 391 1588 391 
Q 1994 391 2212 530 
Q 2431 669 2431 922 
Q 2431 1156 2273 1281 
Q 2116 1406 1581 1522 
L 1381 1569 
Q 847 1681 609 1914 
Q 372 2147 372 2553 
Q 372 3047 722 3315 
Q 1072 3584 1716 3584 
Q 2034 3584 2315 3537 
Q 2597 3491 2834 3397 
z
" transform="scale(0.015625)"/>
      </defs>
      <use xlink:href="#DejaVuSans-54"/>
      <use xlink:href="#DejaVuSans-6f" x="44.083984"/>
      <use xlink:href="#DejaVuSans-74" x="105.265625"/>
      <use xlink:href="#DejaVuSans-61" x="144.474609"/>
      <use xlink:href="#DejaVuSans-6c" x="205.753906"/>
      <use xlink:href="#DejaVuSans-20" x="233.537109"/>
      <use xlink:href="#DejaVuSans-47" x="265.324219"/>
      <use xlink:href="#DejaVuSans-69" x="342.814453"/>
      <use xlink:href="#DejaVuSans-74" x="370.597656"/>
      <use xlink:href="#DejaVuSans-48" x="409.806641"/>
      <use xlink:href="#DejaVuSans-75" x="485.001953"/>
      <use xlink:href="#DejaVuSans-62" x="548.380859"/>
      <use xlink:href="#DejaVuSans-20" x="611.857422"/>
      <use xlink:href="#DejaVuSans-43" x="643.644531"/>
      <use xlink:href="#DejaVuSans-6c" x="713.46875"/>
      <use xlink:href="#DejaVuSans-6f" x="741.251953"/>
      <use xlink:href="#DejaVuSans-6e" x="802.433594"/>
      <use xlink:href="#DejaVuSans-65" x="865.8125"/>
      <use xlink:href="#DejaVuSans-73" x="927.335938"/>
     </g>
    </g>
    <g id="line2d_14">
     <path d="M 99 62.336562 
L 109 62.336562 
L 119 62.336562 
" style="fill: none; stroke: #ff7f0e; stroke-width: 1.5; stroke-linecap: square"/>
    </g>
    <g id="text_13">
     <!-- Unique GitHub Clones -->
     <g transform="translate(127 65.836562) scale(0.1 -0.1)">
      <defs>
       <path id="DejaVuSans-55" d="M 556 4666 
L 1191 4666 
L 1191 1831 
Q 1191 1081 1462 751 
Q 1734 422 2344 422 
Q 2950 422 3222 751 
Q 3494 1081 3494 1831 
L 3494 4666 
L 4128 4666 
L 4128 1753 
Q 4128 841 3676 375 
Q 3225 -91 2344 -91 
Q 1459 -91 1007 375 
Q 556 841 556 1753 
L 556 4666 
z
" transform="scale(0.015625)"/>
       <path id="DejaVuSans-71" d="M 947 1747 
Q 947 1113 1208 752 
Q 1469 391 1925 391 
Q 2381 391 2643 752 
Q 2906 1113 2906 1747 
Q 2906 2381 2643 2742 
Q 2381 3103 1925 3103 
Q 1469 3103 1208 2742 
Q 947 2381 947 1747 
z
M 2906 525 
Q 2725 213 2448 61 
Q 2172 -91 1784 -91 
Q 1150 -91 751 415 
Q 353 922 353 1747 
Q 353 2572 751 3078 
Q 1150 3584 1784 3584 
Q 2172 3584 2448 3432 
Q 2725 3281 2906 2969 
L 2906 3500 
L 3481 3500 
L 3481 -1331 
L 2906 -1331 
L 2906 525 
z
" transform="scale(0.015625)"/>
      </defs>
      <use xlink:href="#DejaVuSans-55"/>
      <use xlink:href="#DejaVuSans-6e" x="73.193359"/>
      <use xlink:href="#DejaVuSans-69" x="136.572266"/>
      <use xlink:href="#DejaVuSans-71" x="164.355469"/>
      <use xlink:href="#DejaVuSans-75" x="227.832031"/>
      <use xlink:href="#DejaVuSans-65" x="291.210938"/>
      <use xlink:href="#DejaVuSans-20" x="352.734375"/>
      <use xlink:href="#DejaVuSans-47" x="384.521484"/>
      <use xlink:href="#DejaVuSans-69" x="462.011719"/>
      <use xlink:href="#DejaVuSans-74" x="489.794922"/>
      <use xlink:href="#DejaVuSans-48" x="529.003906"/>
      <use xlink:href="#DejaVuSans-75" x="604.199219"/>
      <use xlink:href="#DejaVuSans-62" x="667.578125"/>
      <use xlink:href="#DejaVuSans-20" x="731.054688"/>
      <use xlink:href="#DejaVuSans-43" x="762.841797"/>
      <use xlink:href="#DejaVuSans-6c" x="832.666016"/>
      <use xlink:href="#DejaVuSans-6f" x="860.449219"/>
      <use xlink:href="#DejaVuSans-6e" x="921.630859"/>
      <use xlink:href="#DejaVuSans-65" x="985.009766"/>
      <use xlink:href="#DejaVuSans-73" x="1046.533203"/>
     </g>
    </g>
   </g>
  </g>
  <g id="axes_2">
   <g id="patch_8">
    <path d="M 90 256.32 
L 648 256.32 
L 648 155.52 
L 90 155.52 
z
" style="fill: #ffffff"/>
   </g>
   <g id="matplotlib.axis_3">
    <g id="xtick_7">
     <g id="line2d_15">
      <g>
       <use xlink:href="#mf62b335d6e" x="115.363636" y="256.32" style="stroke: #000000; stroke-width: 0.8"/>
      </g>
     </g>
     <g id="text_14">
      <!-- 2020-10-21 -->
      <g transform="translate(86.305824 270.918437) scale(0.1 -0.1)">
       <use xlink:href="#DejaVuSans-32"/>
       <use xlink:href="#DejaVuSans-30" x="63.623047"/>
       <use xlink:href="#DejaVuSans-32" x="127.246094"/>
       <use xlink:href="#DejaVuSans-30" x="190.869141"/>
       <use xlink:href="#DejaVuSans-2d" x="254.492188"/>
       <use xlink:href="#DejaVuSans-31" x="290.576172"/>
       <use xlink:href="#DejaVuSans-30" x="354.199219"/>
       <use xlink:href="#DejaVuSans-2d" x="417.822266"/>
       <use xlink:href="#DejaVuSans-32" x="453.90625"/>
       <use xlink:href="#DejaVuSans-31" x="517.529297"/>
      </g>
     </g>
    </g>
    <g id="xtick_8">
     <g id="line2d_16">
      <g>
       <use xlink:href="#mf62b335d6e" x="188.988125" y="256.32" style="stroke: #000000; stroke-width: 0.8"/>
      </g>
     </g>
     <g id="text_15">
      <!-- 2021-01-31 -->
      <g transform="translate(159.930313 270.918437) scale(0.1 -0.1)">
       <use xlink:href="#DejaVuSans-32"/>
       <use xlink:href="#DejaVuSans-30" x="63.623047"/>
       <use xlink:href="#DejaVuSans-32" x="127.246094"/>
       <use xlink:href="#DejaVuSans-31" x="190.869141"/>
       <use xlink:href="#DejaVuSans-2d" x="254.492188"/>
       <use xlink:href="#DejaVuSans-30" x="290.576172"/>
       <use xlink:href="#DejaVuSans-31" x="354.199219"/>
       <use xlink:href="#DejaVuSans-2d" x="417.822266"/>
       <use xlink:href="#DejaVuSans-33" x="453.90625"/>
       <use xlink:href="#DejaVuSans-31" x="517.529297"/>
      </g>
     </g>
    </g>
    <g id="xtick_9">
     <g id="line2d_17">
      <g>
       <use xlink:href="#mf62b335d6e" x="262.612614" y="256.32" style="stroke: #000000; stroke-width: 0.8"/>
      </g>
     </g>
     <g id="text_16">
      <!-- 2021-05-11 -->
      <g transform="translate(233.554801 270.918437) scale(0.1 -0.1)">
       <defs>
        <path id="DejaVuSans-35" d="M 691 4666 
L 3169 4666 
L 3169 4134 
L 1269 4134 
L 1269 2991 
Q 1406 3038 1543 3061 
Q 1681 3084 1819 3084 
Q 2600 3084 3056 2656 
Q 3513 2228 3513 1497 
Q 3513 744 3044 326 
Q 2575 -91 1722 -91 
Q 1428 -91 1123 -41 
Q 819 9 494 109 
L 494 744 
Q 775 591 1075 516 
Q 1375 441 1709 441 
Q 2250 441 2565 725 
Q 2881 1009 2881 1497 
Q 2881 1984 2565 2268 
Q 2250 2553 1709 2553 
Q 1456 2553 1204 2497 
Q 953 2441 691 2322 
L 691 4666 
z
" transform="scale(0.015625)"/>
       </defs>
       <use xlink:href="#DejaVuSans-32"/>
       <use xlink:href="#DejaVuSans-30" x="63.623047"/>
       <use xlink:href="#DejaVuSans-32" x="127.246094"/>
       <use xlink:href="#DejaVuSans-31" x="190.869141"/>
       <use xlink:href="#DejaVuSans-2d" x="254.492188"/>
       <use xlink:href="#DejaVuSans-30" x="290.576172"/>
       <use xlink:href="#DejaVuSans-35" x="354.199219"/>
       <use xlink:href="#DejaVuSans-2d" x="417.822266"/>
       <use xlink:href="#DejaVuSans-31" x="453.90625"/>
       <use xlink:href="#DejaVuSans-31" x="517.529297"/>
      </g>
     </g>
    </g>
    <g id="xtick_10">
     <g id="line2d_18">
      <g>
       <use xlink:href="#mf62b335d6e" x="336.237103" y="256.32" style="stroke: #000000; stroke-width: 0.8"/>
      </g>
     </g>
     <g id="text_17">
      <!-- 2021-08-19 -->
      <g transform="translate(307.17929 270.918437) scale(0.1 -0.1)">
       <defs>
        <path id="DejaVuSans-39" d="M 703 97 
L 703 672 
Q 941 559 1184 500 
Q 1428 441 1663 441 
Q 2288 441 2617 861 
Q 2947 1281 2994 2138 
Q 2813 1869 2534 1725 
Q 2256 1581 1919 1581 
Q 1219 1581 811 2004 
Q 403 2428 403 3163 
Q 403 3881 828 4315 
Q 1253 4750 1959 4750 
Q 2769 4750 3195 4129 
Q 3622 3509 3622 2328 
Q 3622 1225 3098 567 
Q 2575 -91 1691 -91 
Q 1453 -91 1209 -44 
Q 966 3 703 97 
z
M 1959 2075 
Q 2384 2075 2632 2365 
Q 2881 2656 2881 3163 
Q 2881 3666 2632 3958 
Q 2384 4250 1959 4250 
Q 1534 4250 1286 3958 
Q 1038 3666 1038 3163 
Q 1038 2656 1286 2365 
Q 1534 2075 1959 2075 
z
" transform="scale(0.015625)"/>
       </defs>
       <use xlink:href="#DejaVuSans-32"/>
       <use xlink:href="#DejaVuSans-30" x="63.623047"/>
       <use xlink:href="#DejaVuSans-32" x="127.246094"/>
       <use xlink:href="#DejaVuSans-31" x="190.869141"/>
       <use xlink:href="#DejaVuSans-2d" x="254.492188"/>
       <use xlink:href="#DejaVuSans-30" x="290.576172"/>
       <use xlink:href="#DejaVuSans-38" x="354.199219"/>
       <use xlink:href="#DejaVuSans-2d" x="417.822266"/>
       <use xlink:href="#DejaVuSans-31" x="453.90625"/>
       <use xlink:href="#DejaVuSans-39" x="517.529297"/>
      </g>
     </g>
    </g>
    <g id="xtick_11">
     <g id="line2d_19">
      <g>
       <use xlink:href="#mf62b335d6e" x="409.861591" y="256.32" style="stroke: #000000; stroke-width: 0.8"/>
      </g>
     </g>
     <g id="text_18">
      <!-- 2021-11-28 -->
      <g transform="translate(380.803779 270.918437) scale(0.1 -0.1)">
       <use xlink:href="#DejaVuSans-32"/>
       <use xlink:href="#DejaVuSans-30" x="63.623047"/>
       <use xlink:href="#DejaVuSans-32" x="127.246094"/>
       <use xlink:href="#DejaVuSans-31" x="190.869141"/>
       <use xlink:href="#DejaVuSans-2d" x="254.492188"/>
       <use xlink:href="#DejaVuSans-31" x="290.576172"/>
       <use xlink:href="#DejaVuSans-31" x="354.199219"/>
       <use xlink:href="#DejaVuSans-2d" x="417.822266"/>
       <use xlink:href="#DejaVuSans-32" x="453.90625"/>
       <use xlink:href="#DejaVuSans-38" x="517.529297"/>
      </g>
     </g>
    </g>
    <g id="xtick_12">
     <g id="line2d_20">
      <g>
       <use xlink:href="#mf62b335d6e" x="483.48608" y="256.32" style="stroke: #000000; stroke-width: 0.8"/>
      </g>
     </g>
     <g id="text_19">
      <!-- 2022-03-10 -->
      <g transform="translate(454.428267 270.918437) scale(0.1 -0.1)">
       <use xlink:href="#DejaVuSans-32"/>
       <use xlink:href="#DejaVuSans-30" x="63.623047"/>
       <use xlink:href="#DejaVuSans-32" x="127.246094"/>
       <use xlink:href="#DejaVuSans-32" x="190.869141"/>
       <use xlink:href="#DejaVuSans-2d" x="254.492188"/>
       <use xlink:href="#DejaVuSans-30" x="290.576172"/>
       <use xlink:href="#DejaVuSans-33" x="354.199219"/>
       <use xlink:href="#DejaVuSans-2d" x="417.822266"/>
       <use xlink:href="#DejaVuSans-31" x="453.90625"/>
       <use xlink:href="#DejaVuSans-30" x="517.529297"/>
      </g>
     </g>
    </g>
    <g id="xtick_13">
     <g id="line2d_21">
      <g>
       <use xlink:href="#mf62b335d6e" x="557.110569" y="256.32" style="stroke: #000000; stroke-width: 0.8"/>
      </g>
     </g>
     <g id="text_20">
      <!-- 2022-06-19 -->
      <g transform="translate(528.052756 270.918437) scale(0.1 -0.1)">
       <defs>
        <path id="DejaVuSans-36" d="M 2113 2584 
Q 1688 2584 1439 2293 
Q 1191 2003 1191 1497 
Q 1191 994 1439 701 
Q 1688 409 2113 409 
Q 2538 409 2786 701 
Q 3034 994 3034 1497 
Q 3034 2003 2786 2293 
Q 2538 2584 2113 2584 
z
M 3366 4563 
L 3366 3988 
Q 3128 4100 2886 4159 
Q 2644 4219 2406 4219 
Q 1781 4219 1451 3797 
Q 1122 3375 1075 2522 
Q 1259 2794 1537 2939 
Q 1816 3084 2150 3084 
Q 2853 3084 3261 2657 
Q 3669 2231 3669 1497 
Q 3669 778 3244 343 
Q 2819 -91 2113 -91 
Q 1303 -91 875 529 
Q 447 1150 447 2328 
Q 447 3434 972 4092 
Q 1497 4750 2381 4750 
Q 2619 4750 2861 4703 
Q 3103 4656 3366 4563 
z
" transform="scale(0.015625)"/>
       </defs>
       <use xlink:href="#DejaVuSans-32"/>
       <use xlink:href="#DejaVuSans-30" x="63.623047"/>
       <use xlink:href="#DejaVuSans-32" x="127.246094"/>
       <use xlink:href="#DejaVuSans-32" x="190.869141"/>
       <use xlink:href="#DejaVuSans-2d" x="254.492188"/>
       <use xlink:href="#DejaVuSans-30" x="290.576172"/>
       <use xlink:href="#DejaVuSans-36" x="354.199219"/>
       <use xlink:href="#DejaVuSans-2d" x="417.822266"/>
       <use xlink:href="#DejaVuSans-31" x="453.90625"/>
       <use xlink:href="#DejaVuSans-39" x="517.529297"/>
      </g>
     </g>
    </g>
    <g id="xtick_14">
     <g id="line2d_22">
      <g>
       <use xlink:href="#mf62b335d6e" x="630.735057" y="256.32" style="stroke: #000000; stroke-width: 0.8"/>
      </g>
     </g>
    </g>
    <g id="text_21">
     <!-- _date -->
     <g transform="translate(355.225 284.596563) scale(0.1 -0.1)">
      <use xlink:href="#DejaVuSans-5f"/>
      <use xlink:href="#DejaVuSans-64" x="50"/>
      <use xlink:href="#DejaVuSans-61" x="113.476562"/>
      <use xlink:href="#DejaVuSans-74" x="174.755859"/>
      <use xlink:href="#DejaVuSans-65" x="213.964844"/>
     </g>
    </g>
   </g>
   <g id="matplotlib.axis_4">
    <g id="ytick_5">
     <g id="line2d_23">
      <g>
       <use xlink:href="#ma43ea18759" x="90" y="252.006124" style="stroke: #000000; stroke-width: 0.8"/>
      </g>
     </g>
     <g id="text_22">
      <!-- 0 -->
      <g transform="translate(76.6375 255.805343) scale(0.1 -0.1)">
       <use xlink:href="#DejaVuSans-30"/>
      </g>
     </g>
    </g>
    <g id="ytick_6">
     <g id="line2d_24">
      <g>
       <use xlink:href="#ma43ea18759" x="90" y="225.211866" style="stroke: #000000; stroke-width: 0.8"/>
      </g>
     </g>
     <g id="text_23">
      <!-- 100 -->
      <g transform="translate(63.9125 229.011085) scale(0.1 -0.1)">
       <use xlink:href="#DejaVuSans-31"/>
       <use xlink:href="#DejaVuSans-30" x="63.623047"/>
       <use xlink:href="#DejaVuSans-30" x="127.246094"/>
      </g>
     </g>
    </g>
    <g id="ytick_7">
     <g id="line2d_25">
      <g>
       <use xlink:href="#ma43ea18759" x="90" y="198.417608" style="stroke: #000000; stroke-width: 0.8"/>
      </g>
     </g>
     <g id="text_24">
      <!-- 200 -->
      <g transform="translate(63.9125 202.216826) scale(0.1 -0.1)">
       <use xlink:href="#DejaVuSans-32"/>
       <use xlink:href="#DejaVuSans-30" x="63.623047"/>
       <use xlink:href="#DejaVuSans-30" x="127.246094"/>
      </g>
     </g>
    </g>
    <g id="ytick_8">
     <g id="line2d_26">
      <g>
       <use xlink:href="#ma43ea18759" x="90" y="171.623349" style="stroke: #000000; stroke-width: 0.8"/>
      </g>
     </g>
     <g id="text_25">
      <!-- 300 -->
      <g transform="translate(63.9125 175.422568) scale(0.1 -0.1)">
       <use xlink:href="#DejaVuSans-33"/>
       <use xlink:href="#DejaVuSans-30" x="63.623047"/>
       <use xlink:href="#DejaVuSans-30" x="127.246094"/>
      </g>
     </g>
    </g>
   </g>
   <g id="line2d_27">
    <path d="M 115.363636 251.738182 
L 116.099881 231.910431 
L 116.836126 229.498947 
L 117.572371 244.771675 
L 118.308616 251.470239 
L 119.044861 239.412823 
L 119.781106 239.14488 
L 120.517351 235.393684 
L 121.253595 239.14488 
L 121.98984 239.948708 
L 122.726085 250.666411 
L 123.46233 248.522871 
L 124.198575 247.719043 
L 124.93482 239.948708 
L 125.671065 213.690335 
L 126.40731 227.355407 
L 127.143555 244.235789 
L 127.879799 247.4511 
L 128.616044 251.202297 
L 130.088534 225.747751 
L 130.824779 246.111388 
L 131.561024 243.699904 
L 132.297269 237.537225 
L 133.033514 237.537225 
L 133.769759 249.862584 
L 134.506003 237.805167 
L 135.242248 234.321914 
L 135.978493 243.967847 
L 136.714738 243.967847 
L 137.450983 239.412823 
L 138.187228 247.183158 
L 138.923473 249.326699 
L 139.659718 227.623349 
L 140.395963 249.058756 
L 141.132207 248.254928 
L 141.868452 249.862584 
L 142.604697 247.986986 
L 143.340942 251.470239 
L 144.077187 251.470239 
L 144.813432 229.231005 
L 145.549677 217.173589 
L 146.285922 244.235789 
L 147.022167 245.575502 
L 147.758411 227.891292 
L 148.494656 250.934354 
L 149.230901 245.30756 
L 149.967146 242.092249 
L 150.703391 246.37933 
L 151.439636 237.00134 
L 152.175881 247.183158 
L 152.912126 250.934354 
L 153.64837 251.738182 
L 154.384615 244.235789 
L 155.12086 242.628134 
L 155.857105 242.896077 
L 156.59335 241.556364 
L 157.329595 249.058756 
L 158.06584 250.934354 
L 158.802085 250.666411 
L 159.53833 247.4511 
L 160.274574 247.986986 
L 161.010819 243.164019 
L 161.747064 250.130526 
L 162.483309 251.202297 
L 163.219554 251.470239 
L 163.955799 248.522871 
L 164.692044 249.594641 
L 165.428289 250.398469 
L 166.164534 251.738182 
L 166.900778 247.4511 
L 167.637023 247.719043 
L 168.373268 250.934354 
L 169.109513 246.647273 
L 169.845758 243.164019 
L 170.582003 240.752536 
L 171.318248 247.986986 
L 172.054493 249.058756 
L 172.790738 233.518086 
L 173.526982 250.398469 
L 174.263227 235.125742 
L 174.999472 236.733397 
L 175.735717 240.752536 
L 176.471962 234.589856 
L 177.208207 247.183158 
L 177.944452 235.929569 
L 178.680697 251.202297 
L 179.416942 234.857799 
L 180.153186 236.197512 
L 180.889431 228.159234 
L 181.625676 233.786029 
L 182.361921 240.752536 
L 183.098166 243.431962 
L 183.834411 248.522871 
L 184.570656 230.302775 
L 185.306901 226.015694 
L 186.043146 237.269282 
L 186.77939 235.929569 
L 187.515635 233.518086 
L 188.25188 247.719043 
L 188.988125 248.790813 
L 189.72437 231.374545 
L 190.460615 247.183158 
L 191.933105 234.321914 
L 193.405594 250.934354 
L 194.141839 247.986986 
L 194.878084 236.465455 
L 195.614329 235.929569 
L 196.350574 226.819522 
L 197.086819 242.628134 
L 197.823064 250.398469 
L 198.559309 250.666411 
L 199.295554 249.326699 
L 200.031798 243.164019 
L 200.768043 243.431962 
L 201.504288 247.183158 
L 202.240533 232.178373 
L 202.976778 248.522871 
L 203.713023 242.628134 
L 204.449268 239.948708 
L 205.185513 241.556364 
L 205.921757 227.087464 
L 206.658002 236.733397 
L 207.394247 235.929569 
L 208.130492 240.752536 
L 208.866737 239.14488 
L 209.602982 240.216651 
L 210.339227 187.431962 
L 211.075472 246.111388 
L 211.811717 232.178373 
L 212.547961 235.661627 
L 213.284206 228.427177 
L 214.020451 242.360191 
L 214.756696 202.972632 
L 215.492941 201.364976 
L 216.229186 206.99177 
L 216.965431 230.570718 
L 217.701676 178.321914 
L 218.437921 225.211866 
L 219.174165 246.37933 
L 219.91041 245.575502 
L 220.646655 238.341053 
L 221.3829 232.446316 
L 222.119145 229.231005 
L 222.85539 235.661627 
L 223.591635 225.479809 
L 224.32788 244.235789 
L 225.064125 246.111388 
L 225.800369 208.063541 
L 226.536614 233.786029 
L 227.272859 235.393684 
L 228.009104 246.647273 
L 228.745349 248.790813 
L 229.481594 248.254928 
L 230.217839 234.053971 
L 230.954084 187.967847 
L 231.690329 231.106603 
L 232.426573 235.393684 
L 233.162818 216.369761 
L 233.899063 244.771675 
L 234.635308 248.522871 
L 235.371553 245.30756 
L 236.107798 223.604211 
L 236.844043 239.412823 
L 237.580288 224.943923 
L 238.316533 203.240574 
L 239.052777 234.857799 
L 239.789022 241.824306 
L 240.525267 246.37933 
L 241.261512 180.465455 
L 241.997757 228.963062 
L 242.734002 243.967847 
L 243.470247 236.197512 
L 244.206492 237.537225 
L 244.942737 249.058756 
L 245.678981 247.183158 
L 246.415226 191.183158 
L 247.151471 184.752536 
L 247.887716 201.364976 
L 248.623961 243.431962 
L 249.360206 249.326699 
L 250.096451 237.537225 
L 250.832696 247.719043 
L 252.305185 226.015694 
L 253.04143 167.336268 
L 253.777675 223.872153 
L 254.51392 223.068325 
L 255.250165 227.623349 
L 255.98641 245.843445 
L 256.722655 246.647273 
L 257.4589 221.996555 
L 258.195144 237.00134 
L 258.931389 236.733397 
L 259.667634 227.891292 
L 260.403879 243.699904 
L 261.140124 249.326699 
L 261.876369 201.097033 
L 262.612614 238.07311 
L 263.348859 215.030048 
L 264.085104 209.135311 
L 264.821348 215.565933 
L 265.557593 249.862584 
L 266.293838 249.862584 
L 267.030083 224.140096 
L 267.766328 234.053971 
L 268.502573 233.518086 
L 269.238818 239.680766 
L 269.975063 243.164019 
L 270.711308 248.522871 
L 271.447552 246.37933 
L 272.183797 227.355407 
L 272.920042 244.503732 
L 273.656287 241.020478 
L 274.392532 233.250144 
L 275.128777 239.412823 
L 275.865022 249.862584 
L 276.601267 249.862584 
L 277.337512 243.431962 
L 278.073756 240.752536 
L 278.810001 246.647273 
L 279.546246 241.824306 
L 280.282491 243.967847 
L 281.018736 249.326699 
L 281.754981 247.719043 
L 282.491226 232.178373 
L 283.227471 237.269282 
L 283.963716 172.69512 
L 284.69996 215.833876 
L 285.436205 244.503732 
L 286.17245 242.628134 
L 286.908695 250.130526 
L 287.64494 233.250144 
L 288.381185 235.125742 
L 289.11743 242.360191 
L 289.853675 241.556364 
L 290.58992 236.465455 
L 291.326164 249.862584 
L 292.062409 250.398469 
L 292.798654 196.274067 
L 293.534899 239.948708 
L 294.271144 245.30756 
L 295.007389 247.4511 
L 295.743634 204.312344 
L 296.479879 247.4511 
L 297.216123 248.254928 
L 298.688613 242.360191 
L 299.424858 242.628134 
L 300.161103 225.479809 
L 300.897348 244.771675 
L 301.633593 249.862584 
L 302.369838 243.967847 
L 303.106083 245.575502 
L 303.842327 183.948708 
L 304.578572 200.293206 
L 305.314817 241.020478 
L 306.787307 245.039617 
L 307.523552 244.503732 
L 308.259797 232.714258 
L 308.996042 242.628134 
L 309.732287 243.699904 
L 310.468531 223.872153 
L 311.204776 239.948708 
L 311.941021 250.398469 
L 312.677266 251.738182 
L 313.413511 245.039617 
L 314.149756 245.575502 
L 314.886001 246.915215 
L 315.622246 243.967847 
L 316.358491 246.37933 
L 317.094735 249.594641 
L 317.83098 251.202297 
L 318.567225 243.967847 
L 319.30347 243.699904 
L 320.039715 231.910431 
L 320.77596 230.302775 
L 321.512205 250.666411 
L 322.24845 246.37933 
L 322.984695 251.738182 
L 323.720939 239.680766 
L 324.457184 240.752536 
L 325.193429 243.164019 
L 325.929674 240.484593 
L 326.665919 248.522871 
L 327.402164 245.843445 
L 328.138409 250.130526 
L 328.874654 237.537225 
L 329.610899 239.412823 
L 330.347143 244.235789 
L 331.083388 241.288421 
L 331.819633 232.446316 
L 332.555878 242.360191 
L 333.292123 248.522871 
L 334.028368 233.518086 
L 334.764613 250.398469 
L 335.500858 246.111388 
L 336.237103 244.503732 
L 336.973347 251.202297 
L 337.709592 250.934354 
L 338.445837 245.039617 
L 339.182082 245.575502 
L 339.918327 233.250144 
L 340.654572 231.642488 
L 341.390817 249.058756 
L 342.127062 249.862584 
L 342.863307 250.398469 
L 343.599551 242.628134 
L 344.335796 228.159234 
L 345.072041 236.465455 
L 345.808286 236.197512 
L 346.544531 245.30756 
L 347.280776 249.862584 
L 348.017021 245.843445 
L 348.753266 246.647273 
L 349.48951 249.862584 
L 350.225755 237.269282 
L 350.962 247.719043 
L 351.698245 242.628134 
L 352.43449 226.015694 
L 353.170735 250.934354 
L 353.90698 248.254928 
L 354.643225 233.786029 
L 355.37947 216.905646 
L 356.115714 236.733397 
L 356.851959 248.254928 
L 357.588204 247.719043 
L 358.324449 250.398469 
L 359.060694 246.647273 
L 359.796939 232.178373 
L 360.533184 230.570718 
L 361.269429 221.46067 
L 362.005674 233.786029 
L 362.741918 248.522871 
L 363.478163 251.470239 
L 364.214408 248.522871 
L 364.950653 249.862584 
L 365.686898 239.948708 
L 366.423143 189.575502 
L 367.159388 229.498947 
L 367.895633 242.628134 
L 368.631878 241.020478 
L 369.368122 230.83866 
L 370.104367 230.83866 
L 370.840612 220.924785 
L 371.576857 198.417608 
L 372.313102 217.441531 
L 373.049347 246.37933 
L 373.785592 250.666411 
L 374.521837 224.675981 
L 375.258082 228.159234 
L 375.994326 212.618565 
L 376.730571 240.216651 
L 377.466816 236.197512 
L 378.203061 246.111388 
L 378.939306 248.254928 
L 379.675551 215.565933 
L 380.411796 238.608995 
L 381.148041 249.594641 
L 381.884286 223.604211 
L 382.62053 164.924785 
L 383.356775 240.484593 
L 384.09302 235.929569 
L 384.829265 227.891292 
L 385.56551 228.963062 
L 386.301755 242.896077 
L 387.038 232.446316 
L 387.774245 238.876938 
L 388.51049 246.915215 
L 389.246734 245.843445 
L 389.982979 235.929569 
L 390.719224 249.058756 
L 391.455469 243.431962 
L 392.191714 229.498947 
L 393.664204 250.934354 
L 394.400449 250.130526 
L 395.136693 245.039617 
L 395.872938 231.642488 
L 396.609183 240.752536 
L 397.345428 247.183158 
L 398.081673 247.986986 
L 398.817918 247.986986 
L 399.554163 248.790813 
L 400.290408 239.412823 
L 401.026653 235.661627 
L 401.762897 243.967847 
L 403.235387 237.537225 
L 403.971632 250.130526 
L 404.707877 249.862584 
L 405.444122 234.589856 
L 406.180367 232.982201 
L 406.916612 245.575502 
L 408.389101 250.934354 
L 409.125346 248.522871 
L 409.861591 247.719043 
L 410.597836 244.503732 
L 411.334081 228.69512 
L 412.070326 238.341053 
L 412.806571 238.876938 
L 413.542816 226.819522 
L 414.279061 249.862584 
L 415.015305 228.159234 
L 415.75155 237.269282 
L 416.487795 202.972632 
L 417.22404 239.948708 
L 417.960285 221.996555 
L 418.69653 247.4511 
L 419.432775 248.254928 
L 420.16902 230.034833 
L 420.905265 208.599426 
L 421.641509 234.589856 
L 422.377754 237.269282 
L 423.113999 243.431962 
L 423.850244 233.250144 
L 424.586489 249.058756 
L 425.322734 217.173589 
L 426.058979 235.929569 
L 426.795224 239.948708 
L 427.531469 242.628134 
L 428.267713 242.896077 
L 429.003958 246.915215 
L 429.740203 249.058756 
L 430.476448 245.843445 
L 431.212693 248.790813 
L 431.948938 250.934354 
L 432.685183 249.594641 
L 433.421428 249.326699 
L 434.157673 246.915215 
L 434.893917 217.709474 
L 436.366407 242.092249 
L 437.102652 243.164019 
L 437.838897 249.862584 
L 438.575142 250.934354 
L 439.311387 251.738182 
L 440.783877 236.733397 
L 441.520121 241.288421 
L 442.256366 219.585072 
L 442.992611 246.915215 
L 443.728856 246.111388 
L 444.465101 250.934354 
L 445.201346 247.719043 
L 445.937591 239.412823 
L 446.673836 244.771675 
L 447.41008 242.092249 
L 448.146325 245.843445 
L 448.88257 250.666411 
L 449.618815 250.130526 
L 450.35506 219.585072 
L 451.091305 220.120957 
L 451.82755 235.929569 
L 452.563795 247.719043 
L 453.30004 217.441531 
L 454.036284 246.915215 
L 454.772529 235.929569 
L 455.508774 212.886507 
L 456.245019 238.07311 
L 456.981264 209.939139 
L 457.717509 198.68555 
L 458.453754 232.714258 
L 459.189999 250.666411 
L 459.926244 249.862584 
L 460.662488 196.809952 
L 461.398733 208.867368 
L 462.134978 223.872153 
L 462.871223 224.675981 
L 463.607468 179.125742 
L 464.343713 243.967847 
L 465.079958 245.575502 
L 465.816203 217.441531 
L 466.552448 226.015694 
L 467.288692 242.628134 
L 468.024937 240.752536 
L 468.761182 226.283636 
L 469.497427 247.719043 
L 470.233672 249.862584 
L 470.969917 225.747751 
L 471.706162 235.929569 
L 472.442407 223.336268 
L 473.178652 232.178373 
L 473.914896 216.369761 
L 474.651141 239.680766 
L 475.387386 248.254928 
L 476.123631 222.264498 
L 476.859876 228.427177 
L 477.596121 231.910431 
L 478.332366 227.623349 
L 479.068611 185.824306 
L 479.804856 223.872153 
L 480.5411 241.288421 
L 481.277345 160.101818 
L 482.01359 200.829091 
L 482.749835 224.943923 
L 483.48608 241.288421 
L 484.222325 239.680766 
L 484.95857 243.967847 
L 485.694815 247.4511 
L 486.43106 211.814737 
L 487.167304 223.068325 
L 487.903549 209.671196 
L 488.639794 213.15445 
L 489.376039 225.211866 
L 490.112284 250.130526 
L 490.848529 249.594641 
L 491.584774 213.422392 
L 492.321019 235.661627 
L 493.057263 222.53244 
L 493.793508 230.570718 
L 494.529753 235.393684 
L 495.265998 242.896077 
L 496.002243 247.719043 
L 496.738488 229.76689 
L 497.474733 236.197512 
L 498.210978 216.637703 
L 498.947223 214.22622 
L 499.683467 242.896077 
L 500.419712 249.058756 
L 501.155957 251.738182 
L 501.892202 239.680766 
L 502.628447 237.805167 
L 503.364692 243.699904 
L 504.100937 235.661627 
L 504.837182 244.235789 
L 505.573427 249.326699 
L 506.309671 250.130526 
L 507.782161 234.589856 
L 508.518406 247.986986 
L 509.254651 247.986986 
L 509.990896 243.967847 
L 510.727141 240.752536 
L 511.463386 229.498947 
L 512.199631 239.14488 
L 512.935875 238.608995 
L 513.67212 246.37933 
L 515.14461 247.4511 
L 515.880855 250.398469 
L 516.6171 248.790813 
L 518.08959 232.178373 
L 518.825835 234.857799 
L 519.562079 242.896077 
L 520.298324 235.661627 
L 521.034569 249.862584 
L 521.770814 251.470239 
L 522.507059 243.699904 
L 523.243304 246.37933 
L 523.979549 233.786029 
L 524.715794 213.15445 
L 525.452039 244.235789 
L 526.188283 250.666411 
L 526.924528 249.326699 
L 527.660773 240.484593 
L 528.397018 236.733397 
L 529.133263 239.412823 
L 529.869508 238.341053 
L 530.605753 234.857799 
L 531.341998 250.934354 
L 532.078243 241.288421 
L 532.814487 228.159234 
L 533.550732 226.819522 
L 534.286977 245.575502 
L 535.023222 248.254928 
L 535.759467 211.278852 
L 536.495712 247.986986 
L 537.231957 250.666411 
L 537.968202 227.891292 
L 538.704446 246.111388 
L 539.440691 221.192727 
L 540.176936 229.498947 
L 540.913181 246.111388 
L 541.649426 251.470239 
L 542.385671 251.470239 
L 543.121916 249.862584 
L 543.858161 244.503732 
L 544.594406 245.843445 
L 545.33065 243.431962 
L 546.066895 251.470239 
L 546.80314 249.862584 
L 547.539385 251.738182 
L 548.27563 245.575502 
L 549.011875 247.986986 
L 549.74812 244.771675 
L 550.484365 243.164019 
L 551.22061 250.666411 
L 551.956854 251.202297 
L 552.693099 241.020478 
L 553.429344 220.656842 
L 554.165589 245.843445 
L 554.901834 246.111388 
L 555.638079 240.484593 
L 556.374324 248.254928 
L 557.110569 251.470239 
L 557.846814 247.4511 
L 558.583058 241.556364 
L 559.319303 243.699904 
L 560.055548 244.235789 
L 560.791793 249.326699 
L 561.528038 251.470239 
L 562.264283 251.202297 
L 563.000528 243.164019 
L 563.736773 243.967847 
L 564.473018 247.4511 
L 565.209262 237.537225 
L 565.945507 249.058756 
L 566.681752 250.934354 
L 567.417997 248.790813 
L 568.154242 250.934354 
L 568.890487 239.14488 
L 570.362977 227.623349 
L 571.099222 228.427177 
L 571.835466 247.719043 
L 572.571711 249.594641 
L 573.307956 221.728612 
L 574.044201 238.07311 
L 574.780446 246.647273 
L 575.516691 243.699904 
L 576.252936 234.589856 
L 576.989181 251.202297 
L 577.725426 246.111388 
L 578.46167 238.876938 
L 579.197915 247.4511 
L 579.93416 228.159234 
L 580.670405 234.321914 
L 581.40665 250.934354 
L 582.142895 251.470239 
L 582.87914 250.130526 
L 583.615385 239.948708 
L 584.35163 241.556364 
L 585.087874 248.790813 
L 585.824119 231.106603 
L 586.560364 249.594641 
L 587.296609 251.470239 
L 588.032854 249.058756 
L 588.769099 249.058756 
L 589.505344 241.020478 
L 590.241589 247.183158 
L 590.977833 241.288421 
L 591.714078 249.326699 
L 592.450323 251.738182 
L 593.186568 248.254928 
L 593.922813 227.087464 
L 594.659058 246.915215 
L 595.395303 241.824306 
L 596.131548 247.719043 
L 596.867793 249.862584 
L 597.604037 251.470239 
L 598.340282 244.771675 
L 599.076527 215.833876 
L 599.812772 249.862584 
L 600.549017 226.551579 
L 601.285262 243.164019 
L 602.021507 251.738182 
L 602.757752 251.470239 
L 603.493997 250.130526 
L 604.230241 248.254928 
L 604.966486 238.876938 
L 605.702731 242.092249 
L 606.438976 203.240574 
L 607.175221 249.862584 
L 607.911466 249.326699 
L 609.383956 212.082679 
L 610.120201 237.805167 
L 610.856445 246.647273 
L 611.59269 247.4511 
L 612.328935 250.666411 
L 613.06518 250.934354 
L 613.801425 249.594641 
L 614.53767 237.00134 
L 615.273915 245.575502 
L 616.01016 219.317129 
L 616.746405 237.00134 
L 617.482649 240.216651 
L 618.218894 251.202297 
L 618.955139 216.905646 
L 619.691384 211.010909 
L 620.427629 238.07311 
L 621.163874 248.522871 
L 621.900119 249.058756 
L 622.636364 250.398469 
L 622.636364 250.398469 
" clip-path="url(#p6058334e11)" style="fill: none; stroke: #1f77b4; stroke-width: 1.5; stroke-linecap: square"/>
   </g>
   <g id="line2d_28">
    <path d="M 115.363636 251.738182 
L 116.099881 249.594641 
L 116.836126 248.522871 
L 117.572371 249.594641 
L 118.308616 251.738182 
L 119.044861 250.130526 
L 119.781106 249.326699 
L 120.517351 249.326699 
L 121.253595 249.058756 
L 121.98984 249.594641 
L 122.726085 251.470239 
L 125.671065 249.326699 
L 126.40731 249.058756 
L 127.143555 250.130526 
L 128.616044 251.738182 
L 129.352289 249.058756 
L 130.088534 249.594641 
L 130.824779 250.666411 
L 131.561024 250.934354 
L 132.297269 250.666411 
L 133.033514 251.470239 
L 133.769759 251.202297 
L 134.506003 250.130526 
L 135.242248 251.202297 
L 135.978493 249.058756 
L 136.714738 249.862584 
L 137.450983 250.398469 
L 138.187228 251.202297 
L 138.923473 251.202297 
L 139.659718 247.719043 
L 140.395963 251.470239 
L 141.132207 251.470239 
L 141.868452 251.202297 
L 143.340942 251.738182 
L 144.077187 251.470239 
L 144.813432 249.594641 
L 145.549677 247.183158 
L 146.285922 248.790813 
L 147.022167 250.130526 
L 147.758411 250.130526 
L 148.494656 251.470239 
L 149.230901 250.398469 
L 149.967146 250.130526 
L 150.703391 250.934354 
L 151.439636 247.986986 
L 152.175881 249.594641 
L 152.912126 251.470239 
L 153.64837 251.738182 
L 154.384615 249.326699 
L 155.857105 249.326699 
L 156.59335 250.130526 
L 157.329595 250.398469 
L 158.06584 251.202297 
L 158.802085 251.470239 
L 159.53833 250.934354 
L 160.274574 250.666411 
L 161.010819 251.202297 
L 162.483309 251.202297 
L 163.219554 251.470239 
L 163.955799 250.934354 
L 165.428289 250.934354 
L 166.164534 251.738182 
L 166.900778 251.202297 
L 167.637023 251.202297 
L 168.373268 250.934354 
L 169.109513 249.862584 
L 169.845758 248.254928 
L 170.582003 250.130526 
L 171.318248 251.202297 
L 172.054493 250.934354 
L 172.790738 250.934354 
L 173.526982 251.202297 
L 174.263227 249.594641 
L 174.999472 248.790813 
L 175.735717 249.862584 
L 176.471962 247.183158 
L 177.208207 249.862584 
L 177.944452 250.398469 
L 178.680697 251.202297 
L 179.416942 250.666411 
L 180.153186 250.666411 
L 180.889431 248.522871 
L 181.625676 249.594641 
L 182.361921 249.326699 
L 183.098166 249.326699 
L 183.834411 250.398469 
L 184.570656 246.37933 
L 185.306901 247.986986 
L 186.043146 249.326699 
L 186.77939 247.719043 
L 187.515635 246.647273 
L 188.25188 250.934354 
L 188.988125 250.666411 
L 189.72437 248.790813 
L 190.460615 250.130526 
L 191.19686 248.254928 
L 191.933105 249.594641 
L 192.66935 249.594641 
L 193.405594 250.934354 
L 194.141839 251.202297 
L 194.878084 249.058756 
L 195.614329 248.254928 
L 196.350574 248.522871 
L 197.086819 250.934354 
L 197.823064 251.470239 
L 199.295554 250.934354 
L 200.031798 250.934354 
L 200.768043 249.594641 
L 201.504288 250.398469 
L 202.240533 249.058756 
L 202.976778 250.934354 
L 203.713023 250.398469 
L 204.449268 250.934354 
L 205.185513 249.326699 
L 205.921757 249.058756 
L 206.658002 249.058756 
L 207.394247 248.254928 
L 208.130492 250.398469 
L 208.866737 250.934354 
L 209.602982 250.934354 
L 210.339227 242.896077 
L 211.075472 249.058756 
L 211.811717 249.058756 
L 212.547961 247.719043 
L 213.284206 249.326699 
L 214.020451 250.666411 
L 214.756696 250.666411 
L 215.492941 246.647273 
L 216.229186 246.915215 
L 216.965431 248.522871 
L 217.701676 246.915215 
L 218.437921 247.719043 
L 219.174165 250.130526 
L 219.91041 250.934354 
L 220.646655 247.719043 
L 221.3829 246.37933 
L 222.119145 247.4511 
L 222.85539 247.719043 
L 224.32788 251.202297 
L 225.064125 250.130526 
L 225.800369 247.986986 
L 226.536614 247.986986 
L 227.272859 248.790813 
L 228.009104 250.666411 
L 229.481594 251.202297 
L 230.217839 250.130526 
L 230.954084 246.647273 
L 231.690329 247.4511 
L 232.426573 248.790813 
L 233.162818 247.183158 
L 233.899063 249.862584 
L 234.635308 251.202297 
L 236.107798 249.594641 
L 236.844043 248.522871 
L 237.580288 248.790813 
L 238.316533 247.719043 
L 239.052777 249.326699 
L 239.789022 249.594641 
L 240.525267 250.934354 
L 241.261512 245.843445 
L 241.997757 248.254928 
L 242.734002 249.058756 
L 243.470247 249.326699 
L 244.206492 249.326699 
L 244.942737 250.934354 
L 245.678981 250.398469 
L 246.415226 246.111388 
L 247.151471 244.771675 
L 247.887716 247.183158 
L 248.623961 249.058756 
L 249.360206 250.398469 
L 250.096451 249.326699 
L 250.832696 250.398469 
L 251.56894 246.647273 
L 252.305185 246.915215 
L 253.04143 230.302775 
L 253.777675 248.254928 
L 254.51392 246.915215 
L 255.250165 250.666411 
L 255.98641 251.738182 
L 256.722655 249.862584 
L 257.4589 248.522871 
L 258.195144 248.522871 
L 258.931389 248.790813 
L 259.667634 247.986986 
L 261.140124 251.202297 
L 261.876369 249.326699 
L 262.612614 248.522871 
L 263.348859 247.183158 
L 264.085104 247.4511 
L 264.821348 246.111388 
L 265.557593 250.666411 
L 266.293838 251.738182 
L 267.030083 246.111388 
L 267.766328 247.4511 
L 268.502573 249.594641 
L 269.238818 247.719043 
L 269.975063 248.522871 
L 270.711308 251.470239 
L 271.447552 250.398469 
L 272.183797 248.522871 
L 272.920042 249.594641 
L 273.656287 248.254928 
L 274.392532 246.647273 
L 275.865022 250.934354 
L 276.601267 251.202297 
L 277.337512 249.326699 
L 278.073756 247.986986 
L 278.810001 250.130526 
L 279.546246 249.594641 
L 280.282491 249.594641 
L 281.754981 250.130526 
L 282.491226 247.183158 
L 283.227471 249.058756 
L 283.963716 249.058756 
L 284.69996 250.130526 
L 285.436205 249.326699 
L 286.17245 251.202297 
L 286.908695 250.398469 
L 287.64494 248.522871 
L 288.381185 249.326699 
L 289.11743 249.058756 
L 289.853675 248.522871 
L 290.58992 249.326699 
L 291.326164 251.202297 
L 292.062409 250.934354 
L 292.798654 247.719043 
L 293.534899 250.666411 
L 294.271144 249.862584 
L 295.007389 249.326699 
L 295.743634 246.111388 
L 296.479879 251.202297 
L 297.216123 250.666411 
L 297.952368 249.862584 
L 298.688613 250.398469 
L 299.424858 249.058756 
L 300.161103 248.254928 
L 300.897348 249.326699 
L 301.633593 250.934354 
L 302.369838 250.934354 
L 303.106083 249.594641 
L 303.842327 247.4511 
L 304.578572 247.4511 
L 305.314817 250.398469 
L 306.051062 248.790813 
L 306.787307 250.666411 
L 307.523552 249.594641 
L 308.259797 247.986986 
L 308.996042 248.790813 
L 309.732287 248.790813 
L 310.468531 247.986986 
L 311.204776 248.254928 
L 311.941021 251.202297 
L 312.677266 251.738182 
L 313.413511 250.130526 
L 314.149756 250.130526 
L 314.886001 250.398469 
L 315.622246 250.398469 
L 316.358491 250.666411 
L 317.83098 251.738182 
L 318.567225 250.398469 
L 319.30347 249.594641 
L 320.039715 249.862584 
L 320.77596 248.790813 
L 321.512205 251.202297 
L 322.24845 250.398469 
L 322.984695 251.738182 
L 323.720939 250.398469 
L 324.457184 250.398469 
L 325.193429 248.522871 
L 325.929674 247.986986 
L 326.665919 249.594641 
L 327.402164 250.666411 
L 328.138409 250.666411 
L 328.874654 248.790813 
L 329.610899 249.594641 
L 330.347143 249.862584 
L 331.083388 249.862584 
L 331.819633 249.058756 
L 332.555878 249.326699 
L 333.292123 250.666411 
L 334.028368 248.522871 
L 334.764613 251.470239 
L 335.500858 249.862584 
L 336.237103 249.862584 
L 336.973347 251.202297 
L 337.709592 250.934354 
L 338.445837 250.130526 
L 339.182082 250.130526 
L 339.918327 249.326699 
L 340.654572 249.594641 
L 341.390817 251.202297 
L 342.127062 250.934354 
L 342.863307 251.470239 
L 343.599551 250.398469 
L 344.335796 250.130526 
L 345.072041 248.790813 
L 345.808286 249.326699 
L 346.544531 250.398469 
L 347.280776 250.934354 
L 348.017021 250.398469 
L 348.753266 251.470239 
L 349.48951 250.934354 
L 350.225755 249.326699 
L 350.962 250.130526 
L 351.698245 251.202297 
L 352.43449 248.522871 
L 353.170735 251.470239 
L 353.90698 251.202297 
L 354.643225 248.254928 
L 356.115714 249.326699 
L 356.851959 250.398469 
L 357.588204 249.862584 
L 358.324449 251.202297 
L 359.060694 250.666411 
L 359.796939 247.986986 
L 360.533184 249.862584 
L 361.269429 249.326699 
L 362.005674 249.862584 
L 362.741918 249.862584 
L 363.478163 251.470239 
L 364.214408 251.470239 
L 364.950653 250.934354 
L 365.686898 248.522871 
L 367.159388 248.522871 
L 367.895633 249.862584 
L 368.631878 249.862584 
L 369.368122 249.058756 
L 370.104367 248.790813 
L 370.840612 247.4511 
L 371.576857 249.594641 
L 372.313102 247.719043 
L 373.049347 250.130526 
L 373.785592 251.202297 
L 374.521837 250.398469 
L 375.258082 249.862584 
L 375.994326 248.254928 
L 376.730571 248.522871 
L 377.466816 249.326699 
L 378.203061 249.862584 
L 378.939306 250.130526 
L 379.675551 247.719043 
L 380.411796 248.522871 
L 381.148041 250.666411 
L 381.884286 249.594641 
L 383.356775 249.058756 
L 384.09302 249.594641 
L 384.829265 247.719043 
L 385.56551 250.130526 
L 386.301755 250.398469 
L 387.038 248.522871 
L 387.774245 249.058756 
L 388.51049 250.934354 
L 389.246734 250.398469 
L 389.982979 249.594641 
L 390.719224 250.934354 
L 391.455469 249.326699 
L 392.191714 248.790813 
L 392.927959 249.058756 
L 393.664204 251.202297 
L 394.400449 251.202297 
L 395.136693 249.326699 
L 395.872938 250.398469 
L 396.609183 247.986986 
L 398.081673 250.130526 
L 398.817918 250.666411 
L 399.554163 250.130526 
L 400.290408 249.058756 
L 401.026653 247.4511 
L 401.762897 248.522871 
L 402.499142 247.986986 
L 403.235387 249.058756 
L 403.971632 250.666411 
L 404.707877 250.934354 
L 405.444122 249.326699 
L 406.180367 250.666411 
L 406.916612 249.862584 
L 407.652857 250.130526 
L 408.389101 251.470239 
L 409.125346 250.934354 
L 409.861591 250.934354 
L 410.597836 251.470239 
L 411.334081 249.594641 
L 412.070326 250.398469 
L 412.806571 249.058756 
L 413.542816 250.666411 
L 414.279061 251.202297 
L 415.015305 249.058756 
L 415.75155 249.594641 
L 416.487795 249.594641 
L 417.22404 246.915215 
L 417.960285 246.647273 
L 418.69653 250.398469 
L 419.432775 250.398469 
L 420.16902 248.790813 
L 420.905265 248.790813 
L 421.641509 249.862584 
L 422.377754 249.326699 
L 423.113999 250.398469 
L 423.850244 250.666411 
L 424.586489 250.666411 
L 425.322734 248.254928 
L 426.058979 249.862584 
L 426.795224 250.666411 
L 427.531469 250.934354 
L 428.267713 249.594641 
L 429.003958 251.738182 
L 429.740203 251.470239 
L 430.476448 250.934354 
L 431.212693 250.934354 
L 431.948938 251.202297 
L 432.685183 250.666411 
L 433.421428 251.202297 
L 434.157673 250.398469 
L 434.893917 244.771675 
L 435.630162 247.4511 
L 436.366407 249.326699 
L 438.575142 250.934354 
L 439.311387 251.738182 
L 440.047632 249.594641 
L 440.783877 249.594641 
L 441.520121 249.058756 
L 442.256366 246.111388 
L 442.992611 250.666411 
L 443.728856 251.738182 
L 444.465101 251.470239 
L 445.201346 250.666411 
L 445.937591 248.254928 
L 446.673836 250.934354 
L 447.41008 250.130526 
L 448.146325 248.522871 
L 448.88257 251.202297 
L 449.618815 251.202297 
L 450.35506 250.130526 
L 451.091305 247.986986 
L 451.82755 248.790813 
L 452.563795 249.862584 
L 453.30004 249.326699 
L 454.036284 250.934354 
L 454.772529 250.666411 
L 455.508774 248.254928 
L 456.245019 249.326699 
L 456.981264 247.183158 
L 457.717509 246.647273 
L 458.453754 247.183158 
L 459.189999 251.202297 
L 459.926244 251.738182 
L 460.662488 247.986986 
L 461.398733 246.111388 
L 462.134978 247.986986 
L 462.871223 246.647273 
L 463.607468 243.431962 
L 464.343713 249.594641 
L 465.079958 249.326699 
L 465.816203 247.4511 
L 466.552448 247.183158 
L 467.288692 248.254928 
L 468.024937 248.790813 
L 468.761182 247.986986 
L 469.497427 249.862584 
L 470.233672 250.934354 
L 470.969917 247.719043 
L 472.442407 248.254928 
L 473.178652 246.915215 
L 473.914896 247.4511 
L 474.651141 247.719043 
L 475.387386 250.666411 
L 476.123631 245.843445 
L 476.859876 245.843445 
L 477.596121 243.967847 
L 478.332366 247.183158 
L 479.068611 247.183158 
L 479.804856 249.862584 
L 480.5411 249.058756 
L 481.277345 247.986986 
L 482.01359 245.843445 
L 482.749835 248.522871 
L 483.48608 249.058756 
L 484.222325 249.326699 
L 484.95857 249.326699 
L 485.694815 249.862584 
L 486.43106 246.647273 
L 487.167304 247.183158 
L 487.903549 245.039617 
L 488.639794 247.986986 
L 489.376039 247.183158 
L 490.112284 250.934354 
L 490.848529 251.202297 
L 491.584774 243.967847 
L 492.321019 247.4511 
L 493.057263 245.575502 
L 493.793508 246.37933 
L 494.529753 249.594641 
L 495.265998 250.398469 
L 496.002243 250.398469 
L 496.738488 248.522871 
L 497.474733 249.326699 
L 498.210978 247.183158 
L 498.947223 246.915215 
L 499.683467 249.594641 
L 500.419712 249.862584 
L 501.155957 251.738182 
L 501.892202 248.522871 
L 502.628447 248.254928 
L 503.364692 249.058756 
L 504.100937 244.771675 
L 504.837182 249.326699 
L 505.573427 251.470239 
L 506.309671 250.934354 
L 507.045916 249.058756 
L 507.782161 249.594641 
L 508.518406 249.594641 
L 509.254651 250.666411 
L 509.990896 250.666411 
L 510.727141 251.202297 
L 511.463386 250.666411 
L 512.199631 249.326699 
L 512.935875 249.058756 
L 513.67212 249.326699 
L 514.408365 250.130526 
L 515.14461 249.594641 
L 515.880855 250.666411 
L 516.6171 249.594641 
L 517.353345 248.790813 
L 518.08959 248.522871 
L 518.825835 248.522871 
L 519.562079 249.862584 
L 520.298324 246.915215 
L 521.034569 251.470239 
L 521.770814 251.470239 
L 522.507059 249.058756 
L 523.243304 250.398469 
L 523.979549 250.398469 
L 524.715794 248.254928 
L 525.452039 249.862584 
L 526.188283 251.202297 
L 526.924528 250.398469 
L 527.660773 249.326699 
L 528.397018 248.522871 
L 529.133263 249.058756 
L 529.869508 247.4511 
L 530.605753 249.594641 
L 531.341998 250.934354 
L 532.078243 250.130526 
L 532.814487 246.647273 
L 533.550732 247.986986 
L 534.286977 250.666411 
L 535.023222 250.130526 
L 535.759467 248.522871 
L 536.495712 250.130526 
L 537.231957 251.470239 
L 537.968202 249.594641 
L 538.704446 250.130526 
L 539.440691 249.594641 
L 540.176936 248.790813 
L 540.913181 250.398469 
L 541.649426 251.470239 
L 542.385671 251.470239 
L 543.121916 250.666411 
L 543.858161 250.130526 
L 544.594406 250.130526 
L 545.33065 249.058756 
L 546.066895 251.470239 
L 546.80314 250.934354 
L 547.539385 251.738182 
L 548.27563 250.398469 
L 549.011875 249.862584 
L 549.74812 249.594641 
L 550.484365 248.522871 
L 551.22061 251.202297 
L 551.956854 251.470239 
L 552.693099 249.326699 
L 553.429344 249.594641 
L 554.165589 250.130526 
L 554.901834 250.398469 
L 555.638079 249.862584 
L 556.374324 251.470239 
L 557.110569 251.738182 
L 557.846814 250.934354 
L 558.583058 250.398469 
L 559.319303 249.058756 
L 560.055548 251.202297 
L 560.791793 250.666411 
L 561.528038 251.470239 
L 562.264283 251.202297 
L 563.000528 250.130526 
L 563.736773 249.594641 
L 564.473018 250.130526 
L 565.209262 249.058756 
L 565.945507 250.666411 
L 566.681752 251.470239 
L 567.417997 250.130526 
L 568.154242 251.202297 
L 568.890487 250.666411 
L 569.626732 250.666411 
L 570.362977 248.522871 
L 571.099222 249.594641 
L 571.835466 250.934354 
L 572.571711 251.202297 
L 573.307956 249.594641 
L 574.044201 249.594641 
L 574.780446 250.666411 
L 575.516691 249.594641 
L 576.252936 249.594641 
L 576.989181 251.470239 
L 577.725426 249.594641 
L 578.46167 249.326699 
L 579.197915 250.666411 
L 579.93416 249.594641 
L 580.670405 249.326699 
L 581.40665 251.202297 
L 582.142895 251.738182 
L 582.87914 250.130526 
L 583.615385 249.594641 
L 584.35163 250.666411 
L 585.824119 250.130526 
L 586.560364 250.666411 
L 587.296609 251.470239 
L 588.032854 250.130526 
L 588.769099 250.130526 
L 589.505344 249.326699 
L 590.241589 249.862584 
L 590.977833 249.862584 
L 591.714078 250.934354 
L 592.450323 251.738182 
L 593.186568 251.202297 
L 593.922813 250.398469 
L 594.659058 250.398469 
L 595.395303 250.934354 
L 596.131548 250.130526 
L 596.867793 250.934354 
L 597.604037 251.470239 
L 598.340282 250.398469 
L 599.076527 249.862584 
L 599.812772 250.130526 
L 600.549017 249.058756 
L 601.285262 249.594641 
L 602.021507 251.738182 
L 602.757752 251.470239 
L 603.493997 250.398469 
L 604.230241 249.862584 
L 604.966486 249.058756 
L 605.702731 249.594641 
L 606.438976 245.039617 
L 607.175221 251.202297 
L 607.911466 250.666411 
L 608.647711 249.058756 
L 609.383956 247.183158 
L 610.120201 248.790813 
L 610.856445 249.862584 
L 611.59269 250.398469 
L 612.328935 251.202297 
L 613.06518 251.202297 
L 613.801425 250.130526 
L 614.53767 248.254928 
L 615.273915 249.862584 
L 616.01016 246.915215 
L 616.746405 246.915215 
L 617.482649 251.202297 
L 618.218894 251.470239 
L 618.955139 246.37933 
L 619.691384 246.915215 
L 620.427629 247.183158 
L 621.163874 249.594641 
L 621.900119 250.130526 
L 622.636364 251.202297 
L 622.636364 251.202297 
" clip-path="url(#p6058334e11)" style="fill: none; stroke: #ff7f0e; stroke-width: 1.5; stroke-linecap: square"/>
   </g>
   <g id="patch_9">
    <path d="M 90 256.32 
L 90 155.52 
" style="fill: none; stroke: #000000; stroke-width: 0.8; stroke-linejoin: miter; stroke-linecap: square"/>
   </g>
   <g id="patch_10">
    <path d="M 648 256.32 
L 648 155.52 
" style="fill: none; stroke: #000000; stroke-width: 0.8; stroke-linejoin: miter; stroke-linecap: square"/>
   </g>
   <g id="patch_11">
    <path d="M 90 256.32 
L 648 256.32 
" style="fill: none; stroke: #000000; stroke-width: 0.8; stroke-linejoin: miter; stroke-linecap: square"/>
   </g>
   <g id="patch_12">
    <path d="M 90 155.52 
L 648 155.52 
" style="fill: none; stroke: #000000; stroke-width: 0.8; stroke-linejoin: miter; stroke-linecap: square"/>
   </g>
   <g id="legend_2">
    <g id="patch_13">
     <path d="M 503.782812 192.87625 
L 641 192.87625 
Q 643 192.87625 643 190.87625 
L 643 162.52 
Q 643 160.52 641 160.52 
L 503.782812 160.52 
Q 501.782812 160.52 501.782812 162.52 
L 501.782812 190.87625 
Q 501.782812 192.87625 503.782812 192.87625 
z
" style="fill: #ffffff; opacity: 0.8; stroke: #cccccc; stroke-linejoin: miter"/>
    </g>
    <g id="line2d_29">
     <path d="M 505.782812 168.618437 
L 515.782812 168.618437 
L 525.782812 168.618437 
" style="fill: none; stroke: #1f77b4; stroke-width: 1.5; stroke-linecap: square"/>
    </g>
    <g id="text_26">
     <!-- Total GitHub Views -->
     <g transform="translate(533.782812 172.118437) scale(0.1 -0.1)">
      <defs>
       <path id="DejaVuSans-56" d="M 1831 0 
L 50 4666 
L 709 4666 
L 2188 738 
L 3669 4666 
L 4325 4666 
L 2547 0 
L 1831 0 
z
" transform="scale(0.015625)"/>
       <path id="DejaVuSans-77" d="M 269 3500 
L 844 3500 
L 1563 769 
L 2278 3500 
L 2956 3500 
L 3675 769 
L 4391 3500 
L 4966 3500 
L 4050 0 
L 3372 0 
L 2619 2869 
L 1863 0 
L 1184 0 
L 269 3500 
z
" transform="scale(0.015625)"/>
      </defs>
      <use xlink:href="#DejaVuSans-54"/>
      <use xlink:href="#DejaVuSans-6f" x="44.083984"/>
      <use xlink:href="#DejaVuSans-74" x="105.265625"/>
      <use xlink:href="#DejaVuSans-61" x="144.474609"/>
      <use xlink:href="#DejaVuSans-6c" x="205.753906"/>
      <use xlink:href="#DejaVuSans-20" x="233.537109"/>
      <use xlink:href="#DejaVuSans-47" x="265.324219"/>
      <use xlink:href="#DejaVuSans-69" x="342.814453"/>
      <use xlink:href="#DejaVuSans-74" x="370.597656"/>
      <use xlink:href="#DejaVuSans-48" x="409.806641"/>
      <use xlink:href="#DejaVuSans-75" x="485.001953"/>
      <use xlink:href="#DejaVuSans-62" x="548.380859"/>
      <use xlink:href="#DejaVuSans-20" x="611.857422"/>
      <use xlink:href="#DejaVuSans-56" x="643.644531"/>
      <use xlink:href="#DejaVuSans-69" x="709.802734"/>
      <use xlink:href="#DejaVuSans-65" x="737.585938"/>
      <use xlink:href="#DejaVuSans-77" x="799.109375"/>
      <use xlink:href="#DejaVuSans-73" x="880.896484"/>
     </g>
    </g>
    <g id="line2d_30">
     <path d="M 505.782812 183.296562 
L 515.782812 183.296562 
L 525.782812 183.296562 
" style="fill: none; stroke: #ff7f0e; stroke-width: 1.5; stroke-linecap: square"/>
    </g>
    <g id="text_27">
     <!-- Unique GitHub Views -->
     <g transform="translate(533.782812 186.796562) scale(0.1 -0.1)">
      <use xlink:href="#DejaVuSans-55"/>
      <use xlink:href="#DejaVuSans-6e" x="73.193359"/>
      <use xlink:href="#DejaVuSans-69" x="136.572266"/>
      <use xlink:href="#DejaVuSans-71" x="164.355469"/>
      <use xlink:href="#DejaVuSans-75" x="227.832031"/>
      <use xlink:href="#DejaVuSans-65" x="291.210938"/>
      <use xlink:href="#DejaVuSans-20" x="352.734375"/>
      <use xlink:href="#DejaVuSans-47" x="384.521484"/>
      <use xlink:href="#DejaVuSans-69" x="462.011719"/>
      <use xlink:href="#DejaVuSans-74" x="489.794922"/>
      <use xlink:href="#DejaVuSans-48" x="529.003906"/>
      <use xlink:href="#DejaVuSans-75" x="604.199219"/>
      <use xlink:href="#DejaVuSans-62" x="667.578125"/>
      <use xlink:href="#DejaVuSans-20" x="731.054688"/>
      <use xlink:href="#DejaVuSans-56" x="762.841797"/>
      <use xlink:href="#DejaVuSans-69" x="829"/>
      <use xlink:href="#DejaVuSans-65" x="856.783203"/>
      <use xlink:href="#DejaVuSans-77" x="918.306641"/>
      <use xlink:href="#DejaVuSans-73" x="1000.09375"/>
     </g>
    </g>
   </g>
  </g>
 </g>
 <defs>
  <clipPath id="pbcf8eb558e">
   <rect x="90" y="34.56" width="558" height="100.8"/>
  </clipPath>
  <clipPath id="p6058334e11">
   <rect x="90" y="155.52" width="558" height="100.8"/>
  </clipPath>
 </defs>
</svg>
