<?xml version="1.0" encoding="utf-8" standalone="no"?>
<!DOCTYPE svg PUBLIC "-//W3C//DTD SVG 1.1//EN"
  "http://www.w3.org/Graphics/SVG/1.1/DTD/svg11.dtd">
<svg height="288pt" version="1.1" viewBox="0 0 720 288" width="720pt" xmlns="http://www.w3.org/2000/svg" xmlns:xlink="http://www.w3.org/1999/xlink">
 <metadata>
  <rdf:RDF xmlns:cc="http://creativecommons.org/ns#" xmlns:dc="http://purl.org/dc/elements/1.1/" xmlns:rdf="http://www.w3.org/1999/02/22-rdf-syntax-ns#">
   <cc:Work>
    <dc:type rdf:resource="http://purl.org/dc/dcmitype/StillImage"/>
    <dc:date>2021-07-26T00:23:21.984768</dc:date>
    <dc:format>image/svg+xml</dc:format>
    <dc:creator>
     <cc:Agent>
      <dc:title>Matplotlib v3.4.2, https://matplotlib.org/</dc:title>
     </cc:Agent>
    </dc:creator>
   </cc:Work>
  </rdf:RDF>
 </metadata>
 <defs>
  <style type="text/css">*{stroke-linecap:butt;stroke-linejoin:round;}</style>
 </defs>
 <g id="figure_1">
  <g id="patch_1">
   <path d="M 0 288 
L 720 288 
L 720 0 
L 0 0 
z
" style="fill:#ffffff;"/>
  </g>
  <g id="axes_1">
   <g id="patch_2">
    <path d="M 90 135.36 
L 648 135.36 
L 648 34.56 
L 90 34.56 
z
" style="fill:#ffffff;"/>
   </g>
   <g id="matplotlib.axis_1">
    <g id="xtick_1">
     <g id="line2d_1">
      <defs>
       <path d="M 0 0 
L 0 3.5 
" id="m75ba261033" style="stroke:#000000;stroke-width:0.8;"/>
      </defs>
      <g>
       <use style="stroke:#000000;stroke-width:0.8;" x="115.363636" xlink:href="#m75ba261033" y="135.36"/>
      </g>
     </g>
     <g id="text_1">
      <!-- 2020-10-22 -->
      <g transform="translate(86.305824 149.958437)scale(0.1 -0.1)">
       <defs>
        <path d="M 1228 531 
L 3431 531 
L 3431 0 
L 469 0 
L 469 531 
Q 828 903 1448 1529 
Q 2069 2156 2228 2338 
Q 2531 2678 2651 2914 
Q 2772 3150 2772 3378 
Q 2772 3750 2511 3984 
Q 2250 4219 1831 4219 
Q 1534 4219 1204 4116 
Q 875 4013 500 3803 
L 500 4441 
Q 881 4594 1212 4672 
Q 1544 4750 1819 4750 
Q 2544 4750 2975 4387 
Q 3406 4025 3406 3419 
Q 3406 3131 3298 2873 
Q 3191 2616 2906 2266 
Q 2828 2175 2409 1742 
Q 1991 1309 1228 531 
z
" id="DejaVuSans-32" transform="scale(0.015625)"/>
        <path d="M 2034 4250 
Q 1547 4250 1301 3770 
Q 1056 3291 1056 2328 
Q 1056 1369 1301 889 
Q 1547 409 2034 409 
Q 2525 409 2770 889 
Q 3016 1369 3016 2328 
Q 3016 3291 2770 3770 
Q 2525 4250 2034 4250 
z
M 2034 4750 
Q 2819 4750 3233 4129 
Q 3647 3509 3647 2328 
Q 3647 1150 3233 529 
Q 2819 -91 2034 -91 
Q 1250 -91 836 529 
Q 422 1150 422 2328 
Q 422 3509 836 4129 
Q 1250 4750 2034 4750 
z
" id="DejaVuSans-30" transform="scale(0.015625)"/>
        <path d="M 313 2009 
L 1997 2009 
L 1997 1497 
L 313 1497 
L 313 2009 
z
" id="DejaVuSans-2d" transform="scale(0.015625)"/>
        <path d="M 794 531 
L 1825 531 
L 1825 4091 
L 703 3866 
L 703 4441 
L 1819 4666 
L 2450 4666 
L 2450 531 
L 3481 531 
L 3481 0 
L 794 0 
L 794 531 
z
" id="DejaVuSans-31" transform="scale(0.015625)"/>
       </defs>
       <use xlink:href="#DejaVuSans-32"/>
       <use x="63.623047" xlink:href="#DejaVuSans-30"/>
       <use x="127.246094" xlink:href="#DejaVuSans-32"/>
       <use x="190.869141" xlink:href="#DejaVuSans-30"/>
       <use x="254.492188" xlink:href="#DejaVuSans-2d"/>
       <use x="290.576172" xlink:href="#DejaVuSans-31"/>
       <use x="354.199219" xlink:href="#DejaVuSans-30"/>
       <use x="417.822266" xlink:href="#DejaVuSans-2d"/>
       <use x="453.90625" xlink:href="#DejaVuSans-32"/>
       <use x="517.529297" xlink:href="#DejaVuSans-32"/>
      </g>
     </g>
    </g>
    <g id="xtick_2">
     <g id="line2d_2">
      <g>
       <use style="stroke:#000000;stroke-width:0.8;" x="226.121874" xlink:href="#m75ba261033" y="135.36"/>
      </g>
     </g>
     <g id="text_2">
      <!-- 2021-01-05 -->
      <g transform="translate(197.064061 149.958437)scale(0.1 -0.1)">
       <defs>
        <path d="M 691 4666 
L 3169 4666 
L 3169 4134 
L 1269 4134 
L 1269 2991 
Q 1406 3038 1543 3061 
Q 1681 3084 1819 3084 
Q 2600 3084 3056 2656 
Q 3513 2228 3513 1497 
Q 3513 744 3044 326 
Q 2575 -91 1722 -91 
Q 1428 -91 1123 -41 
Q 819 9 494 109 
L 494 744 
Q 775 591 1075 516 
Q 1375 441 1709 441 
Q 2250 441 2565 725 
Q 2881 1009 2881 1497 
Q 2881 1984 2565 2268 
Q 2250 2553 1709 2553 
Q 1456 2553 1204 2497 
Q 953 2441 691 2322 
L 691 4666 
z
" id="DejaVuSans-35" transform="scale(0.015625)"/>
       </defs>
       <use xlink:href="#DejaVuSans-32"/>
       <use x="63.623047" xlink:href="#DejaVuSans-30"/>
       <use x="127.246094" xlink:href="#DejaVuSans-32"/>
       <use x="190.869141" xlink:href="#DejaVuSans-31"/>
       <use x="254.492188" xlink:href="#DejaVuSans-2d"/>
       <use x="290.576172" xlink:href="#DejaVuSans-30"/>
       <use x="354.199219" xlink:href="#DejaVuSans-31"/>
       <use x="417.822266" xlink:href="#DejaVuSans-2d"/>
       <use x="453.90625" xlink:href="#DejaVuSans-30"/>
       <use x="517.529297" xlink:href="#DejaVuSans-35"/>
      </g>
     </g>
    </g>
    <g id="xtick_3">
     <g id="line2d_3">
      <g>
       <use style="stroke:#000000;stroke-width:0.8;" x="336.880111" xlink:href="#m75ba261033" y="135.36"/>
      </g>
     </g>
     <g id="text_3">
      <!-- 2021-03-17 -->
      <g transform="translate(307.822299 149.958437)scale(0.1 -0.1)">
       <defs>
        <path d="M 2597 2516 
Q 3050 2419 3304 2112 
Q 3559 1806 3559 1356 
Q 3559 666 3084 287 
Q 2609 -91 1734 -91 
Q 1441 -91 1130 -33 
Q 819 25 488 141 
L 488 750 
Q 750 597 1062 519 
Q 1375 441 1716 441 
Q 2309 441 2620 675 
Q 2931 909 2931 1356 
Q 2931 1769 2642 2001 
Q 2353 2234 1838 2234 
L 1294 2234 
L 1294 2753 
L 1863 2753 
Q 2328 2753 2575 2939 
Q 2822 3125 2822 3475 
Q 2822 3834 2567 4026 
Q 2313 4219 1838 4219 
Q 1578 4219 1281 4162 
Q 984 4106 628 3988 
L 628 4550 
Q 988 4650 1302 4700 
Q 1616 4750 1894 4750 
Q 2613 4750 3031 4423 
Q 3450 4097 3450 3541 
Q 3450 3153 3228 2886 
Q 3006 2619 2597 2516 
z
" id="DejaVuSans-33" transform="scale(0.015625)"/>
        <path d="M 525 4666 
L 3525 4666 
L 3525 4397 
L 1831 0 
L 1172 0 
L 2766 4134 
L 525 4134 
L 525 4666 
z
" id="DejaVuSans-37" transform="scale(0.015625)"/>
       </defs>
       <use xlink:href="#DejaVuSans-32"/>
       <use x="63.623047" xlink:href="#DejaVuSans-30"/>
       <use x="127.246094" xlink:href="#DejaVuSans-32"/>
       <use x="190.869141" xlink:href="#DejaVuSans-31"/>
       <use x="254.492188" xlink:href="#DejaVuSans-2d"/>
       <use x="290.576172" xlink:href="#DejaVuSans-30"/>
       <use x="354.199219" xlink:href="#DejaVuSans-33"/>
       <use x="417.822266" xlink:href="#DejaVuSans-2d"/>
       <use x="453.90625" xlink:href="#DejaVuSans-31"/>
       <use x="517.529297" xlink:href="#DejaVuSans-37"/>
      </g>
     </g>
    </g>
    <g id="xtick_4">
     <g id="line2d_4">
      <g>
       <use style="stroke:#000000;stroke-width:0.8;" x="447.638349" xlink:href="#m75ba261033" y="135.36"/>
      </g>
     </g>
     <g id="text_4">
      <!-- 2021-05-03 -->
      <g transform="translate(418.580536 149.958437)scale(0.1 -0.1)">
       <use xlink:href="#DejaVuSans-32"/>
       <use x="63.623047" xlink:href="#DejaVuSans-30"/>
       <use x="127.246094" xlink:href="#DejaVuSans-32"/>
       <use x="190.869141" xlink:href="#DejaVuSans-31"/>
       <use x="254.492188" xlink:href="#DejaVuSans-2d"/>
       <use x="290.576172" xlink:href="#DejaVuSans-30"/>
       <use x="354.199219" xlink:href="#DejaVuSans-35"/>
       <use x="417.822266" xlink:href="#DejaVuSans-2d"/>
       <use x="453.90625" xlink:href="#DejaVuSans-30"/>
       <use x="517.529297" xlink:href="#DejaVuSans-33"/>
      </g>
     </g>
    </g>
    <g id="xtick_5">
     <g id="line2d_5">
      <g>
       <use style="stroke:#000000;stroke-width:0.8;" x="558.396586" xlink:href="#m75ba261033" y="135.36"/>
      </g>
     </g>
     <g id="text_5">
      <!-- 2021-06-20 -->
      <g transform="translate(529.338773 149.958437)scale(0.1 -0.1)">
       <defs>
        <path d="M 2113 2584 
Q 1688 2584 1439 2293 
Q 1191 2003 1191 1497 
Q 1191 994 1439 701 
Q 1688 409 2113 409 
Q 2538 409 2786 701 
Q 3034 994 3034 1497 
Q 3034 2003 2786 2293 
Q 2538 2584 2113 2584 
z
M 3366 4563 
L 3366 3988 
Q 3128 4100 2886 4159 
Q 2644 4219 2406 4219 
Q 1781 4219 1451 3797 
Q 1122 3375 1075 2522 
Q 1259 2794 1537 2939 
Q 1816 3084 2150 3084 
Q 2853 3084 3261 2657 
Q 3669 2231 3669 1497 
Q 3669 778 3244 343 
Q 2819 -91 2113 -91 
Q 1303 -91 875 529 
Q 447 1150 447 2328 
Q 447 3434 972 4092 
Q 1497 4750 2381 4750 
Q 2619 4750 2861 4703 
Q 3103 4656 3366 4563 
z
" id="DejaVuSans-36" transform="scale(0.015625)"/>
       </defs>
       <use xlink:href="#DejaVuSans-32"/>
       <use x="63.623047" xlink:href="#DejaVuSans-30"/>
       <use x="127.246094" xlink:href="#DejaVuSans-32"/>
       <use x="190.869141" xlink:href="#DejaVuSans-31"/>
       <use x="254.492188" xlink:href="#DejaVuSans-2d"/>
       <use x="290.576172" xlink:href="#DejaVuSans-30"/>
       <use x="354.199219" xlink:href="#DejaVuSans-36"/>
       <use x="417.822266" xlink:href="#DejaVuSans-2d"/>
       <use x="453.90625" xlink:href="#DejaVuSans-32"/>
       <use x="517.529297" xlink:href="#DejaVuSans-30"/>
      </g>
     </g>
    </g>
    <g id="text_6">
     <!-- _date -->
     <g transform="translate(355.225 163.636562)scale(0.1 -0.1)">
      <defs>
       <path d="M 3263 -1063 
L 3263 -1509 
L -63 -1509 
L -63 -1063 
L 3263 -1063 
z
" id="DejaVuSans-5f" transform="scale(0.015625)"/>
       <path d="M 2906 2969 
L 2906 4863 
L 3481 4863 
L 3481 0 
L 2906 0 
L 2906 525 
Q 2725 213 2448 61 
Q 2172 -91 1784 -91 
Q 1150 -91 751 415 
Q 353 922 353 1747 
Q 353 2572 751 3078 
Q 1150 3584 1784 3584 
Q 2172 3584 2448 3432 
Q 2725 3281 2906 2969 
z
M 947 1747 
Q 947 1113 1208 752 
Q 1469 391 1925 391 
Q 2381 391 2643 752 
Q 2906 1113 2906 1747 
Q 2906 2381 2643 2742 
Q 2381 3103 1925 3103 
Q 1469 3103 1208 2742 
Q 947 2381 947 1747 
z
" id="DejaVuSans-64" transform="scale(0.015625)"/>
       <path d="M 2194 1759 
Q 1497 1759 1228 1600 
Q 959 1441 959 1056 
Q 959 750 1161 570 
Q 1363 391 1709 391 
Q 2188 391 2477 730 
Q 2766 1069 2766 1631 
L 2766 1759 
L 2194 1759 
z
M 3341 1997 
L 3341 0 
L 2766 0 
L 2766 531 
Q 2569 213 2275 61 
Q 1981 -91 1556 -91 
Q 1019 -91 701 211 
Q 384 513 384 1019 
Q 384 1609 779 1909 
Q 1175 2209 1959 2209 
L 2766 2209 
L 2766 2266 
Q 2766 2663 2505 2880 
Q 2244 3097 1772 3097 
Q 1472 3097 1187 3025 
Q 903 2953 641 2809 
L 641 3341 
Q 956 3463 1253 3523 
Q 1550 3584 1831 3584 
Q 2591 3584 2966 3190 
Q 3341 2797 3341 1997 
z
" id="DejaVuSans-61" transform="scale(0.015625)"/>
       <path d="M 1172 4494 
L 1172 3500 
L 2356 3500 
L 2356 3053 
L 1172 3053 
L 1172 1153 
Q 1172 725 1289 603 
Q 1406 481 1766 481 
L 2356 481 
L 2356 0 
L 1766 0 
Q 1100 0 847 248 
Q 594 497 594 1153 
L 594 3053 
L 172 3053 
L 172 3500 
L 594 3500 
L 594 4494 
L 1172 4494 
z
" id="DejaVuSans-74" transform="scale(0.015625)"/>
       <path d="M 3597 1894 
L 3597 1613 
L 953 1613 
Q 991 1019 1311 708 
Q 1631 397 2203 397 
Q 2534 397 2845 478 
Q 3156 559 3463 722 
L 3463 178 
Q 3153 47 2828 -22 
Q 2503 -91 2169 -91 
Q 1331 -91 842 396 
Q 353 884 353 1716 
Q 353 2575 817 3079 
Q 1281 3584 2069 3584 
Q 2775 3584 3186 3129 
Q 3597 2675 3597 1894 
z
M 3022 2063 
Q 3016 2534 2758 2815 
Q 2500 3097 2075 3097 
Q 1594 3097 1305 2825 
Q 1016 2553 972 2059 
L 3022 2063 
z
" id="DejaVuSans-65" transform="scale(0.015625)"/>
      </defs>
      <use xlink:href="#DejaVuSans-5f"/>
      <use x="50" xlink:href="#DejaVuSans-64"/>
      <use x="113.476562" xlink:href="#DejaVuSans-61"/>
      <use x="174.755859" xlink:href="#DejaVuSans-74"/>
      <use x="213.964844" xlink:href="#DejaVuSans-65"/>
     </g>
    </g>
   </g>
   <g id="matplotlib.axis_2">
    <g id="ytick_1">
     <g id="line2d_6">
      <defs>
       <path d="M 0 0 
L -3.5 0 
" id="m2a391f3b35" style="stroke:#000000;stroke-width:0.8;"/>
      </defs>
      <g>
       <use style="stroke:#000000;stroke-width:0.8;" x="90" xlink:href="#m2a391f3b35" y="131.401558"/>
      </g>
     </g>
     <g id="text_7">
      <!-- 0 -->
      <g transform="translate(76.6375 135.200777)scale(0.1 -0.1)">
       <use xlink:href="#DejaVuSans-30"/>
      </g>
     </g>
    </g>
    <g id="ytick_2">
     <g id="line2d_7">
      <g>
       <use style="stroke:#000000;stroke-width:0.8;" x="90" xlink:href="#m2a391f3b35" y="100.232727"/>
      </g>
     </g>
     <g id="text_8">
      <!-- 50 -->
      <g transform="translate(70.275 104.031946)scale(0.1 -0.1)">
       <use xlink:href="#DejaVuSans-35"/>
       <use x="63.623047" xlink:href="#DejaVuSans-30"/>
      </g>
     </g>
    </g>
    <g id="ytick_3">
     <g id="line2d_8">
      <g>
       <use style="stroke:#000000;stroke-width:0.8;" x="90" xlink:href="#m2a391f3b35" y="69.063896"/>
      </g>
     </g>
     <g id="text_9">
      <!-- 100 -->
      <g transform="translate(63.9125 72.863115)scale(0.1 -0.1)">
       <use xlink:href="#DejaVuSans-31"/>
       <use x="63.623047" xlink:href="#DejaVuSans-30"/>
       <use x="127.246094" xlink:href="#DejaVuSans-30"/>
      </g>
     </g>
    </g>
    <g id="ytick_4">
     <g id="line2d_9">
      <g>
       <use style="stroke:#000000;stroke-width:0.8;" x="90" xlink:href="#m2a391f3b35" y="37.895065"/>
      </g>
     </g>
     <g id="text_10">
      <!-- 150 -->
      <g transform="translate(63.9125 41.694284)scale(0.1 -0.1)">
       <use xlink:href="#DejaVuSans-31"/>
       <use x="63.623047" xlink:href="#DejaVuSans-35"/>
       <use x="127.246094" xlink:href="#DejaVuSans-30"/>
      </g>
     </g>
    </g>
   </g>
   <g id="line2d_10">
    <path clip-path="url(#pc79e3ac8f0)" d="M 115.363636 127.661299 
L 117.578801 128.284675 
L 119.793966 130.778182 
L 122.009131 130.778182 
L 124.224295 129.531429 
L 126.43946 129.531429 
L 128.654625 120.804156 
L 130.86979 120.804156 
L 133.084954 130.778182 
L 135.300119 130.778182 
L 137.515284 124.544416 
L 139.730449 126.414545 
L 141.945613 130.778182 
L 144.160778 127.661299 
L 146.375943 128.908052 
L 148.591108 128.908052 
L 150.806272 130.778182 
L 155.236602 128.284675 
L 157.451767 130.154805 
L 159.666931 130.778182 
L 161.882096 130.154805 
L 164.097261 130.154805 
L 166.312426 129.531429 
L 168.52759 130.154805 
L 170.742755 130.154805 
L 172.95792 128.908052 
L 175.173085 130.154805 
L 177.388249 130.154805 
L 179.603414 122.674286 
L 181.818579 127.661299 
L 184.033744 130.154805 
L 186.248908 115.817143 
L 188.464073 130.778182 
L 206.185391 130.778182 
L 208.400556 130.154805 
L 210.615721 130.778182 
L 226.121874 130.778182 
L 228.337039 128.908052 
L 230.552203 129.531429 
L 232.767368 130.778182 
L 234.982533 129.531429 
L 237.197697 127.661299 
L 239.412862 130.154805 
L 241.628027 130.154805 
L 243.843192 128.908052 
L 246.058356 120.804156 
L 248.273521 130.154805 
L 250.488686 130.778182 
L 252.703851 130.154805 
L 254.919015 127.037922 
L 257.13418 130.154805 
L 259.349345 129.531429 
L 261.56451 125.167792 
L 263.779674 128.908052 
L 265.994839 127.037922 
L 268.210004 130.154805 
L 270.425169 129.531429 
L 272.640333 130.154805 
L 274.855498 129.531429 
L 279.285828 129.531429 
L 281.500992 128.284675 
L 283.716157 130.778182 
L 285.931322 130.778182 
L 288.146487 128.284675 
L 290.361651 128.284675 
L 292.576816 125.167792 
L 294.791981 129.531429 
L 297.007146 127.661299 
L 299.22231 130.778182 
L 301.437475 125.791169 
L 303.65264 128.908052 
L 305.867805 129.531429 
L 308.082969 128.908052 
L 310.298134 126.414545 
L 312.513299 130.154805 
L 314.728464 128.284675 
L 316.943628 121.427532 
L 319.158793 126.414545 
L 321.373958 120.804156 
L 323.589123 87.141818 
L 325.804287 127.661299 
L 328.019452 130.778182 
L 330.234617 128.908052 
L 332.449782 123.297662 
L 334.664946 124.544416 
L 336.880111 127.661299 
L 339.095276 119.557403 
L 341.310441 128.908052 
L 343.525605 128.908052 
L 345.74077 130.154805 
L 347.955935 122.674286 
L 350.1711 124.544416 
L 352.386264 130.778182 
L 354.601429 129.531429 
L 356.816594 130.778182 
L 359.031759 128.284675 
L 361.246923 100.232727 
L 363.462088 100.856104 
L 365.677253 120.180779 
L 367.892418 118.310649 
L 370.107582 121.427532 
L 372.322747 127.661299 
L 374.537912 130.778182 
L 376.753077 126.414545 
L 378.968241 128.908052 
L 381.183406 122.674286 
L 383.398571 122.050909 
L 385.613736 128.908052 
L 387.8289 123.297662 
L 390.044065 115.817143 
L 392.25923 122.674286 
L 394.474395 127.661299 
L 396.689559 115.193766 
L 398.904724 115.817143 
L 401.119889 115.193766 
L 403.335054 116.440519 
L 405.550218 92.128831 
L 407.765383 107.08987 
L 409.980548 109.583377 
L 412.195713 107.08987 
L 414.410877 107.713247 
L 416.626042 119.557403 
L 418.841207 110.206753 
L 421.056372 118.934026 
L 423.271536 129.531429 
L 425.486701 130.154805 
L 427.701866 116.440519 
L 429.917031 114.57039 
L 434.34736 115.817143 
L 436.562525 111.453506 
L 438.77769 105.843117 
L 440.992854 128.284675 
L 443.208019 130.154805 
L 445.423184 116.440519 
L 447.638349 119.557403 
L 449.853513 117.687273 
L 452.068678 100.232727 
L 454.283843 115.817143 
L 456.499008 116.440519 
L 458.714172 130.154805 
L 460.929337 128.908052 
L 463.144502 114.57039 
L 465.359667 102.102857 
L 467.574831 102.726234 
L 469.789996 117.063896 
L 472.005161 113.323636 
L 474.220326 95.245714 
L 476.43549 117.063896 
L 478.650655 130.154805 
L 480.86582 114.57039 
L 483.080985 107.713247 
L 485.296149 105.843117 
L 487.511314 102.726234 
L 489.726479 108.96 
L 491.941644 111.453506 
L 494.156808 129.531429 
L 496.371973 115.193766 
L 498.587138 110.206753 
L 500.802303 108.336623 
L 503.017467 115.817143 
L 505.232632 115.193766 
L 507.447797 113.947013 
L 509.662961 125.791169 
L 511.878126 115.817143 
L 516.308456 113.323636 
L 518.52362 115.817143 
L 520.738785 116.440519 
L 522.95395 116.440519 
L 525.169115 130.778182 
L 527.384279 130.778182 
L 529.599444 115.193766 
L 531.814609 112.076883 
L 534.029774 115.193766 
L 536.244938 102.726234 
L 538.460103 105.843117 
L 540.675268 130.778182 
L 542.890433 115.817143 
L 545.105597 113.947013 
L 547.320762 113.323636 
L 549.535927 112.076883 
L 551.751092 117.063896 
L 553.966256 130.154805 
L 556.181421 115.193766 
L 558.396586 114.57039 
L 560.611751 110.83013 
L 562.826915 105.21974 
L 565.04208 104.596364 
L 567.257245 39.141818 
L 569.47241 86.518442 
L 571.687574 130.778182 
L 573.902739 120.180779 
L 576.117904 118.310649 
L 580.548233 117.063896 
L 582.763398 124.544416 
L 584.978563 130.778182 
L 587.193728 130.778182 
L 589.408892 130.154805 
L 591.624057 123.297662 
L 593.839222 125.167792 
L 596.054387 130.154805 
L 598.269551 128.908052 
L 600.484716 130.154805 
L 602.699881 130.778182 
L 604.915046 130.778182 
L 607.13021 130.154805 
L 609.345375 130.778182 
L 611.56054 128.908052 
L 613.775705 129.531429 
L 615.990869 130.778182 
L 622.636364 130.778182 
L 622.636364 130.778182 
" style="fill:none;stroke:#1f77b4;stroke-linecap:square;stroke-width:1.5;"/>
   </g>
   <g id="line2d_11">
    <path clip-path="url(#pc79e3ac8f0)" d="M 115.363636 127.661299 
L 117.578801 128.284675 
L 119.793966 130.778182 
L 122.009131 130.778182 
L 124.224295 129.531429 
L 126.43946 129.531429 
L 128.654625 130.154805 
L 130.86979 128.284675 
L 133.084954 130.778182 
L 135.300119 130.778182 
L 137.515284 124.544416 
L 139.730449 129.531429 
L 141.945613 130.778182 
L 144.160778 128.908052 
L 146.375943 128.908052 
L 148.591108 129.531429 
L 150.806272 130.778182 
L 153.021437 129.531429 
L 155.236602 128.908052 
L 157.451767 130.154805 
L 159.666931 130.778182 
L 161.882096 130.154805 
L 164.097261 130.778182 
L 166.312426 129.531429 
L 170.742755 130.778182 
L 172.95792 130.154805 
L 175.173085 130.778182 
L 177.388249 130.154805 
L 179.603414 125.791169 
L 181.818579 127.661299 
L 184.033744 130.154805 
L 186.248908 125.167792 
L 188.464073 130.778182 
L 206.185391 130.778182 
L 208.400556 130.154805 
L 210.615721 130.778182 
L 226.121874 130.778182 
L 228.337039 129.531429 
L 230.552203 130.778182 
L 232.767368 130.778182 
L 237.197697 129.531429 
L 239.412862 130.778182 
L 243.843192 130.778182 
L 246.058356 124.544416 
L 248.273521 130.778182 
L 250.488686 130.778182 
L 252.703851 130.154805 
L 254.919015 128.908052 
L 257.13418 130.154805 
L 259.349345 129.531429 
L 261.56451 127.037922 
L 263.779674 129.531429 
L 265.994839 130.778182 
L 268.210004 130.154805 
L 270.425169 130.778182 
L 272.640333 130.154805 
L 274.855498 130.778182 
L 277.070663 129.531429 
L 281.500992 129.531429 
L 283.716157 130.778182 
L 285.931322 130.778182 
L 292.576816 127.037922 
L 294.791981 129.531429 
L 297.007146 128.284675 
L 299.22231 130.778182 
L 301.437475 127.037922 
L 303.65264 128.908052 
L 305.867805 129.531429 
L 308.082969 128.908052 
L 310.298134 126.414545 
L 312.513299 130.154805 
L 314.728464 128.284675 
L 316.943628 124.544416 
L 319.158793 127.037922 
L 321.373958 123.297662 
L 323.589123 108.96 
L 325.804287 127.661299 
L 328.019452 130.778182 
L 330.234617 129.531429 
L 332.449782 123.921039 
L 336.880111 127.661299 
L 339.095276 122.050909 
L 341.310441 128.908052 
L 343.525605 128.908052 
L 345.74077 130.154805 
L 347.955935 124.544416 
L 350.1711 124.544416 
L 352.386264 130.778182 
L 354.601429 129.531429 
L 356.816594 130.778182 
L 359.031759 128.908052 
L 361.246923 116.440519 
L 363.462088 116.440519 
L 365.677253 121.427532 
L 367.892418 122.674286 
L 370.107582 124.544416 
L 372.322747 128.284675 
L 374.537912 130.778182 
L 376.753077 127.661299 
L 378.968241 130.154805 
L 381.183406 123.921039 
L 383.398571 123.921039 
L 385.613736 129.531429 
L 387.8289 123.921039 
L 390.044065 120.180779 
L 392.25923 123.297662 
L 394.474395 128.284675 
L 396.689559 120.804156 
L 398.904724 120.804156 
L 401.119889 125.167792 
L 403.335054 130.154805 
L 405.550218 121.427532 
L 407.765383 128.908052 
L 409.980548 129.531429 
L 412.195713 125.791169 
L 414.410877 125.791169 
L 416.626042 121.427532 
L 418.841207 125.167792 
L 421.056372 130.778182 
L 423.271536 130.154805 
L 425.486701 130.154805 
L 427.701866 130.778182 
L 429.917031 128.908052 
L 432.132195 129.531429 
L 434.34736 129.531429 
L 438.77769 120.804156 
L 440.992854 128.284675 
L 443.208019 130.154805 
L 445.423184 130.778182 
L 447.638349 130.778182 
L 449.853513 128.908052 
L 452.068678 117.687273 
L 454.283843 130.778182 
L 456.499008 129.531429 
L 458.714172 130.154805 
L 463.144502 130.154805 
L 465.359667 118.934026 
L 467.574831 118.934026 
L 469.789996 128.908052 
L 472.005161 127.037922 
L 474.220326 115.817143 
L 476.43549 120.180779 
L 478.650655 130.154805 
L 480.86582 130.778182 
L 483.080985 127.661299 
L 485.296149 125.791169 
L 487.511314 129.531429 
L 489.726479 128.908052 
L 491.941644 130.154805 
L 494.156808 130.154805 
L 496.371973 130.778182 
L 498.587138 125.167792 
L 500.802303 123.921039 
L 503.017467 130.778182 
L 505.232632 130.154805 
L 507.447797 128.908052 
L 509.662961 127.037922 
L 511.878126 130.778182 
L 514.093291 130.154805 
L 516.308456 128.908052 
L 518.52362 130.778182 
L 520.738785 129.531429 
L 522.95395 129.531429 
L 525.169115 130.778182 
L 529.599444 130.778182 
L 531.814609 127.661299 
L 534.029774 130.778182 
L 536.244938 128.908052 
L 538.460103 125.791169 
L 540.675268 130.778182 
L 542.890433 130.778182 
L 545.105597 130.154805 
L 547.320762 128.908052 
L 553.966256 130.778182 
L 556.181421 130.778182 
L 558.396586 130.154805 
L 560.611751 126.414545 
L 562.826915 126.414545 
L 565.04208 127.661299 
L 567.257245 130.778182 
L 569.47241 121.427532 
L 571.687574 130.778182 
L 573.902739 130.778182 
L 576.117904 130.154805 
L 578.333069 127.037922 
L 582.763398 125.791169 
L 584.978563 130.778182 
L 587.193728 130.778182 
L 589.408892 130.154805 
L 591.624057 123.297662 
L 593.839222 126.414545 
L 596.054387 130.154805 
L 598.269551 128.908052 
L 600.484716 130.778182 
L 604.915046 130.778182 
L 607.13021 130.154805 
L 609.345375 130.778182 
L 611.56054 128.908052 
L 613.775705 129.531429 
L 615.990869 130.778182 
L 622.636364 130.778182 
L 622.636364 130.778182 
" style="fill:none;stroke:#ff7f0e;stroke-linecap:square;stroke-width:1.5;"/>
   </g>
   <g id="patch_3">
    <path d="M 90 135.36 
L 90 34.56 
" style="fill:none;stroke:#000000;stroke-linecap:square;stroke-linejoin:miter;stroke-width:0.8;"/>
   </g>
   <g id="patch_4">
    <path d="M 648 135.36 
L 648 34.56 
" style="fill:none;stroke:#000000;stroke-linecap:square;stroke-linejoin:miter;stroke-width:0.8;"/>
   </g>
   <g id="patch_5">
    <path d="M 90 135.36 
L 648 135.36 
" style="fill:none;stroke:#000000;stroke-linecap:square;stroke-linejoin:miter;stroke-width:0.8;"/>
   </g>
   <g id="patch_6">
    <path d="M 90 34.56 
L 648 34.56 
" style="fill:none;stroke:#000000;stroke-linecap:square;stroke-linejoin:miter;stroke-width:0.8;"/>
   </g>
   <g id="legend_1">
    <g id="patch_7">
     <path d="M 97 71.91625 
L 238.8625 71.91625 
Q 240.8625 71.91625 240.8625 69.91625 
L 240.8625 41.56 
Q 240.8625 39.56 238.8625 39.56 
L 97 39.56 
Q 95 39.56 95 41.56 
L 95 69.91625 
Q 95 71.91625 97 71.91625 
z
" style="fill:#ffffff;opacity:0.8;stroke:#cccccc;stroke-linejoin:miter;"/>
    </g>
    <g id="line2d_12">
     <path d="M 99 47.658437 
L 119 47.658437 
" style="fill:none;stroke:#1f77b4;stroke-linecap:square;stroke-width:1.5;"/>
    </g>
    <g id="line2d_13"/>
    <g id="text_11">
     <!-- Total GitHub Clones -->
     <g transform="translate(127 51.158437)scale(0.1 -0.1)">
      <defs>
       <path d="M -19 4666 
L 3928 4666 
L 3928 4134 
L 2272 4134 
L 2272 0 
L 1638 0 
L 1638 4134 
L -19 4134 
L -19 4666 
z
" id="DejaVuSans-54" transform="scale(0.015625)"/>
       <path d="M 1959 3097 
Q 1497 3097 1228 2736 
Q 959 2375 959 1747 
Q 959 1119 1226 758 
Q 1494 397 1959 397 
Q 2419 397 2687 759 
Q 2956 1122 2956 1747 
Q 2956 2369 2687 2733 
Q 2419 3097 1959 3097 
z
M 1959 3584 
Q 2709 3584 3137 3096 
Q 3566 2609 3566 1747 
Q 3566 888 3137 398 
Q 2709 -91 1959 -91 
Q 1206 -91 779 398 
Q 353 888 353 1747 
Q 353 2609 779 3096 
Q 1206 3584 1959 3584 
z
" id="DejaVuSans-6f" transform="scale(0.015625)"/>
       <path d="M 603 4863 
L 1178 4863 
L 1178 0 
L 603 0 
L 603 4863 
z
" id="DejaVuSans-6c" transform="scale(0.015625)"/>
       <path id="DejaVuSans-20" transform="scale(0.015625)"/>
       <path d="M 3809 666 
L 3809 1919 
L 2778 1919 
L 2778 2438 
L 4434 2438 
L 4434 434 
Q 4069 175 3628 42 
Q 3188 -91 2688 -91 
Q 1594 -91 976 548 
Q 359 1188 359 2328 
Q 359 3472 976 4111 
Q 1594 4750 2688 4750 
Q 3144 4750 3555 4637 
Q 3966 4525 4313 4306 
L 4313 3634 
Q 3963 3931 3569 4081 
Q 3175 4231 2741 4231 
Q 1884 4231 1454 3753 
Q 1025 3275 1025 2328 
Q 1025 1384 1454 906 
Q 1884 428 2741 428 
Q 3075 428 3337 486 
Q 3600 544 3809 666 
z
" id="DejaVuSans-47" transform="scale(0.015625)"/>
       <path d="M 603 3500 
L 1178 3500 
L 1178 0 
L 603 0 
L 603 3500 
z
M 603 4863 
L 1178 4863 
L 1178 4134 
L 603 4134 
L 603 4863 
z
" id="DejaVuSans-69" transform="scale(0.015625)"/>
       <path d="M 628 4666 
L 1259 4666 
L 1259 2753 
L 3553 2753 
L 3553 4666 
L 4184 4666 
L 4184 0 
L 3553 0 
L 3553 2222 
L 1259 2222 
L 1259 0 
L 628 0 
L 628 4666 
z
" id="DejaVuSans-48" transform="scale(0.015625)"/>
       <path d="M 544 1381 
L 544 3500 
L 1119 3500 
L 1119 1403 
Q 1119 906 1312 657 
Q 1506 409 1894 409 
Q 2359 409 2629 706 
Q 2900 1003 2900 1516 
L 2900 3500 
L 3475 3500 
L 3475 0 
L 2900 0 
L 2900 538 
Q 2691 219 2414 64 
Q 2138 -91 1772 -91 
Q 1169 -91 856 284 
Q 544 659 544 1381 
z
M 1991 3584 
L 1991 3584 
z
" id="DejaVuSans-75" transform="scale(0.015625)"/>
       <path d="M 3116 1747 
Q 3116 2381 2855 2742 
Q 2594 3103 2138 3103 
Q 1681 3103 1420 2742 
Q 1159 2381 1159 1747 
Q 1159 1113 1420 752 
Q 1681 391 2138 391 
Q 2594 391 2855 752 
Q 3116 1113 3116 1747 
z
M 1159 2969 
Q 1341 3281 1617 3432 
Q 1894 3584 2278 3584 
Q 2916 3584 3314 3078 
Q 3713 2572 3713 1747 
Q 3713 922 3314 415 
Q 2916 -91 2278 -91 
Q 1894 -91 1617 61 
Q 1341 213 1159 525 
L 1159 0 
L 581 0 
L 581 4863 
L 1159 4863 
L 1159 2969 
z
" id="DejaVuSans-62" transform="scale(0.015625)"/>
       <path d="M 4122 4306 
L 4122 3641 
Q 3803 3938 3442 4084 
Q 3081 4231 2675 4231 
Q 1875 4231 1450 3742 
Q 1025 3253 1025 2328 
Q 1025 1406 1450 917 
Q 1875 428 2675 428 
Q 3081 428 3442 575 
Q 3803 722 4122 1019 
L 4122 359 
Q 3791 134 3420 21 
Q 3050 -91 2638 -91 
Q 1578 -91 968 557 
Q 359 1206 359 2328 
Q 359 3453 968 4101 
Q 1578 4750 2638 4750 
Q 3056 4750 3426 4639 
Q 3797 4528 4122 4306 
z
" id="DejaVuSans-43" transform="scale(0.015625)"/>
       <path d="M 3513 2113 
L 3513 0 
L 2938 0 
L 2938 2094 
Q 2938 2591 2744 2837 
Q 2550 3084 2163 3084 
Q 1697 3084 1428 2787 
Q 1159 2491 1159 1978 
L 1159 0 
L 581 0 
L 581 3500 
L 1159 3500 
L 1159 2956 
Q 1366 3272 1645 3428 
Q 1925 3584 2291 3584 
Q 2894 3584 3203 3211 
Q 3513 2838 3513 2113 
z
" id="DejaVuSans-6e" transform="scale(0.015625)"/>
       <path d="M 2834 3397 
L 2834 2853 
Q 2591 2978 2328 3040 
Q 2066 3103 1784 3103 
Q 1356 3103 1142 2972 
Q 928 2841 928 2578 
Q 928 2378 1081 2264 
Q 1234 2150 1697 2047 
L 1894 2003 
Q 2506 1872 2764 1633 
Q 3022 1394 3022 966 
Q 3022 478 2636 193 
Q 2250 -91 1575 -91 
Q 1294 -91 989 -36 
Q 684 19 347 128 
L 347 722 
Q 666 556 975 473 
Q 1284 391 1588 391 
Q 1994 391 2212 530 
Q 2431 669 2431 922 
Q 2431 1156 2273 1281 
Q 2116 1406 1581 1522 
L 1381 1569 
Q 847 1681 609 1914 
Q 372 2147 372 2553 
Q 372 3047 722 3315 
Q 1072 3584 1716 3584 
Q 2034 3584 2315 3537 
Q 2597 3491 2834 3397 
z
" id="DejaVuSans-73" transform="scale(0.015625)"/>
      </defs>
      <use xlink:href="#DejaVuSans-54"/>
      <use x="44.083984" xlink:href="#DejaVuSans-6f"/>
      <use x="105.265625" xlink:href="#DejaVuSans-74"/>
      <use x="144.474609" xlink:href="#DejaVuSans-61"/>
      <use x="205.753906" xlink:href="#DejaVuSans-6c"/>
      <use x="233.537109" xlink:href="#DejaVuSans-20"/>
      <use x="265.324219" xlink:href="#DejaVuSans-47"/>
      <use x="342.814453" xlink:href="#DejaVuSans-69"/>
      <use x="370.597656" xlink:href="#DejaVuSans-74"/>
      <use x="409.806641" xlink:href="#DejaVuSans-48"/>
      <use x="485.001953" xlink:href="#DejaVuSans-75"/>
      <use x="548.380859" xlink:href="#DejaVuSans-62"/>
      <use x="611.857422" xlink:href="#DejaVuSans-20"/>
      <use x="643.644531" xlink:href="#DejaVuSans-43"/>
      <use x="713.46875" xlink:href="#DejaVuSans-6c"/>
      <use x="741.251953" xlink:href="#DejaVuSans-6f"/>
      <use x="802.433594" xlink:href="#DejaVuSans-6e"/>
      <use x="865.8125" xlink:href="#DejaVuSans-65"/>
      <use x="927.335938" xlink:href="#DejaVuSans-73"/>
     </g>
    </g>
    <g id="line2d_14">
     <path d="M 99 62.336562 
L 119 62.336562 
" style="fill:none;stroke:#ff7f0e;stroke-linecap:square;stroke-width:1.5;"/>
    </g>
    <g id="line2d_15"/>
    <g id="text_12">
     <!-- Unique GitHub Clones -->
     <g transform="translate(127 65.836562)scale(0.1 -0.1)">
      <defs>
       <path d="M 556 4666 
L 1191 4666 
L 1191 1831 
Q 1191 1081 1462 751 
Q 1734 422 2344 422 
Q 2950 422 3222 751 
Q 3494 1081 3494 1831 
L 3494 4666 
L 4128 4666 
L 4128 1753 
Q 4128 841 3676 375 
Q 3225 -91 2344 -91 
Q 1459 -91 1007 375 
Q 556 841 556 1753 
L 556 4666 
z
" id="DejaVuSans-55" transform="scale(0.015625)"/>
       <path d="M 947 1747 
Q 947 1113 1208 752 
Q 1469 391 1925 391 
Q 2381 391 2643 752 
Q 2906 1113 2906 1747 
Q 2906 2381 2643 2742 
Q 2381 3103 1925 3103 
Q 1469 3103 1208 2742 
Q 947 2381 947 1747 
z
M 2906 525 
Q 2725 213 2448 61 
Q 2172 -91 1784 -91 
Q 1150 -91 751 415 
Q 353 922 353 1747 
Q 353 2572 751 3078 
Q 1150 3584 1784 3584 
Q 2172 3584 2448 3432 
Q 2725 3281 2906 2969 
L 2906 3500 
L 3481 3500 
L 3481 -1331 
L 2906 -1331 
L 2906 525 
z
" id="DejaVuSans-71" transform="scale(0.015625)"/>
      </defs>
      <use xlink:href="#DejaVuSans-55"/>
      <use x="73.193359" xlink:href="#DejaVuSans-6e"/>
      <use x="136.572266" xlink:href="#DejaVuSans-69"/>
      <use x="164.355469" xlink:href="#DejaVuSans-71"/>
      <use x="227.832031" xlink:href="#DejaVuSans-75"/>
      <use x="291.210938" xlink:href="#DejaVuSans-65"/>
      <use x="352.734375" xlink:href="#DejaVuSans-20"/>
      <use x="384.521484" xlink:href="#DejaVuSans-47"/>
      <use x="462.011719" xlink:href="#DejaVuSans-69"/>
      <use x="489.794922" xlink:href="#DejaVuSans-74"/>
      <use x="529.003906" xlink:href="#DejaVuSans-48"/>
      <use x="604.199219" xlink:href="#DejaVuSans-75"/>
      <use x="667.578125" xlink:href="#DejaVuSans-62"/>
      <use x="731.054688" xlink:href="#DejaVuSans-20"/>
      <use x="762.841797" xlink:href="#DejaVuSans-43"/>
      <use x="832.666016" xlink:href="#DejaVuSans-6c"/>
      <use x="860.449219" xlink:href="#DejaVuSans-6f"/>
      <use x="921.630859" xlink:href="#DejaVuSans-6e"/>
      <use x="985.009766" xlink:href="#DejaVuSans-65"/>
      <use x="1046.533203" xlink:href="#DejaVuSans-73"/>
     </g>
    </g>
   </g>
  </g>
  <g id="axes_2">
   <g id="patch_8">
    <path d="M 90 256.32 
L 648 256.32 
L 648 155.52 
L 90 155.52 
z
" style="fill:#ffffff;"/>
   </g>
   <g id="matplotlib.axis_3">
    <g id="xtick_6">
     <g id="line2d_16">
      <g>
       <use style="stroke:#000000;stroke-width:0.8;" x="115.363636" xlink:href="#m75ba261033" y="256.32"/>
      </g>
     </g>
     <g id="text_13">
      <!-- 2020-10-21 -->
      <g transform="translate(86.305824 270.918437)scale(0.1 -0.1)">
       <use xlink:href="#DejaVuSans-32"/>
       <use x="63.623047" xlink:href="#DejaVuSans-30"/>
       <use x="127.246094" xlink:href="#DejaVuSans-32"/>
       <use x="190.869141" xlink:href="#DejaVuSans-30"/>
       <use x="254.492188" xlink:href="#DejaVuSans-2d"/>
       <use x="290.576172" xlink:href="#DejaVuSans-31"/>
       <use x="354.199219" xlink:href="#DejaVuSans-30"/>
       <use x="417.822266" xlink:href="#DejaVuSans-2d"/>
       <use x="453.90625" xlink:href="#DejaVuSans-32"/>
       <use x="517.529297" xlink:href="#DejaVuSans-31"/>
      </g>
     </g>
    </g>
    <g id="xtick_7">
     <g id="line2d_17">
      <g>
       <use style="stroke:#000000;stroke-width:0.8;" x="206.599738" xlink:href="#m75ba261033" y="256.32"/>
      </g>
     </g>
     <g id="text_14">
      <!-- 2020-12-11 -->
      <g transform="translate(177.541926 270.918437)scale(0.1 -0.1)">
       <use xlink:href="#DejaVuSans-32"/>
       <use x="63.623047" xlink:href="#DejaVuSans-30"/>
       <use x="127.246094" xlink:href="#DejaVuSans-32"/>
       <use x="190.869141" xlink:href="#DejaVuSans-30"/>
       <use x="254.492188" xlink:href="#DejaVuSans-2d"/>
       <use x="290.576172" xlink:href="#DejaVuSans-31"/>
       <use x="354.199219" xlink:href="#DejaVuSans-32"/>
       <use x="417.822266" xlink:href="#DejaVuSans-2d"/>
       <use x="453.90625" xlink:href="#DejaVuSans-31"/>
       <use x="517.529297" xlink:href="#DejaVuSans-31"/>
      </g>
     </g>
    </g>
    <g id="xtick_8">
     <g id="line2d_18">
      <g>
       <use style="stroke:#000000;stroke-width:0.8;" x="297.83584" xlink:href="#m75ba261033" y="256.32"/>
      </g>
     </g>
     <g id="text_15">
      <!-- 2021-01-31 -->
      <g transform="translate(268.778028 270.918437)scale(0.1 -0.1)">
       <use xlink:href="#DejaVuSans-32"/>
       <use x="63.623047" xlink:href="#DejaVuSans-30"/>
       <use x="127.246094" xlink:href="#DejaVuSans-32"/>
       <use x="190.869141" xlink:href="#DejaVuSans-31"/>
       <use x="254.492188" xlink:href="#DejaVuSans-2d"/>
       <use x="290.576172" xlink:href="#DejaVuSans-30"/>
       <use x="354.199219" xlink:href="#DejaVuSans-31"/>
       <use x="417.822266" xlink:href="#DejaVuSans-2d"/>
       <use x="453.90625" xlink:href="#DejaVuSans-33"/>
       <use x="517.529297" xlink:href="#DejaVuSans-31"/>
      </g>
     </g>
    </g>
    <g id="xtick_9">
     <g id="line2d_19">
      <g>
       <use style="stroke:#000000;stroke-width:0.8;" x="389.071942" xlink:href="#m75ba261033" y="256.32"/>
      </g>
     </g>
     <g id="text_16">
      <!-- 2021-03-22 -->
      <g transform="translate(360.01413 270.918437)scale(0.1 -0.1)">
       <use xlink:href="#DejaVuSans-32"/>
       <use x="63.623047" xlink:href="#DejaVuSans-30"/>
       <use x="127.246094" xlink:href="#DejaVuSans-32"/>
       <use x="190.869141" xlink:href="#DejaVuSans-31"/>
       <use x="254.492188" xlink:href="#DejaVuSans-2d"/>
       <use x="290.576172" xlink:href="#DejaVuSans-30"/>
       <use x="354.199219" xlink:href="#DejaVuSans-33"/>
       <use x="417.822266" xlink:href="#DejaVuSans-2d"/>
       <use x="453.90625" xlink:href="#DejaVuSans-32"/>
       <use x="517.529297" xlink:href="#DejaVuSans-32"/>
      </g>
     </g>
    </g>
    <g id="xtick_10">
     <g id="line2d_20">
      <g>
       <use style="stroke:#000000;stroke-width:0.8;" x="480.308044" xlink:href="#m75ba261033" y="256.32"/>
      </g>
     </g>
     <g id="text_17">
      <!-- 2021-05-08 -->
      <g transform="translate(451.250232 270.918437)scale(0.1 -0.1)">
       <defs>
        <path d="M 2034 2216 
Q 1584 2216 1326 1975 
Q 1069 1734 1069 1313 
Q 1069 891 1326 650 
Q 1584 409 2034 409 
Q 2484 409 2743 651 
Q 3003 894 3003 1313 
Q 3003 1734 2745 1975 
Q 2488 2216 2034 2216 
z
M 1403 2484 
Q 997 2584 770 2862 
Q 544 3141 544 3541 
Q 544 4100 942 4425 
Q 1341 4750 2034 4750 
Q 2731 4750 3128 4425 
Q 3525 4100 3525 3541 
Q 3525 3141 3298 2862 
Q 3072 2584 2669 2484 
Q 3125 2378 3379 2068 
Q 3634 1759 3634 1313 
Q 3634 634 3220 271 
Q 2806 -91 2034 -91 
Q 1263 -91 848 271 
Q 434 634 434 1313 
Q 434 1759 690 2068 
Q 947 2378 1403 2484 
z
M 1172 3481 
Q 1172 3119 1398 2916 
Q 1625 2713 2034 2713 
Q 2441 2713 2670 2916 
Q 2900 3119 2900 3481 
Q 2900 3844 2670 4047 
Q 2441 4250 2034 4250 
Q 1625 4250 1398 4047 
Q 1172 3844 1172 3481 
z
" id="DejaVuSans-38" transform="scale(0.015625)"/>
       </defs>
       <use xlink:href="#DejaVuSans-32"/>
       <use x="63.623047" xlink:href="#DejaVuSans-30"/>
       <use x="127.246094" xlink:href="#DejaVuSans-32"/>
       <use x="190.869141" xlink:href="#DejaVuSans-31"/>
       <use x="254.492188" xlink:href="#DejaVuSans-2d"/>
       <use x="290.576172" xlink:href="#DejaVuSans-30"/>
       <use x="354.199219" xlink:href="#DejaVuSans-35"/>
       <use x="417.822266" xlink:href="#DejaVuSans-2d"/>
       <use x="453.90625" xlink:href="#DejaVuSans-30"/>
       <use x="517.529297" xlink:href="#DejaVuSans-38"/>
      </g>
     </g>
    </g>
    <g id="xtick_11">
     <g id="line2d_21">
      <g>
       <use style="stroke:#000000;stroke-width:0.8;" x="571.544147" xlink:href="#m75ba261033" y="256.32"/>
      </g>
     </g>
     <g id="text_18">
      <!-- 2021-06-27 -->
      <g transform="translate(542.486334 270.918437)scale(0.1 -0.1)">
       <use xlink:href="#DejaVuSans-32"/>
       <use x="63.623047" xlink:href="#DejaVuSans-30"/>
       <use x="127.246094" xlink:href="#DejaVuSans-32"/>
       <use x="190.869141" xlink:href="#DejaVuSans-31"/>
       <use x="254.492188" xlink:href="#DejaVuSans-2d"/>
       <use x="290.576172" xlink:href="#DejaVuSans-30"/>
       <use x="354.199219" xlink:href="#DejaVuSans-36"/>
       <use x="417.822266" xlink:href="#DejaVuSans-2d"/>
       <use x="453.90625" xlink:href="#DejaVuSans-32"/>
       <use x="517.529297" xlink:href="#DejaVuSans-37"/>
      </g>
     </g>
    </g>
    <g id="text_19">
     <!-- _date -->
     <g transform="translate(355.225 284.596563)scale(0.1 -0.1)">
      <use xlink:href="#DejaVuSans-5f"/>
      <use x="50" xlink:href="#DejaVuSans-64"/>
      <use x="113.476562" xlink:href="#DejaVuSans-61"/>
      <use x="174.755859" xlink:href="#DejaVuSans-74"/>
      <use x="213.964844" xlink:href="#DejaVuSans-65"/>
     </g>
    </g>
   </g>
   <g id="matplotlib.axis_4">
    <g id="ytick_5">
     <g id="line2d_22">
      <g>
       <use style="stroke:#000000;stroke-width:0.8;" x="90" xlink:href="#m2a391f3b35" y="252.029091"/>
      </g>
     </g>
     <g id="text_20">
      <!-- 0 -->
      <g transform="translate(76.6375 255.82831)scale(0.1 -0.1)">
       <use xlink:href="#DejaVuSans-30"/>
      </g>
     </g>
    </g>
    <g id="ytick_6">
     <g id="line2d_23">
      <g>
       <use style="stroke:#000000;stroke-width:0.8;" x="90" xlink:href="#m2a391f3b35" y="222.938182"/>
      </g>
     </g>
     <g id="text_21">
      <!-- 100 -->
      <g transform="translate(63.9125 226.737401)scale(0.1 -0.1)">
       <use xlink:href="#DejaVuSans-31"/>
       <use x="63.623047" xlink:href="#DejaVuSans-30"/>
       <use x="127.246094" xlink:href="#DejaVuSans-30"/>
      </g>
     </g>
    </g>
    <g id="ytick_7">
     <g id="line2d_24">
      <g>
       <use style="stroke:#000000;stroke-width:0.8;" x="90" xlink:href="#m2a391f3b35" y="193.847273"/>
      </g>
     </g>
     <g id="text_22">
      <!-- 200 -->
      <g transform="translate(63.9125 197.646491)scale(0.1 -0.1)">
       <use xlink:href="#DejaVuSans-32"/>
       <use x="63.623047" xlink:href="#DejaVuSans-30"/>
       <use x="127.246094" xlink:href="#DejaVuSans-30"/>
      </g>
     </g>
    </g>
    <g id="ytick_8">
     <g id="line2d_25">
      <g>
       <use style="stroke:#000000;stroke-width:0.8;" x="90" xlink:href="#m2a391f3b35" y="164.756364"/>
      </g>
     </g>
     <g id="text_23">
      <!-- 300 -->
      <g transform="translate(63.9125 168.555582)scale(0.1 -0.1)">
       <use xlink:href="#DejaVuSans-33"/>
       <use x="63.623047" xlink:href="#DejaVuSans-30"/>
       <use x="127.246094" xlink:href="#DejaVuSans-30"/>
      </g>
     </g>
    </g>
   </g>
   <g id="line2d_26">
    <path clip-path="url(#p073329545b)" d="M 115.363636 251.738182 
L 117.188358 230.210909 
L 119.01308 227.592727 
L 120.837802 244.174545 
L 122.662525 251.447273 
L 124.487247 238.356364 
L 126.311969 238.065455 
L 128.136691 233.992727 
L 129.961413 238.065455 
L 131.786135 238.938182 
L 133.610857 250.574545 
L 135.435579 248.247273 
L 137.260301 247.374545 
L 139.085023 238.938182 
L 140.909745 210.429091 
L 142.734467 225.265455 
L 144.559189 243.592727 
L 146.383911 247.083636 
L 148.208633 251.156364 
L 150.033355 238.065455 
L 151.858077 223.52 
L 153.682799 245.629091 
L 155.507521 243.010909 
L 157.332243 236.32 
L 159.156965 236.32 
L 160.981687 249.701818 
L 162.806409 236.610909 
L 164.631131 232.829091 
L 166.455853 243.301818 
L 168.280576 243.301818 
L 170.105298 238.356364 
L 171.93002 246.792727 
L 173.754742 249.12 
L 175.579464 225.556364 
L 177.404186 248.829091 
L 179.228908 247.956364 
L 181.05363 249.701818 
L 182.878352 247.665455 
L 184.703074 251.447273 
L 186.527796 251.447273 
L 188.352518 227.301818 
L 190.17724 214.210909 
L 192.001962 243.592727 
L 193.826684 245.047273 
L 195.651406 225.847273 
L 197.476128 250.865455 
L 199.30085 244.756364 
L 201.125572 241.265455 
L 202.950294 245.92 
L 204.775016 235.738182 
L 206.599738 246.792727 
L 208.42446 250.865455 
L 210.249182 251.738182 
L 212.073905 243.592727 
L 213.898627 241.847273 
L 215.723349 242.138182 
L 217.548071 240.683636 
L 219.372793 248.829091 
L 221.197515 250.865455 
L 223.022237 250.574545 
L 224.846959 247.083636 
L 226.671681 247.665455 
L 228.496403 242.429091 
L 230.321125 249.992727 
L 232.145847 251.156364 
L 233.970569 251.447273 
L 235.795291 248.247273 
L 237.620013 249.410909 
L 239.444735 250.283636 
L 241.269457 251.738182 
L 243.094179 247.083636 
L 244.918901 247.374545 
L 246.743623 250.865455 
L 248.568345 246.210909 
L 250.393067 242.429091 
L 252.217789 239.810909 
L 254.042511 247.665455 
L 255.867233 248.829091 
L 257.691956 231.956364 
L 259.516678 250.283636 
L 261.3414 233.701818 
L 263.166122 235.447273 
L 264.990844 239.810909 
L 266.815566 233.12 
L 268.640288 246.792727 
L 270.46501 234.574545 
L 272.289732 251.156364 
L 274.114454 233.410909 
L 275.939176 234.865455 
L 277.763898 226.138182 
L 279.58862 232.247273 
L 281.413342 239.810909 
L 283.238064 242.72 
L 285.062786 248.247273 
L 286.887508 228.465455 
L 288.71223 223.810909 
L 290.536952 236.029091 
L 292.361674 234.574545 
L 294.186396 231.956364 
L 296.011118 247.374545 
L 297.83584 248.538182 
L 299.660562 229.629091 
L 301.485284 246.792727 
L 305.134729 232.829091 
L 308.784173 250.865455 
L 310.608895 247.665455 
L 312.433617 235.156364 
L 314.258339 234.574545 
L 316.083061 224.683636 
L 317.907783 241.847273 
L 319.732505 250.283636 
L 321.557227 250.574545 
L 323.381949 249.12 
L 325.206671 242.429091 
L 327.031393 242.72 
L 328.856115 246.792727 
L 330.680837 230.501818 
L 332.505559 248.247273 
L 334.330281 241.847273 
L 336.155003 238.938182 
L 337.979725 240.683636 
L 339.804447 224.974545 
L 341.629169 235.447273 
L 343.453891 234.574545 
L 345.278613 239.810909 
L 347.103336 238.065455 
L 348.928058 239.229091 
L 350.75278 181.92 
L 352.577502 245.629091 
L 354.402224 230.501818 
L 356.226946 234.283636 
L 358.051668 226.429091 
L 359.87639 241.556364 
L 361.701112 198.792727 
L 363.525834 197.047273 
L 365.350556 203.156364 
L 367.175278 228.756364 
L 369 172.029091 
L 370.824722 222.938182 
L 372.649444 245.92 
L 374.474166 245.047273 
L 376.298888 237.192727 
L 378.12361 230.792727 
L 379.948332 227.301818 
L 381.773054 234.283636 
L 383.597776 223.229091 
L 385.422498 243.592727 
L 387.24722 245.629091 
L 389.071942 204.610909 
L 390.896664 204.32 
L 392.721387 232.247273 
L 394.546109 233.992727 
L 396.370831 246.210909 
L 398.195553 248.538182 
L 400.020275 247.956364 
L 401.844997 232.538182 
L 403.669719 182.501818 
L 405.494441 221.192727 
L 407.319163 229.338182 
L 409.143885 233.992727 
L 410.968607 213.338182 
L 412.793329 244.174545 
L 414.618051 248.247273 
L 416.442773 244.756364 
L 418.267495 221.192727 
L 420.092217 238.356364 
L 421.916939 222.647273 
L 423.741661 199.083636 
L 425.566383 233.410909 
L 427.391105 240.974545 
L 429.215827 245.92 
L 431.040549 174.356364 
L 432.865271 175.229091 
L 434.689993 227.010909 
L 436.514716 243.301818 
L 438.339438 234.865455 
L 440.16416 236.32 
L 441.988882 248.829091 
L 443.813604 246.792727 
L 445.638326 185.992727 
L 447.463048 179.010909 
L 449.28777 197.047273 
L 451.112492 242.72 
L 452.937214 249.12 
L 454.761936 236.32 
L 456.586658 247.374545 
L 458.41138 236.029091 
L 460.236102 223.810909 
L 462.060824 160.101818 
L 463.885546 221.483636 
L 465.710268 220.610909 
L 467.53499 225.556364 
L 469.359712 245.338182 
L 471.184434 246.210909 
L 473.009156 219.447273 
L 474.833878 235.738182 
L 476.6586 235.447273 
L 478.483322 225.847273 
L 480.308044 243.010909 
L 482.132767 249.12 
L 483.957489 196.756364 
L 485.782211 236.901818 
L 487.606933 211.883636 
L 489.431655 205.483636 
L 491.256377 212.465455 
L 493.081099 249.701818 
L 494.905821 249.701818 
L 496.730543 221.774545 
L 498.555265 232.538182 
L 500.379987 231.956364 
L 502.204709 238.647273 
L 504.029431 242.429091 
L 505.854153 248.247273 
L 507.678875 245.92 
L 509.503597 225.265455 
L 511.328319 243.883636 
L 513.153041 240.101818 
L 514.977763 231.665455 
L 516.802485 238.356364 
L 518.627207 249.701818 
L 520.451929 249.701818 
L 522.276651 242.72 
L 524.101373 239.810909 
L 525.926095 246.210909 
L 527.750818 240.974545 
L 529.57554 243.301818 
L 531.400262 249.12 
L 533.224984 247.374545 
L 535.049706 230.501818 
L 536.874428 236.029091 
L 538.69915 165.92 
L 540.523872 212.756364 
L 542.348594 243.883636 
L 544.173316 241.847273 
L 545.998038 249.992727 
L 547.82276 231.665455 
L 549.647482 233.701818 
L 551.472204 241.556364 
L 553.296926 240.683636 
L 555.121648 235.156364 
L 556.94637 249.701818 
L 558.771092 250.283636 
L 560.595814 191.52 
L 562.420536 238.938182 
L 564.245258 244.756364 
L 566.06998 247.083636 
L 567.894702 200.247273 
L 569.719424 247.083636 
L 571.544147 247.956364 
L 575.193591 241.556364 
L 577.018313 241.847273 
L 578.843035 223.229091 
L 580.667757 244.174545 
L 582.492479 249.701818 
L 584.317201 243.301818 
L 586.141923 245.047273 
L 587.966645 178.138182 
L 589.791367 195.883636 
L 591.616089 240.101818 
L 593.440811 242.138182 
L 595.265533 244.465455 
L 597.090255 243.883636 
L 598.914977 231.083636 
L 600.739699 241.847273 
L 602.564421 243.010909 
L 604.389143 221.483636 
L 606.213865 238.938182 
L 608.038587 250.283636 
L 609.863309 251.738182 
L 611.688031 244.465455 
L 613.512753 245.047273 
L 615.337475 246.501818 
L 617.162198 243.301818 
L 618.98692 245.92 
L 620.811642 249.410909 
L 622.636364 251.156364 
L 622.636364 251.156364 
" style="fill:none;stroke:#1f77b4;stroke-linecap:square;stroke-width:1.5;"/>
   </g>
   <g id="line2d_27">
    <path clip-path="url(#p073329545b)" d="M 115.363636 251.738182 
L 117.188358 249.410909 
L 119.01308 248.247273 
L 120.837802 249.410909 
L 122.662525 251.738182 
L 124.487247 249.992727 
L 126.311969 249.12 
L 128.136691 249.12 
L 129.961413 248.829091 
L 131.786135 249.410909 
L 133.610857 251.447273 
L 140.909745 249.12 
L 142.734467 248.829091 
L 144.559189 249.992727 
L 148.208633 251.738182 
L 150.033355 248.829091 
L 151.858077 249.410909 
L 153.682799 250.574545 
L 155.507521 250.865455 
L 157.332243 250.574545 
L 159.156965 251.447273 
L 160.981687 251.156364 
L 162.806409 249.992727 
L 164.631131 251.156364 
L 166.455853 248.829091 
L 168.280576 249.701818 
L 170.105298 250.283636 
L 171.93002 251.156364 
L 173.754742 251.156364 
L 175.579464 247.374545 
L 177.404186 251.447273 
L 179.228908 251.447273 
L 181.05363 251.156364 
L 184.703074 251.738182 
L 186.527796 251.447273 
L 188.352518 249.410909 
L 190.17724 246.792727 
L 192.001962 248.538182 
L 193.826684 249.992727 
L 195.651406 249.992727 
L 197.476128 251.447273 
L 199.30085 250.283636 
L 201.125572 249.992727 
L 202.950294 250.865455 
L 204.775016 247.665455 
L 206.599738 249.410909 
L 208.42446 251.447273 
L 210.249182 251.738182 
L 212.073905 249.12 
L 215.723349 249.12 
L 217.548071 249.992727 
L 219.372793 250.283636 
L 221.197515 251.156364 
L 223.022237 251.447273 
L 224.846959 250.865455 
L 226.671681 250.574545 
L 228.496403 251.156364 
L 232.145847 251.156364 
L 233.970569 251.447273 
L 235.795291 250.865455 
L 239.444735 250.865455 
L 241.269457 251.738182 
L 243.094179 251.156364 
L 244.918901 251.156364 
L 246.743623 250.865455 
L 248.568345 249.701818 
L 250.393067 247.956364 
L 252.217789 249.992727 
L 254.042511 251.156364 
L 255.867233 250.865455 
L 257.691956 250.865455 
L 259.516678 251.156364 
L 261.3414 249.410909 
L 263.166122 248.538182 
L 264.990844 249.701818 
L 266.815566 246.792727 
L 268.640288 249.701818 
L 270.46501 250.283636 
L 272.289732 251.156364 
L 274.114454 250.574545 
L 275.939176 250.574545 
L 277.763898 248.247273 
L 279.58862 249.410909 
L 281.413342 249.12 
L 283.238064 249.12 
L 285.062786 250.283636 
L 286.887508 245.92 
L 288.71223 247.665455 
L 290.536952 249.12 
L 292.361674 247.374545 
L 294.186396 246.210909 
L 296.011118 250.865455 
L 297.83584 250.574545 
L 299.660562 248.538182 
L 301.485284 249.992727 
L 303.310007 247.956364 
L 305.134729 249.410909 
L 306.959451 249.410909 
L 308.784173 250.865455 
L 310.608895 251.156364 
L 312.433617 248.829091 
L 314.258339 247.956364 
L 316.083061 248.247273 
L 317.907783 250.865455 
L 319.732505 251.447273 
L 323.381949 250.865455 
L 325.206671 250.865455 
L 327.031393 249.410909 
L 328.856115 250.283636 
L 330.680837 248.829091 
L 332.505559 250.865455 
L 334.330281 250.283636 
L 336.155003 250.865455 
L 337.979725 249.12 
L 339.804447 248.829091 
L 341.629169 248.829091 
L 343.453891 247.956364 
L 345.278613 250.283636 
L 347.103336 250.865455 
L 348.928058 250.865455 
L 350.75278 242.138182 
L 352.577502 248.829091 
L 354.402224 248.829091 
L 356.226946 247.374545 
L 358.051668 249.12 
L 359.87639 250.574545 
L 361.701112 250.574545 
L 363.525834 246.210909 
L 365.350556 246.501818 
L 367.175278 248.247273 
L 369 246.501818 
L 370.824722 247.374545 
L 372.649444 249.992727 
L 374.474166 250.865455 
L 376.298888 247.374545 
L 378.12361 245.92 
L 379.948332 247.083636 
L 381.773054 247.374545 
L 383.597776 249.410909 
L 385.422498 251.156364 
L 387.24722 249.992727 
L 389.071942 247.956364 
L 390.896664 247.665455 
L 392.721387 247.665455 
L 394.546109 248.538182 
L 396.370831 250.574545 
L 400.020275 251.156364 
L 401.844997 249.992727 
L 403.669719 246.210909 
L 405.494441 249.410909 
L 407.319163 247.083636 
L 409.143885 248.538182 
L 410.968607 246.792727 
L 412.793329 249.701818 
L 414.618051 251.156364 
L 418.267495 249.410909 
L 420.092217 248.247273 
L 421.916939 248.538182 
L 423.741661 247.374545 
L 425.566383 249.12 
L 427.391105 249.410909 
L 429.215827 250.865455 
L 431.040549 245.338182 
L 432.865271 245.629091 
L 434.689993 247.956364 
L 436.514716 248.829091 
L 438.339438 249.12 
L 440.16416 249.12 
L 441.988882 250.865455 
L 443.813604 250.283636 
L 445.638326 245.629091 
L 447.463048 244.174545 
L 449.28777 246.792727 
L 451.112492 248.829091 
L 452.937214 250.283636 
L 454.761936 249.12 
L 456.586658 250.283636 
L 458.41138 246.210909 
L 460.236102 246.501818 
L 462.060824 228.465455 
L 463.885546 247.956364 
L 465.710268 246.501818 
L 467.53499 250.574545 
L 469.359712 251.738182 
L 471.184434 249.701818 
L 473.009156 248.247273 
L 474.833878 248.247273 
L 476.6586 248.538182 
L 478.483322 247.665455 
L 482.132767 251.156364 
L 483.957489 249.12 
L 485.782211 248.247273 
L 487.606933 246.792727 
L 489.431655 247.083636 
L 491.256377 245.629091 
L 493.081099 250.574545 
L 494.905821 251.738182 
L 496.730543 245.629091 
L 498.555265 247.083636 
L 500.379987 249.410909 
L 502.204709 247.374545 
L 504.029431 248.247273 
L 505.854153 251.447273 
L 507.678875 250.283636 
L 509.503597 248.247273 
L 511.328319 249.410909 
L 513.153041 247.956364 
L 514.977763 246.210909 
L 518.627207 250.865455 
L 520.451929 251.156364 
L 522.276651 249.12 
L 524.101373 247.665455 
L 525.926095 249.992727 
L 527.750818 249.410909 
L 529.57554 249.410909 
L 533.224984 249.992727 
L 535.049706 246.792727 
L 536.874428 248.829091 
L 538.69915 248.829091 
L 540.523872 249.992727 
L 542.348594 249.12 
L 544.173316 251.156364 
L 545.998038 250.283636 
L 547.82276 248.247273 
L 549.647482 249.12 
L 551.472204 248.829091 
L 553.296926 248.247273 
L 555.121648 249.12 
L 556.94637 251.156364 
L 558.771092 250.865455 
L 560.595814 247.374545 
L 562.420536 250.574545 
L 564.245258 249.701818 
L 566.06998 249.12 
L 567.894702 245.629091 
L 569.719424 251.156364 
L 571.544147 250.574545 
L 573.368869 249.701818 
L 575.193591 250.283636 
L 577.018313 248.829091 
L 578.843035 247.956364 
L 580.667757 249.12 
L 582.492479 250.865455 
L 584.317201 250.865455 
L 586.141923 249.410909 
L 587.966645 247.083636 
L 589.791367 247.083636 
L 591.616089 250.283636 
L 593.440811 248.538182 
L 595.265533 250.574545 
L 597.090255 249.410909 
L 598.914977 247.665455 
L 600.739699 248.538182 
L 602.564421 248.538182 
L 604.389143 247.665455 
L 606.213865 247.956364 
L 608.038587 251.156364 
L 609.863309 251.738182 
L 611.688031 249.992727 
L 613.512753 249.992727 
L 615.337475 250.283636 
L 617.162198 250.283636 
L 618.98692 250.574545 
L 622.636364 251.738182 
L 622.636364 251.738182 
" style="fill:none;stroke:#ff7f0e;stroke-linecap:square;stroke-width:1.5;"/>
   </g>
   <g id="patch_9">
    <path d="M 90 256.32 
L 90 155.52 
" style="fill:none;stroke:#000000;stroke-linecap:square;stroke-linejoin:miter;stroke-width:0.8;"/>
   </g>
   <g id="patch_10">
    <path d="M 648 256.32 
L 648 155.52 
" style="fill:none;stroke:#000000;stroke-linecap:square;stroke-linejoin:miter;stroke-width:0.8;"/>
   </g>
   <g id="patch_11">
    <path d="M 90 256.32 
L 648 256.32 
" style="fill:none;stroke:#000000;stroke-linecap:square;stroke-linejoin:miter;stroke-width:0.8;"/>
   </g>
   <g id="patch_12">
    <path d="M 90 155.52 
L 648 155.52 
" style="fill:none;stroke:#000000;stroke-linecap:square;stroke-linejoin:miter;stroke-width:0.8;"/>
   </g>
   <g id="legend_2">
    <g id="patch_13">
     <path d="M 97 192.87625 
L 234.217188 192.87625 
Q 236.217188 192.87625 236.217188 190.87625 
L 236.217188 162.52 
Q 236.217188 160.52 234.217188 160.52 
L 97 160.52 
Q 95 160.52 95 162.52 
L 95 190.87625 
Q 95 192.87625 97 192.87625 
z
" style="fill:#ffffff;opacity:0.8;stroke:#cccccc;stroke-linejoin:miter;"/>
    </g>
    <g id="line2d_28">
     <path d="M 99 168.618437 
L 119 168.618437 
" style="fill:none;stroke:#1f77b4;stroke-linecap:square;stroke-width:1.5;"/>
    </g>
    <g id="line2d_29"/>
    <g id="text_24">
     <!-- Total GitHub Views -->
     <g transform="translate(127 172.118437)scale(0.1 -0.1)">
      <defs>
       <path d="M 1831 0 
L 50 4666 
L 709 4666 
L 2188 738 
L 3669 4666 
L 4325 4666 
L 2547 0 
L 1831 0 
z
" id="DejaVuSans-56" transform="scale(0.015625)"/>
       <path d="M 269 3500 
L 844 3500 
L 1563 769 
L 2278 3500 
L 2956 3500 
L 3675 769 
L 4391 3500 
L 4966 3500 
L 4050 0 
L 3372 0 
L 2619 2869 
L 1863 0 
L 1184 0 
L 269 3500 
z
" id="DejaVuSans-77" transform="scale(0.015625)"/>
      </defs>
      <use xlink:href="#DejaVuSans-54"/>
      <use x="44.083984" xlink:href="#DejaVuSans-6f"/>
      <use x="105.265625" xlink:href="#DejaVuSans-74"/>
      <use x="144.474609" xlink:href="#DejaVuSans-61"/>
      <use x="205.753906" xlink:href="#DejaVuSans-6c"/>
      <use x="233.537109" xlink:href="#DejaVuSans-20"/>
      <use x="265.324219" xlink:href="#DejaVuSans-47"/>
      <use x="342.814453" xlink:href="#DejaVuSans-69"/>
      <use x="370.597656" xlink:href="#DejaVuSans-74"/>
      <use x="409.806641" xlink:href="#DejaVuSans-48"/>
      <use x="485.001953" xlink:href="#DejaVuSans-75"/>
      <use x="548.380859" xlink:href="#DejaVuSans-62"/>
      <use x="611.857422" xlink:href="#DejaVuSans-20"/>
      <use x="643.644531" xlink:href="#DejaVuSans-56"/>
      <use x="709.802734" xlink:href="#DejaVuSans-69"/>
      <use x="737.585938" xlink:href="#DejaVuSans-65"/>
      <use x="799.109375" xlink:href="#DejaVuSans-77"/>
      <use x="880.896484" xlink:href="#DejaVuSans-73"/>
     </g>
    </g>
    <g id="line2d_30">
     <path d="M 99 183.296562 
L 119 183.296562 
" style="fill:none;stroke:#ff7f0e;stroke-linecap:square;stroke-width:1.5;"/>
    </g>
    <g id="line2d_31"/>
    <g id="text_25">
     <!-- Unique GitHub Views -->
     <g transform="translate(127 186.796562)scale(0.1 -0.1)">
      <use xlink:href="#DejaVuSans-55"/>
      <use x="73.193359" xlink:href="#DejaVuSans-6e"/>
      <use x="136.572266" xlink:href="#DejaVuSans-69"/>
      <use x="164.355469" xlink:href="#DejaVuSans-71"/>
      <use x="227.832031" xlink:href="#DejaVuSans-75"/>
      <use x="291.210938" xlink:href="#DejaVuSans-65"/>
      <use x="352.734375" xlink:href="#DejaVuSans-20"/>
      <use x="384.521484" xlink:href="#DejaVuSans-47"/>
      <use x="462.011719" xlink:href="#DejaVuSans-69"/>
      <use x="489.794922" xlink:href="#DejaVuSans-74"/>
      <use x="529.003906" xlink:href="#DejaVuSans-48"/>
      <use x="604.199219" xlink:href="#DejaVuSans-75"/>
      <use x="667.578125" xlink:href="#DejaVuSans-62"/>
      <use x="731.054688" xlink:href="#DejaVuSans-20"/>
      <use x="762.841797" xlink:href="#DejaVuSans-56"/>
      <use x="829" xlink:href="#DejaVuSans-69"/>
      <use x="856.783203" xlink:href="#DejaVuSans-65"/>
      <use x="918.306641" xlink:href="#DejaVuSans-77"/>
      <use x="1000.09375" xlink:href="#DejaVuSans-73"/>
     </g>
    </g>
   </g>
  </g>
 </g>
 <defs>
  <clipPath id="pc79e3ac8f0">
   <rect height="100.8" width="558" x="90" y="34.56"/>
  </clipPath>
  <clipPath id="p073329545b">
   <rect height="100.8" width="558" x="90" y="155.52"/>
  </clipPath>
 </defs>
</svg>
