<?xml version="1.0" encoding="utf-8" standalone="no"?>
<!DOCTYPE svg PUBLIC "-//W3C//DTD SVG 1.1//EN"
  "http://www.w3.org/Graphics/SVG/1.1/DTD/svg11.dtd">
<svg height="288pt" version="1.1" viewBox="0 0 720 288" width="720pt" xmlns="http://www.w3.org/2000/svg" xmlns:xlink="http://www.w3.org/1999/xlink">
 <metadata>
  <rdf:RDF xmlns:cc="http://creativecommons.org/ns#" xmlns:dc="http://purl.org/dc/elements/1.1/" xmlns:rdf="http://www.w3.org/1999/02/22-rdf-syntax-ns#">
   <cc:Work>
    <dc:type rdf:resource="http://purl.org/dc/dcmitype/StillImage"/>
    <dc:date>2021-05-03T00:15:50.332123</dc:date>
    <dc:format>image/svg+xml</dc:format>
    <dc:creator>
     <cc:Agent>
      <dc:title>Matplotlib v3.4.1, https://matplotlib.org/</dc:title>
     </cc:Agent>
    </dc:creator>
   </cc:Work>
  </rdf:RDF>
 </metadata>
 <defs>
  <style type="text/css">*{stroke-linecap:butt;stroke-linejoin:round;}</style>
 </defs>
 <g id="figure_1">
  <g id="patch_1">
   <path d="M 0 288 
L 720 288 
L 720 0 
L 0 0 
z
" style="fill:#ffffff;"/>
  </g>
  <g id="axes_1">
   <g id="patch_2">
    <path d="M 90 135.36 
L 648 135.36 
L 648 34.56 
L 90 34.56 
z
" style="fill:#ffffff;"/>
   </g>
   <g id="matplotlib.axis_1">
    <g id="xtick_1">
     <g id="line2d_1">
      <defs>
       <path d="M 0 0 
L 0 3.5 
" id="maa7127f6c5" style="stroke:#000000;stroke-width:0.8;"/>
      </defs>
      <g>
       <use style="stroke:#000000;stroke-width:0.8;" x="115.363636" xlink:href="#maa7127f6c5" y="135.36"/>
      </g>
     </g>
     <g id="text_1">
      <!-- 2020-10-22 -->
      <g transform="translate(86.305824 149.958437)scale(0.1 -0.1)">
       <defs>
        <path d="M 1228 531 
L 3431 531 
L 3431 0 
L 469 0 
L 469 531 
Q 828 903 1448 1529 
Q 2069 2156 2228 2338 
Q 2531 2678 2651 2914 
Q 2772 3150 2772 3378 
Q 2772 3750 2511 3984 
Q 2250 4219 1831 4219 
Q 1534 4219 1204 4116 
Q 875 4013 500 3803 
L 500 4441 
Q 881 4594 1212 4672 
Q 1544 4750 1819 4750 
Q 2544 4750 2975 4387 
Q 3406 4025 3406 3419 
Q 3406 3131 3298 2873 
Q 3191 2616 2906 2266 
Q 2828 2175 2409 1742 
Q 1991 1309 1228 531 
z
" id="DejaVuSans-32" transform="scale(0.015625)"/>
        <path d="M 2034 4250 
Q 1547 4250 1301 3770 
Q 1056 3291 1056 2328 
Q 1056 1369 1301 889 
Q 1547 409 2034 409 
Q 2525 409 2770 889 
Q 3016 1369 3016 2328 
Q 3016 3291 2770 3770 
Q 2525 4250 2034 4250 
z
M 2034 4750 
Q 2819 4750 3233 4129 
Q 3647 3509 3647 2328 
Q 3647 1150 3233 529 
Q 2819 -91 2034 -91 
Q 1250 -91 836 529 
Q 422 1150 422 2328 
Q 422 3509 836 4129 
Q 1250 4750 2034 4750 
z
" id="DejaVuSans-30" transform="scale(0.015625)"/>
        <path d="M 313 2009 
L 1997 2009 
L 1997 1497 
L 313 1497 
L 313 2009 
z
" id="DejaVuSans-2d" transform="scale(0.015625)"/>
        <path d="M 794 531 
L 1825 531 
L 1825 4091 
L 703 3866 
L 703 4441 
L 1819 4666 
L 2450 4666 
L 2450 531 
L 3481 531 
L 3481 0 
L 794 0 
L 794 531 
z
" id="DejaVuSans-31" transform="scale(0.015625)"/>
       </defs>
       <use xlink:href="#DejaVuSans-32"/>
       <use x="63.623047" xlink:href="#DejaVuSans-30"/>
       <use x="127.246094" xlink:href="#DejaVuSans-32"/>
       <use x="190.869141" xlink:href="#DejaVuSans-30"/>
       <use x="254.492188" xlink:href="#DejaVuSans-2d"/>
       <use x="290.576172" xlink:href="#DejaVuSans-31"/>
       <use x="354.199219" xlink:href="#DejaVuSans-30"/>
       <use x="417.822266" xlink:href="#DejaVuSans-2d"/>
       <use x="453.90625" xlink:href="#DejaVuSans-32"/>
       <use x="517.529297" xlink:href="#DejaVuSans-32"/>
      </g>
     </g>
    </g>
    <g id="xtick_2">
     <g id="line2d_2">
      <g>
       <use style="stroke:#000000;stroke-width:0.8;" x="183.914005" xlink:href="#maa7127f6c5" y="135.36"/>
      </g>
     </g>
     <g id="text_2">
      <!-- 2020-11-19 -->
      <g transform="translate(154.856192 149.958437)scale(0.1 -0.1)">
       <defs>
        <path d="M 703 97 
L 703 672 
Q 941 559 1184 500 
Q 1428 441 1663 441 
Q 2288 441 2617 861 
Q 2947 1281 2994 2138 
Q 2813 1869 2534 1725 
Q 2256 1581 1919 1581 
Q 1219 1581 811 2004 
Q 403 2428 403 3163 
Q 403 3881 828 4315 
Q 1253 4750 1959 4750 
Q 2769 4750 3195 4129 
Q 3622 3509 3622 2328 
Q 3622 1225 3098 567 
Q 2575 -91 1691 -91 
Q 1453 -91 1209 -44 
Q 966 3 703 97 
z
M 1959 2075 
Q 2384 2075 2632 2365 
Q 2881 2656 2881 3163 
Q 2881 3666 2632 3958 
Q 2384 4250 1959 4250 
Q 1534 4250 1286 3958 
Q 1038 3666 1038 3163 
Q 1038 2656 1286 2365 
Q 1534 2075 1959 2075 
z
" id="DejaVuSans-39" transform="scale(0.015625)"/>
       </defs>
       <use xlink:href="#DejaVuSans-32"/>
       <use x="63.623047" xlink:href="#DejaVuSans-30"/>
       <use x="127.246094" xlink:href="#DejaVuSans-32"/>
       <use x="190.869141" xlink:href="#DejaVuSans-30"/>
       <use x="254.492188" xlink:href="#DejaVuSans-2d"/>
       <use x="290.576172" xlink:href="#DejaVuSans-31"/>
       <use x="354.199219" xlink:href="#DejaVuSans-31"/>
       <use x="417.822266" xlink:href="#DejaVuSans-2d"/>
       <use x="453.90625" xlink:href="#DejaVuSans-31"/>
       <use x="517.529297" xlink:href="#DejaVuSans-39"/>
      </g>
     </g>
    </g>
    <g id="xtick_3">
     <g id="line2d_3">
      <g>
       <use style="stroke:#000000;stroke-width:0.8;" x="252.464373" xlink:href="#maa7127f6c5" y="135.36"/>
      </g>
     </g>
     <g id="text_3">
      <!-- 2020-12-15 -->
      <g transform="translate(223.406561 149.958437)scale(0.1 -0.1)">
       <defs>
        <path d="M 691 4666 
L 3169 4666 
L 3169 4134 
L 1269 4134 
L 1269 2991 
Q 1406 3038 1543 3061 
Q 1681 3084 1819 3084 
Q 2600 3084 3056 2656 
Q 3513 2228 3513 1497 
Q 3513 744 3044 326 
Q 2575 -91 1722 -91 
Q 1428 -91 1123 -41 
Q 819 9 494 109 
L 494 744 
Q 775 591 1075 516 
Q 1375 441 1709 441 
Q 2250 441 2565 725 
Q 2881 1009 2881 1497 
Q 2881 1984 2565 2268 
Q 2250 2553 1709 2553 
Q 1456 2553 1204 2497 
Q 953 2441 691 2322 
L 691 4666 
z
" id="DejaVuSans-35" transform="scale(0.015625)"/>
       </defs>
       <use xlink:href="#DejaVuSans-32"/>
       <use x="63.623047" xlink:href="#DejaVuSans-30"/>
       <use x="127.246094" xlink:href="#DejaVuSans-32"/>
       <use x="190.869141" xlink:href="#DejaVuSans-30"/>
       <use x="254.492188" xlink:href="#DejaVuSans-2d"/>
       <use x="290.576172" xlink:href="#DejaVuSans-31"/>
       <use x="354.199219" xlink:href="#DejaVuSans-32"/>
       <use x="417.822266" xlink:href="#DejaVuSans-2d"/>
       <use x="453.90625" xlink:href="#DejaVuSans-31"/>
       <use x="517.529297" xlink:href="#DejaVuSans-35"/>
      </g>
     </g>
    </g>
    <g id="xtick_4">
     <g id="line2d_4">
      <g>
       <use style="stroke:#000000;stroke-width:0.8;" x="321.014742" xlink:href="#maa7127f6c5" y="135.36"/>
      </g>
     </g>
     <g id="text_4">
      <!-- 2021-01-22 -->
      <g transform="translate(291.95693 149.958437)scale(0.1 -0.1)">
       <use xlink:href="#DejaVuSans-32"/>
       <use x="63.623047" xlink:href="#DejaVuSans-30"/>
       <use x="127.246094" xlink:href="#DejaVuSans-32"/>
       <use x="190.869141" xlink:href="#DejaVuSans-31"/>
       <use x="254.492188" xlink:href="#DejaVuSans-2d"/>
       <use x="290.576172" xlink:href="#DejaVuSans-30"/>
       <use x="354.199219" xlink:href="#DejaVuSans-31"/>
       <use x="417.822266" xlink:href="#DejaVuSans-2d"/>
       <use x="453.90625" xlink:href="#DejaVuSans-32"/>
       <use x="517.529297" xlink:href="#DejaVuSans-32"/>
      </g>
     </g>
    </g>
    <g id="xtick_5">
     <g id="line2d_5">
      <g>
       <use style="stroke:#000000;stroke-width:0.8;" x="389.565111" xlink:href="#maa7127f6c5" y="135.36"/>
      </g>
     </g>
     <g id="text_5">
      <!-- 2021-02-23 -->
      <g transform="translate(360.507298 149.958437)scale(0.1 -0.1)">
       <defs>
        <path d="M 2597 2516 
Q 3050 2419 3304 2112 
Q 3559 1806 3559 1356 
Q 3559 666 3084 287 
Q 2609 -91 1734 -91 
Q 1441 -91 1130 -33 
Q 819 25 488 141 
L 488 750 
Q 750 597 1062 519 
Q 1375 441 1716 441 
Q 2309 441 2620 675 
Q 2931 909 2931 1356 
Q 2931 1769 2642 2001 
Q 2353 2234 1838 2234 
L 1294 2234 
L 1294 2753 
L 1863 2753 
Q 2328 2753 2575 2939 
Q 2822 3125 2822 3475 
Q 2822 3834 2567 4026 
Q 2313 4219 1838 4219 
Q 1578 4219 1281 4162 
Q 984 4106 628 3988 
L 628 4550 
Q 988 4650 1302 4700 
Q 1616 4750 1894 4750 
Q 2613 4750 3031 4423 
Q 3450 4097 3450 3541 
Q 3450 3153 3228 2886 
Q 3006 2619 2597 2516 
z
" id="DejaVuSans-33" transform="scale(0.015625)"/>
       </defs>
       <use xlink:href="#DejaVuSans-32"/>
       <use x="63.623047" xlink:href="#DejaVuSans-30"/>
       <use x="127.246094" xlink:href="#DejaVuSans-32"/>
       <use x="190.869141" xlink:href="#DejaVuSans-31"/>
       <use x="254.492188" xlink:href="#DejaVuSans-2d"/>
       <use x="290.576172" xlink:href="#DejaVuSans-30"/>
       <use x="354.199219" xlink:href="#DejaVuSans-32"/>
       <use x="417.822266" xlink:href="#DejaVuSans-2d"/>
       <use x="453.90625" xlink:href="#DejaVuSans-32"/>
       <use x="517.529297" xlink:href="#DejaVuSans-33"/>
      </g>
     </g>
    </g>
    <g id="xtick_6">
     <g id="line2d_6">
      <g>
       <use style="stroke:#000000;stroke-width:0.8;" x="458.115479" xlink:href="#maa7127f6c5" y="135.36"/>
      </g>
     </g>
     <g id="text_6">
      <!-- 2021-03-17 -->
      <g transform="translate(429.057667 149.958437)scale(0.1 -0.1)">
       <defs>
        <path d="M 525 4666 
L 3525 4666 
L 3525 4397 
L 1831 0 
L 1172 0 
L 2766 4134 
L 525 4134 
L 525 4666 
z
" id="DejaVuSans-37" transform="scale(0.015625)"/>
       </defs>
       <use xlink:href="#DejaVuSans-32"/>
       <use x="63.623047" xlink:href="#DejaVuSans-30"/>
       <use x="127.246094" xlink:href="#DejaVuSans-32"/>
       <use x="190.869141" xlink:href="#DejaVuSans-31"/>
       <use x="254.492188" xlink:href="#DejaVuSans-2d"/>
       <use x="290.576172" xlink:href="#DejaVuSans-30"/>
       <use x="354.199219" xlink:href="#DejaVuSans-33"/>
       <use x="417.822266" xlink:href="#DejaVuSans-2d"/>
       <use x="453.90625" xlink:href="#DejaVuSans-31"/>
       <use x="517.529297" xlink:href="#DejaVuSans-37"/>
      </g>
     </g>
    </g>
    <g id="xtick_7">
     <g id="line2d_7">
      <g>
       <use style="stroke:#000000;stroke-width:0.8;" x="526.665848" xlink:href="#maa7127f6c5" y="135.36"/>
      </g>
     </g>
     <g id="text_7">
      <!-- 2021-04-05 -->
      <g transform="translate(497.608035 149.958437)scale(0.1 -0.1)">
       <defs>
        <path d="M 2419 4116 
L 825 1625 
L 2419 1625 
L 2419 4116 
z
M 2253 4666 
L 3047 4666 
L 3047 1625 
L 3713 1625 
L 3713 1100 
L 3047 1100 
L 3047 0 
L 2419 0 
L 2419 1100 
L 313 1100 
L 313 1709 
L 2253 4666 
z
" id="DejaVuSans-34" transform="scale(0.015625)"/>
       </defs>
       <use xlink:href="#DejaVuSans-32"/>
       <use x="63.623047" xlink:href="#DejaVuSans-30"/>
       <use x="127.246094" xlink:href="#DejaVuSans-32"/>
       <use x="190.869141" xlink:href="#DejaVuSans-31"/>
       <use x="254.492188" xlink:href="#DejaVuSans-2d"/>
       <use x="290.576172" xlink:href="#DejaVuSans-30"/>
       <use x="354.199219" xlink:href="#DejaVuSans-34"/>
       <use x="417.822266" xlink:href="#DejaVuSans-2d"/>
       <use x="453.90625" xlink:href="#DejaVuSans-30"/>
       <use x="517.529297" xlink:href="#DejaVuSans-35"/>
      </g>
     </g>
    </g>
    <g id="xtick_8">
     <g id="line2d_8">
      <g>
       <use style="stroke:#000000;stroke-width:0.8;" x="595.216216" xlink:href="#maa7127f6c5" y="135.36"/>
      </g>
     </g>
     <g id="text_8">
      <!-- 2021-04-24 -->
      <g transform="translate(566.158404 149.958437)scale(0.1 -0.1)">
       <use xlink:href="#DejaVuSans-32"/>
       <use x="63.623047" xlink:href="#DejaVuSans-30"/>
       <use x="127.246094" xlink:href="#DejaVuSans-32"/>
       <use x="190.869141" xlink:href="#DejaVuSans-31"/>
       <use x="254.492188" xlink:href="#DejaVuSans-2d"/>
       <use x="290.576172" xlink:href="#DejaVuSans-30"/>
       <use x="354.199219" xlink:href="#DejaVuSans-34"/>
       <use x="417.822266" xlink:href="#DejaVuSans-2d"/>
       <use x="453.90625" xlink:href="#DejaVuSans-32"/>
       <use x="517.529297" xlink:href="#DejaVuSans-34"/>
      </g>
     </g>
    </g>
    <g id="text_9">
     <!-- _date -->
     <g transform="translate(355.225 163.636562)scale(0.1 -0.1)">
      <defs>
       <path d="M 3263 -1063 
L 3263 -1509 
L -63 -1509 
L -63 -1063 
L 3263 -1063 
z
" id="DejaVuSans-5f" transform="scale(0.015625)"/>
       <path d="M 2906 2969 
L 2906 4863 
L 3481 4863 
L 3481 0 
L 2906 0 
L 2906 525 
Q 2725 213 2448 61 
Q 2172 -91 1784 -91 
Q 1150 -91 751 415 
Q 353 922 353 1747 
Q 353 2572 751 3078 
Q 1150 3584 1784 3584 
Q 2172 3584 2448 3432 
Q 2725 3281 2906 2969 
z
M 947 1747 
Q 947 1113 1208 752 
Q 1469 391 1925 391 
Q 2381 391 2643 752 
Q 2906 1113 2906 1747 
Q 2906 2381 2643 2742 
Q 2381 3103 1925 3103 
Q 1469 3103 1208 2742 
Q 947 2381 947 1747 
z
" id="DejaVuSans-64" transform="scale(0.015625)"/>
       <path d="M 2194 1759 
Q 1497 1759 1228 1600 
Q 959 1441 959 1056 
Q 959 750 1161 570 
Q 1363 391 1709 391 
Q 2188 391 2477 730 
Q 2766 1069 2766 1631 
L 2766 1759 
L 2194 1759 
z
M 3341 1997 
L 3341 0 
L 2766 0 
L 2766 531 
Q 2569 213 2275 61 
Q 1981 -91 1556 -91 
Q 1019 -91 701 211 
Q 384 513 384 1019 
Q 384 1609 779 1909 
Q 1175 2209 1959 2209 
L 2766 2209 
L 2766 2266 
Q 2766 2663 2505 2880 
Q 2244 3097 1772 3097 
Q 1472 3097 1187 3025 
Q 903 2953 641 2809 
L 641 3341 
Q 956 3463 1253 3523 
Q 1550 3584 1831 3584 
Q 2591 3584 2966 3190 
Q 3341 2797 3341 1997 
z
" id="DejaVuSans-61" transform="scale(0.015625)"/>
       <path d="M 1172 4494 
L 1172 3500 
L 2356 3500 
L 2356 3053 
L 1172 3053 
L 1172 1153 
Q 1172 725 1289 603 
Q 1406 481 1766 481 
L 2356 481 
L 2356 0 
L 1766 0 
Q 1100 0 847 248 
Q 594 497 594 1153 
L 594 3053 
L 172 3053 
L 172 3500 
L 594 3500 
L 594 4494 
L 1172 4494 
z
" id="DejaVuSans-74" transform="scale(0.015625)"/>
       <path d="M 3597 1894 
L 3597 1613 
L 953 1613 
Q 991 1019 1311 708 
Q 1631 397 2203 397 
Q 2534 397 2845 478 
Q 3156 559 3463 722 
L 3463 178 
Q 3153 47 2828 -22 
Q 2503 -91 2169 -91 
Q 1331 -91 842 396 
Q 353 884 353 1716 
Q 353 2575 817 3079 
Q 1281 3584 2069 3584 
Q 2775 3584 3186 3129 
Q 3597 2675 3597 1894 
z
M 3022 2063 
Q 3016 2534 2758 2815 
Q 2500 3097 2075 3097 
Q 1594 3097 1305 2825 
Q 1016 2553 972 2059 
L 3022 2063 
z
" id="DejaVuSans-65" transform="scale(0.015625)"/>
      </defs>
      <use xlink:href="#DejaVuSans-5f"/>
      <use x="50" xlink:href="#DejaVuSans-64"/>
      <use x="113.476562" xlink:href="#DejaVuSans-61"/>
      <use x="174.755859" xlink:href="#DejaVuSans-74"/>
      <use x="213.964844" xlink:href="#DejaVuSans-65"/>
     </g>
    </g>
   </g>
   <g id="matplotlib.axis_2">
    <g id="ytick_1">
     <g id="line2d_9">
      <defs>
       <path d="M 0 0 
L -3.5 0 
" id="m929ff84d5d" style="stroke:#000000;stroke-width:0.8;"/>
      </defs>
      <g>
       <use style="stroke:#000000;stroke-width:0.8;" x="90" xlink:href="#m929ff84d5d" y="132.087273"/>
      </g>
     </g>
     <g id="text_10">
      <!-- 0 -->
      <g transform="translate(76.6375 135.886491)scale(0.1 -0.1)">
       <use xlink:href="#DejaVuSans-30"/>
      </g>
     </g>
    </g>
    <g id="ytick_2">
     <g id="line2d_10">
      <g>
       <use style="stroke:#000000;stroke-width:0.8;" x="90" xlink:href="#m929ff84d5d" y="105.905455"/>
      </g>
     </g>
     <g id="text_11">
      <!-- 20 -->
      <g transform="translate(70.275 109.704673)scale(0.1 -0.1)">
       <use xlink:href="#DejaVuSans-32"/>
       <use x="63.623047" xlink:href="#DejaVuSans-30"/>
      </g>
     </g>
    </g>
    <g id="ytick_3">
     <g id="line2d_11">
      <g>
       <use style="stroke:#000000;stroke-width:0.8;" x="90" xlink:href="#m929ff84d5d" y="79.723636"/>
      </g>
     </g>
     <g id="text_12">
      <!-- 40 -->
      <g transform="translate(70.275 83.522855)scale(0.1 -0.1)">
       <use xlink:href="#DejaVuSans-34"/>
       <use x="63.623047" xlink:href="#DejaVuSans-30"/>
      </g>
     </g>
    </g>
    <g id="ytick_4">
     <g id="line2d_12">
      <g>
       <use style="stroke:#000000;stroke-width:0.8;" x="90" xlink:href="#m929ff84d5d" y="53.541818"/>
      </g>
     </g>
     <g id="text_13">
      <!-- 60 -->
      <g transform="translate(70.275 57.341037)scale(0.1 -0.1)">
       <defs>
        <path d="M 2113 2584 
Q 1688 2584 1439 2293 
Q 1191 2003 1191 1497 
Q 1191 994 1439 701 
Q 1688 409 2113 409 
Q 2538 409 2786 701 
Q 3034 994 3034 1497 
Q 3034 2003 2786 2293 
Q 2538 2584 2113 2584 
z
M 3366 4563 
L 3366 3988 
Q 3128 4100 2886 4159 
Q 2644 4219 2406 4219 
Q 1781 4219 1451 3797 
Q 1122 3375 1075 2522 
Q 1259 2794 1537 2939 
Q 1816 3084 2150 3084 
Q 2853 3084 3261 2657 
Q 3669 2231 3669 1497 
Q 3669 778 3244 343 
Q 2819 -91 2113 -91 
Q 1303 -91 875 529 
Q 447 1150 447 2328 
Q 447 3434 972 4092 
Q 1497 4750 2381 4750 
Q 2619 4750 2861 4703 
Q 3103 4656 3366 4563 
z
" id="DejaVuSans-36" transform="scale(0.015625)"/>
       </defs>
       <use xlink:href="#DejaVuSans-36"/>
       <use x="63.623047" xlink:href="#DejaVuSans-30"/>
      </g>
     </g>
    </g>
   </g>
   <g id="line2d_13">
    <path clip-path="url(#p4dccc40ec2)" d="M 115.363636 124.232727 
L 118.791155 125.541818 
L 122.218673 130.778182 
L 125.646192 130.778182 
L 129.07371 128.16 
L 132.501229 128.16 
L 135.928747 109.832727 
L 139.356265 109.832727 
L 142.783784 130.778182 
L 146.211302 130.778182 
L 149.638821 117.687273 
L 153.066339 121.614545 
L 156.493857 130.778182 
L 159.921376 124.232727 
L 163.348894 126.850909 
L 166.776413 126.850909 
L 170.203931 130.778182 
L 177.058968 125.541818 
L 180.486486 129.469091 
L 183.914005 130.778182 
L 187.341523 129.469091 
L 190.769042 129.469091 
L 194.19656 128.16 
L 197.624079 129.469091 
L 201.051597 129.469091 
L 204.479115 126.850909 
L 207.906634 129.469091 
L 211.334152 129.469091 
L 214.761671 113.76 
L 218.189189 124.232727 
L 221.616708 129.469091 
L 225.044226 99.36 
L 228.471744 130.778182 
L 255.891892 130.778182 
L 259.31941 129.469091 
L 262.746929 130.778182 
L 286.739558 130.778182 
L 290.167076 126.850909 
L 293.594595 128.16 
L 297.022113 130.778182 
L 300.449631 128.16 
L 303.87715 124.232727 
L 307.304668 129.469091 
L 310.732187 129.469091 
L 314.159705 126.850909 
L 317.587224 109.832727 
L 321.014742 129.469091 
L 324.44226 130.778182 
L 327.869779 129.469091 
L 331.297297 122.923636 
L 334.724816 129.469091 
L 338.152334 128.16 
L 341.579853 118.996364 
L 345.007371 126.850909 
L 348.434889 122.923636 
L 351.862408 129.469091 
L 355.289926 128.16 
L 358.717445 129.469091 
L 362.144963 128.16 
L 369 128.16 
L 372.427518 125.541818 
L 375.855037 130.778182 
L 379.282555 130.778182 
L 382.710074 125.541818 
L 386.137592 125.541818 
L 389.565111 118.996364 
L 392.992629 128.16 
L 396.420147 124.232727 
L 399.847666 130.778182 
L 403.275184 120.305455 
L 406.702703 126.850909 
L 410.130221 128.16 
L 413.55774 126.850909 
L 416.985258 121.614545 
L 420.412776 129.469091 
L 423.840295 125.541818 
L 427.267813 111.141818 
L 430.695332 121.614545 
L 434.12285 109.832727 
L 437.550369 39.141818 
L 440.977887 124.232727 
L 444.405405 130.778182 
L 447.832924 126.850909 
L 451.260442 115.069091 
L 454.687961 117.687273 
L 458.115479 124.232727 
L 461.542998 107.214545 
L 464.970516 126.850909 
L 468.398034 126.850909 
L 471.825553 129.469091 
L 475.253071 113.76 
L 478.68059 117.687273 
L 482.108108 130.778182 
L 485.535627 128.16 
L 488.963145 130.778182 
L 492.390663 125.541818 
L 495.818182 67.941818 
L 499.2457 108.523636 
L 502.673219 66.632727 
L 506.100737 104.596364 
L 509.528256 111.141818 
L 512.955774 124.232727 
L 516.383292 130.778182 
L 519.810811 121.614545 
L 523.238329 126.850909 
L 526.665848 112.450909 
L 530.093366 113.76 
L 533.520885 126.850909 
L 536.948403 115.069091 
L 540.375921 99.36 
L 543.80344 113.76 
L 547.230958 124.232727 
L 550.658477 98.050909 
L 554.085995 99.36 
L 557.513514 98.050909 
L 560.941032 100.669091 
L 564.36855 49.614545 
L 567.796069 86.269091 
L 571.223587 81.032727 
L 574.651106 82.341818 
L 578.078624 81.032727 
L 581.506143 107.214545 
L 584.933661 87.578182 
L 588.361179 105.905455 
L 591.788698 128.16 
L 595.216216 129.469091 
L 598.643735 100.669091 
L 602.071253 96.741818 
L 605.498771 99.36 
L 608.92629 90.196364 
L 612.353808 78.414545 
L 615.781327 125.541818 
L 619.208845 129.469091 
L 622.636364 100.669091 
L 622.636364 100.669091 
" style="fill:none;stroke:#1f77b4;stroke-linecap:square;stroke-width:1.5;"/>
   </g>
   <g id="line2d_14">
    <path clip-path="url(#p4dccc40ec2)" d="M 115.363636 124.232727 
L 118.791155 125.541818 
L 122.218673 130.778182 
L 125.646192 130.778182 
L 129.07371 128.16 
L 132.501229 128.16 
L 135.928747 129.469091 
L 139.356265 125.541818 
L 142.783784 130.778182 
L 146.211302 130.778182 
L 149.638821 117.687273 
L 153.066339 128.16 
L 156.493857 130.778182 
L 159.921376 126.850909 
L 163.348894 126.850909 
L 166.776413 128.16 
L 170.203931 130.778182 
L 173.63145 128.16 
L 177.058968 126.850909 
L 180.486486 129.469091 
L 183.914005 130.778182 
L 187.341523 129.469091 
L 190.769042 130.778182 
L 194.19656 128.16 
L 201.051597 130.778182 
L 204.479115 129.469091 
L 207.906634 130.778182 
L 211.334152 129.469091 
L 214.761671 120.305455 
L 218.189189 124.232727 
L 221.616708 129.469091 
L 225.044226 118.996364 
L 228.471744 130.778182 
L 255.891892 130.778182 
L 259.31941 129.469091 
L 262.746929 130.778182 
L 286.739558 130.778182 
L 290.167076 128.16 
L 293.594595 130.778182 
L 297.022113 130.778182 
L 303.87715 128.16 
L 307.304668 130.778182 
L 314.159705 130.778182 
L 317.587224 117.687273 
L 321.014742 130.778182 
L 324.44226 130.778182 
L 327.869779 129.469091 
L 331.297297 126.850909 
L 334.724816 129.469091 
L 338.152334 128.16 
L 341.579853 122.923636 
L 345.007371 128.16 
L 348.434889 130.778182 
L 351.862408 129.469091 
L 355.289926 130.778182 
L 358.717445 129.469091 
L 362.144963 130.778182 
L 365.572482 128.16 
L 372.427518 128.16 
L 375.855037 130.778182 
L 379.282555 130.778182 
L 389.565111 122.923636 
L 392.992629 128.16 
L 396.420147 125.541818 
L 399.847666 130.778182 
L 403.275184 122.923636 
L 406.702703 126.850909 
L 410.130221 128.16 
L 413.55774 126.850909 
L 416.985258 121.614545 
L 420.412776 129.469091 
L 423.840295 125.541818 
L 427.267813 117.687273 
L 430.695332 122.923636 
L 434.12285 115.069091 
L 437.550369 84.96 
L 440.977887 124.232727 
L 444.405405 130.778182 
L 447.832924 128.16 
L 451.260442 116.378182 
L 458.115479 124.232727 
L 461.542998 112.450909 
L 464.970516 126.850909 
L 468.398034 126.850909 
L 471.825553 129.469091 
L 475.253071 117.687273 
L 478.68059 117.687273 
L 482.108108 130.778182 
L 485.535627 128.16 
L 488.963145 130.778182 
L 492.390663 126.850909 
L 495.818182 100.669091 
L 499.2457 111.141818 
L 502.673219 100.669091 
L 506.100737 113.76 
L 509.528256 117.687273 
L 512.955774 125.541818 
L 516.383292 130.778182 
L 519.810811 124.232727 
L 523.238329 129.469091 
L 526.665848 116.378182 
L 530.093366 116.378182 
L 533.520885 128.16 
L 536.948403 116.378182 
L 540.375921 108.523636 
L 543.80344 115.069091 
L 547.230958 125.541818 
L 550.658477 109.832727 
L 554.085995 109.832727 
L 557.513514 118.996364 
L 560.941032 129.469091 
L 564.36855 111.141818 
L 567.796069 128.16 
L 571.223587 126.850909 
L 574.651106 120.305455 
L 578.078624 120.305455 
L 581.506143 111.141818 
L 584.933661 118.996364 
L 588.361179 130.778182 
L 591.788698 129.469091 
L 595.216216 129.469091 
L 598.643735 130.778182 
L 602.071253 126.850909 
L 605.498771 128.16 
L 612.353808 109.832727 
L 615.781327 125.541818 
L 619.208845 129.469091 
L 622.636364 130.778182 
L 622.636364 130.778182 
" style="fill:none;stroke:#ff7f0e;stroke-linecap:square;stroke-width:1.5;"/>
   </g>
   <g id="patch_3">
    <path d="M 90 135.36 
L 90 34.56 
" style="fill:none;stroke:#000000;stroke-linecap:square;stroke-linejoin:miter;stroke-width:0.8;"/>
   </g>
   <g id="patch_4">
    <path d="M 648 135.36 
L 648 34.56 
" style="fill:none;stroke:#000000;stroke-linecap:square;stroke-linejoin:miter;stroke-width:0.8;"/>
   </g>
   <g id="patch_5">
    <path d="M 90 135.36 
L 648 135.36 
" style="fill:none;stroke:#000000;stroke-linecap:square;stroke-linejoin:miter;stroke-width:0.8;"/>
   </g>
   <g id="patch_6">
    <path d="M 90 34.56 
L 648 34.56 
" style="fill:none;stroke:#000000;stroke-linecap:square;stroke-linejoin:miter;stroke-width:0.8;"/>
   </g>
   <g id="legend_1">
    <g id="patch_7">
     <path d="M 97 71.91625 
L 238.8625 71.91625 
Q 240.8625 71.91625 240.8625 69.91625 
L 240.8625 41.56 
Q 240.8625 39.56 238.8625 39.56 
L 97 39.56 
Q 95 39.56 95 41.56 
L 95 69.91625 
Q 95 71.91625 97 71.91625 
z
" style="fill:#ffffff;opacity:0.8;stroke:#cccccc;stroke-linejoin:miter;"/>
    </g>
    <g id="line2d_15">
     <path d="M 99 47.658437 
L 119 47.658437 
" style="fill:none;stroke:#1f77b4;stroke-linecap:square;stroke-width:1.5;"/>
    </g>
    <g id="line2d_16"/>
    <g id="text_14">
     <!-- Total GitHub Clones -->
     <g transform="translate(127 51.158437)scale(0.1 -0.1)">
      <defs>
       <path d="M -19 4666 
L 3928 4666 
L 3928 4134 
L 2272 4134 
L 2272 0 
L 1638 0 
L 1638 4134 
L -19 4134 
L -19 4666 
z
" id="DejaVuSans-54" transform="scale(0.015625)"/>
       <path d="M 1959 3097 
Q 1497 3097 1228 2736 
Q 959 2375 959 1747 
Q 959 1119 1226 758 
Q 1494 397 1959 397 
Q 2419 397 2687 759 
Q 2956 1122 2956 1747 
Q 2956 2369 2687 2733 
Q 2419 3097 1959 3097 
z
M 1959 3584 
Q 2709 3584 3137 3096 
Q 3566 2609 3566 1747 
Q 3566 888 3137 398 
Q 2709 -91 1959 -91 
Q 1206 -91 779 398 
Q 353 888 353 1747 
Q 353 2609 779 3096 
Q 1206 3584 1959 3584 
z
" id="DejaVuSans-6f" transform="scale(0.015625)"/>
       <path d="M 603 4863 
L 1178 4863 
L 1178 0 
L 603 0 
L 603 4863 
z
" id="DejaVuSans-6c" transform="scale(0.015625)"/>
       <path id="DejaVuSans-20" transform="scale(0.015625)"/>
       <path d="M 3809 666 
L 3809 1919 
L 2778 1919 
L 2778 2438 
L 4434 2438 
L 4434 434 
Q 4069 175 3628 42 
Q 3188 -91 2688 -91 
Q 1594 -91 976 548 
Q 359 1188 359 2328 
Q 359 3472 976 4111 
Q 1594 4750 2688 4750 
Q 3144 4750 3555 4637 
Q 3966 4525 4313 4306 
L 4313 3634 
Q 3963 3931 3569 4081 
Q 3175 4231 2741 4231 
Q 1884 4231 1454 3753 
Q 1025 3275 1025 2328 
Q 1025 1384 1454 906 
Q 1884 428 2741 428 
Q 3075 428 3337 486 
Q 3600 544 3809 666 
z
" id="DejaVuSans-47" transform="scale(0.015625)"/>
       <path d="M 603 3500 
L 1178 3500 
L 1178 0 
L 603 0 
L 603 3500 
z
M 603 4863 
L 1178 4863 
L 1178 4134 
L 603 4134 
L 603 4863 
z
" id="DejaVuSans-69" transform="scale(0.015625)"/>
       <path d="M 628 4666 
L 1259 4666 
L 1259 2753 
L 3553 2753 
L 3553 4666 
L 4184 4666 
L 4184 0 
L 3553 0 
L 3553 2222 
L 1259 2222 
L 1259 0 
L 628 0 
L 628 4666 
z
" id="DejaVuSans-48" transform="scale(0.015625)"/>
       <path d="M 544 1381 
L 544 3500 
L 1119 3500 
L 1119 1403 
Q 1119 906 1312 657 
Q 1506 409 1894 409 
Q 2359 409 2629 706 
Q 2900 1003 2900 1516 
L 2900 3500 
L 3475 3500 
L 3475 0 
L 2900 0 
L 2900 538 
Q 2691 219 2414 64 
Q 2138 -91 1772 -91 
Q 1169 -91 856 284 
Q 544 659 544 1381 
z
M 1991 3584 
L 1991 3584 
z
" id="DejaVuSans-75" transform="scale(0.015625)"/>
       <path d="M 3116 1747 
Q 3116 2381 2855 2742 
Q 2594 3103 2138 3103 
Q 1681 3103 1420 2742 
Q 1159 2381 1159 1747 
Q 1159 1113 1420 752 
Q 1681 391 2138 391 
Q 2594 391 2855 752 
Q 3116 1113 3116 1747 
z
M 1159 2969 
Q 1341 3281 1617 3432 
Q 1894 3584 2278 3584 
Q 2916 3584 3314 3078 
Q 3713 2572 3713 1747 
Q 3713 922 3314 415 
Q 2916 -91 2278 -91 
Q 1894 -91 1617 61 
Q 1341 213 1159 525 
L 1159 0 
L 581 0 
L 581 4863 
L 1159 4863 
L 1159 2969 
z
" id="DejaVuSans-62" transform="scale(0.015625)"/>
       <path d="M 4122 4306 
L 4122 3641 
Q 3803 3938 3442 4084 
Q 3081 4231 2675 4231 
Q 1875 4231 1450 3742 
Q 1025 3253 1025 2328 
Q 1025 1406 1450 917 
Q 1875 428 2675 428 
Q 3081 428 3442 575 
Q 3803 722 4122 1019 
L 4122 359 
Q 3791 134 3420 21 
Q 3050 -91 2638 -91 
Q 1578 -91 968 557 
Q 359 1206 359 2328 
Q 359 3453 968 4101 
Q 1578 4750 2638 4750 
Q 3056 4750 3426 4639 
Q 3797 4528 4122 4306 
z
" id="DejaVuSans-43" transform="scale(0.015625)"/>
       <path d="M 3513 2113 
L 3513 0 
L 2938 0 
L 2938 2094 
Q 2938 2591 2744 2837 
Q 2550 3084 2163 3084 
Q 1697 3084 1428 2787 
Q 1159 2491 1159 1978 
L 1159 0 
L 581 0 
L 581 3500 
L 1159 3500 
L 1159 2956 
Q 1366 3272 1645 3428 
Q 1925 3584 2291 3584 
Q 2894 3584 3203 3211 
Q 3513 2838 3513 2113 
z
" id="DejaVuSans-6e" transform="scale(0.015625)"/>
       <path d="M 2834 3397 
L 2834 2853 
Q 2591 2978 2328 3040 
Q 2066 3103 1784 3103 
Q 1356 3103 1142 2972 
Q 928 2841 928 2578 
Q 928 2378 1081 2264 
Q 1234 2150 1697 2047 
L 1894 2003 
Q 2506 1872 2764 1633 
Q 3022 1394 3022 966 
Q 3022 478 2636 193 
Q 2250 -91 1575 -91 
Q 1294 -91 989 -36 
Q 684 19 347 128 
L 347 722 
Q 666 556 975 473 
Q 1284 391 1588 391 
Q 1994 391 2212 530 
Q 2431 669 2431 922 
Q 2431 1156 2273 1281 
Q 2116 1406 1581 1522 
L 1381 1569 
Q 847 1681 609 1914 
Q 372 2147 372 2553 
Q 372 3047 722 3315 
Q 1072 3584 1716 3584 
Q 2034 3584 2315 3537 
Q 2597 3491 2834 3397 
z
" id="DejaVuSans-73" transform="scale(0.015625)"/>
      </defs>
      <use xlink:href="#DejaVuSans-54"/>
      <use x="44.083984" xlink:href="#DejaVuSans-6f"/>
      <use x="105.265625" xlink:href="#DejaVuSans-74"/>
      <use x="144.474609" xlink:href="#DejaVuSans-61"/>
      <use x="205.753906" xlink:href="#DejaVuSans-6c"/>
      <use x="233.537109" xlink:href="#DejaVuSans-20"/>
      <use x="265.324219" xlink:href="#DejaVuSans-47"/>
      <use x="342.814453" xlink:href="#DejaVuSans-69"/>
      <use x="370.597656" xlink:href="#DejaVuSans-74"/>
      <use x="409.806641" xlink:href="#DejaVuSans-48"/>
      <use x="485.001953" xlink:href="#DejaVuSans-75"/>
      <use x="548.380859" xlink:href="#DejaVuSans-62"/>
      <use x="611.857422" xlink:href="#DejaVuSans-20"/>
      <use x="643.644531" xlink:href="#DejaVuSans-43"/>
      <use x="713.46875" xlink:href="#DejaVuSans-6c"/>
      <use x="741.251953" xlink:href="#DejaVuSans-6f"/>
      <use x="802.433594" xlink:href="#DejaVuSans-6e"/>
      <use x="865.8125" xlink:href="#DejaVuSans-65"/>
      <use x="927.335938" xlink:href="#DejaVuSans-73"/>
     </g>
    </g>
    <g id="line2d_17">
     <path d="M 99 62.336562 
L 119 62.336562 
" style="fill:none;stroke:#ff7f0e;stroke-linecap:square;stroke-width:1.5;"/>
    </g>
    <g id="line2d_18"/>
    <g id="text_15">
     <!-- Unique GitHub Clones -->
     <g transform="translate(127 65.836562)scale(0.1 -0.1)">
      <defs>
       <path d="M 556 4666 
L 1191 4666 
L 1191 1831 
Q 1191 1081 1462 751 
Q 1734 422 2344 422 
Q 2950 422 3222 751 
Q 3494 1081 3494 1831 
L 3494 4666 
L 4128 4666 
L 4128 1753 
Q 4128 841 3676 375 
Q 3225 -91 2344 -91 
Q 1459 -91 1007 375 
Q 556 841 556 1753 
L 556 4666 
z
" id="DejaVuSans-55" transform="scale(0.015625)"/>
       <path d="M 947 1747 
Q 947 1113 1208 752 
Q 1469 391 1925 391 
Q 2381 391 2643 752 
Q 2906 1113 2906 1747 
Q 2906 2381 2643 2742 
Q 2381 3103 1925 3103 
Q 1469 3103 1208 2742 
Q 947 2381 947 1747 
z
M 2906 525 
Q 2725 213 2448 61 
Q 2172 -91 1784 -91 
Q 1150 -91 751 415 
Q 353 922 353 1747 
Q 353 2572 751 3078 
Q 1150 3584 1784 3584 
Q 2172 3584 2448 3432 
Q 2725 3281 2906 2969 
L 2906 3500 
L 3481 3500 
L 3481 -1331 
L 2906 -1331 
L 2906 525 
z
" id="DejaVuSans-71" transform="scale(0.015625)"/>
      </defs>
      <use xlink:href="#DejaVuSans-55"/>
      <use x="73.193359" xlink:href="#DejaVuSans-6e"/>
      <use x="136.572266" xlink:href="#DejaVuSans-69"/>
      <use x="164.355469" xlink:href="#DejaVuSans-71"/>
      <use x="227.832031" xlink:href="#DejaVuSans-75"/>
      <use x="291.210938" xlink:href="#DejaVuSans-65"/>
      <use x="352.734375" xlink:href="#DejaVuSans-20"/>
      <use x="384.521484" xlink:href="#DejaVuSans-47"/>
      <use x="462.011719" xlink:href="#DejaVuSans-69"/>
      <use x="489.794922" xlink:href="#DejaVuSans-74"/>
      <use x="529.003906" xlink:href="#DejaVuSans-48"/>
      <use x="604.199219" xlink:href="#DejaVuSans-75"/>
      <use x="667.578125" xlink:href="#DejaVuSans-62"/>
      <use x="731.054688" xlink:href="#DejaVuSans-20"/>
      <use x="762.841797" xlink:href="#DejaVuSans-43"/>
      <use x="832.666016" xlink:href="#DejaVuSans-6c"/>
      <use x="860.449219" xlink:href="#DejaVuSans-6f"/>
      <use x="921.630859" xlink:href="#DejaVuSans-6e"/>
      <use x="985.009766" xlink:href="#DejaVuSans-65"/>
      <use x="1046.533203" xlink:href="#DejaVuSans-73"/>
     </g>
    </g>
   </g>
  </g>
  <g id="axes_2">
   <g id="patch_8">
    <path d="M 90 256.32 
L 648 256.32 
L 648 155.52 
L 90 155.52 
z
" style="fill:#ffffff;"/>
   </g>
   <g id="matplotlib.axis_3">
    <g id="xtick_9">
     <g id="line2d_19">
      <g>
       <use style="stroke:#000000;stroke-width:0.8;" x="115.363636" xlink:href="#maa7127f6c5" y="256.32"/>
      </g>
     </g>
     <g id="text_16">
      <!-- 2020-10-21 -->
      <g transform="translate(86.305824 270.918437)scale(0.1 -0.1)">
       <use xlink:href="#DejaVuSans-32"/>
       <use x="63.623047" xlink:href="#DejaVuSans-30"/>
       <use x="127.246094" xlink:href="#DejaVuSans-32"/>
       <use x="190.869141" xlink:href="#DejaVuSans-30"/>
       <use x="254.492188" xlink:href="#DejaVuSans-2d"/>
       <use x="290.576172" xlink:href="#DejaVuSans-31"/>
       <use x="354.199219" xlink:href="#DejaVuSans-30"/>
       <use x="417.822266" xlink:href="#DejaVuSans-2d"/>
       <use x="453.90625" xlink:href="#DejaVuSans-32"/>
       <use x="517.529297" xlink:href="#DejaVuSans-31"/>
      </g>
     </g>
    </g>
    <g id="xtick_10">
     <g id="line2d_20">
      <g>
       <use style="stroke:#000000;stroke-width:0.8;" x="180.733833" xlink:href="#maa7127f6c5" y="256.32"/>
      </g>
     </g>
     <g id="text_17">
      <!-- 2020-11-15 -->
      <g transform="translate(151.676021 270.918437)scale(0.1 -0.1)">
       <use xlink:href="#DejaVuSans-32"/>
       <use x="63.623047" xlink:href="#DejaVuSans-30"/>
       <use x="127.246094" xlink:href="#DejaVuSans-32"/>
       <use x="190.869141" xlink:href="#DejaVuSans-30"/>
       <use x="254.492188" xlink:href="#DejaVuSans-2d"/>
       <use x="290.576172" xlink:href="#DejaVuSans-31"/>
       <use x="354.199219" xlink:href="#DejaVuSans-31"/>
       <use x="417.822266" xlink:href="#DejaVuSans-2d"/>
       <use x="453.90625" xlink:href="#DejaVuSans-31"/>
       <use x="517.529297" xlink:href="#DejaVuSans-35"/>
      </g>
     </g>
    </g>
    <g id="xtick_11">
     <g id="line2d_21">
      <g>
       <use style="stroke:#000000;stroke-width:0.8;" x="246.10403" xlink:href="#maa7127f6c5" y="256.32"/>
      </g>
     </g>
     <g id="text_18">
      <!-- 2020-12-11 -->
      <g transform="translate(217.046217 270.918437)scale(0.1 -0.1)">
       <use xlink:href="#DejaVuSans-32"/>
       <use x="63.623047" xlink:href="#DejaVuSans-30"/>
       <use x="127.246094" xlink:href="#DejaVuSans-32"/>
       <use x="190.869141" xlink:href="#DejaVuSans-30"/>
       <use x="254.492188" xlink:href="#DejaVuSans-2d"/>
       <use x="290.576172" xlink:href="#DejaVuSans-31"/>
       <use x="354.199219" xlink:href="#DejaVuSans-32"/>
       <use x="417.822266" xlink:href="#DejaVuSans-2d"/>
       <use x="453.90625" xlink:href="#DejaVuSans-31"/>
       <use x="517.529297" xlink:href="#DejaVuSans-31"/>
      </g>
     </g>
    </g>
    <g id="xtick_12">
     <g id="line2d_22">
      <g>
       <use style="stroke:#000000;stroke-width:0.8;" x="311.474227" xlink:href="#maa7127f6c5" y="256.32"/>
      </g>
     </g>
     <g id="text_19">
      <!-- 2021-01-06 -->
      <g transform="translate(282.416414 270.918437)scale(0.1 -0.1)">
       <use xlink:href="#DejaVuSans-32"/>
       <use x="63.623047" xlink:href="#DejaVuSans-30"/>
       <use x="127.246094" xlink:href="#DejaVuSans-32"/>
       <use x="190.869141" xlink:href="#DejaVuSans-31"/>
       <use x="254.492188" xlink:href="#DejaVuSans-2d"/>
       <use x="290.576172" xlink:href="#DejaVuSans-30"/>
       <use x="354.199219" xlink:href="#DejaVuSans-31"/>
       <use x="417.822266" xlink:href="#DejaVuSans-2d"/>
       <use x="453.90625" xlink:href="#DejaVuSans-30"/>
       <use x="517.529297" xlink:href="#DejaVuSans-36"/>
      </g>
     </g>
    </g>
    <g id="xtick_13">
     <g id="line2d_23">
      <g>
       <use style="stroke:#000000;stroke-width:0.8;" x="376.844424" xlink:href="#maa7127f6c5" y="256.32"/>
      </g>
     </g>
     <g id="text_20">
      <!-- 2021-01-31 -->
      <g transform="translate(347.786611 270.918437)scale(0.1 -0.1)">
       <use xlink:href="#DejaVuSans-32"/>
       <use x="63.623047" xlink:href="#DejaVuSans-30"/>
       <use x="127.246094" xlink:href="#DejaVuSans-32"/>
       <use x="190.869141" xlink:href="#DejaVuSans-31"/>
       <use x="254.492188" xlink:href="#DejaVuSans-2d"/>
       <use x="290.576172" xlink:href="#DejaVuSans-30"/>
       <use x="354.199219" xlink:href="#DejaVuSans-31"/>
       <use x="417.822266" xlink:href="#DejaVuSans-2d"/>
       <use x="453.90625" xlink:href="#DejaVuSans-33"/>
       <use x="517.529297" xlink:href="#DejaVuSans-31"/>
      </g>
     </g>
    </g>
    <g id="xtick_14">
     <g id="line2d_24">
      <g>
       <use style="stroke:#000000;stroke-width:0.8;" x="442.21462" xlink:href="#maa7127f6c5" y="256.32"/>
      </g>
     </g>
     <g id="text_21">
      <!-- 2021-02-25 -->
      <g transform="translate(413.156808 270.918437)scale(0.1 -0.1)">
       <use xlink:href="#DejaVuSans-32"/>
       <use x="63.623047" xlink:href="#DejaVuSans-30"/>
       <use x="127.246094" xlink:href="#DejaVuSans-32"/>
       <use x="190.869141" xlink:href="#DejaVuSans-31"/>
       <use x="254.492188" xlink:href="#DejaVuSans-2d"/>
       <use x="290.576172" xlink:href="#DejaVuSans-30"/>
       <use x="354.199219" xlink:href="#DejaVuSans-32"/>
       <use x="417.822266" xlink:href="#DejaVuSans-2d"/>
       <use x="453.90625" xlink:href="#DejaVuSans-32"/>
       <use x="517.529297" xlink:href="#DejaVuSans-35"/>
      </g>
     </g>
    </g>
    <g id="xtick_15">
     <g id="line2d_25">
      <g>
       <use style="stroke:#000000;stroke-width:0.8;" x="507.584817" xlink:href="#maa7127f6c5" y="256.32"/>
      </g>
     </g>
     <g id="text_22">
      <!-- 2021-03-22 -->
      <g transform="translate(478.527005 270.918437)scale(0.1 -0.1)">
       <use xlink:href="#DejaVuSans-32"/>
       <use x="63.623047" xlink:href="#DejaVuSans-30"/>
       <use x="127.246094" xlink:href="#DejaVuSans-32"/>
       <use x="190.869141" xlink:href="#DejaVuSans-31"/>
       <use x="254.492188" xlink:href="#DejaVuSans-2d"/>
       <use x="290.576172" xlink:href="#DejaVuSans-30"/>
       <use x="354.199219" xlink:href="#DejaVuSans-33"/>
       <use x="417.822266" xlink:href="#DejaVuSans-2d"/>
       <use x="453.90625" xlink:href="#DejaVuSans-32"/>
       <use x="517.529297" xlink:href="#DejaVuSans-32"/>
      </g>
     </g>
    </g>
    <g id="xtick_16">
     <g id="line2d_26">
      <g>
       <use style="stroke:#000000;stroke-width:0.8;" x="572.955014" xlink:href="#maa7127f6c5" y="256.32"/>
      </g>
     </g>
     <g id="text_23">
      <!-- 2021-04-13 -->
      <g transform="translate(543.897202 270.918437)scale(0.1 -0.1)">
       <use xlink:href="#DejaVuSans-32"/>
       <use x="63.623047" xlink:href="#DejaVuSans-30"/>
       <use x="127.246094" xlink:href="#DejaVuSans-32"/>
       <use x="190.869141" xlink:href="#DejaVuSans-31"/>
       <use x="254.492188" xlink:href="#DejaVuSans-2d"/>
       <use x="290.576172" xlink:href="#DejaVuSans-30"/>
       <use x="354.199219" xlink:href="#DejaVuSans-34"/>
       <use x="417.822266" xlink:href="#DejaVuSans-2d"/>
       <use x="453.90625" xlink:href="#DejaVuSans-31"/>
       <use x="517.529297" xlink:href="#DejaVuSans-33"/>
      </g>
     </g>
    </g>
    <g id="xtick_17">
     <g id="line2d_27">
      <g>
       <use style="stroke:#000000;stroke-width:0.8;" x="638.325211" xlink:href="#maa7127f6c5" y="256.32"/>
      </g>
     </g>
    </g>
    <g id="text_24">
     <!-- _date -->
     <g transform="translate(355.225 284.596563)scale(0.1 -0.1)">
      <use xlink:href="#DejaVuSans-5f"/>
      <use x="50" xlink:href="#DejaVuSans-64"/>
      <use x="113.476562" xlink:href="#DejaVuSans-61"/>
      <use x="174.755859" xlink:href="#DejaVuSans-74"/>
      <use x="213.964844" xlink:href="#DejaVuSans-65"/>
     </g>
    </g>
   </g>
   <g id="matplotlib.axis_4">
    <g id="ytick_5">
     <g id="line2d_28">
      <g>
       <use style="stroke:#000000;stroke-width:0.8;" x="90" xlink:href="#m929ff84d5d" y="252.029091"/>
      </g>
     </g>
     <g id="text_25">
      <!-- 0 -->
      <g transform="translate(76.6375 255.82831)scale(0.1 -0.1)">
       <use xlink:href="#DejaVuSans-30"/>
      </g>
     </g>
    </g>
    <g id="ytick_6">
     <g id="line2d_29">
      <g>
       <use style="stroke:#000000;stroke-width:0.8;" x="90" xlink:href="#m929ff84d5d" y="222.938182"/>
      </g>
     </g>
     <g id="text_26">
      <!-- 100 -->
      <g transform="translate(63.9125 226.737401)scale(0.1 -0.1)">
       <use xlink:href="#DejaVuSans-31"/>
       <use x="63.623047" xlink:href="#DejaVuSans-30"/>
       <use x="127.246094" xlink:href="#DejaVuSans-30"/>
      </g>
     </g>
    </g>
    <g id="ytick_7">
     <g id="line2d_30">
      <g>
       <use style="stroke:#000000;stroke-width:0.8;" x="90" xlink:href="#m929ff84d5d" y="193.847273"/>
      </g>
     </g>
     <g id="text_27">
      <!-- 200 -->
      <g transform="translate(63.9125 197.646491)scale(0.1 -0.1)">
       <use xlink:href="#DejaVuSans-32"/>
       <use x="63.623047" xlink:href="#DejaVuSans-30"/>
       <use x="127.246094" xlink:href="#DejaVuSans-30"/>
      </g>
     </g>
    </g>
    <g id="ytick_8">
     <g id="line2d_31">
      <g>
       <use style="stroke:#000000;stroke-width:0.8;" x="90" xlink:href="#m929ff84d5d" y="164.756364"/>
      </g>
     </g>
     <g id="text_28">
      <!-- 300 -->
      <g transform="translate(63.9125 168.555582)scale(0.1 -0.1)">
       <use xlink:href="#DejaVuSans-33"/>
       <use x="63.623047" xlink:href="#DejaVuSans-30"/>
       <use x="127.246094" xlink:href="#DejaVuSans-30"/>
      </g>
     </g>
    </g>
   </g>
   <g id="line2d_32">
    <path clip-path="url(#p1d02905384)" d="M 115.363636 251.738182 
L 117.978444 230.210909 
L 120.593252 227.592727 
L 123.20806 244.174545 
L 125.822868 251.447273 
L 128.437676 238.356364 
L 131.052484 238.065455 
L 133.667291 233.992727 
L 136.282099 238.065455 
L 138.896907 238.938182 
L 141.511715 250.574545 
L 144.126523 248.247273 
L 146.741331 247.374545 
L 149.356139 238.938182 
L 151.970947 210.429091 
L 154.585754 225.265455 
L 157.200562 243.592727 
L 159.81537 247.083636 
L 162.430178 251.156364 
L 165.044986 238.065455 
L 167.659794 223.52 
L 170.274602 245.629091 
L 172.88941 243.010909 
L 175.504217 236.32 
L 178.119025 236.32 
L 180.733833 249.701818 
L 183.348641 236.610909 
L 185.963449 232.829091 
L 188.578257 243.301818 
L 191.193065 243.301818 
L 193.807873 238.356364 
L 196.42268 246.792727 
L 199.037488 249.12 
L 201.652296 225.556364 
L 204.267104 248.829091 
L 206.881912 247.956364 
L 209.49672 249.701818 
L 212.111528 247.665455 
L 214.726336 251.447273 
L 217.341143 251.447273 
L 219.955951 227.301818 
L 222.570759 214.210909 
L 225.185567 243.592727 
L 227.800375 245.047273 
L 230.415183 225.847273 
L 233.029991 250.865455 
L 235.644799 244.756364 
L 238.259606 241.265455 
L 240.874414 245.92 
L 243.489222 235.738182 
L 246.10403 246.792727 
L 248.718838 250.865455 
L 251.333646 251.738182 
L 253.948454 243.592727 
L 256.563261 241.847273 
L 259.178069 242.138182 
L 261.792877 240.683636 
L 264.407685 248.829091 
L 267.022493 250.865455 
L 269.637301 250.574545 
L 272.252109 247.083636 
L 274.866917 247.665455 
L 277.481724 242.429091 
L 280.096532 249.992727 
L 282.71134 251.156364 
L 285.326148 251.447273 
L 287.940956 248.247273 
L 290.555764 249.410909 
L 293.170572 250.283636 
L 295.78538 251.738182 
L 298.400187 247.083636 
L 301.014995 247.374545 
L 303.629803 250.865455 
L 306.244611 246.210909 
L 308.859419 242.429091 
L 311.474227 239.810909 
L 314.089035 247.665455 
L 316.703843 248.829091 
L 319.31865 231.956364 
L 321.933458 250.283636 
L 324.548266 233.701818 
L 327.163074 235.447273 
L 329.777882 239.810909 
L 332.39269 233.12 
L 335.007498 246.792727 
L 337.622306 234.574545 
L 340.237113 251.156364 
L 342.851921 233.410909 
L 345.466729 234.865455 
L 348.081537 226.138182 
L 350.696345 232.247273 
L 353.311153 239.810909 
L 355.925961 242.72 
L 358.540769 248.247273 
L 361.155576 228.465455 
L 363.770384 223.810909 
L 366.385192 236.029091 
L 369 234.574545 
L 371.614808 231.956364 
L 374.229616 247.374545 
L 376.844424 248.538182 
L 379.459231 229.629091 
L 382.074039 246.792727 
L 387.303655 232.829091 
L 392.533271 250.865455 
L 395.148079 247.665455 
L 397.762887 235.156364 
L 400.377694 234.574545 
L 402.992502 224.683636 
L 405.60731 241.847273 
L 408.222118 250.283636 
L 410.836926 250.574545 
L 413.451734 249.12 
L 416.066542 242.429091 
L 418.68135 242.72 
L 421.296157 246.792727 
L 423.910965 230.501818 
L 426.525773 248.247273 
L 429.140581 241.847273 
L 431.755389 238.938182 
L 434.370197 240.683636 
L 436.985005 224.974545 
L 439.599813 235.447273 
L 442.21462 234.574545 
L 444.829428 239.810909 
L 447.444236 238.065455 
L 450.059044 239.229091 
L 452.673852 181.92 
L 455.28866 245.629091 
L 457.903468 230.501818 
L 460.518276 234.283636 
L 463.133083 226.429091 
L 465.747891 241.556364 
L 468.362699 198.792727 
L 470.977507 197.047273 
L 473.592315 203.156364 
L 476.207123 228.756364 
L 478.821931 172.029091 
L 481.436739 222.938182 
L 484.051546 245.92 
L 486.666354 245.047273 
L 489.281162 237.192727 
L 491.89597 230.792727 
L 494.510778 227.301818 
L 497.125586 234.283636 
L 499.740394 223.229091 
L 502.355201 243.592727 
L 504.970009 245.629091 
L 507.584817 204.610909 
L 510.199625 204.32 
L 512.814433 232.247273 
L 515.429241 233.992727 
L 518.044049 246.210909 
L 520.658857 248.538182 
L 523.273664 247.956364 
L 525.888472 232.538182 
L 528.50328 182.501818 
L 531.118088 221.192727 
L 533.732896 229.338182 
L 536.347704 233.992727 
L 538.962512 213.338182 
L 541.57732 244.174545 
L 544.192127 248.247273 
L 546.806935 244.756364 
L 549.421743 221.192727 
L 552.036551 238.356364 
L 554.651359 222.647273 
L 557.266167 199.083636 
L 559.880975 233.410909 
L 562.495783 240.974545 
L 565.11059 245.92 
L 567.725398 174.356364 
L 570.340206 175.229091 
L 572.955014 227.010909 
L 575.569822 243.301818 
L 578.18463 234.865455 
L 580.799438 236.32 
L 583.414246 248.829091 
L 586.029053 246.792727 
L 588.643861 185.992727 
L 591.258669 179.010909 
L 593.873477 197.047273 
L 596.488285 242.72 
L 599.103093 249.12 
L 601.717901 236.32 
L 604.332709 247.374545 
L 606.947516 236.029091 
L 609.562324 223.810909 
L 612.177132 160.101818 
L 614.79194 221.483636 
L 617.406748 220.610909 
L 620.021556 225.556364 
L 622.636364 245.338182 
L 622.636364 245.338182 
" style="fill:none;stroke:#1f77b4;stroke-linecap:square;stroke-width:1.5;"/>
   </g>
   <g id="line2d_33">
    <path clip-path="url(#p1d02905384)" d="M 115.363636 251.738182 
L 117.978444 249.410909 
L 120.593252 248.247273 
L 123.20806 249.410909 
L 125.822868 251.738182 
L 128.437676 249.992727 
L 131.052484 249.12 
L 133.667291 249.12 
L 136.282099 248.829091 
L 138.896907 249.410909 
L 141.511715 251.447273 
L 151.970947 249.12 
L 154.585754 248.829091 
L 157.200562 249.992727 
L 162.430178 251.738182 
L 165.044986 248.829091 
L 167.659794 249.410909 
L 170.274602 250.574545 
L 172.88941 250.865455 
L 175.504217 250.574545 
L 178.119025 251.447273 
L 180.733833 251.156364 
L 183.348641 249.992727 
L 185.963449 251.156364 
L 188.578257 248.829091 
L 191.193065 249.701818 
L 193.807873 250.283636 
L 196.42268 251.156364 
L 199.037488 251.156364 
L 201.652296 247.374545 
L 204.267104 251.447273 
L 206.881912 251.447273 
L 209.49672 251.156364 
L 214.726336 251.738182 
L 217.341143 251.447273 
L 219.955951 249.410909 
L 222.570759 246.792727 
L 225.185567 248.538182 
L 227.800375 249.992727 
L 230.415183 249.992727 
L 233.029991 251.447273 
L 235.644799 250.283636 
L 238.259606 249.992727 
L 240.874414 250.865455 
L 243.489222 247.665455 
L 246.10403 249.410909 
L 248.718838 251.447273 
L 251.333646 251.738182 
L 253.948454 249.12 
L 259.178069 249.12 
L 261.792877 249.992727 
L 264.407685 250.283636 
L 267.022493 251.156364 
L 269.637301 251.447273 
L 272.252109 250.865455 
L 274.866917 250.574545 
L 277.481724 251.156364 
L 282.71134 251.156364 
L 285.326148 251.447273 
L 287.940956 250.865455 
L 293.170572 250.865455 
L 295.78538 251.738182 
L 298.400187 251.156364 
L 301.014995 251.156364 
L 303.629803 250.865455 
L 306.244611 249.701818 
L 308.859419 247.956364 
L 311.474227 249.992727 
L 314.089035 251.156364 
L 316.703843 250.865455 
L 319.31865 250.865455 
L 321.933458 251.156364 
L 324.548266 249.410909 
L 327.163074 248.538182 
L 329.777882 249.701818 
L 332.39269 246.792727 
L 335.007498 249.701818 
L 337.622306 250.283636 
L 340.237113 251.156364 
L 342.851921 250.574545 
L 345.466729 250.574545 
L 348.081537 248.247273 
L 350.696345 249.410909 
L 353.311153 249.12 
L 355.925961 249.12 
L 358.540769 250.283636 
L 361.155576 245.92 
L 363.770384 247.665455 
L 366.385192 249.12 
L 369 247.374545 
L 371.614808 246.210909 
L 374.229616 250.865455 
L 376.844424 250.574545 
L 379.459231 248.538182 
L 382.074039 249.992727 
L 384.688847 247.956364 
L 387.303655 249.410909 
L 389.918463 249.410909 
L 392.533271 250.865455 
L 395.148079 251.156364 
L 397.762887 248.829091 
L 400.377694 247.956364 
L 402.992502 248.247273 
L 405.60731 250.865455 
L 408.222118 251.447273 
L 413.451734 250.865455 
L 416.066542 250.865455 
L 418.68135 249.410909 
L 421.296157 250.283636 
L 423.910965 248.829091 
L 426.525773 250.865455 
L 429.140581 250.283636 
L 431.755389 250.865455 
L 434.370197 249.12 
L 436.985005 248.829091 
L 439.599813 248.829091 
L 442.21462 247.956364 
L 444.829428 250.283636 
L 447.444236 250.865455 
L 450.059044 250.865455 
L 452.673852 242.138182 
L 455.28866 248.829091 
L 457.903468 248.829091 
L 460.518276 247.374545 
L 463.133083 249.12 
L 465.747891 250.574545 
L 468.362699 250.574545 
L 470.977507 246.210909 
L 473.592315 246.501818 
L 476.207123 248.247273 
L 478.821931 246.501818 
L 481.436739 247.374545 
L 484.051546 249.992727 
L 486.666354 250.865455 
L 489.281162 247.374545 
L 491.89597 245.92 
L 494.510778 247.083636 
L 497.125586 247.374545 
L 499.740394 249.410909 
L 502.355201 251.156364 
L 504.970009 249.992727 
L 507.584817 247.956364 
L 510.199625 247.665455 
L 512.814433 247.665455 
L 515.429241 248.538182 
L 518.044049 250.574545 
L 523.273664 251.156364 
L 525.888472 249.992727 
L 528.50328 246.210909 
L 531.118088 249.410909 
L 533.732896 247.083636 
L 536.347704 248.538182 
L 538.962512 246.792727 
L 541.57732 249.701818 
L 544.192127 251.156364 
L 549.421743 249.410909 
L 552.036551 248.247273 
L 554.651359 248.538182 
L 557.266167 247.374545 
L 559.880975 249.12 
L 562.495783 249.410909 
L 565.11059 250.865455 
L 567.725398 245.338182 
L 570.340206 245.629091 
L 572.955014 247.956364 
L 575.569822 248.829091 
L 578.18463 249.12 
L 580.799438 249.12 
L 583.414246 250.865455 
L 586.029053 250.283636 
L 588.643861 245.629091 
L 591.258669 244.174545 
L 593.873477 246.792727 
L 596.488285 248.829091 
L 599.103093 250.283636 
L 601.717901 249.12 
L 604.332709 250.283636 
L 606.947516 246.210909 
L 609.562324 246.501818 
L 612.177132 228.465455 
L 614.79194 247.956364 
L 617.406748 246.501818 
L 620.021556 250.574545 
L 622.636364 251.738182 
L 622.636364 251.738182 
" style="fill:none;stroke:#ff7f0e;stroke-linecap:square;stroke-width:1.5;"/>
   </g>
   <g id="patch_9">
    <path d="M 90 256.32 
L 90 155.52 
" style="fill:none;stroke:#000000;stroke-linecap:square;stroke-linejoin:miter;stroke-width:0.8;"/>
   </g>
   <g id="patch_10">
    <path d="M 648 256.32 
L 648 155.52 
" style="fill:none;stroke:#000000;stroke-linecap:square;stroke-linejoin:miter;stroke-width:0.8;"/>
   </g>
   <g id="patch_11">
    <path d="M 90 256.32 
L 648 256.32 
" style="fill:none;stroke:#000000;stroke-linecap:square;stroke-linejoin:miter;stroke-width:0.8;"/>
   </g>
   <g id="patch_12">
    <path d="M 90 155.52 
L 648 155.52 
" style="fill:none;stroke:#000000;stroke-linecap:square;stroke-linejoin:miter;stroke-width:0.8;"/>
   </g>
   <g id="legend_2">
    <g id="patch_13">
     <path d="M 97 192.87625 
L 234.217188 192.87625 
Q 236.217188 192.87625 236.217188 190.87625 
L 236.217188 162.52 
Q 236.217188 160.52 234.217188 160.52 
L 97 160.52 
Q 95 160.52 95 162.52 
L 95 190.87625 
Q 95 192.87625 97 192.87625 
z
" style="fill:#ffffff;opacity:0.8;stroke:#cccccc;stroke-linejoin:miter;"/>
    </g>
    <g id="line2d_34">
     <path d="M 99 168.618437 
L 119 168.618437 
" style="fill:none;stroke:#1f77b4;stroke-linecap:square;stroke-width:1.5;"/>
    </g>
    <g id="line2d_35"/>
    <g id="text_29">
     <!-- Total GitHub Views -->
     <g transform="translate(127 172.118437)scale(0.1 -0.1)">
      <defs>
       <path d="M 1831 0 
L 50 4666 
L 709 4666 
L 2188 738 
L 3669 4666 
L 4325 4666 
L 2547 0 
L 1831 0 
z
" id="DejaVuSans-56" transform="scale(0.015625)"/>
       <path d="M 269 3500 
L 844 3500 
L 1563 769 
L 2278 3500 
L 2956 3500 
L 3675 769 
L 4391 3500 
L 4966 3500 
L 4050 0 
L 3372 0 
L 2619 2869 
L 1863 0 
L 1184 0 
L 269 3500 
z
" id="DejaVuSans-77" transform="scale(0.015625)"/>
      </defs>
      <use xlink:href="#DejaVuSans-54"/>
      <use x="44.083984" xlink:href="#DejaVuSans-6f"/>
      <use x="105.265625" xlink:href="#DejaVuSans-74"/>
      <use x="144.474609" xlink:href="#DejaVuSans-61"/>
      <use x="205.753906" xlink:href="#DejaVuSans-6c"/>
      <use x="233.537109" xlink:href="#DejaVuSans-20"/>
      <use x="265.324219" xlink:href="#DejaVuSans-47"/>
      <use x="342.814453" xlink:href="#DejaVuSans-69"/>
      <use x="370.597656" xlink:href="#DejaVuSans-74"/>
      <use x="409.806641" xlink:href="#DejaVuSans-48"/>
      <use x="485.001953" xlink:href="#DejaVuSans-75"/>
      <use x="548.380859" xlink:href="#DejaVuSans-62"/>
      <use x="611.857422" xlink:href="#DejaVuSans-20"/>
      <use x="643.644531" xlink:href="#DejaVuSans-56"/>
      <use x="709.802734" xlink:href="#DejaVuSans-69"/>
      <use x="737.585938" xlink:href="#DejaVuSans-65"/>
      <use x="799.109375" xlink:href="#DejaVuSans-77"/>
      <use x="880.896484" xlink:href="#DejaVuSans-73"/>
     </g>
    </g>
    <g id="line2d_36">
     <path d="M 99 183.296562 
L 119 183.296562 
" style="fill:none;stroke:#ff7f0e;stroke-linecap:square;stroke-width:1.5;"/>
    </g>
    <g id="line2d_37"/>
    <g id="text_30">
     <!-- Unique GitHub Views -->
     <g transform="translate(127 186.796562)scale(0.1 -0.1)">
      <use xlink:href="#DejaVuSans-55"/>
      <use x="73.193359" xlink:href="#DejaVuSans-6e"/>
      <use x="136.572266" xlink:href="#DejaVuSans-69"/>
      <use x="164.355469" xlink:href="#DejaVuSans-71"/>
      <use x="227.832031" xlink:href="#DejaVuSans-75"/>
      <use x="291.210938" xlink:href="#DejaVuSans-65"/>
      <use x="352.734375" xlink:href="#DejaVuSans-20"/>
      <use x="384.521484" xlink:href="#DejaVuSans-47"/>
      <use x="462.011719" xlink:href="#DejaVuSans-69"/>
      <use x="489.794922" xlink:href="#DejaVuSans-74"/>
      <use x="529.003906" xlink:href="#DejaVuSans-48"/>
      <use x="604.199219" xlink:href="#DejaVuSans-75"/>
      <use x="667.578125" xlink:href="#DejaVuSans-62"/>
      <use x="731.054688" xlink:href="#DejaVuSans-20"/>
      <use x="762.841797" xlink:href="#DejaVuSans-56"/>
      <use x="829" xlink:href="#DejaVuSans-69"/>
      <use x="856.783203" xlink:href="#DejaVuSans-65"/>
      <use x="918.306641" xlink:href="#DejaVuSans-77"/>
      <use x="1000.09375" xlink:href="#DejaVuSans-73"/>
     </g>
    </g>
   </g>
  </g>
 </g>
 <defs>
  <clipPath id="p4dccc40ec2">
   <rect height="100.8" width="558" x="90" y="34.56"/>
  </clipPath>
  <clipPath id="p1d02905384">
   <rect height="100.8" width="558" x="90" y="155.52"/>
  </clipPath>
 </defs>
</svg>
