<?xml version="1.0" encoding="utf-8" standalone="no"?>
<!DOCTYPE svg PUBLIC "-//W3C//DTD SVG 1.1//EN"
  "http://www.w3.org/Graphics/SVG/1.1/DTD/svg11.dtd">
<svg xmlns:xlink="http://www.w3.org/1999/xlink" width="720pt" height="288pt" viewBox="0 0 720 288" xmlns="http://www.w3.org/2000/svg" version="1.1">
 <metadata>
  <rdf:RDF xmlns:dc="http://purl.org/dc/elements/1.1/" xmlns:cc="http://creativecommons.org/ns#" xmlns:rdf="http://www.w3.org/1999/02/22-rdf-syntax-ns#">
   <cc:Work>
    <dc:type rdf:resource="http://purl.org/dc/dcmitype/StillImage"/>
    <dc:date>2022-10-17T01:11:49.329271</dc:date>
    <dc:format>image/svg+xml</dc:format>
    <dc:creator>
     <cc:Agent>
      <dc:title>Matplotlib v3.6.1, https://matplotlib.org/</dc:title>
     </cc:Agent>
    </dc:creator>
   </cc:Work>
  </rdf:RDF>
 </metadata>
 <defs>
  <style type="text/css">*{stroke-linejoin: round; stroke-linecap: butt}</style>
 </defs>
 <g id="figure_1">
  <g id="patch_1">
   <path d="M 0 288 
L 720 288 
L 720 0 
L 0 0 
z
" style="fill: #ffffff"/>
  </g>
  <g id="axes_1">
   <g id="patch_2">
    <path d="M 90 135.36 
L 648 135.36 
L 648 34.56 
L 90 34.56 
z
" style="fill: #ffffff"/>
   </g>
   <g id="matplotlib.axis_1">
    <g id="xtick_1">
     <g id="line2d_1">
      <defs>
       <path id="m214ff70a5d" d="M 0 0 
L 0 3.5 
" style="stroke: #000000; stroke-width: 0.8"/>
      </defs>
      <g>
       <use xlink:href="#m214ff70a5d" x="115.363636" y="135.36" style="stroke: #000000; stroke-width: 0.8"/>
      </g>
     </g>
     <g id="text_1">
      <!-- 2020-10-22 -->
      <g transform="translate(86.305824 149.958437) scale(0.1 -0.1)">
       <defs>
        <path id="DejaVuSans-32" d="M 1228 531 
L 3431 531 
L 3431 0 
L 469 0 
L 469 531 
Q 828 903 1448 1529 
Q 2069 2156 2228 2338 
Q 2531 2678 2651 2914 
Q 2772 3150 2772 3378 
Q 2772 3750 2511 3984 
Q 2250 4219 1831 4219 
Q 1534 4219 1204 4116 
Q 875 4013 500 3803 
L 500 4441 
Q 881 4594 1212 4672 
Q 1544 4750 1819 4750 
Q 2544 4750 2975 4387 
Q 3406 4025 3406 3419 
Q 3406 3131 3298 2873 
Q 3191 2616 2906 2266 
Q 2828 2175 2409 1742 
Q 1991 1309 1228 531 
z
" transform="scale(0.015625)"/>
        <path id="DejaVuSans-30" d="M 2034 4250 
Q 1547 4250 1301 3770 
Q 1056 3291 1056 2328 
Q 1056 1369 1301 889 
Q 1547 409 2034 409 
Q 2525 409 2770 889 
Q 3016 1369 3016 2328 
Q 3016 3291 2770 3770 
Q 2525 4250 2034 4250 
z
M 2034 4750 
Q 2819 4750 3233 4129 
Q 3647 3509 3647 2328 
Q 3647 1150 3233 529 
Q 2819 -91 2034 -91 
Q 1250 -91 836 529 
Q 422 1150 422 2328 
Q 422 3509 836 4129 
Q 1250 4750 2034 4750 
z
" transform="scale(0.015625)"/>
        <path id="DejaVuSans-2d" d="M 313 2009 
L 1997 2009 
L 1997 1497 
L 313 1497 
L 313 2009 
z
" transform="scale(0.015625)"/>
        <path id="DejaVuSans-31" d="M 794 531 
L 1825 531 
L 1825 4091 
L 703 3866 
L 703 4441 
L 1819 4666 
L 2450 4666 
L 2450 531 
L 3481 531 
L 3481 0 
L 794 0 
L 794 531 
z
" transform="scale(0.015625)"/>
       </defs>
       <use xlink:href="#DejaVuSans-32"/>
       <use xlink:href="#DejaVuSans-30" x="63.623047"/>
       <use xlink:href="#DejaVuSans-32" x="127.246094"/>
       <use xlink:href="#DejaVuSans-30" x="190.869141"/>
       <use xlink:href="#DejaVuSans-2d" x="254.492188"/>
       <use xlink:href="#DejaVuSans-31" x="290.576172"/>
       <use xlink:href="#DejaVuSans-30" x="354.199219"/>
       <use xlink:href="#DejaVuSans-2d" x="417.822266"/>
       <use xlink:href="#DejaVuSans-32" x="453.90625"/>
       <use xlink:href="#DejaVuSans-32" x="517.529297"/>
      </g>
     </g>
    </g>
    <g id="xtick_2">
     <g id="line2d_2">
      <g>
       <use xlink:href="#m214ff70a5d" x="207.595041" y="135.36" style="stroke: #000000; stroke-width: 0.8"/>
      </g>
     </g>
     <g id="text_2">
      <!-- 2021-03-17 -->
      <g transform="translate(178.537229 149.958437) scale(0.1 -0.1)">
       <defs>
        <path id="DejaVuSans-33" d="M 2597 2516 
Q 3050 2419 3304 2112 
Q 3559 1806 3559 1356 
Q 3559 666 3084 287 
Q 2609 -91 1734 -91 
Q 1441 -91 1130 -33 
Q 819 25 488 141 
L 488 750 
Q 750 597 1062 519 
Q 1375 441 1716 441 
Q 2309 441 2620 675 
Q 2931 909 2931 1356 
Q 2931 1769 2642 2001 
Q 2353 2234 1838 2234 
L 1294 2234 
L 1294 2753 
L 1863 2753 
Q 2328 2753 2575 2939 
Q 2822 3125 2822 3475 
Q 2822 3834 2567 4026 
Q 2313 4219 1838 4219 
Q 1578 4219 1281 4162 
Q 984 4106 628 3988 
L 628 4550 
Q 988 4650 1302 4700 
Q 1616 4750 1894 4750 
Q 2613 4750 3031 4423 
Q 3450 4097 3450 3541 
Q 3450 3153 3228 2886 
Q 3006 2619 2597 2516 
z
" transform="scale(0.015625)"/>
        <path id="DejaVuSans-37" d="M 525 4666 
L 3525 4666 
L 3525 4397 
L 1831 0 
L 1172 0 
L 2766 4134 
L 525 4134 
L 525 4666 
z
" transform="scale(0.015625)"/>
       </defs>
       <use xlink:href="#DejaVuSans-32"/>
       <use xlink:href="#DejaVuSans-30" x="63.623047"/>
       <use xlink:href="#DejaVuSans-32" x="127.246094"/>
       <use xlink:href="#DejaVuSans-31" x="190.869141"/>
       <use xlink:href="#DejaVuSans-2d" x="254.492188"/>
       <use xlink:href="#DejaVuSans-30" x="290.576172"/>
       <use xlink:href="#DejaVuSans-33" x="354.199219"/>
       <use xlink:href="#DejaVuSans-2d" x="417.822266"/>
       <use xlink:href="#DejaVuSans-31" x="453.90625"/>
       <use xlink:href="#DejaVuSans-37" x="517.529297"/>
      </g>
     </g>
    </g>
    <g id="xtick_3">
     <g id="line2d_3">
      <g>
       <use xlink:href="#m214ff70a5d" x="299.826446" y="135.36" style="stroke: #000000; stroke-width: 0.8"/>
      </g>
     </g>
     <g id="text_3">
      <!-- 2021-07-07 -->
      <g transform="translate(270.768634 149.958437) scale(0.1 -0.1)">
       <use xlink:href="#DejaVuSans-32"/>
       <use xlink:href="#DejaVuSans-30" x="63.623047"/>
       <use xlink:href="#DejaVuSans-32" x="127.246094"/>
       <use xlink:href="#DejaVuSans-31" x="190.869141"/>
       <use xlink:href="#DejaVuSans-2d" x="254.492188"/>
       <use xlink:href="#DejaVuSans-30" x="290.576172"/>
       <use xlink:href="#DejaVuSans-37" x="354.199219"/>
       <use xlink:href="#DejaVuSans-2d" x="417.822266"/>
       <use xlink:href="#DejaVuSans-30" x="453.90625"/>
       <use xlink:href="#DejaVuSans-37" x="517.529297"/>
      </g>
     </g>
    </g>
    <g id="xtick_4">
     <g id="line2d_4">
      <g>
       <use xlink:href="#m214ff70a5d" x="392.057851" y="135.36" style="stroke: #000000; stroke-width: 0.8"/>
      </g>
     </g>
     <g id="text_4">
      <!-- 2021-11-18 -->
      <g transform="translate(363.000039 149.958437) scale(0.1 -0.1)">
       <defs>
        <path id="DejaVuSans-38" d="M 2034 2216 
Q 1584 2216 1326 1975 
Q 1069 1734 1069 1313 
Q 1069 891 1326 650 
Q 1584 409 2034 409 
Q 2484 409 2743 651 
Q 3003 894 3003 1313 
Q 3003 1734 2745 1975 
Q 2488 2216 2034 2216 
z
M 1403 2484 
Q 997 2584 770 2862 
Q 544 3141 544 3541 
Q 544 4100 942 4425 
Q 1341 4750 2034 4750 
Q 2731 4750 3128 4425 
Q 3525 4100 3525 3541 
Q 3525 3141 3298 2862 
Q 3072 2584 2669 2484 
Q 3125 2378 3379 2068 
Q 3634 1759 3634 1313 
Q 3634 634 3220 271 
Q 2806 -91 2034 -91 
Q 1263 -91 848 271 
Q 434 634 434 1313 
Q 434 1759 690 2068 
Q 947 2378 1403 2484 
z
M 1172 3481 
Q 1172 3119 1398 2916 
Q 1625 2713 2034 2713 
Q 2441 2713 2670 2916 
Q 2900 3119 2900 3481 
Q 2900 3844 2670 4047 
Q 2441 4250 2034 4250 
Q 1625 4250 1398 4047 
Q 1172 3844 1172 3481 
z
" transform="scale(0.015625)"/>
       </defs>
       <use xlink:href="#DejaVuSans-32"/>
       <use xlink:href="#DejaVuSans-30" x="63.623047"/>
       <use xlink:href="#DejaVuSans-32" x="127.246094"/>
       <use xlink:href="#DejaVuSans-31" x="190.869141"/>
       <use xlink:href="#DejaVuSans-2d" x="254.492188"/>
       <use xlink:href="#DejaVuSans-31" x="290.576172"/>
       <use xlink:href="#DejaVuSans-31" x="354.199219"/>
       <use xlink:href="#DejaVuSans-2d" x="417.822266"/>
       <use xlink:href="#DejaVuSans-31" x="453.90625"/>
       <use xlink:href="#DejaVuSans-38" x="517.529297"/>
      </g>
     </g>
    </g>
    <g id="xtick_5">
     <g id="line2d_5">
      <g>
       <use xlink:href="#m214ff70a5d" x="484.289256" y="135.36" style="stroke: #000000; stroke-width: 0.8"/>
      </g>
     </g>
     <g id="text_5">
      <!-- 2022-03-24 -->
      <g transform="translate(455.231444 149.958437) scale(0.1 -0.1)">
       <defs>
        <path id="DejaVuSans-34" d="M 2419 4116 
L 825 1625 
L 2419 1625 
L 2419 4116 
z
M 2253 4666 
L 3047 4666 
L 3047 1625 
L 3713 1625 
L 3713 1100 
L 3047 1100 
L 3047 0 
L 2419 0 
L 2419 1100 
L 313 1100 
L 313 1709 
L 2253 4666 
z
" transform="scale(0.015625)"/>
       </defs>
       <use xlink:href="#DejaVuSans-32"/>
       <use xlink:href="#DejaVuSans-30" x="63.623047"/>
       <use xlink:href="#DejaVuSans-32" x="127.246094"/>
       <use xlink:href="#DejaVuSans-32" x="190.869141"/>
       <use xlink:href="#DejaVuSans-2d" x="254.492188"/>
       <use xlink:href="#DejaVuSans-30" x="290.576172"/>
       <use xlink:href="#DejaVuSans-33" x="354.199219"/>
       <use xlink:href="#DejaVuSans-2d" x="417.822266"/>
       <use xlink:href="#DejaVuSans-32" x="453.90625"/>
       <use xlink:href="#DejaVuSans-34" x="517.529297"/>
      </g>
     </g>
    </g>
    <g id="xtick_6">
     <g id="line2d_6">
      <g>
       <use xlink:href="#m214ff70a5d" x="576.520661" y="135.36" style="stroke: #000000; stroke-width: 0.8"/>
      </g>
     </g>
     <g id="text_6">
      <!-- 2022-08-14 -->
      <g transform="translate(547.462849 149.958437) scale(0.1 -0.1)">
       <use xlink:href="#DejaVuSans-32"/>
       <use xlink:href="#DejaVuSans-30" x="63.623047"/>
       <use xlink:href="#DejaVuSans-32" x="127.246094"/>
       <use xlink:href="#DejaVuSans-32" x="190.869141"/>
       <use xlink:href="#DejaVuSans-2d" x="254.492188"/>
       <use xlink:href="#DejaVuSans-30" x="290.576172"/>
       <use xlink:href="#DejaVuSans-38" x="354.199219"/>
       <use xlink:href="#DejaVuSans-2d" x="417.822266"/>
       <use xlink:href="#DejaVuSans-31" x="453.90625"/>
       <use xlink:href="#DejaVuSans-34" x="517.529297"/>
      </g>
     </g>
    </g>
    <g id="text_7">
     <!-- _date -->
     <g transform="translate(355.225 163.636562) scale(0.1 -0.1)">
      <defs>
       <path id="DejaVuSans-5f" d="M 3263 -1063 
L 3263 -1509 
L -63 -1509 
L -63 -1063 
L 3263 -1063 
z
" transform="scale(0.015625)"/>
       <path id="DejaVuSans-64" d="M 2906 2969 
L 2906 4863 
L 3481 4863 
L 3481 0 
L 2906 0 
L 2906 525 
Q 2725 213 2448 61 
Q 2172 -91 1784 -91 
Q 1150 -91 751 415 
Q 353 922 353 1747 
Q 353 2572 751 3078 
Q 1150 3584 1784 3584 
Q 2172 3584 2448 3432 
Q 2725 3281 2906 2969 
z
M 947 1747 
Q 947 1113 1208 752 
Q 1469 391 1925 391 
Q 2381 391 2643 752 
Q 2906 1113 2906 1747 
Q 2906 2381 2643 2742 
Q 2381 3103 1925 3103 
Q 1469 3103 1208 2742 
Q 947 2381 947 1747 
z
" transform="scale(0.015625)"/>
       <path id="DejaVuSans-61" d="M 2194 1759 
Q 1497 1759 1228 1600 
Q 959 1441 959 1056 
Q 959 750 1161 570 
Q 1363 391 1709 391 
Q 2188 391 2477 730 
Q 2766 1069 2766 1631 
L 2766 1759 
L 2194 1759 
z
M 3341 1997 
L 3341 0 
L 2766 0 
L 2766 531 
Q 2569 213 2275 61 
Q 1981 -91 1556 -91 
Q 1019 -91 701 211 
Q 384 513 384 1019 
Q 384 1609 779 1909 
Q 1175 2209 1959 2209 
L 2766 2209 
L 2766 2266 
Q 2766 2663 2505 2880 
Q 2244 3097 1772 3097 
Q 1472 3097 1187 3025 
Q 903 2953 641 2809 
L 641 3341 
Q 956 3463 1253 3523 
Q 1550 3584 1831 3584 
Q 2591 3584 2966 3190 
Q 3341 2797 3341 1997 
z
" transform="scale(0.015625)"/>
       <path id="DejaVuSans-74" d="M 1172 4494 
L 1172 3500 
L 2356 3500 
L 2356 3053 
L 1172 3053 
L 1172 1153 
Q 1172 725 1289 603 
Q 1406 481 1766 481 
L 2356 481 
L 2356 0 
L 1766 0 
Q 1100 0 847 248 
Q 594 497 594 1153 
L 594 3053 
L 172 3053 
L 172 3500 
L 594 3500 
L 594 4494 
L 1172 4494 
z
" transform="scale(0.015625)"/>
       <path id="DejaVuSans-65" d="M 3597 1894 
L 3597 1613 
L 953 1613 
Q 991 1019 1311 708 
Q 1631 397 2203 397 
Q 2534 397 2845 478 
Q 3156 559 3463 722 
L 3463 178 
Q 3153 47 2828 -22 
Q 2503 -91 2169 -91 
Q 1331 -91 842 396 
Q 353 884 353 1716 
Q 353 2575 817 3079 
Q 1281 3584 2069 3584 
Q 2775 3584 3186 3129 
Q 3597 2675 3597 1894 
z
M 3022 2063 
Q 3016 2534 2758 2815 
Q 2500 3097 2075 3097 
Q 1594 3097 1305 2825 
Q 1016 2553 972 2059 
L 3022 2063 
z
" transform="scale(0.015625)"/>
      </defs>
      <use xlink:href="#DejaVuSans-5f"/>
      <use xlink:href="#DejaVuSans-64" x="50"/>
      <use xlink:href="#DejaVuSans-61" x="113.476562"/>
      <use xlink:href="#DejaVuSans-74" x="174.755859"/>
      <use xlink:href="#DejaVuSans-65" x="213.964844"/>
     </g>
    </g>
   </g>
   <g id="matplotlib.axis_2">
    <g id="ytick_1">
     <g id="line2d_7">
      <defs>
       <path id="m2e17e0e8fc" d="M 0 0 
L -3.5 0 
" style="stroke: #000000; stroke-width: 0.8"/>
      </defs>
      <g>
       <use xlink:href="#m2e17e0e8fc" x="90" y="131.070017" style="stroke: #000000; stroke-width: 0.8"/>
      </g>
     </g>
     <g id="text_8">
      <!-- 0 -->
      <g transform="translate(76.6375 134.869236) scale(0.1 -0.1)">
       <use xlink:href="#DejaVuSans-30"/>
      </g>
     </g>
    </g>
    <g id="ytick_2">
     <g id="line2d_8">
      <g>
       <use xlink:href="#m2e17e0e8fc" x="90" y="101.886462" style="stroke: #000000; stroke-width: 0.8"/>
      </g>
     </g>
     <g id="text_9">
      <!-- 100 -->
      <g transform="translate(63.9125 105.685681) scale(0.1 -0.1)">
       <use xlink:href="#DejaVuSans-31"/>
       <use xlink:href="#DejaVuSans-30" x="63.623047"/>
       <use xlink:href="#DejaVuSans-30" x="127.246094"/>
      </g>
     </g>
    </g>
    <g id="ytick_3">
     <g id="line2d_9">
      <g>
       <use xlink:href="#m2e17e0e8fc" x="90" y="72.702907" style="stroke: #000000; stroke-width: 0.8"/>
      </g>
     </g>
     <g id="text_10">
      <!-- 200 -->
      <g transform="translate(63.9125 76.502126) scale(0.1 -0.1)">
       <use xlink:href="#DejaVuSans-32"/>
       <use xlink:href="#DejaVuSans-30" x="63.623047"/>
       <use xlink:href="#DejaVuSans-30" x="127.246094"/>
      </g>
     </g>
    </g>
    <g id="ytick_4">
     <g id="line2d_10">
      <g>
       <use xlink:href="#m2e17e0e8fc" x="90" y="43.519351" style="stroke: #000000; stroke-width: 0.8"/>
      </g>
     </g>
     <g id="text_11">
      <!-- 300 -->
      <g transform="translate(63.9125 47.31857) scale(0.1 -0.1)">
       <use xlink:href="#DejaVuSans-33"/>
       <use xlink:href="#DejaVuSans-30" x="63.623047"/>
       <use xlink:href="#DejaVuSans-30" x="127.246094"/>
      </g>
     </g>
    </g>
   </g>
   <g id="line2d_11">
    <path d="M 115.363636 129.319004 
L 116.28595 129.61084 
L 117.208264 130.778182 
L 118.130579 130.778182 
L 119.052893 130.194511 
L 119.975207 130.194511 
L 120.897521 126.108813 
L 121.819835 126.108813 
L 122.742149 130.778182 
L 123.664463 130.778182 
L 124.586777 127.859826 
L 125.509091 128.735333 
L 126.431405 130.778182 
L 127.353719 129.319004 
L 128.276033 129.902675 
L 129.198347 129.902675 
L 130.120661 130.778182 
L 131.965289 129.61084 
L 132.887603 130.486346 
L 133.809917 130.778182 
L 134.732231 130.486346 
L 135.654545 130.486346 
L 136.57686 130.194511 
L 137.499174 130.486346 
L 138.421488 130.486346 
L 139.343802 129.902675 
L 140.266116 130.486346 
L 141.18843 130.486346 
L 142.110744 126.98432 
L 143.033058 129.319004 
L 143.955372 130.486346 
L 144.877686 123.774129 
L 145.8 130.778182 
L 153.178512 130.778182 
L 154.100826 130.486346 
L 155.02314 130.778182 
L 161.479339 130.778182 
L 162.401653 129.902675 
L 163.323967 130.194511 
L 164.246281 130.778182 
L 165.168595 130.194511 
L 166.090909 129.319004 
L 167.013223 130.486346 
L 167.935537 130.486346 
L 168.857851 129.902675 
L 169.780165 126.108813 
L 170.702479 130.486346 
L 171.624793 130.778182 
L 172.547107 130.486346 
L 173.469421 129.027169 
L 174.391736 130.486346 
L 175.31405 130.194511 
L 176.236364 128.151662 
L 177.158678 129.902675 
L 178.080992 129.027169 
L 179.003306 130.486346 
L 179.92562 130.194511 
L 180.847934 130.486346 
L 181.770248 130.194511 
L 183.614876 130.194511 
L 184.53719 129.61084 
L 185.459504 130.778182 
L 186.381818 130.778182 
L 187.304132 129.61084 
L 188.226446 129.61084 
L 189.14876 128.151662 
L 190.071074 130.194511 
L 190.993388 129.319004 
L 191.915702 130.778182 
L 192.838017 128.443497 
L 193.760331 129.902675 
L 194.682645 130.194511 
L 195.604959 129.902675 
L 196.527273 128.735333 
L 197.449587 130.486346 
L 198.371901 129.61084 
L 199.294215 126.400649 
L 200.216529 128.735333 
L 201.138843 126.108813 
L 202.061157 110.349693 
L 202.983471 129.319004 
L 203.905785 130.778182 
L 204.828099 129.902675 
L 205.750413 127.276155 
L 206.672727 127.859826 
L 207.595041 129.319004 
L 208.517355 125.525142 
L 209.439669 129.902675 
L 210.361983 129.902675 
L 211.284298 130.486346 
L 212.206612 126.98432 
L 213.128926 127.859826 
L 214.05124 130.778182 
L 214.973554 130.194511 
L 215.895868 130.778182 
L 216.818182 129.61084 
L 217.740496 116.47824 
L 218.66281 124.941471 
L 219.585124 126.400649 
L 220.507438 129.319004 
L 221.429752 130.778182 
L 222.352066 128.735333 
L 223.27438 129.902675 
L 224.196694 126.692484 
L 225.119008 129.902675 
L 226.041322 127.276155 
L 226.963636 123.774129 
L 227.88595 126.98432 
L 228.808264 129.319004 
L 229.730579 123.482293 
L 230.652893 123.482293 
L 231.575207 124.065964 
L 232.497521 112.684378 
L 233.419835 119.688431 
L 234.342149 119.688431 
L 235.264463 125.525142 
L 236.186777 121.147609 
L 237.109091 125.233306 
L 238.031405 130.194511 
L 238.953719 130.486346 
L 239.876033 124.065964 
L 240.798347 123.190457 
L 241.720661 123.774129 
L 242.642975 121.73128 
L 243.565289 119.10476 
L 244.487603 129.61084 
L 245.409917 130.486346 
L 246.332231 124.065964 
L 247.254545 124.649635 
L 248.17686 116.47824 
L 249.099174 123.774129 
L 250.021488 124.065964 
L 250.943802 130.486346 
L 251.866116 129.902675 
L 252.78843 123.190457 
L 253.710744 117.353746 
L 254.633058 124.3578 
L 255.555372 122.606786 
L 256.477686 114.143555 
L 257.4 124.3578 
L 258.322314 130.486346 
L 259.244628 123.190457 
L 260.166942 119.10476 
L 261.089256 117.645582 
L 262.01157 120.563937 
L 262.933884 121.73128 
L 263.856198 130.194511 
L 264.778512 123.482293 
L 265.700826 120.272102 
L 266.62314 123.774129 
L 267.545455 123.482293 
L 268.467769 122.898622 
L 269.390083 128.443497 
L 270.312397 123.774129 
L 271.234711 122.606786 
L 272.157025 123.774129 
L 273.079339 124.065964 
L 274.001653 124.065964 
L 274.923967 130.778182 
L 275.846281 130.778182 
L 276.768595 123.482293 
L 277.690909 122.023115 
L 278.613223 123.482293 
L 279.535537 117.645582 
L 280.457851 119.10476 
L 281.380165 130.778182 
L 282.302479 123.774129 
L 283.224793 122.898622 
L 284.147107 122.606786 
L 285.069421 122.023115 
L 285.991736 124.3578 
L 286.91405 130.486346 
L 287.836364 123.190457 
L 288.758678 121.439444 
L 289.680992 118.812924 
L 290.603306 118.521089 
L 291.52562 87.878356 
L 293.370248 130.778182 
L 294.292562 124.941471 
L 295.214876 124.3578 
L 296.13719 127.859826 
L 297.059504 130.778182 
L 297.981818 130.486346 
L 298.904132 127.276155 
L 299.826446 128.151662 
L 300.74876 130.486346 
L 301.671074 129.902675 
L 302.593388 130.486346 
L 303.515702 130.778182 
L 304.438017 130.486346 
L 305.360331 130.778182 
L 306.282645 129.902675 
L 307.204959 130.194511 
L 308.127273 130.778182 
L 310.894215 130.778182 
L 311.816529 129.61084 
L 312.738843 130.486346 
L 313.661157 130.778182 
L 314.583471 130.486346 
L 315.505785 129.027169 
L 316.428099 130.778182 
L 317.350413 124.3578 
L 318.272727 130.194511 
L 319.195041 130.778182 
L 321.039669 130.194511 
L 321.961983 130.778182 
L 322.884298 130.486346 
L 323.806612 130.778182 
L 324.728926 129.902675 
L 325.65124 130.486346 
L 326.573554 130.194511 
L 327.495868 130.778182 
L 329.340496 130.778182 
L 331.185124 130.194511 
L 332.107438 129.027169 
L 333.029752 130.486346 
L 333.952066 130.486346 
L 334.87438 127.859826 
L 335.796694 126.692484 
L 336.719008 130.778182 
L 338.563636 130.778182 
L 340.408264 130.194511 
L 341.330579 130.486346 
L 342.252893 128.151662 
L 343.175207 122.606786 
L 344.097521 129.319004 
L 345.019835 121.147609 
L 345.942149 128.735333 
L 346.864463 130.486346 
L 347.786777 130.778182 
L 349.631405 130.778182 
L 350.553719 130.486346 
L 351.476033 130.778182 
L 352.398347 130.778182 
L 353.320661 129.61084 
L 354.242975 115.602733 
L 355.165289 124.3578 
L 356.087603 130.194511 
L 357.009917 126.98432 
L 357.932231 115.894569 
L 358.854545 114.727226 
L 359.77686 112.100706 
L 360.699174 118.229253 
L 361.621488 126.108813 
L 362.543802 126.98432 
L 363.466116 130.778182 
L 364.38843 128.443497 
L 365.310744 130.778182 
L 366.233058 130.778182 
L 367.155372 126.692484 
L 368.077686 130.194511 
L 369 115.310898 
L 369.922314 126.98432 
L 370.844628 114.435391 
L 371.766942 127.276155 
L 372.689256 129.61084 
L 373.61157 126.400649 
L 374.533884 113.559884 
L 375.456198 126.108813 
L 376.378512 126.98432 
L 377.300826 130.194511 
L 378.22314 130.778182 
L 379.145455 130.778182 
L 380.067769 130.194511 
L 380.990083 128.735333 
L 381.912397 127.567991 
L 382.834711 126.98432 
L 383.757025 130.778182 
L 384.679339 130.778182 
L 385.601653 125.816977 
L 386.523967 123.774129 
L 387.446281 130.778182 
L 388.368595 130.194511 
L 389.290909 130.778182 
L 390.213223 128.151662 
L 391.135537 130.194511 
L 392.057851 130.778182 
L 392.980165 130.486346 
L 393.902479 129.902675 
L 394.824793 129.902675 
L 395.747107 119.396595 
L 396.669421 129.902675 
L 397.591736 129.902675 
L 398.51405 126.108813 
L 399.436364 118.812924 
L 400.358678 127.276155 
L 401.280992 127.276155 
L 402.203306 130.194511 
L 403.12562 125.816977 
L 404.047934 117.937417 
L 404.970248 99.259942 
L 405.892562 127.276155 
L 406.814876 122.606786 
L 407.73719 130.778182 
L 408.659504 118.521089 
L 409.581818 116.186404 
L 410.504132 129.027169 
L 411.426446 124.3578 
L 412.34876 130.778182 
L 413.271074 130.778182 
L 414.193388 116.770075 
L 415.115702 115.894569 
L 416.038017 130.486346 
L 416.960331 126.108813 
L 417.882645 130.778182 
L 418.804959 130.778182 
L 419.727273 130.194511 
L 420.649587 130.486346 
L 421.571901 129.902675 
L 422.494215 130.778182 
L 423.416529 126.692484 
L 424.338843 124.3578 
L 425.261157 113.559884 
L 426.183471 127.859826 
L 427.105785 130.486346 
L 428.028099 123.482293 
L 428.950413 130.486346 
L 429.872727 128.443497 
L 430.795041 125.816977 
L 431.717355 126.98432 
L 432.639669 129.319004 
L 433.561983 130.486346 
L 434.484298 129.027169 
L 435.406612 123.774129 
L 436.328926 129.61084 
L 437.25124 126.98432 
L 438.173554 128.151662 
L 439.095868 130.778182 
L 440.018182 104.804818 
L 440.940496 124.649635 
L 441.86281 115.019062 
L 442.785124 126.692484 
L 443.707438 106.263995 
L 444.629752 130.778182 
L 445.552066 125.233306 
L 447.396694 116.186404 
L 448.319008 120.563937 
L 449.241322 128.443497 
L 450.163636 130.778182 
L 452.008264 110.641529 
L 452.930579 112.100706 
L 453.852893 130.778182 
L 454.775207 126.98432 
L 455.697521 129.902675 
L 456.619835 113.85172 
L 457.542149 129.902675 
L 458.464463 130.778182 
L 460.309091 130.778182 
L 461.231405 129.61084 
L 462.153719 129.902675 
L 463.076033 127.859826 
L 463.998347 129.027169 
L 464.920661 127.567991 
L 465.842975 122.314951 
L 466.765289 130.486346 
L 467.687603 106.555831 
L 468.609917 127.276155 
L 469.532231 126.692484 
L 470.454545 114.143555 
L 471.37686 124.649635 
L 473.221488 130.486346 
L 474.143802 129.319004 
L 475.066116 130.486346 
L 475.98843 127.859826 
L 476.910744 104.804818 
L 477.833058 93.423231 
L 478.755372 121.147609 
L 479.677686 130.486346 
L 480.6 126.108813 
L 481.522314 129.902675 
L 482.444628 130.194511 
L 483.366942 130.778182 
L 484.289256 130.778182 
L 485.21157 130.486346 
L 487.056198 130.486346 
L 487.978512 130.778182 
L 488.900826 130.778182 
L 489.82314 130.194511 
L 490.745455 130.194511 
L 491.667769 130.778182 
L 492.590083 130.778182 
L 493.512397 130.486346 
L 494.434711 130.486346 
L 495.357025 130.778182 
L 496.279339 130.486346 
L 497.201653 129.902675 
L 498.123967 130.486346 
L 499.046281 130.778182 
L 499.968595 130.194511 
L 500.890909 130.194511 
L 501.813223 129.61084 
L 502.735537 127.276155 
L 503.657851 129.61084 
L 504.580165 130.486346 
L 505.502479 130.194511 
L 506.424793 128.443497 
L 507.347107 125.816977 
L 508.269421 130.778182 
L 509.191736 130.486346 
L 510.11405 130.778182 
L 511.036364 130.778182 
L 511.958678 127.276155 
L 512.880992 130.778182 
L 513.803306 127.276155 
L 514.72562 130.778182 
L 515.647934 130.486346 
L 516.570248 122.606786 
L 517.492562 130.486346 
L 518.414876 118.521089 
L 519.33719 127.567991 
L 520.259504 102.178298 
L 521.181818 118.812924 
L 522.104132 129.61084 
L 523.026446 130.486346 
L 523.94876 130.194511 
L 524.871074 130.486346 
L 525.793388 117.645582 
L 526.715702 129.902675 
L 527.638017 130.778182 
L 528.560331 130.486346 
L 529.482645 125.816977 
L 530.404959 130.778182 
L 532.249587 130.778182 
L 533.171901 128.735333 
L 534.094215 120.563937 
L 535.016529 130.778182 
L 535.938843 129.902675 
L 536.861157 123.774129 
L 537.783471 122.606786 
L 538.705785 130.778182 
L 539.628099 129.902675 
L 540.550413 130.194511 
L 541.472727 127.859826 
L 542.395041 130.194511 
L 543.317355 129.319004 
L 544.239669 130.486346 
L 545.161983 130.778182 
L 546.084298 129.61084 
L 547.006612 129.027169 
L 547.928926 129.902675 
L 548.85124 119.10476 
L 549.773554 130.194511 
L 550.695868 122.023115 
L 551.618182 130.778182 
L 552.540496 129.027169 
L 553.46281 125.816977 
L 554.385124 130.778182 
L 555.307438 130.194511 
L 556.229752 130.486346 
L 557.152066 110.933364 
L 558.07438 129.027169 
L 558.996694 130.778182 
L 559.919008 130.486346 
L 560.841322 122.898622 
L 561.763636 126.108813 
L 562.68595 130.486346 
L 563.608264 124.3578 
L 564.530579 130.778182 
L 565.452893 130.778182 
L 566.375207 129.61084 
L 567.297521 130.778182 
L 568.219835 127.276155 
L 569.142149 130.194511 
L 570.064463 130.486346 
L 570.986777 130.486346 
L 571.909091 129.902675 
L 572.831405 127.276155 
L 573.753719 126.108813 
L 574.676033 126.400649 
L 575.598347 130.486346 
L 576.520661 130.486346 
L 578.365289 113.559884 
L 579.287603 130.778182 
L 580.209917 121.147609 
L 581.132231 129.902675 
L 582.054545 130.778182 
L 582.97686 129.319004 
L 583.899174 129.61084 
L 584.821488 130.778182 
L 585.743802 39.141818 
L 586.666116 129.027169 
L 587.58843 126.98432 
L 588.510744 100.71912 
L 589.433058 125.816977 
L 590.355372 130.486346 
L 591.277686 128.443497 
L 592.2 130.778182 
L 593.122314 130.194511 
L 594.044628 127.859826 
L 594.966942 130.486346 
L 595.889256 124.3578 
L 596.81157 127.567991 
L 597.733884 129.902675 
L 598.656198 129.319004 
L 599.578512 121.73128 
L 600.500826 130.778182 
L 601.42314 130.486346 
L 602.345455 129.61084 
L 603.267769 126.400649 
L 604.190083 130.194511 
L 605.112397 130.778182 
L 606.034711 125.525142 
L 606.957025 129.319004 
L 607.879339 130.778182 
L 608.801653 130.194511 
L 609.723967 119.396595 
L 610.646281 130.778182 
L 611.568595 130.486346 
L 613.413223 130.486346 
L 614.335537 130.778182 
L 615.257851 130.194511 
L 616.180165 130.778182 
L 617.102479 126.108813 
L 618.024793 126.400649 
L 618.947107 130.194511 
L 619.869421 130.778182 
L 620.791736 125.233306 
L 621.71405 129.027169 
L 622.636364 129.61084 
L 622.636364 129.61084 
" clip-path="url(#pa6d8084d83)" style="fill: none; stroke: #1f77b4; stroke-width: 1.5; stroke-linecap: square"/>
   </g>
   <g id="line2d_12">
    <path d="M 115.363636 129.319004 
L 116.28595 129.61084 
L 117.208264 130.778182 
L 118.130579 130.778182 
L 119.052893 130.194511 
L 119.975207 130.194511 
L 120.897521 130.486346 
L 121.819835 129.61084 
L 122.742149 130.778182 
L 123.664463 130.778182 
L 124.586777 127.859826 
L 125.509091 130.194511 
L 126.431405 130.778182 
L 127.353719 129.902675 
L 128.276033 129.902675 
L 129.198347 130.194511 
L 130.120661 130.778182 
L 131.042975 130.194511 
L 131.965289 129.902675 
L 132.887603 130.486346 
L 133.809917 130.778182 
L 134.732231 130.486346 
L 135.654545 130.778182 
L 136.57686 130.194511 
L 138.421488 130.778182 
L 139.343802 130.486346 
L 140.266116 130.778182 
L 141.18843 130.486346 
L 142.110744 128.443497 
L 143.033058 129.319004 
L 143.955372 130.486346 
L 144.877686 128.151662 
L 145.8 130.778182 
L 153.178512 130.778182 
L 154.100826 130.486346 
L 155.02314 130.778182 
L 161.479339 130.778182 
L 162.401653 130.194511 
L 163.323967 130.778182 
L 164.246281 130.778182 
L 166.090909 130.194511 
L 167.013223 130.778182 
L 168.857851 130.778182 
L 169.780165 127.859826 
L 170.702479 130.778182 
L 171.624793 130.778182 
L 172.547107 130.486346 
L 173.469421 129.902675 
L 174.391736 130.486346 
L 175.31405 130.194511 
L 176.236364 129.027169 
L 177.158678 130.194511 
L 178.080992 130.778182 
L 179.003306 130.486346 
L 179.92562 130.778182 
L 180.847934 130.486346 
L 181.770248 130.778182 
L 182.692562 130.194511 
L 184.53719 130.194511 
L 185.459504 130.778182 
L 186.381818 130.778182 
L 189.14876 129.027169 
L 190.071074 130.194511 
L 190.993388 129.61084 
L 191.915702 130.778182 
L 192.838017 129.027169 
L 193.760331 129.902675 
L 194.682645 130.194511 
L 195.604959 129.902675 
L 196.527273 128.735333 
L 197.449587 130.486346 
L 198.371901 129.61084 
L 199.294215 127.859826 
L 200.216529 129.027169 
L 201.138843 127.276155 
L 202.061157 120.563937 
L 202.983471 129.319004 
L 203.905785 130.778182 
L 204.828099 130.194511 
L 205.750413 127.567991 
L 207.595041 129.319004 
L 208.517355 126.692484 
L 209.439669 129.902675 
L 210.361983 129.902675 
L 211.284298 130.486346 
L 212.206612 127.859826 
L 213.128926 127.859826 
L 214.05124 130.778182 
L 214.973554 130.194511 
L 215.895868 130.778182 
L 216.818182 129.902675 
L 217.740496 124.065964 
L 218.66281 126.98432 
L 219.585124 127.859826 
L 220.507438 129.61084 
L 221.429752 130.778182 
L 222.352066 129.319004 
L 223.27438 130.486346 
L 224.196694 127.567991 
L 225.119008 130.194511 
L 226.041322 127.567991 
L 226.963636 125.816977 
L 227.88595 127.276155 
L 228.808264 129.61084 
L 229.730579 126.108813 
L 230.652893 128.151662 
L 231.575207 130.486346 
L 232.497521 126.400649 
L 233.419835 129.902675 
L 234.342149 128.443497 
L 235.264463 126.400649 
L 236.186777 128.151662 
L 237.109091 130.778182 
L 238.031405 130.486346 
L 238.953719 130.486346 
L 239.876033 130.778182 
L 240.798347 129.902675 
L 241.720661 130.194511 
L 243.565289 126.108813 
L 244.487603 129.61084 
L 245.409917 130.486346 
L 246.332231 130.778182 
L 247.254545 129.902675 
L 248.17686 124.649635 
L 249.099174 130.778182 
L 250.021488 130.194511 
L 250.943802 130.486346 
L 252.78843 130.486346 
L 253.710744 125.233306 
L 254.633058 129.902675 
L 255.555372 129.027169 
L 256.477686 123.774129 
L 257.4 125.816977 
L 258.322314 130.486346 
L 259.244628 130.778182 
L 260.166942 128.443497 
L 261.089256 130.194511 
L 262.01157 129.902675 
L 262.933884 130.486346 
L 263.856198 130.486346 
L 264.778512 130.778182 
L 265.700826 127.567991 
L 266.62314 130.778182 
L 267.545455 130.486346 
L 268.467769 129.902675 
L 269.390083 129.027169 
L 270.312397 130.778182 
L 271.234711 129.902675 
L 272.157025 130.778182 
L 273.079339 130.194511 
L 274.001653 130.194511 
L 274.923967 130.778182 
L 276.768595 130.778182 
L 277.690909 129.319004 
L 278.613223 130.778182 
L 279.535537 129.902675 
L 280.457851 128.443497 
L 281.380165 130.778182 
L 282.302479 130.778182 
L 283.224793 130.486346 
L 284.147107 129.902675 
L 286.91405 130.778182 
L 287.836364 130.486346 
L 288.758678 128.735333 
L 289.680992 128.735333 
L 290.603306 129.319004 
L 291.52562 130.778182 
L 292.447934 126.400649 
L 293.370248 130.778182 
L 294.292562 130.486346 
L 295.214876 128.735333 
L 296.13719 128.443497 
L 297.059504 130.778182 
L 297.981818 130.486346 
L 298.904132 127.276155 
L 299.826446 128.735333 
L 300.74876 130.486346 
L 301.671074 129.902675 
L 302.593388 130.778182 
L 303.515702 130.778182 
L 304.438017 130.486346 
L 305.360331 130.778182 
L 306.282645 129.902675 
L 307.204959 130.194511 
L 308.127273 130.778182 
L 310.894215 130.778182 
L 311.816529 129.61084 
L 312.738843 130.486346 
L 313.661157 130.778182 
L 314.583471 130.486346 
L 315.505785 129.319004 
L 316.428099 130.778182 
L 317.350413 130.778182 
L 318.272727 130.194511 
L 319.195041 130.778182 
L 321.039669 130.194511 
L 321.961983 130.778182 
L 322.884298 130.486346 
L 323.806612 130.778182 
L 324.728926 129.902675 
L 325.65124 130.486346 
L 326.573554 130.194511 
L 327.495868 130.778182 
L 329.340496 130.778182 
L 331.185124 130.194511 
L 332.107438 129.027169 
L 333.029752 130.486346 
L 333.952066 130.778182 
L 334.87438 127.859826 
L 335.796694 127.567991 
L 336.719008 130.778182 
L 338.563636 130.778182 
L 340.408264 130.194511 
L 341.330579 130.778182 
L 342.252893 128.443497 
L 343.175207 126.692484 
L 344.097521 130.486346 
L 345.019835 126.400649 
L 345.942149 129.319004 
L 346.864463 130.778182 
L 349.631405 130.778182 
L 350.553719 130.486346 
L 351.476033 130.778182 
L 352.398347 130.778182 
L 353.320661 129.61084 
L 354.242975 123.190457 
L 355.165289 125.525142 
L 356.087603 130.194511 
L 357.009917 127.567991 
L 357.932231 123.190457 
L 358.854545 122.023115 
L 359.77686 122.023115 
L 360.699174 125.525142 
L 361.621488 126.400649 
L 362.543802 127.859826 
L 363.466116 130.778182 
L 364.38843 128.735333 
L 365.310744 130.778182 
L 366.233058 130.778182 
L 367.155372 127.276155 
L 368.077686 130.194511 
L 369 126.98432 
L 369.922314 129.61084 
L 370.844628 128.735333 
L 371.766942 130.486346 
L 372.689256 130.778182 
L 373.61157 129.61084 
L 374.533884 126.400649 
L 375.456198 128.443497 
L 376.378512 128.735333 
L 377.300826 130.486346 
L 378.22314 130.778182 
L 379.145455 130.778182 
L 380.067769 130.194511 
L 380.990083 129.902675 
L 381.912397 129.027169 
L 382.834711 129.027169 
L 383.757025 130.778182 
L 384.679339 130.778182 
L 385.601653 128.151662 
L 386.523967 127.567991 
L 387.446281 130.778182 
L 388.368595 130.194511 
L 389.290909 130.778182 
L 390.213223 129.319004 
L 391.135537 130.194511 
L 392.057851 130.778182 
L 392.980165 130.486346 
L 393.902479 129.902675 
L 394.824793 129.902675 
L 395.747107 126.692484 
L 396.669421 129.902675 
L 397.591736 130.194511 
L 398.51405 128.735333 
L 399.436364 125.816977 
L 400.358678 128.735333 
L 401.280992 129.027169 
L 402.203306 130.486346 
L 403.12562 128.735333 
L 404.970248 122.314951 
L 405.892562 129.319004 
L 406.814876 127.567991 
L 407.73719 130.778182 
L 408.659504 126.108813 
L 409.581818 124.3578 
L 410.504132 129.61084 
L 411.426446 127.567991 
L 412.34876 130.778182 
L 413.271074 130.778182 
L 414.193388 125.816977 
L 415.115702 124.065964 
L 416.038017 130.486346 
L 416.960331 128.443497 
L 417.882645 130.778182 
L 418.804959 130.778182 
L 419.727273 130.486346 
L 420.649587 130.778182 
L 421.571901 130.486346 
L 422.494215 130.778182 
L 423.416529 128.735333 
L 424.338843 127.859826 
L 425.261157 124.3578 
L 426.183471 129.319004 
L 427.105785 130.778182 
L 428.028099 126.98432 
L 428.950413 130.486346 
L 430.795041 128.735333 
L 431.717355 129.319004 
L 432.639669 129.61084 
L 433.561983 130.778182 
L 434.484298 129.319004 
L 435.406612 126.98432 
L 436.328926 130.194511 
L 437.25124 129.027169 
L 438.173554 129.319004 
L 439.095868 130.778182 
L 440.018182 121.147609 
L 440.940496 127.567991 
L 441.86281 124.941471 
L 442.785124 128.735333 
L 443.707438 122.023115 
L 444.629752 130.778182 
L 445.552066 130.486346 
L 446.47438 125.233306 
L 447.396694 124.3578 
L 448.319008 125.233306 
L 449.241322 129.61084 
L 450.163636 130.778182 
L 451.08595 126.400649 
L 452.008264 122.898622 
L 452.930579 122.606786 
L 453.852893 130.778182 
L 454.775207 129.027169 
L 455.697521 130.778182 
L 456.619835 124.3578 
L 457.542149 130.194511 
L 458.464463 130.778182 
L 460.309091 130.778182 
L 461.231405 129.902675 
L 462.153719 130.486346 
L 463.076033 129.319004 
L 463.998347 129.902675 
L 464.920661 129.319004 
L 465.842975 126.400649 
L 466.765289 130.486346 
L 467.687603 122.023115 
L 468.609917 128.735333 
L 469.532231 128.443497 
L 470.454545 124.649635 
L 471.37686 128.151662 
L 472.299174 128.735333 
L 473.221488 130.778182 
L 474.143802 129.902675 
L 475.066116 130.778182 
L 475.98843 129.61084 
L 476.910744 124.941471 
L 477.833058 118.521089 
L 478.755372 126.692484 
L 479.677686 130.486346 
L 480.6 130.778182 
L 481.522314 129.902675 
L 482.444628 130.194511 
L 483.366942 130.778182 
L 484.289256 130.778182 
L 485.21157 130.486346 
L 486.133884 130.778182 
L 487.056198 130.486346 
L 487.978512 130.778182 
L 488.900826 130.778182 
L 489.82314 130.194511 
L 491.667769 130.778182 
L 492.590083 130.778182 
L 493.512397 130.486346 
L 494.434711 130.486346 
L 495.357025 130.778182 
L 496.279339 130.486346 
L 498.123967 130.486346 
L 499.046281 130.778182 
L 499.968595 130.194511 
L 500.890909 130.486346 
L 501.813223 129.902675 
L 502.735537 129.027169 
L 503.657851 130.194511 
L 504.580165 130.486346 
L 505.502479 130.194511 
L 507.347107 129.027169 
L 508.269421 130.778182 
L 509.191736 130.486346 
L 510.11405 130.778182 
L 511.036364 130.778182 
L 511.958678 129.61084 
L 512.880992 130.778182 
L 513.803306 128.735333 
L 514.72562 130.778182 
L 515.647934 130.778182 
L 516.570248 127.567991 
L 517.492562 130.778182 
L 518.414876 125.525142 
L 519.33719 128.735333 
L 520.259504 122.606786 
L 521.181818 126.108813 
L 522.104132 130.194511 
L 523.026446 130.486346 
L 526.715702 130.486346 
L 527.638017 130.778182 
L 528.560331 130.486346 
L 529.482645 130.486346 
L 530.404959 130.778182 
L 532.249587 130.778182 
L 533.171901 129.319004 
L 534.094215 125.525142 
L 535.016529 130.778182 
L 535.938843 130.194511 
L 536.861157 129.319004 
L 537.783471 127.276155 
L 538.705785 130.778182 
L 539.628099 130.194511 
L 540.550413 130.486346 
L 541.472727 129.319004 
L 542.395041 130.486346 
L 543.317355 130.194511 
L 545.161983 130.778182 
L 546.084298 129.902675 
L 547.006612 129.902675 
L 547.928926 130.486346 
L 548.85124 125.525142 
L 549.773554 130.194511 
L 550.695868 126.692484 
L 551.618182 130.778182 
L 552.540496 129.902675 
L 553.46281 128.443497 
L 554.385124 130.778182 
L 555.307438 130.194511 
L 556.229752 130.486346 
L 557.152066 124.065964 
L 558.07438 129.61084 
L 558.996694 130.778182 
L 559.919008 130.486346 
L 560.841322 127.859826 
L 561.763636 128.151662 
L 562.68595 130.486346 
L 563.608264 127.276155 
L 564.530579 130.778182 
L 565.452893 130.778182 
L 566.375207 129.902675 
L 567.297521 130.778182 
L 568.219835 129.319004 
L 569.142149 130.194511 
L 570.064463 130.778182 
L 570.986777 130.486346 
L 571.909091 130.486346 
L 572.831405 129.027169 
L 573.753719 130.486346 
L 574.676033 130.778182 
L 576.520661 130.778182 
L 577.442975 126.692484 
L 578.365289 123.774129 
L 579.287603 130.778182 
L 580.209917 126.400649 
L 581.132231 130.486346 
L 582.054545 130.778182 
L 582.97686 130.194511 
L 583.899174 130.194511 
L 584.821488 130.778182 
L 585.743802 118.229253 
L 586.666116 129.902675 
L 587.58843 129.027169 
L 588.510744 120.272102 
L 589.433058 128.443497 
L 590.355372 130.486346 
L 591.277686 129.61084 
L 592.2 130.778182 
L 593.122314 130.194511 
L 594.044628 129.027169 
L 594.966942 130.486346 
L 595.889256 128.443497 
L 596.81157 129.902675 
L 597.733884 130.486346 
L 598.656198 130.194511 
L 599.578512 128.735333 
L 600.500826 130.778182 
L 602.345455 130.778182 
L 603.267769 130.194511 
L 604.190083 130.194511 
L 605.112397 130.778182 
L 606.034711 128.735333 
L 606.957025 130.194511 
L 607.879339 130.778182 
L 608.801653 130.194511 
L 609.723967 128.151662 
L 610.646281 130.778182 
L 612.490909 130.778182 
L 613.413223 130.486346 
L 614.335537 130.778182 
L 615.257851 130.486346 
L 616.180165 130.778182 
L 617.102479 128.735333 
L 618.024793 128.443497 
L 618.947107 130.194511 
L 619.869421 130.778182 
L 620.791736 128.151662 
L 621.71405 130.486346 
L 622.636364 130.486346 
L 622.636364 130.486346 
" clip-path="url(#pa6d8084d83)" style="fill: none; stroke: #ff7f0e; stroke-width: 1.5; stroke-linecap: square"/>
   </g>
   <g id="patch_3">
    <path d="M 90 135.36 
L 90 34.56 
" style="fill: none; stroke: #000000; stroke-width: 0.8; stroke-linejoin: miter; stroke-linecap: square"/>
   </g>
   <g id="patch_4">
    <path d="M 648 135.36 
L 648 34.56 
" style="fill: none; stroke: #000000; stroke-width: 0.8; stroke-linejoin: miter; stroke-linecap: square"/>
   </g>
   <g id="patch_5">
    <path d="M 90 135.36 
L 648 135.36 
" style="fill: none; stroke: #000000; stroke-width: 0.8; stroke-linejoin: miter; stroke-linecap: square"/>
   </g>
   <g id="patch_6">
    <path d="M 90 34.56 
L 648 34.56 
" style="fill: none; stroke: #000000; stroke-width: 0.8; stroke-linejoin: miter; stroke-linecap: square"/>
   </g>
   <g id="legend_1">
    <g id="patch_7">
     <path d="M 97 71.91625 
L 238.8625 71.91625 
Q 240.8625 71.91625 240.8625 69.91625 
L 240.8625 41.56 
Q 240.8625 39.56 238.8625 39.56 
L 97 39.56 
Q 95 39.56 95 41.56 
L 95 69.91625 
Q 95 71.91625 97 71.91625 
z
" style="fill: #ffffff; opacity: 0.8; stroke: #cccccc; stroke-linejoin: miter"/>
    </g>
    <g id="line2d_13">
     <path d="M 99 47.658437 
L 109 47.658437 
L 119 47.658437 
" style="fill: none; stroke: #1f77b4; stroke-width: 1.5; stroke-linecap: square"/>
    </g>
    <g id="text_12">
     <!-- Total GitHub Clones -->
     <g transform="translate(127 51.158437) scale(0.1 -0.1)">
      <defs>
       <path id="DejaVuSans-54" d="M -19 4666 
L 3928 4666 
L 3928 4134 
L 2272 4134 
L 2272 0 
L 1638 0 
L 1638 4134 
L -19 4134 
L -19 4666 
z
" transform="scale(0.015625)"/>
       <path id="DejaVuSans-6f" d="M 1959 3097 
Q 1497 3097 1228 2736 
Q 959 2375 959 1747 
Q 959 1119 1226 758 
Q 1494 397 1959 397 
Q 2419 397 2687 759 
Q 2956 1122 2956 1747 
Q 2956 2369 2687 2733 
Q 2419 3097 1959 3097 
z
M 1959 3584 
Q 2709 3584 3137 3096 
Q 3566 2609 3566 1747 
Q 3566 888 3137 398 
Q 2709 -91 1959 -91 
Q 1206 -91 779 398 
Q 353 888 353 1747 
Q 353 2609 779 3096 
Q 1206 3584 1959 3584 
z
" transform="scale(0.015625)"/>
       <path id="DejaVuSans-6c" d="M 603 4863 
L 1178 4863 
L 1178 0 
L 603 0 
L 603 4863 
z
" transform="scale(0.015625)"/>
       <path id="DejaVuSans-20" transform="scale(0.015625)"/>
       <path id="DejaVuSans-47" d="M 3809 666 
L 3809 1919 
L 2778 1919 
L 2778 2438 
L 4434 2438 
L 4434 434 
Q 4069 175 3628 42 
Q 3188 -91 2688 -91 
Q 1594 -91 976 548 
Q 359 1188 359 2328 
Q 359 3472 976 4111 
Q 1594 4750 2688 4750 
Q 3144 4750 3555 4637 
Q 3966 4525 4313 4306 
L 4313 3634 
Q 3963 3931 3569 4081 
Q 3175 4231 2741 4231 
Q 1884 4231 1454 3753 
Q 1025 3275 1025 2328 
Q 1025 1384 1454 906 
Q 1884 428 2741 428 
Q 3075 428 3337 486 
Q 3600 544 3809 666 
z
" transform="scale(0.015625)"/>
       <path id="DejaVuSans-69" d="M 603 3500 
L 1178 3500 
L 1178 0 
L 603 0 
L 603 3500 
z
M 603 4863 
L 1178 4863 
L 1178 4134 
L 603 4134 
L 603 4863 
z
" transform="scale(0.015625)"/>
       <path id="DejaVuSans-48" d="M 628 4666 
L 1259 4666 
L 1259 2753 
L 3553 2753 
L 3553 4666 
L 4184 4666 
L 4184 0 
L 3553 0 
L 3553 2222 
L 1259 2222 
L 1259 0 
L 628 0 
L 628 4666 
z
" transform="scale(0.015625)"/>
       <path id="DejaVuSans-75" d="M 544 1381 
L 544 3500 
L 1119 3500 
L 1119 1403 
Q 1119 906 1312 657 
Q 1506 409 1894 409 
Q 2359 409 2629 706 
Q 2900 1003 2900 1516 
L 2900 3500 
L 3475 3500 
L 3475 0 
L 2900 0 
L 2900 538 
Q 2691 219 2414 64 
Q 2138 -91 1772 -91 
Q 1169 -91 856 284 
Q 544 659 544 1381 
z
M 1991 3584 
L 1991 3584 
z
" transform="scale(0.015625)"/>
       <path id="DejaVuSans-62" d="M 3116 1747 
Q 3116 2381 2855 2742 
Q 2594 3103 2138 3103 
Q 1681 3103 1420 2742 
Q 1159 2381 1159 1747 
Q 1159 1113 1420 752 
Q 1681 391 2138 391 
Q 2594 391 2855 752 
Q 3116 1113 3116 1747 
z
M 1159 2969 
Q 1341 3281 1617 3432 
Q 1894 3584 2278 3584 
Q 2916 3584 3314 3078 
Q 3713 2572 3713 1747 
Q 3713 922 3314 415 
Q 2916 -91 2278 -91 
Q 1894 -91 1617 61 
Q 1341 213 1159 525 
L 1159 0 
L 581 0 
L 581 4863 
L 1159 4863 
L 1159 2969 
z
" transform="scale(0.015625)"/>
       <path id="DejaVuSans-43" d="M 4122 4306 
L 4122 3641 
Q 3803 3938 3442 4084 
Q 3081 4231 2675 4231 
Q 1875 4231 1450 3742 
Q 1025 3253 1025 2328 
Q 1025 1406 1450 917 
Q 1875 428 2675 428 
Q 3081 428 3442 575 
Q 3803 722 4122 1019 
L 4122 359 
Q 3791 134 3420 21 
Q 3050 -91 2638 -91 
Q 1578 -91 968 557 
Q 359 1206 359 2328 
Q 359 3453 968 4101 
Q 1578 4750 2638 4750 
Q 3056 4750 3426 4639 
Q 3797 4528 4122 4306 
z
" transform="scale(0.015625)"/>
       <path id="DejaVuSans-6e" d="M 3513 2113 
L 3513 0 
L 2938 0 
L 2938 2094 
Q 2938 2591 2744 2837 
Q 2550 3084 2163 3084 
Q 1697 3084 1428 2787 
Q 1159 2491 1159 1978 
L 1159 0 
L 581 0 
L 581 3500 
L 1159 3500 
L 1159 2956 
Q 1366 3272 1645 3428 
Q 1925 3584 2291 3584 
Q 2894 3584 3203 3211 
Q 3513 2838 3513 2113 
z
" transform="scale(0.015625)"/>
       <path id="DejaVuSans-73" d="M 2834 3397 
L 2834 2853 
Q 2591 2978 2328 3040 
Q 2066 3103 1784 3103 
Q 1356 3103 1142 2972 
Q 928 2841 928 2578 
Q 928 2378 1081 2264 
Q 1234 2150 1697 2047 
L 1894 2003 
Q 2506 1872 2764 1633 
Q 3022 1394 3022 966 
Q 3022 478 2636 193 
Q 2250 -91 1575 -91 
Q 1294 -91 989 -36 
Q 684 19 347 128 
L 347 722 
Q 666 556 975 473 
Q 1284 391 1588 391 
Q 1994 391 2212 530 
Q 2431 669 2431 922 
Q 2431 1156 2273 1281 
Q 2116 1406 1581 1522 
L 1381 1569 
Q 847 1681 609 1914 
Q 372 2147 372 2553 
Q 372 3047 722 3315 
Q 1072 3584 1716 3584 
Q 2034 3584 2315 3537 
Q 2597 3491 2834 3397 
z
" transform="scale(0.015625)"/>
      </defs>
      <use xlink:href="#DejaVuSans-54"/>
      <use xlink:href="#DejaVuSans-6f" x="44.083984"/>
      <use xlink:href="#DejaVuSans-74" x="105.265625"/>
      <use xlink:href="#DejaVuSans-61" x="144.474609"/>
      <use xlink:href="#DejaVuSans-6c" x="205.753906"/>
      <use xlink:href="#DejaVuSans-20" x="233.537109"/>
      <use xlink:href="#DejaVuSans-47" x="265.324219"/>
      <use xlink:href="#DejaVuSans-69" x="342.814453"/>
      <use xlink:href="#DejaVuSans-74" x="370.597656"/>
      <use xlink:href="#DejaVuSans-48" x="409.806641"/>
      <use xlink:href="#DejaVuSans-75" x="485.001953"/>
      <use xlink:href="#DejaVuSans-62" x="548.380859"/>
      <use xlink:href="#DejaVuSans-20" x="611.857422"/>
      <use xlink:href="#DejaVuSans-43" x="643.644531"/>
      <use xlink:href="#DejaVuSans-6c" x="713.46875"/>
      <use xlink:href="#DejaVuSans-6f" x="741.251953"/>
      <use xlink:href="#DejaVuSans-6e" x="802.433594"/>
      <use xlink:href="#DejaVuSans-65" x="865.8125"/>
      <use xlink:href="#DejaVuSans-73" x="927.335938"/>
     </g>
    </g>
    <g id="line2d_14">
     <path d="M 99 62.336562 
L 109 62.336562 
L 119 62.336562 
" style="fill: none; stroke: #ff7f0e; stroke-width: 1.5; stroke-linecap: square"/>
    </g>
    <g id="text_13">
     <!-- Unique GitHub Clones -->
     <g transform="translate(127 65.836562) scale(0.1 -0.1)">
      <defs>
       <path id="DejaVuSans-55" d="M 556 4666 
L 1191 4666 
L 1191 1831 
Q 1191 1081 1462 751 
Q 1734 422 2344 422 
Q 2950 422 3222 751 
Q 3494 1081 3494 1831 
L 3494 4666 
L 4128 4666 
L 4128 1753 
Q 4128 841 3676 375 
Q 3225 -91 2344 -91 
Q 1459 -91 1007 375 
Q 556 841 556 1753 
L 556 4666 
z
" transform="scale(0.015625)"/>
       <path id="DejaVuSans-71" d="M 947 1747 
Q 947 1113 1208 752 
Q 1469 391 1925 391 
Q 2381 391 2643 752 
Q 2906 1113 2906 1747 
Q 2906 2381 2643 2742 
Q 2381 3103 1925 3103 
Q 1469 3103 1208 2742 
Q 947 2381 947 1747 
z
M 2906 525 
Q 2725 213 2448 61 
Q 2172 -91 1784 -91 
Q 1150 -91 751 415 
Q 353 922 353 1747 
Q 353 2572 751 3078 
Q 1150 3584 1784 3584 
Q 2172 3584 2448 3432 
Q 2725 3281 2906 2969 
L 2906 3500 
L 3481 3500 
L 3481 -1331 
L 2906 -1331 
L 2906 525 
z
" transform="scale(0.015625)"/>
      </defs>
      <use xlink:href="#DejaVuSans-55"/>
      <use xlink:href="#DejaVuSans-6e" x="73.193359"/>
      <use xlink:href="#DejaVuSans-69" x="136.572266"/>
      <use xlink:href="#DejaVuSans-71" x="164.355469"/>
      <use xlink:href="#DejaVuSans-75" x="227.832031"/>
      <use xlink:href="#DejaVuSans-65" x="291.210938"/>
      <use xlink:href="#DejaVuSans-20" x="352.734375"/>
      <use xlink:href="#DejaVuSans-47" x="384.521484"/>
      <use xlink:href="#DejaVuSans-69" x="462.011719"/>
      <use xlink:href="#DejaVuSans-74" x="489.794922"/>
      <use xlink:href="#DejaVuSans-48" x="529.003906"/>
      <use xlink:href="#DejaVuSans-75" x="604.199219"/>
      <use xlink:href="#DejaVuSans-62" x="667.578125"/>
      <use xlink:href="#DejaVuSans-20" x="731.054688"/>
      <use xlink:href="#DejaVuSans-43" x="762.841797"/>
      <use xlink:href="#DejaVuSans-6c" x="832.666016"/>
      <use xlink:href="#DejaVuSans-6f" x="860.449219"/>
      <use xlink:href="#DejaVuSans-6e" x="921.630859"/>
      <use xlink:href="#DejaVuSans-65" x="985.009766"/>
      <use xlink:href="#DejaVuSans-73" x="1046.533203"/>
     </g>
    </g>
   </g>
  </g>
  <g id="axes_2">
   <g id="patch_8">
    <path d="M 90 256.32 
L 648 256.32 
L 648 155.52 
L 90 155.52 
z
" style="fill: #ffffff"/>
   </g>
   <g id="matplotlib.axis_3">
    <g id="xtick_7">
     <g id="line2d_15">
      <g>
       <use xlink:href="#m214ff70a5d" x="115.363636" y="256.32" style="stroke: #000000; stroke-width: 0.8"/>
      </g>
     </g>
     <g id="text_14">
      <!-- 2020-10-21 -->
      <g transform="translate(86.305824 270.918437) scale(0.1 -0.1)">
       <use xlink:href="#DejaVuSans-32"/>
       <use xlink:href="#DejaVuSans-30" x="63.623047"/>
       <use xlink:href="#DejaVuSans-32" x="127.246094"/>
       <use xlink:href="#DejaVuSans-30" x="190.869141"/>
       <use xlink:href="#DejaVuSans-2d" x="254.492188"/>
       <use xlink:href="#DejaVuSans-31" x="290.576172"/>
       <use xlink:href="#DejaVuSans-30" x="354.199219"/>
       <use xlink:href="#DejaVuSans-2d" x="417.822266"/>
       <use xlink:href="#DejaVuSans-32" x="453.90625"/>
       <use xlink:href="#DejaVuSans-31" x="517.529297"/>
      </g>
     </g>
    </g>
    <g id="xtick_8">
     <g id="line2d_16">
      <g>
       <use xlink:href="#m214ff70a5d" x="186.112971" y="256.32" style="stroke: #000000; stroke-width: 0.8"/>
      </g>
     </g>
     <g id="text_15">
      <!-- 2021-01-31 -->
      <g transform="translate(157.055158 270.918437) scale(0.1 -0.1)">
       <use xlink:href="#DejaVuSans-32"/>
       <use xlink:href="#DejaVuSans-30" x="63.623047"/>
       <use xlink:href="#DejaVuSans-32" x="127.246094"/>
       <use xlink:href="#DejaVuSans-31" x="190.869141"/>
       <use xlink:href="#DejaVuSans-2d" x="254.492188"/>
       <use xlink:href="#DejaVuSans-30" x="290.576172"/>
       <use xlink:href="#DejaVuSans-31" x="354.199219"/>
       <use xlink:href="#DejaVuSans-2d" x="417.822266"/>
       <use xlink:href="#DejaVuSans-33" x="453.90625"/>
       <use xlink:href="#DejaVuSans-31" x="517.529297"/>
      </g>
     </g>
    </g>
    <g id="xtick_9">
     <g id="line2d_17">
      <g>
       <use xlink:href="#m214ff70a5d" x="256.862305" y="256.32" style="stroke: #000000; stroke-width: 0.8"/>
      </g>
     </g>
     <g id="text_16">
      <!-- 2021-05-11 -->
      <g transform="translate(227.804493 270.918437) scale(0.1 -0.1)">
       <defs>
        <path id="DejaVuSans-35" d="M 691 4666 
L 3169 4666 
L 3169 4134 
L 1269 4134 
L 1269 2991 
Q 1406 3038 1543 3061 
Q 1681 3084 1819 3084 
Q 2600 3084 3056 2656 
Q 3513 2228 3513 1497 
Q 3513 744 3044 326 
Q 2575 -91 1722 -91 
Q 1428 -91 1123 -41 
Q 819 9 494 109 
L 494 744 
Q 775 591 1075 516 
Q 1375 441 1709 441 
Q 2250 441 2565 725 
Q 2881 1009 2881 1497 
Q 2881 1984 2565 2268 
Q 2250 2553 1709 2553 
Q 1456 2553 1204 2497 
Q 953 2441 691 2322 
L 691 4666 
z
" transform="scale(0.015625)"/>
       </defs>
       <use xlink:href="#DejaVuSans-32"/>
       <use xlink:href="#DejaVuSans-30" x="63.623047"/>
       <use xlink:href="#DejaVuSans-32" x="127.246094"/>
       <use xlink:href="#DejaVuSans-31" x="190.869141"/>
       <use xlink:href="#DejaVuSans-2d" x="254.492188"/>
       <use xlink:href="#DejaVuSans-30" x="290.576172"/>
       <use xlink:href="#DejaVuSans-35" x="354.199219"/>
       <use xlink:href="#DejaVuSans-2d" x="417.822266"/>
       <use xlink:href="#DejaVuSans-31" x="453.90625"/>
       <use xlink:href="#DejaVuSans-31" x="517.529297"/>
      </g>
     </g>
    </g>
    <g id="xtick_10">
     <g id="line2d_18">
      <g>
       <use xlink:href="#m214ff70a5d" x="327.611639" y="256.32" style="stroke: #000000; stroke-width: 0.8"/>
      </g>
     </g>
     <g id="text_17">
      <!-- 2021-08-19 -->
      <g transform="translate(298.553827 270.918437) scale(0.1 -0.1)">
       <defs>
        <path id="DejaVuSans-39" d="M 703 97 
L 703 672 
Q 941 559 1184 500 
Q 1428 441 1663 441 
Q 2288 441 2617 861 
Q 2947 1281 2994 2138 
Q 2813 1869 2534 1725 
Q 2256 1581 1919 1581 
Q 1219 1581 811 2004 
Q 403 2428 403 3163 
Q 403 3881 828 4315 
Q 1253 4750 1959 4750 
Q 2769 4750 3195 4129 
Q 3622 3509 3622 2328 
Q 3622 1225 3098 567 
Q 2575 -91 1691 -91 
Q 1453 -91 1209 -44 
Q 966 3 703 97 
z
M 1959 2075 
Q 2384 2075 2632 2365 
Q 2881 2656 2881 3163 
Q 2881 3666 2632 3958 
Q 2384 4250 1959 4250 
Q 1534 4250 1286 3958 
Q 1038 3666 1038 3163 
Q 1038 2656 1286 2365 
Q 1534 2075 1959 2075 
z
" transform="scale(0.015625)"/>
       </defs>
       <use xlink:href="#DejaVuSans-32"/>
       <use xlink:href="#DejaVuSans-30" x="63.623047"/>
       <use xlink:href="#DejaVuSans-32" x="127.246094"/>
       <use xlink:href="#DejaVuSans-31" x="190.869141"/>
       <use xlink:href="#DejaVuSans-2d" x="254.492188"/>
       <use xlink:href="#DejaVuSans-30" x="290.576172"/>
       <use xlink:href="#DejaVuSans-38" x="354.199219"/>
       <use xlink:href="#DejaVuSans-2d" x="417.822266"/>
       <use xlink:href="#DejaVuSans-31" x="453.90625"/>
       <use xlink:href="#DejaVuSans-39" x="517.529297"/>
      </g>
     </g>
    </g>
    <g id="xtick_11">
     <g id="line2d_19">
      <g>
       <use xlink:href="#m214ff70a5d" x="398.360974" y="256.32" style="stroke: #000000; stroke-width: 0.8"/>
      </g>
     </g>
     <g id="text_18">
      <!-- 2021-11-28 -->
      <g transform="translate(369.303161 270.918437) scale(0.1 -0.1)">
       <use xlink:href="#DejaVuSans-32"/>
       <use xlink:href="#DejaVuSans-30" x="63.623047"/>
       <use xlink:href="#DejaVuSans-32" x="127.246094"/>
       <use xlink:href="#DejaVuSans-31" x="190.869141"/>
       <use xlink:href="#DejaVuSans-2d" x="254.492188"/>
       <use xlink:href="#DejaVuSans-31" x="290.576172"/>
       <use xlink:href="#DejaVuSans-31" x="354.199219"/>
       <use xlink:href="#DejaVuSans-2d" x="417.822266"/>
       <use xlink:href="#DejaVuSans-32" x="453.90625"/>
       <use xlink:href="#DejaVuSans-38" x="517.529297"/>
      </g>
     </g>
    </g>
    <g id="xtick_12">
     <g id="line2d_20">
      <g>
       <use xlink:href="#m214ff70a5d" x="469.110308" y="256.32" style="stroke: #000000; stroke-width: 0.8"/>
      </g>
     </g>
     <g id="text_19">
      <!-- 2022-03-10 -->
      <g transform="translate(440.052496 270.918437) scale(0.1 -0.1)">
       <use xlink:href="#DejaVuSans-32"/>
       <use xlink:href="#DejaVuSans-30" x="63.623047"/>
       <use xlink:href="#DejaVuSans-32" x="127.246094"/>
       <use xlink:href="#DejaVuSans-32" x="190.869141"/>
       <use xlink:href="#DejaVuSans-2d" x="254.492188"/>
       <use xlink:href="#DejaVuSans-30" x="290.576172"/>
       <use xlink:href="#DejaVuSans-33" x="354.199219"/>
       <use xlink:href="#DejaVuSans-2d" x="417.822266"/>
       <use xlink:href="#DejaVuSans-31" x="453.90625"/>
       <use xlink:href="#DejaVuSans-30" x="517.529297"/>
      </g>
     </g>
    </g>
    <g id="xtick_13">
     <g id="line2d_21">
      <g>
       <use xlink:href="#m214ff70a5d" x="539.859642" y="256.32" style="stroke: #000000; stroke-width: 0.8"/>
      </g>
     </g>
     <g id="text_20">
      <!-- 2022-06-19 -->
      <g transform="translate(510.80183 270.918437) scale(0.1 -0.1)">
       <defs>
        <path id="DejaVuSans-36" d="M 2113 2584 
Q 1688 2584 1439 2293 
Q 1191 2003 1191 1497 
Q 1191 994 1439 701 
Q 1688 409 2113 409 
Q 2538 409 2786 701 
Q 3034 994 3034 1497 
Q 3034 2003 2786 2293 
Q 2538 2584 2113 2584 
z
M 3366 4563 
L 3366 3988 
Q 3128 4100 2886 4159 
Q 2644 4219 2406 4219 
Q 1781 4219 1451 3797 
Q 1122 3375 1075 2522 
Q 1259 2794 1537 2939 
Q 1816 3084 2150 3084 
Q 2853 3084 3261 2657 
Q 3669 2231 3669 1497 
Q 3669 778 3244 343 
Q 2819 -91 2113 -91 
Q 1303 -91 875 529 
Q 447 1150 447 2328 
Q 447 3434 972 4092 
Q 1497 4750 2381 4750 
Q 2619 4750 2861 4703 
Q 3103 4656 3366 4563 
z
" transform="scale(0.015625)"/>
       </defs>
       <use xlink:href="#DejaVuSans-32"/>
       <use xlink:href="#DejaVuSans-30" x="63.623047"/>
       <use xlink:href="#DejaVuSans-32" x="127.246094"/>
       <use xlink:href="#DejaVuSans-32" x="190.869141"/>
       <use xlink:href="#DejaVuSans-2d" x="254.492188"/>
       <use xlink:href="#DejaVuSans-30" x="290.576172"/>
       <use xlink:href="#DejaVuSans-36" x="354.199219"/>
       <use xlink:href="#DejaVuSans-2d" x="417.822266"/>
       <use xlink:href="#DejaVuSans-31" x="453.90625"/>
       <use xlink:href="#DejaVuSans-39" x="517.529297"/>
      </g>
     </g>
    </g>
    <g id="xtick_14">
     <g id="line2d_22">
      <g>
       <use xlink:href="#m214ff70a5d" x="610.608977" y="256.32" style="stroke: #000000; stroke-width: 0.8"/>
      </g>
     </g>
     <g id="text_21">
      <!-- 2022-09-29 -->
      <g transform="translate(581.551164 270.918437) scale(0.1 -0.1)">
       <use xlink:href="#DejaVuSans-32"/>
       <use xlink:href="#DejaVuSans-30" x="63.623047"/>
       <use xlink:href="#DejaVuSans-32" x="127.246094"/>
       <use xlink:href="#DejaVuSans-32" x="190.869141"/>
       <use xlink:href="#DejaVuSans-2d" x="254.492188"/>
       <use xlink:href="#DejaVuSans-30" x="290.576172"/>
       <use xlink:href="#DejaVuSans-39" x="354.199219"/>
       <use xlink:href="#DejaVuSans-2d" x="417.822266"/>
       <use xlink:href="#DejaVuSans-32" x="453.90625"/>
       <use xlink:href="#DejaVuSans-39" x="517.529297"/>
      </g>
     </g>
    </g>
    <g id="text_22">
     <!-- _date -->
     <g transform="translate(355.225 284.596563) scale(0.1 -0.1)">
      <use xlink:href="#DejaVuSans-5f"/>
      <use xlink:href="#DejaVuSans-64" x="50"/>
      <use xlink:href="#DejaVuSans-61" x="113.476562"/>
      <use xlink:href="#DejaVuSans-74" x="174.755859"/>
      <use xlink:href="#DejaVuSans-65" x="213.964844"/>
     </g>
    </g>
   </g>
   <g id="matplotlib.axis_4">
    <g id="ytick_5">
     <g id="line2d_23">
      <g>
       <use xlink:href="#m2e17e0e8fc" x="90" y="252.006124" style="stroke: #000000; stroke-width: 0.8"/>
      </g>
     </g>
     <g id="text_23">
      <!-- 0 -->
      <g transform="translate(76.6375 255.805343) scale(0.1 -0.1)">
       <use xlink:href="#DejaVuSans-30"/>
      </g>
     </g>
    </g>
    <g id="ytick_6">
     <g id="line2d_24">
      <g>
       <use xlink:href="#m2e17e0e8fc" x="90" y="225.211866" style="stroke: #000000; stroke-width: 0.8"/>
      </g>
     </g>
     <g id="text_24">
      <!-- 100 -->
      <g transform="translate(63.9125 229.011085) scale(0.1 -0.1)">
       <use xlink:href="#DejaVuSans-31"/>
       <use xlink:href="#DejaVuSans-30" x="63.623047"/>
       <use xlink:href="#DejaVuSans-30" x="127.246094"/>
      </g>
     </g>
    </g>
    <g id="ytick_7">
     <g id="line2d_25">
      <g>
       <use xlink:href="#m2e17e0e8fc" x="90" y="198.417608" style="stroke: #000000; stroke-width: 0.8"/>
      </g>
     </g>
     <g id="text_25">
      <!-- 200 -->
      <g transform="translate(63.9125 202.216826) scale(0.1 -0.1)">
       <use xlink:href="#DejaVuSans-32"/>
       <use xlink:href="#DejaVuSans-30" x="63.623047"/>
       <use xlink:href="#DejaVuSans-30" x="127.246094"/>
      </g>
     </g>
    </g>
    <g id="ytick_8">
     <g id="line2d_26">
      <g>
       <use xlink:href="#m2e17e0e8fc" x="90" y="171.623349" style="stroke: #000000; stroke-width: 0.8"/>
      </g>
     </g>
     <g id="text_26">
      <!-- 300 -->
      <g transform="translate(63.9125 175.422568) scale(0.1 -0.1)">
       <use xlink:href="#DejaVuSans-33"/>
       <use xlink:href="#DejaVuSans-30" x="63.623047"/>
       <use xlink:href="#DejaVuSans-30" x="127.246094"/>
      </g>
     </g>
    </g>
   </g>
   <g id="line2d_27">
    <path d="M 115.363636 251.738182 
L 116.07113 231.910431 
L 116.778623 229.498947 
L 117.486116 244.771675 
L 118.19361 251.470239 
L 118.901103 239.412823 
L 119.608596 239.14488 
L 120.31609 235.393684 
L 121.023583 239.14488 
L 121.731076 239.948708 
L 122.43857 250.666411 
L 123.146063 248.522871 
L 123.853556 247.719043 
L 124.56105 239.948708 
L 125.268543 213.690335 
L 125.976037 227.355407 
L 126.68353 244.235789 
L 127.391023 247.4511 
L 128.098517 251.202297 
L 129.513503 225.747751 
L 130.220997 246.111388 
L 130.92849 243.699904 
L 131.635983 237.537225 
L 132.343477 237.537225 
L 133.05097 249.862584 
L 133.758463 237.805167 
L 134.465957 234.321914 
L 135.17345 243.967847 
L 135.880943 243.967847 
L 136.588437 239.412823 
L 137.29593 247.183158 
L 138.003423 249.326699 
L 138.710917 227.623349 
L 139.41841 249.058756 
L 140.125903 248.254928 
L 140.833397 249.862584 
L 141.54089 247.986986 
L 142.248383 251.470239 
L 142.955877 251.470239 
L 143.66337 229.231005 
L 144.370863 217.173589 
L 145.078357 244.235789 
L 145.78585 245.575502 
L 146.493343 227.891292 
L 147.200837 250.934354 
L 147.90833 245.30756 
L 148.615824 242.092249 
L 149.323317 246.37933 
L 150.03081 237.00134 
L 150.738304 247.183158 
L 151.445797 250.934354 
L 152.15329 251.738182 
L 152.860784 244.235789 
L 153.568277 242.628134 
L 154.27577 242.896077 
L 154.983264 241.556364 
L 155.690757 249.058756 
L 156.39825 250.934354 
L 157.105744 250.666411 
L 157.813237 247.4511 
L 158.52073 247.986986 
L 159.228224 243.164019 
L 159.935717 250.130526 
L 160.64321 251.202297 
L 161.350704 251.470239 
L 162.058197 248.522871 
L 162.76569 249.594641 
L 163.473184 250.398469 
L 164.180677 251.738182 
L 164.88817 247.4511 
L 165.595664 247.719043 
L 166.303157 250.934354 
L 167.01065 246.647273 
L 167.718144 243.164019 
L 168.425637 240.752536 
L 169.13313 247.986986 
L 169.840624 249.058756 
L 170.548117 233.518086 
L 171.25561 250.398469 
L 171.963104 235.125742 
L 172.670597 236.733397 
L 173.378091 240.752536 
L 174.085584 234.589856 
L 174.793077 247.183158 
L 175.500571 235.929569 
L 176.208064 251.202297 
L 176.915557 234.857799 
L 177.623051 236.197512 
L 178.330544 228.159234 
L 179.038037 233.786029 
L 179.745531 240.752536 
L 180.453024 243.431962 
L 181.160517 248.522871 
L 181.868011 230.302775 
L 182.575504 226.015694 
L 183.282997 237.269282 
L 183.990491 235.929569 
L 184.697984 233.518086 
L 185.405477 247.719043 
L 186.112971 248.790813 
L 186.820464 231.374545 
L 187.527957 247.183158 
L 188.942944 234.321914 
L 190.357931 250.934354 
L 191.065424 247.986986 
L 191.772917 236.465455 
L 192.480411 235.929569 
L 193.187904 226.819522 
L 193.895397 242.628134 
L 194.602891 250.398469 
L 195.310384 250.666411 
L 196.017878 249.326699 
L 196.725371 243.164019 
L 197.432864 243.431962 
L 198.140358 247.183158 
L 198.847851 232.178373 
L 199.555344 248.522871 
L 200.262838 242.628134 
L 200.970331 239.948708 
L 201.677824 241.556364 
L 202.385318 227.087464 
L 203.092811 236.733397 
L 203.800304 235.929569 
L 204.507798 240.752536 
L 205.215291 239.14488 
L 205.922784 240.216651 
L 206.630278 187.431962 
L 207.337771 246.111388 
L 208.045264 232.178373 
L 208.752758 235.661627 
L 209.460251 228.427177 
L 210.167744 242.360191 
L 210.875238 202.972632 
L 211.582731 201.364976 
L 212.290224 206.99177 
L 212.997718 230.570718 
L 213.705211 178.321914 
L 214.412704 225.211866 
L 215.120198 246.37933 
L 215.827691 245.575502 
L 216.535184 238.341053 
L 217.242678 232.446316 
L 217.950171 229.231005 
L 218.657665 235.661627 
L 219.365158 225.479809 
L 220.072651 244.235789 
L 220.780145 246.111388 
L 221.487638 208.063541 
L 222.195131 233.786029 
L 222.902625 235.393684 
L 223.610118 246.647273 
L 224.317611 248.790813 
L 225.025105 248.254928 
L 225.732598 234.053971 
L 226.440091 187.967847 
L 227.147585 231.106603 
L 227.855078 235.393684 
L 228.562571 216.369761 
L 229.270065 244.771675 
L 229.977558 248.522871 
L 230.685051 245.30756 
L 231.392545 223.604211 
L 232.100038 239.412823 
L 232.807531 224.943923 
L 233.515025 203.240574 
L 234.222518 234.857799 
L 234.930011 241.824306 
L 235.637505 246.37933 
L 236.344998 180.465455 
L 237.052491 228.963062 
L 237.759985 243.967847 
L 238.467478 236.197512 
L 239.174971 237.537225 
L 239.882465 249.058756 
L 240.589958 247.183158 
L 241.297452 191.183158 
L 242.004945 184.752536 
L 242.712438 201.364976 
L 243.419932 243.431962 
L 244.127425 249.326699 
L 244.834918 237.537225 
L 245.542412 247.719043 
L 246.957398 226.015694 
L 247.664892 167.336268 
L 248.372385 223.872153 
L 249.079878 223.068325 
L 249.787372 227.623349 
L 250.494865 245.843445 
L 251.202358 246.647273 
L 251.909852 221.996555 
L 252.617345 237.00134 
L 253.324838 236.733397 
L 254.032332 227.891292 
L 254.739825 243.699904 
L 255.447318 249.326699 
L 256.154812 201.097033 
L 256.862305 238.07311 
L 257.569798 215.030048 
L 258.277292 209.135311 
L 258.984785 215.565933 
L 259.692278 249.862584 
L 260.399772 249.862584 
L 261.107265 224.140096 
L 261.814758 234.053971 
L 262.522252 233.518086 
L 263.229745 239.680766 
L 263.937238 243.164019 
L 264.644732 248.522871 
L 265.352225 246.37933 
L 266.059719 227.355407 
L 266.767212 244.503732 
L 267.474705 241.020478 
L 268.182199 233.250144 
L 268.889692 239.412823 
L 269.597185 249.862584 
L 270.304679 249.862584 
L 271.012172 243.431962 
L 271.719665 240.752536 
L 272.427159 246.647273 
L 273.134652 241.824306 
L 273.842145 243.967847 
L 274.549639 249.326699 
L 275.257132 247.719043 
L 275.964625 232.178373 
L 276.672119 237.269282 
L 277.379612 172.69512 
L 278.087105 215.833876 
L 278.794599 244.503732 
L 279.502092 242.628134 
L 280.209585 250.130526 
L 280.917079 233.250144 
L 281.624572 235.125742 
L 282.332065 242.360191 
L 283.039559 241.556364 
L 283.747052 236.465455 
L 284.454545 249.862584 
L 285.162039 250.398469 
L 285.869532 196.274067 
L 286.577025 239.948708 
L 287.284519 245.30756 
L 287.992012 247.4511 
L 288.699506 204.312344 
L 289.406999 247.4511 
L 290.114492 248.254928 
L 291.529479 242.360191 
L 292.236972 242.628134 
L 292.944466 225.479809 
L 293.651959 244.771675 
L 294.359452 249.862584 
L 295.066946 243.967847 
L 295.774439 245.575502 
L 296.481932 183.948708 
L 297.189426 200.293206 
L 297.896919 241.020478 
L 299.311906 245.039617 
L 300.019399 244.503732 
L 300.726892 232.714258 
L 301.434386 242.628134 
L 302.141879 243.699904 
L 302.849372 223.872153 
L 303.556866 239.948708 
L 304.264359 250.398469 
L 304.971852 251.738182 
L 305.679346 245.039617 
L 306.386839 245.575502 
L 307.094332 246.915215 
L 307.801826 243.967847 
L 308.509319 246.37933 
L 309.216812 249.594641 
L 309.924306 251.202297 
L 310.631799 243.967847 
L 311.339293 243.699904 
L 312.046786 231.910431 
L 312.754279 230.302775 
L 313.461773 250.666411 
L 314.169266 246.37933 
L 314.876759 251.738182 
L 315.584253 239.680766 
L 316.291746 240.752536 
L 316.999239 243.164019 
L 317.706733 240.484593 
L 318.414226 248.522871 
L 319.121719 245.843445 
L 319.829213 250.130526 
L 320.536706 237.537225 
L 321.244199 239.412823 
L 321.951693 244.235789 
L 322.659186 241.288421 
L 323.366679 232.446316 
L 324.074173 242.360191 
L 324.781666 248.522871 
L 325.489159 233.518086 
L 326.196653 250.398469 
L 326.904146 246.111388 
L 327.611639 244.503732 
L 328.319133 251.202297 
L 329.026626 250.934354 
L 329.734119 245.039617 
L 330.441613 245.575502 
L 331.149106 233.250144 
L 331.856599 231.642488 
L 332.564093 249.058756 
L 333.271586 249.862584 
L 333.979079 250.398469 
L 334.686573 242.628134 
L 335.394066 228.159234 
L 336.10156 236.465455 
L 336.809053 236.197512 
L 337.516546 245.30756 
L 338.22404 249.862584 
L 338.931533 245.843445 
L 339.639026 246.647273 
L 340.34652 249.862584 
L 341.054013 237.269282 
L 341.761506 247.719043 
L 342.469 242.628134 
L 343.176493 226.015694 
L 343.883986 250.934354 
L 344.59148 248.254928 
L 345.298973 233.786029 
L 346.006466 216.905646 
L 346.71396 236.733397 
L 347.421453 248.254928 
L 348.128946 247.719043 
L 348.83644 250.398469 
L 349.543933 246.647273 
L 350.251426 232.178373 
L 350.95892 230.570718 
L 351.666413 221.46067 
L 352.373906 233.786029 
L 353.0814 248.522871 
L 353.788893 251.470239 
L 354.496386 248.522871 
L 355.20388 249.862584 
L 355.911373 239.948708 
L 356.618866 189.575502 
L 357.32636 229.498947 
L 358.033853 242.628134 
L 358.741347 241.020478 
L 359.44884 230.83866 
L 360.156333 230.83866 
L 360.863827 220.924785 
L 361.57132 198.417608 
L 362.278813 217.441531 
L 362.986307 246.37933 
L 363.6938 250.666411 
L 364.401293 224.675981 
L 365.108787 228.159234 
L 365.81628 212.618565 
L 366.523773 240.216651 
L 367.231267 236.197512 
L 367.93876 246.111388 
L 368.646253 248.254928 
L 369.353747 215.565933 
L 370.06124 238.608995 
L 370.768733 249.594641 
L 371.476227 223.604211 
L 372.18372 164.924785 
L 372.891213 240.484593 
L 373.598707 235.929569 
L 374.3062 227.891292 
L 375.013693 228.963062 
L 375.721187 242.896077 
L 376.42868 232.446316 
L 377.136173 238.876938 
L 377.843667 246.915215 
L 378.55116 245.843445 
L 379.258653 235.929569 
L 379.966147 249.058756 
L 380.67364 243.431962 
L 381.381134 229.498947 
L 382.79612 250.934354 
L 383.503614 250.130526 
L 384.211107 245.039617 
L 384.9186 231.642488 
L 385.626094 240.752536 
L 386.333587 247.183158 
L 387.04108 247.986986 
L 387.748574 247.986986 
L 388.456067 248.790813 
L 389.16356 239.412823 
L 389.871054 235.661627 
L 390.578547 243.967847 
L 391.993534 237.537225 
L 392.701027 250.130526 
L 393.40852 249.862584 
L 394.116014 234.589856 
L 394.823507 232.982201 
L 395.531 245.575502 
L 396.945987 250.934354 
L 397.65348 248.522871 
L 398.360974 247.719043 
L 399.068467 244.503732 
L 399.77596 228.69512 
L 400.483454 238.341053 
L 401.190947 238.876938 
L 401.89844 226.819522 
L 402.605934 249.862584 
L 403.313427 228.159234 
L 404.020921 237.269282 
L 404.728414 202.972632 
L 405.435907 239.948708 
L 406.143401 221.996555 
L 406.850894 247.4511 
L 407.558387 248.254928 
L 408.265881 230.034833 
L 408.973374 208.599426 
L 409.680867 234.589856 
L 410.388361 237.269282 
L 411.095854 243.431962 
L 411.803347 233.250144 
L 412.510841 249.058756 
L 413.218334 217.173589 
L 413.925827 235.929569 
L 414.633321 239.948708 
L 415.340814 242.628134 
L 416.048307 242.896077 
L 416.755801 246.915215 
L 417.463294 249.058756 
L 418.170787 245.843445 
L 418.878281 248.790813 
L 419.585774 250.934354 
L 420.293267 249.594641 
L 421.000761 249.326699 
L 421.708254 246.915215 
L 422.415747 217.709474 
L 423.830734 242.092249 
L 424.538227 243.164019 
L 425.245721 249.862584 
L 425.953214 250.934354 
L 426.660707 251.738182 
L 428.075694 236.733397 
L 428.783188 241.288421 
L 429.490681 219.585072 
L 430.198174 246.915215 
L 430.905668 246.111388 
L 431.613161 250.934354 
L 432.320654 247.719043 
L 433.028148 239.412823 
L 433.735641 244.771675 
L 434.443134 242.092249 
L 435.150628 245.843445 
L 435.858121 250.666411 
L 436.565614 250.130526 
L 437.273108 219.585072 
L 437.980601 220.120957 
L 438.688094 235.929569 
L 439.395588 247.719043 
L 440.103081 217.441531 
L 440.810574 246.915215 
L 441.518068 235.929569 
L 442.225561 212.886507 
L 442.933054 238.07311 
L 443.640548 209.939139 
L 444.348041 198.68555 
L 445.055534 232.714258 
L 445.763028 250.666411 
L 446.470521 249.862584 
L 447.178014 196.809952 
L 447.885508 208.867368 
L 448.593001 223.872153 
L 449.300494 224.675981 
L 450.007988 179.125742 
L 450.715481 243.967847 
L 451.422975 245.575502 
L 452.130468 217.441531 
L 452.837961 226.015694 
L 453.545455 242.628134 
L 454.252948 240.752536 
L 454.960441 226.283636 
L 455.667935 247.719043 
L 456.375428 249.862584 
L 457.082921 225.747751 
L 457.790415 235.929569 
L 458.497908 223.336268 
L 459.205401 232.178373 
L 459.912895 216.369761 
L 460.620388 239.680766 
L 461.327881 248.254928 
L 462.035375 222.264498 
L 462.742868 228.427177 
L 463.450361 231.910431 
L 464.157855 227.623349 
L 464.865348 185.824306 
L 465.572841 223.872153 
L 466.280335 241.288421 
L 466.987828 160.101818 
L 467.695321 200.829091 
L 468.402815 224.943923 
L 469.110308 241.288421 
L 469.817801 239.680766 
L 470.525295 243.967847 
L 471.232788 247.4511 
L 471.940281 211.814737 
L 472.647775 223.068325 
L 473.355268 209.671196 
L 474.062762 213.15445 
L 474.770255 225.211866 
L 475.477748 250.130526 
L 476.185242 249.594641 
L 476.892735 213.422392 
L 477.600228 235.661627 
L 478.307722 222.53244 
L 479.015215 230.570718 
L 479.722708 235.393684 
L 480.430202 242.896077 
L 481.137695 247.719043 
L 481.845188 229.76689 
L 482.552682 236.197512 
L 483.260175 216.637703 
L 483.967668 214.22622 
L 484.675162 242.896077 
L 485.382655 249.058756 
L 486.090148 251.738182 
L 486.797642 239.680766 
L 487.505135 237.805167 
L 488.212628 243.699904 
L 488.920122 235.661627 
L 489.627615 244.235789 
L 490.335108 249.326699 
L 491.042602 250.130526 
L 492.457588 234.589856 
L 493.165082 247.986986 
L 493.872575 247.986986 
L 494.580068 243.967847 
L 495.287562 240.752536 
L 495.995055 229.498947 
L 496.702548 239.14488 
L 497.410042 238.608995 
L 498.117535 246.37933 
L 499.532522 247.4511 
L 500.240015 250.398469 
L 500.947509 248.790813 
L 502.362495 232.178373 
L 503.069989 234.857799 
L 503.777482 242.896077 
L 504.484975 235.661627 
L 505.192469 249.862584 
L 505.899962 251.470239 
L 506.607455 243.699904 
L 507.314949 246.37933 
L 508.022442 233.786029 
L 508.729935 213.15445 
L 509.437429 244.235789 
L 510.144922 250.666411 
L 510.852415 249.326699 
L 511.559909 240.484593 
L 512.267402 236.733397 
L 512.974895 239.412823 
L 513.682389 238.341053 
L 514.389882 234.857799 
L 515.097375 250.934354 
L 515.804869 241.288421 
L 516.512362 228.159234 
L 517.219855 226.819522 
L 517.927349 245.575502 
L 518.634842 248.254928 
L 519.342335 211.278852 
L 520.049829 247.986986 
L 520.757322 250.666411 
L 521.464816 227.891292 
L 522.172309 246.111388 
L 522.879802 221.192727 
L 523.587296 229.498947 
L 524.294789 246.111388 
L 525.002282 251.470239 
L 525.709776 251.470239 
L 526.417269 249.862584 
L 527.124762 244.503732 
L 527.832256 245.843445 
L 528.539749 243.431962 
L 529.247242 251.470239 
L 529.954736 249.862584 
L 530.662229 251.738182 
L 531.369722 245.575502 
L 532.077216 247.986986 
L 532.784709 244.771675 
L 533.492202 243.164019 
L 534.199696 250.666411 
L 534.907189 251.202297 
L 535.614682 241.020478 
L 536.322176 220.656842 
L 537.029669 245.843445 
L 537.737162 246.111388 
L 538.444656 240.484593 
L 539.152149 248.254928 
L 539.859642 251.470239 
L 540.567136 247.4511 
L 541.274629 241.556364 
L 541.982122 243.699904 
L 542.689616 244.235789 
L 543.397109 249.326699 
L 544.104603 251.470239 
L 544.812096 251.202297 
L 545.519589 243.164019 
L 546.227083 243.967847 
L 546.934576 247.4511 
L 547.642069 237.537225 
L 548.349563 249.058756 
L 549.057056 250.934354 
L 549.764549 248.790813 
L 550.472043 250.934354 
L 551.179536 239.14488 
L 552.594523 227.623349 
L 553.302016 228.427177 
L 554.009509 247.719043 
L 554.717003 249.594641 
L 555.424496 221.728612 
L 556.131989 238.07311 
L 556.839483 246.647273 
L 557.546976 243.699904 
L 558.254469 234.589856 
L 558.961963 251.202297 
L 559.669456 246.111388 
L 560.376949 238.876938 
L 561.084443 247.4511 
L 561.791936 228.159234 
L 562.499429 234.321914 
L 563.206923 250.934354 
L 563.914416 251.470239 
L 564.621909 250.130526 
L 565.329403 239.948708 
L 566.036896 241.556364 
L 566.74439 248.790813 
L 567.451883 231.106603 
L 568.159376 249.594641 
L 568.86687 251.470239 
L 569.574363 249.058756 
L 570.281856 249.058756 
L 570.98935 241.020478 
L 571.696843 247.183158 
L 572.404336 241.288421 
L 573.11183 249.326699 
L 573.819323 251.738182 
L 574.526816 248.254928 
L 575.23431 227.087464 
L 575.941803 246.915215 
L 576.649296 241.824306 
L 577.35679 247.719043 
L 578.064283 249.862584 
L 578.771776 251.470239 
L 579.47927 244.771675 
L 580.186763 215.833876 
L 580.894256 249.862584 
L 581.60175 226.551579 
L 582.309243 243.164019 
L 583.016736 251.738182 
L 583.72423 251.470239 
L 584.431723 250.130526 
L 585.139216 248.254928 
L 585.84671 238.876938 
L 586.554203 242.092249 
L 587.261696 203.240574 
L 587.96919 249.862584 
L 588.676683 249.326699 
L 590.09167 212.082679 
L 590.799163 237.805167 
L 591.506657 246.647273 
L 592.21415 247.4511 
L 592.921643 250.666411 
L 593.629137 250.934354 
L 594.33663 249.594641 
L 595.044123 237.00134 
L 595.751617 245.575502 
L 596.45911 219.317129 
L 597.166603 237.00134 
L 597.874097 240.216651 
L 598.58159 251.202297 
L 599.289083 216.905646 
L 599.996577 211.010909 
L 600.70407 238.07311 
L 601.411563 248.522871 
L 602.119057 249.058756 
L 602.82655 250.398469 
L 603.534043 243.164019 
L 604.241537 234.053971 
L 604.94903 238.876938 
L 605.656523 235.661627 
L 606.364017 235.929569 
L 607.07151 242.360191 
L 607.779003 251.470239 
L 608.486497 234.321914 
L 609.19399 247.719043 
L 609.901483 249.594641 
L 610.608977 234.857799 
L 611.31647 244.503732 
L 612.023963 249.594641 
L 612.731457 251.202297 
L 613.43895 242.360191 
L 614.146444 241.288421 
L 614.853937 243.164019 
L 615.56143 243.699904 
L 616.268924 239.412823 
L 616.976417 251.202297 
L 617.68391 249.326699 
L 618.391404 244.503732 
L 619.098897 247.719043 
L 619.80639 244.771675 
L 620.513884 249.594641 
L 621.221377 233.518086 
L 621.92887 243.699904 
L 622.636364 250.666411 
L 622.636364 250.666411 
" clip-path="url(#pd268af2e7c)" style="fill: none; stroke: #1f77b4; stroke-width: 1.5; stroke-linecap: square"/>
   </g>
   <g id="line2d_28">
    <path d="M 115.363636 251.738182 
L 116.07113 249.594641 
L 116.778623 248.522871 
L 117.486116 249.594641 
L 118.19361 251.738182 
L 118.901103 250.130526 
L 119.608596 249.326699 
L 120.31609 249.326699 
L 121.023583 249.058756 
L 121.731076 249.594641 
L 122.43857 251.470239 
L 125.268543 249.326699 
L 125.976037 249.058756 
L 126.68353 250.130526 
L 128.098517 251.738182 
L 128.80601 249.058756 
L 129.513503 249.594641 
L 130.220997 250.666411 
L 130.92849 250.934354 
L 131.635983 250.666411 
L 132.343477 251.470239 
L 133.05097 251.202297 
L 133.758463 250.130526 
L 134.465957 251.202297 
L 135.17345 249.058756 
L 135.880943 249.862584 
L 136.588437 250.398469 
L 137.29593 251.202297 
L 138.003423 251.202297 
L 138.710917 247.719043 
L 139.41841 251.470239 
L 140.125903 251.470239 
L 140.833397 251.202297 
L 142.248383 251.738182 
L 142.955877 251.470239 
L 143.66337 249.594641 
L 144.370863 247.183158 
L 145.78585 250.130526 
L 146.493343 250.130526 
L 147.200837 251.470239 
L 147.90833 250.398469 
L 148.615824 250.130526 
L 149.323317 250.934354 
L 150.03081 247.986986 
L 151.445797 251.470239 
L 152.15329 251.738182 
L 152.860784 249.326699 
L 154.27577 249.326699 
L 154.983264 250.130526 
L 155.690757 250.398469 
L 156.39825 251.202297 
L 157.105744 251.470239 
L 157.813237 250.934354 
L 158.52073 250.666411 
L 159.228224 251.202297 
L 160.64321 251.202297 
L 161.350704 251.470239 
L 162.058197 250.934354 
L 163.473184 250.934354 
L 164.180677 251.738182 
L 164.88817 251.202297 
L 165.595664 251.202297 
L 166.303157 250.934354 
L 167.01065 249.862584 
L 167.718144 248.254928 
L 168.425637 250.130526 
L 169.13313 251.202297 
L 169.840624 250.934354 
L 170.548117 250.934354 
L 171.25561 251.202297 
L 171.963104 249.594641 
L 172.670597 248.790813 
L 173.378091 249.862584 
L 174.085584 247.183158 
L 174.793077 249.862584 
L 175.500571 250.398469 
L 176.208064 251.202297 
L 176.915557 250.666411 
L 177.623051 250.666411 
L 178.330544 248.522871 
L 179.038037 249.594641 
L 179.745531 249.326699 
L 180.453024 249.326699 
L 181.160517 250.398469 
L 181.868011 246.37933 
L 183.282997 249.326699 
L 183.990491 247.719043 
L 184.697984 246.647273 
L 185.405477 250.934354 
L 186.112971 250.666411 
L 186.820464 248.790813 
L 187.527957 250.130526 
L 188.235451 248.254928 
L 188.942944 249.594641 
L 189.650437 249.594641 
L 190.357931 250.934354 
L 191.065424 251.202297 
L 191.772917 249.058756 
L 192.480411 248.254928 
L 193.187904 248.522871 
L 193.895397 250.934354 
L 194.602891 251.470239 
L 196.017878 250.934354 
L 196.725371 250.934354 
L 197.432864 249.594641 
L 198.140358 250.398469 
L 198.847851 249.058756 
L 199.555344 250.934354 
L 200.262838 250.398469 
L 200.970331 250.934354 
L 201.677824 249.326699 
L 202.385318 249.058756 
L 203.092811 249.058756 
L 203.800304 248.254928 
L 204.507798 250.398469 
L 205.215291 250.934354 
L 205.922784 250.934354 
L 206.630278 242.896077 
L 207.337771 249.058756 
L 208.045264 249.058756 
L 208.752758 247.719043 
L 210.167744 250.666411 
L 210.875238 250.666411 
L 211.582731 246.647273 
L 212.290224 246.915215 
L 212.997718 248.522871 
L 213.705211 246.915215 
L 214.412704 247.719043 
L 215.120198 250.130526 
L 215.827691 250.934354 
L 216.535184 247.719043 
L 217.242678 246.37933 
L 217.950171 247.4511 
L 218.657665 247.719043 
L 220.072651 251.202297 
L 220.780145 250.130526 
L 221.487638 247.986986 
L 222.195131 247.986986 
L 222.902625 248.790813 
L 223.610118 250.666411 
L 225.025105 251.202297 
L 225.732598 250.130526 
L 226.440091 246.647273 
L 227.147585 247.4511 
L 227.855078 248.790813 
L 228.562571 247.183158 
L 229.270065 249.862584 
L 229.977558 251.202297 
L 231.392545 249.594641 
L 232.100038 248.522871 
L 232.807531 248.790813 
L 233.515025 247.719043 
L 234.222518 249.326699 
L 234.930011 249.594641 
L 235.637505 250.934354 
L 236.344998 245.843445 
L 237.052491 248.254928 
L 237.759985 249.058756 
L 238.467478 249.326699 
L 239.174971 249.326699 
L 239.882465 250.934354 
L 240.589958 250.398469 
L 241.297452 246.111388 
L 242.004945 244.771675 
L 242.712438 247.183158 
L 243.419932 249.058756 
L 244.127425 250.398469 
L 244.834918 249.326699 
L 245.542412 250.398469 
L 246.249905 246.647273 
L 246.957398 246.915215 
L 247.664892 230.302775 
L 248.372385 248.254928 
L 249.079878 246.915215 
L 249.787372 250.666411 
L 250.494865 251.738182 
L 251.202358 249.862584 
L 251.909852 248.522871 
L 252.617345 248.522871 
L 253.324838 248.790813 
L 254.032332 247.986986 
L 255.447318 251.202297 
L 256.154812 249.326699 
L 256.862305 248.522871 
L 257.569798 247.183158 
L 258.277292 247.4511 
L 258.984785 246.111388 
L 259.692278 250.666411 
L 260.399772 251.738182 
L 261.107265 246.111388 
L 261.814758 247.4511 
L 262.522252 249.594641 
L 263.229745 247.719043 
L 263.937238 248.522871 
L 264.644732 251.470239 
L 265.352225 250.398469 
L 266.059719 248.522871 
L 266.767212 249.594641 
L 267.474705 248.254928 
L 268.182199 246.647273 
L 269.597185 250.934354 
L 270.304679 251.202297 
L 271.012172 249.326699 
L 271.719665 247.986986 
L 272.427159 250.130526 
L 273.134652 249.594641 
L 273.842145 249.594641 
L 275.257132 250.130526 
L 275.964625 247.183158 
L 276.672119 249.058756 
L 277.379612 249.058756 
L 278.087105 250.130526 
L 278.794599 249.326699 
L 279.502092 251.202297 
L 280.209585 250.398469 
L 280.917079 248.522871 
L 281.624572 249.326699 
L 282.332065 249.058756 
L 283.039559 248.522871 
L 283.747052 249.326699 
L 284.454545 251.202297 
L 285.162039 250.934354 
L 285.869532 247.719043 
L 286.577025 250.666411 
L 287.284519 249.862584 
L 287.992012 249.326699 
L 288.699506 246.111388 
L 289.406999 251.202297 
L 290.114492 250.666411 
L 290.821986 249.862584 
L 291.529479 250.398469 
L 292.236972 249.058756 
L 292.944466 248.254928 
L 293.651959 249.326699 
L 294.359452 250.934354 
L 295.066946 250.934354 
L 295.774439 249.594641 
L 296.481932 247.4511 
L 297.189426 247.4511 
L 297.896919 250.398469 
L 298.604412 248.790813 
L 299.311906 250.666411 
L 300.019399 249.594641 
L 300.726892 247.986986 
L 301.434386 248.790813 
L 302.141879 248.790813 
L 302.849372 247.986986 
L 303.556866 248.254928 
L 304.264359 251.202297 
L 304.971852 251.738182 
L 305.679346 250.130526 
L 306.386839 250.130526 
L 307.094332 250.398469 
L 307.801826 250.398469 
L 308.509319 250.666411 
L 309.924306 251.738182 
L 310.631799 250.398469 
L 311.339293 249.594641 
L 312.046786 249.862584 
L 312.754279 248.790813 
L 313.461773 251.202297 
L 314.169266 250.398469 
L 314.876759 251.738182 
L 315.584253 250.398469 
L 316.291746 250.398469 
L 316.999239 248.522871 
L 317.706733 247.986986 
L 318.414226 249.594641 
L 319.121719 250.666411 
L 319.829213 250.666411 
L 320.536706 248.790813 
L 321.244199 249.594641 
L 321.951693 249.862584 
L 322.659186 249.862584 
L 323.366679 249.058756 
L 324.074173 249.326699 
L 324.781666 250.666411 
L 325.489159 248.522871 
L 326.196653 251.470239 
L 326.904146 249.862584 
L 327.611639 249.862584 
L 328.319133 251.202297 
L 329.026626 250.934354 
L 329.734119 250.130526 
L 330.441613 250.130526 
L 331.149106 249.326699 
L 331.856599 249.594641 
L 332.564093 251.202297 
L 333.271586 250.934354 
L 333.979079 251.470239 
L 334.686573 250.398469 
L 335.394066 250.130526 
L 336.10156 248.790813 
L 336.809053 249.326699 
L 337.516546 250.398469 
L 338.22404 250.934354 
L 338.931533 250.398469 
L 339.639026 251.470239 
L 340.34652 250.934354 
L 341.054013 249.326699 
L 341.761506 250.130526 
L 342.469 251.202297 
L 343.176493 248.522871 
L 343.883986 251.470239 
L 344.59148 251.202297 
L 345.298973 248.254928 
L 346.71396 249.326699 
L 347.421453 250.398469 
L 348.128946 249.862584 
L 348.83644 251.202297 
L 349.543933 250.666411 
L 350.251426 247.986986 
L 350.95892 249.862584 
L 351.666413 249.326699 
L 352.373906 249.862584 
L 353.0814 249.862584 
L 353.788893 251.470239 
L 354.496386 251.470239 
L 355.20388 250.934354 
L 355.911373 248.522871 
L 357.32636 248.522871 
L 358.033853 249.862584 
L 358.741347 249.862584 
L 359.44884 249.058756 
L 360.156333 248.790813 
L 360.863827 247.4511 
L 361.57132 249.594641 
L 362.278813 247.719043 
L 362.986307 250.130526 
L 363.6938 251.202297 
L 364.401293 250.398469 
L 365.108787 249.862584 
L 365.81628 248.254928 
L 366.523773 248.522871 
L 367.231267 249.326699 
L 367.93876 249.862584 
L 368.646253 250.130526 
L 369.353747 247.719043 
L 370.06124 248.522871 
L 370.768733 250.666411 
L 371.476227 249.594641 
L 372.891213 249.058756 
L 373.598707 249.594641 
L 374.3062 247.719043 
L 375.013693 250.130526 
L 375.721187 250.398469 
L 376.42868 248.522871 
L 377.136173 249.058756 
L 377.843667 250.934354 
L 378.55116 250.398469 
L 379.258653 249.594641 
L 379.966147 250.934354 
L 380.67364 249.326699 
L 381.381134 248.790813 
L 382.088627 249.058756 
L 382.79612 251.202297 
L 383.503614 251.202297 
L 384.211107 249.326699 
L 384.9186 250.398469 
L 385.626094 247.986986 
L 387.04108 250.130526 
L 387.748574 250.666411 
L 388.456067 250.130526 
L 389.16356 249.058756 
L 389.871054 247.4511 
L 390.578547 248.522871 
L 391.28604 247.986986 
L 391.993534 249.058756 
L 392.701027 250.666411 
L 393.40852 250.934354 
L 394.116014 249.326699 
L 394.823507 250.666411 
L 395.531 249.862584 
L 396.238494 250.130526 
L 396.945987 251.470239 
L 397.65348 250.934354 
L 398.360974 250.934354 
L 399.068467 251.470239 
L 399.77596 249.594641 
L 400.483454 250.398469 
L 401.190947 249.058756 
L 401.89844 250.666411 
L 402.605934 251.202297 
L 403.313427 249.058756 
L 404.020921 249.594641 
L 404.728414 249.594641 
L 405.435907 246.915215 
L 406.143401 246.647273 
L 406.850894 250.398469 
L 407.558387 250.398469 
L 408.265881 248.790813 
L 408.973374 248.790813 
L 409.680867 249.862584 
L 410.388361 249.326699 
L 411.095854 250.398469 
L 411.803347 250.666411 
L 412.510841 250.666411 
L 413.218334 248.254928 
L 413.925827 249.862584 
L 414.633321 250.666411 
L 415.340814 250.934354 
L 416.048307 249.594641 
L 416.755801 251.738182 
L 417.463294 251.470239 
L 418.170787 250.934354 
L 418.878281 250.934354 
L 419.585774 251.202297 
L 420.293267 250.666411 
L 421.000761 251.202297 
L 421.708254 250.398469 
L 422.415747 244.771675 
L 423.123241 247.4511 
L 423.830734 249.326699 
L 425.953214 250.934354 
L 426.660707 251.738182 
L 427.368201 249.594641 
L 428.075694 249.594641 
L 428.783188 249.058756 
L 429.490681 246.111388 
L 430.198174 250.666411 
L 430.905668 251.738182 
L 431.613161 251.470239 
L 432.320654 250.666411 
L 433.028148 248.254928 
L 433.735641 250.934354 
L 434.443134 250.130526 
L 435.150628 248.522871 
L 435.858121 251.202297 
L 436.565614 251.202297 
L 437.273108 250.130526 
L 437.980601 247.986986 
L 438.688094 248.790813 
L 439.395588 249.862584 
L 440.103081 249.326699 
L 440.810574 250.934354 
L 441.518068 250.666411 
L 442.225561 248.254928 
L 442.933054 249.326699 
L 443.640548 247.183158 
L 444.348041 246.647273 
L 445.055534 247.183158 
L 445.763028 251.202297 
L 446.470521 251.738182 
L 447.178014 247.986986 
L 447.885508 246.111388 
L 448.593001 247.986986 
L 449.300494 246.647273 
L 450.007988 243.431962 
L 450.715481 249.594641 
L 451.422975 249.326699 
L 452.130468 247.4511 
L 452.837961 247.183158 
L 453.545455 248.254928 
L 454.252948 248.790813 
L 454.960441 247.986986 
L 455.667935 249.862584 
L 456.375428 250.934354 
L 457.082921 247.719043 
L 458.497908 248.254928 
L 459.205401 246.915215 
L 459.912895 247.4511 
L 460.620388 247.719043 
L 461.327881 250.666411 
L 462.035375 245.843445 
L 462.742868 245.843445 
L 463.450361 243.967847 
L 464.157855 247.183158 
L 464.865348 247.183158 
L 465.572841 249.862584 
L 466.280335 249.058756 
L 466.987828 247.986986 
L 467.695321 245.843445 
L 468.402815 248.522871 
L 469.110308 249.058756 
L 469.817801 249.326699 
L 470.525295 249.326699 
L 471.232788 249.862584 
L 471.940281 246.647273 
L 472.647775 247.183158 
L 473.355268 245.039617 
L 474.062762 247.986986 
L 474.770255 247.183158 
L 475.477748 250.934354 
L 476.185242 251.202297 
L 476.892735 243.967847 
L 477.600228 247.4511 
L 478.307722 245.575502 
L 479.015215 246.37933 
L 479.722708 249.594641 
L 480.430202 250.398469 
L 481.137695 250.398469 
L 481.845188 248.522871 
L 482.552682 249.326699 
L 483.260175 247.183158 
L 483.967668 246.915215 
L 484.675162 249.594641 
L 485.382655 249.862584 
L 486.090148 251.738182 
L 486.797642 248.522871 
L 487.505135 248.254928 
L 488.212628 249.058756 
L 488.920122 244.771675 
L 489.627615 249.326699 
L 490.335108 251.470239 
L 491.042602 250.934354 
L 491.750095 249.058756 
L 492.457588 249.594641 
L 493.165082 249.594641 
L 493.872575 250.666411 
L 494.580068 250.666411 
L 495.287562 251.202297 
L 495.995055 250.666411 
L 496.702548 249.326699 
L 497.410042 249.058756 
L 498.117535 249.326699 
L 498.825029 250.130526 
L 499.532522 249.594641 
L 500.240015 250.666411 
L 500.947509 249.594641 
L 501.655002 248.790813 
L 502.362495 248.522871 
L 503.069989 248.522871 
L 503.777482 249.862584 
L 504.484975 246.915215 
L 505.192469 251.470239 
L 505.899962 251.470239 
L 506.607455 249.058756 
L 507.314949 250.398469 
L 508.022442 250.398469 
L 508.729935 248.254928 
L 510.144922 251.202297 
L 510.852415 250.398469 
L 511.559909 249.326699 
L 512.267402 248.522871 
L 512.974895 249.058756 
L 513.682389 247.4511 
L 514.389882 249.594641 
L 515.097375 250.934354 
L 515.804869 250.130526 
L 516.512362 246.647273 
L 517.219855 247.986986 
L 517.927349 250.666411 
L 518.634842 250.130526 
L 519.342335 248.522871 
L 520.757322 251.470239 
L 521.464816 249.594641 
L 522.172309 250.130526 
L 522.879802 249.594641 
L 523.587296 248.790813 
L 524.294789 250.398469 
L 525.002282 251.470239 
L 525.709776 251.470239 
L 526.417269 250.666411 
L 527.124762 250.130526 
L 527.832256 250.130526 
L 528.539749 249.058756 
L 529.247242 251.470239 
L 529.954736 250.934354 
L 530.662229 251.738182 
L 531.369722 250.398469 
L 532.077216 249.862584 
L 532.784709 249.594641 
L 533.492202 248.522871 
L 534.199696 251.202297 
L 534.907189 251.470239 
L 535.614682 249.326699 
L 536.322176 249.594641 
L 537.029669 250.130526 
L 537.737162 250.398469 
L 538.444656 249.862584 
L 539.152149 251.470239 
L 539.859642 251.738182 
L 540.567136 250.934354 
L 541.274629 250.398469 
L 541.982122 249.058756 
L 542.689616 251.202297 
L 543.397109 250.666411 
L 544.104603 251.470239 
L 544.812096 251.202297 
L 545.519589 250.130526 
L 546.227083 249.594641 
L 546.934576 250.130526 
L 547.642069 249.058756 
L 548.349563 250.666411 
L 549.057056 251.470239 
L 549.764549 250.130526 
L 550.472043 251.202297 
L 551.179536 250.666411 
L 551.887029 250.666411 
L 552.594523 248.522871 
L 553.302016 249.594641 
L 554.009509 250.934354 
L 554.717003 251.202297 
L 555.424496 249.594641 
L 556.131989 249.594641 
L 556.839483 250.666411 
L 557.546976 249.594641 
L 558.254469 249.594641 
L 558.961963 251.470239 
L 559.669456 249.594641 
L 560.376949 249.326699 
L 561.084443 250.666411 
L 561.791936 249.594641 
L 562.499429 249.326699 
L 563.206923 251.202297 
L 563.914416 251.738182 
L 564.621909 250.130526 
L 565.329403 249.594641 
L 566.036896 250.666411 
L 567.451883 250.130526 
L 568.159376 250.666411 
L 568.86687 251.470239 
L 569.574363 250.130526 
L 570.281856 250.130526 
L 570.98935 249.326699 
L 571.696843 249.862584 
L 572.404336 249.862584 
L 573.11183 250.934354 
L 573.819323 251.738182 
L 574.526816 251.202297 
L 575.23431 250.398469 
L 575.941803 250.398469 
L 576.649296 250.934354 
L 577.35679 250.130526 
L 578.064283 250.934354 
L 578.771776 251.470239 
L 579.47927 250.398469 
L 580.186763 249.862584 
L 580.894256 250.130526 
L 581.60175 249.058756 
L 582.309243 249.594641 
L 583.016736 251.738182 
L 583.72423 251.470239 
L 584.431723 250.398469 
L 585.139216 249.862584 
L 585.84671 249.058756 
L 586.554203 249.594641 
L 587.261696 245.039617 
L 587.96919 251.202297 
L 588.676683 250.666411 
L 590.09167 247.183158 
L 590.799163 248.790813 
L 591.506657 249.862584 
L 592.21415 250.398469 
L 592.921643 251.202297 
L 593.629137 251.202297 
L 594.33663 250.130526 
L 595.044123 248.254928 
L 595.751617 249.862584 
L 596.45911 246.915215 
L 597.166603 246.915215 
L 597.874097 251.202297 
L 598.58159 251.470239 
L 599.289083 246.37933 
L 599.996577 246.915215 
L 600.70407 247.183158 
L 601.411563 249.594641 
L 602.119057 250.130526 
L 602.82655 251.202297 
L 603.534043 249.594641 
L 604.241537 248.522871 
L 604.94903 249.862584 
L 605.656523 246.111388 
L 607.07151 250.666411 
L 607.779003 251.470239 
L 608.486497 247.986986 
L 609.901483 250.666411 
L 610.608977 248.254928 
L 611.31647 249.862584 
L 612.023963 250.934354 
L 612.731457 251.202297 
L 613.43895 249.862584 
L 614.146444 248.790813 
L 615.56143 249.862584 
L 616.268924 249.594641 
L 616.976417 251.202297 
L 617.68391 251.202297 
L 618.391404 249.058756 
L 619.098897 249.058756 
L 619.80639 249.326699 
L 620.513884 250.398469 
L 621.221377 248.790813 
L 622.636364 251.470239 
L 622.636364 251.470239 
" clip-path="url(#pd268af2e7c)" style="fill: none; stroke: #ff7f0e; stroke-width: 1.5; stroke-linecap: square"/>
   </g>
   <g id="patch_9">
    <path d="M 90 256.32 
L 90 155.52 
" style="fill: none; stroke: #000000; stroke-width: 0.8; stroke-linejoin: miter; stroke-linecap: square"/>
   </g>
   <g id="patch_10">
    <path d="M 648 256.32 
L 648 155.52 
" style="fill: none; stroke: #000000; stroke-width: 0.8; stroke-linejoin: miter; stroke-linecap: square"/>
   </g>
   <g id="patch_11">
    <path d="M 90 256.32 
L 648 256.32 
" style="fill: none; stroke: #000000; stroke-width: 0.8; stroke-linejoin: miter; stroke-linecap: square"/>
   </g>
   <g id="patch_12">
    <path d="M 90 155.52 
L 648 155.52 
" style="fill: none; stroke: #000000; stroke-width: 0.8; stroke-linejoin: miter; stroke-linecap: square"/>
   </g>
   <g id="legend_2">
    <g id="patch_13">
     <path d="M 503.782812 192.87625 
L 641 192.87625 
Q 643 192.87625 643 190.87625 
L 643 162.52 
Q 643 160.52 641 160.52 
L 503.782812 160.52 
Q 501.782812 160.52 501.782812 162.52 
L 501.782812 190.87625 
Q 501.782812 192.87625 503.782812 192.87625 
z
" style="fill: #ffffff; opacity: 0.8; stroke: #cccccc; stroke-linejoin: miter"/>
    </g>
    <g id="line2d_29">
     <path d="M 505.782812 168.618437 
L 515.782812 168.618437 
L 525.782812 168.618437 
" style="fill: none; stroke: #1f77b4; stroke-width: 1.5; stroke-linecap: square"/>
    </g>
    <g id="text_27">
     <!-- Total GitHub Views -->
     <g transform="translate(533.782812 172.118437) scale(0.1 -0.1)">
      <defs>
       <path id="DejaVuSans-56" d="M 1831 0 
L 50 4666 
L 709 4666 
L 2188 738 
L 3669 4666 
L 4325 4666 
L 2547 0 
L 1831 0 
z
" transform="scale(0.015625)"/>
       <path id="DejaVuSans-77" d="M 269 3500 
L 844 3500 
L 1563 769 
L 2278 3500 
L 2956 3500 
L 3675 769 
L 4391 3500 
L 4966 3500 
L 4050 0 
L 3372 0 
L 2619 2869 
L 1863 0 
L 1184 0 
L 269 3500 
z
" transform="scale(0.015625)"/>
      </defs>
      <use xlink:href="#DejaVuSans-54"/>
      <use xlink:href="#DejaVuSans-6f" x="44.083984"/>
      <use xlink:href="#DejaVuSans-74" x="105.265625"/>
      <use xlink:href="#DejaVuSans-61" x="144.474609"/>
      <use xlink:href="#DejaVuSans-6c" x="205.753906"/>
      <use xlink:href="#DejaVuSans-20" x="233.537109"/>
      <use xlink:href="#DejaVuSans-47" x="265.324219"/>
      <use xlink:href="#DejaVuSans-69" x="342.814453"/>
      <use xlink:href="#DejaVuSans-74" x="370.597656"/>
      <use xlink:href="#DejaVuSans-48" x="409.806641"/>
      <use xlink:href="#DejaVuSans-75" x="485.001953"/>
      <use xlink:href="#DejaVuSans-62" x="548.380859"/>
      <use xlink:href="#DejaVuSans-20" x="611.857422"/>
      <use xlink:href="#DejaVuSans-56" x="643.644531"/>
      <use xlink:href="#DejaVuSans-69" x="709.802734"/>
      <use xlink:href="#DejaVuSans-65" x="737.585938"/>
      <use xlink:href="#DejaVuSans-77" x="799.109375"/>
      <use xlink:href="#DejaVuSans-73" x="880.896484"/>
     </g>
    </g>
    <g id="line2d_30">
     <path d="M 505.782812 183.296562 
L 515.782812 183.296562 
L 525.782812 183.296562 
" style="fill: none; stroke: #ff7f0e; stroke-width: 1.5; stroke-linecap: square"/>
    </g>
    <g id="text_28">
     <!-- Unique GitHub Views -->
     <g transform="translate(533.782812 186.796562) scale(0.1 -0.1)">
      <use xlink:href="#DejaVuSans-55"/>
      <use xlink:href="#DejaVuSans-6e" x="73.193359"/>
      <use xlink:href="#DejaVuSans-69" x="136.572266"/>
      <use xlink:href="#DejaVuSans-71" x="164.355469"/>
      <use xlink:href="#DejaVuSans-75" x="227.832031"/>
      <use xlink:href="#DejaVuSans-65" x="291.210938"/>
      <use xlink:href="#DejaVuSans-20" x="352.734375"/>
      <use xlink:href="#DejaVuSans-47" x="384.521484"/>
      <use xlink:href="#DejaVuSans-69" x="462.011719"/>
      <use xlink:href="#DejaVuSans-74" x="489.794922"/>
      <use xlink:href="#DejaVuSans-48" x="529.003906"/>
      <use xlink:href="#DejaVuSans-75" x="604.199219"/>
      <use xlink:href="#DejaVuSans-62" x="667.578125"/>
      <use xlink:href="#DejaVuSans-20" x="731.054688"/>
      <use xlink:href="#DejaVuSans-56" x="762.841797"/>
      <use xlink:href="#DejaVuSans-69" x="829"/>
      <use xlink:href="#DejaVuSans-65" x="856.783203"/>
      <use xlink:href="#DejaVuSans-77" x="918.306641"/>
      <use xlink:href="#DejaVuSans-73" x="1000.09375"/>
     </g>
    </g>
   </g>
  </g>
 </g>
 <defs>
  <clipPath id="pa6d8084d83">
   <rect x="90" y="34.56" width="558" height="100.8"/>
  </clipPath>
  <clipPath id="pd268af2e7c">
   <rect x="90" y="155.52" width="558" height="100.8"/>
  </clipPath>
 </defs>
</svg>
