<?xml version="1.0" encoding="utf-8" standalone="no"?>
<!DOCTYPE svg PUBLIC "-//W3C//DTD SVG 1.1//EN"
  "http://www.w3.org/Graphics/SVG/1.1/DTD/svg11.dtd">
<svg height="288pt" version="1.1" viewBox="0 0 720 288" width="720pt" xmlns="http://www.w3.org/2000/svg" xmlns:xlink="http://www.w3.org/1999/xlink">
 <metadata>
  <rdf:RDF xmlns:cc="http://creativecommons.org/ns#" xmlns:dc="http://purl.org/dc/elements/1.1/" xmlns:rdf="http://www.w3.org/1999/02/22-rdf-syntax-ns#">
   <cc:Work>
    <dc:type rdf:resource="http://purl.org/dc/dcmitype/StillImage"/>
    <dc:date>2021-06-28T00:00:12.841300</dc:date>
    <dc:format>image/svg+xml</dc:format>
    <dc:creator>
     <cc:Agent>
      <dc:title>Matplotlib v3.4.2, https://matplotlib.org/</dc:title>
     </cc:Agent>
    </dc:creator>
   </cc:Work>
  </rdf:RDF>
 </metadata>
 <defs>
  <style type="text/css">*{stroke-linecap:butt;stroke-linejoin:round;}</style>
 </defs>
 <g id="figure_1">
  <g id="patch_1">
   <path d="M 0 288 
L 720 288 
L 720 0 
L 0 0 
z
" style="fill:#ffffff;"/>
  </g>
  <g id="axes_1">
   <g id="patch_2">
    <path d="M 90 135.36 
L 648 135.36 
L 648 34.56 
L 90 34.56 
z
" style="fill:#ffffff;"/>
   </g>
   <g id="matplotlib.axis_1">
    <g id="xtick_1">
     <g id="line2d_1">
      <defs>
       <path d="M 0 0 
L 0 3.5 
" id="m4aaf4c9232" style="stroke:#000000;stroke-width:0.8;"/>
      </defs>
      <g>
       <use style="stroke:#000000;stroke-width:0.8;" x="115.363636" xlink:href="#m4aaf4c9232" y="135.36"/>
      </g>
     </g>
     <g id="text_1">
      <!-- 2020-10-22 -->
      <g transform="translate(86.305824 149.958437)scale(0.1 -0.1)">
       <defs>
        <path d="M 1228 531 
L 3431 531 
L 3431 0 
L 469 0 
L 469 531 
Q 828 903 1448 1529 
Q 2069 2156 2228 2338 
Q 2531 2678 2651 2914 
Q 2772 3150 2772 3378 
Q 2772 3750 2511 3984 
Q 2250 4219 1831 4219 
Q 1534 4219 1204 4116 
Q 875 4013 500 3803 
L 500 4441 
Q 881 4594 1212 4672 
Q 1544 4750 1819 4750 
Q 2544 4750 2975 4387 
Q 3406 4025 3406 3419 
Q 3406 3131 3298 2873 
Q 3191 2616 2906 2266 
Q 2828 2175 2409 1742 
Q 1991 1309 1228 531 
z
" id="DejaVuSans-32" transform="scale(0.015625)"/>
        <path d="M 2034 4250 
Q 1547 4250 1301 3770 
Q 1056 3291 1056 2328 
Q 1056 1369 1301 889 
Q 1547 409 2034 409 
Q 2525 409 2770 889 
Q 3016 1369 3016 2328 
Q 3016 3291 2770 3770 
Q 2525 4250 2034 4250 
z
M 2034 4750 
Q 2819 4750 3233 4129 
Q 3647 3509 3647 2328 
Q 3647 1150 3233 529 
Q 2819 -91 2034 -91 
Q 1250 -91 836 529 
Q 422 1150 422 2328 
Q 422 3509 836 4129 
Q 1250 4750 2034 4750 
z
" id="DejaVuSans-30" transform="scale(0.015625)"/>
        <path d="M 313 2009 
L 1997 2009 
L 1997 1497 
L 313 1497 
L 313 2009 
z
" id="DejaVuSans-2d" transform="scale(0.015625)"/>
        <path d="M 794 531 
L 1825 531 
L 1825 4091 
L 703 3866 
L 703 4441 
L 1819 4666 
L 2450 4666 
L 2450 531 
L 3481 531 
L 3481 0 
L 794 0 
L 794 531 
z
" id="DejaVuSans-31" transform="scale(0.015625)"/>
       </defs>
       <use xlink:href="#DejaVuSans-32"/>
       <use x="63.623047" xlink:href="#DejaVuSans-30"/>
       <use x="127.246094" xlink:href="#DejaVuSans-32"/>
       <use x="190.869141" xlink:href="#DejaVuSans-30"/>
       <use x="254.492188" xlink:href="#DejaVuSans-2d"/>
       <use x="290.576172" xlink:href="#DejaVuSans-31"/>
       <use x="354.199219" xlink:href="#DejaVuSans-30"/>
       <use x="417.822266" xlink:href="#DejaVuSans-2d"/>
       <use x="453.90625" xlink:href="#DejaVuSans-32"/>
       <use x="517.529297" xlink:href="#DejaVuSans-32"/>
      </g>
     </g>
    </g>
    <g id="xtick_2">
     <g id="line2d_2">
      <g>
       <use style="stroke:#000000;stroke-width:0.8;" x="237.893281" xlink:href="#m4aaf4c9232" y="135.36"/>
      </g>
     </g>
     <g id="text_2">
      <!-- 2021-01-05 -->
      <g transform="translate(208.835468 149.958437)scale(0.1 -0.1)">
       <defs>
        <path d="M 691 4666 
L 3169 4666 
L 3169 4134 
L 1269 4134 
L 1269 2991 
Q 1406 3038 1543 3061 
Q 1681 3084 1819 3084 
Q 2600 3084 3056 2656 
Q 3513 2228 3513 1497 
Q 3513 744 3044 326 
Q 2575 -91 1722 -91 
Q 1428 -91 1123 -41 
Q 819 9 494 109 
L 494 744 
Q 775 591 1075 516 
Q 1375 441 1709 441 
Q 2250 441 2565 725 
Q 2881 1009 2881 1497 
Q 2881 1984 2565 2268 
Q 2250 2553 1709 2553 
Q 1456 2553 1204 2497 
Q 953 2441 691 2322 
L 691 4666 
z
" id="DejaVuSans-35" transform="scale(0.015625)"/>
       </defs>
       <use xlink:href="#DejaVuSans-32"/>
       <use x="63.623047" xlink:href="#DejaVuSans-30"/>
       <use x="127.246094" xlink:href="#DejaVuSans-32"/>
       <use x="190.869141" xlink:href="#DejaVuSans-31"/>
       <use x="254.492188" xlink:href="#DejaVuSans-2d"/>
       <use x="290.576172" xlink:href="#DejaVuSans-30"/>
       <use x="354.199219" xlink:href="#DejaVuSans-31"/>
       <use x="417.822266" xlink:href="#DejaVuSans-2d"/>
       <use x="453.90625" xlink:href="#DejaVuSans-30"/>
       <use x="517.529297" xlink:href="#DejaVuSans-35"/>
      </g>
     </g>
    </g>
    <g id="xtick_3">
     <g id="line2d_3">
      <g>
       <use style="stroke:#000000;stroke-width:0.8;" x="360.422925" xlink:href="#m4aaf4c9232" y="135.36"/>
      </g>
     </g>
     <g id="text_3">
      <!-- 2021-03-17 -->
      <g transform="translate(331.365112 149.958437)scale(0.1 -0.1)">
       <defs>
        <path d="M 2597 2516 
Q 3050 2419 3304 2112 
Q 3559 1806 3559 1356 
Q 3559 666 3084 287 
Q 2609 -91 1734 -91 
Q 1441 -91 1130 -33 
Q 819 25 488 141 
L 488 750 
Q 750 597 1062 519 
Q 1375 441 1716 441 
Q 2309 441 2620 675 
Q 2931 909 2931 1356 
Q 2931 1769 2642 2001 
Q 2353 2234 1838 2234 
L 1294 2234 
L 1294 2753 
L 1863 2753 
Q 2328 2753 2575 2939 
Q 2822 3125 2822 3475 
Q 2822 3834 2567 4026 
Q 2313 4219 1838 4219 
Q 1578 4219 1281 4162 
Q 984 4106 628 3988 
L 628 4550 
Q 988 4650 1302 4700 
Q 1616 4750 1894 4750 
Q 2613 4750 3031 4423 
Q 3450 4097 3450 3541 
Q 3450 3153 3228 2886 
Q 3006 2619 2597 2516 
z
" id="DejaVuSans-33" transform="scale(0.015625)"/>
        <path d="M 525 4666 
L 3525 4666 
L 3525 4397 
L 1831 0 
L 1172 0 
L 2766 4134 
L 525 4134 
L 525 4666 
z
" id="DejaVuSans-37" transform="scale(0.015625)"/>
       </defs>
       <use xlink:href="#DejaVuSans-32"/>
       <use x="63.623047" xlink:href="#DejaVuSans-30"/>
       <use x="127.246094" xlink:href="#DejaVuSans-32"/>
       <use x="190.869141" xlink:href="#DejaVuSans-31"/>
       <use x="254.492188" xlink:href="#DejaVuSans-2d"/>
       <use x="290.576172" xlink:href="#DejaVuSans-30"/>
       <use x="354.199219" xlink:href="#DejaVuSans-33"/>
       <use x="417.822266" xlink:href="#DejaVuSans-2d"/>
       <use x="453.90625" xlink:href="#DejaVuSans-31"/>
       <use x="517.529297" xlink:href="#DejaVuSans-37"/>
      </g>
     </g>
    </g>
    <g id="xtick_4">
     <g id="line2d_4">
      <g>
       <use style="stroke:#000000;stroke-width:0.8;" x="482.952569" xlink:href="#m4aaf4c9232" y="135.36"/>
      </g>
     </g>
     <g id="text_4">
      <!-- 2021-05-03 -->
      <g transform="translate(453.894757 149.958437)scale(0.1 -0.1)">
       <use xlink:href="#DejaVuSans-32"/>
       <use x="63.623047" xlink:href="#DejaVuSans-30"/>
       <use x="127.246094" xlink:href="#DejaVuSans-32"/>
       <use x="190.869141" xlink:href="#DejaVuSans-31"/>
       <use x="254.492188" xlink:href="#DejaVuSans-2d"/>
       <use x="290.576172" xlink:href="#DejaVuSans-30"/>
       <use x="354.199219" xlink:href="#DejaVuSans-35"/>
       <use x="417.822266" xlink:href="#DejaVuSans-2d"/>
       <use x="453.90625" xlink:href="#DejaVuSans-30"/>
       <use x="517.529297" xlink:href="#DejaVuSans-33"/>
      </g>
     </g>
    </g>
    <g id="xtick_5">
     <g id="line2d_5">
      <g>
       <use style="stroke:#000000;stroke-width:0.8;" x="605.482213" xlink:href="#m4aaf4c9232" y="135.36"/>
      </g>
     </g>
     <g id="text_5">
      <!-- 2021-06-20 -->
      <g transform="translate(576.424401 149.958437)scale(0.1 -0.1)">
       <defs>
        <path d="M 2113 2584 
Q 1688 2584 1439 2293 
Q 1191 2003 1191 1497 
Q 1191 994 1439 701 
Q 1688 409 2113 409 
Q 2538 409 2786 701 
Q 3034 994 3034 1497 
Q 3034 2003 2786 2293 
Q 2538 2584 2113 2584 
z
M 3366 4563 
L 3366 3988 
Q 3128 4100 2886 4159 
Q 2644 4219 2406 4219 
Q 1781 4219 1451 3797 
Q 1122 3375 1075 2522 
Q 1259 2794 1537 2939 
Q 1816 3084 2150 3084 
Q 2853 3084 3261 2657 
Q 3669 2231 3669 1497 
Q 3669 778 3244 343 
Q 2819 -91 2113 -91 
Q 1303 -91 875 529 
Q 447 1150 447 2328 
Q 447 3434 972 4092 
Q 1497 4750 2381 4750 
Q 2619 4750 2861 4703 
Q 3103 4656 3366 4563 
z
" id="DejaVuSans-36" transform="scale(0.015625)"/>
       </defs>
       <use xlink:href="#DejaVuSans-32"/>
       <use x="63.623047" xlink:href="#DejaVuSans-30"/>
       <use x="127.246094" xlink:href="#DejaVuSans-32"/>
       <use x="190.869141" xlink:href="#DejaVuSans-31"/>
       <use x="254.492188" xlink:href="#DejaVuSans-2d"/>
       <use x="290.576172" xlink:href="#DejaVuSans-30"/>
       <use x="354.199219" xlink:href="#DejaVuSans-36"/>
       <use x="417.822266" xlink:href="#DejaVuSans-2d"/>
       <use x="453.90625" xlink:href="#DejaVuSans-32"/>
       <use x="517.529297" xlink:href="#DejaVuSans-30"/>
      </g>
     </g>
    </g>
    <g id="text_6">
     <!-- _date -->
     <g transform="translate(355.225 163.636562)scale(0.1 -0.1)">
      <defs>
       <path d="M 3263 -1063 
L 3263 -1509 
L -63 -1509 
L -63 -1063 
L 3263 -1063 
z
" id="DejaVuSans-5f" transform="scale(0.015625)"/>
       <path d="M 2906 2969 
L 2906 4863 
L 3481 4863 
L 3481 0 
L 2906 0 
L 2906 525 
Q 2725 213 2448 61 
Q 2172 -91 1784 -91 
Q 1150 -91 751 415 
Q 353 922 353 1747 
Q 353 2572 751 3078 
Q 1150 3584 1784 3584 
Q 2172 3584 2448 3432 
Q 2725 3281 2906 2969 
z
M 947 1747 
Q 947 1113 1208 752 
Q 1469 391 1925 391 
Q 2381 391 2643 752 
Q 2906 1113 2906 1747 
Q 2906 2381 2643 2742 
Q 2381 3103 1925 3103 
Q 1469 3103 1208 2742 
Q 947 2381 947 1747 
z
" id="DejaVuSans-64" transform="scale(0.015625)"/>
       <path d="M 2194 1759 
Q 1497 1759 1228 1600 
Q 959 1441 959 1056 
Q 959 750 1161 570 
Q 1363 391 1709 391 
Q 2188 391 2477 730 
Q 2766 1069 2766 1631 
L 2766 1759 
L 2194 1759 
z
M 3341 1997 
L 3341 0 
L 2766 0 
L 2766 531 
Q 2569 213 2275 61 
Q 1981 -91 1556 -91 
Q 1019 -91 701 211 
Q 384 513 384 1019 
Q 384 1609 779 1909 
Q 1175 2209 1959 2209 
L 2766 2209 
L 2766 2266 
Q 2766 2663 2505 2880 
Q 2244 3097 1772 3097 
Q 1472 3097 1187 3025 
Q 903 2953 641 2809 
L 641 3341 
Q 956 3463 1253 3523 
Q 1550 3584 1831 3584 
Q 2591 3584 2966 3190 
Q 3341 2797 3341 1997 
z
" id="DejaVuSans-61" transform="scale(0.015625)"/>
       <path d="M 1172 4494 
L 1172 3500 
L 2356 3500 
L 2356 3053 
L 1172 3053 
L 1172 1153 
Q 1172 725 1289 603 
Q 1406 481 1766 481 
L 2356 481 
L 2356 0 
L 1766 0 
Q 1100 0 847 248 
Q 594 497 594 1153 
L 594 3053 
L 172 3053 
L 172 3500 
L 594 3500 
L 594 4494 
L 1172 4494 
z
" id="DejaVuSans-74" transform="scale(0.015625)"/>
       <path d="M 3597 1894 
L 3597 1613 
L 953 1613 
Q 991 1019 1311 708 
Q 1631 397 2203 397 
Q 2534 397 2845 478 
Q 3156 559 3463 722 
L 3463 178 
Q 3153 47 2828 -22 
Q 2503 -91 2169 -91 
Q 1331 -91 842 396 
Q 353 884 353 1716 
Q 353 2575 817 3079 
Q 1281 3584 2069 3584 
Q 2775 3584 3186 3129 
Q 3597 2675 3597 1894 
z
M 3022 2063 
Q 3016 2534 2758 2815 
Q 2500 3097 2075 3097 
Q 1594 3097 1305 2825 
Q 1016 2553 972 2059 
L 3022 2063 
z
" id="DejaVuSans-65" transform="scale(0.015625)"/>
      </defs>
      <use xlink:href="#DejaVuSans-5f"/>
      <use x="50" xlink:href="#DejaVuSans-64"/>
      <use x="113.476562" xlink:href="#DejaVuSans-61"/>
      <use x="174.755859" xlink:href="#DejaVuSans-74"/>
      <use x="213.964844" xlink:href="#DejaVuSans-65"/>
     </g>
    </g>
   </g>
   <g id="matplotlib.axis_2">
    <g id="ytick_1">
     <g id="line2d_6">
      <defs>
       <path d="M 0 0 
L -3.5 0 
" id="md75b24089d" style="stroke:#000000;stroke-width:0.8;"/>
      </defs>
      <g>
       <use style="stroke:#000000;stroke-width:0.8;" x="90" xlink:href="#md75b24089d" y="131.401558"/>
      </g>
     </g>
     <g id="text_7">
      <!-- 0 -->
      <g transform="translate(76.6375 135.200777)scale(0.1 -0.1)">
       <use xlink:href="#DejaVuSans-30"/>
      </g>
     </g>
    </g>
    <g id="ytick_2">
     <g id="line2d_7">
      <g>
       <use style="stroke:#000000;stroke-width:0.8;" x="90" xlink:href="#md75b24089d" y="100.232727"/>
      </g>
     </g>
     <g id="text_8">
      <!-- 50 -->
      <g transform="translate(70.275 104.031946)scale(0.1 -0.1)">
       <use xlink:href="#DejaVuSans-35"/>
       <use x="63.623047" xlink:href="#DejaVuSans-30"/>
      </g>
     </g>
    </g>
    <g id="ytick_3">
     <g id="line2d_8">
      <g>
       <use style="stroke:#000000;stroke-width:0.8;" x="90" xlink:href="#md75b24089d" y="69.063896"/>
      </g>
     </g>
     <g id="text_9">
      <!-- 100 -->
      <g transform="translate(63.9125 72.863115)scale(0.1 -0.1)">
       <use xlink:href="#DejaVuSans-31"/>
       <use x="63.623047" xlink:href="#DejaVuSans-30"/>
       <use x="127.246094" xlink:href="#DejaVuSans-30"/>
      </g>
     </g>
    </g>
    <g id="ytick_4">
     <g id="line2d_9">
      <g>
       <use style="stroke:#000000;stroke-width:0.8;" x="90" xlink:href="#md75b24089d" y="37.895065"/>
      </g>
     </g>
     <g id="text_10">
      <!-- 150 -->
      <g transform="translate(63.9125 41.694284)scale(0.1 -0.1)">
       <use xlink:href="#DejaVuSans-31"/>
       <use x="63.623047" xlink:href="#DejaVuSans-35"/>
       <use x="127.246094" xlink:href="#DejaVuSans-30"/>
      </g>
     </g>
    </g>
   </g>
   <g id="line2d_10">
    <path clip-path="url(#pc02e1a8435)" d="M 115.363636 127.661299 
L 117.814229 128.284675 
L 120.264822 130.778182 
L 122.715415 130.778182 
L 125.166008 129.531429 
L 127.616601 129.531429 
L 130.067194 120.804156 
L 132.517787 120.804156 
L 134.968379 130.778182 
L 137.418972 130.778182 
L 139.869565 124.544416 
L 142.320158 126.414545 
L 144.770751 130.778182 
L 147.221344 127.661299 
L 149.671937 128.908052 
L 152.12253 128.908052 
L 154.573123 130.778182 
L 159.474308 128.284675 
L 161.924901 130.154805 
L 164.375494 130.778182 
L 166.826087 130.154805 
L 169.27668 130.154805 
L 171.727273 129.531429 
L 174.177866 130.154805 
L 176.628458 130.154805 
L 179.079051 128.908052 
L 181.529644 130.154805 
L 183.980237 130.154805 
L 186.43083 122.674286 
L 188.881423 127.661299 
L 191.332016 130.154805 
L 193.782609 115.817143 
L 196.233202 130.778182 
L 215.837945 130.778182 
L 218.288538 130.154805 
L 220.73913 130.778182 
L 237.893281 130.778182 
L 240.343874 128.908052 
L 242.794466 129.531429 
L 245.245059 130.778182 
L 247.695652 129.531429 
L 250.146245 127.661299 
L 252.596838 130.154805 
L 255.047431 130.154805 
L 257.498024 128.908052 
L 259.948617 120.804156 
L 262.399209 130.154805 
L 264.849802 130.778182 
L 267.300395 130.154805 
L 269.750988 127.037922 
L 272.201581 130.154805 
L 274.652174 129.531429 
L 277.102767 125.167792 
L 279.55336 128.908052 
L 282.003953 127.037922 
L 284.454545 130.154805 
L 286.905138 129.531429 
L 289.355731 130.154805 
L 291.806324 129.531429 
L 296.70751 129.531429 
L 299.158103 128.284675 
L 301.608696 130.778182 
L 304.059289 130.778182 
L 306.509881 128.284675 
L 308.960474 128.284675 
L 311.411067 125.167792 
L 313.86166 129.531429 
L 316.312253 127.661299 
L 318.762846 130.778182 
L 321.213439 125.791169 
L 323.664032 128.908052 
L 326.114625 129.531429 
L 328.565217 128.908052 
L 331.01581 126.414545 
L 333.466403 130.154805 
L 335.916996 128.284675 
L 338.367589 121.427532 
L 340.818182 126.414545 
L 343.268775 120.804156 
L 345.719368 87.141818 
L 348.16996 127.661299 
L 350.620553 130.778182 
L 353.071146 128.908052 
L 355.521739 123.297662 
L 357.972332 124.544416 
L 360.422925 127.661299 
L 362.873518 119.557403 
L 365.324111 128.908052 
L 367.774704 128.908052 
L 370.225296 130.154805 
L 372.675889 122.674286 
L 375.126482 124.544416 
L 377.577075 130.778182 
L 380.027668 129.531429 
L 382.478261 130.778182 
L 384.928854 128.284675 
L 387.379447 120.180779 
L 389.83004 100.856104 
L 392.280632 100.232727 
L 394.731225 118.310649 
L 397.181818 121.427532 
L 399.632411 127.661299 
L 402.083004 130.778182 
L 404.533597 126.414545 
L 406.98419 128.908052 
L 409.434783 122.674286 
L 411.885375 122.050909 
L 414.335968 128.908052 
L 416.786561 123.297662 
L 419.237154 115.817143 
L 421.687747 122.674286 
L 424.13834 127.661299 
L 426.588933 115.193766 
L 429.039526 115.817143 
L 431.490119 115.193766 
L 433.940711 116.440519 
L 436.391304 92.128831 
L 438.841897 107.08987 
L 441.29249 109.583377 
L 443.743083 107.08987 
L 446.193676 107.713247 
L 448.644269 119.557403 
L 451.094862 110.206753 
L 453.545455 118.934026 
L 455.996047 129.531429 
L 458.44664 130.154805 
L 460.897233 116.440519 
L 463.347826 115.193766 
L 465.798419 114.57039 
L 468.249012 115.817143 
L 470.699605 111.453506 
L 473.150198 105.843117 
L 475.600791 128.284675 
L 478.051383 130.154805 
L 480.501976 116.440519 
L 482.952569 119.557403 
L 485.403162 117.687273 
L 487.853755 100.232727 
L 490.304348 115.817143 
L 492.754941 116.440519 
L 495.205534 130.154805 
L 497.656126 128.908052 
L 500.106719 114.57039 
L 502.557312 102.102857 
L 505.007905 102.726234 
L 507.458498 117.063896 
L 509.909091 113.323636 
L 512.359684 95.245714 
L 514.810277 117.063896 
L 517.26087 130.154805 
L 519.711462 114.57039 
L 522.162055 107.713247 
L 524.612648 105.843117 
L 527.063241 102.726234 
L 529.513834 108.96 
L 531.964427 111.453506 
L 534.41502 129.531429 
L 536.865613 115.193766 
L 539.316206 108.336623 
L 541.766798 110.206753 
L 544.217391 115.817143 
L 546.667984 115.193766 
L 549.118577 113.947013 
L 551.56917 125.791169 
L 554.019763 115.817143 
L 556.470356 113.323636 
L 561.371542 115.817143 
L 563.822134 116.440519 
L 566.272727 116.440519 
L 568.72332 130.778182 
L 571.173913 130.778182 
L 573.624506 115.193766 
L 576.075099 112.076883 
L 578.525692 115.193766 
L 580.976285 102.726234 
L 583.426877 105.843117 
L 585.87747 130.778182 
L 588.328063 115.817143 
L 590.778656 113.947013 
L 593.229249 113.323636 
L 595.679842 112.076883 
L 598.130435 117.063896 
L 600.581028 130.154805 
L 603.031621 114.57039 
L 605.482213 115.193766 
L 607.932806 110.83013 
L 610.383399 105.21974 
L 612.833992 104.596364 
L 615.284585 39.141818 
L 617.735178 86.518442 
L 620.185771 130.778182 
L 622.636364 120.180779 
L 622.636364 120.180779 
" style="fill:none;stroke:#1f77b4;stroke-linecap:square;stroke-width:1.5;"/>
   </g>
   <g id="line2d_11">
    <path clip-path="url(#pc02e1a8435)" d="M 115.363636 127.661299 
L 117.814229 128.284675 
L 120.264822 130.778182 
L 122.715415 130.778182 
L 125.166008 129.531429 
L 127.616601 129.531429 
L 130.067194 130.154805 
L 132.517787 128.284675 
L 134.968379 130.778182 
L 137.418972 130.778182 
L 139.869565 124.544416 
L 142.320158 129.531429 
L 144.770751 130.778182 
L 147.221344 128.908052 
L 149.671937 128.908052 
L 152.12253 129.531429 
L 154.573123 130.778182 
L 157.023715 129.531429 
L 159.474308 128.908052 
L 161.924901 130.154805 
L 164.375494 130.778182 
L 166.826087 130.154805 
L 169.27668 130.778182 
L 171.727273 129.531429 
L 176.628458 130.778182 
L 179.079051 130.154805 
L 181.529644 130.778182 
L 183.980237 130.154805 
L 186.43083 125.791169 
L 188.881423 127.661299 
L 191.332016 130.154805 
L 193.782609 125.167792 
L 196.233202 130.778182 
L 215.837945 130.778182 
L 218.288538 130.154805 
L 220.73913 130.778182 
L 237.893281 130.778182 
L 240.343874 129.531429 
L 242.794466 130.778182 
L 245.245059 130.778182 
L 250.146245 129.531429 
L 252.596838 130.778182 
L 257.498024 130.778182 
L 259.948617 124.544416 
L 262.399209 130.778182 
L 264.849802 130.778182 
L 267.300395 130.154805 
L 269.750988 128.908052 
L 272.201581 130.154805 
L 274.652174 129.531429 
L 277.102767 127.037922 
L 279.55336 129.531429 
L 282.003953 130.778182 
L 284.454545 130.154805 
L 286.905138 130.778182 
L 289.355731 130.154805 
L 291.806324 130.778182 
L 294.256917 129.531429 
L 299.158103 129.531429 
L 301.608696 130.778182 
L 304.059289 130.778182 
L 311.411067 127.037922 
L 313.86166 129.531429 
L 316.312253 128.284675 
L 318.762846 130.778182 
L 321.213439 127.037922 
L 323.664032 128.908052 
L 326.114625 129.531429 
L 328.565217 128.908052 
L 331.01581 126.414545 
L 333.466403 130.154805 
L 335.916996 128.284675 
L 338.367589 124.544416 
L 340.818182 127.037922 
L 343.268775 123.297662 
L 345.719368 108.96 
L 348.16996 127.661299 
L 350.620553 130.778182 
L 353.071146 129.531429 
L 355.521739 123.921039 
L 360.422925 127.661299 
L 362.873518 122.050909 
L 365.324111 128.908052 
L 367.774704 128.908052 
L 370.225296 130.154805 
L 372.675889 124.544416 
L 375.126482 124.544416 
L 377.577075 130.778182 
L 380.027668 129.531429 
L 382.478261 130.778182 
L 384.928854 128.908052 
L 387.379447 121.427532 
L 389.83004 116.440519 
L 392.280632 116.440519 
L 394.731225 122.674286 
L 397.181818 124.544416 
L 399.632411 128.284675 
L 402.083004 130.778182 
L 404.533597 127.661299 
L 406.98419 130.154805 
L 409.434783 123.921039 
L 411.885375 123.921039 
L 414.335968 129.531429 
L 416.786561 123.921039 
L 419.237154 120.180779 
L 421.687747 123.297662 
L 424.13834 128.284675 
L 426.588933 120.804156 
L 429.039526 120.804156 
L 431.490119 125.167792 
L 433.940711 130.154805 
L 436.391304 121.427532 
L 438.841897 128.908052 
L 441.29249 129.531429 
L 443.743083 125.791169 
L 446.193676 125.791169 
L 448.644269 121.427532 
L 451.094862 125.167792 
L 453.545455 130.778182 
L 455.996047 130.154805 
L 458.44664 130.154805 
L 460.897233 130.778182 
L 463.347826 129.531429 
L 465.798419 128.908052 
L 468.249012 129.531429 
L 473.150198 120.804156 
L 475.600791 128.284675 
L 478.051383 130.154805 
L 480.501976 130.778182 
L 482.952569 130.778182 
L 485.403162 128.908052 
L 487.853755 117.687273 
L 490.304348 130.778182 
L 492.754941 129.531429 
L 495.205534 130.154805 
L 500.106719 130.154805 
L 502.557312 118.934026 
L 505.007905 118.934026 
L 507.458498 128.908052 
L 509.909091 127.037922 
L 512.359684 115.817143 
L 514.810277 120.180779 
L 517.26087 130.154805 
L 519.711462 130.778182 
L 522.162055 127.661299 
L 524.612648 125.791169 
L 527.063241 129.531429 
L 529.513834 128.908052 
L 531.964427 130.154805 
L 534.41502 130.154805 
L 536.865613 130.778182 
L 539.316206 123.921039 
L 541.766798 125.167792 
L 544.217391 130.778182 
L 546.667984 130.154805 
L 549.118577 128.908052 
L 551.56917 127.037922 
L 554.019763 130.778182 
L 556.470356 128.908052 
L 558.920949 130.154805 
L 561.371542 130.778182 
L 563.822134 129.531429 
L 566.272727 129.531429 
L 568.72332 130.778182 
L 573.624506 130.778182 
L 576.075099 127.661299 
L 578.525692 130.778182 
L 580.976285 128.908052 
L 583.426877 125.791169 
L 585.87747 130.778182 
L 588.328063 130.778182 
L 590.778656 130.154805 
L 593.229249 128.908052 
L 600.581028 130.778182 
L 603.031621 130.154805 
L 605.482213 130.778182 
L 607.932806 126.414545 
L 610.383399 126.414545 
L 612.833992 127.661299 
L 615.284585 130.778182 
L 617.735178 121.427532 
L 620.185771 130.778182 
L 622.636364 130.778182 
L 622.636364 130.778182 
" style="fill:none;stroke:#ff7f0e;stroke-linecap:square;stroke-width:1.5;"/>
   </g>
   <g id="patch_3">
    <path d="M 90 135.36 
L 90 34.56 
" style="fill:none;stroke:#000000;stroke-linecap:square;stroke-linejoin:miter;stroke-width:0.8;"/>
   </g>
   <g id="patch_4">
    <path d="M 648 135.36 
L 648 34.56 
" style="fill:none;stroke:#000000;stroke-linecap:square;stroke-linejoin:miter;stroke-width:0.8;"/>
   </g>
   <g id="patch_5">
    <path d="M 90 135.36 
L 648 135.36 
" style="fill:none;stroke:#000000;stroke-linecap:square;stroke-linejoin:miter;stroke-width:0.8;"/>
   </g>
   <g id="patch_6">
    <path d="M 90 34.56 
L 648 34.56 
" style="fill:none;stroke:#000000;stroke-linecap:square;stroke-linejoin:miter;stroke-width:0.8;"/>
   </g>
   <g id="legend_1">
    <g id="patch_7">
     <path d="M 97 71.91625 
L 238.8625 71.91625 
Q 240.8625 71.91625 240.8625 69.91625 
L 240.8625 41.56 
Q 240.8625 39.56 238.8625 39.56 
L 97 39.56 
Q 95 39.56 95 41.56 
L 95 69.91625 
Q 95 71.91625 97 71.91625 
z
" style="fill:#ffffff;opacity:0.8;stroke:#cccccc;stroke-linejoin:miter;"/>
    </g>
    <g id="line2d_12">
     <path d="M 99 47.658437 
L 119 47.658437 
" style="fill:none;stroke:#1f77b4;stroke-linecap:square;stroke-width:1.5;"/>
    </g>
    <g id="line2d_13"/>
    <g id="text_11">
     <!-- Total GitHub Clones -->
     <g transform="translate(127 51.158437)scale(0.1 -0.1)">
      <defs>
       <path d="M -19 4666 
L 3928 4666 
L 3928 4134 
L 2272 4134 
L 2272 0 
L 1638 0 
L 1638 4134 
L -19 4134 
L -19 4666 
z
" id="DejaVuSans-54" transform="scale(0.015625)"/>
       <path d="M 1959 3097 
Q 1497 3097 1228 2736 
Q 959 2375 959 1747 
Q 959 1119 1226 758 
Q 1494 397 1959 397 
Q 2419 397 2687 759 
Q 2956 1122 2956 1747 
Q 2956 2369 2687 2733 
Q 2419 3097 1959 3097 
z
M 1959 3584 
Q 2709 3584 3137 3096 
Q 3566 2609 3566 1747 
Q 3566 888 3137 398 
Q 2709 -91 1959 -91 
Q 1206 -91 779 398 
Q 353 888 353 1747 
Q 353 2609 779 3096 
Q 1206 3584 1959 3584 
z
" id="DejaVuSans-6f" transform="scale(0.015625)"/>
       <path d="M 603 4863 
L 1178 4863 
L 1178 0 
L 603 0 
L 603 4863 
z
" id="DejaVuSans-6c" transform="scale(0.015625)"/>
       <path id="DejaVuSans-20" transform="scale(0.015625)"/>
       <path d="M 3809 666 
L 3809 1919 
L 2778 1919 
L 2778 2438 
L 4434 2438 
L 4434 434 
Q 4069 175 3628 42 
Q 3188 -91 2688 -91 
Q 1594 -91 976 548 
Q 359 1188 359 2328 
Q 359 3472 976 4111 
Q 1594 4750 2688 4750 
Q 3144 4750 3555 4637 
Q 3966 4525 4313 4306 
L 4313 3634 
Q 3963 3931 3569 4081 
Q 3175 4231 2741 4231 
Q 1884 4231 1454 3753 
Q 1025 3275 1025 2328 
Q 1025 1384 1454 906 
Q 1884 428 2741 428 
Q 3075 428 3337 486 
Q 3600 544 3809 666 
z
" id="DejaVuSans-47" transform="scale(0.015625)"/>
       <path d="M 603 3500 
L 1178 3500 
L 1178 0 
L 603 0 
L 603 3500 
z
M 603 4863 
L 1178 4863 
L 1178 4134 
L 603 4134 
L 603 4863 
z
" id="DejaVuSans-69" transform="scale(0.015625)"/>
       <path d="M 628 4666 
L 1259 4666 
L 1259 2753 
L 3553 2753 
L 3553 4666 
L 4184 4666 
L 4184 0 
L 3553 0 
L 3553 2222 
L 1259 2222 
L 1259 0 
L 628 0 
L 628 4666 
z
" id="DejaVuSans-48" transform="scale(0.015625)"/>
       <path d="M 544 1381 
L 544 3500 
L 1119 3500 
L 1119 1403 
Q 1119 906 1312 657 
Q 1506 409 1894 409 
Q 2359 409 2629 706 
Q 2900 1003 2900 1516 
L 2900 3500 
L 3475 3500 
L 3475 0 
L 2900 0 
L 2900 538 
Q 2691 219 2414 64 
Q 2138 -91 1772 -91 
Q 1169 -91 856 284 
Q 544 659 544 1381 
z
M 1991 3584 
L 1991 3584 
z
" id="DejaVuSans-75" transform="scale(0.015625)"/>
       <path d="M 3116 1747 
Q 3116 2381 2855 2742 
Q 2594 3103 2138 3103 
Q 1681 3103 1420 2742 
Q 1159 2381 1159 1747 
Q 1159 1113 1420 752 
Q 1681 391 2138 391 
Q 2594 391 2855 752 
Q 3116 1113 3116 1747 
z
M 1159 2969 
Q 1341 3281 1617 3432 
Q 1894 3584 2278 3584 
Q 2916 3584 3314 3078 
Q 3713 2572 3713 1747 
Q 3713 922 3314 415 
Q 2916 -91 2278 -91 
Q 1894 -91 1617 61 
Q 1341 213 1159 525 
L 1159 0 
L 581 0 
L 581 4863 
L 1159 4863 
L 1159 2969 
z
" id="DejaVuSans-62" transform="scale(0.015625)"/>
       <path d="M 4122 4306 
L 4122 3641 
Q 3803 3938 3442 4084 
Q 3081 4231 2675 4231 
Q 1875 4231 1450 3742 
Q 1025 3253 1025 2328 
Q 1025 1406 1450 917 
Q 1875 428 2675 428 
Q 3081 428 3442 575 
Q 3803 722 4122 1019 
L 4122 359 
Q 3791 134 3420 21 
Q 3050 -91 2638 -91 
Q 1578 -91 968 557 
Q 359 1206 359 2328 
Q 359 3453 968 4101 
Q 1578 4750 2638 4750 
Q 3056 4750 3426 4639 
Q 3797 4528 4122 4306 
z
" id="DejaVuSans-43" transform="scale(0.015625)"/>
       <path d="M 3513 2113 
L 3513 0 
L 2938 0 
L 2938 2094 
Q 2938 2591 2744 2837 
Q 2550 3084 2163 3084 
Q 1697 3084 1428 2787 
Q 1159 2491 1159 1978 
L 1159 0 
L 581 0 
L 581 3500 
L 1159 3500 
L 1159 2956 
Q 1366 3272 1645 3428 
Q 1925 3584 2291 3584 
Q 2894 3584 3203 3211 
Q 3513 2838 3513 2113 
z
" id="DejaVuSans-6e" transform="scale(0.015625)"/>
       <path d="M 2834 3397 
L 2834 2853 
Q 2591 2978 2328 3040 
Q 2066 3103 1784 3103 
Q 1356 3103 1142 2972 
Q 928 2841 928 2578 
Q 928 2378 1081 2264 
Q 1234 2150 1697 2047 
L 1894 2003 
Q 2506 1872 2764 1633 
Q 3022 1394 3022 966 
Q 3022 478 2636 193 
Q 2250 -91 1575 -91 
Q 1294 -91 989 -36 
Q 684 19 347 128 
L 347 722 
Q 666 556 975 473 
Q 1284 391 1588 391 
Q 1994 391 2212 530 
Q 2431 669 2431 922 
Q 2431 1156 2273 1281 
Q 2116 1406 1581 1522 
L 1381 1569 
Q 847 1681 609 1914 
Q 372 2147 372 2553 
Q 372 3047 722 3315 
Q 1072 3584 1716 3584 
Q 2034 3584 2315 3537 
Q 2597 3491 2834 3397 
z
" id="DejaVuSans-73" transform="scale(0.015625)"/>
      </defs>
      <use xlink:href="#DejaVuSans-54"/>
      <use x="44.083984" xlink:href="#DejaVuSans-6f"/>
      <use x="105.265625" xlink:href="#DejaVuSans-74"/>
      <use x="144.474609" xlink:href="#DejaVuSans-61"/>
      <use x="205.753906" xlink:href="#DejaVuSans-6c"/>
      <use x="233.537109" xlink:href="#DejaVuSans-20"/>
      <use x="265.324219" xlink:href="#DejaVuSans-47"/>
      <use x="342.814453" xlink:href="#DejaVuSans-69"/>
      <use x="370.597656" xlink:href="#DejaVuSans-74"/>
      <use x="409.806641" xlink:href="#DejaVuSans-48"/>
      <use x="485.001953" xlink:href="#DejaVuSans-75"/>
      <use x="548.380859" xlink:href="#DejaVuSans-62"/>
      <use x="611.857422" xlink:href="#DejaVuSans-20"/>
      <use x="643.644531" xlink:href="#DejaVuSans-43"/>
      <use x="713.46875" xlink:href="#DejaVuSans-6c"/>
      <use x="741.251953" xlink:href="#DejaVuSans-6f"/>
      <use x="802.433594" xlink:href="#DejaVuSans-6e"/>
      <use x="865.8125" xlink:href="#DejaVuSans-65"/>
      <use x="927.335938" xlink:href="#DejaVuSans-73"/>
     </g>
    </g>
    <g id="line2d_14">
     <path d="M 99 62.336562 
L 119 62.336562 
" style="fill:none;stroke:#ff7f0e;stroke-linecap:square;stroke-width:1.5;"/>
    </g>
    <g id="line2d_15"/>
    <g id="text_12">
     <!-- Unique GitHub Clones -->
     <g transform="translate(127 65.836562)scale(0.1 -0.1)">
      <defs>
       <path d="M 556 4666 
L 1191 4666 
L 1191 1831 
Q 1191 1081 1462 751 
Q 1734 422 2344 422 
Q 2950 422 3222 751 
Q 3494 1081 3494 1831 
L 3494 4666 
L 4128 4666 
L 4128 1753 
Q 4128 841 3676 375 
Q 3225 -91 2344 -91 
Q 1459 -91 1007 375 
Q 556 841 556 1753 
L 556 4666 
z
" id="DejaVuSans-55" transform="scale(0.015625)"/>
       <path d="M 947 1747 
Q 947 1113 1208 752 
Q 1469 391 1925 391 
Q 2381 391 2643 752 
Q 2906 1113 2906 1747 
Q 2906 2381 2643 2742 
Q 2381 3103 1925 3103 
Q 1469 3103 1208 2742 
Q 947 2381 947 1747 
z
M 2906 525 
Q 2725 213 2448 61 
Q 2172 -91 1784 -91 
Q 1150 -91 751 415 
Q 353 922 353 1747 
Q 353 2572 751 3078 
Q 1150 3584 1784 3584 
Q 2172 3584 2448 3432 
Q 2725 3281 2906 2969 
L 2906 3500 
L 3481 3500 
L 3481 -1331 
L 2906 -1331 
L 2906 525 
z
" id="DejaVuSans-71" transform="scale(0.015625)"/>
      </defs>
      <use xlink:href="#DejaVuSans-55"/>
      <use x="73.193359" xlink:href="#DejaVuSans-6e"/>
      <use x="136.572266" xlink:href="#DejaVuSans-69"/>
      <use x="164.355469" xlink:href="#DejaVuSans-71"/>
      <use x="227.832031" xlink:href="#DejaVuSans-75"/>
      <use x="291.210938" xlink:href="#DejaVuSans-65"/>
      <use x="352.734375" xlink:href="#DejaVuSans-20"/>
      <use x="384.521484" xlink:href="#DejaVuSans-47"/>
      <use x="462.011719" xlink:href="#DejaVuSans-69"/>
      <use x="489.794922" xlink:href="#DejaVuSans-74"/>
      <use x="529.003906" xlink:href="#DejaVuSans-48"/>
      <use x="604.199219" xlink:href="#DejaVuSans-75"/>
      <use x="667.578125" xlink:href="#DejaVuSans-62"/>
      <use x="731.054688" xlink:href="#DejaVuSans-20"/>
      <use x="762.841797" xlink:href="#DejaVuSans-43"/>
      <use x="832.666016" xlink:href="#DejaVuSans-6c"/>
      <use x="860.449219" xlink:href="#DejaVuSans-6f"/>
      <use x="921.630859" xlink:href="#DejaVuSans-6e"/>
      <use x="985.009766" xlink:href="#DejaVuSans-65"/>
      <use x="1046.533203" xlink:href="#DejaVuSans-73"/>
     </g>
    </g>
   </g>
  </g>
  <g id="axes_2">
   <g id="patch_8">
    <path d="M 90 256.32 
L 648 256.32 
L 648 155.52 
L 90 155.52 
z
" style="fill:#ffffff;"/>
   </g>
   <g id="matplotlib.axis_3">
    <g id="xtick_6">
     <g id="line2d_16">
      <g>
       <use style="stroke:#000000;stroke-width:0.8;" x="115.363636" xlink:href="#m4aaf4c9232" y="256.32"/>
      </g>
     </g>
     <g id="text_13">
      <!-- 2020-10-21 -->
      <g transform="translate(86.305824 270.918437)scale(0.1 -0.1)">
       <use xlink:href="#DejaVuSans-32"/>
       <use x="63.623047" xlink:href="#DejaVuSans-30"/>
       <use x="127.246094" xlink:href="#DejaVuSans-32"/>
       <use x="190.869141" xlink:href="#DejaVuSans-30"/>
       <use x="254.492188" xlink:href="#DejaVuSans-2d"/>
       <use x="290.576172" xlink:href="#DejaVuSans-31"/>
       <use x="354.199219" xlink:href="#DejaVuSans-30"/>
       <use x="417.822266" xlink:href="#DejaVuSans-2d"/>
       <use x="453.90625" xlink:href="#DejaVuSans-32"/>
       <use x="517.529297" xlink:href="#DejaVuSans-31"/>
      </g>
     </g>
    </g>
    <g id="xtick_7">
     <g id="line2d_17">
      <g>
       <use style="stroke:#000000;stroke-width:0.8;" x="216.818182" xlink:href="#m4aaf4c9232" y="256.32"/>
      </g>
     </g>
     <g id="text_14">
      <!-- 2020-12-11 -->
      <g transform="translate(187.760369 270.918437)scale(0.1 -0.1)">
       <use xlink:href="#DejaVuSans-32"/>
       <use x="63.623047" xlink:href="#DejaVuSans-30"/>
       <use x="127.246094" xlink:href="#DejaVuSans-32"/>
       <use x="190.869141" xlink:href="#DejaVuSans-30"/>
       <use x="254.492188" xlink:href="#DejaVuSans-2d"/>
       <use x="290.576172" xlink:href="#DejaVuSans-31"/>
       <use x="354.199219" xlink:href="#DejaVuSans-32"/>
       <use x="417.822266" xlink:href="#DejaVuSans-2d"/>
       <use x="453.90625" xlink:href="#DejaVuSans-31"/>
       <use x="517.529297" xlink:href="#DejaVuSans-31"/>
      </g>
     </g>
    </g>
    <g id="xtick_8">
     <g id="line2d_18">
      <g>
       <use style="stroke:#000000;stroke-width:0.8;" x="318.272727" xlink:href="#m4aaf4c9232" y="256.32"/>
      </g>
     </g>
     <g id="text_15">
      <!-- 2021-01-31 -->
      <g transform="translate(289.214915 270.918437)scale(0.1 -0.1)">
       <use xlink:href="#DejaVuSans-32"/>
       <use x="63.623047" xlink:href="#DejaVuSans-30"/>
       <use x="127.246094" xlink:href="#DejaVuSans-32"/>
       <use x="190.869141" xlink:href="#DejaVuSans-31"/>
       <use x="254.492188" xlink:href="#DejaVuSans-2d"/>
       <use x="290.576172" xlink:href="#DejaVuSans-30"/>
       <use x="354.199219" xlink:href="#DejaVuSans-31"/>
       <use x="417.822266" xlink:href="#DejaVuSans-2d"/>
       <use x="453.90625" xlink:href="#DejaVuSans-33"/>
       <use x="517.529297" xlink:href="#DejaVuSans-31"/>
      </g>
     </g>
    </g>
    <g id="xtick_9">
     <g id="line2d_19">
      <g>
       <use style="stroke:#000000;stroke-width:0.8;" x="419.727273" xlink:href="#m4aaf4c9232" y="256.32"/>
      </g>
     </g>
     <g id="text_16">
      <!-- 2021-03-22 -->
      <g transform="translate(390.66946 270.918437)scale(0.1 -0.1)">
       <use xlink:href="#DejaVuSans-32"/>
       <use x="63.623047" xlink:href="#DejaVuSans-30"/>
       <use x="127.246094" xlink:href="#DejaVuSans-32"/>
       <use x="190.869141" xlink:href="#DejaVuSans-31"/>
       <use x="254.492188" xlink:href="#DejaVuSans-2d"/>
       <use x="290.576172" xlink:href="#DejaVuSans-30"/>
       <use x="354.199219" xlink:href="#DejaVuSans-33"/>
       <use x="417.822266" xlink:href="#DejaVuSans-2d"/>
       <use x="453.90625" xlink:href="#DejaVuSans-32"/>
       <use x="517.529297" xlink:href="#DejaVuSans-32"/>
      </g>
     </g>
    </g>
    <g id="xtick_10">
     <g id="line2d_20">
      <g>
       <use style="stroke:#000000;stroke-width:0.8;" x="521.181818" xlink:href="#m4aaf4c9232" y="256.32"/>
      </g>
     </g>
     <g id="text_17">
      <!-- 2021-05-08 -->
      <g transform="translate(492.124006 270.918437)scale(0.1 -0.1)">
       <defs>
        <path d="M 2034 2216 
Q 1584 2216 1326 1975 
Q 1069 1734 1069 1313 
Q 1069 891 1326 650 
Q 1584 409 2034 409 
Q 2484 409 2743 651 
Q 3003 894 3003 1313 
Q 3003 1734 2745 1975 
Q 2488 2216 2034 2216 
z
M 1403 2484 
Q 997 2584 770 2862 
Q 544 3141 544 3541 
Q 544 4100 942 4425 
Q 1341 4750 2034 4750 
Q 2731 4750 3128 4425 
Q 3525 4100 3525 3541 
Q 3525 3141 3298 2862 
Q 3072 2584 2669 2484 
Q 3125 2378 3379 2068 
Q 3634 1759 3634 1313 
Q 3634 634 3220 271 
Q 2806 -91 2034 -91 
Q 1263 -91 848 271 
Q 434 634 434 1313 
Q 434 1759 690 2068 
Q 947 2378 1403 2484 
z
M 1172 3481 
Q 1172 3119 1398 2916 
Q 1625 2713 2034 2713 
Q 2441 2713 2670 2916 
Q 2900 3119 2900 3481 
Q 2900 3844 2670 4047 
Q 2441 4250 2034 4250 
Q 1625 4250 1398 4047 
Q 1172 3844 1172 3481 
z
" id="DejaVuSans-38" transform="scale(0.015625)"/>
       </defs>
       <use xlink:href="#DejaVuSans-32"/>
       <use x="63.623047" xlink:href="#DejaVuSans-30"/>
       <use x="127.246094" xlink:href="#DejaVuSans-32"/>
       <use x="190.869141" xlink:href="#DejaVuSans-31"/>
       <use x="254.492188" xlink:href="#DejaVuSans-2d"/>
       <use x="290.576172" xlink:href="#DejaVuSans-30"/>
       <use x="354.199219" xlink:href="#DejaVuSans-35"/>
       <use x="417.822266" xlink:href="#DejaVuSans-2d"/>
       <use x="453.90625" xlink:href="#DejaVuSans-30"/>
       <use x="517.529297" xlink:href="#DejaVuSans-38"/>
      </g>
     </g>
    </g>
    <g id="xtick_11">
     <g id="line2d_21">
      <g>
       <use style="stroke:#000000;stroke-width:0.8;" x="622.636364" xlink:href="#m4aaf4c9232" y="256.32"/>
      </g>
     </g>
     <g id="text_18">
      <!-- 2021-06-27 -->
      <g transform="translate(593.578551 270.918437)scale(0.1 -0.1)">
       <use xlink:href="#DejaVuSans-32"/>
       <use x="63.623047" xlink:href="#DejaVuSans-30"/>
       <use x="127.246094" xlink:href="#DejaVuSans-32"/>
       <use x="190.869141" xlink:href="#DejaVuSans-31"/>
       <use x="254.492188" xlink:href="#DejaVuSans-2d"/>
       <use x="290.576172" xlink:href="#DejaVuSans-30"/>
       <use x="354.199219" xlink:href="#DejaVuSans-36"/>
       <use x="417.822266" xlink:href="#DejaVuSans-2d"/>
       <use x="453.90625" xlink:href="#DejaVuSans-32"/>
       <use x="517.529297" xlink:href="#DejaVuSans-37"/>
      </g>
     </g>
    </g>
    <g id="text_19">
     <!-- _date -->
     <g transform="translate(355.225 284.596563)scale(0.1 -0.1)">
      <use xlink:href="#DejaVuSans-5f"/>
      <use x="50" xlink:href="#DejaVuSans-64"/>
      <use x="113.476562" xlink:href="#DejaVuSans-61"/>
      <use x="174.755859" xlink:href="#DejaVuSans-74"/>
      <use x="213.964844" xlink:href="#DejaVuSans-65"/>
     </g>
    </g>
   </g>
   <g id="matplotlib.axis_4">
    <g id="ytick_5">
     <g id="line2d_22">
      <g>
       <use style="stroke:#000000;stroke-width:0.8;" x="90" xlink:href="#md75b24089d" y="252.029091"/>
      </g>
     </g>
     <g id="text_20">
      <!-- 0 -->
      <g transform="translate(76.6375 255.82831)scale(0.1 -0.1)">
       <use xlink:href="#DejaVuSans-30"/>
      </g>
     </g>
    </g>
    <g id="ytick_6">
     <g id="line2d_23">
      <g>
       <use style="stroke:#000000;stroke-width:0.8;" x="90" xlink:href="#md75b24089d" y="222.938182"/>
      </g>
     </g>
     <g id="text_21">
      <!-- 100 -->
      <g transform="translate(63.9125 226.737401)scale(0.1 -0.1)">
       <use xlink:href="#DejaVuSans-31"/>
       <use x="63.623047" xlink:href="#DejaVuSans-30"/>
       <use x="127.246094" xlink:href="#DejaVuSans-30"/>
      </g>
     </g>
    </g>
    <g id="ytick_7">
     <g id="line2d_24">
      <g>
       <use style="stroke:#000000;stroke-width:0.8;" x="90" xlink:href="#md75b24089d" y="193.847273"/>
      </g>
     </g>
     <g id="text_22">
      <!-- 200 -->
      <g transform="translate(63.9125 197.646491)scale(0.1 -0.1)">
       <use xlink:href="#DejaVuSans-32"/>
       <use x="63.623047" xlink:href="#DejaVuSans-30"/>
       <use x="127.246094" xlink:href="#DejaVuSans-30"/>
      </g>
     </g>
    </g>
    <g id="ytick_8">
     <g id="line2d_25">
      <g>
       <use style="stroke:#000000;stroke-width:0.8;" x="90" xlink:href="#md75b24089d" y="164.756364"/>
      </g>
     </g>
     <g id="text_23">
      <!-- 300 -->
      <g transform="translate(63.9125 168.555582)scale(0.1 -0.1)">
       <use xlink:href="#DejaVuSans-33"/>
       <use x="63.623047" xlink:href="#DejaVuSans-30"/>
       <use x="127.246094" xlink:href="#DejaVuSans-30"/>
      </g>
     </g>
    </g>
   </g>
   <g id="line2d_26">
    <path clip-path="url(#p74eb326cbe)" d="M 115.363636 251.738182 
L 117.392727 230.210909 
L 119.421818 227.592727 
L 121.450909 244.174545 
L 123.48 251.447273 
L 125.509091 238.356364 
L 127.538182 238.065455 
L 129.567273 233.992727 
L 131.596364 238.065455 
L 133.625455 238.938182 
L 135.654545 250.574545 
L 137.683636 248.247273 
L 139.712727 247.374545 
L 141.741818 238.938182 
L 143.770909 210.429091 
L 145.8 225.265455 
L 147.829091 243.592727 
L 149.858182 247.083636 
L 151.887273 251.156364 
L 153.916364 238.065455 
L 155.945455 223.52 
L 157.974545 245.629091 
L 160.003636 243.010909 
L 162.032727 236.32 
L 164.061818 236.32 
L 166.090909 249.701818 
L 168.12 236.610909 
L 170.149091 232.829091 
L 172.178182 243.301818 
L 174.207273 243.301818 
L 176.236364 238.356364 
L 178.265455 246.792727 
L 180.294545 249.12 
L 182.323636 225.556364 
L 184.352727 248.829091 
L 186.381818 247.956364 
L 188.410909 249.701818 
L 190.44 247.665455 
L 192.469091 251.447273 
L 194.498182 251.447273 
L 196.527273 227.301818 
L 198.556364 214.210909 
L 200.585455 243.592727 
L 202.614545 245.047273 
L 204.643636 225.847273 
L 206.672727 250.865455 
L 208.701818 244.756364 
L 210.730909 241.265455 
L 212.76 245.92 
L 214.789091 235.738182 
L 216.818182 246.792727 
L 218.847273 250.865455 
L 220.876364 251.738182 
L 222.905455 243.592727 
L 224.934545 241.847273 
L 226.963636 242.138182 
L 228.992727 240.683636 
L 231.021818 248.829091 
L 233.050909 250.865455 
L 235.08 250.574545 
L 237.109091 247.083636 
L 239.138182 247.665455 
L 241.167273 242.429091 
L 243.196364 249.992727 
L 245.225455 251.156364 
L 247.254545 251.447273 
L 249.283636 248.247273 
L 251.312727 249.410909 
L 253.341818 250.283636 
L 255.370909 251.738182 
L 257.4 247.083636 
L 259.429091 247.374545 
L 261.458182 250.865455 
L 263.487273 246.210909 
L 265.516364 242.429091 
L 267.545455 239.810909 
L 269.574545 247.665455 
L 271.603636 248.829091 
L 273.632727 231.956364 
L 275.661818 250.283636 
L 277.690909 233.701818 
L 279.72 235.447273 
L 281.749091 239.810909 
L 283.778182 233.12 
L 285.807273 246.792727 
L 287.836364 234.574545 
L 289.865455 251.156364 
L 291.894545 233.410909 
L 293.923636 234.865455 
L 295.952727 226.138182 
L 297.981818 232.247273 
L 300.010909 239.810909 
L 302.04 242.72 
L 304.069091 248.247273 
L 306.098182 228.465455 
L 308.127273 223.810909 
L 310.156364 236.029091 
L 312.185455 234.574545 
L 314.214545 231.956364 
L 316.243636 247.374545 
L 318.272727 248.538182 
L 320.301818 229.629091 
L 322.330909 246.792727 
L 326.389091 232.829091 
L 330.447273 250.865455 
L 332.476364 247.665455 
L 334.505455 235.156364 
L 336.534545 234.574545 
L 338.563636 224.683636 
L 340.592727 241.847273 
L 342.621818 250.283636 
L 344.650909 250.574545 
L 346.68 249.12 
L 348.709091 242.429091 
L 350.738182 242.72 
L 352.767273 246.792727 
L 354.796364 230.501818 
L 356.825455 248.247273 
L 358.854545 241.847273 
L 360.883636 238.938182 
L 362.912727 240.683636 
L 364.941818 224.974545 
L 366.970909 235.447273 
L 369 234.574545 
L 371.029091 239.810909 
L 373.058182 238.065455 
L 375.087273 239.229091 
L 377.116364 181.92 
L 379.145455 245.629091 
L 381.174545 230.501818 
L 383.203636 234.283636 
L 385.232727 226.429091 
L 387.261818 241.556364 
L 389.290909 198.792727 
L 391.32 197.047273 
L 393.349091 203.156364 
L 395.378182 228.756364 
L 397.407273 172.029091 
L 399.436364 222.938182 
L 401.465455 245.92 
L 403.494545 245.047273 
L 405.523636 237.192727 
L 407.552727 230.792727 
L 409.581818 227.301818 
L 411.610909 234.283636 
L 413.64 223.229091 
L 415.669091 243.592727 
L 417.698182 245.629091 
L 419.727273 204.610909 
L 421.756364 204.32 
L 423.785455 232.247273 
L 425.814545 233.992727 
L 427.843636 246.210909 
L 429.872727 248.538182 
L 431.901818 247.956364 
L 433.930909 232.538182 
L 435.96 182.501818 
L 437.989091 221.192727 
L 440.018182 229.338182 
L 442.047273 233.992727 
L 444.076364 213.338182 
L 446.105455 244.174545 
L 448.134545 248.247273 
L 450.163636 244.756364 
L 452.192727 221.192727 
L 454.221818 238.356364 
L 456.250909 222.647273 
L 458.28 199.083636 
L 460.309091 233.410909 
L 462.338182 240.974545 
L 464.367273 245.92 
L 466.396364 174.356364 
L 468.425455 175.229091 
L 470.454545 227.010909 
L 472.483636 243.301818 
L 474.512727 234.865455 
L 476.541818 236.32 
L 478.570909 248.829091 
L 480.6 246.792727 
L 482.629091 185.992727 
L 484.658182 179.010909 
L 486.687273 197.047273 
L 488.716364 242.72 
L 490.745455 249.12 
L 492.774545 236.32 
L 494.803636 247.374545 
L 496.832727 236.029091 
L 498.861818 223.810909 
L 500.890909 160.101818 
L 502.92 221.483636 
L 504.949091 220.610909 
L 506.978182 225.556364 
L 509.007273 245.338182 
L 511.036364 246.210909 
L 513.065455 219.447273 
L 515.094545 235.738182 
L 517.123636 235.447273 
L 519.152727 225.847273 
L 521.181818 243.010909 
L 523.210909 249.12 
L 525.24 196.756364 
L 527.269091 236.901818 
L 529.298182 211.883636 
L 531.327273 205.483636 
L 533.356364 212.465455 
L 535.385455 249.701818 
L 537.414545 249.701818 
L 539.443636 221.774545 
L 541.472727 232.538182 
L 543.501818 231.956364 
L 545.530909 238.647273 
L 547.56 242.429091 
L 549.589091 248.247273 
L 551.618182 245.92 
L 553.647273 225.265455 
L 555.676364 243.883636 
L 557.705455 240.101818 
L 559.734545 231.665455 
L 561.763636 238.356364 
L 563.792727 249.701818 
L 565.821818 249.701818 
L 567.850909 242.72 
L 569.88 239.810909 
L 571.909091 246.210909 
L 573.938182 240.974545 
L 575.967273 243.301818 
L 577.996364 249.12 
L 580.025455 247.374545 
L 582.054545 230.501818 
L 584.083636 236.029091 
L 586.112727 165.92 
L 588.141818 212.756364 
L 590.170909 243.883636 
L 592.2 241.847273 
L 594.229091 249.992727 
L 596.258182 231.665455 
L 598.287273 233.701818 
L 600.316364 241.556364 
L 602.345455 240.683636 
L 604.374545 235.156364 
L 606.403636 249.701818 
L 608.432727 250.283636 
L 610.461818 191.52 
L 612.490909 238.938182 
L 614.52 244.756364 
L 616.549091 247.083636 
L 618.578182 200.247273 
L 620.607273 247.083636 
L 622.636364 247.956364 
L 622.636364 247.956364 
" style="fill:none;stroke:#1f77b4;stroke-linecap:square;stroke-width:1.5;"/>
   </g>
   <g id="line2d_27">
    <path clip-path="url(#p74eb326cbe)" d="M 115.363636 251.738182 
L 117.392727 249.410909 
L 119.421818 248.247273 
L 121.450909 249.410909 
L 123.48 251.738182 
L 125.509091 249.992727 
L 127.538182 249.12 
L 129.567273 249.12 
L 131.596364 248.829091 
L 133.625455 249.410909 
L 135.654545 251.447273 
L 143.770909 249.12 
L 145.8 248.829091 
L 147.829091 249.992727 
L 151.887273 251.738182 
L 153.916364 248.829091 
L 155.945455 249.410909 
L 157.974545 250.574545 
L 160.003636 250.865455 
L 162.032727 250.574545 
L 164.061818 251.447273 
L 166.090909 251.156364 
L 168.12 249.992727 
L 170.149091 251.156364 
L 172.178182 248.829091 
L 174.207273 249.701818 
L 176.236364 250.283636 
L 178.265455 251.156364 
L 180.294545 251.156364 
L 182.323636 247.374545 
L 184.352727 251.447273 
L 186.381818 251.447273 
L 188.410909 251.156364 
L 192.469091 251.738182 
L 194.498182 251.447273 
L 196.527273 249.410909 
L 198.556364 246.792727 
L 200.585455 248.538182 
L 202.614545 249.992727 
L 204.643636 249.992727 
L 206.672727 251.447273 
L 208.701818 250.283636 
L 210.730909 249.992727 
L 212.76 250.865455 
L 214.789091 247.665455 
L 216.818182 249.410909 
L 218.847273 251.447273 
L 220.876364 251.738182 
L 222.905455 249.12 
L 226.963636 249.12 
L 228.992727 249.992727 
L 231.021818 250.283636 
L 233.050909 251.156364 
L 235.08 251.447273 
L 237.109091 250.865455 
L 239.138182 250.574545 
L 241.167273 251.156364 
L 245.225455 251.156364 
L 247.254545 251.447273 
L 249.283636 250.865455 
L 253.341818 250.865455 
L 255.370909 251.738182 
L 257.4 251.156364 
L 259.429091 251.156364 
L 261.458182 250.865455 
L 263.487273 249.701818 
L 265.516364 247.956364 
L 267.545455 249.992727 
L 269.574545 251.156364 
L 271.603636 250.865455 
L 273.632727 250.865455 
L 275.661818 251.156364 
L 277.690909 249.410909 
L 279.72 248.538182 
L 281.749091 249.701818 
L 283.778182 246.792727 
L 285.807273 249.701818 
L 287.836364 250.283636 
L 289.865455 251.156364 
L 291.894545 250.574545 
L 293.923636 250.574545 
L 295.952727 248.247273 
L 297.981818 249.410909 
L 300.010909 249.12 
L 302.04 249.12 
L 304.069091 250.283636 
L 306.098182 245.92 
L 308.127273 247.665455 
L 310.156364 249.12 
L 312.185455 247.374545 
L 314.214545 246.210909 
L 316.243636 250.865455 
L 318.272727 250.574545 
L 320.301818 248.538182 
L 322.330909 249.992727 
L 324.36 247.956364 
L 326.389091 249.410909 
L 328.418182 249.410909 
L 330.447273 250.865455 
L 332.476364 251.156364 
L 334.505455 248.829091 
L 336.534545 247.956364 
L 338.563636 248.247273 
L 340.592727 250.865455 
L 342.621818 251.447273 
L 346.68 250.865455 
L 348.709091 250.865455 
L 350.738182 249.410909 
L 352.767273 250.283636 
L 354.796364 248.829091 
L 356.825455 250.865455 
L 358.854545 250.283636 
L 360.883636 250.865455 
L 362.912727 249.12 
L 364.941818 248.829091 
L 366.970909 248.829091 
L 369 247.956364 
L 371.029091 250.283636 
L 373.058182 250.865455 
L 375.087273 250.865455 
L 377.116364 242.138182 
L 379.145455 248.829091 
L 381.174545 248.829091 
L 383.203636 247.374545 
L 385.232727 249.12 
L 387.261818 250.574545 
L 389.290909 250.574545 
L 391.32 246.210909 
L 393.349091 246.501818 
L 395.378182 248.247273 
L 397.407273 246.501818 
L 399.436364 247.374545 
L 401.465455 249.992727 
L 403.494545 250.865455 
L 405.523636 247.374545 
L 407.552727 245.92 
L 409.581818 247.083636 
L 411.610909 247.374545 
L 413.64 249.410909 
L 415.669091 251.156364 
L 417.698182 249.992727 
L 419.727273 247.956364 
L 421.756364 247.665455 
L 423.785455 247.665455 
L 425.814545 248.538182 
L 427.843636 250.574545 
L 431.901818 251.156364 
L 433.930909 249.992727 
L 435.96 246.210909 
L 437.989091 249.410909 
L 440.018182 247.083636 
L 442.047273 248.538182 
L 444.076364 246.792727 
L 446.105455 249.701818 
L 448.134545 251.156364 
L 452.192727 249.410909 
L 454.221818 248.247273 
L 456.250909 248.538182 
L 458.28 247.374545 
L 460.309091 249.12 
L 462.338182 249.410909 
L 464.367273 250.865455 
L 466.396364 245.338182 
L 468.425455 245.629091 
L 470.454545 247.956364 
L 472.483636 248.829091 
L 474.512727 249.12 
L 476.541818 249.12 
L 478.570909 250.865455 
L 480.6 250.283636 
L 482.629091 245.629091 
L 484.658182 244.174545 
L 486.687273 246.792727 
L 488.716364 248.829091 
L 490.745455 250.283636 
L 492.774545 249.12 
L 494.803636 250.283636 
L 496.832727 246.210909 
L 498.861818 246.501818 
L 500.890909 228.465455 
L 502.92 247.956364 
L 504.949091 246.501818 
L 506.978182 250.574545 
L 509.007273 251.738182 
L 511.036364 249.701818 
L 513.065455 248.247273 
L 515.094545 248.247273 
L 517.123636 248.538182 
L 519.152727 247.665455 
L 523.210909 251.156364 
L 525.24 249.12 
L 527.269091 248.247273 
L 529.298182 246.792727 
L 531.327273 247.083636 
L 533.356364 245.629091 
L 535.385455 250.574545 
L 537.414545 251.738182 
L 539.443636 245.629091 
L 541.472727 247.083636 
L 543.501818 249.410909 
L 545.530909 247.374545 
L 547.56 248.247273 
L 549.589091 251.447273 
L 551.618182 250.283636 
L 553.647273 248.247273 
L 555.676364 249.410909 
L 557.705455 247.956364 
L 559.734545 246.210909 
L 563.792727 250.865455 
L 565.821818 251.156364 
L 567.850909 249.12 
L 569.88 247.665455 
L 571.909091 249.992727 
L 573.938182 249.410909 
L 575.967273 249.410909 
L 580.025455 249.992727 
L 582.054545 246.792727 
L 584.083636 248.829091 
L 586.112727 248.829091 
L 588.141818 249.992727 
L 590.170909 249.12 
L 592.2 251.156364 
L 594.229091 250.283636 
L 596.258182 248.247273 
L 598.287273 249.12 
L 600.316364 248.829091 
L 602.345455 248.247273 
L 604.374545 249.12 
L 606.403636 251.156364 
L 608.432727 250.865455 
L 610.461818 247.374545 
L 612.490909 250.574545 
L 614.52 249.701818 
L 616.549091 249.12 
L 618.578182 245.629091 
L 620.607273 251.156364 
L 622.636364 250.574545 
L 622.636364 250.574545 
" style="fill:none;stroke:#ff7f0e;stroke-linecap:square;stroke-width:1.5;"/>
   </g>
   <g id="patch_9">
    <path d="M 90 256.32 
L 90 155.52 
" style="fill:none;stroke:#000000;stroke-linecap:square;stroke-linejoin:miter;stroke-width:0.8;"/>
   </g>
   <g id="patch_10">
    <path d="M 648 256.32 
L 648 155.52 
" style="fill:none;stroke:#000000;stroke-linecap:square;stroke-linejoin:miter;stroke-width:0.8;"/>
   </g>
   <g id="patch_11">
    <path d="M 90 256.32 
L 648 256.32 
" style="fill:none;stroke:#000000;stroke-linecap:square;stroke-linejoin:miter;stroke-width:0.8;"/>
   </g>
   <g id="patch_12">
    <path d="M 90 155.52 
L 648 155.52 
" style="fill:none;stroke:#000000;stroke-linecap:square;stroke-linejoin:miter;stroke-width:0.8;"/>
   </g>
   <g id="legend_2">
    <g id="patch_13">
     <path d="M 97 192.87625 
L 234.217188 192.87625 
Q 236.217188 192.87625 236.217188 190.87625 
L 236.217188 162.52 
Q 236.217188 160.52 234.217188 160.52 
L 97 160.52 
Q 95 160.52 95 162.52 
L 95 190.87625 
Q 95 192.87625 97 192.87625 
z
" style="fill:#ffffff;opacity:0.8;stroke:#cccccc;stroke-linejoin:miter;"/>
    </g>
    <g id="line2d_28">
     <path d="M 99 168.618437 
L 119 168.618437 
" style="fill:none;stroke:#1f77b4;stroke-linecap:square;stroke-width:1.5;"/>
    </g>
    <g id="line2d_29"/>
    <g id="text_24">
     <!-- Total GitHub Views -->
     <g transform="translate(127 172.118437)scale(0.1 -0.1)">
      <defs>
       <path d="M 1831 0 
L 50 4666 
L 709 4666 
L 2188 738 
L 3669 4666 
L 4325 4666 
L 2547 0 
L 1831 0 
z
" id="DejaVuSans-56" transform="scale(0.015625)"/>
       <path d="M 269 3500 
L 844 3500 
L 1563 769 
L 2278 3500 
L 2956 3500 
L 3675 769 
L 4391 3500 
L 4966 3500 
L 4050 0 
L 3372 0 
L 2619 2869 
L 1863 0 
L 1184 0 
L 269 3500 
z
" id="DejaVuSans-77" transform="scale(0.015625)"/>
      </defs>
      <use xlink:href="#DejaVuSans-54"/>
      <use x="44.083984" xlink:href="#DejaVuSans-6f"/>
      <use x="105.265625" xlink:href="#DejaVuSans-74"/>
      <use x="144.474609" xlink:href="#DejaVuSans-61"/>
      <use x="205.753906" xlink:href="#DejaVuSans-6c"/>
      <use x="233.537109" xlink:href="#DejaVuSans-20"/>
      <use x="265.324219" xlink:href="#DejaVuSans-47"/>
      <use x="342.814453" xlink:href="#DejaVuSans-69"/>
      <use x="370.597656" xlink:href="#DejaVuSans-74"/>
      <use x="409.806641" xlink:href="#DejaVuSans-48"/>
      <use x="485.001953" xlink:href="#DejaVuSans-75"/>
      <use x="548.380859" xlink:href="#DejaVuSans-62"/>
      <use x="611.857422" xlink:href="#DejaVuSans-20"/>
      <use x="643.644531" xlink:href="#DejaVuSans-56"/>
      <use x="709.802734" xlink:href="#DejaVuSans-69"/>
      <use x="737.585938" xlink:href="#DejaVuSans-65"/>
      <use x="799.109375" xlink:href="#DejaVuSans-77"/>
      <use x="880.896484" xlink:href="#DejaVuSans-73"/>
     </g>
    </g>
    <g id="line2d_30">
     <path d="M 99 183.296562 
L 119 183.296562 
" style="fill:none;stroke:#ff7f0e;stroke-linecap:square;stroke-width:1.5;"/>
    </g>
    <g id="line2d_31"/>
    <g id="text_25">
     <!-- Unique GitHub Views -->
     <g transform="translate(127 186.796562)scale(0.1 -0.1)">
      <use xlink:href="#DejaVuSans-55"/>
      <use x="73.193359" xlink:href="#DejaVuSans-6e"/>
      <use x="136.572266" xlink:href="#DejaVuSans-69"/>
      <use x="164.355469" xlink:href="#DejaVuSans-71"/>
      <use x="227.832031" xlink:href="#DejaVuSans-75"/>
      <use x="291.210938" xlink:href="#DejaVuSans-65"/>
      <use x="352.734375" xlink:href="#DejaVuSans-20"/>
      <use x="384.521484" xlink:href="#DejaVuSans-47"/>
      <use x="462.011719" xlink:href="#DejaVuSans-69"/>
      <use x="489.794922" xlink:href="#DejaVuSans-74"/>
      <use x="529.003906" xlink:href="#DejaVuSans-48"/>
      <use x="604.199219" xlink:href="#DejaVuSans-75"/>
      <use x="667.578125" xlink:href="#DejaVuSans-62"/>
      <use x="731.054688" xlink:href="#DejaVuSans-20"/>
      <use x="762.841797" xlink:href="#DejaVuSans-56"/>
      <use x="829" xlink:href="#DejaVuSans-69"/>
      <use x="856.783203" xlink:href="#DejaVuSans-65"/>
      <use x="918.306641" xlink:href="#DejaVuSans-77"/>
      <use x="1000.09375" xlink:href="#DejaVuSans-73"/>
     </g>
    </g>
   </g>
  </g>
 </g>
 <defs>
  <clipPath id="pc02e1a8435">
   <rect height="100.8" width="558" x="90" y="34.56"/>
  </clipPath>
  <clipPath id="p74eb326cbe">
   <rect height="100.8" width="558" x="90" y="155.52"/>
  </clipPath>
 </defs>
</svg>
