<?xml version="1.0" encoding="utf-8" standalone="no"?>
<!DOCTYPE svg PUBLIC "-//W3C//DTD SVG 1.1//EN"
  "http://www.w3.org/Graphics/SVG/1.1/DTD/svg11.dtd">
<svg xmlns:xlink="http://www.w3.org/1999/xlink" width="720pt" height="288pt" viewBox="0 0 720 288" xmlns="http://www.w3.org/2000/svg" version="1.1">
 <metadata>
  <rdf:RDF xmlns:dc="http://purl.org/dc/elements/1.1/" xmlns:cc="http://creativecommons.org/ns#" xmlns:rdf="http://www.w3.org/1999/02/22-rdf-syntax-ns#">
   <cc:Work>
    <dc:type rdf:resource="http://purl.org/dc/dcmitype/StillImage"/>
    <dc:date>2022-07-04T00:56:55.035640</dc:date>
    <dc:format>image/svg+xml</dc:format>
    <dc:creator>
     <cc:Agent>
      <dc:title>Matplotlib v3.5.2, https://matplotlib.org/</dc:title>
     </cc:Agent>
    </dc:creator>
   </cc:Work>
  </rdf:RDF>
 </metadata>
 <defs>
  <style type="text/css">*{stroke-linejoin: round; stroke-linecap: butt}</style>
 </defs>
 <g id="figure_1">
  <g id="patch_1">
   <path d="M 0 288 
L 720 288 
L 720 0 
L 0 0 
z
" style="fill: #ffffff"/>
  </g>
  <g id="axes_1">
   <g id="patch_2">
    <path d="M 90 135.36 
L 648 135.36 
L 648 34.56 
L 90 34.56 
z
" style="fill: #ffffff"/>
   </g>
   <g id="matplotlib.axis_1">
    <g id="xtick_1">
     <g id="line2d_1">
      <defs>
       <path id="m58c406e62e" d="M 0 0 
L 0 3.5 
" style="stroke: #000000; stroke-width: 0.8"/>
      </defs>
      <g>
       <use xlink:href="#m58c406e62e" x="115.363636" y="135.36" style="stroke: #000000; stroke-width: 0.8"/>
      </g>
     </g>
     <g id="text_1">
      <!-- 2020-10-22 -->
      <g transform="translate(86.305824 149.958437)scale(0.1 -0.1)">
       <defs>
        <path id="DejaVuSans-32" d="M 1228 531 
L 3431 531 
L 3431 0 
L 469 0 
L 469 531 
Q 828 903 1448 1529 
Q 2069 2156 2228 2338 
Q 2531 2678 2651 2914 
Q 2772 3150 2772 3378 
Q 2772 3750 2511 3984 
Q 2250 4219 1831 4219 
Q 1534 4219 1204 4116 
Q 875 4013 500 3803 
L 500 4441 
Q 881 4594 1212 4672 
Q 1544 4750 1819 4750 
Q 2544 4750 2975 4387 
Q 3406 4025 3406 3419 
Q 3406 3131 3298 2873 
Q 3191 2616 2906 2266 
Q 2828 2175 2409 1742 
Q 1991 1309 1228 531 
z
" transform="scale(0.015625)"/>
        <path id="DejaVuSans-30" d="M 2034 4250 
Q 1547 4250 1301 3770 
Q 1056 3291 1056 2328 
Q 1056 1369 1301 889 
Q 1547 409 2034 409 
Q 2525 409 2770 889 
Q 3016 1369 3016 2328 
Q 3016 3291 2770 3770 
Q 2525 4250 2034 4250 
z
M 2034 4750 
Q 2819 4750 3233 4129 
Q 3647 3509 3647 2328 
Q 3647 1150 3233 529 
Q 2819 -91 2034 -91 
Q 1250 -91 836 529 
Q 422 1150 422 2328 
Q 422 3509 836 4129 
Q 1250 4750 2034 4750 
z
" transform="scale(0.015625)"/>
        <path id="DejaVuSans-2d" d="M 313 2009 
L 1997 2009 
L 1997 1497 
L 313 1497 
L 313 2009 
z
" transform="scale(0.015625)"/>
        <path id="DejaVuSans-31" d="M 794 531 
L 1825 531 
L 1825 4091 
L 703 3866 
L 703 4441 
L 1819 4666 
L 2450 4666 
L 2450 531 
L 3481 531 
L 3481 0 
L 794 0 
L 794 531 
z
" transform="scale(0.015625)"/>
       </defs>
       <use xlink:href="#DejaVuSans-32"/>
       <use xlink:href="#DejaVuSans-30" x="63.623047"/>
       <use xlink:href="#DejaVuSans-32" x="127.246094"/>
       <use xlink:href="#DejaVuSans-30" x="190.869141"/>
       <use xlink:href="#DejaVuSans-2d" x="254.492188"/>
       <use xlink:href="#DejaVuSans-31" x="290.576172"/>
       <use xlink:href="#DejaVuSans-30" x="354.199219"/>
       <use xlink:href="#DejaVuSans-2d" x="417.822266"/>
       <use xlink:href="#DejaVuSans-32" x="453.90625"/>
       <use xlink:href="#DejaVuSans-32" x="517.529297"/>
      </g>
     </g>
    </g>
    <g id="xtick_2">
     <g id="line2d_2">
      <g>
       <use xlink:href="#m58c406e62e" x="220.389046" y="135.36" style="stroke: #000000; stroke-width: 0.8"/>
      </g>
     </g>
     <g id="text_2">
      <!-- 2021-03-17 -->
      <g transform="translate(191.331233 149.958437)scale(0.1 -0.1)">
       <defs>
        <path id="DejaVuSans-33" d="M 2597 2516 
Q 3050 2419 3304 2112 
Q 3559 1806 3559 1356 
Q 3559 666 3084 287 
Q 2609 -91 1734 -91 
Q 1441 -91 1130 -33 
Q 819 25 488 141 
L 488 750 
Q 750 597 1062 519 
Q 1375 441 1716 441 
Q 2309 441 2620 675 
Q 2931 909 2931 1356 
Q 2931 1769 2642 2001 
Q 2353 2234 1838 2234 
L 1294 2234 
L 1294 2753 
L 1863 2753 
Q 2328 2753 2575 2939 
Q 2822 3125 2822 3475 
Q 2822 3834 2567 4026 
Q 2313 4219 1838 4219 
Q 1578 4219 1281 4162 
Q 984 4106 628 3988 
L 628 4550 
Q 988 4650 1302 4700 
Q 1616 4750 1894 4750 
Q 2613 4750 3031 4423 
Q 3450 4097 3450 3541 
Q 3450 3153 3228 2886 
Q 3006 2619 2597 2516 
z
" transform="scale(0.015625)"/>
        <path id="DejaVuSans-37" d="M 525 4666 
L 3525 4666 
L 3525 4397 
L 1831 0 
L 1172 0 
L 2766 4134 
L 525 4134 
L 525 4666 
z
" transform="scale(0.015625)"/>
       </defs>
       <use xlink:href="#DejaVuSans-32"/>
       <use xlink:href="#DejaVuSans-30" x="63.623047"/>
       <use xlink:href="#DejaVuSans-32" x="127.246094"/>
       <use xlink:href="#DejaVuSans-31" x="190.869141"/>
       <use xlink:href="#DejaVuSans-2d" x="254.492188"/>
       <use xlink:href="#DejaVuSans-30" x="290.576172"/>
       <use xlink:href="#DejaVuSans-33" x="354.199219"/>
       <use xlink:href="#DejaVuSans-2d" x="417.822266"/>
       <use xlink:href="#DejaVuSans-31" x="453.90625"/>
       <use xlink:href="#DejaVuSans-37" x="517.529297"/>
      </g>
     </g>
    </g>
    <g id="xtick_3">
     <g id="line2d_3">
      <g>
       <use xlink:href="#m58c406e62e" x="325.414455" y="135.36" style="stroke: #000000; stroke-width: 0.8"/>
      </g>
     </g>
     <g id="text_3">
      <!-- 2021-07-07 -->
      <g transform="translate(296.356643 149.958437)scale(0.1 -0.1)">
       <use xlink:href="#DejaVuSans-32"/>
       <use xlink:href="#DejaVuSans-30" x="63.623047"/>
       <use xlink:href="#DejaVuSans-32" x="127.246094"/>
       <use xlink:href="#DejaVuSans-31" x="190.869141"/>
       <use xlink:href="#DejaVuSans-2d" x="254.492188"/>
       <use xlink:href="#DejaVuSans-30" x="290.576172"/>
       <use xlink:href="#DejaVuSans-37" x="354.199219"/>
       <use xlink:href="#DejaVuSans-2d" x="417.822266"/>
       <use xlink:href="#DejaVuSans-30" x="453.90625"/>
       <use xlink:href="#DejaVuSans-37" x="517.529297"/>
      </g>
     </g>
    </g>
    <g id="xtick_4">
     <g id="line2d_4">
      <g>
       <use xlink:href="#m58c406e62e" x="430.439864" y="135.36" style="stroke: #000000; stroke-width: 0.8"/>
      </g>
     </g>
     <g id="text_4">
      <!-- 2021-11-18 -->
      <g transform="translate(401.382052 149.958437)scale(0.1 -0.1)">
       <defs>
        <path id="DejaVuSans-38" d="M 2034 2216 
Q 1584 2216 1326 1975 
Q 1069 1734 1069 1313 
Q 1069 891 1326 650 
Q 1584 409 2034 409 
Q 2484 409 2743 651 
Q 3003 894 3003 1313 
Q 3003 1734 2745 1975 
Q 2488 2216 2034 2216 
z
M 1403 2484 
Q 997 2584 770 2862 
Q 544 3141 544 3541 
Q 544 4100 942 4425 
Q 1341 4750 2034 4750 
Q 2731 4750 3128 4425 
Q 3525 4100 3525 3541 
Q 3525 3141 3298 2862 
Q 3072 2584 2669 2484 
Q 3125 2378 3379 2068 
Q 3634 1759 3634 1313 
Q 3634 634 3220 271 
Q 2806 -91 2034 -91 
Q 1263 -91 848 271 
Q 434 634 434 1313 
Q 434 1759 690 2068 
Q 947 2378 1403 2484 
z
M 1172 3481 
Q 1172 3119 1398 2916 
Q 1625 2713 2034 2713 
Q 2441 2713 2670 2916 
Q 2900 3119 2900 3481 
Q 2900 3844 2670 4047 
Q 2441 4250 2034 4250 
Q 1625 4250 1398 4047 
Q 1172 3844 1172 3481 
z
" transform="scale(0.015625)"/>
       </defs>
       <use xlink:href="#DejaVuSans-32"/>
       <use xlink:href="#DejaVuSans-30" x="63.623047"/>
       <use xlink:href="#DejaVuSans-32" x="127.246094"/>
       <use xlink:href="#DejaVuSans-31" x="190.869141"/>
       <use xlink:href="#DejaVuSans-2d" x="254.492188"/>
       <use xlink:href="#DejaVuSans-31" x="290.576172"/>
       <use xlink:href="#DejaVuSans-31" x="354.199219"/>
       <use xlink:href="#DejaVuSans-2d" x="417.822266"/>
       <use xlink:href="#DejaVuSans-31" x="453.90625"/>
       <use xlink:href="#DejaVuSans-38" x="517.529297"/>
      </g>
     </g>
    </g>
    <g id="xtick_5">
     <g id="line2d_5">
      <g>
       <use xlink:href="#m58c406e62e" x="535.465274" y="135.36" style="stroke: #000000; stroke-width: 0.8"/>
      </g>
     </g>
     <g id="text_5">
      <!-- 2022-03-21 -->
      <g transform="translate(506.407461 149.958437)scale(0.1 -0.1)">
       <use xlink:href="#DejaVuSans-32"/>
       <use xlink:href="#DejaVuSans-30" x="63.623047"/>
       <use xlink:href="#DejaVuSans-32" x="127.246094"/>
       <use xlink:href="#DejaVuSans-32" x="190.869141"/>
       <use xlink:href="#DejaVuSans-2d" x="254.492188"/>
       <use xlink:href="#DejaVuSans-30" x="290.576172"/>
       <use xlink:href="#DejaVuSans-33" x="354.199219"/>
       <use xlink:href="#DejaVuSans-2d" x="417.822266"/>
       <use xlink:href="#DejaVuSans-32" x="453.90625"/>
       <use xlink:href="#DejaVuSans-31" x="517.529297"/>
      </g>
     </g>
    </g>
    <g id="xtick_6">
     <g id="line2d_6">
      <g>
       <use xlink:href="#m58c406e62e" x="640.490683" y="135.36" style="stroke: #000000; stroke-width: 0.8"/>
      </g>
     </g>
    </g>
    <g id="text_6">
     <!-- _date -->
     <g transform="translate(355.225 163.636562)scale(0.1 -0.1)">
      <defs>
       <path id="DejaVuSans-5f" d="M 3263 -1063 
L 3263 -1509 
L -63 -1509 
L -63 -1063 
L 3263 -1063 
z
" transform="scale(0.015625)"/>
       <path id="DejaVuSans-64" d="M 2906 2969 
L 2906 4863 
L 3481 4863 
L 3481 0 
L 2906 0 
L 2906 525 
Q 2725 213 2448 61 
Q 2172 -91 1784 -91 
Q 1150 -91 751 415 
Q 353 922 353 1747 
Q 353 2572 751 3078 
Q 1150 3584 1784 3584 
Q 2172 3584 2448 3432 
Q 2725 3281 2906 2969 
z
M 947 1747 
Q 947 1113 1208 752 
Q 1469 391 1925 391 
Q 2381 391 2643 752 
Q 2906 1113 2906 1747 
Q 2906 2381 2643 2742 
Q 2381 3103 1925 3103 
Q 1469 3103 1208 2742 
Q 947 2381 947 1747 
z
" transform="scale(0.015625)"/>
       <path id="DejaVuSans-61" d="M 2194 1759 
Q 1497 1759 1228 1600 
Q 959 1441 959 1056 
Q 959 750 1161 570 
Q 1363 391 1709 391 
Q 2188 391 2477 730 
Q 2766 1069 2766 1631 
L 2766 1759 
L 2194 1759 
z
M 3341 1997 
L 3341 0 
L 2766 0 
L 2766 531 
Q 2569 213 2275 61 
Q 1981 -91 1556 -91 
Q 1019 -91 701 211 
Q 384 513 384 1019 
Q 384 1609 779 1909 
Q 1175 2209 1959 2209 
L 2766 2209 
L 2766 2266 
Q 2766 2663 2505 2880 
Q 2244 3097 1772 3097 
Q 1472 3097 1187 3025 
Q 903 2953 641 2809 
L 641 3341 
Q 956 3463 1253 3523 
Q 1550 3584 1831 3584 
Q 2591 3584 2966 3190 
Q 3341 2797 3341 1997 
z
" transform="scale(0.015625)"/>
       <path id="DejaVuSans-74" d="M 1172 4494 
L 1172 3500 
L 2356 3500 
L 2356 3053 
L 1172 3053 
L 1172 1153 
Q 1172 725 1289 603 
Q 1406 481 1766 481 
L 2356 481 
L 2356 0 
L 1766 0 
Q 1100 0 847 248 
Q 594 497 594 1153 
L 594 3053 
L 172 3053 
L 172 3500 
L 594 3500 
L 594 4494 
L 1172 4494 
z
" transform="scale(0.015625)"/>
       <path id="DejaVuSans-65" d="M 3597 1894 
L 3597 1613 
L 953 1613 
Q 991 1019 1311 708 
Q 1631 397 2203 397 
Q 2534 397 2845 478 
Q 3156 559 3463 722 
L 3463 178 
Q 3153 47 2828 -22 
Q 2503 -91 2169 -91 
Q 1331 -91 842 396 
Q 353 884 353 1716 
Q 353 2575 817 3079 
Q 1281 3584 2069 3584 
Q 2775 3584 3186 3129 
Q 3597 2675 3597 1894 
z
M 3022 2063 
Q 3016 2534 2758 2815 
Q 2500 3097 2075 3097 
Q 1594 3097 1305 2825 
Q 1016 2553 972 2059 
L 3022 2063 
z
" transform="scale(0.015625)"/>
      </defs>
      <use xlink:href="#DejaVuSans-5f"/>
      <use xlink:href="#DejaVuSans-64" x="50"/>
      <use xlink:href="#DejaVuSans-61" x="113.476562"/>
      <use xlink:href="#DejaVuSans-74" x="174.755859"/>
      <use xlink:href="#DejaVuSans-65" x="213.964844"/>
     </g>
    </g>
   </g>
   <g id="matplotlib.axis_2">
    <g id="ytick_1">
     <g id="line2d_7">
      <defs>
       <path id="m4bf1c55cf5" d="M 0 0 
L -3.5 0 
" style="stroke: #000000; stroke-width: 0.8"/>
      </defs>
      <g>
       <use xlink:href="#m4bf1c55cf5" x="90" y="131.401558" style="stroke: #000000; stroke-width: 0.8"/>
      </g>
     </g>
     <g id="text_7">
      <!-- 0 -->
      <g transform="translate(76.6375 135.200777)scale(0.1 -0.1)">
       <use xlink:href="#DejaVuSans-30"/>
      </g>
     </g>
    </g>
    <g id="ytick_2">
     <g id="line2d_8">
      <g>
       <use xlink:href="#m4bf1c55cf5" x="90" y="100.232727" style="stroke: #000000; stroke-width: 0.8"/>
      </g>
     </g>
     <g id="text_8">
      <!-- 50 -->
      <g transform="translate(70.275 104.031946)scale(0.1 -0.1)">
       <defs>
        <path id="DejaVuSans-35" d="M 691 4666 
L 3169 4666 
L 3169 4134 
L 1269 4134 
L 1269 2991 
Q 1406 3038 1543 3061 
Q 1681 3084 1819 3084 
Q 2600 3084 3056 2656 
Q 3513 2228 3513 1497 
Q 3513 744 3044 326 
Q 2575 -91 1722 -91 
Q 1428 -91 1123 -41 
Q 819 9 494 109 
L 494 744 
Q 775 591 1075 516 
Q 1375 441 1709 441 
Q 2250 441 2565 725 
Q 2881 1009 2881 1497 
Q 2881 1984 2565 2268 
Q 2250 2553 1709 2553 
Q 1456 2553 1204 2497 
Q 953 2441 691 2322 
L 691 4666 
z
" transform="scale(0.015625)"/>
       </defs>
       <use xlink:href="#DejaVuSans-35"/>
       <use xlink:href="#DejaVuSans-30" x="63.623047"/>
      </g>
     </g>
    </g>
    <g id="ytick_3">
     <g id="line2d_9">
      <g>
       <use xlink:href="#m4bf1c55cf5" x="90" y="69.063896" style="stroke: #000000; stroke-width: 0.8"/>
      </g>
     </g>
     <g id="text_9">
      <!-- 100 -->
      <g transform="translate(63.9125 72.863115)scale(0.1 -0.1)">
       <use xlink:href="#DejaVuSans-31"/>
       <use xlink:href="#DejaVuSans-30" x="63.623047"/>
       <use xlink:href="#DejaVuSans-30" x="127.246094"/>
      </g>
     </g>
    </g>
    <g id="ytick_4">
     <g id="line2d_10">
      <g>
       <use xlink:href="#m4bf1c55cf5" x="90" y="37.895065" style="stroke: #000000; stroke-width: 0.8"/>
      </g>
     </g>
     <g id="text_10">
      <!-- 150 -->
      <g transform="translate(63.9125 41.694284)scale(0.1 -0.1)">
       <use xlink:href="#DejaVuSans-31"/>
       <use xlink:href="#DejaVuSans-35" x="63.623047"/>
       <use xlink:href="#DejaVuSans-30" x="127.246094"/>
      </g>
     </g>
    </g>
   </g>
   <g id="line2d_11">
    <path d="M 115.363636 127.661299 
L 116.41389 128.284675 
L 117.464145 130.778182 
L 118.514399 130.778182 
L 119.564653 129.531429 
L 120.614907 129.531429 
L 121.665161 120.804156 
L 122.715415 120.804156 
L 123.765669 130.778182 
L 124.815923 130.778182 
L 125.866177 124.544416 
L 126.916431 126.414545 
L 127.966685 130.778182 
L 129.01694 127.661299 
L 130.067194 128.908052 
L 131.117448 128.908052 
L 132.167702 130.778182 
L 134.26821 128.284675 
L 135.318464 130.154805 
L 136.368718 130.778182 
L 137.418972 130.154805 
L 138.469226 130.154805 
L 139.519481 129.531429 
L 140.569735 130.154805 
L 141.619989 130.154805 
L 142.670243 128.908052 
L 143.720497 130.154805 
L 144.770751 130.154805 
L 145.821005 122.674286 
L 146.871259 127.661299 
L 147.921513 130.154805 
L 148.971767 115.817143 
L 150.022021 130.778182 
L 158.424054 130.778182 
L 159.474308 130.154805 
L 160.524562 130.778182 
L 167.876341 130.778182 
L 168.926595 128.908052 
L 169.976849 129.531429 
L 171.027103 130.778182 
L 172.077357 129.531429 
L 173.127612 127.661299 
L 174.177866 130.154805 
L 175.22812 130.154805 
L 176.278374 128.908052 
L 177.328628 120.804156 
L 178.378882 130.154805 
L 179.429136 130.778182 
L 180.47939 130.154805 
L 181.529644 127.037922 
L 182.579898 130.154805 
L 183.630152 129.531429 
L 184.680407 125.167792 
L 185.730661 128.908052 
L 186.780915 127.037922 
L 187.831169 130.154805 
L 188.881423 129.531429 
L 189.931677 130.154805 
L 190.981931 129.531429 
L 193.082439 129.531429 
L 194.132693 128.284675 
L 195.182947 130.778182 
L 196.233202 130.778182 
L 197.283456 128.284675 
L 198.33371 128.284675 
L 199.383964 125.167792 
L 200.434218 129.531429 
L 201.484472 127.661299 
L 202.534726 130.778182 
L 203.58498 125.791169 
L 204.635234 128.908052 
L 205.685488 129.531429 
L 206.735743 128.908052 
L 207.785997 126.414545 
L 208.836251 130.154805 
L 209.886505 128.284675 
L 210.936759 121.427532 
L 211.987013 126.414545 
L 213.037267 120.804156 
L 214.087521 87.141818 
L 215.137775 127.661299 
L 216.188029 130.778182 
L 217.238283 128.908052 
L 218.288538 123.297662 
L 219.338792 124.544416 
L 220.389046 127.661299 
L 221.4393 119.557403 
L 222.489554 128.908052 
L 223.539808 128.908052 
L 224.590062 130.154805 
L 225.640316 122.674286 
L 226.69057 124.544416 
L 227.740824 130.778182 
L 228.791078 129.531429 
L 229.841333 130.778182 
L 230.891587 128.284675 
L 231.941841 100.232727 
L 232.992095 118.310649 
L 234.042349 121.427532 
L 235.092603 127.661299 
L 236.142857 130.778182 
L 237.193111 126.414545 
L 238.243365 128.908052 
L 239.293619 122.050909 
L 240.343874 128.908052 
L 241.394128 123.297662 
L 242.444382 115.817143 
L 243.494636 122.674286 
L 244.54489 127.661299 
L 245.595144 115.193766 
L 246.645398 115.193766 
L 247.695652 116.440519 
L 248.745906 92.128831 
L 249.79616 107.08987 
L 250.846414 107.08987 
L 251.896669 119.557403 
L 252.946923 110.206753 
L 253.997177 118.934026 
L 255.047431 129.531429 
L 256.097685 130.154805 
L 257.147939 116.440519 
L 258.198193 114.57039 
L 259.248447 115.817143 
L 260.298701 111.453506 
L 261.348955 105.843117 
L 262.399209 128.284675 
L 263.449464 130.154805 
L 264.499718 116.440519 
L 265.549972 117.687273 
L 266.600226 100.232727 
L 267.65048 115.817143 
L 268.700734 116.440519 
L 269.750988 130.154805 
L 270.801242 128.908052 
L 271.851496 114.57039 
L 272.90175 102.102857 
L 273.952005 117.063896 
L 275.002259 113.323636 
L 276.052513 95.245714 
L 277.102767 117.063896 
L 278.153021 130.154805 
L 279.203275 114.57039 
L 280.253529 105.843117 
L 281.303783 102.726234 
L 282.354037 108.96 
L 283.404291 111.453506 
L 284.454545 129.531429 
L 285.5048 115.193766 
L 286.555054 108.336623 
L 287.605308 115.817143 
L 288.655562 115.193766 
L 289.705816 113.947013 
L 290.75607 125.791169 
L 291.806324 115.817143 
L 292.856578 113.323636 
L 293.906832 115.817143 
L 294.957086 116.440519 
L 296.00734 116.440519 
L 297.057595 130.778182 
L 298.107849 130.778182 
L 299.158103 115.193766 
L 300.208357 112.076883 
L 301.258611 115.193766 
L 302.308865 102.726234 
L 303.359119 105.843117 
L 304.409373 130.778182 
L 305.459627 115.817143 
L 306.509881 113.947013 
L 307.560136 113.323636 
L 308.61039 112.076883 
L 309.660644 117.063896 
L 310.710898 130.154805 
L 311.761152 114.57039 
L 312.811406 110.83013 
L 313.86166 105.21974 
L 314.911914 104.596364 
L 315.962168 39.141818 
L 318.062676 130.778182 
L 319.112931 118.310649 
L 320.163185 117.063896 
L 321.213439 124.544416 
L 322.263693 130.778182 
L 323.313947 130.154805 
L 324.364201 123.297662 
L 325.414455 125.167792 
L 326.464709 130.154805 
L 327.514963 128.908052 
L 328.565217 130.154805 
L 329.615471 130.778182 
L 330.665726 130.154805 
L 331.71598 130.778182 
L 332.766234 128.908052 
L 333.816488 129.531429 
L 334.866742 130.778182 
L 338.017504 130.778182 
L 339.067758 128.284675 
L 340.118012 130.154805 
L 341.168267 130.778182 
L 342.218521 130.154805 
L 343.268775 127.037922 
L 344.319029 130.778182 
L 345.369283 117.063896 
L 346.419537 129.531429 
L 347.469791 130.778182 
L 349.570299 129.531429 
L 350.620553 130.778182 
L 351.670807 130.154805 
L 352.721062 130.778182 
L 353.771316 128.908052 
L 354.82157 130.154805 
L 355.871824 129.531429 
L 356.922078 130.778182 
L 359.022586 130.778182 
L 361.123094 129.531429 
L 362.173348 127.037922 
L 363.223602 130.154805 
L 364.273857 130.154805 
L 365.324111 124.544416 
L 366.374365 122.050909 
L 367.424619 130.778182 
L 369.525127 130.778182 
L 371.625635 129.531429 
L 372.675889 130.154805 
L 373.726143 125.167792 
L 374.776398 113.323636 
L 375.826652 127.661299 
L 376.876906 110.206753 
L 377.92716 126.414545 
L 378.977414 130.154805 
L 380.027668 130.778182 
L 382.128176 130.778182 
L 383.17843 130.154805 
L 384.228684 130.778182 
L 385.278938 130.778182 
L 386.329193 128.284675 
L 387.379447 98.362597 
L 388.429701 117.063896 
L 389.479955 129.531429 
L 390.530209 122.674286 
L 391.580463 98.985974 
L 392.630717 96.492468 
L 393.680971 90.882078 
L 394.731225 103.972987 
L 395.781479 120.804156 
L 396.831733 122.674286 
L 397.881988 130.778182 
L 398.932242 125.791169 
L 399.982496 130.778182 
L 401.03275 130.778182 
L 402.083004 122.050909 
L 403.133258 129.531429 
L 404.183512 97.739221 
L 405.233766 122.674286 
L 406.28402 95.869091 
L 407.334274 123.297662 
L 408.384529 128.284675 
L 409.434783 121.427532 
L 410.485037 93.998961 
L 411.535291 120.804156 
L 412.585545 122.674286 
L 413.635799 129.531429 
L 414.686053 130.778182 
L 415.736307 130.778182 
L 416.786561 129.531429 
L 417.836815 126.414545 
L 418.887069 123.921039 
L 419.937324 122.674286 
L 420.987578 130.778182 
L 422.037832 130.778182 
L 423.088086 120.180779 
L 424.13834 115.817143 
L 425.188594 130.778182 
L 426.238848 129.531429 
L 427.289102 130.778182 
L 428.339356 125.167792 
L 429.38961 129.531429 
L 430.439864 130.778182 
L 431.490119 130.154805 
L 432.540373 128.908052 
L 433.590627 128.908052 
L 434.640881 106.466494 
L 435.691135 128.908052 
L 436.741389 128.908052 
L 437.791643 120.804156 
L 438.841897 105.21974 
L 439.892151 123.297662 
L 440.942405 123.297662 
L 441.99266 129.531429 
L 443.042914 120.180779 
L 444.093168 103.34961 
L 445.143422 63.453506 
L 446.193676 123.297662 
L 447.24393 113.323636 
L 448.294184 130.778182 
L 449.344438 104.596364 
L 450.394692 99.609351 
L 451.444946 127.037922 
L 452.4952 117.063896 
L 453.545455 130.778182 
L 455.645963 130.778182 
L 456.696217 100.856104 
L 457.746471 98.985974 
L 458.796725 130.154805 
L 459.846979 120.804156 
L 460.897233 130.778182 
L 461.947487 130.778182 
L 462.997741 129.531429 
L 464.047995 130.154805 
L 465.09825 128.908052 
L 466.148504 130.778182 
L 467.198758 122.050909 
L 468.249012 117.063896 
L 469.299266 93.998961 
L 470.34952 124.544416 
L 471.399774 130.154805 
L 472.450028 115.193766 
L 473.500282 130.154805 
L 474.550536 125.791169 
L 475.600791 120.180779 
L 476.651045 122.674286 
L 477.701299 127.661299 
L 478.751553 130.154805 
L 479.801807 127.037922 
L 480.852061 115.817143 
L 481.902315 128.284675 
L 482.952569 122.674286 
L 484.002823 125.167792 
L 485.053077 130.778182 
L 486.103331 75.297662 
L 487.153586 117.687273 
L 488.20384 97.115844 
L 489.254094 122.050909 
L 490.304348 78.414545 
L 491.354602 130.778182 
L 492.404856 118.934026 
L 494.505364 99.609351 
L 495.555618 108.96 
L 496.605872 125.791169 
L 497.656126 130.778182 
L 499.756635 87.765195 
L 500.806889 90.882078 
L 501.857143 130.778182 
L 502.907397 122.674286 
L 503.957651 128.908052 
L 505.007905 94.622338 
L 506.058159 128.908052 
L 507.108413 130.778182 
L 509.208922 130.778182 
L 510.259176 128.284675 
L 511.30943 128.908052 
L 512.359684 124.544416 
L 513.409938 127.037922 
L 514.460192 123.921039 
L 515.510446 112.70026 
L 516.5607 130.154805 
L 517.610954 79.037922 
L 518.661208 123.297662 
L 519.711462 122.050909 
L 520.761717 95.245714 
L 521.811971 95.869091 
L 522.862225 117.687273 
L 524.962733 130.154805 
L 526.012987 127.661299 
L 527.063241 130.154805 
L 528.113495 125.167792 
L 529.163749 124.544416 
L 530.214003 75.297662 
L 531.264257 50.985974 
L 532.314512 110.206753 
L 533.364766 130.154805 
L 534.41502 120.804156 
L 535.465274 128.908052 
L 536.515528 129.531429 
L 537.565782 129.531429 
L 538.616036 130.778182 
L 539.66629 130.778182 
L 540.716544 130.154805 
L 542.817053 130.154805 
L 543.867307 130.778182 
L 547.018069 130.778182 
L 548.068323 129.531429 
L 549.118577 129.531429 
L 550.168831 130.778182 
L 551.219085 130.778182 
L 552.269339 130.154805 
L 553.319593 130.154805 
L 554.369848 130.778182 
L 555.420102 130.778182 
L 556.470356 130.154805 
L 557.52061 128.908052 
L 558.570864 130.154805 
L 559.621118 130.778182 
L 560.671372 130.778182 
L 561.721626 129.531429 
L 562.77188 130.778182 
L 564.872388 128.284675 
L 565.922643 123.297662 
L 566.972897 128.284675 
L 568.023151 130.154805 
L 569.073405 130.778182 
L 570.123659 129.531429 
L 571.173913 125.791169 
L 572.224167 120.180779 
L 573.274421 130.778182 
L 574.324675 130.154805 
L 575.374929 130.778182 
L 577.475438 130.778182 
L 578.525692 123.297662 
L 579.575946 130.778182 
L 580.6262 123.297662 
L 581.676454 124.544416 
L 582.726708 130.778182 
L 583.776962 130.154805 
L 584.827216 113.323636 
L 585.87747 130.154805 
L 586.927724 105.21974 
L 587.977979 104.596364 
L 589.028233 123.921039 
L 590.078487 69.687273 
L 591.128741 105.21974 
L 592.178995 128.284675 
L 593.229249 130.154805 
L 594.279503 130.778182 
L 595.329757 129.531429 
L 596.380011 130.154805 
L 597.430265 102.726234 
L 598.480519 128.908052 
L 599.530774 130.778182 
L 600.581028 130.154805 
L 601.631282 130.778182 
L 602.681536 120.180779 
L 603.73179 130.778182 
L 605.832298 130.778182 
L 606.882552 126.414545 
L 607.932806 127.037922 
L 608.98306 108.96 
L 610.033315 130.778182 
L 611.083569 128.908052 
L 612.133823 128.284675 
L 613.184077 115.817143 
L 614.234331 113.323636 
L 615.284585 130.778182 
L 616.334839 128.908052 
L 617.385093 129.531429 
L 618.435347 124.544416 
L 619.485601 129.531429 
L 620.535855 127.661299 
L 621.58611 130.154805 
L 622.636364 130.778182 
L 622.636364 130.778182 
" clip-path="url(#pf31c159858)" style="fill: none; stroke: #1f77b4; stroke-width: 1.5; stroke-linecap: square"/>
   </g>
   <g id="line2d_12">
    <path d="M 115.363636 127.661299 
L 116.41389 128.284675 
L 117.464145 130.778182 
L 118.514399 130.778182 
L 119.564653 129.531429 
L 120.614907 129.531429 
L 121.665161 130.154805 
L 122.715415 128.284675 
L 123.765669 130.778182 
L 124.815923 130.778182 
L 125.866177 124.544416 
L 126.916431 129.531429 
L 127.966685 130.778182 
L 129.01694 128.908052 
L 130.067194 128.908052 
L 131.117448 129.531429 
L 132.167702 130.778182 
L 133.217956 129.531429 
L 134.26821 128.908052 
L 135.318464 130.154805 
L 136.368718 130.778182 
L 137.418972 130.154805 
L 138.469226 130.778182 
L 139.519481 129.531429 
L 141.619989 130.778182 
L 142.670243 130.154805 
L 143.720497 130.778182 
L 144.770751 130.154805 
L 145.821005 125.791169 
L 146.871259 127.661299 
L 147.921513 130.154805 
L 148.971767 125.167792 
L 150.022021 130.778182 
L 158.424054 130.778182 
L 159.474308 130.154805 
L 160.524562 130.778182 
L 167.876341 130.778182 
L 168.926595 129.531429 
L 169.976849 130.778182 
L 171.027103 130.778182 
L 173.127612 129.531429 
L 174.177866 130.778182 
L 176.278374 130.778182 
L 177.328628 124.544416 
L 178.378882 130.778182 
L 179.429136 130.778182 
L 180.47939 130.154805 
L 181.529644 128.908052 
L 182.579898 130.154805 
L 183.630152 129.531429 
L 184.680407 127.037922 
L 185.730661 129.531429 
L 186.780915 130.778182 
L 187.831169 130.154805 
L 188.881423 130.778182 
L 189.931677 130.154805 
L 190.981931 130.778182 
L 192.032185 129.531429 
L 194.132693 129.531429 
L 195.182947 130.778182 
L 196.233202 130.778182 
L 199.383964 127.037922 
L 200.434218 129.531429 
L 201.484472 128.284675 
L 202.534726 130.778182 
L 203.58498 127.037922 
L 204.635234 128.908052 
L 205.685488 129.531429 
L 206.735743 128.908052 
L 207.785997 126.414545 
L 208.836251 130.154805 
L 209.886505 128.284675 
L 210.936759 124.544416 
L 211.987013 127.037922 
L 213.037267 123.297662 
L 214.087521 108.96 
L 215.137775 127.661299 
L 216.188029 130.778182 
L 217.238283 129.531429 
L 218.288538 123.921039 
L 220.389046 127.661299 
L 221.4393 122.050909 
L 222.489554 128.908052 
L 223.539808 128.908052 
L 224.590062 130.154805 
L 225.640316 124.544416 
L 226.69057 124.544416 
L 227.740824 130.778182 
L 228.791078 129.531429 
L 229.841333 130.778182 
L 230.891587 128.908052 
L 231.941841 116.440519 
L 232.992095 122.674286 
L 234.042349 124.544416 
L 235.092603 128.284675 
L 236.142857 130.778182 
L 237.193111 127.661299 
L 238.243365 130.154805 
L 239.293619 123.921039 
L 240.343874 129.531429 
L 241.394128 123.921039 
L 242.444382 120.180779 
L 243.494636 123.297662 
L 244.54489 128.284675 
L 245.595144 120.804156 
L 246.645398 125.167792 
L 247.695652 130.154805 
L 248.745906 121.427532 
L 249.79616 128.908052 
L 250.846414 125.791169 
L 251.896669 121.427532 
L 252.946923 125.167792 
L 253.997177 130.778182 
L 255.047431 130.154805 
L 256.097685 130.154805 
L 257.147939 130.778182 
L 258.198193 128.908052 
L 259.248447 129.531429 
L 261.348955 120.804156 
L 262.399209 128.284675 
L 263.449464 130.154805 
L 264.499718 130.778182 
L 265.549972 128.908052 
L 266.600226 117.687273 
L 267.65048 130.778182 
L 268.700734 129.531429 
L 269.750988 130.154805 
L 271.851496 130.154805 
L 272.90175 118.934026 
L 273.952005 128.908052 
L 275.002259 127.037922 
L 276.052513 115.817143 
L 277.102767 120.180779 
L 278.153021 130.154805 
L 279.203275 130.778182 
L 280.253529 125.791169 
L 281.303783 129.531429 
L 282.354037 128.908052 
L 283.404291 130.154805 
L 284.454545 130.154805 
L 285.5048 130.778182 
L 286.555054 123.921039 
L 287.605308 130.778182 
L 288.655562 130.154805 
L 289.705816 128.908052 
L 290.75607 127.037922 
L 291.806324 130.778182 
L 292.856578 128.908052 
L 293.906832 130.778182 
L 294.957086 129.531429 
L 296.00734 129.531429 
L 297.057595 130.778182 
L 299.158103 130.778182 
L 300.208357 127.661299 
L 301.258611 130.778182 
L 302.308865 128.908052 
L 303.359119 125.791169 
L 304.409373 130.778182 
L 305.459627 130.778182 
L 306.509881 130.154805 
L 307.560136 128.908052 
L 310.710898 130.778182 
L 311.761152 130.154805 
L 312.811406 126.414545 
L 313.86166 126.414545 
L 314.911914 127.661299 
L 315.962168 130.778182 
L 317.012422 121.427532 
L 318.062676 130.778182 
L 319.112931 130.154805 
L 320.163185 126.414545 
L 321.213439 125.791169 
L 322.263693 130.778182 
L 323.313947 130.154805 
L 324.364201 123.297662 
L 325.414455 126.414545 
L 326.464709 130.154805 
L 327.514963 128.908052 
L 328.565217 130.778182 
L 329.615471 130.778182 
L 330.665726 130.154805 
L 331.71598 130.778182 
L 332.766234 128.908052 
L 333.816488 129.531429 
L 334.866742 130.778182 
L 338.017504 130.778182 
L 339.067758 128.284675 
L 340.118012 130.154805 
L 341.168267 130.778182 
L 342.218521 130.154805 
L 343.268775 127.661299 
L 344.319029 130.778182 
L 345.369283 130.778182 
L 346.419537 129.531429 
L 347.469791 130.778182 
L 349.570299 129.531429 
L 350.620553 130.778182 
L 351.670807 130.154805 
L 352.721062 130.778182 
L 353.771316 128.908052 
L 354.82157 130.154805 
L 355.871824 129.531429 
L 356.922078 130.778182 
L 359.022586 130.778182 
L 361.123094 129.531429 
L 362.173348 127.037922 
L 363.223602 130.154805 
L 364.273857 130.778182 
L 365.324111 124.544416 
L 366.374365 123.921039 
L 367.424619 130.778182 
L 369.525127 130.778182 
L 371.625635 129.531429 
L 372.675889 130.778182 
L 373.726143 125.791169 
L 374.776398 122.050909 
L 375.826652 130.154805 
L 376.876906 121.427532 
L 377.92716 127.661299 
L 378.977414 130.778182 
L 382.128176 130.778182 
L 383.17843 130.154805 
L 384.228684 130.778182 
L 385.278938 130.778182 
L 386.329193 128.284675 
L 387.379447 114.57039 
L 388.429701 119.557403 
L 389.479955 129.531429 
L 390.530209 123.921039 
L 391.580463 114.57039 
L 392.630717 112.076883 
L 393.680971 112.076883 
L 394.731225 119.557403 
L 395.781479 121.427532 
L 396.831733 124.544416 
L 397.881988 130.778182 
L 398.932242 126.414545 
L 399.982496 130.778182 
L 401.03275 130.778182 
L 402.083004 123.297662 
L 403.133258 129.531429 
L 404.183512 122.674286 
L 405.233766 128.284675 
L 406.28402 126.414545 
L 407.334274 130.154805 
L 408.384529 130.778182 
L 409.434783 128.284675 
L 410.485037 121.427532 
L 411.535291 125.791169 
L 412.585545 126.414545 
L 413.635799 130.154805 
L 414.686053 130.778182 
L 415.736307 130.778182 
L 416.786561 129.531429 
L 417.836815 128.908052 
L 418.887069 127.037922 
L 419.937324 127.037922 
L 420.987578 130.778182 
L 422.037832 130.778182 
L 423.088086 125.167792 
L 424.13834 123.921039 
L 425.188594 130.778182 
L 426.238848 129.531429 
L 427.289102 130.778182 
L 428.339356 127.661299 
L 429.38961 129.531429 
L 430.439864 130.778182 
L 431.490119 130.154805 
L 432.540373 128.908052 
L 433.590627 128.908052 
L 434.640881 122.050909 
L 435.691135 128.908052 
L 436.741389 129.531429 
L 437.791643 126.414545 
L 438.841897 120.180779 
L 439.892151 126.414545 
L 440.942405 127.037922 
L 441.99266 130.154805 
L 443.042914 126.414545 
L 445.143422 112.70026 
L 446.193676 127.661299 
L 447.24393 123.921039 
L 448.294184 130.778182 
L 449.344438 120.804156 
L 450.394692 117.063896 
L 451.444946 128.284675 
L 452.4952 123.921039 
L 453.545455 130.778182 
L 455.645963 130.778182 
L 456.696217 120.180779 
L 457.746471 116.440519 
L 458.796725 130.154805 
L 459.846979 125.791169 
L 460.897233 130.778182 
L 461.947487 130.778182 
L 462.997741 130.154805 
L 464.047995 130.778182 
L 465.09825 130.154805 
L 466.148504 130.778182 
L 467.198758 126.414545 
L 468.249012 124.544416 
L 469.299266 117.063896 
L 470.34952 127.661299 
L 471.399774 130.778182 
L 472.450028 122.674286 
L 473.500282 130.154805 
L 475.600791 126.414545 
L 476.651045 127.661299 
L 477.701299 128.284675 
L 478.751553 130.778182 
L 479.801807 127.661299 
L 480.852061 122.674286 
L 481.902315 129.531429 
L 482.952569 127.037922 
L 484.002823 127.661299 
L 485.053077 130.778182 
L 486.103331 110.206753 
L 487.153586 123.921039 
L 488.20384 118.310649 
L 489.254094 126.414545 
L 490.304348 112.076883 
L 491.354602 130.778182 
L 492.404856 130.154805 
L 493.45511 118.934026 
L 494.505364 117.063896 
L 495.555618 118.934026 
L 496.605872 128.284675 
L 497.656126 130.778182 
L 498.706381 121.427532 
L 499.756635 113.947013 
L 500.806889 113.323636 
L 501.857143 130.778182 
L 502.907397 127.037922 
L 503.957651 130.778182 
L 505.007905 117.063896 
L 506.058159 129.531429 
L 507.108413 130.778182 
L 509.208922 130.778182 
L 510.259176 128.908052 
L 511.30943 130.154805 
L 512.359684 127.661299 
L 513.409938 128.908052 
L 514.460192 127.661299 
L 515.510446 121.427532 
L 516.5607 130.154805 
L 517.610954 112.076883 
L 518.661208 126.414545 
L 519.711462 125.791169 
L 520.761717 117.687273 
L 521.811971 117.687273 
L 522.862225 125.167792 
L 523.912479 126.414545 
L 524.962733 130.778182 
L 526.012987 128.908052 
L 527.063241 130.778182 
L 528.113495 128.908052 
L 529.163749 128.284675 
L 530.214003 118.310649 
L 531.264257 104.596364 
L 532.314512 122.050909 
L 533.364766 130.154805 
L 534.41502 130.778182 
L 535.465274 128.908052 
L 536.515528 129.531429 
L 537.565782 129.531429 
L 538.616036 130.778182 
L 539.66629 130.778182 
L 540.716544 130.154805 
L 541.766798 130.778182 
L 542.817053 130.154805 
L 543.867307 130.778182 
L 547.018069 130.778182 
L 548.068323 129.531429 
L 550.168831 130.778182 
L 551.219085 130.778182 
L 552.269339 130.154805 
L 553.319593 130.154805 
L 554.369848 130.778182 
L 555.420102 130.778182 
L 556.470356 130.154805 
L 558.570864 130.154805 
L 559.621118 130.778182 
L 560.671372 130.778182 
L 561.721626 129.531429 
L 562.77188 130.778182 
L 563.822134 130.154805 
L 564.872388 128.908052 
L 565.922643 127.037922 
L 566.972897 129.531429 
L 569.073405 130.778182 
L 572.224167 127.037922 
L 573.274421 130.778182 
L 574.324675 130.154805 
L 575.374929 130.778182 
L 577.475438 130.778182 
L 578.525692 128.284675 
L 579.575946 130.778182 
L 580.6262 126.414545 
L 581.676454 127.037922 
L 582.726708 130.778182 
L 583.776962 130.778182 
L 584.827216 123.921039 
L 585.87747 130.778182 
L 586.927724 119.557403 
L 587.977979 119.557403 
L 589.028233 126.414545 
L 590.078487 113.323636 
L 591.128741 120.804156 
L 592.178995 129.531429 
L 594.279503 130.778182 
L 595.329757 130.154805 
L 598.480519 130.154805 
L 599.530774 130.778182 
L 600.581028 130.154805 
L 601.631282 130.778182 
L 602.681536 130.154805 
L 603.73179 130.778182 
L 605.832298 130.778182 
L 606.882552 127.661299 
L 607.932806 128.284675 
L 608.98306 119.557403 
L 610.033315 130.778182 
L 611.083569 129.531429 
L 612.133823 128.908052 
L 613.184077 127.661299 
L 614.234331 123.297662 
L 615.284585 130.778182 
L 616.334839 129.531429 
L 617.385093 130.154805 
L 618.435347 127.661299 
L 619.485601 130.154805 
L 620.535855 129.531429 
L 622.636364 130.778182 
L 622.636364 130.778182 
" clip-path="url(#pf31c159858)" style="fill: none; stroke: #ff7f0e; stroke-width: 1.5; stroke-linecap: square"/>
   </g>
   <g id="patch_3">
    <path d="M 90 135.36 
L 90 34.56 
" style="fill: none; stroke: #000000; stroke-width: 0.8; stroke-linejoin: miter; stroke-linecap: square"/>
   </g>
   <g id="patch_4">
    <path d="M 648 135.36 
L 648 34.56 
" style="fill: none; stroke: #000000; stroke-width: 0.8; stroke-linejoin: miter; stroke-linecap: square"/>
   </g>
   <g id="patch_5">
    <path d="M 90 135.36 
L 648 135.36 
" style="fill: none; stroke: #000000; stroke-width: 0.8; stroke-linejoin: miter; stroke-linecap: square"/>
   </g>
   <g id="patch_6">
    <path d="M 90 34.56 
L 648 34.56 
" style="fill: none; stroke: #000000; stroke-width: 0.8; stroke-linejoin: miter; stroke-linecap: square"/>
   </g>
   <g id="legend_1">
    <g id="patch_7">
     <path d="M 97 71.91625 
L 238.8625 71.91625 
Q 240.8625 71.91625 240.8625 69.91625 
L 240.8625 41.56 
Q 240.8625 39.56 238.8625 39.56 
L 97 39.56 
Q 95 39.56 95 41.56 
L 95 69.91625 
Q 95 71.91625 97 71.91625 
z
" style="fill: #ffffff; opacity: 0.8; stroke: #cccccc; stroke-linejoin: miter"/>
    </g>
    <g id="line2d_13">
     <path d="M 99 47.658437 
L 109 47.658437 
L 119 47.658437 
" style="fill: none; stroke: #1f77b4; stroke-width: 1.5; stroke-linecap: square"/>
    </g>
    <g id="text_11">
     <!-- Total GitHub Clones -->
     <g transform="translate(127 51.158437)scale(0.1 -0.1)">
      <defs>
       <path id="DejaVuSans-54" d="M -19 4666 
L 3928 4666 
L 3928 4134 
L 2272 4134 
L 2272 0 
L 1638 0 
L 1638 4134 
L -19 4134 
L -19 4666 
z
" transform="scale(0.015625)"/>
       <path id="DejaVuSans-6f" d="M 1959 3097 
Q 1497 3097 1228 2736 
Q 959 2375 959 1747 
Q 959 1119 1226 758 
Q 1494 397 1959 397 
Q 2419 397 2687 759 
Q 2956 1122 2956 1747 
Q 2956 2369 2687 2733 
Q 2419 3097 1959 3097 
z
M 1959 3584 
Q 2709 3584 3137 3096 
Q 3566 2609 3566 1747 
Q 3566 888 3137 398 
Q 2709 -91 1959 -91 
Q 1206 -91 779 398 
Q 353 888 353 1747 
Q 353 2609 779 3096 
Q 1206 3584 1959 3584 
z
" transform="scale(0.015625)"/>
       <path id="DejaVuSans-6c" d="M 603 4863 
L 1178 4863 
L 1178 0 
L 603 0 
L 603 4863 
z
" transform="scale(0.015625)"/>
       <path id="DejaVuSans-20" transform="scale(0.015625)"/>
       <path id="DejaVuSans-47" d="M 3809 666 
L 3809 1919 
L 2778 1919 
L 2778 2438 
L 4434 2438 
L 4434 434 
Q 4069 175 3628 42 
Q 3188 -91 2688 -91 
Q 1594 -91 976 548 
Q 359 1188 359 2328 
Q 359 3472 976 4111 
Q 1594 4750 2688 4750 
Q 3144 4750 3555 4637 
Q 3966 4525 4313 4306 
L 4313 3634 
Q 3963 3931 3569 4081 
Q 3175 4231 2741 4231 
Q 1884 4231 1454 3753 
Q 1025 3275 1025 2328 
Q 1025 1384 1454 906 
Q 1884 428 2741 428 
Q 3075 428 3337 486 
Q 3600 544 3809 666 
z
" transform="scale(0.015625)"/>
       <path id="DejaVuSans-69" d="M 603 3500 
L 1178 3500 
L 1178 0 
L 603 0 
L 603 3500 
z
M 603 4863 
L 1178 4863 
L 1178 4134 
L 603 4134 
L 603 4863 
z
" transform="scale(0.015625)"/>
       <path id="DejaVuSans-48" d="M 628 4666 
L 1259 4666 
L 1259 2753 
L 3553 2753 
L 3553 4666 
L 4184 4666 
L 4184 0 
L 3553 0 
L 3553 2222 
L 1259 2222 
L 1259 0 
L 628 0 
L 628 4666 
z
" transform="scale(0.015625)"/>
       <path id="DejaVuSans-75" d="M 544 1381 
L 544 3500 
L 1119 3500 
L 1119 1403 
Q 1119 906 1312 657 
Q 1506 409 1894 409 
Q 2359 409 2629 706 
Q 2900 1003 2900 1516 
L 2900 3500 
L 3475 3500 
L 3475 0 
L 2900 0 
L 2900 538 
Q 2691 219 2414 64 
Q 2138 -91 1772 -91 
Q 1169 -91 856 284 
Q 544 659 544 1381 
z
M 1991 3584 
L 1991 3584 
z
" transform="scale(0.015625)"/>
       <path id="DejaVuSans-62" d="M 3116 1747 
Q 3116 2381 2855 2742 
Q 2594 3103 2138 3103 
Q 1681 3103 1420 2742 
Q 1159 2381 1159 1747 
Q 1159 1113 1420 752 
Q 1681 391 2138 391 
Q 2594 391 2855 752 
Q 3116 1113 3116 1747 
z
M 1159 2969 
Q 1341 3281 1617 3432 
Q 1894 3584 2278 3584 
Q 2916 3584 3314 3078 
Q 3713 2572 3713 1747 
Q 3713 922 3314 415 
Q 2916 -91 2278 -91 
Q 1894 -91 1617 61 
Q 1341 213 1159 525 
L 1159 0 
L 581 0 
L 581 4863 
L 1159 4863 
L 1159 2969 
z
" transform="scale(0.015625)"/>
       <path id="DejaVuSans-43" d="M 4122 4306 
L 4122 3641 
Q 3803 3938 3442 4084 
Q 3081 4231 2675 4231 
Q 1875 4231 1450 3742 
Q 1025 3253 1025 2328 
Q 1025 1406 1450 917 
Q 1875 428 2675 428 
Q 3081 428 3442 575 
Q 3803 722 4122 1019 
L 4122 359 
Q 3791 134 3420 21 
Q 3050 -91 2638 -91 
Q 1578 -91 968 557 
Q 359 1206 359 2328 
Q 359 3453 968 4101 
Q 1578 4750 2638 4750 
Q 3056 4750 3426 4639 
Q 3797 4528 4122 4306 
z
" transform="scale(0.015625)"/>
       <path id="DejaVuSans-6e" d="M 3513 2113 
L 3513 0 
L 2938 0 
L 2938 2094 
Q 2938 2591 2744 2837 
Q 2550 3084 2163 3084 
Q 1697 3084 1428 2787 
Q 1159 2491 1159 1978 
L 1159 0 
L 581 0 
L 581 3500 
L 1159 3500 
L 1159 2956 
Q 1366 3272 1645 3428 
Q 1925 3584 2291 3584 
Q 2894 3584 3203 3211 
Q 3513 2838 3513 2113 
z
" transform="scale(0.015625)"/>
       <path id="DejaVuSans-73" d="M 2834 3397 
L 2834 2853 
Q 2591 2978 2328 3040 
Q 2066 3103 1784 3103 
Q 1356 3103 1142 2972 
Q 928 2841 928 2578 
Q 928 2378 1081 2264 
Q 1234 2150 1697 2047 
L 1894 2003 
Q 2506 1872 2764 1633 
Q 3022 1394 3022 966 
Q 3022 478 2636 193 
Q 2250 -91 1575 -91 
Q 1294 -91 989 -36 
Q 684 19 347 128 
L 347 722 
Q 666 556 975 473 
Q 1284 391 1588 391 
Q 1994 391 2212 530 
Q 2431 669 2431 922 
Q 2431 1156 2273 1281 
Q 2116 1406 1581 1522 
L 1381 1569 
Q 847 1681 609 1914 
Q 372 2147 372 2553 
Q 372 3047 722 3315 
Q 1072 3584 1716 3584 
Q 2034 3584 2315 3537 
Q 2597 3491 2834 3397 
z
" transform="scale(0.015625)"/>
      </defs>
      <use xlink:href="#DejaVuSans-54"/>
      <use xlink:href="#DejaVuSans-6f" x="44.083984"/>
      <use xlink:href="#DejaVuSans-74" x="105.265625"/>
      <use xlink:href="#DejaVuSans-61" x="144.474609"/>
      <use xlink:href="#DejaVuSans-6c" x="205.753906"/>
      <use xlink:href="#DejaVuSans-20" x="233.537109"/>
      <use xlink:href="#DejaVuSans-47" x="265.324219"/>
      <use xlink:href="#DejaVuSans-69" x="342.814453"/>
      <use xlink:href="#DejaVuSans-74" x="370.597656"/>
      <use xlink:href="#DejaVuSans-48" x="409.806641"/>
      <use xlink:href="#DejaVuSans-75" x="485.001953"/>
      <use xlink:href="#DejaVuSans-62" x="548.380859"/>
      <use xlink:href="#DejaVuSans-20" x="611.857422"/>
      <use xlink:href="#DejaVuSans-43" x="643.644531"/>
      <use xlink:href="#DejaVuSans-6c" x="713.46875"/>
      <use xlink:href="#DejaVuSans-6f" x="741.251953"/>
      <use xlink:href="#DejaVuSans-6e" x="802.433594"/>
      <use xlink:href="#DejaVuSans-65" x="865.8125"/>
      <use xlink:href="#DejaVuSans-73" x="927.335938"/>
     </g>
    </g>
    <g id="line2d_14">
     <path d="M 99 62.336562 
L 109 62.336562 
L 119 62.336562 
" style="fill: none; stroke: #ff7f0e; stroke-width: 1.5; stroke-linecap: square"/>
    </g>
    <g id="text_12">
     <!-- Unique GitHub Clones -->
     <g transform="translate(127 65.836562)scale(0.1 -0.1)">
      <defs>
       <path id="DejaVuSans-55" d="M 556 4666 
L 1191 4666 
L 1191 1831 
Q 1191 1081 1462 751 
Q 1734 422 2344 422 
Q 2950 422 3222 751 
Q 3494 1081 3494 1831 
L 3494 4666 
L 4128 4666 
L 4128 1753 
Q 4128 841 3676 375 
Q 3225 -91 2344 -91 
Q 1459 -91 1007 375 
Q 556 841 556 1753 
L 556 4666 
z
" transform="scale(0.015625)"/>
       <path id="DejaVuSans-71" d="M 947 1747 
Q 947 1113 1208 752 
Q 1469 391 1925 391 
Q 2381 391 2643 752 
Q 2906 1113 2906 1747 
Q 2906 2381 2643 2742 
Q 2381 3103 1925 3103 
Q 1469 3103 1208 2742 
Q 947 2381 947 1747 
z
M 2906 525 
Q 2725 213 2448 61 
Q 2172 -91 1784 -91 
Q 1150 -91 751 415 
Q 353 922 353 1747 
Q 353 2572 751 3078 
Q 1150 3584 1784 3584 
Q 2172 3584 2448 3432 
Q 2725 3281 2906 2969 
L 2906 3500 
L 3481 3500 
L 3481 -1331 
L 2906 -1331 
L 2906 525 
z
" transform="scale(0.015625)"/>
      </defs>
      <use xlink:href="#DejaVuSans-55"/>
      <use xlink:href="#DejaVuSans-6e" x="73.193359"/>
      <use xlink:href="#DejaVuSans-69" x="136.572266"/>
      <use xlink:href="#DejaVuSans-71" x="164.355469"/>
      <use xlink:href="#DejaVuSans-75" x="227.832031"/>
      <use xlink:href="#DejaVuSans-65" x="291.210938"/>
      <use xlink:href="#DejaVuSans-20" x="352.734375"/>
      <use xlink:href="#DejaVuSans-47" x="384.521484"/>
      <use xlink:href="#DejaVuSans-69" x="462.011719"/>
      <use xlink:href="#DejaVuSans-74" x="489.794922"/>
      <use xlink:href="#DejaVuSans-48" x="529.003906"/>
      <use xlink:href="#DejaVuSans-75" x="604.199219"/>
      <use xlink:href="#DejaVuSans-62" x="667.578125"/>
      <use xlink:href="#DejaVuSans-20" x="731.054688"/>
      <use xlink:href="#DejaVuSans-43" x="762.841797"/>
      <use xlink:href="#DejaVuSans-6c" x="832.666016"/>
      <use xlink:href="#DejaVuSans-6f" x="860.449219"/>
      <use xlink:href="#DejaVuSans-6e" x="921.630859"/>
      <use xlink:href="#DejaVuSans-65" x="985.009766"/>
      <use xlink:href="#DejaVuSans-73" x="1046.533203"/>
     </g>
    </g>
   </g>
  </g>
  <g id="axes_2">
   <g id="patch_8">
    <path d="M 90 256.32 
L 648 256.32 
L 648 155.52 
L 90 155.52 
z
" style="fill: #ffffff"/>
   </g>
   <g id="matplotlib.axis_3">
    <g id="xtick_7">
     <g id="line2d_15">
      <g>
       <use xlink:href="#m58c406e62e" x="115.363636" y="256.32" style="stroke: #000000; stroke-width: 0.8"/>
      </g>
     </g>
     <g id="text_13">
      <!-- 2020-10-21 -->
      <g transform="translate(86.305824 270.918437)scale(0.1 -0.1)">
       <use xlink:href="#DejaVuSans-32"/>
       <use xlink:href="#DejaVuSans-30" x="63.623047"/>
       <use xlink:href="#DejaVuSans-32" x="127.246094"/>
       <use xlink:href="#DejaVuSans-30" x="190.869141"/>
       <use xlink:href="#DejaVuSans-2d" x="254.492188"/>
       <use xlink:href="#DejaVuSans-31" x="290.576172"/>
       <use xlink:href="#DejaVuSans-30" x="354.199219"/>
       <use xlink:href="#DejaVuSans-2d" x="417.822266"/>
       <use xlink:href="#DejaVuSans-32" x="453.90625"/>
       <use xlink:href="#DejaVuSans-31" x="517.529297"/>
      </g>
     </g>
    </g>
    <g id="xtick_8">
     <g id="line2d_16">
      <g>
       <use xlink:href="#m58c406e62e" x="197.847007" y="256.32" style="stroke: #000000; stroke-width: 0.8"/>
      </g>
     </g>
     <g id="text_14">
      <!-- 2021-01-31 -->
      <g transform="translate(168.789194 270.918437)scale(0.1 -0.1)">
       <use xlink:href="#DejaVuSans-32"/>
       <use xlink:href="#DejaVuSans-30" x="63.623047"/>
       <use xlink:href="#DejaVuSans-32" x="127.246094"/>
       <use xlink:href="#DejaVuSans-31" x="190.869141"/>
       <use xlink:href="#DejaVuSans-2d" x="254.492188"/>
       <use xlink:href="#DejaVuSans-30" x="290.576172"/>
       <use xlink:href="#DejaVuSans-31" x="354.199219"/>
       <use xlink:href="#DejaVuSans-2d" x="417.822266"/>
       <use xlink:href="#DejaVuSans-33" x="453.90625"/>
       <use xlink:href="#DejaVuSans-31" x="517.529297"/>
      </g>
     </g>
    </g>
    <g id="xtick_9">
     <g id="line2d_17">
      <g>
       <use xlink:href="#m58c406e62e" x="280.330377" y="256.32" style="stroke: #000000; stroke-width: 0.8"/>
      </g>
     </g>
     <g id="text_15">
      <!-- 2021-05-11 -->
      <g transform="translate(251.272564 270.918437)scale(0.1 -0.1)">
       <use xlink:href="#DejaVuSans-32"/>
       <use xlink:href="#DejaVuSans-30" x="63.623047"/>
       <use xlink:href="#DejaVuSans-32" x="127.246094"/>
       <use xlink:href="#DejaVuSans-31" x="190.869141"/>
       <use xlink:href="#DejaVuSans-2d" x="254.492188"/>
       <use xlink:href="#DejaVuSans-30" x="290.576172"/>
       <use xlink:href="#DejaVuSans-35" x="354.199219"/>
       <use xlink:href="#DejaVuSans-2d" x="417.822266"/>
       <use xlink:href="#DejaVuSans-31" x="453.90625"/>
       <use xlink:href="#DejaVuSans-31" x="517.529297"/>
      </g>
     </g>
    </g>
    <g id="xtick_10">
     <g id="line2d_18">
      <g>
       <use xlink:href="#m58c406e62e" x="362.813747" y="256.32" style="stroke: #000000; stroke-width: 0.8"/>
      </g>
     </g>
     <g id="text_16">
      <!-- 2021-08-19 -->
      <g transform="translate(333.755935 270.918437)scale(0.1 -0.1)">
       <defs>
        <path id="DejaVuSans-39" d="M 703 97 
L 703 672 
Q 941 559 1184 500 
Q 1428 441 1663 441 
Q 2288 441 2617 861 
Q 2947 1281 2994 2138 
Q 2813 1869 2534 1725 
Q 2256 1581 1919 1581 
Q 1219 1581 811 2004 
Q 403 2428 403 3163 
Q 403 3881 828 4315 
Q 1253 4750 1959 4750 
Q 2769 4750 3195 4129 
Q 3622 3509 3622 2328 
Q 3622 1225 3098 567 
Q 2575 -91 1691 -91 
Q 1453 -91 1209 -44 
Q 966 3 703 97 
z
M 1959 2075 
Q 2384 2075 2632 2365 
Q 2881 2656 2881 3163 
Q 2881 3666 2632 3958 
Q 2384 4250 1959 4250 
Q 1534 4250 1286 3958 
Q 1038 3666 1038 3163 
Q 1038 2656 1286 2365 
Q 1534 2075 1959 2075 
z
" transform="scale(0.015625)"/>
       </defs>
       <use xlink:href="#DejaVuSans-32"/>
       <use xlink:href="#DejaVuSans-30" x="63.623047"/>
       <use xlink:href="#DejaVuSans-32" x="127.246094"/>
       <use xlink:href="#DejaVuSans-31" x="190.869141"/>
       <use xlink:href="#DejaVuSans-2d" x="254.492188"/>
       <use xlink:href="#DejaVuSans-30" x="290.576172"/>
       <use xlink:href="#DejaVuSans-38" x="354.199219"/>
       <use xlink:href="#DejaVuSans-2d" x="417.822266"/>
       <use xlink:href="#DejaVuSans-31" x="453.90625"/>
       <use xlink:href="#DejaVuSans-39" x="517.529297"/>
      </g>
     </g>
    </g>
    <g id="xtick_11">
     <g id="line2d_19">
      <g>
       <use xlink:href="#m58c406e62e" x="445.297118" y="256.32" style="stroke: #000000; stroke-width: 0.8"/>
      </g>
     </g>
     <g id="text_17">
      <!-- 2021-11-28 -->
      <g transform="translate(416.239305 270.918437)scale(0.1 -0.1)">
       <use xlink:href="#DejaVuSans-32"/>
       <use xlink:href="#DejaVuSans-30" x="63.623047"/>
       <use xlink:href="#DejaVuSans-32" x="127.246094"/>
       <use xlink:href="#DejaVuSans-31" x="190.869141"/>
       <use xlink:href="#DejaVuSans-2d" x="254.492188"/>
       <use xlink:href="#DejaVuSans-31" x="290.576172"/>
       <use xlink:href="#DejaVuSans-31" x="354.199219"/>
       <use xlink:href="#DejaVuSans-2d" x="417.822266"/>
       <use xlink:href="#DejaVuSans-32" x="453.90625"/>
       <use xlink:href="#DejaVuSans-38" x="517.529297"/>
      </g>
     </g>
    </g>
    <g id="xtick_12">
     <g id="line2d_20">
      <g>
       <use xlink:href="#m58c406e62e" x="527.780488" y="256.32" style="stroke: #000000; stroke-width: 0.8"/>
      </g>
     </g>
     <g id="text_18">
      <!-- 2022-03-10 -->
      <g transform="translate(498.722675 270.918437)scale(0.1 -0.1)">
       <use xlink:href="#DejaVuSans-32"/>
       <use xlink:href="#DejaVuSans-30" x="63.623047"/>
       <use xlink:href="#DejaVuSans-32" x="127.246094"/>
       <use xlink:href="#DejaVuSans-32" x="190.869141"/>
       <use xlink:href="#DejaVuSans-2d" x="254.492188"/>
       <use xlink:href="#DejaVuSans-30" x="290.576172"/>
       <use xlink:href="#DejaVuSans-33" x="354.199219"/>
       <use xlink:href="#DejaVuSans-2d" x="417.822266"/>
       <use xlink:href="#DejaVuSans-31" x="453.90625"/>
       <use xlink:href="#DejaVuSans-30" x="517.529297"/>
      </g>
     </g>
    </g>
    <g id="xtick_13">
     <g id="line2d_21">
      <g>
       <use xlink:href="#m58c406e62e" x="610.263858" y="256.32" style="stroke: #000000; stroke-width: 0.8"/>
      </g>
     </g>
     <g id="text_19">
      <!-- 2022-06-19 -->
      <g transform="translate(581.206046 270.918437)scale(0.1 -0.1)">
       <defs>
        <path id="DejaVuSans-36" d="M 2113 2584 
Q 1688 2584 1439 2293 
Q 1191 2003 1191 1497 
Q 1191 994 1439 701 
Q 1688 409 2113 409 
Q 2538 409 2786 701 
Q 3034 994 3034 1497 
Q 3034 2003 2786 2293 
Q 2538 2584 2113 2584 
z
M 3366 4563 
L 3366 3988 
Q 3128 4100 2886 4159 
Q 2644 4219 2406 4219 
Q 1781 4219 1451 3797 
Q 1122 3375 1075 2522 
Q 1259 2794 1537 2939 
Q 1816 3084 2150 3084 
Q 2853 3084 3261 2657 
Q 3669 2231 3669 1497 
Q 3669 778 3244 343 
Q 2819 -91 2113 -91 
Q 1303 -91 875 529 
Q 447 1150 447 2328 
Q 447 3434 972 4092 
Q 1497 4750 2381 4750 
Q 2619 4750 2861 4703 
Q 3103 4656 3366 4563 
z
" transform="scale(0.015625)"/>
       </defs>
       <use xlink:href="#DejaVuSans-32"/>
       <use xlink:href="#DejaVuSans-30" x="63.623047"/>
       <use xlink:href="#DejaVuSans-32" x="127.246094"/>
       <use xlink:href="#DejaVuSans-32" x="190.869141"/>
       <use xlink:href="#DejaVuSans-2d" x="254.492188"/>
       <use xlink:href="#DejaVuSans-30" x="290.576172"/>
       <use xlink:href="#DejaVuSans-36" x="354.199219"/>
       <use xlink:href="#DejaVuSans-2d" x="417.822266"/>
       <use xlink:href="#DejaVuSans-31" x="453.90625"/>
       <use xlink:href="#DejaVuSans-39" x="517.529297"/>
      </g>
     </g>
    </g>
    <g id="text_20">
     <!-- _date -->
     <g transform="translate(355.225 284.596563)scale(0.1 -0.1)">
      <use xlink:href="#DejaVuSans-5f"/>
      <use xlink:href="#DejaVuSans-64" x="50"/>
      <use xlink:href="#DejaVuSans-61" x="113.476562"/>
      <use xlink:href="#DejaVuSans-74" x="174.755859"/>
      <use xlink:href="#DejaVuSans-65" x="213.964844"/>
     </g>
    </g>
   </g>
   <g id="matplotlib.axis_4">
    <g id="ytick_5">
     <g id="line2d_22">
      <g>
       <use xlink:href="#m4bf1c55cf5" x="90" y="252.006124" style="stroke: #000000; stroke-width: 0.8"/>
      </g>
     </g>
     <g id="text_21">
      <!-- 0 -->
      <g transform="translate(76.6375 255.805343)scale(0.1 -0.1)">
       <use xlink:href="#DejaVuSans-30"/>
      </g>
     </g>
    </g>
    <g id="ytick_6">
     <g id="line2d_23">
      <g>
       <use xlink:href="#m4bf1c55cf5" x="90" y="225.211866" style="stroke: #000000; stroke-width: 0.8"/>
      </g>
     </g>
     <g id="text_22">
      <!-- 100 -->
      <g transform="translate(63.9125 229.011085)scale(0.1 -0.1)">
       <use xlink:href="#DejaVuSans-31"/>
       <use xlink:href="#DejaVuSans-30" x="63.623047"/>
       <use xlink:href="#DejaVuSans-30" x="127.246094"/>
      </g>
     </g>
    </g>
    <g id="ytick_7">
     <g id="line2d_24">
      <g>
       <use xlink:href="#m4bf1c55cf5" x="90" y="198.417608" style="stroke: #000000; stroke-width: 0.8"/>
      </g>
     </g>
     <g id="text_23">
      <!-- 200 -->
      <g transform="translate(63.9125 202.216826)scale(0.1 -0.1)">
       <use xlink:href="#DejaVuSans-32"/>
       <use xlink:href="#DejaVuSans-30" x="63.623047"/>
       <use xlink:href="#DejaVuSans-30" x="127.246094"/>
      </g>
     </g>
    </g>
    <g id="ytick_8">
     <g id="line2d_25">
      <g>
       <use xlink:href="#m4bf1c55cf5" x="90" y="171.623349" style="stroke: #000000; stroke-width: 0.8"/>
      </g>
     </g>
     <g id="text_24">
      <!-- 300 -->
      <g transform="translate(63.9125 175.422568)scale(0.1 -0.1)">
       <use xlink:href="#DejaVuSans-33"/>
       <use xlink:href="#DejaVuSans-30" x="63.623047"/>
       <use xlink:href="#DejaVuSans-30" x="127.246094"/>
      </g>
     </g>
    </g>
   </g>
   <g id="line2d_26">
    <path d="M 115.363636 251.738182 
L 116.18847 231.910431 
L 117.013304 229.498947 
L 117.838137 244.771675 
L 118.662971 251.470239 
L 119.487805 239.412823 
L 120.312639 239.14488 
L 121.137472 235.393684 
L 121.962306 239.14488 
L 122.78714 239.948708 
L 123.611973 250.666411 
L 124.436807 248.522871 
L 125.261641 247.719043 
L 126.086475 239.948708 
L 126.911308 213.690335 
L 127.736142 227.355407 
L 128.560976 244.235789 
L 129.385809 247.4511 
L 130.210643 251.202297 
L 131.86031 225.747751 
L 132.685144 246.111388 
L 133.509978 243.699904 
L 134.334812 237.537225 
L 135.159645 237.537225 
L 135.984479 249.862584 
L 136.809313 237.805167 
L 137.634146 234.321914 
L 138.45898 243.967847 
L 139.283814 243.967847 
L 140.108647 239.412823 
L 140.933481 247.183158 
L 141.758315 249.326699 
L 142.583149 227.623349 
L 143.407982 249.058756 
L 144.232816 248.254928 
L 145.05765 249.862584 
L 145.882483 247.986986 
L 146.707317 251.470239 
L 147.532151 251.470239 
L 148.356984 229.231005 
L 149.181818 217.173589 
L 150.006652 244.235789 
L 150.831486 245.575502 
L 151.656319 227.891292 
L 152.481153 250.934354 
L 153.305987 245.30756 
L 154.13082 242.092249 
L 154.955654 246.37933 
L 155.780488 237.00134 
L 156.605322 247.183158 
L 157.430155 250.934354 
L 158.254989 251.738182 
L 159.079823 244.235789 
L 159.904656 242.628134 
L 160.72949 242.896077 
L 161.554324 241.556364 
L 162.379157 249.058756 
L 163.203991 250.934354 
L 164.028825 250.666411 
L 164.853659 247.4511 
L 165.678492 247.986986 
L 166.503326 243.164019 
L 167.32816 250.130526 
L 168.152993 251.202297 
L 168.977827 251.470239 
L 169.802661 248.522871 
L 170.627494 249.594641 
L 171.452328 250.398469 
L 172.277162 251.738182 
L 173.101996 247.4511 
L 173.926829 247.719043 
L 174.751663 250.934354 
L 175.576497 246.647273 
L 176.40133 243.164019 
L 177.226164 240.752536 
L 178.050998 247.986986 
L 178.875831 249.058756 
L 179.700665 233.518086 
L 180.525499 250.398469 
L 181.350333 235.125742 
L 182.175166 236.733397 
L 183 240.752536 
L 183.824834 234.589856 
L 184.649667 247.183158 
L 185.474501 235.929569 
L 186.299335 251.202297 
L 187.124169 234.857799 
L 187.949002 236.197512 
L 188.773836 228.159234 
L 189.59867 233.786029 
L 190.423503 240.752536 
L 191.248337 243.431962 
L 192.073171 248.522871 
L 192.898004 230.302775 
L 193.722838 226.015694 
L 194.547672 237.269282 
L 195.372506 235.929569 
L 196.197339 233.518086 
L 197.022173 247.719043 
L 197.847007 248.790813 
L 198.67184 231.374545 
L 199.496674 247.183158 
L 201.146341 234.321914 
L 202.796009 250.934354 
L 203.620843 247.986986 
L 204.445676 236.465455 
L 205.27051 235.929569 
L 206.095344 226.819522 
L 206.920177 242.628134 
L 207.745011 250.398469 
L 208.569845 250.666411 
L 209.394678 249.326699 
L 210.219512 243.164019 
L 211.044346 243.431962 
L 211.86918 247.183158 
L 212.694013 232.178373 
L 213.518847 248.522871 
L 214.343681 242.628134 
L 215.168514 239.948708 
L 215.993348 241.556364 
L 216.818182 227.087464 
L 217.643016 236.733397 
L 218.467849 235.929569 
L 219.292683 240.752536 
L 220.117517 239.14488 
L 220.94235 240.216651 
L 221.767184 187.431962 
L 222.592018 246.111388 
L 223.416851 232.178373 
L 224.241685 235.661627 
L 225.066519 228.427177 
L 225.891353 242.360191 
L 226.716186 202.972632 
L 227.54102 201.364976 
L 228.365854 206.99177 
L 229.190687 230.570718 
L 230.015521 178.321914 
L 230.840355 225.211866 
L 231.665188 246.37933 
L 232.490022 245.575502 
L 233.314856 238.341053 
L 234.13969 232.446316 
L 234.964523 229.231005 
L 235.789357 235.661627 
L 236.614191 225.479809 
L 237.439024 244.235789 
L 238.263858 246.111388 
L 239.088692 208.063541 
L 239.913525 233.786029 
L 240.738359 235.393684 
L 241.563193 246.647273 
L 242.388027 248.790813 
L 243.21286 248.254928 
L 244.037694 234.053971 
L 244.862528 187.967847 
L 245.687361 231.106603 
L 246.512195 235.393684 
L 247.337029 216.369761 
L 248.161863 244.771675 
L 248.986696 248.522871 
L 249.81153 245.30756 
L 250.636364 223.604211 
L 251.461197 239.412823 
L 252.286031 224.943923 
L 253.110865 203.240574 
L 253.935698 234.857799 
L 254.760532 241.824306 
L 255.585366 246.37933 
L 256.4102 180.465455 
L 257.235033 228.963062 
L 258.059867 243.967847 
L 258.884701 236.197512 
L 259.709534 237.537225 
L 260.534368 249.058756 
L 261.359202 247.183158 
L 262.184035 191.183158 
L 263.008869 184.752536 
L 263.833703 201.364976 
L 264.658537 243.431962 
L 265.48337 249.326699 
L 266.308204 237.537225 
L 267.133038 247.719043 
L 268.782705 226.015694 
L 269.607539 167.336268 
L 270.432373 223.872153 
L 271.257206 223.068325 
L 272.08204 227.623349 
L 272.906874 245.843445 
L 273.731707 246.647273 
L 274.556541 221.996555 
L 275.381375 237.00134 
L 276.206208 236.733397 
L 277.031042 227.891292 
L 277.855876 243.699904 
L 278.68071 249.326699 
L 279.505543 201.097033 
L 280.330377 238.07311 
L 281.155211 215.030048 
L 281.980044 209.135311 
L 282.804878 215.565933 
L 283.629712 249.862584 
L 284.454545 249.862584 
L 285.279379 224.140096 
L 286.104213 234.053971 
L 286.929047 233.518086 
L 287.75388 239.680766 
L 288.578714 243.164019 
L 289.403548 248.522871 
L 290.228381 246.37933 
L 291.053215 227.355407 
L 291.878049 244.503732 
L 292.702882 241.020478 
L 293.527716 233.250144 
L 294.35255 239.412823 
L 295.177384 249.862584 
L 296.002217 249.862584 
L 296.827051 243.431962 
L 297.651885 240.752536 
L 298.476718 246.647273 
L 299.301552 241.824306 
L 300.126386 243.967847 
L 300.95122 249.326699 
L 301.776053 247.719043 
L 302.600887 232.178373 
L 303.425721 237.269282 
L 304.250554 172.69512 
L 305.075388 215.833876 
L 305.900222 244.503732 
L 306.725055 242.628134 
L 307.549889 250.130526 
L 308.374723 233.250144 
L 309.199557 235.125742 
L 310.02439 242.360191 
L 310.849224 241.556364 
L 311.674058 236.465455 
L 312.498891 249.862584 
L 313.323725 250.398469 
L 314.148559 196.274067 
L 314.973392 239.948708 
L 315.798226 245.30756 
L 316.62306 247.4511 
L 317.447894 204.312344 
L 318.272727 247.4511 
L 319.097561 248.254928 
L 320.747228 242.360191 
L 321.572062 242.628134 
L 322.396896 225.479809 
L 323.221729 244.771675 
L 324.046563 249.862584 
L 324.871397 243.967847 
L 325.696231 245.575502 
L 326.521064 183.948708 
L 327.345898 200.293206 
L 328.170732 241.020478 
L 329.820399 245.039617 
L 330.645233 244.503732 
L 331.470067 232.714258 
L 332.2949 242.628134 
L 333.119734 243.699904 
L 333.944568 223.872153 
L 334.769401 239.948708 
L 335.594235 250.398469 
L 336.419069 251.738182 
L 337.243902 245.039617 
L 338.068736 245.575502 
L 338.89357 246.915215 
L 339.718404 243.967847 
L 340.543237 246.37933 
L 341.368071 249.594641 
L 342.192905 251.202297 
L 343.017738 243.967847 
L 343.842572 243.699904 
L 344.667406 231.910431 
L 345.492239 230.302775 
L 346.317073 250.666411 
L 347.141907 246.37933 
L 347.966741 251.738182 
L 348.791574 239.680766 
L 349.616408 240.752536 
L 350.441242 243.164019 
L 351.266075 240.484593 
L 352.090909 248.522871 
L 352.915743 245.843445 
L 353.740576 250.130526 
L 354.56541 237.537225 
L 355.390244 239.412823 
L 356.215078 244.235789 
L 357.039911 241.288421 
L 357.864745 232.446316 
L 358.689579 242.360191 
L 359.514412 248.522871 
L 360.339246 233.518086 
L 361.16408 250.398469 
L 361.988914 246.111388 
L 362.813747 244.503732 
L 363.638581 251.202297 
L 364.463415 250.934354 
L 365.288248 245.039617 
L 366.113082 245.575502 
L 366.937916 233.250144 
L 367.762749 231.642488 
L 368.587583 249.058756 
L 369.412417 249.862584 
L 370.237251 250.398469 
L 371.062084 242.628134 
L 371.886918 228.159234 
L 372.711752 236.465455 
L 373.536585 236.197512 
L 374.361419 245.30756 
L 375.186253 249.862584 
L 376.011086 245.843445 
L 376.83592 246.647273 
L 377.660754 249.862584 
L 378.485588 237.269282 
L 379.310421 247.719043 
L 380.135255 242.628134 
L 380.960089 226.015694 
L 381.784922 250.934354 
L 382.609756 248.254928 
L 383.43459 233.786029 
L 384.259424 216.905646 
L 385.084257 236.733397 
L 385.909091 248.254928 
L 386.733925 247.719043 
L 387.558758 250.398469 
L 388.383592 246.647273 
L 389.208426 232.178373 
L 390.033259 230.570718 
L 390.858093 221.46067 
L 391.682927 233.786029 
L 392.507761 248.522871 
L 393.332594 251.470239 
L 394.157428 248.522871 
L 394.982262 249.862584 
L 395.807095 239.948708 
L 396.631929 189.575502 
L 397.456763 229.498947 
L 398.281596 242.628134 
L 399.10643 241.020478 
L 399.931264 230.83866 
L 400.756098 230.83866 
L 401.580931 220.924785 
L 402.405765 198.417608 
L 403.230599 217.441531 
L 404.055432 246.37933 
L 404.880266 250.666411 
L 405.7051 224.675981 
L 406.529933 228.159234 
L 407.354767 212.618565 
L 408.179601 240.216651 
L 409.004435 236.197512 
L 409.829268 246.111388 
L 410.654102 248.254928 
L 411.478936 215.565933 
L 412.303769 238.608995 
L 413.128603 249.594641 
L 413.953437 223.604211 
L 414.778271 164.924785 
L 415.603104 240.484593 
L 416.427938 235.929569 
L 417.252772 227.891292 
L 418.077605 228.963062 
L 418.902439 242.896077 
L 419.727273 232.446316 
L 420.552106 238.876938 
L 421.37694 246.915215 
L 422.201774 245.843445 
L 423.026608 235.929569 
L 423.851441 249.058756 
L 424.676275 243.431962 
L 425.501109 229.498947 
L 427.150776 250.934354 
L 427.97561 250.130526 
L 428.800443 245.039617 
L 429.625277 231.642488 
L 430.450111 240.752536 
L 431.274945 247.183158 
L 432.099778 247.986986 
L 432.924612 247.986986 
L 433.749446 248.790813 
L 434.574279 239.412823 
L 435.399113 235.661627 
L 436.223947 243.967847 
L 437.873614 237.537225 
L 438.698448 250.130526 
L 439.523282 249.862584 
L 440.348115 234.589856 
L 441.172949 232.982201 
L 441.997783 245.575502 
L 443.64745 250.934354 
L 444.472284 248.522871 
L 445.297118 247.719043 
L 446.121951 244.503732 
L 446.946785 228.69512 
L 447.771619 238.341053 
L 448.596452 238.876938 
L 449.421286 226.819522 
L 450.24612 249.862584 
L 451.070953 228.159234 
L 451.895787 237.269282 
L 452.720621 202.972632 
L 453.545455 239.948708 
L 454.370288 221.996555 
L 455.195122 247.4511 
L 456.019956 248.254928 
L 456.844789 230.034833 
L 457.669623 208.599426 
L 458.494457 234.589856 
L 459.31929 237.269282 
L 460.144124 243.431962 
L 460.968958 233.250144 
L 461.793792 249.058756 
L 462.618625 217.173589 
L 463.443459 235.929569 
L 464.268293 239.948708 
L 465.093126 242.628134 
L 465.91796 242.896077 
L 466.742794 246.915215 
L 467.567627 249.058756 
L 468.392461 245.843445 
L 469.217295 248.790813 
L 470.042129 250.934354 
L 470.866962 249.594641 
L 471.691796 249.326699 
L 472.51663 246.915215 
L 473.341463 217.709474 
L 474.991131 242.092249 
L 475.815965 243.164019 
L 476.640798 249.862584 
L 477.465632 250.934354 
L 478.290466 251.738182 
L 479.940133 236.733397 
L 480.764967 241.288421 
L 481.5898 219.585072 
L 482.414634 246.915215 
L 483.239468 246.111388 
L 484.064302 250.934354 
L 484.889135 247.719043 
L 485.713969 239.412823 
L 486.538803 244.771675 
L 487.363636 242.092249 
L 488.18847 245.843445 
L 489.013304 250.666411 
L 489.838137 250.130526 
L 490.662971 219.585072 
L 491.487805 220.120957 
L 492.312639 235.929569 
L 493.137472 247.719043 
L 493.962306 217.441531 
L 494.78714 246.915215 
L 495.611973 235.929569 
L 496.436807 212.886507 
L 497.261641 238.07311 
L 498.086475 209.939139 
L 498.911308 198.68555 
L 499.736142 232.714258 
L 500.560976 250.666411 
L 501.385809 249.862584 
L 502.210643 196.809952 
L 503.035477 208.867368 
L 503.86031 223.872153 
L 504.685144 224.675981 
L 505.509978 179.125742 
L 506.334812 243.967847 
L 507.159645 245.575502 
L 507.984479 217.441531 
L 508.809313 226.015694 
L 509.634146 242.628134 
L 510.45898 240.752536 
L 511.283814 226.283636 
L 512.108647 247.719043 
L 512.933481 249.862584 
L 513.758315 225.747751 
L 514.583149 235.929569 
L 515.407982 223.336268 
L 516.232816 232.178373 
L 517.05765 216.369761 
L 517.882483 239.680766 
L 518.707317 248.254928 
L 519.532151 222.264498 
L 520.356984 228.427177 
L 521.181818 231.910431 
L 522.006652 227.623349 
L 522.831486 185.824306 
L 523.656319 223.872153 
L 524.481153 241.288421 
L 525.305987 160.101818 
L 526.13082 200.829091 
L 526.955654 224.943923 
L 527.780488 241.288421 
L 528.605322 239.680766 
L 529.430155 243.967847 
L 530.254989 247.4511 
L 531.079823 211.814737 
L 531.904656 223.068325 
L 532.72949 209.671196 
L 533.554324 213.15445 
L 534.379157 225.211866 
L 535.203991 250.130526 
L 536.028825 249.594641 
L 536.853659 213.422392 
L 537.678492 235.661627 
L 538.503326 222.53244 
L 539.32816 230.570718 
L 540.152993 235.393684 
L 540.977827 242.896077 
L 541.802661 247.719043 
L 542.627494 229.76689 
L 543.452328 236.197512 
L 544.277162 216.637703 
L 545.101996 214.22622 
L 545.926829 242.896077 
L 546.751663 249.058756 
L 547.576497 251.738182 
L 548.40133 239.680766 
L 549.226164 237.805167 
L 550.050998 243.699904 
L 550.875831 235.661627 
L 551.700665 244.235789 
L 552.525499 249.326699 
L 553.350333 250.130526 
L 554.175166 242.896077 
L 555 234.589856 
L 555.824834 247.986986 
L 556.649667 247.986986 
L 557.474501 243.967847 
L 558.299335 240.752536 
L 559.124169 229.498947 
L 559.949002 239.14488 
L 560.773836 238.608995 
L 561.59867 246.37933 
L 563.248337 247.4511 
L 564.073171 250.398469 
L 564.898004 248.790813 
L 566.547672 232.178373 
L 567.372506 234.857799 
L 568.197339 242.896077 
L 569.022173 235.661627 
L 569.847007 249.862584 
L 570.67184 251.470239 
L 571.496674 243.699904 
L 572.321508 246.37933 
L 573.146341 233.786029 
L 573.971175 213.15445 
L 574.796009 244.235789 
L 575.620843 250.666411 
L 576.445676 249.326699 
L 577.27051 240.484593 
L 578.095344 236.733397 
L 578.920177 239.412823 
L 579.745011 238.341053 
L 580.569845 234.857799 
L 581.394678 250.934354 
L 582.219512 241.288421 
L 583.044346 228.159234 
L 583.86918 226.819522 
L 584.694013 245.575502 
L 585.518847 248.254928 
L 586.343681 211.278852 
L 587.168514 247.986986 
L 587.993348 250.666411 
L 588.818182 227.891292 
L 589.643016 246.111388 
L 590.467849 221.192727 
L 591.292683 229.498947 
L 592.117517 246.111388 
L 592.94235 251.470239 
L 593.767184 251.470239 
L 594.592018 249.862584 
L 595.416851 244.503732 
L 596.241685 245.843445 
L 597.066519 243.431962 
L 597.891353 251.470239 
L 598.716186 249.862584 
L 599.54102 251.738182 
L 600.365854 245.575502 
L 601.190687 247.986986 
L 602.015521 244.771675 
L 602.840355 243.164019 
L 603.665188 250.666411 
L 604.490022 251.202297 
L 605.314856 241.020478 
L 606.13969 220.656842 
L 606.964523 245.843445 
L 607.789357 246.111388 
L 608.614191 240.484593 
L 609.439024 248.254928 
L 610.263858 251.470239 
L 611.088692 247.986986 
L 611.913525 247.4511 
L 612.738359 241.556364 
L 613.563193 243.699904 
L 614.388027 244.235789 
L 615.21286 249.326699 
L 616.037694 251.470239 
L 616.862528 251.202297 
L 617.687361 243.164019 
L 618.512195 243.967847 
L 619.337029 247.4511 
L 620.161863 237.537225 
L 620.986696 249.058756 
L 621.81153 250.934354 
L 622.636364 248.790813 
L 622.636364 248.790813 
" clip-path="url(#p9f1a373f92)" style="fill: none; stroke: #1f77b4; stroke-width: 1.5; stroke-linecap: square"/>
   </g>
   <g id="line2d_27">
    <path d="M 115.363636 251.738182 
L 116.18847 249.594641 
L 117.013304 248.522871 
L 117.838137 249.594641 
L 118.662971 251.738182 
L 119.487805 250.130526 
L 120.312639 249.326699 
L 121.137472 249.326699 
L 121.962306 249.058756 
L 122.78714 249.594641 
L 123.611973 251.470239 
L 126.911308 249.326699 
L 127.736142 249.058756 
L 128.560976 250.130526 
L 130.210643 251.738182 
L 131.035477 249.058756 
L 131.86031 249.594641 
L 132.685144 250.666411 
L 133.509978 250.934354 
L 134.334812 250.666411 
L 135.159645 251.470239 
L 135.984479 251.202297 
L 136.809313 250.130526 
L 137.634146 251.202297 
L 138.45898 249.058756 
L 139.283814 249.862584 
L 140.108647 250.398469 
L 140.933481 251.202297 
L 141.758315 251.202297 
L 142.583149 247.719043 
L 143.407982 251.470239 
L 144.232816 251.470239 
L 145.05765 251.202297 
L 146.707317 251.738182 
L 147.532151 251.470239 
L 148.356984 249.594641 
L 149.181818 247.183158 
L 150.006652 248.790813 
L 150.831486 250.130526 
L 151.656319 250.130526 
L 152.481153 251.470239 
L 153.305987 250.398469 
L 154.13082 250.130526 
L 154.955654 250.934354 
L 155.780488 247.986986 
L 156.605322 249.594641 
L 157.430155 251.470239 
L 158.254989 251.738182 
L 159.079823 249.326699 
L 160.72949 249.326699 
L 161.554324 250.130526 
L 162.379157 250.398469 
L 163.203991 251.202297 
L 164.028825 251.470239 
L 164.853659 250.934354 
L 165.678492 250.666411 
L 166.503326 251.202297 
L 168.152993 251.202297 
L 168.977827 251.470239 
L 169.802661 250.934354 
L 171.452328 250.934354 
L 172.277162 251.738182 
L 173.101996 251.202297 
L 173.926829 251.202297 
L 174.751663 250.934354 
L 175.576497 249.862584 
L 176.40133 248.254928 
L 177.226164 250.130526 
L 178.050998 251.202297 
L 178.875831 250.934354 
L 179.700665 250.934354 
L 180.525499 251.202297 
L 181.350333 249.594641 
L 182.175166 248.790813 
L 183 249.862584 
L 183.824834 247.183158 
L 184.649667 249.862584 
L 185.474501 250.398469 
L 186.299335 251.202297 
L 187.124169 250.666411 
L 187.949002 250.666411 
L 188.773836 248.522871 
L 189.59867 249.594641 
L 190.423503 249.326699 
L 191.248337 249.326699 
L 192.073171 250.398469 
L 192.898004 246.37933 
L 193.722838 247.986986 
L 194.547672 249.326699 
L 195.372506 247.719043 
L 196.197339 246.647273 
L 197.022173 250.934354 
L 197.847007 250.666411 
L 198.67184 248.790813 
L 199.496674 250.130526 
L 200.321508 248.254928 
L 201.146341 249.594641 
L 201.971175 249.594641 
L 202.796009 250.934354 
L 203.620843 251.202297 
L 204.445676 249.058756 
L 205.27051 248.254928 
L 206.095344 248.522871 
L 206.920177 250.934354 
L 207.745011 251.470239 
L 209.394678 250.934354 
L 210.219512 250.934354 
L 211.044346 249.594641 
L 211.86918 250.398469 
L 212.694013 249.058756 
L 213.518847 250.934354 
L 214.343681 250.398469 
L 215.168514 250.934354 
L 215.993348 249.326699 
L 216.818182 249.058756 
L 217.643016 249.058756 
L 218.467849 248.254928 
L 219.292683 250.398469 
L 220.117517 250.934354 
L 220.94235 250.934354 
L 221.767184 242.896077 
L 222.592018 249.058756 
L 223.416851 249.058756 
L 224.241685 247.719043 
L 225.066519 249.326699 
L 225.891353 250.666411 
L 226.716186 250.666411 
L 227.54102 246.647273 
L 228.365854 246.915215 
L 229.190687 248.522871 
L 230.015521 246.915215 
L 230.840355 247.719043 
L 231.665188 250.130526 
L 232.490022 250.934354 
L 233.314856 247.719043 
L 234.13969 246.37933 
L 234.964523 247.4511 
L 235.789357 247.719043 
L 237.439024 251.202297 
L 238.263858 250.130526 
L 239.088692 247.986986 
L 239.913525 247.986986 
L 240.738359 248.790813 
L 241.563193 250.666411 
L 243.21286 251.202297 
L 244.037694 250.130526 
L 244.862528 246.647273 
L 245.687361 247.4511 
L 246.512195 248.790813 
L 247.337029 247.183158 
L 248.161863 249.862584 
L 248.986696 251.202297 
L 250.636364 249.594641 
L 251.461197 248.522871 
L 252.286031 248.790813 
L 253.110865 247.719043 
L 253.935698 249.326699 
L 254.760532 249.594641 
L 255.585366 250.934354 
L 256.4102 245.843445 
L 257.235033 248.254928 
L 258.059867 249.058756 
L 258.884701 249.326699 
L 259.709534 249.326699 
L 260.534368 250.934354 
L 261.359202 250.398469 
L 262.184035 246.111388 
L 263.008869 244.771675 
L 263.833703 247.183158 
L 264.658537 249.058756 
L 265.48337 250.398469 
L 266.308204 249.326699 
L 267.133038 250.398469 
L 267.957871 246.647273 
L 268.782705 246.915215 
L 269.607539 230.302775 
L 270.432373 248.254928 
L 271.257206 246.915215 
L 272.08204 250.666411 
L 272.906874 251.738182 
L 273.731707 249.862584 
L 274.556541 248.522871 
L 275.381375 248.522871 
L 276.206208 248.790813 
L 277.031042 247.986986 
L 278.68071 251.202297 
L 279.505543 249.326699 
L 280.330377 248.522871 
L 281.155211 247.183158 
L 281.980044 247.4511 
L 282.804878 246.111388 
L 283.629712 250.666411 
L 284.454545 251.738182 
L 285.279379 246.111388 
L 286.104213 247.4511 
L 286.929047 249.594641 
L 287.75388 247.719043 
L 288.578714 248.522871 
L 289.403548 251.470239 
L 290.228381 250.398469 
L 291.053215 248.522871 
L 291.878049 249.594641 
L 292.702882 248.254928 
L 293.527716 246.647273 
L 295.177384 250.934354 
L 296.002217 251.202297 
L 296.827051 249.326699 
L 297.651885 247.986986 
L 298.476718 250.130526 
L 299.301552 249.594641 
L 300.126386 249.594641 
L 301.776053 250.130526 
L 302.600887 247.183158 
L 303.425721 249.058756 
L 304.250554 249.058756 
L 305.075388 250.130526 
L 305.900222 249.326699 
L 306.725055 251.202297 
L 307.549889 250.398469 
L 308.374723 248.522871 
L 309.199557 249.326699 
L 310.02439 249.058756 
L 310.849224 248.522871 
L 311.674058 249.326699 
L 312.498891 251.202297 
L 313.323725 250.934354 
L 314.148559 247.719043 
L 314.973392 250.666411 
L 315.798226 249.862584 
L 316.62306 249.326699 
L 317.447894 246.111388 
L 318.272727 251.202297 
L 319.097561 250.666411 
L 319.922395 249.862584 
L 320.747228 250.398469 
L 321.572062 249.058756 
L 322.396896 248.254928 
L 323.221729 249.326699 
L 324.046563 250.934354 
L 324.871397 250.934354 
L 325.696231 249.594641 
L 326.521064 247.4511 
L 327.345898 247.4511 
L 328.170732 250.398469 
L 328.995565 248.790813 
L 329.820399 250.666411 
L 330.645233 249.594641 
L 331.470067 247.986986 
L 332.2949 248.790813 
L 333.119734 248.790813 
L 333.944568 247.986986 
L 334.769401 248.254928 
L 335.594235 251.202297 
L 336.419069 251.738182 
L 337.243902 250.130526 
L 338.068736 250.130526 
L 338.89357 250.398469 
L 339.718404 250.398469 
L 340.543237 250.666411 
L 342.192905 251.738182 
L 343.017738 250.398469 
L 343.842572 249.594641 
L 344.667406 249.862584 
L 345.492239 248.790813 
L 346.317073 251.202297 
L 347.141907 250.398469 
L 347.966741 251.738182 
L 348.791574 250.398469 
L 349.616408 250.398469 
L 350.441242 248.522871 
L 351.266075 247.986986 
L 352.090909 249.594641 
L 352.915743 250.666411 
L 353.740576 250.666411 
L 354.56541 248.790813 
L 355.390244 249.594641 
L 356.215078 249.862584 
L 357.039911 249.862584 
L 357.864745 249.058756 
L 358.689579 249.326699 
L 359.514412 250.666411 
L 360.339246 248.522871 
L 361.16408 251.470239 
L 361.988914 249.862584 
L 362.813747 249.862584 
L 363.638581 251.202297 
L 364.463415 250.934354 
L 365.288248 250.130526 
L 366.113082 250.130526 
L 366.937916 249.326699 
L 367.762749 249.594641 
L 368.587583 251.202297 
L 369.412417 250.934354 
L 370.237251 251.470239 
L 371.062084 250.398469 
L 371.886918 250.130526 
L 372.711752 248.790813 
L 373.536585 249.326699 
L 374.361419 250.398469 
L 375.186253 250.934354 
L 376.011086 250.398469 
L 376.83592 251.470239 
L 377.660754 250.934354 
L 378.485588 249.326699 
L 379.310421 250.130526 
L 380.135255 251.202297 
L 380.960089 248.522871 
L 381.784922 251.470239 
L 382.609756 251.202297 
L 383.43459 248.254928 
L 385.084257 249.326699 
L 385.909091 250.398469 
L 386.733925 249.862584 
L 387.558758 251.202297 
L 388.383592 250.666411 
L 389.208426 247.986986 
L 390.033259 249.862584 
L 390.858093 249.326699 
L 391.682927 249.862584 
L 392.507761 249.862584 
L 393.332594 251.470239 
L 394.157428 251.470239 
L 394.982262 250.934354 
L 395.807095 248.522871 
L 397.456763 248.522871 
L 398.281596 249.862584 
L 399.10643 249.862584 
L 399.931264 249.058756 
L 400.756098 248.790813 
L 401.580931 247.4511 
L 402.405765 249.594641 
L 403.230599 247.719043 
L 404.055432 250.130526 
L 404.880266 251.202297 
L 405.7051 250.398469 
L 406.529933 249.862584 
L 407.354767 248.254928 
L 408.179601 248.522871 
L 409.004435 249.326699 
L 409.829268 249.862584 
L 410.654102 250.130526 
L 411.478936 247.719043 
L 412.303769 248.522871 
L 413.128603 250.666411 
L 413.953437 249.594641 
L 415.603104 249.058756 
L 416.427938 249.594641 
L 417.252772 247.719043 
L 418.077605 250.130526 
L 418.902439 250.398469 
L 419.727273 248.522871 
L 420.552106 249.058756 
L 421.37694 250.934354 
L 422.201774 250.398469 
L 423.026608 249.594641 
L 423.851441 250.934354 
L 424.676275 249.326699 
L 425.501109 248.790813 
L 426.325942 249.058756 
L 427.150776 251.202297 
L 427.97561 251.202297 
L 428.800443 249.326699 
L 429.625277 250.398469 
L 430.450111 247.986986 
L 432.099778 250.130526 
L 432.924612 250.666411 
L 433.749446 250.130526 
L 434.574279 249.058756 
L 435.399113 247.4511 
L 436.223947 248.522871 
L 437.04878 247.986986 
L 437.873614 249.058756 
L 438.698448 250.666411 
L 439.523282 250.934354 
L 440.348115 249.326699 
L 441.172949 250.666411 
L 441.997783 249.862584 
L 442.822616 250.130526 
L 443.64745 251.470239 
L 444.472284 250.934354 
L 445.297118 250.934354 
L 446.121951 251.470239 
L 446.946785 249.594641 
L 447.771619 250.398469 
L 448.596452 249.058756 
L 449.421286 250.666411 
L 450.24612 251.202297 
L 451.070953 249.058756 
L 451.895787 249.594641 
L 452.720621 249.594641 
L 453.545455 246.915215 
L 454.370288 246.647273 
L 455.195122 250.398469 
L 456.019956 250.398469 
L 456.844789 248.790813 
L 457.669623 248.790813 
L 458.494457 249.862584 
L 459.31929 249.326699 
L 460.144124 250.398469 
L 460.968958 250.666411 
L 461.793792 250.666411 
L 462.618625 248.254928 
L 463.443459 249.862584 
L 464.268293 250.666411 
L 465.093126 250.934354 
L 465.91796 249.594641 
L 466.742794 251.738182 
L 467.567627 251.470239 
L 468.392461 250.934354 
L 469.217295 250.934354 
L 470.042129 251.202297 
L 470.866962 250.666411 
L 471.691796 251.202297 
L 472.51663 250.398469 
L 473.341463 244.771675 
L 474.166297 247.4511 
L 474.991131 249.326699 
L 477.465632 250.934354 
L 478.290466 251.738182 
L 479.115299 249.594641 
L 479.940133 249.594641 
L 480.764967 249.058756 
L 481.5898 246.111388 
L 482.414634 250.666411 
L 483.239468 251.738182 
L 484.064302 251.470239 
L 484.889135 250.666411 
L 485.713969 248.254928 
L 486.538803 250.934354 
L 487.363636 250.130526 
L 488.18847 248.522871 
L 489.013304 251.202297 
L 489.838137 251.202297 
L 490.662971 250.130526 
L 491.487805 247.986986 
L 492.312639 248.790813 
L 493.137472 249.862584 
L 493.962306 249.326699 
L 494.78714 250.934354 
L 495.611973 250.666411 
L 496.436807 248.254928 
L 497.261641 249.326699 
L 498.086475 247.183158 
L 498.911308 246.647273 
L 499.736142 247.183158 
L 500.560976 251.202297 
L 501.385809 251.738182 
L 502.210643 247.986986 
L 503.035477 246.111388 
L 503.86031 247.986986 
L 504.685144 246.647273 
L 505.509978 243.431962 
L 506.334812 249.594641 
L 507.159645 249.326699 
L 507.984479 247.4511 
L 508.809313 247.183158 
L 509.634146 248.254928 
L 510.45898 248.790813 
L 511.283814 247.986986 
L 512.108647 249.862584 
L 512.933481 250.934354 
L 513.758315 247.719043 
L 515.407982 248.254928 
L 516.232816 246.915215 
L 517.05765 247.4511 
L 517.882483 247.719043 
L 518.707317 250.666411 
L 519.532151 245.843445 
L 520.356984 245.843445 
L 521.181818 243.967847 
L 522.006652 247.183158 
L 522.831486 247.183158 
L 523.656319 249.862584 
L 524.481153 249.058756 
L 525.305987 247.986986 
L 526.13082 245.843445 
L 526.955654 248.522871 
L 527.780488 249.058756 
L 528.605322 249.326699 
L 529.430155 249.326699 
L 530.254989 249.862584 
L 531.079823 246.647273 
L 531.904656 247.183158 
L 532.72949 245.039617 
L 533.554324 247.986986 
L 534.379157 247.183158 
L 535.203991 250.934354 
L 536.028825 251.202297 
L 536.853659 243.967847 
L 537.678492 247.4511 
L 538.503326 245.575502 
L 539.32816 246.37933 
L 540.152993 249.594641 
L 540.977827 250.398469 
L 541.802661 250.398469 
L 542.627494 248.522871 
L 543.452328 249.326699 
L 544.277162 247.183158 
L 545.101996 246.915215 
L 545.926829 249.594641 
L 546.751663 249.862584 
L 547.576497 251.738182 
L 548.40133 248.522871 
L 549.226164 248.254928 
L 550.050998 249.058756 
L 550.875831 244.771675 
L 551.700665 249.326699 
L 552.525499 251.470239 
L 553.350333 250.934354 
L 554.175166 249.058756 
L 555 249.594641 
L 555.824834 249.594641 
L 556.649667 250.666411 
L 557.474501 250.666411 
L 558.299335 251.202297 
L 559.124169 250.666411 
L 559.949002 249.326699 
L 560.773836 249.058756 
L 561.59867 249.326699 
L 562.423503 250.130526 
L 563.248337 249.594641 
L 564.073171 250.666411 
L 564.898004 249.594641 
L 565.722838 248.790813 
L 566.547672 248.522871 
L 567.372506 248.522871 
L 568.197339 249.862584 
L 569.022173 246.915215 
L 569.847007 251.470239 
L 570.67184 251.470239 
L 571.496674 249.058756 
L 572.321508 250.398469 
L 573.146341 250.398469 
L 573.971175 248.254928 
L 574.796009 249.862584 
L 575.620843 251.202297 
L 576.445676 250.398469 
L 577.27051 249.326699 
L 578.095344 248.522871 
L 578.920177 249.058756 
L 579.745011 247.4511 
L 580.569845 249.594641 
L 581.394678 250.934354 
L 582.219512 250.130526 
L 583.044346 246.647273 
L 583.86918 247.986986 
L 584.694013 250.666411 
L 585.518847 250.130526 
L 586.343681 248.522871 
L 587.168514 250.130526 
L 587.993348 251.470239 
L 588.818182 249.594641 
L 589.643016 250.130526 
L 590.467849 249.594641 
L 591.292683 248.790813 
L 592.117517 250.398469 
L 592.94235 251.470239 
L 593.767184 251.470239 
L 594.592018 250.666411 
L 595.416851 250.130526 
L 596.241685 250.130526 
L 597.066519 249.058756 
L 597.891353 251.470239 
L 598.716186 250.934354 
L 599.54102 251.738182 
L 600.365854 250.398469 
L 601.190687 249.862584 
L 602.015521 249.594641 
L 602.840355 248.522871 
L 603.665188 251.202297 
L 604.490022 251.470239 
L 605.314856 249.326699 
L 606.13969 249.594641 
L 606.964523 250.130526 
L 607.789357 250.398469 
L 608.614191 249.862584 
L 609.439024 251.470239 
L 610.263858 251.738182 
L 611.088692 251.202297 
L 611.913525 250.934354 
L 612.738359 250.398469 
L 613.563193 249.058756 
L 614.388027 251.202297 
L 615.21286 250.666411 
L 616.037694 251.470239 
L 616.862528 251.202297 
L 617.687361 250.130526 
L 618.512195 249.594641 
L 619.337029 250.130526 
L 620.161863 249.058756 
L 620.986696 250.666411 
L 621.81153 251.470239 
L 622.636364 250.130526 
L 622.636364 250.130526 
" clip-path="url(#p9f1a373f92)" style="fill: none; stroke: #ff7f0e; stroke-width: 1.5; stroke-linecap: square"/>
   </g>
   <g id="patch_9">
    <path d="M 90 256.32 
L 90 155.52 
" style="fill: none; stroke: #000000; stroke-width: 0.8; stroke-linejoin: miter; stroke-linecap: square"/>
   </g>
   <g id="patch_10">
    <path d="M 648 256.32 
L 648 155.52 
" style="fill: none; stroke: #000000; stroke-width: 0.8; stroke-linejoin: miter; stroke-linecap: square"/>
   </g>
   <g id="patch_11">
    <path d="M 90 256.32 
L 648 256.32 
" style="fill: none; stroke: #000000; stroke-width: 0.8; stroke-linejoin: miter; stroke-linecap: square"/>
   </g>
   <g id="patch_12">
    <path d="M 90 155.52 
L 648 155.52 
" style="fill: none; stroke: #000000; stroke-width: 0.8; stroke-linejoin: miter; stroke-linecap: square"/>
   </g>
   <g id="legend_2">
    <g id="patch_13">
     <path d="M 503.782812 192.87625 
L 641 192.87625 
Q 643 192.87625 643 190.87625 
L 643 162.52 
Q 643 160.52 641 160.52 
L 503.782812 160.52 
Q 501.782812 160.52 501.782812 162.52 
L 501.782812 190.87625 
Q 501.782812 192.87625 503.782812 192.87625 
z
" style="fill: #ffffff; opacity: 0.8; stroke: #cccccc; stroke-linejoin: miter"/>
    </g>
    <g id="line2d_28">
     <path d="M 505.782812 168.618437 
L 515.782812 168.618437 
L 525.782812 168.618437 
" style="fill: none; stroke: #1f77b4; stroke-width: 1.5; stroke-linecap: square"/>
    </g>
    <g id="text_25">
     <!-- Total GitHub Views -->
     <g transform="translate(533.782812 172.118437)scale(0.1 -0.1)">
      <defs>
       <path id="DejaVuSans-56" d="M 1831 0 
L 50 4666 
L 709 4666 
L 2188 738 
L 3669 4666 
L 4325 4666 
L 2547 0 
L 1831 0 
z
" transform="scale(0.015625)"/>
       <path id="DejaVuSans-77" d="M 269 3500 
L 844 3500 
L 1563 769 
L 2278 3500 
L 2956 3500 
L 3675 769 
L 4391 3500 
L 4966 3500 
L 4050 0 
L 3372 0 
L 2619 2869 
L 1863 0 
L 1184 0 
L 269 3500 
z
" transform="scale(0.015625)"/>
      </defs>
      <use xlink:href="#DejaVuSans-54"/>
      <use xlink:href="#DejaVuSans-6f" x="44.083984"/>
      <use xlink:href="#DejaVuSans-74" x="105.265625"/>
      <use xlink:href="#DejaVuSans-61" x="144.474609"/>
      <use xlink:href="#DejaVuSans-6c" x="205.753906"/>
      <use xlink:href="#DejaVuSans-20" x="233.537109"/>
      <use xlink:href="#DejaVuSans-47" x="265.324219"/>
      <use xlink:href="#DejaVuSans-69" x="342.814453"/>
      <use xlink:href="#DejaVuSans-74" x="370.597656"/>
      <use xlink:href="#DejaVuSans-48" x="409.806641"/>
      <use xlink:href="#DejaVuSans-75" x="485.001953"/>
      <use xlink:href="#DejaVuSans-62" x="548.380859"/>
      <use xlink:href="#DejaVuSans-20" x="611.857422"/>
      <use xlink:href="#DejaVuSans-56" x="643.644531"/>
      <use xlink:href="#DejaVuSans-69" x="709.802734"/>
      <use xlink:href="#DejaVuSans-65" x="737.585938"/>
      <use xlink:href="#DejaVuSans-77" x="799.109375"/>
      <use xlink:href="#DejaVuSans-73" x="880.896484"/>
     </g>
    </g>
    <g id="line2d_29">
     <path d="M 505.782812 183.296562 
L 515.782812 183.296562 
L 525.782812 183.296562 
" style="fill: none; stroke: #ff7f0e; stroke-width: 1.5; stroke-linecap: square"/>
    </g>
    <g id="text_26">
     <!-- Unique GitHub Views -->
     <g transform="translate(533.782812 186.796562)scale(0.1 -0.1)">
      <use xlink:href="#DejaVuSans-55"/>
      <use xlink:href="#DejaVuSans-6e" x="73.193359"/>
      <use xlink:href="#DejaVuSans-69" x="136.572266"/>
      <use xlink:href="#DejaVuSans-71" x="164.355469"/>
      <use xlink:href="#DejaVuSans-75" x="227.832031"/>
      <use xlink:href="#DejaVuSans-65" x="291.210938"/>
      <use xlink:href="#DejaVuSans-20" x="352.734375"/>
      <use xlink:href="#DejaVuSans-47" x="384.521484"/>
      <use xlink:href="#DejaVuSans-69" x="462.011719"/>
      <use xlink:href="#DejaVuSans-74" x="489.794922"/>
      <use xlink:href="#DejaVuSans-48" x="529.003906"/>
      <use xlink:href="#DejaVuSans-75" x="604.199219"/>
      <use xlink:href="#DejaVuSans-62" x="667.578125"/>
      <use xlink:href="#DejaVuSans-20" x="731.054688"/>
      <use xlink:href="#DejaVuSans-56" x="762.841797"/>
      <use xlink:href="#DejaVuSans-69" x="829"/>
      <use xlink:href="#DejaVuSans-65" x="856.783203"/>
      <use xlink:href="#DejaVuSans-77" x="918.306641"/>
      <use xlink:href="#DejaVuSans-73" x="1000.09375"/>
     </g>
    </g>
   </g>
  </g>
 </g>
 <defs>
  <clipPath id="pf31c159858">
   <rect x="90" y="34.56" width="558" height="100.8"/>
  </clipPath>
  <clipPath id="p9f1a373f92">
   <rect x="90" y="155.52" width="558" height="100.8"/>
  </clipPath>
 </defs>
</svg>
