<?xml version="1.0" encoding="utf-8" standalone="no"?>
<!DOCTYPE svg PUBLIC "-//W3C//DTD SVG 1.1//EN"
  "http://www.w3.org/Graphics/SVG/1.1/DTD/svg11.dtd">
<svg xmlns:xlink="http://www.w3.org/1999/xlink" width="720pt" height="288pt" viewBox="0 0 720 288" xmlns="http://www.w3.org/2000/svg" version="1.1">
 <metadata>
  <rdf:RDF xmlns:dc="http://purl.org/dc/elements/1.1/" xmlns:cc="http://creativecommons.org/ns#" xmlns:rdf="http://www.w3.org/1999/02/22-rdf-syntax-ns#">
   <cc:Work>
    <dc:type rdf:resource="http://purl.org/dc/dcmitype/StillImage"/>
    <dc:date>2022-01-10T00:31:42.726843</dc:date>
    <dc:format>image/svg+xml</dc:format>
    <dc:creator>
     <cc:Agent>
      <dc:title>Matplotlib v3.5.1, https://matplotlib.org/</dc:title>
     </cc:Agent>
    </dc:creator>
   </cc:Work>
  </rdf:RDF>
 </metadata>
 <defs>
  <style type="text/css">*{stroke-linejoin: round; stroke-linecap: butt}</style>
 </defs>
 <g id="figure_1">
  <g id="patch_1">
   <path d="M 0 288 
L 720 288 
L 720 0 
L 0 0 
z
" style="fill: #ffffff"/>
  </g>
  <g id="axes_1">
   <g id="patch_2">
    <path d="M 90 135.36 
L 648 135.36 
L 648 34.56 
L 90 34.56 
z
" style="fill: #ffffff"/>
   </g>
   <g id="matplotlib.axis_1">
    <g id="xtick_1">
     <g id="line2d_1">
      <defs>
       <path id="m6c6a02f8a2" d="M 0 0 
L 0 3.5 
" style="stroke: #000000; stroke-width: 0.8"/>
      </defs>
      <g>
       <use xlink:href="#m6c6a02f8a2" x="115.363636" y="135.36" style="stroke: #000000; stroke-width: 0.8"/>
      </g>
     </g>
     <g id="text_1">
      <!-- 2020-10-22 -->
      <g transform="translate(86.305824 149.958437)scale(0.1 -0.1)">
       <defs>
        <path id="DejaVuSans-32" d="M 1228 531 
L 3431 531 
L 3431 0 
L 469 0 
L 469 531 
Q 828 903 1448 1529 
Q 2069 2156 2228 2338 
Q 2531 2678 2651 2914 
Q 2772 3150 2772 3378 
Q 2772 3750 2511 3984 
Q 2250 4219 1831 4219 
Q 1534 4219 1204 4116 
Q 875 4013 500 3803 
L 500 4441 
Q 881 4594 1212 4672 
Q 1544 4750 1819 4750 
Q 2544 4750 2975 4387 
Q 3406 4025 3406 3419 
Q 3406 3131 3298 2873 
Q 3191 2616 2906 2266 
Q 2828 2175 2409 1742 
Q 1991 1309 1228 531 
z
" transform="scale(0.015625)"/>
        <path id="DejaVuSans-30" d="M 2034 4250 
Q 1547 4250 1301 3770 
Q 1056 3291 1056 2328 
Q 1056 1369 1301 889 
Q 1547 409 2034 409 
Q 2525 409 2770 889 
Q 3016 1369 3016 2328 
Q 3016 3291 2770 3770 
Q 2525 4250 2034 4250 
z
M 2034 4750 
Q 2819 4750 3233 4129 
Q 3647 3509 3647 2328 
Q 3647 1150 3233 529 
Q 2819 -91 2034 -91 
Q 1250 -91 836 529 
Q 422 1150 422 2328 
Q 422 3509 836 4129 
Q 1250 4750 2034 4750 
z
" transform="scale(0.015625)"/>
        <path id="DejaVuSans-2d" d="M 313 2009 
L 1997 2009 
L 1997 1497 
L 313 1497 
L 313 2009 
z
" transform="scale(0.015625)"/>
        <path id="DejaVuSans-31" d="M 794 531 
L 1825 531 
L 1825 4091 
L 703 3866 
L 703 4441 
L 1819 4666 
L 2450 4666 
L 2450 531 
L 3481 531 
L 3481 0 
L 794 0 
L 794 531 
z
" transform="scale(0.015625)"/>
       </defs>
       <use xlink:href="#DejaVuSans-32"/>
       <use xlink:href="#DejaVuSans-30" x="63.623047"/>
       <use xlink:href="#DejaVuSans-32" x="127.246094"/>
       <use xlink:href="#DejaVuSans-30" x="190.869141"/>
       <use xlink:href="#DejaVuSans-2d" x="254.492188"/>
       <use xlink:href="#DejaVuSans-31" x="290.576172"/>
       <use xlink:href="#DejaVuSans-30" x="354.199219"/>
       <use xlink:href="#DejaVuSans-2d" x="417.822266"/>
       <use xlink:href="#DejaVuSans-32" x="453.90625"/>
       <use xlink:href="#DejaVuSans-32" x="517.529297"/>
      </g>
     </g>
    </g>
    <g id="xtick_2">
     <g id="line2d_2">
      <g>
       <use xlink:href="#m6c6a02f8a2" x="189.526316" y="135.36" style="stroke: #000000; stroke-width: 0.8"/>
      </g>
     </g>
     <g id="text_2">
      <!-- 2021-01-05 -->
      <g transform="translate(160.468503 149.958437)scale(0.1 -0.1)">
       <defs>
        <path id="DejaVuSans-35" d="M 691 4666 
L 3169 4666 
L 3169 4134 
L 1269 4134 
L 1269 2991 
Q 1406 3038 1543 3061 
Q 1681 3084 1819 3084 
Q 2600 3084 3056 2656 
Q 3513 2228 3513 1497 
Q 3513 744 3044 326 
Q 2575 -91 1722 -91 
Q 1428 -91 1123 -41 
Q 819 9 494 109 
L 494 744 
Q 775 591 1075 516 
Q 1375 441 1709 441 
Q 2250 441 2565 725 
Q 2881 1009 2881 1497 
Q 2881 1984 2565 2268 
Q 2250 2553 1709 2553 
Q 1456 2553 1204 2497 
Q 953 2441 691 2322 
L 691 4666 
z
" transform="scale(0.015625)"/>
       </defs>
       <use xlink:href="#DejaVuSans-32"/>
       <use xlink:href="#DejaVuSans-30" x="63.623047"/>
       <use xlink:href="#DejaVuSans-32" x="127.246094"/>
       <use xlink:href="#DejaVuSans-31" x="190.869141"/>
       <use xlink:href="#DejaVuSans-2d" x="254.492188"/>
       <use xlink:href="#DejaVuSans-30" x="290.576172"/>
       <use xlink:href="#DejaVuSans-31" x="354.199219"/>
       <use xlink:href="#DejaVuSans-2d" x="417.822266"/>
       <use xlink:href="#DejaVuSans-30" x="453.90625"/>
       <use xlink:href="#DejaVuSans-35" x="517.529297"/>
      </g>
     </g>
    </g>
    <g id="xtick_3">
     <g id="line2d_3">
      <g>
       <use xlink:href="#m6c6a02f8a2" x="263.688995" y="135.36" style="stroke: #000000; stroke-width: 0.8"/>
      </g>
     </g>
     <g id="text_3">
      <!-- 2021-03-17 -->
      <g transform="translate(234.631183 149.958437)scale(0.1 -0.1)">
       <defs>
        <path id="DejaVuSans-33" d="M 2597 2516 
Q 3050 2419 3304 2112 
Q 3559 1806 3559 1356 
Q 3559 666 3084 287 
Q 2609 -91 1734 -91 
Q 1441 -91 1130 -33 
Q 819 25 488 141 
L 488 750 
Q 750 597 1062 519 
Q 1375 441 1716 441 
Q 2309 441 2620 675 
Q 2931 909 2931 1356 
Q 2931 1769 2642 2001 
Q 2353 2234 1838 2234 
L 1294 2234 
L 1294 2753 
L 1863 2753 
Q 2328 2753 2575 2939 
Q 2822 3125 2822 3475 
Q 2822 3834 2567 4026 
Q 2313 4219 1838 4219 
Q 1578 4219 1281 4162 
Q 984 4106 628 3988 
L 628 4550 
Q 988 4650 1302 4700 
Q 1616 4750 1894 4750 
Q 2613 4750 3031 4423 
Q 3450 4097 3450 3541 
Q 3450 3153 3228 2886 
Q 3006 2619 2597 2516 
z
" transform="scale(0.015625)"/>
        <path id="DejaVuSans-37" d="M 525 4666 
L 3525 4666 
L 3525 4397 
L 1831 0 
L 1172 0 
L 2766 4134 
L 525 4134 
L 525 4666 
z
" transform="scale(0.015625)"/>
       </defs>
       <use xlink:href="#DejaVuSans-32"/>
       <use xlink:href="#DejaVuSans-30" x="63.623047"/>
       <use xlink:href="#DejaVuSans-32" x="127.246094"/>
       <use xlink:href="#DejaVuSans-31" x="190.869141"/>
       <use xlink:href="#DejaVuSans-2d" x="254.492188"/>
       <use xlink:href="#DejaVuSans-30" x="290.576172"/>
       <use xlink:href="#DejaVuSans-33" x="354.199219"/>
       <use xlink:href="#DejaVuSans-2d" x="417.822266"/>
       <use xlink:href="#DejaVuSans-31" x="453.90625"/>
       <use xlink:href="#DejaVuSans-37" x="517.529297"/>
      </g>
     </g>
    </g>
    <g id="xtick_4">
     <g id="line2d_4">
      <g>
       <use xlink:href="#m6c6a02f8a2" x="337.851675" y="135.36" style="stroke: #000000; stroke-width: 0.8"/>
      </g>
     </g>
     <g id="text_4">
      <!-- 2021-05-10 -->
      <g transform="translate(308.793862 149.958437)scale(0.1 -0.1)">
       <use xlink:href="#DejaVuSans-32"/>
       <use xlink:href="#DejaVuSans-30" x="63.623047"/>
       <use xlink:href="#DejaVuSans-32" x="127.246094"/>
       <use xlink:href="#DejaVuSans-31" x="190.869141"/>
       <use xlink:href="#DejaVuSans-2d" x="254.492188"/>
       <use xlink:href="#DejaVuSans-30" x="290.576172"/>
       <use xlink:href="#DejaVuSans-35" x="354.199219"/>
       <use xlink:href="#DejaVuSans-2d" x="417.822266"/>
       <use xlink:href="#DejaVuSans-31" x="453.90625"/>
       <use xlink:href="#DejaVuSans-30" x="517.529297"/>
      </g>
     </g>
    </g>
    <g id="xtick_5">
     <g id="line2d_5">
      <g>
       <use xlink:href="#m6c6a02f8a2" x="412.014354" y="135.36" style="stroke: #000000; stroke-width: 0.8"/>
      </g>
     </g>
     <g id="text_5">
      <!-- 2021-07-07 -->
      <g transform="translate(382.956542 149.958437)scale(0.1 -0.1)">
       <use xlink:href="#DejaVuSans-32"/>
       <use xlink:href="#DejaVuSans-30" x="63.623047"/>
       <use xlink:href="#DejaVuSans-32" x="127.246094"/>
       <use xlink:href="#DejaVuSans-31" x="190.869141"/>
       <use xlink:href="#DejaVuSans-2d" x="254.492188"/>
       <use xlink:href="#DejaVuSans-30" x="290.576172"/>
       <use xlink:href="#DejaVuSans-37" x="354.199219"/>
       <use xlink:href="#DejaVuSans-2d" x="417.822266"/>
       <use xlink:href="#DejaVuSans-30" x="453.90625"/>
       <use xlink:href="#DejaVuSans-37" x="517.529297"/>
      </g>
     </g>
    </g>
    <g id="xtick_6">
     <g id="line2d_6">
      <g>
       <use xlink:href="#m6c6a02f8a2" x="486.177033" y="135.36" style="stroke: #000000; stroke-width: 0.8"/>
      </g>
     </g>
     <g id="text_6">
      <!-- 2021-09-13 -->
      <g transform="translate(457.119221 149.958437)scale(0.1 -0.1)">
       <defs>
        <path id="DejaVuSans-39" d="M 703 97 
L 703 672 
Q 941 559 1184 500 
Q 1428 441 1663 441 
Q 2288 441 2617 861 
Q 2947 1281 2994 2138 
Q 2813 1869 2534 1725 
Q 2256 1581 1919 1581 
Q 1219 1581 811 2004 
Q 403 2428 403 3163 
Q 403 3881 828 4315 
Q 1253 4750 1959 4750 
Q 2769 4750 3195 4129 
Q 3622 3509 3622 2328 
Q 3622 1225 3098 567 
Q 2575 -91 1691 -91 
Q 1453 -91 1209 -44 
Q 966 3 703 97 
z
M 1959 2075 
Q 2384 2075 2632 2365 
Q 2881 2656 2881 3163 
Q 2881 3666 2632 3958 
Q 2384 4250 1959 4250 
Q 1534 4250 1286 3958 
Q 1038 3666 1038 3163 
Q 1038 2656 1286 2365 
Q 1534 2075 1959 2075 
z
" transform="scale(0.015625)"/>
       </defs>
       <use xlink:href="#DejaVuSans-32"/>
       <use xlink:href="#DejaVuSans-30" x="63.623047"/>
       <use xlink:href="#DejaVuSans-32" x="127.246094"/>
       <use xlink:href="#DejaVuSans-31" x="190.869141"/>
       <use xlink:href="#DejaVuSans-2d" x="254.492188"/>
       <use xlink:href="#DejaVuSans-30" x="290.576172"/>
       <use xlink:href="#DejaVuSans-39" x="354.199219"/>
       <use xlink:href="#DejaVuSans-2d" x="417.822266"/>
       <use xlink:href="#DejaVuSans-31" x="453.90625"/>
       <use xlink:href="#DejaVuSans-33" x="517.529297"/>
      </g>
     </g>
    </g>
    <g id="xtick_7">
     <g id="line2d_7">
      <g>
       <use xlink:href="#m6c6a02f8a2" x="560.339713" y="135.36" style="stroke: #000000; stroke-width: 0.8"/>
      </g>
     </g>
     <g id="text_7">
      <!-- 2021-11-16 -->
      <g transform="translate(531.2819 149.958437)scale(0.1 -0.1)">
       <defs>
        <path id="DejaVuSans-36" d="M 2113 2584 
Q 1688 2584 1439 2293 
Q 1191 2003 1191 1497 
Q 1191 994 1439 701 
Q 1688 409 2113 409 
Q 2538 409 2786 701 
Q 3034 994 3034 1497 
Q 3034 2003 2786 2293 
Q 2538 2584 2113 2584 
z
M 3366 4563 
L 3366 3988 
Q 3128 4100 2886 4159 
Q 2644 4219 2406 4219 
Q 1781 4219 1451 3797 
Q 1122 3375 1075 2522 
Q 1259 2794 1537 2939 
Q 1816 3084 2150 3084 
Q 2853 3084 3261 2657 
Q 3669 2231 3669 1497 
Q 3669 778 3244 343 
Q 2819 -91 2113 -91 
Q 1303 -91 875 529 
Q 447 1150 447 2328 
Q 447 3434 972 4092 
Q 1497 4750 2381 4750 
Q 2619 4750 2861 4703 
Q 3103 4656 3366 4563 
z
" transform="scale(0.015625)"/>
       </defs>
       <use xlink:href="#DejaVuSans-32"/>
       <use xlink:href="#DejaVuSans-30" x="63.623047"/>
       <use xlink:href="#DejaVuSans-32" x="127.246094"/>
       <use xlink:href="#DejaVuSans-31" x="190.869141"/>
       <use xlink:href="#DejaVuSans-2d" x="254.492188"/>
       <use xlink:href="#DejaVuSans-31" x="290.576172"/>
       <use xlink:href="#DejaVuSans-31" x="354.199219"/>
       <use xlink:href="#DejaVuSans-2d" x="417.822266"/>
       <use xlink:href="#DejaVuSans-31" x="453.90625"/>
       <use xlink:href="#DejaVuSans-36" x="517.529297"/>
      </g>
     </g>
    </g>
    <g id="xtick_8">
     <g id="line2d_8">
      <g>
       <use xlink:href="#m6c6a02f8a2" x="634.502392" y="135.36" style="stroke: #000000; stroke-width: 0.8"/>
      </g>
     </g>
    </g>
    <g id="text_8">
     <!-- _date -->
     <g transform="translate(355.225 163.636562)scale(0.1 -0.1)">
      <defs>
       <path id="DejaVuSans-5f" d="M 3263 -1063 
L 3263 -1509 
L -63 -1509 
L -63 -1063 
L 3263 -1063 
z
" transform="scale(0.015625)"/>
       <path id="DejaVuSans-64" d="M 2906 2969 
L 2906 4863 
L 3481 4863 
L 3481 0 
L 2906 0 
L 2906 525 
Q 2725 213 2448 61 
Q 2172 -91 1784 -91 
Q 1150 -91 751 415 
Q 353 922 353 1747 
Q 353 2572 751 3078 
Q 1150 3584 1784 3584 
Q 2172 3584 2448 3432 
Q 2725 3281 2906 2969 
z
M 947 1747 
Q 947 1113 1208 752 
Q 1469 391 1925 391 
Q 2381 391 2643 752 
Q 2906 1113 2906 1747 
Q 2906 2381 2643 2742 
Q 2381 3103 1925 3103 
Q 1469 3103 1208 2742 
Q 947 2381 947 1747 
z
" transform="scale(0.015625)"/>
       <path id="DejaVuSans-61" d="M 2194 1759 
Q 1497 1759 1228 1600 
Q 959 1441 959 1056 
Q 959 750 1161 570 
Q 1363 391 1709 391 
Q 2188 391 2477 730 
Q 2766 1069 2766 1631 
L 2766 1759 
L 2194 1759 
z
M 3341 1997 
L 3341 0 
L 2766 0 
L 2766 531 
Q 2569 213 2275 61 
Q 1981 -91 1556 -91 
Q 1019 -91 701 211 
Q 384 513 384 1019 
Q 384 1609 779 1909 
Q 1175 2209 1959 2209 
L 2766 2209 
L 2766 2266 
Q 2766 2663 2505 2880 
Q 2244 3097 1772 3097 
Q 1472 3097 1187 3025 
Q 903 2953 641 2809 
L 641 3341 
Q 956 3463 1253 3523 
Q 1550 3584 1831 3584 
Q 2591 3584 2966 3190 
Q 3341 2797 3341 1997 
z
" transform="scale(0.015625)"/>
       <path id="DejaVuSans-74" d="M 1172 4494 
L 1172 3500 
L 2356 3500 
L 2356 3053 
L 1172 3053 
L 1172 1153 
Q 1172 725 1289 603 
Q 1406 481 1766 481 
L 2356 481 
L 2356 0 
L 1766 0 
Q 1100 0 847 248 
Q 594 497 594 1153 
L 594 3053 
L 172 3053 
L 172 3500 
L 594 3500 
L 594 4494 
L 1172 4494 
z
" transform="scale(0.015625)"/>
       <path id="DejaVuSans-65" d="M 3597 1894 
L 3597 1613 
L 953 1613 
Q 991 1019 1311 708 
Q 1631 397 2203 397 
Q 2534 397 2845 478 
Q 3156 559 3463 722 
L 3463 178 
Q 3153 47 2828 -22 
Q 2503 -91 2169 -91 
Q 1331 -91 842 396 
Q 353 884 353 1716 
Q 353 2575 817 3079 
Q 1281 3584 2069 3584 
Q 2775 3584 3186 3129 
Q 3597 2675 3597 1894 
z
M 3022 2063 
Q 3016 2534 2758 2815 
Q 2500 3097 2075 3097 
Q 1594 3097 1305 2825 
Q 1016 2553 972 2059 
L 3022 2063 
z
" transform="scale(0.015625)"/>
      </defs>
      <use xlink:href="#DejaVuSans-5f"/>
      <use xlink:href="#DejaVuSans-64" x="50"/>
      <use xlink:href="#DejaVuSans-61" x="113.476562"/>
      <use xlink:href="#DejaVuSans-74" x="174.755859"/>
      <use xlink:href="#DejaVuSans-65" x="213.964844"/>
     </g>
    </g>
   </g>
   <g id="matplotlib.axis_2">
    <g id="ytick_1">
     <g id="line2d_9">
      <defs>
       <path id="mf373aacb4f" d="M 0 0 
L -3.5 0 
" style="stroke: #000000; stroke-width: 0.8"/>
      </defs>
      <g>
       <use xlink:href="#mf373aacb4f" x="90" y="131.401558" style="stroke: #000000; stroke-width: 0.8"/>
      </g>
     </g>
     <g id="text_9">
      <!-- 0 -->
      <g transform="translate(76.6375 135.200777)scale(0.1 -0.1)">
       <use xlink:href="#DejaVuSans-30"/>
      </g>
     </g>
    </g>
    <g id="ytick_2">
     <g id="line2d_10">
      <g>
       <use xlink:href="#mf373aacb4f" x="90" y="100.232727" style="stroke: #000000; stroke-width: 0.8"/>
      </g>
     </g>
     <g id="text_10">
      <!-- 50 -->
      <g transform="translate(70.275 104.031946)scale(0.1 -0.1)">
       <use xlink:href="#DejaVuSans-35"/>
       <use xlink:href="#DejaVuSans-30" x="63.623047"/>
      </g>
     </g>
    </g>
    <g id="ytick_3">
     <g id="line2d_11">
      <g>
       <use xlink:href="#mf373aacb4f" x="90" y="69.063896" style="stroke: #000000; stroke-width: 0.8"/>
      </g>
     </g>
     <g id="text_11">
      <!-- 100 -->
      <g transform="translate(63.9125 72.863115)scale(0.1 -0.1)">
       <use xlink:href="#DejaVuSans-31"/>
       <use xlink:href="#DejaVuSans-30" x="63.623047"/>
       <use xlink:href="#DejaVuSans-30" x="127.246094"/>
      </g>
     </g>
    </g>
    <g id="ytick_4">
     <g id="line2d_12">
      <g>
       <use xlink:href="#mf373aacb4f" x="90" y="37.895065" style="stroke: #000000; stroke-width: 0.8"/>
      </g>
     </g>
     <g id="text_12">
      <!-- 150 -->
      <g transform="translate(63.9125 41.694284)scale(0.1 -0.1)">
       <use xlink:href="#DejaVuSans-31"/>
       <use xlink:href="#DejaVuSans-35" x="63.623047"/>
       <use xlink:href="#DejaVuSans-30" x="127.246094"/>
      </g>
     </g>
    </g>
   </g>
   <g id="line2d_13">
    <path d="M 115.363636 127.661299 
L 116.84689 128.284675 
L 118.330144 130.778182 
L 119.813397 130.778182 
L 121.296651 129.531429 
L 122.779904 129.531429 
L 124.263158 120.804156 
L 125.746411 120.804156 
L 127.229665 130.778182 
L 128.712919 130.778182 
L 130.196172 124.544416 
L 131.679426 126.414545 
L 133.162679 130.778182 
L 134.645933 127.661299 
L 136.129187 128.908052 
L 137.61244 128.908052 
L 139.095694 130.778182 
L 142.062201 128.284675 
L 143.545455 130.154805 
L 145.028708 130.778182 
L 146.511962 130.154805 
L 147.995215 130.154805 
L 149.478469 129.531429 
L 150.961722 130.154805 
L 152.444976 130.154805 
L 153.92823 128.908052 
L 155.411483 130.154805 
L 156.894737 130.154805 
L 158.37799 122.674286 
L 159.861244 127.661299 
L 161.344498 130.154805 
L 162.827751 115.817143 
L 164.311005 130.778182 
L 176.177033 130.778182 
L 177.660287 130.154805 
L 179.143541 130.778182 
L 189.526316 130.778182 
L 191.009569 128.908052 
L 192.492823 129.531429 
L 193.976077 130.778182 
L 195.45933 129.531429 
L 196.942584 127.661299 
L 198.425837 130.154805 
L 199.909091 130.154805 
L 201.392344 128.908052 
L 202.875598 120.804156 
L 204.358852 130.154805 
L 205.842105 130.778182 
L 207.325359 130.154805 
L 208.808612 127.037922 
L 210.291866 130.154805 
L 211.77512 129.531429 
L 213.258373 125.167792 
L 214.741627 128.908052 
L 216.22488 127.037922 
L 217.708134 130.154805 
L 219.191388 129.531429 
L 220.674641 130.154805 
L 222.157895 129.531429 
L 225.124402 129.531429 
L 226.607656 128.284675 
L 228.090909 130.778182 
L 229.574163 130.778182 
L 231.057416 128.284675 
L 232.54067 128.284675 
L 234.023923 125.167792 
L 235.507177 129.531429 
L 236.990431 127.661299 
L 238.473684 130.778182 
L 239.956938 125.791169 
L 241.440191 128.908052 
L 242.923445 129.531429 
L 244.406699 128.908052 
L 245.889952 126.414545 
L 247.373206 130.154805 
L 248.856459 128.284675 
L 250.339713 121.427532 
L 251.822967 126.414545 
L 253.30622 120.804156 
L 254.789474 87.141818 
L 256.272727 127.661299 
L 257.755981 130.778182 
L 259.239234 128.908052 
L 260.722488 123.297662 
L 262.205742 124.544416 
L 263.688995 127.661299 
L 265.172249 119.557403 
L 266.655502 128.908052 
L 268.138756 128.908052 
L 269.62201 130.154805 
L 271.105263 122.674286 
L 272.588517 124.544416 
L 274.07177 130.778182 
L 275.555024 129.531429 
L 277.038278 130.778182 
L 278.521531 128.284675 
L 280.004785 100.232727 
L 281.488038 118.310649 
L 282.971292 121.427532 
L 284.454545 127.661299 
L 285.937799 130.778182 
L 287.421053 126.414545 
L 288.904306 128.908052 
L 290.38756 122.050909 
L 291.870813 128.908052 
L 293.354067 123.297662 
L 294.837321 115.817143 
L 296.320574 122.674286 
L 297.803828 127.661299 
L 299.287081 115.193766 
L 300.770335 115.193766 
L 302.253589 116.440519 
L 303.736842 92.128831 
L 305.220096 107.08987 
L 306.703349 107.08987 
L 308.186603 119.557403 
L 309.669856 110.206753 
L 311.15311 118.934026 
L 312.636364 129.531429 
L 314.119617 130.154805 
L 315.602871 116.440519 
L 317.086124 114.57039 
L 318.569378 115.817143 
L 320.052632 111.453506 
L 321.535885 105.843117 
L 323.019139 128.284675 
L 324.502392 130.154805 
L 325.985646 116.440519 
L 327.4689 117.687273 
L 328.952153 100.232727 
L 330.435407 115.817143 
L 331.91866 116.440519 
L 333.401914 130.154805 
L 334.885167 128.908052 
L 336.368421 114.57039 
L 337.851675 102.102857 
L 339.334928 117.063896 
L 340.818182 113.323636 
L 342.301435 95.245714 
L 343.784689 117.063896 
L 345.267943 130.154805 
L 346.751196 114.57039 
L 348.23445 105.843117 
L 349.717703 102.726234 
L 351.200957 108.96 
L 352.684211 111.453506 
L 354.167464 129.531429 
L 355.650718 115.193766 
L 357.133971 108.336623 
L 358.617225 115.817143 
L 360.100478 115.193766 
L 361.583732 113.947013 
L 363.066986 125.791169 
L 364.550239 115.817143 
L 366.033493 113.323636 
L 367.516746 115.817143 
L 369 116.440519 
L 370.483254 116.440519 
L 371.966507 130.778182 
L 373.449761 130.778182 
L 374.933014 115.193766 
L 376.416268 112.076883 
L 377.899522 115.193766 
L 379.382775 102.726234 
L 380.866029 105.843117 
L 382.349282 130.778182 
L 383.832536 115.817143 
L 385.315789 113.947013 
L 386.799043 113.323636 
L 388.282297 112.076883 
L 389.76555 117.063896 
L 391.248804 130.154805 
L 392.732057 114.57039 
L 394.215311 110.83013 
L 395.698565 105.21974 
L 397.181818 104.596364 
L 398.665072 39.141818 
L 401.631579 130.778182 
L 403.114833 118.310649 
L 404.598086 117.063896 
L 406.08134 124.544416 
L 407.564593 130.778182 
L 409.047847 130.154805 
L 410.5311 123.297662 
L 412.014354 125.167792 
L 413.497608 130.154805 
L 414.980861 128.908052 
L 416.464115 130.154805 
L 417.947368 130.778182 
L 419.430622 130.778182 
L 420.913876 130.154805 
L 422.397129 130.778182 
L 423.880383 128.908052 
L 425.363636 129.531429 
L 426.84689 130.778182 
L 431.296651 130.778182 
L 432.779904 128.284675 
L 434.263158 130.154805 
L 435.746411 130.778182 
L 437.229665 130.154805 
L 438.712919 127.037922 
L 440.196172 130.778182 
L 441.679426 117.063896 
L 443.162679 129.531429 
L 444.645933 130.778182 
L 447.61244 129.531429 
L 449.095694 130.778182 
L 450.578947 130.154805 
L 452.062201 130.778182 
L 453.545455 128.908052 
L 455.028708 130.154805 
L 456.511962 129.531429 
L 457.995215 130.778182 
L 460.961722 130.778182 
L 463.92823 129.531429 
L 465.411483 127.037922 
L 466.894737 130.154805 
L 468.37799 130.154805 
L 469.861244 124.544416 
L 471.344498 122.050909 
L 472.827751 130.778182 
L 475.794258 130.778182 
L 478.760766 129.531429 
L 480.244019 130.154805 
L 481.727273 125.167792 
L 483.210526 113.323636 
L 484.69378 127.661299 
L 486.177033 110.206753 
L 487.660287 126.414545 
L 489.143541 130.154805 
L 490.626794 130.778182 
L 493.593301 130.778182 
L 495.076555 130.154805 
L 496.559809 130.778182 
L 498.043062 130.778182 
L 499.526316 128.284675 
L 501.009569 98.362597 
L 502.492823 117.063896 
L 503.976077 129.531429 
L 505.45933 122.674286 
L 506.942584 98.985974 
L 508.425837 96.492468 
L 509.909091 90.882078 
L 511.392344 103.972987 
L 512.875598 120.804156 
L 514.358852 122.674286 
L 515.842105 130.778182 
L 517.325359 125.791169 
L 518.808612 130.778182 
L 520.291866 130.778182 
L 521.77512 122.050909 
L 523.258373 129.531429 
L 524.741627 97.739221 
L 526.22488 122.674286 
L 527.708134 95.869091 
L 529.191388 123.297662 
L 530.674641 128.284675 
L 532.157895 121.427532 
L 533.641148 93.998961 
L 535.124402 120.804156 
L 536.607656 122.674286 
L 538.090909 129.531429 
L 539.574163 130.778182 
L 541.057416 130.778182 
L 542.54067 129.531429 
L 544.023923 126.414545 
L 545.507177 123.921039 
L 546.990431 122.674286 
L 548.473684 130.778182 
L 549.956938 130.778182 
L 551.440191 120.180779 
L 552.923445 115.817143 
L 554.406699 130.778182 
L 555.889952 129.531429 
L 557.373206 130.778182 
L 558.856459 125.167792 
L 560.339713 129.531429 
L 561.822967 130.778182 
L 563.30622 130.154805 
L 564.789474 128.908052 
L 566.272727 128.908052 
L 567.755981 106.466494 
L 569.239234 128.908052 
L 570.722488 128.908052 
L 572.205742 120.804156 
L 573.688995 105.21974 
L 575.172249 123.297662 
L 576.655502 123.297662 
L 578.138756 129.531429 
L 579.62201 120.804156 
L 581.105263 120.180779 
L 582.588517 103.34961 
L 584.07177 63.453506 
L 585.555024 123.297662 
L 587.038278 113.323636 
L 588.521531 130.778182 
L 590.004785 104.596364 
L 591.488038 99.609351 
L 592.971292 127.037922 
L 594.454545 117.063896 
L 595.937799 130.778182 
L 598.904306 130.778182 
L 600.38756 100.856104 
L 601.870813 98.985974 
L 603.354067 130.154805 
L 604.837321 120.804156 
L 606.320574 130.778182 
L 609.287081 130.778182 
L 610.770335 129.531429 
L 612.253589 130.154805 
L 613.736842 128.908052 
L 615.220096 130.778182 
L 616.703349 122.050909 
L 618.186603 117.063896 
L 619.669856 93.998961 
L 621.15311 124.544416 
L 622.636364 130.154805 
L 622.636364 130.154805 
" clip-path="url(#pc683841f73)" style="fill: none; stroke: #1f77b4; stroke-width: 1.5; stroke-linecap: square"/>
   </g>
   <g id="line2d_14">
    <path d="M 115.363636 127.661299 
L 116.84689 128.284675 
L 118.330144 130.778182 
L 119.813397 130.778182 
L 121.296651 129.531429 
L 122.779904 129.531429 
L 124.263158 130.154805 
L 125.746411 128.284675 
L 127.229665 130.778182 
L 128.712919 130.778182 
L 130.196172 124.544416 
L 131.679426 129.531429 
L 133.162679 130.778182 
L 134.645933 128.908052 
L 136.129187 128.908052 
L 137.61244 129.531429 
L 139.095694 130.778182 
L 140.578947 129.531429 
L 142.062201 128.908052 
L 143.545455 130.154805 
L 145.028708 130.778182 
L 146.511962 130.154805 
L 147.995215 130.778182 
L 149.478469 129.531429 
L 152.444976 130.778182 
L 153.92823 130.154805 
L 155.411483 130.778182 
L 156.894737 130.154805 
L 158.37799 125.791169 
L 159.861244 127.661299 
L 161.344498 130.154805 
L 162.827751 125.167792 
L 164.311005 130.778182 
L 176.177033 130.778182 
L 177.660287 130.154805 
L 179.143541 130.778182 
L 189.526316 130.778182 
L 191.009569 129.531429 
L 192.492823 130.778182 
L 193.976077 130.778182 
L 196.942584 129.531429 
L 198.425837 130.778182 
L 201.392344 130.778182 
L 202.875598 124.544416 
L 204.358852 130.778182 
L 205.842105 130.778182 
L 207.325359 130.154805 
L 208.808612 128.908052 
L 210.291866 130.154805 
L 211.77512 129.531429 
L 213.258373 127.037922 
L 214.741627 129.531429 
L 216.22488 130.778182 
L 217.708134 130.154805 
L 219.191388 130.778182 
L 220.674641 130.154805 
L 222.157895 130.778182 
L 223.641148 129.531429 
L 226.607656 129.531429 
L 228.090909 130.778182 
L 229.574163 130.778182 
L 234.023923 127.037922 
L 235.507177 129.531429 
L 236.990431 128.284675 
L 238.473684 130.778182 
L 239.956938 127.037922 
L 241.440191 128.908052 
L 242.923445 129.531429 
L 244.406699 128.908052 
L 245.889952 126.414545 
L 247.373206 130.154805 
L 248.856459 128.284675 
L 250.339713 124.544416 
L 251.822967 127.037922 
L 253.30622 123.297662 
L 254.789474 108.96 
L 256.272727 127.661299 
L 257.755981 130.778182 
L 259.239234 129.531429 
L 260.722488 123.921039 
L 263.688995 127.661299 
L 265.172249 122.050909 
L 266.655502 128.908052 
L 268.138756 128.908052 
L 269.62201 130.154805 
L 271.105263 124.544416 
L 272.588517 124.544416 
L 274.07177 130.778182 
L 275.555024 129.531429 
L 277.038278 130.778182 
L 278.521531 128.908052 
L 280.004785 116.440519 
L 281.488038 122.674286 
L 282.971292 124.544416 
L 284.454545 128.284675 
L 285.937799 130.778182 
L 287.421053 127.661299 
L 288.904306 130.154805 
L 290.38756 123.921039 
L 291.870813 129.531429 
L 293.354067 123.921039 
L 294.837321 120.180779 
L 296.320574 123.297662 
L 297.803828 128.284675 
L 299.287081 120.804156 
L 300.770335 125.167792 
L 302.253589 130.154805 
L 303.736842 121.427532 
L 305.220096 128.908052 
L 306.703349 125.791169 
L 308.186603 121.427532 
L 309.669856 125.167792 
L 311.15311 130.778182 
L 312.636364 130.154805 
L 314.119617 130.154805 
L 315.602871 130.778182 
L 317.086124 128.908052 
L 318.569378 129.531429 
L 321.535885 120.804156 
L 323.019139 128.284675 
L 324.502392 130.154805 
L 325.985646 130.778182 
L 327.4689 128.908052 
L 328.952153 117.687273 
L 330.435407 130.778182 
L 331.91866 129.531429 
L 333.401914 130.154805 
L 336.368421 130.154805 
L 337.851675 118.934026 
L 339.334928 128.908052 
L 340.818182 127.037922 
L 342.301435 115.817143 
L 343.784689 120.180779 
L 345.267943 130.154805 
L 346.751196 130.778182 
L 348.23445 125.791169 
L 349.717703 129.531429 
L 351.200957 128.908052 
L 352.684211 130.154805 
L 354.167464 130.154805 
L 355.650718 130.778182 
L 357.133971 123.921039 
L 358.617225 130.778182 
L 360.100478 130.154805 
L 361.583732 128.908052 
L 363.066986 127.037922 
L 364.550239 130.778182 
L 366.033493 128.908052 
L 367.516746 130.778182 
L 369 129.531429 
L 370.483254 129.531429 
L 371.966507 130.778182 
L 374.933014 130.778182 
L 376.416268 127.661299 
L 377.899522 130.778182 
L 379.382775 128.908052 
L 380.866029 125.791169 
L 382.349282 130.778182 
L 383.832536 130.778182 
L 385.315789 130.154805 
L 386.799043 128.908052 
L 391.248804 130.778182 
L 392.732057 130.154805 
L 394.215311 126.414545 
L 395.698565 126.414545 
L 397.181818 127.661299 
L 398.665072 130.778182 
L 400.148325 121.427532 
L 401.631579 130.778182 
L 403.114833 130.154805 
L 404.598086 126.414545 
L 406.08134 125.791169 
L 407.564593 130.778182 
L 409.047847 130.154805 
L 410.5311 123.297662 
L 412.014354 126.414545 
L 413.497608 130.154805 
L 414.980861 128.908052 
L 416.464115 130.778182 
L 419.430622 130.778182 
L 420.913876 130.154805 
L 422.397129 130.778182 
L 423.880383 128.908052 
L 425.363636 129.531429 
L 426.84689 130.778182 
L 431.296651 130.778182 
L 432.779904 128.284675 
L 434.263158 130.154805 
L 435.746411 130.778182 
L 437.229665 130.154805 
L 438.712919 127.661299 
L 440.196172 130.778182 
L 441.679426 130.778182 
L 443.162679 129.531429 
L 444.645933 130.778182 
L 447.61244 129.531429 
L 449.095694 130.778182 
L 450.578947 130.154805 
L 452.062201 130.778182 
L 453.545455 128.908052 
L 455.028708 130.154805 
L 456.511962 129.531429 
L 457.995215 130.778182 
L 460.961722 130.778182 
L 463.92823 129.531429 
L 465.411483 127.037922 
L 466.894737 130.154805 
L 468.37799 130.778182 
L 469.861244 124.544416 
L 471.344498 123.921039 
L 472.827751 130.778182 
L 475.794258 130.778182 
L 478.760766 129.531429 
L 480.244019 130.778182 
L 481.727273 125.791169 
L 483.210526 122.050909 
L 484.69378 130.154805 
L 486.177033 121.427532 
L 487.660287 127.661299 
L 489.143541 130.778182 
L 493.593301 130.778182 
L 495.076555 130.154805 
L 496.559809 130.778182 
L 498.043062 130.778182 
L 499.526316 128.284675 
L 501.009569 114.57039 
L 502.492823 119.557403 
L 503.976077 129.531429 
L 505.45933 123.921039 
L 506.942584 114.57039 
L 508.425837 112.076883 
L 509.909091 112.076883 
L 511.392344 119.557403 
L 512.875598 121.427532 
L 514.358852 124.544416 
L 515.842105 130.778182 
L 517.325359 126.414545 
L 518.808612 130.778182 
L 520.291866 130.778182 
L 521.77512 123.297662 
L 523.258373 129.531429 
L 524.741627 122.674286 
L 526.22488 128.284675 
L 527.708134 126.414545 
L 529.191388 130.154805 
L 530.674641 130.778182 
L 532.157895 128.284675 
L 533.641148 121.427532 
L 535.124402 125.791169 
L 536.607656 126.414545 
L 538.090909 130.154805 
L 539.574163 130.778182 
L 541.057416 130.778182 
L 542.54067 129.531429 
L 544.023923 128.908052 
L 545.507177 127.037922 
L 546.990431 127.037922 
L 548.473684 130.778182 
L 549.956938 130.778182 
L 551.440191 125.167792 
L 552.923445 123.921039 
L 554.406699 130.778182 
L 555.889952 129.531429 
L 557.373206 130.778182 
L 558.856459 127.661299 
L 560.339713 129.531429 
L 561.822967 130.778182 
L 563.30622 130.154805 
L 564.789474 128.908052 
L 566.272727 128.908052 
L 567.755981 122.050909 
L 569.239234 128.908052 
L 570.722488 129.531429 
L 572.205742 126.414545 
L 573.688995 120.180779 
L 575.172249 126.414545 
L 576.655502 127.037922 
L 578.138756 130.154805 
L 579.62201 127.037922 
L 581.105263 126.414545 
L 584.07177 112.70026 
L 585.555024 127.661299 
L 587.038278 123.921039 
L 588.521531 130.778182 
L 590.004785 120.804156 
L 591.488038 117.063896 
L 592.971292 128.284675 
L 594.454545 123.921039 
L 595.937799 130.778182 
L 598.904306 130.778182 
L 600.38756 120.180779 
L 601.870813 116.440519 
L 603.354067 130.154805 
L 604.837321 125.791169 
L 606.320574 130.778182 
L 609.287081 130.778182 
L 610.770335 130.154805 
L 612.253589 130.778182 
L 613.736842 130.154805 
L 615.220096 130.778182 
L 616.703349 126.414545 
L 618.186603 124.544416 
L 619.669856 117.063896 
L 621.15311 127.661299 
L 622.636364 130.778182 
L 622.636364 130.778182 
" clip-path="url(#pc683841f73)" style="fill: none; stroke: #ff7f0e; stroke-width: 1.5; stroke-linecap: square"/>
   </g>
   <g id="patch_3">
    <path d="M 90 135.36 
L 90 34.56 
" style="fill: none; stroke: #000000; stroke-width: 0.8; stroke-linejoin: miter; stroke-linecap: square"/>
   </g>
   <g id="patch_4">
    <path d="M 648 135.36 
L 648 34.56 
" style="fill: none; stroke: #000000; stroke-width: 0.8; stroke-linejoin: miter; stroke-linecap: square"/>
   </g>
   <g id="patch_5">
    <path d="M 90 135.36 
L 648 135.36 
" style="fill: none; stroke: #000000; stroke-width: 0.8; stroke-linejoin: miter; stroke-linecap: square"/>
   </g>
   <g id="patch_6">
    <path d="M 90 34.56 
L 648 34.56 
" style="fill: none; stroke: #000000; stroke-width: 0.8; stroke-linejoin: miter; stroke-linecap: square"/>
   </g>
   <g id="legend_1">
    <g id="patch_7">
     <path d="M 97 71.91625 
L 238.8625 71.91625 
Q 240.8625 71.91625 240.8625 69.91625 
L 240.8625 41.56 
Q 240.8625 39.56 238.8625 39.56 
L 97 39.56 
Q 95 39.56 95 41.56 
L 95 69.91625 
Q 95 71.91625 97 71.91625 
z
" style="fill: #ffffff; opacity: 0.8; stroke: #cccccc; stroke-linejoin: miter"/>
    </g>
    <g id="line2d_15">
     <path d="M 99 47.658437 
L 109 47.658437 
L 119 47.658437 
" style="fill: none; stroke: #1f77b4; stroke-width: 1.5; stroke-linecap: square"/>
    </g>
    <g id="text_13">
     <!-- Total GitHub Clones -->
     <g transform="translate(127 51.158437)scale(0.1 -0.1)">
      <defs>
       <path id="DejaVuSans-54" d="M -19 4666 
L 3928 4666 
L 3928 4134 
L 2272 4134 
L 2272 0 
L 1638 0 
L 1638 4134 
L -19 4134 
L -19 4666 
z
" transform="scale(0.015625)"/>
       <path id="DejaVuSans-6f" d="M 1959 3097 
Q 1497 3097 1228 2736 
Q 959 2375 959 1747 
Q 959 1119 1226 758 
Q 1494 397 1959 397 
Q 2419 397 2687 759 
Q 2956 1122 2956 1747 
Q 2956 2369 2687 2733 
Q 2419 3097 1959 3097 
z
M 1959 3584 
Q 2709 3584 3137 3096 
Q 3566 2609 3566 1747 
Q 3566 888 3137 398 
Q 2709 -91 1959 -91 
Q 1206 -91 779 398 
Q 353 888 353 1747 
Q 353 2609 779 3096 
Q 1206 3584 1959 3584 
z
" transform="scale(0.015625)"/>
       <path id="DejaVuSans-6c" d="M 603 4863 
L 1178 4863 
L 1178 0 
L 603 0 
L 603 4863 
z
" transform="scale(0.015625)"/>
       <path id="DejaVuSans-20" transform="scale(0.015625)"/>
       <path id="DejaVuSans-47" d="M 3809 666 
L 3809 1919 
L 2778 1919 
L 2778 2438 
L 4434 2438 
L 4434 434 
Q 4069 175 3628 42 
Q 3188 -91 2688 -91 
Q 1594 -91 976 548 
Q 359 1188 359 2328 
Q 359 3472 976 4111 
Q 1594 4750 2688 4750 
Q 3144 4750 3555 4637 
Q 3966 4525 4313 4306 
L 4313 3634 
Q 3963 3931 3569 4081 
Q 3175 4231 2741 4231 
Q 1884 4231 1454 3753 
Q 1025 3275 1025 2328 
Q 1025 1384 1454 906 
Q 1884 428 2741 428 
Q 3075 428 3337 486 
Q 3600 544 3809 666 
z
" transform="scale(0.015625)"/>
       <path id="DejaVuSans-69" d="M 603 3500 
L 1178 3500 
L 1178 0 
L 603 0 
L 603 3500 
z
M 603 4863 
L 1178 4863 
L 1178 4134 
L 603 4134 
L 603 4863 
z
" transform="scale(0.015625)"/>
       <path id="DejaVuSans-48" d="M 628 4666 
L 1259 4666 
L 1259 2753 
L 3553 2753 
L 3553 4666 
L 4184 4666 
L 4184 0 
L 3553 0 
L 3553 2222 
L 1259 2222 
L 1259 0 
L 628 0 
L 628 4666 
z
" transform="scale(0.015625)"/>
       <path id="DejaVuSans-75" d="M 544 1381 
L 544 3500 
L 1119 3500 
L 1119 1403 
Q 1119 906 1312 657 
Q 1506 409 1894 409 
Q 2359 409 2629 706 
Q 2900 1003 2900 1516 
L 2900 3500 
L 3475 3500 
L 3475 0 
L 2900 0 
L 2900 538 
Q 2691 219 2414 64 
Q 2138 -91 1772 -91 
Q 1169 -91 856 284 
Q 544 659 544 1381 
z
M 1991 3584 
L 1991 3584 
z
" transform="scale(0.015625)"/>
       <path id="DejaVuSans-62" d="M 3116 1747 
Q 3116 2381 2855 2742 
Q 2594 3103 2138 3103 
Q 1681 3103 1420 2742 
Q 1159 2381 1159 1747 
Q 1159 1113 1420 752 
Q 1681 391 2138 391 
Q 2594 391 2855 752 
Q 3116 1113 3116 1747 
z
M 1159 2969 
Q 1341 3281 1617 3432 
Q 1894 3584 2278 3584 
Q 2916 3584 3314 3078 
Q 3713 2572 3713 1747 
Q 3713 922 3314 415 
Q 2916 -91 2278 -91 
Q 1894 -91 1617 61 
Q 1341 213 1159 525 
L 1159 0 
L 581 0 
L 581 4863 
L 1159 4863 
L 1159 2969 
z
" transform="scale(0.015625)"/>
       <path id="DejaVuSans-43" d="M 4122 4306 
L 4122 3641 
Q 3803 3938 3442 4084 
Q 3081 4231 2675 4231 
Q 1875 4231 1450 3742 
Q 1025 3253 1025 2328 
Q 1025 1406 1450 917 
Q 1875 428 2675 428 
Q 3081 428 3442 575 
Q 3803 722 4122 1019 
L 4122 359 
Q 3791 134 3420 21 
Q 3050 -91 2638 -91 
Q 1578 -91 968 557 
Q 359 1206 359 2328 
Q 359 3453 968 4101 
Q 1578 4750 2638 4750 
Q 3056 4750 3426 4639 
Q 3797 4528 4122 4306 
z
" transform="scale(0.015625)"/>
       <path id="DejaVuSans-6e" d="M 3513 2113 
L 3513 0 
L 2938 0 
L 2938 2094 
Q 2938 2591 2744 2837 
Q 2550 3084 2163 3084 
Q 1697 3084 1428 2787 
Q 1159 2491 1159 1978 
L 1159 0 
L 581 0 
L 581 3500 
L 1159 3500 
L 1159 2956 
Q 1366 3272 1645 3428 
Q 1925 3584 2291 3584 
Q 2894 3584 3203 3211 
Q 3513 2838 3513 2113 
z
" transform="scale(0.015625)"/>
       <path id="DejaVuSans-73" d="M 2834 3397 
L 2834 2853 
Q 2591 2978 2328 3040 
Q 2066 3103 1784 3103 
Q 1356 3103 1142 2972 
Q 928 2841 928 2578 
Q 928 2378 1081 2264 
Q 1234 2150 1697 2047 
L 1894 2003 
Q 2506 1872 2764 1633 
Q 3022 1394 3022 966 
Q 3022 478 2636 193 
Q 2250 -91 1575 -91 
Q 1294 -91 989 -36 
Q 684 19 347 128 
L 347 722 
Q 666 556 975 473 
Q 1284 391 1588 391 
Q 1994 391 2212 530 
Q 2431 669 2431 922 
Q 2431 1156 2273 1281 
Q 2116 1406 1581 1522 
L 1381 1569 
Q 847 1681 609 1914 
Q 372 2147 372 2553 
Q 372 3047 722 3315 
Q 1072 3584 1716 3584 
Q 2034 3584 2315 3537 
Q 2597 3491 2834 3397 
z
" transform="scale(0.015625)"/>
      </defs>
      <use xlink:href="#DejaVuSans-54"/>
      <use xlink:href="#DejaVuSans-6f" x="44.083984"/>
      <use xlink:href="#DejaVuSans-74" x="105.265625"/>
      <use xlink:href="#DejaVuSans-61" x="144.474609"/>
      <use xlink:href="#DejaVuSans-6c" x="205.753906"/>
      <use xlink:href="#DejaVuSans-20" x="233.537109"/>
      <use xlink:href="#DejaVuSans-47" x="265.324219"/>
      <use xlink:href="#DejaVuSans-69" x="342.814453"/>
      <use xlink:href="#DejaVuSans-74" x="370.597656"/>
      <use xlink:href="#DejaVuSans-48" x="409.806641"/>
      <use xlink:href="#DejaVuSans-75" x="485.001953"/>
      <use xlink:href="#DejaVuSans-62" x="548.380859"/>
      <use xlink:href="#DejaVuSans-20" x="611.857422"/>
      <use xlink:href="#DejaVuSans-43" x="643.644531"/>
      <use xlink:href="#DejaVuSans-6c" x="713.46875"/>
      <use xlink:href="#DejaVuSans-6f" x="741.251953"/>
      <use xlink:href="#DejaVuSans-6e" x="802.433594"/>
      <use xlink:href="#DejaVuSans-65" x="865.8125"/>
      <use xlink:href="#DejaVuSans-73" x="927.335938"/>
     </g>
    </g>
    <g id="line2d_16">
     <path d="M 99 62.336562 
L 109 62.336562 
L 119 62.336562 
" style="fill: none; stroke: #ff7f0e; stroke-width: 1.5; stroke-linecap: square"/>
    </g>
    <g id="text_14">
     <!-- Unique GitHub Clones -->
     <g transform="translate(127 65.836562)scale(0.1 -0.1)">
      <defs>
       <path id="DejaVuSans-55" d="M 556 4666 
L 1191 4666 
L 1191 1831 
Q 1191 1081 1462 751 
Q 1734 422 2344 422 
Q 2950 422 3222 751 
Q 3494 1081 3494 1831 
L 3494 4666 
L 4128 4666 
L 4128 1753 
Q 4128 841 3676 375 
Q 3225 -91 2344 -91 
Q 1459 -91 1007 375 
Q 556 841 556 1753 
L 556 4666 
z
" transform="scale(0.015625)"/>
       <path id="DejaVuSans-71" d="M 947 1747 
Q 947 1113 1208 752 
Q 1469 391 1925 391 
Q 2381 391 2643 752 
Q 2906 1113 2906 1747 
Q 2906 2381 2643 2742 
Q 2381 3103 1925 3103 
Q 1469 3103 1208 2742 
Q 947 2381 947 1747 
z
M 2906 525 
Q 2725 213 2448 61 
Q 2172 -91 1784 -91 
Q 1150 -91 751 415 
Q 353 922 353 1747 
Q 353 2572 751 3078 
Q 1150 3584 1784 3584 
Q 2172 3584 2448 3432 
Q 2725 3281 2906 2969 
L 2906 3500 
L 3481 3500 
L 3481 -1331 
L 2906 -1331 
L 2906 525 
z
" transform="scale(0.015625)"/>
      </defs>
      <use xlink:href="#DejaVuSans-55"/>
      <use xlink:href="#DejaVuSans-6e" x="73.193359"/>
      <use xlink:href="#DejaVuSans-69" x="136.572266"/>
      <use xlink:href="#DejaVuSans-71" x="164.355469"/>
      <use xlink:href="#DejaVuSans-75" x="227.832031"/>
      <use xlink:href="#DejaVuSans-65" x="291.210938"/>
      <use xlink:href="#DejaVuSans-20" x="352.734375"/>
      <use xlink:href="#DejaVuSans-47" x="384.521484"/>
      <use xlink:href="#DejaVuSans-69" x="462.011719"/>
      <use xlink:href="#DejaVuSans-74" x="489.794922"/>
      <use xlink:href="#DejaVuSans-48" x="529.003906"/>
      <use xlink:href="#DejaVuSans-75" x="604.199219"/>
      <use xlink:href="#DejaVuSans-62" x="667.578125"/>
      <use xlink:href="#DejaVuSans-20" x="731.054688"/>
      <use xlink:href="#DejaVuSans-43" x="762.841797"/>
      <use xlink:href="#DejaVuSans-6c" x="832.666016"/>
      <use xlink:href="#DejaVuSans-6f" x="860.449219"/>
      <use xlink:href="#DejaVuSans-6e" x="921.630859"/>
      <use xlink:href="#DejaVuSans-65" x="985.009766"/>
      <use xlink:href="#DejaVuSans-73" x="1046.533203"/>
     </g>
    </g>
   </g>
  </g>
  <g id="axes_2">
   <g id="patch_8">
    <path d="M 90 256.32 
L 648 256.32 
L 648 155.52 
L 90 155.52 
z
" style="fill: #ffffff"/>
   </g>
   <g id="matplotlib.axis_3">
    <g id="xtick_9">
     <g id="line2d_17">
      <g>
       <use xlink:href="#m6c6a02f8a2" x="115.363636" y="256.32" style="stroke: #000000; stroke-width: 0.8"/>
      </g>
     </g>
     <g id="text_15">
      <!-- 2020-10-21 -->
      <g transform="translate(86.305824 270.918437)scale(0.1 -0.1)">
       <use xlink:href="#DejaVuSans-32"/>
       <use xlink:href="#DejaVuSans-30" x="63.623047"/>
       <use xlink:href="#DejaVuSans-32" x="127.246094"/>
       <use xlink:href="#DejaVuSans-30" x="190.869141"/>
       <use xlink:href="#DejaVuSans-2d" x="254.492188"/>
       <use xlink:href="#DejaVuSans-31" x="290.576172"/>
       <use xlink:href="#DejaVuSans-30" x="354.199219"/>
       <use xlink:href="#DejaVuSans-2d" x="417.822266"/>
       <use xlink:href="#DejaVuSans-32" x="453.90625"/>
       <use xlink:href="#DejaVuSans-31" x="517.529297"/>
      </g>
     </g>
    </g>
    <g id="xtick_10">
     <g id="line2d_18">
      <g>
       <use xlink:href="#m6c6a02f8a2" x="229.614251" y="256.32" style="stroke: #000000; stroke-width: 0.8"/>
      </g>
     </g>
     <g id="text_16">
      <!-- 2021-01-31 -->
      <g transform="translate(200.556438 270.918437)scale(0.1 -0.1)">
       <use xlink:href="#DejaVuSans-32"/>
       <use xlink:href="#DejaVuSans-30" x="63.623047"/>
       <use xlink:href="#DejaVuSans-32" x="127.246094"/>
       <use xlink:href="#DejaVuSans-31" x="190.869141"/>
       <use xlink:href="#DejaVuSans-2d" x="254.492188"/>
       <use xlink:href="#DejaVuSans-30" x="290.576172"/>
       <use xlink:href="#DejaVuSans-31" x="354.199219"/>
       <use xlink:href="#DejaVuSans-2d" x="417.822266"/>
       <use xlink:href="#DejaVuSans-33" x="453.90625"/>
       <use xlink:href="#DejaVuSans-31" x="517.529297"/>
      </g>
     </g>
    </g>
    <g id="xtick_11">
     <g id="line2d_19">
      <g>
       <use xlink:href="#m6c6a02f8a2" x="343.864865" y="256.32" style="stroke: #000000; stroke-width: 0.8"/>
      </g>
     </g>
     <g id="text_17">
      <!-- 2021-05-11 -->
      <g transform="translate(314.807052 270.918437)scale(0.1 -0.1)">
       <use xlink:href="#DejaVuSans-32"/>
       <use xlink:href="#DejaVuSans-30" x="63.623047"/>
       <use xlink:href="#DejaVuSans-32" x="127.246094"/>
       <use xlink:href="#DejaVuSans-31" x="190.869141"/>
       <use xlink:href="#DejaVuSans-2d" x="254.492188"/>
       <use xlink:href="#DejaVuSans-30" x="290.576172"/>
       <use xlink:href="#DejaVuSans-35" x="354.199219"/>
       <use xlink:href="#DejaVuSans-2d" x="417.822266"/>
       <use xlink:href="#DejaVuSans-31" x="453.90625"/>
       <use xlink:href="#DejaVuSans-31" x="517.529297"/>
      </g>
     </g>
    </g>
    <g id="xtick_12">
     <g id="line2d_20">
      <g>
       <use xlink:href="#m6c6a02f8a2" x="458.115479" y="256.32" style="stroke: #000000; stroke-width: 0.8"/>
      </g>
     </g>
     <g id="text_18">
      <!-- 2021-08-19 -->
      <g transform="translate(429.057667 270.918437)scale(0.1 -0.1)">
       <defs>
        <path id="DejaVuSans-38" d="M 2034 2216 
Q 1584 2216 1326 1975 
Q 1069 1734 1069 1313 
Q 1069 891 1326 650 
Q 1584 409 2034 409 
Q 2484 409 2743 651 
Q 3003 894 3003 1313 
Q 3003 1734 2745 1975 
Q 2488 2216 2034 2216 
z
M 1403 2484 
Q 997 2584 770 2862 
Q 544 3141 544 3541 
Q 544 4100 942 4425 
Q 1341 4750 2034 4750 
Q 2731 4750 3128 4425 
Q 3525 4100 3525 3541 
Q 3525 3141 3298 2862 
Q 3072 2584 2669 2484 
Q 3125 2378 3379 2068 
Q 3634 1759 3634 1313 
Q 3634 634 3220 271 
Q 2806 -91 2034 -91 
Q 1263 -91 848 271 
Q 434 634 434 1313 
Q 434 1759 690 2068 
Q 947 2378 1403 2484 
z
M 1172 3481 
Q 1172 3119 1398 2916 
Q 1625 2713 2034 2713 
Q 2441 2713 2670 2916 
Q 2900 3119 2900 3481 
Q 2900 3844 2670 4047 
Q 2441 4250 2034 4250 
Q 1625 4250 1398 4047 
Q 1172 3844 1172 3481 
z
" transform="scale(0.015625)"/>
       </defs>
       <use xlink:href="#DejaVuSans-32"/>
       <use xlink:href="#DejaVuSans-30" x="63.623047"/>
       <use xlink:href="#DejaVuSans-32" x="127.246094"/>
       <use xlink:href="#DejaVuSans-31" x="190.869141"/>
       <use xlink:href="#DejaVuSans-2d" x="254.492188"/>
       <use xlink:href="#DejaVuSans-30" x="290.576172"/>
       <use xlink:href="#DejaVuSans-38" x="354.199219"/>
       <use xlink:href="#DejaVuSans-2d" x="417.822266"/>
       <use xlink:href="#DejaVuSans-31" x="453.90625"/>
       <use xlink:href="#DejaVuSans-39" x="517.529297"/>
      </g>
     </g>
    </g>
    <g id="xtick_13">
     <g id="line2d_21">
      <g>
       <use xlink:href="#m6c6a02f8a2" x="572.366093" y="256.32" style="stroke: #000000; stroke-width: 0.8"/>
      </g>
     </g>
     <g id="text_19">
      <!-- 2021-11-27 -->
      <g transform="translate(543.308281 270.918437)scale(0.1 -0.1)">
       <use xlink:href="#DejaVuSans-32"/>
       <use xlink:href="#DejaVuSans-30" x="63.623047"/>
       <use xlink:href="#DejaVuSans-32" x="127.246094"/>
       <use xlink:href="#DejaVuSans-31" x="190.869141"/>
       <use xlink:href="#DejaVuSans-2d" x="254.492188"/>
       <use xlink:href="#DejaVuSans-31" x="290.576172"/>
       <use xlink:href="#DejaVuSans-31" x="354.199219"/>
       <use xlink:href="#DejaVuSans-2d" x="417.822266"/>
       <use xlink:href="#DejaVuSans-32" x="453.90625"/>
       <use xlink:href="#DejaVuSans-37" x="517.529297"/>
      </g>
     </g>
    </g>
    <g id="text_20">
     <!-- _date -->
     <g transform="translate(355.225 284.596563)scale(0.1 -0.1)">
      <use xlink:href="#DejaVuSans-5f"/>
      <use xlink:href="#DejaVuSans-64" x="50"/>
      <use xlink:href="#DejaVuSans-61" x="113.476562"/>
      <use xlink:href="#DejaVuSans-74" x="174.755859"/>
      <use xlink:href="#DejaVuSans-65" x="213.964844"/>
     </g>
    </g>
   </g>
   <g id="matplotlib.axis_4">
    <g id="ytick_5">
     <g id="line2d_22">
      <g>
       <use xlink:href="#mf373aacb4f" x="90" y="252.02101" style="stroke: #000000; stroke-width: 0.8"/>
      </g>
     </g>
     <g id="text_21">
      <!-- 0 -->
      <g transform="translate(76.6375 255.820229)scale(0.1 -0.1)">
       <use xlink:href="#DejaVuSans-30"/>
      </g>
     </g>
    </g>
    <g id="ytick_6">
     <g id="line2d_23">
      <g>
       <use xlink:href="#mf373aacb4f" x="90" y="223.738182" style="stroke: #000000; stroke-width: 0.8"/>
      </g>
     </g>
     <g id="text_22">
      <!-- 100 -->
      <g transform="translate(63.9125 227.537401)scale(0.1 -0.1)">
       <use xlink:href="#DejaVuSans-31"/>
       <use xlink:href="#DejaVuSans-30" x="63.623047"/>
       <use xlink:href="#DejaVuSans-30" x="127.246094"/>
      </g>
     </g>
    </g>
    <g id="ytick_7">
     <g id="line2d_24">
      <g>
       <use xlink:href="#mf373aacb4f" x="90" y="195.455354" style="stroke: #000000; stroke-width: 0.8"/>
      </g>
     </g>
     <g id="text_23">
      <!-- 200 -->
      <g transform="translate(63.9125 199.254572)scale(0.1 -0.1)">
       <use xlink:href="#DejaVuSans-32"/>
       <use xlink:href="#DejaVuSans-30" x="63.623047"/>
       <use xlink:href="#DejaVuSans-30" x="127.246094"/>
      </g>
     </g>
    </g>
    <g id="ytick_8">
     <g id="line2d_25">
      <g>
       <use xlink:href="#mf373aacb4f" x="90" y="167.172525" style="stroke: #000000; stroke-width: 0.8"/>
      </g>
     </g>
     <g id="text_24">
      <!-- 300 -->
      <g transform="translate(63.9125 170.971744)scale(0.1 -0.1)">
       <use xlink:href="#DejaVuSans-33"/>
       <use xlink:href="#DejaVuSans-30" x="63.623047"/>
       <use xlink:href="#DejaVuSans-30" x="127.246094"/>
      </g>
     </g>
    </g>
   </g>
   <g id="line2d_26">
    <path d="M 115.363636 251.738182 
L 116.506143 230.808889 
L 117.648649 228.263434 
L 118.791155 244.384646 
L 119.933661 251.455354 
L 121.076167 238.728081 
L 122.218673 238.445253 
L 123.361179 234.485657 
L 124.503686 238.445253 
L 125.646192 239.293737 
L 126.788698 250.606869 
L 127.931204 248.344242 
L 129.07371 247.495758 
L 130.216216 239.293737 
L 131.358722 211.576566 
L 132.501229 226.000808 
L 133.643735 243.81899 
L 134.786241 247.212929 
L 135.928747 251.172525 
L 137.071253 238.445253 
L 138.213759 224.303838 
L 139.356265 245.798788 
L 140.498771 243.253333 
L 141.641278 236.748283 
L 142.783784 236.748283 
L 143.92629 249.758384 
L 145.068796 237.031111 
L 146.211302 233.354343 
L 147.353808 243.536162 
L 148.496314 243.536162 
L 149.638821 238.728081 
L 150.781327 246.930101 
L 151.923833 249.192727 
L 153.066339 226.283636 
L 154.208845 248.909899 
L 155.351351 248.061414 
L 156.493857 249.758384 
L 157.636364 247.778586 
L 158.77887 251.455354 
L 159.921376 251.455354 
L 161.063882 227.980606 
L 162.206388 215.253333 
L 163.348894 243.81899 
L 164.4914 245.233131 
L 165.633907 226.566465 
L 166.776413 250.889697 
L 167.918919 244.950303 
L 169.061425 241.556364 
L 170.203931 246.081616 
L 171.346437 236.182626 
L 172.488943 246.930101 
L 173.63145 250.889697 
L 174.773956 251.738182 
L 175.916462 243.81899 
L 177.058968 242.12202 
L 178.201474 242.404848 
L 179.34398 240.990707 
L 180.486486 248.909899 
L 181.628993 250.889697 
L 182.771499 250.606869 
L 183.914005 247.212929 
L 185.056511 247.778586 
L 186.199017 242.687677 
L 187.341523 250.041212 
L 188.484029 251.172525 
L 189.626536 251.455354 
L 190.769042 248.344242 
L 191.911548 249.475556 
L 193.054054 250.32404 
L 194.19656 251.738182 
L 195.339066 247.212929 
L 196.481572 247.495758 
L 197.624079 250.889697 
L 198.766585 246.364444 
L 199.909091 242.687677 
L 201.051597 240.142222 
L 202.194103 247.778586 
L 203.336609 248.909899 
L 204.479115 232.505859 
L 205.621622 250.32404 
L 206.764128 234.202828 
L 207.906634 235.899798 
L 209.04914 240.142222 
L 210.191646 233.637172 
L 211.334152 246.930101 
L 212.476658 235.051313 
L 213.619165 251.172525 
L 214.761671 233.92 
L 215.904177 235.334141 
L 217.046683 226.849293 
L 218.189189 232.788687 
L 219.331695 240.142222 
L 220.474201 242.970505 
L 221.616708 248.344242 
L 222.759214 229.111919 
L 223.90172 224.586667 
L 225.044226 236.465455 
L 226.186732 235.051313 
L 227.329238 232.505859 
L 228.471744 247.495758 
L 229.614251 248.627071 
L 230.756757 230.243232 
L 231.899263 246.930101 
L 234.184275 233.354343 
L 236.469287 250.889697 
L 237.611794 247.778586 
L 238.7543 235.61697 
L 239.896806 235.051313 
L 241.039312 225.435152 
L 242.181818 242.12202 
L 243.324324 250.32404 
L 244.46683 250.606869 
L 245.609337 249.192727 
L 246.751843 242.687677 
L 247.894349 242.970505 
L 249.036855 246.930101 
L 250.179361 231.091717 
L 251.321867 248.344242 
L 252.464373 242.12202 
L 253.60688 239.293737 
L 254.749386 240.990707 
L 255.891892 225.71798 
L 257.034398 235.899798 
L 258.176904 235.051313 
L 259.31941 240.142222 
L 260.461916 238.445253 
L 261.604423 239.576566 
L 262.746929 183.859394 
L 263.889435 245.798788 
L 265.031941 231.091717 
L 266.174447 234.768485 
L 267.316953 227.132121 
L 268.459459 241.839192 
L 269.601966 200.263434 
L 270.744472 198.566465 
L 271.886978 204.505859 
L 273.029484 229.394747 
L 274.17199 174.243232 
L 275.314496 223.738182 
L 276.457002 246.081616 
L 277.599509 245.233131 
L 278.742015 237.596768 
L 279.884521 231.374545 
L 281.027027 227.980606 
L 282.169533 234.768485 
L 283.312039 224.02101 
L 284.454545 243.81899 
L 285.597052 245.798788 
L 286.739558 205.637172 
L 287.882064 232.788687 
L 289.02457 234.485657 
L 290.167076 246.364444 
L 291.309582 248.627071 
L 292.452088 248.061414 
L 293.594595 233.071515 
L 294.737101 184.425051 
L 295.879607 229.960404 
L 297.022113 234.485657 
L 298.164619 214.404848 
L 299.307125 244.384646 
L 300.449631 248.344242 
L 301.592138 244.950303 
L 302.734644 222.041212 
L 303.87715 238.728081 
L 305.019656 223.455354 
L 306.162162 200.546263 
L 307.304668 233.92 
L 308.447174 241.273535 
L 309.589681 246.081616 
L 310.732187 176.505859 
L 311.874693 227.697778 
L 313.017199 243.536162 
L 314.159705 235.334141 
L 315.302211 236.748283 
L 316.444717 248.909899 
L 317.587224 246.930101 
L 318.72973 187.81899 
L 319.872236 181.031111 
L 321.014742 198.566465 
L 322.157248 242.970505 
L 323.299754 249.192727 
L 324.44226 236.748283 
L 325.584767 247.495758 
L 327.869779 224.586667 
L 329.012285 162.647273 
L 330.154791 222.32404 
L 331.297297 221.475556 
L 332.439803 226.283636 
L 333.58231 245.51596 
L 334.724816 246.364444 
L 335.867322 220.344242 
L 337.009828 236.182626 
L 338.152334 235.899798 
L 339.29484 226.566465 
L 340.437346 243.253333 
L 341.579853 249.192727 
L 342.722359 198.283636 
L 343.864865 237.313939 
L 345.007371 212.990707 
L 346.149877 206.768485 
L 347.292383 213.556364 
L 348.434889 249.758384 
L 349.577396 249.758384 
L 350.719902 222.606869 
L 351.862408 233.071515 
L 353.004914 232.505859 
L 354.14742 239.010909 
L 355.289926 242.687677 
L 356.432432 248.344242 
L 357.574939 246.081616 
L 358.717445 226.000808 
L 359.859951 244.101818 
L 361.002457 240.425051 
L 362.144963 232.22303 
L 363.287469 238.728081 
L 364.429975 249.758384 
L 365.572482 249.758384 
L 366.714988 242.970505 
L 367.857494 240.142222 
L 369 246.364444 
L 370.142506 241.273535 
L 371.285012 243.536162 
L 372.427518 249.192727 
L 373.570025 247.495758 
L 374.712531 231.091717 
L 375.855037 236.465455 
L 376.997543 168.303838 
L 378.140049 213.839192 
L 379.282555 244.101818 
L 380.425061 242.12202 
L 381.567568 250.041212 
L 382.710074 232.22303 
L 383.85258 234.202828 
L 384.995086 241.839192 
L 386.137592 240.990707 
L 387.280098 235.61697 
L 388.422604 249.758384 
L 389.565111 250.32404 
L 390.707617 193.192727 
L 391.850123 239.293737 
L 392.992629 244.950303 
L 394.135135 247.212929 
L 395.277641 201.677576 
L 396.420147 247.212929 
L 397.562654 248.061414 
L 399.847666 241.839192 
L 400.990172 242.12202 
L 402.132678 224.02101 
L 403.275184 244.384646 
L 404.41769 249.758384 
L 405.560197 243.536162 
L 406.702703 245.233131 
L 407.845209 180.182626 
L 408.987715 197.435152 
L 410.130221 240.425051 
L 411.272727 242.404848 
L 412.415233 244.667475 
L 413.55774 244.101818 
L 414.700246 231.657374 
L 415.842752 242.12202 
L 416.985258 243.253333 
L 418.127764 222.32404 
L 419.27027 239.293737 
L 420.412776 250.32404 
L 421.555283 251.738182 
L 422.697789 244.667475 
L 423.840295 245.233131 
L 424.982801 246.647273 
L 426.125307 243.536162 
L 427.267813 246.081616 
L 428.410319 249.475556 
L 429.552826 251.172525 
L 430.695332 243.536162 
L 431.837838 243.253333 
L 432.980344 230.808889 
L 434.12285 229.111919 
L 435.265356 250.606869 
L 436.407862 246.081616 
L 437.550369 251.738182 
L 438.692875 239.010909 
L 439.835381 240.142222 
L 440.977887 242.687677 
L 442.120393 239.859394 
L 443.262899 248.344242 
L 444.405405 245.51596 
L 445.547912 250.041212 
L 446.690418 236.748283 
L 447.832924 238.728081 
L 448.97543 243.81899 
L 450.117936 240.707879 
L 451.260442 231.374545 
L 452.402948 241.839192 
L 453.545455 248.344242 
L 454.687961 232.505859 
L 455.830467 250.32404 
L 456.972973 245.798788 
L 458.115479 244.101818 
L 459.257985 251.172525 
L 460.400491 250.889697 
L 461.542998 244.667475 
L 462.685504 245.233131 
L 463.82801 232.22303 
L 464.970516 230.526061 
L 466.113022 248.909899 
L 467.255528 249.758384 
L 468.398034 250.32404 
L 469.540541 242.404848 
L 470.683047 242.12202 
L 471.825553 226.849293 
L 472.968059 235.61697 
L 474.110565 235.334141 
L 475.253071 244.950303 
L 476.395577 249.758384 
L 477.538084 245.51596 
L 478.68059 246.364444 
L 479.823096 249.758384 
L 480.965602 236.465455 
L 482.108108 247.495758 
L 483.250614 242.12202 
L 484.39312 224.586667 
L 485.535627 250.889697 
L 486.678133 248.061414 
L 487.820639 232.788687 
L 488.963145 214.970505 
L 490.105651 235.899798 
L 491.248157 248.061414 
L 492.390663 247.495758 
L 493.53317 250.32404 
L 494.675676 246.364444 
L 495.818182 231.091717 
L 496.960688 229.394747 
L 498.103194 219.778586 
L 499.2457 232.788687 
L 500.388206 248.344242 
L 501.530713 251.455354 
L 502.673219 248.344242 
L 503.815725 249.758384 
L 504.958231 239.293737 
L 506.100737 186.12202 
L 507.243243 228.263434 
L 508.385749 242.12202 
L 509.528256 240.425051 
L 510.670762 229.677576 
L 511.813268 229.677576 
L 512.955774 219.212929 
L 514.09828 195.455354 
L 515.240786 215.536162 
L 516.383292 246.081616 
L 517.525799 250.606869 
L 518.668305 223.172525 
L 519.810811 226.849293 
L 520.953317 210.445253 
L 522.095823 239.576566 
L 523.238329 235.334141 
L 524.380835 245.798788 
L 525.523342 248.061414 
L 526.665848 213.556364 
L 527.808354 237.879596 
L 528.95086 249.475556 
L 530.093366 222.041212 
L 531.235872 160.101818 
L 532.378378 239.859394 
L 533.520885 235.051313 
L 534.663391 226.566465 
L 535.805897 227.697778 
L 536.948403 242.404848 
L 538.090909 231.374545 
L 539.233415 238.162424 
L 540.375921 246.647273 
L 541.518428 245.51596 
L 542.660934 235.051313 
L 543.80344 248.909899 
L 544.945946 242.970505 
L 546.088452 228.263434 
L 548.373464 250.889697 
L 549.515971 250.041212 
L 550.658477 244.667475 
L 551.800983 230.526061 
L 552.943489 240.142222 
L 554.085995 246.930101 
L 555.228501 247.778586 
L 556.371007 247.778586 
L 557.513514 248.627071 
L 558.65602 238.728081 
L 559.798526 234.768485 
L 560.941032 243.536162 
L 563.226044 236.748283 
L 564.36855 250.041212 
L 565.511057 249.758384 
L 566.653563 233.637172 
L 567.796069 231.940202 
L 568.938575 245.233131 
L 571.223587 250.889697 
L 572.366093 248.344242 
L 573.5086 247.495758 
L 574.651106 244.101818 
L 575.793612 227.414949 
L 576.936118 237.596768 
L 578.078624 238.162424 
L 579.22113 225.435152 
L 580.363636 249.758384 
L 581.506143 226.849293 
L 582.648649 228.546263 
L 583.791155 236.465455 
L 584.933661 200.263434 
L 586.076167 239.293737 
L 587.218673 220.344242 
L 588.361179 247.212929 
L 589.503686 248.061414 
L 590.646192 228.829091 
L 591.788698 242.12202 
L 592.931204 206.202828 
L 594.07371 233.637172 
L 595.216216 236.465455 
L 596.358722 242.970505 
L 597.501229 232.22303 
L 598.643735 248.909899 
L 599.786241 242.404848 
L 600.928747 215.253333 
L 602.071253 235.051313 
L 603.213759 239.293737 
L 604.356265 242.12202 
L 605.498771 242.404848 
L 606.641278 246.647273 
L 607.783784 248.909899 
L 608.92629 245.51596 
L 610.068796 248.627071 
L 611.211302 250.889697 
L 612.353808 249.475556 
L 613.496314 249.192727 
L 614.638821 246.647273 
L 615.781327 215.81899 
L 618.066339 241.556364 
L 619.208845 242.687677 
L 620.351351 249.758384 
L 621.493857 250.889697 
L 622.636364 251.738182 
L 622.636364 251.738182 
" clip-path="url(#p1de310163b)" style="fill: none; stroke: #1f77b4; stroke-width: 1.5; stroke-linecap: square"/>
   </g>
   <g id="line2d_27">
    <path d="M 115.363636 251.738182 
L 116.506143 249.475556 
L 117.648649 248.344242 
L 118.791155 249.475556 
L 119.933661 251.738182 
L 121.076167 250.041212 
L 122.218673 249.192727 
L 123.361179 249.192727 
L 124.503686 248.909899 
L 125.646192 249.475556 
L 126.788698 251.455354 
L 131.358722 249.192727 
L 132.501229 248.909899 
L 133.643735 250.041212 
L 135.928747 251.738182 
L 137.071253 248.909899 
L 138.213759 249.475556 
L 139.356265 250.606869 
L 140.498771 250.889697 
L 141.641278 250.606869 
L 142.783784 251.455354 
L 143.92629 251.172525 
L 145.068796 250.041212 
L 146.211302 251.172525 
L 147.353808 248.909899 
L 148.496314 249.758384 
L 149.638821 250.32404 
L 150.781327 251.172525 
L 151.923833 251.172525 
L 153.066339 247.495758 
L 154.208845 251.455354 
L 155.351351 251.455354 
L 156.493857 251.172525 
L 158.77887 251.738182 
L 159.921376 251.455354 
L 161.063882 249.475556 
L 162.206388 246.930101 
L 163.348894 248.627071 
L 164.4914 250.041212 
L 165.633907 250.041212 
L 166.776413 251.455354 
L 167.918919 250.32404 
L 169.061425 250.041212 
L 170.203931 250.889697 
L 171.346437 247.778586 
L 172.488943 249.475556 
L 173.63145 251.455354 
L 174.773956 251.738182 
L 175.916462 249.192727 
L 178.201474 249.192727 
L 179.34398 250.041212 
L 180.486486 250.32404 
L 181.628993 251.172525 
L 182.771499 251.455354 
L 183.914005 250.889697 
L 185.056511 250.606869 
L 186.199017 251.172525 
L 188.484029 251.172525 
L 189.626536 251.455354 
L 190.769042 250.889697 
L 193.054054 250.889697 
L 194.19656 251.738182 
L 195.339066 251.172525 
L 196.481572 251.172525 
L 197.624079 250.889697 
L 198.766585 249.758384 
L 199.909091 248.061414 
L 201.051597 250.041212 
L 202.194103 251.172525 
L 203.336609 250.889697 
L 204.479115 250.889697 
L 205.621622 251.172525 
L 206.764128 249.475556 
L 207.906634 248.627071 
L 209.04914 249.758384 
L 210.191646 246.930101 
L 211.334152 249.758384 
L 212.476658 250.32404 
L 213.619165 251.172525 
L 214.761671 250.606869 
L 215.904177 250.606869 
L 217.046683 248.344242 
L 218.189189 249.475556 
L 219.331695 249.192727 
L 220.474201 249.192727 
L 221.616708 250.32404 
L 222.759214 246.081616 
L 223.90172 247.778586 
L 225.044226 249.192727 
L 226.186732 247.495758 
L 227.329238 246.364444 
L 228.471744 250.889697 
L 229.614251 250.606869 
L 230.756757 248.627071 
L 231.899263 250.041212 
L 233.041769 248.061414 
L 234.184275 249.475556 
L 235.326781 249.475556 
L 236.469287 250.889697 
L 237.611794 251.172525 
L 238.7543 248.909899 
L 239.896806 248.061414 
L 241.039312 248.344242 
L 242.181818 250.889697 
L 243.324324 251.455354 
L 245.609337 250.889697 
L 246.751843 250.889697 
L 247.894349 249.475556 
L 249.036855 250.32404 
L 250.179361 248.909899 
L 251.321867 250.889697 
L 252.464373 250.32404 
L 253.60688 250.889697 
L 254.749386 249.192727 
L 255.891892 248.909899 
L 257.034398 248.909899 
L 258.176904 248.061414 
L 259.31941 250.32404 
L 260.461916 250.889697 
L 261.604423 250.889697 
L 262.746929 242.404848 
L 263.889435 248.909899 
L 265.031941 248.909899 
L 266.174447 247.495758 
L 267.316953 249.192727 
L 268.459459 250.606869 
L 269.601966 250.606869 
L 270.744472 246.364444 
L 271.886978 246.647273 
L 273.029484 248.344242 
L 274.17199 246.647273 
L 275.314496 247.495758 
L 276.457002 250.041212 
L 277.599509 250.889697 
L 278.742015 247.495758 
L 279.884521 246.081616 
L 281.027027 247.212929 
L 282.169533 247.495758 
L 283.312039 249.475556 
L 284.454545 251.172525 
L 285.597052 250.041212 
L 286.739558 247.778586 
L 287.882064 247.778586 
L 289.02457 248.627071 
L 290.167076 250.606869 
L 292.452088 251.172525 
L 293.594595 250.041212 
L 294.737101 246.364444 
L 295.879607 247.212929 
L 297.022113 248.627071 
L 298.164619 246.930101 
L 299.307125 249.758384 
L 300.449631 251.172525 
L 302.734644 249.475556 
L 303.87715 248.344242 
L 305.019656 248.627071 
L 306.162162 247.495758 
L 307.304668 249.192727 
L 308.447174 249.475556 
L 309.589681 250.889697 
L 310.732187 245.51596 
L 311.874693 248.061414 
L 313.017199 248.909899 
L 314.159705 249.192727 
L 315.302211 249.192727 
L 316.444717 250.889697 
L 317.587224 250.32404 
L 318.72973 245.798788 
L 319.872236 244.384646 
L 321.014742 246.930101 
L 322.157248 248.909899 
L 323.299754 250.32404 
L 324.44226 249.192727 
L 325.584767 250.32404 
L 326.727273 246.364444 
L 327.869779 246.647273 
L 329.012285 229.111919 
L 330.154791 248.061414 
L 331.297297 246.647273 
L 332.439803 250.606869 
L 333.58231 251.738182 
L 334.724816 249.758384 
L 335.867322 248.344242 
L 337.009828 248.344242 
L 338.152334 248.627071 
L 339.29484 247.778586 
L 341.579853 251.172525 
L 342.722359 249.192727 
L 343.864865 248.344242 
L 345.007371 246.930101 
L 346.149877 247.212929 
L 347.292383 245.798788 
L 348.434889 250.606869 
L 349.577396 251.738182 
L 350.719902 245.798788 
L 351.862408 247.212929 
L 353.004914 249.475556 
L 354.14742 247.495758 
L 355.289926 248.344242 
L 356.432432 251.455354 
L 357.574939 250.32404 
L 358.717445 248.344242 
L 359.859951 249.475556 
L 361.002457 248.061414 
L 362.144963 246.364444 
L 364.429975 250.889697 
L 365.572482 251.172525 
L 366.714988 249.192727 
L 367.857494 247.778586 
L 369 250.041212 
L 370.142506 249.475556 
L 371.285012 249.475556 
L 373.570025 250.041212 
L 374.712531 246.930101 
L 375.855037 248.909899 
L 376.997543 248.909899 
L 378.140049 250.041212 
L 379.282555 249.192727 
L 380.425061 251.172525 
L 381.567568 250.32404 
L 382.710074 248.344242 
L 383.85258 249.192727 
L 384.995086 248.909899 
L 386.137592 248.344242 
L 387.280098 249.192727 
L 388.422604 251.172525 
L 389.565111 250.889697 
L 390.707617 247.495758 
L 391.850123 250.606869 
L 392.992629 249.758384 
L 394.135135 249.192727 
L 395.277641 245.798788 
L 396.420147 251.172525 
L 397.562654 250.606869 
L 398.70516 249.758384 
L 399.847666 250.32404 
L 400.990172 248.909899 
L 402.132678 248.061414 
L 403.275184 249.192727 
L 404.41769 250.889697 
L 405.560197 250.889697 
L 406.702703 249.475556 
L 407.845209 247.212929 
L 408.987715 247.212929 
L 410.130221 250.32404 
L 411.272727 248.627071 
L 412.415233 250.606869 
L 413.55774 249.475556 
L 414.700246 247.778586 
L 415.842752 248.627071 
L 416.985258 248.627071 
L 418.127764 247.778586 
L 419.27027 248.061414 
L 420.412776 251.172525 
L 421.555283 251.738182 
L 422.697789 250.041212 
L 423.840295 250.041212 
L 424.982801 250.32404 
L 426.125307 250.32404 
L 427.267813 250.606869 
L 429.552826 251.738182 
L 430.695332 250.32404 
L 431.837838 249.475556 
L 432.980344 249.758384 
L 434.12285 248.627071 
L 435.265356 251.172525 
L 436.407862 250.32404 
L 437.550369 251.738182 
L 438.692875 250.32404 
L 439.835381 250.32404 
L 440.977887 248.344242 
L 442.120393 247.778586 
L 443.262899 249.475556 
L 444.405405 250.606869 
L 445.547912 250.606869 
L 446.690418 248.627071 
L 447.832924 249.475556 
L 448.97543 249.758384 
L 450.117936 249.758384 
L 451.260442 248.909899 
L 452.402948 249.192727 
L 453.545455 250.606869 
L 454.687961 248.344242 
L 455.830467 251.455354 
L 456.972973 249.758384 
L 458.115479 249.758384 
L 459.257985 251.172525 
L 460.400491 250.889697 
L 461.542998 250.041212 
L 462.685504 250.041212 
L 463.82801 249.192727 
L 464.970516 249.475556 
L 466.113022 251.172525 
L 467.255528 250.889697 
L 468.398034 251.455354 
L 469.540541 250.606869 
L 471.825553 250.041212 
L 472.968059 248.627071 
L 474.110565 249.192727 
L 475.253071 250.32404 
L 476.395577 250.889697 
L 477.538084 250.32404 
L 478.68059 251.455354 
L 479.823096 250.889697 
L 480.965602 249.192727 
L 482.108108 250.041212 
L 483.250614 251.172525 
L 484.39312 248.344242 
L 485.535627 251.455354 
L 486.678133 251.172525 
L 487.820639 248.061414 
L 490.105651 249.192727 
L 491.248157 250.32404 
L 492.390663 249.758384 
L 493.53317 251.172525 
L 494.675676 250.606869 
L 495.818182 247.778586 
L 496.960688 249.758384 
L 498.103194 249.192727 
L 499.2457 249.758384 
L 500.388206 249.758384 
L 501.530713 251.455354 
L 502.673219 251.455354 
L 503.815725 250.889697 
L 504.958231 248.344242 
L 507.243243 248.344242 
L 508.385749 249.758384 
L 509.528256 249.758384 
L 510.670762 248.909899 
L 511.813268 248.627071 
L 512.955774 247.212929 
L 514.09828 249.475556 
L 515.240786 247.495758 
L 516.383292 250.041212 
L 517.525799 251.172525 
L 518.668305 250.32404 
L 519.810811 249.758384 
L 520.953317 248.061414 
L 522.095823 248.344242 
L 523.238329 249.192727 
L 524.380835 249.758384 
L 525.523342 250.041212 
L 526.665848 247.495758 
L 527.808354 248.344242 
L 528.95086 250.606869 
L 530.093366 249.475556 
L 532.378378 248.909899 
L 533.520885 249.475556 
L 534.663391 247.495758 
L 535.805897 250.041212 
L 536.948403 250.32404 
L 538.090909 248.344242 
L 539.233415 248.909899 
L 540.375921 250.889697 
L 541.518428 250.32404 
L 542.660934 249.475556 
L 543.80344 250.889697 
L 544.945946 249.192727 
L 546.088452 248.627071 
L 547.230958 248.909899 
L 548.373464 251.172525 
L 549.515971 251.172525 
L 550.658477 249.192727 
L 551.800983 250.32404 
L 552.943489 247.778586 
L 555.228501 250.041212 
L 556.371007 250.606869 
L 557.513514 250.041212 
L 558.65602 248.909899 
L 559.798526 247.212929 
L 560.941032 248.344242 
L 562.083538 247.778586 
L 563.226044 248.909899 
L 564.36855 250.606869 
L 565.511057 250.889697 
L 566.653563 249.192727 
L 567.796069 250.606869 
L 568.938575 249.758384 
L 570.081081 250.041212 
L 571.223587 251.455354 
L 572.366093 250.889697 
L 573.5086 250.889697 
L 574.651106 251.455354 
L 575.793612 249.475556 
L 576.936118 250.32404 
L 578.078624 248.909899 
L 579.22113 250.606869 
L 580.363636 251.172525 
L 581.506143 248.909899 
L 582.648649 250.041212 
L 583.791155 249.475556 
L 584.933661 249.475556 
L 586.076167 246.647273 
L 587.218673 246.364444 
L 588.361179 250.32404 
L 589.503686 250.32404 
L 590.646192 248.627071 
L 591.788698 250.32404 
L 592.931204 248.627071 
L 594.07371 249.758384 
L 595.216216 249.192727 
L 596.358722 250.32404 
L 597.501229 250.606869 
L 598.643735 250.606869 
L 599.786241 249.475556 
L 600.928747 248.061414 
L 602.071253 249.758384 
L 603.213759 250.606869 
L 604.356265 250.889697 
L 605.498771 249.475556 
L 606.641278 251.738182 
L 607.783784 251.455354 
L 608.92629 250.889697 
L 610.068796 250.889697 
L 611.211302 251.172525 
L 612.353808 250.606869 
L 613.496314 251.172525 
L 614.638821 250.32404 
L 615.781327 244.384646 
L 616.923833 247.212929 
L 618.066339 249.192727 
L 621.493857 250.889697 
L 622.636364 251.738182 
L 622.636364 251.738182 
" clip-path="url(#p1de310163b)" style="fill: none; stroke: #ff7f0e; stroke-width: 1.5; stroke-linecap: square"/>
   </g>
   <g id="patch_9">
    <path d="M 90 256.32 
L 90 155.52 
" style="fill: none; stroke: #000000; stroke-width: 0.8; stroke-linejoin: miter; stroke-linecap: square"/>
   </g>
   <g id="patch_10">
    <path d="M 648 256.32 
L 648 155.52 
" style="fill: none; stroke: #000000; stroke-width: 0.8; stroke-linejoin: miter; stroke-linecap: square"/>
   </g>
   <g id="patch_11">
    <path d="M 90 256.32 
L 648 256.32 
" style="fill: none; stroke: #000000; stroke-width: 0.8; stroke-linejoin: miter; stroke-linecap: square"/>
   </g>
   <g id="patch_12">
    <path d="M 90 155.52 
L 648 155.52 
" style="fill: none; stroke: #000000; stroke-width: 0.8; stroke-linejoin: miter; stroke-linecap: square"/>
   </g>
   <g id="legend_2">
    <g id="patch_13">
     <path d="M 97 192.87625 
L 234.217188 192.87625 
Q 236.217188 192.87625 236.217188 190.87625 
L 236.217188 162.52 
Q 236.217188 160.52 234.217188 160.52 
L 97 160.52 
Q 95 160.52 95 162.52 
L 95 190.87625 
Q 95 192.87625 97 192.87625 
z
" style="fill: #ffffff; opacity: 0.8; stroke: #cccccc; stroke-linejoin: miter"/>
    </g>
    <g id="line2d_28">
     <path d="M 99 168.618437 
L 109 168.618437 
L 119 168.618437 
" style="fill: none; stroke: #1f77b4; stroke-width: 1.5; stroke-linecap: square"/>
    </g>
    <g id="text_25">
     <!-- Total GitHub Views -->
     <g transform="translate(127 172.118437)scale(0.1 -0.1)">
      <defs>
       <path id="DejaVuSans-56" d="M 1831 0 
L 50 4666 
L 709 4666 
L 2188 738 
L 3669 4666 
L 4325 4666 
L 2547 0 
L 1831 0 
z
" transform="scale(0.015625)"/>
       <path id="DejaVuSans-77" d="M 269 3500 
L 844 3500 
L 1563 769 
L 2278 3500 
L 2956 3500 
L 3675 769 
L 4391 3500 
L 4966 3500 
L 4050 0 
L 3372 0 
L 2619 2869 
L 1863 0 
L 1184 0 
L 269 3500 
z
" transform="scale(0.015625)"/>
      </defs>
      <use xlink:href="#DejaVuSans-54"/>
      <use xlink:href="#DejaVuSans-6f" x="44.083984"/>
      <use xlink:href="#DejaVuSans-74" x="105.265625"/>
      <use xlink:href="#DejaVuSans-61" x="144.474609"/>
      <use xlink:href="#DejaVuSans-6c" x="205.753906"/>
      <use xlink:href="#DejaVuSans-20" x="233.537109"/>
      <use xlink:href="#DejaVuSans-47" x="265.324219"/>
      <use xlink:href="#DejaVuSans-69" x="342.814453"/>
      <use xlink:href="#DejaVuSans-74" x="370.597656"/>
      <use xlink:href="#DejaVuSans-48" x="409.806641"/>
      <use xlink:href="#DejaVuSans-75" x="485.001953"/>
      <use xlink:href="#DejaVuSans-62" x="548.380859"/>
      <use xlink:href="#DejaVuSans-20" x="611.857422"/>
      <use xlink:href="#DejaVuSans-56" x="643.644531"/>
      <use xlink:href="#DejaVuSans-69" x="709.802734"/>
      <use xlink:href="#DejaVuSans-65" x="737.585938"/>
      <use xlink:href="#DejaVuSans-77" x="799.109375"/>
      <use xlink:href="#DejaVuSans-73" x="880.896484"/>
     </g>
    </g>
    <g id="line2d_29">
     <path d="M 99 183.296562 
L 109 183.296562 
L 119 183.296562 
" style="fill: none; stroke: #ff7f0e; stroke-width: 1.5; stroke-linecap: square"/>
    </g>
    <g id="text_26">
     <!-- Unique GitHub Views -->
     <g transform="translate(127 186.796562)scale(0.1 -0.1)">
      <use xlink:href="#DejaVuSans-55"/>
      <use xlink:href="#DejaVuSans-6e" x="73.193359"/>
      <use xlink:href="#DejaVuSans-69" x="136.572266"/>
      <use xlink:href="#DejaVuSans-71" x="164.355469"/>
      <use xlink:href="#DejaVuSans-75" x="227.832031"/>
      <use xlink:href="#DejaVuSans-65" x="291.210938"/>
      <use xlink:href="#DejaVuSans-20" x="352.734375"/>
      <use xlink:href="#DejaVuSans-47" x="384.521484"/>
      <use xlink:href="#DejaVuSans-69" x="462.011719"/>
      <use xlink:href="#DejaVuSans-74" x="489.794922"/>
      <use xlink:href="#DejaVuSans-48" x="529.003906"/>
      <use xlink:href="#DejaVuSans-75" x="604.199219"/>
      <use xlink:href="#DejaVuSans-62" x="667.578125"/>
      <use xlink:href="#DejaVuSans-20" x="731.054688"/>
      <use xlink:href="#DejaVuSans-56" x="762.841797"/>
      <use xlink:href="#DejaVuSans-69" x="829"/>
      <use xlink:href="#DejaVuSans-65" x="856.783203"/>
      <use xlink:href="#DejaVuSans-77" x="918.306641"/>
      <use xlink:href="#DejaVuSans-73" x="1000.09375"/>
     </g>
    </g>
   </g>
  </g>
 </g>
 <defs>
  <clipPath id="pc683841f73">
   <rect x="90" y="34.56" width="558" height="100.8"/>
  </clipPath>
  <clipPath id="p1de310163b">
   <rect x="90" y="155.52" width="558" height="100.8"/>
  </clipPath>
 </defs>
</svg>
