<?xml version="1.0" encoding="utf-8" standalone="no"?>
<!DOCTYPE svg PUBLIC "-//W3C//DTD SVG 1.1//EN"
  "http://www.w3.org/Graphics/SVG/1.1/DTD/svg11.dtd">
<svg xmlns:xlink="http://www.w3.org/1999/xlink" width="720pt" height="288pt" viewBox="0 0 720 288" xmlns="http://www.w3.org/2000/svg" version="1.1">
 <metadata>
  <rdf:RDF xmlns:dc="http://purl.org/dc/elements/1.1/" xmlns:cc="http://creativecommons.org/ns#" xmlns:rdf="http://www.w3.org/1999/02/22-rdf-syntax-ns#">
   <cc:Work>
    <dc:type rdf:resource="http://purl.org/dc/dcmitype/StillImage"/>
    <dc:date>2022-01-17T00:31:22.180470</dc:date>
    <dc:format>image/svg+xml</dc:format>
    <dc:creator>
     <cc:Agent>
      <dc:title>Matplotlib v3.5.1, https://matplotlib.org/</dc:title>
     </cc:Agent>
    </dc:creator>
   </cc:Work>
  </rdf:RDF>
 </metadata>
 <defs>
  <style type="text/css">*{stroke-linejoin: round; stroke-linecap: butt}</style>
 </defs>
 <g id="figure_1">
  <g id="patch_1">
   <path d="M 0 288 
L 720 288 
L 720 0 
L 0 0 
z
" style="fill: #ffffff"/>
  </g>
  <g id="axes_1">
   <g id="patch_2">
    <path d="M 90 135.36 
L 648 135.36 
L 648 34.56 
L 90 34.56 
z
" style="fill: #ffffff"/>
   </g>
   <g id="matplotlib.axis_1">
    <g id="xtick_1">
     <g id="line2d_1">
      <defs>
       <path id="md4b216cf7f" d="M 0 0 
L 0 3.5 
" style="stroke: #000000; stroke-width: 0.8"/>
      </defs>
      <g>
       <use xlink:href="#md4b216cf7f" x="115.363636" y="135.36" style="stroke: #000000; stroke-width: 0.8"/>
      </g>
     </g>
     <g id="text_1">
      <!-- 2020-10-22 -->
      <g transform="translate(86.305824 149.958437)scale(0.1 -0.1)">
       <defs>
        <path id="DejaVuSans-32" d="M 1228 531 
L 3431 531 
L 3431 0 
L 469 0 
L 469 531 
Q 828 903 1448 1529 
Q 2069 2156 2228 2338 
Q 2531 2678 2651 2914 
Q 2772 3150 2772 3378 
Q 2772 3750 2511 3984 
Q 2250 4219 1831 4219 
Q 1534 4219 1204 4116 
Q 875 4013 500 3803 
L 500 4441 
Q 881 4594 1212 4672 
Q 1544 4750 1819 4750 
Q 2544 4750 2975 4387 
Q 3406 4025 3406 3419 
Q 3406 3131 3298 2873 
Q 3191 2616 2906 2266 
Q 2828 2175 2409 1742 
Q 1991 1309 1228 531 
z
" transform="scale(0.015625)"/>
        <path id="DejaVuSans-30" d="M 2034 4250 
Q 1547 4250 1301 3770 
Q 1056 3291 1056 2328 
Q 1056 1369 1301 889 
Q 1547 409 2034 409 
Q 2525 409 2770 889 
Q 3016 1369 3016 2328 
Q 3016 3291 2770 3770 
Q 2525 4250 2034 4250 
z
M 2034 4750 
Q 2819 4750 3233 4129 
Q 3647 3509 3647 2328 
Q 3647 1150 3233 529 
Q 2819 -91 2034 -91 
Q 1250 -91 836 529 
Q 422 1150 422 2328 
Q 422 3509 836 4129 
Q 1250 4750 2034 4750 
z
" transform="scale(0.015625)"/>
        <path id="DejaVuSans-2d" d="M 313 2009 
L 1997 2009 
L 1997 1497 
L 313 1497 
L 313 2009 
z
" transform="scale(0.015625)"/>
        <path id="DejaVuSans-31" d="M 794 531 
L 1825 531 
L 1825 4091 
L 703 3866 
L 703 4441 
L 1819 4666 
L 2450 4666 
L 2450 531 
L 3481 531 
L 3481 0 
L 794 0 
L 794 531 
z
" transform="scale(0.015625)"/>
       </defs>
       <use xlink:href="#DejaVuSans-32"/>
       <use xlink:href="#DejaVuSans-30" x="63.623047"/>
       <use xlink:href="#DejaVuSans-32" x="127.246094"/>
       <use xlink:href="#DejaVuSans-30" x="190.869141"/>
       <use xlink:href="#DejaVuSans-2d" x="254.492188"/>
       <use xlink:href="#DejaVuSans-31" x="290.576172"/>
       <use xlink:href="#DejaVuSans-30" x="354.199219"/>
       <use xlink:href="#DejaVuSans-2d" x="417.822266"/>
       <use xlink:href="#DejaVuSans-32" x="453.90625"/>
       <use xlink:href="#DejaVuSans-32" x="517.529297"/>
      </g>
     </g>
    </g>
    <g id="xtick_2">
     <g id="line2d_2">
      <g>
       <use xlink:href="#md4b216cf7f" x="187.831169" y="135.36" style="stroke: #000000; stroke-width: 0.8"/>
      </g>
     </g>
     <g id="text_2">
      <!-- 2021-01-05 -->
      <g transform="translate(158.773356 149.958437)scale(0.1 -0.1)">
       <defs>
        <path id="DejaVuSans-35" d="M 691 4666 
L 3169 4666 
L 3169 4134 
L 1269 4134 
L 1269 2991 
Q 1406 3038 1543 3061 
Q 1681 3084 1819 3084 
Q 2600 3084 3056 2656 
Q 3513 2228 3513 1497 
Q 3513 744 3044 326 
Q 2575 -91 1722 -91 
Q 1428 -91 1123 -41 
Q 819 9 494 109 
L 494 744 
Q 775 591 1075 516 
Q 1375 441 1709 441 
Q 2250 441 2565 725 
Q 2881 1009 2881 1497 
Q 2881 1984 2565 2268 
Q 2250 2553 1709 2553 
Q 1456 2553 1204 2497 
Q 953 2441 691 2322 
L 691 4666 
z
" transform="scale(0.015625)"/>
       </defs>
       <use xlink:href="#DejaVuSans-32"/>
       <use xlink:href="#DejaVuSans-30" x="63.623047"/>
       <use xlink:href="#DejaVuSans-32" x="127.246094"/>
       <use xlink:href="#DejaVuSans-31" x="190.869141"/>
       <use xlink:href="#DejaVuSans-2d" x="254.492188"/>
       <use xlink:href="#DejaVuSans-30" x="290.576172"/>
       <use xlink:href="#DejaVuSans-31" x="354.199219"/>
       <use xlink:href="#DejaVuSans-2d" x="417.822266"/>
       <use xlink:href="#DejaVuSans-30" x="453.90625"/>
       <use xlink:href="#DejaVuSans-35" x="517.529297"/>
      </g>
     </g>
    </g>
    <g id="xtick_3">
     <g id="line2d_3">
      <g>
       <use xlink:href="#md4b216cf7f" x="260.298701" y="135.36" style="stroke: #000000; stroke-width: 0.8"/>
      </g>
     </g>
     <g id="text_3">
      <!-- 2021-03-17 -->
      <g transform="translate(231.240889 149.958437)scale(0.1 -0.1)">
       <defs>
        <path id="DejaVuSans-33" d="M 2597 2516 
Q 3050 2419 3304 2112 
Q 3559 1806 3559 1356 
Q 3559 666 3084 287 
Q 2609 -91 1734 -91 
Q 1441 -91 1130 -33 
Q 819 25 488 141 
L 488 750 
Q 750 597 1062 519 
Q 1375 441 1716 441 
Q 2309 441 2620 675 
Q 2931 909 2931 1356 
Q 2931 1769 2642 2001 
Q 2353 2234 1838 2234 
L 1294 2234 
L 1294 2753 
L 1863 2753 
Q 2328 2753 2575 2939 
Q 2822 3125 2822 3475 
Q 2822 3834 2567 4026 
Q 2313 4219 1838 4219 
Q 1578 4219 1281 4162 
Q 984 4106 628 3988 
L 628 4550 
Q 988 4650 1302 4700 
Q 1616 4750 1894 4750 
Q 2613 4750 3031 4423 
Q 3450 4097 3450 3541 
Q 3450 3153 3228 2886 
Q 3006 2619 2597 2516 
z
" transform="scale(0.015625)"/>
        <path id="DejaVuSans-37" d="M 525 4666 
L 3525 4666 
L 3525 4397 
L 1831 0 
L 1172 0 
L 2766 4134 
L 525 4134 
L 525 4666 
z
" transform="scale(0.015625)"/>
       </defs>
       <use xlink:href="#DejaVuSans-32"/>
       <use xlink:href="#DejaVuSans-30" x="63.623047"/>
       <use xlink:href="#DejaVuSans-32" x="127.246094"/>
       <use xlink:href="#DejaVuSans-31" x="190.869141"/>
       <use xlink:href="#DejaVuSans-2d" x="254.492188"/>
       <use xlink:href="#DejaVuSans-30" x="290.576172"/>
       <use xlink:href="#DejaVuSans-33" x="354.199219"/>
       <use xlink:href="#DejaVuSans-2d" x="417.822266"/>
       <use xlink:href="#DejaVuSans-31" x="453.90625"/>
       <use xlink:href="#DejaVuSans-37" x="517.529297"/>
      </g>
     </g>
    </g>
    <g id="xtick_4">
     <g id="line2d_4">
      <g>
       <use xlink:href="#md4b216cf7f" x="332.766234" y="135.36" style="stroke: #000000; stroke-width: 0.8"/>
      </g>
     </g>
     <g id="text_4">
      <!-- 2021-05-10 -->
      <g transform="translate(303.708421 149.958437)scale(0.1 -0.1)">
       <use xlink:href="#DejaVuSans-32"/>
       <use xlink:href="#DejaVuSans-30" x="63.623047"/>
       <use xlink:href="#DejaVuSans-32" x="127.246094"/>
       <use xlink:href="#DejaVuSans-31" x="190.869141"/>
       <use xlink:href="#DejaVuSans-2d" x="254.492188"/>
       <use xlink:href="#DejaVuSans-30" x="290.576172"/>
       <use xlink:href="#DejaVuSans-35" x="354.199219"/>
       <use xlink:href="#DejaVuSans-2d" x="417.822266"/>
       <use xlink:href="#DejaVuSans-31" x="453.90625"/>
       <use xlink:href="#DejaVuSans-30" x="517.529297"/>
      </g>
     </g>
    </g>
    <g id="xtick_5">
     <g id="line2d_5">
      <g>
       <use xlink:href="#md4b216cf7f" x="405.233766" y="135.36" style="stroke: #000000; stroke-width: 0.8"/>
      </g>
     </g>
     <g id="text_5">
      <!-- 2021-07-07 -->
      <g transform="translate(376.175954 149.958437)scale(0.1 -0.1)">
       <use xlink:href="#DejaVuSans-32"/>
       <use xlink:href="#DejaVuSans-30" x="63.623047"/>
       <use xlink:href="#DejaVuSans-32" x="127.246094"/>
       <use xlink:href="#DejaVuSans-31" x="190.869141"/>
       <use xlink:href="#DejaVuSans-2d" x="254.492188"/>
       <use xlink:href="#DejaVuSans-30" x="290.576172"/>
       <use xlink:href="#DejaVuSans-37" x="354.199219"/>
       <use xlink:href="#DejaVuSans-2d" x="417.822266"/>
       <use xlink:href="#DejaVuSans-30" x="453.90625"/>
       <use xlink:href="#DejaVuSans-37" x="517.529297"/>
      </g>
     </g>
    </g>
    <g id="xtick_6">
     <g id="line2d_6">
      <g>
       <use xlink:href="#md4b216cf7f" x="477.701299" y="135.36" style="stroke: #000000; stroke-width: 0.8"/>
      </g>
     </g>
     <g id="text_6">
      <!-- 2021-09-13 -->
      <g transform="translate(448.643486 149.958437)scale(0.1 -0.1)">
       <defs>
        <path id="DejaVuSans-39" d="M 703 97 
L 703 672 
Q 941 559 1184 500 
Q 1428 441 1663 441 
Q 2288 441 2617 861 
Q 2947 1281 2994 2138 
Q 2813 1869 2534 1725 
Q 2256 1581 1919 1581 
Q 1219 1581 811 2004 
Q 403 2428 403 3163 
Q 403 3881 828 4315 
Q 1253 4750 1959 4750 
Q 2769 4750 3195 4129 
Q 3622 3509 3622 2328 
Q 3622 1225 3098 567 
Q 2575 -91 1691 -91 
Q 1453 -91 1209 -44 
Q 966 3 703 97 
z
M 1959 2075 
Q 2384 2075 2632 2365 
Q 2881 2656 2881 3163 
Q 2881 3666 2632 3958 
Q 2384 4250 1959 4250 
Q 1534 4250 1286 3958 
Q 1038 3666 1038 3163 
Q 1038 2656 1286 2365 
Q 1534 2075 1959 2075 
z
" transform="scale(0.015625)"/>
       </defs>
       <use xlink:href="#DejaVuSans-32"/>
       <use xlink:href="#DejaVuSans-30" x="63.623047"/>
       <use xlink:href="#DejaVuSans-32" x="127.246094"/>
       <use xlink:href="#DejaVuSans-31" x="190.869141"/>
       <use xlink:href="#DejaVuSans-2d" x="254.492188"/>
       <use xlink:href="#DejaVuSans-30" x="290.576172"/>
       <use xlink:href="#DejaVuSans-39" x="354.199219"/>
       <use xlink:href="#DejaVuSans-2d" x="417.822266"/>
       <use xlink:href="#DejaVuSans-31" x="453.90625"/>
       <use xlink:href="#DejaVuSans-33" x="517.529297"/>
      </g>
     </g>
    </g>
    <g id="xtick_7">
     <g id="line2d_7">
      <g>
       <use xlink:href="#md4b216cf7f" x="550.168831" y="135.36" style="stroke: #000000; stroke-width: 0.8"/>
      </g>
     </g>
     <g id="text_7">
      <!-- 2021-11-16 -->
      <g transform="translate(521.111019 149.958437)scale(0.1 -0.1)">
       <defs>
        <path id="DejaVuSans-36" d="M 2113 2584 
Q 1688 2584 1439 2293 
Q 1191 2003 1191 1497 
Q 1191 994 1439 701 
Q 1688 409 2113 409 
Q 2538 409 2786 701 
Q 3034 994 3034 1497 
Q 3034 2003 2786 2293 
Q 2538 2584 2113 2584 
z
M 3366 4563 
L 3366 3988 
Q 3128 4100 2886 4159 
Q 2644 4219 2406 4219 
Q 1781 4219 1451 3797 
Q 1122 3375 1075 2522 
Q 1259 2794 1537 2939 
Q 1816 3084 2150 3084 
Q 2853 3084 3261 2657 
Q 3669 2231 3669 1497 
Q 3669 778 3244 343 
Q 2819 -91 2113 -91 
Q 1303 -91 875 529 
Q 447 1150 447 2328 
Q 447 3434 972 4092 
Q 1497 4750 2381 4750 
Q 2619 4750 2861 4703 
Q 3103 4656 3366 4563 
z
" transform="scale(0.015625)"/>
       </defs>
       <use xlink:href="#DejaVuSans-32"/>
       <use xlink:href="#DejaVuSans-30" x="63.623047"/>
       <use xlink:href="#DejaVuSans-32" x="127.246094"/>
       <use xlink:href="#DejaVuSans-31" x="190.869141"/>
       <use xlink:href="#DejaVuSans-2d" x="254.492188"/>
       <use xlink:href="#DejaVuSans-31" x="290.576172"/>
       <use xlink:href="#DejaVuSans-31" x="354.199219"/>
       <use xlink:href="#DejaVuSans-2d" x="417.822266"/>
       <use xlink:href="#DejaVuSans-31" x="453.90625"/>
       <use xlink:href="#DejaVuSans-36" x="517.529297"/>
      </g>
     </g>
    </g>
    <g id="xtick_8">
     <g id="line2d_8">
      <g>
       <use xlink:href="#md4b216cf7f" x="622.636364" y="135.36" style="stroke: #000000; stroke-width: 0.8"/>
      </g>
     </g>
     <g id="text_8">
      <!-- 2022-01-16 -->
      <g transform="translate(593.578551 149.958437)scale(0.1 -0.1)">
       <use xlink:href="#DejaVuSans-32"/>
       <use xlink:href="#DejaVuSans-30" x="63.623047"/>
       <use xlink:href="#DejaVuSans-32" x="127.246094"/>
       <use xlink:href="#DejaVuSans-32" x="190.869141"/>
       <use xlink:href="#DejaVuSans-2d" x="254.492188"/>
       <use xlink:href="#DejaVuSans-30" x="290.576172"/>
       <use xlink:href="#DejaVuSans-31" x="354.199219"/>
       <use xlink:href="#DejaVuSans-2d" x="417.822266"/>
       <use xlink:href="#DejaVuSans-31" x="453.90625"/>
       <use xlink:href="#DejaVuSans-36" x="517.529297"/>
      </g>
     </g>
    </g>
    <g id="text_9">
     <!-- _date -->
     <g transform="translate(355.225 163.636562)scale(0.1 -0.1)">
      <defs>
       <path id="DejaVuSans-5f" d="M 3263 -1063 
L 3263 -1509 
L -63 -1509 
L -63 -1063 
L 3263 -1063 
z
" transform="scale(0.015625)"/>
       <path id="DejaVuSans-64" d="M 2906 2969 
L 2906 4863 
L 3481 4863 
L 3481 0 
L 2906 0 
L 2906 525 
Q 2725 213 2448 61 
Q 2172 -91 1784 -91 
Q 1150 -91 751 415 
Q 353 922 353 1747 
Q 353 2572 751 3078 
Q 1150 3584 1784 3584 
Q 2172 3584 2448 3432 
Q 2725 3281 2906 2969 
z
M 947 1747 
Q 947 1113 1208 752 
Q 1469 391 1925 391 
Q 2381 391 2643 752 
Q 2906 1113 2906 1747 
Q 2906 2381 2643 2742 
Q 2381 3103 1925 3103 
Q 1469 3103 1208 2742 
Q 947 2381 947 1747 
z
" transform="scale(0.015625)"/>
       <path id="DejaVuSans-61" d="M 2194 1759 
Q 1497 1759 1228 1600 
Q 959 1441 959 1056 
Q 959 750 1161 570 
Q 1363 391 1709 391 
Q 2188 391 2477 730 
Q 2766 1069 2766 1631 
L 2766 1759 
L 2194 1759 
z
M 3341 1997 
L 3341 0 
L 2766 0 
L 2766 531 
Q 2569 213 2275 61 
Q 1981 -91 1556 -91 
Q 1019 -91 701 211 
Q 384 513 384 1019 
Q 384 1609 779 1909 
Q 1175 2209 1959 2209 
L 2766 2209 
L 2766 2266 
Q 2766 2663 2505 2880 
Q 2244 3097 1772 3097 
Q 1472 3097 1187 3025 
Q 903 2953 641 2809 
L 641 3341 
Q 956 3463 1253 3523 
Q 1550 3584 1831 3584 
Q 2591 3584 2966 3190 
Q 3341 2797 3341 1997 
z
" transform="scale(0.015625)"/>
       <path id="DejaVuSans-74" d="M 1172 4494 
L 1172 3500 
L 2356 3500 
L 2356 3053 
L 1172 3053 
L 1172 1153 
Q 1172 725 1289 603 
Q 1406 481 1766 481 
L 2356 481 
L 2356 0 
L 1766 0 
Q 1100 0 847 248 
Q 594 497 594 1153 
L 594 3053 
L 172 3053 
L 172 3500 
L 594 3500 
L 594 4494 
L 1172 4494 
z
" transform="scale(0.015625)"/>
       <path id="DejaVuSans-65" d="M 3597 1894 
L 3597 1613 
L 953 1613 
Q 991 1019 1311 708 
Q 1631 397 2203 397 
Q 2534 397 2845 478 
Q 3156 559 3463 722 
L 3463 178 
Q 3153 47 2828 -22 
Q 2503 -91 2169 -91 
Q 1331 -91 842 396 
Q 353 884 353 1716 
Q 353 2575 817 3079 
Q 1281 3584 2069 3584 
Q 2775 3584 3186 3129 
Q 3597 2675 3597 1894 
z
M 3022 2063 
Q 3016 2534 2758 2815 
Q 2500 3097 2075 3097 
Q 1594 3097 1305 2825 
Q 1016 2553 972 2059 
L 3022 2063 
z
" transform="scale(0.015625)"/>
      </defs>
      <use xlink:href="#DejaVuSans-5f"/>
      <use xlink:href="#DejaVuSans-64" x="50"/>
      <use xlink:href="#DejaVuSans-61" x="113.476562"/>
      <use xlink:href="#DejaVuSans-74" x="174.755859"/>
      <use xlink:href="#DejaVuSans-65" x="213.964844"/>
     </g>
    </g>
   </g>
   <g id="matplotlib.axis_2">
    <g id="ytick_1">
     <g id="line2d_9">
      <defs>
       <path id="mc69d3c67ab" d="M 0 0 
L -3.5 0 
" style="stroke: #000000; stroke-width: 0.8"/>
      </defs>
      <g>
       <use xlink:href="#mc69d3c67ab" x="90" y="131.401558" style="stroke: #000000; stroke-width: 0.8"/>
      </g>
     </g>
     <g id="text_10">
      <!-- 0 -->
      <g transform="translate(76.6375 135.200777)scale(0.1 -0.1)">
       <use xlink:href="#DejaVuSans-30"/>
      </g>
     </g>
    </g>
    <g id="ytick_2">
     <g id="line2d_10">
      <g>
       <use xlink:href="#mc69d3c67ab" x="90" y="100.232727" style="stroke: #000000; stroke-width: 0.8"/>
      </g>
     </g>
     <g id="text_11">
      <!-- 50 -->
      <g transform="translate(70.275 104.031946)scale(0.1 -0.1)">
       <use xlink:href="#DejaVuSans-35"/>
       <use xlink:href="#DejaVuSans-30" x="63.623047"/>
      </g>
     </g>
    </g>
    <g id="ytick_3">
     <g id="line2d_11">
      <g>
       <use xlink:href="#mc69d3c67ab" x="90" y="69.063896" style="stroke: #000000; stroke-width: 0.8"/>
      </g>
     </g>
     <g id="text_12">
      <!-- 100 -->
      <g transform="translate(63.9125 72.863115)scale(0.1 -0.1)">
       <use xlink:href="#DejaVuSans-31"/>
       <use xlink:href="#DejaVuSans-30" x="63.623047"/>
       <use xlink:href="#DejaVuSans-30" x="127.246094"/>
      </g>
     </g>
    </g>
    <g id="ytick_4">
     <g id="line2d_12">
      <g>
       <use xlink:href="#mc69d3c67ab" x="90" y="37.895065" style="stroke: #000000; stroke-width: 0.8"/>
      </g>
     </g>
     <g id="text_13">
      <!-- 150 -->
      <g transform="translate(63.9125 41.694284)scale(0.1 -0.1)">
       <use xlink:href="#DejaVuSans-31"/>
       <use xlink:href="#DejaVuSans-35" x="63.623047"/>
       <use xlink:href="#DejaVuSans-30" x="127.246094"/>
      </g>
     </g>
    </g>
   </g>
   <g id="line2d_13">
    <path d="M 115.363636 127.661299 
L 116.812987 128.284675 
L 118.262338 130.778182 
L 119.711688 130.778182 
L 121.161039 129.531429 
L 122.61039 129.531429 
L 124.05974 120.804156 
L 125.509091 120.804156 
L 126.958442 130.778182 
L 128.407792 130.778182 
L 129.857143 124.544416 
L 131.306494 126.414545 
L 132.755844 130.778182 
L 134.205195 127.661299 
L 135.654545 128.908052 
L 137.103896 128.908052 
L 138.553247 130.778182 
L 141.451948 128.284675 
L 142.901299 130.154805 
L 144.350649 130.778182 
L 145.8 130.154805 
L 147.249351 130.154805 
L 148.698701 129.531429 
L 150.148052 130.154805 
L 151.597403 130.154805 
L 153.046753 128.908052 
L 154.496104 130.154805 
L 155.945455 130.154805 
L 157.394805 122.674286 
L 158.844156 127.661299 
L 160.293506 130.154805 
L 161.742857 115.817143 
L 163.192208 130.778182 
L 174.787013 130.778182 
L 176.236364 130.154805 
L 177.685714 130.778182 
L 187.831169 130.778182 
L 189.280519 128.908052 
L 190.72987 129.531429 
L 192.179221 130.778182 
L 193.628571 129.531429 
L 195.077922 127.661299 
L 196.527273 130.154805 
L 197.976623 130.154805 
L 199.425974 128.908052 
L 200.875325 120.804156 
L 202.324675 130.154805 
L 203.774026 130.778182 
L 205.223377 130.154805 
L 206.672727 127.037922 
L 208.122078 130.154805 
L 209.571429 129.531429 
L 211.020779 125.167792 
L 212.47013 128.908052 
L 213.919481 127.037922 
L 215.368831 130.154805 
L 216.818182 129.531429 
L 218.267532 130.154805 
L 219.716883 129.531429 
L 222.615584 129.531429 
L 224.064935 128.284675 
L 225.514286 130.778182 
L 226.963636 130.778182 
L 228.412987 128.284675 
L 229.862338 128.284675 
L 231.311688 125.167792 
L 232.761039 129.531429 
L 234.21039 127.661299 
L 235.65974 130.778182 
L 237.109091 125.791169 
L 238.558442 128.908052 
L 240.007792 129.531429 
L 241.457143 128.908052 
L 242.906494 126.414545 
L 244.355844 130.154805 
L 245.805195 128.284675 
L 247.254545 121.427532 
L 248.703896 126.414545 
L 250.153247 120.804156 
L 251.602597 87.141818 
L 253.051948 127.661299 
L 254.501299 130.778182 
L 255.950649 128.908052 
L 257.4 123.297662 
L 258.849351 124.544416 
L 260.298701 127.661299 
L 261.748052 119.557403 
L 263.197403 128.908052 
L 264.646753 128.908052 
L 266.096104 130.154805 
L 267.545455 122.674286 
L 268.994805 124.544416 
L 270.444156 130.778182 
L 271.893506 129.531429 
L 273.342857 130.778182 
L 274.792208 128.284675 
L 276.241558 100.232727 
L 277.690909 118.310649 
L 279.14026 121.427532 
L 280.58961 127.661299 
L 282.038961 130.778182 
L 283.488312 126.414545 
L 284.937662 128.908052 
L 286.387013 122.050909 
L 287.836364 128.908052 
L 289.285714 123.297662 
L 290.735065 115.817143 
L 292.184416 122.674286 
L 293.633766 127.661299 
L 295.083117 115.193766 
L 296.532468 115.193766 
L 297.981818 116.440519 
L 299.431169 92.128831 
L 300.880519 107.08987 
L 302.32987 107.08987 
L 303.779221 119.557403 
L 305.228571 110.206753 
L 306.677922 118.934026 
L 308.127273 129.531429 
L 309.576623 130.154805 
L 311.025974 116.440519 
L 312.475325 114.57039 
L 313.924675 115.817143 
L 315.374026 111.453506 
L 316.823377 105.843117 
L 318.272727 128.284675 
L 319.722078 130.154805 
L 321.171429 116.440519 
L 322.620779 117.687273 
L 324.07013 100.232727 
L 325.519481 115.817143 
L 326.968831 116.440519 
L 328.418182 130.154805 
L 329.867532 128.908052 
L 331.316883 114.57039 
L 332.766234 102.102857 
L 334.215584 117.063896 
L 335.664935 113.323636 
L 337.114286 95.245714 
L 338.563636 117.063896 
L 340.012987 130.154805 
L 341.462338 114.57039 
L 342.911688 105.843117 
L 344.361039 102.726234 
L 345.81039 108.96 
L 347.25974 111.453506 
L 348.709091 129.531429 
L 350.158442 115.193766 
L 351.607792 108.336623 
L 353.057143 115.817143 
L 354.506494 115.193766 
L 355.955844 113.947013 
L 357.405195 125.791169 
L 358.854545 115.817143 
L 360.303896 113.323636 
L 361.753247 115.817143 
L 363.202597 116.440519 
L 364.651948 116.440519 
L 366.101299 130.778182 
L 367.550649 130.778182 
L 369 115.193766 
L 370.449351 112.076883 
L 371.898701 115.193766 
L 373.348052 102.726234 
L 374.797403 105.843117 
L 376.246753 130.778182 
L 377.696104 115.817143 
L 379.145455 113.947013 
L 380.594805 113.323636 
L 382.044156 112.076883 
L 383.493506 117.063896 
L 384.942857 130.154805 
L 386.392208 114.57039 
L 387.841558 110.83013 
L 389.290909 105.21974 
L 390.74026 104.596364 
L 392.18961 39.141818 
L 395.088312 130.778182 
L 396.537662 118.310649 
L 397.987013 117.063896 
L 399.436364 124.544416 
L 400.885714 130.778182 
L 402.335065 130.154805 
L 403.784416 123.297662 
L 405.233766 125.167792 
L 406.683117 130.154805 
L 408.132468 128.908052 
L 409.581818 130.154805 
L 411.031169 130.778182 
L 412.480519 130.778182 
L 413.92987 130.154805 
L 415.379221 130.778182 
L 416.828571 128.908052 
L 418.277922 129.531429 
L 419.727273 130.778182 
L 424.075325 130.778182 
L 425.524675 128.284675 
L 426.974026 130.154805 
L 428.423377 130.778182 
L 429.872727 130.154805 
L 431.322078 127.037922 
L 432.771429 130.778182 
L 434.220779 117.063896 
L 435.67013 129.531429 
L 437.119481 130.778182 
L 440.018182 129.531429 
L 441.467532 130.778182 
L 442.916883 130.154805 
L 444.366234 130.778182 
L 445.815584 128.908052 
L 447.264935 130.154805 
L 448.714286 129.531429 
L 450.163636 130.778182 
L 453.062338 130.778182 
L 455.961039 129.531429 
L 457.41039 127.037922 
L 458.85974 130.154805 
L 460.309091 130.154805 
L 461.758442 124.544416 
L 463.207792 122.050909 
L 464.657143 130.778182 
L 467.555844 130.778182 
L 470.454545 129.531429 
L 471.903896 130.154805 
L 473.353247 125.167792 
L 474.802597 113.323636 
L 476.251948 127.661299 
L 477.701299 110.206753 
L 479.150649 126.414545 
L 480.6 130.154805 
L 482.049351 130.778182 
L 484.948052 130.778182 
L 486.397403 130.154805 
L 487.846753 130.778182 
L 489.296104 130.778182 
L 490.745455 128.284675 
L 492.194805 98.362597 
L 493.644156 117.063896 
L 495.093506 129.531429 
L 496.542857 122.674286 
L 497.992208 98.985974 
L 499.441558 96.492468 
L 500.890909 90.882078 
L 502.34026 103.972987 
L 503.78961 120.804156 
L 505.238961 122.674286 
L 506.688312 130.778182 
L 508.137662 125.791169 
L 509.587013 130.778182 
L 511.036364 130.778182 
L 512.485714 122.050909 
L 513.935065 129.531429 
L 515.384416 97.739221 
L 516.833766 122.674286 
L 518.283117 95.869091 
L 519.732468 123.297662 
L 521.181818 128.284675 
L 522.631169 121.427532 
L 524.080519 93.998961 
L 525.52987 120.804156 
L 526.979221 122.674286 
L 528.428571 129.531429 
L 529.877922 130.778182 
L 531.327273 130.778182 
L 532.776623 129.531429 
L 534.225974 126.414545 
L 535.675325 123.921039 
L 537.124675 122.674286 
L 538.574026 130.778182 
L 540.023377 130.778182 
L 541.472727 120.180779 
L 542.922078 115.817143 
L 544.371429 130.778182 
L 545.820779 129.531429 
L 547.27013 130.778182 
L 548.719481 125.167792 
L 550.168831 129.531429 
L 551.618182 130.778182 
L 553.067532 130.154805 
L 554.516883 128.908052 
L 555.966234 128.908052 
L 557.415584 106.466494 
L 558.864935 128.908052 
L 560.314286 128.908052 
L 561.763636 120.804156 
L 563.212987 105.21974 
L 564.662338 123.297662 
L 566.111688 123.297662 
L 567.561039 129.531429 
L 569.01039 120.804156 
L 570.45974 120.180779 
L 571.909091 103.34961 
L 573.358442 63.453506 
L 574.807792 123.297662 
L 576.257143 113.323636 
L 577.706494 130.778182 
L 579.155844 104.596364 
L 580.605195 99.609351 
L 582.054545 127.037922 
L 583.503896 117.063896 
L 584.953247 130.778182 
L 587.851948 130.778182 
L 589.301299 100.856104 
L 590.750649 98.985974 
L 592.2 130.154805 
L 593.649351 120.804156 
L 595.098701 130.778182 
L 596.548052 130.778182 
L 597.997403 129.531429 
L 599.446753 130.778182 
L 600.896104 130.154805 
L 602.345455 128.908052 
L 603.794805 130.778182 
L 605.244156 122.674286 
L 606.693506 122.050909 
L 608.142857 117.063896 
L 609.592208 93.998961 
L 611.041558 124.544416 
L 612.490909 130.154805 
L 613.94026 115.193766 
L 615.38961 130.154805 
L 616.838961 125.791169 
L 618.288312 120.180779 
L 619.737662 122.674286 
L 621.187013 127.661299 
L 622.636364 130.154805 
L 622.636364 130.154805 
" clip-path="url(#p28b5520c8a)" style="fill: none; stroke: #1f77b4; stroke-width: 1.5; stroke-linecap: square"/>
   </g>
   <g id="line2d_14">
    <path d="M 115.363636 127.661299 
L 116.812987 128.284675 
L 118.262338 130.778182 
L 119.711688 130.778182 
L 121.161039 129.531429 
L 122.61039 129.531429 
L 124.05974 130.154805 
L 125.509091 128.284675 
L 126.958442 130.778182 
L 128.407792 130.778182 
L 129.857143 124.544416 
L 131.306494 129.531429 
L 132.755844 130.778182 
L 134.205195 128.908052 
L 135.654545 128.908052 
L 137.103896 129.531429 
L 138.553247 130.778182 
L 140.002597 129.531429 
L 141.451948 128.908052 
L 142.901299 130.154805 
L 144.350649 130.778182 
L 145.8 130.154805 
L 147.249351 130.778182 
L 148.698701 129.531429 
L 151.597403 130.778182 
L 153.046753 130.154805 
L 154.496104 130.778182 
L 155.945455 130.154805 
L 157.394805 125.791169 
L 158.844156 127.661299 
L 160.293506 130.154805 
L 161.742857 125.167792 
L 163.192208 130.778182 
L 174.787013 130.778182 
L 176.236364 130.154805 
L 177.685714 130.778182 
L 187.831169 130.778182 
L 189.280519 129.531429 
L 190.72987 130.778182 
L 192.179221 130.778182 
L 195.077922 129.531429 
L 196.527273 130.778182 
L 199.425974 130.778182 
L 200.875325 124.544416 
L 202.324675 130.778182 
L 203.774026 130.778182 
L 205.223377 130.154805 
L 206.672727 128.908052 
L 208.122078 130.154805 
L 209.571429 129.531429 
L 211.020779 127.037922 
L 212.47013 129.531429 
L 213.919481 130.778182 
L 215.368831 130.154805 
L 216.818182 130.778182 
L 218.267532 130.154805 
L 219.716883 130.778182 
L 221.166234 129.531429 
L 224.064935 129.531429 
L 225.514286 130.778182 
L 226.963636 130.778182 
L 231.311688 127.037922 
L 232.761039 129.531429 
L 234.21039 128.284675 
L 235.65974 130.778182 
L 237.109091 127.037922 
L 238.558442 128.908052 
L 240.007792 129.531429 
L 241.457143 128.908052 
L 242.906494 126.414545 
L 244.355844 130.154805 
L 245.805195 128.284675 
L 247.254545 124.544416 
L 248.703896 127.037922 
L 250.153247 123.297662 
L 251.602597 108.96 
L 253.051948 127.661299 
L 254.501299 130.778182 
L 255.950649 129.531429 
L 257.4 123.921039 
L 260.298701 127.661299 
L 261.748052 122.050909 
L 263.197403 128.908052 
L 264.646753 128.908052 
L 266.096104 130.154805 
L 267.545455 124.544416 
L 268.994805 124.544416 
L 270.444156 130.778182 
L 271.893506 129.531429 
L 273.342857 130.778182 
L 274.792208 128.908052 
L 276.241558 116.440519 
L 277.690909 122.674286 
L 279.14026 124.544416 
L 280.58961 128.284675 
L 282.038961 130.778182 
L 283.488312 127.661299 
L 284.937662 130.154805 
L 286.387013 123.921039 
L 287.836364 129.531429 
L 289.285714 123.921039 
L 290.735065 120.180779 
L 292.184416 123.297662 
L 293.633766 128.284675 
L 295.083117 120.804156 
L 296.532468 125.167792 
L 297.981818 130.154805 
L 299.431169 121.427532 
L 300.880519 128.908052 
L 302.32987 125.791169 
L 303.779221 121.427532 
L 305.228571 125.167792 
L 306.677922 130.778182 
L 308.127273 130.154805 
L 309.576623 130.154805 
L 311.025974 130.778182 
L 312.475325 128.908052 
L 313.924675 129.531429 
L 316.823377 120.804156 
L 318.272727 128.284675 
L 319.722078 130.154805 
L 321.171429 130.778182 
L 322.620779 128.908052 
L 324.07013 117.687273 
L 325.519481 130.778182 
L 326.968831 129.531429 
L 328.418182 130.154805 
L 331.316883 130.154805 
L 332.766234 118.934026 
L 334.215584 128.908052 
L 335.664935 127.037922 
L 337.114286 115.817143 
L 338.563636 120.180779 
L 340.012987 130.154805 
L 341.462338 130.778182 
L 342.911688 125.791169 
L 344.361039 129.531429 
L 345.81039 128.908052 
L 347.25974 130.154805 
L 348.709091 130.154805 
L 350.158442 130.778182 
L 351.607792 123.921039 
L 353.057143 130.778182 
L 354.506494 130.154805 
L 355.955844 128.908052 
L 357.405195 127.037922 
L 358.854545 130.778182 
L 360.303896 128.908052 
L 361.753247 130.778182 
L 363.202597 129.531429 
L 364.651948 129.531429 
L 366.101299 130.778182 
L 369 130.778182 
L 370.449351 127.661299 
L 371.898701 130.778182 
L 373.348052 128.908052 
L 374.797403 125.791169 
L 376.246753 130.778182 
L 377.696104 130.778182 
L 379.145455 130.154805 
L 380.594805 128.908052 
L 384.942857 130.778182 
L 386.392208 130.154805 
L 387.841558 126.414545 
L 389.290909 126.414545 
L 390.74026 127.661299 
L 392.18961 130.778182 
L 393.638961 121.427532 
L 395.088312 130.778182 
L 396.537662 130.154805 
L 397.987013 126.414545 
L 399.436364 125.791169 
L 400.885714 130.778182 
L 402.335065 130.154805 
L 403.784416 123.297662 
L 405.233766 126.414545 
L 406.683117 130.154805 
L 408.132468 128.908052 
L 409.581818 130.778182 
L 412.480519 130.778182 
L 413.92987 130.154805 
L 415.379221 130.778182 
L 416.828571 128.908052 
L 418.277922 129.531429 
L 419.727273 130.778182 
L 424.075325 130.778182 
L 425.524675 128.284675 
L 426.974026 130.154805 
L 428.423377 130.778182 
L 429.872727 130.154805 
L 431.322078 127.661299 
L 432.771429 130.778182 
L 434.220779 130.778182 
L 435.67013 129.531429 
L 437.119481 130.778182 
L 440.018182 129.531429 
L 441.467532 130.778182 
L 442.916883 130.154805 
L 444.366234 130.778182 
L 445.815584 128.908052 
L 447.264935 130.154805 
L 448.714286 129.531429 
L 450.163636 130.778182 
L 453.062338 130.778182 
L 455.961039 129.531429 
L 457.41039 127.037922 
L 458.85974 130.154805 
L 460.309091 130.778182 
L 461.758442 124.544416 
L 463.207792 123.921039 
L 464.657143 130.778182 
L 467.555844 130.778182 
L 470.454545 129.531429 
L 471.903896 130.778182 
L 473.353247 125.791169 
L 474.802597 122.050909 
L 476.251948 130.154805 
L 477.701299 121.427532 
L 479.150649 127.661299 
L 480.6 130.778182 
L 484.948052 130.778182 
L 486.397403 130.154805 
L 487.846753 130.778182 
L 489.296104 130.778182 
L 490.745455 128.284675 
L 492.194805 114.57039 
L 493.644156 119.557403 
L 495.093506 129.531429 
L 496.542857 123.921039 
L 497.992208 114.57039 
L 499.441558 112.076883 
L 500.890909 112.076883 
L 502.34026 119.557403 
L 503.78961 121.427532 
L 505.238961 124.544416 
L 506.688312 130.778182 
L 508.137662 126.414545 
L 509.587013 130.778182 
L 511.036364 130.778182 
L 512.485714 123.297662 
L 513.935065 129.531429 
L 515.384416 122.674286 
L 516.833766 128.284675 
L 518.283117 126.414545 
L 519.732468 130.154805 
L 521.181818 130.778182 
L 522.631169 128.284675 
L 524.080519 121.427532 
L 525.52987 125.791169 
L 526.979221 126.414545 
L 528.428571 130.154805 
L 529.877922 130.778182 
L 531.327273 130.778182 
L 532.776623 129.531429 
L 534.225974 128.908052 
L 535.675325 127.037922 
L 537.124675 127.037922 
L 538.574026 130.778182 
L 540.023377 130.778182 
L 541.472727 125.167792 
L 542.922078 123.921039 
L 544.371429 130.778182 
L 545.820779 129.531429 
L 547.27013 130.778182 
L 548.719481 127.661299 
L 550.168831 129.531429 
L 551.618182 130.778182 
L 553.067532 130.154805 
L 554.516883 128.908052 
L 555.966234 128.908052 
L 557.415584 122.050909 
L 558.864935 128.908052 
L 560.314286 129.531429 
L 561.763636 126.414545 
L 563.212987 120.180779 
L 564.662338 126.414545 
L 566.111688 127.037922 
L 567.561039 130.154805 
L 569.01039 127.037922 
L 570.45974 126.414545 
L 573.358442 112.70026 
L 574.807792 127.661299 
L 576.257143 123.921039 
L 577.706494 130.778182 
L 579.155844 120.804156 
L 580.605195 117.063896 
L 582.054545 128.284675 
L 583.503896 123.921039 
L 584.953247 130.778182 
L 587.851948 130.778182 
L 589.301299 120.180779 
L 590.750649 116.440519 
L 592.2 130.154805 
L 593.649351 125.791169 
L 595.098701 130.778182 
L 596.548052 130.778182 
L 597.997403 130.154805 
L 599.446753 130.778182 
L 600.896104 130.778182 
L 602.345455 130.154805 
L 603.794805 130.778182 
L 605.244156 126.414545 
L 606.693506 126.414545 
L 608.142857 124.544416 
L 609.592208 117.063896 
L 611.041558 127.661299 
L 612.490909 130.778182 
L 613.94026 122.674286 
L 615.38961 130.154805 
L 618.288312 126.414545 
L 619.737662 127.661299 
L 621.187013 128.284675 
L 622.636364 130.778182 
L 622.636364 130.778182 
" clip-path="url(#p28b5520c8a)" style="fill: none; stroke: #ff7f0e; stroke-width: 1.5; stroke-linecap: square"/>
   </g>
   <g id="patch_3">
    <path d="M 90 135.36 
L 90 34.56 
" style="fill: none; stroke: #000000; stroke-width: 0.8; stroke-linejoin: miter; stroke-linecap: square"/>
   </g>
   <g id="patch_4">
    <path d="M 648 135.36 
L 648 34.56 
" style="fill: none; stroke: #000000; stroke-width: 0.8; stroke-linejoin: miter; stroke-linecap: square"/>
   </g>
   <g id="patch_5">
    <path d="M 90 135.36 
L 648 135.36 
" style="fill: none; stroke: #000000; stroke-width: 0.8; stroke-linejoin: miter; stroke-linecap: square"/>
   </g>
   <g id="patch_6">
    <path d="M 90 34.56 
L 648 34.56 
" style="fill: none; stroke: #000000; stroke-width: 0.8; stroke-linejoin: miter; stroke-linecap: square"/>
   </g>
   <g id="legend_1">
    <g id="patch_7">
     <path d="M 97 71.91625 
L 238.8625 71.91625 
Q 240.8625 71.91625 240.8625 69.91625 
L 240.8625 41.56 
Q 240.8625 39.56 238.8625 39.56 
L 97 39.56 
Q 95 39.56 95 41.56 
L 95 69.91625 
Q 95 71.91625 97 71.91625 
z
" style="fill: #ffffff; opacity: 0.8; stroke: #cccccc; stroke-linejoin: miter"/>
    </g>
    <g id="line2d_15">
     <path d="M 99 47.658437 
L 109 47.658437 
L 119 47.658437 
" style="fill: none; stroke: #1f77b4; stroke-width: 1.5; stroke-linecap: square"/>
    </g>
    <g id="text_14">
     <!-- Total GitHub Clones -->
     <g transform="translate(127 51.158437)scale(0.1 -0.1)">
      <defs>
       <path id="DejaVuSans-54" d="M -19 4666 
L 3928 4666 
L 3928 4134 
L 2272 4134 
L 2272 0 
L 1638 0 
L 1638 4134 
L -19 4134 
L -19 4666 
z
" transform="scale(0.015625)"/>
       <path id="DejaVuSans-6f" d="M 1959 3097 
Q 1497 3097 1228 2736 
Q 959 2375 959 1747 
Q 959 1119 1226 758 
Q 1494 397 1959 397 
Q 2419 397 2687 759 
Q 2956 1122 2956 1747 
Q 2956 2369 2687 2733 
Q 2419 3097 1959 3097 
z
M 1959 3584 
Q 2709 3584 3137 3096 
Q 3566 2609 3566 1747 
Q 3566 888 3137 398 
Q 2709 -91 1959 -91 
Q 1206 -91 779 398 
Q 353 888 353 1747 
Q 353 2609 779 3096 
Q 1206 3584 1959 3584 
z
" transform="scale(0.015625)"/>
       <path id="DejaVuSans-6c" d="M 603 4863 
L 1178 4863 
L 1178 0 
L 603 0 
L 603 4863 
z
" transform="scale(0.015625)"/>
       <path id="DejaVuSans-20" transform="scale(0.015625)"/>
       <path id="DejaVuSans-47" d="M 3809 666 
L 3809 1919 
L 2778 1919 
L 2778 2438 
L 4434 2438 
L 4434 434 
Q 4069 175 3628 42 
Q 3188 -91 2688 -91 
Q 1594 -91 976 548 
Q 359 1188 359 2328 
Q 359 3472 976 4111 
Q 1594 4750 2688 4750 
Q 3144 4750 3555 4637 
Q 3966 4525 4313 4306 
L 4313 3634 
Q 3963 3931 3569 4081 
Q 3175 4231 2741 4231 
Q 1884 4231 1454 3753 
Q 1025 3275 1025 2328 
Q 1025 1384 1454 906 
Q 1884 428 2741 428 
Q 3075 428 3337 486 
Q 3600 544 3809 666 
z
" transform="scale(0.015625)"/>
       <path id="DejaVuSans-69" d="M 603 3500 
L 1178 3500 
L 1178 0 
L 603 0 
L 603 3500 
z
M 603 4863 
L 1178 4863 
L 1178 4134 
L 603 4134 
L 603 4863 
z
" transform="scale(0.015625)"/>
       <path id="DejaVuSans-48" d="M 628 4666 
L 1259 4666 
L 1259 2753 
L 3553 2753 
L 3553 4666 
L 4184 4666 
L 4184 0 
L 3553 0 
L 3553 2222 
L 1259 2222 
L 1259 0 
L 628 0 
L 628 4666 
z
" transform="scale(0.015625)"/>
       <path id="DejaVuSans-75" d="M 544 1381 
L 544 3500 
L 1119 3500 
L 1119 1403 
Q 1119 906 1312 657 
Q 1506 409 1894 409 
Q 2359 409 2629 706 
Q 2900 1003 2900 1516 
L 2900 3500 
L 3475 3500 
L 3475 0 
L 2900 0 
L 2900 538 
Q 2691 219 2414 64 
Q 2138 -91 1772 -91 
Q 1169 -91 856 284 
Q 544 659 544 1381 
z
M 1991 3584 
L 1991 3584 
z
" transform="scale(0.015625)"/>
       <path id="DejaVuSans-62" d="M 3116 1747 
Q 3116 2381 2855 2742 
Q 2594 3103 2138 3103 
Q 1681 3103 1420 2742 
Q 1159 2381 1159 1747 
Q 1159 1113 1420 752 
Q 1681 391 2138 391 
Q 2594 391 2855 752 
Q 3116 1113 3116 1747 
z
M 1159 2969 
Q 1341 3281 1617 3432 
Q 1894 3584 2278 3584 
Q 2916 3584 3314 3078 
Q 3713 2572 3713 1747 
Q 3713 922 3314 415 
Q 2916 -91 2278 -91 
Q 1894 -91 1617 61 
Q 1341 213 1159 525 
L 1159 0 
L 581 0 
L 581 4863 
L 1159 4863 
L 1159 2969 
z
" transform="scale(0.015625)"/>
       <path id="DejaVuSans-43" d="M 4122 4306 
L 4122 3641 
Q 3803 3938 3442 4084 
Q 3081 4231 2675 4231 
Q 1875 4231 1450 3742 
Q 1025 3253 1025 2328 
Q 1025 1406 1450 917 
Q 1875 428 2675 428 
Q 3081 428 3442 575 
Q 3803 722 4122 1019 
L 4122 359 
Q 3791 134 3420 21 
Q 3050 -91 2638 -91 
Q 1578 -91 968 557 
Q 359 1206 359 2328 
Q 359 3453 968 4101 
Q 1578 4750 2638 4750 
Q 3056 4750 3426 4639 
Q 3797 4528 4122 4306 
z
" transform="scale(0.015625)"/>
       <path id="DejaVuSans-6e" d="M 3513 2113 
L 3513 0 
L 2938 0 
L 2938 2094 
Q 2938 2591 2744 2837 
Q 2550 3084 2163 3084 
Q 1697 3084 1428 2787 
Q 1159 2491 1159 1978 
L 1159 0 
L 581 0 
L 581 3500 
L 1159 3500 
L 1159 2956 
Q 1366 3272 1645 3428 
Q 1925 3584 2291 3584 
Q 2894 3584 3203 3211 
Q 3513 2838 3513 2113 
z
" transform="scale(0.015625)"/>
       <path id="DejaVuSans-73" d="M 2834 3397 
L 2834 2853 
Q 2591 2978 2328 3040 
Q 2066 3103 1784 3103 
Q 1356 3103 1142 2972 
Q 928 2841 928 2578 
Q 928 2378 1081 2264 
Q 1234 2150 1697 2047 
L 1894 2003 
Q 2506 1872 2764 1633 
Q 3022 1394 3022 966 
Q 3022 478 2636 193 
Q 2250 -91 1575 -91 
Q 1294 -91 989 -36 
Q 684 19 347 128 
L 347 722 
Q 666 556 975 473 
Q 1284 391 1588 391 
Q 1994 391 2212 530 
Q 2431 669 2431 922 
Q 2431 1156 2273 1281 
Q 2116 1406 1581 1522 
L 1381 1569 
Q 847 1681 609 1914 
Q 372 2147 372 2553 
Q 372 3047 722 3315 
Q 1072 3584 1716 3584 
Q 2034 3584 2315 3537 
Q 2597 3491 2834 3397 
z
" transform="scale(0.015625)"/>
      </defs>
      <use xlink:href="#DejaVuSans-54"/>
      <use xlink:href="#DejaVuSans-6f" x="44.083984"/>
      <use xlink:href="#DejaVuSans-74" x="105.265625"/>
      <use xlink:href="#DejaVuSans-61" x="144.474609"/>
      <use xlink:href="#DejaVuSans-6c" x="205.753906"/>
      <use xlink:href="#DejaVuSans-20" x="233.537109"/>
      <use xlink:href="#DejaVuSans-47" x="265.324219"/>
      <use xlink:href="#DejaVuSans-69" x="342.814453"/>
      <use xlink:href="#DejaVuSans-74" x="370.597656"/>
      <use xlink:href="#DejaVuSans-48" x="409.806641"/>
      <use xlink:href="#DejaVuSans-75" x="485.001953"/>
      <use xlink:href="#DejaVuSans-62" x="548.380859"/>
      <use xlink:href="#DejaVuSans-20" x="611.857422"/>
      <use xlink:href="#DejaVuSans-43" x="643.644531"/>
      <use xlink:href="#DejaVuSans-6c" x="713.46875"/>
      <use xlink:href="#DejaVuSans-6f" x="741.251953"/>
      <use xlink:href="#DejaVuSans-6e" x="802.433594"/>
      <use xlink:href="#DejaVuSans-65" x="865.8125"/>
      <use xlink:href="#DejaVuSans-73" x="927.335938"/>
     </g>
    </g>
    <g id="line2d_16">
     <path d="M 99 62.336562 
L 109 62.336562 
L 119 62.336562 
" style="fill: none; stroke: #ff7f0e; stroke-width: 1.5; stroke-linecap: square"/>
    </g>
    <g id="text_15">
     <!-- Unique GitHub Clones -->
     <g transform="translate(127 65.836562)scale(0.1 -0.1)">
      <defs>
       <path id="DejaVuSans-55" d="M 556 4666 
L 1191 4666 
L 1191 1831 
Q 1191 1081 1462 751 
Q 1734 422 2344 422 
Q 2950 422 3222 751 
Q 3494 1081 3494 1831 
L 3494 4666 
L 4128 4666 
L 4128 1753 
Q 4128 841 3676 375 
Q 3225 -91 2344 -91 
Q 1459 -91 1007 375 
Q 556 841 556 1753 
L 556 4666 
z
" transform="scale(0.015625)"/>
       <path id="DejaVuSans-71" d="M 947 1747 
Q 947 1113 1208 752 
Q 1469 391 1925 391 
Q 2381 391 2643 752 
Q 2906 1113 2906 1747 
Q 2906 2381 2643 2742 
Q 2381 3103 1925 3103 
Q 1469 3103 1208 2742 
Q 947 2381 947 1747 
z
M 2906 525 
Q 2725 213 2448 61 
Q 2172 -91 1784 -91 
Q 1150 -91 751 415 
Q 353 922 353 1747 
Q 353 2572 751 3078 
Q 1150 3584 1784 3584 
Q 2172 3584 2448 3432 
Q 2725 3281 2906 2969 
L 2906 3500 
L 3481 3500 
L 3481 -1331 
L 2906 -1331 
L 2906 525 
z
" transform="scale(0.015625)"/>
      </defs>
      <use xlink:href="#DejaVuSans-55"/>
      <use xlink:href="#DejaVuSans-6e" x="73.193359"/>
      <use xlink:href="#DejaVuSans-69" x="136.572266"/>
      <use xlink:href="#DejaVuSans-71" x="164.355469"/>
      <use xlink:href="#DejaVuSans-75" x="227.832031"/>
      <use xlink:href="#DejaVuSans-65" x="291.210938"/>
      <use xlink:href="#DejaVuSans-20" x="352.734375"/>
      <use xlink:href="#DejaVuSans-47" x="384.521484"/>
      <use xlink:href="#DejaVuSans-69" x="462.011719"/>
      <use xlink:href="#DejaVuSans-74" x="489.794922"/>
      <use xlink:href="#DejaVuSans-48" x="529.003906"/>
      <use xlink:href="#DejaVuSans-75" x="604.199219"/>
      <use xlink:href="#DejaVuSans-62" x="667.578125"/>
      <use xlink:href="#DejaVuSans-20" x="731.054688"/>
      <use xlink:href="#DejaVuSans-43" x="762.841797"/>
      <use xlink:href="#DejaVuSans-6c" x="832.666016"/>
      <use xlink:href="#DejaVuSans-6f" x="860.449219"/>
      <use xlink:href="#DejaVuSans-6e" x="921.630859"/>
      <use xlink:href="#DejaVuSans-65" x="985.009766"/>
      <use xlink:href="#DejaVuSans-73" x="1046.533203"/>
     </g>
    </g>
   </g>
  </g>
  <g id="axes_2">
   <g id="patch_8">
    <path d="M 90 256.32 
L 648 256.32 
L 648 155.52 
L 90 155.52 
z
" style="fill: #ffffff"/>
   </g>
   <g id="matplotlib.axis_3">
    <g id="xtick_9">
     <g id="line2d_17">
      <g>
       <use xlink:href="#md4b216cf7f" x="115.363636" y="256.32" style="stroke: #000000; stroke-width: 0.8"/>
      </g>
     </g>
     <g id="text_16">
      <!-- 2020-10-21 -->
      <g transform="translate(86.305824 270.918437)scale(0.1 -0.1)">
       <use xlink:href="#DejaVuSans-32"/>
       <use xlink:href="#DejaVuSans-30" x="63.623047"/>
       <use xlink:href="#DejaVuSans-32" x="127.246094"/>
       <use xlink:href="#DejaVuSans-30" x="190.869141"/>
       <use xlink:href="#DejaVuSans-2d" x="254.492188"/>
       <use xlink:href="#DejaVuSans-31" x="290.576172"/>
       <use xlink:href="#DejaVuSans-30" x="354.199219"/>
       <use xlink:href="#DejaVuSans-2d" x="417.822266"/>
       <use xlink:href="#DejaVuSans-32" x="453.90625"/>
       <use xlink:href="#DejaVuSans-31" x="517.529297"/>
      </g>
     </g>
    </g>
    <g id="xtick_10">
     <g id="line2d_18">
      <g>
       <use xlink:href="#md4b216cf7f" x="227.840959" y="256.32" style="stroke: #000000; stroke-width: 0.8"/>
      </g>
     </g>
     <g id="text_17">
      <!-- 2021-01-31 -->
      <g transform="translate(198.783147 270.918437)scale(0.1 -0.1)">
       <use xlink:href="#DejaVuSans-32"/>
       <use xlink:href="#DejaVuSans-30" x="63.623047"/>
       <use xlink:href="#DejaVuSans-32" x="127.246094"/>
       <use xlink:href="#DejaVuSans-31" x="190.869141"/>
       <use xlink:href="#DejaVuSans-2d" x="254.492188"/>
       <use xlink:href="#DejaVuSans-30" x="290.576172"/>
       <use xlink:href="#DejaVuSans-31" x="354.199219"/>
       <use xlink:href="#DejaVuSans-2d" x="417.822266"/>
       <use xlink:href="#DejaVuSans-33" x="453.90625"/>
       <use xlink:href="#DejaVuSans-31" x="517.529297"/>
      </g>
     </g>
    </g>
    <g id="xtick_11">
     <g id="line2d_19">
      <g>
       <use xlink:href="#md4b216cf7f" x="340.318283" y="256.32" style="stroke: #000000; stroke-width: 0.8"/>
      </g>
     </g>
     <g id="text_18">
      <!-- 2021-05-11 -->
      <g transform="translate(311.26047 270.918437)scale(0.1 -0.1)">
       <use xlink:href="#DejaVuSans-32"/>
       <use xlink:href="#DejaVuSans-30" x="63.623047"/>
       <use xlink:href="#DejaVuSans-32" x="127.246094"/>
       <use xlink:href="#DejaVuSans-31" x="190.869141"/>
       <use xlink:href="#DejaVuSans-2d" x="254.492188"/>
       <use xlink:href="#DejaVuSans-30" x="290.576172"/>
       <use xlink:href="#DejaVuSans-35" x="354.199219"/>
       <use xlink:href="#DejaVuSans-2d" x="417.822266"/>
       <use xlink:href="#DejaVuSans-31" x="453.90625"/>
       <use xlink:href="#DejaVuSans-31" x="517.529297"/>
      </g>
     </g>
    </g>
    <g id="xtick_12">
     <g id="line2d_20">
      <g>
       <use xlink:href="#md4b216cf7f" x="452.795606" y="256.32" style="stroke: #000000; stroke-width: 0.8"/>
      </g>
     </g>
     <g id="text_19">
      <!-- 2021-08-19 -->
      <g transform="translate(423.737793 270.918437)scale(0.1 -0.1)">
       <defs>
        <path id="DejaVuSans-38" d="M 2034 2216 
Q 1584 2216 1326 1975 
Q 1069 1734 1069 1313 
Q 1069 891 1326 650 
Q 1584 409 2034 409 
Q 2484 409 2743 651 
Q 3003 894 3003 1313 
Q 3003 1734 2745 1975 
Q 2488 2216 2034 2216 
z
M 1403 2484 
Q 997 2584 770 2862 
Q 544 3141 544 3541 
Q 544 4100 942 4425 
Q 1341 4750 2034 4750 
Q 2731 4750 3128 4425 
Q 3525 4100 3525 3541 
Q 3525 3141 3298 2862 
Q 3072 2584 2669 2484 
Q 3125 2378 3379 2068 
Q 3634 1759 3634 1313 
Q 3634 634 3220 271 
Q 2806 -91 2034 -91 
Q 1263 -91 848 271 
Q 434 634 434 1313 
Q 434 1759 690 2068 
Q 947 2378 1403 2484 
z
M 1172 3481 
Q 1172 3119 1398 2916 
Q 1625 2713 2034 2713 
Q 2441 2713 2670 2916 
Q 2900 3119 2900 3481 
Q 2900 3844 2670 4047 
Q 2441 4250 2034 4250 
Q 1625 4250 1398 4047 
Q 1172 3844 1172 3481 
z
" transform="scale(0.015625)"/>
       </defs>
       <use xlink:href="#DejaVuSans-32"/>
       <use xlink:href="#DejaVuSans-30" x="63.623047"/>
       <use xlink:href="#DejaVuSans-32" x="127.246094"/>
       <use xlink:href="#DejaVuSans-31" x="190.869141"/>
       <use xlink:href="#DejaVuSans-2d" x="254.492188"/>
       <use xlink:href="#DejaVuSans-30" x="290.576172"/>
       <use xlink:href="#DejaVuSans-38" x="354.199219"/>
       <use xlink:href="#DejaVuSans-2d" x="417.822266"/>
       <use xlink:href="#DejaVuSans-31" x="453.90625"/>
       <use xlink:href="#DejaVuSans-39" x="517.529297"/>
      </g>
     </g>
    </g>
    <g id="xtick_13">
     <g id="line2d_21">
      <g>
       <use xlink:href="#md4b216cf7f" x="565.272929" y="256.32" style="stroke: #000000; stroke-width: 0.8"/>
      </g>
     </g>
     <g id="text_20">
      <!-- 2021-11-27 -->
      <g transform="translate(536.215116 270.918437)scale(0.1 -0.1)">
       <use xlink:href="#DejaVuSans-32"/>
       <use xlink:href="#DejaVuSans-30" x="63.623047"/>
       <use xlink:href="#DejaVuSans-32" x="127.246094"/>
       <use xlink:href="#DejaVuSans-31" x="190.869141"/>
       <use xlink:href="#DejaVuSans-2d" x="254.492188"/>
       <use xlink:href="#DejaVuSans-31" x="290.576172"/>
       <use xlink:href="#DejaVuSans-31" x="354.199219"/>
       <use xlink:href="#DejaVuSans-2d" x="417.822266"/>
       <use xlink:href="#DejaVuSans-32" x="453.90625"/>
       <use xlink:href="#DejaVuSans-37" x="517.529297"/>
      </g>
     </g>
    </g>
    <g id="text_21">
     <!-- _date -->
     <g transform="translate(355.225 284.596563)scale(0.1 -0.1)">
      <use xlink:href="#DejaVuSans-5f"/>
      <use xlink:href="#DejaVuSans-64" x="50"/>
      <use xlink:href="#DejaVuSans-61" x="113.476562"/>
      <use xlink:href="#DejaVuSans-74" x="174.755859"/>
      <use xlink:href="#DejaVuSans-65" x="213.964844"/>
     </g>
    </g>
   </g>
   <g id="matplotlib.axis_4">
    <g id="ytick_5">
     <g id="line2d_22">
      <g>
       <use xlink:href="#mc69d3c67ab" x="90" y="252.02101" style="stroke: #000000; stroke-width: 0.8"/>
      </g>
     </g>
     <g id="text_22">
      <!-- 0 -->
      <g transform="translate(76.6375 255.820229)scale(0.1 -0.1)">
       <use xlink:href="#DejaVuSans-30"/>
      </g>
     </g>
    </g>
    <g id="ytick_6">
     <g id="line2d_23">
      <g>
       <use xlink:href="#mc69d3c67ab" x="90" y="223.738182" style="stroke: #000000; stroke-width: 0.8"/>
      </g>
     </g>
     <g id="text_23">
      <!-- 100 -->
      <g transform="translate(63.9125 227.537401)scale(0.1 -0.1)">
       <use xlink:href="#DejaVuSans-31"/>
       <use xlink:href="#DejaVuSans-30" x="63.623047"/>
       <use xlink:href="#DejaVuSans-30" x="127.246094"/>
      </g>
     </g>
    </g>
    <g id="ytick_7">
     <g id="line2d_24">
      <g>
       <use xlink:href="#mc69d3c67ab" x="90" y="195.455354" style="stroke: #000000; stroke-width: 0.8"/>
      </g>
     </g>
     <g id="text_24">
      <!-- 200 -->
      <g transform="translate(63.9125 199.254572)scale(0.1 -0.1)">
       <use xlink:href="#DejaVuSans-32"/>
       <use xlink:href="#DejaVuSans-30" x="63.623047"/>
       <use xlink:href="#DejaVuSans-30" x="127.246094"/>
      </g>
     </g>
    </g>
    <g id="ytick_8">
     <g id="line2d_25">
      <g>
       <use xlink:href="#mc69d3c67ab" x="90" y="167.172525" style="stroke: #000000; stroke-width: 0.8"/>
      </g>
     </g>
     <g id="text_25">
      <!-- 300 -->
      <g transform="translate(63.9125 170.971744)scale(0.1 -0.1)">
       <use xlink:href="#DejaVuSans-33"/>
       <use xlink:href="#DejaVuSans-30" x="63.623047"/>
       <use xlink:href="#DejaVuSans-30" x="127.246094"/>
      </g>
     </g>
    </g>
   </g>
   <g id="line2d_26">
    <path d="M 115.363636 251.738182 
L 116.48841 230.808889 
L 117.613183 228.263434 
L 118.737956 244.384646 
L 119.862729 251.455354 
L 120.987503 238.728081 
L 122.112276 238.445253 
L 123.237049 234.485657 
L 124.361822 238.445253 
L 125.486595 239.293737 
L 126.611369 250.606869 
L 127.736142 248.344242 
L 128.860915 247.495758 
L 129.985688 239.293737 
L 131.110462 211.576566 
L 132.235235 226.000808 
L 133.360008 243.81899 
L 134.484781 247.212929 
L 135.609555 251.172525 
L 136.734328 238.445253 
L 137.859101 224.303838 
L 138.983874 245.798788 
L 140.108647 243.253333 
L 141.233421 236.748283 
L 142.358194 236.748283 
L 143.482967 249.758384 
L 144.60774 237.031111 
L 145.732514 233.354343 
L 146.857287 243.536162 
L 147.98206 243.536162 
L 149.106833 238.728081 
L 150.231607 246.930101 
L 151.35638 249.192727 
L 152.481153 226.283636 
L 153.605926 248.909899 
L 154.730699 248.061414 
L 155.855473 249.758384 
L 156.980246 247.778586 
L 158.105019 251.455354 
L 159.229792 251.455354 
L 160.354566 227.980606 
L 161.479339 215.253333 
L 162.604112 243.81899 
L 163.728885 245.233131 
L 164.853659 226.566465 
L 165.978432 250.889697 
L 167.103205 244.950303 
L 168.227978 241.556364 
L 169.352751 246.081616 
L 170.477525 236.182626 
L 171.602298 246.930101 
L 172.727071 250.889697 
L 173.851844 251.738182 
L 174.976618 243.81899 
L 176.101391 242.12202 
L 177.226164 242.404848 
L 178.350937 240.990707 
L 179.475711 248.909899 
L 180.600484 250.889697 
L 181.725257 250.606869 
L 182.85003 247.212929 
L 183.974803 247.778586 
L 185.099577 242.687677 
L 186.22435 250.041212 
L 187.349123 251.172525 
L 188.473896 251.455354 
L 189.59867 248.344242 
L 190.723443 249.475556 
L 191.848216 250.32404 
L 192.972989 251.738182 
L 194.097763 247.212929 
L 195.222536 247.495758 
L 196.347309 250.889697 
L 197.472082 246.364444 
L 198.596855 242.687677 
L 199.721629 240.142222 
L 200.846402 247.778586 
L 201.971175 248.909899 
L 203.095948 232.505859 
L 204.220722 250.32404 
L 205.345495 234.202828 
L 206.470268 235.899798 
L 207.595041 240.142222 
L 208.719815 233.637172 
L 209.844588 246.930101 
L 210.969361 235.051313 
L 212.094134 251.172525 
L 213.218907 233.92 
L 214.343681 235.334141 
L 215.468454 226.849293 
L 216.593227 232.788687 
L 217.718 240.142222 
L 218.842774 242.970505 
L 219.967547 248.344242 
L 221.09232 229.111919 
L 222.217093 224.586667 
L 223.341867 236.465455 
L 224.46664 235.051313 
L 225.591413 232.505859 
L 226.716186 247.495758 
L 227.840959 248.627071 
L 228.965733 230.243232 
L 230.090506 246.930101 
L 232.340052 233.354343 
L 234.589599 250.889697 
L 235.714372 247.778586 
L 236.839145 235.61697 
L 237.963919 235.051313 
L 239.088692 225.435152 
L 240.213465 242.12202 
L 241.338238 250.32404 
L 242.463011 250.606869 
L 243.587785 249.192727 
L 244.712558 242.687677 
L 245.837331 242.970505 
L 246.962104 246.930101 
L 248.086878 231.091717 
L 249.211651 248.344242 
L 250.336424 242.12202 
L 251.461197 239.293737 
L 252.585971 240.990707 
L 253.710744 225.71798 
L 254.835517 235.899798 
L 255.96029 235.051313 
L 257.085063 240.142222 
L 258.209837 238.445253 
L 259.33461 239.576566 
L 260.459383 183.859394 
L 261.584156 245.798788 
L 262.70893 231.091717 
L 263.833703 234.768485 
L 264.958476 227.132121 
L 266.083249 241.839192 
L 267.208023 200.263434 
L 268.332796 198.566465 
L 269.457569 204.505859 
L 270.582342 229.394747 
L 271.707116 174.243232 
L 272.831889 223.738182 
L 273.956662 246.081616 
L 275.081435 245.233131 
L 276.206208 237.596768 
L 277.330982 231.374545 
L 278.455755 227.980606 
L 279.580528 234.768485 
L 280.705301 224.02101 
L 281.830075 243.81899 
L 282.954848 245.798788 
L 284.079621 205.637172 
L 285.204394 232.788687 
L 286.329168 234.485657 
L 287.453941 246.364444 
L 288.578714 248.627071 
L 289.703487 248.061414 
L 290.82826 233.071515 
L 291.953034 184.425051 
L 293.077807 229.960404 
L 294.20258 234.485657 
L 295.327353 214.404848 
L 296.452127 244.384646 
L 297.5769 248.344242 
L 298.701673 244.950303 
L 299.826446 222.041212 
L 300.95122 238.728081 
L 302.075993 223.455354 
L 303.200766 200.546263 
L 304.325539 233.92 
L 305.450312 241.273535 
L 306.575086 246.081616 
L 307.699859 176.505859 
L 308.824632 227.697778 
L 309.949405 243.536162 
L 311.074179 235.334141 
L 312.198952 236.748283 
L 313.323725 248.909899 
L 314.448498 246.930101 
L 315.573272 187.81899 
L 316.698045 181.031111 
L 317.822818 198.566465 
L 318.947591 242.970505 
L 320.072364 249.192727 
L 321.197138 236.748283 
L 322.321911 247.495758 
L 324.571457 224.586667 
L 325.696231 162.647273 
L 326.821004 222.32404 
L 327.945777 221.475556 
L 329.07055 226.283636 
L 330.195324 245.51596 
L 331.320097 246.364444 
L 332.44487 220.344242 
L 333.569643 236.182626 
L 334.694416 235.899798 
L 335.81919 226.566465 
L 336.943963 243.253333 
L 338.068736 249.192727 
L 339.193509 198.283636 
L 340.318283 237.313939 
L 341.443056 212.990707 
L 342.567829 206.768485 
L 343.692602 213.556364 
L 344.817376 249.758384 
L 345.942149 249.758384 
L 347.066922 222.606869 
L 348.191695 233.071515 
L 349.316468 232.505859 
L 350.441242 239.010909 
L 351.566015 242.687677 
L 352.690788 248.344242 
L 353.815561 246.081616 
L 354.940335 226.000808 
L 356.065108 244.101818 
L 357.189881 240.425051 
L 358.314654 232.22303 
L 359.439428 238.728081 
L 360.564201 249.758384 
L 361.688974 249.758384 
L 362.813747 242.970505 
L 363.93852 240.142222 
L 365.063294 246.364444 
L 366.188067 241.273535 
L 367.31284 243.536162 
L 368.437613 249.192727 
L 369.562387 247.495758 
L 370.68716 231.091717 
L 371.811933 236.465455 
L 372.936706 168.303838 
L 374.06148 213.839192 
L 375.186253 244.101818 
L 376.311026 242.12202 
L 377.435799 250.041212 
L 378.560572 232.22303 
L 379.685346 234.202828 
L 380.810119 241.839192 
L 381.934892 240.990707 
L 383.059665 235.61697 
L 384.184439 249.758384 
L 385.309212 250.32404 
L 386.433985 193.192727 
L 387.558758 239.293737 
L 388.683532 244.950303 
L 389.808305 247.212929 
L 390.933078 201.677576 
L 392.057851 247.212929 
L 393.182624 248.061414 
L 395.432171 241.839192 
L 396.556944 242.12202 
L 397.681717 224.02101 
L 398.806491 244.384646 
L 399.931264 249.758384 
L 401.056037 243.536162 
L 402.18081 245.233131 
L 403.305584 180.182626 
L 404.430357 197.435152 
L 405.55513 240.425051 
L 406.679903 242.404848 
L 407.804676 244.667475 
L 408.92945 244.101818 
L 410.054223 231.657374 
L 411.178996 242.12202 
L 412.303769 243.253333 
L 413.428543 222.32404 
L 414.553316 239.293737 
L 415.678089 250.32404 
L 416.802862 251.738182 
L 417.927636 244.667475 
L 419.052409 245.233131 
L 420.177182 246.647273 
L 421.301955 243.536162 
L 422.426728 246.081616 
L 423.551502 249.475556 
L 424.676275 251.172525 
L 425.801048 243.536162 
L 426.925821 243.253333 
L 428.050595 230.808889 
L 429.175368 229.111919 
L 430.300141 250.606869 
L 431.424914 246.081616 
L 432.549688 251.738182 
L 433.674461 239.010909 
L 434.799234 240.142222 
L 435.924007 242.687677 
L 437.04878 239.859394 
L 438.173554 248.344242 
L 439.298327 245.51596 
L 440.4231 250.041212 
L 441.547873 236.748283 
L 442.672647 238.728081 
L 443.79742 243.81899 
L 444.922193 240.707879 
L 446.046966 231.374545 
L 447.17174 241.839192 
L 448.296513 248.344242 
L 449.421286 232.505859 
L 450.546059 250.32404 
L 451.670832 245.798788 
L 452.795606 244.101818 
L 453.920379 251.172525 
L 455.045152 250.889697 
L 456.169925 244.667475 
L 457.294699 245.233131 
L 458.419472 232.22303 
L 459.544245 230.526061 
L 460.669018 248.909899 
L 461.793792 249.758384 
L 462.918565 250.32404 
L 464.043338 242.12202 
L 465.168111 242.404848 
L 466.292884 226.849293 
L 467.417658 235.61697 
L 468.542431 235.334141 
L 469.667204 244.950303 
L 470.791977 249.758384 
L 471.916751 245.51596 
L 473.041524 246.364444 
L 474.166297 249.758384 
L 475.29107 236.465455 
L 476.415844 247.495758 
L 477.540617 242.12202 
L 478.66539 224.586667 
L 479.790163 250.889697 
L 480.914937 248.061414 
L 482.03971 232.788687 
L 483.164483 214.970505 
L 484.289256 235.899798 
L 485.414029 248.061414 
L 486.538803 247.495758 
L 487.663576 250.32404 
L 488.788349 246.364444 
L 489.913122 231.091717 
L 491.037896 229.394747 
L 492.162669 219.778586 
L 493.287442 232.788687 
L 494.412215 248.344242 
L 495.536989 251.455354 
L 496.661762 248.344242 
L 497.786535 249.758384 
L 498.911308 239.293737 
L 500.036081 186.12202 
L 501.160855 228.263434 
L 502.285628 242.12202 
L 503.410401 240.425051 
L 504.535174 229.677576 
L 505.659948 229.677576 
L 506.784721 219.212929 
L 507.909494 195.455354 
L 509.034267 215.536162 
L 510.159041 246.081616 
L 511.283814 250.606869 
L 512.408587 223.172525 
L 513.53336 226.849293 
L 514.658133 210.445253 
L 515.782907 239.576566 
L 516.90768 235.334141 
L 518.032453 245.798788 
L 519.157226 248.061414 
L 520.282 213.556364 
L 521.406773 237.879596 
L 522.531546 249.475556 
L 523.656319 222.041212 
L 524.781093 160.101818 
L 525.905866 239.859394 
L 527.030639 235.051313 
L 528.155412 226.566465 
L 529.280185 227.697778 
L 530.404959 242.404848 
L 531.529732 231.374545 
L 532.654505 238.162424 
L 533.779278 246.647273 
L 534.904052 245.51596 
L 536.028825 235.051313 
L 537.153598 248.909899 
L 538.278371 242.970505 
L 539.403145 228.263434 
L 541.652691 250.889697 
L 542.777464 250.041212 
L 543.902237 244.667475 
L 545.027011 230.526061 
L 546.151784 240.142222 
L 547.276557 246.930101 
L 548.40133 247.778586 
L 549.526104 247.778586 
L 550.650877 248.627071 
L 551.77565 238.728081 
L 552.900423 234.768485 
L 554.025197 243.536162 
L 556.274743 236.748283 
L 557.399516 250.041212 
L 558.524289 249.758384 
L 559.649063 233.637172 
L 560.773836 231.940202 
L 561.898609 245.233131 
L 564.148156 250.889697 
L 565.272929 248.344242 
L 566.397702 247.495758 
L 567.522475 244.101818 
L 568.647249 227.414949 
L 569.772022 237.596768 
L 570.896795 238.162424 
L 572.021568 225.435152 
L 573.146341 249.758384 
L 574.271115 226.849293 
L 575.395888 228.546263 
L 576.520661 236.465455 
L 577.645434 200.263434 
L 578.770208 239.293737 
L 579.894981 220.344242 
L 581.019754 247.212929 
L 582.144527 248.061414 
L 583.269301 228.829091 
L 584.394074 206.202828 
L 585.518847 242.12202 
L 586.64362 233.637172 
L 587.768393 236.465455 
L 588.893167 242.970505 
L 590.01794 232.22303 
L 591.142713 248.909899 
L 592.267486 215.253333 
L 593.39226 242.404848 
L 594.517033 235.051313 
L 595.641806 239.293737 
L 596.766579 242.12202 
L 597.891353 242.404848 
L 599.016126 246.647273 
L 600.140899 248.909899 
L 601.265672 245.51596 
L 602.390445 248.627071 
L 603.515219 250.889697 
L 604.639992 249.475556 
L 605.764765 249.192727 
L 606.889538 246.647273 
L 608.014312 215.81899 
L 610.263858 241.556364 
L 611.388631 242.687677 
L 612.513405 249.758384 
L 613.638178 250.889697 
L 614.762951 251.738182 
L 615.887724 243.253333 
L 617.012497 235.899798 
L 618.137271 240.707879 
L 619.262044 217.798788 
L 620.386817 246.647273 
L 621.51159 245.798788 
L 622.636364 250.889697 
L 622.636364 250.889697 
" clip-path="url(#pdc68702a6a)" style="fill: none; stroke: #1f77b4; stroke-width: 1.5; stroke-linecap: square"/>
   </g>
   <g id="line2d_27">
    <path d="M 115.363636 251.738182 
L 116.48841 249.475556 
L 117.613183 248.344242 
L 118.737956 249.475556 
L 119.862729 251.738182 
L 120.987503 250.041212 
L 122.112276 249.192727 
L 123.237049 249.192727 
L 124.361822 248.909899 
L 125.486595 249.475556 
L 126.611369 251.455354 
L 131.110462 249.192727 
L 132.235235 248.909899 
L 133.360008 250.041212 
L 135.609555 251.738182 
L 136.734328 248.909899 
L 137.859101 249.475556 
L 138.983874 250.606869 
L 140.108647 250.889697 
L 141.233421 250.606869 
L 142.358194 251.455354 
L 143.482967 251.172525 
L 144.60774 250.041212 
L 145.732514 251.172525 
L 146.857287 248.909899 
L 147.98206 249.758384 
L 149.106833 250.32404 
L 150.231607 251.172525 
L 151.35638 251.172525 
L 152.481153 247.495758 
L 153.605926 251.455354 
L 154.730699 251.455354 
L 155.855473 251.172525 
L 158.105019 251.738182 
L 159.229792 251.455354 
L 160.354566 249.475556 
L 161.479339 246.930101 
L 162.604112 248.627071 
L 163.728885 250.041212 
L 164.853659 250.041212 
L 165.978432 251.455354 
L 167.103205 250.32404 
L 168.227978 250.041212 
L 169.352751 250.889697 
L 170.477525 247.778586 
L 171.602298 249.475556 
L 172.727071 251.455354 
L 173.851844 251.738182 
L 174.976618 249.192727 
L 177.226164 249.192727 
L 178.350937 250.041212 
L 179.475711 250.32404 
L 180.600484 251.172525 
L 181.725257 251.455354 
L 182.85003 250.889697 
L 183.974803 250.606869 
L 185.099577 251.172525 
L 187.349123 251.172525 
L 188.473896 251.455354 
L 189.59867 250.889697 
L 191.848216 250.889697 
L 192.972989 251.738182 
L 194.097763 251.172525 
L 195.222536 251.172525 
L 196.347309 250.889697 
L 197.472082 249.758384 
L 198.596855 248.061414 
L 199.721629 250.041212 
L 200.846402 251.172525 
L 201.971175 250.889697 
L 203.095948 250.889697 
L 204.220722 251.172525 
L 205.345495 249.475556 
L 206.470268 248.627071 
L 207.595041 249.758384 
L 208.719815 246.930101 
L 209.844588 249.758384 
L 210.969361 250.32404 
L 212.094134 251.172525 
L 213.218907 250.606869 
L 214.343681 250.606869 
L 215.468454 248.344242 
L 216.593227 249.475556 
L 217.718 249.192727 
L 218.842774 249.192727 
L 219.967547 250.32404 
L 221.09232 246.081616 
L 222.217093 247.778586 
L 223.341867 249.192727 
L 224.46664 247.495758 
L 225.591413 246.364444 
L 226.716186 250.889697 
L 227.840959 250.606869 
L 228.965733 248.627071 
L 230.090506 250.041212 
L 231.215279 248.061414 
L 232.340052 249.475556 
L 233.464826 249.475556 
L 234.589599 250.889697 
L 235.714372 251.172525 
L 236.839145 248.909899 
L 237.963919 248.061414 
L 239.088692 248.344242 
L 240.213465 250.889697 
L 241.338238 251.455354 
L 243.587785 250.889697 
L 244.712558 250.889697 
L 245.837331 249.475556 
L 246.962104 250.32404 
L 248.086878 248.909899 
L 249.211651 250.889697 
L 250.336424 250.32404 
L 251.461197 250.889697 
L 252.585971 249.192727 
L 253.710744 248.909899 
L 254.835517 248.909899 
L 255.96029 248.061414 
L 257.085063 250.32404 
L 258.209837 250.889697 
L 259.33461 250.889697 
L 260.459383 242.404848 
L 261.584156 248.909899 
L 262.70893 248.909899 
L 263.833703 247.495758 
L 264.958476 249.192727 
L 266.083249 250.606869 
L 267.208023 250.606869 
L 268.332796 246.364444 
L 269.457569 246.647273 
L 270.582342 248.344242 
L 271.707116 246.647273 
L 272.831889 247.495758 
L 273.956662 250.041212 
L 275.081435 250.889697 
L 276.206208 247.495758 
L 277.330982 246.081616 
L 278.455755 247.212929 
L 279.580528 247.495758 
L 280.705301 249.475556 
L 281.830075 251.172525 
L 282.954848 250.041212 
L 284.079621 247.778586 
L 285.204394 247.778586 
L 286.329168 248.627071 
L 287.453941 250.606869 
L 289.703487 251.172525 
L 290.82826 250.041212 
L 291.953034 246.364444 
L 293.077807 247.212929 
L 294.20258 248.627071 
L 295.327353 246.930101 
L 296.452127 249.758384 
L 297.5769 251.172525 
L 299.826446 249.475556 
L 300.95122 248.344242 
L 302.075993 248.627071 
L 303.200766 247.495758 
L 304.325539 249.192727 
L 305.450312 249.475556 
L 306.575086 250.889697 
L 307.699859 245.51596 
L 308.824632 248.061414 
L 309.949405 248.909899 
L 311.074179 249.192727 
L 312.198952 249.192727 
L 313.323725 250.889697 
L 314.448498 250.32404 
L 315.573272 245.798788 
L 316.698045 244.384646 
L 317.822818 246.930101 
L 318.947591 248.909899 
L 320.072364 250.32404 
L 321.197138 249.192727 
L 322.321911 250.32404 
L 323.446684 246.364444 
L 324.571457 246.647273 
L 325.696231 229.111919 
L 326.821004 248.061414 
L 327.945777 246.647273 
L 329.07055 250.606869 
L 330.195324 251.738182 
L 331.320097 249.758384 
L 332.44487 248.344242 
L 333.569643 248.344242 
L 334.694416 248.627071 
L 335.81919 247.778586 
L 338.068736 251.172525 
L 339.193509 249.192727 
L 340.318283 248.344242 
L 341.443056 246.930101 
L 342.567829 247.212929 
L 343.692602 245.798788 
L 344.817376 250.606869 
L 345.942149 251.738182 
L 347.066922 245.798788 
L 348.191695 247.212929 
L 349.316468 249.475556 
L 350.441242 247.495758 
L 351.566015 248.344242 
L 352.690788 251.455354 
L 353.815561 250.32404 
L 354.940335 248.344242 
L 356.065108 249.475556 
L 357.189881 248.061414 
L 358.314654 246.364444 
L 360.564201 250.889697 
L 361.688974 251.172525 
L 362.813747 249.192727 
L 363.93852 247.778586 
L 365.063294 250.041212 
L 366.188067 249.475556 
L 367.31284 249.475556 
L 369.562387 250.041212 
L 370.68716 246.930101 
L 371.811933 248.909899 
L 372.936706 248.909899 
L 374.06148 250.041212 
L 375.186253 249.192727 
L 376.311026 251.172525 
L 377.435799 250.32404 
L 378.560572 248.344242 
L 379.685346 249.192727 
L 380.810119 248.909899 
L 381.934892 248.344242 
L 383.059665 249.192727 
L 384.184439 251.172525 
L 385.309212 250.889697 
L 386.433985 247.495758 
L 387.558758 250.606869 
L 388.683532 249.758384 
L 389.808305 249.192727 
L 390.933078 245.798788 
L 392.057851 251.172525 
L 393.182624 250.606869 
L 394.307398 249.758384 
L 395.432171 250.32404 
L 396.556944 248.909899 
L 397.681717 248.061414 
L 398.806491 249.192727 
L 399.931264 250.889697 
L 401.056037 250.889697 
L 402.18081 249.475556 
L 403.305584 247.212929 
L 404.430357 247.212929 
L 405.55513 250.32404 
L 406.679903 248.627071 
L 407.804676 250.606869 
L 408.92945 249.475556 
L 410.054223 247.778586 
L 411.178996 248.627071 
L 412.303769 248.627071 
L 413.428543 247.778586 
L 414.553316 248.061414 
L 415.678089 251.172525 
L 416.802862 251.738182 
L 417.927636 250.041212 
L 419.052409 250.041212 
L 420.177182 250.32404 
L 421.301955 250.32404 
L 422.426728 250.606869 
L 424.676275 251.738182 
L 425.801048 250.32404 
L 426.925821 249.475556 
L 428.050595 249.758384 
L 429.175368 248.627071 
L 430.300141 251.172525 
L 431.424914 250.32404 
L 432.549688 251.738182 
L 433.674461 250.32404 
L 434.799234 250.32404 
L 435.924007 248.344242 
L 437.04878 247.778586 
L 438.173554 249.475556 
L 439.298327 250.606869 
L 440.4231 250.606869 
L 441.547873 248.627071 
L 442.672647 249.475556 
L 443.79742 249.758384 
L 444.922193 249.758384 
L 446.046966 248.909899 
L 447.17174 249.192727 
L 448.296513 250.606869 
L 449.421286 248.344242 
L 450.546059 251.455354 
L 451.670832 249.758384 
L 452.795606 249.758384 
L 453.920379 251.172525 
L 455.045152 250.889697 
L 456.169925 250.041212 
L 457.294699 250.041212 
L 458.419472 249.192727 
L 459.544245 249.475556 
L 460.669018 251.172525 
L 461.793792 250.889697 
L 462.918565 251.455354 
L 464.043338 250.32404 
L 465.168111 250.606869 
L 466.292884 250.041212 
L 467.417658 248.627071 
L 468.542431 249.192727 
L 469.667204 250.32404 
L 470.791977 250.889697 
L 471.916751 250.32404 
L 473.041524 251.455354 
L 474.166297 250.889697 
L 475.29107 249.192727 
L 476.415844 250.041212 
L 477.540617 251.172525 
L 478.66539 248.344242 
L 479.790163 251.455354 
L 480.914937 251.172525 
L 482.03971 248.061414 
L 484.289256 249.192727 
L 485.414029 250.32404 
L 486.538803 249.758384 
L 487.663576 251.172525 
L 488.788349 250.606869 
L 489.913122 247.778586 
L 491.037896 249.758384 
L 492.162669 249.192727 
L 493.287442 249.758384 
L 494.412215 249.758384 
L 495.536989 251.455354 
L 496.661762 251.455354 
L 497.786535 250.889697 
L 498.911308 248.344242 
L 501.160855 248.344242 
L 502.285628 249.758384 
L 503.410401 249.758384 
L 504.535174 248.909899 
L 505.659948 248.627071 
L 506.784721 247.212929 
L 507.909494 249.475556 
L 509.034267 247.495758 
L 510.159041 250.041212 
L 511.283814 251.172525 
L 512.408587 250.32404 
L 513.53336 249.758384 
L 514.658133 248.061414 
L 515.782907 248.344242 
L 516.90768 249.192727 
L 518.032453 249.758384 
L 519.157226 250.041212 
L 520.282 247.495758 
L 521.406773 248.344242 
L 522.531546 250.606869 
L 523.656319 249.475556 
L 525.905866 248.909899 
L 527.030639 249.475556 
L 528.155412 247.495758 
L 529.280185 250.041212 
L 530.404959 250.32404 
L 531.529732 248.344242 
L 532.654505 248.909899 
L 533.779278 250.889697 
L 534.904052 250.32404 
L 536.028825 249.475556 
L 537.153598 250.889697 
L 538.278371 249.192727 
L 539.403145 248.627071 
L 540.527918 248.909899 
L 541.652691 251.172525 
L 542.777464 251.172525 
L 543.902237 249.192727 
L 545.027011 250.32404 
L 546.151784 247.778586 
L 548.40133 250.041212 
L 549.526104 250.606869 
L 550.650877 250.041212 
L 551.77565 248.909899 
L 552.900423 247.212929 
L 554.025197 248.344242 
L 555.14997 247.778586 
L 556.274743 248.909899 
L 557.399516 250.606869 
L 558.524289 250.889697 
L 559.649063 249.192727 
L 560.773836 250.606869 
L 561.898609 249.758384 
L 563.023382 250.041212 
L 564.148156 251.455354 
L 565.272929 250.889697 
L 566.397702 250.889697 
L 567.522475 251.455354 
L 568.647249 249.475556 
L 569.772022 250.32404 
L 570.896795 248.909899 
L 572.021568 250.606869 
L 573.146341 251.172525 
L 574.271115 248.909899 
L 575.395888 250.041212 
L 576.520661 249.475556 
L 577.645434 249.475556 
L 578.770208 246.647273 
L 579.894981 246.364444 
L 581.019754 250.32404 
L 582.144527 250.32404 
L 583.269301 248.627071 
L 584.394074 248.627071 
L 585.518847 250.32404 
L 587.768393 249.192727 
L 588.893167 250.32404 
L 590.01794 250.606869 
L 591.142713 250.606869 
L 592.267486 248.061414 
L 593.39226 249.475556 
L 594.517033 249.758384 
L 595.641806 250.606869 
L 596.766579 250.889697 
L 597.891353 249.475556 
L 599.016126 251.738182 
L 600.140899 251.455354 
L 601.265672 250.889697 
L 602.390445 250.889697 
L 603.515219 251.172525 
L 604.639992 250.606869 
L 605.764765 251.172525 
L 606.889538 250.32404 
L 608.014312 244.384646 
L 609.139085 247.212929 
L 610.263858 249.192727 
L 613.638178 250.889697 
L 614.762951 251.738182 
L 615.887724 249.475556 
L 617.012497 249.475556 
L 618.137271 248.909899 
L 619.262044 245.798788 
L 620.386817 250.606869 
L 621.51159 251.738182 
L 622.636364 251.455354 
L 622.636364 251.455354 
" clip-path="url(#pdc68702a6a)" style="fill: none; stroke: #ff7f0e; stroke-width: 1.5; stroke-linecap: square"/>
   </g>
   <g id="patch_9">
    <path d="M 90 256.32 
L 90 155.52 
" style="fill: none; stroke: #000000; stroke-width: 0.8; stroke-linejoin: miter; stroke-linecap: square"/>
   </g>
   <g id="patch_10">
    <path d="M 648 256.32 
L 648 155.52 
" style="fill: none; stroke: #000000; stroke-width: 0.8; stroke-linejoin: miter; stroke-linecap: square"/>
   </g>
   <g id="patch_11">
    <path d="M 90 256.32 
L 648 256.32 
" style="fill: none; stroke: #000000; stroke-width: 0.8; stroke-linejoin: miter; stroke-linecap: square"/>
   </g>
   <g id="patch_12">
    <path d="M 90 155.52 
L 648 155.52 
" style="fill: none; stroke: #000000; stroke-width: 0.8; stroke-linejoin: miter; stroke-linecap: square"/>
   </g>
   <g id="legend_2">
    <g id="patch_13">
     <path d="M 97 192.87625 
L 234.217188 192.87625 
Q 236.217188 192.87625 236.217188 190.87625 
L 236.217188 162.52 
Q 236.217188 160.52 234.217188 160.52 
L 97 160.52 
Q 95 160.52 95 162.52 
L 95 190.87625 
Q 95 192.87625 97 192.87625 
z
" style="fill: #ffffff; opacity: 0.8; stroke: #cccccc; stroke-linejoin: miter"/>
    </g>
    <g id="line2d_28">
     <path d="M 99 168.618437 
L 109 168.618437 
L 119 168.618437 
" style="fill: none; stroke: #1f77b4; stroke-width: 1.5; stroke-linecap: square"/>
    </g>
    <g id="text_26">
     <!-- Total GitHub Views -->
     <g transform="translate(127 172.118437)scale(0.1 -0.1)">
      <defs>
       <path id="DejaVuSans-56" d="M 1831 0 
L 50 4666 
L 709 4666 
L 2188 738 
L 3669 4666 
L 4325 4666 
L 2547 0 
L 1831 0 
z
" transform="scale(0.015625)"/>
       <path id="DejaVuSans-77" d="M 269 3500 
L 844 3500 
L 1563 769 
L 2278 3500 
L 2956 3500 
L 3675 769 
L 4391 3500 
L 4966 3500 
L 4050 0 
L 3372 0 
L 2619 2869 
L 1863 0 
L 1184 0 
L 269 3500 
z
" transform="scale(0.015625)"/>
      </defs>
      <use xlink:href="#DejaVuSans-54"/>
      <use xlink:href="#DejaVuSans-6f" x="44.083984"/>
      <use xlink:href="#DejaVuSans-74" x="105.265625"/>
      <use xlink:href="#DejaVuSans-61" x="144.474609"/>
      <use xlink:href="#DejaVuSans-6c" x="205.753906"/>
      <use xlink:href="#DejaVuSans-20" x="233.537109"/>
      <use xlink:href="#DejaVuSans-47" x="265.324219"/>
      <use xlink:href="#DejaVuSans-69" x="342.814453"/>
      <use xlink:href="#DejaVuSans-74" x="370.597656"/>
      <use xlink:href="#DejaVuSans-48" x="409.806641"/>
      <use xlink:href="#DejaVuSans-75" x="485.001953"/>
      <use xlink:href="#DejaVuSans-62" x="548.380859"/>
      <use xlink:href="#DejaVuSans-20" x="611.857422"/>
      <use xlink:href="#DejaVuSans-56" x="643.644531"/>
      <use xlink:href="#DejaVuSans-69" x="709.802734"/>
      <use xlink:href="#DejaVuSans-65" x="737.585938"/>
      <use xlink:href="#DejaVuSans-77" x="799.109375"/>
      <use xlink:href="#DejaVuSans-73" x="880.896484"/>
     </g>
    </g>
    <g id="line2d_29">
     <path d="M 99 183.296562 
L 109 183.296562 
L 119 183.296562 
" style="fill: none; stroke: #ff7f0e; stroke-width: 1.5; stroke-linecap: square"/>
    </g>
    <g id="text_27">
     <!-- Unique GitHub Views -->
     <g transform="translate(127 186.796562)scale(0.1 -0.1)">
      <use xlink:href="#DejaVuSans-55"/>
      <use xlink:href="#DejaVuSans-6e" x="73.193359"/>
      <use xlink:href="#DejaVuSans-69" x="136.572266"/>
      <use xlink:href="#DejaVuSans-71" x="164.355469"/>
      <use xlink:href="#DejaVuSans-75" x="227.832031"/>
      <use xlink:href="#DejaVuSans-65" x="291.210938"/>
      <use xlink:href="#DejaVuSans-20" x="352.734375"/>
      <use xlink:href="#DejaVuSans-47" x="384.521484"/>
      <use xlink:href="#DejaVuSans-69" x="462.011719"/>
      <use xlink:href="#DejaVuSans-74" x="489.794922"/>
      <use xlink:href="#DejaVuSans-48" x="529.003906"/>
      <use xlink:href="#DejaVuSans-75" x="604.199219"/>
      <use xlink:href="#DejaVuSans-62" x="667.578125"/>
      <use xlink:href="#DejaVuSans-20" x="731.054688"/>
      <use xlink:href="#DejaVuSans-56" x="762.841797"/>
      <use xlink:href="#DejaVuSans-69" x="829"/>
      <use xlink:href="#DejaVuSans-65" x="856.783203"/>
      <use xlink:href="#DejaVuSans-77" x="918.306641"/>
      <use xlink:href="#DejaVuSans-73" x="1000.09375"/>
     </g>
    </g>
   </g>
  </g>
 </g>
 <defs>
  <clipPath id="p28b5520c8a">
   <rect x="90" y="34.56" width="558" height="100.8"/>
  </clipPath>
  <clipPath id="pdc68702a6a">
   <rect x="90" y="155.52" width="558" height="100.8"/>
  </clipPath>
 </defs>
</svg>
