<?xml version="1.0" encoding="utf-8" standalone="no"?>
<!DOCTYPE svg PUBLIC "-//W3C//DTD SVG 1.1//EN"
  "http://www.w3.org/Graphics/SVG/1.1/DTD/svg11.dtd">
<svg xmlns:xlink="http://www.w3.org/1999/xlink" width="720pt" height="288pt" viewBox="0 0 720 288" xmlns="http://www.w3.org/2000/svg" version="1.1">
 <metadata>
  <rdf:RDF xmlns:dc="http://purl.org/dc/elements/1.1/" xmlns:cc="http://creativecommons.org/ns#" xmlns:rdf="http://www.w3.org/1999/02/22-rdf-syntax-ns#">
   <cc:Work>
    <dc:type rdf:resource="http://purl.org/dc/dcmitype/StillImage"/>
    <dc:date>2022-07-18T00:51:45.350812</dc:date>
    <dc:format>image/svg+xml</dc:format>
    <dc:creator>
     <cc:Agent>
      <dc:title>Matplotlib v3.5.2, https://matplotlib.org/</dc:title>
     </cc:Agent>
    </dc:creator>
   </cc:Work>
  </rdf:RDF>
 </metadata>
 <defs>
  <style type="text/css">*{stroke-linejoin: round; stroke-linecap: butt}</style>
 </defs>
 <g id="figure_1">
  <g id="patch_1">
   <path d="M 0 288 
L 720 288 
L 720 0 
L 0 0 
z
" style="fill: #ffffff"/>
  </g>
  <g id="axes_1">
   <g id="patch_2">
    <path d="M 90 135.36 
L 648 135.36 
L 648 34.56 
L 90 34.56 
z
" style="fill: #ffffff"/>
   </g>
   <g id="matplotlib.axis_1">
    <g id="xtick_1">
     <g id="line2d_1">
      <defs>
       <path id="m7a9586ae6f" d="M 0 0 
L 0 3.5 
" style="stroke: #000000; stroke-width: 0.8"/>
      </defs>
      <g>
       <use xlink:href="#m7a9586ae6f" x="115.363636" y="135.36" style="stroke: #000000; stroke-width: 0.8"/>
      </g>
     </g>
     <g id="text_1">
      <!-- 2020-10-22 -->
      <g transform="translate(86.305824 149.958437)scale(0.1 -0.1)">
       <defs>
        <path id="DejaVuSans-32" d="M 1228 531 
L 3431 531 
L 3431 0 
L 469 0 
L 469 531 
Q 828 903 1448 1529 
Q 2069 2156 2228 2338 
Q 2531 2678 2651 2914 
Q 2772 3150 2772 3378 
Q 2772 3750 2511 3984 
Q 2250 4219 1831 4219 
Q 1534 4219 1204 4116 
Q 875 4013 500 3803 
L 500 4441 
Q 881 4594 1212 4672 
Q 1544 4750 1819 4750 
Q 2544 4750 2975 4387 
Q 3406 4025 3406 3419 
Q 3406 3131 3298 2873 
Q 3191 2616 2906 2266 
Q 2828 2175 2409 1742 
Q 1991 1309 1228 531 
z
" transform="scale(0.015625)"/>
        <path id="DejaVuSans-30" d="M 2034 4250 
Q 1547 4250 1301 3770 
Q 1056 3291 1056 2328 
Q 1056 1369 1301 889 
Q 1547 409 2034 409 
Q 2525 409 2770 889 
Q 3016 1369 3016 2328 
Q 3016 3291 2770 3770 
Q 2525 4250 2034 4250 
z
M 2034 4750 
Q 2819 4750 3233 4129 
Q 3647 3509 3647 2328 
Q 3647 1150 3233 529 
Q 2819 -91 2034 -91 
Q 1250 -91 836 529 
Q 422 1150 422 2328 
Q 422 3509 836 4129 
Q 1250 4750 2034 4750 
z
" transform="scale(0.015625)"/>
        <path id="DejaVuSans-2d" d="M 313 2009 
L 1997 2009 
L 1997 1497 
L 313 1497 
L 313 2009 
z
" transform="scale(0.015625)"/>
        <path id="DejaVuSans-31" d="M 794 531 
L 1825 531 
L 1825 4091 
L 703 3866 
L 703 4441 
L 1819 4666 
L 2450 4666 
L 2450 531 
L 3481 531 
L 3481 0 
L 794 0 
L 794 531 
z
" transform="scale(0.015625)"/>
       </defs>
       <use xlink:href="#DejaVuSans-32"/>
       <use xlink:href="#DejaVuSans-30" x="63.623047"/>
       <use xlink:href="#DejaVuSans-32" x="127.246094"/>
       <use xlink:href="#DejaVuSans-30" x="190.869141"/>
       <use xlink:href="#DejaVuSans-2d" x="254.492188"/>
       <use xlink:href="#DejaVuSans-31" x="290.576172"/>
       <use xlink:href="#DejaVuSans-30" x="354.199219"/>
       <use xlink:href="#DejaVuSans-2d" x="417.822266"/>
       <use xlink:href="#DejaVuSans-32" x="453.90625"/>
       <use xlink:href="#DejaVuSans-32" x="517.529297"/>
      </g>
     </g>
    </g>
    <g id="xtick_2">
     <g id="line2d_2">
      <g>
       <use xlink:href="#m7a9586ae6f" x="217.842975" y="135.36" style="stroke: #000000; stroke-width: 0.8"/>
      </g>
     </g>
     <g id="text_2">
      <!-- 2021-03-17 -->
      <g transform="translate(188.785163 149.958437)scale(0.1 -0.1)">
       <defs>
        <path id="DejaVuSans-33" d="M 2597 2516 
Q 3050 2419 3304 2112 
Q 3559 1806 3559 1356 
Q 3559 666 3084 287 
Q 2609 -91 1734 -91 
Q 1441 -91 1130 -33 
Q 819 25 488 141 
L 488 750 
Q 750 597 1062 519 
Q 1375 441 1716 441 
Q 2309 441 2620 675 
Q 2931 909 2931 1356 
Q 2931 1769 2642 2001 
Q 2353 2234 1838 2234 
L 1294 2234 
L 1294 2753 
L 1863 2753 
Q 2328 2753 2575 2939 
Q 2822 3125 2822 3475 
Q 2822 3834 2567 4026 
Q 2313 4219 1838 4219 
Q 1578 4219 1281 4162 
Q 984 4106 628 3988 
L 628 4550 
Q 988 4650 1302 4700 
Q 1616 4750 1894 4750 
Q 2613 4750 3031 4423 
Q 3450 4097 3450 3541 
Q 3450 3153 3228 2886 
Q 3006 2619 2597 2516 
z
" transform="scale(0.015625)"/>
        <path id="DejaVuSans-37" d="M 525 4666 
L 3525 4666 
L 3525 4397 
L 1831 0 
L 1172 0 
L 2766 4134 
L 525 4134 
L 525 4666 
z
" transform="scale(0.015625)"/>
       </defs>
       <use xlink:href="#DejaVuSans-32"/>
       <use xlink:href="#DejaVuSans-30" x="63.623047"/>
       <use xlink:href="#DejaVuSans-32" x="127.246094"/>
       <use xlink:href="#DejaVuSans-31" x="190.869141"/>
       <use xlink:href="#DejaVuSans-2d" x="254.492188"/>
       <use xlink:href="#DejaVuSans-30" x="290.576172"/>
       <use xlink:href="#DejaVuSans-33" x="354.199219"/>
       <use xlink:href="#DejaVuSans-2d" x="417.822266"/>
       <use xlink:href="#DejaVuSans-31" x="453.90625"/>
       <use xlink:href="#DejaVuSans-37" x="517.529297"/>
      </g>
     </g>
    </g>
    <g id="xtick_3">
     <g id="line2d_3">
      <g>
       <use xlink:href="#m7a9586ae6f" x="320.322314" y="135.36" style="stroke: #000000; stroke-width: 0.8"/>
      </g>
     </g>
     <g id="text_3">
      <!-- 2021-07-07 -->
      <g transform="translate(291.264502 149.958437)scale(0.1 -0.1)">
       <use xlink:href="#DejaVuSans-32"/>
       <use xlink:href="#DejaVuSans-30" x="63.623047"/>
       <use xlink:href="#DejaVuSans-32" x="127.246094"/>
       <use xlink:href="#DejaVuSans-31" x="190.869141"/>
       <use xlink:href="#DejaVuSans-2d" x="254.492188"/>
       <use xlink:href="#DejaVuSans-30" x="290.576172"/>
       <use xlink:href="#DejaVuSans-37" x="354.199219"/>
       <use xlink:href="#DejaVuSans-2d" x="417.822266"/>
       <use xlink:href="#DejaVuSans-30" x="453.90625"/>
       <use xlink:href="#DejaVuSans-37" x="517.529297"/>
      </g>
     </g>
    </g>
    <g id="xtick_4">
     <g id="line2d_4">
      <g>
       <use xlink:href="#m7a9586ae6f" x="422.801653" y="135.36" style="stroke: #000000; stroke-width: 0.8"/>
      </g>
     </g>
     <g id="text_4">
      <!-- 2021-11-18 -->
      <g transform="translate(393.74384 149.958437)scale(0.1 -0.1)">
       <defs>
        <path id="DejaVuSans-38" d="M 2034 2216 
Q 1584 2216 1326 1975 
Q 1069 1734 1069 1313 
Q 1069 891 1326 650 
Q 1584 409 2034 409 
Q 2484 409 2743 651 
Q 3003 894 3003 1313 
Q 3003 1734 2745 1975 
Q 2488 2216 2034 2216 
z
M 1403 2484 
Q 997 2584 770 2862 
Q 544 3141 544 3541 
Q 544 4100 942 4425 
Q 1341 4750 2034 4750 
Q 2731 4750 3128 4425 
Q 3525 4100 3525 3541 
Q 3525 3141 3298 2862 
Q 3072 2584 2669 2484 
Q 3125 2378 3379 2068 
Q 3634 1759 3634 1313 
Q 3634 634 3220 271 
Q 2806 -91 2034 -91 
Q 1263 -91 848 271 
Q 434 634 434 1313 
Q 434 1759 690 2068 
Q 947 2378 1403 2484 
z
M 1172 3481 
Q 1172 3119 1398 2916 
Q 1625 2713 2034 2713 
Q 2441 2713 2670 2916 
Q 2900 3119 2900 3481 
Q 2900 3844 2670 4047 
Q 2441 4250 2034 4250 
Q 1625 4250 1398 4047 
Q 1172 3844 1172 3481 
z
" transform="scale(0.015625)"/>
       </defs>
       <use xlink:href="#DejaVuSans-32"/>
       <use xlink:href="#DejaVuSans-30" x="63.623047"/>
       <use xlink:href="#DejaVuSans-32" x="127.246094"/>
       <use xlink:href="#DejaVuSans-31" x="190.869141"/>
       <use xlink:href="#DejaVuSans-2d" x="254.492188"/>
       <use xlink:href="#DejaVuSans-31" x="290.576172"/>
       <use xlink:href="#DejaVuSans-31" x="354.199219"/>
       <use xlink:href="#DejaVuSans-2d" x="417.822266"/>
       <use xlink:href="#DejaVuSans-31" x="453.90625"/>
       <use xlink:href="#DejaVuSans-38" x="517.529297"/>
      </g>
     </g>
    </g>
    <g id="xtick_5">
     <g id="line2d_5">
      <g>
       <use xlink:href="#m7a9586ae6f" x="525.280992" y="135.36" style="stroke: #000000; stroke-width: 0.8"/>
      </g>
     </g>
     <g id="text_5">
      <!-- 2022-03-21 -->
      <g transform="translate(496.223179 149.958437)scale(0.1 -0.1)">
       <use xlink:href="#DejaVuSans-32"/>
       <use xlink:href="#DejaVuSans-30" x="63.623047"/>
       <use xlink:href="#DejaVuSans-32" x="127.246094"/>
       <use xlink:href="#DejaVuSans-32" x="190.869141"/>
       <use xlink:href="#DejaVuSans-2d" x="254.492188"/>
       <use xlink:href="#DejaVuSans-30" x="290.576172"/>
       <use xlink:href="#DejaVuSans-33" x="354.199219"/>
       <use xlink:href="#DejaVuSans-2d" x="417.822266"/>
       <use xlink:href="#DejaVuSans-32" x="453.90625"/>
       <use xlink:href="#DejaVuSans-31" x="517.529297"/>
      </g>
     </g>
    </g>
    <g id="xtick_6">
     <g id="line2d_6">
      <g>
       <use xlink:href="#m7a9586ae6f" x="627.760331" y="135.36" style="stroke: #000000; stroke-width: 0.8"/>
      </g>
     </g>
    </g>
    <g id="text_6">
     <!-- _date -->
     <g transform="translate(355.225 163.636562)scale(0.1 -0.1)">
      <defs>
       <path id="DejaVuSans-5f" d="M 3263 -1063 
L 3263 -1509 
L -63 -1509 
L -63 -1063 
L 3263 -1063 
z
" transform="scale(0.015625)"/>
       <path id="DejaVuSans-64" d="M 2906 2969 
L 2906 4863 
L 3481 4863 
L 3481 0 
L 2906 0 
L 2906 525 
Q 2725 213 2448 61 
Q 2172 -91 1784 -91 
Q 1150 -91 751 415 
Q 353 922 353 1747 
Q 353 2572 751 3078 
Q 1150 3584 1784 3584 
Q 2172 3584 2448 3432 
Q 2725 3281 2906 2969 
z
M 947 1747 
Q 947 1113 1208 752 
Q 1469 391 1925 391 
Q 2381 391 2643 752 
Q 2906 1113 2906 1747 
Q 2906 2381 2643 2742 
Q 2381 3103 1925 3103 
Q 1469 3103 1208 2742 
Q 947 2381 947 1747 
z
" transform="scale(0.015625)"/>
       <path id="DejaVuSans-61" d="M 2194 1759 
Q 1497 1759 1228 1600 
Q 959 1441 959 1056 
Q 959 750 1161 570 
Q 1363 391 1709 391 
Q 2188 391 2477 730 
Q 2766 1069 2766 1631 
L 2766 1759 
L 2194 1759 
z
M 3341 1997 
L 3341 0 
L 2766 0 
L 2766 531 
Q 2569 213 2275 61 
Q 1981 -91 1556 -91 
Q 1019 -91 701 211 
Q 384 513 384 1019 
Q 384 1609 779 1909 
Q 1175 2209 1959 2209 
L 2766 2209 
L 2766 2266 
Q 2766 2663 2505 2880 
Q 2244 3097 1772 3097 
Q 1472 3097 1187 3025 
Q 903 2953 641 2809 
L 641 3341 
Q 956 3463 1253 3523 
Q 1550 3584 1831 3584 
Q 2591 3584 2966 3190 
Q 3341 2797 3341 1997 
z
" transform="scale(0.015625)"/>
       <path id="DejaVuSans-74" d="M 1172 4494 
L 1172 3500 
L 2356 3500 
L 2356 3053 
L 1172 3053 
L 1172 1153 
Q 1172 725 1289 603 
Q 1406 481 1766 481 
L 2356 481 
L 2356 0 
L 1766 0 
Q 1100 0 847 248 
Q 594 497 594 1153 
L 594 3053 
L 172 3053 
L 172 3500 
L 594 3500 
L 594 4494 
L 1172 4494 
z
" transform="scale(0.015625)"/>
       <path id="DejaVuSans-65" d="M 3597 1894 
L 3597 1613 
L 953 1613 
Q 991 1019 1311 708 
Q 1631 397 2203 397 
Q 2534 397 2845 478 
Q 3156 559 3463 722 
L 3463 178 
Q 3153 47 2828 -22 
Q 2503 -91 2169 -91 
Q 1331 -91 842 396 
Q 353 884 353 1716 
Q 353 2575 817 3079 
Q 1281 3584 2069 3584 
Q 2775 3584 3186 3129 
Q 3597 2675 3597 1894 
z
M 3022 2063 
Q 3016 2534 2758 2815 
Q 2500 3097 2075 3097 
Q 1594 3097 1305 2825 
Q 1016 2553 972 2059 
L 3022 2063 
z
" transform="scale(0.015625)"/>
      </defs>
      <use xlink:href="#DejaVuSans-5f"/>
      <use xlink:href="#DejaVuSans-64" x="50"/>
      <use xlink:href="#DejaVuSans-61" x="113.476562"/>
      <use xlink:href="#DejaVuSans-74" x="174.755859"/>
      <use xlink:href="#DejaVuSans-65" x="213.964844"/>
     </g>
    </g>
   </g>
   <g id="matplotlib.axis_2">
    <g id="ytick_1">
     <g id="line2d_7">
      <defs>
       <path id="mb2828e8474" d="M 0 0 
L -3.5 0 
" style="stroke: #000000; stroke-width: 0.8"/>
      </defs>
      <g>
       <use xlink:href="#mb2828e8474" x="90" y="131.401558" style="stroke: #000000; stroke-width: 0.8"/>
      </g>
     </g>
     <g id="text_7">
      <!-- 0 -->
      <g transform="translate(76.6375 135.200777)scale(0.1 -0.1)">
       <use xlink:href="#DejaVuSans-30"/>
      </g>
     </g>
    </g>
    <g id="ytick_2">
     <g id="line2d_8">
      <g>
       <use xlink:href="#mb2828e8474" x="90" y="100.232727" style="stroke: #000000; stroke-width: 0.8"/>
      </g>
     </g>
     <g id="text_8">
      <!-- 50 -->
      <g transform="translate(70.275 104.031946)scale(0.1 -0.1)">
       <defs>
        <path id="DejaVuSans-35" d="M 691 4666 
L 3169 4666 
L 3169 4134 
L 1269 4134 
L 1269 2991 
Q 1406 3038 1543 3061 
Q 1681 3084 1819 3084 
Q 2600 3084 3056 2656 
Q 3513 2228 3513 1497 
Q 3513 744 3044 326 
Q 2575 -91 1722 -91 
Q 1428 -91 1123 -41 
Q 819 9 494 109 
L 494 744 
Q 775 591 1075 516 
Q 1375 441 1709 441 
Q 2250 441 2565 725 
Q 2881 1009 2881 1497 
Q 2881 1984 2565 2268 
Q 2250 2553 1709 2553 
Q 1456 2553 1204 2497 
Q 953 2441 691 2322 
L 691 4666 
z
" transform="scale(0.015625)"/>
       </defs>
       <use xlink:href="#DejaVuSans-35"/>
       <use xlink:href="#DejaVuSans-30" x="63.623047"/>
      </g>
     </g>
    </g>
    <g id="ytick_3">
     <g id="line2d_9">
      <g>
       <use xlink:href="#mb2828e8474" x="90" y="69.063896" style="stroke: #000000; stroke-width: 0.8"/>
      </g>
     </g>
     <g id="text_9">
      <!-- 100 -->
      <g transform="translate(63.9125 72.863115)scale(0.1 -0.1)">
       <use xlink:href="#DejaVuSans-31"/>
       <use xlink:href="#DejaVuSans-30" x="63.623047"/>
       <use xlink:href="#DejaVuSans-30" x="127.246094"/>
      </g>
     </g>
    </g>
    <g id="ytick_4">
     <g id="line2d_10">
      <g>
       <use xlink:href="#mb2828e8474" x="90" y="37.895065" style="stroke: #000000; stroke-width: 0.8"/>
      </g>
     </g>
     <g id="text_10">
      <!-- 150 -->
      <g transform="translate(63.9125 41.694284)scale(0.1 -0.1)">
       <use xlink:href="#DejaVuSans-31"/>
       <use xlink:href="#DejaVuSans-35" x="63.623047"/>
       <use xlink:href="#DejaVuSans-30" x="127.246094"/>
      </g>
     </g>
    </g>
   </g>
   <g id="line2d_11">
    <path d="M 115.363636 127.661299 
L 116.38843 128.284675 
L 117.413223 130.778182 
L 118.438017 130.778182 
L 119.46281 129.531429 
L 120.487603 129.531429 
L 121.512397 120.804156 
L 122.53719 120.804156 
L 123.561983 130.778182 
L 124.586777 130.778182 
L 125.61157 124.544416 
L 126.636364 126.414545 
L 127.661157 130.778182 
L 128.68595 127.661299 
L 129.710744 128.908052 
L 130.735537 128.908052 
L 131.760331 130.778182 
L 133.809917 128.284675 
L 134.834711 130.154805 
L 135.859504 130.778182 
L 136.884298 130.154805 
L 137.909091 130.154805 
L 138.933884 129.531429 
L 139.958678 130.154805 
L 140.983471 130.154805 
L 142.008264 128.908052 
L 143.033058 130.154805 
L 144.057851 130.154805 
L 145.082645 122.674286 
L 146.107438 127.661299 
L 147.132231 130.154805 
L 148.157025 115.817143 
L 149.181818 130.778182 
L 157.380165 130.778182 
L 158.404959 130.154805 
L 159.429752 130.778182 
L 166.603306 130.778182 
L 167.628099 128.908052 
L 168.652893 129.531429 
L 169.677686 130.778182 
L 170.702479 129.531429 
L 171.727273 127.661299 
L 172.752066 130.154805 
L 173.77686 130.154805 
L 174.801653 128.908052 
L 175.826446 120.804156 
L 176.85124 130.154805 
L 177.876033 130.778182 
L 178.900826 130.154805 
L 179.92562 127.037922 
L 180.950413 130.154805 
L 181.975207 129.531429 
L 183 125.167792 
L 184.024793 128.908052 
L 185.049587 127.037922 
L 186.07438 130.154805 
L 187.099174 129.531429 
L 188.123967 130.154805 
L 189.14876 129.531429 
L 191.198347 129.531429 
L 192.22314 128.284675 
L 193.247934 130.778182 
L 194.272727 130.778182 
L 195.297521 128.284675 
L 196.322314 128.284675 
L 197.347107 125.167792 
L 198.371901 129.531429 
L 199.396694 127.661299 
L 200.421488 130.778182 
L 201.446281 125.791169 
L 202.471074 128.908052 
L 203.495868 129.531429 
L 204.520661 128.908052 
L 205.545455 126.414545 
L 206.570248 130.154805 
L 207.595041 128.284675 
L 208.619835 121.427532 
L 209.644628 126.414545 
L 210.669421 120.804156 
L 211.694215 87.141818 
L 212.719008 127.661299 
L 213.743802 130.778182 
L 214.768595 128.908052 
L 215.793388 123.297662 
L 216.818182 124.544416 
L 217.842975 127.661299 
L 218.867769 119.557403 
L 219.892562 128.908052 
L 220.917355 128.908052 
L 221.942149 130.154805 
L 222.966942 122.674286 
L 223.991736 124.544416 
L 225.016529 130.778182 
L 226.041322 129.531429 
L 227.066116 130.778182 
L 228.090909 128.284675 
L 229.115702 100.232727 
L 230.140496 118.310649 
L 231.165289 121.427532 
L 232.190083 127.661299 
L 233.214876 130.778182 
L 234.239669 126.414545 
L 235.264463 128.908052 
L 236.289256 122.050909 
L 237.31405 128.908052 
L 238.338843 123.297662 
L 239.363636 115.817143 
L 240.38843 122.674286 
L 241.413223 127.661299 
L 242.438017 115.193766 
L 243.46281 115.193766 
L 244.487603 116.440519 
L 245.512397 92.128831 
L 246.53719 107.08987 
L 247.561983 107.08987 
L 248.586777 119.557403 
L 249.61157 110.206753 
L 250.636364 118.934026 
L 251.661157 129.531429 
L 252.68595 130.154805 
L 253.710744 116.440519 
L 254.735537 114.57039 
L 255.760331 115.817143 
L 256.785124 111.453506 
L 257.809917 105.843117 
L 258.834711 128.284675 
L 259.859504 130.154805 
L 260.884298 116.440519 
L 261.909091 117.687273 
L 262.933884 100.232727 
L 263.958678 115.817143 
L 264.983471 116.440519 
L 266.008264 130.154805 
L 267.033058 128.908052 
L 268.057851 114.57039 
L 269.082645 102.102857 
L 270.107438 117.063896 
L 271.132231 113.323636 
L 272.157025 95.245714 
L 273.181818 117.063896 
L 274.206612 130.154805 
L 275.231405 114.57039 
L 276.256198 105.843117 
L 277.280992 102.726234 
L 278.305785 108.96 
L 279.330579 111.453506 
L 280.355372 129.531429 
L 281.380165 115.193766 
L 282.404959 108.336623 
L 283.429752 115.817143 
L 284.454545 115.193766 
L 285.479339 113.947013 
L 286.504132 125.791169 
L 287.528926 115.817143 
L 288.553719 113.323636 
L 289.578512 115.817143 
L 290.603306 116.440519 
L 291.628099 116.440519 
L 292.652893 130.778182 
L 293.677686 130.778182 
L 294.702479 115.193766 
L 295.727273 112.076883 
L 296.752066 115.193766 
L 297.77686 102.726234 
L 298.801653 105.843117 
L 299.826446 130.778182 
L 300.85124 115.817143 
L 301.876033 113.947013 
L 302.900826 113.323636 
L 303.92562 112.076883 
L 304.950413 117.063896 
L 305.975207 130.154805 
L 307 114.57039 
L 308.024793 110.83013 
L 309.049587 105.21974 
L 310.07438 104.596364 
L 311.099174 39.141818 
L 313.14876 130.778182 
L 314.173554 118.310649 
L 315.198347 117.063896 
L 316.22314 124.544416 
L 317.247934 130.778182 
L 318.272727 130.154805 
L 319.297521 123.297662 
L 320.322314 125.167792 
L 321.347107 130.154805 
L 322.371901 128.908052 
L 323.396694 130.154805 
L 324.421488 130.778182 
L 325.446281 130.154805 
L 326.471074 130.778182 
L 327.495868 128.908052 
L 328.520661 129.531429 
L 329.545455 130.778182 
L 332.619835 130.778182 
L 333.644628 128.284675 
L 334.669421 130.154805 
L 335.694215 130.778182 
L 336.719008 130.154805 
L 337.743802 127.037922 
L 338.768595 130.778182 
L 339.793388 117.063896 
L 340.818182 129.531429 
L 341.842975 130.778182 
L 343.892562 129.531429 
L 344.917355 130.778182 
L 345.942149 130.154805 
L 346.966942 130.778182 
L 347.991736 128.908052 
L 349.016529 130.154805 
L 350.041322 129.531429 
L 351.066116 130.778182 
L 353.115702 130.778182 
L 355.165289 129.531429 
L 356.190083 127.037922 
L 357.214876 130.154805 
L 358.239669 130.154805 
L 359.264463 124.544416 
L 360.289256 122.050909 
L 361.31405 130.778182 
L 363.363636 130.778182 
L 365.413223 129.531429 
L 366.438017 130.154805 
L 367.46281 125.167792 
L 368.487603 113.323636 
L 369.512397 127.661299 
L 370.53719 110.206753 
L 371.561983 126.414545 
L 372.586777 130.154805 
L 373.61157 130.778182 
L 375.661157 130.778182 
L 376.68595 130.154805 
L 377.710744 130.778182 
L 378.735537 130.778182 
L 379.760331 128.284675 
L 380.785124 98.362597 
L 381.809917 117.063896 
L 382.834711 129.531429 
L 383.859504 122.674286 
L 384.884298 98.985974 
L 385.909091 96.492468 
L 386.933884 90.882078 
L 387.958678 103.972987 
L 388.983471 120.804156 
L 390.008264 122.674286 
L 391.033058 130.778182 
L 392.057851 125.791169 
L 393.082645 130.778182 
L 394.107438 130.778182 
L 395.132231 122.050909 
L 396.157025 129.531429 
L 397.181818 97.739221 
L 398.206612 122.674286 
L 399.231405 95.869091 
L 400.256198 123.297662 
L 401.280992 128.284675 
L 402.305785 121.427532 
L 403.330579 93.998961 
L 404.355372 120.804156 
L 405.380165 122.674286 
L 406.404959 129.531429 
L 407.429752 130.778182 
L 408.454545 130.778182 
L 409.479339 129.531429 
L 410.504132 126.414545 
L 411.528926 123.921039 
L 412.553719 122.674286 
L 413.578512 130.778182 
L 414.603306 130.778182 
L 415.628099 120.180779 
L 416.652893 115.817143 
L 417.677686 130.778182 
L 418.702479 129.531429 
L 419.727273 130.778182 
L 420.752066 125.167792 
L 421.77686 129.531429 
L 422.801653 130.778182 
L 423.826446 130.154805 
L 424.85124 128.908052 
L 425.876033 128.908052 
L 426.900826 106.466494 
L 427.92562 128.908052 
L 428.950413 128.908052 
L 429.975207 120.804156 
L 431 105.21974 
L 432.024793 123.297662 
L 433.049587 123.297662 
L 434.07438 129.531429 
L 435.099174 120.180779 
L 436.123967 103.34961 
L 437.14876 63.453506 
L 438.173554 123.297662 
L 439.198347 113.323636 
L 440.22314 130.778182 
L 441.247934 104.596364 
L 442.272727 99.609351 
L 443.297521 127.037922 
L 444.322314 117.063896 
L 445.347107 130.778182 
L 446.371901 130.778182 
L 447.396694 100.856104 
L 448.421488 130.778182 
L 449.446281 98.985974 
L 450.471074 130.154805 
L 451.495868 120.804156 
L 452.520661 130.778182 
L 453.545455 130.778182 
L 454.570248 129.531429 
L 455.595041 130.154805 
L 456.619835 128.908052 
L 457.644628 130.778182 
L 458.669421 122.050909 
L 459.694215 117.063896 
L 460.719008 93.998961 
L 461.743802 124.544416 
L 462.768595 130.154805 
L 463.793388 115.193766 
L 464.818182 130.154805 
L 465.842975 125.791169 
L 466.867769 120.180779 
L 467.892562 122.674286 
L 468.917355 127.661299 
L 469.942149 130.154805 
L 470.966942 127.037922 
L 471.991736 115.817143 
L 473.016529 128.284675 
L 474.041322 122.674286 
L 475.066116 125.167792 
L 476.090909 130.778182 
L 477.115702 75.297662 
L 478.140496 117.687273 
L 479.165289 97.115844 
L 480.190083 122.050909 
L 481.214876 78.414545 
L 482.239669 130.778182 
L 483.264463 118.934026 
L 485.31405 99.609351 
L 486.338843 108.96 
L 487.363636 125.791169 
L 488.38843 130.778182 
L 490.438017 87.765195 
L 491.46281 90.882078 
L 492.487603 130.778182 
L 493.512397 122.674286 
L 494.53719 128.908052 
L 495.561983 94.622338 
L 496.586777 128.908052 
L 497.61157 130.778182 
L 499.661157 130.778182 
L 500.68595 128.284675 
L 501.710744 128.908052 
L 502.735537 124.544416 
L 503.760331 127.037922 
L 504.785124 123.921039 
L 505.809917 112.70026 
L 506.834711 130.154805 
L 507.859504 79.037922 
L 508.884298 123.297662 
L 509.909091 122.050909 
L 510.933884 95.869091 
L 511.958678 95.245714 
L 512.983471 117.687273 
L 515.033058 130.154805 
L 516.057851 127.661299 
L 517.082645 130.154805 
L 518.107438 125.167792 
L 519.132231 124.544416 
L 520.157025 75.297662 
L 521.181818 50.985974 
L 522.206612 110.206753 
L 523.231405 130.154805 
L 524.256198 120.804156 
L 525.280992 129.531429 
L 526.305785 128.908052 
L 527.330579 129.531429 
L 528.355372 130.778182 
L 529.380165 130.778182 
L 530.404959 130.154805 
L 532.454545 130.154805 
L 533.479339 130.778182 
L 536.553719 130.778182 
L 537.578512 129.531429 
L 538.603306 129.531429 
L 539.628099 130.778182 
L 540.652893 130.778182 
L 541.677686 130.154805 
L 542.702479 130.778182 
L 543.727273 130.154805 
L 544.752066 130.778182 
L 545.77686 130.154805 
L 546.801653 128.908052 
L 547.826446 130.778182 
L 548.85124 130.154805 
L 549.876033 130.778182 
L 550.900826 130.778182 
L 551.92562 129.531429 
L 552.950413 129.531429 
L 553.975207 128.284675 
L 555 123.297662 
L 556.024793 128.284675 
L 557.049587 130.154805 
L 558.07438 130.778182 
L 559.099174 129.531429 
L 560.123967 125.791169 
L 561.14876 120.180779 
L 562.173554 130.778182 
L 563.198347 130.778182 
L 564.22314 130.154805 
L 565.247934 130.778182 
L 566.272727 130.778182 
L 567.297521 123.297662 
L 568.322314 130.778182 
L 569.347107 123.297662 
L 570.371901 124.544416 
L 571.396694 130.778182 
L 572.421488 130.154805 
L 573.446281 113.323636 
L 574.471074 130.154805 
L 575.495868 104.596364 
L 576.520661 105.21974 
L 577.545455 123.921039 
L 578.570248 69.687273 
L 579.595041 105.21974 
L 580.619835 128.284675 
L 581.644628 130.778182 
L 583.694215 129.531429 
L 584.719008 130.154805 
L 585.743802 102.726234 
L 586.768595 128.908052 
L 587.793388 130.778182 
L 588.818182 130.778182 
L 589.842975 130.154805 
L 590.867769 120.180779 
L 591.892562 130.778182 
L 593.942149 130.778182 
L 594.966942 127.037922 
L 595.991736 126.414545 
L 597.016529 108.96 
L 598.041322 130.778182 
L 599.066116 128.908052 
L 600.090909 128.284675 
L 601.115702 115.817143 
L 602.140496 113.323636 
L 603.165289 130.778182 
L 604.190083 128.908052 
L 605.214876 129.531429 
L 606.239669 124.544416 
L 607.264463 125.167792 
L 608.289256 129.531429 
L 609.31405 127.661299 
L 610.338843 130.154805 
L 611.363636 130.778182 
L 612.38843 128.908052 
L 613.413223 128.284675 
L 614.438017 127.037922 
L 615.46281 128.908052 
L 616.487603 105.843117 
L 617.512397 129.531429 
L 618.53719 112.076883 
L 619.561983 130.778182 
L 620.586777 127.037922 
L 621.61157 120.180779 
L 622.636364 130.778182 
L 622.636364 130.778182 
" clip-path="url(#p1267f74bae)" style="fill: none; stroke: #1f77b4; stroke-width: 1.5; stroke-linecap: square"/>
   </g>
   <g id="line2d_12">
    <path d="M 115.363636 127.661299 
L 116.38843 128.284675 
L 117.413223 130.778182 
L 118.438017 130.778182 
L 119.46281 129.531429 
L 120.487603 129.531429 
L 121.512397 130.154805 
L 122.53719 128.284675 
L 123.561983 130.778182 
L 124.586777 130.778182 
L 125.61157 124.544416 
L 126.636364 129.531429 
L 127.661157 130.778182 
L 128.68595 128.908052 
L 129.710744 128.908052 
L 130.735537 129.531429 
L 131.760331 130.778182 
L 132.785124 129.531429 
L 133.809917 128.908052 
L 134.834711 130.154805 
L 135.859504 130.778182 
L 136.884298 130.154805 
L 137.909091 130.778182 
L 138.933884 129.531429 
L 140.983471 130.778182 
L 142.008264 130.154805 
L 143.033058 130.778182 
L 144.057851 130.154805 
L 145.082645 125.791169 
L 146.107438 127.661299 
L 147.132231 130.154805 
L 148.157025 125.167792 
L 149.181818 130.778182 
L 157.380165 130.778182 
L 158.404959 130.154805 
L 159.429752 130.778182 
L 166.603306 130.778182 
L 167.628099 129.531429 
L 168.652893 130.778182 
L 169.677686 130.778182 
L 171.727273 129.531429 
L 172.752066 130.778182 
L 174.801653 130.778182 
L 175.826446 124.544416 
L 176.85124 130.778182 
L 177.876033 130.778182 
L 178.900826 130.154805 
L 179.92562 128.908052 
L 180.950413 130.154805 
L 181.975207 129.531429 
L 183 127.037922 
L 184.024793 129.531429 
L 185.049587 130.778182 
L 186.07438 130.154805 
L 187.099174 130.778182 
L 188.123967 130.154805 
L 189.14876 130.778182 
L 190.173554 129.531429 
L 192.22314 129.531429 
L 193.247934 130.778182 
L 194.272727 130.778182 
L 197.347107 127.037922 
L 198.371901 129.531429 
L 199.396694 128.284675 
L 200.421488 130.778182 
L 201.446281 127.037922 
L 202.471074 128.908052 
L 203.495868 129.531429 
L 204.520661 128.908052 
L 205.545455 126.414545 
L 206.570248 130.154805 
L 207.595041 128.284675 
L 208.619835 124.544416 
L 209.644628 127.037922 
L 210.669421 123.297662 
L 211.694215 108.96 
L 212.719008 127.661299 
L 213.743802 130.778182 
L 214.768595 129.531429 
L 215.793388 123.921039 
L 217.842975 127.661299 
L 218.867769 122.050909 
L 219.892562 128.908052 
L 220.917355 128.908052 
L 221.942149 130.154805 
L 222.966942 124.544416 
L 223.991736 124.544416 
L 225.016529 130.778182 
L 226.041322 129.531429 
L 227.066116 130.778182 
L 228.090909 128.908052 
L 229.115702 116.440519 
L 230.140496 122.674286 
L 231.165289 124.544416 
L 232.190083 128.284675 
L 233.214876 130.778182 
L 234.239669 127.661299 
L 235.264463 130.154805 
L 236.289256 123.921039 
L 237.31405 129.531429 
L 238.338843 123.921039 
L 239.363636 120.180779 
L 240.38843 123.297662 
L 241.413223 128.284675 
L 242.438017 120.804156 
L 243.46281 125.167792 
L 244.487603 130.154805 
L 245.512397 121.427532 
L 246.53719 128.908052 
L 247.561983 125.791169 
L 248.586777 121.427532 
L 249.61157 125.167792 
L 250.636364 130.778182 
L 251.661157 130.154805 
L 252.68595 130.154805 
L 253.710744 130.778182 
L 254.735537 128.908052 
L 255.760331 129.531429 
L 257.809917 120.804156 
L 258.834711 128.284675 
L 259.859504 130.154805 
L 260.884298 130.778182 
L 261.909091 128.908052 
L 262.933884 117.687273 
L 263.958678 130.778182 
L 264.983471 129.531429 
L 266.008264 130.154805 
L 268.057851 130.154805 
L 269.082645 118.934026 
L 270.107438 128.908052 
L 271.132231 127.037922 
L 272.157025 115.817143 
L 273.181818 120.180779 
L 274.206612 130.154805 
L 275.231405 130.778182 
L 276.256198 125.791169 
L 277.280992 129.531429 
L 278.305785 128.908052 
L 279.330579 130.154805 
L 280.355372 130.154805 
L 281.380165 130.778182 
L 282.404959 123.921039 
L 283.429752 130.778182 
L 284.454545 130.154805 
L 285.479339 128.908052 
L 286.504132 127.037922 
L 287.528926 130.778182 
L 288.553719 128.908052 
L 289.578512 130.778182 
L 290.603306 129.531429 
L 291.628099 129.531429 
L 292.652893 130.778182 
L 294.702479 130.778182 
L 295.727273 127.661299 
L 296.752066 130.778182 
L 297.77686 128.908052 
L 298.801653 125.791169 
L 299.826446 130.778182 
L 300.85124 130.778182 
L 301.876033 130.154805 
L 302.900826 128.908052 
L 305.975207 130.778182 
L 307 130.154805 
L 308.024793 126.414545 
L 309.049587 126.414545 
L 310.07438 127.661299 
L 311.099174 130.778182 
L 312.123967 121.427532 
L 313.14876 130.778182 
L 314.173554 130.154805 
L 315.198347 126.414545 
L 316.22314 125.791169 
L 317.247934 130.778182 
L 318.272727 130.154805 
L 319.297521 123.297662 
L 320.322314 126.414545 
L 321.347107 130.154805 
L 322.371901 128.908052 
L 323.396694 130.778182 
L 324.421488 130.778182 
L 325.446281 130.154805 
L 326.471074 130.778182 
L 327.495868 128.908052 
L 328.520661 129.531429 
L 329.545455 130.778182 
L 332.619835 130.778182 
L 333.644628 128.284675 
L 334.669421 130.154805 
L 335.694215 130.778182 
L 336.719008 130.154805 
L 337.743802 127.661299 
L 338.768595 130.778182 
L 339.793388 130.778182 
L 340.818182 129.531429 
L 341.842975 130.778182 
L 343.892562 129.531429 
L 344.917355 130.778182 
L 345.942149 130.154805 
L 346.966942 130.778182 
L 347.991736 128.908052 
L 349.016529 130.154805 
L 350.041322 129.531429 
L 351.066116 130.778182 
L 353.115702 130.778182 
L 355.165289 129.531429 
L 356.190083 127.037922 
L 357.214876 130.154805 
L 358.239669 130.778182 
L 359.264463 124.544416 
L 360.289256 123.921039 
L 361.31405 130.778182 
L 363.363636 130.778182 
L 365.413223 129.531429 
L 366.438017 130.778182 
L 367.46281 125.791169 
L 368.487603 122.050909 
L 369.512397 130.154805 
L 370.53719 121.427532 
L 371.561983 127.661299 
L 372.586777 130.778182 
L 375.661157 130.778182 
L 376.68595 130.154805 
L 377.710744 130.778182 
L 378.735537 130.778182 
L 379.760331 128.284675 
L 380.785124 114.57039 
L 381.809917 119.557403 
L 382.834711 129.531429 
L 383.859504 123.921039 
L 384.884298 114.57039 
L 385.909091 112.076883 
L 386.933884 112.076883 
L 387.958678 119.557403 
L 388.983471 121.427532 
L 390.008264 124.544416 
L 391.033058 130.778182 
L 392.057851 126.414545 
L 393.082645 130.778182 
L 394.107438 130.778182 
L 395.132231 123.297662 
L 396.157025 129.531429 
L 397.181818 122.674286 
L 398.206612 128.284675 
L 399.231405 126.414545 
L 400.256198 130.154805 
L 401.280992 130.778182 
L 402.305785 128.284675 
L 403.330579 121.427532 
L 404.355372 125.791169 
L 405.380165 126.414545 
L 406.404959 130.154805 
L 407.429752 130.778182 
L 408.454545 130.778182 
L 409.479339 129.531429 
L 410.504132 128.908052 
L 411.528926 127.037922 
L 412.553719 127.037922 
L 413.578512 130.778182 
L 414.603306 130.778182 
L 415.628099 125.167792 
L 416.652893 123.921039 
L 417.677686 130.778182 
L 418.702479 129.531429 
L 419.727273 130.778182 
L 420.752066 127.661299 
L 421.77686 129.531429 
L 422.801653 130.778182 
L 423.826446 130.154805 
L 424.85124 128.908052 
L 425.876033 128.908052 
L 426.900826 122.050909 
L 427.92562 128.908052 
L 428.950413 129.531429 
L 429.975207 126.414545 
L 431 120.180779 
L 432.024793 126.414545 
L 433.049587 127.037922 
L 434.07438 130.154805 
L 435.099174 126.414545 
L 437.14876 112.70026 
L 438.173554 127.661299 
L 439.198347 123.921039 
L 440.22314 130.778182 
L 441.247934 120.804156 
L 442.272727 117.063896 
L 443.297521 128.284675 
L 444.322314 123.921039 
L 445.347107 130.778182 
L 446.371901 130.778182 
L 447.396694 120.180779 
L 448.421488 130.778182 
L 449.446281 116.440519 
L 450.471074 130.154805 
L 451.495868 125.791169 
L 452.520661 130.778182 
L 453.545455 130.778182 
L 454.570248 130.154805 
L 455.595041 130.778182 
L 456.619835 130.154805 
L 457.644628 130.778182 
L 458.669421 126.414545 
L 459.694215 124.544416 
L 460.719008 117.063896 
L 461.743802 127.661299 
L 462.768595 130.778182 
L 463.793388 122.674286 
L 464.818182 130.154805 
L 466.867769 126.414545 
L 467.892562 127.661299 
L 468.917355 128.284675 
L 469.942149 130.778182 
L 470.966942 127.661299 
L 471.991736 122.674286 
L 473.016529 129.531429 
L 474.041322 127.037922 
L 475.066116 127.661299 
L 476.090909 130.778182 
L 477.115702 110.206753 
L 478.140496 123.921039 
L 479.165289 118.310649 
L 480.190083 126.414545 
L 481.214876 112.076883 
L 482.239669 130.778182 
L 483.264463 130.154805 
L 484.289256 118.934026 
L 485.31405 117.063896 
L 486.338843 118.934026 
L 487.363636 128.284675 
L 488.38843 130.778182 
L 489.413223 121.427532 
L 490.438017 113.947013 
L 491.46281 113.323636 
L 492.487603 130.778182 
L 493.512397 127.037922 
L 494.53719 130.778182 
L 495.561983 117.063896 
L 496.586777 129.531429 
L 497.61157 130.778182 
L 499.661157 130.778182 
L 500.68595 128.908052 
L 501.710744 130.154805 
L 502.735537 127.661299 
L 503.760331 128.908052 
L 504.785124 127.661299 
L 505.809917 121.427532 
L 506.834711 130.154805 
L 507.859504 112.076883 
L 508.884298 126.414545 
L 509.909091 125.791169 
L 510.933884 117.687273 
L 511.958678 117.687273 
L 512.983471 125.167792 
L 514.008264 126.414545 
L 515.033058 130.778182 
L 516.057851 128.908052 
L 517.082645 130.778182 
L 518.107438 128.908052 
L 519.132231 128.284675 
L 520.157025 118.310649 
L 521.181818 104.596364 
L 522.206612 122.050909 
L 523.231405 130.154805 
L 524.256198 130.778182 
L 525.280992 129.531429 
L 526.305785 128.908052 
L 527.330579 129.531429 
L 528.355372 130.778182 
L 529.380165 130.778182 
L 530.404959 130.154805 
L 531.429752 130.778182 
L 532.454545 130.154805 
L 533.479339 130.778182 
L 536.553719 130.778182 
L 537.578512 129.531429 
L 539.628099 130.778182 
L 540.652893 130.778182 
L 541.677686 130.154805 
L 542.702479 130.778182 
L 543.727273 130.154805 
L 544.752066 130.778182 
L 545.77686 130.154805 
L 546.801653 130.154805 
L 547.826446 130.778182 
L 548.85124 130.154805 
L 549.876033 130.778182 
L 550.900826 130.778182 
L 551.92562 129.531429 
L 552.950413 130.154805 
L 553.975207 128.908052 
L 555 127.037922 
L 556.024793 129.531429 
L 558.07438 130.778182 
L 561.14876 127.037922 
L 562.173554 130.778182 
L 563.198347 130.778182 
L 564.22314 130.154805 
L 565.247934 130.778182 
L 566.272727 130.778182 
L 567.297521 128.284675 
L 568.322314 130.778182 
L 569.347107 126.414545 
L 570.371901 127.037922 
L 571.396694 130.778182 
L 572.421488 130.778182 
L 573.446281 123.921039 
L 574.471074 130.778182 
L 575.495868 119.557403 
L 576.520661 119.557403 
L 577.545455 126.414545 
L 578.570248 113.323636 
L 579.595041 120.804156 
L 580.619835 129.531429 
L 581.644628 130.778182 
L 582.669421 130.154805 
L 586.768595 130.154805 
L 587.793388 130.778182 
L 588.818182 130.778182 
L 589.842975 130.154805 
L 590.867769 130.154805 
L 591.892562 130.778182 
L 593.942149 130.778182 
L 594.966942 128.284675 
L 595.991736 127.661299 
L 597.016529 119.557403 
L 598.041322 130.778182 
L 599.066116 129.531429 
L 600.090909 128.908052 
L 601.115702 127.661299 
L 602.140496 123.297662 
L 603.165289 130.778182 
L 604.190083 129.531429 
L 605.214876 130.154805 
L 606.239669 127.661299 
L 607.264463 127.661299 
L 608.289256 130.154805 
L 609.31405 129.531429 
L 611.363636 130.778182 
L 612.38843 129.531429 
L 613.413223 128.908052 
L 614.438017 128.908052 
L 615.46281 130.154805 
L 616.487603 119.557403 
L 617.512397 129.531429 
L 618.53719 122.050909 
L 619.561983 130.778182 
L 620.586777 128.908052 
L 621.61157 125.791169 
L 622.636364 130.778182 
L 622.636364 130.778182 
" clip-path="url(#p1267f74bae)" style="fill: none; stroke: #ff7f0e; stroke-width: 1.5; stroke-linecap: square"/>
   </g>
   <g id="patch_3">
    <path d="M 90 135.36 
L 90 34.56 
" style="fill: none; stroke: #000000; stroke-width: 0.8; stroke-linejoin: miter; stroke-linecap: square"/>
   </g>
   <g id="patch_4">
    <path d="M 648 135.36 
L 648 34.56 
" style="fill: none; stroke: #000000; stroke-width: 0.8; stroke-linejoin: miter; stroke-linecap: square"/>
   </g>
   <g id="patch_5">
    <path d="M 90 135.36 
L 648 135.36 
" style="fill: none; stroke: #000000; stroke-width: 0.8; stroke-linejoin: miter; stroke-linecap: square"/>
   </g>
   <g id="patch_6">
    <path d="M 90 34.56 
L 648 34.56 
" style="fill: none; stroke: #000000; stroke-width: 0.8; stroke-linejoin: miter; stroke-linecap: square"/>
   </g>
   <g id="legend_1">
    <g id="patch_7">
     <path d="M 97 71.91625 
L 238.8625 71.91625 
Q 240.8625 71.91625 240.8625 69.91625 
L 240.8625 41.56 
Q 240.8625 39.56 238.8625 39.56 
L 97 39.56 
Q 95 39.56 95 41.56 
L 95 69.91625 
Q 95 71.91625 97 71.91625 
z
" style="fill: #ffffff; opacity: 0.8; stroke: #cccccc; stroke-linejoin: miter"/>
    </g>
    <g id="line2d_13">
     <path d="M 99 47.658437 
L 109 47.658437 
L 119 47.658437 
" style="fill: none; stroke: #1f77b4; stroke-width: 1.5; stroke-linecap: square"/>
    </g>
    <g id="text_11">
     <!-- Total GitHub Clones -->
     <g transform="translate(127 51.158437)scale(0.1 -0.1)">
      <defs>
       <path id="DejaVuSans-54" d="M -19 4666 
L 3928 4666 
L 3928 4134 
L 2272 4134 
L 2272 0 
L 1638 0 
L 1638 4134 
L -19 4134 
L -19 4666 
z
" transform="scale(0.015625)"/>
       <path id="DejaVuSans-6f" d="M 1959 3097 
Q 1497 3097 1228 2736 
Q 959 2375 959 1747 
Q 959 1119 1226 758 
Q 1494 397 1959 397 
Q 2419 397 2687 759 
Q 2956 1122 2956 1747 
Q 2956 2369 2687 2733 
Q 2419 3097 1959 3097 
z
M 1959 3584 
Q 2709 3584 3137 3096 
Q 3566 2609 3566 1747 
Q 3566 888 3137 398 
Q 2709 -91 1959 -91 
Q 1206 -91 779 398 
Q 353 888 353 1747 
Q 353 2609 779 3096 
Q 1206 3584 1959 3584 
z
" transform="scale(0.015625)"/>
       <path id="DejaVuSans-6c" d="M 603 4863 
L 1178 4863 
L 1178 0 
L 603 0 
L 603 4863 
z
" transform="scale(0.015625)"/>
       <path id="DejaVuSans-20" transform="scale(0.015625)"/>
       <path id="DejaVuSans-47" d="M 3809 666 
L 3809 1919 
L 2778 1919 
L 2778 2438 
L 4434 2438 
L 4434 434 
Q 4069 175 3628 42 
Q 3188 -91 2688 -91 
Q 1594 -91 976 548 
Q 359 1188 359 2328 
Q 359 3472 976 4111 
Q 1594 4750 2688 4750 
Q 3144 4750 3555 4637 
Q 3966 4525 4313 4306 
L 4313 3634 
Q 3963 3931 3569 4081 
Q 3175 4231 2741 4231 
Q 1884 4231 1454 3753 
Q 1025 3275 1025 2328 
Q 1025 1384 1454 906 
Q 1884 428 2741 428 
Q 3075 428 3337 486 
Q 3600 544 3809 666 
z
" transform="scale(0.015625)"/>
       <path id="DejaVuSans-69" d="M 603 3500 
L 1178 3500 
L 1178 0 
L 603 0 
L 603 3500 
z
M 603 4863 
L 1178 4863 
L 1178 4134 
L 603 4134 
L 603 4863 
z
" transform="scale(0.015625)"/>
       <path id="DejaVuSans-48" d="M 628 4666 
L 1259 4666 
L 1259 2753 
L 3553 2753 
L 3553 4666 
L 4184 4666 
L 4184 0 
L 3553 0 
L 3553 2222 
L 1259 2222 
L 1259 0 
L 628 0 
L 628 4666 
z
" transform="scale(0.015625)"/>
       <path id="DejaVuSans-75" d="M 544 1381 
L 544 3500 
L 1119 3500 
L 1119 1403 
Q 1119 906 1312 657 
Q 1506 409 1894 409 
Q 2359 409 2629 706 
Q 2900 1003 2900 1516 
L 2900 3500 
L 3475 3500 
L 3475 0 
L 2900 0 
L 2900 538 
Q 2691 219 2414 64 
Q 2138 -91 1772 -91 
Q 1169 -91 856 284 
Q 544 659 544 1381 
z
M 1991 3584 
L 1991 3584 
z
" transform="scale(0.015625)"/>
       <path id="DejaVuSans-62" d="M 3116 1747 
Q 3116 2381 2855 2742 
Q 2594 3103 2138 3103 
Q 1681 3103 1420 2742 
Q 1159 2381 1159 1747 
Q 1159 1113 1420 752 
Q 1681 391 2138 391 
Q 2594 391 2855 752 
Q 3116 1113 3116 1747 
z
M 1159 2969 
Q 1341 3281 1617 3432 
Q 1894 3584 2278 3584 
Q 2916 3584 3314 3078 
Q 3713 2572 3713 1747 
Q 3713 922 3314 415 
Q 2916 -91 2278 -91 
Q 1894 -91 1617 61 
Q 1341 213 1159 525 
L 1159 0 
L 581 0 
L 581 4863 
L 1159 4863 
L 1159 2969 
z
" transform="scale(0.015625)"/>
       <path id="DejaVuSans-43" d="M 4122 4306 
L 4122 3641 
Q 3803 3938 3442 4084 
Q 3081 4231 2675 4231 
Q 1875 4231 1450 3742 
Q 1025 3253 1025 2328 
Q 1025 1406 1450 917 
Q 1875 428 2675 428 
Q 3081 428 3442 575 
Q 3803 722 4122 1019 
L 4122 359 
Q 3791 134 3420 21 
Q 3050 -91 2638 -91 
Q 1578 -91 968 557 
Q 359 1206 359 2328 
Q 359 3453 968 4101 
Q 1578 4750 2638 4750 
Q 3056 4750 3426 4639 
Q 3797 4528 4122 4306 
z
" transform="scale(0.015625)"/>
       <path id="DejaVuSans-6e" d="M 3513 2113 
L 3513 0 
L 2938 0 
L 2938 2094 
Q 2938 2591 2744 2837 
Q 2550 3084 2163 3084 
Q 1697 3084 1428 2787 
Q 1159 2491 1159 1978 
L 1159 0 
L 581 0 
L 581 3500 
L 1159 3500 
L 1159 2956 
Q 1366 3272 1645 3428 
Q 1925 3584 2291 3584 
Q 2894 3584 3203 3211 
Q 3513 2838 3513 2113 
z
" transform="scale(0.015625)"/>
       <path id="DejaVuSans-73" d="M 2834 3397 
L 2834 2853 
Q 2591 2978 2328 3040 
Q 2066 3103 1784 3103 
Q 1356 3103 1142 2972 
Q 928 2841 928 2578 
Q 928 2378 1081 2264 
Q 1234 2150 1697 2047 
L 1894 2003 
Q 2506 1872 2764 1633 
Q 3022 1394 3022 966 
Q 3022 478 2636 193 
Q 2250 -91 1575 -91 
Q 1294 -91 989 -36 
Q 684 19 347 128 
L 347 722 
Q 666 556 975 473 
Q 1284 391 1588 391 
Q 1994 391 2212 530 
Q 2431 669 2431 922 
Q 2431 1156 2273 1281 
Q 2116 1406 1581 1522 
L 1381 1569 
Q 847 1681 609 1914 
Q 372 2147 372 2553 
Q 372 3047 722 3315 
Q 1072 3584 1716 3584 
Q 2034 3584 2315 3537 
Q 2597 3491 2834 3397 
z
" transform="scale(0.015625)"/>
      </defs>
      <use xlink:href="#DejaVuSans-54"/>
      <use xlink:href="#DejaVuSans-6f" x="44.083984"/>
      <use xlink:href="#DejaVuSans-74" x="105.265625"/>
      <use xlink:href="#DejaVuSans-61" x="144.474609"/>
      <use xlink:href="#DejaVuSans-6c" x="205.753906"/>
      <use xlink:href="#DejaVuSans-20" x="233.537109"/>
      <use xlink:href="#DejaVuSans-47" x="265.324219"/>
      <use xlink:href="#DejaVuSans-69" x="342.814453"/>
      <use xlink:href="#DejaVuSans-74" x="370.597656"/>
      <use xlink:href="#DejaVuSans-48" x="409.806641"/>
      <use xlink:href="#DejaVuSans-75" x="485.001953"/>
      <use xlink:href="#DejaVuSans-62" x="548.380859"/>
      <use xlink:href="#DejaVuSans-20" x="611.857422"/>
      <use xlink:href="#DejaVuSans-43" x="643.644531"/>
      <use xlink:href="#DejaVuSans-6c" x="713.46875"/>
      <use xlink:href="#DejaVuSans-6f" x="741.251953"/>
      <use xlink:href="#DejaVuSans-6e" x="802.433594"/>
      <use xlink:href="#DejaVuSans-65" x="865.8125"/>
      <use xlink:href="#DejaVuSans-73" x="927.335938"/>
     </g>
    </g>
    <g id="line2d_14">
     <path d="M 99 62.336562 
L 109 62.336562 
L 119 62.336562 
" style="fill: none; stroke: #ff7f0e; stroke-width: 1.5; stroke-linecap: square"/>
    </g>
    <g id="text_12">
     <!-- Unique GitHub Clones -->
     <g transform="translate(127 65.836562)scale(0.1 -0.1)">
      <defs>
       <path id="DejaVuSans-55" d="M 556 4666 
L 1191 4666 
L 1191 1831 
Q 1191 1081 1462 751 
Q 1734 422 2344 422 
Q 2950 422 3222 751 
Q 3494 1081 3494 1831 
L 3494 4666 
L 4128 4666 
L 4128 1753 
Q 4128 841 3676 375 
Q 3225 -91 2344 -91 
Q 1459 -91 1007 375 
Q 556 841 556 1753 
L 556 4666 
z
" transform="scale(0.015625)"/>
       <path id="DejaVuSans-71" d="M 947 1747 
Q 947 1113 1208 752 
Q 1469 391 1925 391 
Q 2381 391 2643 752 
Q 2906 1113 2906 1747 
Q 2906 2381 2643 2742 
Q 2381 3103 1925 3103 
Q 1469 3103 1208 2742 
Q 947 2381 947 1747 
z
M 2906 525 
Q 2725 213 2448 61 
Q 2172 -91 1784 -91 
Q 1150 -91 751 415 
Q 353 922 353 1747 
Q 353 2572 751 3078 
Q 1150 3584 1784 3584 
Q 2172 3584 2448 3432 
Q 2725 3281 2906 2969 
L 2906 3500 
L 3481 3500 
L 3481 -1331 
L 2906 -1331 
L 2906 525 
z
" transform="scale(0.015625)"/>
      </defs>
      <use xlink:href="#DejaVuSans-55"/>
      <use xlink:href="#DejaVuSans-6e" x="73.193359"/>
      <use xlink:href="#DejaVuSans-69" x="136.572266"/>
      <use xlink:href="#DejaVuSans-71" x="164.355469"/>
      <use xlink:href="#DejaVuSans-75" x="227.832031"/>
      <use xlink:href="#DejaVuSans-65" x="291.210938"/>
      <use xlink:href="#DejaVuSans-20" x="352.734375"/>
      <use xlink:href="#DejaVuSans-47" x="384.521484"/>
      <use xlink:href="#DejaVuSans-69" x="462.011719"/>
      <use xlink:href="#DejaVuSans-74" x="489.794922"/>
      <use xlink:href="#DejaVuSans-48" x="529.003906"/>
      <use xlink:href="#DejaVuSans-75" x="604.199219"/>
      <use xlink:href="#DejaVuSans-62" x="667.578125"/>
      <use xlink:href="#DejaVuSans-20" x="731.054688"/>
      <use xlink:href="#DejaVuSans-43" x="762.841797"/>
      <use xlink:href="#DejaVuSans-6c" x="832.666016"/>
      <use xlink:href="#DejaVuSans-6f" x="860.449219"/>
      <use xlink:href="#DejaVuSans-6e" x="921.630859"/>
      <use xlink:href="#DejaVuSans-65" x="985.009766"/>
      <use xlink:href="#DejaVuSans-73" x="1046.533203"/>
     </g>
    </g>
   </g>
  </g>
  <g id="axes_2">
   <g id="patch_8">
    <path d="M 90 256.32 
L 648 256.32 
L 648 155.52 
L 90 155.52 
z
" style="fill: #ffffff"/>
   </g>
   <g id="matplotlib.axis_3">
    <g id="xtick_7">
     <g id="line2d_15">
      <g>
       <use xlink:href="#m7a9586ae6f" x="115.363636" y="256.32" style="stroke: #000000; stroke-width: 0.8"/>
      </g>
     </g>
     <g id="text_13">
      <!-- 2020-10-21 -->
      <g transform="translate(86.305824 270.918437)scale(0.1 -0.1)">
       <use xlink:href="#DejaVuSans-32"/>
       <use xlink:href="#DejaVuSans-30" x="63.623047"/>
       <use xlink:href="#DejaVuSans-32" x="127.246094"/>
       <use xlink:href="#DejaVuSans-30" x="190.869141"/>
       <use xlink:href="#DejaVuSans-2d" x="254.492188"/>
       <use xlink:href="#DejaVuSans-31" x="290.576172"/>
       <use xlink:href="#DejaVuSans-30" x="354.199219"/>
       <use xlink:href="#DejaVuSans-2d" x="417.822266"/>
       <use xlink:href="#DejaVuSans-32" x="453.90625"/>
       <use xlink:href="#DejaVuSans-31" x="517.529297"/>
      </g>
     </g>
    </g>
    <g id="xtick_8">
     <g id="line2d_16">
      <g>
       <use xlink:href="#m7a9586ae6f" x="196.139548" y="256.32" style="stroke: #000000; stroke-width: 0.8"/>
      </g>
     </g>
     <g id="text_14">
      <!-- 2021-01-31 -->
      <g transform="translate(167.081736 270.918437)scale(0.1 -0.1)">
       <use xlink:href="#DejaVuSans-32"/>
       <use xlink:href="#DejaVuSans-30" x="63.623047"/>
       <use xlink:href="#DejaVuSans-32" x="127.246094"/>
       <use xlink:href="#DejaVuSans-31" x="190.869141"/>
       <use xlink:href="#DejaVuSans-2d" x="254.492188"/>
       <use xlink:href="#DejaVuSans-30" x="290.576172"/>
       <use xlink:href="#DejaVuSans-31" x="354.199219"/>
       <use xlink:href="#DejaVuSans-2d" x="417.822266"/>
       <use xlink:href="#DejaVuSans-33" x="453.90625"/>
       <use xlink:href="#DejaVuSans-31" x="517.529297"/>
      </g>
     </g>
    </g>
    <g id="xtick_9">
     <g id="line2d_17">
      <g>
       <use xlink:href="#m7a9586ae6f" x="276.91546" y="256.32" style="stroke: #000000; stroke-width: 0.8"/>
      </g>
     </g>
     <g id="text_15">
      <!-- 2021-05-11 -->
      <g transform="translate(247.857648 270.918437)scale(0.1 -0.1)">
       <use xlink:href="#DejaVuSans-32"/>
       <use xlink:href="#DejaVuSans-30" x="63.623047"/>
       <use xlink:href="#DejaVuSans-32" x="127.246094"/>
       <use xlink:href="#DejaVuSans-31" x="190.869141"/>
       <use xlink:href="#DejaVuSans-2d" x="254.492188"/>
       <use xlink:href="#DejaVuSans-30" x="290.576172"/>
       <use xlink:href="#DejaVuSans-35" x="354.199219"/>
       <use xlink:href="#DejaVuSans-2d" x="417.822266"/>
       <use xlink:href="#DejaVuSans-31" x="453.90625"/>
       <use xlink:href="#DejaVuSans-31" x="517.529297"/>
      </g>
     </g>
    </g>
    <g id="xtick_10">
     <g id="line2d_18">
      <g>
       <use xlink:href="#m7a9586ae6f" x="357.691372" y="256.32" style="stroke: #000000; stroke-width: 0.8"/>
      </g>
     </g>
     <g id="text_16">
      <!-- 2021-08-19 -->
      <g transform="translate(328.63356 270.918437)scale(0.1 -0.1)">
       <defs>
        <path id="DejaVuSans-39" d="M 703 97 
L 703 672 
Q 941 559 1184 500 
Q 1428 441 1663 441 
Q 2288 441 2617 861 
Q 2947 1281 2994 2138 
Q 2813 1869 2534 1725 
Q 2256 1581 1919 1581 
Q 1219 1581 811 2004 
Q 403 2428 403 3163 
Q 403 3881 828 4315 
Q 1253 4750 1959 4750 
Q 2769 4750 3195 4129 
Q 3622 3509 3622 2328 
Q 3622 1225 3098 567 
Q 2575 -91 1691 -91 
Q 1453 -91 1209 -44 
Q 966 3 703 97 
z
M 1959 2075 
Q 2384 2075 2632 2365 
Q 2881 2656 2881 3163 
Q 2881 3666 2632 3958 
Q 2384 4250 1959 4250 
Q 1534 4250 1286 3958 
Q 1038 3666 1038 3163 
Q 1038 2656 1286 2365 
Q 1534 2075 1959 2075 
z
" transform="scale(0.015625)"/>
       </defs>
       <use xlink:href="#DejaVuSans-32"/>
       <use xlink:href="#DejaVuSans-30" x="63.623047"/>
       <use xlink:href="#DejaVuSans-32" x="127.246094"/>
       <use xlink:href="#DejaVuSans-31" x="190.869141"/>
       <use xlink:href="#DejaVuSans-2d" x="254.492188"/>
       <use xlink:href="#DejaVuSans-30" x="290.576172"/>
       <use xlink:href="#DejaVuSans-38" x="354.199219"/>
       <use xlink:href="#DejaVuSans-2d" x="417.822266"/>
       <use xlink:href="#DejaVuSans-31" x="453.90625"/>
       <use xlink:href="#DejaVuSans-39" x="517.529297"/>
      </g>
     </g>
    </g>
    <g id="xtick_11">
     <g id="line2d_19">
      <g>
       <use xlink:href="#m7a9586ae6f" x="438.467284" y="256.32" style="stroke: #000000; stroke-width: 0.8"/>
      </g>
     </g>
     <g id="text_17">
      <!-- 2021-11-28 -->
      <g transform="translate(409.409472 270.918437)scale(0.1 -0.1)">
       <use xlink:href="#DejaVuSans-32"/>
       <use xlink:href="#DejaVuSans-30" x="63.623047"/>
       <use xlink:href="#DejaVuSans-32" x="127.246094"/>
       <use xlink:href="#DejaVuSans-31" x="190.869141"/>
       <use xlink:href="#DejaVuSans-2d" x="254.492188"/>
       <use xlink:href="#DejaVuSans-31" x="290.576172"/>
       <use xlink:href="#DejaVuSans-31" x="354.199219"/>
       <use xlink:href="#DejaVuSans-2d" x="417.822266"/>
       <use xlink:href="#DejaVuSans-32" x="453.90625"/>
       <use xlink:href="#DejaVuSans-38" x="517.529297"/>
      </g>
     </g>
    </g>
    <g id="xtick_12">
     <g id="line2d_20">
      <g>
       <use xlink:href="#m7a9586ae6f" x="519.243196" y="256.32" style="stroke: #000000; stroke-width: 0.8"/>
      </g>
     </g>
     <g id="text_18">
      <!-- 2022-03-10 -->
      <g transform="translate(490.185384 270.918437)scale(0.1 -0.1)">
       <use xlink:href="#DejaVuSans-32"/>
       <use xlink:href="#DejaVuSans-30" x="63.623047"/>
       <use xlink:href="#DejaVuSans-32" x="127.246094"/>
       <use xlink:href="#DejaVuSans-32" x="190.869141"/>
       <use xlink:href="#DejaVuSans-2d" x="254.492188"/>
       <use xlink:href="#DejaVuSans-30" x="290.576172"/>
       <use xlink:href="#DejaVuSans-33" x="354.199219"/>
       <use xlink:href="#DejaVuSans-2d" x="417.822266"/>
       <use xlink:href="#DejaVuSans-31" x="453.90625"/>
       <use xlink:href="#DejaVuSans-30" x="517.529297"/>
      </g>
     </g>
    </g>
    <g id="xtick_13">
     <g id="line2d_21">
      <g>
       <use xlink:href="#m7a9586ae6f" x="600.019108" y="256.32" style="stroke: #000000; stroke-width: 0.8"/>
      </g>
     </g>
     <g id="text_19">
      <!-- 2022-06-19 -->
      <g transform="translate(570.961296 270.918437)scale(0.1 -0.1)">
       <defs>
        <path id="DejaVuSans-36" d="M 2113 2584 
Q 1688 2584 1439 2293 
Q 1191 2003 1191 1497 
Q 1191 994 1439 701 
Q 1688 409 2113 409 
Q 2538 409 2786 701 
Q 3034 994 3034 1497 
Q 3034 2003 2786 2293 
Q 2538 2584 2113 2584 
z
M 3366 4563 
L 3366 3988 
Q 3128 4100 2886 4159 
Q 2644 4219 2406 4219 
Q 1781 4219 1451 3797 
Q 1122 3375 1075 2522 
Q 1259 2794 1537 2939 
Q 1816 3084 2150 3084 
Q 2853 3084 3261 2657 
Q 3669 2231 3669 1497 
Q 3669 778 3244 343 
Q 2819 -91 2113 -91 
Q 1303 -91 875 529 
Q 447 1150 447 2328 
Q 447 3434 972 4092 
Q 1497 4750 2381 4750 
Q 2619 4750 2861 4703 
Q 3103 4656 3366 4563 
z
" transform="scale(0.015625)"/>
       </defs>
       <use xlink:href="#DejaVuSans-32"/>
       <use xlink:href="#DejaVuSans-30" x="63.623047"/>
       <use xlink:href="#DejaVuSans-32" x="127.246094"/>
       <use xlink:href="#DejaVuSans-32" x="190.869141"/>
       <use xlink:href="#DejaVuSans-2d" x="254.492188"/>
       <use xlink:href="#DejaVuSans-30" x="290.576172"/>
       <use xlink:href="#DejaVuSans-36" x="354.199219"/>
       <use xlink:href="#DejaVuSans-2d" x="417.822266"/>
       <use xlink:href="#DejaVuSans-31" x="453.90625"/>
       <use xlink:href="#DejaVuSans-39" x="517.529297"/>
      </g>
     </g>
    </g>
    <g id="text_20">
     <!-- _date -->
     <g transform="translate(355.225 284.596563)scale(0.1 -0.1)">
      <use xlink:href="#DejaVuSans-5f"/>
      <use xlink:href="#DejaVuSans-64" x="50"/>
      <use xlink:href="#DejaVuSans-61" x="113.476562"/>
      <use xlink:href="#DejaVuSans-74" x="174.755859"/>
      <use xlink:href="#DejaVuSans-65" x="213.964844"/>
     </g>
    </g>
   </g>
   <g id="matplotlib.axis_4">
    <g id="ytick_5">
     <g id="line2d_22">
      <g>
       <use xlink:href="#mb2828e8474" x="90" y="252.006124" style="stroke: #000000; stroke-width: 0.8"/>
      </g>
     </g>
     <g id="text_21">
      <!-- 0 -->
      <g transform="translate(76.6375 255.805343)scale(0.1 -0.1)">
       <use xlink:href="#DejaVuSans-30"/>
      </g>
     </g>
    </g>
    <g id="ytick_6">
     <g id="line2d_23">
      <g>
       <use xlink:href="#mb2828e8474" x="90" y="225.211866" style="stroke: #000000; stroke-width: 0.8"/>
      </g>
     </g>
     <g id="text_22">
      <!-- 100 -->
      <g transform="translate(63.9125 229.011085)scale(0.1 -0.1)">
       <use xlink:href="#DejaVuSans-31"/>
       <use xlink:href="#DejaVuSans-30" x="63.623047"/>
       <use xlink:href="#DejaVuSans-30" x="127.246094"/>
      </g>
     </g>
    </g>
    <g id="ytick_7">
     <g id="line2d_24">
      <g>
       <use xlink:href="#mb2828e8474" x="90" y="198.417608" style="stroke: #000000; stroke-width: 0.8"/>
      </g>
     </g>
     <g id="text_23">
      <!-- 200 -->
      <g transform="translate(63.9125 202.216826)scale(0.1 -0.1)">
       <use xlink:href="#DejaVuSans-32"/>
       <use xlink:href="#DejaVuSans-30" x="63.623047"/>
       <use xlink:href="#DejaVuSans-30" x="127.246094"/>
      </g>
     </g>
    </g>
    <g id="ytick_8">
     <g id="line2d_25">
      <g>
       <use xlink:href="#mb2828e8474" x="90" y="171.623349" style="stroke: #000000; stroke-width: 0.8"/>
      </g>
     </g>
     <g id="text_24">
      <!-- 300 -->
      <g transform="translate(63.9125 175.422568)scale(0.1 -0.1)">
       <use xlink:href="#DejaVuSans-33"/>
       <use xlink:href="#DejaVuSans-30" x="63.623047"/>
       <use xlink:href="#DejaVuSans-30" x="127.246094"/>
      </g>
     </g>
    </g>
   </g>
   <g id="line2d_26">
    <path d="M 115.363636 251.738182 
L 116.171395 231.910431 
L 116.979155 229.498947 
L 117.786914 244.771675 
L 118.594673 251.470239 
L 119.402432 239.412823 
L 120.210191 239.14488 
L 121.01795 235.393684 
L 121.825709 239.14488 
L 122.633468 239.948708 
L 123.441228 250.666411 
L 124.248987 248.522871 
L 125.056746 247.719043 
L 125.864505 239.948708 
L 126.672264 213.690335 
L 127.480023 227.355407 
L 128.287782 244.235789 
L 129.095541 247.4511 
L 129.903301 251.202297 
L 131.518819 225.747751 
L 132.326578 246.111388 
L 133.134337 243.699904 
L 133.942096 237.537225 
L 134.749855 237.537225 
L 135.557614 249.862584 
L 136.365373 237.805167 
L 137.173133 234.321914 
L 137.980892 243.967847 
L 138.788651 243.967847 
L 139.59641 239.412823 
L 140.404169 247.183158 
L 141.211928 249.326699 
L 142.019687 227.623349 
L 142.827446 249.058756 
L 143.635206 248.254928 
L 144.442965 249.862584 
L 145.250724 247.986986 
L 146.058483 251.470239 
L 146.866242 251.470239 
L 147.674001 229.231005 
L 148.48176 217.173589 
L 149.289519 244.235789 
L 150.097279 245.575502 
L 150.905038 227.891292 
L 151.712797 250.934354 
L 152.520556 245.30756 
L 153.328315 242.092249 
L 154.136074 246.37933 
L 154.943833 237.00134 
L 155.751592 247.183158 
L 156.559351 250.934354 
L 157.367111 251.738182 
L 158.17487 244.235789 
L 158.982629 242.628134 
L 159.790388 242.896077 
L 160.598147 241.556364 
L 161.405906 249.058756 
L 162.213665 250.934354 
L 163.021424 250.666411 
L 163.829184 247.4511 
L 164.636943 247.986986 
L 165.444702 243.164019 
L 166.252461 250.130526 
L 167.06022 251.202297 
L 167.867979 251.470239 
L 168.675738 248.522871 
L 169.483497 249.594641 
L 170.291257 250.398469 
L 171.099016 251.738182 
L 171.906775 247.4511 
L 172.714534 247.719043 
L 173.522293 250.934354 
L 174.330052 246.647273 
L 175.137811 243.164019 
L 175.94557 240.752536 
L 176.753329 247.986986 
L 177.561089 249.058756 
L 178.368848 233.518086 
L 179.176607 250.398469 
L 179.984366 235.125742 
L 180.792125 236.733397 
L 181.599884 240.752536 
L 182.407643 234.589856 
L 183.215402 247.183158 
L 184.023162 235.929569 
L 184.830921 251.202297 
L 185.63868 234.857799 
L 186.446439 236.197512 
L 187.254198 228.159234 
L 188.061957 233.786029 
L 188.869716 240.752536 
L 189.677475 243.431962 
L 190.485235 248.522871 
L 191.292994 230.302775 
L 192.100753 226.015694 
L 192.908512 237.269282 
L 193.716271 235.929569 
L 194.52403 233.518086 
L 195.331789 247.719043 
L 196.139548 248.790813 
L 196.947307 231.374545 
L 197.755067 247.183158 
L 199.370585 234.321914 
L 200.986103 250.934354 
L 201.793862 247.986986 
L 202.601621 236.465455 
L 203.40938 235.929569 
L 204.21714 226.819522 
L 205.024899 242.628134 
L 205.832658 250.398469 
L 206.640417 250.666411 
L 207.448176 249.326699 
L 208.255935 243.164019 
L 209.063694 243.431962 
L 209.871453 247.183158 
L 210.679213 232.178373 
L 211.486972 248.522871 
L 212.294731 242.628134 
L 213.10249 239.948708 
L 213.910249 241.556364 
L 214.718008 227.087464 
L 215.525767 236.733397 
L 216.333526 235.929569 
L 217.141285 240.752536 
L 217.949045 239.14488 
L 218.756804 240.216651 
L 219.564563 187.431962 
L 220.372322 246.111388 
L 221.180081 232.178373 
L 221.98784 235.661627 
L 222.795599 228.427177 
L 223.603358 242.360191 
L 224.411118 202.972632 
L 225.218877 201.364976 
L 226.026636 206.99177 
L 226.834395 230.570718 
L 227.642154 178.321914 
L 228.449913 225.211866 
L 229.257672 246.37933 
L 230.065431 245.575502 
L 230.873191 238.341053 
L 231.68095 232.446316 
L 232.488709 229.231005 
L 233.296468 235.661627 
L 234.104227 225.479809 
L 234.911986 244.235789 
L 235.719745 246.111388 
L 236.527504 208.063541 
L 237.335263 233.786029 
L 238.143023 235.393684 
L 238.950782 246.647273 
L 239.758541 248.790813 
L 240.5663 248.254928 
L 241.374059 234.053971 
L 242.181818 187.967847 
L 242.989577 231.106603 
L 243.797336 235.393684 
L 244.605096 216.369761 
L 245.412855 244.771675 
L 246.220614 248.522871 
L 247.028373 245.30756 
L 247.836132 223.604211 
L 248.643891 239.412823 
L 249.45165 224.943923 
L 250.259409 203.240574 
L 251.067169 234.857799 
L 251.874928 241.824306 
L 252.682687 246.37933 
L 253.490446 180.465455 
L 254.298205 228.963062 
L 255.105964 243.967847 
L 255.913723 236.197512 
L 256.721482 237.537225 
L 257.529241 249.058756 
L 258.337001 247.183158 
L 259.14476 191.183158 
L 259.952519 184.752536 
L 260.760278 201.364976 
L 261.568037 243.431962 
L 262.375796 249.326699 
L 263.183555 237.537225 
L 263.991314 247.719043 
L 265.606833 226.015694 
L 266.414592 167.336268 
L 267.222351 223.872153 
L 268.03011 223.068325 
L 268.837869 227.623349 
L 269.645628 245.843445 
L 270.453387 246.647273 
L 271.261146 221.996555 
L 272.068906 237.00134 
L 272.876665 236.733397 
L 273.684424 227.891292 
L 274.492183 243.699904 
L 275.299942 249.326699 
L 276.107701 201.097033 
L 276.91546 238.07311 
L 277.723219 215.030048 
L 278.530979 209.135311 
L 279.338738 215.565933 
L 280.146497 249.862584 
L 280.954256 249.862584 
L 281.762015 224.140096 
L 282.569774 234.053971 
L 283.377533 233.518086 
L 284.185292 239.680766 
L 284.993052 243.164019 
L 285.800811 248.522871 
L 286.60857 246.37933 
L 287.416329 227.355407 
L 288.224088 244.503732 
L 289.031847 241.020478 
L 289.839606 233.250144 
L 290.647365 239.412823 
L 291.455124 249.862584 
L 292.262884 249.862584 
L 293.070643 243.431962 
L 293.878402 240.752536 
L 294.686161 246.647273 
L 295.49392 241.824306 
L 296.301679 243.967847 
L 297.109438 249.326699 
L 297.917197 247.719043 
L 298.724957 232.178373 
L 299.532716 237.269282 
L 300.340475 172.69512 
L 301.148234 215.833876 
L 301.955993 244.503732 
L 302.763752 242.628134 
L 303.571511 250.130526 
L 304.37927 233.250144 
L 305.18703 235.125742 
L 305.994789 242.360191 
L 306.802548 241.556364 
L 307.610307 236.465455 
L 308.418066 249.862584 
L 309.225825 250.398469 
L 310.033584 196.274067 
L 310.841343 239.948708 
L 311.649102 245.30756 
L 312.456862 247.4511 
L 313.264621 204.312344 
L 314.07238 247.4511 
L 314.880139 248.254928 
L 316.495657 242.360191 
L 317.303416 242.628134 
L 318.111175 225.479809 
L 318.918935 244.771675 
L 319.726694 249.862584 
L 320.534453 243.967847 
L 321.342212 245.575502 
L 322.149971 183.948708 
L 322.95773 200.293206 
L 323.765489 241.020478 
L 325.381008 245.039617 
L 326.188767 244.503732 
L 326.996526 232.714258 
L 327.804285 242.628134 
L 328.612044 243.699904 
L 329.419803 223.872153 
L 330.227562 239.948708 
L 331.035321 250.398469 
L 331.84308 251.738182 
L 332.65084 245.039617 
L 333.458599 245.575502 
L 334.266358 246.915215 
L 335.074117 243.967847 
L 335.881876 246.37933 
L 336.689635 249.594641 
L 337.497394 251.202297 
L 338.305153 243.967847 
L 339.112913 243.699904 
L 339.920672 231.910431 
L 340.728431 230.302775 
L 341.53619 250.666411 
L 342.343949 246.37933 
L 343.151708 251.738182 
L 343.959467 239.680766 
L 344.767226 240.752536 
L 345.574986 243.164019 
L 346.382745 240.484593 
L 347.190504 248.522871 
L 347.998263 245.843445 
L 348.806022 250.130526 
L 349.613781 237.537225 
L 350.42154 239.412823 
L 351.229299 244.235789 
L 352.037058 241.288421 
L 352.844818 232.446316 
L 353.652577 242.360191 
L 354.460336 248.522871 
L 355.268095 233.518086 
L 356.075854 250.398469 
L 356.883613 246.111388 
L 357.691372 244.503732 
L 358.499131 251.202297 
L 359.306891 250.934354 
L 360.11465 245.039617 
L 360.922409 245.575502 
L 361.730168 233.250144 
L 362.537927 231.642488 
L 363.345686 249.058756 
L 364.153445 249.862584 
L 364.961204 250.398469 
L 365.768964 242.628134 
L 366.576723 228.159234 
L 367.384482 236.465455 
L 368.192241 236.197512 
L 369 245.30756 
L 369.807759 249.862584 
L 370.615518 245.843445 
L 371.423277 246.647273 
L 372.231036 249.862584 
L 373.038796 237.269282 
L 373.846555 247.719043 
L 374.654314 242.628134 
L 375.462073 226.015694 
L 376.269832 250.934354 
L 377.077591 248.254928 
L 377.88535 233.786029 
L 378.693109 216.905646 
L 379.500869 236.733397 
L 380.308628 248.254928 
L 381.116387 247.719043 
L 381.924146 250.398469 
L 382.731905 246.647273 
L 383.539664 232.178373 
L 384.347423 230.570718 
L 385.155182 221.46067 
L 385.962942 233.786029 
L 386.770701 248.522871 
L 387.57846 251.470239 
L 388.386219 248.522871 
L 389.193978 249.862584 
L 390.001737 239.948708 
L 390.809496 189.575502 
L 391.617255 229.498947 
L 392.425014 242.628134 
L 393.232774 241.020478 
L 394.040533 230.83866 
L 394.848292 230.83866 
L 395.656051 220.924785 
L 396.46381 198.417608 
L 397.271569 217.441531 
L 398.079328 246.37933 
L 398.887087 250.666411 
L 399.694847 224.675981 
L 400.502606 228.159234 
L 401.310365 212.618565 
L 402.118124 240.216651 
L 402.925883 236.197512 
L 403.733642 246.111388 
L 404.541401 248.254928 
L 405.34916 215.565933 
L 406.15692 238.608995 
L 406.964679 249.594641 
L 407.772438 223.604211 
L 408.580197 164.924785 
L 409.387956 240.484593 
L 410.195715 235.929569 
L 411.003474 227.891292 
L 411.811233 228.963062 
L 412.618992 242.896077 
L 413.426752 232.446316 
L 414.234511 238.876938 
L 415.04227 246.915215 
L 415.850029 245.843445 
L 416.657788 235.929569 
L 417.465547 249.058756 
L 418.273306 243.431962 
L 419.081065 229.498947 
L 420.696584 250.934354 
L 421.504343 250.130526 
L 422.312102 245.039617 
L 423.119861 231.642488 
L 423.92762 240.752536 
L 424.735379 247.183158 
L 425.543138 247.986986 
L 426.350898 247.986986 
L 427.158657 248.790813 
L 427.966416 239.412823 
L 428.774175 235.661627 
L 429.581934 243.967847 
L 431.197452 237.537225 
L 432.005211 250.130526 
L 432.81297 249.862584 
L 433.62073 234.589856 
L 434.428489 232.982201 
L 435.236248 245.575502 
L 436.851766 250.934354 
L 437.659525 248.522871 
L 438.467284 247.719043 
L 439.275043 244.503732 
L 440.082803 228.69512 
L 440.890562 238.341053 
L 441.698321 238.876938 
L 442.50608 226.819522 
L 443.313839 249.862584 
L 444.121598 228.159234 
L 444.929357 237.269282 
L 445.737116 202.972632 
L 446.544876 239.948708 
L 447.352635 221.996555 
L 448.160394 247.4511 
L 448.968153 248.254928 
L 449.775912 230.034833 
L 450.583671 208.599426 
L 451.39143 234.589856 
L 452.199189 237.269282 
L 453.006948 243.431962 
L 453.814708 233.250144 
L 454.622467 249.058756 
L 455.430226 217.173589 
L 456.237985 235.929569 
L 457.045744 239.948708 
L 457.853503 242.628134 
L 458.661262 242.896077 
L 459.469021 246.915215 
L 460.276781 249.058756 
L 461.08454 245.843445 
L 461.892299 248.790813 
L 462.700058 250.934354 
L 463.507817 249.594641 
L 464.315576 249.326699 
L 465.123335 246.915215 
L 465.931094 217.709474 
L 467.546613 242.092249 
L 468.354372 243.164019 
L 469.162131 249.862584 
L 469.96989 250.934354 
L 470.777649 251.738182 
L 472.393167 236.733397 
L 473.200926 241.288421 
L 474.008686 219.585072 
L 474.816445 246.915215 
L 475.624204 246.111388 
L 476.431963 250.934354 
L 477.239722 247.719043 
L 478.047481 239.412823 
L 478.85524 244.771675 
L 479.662999 242.092249 
L 480.470759 245.843445 
L 481.278518 250.666411 
L 482.086277 250.130526 
L 482.894036 219.585072 
L 483.701795 220.120957 
L 484.509554 235.929569 
L 485.317313 247.719043 
L 486.125072 217.441531 
L 486.932831 246.915215 
L 487.740591 235.929569 
L 488.54835 212.886507 
L 489.356109 238.07311 
L 490.163868 209.939139 
L 490.971627 198.68555 
L 491.779386 232.714258 
L 492.587145 250.666411 
L 493.394904 249.862584 
L 494.202664 196.809952 
L 495.010423 208.867368 
L 495.818182 223.872153 
L 496.625941 224.675981 
L 497.4337 179.125742 
L 498.241459 243.967847 
L 499.049218 245.575502 
L 499.856977 217.441531 
L 500.664737 226.015694 
L 501.472496 242.628134 
L 502.280255 240.752536 
L 503.088014 226.283636 
L 503.895773 247.719043 
L 504.703532 249.862584 
L 505.511291 225.747751 
L 506.31905 235.929569 
L 507.126809 223.336268 
L 507.934569 232.178373 
L 508.742328 216.369761 
L 509.550087 239.680766 
L 510.357846 248.254928 
L 511.165605 222.264498 
L 511.973364 228.427177 
L 512.781123 231.910431 
L 513.588882 227.623349 
L 514.396642 185.824306 
L 515.204401 223.872153 
L 516.01216 241.288421 
L 516.819919 160.101818 
L 517.627678 200.829091 
L 518.435437 224.943923 
L 519.243196 241.288421 
L 520.050955 239.680766 
L 520.858715 243.967847 
L 521.666474 247.4511 
L 522.474233 211.814737 
L 523.281992 223.068325 
L 524.089751 209.671196 
L 524.89751 213.15445 
L 525.705269 225.211866 
L 526.513028 250.130526 
L 527.320787 249.594641 
L 528.128547 213.422392 
L 528.936306 235.661627 
L 529.744065 222.53244 
L 530.551824 230.570718 
L 531.359583 235.393684 
L 532.167342 242.896077 
L 532.975101 247.719043 
L 533.78286 229.76689 
L 534.59062 236.197512 
L 535.398379 216.637703 
L 536.206138 214.22622 
L 537.013897 242.896077 
L 537.821656 249.058756 
L 538.629415 251.738182 
L 539.437174 239.680766 
L 540.244933 237.805167 
L 541.052693 243.699904 
L 541.860452 235.661627 
L 542.668211 244.235789 
L 543.47597 249.326699 
L 544.283729 250.130526 
L 545.091488 242.896077 
L 545.899247 234.589856 
L 546.707006 247.986986 
L 547.514765 247.986986 
L 548.322525 243.967847 
L 549.130284 240.752536 
L 549.938043 229.498947 
L 550.745802 239.14488 
L 551.553561 238.608995 
L 552.36132 246.37933 
L 553.976838 247.4511 
L 554.784598 250.398469 
L 555.592357 248.790813 
L 557.207875 232.178373 
L 558.015634 234.857799 
L 558.823393 242.896077 
L 559.631152 235.661627 
L 560.438911 249.862584 
L 561.246671 251.470239 
L 562.05443 243.699904 
L 562.862189 246.37933 
L 563.669948 233.786029 
L 564.477707 213.15445 
L 565.285466 244.235789 
L 566.093225 250.666411 
L 566.900984 249.326699 
L 567.708743 240.484593 
L 568.516503 236.733397 
L 569.324262 239.412823 
L 570.132021 238.341053 
L 570.93978 234.857799 
L 571.747539 250.934354 
L 572.555298 241.288421 
L 573.363057 228.159234 
L 574.170816 226.819522 
L 574.978576 245.575502 
L 575.786335 248.254928 
L 576.594094 211.278852 
L 577.401853 247.986986 
L 578.209612 250.666411 
L 579.017371 227.891292 
L 579.82513 246.111388 
L 580.632889 221.192727 
L 581.440649 229.498947 
L 582.248408 246.111388 
L 583.056167 251.470239 
L 583.863926 251.470239 
L 584.671685 249.862584 
L 585.479444 244.503732 
L 586.287203 245.843445 
L 587.094962 243.431962 
L 587.902721 251.470239 
L 588.710481 249.862584 
L 589.51824 251.738182 
L 590.325999 245.575502 
L 591.133758 247.986986 
L 591.941517 244.771675 
L 592.749276 243.164019 
L 593.557035 250.666411 
L 594.364794 251.202297 
L 595.172554 241.020478 
L 595.980313 220.656842 
L 596.788072 245.843445 
L 597.595831 246.111388 
L 598.40359 240.484593 
L 599.211349 248.254928 
L 600.019108 251.470239 
L 600.826867 247.4511 
L 601.634627 247.986986 
L 602.442386 241.556364 
L 603.250145 243.699904 
L 604.057904 244.235789 
L 604.865663 249.326699 
L 605.673422 251.470239 
L 606.481181 251.202297 
L 607.28894 243.164019 
L 608.096699 243.967847 
L 608.904459 247.4511 
L 609.712218 237.537225 
L 610.519977 249.058756 
L 611.327736 250.934354 
L 612.135495 248.790813 
L 612.943254 250.934354 
L 613.751013 239.14488 
L 615.366532 227.623349 
L 616.174291 228.427177 
L 616.98205 247.719043 
L 617.789809 249.594641 
L 618.597568 221.728612 
L 619.405327 238.07311 
L 620.213086 246.647273 
L 621.020845 243.699904 
L 621.828605 234.589856 
L 622.636364 251.202297 
L 622.636364 251.202297 
" clip-path="url(#p5b551adbc3)" style="fill: none; stroke: #1f77b4; stroke-width: 1.5; stroke-linecap: square"/>
   </g>
   <g id="line2d_27">
    <path d="M 115.363636 251.738182 
L 116.171395 249.594641 
L 116.979155 248.522871 
L 117.786914 249.594641 
L 118.594673 251.738182 
L 119.402432 250.130526 
L 120.210191 249.326699 
L 121.01795 249.326699 
L 121.825709 249.058756 
L 122.633468 249.594641 
L 123.441228 251.470239 
L 126.672264 249.326699 
L 127.480023 249.058756 
L 128.287782 250.130526 
L 129.903301 251.738182 
L 130.71106 249.058756 
L 131.518819 249.594641 
L 132.326578 250.666411 
L 133.134337 250.934354 
L 133.942096 250.666411 
L 134.749855 251.470239 
L 135.557614 251.202297 
L 136.365373 250.130526 
L 137.173133 251.202297 
L 137.980892 249.058756 
L 138.788651 249.862584 
L 139.59641 250.398469 
L 140.404169 251.202297 
L 141.211928 251.202297 
L 142.019687 247.719043 
L 142.827446 251.470239 
L 143.635206 251.470239 
L 144.442965 251.202297 
L 146.058483 251.738182 
L 146.866242 251.470239 
L 147.674001 249.594641 
L 148.48176 247.183158 
L 149.289519 248.790813 
L 150.097279 250.130526 
L 150.905038 250.130526 
L 151.712797 251.470239 
L 152.520556 250.398469 
L 153.328315 250.130526 
L 154.136074 250.934354 
L 154.943833 247.986986 
L 155.751592 249.594641 
L 156.559351 251.470239 
L 157.367111 251.738182 
L 158.17487 249.326699 
L 159.790388 249.326699 
L 160.598147 250.130526 
L 161.405906 250.398469 
L 162.213665 251.202297 
L 163.021424 251.470239 
L 163.829184 250.934354 
L 164.636943 250.666411 
L 165.444702 251.202297 
L 167.06022 251.202297 
L 167.867979 251.470239 
L 168.675738 250.934354 
L 170.291257 250.934354 
L 171.099016 251.738182 
L 171.906775 251.202297 
L 172.714534 251.202297 
L 173.522293 250.934354 
L 174.330052 249.862584 
L 175.137811 248.254928 
L 175.94557 250.130526 
L 176.753329 251.202297 
L 177.561089 250.934354 
L 178.368848 250.934354 
L 179.176607 251.202297 
L 179.984366 249.594641 
L 180.792125 248.790813 
L 181.599884 249.862584 
L 182.407643 247.183158 
L 183.215402 249.862584 
L 184.023162 250.398469 
L 184.830921 251.202297 
L 185.63868 250.666411 
L 186.446439 250.666411 
L 187.254198 248.522871 
L 188.061957 249.594641 
L 188.869716 249.326699 
L 189.677475 249.326699 
L 190.485235 250.398469 
L 191.292994 246.37933 
L 192.100753 247.986986 
L 192.908512 249.326699 
L 193.716271 247.719043 
L 194.52403 246.647273 
L 195.331789 250.934354 
L 196.139548 250.666411 
L 196.947307 248.790813 
L 197.755067 250.130526 
L 198.562826 248.254928 
L 199.370585 249.594641 
L 200.178344 249.594641 
L 200.986103 250.934354 
L 201.793862 251.202297 
L 202.601621 249.058756 
L 203.40938 248.254928 
L 204.21714 248.522871 
L 205.024899 250.934354 
L 205.832658 251.470239 
L 207.448176 250.934354 
L 208.255935 250.934354 
L 209.063694 249.594641 
L 209.871453 250.398469 
L 210.679213 249.058756 
L 211.486972 250.934354 
L 212.294731 250.398469 
L 213.10249 250.934354 
L 213.910249 249.326699 
L 214.718008 249.058756 
L 215.525767 249.058756 
L 216.333526 248.254928 
L 217.141285 250.398469 
L 217.949045 250.934354 
L 218.756804 250.934354 
L 219.564563 242.896077 
L 220.372322 249.058756 
L 221.180081 249.058756 
L 221.98784 247.719043 
L 222.795599 249.326699 
L 223.603358 250.666411 
L 224.411118 250.666411 
L 225.218877 246.647273 
L 226.026636 246.915215 
L 226.834395 248.522871 
L 227.642154 246.915215 
L 228.449913 247.719043 
L 229.257672 250.130526 
L 230.065431 250.934354 
L 230.873191 247.719043 
L 231.68095 246.37933 
L 232.488709 247.4511 
L 233.296468 247.719043 
L 234.911986 251.202297 
L 235.719745 250.130526 
L 236.527504 247.986986 
L 237.335263 247.986986 
L 238.143023 248.790813 
L 238.950782 250.666411 
L 240.5663 251.202297 
L 241.374059 250.130526 
L 242.181818 246.647273 
L 242.989577 247.4511 
L 243.797336 248.790813 
L 244.605096 247.183158 
L 245.412855 249.862584 
L 246.220614 251.202297 
L 247.836132 249.594641 
L 248.643891 248.522871 
L 249.45165 248.790813 
L 250.259409 247.719043 
L 251.067169 249.326699 
L 251.874928 249.594641 
L 252.682687 250.934354 
L 253.490446 245.843445 
L 254.298205 248.254928 
L 255.105964 249.058756 
L 255.913723 249.326699 
L 256.721482 249.326699 
L 257.529241 250.934354 
L 258.337001 250.398469 
L 259.14476 246.111388 
L 259.952519 244.771675 
L 260.760278 247.183158 
L 261.568037 249.058756 
L 262.375796 250.398469 
L 263.183555 249.326699 
L 263.991314 250.398469 
L 264.799074 246.647273 
L 265.606833 246.915215 
L 266.414592 230.302775 
L 267.222351 248.254928 
L 268.03011 246.915215 
L 268.837869 250.666411 
L 269.645628 251.738182 
L 270.453387 249.862584 
L 271.261146 248.522871 
L 272.068906 248.522871 
L 272.876665 248.790813 
L 273.684424 247.986986 
L 275.299942 251.202297 
L 276.107701 249.326699 
L 276.91546 248.522871 
L 277.723219 247.183158 
L 278.530979 247.4511 
L 279.338738 246.111388 
L 280.146497 250.666411 
L 280.954256 251.738182 
L 281.762015 246.111388 
L 282.569774 247.4511 
L 283.377533 249.594641 
L 284.185292 247.719043 
L 284.993052 248.522871 
L 285.800811 251.470239 
L 286.60857 250.398469 
L 287.416329 248.522871 
L 288.224088 249.594641 
L 289.031847 248.254928 
L 289.839606 246.647273 
L 291.455124 250.934354 
L 292.262884 251.202297 
L 293.070643 249.326699 
L 293.878402 247.986986 
L 294.686161 250.130526 
L 295.49392 249.594641 
L 296.301679 249.594641 
L 297.917197 250.130526 
L 298.724957 247.183158 
L 299.532716 249.058756 
L 300.340475 249.058756 
L 301.148234 250.130526 
L 301.955993 249.326699 
L 302.763752 251.202297 
L 303.571511 250.398469 
L 304.37927 248.522871 
L 305.18703 249.326699 
L 305.994789 249.058756 
L 306.802548 248.522871 
L 307.610307 249.326699 
L 308.418066 251.202297 
L 309.225825 250.934354 
L 310.033584 247.719043 
L 310.841343 250.666411 
L 311.649102 249.862584 
L 312.456862 249.326699 
L 313.264621 246.111388 
L 314.07238 251.202297 
L 314.880139 250.666411 
L 315.687898 249.862584 
L 316.495657 250.398469 
L 317.303416 249.058756 
L 318.111175 248.254928 
L 318.918935 249.326699 
L 319.726694 250.934354 
L 320.534453 250.934354 
L 321.342212 249.594641 
L 322.149971 247.4511 
L 322.95773 247.4511 
L 323.765489 250.398469 
L 324.573248 248.790813 
L 325.381008 250.666411 
L 326.188767 249.594641 
L 326.996526 247.986986 
L 327.804285 248.790813 
L 328.612044 248.790813 
L 329.419803 247.986986 
L 330.227562 248.254928 
L 331.035321 251.202297 
L 331.84308 251.738182 
L 332.65084 250.130526 
L 333.458599 250.130526 
L 334.266358 250.398469 
L 335.074117 250.398469 
L 335.881876 250.666411 
L 337.497394 251.738182 
L 338.305153 250.398469 
L 339.112913 249.594641 
L 339.920672 249.862584 
L 340.728431 248.790813 
L 341.53619 251.202297 
L 342.343949 250.398469 
L 343.151708 251.738182 
L 343.959467 250.398469 
L 344.767226 250.398469 
L 345.574986 248.522871 
L 346.382745 247.986986 
L 347.190504 249.594641 
L 347.998263 250.666411 
L 348.806022 250.666411 
L 349.613781 248.790813 
L 350.42154 249.594641 
L 351.229299 249.862584 
L 352.037058 249.862584 
L 352.844818 249.058756 
L 353.652577 249.326699 
L 354.460336 250.666411 
L 355.268095 248.522871 
L 356.075854 251.470239 
L 356.883613 249.862584 
L 357.691372 249.862584 
L 358.499131 251.202297 
L 359.306891 250.934354 
L 360.11465 250.130526 
L 360.922409 250.130526 
L 361.730168 249.326699 
L 362.537927 249.594641 
L 363.345686 251.202297 
L 364.153445 250.934354 
L 364.961204 251.470239 
L 365.768964 250.398469 
L 366.576723 250.130526 
L 367.384482 248.790813 
L 368.192241 249.326699 
L 369 250.398469 
L 369.807759 250.934354 
L 370.615518 250.398469 
L 371.423277 251.470239 
L 372.231036 250.934354 
L 373.038796 249.326699 
L 373.846555 250.130526 
L 374.654314 251.202297 
L 375.462073 248.522871 
L 376.269832 251.470239 
L 377.077591 251.202297 
L 377.88535 248.254928 
L 379.500869 249.326699 
L 380.308628 250.398469 
L 381.116387 249.862584 
L 381.924146 251.202297 
L 382.731905 250.666411 
L 383.539664 247.986986 
L 384.347423 249.862584 
L 385.155182 249.326699 
L 385.962942 249.862584 
L 386.770701 249.862584 
L 387.57846 251.470239 
L 388.386219 251.470239 
L 389.193978 250.934354 
L 390.001737 248.522871 
L 391.617255 248.522871 
L 392.425014 249.862584 
L 393.232774 249.862584 
L 394.040533 249.058756 
L 394.848292 248.790813 
L 395.656051 247.4511 
L 396.46381 249.594641 
L 397.271569 247.719043 
L 398.079328 250.130526 
L 398.887087 251.202297 
L 399.694847 250.398469 
L 400.502606 249.862584 
L 401.310365 248.254928 
L 402.118124 248.522871 
L 402.925883 249.326699 
L 403.733642 249.862584 
L 404.541401 250.130526 
L 405.34916 247.719043 
L 406.15692 248.522871 
L 406.964679 250.666411 
L 407.772438 249.594641 
L 409.387956 249.058756 
L 410.195715 249.594641 
L 411.003474 247.719043 
L 411.811233 250.130526 
L 412.618992 250.398469 
L 413.426752 248.522871 
L 414.234511 249.058756 
L 415.04227 250.934354 
L 415.850029 250.398469 
L 416.657788 249.594641 
L 417.465547 250.934354 
L 418.273306 249.326699 
L 419.081065 248.790813 
L 419.888825 249.058756 
L 420.696584 251.202297 
L 421.504343 251.202297 
L 422.312102 249.326699 
L 423.119861 250.398469 
L 423.92762 247.986986 
L 425.543138 250.130526 
L 426.350898 250.666411 
L 427.158657 250.130526 
L 427.966416 249.058756 
L 428.774175 247.4511 
L 429.581934 248.522871 
L 430.389693 247.986986 
L 431.197452 249.058756 
L 432.005211 250.666411 
L 432.81297 250.934354 
L 433.62073 249.326699 
L 434.428489 250.666411 
L 435.236248 249.862584 
L 436.044007 250.130526 
L 436.851766 251.470239 
L 437.659525 250.934354 
L 438.467284 250.934354 
L 439.275043 251.470239 
L 440.082803 249.594641 
L 440.890562 250.398469 
L 441.698321 249.058756 
L 442.50608 250.666411 
L 443.313839 251.202297 
L 444.121598 249.058756 
L 444.929357 249.594641 
L 445.737116 249.594641 
L 446.544876 246.915215 
L 447.352635 246.647273 
L 448.160394 250.398469 
L 448.968153 250.398469 
L 449.775912 248.790813 
L 450.583671 248.790813 
L 451.39143 249.862584 
L 452.199189 249.326699 
L 453.006948 250.398469 
L 453.814708 250.666411 
L 454.622467 250.666411 
L 455.430226 248.254928 
L 456.237985 249.862584 
L 457.045744 250.666411 
L 457.853503 250.934354 
L 458.661262 249.594641 
L 459.469021 251.738182 
L 460.276781 251.470239 
L 461.08454 250.934354 
L 461.892299 250.934354 
L 462.700058 251.202297 
L 463.507817 250.666411 
L 464.315576 251.202297 
L 465.123335 250.398469 
L 465.931094 244.771675 
L 466.738854 247.4511 
L 467.546613 249.326699 
L 469.96989 250.934354 
L 470.777649 251.738182 
L 471.585408 249.594641 
L 472.393167 249.594641 
L 473.200926 249.058756 
L 474.008686 246.111388 
L 474.816445 250.666411 
L 475.624204 251.738182 
L 476.431963 251.470239 
L 477.239722 250.666411 
L 478.047481 248.254928 
L 478.85524 250.934354 
L 479.662999 250.130526 
L 480.470759 248.522871 
L 481.278518 251.202297 
L 482.086277 251.202297 
L 482.894036 250.130526 
L 483.701795 247.986986 
L 484.509554 248.790813 
L 485.317313 249.862584 
L 486.125072 249.326699 
L 486.932831 250.934354 
L 487.740591 250.666411 
L 488.54835 248.254928 
L 489.356109 249.326699 
L 490.163868 247.183158 
L 490.971627 246.647273 
L 491.779386 247.183158 
L 492.587145 251.202297 
L 493.394904 251.738182 
L 494.202664 247.986986 
L 495.010423 246.111388 
L 495.818182 247.986986 
L 496.625941 246.647273 
L 497.4337 243.431962 
L 498.241459 249.594641 
L 499.049218 249.326699 
L 499.856977 247.4511 
L 500.664737 247.183158 
L 501.472496 248.254928 
L 502.280255 248.790813 
L 503.088014 247.986986 
L 503.895773 249.862584 
L 504.703532 250.934354 
L 505.511291 247.719043 
L 507.126809 248.254928 
L 507.934569 246.915215 
L 508.742328 247.4511 
L 509.550087 247.719043 
L 510.357846 250.666411 
L 511.165605 245.843445 
L 511.973364 245.843445 
L 512.781123 243.967847 
L 513.588882 247.183158 
L 514.396642 247.183158 
L 515.204401 249.862584 
L 516.01216 249.058756 
L 516.819919 247.986986 
L 517.627678 245.843445 
L 518.435437 248.522871 
L 519.243196 249.058756 
L 520.050955 249.326699 
L 520.858715 249.326699 
L 521.666474 249.862584 
L 522.474233 246.647273 
L 523.281992 247.183158 
L 524.089751 245.039617 
L 524.89751 247.986986 
L 525.705269 247.183158 
L 526.513028 250.934354 
L 527.320787 251.202297 
L 528.128547 243.967847 
L 528.936306 247.4511 
L 529.744065 245.575502 
L 530.551824 246.37933 
L 531.359583 249.594641 
L 532.167342 250.398469 
L 532.975101 250.398469 
L 533.78286 248.522871 
L 534.59062 249.326699 
L 535.398379 247.183158 
L 536.206138 246.915215 
L 537.013897 249.594641 
L 537.821656 249.862584 
L 538.629415 251.738182 
L 539.437174 248.522871 
L 540.244933 248.254928 
L 541.052693 249.058756 
L 541.860452 244.771675 
L 542.668211 249.326699 
L 543.47597 251.470239 
L 544.283729 250.934354 
L 545.091488 249.058756 
L 545.899247 249.594641 
L 546.707006 249.594641 
L 547.514765 250.666411 
L 548.322525 250.666411 
L 549.130284 251.202297 
L 549.938043 250.666411 
L 550.745802 249.326699 
L 551.553561 249.058756 
L 552.36132 249.326699 
L 553.169079 250.130526 
L 553.976838 249.594641 
L 554.784598 250.666411 
L 555.592357 249.594641 
L 556.400116 248.790813 
L 557.207875 248.522871 
L 558.015634 248.522871 
L 558.823393 249.862584 
L 559.631152 246.915215 
L 560.438911 251.470239 
L 561.246671 251.470239 
L 562.05443 249.058756 
L 562.862189 250.398469 
L 563.669948 250.398469 
L 564.477707 248.254928 
L 565.285466 249.862584 
L 566.093225 251.202297 
L 566.900984 250.398469 
L 567.708743 249.326699 
L 568.516503 248.522871 
L 569.324262 249.058756 
L 570.132021 247.4511 
L 570.93978 249.594641 
L 571.747539 250.934354 
L 572.555298 250.130526 
L 573.363057 246.647273 
L 574.170816 247.986986 
L 574.978576 250.666411 
L 575.786335 250.130526 
L 576.594094 248.522871 
L 577.401853 250.130526 
L 578.209612 251.470239 
L 579.017371 249.594641 
L 579.82513 250.130526 
L 580.632889 249.594641 
L 581.440649 248.790813 
L 582.248408 250.398469 
L 583.056167 251.470239 
L 583.863926 251.470239 
L 584.671685 250.666411 
L 585.479444 250.130526 
L 586.287203 250.130526 
L 587.094962 249.058756 
L 587.902721 251.470239 
L 588.710481 250.934354 
L 589.51824 251.738182 
L 590.325999 250.398469 
L 591.133758 249.862584 
L 591.941517 249.594641 
L 592.749276 248.522871 
L 593.557035 251.202297 
L 594.364794 251.470239 
L 595.172554 249.326699 
L 595.980313 249.594641 
L 596.788072 250.130526 
L 597.595831 250.398469 
L 598.40359 249.862584 
L 599.211349 251.470239 
L 600.019108 251.738182 
L 600.826867 250.934354 
L 601.634627 251.202297 
L 602.442386 250.398469 
L 603.250145 249.058756 
L 604.057904 251.202297 
L 604.865663 250.666411 
L 605.673422 251.470239 
L 606.481181 251.202297 
L 607.28894 250.130526 
L 608.096699 249.594641 
L 608.904459 250.130526 
L 609.712218 249.058756 
L 610.519977 250.666411 
L 611.327736 251.470239 
L 612.135495 250.130526 
L 612.943254 251.202297 
L 613.751013 250.666411 
L 614.558772 250.666411 
L 615.366532 248.522871 
L 616.174291 249.594641 
L 616.98205 250.934354 
L 617.789809 251.202297 
L 618.597568 249.594641 
L 619.405327 249.594641 
L 620.213086 250.666411 
L 621.020845 249.594641 
L 621.828605 249.594641 
L 622.636364 251.470239 
L 622.636364 251.470239 
" clip-path="url(#p5b551adbc3)" style="fill: none; stroke: #ff7f0e; stroke-width: 1.5; stroke-linecap: square"/>
   </g>
   <g id="patch_9">
    <path d="M 90 256.32 
L 90 155.52 
" style="fill: none; stroke: #000000; stroke-width: 0.8; stroke-linejoin: miter; stroke-linecap: square"/>
   </g>
   <g id="patch_10">
    <path d="M 648 256.32 
L 648 155.52 
" style="fill: none; stroke: #000000; stroke-width: 0.8; stroke-linejoin: miter; stroke-linecap: square"/>
   </g>
   <g id="patch_11">
    <path d="M 90 256.32 
L 648 256.32 
" style="fill: none; stroke: #000000; stroke-width: 0.8; stroke-linejoin: miter; stroke-linecap: square"/>
   </g>
   <g id="patch_12">
    <path d="M 90 155.52 
L 648 155.52 
" style="fill: none; stroke: #000000; stroke-width: 0.8; stroke-linejoin: miter; stroke-linecap: square"/>
   </g>
   <g id="legend_2">
    <g id="patch_13">
     <path d="M 503.782812 192.87625 
L 641 192.87625 
Q 643 192.87625 643 190.87625 
L 643 162.52 
Q 643 160.52 641 160.52 
L 503.782812 160.52 
Q 501.782812 160.52 501.782812 162.52 
L 501.782812 190.87625 
Q 501.782812 192.87625 503.782812 192.87625 
z
" style="fill: #ffffff; opacity: 0.8; stroke: #cccccc; stroke-linejoin: miter"/>
    </g>
    <g id="line2d_28">
     <path d="M 505.782812 168.618437 
L 515.782812 168.618437 
L 525.782812 168.618437 
" style="fill: none; stroke: #1f77b4; stroke-width: 1.5; stroke-linecap: square"/>
    </g>
    <g id="text_25">
     <!-- Total GitHub Views -->
     <g transform="translate(533.782812 172.118437)scale(0.1 -0.1)">
      <defs>
       <path id="DejaVuSans-56" d="M 1831 0 
L 50 4666 
L 709 4666 
L 2188 738 
L 3669 4666 
L 4325 4666 
L 2547 0 
L 1831 0 
z
" transform="scale(0.015625)"/>
       <path id="DejaVuSans-77" d="M 269 3500 
L 844 3500 
L 1563 769 
L 2278 3500 
L 2956 3500 
L 3675 769 
L 4391 3500 
L 4966 3500 
L 4050 0 
L 3372 0 
L 2619 2869 
L 1863 0 
L 1184 0 
L 269 3500 
z
" transform="scale(0.015625)"/>
      </defs>
      <use xlink:href="#DejaVuSans-54"/>
      <use xlink:href="#DejaVuSans-6f" x="44.083984"/>
      <use xlink:href="#DejaVuSans-74" x="105.265625"/>
      <use xlink:href="#DejaVuSans-61" x="144.474609"/>
      <use xlink:href="#DejaVuSans-6c" x="205.753906"/>
      <use xlink:href="#DejaVuSans-20" x="233.537109"/>
      <use xlink:href="#DejaVuSans-47" x="265.324219"/>
      <use xlink:href="#DejaVuSans-69" x="342.814453"/>
      <use xlink:href="#DejaVuSans-74" x="370.597656"/>
      <use xlink:href="#DejaVuSans-48" x="409.806641"/>
      <use xlink:href="#DejaVuSans-75" x="485.001953"/>
      <use xlink:href="#DejaVuSans-62" x="548.380859"/>
      <use xlink:href="#DejaVuSans-20" x="611.857422"/>
      <use xlink:href="#DejaVuSans-56" x="643.644531"/>
      <use xlink:href="#DejaVuSans-69" x="709.802734"/>
      <use xlink:href="#DejaVuSans-65" x="737.585938"/>
      <use xlink:href="#DejaVuSans-77" x="799.109375"/>
      <use xlink:href="#DejaVuSans-73" x="880.896484"/>
     </g>
    </g>
    <g id="line2d_29">
     <path d="M 505.782812 183.296562 
L 515.782812 183.296562 
L 525.782812 183.296562 
" style="fill: none; stroke: #ff7f0e; stroke-width: 1.5; stroke-linecap: square"/>
    </g>
    <g id="text_26">
     <!-- Unique GitHub Views -->
     <g transform="translate(533.782812 186.796562)scale(0.1 -0.1)">
      <use xlink:href="#DejaVuSans-55"/>
      <use xlink:href="#DejaVuSans-6e" x="73.193359"/>
      <use xlink:href="#DejaVuSans-69" x="136.572266"/>
      <use xlink:href="#DejaVuSans-71" x="164.355469"/>
      <use xlink:href="#DejaVuSans-75" x="227.832031"/>
      <use xlink:href="#DejaVuSans-65" x="291.210938"/>
      <use xlink:href="#DejaVuSans-20" x="352.734375"/>
      <use xlink:href="#DejaVuSans-47" x="384.521484"/>
      <use xlink:href="#DejaVuSans-69" x="462.011719"/>
      <use xlink:href="#DejaVuSans-74" x="489.794922"/>
      <use xlink:href="#DejaVuSans-48" x="529.003906"/>
      <use xlink:href="#DejaVuSans-75" x="604.199219"/>
      <use xlink:href="#DejaVuSans-62" x="667.578125"/>
      <use xlink:href="#DejaVuSans-20" x="731.054688"/>
      <use xlink:href="#DejaVuSans-56" x="762.841797"/>
      <use xlink:href="#DejaVuSans-69" x="829"/>
      <use xlink:href="#DejaVuSans-65" x="856.783203"/>
      <use xlink:href="#DejaVuSans-77" x="918.306641"/>
      <use xlink:href="#DejaVuSans-73" x="1000.09375"/>
     </g>
    </g>
   </g>
  </g>
 </g>
 <defs>
  <clipPath id="p1267f74bae">
   <rect x="90" y="34.56" width="558" height="100.8"/>
  </clipPath>
  <clipPath id="p5b551adbc3">
   <rect x="90" y="155.52" width="558" height="100.8"/>
  </clipPath>
 </defs>
</svg>
