<?xml version="1.0" encoding="utf-8" standalone="no"?>
<!DOCTYPE svg PUBLIC "-//W3C//DTD SVG 1.1//EN"
  "http://www.w3.org/Graphics/SVG/1.1/DTD/svg11.dtd">
<svg xmlns:xlink="http://www.w3.org/1999/xlink" width="720pt" height="288pt" viewBox="0 0 720 288" xmlns="http://www.w3.org/2000/svg" version="1.1">
 <metadata>
  <rdf:RDF xmlns:dc="http://purl.org/dc/elements/1.1/" xmlns:cc="http://creativecommons.org/ns#" xmlns:rdf="http://www.w3.org/1999/02/22-rdf-syntax-ns#">
   <cc:Work>
    <dc:type rdf:resource="http://purl.org/dc/dcmitype/StillImage"/>
    <dc:date>2022-08-29T01:00:16.160434</dc:date>
    <dc:format>image/svg+xml</dc:format>
    <dc:creator>
     <cc:Agent>
      <dc:title>Matplotlib v3.5.3, https://matplotlib.org/</dc:title>
     </cc:Agent>
    </dc:creator>
   </cc:Work>
  </rdf:RDF>
 </metadata>
 <defs>
  <style type="text/css">*{stroke-linejoin: round; stroke-linecap: butt}</style>
 </defs>
 <g id="figure_1">
  <g id="patch_1">
   <path d="M 0 288 
L 720 288 
L 720 0 
L 0 0 
z
" style="fill: #ffffff"/>
  </g>
  <g id="axes_1">
   <g id="patch_2">
    <path d="M 90 135.36 
L 648 135.36 
L 648 34.56 
L 90 34.56 
z
" style="fill: #ffffff"/>
   </g>
   <g id="matplotlib.axis_1">
    <g id="xtick_1">
     <g id="line2d_1">
      <defs>
       <path id="m64b32010c6" d="M 0 0 
L 0 3.5 
" style="stroke: #000000; stroke-width: 0.8"/>
      </defs>
      <g>
       <use xlink:href="#m64b32010c6" x="115.363636" y="135.36" style="stroke: #000000; stroke-width: 0.8"/>
      </g>
     </g>
     <g id="text_1">
      <!-- 2020-10-22 -->
      <g transform="translate(86.305824 149.958437)scale(0.1 -0.1)">
       <defs>
        <path id="DejaVuSans-32" d="M 1228 531 
L 3431 531 
L 3431 0 
L 469 0 
L 469 531 
Q 828 903 1448 1529 
Q 2069 2156 2228 2338 
Q 2531 2678 2651 2914 
Q 2772 3150 2772 3378 
Q 2772 3750 2511 3984 
Q 2250 4219 1831 4219 
Q 1534 4219 1204 4116 
Q 875 4013 500 3803 
L 500 4441 
Q 881 4594 1212 4672 
Q 1544 4750 1819 4750 
Q 2544 4750 2975 4387 
Q 3406 4025 3406 3419 
Q 3406 3131 3298 2873 
Q 3191 2616 2906 2266 
Q 2828 2175 2409 1742 
Q 1991 1309 1228 531 
z
" transform="scale(0.015625)"/>
        <path id="DejaVuSans-30" d="M 2034 4250 
Q 1547 4250 1301 3770 
Q 1056 3291 1056 2328 
Q 1056 1369 1301 889 
Q 1547 409 2034 409 
Q 2525 409 2770 889 
Q 3016 1369 3016 2328 
Q 3016 3291 2770 3770 
Q 2525 4250 2034 4250 
z
M 2034 4750 
Q 2819 4750 3233 4129 
Q 3647 3509 3647 2328 
Q 3647 1150 3233 529 
Q 2819 -91 2034 -91 
Q 1250 -91 836 529 
Q 422 1150 422 2328 
Q 422 3509 836 4129 
Q 1250 4750 2034 4750 
z
" transform="scale(0.015625)"/>
        <path id="DejaVuSans-2d" d="M 313 2009 
L 1997 2009 
L 1997 1497 
L 313 1497 
L 313 2009 
z
" transform="scale(0.015625)"/>
        <path id="DejaVuSans-31" d="M 794 531 
L 1825 531 
L 1825 4091 
L 703 3866 
L 703 4441 
L 1819 4666 
L 2450 4666 
L 2450 531 
L 3481 531 
L 3481 0 
L 794 0 
L 794 531 
z
" transform="scale(0.015625)"/>
       </defs>
       <use xlink:href="#DejaVuSans-32"/>
       <use xlink:href="#DejaVuSans-30" x="63.623047"/>
       <use xlink:href="#DejaVuSans-32" x="127.246094"/>
       <use xlink:href="#DejaVuSans-30" x="190.869141"/>
       <use xlink:href="#DejaVuSans-2d" x="254.492188"/>
       <use xlink:href="#DejaVuSans-31" x="290.576172"/>
       <use xlink:href="#DejaVuSans-30" x="354.199219"/>
       <use xlink:href="#DejaVuSans-2d" x="417.822266"/>
       <use xlink:href="#DejaVuSans-32" x="453.90625"/>
       <use xlink:href="#DejaVuSans-32" x="517.529297"/>
      </g>
     </g>
    </g>
    <g id="xtick_2">
     <g id="line2d_2">
      <g>
       <use xlink:href="#m64b32010c6" x="210.180969" y="135.36" style="stroke: #000000; stroke-width: 0.8"/>
      </g>
     </g>
     <g id="text_2">
      <!-- 2021-03-17 -->
      <g transform="translate(181.123156 149.958437)scale(0.1 -0.1)">
       <defs>
        <path id="DejaVuSans-33" d="M 2597 2516 
Q 3050 2419 3304 2112 
Q 3559 1806 3559 1356 
Q 3559 666 3084 287 
Q 2609 -91 1734 -91 
Q 1441 -91 1130 -33 
Q 819 25 488 141 
L 488 750 
Q 750 597 1062 519 
Q 1375 441 1716 441 
Q 2309 441 2620 675 
Q 2931 909 2931 1356 
Q 2931 1769 2642 2001 
Q 2353 2234 1838 2234 
L 1294 2234 
L 1294 2753 
L 1863 2753 
Q 2328 2753 2575 2939 
Q 2822 3125 2822 3475 
Q 2822 3834 2567 4026 
Q 2313 4219 1838 4219 
Q 1578 4219 1281 4162 
Q 984 4106 628 3988 
L 628 4550 
Q 988 4650 1302 4700 
Q 1616 4750 1894 4750 
Q 2613 4750 3031 4423 
Q 3450 4097 3450 3541 
Q 3450 3153 3228 2886 
Q 3006 2619 2597 2516 
z
" transform="scale(0.015625)"/>
        <path id="DejaVuSans-37" d="M 525 4666 
L 3525 4666 
L 3525 4397 
L 1831 0 
L 1172 0 
L 2766 4134 
L 525 4134 
L 525 4666 
z
" transform="scale(0.015625)"/>
       </defs>
       <use xlink:href="#DejaVuSans-32"/>
       <use xlink:href="#DejaVuSans-30" x="63.623047"/>
       <use xlink:href="#DejaVuSans-32" x="127.246094"/>
       <use xlink:href="#DejaVuSans-31" x="190.869141"/>
       <use xlink:href="#DejaVuSans-2d" x="254.492188"/>
       <use xlink:href="#DejaVuSans-30" x="290.576172"/>
       <use xlink:href="#DejaVuSans-33" x="354.199219"/>
       <use xlink:href="#DejaVuSans-2d" x="417.822266"/>
       <use xlink:href="#DejaVuSans-31" x="453.90625"/>
       <use xlink:href="#DejaVuSans-37" x="517.529297"/>
      </g>
     </g>
    </g>
    <g id="xtick_3">
     <g id="line2d_3">
      <g>
       <use xlink:href="#m64b32010c6" x="304.998301" y="135.36" style="stroke: #000000; stroke-width: 0.8"/>
      </g>
     </g>
     <g id="text_3">
      <!-- 2021-07-07 -->
      <g transform="translate(275.940488 149.958437)scale(0.1 -0.1)">
       <use xlink:href="#DejaVuSans-32"/>
       <use xlink:href="#DejaVuSans-30" x="63.623047"/>
       <use xlink:href="#DejaVuSans-32" x="127.246094"/>
       <use xlink:href="#DejaVuSans-31" x="190.869141"/>
       <use xlink:href="#DejaVuSans-2d" x="254.492188"/>
       <use xlink:href="#DejaVuSans-30" x="290.576172"/>
       <use xlink:href="#DejaVuSans-37" x="354.199219"/>
       <use xlink:href="#DejaVuSans-2d" x="417.822266"/>
       <use xlink:href="#DejaVuSans-30" x="453.90625"/>
       <use xlink:href="#DejaVuSans-37" x="517.529297"/>
      </g>
     </g>
    </g>
    <g id="xtick_4">
     <g id="line2d_4">
      <g>
       <use xlink:href="#m64b32010c6" x="399.815633" y="135.36" style="stroke: #000000; stroke-width: 0.8"/>
      </g>
     </g>
     <g id="text_4">
      <!-- 2021-11-18 -->
      <g transform="translate(370.75782 149.958437)scale(0.1 -0.1)">
       <defs>
        <path id="DejaVuSans-38" d="M 2034 2216 
Q 1584 2216 1326 1975 
Q 1069 1734 1069 1313 
Q 1069 891 1326 650 
Q 1584 409 2034 409 
Q 2484 409 2743 651 
Q 3003 894 3003 1313 
Q 3003 1734 2745 1975 
Q 2488 2216 2034 2216 
z
M 1403 2484 
Q 997 2584 770 2862 
Q 544 3141 544 3541 
Q 544 4100 942 4425 
Q 1341 4750 2034 4750 
Q 2731 4750 3128 4425 
Q 3525 4100 3525 3541 
Q 3525 3141 3298 2862 
Q 3072 2584 2669 2484 
Q 3125 2378 3379 2068 
Q 3634 1759 3634 1313 
Q 3634 634 3220 271 
Q 2806 -91 2034 -91 
Q 1263 -91 848 271 
Q 434 634 434 1313 
Q 434 1759 690 2068 
Q 947 2378 1403 2484 
z
M 1172 3481 
Q 1172 3119 1398 2916 
Q 1625 2713 2034 2713 
Q 2441 2713 2670 2916 
Q 2900 3119 2900 3481 
Q 2900 3844 2670 4047 
Q 2441 4250 2034 4250 
Q 1625 4250 1398 4047 
Q 1172 3844 1172 3481 
z
" transform="scale(0.015625)"/>
       </defs>
       <use xlink:href="#DejaVuSans-32"/>
       <use xlink:href="#DejaVuSans-30" x="63.623047"/>
       <use xlink:href="#DejaVuSans-32" x="127.246094"/>
       <use xlink:href="#DejaVuSans-31" x="190.869141"/>
       <use xlink:href="#DejaVuSans-2d" x="254.492188"/>
       <use xlink:href="#DejaVuSans-31" x="290.576172"/>
       <use xlink:href="#DejaVuSans-31" x="354.199219"/>
       <use xlink:href="#DejaVuSans-2d" x="417.822266"/>
       <use xlink:href="#DejaVuSans-31" x="453.90625"/>
       <use xlink:href="#DejaVuSans-38" x="517.529297"/>
      </g>
     </g>
    </g>
    <g id="xtick_5">
     <g id="line2d_5">
      <g>
       <use xlink:href="#m64b32010c6" x="494.632965" y="135.36" style="stroke: #000000; stroke-width: 0.8"/>
      </g>
     </g>
     <g id="text_5">
      <!-- 2022-03-21 -->
      <g transform="translate(465.575153 149.958437)scale(0.1 -0.1)">
       <use xlink:href="#DejaVuSans-32"/>
       <use xlink:href="#DejaVuSans-30" x="63.623047"/>
       <use xlink:href="#DejaVuSans-32" x="127.246094"/>
       <use xlink:href="#DejaVuSans-32" x="190.869141"/>
       <use xlink:href="#DejaVuSans-2d" x="254.492188"/>
       <use xlink:href="#DejaVuSans-30" x="290.576172"/>
       <use xlink:href="#DejaVuSans-33" x="354.199219"/>
       <use xlink:href="#DejaVuSans-2d" x="417.822266"/>
       <use xlink:href="#DejaVuSans-32" x="453.90625"/>
       <use xlink:href="#DejaVuSans-31" x="517.529297"/>
      </g>
     </g>
    </g>
    <g id="xtick_6">
     <g id="line2d_6">
      <g>
       <use xlink:href="#m64b32010c6" x="589.450297" y="135.36" style="stroke: #000000; stroke-width: 0.8"/>
      </g>
     </g>
     <g id="text_6">
      <!-- 2022-07-21 -->
      <g transform="translate(560.392485 149.958437)scale(0.1 -0.1)">
       <use xlink:href="#DejaVuSans-32"/>
       <use xlink:href="#DejaVuSans-30" x="63.623047"/>
       <use xlink:href="#DejaVuSans-32" x="127.246094"/>
       <use xlink:href="#DejaVuSans-32" x="190.869141"/>
       <use xlink:href="#DejaVuSans-2d" x="254.492188"/>
       <use xlink:href="#DejaVuSans-30" x="290.576172"/>
       <use xlink:href="#DejaVuSans-37" x="354.199219"/>
       <use xlink:href="#DejaVuSans-2d" x="417.822266"/>
       <use xlink:href="#DejaVuSans-32" x="453.90625"/>
       <use xlink:href="#DejaVuSans-31" x="517.529297"/>
      </g>
     </g>
    </g>
    <g id="text_7">
     <!-- _date -->
     <g transform="translate(355.225 163.636562)scale(0.1 -0.1)">
      <defs>
       <path id="DejaVuSans-5f" d="M 3263 -1063 
L 3263 -1509 
L -63 -1509 
L -63 -1063 
L 3263 -1063 
z
" transform="scale(0.015625)"/>
       <path id="DejaVuSans-64" d="M 2906 2969 
L 2906 4863 
L 3481 4863 
L 3481 0 
L 2906 0 
L 2906 525 
Q 2725 213 2448 61 
Q 2172 -91 1784 -91 
Q 1150 -91 751 415 
Q 353 922 353 1747 
Q 353 2572 751 3078 
Q 1150 3584 1784 3584 
Q 2172 3584 2448 3432 
Q 2725 3281 2906 2969 
z
M 947 1747 
Q 947 1113 1208 752 
Q 1469 391 1925 391 
Q 2381 391 2643 752 
Q 2906 1113 2906 1747 
Q 2906 2381 2643 2742 
Q 2381 3103 1925 3103 
Q 1469 3103 1208 2742 
Q 947 2381 947 1747 
z
" transform="scale(0.015625)"/>
       <path id="DejaVuSans-61" d="M 2194 1759 
Q 1497 1759 1228 1600 
Q 959 1441 959 1056 
Q 959 750 1161 570 
Q 1363 391 1709 391 
Q 2188 391 2477 730 
Q 2766 1069 2766 1631 
L 2766 1759 
L 2194 1759 
z
M 3341 1997 
L 3341 0 
L 2766 0 
L 2766 531 
Q 2569 213 2275 61 
Q 1981 -91 1556 -91 
Q 1019 -91 701 211 
Q 384 513 384 1019 
Q 384 1609 779 1909 
Q 1175 2209 1959 2209 
L 2766 2209 
L 2766 2266 
Q 2766 2663 2505 2880 
Q 2244 3097 1772 3097 
Q 1472 3097 1187 3025 
Q 903 2953 641 2809 
L 641 3341 
Q 956 3463 1253 3523 
Q 1550 3584 1831 3584 
Q 2591 3584 2966 3190 
Q 3341 2797 3341 1997 
z
" transform="scale(0.015625)"/>
       <path id="DejaVuSans-74" d="M 1172 4494 
L 1172 3500 
L 2356 3500 
L 2356 3053 
L 1172 3053 
L 1172 1153 
Q 1172 725 1289 603 
Q 1406 481 1766 481 
L 2356 481 
L 2356 0 
L 1766 0 
Q 1100 0 847 248 
Q 594 497 594 1153 
L 594 3053 
L 172 3053 
L 172 3500 
L 594 3500 
L 594 4494 
L 1172 4494 
z
" transform="scale(0.015625)"/>
       <path id="DejaVuSans-65" d="M 3597 1894 
L 3597 1613 
L 953 1613 
Q 991 1019 1311 708 
Q 1631 397 2203 397 
Q 2534 397 2845 478 
Q 3156 559 3463 722 
L 3463 178 
Q 3153 47 2828 -22 
Q 2503 -91 2169 -91 
Q 1331 -91 842 396 
Q 353 884 353 1716 
Q 353 2575 817 3079 
Q 1281 3584 2069 3584 
Q 2775 3584 3186 3129 
Q 3597 2675 3597 1894 
z
M 3022 2063 
Q 3016 2534 2758 2815 
Q 2500 3097 2075 3097 
Q 1594 3097 1305 2825 
Q 1016 2553 972 2059 
L 3022 2063 
z
" transform="scale(0.015625)"/>
      </defs>
      <use xlink:href="#DejaVuSans-5f"/>
      <use xlink:href="#DejaVuSans-64" x="50"/>
      <use xlink:href="#DejaVuSans-61" x="113.476562"/>
      <use xlink:href="#DejaVuSans-74" x="174.755859"/>
      <use xlink:href="#DejaVuSans-65" x="213.964844"/>
     </g>
    </g>
   </g>
   <g id="matplotlib.axis_2">
    <g id="ytick_1">
     <g id="line2d_7">
      <defs>
       <path id="m2984426832" d="M 0 0 
L -3.5 0 
" style="stroke: #000000; stroke-width: 0.8"/>
      </defs>
      <g>
       <use xlink:href="#m2984426832" x="90" y="131.070017" style="stroke: #000000; stroke-width: 0.8"/>
      </g>
     </g>
     <g id="text_8">
      <!-- 0 -->
      <g transform="translate(76.6375 134.869236)scale(0.1 -0.1)">
       <use xlink:href="#DejaVuSans-30"/>
      </g>
     </g>
    </g>
    <g id="ytick_2">
     <g id="line2d_8">
      <g>
       <use xlink:href="#m2984426832" x="90" y="101.886462" style="stroke: #000000; stroke-width: 0.8"/>
      </g>
     </g>
     <g id="text_9">
      <!-- 100 -->
      <g transform="translate(63.9125 105.685681)scale(0.1 -0.1)">
       <use xlink:href="#DejaVuSans-31"/>
       <use xlink:href="#DejaVuSans-30" x="63.623047"/>
       <use xlink:href="#DejaVuSans-30" x="127.246094"/>
      </g>
     </g>
    </g>
    <g id="ytick_3">
     <g id="line2d_9">
      <g>
       <use xlink:href="#m2984426832" x="90" y="72.702907" style="stroke: #000000; stroke-width: 0.8"/>
      </g>
     </g>
     <g id="text_10">
      <!-- 200 -->
      <g transform="translate(63.9125 76.502126)scale(0.1 -0.1)">
       <use xlink:href="#DejaVuSans-32"/>
       <use xlink:href="#DejaVuSans-30" x="63.623047"/>
       <use xlink:href="#DejaVuSans-30" x="127.246094"/>
      </g>
     </g>
    </g>
    <g id="ytick_4">
     <g id="line2d_10">
      <g>
       <use xlink:href="#m2984426832" x="90" y="43.519351" style="stroke: #000000; stroke-width: 0.8"/>
      </g>
     </g>
     <g id="text_11">
      <!-- 300 -->
      <g transform="translate(63.9125 47.31857)scale(0.1 -0.1)">
       <use xlink:href="#DejaVuSans-33"/>
       <use xlink:href="#DejaVuSans-30" x="63.623047"/>
       <use xlink:href="#DejaVuSans-30" x="127.246094"/>
      </g>
     </g>
    </g>
   </g>
   <g id="line2d_11">
    <path d="M 115.363636 129.319004 
L 116.31181 129.61084 
L 117.259983 130.778182 
L 118.208156 130.778182 
L 119.15633 130.194511 
L 120.104503 130.194511 
L 121.052676 126.108813 
L 122.00085 126.108813 
L 122.949023 130.778182 
L 123.897196 130.778182 
L 124.84537 127.859826 
L 125.793543 128.735333 
L 126.741716 130.778182 
L 127.68989 129.319004 
L 128.638063 129.902675 
L 129.586236 129.902675 
L 130.53441 130.778182 
L 132.430756 129.61084 
L 133.378929 130.486346 
L 134.327103 130.778182 
L 135.275276 130.486346 
L 136.223449 130.486346 
L 137.171623 130.194511 
L 138.119796 130.486346 
L 139.067969 130.486346 
L 140.016143 129.902675 
L 140.964316 130.486346 
L 141.912489 130.486346 
L 142.860663 126.98432 
L 143.808836 129.319004 
L 144.757009 130.486346 
L 145.705183 123.774129 
L 146.653356 130.778182 
L 154.238743 130.778182 
L 155.186916 130.486346 
L 156.135089 130.778182 
L 162.772302 130.778182 
L 163.720476 129.902675 
L 164.668649 130.194511 
L 165.616822 130.778182 
L 166.564996 130.194511 
L 167.513169 129.319004 
L 168.461342 130.486346 
L 169.409516 130.486346 
L 170.357689 129.902675 
L 171.305862 126.108813 
L 172.254036 130.486346 
L 173.202209 130.778182 
L 174.150382 130.486346 
L 175.098556 129.027169 
L 176.046729 130.486346 
L 176.994902 130.194511 
L 177.943076 128.151662 
L 178.891249 129.902675 
L 179.839422 129.027169 
L 180.787596 130.486346 
L 181.735769 130.194511 
L 182.683942 130.486346 
L 183.632116 130.194511 
L 185.528462 130.194511 
L 186.476636 129.61084 
L 187.424809 130.778182 
L 188.372982 130.778182 
L 189.321155 129.61084 
L 190.269329 129.61084 
L 191.217502 128.151662 
L 192.165675 130.194511 
L 193.113849 129.319004 
L 194.062022 130.778182 
L 195.010195 128.443497 
L 195.958369 129.902675 
L 196.906542 130.194511 
L 197.854715 129.902675 
L 198.802889 128.735333 
L 199.751062 130.486346 
L 200.699235 129.61084 
L 201.647409 126.400649 
L 202.595582 128.735333 
L 203.543755 126.108813 
L 204.491929 110.349693 
L 205.440102 129.319004 
L 206.388275 130.778182 
L 207.336449 129.902675 
L 208.284622 127.276155 
L 209.232795 127.859826 
L 210.180969 129.319004 
L 211.129142 125.525142 
L 212.077315 129.902675 
L 213.025489 129.902675 
L 213.973662 130.486346 
L 214.921835 126.98432 
L 215.870008 127.859826 
L 216.818182 130.778182 
L 217.766355 130.194511 
L 218.714528 130.778182 
L 219.662702 129.61084 
L 220.610875 116.47824 
L 221.559048 124.941471 
L 222.507222 126.400649 
L 223.455395 129.319004 
L 224.403568 130.778182 
L 225.351742 128.735333 
L 226.299915 129.902675 
L 227.248088 126.692484 
L 228.196262 129.902675 
L 229.144435 127.276155 
L 230.092608 123.774129 
L 231.040782 126.98432 
L 231.988955 129.319004 
L 232.937128 123.482293 
L 233.885302 123.482293 
L 234.833475 124.065964 
L 235.781648 112.684378 
L 236.729822 119.688431 
L 237.677995 119.688431 
L 238.626168 125.525142 
L 239.574342 121.147609 
L 240.522515 125.233306 
L 241.470688 130.194511 
L 242.418862 130.486346 
L 243.367035 124.065964 
L 244.315208 123.190457 
L 245.263381 123.774129 
L 246.211555 121.73128 
L 247.159728 119.10476 
L 248.107901 129.61084 
L 249.056075 130.486346 
L 250.004248 124.065964 
L 250.952421 124.649635 
L 251.900595 116.47824 
L 252.848768 123.774129 
L 253.796941 124.065964 
L 254.745115 130.486346 
L 255.693288 129.902675 
L 256.641461 123.190457 
L 257.589635 117.353746 
L 258.537808 124.3578 
L 259.485981 122.606786 
L 260.434155 114.143555 
L 261.382328 124.3578 
L 262.330501 130.486346 
L 263.278675 123.190457 
L 264.226848 119.10476 
L 265.175021 117.645582 
L 266.123195 120.563937 
L 267.071368 121.73128 
L 268.019541 130.194511 
L 268.967715 123.482293 
L 269.915888 120.272102 
L 270.864061 123.774129 
L 271.812234 123.482293 
L 272.760408 122.898622 
L 273.708581 128.443497 
L 274.656754 123.774129 
L 275.604928 122.606786 
L 276.553101 123.774129 
L 277.501274 124.065964 
L 278.449448 124.065964 
L 279.397621 130.778182 
L 280.345794 130.778182 
L 281.293968 123.482293 
L 282.242141 122.023115 
L 283.190314 123.482293 
L 284.138488 117.645582 
L 285.086661 119.10476 
L 286.034834 130.778182 
L 286.983008 123.774129 
L 287.931181 122.898622 
L 288.879354 122.606786 
L 289.827528 122.023115 
L 290.775701 124.3578 
L 291.723874 130.486346 
L 292.672048 123.190457 
L 293.620221 121.439444 
L 294.568394 118.812924 
L 295.516568 118.521089 
L 296.464741 87.878356 
L 298.361088 130.778182 
L 299.309261 124.941471 
L 300.257434 124.3578 
L 301.205607 127.859826 
L 302.153781 130.778182 
L 303.101954 130.486346 
L 304.050127 127.276155 
L 304.998301 128.151662 
L 305.946474 130.486346 
L 306.894647 129.902675 
L 307.842821 130.486346 
L 308.790994 130.778182 
L 309.739167 130.486346 
L 310.687341 130.778182 
L 311.635514 129.902675 
L 312.583687 130.194511 
L 313.531861 130.778182 
L 316.376381 130.778182 
L 317.324554 129.61084 
L 318.272727 130.486346 
L 319.220901 130.778182 
L 320.169074 130.486346 
L 321.117247 129.027169 
L 322.065421 130.778182 
L 323.013594 124.3578 
L 323.961767 130.194511 
L 324.909941 130.778182 
L 326.806287 130.194511 
L 327.75446 130.778182 
L 328.702634 130.486346 
L 329.650807 130.778182 
L 330.59898 129.902675 
L 331.547154 130.486346 
L 332.495327 130.194511 
L 333.4435 130.778182 
L 335.339847 130.778182 
L 337.236194 130.194511 
L 338.184367 129.027169 
L 339.13254 130.486346 
L 340.080714 130.486346 
L 341.028887 127.859826 
L 341.97706 126.692484 
L 342.925234 130.778182 
L 344.82158 130.778182 
L 346.717927 130.194511 
L 347.6661 130.486346 
L 348.614274 128.151662 
L 349.562447 122.606786 
L 350.51062 129.319004 
L 351.458794 121.147609 
L 352.406967 128.735333 
L 353.35514 130.486346 
L 354.303314 130.778182 
L 356.19966 130.778182 
L 357.147833 130.486346 
L 358.096007 130.778182 
L 359.04418 130.778182 
L 359.992353 129.61084 
L 360.940527 115.602733 
L 361.8887 124.3578 
L 362.836873 130.194511 
L 363.785047 126.98432 
L 364.73322 115.894569 
L 365.681393 114.727226 
L 366.629567 112.100706 
L 367.57774 118.229253 
L 368.525913 126.108813 
L 369.474087 126.98432 
L 370.42226 130.778182 
L 371.370433 128.443497 
L 372.318607 130.778182 
L 373.26678 130.778182 
L 374.214953 126.692484 
L 375.163127 130.194511 
L 376.1113 115.310898 
L 377.059473 126.98432 
L 378.007647 114.435391 
L 378.95582 127.276155 
L 379.903993 129.61084 
L 380.852167 126.400649 
L 381.80034 113.559884 
L 382.748513 126.108813 
L 383.696686 126.98432 
L 384.64486 130.194511 
L 385.593033 130.778182 
L 386.541206 130.778182 
L 387.48938 130.194511 
L 388.437553 128.735333 
L 389.385726 127.567991 
L 390.3339 126.98432 
L 391.282073 130.778182 
L 392.230246 130.778182 
L 393.17842 125.816977 
L 394.126593 123.774129 
L 395.074766 130.778182 
L 396.02294 130.194511 
L 396.971113 130.778182 
L 397.919286 128.151662 
L 398.86746 130.194511 
L 399.815633 130.778182 
L 400.763806 130.486346 
L 401.71198 129.902675 
L 402.660153 129.902675 
L 403.608326 119.396595 
L 404.5565 129.902675 
L 405.504673 129.902675 
L 406.452846 126.108813 
L 407.40102 118.812924 
L 408.349193 127.276155 
L 409.297366 127.276155 
L 410.24554 130.194511 
L 411.193713 125.816977 
L 412.141886 117.937417 
L 413.090059 99.259942 
L 414.038233 127.276155 
L 414.986406 122.606786 
L 415.934579 130.778182 
L 416.882753 118.521089 
L 417.830926 116.186404 
L 418.779099 129.027169 
L 419.727273 124.3578 
L 420.675446 130.778182 
L 422.571793 130.778182 
L 423.519966 116.770075 
L 424.468139 115.894569 
L 425.416313 130.486346 
L 426.364486 126.108813 
L 427.312659 130.778182 
L 428.260833 130.778182 
L 429.209006 130.194511 
L 430.157179 130.486346 
L 431.105353 129.902675 
L 432.053526 130.778182 
L 433.001699 126.692484 
L 433.949873 124.3578 
L 434.898046 113.559884 
L 435.846219 127.859826 
L 436.794393 130.486346 
L 437.742566 123.482293 
L 438.690739 130.486346 
L 439.638912 128.443497 
L 440.587086 125.816977 
L 441.535259 126.98432 
L 442.483432 129.319004 
L 443.431606 130.486346 
L 444.379779 129.027169 
L 445.327952 123.774129 
L 446.276126 129.61084 
L 447.224299 126.98432 
L 448.172472 128.151662 
L 449.120646 130.778182 
L 450.068819 104.804818 
L 451.016992 124.649635 
L 451.965166 115.019062 
L 452.913339 126.692484 
L 453.861512 106.263995 
L 454.809686 130.778182 
L 455.757859 125.233306 
L 457.654206 116.186404 
L 458.602379 120.563937 
L 459.550552 128.443497 
L 460.498726 130.778182 
L 462.395072 110.641529 
L 463.343246 112.100706 
L 464.291419 130.778182 
L 465.239592 126.98432 
L 466.187766 129.902675 
L 467.135939 113.85172 
L 468.084112 129.902675 
L 469.032285 130.778182 
L 470.928632 130.778182 
L 471.876805 129.61084 
L 472.824979 129.902675 
L 473.773152 127.859826 
L 474.721325 129.027169 
L 475.669499 127.567991 
L 476.617672 122.314951 
L 477.565845 130.486346 
L 478.514019 106.555831 
L 479.462192 127.276155 
L 480.410365 126.692484 
L 481.358539 114.143555 
L 482.306712 114.435391 
L 483.254885 124.649635 
L 485.151232 130.486346 
L 486.099405 129.319004 
L 487.047579 130.486346 
L 487.995752 128.151662 
L 488.943925 127.859826 
L 489.892099 104.804818 
L 490.840272 93.423231 
L 491.788445 121.147609 
L 492.736619 130.486346 
L 493.684792 126.108813 
L 494.632965 130.194511 
L 495.581138 129.902675 
L 496.529312 130.194511 
L 497.477485 130.778182 
L 498.425658 130.778182 
L 499.373832 130.486346 
L 500.322005 130.486346 
L 501.270178 130.778182 
L 502.218352 130.486346 
L 503.166525 130.778182 
L 505.062872 130.778182 
L 506.011045 130.194511 
L 506.959218 130.194511 
L 507.907392 130.778182 
L 508.855565 130.778182 
L 509.803738 130.486346 
L 510.751912 130.486346 
L 511.700085 130.778182 
L 512.648258 130.778182 
L 513.596432 130.486346 
L 514.544605 129.902675 
L 515.492778 130.778182 
L 516.440952 130.486346 
L 517.389125 130.778182 
L 518.337298 130.778182 
L 519.285472 130.194511 
L 520.233645 130.194511 
L 521.181818 129.61084 
L 522.129992 127.276155 
L 523.078165 129.61084 
L 524.026338 130.486346 
L 524.974511 130.194511 
L 525.922685 130.778182 
L 527.819031 125.816977 
L 528.767205 130.778182 
L 529.715378 130.778182 
L 530.663551 130.486346 
L 531.611725 130.778182 
L 532.559898 130.778182 
L 533.508071 127.276155 
L 534.456245 130.778182 
L 535.404418 127.859826 
L 536.352591 127.276155 
L 537.300765 130.778182 
L 538.248938 130.486346 
L 539.197111 122.606786 
L 540.145285 130.486346 
L 541.093458 118.521089 
L 542.041631 118.812924 
L 542.989805 127.567991 
L 543.937978 102.178298 
L 544.886151 118.812924 
L 545.834325 129.61084 
L 546.782498 130.486346 
L 547.730671 130.778182 
L 548.678845 130.194511 
L 549.627018 130.486346 
L 550.575191 117.645582 
L 551.523364 129.902675 
L 552.471538 130.778182 
L 553.419711 130.778182 
L 554.367884 130.486346 
L 555.316058 125.816977 
L 556.264231 130.778182 
L 558.160578 130.778182 
L 559.108751 129.027169 
L 560.056924 128.735333 
L 561.005098 120.563937 
L 561.953271 130.778182 
L 562.901444 129.902675 
L 563.849618 123.774129 
L 564.797791 129.61084 
L 565.745964 122.606786 
L 566.694138 130.778182 
L 567.642311 129.902675 
L 568.590484 130.194511 
L 569.538658 128.151662 
L 570.486831 127.859826 
L 571.435004 130.194511 
L 572.383178 129.319004 
L 573.331351 130.486346 
L 574.279524 130.778182 
L 575.227698 129.902675 
L 576.175871 129.61084 
L 577.124044 129.027169 
L 578.072218 129.902675 
L 579.020391 119.10476 
L 579.968564 130.194511 
L 580.916737 122.314951 
L 581.864911 122.023115 
L 582.813084 130.778182 
L 583.761257 129.027169 
L 584.709431 125.816977 
L 585.657604 130.778182 
L 586.605777 130.194511 
L 587.553951 130.486346 
L 588.502124 130.486346 
L 589.450297 110.933364 
L 590.398471 129.027169 
L 591.346644 130.778182 
L 592.294817 130.778182 
L 593.242991 130.486346 
L 594.191164 122.898622 
L 595.139337 126.108813 
L 596.087511 130.486346 
L 597.035684 124.3578 
L 597.983857 130.778182 
L 598.932031 130.778182 
L 599.880204 129.61084 
L 600.828377 130.778182 
L 601.776551 127.276155 
L 602.724724 130.194511 
L 603.672897 130.486346 
L 604.621071 130.486346 
L 605.569244 130.778182 
L 606.517417 129.902675 
L 607.46559 127.276155 
L 608.413764 126.108813 
L 609.361937 126.400649 
L 610.31011 130.486346 
L 611.258284 130.486346 
L 612.206457 122.023115 
L 613.15463 121.73128 
L 614.102804 113.559884 
L 615.050977 130.778182 
L 615.99915 121.147609 
L 616.947324 129.902675 
L 617.895497 130.778182 
L 618.84367 129.319004 
L 619.791844 129.61084 
L 620.740017 130.778182 
L 621.68819 39.141818 
L 622.636364 129.027169 
L 622.636364 129.027169 
" clip-path="url(#p882cd4e9d6)" style="fill: none; stroke: #1f77b4; stroke-width: 1.5; stroke-linecap: square"/>
   </g>
   <g id="line2d_12">
    <path d="M 115.363636 129.319004 
L 116.31181 129.61084 
L 117.259983 130.778182 
L 118.208156 130.778182 
L 119.15633 130.194511 
L 120.104503 130.194511 
L 121.052676 130.486346 
L 122.00085 129.61084 
L 122.949023 130.778182 
L 123.897196 130.778182 
L 124.84537 127.859826 
L 125.793543 130.194511 
L 126.741716 130.778182 
L 127.68989 129.902675 
L 128.638063 129.902675 
L 129.586236 130.194511 
L 130.53441 130.778182 
L 131.482583 130.194511 
L 132.430756 129.902675 
L 133.378929 130.486346 
L 134.327103 130.778182 
L 135.275276 130.486346 
L 136.223449 130.778182 
L 137.171623 130.194511 
L 139.067969 130.778182 
L 140.016143 130.486346 
L 140.964316 130.778182 
L 141.912489 130.486346 
L 142.860663 128.443497 
L 143.808836 129.319004 
L 144.757009 130.486346 
L 145.705183 128.151662 
L 146.653356 130.778182 
L 154.238743 130.778182 
L 155.186916 130.486346 
L 156.135089 130.778182 
L 162.772302 130.778182 
L 163.720476 130.194511 
L 164.668649 130.778182 
L 165.616822 130.778182 
L 167.513169 130.194511 
L 168.461342 130.778182 
L 170.357689 130.778182 
L 171.305862 127.859826 
L 172.254036 130.778182 
L 173.202209 130.778182 
L 174.150382 130.486346 
L 175.098556 129.902675 
L 176.046729 130.486346 
L 176.994902 130.194511 
L 177.943076 129.027169 
L 178.891249 130.194511 
L 179.839422 130.778182 
L 180.787596 130.486346 
L 181.735769 130.778182 
L 182.683942 130.486346 
L 183.632116 130.778182 
L 184.580289 130.194511 
L 186.476636 130.194511 
L 187.424809 130.778182 
L 188.372982 130.778182 
L 191.217502 129.027169 
L 192.165675 130.194511 
L 193.113849 129.61084 
L 194.062022 130.778182 
L 195.010195 129.027169 
L 195.958369 129.902675 
L 196.906542 130.194511 
L 197.854715 129.902675 
L 198.802889 128.735333 
L 199.751062 130.486346 
L 200.699235 129.61084 
L 201.647409 127.859826 
L 202.595582 129.027169 
L 203.543755 127.276155 
L 204.491929 120.563937 
L 205.440102 129.319004 
L 206.388275 130.778182 
L 207.336449 130.194511 
L 208.284622 127.567991 
L 210.180969 129.319004 
L 211.129142 126.692484 
L 212.077315 129.902675 
L 213.025489 129.902675 
L 213.973662 130.486346 
L 214.921835 127.859826 
L 215.870008 127.859826 
L 216.818182 130.778182 
L 217.766355 130.194511 
L 218.714528 130.778182 
L 219.662702 129.902675 
L 220.610875 124.065964 
L 221.559048 126.98432 
L 222.507222 127.859826 
L 223.455395 129.61084 
L 224.403568 130.778182 
L 225.351742 129.319004 
L 226.299915 130.486346 
L 227.248088 127.567991 
L 228.196262 130.194511 
L 229.144435 127.567991 
L 230.092608 125.816977 
L 231.040782 127.276155 
L 231.988955 129.61084 
L 232.937128 126.108813 
L 233.885302 128.151662 
L 234.833475 130.486346 
L 235.781648 126.400649 
L 236.729822 129.902675 
L 237.677995 128.443497 
L 238.626168 126.400649 
L 239.574342 128.151662 
L 240.522515 130.778182 
L 241.470688 130.486346 
L 242.418862 130.486346 
L 243.367035 130.778182 
L 244.315208 129.902675 
L 245.263381 130.194511 
L 247.159728 126.108813 
L 248.107901 129.61084 
L 249.056075 130.486346 
L 250.004248 130.778182 
L 250.952421 129.902675 
L 251.900595 124.649635 
L 252.848768 130.778182 
L 253.796941 130.194511 
L 254.745115 130.486346 
L 256.641461 130.486346 
L 257.589635 125.233306 
L 258.537808 129.902675 
L 259.485981 129.027169 
L 260.434155 123.774129 
L 261.382328 125.816977 
L 262.330501 130.486346 
L 263.278675 130.778182 
L 264.226848 128.443497 
L 265.175021 130.194511 
L 266.123195 129.902675 
L 267.071368 130.486346 
L 268.019541 130.486346 
L 268.967715 130.778182 
L 269.915888 127.567991 
L 270.864061 130.778182 
L 271.812234 130.486346 
L 272.760408 129.902675 
L 273.708581 129.027169 
L 274.656754 130.778182 
L 275.604928 129.902675 
L 276.553101 130.778182 
L 277.501274 130.194511 
L 278.449448 130.194511 
L 279.397621 130.778182 
L 281.293968 130.778182 
L 282.242141 129.319004 
L 283.190314 130.778182 
L 284.138488 129.902675 
L 285.086661 128.443497 
L 286.034834 130.778182 
L 286.983008 130.778182 
L 287.931181 130.486346 
L 288.879354 129.902675 
L 291.723874 130.778182 
L 292.672048 130.486346 
L 293.620221 128.735333 
L 294.568394 128.735333 
L 295.516568 129.319004 
L 296.464741 130.778182 
L 297.412914 126.400649 
L 298.361088 130.778182 
L 299.309261 130.486346 
L 300.257434 128.735333 
L 301.205607 128.443497 
L 302.153781 130.778182 
L 303.101954 130.486346 
L 304.050127 127.276155 
L 304.998301 128.735333 
L 305.946474 130.486346 
L 306.894647 129.902675 
L 307.842821 130.778182 
L 308.790994 130.778182 
L 309.739167 130.486346 
L 310.687341 130.778182 
L 311.635514 129.902675 
L 312.583687 130.194511 
L 313.531861 130.778182 
L 316.376381 130.778182 
L 317.324554 129.61084 
L 318.272727 130.486346 
L 319.220901 130.778182 
L 320.169074 130.486346 
L 321.117247 129.319004 
L 322.065421 130.778182 
L 323.013594 130.778182 
L 323.961767 130.194511 
L 324.909941 130.778182 
L 326.806287 130.194511 
L 327.75446 130.778182 
L 328.702634 130.486346 
L 329.650807 130.778182 
L 330.59898 129.902675 
L 331.547154 130.486346 
L 332.495327 130.194511 
L 333.4435 130.778182 
L 335.339847 130.778182 
L 337.236194 130.194511 
L 338.184367 129.027169 
L 339.13254 130.486346 
L 340.080714 130.778182 
L 341.028887 127.859826 
L 341.97706 127.567991 
L 342.925234 130.778182 
L 344.82158 130.778182 
L 346.717927 130.194511 
L 347.6661 130.778182 
L 348.614274 128.443497 
L 349.562447 126.692484 
L 350.51062 130.486346 
L 351.458794 126.400649 
L 352.406967 129.319004 
L 353.35514 130.778182 
L 356.19966 130.778182 
L 357.147833 130.486346 
L 358.096007 130.778182 
L 359.04418 130.778182 
L 359.992353 129.61084 
L 360.940527 123.190457 
L 361.8887 125.525142 
L 362.836873 130.194511 
L 363.785047 127.567991 
L 364.73322 123.190457 
L 365.681393 122.023115 
L 366.629567 122.023115 
L 367.57774 125.525142 
L 368.525913 126.400649 
L 369.474087 127.859826 
L 370.42226 130.778182 
L 371.370433 128.735333 
L 372.318607 130.778182 
L 373.26678 130.778182 
L 374.214953 127.276155 
L 375.163127 130.194511 
L 376.1113 126.98432 
L 377.059473 129.61084 
L 378.007647 128.735333 
L 378.95582 130.486346 
L 379.903993 130.778182 
L 380.852167 129.61084 
L 381.80034 126.400649 
L 382.748513 128.443497 
L 383.696686 128.735333 
L 384.64486 130.486346 
L 385.593033 130.778182 
L 386.541206 130.778182 
L 387.48938 130.194511 
L 388.437553 129.902675 
L 389.385726 129.027169 
L 390.3339 129.027169 
L 391.282073 130.778182 
L 392.230246 130.778182 
L 393.17842 128.151662 
L 394.126593 127.567991 
L 395.074766 130.778182 
L 396.02294 130.194511 
L 396.971113 130.778182 
L 397.919286 129.319004 
L 398.86746 130.194511 
L 399.815633 130.778182 
L 400.763806 130.486346 
L 401.71198 129.902675 
L 402.660153 129.902675 
L 403.608326 126.692484 
L 404.5565 129.902675 
L 405.504673 130.194511 
L 406.452846 128.735333 
L 407.40102 125.816977 
L 408.349193 128.735333 
L 409.297366 129.027169 
L 410.24554 130.486346 
L 411.193713 128.735333 
L 413.090059 122.314951 
L 414.038233 129.319004 
L 414.986406 127.567991 
L 415.934579 130.778182 
L 416.882753 126.108813 
L 417.830926 124.3578 
L 418.779099 129.61084 
L 419.727273 127.567991 
L 420.675446 130.778182 
L 422.571793 130.778182 
L 423.519966 125.816977 
L 424.468139 124.065964 
L 425.416313 130.486346 
L 426.364486 128.443497 
L 427.312659 130.778182 
L 428.260833 130.778182 
L 429.209006 130.486346 
L 430.157179 130.778182 
L 431.105353 130.486346 
L 432.053526 130.778182 
L 433.001699 128.735333 
L 433.949873 127.859826 
L 434.898046 124.3578 
L 435.846219 129.319004 
L 436.794393 130.778182 
L 437.742566 126.98432 
L 438.690739 130.486346 
L 440.587086 128.735333 
L 441.535259 129.319004 
L 442.483432 129.61084 
L 443.431606 130.778182 
L 444.379779 129.319004 
L 445.327952 126.98432 
L 446.276126 130.194511 
L 447.224299 129.027169 
L 448.172472 129.319004 
L 449.120646 130.778182 
L 450.068819 121.147609 
L 451.016992 127.567991 
L 451.965166 124.941471 
L 452.913339 128.735333 
L 453.861512 122.023115 
L 454.809686 130.778182 
L 455.757859 130.486346 
L 456.706032 125.233306 
L 457.654206 124.3578 
L 458.602379 125.233306 
L 459.550552 129.61084 
L 460.498726 130.778182 
L 461.446899 126.400649 
L 462.395072 122.898622 
L 463.343246 122.606786 
L 464.291419 130.778182 
L 465.239592 129.027169 
L 466.187766 130.778182 
L 467.135939 124.3578 
L 468.084112 130.194511 
L 469.032285 130.778182 
L 470.928632 130.778182 
L 471.876805 129.902675 
L 472.824979 130.486346 
L 473.773152 129.319004 
L 474.721325 129.902675 
L 475.669499 129.319004 
L 476.617672 126.400649 
L 477.565845 130.486346 
L 478.514019 122.023115 
L 479.462192 128.735333 
L 480.410365 128.443497 
L 481.358539 124.649635 
L 482.306712 124.649635 
L 483.254885 128.151662 
L 484.203059 128.735333 
L 485.151232 130.778182 
L 486.099405 129.902675 
L 487.047579 130.778182 
L 487.995752 129.902675 
L 488.943925 129.61084 
L 489.892099 124.941471 
L 490.840272 118.521089 
L 491.788445 126.692484 
L 492.736619 130.486346 
L 493.684792 130.778182 
L 494.632965 130.194511 
L 495.581138 129.902675 
L 496.529312 130.194511 
L 497.477485 130.778182 
L 498.425658 130.778182 
L 499.373832 130.486346 
L 500.322005 130.778182 
L 501.270178 130.778182 
L 502.218352 130.486346 
L 503.166525 130.778182 
L 505.062872 130.778182 
L 506.011045 130.194511 
L 507.907392 130.778182 
L 508.855565 130.778182 
L 509.803738 130.486346 
L 510.751912 130.486346 
L 511.700085 130.778182 
L 512.648258 130.778182 
L 513.596432 130.486346 
L 514.544605 130.486346 
L 515.492778 130.778182 
L 516.440952 130.486346 
L 517.389125 130.778182 
L 518.337298 130.778182 
L 519.285472 130.194511 
L 520.233645 130.486346 
L 521.181818 129.902675 
L 522.129992 129.027169 
L 523.078165 130.194511 
L 524.026338 130.486346 
L 524.974511 130.194511 
L 525.922685 130.778182 
L 526.870858 129.61084 
L 527.819031 129.027169 
L 528.767205 130.778182 
L 529.715378 130.778182 
L 530.663551 130.486346 
L 531.611725 130.778182 
L 532.559898 130.778182 
L 533.508071 129.61084 
L 534.456245 130.778182 
L 535.404418 129.027169 
L 536.352591 128.735333 
L 537.300765 130.778182 
L 538.248938 130.778182 
L 539.197111 127.567991 
L 540.145285 130.778182 
L 541.093458 125.525142 
L 542.041631 125.525142 
L 542.989805 128.735333 
L 543.937978 122.606786 
L 544.886151 126.108813 
L 545.834325 130.194511 
L 547.730671 130.778182 
L 548.678845 130.486346 
L 551.523364 130.486346 
L 552.471538 130.778182 
L 553.419711 130.778182 
L 554.367884 130.486346 
L 555.316058 130.486346 
L 556.264231 130.778182 
L 558.160578 130.778182 
L 559.108751 129.61084 
L 560.056924 129.319004 
L 561.005098 125.525142 
L 561.953271 130.778182 
L 562.901444 130.194511 
L 563.849618 129.319004 
L 564.797791 129.902675 
L 565.745964 127.276155 
L 566.694138 130.778182 
L 567.642311 130.194511 
L 568.590484 130.486346 
L 569.538658 129.319004 
L 570.486831 129.319004 
L 571.435004 130.486346 
L 572.383178 130.194511 
L 574.279524 130.778182 
L 575.227698 130.194511 
L 576.175871 129.902675 
L 577.124044 129.902675 
L 578.072218 130.486346 
L 579.020391 125.525142 
L 579.968564 130.194511 
L 580.916737 126.98432 
L 581.864911 126.692484 
L 582.813084 130.778182 
L 583.761257 129.902675 
L 584.709431 128.443497 
L 585.657604 130.778182 
L 586.605777 130.194511 
L 587.553951 130.486346 
L 588.502124 130.486346 
L 589.450297 124.065964 
L 590.398471 129.61084 
L 591.346644 130.778182 
L 592.294817 130.778182 
L 593.242991 130.486346 
L 594.191164 127.859826 
L 595.139337 128.151662 
L 596.087511 130.486346 
L 597.035684 127.276155 
L 597.983857 130.778182 
L 598.932031 130.778182 
L 599.880204 129.902675 
L 600.828377 130.778182 
L 601.776551 129.319004 
L 602.724724 130.194511 
L 603.672897 130.778182 
L 604.621071 130.486346 
L 605.569244 130.778182 
L 606.517417 130.486346 
L 607.46559 129.027169 
L 608.413764 130.486346 
L 609.361937 130.778182 
L 611.258284 130.778182 
L 612.206457 126.98432 
L 613.15463 126.692484 
L 614.102804 123.774129 
L 615.050977 130.778182 
L 615.99915 126.400649 
L 616.947324 130.486346 
L 617.895497 130.778182 
L 618.84367 130.194511 
L 619.791844 130.194511 
L 620.740017 130.778182 
L 621.68819 118.229253 
L 622.636364 129.902675 
L 622.636364 129.902675 
" clip-path="url(#p882cd4e9d6)" style="fill: none; stroke: #ff7f0e; stroke-width: 1.5; stroke-linecap: square"/>
   </g>
   <g id="patch_3">
    <path d="M 90 135.36 
L 90 34.56 
" style="fill: none; stroke: #000000; stroke-width: 0.8; stroke-linejoin: miter; stroke-linecap: square"/>
   </g>
   <g id="patch_4">
    <path d="M 648 135.36 
L 648 34.56 
" style="fill: none; stroke: #000000; stroke-width: 0.8; stroke-linejoin: miter; stroke-linecap: square"/>
   </g>
   <g id="patch_5">
    <path d="M 90 135.36 
L 648 135.36 
" style="fill: none; stroke: #000000; stroke-width: 0.8; stroke-linejoin: miter; stroke-linecap: square"/>
   </g>
   <g id="patch_6">
    <path d="M 90 34.56 
L 648 34.56 
" style="fill: none; stroke: #000000; stroke-width: 0.8; stroke-linejoin: miter; stroke-linecap: square"/>
   </g>
   <g id="legend_1">
    <g id="patch_7">
     <path d="M 97 71.91625 
L 238.8625 71.91625 
Q 240.8625 71.91625 240.8625 69.91625 
L 240.8625 41.56 
Q 240.8625 39.56 238.8625 39.56 
L 97 39.56 
Q 95 39.56 95 41.56 
L 95 69.91625 
Q 95 71.91625 97 71.91625 
z
" style="fill: #ffffff; opacity: 0.8; stroke: #cccccc; stroke-linejoin: miter"/>
    </g>
    <g id="line2d_13">
     <path d="M 99 47.658437 
L 109 47.658437 
L 119 47.658437 
" style="fill: none; stroke: #1f77b4; stroke-width: 1.5; stroke-linecap: square"/>
    </g>
    <g id="text_12">
     <!-- Total GitHub Clones -->
     <g transform="translate(127 51.158437)scale(0.1 -0.1)">
      <defs>
       <path id="DejaVuSans-54" d="M -19 4666 
L 3928 4666 
L 3928 4134 
L 2272 4134 
L 2272 0 
L 1638 0 
L 1638 4134 
L -19 4134 
L -19 4666 
z
" transform="scale(0.015625)"/>
       <path id="DejaVuSans-6f" d="M 1959 3097 
Q 1497 3097 1228 2736 
Q 959 2375 959 1747 
Q 959 1119 1226 758 
Q 1494 397 1959 397 
Q 2419 397 2687 759 
Q 2956 1122 2956 1747 
Q 2956 2369 2687 2733 
Q 2419 3097 1959 3097 
z
M 1959 3584 
Q 2709 3584 3137 3096 
Q 3566 2609 3566 1747 
Q 3566 888 3137 398 
Q 2709 -91 1959 -91 
Q 1206 -91 779 398 
Q 353 888 353 1747 
Q 353 2609 779 3096 
Q 1206 3584 1959 3584 
z
" transform="scale(0.015625)"/>
       <path id="DejaVuSans-6c" d="M 603 4863 
L 1178 4863 
L 1178 0 
L 603 0 
L 603 4863 
z
" transform="scale(0.015625)"/>
       <path id="DejaVuSans-20" transform="scale(0.015625)"/>
       <path id="DejaVuSans-47" d="M 3809 666 
L 3809 1919 
L 2778 1919 
L 2778 2438 
L 4434 2438 
L 4434 434 
Q 4069 175 3628 42 
Q 3188 -91 2688 -91 
Q 1594 -91 976 548 
Q 359 1188 359 2328 
Q 359 3472 976 4111 
Q 1594 4750 2688 4750 
Q 3144 4750 3555 4637 
Q 3966 4525 4313 4306 
L 4313 3634 
Q 3963 3931 3569 4081 
Q 3175 4231 2741 4231 
Q 1884 4231 1454 3753 
Q 1025 3275 1025 2328 
Q 1025 1384 1454 906 
Q 1884 428 2741 428 
Q 3075 428 3337 486 
Q 3600 544 3809 666 
z
" transform="scale(0.015625)"/>
       <path id="DejaVuSans-69" d="M 603 3500 
L 1178 3500 
L 1178 0 
L 603 0 
L 603 3500 
z
M 603 4863 
L 1178 4863 
L 1178 4134 
L 603 4134 
L 603 4863 
z
" transform="scale(0.015625)"/>
       <path id="DejaVuSans-48" d="M 628 4666 
L 1259 4666 
L 1259 2753 
L 3553 2753 
L 3553 4666 
L 4184 4666 
L 4184 0 
L 3553 0 
L 3553 2222 
L 1259 2222 
L 1259 0 
L 628 0 
L 628 4666 
z
" transform="scale(0.015625)"/>
       <path id="DejaVuSans-75" d="M 544 1381 
L 544 3500 
L 1119 3500 
L 1119 1403 
Q 1119 906 1312 657 
Q 1506 409 1894 409 
Q 2359 409 2629 706 
Q 2900 1003 2900 1516 
L 2900 3500 
L 3475 3500 
L 3475 0 
L 2900 0 
L 2900 538 
Q 2691 219 2414 64 
Q 2138 -91 1772 -91 
Q 1169 -91 856 284 
Q 544 659 544 1381 
z
M 1991 3584 
L 1991 3584 
z
" transform="scale(0.015625)"/>
       <path id="DejaVuSans-62" d="M 3116 1747 
Q 3116 2381 2855 2742 
Q 2594 3103 2138 3103 
Q 1681 3103 1420 2742 
Q 1159 2381 1159 1747 
Q 1159 1113 1420 752 
Q 1681 391 2138 391 
Q 2594 391 2855 752 
Q 3116 1113 3116 1747 
z
M 1159 2969 
Q 1341 3281 1617 3432 
Q 1894 3584 2278 3584 
Q 2916 3584 3314 3078 
Q 3713 2572 3713 1747 
Q 3713 922 3314 415 
Q 2916 -91 2278 -91 
Q 1894 -91 1617 61 
Q 1341 213 1159 525 
L 1159 0 
L 581 0 
L 581 4863 
L 1159 4863 
L 1159 2969 
z
" transform="scale(0.015625)"/>
       <path id="DejaVuSans-43" d="M 4122 4306 
L 4122 3641 
Q 3803 3938 3442 4084 
Q 3081 4231 2675 4231 
Q 1875 4231 1450 3742 
Q 1025 3253 1025 2328 
Q 1025 1406 1450 917 
Q 1875 428 2675 428 
Q 3081 428 3442 575 
Q 3803 722 4122 1019 
L 4122 359 
Q 3791 134 3420 21 
Q 3050 -91 2638 -91 
Q 1578 -91 968 557 
Q 359 1206 359 2328 
Q 359 3453 968 4101 
Q 1578 4750 2638 4750 
Q 3056 4750 3426 4639 
Q 3797 4528 4122 4306 
z
" transform="scale(0.015625)"/>
       <path id="DejaVuSans-6e" d="M 3513 2113 
L 3513 0 
L 2938 0 
L 2938 2094 
Q 2938 2591 2744 2837 
Q 2550 3084 2163 3084 
Q 1697 3084 1428 2787 
Q 1159 2491 1159 1978 
L 1159 0 
L 581 0 
L 581 3500 
L 1159 3500 
L 1159 2956 
Q 1366 3272 1645 3428 
Q 1925 3584 2291 3584 
Q 2894 3584 3203 3211 
Q 3513 2838 3513 2113 
z
" transform="scale(0.015625)"/>
       <path id="DejaVuSans-73" d="M 2834 3397 
L 2834 2853 
Q 2591 2978 2328 3040 
Q 2066 3103 1784 3103 
Q 1356 3103 1142 2972 
Q 928 2841 928 2578 
Q 928 2378 1081 2264 
Q 1234 2150 1697 2047 
L 1894 2003 
Q 2506 1872 2764 1633 
Q 3022 1394 3022 966 
Q 3022 478 2636 193 
Q 2250 -91 1575 -91 
Q 1294 -91 989 -36 
Q 684 19 347 128 
L 347 722 
Q 666 556 975 473 
Q 1284 391 1588 391 
Q 1994 391 2212 530 
Q 2431 669 2431 922 
Q 2431 1156 2273 1281 
Q 2116 1406 1581 1522 
L 1381 1569 
Q 847 1681 609 1914 
Q 372 2147 372 2553 
Q 372 3047 722 3315 
Q 1072 3584 1716 3584 
Q 2034 3584 2315 3537 
Q 2597 3491 2834 3397 
z
" transform="scale(0.015625)"/>
      </defs>
      <use xlink:href="#DejaVuSans-54"/>
      <use xlink:href="#DejaVuSans-6f" x="44.083984"/>
      <use xlink:href="#DejaVuSans-74" x="105.265625"/>
      <use xlink:href="#DejaVuSans-61" x="144.474609"/>
      <use xlink:href="#DejaVuSans-6c" x="205.753906"/>
      <use xlink:href="#DejaVuSans-20" x="233.537109"/>
      <use xlink:href="#DejaVuSans-47" x="265.324219"/>
      <use xlink:href="#DejaVuSans-69" x="342.814453"/>
      <use xlink:href="#DejaVuSans-74" x="370.597656"/>
      <use xlink:href="#DejaVuSans-48" x="409.806641"/>
      <use xlink:href="#DejaVuSans-75" x="485.001953"/>
      <use xlink:href="#DejaVuSans-62" x="548.380859"/>
      <use xlink:href="#DejaVuSans-20" x="611.857422"/>
      <use xlink:href="#DejaVuSans-43" x="643.644531"/>
      <use xlink:href="#DejaVuSans-6c" x="713.46875"/>
      <use xlink:href="#DejaVuSans-6f" x="741.251953"/>
      <use xlink:href="#DejaVuSans-6e" x="802.433594"/>
      <use xlink:href="#DejaVuSans-65" x="865.8125"/>
      <use xlink:href="#DejaVuSans-73" x="927.335938"/>
     </g>
    </g>
    <g id="line2d_14">
     <path d="M 99 62.336562 
L 109 62.336562 
L 119 62.336562 
" style="fill: none; stroke: #ff7f0e; stroke-width: 1.5; stroke-linecap: square"/>
    </g>
    <g id="text_13">
     <!-- Unique GitHub Clones -->
     <g transform="translate(127 65.836562)scale(0.1 -0.1)">
      <defs>
       <path id="DejaVuSans-55" d="M 556 4666 
L 1191 4666 
L 1191 1831 
Q 1191 1081 1462 751 
Q 1734 422 2344 422 
Q 2950 422 3222 751 
Q 3494 1081 3494 1831 
L 3494 4666 
L 4128 4666 
L 4128 1753 
Q 4128 841 3676 375 
Q 3225 -91 2344 -91 
Q 1459 -91 1007 375 
Q 556 841 556 1753 
L 556 4666 
z
" transform="scale(0.015625)"/>
       <path id="DejaVuSans-71" d="M 947 1747 
Q 947 1113 1208 752 
Q 1469 391 1925 391 
Q 2381 391 2643 752 
Q 2906 1113 2906 1747 
Q 2906 2381 2643 2742 
Q 2381 3103 1925 3103 
Q 1469 3103 1208 2742 
Q 947 2381 947 1747 
z
M 2906 525 
Q 2725 213 2448 61 
Q 2172 -91 1784 -91 
Q 1150 -91 751 415 
Q 353 922 353 1747 
Q 353 2572 751 3078 
Q 1150 3584 1784 3584 
Q 2172 3584 2448 3432 
Q 2725 3281 2906 2969 
L 2906 3500 
L 3481 3500 
L 3481 -1331 
L 2906 -1331 
L 2906 525 
z
" transform="scale(0.015625)"/>
      </defs>
      <use xlink:href="#DejaVuSans-55"/>
      <use xlink:href="#DejaVuSans-6e" x="73.193359"/>
      <use xlink:href="#DejaVuSans-69" x="136.572266"/>
      <use xlink:href="#DejaVuSans-71" x="164.355469"/>
      <use xlink:href="#DejaVuSans-75" x="227.832031"/>
      <use xlink:href="#DejaVuSans-65" x="291.210938"/>
      <use xlink:href="#DejaVuSans-20" x="352.734375"/>
      <use xlink:href="#DejaVuSans-47" x="384.521484"/>
      <use xlink:href="#DejaVuSans-69" x="462.011719"/>
      <use xlink:href="#DejaVuSans-74" x="489.794922"/>
      <use xlink:href="#DejaVuSans-48" x="529.003906"/>
      <use xlink:href="#DejaVuSans-75" x="604.199219"/>
      <use xlink:href="#DejaVuSans-62" x="667.578125"/>
      <use xlink:href="#DejaVuSans-20" x="731.054688"/>
      <use xlink:href="#DejaVuSans-43" x="762.841797"/>
      <use xlink:href="#DejaVuSans-6c" x="832.666016"/>
      <use xlink:href="#DejaVuSans-6f" x="860.449219"/>
      <use xlink:href="#DejaVuSans-6e" x="921.630859"/>
      <use xlink:href="#DejaVuSans-65" x="985.009766"/>
      <use xlink:href="#DejaVuSans-73" x="1046.533203"/>
     </g>
    </g>
   </g>
  </g>
  <g id="axes_2">
   <g id="patch_8">
    <path d="M 90 256.32 
L 648 256.32 
L 648 155.52 
L 90 155.52 
z
" style="fill: #ffffff"/>
   </g>
   <g id="matplotlib.axis_3">
    <g id="xtick_7">
     <g id="line2d_15">
      <g>
       <use xlink:href="#m64b32010c6" x="115.363636" y="256.32" style="stroke: #000000; stroke-width: 0.8"/>
      </g>
     </g>
     <g id="text_14">
      <!-- 2020-10-21 -->
      <g transform="translate(86.305824 270.918437)scale(0.1 -0.1)">
       <use xlink:href="#DejaVuSans-32"/>
       <use xlink:href="#DejaVuSans-30" x="63.623047"/>
       <use xlink:href="#DejaVuSans-32" x="127.246094"/>
       <use xlink:href="#DejaVuSans-30" x="190.869141"/>
       <use xlink:href="#DejaVuSans-2d" x="254.492188"/>
       <use xlink:href="#DejaVuSans-31" x="290.576172"/>
       <use xlink:href="#DejaVuSans-30" x="354.199219"/>
       <use xlink:href="#DejaVuSans-2d" x="417.822266"/>
       <use xlink:href="#DejaVuSans-32" x="453.90625"/>
       <use xlink:href="#DejaVuSans-31" x="517.529297"/>
      </g>
     </g>
    </g>
    <g id="xtick_8">
     <g id="line2d_16">
      <g>
       <use xlink:href="#m64b32010c6" x="190.850649" y="256.32" style="stroke: #000000; stroke-width: 0.8"/>
      </g>
     </g>
     <g id="text_15">
      <!-- 2021-01-31 -->
      <g transform="translate(161.792837 270.918437)scale(0.1 -0.1)">
       <use xlink:href="#DejaVuSans-32"/>
       <use xlink:href="#DejaVuSans-30" x="63.623047"/>
       <use xlink:href="#DejaVuSans-32" x="127.246094"/>
       <use xlink:href="#DejaVuSans-31" x="190.869141"/>
       <use xlink:href="#DejaVuSans-2d" x="254.492188"/>
       <use xlink:href="#DejaVuSans-30" x="290.576172"/>
       <use xlink:href="#DejaVuSans-31" x="354.199219"/>
       <use xlink:href="#DejaVuSans-2d" x="417.822266"/>
       <use xlink:href="#DejaVuSans-33" x="453.90625"/>
       <use xlink:href="#DejaVuSans-31" x="517.529297"/>
      </g>
     </g>
    </g>
    <g id="xtick_9">
     <g id="line2d_17">
      <g>
       <use xlink:href="#m64b32010c6" x="266.337662" y="256.32" style="stroke: #000000; stroke-width: 0.8"/>
      </g>
     </g>
     <g id="text_16">
      <!-- 2021-05-11 -->
      <g transform="translate(237.27985 270.918437)scale(0.1 -0.1)">
       <defs>
        <path id="DejaVuSans-35" d="M 691 4666 
L 3169 4666 
L 3169 4134 
L 1269 4134 
L 1269 2991 
Q 1406 3038 1543 3061 
Q 1681 3084 1819 3084 
Q 2600 3084 3056 2656 
Q 3513 2228 3513 1497 
Q 3513 744 3044 326 
Q 2575 -91 1722 -91 
Q 1428 -91 1123 -41 
Q 819 9 494 109 
L 494 744 
Q 775 591 1075 516 
Q 1375 441 1709 441 
Q 2250 441 2565 725 
Q 2881 1009 2881 1497 
Q 2881 1984 2565 2268 
Q 2250 2553 1709 2553 
Q 1456 2553 1204 2497 
Q 953 2441 691 2322 
L 691 4666 
z
" transform="scale(0.015625)"/>
       </defs>
       <use xlink:href="#DejaVuSans-32"/>
       <use xlink:href="#DejaVuSans-30" x="63.623047"/>
       <use xlink:href="#DejaVuSans-32" x="127.246094"/>
       <use xlink:href="#DejaVuSans-31" x="190.869141"/>
       <use xlink:href="#DejaVuSans-2d" x="254.492188"/>
       <use xlink:href="#DejaVuSans-30" x="290.576172"/>
       <use xlink:href="#DejaVuSans-35" x="354.199219"/>
       <use xlink:href="#DejaVuSans-2d" x="417.822266"/>
       <use xlink:href="#DejaVuSans-31" x="453.90625"/>
       <use xlink:href="#DejaVuSans-31" x="517.529297"/>
      </g>
     </g>
    </g>
    <g id="xtick_10">
     <g id="line2d_18">
      <g>
       <use xlink:href="#m64b32010c6" x="341.824675" y="256.32" style="stroke: #000000; stroke-width: 0.8"/>
      </g>
     </g>
     <g id="text_17">
      <!-- 2021-08-19 -->
      <g transform="translate(312.766863 270.918437)scale(0.1 -0.1)">
       <defs>
        <path id="DejaVuSans-39" d="M 703 97 
L 703 672 
Q 941 559 1184 500 
Q 1428 441 1663 441 
Q 2288 441 2617 861 
Q 2947 1281 2994 2138 
Q 2813 1869 2534 1725 
Q 2256 1581 1919 1581 
Q 1219 1581 811 2004 
Q 403 2428 403 3163 
Q 403 3881 828 4315 
Q 1253 4750 1959 4750 
Q 2769 4750 3195 4129 
Q 3622 3509 3622 2328 
Q 3622 1225 3098 567 
Q 2575 -91 1691 -91 
Q 1453 -91 1209 -44 
Q 966 3 703 97 
z
M 1959 2075 
Q 2384 2075 2632 2365 
Q 2881 2656 2881 3163 
Q 2881 3666 2632 3958 
Q 2384 4250 1959 4250 
Q 1534 4250 1286 3958 
Q 1038 3666 1038 3163 
Q 1038 2656 1286 2365 
Q 1534 2075 1959 2075 
z
" transform="scale(0.015625)"/>
       </defs>
       <use xlink:href="#DejaVuSans-32"/>
       <use xlink:href="#DejaVuSans-30" x="63.623047"/>
       <use xlink:href="#DejaVuSans-32" x="127.246094"/>
       <use xlink:href="#DejaVuSans-31" x="190.869141"/>
       <use xlink:href="#DejaVuSans-2d" x="254.492188"/>
       <use xlink:href="#DejaVuSans-30" x="290.576172"/>
       <use xlink:href="#DejaVuSans-38" x="354.199219"/>
       <use xlink:href="#DejaVuSans-2d" x="417.822266"/>
       <use xlink:href="#DejaVuSans-31" x="453.90625"/>
       <use xlink:href="#DejaVuSans-39" x="517.529297"/>
      </g>
     </g>
    </g>
    <g id="xtick_11">
     <g id="line2d_19">
      <g>
       <use xlink:href="#m64b32010c6" x="417.311688" y="256.32" style="stroke: #000000; stroke-width: 0.8"/>
      </g>
     </g>
     <g id="text_18">
      <!-- 2021-11-28 -->
      <g transform="translate(388.253876 270.918437)scale(0.1 -0.1)">
       <use xlink:href="#DejaVuSans-32"/>
       <use xlink:href="#DejaVuSans-30" x="63.623047"/>
       <use xlink:href="#DejaVuSans-32" x="127.246094"/>
       <use xlink:href="#DejaVuSans-31" x="190.869141"/>
       <use xlink:href="#DejaVuSans-2d" x="254.492188"/>
       <use xlink:href="#DejaVuSans-31" x="290.576172"/>
       <use xlink:href="#DejaVuSans-31" x="354.199219"/>
       <use xlink:href="#DejaVuSans-2d" x="417.822266"/>
       <use xlink:href="#DejaVuSans-32" x="453.90625"/>
       <use xlink:href="#DejaVuSans-38" x="517.529297"/>
      </g>
     </g>
    </g>
    <g id="xtick_12">
     <g id="line2d_20">
      <g>
       <use xlink:href="#m64b32010c6" x="492.798701" y="256.32" style="stroke: #000000; stroke-width: 0.8"/>
      </g>
     </g>
     <g id="text_19">
      <!-- 2022-03-10 -->
      <g transform="translate(463.740889 270.918437)scale(0.1 -0.1)">
       <use xlink:href="#DejaVuSans-32"/>
       <use xlink:href="#DejaVuSans-30" x="63.623047"/>
       <use xlink:href="#DejaVuSans-32" x="127.246094"/>
       <use xlink:href="#DejaVuSans-32" x="190.869141"/>
       <use xlink:href="#DejaVuSans-2d" x="254.492188"/>
       <use xlink:href="#DejaVuSans-30" x="290.576172"/>
       <use xlink:href="#DejaVuSans-33" x="354.199219"/>
       <use xlink:href="#DejaVuSans-2d" x="417.822266"/>
       <use xlink:href="#DejaVuSans-31" x="453.90625"/>
       <use xlink:href="#DejaVuSans-30" x="517.529297"/>
      </g>
     </g>
    </g>
    <g id="xtick_13">
     <g id="line2d_21">
      <g>
       <use xlink:href="#m64b32010c6" x="568.285714" y="256.32" style="stroke: #000000; stroke-width: 0.8"/>
      </g>
     </g>
     <g id="text_20">
      <!-- 2022-06-19 -->
      <g transform="translate(539.227902 270.918437)scale(0.1 -0.1)">
       <defs>
        <path id="DejaVuSans-36" d="M 2113 2584 
Q 1688 2584 1439 2293 
Q 1191 2003 1191 1497 
Q 1191 994 1439 701 
Q 1688 409 2113 409 
Q 2538 409 2786 701 
Q 3034 994 3034 1497 
Q 3034 2003 2786 2293 
Q 2538 2584 2113 2584 
z
M 3366 4563 
L 3366 3988 
Q 3128 4100 2886 4159 
Q 2644 4219 2406 4219 
Q 1781 4219 1451 3797 
Q 1122 3375 1075 2522 
Q 1259 2794 1537 2939 
Q 1816 3084 2150 3084 
Q 2853 3084 3261 2657 
Q 3669 2231 3669 1497 
Q 3669 778 3244 343 
Q 2819 -91 2113 -91 
Q 1303 -91 875 529 
Q 447 1150 447 2328 
Q 447 3434 972 4092 
Q 1497 4750 2381 4750 
Q 2619 4750 2861 4703 
Q 3103 4656 3366 4563 
z
" transform="scale(0.015625)"/>
       </defs>
       <use xlink:href="#DejaVuSans-32"/>
       <use xlink:href="#DejaVuSans-30" x="63.623047"/>
       <use xlink:href="#DejaVuSans-32" x="127.246094"/>
       <use xlink:href="#DejaVuSans-32" x="190.869141"/>
       <use xlink:href="#DejaVuSans-2d" x="254.492188"/>
       <use xlink:href="#DejaVuSans-30" x="290.576172"/>
       <use xlink:href="#DejaVuSans-36" x="354.199219"/>
       <use xlink:href="#DejaVuSans-2d" x="417.822266"/>
       <use xlink:href="#DejaVuSans-31" x="453.90625"/>
       <use xlink:href="#DejaVuSans-39" x="517.529297"/>
      </g>
     </g>
    </g>
    <g id="xtick_14">
     <g id="line2d_22">
      <g>
       <use xlink:href="#m64b32010c6" x="643.772727" y="256.32" style="stroke: #000000; stroke-width: 0.8"/>
      </g>
     </g>
    </g>
    <g id="text_21">
     <!-- _date -->
     <g transform="translate(355.225 284.596563)scale(0.1 -0.1)">
      <use xlink:href="#DejaVuSans-5f"/>
      <use xlink:href="#DejaVuSans-64" x="50"/>
      <use xlink:href="#DejaVuSans-61" x="113.476562"/>
      <use xlink:href="#DejaVuSans-74" x="174.755859"/>
      <use xlink:href="#DejaVuSans-65" x="213.964844"/>
     </g>
    </g>
   </g>
   <g id="matplotlib.axis_4">
    <g id="ytick_5">
     <g id="line2d_23">
      <g>
       <use xlink:href="#m2984426832" x="90" y="252.006124" style="stroke: #000000; stroke-width: 0.8"/>
      </g>
     </g>
     <g id="text_22">
      <!-- 0 -->
      <g transform="translate(76.6375 255.805343)scale(0.1 -0.1)">
       <use xlink:href="#DejaVuSans-30"/>
      </g>
     </g>
    </g>
    <g id="ytick_6">
     <g id="line2d_24">
      <g>
       <use xlink:href="#m2984426832" x="90" y="225.211866" style="stroke: #000000; stroke-width: 0.8"/>
      </g>
     </g>
     <g id="text_23">
      <!-- 100 -->
      <g transform="translate(63.9125 229.011085)scale(0.1 -0.1)">
       <use xlink:href="#DejaVuSans-31"/>
       <use xlink:href="#DejaVuSans-30" x="63.623047"/>
       <use xlink:href="#DejaVuSans-30" x="127.246094"/>
      </g>
     </g>
    </g>
    <g id="ytick_7">
     <g id="line2d_25">
      <g>
       <use xlink:href="#m2984426832" x="90" y="198.417608" style="stroke: #000000; stroke-width: 0.8"/>
      </g>
     </g>
     <g id="text_24">
      <!-- 200 -->
      <g transform="translate(63.9125 202.216826)scale(0.1 -0.1)">
       <use xlink:href="#DejaVuSans-32"/>
       <use xlink:href="#DejaVuSans-30" x="63.623047"/>
       <use xlink:href="#DejaVuSans-30" x="127.246094"/>
      </g>
     </g>
    </g>
    <g id="ytick_8">
     <g id="line2d_26">
      <g>
       <use xlink:href="#m2984426832" x="90" y="171.623349" style="stroke: #000000; stroke-width: 0.8"/>
      </g>
     </g>
     <g id="text_25">
      <!-- 300 -->
      <g transform="translate(63.9125 175.422568)scale(0.1 -0.1)">
       <use xlink:href="#DejaVuSans-33"/>
       <use xlink:href="#DejaVuSans-30" x="63.623047"/>
       <use xlink:href="#DejaVuSans-30" x="127.246094"/>
      </g>
     </g>
    </g>
   </g>
   <g id="line2d_27">
    <path d="M 115.363636 251.738182 
L 116.118506 231.910431 
L 116.873377 229.498947 
L 117.628247 244.771675 
L 118.383117 251.470239 
L 119.137987 239.412823 
L 119.892857 239.14488 
L 120.647727 235.393684 
L 121.402597 239.14488 
L 122.157468 239.948708 
L 122.912338 250.666411 
L 123.667208 248.522871 
L 124.422078 247.719043 
L 125.176948 239.948708 
L 125.931818 213.690335 
L 126.686688 227.355407 
L 127.441558 244.235789 
L 128.196429 247.4511 
L 128.951299 251.202297 
L 130.461039 225.747751 
L 131.215909 246.111388 
L 131.970779 243.699904 
L 132.725649 237.537225 
L 133.480519 237.537225 
L 134.23539 249.862584 
L 134.99026 237.805167 
L 135.74513 234.321914 
L 136.5 243.967847 
L 137.25487 243.967847 
L 138.00974 239.412823 
L 138.76461 247.183158 
L 139.519481 249.326699 
L 140.274351 227.623349 
L 141.029221 249.058756 
L 141.784091 248.254928 
L 142.538961 249.862584 
L 143.293831 247.986986 
L 144.048701 251.470239 
L 144.803571 251.470239 
L 145.558442 229.231005 
L 146.313312 217.173589 
L 147.068182 244.235789 
L 147.823052 245.575502 
L 148.577922 227.891292 
L 149.332792 250.934354 
L 150.087662 245.30756 
L 150.842532 242.092249 
L 151.597403 246.37933 
L 152.352273 237.00134 
L 153.107143 247.183158 
L 153.862013 250.934354 
L 154.616883 251.738182 
L 155.371753 244.235789 
L 156.126623 242.628134 
L 156.881494 242.896077 
L 157.636364 241.556364 
L 158.391234 249.058756 
L 159.146104 250.934354 
L 159.900974 250.666411 
L 160.655844 247.4511 
L 161.410714 247.986986 
L 162.165584 243.164019 
L 162.920455 250.130526 
L 163.675325 251.202297 
L 164.430195 251.470239 
L 165.185065 248.522871 
L 165.939935 249.594641 
L 166.694805 250.398469 
L 167.449675 251.738182 
L 168.204545 247.4511 
L 168.959416 247.719043 
L 169.714286 250.934354 
L 170.469156 246.647273 
L 171.224026 243.164019 
L 171.978896 240.752536 
L 172.733766 247.986986 
L 173.488636 249.058756 
L 174.243506 233.518086 
L 174.998377 250.398469 
L 175.753247 235.125742 
L 176.508117 236.733397 
L 177.262987 240.752536 
L 178.017857 234.589856 
L 178.772727 247.183158 
L 179.527597 235.929569 
L 180.282468 251.202297 
L 181.037338 234.857799 
L 181.792208 236.197512 
L 182.547078 228.159234 
L 183.301948 233.786029 
L 184.056818 240.752536 
L 184.811688 243.431962 
L 185.566558 248.522871 
L 186.321429 230.302775 
L 187.076299 226.015694 
L 187.831169 237.269282 
L 188.586039 235.929569 
L 189.340909 233.518086 
L 190.095779 247.719043 
L 190.850649 248.790813 
L 191.605519 231.374545 
L 192.36039 247.183158 
L 193.87013 234.321914 
L 195.37987 250.934354 
L 196.13474 247.986986 
L 196.88961 236.465455 
L 197.644481 235.929569 
L 198.399351 226.819522 
L 199.154221 242.628134 
L 199.909091 250.398469 
L 200.663961 250.666411 
L 201.418831 249.326699 
L 202.173701 243.164019 
L 202.928571 243.431962 
L 203.683442 247.183158 
L 204.438312 232.178373 
L 205.193182 248.522871 
L 205.948052 242.628134 
L 206.702922 239.948708 
L 207.457792 241.556364 
L 208.212662 227.087464 
L 208.967532 236.733397 
L 209.722403 235.929569 
L 210.477273 240.752536 
L 211.232143 239.14488 
L 211.987013 240.216651 
L 212.741883 187.431962 
L 213.496753 246.111388 
L 214.251623 232.178373 
L 215.006494 235.661627 
L 215.761364 228.427177 
L 216.516234 242.360191 
L 217.271104 202.972632 
L 218.025974 201.364976 
L 218.780844 206.99177 
L 219.535714 230.570718 
L 220.290584 178.321914 
L 221.045455 225.211866 
L 221.800325 246.37933 
L 222.555195 245.575502 
L 223.310065 238.341053 
L 224.064935 232.446316 
L 224.819805 229.231005 
L 225.574675 235.661627 
L 226.329545 225.479809 
L 227.084416 244.235789 
L 227.839286 246.111388 
L 228.594156 208.063541 
L 229.349026 233.786029 
L 230.103896 235.393684 
L 230.858766 246.647273 
L 231.613636 248.790813 
L 232.368506 248.254928 
L 233.123377 234.053971 
L 233.878247 187.967847 
L 234.633117 231.106603 
L 235.387987 235.393684 
L 236.142857 216.369761 
L 236.897727 244.771675 
L 237.652597 248.522871 
L 238.407468 245.30756 
L 239.162338 223.604211 
L 239.917208 239.412823 
L 240.672078 224.943923 
L 241.426948 203.240574 
L 242.181818 234.857799 
L 242.936688 241.824306 
L 243.691558 246.37933 
L 244.446429 180.465455 
L 245.201299 228.963062 
L 245.956169 243.967847 
L 246.711039 236.197512 
L 247.465909 237.537225 
L 248.220779 249.058756 
L 248.975649 247.183158 
L 249.730519 191.183158 
L 250.48539 184.752536 
L 251.24026 201.364976 
L 251.99513 243.431962 
L 252.75 249.326699 
L 253.50487 237.537225 
L 254.25974 247.719043 
L 255.769481 226.015694 
L 256.524351 167.336268 
L 257.279221 223.872153 
L 258.034091 223.068325 
L 258.788961 227.623349 
L 259.543831 245.843445 
L 260.298701 246.647273 
L 261.053571 221.996555 
L 261.808442 237.00134 
L 262.563312 236.733397 
L 263.318182 227.891292 
L 264.073052 243.699904 
L 264.827922 249.326699 
L 265.582792 201.097033 
L 266.337662 238.07311 
L 267.092532 215.030048 
L 267.847403 209.135311 
L 268.602273 215.565933 
L 269.357143 249.862584 
L 270.112013 249.862584 
L 270.866883 224.140096 
L 271.621753 234.053971 
L 272.376623 233.518086 
L 273.131494 239.680766 
L 273.886364 243.164019 
L 274.641234 248.522871 
L 275.396104 246.37933 
L 276.150974 227.355407 
L 276.905844 244.503732 
L 277.660714 241.020478 
L 278.415584 233.250144 
L 279.170455 239.412823 
L 279.925325 249.862584 
L 280.680195 249.862584 
L 281.435065 243.431962 
L 282.189935 240.752536 
L 282.944805 246.647273 
L 283.699675 241.824306 
L 284.454545 243.967847 
L 285.209416 249.326699 
L 285.964286 247.719043 
L 286.719156 232.178373 
L 287.474026 237.269282 
L 288.228896 172.69512 
L 288.983766 215.833876 
L 289.738636 244.503732 
L 290.493506 242.628134 
L 291.248377 250.130526 
L 292.003247 233.250144 
L 292.758117 235.125742 
L 293.512987 242.360191 
L 294.267857 241.556364 
L 295.022727 236.465455 
L 295.777597 249.862584 
L 296.532468 250.398469 
L 297.287338 196.274067 
L 298.042208 239.948708 
L 298.797078 245.30756 
L 299.551948 247.4511 
L 300.306818 204.312344 
L 301.061688 247.4511 
L 301.816558 248.254928 
L 303.326299 242.360191 
L 304.081169 242.628134 
L 304.836039 225.479809 
L 305.590909 244.771675 
L 306.345779 249.862584 
L 307.100649 243.967847 
L 307.855519 245.575502 
L 308.61039 183.948708 
L 309.36526 200.293206 
L 310.12013 241.020478 
L 311.62987 245.039617 
L 312.38474 244.503732 
L 313.13961 232.714258 
L 313.894481 242.628134 
L 314.649351 243.699904 
L 315.404221 223.872153 
L 316.159091 239.948708 
L 316.913961 250.398469 
L 317.668831 251.738182 
L 318.423701 245.039617 
L 319.178571 245.575502 
L 319.933442 246.915215 
L 320.688312 243.967847 
L 321.443182 246.37933 
L 322.198052 249.594641 
L 322.952922 251.202297 
L 323.707792 243.967847 
L 324.462662 243.699904 
L 325.217532 231.910431 
L 325.972403 230.302775 
L 326.727273 250.666411 
L 327.482143 246.37933 
L 328.237013 251.738182 
L 328.991883 239.680766 
L 329.746753 240.752536 
L 330.501623 243.164019 
L 331.256494 240.484593 
L 332.011364 248.522871 
L 332.766234 245.843445 
L 333.521104 250.130526 
L 334.275974 237.537225 
L 335.030844 239.412823 
L 335.785714 244.235789 
L 336.540584 241.288421 
L 337.295455 232.446316 
L 338.050325 242.360191 
L 338.805195 248.522871 
L 339.560065 233.518086 
L 340.314935 250.398469 
L 341.069805 246.111388 
L 341.824675 244.503732 
L 342.579545 251.202297 
L 343.334416 250.934354 
L 344.089286 245.039617 
L 344.844156 245.575502 
L 345.599026 233.250144 
L 346.353896 231.642488 
L 347.108766 249.058756 
L 347.863636 249.862584 
L 348.618506 250.398469 
L 349.373377 242.628134 
L 350.128247 228.159234 
L 350.883117 236.465455 
L 351.637987 236.197512 
L 352.392857 245.30756 
L 353.147727 249.862584 
L 353.902597 245.843445 
L 354.657468 246.647273 
L 355.412338 249.862584 
L 356.167208 237.269282 
L 356.922078 247.719043 
L 357.676948 242.628134 
L 358.431818 226.015694 
L 359.186688 250.934354 
L 359.941558 248.254928 
L 360.696429 233.786029 
L 361.451299 216.905646 
L 362.206169 236.733397 
L 362.961039 248.254928 
L 363.715909 247.719043 
L 364.470779 250.398469 
L 365.225649 246.647273 
L 365.980519 232.178373 
L 366.73539 230.570718 
L 367.49026 221.46067 
L 368.24513 233.786029 
L 369 248.522871 
L 369.75487 251.470239 
L 370.50974 248.522871 
L 371.26461 249.862584 
L 372.019481 239.948708 
L 372.774351 189.575502 
L 373.529221 229.498947 
L 374.284091 242.628134 
L 375.038961 241.020478 
L 375.793831 230.83866 
L 376.548701 230.83866 
L 377.303571 220.924785 
L 378.058442 198.417608 
L 378.813312 217.441531 
L 379.568182 246.37933 
L 380.323052 250.666411 
L 381.077922 224.675981 
L 381.832792 228.159234 
L 382.587662 212.618565 
L 383.342532 240.216651 
L 384.097403 236.197512 
L 384.852273 246.111388 
L 385.607143 248.254928 
L 386.362013 215.565933 
L 387.116883 238.608995 
L 387.871753 249.594641 
L 388.626623 223.604211 
L 389.381494 164.924785 
L 390.136364 240.484593 
L 390.891234 235.929569 
L 391.646104 227.891292 
L 392.400974 228.963062 
L 393.155844 242.896077 
L 393.910714 232.446316 
L 394.665584 238.876938 
L 395.420455 246.915215 
L 396.175325 245.843445 
L 396.930195 235.929569 
L 397.685065 249.058756 
L 398.439935 243.431962 
L 399.194805 229.498947 
L 400.704545 250.934354 
L 401.459416 250.130526 
L 402.214286 245.039617 
L 402.969156 231.642488 
L 403.724026 240.752536 
L 404.478896 247.183158 
L 405.233766 247.986986 
L 405.988636 247.986986 
L 406.743506 248.790813 
L 407.498377 239.412823 
L 408.253247 235.661627 
L 409.008117 243.967847 
L 410.517857 237.537225 
L 411.272727 250.130526 
L 412.027597 249.862584 
L 412.782468 234.589856 
L 413.537338 232.982201 
L 414.292208 245.575502 
L 415.801948 250.934354 
L 416.556818 248.522871 
L 417.311688 247.719043 
L 418.066558 244.503732 
L 418.821429 228.69512 
L 419.576299 238.341053 
L 420.331169 238.876938 
L 421.086039 226.819522 
L 421.840909 249.862584 
L 422.595779 228.159234 
L 423.350649 237.269282 
L 424.105519 202.972632 
L 424.86039 239.948708 
L 425.61526 221.996555 
L 426.37013 247.4511 
L 427.125 248.254928 
L 427.87987 230.034833 
L 428.63474 208.599426 
L 429.38961 234.589856 
L 430.144481 237.269282 
L 430.899351 243.431962 
L 431.654221 233.250144 
L 432.409091 249.058756 
L 433.163961 217.173589 
L 433.918831 235.929569 
L 434.673701 239.948708 
L 435.428571 242.628134 
L 436.183442 242.896077 
L 436.938312 246.915215 
L 437.693182 249.058756 
L 438.448052 245.843445 
L 439.202922 248.790813 
L 439.957792 250.934354 
L 440.712662 249.594641 
L 441.467532 249.326699 
L 442.222403 246.915215 
L 442.977273 217.709474 
L 444.487013 242.092249 
L 445.241883 243.164019 
L 445.996753 249.862584 
L 446.751623 250.934354 
L 447.506494 251.738182 
L 449.016234 236.733397 
L 449.771104 241.288421 
L 450.525974 219.585072 
L 451.280844 246.915215 
L 452.035714 246.111388 
L 452.790584 250.934354 
L 453.545455 247.719043 
L 454.300325 239.412823 
L 455.055195 244.771675 
L 455.810065 242.092249 
L 456.564935 245.843445 
L 457.319805 250.666411 
L 458.074675 250.130526 
L 458.829545 219.585072 
L 459.584416 220.120957 
L 460.339286 235.929569 
L 461.094156 247.719043 
L 461.849026 217.441531 
L 462.603896 246.915215 
L 463.358766 235.929569 
L 464.113636 212.886507 
L 464.868506 238.07311 
L 465.623377 209.939139 
L 466.378247 198.68555 
L 467.133117 232.714258 
L 467.887987 250.666411 
L 468.642857 249.862584 
L 469.397727 196.809952 
L 470.152597 208.867368 
L 470.907468 223.872153 
L 471.662338 224.675981 
L 472.417208 179.125742 
L 473.172078 243.967847 
L 473.926948 245.575502 
L 474.681818 217.441531 
L 475.436688 226.015694 
L 476.191558 242.628134 
L 476.946429 240.752536 
L 477.701299 226.283636 
L 478.456169 247.719043 
L 479.211039 249.862584 
L 479.965909 225.747751 
L 480.720779 235.929569 
L 481.475649 223.336268 
L 482.230519 232.178373 
L 482.98539 216.369761 
L 483.74026 239.680766 
L 484.49513 248.254928 
L 485.25 222.264498 
L 486.00487 228.427177 
L 486.75974 231.910431 
L 487.51461 227.623349 
L 488.269481 185.824306 
L 489.024351 223.872153 
L 489.779221 241.288421 
L 490.534091 160.101818 
L 491.288961 200.829091 
L 492.043831 224.943923 
L 492.798701 241.288421 
L 493.553571 239.680766 
L 494.308442 243.967847 
L 495.063312 247.4511 
L 495.818182 211.814737 
L 496.573052 223.068325 
L 497.327922 209.671196 
L 498.082792 213.15445 
L 498.837662 225.211866 
L 499.592532 250.130526 
L 500.347403 249.594641 
L 501.102273 213.422392 
L 501.857143 235.661627 
L 502.612013 222.53244 
L 503.366883 230.570718 
L 504.121753 235.393684 
L 504.876623 242.896077 
L 505.631494 247.719043 
L 506.386364 229.76689 
L 507.141234 236.197512 
L 507.896104 216.637703 
L 508.650974 214.22622 
L 509.405844 242.896077 
L 510.160714 249.058756 
L 510.915584 251.738182 
L 511.670455 239.680766 
L 512.425325 237.805167 
L 513.180195 243.699904 
L 513.935065 235.661627 
L 514.689935 244.235789 
L 515.444805 249.326699 
L 516.199675 250.130526 
L 516.954545 242.896077 
L 517.709416 234.589856 
L 518.464286 247.986986 
L 519.219156 247.986986 
L 519.974026 243.967847 
L 520.728896 240.752536 
L 521.483766 229.498947 
L 522.238636 239.14488 
L 522.993506 238.608995 
L 523.748377 246.37933 
L 525.258117 247.4511 
L 526.012987 250.398469 
L 526.767857 248.790813 
L 528.277597 232.178373 
L 529.032468 234.857799 
L 529.787338 242.896077 
L 530.542208 235.661627 
L 531.297078 249.862584 
L 532.051948 251.470239 
L 532.806818 243.699904 
L 533.561688 246.37933 
L 534.316558 233.786029 
L 535.071429 213.15445 
L 535.826299 244.235789 
L 536.581169 250.666411 
L 537.336039 249.326699 
L 538.090909 240.484593 
L 538.845779 236.733397 
L 539.600649 239.412823 
L 540.355519 238.341053 
L 541.11039 234.857799 
L 541.86526 250.934354 
L 542.62013 241.288421 
L 543.375 228.159234 
L 544.12987 226.819522 
L 544.88474 245.575502 
L 545.63961 248.254928 
L 546.394481 211.278852 
L 547.149351 247.986986 
L 547.904221 250.666411 
L 548.659091 227.891292 
L 549.413961 246.111388 
L 550.168831 221.192727 
L 550.923701 229.498947 
L 551.678571 246.111388 
L 552.433442 251.470239 
L 553.188312 251.470239 
L 553.943182 249.862584 
L 554.698052 244.503732 
L 555.452922 245.843445 
L 556.207792 243.431962 
L 556.962662 251.470239 
L 557.717532 249.862584 
L 558.472403 251.738182 
L 559.227273 245.575502 
L 559.982143 247.986986 
L 560.737013 244.771675 
L 561.491883 243.164019 
L 562.246753 250.666411 
L 563.001623 251.202297 
L 563.756494 241.020478 
L 564.511364 220.656842 
L 565.266234 245.843445 
L 566.021104 246.111388 
L 566.775974 240.484593 
L 567.530844 248.254928 
L 568.285714 251.470239 
L 569.040584 247.4511 
L 569.795455 247.986986 
L 570.550325 241.556364 
L 571.305195 243.699904 
L 572.060065 244.235789 
L 572.814935 249.326699 
L 573.569805 251.470239 
L 574.324675 251.202297 
L 575.079545 243.164019 
L 575.834416 243.967847 
L 576.589286 247.4511 
L 577.344156 237.537225 
L 578.099026 249.058756 
L 578.853896 250.934354 
L 579.608766 248.790813 
L 580.363636 250.934354 
L 581.118506 239.14488 
L 582.628247 227.623349 
L 583.383117 228.427177 
L 584.137987 247.719043 
L 584.892857 249.594641 
L 585.647727 222.800383 
L 586.402597 221.728612 
L 587.157468 238.07311 
L 587.912338 246.647273 
L 588.667208 243.699904 
L 589.422078 234.589856 
L 590.176948 251.202297 
L 590.931818 246.111388 
L 591.686688 238.876938 
L 592.441558 247.4511 
L 593.196429 228.159234 
L 593.951299 234.321914 
L 594.706169 250.934354 
L 595.461039 251.470239 
L 596.215909 250.130526 
L 596.970779 239.948708 
L 597.725649 241.556364 
L 598.480519 248.790813 
L 599.23539 231.106603 
L 599.99026 249.594641 
L 600.74513 251.470239 
L 601.5 249.058756 
L 602.25487 249.326699 
L 603.00974 249.058756 
L 603.76461 241.020478 
L 604.519481 247.183158 
L 605.274351 241.288421 
L 606.029221 249.326699 
L 606.784091 251.738182 
L 607.538961 248.254928 
L 608.293831 227.087464 
L 609.048701 246.915215 
L 609.803571 241.824306 
L 610.558442 247.719043 
L 611.313312 249.862584 
L 612.068182 251.470239 
L 612.823052 244.771675 
L 613.577922 215.833876 
L 614.332792 249.862584 
L 615.087662 226.551579 
L 615.842532 243.164019 
L 616.597403 251.738182 
L 617.352273 251.470239 
L 618.107143 250.130526 
L 618.862013 248.254928 
L 619.616883 238.876938 
L 620.371753 242.092249 
L 621.126623 203.240574 
L 621.881494 249.862584 
L 622.636364 249.326699 
L 622.636364 249.326699 
" clip-path="url(#p9f83e84885)" style="fill: none; stroke: #1f77b4; stroke-width: 1.5; stroke-linecap: square"/>
   </g>
   <g id="line2d_28">
    <path d="M 115.363636 251.738182 
L 116.118506 249.594641 
L 116.873377 248.522871 
L 117.628247 249.594641 
L 118.383117 251.738182 
L 119.137987 250.130526 
L 119.892857 249.326699 
L 120.647727 249.326699 
L 121.402597 249.058756 
L 122.157468 249.594641 
L 122.912338 251.470239 
L 125.931818 249.326699 
L 126.686688 249.058756 
L 127.441558 250.130526 
L 128.951299 251.738182 
L 129.706169 249.058756 
L 130.461039 249.594641 
L 131.215909 250.666411 
L 131.970779 250.934354 
L 132.725649 250.666411 
L 133.480519 251.470239 
L 134.23539 251.202297 
L 134.99026 250.130526 
L 135.74513 251.202297 
L 136.5 249.058756 
L 137.25487 249.862584 
L 138.00974 250.398469 
L 138.76461 251.202297 
L 139.519481 251.202297 
L 140.274351 247.719043 
L 141.029221 251.470239 
L 141.784091 251.470239 
L 142.538961 251.202297 
L 144.048701 251.738182 
L 144.803571 251.470239 
L 145.558442 249.594641 
L 146.313312 247.183158 
L 147.068182 248.790813 
L 147.823052 250.130526 
L 148.577922 250.130526 
L 149.332792 251.470239 
L 150.087662 250.398469 
L 150.842532 250.130526 
L 151.597403 250.934354 
L 152.352273 247.986986 
L 153.107143 249.594641 
L 153.862013 251.470239 
L 154.616883 251.738182 
L 155.371753 249.326699 
L 156.881494 249.326699 
L 157.636364 250.130526 
L 158.391234 250.398469 
L 159.146104 251.202297 
L 159.900974 251.470239 
L 160.655844 250.934354 
L 161.410714 250.666411 
L 162.165584 251.202297 
L 163.675325 251.202297 
L 164.430195 251.470239 
L 165.185065 250.934354 
L 166.694805 250.934354 
L 167.449675 251.738182 
L 168.204545 251.202297 
L 168.959416 251.202297 
L 169.714286 250.934354 
L 170.469156 249.862584 
L 171.224026 248.254928 
L 171.978896 250.130526 
L 172.733766 251.202297 
L 173.488636 250.934354 
L 174.243506 250.934354 
L 174.998377 251.202297 
L 175.753247 249.594641 
L 176.508117 248.790813 
L 177.262987 249.862584 
L 178.017857 247.183158 
L 178.772727 249.862584 
L 179.527597 250.398469 
L 180.282468 251.202297 
L 181.037338 250.666411 
L 181.792208 250.666411 
L 182.547078 248.522871 
L 183.301948 249.594641 
L 184.056818 249.326699 
L 184.811688 249.326699 
L 185.566558 250.398469 
L 186.321429 246.37933 
L 187.076299 247.986986 
L 187.831169 249.326699 
L 188.586039 247.719043 
L 189.340909 246.647273 
L 190.095779 250.934354 
L 190.850649 250.666411 
L 191.605519 248.790813 
L 192.36039 250.130526 
L 193.11526 248.254928 
L 193.87013 249.594641 
L 194.625 249.594641 
L 195.37987 250.934354 
L 196.13474 251.202297 
L 196.88961 249.058756 
L 197.644481 248.254928 
L 198.399351 248.522871 
L 199.154221 250.934354 
L 199.909091 251.470239 
L 201.418831 250.934354 
L 202.173701 250.934354 
L 202.928571 249.594641 
L 203.683442 250.398469 
L 204.438312 249.058756 
L 205.193182 250.934354 
L 205.948052 250.398469 
L 206.702922 250.934354 
L 207.457792 249.326699 
L 208.212662 249.058756 
L 208.967532 249.058756 
L 209.722403 248.254928 
L 210.477273 250.398469 
L 211.232143 250.934354 
L 211.987013 250.934354 
L 212.741883 242.896077 
L 213.496753 249.058756 
L 214.251623 249.058756 
L 215.006494 247.719043 
L 215.761364 249.326699 
L 216.516234 250.666411 
L 217.271104 250.666411 
L 218.025974 246.647273 
L 218.780844 246.915215 
L 219.535714 248.522871 
L 220.290584 246.915215 
L 221.045455 247.719043 
L 221.800325 250.130526 
L 222.555195 250.934354 
L 223.310065 247.719043 
L 224.064935 246.37933 
L 224.819805 247.4511 
L 225.574675 247.719043 
L 227.084416 251.202297 
L 227.839286 250.130526 
L 228.594156 247.986986 
L 229.349026 247.986986 
L 230.103896 248.790813 
L 230.858766 250.666411 
L 232.368506 251.202297 
L 233.123377 250.130526 
L 233.878247 246.647273 
L 234.633117 247.4511 
L 235.387987 248.790813 
L 236.142857 247.183158 
L 236.897727 249.862584 
L 237.652597 251.202297 
L 239.162338 249.594641 
L 239.917208 248.522871 
L 240.672078 248.790813 
L 241.426948 247.719043 
L 242.181818 249.326699 
L 242.936688 249.594641 
L 243.691558 250.934354 
L 244.446429 245.843445 
L 245.201299 248.254928 
L 245.956169 249.058756 
L 246.711039 249.326699 
L 247.465909 249.326699 
L 248.220779 250.934354 
L 248.975649 250.398469 
L 249.730519 246.111388 
L 250.48539 244.771675 
L 251.24026 247.183158 
L 251.99513 249.058756 
L 252.75 250.398469 
L 253.50487 249.326699 
L 254.25974 250.398469 
L 255.01461 246.647273 
L 255.769481 246.915215 
L 256.524351 230.302775 
L 257.279221 248.254928 
L 258.034091 246.915215 
L 258.788961 250.666411 
L 259.543831 251.738182 
L 260.298701 249.862584 
L 261.053571 248.522871 
L 261.808442 248.522871 
L 262.563312 248.790813 
L 263.318182 247.986986 
L 264.827922 251.202297 
L 265.582792 249.326699 
L 266.337662 248.522871 
L 267.092532 247.183158 
L 267.847403 247.4511 
L 268.602273 246.111388 
L 269.357143 250.666411 
L 270.112013 251.738182 
L 270.866883 246.111388 
L 271.621753 247.4511 
L 272.376623 249.594641 
L 273.131494 247.719043 
L 273.886364 248.522871 
L 274.641234 251.470239 
L 275.396104 250.398469 
L 276.150974 248.522871 
L 276.905844 249.594641 
L 277.660714 248.254928 
L 278.415584 246.647273 
L 279.925325 250.934354 
L 280.680195 251.202297 
L 281.435065 249.326699 
L 282.189935 247.986986 
L 282.944805 250.130526 
L 283.699675 249.594641 
L 284.454545 249.594641 
L 285.964286 250.130526 
L 286.719156 247.183158 
L 287.474026 249.058756 
L 288.228896 249.058756 
L 288.983766 250.130526 
L 289.738636 249.326699 
L 290.493506 251.202297 
L 291.248377 250.398469 
L 292.003247 248.522871 
L 292.758117 249.326699 
L 293.512987 249.058756 
L 294.267857 248.522871 
L 295.022727 249.326699 
L 295.777597 251.202297 
L 296.532468 250.934354 
L 297.287338 247.719043 
L 298.042208 250.666411 
L 298.797078 249.862584 
L 299.551948 249.326699 
L 300.306818 246.111388 
L 301.061688 251.202297 
L 301.816558 250.666411 
L 302.571429 249.862584 
L 303.326299 250.398469 
L 304.081169 249.058756 
L 304.836039 248.254928 
L 305.590909 249.326699 
L 306.345779 250.934354 
L 307.100649 250.934354 
L 307.855519 249.594641 
L 308.61039 247.4511 
L 309.36526 247.4511 
L 310.12013 250.398469 
L 310.875 248.790813 
L 311.62987 250.666411 
L 312.38474 249.594641 
L 313.13961 247.986986 
L 313.894481 248.790813 
L 314.649351 248.790813 
L 315.404221 247.986986 
L 316.159091 248.254928 
L 316.913961 251.202297 
L 317.668831 251.738182 
L 318.423701 250.130526 
L 319.178571 250.130526 
L 319.933442 250.398469 
L 320.688312 250.398469 
L 321.443182 250.666411 
L 322.952922 251.738182 
L 323.707792 250.398469 
L 324.462662 249.594641 
L 325.217532 249.862584 
L 325.972403 248.790813 
L 326.727273 251.202297 
L 327.482143 250.398469 
L 328.237013 251.738182 
L 328.991883 250.398469 
L 329.746753 250.398469 
L 330.501623 248.522871 
L 331.256494 247.986986 
L 332.011364 249.594641 
L 332.766234 250.666411 
L 333.521104 250.666411 
L 334.275974 248.790813 
L 335.030844 249.594641 
L 335.785714 249.862584 
L 336.540584 249.862584 
L 337.295455 249.058756 
L 338.050325 249.326699 
L 338.805195 250.666411 
L 339.560065 248.522871 
L 340.314935 251.470239 
L 341.069805 249.862584 
L 341.824675 249.862584 
L 342.579545 251.202297 
L 343.334416 250.934354 
L 344.089286 250.130526 
L 344.844156 250.130526 
L 345.599026 249.326699 
L 346.353896 249.594641 
L 347.108766 251.202297 
L 347.863636 250.934354 
L 348.618506 251.470239 
L 349.373377 250.398469 
L 350.128247 250.130526 
L 350.883117 248.790813 
L 351.637987 249.326699 
L 352.392857 250.398469 
L 353.147727 250.934354 
L 353.902597 250.398469 
L 354.657468 251.470239 
L 355.412338 250.934354 
L 356.167208 249.326699 
L 356.922078 250.130526 
L 357.676948 251.202297 
L 358.431818 248.522871 
L 359.186688 251.470239 
L 359.941558 251.202297 
L 360.696429 248.254928 
L 362.206169 249.326699 
L 362.961039 250.398469 
L 363.715909 249.862584 
L 364.470779 251.202297 
L 365.225649 250.666411 
L 365.980519 247.986986 
L 366.73539 249.862584 
L 367.49026 249.326699 
L 368.24513 249.862584 
L 369 249.862584 
L 369.75487 251.470239 
L 370.50974 251.470239 
L 371.26461 250.934354 
L 372.019481 248.522871 
L 373.529221 248.522871 
L 374.284091 249.862584 
L 375.038961 249.862584 
L 375.793831 249.058756 
L 376.548701 248.790813 
L 377.303571 247.4511 
L 378.058442 249.594641 
L 378.813312 247.719043 
L 379.568182 250.130526 
L 380.323052 251.202297 
L 381.077922 250.398469 
L 381.832792 249.862584 
L 382.587662 248.254928 
L 383.342532 248.522871 
L 384.097403 249.326699 
L 384.852273 249.862584 
L 385.607143 250.130526 
L 386.362013 247.719043 
L 387.116883 248.522871 
L 387.871753 250.666411 
L 388.626623 249.594641 
L 390.136364 249.058756 
L 390.891234 249.594641 
L 391.646104 247.719043 
L 392.400974 250.130526 
L 393.155844 250.398469 
L 393.910714 248.522871 
L 394.665584 249.058756 
L 395.420455 250.934354 
L 396.175325 250.398469 
L 396.930195 249.594641 
L 397.685065 250.934354 
L 398.439935 249.326699 
L 399.194805 248.790813 
L 399.949675 249.058756 
L 400.704545 251.202297 
L 401.459416 251.202297 
L 402.214286 249.326699 
L 402.969156 250.398469 
L 403.724026 247.986986 
L 405.233766 250.130526 
L 405.988636 250.666411 
L 406.743506 250.130526 
L 407.498377 249.058756 
L 408.253247 247.4511 
L 409.008117 248.522871 
L 409.762987 247.986986 
L 410.517857 249.058756 
L 411.272727 250.666411 
L 412.027597 250.934354 
L 412.782468 249.326699 
L 413.537338 250.666411 
L 414.292208 249.862584 
L 415.047078 250.130526 
L 415.801948 251.470239 
L 416.556818 250.934354 
L 417.311688 250.934354 
L 418.066558 251.470239 
L 418.821429 249.594641 
L 419.576299 250.398469 
L 420.331169 249.058756 
L 421.086039 250.666411 
L 421.840909 251.202297 
L 422.595779 249.058756 
L 423.350649 249.594641 
L 424.105519 249.594641 
L 424.86039 246.915215 
L 425.61526 246.647273 
L 426.37013 250.398469 
L 427.125 250.398469 
L 427.87987 248.790813 
L 428.63474 248.790813 
L 429.38961 249.862584 
L 430.144481 249.326699 
L 430.899351 250.398469 
L 431.654221 250.666411 
L 432.409091 250.666411 
L 433.163961 248.254928 
L 433.918831 249.862584 
L 434.673701 250.666411 
L 435.428571 250.934354 
L 436.183442 249.594641 
L 436.938312 251.738182 
L 437.693182 251.470239 
L 438.448052 250.934354 
L 439.202922 250.934354 
L 439.957792 251.202297 
L 440.712662 250.666411 
L 441.467532 251.202297 
L 442.222403 250.398469 
L 442.977273 244.771675 
L 443.732143 247.4511 
L 444.487013 249.326699 
L 446.751623 250.934354 
L 447.506494 251.738182 
L 448.261364 249.594641 
L 449.016234 249.594641 
L 449.771104 249.058756 
L 450.525974 246.111388 
L 451.280844 250.666411 
L 452.035714 251.738182 
L 452.790584 251.470239 
L 453.545455 250.666411 
L 454.300325 248.254928 
L 455.055195 250.934354 
L 455.810065 250.130526 
L 456.564935 248.522871 
L 457.319805 251.202297 
L 458.074675 251.202297 
L 458.829545 250.130526 
L 459.584416 247.986986 
L 460.339286 248.790813 
L 461.094156 249.862584 
L 461.849026 249.326699 
L 462.603896 250.934354 
L 463.358766 250.666411 
L 464.113636 248.254928 
L 464.868506 249.326699 
L 465.623377 247.183158 
L 466.378247 246.647273 
L 467.133117 247.183158 
L 467.887987 251.202297 
L 468.642857 251.738182 
L 469.397727 247.986986 
L 470.152597 246.111388 
L 470.907468 247.986986 
L 471.662338 246.647273 
L 472.417208 243.431962 
L 473.172078 249.594641 
L 473.926948 249.326699 
L 474.681818 247.4511 
L 475.436688 247.183158 
L 476.191558 248.254928 
L 476.946429 248.790813 
L 477.701299 247.986986 
L 478.456169 249.862584 
L 479.211039 250.934354 
L 479.965909 247.719043 
L 481.475649 248.254928 
L 482.230519 246.915215 
L 482.98539 247.4511 
L 483.74026 247.719043 
L 484.49513 250.666411 
L 485.25 245.843445 
L 486.00487 245.843445 
L 486.75974 243.967847 
L 487.51461 247.183158 
L 488.269481 247.183158 
L 489.024351 249.862584 
L 489.779221 249.058756 
L 490.534091 247.986986 
L 491.288961 245.843445 
L 492.043831 248.522871 
L 492.798701 249.058756 
L 493.553571 249.326699 
L 494.308442 249.326699 
L 495.063312 249.862584 
L 495.818182 246.647273 
L 496.573052 247.183158 
L 497.327922 245.039617 
L 498.082792 247.986986 
L 498.837662 247.183158 
L 499.592532 250.934354 
L 500.347403 251.202297 
L 501.102273 243.967847 
L 501.857143 247.4511 
L 502.612013 245.575502 
L 503.366883 246.37933 
L 504.121753 249.594641 
L 504.876623 250.398469 
L 505.631494 250.398469 
L 506.386364 248.522871 
L 507.141234 249.326699 
L 507.896104 247.183158 
L 508.650974 246.915215 
L 509.405844 249.594641 
L 510.160714 249.862584 
L 510.915584 251.738182 
L 511.670455 248.522871 
L 512.425325 248.254928 
L 513.180195 249.058756 
L 513.935065 244.771675 
L 514.689935 249.326699 
L 515.444805 251.470239 
L 516.199675 250.934354 
L 516.954545 249.058756 
L 517.709416 249.594641 
L 518.464286 249.594641 
L 519.219156 250.666411 
L 519.974026 250.666411 
L 520.728896 251.202297 
L 521.483766 250.666411 
L 522.238636 249.326699 
L 522.993506 249.058756 
L 523.748377 249.326699 
L 524.503247 250.130526 
L 525.258117 249.594641 
L 526.012987 250.666411 
L 526.767857 249.594641 
L 527.522727 248.790813 
L 528.277597 248.522871 
L 529.032468 248.522871 
L 529.787338 249.862584 
L 530.542208 246.915215 
L 531.297078 251.470239 
L 532.051948 251.470239 
L 532.806818 249.058756 
L 533.561688 250.398469 
L 534.316558 250.398469 
L 535.071429 248.254928 
L 535.826299 249.862584 
L 536.581169 251.202297 
L 537.336039 250.398469 
L 538.090909 249.326699 
L 538.845779 248.522871 
L 539.600649 249.058756 
L 540.355519 247.4511 
L 541.11039 249.594641 
L 541.86526 250.934354 
L 542.62013 250.130526 
L 543.375 246.647273 
L 544.12987 247.986986 
L 544.88474 250.666411 
L 545.63961 250.130526 
L 546.394481 248.522871 
L 547.149351 250.130526 
L 547.904221 251.470239 
L 548.659091 249.594641 
L 549.413961 250.130526 
L 550.168831 249.594641 
L 550.923701 248.790813 
L 551.678571 250.398469 
L 552.433442 251.470239 
L 553.188312 251.470239 
L 553.943182 250.666411 
L 554.698052 250.130526 
L 555.452922 250.130526 
L 556.207792 249.058756 
L 556.962662 251.470239 
L 557.717532 250.934354 
L 558.472403 251.738182 
L 559.227273 250.398469 
L 559.982143 249.862584 
L 560.737013 249.594641 
L 561.491883 248.522871 
L 562.246753 251.202297 
L 563.001623 251.470239 
L 563.756494 249.326699 
L 564.511364 249.594641 
L 565.266234 250.130526 
L 566.021104 250.398469 
L 566.775974 249.862584 
L 567.530844 251.470239 
L 568.285714 251.738182 
L 569.040584 250.934354 
L 569.795455 251.202297 
L 570.550325 250.398469 
L 571.305195 249.058756 
L 572.060065 251.202297 
L 572.814935 250.666411 
L 573.569805 251.470239 
L 574.324675 251.202297 
L 575.079545 250.130526 
L 575.834416 249.594641 
L 576.589286 250.130526 
L 577.344156 249.058756 
L 578.099026 250.666411 
L 578.853896 251.470239 
L 579.608766 250.130526 
L 580.363636 251.202297 
L 581.118506 250.666411 
L 581.873377 250.666411 
L 582.628247 248.522871 
L 583.383117 249.594641 
L 584.137987 250.934354 
L 584.892857 251.202297 
L 585.647727 249.862584 
L 586.402597 249.594641 
L 587.157468 249.594641 
L 587.912338 250.666411 
L 588.667208 249.594641 
L 589.422078 249.594641 
L 590.176948 251.470239 
L 590.931818 249.594641 
L 591.686688 249.326699 
L 592.441558 250.666411 
L 593.196429 249.594641 
L 593.951299 249.326699 
L 594.706169 251.202297 
L 595.461039 251.738182 
L 596.215909 250.130526 
L 596.970779 249.594641 
L 597.725649 250.666411 
L 599.23539 250.130526 
L 599.99026 250.666411 
L 600.74513 251.470239 
L 601.5 250.130526 
L 602.25487 250.398469 
L 603.00974 250.130526 
L 603.76461 249.326699 
L 604.519481 249.862584 
L 605.274351 249.862584 
L 606.029221 250.934354 
L 606.784091 251.738182 
L 607.538961 251.202297 
L 608.293831 250.398469 
L 609.048701 250.398469 
L 609.803571 250.934354 
L 610.558442 250.130526 
L 611.313312 250.934354 
L 612.068182 251.470239 
L 612.823052 250.398469 
L 613.577922 249.862584 
L 614.332792 250.130526 
L 615.087662 249.058756 
L 615.842532 249.594641 
L 616.597403 251.738182 
L 617.352273 251.470239 
L 618.107143 250.398469 
L 618.862013 249.862584 
L 619.616883 249.058756 
L 620.371753 249.594641 
L 621.126623 245.039617 
L 621.881494 251.202297 
L 622.636364 250.666411 
L 622.636364 250.666411 
" clip-path="url(#p9f83e84885)" style="fill: none; stroke: #ff7f0e; stroke-width: 1.5; stroke-linecap: square"/>
   </g>
   <g id="patch_9">
    <path d="M 90 256.32 
L 90 155.52 
" style="fill: none; stroke: #000000; stroke-width: 0.8; stroke-linejoin: miter; stroke-linecap: square"/>
   </g>
   <g id="patch_10">
    <path d="M 648 256.32 
L 648 155.52 
" style="fill: none; stroke: #000000; stroke-width: 0.8; stroke-linejoin: miter; stroke-linecap: square"/>
   </g>
   <g id="patch_11">
    <path d="M 90 256.32 
L 648 256.32 
" style="fill: none; stroke: #000000; stroke-width: 0.8; stroke-linejoin: miter; stroke-linecap: square"/>
   </g>
   <g id="patch_12">
    <path d="M 90 155.52 
L 648 155.52 
" style="fill: none; stroke: #000000; stroke-width: 0.8; stroke-linejoin: miter; stroke-linecap: square"/>
   </g>
   <g id="legend_2">
    <g id="patch_13">
     <path d="M 503.782812 192.87625 
L 641 192.87625 
Q 643 192.87625 643 190.87625 
L 643 162.52 
Q 643 160.52 641 160.52 
L 503.782812 160.52 
Q 501.782812 160.52 501.782812 162.52 
L 501.782812 190.87625 
Q 501.782812 192.87625 503.782812 192.87625 
z
" style="fill: #ffffff; opacity: 0.8; stroke: #cccccc; stroke-linejoin: miter"/>
    </g>
    <g id="line2d_29">
     <path d="M 505.782812 168.618437 
L 515.782812 168.618437 
L 525.782812 168.618437 
" style="fill: none; stroke: #1f77b4; stroke-width: 1.5; stroke-linecap: square"/>
    </g>
    <g id="text_26">
     <!-- Total GitHub Views -->
     <g transform="translate(533.782812 172.118437)scale(0.1 -0.1)">
      <defs>
       <path id="DejaVuSans-56" d="M 1831 0 
L 50 4666 
L 709 4666 
L 2188 738 
L 3669 4666 
L 4325 4666 
L 2547 0 
L 1831 0 
z
" transform="scale(0.015625)"/>
       <path id="DejaVuSans-77" d="M 269 3500 
L 844 3500 
L 1563 769 
L 2278 3500 
L 2956 3500 
L 3675 769 
L 4391 3500 
L 4966 3500 
L 4050 0 
L 3372 0 
L 2619 2869 
L 1863 0 
L 1184 0 
L 269 3500 
z
" transform="scale(0.015625)"/>
      </defs>
      <use xlink:href="#DejaVuSans-54"/>
      <use xlink:href="#DejaVuSans-6f" x="44.083984"/>
      <use xlink:href="#DejaVuSans-74" x="105.265625"/>
      <use xlink:href="#DejaVuSans-61" x="144.474609"/>
      <use xlink:href="#DejaVuSans-6c" x="205.753906"/>
      <use xlink:href="#DejaVuSans-20" x="233.537109"/>
      <use xlink:href="#DejaVuSans-47" x="265.324219"/>
      <use xlink:href="#DejaVuSans-69" x="342.814453"/>
      <use xlink:href="#DejaVuSans-74" x="370.597656"/>
      <use xlink:href="#DejaVuSans-48" x="409.806641"/>
      <use xlink:href="#DejaVuSans-75" x="485.001953"/>
      <use xlink:href="#DejaVuSans-62" x="548.380859"/>
      <use xlink:href="#DejaVuSans-20" x="611.857422"/>
      <use xlink:href="#DejaVuSans-56" x="643.644531"/>
      <use xlink:href="#DejaVuSans-69" x="709.802734"/>
      <use xlink:href="#DejaVuSans-65" x="737.585938"/>
      <use xlink:href="#DejaVuSans-77" x="799.109375"/>
      <use xlink:href="#DejaVuSans-73" x="880.896484"/>
     </g>
    </g>
    <g id="line2d_30">
     <path d="M 505.782812 183.296562 
L 515.782812 183.296562 
L 525.782812 183.296562 
" style="fill: none; stroke: #ff7f0e; stroke-width: 1.5; stroke-linecap: square"/>
    </g>
    <g id="text_27">
     <!-- Unique GitHub Views -->
     <g transform="translate(533.782812 186.796562)scale(0.1 -0.1)">
      <use xlink:href="#DejaVuSans-55"/>
      <use xlink:href="#DejaVuSans-6e" x="73.193359"/>
      <use xlink:href="#DejaVuSans-69" x="136.572266"/>
      <use xlink:href="#DejaVuSans-71" x="164.355469"/>
      <use xlink:href="#DejaVuSans-75" x="227.832031"/>
      <use xlink:href="#DejaVuSans-65" x="291.210938"/>
      <use xlink:href="#DejaVuSans-20" x="352.734375"/>
      <use xlink:href="#DejaVuSans-47" x="384.521484"/>
      <use xlink:href="#DejaVuSans-69" x="462.011719"/>
      <use xlink:href="#DejaVuSans-74" x="489.794922"/>
      <use xlink:href="#DejaVuSans-48" x="529.003906"/>
      <use xlink:href="#DejaVuSans-75" x="604.199219"/>
      <use xlink:href="#DejaVuSans-62" x="667.578125"/>
      <use xlink:href="#DejaVuSans-20" x="731.054688"/>
      <use xlink:href="#DejaVuSans-56" x="762.841797"/>
      <use xlink:href="#DejaVuSans-69" x="829"/>
      <use xlink:href="#DejaVuSans-65" x="856.783203"/>
      <use xlink:href="#DejaVuSans-77" x="918.306641"/>
      <use xlink:href="#DejaVuSans-73" x="1000.09375"/>
     </g>
    </g>
   </g>
  </g>
 </g>
 <defs>
  <clipPath id="p882cd4e9d6">
   <rect x="90" y="34.56" width="558" height="100.8"/>
  </clipPath>
  <clipPath id="p9f83e84885">
   <rect x="90" y="155.52" width="558" height="100.8"/>
  </clipPath>
 </defs>
</svg>
