<?xml version="1.0" encoding="utf-8" standalone="no"?>
<!DOCTYPE svg PUBLIC "-//W3C//DTD SVG 1.1//EN"
  "http://www.w3.org/Graphics/SVG/1.1/DTD/svg11.dtd">
<svg height="288pt" version="1.1" viewBox="0 0 720 288" width="720pt" xmlns="http://www.w3.org/2000/svg" xmlns:xlink="http://www.w3.org/1999/xlink">
 <metadata>
  <rdf:RDF xmlns:cc="http://creativecommons.org/ns#" xmlns:dc="http://purl.org/dc/elements/1.1/" xmlns:rdf="http://www.w3.org/1999/02/22-rdf-syntax-ns#">
   <cc:Work>
    <dc:type rdf:resource="http://purl.org/dc/dcmitype/StillImage"/>
    <dc:date>2021-04-12T00:27:44.042088</dc:date>
    <dc:format>image/svg+xml</dc:format>
    <dc:creator>
     <cc:Agent>
      <dc:title>Matplotlib v3.4.1, https://matplotlib.org/</dc:title>
     </cc:Agent>
    </dc:creator>
   </cc:Work>
  </rdf:RDF>
 </metadata>
 <defs>
  <style type="text/css">*{stroke-linecap:butt;stroke-linejoin:round;}</style>
 </defs>
 <g id="figure_1">
  <g id="patch_1">
   <path d="M 0 288 
L 720 288 
L 720 0 
L 0 0 
z
" style="fill:#ffffff;"/>
  </g>
  <g id="axes_1">
   <g id="patch_2">
    <path d="M 90 135.36 
L 648 135.36 
L 648 34.56 
L 90 34.56 
z
" style="fill:#ffffff;"/>
   </g>
   <g id="matplotlib.axis_1">
    <g id="xtick_1">
     <g id="line2d_1">
      <defs>
       <path d="M 0 0 
L 0 3.5 
" id="m9c7ddac699" style="stroke:#000000;stroke-width:0.8;"/>
      </defs>
      <g>
       <use style="stroke:#000000;stroke-width:0.8;" x="115.363636" xlink:href="#m9c7ddac699" y="135.36"/>
      </g>
     </g>
     <g id="text_1">
      <!-- 2020-10-22 -->
      <g transform="translate(86.305824 149.958437)scale(0.1 -0.1)">
       <defs>
        <path d="M 1228 531 
L 3431 531 
L 3431 0 
L 469 0 
L 469 531 
Q 828 903 1448 1529 
Q 2069 2156 2228 2338 
Q 2531 2678 2651 2914 
Q 2772 3150 2772 3378 
Q 2772 3750 2511 3984 
Q 2250 4219 1831 4219 
Q 1534 4219 1204 4116 
Q 875 4013 500 3803 
L 500 4441 
Q 881 4594 1212 4672 
Q 1544 4750 1819 4750 
Q 2544 4750 2975 4387 
Q 3406 4025 3406 3419 
Q 3406 3131 3298 2873 
Q 3191 2616 2906 2266 
Q 2828 2175 2409 1742 
Q 1991 1309 1228 531 
z
" id="DejaVuSans-32" transform="scale(0.015625)"/>
        <path d="M 2034 4250 
Q 1547 4250 1301 3770 
Q 1056 3291 1056 2328 
Q 1056 1369 1301 889 
Q 1547 409 2034 409 
Q 2525 409 2770 889 
Q 3016 1369 3016 2328 
Q 3016 3291 2770 3770 
Q 2525 4250 2034 4250 
z
M 2034 4750 
Q 2819 4750 3233 4129 
Q 3647 3509 3647 2328 
Q 3647 1150 3233 529 
Q 2819 -91 2034 -91 
Q 1250 -91 836 529 
Q 422 1150 422 2328 
Q 422 3509 836 4129 
Q 1250 4750 2034 4750 
z
" id="DejaVuSans-30" transform="scale(0.015625)"/>
        <path d="M 313 2009 
L 1997 2009 
L 1997 1497 
L 313 1497 
L 313 2009 
z
" id="DejaVuSans-2d" transform="scale(0.015625)"/>
        <path d="M 794 531 
L 1825 531 
L 1825 4091 
L 703 3866 
L 703 4441 
L 1819 4666 
L 2450 4666 
L 2450 531 
L 3481 531 
L 3481 0 
L 794 0 
L 794 531 
z
" id="DejaVuSans-31" transform="scale(0.015625)"/>
       </defs>
       <use xlink:href="#DejaVuSans-32"/>
       <use x="63.623047" xlink:href="#DejaVuSans-30"/>
       <use x="127.246094" xlink:href="#DejaVuSans-32"/>
       <use x="190.869141" xlink:href="#DejaVuSans-30"/>
       <use x="254.492188" xlink:href="#DejaVuSans-2d"/>
       <use x="290.576172" xlink:href="#DejaVuSans-31"/>
       <use x="354.199219" xlink:href="#DejaVuSans-30"/>
       <use x="417.822266" xlink:href="#DejaVuSans-2d"/>
       <use x="453.90625" xlink:href="#DejaVuSans-32"/>
       <use x="517.529297" xlink:href="#DejaVuSans-32"/>
      </g>
     </g>
    </g>
    <g id="xtick_2">
     <g id="line2d_2">
      <g>
       <use style="stroke:#000000;stroke-width:0.8;" x="196.527273" xlink:href="#m9c7ddac699" y="135.36"/>
      </g>
     </g>
     <g id="text_2">
      <!-- 2020-11-19 -->
      <g transform="translate(167.46946 149.958437)scale(0.1 -0.1)">
       <defs>
        <path d="M 703 97 
L 703 672 
Q 941 559 1184 500 
Q 1428 441 1663 441 
Q 2288 441 2617 861 
Q 2947 1281 2994 2138 
Q 2813 1869 2534 1725 
Q 2256 1581 1919 1581 
Q 1219 1581 811 2004 
Q 403 2428 403 3163 
Q 403 3881 828 4315 
Q 1253 4750 1959 4750 
Q 2769 4750 3195 4129 
Q 3622 3509 3622 2328 
Q 3622 1225 3098 567 
Q 2575 -91 1691 -91 
Q 1453 -91 1209 -44 
Q 966 3 703 97 
z
M 1959 2075 
Q 2384 2075 2632 2365 
Q 2881 2656 2881 3163 
Q 2881 3666 2632 3958 
Q 2384 4250 1959 4250 
Q 1534 4250 1286 3958 
Q 1038 3666 1038 3163 
Q 1038 2656 1286 2365 
Q 1534 2075 1959 2075 
z
" id="DejaVuSans-39" transform="scale(0.015625)"/>
       </defs>
       <use xlink:href="#DejaVuSans-32"/>
       <use x="63.623047" xlink:href="#DejaVuSans-30"/>
       <use x="127.246094" xlink:href="#DejaVuSans-32"/>
       <use x="190.869141" xlink:href="#DejaVuSans-30"/>
       <use x="254.492188" xlink:href="#DejaVuSans-2d"/>
       <use x="290.576172" xlink:href="#DejaVuSans-31"/>
       <use x="354.199219" xlink:href="#DejaVuSans-31"/>
       <use x="417.822266" xlink:href="#DejaVuSans-2d"/>
       <use x="453.90625" xlink:href="#DejaVuSans-31"/>
       <use x="517.529297" xlink:href="#DejaVuSans-39"/>
      </g>
     </g>
    </g>
    <g id="xtick_3">
     <g id="line2d_3">
      <g>
       <use style="stroke:#000000;stroke-width:0.8;" x="277.690909" xlink:href="#m9c7ddac699" y="135.36"/>
      </g>
     </g>
     <g id="text_3">
      <!-- 2020-12-15 -->
      <g transform="translate(248.633097 149.958437)scale(0.1 -0.1)">
       <defs>
        <path d="M 691 4666 
L 3169 4666 
L 3169 4134 
L 1269 4134 
L 1269 2991 
Q 1406 3038 1543 3061 
Q 1681 3084 1819 3084 
Q 2600 3084 3056 2656 
Q 3513 2228 3513 1497 
Q 3513 744 3044 326 
Q 2575 -91 1722 -91 
Q 1428 -91 1123 -41 
Q 819 9 494 109 
L 494 744 
Q 775 591 1075 516 
Q 1375 441 1709 441 
Q 2250 441 2565 725 
Q 2881 1009 2881 1497 
Q 2881 1984 2565 2268 
Q 2250 2553 1709 2553 
Q 1456 2553 1204 2497 
Q 953 2441 691 2322 
L 691 4666 
z
" id="DejaVuSans-35" transform="scale(0.015625)"/>
       </defs>
       <use xlink:href="#DejaVuSans-32"/>
       <use x="63.623047" xlink:href="#DejaVuSans-30"/>
       <use x="127.246094" xlink:href="#DejaVuSans-32"/>
       <use x="190.869141" xlink:href="#DejaVuSans-30"/>
       <use x="254.492188" xlink:href="#DejaVuSans-2d"/>
       <use x="290.576172" xlink:href="#DejaVuSans-31"/>
       <use x="354.199219" xlink:href="#DejaVuSans-32"/>
       <use x="417.822266" xlink:href="#DejaVuSans-2d"/>
       <use x="453.90625" xlink:href="#DejaVuSans-31"/>
       <use x="517.529297" xlink:href="#DejaVuSans-35"/>
      </g>
     </g>
    </g>
    <g id="xtick_4">
     <g id="line2d_4">
      <g>
       <use style="stroke:#000000;stroke-width:0.8;" x="358.854545" xlink:href="#m9c7ddac699" y="135.36"/>
      </g>
     </g>
     <g id="text_4">
      <!-- 2021-01-22 -->
      <g transform="translate(329.796733 149.958437)scale(0.1 -0.1)">
       <use xlink:href="#DejaVuSans-32"/>
       <use x="63.623047" xlink:href="#DejaVuSans-30"/>
       <use x="127.246094" xlink:href="#DejaVuSans-32"/>
       <use x="190.869141" xlink:href="#DejaVuSans-31"/>
       <use x="254.492188" xlink:href="#DejaVuSans-2d"/>
       <use x="290.576172" xlink:href="#DejaVuSans-30"/>
       <use x="354.199219" xlink:href="#DejaVuSans-31"/>
       <use x="417.822266" xlink:href="#DejaVuSans-2d"/>
       <use x="453.90625" xlink:href="#DejaVuSans-32"/>
       <use x="517.529297" xlink:href="#DejaVuSans-32"/>
      </g>
     </g>
    </g>
    <g id="xtick_5">
     <g id="line2d_5">
      <g>
       <use style="stroke:#000000;stroke-width:0.8;" x="440.018182" xlink:href="#m9c7ddac699" y="135.36"/>
      </g>
     </g>
     <g id="text_5">
      <!-- 2021-02-23 -->
      <g transform="translate(410.960369 149.958437)scale(0.1 -0.1)">
       <defs>
        <path d="M 2597 2516 
Q 3050 2419 3304 2112 
Q 3559 1806 3559 1356 
Q 3559 666 3084 287 
Q 2609 -91 1734 -91 
Q 1441 -91 1130 -33 
Q 819 25 488 141 
L 488 750 
Q 750 597 1062 519 
Q 1375 441 1716 441 
Q 2309 441 2620 675 
Q 2931 909 2931 1356 
Q 2931 1769 2642 2001 
Q 2353 2234 1838 2234 
L 1294 2234 
L 1294 2753 
L 1863 2753 
Q 2328 2753 2575 2939 
Q 2822 3125 2822 3475 
Q 2822 3834 2567 4026 
Q 2313 4219 1838 4219 
Q 1578 4219 1281 4162 
Q 984 4106 628 3988 
L 628 4550 
Q 988 4650 1302 4700 
Q 1616 4750 1894 4750 
Q 2613 4750 3031 4423 
Q 3450 4097 3450 3541 
Q 3450 3153 3228 2886 
Q 3006 2619 2597 2516 
z
" id="DejaVuSans-33" transform="scale(0.015625)"/>
       </defs>
       <use xlink:href="#DejaVuSans-32"/>
       <use x="63.623047" xlink:href="#DejaVuSans-30"/>
       <use x="127.246094" xlink:href="#DejaVuSans-32"/>
       <use x="190.869141" xlink:href="#DejaVuSans-31"/>
       <use x="254.492188" xlink:href="#DejaVuSans-2d"/>
       <use x="290.576172" xlink:href="#DejaVuSans-30"/>
       <use x="354.199219" xlink:href="#DejaVuSans-32"/>
       <use x="417.822266" xlink:href="#DejaVuSans-2d"/>
       <use x="453.90625" xlink:href="#DejaVuSans-32"/>
       <use x="517.529297" xlink:href="#DejaVuSans-33"/>
      </g>
     </g>
    </g>
    <g id="xtick_6">
     <g id="line2d_6">
      <g>
       <use style="stroke:#000000;stroke-width:0.8;" x="521.181818" xlink:href="#m9c7ddac699" y="135.36"/>
      </g>
     </g>
     <g id="text_6">
      <!-- 2021-03-17 -->
      <g transform="translate(492.124006 149.958437)scale(0.1 -0.1)">
       <defs>
        <path d="M 525 4666 
L 3525 4666 
L 3525 4397 
L 1831 0 
L 1172 0 
L 2766 4134 
L 525 4134 
L 525 4666 
z
" id="DejaVuSans-37" transform="scale(0.015625)"/>
       </defs>
       <use xlink:href="#DejaVuSans-32"/>
       <use x="63.623047" xlink:href="#DejaVuSans-30"/>
       <use x="127.246094" xlink:href="#DejaVuSans-32"/>
       <use x="190.869141" xlink:href="#DejaVuSans-31"/>
       <use x="254.492188" xlink:href="#DejaVuSans-2d"/>
       <use x="290.576172" xlink:href="#DejaVuSans-30"/>
       <use x="354.199219" xlink:href="#DejaVuSans-33"/>
       <use x="417.822266" xlink:href="#DejaVuSans-2d"/>
       <use x="453.90625" xlink:href="#DejaVuSans-31"/>
       <use x="517.529297" xlink:href="#DejaVuSans-37"/>
      </g>
     </g>
    </g>
    <g id="xtick_7">
     <g id="line2d_7">
      <g>
       <use style="stroke:#000000;stroke-width:0.8;" x="602.345455" xlink:href="#m9c7ddac699" y="135.36"/>
      </g>
     </g>
     <g id="text_7">
      <!-- 2021-04-05 -->
      <g transform="translate(573.287642 149.958437)scale(0.1 -0.1)">
       <defs>
        <path d="M 2419 4116 
L 825 1625 
L 2419 1625 
L 2419 4116 
z
M 2253 4666 
L 3047 4666 
L 3047 1625 
L 3713 1625 
L 3713 1100 
L 3047 1100 
L 3047 0 
L 2419 0 
L 2419 1100 
L 313 1100 
L 313 1709 
L 2253 4666 
z
" id="DejaVuSans-34" transform="scale(0.015625)"/>
       </defs>
       <use xlink:href="#DejaVuSans-32"/>
       <use x="63.623047" xlink:href="#DejaVuSans-30"/>
       <use x="127.246094" xlink:href="#DejaVuSans-32"/>
       <use x="190.869141" xlink:href="#DejaVuSans-31"/>
       <use x="254.492188" xlink:href="#DejaVuSans-2d"/>
       <use x="290.576172" xlink:href="#DejaVuSans-30"/>
       <use x="354.199219" xlink:href="#DejaVuSans-34"/>
       <use x="417.822266" xlink:href="#DejaVuSans-2d"/>
       <use x="453.90625" xlink:href="#DejaVuSans-30"/>
       <use x="517.529297" xlink:href="#DejaVuSans-35"/>
      </g>
     </g>
    </g>
    <g id="text_8">
     <!-- _date -->
     <g transform="translate(355.225 163.636562)scale(0.1 -0.1)">
      <defs>
       <path d="M 3263 -1063 
L 3263 -1509 
L -63 -1509 
L -63 -1063 
L 3263 -1063 
z
" id="DejaVuSans-5f" transform="scale(0.015625)"/>
       <path d="M 2906 2969 
L 2906 4863 
L 3481 4863 
L 3481 0 
L 2906 0 
L 2906 525 
Q 2725 213 2448 61 
Q 2172 -91 1784 -91 
Q 1150 -91 751 415 
Q 353 922 353 1747 
Q 353 2572 751 3078 
Q 1150 3584 1784 3584 
Q 2172 3584 2448 3432 
Q 2725 3281 2906 2969 
z
M 947 1747 
Q 947 1113 1208 752 
Q 1469 391 1925 391 
Q 2381 391 2643 752 
Q 2906 1113 2906 1747 
Q 2906 2381 2643 2742 
Q 2381 3103 1925 3103 
Q 1469 3103 1208 2742 
Q 947 2381 947 1747 
z
" id="DejaVuSans-64" transform="scale(0.015625)"/>
       <path d="M 2194 1759 
Q 1497 1759 1228 1600 
Q 959 1441 959 1056 
Q 959 750 1161 570 
Q 1363 391 1709 391 
Q 2188 391 2477 730 
Q 2766 1069 2766 1631 
L 2766 1759 
L 2194 1759 
z
M 3341 1997 
L 3341 0 
L 2766 0 
L 2766 531 
Q 2569 213 2275 61 
Q 1981 -91 1556 -91 
Q 1019 -91 701 211 
Q 384 513 384 1019 
Q 384 1609 779 1909 
Q 1175 2209 1959 2209 
L 2766 2209 
L 2766 2266 
Q 2766 2663 2505 2880 
Q 2244 3097 1772 3097 
Q 1472 3097 1187 3025 
Q 903 2953 641 2809 
L 641 3341 
Q 956 3463 1253 3523 
Q 1550 3584 1831 3584 
Q 2591 3584 2966 3190 
Q 3341 2797 3341 1997 
z
" id="DejaVuSans-61" transform="scale(0.015625)"/>
       <path d="M 1172 4494 
L 1172 3500 
L 2356 3500 
L 2356 3053 
L 1172 3053 
L 1172 1153 
Q 1172 725 1289 603 
Q 1406 481 1766 481 
L 2356 481 
L 2356 0 
L 1766 0 
Q 1100 0 847 248 
Q 594 497 594 1153 
L 594 3053 
L 172 3053 
L 172 3500 
L 594 3500 
L 594 4494 
L 1172 4494 
z
" id="DejaVuSans-74" transform="scale(0.015625)"/>
       <path d="M 3597 1894 
L 3597 1613 
L 953 1613 
Q 991 1019 1311 708 
Q 1631 397 2203 397 
Q 2534 397 2845 478 
Q 3156 559 3463 722 
L 3463 178 
Q 3153 47 2828 -22 
Q 2503 -91 2169 -91 
Q 1331 -91 842 396 
Q 353 884 353 1716 
Q 353 2575 817 3079 
Q 1281 3584 2069 3584 
Q 2775 3584 3186 3129 
Q 3597 2675 3597 1894 
z
M 3022 2063 
Q 3016 2534 2758 2815 
Q 2500 3097 2075 3097 
Q 1594 3097 1305 2825 
Q 1016 2553 972 2059 
L 3022 2063 
z
" id="DejaVuSans-65" transform="scale(0.015625)"/>
      </defs>
      <use xlink:href="#DejaVuSans-5f"/>
      <use x="50" xlink:href="#DejaVuSans-64"/>
      <use x="113.476562" xlink:href="#DejaVuSans-61"/>
      <use x="174.755859" xlink:href="#DejaVuSans-74"/>
      <use x="213.964844" xlink:href="#DejaVuSans-65"/>
     </g>
    </g>
   </g>
   <g id="matplotlib.axis_2">
    <g id="ytick_1">
     <g id="line2d_8">
      <defs>
       <path d="M 0 0 
L -3.5 0 
" id="mc0f4af0475" style="stroke:#000000;stroke-width:0.8;"/>
      </defs>
      <g>
       <use style="stroke:#000000;stroke-width:0.8;" x="90" xlink:href="#mc0f4af0475" y="132.087273"/>
      </g>
     </g>
     <g id="text_9">
      <!-- 0 -->
      <g transform="translate(76.6375 135.886491)scale(0.1 -0.1)">
       <use xlink:href="#DejaVuSans-30"/>
      </g>
     </g>
    </g>
    <g id="ytick_2">
     <g id="line2d_9">
      <g>
       <use style="stroke:#000000;stroke-width:0.8;" x="90" xlink:href="#mc0f4af0475" y="105.905455"/>
      </g>
     </g>
     <g id="text_10">
      <!-- 20 -->
      <g transform="translate(70.275 109.704673)scale(0.1 -0.1)">
       <use xlink:href="#DejaVuSans-32"/>
       <use x="63.623047" xlink:href="#DejaVuSans-30"/>
      </g>
     </g>
    </g>
    <g id="ytick_3">
     <g id="line2d_10">
      <g>
       <use style="stroke:#000000;stroke-width:0.8;" x="90" xlink:href="#mc0f4af0475" y="79.723636"/>
      </g>
     </g>
     <g id="text_11">
      <!-- 40 -->
      <g transform="translate(70.275 83.522855)scale(0.1 -0.1)">
       <use xlink:href="#DejaVuSans-34"/>
       <use x="63.623047" xlink:href="#DejaVuSans-30"/>
      </g>
     </g>
    </g>
    <g id="ytick_4">
     <g id="line2d_11">
      <g>
       <use style="stroke:#000000;stroke-width:0.8;" x="90" xlink:href="#mc0f4af0475" y="53.541818"/>
      </g>
     </g>
     <g id="text_12">
      <!-- 60 -->
      <g transform="translate(70.275 57.341037)scale(0.1 -0.1)">
       <defs>
        <path d="M 2113 2584 
Q 1688 2584 1439 2293 
Q 1191 2003 1191 1497 
Q 1191 994 1439 701 
Q 1688 409 2113 409 
Q 2538 409 2786 701 
Q 3034 994 3034 1497 
Q 3034 2003 2786 2293 
Q 2538 2584 2113 2584 
z
M 3366 4563 
L 3366 3988 
Q 3128 4100 2886 4159 
Q 2644 4219 2406 4219 
Q 1781 4219 1451 3797 
Q 1122 3375 1075 2522 
Q 1259 2794 1537 2939 
Q 1816 3084 2150 3084 
Q 2853 3084 3261 2657 
Q 3669 2231 3669 1497 
Q 3669 778 3244 343 
Q 2819 -91 2113 -91 
Q 1303 -91 875 529 
Q 447 1150 447 2328 
Q 447 3434 972 4092 
Q 1497 4750 2381 4750 
Q 2619 4750 2861 4703 
Q 3103 4656 3366 4563 
z
" id="DejaVuSans-36" transform="scale(0.015625)"/>
       </defs>
       <use xlink:href="#DejaVuSans-36"/>
       <use x="63.623047" xlink:href="#DejaVuSans-30"/>
      </g>
     </g>
    </g>
   </g>
   <g id="line2d_12">
    <path clip-path="url(#p2536927abb)" d="M 115.363636 124.232727 
L 119.421818 125.541818 
L 123.48 130.778182 
L 127.538182 130.778182 
L 131.596364 128.16 
L 135.654545 128.16 
L 139.712727 109.832727 
L 143.770909 109.832727 
L 147.829091 130.778182 
L 151.887273 130.778182 
L 155.945455 117.687273 
L 160.003636 121.614545 
L 164.061818 130.778182 
L 168.12 124.232727 
L 172.178182 126.850909 
L 176.236364 126.850909 
L 180.294545 130.778182 
L 184.352727 128.16 
L 188.410909 125.541818 
L 192.469091 129.469091 
L 196.527273 130.778182 
L 200.585455 129.469091 
L 204.643636 129.469091 
L 208.701818 128.16 
L 212.76 129.469091 
L 216.818182 129.469091 
L 220.876364 126.850909 
L 224.934545 129.469091 
L 228.992727 129.469091 
L 233.050909 113.76 
L 237.109091 124.232727 
L 241.167273 129.469091 
L 245.225455 99.36 
L 249.283636 130.778182 
L 253.341818 130.778182 
L 257.4 130.778182 
L 261.458182 130.778182 
L 265.516364 130.778182 
L 269.574545 130.778182 
L 273.632727 130.778182 
L 277.690909 130.778182 
L 281.749091 130.778182 
L 285.807273 129.469091 
L 289.865455 130.778182 
L 293.923636 130.778182 
L 297.981818 130.778182 
L 302.04 130.778182 
L 306.098182 130.778182 
L 310.156364 130.778182 
L 314.214545 130.778182 
L 318.272727 130.778182 
L 322.330909 126.850909 
L 326.389091 128.16 
L 330.447273 130.778182 
L 334.505455 128.16 
L 338.563636 124.232727 
L 342.621818 129.469091 
L 346.68 129.469091 
L 350.738182 126.850909 
L 354.796364 109.832727 
L 358.854545 129.469091 
L 362.912727 130.778182 
L 366.970909 129.469091 
L 371.029091 122.923636 
L 375.087273 129.469091 
L 379.145455 128.16 
L 383.203636 118.996364 
L 387.261818 126.850909 
L 391.32 122.923636 
L 395.378182 129.469091 
L 399.436364 128.16 
L 403.494545 129.469091 
L 407.552727 128.16 
L 411.610909 128.16 
L 415.669091 128.16 
L 419.727273 125.541818 
L 423.785455 130.778182 
L 427.843636 130.778182 
L 431.901818 125.541818 
L 435.96 125.541818 
L 440.018182 118.996364 
L 444.076364 128.16 
L 448.134545 124.232727 
L 452.192727 130.778182 
L 456.250909 120.305455 
L 460.309091 126.850909 
L 464.367273 128.16 
L 468.425455 126.850909 
L 472.483636 121.614545 
L 476.541818 129.469091 
L 480.6 125.541818 
L 484.658182 111.141818 
L 488.716364 121.614545 
L 492.774545 109.832727 
L 496.832727 39.141818 
L 500.890909 124.232727 
L 504.949091 130.778182 
L 509.007273 126.850909 
L 513.065455 115.069091 
L 517.123636 117.687273 
L 521.181818 124.232727 
L 525.24 107.214545 
L 529.298182 126.850909 
L 533.356364 126.850909 
L 537.414545 129.469091 
L 541.472727 113.76 
L 545.530909 117.687273 
L 549.589091 130.778182 
L 553.647273 128.16 
L 557.705455 130.778182 
L 561.763636 125.541818 
L 565.821818 67.941818 
L 569.88 66.632727 
L 573.938182 108.523636 
L 577.996364 104.596364 
L 582.054545 111.141818 
L 586.112727 124.232727 
L 590.170909 130.778182 
L 594.229091 121.614545 
L 598.287273 126.850909 
L 602.345455 112.450909 
L 606.403636 126.850909 
L 610.461818 115.069091 
L 614.52 99.36 
L 618.578182 113.76 
L 622.636364 124.232727 
" style="fill:none;stroke:#1f77b4;stroke-linecap:square;stroke-width:1.5;"/>
   </g>
   <g id="line2d_13">
    <path clip-path="url(#p2536927abb)" d="M 115.363636 124.232727 
L 119.421818 125.541818 
L 123.48 130.778182 
L 127.538182 130.778182 
L 131.596364 128.16 
L 135.654545 128.16 
L 139.712727 129.469091 
L 143.770909 125.541818 
L 147.829091 130.778182 
L 151.887273 130.778182 
L 155.945455 117.687273 
L 160.003636 128.16 
L 164.061818 130.778182 
L 168.12 126.850909 
L 172.178182 126.850909 
L 176.236364 128.16 
L 180.294545 130.778182 
L 184.352727 128.16 
L 188.410909 126.850909 
L 192.469091 129.469091 
L 196.527273 130.778182 
L 200.585455 129.469091 
L 204.643636 130.778182 
L 208.701818 128.16 
L 212.76 129.469091 
L 216.818182 130.778182 
L 220.876364 129.469091 
L 224.934545 130.778182 
L 228.992727 129.469091 
L 233.050909 120.305455 
L 237.109091 124.232727 
L 241.167273 129.469091 
L 245.225455 118.996364 
L 249.283636 130.778182 
L 253.341818 130.778182 
L 257.4 130.778182 
L 261.458182 130.778182 
L 265.516364 130.778182 
L 269.574545 130.778182 
L 273.632727 130.778182 
L 277.690909 130.778182 
L 281.749091 130.778182 
L 285.807273 129.469091 
L 289.865455 130.778182 
L 293.923636 130.778182 
L 297.981818 130.778182 
L 302.04 130.778182 
L 306.098182 130.778182 
L 310.156364 130.778182 
L 314.214545 130.778182 
L 318.272727 130.778182 
L 322.330909 128.16 
L 326.389091 130.778182 
L 330.447273 130.778182 
L 334.505455 129.469091 
L 338.563636 128.16 
L 342.621818 130.778182 
L 346.68 130.778182 
L 350.738182 130.778182 
L 354.796364 117.687273 
L 358.854545 130.778182 
L 362.912727 130.778182 
L 366.970909 129.469091 
L 371.029091 126.850909 
L 375.087273 129.469091 
L 379.145455 128.16 
L 383.203636 122.923636 
L 387.261818 128.16 
L 391.32 130.778182 
L 395.378182 129.469091 
L 399.436364 130.778182 
L 403.494545 129.469091 
L 407.552727 130.778182 
L 411.610909 128.16 
L 415.669091 128.16 
L 419.727273 128.16 
L 423.785455 130.778182 
L 427.843636 130.778182 
L 431.901818 128.16 
L 435.96 125.541818 
L 440.018182 122.923636 
L 444.076364 128.16 
L 448.134545 125.541818 
L 452.192727 130.778182 
L 456.250909 122.923636 
L 460.309091 126.850909 
L 464.367273 128.16 
L 468.425455 126.850909 
L 472.483636 121.614545 
L 476.541818 129.469091 
L 480.6 125.541818 
L 484.658182 117.687273 
L 488.716364 122.923636 
L 492.774545 115.069091 
L 496.832727 84.96 
L 500.890909 124.232727 
L 504.949091 130.778182 
L 509.007273 128.16 
L 513.065455 116.378182 
L 517.123636 120.305455 
L 521.181818 124.232727 
L 525.24 112.450909 
L 529.298182 126.850909 
L 533.356364 126.850909 
L 537.414545 129.469091 
L 541.472727 117.687273 
L 545.530909 117.687273 
L 549.589091 130.778182 
L 553.647273 128.16 
L 557.705455 130.778182 
L 561.763636 126.850909 
L 565.821818 100.669091 
L 569.88 100.669091 
L 573.938182 111.141818 
L 577.996364 113.76 
L 582.054545 117.687273 
L 586.112727 125.541818 
L 590.170909 130.778182 
L 594.229091 124.232727 
L 598.287273 129.469091 
L 602.345455 116.378182 
L 606.403636 128.16 
L 610.461818 116.378182 
L 614.52 108.523636 
L 618.578182 115.069091 
L 622.636364 125.541818 
" style="fill:none;stroke:#ff7f0e;stroke-linecap:square;stroke-width:1.5;"/>
   </g>
   <g id="patch_3">
    <path d="M 90 135.36 
L 90 34.56 
" style="fill:none;stroke:#000000;stroke-linecap:square;stroke-linejoin:miter;stroke-width:0.8;"/>
   </g>
   <g id="patch_4">
    <path d="M 648 135.36 
L 648 34.56 
" style="fill:none;stroke:#000000;stroke-linecap:square;stroke-linejoin:miter;stroke-width:0.8;"/>
   </g>
   <g id="patch_5">
    <path d="M 90 135.36 
L 648 135.36 
" style="fill:none;stroke:#000000;stroke-linecap:square;stroke-linejoin:miter;stroke-width:0.8;"/>
   </g>
   <g id="patch_6">
    <path d="M 90 34.56 
L 648 34.56 
" style="fill:none;stroke:#000000;stroke-linecap:square;stroke-linejoin:miter;stroke-width:0.8;"/>
   </g>
   <g id="legend_1">
    <g id="patch_7">
     <path d="M 97 71.91625 
L 238.8625 71.91625 
Q 240.8625 71.91625 240.8625 69.91625 
L 240.8625 41.56 
Q 240.8625 39.56 238.8625 39.56 
L 97 39.56 
Q 95 39.56 95 41.56 
L 95 69.91625 
Q 95 71.91625 97 71.91625 
z
" style="fill:#ffffff;opacity:0.8;stroke:#cccccc;stroke-linejoin:miter;"/>
    </g>
    <g id="line2d_14">
     <path d="M 99 47.658437 
L 119 47.658437 
" style="fill:none;stroke:#1f77b4;stroke-linecap:square;stroke-width:1.5;"/>
    </g>
    <g id="line2d_15"/>
    <g id="text_13">
     <!-- Total GitHub Clones -->
     <g transform="translate(127 51.158437)scale(0.1 -0.1)">
      <defs>
       <path d="M -19 4666 
L 3928 4666 
L 3928 4134 
L 2272 4134 
L 2272 0 
L 1638 0 
L 1638 4134 
L -19 4134 
L -19 4666 
z
" id="DejaVuSans-54" transform="scale(0.015625)"/>
       <path d="M 1959 3097 
Q 1497 3097 1228 2736 
Q 959 2375 959 1747 
Q 959 1119 1226 758 
Q 1494 397 1959 397 
Q 2419 397 2687 759 
Q 2956 1122 2956 1747 
Q 2956 2369 2687 2733 
Q 2419 3097 1959 3097 
z
M 1959 3584 
Q 2709 3584 3137 3096 
Q 3566 2609 3566 1747 
Q 3566 888 3137 398 
Q 2709 -91 1959 -91 
Q 1206 -91 779 398 
Q 353 888 353 1747 
Q 353 2609 779 3096 
Q 1206 3584 1959 3584 
z
" id="DejaVuSans-6f" transform="scale(0.015625)"/>
       <path d="M 603 4863 
L 1178 4863 
L 1178 0 
L 603 0 
L 603 4863 
z
" id="DejaVuSans-6c" transform="scale(0.015625)"/>
       <path id="DejaVuSans-20" transform="scale(0.015625)"/>
       <path d="M 3809 666 
L 3809 1919 
L 2778 1919 
L 2778 2438 
L 4434 2438 
L 4434 434 
Q 4069 175 3628 42 
Q 3188 -91 2688 -91 
Q 1594 -91 976 548 
Q 359 1188 359 2328 
Q 359 3472 976 4111 
Q 1594 4750 2688 4750 
Q 3144 4750 3555 4637 
Q 3966 4525 4313 4306 
L 4313 3634 
Q 3963 3931 3569 4081 
Q 3175 4231 2741 4231 
Q 1884 4231 1454 3753 
Q 1025 3275 1025 2328 
Q 1025 1384 1454 906 
Q 1884 428 2741 428 
Q 3075 428 3337 486 
Q 3600 544 3809 666 
z
" id="DejaVuSans-47" transform="scale(0.015625)"/>
       <path d="M 603 3500 
L 1178 3500 
L 1178 0 
L 603 0 
L 603 3500 
z
M 603 4863 
L 1178 4863 
L 1178 4134 
L 603 4134 
L 603 4863 
z
" id="DejaVuSans-69" transform="scale(0.015625)"/>
       <path d="M 628 4666 
L 1259 4666 
L 1259 2753 
L 3553 2753 
L 3553 4666 
L 4184 4666 
L 4184 0 
L 3553 0 
L 3553 2222 
L 1259 2222 
L 1259 0 
L 628 0 
L 628 4666 
z
" id="DejaVuSans-48" transform="scale(0.015625)"/>
       <path d="M 544 1381 
L 544 3500 
L 1119 3500 
L 1119 1403 
Q 1119 906 1312 657 
Q 1506 409 1894 409 
Q 2359 409 2629 706 
Q 2900 1003 2900 1516 
L 2900 3500 
L 3475 3500 
L 3475 0 
L 2900 0 
L 2900 538 
Q 2691 219 2414 64 
Q 2138 -91 1772 -91 
Q 1169 -91 856 284 
Q 544 659 544 1381 
z
M 1991 3584 
L 1991 3584 
z
" id="DejaVuSans-75" transform="scale(0.015625)"/>
       <path d="M 3116 1747 
Q 3116 2381 2855 2742 
Q 2594 3103 2138 3103 
Q 1681 3103 1420 2742 
Q 1159 2381 1159 1747 
Q 1159 1113 1420 752 
Q 1681 391 2138 391 
Q 2594 391 2855 752 
Q 3116 1113 3116 1747 
z
M 1159 2969 
Q 1341 3281 1617 3432 
Q 1894 3584 2278 3584 
Q 2916 3584 3314 3078 
Q 3713 2572 3713 1747 
Q 3713 922 3314 415 
Q 2916 -91 2278 -91 
Q 1894 -91 1617 61 
Q 1341 213 1159 525 
L 1159 0 
L 581 0 
L 581 4863 
L 1159 4863 
L 1159 2969 
z
" id="DejaVuSans-62" transform="scale(0.015625)"/>
       <path d="M 4122 4306 
L 4122 3641 
Q 3803 3938 3442 4084 
Q 3081 4231 2675 4231 
Q 1875 4231 1450 3742 
Q 1025 3253 1025 2328 
Q 1025 1406 1450 917 
Q 1875 428 2675 428 
Q 3081 428 3442 575 
Q 3803 722 4122 1019 
L 4122 359 
Q 3791 134 3420 21 
Q 3050 -91 2638 -91 
Q 1578 -91 968 557 
Q 359 1206 359 2328 
Q 359 3453 968 4101 
Q 1578 4750 2638 4750 
Q 3056 4750 3426 4639 
Q 3797 4528 4122 4306 
z
" id="DejaVuSans-43" transform="scale(0.015625)"/>
       <path d="M 3513 2113 
L 3513 0 
L 2938 0 
L 2938 2094 
Q 2938 2591 2744 2837 
Q 2550 3084 2163 3084 
Q 1697 3084 1428 2787 
Q 1159 2491 1159 1978 
L 1159 0 
L 581 0 
L 581 3500 
L 1159 3500 
L 1159 2956 
Q 1366 3272 1645 3428 
Q 1925 3584 2291 3584 
Q 2894 3584 3203 3211 
Q 3513 2838 3513 2113 
z
" id="DejaVuSans-6e" transform="scale(0.015625)"/>
       <path d="M 2834 3397 
L 2834 2853 
Q 2591 2978 2328 3040 
Q 2066 3103 1784 3103 
Q 1356 3103 1142 2972 
Q 928 2841 928 2578 
Q 928 2378 1081 2264 
Q 1234 2150 1697 2047 
L 1894 2003 
Q 2506 1872 2764 1633 
Q 3022 1394 3022 966 
Q 3022 478 2636 193 
Q 2250 -91 1575 -91 
Q 1294 -91 989 -36 
Q 684 19 347 128 
L 347 722 
Q 666 556 975 473 
Q 1284 391 1588 391 
Q 1994 391 2212 530 
Q 2431 669 2431 922 
Q 2431 1156 2273 1281 
Q 2116 1406 1581 1522 
L 1381 1569 
Q 847 1681 609 1914 
Q 372 2147 372 2553 
Q 372 3047 722 3315 
Q 1072 3584 1716 3584 
Q 2034 3584 2315 3537 
Q 2597 3491 2834 3397 
z
" id="DejaVuSans-73" transform="scale(0.015625)"/>
      </defs>
      <use xlink:href="#DejaVuSans-54"/>
      <use x="44.083984" xlink:href="#DejaVuSans-6f"/>
      <use x="105.265625" xlink:href="#DejaVuSans-74"/>
      <use x="144.474609" xlink:href="#DejaVuSans-61"/>
      <use x="205.753906" xlink:href="#DejaVuSans-6c"/>
      <use x="233.537109" xlink:href="#DejaVuSans-20"/>
      <use x="265.324219" xlink:href="#DejaVuSans-47"/>
      <use x="342.814453" xlink:href="#DejaVuSans-69"/>
      <use x="370.597656" xlink:href="#DejaVuSans-74"/>
      <use x="409.806641" xlink:href="#DejaVuSans-48"/>
      <use x="485.001953" xlink:href="#DejaVuSans-75"/>
      <use x="548.380859" xlink:href="#DejaVuSans-62"/>
      <use x="611.857422" xlink:href="#DejaVuSans-20"/>
      <use x="643.644531" xlink:href="#DejaVuSans-43"/>
      <use x="713.46875" xlink:href="#DejaVuSans-6c"/>
      <use x="741.251953" xlink:href="#DejaVuSans-6f"/>
      <use x="802.433594" xlink:href="#DejaVuSans-6e"/>
      <use x="865.8125" xlink:href="#DejaVuSans-65"/>
      <use x="927.335938" xlink:href="#DejaVuSans-73"/>
     </g>
    </g>
    <g id="line2d_16">
     <path d="M 99 62.336562 
L 119 62.336562 
" style="fill:none;stroke:#ff7f0e;stroke-linecap:square;stroke-width:1.5;"/>
    </g>
    <g id="line2d_17"/>
    <g id="text_14">
     <!-- Unique GitHub Clones -->
     <g transform="translate(127 65.836562)scale(0.1 -0.1)">
      <defs>
       <path d="M 556 4666 
L 1191 4666 
L 1191 1831 
Q 1191 1081 1462 751 
Q 1734 422 2344 422 
Q 2950 422 3222 751 
Q 3494 1081 3494 1831 
L 3494 4666 
L 4128 4666 
L 4128 1753 
Q 4128 841 3676 375 
Q 3225 -91 2344 -91 
Q 1459 -91 1007 375 
Q 556 841 556 1753 
L 556 4666 
z
" id="DejaVuSans-55" transform="scale(0.015625)"/>
       <path d="M 947 1747 
Q 947 1113 1208 752 
Q 1469 391 1925 391 
Q 2381 391 2643 752 
Q 2906 1113 2906 1747 
Q 2906 2381 2643 2742 
Q 2381 3103 1925 3103 
Q 1469 3103 1208 2742 
Q 947 2381 947 1747 
z
M 2906 525 
Q 2725 213 2448 61 
Q 2172 -91 1784 -91 
Q 1150 -91 751 415 
Q 353 922 353 1747 
Q 353 2572 751 3078 
Q 1150 3584 1784 3584 
Q 2172 3584 2448 3432 
Q 2725 3281 2906 2969 
L 2906 3500 
L 3481 3500 
L 3481 -1331 
L 2906 -1331 
L 2906 525 
z
" id="DejaVuSans-71" transform="scale(0.015625)"/>
      </defs>
      <use xlink:href="#DejaVuSans-55"/>
      <use x="73.193359" xlink:href="#DejaVuSans-6e"/>
      <use x="136.572266" xlink:href="#DejaVuSans-69"/>
      <use x="164.355469" xlink:href="#DejaVuSans-71"/>
      <use x="227.832031" xlink:href="#DejaVuSans-75"/>
      <use x="291.210938" xlink:href="#DejaVuSans-65"/>
      <use x="352.734375" xlink:href="#DejaVuSans-20"/>
      <use x="384.521484" xlink:href="#DejaVuSans-47"/>
      <use x="462.011719" xlink:href="#DejaVuSans-69"/>
      <use x="489.794922" xlink:href="#DejaVuSans-74"/>
      <use x="529.003906" xlink:href="#DejaVuSans-48"/>
      <use x="604.199219" xlink:href="#DejaVuSans-75"/>
      <use x="667.578125" xlink:href="#DejaVuSans-62"/>
      <use x="731.054688" xlink:href="#DejaVuSans-20"/>
      <use x="762.841797" xlink:href="#DejaVuSans-43"/>
      <use x="832.666016" xlink:href="#DejaVuSans-6c"/>
      <use x="860.449219" xlink:href="#DejaVuSans-6f"/>
      <use x="921.630859" xlink:href="#DejaVuSans-6e"/>
      <use x="985.009766" xlink:href="#DejaVuSans-65"/>
      <use x="1046.533203" xlink:href="#DejaVuSans-73"/>
     </g>
    </g>
   </g>
  </g>
  <g id="axes_2">
   <g id="patch_8">
    <path d="M 90 256.32 
L 648 256.32 
L 648 155.52 
L 90 155.52 
z
" style="fill:#ffffff;"/>
   </g>
   <g id="matplotlib.axis_3">
    <g id="xtick_8">
     <g id="line2d_18">
      <g>
       <use style="stroke:#000000;stroke-width:0.8;" x="115.363636" xlink:href="#m9c7ddac699" y="256.32"/>
      </g>
     </g>
     <g id="text_15">
      <!-- 2020-10-21 -->
      <g transform="translate(86.305824 270.918437)scale(0.1 -0.1)">
       <use xlink:href="#DejaVuSans-32"/>
       <use x="63.623047" xlink:href="#DejaVuSans-30"/>
       <use x="127.246094" xlink:href="#DejaVuSans-32"/>
       <use x="190.869141" xlink:href="#DejaVuSans-30"/>
       <use x="254.492188" xlink:href="#DejaVuSans-2d"/>
       <use x="290.576172" xlink:href="#DejaVuSans-31"/>
       <use x="354.199219" xlink:href="#DejaVuSans-30"/>
       <use x="417.822266" xlink:href="#DejaVuSans-2d"/>
       <use x="453.90625" xlink:href="#DejaVuSans-32"/>
       <use x="517.529297" xlink:href="#DejaVuSans-31"/>
      </g>
     </g>
    </g>
    <g id="xtick_9">
     <g id="line2d_19">
      <g>
       <use style="stroke:#000000;stroke-width:0.8;" x="189.095137" xlink:href="#m9c7ddac699" y="256.32"/>
      </g>
     </g>
     <g id="text_16">
      <!-- 2020-11-15 -->
      <g transform="translate(160.037325 270.918437)scale(0.1 -0.1)">
       <use xlink:href="#DejaVuSans-32"/>
       <use x="63.623047" xlink:href="#DejaVuSans-30"/>
       <use x="127.246094" xlink:href="#DejaVuSans-32"/>
       <use x="190.869141" xlink:href="#DejaVuSans-30"/>
       <use x="254.492188" xlink:href="#DejaVuSans-2d"/>
       <use x="290.576172" xlink:href="#DejaVuSans-31"/>
       <use x="354.199219" xlink:href="#DejaVuSans-31"/>
       <use x="417.822266" xlink:href="#DejaVuSans-2d"/>
       <use x="453.90625" xlink:href="#DejaVuSans-31"/>
       <use x="517.529297" xlink:href="#DejaVuSans-35"/>
      </g>
     </g>
    </g>
    <g id="xtick_10">
     <g id="line2d_20">
      <g>
       <use style="stroke:#000000;stroke-width:0.8;" x="262.826638" xlink:href="#m9c7ddac699" y="256.32"/>
      </g>
     </g>
     <g id="text_17">
      <!-- 2020-12-11 -->
      <g transform="translate(233.768826 270.918437)scale(0.1 -0.1)">
       <use xlink:href="#DejaVuSans-32"/>
       <use x="63.623047" xlink:href="#DejaVuSans-30"/>
       <use x="127.246094" xlink:href="#DejaVuSans-32"/>
       <use x="190.869141" xlink:href="#DejaVuSans-30"/>
       <use x="254.492188" xlink:href="#DejaVuSans-2d"/>
       <use x="290.576172" xlink:href="#DejaVuSans-31"/>
       <use x="354.199219" xlink:href="#DejaVuSans-32"/>
       <use x="417.822266" xlink:href="#DejaVuSans-2d"/>
       <use x="453.90625" xlink:href="#DejaVuSans-31"/>
       <use x="517.529297" xlink:href="#DejaVuSans-31"/>
      </g>
     </g>
    </g>
    <g id="xtick_11">
     <g id="line2d_21">
      <g>
       <use style="stroke:#000000;stroke-width:0.8;" x="336.55814" xlink:href="#m9c7ddac699" y="256.32"/>
      </g>
     </g>
     <g id="text_18">
      <!-- 2021-01-06 -->
      <g transform="translate(307.500327 270.918437)scale(0.1 -0.1)">
       <use xlink:href="#DejaVuSans-32"/>
       <use x="63.623047" xlink:href="#DejaVuSans-30"/>
       <use x="127.246094" xlink:href="#DejaVuSans-32"/>
       <use x="190.869141" xlink:href="#DejaVuSans-31"/>
       <use x="254.492188" xlink:href="#DejaVuSans-2d"/>
       <use x="290.576172" xlink:href="#DejaVuSans-30"/>
       <use x="354.199219" xlink:href="#DejaVuSans-31"/>
       <use x="417.822266" xlink:href="#DejaVuSans-2d"/>
       <use x="453.90625" xlink:href="#DejaVuSans-30"/>
       <use x="517.529297" xlink:href="#DejaVuSans-36"/>
      </g>
     </g>
    </g>
    <g id="xtick_12">
     <g id="line2d_22">
      <g>
       <use style="stroke:#000000;stroke-width:0.8;" x="410.289641" xlink:href="#m9c7ddac699" y="256.32"/>
      </g>
     </g>
     <g id="text_19">
      <!-- 2021-01-31 -->
      <g transform="translate(381.231828 270.918437)scale(0.1 -0.1)">
       <use xlink:href="#DejaVuSans-32"/>
       <use x="63.623047" xlink:href="#DejaVuSans-30"/>
       <use x="127.246094" xlink:href="#DejaVuSans-32"/>
       <use x="190.869141" xlink:href="#DejaVuSans-31"/>
       <use x="254.492188" xlink:href="#DejaVuSans-2d"/>
       <use x="290.576172" xlink:href="#DejaVuSans-30"/>
       <use x="354.199219" xlink:href="#DejaVuSans-31"/>
       <use x="417.822266" xlink:href="#DejaVuSans-2d"/>
       <use x="453.90625" xlink:href="#DejaVuSans-33"/>
       <use x="517.529297" xlink:href="#DejaVuSans-31"/>
      </g>
     </g>
    </g>
    <g id="xtick_13">
     <g id="line2d_23">
      <g>
       <use style="stroke:#000000;stroke-width:0.8;" x="484.021142" xlink:href="#m9c7ddac699" y="256.32"/>
      </g>
     </g>
     <g id="text_20">
      <!-- 2021-02-25 -->
      <g transform="translate(454.963329 270.918437)scale(0.1 -0.1)">
       <use xlink:href="#DejaVuSans-32"/>
       <use x="63.623047" xlink:href="#DejaVuSans-30"/>
       <use x="127.246094" xlink:href="#DejaVuSans-32"/>
       <use x="190.869141" xlink:href="#DejaVuSans-31"/>
       <use x="254.492188" xlink:href="#DejaVuSans-2d"/>
       <use x="290.576172" xlink:href="#DejaVuSans-30"/>
       <use x="354.199219" xlink:href="#DejaVuSans-32"/>
       <use x="417.822266" xlink:href="#DejaVuSans-2d"/>
       <use x="453.90625" xlink:href="#DejaVuSans-32"/>
       <use x="517.529297" xlink:href="#DejaVuSans-35"/>
      </g>
     </g>
    </g>
    <g id="xtick_14">
     <g id="line2d_24">
      <g>
       <use style="stroke:#000000;stroke-width:0.8;" x="557.752643" xlink:href="#m9c7ddac699" y="256.32"/>
      </g>
     </g>
     <g id="text_21">
      <!-- 2021-03-22 -->
      <g transform="translate(528.69483 270.918437)scale(0.1 -0.1)">
       <use xlink:href="#DejaVuSans-32"/>
       <use x="63.623047" xlink:href="#DejaVuSans-30"/>
       <use x="127.246094" xlink:href="#DejaVuSans-32"/>
       <use x="190.869141" xlink:href="#DejaVuSans-31"/>
       <use x="254.492188" xlink:href="#DejaVuSans-2d"/>
       <use x="290.576172" xlink:href="#DejaVuSans-30"/>
       <use x="354.199219" xlink:href="#DejaVuSans-33"/>
       <use x="417.822266" xlink:href="#DejaVuSans-2d"/>
       <use x="453.90625" xlink:href="#DejaVuSans-32"/>
       <use x="517.529297" xlink:href="#DejaVuSans-32"/>
      </g>
     </g>
    </g>
    <g id="xtick_15">
     <g id="line2d_25">
      <g>
       <use style="stroke:#000000;stroke-width:0.8;" x="631.484144" xlink:href="#m9c7ddac699" y="256.32"/>
      </g>
     </g>
    </g>
    <g id="text_22">
     <!-- _date -->
     <g transform="translate(355.225 284.596563)scale(0.1 -0.1)">
      <use xlink:href="#DejaVuSans-5f"/>
      <use x="50" xlink:href="#DejaVuSans-64"/>
      <use x="113.476562" xlink:href="#DejaVuSans-61"/>
      <use x="174.755859" xlink:href="#DejaVuSans-74"/>
      <use x="213.964844" xlink:href="#DejaVuSans-65"/>
     </g>
    </g>
   </g>
   <g id="matplotlib.axis_4">
    <g id="ytick_5">
     <g id="line2d_26">
      <g>
       <use style="stroke:#000000;stroke-width:0.8;" x="90" xlink:href="#mc0f4af0475" y="252.072621"/>
      </g>
     </g>
     <g id="text_23">
      <!-- 0 -->
      <g transform="translate(76.6375 255.87184)scale(0.1 -0.1)">
       <use xlink:href="#DejaVuSans-30"/>
      </g>
     </g>
    </g>
    <g id="ytick_6">
     <g id="line2d_27">
      <g>
       <use style="stroke:#000000;stroke-width:0.8;" x="90" xlink:href="#mc0f4af0475" y="218.628693"/>
      </g>
     </g>
     <g id="text_24">
      <!-- 100 -->
      <g transform="translate(63.9125 222.427912)scale(0.1 -0.1)">
       <use xlink:href="#DejaVuSans-31"/>
       <use x="63.623047" xlink:href="#DejaVuSans-30"/>
       <use x="127.246094" xlink:href="#DejaVuSans-30"/>
      </g>
     </g>
    </g>
    <g id="ytick_7">
     <g id="line2d_28">
      <g>
       <use style="stroke:#000000;stroke-width:0.8;" x="90" xlink:href="#mc0f4af0475" y="185.184764"/>
      </g>
     </g>
     <g id="text_25">
      <!-- 200 -->
      <g transform="translate(63.9125 188.983983)scale(0.1 -0.1)">
       <use xlink:href="#DejaVuSans-32"/>
       <use x="63.623047" xlink:href="#DejaVuSans-30"/>
       <use x="127.246094" xlink:href="#DejaVuSans-30"/>
      </g>
     </g>
    </g>
   </g>
   <g id="line2d_29">
    <path clip-path="url(#pcb4afbc96f)" d="M 115.363636 251.738182 
L 118.312896 226.989675 
L 121.262156 223.979721 
L 124.211416 243.04276 
L 127.160677 251.403743 
L 130.109937 236.353975 
L 133.059197 236.019536 
L 136.008457 231.337386 
L 138.957717 236.019536 
L 141.906977 237.022853 
L 144.856237 250.400425 
L 147.805497 247.72491 
L 150.754757 246.721593 
L 153.704017 237.022853 
L 156.653277 204.247804 
L 159.602537 221.304207 
L 162.551797 242.373882 
L 165.501057 246.387153 
L 168.450317 251.069303 
L 171.399577 236.019536 
L 174.348837 219.297571 
L 177.298097 244.714957 
L 180.247357 241.705003 
L 183.196617 234.0129 
L 186.145877 234.0129 
L 189.095137 249.397107 
L 192.044397 234.347339 
L 194.993658 229.999628 
L 197.942918 242.039443 
L 200.892178 242.039443 
L 203.841438 236.353975 
L 206.790698 246.052714 
L 209.739958 248.728228 
L 212.689218 221.638646 
L 215.638478 248.393789 
L 218.587738 247.390471 
L 221.536998 249.397107 
L 224.486258 247.056032 
L 227.435518 251.403743 
L 230.384778 251.403743 
L 233.334038 223.645282 
L 236.283298 208.595514 
L 239.232558 242.373882 
L 242.181818 244.046078 
L 245.131078 221.973086 
L 248.080338 250.734864 
L 251.029598 243.711639 
L 253.978858 239.698368 
L 256.928118 245.049396 
L 259.877378 233.344021 
L 262.826638 246.052714 
L 265.775899 250.734864 
L 268.725159 251.738182 
L 271.674419 242.373882 
L 274.623679 240.367246 
L 277.572939 240.701685 
L 280.522199 239.029489 
L 283.471459 248.393789 
L 286.420719 250.734864 
L 289.369979 250.400425 
L 292.319239 246.387153 
L 295.268499 247.056032 
L 298.217759 241.036125 
L 301.167019 249.731546 
L 304.116279 251.069303 
L 307.065539 251.403743 
L 310.014799 247.72491 
L 312.964059 249.062668 
L 315.913319 250.065985 
L 318.862579 251.738182 
L 321.811839 246.387153 
L 324.761099 246.721593 
L 327.710359 250.734864 
L 330.659619 245.383835 
L 333.608879 241.036125 
L 336.55814 238.026171 
L 339.5074 247.056032 
L 342.45666 248.393789 
L 345.40592 228.996311 
L 348.35518 250.065985 
L 351.30444 231.002946 
L 354.2537 233.009582 
L 357.20296 238.026171 
L 360.15222 230.334068 
L 363.10148 246.052714 
L 366.05074 232.006264 
L 369 251.069303 
L 371.94926 230.668507 
L 374.89852 232.340703 
L 377.84778 222.307525 
L 380.79704 229.33075 
L 383.7463 238.026171 
L 386.69556 241.370564 
L 389.64482 247.72491 
L 392.59408 224.983039 
L 395.54334 219.632011 
L 398.4926 233.678461 
L 401.44186 232.006264 
L 404.391121 228.996311 
L 407.340381 246.721593 
L 410.289641 248.05935 
L 413.238901 226.320796 
L 416.188161 246.052714 
L 422.086681 229.999628 
L 427.985201 250.734864 
L 430.934461 247.056032 
L 433.883721 232.675143 
L 436.832981 232.006264 
L 439.782241 220.635328 
L 442.731501 240.367246 
L 445.680761 250.065985 
L 448.630021 250.400425 
L 451.579281 248.728228 
L 454.528541 241.036125 
L 457.477801 241.370564 
L 460.427061 246.052714 
L 463.376321 227.324114 
L 466.325581 247.72491 
L 469.274841 240.367246 
L 472.224101 237.022853 
L 475.173362 239.029489 
L 478.122622 220.969768 
L 481.071882 233.009582 
L 484.021142 232.006264 
L 486.970402 238.026171 
L 489.919662 236.019536 
L 492.868922 237.357293 
L 495.818182 171.472754 
L 498.767442 244.714957 
L 501.716702 227.324114 
L 504.665962 231.671825 
L 507.615222 222.641964 
L 510.564482 240.032807 
L 513.513742 190.870232 
L 516.463002 188.863597 
L 519.412262 195.886821 
L 522.361522 225.317478 
L 525.310782 160.101818 
L 528.260042 218.628693 
L 531.209302 245.049396 
L 534.158562 244.046078 
L 537.107822 235.016218 
L 540.057082 227.658553 
L 543.006342 223.645282 
L 545.955603 231.671825 
L 548.904863 218.963132 
L 551.854123 242.373882 
L 554.803383 244.714957 
L 557.752643 197.224579 
L 560.701903 197.559018 
L 563.651163 229.33075 
L 566.600423 231.337386 
L 569.549683 245.383835 
L 572.498943 248.05935 
L 575.448203 247.390471 
L 578.397463 229.665189 
L 581.346723 172.141632 
L 584.295983 216.622057 
L 587.245243 225.986357 
L 590.194503 231.337386 
L 593.143763 207.592196 
L 596.093023 243.04276 
L 599.042283 247.72491 
L 601.991543 243.711639 
L 604.940803 216.622057 
L 607.890063 236.353975 
L 610.839323 218.294253 
L 613.788584 191.204672 
L 616.737844 230.668507 
L 619.687104 239.363928 
L 622.636364 245.049396 
L 622.636364 245.049396 
" style="fill:none;stroke:#1f77b4;stroke-linecap:square;stroke-width:1.5;"/>
   </g>
   <g id="line2d_30">
    <path clip-path="url(#pcb4afbc96f)" d="M 115.363636 251.738182 
L 118.312896 249.062668 
L 121.262156 247.72491 
L 124.211416 249.062668 
L 127.160677 251.738182 
L 130.109937 249.731546 
L 133.059197 248.728228 
L 136.008457 248.728228 
L 138.957717 248.393789 
L 141.906977 249.062668 
L 144.856237 251.403743 
L 156.653277 248.728228 
L 159.602537 248.393789 
L 162.551797 249.731546 
L 168.450317 251.738182 
L 171.399577 248.393789 
L 174.348837 249.062668 
L 177.298097 250.400425 
L 180.247357 250.734864 
L 183.196617 250.400425 
L 186.145877 251.403743 
L 189.095137 251.069303 
L 192.044397 249.731546 
L 194.993658 251.069303 
L 197.942918 248.393789 
L 200.892178 249.397107 
L 203.841438 250.065985 
L 206.790698 251.069303 
L 209.739958 251.069303 
L 212.689218 246.721593 
L 215.638478 251.403743 
L 218.587738 251.403743 
L 221.536998 251.069303 
L 227.435518 251.738182 
L 230.384778 251.403743 
L 233.334038 249.062668 
L 236.283298 246.052714 
L 239.232558 248.05935 
L 242.181818 249.731546 
L 245.131078 249.731546 
L 248.080338 251.403743 
L 251.029598 250.065985 
L 253.978858 249.731546 
L 256.928118 250.734864 
L 259.877378 247.056032 
L 262.826638 249.062668 
L 265.775899 251.403743 
L 268.725159 251.738182 
L 271.674419 248.728228 
L 277.572939 248.728228 
L 280.522199 249.731546 
L 283.471459 250.065985 
L 286.420719 251.069303 
L 289.369979 251.403743 
L 292.319239 250.734864 
L 295.268499 250.400425 
L 298.217759 251.069303 
L 304.116279 251.069303 
L 307.065539 251.403743 
L 310.014799 250.734864 
L 315.913319 250.734864 
L 318.862579 251.738182 
L 321.811839 251.069303 
L 324.761099 251.069303 
L 327.710359 250.734864 
L 330.659619 249.397107 
L 333.608879 247.390471 
L 336.55814 249.731546 
L 339.5074 251.069303 
L 342.45666 250.734864 
L 345.40592 250.734864 
L 348.35518 251.069303 
L 351.30444 249.062668 
L 354.2537 248.05935 
L 357.20296 249.397107 
L 360.15222 246.052714 
L 363.10148 249.397107 
L 366.05074 250.065985 
L 369 251.069303 
L 371.94926 250.400425 
L 374.89852 250.400425 
L 377.84778 247.72491 
L 380.79704 249.062668 
L 383.7463 248.728228 
L 386.69556 248.728228 
L 389.64482 250.065985 
L 392.59408 245.049396 
L 395.54334 247.056032 
L 398.4926 248.728228 
L 401.44186 246.721593 
L 404.391121 245.383835 
L 407.340381 250.734864 
L 410.289641 250.400425 
L 413.238901 248.05935 
L 416.188161 249.731546 
L 419.137421 247.390471 
L 422.086681 249.062668 
L 425.035941 249.062668 
L 427.985201 250.734864 
L 430.934461 251.069303 
L 433.883721 248.393789 
L 436.832981 247.390471 
L 439.782241 247.72491 
L 442.731501 250.734864 
L 445.680761 251.403743 
L 451.579281 250.734864 
L 454.528541 250.734864 
L 457.477801 249.062668 
L 460.427061 250.065985 
L 463.376321 248.393789 
L 466.325581 250.734864 
L 469.274841 250.065985 
L 472.224101 250.734864 
L 475.173362 248.728228 
L 478.122622 248.393789 
L 481.071882 248.393789 
L 484.021142 247.390471 
L 486.970402 250.065985 
L 489.919662 250.734864 
L 492.868922 250.734864 
L 495.818182 240.701685 
L 498.767442 248.393789 
L 501.716702 248.393789 
L 504.665962 246.721593 
L 507.615222 248.728228 
L 510.564482 250.400425 
L 513.513742 250.400425 
L 516.463002 245.383835 
L 519.412262 245.718275 
L 522.361522 247.72491 
L 525.310782 245.718275 
L 528.260042 246.721593 
L 531.209302 249.731546 
L 534.158562 250.734864 
L 537.107822 246.721593 
L 540.057082 245.049396 
L 543.006342 246.387153 
L 545.955603 246.721593 
L 548.904863 249.062668 
L 551.854123 251.069303 
L 554.803383 249.731546 
L 557.752643 247.056032 
L 560.701903 247.390471 
L 563.651163 247.056032 
L 566.600423 248.05935 
L 569.549683 250.400425 
L 575.448203 251.069303 
L 578.397463 249.731546 
L 581.346723 245.383835 
L 584.295983 249.062668 
L 587.245243 246.387153 
L 590.194503 248.05935 
L 593.143763 246.052714 
L 596.093023 249.397107 
L 599.042283 251.069303 
L 604.940803 249.062668 
L 607.890063 247.72491 
L 610.839323 248.05935 
L 613.788584 246.721593 
L 616.737844 248.728228 
L 619.687104 249.062668 
L 622.636364 250.734864 
L 622.636364 250.734864 
" style="fill:none;stroke:#ff7f0e;stroke-linecap:square;stroke-width:1.5;"/>
   </g>
   <g id="patch_9">
    <path d="M 90 256.32 
L 90 155.52 
" style="fill:none;stroke:#000000;stroke-linecap:square;stroke-linejoin:miter;stroke-width:0.8;"/>
   </g>
   <g id="patch_10">
    <path d="M 648 256.32 
L 648 155.52 
" style="fill:none;stroke:#000000;stroke-linecap:square;stroke-linejoin:miter;stroke-width:0.8;"/>
   </g>
   <g id="patch_11">
    <path d="M 90 256.32 
L 648 256.32 
" style="fill:none;stroke:#000000;stroke-linecap:square;stroke-linejoin:miter;stroke-width:0.8;"/>
   </g>
   <g id="patch_12">
    <path d="M 90 155.52 
L 648 155.52 
" style="fill:none;stroke:#000000;stroke-linecap:square;stroke-linejoin:miter;stroke-width:0.8;"/>
   </g>
   <g id="legend_2">
    <g id="patch_13">
     <path d="M 97 192.87625 
L 234.217188 192.87625 
Q 236.217188 192.87625 236.217188 190.87625 
L 236.217188 162.52 
Q 236.217188 160.52 234.217188 160.52 
L 97 160.52 
Q 95 160.52 95 162.52 
L 95 190.87625 
Q 95 192.87625 97 192.87625 
z
" style="fill:#ffffff;opacity:0.8;stroke:#cccccc;stroke-linejoin:miter;"/>
    </g>
    <g id="line2d_31">
     <path d="M 99 168.618437 
L 119 168.618437 
" style="fill:none;stroke:#1f77b4;stroke-linecap:square;stroke-width:1.5;"/>
    </g>
    <g id="line2d_32"/>
    <g id="text_26">
     <!-- Total GitHub Views -->
     <g transform="translate(127 172.118437)scale(0.1 -0.1)">
      <defs>
       <path d="M 1831 0 
L 50 4666 
L 709 4666 
L 2188 738 
L 3669 4666 
L 4325 4666 
L 2547 0 
L 1831 0 
z
" id="DejaVuSans-56" transform="scale(0.015625)"/>
       <path d="M 269 3500 
L 844 3500 
L 1563 769 
L 2278 3500 
L 2956 3500 
L 3675 769 
L 4391 3500 
L 4966 3500 
L 4050 0 
L 3372 0 
L 2619 2869 
L 1863 0 
L 1184 0 
L 269 3500 
z
" id="DejaVuSans-77" transform="scale(0.015625)"/>
      </defs>
      <use xlink:href="#DejaVuSans-54"/>
      <use x="44.083984" xlink:href="#DejaVuSans-6f"/>
      <use x="105.265625" xlink:href="#DejaVuSans-74"/>
      <use x="144.474609" xlink:href="#DejaVuSans-61"/>
      <use x="205.753906" xlink:href="#DejaVuSans-6c"/>
      <use x="233.537109" xlink:href="#DejaVuSans-20"/>
      <use x="265.324219" xlink:href="#DejaVuSans-47"/>
      <use x="342.814453" xlink:href="#DejaVuSans-69"/>
      <use x="370.597656" xlink:href="#DejaVuSans-74"/>
      <use x="409.806641" xlink:href="#DejaVuSans-48"/>
      <use x="485.001953" xlink:href="#DejaVuSans-75"/>
      <use x="548.380859" xlink:href="#DejaVuSans-62"/>
      <use x="611.857422" xlink:href="#DejaVuSans-20"/>
      <use x="643.644531" xlink:href="#DejaVuSans-56"/>
      <use x="709.802734" xlink:href="#DejaVuSans-69"/>
      <use x="737.585938" xlink:href="#DejaVuSans-65"/>
      <use x="799.109375" xlink:href="#DejaVuSans-77"/>
      <use x="880.896484" xlink:href="#DejaVuSans-73"/>
     </g>
    </g>
    <g id="line2d_33">
     <path d="M 99 183.296562 
L 119 183.296562 
" style="fill:none;stroke:#ff7f0e;stroke-linecap:square;stroke-width:1.5;"/>
    </g>
    <g id="line2d_34"/>
    <g id="text_27">
     <!-- Unique GitHub Views -->
     <g transform="translate(127 186.796562)scale(0.1 -0.1)">
      <use xlink:href="#DejaVuSans-55"/>
      <use x="73.193359" xlink:href="#DejaVuSans-6e"/>
      <use x="136.572266" xlink:href="#DejaVuSans-69"/>
      <use x="164.355469" xlink:href="#DejaVuSans-71"/>
      <use x="227.832031" xlink:href="#DejaVuSans-75"/>
      <use x="291.210938" xlink:href="#DejaVuSans-65"/>
      <use x="352.734375" xlink:href="#DejaVuSans-20"/>
      <use x="384.521484" xlink:href="#DejaVuSans-47"/>
      <use x="462.011719" xlink:href="#DejaVuSans-69"/>
      <use x="489.794922" xlink:href="#DejaVuSans-74"/>
      <use x="529.003906" xlink:href="#DejaVuSans-48"/>
      <use x="604.199219" xlink:href="#DejaVuSans-75"/>
      <use x="667.578125" xlink:href="#DejaVuSans-62"/>
      <use x="731.054688" xlink:href="#DejaVuSans-20"/>
      <use x="762.841797" xlink:href="#DejaVuSans-56"/>
      <use x="829" xlink:href="#DejaVuSans-69"/>
      <use x="856.783203" xlink:href="#DejaVuSans-65"/>
      <use x="918.306641" xlink:href="#DejaVuSans-77"/>
      <use x="1000.09375" xlink:href="#DejaVuSans-73"/>
     </g>
    </g>
   </g>
  </g>
 </g>
 <defs>
  <clipPath id="p2536927abb">
   <rect height="100.8" width="558" x="90" y="34.56"/>
  </clipPath>
  <clipPath id="pcb4afbc96f">
   <rect height="100.8" width="558" x="90" y="155.52"/>
  </clipPath>
 </defs>
</svg>
