<?xml version="1.0" encoding="utf-8" standalone="no"?>
<!DOCTYPE svg PUBLIC "-//W3C//DTD SVG 1.1//EN"
  "http://www.w3.org/Graphics/SVG/1.1/DTD/svg11.dtd">
<svg height="288pt" version="1.1" viewBox="0 0 720 288" width="720pt" xmlns="http://www.w3.org/2000/svg" xmlns:xlink="http://www.w3.org/1999/xlink">
 <metadata>
  <rdf:RDF xmlns:cc="http://creativecommons.org/ns#" xmlns:dc="http://purl.org/dc/elements/1.1/" xmlns:rdf="http://www.w3.org/1999/02/22-rdf-syntax-ns#">
   <cc:Work>
    <dc:type rdf:resource="http://purl.org/dc/dcmitype/StillImage"/>
    <dc:date>2021-05-10T00:00:46.393524</dc:date>
    <dc:format>image/svg+xml</dc:format>
    <dc:creator>
     <cc:Agent>
      <dc:title>Matplotlib v3.4.2, https://matplotlib.org/</dc:title>
     </cc:Agent>
    </dc:creator>
   </cc:Work>
  </rdf:RDF>
 </metadata>
 <defs>
  <style type="text/css">*{stroke-linecap:butt;stroke-linejoin:round;}</style>
 </defs>
 <g id="figure_1">
  <g id="patch_1">
   <path d="M 0 288 
L 720 288 
L 720 0 
L 0 0 
z
" style="fill:#ffffff;"/>
  </g>
  <g id="axes_1">
   <g id="patch_2">
    <path d="M 90 135.36 
L 648 135.36 
L 648 34.56 
L 90 34.56 
z
" style="fill:#ffffff;"/>
   </g>
   <g id="matplotlib.axis_1">
    <g id="xtick_1">
     <g id="line2d_1">
      <defs>
       <path d="M 0 0 
L 0 3.5 
" id="mc437112e7a" style="stroke:#000000;stroke-width:0.8;"/>
      </defs>
      <g>
       <use style="stroke:#000000;stroke-width:0.8;" x="115.363636" xlink:href="#mc437112e7a" y="135.36"/>
      </g>
     </g>
     <g id="text_1">
      <!-- 2020-10-22 -->
      <g transform="translate(86.305824 149.958437)scale(0.1 -0.1)">
       <defs>
        <path d="M 1228 531 
L 3431 531 
L 3431 0 
L 469 0 
L 469 531 
Q 828 903 1448 1529 
Q 2069 2156 2228 2338 
Q 2531 2678 2651 2914 
Q 2772 3150 2772 3378 
Q 2772 3750 2511 3984 
Q 2250 4219 1831 4219 
Q 1534 4219 1204 4116 
Q 875 4013 500 3803 
L 500 4441 
Q 881 4594 1212 4672 
Q 1544 4750 1819 4750 
Q 2544 4750 2975 4387 
Q 3406 4025 3406 3419 
Q 3406 3131 3298 2873 
Q 3191 2616 2906 2266 
Q 2828 2175 2409 1742 
Q 1991 1309 1228 531 
z
" id="DejaVuSans-32" transform="scale(0.015625)"/>
        <path d="M 2034 4250 
Q 1547 4250 1301 3770 
Q 1056 3291 1056 2328 
Q 1056 1369 1301 889 
Q 1547 409 2034 409 
Q 2525 409 2770 889 
Q 3016 1369 3016 2328 
Q 3016 3291 2770 3770 
Q 2525 4250 2034 4250 
z
M 2034 4750 
Q 2819 4750 3233 4129 
Q 3647 3509 3647 2328 
Q 3647 1150 3233 529 
Q 2819 -91 2034 -91 
Q 1250 -91 836 529 
Q 422 1150 422 2328 
Q 422 3509 836 4129 
Q 1250 4750 2034 4750 
z
" id="DejaVuSans-30" transform="scale(0.015625)"/>
        <path d="M 313 2009 
L 1997 2009 
L 1997 1497 
L 313 1497 
L 313 2009 
z
" id="DejaVuSans-2d" transform="scale(0.015625)"/>
        <path d="M 794 531 
L 1825 531 
L 1825 4091 
L 703 3866 
L 703 4441 
L 1819 4666 
L 2450 4666 
L 2450 531 
L 3481 531 
L 3481 0 
L 794 0 
L 794 531 
z
" id="DejaVuSans-31" transform="scale(0.015625)"/>
       </defs>
       <use xlink:href="#DejaVuSans-32"/>
       <use x="63.623047" xlink:href="#DejaVuSans-30"/>
       <use x="127.246094" xlink:href="#DejaVuSans-32"/>
       <use x="190.869141" xlink:href="#DejaVuSans-30"/>
       <use x="254.492188" xlink:href="#DejaVuSans-2d"/>
       <use x="290.576172" xlink:href="#DejaVuSans-31"/>
       <use x="354.199219" xlink:href="#DejaVuSans-30"/>
       <use x="417.822266" xlink:href="#DejaVuSans-2d"/>
       <use x="453.90625" xlink:href="#DejaVuSans-32"/>
       <use x="517.529297" xlink:href="#DejaVuSans-32"/>
      </g>
     </g>
    </g>
    <g id="xtick_2">
     <g id="line2d_2">
      <g>
       <use style="stroke:#000000;stroke-width:0.8;" x="180.398601" xlink:href="#mc437112e7a" y="135.36"/>
      </g>
     </g>
     <g id="text_2">
      <!-- 2020-11-19 -->
      <g transform="translate(151.340789 149.958437)scale(0.1 -0.1)">
       <defs>
        <path d="M 703 97 
L 703 672 
Q 941 559 1184 500 
Q 1428 441 1663 441 
Q 2288 441 2617 861 
Q 2947 1281 2994 2138 
Q 2813 1869 2534 1725 
Q 2256 1581 1919 1581 
Q 1219 1581 811 2004 
Q 403 2428 403 3163 
Q 403 3881 828 4315 
Q 1253 4750 1959 4750 
Q 2769 4750 3195 4129 
Q 3622 3509 3622 2328 
Q 3622 1225 3098 567 
Q 2575 -91 1691 -91 
Q 1453 -91 1209 -44 
Q 966 3 703 97 
z
M 1959 2075 
Q 2384 2075 2632 2365 
Q 2881 2656 2881 3163 
Q 2881 3666 2632 3958 
Q 2384 4250 1959 4250 
Q 1534 4250 1286 3958 
Q 1038 3666 1038 3163 
Q 1038 2656 1286 2365 
Q 1534 2075 1959 2075 
z
" id="DejaVuSans-39" transform="scale(0.015625)"/>
       </defs>
       <use xlink:href="#DejaVuSans-32"/>
       <use x="63.623047" xlink:href="#DejaVuSans-30"/>
       <use x="127.246094" xlink:href="#DejaVuSans-32"/>
       <use x="190.869141" xlink:href="#DejaVuSans-30"/>
       <use x="254.492188" xlink:href="#DejaVuSans-2d"/>
       <use x="290.576172" xlink:href="#DejaVuSans-31"/>
       <use x="354.199219" xlink:href="#DejaVuSans-31"/>
       <use x="417.822266" xlink:href="#DejaVuSans-2d"/>
       <use x="453.90625" xlink:href="#DejaVuSans-31"/>
       <use x="517.529297" xlink:href="#DejaVuSans-39"/>
      </g>
     </g>
    </g>
    <g id="xtick_3">
     <g id="line2d_3">
      <g>
       <use style="stroke:#000000;stroke-width:0.8;" x="245.433566" xlink:href="#mc437112e7a" y="135.36"/>
      </g>
     </g>
     <g id="text_3">
      <!-- 2020-12-15 -->
      <g transform="translate(216.375754 149.958437)scale(0.1 -0.1)">
       <defs>
        <path d="M 691 4666 
L 3169 4666 
L 3169 4134 
L 1269 4134 
L 1269 2991 
Q 1406 3038 1543 3061 
Q 1681 3084 1819 3084 
Q 2600 3084 3056 2656 
Q 3513 2228 3513 1497 
Q 3513 744 3044 326 
Q 2575 -91 1722 -91 
Q 1428 -91 1123 -41 
Q 819 9 494 109 
L 494 744 
Q 775 591 1075 516 
Q 1375 441 1709 441 
Q 2250 441 2565 725 
Q 2881 1009 2881 1497 
Q 2881 1984 2565 2268 
Q 2250 2553 1709 2553 
Q 1456 2553 1204 2497 
Q 953 2441 691 2322 
L 691 4666 
z
" id="DejaVuSans-35" transform="scale(0.015625)"/>
       </defs>
       <use xlink:href="#DejaVuSans-32"/>
       <use x="63.623047" xlink:href="#DejaVuSans-30"/>
       <use x="127.246094" xlink:href="#DejaVuSans-32"/>
       <use x="190.869141" xlink:href="#DejaVuSans-30"/>
       <use x="254.492188" xlink:href="#DejaVuSans-2d"/>
       <use x="290.576172" xlink:href="#DejaVuSans-31"/>
       <use x="354.199219" xlink:href="#DejaVuSans-32"/>
       <use x="417.822266" xlink:href="#DejaVuSans-2d"/>
       <use x="453.90625" xlink:href="#DejaVuSans-31"/>
       <use x="517.529297" xlink:href="#DejaVuSans-35"/>
      </g>
     </g>
    </g>
    <g id="xtick_4">
     <g id="line2d_4">
      <g>
       <use style="stroke:#000000;stroke-width:0.8;" x="310.468531" xlink:href="#mc437112e7a" y="135.36"/>
      </g>
     </g>
     <g id="text_4">
      <!-- 2021-01-22 -->
      <g transform="translate(281.410719 149.958437)scale(0.1 -0.1)">
       <use xlink:href="#DejaVuSans-32"/>
       <use x="63.623047" xlink:href="#DejaVuSans-30"/>
       <use x="127.246094" xlink:href="#DejaVuSans-32"/>
       <use x="190.869141" xlink:href="#DejaVuSans-31"/>
       <use x="254.492188" xlink:href="#DejaVuSans-2d"/>
       <use x="290.576172" xlink:href="#DejaVuSans-30"/>
       <use x="354.199219" xlink:href="#DejaVuSans-31"/>
       <use x="417.822266" xlink:href="#DejaVuSans-2d"/>
       <use x="453.90625" xlink:href="#DejaVuSans-32"/>
       <use x="517.529297" xlink:href="#DejaVuSans-32"/>
      </g>
     </g>
    </g>
    <g id="xtick_5">
     <g id="line2d_5">
      <g>
       <use style="stroke:#000000;stroke-width:0.8;" x="375.503497" xlink:href="#mc437112e7a" y="135.36"/>
      </g>
     </g>
     <g id="text_5">
      <!-- 2021-02-23 -->
      <g transform="translate(346.445684 149.958437)scale(0.1 -0.1)">
       <defs>
        <path d="M 2597 2516 
Q 3050 2419 3304 2112 
Q 3559 1806 3559 1356 
Q 3559 666 3084 287 
Q 2609 -91 1734 -91 
Q 1441 -91 1130 -33 
Q 819 25 488 141 
L 488 750 
Q 750 597 1062 519 
Q 1375 441 1716 441 
Q 2309 441 2620 675 
Q 2931 909 2931 1356 
Q 2931 1769 2642 2001 
Q 2353 2234 1838 2234 
L 1294 2234 
L 1294 2753 
L 1863 2753 
Q 2328 2753 2575 2939 
Q 2822 3125 2822 3475 
Q 2822 3834 2567 4026 
Q 2313 4219 1838 4219 
Q 1578 4219 1281 4162 
Q 984 4106 628 3988 
L 628 4550 
Q 988 4650 1302 4700 
Q 1616 4750 1894 4750 
Q 2613 4750 3031 4423 
Q 3450 4097 3450 3541 
Q 3450 3153 3228 2886 
Q 3006 2619 2597 2516 
z
" id="DejaVuSans-33" transform="scale(0.015625)"/>
       </defs>
       <use xlink:href="#DejaVuSans-32"/>
       <use x="63.623047" xlink:href="#DejaVuSans-30"/>
       <use x="127.246094" xlink:href="#DejaVuSans-32"/>
       <use x="190.869141" xlink:href="#DejaVuSans-31"/>
       <use x="254.492188" xlink:href="#DejaVuSans-2d"/>
       <use x="290.576172" xlink:href="#DejaVuSans-30"/>
       <use x="354.199219" xlink:href="#DejaVuSans-32"/>
       <use x="417.822266" xlink:href="#DejaVuSans-2d"/>
       <use x="453.90625" xlink:href="#DejaVuSans-32"/>
       <use x="517.529297" xlink:href="#DejaVuSans-33"/>
      </g>
     </g>
    </g>
    <g id="xtick_6">
     <g id="line2d_6">
      <g>
       <use style="stroke:#000000;stroke-width:0.8;" x="440.538462" xlink:href="#mc437112e7a" y="135.36"/>
      </g>
     </g>
     <g id="text_6">
      <!-- 2021-03-17 -->
      <g transform="translate(411.480649 149.958437)scale(0.1 -0.1)">
       <defs>
        <path d="M 525 4666 
L 3525 4666 
L 3525 4397 
L 1831 0 
L 1172 0 
L 2766 4134 
L 525 4134 
L 525 4666 
z
" id="DejaVuSans-37" transform="scale(0.015625)"/>
       </defs>
       <use xlink:href="#DejaVuSans-32"/>
       <use x="63.623047" xlink:href="#DejaVuSans-30"/>
       <use x="127.246094" xlink:href="#DejaVuSans-32"/>
       <use x="190.869141" xlink:href="#DejaVuSans-31"/>
       <use x="254.492188" xlink:href="#DejaVuSans-2d"/>
       <use x="290.576172" xlink:href="#DejaVuSans-30"/>
       <use x="354.199219" xlink:href="#DejaVuSans-33"/>
       <use x="417.822266" xlink:href="#DejaVuSans-2d"/>
       <use x="453.90625" xlink:href="#DejaVuSans-31"/>
       <use x="517.529297" xlink:href="#DejaVuSans-37"/>
      </g>
     </g>
    </g>
    <g id="xtick_7">
     <g id="line2d_7">
      <g>
       <use style="stroke:#000000;stroke-width:0.8;" x="505.573427" xlink:href="#mc437112e7a" y="135.36"/>
      </g>
     </g>
     <g id="text_7">
      <!-- 2021-04-05 -->
      <g transform="translate(476.515614 149.958437)scale(0.1 -0.1)">
       <defs>
        <path d="M 2419 4116 
L 825 1625 
L 2419 1625 
L 2419 4116 
z
M 2253 4666 
L 3047 4666 
L 3047 1625 
L 3713 1625 
L 3713 1100 
L 3047 1100 
L 3047 0 
L 2419 0 
L 2419 1100 
L 313 1100 
L 313 1709 
L 2253 4666 
z
" id="DejaVuSans-34" transform="scale(0.015625)"/>
       </defs>
       <use xlink:href="#DejaVuSans-32"/>
       <use x="63.623047" xlink:href="#DejaVuSans-30"/>
       <use x="127.246094" xlink:href="#DejaVuSans-32"/>
       <use x="190.869141" xlink:href="#DejaVuSans-31"/>
       <use x="254.492188" xlink:href="#DejaVuSans-2d"/>
       <use x="290.576172" xlink:href="#DejaVuSans-30"/>
       <use x="354.199219" xlink:href="#DejaVuSans-34"/>
       <use x="417.822266" xlink:href="#DejaVuSans-2d"/>
       <use x="453.90625" xlink:href="#DejaVuSans-30"/>
       <use x="517.529297" xlink:href="#DejaVuSans-35"/>
      </g>
     </g>
    </g>
    <g id="xtick_8">
     <g id="line2d_8">
      <g>
       <use style="stroke:#000000;stroke-width:0.8;" x="570.608392" xlink:href="#mc437112e7a" y="135.36"/>
      </g>
     </g>
     <g id="text_8">
      <!-- 2021-04-24 -->
      <g transform="translate(541.550579 149.958437)scale(0.1 -0.1)">
       <use xlink:href="#DejaVuSans-32"/>
       <use x="63.623047" xlink:href="#DejaVuSans-30"/>
       <use x="127.246094" xlink:href="#DejaVuSans-32"/>
       <use x="190.869141" xlink:href="#DejaVuSans-31"/>
       <use x="254.492188" xlink:href="#DejaVuSans-2d"/>
       <use x="290.576172" xlink:href="#DejaVuSans-30"/>
       <use x="354.199219" xlink:href="#DejaVuSans-34"/>
       <use x="417.822266" xlink:href="#DejaVuSans-2d"/>
       <use x="453.90625" xlink:href="#DejaVuSans-32"/>
       <use x="517.529297" xlink:href="#DejaVuSans-34"/>
      </g>
     </g>
    </g>
    <g id="xtick_9">
     <g id="line2d_9">
      <g>
       <use style="stroke:#000000;stroke-width:0.8;" x="635.643357" xlink:href="#mc437112e7a" y="135.36"/>
      </g>
     </g>
    </g>
    <g id="text_9">
     <!-- _date -->
     <g transform="translate(355.225 163.636562)scale(0.1 -0.1)">
      <defs>
       <path d="M 3263 -1063 
L 3263 -1509 
L -63 -1509 
L -63 -1063 
L 3263 -1063 
z
" id="DejaVuSans-5f" transform="scale(0.015625)"/>
       <path d="M 2906 2969 
L 2906 4863 
L 3481 4863 
L 3481 0 
L 2906 0 
L 2906 525 
Q 2725 213 2448 61 
Q 2172 -91 1784 -91 
Q 1150 -91 751 415 
Q 353 922 353 1747 
Q 353 2572 751 3078 
Q 1150 3584 1784 3584 
Q 2172 3584 2448 3432 
Q 2725 3281 2906 2969 
z
M 947 1747 
Q 947 1113 1208 752 
Q 1469 391 1925 391 
Q 2381 391 2643 752 
Q 2906 1113 2906 1747 
Q 2906 2381 2643 2742 
Q 2381 3103 1925 3103 
Q 1469 3103 1208 2742 
Q 947 2381 947 1747 
z
" id="DejaVuSans-64" transform="scale(0.015625)"/>
       <path d="M 2194 1759 
Q 1497 1759 1228 1600 
Q 959 1441 959 1056 
Q 959 750 1161 570 
Q 1363 391 1709 391 
Q 2188 391 2477 730 
Q 2766 1069 2766 1631 
L 2766 1759 
L 2194 1759 
z
M 3341 1997 
L 3341 0 
L 2766 0 
L 2766 531 
Q 2569 213 2275 61 
Q 1981 -91 1556 -91 
Q 1019 -91 701 211 
Q 384 513 384 1019 
Q 384 1609 779 1909 
Q 1175 2209 1959 2209 
L 2766 2209 
L 2766 2266 
Q 2766 2663 2505 2880 
Q 2244 3097 1772 3097 
Q 1472 3097 1187 3025 
Q 903 2953 641 2809 
L 641 3341 
Q 956 3463 1253 3523 
Q 1550 3584 1831 3584 
Q 2591 3584 2966 3190 
Q 3341 2797 3341 1997 
z
" id="DejaVuSans-61" transform="scale(0.015625)"/>
       <path d="M 1172 4494 
L 1172 3500 
L 2356 3500 
L 2356 3053 
L 1172 3053 
L 1172 1153 
Q 1172 725 1289 603 
Q 1406 481 1766 481 
L 2356 481 
L 2356 0 
L 1766 0 
Q 1100 0 847 248 
Q 594 497 594 1153 
L 594 3053 
L 172 3053 
L 172 3500 
L 594 3500 
L 594 4494 
L 1172 4494 
z
" id="DejaVuSans-74" transform="scale(0.015625)"/>
       <path d="M 3597 1894 
L 3597 1613 
L 953 1613 
Q 991 1019 1311 708 
Q 1631 397 2203 397 
Q 2534 397 2845 478 
Q 3156 559 3463 722 
L 3463 178 
Q 3153 47 2828 -22 
Q 2503 -91 2169 -91 
Q 1331 -91 842 396 
Q 353 884 353 1716 
Q 353 2575 817 3079 
Q 1281 3584 2069 3584 
Q 2775 3584 3186 3129 
Q 3597 2675 3597 1894 
z
M 3022 2063 
Q 3016 2534 2758 2815 
Q 2500 3097 2075 3097 
Q 1594 3097 1305 2825 
Q 1016 2553 972 2059 
L 3022 2063 
z
" id="DejaVuSans-65" transform="scale(0.015625)"/>
      </defs>
      <use xlink:href="#DejaVuSans-5f"/>
      <use x="50" xlink:href="#DejaVuSans-64"/>
      <use x="113.476562" xlink:href="#DejaVuSans-61"/>
      <use x="174.755859" xlink:href="#DejaVuSans-74"/>
      <use x="213.964844" xlink:href="#DejaVuSans-65"/>
     </g>
    </g>
   </g>
   <g id="matplotlib.axis_2">
    <g id="ytick_1">
     <g id="line2d_10">
      <defs>
       <path d="M 0 0 
L -3.5 0 
" id="m4d66d2c7e8" style="stroke:#000000;stroke-width:0.8;"/>
      </defs>
      <g>
       <use style="stroke:#000000;stroke-width:0.8;" x="90" xlink:href="#m4d66d2c7e8" y="132.087273"/>
      </g>
     </g>
     <g id="text_10">
      <!-- 0 -->
      <g transform="translate(76.6375 135.886491)scale(0.1 -0.1)">
       <use xlink:href="#DejaVuSans-30"/>
      </g>
     </g>
    </g>
    <g id="ytick_2">
     <g id="line2d_11">
      <g>
       <use style="stroke:#000000;stroke-width:0.8;" x="90" xlink:href="#m4d66d2c7e8" y="105.905455"/>
      </g>
     </g>
     <g id="text_11">
      <!-- 20 -->
      <g transform="translate(70.275 109.704673)scale(0.1 -0.1)">
       <use xlink:href="#DejaVuSans-32"/>
       <use x="63.623047" xlink:href="#DejaVuSans-30"/>
      </g>
     </g>
    </g>
    <g id="ytick_3">
     <g id="line2d_12">
      <g>
       <use style="stroke:#000000;stroke-width:0.8;" x="90" xlink:href="#m4d66d2c7e8" y="79.723636"/>
      </g>
     </g>
     <g id="text_12">
      <!-- 40 -->
      <g transform="translate(70.275 83.522855)scale(0.1 -0.1)">
       <use xlink:href="#DejaVuSans-34"/>
       <use x="63.623047" xlink:href="#DejaVuSans-30"/>
      </g>
     </g>
    </g>
    <g id="ytick_4">
     <g id="line2d_13">
      <g>
       <use style="stroke:#000000;stroke-width:0.8;" x="90" xlink:href="#m4d66d2c7e8" y="53.541818"/>
      </g>
     </g>
     <g id="text_13">
      <!-- 60 -->
      <g transform="translate(70.275 57.341037)scale(0.1 -0.1)">
       <defs>
        <path d="M 2113 2584 
Q 1688 2584 1439 2293 
Q 1191 2003 1191 1497 
Q 1191 994 1439 701 
Q 1688 409 2113 409 
Q 2538 409 2786 701 
Q 3034 994 3034 1497 
Q 3034 2003 2786 2293 
Q 2538 2584 2113 2584 
z
M 3366 4563 
L 3366 3988 
Q 3128 4100 2886 4159 
Q 2644 4219 2406 4219 
Q 1781 4219 1451 3797 
Q 1122 3375 1075 2522 
Q 1259 2794 1537 2939 
Q 1816 3084 2150 3084 
Q 2853 3084 3261 2657 
Q 3669 2231 3669 1497 
Q 3669 778 3244 343 
Q 2819 -91 2113 -91 
Q 1303 -91 875 529 
Q 447 1150 447 2328 
Q 447 3434 972 4092 
Q 1497 4750 2381 4750 
Q 2619 4750 2861 4703 
Q 3103 4656 3366 4563 
z
" id="DejaVuSans-36" transform="scale(0.015625)"/>
       </defs>
       <use xlink:href="#DejaVuSans-36"/>
       <use x="63.623047" xlink:href="#DejaVuSans-30"/>
      </g>
     </g>
    </g>
   </g>
   <g id="line2d_14">
    <path clip-path="url(#pd400edb8a0)" d="M 115.363636 124.232727 
L 118.615385 125.541818 
L 121.867133 130.778182 
L 125.118881 130.778182 
L 128.370629 128.16 
L 131.622378 128.16 
L 134.874126 109.832727 
L 138.125874 109.832727 
L 141.377622 130.778182 
L 144.629371 130.778182 
L 147.881119 117.687273 
L 151.132867 121.614545 
L 154.384615 130.778182 
L 157.636364 124.232727 
L 160.888112 126.850909 
L 164.13986 126.850909 
L 167.391608 130.778182 
L 173.895105 125.541818 
L 177.146853 129.469091 
L 180.398601 130.778182 
L 183.65035 129.469091 
L 186.902098 129.469091 
L 190.153846 128.16 
L 193.405594 129.469091 
L 196.657343 129.469091 
L 199.909091 126.850909 
L 203.160839 129.469091 
L 206.412587 129.469091 
L 209.664336 113.76 
L 212.916084 124.232727 
L 216.167832 129.469091 
L 219.41958 99.36 
L 222.671329 130.778182 
L 248.685315 130.778182 
L 251.937063 129.469091 
L 255.188811 130.778182 
L 277.951049 130.778182 
L 281.202797 126.850909 
L 284.454545 128.16 
L 287.706294 130.778182 
L 290.958042 128.16 
L 294.20979 124.232727 
L 297.461538 129.469091 
L 300.713287 129.469091 
L 303.965035 126.850909 
L 307.216783 109.832727 
L 310.468531 129.469091 
L 313.72028 130.778182 
L 316.972028 129.469091 
L 320.223776 122.923636 
L 323.475524 129.469091 
L 326.727273 128.16 
L 329.979021 118.996364 
L 333.230769 126.850909 
L 336.482517 122.923636 
L 339.734266 129.469091 
L 342.986014 128.16 
L 346.237762 129.469091 
L 349.48951 128.16 
L 355.993007 128.16 
L 359.244755 125.541818 
L 362.496503 130.778182 
L 365.748252 130.778182 
L 369 125.541818 
L 372.251748 125.541818 
L 375.503497 118.996364 
L 378.755245 128.16 
L 382.006993 124.232727 
L 385.258741 130.778182 
L 388.51049 120.305455 
L 391.762238 126.850909 
L 395.013986 128.16 
L 398.265734 126.850909 
L 401.517483 121.614545 
L 404.769231 129.469091 
L 408.020979 125.541818 
L 411.272727 111.141818 
L 414.524476 121.614545 
L 417.776224 109.832727 
L 421.027972 39.141818 
L 424.27972 124.232727 
L 427.531469 130.778182 
L 430.783217 126.850909 
L 434.034965 115.069091 
L 437.286713 117.687273 
L 440.538462 124.232727 
L 443.79021 107.214545 
L 447.041958 126.850909 
L 450.293706 126.850909 
L 453.545455 129.469091 
L 456.797203 113.76 
L 460.048951 117.687273 
L 463.300699 130.778182 
L 466.552448 128.16 
L 469.804196 130.778182 
L 473.055944 125.541818 
L 476.307692 108.523636 
L 479.559441 66.632727 
L 482.811189 67.941818 
L 486.062937 104.596364 
L 489.314685 111.141818 
L 492.566434 124.232727 
L 495.818182 130.778182 
L 499.06993 121.614545 
L 502.321678 126.850909 
L 505.573427 113.76 
L 508.825175 112.450909 
L 512.076923 126.850909 
L 515.328671 115.069091 
L 518.58042 99.36 
L 521.832168 113.76 
L 525.083916 124.232727 
L 528.335664 98.050909 
L 531.587413 99.36 
L 534.839161 98.050909 
L 538.090909 100.669091 
L 541.342657 49.614545 
L 544.594406 81.032727 
L 547.846154 86.269091 
L 551.097902 81.032727 
L 554.34965 82.341818 
L 557.601399 107.214545 
L 560.853147 87.578182 
L 564.104895 105.905455 
L 567.356643 128.16 
L 570.608392 129.469091 
L 573.86014 100.669091 
L 577.111888 98.050909 
L 580.363636 96.741818 
L 583.615385 99.36 
L 586.867133 90.196364 
L 590.118881 78.414545 
L 593.370629 125.541818 
L 596.622378 129.469091 
L 599.874126 100.669091 
L 603.125874 103.287273 
L 606.377622 66.632727 
L 609.629371 99.36 
L 612.881119 100.669091 
L 616.132867 129.469091 
L 619.384615 126.850909 
L 622.636364 96.741818 
L 622.636364 96.741818 
" style="fill:none;stroke:#1f77b4;stroke-linecap:square;stroke-width:1.5;"/>
   </g>
   <g id="line2d_15">
    <path clip-path="url(#pd400edb8a0)" d="M 115.363636 124.232727 
L 118.615385 125.541818 
L 121.867133 130.778182 
L 125.118881 130.778182 
L 128.370629 128.16 
L 131.622378 128.16 
L 134.874126 129.469091 
L 138.125874 125.541818 
L 141.377622 130.778182 
L 144.629371 130.778182 
L 147.881119 117.687273 
L 151.132867 128.16 
L 154.384615 130.778182 
L 157.636364 126.850909 
L 160.888112 126.850909 
L 164.13986 128.16 
L 167.391608 130.778182 
L 170.643357 128.16 
L 173.895105 126.850909 
L 177.146853 129.469091 
L 180.398601 130.778182 
L 183.65035 129.469091 
L 186.902098 130.778182 
L 190.153846 128.16 
L 196.657343 130.778182 
L 199.909091 129.469091 
L 203.160839 130.778182 
L 206.412587 129.469091 
L 209.664336 120.305455 
L 212.916084 124.232727 
L 216.167832 129.469091 
L 219.41958 118.996364 
L 222.671329 130.778182 
L 248.685315 130.778182 
L 251.937063 129.469091 
L 255.188811 130.778182 
L 277.951049 130.778182 
L 281.202797 128.16 
L 284.454545 130.778182 
L 287.706294 130.778182 
L 294.20979 128.16 
L 297.461538 130.778182 
L 303.965035 130.778182 
L 307.216783 117.687273 
L 310.468531 130.778182 
L 313.72028 130.778182 
L 316.972028 129.469091 
L 320.223776 126.850909 
L 323.475524 129.469091 
L 326.727273 128.16 
L 329.979021 122.923636 
L 333.230769 128.16 
L 336.482517 130.778182 
L 339.734266 129.469091 
L 342.986014 130.778182 
L 346.237762 129.469091 
L 349.48951 130.778182 
L 352.741259 128.16 
L 359.244755 128.16 
L 362.496503 130.778182 
L 365.748252 130.778182 
L 375.503497 122.923636 
L 378.755245 128.16 
L 382.006993 125.541818 
L 385.258741 130.778182 
L 388.51049 122.923636 
L 391.762238 126.850909 
L 395.013986 128.16 
L 398.265734 126.850909 
L 401.517483 121.614545 
L 404.769231 129.469091 
L 408.020979 125.541818 
L 411.272727 117.687273 
L 414.524476 122.923636 
L 417.776224 115.069091 
L 421.027972 84.96 
L 424.27972 124.232727 
L 427.531469 130.778182 
L 430.783217 128.16 
L 434.034965 116.378182 
L 440.538462 124.232727 
L 443.79021 112.450909 
L 447.041958 126.850909 
L 450.293706 126.850909 
L 453.545455 129.469091 
L 456.797203 117.687273 
L 460.048951 117.687273 
L 463.300699 130.778182 
L 466.552448 128.16 
L 469.804196 130.778182 
L 473.055944 126.850909 
L 476.307692 111.141818 
L 479.559441 100.669091 
L 482.811189 100.669091 
L 486.062937 113.76 
L 489.314685 117.687273 
L 492.566434 125.541818 
L 495.818182 130.778182 
L 499.06993 124.232727 
L 502.321678 129.469091 
L 505.573427 116.378182 
L 508.825175 116.378182 
L 512.076923 128.16 
L 515.328671 116.378182 
L 518.58042 108.523636 
L 521.832168 115.069091 
L 525.083916 125.541818 
L 528.335664 109.832727 
L 531.587413 109.832727 
L 534.839161 118.996364 
L 538.090909 129.469091 
L 541.342657 111.141818 
L 544.594406 126.850909 
L 547.846154 128.16 
L 551.097902 120.305455 
L 554.34965 120.305455 
L 557.601399 111.141818 
L 560.853147 118.996364 
L 564.104895 130.778182 
L 567.356643 129.469091 
L 570.608392 129.469091 
L 573.86014 130.778182 
L 577.111888 128.16 
L 580.363636 126.850909 
L 583.615385 128.16 
L 590.118881 109.832727 
L 593.370629 125.541818 
L 596.622378 129.469091 
L 599.874126 130.778182 
L 603.125874 126.850909 
L 606.377622 103.287273 
L 609.629371 130.778182 
L 612.881119 128.16 
L 616.132867 129.469091 
L 622.636364 129.469091 
L 622.636364 129.469091 
" style="fill:none;stroke:#ff7f0e;stroke-linecap:square;stroke-width:1.5;"/>
   </g>
   <g id="patch_3">
    <path d="M 90 135.36 
L 90 34.56 
" style="fill:none;stroke:#000000;stroke-linecap:square;stroke-linejoin:miter;stroke-width:0.8;"/>
   </g>
   <g id="patch_4">
    <path d="M 648 135.36 
L 648 34.56 
" style="fill:none;stroke:#000000;stroke-linecap:square;stroke-linejoin:miter;stroke-width:0.8;"/>
   </g>
   <g id="patch_5">
    <path d="M 90 135.36 
L 648 135.36 
" style="fill:none;stroke:#000000;stroke-linecap:square;stroke-linejoin:miter;stroke-width:0.8;"/>
   </g>
   <g id="patch_6">
    <path d="M 90 34.56 
L 648 34.56 
" style="fill:none;stroke:#000000;stroke-linecap:square;stroke-linejoin:miter;stroke-width:0.8;"/>
   </g>
   <g id="legend_1">
    <g id="patch_7">
     <path d="M 97 71.91625 
L 238.8625 71.91625 
Q 240.8625 71.91625 240.8625 69.91625 
L 240.8625 41.56 
Q 240.8625 39.56 238.8625 39.56 
L 97 39.56 
Q 95 39.56 95 41.56 
L 95 69.91625 
Q 95 71.91625 97 71.91625 
z
" style="fill:#ffffff;opacity:0.8;stroke:#cccccc;stroke-linejoin:miter;"/>
    </g>
    <g id="line2d_16">
     <path d="M 99 47.658437 
L 119 47.658437 
" style="fill:none;stroke:#1f77b4;stroke-linecap:square;stroke-width:1.5;"/>
    </g>
    <g id="line2d_17"/>
    <g id="text_14">
     <!-- Total GitHub Clones -->
     <g transform="translate(127 51.158437)scale(0.1 -0.1)">
      <defs>
       <path d="M -19 4666 
L 3928 4666 
L 3928 4134 
L 2272 4134 
L 2272 0 
L 1638 0 
L 1638 4134 
L -19 4134 
L -19 4666 
z
" id="DejaVuSans-54" transform="scale(0.015625)"/>
       <path d="M 1959 3097 
Q 1497 3097 1228 2736 
Q 959 2375 959 1747 
Q 959 1119 1226 758 
Q 1494 397 1959 397 
Q 2419 397 2687 759 
Q 2956 1122 2956 1747 
Q 2956 2369 2687 2733 
Q 2419 3097 1959 3097 
z
M 1959 3584 
Q 2709 3584 3137 3096 
Q 3566 2609 3566 1747 
Q 3566 888 3137 398 
Q 2709 -91 1959 -91 
Q 1206 -91 779 398 
Q 353 888 353 1747 
Q 353 2609 779 3096 
Q 1206 3584 1959 3584 
z
" id="DejaVuSans-6f" transform="scale(0.015625)"/>
       <path d="M 603 4863 
L 1178 4863 
L 1178 0 
L 603 0 
L 603 4863 
z
" id="DejaVuSans-6c" transform="scale(0.015625)"/>
       <path id="DejaVuSans-20" transform="scale(0.015625)"/>
       <path d="M 3809 666 
L 3809 1919 
L 2778 1919 
L 2778 2438 
L 4434 2438 
L 4434 434 
Q 4069 175 3628 42 
Q 3188 -91 2688 -91 
Q 1594 -91 976 548 
Q 359 1188 359 2328 
Q 359 3472 976 4111 
Q 1594 4750 2688 4750 
Q 3144 4750 3555 4637 
Q 3966 4525 4313 4306 
L 4313 3634 
Q 3963 3931 3569 4081 
Q 3175 4231 2741 4231 
Q 1884 4231 1454 3753 
Q 1025 3275 1025 2328 
Q 1025 1384 1454 906 
Q 1884 428 2741 428 
Q 3075 428 3337 486 
Q 3600 544 3809 666 
z
" id="DejaVuSans-47" transform="scale(0.015625)"/>
       <path d="M 603 3500 
L 1178 3500 
L 1178 0 
L 603 0 
L 603 3500 
z
M 603 4863 
L 1178 4863 
L 1178 4134 
L 603 4134 
L 603 4863 
z
" id="DejaVuSans-69" transform="scale(0.015625)"/>
       <path d="M 628 4666 
L 1259 4666 
L 1259 2753 
L 3553 2753 
L 3553 4666 
L 4184 4666 
L 4184 0 
L 3553 0 
L 3553 2222 
L 1259 2222 
L 1259 0 
L 628 0 
L 628 4666 
z
" id="DejaVuSans-48" transform="scale(0.015625)"/>
       <path d="M 544 1381 
L 544 3500 
L 1119 3500 
L 1119 1403 
Q 1119 906 1312 657 
Q 1506 409 1894 409 
Q 2359 409 2629 706 
Q 2900 1003 2900 1516 
L 2900 3500 
L 3475 3500 
L 3475 0 
L 2900 0 
L 2900 538 
Q 2691 219 2414 64 
Q 2138 -91 1772 -91 
Q 1169 -91 856 284 
Q 544 659 544 1381 
z
M 1991 3584 
L 1991 3584 
z
" id="DejaVuSans-75" transform="scale(0.015625)"/>
       <path d="M 3116 1747 
Q 3116 2381 2855 2742 
Q 2594 3103 2138 3103 
Q 1681 3103 1420 2742 
Q 1159 2381 1159 1747 
Q 1159 1113 1420 752 
Q 1681 391 2138 391 
Q 2594 391 2855 752 
Q 3116 1113 3116 1747 
z
M 1159 2969 
Q 1341 3281 1617 3432 
Q 1894 3584 2278 3584 
Q 2916 3584 3314 3078 
Q 3713 2572 3713 1747 
Q 3713 922 3314 415 
Q 2916 -91 2278 -91 
Q 1894 -91 1617 61 
Q 1341 213 1159 525 
L 1159 0 
L 581 0 
L 581 4863 
L 1159 4863 
L 1159 2969 
z
" id="DejaVuSans-62" transform="scale(0.015625)"/>
       <path d="M 4122 4306 
L 4122 3641 
Q 3803 3938 3442 4084 
Q 3081 4231 2675 4231 
Q 1875 4231 1450 3742 
Q 1025 3253 1025 2328 
Q 1025 1406 1450 917 
Q 1875 428 2675 428 
Q 3081 428 3442 575 
Q 3803 722 4122 1019 
L 4122 359 
Q 3791 134 3420 21 
Q 3050 -91 2638 -91 
Q 1578 -91 968 557 
Q 359 1206 359 2328 
Q 359 3453 968 4101 
Q 1578 4750 2638 4750 
Q 3056 4750 3426 4639 
Q 3797 4528 4122 4306 
z
" id="DejaVuSans-43" transform="scale(0.015625)"/>
       <path d="M 3513 2113 
L 3513 0 
L 2938 0 
L 2938 2094 
Q 2938 2591 2744 2837 
Q 2550 3084 2163 3084 
Q 1697 3084 1428 2787 
Q 1159 2491 1159 1978 
L 1159 0 
L 581 0 
L 581 3500 
L 1159 3500 
L 1159 2956 
Q 1366 3272 1645 3428 
Q 1925 3584 2291 3584 
Q 2894 3584 3203 3211 
Q 3513 2838 3513 2113 
z
" id="DejaVuSans-6e" transform="scale(0.015625)"/>
       <path d="M 2834 3397 
L 2834 2853 
Q 2591 2978 2328 3040 
Q 2066 3103 1784 3103 
Q 1356 3103 1142 2972 
Q 928 2841 928 2578 
Q 928 2378 1081 2264 
Q 1234 2150 1697 2047 
L 1894 2003 
Q 2506 1872 2764 1633 
Q 3022 1394 3022 966 
Q 3022 478 2636 193 
Q 2250 -91 1575 -91 
Q 1294 -91 989 -36 
Q 684 19 347 128 
L 347 722 
Q 666 556 975 473 
Q 1284 391 1588 391 
Q 1994 391 2212 530 
Q 2431 669 2431 922 
Q 2431 1156 2273 1281 
Q 2116 1406 1581 1522 
L 1381 1569 
Q 847 1681 609 1914 
Q 372 2147 372 2553 
Q 372 3047 722 3315 
Q 1072 3584 1716 3584 
Q 2034 3584 2315 3537 
Q 2597 3491 2834 3397 
z
" id="DejaVuSans-73" transform="scale(0.015625)"/>
      </defs>
      <use xlink:href="#DejaVuSans-54"/>
      <use x="44.083984" xlink:href="#DejaVuSans-6f"/>
      <use x="105.265625" xlink:href="#DejaVuSans-74"/>
      <use x="144.474609" xlink:href="#DejaVuSans-61"/>
      <use x="205.753906" xlink:href="#DejaVuSans-6c"/>
      <use x="233.537109" xlink:href="#DejaVuSans-20"/>
      <use x="265.324219" xlink:href="#DejaVuSans-47"/>
      <use x="342.814453" xlink:href="#DejaVuSans-69"/>
      <use x="370.597656" xlink:href="#DejaVuSans-74"/>
      <use x="409.806641" xlink:href="#DejaVuSans-48"/>
      <use x="485.001953" xlink:href="#DejaVuSans-75"/>
      <use x="548.380859" xlink:href="#DejaVuSans-62"/>
      <use x="611.857422" xlink:href="#DejaVuSans-20"/>
      <use x="643.644531" xlink:href="#DejaVuSans-43"/>
      <use x="713.46875" xlink:href="#DejaVuSans-6c"/>
      <use x="741.251953" xlink:href="#DejaVuSans-6f"/>
      <use x="802.433594" xlink:href="#DejaVuSans-6e"/>
      <use x="865.8125" xlink:href="#DejaVuSans-65"/>
      <use x="927.335938" xlink:href="#DejaVuSans-73"/>
     </g>
    </g>
    <g id="line2d_18">
     <path d="M 99 62.336562 
L 119 62.336562 
" style="fill:none;stroke:#ff7f0e;stroke-linecap:square;stroke-width:1.5;"/>
    </g>
    <g id="line2d_19"/>
    <g id="text_15">
     <!-- Unique GitHub Clones -->
     <g transform="translate(127 65.836562)scale(0.1 -0.1)">
      <defs>
       <path d="M 556 4666 
L 1191 4666 
L 1191 1831 
Q 1191 1081 1462 751 
Q 1734 422 2344 422 
Q 2950 422 3222 751 
Q 3494 1081 3494 1831 
L 3494 4666 
L 4128 4666 
L 4128 1753 
Q 4128 841 3676 375 
Q 3225 -91 2344 -91 
Q 1459 -91 1007 375 
Q 556 841 556 1753 
L 556 4666 
z
" id="DejaVuSans-55" transform="scale(0.015625)"/>
       <path d="M 947 1747 
Q 947 1113 1208 752 
Q 1469 391 1925 391 
Q 2381 391 2643 752 
Q 2906 1113 2906 1747 
Q 2906 2381 2643 2742 
Q 2381 3103 1925 3103 
Q 1469 3103 1208 2742 
Q 947 2381 947 1747 
z
M 2906 525 
Q 2725 213 2448 61 
Q 2172 -91 1784 -91 
Q 1150 -91 751 415 
Q 353 922 353 1747 
Q 353 2572 751 3078 
Q 1150 3584 1784 3584 
Q 2172 3584 2448 3432 
Q 2725 3281 2906 2969 
L 2906 3500 
L 3481 3500 
L 3481 -1331 
L 2906 -1331 
L 2906 525 
z
" id="DejaVuSans-71" transform="scale(0.015625)"/>
      </defs>
      <use xlink:href="#DejaVuSans-55"/>
      <use x="73.193359" xlink:href="#DejaVuSans-6e"/>
      <use x="136.572266" xlink:href="#DejaVuSans-69"/>
      <use x="164.355469" xlink:href="#DejaVuSans-71"/>
      <use x="227.832031" xlink:href="#DejaVuSans-75"/>
      <use x="291.210938" xlink:href="#DejaVuSans-65"/>
      <use x="352.734375" xlink:href="#DejaVuSans-20"/>
      <use x="384.521484" xlink:href="#DejaVuSans-47"/>
      <use x="462.011719" xlink:href="#DejaVuSans-69"/>
      <use x="489.794922" xlink:href="#DejaVuSans-74"/>
      <use x="529.003906" xlink:href="#DejaVuSans-48"/>
      <use x="604.199219" xlink:href="#DejaVuSans-75"/>
      <use x="667.578125" xlink:href="#DejaVuSans-62"/>
      <use x="731.054688" xlink:href="#DejaVuSans-20"/>
      <use x="762.841797" xlink:href="#DejaVuSans-43"/>
      <use x="832.666016" xlink:href="#DejaVuSans-6c"/>
      <use x="860.449219" xlink:href="#DejaVuSans-6f"/>
      <use x="921.630859" xlink:href="#DejaVuSans-6e"/>
      <use x="985.009766" xlink:href="#DejaVuSans-65"/>
      <use x="1046.533203" xlink:href="#DejaVuSans-73"/>
     </g>
    </g>
   </g>
  </g>
  <g id="axes_2">
   <g id="patch_8">
    <path d="M 90 256.32 
L 648 256.32 
L 648 155.52 
L 90 155.52 
z
" style="fill:#ffffff;"/>
   </g>
   <g id="matplotlib.axis_3">
    <g id="xtick_10">
     <g id="line2d_20">
      <g>
       <use style="stroke:#000000;stroke-width:0.8;" x="115.363636" xlink:href="#mc437112e7a" y="256.32"/>
      </g>
     </g>
     <g id="text_16">
      <!-- 2020-10-21 -->
      <g transform="translate(86.305824 270.918437)scale(0.1 -0.1)">
       <use xlink:href="#DejaVuSans-32"/>
       <use x="63.623047" xlink:href="#DejaVuSans-30"/>
       <use x="127.246094" xlink:href="#DejaVuSans-32"/>
       <use x="190.869141" xlink:href="#DejaVuSans-30"/>
       <use x="254.492188" xlink:href="#DejaVuSans-2d"/>
       <use x="290.576172" xlink:href="#DejaVuSans-31"/>
       <use x="354.199219" xlink:href="#DejaVuSans-30"/>
       <use x="417.822266" xlink:href="#DejaVuSans-2d"/>
       <use x="453.90625" xlink:href="#DejaVuSans-32"/>
       <use x="517.529297" xlink:href="#DejaVuSans-31"/>
      </g>
     </g>
    </g>
    <g id="xtick_11">
     <g id="line2d_21">
      <g>
       <use style="stroke:#000000;stroke-width:0.8;" x="178.457259" xlink:href="#mc437112e7a" y="256.32"/>
      </g>
     </g>
     <g id="text_17">
      <!-- 2020-11-15 -->
      <g transform="translate(149.399447 270.918437)scale(0.1 -0.1)">
       <use xlink:href="#DejaVuSans-32"/>
       <use x="63.623047" xlink:href="#DejaVuSans-30"/>
       <use x="127.246094" xlink:href="#DejaVuSans-32"/>
       <use x="190.869141" xlink:href="#DejaVuSans-30"/>
       <use x="254.492188" xlink:href="#DejaVuSans-2d"/>
       <use x="290.576172" xlink:href="#DejaVuSans-31"/>
       <use x="354.199219" xlink:href="#DejaVuSans-31"/>
       <use x="417.822266" xlink:href="#DejaVuSans-2d"/>
       <use x="453.90625" xlink:href="#DejaVuSans-31"/>
       <use x="517.529297" xlink:href="#DejaVuSans-35"/>
      </g>
     </g>
    </g>
    <g id="xtick_12">
     <g id="line2d_22">
      <g>
       <use style="stroke:#000000;stroke-width:0.8;" x="241.550882" xlink:href="#mc437112e7a" y="256.32"/>
      </g>
     </g>
     <g id="text_18">
      <!-- 2020-12-11 -->
      <g transform="translate(212.493069 270.918437)scale(0.1 -0.1)">
       <use xlink:href="#DejaVuSans-32"/>
       <use x="63.623047" xlink:href="#DejaVuSans-30"/>
       <use x="127.246094" xlink:href="#DejaVuSans-32"/>
       <use x="190.869141" xlink:href="#DejaVuSans-30"/>
       <use x="254.492188" xlink:href="#DejaVuSans-2d"/>
       <use x="290.576172" xlink:href="#DejaVuSans-31"/>
       <use x="354.199219" xlink:href="#DejaVuSans-32"/>
       <use x="417.822266" xlink:href="#DejaVuSans-2d"/>
       <use x="453.90625" xlink:href="#DejaVuSans-31"/>
       <use x="517.529297" xlink:href="#DejaVuSans-31"/>
      </g>
     </g>
    </g>
    <g id="xtick_13">
     <g id="line2d_23">
      <g>
       <use style="stroke:#000000;stroke-width:0.8;" x="304.644505" xlink:href="#mc437112e7a" y="256.32"/>
      </g>
     </g>
     <g id="text_19">
      <!-- 2021-01-06 -->
      <g transform="translate(275.586692 270.918437)scale(0.1 -0.1)">
       <use xlink:href="#DejaVuSans-32"/>
       <use x="63.623047" xlink:href="#DejaVuSans-30"/>
       <use x="127.246094" xlink:href="#DejaVuSans-32"/>
       <use x="190.869141" xlink:href="#DejaVuSans-31"/>
       <use x="254.492188" xlink:href="#DejaVuSans-2d"/>
       <use x="290.576172" xlink:href="#DejaVuSans-30"/>
       <use x="354.199219" xlink:href="#DejaVuSans-31"/>
       <use x="417.822266" xlink:href="#DejaVuSans-2d"/>
       <use x="453.90625" xlink:href="#DejaVuSans-30"/>
       <use x="517.529297" xlink:href="#DejaVuSans-36"/>
      </g>
     </g>
    </g>
    <g id="xtick_14">
     <g id="line2d_24">
      <g>
       <use style="stroke:#000000;stroke-width:0.8;" x="367.738128" xlink:href="#mc437112e7a" y="256.32"/>
      </g>
     </g>
     <g id="text_20">
      <!-- 2021-01-31 -->
      <g transform="translate(338.680315 270.918437)scale(0.1 -0.1)">
       <use xlink:href="#DejaVuSans-32"/>
       <use x="63.623047" xlink:href="#DejaVuSans-30"/>
       <use x="127.246094" xlink:href="#DejaVuSans-32"/>
       <use x="190.869141" xlink:href="#DejaVuSans-31"/>
       <use x="254.492188" xlink:href="#DejaVuSans-2d"/>
       <use x="290.576172" xlink:href="#DejaVuSans-30"/>
       <use x="354.199219" xlink:href="#DejaVuSans-31"/>
       <use x="417.822266" xlink:href="#DejaVuSans-2d"/>
       <use x="453.90625" xlink:href="#DejaVuSans-33"/>
       <use x="517.529297" xlink:href="#DejaVuSans-31"/>
      </g>
     </g>
    </g>
    <g id="xtick_15">
     <g id="line2d_25">
      <g>
       <use style="stroke:#000000;stroke-width:0.8;" x="430.83175" xlink:href="#mc437112e7a" y="256.32"/>
      </g>
     </g>
     <g id="text_21">
      <!-- 2021-02-25 -->
      <g transform="translate(401.773938 270.918437)scale(0.1 -0.1)">
       <use xlink:href="#DejaVuSans-32"/>
       <use x="63.623047" xlink:href="#DejaVuSans-30"/>
       <use x="127.246094" xlink:href="#DejaVuSans-32"/>
       <use x="190.869141" xlink:href="#DejaVuSans-31"/>
       <use x="254.492188" xlink:href="#DejaVuSans-2d"/>
       <use x="290.576172" xlink:href="#DejaVuSans-30"/>
       <use x="354.199219" xlink:href="#DejaVuSans-32"/>
       <use x="417.822266" xlink:href="#DejaVuSans-2d"/>
       <use x="453.90625" xlink:href="#DejaVuSans-32"/>
       <use x="517.529297" xlink:href="#DejaVuSans-35"/>
      </g>
     </g>
    </g>
    <g id="xtick_16">
     <g id="line2d_26">
      <g>
       <use style="stroke:#000000;stroke-width:0.8;" x="493.925373" xlink:href="#mc437112e7a" y="256.32"/>
      </g>
     </g>
     <g id="text_22">
      <!-- 2021-03-22 -->
      <g transform="translate(464.867561 270.918437)scale(0.1 -0.1)">
       <use xlink:href="#DejaVuSans-32"/>
       <use x="63.623047" xlink:href="#DejaVuSans-30"/>
       <use x="127.246094" xlink:href="#DejaVuSans-32"/>
       <use x="190.869141" xlink:href="#DejaVuSans-31"/>
       <use x="254.492188" xlink:href="#DejaVuSans-2d"/>
       <use x="290.576172" xlink:href="#DejaVuSans-30"/>
       <use x="354.199219" xlink:href="#DejaVuSans-33"/>
       <use x="417.822266" xlink:href="#DejaVuSans-2d"/>
       <use x="453.90625" xlink:href="#DejaVuSans-32"/>
       <use x="517.529297" xlink:href="#DejaVuSans-32"/>
      </g>
     </g>
    </g>
    <g id="xtick_17">
     <g id="line2d_27">
      <g>
       <use style="stroke:#000000;stroke-width:0.8;" x="557.018996" xlink:href="#mc437112e7a" y="256.32"/>
      </g>
     </g>
     <g id="text_23">
      <!-- 2021-04-13 -->
      <g transform="translate(527.961183 270.918437)scale(0.1 -0.1)">
       <use xlink:href="#DejaVuSans-32"/>
       <use x="63.623047" xlink:href="#DejaVuSans-30"/>
       <use x="127.246094" xlink:href="#DejaVuSans-32"/>
       <use x="190.869141" xlink:href="#DejaVuSans-31"/>
       <use x="254.492188" xlink:href="#DejaVuSans-2d"/>
       <use x="290.576172" xlink:href="#DejaVuSans-30"/>
       <use x="354.199219" xlink:href="#DejaVuSans-34"/>
       <use x="417.822266" xlink:href="#DejaVuSans-2d"/>
       <use x="453.90625" xlink:href="#DejaVuSans-31"/>
       <use x="517.529297" xlink:href="#DejaVuSans-33"/>
      </g>
     </g>
    </g>
    <g id="xtick_18">
     <g id="line2d_28">
      <g>
       <use style="stroke:#000000;stroke-width:0.8;" x="620.112619" xlink:href="#mc437112e7a" y="256.32"/>
      </g>
     </g>
     <g id="text_24">
      <!-- 2021-05-08 -->
      <g transform="translate(591.054806 270.918437)scale(0.1 -0.1)">
       <defs>
        <path d="M 2034 2216 
Q 1584 2216 1326 1975 
Q 1069 1734 1069 1313 
Q 1069 891 1326 650 
Q 1584 409 2034 409 
Q 2484 409 2743 651 
Q 3003 894 3003 1313 
Q 3003 1734 2745 1975 
Q 2488 2216 2034 2216 
z
M 1403 2484 
Q 997 2584 770 2862 
Q 544 3141 544 3541 
Q 544 4100 942 4425 
Q 1341 4750 2034 4750 
Q 2731 4750 3128 4425 
Q 3525 4100 3525 3541 
Q 3525 3141 3298 2862 
Q 3072 2584 2669 2484 
Q 3125 2378 3379 2068 
Q 3634 1759 3634 1313 
Q 3634 634 3220 271 
Q 2806 -91 2034 -91 
Q 1263 -91 848 271 
Q 434 634 434 1313 
Q 434 1759 690 2068 
Q 947 2378 1403 2484 
z
M 1172 3481 
Q 1172 3119 1398 2916 
Q 1625 2713 2034 2713 
Q 2441 2713 2670 2916 
Q 2900 3119 2900 3481 
Q 2900 3844 2670 4047 
Q 2441 4250 2034 4250 
Q 1625 4250 1398 4047 
Q 1172 3844 1172 3481 
z
" id="DejaVuSans-38" transform="scale(0.015625)"/>
       </defs>
       <use xlink:href="#DejaVuSans-32"/>
       <use x="63.623047" xlink:href="#DejaVuSans-30"/>
       <use x="127.246094" xlink:href="#DejaVuSans-32"/>
       <use x="190.869141" xlink:href="#DejaVuSans-31"/>
       <use x="254.492188" xlink:href="#DejaVuSans-2d"/>
       <use x="290.576172" xlink:href="#DejaVuSans-30"/>
       <use x="354.199219" xlink:href="#DejaVuSans-35"/>
       <use x="417.822266" xlink:href="#DejaVuSans-2d"/>
       <use x="453.90625" xlink:href="#DejaVuSans-30"/>
       <use x="517.529297" xlink:href="#DejaVuSans-38"/>
      </g>
     </g>
    </g>
    <g id="text_25">
     <!-- _date -->
     <g transform="translate(355.225 284.596563)scale(0.1 -0.1)">
      <use xlink:href="#DejaVuSans-5f"/>
      <use x="50" xlink:href="#DejaVuSans-64"/>
      <use x="113.476562" xlink:href="#DejaVuSans-61"/>
      <use x="174.755859" xlink:href="#DejaVuSans-74"/>
      <use x="213.964844" xlink:href="#DejaVuSans-65"/>
     </g>
    </g>
   </g>
   <g id="matplotlib.axis_4">
    <g id="ytick_5">
     <g id="line2d_29">
      <g>
       <use style="stroke:#000000;stroke-width:0.8;" x="90" xlink:href="#m4d66d2c7e8" y="252.029091"/>
      </g>
     </g>
     <g id="text_26">
      <!-- 0 -->
      <g transform="translate(76.6375 255.82831)scale(0.1 -0.1)">
       <use xlink:href="#DejaVuSans-30"/>
      </g>
     </g>
    </g>
    <g id="ytick_6">
     <g id="line2d_30">
      <g>
       <use style="stroke:#000000;stroke-width:0.8;" x="90" xlink:href="#m4d66d2c7e8" y="222.938182"/>
      </g>
     </g>
     <g id="text_27">
      <!-- 100 -->
      <g transform="translate(63.9125 226.737401)scale(0.1 -0.1)">
       <use xlink:href="#DejaVuSans-31"/>
       <use x="63.623047" xlink:href="#DejaVuSans-30"/>
       <use x="127.246094" xlink:href="#DejaVuSans-30"/>
      </g>
     </g>
    </g>
    <g id="ytick_7">
     <g id="line2d_31">
      <g>
       <use style="stroke:#000000;stroke-width:0.8;" x="90" xlink:href="#m4d66d2c7e8" y="193.847273"/>
      </g>
     </g>
     <g id="text_28">
      <!-- 200 -->
      <g transform="translate(63.9125 197.646491)scale(0.1 -0.1)">
       <use xlink:href="#DejaVuSans-32"/>
       <use x="63.623047" xlink:href="#DejaVuSans-30"/>
       <use x="127.246094" xlink:href="#DejaVuSans-30"/>
      </g>
     </g>
    </g>
    <g id="ytick_8">
     <g id="line2d_32">
      <g>
       <use style="stroke:#000000;stroke-width:0.8;" x="90" xlink:href="#m4d66d2c7e8" y="164.756364"/>
      </g>
     </g>
     <g id="text_29">
      <!-- 300 -->
      <g transform="translate(63.9125 168.555582)scale(0.1 -0.1)">
       <use xlink:href="#DejaVuSans-33"/>
       <use x="63.623047" xlink:href="#DejaVuSans-30"/>
       <use x="127.246094" xlink:href="#DejaVuSans-30"/>
      </g>
     </g>
    </g>
   </g>
   <g id="line2d_33">
    <path clip-path="url(#p8cc5f916ff)" d="M 115.363636 251.738182 
L 117.887381 230.210909 
L 120.411126 227.592727 
L 122.934871 244.174545 
L 125.458616 251.447273 
L 127.982361 238.356364 
L 130.506106 238.065455 
L 133.029851 233.992727 
L 135.553596 238.065455 
L 138.077341 238.938182 
L 140.601085 250.574545 
L 143.12483 248.247273 
L 145.648575 247.374545 
L 148.17232 238.938182 
L 150.696065 210.429091 
L 153.21981 225.265455 
L 155.743555 243.592727 
L 158.2673 247.083636 
L 160.791045 251.156364 
L 163.31479 238.065455 
L 165.838535 223.52 
L 168.36228 245.629091 
L 170.886024 243.010909 
L 173.409769 236.32 
L 175.933514 236.32 
L 178.457259 249.701818 
L 180.981004 236.610909 
L 183.504749 232.829091 
L 186.028494 243.301818 
L 188.552239 243.301818 
L 191.075984 238.356364 
L 193.599729 246.792727 
L 196.123474 249.12 
L 198.647218 225.556364 
L 201.170963 248.829091 
L 203.694708 247.956364 
L 206.218453 249.701818 
L 208.742198 247.665455 
L 211.265943 251.447273 
L 213.789688 251.447273 
L 216.313433 227.301818 
L 218.837178 214.210909 
L 221.360923 243.592727 
L 223.884668 245.047273 
L 226.408412 225.847273 
L 228.932157 250.865455 
L 231.455902 244.756364 
L 233.979647 241.265455 
L 236.503392 245.92 
L 239.027137 235.738182 
L 241.550882 246.792727 
L 244.074627 250.865455 
L 246.598372 251.738182 
L 249.122117 243.592727 
L 251.645862 241.847273 
L 254.169607 242.138182 
L 256.693351 240.683636 
L 259.217096 248.829091 
L 261.740841 250.865455 
L 264.264586 250.574545 
L 266.788331 247.083636 
L 269.312076 247.665455 
L 271.835821 242.429091 
L 274.359566 249.992727 
L 276.883311 251.156364 
L 279.407056 251.447273 
L 281.930801 248.247273 
L 284.454545 249.410909 
L 286.97829 250.283636 
L 289.502035 251.738182 
L 292.02578 247.083636 
L 294.549525 247.374545 
L 297.07327 250.865455 
L 299.597015 246.210909 
L 302.12076 242.429091 
L 304.644505 239.810909 
L 307.16825 247.665455 
L 309.691995 248.829091 
L 312.215739 231.956364 
L 314.739484 250.283636 
L 317.263229 233.701818 
L 319.786974 235.447273 
L 322.310719 239.810909 
L 324.834464 233.12 
L 327.358209 246.792727 
L 329.881954 234.574545 
L 332.405699 251.156364 
L 334.929444 233.410909 
L 337.453189 234.865455 
L 339.976934 226.138182 
L 342.500678 232.247273 
L 345.024423 239.810909 
L 347.548168 242.72 
L 350.071913 248.247273 
L 352.595658 228.465455 
L 355.119403 223.810909 
L 357.643148 236.029091 
L 360.166893 234.574545 
L 362.690638 231.956364 
L 365.214383 247.374545 
L 367.738128 248.538182 
L 370.261872 229.629091 
L 372.785617 246.792727 
L 377.833107 232.829091 
L 382.880597 250.865455 
L 385.404342 247.665455 
L 387.928087 235.156364 
L 390.451832 234.574545 
L 392.975577 224.683636 
L 395.499322 241.847273 
L 398.023066 250.283636 
L 400.546811 250.574545 
L 403.070556 249.12 
L 405.594301 242.429091 
L 408.118046 242.72 
L 410.641791 246.792727 
L 413.165536 230.501818 
L 415.689281 248.247273 
L 418.213026 241.847273 
L 420.736771 238.938182 
L 423.260516 240.683636 
L 425.784261 224.974545 
L 428.308005 235.447273 
L 430.83175 234.574545 
L 433.355495 239.810909 
L 435.87924 238.065455 
L 438.402985 239.229091 
L 440.92673 181.92 
L 443.450475 245.629091 
L 445.97422 230.501818 
L 448.497965 234.283636 
L 451.02171 226.429091 
L 453.545455 241.556364 
L 456.069199 198.792727 
L 458.592944 197.047273 
L 461.116689 203.156364 
L 463.640434 228.756364 
L 466.164179 172.029091 
L 468.687924 222.938182 
L 471.211669 245.92 
L 473.735414 245.047273 
L 476.259159 237.192727 
L 478.782904 230.792727 
L 481.306649 227.301818 
L 483.830393 234.283636 
L 486.354138 223.229091 
L 488.877883 243.592727 
L 491.401628 245.629091 
L 493.925373 204.32 
L 496.449118 204.610909 
L 498.972863 232.247273 
L 501.496608 233.992727 
L 504.020353 246.210909 
L 506.544098 248.538182 
L 509.067843 247.956364 
L 511.591588 232.538182 
L 514.115332 182.501818 
L 516.639077 221.192727 
L 519.162822 229.338182 
L 521.686567 233.992727 
L 524.210312 213.338182 
L 526.734057 244.174545 
L 529.257802 248.247273 
L 531.781547 244.756364 
L 534.305292 221.192727 
L 536.829037 238.356364 
L 539.352782 222.647273 
L 541.876526 199.083636 
L 544.400271 233.410909 
L 546.924016 240.974545 
L 549.447761 245.92 
L 551.971506 174.356364 
L 554.495251 175.229091 
L 557.018996 227.010909 
L 559.542741 243.301818 
L 562.066486 234.865455 
L 564.590231 236.32 
L 567.113976 248.829091 
L 569.63772 246.792727 
L 572.161465 185.992727 
L 574.68521 179.010909 
L 577.208955 197.047273 
L 579.7327 242.72 
L 582.256445 249.12 
L 584.78019 236.32 
L 587.303935 247.374545 
L 589.82768 236.029091 
L 592.351425 223.810909 
L 594.87517 160.101818 
L 597.398915 221.483636 
L 599.922659 220.610909 
L 602.446404 225.556364 
L 604.970149 245.338182 
L 607.493894 246.210909 
L 610.017639 219.447273 
L 612.541384 235.738182 
L 615.065129 235.447273 
L 617.588874 225.847273 
L 620.112619 243.010909 
L 622.636364 249.12 
L 622.636364 249.12 
" style="fill:none;stroke:#1f77b4;stroke-linecap:square;stroke-width:1.5;"/>
   </g>
   <g id="line2d_34">
    <path clip-path="url(#p8cc5f916ff)" d="M 115.363636 251.738182 
L 117.887381 249.410909 
L 120.411126 248.247273 
L 122.934871 249.410909 
L 125.458616 251.738182 
L 127.982361 249.992727 
L 130.506106 249.12 
L 133.029851 249.12 
L 135.553596 248.829091 
L 138.077341 249.410909 
L 140.601085 251.447273 
L 150.696065 249.12 
L 153.21981 248.829091 
L 155.743555 249.992727 
L 160.791045 251.738182 
L 163.31479 248.829091 
L 165.838535 249.410909 
L 168.36228 250.574545 
L 170.886024 250.865455 
L 173.409769 250.574545 
L 175.933514 251.447273 
L 178.457259 251.156364 
L 180.981004 249.992727 
L 183.504749 251.156364 
L 186.028494 248.829091 
L 188.552239 249.701818 
L 191.075984 250.283636 
L 193.599729 251.156364 
L 196.123474 251.156364 
L 198.647218 247.374545 
L 201.170963 251.447273 
L 203.694708 251.447273 
L 206.218453 251.156364 
L 211.265943 251.738182 
L 213.789688 251.447273 
L 216.313433 249.410909 
L 218.837178 246.792727 
L 221.360923 248.538182 
L 223.884668 249.992727 
L 226.408412 249.992727 
L 228.932157 251.447273 
L 231.455902 250.283636 
L 233.979647 249.992727 
L 236.503392 250.865455 
L 239.027137 247.665455 
L 241.550882 249.410909 
L 244.074627 251.447273 
L 246.598372 251.738182 
L 249.122117 249.12 
L 254.169607 249.12 
L 256.693351 249.992727 
L 259.217096 250.283636 
L 261.740841 251.156364 
L 264.264586 251.447273 
L 266.788331 250.865455 
L 269.312076 250.574545 
L 271.835821 251.156364 
L 276.883311 251.156364 
L 279.407056 251.447273 
L 281.930801 250.865455 
L 286.97829 250.865455 
L 289.502035 251.738182 
L 292.02578 251.156364 
L 294.549525 251.156364 
L 297.07327 250.865455 
L 299.597015 249.701818 
L 302.12076 247.956364 
L 304.644505 249.992727 
L 307.16825 251.156364 
L 309.691995 250.865455 
L 312.215739 250.865455 
L 314.739484 251.156364 
L 317.263229 249.410909 
L 319.786974 248.538182 
L 322.310719 249.701818 
L 324.834464 246.792727 
L 327.358209 249.701818 
L 329.881954 250.283636 
L 332.405699 251.156364 
L 334.929444 250.574545 
L 337.453189 250.574545 
L 339.976934 248.247273 
L 342.500678 249.410909 
L 345.024423 249.12 
L 347.548168 249.12 
L 350.071913 250.283636 
L 352.595658 245.92 
L 355.119403 247.665455 
L 357.643148 249.12 
L 360.166893 247.374545 
L 362.690638 246.210909 
L 365.214383 250.865455 
L 367.738128 250.574545 
L 370.261872 248.538182 
L 372.785617 249.992727 
L 375.309362 247.956364 
L 377.833107 249.410909 
L 380.356852 249.410909 
L 382.880597 250.865455 
L 385.404342 251.156364 
L 387.928087 248.829091 
L 390.451832 247.956364 
L 392.975577 248.247273 
L 395.499322 250.865455 
L 398.023066 251.447273 
L 403.070556 250.865455 
L 405.594301 250.865455 
L 408.118046 249.410909 
L 410.641791 250.283636 
L 413.165536 248.829091 
L 415.689281 250.865455 
L 418.213026 250.283636 
L 420.736771 250.865455 
L 423.260516 249.12 
L 425.784261 248.829091 
L 428.308005 248.829091 
L 430.83175 247.956364 
L 433.355495 250.283636 
L 435.87924 250.865455 
L 438.402985 250.865455 
L 440.92673 242.138182 
L 443.450475 248.829091 
L 445.97422 248.829091 
L 448.497965 247.374545 
L 451.02171 249.12 
L 453.545455 250.574545 
L 456.069199 250.574545 
L 458.592944 246.210909 
L 461.116689 246.501818 
L 463.640434 248.247273 
L 466.164179 246.501818 
L 468.687924 247.374545 
L 471.211669 249.992727 
L 473.735414 250.865455 
L 476.259159 247.374545 
L 478.782904 245.92 
L 481.306649 247.083636 
L 483.830393 247.374545 
L 486.354138 249.410909 
L 488.877883 251.156364 
L 491.401628 249.992727 
L 493.925373 247.665455 
L 496.449118 247.956364 
L 498.972863 247.665455 
L 501.496608 248.538182 
L 504.020353 250.574545 
L 509.067843 251.156364 
L 511.591588 249.992727 
L 514.115332 246.210909 
L 516.639077 249.410909 
L 519.162822 247.083636 
L 521.686567 248.538182 
L 524.210312 246.792727 
L 526.734057 249.701818 
L 529.257802 251.156364 
L 534.305292 249.410909 
L 536.829037 248.247273 
L 539.352782 248.538182 
L 541.876526 247.374545 
L 544.400271 249.12 
L 546.924016 249.410909 
L 549.447761 250.865455 
L 551.971506 245.338182 
L 554.495251 245.629091 
L 557.018996 247.956364 
L 559.542741 248.829091 
L 562.066486 249.12 
L 564.590231 249.12 
L 567.113976 250.865455 
L 569.63772 250.283636 
L 572.161465 245.629091 
L 574.68521 244.174545 
L 577.208955 246.792727 
L 579.7327 248.829091 
L 582.256445 250.283636 
L 584.78019 249.12 
L 587.303935 250.283636 
L 589.82768 246.210909 
L 592.351425 246.501818 
L 594.87517 228.465455 
L 597.398915 247.956364 
L 599.922659 246.501818 
L 602.446404 250.574545 
L 604.970149 251.738182 
L 607.493894 249.701818 
L 610.017639 248.247273 
L 612.541384 248.247273 
L 615.065129 248.538182 
L 617.588874 247.665455 
L 622.636364 251.156364 
L 622.636364 251.156364 
" style="fill:none;stroke:#ff7f0e;stroke-linecap:square;stroke-width:1.5;"/>
   </g>
   <g id="patch_9">
    <path d="M 90 256.32 
L 90 155.52 
" style="fill:none;stroke:#000000;stroke-linecap:square;stroke-linejoin:miter;stroke-width:0.8;"/>
   </g>
   <g id="patch_10">
    <path d="M 648 256.32 
L 648 155.52 
" style="fill:none;stroke:#000000;stroke-linecap:square;stroke-linejoin:miter;stroke-width:0.8;"/>
   </g>
   <g id="patch_11">
    <path d="M 90 256.32 
L 648 256.32 
" style="fill:none;stroke:#000000;stroke-linecap:square;stroke-linejoin:miter;stroke-width:0.8;"/>
   </g>
   <g id="patch_12">
    <path d="M 90 155.52 
L 648 155.52 
" style="fill:none;stroke:#000000;stroke-linecap:square;stroke-linejoin:miter;stroke-width:0.8;"/>
   </g>
   <g id="legend_2">
    <g id="patch_13">
     <path d="M 97 192.87625 
L 234.217188 192.87625 
Q 236.217188 192.87625 236.217188 190.87625 
L 236.217188 162.52 
Q 236.217188 160.52 234.217188 160.52 
L 97 160.52 
Q 95 160.52 95 162.52 
L 95 190.87625 
Q 95 192.87625 97 192.87625 
z
" style="fill:#ffffff;opacity:0.8;stroke:#cccccc;stroke-linejoin:miter;"/>
    </g>
    <g id="line2d_35">
     <path d="M 99 168.618437 
L 119 168.618437 
" style="fill:none;stroke:#1f77b4;stroke-linecap:square;stroke-width:1.5;"/>
    </g>
    <g id="line2d_36"/>
    <g id="text_30">
     <!-- Total GitHub Views -->
     <g transform="translate(127 172.118437)scale(0.1 -0.1)">
      <defs>
       <path d="M 1831 0 
L 50 4666 
L 709 4666 
L 2188 738 
L 3669 4666 
L 4325 4666 
L 2547 0 
L 1831 0 
z
" id="DejaVuSans-56" transform="scale(0.015625)"/>
       <path d="M 269 3500 
L 844 3500 
L 1563 769 
L 2278 3500 
L 2956 3500 
L 3675 769 
L 4391 3500 
L 4966 3500 
L 4050 0 
L 3372 0 
L 2619 2869 
L 1863 0 
L 1184 0 
L 269 3500 
z
" id="DejaVuSans-77" transform="scale(0.015625)"/>
      </defs>
      <use xlink:href="#DejaVuSans-54"/>
      <use x="44.083984" xlink:href="#DejaVuSans-6f"/>
      <use x="105.265625" xlink:href="#DejaVuSans-74"/>
      <use x="144.474609" xlink:href="#DejaVuSans-61"/>
      <use x="205.753906" xlink:href="#DejaVuSans-6c"/>
      <use x="233.537109" xlink:href="#DejaVuSans-20"/>
      <use x="265.324219" xlink:href="#DejaVuSans-47"/>
      <use x="342.814453" xlink:href="#DejaVuSans-69"/>
      <use x="370.597656" xlink:href="#DejaVuSans-74"/>
      <use x="409.806641" xlink:href="#DejaVuSans-48"/>
      <use x="485.001953" xlink:href="#DejaVuSans-75"/>
      <use x="548.380859" xlink:href="#DejaVuSans-62"/>
      <use x="611.857422" xlink:href="#DejaVuSans-20"/>
      <use x="643.644531" xlink:href="#DejaVuSans-56"/>
      <use x="709.802734" xlink:href="#DejaVuSans-69"/>
      <use x="737.585938" xlink:href="#DejaVuSans-65"/>
      <use x="799.109375" xlink:href="#DejaVuSans-77"/>
      <use x="880.896484" xlink:href="#DejaVuSans-73"/>
     </g>
    </g>
    <g id="line2d_37">
     <path d="M 99 183.296562 
L 119 183.296562 
" style="fill:none;stroke:#ff7f0e;stroke-linecap:square;stroke-width:1.5;"/>
    </g>
    <g id="line2d_38"/>
    <g id="text_31">
     <!-- Unique GitHub Views -->
     <g transform="translate(127 186.796562)scale(0.1 -0.1)">
      <use xlink:href="#DejaVuSans-55"/>
      <use x="73.193359" xlink:href="#DejaVuSans-6e"/>
      <use x="136.572266" xlink:href="#DejaVuSans-69"/>
      <use x="164.355469" xlink:href="#DejaVuSans-71"/>
      <use x="227.832031" xlink:href="#DejaVuSans-75"/>
      <use x="291.210938" xlink:href="#DejaVuSans-65"/>
      <use x="352.734375" xlink:href="#DejaVuSans-20"/>
      <use x="384.521484" xlink:href="#DejaVuSans-47"/>
      <use x="462.011719" xlink:href="#DejaVuSans-69"/>
      <use x="489.794922" xlink:href="#DejaVuSans-74"/>
      <use x="529.003906" xlink:href="#DejaVuSans-48"/>
      <use x="604.199219" xlink:href="#DejaVuSans-75"/>
      <use x="667.578125" xlink:href="#DejaVuSans-62"/>
      <use x="731.054688" xlink:href="#DejaVuSans-20"/>
      <use x="762.841797" xlink:href="#DejaVuSans-56"/>
      <use x="829" xlink:href="#DejaVuSans-69"/>
      <use x="856.783203" xlink:href="#DejaVuSans-65"/>
      <use x="918.306641" xlink:href="#DejaVuSans-77"/>
      <use x="1000.09375" xlink:href="#DejaVuSans-73"/>
     </g>
    </g>
   </g>
  </g>
 </g>
 <defs>
  <clipPath id="pd400edb8a0">
   <rect height="100.8" width="558" x="90" y="34.56"/>
  </clipPath>
  <clipPath id="p8cc5f916ff">
   <rect height="100.8" width="558" x="90" y="155.52"/>
  </clipPath>
 </defs>
</svg>
