<?xml version="1.0" encoding="utf-8" standalone="no"?>
<!DOCTYPE svg PUBLIC "-//W3C//DTD SVG 1.1//EN"
  "http://www.w3.org/Graphics/SVG/1.1/DTD/svg11.dtd">
<svg xmlns:xlink="http://www.w3.org/1999/xlink" width="720pt" height="288pt" viewBox="0 0 720 288" xmlns="http://www.w3.org/2000/svg" version="1.1">
 <metadata>
  <rdf:RDF xmlns:dc="http://purl.org/dc/elements/1.1/" xmlns:cc="http://creativecommons.org/ns#" xmlns:rdf="http://www.w3.org/1999/02/22-rdf-syntax-ns#">
   <cc:Work>
    <dc:type rdf:resource="http://purl.org/dc/dcmitype/StillImage"/>
    <dc:date>2022-03-07T00:36:19.850115</dc:date>
    <dc:format>image/svg+xml</dc:format>
    <dc:creator>
     <cc:Agent>
      <dc:title>Matplotlib v3.5.1, https://matplotlib.org/</dc:title>
     </cc:Agent>
    </dc:creator>
   </cc:Work>
  </rdf:RDF>
 </metadata>
 <defs>
  <style type="text/css">*{stroke-linejoin: round; stroke-linecap: butt}</style>
 </defs>
 <g id="figure_1">
  <g id="patch_1">
   <path d="M 0 288 
L 720 288 
L 720 0 
L 0 0 
z
" style="fill: #ffffff"/>
  </g>
  <g id="axes_1">
   <g id="patch_2">
    <path d="M 90 135.36 
L 648 135.36 
L 648 34.56 
L 90 34.56 
z
" style="fill: #ffffff"/>
   </g>
   <g id="matplotlib.axis_1">
    <g id="xtick_1">
     <g id="line2d_1">
      <defs>
       <path id="ma750bdd6f7" d="M 0 0 
L 0 3.5 
" style="stroke: #000000; stroke-width: 0.8"/>
      </defs>
      <g>
       <use xlink:href="#ma750bdd6f7" x="115.363636" y="135.36" style="stroke: #000000; stroke-width: 0.8"/>
      </g>
     </g>
     <g id="text_1">
      <!-- 2020-10-22 -->
      <g transform="translate(86.305824 149.958437)scale(0.1 -0.1)">
       <defs>
        <path id="DejaVuSans-32" d="M 1228 531 
L 3431 531 
L 3431 0 
L 469 0 
L 469 531 
Q 828 903 1448 1529 
Q 2069 2156 2228 2338 
Q 2531 2678 2651 2914 
Q 2772 3150 2772 3378 
Q 2772 3750 2511 3984 
Q 2250 4219 1831 4219 
Q 1534 4219 1204 4116 
Q 875 4013 500 3803 
L 500 4441 
Q 881 4594 1212 4672 
Q 1544 4750 1819 4750 
Q 2544 4750 2975 4387 
Q 3406 4025 3406 3419 
Q 3406 3131 3298 2873 
Q 3191 2616 2906 2266 
Q 2828 2175 2409 1742 
Q 1991 1309 1228 531 
z
" transform="scale(0.015625)"/>
        <path id="DejaVuSans-30" d="M 2034 4250 
Q 1547 4250 1301 3770 
Q 1056 3291 1056 2328 
Q 1056 1369 1301 889 
Q 1547 409 2034 409 
Q 2525 409 2770 889 
Q 3016 1369 3016 2328 
Q 3016 3291 2770 3770 
Q 2525 4250 2034 4250 
z
M 2034 4750 
Q 2819 4750 3233 4129 
Q 3647 3509 3647 2328 
Q 3647 1150 3233 529 
Q 2819 -91 2034 -91 
Q 1250 -91 836 529 
Q 422 1150 422 2328 
Q 422 3509 836 4129 
Q 1250 4750 2034 4750 
z
" transform="scale(0.015625)"/>
        <path id="DejaVuSans-2d" d="M 313 2009 
L 1997 2009 
L 1997 1497 
L 313 1497 
L 313 2009 
z
" transform="scale(0.015625)"/>
        <path id="DejaVuSans-31" d="M 794 531 
L 1825 531 
L 1825 4091 
L 703 3866 
L 703 4441 
L 1819 4666 
L 2450 4666 
L 2450 531 
L 3481 531 
L 3481 0 
L 794 0 
L 794 531 
z
" transform="scale(0.015625)"/>
       </defs>
       <use xlink:href="#DejaVuSans-32"/>
       <use xlink:href="#DejaVuSans-30" x="63.623047"/>
       <use xlink:href="#DejaVuSans-32" x="127.246094"/>
       <use xlink:href="#DejaVuSans-30" x="190.869141"/>
       <use xlink:href="#DejaVuSans-2d" x="254.492188"/>
       <use xlink:href="#DejaVuSans-31" x="290.576172"/>
       <use xlink:href="#DejaVuSans-30" x="354.199219"/>
       <use xlink:href="#DejaVuSans-2d" x="417.822266"/>
       <use xlink:href="#DejaVuSans-32" x="453.90625"/>
       <use xlink:href="#DejaVuSans-32" x="517.529297"/>
      </g>
     </g>
    </g>
    <g id="xtick_2">
     <g id="line2d_2">
      <g>
       <use xlink:href="#ma750bdd6f7" x="179.413223" y="135.36" style="stroke: #000000; stroke-width: 0.8"/>
      </g>
     </g>
     <g id="text_2">
      <!-- 2021-01-05 -->
      <g transform="translate(150.355411 149.958437)scale(0.1 -0.1)">
       <defs>
        <path id="DejaVuSans-35" d="M 691 4666 
L 3169 4666 
L 3169 4134 
L 1269 4134 
L 1269 2991 
Q 1406 3038 1543 3061 
Q 1681 3084 1819 3084 
Q 2600 3084 3056 2656 
Q 3513 2228 3513 1497 
Q 3513 744 3044 326 
Q 2575 -91 1722 -91 
Q 1428 -91 1123 -41 
Q 819 9 494 109 
L 494 744 
Q 775 591 1075 516 
Q 1375 441 1709 441 
Q 2250 441 2565 725 
Q 2881 1009 2881 1497 
Q 2881 1984 2565 2268 
Q 2250 2553 1709 2553 
Q 1456 2553 1204 2497 
Q 953 2441 691 2322 
L 691 4666 
z
" transform="scale(0.015625)"/>
       </defs>
       <use xlink:href="#DejaVuSans-32"/>
       <use xlink:href="#DejaVuSans-30" x="63.623047"/>
       <use xlink:href="#DejaVuSans-32" x="127.246094"/>
       <use xlink:href="#DejaVuSans-31" x="190.869141"/>
       <use xlink:href="#DejaVuSans-2d" x="254.492188"/>
       <use xlink:href="#DejaVuSans-30" x="290.576172"/>
       <use xlink:href="#DejaVuSans-31" x="354.199219"/>
       <use xlink:href="#DejaVuSans-2d" x="417.822266"/>
       <use xlink:href="#DejaVuSans-30" x="453.90625"/>
       <use xlink:href="#DejaVuSans-35" x="517.529297"/>
      </g>
     </g>
    </g>
    <g id="xtick_3">
     <g id="line2d_3">
      <g>
       <use xlink:href="#ma750bdd6f7" x="243.46281" y="135.36" style="stroke: #000000; stroke-width: 0.8"/>
      </g>
     </g>
     <g id="text_3">
      <!-- 2021-03-17 -->
      <g transform="translate(214.404997 149.958437)scale(0.1 -0.1)">
       <defs>
        <path id="DejaVuSans-33" d="M 2597 2516 
Q 3050 2419 3304 2112 
Q 3559 1806 3559 1356 
Q 3559 666 3084 287 
Q 2609 -91 1734 -91 
Q 1441 -91 1130 -33 
Q 819 25 488 141 
L 488 750 
Q 750 597 1062 519 
Q 1375 441 1716 441 
Q 2309 441 2620 675 
Q 2931 909 2931 1356 
Q 2931 1769 2642 2001 
Q 2353 2234 1838 2234 
L 1294 2234 
L 1294 2753 
L 1863 2753 
Q 2328 2753 2575 2939 
Q 2822 3125 2822 3475 
Q 2822 3834 2567 4026 
Q 2313 4219 1838 4219 
Q 1578 4219 1281 4162 
Q 984 4106 628 3988 
L 628 4550 
Q 988 4650 1302 4700 
Q 1616 4750 1894 4750 
Q 2613 4750 3031 4423 
Q 3450 4097 3450 3541 
Q 3450 3153 3228 2886 
Q 3006 2619 2597 2516 
z
" transform="scale(0.015625)"/>
        <path id="DejaVuSans-37" d="M 525 4666 
L 3525 4666 
L 3525 4397 
L 1831 0 
L 1172 0 
L 2766 4134 
L 525 4134 
L 525 4666 
z
" transform="scale(0.015625)"/>
       </defs>
       <use xlink:href="#DejaVuSans-32"/>
       <use xlink:href="#DejaVuSans-30" x="63.623047"/>
       <use xlink:href="#DejaVuSans-32" x="127.246094"/>
       <use xlink:href="#DejaVuSans-31" x="190.869141"/>
       <use xlink:href="#DejaVuSans-2d" x="254.492188"/>
       <use xlink:href="#DejaVuSans-30" x="290.576172"/>
       <use xlink:href="#DejaVuSans-33" x="354.199219"/>
       <use xlink:href="#DejaVuSans-2d" x="417.822266"/>
       <use xlink:href="#DejaVuSans-31" x="453.90625"/>
       <use xlink:href="#DejaVuSans-37" x="517.529297"/>
      </g>
     </g>
    </g>
    <g id="xtick_4">
     <g id="line2d_4">
      <g>
       <use xlink:href="#ma750bdd6f7" x="307.512397" y="135.36" style="stroke: #000000; stroke-width: 0.8"/>
      </g>
     </g>
     <g id="text_4">
      <!-- 2021-05-10 -->
      <g transform="translate(278.454584 149.958437)scale(0.1 -0.1)">
       <use xlink:href="#DejaVuSans-32"/>
       <use xlink:href="#DejaVuSans-30" x="63.623047"/>
       <use xlink:href="#DejaVuSans-32" x="127.246094"/>
       <use xlink:href="#DejaVuSans-31" x="190.869141"/>
       <use xlink:href="#DejaVuSans-2d" x="254.492188"/>
       <use xlink:href="#DejaVuSans-30" x="290.576172"/>
       <use xlink:href="#DejaVuSans-35" x="354.199219"/>
       <use xlink:href="#DejaVuSans-2d" x="417.822266"/>
       <use xlink:href="#DejaVuSans-31" x="453.90625"/>
       <use xlink:href="#DejaVuSans-30" x="517.529297"/>
      </g>
     </g>
    </g>
    <g id="xtick_5">
     <g id="line2d_5">
      <g>
       <use xlink:href="#ma750bdd6f7" x="371.561983" y="135.36" style="stroke: #000000; stroke-width: 0.8"/>
      </g>
     </g>
     <g id="text_5">
      <!-- 2021-07-07 -->
      <g transform="translate(342.504171 149.958437)scale(0.1 -0.1)">
       <use xlink:href="#DejaVuSans-32"/>
       <use xlink:href="#DejaVuSans-30" x="63.623047"/>
       <use xlink:href="#DejaVuSans-32" x="127.246094"/>
       <use xlink:href="#DejaVuSans-31" x="190.869141"/>
       <use xlink:href="#DejaVuSans-2d" x="254.492188"/>
       <use xlink:href="#DejaVuSans-30" x="290.576172"/>
       <use xlink:href="#DejaVuSans-37" x="354.199219"/>
       <use xlink:href="#DejaVuSans-2d" x="417.822266"/>
       <use xlink:href="#DejaVuSans-30" x="453.90625"/>
       <use xlink:href="#DejaVuSans-37" x="517.529297"/>
      </g>
     </g>
    </g>
    <g id="xtick_6">
     <g id="line2d_6">
      <g>
       <use xlink:href="#ma750bdd6f7" x="435.61157" y="135.36" style="stroke: #000000; stroke-width: 0.8"/>
      </g>
     </g>
     <g id="text_6">
      <!-- 2021-09-13 -->
      <g transform="translate(406.553758 149.958437)scale(0.1 -0.1)">
       <defs>
        <path id="DejaVuSans-39" d="M 703 97 
L 703 672 
Q 941 559 1184 500 
Q 1428 441 1663 441 
Q 2288 441 2617 861 
Q 2947 1281 2994 2138 
Q 2813 1869 2534 1725 
Q 2256 1581 1919 1581 
Q 1219 1581 811 2004 
Q 403 2428 403 3163 
Q 403 3881 828 4315 
Q 1253 4750 1959 4750 
Q 2769 4750 3195 4129 
Q 3622 3509 3622 2328 
Q 3622 1225 3098 567 
Q 2575 -91 1691 -91 
Q 1453 -91 1209 -44 
Q 966 3 703 97 
z
M 1959 2075 
Q 2384 2075 2632 2365 
Q 2881 2656 2881 3163 
Q 2881 3666 2632 3958 
Q 2384 4250 1959 4250 
Q 1534 4250 1286 3958 
Q 1038 3666 1038 3163 
Q 1038 2656 1286 2365 
Q 1534 2075 1959 2075 
z
" transform="scale(0.015625)"/>
       </defs>
       <use xlink:href="#DejaVuSans-32"/>
       <use xlink:href="#DejaVuSans-30" x="63.623047"/>
       <use xlink:href="#DejaVuSans-32" x="127.246094"/>
       <use xlink:href="#DejaVuSans-31" x="190.869141"/>
       <use xlink:href="#DejaVuSans-2d" x="254.492188"/>
       <use xlink:href="#DejaVuSans-30" x="290.576172"/>
       <use xlink:href="#DejaVuSans-39" x="354.199219"/>
       <use xlink:href="#DejaVuSans-2d" x="417.822266"/>
       <use xlink:href="#DejaVuSans-31" x="453.90625"/>
       <use xlink:href="#DejaVuSans-33" x="517.529297"/>
      </g>
     </g>
    </g>
    <g id="xtick_7">
     <g id="line2d_7">
      <g>
       <use xlink:href="#ma750bdd6f7" x="499.661157" y="135.36" style="stroke: #000000; stroke-width: 0.8"/>
      </g>
     </g>
     <g id="text_7">
      <!-- 2021-11-16 -->
      <g transform="translate(470.603345 149.958437)scale(0.1 -0.1)">
       <defs>
        <path id="DejaVuSans-36" d="M 2113 2584 
Q 1688 2584 1439 2293 
Q 1191 2003 1191 1497 
Q 1191 994 1439 701 
Q 1688 409 2113 409 
Q 2538 409 2786 701 
Q 3034 994 3034 1497 
Q 3034 2003 2786 2293 
Q 2538 2584 2113 2584 
z
M 3366 4563 
L 3366 3988 
Q 3128 4100 2886 4159 
Q 2644 4219 2406 4219 
Q 1781 4219 1451 3797 
Q 1122 3375 1075 2522 
Q 1259 2794 1537 2939 
Q 1816 3084 2150 3084 
Q 2853 3084 3261 2657 
Q 3669 2231 3669 1497 
Q 3669 778 3244 343 
Q 2819 -91 2113 -91 
Q 1303 -91 875 529 
Q 447 1150 447 2328 
Q 447 3434 972 4092 
Q 1497 4750 2381 4750 
Q 2619 4750 2861 4703 
Q 3103 4656 3366 4563 
z
" transform="scale(0.015625)"/>
       </defs>
       <use xlink:href="#DejaVuSans-32"/>
       <use xlink:href="#DejaVuSans-30" x="63.623047"/>
       <use xlink:href="#DejaVuSans-32" x="127.246094"/>
       <use xlink:href="#DejaVuSans-31" x="190.869141"/>
       <use xlink:href="#DejaVuSans-2d" x="254.492188"/>
       <use xlink:href="#DejaVuSans-31" x="290.576172"/>
       <use xlink:href="#DejaVuSans-31" x="354.199219"/>
       <use xlink:href="#DejaVuSans-2d" x="417.822266"/>
       <use xlink:href="#DejaVuSans-31" x="453.90625"/>
       <use xlink:href="#DejaVuSans-36" x="517.529297"/>
      </g>
     </g>
    </g>
    <g id="xtick_8">
     <g id="line2d_8">
      <g>
       <use xlink:href="#ma750bdd6f7" x="563.710744" y="135.36" style="stroke: #000000; stroke-width: 0.8"/>
      </g>
     </g>
     <g id="text_8">
      <!-- 2022-01-15 -->
      <g transform="translate(534.652931 149.958437)scale(0.1 -0.1)">
       <use xlink:href="#DejaVuSans-32"/>
       <use xlink:href="#DejaVuSans-30" x="63.623047"/>
       <use xlink:href="#DejaVuSans-32" x="127.246094"/>
       <use xlink:href="#DejaVuSans-32" x="190.869141"/>
       <use xlink:href="#DejaVuSans-2d" x="254.492188"/>
       <use xlink:href="#DejaVuSans-30" x="290.576172"/>
       <use xlink:href="#DejaVuSans-31" x="354.199219"/>
       <use xlink:href="#DejaVuSans-2d" x="417.822266"/>
       <use xlink:href="#DejaVuSans-31" x="453.90625"/>
       <use xlink:href="#DejaVuSans-35" x="517.529297"/>
      </g>
     </g>
    </g>
    <g id="xtick_9">
     <g id="line2d_9">
      <g>
       <use xlink:href="#ma750bdd6f7" x="627.760331" y="135.36" style="stroke: #000000; stroke-width: 0.8"/>
      </g>
     </g>
    </g>
    <g id="text_9">
     <!-- _date -->
     <g transform="translate(355.225 163.636562)scale(0.1 -0.1)">
      <defs>
       <path id="DejaVuSans-5f" d="M 3263 -1063 
L 3263 -1509 
L -63 -1509 
L -63 -1063 
L 3263 -1063 
z
" transform="scale(0.015625)"/>
       <path id="DejaVuSans-64" d="M 2906 2969 
L 2906 4863 
L 3481 4863 
L 3481 0 
L 2906 0 
L 2906 525 
Q 2725 213 2448 61 
Q 2172 -91 1784 -91 
Q 1150 -91 751 415 
Q 353 922 353 1747 
Q 353 2572 751 3078 
Q 1150 3584 1784 3584 
Q 2172 3584 2448 3432 
Q 2725 3281 2906 2969 
z
M 947 1747 
Q 947 1113 1208 752 
Q 1469 391 1925 391 
Q 2381 391 2643 752 
Q 2906 1113 2906 1747 
Q 2906 2381 2643 2742 
Q 2381 3103 1925 3103 
Q 1469 3103 1208 2742 
Q 947 2381 947 1747 
z
" transform="scale(0.015625)"/>
       <path id="DejaVuSans-61" d="M 2194 1759 
Q 1497 1759 1228 1600 
Q 959 1441 959 1056 
Q 959 750 1161 570 
Q 1363 391 1709 391 
Q 2188 391 2477 730 
Q 2766 1069 2766 1631 
L 2766 1759 
L 2194 1759 
z
M 3341 1997 
L 3341 0 
L 2766 0 
L 2766 531 
Q 2569 213 2275 61 
Q 1981 -91 1556 -91 
Q 1019 -91 701 211 
Q 384 513 384 1019 
Q 384 1609 779 1909 
Q 1175 2209 1959 2209 
L 2766 2209 
L 2766 2266 
Q 2766 2663 2505 2880 
Q 2244 3097 1772 3097 
Q 1472 3097 1187 3025 
Q 903 2953 641 2809 
L 641 3341 
Q 956 3463 1253 3523 
Q 1550 3584 1831 3584 
Q 2591 3584 2966 3190 
Q 3341 2797 3341 1997 
z
" transform="scale(0.015625)"/>
       <path id="DejaVuSans-74" d="M 1172 4494 
L 1172 3500 
L 2356 3500 
L 2356 3053 
L 1172 3053 
L 1172 1153 
Q 1172 725 1289 603 
Q 1406 481 1766 481 
L 2356 481 
L 2356 0 
L 1766 0 
Q 1100 0 847 248 
Q 594 497 594 1153 
L 594 3053 
L 172 3053 
L 172 3500 
L 594 3500 
L 594 4494 
L 1172 4494 
z
" transform="scale(0.015625)"/>
       <path id="DejaVuSans-65" d="M 3597 1894 
L 3597 1613 
L 953 1613 
Q 991 1019 1311 708 
Q 1631 397 2203 397 
Q 2534 397 2845 478 
Q 3156 559 3463 722 
L 3463 178 
Q 3153 47 2828 -22 
Q 2503 -91 2169 -91 
Q 1331 -91 842 396 
Q 353 884 353 1716 
Q 353 2575 817 3079 
Q 1281 3584 2069 3584 
Q 2775 3584 3186 3129 
Q 3597 2675 3597 1894 
z
M 3022 2063 
Q 3016 2534 2758 2815 
Q 2500 3097 2075 3097 
Q 1594 3097 1305 2825 
Q 1016 2553 972 2059 
L 3022 2063 
z
" transform="scale(0.015625)"/>
      </defs>
      <use xlink:href="#DejaVuSans-5f"/>
      <use xlink:href="#DejaVuSans-64" x="50"/>
      <use xlink:href="#DejaVuSans-61" x="113.476562"/>
      <use xlink:href="#DejaVuSans-74" x="174.755859"/>
      <use xlink:href="#DejaVuSans-65" x="213.964844"/>
     </g>
    </g>
   </g>
   <g id="matplotlib.axis_2">
    <g id="ytick_1">
     <g id="line2d_10">
      <defs>
       <path id="mdce5442357" d="M 0 0 
L -3.5 0 
" style="stroke: #000000; stroke-width: 0.8"/>
      </defs>
      <g>
       <use xlink:href="#mdce5442357" x="90" y="131.401558" style="stroke: #000000; stroke-width: 0.8"/>
      </g>
     </g>
     <g id="text_10">
      <!-- 0 -->
      <g transform="translate(76.6375 135.200777)scale(0.1 -0.1)">
       <use xlink:href="#DejaVuSans-30"/>
      </g>
     </g>
    </g>
    <g id="ytick_2">
     <g id="line2d_11">
      <g>
       <use xlink:href="#mdce5442357" x="90" y="100.232727" style="stroke: #000000; stroke-width: 0.8"/>
      </g>
     </g>
     <g id="text_11">
      <!-- 50 -->
      <g transform="translate(70.275 104.031946)scale(0.1 -0.1)">
       <use xlink:href="#DejaVuSans-35"/>
       <use xlink:href="#DejaVuSans-30" x="63.623047"/>
      </g>
     </g>
    </g>
    <g id="ytick_3">
     <g id="line2d_12">
      <g>
       <use xlink:href="#mdce5442357" x="90" y="69.063896" style="stroke: #000000; stroke-width: 0.8"/>
      </g>
     </g>
     <g id="text_12">
      <!-- 100 -->
      <g transform="translate(63.9125 72.863115)scale(0.1 -0.1)">
       <use xlink:href="#DejaVuSans-31"/>
       <use xlink:href="#DejaVuSans-30" x="63.623047"/>
       <use xlink:href="#DejaVuSans-30" x="127.246094"/>
      </g>
     </g>
    </g>
    <g id="ytick_4">
     <g id="line2d_13">
      <g>
       <use xlink:href="#mdce5442357" x="90" y="37.895065" style="stroke: #000000; stroke-width: 0.8"/>
      </g>
     </g>
     <g id="text_13">
      <!-- 150 -->
      <g transform="translate(63.9125 41.694284)scale(0.1 -0.1)">
       <use xlink:href="#DejaVuSans-31"/>
       <use xlink:href="#DejaVuSans-35" x="63.623047"/>
       <use xlink:href="#DejaVuSans-30" x="127.246094"/>
      </g>
     </g>
    </g>
   </g>
   <g id="line2d_14">
    <path d="M 115.363636 127.661299 
L 116.644628 128.284675 
L 117.92562 130.778182 
L 119.206612 130.778182 
L 120.487603 129.531429 
L 121.768595 129.531429 
L 123.049587 120.804156 
L 124.330579 120.804156 
L 125.61157 130.778182 
L 126.892562 130.778182 
L 128.173554 124.544416 
L 129.454545 126.414545 
L 130.735537 130.778182 
L 132.016529 127.661299 
L 133.297521 128.908052 
L 134.578512 128.908052 
L 135.859504 130.778182 
L 138.421488 128.284675 
L 139.702479 130.154805 
L 140.983471 130.778182 
L 142.264463 130.154805 
L 143.545455 130.154805 
L 144.826446 129.531429 
L 146.107438 130.154805 
L 147.38843 130.154805 
L 148.669421 128.908052 
L 149.950413 130.154805 
L 151.231405 130.154805 
L 152.512397 122.674286 
L 153.793388 127.661299 
L 155.07438 130.154805 
L 156.355372 115.817143 
L 157.636364 130.778182 
L 167.884298 130.778182 
L 169.165289 130.154805 
L 170.446281 130.778182 
L 179.413223 130.778182 
L 180.694215 128.908052 
L 181.975207 129.531429 
L 183.256198 130.778182 
L 184.53719 129.531429 
L 185.818182 127.661299 
L 187.099174 130.154805 
L 188.380165 130.154805 
L 189.661157 128.908052 
L 190.942149 120.804156 
L 192.22314 130.154805 
L 193.504132 130.778182 
L 194.785124 130.154805 
L 196.066116 127.037922 
L 197.347107 130.154805 
L 198.628099 129.531429 
L 199.909091 125.167792 
L 201.190083 128.908052 
L 202.471074 127.037922 
L 203.752066 130.154805 
L 205.033058 129.531429 
L 206.31405 130.154805 
L 207.595041 129.531429 
L 210.157025 129.531429 
L 211.438017 128.284675 
L 212.719008 130.778182 
L 214 130.778182 
L 215.280992 128.284675 
L 216.561983 128.284675 
L 217.842975 125.167792 
L 219.123967 129.531429 
L 220.404959 127.661299 
L 221.68595 130.778182 
L 222.966942 125.791169 
L 224.247934 128.908052 
L 225.528926 129.531429 
L 226.809917 128.908052 
L 228.090909 126.414545 
L 229.371901 130.154805 
L 230.652893 128.284675 
L 231.933884 121.427532 
L 233.214876 126.414545 
L 234.495868 120.804156 
L 235.77686 87.141818 
L 237.057851 127.661299 
L 238.338843 130.778182 
L 239.619835 128.908052 
L 240.900826 123.297662 
L 242.181818 124.544416 
L 243.46281 127.661299 
L 244.743802 119.557403 
L 246.024793 128.908052 
L 247.305785 128.908052 
L 248.586777 130.154805 
L 249.867769 122.674286 
L 251.14876 124.544416 
L 252.429752 130.778182 
L 253.710744 129.531429 
L 254.991736 130.778182 
L 256.272727 128.284675 
L 257.553719 100.232727 
L 258.834711 118.310649 
L 260.115702 121.427532 
L 261.396694 127.661299 
L 262.677686 130.778182 
L 263.958678 126.414545 
L 265.239669 128.908052 
L 266.520661 122.050909 
L 267.801653 128.908052 
L 269.082645 123.297662 
L 270.363636 115.817143 
L 271.644628 122.674286 
L 272.92562 127.661299 
L 274.206612 115.193766 
L 275.487603 115.193766 
L 276.768595 116.440519 
L 278.049587 92.128831 
L 279.330579 107.08987 
L 280.61157 107.08987 
L 281.892562 119.557403 
L 283.173554 110.206753 
L 284.454545 118.934026 
L 285.735537 129.531429 
L 287.016529 130.154805 
L 288.297521 116.440519 
L 289.578512 114.57039 
L 290.859504 115.817143 
L 292.140496 111.453506 
L 293.421488 105.843117 
L 294.702479 128.284675 
L 295.983471 130.154805 
L 297.264463 116.440519 
L 298.545455 117.687273 
L 299.826446 100.232727 
L 301.107438 115.817143 
L 302.38843 116.440519 
L 303.669421 130.154805 
L 304.950413 128.908052 
L 306.231405 114.57039 
L 307.512397 102.102857 
L 308.793388 117.063896 
L 310.07438 113.323636 
L 311.355372 95.245714 
L 312.636364 117.063896 
L 313.917355 130.154805 
L 315.198347 114.57039 
L 316.479339 105.843117 
L 317.760331 102.726234 
L 319.041322 108.96 
L 320.322314 111.453506 
L 321.603306 129.531429 
L 322.884298 115.193766 
L 324.165289 108.336623 
L 325.446281 115.817143 
L 326.727273 115.193766 
L 328.008264 113.947013 
L 329.289256 125.791169 
L 330.570248 115.817143 
L 331.85124 113.323636 
L 333.132231 115.817143 
L 334.413223 116.440519 
L 335.694215 116.440519 
L 336.975207 130.778182 
L 338.256198 130.778182 
L 339.53719 115.193766 
L 340.818182 112.076883 
L 342.099174 115.193766 
L 343.380165 102.726234 
L 344.661157 105.843117 
L 345.942149 130.778182 
L 347.22314 115.817143 
L 348.504132 113.947013 
L 349.785124 113.323636 
L 351.066116 112.076883 
L 352.347107 117.063896 
L 353.628099 130.154805 
L 354.909091 114.57039 
L 356.190083 110.83013 
L 357.471074 105.21974 
L 358.752066 104.596364 
L 360.033058 39.141818 
L 362.595041 130.778182 
L 363.876033 118.310649 
L 365.157025 117.063896 
L 366.438017 124.544416 
L 367.719008 130.778182 
L 369 130.154805 
L 370.280992 123.297662 
L 371.561983 125.167792 
L 372.842975 130.154805 
L 374.123967 128.908052 
L 375.404959 130.154805 
L 376.68595 130.778182 
L 377.966942 130.154805 
L 379.247934 130.778182 
L 380.528926 130.778182 
L 381.809917 128.908052 
L 383.090909 129.531429 
L 384.371901 130.778182 
L 388.214876 130.778182 
L 389.495868 128.284675 
L 390.77686 130.154805 
L 392.057851 130.778182 
L 393.338843 130.154805 
L 394.619835 127.037922 
L 395.900826 130.778182 
L 397.181818 117.063896 
L 398.46281 129.531429 
L 399.743802 130.778182 
L 402.305785 129.531429 
L 403.586777 130.778182 
L 404.867769 130.154805 
L 406.14876 130.778182 
L 407.429752 128.908052 
L 408.710744 130.154805 
L 409.991736 129.531429 
L 411.272727 130.778182 
L 413.834711 130.778182 
L 416.396694 129.531429 
L 417.677686 127.037922 
L 418.958678 130.154805 
L 420.239669 130.154805 
L 421.520661 124.544416 
L 422.801653 122.050909 
L 424.082645 130.778182 
L 426.644628 130.778182 
L 429.206612 129.531429 
L 430.487603 130.154805 
L 431.768595 125.167792 
L 433.049587 113.323636 
L 434.330579 127.661299 
L 435.61157 110.206753 
L 436.892562 126.414545 
L 438.173554 130.154805 
L 439.454545 130.778182 
L 442.016529 130.778182 
L 443.297521 130.154805 
L 444.578512 130.778182 
L 445.859504 130.778182 
L 447.140496 128.284675 
L 448.421488 98.362597 
L 449.702479 117.063896 
L 450.983471 129.531429 
L 452.264463 122.674286 
L 453.545455 98.985974 
L 454.826446 96.492468 
L 456.107438 90.882078 
L 457.38843 103.972987 
L 458.669421 120.804156 
L 459.950413 122.674286 
L 461.231405 130.778182 
L 462.512397 125.791169 
L 463.793388 130.778182 
L 465.07438 130.778182 
L 466.355372 122.050909 
L 467.636364 129.531429 
L 468.917355 97.739221 
L 470.198347 122.674286 
L 471.479339 95.869091 
L 472.760331 123.297662 
L 474.041322 128.284675 
L 475.322314 121.427532 
L 476.603306 93.998961 
L 477.884298 120.804156 
L 479.165289 122.674286 
L 480.446281 129.531429 
L 481.727273 130.778182 
L 483.008264 130.778182 
L 484.289256 129.531429 
L 485.570248 126.414545 
L 486.85124 123.921039 
L 488.132231 122.674286 
L 489.413223 130.778182 
L 490.694215 130.778182 
L 491.975207 120.180779 
L 493.256198 115.817143 
L 494.53719 130.778182 
L 495.818182 129.531429 
L 497.099174 130.778182 
L 498.380165 125.167792 
L 499.661157 129.531429 
L 500.942149 130.778182 
L 502.22314 130.154805 
L 503.504132 128.908052 
L 504.785124 128.908052 
L 506.066116 106.466494 
L 507.347107 128.908052 
L 508.628099 128.908052 
L 509.909091 120.804156 
L 511.190083 105.21974 
L 512.471074 123.297662 
L 513.752066 123.297662 
L 515.033058 129.531429 
L 516.31405 120.180779 
L 517.595041 120.804156 
L 518.876033 103.34961 
L 520.157025 63.453506 
L 521.438017 123.297662 
L 522.719008 113.323636 
L 524 130.778182 
L 525.280992 104.596364 
L 526.561983 99.609351 
L 527.842975 127.037922 
L 529.123967 117.063896 
L 530.404959 130.778182 
L 531.68595 130.778182 
L 532.966942 100.856104 
L 534.247934 130.778182 
L 535.528926 98.985974 
L 536.809917 130.154805 
L 538.090909 120.804156 
L 539.371901 130.778182 
L 541.933884 130.778182 
L 543.214876 129.531429 
L 544.495868 130.154805 
L 545.77686 128.908052 
L 547.057851 130.778182 
L 548.338843 122.674286 
L 549.619835 122.050909 
L 550.900826 117.063896 
L 552.181818 93.998961 
L 553.46281 124.544416 
L 554.743802 130.154805 
L 556.024793 116.440519 
L 557.305785 115.193766 
L 558.586777 130.154805 
L 559.867769 125.791169 
L 561.14876 120.180779 
L 562.429752 122.674286 
L 563.710744 127.661299 
L 564.991736 130.154805 
L 566.272727 127.037922 
L 567.553719 128.284675 
L 568.834711 115.817143 
L 570.115702 128.284675 
L 571.396694 122.674286 
L 572.677686 125.167792 
L 573.958678 130.778182 
L 575.239669 75.921039 
L 576.520661 75.297662 
L 577.801653 117.687273 
L 579.082645 97.115844 
L 580.363636 122.050909 
L 581.644628 78.414545 
L 582.92562 130.778182 
L 584.206612 118.934026 
L 585.487603 109.583377 
L 586.768595 108.96 
L 588.049587 99.609351 
L 589.330579 108.96 
L 590.61157 125.791169 
L 591.892562 130.778182 
L 593.173554 108.96 
L 594.454545 110.206753 
L 595.735537 87.765195 
L 597.016529 90.882078 
L 598.297521 130.778182 
L 599.578512 122.674286 
L 600.859504 128.908052 
L 602.140496 94.622338 
L 603.421488 95.869091 
L 604.702479 128.908052 
L 605.983471 130.778182 
L 608.545455 130.778182 
L 609.826446 128.908052 
L 611.107438 128.284675 
L 612.38843 128.908052 
L 613.669421 124.544416 
L 614.950413 127.037922 
L 616.231405 123.921039 
L 617.512397 112.70026 
L 618.793388 130.154805 
L 620.07438 79.037922 
L 621.355372 123.297662 
L 622.636364 122.050909 
L 622.636364 122.050909 
" clip-path="url(#p208ee58b81)" style="fill: none; stroke: #1f77b4; stroke-width: 1.5; stroke-linecap: square"/>
   </g>
   <g id="line2d_15">
    <path d="M 115.363636 127.661299 
L 116.644628 128.284675 
L 117.92562 130.778182 
L 119.206612 130.778182 
L 120.487603 129.531429 
L 121.768595 129.531429 
L 123.049587 130.154805 
L 124.330579 128.284675 
L 125.61157 130.778182 
L 126.892562 130.778182 
L 128.173554 124.544416 
L 129.454545 129.531429 
L 130.735537 130.778182 
L 132.016529 128.908052 
L 133.297521 128.908052 
L 134.578512 129.531429 
L 135.859504 130.778182 
L 137.140496 129.531429 
L 138.421488 128.908052 
L 139.702479 130.154805 
L 140.983471 130.778182 
L 142.264463 130.154805 
L 143.545455 130.778182 
L 144.826446 129.531429 
L 147.38843 130.778182 
L 148.669421 130.154805 
L 149.950413 130.778182 
L 151.231405 130.154805 
L 152.512397 125.791169 
L 153.793388 127.661299 
L 155.07438 130.154805 
L 156.355372 125.167792 
L 157.636364 130.778182 
L 167.884298 130.778182 
L 169.165289 130.154805 
L 170.446281 130.778182 
L 179.413223 130.778182 
L 180.694215 129.531429 
L 181.975207 130.778182 
L 183.256198 130.778182 
L 185.818182 129.531429 
L 187.099174 130.778182 
L 189.661157 130.778182 
L 190.942149 124.544416 
L 192.22314 130.778182 
L 193.504132 130.778182 
L 194.785124 130.154805 
L 196.066116 128.908052 
L 197.347107 130.154805 
L 198.628099 129.531429 
L 199.909091 127.037922 
L 201.190083 129.531429 
L 202.471074 130.778182 
L 203.752066 130.154805 
L 205.033058 130.778182 
L 206.31405 130.154805 
L 207.595041 130.778182 
L 208.876033 129.531429 
L 211.438017 129.531429 
L 212.719008 130.778182 
L 214 130.778182 
L 217.842975 127.037922 
L 219.123967 129.531429 
L 220.404959 128.284675 
L 221.68595 130.778182 
L 222.966942 127.037922 
L 224.247934 128.908052 
L 225.528926 129.531429 
L 226.809917 128.908052 
L 228.090909 126.414545 
L 229.371901 130.154805 
L 230.652893 128.284675 
L 231.933884 124.544416 
L 233.214876 127.037922 
L 234.495868 123.297662 
L 235.77686 108.96 
L 237.057851 127.661299 
L 238.338843 130.778182 
L 239.619835 129.531429 
L 240.900826 123.921039 
L 243.46281 127.661299 
L 244.743802 122.050909 
L 246.024793 128.908052 
L 247.305785 128.908052 
L 248.586777 130.154805 
L 249.867769 124.544416 
L 251.14876 124.544416 
L 252.429752 130.778182 
L 253.710744 129.531429 
L 254.991736 130.778182 
L 256.272727 128.908052 
L 257.553719 116.440519 
L 258.834711 122.674286 
L 260.115702 124.544416 
L 261.396694 128.284675 
L 262.677686 130.778182 
L 263.958678 127.661299 
L 265.239669 130.154805 
L 266.520661 123.921039 
L 267.801653 129.531429 
L 269.082645 123.921039 
L 270.363636 120.180779 
L 271.644628 123.297662 
L 272.92562 128.284675 
L 274.206612 120.804156 
L 275.487603 125.167792 
L 276.768595 130.154805 
L 278.049587 121.427532 
L 279.330579 128.908052 
L 280.61157 125.791169 
L 281.892562 121.427532 
L 283.173554 125.167792 
L 284.454545 130.778182 
L 285.735537 130.154805 
L 287.016529 130.154805 
L 288.297521 130.778182 
L 289.578512 128.908052 
L 290.859504 129.531429 
L 293.421488 120.804156 
L 294.702479 128.284675 
L 295.983471 130.154805 
L 297.264463 130.778182 
L 298.545455 128.908052 
L 299.826446 117.687273 
L 301.107438 130.778182 
L 302.38843 129.531429 
L 303.669421 130.154805 
L 306.231405 130.154805 
L 307.512397 118.934026 
L 308.793388 128.908052 
L 310.07438 127.037922 
L 311.355372 115.817143 
L 312.636364 120.180779 
L 313.917355 130.154805 
L 315.198347 130.778182 
L 316.479339 125.791169 
L 317.760331 129.531429 
L 319.041322 128.908052 
L 320.322314 130.154805 
L 321.603306 130.154805 
L 322.884298 130.778182 
L 324.165289 123.921039 
L 325.446281 130.778182 
L 326.727273 130.154805 
L 328.008264 128.908052 
L 329.289256 127.037922 
L 330.570248 130.778182 
L 331.85124 128.908052 
L 333.132231 130.778182 
L 334.413223 129.531429 
L 335.694215 129.531429 
L 336.975207 130.778182 
L 339.53719 130.778182 
L 340.818182 127.661299 
L 342.099174 130.778182 
L 343.380165 128.908052 
L 344.661157 125.791169 
L 345.942149 130.778182 
L 347.22314 130.778182 
L 348.504132 130.154805 
L 349.785124 128.908052 
L 353.628099 130.778182 
L 354.909091 130.154805 
L 356.190083 126.414545 
L 357.471074 126.414545 
L 358.752066 127.661299 
L 360.033058 130.778182 
L 361.31405 121.427532 
L 362.595041 130.778182 
L 363.876033 130.154805 
L 365.157025 126.414545 
L 366.438017 125.791169 
L 367.719008 130.778182 
L 369 130.154805 
L 370.280992 123.297662 
L 371.561983 126.414545 
L 372.842975 130.154805 
L 374.123967 128.908052 
L 375.404959 130.778182 
L 376.68595 130.778182 
L 377.966942 130.154805 
L 379.247934 130.778182 
L 380.528926 130.778182 
L 381.809917 128.908052 
L 383.090909 129.531429 
L 384.371901 130.778182 
L 388.214876 130.778182 
L 389.495868 128.284675 
L 390.77686 130.154805 
L 392.057851 130.778182 
L 393.338843 130.154805 
L 394.619835 127.661299 
L 395.900826 130.778182 
L 397.181818 130.778182 
L 398.46281 129.531429 
L 399.743802 130.778182 
L 402.305785 129.531429 
L 403.586777 130.778182 
L 404.867769 130.154805 
L 406.14876 130.778182 
L 407.429752 128.908052 
L 408.710744 130.154805 
L 409.991736 129.531429 
L 411.272727 130.778182 
L 413.834711 130.778182 
L 416.396694 129.531429 
L 417.677686 127.037922 
L 418.958678 130.154805 
L 420.239669 130.778182 
L 421.520661 124.544416 
L 422.801653 123.921039 
L 424.082645 130.778182 
L 426.644628 130.778182 
L 429.206612 129.531429 
L 430.487603 130.778182 
L 431.768595 125.791169 
L 433.049587 122.050909 
L 434.330579 130.154805 
L 435.61157 121.427532 
L 436.892562 127.661299 
L 438.173554 130.778182 
L 442.016529 130.778182 
L 443.297521 130.154805 
L 444.578512 130.778182 
L 445.859504 130.778182 
L 447.140496 128.284675 
L 448.421488 114.57039 
L 449.702479 119.557403 
L 450.983471 129.531429 
L 452.264463 123.921039 
L 453.545455 114.57039 
L 454.826446 112.076883 
L 456.107438 112.076883 
L 457.38843 119.557403 
L 458.669421 121.427532 
L 459.950413 124.544416 
L 461.231405 130.778182 
L 462.512397 126.414545 
L 463.793388 130.778182 
L 465.07438 130.778182 
L 466.355372 123.297662 
L 467.636364 129.531429 
L 468.917355 122.674286 
L 470.198347 128.284675 
L 471.479339 126.414545 
L 472.760331 130.154805 
L 474.041322 130.778182 
L 475.322314 128.284675 
L 476.603306 121.427532 
L 477.884298 125.791169 
L 479.165289 126.414545 
L 480.446281 130.154805 
L 481.727273 130.778182 
L 483.008264 130.778182 
L 484.289256 129.531429 
L 485.570248 128.908052 
L 486.85124 127.037922 
L 488.132231 127.037922 
L 489.413223 130.778182 
L 490.694215 130.778182 
L 491.975207 125.167792 
L 493.256198 123.921039 
L 494.53719 130.778182 
L 495.818182 129.531429 
L 497.099174 130.778182 
L 498.380165 127.661299 
L 499.661157 129.531429 
L 500.942149 130.778182 
L 502.22314 130.154805 
L 503.504132 128.908052 
L 504.785124 128.908052 
L 506.066116 122.050909 
L 507.347107 128.908052 
L 508.628099 129.531429 
L 509.909091 126.414545 
L 511.190083 120.180779 
L 512.471074 126.414545 
L 513.752066 127.037922 
L 515.033058 130.154805 
L 516.31405 126.414545 
L 517.595041 127.037922 
L 520.157025 112.70026 
L 521.438017 127.661299 
L 522.719008 123.921039 
L 524 130.778182 
L 525.280992 120.804156 
L 526.561983 117.063896 
L 527.842975 128.284675 
L 529.123967 123.921039 
L 530.404959 130.778182 
L 531.68595 130.778182 
L 532.966942 120.180779 
L 534.247934 130.778182 
L 535.528926 116.440519 
L 536.809917 130.154805 
L 538.090909 125.791169 
L 539.371901 130.778182 
L 541.933884 130.778182 
L 543.214876 130.154805 
L 544.495868 130.778182 
L 545.77686 130.154805 
L 547.057851 130.778182 
L 548.338843 126.414545 
L 549.619835 126.414545 
L 550.900826 124.544416 
L 552.181818 117.063896 
L 553.46281 127.661299 
L 554.743802 130.778182 
L 556.024793 123.297662 
L 557.305785 122.674286 
L 558.586777 130.154805 
L 561.14876 126.414545 
L 562.429752 127.661299 
L 563.710744 128.284675 
L 564.991736 130.778182 
L 566.272727 127.661299 
L 567.553719 128.908052 
L 568.834711 122.674286 
L 570.115702 129.531429 
L 571.396694 127.037922 
L 572.677686 127.661299 
L 573.958678 130.778182 
L 575.239669 110.206753 
L 576.520661 110.206753 
L 577.801653 123.921039 
L 579.082645 118.310649 
L 580.363636 126.414545 
L 581.644628 112.076883 
L 582.92562 130.778182 
L 584.206612 130.154805 
L 585.487603 118.934026 
L 586.768595 118.934026 
L 588.049587 117.063896 
L 589.330579 118.934026 
L 590.61157 128.284675 
L 591.892562 130.778182 
L 593.173554 121.427532 
L 594.454545 122.674286 
L 595.735537 113.947013 
L 597.016529 113.323636 
L 598.297521 130.778182 
L 599.578512 127.037922 
L 600.859504 130.778182 
L 602.140496 117.063896 
L 603.421488 117.063896 
L 604.702479 129.531429 
L 605.983471 130.778182 
L 608.545455 130.778182 
L 609.826446 129.531429 
L 611.107438 128.908052 
L 612.38843 130.154805 
L 613.669421 127.661299 
L 614.950413 128.908052 
L 616.231405 127.661299 
L 617.512397 121.427532 
L 618.793388 130.154805 
L 620.07438 112.076883 
L 621.355372 126.414545 
L 622.636364 125.791169 
L 622.636364 125.791169 
" clip-path="url(#p208ee58b81)" style="fill: none; stroke: #ff7f0e; stroke-width: 1.5; stroke-linecap: square"/>
   </g>
   <g id="patch_3">
    <path d="M 90 135.36 
L 90 34.56 
" style="fill: none; stroke: #000000; stroke-width: 0.8; stroke-linejoin: miter; stroke-linecap: square"/>
   </g>
   <g id="patch_4">
    <path d="M 648 135.36 
L 648 34.56 
" style="fill: none; stroke: #000000; stroke-width: 0.8; stroke-linejoin: miter; stroke-linecap: square"/>
   </g>
   <g id="patch_5">
    <path d="M 90 135.36 
L 648 135.36 
" style="fill: none; stroke: #000000; stroke-width: 0.8; stroke-linejoin: miter; stroke-linecap: square"/>
   </g>
   <g id="patch_6">
    <path d="M 90 34.56 
L 648 34.56 
" style="fill: none; stroke: #000000; stroke-width: 0.8; stroke-linejoin: miter; stroke-linecap: square"/>
   </g>
   <g id="legend_1">
    <g id="patch_7">
     <path d="M 97 71.91625 
L 238.8625 71.91625 
Q 240.8625 71.91625 240.8625 69.91625 
L 240.8625 41.56 
Q 240.8625 39.56 238.8625 39.56 
L 97 39.56 
Q 95 39.56 95 41.56 
L 95 69.91625 
Q 95 71.91625 97 71.91625 
z
" style="fill: #ffffff; opacity: 0.8; stroke: #cccccc; stroke-linejoin: miter"/>
    </g>
    <g id="line2d_16">
     <path d="M 99 47.658437 
L 109 47.658437 
L 119 47.658437 
" style="fill: none; stroke: #1f77b4; stroke-width: 1.5; stroke-linecap: square"/>
    </g>
    <g id="text_14">
     <!-- Total GitHub Clones -->
     <g transform="translate(127 51.158437)scale(0.1 -0.1)">
      <defs>
       <path id="DejaVuSans-54" d="M -19 4666 
L 3928 4666 
L 3928 4134 
L 2272 4134 
L 2272 0 
L 1638 0 
L 1638 4134 
L -19 4134 
L -19 4666 
z
" transform="scale(0.015625)"/>
       <path id="DejaVuSans-6f" d="M 1959 3097 
Q 1497 3097 1228 2736 
Q 959 2375 959 1747 
Q 959 1119 1226 758 
Q 1494 397 1959 397 
Q 2419 397 2687 759 
Q 2956 1122 2956 1747 
Q 2956 2369 2687 2733 
Q 2419 3097 1959 3097 
z
M 1959 3584 
Q 2709 3584 3137 3096 
Q 3566 2609 3566 1747 
Q 3566 888 3137 398 
Q 2709 -91 1959 -91 
Q 1206 -91 779 398 
Q 353 888 353 1747 
Q 353 2609 779 3096 
Q 1206 3584 1959 3584 
z
" transform="scale(0.015625)"/>
       <path id="DejaVuSans-6c" d="M 603 4863 
L 1178 4863 
L 1178 0 
L 603 0 
L 603 4863 
z
" transform="scale(0.015625)"/>
       <path id="DejaVuSans-20" transform="scale(0.015625)"/>
       <path id="DejaVuSans-47" d="M 3809 666 
L 3809 1919 
L 2778 1919 
L 2778 2438 
L 4434 2438 
L 4434 434 
Q 4069 175 3628 42 
Q 3188 -91 2688 -91 
Q 1594 -91 976 548 
Q 359 1188 359 2328 
Q 359 3472 976 4111 
Q 1594 4750 2688 4750 
Q 3144 4750 3555 4637 
Q 3966 4525 4313 4306 
L 4313 3634 
Q 3963 3931 3569 4081 
Q 3175 4231 2741 4231 
Q 1884 4231 1454 3753 
Q 1025 3275 1025 2328 
Q 1025 1384 1454 906 
Q 1884 428 2741 428 
Q 3075 428 3337 486 
Q 3600 544 3809 666 
z
" transform="scale(0.015625)"/>
       <path id="DejaVuSans-69" d="M 603 3500 
L 1178 3500 
L 1178 0 
L 603 0 
L 603 3500 
z
M 603 4863 
L 1178 4863 
L 1178 4134 
L 603 4134 
L 603 4863 
z
" transform="scale(0.015625)"/>
       <path id="DejaVuSans-48" d="M 628 4666 
L 1259 4666 
L 1259 2753 
L 3553 2753 
L 3553 4666 
L 4184 4666 
L 4184 0 
L 3553 0 
L 3553 2222 
L 1259 2222 
L 1259 0 
L 628 0 
L 628 4666 
z
" transform="scale(0.015625)"/>
       <path id="DejaVuSans-75" d="M 544 1381 
L 544 3500 
L 1119 3500 
L 1119 1403 
Q 1119 906 1312 657 
Q 1506 409 1894 409 
Q 2359 409 2629 706 
Q 2900 1003 2900 1516 
L 2900 3500 
L 3475 3500 
L 3475 0 
L 2900 0 
L 2900 538 
Q 2691 219 2414 64 
Q 2138 -91 1772 -91 
Q 1169 -91 856 284 
Q 544 659 544 1381 
z
M 1991 3584 
L 1991 3584 
z
" transform="scale(0.015625)"/>
       <path id="DejaVuSans-62" d="M 3116 1747 
Q 3116 2381 2855 2742 
Q 2594 3103 2138 3103 
Q 1681 3103 1420 2742 
Q 1159 2381 1159 1747 
Q 1159 1113 1420 752 
Q 1681 391 2138 391 
Q 2594 391 2855 752 
Q 3116 1113 3116 1747 
z
M 1159 2969 
Q 1341 3281 1617 3432 
Q 1894 3584 2278 3584 
Q 2916 3584 3314 3078 
Q 3713 2572 3713 1747 
Q 3713 922 3314 415 
Q 2916 -91 2278 -91 
Q 1894 -91 1617 61 
Q 1341 213 1159 525 
L 1159 0 
L 581 0 
L 581 4863 
L 1159 4863 
L 1159 2969 
z
" transform="scale(0.015625)"/>
       <path id="DejaVuSans-43" d="M 4122 4306 
L 4122 3641 
Q 3803 3938 3442 4084 
Q 3081 4231 2675 4231 
Q 1875 4231 1450 3742 
Q 1025 3253 1025 2328 
Q 1025 1406 1450 917 
Q 1875 428 2675 428 
Q 3081 428 3442 575 
Q 3803 722 4122 1019 
L 4122 359 
Q 3791 134 3420 21 
Q 3050 -91 2638 -91 
Q 1578 -91 968 557 
Q 359 1206 359 2328 
Q 359 3453 968 4101 
Q 1578 4750 2638 4750 
Q 3056 4750 3426 4639 
Q 3797 4528 4122 4306 
z
" transform="scale(0.015625)"/>
       <path id="DejaVuSans-6e" d="M 3513 2113 
L 3513 0 
L 2938 0 
L 2938 2094 
Q 2938 2591 2744 2837 
Q 2550 3084 2163 3084 
Q 1697 3084 1428 2787 
Q 1159 2491 1159 1978 
L 1159 0 
L 581 0 
L 581 3500 
L 1159 3500 
L 1159 2956 
Q 1366 3272 1645 3428 
Q 1925 3584 2291 3584 
Q 2894 3584 3203 3211 
Q 3513 2838 3513 2113 
z
" transform="scale(0.015625)"/>
       <path id="DejaVuSans-73" d="M 2834 3397 
L 2834 2853 
Q 2591 2978 2328 3040 
Q 2066 3103 1784 3103 
Q 1356 3103 1142 2972 
Q 928 2841 928 2578 
Q 928 2378 1081 2264 
Q 1234 2150 1697 2047 
L 1894 2003 
Q 2506 1872 2764 1633 
Q 3022 1394 3022 966 
Q 3022 478 2636 193 
Q 2250 -91 1575 -91 
Q 1294 -91 989 -36 
Q 684 19 347 128 
L 347 722 
Q 666 556 975 473 
Q 1284 391 1588 391 
Q 1994 391 2212 530 
Q 2431 669 2431 922 
Q 2431 1156 2273 1281 
Q 2116 1406 1581 1522 
L 1381 1569 
Q 847 1681 609 1914 
Q 372 2147 372 2553 
Q 372 3047 722 3315 
Q 1072 3584 1716 3584 
Q 2034 3584 2315 3537 
Q 2597 3491 2834 3397 
z
" transform="scale(0.015625)"/>
      </defs>
      <use xlink:href="#DejaVuSans-54"/>
      <use xlink:href="#DejaVuSans-6f" x="44.083984"/>
      <use xlink:href="#DejaVuSans-74" x="105.265625"/>
      <use xlink:href="#DejaVuSans-61" x="144.474609"/>
      <use xlink:href="#DejaVuSans-6c" x="205.753906"/>
      <use xlink:href="#DejaVuSans-20" x="233.537109"/>
      <use xlink:href="#DejaVuSans-47" x="265.324219"/>
      <use xlink:href="#DejaVuSans-69" x="342.814453"/>
      <use xlink:href="#DejaVuSans-74" x="370.597656"/>
      <use xlink:href="#DejaVuSans-48" x="409.806641"/>
      <use xlink:href="#DejaVuSans-75" x="485.001953"/>
      <use xlink:href="#DejaVuSans-62" x="548.380859"/>
      <use xlink:href="#DejaVuSans-20" x="611.857422"/>
      <use xlink:href="#DejaVuSans-43" x="643.644531"/>
      <use xlink:href="#DejaVuSans-6c" x="713.46875"/>
      <use xlink:href="#DejaVuSans-6f" x="741.251953"/>
      <use xlink:href="#DejaVuSans-6e" x="802.433594"/>
      <use xlink:href="#DejaVuSans-65" x="865.8125"/>
      <use xlink:href="#DejaVuSans-73" x="927.335938"/>
     </g>
    </g>
    <g id="line2d_17">
     <path d="M 99 62.336562 
L 109 62.336562 
L 119 62.336562 
" style="fill: none; stroke: #ff7f0e; stroke-width: 1.5; stroke-linecap: square"/>
    </g>
    <g id="text_15">
     <!-- Unique GitHub Clones -->
     <g transform="translate(127 65.836562)scale(0.1 -0.1)">
      <defs>
       <path id="DejaVuSans-55" d="M 556 4666 
L 1191 4666 
L 1191 1831 
Q 1191 1081 1462 751 
Q 1734 422 2344 422 
Q 2950 422 3222 751 
Q 3494 1081 3494 1831 
L 3494 4666 
L 4128 4666 
L 4128 1753 
Q 4128 841 3676 375 
Q 3225 -91 2344 -91 
Q 1459 -91 1007 375 
Q 556 841 556 1753 
L 556 4666 
z
" transform="scale(0.015625)"/>
       <path id="DejaVuSans-71" d="M 947 1747 
Q 947 1113 1208 752 
Q 1469 391 1925 391 
Q 2381 391 2643 752 
Q 2906 1113 2906 1747 
Q 2906 2381 2643 2742 
Q 2381 3103 1925 3103 
Q 1469 3103 1208 2742 
Q 947 2381 947 1747 
z
M 2906 525 
Q 2725 213 2448 61 
Q 2172 -91 1784 -91 
Q 1150 -91 751 415 
Q 353 922 353 1747 
Q 353 2572 751 3078 
Q 1150 3584 1784 3584 
Q 2172 3584 2448 3432 
Q 2725 3281 2906 2969 
L 2906 3500 
L 3481 3500 
L 3481 -1331 
L 2906 -1331 
L 2906 525 
z
" transform="scale(0.015625)"/>
      </defs>
      <use xlink:href="#DejaVuSans-55"/>
      <use xlink:href="#DejaVuSans-6e" x="73.193359"/>
      <use xlink:href="#DejaVuSans-69" x="136.572266"/>
      <use xlink:href="#DejaVuSans-71" x="164.355469"/>
      <use xlink:href="#DejaVuSans-75" x="227.832031"/>
      <use xlink:href="#DejaVuSans-65" x="291.210938"/>
      <use xlink:href="#DejaVuSans-20" x="352.734375"/>
      <use xlink:href="#DejaVuSans-47" x="384.521484"/>
      <use xlink:href="#DejaVuSans-69" x="462.011719"/>
      <use xlink:href="#DejaVuSans-74" x="489.794922"/>
      <use xlink:href="#DejaVuSans-48" x="529.003906"/>
      <use xlink:href="#DejaVuSans-75" x="604.199219"/>
      <use xlink:href="#DejaVuSans-62" x="667.578125"/>
      <use xlink:href="#DejaVuSans-20" x="731.054688"/>
      <use xlink:href="#DejaVuSans-43" x="762.841797"/>
      <use xlink:href="#DejaVuSans-6c" x="832.666016"/>
      <use xlink:href="#DejaVuSans-6f" x="860.449219"/>
      <use xlink:href="#DejaVuSans-6e" x="921.630859"/>
      <use xlink:href="#DejaVuSans-65" x="985.009766"/>
      <use xlink:href="#DejaVuSans-73" x="1046.533203"/>
     </g>
    </g>
   </g>
  </g>
  <g id="axes_2">
   <g id="patch_8">
    <path d="M 90 256.32 
L 648 256.32 
L 648 155.52 
L 90 155.52 
z
" style="fill: #ffffff"/>
   </g>
   <g id="matplotlib.axis_3">
    <g id="xtick_10">
     <g id="line2d_18">
      <g>
       <use xlink:href="#ma750bdd6f7" x="115.363636" y="256.32" style="stroke: #000000; stroke-width: 0.8"/>
      </g>
     </g>
     <g id="text_16">
      <!-- 2020-10-21 -->
      <g transform="translate(86.305824 270.918437)scale(0.1 -0.1)">
       <use xlink:href="#DejaVuSans-32"/>
       <use xlink:href="#DejaVuSans-30" x="63.623047"/>
       <use xlink:href="#DejaVuSans-32" x="127.246094"/>
       <use xlink:href="#DejaVuSans-30" x="190.869141"/>
       <use xlink:href="#DejaVuSans-2d" x="254.492188"/>
       <use xlink:href="#DejaVuSans-31" x="290.576172"/>
       <use xlink:href="#DejaVuSans-30" x="354.199219"/>
       <use xlink:href="#DejaVuSans-2d" x="417.822266"/>
       <use xlink:href="#DejaVuSans-32" x="453.90625"/>
       <use xlink:href="#DejaVuSans-31" x="517.529297"/>
      </g>
     </g>
    </g>
    <g id="xtick_11">
     <g id="line2d_19">
      <g>
       <use xlink:href="#ma750bdd6f7" x="216.213085" y="256.32" style="stroke: #000000; stroke-width: 0.8"/>
      </g>
     </g>
     <g id="text_17">
      <!-- 2021-01-31 -->
      <g transform="translate(187.155273 270.918437)scale(0.1 -0.1)">
       <use xlink:href="#DejaVuSans-32"/>
       <use xlink:href="#DejaVuSans-30" x="63.623047"/>
       <use xlink:href="#DejaVuSans-32" x="127.246094"/>
       <use xlink:href="#DejaVuSans-31" x="190.869141"/>
       <use xlink:href="#DejaVuSans-2d" x="254.492188"/>
       <use xlink:href="#DejaVuSans-30" x="290.576172"/>
       <use xlink:href="#DejaVuSans-31" x="354.199219"/>
       <use xlink:href="#DejaVuSans-2d" x="417.822266"/>
       <use xlink:href="#DejaVuSans-33" x="453.90625"/>
       <use xlink:href="#DejaVuSans-31" x="517.529297"/>
      </g>
     </g>
    </g>
    <g id="xtick_12">
     <g id="line2d_20">
      <g>
       <use xlink:href="#ma750bdd6f7" x="317.062534" y="256.32" style="stroke: #000000; stroke-width: 0.8"/>
      </g>
     </g>
     <g id="text_18">
      <!-- 2021-05-11 -->
      <g transform="translate(288.004721 270.918437)scale(0.1 -0.1)">
       <use xlink:href="#DejaVuSans-32"/>
       <use xlink:href="#DejaVuSans-30" x="63.623047"/>
       <use xlink:href="#DejaVuSans-32" x="127.246094"/>
       <use xlink:href="#DejaVuSans-31" x="190.869141"/>
       <use xlink:href="#DejaVuSans-2d" x="254.492188"/>
       <use xlink:href="#DejaVuSans-30" x="290.576172"/>
       <use xlink:href="#DejaVuSans-35" x="354.199219"/>
       <use xlink:href="#DejaVuSans-2d" x="417.822266"/>
       <use xlink:href="#DejaVuSans-31" x="453.90625"/>
       <use xlink:href="#DejaVuSans-31" x="517.529297"/>
      </g>
     </g>
    </g>
    <g id="xtick_13">
     <g id="line2d_21">
      <g>
       <use xlink:href="#ma750bdd6f7" x="417.911983" y="256.32" style="stroke: #000000; stroke-width: 0.8"/>
      </g>
     </g>
     <g id="text_19">
      <!-- 2021-08-19 -->
      <g transform="translate(388.85417 270.918437)scale(0.1 -0.1)">
       <defs>
        <path id="DejaVuSans-38" d="M 2034 2216 
Q 1584 2216 1326 1975 
Q 1069 1734 1069 1313 
Q 1069 891 1326 650 
Q 1584 409 2034 409 
Q 2484 409 2743 651 
Q 3003 894 3003 1313 
Q 3003 1734 2745 1975 
Q 2488 2216 2034 2216 
z
M 1403 2484 
Q 997 2584 770 2862 
Q 544 3141 544 3541 
Q 544 4100 942 4425 
Q 1341 4750 2034 4750 
Q 2731 4750 3128 4425 
Q 3525 4100 3525 3541 
Q 3525 3141 3298 2862 
Q 3072 2584 2669 2484 
Q 3125 2378 3379 2068 
Q 3634 1759 3634 1313 
Q 3634 634 3220 271 
Q 2806 -91 2034 -91 
Q 1263 -91 848 271 
Q 434 634 434 1313 
Q 434 1759 690 2068 
Q 947 2378 1403 2484 
z
M 1172 3481 
Q 1172 3119 1398 2916 
Q 1625 2713 2034 2713 
Q 2441 2713 2670 2916 
Q 2900 3119 2900 3481 
Q 2900 3844 2670 4047 
Q 2441 4250 2034 4250 
Q 1625 4250 1398 4047 
Q 1172 3844 1172 3481 
z
" transform="scale(0.015625)"/>
       </defs>
       <use xlink:href="#DejaVuSans-32"/>
       <use xlink:href="#DejaVuSans-30" x="63.623047"/>
       <use xlink:href="#DejaVuSans-32" x="127.246094"/>
       <use xlink:href="#DejaVuSans-31" x="190.869141"/>
       <use xlink:href="#DejaVuSans-2d" x="254.492188"/>
       <use xlink:href="#DejaVuSans-30" x="290.576172"/>
       <use xlink:href="#DejaVuSans-38" x="354.199219"/>
       <use xlink:href="#DejaVuSans-2d" x="417.822266"/>
       <use xlink:href="#DejaVuSans-31" x="453.90625"/>
       <use xlink:href="#DejaVuSans-39" x="517.529297"/>
      </g>
     </g>
    </g>
    <g id="xtick_14">
     <g id="line2d_22">
      <g>
       <use xlink:href="#ma750bdd6f7" x="518.761431" y="256.32" style="stroke: #000000; stroke-width: 0.8"/>
      </g>
     </g>
     <g id="text_20">
      <!-- 2021-11-27 -->
      <g transform="translate(489.703619 270.918437)scale(0.1 -0.1)">
       <use xlink:href="#DejaVuSans-32"/>
       <use xlink:href="#DejaVuSans-30" x="63.623047"/>
       <use xlink:href="#DejaVuSans-32" x="127.246094"/>
       <use xlink:href="#DejaVuSans-31" x="190.869141"/>
       <use xlink:href="#DejaVuSans-2d" x="254.492188"/>
       <use xlink:href="#DejaVuSans-31" x="290.576172"/>
       <use xlink:href="#DejaVuSans-31" x="354.199219"/>
       <use xlink:href="#DejaVuSans-2d" x="417.822266"/>
       <use xlink:href="#DejaVuSans-32" x="453.90625"/>
       <use xlink:href="#DejaVuSans-37" x="517.529297"/>
      </g>
     </g>
    </g>
    <g id="xtick_15">
     <g id="line2d_23">
      <g>
       <use xlink:href="#ma750bdd6f7" x="619.61088" y="256.32" style="stroke: #000000; stroke-width: 0.8"/>
      </g>
     </g>
     <g id="text_21">
      <!-- 2022-03-03 -->
      <g transform="translate(590.553068 270.918437)scale(0.1 -0.1)">
       <use xlink:href="#DejaVuSans-32"/>
       <use xlink:href="#DejaVuSans-30" x="63.623047"/>
       <use xlink:href="#DejaVuSans-32" x="127.246094"/>
       <use xlink:href="#DejaVuSans-32" x="190.869141"/>
       <use xlink:href="#DejaVuSans-2d" x="254.492188"/>
       <use xlink:href="#DejaVuSans-30" x="290.576172"/>
       <use xlink:href="#DejaVuSans-33" x="354.199219"/>
       <use xlink:href="#DejaVuSans-2d" x="417.822266"/>
       <use xlink:href="#DejaVuSans-30" x="453.90625"/>
       <use xlink:href="#DejaVuSans-33" x="517.529297"/>
      </g>
     </g>
    </g>
    <g id="text_22">
     <!-- _date -->
     <g transform="translate(355.225 284.596563)scale(0.1 -0.1)">
      <use xlink:href="#DejaVuSans-5f"/>
      <use xlink:href="#DejaVuSans-64" x="50"/>
      <use xlink:href="#DejaVuSans-61" x="113.476562"/>
      <use xlink:href="#DejaVuSans-74" x="174.755859"/>
      <use xlink:href="#DejaVuSans-65" x="213.964844"/>
     </g>
    </g>
   </g>
   <g id="matplotlib.axis_4">
    <g id="ytick_5">
     <g id="line2d_24">
      <g>
       <use xlink:href="#mdce5442357" x="90" y="252.02101" style="stroke: #000000; stroke-width: 0.8"/>
      </g>
     </g>
     <g id="text_23">
      <!-- 0 -->
      <g transform="translate(76.6375 255.820229)scale(0.1 -0.1)">
       <use xlink:href="#DejaVuSans-30"/>
      </g>
     </g>
    </g>
    <g id="ytick_6">
     <g id="line2d_25">
      <g>
       <use xlink:href="#mdce5442357" x="90" y="223.738182" style="stroke: #000000; stroke-width: 0.8"/>
      </g>
     </g>
     <g id="text_24">
      <!-- 100 -->
      <g transform="translate(63.9125 227.537401)scale(0.1 -0.1)">
       <use xlink:href="#DejaVuSans-31"/>
       <use xlink:href="#DejaVuSans-30" x="63.623047"/>
       <use xlink:href="#DejaVuSans-30" x="127.246094"/>
      </g>
     </g>
    </g>
    <g id="ytick_7">
     <g id="line2d_26">
      <g>
       <use xlink:href="#mdce5442357" x="90" y="195.455354" style="stroke: #000000; stroke-width: 0.8"/>
      </g>
     </g>
     <g id="text_25">
      <!-- 200 -->
      <g transform="translate(63.9125 199.254572)scale(0.1 -0.1)">
       <use xlink:href="#DejaVuSans-32"/>
       <use xlink:href="#DejaVuSans-30" x="63.623047"/>
       <use xlink:href="#DejaVuSans-30" x="127.246094"/>
      </g>
     </g>
    </g>
    <g id="ytick_8">
     <g id="line2d_27">
      <g>
       <use xlink:href="#mdce5442357" x="90" y="167.172525" style="stroke: #000000; stroke-width: 0.8"/>
      </g>
     </g>
     <g id="text_26">
      <!-- 300 -->
      <g transform="translate(63.9125 170.971744)scale(0.1 -0.1)">
       <use xlink:href="#DejaVuSans-33"/>
       <use xlink:href="#DejaVuSans-30" x="63.623047"/>
       <use xlink:href="#DejaVuSans-30" x="127.246094"/>
      </g>
     </g>
    </g>
   </g>
   <g id="line2d_28">
    <path d="M 115.363636 251.738182 
L 116.372131 230.808889 
L 117.380625 228.263434 
L 118.38912 244.384646 
L 119.397614 251.455354 
L 120.406109 238.728081 
L 121.414603 238.445253 
L 122.423098 234.485657 
L 123.431592 238.445253 
L 124.440087 239.293737 
L 125.448581 250.606869 
L 126.457076 248.344242 
L 127.46557 247.495758 
L 128.474065 239.293737 
L 129.482559 211.576566 
L 130.491054 226.000808 
L 131.499548 243.81899 
L 132.508043 247.212929 
L 133.516537 251.172525 
L 134.525032 238.445253 
L 135.533526 224.303838 
L 136.542021 245.798788 
L 137.550515 243.253333 
L 138.55901 236.748283 
L 139.567504 236.748283 
L 140.575999 249.758384 
L 141.584493 237.031111 
L 142.592988 233.354343 
L 143.601482 243.536162 
L 144.609977 243.536162 
L 145.618471 238.728081 
L 146.626965 246.930101 
L 147.63546 249.192727 
L 148.643954 226.283636 
L 149.652449 248.909899 
L 150.660943 248.061414 
L 151.669438 249.758384 
L 152.677932 247.778586 
L 153.686427 251.455354 
L 154.694921 251.455354 
L 155.703416 227.980606 
L 156.71191 215.253333 
L 157.720405 243.81899 
L 158.728899 245.233131 
L 159.737394 226.566465 
L 160.745888 250.889697 
L 161.754383 244.950303 
L 162.762877 241.556364 
L 163.771372 246.081616 
L 164.779866 236.182626 
L 165.788361 246.930101 
L 166.796855 250.889697 
L 167.80535 251.738182 
L 168.813844 243.81899 
L 169.822339 242.12202 
L 170.830833 242.404848 
L 171.839328 240.990707 
L 172.847822 248.909899 
L 173.856317 250.889697 
L 174.864811 250.606869 
L 175.873306 247.212929 
L 176.8818 247.778586 
L 177.890295 242.687677 
L 178.898789 250.041212 
L 179.907284 251.172525 
L 180.915778 251.455354 
L 181.924273 248.344242 
L 182.932767 249.475556 
L 183.941262 250.32404 
L 184.949756 251.738182 
L 185.95825 247.212929 
L 186.966745 247.495758 
L 187.975239 250.889697 
L 188.983734 246.364444 
L 189.992228 242.687677 
L 191.000723 240.142222 
L 192.009217 247.778586 
L 193.017712 248.909899 
L 194.026206 232.505859 
L 195.034701 250.32404 
L 196.043195 234.202828 
L 197.05169 235.899798 
L 198.060184 240.142222 
L 199.068679 233.637172 
L 200.077173 246.930101 
L 201.085668 235.051313 
L 202.094162 251.172525 
L 203.102657 233.92 
L 204.111151 235.334141 
L 205.119646 226.849293 
L 206.12814 232.788687 
L 207.136635 240.142222 
L 208.145129 242.970505 
L 209.153624 248.344242 
L 210.162118 229.111919 
L 211.170613 224.586667 
L 212.179107 236.465455 
L 213.187602 235.051313 
L 214.196096 232.505859 
L 215.204591 247.495758 
L 216.213085 248.627071 
L 217.22158 230.243232 
L 218.230074 246.930101 
L 220.247063 233.354343 
L 222.264052 250.889697 
L 223.272547 247.778586 
L 224.281041 235.61697 
L 225.289536 235.051313 
L 226.29803 225.435152 
L 227.306524 242.12202 
L 228.315019 250.32404 
L 229.323513 250.606869 
L 230.332008 249.192727 
L 231.340502 242.687677 
L 232.348997 242.970505 
L 233.357491 246.930101 
L 234.365986 231.091717 
L 235.37448 248.344242 
L 236.382975 242.12202 
L 237.391469 239.293737 
L 238.399964 240.990707 
L 239.408458 225.71798 
L 240.416953 235.899798 
L 241.425447 235.051313 
L 242.433942 240.142222 
L 243.442436 238.445253 
L 244.450931 239.576566 
L 245.459425 183.859394 
L 246.46792 245.798788 
L 247.476414 231.091717 
L 248.484909 234.768485 
L 249.493403 227.132121 
L 250.501898 241.839192 
L 251.510392 200.263434 
L 252.518887 198.566465 
L 253.527381 204.505859 
L 254.535876 229.394747 
L 255.54437 174.243232 
L 256.552865 223.738182 
L 257.561359 246.081616 
L 258.569854 245.233131 
L 259.578348 237.596768 
L 260.586843 231.374545 
L 261.595337 227.980606 
L 262.603832 234.768485 
L 263.612326 224.02101 
L 264.620821 243.81899 
L 265.629315 245.798788 
L 266.63781 205.637172 
L 267.646304 232.788687 
L 268.654798 234.485657 
L 269.663293 246.364444 
L 270.671787 248.627071 
L 271.680282 248.061414 
L 272.688776 233.071515 
L 273.697271 184.425051 
L 274.705765 229.960404 
L 275.71426 234.485657 
L 276.722754 214.404848 
L 277.731249 244.384646 
L 278.739743 248.344242 
L 279.748238 244.950303 
L 280.756732 222.041212 
L 281.765227 238.728081 
L 282.773721 223.455354 
L 283.782216 200.546263 
L 284.79071 233.92 
L 285.799205 241.273535 
L 286.807699 246.081616 
L 287.816194 176.505859 
L 288.824688 227.697778 
L 289.833183 243.536162 
L 290.841677 235.334141 
L 291.850172 236.748283 
L 292.858666 248.909899 
L 293.867161 246.930101 
L 294.875655 187.81899 
L 295.88415 181.031111 
L 296.892644 198.566465 
L 297.901139 242.970505 
L 298.909633 249.192727 
L 299.918128 236.748283 
L 300.926622 247.495758 
L 302.943611 224.586667 
L 303.952106 162.647273 
L 304.9606 222.32404 
L 305.969095 221.475556 
L 306.977589 226.283636 
L 307.986083 245.51596 
L 308.994578 246.364444 
L 310.003072 220.344242 
L 311.011567 236.182626 
L 312.020061 235.899798 
L 313.028556 226.566465 
L 314.03705 243.253333 
L 315.045545 249.192727 
L 316.054039 198.283636 
L 317.062534 237.313939 
L 318.071028 212.990707 
L 319.079523 206.768485 
L 320.088017 213.556364 
L 321.096512 249.758384 
L 322.105006 249.758384 
L 323.113501 222.606869 
L 324.121995 233.071515 
L 325.13049 232.505859 
L 326.138984 239.010909 
L 327.147479 242.687677 
L 328.155973 248.344242 
L 329.164468 246.081616 
L 330.172962 226.000808 
L 331.181457 244.101818 
L 332.189951 240.425051 
L 333.198446 232.22303 
L 334.20694 238.728081 
L 335.215435 249.758384 
L 336.223929 249.758384 
L 337.232424 242.970505 
L 338.240918 240.142222 
L 339.249413 246.364444 
L 340.257907 241.273535 
L 341.266402 243.536162 
L 342.274896 249.192727 
L 343.283391 247.495758 
L 344.291885 231.091717 
L 345.30038 236.465455 
L 346.308874 168.303838 
L 347.317369 213.839192 
L 348.325863 244.101818 
L 349.334357 242.12202 
L 350.342852 250.041212 
L 351.351346 232.22303 
L 352.359841 234.202828 
L 353.368335 241.839192 
L 354.37683 240.990707 
L 355.385324 235.61697 
L 356.393819 249.758384 
L 357.402313 250.32404 
L 358.410808 193.192727 
L 359.419302 239.293737 
L 360.427797 244.950303 
L 361.436291 247.212929 
L 362.444786 201.677576 
L 363.45328 247.212929 
L 364.461775 248.061414 
L 366.478764 241.839192 
L 367.487258 242.12202 
L 368.495753 224.02101 
L 369.504247 244.384646 
L 370.512742 249.758384 
L 371.521236 243.536162 
L 372.529731 245.233131 
L 373.538225 180.182626 
L 374.54672 197.435152 
L 375.555214 240.425051 
L 376.563709 242.404848 
L 377.572203 244.667475 
L 378.580698 244.101818 
L 379.589192 231.657374 
L 380.597687 242.12202 
L 381.606181 243.253333 
L 382.614676 222.32404 
L 383.62317 239.293737 
L 384.631665 250.32404 
L 385.640159 251.738182 
L 386.648654 244.667475 
L 387.657148 245.233131 
L 388.665643 246.647273 
L 389.674137 243.536162 
L 390.682631 246.081616 
L 391.691126 249.475556 
L 392.69962 251.172525 
L 393.708115 243.536162 
L 394.716609 243.253333 
L 395.725104 230.808889 
L 396.733598 229.111919 
L 397.742093 250.606869 
L 398.750587 246.081616 
L 399.759082 251.738182 
L 400.767576 239.010909 
L 401.776071 240.142222 
L 402.784565 242.687677 
L 403.79306 239.859394 
L 404.801554 248.344242 
L 405.810049 245.51596 
L 406.818543 250.041212 
L 407.827038 236.748283 
L 408.835532 238.728081 
L 409.844027 243.81899 
L 410.852521 240.707879 
L 411.861016 231.374545 
L 412.86951 241.839192 
L 413.878005 248.344242 
L 414.886499 232.505859 
L 415.894994 250.32404 
L 416.903488 245.798788 
L 417.911983 244.101818 
L 418.920477 251.172525 
L 419.928972 250.889697 
L 420.937466 244.667475 
L 421.945961 245.233131 
L 422.954455 232.22303 
L 423.96295 230.526061 
L 424.971444 248.909899 
L 425.979939 249.758384 
L 426.988433 250.32404 
L 427.996928 242.12202 
L 429.005422 242.404848 
L 430.013917 226.849293 
L 431.022411 235.61697 
L 432.030905 235.334141 
L 433.0394 244.950303 
L 434.047894 249.758384 
L 435.056389 245.51596 
L 436.064883 246.364444 
L 437.073378 249.758384 
L 438.081872 236.465455 
L 439.090367 247.495758 
L 440.098861 242.12202 
L 441.107356 224.586667 
L 442.11585 250.889697 
L 443.124345 248.061414 
L 444.132839 232.788687 
L 445.141334 214.970505 
L 446.149828 235.899798 
L 447.158323 248.061414 
L 448.166817 247.495758 
L 449.175312 250.32404 
L 450.183806 246.364444 
L 451.192301 231.091717 
L 452.200795 229.394747 
L 453.20929 219.778586 
L 454.217784 232.788687 
L 455.226279 248.344242 
L 456.234773 251.455354 
L 457.243268 248.344242 
L 458.251762 249.758384 
L 459.260257 239.293737 
L 460.268751 186.12202 
L 461.277246 228.263434 
L 462.28574 242.12202 
L 463.294235 240.425051 
L 464.302729 229.677576 
L 465.311224 229.677576 
L 466.319718 219.212929 
L 467.328213 195.455354 
L 468.336707 215.536162 
L 469.345202 246.081616 
L 470.353696 250.606869 
L 471.36219 223.172525 
L 472.370685 226.849293 
L 473.379179 210.445253 
L 474.387674 239.576566 
L 475.396168 235.334141 
L 476.404663 245.798788 
L 477.413157 248.061414 
L 478.421652 213.556364 
L 479.430146 237.879596 
L 480.438641 249.475556 
L 481.447135 222.041212 
L 482.45563 160.101818 
L 483.464124 239.859394 
L 484.472619 235.051313 
L 485.481113 226.566465 
L 486.489608 227.697778 
L 487.498102 242.404848 
L 488.506597 231.374545 
L 489.515091 238.162424 
L 490.523586 246.647273 
L 491.53208 245.51596 
L 492.540575 235.051313 
L 493.549069 248.909899 
L 494.557564 242.970505 
L 495.566058 228.263434 
L 497.583047 250.889697 
L 498.591542 250.041212 
L 499.600036 244.667475 
L 500.608531 230.526061 
L 501.617025 240.142222 
L 502.62552 246.930101 
L 503.634014 247.778586 
L 504.642509 247.778586 
L 505.651003 248.627071 
L 506.659498 238.728081 
L 507.667992 234.768485 
L 508.676487 243.536162 
L 510.693476 236.748283 
L 511.70197 250.041212 
L 512.710464 249.758384 
L 513.718959 233.637172 
L 514.727453 231.940202 
L 515.735948 245.233131 
L 517.752937 250.889697 
L 518.761431 248.344242 
L 519.769926 247.495758 
L 520.77842 244.101818 
L 521.786915 227.414949 
L 522.795409 237.596768 
L 523.803904 238.162424 
L 524.812398 225.435152 
L 525.820893 249.758384 
L 526.829387 228.546263 
L 527.837882 226.849293 
L 528.846376 236.465455 
L 529.854871 200.263434 
L 530.863365 239.293737 
L 531.87186 220.344242 
L 532.880354 247.212929 
L 533.888849 248.061414 
L 534.897343 228.829091 
L 535.905838 242.12202 
L 536.914332 206.202828 
L 537.922827 233.637172 
L 538.931321 236.465455 
L 539.939816 242.970505 
L 540.94831 232.22303 
L 541.956805 248.909899 
L 542.965299 215.253333 
L 543.973794 242.404848 
L 544.982288 235.051313 
L 545.990783 239.293737 
L 546.999277 242.12202 
L 548.007772 242.404848 
L 549.016266 246.647273 
L 550.024761 248.909899 
L 551.033255 245.51596 
L 552.04175 248.627071 
L 553.050244 250.889697 
L 554.058738 249.475556 
L 555.067233 249.192727 
L 556.075727 246.647273 
L 557.084222 215.81899 
L 559.101211 241.556364 
L 560.109705 242.687677 
L 561.1182 249.758384 
L 562.126694 250.889697 
L 563.135189 251.738182 
L 564.143683 243.253333 
L 565.152178 235.899798 
L 566.160672 240.707879 
L 567.169167 217.798788 
L 568.177661 246.647273 
L 569.186156 245.798788 
L 570.19465 250.889697 
L 571.203145 247.495758 
L 572.211639 238.728081 
L 573.220134 244.384646 
L 574.228628 241.556364 
L 575.237123 245.51596 
L 576.245617 250.606869 
L 577.254112 251.172525 
L 578.262606 250.041212 
L 579.271101 217.798788 
L 580.279595 218.364444 
L 581.28809 235.051313 
L 582.296584 247.495758 
L 583.305079 215.536162 
L 584.313573 246.647273 
L 585.322068 235.051313 
L 586.330562 210.728081 
L 587.339057 237.313939 
L 588.347551 207.61697 
L 589.356046 195.738182 
L 590.36454 231.657374 
L 591.373035 250.606869 
L 592.381529 249.758384 
L 593.390023 193.758384 
L 594.398518 206.485657 
L 595.407012 222.32404 
L 597.424001 224.02101 
L 598.432496 175.091717 
L 599.44099 243.536162 
L 600.449485 245.233131 
L 601.457979 215.536162 
L 602.466474 224.586667 
L 603.474968 242.12202 
L 604.483463 240.142222 
L 605.491957 224.869495 
L 606.500452 247.495758 
L 607.508946 249.758384 
L 608.517441 224.303838 
L 609.525935 235.051313 
L 610.53443 221.758384 
L 611.542924 231.091717 
L 612.551419 214.404848 
L 613.559913 239.010909 
L 614.568408 248.061414 
L 615.576902 248.627071 
L 616.585397 220.627071 
L 617.593891 227.132121 
L 618.602386 230.808889 
L 619.61088 226.283636 
L 620.619375 182.162424 
L 621.627869 222.32404 
L 622.636364 240.707879 
L 622.636364 240.707879 
" clip-path="url(#pe2b9fad095)" style="fill: none; stroke: #1f77b4; stroke-width: 1.5; stroke-linecap: square"/>
   </g>
   <g id="line2d_29">
    <path d="M 115.363636 251.738182 
L 116.372131 249.475556 
L 117.380625 248.344242 
L 118.38912 249.475556 
L 119.397614 251.738182 
L 120.406109 250.041212 
L 121.414603 249.192727 
L 122.423098 249.192727 
L 123.431592 248.909899 
L 124.440087 249.475556 
L 125.448581 251.455354 
L 129.482559 249.192727 
L 130.491054 248.909899 
L 131.499548 250.041212 
L 133.516537 251.738182 
L 134.525032 248.909899 
L 135.533526 249.475556 
L 136.542021 250.606869 
L 137.550515 250.889697 
L 138.55901 250.606869 
L 139.567504 251.455354 
L 140.575999 251.172525 
L 141.584493 250.041212 
L 142.592988 251.172525 
L 143.601482 248.909899 
L 144.609977 249.758384 
L 145.618471 250.32404 
L 146.626965 251.172525 
L 147.63546 251.172525 
L 148.643954 247.495758 
L 149.652449 251.455354 
L 150.660943 251.455354 
L 151.669438 251.172525 
L 153.686427 251.738182 
L 154.694921 251.455354 
L 155.703416 249.475556 
L 156.71191 246.930101 
L 157.720405 248.627071 
L 158.728899 250.041212 
L 159.737394 250.041212 
L 160.745888 251.455354 
L 161.754383 250.32404 
L 162.762877 250.041212 
L 163.771372 250.889697 
L 164.779866 247.778586 
L 165.788361 249.475556 
L 166.796855 251.455354 
L 167.80535 251.738182 
L 168.813844 249.192727 
L 170.830833 249.192727 
L 171.839328 250.041212 
L 172.847822 250.32404 
L 173.856317 251.172525 
L 174.864811 251.455354 
L 175.873306 250.889697 
L 176.8818 250.606869 
L 177.890295 251.172525 
L 179.907284 251.172525 
L 180.915778 251.455354 
L 181.924273 250.889697 
L 183.941262 250.889697 
L 184.949756 251.738182 
L 185.95825 251.172525 
L 186.966745 251.172525 
L 187.975239 250.889697 
L 188.983734 249.758384 
L 189.992228 248.061414 
L 191.000723 250.041212 
L 192.009217 251.172525 
L 193.017712 250.889697 
L 194.026206 250.889697 
L 195.034701 251.172525 
L 196.043195 249.475556 
L 197.05169 248.627071 
L 198.060184 249.758384 
L 199.068679 246.930101 
L 200.077173 249.758384 
L 201.085668 250.32404 
L 202.094162 251.172525 
L 203.102657 250.606869 
L 204.111151 250.606869 
L 205.119646 248.344242 
L 206.12814 249.475556 
L 207.136635 249.192727 
L 208.145129 249.192727 
L 209.153624 250.32404 
L 210.162118 246.081616 
L 211.170613 247.778586 
L 212.179107 249.192727 
L 213.187602 247.495758 
L 214.196096 246.364444 
L 215.204591 250.889697 
L 216.213085 250.606869 
L 217.22158 248.627071 
L 218.230074 250.041212 
L 219.238569 248.061414 
L 220.247063 249.475556 
L 221.255558 249.475556 
L 222.264052 250.889697 
L 223.272547 251.172525 
L 224.281041 248.909899 
L 225.289536 248.061414 
L 226.29803 248.344242 
L 227.306524 250.889697 
L 228.315019 251.455354 
L 230.332008 250.889697 
L 231.340502 250.889697 
L 232.348997 249.475556 
L 233.357491 250.32404 
L 234.365986 248.909899 
L 235.37448 250.889697 
L 236.382975 250.32404 
L 237.391469 250.889697 
L 238.399964 249.192727 
L 239.408458 248.909899 
L 240.416953 248.909899 
L 241.425447 248.061414 
L 242.433942 250.32404 
L 243.442436 250.889697 
L 244.450931 250.889697 
L 245.459425 242.404848 
L 246.46792 248.909899 
L 247.476414 248.909899 
L 248.484909 247.495758 
L 249.493403 249.192727 
L 250.501898 250.606869 
L 251.510392 250.606869 
L 252.518887 246.364444 
L 253.527381 246.647273 
L 254.535876 248.344242 
L 255.54437 246.647273 
L 256.552865 247.495758 
L 257.561359 250.041212 
L 258.569854 250.889697 
L 259.578348 247.495758 
L 260.586843 246.081616 
L 261.595337 247.212929 
L 262.603832 247.495758 
L 263.612326 249.475556 
L 264.620821 251.172525 
L 265.629315 250.041212 
L 266.63781 247.778586 
L 267.646304 247.778586 
L 268.654798 248.627071 
L 269.663293 250.606869 
L 271.680282 251.172525 
L 272.688776 250.041212 
L 273.697271 246.364444 
L 274.705765 247.212929 
L 275.71426 248.627071 
L 276.722754 246.930101 
L 277.731249 249.758384 
L 278.739743 251.172525 
L 280.756732 249.475556 
L 281.765227 248.344242 
L 282.773721 248.627071 
L 283.782216 247.495758 
L 284.79071 249.192727 
L 285.799205 249.475556 
L 286.807699 250.889697 
L 287.816194 245.51596 
L 288.824688 248.061414 
L 289.833183 248.909899 
L 290.841677 249.192727 
L 291.850172 249.192727 
L 292.858666 250.889697 
L 293.867161 250.32404 
L 294.875655 245.798788 
L 295.88415 244.384646 
L 296.892644 246.930101 
L 297.901139 248.909899 
L 298.909633 250.32404 
L 299.918128 249.192727 
L 300.926622 250.32404 
L 301.935117 246.364444 
L 302.943611 246.647273 
L 303.952106 229.111919 
L 304.9606 248.061414 
L 305.969095 246.647273 
L 306.977589 250.606869 
L 307.986083 251.738182 
L 308.994578 249.758384 
L 310.003072 248.344242 
L 311.011567 248.344242 
L 312.020061 248.627071 
L 313.028556 247.778586 
L 315.045545 251.172525 
L 316.054039 249.192727 
L 317.062534 248.344242 
L 318.071028 246.930101 
L 319.079523 247.212929 
L 320.088017 245.798788 
L 321.096512 250.606869 
L 322.105006 251.738182 
L 323.113501 245.798788 
L 324.121995 247.212929 
L 325.13049 249.475556 
L 326.138984 247.495758 
L 327.147479 248.344242 
L 328.155973 251.455354 
L 329.164468 250.32404 
L 330.172962 248.344242 
L 331.181457 249.475556 
L 332.189951 248.061414 
L 333.198446 246.364444 
L 335.215435 250.889697 
L 336.223929 251.172525 
L 337.232424 249.192727 
L 338.240918 247.778586 
L 339.249413 250.041212 
L 340.257907 249.475556 
L 341.266402 249.475556 
L 343.283391 250.041212 
L 344.291885 246.930101 
L 345.30038 248.909899 
L 346.308874 248.909899 
L 347.317369 250.041212 
L 348.325863 249.192727 
L 349.334357 251.172525 
L 350.342852 250.32404 
L 351.351346 248.344242 
L 352.359841 249.192727 
L 353.368335 248.909899 
L 354.37683 248.344242 
L 355.385324 249.192727 
L 356.393819 251.172525 
L 357.402313 250.889697 
L 358.410808 247.495758 
L 359.419302 250.606869 
L 360.427797 249.758384 
L 361.436291 249.192727 
L 362.444786 245.798788 
L 363.45328 251.172525 
L 364.461775 250.606869 
L 365.470269 249.758384 
L 366.478764 250.32404 
L 367.487258 248.909899 
L 368.495753 248.061414 
L 369.504247 249.192727 
L 370.512742 250.889697 
L 371.521236 250.889697 
L 372.529731 249.475556 
L 373.538225 247.212929 
L 374.54672 247.212929 
L 375.555214 250.32404 
L 376.563709 248.627071 
L 377.572203 250.606869 
L 378.580698 249.475556 
L 379.589192 247.778586 
L 380.597687 248.627071 
L 381.606181 248.627071 
L 382.614676 247.778586 
L 383.62317 248.061414 
L 384.631665 251.172525 
L 385.640159 251.738182 
L 386.648654 250.041212 
L 387.657148 250.041212 
L 388.665643 250.32404 
L 389.674137 250.32404 
L 390.682631 250.606869 
L 392.69962 251.738182 
L 393.708115 250.32404 
L 394.716609 249.475556 
L 395.725104 249.758384 
L 396.733598 248.627071 
L 397.742093 251.172525 
L 398.750587 250.32404 
L 399.759082 251.738182 
L 400.767576 250.32404 
L 401.776071 250.32404 
L 402.784565 248.344242 
L 403.79306 247.778586 
L 404.801554 249.475556 
L 405.810049 250.606869 
L 406.818543 250.606869 
L 407.827038 248.627071 
L 408.835532 249.475556 
L 409.844027 249.758384 
L 410.852521 249.758384 
L 411.861016 248.909899 
L 412.86951 249.192727 
L 413.878005 250.606869 
L 414.886499 248.344242 
L 415.894994 251.455354 
L 416.903488 249.758384 
L 417.911983 249.758384 
L 418.920477 251.172525 
L 419.928972 250.889697 
L 420.937466 250.041212 
L 421.945961 250.041212 
L 422.954455 249.192727 
L 423.96295 249.475556 
L 424.971444 251.172525 
L 425.979939 250.889697 
L 426.988433 251.455354 
L 427.996928 250.32404 
L 429.005422 250.606869 
L 430.013917 250.041212 
L 431.022411 248.627071 
L 432.030905 249.192727 
L 433.0394 250.32404 
L 434.047894 250.889697 
L 435.056389 250.32404 
L 436.064883 251.455354 
L 437.073378 250.889697 
L 438.081872 249.192727 
L 439.090367 250.041212 
L 440.098861 251.172525 
L 441.107356 248.344242 
L 442.11585 251.455354 
L 443.124345 251.172525 
L 444.132839 248.061414 
L 446.149828 249.192727 
L 447.158323 250.32404 
L 448.166817 249.758384 
L 449.175312 251.172525 
L 450.183806 250.606869 
L 451.192301 247.778586 
L 452.200795 249.758384 
L 453.20929 249.192727 
L 454.217784 249.758384 
L 455.226279 249.758384 
L 456.234773 251.455354 
L 457.243268 251.455354 
L 458.251762 250.889697 
L 459.260257 248.344242 
L 461.277246 248.344242 
L 462.28574 249.758384 
L 463.294235 249.758384 
L 464.302729 248.909899 
L 465.311224 248.627071 
L 466.319718 247.212929 
L 467.328213 249.475556 
L 468.336707 247.495758 
L 469.345202 250.041212 
L 470.353696 251.172525 
L 471.36219 250.32404 
L 472.370685 249.758384 
L 473.379179 248.061414 
L 474.387674 248.344242 
L 475.396168 249.192727 
L 476.404663 249.758384 
L 477.413157 250.041212 
L 478.421652 247.495758 
L 479.430146 248.344242 
L 480.438641 250.606869 
L 481.447135 249.475556 
L 483.464124 248.909899 
L 484.472619 249.475556 
L 485.481113 247.495758 
L 486.489608 250.041212 
L 487.498102 250.32404 
L 488.506597 248.344242 
L 489.515091 248.909899 
L 490.523586 250.889697 
L 491.53208 250.32404 
L 492.540575 249.475556 
L 493.549069 250.889697 
L 494.557564 249.192727 
L 495.566058 248.627071 
L 496.574553 248.909899 
L 497.583047 251.172525 
L 498.591542 251.172525 
L 499.600036 249.192727 
L 500.608531 250.32404 
L 501.617025 247.778586 
L 503.634014 250.041212 
L 504.642509 250.606869 
L 505.651003 250.041212 
L 506.659498 248.909899 
L 507.667992 247.212929 
L 508.676487 248.344242 
L 509.684981 247.778586 
L 510.693476 248.909899 
L 511.70197 250.606869 
L 512.710464 250.889697 
L 513.718959 249.192727 
L 514.727453 250.606869 
L 515.735948 249.758384 
L 516.744442 250.041212 
L 517.752937 251.455354 
L 518.761431 250.889697 
L 519.769926 250.889697 
L 520.77842 251.455354 
L 521.786915 249.475556 
L 522.795409 250.32404 
L 523.803904 248.909899 
L 524.812398 250.606869 
L 525.820893 251.172525 
L 527.837882 248.909899 
L 528.846376 249.475556 
L 529.854871 249.475556 
L 530.863365 246.647273 
L 531.87186 246.364444 
L 532.880354 250.32404 
L 533.888849 250.32404 
L 534.897343 248.627071 
L 535.905838 250.32404 
L 536.914332 248.627071 
L 537.922827 249.758384 
L 538.931321 249.192727 
L 539.939816 250.32404 
L 540.94831 250.606869 
L 541.956805 250.606869 
L 542.965299 248.061414 
L 543.973794 249.475556 
L 544.982288 249.758384 
L 545.990783 250.606869 
L 546.999277 250.889697 
L 548.007772 249.475556 
L 549.016266 251.738182 
L 550.024761 251.455354 
L 551.033255 250.889697 
L 552.04175 250.889697 
L 553.050244 251.172525 
L 554.058738 250.606869 
L 555.067233 251.172525 
L 556.075727 250.32404 
L 557.084222 244.384646 
L 558.092716 247.212929 
L 559.101211 249.192727 
L 562.126694 250.889697 
L 563.135189 251.738182 
L 564.143683 249.475556 
L 565.152178 249.475556 
L 566.160672 248.909899 
L 567.169167 245.798788 
L 568.177661 250.606869 
L 569.186156 251.738182 
L 570.19465 251.455354 
L 571.203145 250.606869 
L 572.211639 248.061414 
L 573.220134 250.889697 
L 574.228628 250.041212 
L 575.237123 248.344242 
L 576.245617 251.172525 
L 577.254112 251.455354 
L 578.262606 251.172525 
L 579.271101 250.041212 
L 580.279595 247.778586 
L 581.28809 248.627071 
L 582.296584 249.758384 
L 583.305079 249.192727 
L 584.313573 250.889697 
L 585.322068 250.606869 
L 586.330562 248.061414 
L 587.339057 249.192727 
L 588.347551 246.930101 
L 589.356046 246.364444 
L 590.36454 246.930101 
L 591.373035 251.172525 
L 592.381529 251.738182 
L 593.390023 247.778586 
L 594.398518 245.798788 
L 595.407012 247.778586 
L 596.415507 246.364444 
L 597.424001 246.647273 
L 598.432496 242.970505 
L 599.44099 249.475556 
L 600.449485 249.192727 
L 601.457979 247.212929 
L 602.466474 246.930101 
L 603.474968 248.061414 
L 604.483463 248.627071 
L 605.491957 247.778586 
L 606.500452 249.758384 
L 607.508946 250.889697 
L 608.517441 247.495758 
L 610.53443 248.061414 
L 611.542924 246.647273 
L 612.551419 247.212929 
L 613.559913 247.495758 
L 614.568408 250.606869 
L 615.576902 250.889697 
L 616.585397 245.51596 
L 617.593891 245.51596 
L 618.602386 243.536162 
L 619.61088 246.930101 
L 620.619375 246.930101 
L 621.627869 249.758384 
L 622.636364 248.909899 
L 622.636364 248.909899 
" clip-path="url(#pe2b9fad095)" style="fill: none; stroke: #ff7f0e; stroke-width: 1.5; stroke-linecap: square"/>
   </g>
   <g id="patch_9">
    <path d="M 90 256.32 
L 90 155.52 
" style="fill: none; stroke: #000000; stroke-width: 0.8; stroke-linejoin: miter; stroke-linecap: square"/>
   </g>
   <g id="patch_10">
    <path d="M 648 256.32 
L 648 155.52 
" style="fill: none; stroke: #000000; stroke-width: 0.8; stroke-linejoin: miter; stroke-linecap: square"/>
   </g>
   <g id="patch_11">
    <path d="M 90 256.32 
L 648 256.32 
" style="fill: none; stroke: #000000; stroke-width: 0.8; stroke-linejoin: miter; stroke-linecap: square"/>
   </g>
   <g id="patch_12">
    <path d="M 90 155.52 
L 648 155.52 
" style="fill: none; stroke: #000000; stroke-width: 0.8; stroke-linejoin: miter; stroke-linecap: square"/>
   </g>
   <g id="legend_2">
    <g id="patch_13">
     <path d="M 97 192.87625 
L 234.217188 192.87625 
Q 236.217188 192.87625 236.217188 190.87625 
L 236.217188 162.52 
Q 236.217188 160.52 234.217188 160.52 
L 97 160.52 
Q 95 160.52 95 162.52 
L 95 190.87625 
Q 95 192.87625 97 192.87625 
z
" style="fill: #ffffff; opacity: 0.8; stroke: #cccccc; stroke-linejoin: miter"/>
    </g>
    <g id="line2d_30">
     <path d="M 99 168.618437 
L 109 168.618437 
L 119 168.618437 
" style="fill: none; stroke: #1f77b4; stroke-width: 1.5; stroke-linecap: square"/>
    </g>
    <g id="text_27">
     <!-- Total GitHub Views -->
     <g transform="translate(127 172.118437)scale(0.1 -0.1)">
      <defs>
       <path id="DejaVuSans-56" d="M 1831 0 
L 50 4666 
L 709 4666 
L 2188 738 
L 3669 4666 
L 4325 4666 
L 2547 0 
L 1831 0 
z
" transform="scale(0.015625)"/>
       <path id="DejaVuSans-77" d="M 269 3500 
L 844 3500 
L 1563 769 
L 2278 3500 
L 2956 3500 
L 3675 769 
L 4391 3500 
L 4966 3500 
L 4050 0 
L 3372 0 
L 2619 2869 
L 1863 0 
L 1184 0 
L 269 3500 
z
" transform="scale(0.015625)"/>
      </defs>
      <use xlink:href="#DejaVuSans-54"/>
      <use xlink:href="#DejaVuSans-6f" x="44.083984"/>
      <use xlink:href="#DejaVuSans-74" x="105.265625"/>
      <use xlink:href="#DejaVuSans-61" x="144.474609"/>
      <use xlink:href="#DejaVuSans-6c" x="205.753906"/>
      <use xlink:href="#DejaVuSans-20" x="233.537109"/>
      <use xlink:href="#DejaVuSans-47" x="265.324219"/>
      <use xlink:href="#DejaVuSans-69" x="342.814453"/>
      <use xlink:href="#DejaVuSans-74" x="370.597656"/>
      <use xlink:href="#DejaVuSans-48" x="409.806641"/>
      <use xlink:href="#DejaVuSans-75" x="485.001953"/>
      <use xlink:href="#DejaVuSans-62" x="548.380859"/>
      <use xlink:href="#DejaVuSans-20" x="611.857422"/>
      <use xlink:href="#DejaVuSans-56" x="643.644531"/>
      <use xlink:href="#DejaVuSans-69" x="709.802734"/>
      <use xlink:href="#DejaVuSans-65" x="737.585938"/>
      <use xlink:href="#DejaVuSans-77" x="799.109375"/>
      <use xlink:href="#DejaVuSans-73" x="880.896484"/>
     </g>
    </g>
    <g id="line2d_31">
     <path d="M 99 183.296562 
L 109 183.296562 
L 119 183.296562 
" style="fill: none; stroke: #ff7f0e; stroke-width: 1.5; stroke-linecap: square"/>
    </g>
    <g id="text_28">
     <!-- Unique GitHub Views -->
     <g transform="translate(127 186.796562)scale(0.1 -0.1)">
      <use xlink:href="#DejaVuSans-55"/>
      <use xlink:href="#DejaVuSans-6e" x="73.193359"/>
      <use xlink:href="#DejaVuSans-69" x="136.572266"/>
      <use xlink:href="#DejaVuSans-71" x="164.355469"/>
      <use xlink:href="#DejaVuSans-75" x="227.832031"/>
      <use xlink:href="#DejaVuSans-65" x="291.210938"/>
      <use xlink:href="#DejaVuSans-20" x="352.734375"/>
      <use xlink:href="#DejaVuSans-47" x="384.521484"/>
      <use xlink:href="#DejaVuSans-69" x="462.011719"/>
      <use xlink:href="#DejaVuSans-74" x="489.794922"/>
      <use xlink:href="#DejaVuSans-48" x="529.003906"/>
      <use xlink:href="#DejaVuSans-75" x="604.199219"/>
      <use xlink:href="#DejaVuSans-62" x="667.578125"/>
      <use xlink:href="#DejaVuSans-20" x="731.054688"/>
      <use xlink:href="#DejaVuSans-56" x="762.841797"/>
      <use xlink:href="#DejaVuSans-69" x="829"/>
      <use xlink:href="#DejaVuSans-65" x="856.783203"/>
      <use xlink:href="#DejaVuSans-77" x="918.306641"/>
      <use xlink:href="#DejaVuSans-73" x="1000.09375"/>
     </g>
    </g>
   </g>
  </g>
 </g>
 <defs>
  <clipPath id="p208ee58b81">
   <rect x="90" y="34.56" width="558" height="100.8"/>
  </clipPath>
  <clipPath id="pe2b9fad095">
   <rect x="90" y="155.52" width="558" height="100.8"/>
  </clipPath>
 </defs>
</svg>
