<?xml version="1.0" encoding="utf-8" standalone="no"?>
<!DOCTYPE svg PUBLIC "-//W3C//DTD SVG 1.1//EN"
  "http://www.w3.org/Graphics/SVG/1.1/DTD/svg11.dtd">
<svg xmlns:xlink="http://www.w3.org/1999/xlink" width="720pt" height="288pt" viewBox="0 0 720 288" xmlns="http://www.w3.org/2000/svg" version="1.1">
 <metadata>
  <rdf:RDF xmlns:dc="http://purl.org/dc/elements/1.1/" xmlns:cc="http://creativecommons.org/ns#" xmlns:rdf="http://www.w3.org/1999/02/22-rdf-syntax-ns#">
   <cc:Work>
    <dc:type rdf:resource="http://purl.org/dc/dcmitype/StillImage"/>
    <dc:date>2021-12-20T15:50:51.743348</dc:date>
    <dc:format>image/svg+xml</dc:format>
    <dc:creator>
     <cc:Agent>
      <dc:title>Matplotlib v3.5.1, https://matplotlib.org/</dc:title>
     </cc:Agent>
    </dc:creator>
   </cc:Work>
  </rdf:RDF>
 </metadata>
 <defs>
  <style type="text/css">*{stroke-linejoin: round; stroke-linecap: butt}</style>
 </defs>
 <g id="figure_1">
  <g id="patch_1">
   <path d="M 0 288 
L 720 288 
L 720 0 
L 0 0 
z
" style="fill: #ffffff"/>
  </g>
  <g id="axes_1">
   <g id="patch_2">
    <path d="M 90 135.36 
L 648 135.36 
L 648 34.56 
L 90 34.56 
z
" style="fill: #ffffff"/>
   </g>
   <g id="matplotlib.axis_1">
    <g id="xtick_1">
     <g id="line2d_1">
      <defs>
       <path id="md49019fa2e" d="M 0 0 
L 0 3.5 
" style="stroke: #000000; stroke-width: 0.8"/>
      </defs>
      <g>
       <use xlink:href="#md49019fa2e" x="115.363636" y="135.36" style="stroke: #000000; stroke-width: 0.8"/>
      </g>
     </g>
     <g id="text_1">
      <!-- 2020-10-22 -->
      <g transform="translate(86.305824 149.958437)scale(0.1 -0.1)">
       <defs>
        <path id="DejaVuSans-32" d="M 1228 531 
L 3431 531 
L 3431 0 
L 469 0 
L 469 531 
Q 828 903 1448 1529 
Q 2069 2156 2228 2338 
Q 2531 2678 2651 2914 
Q 2772 3150 2772 3378 
Q 2772 3750 2511 3984 
Q 2250 4219 1831 4219 
Q 1534 4219 1204 4116 
Q 875 4013 500 3803 
L 500 4441 
Q 881 4594 1212 4672 
Q 1544 4750 1819 4750 
Q 2544 4750 2975 4387 
Q 3406 4025 3406 3419 
Q 3406 3131 3298 2873 
Q 3191 2616 2906 2266 
Q 2828 2175 2409 1742 
Q 1991 1309 1228 531 
z
" transform="scale(0.015625)"/>
        <path id="DejaVuSans-30" d="M 2034 4250 
Q 1547 4250 1301 3770 
Q 1056 3291 1056 2328 
Q 1056 1369 1301 889 
Q 1547 409 2034 409 
Q 2525 409 2770 889 
Q 3016 1369 3016 2328 
Q 3016 3291 2770 3770 
Q 2525 4250 2034 4250 
z
M 2034 4750 
Q 2819 4750 3233 4129 
Q 3647 3509 3647 2328 
Q 3647 1150 3233 529 
Q 2819 -91 2034 -91 
Q 1250 -91 836 529 
Q 422 1150 422 2328 
Q 422 3509 836 4129 
Q 1250 4750 2034 4750 
z
" transform="scale(0.015625)"/>
        <path id="DejaVuSans-2d" d="M 313 2009 
L 1997 2009 
L 1997 1497 
L 313 1497 
L 313 2009 
z
" transform="scale(0.015625)"/>
        <path id="DejaVuSans-31" d="M 794 531 
L 1825 531 
L 1825 4091 
L 703 3866 
L 703 4441 
L 1819 4666 
L 2450 4666 
L 2450 531 
L 3481 531 
L 3481 0 
L 794 0 
L 794 531 
z
" transform="scale(0.015625)"/>
       </defs>
       <use xlink:href="#DejaVuSans-32"/>
       <use xlink:href="#DejaVuSans-30" x="63.623047"/>
       <use xlink:href="#DejaVuSans-32" x="127.246094"/>
       <use xlink:href="#DejaVuSans-30" x="190.869141"/>
       <use xlink:href="#DejaVuSans-2d" x="254.492188"/>
       <use xlink:href="#DejaVuSans-31" x="290.576172"/>
       <use xlink:href="#DejaVuSans-30" x="354.199219"/>
       <use xlink:href="#DejaVuSans-2d" x="417.822266"/>
       <use xlink:href="#DejaVuSans-32" x="453.90625"/>
       <use xlink:href="#DejaVuSans-32" x="517.529297"/>
      </g>
     </g>
    </g>
    <g id="xtick_2">
     <g id="line2d_2">
      <g>
       <use xlink:href="#md49019fa2e" x="193.166202" y="135.36" style="stroke: #000000; stroke-width: 0.8"/>
      </g>
     </g>
     <g id="text_2">
      <!-- 2021-01-05 -->
      <g transform="translate(164.108389 149.958437)scale(0.1 -0.1)">
       <defs>
        <path id="DejaVuSans-35" d="M 691 4666 
L 3169 4666 
L 3169 4134 
L 1269 4134 
L 1269 2991 
Q 1406 3038 1543 3061 
Q 1681 3084 1819 3084 
Q 2600 3084 3056 2656 
Q 3513 2228 3513 1497 
Q 3513 744 3044 326 
Q 2575 -91 1722 -91 
Q 1428 -91 1123 -41 
Q 819 9 494 109 
L 494 744 
Q 775 591 1075 516 
Q 1375 441 1709 441 
Q 2250 441 2565 725 
Q 2881 1009 2881 1497 
Q 2881 1984 2565 2268 
Q 2250 2553 1709 2553 
Q 1456 2553 1204 2497 
Q 953 2441 691 2322 
L 691 4666 
z
" transform="scale(0.015625)"/>
       </defs>
       <use xlink:href="#DejaVuSans-32"/>
       <use xlink:href="#DejaVuSans-30" x="63.623047"/>
       <use xlink:href="#DejaVuSans-32" x="127.246094"/>
       <use xlink:href="#DejaVuSans-31" x="190.869141"/>
       <use xlink:href="#DejaVuSans-2d" x="254.492188"/>
       <use xlink:href="#DejaVuSans-30" x="290.576172"/>
       <use xlink:href="#DejaVuSans-31" x="354.199219"/>
       <use xlink:href="#DejaVuSans-2d" x="417.822266"/>
       <use xlink:href="#DejaVuSans-30" x="453.90625"/>
       <use xlink:href="#DejaVuSans-35" x="517.529297"/>
      </g>
     </g>
    </g>
    <g id="xtick_3">
     <g id="line2d_3">
      <g>
       <use xlink:href="#md49019fa2e" x="270.968767" y="135.36" style="stroke: #000000; stroke-width: 0.8"/>
      </g>
     </g>
     <g id="text_3">
      <!-- 2021-03-17 -->
      <g transform="translate(241.910955 149.958437)scale(0.1 -0.1)">
       <defs>
        <path id="DejaVuSans-33" d="M 2597 2516 
Q 3050 2419 3304 2112 
Q 3559 1806 3559 1356 
Q 3559 666 3084 287 
Q 2609 -91 1734 -91 
Q 1441 -91 1130 -33 
Q 819 25 488 141 
L 488 750 
Q 750 597 1062 519 
Q 1375 441 1716 441 
Q 2309 441 2620 675 
Q 2931 909 2931 1356 
Q 2931 1769 2642 2001 
Q 2353 2234 1838 2234 
L 1294 2234 
L 1294 2753 
L 1863 2753 
Q 2328 2753 2575 2939 
Q 2822 3125 2822 3475 
Q 2822 3834 2567 4026 
Q 2313 4219 1838 4219 
Q 1578 4219 1281 4162 
Q 984 4106 628 3988 
L 628 4550 
Q 988 4650 1302 4700 
Q 1616 4750 1894 4750 
Q 2613 4750 3031 4423 
Q 3450 4097 3450 3541 
Q 3450 3153 3228 2886 
Q 3006 2619 2597 2516 
z
" transform="scale(0.015625)"/>
        <path id="DejaVuSans-37" d="M 525 4666 
L 3525 4666 
L 3525 4397 
L 1831 0 
L 1172 0 
L 2766 4134 
L 525 4134 
L 525 4666 
z
" transform="scale(0.015625)"/>
       </defs>
       <use xlink:href="#DejaVuSans-32"/>
       <use xlink:href="#DejaVuSans-30" x="63.623047"/>
       <use xlink:href="#DejaVuSans-32" x="127.246094"/>
       <use xlink:href="#DejaVuSans-31" x="190.869141"/>
       <use xlink:href="#DejaVuSans-2d" x="254.492188"/>
       <use xlink:href="#DejaVuSans-30" x="290.576172"/>
       <use xlink:href="#DejaVuSans-33" x="354.199219"/>
       <use xlink:href="#DejaVuSans-2d" x="417.822266"/>
       <use xlink:href="#DejaVuSans-31" x="453.90625"/>
       <use xlink:href="#DejaVuSans-37" x="517.529297"/>
      </g>
     </g>
    </g>
    <g id="xtick_4">
     <g id="line2d_4">
      <g>
       <use xlink:href="#md49019fa2e" x="348.771333" y="135.36" style="stroke: #000000; stroke-width: 0.8"/>
      </g>
     </g>
     <g id="text_4">
      <!-- 2021-05-10 -->
      <g transform="translate(319.71352 149.958437)scale(0.1 -0.1)">
       <use xlink:href="#DejaVuSans-32"/>
       <use xlink:href="#DejaVuSans-30" x="63.623047"/>
       <use xlink:href="#DejaVuSans-32" x="127.246094"/>
       <use xlink:href="#DejaVuSans-31" x="190.869141"/>
       <use xlink:href="#DejaVuSans-2d" x="254.492188"/>
       <use xlink:href="#DejaVuSans-30" x="290.576172"/>
       <use xlink:href="#DejaVuSans-35" x="354.199219"/>
       <use xlink:href="#DejaVuSans-2d" x="417.822266"/>
       <use xlink:href="#DejaVuSans-31" x="453.90625"/>
       <use xlink:href="#DejaVuSans-30" x="517.529297"/>
      </g>
     </g>
    </g>
    <g id="xtick_5">
     <g id="line2d_5">
      <g>
       <use xlink:href="#md49019fa2e" x="426.573898" y="135.36" style="stroke: #000000; stroke-width: 0.8"/>
      </g>
     </g>
     <g id="text_5">
      <!-- 2021-07-07 -->
      <g transform="translate(397.516086 149.958437)scale(0.1 -0.1)">
       <use xlink:href="#DejaVuSans-32"/>
       <use xlink:href="#DejaVuSans-30" x="63.623047"/>
       <use xlink:href="#DejaVuSans-32" x="127.246094"/>
       <use xlink:href="#DejaVuSans-31" x="190.869141"/>
       <use xlink:href="#DejaVuSans-2d" x="254.492188"/>
       <use xlink:href="#DejaVuSans-30" x="290.576172"/>
       <use xlink:href="#DejaVuSans-37" x="354.199219"/>
       <use xlink:href="#DejaVuSans-2d" x="417.822266"/>
       <use xlink:href="#DejaVuSans-30" x="453.90625"/>
       <use xlink:href="#DejaVuSans-37" x="517.529297"/>
      </g>
     </g>
    </g>
    <g id="xtick_6">
     <g id="line2d_6">
      <g>
       <use xlink:href="#md49019fa2e" x="504.376464" y="135.36" style="stroke: #000000; stroke-width: 0.8"/>
      </g>
     </g>
     <g id="text_6">
      <!-- 2021-09-13 -->
      <g transform="translate(475.318652 149.958437)scale(0.1 -0.1)">
       <defs>
        <path id="DejaVuSans-39" d="M 703 97 
L 703 672 
Q 941 559 1184 500 
Q 1428 441 1663 441 
Q 2288 441 2617 861 
Q 2947 1281 2994 2138 
Q 2813 1869 2534 1725 
Q 2256 1581 1919 1581 
Q 1219 1581 811 2004 
Q 403 2428 403 3163 
Q 403 3881 828 4315 
Q 1253 4750 1959 4750 
Q 2769 4750 3195 4129 
Q 3622 3509 3622 2328 
Q 3622 1225 3098 567 
Q 2575 -91 1691 -91 
Q 1453 -91 1209 -44 
Q 966 3 703 97 
z
M 1959 2075 
Q 2384 2075 2632 2365 
Q 2881 2656 2881 3163 
Q 2881 3666 2632 3958 
Q 2384 4250 1959 4250 
Q 1534 4250 1286 3958 
Q 1038 3666 1038 3163 
Q 1038 2656 1286 2365 
Q 1534 2075 1959 2075 
z
" transform="scale(0.015625)"/>
       </defs>
       <use xlink:href="#DejaVuSans-32"/>
       <use xlink:href="#DejaVuSans-30" x="63.623047"/>
       <use xlink:href="#DejaVuSans-32" x="127.246094"/>
       <use xlink:href="#DejaVuSans-31" x="190.869141"/>
       <use xlink:href="#DejaVuSans-2d" x="254.492188"/>
       <use xlink:href="#DejaVuSans-30" x="290.576172"/>
       <use xlink:href="#DejaVuSans-39" x="354.199219"/>
       <use xlink:href="#DejaVuSans-2d" x="417.822266"/>
       <use xlink:href="#DejaVuSans-31" x="453.90625"/>
       <use xlink:href="#DejaVuSans-33" x="517.529297"/>
      </g>
     </g>
    </g>
    <g id="xtick_7">
     <g id="line2d_7">
      <g>
       <use xlink:href="#md49019fa2e" x="582.17903" y="135.36" style="stroke: #000000; stroke-width: 0.8"/>
      </g>
     </g>
     <g id="text_7">
      <!-- 2021-11-16 -->
      <g transform="translate(553.121217 149.958437)scale(0.1 -0.1)">
       <defs>
        <path id="DejaVuSans-36" d="M 2113 2584 
Q 1688 2584 1439 2293 
Q 1191 2003 1191 1497 
Q 1191 994 1439 701 
Q 1688 409 2113 409 
Q 2538 409 2786 701 
Q 3034 994 3034 1497 
Q 3034 2003 2786 2293 
Q 2538 2584 2113 2584 
z
M 3366 4563 
L 3366 3988 
Q 3128 4100 2886 4159 
Q 2644 4219 2406 4219 
Q 1781 4219 1451 3797 
Q 1122 3375 1075 2522 
Q 1259 2794 1537 2939 
Q 1816 3084 2150 3084 
Q 2853 3084 3261 2657 
Q 3669 2231 3669 1497 
Q 3669 778 3244 343 
Q 2819 -91 2113 -91 
Q 1303 -91 875 529 
Q 447 1150 447 2328 
Q 447 3434 972 4092 
Q 1497 4750 2381 4750 
Q 2619 4750 2861 4703 
Q 3103 4656 3366 4563 
z
" transform="scale(0.015625)"/>
       </defs>
       <use xlink:href="#DejaVuSans-32"/>
       <use xlink:href="#DejaVuSans-30" x="63.623047"/>
       <use xlink:href="#DejaVuSans-32" x="127.246094"/>
       <use xlink:href="#DejaVuSans-31" x="190.869141"/>
       <use xlink:href="#DejaVuSans-2d" x="254.492188"/>
       <use xlink:href="#DejaVuSans-31" x="290.576172"/>
       <use xlink:href="#DejaVuSans-31" x="354.199219"/>
       <use xlink:href="#DejaVuSans-2d" x="417.822266"/>
       <use xlink:href="#DejaVuSans-31" x="453.90625"/>
       <use xlink:href="#DejaVuSans-36" x="517.529297"/>
      </g>
     </g>
    </g>
    <g id="text_8">
     <!-- _date -->
     <g transform="translate(355.225 163.636562)scale(0.1 -0.1)">
      <defs>
       <path id="DejaVuSans-5f" d="M 3263 -1063 
L 3263 -1509 
L -63 -1509 
L -63 -1063 
L 3263 -1063 
z
" transform="scale(0.015625)"/>
       <path id="DejaVuSans-64" d="M 2906 2969 
L 2906 4863 
L 3481 4863 
L 3481 0 
L 2906 0 
L 2906 525 
Q 2725 213 2448 61 
Q 2172 -91 1784 -91 
Q 1150 -91 751 415 
Q 353 922 353 1747 
Q 353 2572 751 3078 
Q 1150 3584 1784 3584 
Q 2172 3584 2448 3432 
Q 2725 3281 2906 2969 
z
M 947 1747 
Q 947 1113 1208 752 
Q 1469 391 1925 391 
Q 2381 391 2643 752 
Q 2906 1113 2906 1747 
Q 2906 2381 2643 2742 
Q 2381 3103 1925 3103 
Q 1469 3103 1208 2742 
Q 947 2381 947 1747 
z
" transform="scale(0.015625)"/>
       <path id="DejaVuSans-61" d="M 2194 1759 
Q 1497 1759 1228 1600 
Q 959 1441 959 1056 
Q 959 750 1161 570 
Q 1363 391 1709 391 
Q 2188 391 2477 730 
Q 2766 1069 2766 1631 
L 2766 1759 
L 2194 1759 
z
M 3341 1997 
L 3341 0 
L 2766 0 
L 2766 531 
Q 2569 213 2275 61 
Q 1981 -91 1556 -91 
Q 1019 -91 701 211 
Q 384 513 384 1019 
Q 384 1609 779 1909 
Q 1175 2209 1959 2209 
L 2766 2209 
L 2766 2266 
Q 2766 2663 2505 2880 
Q 2244 3097 1772 3097 
Q 1472 3097 1187 3025 
Q 903 2953 641 2809 
L 641 3341 
Q 956 3463 1253 3523 
Q 1550 3584 1831 3584 
Q 2591 3584 2966 3190 
Q 3341 2797 3341 1997 
z
" transform="scale(0.015625)"/>
       <path id="DejaVuSans-74" d="M 1172 4494 
L 1172 3500 
L 2356 3500 
L 2356 3053 
L 1172 3053 
L 1172 1153 
Q 1172 725 1289 603 
Q 1406 481 1766 481 
L 2356 481 
L 2356 0 
L 1766 0 
Q 1100 0 847 248 
Q 594 497 594 1153 
L 594 3053 
L 172 3053 
L 172 3500 
L 594 3500 
L 594 4494 
L 1172 4494 
z
" transform="scale(0.015625)"/>
       <path id="DejaVuSans-65" d="M 3597 1894 
L 3597 1613 
L 953 1613 
Q 991 1019 1311 708 
Q 1631 397 2203 397 
Q 2534 397 2845 478 
Q 3156 559 3463 722 
L 3463 178 
Q 3153 47 2828 -22 
Q 2503 -91 2169 -91 
Q 1331 -91 842 396 
Q 353 884 353 1716 
Q 353 2575 817 3079 
Q 1281 3584 2069 3584 
Q 2775 3584 3186 3129 
Q 3597 2675 3597 1894 
z
M 3022 2063 
Q 3016 2534 2758 2815 
Q 2500 3097 2075 3097 
Q 1594 3097 1305 2825 
Q 1016 2553 972 2059 
L 3022 2063 
z
" transform="scale(0.015625)"/>
      </defs>
      <use xlink:href="#DejaVuSans-5f"/>
      <use xlink:href="#DejaVuSans-64" x="50"/>
      <use xlink:href="#DejaVuSans-61" x="113.476562"/>
      <use xlink:href="#DejaVuSans-74" x="174.755859"/>
      <use xlink:href="#DejaVuSans-65" x="213.964844"/>
     </g>
    </g>
   </g>
   <g id="matplotlib.axis_2">
    <g id="ytick_1">
     <g id="line2d_8">
      <defs>
       <path id="m3bb2f28d6e" d="M 0 0 
L -3.5 0 
" style="stroke: #000000; stroke-width: 0.8"/>
      </defs>
      <g>
       <use xlink:href="#m3bb2f28d6e" x="90" y="131.401558" style="stroke: #000000; stroke-width: 0.8"/>
      </g>
     </g>
     <g id="text_9">
      <!-- 0 -->
      <g transform="translate(76.6375 135.200777)scale(0.1 -0.1)">
       <use xlink:href="#DejaVuSans-30"/>
      </g>
     </g>
    </g>
    <g id="ytick_2">
     <g id="line2d_9">
      <g>
       <use xlink:href="#m3bb2f28d6e" x="90" y="100.232727" style="stroke: #000000; stroke-width: 0.8"/>
      </g>
     </g>
     <g id="text_10">
      <!-- 50 -->
      <g transform="translate(70.275 104.031946)scale(0.1 -0.1)">
       <use xlink:href="#DejaVuSans-35"/>
       <use xlink:href="#DejaVuSans-30" x="63.623047"/>
      </g>
     </g>
    </g>
    <g id="ytick_3">
     <g id="line2d_10">
      <g>
       <use xlink:href="#m3bb2f28d6e" x="90" y="69.063896" style="stroke: #000000; stroke-width: 0.8"/>
      </g>
     </g>
     <g id="text_11">
      <!-- 100 -->
      <g transform="translate(63.9125 72.863115)scale(0.1 -0.1)">
       <use xlink:href="#DejaVuSans-31"/>
       <use xlink:href="#DejaVuSans-30" x="63.623047"/>
       <use xlink:href="#DejaVuSans-30" x="127.246094"/>
      </g>
     </g>
    </g>
    <g id="ytick_4">
     <g id="line2d_11">
      <g>
       <use xlink:href="#m3bb2f28d6e" x="90" y="37.895065" style="stroke: #000000; stroke-width: 0.8"/>
      </g>
     </g>
     <g id="text_12">
      <!-- 150 -->
      <g transform="translate(63.9125 41.694284)scale(0.1 -0.1)">
       <use xlink:href="#DejaVuSans-31"/>
       <use xlink:href="#DejaVuSans-35" x="63.623047"/>
       <use xlink:href="#DejaVuSans-30" x="127.246094"/>
      </g>
     </g>
    </g>
   </g>
   <g id="line2d_12">
    <path d="M 115.363636 127.661299 
L 116.919688 128.284675 
L 118.475739 130.778182 
L 120.03179 130.778182 
L 121.587842 129.531429 
L 123.143893 129.531429 
L 124.699944 120.804156 
L 126.255996 120.804156 
L 127.812047 130.778182 
L 129.368098 130.778182 
L 130.924149 124.544416 
L 132.480201 126.414545 
L 134.036252 130.778182 
L 135.592303 127.661299 
L 137.148355 128.908052 
L 138.704406 128.908052 
L 140.260457 130.778182 
L 143.37256 128.284675 
L 144.928611 130.154805 
L 146.484663 130.778182 
L 148.040714 130.154805 
L 149.596765 130.154805 
L 151.152817 129.531429 
L 152.708868 130.154805 
L 154.264919 130.154805 
L 155.82097 128.908052 
L 157.377022 130.154805 
L 158.933073 130.154805 
L 160.489124 122.674286 
L 162.045176 127.661299 
L 163.601227 130.154805 
L 165.157278 115.817143 
L 166.71333 130.778182 
L 179.16174 130.778182 
L 180.717791 130.154805 
L 182.273843 130.778182 
L 193.166202 130.778182 
L 194.722253 128.908052 
L 196.278305 129.531429 
L 197.834356 130.778182 
L 199.390407 129.531429 
L 200.946458 127.661299 
L 202.50251 130.154805 
L 204.058561 130.154805 
L 205.614612 128.908052 
L 207.170664 120.804156 
L 208.726715 130.154805 
L 210.282766 130.778182 
L 211.838818 130.154805 
L 213.394869 127.037922 
L 214.95092 130.154805 
L 216.506972 129.531429 
L 218.063023 125.167792 
L 219.619074 128.908052 
L 221.175125 127.037922 
L 222.731177 130.154805 
L 224.287228 129.531429 
L 225.843279 130.154805 
L 227.399331 129.531429 
L 230.511433 129.531429 
L 232.067485 128.284675 
L 233.623536 130.778182 
L 235.179587 130.778182 
L 236.735639 128.284675 
L 238.29169 128.284675 
L 239.847741 125.167792 
L 241.403793 129.531429 
L 242.959844 127.661299 
L 244.515895 130.778182 
L 246.071946 125.791169 
L 247.627998 128.908052 
L 249.184049 129.531429 
L 250.7401 128.908052 
L 252.296152 126.414545 
L 253.852203 130.154805 
L 255.408254 128.284675 
L 256.964306 121.427532 
L 258.520357 126.414545 
L 260.076408 120.804156 
L 261.63246 87.141818 
L 263.188511 127.661299 
L 264.744562 130.778182 
L 266.300613 128.908052 
L 267.856665 123.297662 
L 269.412716 124.544416 
L 270.968767 127.661299 
L 272.524819 119.557403 
L 274.08087 128.908052 
L 275.636921 128.908052 
L 277.192973 130.154805 
L 278.749024 122.674286 
L 280.305075 124.544416 
L 281.861127 130.778182 
L 283.417178 129.531429 
L 284.973229 130.778182 
L 286.529281 128.284675 
L 288.085332 100.232727 
L 289.641383 118.310649 
L 291.197434 121.427532 
L 292.753486 127.661299 
L 294.309537 130.778182 
L 295.865588 126.414545 
L 297.42164 128.908052 
L 298.977691 122.050909 
L 300.533742 128.908052 
L 302.089794 123.297662 
L 303.645845 115.817143 
L 305.201896 122.674286 
L 306.757948 127.661299 
L 308.313999 115.193766 
L 309.87005 115.193766 
L 311.426102 116.440519 
L 312.982153 92.128831 
L 314.538204 107.08987 
L 316.094255 107.08987 
L 317.650307 119.557403 
L 319.206358 110.206753 
L 320.762409 118.934026 
L 322.318461 129.531429 
L 323.874512 130.154805 
L 325.430563 116.440519 
L 326.986615 114.57039 
L 328.542666 115.817143 
L 330.098717 111.453506 
L 331.654769 105.843117 
L 333.21082 128.284675 
L 334.766871 130.154805 
L 336.322922 116.440519 
L 337.878974 117.687273 
L 339.435025 100.232727 
L 340.991076 115.817143 
L 342.547128 116.440519 
L 344.103179 130.154805 
L 345.65923 128.908052 
L 347.215282 114.57039 
L 348.771333 102.102857 
L 350.327384 117.063896 
L 351.883436 113.323636 
L 353.439487 95.245714 
L 354.995538 117.063896 
L 356.55159 130.154805 
L 358.107641 114.57039 
L 359.663692 105.843117 
L 361.219743 102.726234 
L 362.775795 108.96 
L 364.331846 111.453506 
L 365.887897 129.531429 
L 367.443949 115.193766 
L 369 108.336623 
L 370.556051 115.817143 
L 372.112103 115.193766 
L 373.668154 113.947013 
L 375.224205 125.791169 
L 376.780257 115.817143 
L 378.336308 113.323636 
L 379.892359 115.817143 
L 381.44841 116.440519 
L 383.004462 116.440519 
L 384.560513 130.778182 
L 386.116564 130.778182 
L 387.672616 115.193766 
L 389.228667 112.076883 
L 390.784718 115.193766 
L 392.34077 102.726234 
L 393.896821 105.843117 
L 395.452872 130.778182 
L 397.008924 115.817143 
L 398.564975 113.947013 
L 400.121026 113.323636 
L 401.677078 112.076883 
L 403.233129 117.063896 
L 404.78918 130.154805 
L 406.345231 114.57039 
L 407.901283 110.83013 
L 409.457334 105.21974 
L 411.013385 104.596364 
L 412.569437 39.141818 
L 415.681539 130.778182 
L 417.237591 118.310649 
L 418.793642 117.063896 
L 420.349693 124.544416 
L 421.905745 130.778182 
L 423.461796 130.154805 
L 425.017847 123.297662 
L 426.573898 125.167792 
L 428.12995 130.154805 
L 429.686001 128.908052 
L 431.242052 130.154805 
L 432.798104 130.778182 
L 434.354155 130.154805 
L 435.910206 130.778182 
L 437.466258 130.778182 
L 439.022309 128.908052 
L 440.57836 129.531429 
L 442.134412 130.778182 
L 446.802566 130.778182 
L 448.358617 128.284675 
L 449.914668 130.154805 
L 451.470719 130.778182 
L 453.026771 130.154805 
L 454.582822 127.037922 
L 456.138873 130.778182 
L 457.694925 117.063896 
L 459.250976 129.531429 
L 460.807027 130.778182 
L 463.91913 129.531429 
L 465.475181 130.778182 
L 467.031233 130.154805 
L 468.587284 130.778182 
L 470.143335 128.908052 
L 471.699387 130.154805 
L 473.255438 129.531429 
L 474.811489 130.778182 
L 477.923592 130.778182 
L 481.035694 129.531429 
L 482.591746 127.037922 
L 484.147797 130.154805 
L 485.703848 130.154805 
L 487.2599 124.544416 
L 488.815951 122.050909 
L 490.372002 130.778182 
L 493.484105 130.778182 
L 496.596207 129.531429 
L 498.152259 130.154805 
L 499.70831 125.167792 
L 501.264361 113.323636 
L 502.820413 127.661299 
L 504.376464 110.206753 
L 505.932515 126.414545 
L 507.488567 130.154805 
L 509.044618 130.778182 
L 512.156721 130.778182 
L 513.712772 130.154805 
L 515.268823 130.778182 
L 516.824875 130.778182 
L 518.380926 128.284675 
L 519.936977 98.362597 
L 521.493028 117.063896 
L 523.04908 129.531429 
L 524.605131 122.674286 
L 526.161182 98.985974 
L 527.717234 96.492468 
L 529.273285 90.882078 
L 530.829336 103.972987 
L 532.385388 120.804156 
L 533.941439 122.674286 
L 535.49749 130.778182 
L 537.053542 125.791169 
L 538.609593 130.778182 
L 540.165644 130.778182 
L 541.721695 122.050909 
L 543.277747 129.531429 
L 544.833798 97.739221 
L 546.389849 122.674286 
L 547.945901 95.869091 
L 549.501952 123.297662 
L 551.058003 128.284675 
L 552.614055 121.427532 
L 554.170106 93.998961 
L 555.726157 120.804156 
L 557.282209 122.674286 
L 558.83826 129.531429 
L 560.394311 130.778182 
L 561.950363 130.778182 
L 563.506414 129.531429 
L 565.062465 126.414545 
L 566.618516 123.921039 
L 568.174568 122.674286 
L 569.730619 130.778182 
L 571.28667 130.778182 
L 572.842722 120.180779 
L 574.398773 115.817143 
L 575.954824 130.778182 
L 577.510876 129.531429 
L 579.066927 130.778182 
L 580.622978 125.167792 
L 582.17903 129.531429 
L 583.735081 130.778182 
L 585.291132 130.154805 
L 586.847183 128.908052 
L 588.403235 128.908052 
L 589.959286 106.466494 
L 591.515337 128.908052 
L 593.071389 128.908052 
L 594.62744 120.804156 
L 596.183491 105.21974 
L 597.739543 123.297662 
L 599.295594 123.297662 
L 600.851645 129.531429 
L 602.407697 120.804156 
L 603.963748 120.180779 
L 605.519799 103.34961 
L 607.075851 63.453506 
L 608.631902 123.297662 
L 610.187953 113.323636 
L 611.744004 130.778182 
L 613.300056 104.596364 
L 614.856107 99.609351 
L 616.412158 127.037922 
L 617.96821 117.063896 
L 619.524261 130.778182 
L 622.636364 130.778182 
L 622.636364 130.778182 
" clip-path="url(#pa618285330)" style="fill: none; stroke: #1f77b4; stroke-width: 1.5; stroke-linecap: square"/>
   </g>
   <g id="line2d_13">
    <path d="M 115.363636 127.661299 
L 116.919688 128.284675 
L 118.475739 130.778182 
L 120.03179 130.778182 
L 121.587842 129.531429 
L 123.143893 129.531429 
L 124.699944 130.154805 
L 126.255996 128.284675 
L 127.812047 130.778182 
L 129.368098 130.778182 
L 130.924149 124.544416 
L 132.480201 129.531429 
L 134.036252 130.778182 
L 135.592303 128.908052 
L 137.148355 128.908052 
L 138.704406 129.531429 
L 140.260457 130.778182 
L 141.816509 129.531429 
L 143.37256 128.908052 
L 144.928611 130.154805 
L 146.484663 130.778182 
L 148.040714 130.154805 
L 149.596765 130.778182 
L 151.152817 129.531429 
L 154.264919 130.778182 
L 155.82097 130.154805 
L 157.377022 130.778182 
L 158.933073 130.154805 
L 160.489124 125.791169 
L 162.045176 127.661299 
L 163.601227 130.154805 
L 165.157278 125.167792 
L 166.71333 130.778182 
L 179.16174 130.778182 
L 180.717791 130.154805 
L 182.273843 130.778182 
L 193.166202 130.778182 
L 194.722253 129.531429 
L 196.278305 130.778182 
L 197.834356 130.778182 
L 200.946458 129.531429 
L 202.50251 130.778182 
L 205.614612 130.778182 
L 207.170664 124.544416 
L 208.726715 130.778182 
L 210.282766 130.778182 
L 211.838818 130.154805 
L 213.394869 128.908052 
L 214.95092 130.154805 
L 216.506972 129.531429 
L 218.063023 127.037922 
L 219.619074 129.531429 
L 221.175125 130.778182 
L 222.731177 130.154805 
L 224.287228 130.778182 
L 225.843279 130.154805 
L 227.399331 130.778182 
L 228.955382 129.531429 
L 232.067485 129.531429 
L 233.623536 130.778182 
L 235.179587 130.778182 
L 239.847741 127.037922 
L 241.403793 129.531429 
L 242.959844 128.284675 
L 244.515895 130.778182 
L 246.071946 127.037922 
L 247.627998 128.908052 
L 249.184049 129.531429 
L 250.7401 128.908052 
L 252.296152 126.414545 
L 253.852203 130.154805 
L 255.408254 128.284675 
L 256.964306 124.544416 
L 258.520357 127.037922 
L 260.076408 123.297662 
L 261.63246 108.96 
L 263.188511 127.661299 
L 264.744562 130.778182 
L 266.300613 129.531429 
L 267.856665 123.921039 
L 270.968767 127.661299 
L 272.524819 122.050909 
L 274.08087 128.908052 
L 275.636921 128.908052 
L 277.192973 130.154805 
L 278.749024 124.544416 
L 280.305075 124.544416 
L 281.861127 130.778182 
L 283.417178 129.531429 
L 284.973229 130.778182 
L 286.529281 128.908052 
L 288.085332 116.440519 
L 289.641383 122.674286 
L 291.197434 124.544416 
L 292.753486 128.284675 
L 294.309537 130.778182 
L 295.865588 127.661299 
L 297.42164 130.154805 
L 298.977691 123.921039 
L 300.533742 129.531429 
L 302.089794 123.921039 
L 303.645845 120.180779 
L 305.201896 123.297662 
L 306.757948 128.284675 
L 308.313999 120.804156 
L 309.87005 125.167792 
L 311.426102 130.154805 
L 312.982153 121.427532 
L 314.538204 128.908052 
L 316.094255 125.791169 
L 317.650307 121.427532 
L 319.206358 125.167792 
L 320.762409 130.778182 
L 322.318461 130.154805 
L 323.874512 130.154805 
L 325.430563 130.778182 
L 326.986615 128.908052 
L 328.542666 129.531429 
L 331.654769 120.804156 
L 333.21082 128.284675 
L 334.766871 130.154805 
L 336.322922 130.778182 
L 337.878974 128.908052 
L 339.435025 117.687273 
L 340.991076 130.778182 
L 342.547128 129.531429 
L 344.103179 130.154805 
L 347.215282 130.154805 
L 348.771333 118.934026 
L 350.327384 128.908052 
L 351.883436 127.037922 
L 353.439487 115.817143 
L 354.995538 120.180779 
L 356.55159 130.154805 
L 358.107641 130.778182 
L 359.663692 125.791169 
L 361.219743 129.531429 
L 362.775795 128.908052 
L 364.331846 130.154805 
L 365.887897 130.154805 
L 367.443949 130.778182 
L 369 123.921039 
L 370.556051 130.778182 
L 372.112103 130.154805 
L 373.668154 128.908052 
L 375.224205 127.037922 
L 376.780257 130.778182 
L 378.336308 128.908052 
L 379.892359 130.778182 
L 381.44841 129.531429 
L 383.004462 129.531429 
L 384.560513 130.778182 
L 387.672616 130.778182 
L 389.228667 127.661299 
L 390.784718 130.778182 
L 392.34077 128.908052 
L 393.896821 125.791169 
L 395.452872 130.778182 
L 397.008924 130.778182 
L 398.564975 130.154805 
L 400.121026 128.908052 
L 404.78918 130.778182 
L 406.345231 130.154805 
L 407.901283 126.414545 
L 409.457334 126.414545 
L 411.013385 127.661299 
L 412.569437 130.778182 
L 414.125488 121.427532 
L 415.681539 130.778182 
L 417.237591 130.154805 
L 418.793642 126.414545 
L 420.349693 125.791169 
L 421.905745 130.778182 
L 423.461796 130.154805 
L 425.017847 123.297662 
L 426.573898 126.414545 
L 428.12995 130.154805 
L 429.686001 128.908052 
L 431.242052 130.778182 
L 432.798104 130.778182 
L 434.354155 130.154805 
L 435.910206 130.778182 
L 437.466258 130.778182 
L 439.022309 128.908052 
L 440.57836 129.531429 
L 442.134412 130.778182 
L 446.802566 130.778182 
L 448.358617 128.284675 
L 449.914668 130.154805 
L 451.470719 130.778182 
L 453.026771 130.154805 
L 454.582822 127.661299 
L 456.138873 130.778182 
L 457.694925 130.778182 
L 459.250976 129.531429 
L 460.807027 130.778182 
L 463.91913 129.531429 
L 465.475181 130.778182 
L 467.031233 130.154805 
L 468.587284 130.778182 
L 470.143335 128.908052 
L 471.699387 130.154805 
L 473.255438 129.531429 
L 474.811489 130.778182 
L 477.923592 130.778182 
L 481.035694 129.531429 
L 482.591746 127.037922 
L 484.147797 130.154805 
L 485.703848 130.778182 
L 487.2599 124.544416 
L 488.815951 123.921039 
L 490.372002 130.778182 
L 493.484105 130.778182 
L 496.596207 129.531429 
L 498.152259 130.778182 
L 499.70831 125.791169 
L 501.264361 122.050909 
L 502.820413 130.154805 
L 504.376464 121.427532 
L 505.932515 127.661299 
L 507.488567 130.778182 
L 512.156721 130.778182 
L 513.712772 130.154805 
L 515.268823 130.778182 
L 516.824875 130.778182 
L 518.380926 128.284675 
L 519.936977 114.57039 
L 521.493028 119.557403 
L 523.04908 129.531429 
L 524.605131 123.921039 
L 526.161182 114.57039 
L 527.717234 112.076883 
L 529.273285 112.076883 
L 530.829336 119.557403 
L 532.385388 121.427532 
L 533.941439 124.544416 
L 535.49749 130.778182 
L 537.053542 126.414545 
L 538.609593 130.778182 
L 540.165644 130.778182 
L 541.721695 123.297662 
L 543.277747 129.531429 
L 544.833798 122.674286 
L 546.389849 128.284675 
L 547.945901 126.414545 
L 549.501952 130.154805 
L 551.058003 130.778182 
L 552.614055 128.284675 
L 554.170106 121.427532 
L 555.726157 125.791169 
L 557.282209 126.414545 
L 558.83826 130.154805 
L 560.394311 130.778182 
L 561.950363 130.778182 
L 563.506414 129.531429 
L 565.062465 128.908052 
L 566.618516 127.037922 
L 568.174568 127.037922 
L 569.730619 130.778182 
L 571.28667 130.778182 
L 572.842722 125.167792 
L 574.398773 123.921039 
L 575.954824 130.778182 
L 577.510876 129.531429 
L 579.066927 130.778182 
L 580.622978 127.661299 
L 582.17903 129.531429 
L 583.735081 130.778182 
L 585.291132 130.154805 
L 586.847183 128.908052 
L 588.403235 128.908052 
L 589.959286 122.050909 
L 591.515337 128.908052 
L 593.071389 129.531429 
L 594.62744 126.414545 
L 596.183491 120.180779 
L 597.739543 126.414545 
L 599.295594 127.037922 
L 600.851645 130.154805 
L 602.407697 127.037922 
L 603.963748 126.414545 
L 607.075851 112.70026 
L 608.631902 127.661299 
L 610.187953 123.921039 
L 611.744004 130.778182 
L 613.300056 120.804156 
L 614.856107 117.063896 
L 616.412158 128.284675 
L 617.96821 123.921039 
L 619.524261 130.778182 
L 622.636364 130.778182 
L 622.636364 130.778182 
" clip-path="url(#pa618285330)" style="fill: none; stroke: #ff7f0e; stroke-width: 1.5; stroke-linecap: square"/>
   </g>
   <g id="patch_3">
    <path d="M 90 135.36 
L 90 34.56 
" style="fill: none; stroke: #000000; stroke-width: 0.8; stroke-linejoin: miter; stroke-linecap: square"/>
   </g>
   <g id="patch_4">
    <path d="M 648 135.36 
L 648 34.56 
" style="fill: none; stroke: #000000; stroke-width: 0.8; stroke-linejoin: miter; stroke-linecap: square"/>
   </g>
   <g id="patch_5">
    <path d="M 90 135.36 
L 648 135.36 
" style="fill: none; stroke: #000000; stroke-width: 0.8; stroke-linejoin: miter; stroke-linecap: square"/>
   </g>
   <g id="patch_6">
    <path d="M 90 34.56 
L 648 34.56 
" style="fill: none; stroke: #000000; stroke-width: 0.8; stroke-linejoin: miter; stroke-linecap: square"/>
   </g>
   <g id="legend_1">
    <g id="patch_7">
     <path d="M 97 71.91625 
L 238.8625 71.91625 
Q 240.8625 71.91625 240.8625 69.91625 
L 240.8625 41.56 
Q 240.8625 39.56 238.8625 39.56 
L 97 39.56 
Q 95 39.56 95 41.56 
L 95 69.91625 
Q 95 71.91625 97 71.91625 
z
" style="fill: #ffffff; opacity: 0.8; stroke: #cccccc; stroke-linejoin: miter"/>
    </g>
    <g id="line2d_14">
     <path d="M 99 47.658437 
L 109 47.658437 
L 119 47.658437 
" style="fill: none; stroke: #1f77b4; stroke-width: 1.5; stroke-linecap: square"/>
    </g>
    <g id="text_13">
     <!-- Total GitHub Clones -->
     <g transform="translate(127 51.158437)scale(0.1 -0.1)">
      <defs>
       <path id="DejaVuSans-54" d="M -19 4666 
L 3928 4666 
L 3928 4134 
L 2272 4134 
L 2272 0 
L 1638 0 
L 1638 4134 
L -19 4134 
L -19 4666 
z
" transform="scale(0.015625)"/>
       <path id="DejaVuSans-6f" d="M 1959 3097 
Q 1497 3097 1228 2736 
Q 959 2375 959 1747 
Q 959 1119 1226 758 
Q 1494 397 1959 397 
Q 2419 397 2687 759 
Q 2956 1122 2956 1747 
Q 2956 2369 2687 2733 
Q 2419 3097 1959 3097 
z
M 1959 3584 
Q 2709 3584 3137 3096 
Q 3566 2609 3566 1747 
Q 3566 888 3137 398 
Q 2709 -91 1959 -91 
Q 1206 -91 779 398 
Q 353 888 353 1747 
Q 353 2609 779 3096 
Q 1206 3584 1959 3584 
z
" transform="scale(0.015625)"/>
       <path id="DejaVuSans-6c" d="M 603 4863 
L 1178 4863 
L 1178 0 
L 603 0 
L 603 4863 
z
" transform="scale(0.015625)"/>
       <path id="DejaVuSans-20" transform="scale(0.015625)"/>
       <path id="DejaVuSans-47" d="M 3809 666 
L 3809 1919 
L 2778 1919 
L 2778 2438 
L 4434 2438 
L 4434 434 
Q 4069 175 3628 42 
Q 3188 -91 2688 -91 
Q 1594 -91 976 548 
Q 359 1188 359 2328 
Q 359 3472 976 4111 
Q 1594 4750 2688 4750 
Q 3144 4750 3555 4637 
Q 3966 4525 4313 4306 
L 4313 3634 
Q 3963 3931 3569 4081 
Q 3175 4231 2741 4231 
Q 1884 4231 1454 3753 
Q 1025 3275 1025 2328 
Q 1025 1384 1454 906 
Q 1884 428 2741 428 
Q 3075 428 3337 486 
Q 3600 544 3809 666 
z
" transform="scale(0.015625)"/>
       <path id="DejaVuSans-69" d="M 603 3500 
L 1178 3500 
L 1178 0 
L 603 0 
L 603 3500 
z
M 603 4863 
L 1178 4863 
L 1178 4134 
L 603 4134 
L 603 4863 
z
" transform="scale(0.015625)"/>
       <path id="DejaVuSans-48" d="M 628 4666 
L 1259 4666 
L 1259 2753 
L 3553 2753 
L 3553 4666 
L 4184 4666 
L 4184 0 
L 3553 0 
L 3553 2222 
L 1259 2222 
L 1259 0 
L 628 0 
L 628 4666 
z
" transform="scale(0.015625)"/>
       <path id="DejaVuSans-75" d="M 544 1381 
L 544 3500 
L 1119 3500 
L 1119 1403 
Q 1119 906 1312 657 
Q 1506 409 1894 409 
Q 2359 409 2629 706 
Q 2900 1003 2900 1516 
L 2900 3500 
L 3475 3500 
L 3475 0 
L 2900 0 
L 2900 538 
Q 2691 219 2414 64 
Q 2138 -91 1772 -91 
Q 1169 -91 856 284 
Q 544 659 544 1381 
z
M 1991 3584 
L 1991 3584 
z
" transform="scale(0.015625)"/>
       <path id="DejaVuSans-62" d="M 3116 1747 
Q 3116 2381 2855 2742 
Q 2594 3103 2138 3103 
Q 1681 3103 1420 2742 
Q 1159 2381 1159 1747 
Q 1159 1113 1420 752 
Q 1681 391 2138 391 
Q 2594 391 2855 752 
Q 3116 1113 3116 1747 
z
M 1159 2969 
Q 1341 3281 1617 3432 
Q 1894 3584 2278 3584 
Q 2916 3584 3314 3078 
Q 3713 2572 3713 1747 
Q 3713 922 3314 415 
Q 2916 -91 2278 -91 
Q 1894 -91 1617 61 
Q 1341 213 1159 525 
L 1159 0 
L 581 0 
L 581 4863 
L 1159 4863 
L 1159 2969 
z
" transform="scale(0.015625)"/>
       <path id="DejaVuSans-43" d="M 4122 4306 
L 4122 3641 
Q 3803 3938 3442 4084 
Q 3081 4231 2675 4231 
Q 1875 4231 1450 3742 
Q 1025 3253 1025 2328 
Q 1025 1406 1450 917 
Q 1875 428 2675 428 
Q 3081 428 3442 575 
Q 3803 722 4122 1019 
L 4122 359 
Q 3791 134 3420 21 
Q 3050 -91 2638 -91 
Q 1578 -91 968 557 
Q 359 1206 359 2328 
Q 359 3453 968 4101 
Q 1578 4750 2638 4750 
Q 3056 4750 3426 4639 
Q 3797 4528 4122 4306 
z
" transform="scale(0.015625)"/>
       <path id="DejaVuSans-6e" d="M 3513 2113 
L 3513 0 
L 2938 0 
L 2938 2094 
Q 2938 2591 2744 2837 
Q 2550 3084 2163 3084 
Q 1697 3084 1428 2787 
Q 1159 2491 1159 1978 
L 1159 0 
L 581 0 
L 581 3500 
L 1159 3500 
L 1159 2956 
Q 1366 3272 1645 3428 
Q 1925 3584 2291 3584 
Q 2894 3584 3203 3211 
Q 3513 2838 3513 2113 
z
" transform="scale(0.015625)"/>
       <path id="DejaVuSans-73" d="M 2834 3397 
L 2834 2853 
Q 2591 2978 2328 3040 
Q 2066 3103 1784 3103 
Q 1356 3103 1142 2972 
Q 928 2841 928 2578 
Q 928 2378 1081 2264 
Q 1234 2150 1697 2047 
L 1894 2003 
Q 2506 1872 2764 1633 
Q 3022 1394 3022 966 
Q 3022 478 2636 193 
Q 2250 -91 1575 -91 
Q 1294 -91 989 -36 
Q 684 19 347 128 
L 347 722 
Q 666 556 975 473 
Q 1284 391 1588 391 
Q 1994 391 2212 530 
Q 2431 669 2431 922 
Q 2431 1156 2273 1281 
Q 2116 1406 1581 1522 
L 1381 1569 
Q 847 1681 609 1914 
Q 372 2147 372 2553 
Q 372 3047 722 3315 
Q 1072 3584 1716 3584 
Q 2034 3584 2315 3537 
Q 2597 3491 2834 3397 
z
" transform="scale(0.015625)"/>
      </defs>
      <use xlink:href="#DejaVuSans-54"/>
      <use xlink:href="#DejaVuSans-6f" x="44.083984"/>
      <use xlink:href="#DejaVuSans-74" x="105.265625"/>
      <use xlink:href="#DejaVuSans-61" x="144.474609"/>
      <use xlink:href="#DejaVuSans-6c" x="205.753906"/>
      <use xlink:href="#DejaVuSans-20" x="233.537109"/>
      <use xlink:href="#DejaVuSans-47" x="265.324219"/>
      <use xlink:href="#DejaVuSans-69" x="342.814453"/>
      <use xlink:href="#DejaVuSans-74" x="370.597656"/>
      <use xlink:href="#DejaVuSans-48" x="409.806641"/>
      <use xlink:href="#DejaVuSans-75" x="485.001953"/>
      <use xlink:href="#DejaVuSans-62" x="548.380859"/>
      <use xlink:href="#DejaVuSans-20" x="611.857422"/>
      <use xlink:href="#DejaVuSans-43" x="643.644531"/>
      <use xlink:href="#DejaVuSans-6c" x="713.46875"/>
      <use xlink:href="#DejaVuSans-6f" x="741.251953"/>
      <use xlink:href="#DejaVuSans-6e" x="802.433594"/>
      <use xlink:href="#DejaVuSans-65" x="865.8125"/>
      <use xlink:href="#DejaVuSans-73" x="927.335938"/>
     </g>
    </g>
    <g id="line2d_15">
     <path d="M 99 62.336562 
L 109 62.336562 
L 119 62.336562 
" style="fill: none; stroke: #ff7f0e; stroke-width: 1.5; stroke-linecap: square"/>
    </g>
    <g id="text_14">
     <!-- Unique GitHub Clones -->
     <g transform="translate(127 65.836562)scale(0.1 -0.1)">
      <defs>
       <path id="DejaVuSans-55" d="M 556 4666 
L 1191 4666 
L 1191 1831 
Q 1191 1081 1462 751 
Q 1734 422 2344 422 
Q 2950 422 3222 751 
Q 3494 1081 3494 1831 
L 3494 4666 
L 4128 4666 
L 4128 1753 
Q 4128 841 3676 375 
Q 3225 -91 2344 -91 
Q 1459 -91 1007 375 
Q 556 841 556 1753 
L 556 4666 
z
" transform="scale(0.015625)"/>
       <path id="DejaVuSans-71" d="M 947 1747 
Q 947 1113 1208 752 
Q 1469 391 1925 391 
Q 2381 391 2643 752 
Q 2906 1113 2906 1747 
Q 2906 2381 2643 2742 
Q 2381 3103 1925 3103 
Q 1469 3103 1208 2742 
Q 947 2381 947 1747 
z
M 2906 525 
Q 2725 213 2448 61 
Q 2172 -91 1784 -91 
Q 1150 -91 751 415 
Q 353 922 353 1747 
Q 353 2572 751 3078 
Q 1150 3584 1784 3584 
Q 2172 3584 2448 3432 
Q 2725 3281 2906 2969 
L 2906 3500 
L 3481 3500 
L 3481 -1331 
L 2906 -1331 
L 2906 525 
z
" transform="scale(0.015625)"/>
      </defs>
      <use xlink:href="#DejaVuSans-55"/>
      <use xlink:href="#DejaVuSans-6e" x="73.193359"/>
      <use xlink:href="#DejaVuSans-69" x="136.572266"/>
      <use xlink:href="#DejaVuSans-71" x="164.355469"/>
      <use xlink:href="#DejaVuSans-75" x="227.832031"/>
      <use xlink:href="#DejaVuSans-65" x="291.210938"/>
      <use xlink:href="#DejaVuSans-20" x="352.734375"/>
      <use xlink:href="#DejaVuSans-47" x="384.521484"/>
      <use xlink:href="#DejaVuSans-69" x="462.011719"/>
      <use xlink:href="#DejaVuSans-74" x="489.794922"/>
      <use xlink:href="#DejaVuSans-48" x="529.003906"/>
      <use xlink:href="#DejaVuSans-75" x="604.199219"/>
      <use xlink:href="#DejaVuSans-62" x="667.578125"/>
      <use xlink:href="#DejaVuSans-20" x="731.054688"/>
      <use xlink:href="#DejaVuSans-43" x="762.841797"/>
      <use xlink:href="#DejaVuSans-6c" x="832.666016"/>
      <use xlink:href="#DejaVuSans-6f" x="860.449219"/>
      <use xlink:href="#DejaVuSans-6e" x="921.630859"/>
      <use xlink:href="#DejaVuSans-65" x="985.009766"/>
      <use xlink:href="#DejaVuSans-73" x="1046.533203"/>
     </g>
    </g>
   </g>
  </g>
  <g id="axes_2">
   <g id="patch_8">
    <path d="M 90 256.32 
L 648 256.32 
L 648 155.52 
L 90 155.52 
z
" style="fill: #ffffff"/>
   </g>
   <g id="matplotlib.axis_3">
    <g id="xtick_8">
     <g id="line2d_16">
      <g>
       <use xlink:href="#md49019fa2e" x="115.363636" y="256.32" style="stroke: #000000; stroke-width: 0.8"/>
      </g>
     </g>
     <g id="text_15">
      <!-- 2020-10-21 -->
      <g transform="translate(86.305824 270.918437)scale(0.1 -0.1)">
       <use xlink:href="#DejaVuSans-32"/>
       <use xlink:href="#DejaVuSans-30" x="63.623047"/>
       <use xlink:href="#DejaVuSans-32" x="127.246094"/>
       <use xlink:href="#DejaVuSans-30" x="190.869141"/>
       <use xlink:href="#DejaVuSans-2d" x="254.492188"/>
       <use xlink:href="#DejaVuSans-31" x="290.576172"/>
       <use xlink:href="#DejaVuSans-30" x="354.199219"/>
       <use xlink:href="#DejaVuSans-2d" x="417.822266"/>
       <use xlink:href="#DejaVuSans-32" x="453.90625"/>
       <use xlink:href="#DejaVuSans-31" x="517.529297"/>
      </g>
     </g>
    </g>
    <g id="xtick_9">
     <g id="line2d_17">
      <g>
       <use xlink:href="#md49019fa2e" x="235.003431" y="256.32" style="stroke: #000000; stroke-width: 0.8"/>
      </g>
     </g>
     <g id="text_16">
      <!-- 2021-01-31 -->
      <g transform="translate(205.945618 270.918437)scale(0.1 -0.1)">
       <use xlink:href="#DejaVuSans-32"/>
       <use xlink:href="#DejaVuSans-30" x="63.623047"/>
       <use xlink:href="#DejaVuSans-32" x="127.246094"/>
       <use xlink:href="#DejaVuSans-31" x="190.869141"/>
       <use xlink:href="#DejaVuSans-2d" x="254.492188"/>
       <use xlink:href="#DejaVuSans-30" x="290.576172"/>
       <use xlink:href="#DejaVuSans-31" x="354.199219"/>
       <use xlink:href="#DejaVuSans-2d" x="417.822266"/>
       <use xlink:href="#DejaVuSans-33" x="453.90625"/>
       <use xlink:href="#DejaVuSans-31" x="517.529297"/>
      </g>
     </g>
    </g>
    <g id="xtick_10">
     <g id="line2d_18">
      <g>
       <use xlink:href="#md49019fa2e" x="354.643225" y="256.32" style="stroke: #000000; stroke-width: 0.8"/>
      </g>
     </g>
     <g id="text_17">
      <!-- 2021-05-11 -->
      <g transform="translate(325.585412 270.918437)scale(0.1 -0.1)">
       <use xlink:href="#DejaVuSans-32"/>
       <use xlink:href="#DejaVuSans-30" x="63.623047"/>
       <use xlink:href="#DejaVuSans-32" x="127.246094"/>
       <use xlink:href="#DejaVuSans-31" x="190.869141"/>
       <use xlink:href="#DejaVuSans-2d" x="254.492188"/>
       <use xlink:href="#DejaVuSans-30" x="290.576172"/>
       <use xlink:href="#DejaVuSans-35" x="354.199219"/>
       <use xlink:href="#DejaVuSans-2d" x="417.822266"/>
       <use xlink:href="#DejaVuSans-31" x="453.90625"/>
       <use xlink:href="#DejaVuSans-31" x="517.529297"/>
      </g>
     </g>
    </g>
    <g id="xtick_11">
     <g id="line2d_19">
      <g>
       <use xlink:href="#md49019fa2e" x="474.283019" y="256.32" style="stroke: #000000; stroke-width: 0.8"/>
      </g>
     </g>
     <g id="text_18">
      <!-- 2021-08-19 -->
      <g transform="translate(445.225206 270.918437)scale(0.1 -0.1)">
       <defs>
        <path id="DejaVuSans-38" d="M 2034 2216 
Q 1584 2216 1326 1975 
Q 1069 1734 1069 1313 
Q 1069 891 1326 650 
Q 1584 409 2034 409 
Q 2484 409 2743 651 
Q 3003 894 3003 1313 
Q 3003 1734 2745 1975 
Q 2488 2216 2034 2216 
z
M 1403 2484 
Q 997 2584 770 2862 
Q 544 3141 544 3541 
Q 544 4100 942 4425 
Q 1341 4750 2034 4750 
Q 2731 4750 3128 4425 
Q 3525 4100 3525 3541 
Q 3525 3141 3298 2862 
Q 3072 2584 2669 2484 
Q 3125 2378 3379 2068 
Q 3634 1759 3634 1313 
Q 3634 634 3220 271 
Q 2806 -91 2034 -91 
Q 1263 -91 848 271 
Q 434 634 434 1313 
Q 434 1759 690 2068 
Q 947 2378 1403 2484 
z
M 1172 3481 
Q 1172 3119 1398 2916 
Q 1625 2713 2034 2713 
Q 2441 2713 2670 2916 
Q 2900 3119 2900 3481 
Q 2900 3844 2670 4047 
Q 2441 4250 2034 4250 
Q 1625 4250 1398 4047 
Q 1172 3844 1172 3481 
z
" transform="scale(0.015625)"/>
       </defs>
       <use xlink:href="#DejaVuSans-32"/>
       <use xlink:href="#DejaVuSans-30" x="63.623047"/>
       <use xlink:href="#DejaVuSans-32" x="127.246094"/>
       <use xlink:href="#DejaVuSans-31" x="190.869141"/>
       <use xlink:href="#DejaVuSans-2d" x="254.492188"/>
       <use xlink:href="#DejaVuSans-30" x="290.576172"/>
       <use xlink:href="#DejaVuSans-38" x="354.199219"/>
       <use xlink:href="#DejaVuSans-2d" x="417.822266"/>
       <use xlink:href="#DejaVuSans-31" x="453.90625"/>
       <use xlink:href="#DejaVuSans-39" x="517.529297"/>
      </g>
     </g>
    </g>
    <g id="xtick_12">
     <g id="line2d_20">
      <g>
       <use xlink:href="#md49019fa2e" x="593.922813" y="256.32" style="stroke: #000000; stroke-width: 0.8"/>
      </g>
     </g>
     <g id="text_19">
      <!-- 2021-11-27 -->
      <g transform="translate(564.865001 270.918437)scale(0.1 -0.1)">
       <use xlink:href="#DejaVuSans-32"/>
       <use xlink:href="#DejaVuSans-30" x="63.623047"/>
       <use xlink:href="#DejaVuSans-32" x="127.246094"/>
       <use xlink:href="#DejaVuSans-31" x="190.869141"/>
       <use xlink:href="#DejaVuSans-2d" x="254.492188"/>
       <use xlink:href="#DejaVuSans-31" x="290.576172"/>
       <use xlink:href="#DejaVuSans-31" x="354.199219"/>
       <use xlink:href="#DejaVuSans-2d" x="417.822266"/>
       <use xlink:href="#DejaVuSans-32" x="453.90625"/>
       <use xlink:href="#DejaVuSans-37" x="517.529297"/>
      </g>
     </g>
    </g>
    <g id="text_20">
     <!-- _date -->
     <g transform="translate(355.225 284.596563)scale(0.1 -0.1)">
      <use xlink:href="#DejaVuSans-5f"/>
      <use xlink:href="#DejaVuSans-64" x="50"/>
      <use xlink:href="#DejaVuSans-61" x="113.476562"/>
      <use xlink:href="#DejaVuSans-74" x="174.755859"/>
      <use xlink:href="#DejaVuSans-65" x="213.964844"/>
     </g>
    </g>
   </g>
   <g id="matplotlib.axis_4">
    <g id="ytick_5">
     <g id="line2d_21">
      <g>
       <use xlink:href="#m3bb2f28d6e" x="90" y="252.02101" style="stroke: #000000; stroke-width: 0.8"/>
      </g>
     </g>
     <g id="text_21">
      <!-- 0 -->
      <g transform="translate(76.6375 255.820229)scale(0.1 -0.1)">
       <use xlink:href="#DejaVuSans-30"/>
      </g>
     </g>
    </g>
    <g id="ytick_6">
     <g id="line2d_22">
      <g>
       <use xlink:href="#m3bb2f28d6e" x="90" y="223.738182" style="stroke: #000000; stroke-width: 0.8"/>
      </g>
     </g>
     <g id="text_22">
      <!-- 100 -->
      <g transform="translate(63.9125 227.537401)scale(0.1 -0.1)">
       <use xlink:href="#DejaVuSans-31"/>
       <use xlink:href="#DejaVuSans-30" x="63.623047"/>
       <use xlink:href="#DejaVuSans-30" x="127.246094"/>
      </g>
     </g>
    </g>
    <g id="ytick_7">
     <g id="line2d_23">
      <g>
       <use xlink:href="#m3bb2f28d6e" x="90" y="195.455354" style="stroke: #000000; stroke-width: 0.8"/>
      </g>
     </g>
     <g id="text_23">
      <!-- 200 -->
      <g transform="translate(63.9125 199.254572)scale(0.1 -0.1)">
       <use xlink:href="#DejaVuSans-32"/>
       <use xlink:href="#DejaVuSans-30" x="63.623047"/>
       <use xlink:href="#DejaVuSans-30" x="127.246094"/>
      </g>
     </g>
    </g>
    <g id="ytick_8">
     <g id="line2d_24">
      <g>
       <use xlink:href="#m3bb2f28d6e" x="90" y="167.172525" style="stroke: #000000; stroke-width: 0.8"/>
      </g>
     </g>
     <g id="text_24">
      <!-- 300 -->
      <g transform="translate(63.9125 170.971744)scale(0.1 -0.1)">
       <use xlink:href="#DejaVuSans-33"/>
       <use xlink:href="#DejaVuSans-30" x="63.623047"/>
       <use xlink:href="#DejaVuSans-30" x="127.246094"/>
      </g>
     </g>
    </g>
   </g>
   <g id="line2d_25">
    <path d="M 115.363636 251.738182 
L 116.560034 230.808889 
L 117.756432 228.263434 
L 118.95283 244.384646 
L 120.149228 251.455354 
L 121.345626 238.728081 
L 122.542024 238.445253 
L 123.738422 234.485657 
L 124.93482 238.445253 
L 126.131218 239.293737 
L 127.327616 250.606869 
L 128.524014 248.344242 
L 129.720412 247.495758 
L 130.91681 239.293737 
L 132.113208 211.576566 
L 133.309605 226.000808 
L 134.506003 243.81899 
L 135.702401 247.212929 
L 136.898799 251.172525 
L 138.095197 238.445253 
L 139.291595 224.303838 
L 140.487993 245.798788 
L 141.684391 243.253333 
L 142.880789 236.748283 
L 144.077187 236.748283 
L 145.273585 249.758384 
L 146.469983 237.031111 
L 147.666381 233.354343 
L 148.862779 243.536162 
L 150.059177 243.536162 
L 151.255575 238.728081 
L 152.451973 246.930101 
L 153.64837 249.192727 
L 154.844768 226.283636 
L 156.041166 248.909899 
L 157.237564 248.061414 
L 158.433962 249.758384 
L 159.63036 247.778586 
L 160.826758 251.455354 
L 162.023156 251.455354 
L 163.219554 227.980606 
L 164.415952 215.253333 
L 165.61235 243.81899 
L 166.808748 245.233131 
L 168.005146 226.566465 
L 169.201544 250.889697 
L 170.397942 244.950303 
L 171.59434 241.556364 
L 172.790738 246.081616 
L 173.987136 236.182626 
L 175.183533 246.930101 
L 176.379931 250.889697 
L 177.576329 251.738182 
L 178.772727 243.81899 
L 179.969125 242.12202 
L 181.165523 242.404848 
L 182.361921 240.990707 
L 183.558319 248.909899 
L 184.754717 250.889697 
L 185.951115 250.606869 
L 187.147513 247.212929 
L 188.343911 247.778586 
L 189.540309 242.687677 
L 190.736707 250.041212 
L 191.933105 251.172525 
L 193.129503 251.455354 
L 194.325901 248.344242 
L 195.522298 249.475556 
L 196.718696 250.32404 
L 197.915094 251.738182 
L 199.111492 247.212929 
L 200.30789 247.495758 
L 201.504288 250.889697 
L 202.700686 246.364444 
L 203.897084 242.687677 
L 205.093482 240.142222 
L 206.28988 247.778586 
L 207.486278 248.909899 
L 208.682676 232.505859 
L 209.879074 250.32404 
L 211.075472 234.202828 
L 212.27187 235.899798 
L 213.468268 240.142222 
L 214.664666 233.637172 
L 215.861063 246.930101 
L 217.057461 235.051313 
L 218.253859 251.172525 
L 219.450257 233.92 
L 220.646655 235.334141 
L 221.843053 226.849293 
L 223.039451 232.788687 
L 224.235849 240.142222 
L 225.432247 242.970505 
L 226.628645 248.344242 
L 227.825043 229.111919 
L 229.021441 224.586667 
L 230.217839 236.465455 
L 231.414237 235.051313 
L 232.610635 232.505859 
L 233.807033 247.495758 
L 235.003431 248.627071 
L 236.199828 230.243232 
L 237.396226 246.930101 
L 239.789022 233.354343 
L 242.181818 250.889697 
L 243.378216 247.778586 
L 244.574614 235.61697 
L 245.771012 235.051313 
L 246.96741 225.435152 
L 248.163808 242.12202 
L 249.360206 250.32404 
L 250.556604 250.606869 
L 251.753002 249.192727 
L 252.9494 242.687677 
L 254.145798 242.970505 
L 255.342196 246.930101 
L 256.538593 231.091717 
L 257.734991 248.344242 
L 258.931389 242.12202 
L 260.127787 239.293737 
L 261.324185 240.990707 
L 262.520583 225.71798 
L 263.716981 235.899798 
L 264.913379 235.051313 
L 266.109777 240.142222 
L 267.306175 238.445253 
L 268.502573 239.576566 
L 269.698971 183.859394 
L 270.895369 245.798788 
L 272.091767 231.091717 
L 273.288165 234.768485 
L 274.484563 227.132121 
L 275.680961 241.839192 
L 276.877358 200.263434 
L 278.073756 198.566465 
L 279.270154 204.505859 
L 280.466552 229.394747 
L 281.66295 174.243232 
L 282.859348 223.738182 
L 284.055746 246.081616 
L 285.252144 245.233131 
L 286.448542 237.596768 
L 287.64494 231.374545 
L 288.841338 227.980606 
L 290.037736 234.768485 
L 291.234134 224.02101 
L 292.430532 243.81899 
L 293.62693 245.798788 
L 294.823328 205.637172 
L 296.019726 232.788687 
L 297.216123 234.485657 
L 298.412521 246.364444 
L 299.608919 248.627071 
L 300.805317 248.061414 
L 302.001715 233.071515 
L 303.198113 184.425051 
L 304.394511 229.960404 
L 305.590909 234.485657 
L 306.787307 214.404848 
L 307.983705 244.384646 
L 309.180103 248.344242 
L 310.376501 244.950303 
L 311.572899 222.041212 
L 312.769297 238.728081 
L 313.965695 223.455354 
L 315.162093 200.546263 
L 316.358491 233.92 
L 317.554889 241.273535 
L 318.751286 246.081616 
L 319.947684 176.505859 
L 321.144082 227.697778 
L 322.34048 243.536162 
L 323.536878 235.334141 
L 324.733276 236.748283 
L 325.929674 248.909899 
L 327.126072 246.930101 
L 328.32247 187.81899 
L 329.518868 181.031111 
L 330.715266 198.566465 
L 331.911664 242.970505 
L 333.108062 249.192727 
L 334.30446 236.748283 
L 335.500858 247.495758 
L 337.893654 224.586667 
L 339.090051 162.647273 
L 340.286449 222.32404 
L 341.482847 221.475556 
L 342.679245 226.283636 
L 343.875643 245.51596 
L 345.072041 246.364444 
L 346.268439 220.344242 
L 347.464837 236.182626 
L 348.661235 235.899798 
L 349.857633 226.566465 
L 351.054031 243.253333 
L 352.250429 249.192727 
L 353.446827 198.283636 
L 354.643225 237.313939 
L 355.839623 212.990707 
L 357.036021 206.768485 
L 358.232419 213.556364 
L 359.428816 249.758384 
L 360.625214 249.758384 
L 361.821612 222.606869 
L 363.01801 233.071515 
L 364.214408 232.505859 
L 365.410806 239.010909 
L 366.607204 242.687677 
L 367.803602 248.344242 
L 369 246.081616 
L 370.196398 226.000808 
L 371.392796 244.101818 
L 372.589194 240.425051 
L 373.785592 232.22303 
L 374.98199 238.728081 
L 376.178388 249.758384 
L 377.374786 249.758384 
L 378.571184 242.970505 
L 379.767581 240.142222 
L 380.963979 246.364444 
L 382.160377 241.273535 
L 383.356775 243.536162 
L 384.553173 249.192727 
L 385.749571 247.495758 
L 386.945969 231.091717 
L 388.142367 236.465455 
L 389.338765 168.303838 
L 390.535163 213.839192 
L 391.731561 244.101818 
L 392.927959 242.12202 
L 394.124357 250.041212 
L 395.320755 232.22303 
L 396.517153 234.202828 
L 397.713551 241.839192 
L 398.909949 240.990707 
L 400.106346 235.61697 
L 401.302744 249.758384 
L 402.499142 250.32404 
L 403.69554 193.192727 
L 404.891938 239.293737 
L 406.088336 244.950303 
L 407.284734 247.212929 
L 408.481132 201.677576 
L 409.67753 247.212929 
L 410.873928 248.061414 
L 413.266724 241.839192 
L 414.463122 242.12202 
L 415.65952 224.02101 
L 416.855918 244.384646 
L 418.052316 249.758384 
L 419.248714 243.536162 
L 420.445111 245.233131 
L 421.641509 180.182626 
L 422.837907 197.435152 
L 424.034305 240.425051 
L 425.230703 242.404848 
L 426.427101 244.667475 
L 427.623499 244.101818 
L 428.819897 231.657374 
L 430.016295 242.12202 
L 431.212693 243.253333 
L 432.409091 222.32404 
L 433.605489 239.293737 
L 434.801887 250.32404 
L 435.998285 251.738182 
L 437.194683 244.667475 
L 438.391081 245.233131 
L 439.587479 246.647273 
L 440.783877 243.536162 
L 441.980274 246.081616 
L 443.176672 249.475556 
L 444.37307 251.172525 
L 445.569468 243.536162 
L 446.765866 243.253333 
L 447.962264 230.808889 
L 449.158662 229.111919 
L 450.35506 250.606869 
L 451.551458 246.081616 
L 452.747856 251.738182 
L 453.944254 239.010909 
L 455.140652 240.142222 
L 456.33705 242.687677 
L 457.533448 239.859394 
L 458.729846 248.344242 
L 459.926244 245.51596 
L 461.122642 250.041212 
L 462.319039 236.748283 
L 463.515437 238.728081 
L 464.711835 243.81899 
L 465.908233 240.707879 
L 467.104631 231.374545 
L 468.301029 241.839192 
L 469.497427 248.344242 
L 470.693825 232.505859 
L 471.890223 250.32404 
L 473.086621 245.798788 
L 474.283019 244.101818 
L 475.479417 251.172525 
L 476.675815 250.889697 
L 477.872213 244.667475 
L 479.068611 245.233131 
L 480.265009 232.22303 
L 481.461407 230.526061 
L 482.657804 248.909899 
L 483.854202 249.758384 
L 485.0506 250.32404 
L 486.246998 242.404848 
L 487.443396 242.12202 
L 488.639794 226.849293 
L 489.836192 235.61697 
L 491.03259 235.334141 
L 492.228988 244.950303 
L 493.425386 249.758384 
L 494.621784 245.51596 
L 495.818182 246.364444 
L 497.01458 249.758384 
L 498.210978 236.465455 
L 499.407376 247.495758 
L 500.603774 242.12202 
L 501.800172 224.586667 
L 502.996569 250.889697 
L 504.192967 248.061414 
L 505.389365 232.788687 
L 506.585763 214.970505 
L 507.782161 235.899798 
L 508.978559 248.061414 
L 510.174957 247.495758 
L 511.371355 250.32404 
L 512.567753 246.364444 
L 513.764151 231.091717 
L 514.960549 229.394747 
L 516.156947 219.778586 
L 517.353345 232.788687 
L 518.549743 248.344242 
L 519.746141 251.455354 
L 520.942539 248.344242 
L 522.138937 249.758384 
L 523.335334 239.293737 
L 524.531732 186.12202 
L 525.72813 228.263434 
L 526.924528 242.12202 
L 528.120926 240.425051 
L 529.317324 229.677576 
L 530.513722 229.677576 
L 531.71012 219.212929 
L 532.906518 195.455354 
L 534.102916 215.536162 
L 535.299314 246.081616 
L 536.495712 250.606869 
L 537.69211 223.172525 
L 538.888508 226.849293 
L 540.084906 210.445253 
L 541.281304 239.576566 
L 542.477702 235.334141 
L 543.674099 245.798788 
L 544.870497 248.061414 
L 546.066895 213.556364 
L 547.263293 237.879596 
L 548.459691 249.475556 
L 549.656089 222.041212 
L 550.852487 160.101818 
L 552.048885 239.859394 
L 553.245283 235.051313 
L 554.441681 226.566465 
L 555.638079 227.697778 
L 556.834477 242.404848 
L 558.030875 231.374545 
L 559.227273 238.162424 
L 560.423671 246.647273 
L 561.620069 245.51596 
L 562.816467 235.051313 
L 564.012864 248.909899 
L 565.209262 242.970505 
L 566.40566 228.263434 
L 568.798456 250.889697 
L 569.994854 250.041212 
L 571.191252 244.667475 
L 572.38765 230.526061 
L 573.584048 240.142222 
L 574.780446 246.930101 
L 575.976844 247.778586 
L 577.173242 247.778586 
L 578.36964 248.627071 
L 579.566038 238.728081 
L 580.762436 234.768485 
L 581.958834 243.536162 
L 584.35163 236.748283 
L 585.548027 250.041212 
L 586.744425 249.758384 
L 587.940823 233.637172 
L 589.137221 231.940202 
L 590.333619 245.233131 
L 592.726415 250.889697 
L 593.922813 248.344242 
L 595.119211 247.495758 
L 596.315609 244.101818 
L 597.512007 227.414949 
L 598.708405 237.596768 
L 599.904803 238.162424 
L 601.101201 225.435152 
L 602.297599 249.758384 
L 603.493997 228.546263 
L 604.690395 226.849293 
L 605.886792 236.465455 
L 607.08319 200.263434 
L 608.279588 239.293737 
L 609.475986 220.344242 
L 610.672384 247.212929 
L 611.868782 248.061414 
L 613.06518 228.829091 
L 614.261578 206.202828 
L 615.457976 242.12202 
L 616.654374 233.637172 
L 617.850772 236.465455 
L 619.04717 242.970505 
L 620.243568 232.22303 
L 621.439966 248.909899 
L 622.636364 242.404848 
L 622.636364 242.404848 
" clip-path="url(#pc69d7e93d5)" style="fill: none; stroke: #1f77b4; stroke-width: 1.5; stroke-linecap: square"/>
   </g>
   <g id="line2d_26">
    <path d="M 115.363636 251.738182 
L 116.560034 249.475556 
L 117.756432 248.344242 
L 118.95283 249.475556 
L 120.149228 251.738182 
L 121.345626 250.041212 
L 122.542024 249.192727 
L 123.738422 249.192727 
L 124.93482 248.909899 
L 126.131218 249.475556 
L 127.327616 251.455354 
L 132.113208 249.192727 
L 133.309605 248.909899 
L 134.506003 250.041212 
L 136.898799 251.738182 
L 138.095197 248.909899 
L 139.291595 249.475556 
L 140.487993 250.606869 
L 141.684391 250.889697 
L 142.880789 250.606869 
L 144.077187 251.455354 
L 145.273585 251.172525 
L 146.469983 250.041212 
L 147.666381 251.172525 
L 148.862779 248.909899 
L 150.059177 249.758384 
L 151.255575 250.32404 
L 152.451973 251.172525 
L 153.64837 251.172525 
L 154.844768 247.495758 
L 156.041166 251.455354 
L 157.237564 251.455354 
L 158.433962 251.172525 
L 160.826758 251.738182 
L 162.023156 251.455354 
L 163.219554 249.475556 
L 164.415952 246.930101 
L 165.61235 248.627071 
L 166.808748 250.041212 
L 168.005146 250.041212 
L 169.201544 251.455354 
L 170.397942 250.32404 
L 171.59434 250.041212 
L 172.790738 250.889697 
L 173.987136 247.778586 
L 175.183533 249.475556 
L 176.379931 251.455354 
L 177.576329 251.738182 
L 178.772727 249.192727 
L 181.165523 249.192727 
L 182.361921 250.041212 
L 183.558319 250.32404 
L 184.754717 251.172525 
L 185.951115 251.455354 
L 187.147513 250.889697 
L 188.343911 250.606869 
L 189.540309 251.172525 
L 191.933105 251.172525 
L 193.129503 251.455354 
L 194.325901 250.889697 
L 196.718696 250.889697 
L 197.915094 251.738182 
L 199.111492 251.172525 
L 200.30789 251.172525 
L 201.504288 250.889697 
L 202.700686 249.758384 
L 203.897084 248.061414 
L 205.093482 250.041212 
L 206.28988 251.172525 
L 207.486278 250.889697 
L 208.682676 250.889697 
L 209.879074 251.172525 
L 211.075472 249.475556 
L 212.27187 248.627071 
L 213.468268 249.758384 
L 214.664666 246.930101 
L 215.861063 249.758384 
L 217.057461 250.32404 
L 218.253859 251.172525 
L 219.450257 250.606869 
L 220.646655 250.606869 
L 221.843053 248.344242 
L 223.039451 249.475556 
L 224.235849 249.192727 
L 225.432247 249.192727 
L 226.628645 250.32404 
L 227.825043 246.081616 
L 229.021441 247.778586 
L 230.217839 249.192727 
L 231.414237 247.495758 
L 232.610635 246.364444 
L 233.807033 250.889697 
L 235.003431 250.606869 
L 236.199828 248.627071 
L 237.396226 250.041212 
L 238.592624 248.061414 
L 239.789022 249.475556 
L 240.98542 249.475556 
L 242.181818 250.889697 
L 243.378216 251.172525 
L 244.574614 248.909899 
L 245.771012 248.061414 
L 246.96741 248.344242 
L 248.163808 250.889697 
L 249.360206 251.455354 
L 251.753002 250.889697 
L 252.9494 250.889697 
L 254.145798 249.475556 
L 255.342196 250.32404 
L 256.538593 248.909899 
L 257.734991 250.889697 
L 258.931389 250.32404 
L 260.127787 250.889697 
L 261.324185 249.192727 
L 262.520583 248.909899 
L 263.716981 248.909899 
L 264.913379 248.061414 
L 266.109777 250.32404 
L 267.306175 250.889697 
L 268.502573 250.889697 
L 269.698971 242.404848 
L 270.895369 248.909899 
L 272.091767 248.909899 
L 273.288165 247.495758 
L 274.484563 249.192727 
L 275.680961 250.606869 
L 276.877358 250.606869 
L 278.073756 246.364444 
L 279.270154 246.647273 
L 280.466552 248.344242 
L 281.66295 246.647273 
L 282.859348 247.495758 
L 284.055746 250.041212 
L 285.252144 250.889697 
L 286.448542 247.495758 
L 287.64494 246.081616 
L 288.841338 247.212929 
L 290.037736 247.495758 
L 291.234134 249.475556 
L 292.430532 251.172525 
L 293.62693 250.041212 
L 294.823328 247.778586 
L 296.019726 247.778586 
L 297.216123 248.627071 
L 298.412521 250.606869 
L 300.805317 251.172525 
L 302.001715 250.041212 
L 303.198113 246.364444 
L 304.394511 247.212929 
L 305.590909 248.627071 
L 306.787307 246.930101 
L 307.983705 249.758384 
L 309.180103 251.172525 
L 311.572899 249.475556 
L 312.769297 248.344242 
L 313.965695 248.627071 
L 315.162093 247.495758 
L 316.358491 249.192727 
L 317.554889 249.475556 
L 318.751286 250.889697 
L 319.947684 245.51596 
L 321.144082 248.061414 
L 322.34048 248.909899 
L 323.536878 249.192727 
L 324.733276 249.192727 
L 325.929674 250.889697 
L 327.126072 250.32404 
L 328.32247 245.798788 
L 329.518868 244.384646 
L 330.715266 246.930101 
L 331.911664 248.909899 
L 333.108062 250.32404 
L 334.30446 249.192727 
L 335.500858 250.32404 
L 336.697256 246.364444 
L 337.893654 246.647273 
L 339.090051 229.111919 
L 340.286449 248.061414 
L 341.482847 246.647273 
L 342.679245 250.606869 
L 343.875643 251.738182 
L 345.072041 249.758384 
L 346.268439 248.344242 
L 347.464837 248.344242 
L 348.661235 248.627071 
L 349.857633 247.778586 
L 352.250429 251.172525 
L 353.446827 249.192727 
L 354.643225 248.344242 
L 355.839623 246.930101 
L 357.036021 247.212929 
L 358.232419 245.798788 
L 359.428816 250.606869 
L 360.625214 251.738182 
L 361.821612 245.798788 
L 363.01801 247.212929 
L 364.214408 249.475556 
L 365.410806 247.495758 
L 366.607204 248.344242 
L 367.803602 251.455354 
L 369 250.32404 
L 370.196398 248.344242 
L 371.392796 249.475556 
L 372.589194 248.061414 
L 373.785592 246.364444 
L 376.178388 250.889697 
L 377.374786 251.172525 
L 378.571184 249.192727 
L 379.767581 247.778586 
L 380.963979 250.041212 
L 382.160377 249.475556 
L 383.356775 249.475556 
L 385.749571 250.041212 
L 386.945969 246.930101 
L 388.142367 248.909899 
L 389.338765 248.909899 
L 390.535163 250.041212 
L 391.731561 249.192727 
L 392.927959 251.172525 
L 394.124357 250.32404 
L 395.320755 248.344242 
L 396.517153 249.192727 
L 397.713551 248.909899 
L 398.909949 248.344242 
L 400.106346 249.192727 
L 401.302744 251.172525 
L 402.499142 250.889697 
L 403.69554 247.495758 
L 404.891938 250.606869 
L 406.088336 249.758384 
L 407.284734 249.192727 
L 408.481132 245.798788 
L 409.67753 251.172525 
L 410.873928 250.606869 
L 412.070326 249.758384 
L 413.266724 250.32404 
L 414.463122 248.909899 
L 415.65952 248.061414 
L 416.855918 249.192727 
L 418.052316 250.889697 
L 419.248714 250.889697 
L 420.445111 249.475556 
L 421.641509 247.212929 
L 422.837907 247.212929 
L 424.034305 250.32404 
L 425.230703 248.627071 
L 426.427101 250.606869 
L 427.623499 249.475556 
L 428.819897 247.778586 
L 430.016295 248.627071 
L 431.212693 248.627071 
L 432.409091 247.778586 
L 433.605489 248.061414 
L 434.801887 251.172525 
L 435.998285 251.738182 
L 437.194683 250.041212 
L 438.391081 250.041212 
L 439.587479 250.32404 
L 440.783877 250.32404 
L 441.980274 250.606869 
L 444.37307 251.738182 
L 445.569468 250.32404 
L 446.765866 249.475556 
L 447.962264 249.758384 
L 449.158662 248.627071 
L 450.35506 251.172525 
L 451.551458 250.32404 
L 452.747856 251.738182 
L 453.944254 250.32404 
L 455.140652 250.32404 
L 456.33705 248.344242 
L 457.533448 247.778586 
L 458.729846 249.475556 
L 459.926244 250.606869 
L 461.122642 250.606869 
L 462.319039 248.627071 
L 463.515437 249.475556 
L 464.711835 249.758384 
L 465.908233 249.758384 
L 467.104631 248.909899 
L 468.301029 249.192727 
L 469.497427 250.606869 
L 470.693825 248.344242 
L 471.890223 251.455354 
L 473.086621 249.758384 
L 474.283019 249.758384 
L 475.479417 251.172525 
L 476.675815 250.889697 
L 477.872213 250.041212 
L 479.068611 250.041212 
L 480.265009 249.192727 
L 481.461407 249.475556 
L 482.657804 251.172525 
L 483.854202 250.889697 
L 485.0506 251.455354 
L 486.246998 250.606869 
L 488.639794 250.041212 
L 489.836192 248.627071 
L 491.03259 249.192727 
L 492.228988 250.32404 
L 493.425386 250.889697 
L 494.621784 250.32404 
L 495.818182 251.455354 
L 497.01458 250.889697 
L 498.210978 249.192727 
L 499.407376 250.041212 
L 500.603774 251.172525 
L 501.800172 248.344242 
L 502.996569 251.455354 
L 504.192967 251.172525 
L 505.389365 248.061414 
L 507.782161 249.192727 
L 508.978559 250.32404 
L 510.174957 249.758384 
L 511.371355 251.172525 
L 512.567753 250.606869 
L 513.764151 247.778586 
L 514.960549 249.758384 
L 516.156947 249.192727 
L 517.353345 249.758384 
L 518.549743 249.758384 
L 519.746141 251.455354 
L 520.942539 251.455354 
L 522.138937 250.889697 
L 523.335334 248.344242 
L 525.72813 248.344242 
L 526.924528 249.758384 
L 528.120926 249.758384 
L 529.317324 248.909899 
L 530.513722 248.627071 
L 531.71012 247.212929 
L 532.906518 249.475556 
L 534.102916 247.495758 
L 535.299314 250.041212 
L 536.495712 251.172525 
L 537.69211 250.32404 
L 538.888508 249.758384 
L 540.084906 248.061414 
L 541.281304 248.344242 
L 542.477702 249.192727 
L 543.674099 249.758384 
L 544.870497 250.041212 
L 546.066895 247.495758 
L 547.263293 248.344242 
L 548.459691 250.606869 
L 549.656089 249.475556 
L 552.048885 248.909899 
L 553.245283 249.475556 
L 554.441681 247.495758 
L 555.638079 250.041212 
L 556.834477 250.32404 
L 558.030875 248.344242 
L 559.227273 248.909899 
L 560.423671 250.889697 
L 561.620069 250.32404 
L 562.816467 249.475556 
L 564.012864 250.889697 
L 565.209262 249.192727 
L 566.40566 248.627071 
L 567.602058 248.909899 
L 568.798456 251.172525 
L 569.994854 251.172525 
L 571.191252 249.192727 
L 572.38765 250.32404 
L 573.584048 247.778586 
L 575.976844 250.041212 
L 577.173242 250.606869 
L 578.36964 250.041212 
L 579.566038 248.909899 
L 580.762436 247.212929 
L 581.958834 248.344242 
L 583.155232 247.778586 
L 584.35163 248.909899 
L 585.548027 250.606869 
L 586.744425 250.889697 
L 587.940823 249.192727 
L 589.137221 250.606869 
L 590.333619 249.758384 
L 591.530017 250.041212 
L 592.726415 251.455354 
L 593.922813 250.889697 
L 595.119211 250.889697 
L 596.315609 251.455354 
L 597.512007 249.475556 
L 598.708405 250.32404 
L 599.904803 248.909899 
L 601.101201 250.606869 
L 602.297599 251.172525 
L 604.690395 248.909899 
L 605.886792 249.475556 
L 607.08319 249.475556 
L 608.279588 246.647273 
L 609.475986 246.364444 
L 610.672384 250.32404 
L 611.868782 250.32404 
L 613.06518 248.627071 
L 614.261578 248.627071 
L 615.457976 250.32404 
L 617.850772 249.192727 
L 619.04717 250.32404 
L 620.243568 250.606869 
L 621.439966 250.606869 
L 622.636364 249.475556 
L 622.636364 249.475556 
" clip-path="url(#pc69d7e93d5)" style="fill: none; stroke: #ff7f0e; stroke-width: 1.5; stroke-linecap: square"/>
   </g>
   <g id="patch_9">
    <path d="M 90 256.32 
L 90 155.52 
" style="fill: none; stroke: #000000; stroke-width: 0.8; stroke-linejoin: miter; stroke-linecap: square"/>
   </g>
   <g id="patch_10">
    <path d="M 648 256.32 
L 648 155.52 
" style="fill: none; stroke: #000000; stroke-width: 0.8; stroke-linejoin: miter; stroke-linecap: square"/>
   </g>
   <g id="patch_11">
    <path d="M 90 256.32 
L 648 256.32 
" style="fill: none; stroke: #000000; stroke-width: 0.8; stroke-linejoin: miter; stroke-linecap: square"/>
   </g>
   <g id="patch_12">
    <path d="M 90 155.52 
L 648 155.52 
" style="fill: none; stroke: #000000; stroke-width: 0.8; stroke-linejoin: miter; stroke-linecap: square"/>
   </g>
   <g id="legend_2">
    <g id="patch_13">
     <path d="M 97 192.87625 
L 234.217188 192.87625 
Q 236.217188 192.87625 236.217188 190.87625 
L 236.217188 162.52 
Q 236.217188 160.52 234.217188 160.52 
L 97 160.52 
Q 95 160.52 95 162.52 
L 95 190.87625 
Q 95 192.87625 97 192.87625 
z
" style="fill: #ffffff; opacity: 0.8; stroke: #cccccc; stroke-linejoin: miter"/>
    </g>
    <g id="line2d_27">
     <path d="M 99 168.618437 
L 109 168.618437 
L 119 168.618437 
" style="fill: none; stroke: #1f77b4; stroke-width: 1.5; stroke-linecap: square"/>
    </g>
    <g id="text_25">
     <!-- Total GitHub Views -->
     <g transform="translate(127 172.118437)scale(0.1 -0.1)">
      <defs>
       <path id="DejaVuSans-56" d="M 1831 0 
L 50 4666 
L 709 4666 
L 2188 738 
L 3669 4666 
L 4325 4666 
L 2547 0 
L 1831 0 
z
" transform="scale(0.015625)"/>
       <path id="DejaVuSans-77" d="M 269 3500 
L 844 3500 
L 1563 769 
L 2278 3500 
L 2956 3500 
L 3675 769 
L 4391 3500 
L 4966 3500 
L 4050 0 
L 3372 0 
L 2619 2869 
L 1863 0 
L 1184 0 
L 269 3500 
z
" transform="scale(0.015625)"/>
      </defs>
      <use xlink:href="#DejaVuSans-54"/>
      <use xlink:href="#DejaVuSans-6f" x="44.083984"/>
      <use xlink:href="#DejaVuSans-74" x="105.265625"/>
      <use xlink:href="#DejaVuSans-61" x="144.474609"/>
      <use xlink:href="#DejaVuSans-6c" x="205.753906"/>
      <use xlink:href="#DejaVuSans-20" x="233.537109"/>
      <use xlink:href="#DejaVuSans-47" x="265.324219"/>
      <use xlink:href="#DejaVuSans-69" x="342.814453"/>
      <use xlink:href="#DejaVuSans-74" x="370.597656"/>
      <use xlink:href="#DejaVuSans-48" x="409.806641"/>
      <use xlink:href="#DejaVuSans-75" x="485.001953"/>
      <use xlink:href="#DejaVuSans-62" x="548.380859"/>
      <use xlink:href="#DejaVuSans-20" x="611.857422"/>
      <use xlink:href="#DejaVuSans-56" x="643.644531"/>
      <use xlink:href="#DejaVuSans-69" x="709.802734"/>
      <use xlink:href="#DejaVuSans-65" x="737.585938"/>
      <use xlink:href="#DejaVuSans-77" x="799.109375"/>
      <use xlink:href="#DejaVuSans-73" x="880.896484"/>
     </g>
    </g>
    <g id="line2d_28">
     <path d="M 99 183.296562 
L 109 183.296562 
L 119 183.296562 
" style="fill: none; stroke: #ff7f0e; stroke-width: 1.5; stroke-linecap: square"/>
    </g>
    <g id="text_26">
     <!-- Unique GitHub Views -->
     <g transform="translate(127 186.796562)scale(0.1 -0.1)">
      <use xlink:href="#DejaVuSans-55"/>
      <use xlink:href="#DejaVuSans-6e" x="73.193359"/>
      <use xlink:href="#DejaVuSans-69" x="136.572266"/>
      <use xlink:href="#DejaVuSans-71" x="164.355469"/>
      <use xlink:href="#DejaVuSans-75" x="227.832031"/>
      <use xlink:href="#DejaVuSans-65" x="291.210938"/>
      <use xlink:href="#DejaVuSans-20" x="352.734375"/>
      <use xlink:href="#DejaVuSans-47" x="384.521484"/>
      <use xlink:href="#DejaVuSans-69" x="462.011719"/>
      <use xlink:href="#DejaVuSans-74" x="489.794922"/>
      <use xlink:href="#DejaVuSans-48" x="529.003906"/>
      <use xlink:href="#DejaVuSans-75" x="604.199219"/>
      <use xlink:href="#DejaVuSans-62" x="667.578125"/>
      <use xlink:href="#DejaVuSans-20" x="731.054688"/>
      <use xlink:href="#DejaVuSans-56" x="762.841797"/>
      <use xlink:href="#DejaVuSans-69" x="829"/>
      <use xlink:href="#DejaVuSans-65" x="856.783203"/>
      <use xlink:href="#DejaVuSans-77" x="918.306641"/>
      <use xlink:href="#DejaVuSans-73" x="1000.09375"/>
     </g>
    </g>
   </g>
  </g>
 </g>
 <defs>
  <clipPath id="pa618285330">
   <rect x="90" y="34.56" width="558" height="100.8"/>
  </clipPath>
  <clipPath id="pc69d7e93d5">
   <rect x="90" y="155.52" width="558" height="100.8"/>
  </clipPath>
 </defs>
</svg>
