<?xml version="1.0" encoding="utf-8" standalone="no"?>
<!DOCTYPE svg PUBLIC "-//W3C//DTD SVG 1.1//EN"
  "http://www.w3.org/Graphics/SVG/1.1/DTD/svg11.dtd">
<svg xmlns:xlink="http://www.w3.org/1999/xlink" width="720pt" height="288pt" viewBox="0 0 720 288" xmlns="http://www.w3.org/2000/svg" version="1.1">
 <metadata>
  <rdf:RDF xmlns:dc="http://purl.org/dc/elements/1.1/" xmlns:cc="http://creativecommons.org/ns#" xmlns:rdf="http://www.w3.org/1999/02/22-rdf-syntax-ns#">
   <cc:Work>
    <dc:type rdf:resource="http://purl.org/dc/dcmitype/StillImage"/>
    <dc:date>2022-04-04T00:40:13.510567</dc:date>
    <dc:format>image/svg+xml</dc:format>
    <dc:creator>
     <cc:Agent>
      <dc:title>Matplotlib v3.5.1, https://matplotlib.org/</dc:title>
     </cc:Agent>
    </dc:creator>
   </cc:Work>
  </rdf:RDF>
 </metadata>
 <defs>
  <style type="text/css">*{stroke-linejoin: round; stroke-linecap: butt}</style>
 </defs>
 <g id="figure_1">
  <g id="patch_1">
   <path d="M 0 288 
L 720 288 
L 720 0 
L 0 0 
z
" style="fill: #ffffff"/>
  </g>
  <g id="axes_1">
   <g id="patch_2">
    <path d="M 90 135.36 
L 648 135.36 
L 648 34.56 
L 90 34.56 
z
" style="fill: #ffffff"/>
   </g>
   <g id="matplotlib.axis_1">
    <g id="xtick_1">
     <g id="line2d_1">
      <defs>
       <path id="m3ee85bc31c" d="M 0 0 
L 0 3.5 
" style="stroke: #000000; stroke-width: 0.8"/>
      </defs>
      <g>
       <use xlink:href="#m3ee85bc31c" x="115.363636" y="135.36" style="stroke: #000000; stroke-width: 0.8"/>
      </g>
     </g>
     <g id="text_1">
      <!-- 2020-10-22 -->
      <g transform="translate(86.305824 149.958437)scale(0.1 -0.1)">
       <defs>
        <path id="DejaVuSans-32" d="M 1228 531 
L 3431 531 
L 3431 0 
L 469 0 
L 469 531 
Q 828 903 1448 1529 
Q 2069 2156 2228 2338 
Q 2531 2678 2651 2914 
Q 2772 3150 2772 3378 
Q 2772 3750 2511 3984 
Q 2250 4219 1831 4219 
Q 1534 4219 1204 4116 
Q 875 4013 500 3803 
L 500 4441 
Q 881 4594 1212 4672 
Q 1544 4750 1819 4750 
Q 2544 4750 2975 4387 
Q 3406 4025 3406 3419 
Q 3406 3131 3298 2873 
Q 3191 2616 2906 2266 
Q 2828 2175 2409 1742 
Q 1991 1309 1228 531 
z
" transform="scale(0.015625)"/>
        <path id="DejaVuSans-30" d="M 2034 4250 
Q 1547 4250 1301 3770 
Q 1056 3291 1056 2328 
Q 1056 1369 1301 889 
Q 1547 409 2034 409 
Q 2525 409 2770 889 
Q 3016 1369 3016 2328 
Q 3016 3291 2770 3770 
Q 2525 4250 2034 4250 
z
M 2034 4750 
Q 2819 4750 3233 4129 
Q 3647 3509 3647 2328 
Q 3647 1150 3233 529 
Q 2819 -91 2034 -91 
Q 1250 -91 836 529 
Q 422 1150 422 2328 
Q 422 3509 836 4129 
Q 1250 4750 2034 4750 
z
" transform="scale(0.015625)"/>
        <path id="DejaVuSans-2d" d="M 313 2009 
L 1997 2009 
L 1997 1497 
L 313 1497 
L 313 2009 
z
" transform="scale(0.015625)"/>
        <path id="DejaVuSans-31" d="M 794 531 
L 1825 531 
L 1825 4091 
L 703 3866 
L 703 4441 
L 1819 4666 
L 2450 4666 
L 2450 531 
L 3481 531 
L 3481 0 
L 794 0 
L 794 531 
z
" transform="scale(0.015625)"/>
       </defs>
       <use xlink:href="#DejaVuSans-32"/>
       <use xlink:href="#DejaVuSans-30" x="63.623047"/>
       <use xlink:href="#DejaVuSans-32" x="127.246094"/>
       <use xlink:href="#DejaVuSans-30" x="190.869141"/>
       <use xlink:href="#DejaVuSans-2d" x="254.492188"/>
       <use xlink:href="#DejaVuSans-31" x="290.576172"/>
       <use xlink:href="#DejaVuSans-30" x="354.199219"/>
       <use xlink:href="#DejaVuSans-2d" x="417.822266"/>
       <use xlink:href="#DejaVuSans-32" x="453.90625"/>
       <use xlink:href="#DejaVuSans-32" x="517.529297"/>
      </g>
     </g>
    </g>
    <g id="xtick_2">
     <g id="line2d_2">
      <g>
       <use xlink:href="#m3ee85bc31c" x="177.377417" y="135.36" style="stroke: #000000; stroke-width: 0.8"/>
      </g>
     </g>
     <g id="text_2">
      <!-- 2021-01-05 -->
      <g transform="translate(148.319605 149.958437)scale(0.1 -0.1)">
       <defs>
        <path id="DejaVuSans-35" d="M 691 4666 
L 3169 4666 
L 3169 4134 
L 1269 4134 
L 1269 2991 
Q 1406 3038 1543 3061 
Q 1681 3084 1819 3084 
Q 2600 3084 3056 2656 
Q 3513 2228 3513 1497 
Q 3513 744 3044 326 
Q 2575 -91 1722 -91 
Q 1428 -91 1123 -41 
Q 819 9 494 109 
L 494 744 
Q 775 591 1075 516 
Q 1375 441 1709 441 
Q 2250 441 2565 725 
Q 2881 1009 2881 1497 
Q 2881 1984 2565 2268 
Q 2250 2553 1709 2553 
Q 1456 2553 1204 2497 
Q 953 2441 691 2322 
L 691 4666 
z
" transform="scale(0.015625)"/>
       </defs>
       <use xlink:href="#DejaVuSans-32"/>
       <use xlink:href="#DejaVuSans-30" x="63.623047"/>
       <use xlink:href="#DejaVuSans-32" x="127.246094"/>
       <use xlink:href="#DejaVuSans-31" x="190.869141"/>
       <use xlink:href="#DejaVuSans-2d" x="254.492188"/>
       <use xlink:href="#DejaVuSans-30" x="290.576172"/>
       <use xlink:href="#DejaVuSans-31" x="354.199219"/>
       <use xlink:href="#DejaVuSans-2d" x="417.822266"/>
       <use xlink:href="#DejaVuSans-30" x="453.90625"/>
       <use xlink:href="#DejaVuSans-35" x="517.529297"/>
      </g>
     </g>
    </g>
    <g id="xtick_3">
     <g id="line2d_3">
      <g>
       <use xlink:href="#m3ee85bc31c" x="239.391198" y="135.36" style="stroke: #000000; stroke-width: 0.8"/>
      </g>
     </g>
     <g id="text_3">
      <!-- 2021-03-17 -->
      <g transform="translate(210.333386 149.958437)scale(0.1 -0.1)">
       <defs>
        <path id="DejaVuSans-33" d="M 2597 2516 
Q 3050 2419 3304 2112 
Q 3559 1806 3559 1356 
Q 3559 666 3084 287 
Q 2609 -91 1734 -91 
Q 1441 -91 1130 -33 
Q 819 25 488 141 
L 488 750 
Q 750 597 1062 519 
Q 1375 441 1716 441 
Q 2309 441 2620 675 
Q 2931 909 2931 1356 
Q 2931 1769 2642 2001 
Q 2353 2234 1838 2234 
L 1294 2234 
L 1294 2753 
L 1863 2753 
Q 2328 2753 2575 2939 
Q 2822 3125 2822 3475 
Q 2822 3834 2567 4026 
Q 2313 4219 1838 4219 
Q 1578 4219 1281 4162 
Q 984 4106 628 3988 
L 628 4550 
Q 988 4650 1302 4700 
Q 1616 4750 1894 4750 
Q 2613 4750 3031 4423 
Q 3450 4097 3450 3541 
Q 3450 3153 3228 2886 
Q 3006 2619 2597 2516 
z
" transform="scale(0.015625)"/>
        <path id="DejaVuSans-37" d="M 525 4666 
L 3525 4666 
L 3525 4397 
L 1831 0 
L 1172 0 
L 2766 4134 
L 525 4134 
L 525 4666 
z
" transform="scale(0.015625)"/>
       </defs>
       <use xlink:href="#DejaVuSans-32"/>
       <use xlink:href="#DejaVuSans-30" x="63.623047"/>
       <use xlink:href="#DejaVuSans-32" x="127.246094"/>
       <use xlink:href="#DejaVuSans-31" x="190.869141"/>
       <use xlink:href="#DejaVuSans-2d" x="254.492188"/>
       <use xlink:href="#DejaVuSans-30" x="290.576172"/>
       <use xlink:href="#DejaVuSans-33" x="354.199219"/>
       <use xlink:href="#DejaVuSans-2d" x="417.822266"/>
       <use xlink:href="#DejaVuSans-31" x="453.90625"/>
       <use xlink:href="#DejaVuSans-37" x="517.529297"/>
      </g>
     </g>
    </g>
    <g id="xtick_4">
     <g id="line2d_4">
      <g>
       <use xlink:href="#m3ee85bc31c" x="301.404979" y="135.36" style="stroke: #000000; stroke-width: 0.8"/>
      </g>
     </g>
     <g id="text_4">
      <!-- 2021-05-10 -->
      <g transform="translate(272.347166 149.958437)scale(0.1 -0.1)">
       <use xlink:href="#DejaVuSans-32"/>
       <use xlink:href="#DejaVuSans-30" x="63.623047"/>
       <use xlink:href="#DejaVuSans-32" x="127.246094"/>
       <use xlink:href="#DejaVuSans-31" x="190.869141"/>
       <use xlink:href="#DejaVuSans-2d" x="254.492188"/>
       <use xlink:href="#DejaVuSans-30" x="290.576172"/>
       <use xlink:href="#DejaVuSans-35" x="354.199219"/>
       <use xlink:href="#DejaVuSans-2d" x="417.822266"/>
       <use xlink:href="#DejaVuSans-31" x="453.90625"/>
       <use xlink:href="#DejaVuSans-30" x="517.529297"/>
      </g>
     </g>
    </g>
    <g id="xtick_5">
     <g id="line2d_5">
      <g>
       <use xlink:href="#m3ee85bc31c" x="363.41876" y="135.36" style="stroke: #000000; stroke-width: 0.8"/>
      </g>
     </g>
     <g id="text_5">
      <!-- 2021-07-07 -->
      <g transform="translate(334.360947 149.958437)scale(0.1 -0.1)">
       <use xlink:href="#DejaVuSans-32"/>
       <use xlink:href="#DejaVuSans-30" x="63.623047"/>
       <use xlink:href="#DejaVuSans-32" x="127.246094"/>
       <use xlink:href="#DejaVuSans-31" x="190.869141"/>
       <use xlink:href="#DejaVuSans-2d" x="254.492188"/>
       <use xlink:href="#DejaVuSans-30" x="290.576172"/>
       <use xlink:href="#DejaVuSans-37" x="354.199219"/>
       <use xlink:href="#DejaVuSans-2d" x="417.822266"/>
       <use xlink:href="#DejaVuSans-30" x="453.90625"/>
       <use xlink:href="#DejaVuSans-37" x="517.529297"/>
      </g>
     </g>
    </g>
    <g id="xtick_6">
     <g id="line2d_6">
      <g>
       <use xlink:href="#m3ee85bc31c" x="425.432541" y="135.36" style="stroke: #000000; stroke-width: 0.8"/>
      </g>
     </g>
     <g id="text_6">
      <!-- 2021-09-14 -->
      <g transform="translate(396.374728 149.958437)scale(0.1 -0.1)">
       <defs>
        <path id="DejaVuSans-39" d="M 703 97 
L 703 672 
Q 941 559 1184 500 
Q 1428 441 1663 441 
Q 2288 441 2617 861 
Q 2947 1281 2994 2138 
Q 2813 1869 2534 1725 
Q 2256 1581 1919 1581 
Q 1219 1581 811 2004 
Q 403 2428 403 3163 
Q 403 3881 828 4315 
Q 1253 4750 1959 4750 
Q 2769 4750 3195 4129 
Q 3622 3509 3622 2328 
Q 3622 1225 3098 567 
Q 2575 -91 1691 -91 
Q 1453 -91 1209 -44 
Q 966 3 703 97 
z
M 1959 2075 
Q 2384 2075 2632 2365 
Q 2881 2656 2881 3163 
Q 2881 3666 2632 3958 
Q 2384 4250 1959 4250 
Q 1534 4250 1286 3958 
Q 1038 3666 1038 3163 
Q 1038 2656 1286 2365 
Q 1534 2075 1959 2075 
z
" transform="scale(0.015625)"/>
        <path id="DejaVuSans-34" d="M 2419 4116 
L 825 1625 
L 2419 1625 
L 2419 4116 
z
M 2253 4666 
L 3047 4666 
L 3047 1625 
L 3713 1625 
L 3713 1100 
L 3047 1100 
L 3047 0 
L 2419 0 
L 2419 1100 
L 313 1100 
L 313 1709 
L 2253 4666 
z
" transform="scale(0.015625)"/>
       </defs>
       <use xlink:href="#DejaVuSans-32"/>
       <use xlink:href="#DejaVuSans-30" x="63.623047"/>
       <use xlink:href="#DejaVuSans-32" x="127.246094"/>
       <use xlink:href="#DejaVuSans-31" x="190.869141"/>
       <use xlink:href="#DejaVuSans-2d" x="254.492188"/>
       <use xlink:href="#DejaVuSans-30" x="290.576172"/>
       <use xlink:href="#DejaVuSans-39" x="354.199219"/>
       <use xlink:href="#DejaVuSans-2d" x="417.822266"/>
       <use xlink:href="#DejaVuSans-31" x="453.90625"/>
       <use xlink:href="#DejaVuSans-34" x="517.529297"/>
      </g>
     </g>
    </g>
    <g id="xtick_7">
     <g id="line2d_7">
      <g>
       <use xlink:href="#m3ee85bc31c" x="487.446321" y="135.36" style="stroke: #000000; stroke-width: 0.8"/>
      </g>
     </g>
     <g id="text_7">
      <!-- 2021-11-18 -->
      <g transform="translate(458.388509 149.958437)scale(0.1 -0.1)">
       <defs>
        <path id="DejaVuSans-38" d="M 2034 2216 
Q 1584 2216 1326 1975 
Q 1069 1734 1069 1313 
Q 1069 891 1326 650 
Q 1584 409 2034 409 
Q 2484 409 2743 651 
Q 3003 894 3003 1313 
Q 3003 1734 2745 1975 
Q 2488 2216 2034 2216 
z
M 1403 2484 
Q 997 2584 770 2862 
Q 544 3141 544 3541 
Q 544 4100 942 4425 
Q 1341 4750 2034 4750 
Q 2731 4750 3128 4425 
Q 3525 4100 3525 3541 
Q 3525 3141 3298 2862 
Q 3072 2584 2669 2484 
Q 3125 2378 3379 2068 
Q 3634 1759 3634 1313 
Q 3634 634 3220 271 
Q 2806 -91 2034 -91 
Q 1263 -91 848 271 
Q 434 634 434 1313 
Q 434 1759 690 2068 
Q 947 2378 1403 2484 
z
M 1172 3481 
Q 1172 3119 1398 2916 
Q 1625 2713 2034 2713 
Q 2441 2713 2670 2916 
Q 2900 3119 2900 3481 
Q 2900 3844 2670 4047 
Q 2441 4250 2034 4250 
Q 1625 4250 1398 4047 
Q 1172 3844 1172 3481 
z
" transform="scale(0.015625)"/>
       </defs>
       <use xlink:href="#DejaVuSans-32"/>
       <use xlink:href="#DejaVuSans-30" x="63.623047"/>
       <use xlink:href="#DejaVuSans-32" x="127.246094"/>
       <use xlink:href="#DejaVuSans-31" x="190.869141"/>
       <use xlink:href="#DejaVuSans-2d" x="254.492188"/>
       <use xlink:href="#DejaVuSans-31" x="290.576172"/>
       <use xlink:href="#DejaVuSans-31" x="354.199219"/>
       <use xlink:href="#DejaVuSans-2d" x="417.822266"/>
       <use xlink:href="#DejaVuSans-31" x="453.90625"/>
       <use xlink:href="#DejaVuSans-38" x="517.529297"/>
      </g>
     </g>
    </g>
    <g id="xtick_8">
     <g id="line2d_8">
      <g>
       <use xlink:href="#m3ee85bc31c" x="549.460102" y="135.36" style="stroke: #000000; stroke-width: 0.8"/>
      </g>
     </g>
     <g id="text_8">
      <!-- 2022-01-20 -->
      <g transform="translate(520.40229 149.958437)scale(0.1 -0.1)">
       <use xlink:href="#DejaVuSans-32"/>
       <use xlink:href="#DejaVuSans-30" x="63.623047"/>
       <use xlink:href="#DejaVuSans-32" x="127.246094"/>
       <use xlink:href="#DejaVuSans-32" x="190.869141"/>
       <use xlink:href="#DejaVuSans-2d" x="254.492188"/>
       <use xlink:href="#DejaVuSans-30" x="290.576172"/>
       <use xlink:href="#DejaVuSans-31" x="354.199219"/>
       <use xlink:href="#DejaVuSans-2d" x="417.822266"/>
       <use xlink:href="#DejaVuSans-32" x="453.90625"/>
       <use xlink:href="#DejaVuSans-30" x="517.529297"/>
      </g>
     </g>
    </g>
    <g id="xtick_9">
     <g id="line2d_9">
      <g>
       <use xlink:href="#m3ee85bc31c" x="611.473883" y="135.36" style="stroke: #000000; stroke-width: 0.8"/>
      </g>
     </g>
     <g id="text_9">
      <!-- 2022-03-21 -->
      <g transform="translate(582.416071 149.958437)scale(0.1 -0.1)">
       <use xlink:href="#DejaVuSans-32"/>
       <use xlink:href="#DejaVuSans-30" x="63.623047"/>
       <use xlink:href="#DejaVuSans-32" x="127.246094"/>
       <use xlink:href="#DejaVuSans-32" x="190.869141"/>
       <use xlink:href="#DejaVuSans-2d" x="254.492188"/>
       <use xlink:href="#DejaVuSans-30" x="290.576172"/>
       <use xlink:href="#DejaVuSans-33" x="354.199219"/>
       <use xlink:href="#DejaVuSans-2d" x="417.822266"/>
       <use xlink:href="#DejaVuSans-32" x="453.90625"/>
       <use xlink:href="#DejaVuSans-31" x="517.529297"/>
      </g>
     </g>
    </g>
    <g id="text_10">
     <!-- _date -->
     <g transform="translate(355.225 163.636562)scale(0.1 -0.1)">
      <defs>
       <path id="DejaVuSans-5f" d="M 3263 -1063 
L 3263 -1509 
L -63 -1509 
L -63 -1063 
L 3263 -1063 
z
" transform="scale(0.015625)"/>
       <path id="DejaVuSans-64" d="M 2906 2969 
L 2906 4863 
L 3481 4863 
L 3481 0 
L 2906 0 
L 2906 525 
Q 2725 213 2448 61 
Q 2172 -91 1784 -91 
Q 1150 -91 751 415 
Q 353 922 353 1747 
Q 353 2572 751 3078 
Q 1150 3584 1784 3584 
Q 2172 3584 2448 3432 
Q 2725 3281 2906 2969 
z
M 947 1747 
Q 947 1113 1208 752 
Q 1469 391 1925 391 
Q 2381 391 2643 752 
Q 2906 1113 2906 1747 
Q 2906 2381 2643 2742 
Q 2381 3103 1925 3103 
Q 1469 3103 1208 2742 
Q 947 2381 947 1747 
z
" transform="scale(0.015625)"/>
       <path id="DejaVuSans-61" d="M 2194 1759 
Q 1497 1759 1228 1600 
Q 959 1441 959 1056 
Q 959 750 1161 570 
Q 1363 391 1709 391 
Q 2188 391 2477 730 
Q 2766 1069 2766 1631 
L 2766 1759 
L 2194 1759 
z
M 3341 1997 
L 3341 0 
L 2766 0 
L 2766 531 
Q 2569 213 2275 61 
Q 1981 -91 1556 -91 
Q 1019 -91 701 211 
Q 384 513 384 1019 
Q 384 1609 779 1909 
Q 1175 2209 1959 2209 
L 2766 2209 
L 2766 2266 
Q 2766 2663 2505 2880 
Q 2244 3097 1772 3097 
Q 1472 3097 1187 3025 
Q 903 2953 641 2809 
L 641 3341 
Q 956 3463 1253 3523 
Q 1550 3584 1831 3584 
Q 2591 3584 2966 3190 
Q 3341 2797 3341 1997 
z
" transform="scale(0.015625)"/>
       <path id="DejaVuSans-74" d="M 1172 4494 
L 1172 3500 
L 2356 3500 
L 2356 3053 
L 1172 3053 
L 1172 1153 
Q 1172 725 1289 603 
Q 1406 481 1766 481 
L 2356 481 
L 2356 0 
L 1766 0 
Q 1100 0 847 248 
Q 594 497 594 1153 
L 594 3053 
L 172 3053 
L 172 3500 
L 594 3500 
L 594 4494 
L 1172 4494 
z
" transform="scale(0.015625)"/>
       <path id="DejaVuSans-65" d="M 3597 1894 
L 3597 1613 
L 953 1613 
Q 991 1019 1311 708 
Q 1631 397 2203 397 
Q 2534 397 2845 478 
Q 3156 559 3463 722 
L 3463 178 
Q 3153 47 2828 -22 
Q 2503 -91 2169 -91 
Q 1331 -91 842 396 
Q 353 884 353 1716 
Q 353 2575 817 3079 
Q 1281 3584 2069 3584 
Q 2775 3584 3186 3129 
Q 3597 2675 3597 1894 
z
M 3022 2063 
Q 3016 2534 2758 2815 
Q 2500 3097 2075 3097 
Q 1594 3097 1305 2825 
Q 1016 2553 972 2059 
L 3022 2063 
z
" transform="scale(0.015625)"/>
      </defs>
      <use xlink:href="#DejaVuSans-5f"/>
      <use xlink:href="#DejaVuSans-64" x="50"/>
      <use xlink:href="#DejaVuSans-61" x="113.476562"/>
      <use xlink:href="#DejaVuSans-74" x="174.755859"/>
      <use xlink:href="#DejaVuSans-65" x="213.964844"/>
     </g>
    </g>
   </g>
   <g id="matplotlib.axis_2">
    <g id="ytick_1">
     <g id="line2d_10">
      <defs>
       <path id="med5782ec7c" d="M 0 0 
L -3.5 0 
" style="stroke: #000000; stroke-width: 0.8"/>
      </defs>
      <g>
       <use xlink:href="#med5782ec7c" x="90" y="131.401558" style="stroke: #000000; stroke-width: 0.8"/>
      </g>
     </g>
     <g id="text_11">
      <!-- 0 -->
      <g transform="translate(76.6375 135.200777)scale(0.1 -0.1)">
       <use xlink:href="#DejaVuSans-30"/>
      </g>
     </g>
    </g>
    <g id="ytick_2">
     <g id="line2d_11">
      <g>
       <use xlink:href="#med5782ec7c" x="90" y="100.232727" style="stroke: #000000; stroke-width: 0.8"/>
      </g>
     </g>
     <g id="text_12">
      <!-- 50 -->
      <g transform="translate(70.275 104.031946)scale(0.1 -0.1)">
       <use xlink:href="#DejaVuSans-35"/>
       <use xlink:href="#DejaVuSans-30" x="63.623047"/>
      </g>
     </g>
    </g>
    <g id="ytick_3">
     <g id="line2d_12">
      <g>
       <use xlink:href="#med5782ec7c" x="90" y="69.063896" style="stroke: #000000; stroke-width: 0.8"/>
      </g>
     </g>
     <g id="text_13">
      <!-- 100 -->
      <g transform="translate(63.9125 72.863115)scale(0.1 -0.1)">
       <use xlink:href="#DejaVuSans-31"/>
       <use xlink:href="#DejaVuSans-30" x="63.623047"/>
       <use xlink:href="#DejaVuSans-30" x="127.246094"/>
      </g>
     </g>
    </g>
    <g id="ytick_4">
     <g id="line2d_13">
      <g>
       <use xlink:href="#med5782ec7c" x="90" y="37.895065" style="stroke: #000000; stroke-width: 0.8"/>
      </g>
     </g>
     <g id="text_14">
      <!-- 150 -->
      <g transform="translate(63.9125 41.694284)scale(0.1 -0.1)">
       <use xlink:href="#DejaVuSans-31"/>
       <use xlink:href="#DejaVuSans-35" x="63.623047"/>
       <use xlink:href="#DejaVuSans-30" x="127.246094"/>
      </g>
     </g>
    </g>
   </g>
   <g id="line2d_14">
    <path d="M 115.363636 127.661299 
L 116.603912 128.284675 
L 117.844188 130.778182 
L 119.084463 130.778182 
L 120.324739 129.531429 
L 121.565014 129.531429 
L 122.80529 120.804156 
L 124.045566 120.804156 
L 125.285841 130.778182 
L 126.526117 130.778182 
L 127.766393 124.544416 
L 129.006668 126.414545 
L 130.246944 130.778182 
L 131.487219 127.661299 
L 132.727495 128.908052 
L 133.967771 128.908052 
L 135.208046 130.778182 
L 137.688597 128.284675 
L 138.928873 130.154805 
L 140.169149 130.778182 
L 141.409424 130.154805 
L 142.6497 130.154805 
L 143.889976 129.531429 
L 145.130251 130.154805 
L 146.370527 130.154805 
L 147.610802 128.908052 
L 148.851078 130.154805 
L 150.091354 130.154805 
L 151.331629 122.674286 
L 152.571905 127.661299 
L 153.81218 130.154805 
L 155.052456 115.817143 
L 156.292732 130.778182 
L 166.214937 130.778182 
L 167.455212 130.154805 
L 168.695488 130.778182 
L 177.377417 130.778182 
L 178.617693 128.908052 
L 179.857968 129.531429 
L 181.098244 130.778182 
L 182.33852 129.531429 
L 183.578795 127.661299 
L 184.819071 130.154805 
L 186.059347 130.154805 
L 187.299622 128.908052 
L 188.539898 120.804156 
L 189.780173 130.154805 
L 191.020449 130.778182 
L 192.260725 130.154805 
L 193.501 127.037922 
L 194.741276 130.154805 
L 195.981551 129.531429 
L 197.221827 125.167792 
L 198.462103 128.908052 
L 199.702378 127.037922 
L 200.942654 130.154805 
L 202.18293 129.531429 
L 203.423205 130.154805 
L 204.663481 129.531429 
L 207.144032 129.531429 
L 208.384308 128.284675 
L 209.624583 130.778182 
L 210.864859 130.778182 
L 212.105134 128.284675 
L 213.34541 128.284675 
L 214.585686 125.167792 
L 215.825961 129.531429 
L 217.066237 127.661299 
L 218.306513 130.778182 
L 219.546788 125.791169 
L 220.787064 128.908052 
L 222.027339 129.531429 
L 223.267615 128.908052 
L 224.507891 126.414545 
L 225.748166 130.154805 
L 226.988442 128.284675 
L 228.228717 121.427532 
L 229.468993 126.414545 
L 230.709269 120.804156 
L 231.949544 87.141818 
L 233.18982 127.661299 
L 234.430096 130.778182 
L 235.670371 128.908052 
L 236.910647 123.297662 
L 238.150922 124.544416 
L 239.391198 127.661299 
L 240.631474 119.557403 
L 241.871749 128.908052 
L 243.112025 128.908052 
L 244.352301 130.154805 
L 245.592576 122.674286 
L 246.832852 124.544416 
L 248.073127 130.778182 
L 249.313403 129.531429 
L 250.553679 130.778182 
L 251.793954 128.284675 
L 253.03423 100.232727 
L 254.274505 118.310649 
L 255.514781 121.427532 
L 256.755057 127.661299 
L 257.995332 130.778182 
L 259.235608 126.414545 
L 260.475884 128.908052 
L 261.716159 122.050909 
L 262.956435 128.908052 
L 264.19671 123.297662 
L 265.436986 115.817143 
L 266.677262 122.674286 
L 267.917537 127.661299 
L 269.157813 115.193766 
L 270.398088 115.193766 
L 271.638364 116.440519 
L 272.87864 92.128831 
L 274.118915 107.08987 
L 275.359191 107.08987 
L 276.599467 119.557403 
L 277.839742 110.206753 
L 279.080018 118.934026 
L 280.320293 129.531429 
L 281.560569 130.154805 
L 282.800845 116.440519 
L 284.04112 114.57039 
L 285.281396 115.817143 
L 286.521671 111.453506 
L 287.761947 105.843117 
L 289.002223 128.284675 
L 290.242498 130.154805 
L 291.482774 116.440519 
L 292.72305 117.687273 
L 293.963325 100.232727 
L 295.203601 115.817143 
L 296.443876 116.440519 
L 297.684152 130.154805 
L 298.924428 128.908052 
L 300.164703 114.57039 
L 301.404979 102.102857 
L 302.645255 117.063896 
L 303.88553 113.323636 
L 305.125806 95.245714 
L 306.366081 117.063896 
L 307.606357 130.154805 
L 308.846633 114.57039 
L 310.086908 105.843117 
L 311.327184 102.726234 
L 312.567459 108.96 
L 313.807735 111.453506 
L 315.048011 129.531429 
L 316.288286 115.193766 
L 317.528562 108.336623 
L 318.768838 115.817143 
L 320.009113 115.193766 
L 321.249389 113.947013 
L 322.489664 125.791169 
L 323.72994 115.817143 
L 324.970216 113.323636 
L 326.210491 115.817143 
L 327.450767 116.440519 
L 328.691042 116.440519 
L 329.931318 130.778182 
L 331.171594 130.778182 
L 332.411869 115.193766 
L 333.652145 112.076883 
L 334.892421 115.193766 
L 336.132696 102.726234 
L 337.372972 105.843117 
L 338.613247 130.778182 
L 339.853523 115.817143 
L 341.093799 113.947013 
L 342.334074 113.323636 
L 343.57435 112.076883 
L 344.814625 117.063896 
L 346.054901 130.154805 
L 347.295177 114.57039 
L 348.535452 110.83013 
L 349.775728 105.21974 
L 351.016004 104.596364 
L 352.256279 39.141818 
L 354.73683 130.778182 
L 355.977106 118.310649 
L 357.217382 117.063896 
L 358.457657 124.544416 
L 359.697933 130.778182 
L 360.938208 130.154805 
L 362.178484 123.297662 
L 363.41876 125.167792 
L 364.659035 130.154805 
L 365.899311 128.908052 
L 367.139587 130.154805 
L 368.379862 130.778182 
L 369.620138 130.154805 
L 370.860413 130.778182 
L 372.100689 128.908052 
L 373.340965 129.531429 
L 374.58124 130.778182 
L 378.302067 130.778182 
L 379.542343 128.284675 
L 380.782618 130.154805 
L 382.022894 130.778182 
L 383.26317 130.154805 
L 384.503445 127.037922 
L 385.743721 130.778182 
L 386.983996 117.063896 
L 388.224272 129.531429 
L 389.464548 130.778182 
L 391.945099 129.531429 
L 393.185375 130.778182 
L 394.42565 130.154805 
L 395.665926 130.778182 
L 396.906201 128.908052 
L 398.146477 130.154805 
L 399.386753 129.531429 
L 400.627028 130.778182 
L 403.107579 130.778182 
L 405.588131 129.531429 
L 406.828406 127.037922 
L 408.068682 130.154805 
L 409.308958 130.154805 
L 410.549233 124.544416 
L 411.789509 122.050909 
L 413.029784 130.778182 
L 415.510336 130.778182 
L 417.990887 129.531429 
L 419.231162 130.154805 
L 420.471438 125.167792 
L 421.711714 113.323636 
L 422.951989 127.661299 
L 424.192265 110.206753 
L 425.432541 126.414545 
L 426.672816 130.154805 
L 427.913092 130.778182 
L 430.393643 130.778182 
L 431.633919 130.154805 
L 432.874194 130.778182 
L 434.11447 130.778182 
L 435.354745 128.284675 
L 436.595021 98.362597 
L 437.835297 117.063896 
L 439.075572 129.531429 
L 440.315848 122.674286 
L 441.556124 98.985974 
L 442.796399 96.492468 
L 444.036675 90.882078 
L 445.27695 103.972987 
L 446.517226 120.804156 
L 447.757502 122.674286 
L 448.997777 130.778182 
L 450.238053 125.791169 
L 451.478329 130.778182 
L 452.718604 130.778182 
L 453.95888 122.050909 
L 455.199155 129.531429 
L 456.439431 97.739221 
L 457.679707 122.674286 
L 458.919982 95.869091 
L 460.160258 123.297662 
L 461.400533 128.284675 
L 462.640809 121.427532 
L 463.881085 93.998961 
L 465.12136 120.804156 
L 466.361636 122.674286 
L 467.601912 129.531429 
L 468.842187 130.778182 
L 470.082463 130.778182 
L 471.322738 129.531429 
L 472.563014 126.414545 
L 473.80329 123.921039 
L 475.043565 122.674286 
L 476.283841 130.778182 
L 477.524116 130.778182 
L 478.764392 120.180779 
L 480.004668 115.817143 
L 481.244943 130.778182 
L 482.485219 129.531429 
L 483.725495 130.778182 
L 484.96577 125.167792 
L 486.206046 129.531429 
L 487.446321 130.778182 
L 488.686597 130.154805 
L 489.926873 128.908052 
L 491.167148 128.908052 
L 492.407424 106.466494 
L 493.647699 128.908052 
L 494.887975 128.908052 
L 496.128251 120.804156 
L 497.368526 105.21974 
L 498.608802 123.297662 
L 499.849078 123.297662 
L 501.089353 129.531429 
L 502.329629 120.180779 
L 503.569904 103.34961 
L 504.81018 63.453506 
L 506.050456 123.297662 
L 507.290731 113.323636 
L 508.531007 130.778182 
L 509.771283 104.596364 
L 511.011558 99.609351 
L 512.251834 127.037922 
L 513.492109 117.063896 
L 514.732385 130.778182 
L 515.972661 130.778182 
L 517.212936 100.856104 
L 518.453212 130.778182 
L 519.693487 98.985974 
L 520.933763 130.154805 
L 522.174039 120.804156 
L 523.414314 130.778182 
L 524.65459 130.778182 
L 525.894866 129.531429 
L 527.135141 130.154805 
L 528.375417 128.908052 
L 529.615692 130.778182 
L 530.855968 122.050909 
L 532.096244 117.063896 
L 533.336519 93.998961 
L 534.576795 124.544416 
L 535.81707 130.154805 
L 537.057346 115.193766 
L 538.297622 130.154805 
L 539.537897 125.791169 
L 540.778173 120.180779 
L 542.018449 122.674286 
L 543.258724 127.661299 
L 544.499 130.154805 
L 545.739275 127.037922 
L 546.979551 115.817143 
L 548.219827 128.284675 
L 549.460102 122.674286 
L 550.700378 125.167792 
L 551.940653 130.778182 
L 553.180929 75.297662 
L 554.421205 117.687273 
L 555.66148 97.115844 
L 556.901756 122.050909 
L 558.142032 78.414545 
L 559.382307 130.778182 
L 560.622583 118.934026 
L 563.103134 99.609351 
L 564.34341 108.96 
L 565.583685 125.791169 
L 566.823961 130.778182 
L 569.304512 87.765195 
L 570.544788 90.882078 
L 571.785063 130.778182 
L 573.025339 122.674286 
L 574.265615 128.908052 
L 575.50589 94.622338 
L 576.746166 128.908052 
L 577.986441 130.778182 
L 580.466993 130.778182 
L 581.707268 128.284675 
L 582.947544 128.908052 
L 584.18782 124.544416 
L 585.428095 127.037922 
L 586.668371 123.921039 
L 587.908646 112.70026 
L 589.148922 130.154805 
L 590.389198 79.037922 
L 591.629473 123.297662 
L 592.869749 122.050909 
L 594.110024 95.869091 
L 595.3503 95.245714 
L 596.590576 117.687273 
L 599.071127 130.154805 
L 600.311403 127.661299 
L 601.551678 130.154805 
L 602.791954 124.544416 
L 604.032229 125.167792 
L 605.272505 75.297662 
L 606.512781 50.985974 
L 607.753056 110.206753 
L 608.993332 130.154805 
L 610.233607 120.804156 
L 611.473883 129.531429 
L 612.714159 128.908052 
L 613.954434 129.531429 
L 615.19471 130.778182 
L 616.434986 130.778182 
L 617.675261 130.154805 
L 620.155812 130.154805 
L 621.396088 130.778182 
L 622.636364 130.778182 
L 622.636364 130.778182 
" clip-path="url(#p9718759319)" style="fill: none; stroke: #1f77b4; stroke-width: 1.5; stroke-linecap: square"/>
   </g>
   <g id="line2d_15">
    <path d="M 115.363636 127.661299 
L 116.603912 128.284675 
L 117.844188 130.778182 
L 119.084463 130.778182 
L 120.324739 129.531429 
L 121.565014 129.531429 
L 122.80529 130.154805 
L 124.045566 128.284675 
L 125.285841 130.778182 
L 126.526117 130.778182 
L 127.766393 124.544416 
L 129.006668 129.531429 
L 130.246944 130.778182 
L 131.487219 128.908052 
L 132.727495 128.908052 
L 133.967771 129.531429 
L 135.208046 130.778182 
L 136.448322 129.531429 
L 137.688597 128.908052 
L 138.928873 130.154805 
L 140.169149 130.778182 
L 141.409424 130.154805 
L 142.6497 130.778182 
L 143.889976 129.531429 
L 146.370527 130.778182 
L 147.610802 130.154805 
L 148.851078 130.778182 
L 150.091354 130.154805 
L 151.331629 125.791169 
L 152.571905 127.661299 
L 153.81218 130.154805 
L 155.052456 125.167792 
L 156.292732 130.778182 
L 166.214937 130.778182 
L 167.455212 130.154805 
L 168.695488 130.778182 
L 177.377417 130.778182 
L 178.617693 129.531429 
L 179.857968 130.778182 
L 181.098244 130.778182 
L 183.578795 129.531429 
L 184.819071 130.778182 
L 187.299622 130.778182 
L 188.539898 124.544416 
L 189.780173 130.778182 
L 191.020449 130.778182 
L 192.260725 130.154805 
L 193.501 128.908052 
L 194.741276 130.154805 
L 195.981551 129.531429 
L 197.221827 127.037922 
L 198.462103 129.531429 
L 199.702378 130.778182 
L 200.942654 130.154805 
L 202.18293 130.778182 
L 203.423205 130.154805 
L 204.663481 130.778182 
L 205.903756 129.531429 
L 208.384308 129.531429 
L 209.624583 130.778182 
L 210.864859 130.778182 
L 214.585686 127.037922 
L 215.825961 129.531429 
L 217.066237 128.284675 
L 218.306513 130.778182 
L 219.546788 127.037922 
L 220.787064 128.908052 
L 222.027339 129.531429 
L 223.267615 128.908052 
L 224.507891 126.414545 
L 225.748166 130.154805 
L 226.988442 128.284675 
L 228.228717 124.544416 
L 229.468993 127.037922 
L 230.709269 123.297662 
L 231.949544 108.96 
L 233.18982 127.661299 
L 234.430096 130.778182 
L 235.670371 129.531429 
L 236.910647 123.921039 
L 239.391198 127.661299 
L 240.631474 122.050909 
L 241.871749 128.908052 
L 243.112025 128.908052 
L 244.352301 130.154805 
L 245.592576 124.544416 
L 246.832852 124.544416 
L 248.073127 130.778182 
L 249.313403 129.531429 
L 250.553679 130.778182 
L 251.793954 128.908052 
L 253.03423 116.440519 
L 254.274505 122.674286 
L 255.514781 124.544416 
L 256.755057 128.284675 
L 257.995332 130.778182 
L 259.235608 127.661299 
L 260.475884 130.154805 
L 261.716159 123.921039 
L 262.956435 129.531429 
L 264.19671 123.921039 
L 265.436986 120.180779 
L 266.677262 123.297662 
L 267.917537 128.284675 
L 269.157813 120.804156 
L 270.398088 125.167792 
L 271.638364 130.154805 
L 272.87864 121.427532 
L 274.118915 128.908052 
L 275.359191 125.791169 
L 276.599467 121.427532 
L 277.839742 125.167792 
L 279.080018 130.778182 
L 280.320293 130.154805 
L 281.560569 130.154805 
L 282.800845 130.778182 
L 284.04112 128.908052 
L 285.281396 129.531429 
L 287.761947 120.804156 
L 289.002223 128.284675 
L 290.242498 130.154805 
L 291.482774 130.778182 
L 292.72305 128.908052 
L 293.963325 117.687273 
L 295.203601 130.778182 
L 296.443876 129.531429 
L 297.684152 130.154805 
L 300.164703 130.154805 
L 301.404979 118.934026 
L 302.645255 128.908052 
L 303.88553 127.037922 
L 305.125806 115.817143 
L 306.366081 120.180779 
L 307.606357 130.154805 
L 308.846633 130.778182 
L 310.086908 125.791169 
L 311.327184 129.531429 
L 312.567459 128.908052 
L 313.807735 130.154805 
L 315.048011 130.154805 
L 316.288286 130.778182 
L 317.528562 123.921039 
L 318.768838 130.778182 
L 320.009113 130.154805 
L 321.249389 128.908052 
L 322.489664 127.037922 
L 323.72994 130.778182 
L 324.970216 128.908052 
L 326.210491 130.778182 
L 327.450767 129.531429 
L 328.691042 129.531429 
L 329.931318 130.778182 
L 332.411869 130.778182 
L 333.652145 127.661299 
L 334.892421 130.778182 
L 336.132696 128.908052 
L 337.372972 125.791169 
L 338.613247 130.778182 
L 339.853523 130.778182 
L 341.093799 130.154805 
L 342.334074 128.908052 
L 346.054901 130.778182 
L 347.295177 130.154805 
L 348.535452 126.414545 
L 349.775728 126.414545 
L 351.016004 127.661299 
L 352.256279 130.778182 
L 353.496555 121.427532 
L 354.73683 130.778182 
L 355.977106 130.154805 
L 357.217382 126.414545 
L 358.457657 125.791169 
L 359.697933 130.778182 
L 360.938208 130.154805 
L 362.178484 123.297662 
L 363.41876 126.414545 
L 364.659035 130.154805 
L 365.899311 128.908052 
L 367.139587 130.778182 
L 368.379862 130.778182 
L 369.620138 130.154805 
L 370.860413 130.778182 
L 372.100689 128.908052 
L 373.340965 129.531429 
L 374.58124 130.778182 
L 378.302067 130.778182 
L 379.542343 128.284675 
L 380.782618 130.154805 
L 382.022894 130.778182 
L 383.26317 130.154805 
L 384.503445 127.661299 
L 385.743721 130.778182 
L 386.983996 130.778182 
L 388.224272 129.531429 
L 389.464548 130.778182 
L 391.945099 129.531429 
L 393.185375 130.778182 
L 394.42565 130.154805 
L 395.665926 130.778182 
L 396.906201 128.908052 
L 398.146477 130.154805 
L 399.386753 129.531429 
L 400.627028 130.778182 
L 403.107579 130.778182 
L 405.588131 129.531429 
L 406.828406 127.037922 
L 408.068682 130.154805 
L 409.308958 130.778182 
L 410.549233 124.544416 
L 411.789509 123.921039 
L 413.029784 130.778182 
L 415.510336 130.778182 
L 417.990887 129.531429 
L 419.231162 130.778182 
L 420.471438 125.791169 
L 421.711714 122.050909 
L 422.951989 130.154805 
L 424.192265 121.427532 
L 425.432541 127.661299 
L 426.672816 130.778182 
L 430.393643 130.778182 
L 431.633919 130.154805 
L 432.874194 130.778182 
L 434.11447 130.778182 
L 435.354745 128.284675 
L 436.595021 114.57039 
L 437.835297 119.557403 
L 439.075572 129.531429 
L 440.315848 123.921039 
L 441.556124 114.57039 
L 442.796399 112.076883 
L 444.036675 112.076883 
L 445.27695 119.557403 
L 446.517226 121.427532 
L 447.757502 124.544416 
L 448.997777 130.778182 
L 450.238053 126.414545 
L 451.478329 130.778182 
L 452.718604 130.778182 
L 453.95888 123.297662 
L 455.199155 129.531429 
L 456.439431 122.674286 
L 457.679707 128.284675 
L 458.919982 126.414545 
L 460.160258 130.154805 
L 461.400533 130.778182 
L 462.640809 128.284675 
L 463.881085 121.427532 
L 465.12136 125.791169 
L 466.361636 126.414545 
L 467.601912 130.154805 
L 468.842187 130.778182 
L 470.082463 130.778182 
L 471.322738 129.531429 
L 472.563014 128.908052 
L 473.80329 127.037922 
L 475.043565 127.037922 
L 476.283841 130.778182 
L 477.524116 130.778182 
L 478.764392 125.167792 
L 480.004668 123.921039 
L 481.244943 130.778182 
L 482.485219 129.531429 
L 483.725495 130.778182 
L 484.96577 127.661299 
L 486.206046 129.531429 
L 487.446321 130.778182 
L 488.686597 130.154805 
L 489.926873 128.908052 
L 491.167148 128.908052 
L 492.407424 122.050909 
L 493.647699 128.908052 
L 494.887975 129.531429 
L 496.128251 126.414545 
L 497.368526 120.180779 
L 498.608802 126.414545 
L 499.849078 127.037922 
L 501.089353 130.154805 
L 502.329629 126.414545 
L 504.81018 112.70026 
L 506.050456 127.661299 
L 507.290731 123.921039 
L 508.531007 130.778182 
L 509.771283 120.804156 
L 511.011558 117.063896 
L 512.251834 128.284675 
L 513.492109 123.921039 
L 514.732385 130.778182 
L 515.972661 130.778182 
L 517.212936 120.180779 
L 518.453212 130.778182 
L 519.693487 116.440519 
L 520.933763 130.154805 
L 522.174039 125.791169 
L 523.414314 130.778182 
L 524.65459 130.778182 
L 525.894866 130.154805 
L 527.135141 130.778182 
L 528.375417 130.154805 
L 529.615692 130.778182 
L 530.855968 126.414545 
L 532.096244 124.544416 
L 533.336519 117.063896 
L 534.576795 127.661299 
L 535.81707 130.778182 
L 537.057346 122.674286 
L 538.297622 130.154805 
L 540.778173 126.414545 
L 542.018449 127.661299 
L 543.258724 128.284675 
L 544.499 130.778182 
L 545.739275 127.661299 
L 546.979551 122.674286 
L 548.219827 129.531429 
L 549.460102 127.037922 
L 550.700378 127.661299 
L 551.940653 130.778182 
L 553.180929 110.206753 
L 554.421205 123.921039 
L 555.66148 118.310649 
L 556.901756 126.414545 
L 558.142032 112.076883 
L 559.382307 130.778182 
L 560.622583 130.154805 
L 561.862858 118.934026 
L 563.103134 117.063896 
L 564.34341 118.934026 
L 565.583685 128.284675 
L 566.823961 130.778182 
L 568.064236 121.427532 
L 569.304512 113.947013 
L 570.544788 113.323636 
L 571.785063 130.778182 
L 573.025339 127.037922 
L 574.265615 130.778182 
L 575.50589 117.063896 
L 576.746166 129.531429 
L 577.986441 130.778182 
L 580.466993 130.778182 
L 581.707268 128.908052 
L 582.947544 130.154805 
L 584.18782 127.661299 
L 585.428095 128.908052 
L 586.668371 127.661299 
L 587.908646 121.427532 
L 589.148922 130.154805 
L 590.389198 112.076883 
L 591.629473 126.414545 
L 592.869749 125.791169 
L 594.110024 117.687273 
L 595.3503 117.687273 
L 596.590576 125.167792 
L 597.830851 126.414545 
L 599.071127 130.778182 
L 600.311403 128.908052 
L 601.551678 130.778182 
L 602.791954 128.284675 
L 604.032229 128.908052 
L 605.272505 118.310649 
L 606.512781 104.596364 
L 607.753056 122.050909 
L 608.993332 130.154805 
L 610.233607 130.778182 
L 611.473883 129.531429 
L 612.714159 128.908052 
L 613.954434 129.531429 
L 615.19471 130.778182 
L 616.434986 130.778182 
L 617.675261 130.154805 
L 618.915537 130.778182 
L 620.155812 130.154805 
L 621.396088 130.778182 
L 622.636364 130.778182 
L 622.636364 130.778182 
" clip-path="url(#p9718759319)" style="fill: none; stroke: #ff7f0e; stroke-width: 1.5; stroke-linecap: square"/>
   </g>
   <g id="patch_3">
    <path d="M 90 135.36 
L 90 34.56 
" style="fill: none; stroke: #000000; stroke-width: 0.8; stroke-linejoin: miter; stroke-linecap: square"/>
   </g>
   <g id="patch_4">
    <path d="M 648 135.36 
L 648 34.56 
" style="fill: none; stroke: #000000; stroke-width: 0.8; stroke-linejoin: miter; stroke-linecap: square"/>
   </g>
   <g id="patch_5">
    <path d="M 90 135.36 
L 648 135.36 
" style="fill: none; stroke: #000000; stroke-width: 0.8; stroke-linejoin: miter; stroke-linecap: square"/>
   </g>
   <g id="patch_6">
    <path d="M 90 34.56 
L 648 34.56 
" style="fill: none; stroke: #000000; stroke-width: 0.8; stroke-linejoin: miter; stroke-linecap: square"/>
   </g>
   <g id="legend_1">
    <g id="patch_7">
     <path d="M 97 71.91625 
L 238.8625 71.91625 
Q 240.8625 71.91625 240.8625 69.91625 
L 240.8625 41.56 
Q 240.8625 39.56 238.8625 39.56 
L 97 39.56 
Q 95 39.56 95 41.56 
L 95 69.91625 
Q 95 71.91625 97 71.91625 
z
" style="fill: #ffffff; opacity: 0.8; stroke: #cccccc; stroke-linejoin: miter"/>
    </g>
    <g id="line2d_16">
     <path d="M 99 47.658437 
L 109 47.658437 
L 119 47.658437 
" style="fill: none; stroke: #1f77b4; stroke-width: 1.5; stroke-linecap: square"/>
    </g>
    <g id="text_15">
     <!-- Total GitHub Clones -->
     <g transform="translate(127 51.158437)scale(0.1 -0.1)">
      <defs>
       <path id="DejaVuSans-54" d="M -19 4666 
L 3928 4666 
L 3928 4134 
L 2272 4134 
L 2272 0 
L 1638 0 
L 1638 4134 
L -19 4134 
L -19 4666 
z
" transform="scale(0.015625)"/>
       <path id="DejaVuSans-6f" d="M 1959 3097 
Q 1497 3097 1228 2736 
Q 959 2375 959 1747 
Q 959 1119 1226 758 
Q 1494 397 1959 397 
Q 2419 397 2687 759 
Q 2956 1122 2956 1747 
Q 2956 2369 2687 2733 
Q 2419 3097 1959 3097 
z
M 1959 3584 
Q 2709 3584 3137 3096 
Q 3566 2609 3566 1747 
Q 3566 888 3137 398 
Q 2709 -91 1959 -91 
Q 1206 -91 779 398 
Q 353 888 353 1747 
Q 353 2609 779 3096 
Q 1206 3584 1959 3584 
z
" transform="scale(0.015625)"/>
       <path id="DejaVuSans-6c" d="M 603 4863 
L 1178 4863 
L 1178 0 
L 603 0 
L 603 4863 
z
" transform="scale(0.015625)"/>
       <path id="DejaVuSans-20" transform="scale(0.015625)"/>
       <path id="DejaVuSans-47" d="M 3809 666 
L 3809 1919 
L 2778 1919 
L 2778 2438 
L 4434 2438 
L 4434 434 
Q 4069 175 3628 42 
Q 3188 -91 2688 -91 
Q 1594 -91 976 548 
Q 359 1188 359 2328 
Q 359 3472 976 4111 
Q 1594 4750 2688 4750 
Q 3144 4750 3555 4637 
Q 3966 4525 4313 4306 
L 4313 3634 
Q 3963 3931 3569 4081 
Q 3175 4231 2741 4231 
Q 1884 4231 1454 3753 
Q 1025 3275 1025 2328 
Q 1025 1384 1454 906 
Q 1884 428 2741 428 
Q 3075 428 3337 486 
Q 3600 544 3809 666 
z
" transform="scale(0.015625)"/>
       <path id="DejaVuSans-69" d="M 603 3500 
L 1178 3500 
L 1178 0 
L 603 0 
L 603 3500 
z
M 603 4863 
L 1178 4863 
L 1178 4134 
L 603 4134 
L 603 4863 
z
" transform="scale(0.015625)"/>
       <path id="DejaVuSans-48" d="M 628 4666 
L 1259 4666 
L 1259 2753 
L 3553 2753 
L 3553 4666 
L 4184 4666 
L 4184 0 
L 3553 0 
L 3553 2222 
L 1259 2222 
L 1259 0 
L 628 0 
L 628 4666 
z
" transform="scale(0.015625)"/>
       <path id="DejaVuSans-75" d="M 544 1381 
L 544 3500 
L 1119 3500 
L 1119 1403 
Q 1119 906 1312 657 
Q 1506 409 1894 409 
Q 2359 409 2629 706 
Q 2900 1003 2900 1516 
L 2900 3500 
L 3475 3500 
L 3475 0 
L 2900 0 
L 2900 538 
Q 2691 219 2414 64 
Q 2138 -91 1772 -91 
Q 1169 -91 856 284 
Q 544 659 544 1381 
z
M 1991 3584 
L 1991 3584 
z
" transform="scale(0.015625)"/>
       <path id="DejaVuSans-62" d="M 3116 1747 
Q 3116 2381 2855 2742 
Q 2594 3103 2138 3103 
Q 1681 3103 1420 2742 
Q 1159 2381 1159 1747 
Q 1159 1113 1420 752 
Q 1681 391 2138 391 
Q 2594 391 2855 752 
Q 3116 1113 3116 1747 
z
M 1159 2969 
Q 1341 3281 1617 3432 
Q 1894 3584 2278 3584 
Q 2916 3584 3314 3078 
Q 3713 2572 3713 1747 
Q 3713 922 3314 415 
Q 2916 -91 2278 -91 
Q 1894 -91 1617 61 
Q 1341 213 1159 525 
L 1159 0 
L 581 0 
L 581 4863 
L 1159 4863 
L 1159 2969 
z
" transform="scale(0.015625)"/>
       <path id="DejaVuSans-43" d="M 4122 4306 
L 4122 3641 
Q 3803 3938 3442 4084 
Q 3081 4231 2675 4231 
Q 1875 4231 1450 3742 
Q 1025 3253 1025 2328 
Q 1025 1406 1450 917 
Q 1875 428 2675 428 
Q 3081 428 3442 575 
Q 3803 722 4122 1019 
L 4122 359 
Q 3791 134 3420 21 
Q 3050 -91 2638 -91 
Q 1578 -91 968 557 
Q 359 1206 359 2328 
Q 359 3453 968 4101 
Q 1578 4750 2638 4750 
Q 3056 4750 3426 4639 
Q 3797 4528 4122 4306 
z
" transform="scale(0.015625)"/>
       <path id="DejaVuSans-6e" d="M 3513 2113 
L 3513 0 
L 2938 0 
L 2938 2094 
Q 2938 2591 2744 2837 
Q 2550 3084 2163 3084 
Q 1697 3084 1428 2787 
Q 1159 2491 1159 1978 
L 1159 0 
L 581 0 
L 581 3500 
L 1159 3500 
L 1159 2956 
Q 1366 3272 1645 3428 
Q 1925 3584 2291 3584 
Q 2894 3584 3203 3211 
Q 3513 2838 3513 2113 
z
" transform="scale(0.015625)"/>
       <path id="DejaVuSans-73" d="M 2834 3397 
L 2834 2853 
Q 2591 2978 2328 3040 
Q 2066 3103 1784 3103 
Q 1356 3103 1142 2972 
Q 928 2841 928 2578 
Q 928 2378 1081 2264 
Q 1234 2150 1697 2047 
L 1894 2003 
Q 2506 1872 2764 1633 
Q 3022 1394 3022 966 
Q 3022 478 2636 193 
Q 2250 -91 1575 -91 
Q 1294 -91 989 -36 
Q 684 19 347 128 
L 347 722 
Q 666 556 975 473 
Q 1284 391 1588 391 
Q 1994 391 2212 530 
Q 2431 669 2431 922 
Q 2431 1156 2273 1281 
Q 2116 1406 1581 1522 
L 1381 1569 
Q 847 1681 609 1914 
Q 372 2147 372 2553 
Q 372 3047 722 3315 
Q 1072 3584 1716 3584 
Q 2034 3584 2315 3537 
Q 2597 3491 2834 3397 
z
" transform="scale(0.015625)"/>
      </defs>
      <use xlink:href="#DejaVuSans-54"/>
      <use xlink:href="#DejaVuSans-6f" x="44.083984"/>
      <use xlink:href="#DejaVuSans-74" x="105.265625"/>
      <use xlink:href="#DejaVuSans-61" x="144.474609"/>
      <use xlink:href="#DejaVuSans-6c" x="205.753906"/>
      <use xlink:href="#DejaVuSans-20" x="233.537109"/>
      <use xlink:href="#DejaVuSans-47" x="265.324219"/>
      <use xlink:href="#DejaVuSans-69" x="342.814453"/>
      <use xlink:href="#DejaVuSans-74" x="370.597656"/>
      <use xlink:href="#DejaVuSans-48" x="409.806641"/>
      <use xlink:href="#DejaVuSans-75" x="485.001953"/>
      <use xlink:href="#DejaVuSans-62" x="548.380859"/>
      <use xlink:href="#DejaVuSans-20" x="611.857422"/>
      <use xlink:href="#DejaVuSans-43" x="643.644531"/>
      <use xlink:href="#DejaVuSans-6c" x="713.46875"/>
      <use xlink:href="#DejaVuSans-6f" x="741.251953"/>
      <use xlink:href="#DejaVuSans-6e" x="802.433594"/>
      <use xlink:href="#DejaVuSans-65" x="865.8125"/>
      <use xlink:href="#DejaVuSans-73" x="927.335938"/>
     </g>
    </g>
    <g id="line2d_17">
     <path d="M 99 62.336562 
L 109 62.336562 
L 119 62.336562 
" style="fill: none; stroke: #ff7f0e; stroke-width: 1.5; stroke-linecap: square"/>
    </g>
    <g id="text_16">
     <!-- Unique GitHub Clones -->
     <g transform="translate(127 65.836562)scale(0.1 -0.1)">
      <defs>
       <path id="DejaVuSans-55" d="M 556 4666 
L 1191 4666 
L 1191 1831 
Q 1191 1081 1462 751 
Q 1734 422 2344 422 
Q 2950 422 3222 751 
Q 3494 1081 3494 1831 
L 3494 4666 
L 4128 4666 
L 4128 1753 
Q 4128 841 3676 375 
Q 3225 -91 2344 -91 
Q 1459 -91 1007 375 
Q 556 841 556 1753 
L 556 4666 
z
" transform="scale(0.015625)"/>
       <path id="DejaVuSans-71" d="M 947 1747 
Q 947 1113 1208 752 
Q 1469 391 1925 391 
Q 2381 391 2643 752 
Q 2906 1113 2906 1747 
Q 2906 2381 2643 2742 
Q 2381 3103 1925 3103 
Q 1469 3103 1208 2742 
Q 947 2381 947 1747 
z
M 2906 525 
Q 2725 213 2448 61 
Q 2172 -91 1784 -91 
Q 1150 -91 751 415 
Q 353 922 353 1747 
Q 353 2572 751 3078 
Q 1150 3584 1784 3584 
Q 2172 3584 2448 3432 
Q 2725 3281 2906 2969 
L 2906 3500 
L 3481 3500 
L 3481 -1331 
L 2906 -1331 
L 2906 525 
z
" transform="scale(0.015625)"/>
      </defs>
      <use xlink:href="#DejaVuSans-55"/>
      <use xlink:href="#DejaVuSans-6e" x="73.193359"/>
      <use xlink:href="#DejaVuSans-69" x="136.572266"/>
      <use xlink:href="#DejaVuSans-71" x="164.355469"/>
      <use xlink:href="#DejaVuSans-75" x="227.832031"/>
      <use xlink:href="#DejaVuSans-65" x="291.210938"/>
      <use xlink:href="#DejaVuSans-20" x="352.734375"/>
      <use xlink:href="#DejaVuSans-47" x="384.521484"/>
      <use xlink:href="#DejaVuSans-69" x="462.011719"/>
      <use xlink:href="#DejaVuSans-74" x="489.794922"/>
      <use xlink:href="#DejaVuSans-48" x="529.003906"/>
      <use xlink:href="#DejaVuSans-75" x="604.199219"/>
      <use xlink:href="#DejaVuSans-62" x="667.578125"/>
      <use xlink:href="#DejaVuSans-20" x="731.054688"/>
      <use xlink:href="#DejaVuSans-43" x="762.841797"/>
      <use xlink:href="#DejaVuSans-6c" x="832.666016"/>
      <use xlink:href="#DejaVuSans-6f" x="860.449219"/>
      <use xlink:href="#DejaVuSans-6e" x="921.630859"/>
      <use xlink:href="#DejaVuSans-65" x="985.009766"/>
      <use xlink:href="#DejaVuSans-73" x="1046.533203"/>
     </g>
    </g>
   </g>
  </g>
  <g id="axes_2">
   <g id="patch_8">
    <path d="M 90 256.32 
L 648 256.32 
L 648 155.52 
L 90 155.52 
z
" style="fill: #ffffff"/>
   </g>
   <g id="matplotlib.axis_3">
    <g id="xtick_10">
     <g id="line2d_18">
      <g>
       <use xlink:href="#m3ee85bc31c" x="115.363636" y="256.32" style="stroke: #000000; stroke-width: 0.8"/>
      </g>
     </g>
     <g id="text_17">
      <!-- 2020-10-21 -->
      <g transform="translate(86.305824 270.918437)scale(0.1 -0.1)">
       <use xlink:href="#DejaVuSans-32"/>
       <use xlink:href="#DejaVuSans-30" x="63.623047"/>
       <use xlink:href="#DejaVuSans-32" x="127.246094"/>
       <use xlink:href="#DejaVuSans-30" x="190.869141"/>
       <use xlink:href="#DejaVuSans-2d" x="254.492188"/>
       <use xlink:href="#DejaVuSans-31" x="290.576172"/>
       <use xlink:href="#DejaVuSans-30" x="354.199219"/>
       <use xlink:href="#DejaVuSans-2d" x="417.822266"/>
       <use xlink:href="#DejaVuSans-32" x="453.90625"/>
       <use xlink:href="#DejaVuSans-31" x="517.529297"/>
      </g>
     </g>
    </g>
    <g id="xtick_11">
     <g id="line2d_19">
      <g>
       <use xlink:href="#m3ee85bc31c" x="212.171409" y="256.32" style="stroke: #000000; stroke-width: 0.8"/>
      </g>
     </g>
     <g id="text_18">
      <!-- 2021-01-31 -->
      <g transform="translate(183.113596 270.918437)scale(0.1 -0.1)">
       <use xlink:href="#DejaVuSans-32"/>
       <use xlink:href="#DejaVuSans-30" x="63.623047"/>
       <use xlink:href="#DejaVuSans-32" x="127.246094"/>
       <use xlink:href="#DejaVuSans-31" x="190.869141"/>
       <use xlink:href="#DejaVuSans-2d" x="254.492188"/>
       <use xlink:href="#DejaVuSans-30" x="290.576172"/>
       <use xlink:href="#DejaVuSans-31" x="354.199219"/>
       <use xlink:href="#DejaVuSans-2d" x="417.822266"/>
       <use xlink:href="#DejaVuSans-33" x="453.90625"/>
       <use xlink:href="#DejaVuSans-31" x="517.529297"/>
      </g>
     </g>
    </g>
    <g id="xtick_12">
     <g id="line2d_20">
      <g>
       <use xlink:href="#m3ee85bc31c" x="308.979181" y="256.32" style="stroke: #000000; stroke-width: 0.8"/>
      </g>
     </g>
     <g id="text_19">
      <!-- 2021-05-11 -->
      <g transform="translate(279.921369 270.918437)scale(0.1 -0.1)">
       <use xlink:href="#DejaVuSans-32"/>
       <use xlink:href="#DejaVuSans-30" x="63.623047"/>
       <use xlink:href="#DejaVuSans-32" x="127.246094"/>
       <use xlink:href="#DejaVuSans-31" x="190.869141"/>
       <use xlink:href="#DejaVuSans-2d" x="254.492188"/>
       <use xlink:href="#DejaVuSans-30" x="290.576172"/>
       <use xlink:href="#DejaVuSans-35" x="354.199219"/>
       <use xlink:href="#DejaVuSans-2d" x="417.822266"/>
       <use xlink:href="#DejaVuSans-31" x="453.90625"/>
       <use xlink:href="#DejaVuSans-31" x="517.529297"/>
      </g>
     </g>
    </g>
    <g id="xtick_13">
     <g id="line2d_21">
      <g>
       <use xlink:href="#m3ee85bc31c" x="405.786954" y="256.32" style="stroke: #000000; stroke-width: 0.8"/>
      </g>
     </g>
     <g id="text_20">
      <!-- 2021-08-19 -->
      <g transform="translate(376.729141 270.918437)scale(0.1 -0.1)">
       <use xlink:href="#DejaVuSans-32"/>
       <use xlink:href="#DejaVuSans-30" x="63.623047"/>
       <use xlink:href="#DejaVuSans-32" x="127.246094"/>
       <use xlink:href="#DejaVuSans-31" x="190.869141"/>
       <use xlink:href="#DejaVuSans-2d" x="254.492188"/>
       <use xlink:href="#DejaVuSans-30" x="290.576172"/>
       <use xlink:href="#DejaVuSans-38" x="354.199219"/>
       <use xlink:href="#DejaVuSans-2d" x="417.822266"/>
       <use xlink:href="#DejaVuSans-31" x="453.90625"/>
       <use xlink:href="#DejaVuSans-39" x="517.529297"/>
      </g>
     </g>
    </g>
    <g id="xtick_14">
     <g id="line2d_22">
      <g>
       <use xlink:href="#m3ee85bc31c" x="502.594726" y="256.32" style="stroke: #000000; stroke-width: 0.8"/>
      </g>
     </g>
     <g id="text_21">
      <!-- 2021-11-28 -->
      <g transform="translate(473.536913 270.918437)scale(0.1 -0.1)">
       <use xlink:href="#DejaVuSans-32"/>
       <use xlink:href="#DejaVuSans-30" x="63.623047"/>
       <use xlink:href="#DejaVuSans-32" x="127.246094"/>
       <use xlink:href="#DejaVuSans-31" x="190.869141"/>
       <use xlink:href="#DejaVuSans-2d" x="254.492188"/>
       <use xlink:href="#DejaVuSans-31" x="290.576172"/>
       <use xlink:href="#DejaVuSans-31" x="354.199219"/>
       <use xlink:href="#DejaVuSans-2d" x="417.822266"/>
       <use xlink:href="#DejaVuSans-32" x="453.90625"/>
       <use xlink:href="#DejaVuSans-38" x="517.529297"/>
      </g>
     </g>
    </g>
    <g id="xtick_15">
     <g id="line2d_23">
      <g>
       <use xlink:href="#m3ee85bc31c" x="599.402498" y="256.32" style="stroke: #000000; stroke-width: 0.8"/>
      </g>
     </g>
     <g id="text_22">
      <!-- 2022-03-10 -->
      <g transform="translate(570.344686 270.918437)scale(0.1 -0.1)">
       <use xlink:href="#DejaVuSans-32"/>
       <use xlink:href="#DejaVuSans-30" x="63.623047"/>
       <use xlink:href="#DejaVuSans-32" x="127.246094"/>
       <use xlink:href="#DejaVuSans-32" x="190.869141"/>
       <use xlink:href="#DejaVuSans-2d" x="254.492188"/>
       <use xlink:href="#DejaVuSans-30" x="290.576172"/>
       <use xlink:href="#DejaVuSans-33" x="354.199219"/>
       <use xlink:href="#DejaVuSans-2d" x="417.822266"/>
       <use xlink:href="#DejaVuSans-31" x="453.90625"/>
       <use xlink:href="#DejaVuSans-30" x="517.529297"/>
      </g>
     </g>
    </g>
    <g id="text_23">
     <!-- _date -->
     <g transform="translate(355.225 284.596563)scale(0.1 -0.1)">
      <use xlink:href="#DejaVuSans-5f"/>
      <use xlink:href="#DejaVuSans-64" x="50"/>
      <use xlink:href="#DejaVuSans-61" x="113.476562"/>
      <use xlink:href="#DejaVuSans-74" x="174.755859"/>
      <use xlink:href="#DejaVuSans-65" x="213.964844"/>
     </g>
    </g>
   </g>
   <g id="matplotlib.axis_4">
    <g id="ytick_5">
     <g id="line2d_24">
      <g>
       <use xlink:href="#med5782ec7c" x="90" y="252.006124" style="stroke: #000000; stroke-width: 0.8"/>
      </g>
     </g>
     <g id="text_24">
      <!-- 0 -->
      <g transform="translate(76.6375 255.805343)scale(0.1 -0.1)">
       <use xlink:href="#DejaVuSans-30"/>
      </g>
     </g>
    </g>
    <g id="ytick_6">
     <g id="line2d_25">
      <g>
       <use xlink:href="#med5782ec7c" x="90" y="225.211866" style="stroke: #000000; stroke-width: 0.8"/>
      </g>
     </g>
     <g id="text_25">
      <!-- 100 -->
      <g transform="translate(63.9125 229.011085)scale(0.1 -0.1)">
       <use xlink:href="#DejaVuSans-31"/>
       <use xlink:href="#DejaVuSans-30" x="63.623047"/>
       <use xlink:href="#DejaVuSans-30" x="127.246094"/>
      </g>
     </g>
    </g>
    <g id="ytick_7">
     <g id="line2d_26">
      <g>
       <use xlink:href="#med5782ec7c" x="90" y="198.417608" style="stroke: #000000; stroke-width: 0.8"/>
      </g>
     </g>
     <g id="text_26">
      <!-- 200 -->
      <g transform="translate(63.9125 202.216826)scale(0.1 -0.1)">
       <use xlink:href="#DejaVuSans-32"/>
       <use xlink:href="#DejaVuSans-30" x="63.623047"/>
       <use xlink:href="#DejaVuSans-30" x="127.246094"/>
      </g>
     </g>
    </g>
    <g id="ytick_8">
     <g id="line2d_27">
      <g>
       <use xlink:href="#med5782ec7c" x="90" y="171.623349" style="stroke: #000000; stroke-width: 0.8"/>
      </g>
     </g>
     <g id="text_27">
      <!-- 300 -->
      <g transform="translate(63.9125 175.422568)scale(0.1 -0.1)">
       <use xlink:href="#DejaVuSans-33"/>
       <use xlink:href="#DejaVuSans-30" x="63.623047"/>
       <use xlink:href="#DejaVuSans-30" x="127.246094"/>
      </g>
     </g>
    </g>
   </g>
   <g id="line2d_28">
    <path d="M 115.363636 251.738182 
L 116.331714 231.910431 
L 117.299792 229.498947 
L 118.26787 244.771675 
L 119.235947 251.470239 
L 120.204025 239.412823 
L 121.172103 239.14488 
L 122.14018 235.393684 
L 123.108258 239.14488 
L 124.076336 239.948708 
L 125.044414 250.666411 
L 126.012491 248.522871 
L 126.980569 247.719043 
L 127.948647 239.948708 
L 128.916724 213.690335 
L 129.884802 227.355407 
L 130.85288 244.235789 
L 131.820958 247.4511 
L 132.789035 251.202297 
L 134.725191 225.747751 
L 135.693269 246.111388 
L 136.661346 243.699904 
L 137.629424 237.537225 
L 138.597502 237.537225 
L 139.565579 249.862584 
L 140.533657 237.805167 
L 141.501735 234.321914 
L 142.469813 243.967847 
L 143.43789 243.967847 
L 144.405968 239.412823 
L 145.374046 247.183158 
L 146.342124 249.326699 
L 147.310201 227.623349 
L 148.278279 249.058756 
L 149.246357 248.254928 
L 150.214434 249.862584 
L 151.182512 247.986986 
L 152.15059 251.470239 
L 153.118668 251.470239 
L 154.086745 229.231005 
L 155.054823 217.173589 
L 156.022901 244.235789 
L 156.990978 245.575502 
L 157.959056 227.891292 
L 158.927134 250.934354 
L 159.895212 245.30756 
L 160.863289 242.092249 
L 161.831367 246.37933 
L 162.799445 237.00134 
L 163.767523 247.183158 
L 164.7356 250.934354 
L 165.703678 251.738182 
L 166.671756 244.235789 
L 167.639833 242.628134 
L 168.607911 242.896077 
L 169.575989 241.556364 
L 170.544067 249.058756 
L 171.512144 250.934354 
L 172.480222 250.666411 
L 173.4483 247.4511 
L 174.416378 247.986986 
L 175.384455 243.164019 
L 176.352533 250.130526 
L 177.320611 251.202297 
L 178.288688 251.470239 
L 179.256766 248.522871 
L 180.224844 249.594641 
L 181.192922 250.398469 
L 182.160999 251.738182 
L 183.129077 247.4511 
L 184.097155 247.719043 
L 185.065232 250.934354 
L 186.03331 246.647273 
L 187.001388 243.164019 
L 187.969466 240.752536 
L 188.937543 247.986986 
L 189.905621 249.058756 
L 190.873699 233.518086 
L 191.841777 250.398469 
L 192.809854 235.125742 
L 193.777932 236.733397 
L 194.74601 240.752536 
L 195.714087 234.589856 
L 196.682165 247.183158 
L 197.650243 235.929569 
L 198.618321 251.202297 
L 199.586398 234.857799 
L 200.554476 236.197512 
L 201.522554 228.159234 
L 202.490632 233.786029 
L 203.458709 240.752536 
L 204.426787 243.431962 
L 205.394865 248.522871 
L 206.362942 230.302775 
L 207.33102 226.015694 
L 208.299098 237.269282 
L 209.267176 235.929569 
L 210.235253 233.518086 
L 211.203331 247.719043 
L 212.171409 248.790813 
L 213.139486 231.374545 
L 214.107564 247.183158 
L 216.04372 234.321914 
L 217.979875 250.934354 
L 218.947953 247.986986 
L 219.916031 236.465455 
L 220.884108 235.929569 
L 221.852186 226.819522 
L 222.820264 242.628134 
L 223.788341 250.398469 
L 224.756419 250.666411 
L 225.724497 249.326699 
L 226.692575 243.164019 
L 227.660652 243.431962 
L 228.62873 247.183158 
L 229.596808 232.178373 
L 230.564885 248.522871 
L 231.532963 242.628134 
L 232.501041 239.948708 
L 233.469119 241.556364 
L 234.437196 227.087464 
L 235.405274 236.733397 
L 236.373352 235.929569 
L 237.34143 240.752536 
L 238.309507 239.14488 
L 239.277585 240.216651 
L 240.245663 187.431962 
L 241.21374 246.111388 
L 242.181818 232.178373 
L 243.149896 235.661627 
L 244.117974 228.427177 
L 245.086051 242.360191 
L 246.054129 202.972632 
L 247.022207 201.364976 
L 247.990285 206.99177 
L 248.958362 230.570718 
L 249.92644 178.321914 
L 250.894518 225.211866 
L 251.862595 246.37933 
L 252.830673 245.575502 
L 253.798751 238.341053 
L 254.766829 232.446316 
L 255.734906 229.231005 
L 256.702984 235.661627 
L 257.671062 225.479809 
L 258.639139 244.235789 
L 259.607217 246.111388 
L 260.575295 208.063541 
L 261.543373 233.786029 
L 262.51145 235.393684 
L 263.479528 246.647273 
L 264.447606 248.790813 
L 265.415684 248.254928 
L 266.383761 234.053971 
L 267.351839 187.967847 
L 268.319917 231.106603 
L 269.287994 235.393684 
L 270.256072 216.369761 
L 271.22415 244.771675 
L 272.192228 248.522871 
L 273.160305 245.30756 
L 274.128383 223.604211 
L 275.096461 239.412823 
L 276.064539 224.943923 
L 277.032616 203.240574 
L 278.000694 234.857799 
L 278.968772 241.824306 
L 279.936849 246.37933 
L 280.904927 180.465455 
L 281.873005 228.963062 
L 282.841083 243.967847 
L 283.80916 236.197512 
L 284.777238 237.537225 
L 285.745316 249.058756 
L 286.713393 247.183158 
L 287.681471 191.183158 
L 288.649549 184.752536 
L 289.617627 201.364976 
L 290.585704 243.431962 
L 291.553782 249.326699 
L 292.52186 237.537225 
L 293.489938 247.719043 
L 295.426093 226.015694 
L 296.394171 167.336268 
L 297.362248 223.872153 
L 298.330326 223.068325 
L 299.298404 227.623349 
L 300.266482 245.843445 
L 301.234559 246.647273 
L 302.202637 221.996555 
L 303.170715 237.00134 
L 304.138793 236.733397 
L 305.10687 227.891292 
L 306.074948 243.699904 
L 307.043026 249.326699 
L 308.011103 201.097033 
L 308.979181 238.07311 
L 309.947259 215.030048 
L 310.915337 209.135311 
L 311.883414 215.565933 
L 312.851492 249.862584 
L 313.81957 249.862584 
L 314.787647 224.140096 
L 315.755725 234.053971 
L 316.723803 233.518086 
L 317.691881 239.680766 
L 318.659958 243.164019 
L 319.628036 248.522871 
L 320.596114 246.37933 
L 321.564192 227.355407 
L 322.532269 244.503732 
L 323.500347 241.020478 
L 324.468425 233.250144 
L 325.436502 239.412823 
L 326.40458 249.862584 
L 327.372658 249.862584 
L 328.340736 243.431962 
L 329.308813 240.752536 
L 330.276891 246.647273 
L 331.244969 241.824306 
L 332.213046 243.967847 
L 333.181124 249.326699 
L 334.149202 247.719043 
L 335.11728 232.178373 
L 336.085357 237.269282 
L 337.053435 172.69512 
L 338.021513 215.833876 
L 338.989591 244.503732 
L 339.957668 242.628134 
L 340.925746 250.130526 
L 341.893824 233.250144 
L 342.861901 235.125742 
L 343.829979 242.360191 
L 344.798057 241.556364 
L 345.766135 236.465455 
L 346.734212 249.862584 
L 347.70229 250.398469 
L 348.670368 196.274067 
L 349.638446 239.948708 
L 350.606523 245.30756 
L 351.574601 247.4511 
L 352.542679 204.312344 
L 353.510756 247.4511 
L 354.478834 248.254928 
L 356.41499 242.360191 
L 357.383067 242.628134 
L 358.351145 225.479809 
L 359.319223 244.771675 
L 360.2873 249.862584 
L 361.255378 243.967847 
L 362.223456 245.575502 
L 363.191534 183.948708 
L 364.159611 200.293206 
L 365.127689 241.020478 
L 366.095767 242.896077 
L 367.063845 245.039617 
L 368.031922 244.503732 
L 369 232.714258 
L 369.968078 242.628134 
L 370.936155 243.699904 
L 371.904233 223.872153 
L 372.872311 239.948708 
L 373.840389 250.398469 
L 374.808466 251.738182 
L 375.776544 245.039617 
L 376.744622 245.575502 
L 377.7127 246.915215 
L 378.680777 243.967847 
L 379.648855 246.37933 
L 380.616933 249.594641 
L 381.58501 251.202297 
L 382.553088 243.967847 
L 383.521166 243.699904 
L 384.489244 231.910431 
L 385.457321 230.302775 
L 386.425399 250.666411 
L 387.393477 246.37933 
L 388.361554 251.738182 
L 389.329632 239.680766 
L 390.29771 240.752536 
L 391.265788 243.164019 
L 392.233865 240.484593 
L 393.201943 248.522871 
L 394.170021 245.843445 
L 395.138099 250.130526 
L 396.106176 237.537225 
L 397.074254 239.412823 
L 398.042332 244.235789 
L 399.010409 241.288421 
L 399.978487 232.446316 
L 400.946565 242.360191 
L 401.914643 248.522871 
L 402.88272 233.518086 
L 403.850798 250.398469 
L 404.818876 246.111388 
L 405.786954 244.503732 
L 406.755031 251.202297 
L 407.723109 250.934354 
L 408.691187 245.039617 
L 409.659264 245.575502 
L 410.627342 233.250144 
L 411.59542 231.642488 
L 412.563498 249.058756 
L 413.531575 249.862584 
L 414.499653 250.398469 
L 415.467731 242.628134 
L 416.435808 228.159234 
L 417.403886 236.465455 
L 418.371964 236.197512 
L 419.340042 245.30756 
L 420.308119 249.862584 
L 421.276197 245.843445 
L 422.244275 246.647273 
L 423.212353 249.862584 
L 424.18043 237.269282 
L 425.148508 247.719043 
L 426.116586 242.628134 
L 427.084663 226.015694 
L 428.052741 250.934354 
L 429.020819 248.254928 
L 429.988897 233.786029 
L 430.956974 216.905646 
L 431.925052 236.733397 
L 432.89313 248.254928 
L 433.861207 247.719043 
L 434.829285 250.398469 
L 435.797363 246.647273 
L 436.765441 232.178373 
L 437.733518 230.570718 
L 438.701596 221.46067 
L 439.669674 233.786029 
L 440.637752 248.522871 
L 441.605829 251.470239 
L 442.573907 248.522871 
L 443.541985 249.862584 
L 444.510062 239.948708 
L 445.47814 189.575502 
L 446.446218 229.498947 
L 447.414296 242.628134 
L 448.382373 241.020478 
L 449.350451 230.83866 
L 450.318529 230.83866 
L 451.286607 220.924785 
L 452.254684 198.417608 
L 453.222762 217.441531 
L 454.19084 246.37933 
L 455.158917 250.666411 
L 456.126995 224.675981 
L 457.095073 228.159234 
L 458.063151 212.618565 
L 459.031228 240.216651 
L 459.999306 236.197512 
L 460.967384 246.111388 
L 461.935461 248.254928 
L 462.903539 215.565933 
L 463.871617 238.608995 
L 464.839695 249.594641 
L 465.807772 223.604211 
L 466.77585 164.924785 
L 467.743928 240.484593 
L 468.712006 235.929569 
L 469.680083 227.891292 
L 470.648161 228.963062 
L 471.616239 242.896077 
L 472.584316 232.446316 
L 473.552394 238.876938 
L 474.520472 246.915215 
L 475.48855 245.843445 
L 476.456627 235.929569 
L 477.424705 249.058756 
L 478.392783 243.431962 
L 479.360861 229.498947 
L 481.297016 250.934354 
L 482.265094 250.130526 
L 483.233171 245.039617 
L 484.201249 231.642488 
L 485.169327 240.752536 
L 486.137405 247.183158 
L 487.105482 247.986986 
L 488.07356 247.986986 
L 489.041638 248.790813 
L 490.009715 239.412823 
L 490.977793 235.661627 
L 491.945871 243.967847 
L 493.882026 237.537225 
L 494.850104 250.130526 
L 495.818182 249.862584 
L 496.78626 234.589856 
L 497.754337 232.982201 
L 498.722415 245.575502 
L 500.65857 250.934354 
L 501.626648 248.522871 
L 502.594726 247.719043 
L 503.562804 244.503732 
L 504.530881 228.69512 
L 505.498959 238.341053 
L 506.467037 238.876938 
L 507.435115 226.819522 
L 508.403192 249.862584 
L 509.37127 228.159234 
L 510.339348 237.269282 
L 511.307425 202.972632 
L 512.275503 239.948708 
L 513.243581 221.996555 
L 514.211659 247.4511 
L 515.179736 248.254928 
L 516.147814 230.034833 
L 517.115892 208.599426 
L 518.083969 234.589856 
L 519.052047 237.269282 
L 520.020125 243.431962 
L 520.988203 233.250144 
L 521.95628 249.058756 
L 522.924358 217.173589 
L 523.892436 235.929569 
L 524.860514 239.948708 
L 525.828591 242.628134 
L 526.796669 242.896077 
L 527.764747 246.915215 
L 528.732824 249.058756 
L 529.700902 245.843445 
L 530.66898 248.790813 
L 531.637058 250.934354 
L 532.605135 249.594641 
L 533.573213 249.326699 
L 534.541291 246.915215 
L 535.509368 217.709474 
L 537.445524 242.092249 
L 538.413602 243.164019 
L 539.381679 249.862584 
L 540.349757 250.934354 
L 541.317835 251.738182 
L 542.285913 243.699904 
L 543.25399 236.733397 
L 544.222068 241.288421 
L 545.190146 219.585072 
L 546.158223 246.915215 
L 547.126301 246.111388 
L 548.094379 250.934354 
L 549.062457 247.719043 
L 550.030534 239.412823 
L 550.998612 244.771675 
L 551.96669 242.092249 
L 552.934768 245.843445 
L 553.902845 250.666411 
L 554.870923 250.130526 
L 555.839001 219.585072 
L 556.807078 220.120957 
L 557.775156 235.929569 
L 558.743234 247.719043 
L 559.711312 217.441531 
L 560.679389 246.915215 
L 561.647467 235.929569 
L 562.615545 212.886507 
L 563.583622 238.07311 
L 564.5517 209.939139 
L 565.519778 198.68555 
L 566.487856 232.714258 
L 567.455933 250.666411 
L 568.424011 249.862584 
L 569.392089 196.809952 
L 570.360167 208.867368 
L 571.328244 223.872153 
L 572.296322 224.675981 
L 573.2644 179.125742 
L 574.232477 243.967847 
L 575.200555 245.575502 
L 576.168633 217.441531 
L 577.136711 226.015694 
L 578.104788 242.628134 
L 579.072866 240.752536 
L 580.040944 226.283636 
L 581.009022 247.719043 
L 581.977099 249.862584 
L 582.945177 225.747751 
L 583.913255 235.929569 
L 584.881332 223.336268 
L 585.84941 232.178373 
L 586.817488 216.369761 
L 587.785566 239.680766 
L 588.753643 248.254928 
L 589.721721 222.264498 
L 590.689799 228.427177 
L 591.657876 231.910431 
L 592.625954 227.623349 
L 593.594032 185.824306 
L 594.56211 223.872153 
L 595.530187 241.288421 
L 596.498265 160.101818 
L 597.466343 200.829091 
L 598.434421 224.943923 
L 599.402498 241.288421 
L 600.370576 239.680766 
L 601.338654 243.967847 
L 602.306731 247.4511 
L 603.274809 211.814737 
L 604.242887 223.068325 
L 605.210965 209.671196 
L 606.179042 213.15445 
L 607.14712 225.211866 
L 608.115198 250.130526 
L 609.083276 249.594641 
L 610.051353 213.422392 
L 611.019431 235.661627 
L 611.987509 222.53244 
L 612.955586 230.570718 
L 613.923664 235.393684 
L 614.891742 242.896077 
L 615.85982 247.719043 
L 616.827897 229.76689 
L 617.795975 236.197512 
L 618.764053 216.637703 
L 619.73213 214.22622 
L 620.700208 242.896077 
L 621.668286 249.058756 
L 622.636364 251.738182 
L 622.636364 251.738182 
" clip-path="url(#p4f8a9c0ca2)" style="fill: none; stroke: #1f77b4; stroke-width: 1.5; stroke-linecap: square"/>
   </g>
   <g id="line2d_29">
    <path d="M 115.363636 251.738182 
L 116.331714 249.594641 
L 117.299792 248.522871 
L 118.26787 249.594641 
L 119.235947 251.738182 
L 120.204025 250.130526 
L 121.172103 249.326699 
L 122.14018 249.326699 
L 123.108258 249.058756 
L 124.076336 249.594641 
L 125.044414 251.470239 
L 128.916724 249.326699 
L 129.884802 249.058756 
L 130.85288 250.130526 
L 132.789035 251.738182 
L 133.757113 249.058756 
L 134.725191 249.594641 
L 135.693269 250.666411 
L 136.661346 250.934354 
L 137.629424 250.666411 
L 138.597502 251.470239 
L 139.565579 251.202297 
L 140.533657 250.130526 
L 141.501735 251.202297 
L 142.469813 249.058756 
L 143.43789 249.862584 
L 144.405968 250.398469 
L 145.374046 251.202297 
L 146.342124 251.202297 
L 147.310201 247.719043 
L 148.278279 251.470239 
L 149.246357 251.470239 
L 150.214434 251.202297 
L 152.15059 251.738182 
L 153.118668 251.470239 
L 154.086745 249.594641 
L 155.054823 247.183158 
L 156.022901 248.790813 
L 156.990978 250.130526 
L 157.959056 250.130526 
L 158.927134 251.470239 
L 159.895212 250.398469 
L 160.863289 250.130526 
L 161.831367 250.934354 
L 162.799445 247.986986 
L 163.767523 249.594641 
L 164.7356 251.470239 
L 165.703678 251.738182 
L 166.671756 249.326699 
L 168.607911 249.326699 
L 169.575989 250.130526 
L 170.544067 250.398469 
L 171.512144 251.202297 
L 172.480222 251.470239 
L 173.4483 250.934354 
L 174.416378 250.666411 
L 175.384455 251.202297 
L 177.320611 251.202297 
L 178.288688 251.470239 
L 179.256766 250.934354 
L 181.192922 250.934354 
L 182.160999 251.738182 
L 183.129077 251.202297 
L 184.097155 251.202297 
L 185.065232 250.934354 
L 186.03331 249.862584 
L 187.001388 248.254928 
L 187.969466 250.130526 
L 188.937543 251.202297 
L 189.905621 250.934354 
L 190.873699 250.934354 
L 191.841777 251.202297 
L 192.809854 249.594641 
L 193.777932 248.790813 
L 194.74601 249.862584 
L 195.714087 247.183158 
L 196.682165 249.862584 
L 197.650243 250.398469 
L 198.618321 251.202297 
L 199.586398 250.666411 
L 200.554476 250.666411 
L 201.522554 248.522871 
L 202.490632 249.594641 
L 203.458709 249.326699 
L 204.426787 249.326699 
L 205.394865 250.398469 
L 206.362942 246.37933 
L 207.33102 247.986986 
L 208.299098 249.326699 
L 209.267176 247.719043 
L 210.235253 246.647273 
L 211.203331 250.934354 
L 212.171409 250.666411 
L 213.139486 248.790813 
L 214.107564 250.130526 
L 215.075642 248.254928 
L 216.04372 249.594641 
L 217.011797 249.594641 
L 217.979875 250.934354 
L 218.947953 251.202297 
L 219.916031 249.058756 
L 220.884108 248.254928 
L 221.852186 248.522871 
L 222.820264 250.934354 
L 223.788341 251.470239 
L 225.724497 250.934354 
L 226.692575 250.934354 
L 227.660652 249.594641 
L 228.62873 250.398469 
L 229.596808 249.058756 
L 230.564885 250.934354 
L 231.532963 250.398469 
L 232.501041 250.934354 
L 233.469119 249.326699 
L 234.437196 249.058756 
L 235.405274 249.058756 
L 236.373352 248.254928 
L 237.34143 250.398469 
L 238.309507 250.934354 
L 239.277585 250.934354 
L 240.245663 242.896077 
L 241.21374 249.058756 
L 242.181818 249.058756 
L 243.149896 247.719043 
L 244.117974 249.326699 
L 245.086051 250.666411 
L 246.054129 250.666411 
L 247.022207 246.647273 
L 247.990285 246.915215 
L 248.958362 248.522871 
L 249.92644 246.915215 
L 250.894518 247.719043 
L 251.862595 250.130526 
L 252.830673 250.934354 
L 253.798751 247.719043 
L 254.766829 246.37933 
L 255.734906 247.4511 
L 256.702984 247.719043 
L 257.671062 249.594641 
L 258.639139 251.202297 
L 259.607217 250.130526 
L 260.575295 247.986986 
L 261.543373 247.986986 
L 262.51145 248.790813 
L 263.479528 250.666411 
L 265.415684 251.202297 
L 266.383761 250.130526 
L 267.351839 246.647273 
L 268.319917 247.4511 
L 269.287994 248.790813 
L 270.256072 247.183158 
L 271.22415 249.862584 
L 272.192228 251.202297 
L 274.128383 249.594641 
L 275.096461 248.522871 
L 276.064539 248.790813 
L 277.032616 247.719043 
L 278.000694 249.326699 
L 278.968772 249.594641 
L 279.936849 250.934354 
L 280.904927 245.843445 
L 281.873005 248.254928 
L 282.841083 249.058756 
L 283.80916 249.326699 
L 284.777238 249.326699 
L 285.745316 250.934354 
L 286.713393 250.398469 
L 287.681471 246.111388 
L 288.649549 244.771675 
L 289.617627 247.183158 
L 290.585704 249.058756 
L 291.553782 250.398469 
L 292.52186 249.326699 
L 293.489938 250.398469 
L 294.458015 246.647273 
L 295.426093 246.915215 
L 296.394171 230.302775 
L 297.362248 248.254928 
L 298.330326 246.915215 
L 299.298404 250.666411 
L 300.266482 251.738182 
L 301.234559 249.862584 
L 302.202637 248.522871 
L 303.170715 248.522871 
L 304.138793 248.790813 
L 305.10687 247.986986 
L 307.043026 251.202297 
L 308.011103 249.326699 
L 308.979181 248.522871 
L 309.947259 247.183158 
L 310.915337 247.4511 
L 311.883414 246.111388 
L 312.851492 250.666411 
L 313.81957 251.738182 
L 314.787647 246.111388 
L 315.755725 247.4511 
L 316.723803 249.594641 
L 317.691881 247.719043 
L 318.659958 248.522871 
L 319.628036 251.470239 
L 320.596114 250.398469 
L 321.564192 248.522871 
L 322.532269 249.594641 
L 323.500347 248.254928 
L 324.468425 246.647273 
L 326.40458 250.934354 
L 327.372658 251.202297 
L 328.340736 249.326699 
L 329.308813 247.986986 
L 330.276891 250.130526 
L 331.244969 249.594641 
L 332.213046 249.594641 
L 334.149202 250.130526 
L 335.11728 247.183158 
L 336.085357 249.058756 
L 337.053435 249.058756 
L 338.021513 250.130526 
L 338.989591 249.326699 
L 339.957668 251.202297 
L 340.925746 250.398469 
L 341.893824 248.522871 
L 342.861901 249.326699 
L 343.829979 249.058756 
L 344.798057 248.522871 
L 345.766135 249.326699 
L 346.734212 251.202297 
L 347.70229 250.934354 
L 348.670368 247.719043 
L 349.638446 250.666411 
L 350.606523 249.862584 
L 351.574601 249.326699 
L 352.542679 246.111388 
L 353.510756 251.202297 
L 354.478834 250.666411 
L 355.446912 249.862584 
L 356.41499 250.398469 
L 357.383067 249.058756 
L 358.351145 248.254928 
L 359.319223 249.326699 
L 360.2873 250.934354 
L 361.255378 250.934354 
L 362.223456 249.594641 
L 363.191534 247.4511 
L 364.159611 247.4511 
L 365.127689 250.398469 
L 366.095767 248.790813 
L 367.063845 250.666411 
L 368.031922 249.594641 
L 369 247.986986 
L 369.968078 248.790813 
L 370.936155 248.790813 
L 371.904233 247.986986 
L 372.872311 248.254928 
L 373.840389 251.202297 
L 374.808466 251.738182 
L 375.776544 250.130526 
L 376.744622 250.130526 
L 377.7127 250.398469 
L 378.680777 250.398469 
L 379.648855 250.666411 
L 381.58501 251.738182 
L 382.553088 250.398469 
L 383.521166 249.594641 
L 384.489244 249.862584 
L 385.457321 248.790813 
L 386.425399 251.202297 
L 387.393477 250.398469 
L 388.361554 251.738182 
L 389.329632 250.398469 
L 390.29771 250.398469 
L 391.265788 248.522871 
L 392.233865 247.986986 
L 393.201943 249.594641 
L 394.170021 250.666411 
L 395.138099 250.666411 
L 396.106176 248.790813 
L 397.074254 249.594641 
L 398.042332 249.862584 
L 399.010409 249.862584 
L 399.978487 249.058756 
L 400.946565 249.326699 
L 401.914643 250.666411 
L 402.88272 248.522871 
L 403.850798 251.470239 
L 404.818876 249.862584 
L 405.786954 249.862584 
L 406.755031 251.202297 
L 407.723109 250.934354 
L 408.691187 250.130526 
L 409.659264 250.130526 
L 410.627342 249.326699 
L 411.59542 249.594641 
L 412.563498 251.202297 
L 413.531575 250.934354 
L 414.499653 251.470239 
L 415.467731 250.398469 
L 416.435808 250.130526 
L 417.403886 248.790813 
L 418.371964 249.326699 
L 419.340042 250.398469 
L 420.308119 250.934354 
L 421.276197 250.398469 
L 422.244275 251.470239 
L 423.212353 250.934354 
L 424.18043 249.326699 
L 425.148508 250.130526 
L 426.116586 251.202297 
L 427.084663 248.522871 
L 428.052741 251.470239 
L 429.020819 251.202297 
L 429.988897 248.254928 
L 431.925052 249.326699 
L 432.89313 250.398469 
L 433.861207 249.862584 
L 434.829285 251.202297 
L 435.797363 250.666411 
L 436.765441 247.986986 
L 437.733518 249.862584 
L 438.701596 249.326699 
L 439.669674 249.862584 
L 440.637752 249.862584 
L 441.605829 251.470239 
L 442.573907 251.470239 
L 443.541985 250.934354 
L 444.510062 248.522871 
L 446.446218 248.522871 
L 447.414296 249.862584 
L 448.382373 249.862584 
L 449.350451 249.058756 
L 450.318529 248.790813 
L 451.286607 247.4511 
L 452.254684 249.594641 
L 453.222762 247.719043 
L 454.19084 250.130526 
L 455.158917 251.202297 
L 456.126995 250.398469 
L 457.095073 249.862584 
L 458.063151 248.254928 
L 459.031228 248.522871 
L 459.999306 249.326699 
L 460.967384 249.862584 
L 461.935461 250.130526 
L 462.903539 247.719043 
L 463.871617 248.522871 
L 464.839695 250.666411 
L 465.807772 249.594641 
L 467.743928 249.058756 
L 468.712006 249.594641 
L 469.680083 247.719043 
L 470.648161 250.130526 
L 471.616239 250.398469 
L 472.584316 248.522871 
L 473.552394 249.058756 
L 474.520472 250.934354 
L 475.48855 250.398469 
L 476.456627 249.594641 
L 477.424705 250.934354 
L 478.392783 249.326699 
L 479.360861 248.790813 
L 480.328938 249.058756 
L 481.297016 251.202297 
L 482.265094 251.202297 
L 483.233171 249.326699 
L 484.201249 250.398469 
L 485.169327 247.986986 
L 487.105482 250.130526 
L 488.07356 250.666411 
L 489.041638 250.130526 
L 490.009715 249.058756 
L 490.977793 247.4511 
L 491.945871 248.522871 
L 492.913949 247.986986 
L 493.882026 249.058756 
L 494.850104 250.666411 
L 495.818182 250.934354 
L 496.78626 249.326699 
L 497.754337 250.666411 
L 498.722415 249.862584 
L 499.690493 250.130526 
L 500.65857 251.470239 
L 501.626648 250.934354 
L 502.594726 250.934354 
L 503.562804 251.470239 
L 504.530881 249.594641 
L 505.498959 250.398469 
L 506.467037 249.058756 
L 507.435115 250.666411 
L 508.403192 251.202297 
L 509.37127 249.058756 
L 510.339348 249.594641 
L 511.307425 249.594641 
L 512.275503 246.915215 
L 513.243581 246.647273 
L 514.211659 250.398469 
L 515.179736 250.398469 
L 516.147814 248.790813 
L 517.115892 248.790813 
L 518.083969 249.862584 
L 519.052047 249.326699 
L 520.020125 250.398469 
L 520.988203 250.666411 
L 521.95628 250.666411 
L 522.924358 248.254928 
L 523.892436 249.862584 
L 524.860514 250.666411 
L 525.828591 250.934354 
L 526.796669 249.594641 
L 527.764747 251.738182 
L 528.732824 251.470239 
L 529.700902 250.934354 
L 530.66898 250.934354 
L 531.637058 251.202297 
L 532.605135 250.666411 
L 533.573213 251.202297 
L 534.541291 250.398469 
L 535.509368 244.771675 
L 536.477446 247.4511 
L 537.445524 249.326699 
L 540.349757 250.934354 
L 541.317835 251.738182 
L 542.285913 249.594641 
L 543.25399 249.594641 
L 544.222068 249.058756 
L 545.190146 246.111388 
L 546.158223 250.666411 
L 547.126301 251.738182 
L 548.094379 251.470239 
L 549.062457 250.666411 
L 550.030534 248.254928 
L 550.998612 250.934354 
L 551.96669 250.130526 
L 552.934768 248.522871 
L 553.902845 251.202297 
L 554.870923 251.202297 
L 555.839001 250.130526 
L 556.807078 247.986986 
L 557.775156 248.790813 
L 558.743234 249.862584 
L 559.711312 249.326699 
L 560.679389 250.934354 
L 561.647467 250.666411 
L 562.615545 248.254928 
L 563.583622 249.326699 
L 564.5517 247.183158 
L 565.519778 246.647273 
L 566.487856 247.183158 
L 567.455933 251.202297 
L 568.424011 251.738182 
L 569.392089 247.986986 
L 570.360167 246.111388 
L 571.328244 247.986986 
L 572.296322 246.647273 
L 573.2644 243.431962 
L 574.232477 249.594641 
L 575.200555 249.326699 
L 576.168633 247.4511 
L 577.136711 247.183158 
L 578.104788 248.254928 
L 579.072866 248.790813 
L 580.040944 247.986986 
L 581.009022 249.862584 
L 581.977099 250.934354 
L 582.945177 247.719043 
L 584.881332 248.254928 
L 585.84941 246.915215 
L 586.817488 247.4511 
L 587.785566 247.719043 
L 588.753643 250.666411 
L 589.721721 245.843445 
L 590.689799 245.843445 
L 591.657876 243.967847 
L 592.625954 247.183158 
L 593.594032 247.183158 
L 594.56211 249.862584 
L 595.530187 249.058756 
L 596.498265 247.986986 
L 597.466343 245.843445 
L 598.434421 248.522871 
L 599.402498 249.058756 
L 600.370576 249.326699 
L 601.338654 249.326699 
L 602.306731 249.862584 
L 603.274809 246.647273 
L 604.242887 247.183158 
L 605.210965 245.039617 
L 606.179042 247.986986 
L 607.14712 247.183158 
L 608.115198 250.934354 
L 609.083276 251.202297 
L 610.051353 243.967847 
L 611.019431 247.4511 
L 611.987509 245.575502 
L 612.955586 246.37933 
L 613.923664 249.594641 
L 614.891742 250.398469 
L 615.85982 250.398469 
L 616.827897 248.522871 
L 617.795975 249.326699 
L 618.764053 247.183158 
L 619.73213 246.915215 
L 620.700208 249.594641 
L 621.668286 249.862584 
L 622.636364 251.738182 
L 622.636364 251.738182 
" clip-path="url(#p4f8a9c0ca2)" style="fill: none; stroke: #ff7f0e; stroke-width: 1.5; stroke-linecap: square"/>
   </g>
   <g id="patch_9">
    <path d="M 90 256.32 
L 90 155.52 
" style="fill: none; stroke: #000000; stroke-width: 0.8; stroke-linejoin: miter; stroke-linecap: square"/>
   </g>
   <g id="patch_10">
    <path d="M 648 256.32 
L 648 155.52 
" style="fill: none; stroke: #000000; stroke-width: 0.8; stroke-linejoin: miter; stroke-linecap: square"/>
   </g>
   <g id="patch_11">
    <path d="M 90 256.32 
L 648 256.32 
" style="fill: none; stroke: #000000; stroke-width: 0.8; stroke-linejoin: miter; stroke-linecap: square"/>
   </g>
   <g id="patch_12">
    <path d="M 90 155.52 
L 648 155.52 
" style="fill: none; stroke: #000000; stroke-width: 0.8; stroke-linejoin: miter; stroke-linecap: square"/>
   </g>
   <g id="legend_2">
    <g id="patch_13">
     <path d="M 97 192.87625 
L 234.217188 192.87625 
Q 236.217188 192.87625 236.217188 190.87625 
L 236.217188 162.52 
Q 236.217188 160.52 234.217188 160.52 
L 97 160.52 
Q 95 160.52 95 162.52 
L 95 190.87625 
Q 95 192.87625 97 192.87625 
z
" style="fill: #ffffff; opacity: 0.8; stroke: #cccccc; stroke-linejoin: miter"/>
    </g>
    <g id="line2d_30">
     <path d="M 99 168.618437 
L 109 168.618437 
L 119 168.618437 
" style="fill: none; stroke: #1f77b4; stroke-width: 1.5; stroke-linecap: square"/>
    </g>
    <g id="text_28">
     <!-- Total GitHub Views -->
     <g transform="translate(127 172.118437)scale(0.1 -0.1)">
      <defs>
       <path id="DejaVuSans-56" d="M 1831 0 
L 50 4666 
L 709 4666 
L 2188 738 
L 3669 4666 
L 4325 4666 
L 2547 0 
L 1831 0 
z
" transform="scale(0.015625)"/>
       <path id="DejaVuSans-77" d="M 269 3500 
L 844 3500 
L 1563 769 
L 2278 3500 
L 2956 3500 
L 3675 769 
L 4391 3500 
L 4966 3500 
L 4050 0 
L 3372 0 
L 2619 2869 
L 1863 0 
L 1184 0 
L 269 3500 
z
" transform="scale(0.015625)"/>
      </defs>
      <use xlink:href="#DejaVuSans-54"/>
      <use xlink:href="#DejaVuSans-6f" x="44.083984"/>
      <use xlink:href="#DejaVuSans-74" x="105.265625"/>
      <use xlink:href="#DejaVuSans-61" x="144.474609"/>
      <use xlink:href="#DejaVuSans-6c" x="205.753906"/>
      <use xlink:href="#DejaVuSans-20" x="233.537109"/>
      <use xlink:href="#DejaVuSans-47" x="265.324219"/>
      <use xlink:href="#DejaVuSans-69" x="342.814453"/>
      <use xlink:href="#DejaVuSans-74" x="370.597656"/>
      <use xlink:href="#DejaVuSans-48" x="409.806641"/>
      <use xlink:href="#DejaVuSans-75" x="485.001953"/>
      <use xlink:href="#DejaVuSans-62" x="548.380859"/>
      <use xlink:href="#DejaVuSans-20" x="611.857422"/>
      <use xlink:href="#DejaVuSans-56" x="643.644531"/>
      <use xlink:href="#DejaVuSans-69" x="709.802734"/>
      <use xlink:href="#DejaVuSans-65" x="737.585938"/>
      <use xlink:href="#DejaVuSans-77" x="799.109375"/>
      <use xlink:href="#DejaVuSans-73" x="880.896484"/>
     </g>
    </g>
    <g id="line2d_31">
     <path d="M 99 183.296562 
L 109 183.296562 
L 119 183.296562 
" style="fill: none; stroke: #ff7f0e; stroke-width: 1.5; stroke-linecap: square"/>
    </g>
    <g id="text_29">
     <!-- Unique GitHub Views -->
     <g transform="translate(127 186.796562)scale(0.1 -0.1)">
      <use xlink:href="#DejaVuSans-55"/>
      <use xlink:href="#DejaVuSans-6e" x="73.193359"/>
      <use xlink:href="#DejaVuSans-69" x="136.572266"/>
      <use xlink:href="#DejaVuSans-71" x="164.355469"/>
      <use xlink:href="#DejaVuSans-75" x="227.832031"/>
      <use xlink:href="#DejaVuSans-65" x="291.210938"/>
      <use xlink:href="#DejaVuSans-20" x="352.734375"/>
      <use xlink:href="#DejaVuSans-47" x="384.521484"/>
      <use xlink:href="#DejaVuSans-69" x="462.011719"/>
      <use xlink:href="#DejaVuSans-74" x="489.794922"/>
      <use xlink:href="#DejaVuSans-48" x="529.003906"/>
      <use xlink:href="#DejaVuSans-75" x="604.199219"/>
      <use xlink:href="#DejaVuSans-62" x="667.578125"/>
      <use xlink:href="#DejaVuSans-20" x="731.054688"/>
      <use xlink:href="#DejaVuSans-56" x="762.841797"/>
      <use xlink:href="#DejaVuSans-69" x="829"/>
      <use xlink:href="#DejaVuSans-65" x="856.783203"/>
      <use xlink:href="#DejaVuSans-77" x="918.306641"/>
      <use xlink:href="#DejaVuSans-73" x="1000.09375"/>
     </g>
    </g>
   </g>
  </g>
 </g>
 <defs>
  <clipPath id="p9718759319">
   <rect x="90" y="34.56" width="558" height="100.8"/>
  </clipPath>
  <clipPath id="p4f8a9c0ca2">
   <rect x="90" y="155.52" width="558" height="100.8"/>
  </clipPath>
 </defs>
</svg>
