<?xml version="1.0" encoding="utf-8" standalone="no"?>
<!DOCTYPE svg PUBLIC "-//W3C//DTD SVG 1.1//EN"
  "http://www.w3.org/Graphics/SVG/1.1/DTD/svg11.dtd">
<svg xmlns:xlink="http://www.w3.org/1999/xlink" width="720pt" height="288pt" viewBox="0 0 720 288" xmlns="http://www.w3.org/2000/svg" version="1.1">
 <metadata>
  <rdf:RDF xmlns:dc="http://purl.org/dc/elements/1.1/" xmlns:cc="http://creativecommons.org/ns#" xmlns:rdf="http://www.w3.org/1999/02/22-rdf-syntax-ns#">
   <cc:Work>
    <dc:type rdf:resource="http://purl.org/dc/dcmitype/StillImage"/>
    <dc:date>2022-02-28T00:37:30.088784</dc:date>
    <dc:format>image/svg+xml</dc:format>
    <dc:creator>
     <cc:Agent>
      <dc:title>Matplotlib v3.5.1, https://matplotlib.org/</dc:title>
     </cc:Agent>
    </dc:creator>
   </cc:Work>
  </rdf:RDF>
 </metadata>
 <defs>
  <style type="text/css">*{stroke-linejoin: round; stroke-linecap: butt}</style>
 </defs>
 <g id="figure_1">
  <g id="patch_1">
   <path d="M 0 288 
L 720 288 
L 720 0 
L 0 0 
z
" style="fill: #ffffff"/>
  </g>
  <g id="axes_1">
   <g id="patch_2">
    <path d="M 90 135.36 
L 648 135.36 
L 648 34.56 
L 90 34.56 
z
" style="fill: #ffffff"/>
   </g>
   <g id="matplotlib.axis_1">
    <g id="xtick_1">
     <g id="line2d_1">
      <defs>
       <path id="m52cb691a48" d="M 0 0 
L 0 3.5 
" style="stroke: #000000; stroke-width: 0.8"/>
      </defs>
      <g>
       <use xlink:href="#m52cb691a48" x="115.363636" y="135.36" style="stroke: #000000; stroke-width: 0.8"/>
      </g>
     </g>
     <g id="text_1">
      <!-- 2020-10-22 -->
      <g transform="translate(86.305824 149.958437)scale(0.1 -0.1)">
       <defs>
        <path id="DejaVuSans-32" d="M 1228 531 
L 3431 531 
L 3431 0 
L 469 0 
L 469 531 
Q 828 903 1448 1529 
Q 2069 2156 2228 2338 
Q 2531 2678 2651 2914 
Q 2772 3150 2772 3378 
Q 2772 3750 2511 3984 
Q 2250 4219 1831 4219 
Q 1534 4219 1204 4116 
Q 875 4013 500 3803 
L 500 4441 
Q 881 4594 1212 4672 
Q 1544 4750 1819 4750 
Q 2544 4750 2975 4387 
Q 3406 4025 3406 3419 
Q 3406 3131 3298 2873 
Q 3191 2616 2906 2266 
Q 2828 2175 2409 1742 
Q 1991 1309 1228 531 
z
" transform="scale(0.015625)"/>
        <path id="DejaVuSans-30" d="M 2034 4250 
Q 1547 4250 1301 3770 
Q 1056 3291 1056 2328 
Q 1056 1369 1301 889 
Q 1547 409 2034 409 
Q 2525 409 2770 889 
Q 3016 1369 3016 2328 
Q 3016 3291 2770 3770 
Q 2525 4250 2034 4250 
z
M 2034 4750 
Q 2819 4750 3233 4129 
Q 3647 3509 3647 2328 
Q 3647 1150 3233 529 
Q 2819 -91 2034 -91 
Q 1250 -91 836 529 
Q 422 1150 422 2328 
Q 422 3509 836 4129 
Q 1250 4750 2034 4750 
z
" transform="scale(0.015625)"/>
        <path id="DejaVuSans-2d" d="M 313 2009 
L 1997 2009 
L 1997 1497 
L 313 1497 
L 313 2009 
z
" transform="scale(0.015625)"/>
        <path id="DejaVuSans-31" d="M 794 531 
L 1825 531 
L 1825 4091 
L 703 3866 
L 703 4441 
L 1819 4666 
L 2450 4666 
L 2450 531 
L 3481 531 
L 3481 0 
L 794 0 
L 794 531 
z
" transform="scale(0.015625)"/>
       </defs>
       <use xlink:href="#DejaVuSans-32"/>
       <use xlink:href="#DejaVuSans-30" x="63.623047"/>
       <use xlink:href="#DejaVuSans-32" x="127.246094"/>
       <use xlink:href="#DejaVuSans-30" x="190.869141"/>
       <use xlink:href="#DejaVuSans-2d" x="254.492188"/>
       <use xlink:href="#DejaVuSans-31" x="290.576172"/>
       <use xlink:href="#DejaVuSans-30" x="354.199219"/>
       <use xlink:href="#DejaVuSans-2d" x="417.822266"/>
       <use xlink:href="#DejaVuSans-32" x="453.90625"/>
       <use xlink:href="#DejaVuSans-32" x="517.529297"/>
      </g>
     </g>
    </g>
    <g id="xtick_2">
     <g id="line2d_2">
      <g>
       <use xlink:href="#m52cb691a48" x="180.398601" y="135.36" style="stroke: #000000; stroke-width: 0.8"/>
      </g>
     </g>
     <g id="text_2">
      <!-- 2021-01-05 -->
      <g transform="translate(151.340789 149.958437)scale(0.1 -0.1)">
       <defs>
        <path id="DejaVuSans-35" d="M 691 4666 
L 3169 4666 
L 3169 4134 
L 1269 4134 
L 1269 2991 
Q 1406 3038 1543 3061 
Q 1681 3084 1819 3084 
Q 2600 3084 3056 2656 
Q 3513 2228 3513 1497 
Q 3513 744 3044 326 
Q 2575 -91 1722 -91 
Q 1428 -91 1123 -41 
Q 819 9 494 109 
L 494 744 
Q 775 591 1075 516 
Q 1375 441 1709 441 
Q 2250 441 2565 725 
Q 2881 1009 2881 1497 
Q 2881 1984 2565 2268 
Q 2250 2553 1709 2553 
Q 1456 2553 1204 2497 
Q 953 2441 691 2322 
L 691 4666 
z
" transform="scale(0.015625)"/>
       </defs>
       <use xlink:href="#DejaVuSans-32"/>
       <use xlink:href="#DejaVuSans-30" x="63.623047"/>
       <use xlink:href="#DejaVuSans-32" x="127.246094"/>
       <use xlink:href="#DejaVuSans-31" x="190.869141"/>
       <use xlink:href="#DejaVuSans-2d" x="254.492188"/>
       <use xlink:href="#DejaVuSans-30" x="290.576172"/>
       <use xlink:href="#DejaVuSans-31" x="354.199219"/>
       <use xlink:href="#DejaVuSans-2d" x="417.822266"/>
       <use xlink:href="#DejaVuSans-30" x="453.90625"/>
       <use xlink:href="#DejaVuSans-35" x="517.529297"/>
      </g>
     </g>
    </g>
    <g id="xtick_3">
     <g id="line2d_3">
      <g>
       <use xlink:href="#m52cb691a48" x="245.433566" y="135.36" style="stroke: #000000; stroke-width: 0.8"/>
      </g>
     </g>
     <g id="text_3">
      <!-- 2021-03-17 -->
      <g transform="translate(216.375754 149.958437)scale(0.1 -0.1)">
       <defs>
        <path id="DejaVuSans-33" d="M 2597 2516 
Q 3050 2419 3304 2112 
Q 3559 1806 3559 1356 
Q 3559 666 3084 287 
Q 2609 -91 1734 -91 
Q 1441 -91 1130 -33 
Q 819 25 488 141 
L 488 750 
Q 750 597 1062 519 
Q 1375 441 1716 441 
Q 2309 441 2620 675 
Q 2931 909 2931 1356 
Q 2931 1769 2642 2001 
Q 2353 2234 1838 2234 
L 1294 2234 
L 1294 2753 
L 1863 2753 
Q 2328 2753 2575 2939 
Q 2822 3125 2822 3475 
Q 2822 3834 2567 4026 
Q 2313 4219 1838 4219 
Q 1578 4219 1281 4162 
Q 984 4106 628 3988 
L 628 4550 
Q 988 4650 1302 4700 
Q 1616 4750 1894 4750 
Q 2613 4750 3031 4423 
Q 3450 4097 3450 3541 
Q 3450 3153 3228 2886 
Q 3006 2619 2597 2516 
z
" transform="scale(0.015625)"/>
        <path id="DejaVuSans-37" d="M 525 4666 
L 3525 4666 
L 3525 4397 
L 1831 0 
L 1172 0 
L 2766 4134 
L 525 4134 
L 525 4666 
z
" transform="scale(0.015625)"/>
       </defs>
       <use xlink:href="#DejaVuSans-32"/>
       <use xlink:href="#DejaVuSans-30" x="63.623047"/>
       <use xlink:href="#DejaVuSans-32" x="127.246094"/>
       <use xlink:href="#DejaVuSans-31" x="190.869141"/>
       <use xlink:href="#DejaVuSans-2d" x="254.492188"/>
       <use xlink:href="#DejaVuSans-30" x="290.576172"/>
       <use xlink:href="#DejaVuSans-33" x="354.199219"/>
       <use xlink:href="#DejaVuSans-2d" x="417.822266"/>
       <use xlink:href="#DejaVuSans-31" x="453.90625"/>
       <use xlink:href="#DejaVuSans-37" x="517.529297"/>
      </g>
     </g>
    </g>
    <g id="xtick_4">
     <g id="line2d_4">
      <g>
       <use xlink:href="#m52cb691a48" x="310.468531" y="135.36" style="stroke: #000000; stroke-width: 0.8"/>
      </g>
     </g>
     <g id="text_4">
      <!-- 2021-05-10 -->
      <g transform="translate(281.410719 149.958437)scale(0.1 -0.1)">
       <use xlink:href="#DejaVuSans-32"/>
       <use xlink:href="#DejaVuSans-30" x="63.623047"/>
       <use xlink:href="#DejaVuSans-32" x="127.246094"/>
       <use xlink:href="#DejaVuSans-31" x="190.869141"/>
       <use xlink:href="#DejaVuSans-2d" x="254.492188"/>
       <use xlink:href="#DejaVuSans-30" x="290.576172"/>
       <use xlink:href="#DejaVuSans-35" x="354.199219"/>
       <use xlink:href="#DejaVuSans-2d" x="417.822266"/>
       <use xlink:href="#DejaVuSans-31" x="453.90625"/>
       <use xlink:href="#DejaVuSans-30" x="517.529297"/>
      </g>
     </g>
    </g>
    <g id="xtick_5">
     <g id="line2d_5">
      <g>
       <use xlink:href="#m52cb691a48" x="375.503497" y="135.36" style="stroke: #000000; stroke-width: 0.8"/>
      </g>
     </g>
     <g id="text_5">
      <!-- 2021-07-07 -->
      <g transform="translate(346.445684 149.958437)scale(0.1 -0.1)">
       <use xlink:href="#DejaVuSans-32"/>
       <use xlink:href="#DejaVuSans-30" x="63.623047"/>
       <use xlink:href="#DejaVuSans-32" x="127.246094"/>
       <use xlink:href="#DejaVuSans-31" x="190.869141"/>
       <use xlink:href="#DejaVuSans-2d" x="254.492188"/>
       <use xlink:href="#DejaVuSans-30" x="290.576172"/>
       <use xlink:href="#DejaVuSans-37" x="354.199219"/>
       <use xlink:href="#DejaVuSans-2d" x="417.822266"/>
       <use xlink:href="#DejaVuSans-30" x="453.90625"/>
       <use xlink:href="#DejaVuSans-37" x="517.529297"/>
      </g>
     </g>
    </g>
    <g id="xtick_6">
     <g id="line2d_6">
      <g>
       <use xlink:href="#m52cb691a48" x="440.538462" y="135.36" style="stroke: #000000; stroke-width: 0.8"/>
      </g>
     </g>
     <g id="text_6">
      <!-- 2021-09-13 -->
      <g transform="translate(411.480649 149.958437)scale(0.1 -0.1)">
       <defs>
        <path id="DejaVuSans-39" d="M 703 97 
L 703 672 
Q 941 559 1184 500 
Q 1428 441 1663 441 
Q 2288 441 2617 861 
Q 2947 1281 2994 2138 
Q 2813 1869 2534 1725 
Q 2256 1581 1919 1581 
Q 1219 1581 811 2004 
Q 403 2428 403 3163 
Q 403 3881 828 4315 
Q 1253 4750 1959 4750 
Q 2769 4750 3195 4129 
Q 3622 3509 3622 2328 
Q 3622 1225 3098 567 
Q 2575 -91 1691 -91 
Q 1453 -91 1209 -44 
Q 966 3 703 97 
z
M 1959 2075 
Q 2384 2075 2632 2365 
Q 2881 2656 2881 3163 
Q 2881 3666 2632 3958 
Q 2384 4250 1959 4250 
Q 1534 4250 1286 3958 
Q 1038 3666 1038 3163 
Q 1038 2656 1286 2365 
Q 1534 2075 1959 2075 
z
" transform="scale(0.015625)"/>
       </defs>
       <use xlink:href="#DejaVuSans-32"/>
       <use xlink:href="#DejaVuSans-30" x="63.623047"/>
       <use xlink:href="#DejaVuSans-32" x="127.246094"/>
       <use xlink:href="#DejaVuSans-31" x="190.869141"/>
       <use xlink:href="#DejaVuSans-2d" x="254.492188"/>
       <use xlink:href="#DejaVuSans-30" x="290.576172"/>
       <use xlink:href="#DejaVuSans-39" x="354.199219"/>
       <use xlink:href="#DejaVuSans-2d" x="417.822266"/>
       <use xlink:href="#DejaVuSans-31" x="453.90625"/>
       <use xlink:href="#DejaVuSans-33" x="517.529297"/>
      </g>
     </g>
    </g>
    <g id="xtick_7">
     <g id="line2d_7">
      <g>
       <use xlink:href="#m52cb691a48" x="505.573427" y="135.36" style="stroke: #000000; stroke-width: 0.8"/>
      </g>
     </g>
     <g id="text_7">
      <!-- 2021-11-16 -->
      <g transform="translate(476.515614 149.958437)scale(0.1 -0.1)">
       <defs>
        <path id="DejaVuSans-36" d="M 2113 2584 
Q 1688 2584 1439 2293 
Q 1191 2003 1191 1497 
Q 1191 994 1439 701 
Q 1688 409 2113 409 
Q 2538 409 2786 701 
Q 3034 994 3034 1497 
Q 3034 2003 2786 2293 
Q 2538 2584 2113 2584 
z
M 3366 4563 
L 3366 3988 
Q 3128 4100 2886 4159 
Q 2644 4219 2406 4219 
Q 1781 4219 1451 3797 
Q 1122 3375 1075 2522 
Q 1259 2794 1537 2939 
Q 1816 3084 2150 3084 
Q 2853 3084 3261 2657 
Q 3669 2231 3669 1497 
Q 3669 778 3244 343 
Q 2819 -91 2113 -91 
Q 1303 -91 875 529 
Q 447 1150 447 2328 
Q 447 3434 972 4092 
Q 1497 4750 2381 4750 
Q 2619 4750 2861 4703 
Q 3103 4656 3366 4563 
z
" transform="scale(0.015625)"/>
       </defs>
       <use xlink:href="#DejaVuSans-32"/>
       <use xlink:href="#DejaVuSans-30" x="63.623047"/>
       <use xlink:href="#DejaVuSans-32" x="127.246094"/>
       <use xlink:href="#DejaVuSans-31" x="190.869141"/>
       <use xlink:href="#DejaVuSans-2d" x="254.492188"/>
       <use xlink:href="#DejaVuSans-31" x="290.576172"/>
       <use xlink:href="#DejaVuSans-31" x="354.199219"/>
       <use xlink:href="#DejaVuSans-2d" x="417.822266"/>
       <use xlink:href="#DejaVuSans-31" x="453.90625"/>
       <use xlink:href="#DejaVuSans-36" x="517.529297"/>
      </g>
     </g>
    </g>
    <g id="xtick_8">
     <g id="line2d_8">
      <g>
       <use xlink:href="#m52cb691a48" x="570.608392" y="135.36" style="stroke: #000000; stroke-width: 0.8"/>
      </g>
     </g>
     <g id="text_8">
      <!-- 2022-01-15 -->
      <g transform="translate(541.550579 149.958437)scale(0.1 -0.1)">
       <use xlink:href="#DejaVuSans-32"/>
       <use xlink:href="#DejaVuSans-30" x="63.623047"/>
       <use xlink:href="#DejaVuSans-32" x="127.246094"/>
       <use xlink:href="#DejaVuSans-32" x="190.869141"/>
       <use xlink:href="#DejaVuSans-2d" x="254.492188"/>
       <use xlink:href="#DejaVuSans-30" x="290.576172"/>
       <use xlink:href="#DejaVuSans-31" x="354.199219"/>
       <use xlink:href="#DejaVuSans-2d" x="417.822266"/>
       <use xlink:href="#DejaVuSans-31" x="453.90625"/>
       <use xlink:href="#DejaVuSans-35" x="517.529297"/>
      </g>
     </g>
    </g>
    <g id="xtick_9">
     <g id="line2d_9">
      <g>
       <use xlink:href="#m52cb691a48" x="635.643357" y="135.36" style="stroke: #000000; stroke-width: 0.8"/>
      </g>
     </g>
    </g>
    <g id="text_9">
     <!-- _date -->
     <g transform="translate(355.225 163.636562)scale(0.1 -0.1)">
      <defs>
       <path id="DejaVuSans-5f" d="M 3263 -1063 
L 3263 -1509 
L -63 -1509 
L -63 -1063 
L 3263 -1063 
z
" transform="scale(0.015625)"/>
       <path id="DejaVuSans-64" d="M 2906 2969 
L 2906 4863 
L 3481 4863 
L 3481 0 
L 2906 0 
L 2906 525 
Q 2725 213 2448 61 
Q 2172 -91 1784 -91 
Q 1150 -91 751 415 
Q 353 922 353 1747 
Q 353 2572 751 3078 
Q 1150 3584 1784 3584 
Q 2172 3584 2448 3432 
Q 2725 3281 2906 2969 
z
M 947 1747 
Q 947 1113 1208 752 
Q 1469 391 1925 391 
Q 2381 391 2643 752 
Q 2906 1113 2906 1747 
Q 2906 2381 2643 2742 
Q 2381 3103 1925 3103 
Q 1469 3103 1208 2742 
Q 947 2381 947 1747 
z
" transform="scale(0.015625)"/>
       <path id="DejaVuSans-61" d="M 2194 1759 
Q 1497 1759 1228 1600 
Q 959 1441 959 1056 
Q 959 750 1161 570 
Q 1363 391 1709 391 
Q 2188 391 2477 730 
Q 2766 1069 2766 1631 
L 2766 1759 
L 2194 1759 
z
M 3341 1997 
L 3341 0 
L 2766 0 
L 2766 531 
Q 2569 213 2275 61 
Q 1981 -91 1556 -91 
Q 1019 -91 701 211 
Q 384 513 384 1019 
Q 384 1609 779 1909 
Q 1175 2209 1959 2209 
L 2766 2209 
L 2766 2266 
Q 2766 2663 2505 2880 
Q 2244 3097 1772 3097 
Q 1472 3097 1187 3025 
Q 903 2953 641 2809 
L 641 3341 
Q 956 3463 1253 3523 
Q 1550 3584 1831 3584 
Q 2591 3584 2966 3190 
Q 3341 2797 3341 1997 
z
" transform="scale(0.015625)"/>
       <path id="DejaVuSans-74" d="M 1172 4494 
L 1172 3500 
L 2356 3500 
L 2356 3053 
L 1172 3053 
L 1172 1153 
Q 1172 725 1289 603 
Q 1406 481 1766 481 
L 2356 481 
L 2356 0 
L 1766 0 
Q 1100 0 847 248 
Q 594 497 594 1153 
L 594 3053 
L 172 3053 
L 172 3500 
L 594 3500 
L 594 4494 
L 1172 4494 
z
" transform="scale(0.015625)"/>
       <path id="DejaVuSans-65" d="M 3597 1894 
L 3597 1613 
L 953 1613 
Q 991 1019 1311 708 
Q 1631 397 2203 397 
Q 2534 397 2845 478 
Q 3156 559 3463 722 
L 3463 178 
Q 3153 47 2828 -22 
Q 2503 -91 2169 -91 
Q 1331 -91 842 396 
Q 353 884 353 1716 
Q 353 2575 817 3079 
Q 1281 3584 2069 3584 
Q 2775 3584 3186 3129 
Q 3597 2675 3597 1894 
z
M 3022 2063 
Q 3016 2534 2758 2815 
Q 2500 3097 2075 3097 
Q 1594 3097 1305 2825 
Q 1016 2553 972 2059 
L 3022 2063 
z
" transform="scale(0.015625)"/>
      </defs>
      <use xlink:href="#DejaVuSans-5f"/>
      <use xlink:href="#DejaVuSans-64" x="50"/>
      <use xlink:href="#DejaVuSans-61" x="113.476562"/>
      <use xlink:href="#DejaVuSans-74" x="174.755859"/>
      <use xlink:href="#DejaVuSans-65" x="213.964844"/>
     </g>
    </g>
   </g>
   <g id="matplotlib.axis_2">
    <g id="ytick_1">
     <g id="line2d_10">
      <defs>
       <path id="m3b1ee48573" d="M 0 0 
L -3.5 0 
" style="stroke: #000000; stroke-width: 0.8"/>
      </defs>
      <g>
       <use xlink:href="#m3b1ee48573" x="90" y="131.401558" style="stroke: #000000; stroke-width: 0.8"/>
      </g>
     </g>
     <g id="text_10">
      <!-- 0 -->
      <g transform="translate(76.6375 135.200777)scale(0.1 -0.1)">
       <use xlink:href="#DejaVuSans-30"/>
      </g>
     </g>
    </g>
    <g id="ytick_2">
     <g id="line2d_11">
      <g>
       <use xlink:href="#m3b1ee48573" x="90" y="100.232727" style="stroke: #000000; stroke-width: 0.8"/>
      </g>
     </g>
     <g id="text_11">
      <!-- 50 -->
      <g transform="translate(70.275 104.031946)scale(0.1 -0.1)">
       <use xlink:href="#DejaVuSans-35"/>
       <use xlink:href="#DejaVuSans-30" x="63.623047"/>
      </g>
     </g>
    </g>
    <g id="ytick_3">
     <g id="line2d_12">
      <g>
       <use xlink:href="#m3b1ee48573" x="90" y="69.063896" style="stroke: #000000; stroke-width: 0.8"/>
      </g>
     </g>
     <g id="text_12">
      <!-- 100 -->
      <g transform="translate(63.9125 72.863115)scale(0.1 -0.1)">
       <use xlink:href="#DejaVuSans-31"/>
       <use xlink:href="#DejaVuSans-30" x="63.623047"/>
       <use xlink:href="#DejaVuSans-30" x="127.246094"/>
      </g>
     </g>
    </g>
    <g id="ytick_4">
     <g id="line2d_13">
      <g>
       <use xlink:href="#m3b1ee48573" x="90" y="37.895065" style="stroke: #000000; stroke-width: 0.8"/>
      </g>
     </g>
     <g id="text_13">
      <!-- 150 -->
      <g transform="translate(63.9125 41.694284)scale(0.1 -0.1)">
       <use xlink:href="#DejaVuSans-31"/>
       <use xlink:href="#DejaVuSans-35" x="63.623047"/>
       <use xlink:href="#DejaVuSans-30" x="127.246094"/>
      </g>
     </g>
    </g>
   </g>
   <g id="line2d_14">
    <path d="M 115.363636 127.661299 
L 116.664336 128.284675 
L 117.965035 130.778182 
L 119.265734 130.778182 
L 120.566434 129.531429 
L 121.867133 129.531429 
L 123.167832 120.804156 
L 124.468531 120.804156 
L 125.769231 130.778182 
L 127.06993 130.778182 
L 128.370629 124.544416 
L 129.671329 126.414545 
L 130.972028 130.778182 
L 132.272727 127.661299 
L 133.573427 128.908052 
L 134.874126 128.908052 
L 136.174825 130.778182 
L 138.776224 128.284675 
L 140.076923 130.154805 
L 141.377622 130.778182 
L 142.678322 130.154805 
L 143.979021 130.154805 
L 145.27972 129.531429 
L 146.58042 130.154805 
L 147.881119 130.154805 
L 149.181818 128.908052 
L 150.482517 130.154805 
L 151.783217 130.154805 
L 153.083916 122.674286 
L 154.384615 127.661299 
L 155.685315 130.154805 
L 156.986014 115.817143 
L 158.286713 130.778182 
L 168.692308 130.778182 
L 169.993007 130.154805 
L 171.293706 130.778182 
L 180.398601 130.778182 
L 181.699301 128.908052 
L 183 129.531429 
L 184.300699 130.778182 
L 185.601399 129.531429 
L 186.902098 127.661299 
L 188.202797 130.154805 
L 189.503497 130.154805 
L 190.804196 128.908052 
L 192.104895 120.804156 
L 193.405594 130.154805 
L 194.706294 130.778182 
L 196.006993 130.154805 
L 197.307692 127.037922 
L 198.608392 130.154805 
L 199.909091 129.531429 
L 201.20979 125.167792 
L 202.51049 128.908052 
L 203.811189 127.037922 
L 205.111888 130.154805 
L 206.412587 129.531429 
L 207.713287 130.154805 
L 209.013986 129.531429 
L 211.615385 129.531429 
L 212.916084 128.284675 
L 214.216783 130.778182 
L 215.517483 130.778182 
L 216.818182 128.284675 
L 218.118881 128.284675 
L 219.41958 125.167792 
L 220.72028 129.531429 
L 222.020979 127.661299 
L 223.321678 130.778182 
L 224.622378 125.791169 
L 225.923077 128.908052 
L 227.223776 129.531429 
L 228.524476 128.908052 
L 229.825175 126.414545 
L 231.125874 130.154805 
L 232.426573 128.284675 
L 233.727273 121.427532 
L 235.027972 126.414545 
L 236.328671 120.804156 
L 237.629371 87.141818 
L 238.93007 127.661299 
L 240.230769 130.778182 
L 241.531469 128.908052 
L 242.832168 123.297662 
L 244.132867 124.544416 
L 245.433566 127.661299 
L 246.734266 119.557403 
L 248.034965 128.908052 
L 249.335664 128.908052 
L 250.636364 130.154805 
L 251.937063 122.674286 
L 253.237762 124.544416 
L 254.538462 130.778182 
L 255.839161 129.531429 
L 257.13986 130.778182 
L 258.440559 128.284675 
L 259.741259 100.232727 
L 261.041958 118.310649 
L 262.342657 121.427532 
L 263.643357 127.661299 
L 264.944056 130.778182 
L 266.244755 126.414545 
L 267.545455 128.908052 
L 268.846154 122.050909 
L 270.146853 128.908052 
L 271.447552 123.297662 
L 272.748252 115.817143 
L 274.048951 122.674286 
L 275.34965 127.661299 
L 276.65035 115.193766 
L 277.951049 115.193766 
L 279.251748 116.440519 
L 280.552448 92.128831 
L 281.853147 107.08987 
L 283.153846 107.08987 
L 284.454545 119.557403 
L 285.755245 110.206753 
L 287.055944 118.934026 
L 288.356643 129.531429 
L 289.657343 130.154805 
L 290.958042 116.440519 
L 292.258741 114.57039 
L 293.559441 115.817143 
L 294.86014 111.453506 
L 296.160839 105.843117 
L 297.461538 128.284675 
L 298.762238 130.154805 
L 300.062937 116.440519 
L 301.363636 117.687273 
L 302.664336 100.232727 
L 303.965035 115.817143 
L 305.265734 116.440519 
L 306.566434 130.154805 
L 307.867133 128.908052 
L 309.167832 114.57039 
L 310.468531 102.102857 
L 311.769231 117.063896 
L 313.06993 113.323636 
L 314.370629 95.245714 
L 315.671329 117.063896 
L 316.972028 130.154805 
L 318.272727 114.57039 
L 319.573427 105.843117 
L 320.874126 102.726234 
L 322.174825 108.96 
L 323.475524 111.453506 
L 324.776224 129.531429 
L 326.076923 115.193766 
L 327.377622 108.336623 
L 328.678322 115.817143 
L 329.979021 115.193766 
L 331.27972 113.947013 
L 332.58042 125.791169 
L 333.881119 115.817143 
L 335.181818 113.323636 
L 336.482517 115.817143 
L 337.783217 116.440519 
L 339.083916 116.440519 
L 340.384615 130.778182 
L 341.685315 130.778182 
L 342.986014 115.193766 
L 344.286713 112.076883 
L 345.587413 115.193766 
L 346.888112 102.726234 
L 348.188811 105.843117 
L 349.48951 130.778182 
L 350.79021 115.817143 
L 352.090909 113.947013 
L 353.391608 113.323636 
L 354.692308 112.076883 
L 355.993007 117.063896 
L 357.293706 130.154805 
L 358.594406 114.57039 
L 359.895105 110.83013 
L 361.195804 105.21974 
L 362.496503 104.596364 
L 363.797203 39.141818 
L 366.398601 130.778182 
L 367.699301 118.310649 
L 369 117.063896 
L 370.300699 124.544416 
L 371.601399 130.778182 
L 372.902098 130.154805 
L 374.202797 123.297662 
L 375.503497 125.167792 
L 376.804196 130.154805 
L 378.104895 128.908052 
L 379.405594 130.154805 
L 380.706294 130.778182 
L 382.006993 130.154805 
L 383.307692 130.778182 
L 384.608392 130.778182 
L 385.909091 128.908052 
L 387.20979 129.531429 
L 388.51049 130.778182 
L 392.412587 130.778182 
L 393.713287 128.284675 
L 395.013986 130.154805 
L 396.314685 130.778182 
L 397.615385 130.154805 
L 398.916084 127.037922 
L 400.216783 130.778182 
L 401.517483 117.063896 
L 402.818182 129.531429 
L 404.118881 130.778182 
L 406.72028 129.531429 
L 408.020979 130.778182 
L 409.321678 130.154805 
L 410.622378 130.778182 
L 411.923077 128.908052 
L 413.223776 130.154805 
L 414.524476 129.531429 
L 415.825175 130.778182 
L 418.426573 130.778182 
L 421.027972 129.531429 
L 422.328671 127.037922 
L 423.629371 130.154805 
L 424.93007 130.154805 
L 426.230769 124.544416 
L 427.531469 122.050909 
L 428.832168 130.778182 
L 431.433566 130.778182 
L 434.034965 129.531429 
L 435.335664 130.154805 
L 436.636364 125.167792 
L 437.937063 113.323636 
L 439.237762 127.661299 
L 440.538462 110.206753 
L 441.839161 126.414545 
L 443.13986 130.154805 
L 444.440559 130.778182 
L 447.041958 130.778182 
L 448.342657 130.154805 
L 449.643357 130.778182 
L 450.944056 130.778182 
L 452.244755 128.284675 
L 453.545455 98.362597 
L 454.846154 117.063896 
L 456.146853 129.531429 
L 457.447552 122.674286 
L 458.748252 98.985974 
L 460.048951 96.492468 
L 461.34965 90.882078 
L 462.65035 103.972987 
L 463.951049 120.804156 
L 465.251748 122.674286 
L 466.552448 130.778182 
L 467.853147 125.791169 
L 469.153846 130.778182 
L 470.454545 130.778182 
L 471.755245 122.050909 
L 473.055944 129.531429 
L 474.356643 97.739221 
L 475.657343 122.674286 
L 476.958042 95.869091 
L 478.258741 123.297662 
L 479.559441 128.284675 
L 480.86014 121.427532 
L 482.160839 93.998961 
L 483.461538 120.804156 
L 484.762238 122.674286 
L 486.062937 129.531429 
L 487.363636 130.778182 
L 488.664336 130.778182 
L 489.965035 129.531429 
L 491.265734 126.414545 
L 492.566434 123.921039 
L 493.867133 122.674286 
L 495.167832 130.778182 
L 496.468531 130.778182 
L 497.769231 120.180779 
L 499.06993 115.817143 
L 500.370629 130.778182 
L 501.671329 129.531429 
L 502.972028 130.778182 
L 504.272727 125.167792 
L 505.573427 129.531429 
L 506.874126 130.778182 
L 508.174825 130.154805 
L 509.475524 128.908052 
L 510.776224 128.908052 
L 512.076923 106.466494 
L 513.377622 128.908052 
L 514.678322 128.908052 
L 515.979021 120.804156 
L 517.27972 105.21974 
L 518.58042 123.297662 
L 519.881119 123.297662 
L 521.181818 129.531429 
L 522.482517 120.180779 
L 523.783217 120.804156 
L 525.083916 103.34961 
L 526.384615 63.453506 
L 527.685315 123.297662 
L 528.986014 113.323636 
L 530.286713 130.778182 
L 531.587413 104.596364 
L 532.888112 99.609351 
L 534.188811 127.037922 
L 535.48951 117.063896 
L 536.79021 130.778182 
L 539.391608 130.778182 
L 540.692308 100.856104 
L 541.993007 98.985974 
L 543.293706 130.154805 
L 544.594406 120.804156 
L 545.895105 130.778182 
L 547.195804 130.778182 
L 548.496503 129.531429 
L 549.797203 130.778182 
L 551.097902 130.154805 
L 552.398601 128.908052 
L 553.699301 130.778182 
L 555 122.050909 
L 556.300699 122.674286 
L 557.601399 117.063896 
L 558.902098 93.998961 
L 560.202797 124.544416 
L 561.503497 130.154805 
L 562.804196 115.193766 
L 564.104895 116.440519 
L 565.405594 130.154805 
L 566.706294 125.791169 
L 568.006993 120.180779 
L 569.307692 122.674286 
L 570.608392 127.661299 
L 571.909091 130.154805 
L 573.20979 128.284675 
L 574.51049 127.037922 
L 575.811189 115.817143 
L 577.111888 128.284675 
L 578.412587 122.674286 
L 579.713287 125.167792 
L 581.013986 130.778182 
L 582.314685 75.297662 
L 583.615385 75.921039 
L 584.916084 117.687273 
L 586.216783 97.115844 
L 587.517483 122.050909 
L 588.818182 78.414545 
L 590.118881 130.778182 
L 591.41958 118.934026 
L 592.72028 108.96 
L 594.020979 109.583377 
L 595.321678 99.609351 
L 596.622378 108.96 
L 597.923077 125.791169 
L 599.223776 130.778182 
L 600.524476 108.96 
L 601.825175 110.206753 
L 603.125874 87.765195 
L 604.426573 90.882078 
L 605.727273 130.778182 
L 607.027972 122.674286 
L 608.328671 128.908052 
L 609.629371 95.869091 
L 610.93007 94.622338 
L 612.230769 128.908052 
L 613.531469 130.778182 
L 616.132867 130.778182 
L 617.433566 128.284675 
L 618.734266 128.908052 
L 620.034965 124.544416 
L 621.335664 127.037922 
L 622.636364 123.921039 
L 622.636364 123.921039 
" clip-path="url(#p43352c61f0)" style="fill: none; stroke: #1f77b4; stroke-width: 1.5; stroke-linecap: square"/>
   </g>
   <g id="line2d_15">
    <path d="M 115.363636 127.661299 
L 116.664336 128.284675 
L 117.965035 130.778182 
L 119.265734 130.778182 
L 120.566434 129.531429 
L 121.867133 129.531429 
L 123.167832 130.154805 
L 124.468531 128.284675 
L 125.769231 130.778182 
L 127.06993 130.778182 
L 128.370629 124.544416 
L 129.671329 129.531429 
L 130.972028 130.778182 
L 132.272727 128.908052 
L 133.573427 128.908052 
L 134.874126 129.531429 
L 136.174825 130.778182 
L 137.475524 129.531429 
L 138.776224 128.908052 
L 140.076923 130.154805 
L 141.377622 130.778182 
L 142.678322 130.154805 
L 143.979021 130.778182 
L 145.27972 129.531429 
L 147.881119 130.778182 
L 149.181818 130.154805 
L 150.482517 130.778182 
L 151.783217 130.154805 
L 153.083916 125.791169 
L 154.384615 127.661299 
L 155.685315 130.154805 
L 156.986014 125.167792 
L 158.286713 130.778182 
L 168.692308 130.778182 
L 169.993007 130.154805 
L 171.293706 130.778182 
L 180.398601 130.778182 
L 181.699301 129.531429 
L 183 130.778182 
L 184.300699 130.778182 
L 186.902098 129.531429 
L 188.202797 130.778182 
L 190.804196 130.778182 
L 192.104895 124.544416 
L 193.405594 130.778182 
L 194.706294 130.778182 
L 196.006993 130.154805 
L 197.307692 128.908052 
L 198.608392 130.154805 
L 199.909091 129.531429 
L 201.20979 127.037922 
L 202.51049 129.531429 
L 203.811189 130.778182 
L 205.111888 130.154805 
L 206.412587 130.778182 
L 207.713287 130.154805 
L 209.013986 130.778182 
L 210.314685 129.531429 
L 212.916084 129.531429 
L 214.216783 130.778182 
L 215.517483 130.778182 
L 219.41958 127.037922 
L 220.72028 129.531429 
L 222.020979 128.284675 
L 223.321678 130.778182 
L 224.622378 127.037922 
L 225.923077 128.908052 
L 227.223776 129.531429 
L 228.524476 128.908052 
L 229.825175 126.414545 
L 231.125874 130.154805 
L 232.426573 128.284675 
L 233.727273 124.544416 
L 235.027972 127.037922 
L 236.328671 123.297662 
L 237.629371 108.96 
L 238.93007 127.661299 
L 240.230769 130.778182 
L 241.531469 129.531429 
L 242.832168 123.921039 
L 245.433566 127.661299 
L 246.734266 122.050909 
L 248.034965 128.908052 
L 249.335664 128.908052 
L 250.636364 130.154805 
L 251.937063 124.544416 
L 253.237762 124.544416 
L 254.538462 130.778182 
L 255.839161 129.531429 
L 257.13986 130.778182 
L 258.440559 128.908052 
L 259.741259 116.440519 
L 261.041958 122.674286 
L 262.342657 124.544416 
L 263.643357 128.284675 
L 264.944056 130.778182 
L 266.244755 127.661299 
L 267.545455 130.154805 
L 268.846154 123.921039 
L 270.146853 129.531429 
L 271.447552 123.921039 
L 272.748252 120.180779 
L 274.048951 123.297662 
L 275.34965 128.284675 
L 276.65035 120.804156 
L 277.951049 125.167792 
L 279.251748 130.154805 
L 280.552448 121.427532 
L 281.853147 128.908052 
L 283.153846 125.791169 
L 284.454545 121.427532 
L 285.755245 125.167792 
L 287.055944 130.778182 
L 288.356643 130.154805 
L 289.657343 130.154805 
L 290.958042 130.778182 
L 292.258741 128.908052 
L 293.559441 129.531429 
L 296.160839 120.804156 
L 297.461538 128.284675 
L 298.762238 130.154805 
L 300.062937 130.778182 
L 301.363636 128.908052 
L 302.664336 117.687273 
L 303.965035 130.778182 
L 305.265734 129.531429 
L 306.566434 130.154805 
L 309.167832 130.154805 
L 310.468531 118.934026 
L 311.769231 128.908052 
L 313.06993 127.037922 
L 314.370629 115.817143 
L 315.671329 120.180779 
L 316.972028 130.154805 
L 318.272727 130.778182 
L 319.573427 125.791169 
L 320.874126 129.531429 
L 322.174825 128.908052 
L 323.475524 130.154805 
L 324.776224 130.154805 
L 326.076923 130.778182 
L 327.377622 123.921039 
L 328.678322 130.778182 
L 329.979021 130.154805 
L 331.27972 128.908052 
L 332.58042 127.037922 
L 333.881119 130.778182 
L 335.181818 128.908052 
L 336.482517 130.778182 
L 337.783217 129.531429 
L 339.083916 129.531429 
L 340.384615 130.778182 
L 342.986014 130.778182 
L 344.286713 127.661299 
L 345.587413 130.778182 
L 346.888112 128.908052 
L 348.188811 125.791169 
L 349.48951 130.778182 
L 350.79021 130.778182 
L 352.090909 130.154805 
L 353.391608 128.908052 
L 357.293706 130.778182 
L 358.594406 130.154805 
L 359.895105 126.414545 
L 361.195804 126.414545 
L 362.496503 127.661299 
L 363.797203 130.778182 
L 365.097902 121.427532 
L 366.398601 130.778182 
L 367.699301 130.154805 
L 369 126.414545 
L 370.300699 125.791169 
L 371.601399 130.778182 
L 372.902098 130.154805 
L 374.202797 123.297662 
L 375.503497 126.414545 
L 376.804196 130.154805 
L 378.104895 128.908052 
L 379.405594 130.778182 
L 380.706294 130.778182 
L 382.006993 130.154805 
L 383.307692 130.778182 
L 384.608392 130.778182 
L 385.909091 128.908052 
L 387.20979 129.531429 
L 388.51049 130.778182 
L 392.412587 130.778182 
L 393.713287 128.284675 
L 395.013986 130.154805 
L 396.314685 130.778182 
L 397.615385 130.154805 
L 398.916084 127.661299 
L 400.216783 130.778182 
L 401.517483 130.778182 
L 402.818182 129.531429 
L 404.118881 130.778182 
L 406.72028 129.531429 
L 408.020979 130.778182 
L 409.321678 130.154805 
L 410.622378 130.778182 
L 411.923077 128.908052 
L 413.223776 130.154805 
L 414.524476 129.531429 
L 415.825175 130.778182 
L 418.426573 130.778182 
L 421.027972 129.531429 
L 422.328671 127.037922 
L 423.629371 130.154805 
L 424.93007 130.778182 
L 426.230769 124.544416 
L 427.531469 123.921039 
L 428.832168 130.778182 
L 431.433566 130.778182 
L 434.034965 129.531429 
L 435.335664 130.778182 
L 436.636364 125.791169 
L 437.937063 122.050909 
L 439.237762 130.154805 
L 440.538462 121.427532 
L 441.839161 127.661299 
L 443.13986 130.778182 
L 447.041958 130.778182 
L 448.342657 130.154805 
L 449.643357 130.778182 
L 450.944056 130.778182 
L 452.244755 128.284675 
L 453.545455 114.57039 
L 454.846154 119.557403 
L 456.146853 129.531429 
L 457.447552 123.921039 
L 458.748252 114.57039 
L 460.048951 112.076883 
L 461.34965 112.076883 
L 462.65035 119.557403 
L 463.951049 121.427532 
L 465.251748 124.544416 
L 466.552448 130.778182 
L 467.853147 126.414545 
L 469.153846 130.778182 
L 470.454545 130.778182 
L 471.755245 123.297662 
L 473.055944 129.531429 
L 474.356643 122.674286 
L 475.657343 128.284675 
L 476.958042 126.414545 
L 478.258741 130.154805 
L 479.559441 130.778182 
L 480.86014 128.284675 
L 482.160839 121.427532 
L 483.461538 125.791169 
L 484.762238 126.414545 
L 486.062937 130.154805 
L 487.363636 130.778182 
L 488.664336 130.778182 
L 489.965035 129.531429 
L 491.265734 128.908052 
L 492.566434 127.037922 
L 493.867133 127.037922 
L 495.167832 130.778182 
L 496.468531 130.778182 
L 497.769231 125.167792 
L 499.06993 123.921039 
L 500.370629 130.778182 
L 501.671329 129.531429 
L 502.972028 130.778182 
L 504.272727 127.661299 
L 505.573427 129.531429 
L 506.874126 130.778182 
L 508.174825 130.154805 
L 509.475524 128.908052 
L 510.776224 128.908052 
L 512.076923 122.050909 
L 513.377622 128.908052 
L 514.678322 129.531429 
L 515.979021 126.414545 
L 517.27972 120.180779 
L 518.58042 126.414545 
L 519.881119 127.037922 
L 521.181818 130.154805 
L 522.482517 126.414545 
L 523.783217 127.037922 
L 526.384615 112.70026 
L 527.685315 127.661299 
L 528.986014 123.921039 
L 530.286713 130.778182 
L 531.587413 120.804156 
L 532.888112 117.063896 
L 534.188811 128.284675 
L 535.48951 123.921039 
L 536.79021 130.778182 
L 539.391608 130.778182 
L 540.692308 120.180779 
L 541.993007 116.440519 
L 543.293706 130.154805 
L 544.594406 125.791169 
L 545.895105 130.778182 
L 547.195804 130.778182 
L 548.496503 130.154805 
L 549.797203 130.778182 
L 551.097902 130.778182 
L 552.398601 130.154805 
L 553.699301 130.778182 
L 555 126.414545 
L 556.300699 126.414545 
L 557.601399 124.544416 
L 558.902098 117.063896 
L 560.202797 127.661299 
L 561.503497 130.778182 
L 562.804196 122.674286 
L 564.104895 123.297662 
L 565.405594 130.154805 
L 568.006993 126.414545 
L 569.307692 127.661299 
L 570.608392 128.284675 
L 571.909091 130.778182 
L 573.20979 128.908052 
L 574.51049 127.661299 
L 575.811189 122.674286 
L 577.111888 129.531429 
L 578.412587 127.037922 
L 579.713287 127.661299 
L 581.013986 130.778182 
L 582.314685 110.206753 
L 583.615385 110.206753 
L 584.916084 123.921039 
L 586.216783 118.310649 
L 587.517483 126.414545 
L 588.818182 112.076883 
L 590.118881 130.778182 
L 591.41958 130.154805 
L 592.72028 118.934026 
L 594.020979 118.934026 
L 595.321678 117.063896 
L 596.622378 118.934026 
L 597.923077 128.284675 
L 599.223776 130.778182 
L 600.524476 121.427532 
L 601.825175 122.674286 
L 603.125874 113.947013 
L 604.426573 113.323636 
L 605.727273 130.778182 
L 607.027972 127.037922 
L 608.328671 130.778182 
L 609.629371 117.063896 
L 610.93007 117.063896 
L 612.230769 129.531429 
L 613.531469 130.778182 
L 616.132867 130.778182 
L 617.433566 128.908052 
L 618.734266 130.154805 
L 620.034965 127.661299 
L 621.335664 128.908052 
L 622.636364 127.661299 
L 622.636364 127.661299 
" clip-path="url(#p43352c61f0)" style="fill: none; stroke: #ff7f0e; stroke-width: 1.5; stroke-linecap: square"/>
   </g>
   <g id="patch_3">
    <path d="M 90 135.36 
L 90 34.56 
" style="fill: none; stroke: #000000; stroke-width: 0.8; stroke-linejoin: miter; stroke-linecap: square"/>
   </g>
   <g id="patch_4">
    <path d="M 648 135.36 
L 648 34.56 
" style="fill: none; stroke: #000000; stroke-width: 0.8; stroke-linejoin: miter; stroke-linecap: square"/>
   </g>
   <g id="patch_5">
    <path d="M 90 135.36 
L 648 135.36 
" style="fill: none; stroke: #000000; stroke-width: 0.8; stroke-linejoin: miter; stroke-linecap: square"/>
   </g>
   <g id="patch_6">
    <path d="M 90 34.56 
L 648 34.56 
" style="fill: none; stroke: #000000; stroke-width: 0.8; stroke-linejoin: miter; stroke-linecap: square"/>
   </g>
   <g id="legend_1">
    <g id="patch_7">
     <path d="M 97 71.91625 
L 238.8625 71.91625 
Q 240.8625 71.91625 240.8625 69.91625 
L 240.8625 41.56 
Q 240.8625 39.56 238.8625 39.56 
L 97 39.56 
Q 95 39.56 95 41.56 
L 95 69.91625 
Q 95 71.91625 97 71.91625 
z
" style="fill: #ffffff; opacity: 0.8; stroke: #cccccc; stroke-linejoin: miter"/>
    </g>
    <g id="line2d_16">
     <path d="M 99 47.658437 
L 109 47.658437 
L 119 47.658437 
" style="fill: none; stroke: #1f77b4; stroke-width: 1.5; stroke-linecap: square"/>
    </g>
    <g id="text_14">
     <!-- Total GitHub Clones -->
     <g transform="translate(127 51.158437)scale(0.1 -0.1)">
      <defs>
       <path id="DejaVuSans-54" d="M -19 4666 
L 3928 4666 
L 3928 4134 
L 2272 4134 
L 2272 0 
L 1638 0 
L 1638 4134 
L -19 4134 
L -19 4666 
z
" transform="scale(0.015625)"/>
       <path id="DejaVuSans-6f" d="M 1959 3097 
Q 1497 3097 1228 2736 
Q 959 2375 959 1747 
Q 959 1119 1226 758 
Q 1494 397 1959 397 
Q 2419 397 2687 759 
Q 2956 1122 2956 1747 
Q 2956 2369 2687 2733 
Q 2419 3097 1959 3097 
z
M 1959 3584 
Q 2709 3584 3137 3096 
Q 3566 2609 3566 1747 
Q 3566 888 3137 398 
Q 2709 -91 1959 -91 
Q 1206 -91 779 398 
Q 353 888 353 1747 
Q 353 2609 779 3096 
Q 1206 3584 1959 3584 
z
" transform="scale(0.015625)"/>
       <path id="DejaVuSans-6c" d="M 603 4863 
L 1178 4863 
L 1178 0 
L 603 0 
L 603 4863 
z
" transform="scale(0.015625)"/>
       <path id="DejaVuSans-20" transform="scale(0.015625)"/>
       <path id="DejaVuSans-47" d="M 3809 666 
L 3809 1919 
L 2778 1919 
L 2778 2438 
L 4434 2438 
L 4434 434 
Q 4069 175 3628 42 
Q 3188 -91 2688 -91 
Q 1594 -91 976 548 
Q 359 1188 359 2328 
Q 359 3472 976 4111 
Q 1594 4750 2688 4750 
Q 3144 4750 3555 4637 
Q 3966 4525 4313 4306 
L 4313 3634 
Q 3963 3931 3569 4081 
Q 3175 4231 2741 4231 
Q 1884 4231 1454 3753 
Q 1025 3275 1025 2328 
Q 1025 1384 1454 906 
Q 1884 428 2741 428 
Q 3075 428 3337 486 
Q 3600 544 3809 666 
z
" transform="scale(0.015625)"/>
       <path id="DejaVuSans-69" d="M 603 3500 
L 1178 3500 
L 1178 0 
L 603 0 
L 603 3500 
z
M 603 4863 
L 1178 4863 
L 1178 4134 
L 603 4134 
L 603 4863 
z
" transform="scale(0.015625)"/>
       <path id="DejaVuSans-48" d="M 628 4666 
L 1259 4666 
L 1259 2753 
L 3553 2753 
L 3553 4666 
L 4184 4666 
L 4184 0 
L 3553 0 
L 3553 2222 
L 1259 2222 
L 1259 0 
L 628 0 
L 628 4666 
z
" transform="scale(0.015625)"/>
       <path id="DejaVuSans-75" d="M 544 1381 
L 544 3500 
L 1119 3500 
L 1119 1403 
Q 1119 906 1312 657 
Q 1506 409 1894 409 
Q 2359 409 2629 706 
Q 2900 1003 2900 1516 
L 2900 3500 
L 3475 3500 
L 3475 0 
L 2900 0 
L 2900 538 
Q 2691 219 2414 64 
Q 2138 -91 1772 -91 
Q 1169 -91 856 284 
Q 544 659 544 1381 
z
M 1991 3584 
L 1991 3584 
z
" transform="scale(0.015625)"/>
       <path id="DejaVuSans-62" d="M 3116 1747 
Q 3116 2381 2855 2742 
Q 2594 3103 2138 3103 
Q 1681 3103 1420 2742 
Q 1159 2381 1159 1747 
Q 1159 1113 1420 752 
Q 1681 391 2138 391 
Q 2594 391 2855 752 
Q 3116 1113 3116 1747 
z
M 1159 2969 
Q 1341 3281 1617 3432 
Q 1894 3584 2278 3584 
Q 2916 3584 3314 3078 
Q 3713 2572 3713 1747 
Q 3713 922 3314 415 
Q 2916 -91 2278 -91 
Q 1894 -91 1617 61 
Q 1341 213 1159 525 
L 1159 0 
L 581 0 
L 581 4863 
L 1159 4863 
L 1159 2969 
z
" transform="scale(0.015625)"/>
       <path id="DejaVuSans-43" d="M 4122 4306 
L 4122 3641 
Q 3803 3938 3442 4084 
Q 3081 4231 2675 4231 
Q 1875 4231 1450 3742 
Q 1025 3253 1025 2328 
Q 1025 1406 1450 917 
Q 1875 428 2675 428 
Q 3081 428 3442 575 
Q 3803 722 4122 1019 
L 4122 359 
Q 3791 134 3420 21 
Q 3050 -91 2638 -91 
Q 1578 -91 968 557 
Q 359 1206 359 2328 
Q 359 3453 968 4101 
Q 1578 4750 2638 4750 
Q 3056 4750 3426 4639 
Q 3797 4528 4122 4306 
z
" transform="scale(0.015625)"/>
       <path id="DejaVuSans-6e" d="M 3513 2113 
L 3513 0 
L 2938 0 
L 2938 2094 
Q 2938 2591 2744 2837 
Q 2550 3084 2163 3084 
Q 1697 3084 1428 2787 
Q 1159 2491 1159 1978 
L 1159 0 
L 581 0 
L 581 3500 
L 1159 3500 
L 1159 2956 
Q 1366 3272 1645 3428 
Q 1925 3584 2291 3584 
Q 2894 3584 3203 3211 
Q 3513 2838 3513 2113 
z
" transform="scale(0.015625)"/>
       <path id="DejaVuSans-73" d="M 2834 3397 
L 2834 2853 
Q 2591 2978 2328 3040 
Q 2066 3103 1784 3103 
Q 1356 3103 1142 2972 
Q 928 2841 928 2578 
Q 928 2378 1081 2264 
Q 1234 2150 1697 2047 
L 1894 2003 
Q 2506 1872 2764 1633 
Q 3022 1394 3022 966 
Q 3022 478 2636 193 
Q 2250 -91 1575 -91 
Q 1294 -91 989 -36 
Q 684 19 347 128 
L 347 722 
Q 666 556 975 473 
Q 1284 391 1588 391 
Q 1994 391 2212 530 
Q 2431 669 2431 922 
Q 2431 1156 2273 1281 
Q 2116 1406 1581 1522 
L 1381 1569 
Q 847 1681 609 1914 
Q 372 2147 372 2553 
Q 372 3047 722 3315 
Q 1072 3584 1716 3584 
Q 2034 3584 2315 3537 
Q 2597 3491 2834 3397 
z
" transform="scale(0.015625)"/>
      </defs>
      <use xlink:href="#DejaVuSans-54"/>
      <use xlink:href="#DejaVuSans-6f" x="44.083984"/>
      <use xlink:href="#DejaVuSans-74" x="105.265625"/>
      <use xlink:href="#DejaVuSans-61" x="144.474609"/>
      <use xlink:href="#DejaVuSans-6c" x="205.753906"/>
      <use xlink:href="#DejaVuSans-20" x="233.537109"/>
      <use xlink:href="#DejaVuSans-47" x="265.324219"/>
      <use xlink:href="#DejaVuSans-69" x="342.814453"/>
      <use xlink:href="#DejaVuSans-74" x="370.597656"/>
      <use xlink:href="#DejaVuSans-48" x="409.806641"/>
      <use xlink:href="#DejaVuSans-75" x="485.001953"/>
      <use xlink:href="#DejaVuSans-62" x="548.380859"/>
      <use xlink:href="#DejaVuSans-20" x="611.857422"/>
      <use xlink:href="#DejaVuSans-43" x="643.644531"/>
      <use xlink:href="#DejaVuSans-6c" x="713.46875"/>
      <use xlink:href="#DejaVuSans-6f" x="741.251953"/>
      <use xlink:href="#DejaVuSans-6e" x="802.433594"/>
      <use xlink:href="#DejaVuSans-65" x="865.8125"/>
      <use xlink:href="#DejaVuSans-73" x="927.335938"/>
     </g>
    </g>
    <g id="line2d_17">
     <path d="M 99 62.336562 
L 109 62.336562 
L 119 62.336562 
" style="fill: none; stroke: #ff7f0e; stroke-width: 1.5; stroke-linecap: square"/>
    </g>
    <g id="text_15">
     <!-- Unique GitHub Clones -->
     <g transform="translate(127 65.836562)scale(0.1 -0.1)">
      <defs>
       <path id="DejaVuSans-55" d="M 556 4666 
L 1191 4666 
L 1191 1831 
Q 1191 1081 1462 751 
Q 1734 422 2344 422 
Q 2950 422 3222 751 
Q 3494 1081 3494 1831 
L 3494 4666 
L 4128 4666 
L 4128 1753 
Q 4128 841 3676 375 
Q 3225 -91 2344 -91 
Q 1459 -91 1007 375 
Q 556 841 556 1753 
L 556 4666 
z
" transform="scale(0.015625)"/>
       <path id="DejaVuSans-71" d="M 947 1747 
Q 947 1113 1208 752 
Q 1469 391 1925 391 
Q 2381 391 2643 752 
Q 2906 1113 2906 1747 
Q 2906 2381 2643 2742 
Q 2381 3103 1925 3103 
Q 1469 3103 1208 2742 
Q 947 2381 947 1747 
z
M 2906 525 
Q 2725 213 2448 61 
Q 2172 -91 1784 -91 
Q 1150 -91 751 415 
Q 353 922 353 1747 
Q 353 2572 751 3078 
Q 1150 3584 1784 3584 
Q 2172 3584 2448 3432 
Q 2725 3281 2906 2969 
L 2906 3500 
L 3481 3500 
L 3481 -1331 
L 2906 -1331 
L 2906 525 
z
" transform="scale(0.015625)"/>
      </defs>
      <use xlink:href="#DejaVuSans-55"/>
      <use xlink:href="#DejaVuSans-6e" x="73.193359"/>
      <use xlink:href="#DejaVuSans-69" x="136.572266"/>
      <use xlink:href="#DejaVuSans-71" x="164.355469"/>
      <use xlink:href="#DejaVuSans-75" x="227.832031"/>
      <use xlink:href="#DejaVuSans-65" x="291.210938"/>
      <use xlink:href="#DejaVuSans-20" x="352.734375"/>
      <use xlink:href="#DejaVuSans-47" x="384.521484"/>
      <use xlink:href="#DejaVuSans-69" x="462.011719"/>
      <use xlink:href="#DejaVuSans-74" x="489.794922"/>
      <use xlink:href="#DejaVuSans-48" x="529.003906"/>
      <use xlink:href="#DejaVuSans-75" x="604.199219"/>
      <use xlink:href="#DejaVuSans-62" x="667.578125"/>
      <use xlink:href="#DejaVuSans-20" x="731.054688"/>
      <use xlink:href="#DejaVuSans-43" x="762.841797"/>
      <use xlink:href="#DejaVuSans-6c" x="832.666016"/>
      <use xlink:href="#DejaVuSans-6f" x="860.449219"/>
      <use xlink:href="#DejaVuSans-6e" x="921.630859"/>
      <use xlink:href="#DejaVuSans-65" x="985.009766"/>
      <use xlink:href="#DejaVuSans-73" x="1046.533203"/>
     </g>
    </g>
   </g>
  </g>
  <g id="axes_2">
   <g id="patch_8">
    <path d="M 90 256.32 
L 648 256.32 
L 648 155.52 
L 90 155.52 
z
" style="fill: #ffffff"/>
   </g>
   <g id="matplotlib.axis_3">
    <g id="xtick_10">
     <g id="line2d_18">
      <g>
       <use xlink:href="#m52cb691a48" x="115.363636" y="256.32" style="stroke: #000000; stroke-width: 0.8"/>
      </g>
     </g>
     <g id="text_16">
      <!-- 2020-10-21 -->
      <g transform="translate(86.305824 270.918437)scale(0.1 -0.1)">
       <use xlink:href="#DejaVuSans-32"/>
       <use xlink:href="#DejaVuSans-30" x="63.623047"/>
       <use xlink:href="#DejaVuSans-32" x="127.246094"/>
       <use xlink:href="#DejaVuSans-30" x="190.869141"/>
       <use xlink:href="#DejaVuSans-2d" x="254.492188"/>
       <use xlink:href="#DejaVuSans-31" x="290.576172"/>
       <use xlink:href="#DejaVuSans-30" x="354.199219"/>
       <use xlink:href="#DejaVuSans-2d" x="417.822266"/>
       <use xlink:href="#DejaVuSans-32" x="453.90625"/>
       <use xlink:href="#DejaVuSans-31" x="517.529297"/>
      </g>
     </g>
    </g>
    <g id="xtick_11">
     <g id="line2d_19">
      <g>
       <use xlink:href="#m52cb691a48" x="217.842975" y="256.32" style="stroke: #000000; stroke-width: 0.8"/>
      </g>
     </g>
     <g id="text_17">
      <!-- 2021-01-31 -->
      <g transform="translate(188.785163 270.918437)scale(0.1 -0.1)">
       <use xlink:href="#DejaVuSans-32"/>
       <use xlink:href="#DejaVuSans-30" x="63.623047"/>
       <use xlink:href="#DejaVuSans-32" x="127.246094"/>
       <use xlink:href="#DejaVuSans-31" x="190.869141"/>
       <use xlink:href="#DejaVuSans-2d" x="254.492188"/>
       <use xlink:href="#DejaVuSans-30" x="290.576172"/>
       <use xlink:href="#DejaVuSans-31" x="354.199219"/>
       <use xlink:href="#DejaVuSans-2d" x="417.822266"/>
       <use xlink:href="#DejaVuSans-33" x="453.90625"/>
       <use xlink:href="#DejaVuSans-31" x="517.529297"/>
      </g>
     </g>
    </g>
    <g id="xtick_12">
     <g id="line2d_20">
      <g>
       <use xlink:href="#m52cb691a48" x="320.322314" y="256.32" style="stroke: #000000; stroke-width: 0.8"/>
      </g>
     </g>
     <g id="text_18">
      <!-- 2021-05-11 -->
      <g transform="translate(291.264502 270.918437)scale(0.1 -0.1)">
       <use xlink:href="#DejaVuSans-32"/>
       <use xlink:href="#DejaVuSans-30" x="63.623047"/>
       <use xlink:href="#DejaVuSans-32" x="127.246094"/>
       <use xlink:href="#DejaVuSans-31" x="190.869141"/>
       <use xlink:href="#DejaVuSans-2d" x="254.492188"/>
       <use xlink:href="#DejaVuSans-30" x="290.576172"/>
       <use xlink:href="#DejaVuSans-35" x="354.199219"/>
       <use xlink:href="#DejaVuSans-2d" x="417.822266"/>
       <use xlink:href="#DejaVuSans-31" x="453.90625"/>
       <use xlink:href="#DejaVuSans-31" x="517.529297"/>
      </g>
     </g>
    </g>
    <g id="xtick_13">
     <g id="line2d_21">
      <g>
       <use xlink:href="#m52cb691a48" x="422.801653" y="256.32" style="stroke: #000000; stroke-width: 0.8"/>
      </g>
     </g>
     <g id="text_19">
      <!-- 2021-08-19 -->
      <g transform="translate(393.74384 270.918437)scale(0.1 -0.1)">
       <defs>
        <path id="DejaVuSans-38" d="M 2034 2216 
Q 1584 2216 1326 1975 
Q 1069 1734 1069 1313 
Q 1069 891 1326 650 
Q 1584 409 2034 409 
Q 2484 409 2743 651 
Q 3003 894 3003 1313 
Q 3003 1734 2745 1975 
Q 2488 2216 2034 2216 
z
M 1403 2484 
Q 997 2584 770 2862 
Q 544 3141 544 3541 
Q 544 4100 942 4425 
Q 1341 4750 2034 4750 
Q 2731 4750 3128 4425 
Q 3525 4100 3525 3541 
Q 3525 3141 3298 2862 
Q 3072 2584 2669 2484 
Q 3125 2378 3379 2068 
Q 3634 1759 3634 1313 
Q 3634 634 3220 271 
Q 2806 -91 2034 -91 
Q 1263 -91 848 271 
Q 434 634 434 1313 
Q 434 1759 690 2068 
Q 947 2378 1403 2484 
z
M 1172 3481 
Q 1172 3119 1398 2916 
Q 1625 2713 2034 2713 
Q 2441 2713 2670 2916 
Q 2900 3119 2900 3481 
Q 2900 3844 2670 4047 
Q 2441 4250 2034 4250 
Q 1625 4250 1398 4047 
Q 1172 3844 1172 3481 
z
" transform="scale(0.015625)"/>
       </defs>
       <use xlink:href="#DejaVuSans-32"/>
       <use xlink:href="#DejaVuSans-30" x="63.623047"/>
       <use xlink:href="#DejaVuSans-32" x="127.246094"/>
       <use xlink:href="#DejaVuSans-31" x="190.869141"/>
       <use xlink:href="#DejaVuSans-2d" x="254.492188"/>
       <use xlink:href="#DejaVuSans-30" x="290.576172"/>
       <use xlink:href="#DejaVuSans-38" x="354.199219"/>
       <use xlink:href="#DejaVuSans-2d" x="417.822266"/>
       <use xlink:href="#DejaVuSans-31" x="453.90625"/>
       <use xlink:href="#DejaVuSans-39" x="517.529297"/>
      </g>
     </g>
    </g>
    <g id="xtick_14">
     <g id="line2d_22">
      <g>
       <use xlink:href="#m52cb691a48" x="525.280992" y="256.32" style="stroke: #000000; stroke-width: 0.8"/>
      </g>
     </g>
     <g id="text_20">
      <!-- 2021-11-27 -->
      <g transform="translate(496.223179 270.918437)scale(0.1 -0.1)">
       <use xlink:href="#DejaVuSans-32"/>
       <use xlink:href="#DejaVuSans-30" x="63.623047"/>
       <use xlink:href="#DejaVuSans-32" x="127.246094"/>
       <use xlink:href="#DejaVuSans-31" x="190.869141"/>
       <use xlink:href="#DejaVuSans-2d" x="254.492188"/>
       <use xlink:href="#DejaVuSans-31" x="290.576172"/>
       <use xlink:href="#DejaVuSans-31" x="354.199219"/>
       <use xlink:href="#DejaVuSans-2d" x="417.822266"/>
       <use xlink:href="#DejaVuSans-32" x="453.90625"/>
       <use xlink:href="#DejaVuSans-37" x="517.529297"/>
      </g>
     </g>
    </g>
    <g id="xtick_15">
     <g id="line2d_23">
      <g>
       <use xlink:href="#m52cb691a48" x="627.760331" y="256.32" style="stroke: #000000; stroke-width: 0.8"/>
      </g>
     </g>
    </g>
    <g id="text_21">
     <!-- _date -->
     <g transform="translate(355.225 284.596563)scale(0.1 -0.1)">
      <use xlink:href="#DejaVuSans-5f"/>
      <use xlink:href="#DejaVuSans-64" x="50"/>
      <use xlink:href="#DejaVuSans-61" x="113.476562"/>
      <use xlink:href="#DejaVuSans-74" x="174.755859"/>
      <use xlink:href="#DejaVuSans-65" x="213.964844"/>
     </g>
    </g>
   </g>
   <g id="matplotlib.axis_4">
    <g id="ytick_5">
     <g id="line2d_24">
      <g>
       <use xlink:href="#m3b1ee48573" x="90" y="252.02101" style="stroke: #000000; stroke-width: 0.8"/>
      </g>
     </g>
     <g id="text_22">
      <!-- 0 -->
      <g transform="translate(76.6375 255.820229)scale(0.1 -0.1)">
       <use xlink:href="#DejaVuSans-30"/>
      </g>
     </g>
    </g>
    <g id="ytick_6">
     <g id="line2d_25">
      <g>
       <use xlink:href="#m3b1ee48573" x="90" y="223.738182" style="stroke: #000000; stroke-width: 0.8"/>
      </g>
     </g>
     <g id="text_23">
      <!-- 100 -->
      <g transform="translate(63.9125 227.537401)scale(0.1 -0.1)">
       <use xlink:href="#DejaVuSans-31"/>
       <use xlink:href="#DejaVuSans-30" x="63.623047"/>
       <use xlink:href="#DejaVuSans-30" x="127.246094"/>
      </g>
     </g>
    </g>
    <g id="ytick_7">
     <g id="line2d_26">
      <g>
       <use xlink:href="#m3b1ee48573" x="90" y="195.455354" style="stroke: #000000; stroke-width: 0.8"/>
      </g>
     </g>
     <g id="text_24">
      <!-- 200 -->
      <g transform="translate(63.9125 199.254572)scale(0.1 -0.1)">
       <use xlink:href="#DejaVuSans-32"/>
       <use xlink:href="#DejaVuSans-30" x="63.623047"/>
       <use xlink:href="#DejaVuSans-30" x="127.246094"/>
      </g>
     </g>
    </g>
    <g id="ytick_8">
     <g id="line2d_27">
      <g>
       <use xlink:href="#m3b1ee48573" x="90" y="167.172525" style="stroke: #000000; stroke-width: 0.8"/>
      </g>
     </g>
     <g id="text_25">
      <!-- 300 -->
      <g transform="translate(63.9125 170.971744)scale(0.1 -0.1)">
       <use xlink:href="#DejaVuSans-33"/>
       <use xlink:href="#DejaVuSans-30" x="63.623047"/>
       <use xlink:href="#DejaVuSans-30" x="127.246094"/>
      </g>
     </g>
    </g>
   </g>
   <g id="line2d_28">
    <path d="M 115.363636 251.738182 
L 116.38843 230.808889 
L 117.413223 228.263434 
L 118.438017 244.384646 
L 119.46281 251.455354 
L 120.487603 238.728081 
L 121.512397 238.445253 
L 122.53719 234.485657 
L 123.561983 238.445253 
L 124.586777 239.293737 
L 125.61157 250.606869 
L 126.636364 248.344242 
L 127.661157 247.495758 
L 128.68595 239.293737 
L 129.710744 211.576566 
L 130.735537 226.000808 
L 131.760331 243.81899 
L 132.785124 247.212929 
L 133.809917 251.172525 
L 134.834711 238.445253 
L 135.859504 224.303838 
L 136.884298 245.798788 
L 137.909091 243.253333 
L 138.933884 236.748283 
L 139.958678 236.748283 
L 140.983471 249.758384 
L 142.008264 237.031111 
L 143.033058 233.354343 
L 144.057851 243.536162 
L 145.082645 243.536162 
L 146.107438 238.728081 
L 147.132231 246.930101 
L 148.157025 249.192727 
L 149.181818 226.283636 
L 150.206612 248.909899 
L 151.231405 248.061414 
L 152.256198 249.758384 
L 153.280992 247.778586 
L 154.305785 251.455354 
L 155.330579 251.455354 
L 156.355372 227.980606 
L 157.380165 215.253333 
L 158.404959 243.81899 
L 159.429752 245.233131 
L 160.454545 226.566465 
L 161.479339 250.889697 
L 162.504132 244.950303 
L 163.528926 241.556364 
L 164.553719 246.081616 
L 165.578512 236.182626 
L 166.603306 246.930101 
L 167.628099 250.889697 
L 168.652893 251.738182 
L 169.677686 243.81899 
L 170.702479 242.12202 
L 171.727273 242.404848 
L 172.752066 240.990707 
L 173.77686 248.909899 
L 174.801653 250.889697 
L 175.826446 250.606869 
L 176.85124 247.212929 
L 177.876033 247.778586 
L 178.900826 242.687677 
L 179.92562 250.041212 
L 180.950413 251.172525 
L 181.975207 251.455354 
L 183 248.344242 
L 184.024793 249.475556 
L 185.049587 250.32404 
L 186.07438 251.738182 
L 187.099174 247.212929 
L 188.123967 247.495758 
L 189.14876 250.889697 
L 190.173554 246.364444 
L 191.198347 242.687677 
L 192.22314 240.142222 
L 193.247934 247.778586 
L 194.272727 248.909899 
L 195.297521 232.505859 
L 196.322314 250.32404 
L 197.347107 234.202828 
L 198.371901 235.899798 
L 199.396694 240.142222 
L 200.421488 233.637172 
L 201.446281 246.930101 
L 202.471074 235.051313 
L 203.495868 251.172525 
L 204.520661 233.92 
L 205.545455 235.334141 
L 206.570248 226.849293 
L 207.595041 232.788687 
L 208.619835 240.142222 
L 209.644628 242.970505 
L 210.669421 248.344242 
L 211.694215 229.111919 
L 212.719008 224.586667 
L 213.743802 236.465455 
L 214.768595 235.051313 
L 215.793388 232.505859 
L 216.818182 247.495758 
L 217.842975 248.627071 
L 218.867769 230.243232 
L 219.892562 246.930101 
L 221.942149 233.354343 
L 223.991736 250.889697 
L 225.016529 247.778586 
L 226.041322 235.61697 
L 227.066116 235.051313 
L 228.090909 225.435152 
L 229.115702 242.12202 
L 230.140496 250.32404 
L 231.165289 250.606869 
L 232.190083 249.192727 
L 233.214876 242.687677 
L 234.239669 242.970505 
L 235.264463 246.930101 
L 236.289256 231.091717 
L 237.31405 248.344242 
L 238.338843 242.12202 
L 239.363636 239.293737 
L 240.38843 240.990707 
L 241.413223 225.71798 
L 242.438017 235.899798 
L 243.46281 235.051313 
L 244.487603 240.142222 
L 245.512397 238.445253 
L 246.53719 239.576566 
L 247.561983 183.859394 
L 248.586777 245.798788 
L 249.61157 231.091717 
L 250.636364 234.768485 
L 251.661157 227.132121 
L 252.68595 241.839192 
L 253.710744 200.263434 
L 254.735537 198.566465 
L 255.760331 204.505859 
L 256.785124 229.394747 
L 257.809917 174.243232 
L 258.834711 223.738182 
L 259.859504 246.081616 
L 260.884298 245.233131 
L 261.909091 237.596768 
L 262.933884 231.374545 
L 263.958678 227.980606 
L 264.983471 234.768485 
L 266.008264 224.02101 
L 267.033058 243.81899 
L 268.057851 245.798788 
L 269.082645 205.637172 
L 270.107438 232.788687 
L 271.132231 234.485657 
L 272.157025 246.364444 
L 273.181818 248.627071 
L 274.206612 248.061414 
L 275.231405 233.071515 
L 276.256198 184.425051 
L 277.280992 229.960404 
L 278.305785 234.485657 
L 279.330579 214.404848 
L 280.355372 244.384646 
L 281.380165 248.344242 
L 282.404959 244.950303 
L 283.429752 222.041212 
L 284.454545 238.728081 
L 285.479339 223.455354 
L 286.504132 200.546263 
L 287.528926 233.92 
L 288.553719 241.273535 
L 289.578512 246.081616 
L 290.603306 176.505859 
L 291.628099 227.697778 
L 292.652893 243.536162 
L 293.677686 235.334141 
L 294.702479 236.748283 
L 295.727273 248.909899 
L 296.752066 246.930101 
L 297.77686 187.81899 
L 298.801653 181.031111 
L 299.826446 198.566465 
L 300.85124 242.970505 
L 301.876033 249.192727 
L 302.900826 236.748283 
L 303.92562 247.495758 
L 305.975207 224.586667 
L 307 162.647273 
L 308.024793 222.32404 
L 309.049587 221.475556 
L 310.07438 226.283636 
L 311.099174 245.51596 
L 312.123967 246.364444 
L 313.14876 220.344242 
L 314.173554 236.182626 
L 315.198347 235.899798 
L 316.22314 226.566465 
L 317.247934 243.253333 
L 318.272727 249.192727 
L 319.297521 198.283636 
L 320.322314 237.313939 
L 321.347107 212.990707 
L 322.371901 206.768485 
L 323.396694 213.556364 
L 324.421488 249.758384 
L 325.446281 249.758384 
L 326.471074 222.606869 
L 327.495868 233.071515 
L 328.520661 232.505859 
L 329.545455 239.010909 
L 330.570248 242.687677 
L 331.595041 248.344242 
L 332.619835 246.081616 
L 333.644628 226.000808 
L 334.669421 244.101818 
L 335.694215 240.425051 
L 336.719008 232.22303 
L 337.743802 238.728081 
L 338.768595 249.758384 
L 339.793388 249.758384 
L 340.818182 242.970505 
L 341.842975 240.142222 
L 342.867769 246.364444 
L 343.892562 241.273535 
L 344.917355 243.536162 
L 345.942149 249.192727 
L 346.966942 247.495758 
L 347.991736 231.091717 
L 349.016529 236.465455 
L 350.041322 168.303838 
L 351.066116 213.839192 
L 352.090909 244.101818 
L 353.115702 242.12202 
L 354.140496 250.041212 
L 355.165289 232.22303 
L 356.190083 234.202828 
L 357.214876 241.839192 
L 358.239669 240.990707 
L 359.264463 235.61697 
L 360.289256 249.758384 
L 361.31405 250.32404 
L 362.338843 193.192727 
L 363.363636 239.293737 
L 364.38843 244.950303 
L 365.413223 247.212929 
L 366.438017 201.677576 
L 367.46281 247.212929 
L 368.487603 248.061414 
L 370.53719 241.839192 
L 371.561983 242.12202 
L 372.586777 224.02101 
L 373.61157 244.384646 
L 374.636364 249.758384 
L 375.661157 243.536162 
L 376.68595 245.233131 
L 377.710744 180.182626 
L 378.735537 197.435152 
L 379.760331 240.425051 
L 380.785124 242.404848 
L 381.809917 244.667475 
L 382.834711 244.101818 
L 383.859504 231.657374 
L 384.884298 242.12202 
L 385.909091 243.253333 
L 386.933884 222.32404 
L 387.958678 239.293737 
L 388.983471 250.32404 
L 390.008264 251.738182 
L 391.033058 244.667475 
L 392.057851 245.233131 
L 393.082645 246.647273 
L 394.107438 243.536162 
L 395.132231 246.081616 
L 396.157025 249.475556 
L 397.181818 251.172525 
L 398.206612 243.536162 
L 399.231405 243.253333 
L 400.256198 230.808889 
L 401.280992 229.111919 
L 402.305785 250.606869 
L 403.330579 246.081616 
L 404.355372 251.738182 
L 405.380165 239.010909 
L 406.404959 240.142222 
L 407.429752 242.687677 
L 408.454545 239.859394 
L 409.479339 248.344242 
L 410.504132 245.51596 
L 411.528926 250.041212 
L 412.553719 236.748283 
L 413.578512 238.728081 
L 414.603306 243.81899 
L 415.628099 240.707879 
L 416.652893 231.374545 
L 417.677686 241.839192 
L 418.702479 248.344242 
L 419.727273 232.505859 
L 420.752066 250.32404 
L 421.77686 245.798788 
L 422.801653 244.101818 
L 423.826446 251.172525 
L 424.85124 250.889697 
L 425.876033 244.667475 
L 426.900826 245.233131 
L 427.92562 232.22303 
L 428.950413 230.526061 
L 429.975207 248.909899 
L 431 249.758384 
L 432.024793 250.32404 
L 433.049587 242.404848 
L 434.07438 242.12202 
L 435.099174 226.849293 
L 436.123967 235.61697 
L 437.14876 235.334141 
L 438.173554 244.950303 
L 439.198347 249.758384 
L 440.22314 245.51596 
L 441.247934 246.364444 
L 442.272727 249.758384 
L 443.297521 236.465455 
L 444.322314 247.495758 
L 445.347107 242.12202 
L 446.371901 224.586667 
L 447.396694 250.889697 
L 448.421488 248.061414 
L 449.446281 232.788687 
L 450.471074 214.970505 
L 451.495868 235.899798 
L 452.520661 248.061414 
L 453.545455 247.495758 
L 454.570248 250.32404 
L 455.595041 246.364444 
L 456.619835 231.091717 
L 457.644628 229.394747 
L 458.669421 219.778586 
L 459.694215 232.788687 
L 460.719008 248.344242 
L 461.743802 251.455354 
L 462.768595 248.344242 
L 463.793388 249.758384 
L 464.818182 239.293737 
L 465.842975 186.12202 
L 466.867769 228.263434 
L 467.892562 242.12202 
L 468.917355 240.425051 
L 469.942149 229.677576 
L 470.966942 229.677576 
L 471.991736 219.212929 
L 473.016529 195.455354 
L 474.041322 215.536162 
L 475.066116 246.081616 
L 476.090909 250.606869 
L 477.115702 223.172525 
L 478.140496 226.849293 
L 479.165289 210.445253 
L 480.190083 239.576566 
L 481.214876 235.334141 
L 482.239669 245.798788 
L 483.264463 248.061414 
L 484.289256 213.556364 
L 485.31405 237.879596 
L 486.338843 249.475556 
L 487.363636 222.041212 
L 488.38843 160.101818 
L 489.413223 239.859394 
L 490.438017 235.051313 
L 491.46281 226.566465 
L 492.487603 227.697778 
L 493.512397 242.404848 
L 494.53719 231.374545 
L 495.561983 238.162424 
L 496.586777 246.647273 
L 497.61157 245.51596 
L 498.636364 235.051313 
L 499.661157 248.909899 
L 500.68595 242.970505 
L 501.710744 228.263434 
L 503.760331 250.889697 
L 504.785124 250.041212 
L 505.809917 244.667475 
L 506.834711 230.526061 
L 507.859504 240.142222 
L 508.884298 246.930101 
L 509.909091 247.778586 
L 510.933884 247.778586 
L 511.958678 248.627071 
L 512.983471 238.728081 
L 514.008264 234.768485 
L 515.033058 243.536162 
L 517.082645 236.748283 
L 518.107438 250.041212 
L 519.132231 249.758384 
L 520.157025 233.637172 
L 521.181818 231.940202 
L 522.206612 245.233131 
L 524.256198 250.889697 
L 525.280992 248.344242 
L 526.305785 247.495758 
L 527.330579 244.101818 
L 528.355372 227.414949 
L 529.380165 237.596768 
L 530.404959 238.162424 
L 531.429752 225.435152 
L 532.454545 249.758384 
L 533.479339 226.849293 
L 534.504132 228.546263 
L 535.528926 236.465455 
L 536.553719 200.263434 
L 537.578512 239.293737 
L 538.603306 220.344242 
L 539.628099 247.212929 
L 540.652893 248.061414 
L 541.677686 228.829091 
L 542.702479 206.202828 
L 543.727273 242.12202 
L 544.752066 233.637172 
L 545.77686 236.465455 
L 546.801653 242.970505 
L 547.826446 232.22303 
L 548.85124 248.909899 
L 549.876033 242.404848 
L 550.900826 215.253333 
L 551.92562 235.051313 
L 552.950413 239.293737 
L 553.975207 242.12202 
L 555 242.404848 
L 556.024793 246.647273 
L 557.049587 248.909899 
L 558.07438 245.51596 
L 559.099174 248.627071 
L 560.123967 250.889697 
L 561.14876 249.475556 
L 562.173554 249.192727 
L 563.198347 246.647273 
L 564.22314 215.81899 
L 566.272727 241.556364 
L 567.297521 242.687677 
L 568.322314 249.758384 
L 569.347107 250.889697 
L 570.371901 251.738182 
L 571.396694 243.253333 
L 572.421488 235.899798 
L 573.446281 240.707879 
L 574.471074 217.798788 
L 575.495868 246.647273 
L 576.520661 245.798788 
L 577.545455 250.889697 
L 578.570248 247.495758 
L 579.595041 238.728081 
L 580.619835 244.384646 
L 581.644628 241.556364 
L 582.669421 245.51596 
L 583.694215 250.606869 
L 584.719008 250.041212 
L 585.743802 251.172525 
L 586.768595 217.798788 
L 587.793388 218.364444 
L 588.818182 235.051313 
L 589.842975 247.495758 
L 590.867769 215.536162 
L 591.892562 246.647273 
L 592.917355 235.051313 
L 593.942149 210.728081 
L 594.966942 237.313939 
L 595.991736 207.61697 
L 597.016529 195.738182 
L 598.041322 231.657374 
L 599.066116 250.606869 
L 600.090909 249.758384 
L 601.115702 193.758384 
L 602.140496 206.485657 
L 603.165289 222.32404 
L 604.190083 224.02101 
L 605.214876 223.172525 
L 606.239669 175.091717 
L 607.264463 243.536162 
L 608.289256 245.233131 
L 609.31405 215.536162 
L 610.338843 224.586667 
L 611.363636 242.12202 
L 612.38843 240.142222 
L 613.413223 224.869495 
L 614.438017 247.495758 
L 615.46281 249.758384 
L 616.487603 224.303838 
L 617.512397 235.051313 
L 618.53719 221.758384 
L 619.561983 231.091717 
L 620.586777 214.404848 
L 621.61157 239.010909 
L 622.636364 248.627071 
L 622.636364 248.627071 
" clip-path="url(#p83439a2502)" style="fill: none; stroke: #1f77b4; stroke-width: 1.5; stroke-linecap: square"/>
   </g>
   <g id="line2d_29">
    <path d="M 115.363636 251.738182 
L 116.38843 249.475556 
L 117.413223 248.344242 
L 118.438017 249.475556 
L 119.46281 251.738182 
L 120.487603 250.041212 
L 121.512397 249.192727 
L 122.53719 249.192727 
L 123.561983 248.909899 
L 124.586777 249.475556 
L 125.61157 251.455354 
L 129.710744 249.192727 
L 130.735537 248.909899 
L 131.760331 250.041212 
L 133.809917 251.738182 
L 134.834711 248.909899 
L 135.859504 249.475556 
L 136.884298 250.606869 
L 137.909091 250.889697 
L 138.933884 250.606869 
L 139.958678 251.455354 
L 140.983471 251.172525 
L 142.008264 250.041212 
L 143.033058 251.172525 
L 144.057851 248.909899 
L 145.082645 249.758384 
L 146.107438 250.32404 
L 147.132231 251.172525 
L 148.157025 251.172525 
L 149.181818 247.495758 
L 150.206612 251.455354 
L 151.231405 251.455354 
L 152.256198 251.172525 
L 154.305785 251.738182 
L 155.330579 251.455354 
L 156.355372 249.475556 
L 157.380165 246.930101 
L 158.404959 248.627071 
L 159.429752 250.041212 
L 160.454545 250.041212 
L 161.479339 251.455354 
L 162.504132 250.32404 
L 163.528926 250.041212 
L 164.553719 250.889697 
L 165.578512 247.778586 
L 166.603306 249.475556 
L 167.628099 251.455354 
L 168.652893 251.738182 
L 169.677686 249.192727 
L 171.727273 249.192727 
L 172.752066 250.041212 
L 173.77686 250.32404 
L 174.801653 251.172525 
L 175.826446 251.455354 
L 176.85124 250.889697 
L 177.876033 250.606869 
L 178.900826 251.172525 
L 180.950413 251.172525 
L 181.975207 251.455354 
L 183 250.889697 
L 185.049587 250.889697 
L 186.07438 251.738182 
L 187.099174 251.172525 
L 188.123967 251.172525 
L 189.14876 250.889697 
L 190.173554 249.758384 
L 191.198347 248.061414 
L 192.22314 250.041212 
L 193.247934 251.172525 
L 194.272727 250.889697 
L 195.297521 250.889697 
L 196.322314 251.172525 
L 197.347107 249.475556 
L 198.371901 248.627071 
L 199.396694 249.758384 
L 200.421488 246.930101 
L 201.446281 249.758384 
L 202.471074 250.32404 
L 203.495868 251.172525 
L 204.520661 250.606869 
L 205.545455 250.606869 
L 206.570248 248.344242 
L 207.595041 249.475556 
L 208.619835 249.192727 
L 209.644628 249.192727 
L 210.669421 250.32404 
L 211.694215 246.081616 
L 212.719008 247.778586 
L 213.743802 249.192727 
L 214.768595 247.495758 
L 215.793388 246.364444 
L 216.818182 250.889697 
L 217.842975 250.606869 
L 218.867769 248.627071 
L 219.892562 250.041212 
L 220.917355 248.061414 
L 221.942149 249.475556 
L 222.966942 249.475556 
L 223.991736 250.889697 
L 225.016529 251.172525 
L 226.041322 248.909899 
L 227.066116 248.061414 
L 228.090909 248.344242 
L 229.115702 250.889697 
L 230.140496 251.455354 
L 232.190083 250.889697 
L 233.214876 250.889697 
L 234.239669 249.475556 
L 235.264463 250.32404 
L 236.289256 248.909899 
L 237.31405 250.889697 
L 238.338843 250.32404 
L 239.363636 250.889697 
L 240.38843 249.192727 
L 241.413223 248.909899 
L 242.438017 248.909899 
L 243.46281 248.061414 
L 244.487603 250.32404 
L 245.512397 250.889697 
L 246.53719 250.889697 
L 247.561983 242.404848 
L 248.586777 248.909899 
L 249.61157 248.909899 
L 250.636364 247.495758 
L 251.661157 249.192727 
L 252.68595 250.606869 
L 253.710744 250.606869 
L 254.735537 246.364444 
L 255.760331 246.647273 
L 256.785124 248.344242 
L 257.809917 246.647273 
L 258.834711 247.495758 
L 259.859504 250.041212 
L 260.884298 250.889697 
L 261.909091 247.495758 
L 262.933884 246.081616 
L 263.958678 247.212929 
L 264.983471 247.495758 
L 266.008264 249.475556 
L 267.033058 251.172525 
L 268.057851 250.041212 
L 269.082645 247.778586 
L 270.107438 247.778586 
L 271.132231 248.627071 
L 272.157025 250.606869 
L 274.206612 251.172525 
L 275.231405 250.041212 
L 276.256198 246.364444 
L 277.280992 247.212929 
L 278.305785 248.627071 
L 279.330579 246.930101 
L 280.355372 249.758384 
L 281.380165 251.172525 
L 283.429752 249.475556 
L 284.454545 248.344242 
L 285.479339 248.627071 
L 286.504132 247.495758 
L 287.528926 249.192727 
L 288.553719 249.475556 
L 289.578512 250.889697 
L 290.603306 245.51596 
L 291.628099 248.061414 
L 292.652893 248.909899 
L 293.677686 249.192727 
L 294.702479 249.192727 
L 295.727273 250.889697 
L 296.752066 250.32404 
L 297.77686 245.798788 
L 298.801653 244.384646 
L 299.826446 246.930101 
L 300.85124 248.909899 
L 301.876033 250.32404 
L 302.900826 249.192727 
L 303.92562 250.32404 
L 304.950413 246.364444 
L 305.975207 246.647273 
L 307 229.111919 
L 308.024793 248.061414 
L 309.049587 246.647273 
L 310.07438 250.606869 
L 311.099174 251.738182 
L 312.123967 249.758384 
L 313.14876 248.344242 
L 314.173554 248.344242 
L 315.198347 248.627071 
L 316.22314 247.778586 
L 318.272727 251.172525 
L 319.297521 249.192727 
L 320.322314 248.344242 
L 321.347107 246.930101 
L 322.371901 247.212929 
L 323.396694 245.798788 
L 324.421488 250.606869 
L 325.446281 251.738182 
L 326.471074 245.798788 
L 327.495868 247.212929 
L 328.520661 249.475556 
L 329.545455 247.495758 
L 330.570248 248.344242 
L 331.595041 251.455354 
L 332.619835 250.32404 
L 333.644628 248.344242 
L 334.669421 249.475556 
L 335.694215 248.061414 
L 336.719008 246.364444 
L 338.768595 250.889697 
L 339.793388 251.172525 
L 340.818182 249.192727 
L 341.842975 247.778586 
L 342.867769 250.041212 
L 343.892562 249.475556 
L 344.917355 249.475556 
L 346.966942 250.041212 
L 347.991736 246.930101 
L 349.016529 248.909899 
L 350.041322 248.909899 
L 351.066116 250.041212 
L 352.090909 249.192727 
L 353.115702 251.172525 
L 354.140496 250.32404 
L 355.165289 248.344242 
L 356.190083 249.192727 
L 357.214876 248.909899 
L 358.239669 248.344242 
L 359.264463 249.192727 
L 360.289256 251.172525 
L 361.31405 250.889697 
L 362.338843 247.495758 
L 363.363636 250.606869 
L 364.38843 249.758384 
L 365.413223 249.192727 
L 366.438017 245.798788 
L 367.46281 251.172525 
L 368.487603 250.606869 
L 369.512397 249.758384 
L 370.53719 250.32404 
L 371.561983 248.909899 
L 372.586777 248.061414 
L 373.61157 249.192727 
L 374.636364 250.889697 
L 375.661157 250.889697 
L 376.68595 249.475556 
L 377.710744 247.212929 
L 378.735537 247.212929 
L 379.760331 250.32404 
L 380.785124 248.627071 
L 381.809917 250.606869 
L 382.834711 249.475556 
L 383.859504 247.778586 
L 384.884298 248.627071 
L 385.909091 248.627071 
L 386.933884 247.778586 
L 387.958678 248.061414 
L 388.983471 251.172525 
L 390.008264 251.738182 
L 391.033058 250.041212 
L 392.057851 250.041212 
L 393.082645 250.32404 
L 394.107438 250.32404 
L 395.132231 250.606869 
L 397.181818 251.738182 
L 398.206612 250.32404 
L 399.231405 249.475556 
L 400.256198 249.758384 
L 401.280992 248.627071 
L 402.305785 251.172525 
L 403.330579 250.32404 
L 404.355372 251.738182 
L 405.380165 250.32404 
L 406.404959 250.32404 
L 407.429752 248.344242 
L 408.454545 247.778586 
L 409.479339 249.475556 
L 410.504132 250.606869 
L 411.528926 250.606869 
L 412.553719 248.627071 
L 413.578512 249.475556 
L 414.603306 249.758384 
L 415.628099 249.758384 
L 416.652893 248.909899 
L 417.677686 249.192727 
L 418.702479 250.606869 
L 419.727273 248.344242 
L 420.752066 251.455354 
L 421.77686 249.758384 
L 422.801653 249.758384 
L 423.826446 251.172525 
L 424.85124 250.889697 
L 425.876033 250.041212 
L 426.900826 250.041212 
L 427.92562 249.192727 
L 428.950413 249.475556 
L 429.975207 251.172525 
L 431 250.889697 
L 432.024793 251.455354 
L 433.049587 250.606869 
L 435.099174 250.041212 
L 436.123967 248.627071 
L 437.14876 249.192727 
L 438.173554 250.32404 
L 439.198347 250.889697 
L 440.22314 250.32404 
L 441.247934 251.455354 
L 442.272727 250.889697 
L 443.297521 249.192727 
L 444.322314 250.041212 
L 445.347107 251.172525 
L 446.371901 248.344242 
L 447.396694 251.455354 
L 448.421488 251.172525 
L 449.446281 248.061414 
L 451.495868 249.192727 
L 452.520661 250.32404 
L 453.545455 249.758384 
L 454.570248 251.172525 
L 455.595041 250.606869 
L 456.619835 247.778586 
L 457.644628 249.758384 
L 458.669421 249.192727 
L 459.694215 249.758384 
L 460.719008 249.758384 
L 461.743802 251.455354 
L 462.768595 251.455354 
L 463.793388 250.889697 
L 464.818182 248.344242 
L 466.867769 248.344242 
L 467.892562 249.758384 
L 468.917355 249.758384 
L 469.942149 248.909899 
L 470.966942 248.627071 
L 471.991736 247.212929 
L 473.016529 249.475556 
L 474.041322 247.495758 
L 475.066116 250.041212 
L 476.090909 251.172525 
L 477.115702 250.32404 
L 478.140496 249.758384 
L 479.165289 248.061414 
L 480.190083 248.344242 
L 481.214876 249.192727 
L 482.239669 249.758384 
L 483.264463 250.041212 
L 484.289256 247.495758 
L 485.31405 248.344242 
L 486.338843 250.606869 
L 487.363636 249.475556 
L 489.413223 248.909899 
L 490.438017 249.475556 
L 491.46281 247.495758 
L 492.487603 250.041212 
L 493.512397 250.32404 
L 494.53719 248.344242 
L 495.561983 248.909899 
L 496.586777 250.889697 
L 497.61157 250.32404 
L 498.636364 249.475556 
L 499.661157 250.889697 
L 500.68595 249.192727 
L 501.710744 248.627071 
L 502.735537 248.909899 
L 503.760331 251.172525 
L 504.785124 251.172525 
L 505.809917 249.192727 
L 506.834711 250.32404 
L 507.859504 247.778586 
L 509.909091 250.041212 
L 510.933884 250.606869 
L 511.958678 250.041212 
L 512.983471 248.909899 
L 514.008264 247.212929 
L 515.033058 248.344242 
L 516.057851 247.778586 
L 517.082645 248.909899 
L 518.107438 250.606869 
L 519.132231 250.889697 
L 520.157025 249.192727 
L 521.181818 250.606869 
L 522.206612 249.758384 
L 523.231405 250.041212 
L 524.256198 251.455354 
L 525.280992 250.889697 
L 526.305785 250.889697 
L 527.330579 251.455354 
L 528.355372 249.475556 
L 529.380165 250.32404 
L 530.404959 248.909899 
L 531.429752 250.606869 
L 532.454545 251.172525 
L 533.479339 248.909899 
L 534.504132 250.041212 
L 535.528926 249.475556 
L 536.553719 249.475556 
L 537.578512 246.647273 
L 538.603306 246.364444 
L 539.628099 250.32404 
L 540.652893 250.32404 
L 541.677686 248.627071 
L 542.702479 248.627071 
L 543.727273 250.32404 
L 545.77686 249.192727 
L 546.801653 250.32404 
L 547.826446 250.606869 
L 548.85124 250.606869 
L 549.876033 249.475556 
L 550.900826 248.061414 
L 551.92562 249.758384 
L 552.950413 250.606869 
L 553.975207 250.889697 
L 555 249.475556 
L 556.024793 251.738182 
L 557.049587 251.455354 
L 558.07438 250.889697 
L 559.099174 250.889697 
L 560.123967 251.172525 
L 561.14876 250.606869 
L 562.173554 251.172525 
L 563.198347 250.32404 
L 564.22314 244.384646 
L 565.247934 247.212929 
L 566.272727 249.192727 
L 569.347107 250.889697 
L 570.371901 251.738182 
L 571.396694 249.475556 
L 572.421488 249.475556 
L 573.446281 248.909899 
L 574.471074 245.798788 
L 575.495868 250.606869 
L 576.520661 251.738182 
L 577.545455 251.455354 
L 578.570248 250.606869 
L 579.595041 248.061414 
L 580.619835 250.889697 
L 581.644628 250.041212 
L 582.669421 248.344242 
L 583.694215 251.172525 
L 584.719008 251.172525 
L 585.743802 251.455354 
L 586.768595 250.041212 
L 587.793388 247.778586 
L 588.818182 248.627071 
L 589.842975 249.758384 
L 590.867769 249.192727 
L 591.892562 250.889697 
L 592.917355 250.606869 
L 593.942149 248.061414 
L 594.966942 249.192727 
L 595.991736 246.930101 
L 597.016529 246.364444 
L 598.041322 246.930101 
L 599.066116 251.172525 
L 600.090909 251.738182 
L 601.115702 247.778586 
L 602.140496 245.798788 
L 603.165289 247.778586 
L 604.190083 246.647273 
L 605.214876 246.364444 
L 606.239669 242.970505 
L 607.264463 249.475556 
L 608.289256 249.192727 
L 609.31405 247.212929 
L 610.338843 246.930101 
L 611.363636 248.061414 
L 612.38843 248.627071 
L 613.413223 247.778586 
L 614.438017 249.758384 
L 615.46281 250.889697 
L 616.487603 247.495758 
L 618.53719 248.061414 
L 619.561983 246.647273 
L 620.586777 247.212929 
L 621.61157 247.495758 
L 622.636364 250.889697 
L 622.636364 250.889697 
" clip-path="url(#p83439a2502)" style="fill: none; stroke: #ff7f0e; stroke-width: 1.5; stroke-linecap: square"/>
   </g>
   <g id="patch_9">
    <path d="M 90 256.32 
L 90 155.52 
" style="fill: none; stroke: #000000; stroke-width: 0.8; stroke-linejoin: miter; stroke-linecap: square"/>
   </g>
   <g id="patch_10">
    <path d="M 648 256.32 
L 648 155.52 
" style="fill: none; stroke: #000000; stroke-width: 0.8; stroke-linejoin: miter; stroke-linecap: square"/>
   </g>
   <g id="patch_11">
    <path d="M 90 256.32 
L 648 256.32 
" style="fill: none; stroke: #000000; stroke-width: 0.8; stroke-linejoin: miter; stroke-linecap: square"/>
   </g>
   <g id="patch_12">
    <path d="M 90 155.52 
L 648 155.52 
" style="fill: none; stroke: #000000; stroke-width: 0.8; stroke-linejoin: miter; stroke-linecap: square"/>
   </g>
   <g id="legend_2">
    <g id="patch_13">
     <path d="M 97 192.87625 
L 234.217188 192.87625 
Q 236.217188 192.87625 236.217188 190.87625 
L 236.217188 162.52 
Q 236.217188 160.52 234.217188 160.52 
L 97 160.52 
Q 95 160.52 95 162.52 
L 95 190.87625 
Q 95 192.87625 97 192.87625 
z
" style="fill: #ffffff; opacity: 0.8; stroke: #cccccc; stroke-linejoin: miter"/>
    </g>
    <g id="line2d_30">
     <path d="M 99 168.618437 
L 109 168.618437 
L 119 168.618437 
" style="fill: none; stroke: #1f77b4; stroke-width: 1.5; stroke-linecap: square"/>
    </g>
    <g id="text_26">
     <!-- Total GitHub Views -->
     <g transform="translate(127 172.118437)scale(0.1 -0.1)">
      <defs>
       <path id="DejaVuSans-56" d="M 1831 0 
L 50 4666 
L 709 4666 
L 2188 738 
L 3669 4666 
L 4325 4666 
L 2547 0 
L 1831 0 
z
" transform="scale(0.015625)"/>
       <path id="DejaVuSans-77" d="M 269 3500 
L 844 3500 
L 1563 769 
L 2278 3500 
L 2956 3500 
L 3675 769 
L 4391 3500 
L 4966 3500 
L 4050 0 
L 3372 0 
L 2619 2869 
L 1863 0 
L 1184 0 
L 269 3500 
z
" transform="scale(0.015625)"/>
      </defs>
      <use xlink:href="#DejaVuSans-54"/>
      <use xlink:href="#DejaVuSans-6f" x="44.083984"/>
      <use xlink:href="#DejaVuSans-74" x="105.265625"/>
      <use xlink:href="#DejaVuSans-61" x="144.474609"/>
      <use xlink:href="#DejaVuSans-6c" x="205.753906"/>
      <use xlink:href="#DejaVuSans-20" x="233.537109"/>
      <use xlink:href="#DejaVuSans-47" x="265.324219"/>
      <use xlink:href="#DejaVuSans-69" x="342.814453"/>
      <use xlink:href="#DejaVuSans-74" x="370.597656"/>
      <use xlink:href="#DejaVuSans-48" x="409.806641"/>
      <use xlink:href="#DejaVuSans-75" x="485.001953"/>
      <use xlink:href="#DejaVuSans-62" x="548.380859"/>
      <use xlink:href="#DejaVuSans-20" x="611.857422"/>
      <use xlink:href="#DejaVuSans-56" x="643.644531"/>
      <use xlink:href="#DejaVuSans-69" x="709.802734"/>
      <use xlink:href="#DejaVuSans-65" x="737.585938"/>
      <use xlink:href="#DejaVuSans-77" x="799.109375"/>
      <use xlink:href="#DejaVuSans-73" x="880.896484"/>
     </g>
    </g>
    <g id="line2d_31">
     <path d="M 99 183.296562 
L 109 183.296562 
L 119 183.296562 
" style="fill: none; stroke: #ff7f0e; stroke-width: 1.5; stroke-linecap: square"/>
    </g>
    <g id="text_27">
     <!-- Unique GitHub Views -->
     <g transform="translate(127 186.796562)scale(0.1 -0.1)">
      <use xlink:href="#DejaVuSans-55"/>
      <use xlink:href="#DejaVuSans-6e" x="73.193359"/>
      <use xlink:href="#DejaVuSans-69" x="136.572266"/>
      <use xlink:href="#DejaVuSans-71" x="164.355469"/>
      <use xlink:href="#DejaVuSans-75" x="227.832031"/>
      <use xlink:href="#DejaVuSans-65" x="291.210938"/>
      <use xlink:href="#DejaVuSans-20" x="352.734375"/>
      <use xlink:href="#DejaVuSans-47" x="384.521484"/>
      <use xlink:href="#DejaVuSans-69" x="462.011719"/>
      <use xlink:href="#DejaVuSans-74" x="489.794922"/>
      <use xlink:href="#DejaVuSans-48" x="529.003906"/>
      <use xlink:href="#DejaVuSans-75" x="604.199219"/>
      <use xlink:href="#DejaVuSans-62" x="667.578125"/>
      <use xlink:href="#DejaVuSans-20" x="731.054688"/>
      <use xlink:href="#DejaVuSans-56" x="762.841797"/>
      <use xlink:href="#DejaVuSans-69" x="829"/>
      <use xlink:href="#DejaVuSans-65" x="856.783203"/>
      <use xlink:href="#DejaVuSans-77" x="918.306641"/>
      <use xlink:href="#DejaVuSans-73" x="1000.09375"/>
     </g>
    </g>
   </g>
  </g>
 </g>
 <defs>
  <clipPath id="p43352c61f0">
   <rect x="90" y="34.56" width="558" height="100.8"/>
  </clipPath>
  <clipPath id="p83439a2502">
   <rect x="90" y="155.52" width="558" height="100.8"/>
  </clipPath>
 </defs>
</svg>
