<?xml version="1.0" encoding="utf-8" standalone="no"?>
<!DOCTYPE svg PUBLIC "-//W3C//DTD SVG 1.1//EN"
  "http://www.w3.org/Graphics/SVG/1.1/DTD/svg11.dtd">
<svg xmlns:xlink="http://www.w3.org/1999/xlink" width="720pt" height="288pt" viewBox="0 0 720 288" xmlns="http://www.w3.org/2000/svg" version="1.1">
 <metadata>
  <rdf:RDF xmlns:dc="http://purl.org/dc/elements/1.1/" xmlns:cc="http://creativecommons.org/ns#" xmlns:rdf="http://www.w3.org/1999/02/22-rdf-syntax-ns#">
   <cc:Work>
    <dc:type rdf:resource="http://purl.org/dc/dcmitype/StillImage"/>
    <dc:date>2022-06-06T00:50:25.865306</dc:date>
    <dc:format>image/svg+xml</dc:format>
    <dc:creator>
     <cc:Agent>
      <dc:title>Matplotlib v3.5.2, https://matplotlib.org/</dc:title>
     </cc:Agent>
    </dc:creator>
   </cc:Work>
  </rdf:RDF>
 </metadata>
 <defs>
  <style type="text/css">*{stroke-linejoin: round; stroke-linecap: butt}</style>
 </defs>
 <g id="figure_1">
  <g id="patch_1">
   <path d="M 0 288 
L 720 288 
L 720 0 
L 0 0 
z
" style="fill: #ffffff"/>
  </g>
  <g id="axes_1">
   <g id="patch_2">
    <path d="M 90 135.36 
L 648 135.36 
L 648 34.56 
L 90 34.56 
z
" style="fill: #ffffff"/>
   </g>
   <g id="matplotlib.axis_1">
    <g id="xtick_1">
     <g id="line2d_1">
      <defs>
       <path id="m257a888009" d="M 0 0 
L 0 3.5 
" style="stroke: #000000; stroke-width: 0.8"/>
      </defs>
      <g>
       <use xlink:href="#m257a888009" x="115.363636" y="135.36" style="stroke: #000000; stroke-width: 0.8"/>
      </g>
     </g>
     <g id="text_1">
      <!-- 2020-10-22 -->
      <g transform="translate(86.305824 149.958437)scale(0.1 -0.1)">
       <defs>
        <path id="DejaVuSans-32" d="M 1228 531 
L 3431 531 
L 3431 0 
L 469 0 
L 469 531 
Q 828 903 1448 1529 
Q 2069 2156 2228 2338 
Q 2531 2678 2651 2914 
Q 2772 3150 2772 3378 
Q 2772 3750 2511 3984 
Q 2250 4219 1831 4219 
Q 1534 4219 1204 4116 
Q 875 4013 500 3803 
L 500 4441 
Q 881 4594 1212 4672 
Q 1544 4750 1819 4750 
Q 2544 4750 2975 4387 
Q 3406 4025 3406 3419 
Q 3406 3131 3298 2873 
Q 3191 2616 2906 2266 
Q 2828 2175 2409 1742 
Q 1991 1309 1228 531 
z
" transform="scale(0.015625)"/>
        <path id="DejaVuSans-30" d="M 2034 4250 
Q 1547 4250 1301 3770 
Q 1056 3291 1056 2328 
Q 1056 1369 1301 889 
Q 1547 409 2034 409 
Q 2525 409 2770 889 
Q 3016 1369 3016 2328 
Q 3016 3291 2770 3770 
Q 2525 4250 2034 4250 
z
M 2034 4750 
Q 2819 4750 3233 4129 
Q 3647 3509 3647 2328 
Q 3647 1150 3233 529 
Q 2819 -91 2034 -91 
Q 1250 -91 836 529 
Q 422 1150 422 2328 
Q 422 3509 836 4129 
Q 1250 4750 2034 4750 
z
" transform="scale(0.015625)"/>
        <path id="DejaVuSans-2d" d="M 313 2009 
L 1997 2009 
L 1997 1497 
L 313 1497 
L 313 2009 
z
" transform="scale(0.015625)"/>
        <path id="DejaVuSans-31" d="M 794 531 
L 1825 531 
L 1825 4091 
L 703 3866 
L 703 4441 
L 1819 4666 
L 2450 4666 
L 2450 531 
L 3481 531 
L 3481 0 
L 794 0 
L 794 531 
z
" transform="scale(0.015625)"/>
       </defs>
       <use xlink:href="#DejaVuSans-32"/>
       <use xlink:href="#DejaVuSans-30" x="63.623047"/>
       <use xlink:href="#DejaVuSans-32" x="127.246094"/>
       <use xlink:href="#DejaVuSans-30" x="190.869141"/>
       <use xlink:href="#DejaVuSans-2d" x="254.492188"/>
       <use xlink:href="#DejaVuSans-31" x="290.576172"/>
       <use xlink:href="#DejaVuSans-30" x="354.199219"/>
       <use xlink:href="#DejaVuSans-2d" x="417.822266"/>
       <use xlink:href="#DejaVuSans-32" x="453.90625"/>
       <use xlink:href="#DejaVuSans-32" x="517.529297"/>
      </g>
     </g>
    </g>
    <g id="xtick_2">
     <g id="line2d_2">
      <g>
       <use xlink:href="#m257a888009" x="225.640316" y="135.36" style="stroke: #000000; stroke-width: 0.8"/>
      </g>
     </g>
     <g id="text_2">
      <!-- 2021-03-17 -->
      <g transform="translate(196.582504 149.958437)scale(0.1 -0.1)">
       <defs>
        <path id="DejaVuSans-33" d="M 2597 2516 
Q 3050 2419 3304 2112 
Q 3559 1806 3559 1356 
Q 3559 666 3084 287 
Q 2609 -91 1734 -91 
Q 1441 -91 1130 -33 
Q 819 25 488 141 
L 488 750 
Q 750 597 1062 519 
Q 1375 441 1716 441 
Q 2309 441 2620 675 
Q 2931 909 2931 1356 
Q 2931 1769 2642 2001 
Q 2353 2234 1838 2234 
L 1294 2234 
L 1294 2753 
L 1863 2753 
Q 2328 2753 2575 2939 
Q 2822 3125 2822 3475 
Q 2822 3834 2567 4026 
Q 2313 4219 1838 4219 
Q 1578 4219 1281 4162 
Q 984 4106 628 3988 
L 628 4550 
Q 988 4650 1302 4700 
Q 1616 4750 1894 4750 
Q 2613 4750 3031 4423 
Q 3450 4097 3450 3541 
Q 3450 3153 3228 2886 
Q 3006 2619 2597 2516 
z
" transform="scale(0.015625)"/>
        <path id="DejaVuSans-37" d="M 525 4666 
L 3525 4666 
L 3525 4397 
L 1831 0 
L 1172 0 
L 2766 4134 
L 525 4134 
L 525 4666 
z
" transform="scale(0.015625)"/>
       </defs>
       <use xlink:href="#DejaVuSans-32"/>
       <use xlink:href="#DejaVuSans-30" x="63.623047"/>
       <use xlink:href="#DejaVuSans-32" x="127.246094"/>
       <use xlink:href="#DejaVuSans-31" x="190.869141"/>
       <use xlink:href="#DejaVuSans-2d" x="254.492188"/>
       <use xlink:href="#DejaVuSans-30" x="290.576172"/>
       <use xlink:href="#DejaVuSans-33" x="354.199219"/>
       <use xlink:href="#DejaVuSans-2d" x="417.822266"/>
       <use xlink:href="#DejaVuSans-31" x="453.90625"/>
       <use xlink:href="#DejaVuSans-37" x="517.529297"/>
      </g>
     </g>
    </g>
    <g id="xtick_3">
     <g id="line2d_3">
      <g>
       <use xlink:href="#m257a888009" x="335.916996" y="135.36" style="stroke: #000000; stroke-width: 0.8"/>
      </g>
     </g>
     <g id="text_3">
      <!-- 2021-07-07 -->
      <g transform="translate(306.859184 149.958437)scale(0.1 -0.1)">
       <use xlink:href="#DejaVuSans-32"/>
       <use xlink:href="#DejaVuSans-30" x="63.623047"/>
       <use xlink:href="#DejaVuSans-32" x="127.246094"/>
       <use xlink:href="#DejaVuSans-31" x="190.869141"/>
       <use xlink:href="#DejaVuSans-2d" x="254.492188"/>
       <use xlink:href="#DejaVuSans-30" x="290.576172"/>
       <use xlink:href="#DejaVuSans-37" x="354.199219"/>
       <use xlink:href="#DejaVuSans-2d" x="417.822266"/>
       <use xlink:href="#DejaVuSans-30" x="453.90625"/>
       <use xlink:href="#DejaVuSans-37" x="517.529297"/>
      </g>
     </g>
    </g>
    <g id="xtick_4">
     <g id="line2d_4">
      <g>
       <use xlink:href="#m257a888009" x="446.193676" y="135.36" style="stroke: #000000; stroke-width: 0.8"/>
      </g>
     </g>
     <g id="text_4">
      <!-- 2021-11-18 -->
      <g transform="translate(417.135863 149.958437)scale(0.1 -0.1)">
       <defs>
        <path id="DejaVuSans-38" d="M 2034 2216 
Q 1584 2216 1326 1975 
Q 1069 1734 1069 1313 
Q 1069 891 1326 650 
Q 1584 409 2034 409 
Q 2484 409 2743 651 
Q 3003 894 3003 1313 
Q 3003 1734 2745 1975 
Q 2488 2216 2034 2216 
z
M 1403 2484 
Q 997 2584 770 2862 
Q 544 3141 544 3541 
Q 544 4100 942 4425 
Q 1341 4750 2034 4750 
Q 2731 4750 3128 4425 
Q 3525 4100 3525 3541 
Q 3525 3141 3298 2862 
Q 3072 2584 2669 2484 
Q 3125 2378 3379 2068 
Q 3634 1759 3634 1313 
Q 3634 634 3220 271 
Q 2806 -91 2034 -91 
Q 1263 -91 848 271 
Q 434 634 434 1313 
Q 434 1759 690 2068 
Q 947 2378 1403 2484 
z
M 1172 3481 
Q 1172 3119 1398 2916 
Q 1625 2713 2034 2713 
Q 2441 2713 2670 2916 
Q 2900 3119 2900 3481 
Q 2900 3844 2670 4047 
Q 2441 4250 2034 4250 
Q 1625 4250 1398 4047 
Q 1172 3844 1172 3481 
z
" transform="scale(0.015625)"/>
       </defs>
       <use xlink:href="#DejaVuSans-32"/>
       <use xlink:href="#DejaVuSans-30" x="63.623047"/>
       <use xlink:href="#DejaVuSans-32" x="127.246094"/>
       <use xlink:href="#DejaVuSans-31" x="190.869141"/>
       <use xlink:href="#DejaVuSans-2d" x="254.492188"/>
       <use xlink:href="#DejaVuSans-31" x="290.576172"/>
       <use xlink:href="#DejaVuSans-31" x="354.199219"/>
       <use xlink:href="#DejaVuSans-2d" x="417.822266"/>
       <use xlink:href="#DejaVuSans-31" x="453.90625"/>
       <use xlink:href="#DejaVuSans-38" x="517.529297"/>
      </g>
     </g>
    </g>
    <g id="xtick_5">
     <g id="line2d_5">
      <g>
       <use xlink:href="#m257a888009" x="556.470356" y="135.36" style="stroke: #000000; stroke-width: 0.8"/>
      </g>
     </g>
     <g id="text_5">
      <!-- 2022-03-21 -->
      <g transform="translate(527.412543 149.958437)scale(0.1 -0.1)">
       <use xlink:href="#DejaVuSans-32"/>
       <use xlink:href="#DejaVuSans-30" x="63.623047"/>
       <use xlink:href="#DejaVuSans-32" x="127.246094"/>
       <use xlink:href="#DejaVuSans-32" x="190.869141"/>
       <use xlink:href="#DejaVuSans-2d" x="254.492188"/>
       <use xlink:href="#DejaVuSans-30" x="290.576172"/>
       <use xlink:href="#DejaVuSans-33" x="354.199219"/>
       <use xlink:href="#DejaVuSans-2d" x="417.822266"/>
       <use xlink:href="#DejaVuSans-32" x="453.90625"/>
       <use xlink:href="#DejaVuSans-31" x="517.529297"/>
      </g>
     </g>
    </g>
    <g id="text_6">
     <!-- _date -->
     <g transform="translate(355.225 163.636562)scale(0.1 -0.1)">
      <defs>
       <path id="DejaVuSans-5f" d="M 3263 -1063 
L 3263 -1509 
L -63 -1509 
L -63 -1063 
L 3263 -1063 
z
" transform="scale(0.015625)"/>
       <path id="DejaVuSans-64" d="M 2906 2969 
L 2906 4863 
L 3481 4863 
L 3481 0 
L 2906 0 
L 2906 525 
Q 2725 213 2448 61 
Q 2172 -91 1784 -91 
Q 1150 -91 751 415 
Q 353 922 353 1747 
Q 353 2572 751 3078 
Q 1150 3584 1784 3584 
Q 2172 3584 2448 3432 
Q 2725 3281 2906 2969 
z
M 947 1747 
Q 947 1113 1208 752 
Q 1469 391 1925 391 
Q 2381 391 2643 752 
Q 2906 1113 2906 1747 
Q 2906 2381 2643 2742 
Q 2381 3103 1925 3103 
Q 1469 3103 1208 2742 
Q 947 2381 947 1747 
z
" transform="scale(0.015625)"/>
       <path id="DejaVuSans-61" d="M 2194 1759 
Q 1497 1759 1228 1600 
Q 959 1441 959 1056 
Q 959 750 1161 570 
Q 1363 391 1709 391 
Q 2188 391 2477 730 
Q 2766 1069 2766 1631 
L 2766 1759 
L 2194 1759 
z
M 3341 1997 
L 3341 0 
L 2766 0 
L 2766 531 
Q 2569 213 2275 61 
Q 1981 -91 1556 -91 
Q 1019 -91 701 211 
Q 384 513 384 1019 
Q 384 1609 779 1909 
Q 1175 2209 1959 2209 
L 2766 2209 
L 2766 2266 
Q 2766 2663 2505 2880 
Q 2244 3097 1772 3097 
Q 1472 3097 1187 3025 
Q 903 2953 641 2809 
L 641 3341 
Q 956 3463 1253 3523 
Q 1550 3584 1831 3584 
Q 2591 3584 2966 3190 
Q 3341 2797 3341 1997 
z
" transform="scale(0.015625)"/>
       <path id="DejaVuSans-74" d="M 1172 4494 
L 1172 3500 
L 2356 3500 
L 2356 3053 
L 1172 3053 
L 1172 1153 
Q 1172 725 1289 603 
Q 1406 481 1766 481 
L 2356 481 
L 2356 0 
L 1766 0 
Q 1100 0 847 248 
Q 594 497 594 1153 
L 594 3053 
L 172 3053 
L 172 3500 
L 594 3500 
L 594 4494 
L 1172 4494 
z
" transform="scale(0.015625)"/>
       <path id="DejaVuSans-65" d="M 3597 1894 
L 3597 1613 
L 953 1613 
Q 991 1019 1311 708 
Q 1631 397 2203 397 
Q 2534 397 2845 478 
Q 3156 559 3463 722 
L 3463 178 
Q 3153 47 2828 -22 
Q 2503 -91 2169 -91 
Q 1331 -91 842 396 
Q 353 884 353 1716 
Q 353 2575 817 3079 
Q 1281 3584 2069 3584 
Q 2775 3584 3186 3129 
Q 3597 2675 3597 1894 
z
M 3022 2063 
Q 3016 2534 2758 2815 
Q 2500 3097 2075 3097 
Q 1594 3097 1305 2825 
Q 1016 2553 972 2059 
L 3022 2063 
z
" transform="scale(0.015625)"/>
      </defs>
      <use xlink:href="#DejaVuSans-5f"/>
      <use xlink:href="#DejaVuSans-64" x="50"/>
      <use xlink:href="#DejaVuSans-61" x="113.476562"/>
      <use xlink:href="#DejaVuSans-74" x="174.755859"/>
      <use xlink:href="#DejaVuSans-65" x="213.964844"/>
     </g>
    </g>
   </g>
   <g id="matplotlib.axis_2">
    <g id="ytick_1">
     <g id="line2d_6">
      <defs>
       <path id="m6464f478c4" d="M 0 0 
L -3.5 0 
" style="stroke: #000000; stroke-width: 0.8"/>
      </defs>
      <g>
       <use xlink:href="#m6464f478c4" x="90" y="131.401558" style="stroke: #000000; stroke-width: 0.8"/>
      </g>
     </g>
     <g id="text_7">
      <!-- 0 -->
      <g transform="translate(76.6375 135.200777)scale(0.1 -0.1)">
       <use xlink:href="#DejaVuSans-30"/>
      </g>
     </g>
    </g>
    <g id="ytick_2">
     <g id="line2d_7">
      <g>
       <use xlink:href="#m6464f478c4" x="90" y="100.232727" style="stroke: #000000; stroke-width: 0.8"/>
      </g>
     </g>
     <g id="text_8">
      <!-- 50 -->
      <g transform="translate(70.275 104.031946)scale(0.1 -0.1)">
       <defs>
        <path id="DejaVuSans-35" d="M 691 4666 
L 3169 4666 
L 3169 4134 
L 1269 4134 
L 1269 2991 
Q 1406 3038 1543 3061 
Q 1681 3084 1819 3084 
Q 2600 3084 3056 2656 
Q 3513 2228 3513 1497 
Q 3513 744 3044 326 
Q 2575 -91 1722 -91 
Q 1428 -91 1123 -41 
Q 819 9 494 109 
L 494 744 
Q 775 591 1075 516 
Q 1375 441 1709 441 
Q 2250 441 2565 725 
Q 2881 1009 2881 1497 
Q 2881 1984 2565 2268 
Q 2250 2553 1709 2553 
Q 1456 2553 1204 2497 
Q 953 2441 691 2322 
L 691 4666 
z
" transform="scale(0.015625)"/>
       </defs>
       <use xlink:href="#DejaVuSans-35"/>
       <use xlink:href="#DejaVuSans-30" x="63.623047"/>
      </g>
     </g>
    </g>
    <g id="ytick_3">
     <g id="line2d_8">
      <g>
       <use xlink:href="#m6464f478c4" x="90" y="69.063896" style="stroke: #000000; stroke-width: 0.8"/>
      </g>
     </g>
     <g id="text_9">
      <!-- 100 -->
      <g transform="translate(63.9125 72.863115)scale(0.1 -0.1)">
       <use xlink:href="#DejaVuSans-31"/>
       <use xlink:href="#DejaVuSans-30" x="63.623047"/>
       <use xlink:href="#DejaVuSans-30" x="127.246094"/>
      </g>
     </g>
    </g>
    <g id="ytick_4">
     <g id="line2d_9">
      <g>
       <use xlink:href="#m6464f478c4" x="90" y="37.895065" style="stroke: #000000; stroke-width: 0.8"/>
      </g>
     </g>
     <g id="text_10">
      <!-- 150 -->
      <g transform="translate(63.9125 41.694284)scale(0.1 -0.1)">
       <use xlink:href="#DejaVuSans-31"/>
       <use xlink:href="#DejaVuSans-35" x="63.623047"/>
       <use xlink:href="#DejaVuSans-30" x="127.246094"/>
      </g>
     </g>
    </g>
   </g>
   <g id="line2d_10">
    <path d="M 115.363636 127.661299 
L 116.466403 128.284675 
L 117.56917 130.778182 
L 118.671937 130.778182 
L 119.774704 129.531429 
L 120.87747 129.531429 
L 121.980237 120.804156 
L 123.083004 120.804156 
L 124.185771 130.778182 
L 125.288538 130.778182 
L 126.391304 124.544416 
L 127.494071 126.414545 
L 128.596838 130.778182 
L 129.699605 127.661299 
L 130.802372 128.908052 
L 131.905138 128.908052 
L 133.007905 130.778182 
L 135.213439 128.284675 
L 136.316206 130.154805 
L 137.418972 130.778182 
L 138.521739 130.154805 
L 139.624506 130.154805 
L 140.727273 129.531429 
L 141.83004 130.154805 
L 142.932806 130.154805 
L 144.035573 128.908052 
L 145.13834 130.154805 
L 146.241107 130.154805 
L 147.343874 122.674286 
L 148.44664 127.661299 
L 149.549407 130.154805 
L 150.652174 115.817143 
L 151.754941 130.778182 
L 160.577075 130.778182 
L 161.679842 130.154805 
L 162.782609 130.778182 
L 170.501976 130.778182 
L 171.604743 128.908052 
L 172.70751 129.531429 
L 173.810277 130.778182 
L 174.913043 129.531429 
L 176.01581 127.661299 
L 177.118577 130.154805 
L 178.221344 130.154805 
L 179.324111 128.908052 
L 180.426877 120.804156 
L 181.529644 130.154805 
L 182.632411 130.778182 
L 183.735178 130.154805 
L 184.837945 127.037922 
L 185.940711 130.154805 
L 187.043478 129.531429 
L 188.146245 125.167792 
L 189.249012 128.908052 
L 190.351779 127.037922 
L 191.454545 130.154805 
L 192.557312 129.531429 
L 193.660079 130.154805 
L 194.762846 129.531429 
L 196.968379 129.531429 
L 198.071146 128.284675 
L 199.173913 130.778182 
L 200.27668 130.778182 
L 201.379447 128.284675 
L 202.482213 128.284675 
L 203.58498 125.167792 
L 204.687747 129.531429 
L 205.790514 127.661299 
L 206.893281 130.778182 
L 207.996047 125.791169 
L 209.098814 128.908052 
L 210.201581 129.531429 
L 211.304348 128.908052 
L 212.407115 126.414545 
L 213.509881 130.154805 
L 214.612648 128.284675 
L 215.715415 121.427532 
L 216.818182 126.414545 
L 217.920949 120.804156 
L 219.023715 87.141818 
L 220.126482 127.661299 
L 221.229249 130.778182 
L 222.332016 128.908052 
L 223.434783 123.297662 
L 224.537549 124.544416 
L 225.640316 127.661299 
L 226.743083 119.557403 
L 227.84585 128.908052 
L 228.948617 128.908052 
L 230.051383 130.154805 
L 231.15415 122.674286 
L 232.256917 124.544416 
L 233.359684 130.778182 
L 234.462451 129.531429 
L 235.565217 130.778182 
L 236.667984 128.284675 
L 237.770751 100.232727 
L 238.873518 118.310649 
L 239.976285 121.427532 
L 241.079051 127.661299 
L 242.181818 130.778182 
L 243.284585 126.414545 
L 244.387352 128.908052 
L 245.490119 122.050909 
L 246.592885 128.908052 
L 247.695652 123.297662 
L 248.798419 115.817143 
L 249.901186 122.674286 
L 251.003953 127.661299 
L 252.106719 115.193766 
L 253.209486 115.193766 
L 254.312253 116.440519 
L 255.41502 92.128831 
L 256.517787 107.08987 
L 257.620553 107.08987 
L 258.72332 119.557403 
L 259.826087 110.206753 
L 260.928854 118.934026 
L 262.031621 129.531429 
L 263.134387 130.154805 
L 264.237154 116.440519 
L 265.339921 114.57039 
L 266.442688 115.817143 
L 267.545455 111.453506 
L 268.648221 105.843117 
L 269.750988 128.284675 
L 270.853755 130.154805 
L 271.956522 116.440519 
L 273.059289 117.687273 
L 274.162055 100.232727 
L 275.264822 115.817143 
L 276.367589 116.440519 
L 277.470356 130.154805 
L 278.573123 128.908052 
L 279.675889 114.57039 
L 280.778656 102.102857 
L 281.881423 117.063896 
L 282.98419 113.323636 
L 284.086957 95.245714 
L 285.189723 117.063896 
L 286.29249 130.154805 
L 287.395257 114.57039 
L 288.498024 105.843117 
L 289.600791 102.726234 
L 290.703557 108.96 
L 291.806324 111.453506 
L 292.909091 129.531429 
L 294.011858 115.193766 
L 295.114625 108.336623 
L 296.217391 115.817143 
L 297.320158 115.193766 
L 298.422925 113.947013 
L 299.525692 125.791169 
L 300.628458 115.817143 
L 301.731225 113.323636 
L 302.833992 115.817143 
L 303.936759 116.440519 
L 305.039526 116.440519 
L 306.142292 130.778182 
L 307.245059 130.778182 
L 308.347826 115.193766 
L 309.450593 112.076883 
L 310.55336 115.193766 
L 311.656126 102.726234 
L 312.758893 105.843117 
L 313.86166 130.778182 
L 314.964427 115.817143 
L 316.067194 113.947013 
L 317.16996 113.323636 
L 318.272727 112.076883 
L 319.375494 117.063896 
L 320.478261 130.154805 
L 321.581028 114.57039 
L 322.683794 110.83013 
L 323.786561 105.21974 
L 324.889328 104.596364 
L 325.992095 39.141818 
L 328.197628 130.778182 
L 329.300395 118.310649 
L 330.403162 117.063896 
L 331.505929 124.544416 
L 332.608696 130.778182 
L 333.711462 130.154805 
L 334.814229 123.297662 
L 335.916996 125.167792 
L 337.019763 130.154805 
L 338.12253 128.908052 
L 339.225296 130.154805 
L 340.328063 130.778182 
L 341.43083 130.154805 
L 342.533597 130.778182 
L 343.636364 128.908052 
L 344.73913 129.531429 
L 345.841897 130.778182 
L 349.150198 130.778182 
L 350.252964 128.284675 
L 351.355731 130.154805 
L 352.458498 130.778182 
L 353.561265 130.154805 
L 354.664032 127.037922 
L 355.766798 130.778182 
L 356.869565 117.063896 
L 357.972332 129.531429 
L 359.075099 130.778182 
L 361.280632 129.531429 
L 362.383399 130.778182 
L 363.486166 130.154805 
L 364.588933 130.778182 
L 365.6917 128.908052 
L 366.794466 130.154805 
L 367.897233 129.531429 
L 369 130.778182 
L 371.205534 130.778182 
L 373.411067 129.531429 
L 374.513834 127.037922 
L 375.616601 130.154805 
L 376.719368 130.154805 
L 377.822134 124.544416 
L 378.924901 122.050909 
L 380.027668 130.778182 
L 382.233202 130.778182 
L 384.438735 129.531429 
L 385.541502 130.154805 
L 386.644269 125.167792 
L 387.747036 113.323636 
L 388.849802 127.661299 
L 389.952569 110.206753 
L 391.055336 126.414545 
L 392.158103 130.154805 
L 393.26087 130.778182 
L 395.466403 130.778182 
L 396.56917 130.154805 
L 397.671937 130.778182 
L 398.774704 130.778182 
L 399.87747 128.284675 
L 400.980237 98.362597 
L 402.083004 117.063896 
L 403.185771 129.531429 
L 404.288538 122.674286 
L 405.391304 98.985974 
L 406.494071 96.492468 
L 407.596838 90.882078 
L 408.699605 103.972987 
L 409.802372 120.804156 
L 410.905138 122.674286 
L 412.007905 130.778182 
L 413.110672 125.791169 
L 414.213439 130.778182 
L 415.316206 130.778182 
L 416.418972 122.050909 
L 417.521739 129.531429 
L 418.624506 97.739221 
L 419.727273 122.674286 
L 420.83004 95.869091 
L 421.932806 123.297662 
L 423.035573 128.284675 
L 424.13834 121.427532 
L 425.241107 93.998961 
L 426.343874 120.804156 
L 427.44664 122.674286 
L 428.549407 129.531429 
L 429.652174 130.778182 
L 430.754941 130.778182 
L 431.857708 129.531429 
L 432.960474 126.414545 
L 434.063241 123.921039 
L 435.166008 122.674286 
L 436.268775 130.778182 
L 437.371542 130.778182 
L 438.474308 120.180779 
L 439.577075 115.817143 
L 440.679842 130.778182 
L 441.782609 129.531429 
L 442.885375 130.778182 
L 443.988142 125.167792 
L 445.090909 129.531429 
L 446.193676 130.778182 
L 447.296443 130.154805 
L 448.399209 128.908052 
L 449.501976 128.908052 
L 450.604743 106.466494 
L 451.70751 128.908052 
L 452.810277 128.908052 
L 453.913043 120.804156 
L 455.01581 105.21974 
L 456.118577 123.297662 
L 457.221344 123.297662 
L 458.324111 129.531429 
L 459.426877 120.180779 
L 460.529644 103.34961 
L 461.632411 63.453506 
L 462.735178 123.297662 
L 463.837945 113.323636 
L 464.940711 130.778182 
L 466.043478 104.596364 
L 467.146245 99.609351 
L 468.249012 127.037922 
L 469.351779 117.063896 
L 470.454545 130.778182 
L 471.557312 130.778182 
L 472.660079 100.856104 
L 473.762846 130.778182 
L 474.865613 98.985974 
L 475.968379 130.154805 
L 477.071146 120.804156 
L 478.173913 130.778182 
L 479.27668 130.778182 
L 480.379447 129.531429 
L 481.482213 130.154805 
L 482.58498 128.908052 
L 483.687747 130.778182 
L 484.790514 122.050909 
L 485.893281 117.063896 
L 486.996047 93.998961 
L 488.098814 124.544416 
L 489.201581 130.154805 
L 490.304348 115.193766 
L 491.407115 130.154805 
L 492.509881 125.791169 
L 493.612648 120.180779 
L 494.715415 122.674286 
L 495.818182 127.661299 
L 496.920949 130.154805 
L 498.023715 127.037922 
L 499.126482 115.817143 
L 500.229249 128.284675 
L 501.332016 122.674286 
L 502.434783 125.167792 
L 503.537549 130.778182 
L 504.640316 75.297662 
L 505.743083 117.687273 
L 506.84585 97.115844 
L 507.948617 122.050909 
L 509.051383 78.414545 
L 510.15415 130.778182 
L 511.256917 118.934026 
L 513.462451 99.609351 
L 514.565217 108.96 
L 515.667984 125.791169 
L 516.770751 130.778182 
L 518.976285 87.765195 
L 520.079051 90.882078 
L 521.181818 130.778182 
L 522.284585 122.674286 
L 523.387352 128.908052 
L 524.490119 94.622338 
L 525.592885 128.908052 
L 526.695652 130.778182 
L 528.901186 130.778182 
L 530.003953 128.284675 
L 531.106719 128.908052 
L 532.209486 124.544416 
L 533.312253 127.037922 
L 534.41502 123.921039 
L 535.517787 112.70026 
L 536.620553 130.154805 
L 537.72332 79.037922 
L 538.826087 123.297662 
L 539.928854 122.050909 
L 541.031621 95.869091 
L 542.134387 95.245714 
L 543.237154 117.687273 
L 545.442688 130.154805 
L 546.545455 127.661299 
L 547.648221 130.154805 
L 548.750988 124.544416 
L 549.853755 125.167792 
L 550.956522 75.297662 
L 552.059289 50.985974 
L 553.162055 110.206753 
L 554.264822 130.154805 
L 555.367589 120.804156 
L 556.470356 129.531429 
L 557.573123 128.908052 
L 558.675889 129.531429 
L 559.778656 130.778182 
L 560.881423 130.778182 
L 561.98419 130.154805 
L 563.086957 130.154805 
L 564.189723 130.778182 
L 565.29249 130.154805 
L 566.395257 130.778182 
L 567.498024 130.778182 
L 568.600791 129.531429 
L 569.703557 130.778182 
L 570.806324 129.531429 
L 571.909091 130.778182 
L 573.011858 130.778182 
L 574.114625 130.154805 
L 575.217391 130.778182 
L 576.320158 130.154805 
L 577.422925 130.778182 
L 578.525692 130.154805 
L 579.628458 128.908052 
L 580.731225 130.154805 
L 581.833992 130.778182 
L 582.936759 130.778182 
L 584.039526 129.531429 
L 585.142292 130.778182 
L 587.347826 128.284675 
L 588.450593 123.297662 
L 589.55336 128.284675 
L 590.656126 130.154805 
L 591.758893 130.778182 
L 592.86166 129.531429 
L 593.964427 125.791169 
L 595.067194 120.180779 
L 596.16996 130.778182 
L 597.272727 130.154805 
L 598.375494 130.778182 
L 600.581028 130.778182 
L 601.683794 123.297662 
L 602.786561 130.778182 
L 603.889328 123.297662 
L 604.992095 124.544416 
L 606.094862 130.778182 
L 607.197628 130.154805 
L 608.300395 113.323636 
L 609.403162 130.154805 
L 610.505929 105.21974 
L 611.608696 104.596364 
L 612.711462 123.921039 
L 613.814229 69.687273 
L 614.916996 105.21974 
L 616.019763 128.284675 
L 617.12253 130.154805 
L 618.225296 129.531429 
L 619.328063 130.154805 
L 620.43083 102.726234 
L 621.533597 128.908052 
L 622.636364 130.778182 
L 622.636364 130.778182 
" clip-path="url(#pf2151477b8)" style="fill: none; stroke: #1f77b4; stroke-width: 1.5; stroke-linecap: square"/>
   </g>
   <g id="line2d_11">
    <path d="M 115.363636 127.661299 
L 116.466403 128.284675 
L 117.56917 130.778182 
L 118.671937 130.778182 
L 119.774704 129.531429 
L 120.87747 129.531429 
L 121.980237 130.154805 
L 123.083004 128.284675 
L 124.185771 130.778182 
L 125.288538 130.778182 
L 126.391304 124.544416 
L 127.494071 129.531429 
L 128.596838 130.778182 
L 129.699605 128.908052 
L 130.802372 128.908052 
L 131.905138 129.531429 
L 133.007905 130.778182 
L 134.110672 129.531429 
L 135.213439 128.908052 
L 136.316206 130.154805 
L 137.418972 130.778182 
L 138.521739 130.154805 
L 139.624506 130.778182 
L 140.727273 129.531429 
L 142.932806 130.778182 
L 144.035573 130.154805 
L 145.13834 130.778182 
L 146.241107 130.154805 
L 147.343874 125.791169 
L 148.44664 127.661299 
L 149.549407 130.154805 
L 150.652174 125.167792 
L 151.754941 130.778182 
L 160.577075 130.778182 
L 161.679842 130.154805 
L 162.782609 130.778182 
L 170.501976 130.778182 
L 171.604743 129.531429 
L 172.70751 130.778182 
L 173.810277 130.778182 
L 176.01581 129.531429 
L 177.118577 130.778182 
L 179.324111 130.778182 
L 180.426877 124.544416 
L 181.529644 130.778182 
L 182.632411 130.778182 
L 183.735178 130.154805 
L 184.837945 128.908052 
L 185.940711 130.154805 
L 187.043478 129.531429 
L 188.146245 127.037922 
L 189.249012 129.531429 
L 190.351779 130.778182 
L 191.454545 130.154805 
L 192.557312 130.778182 
L 193.660079 130.154805 
L 194.762846 130.778182 
L 195.865613 129.531429 
L 198.071146 129.531429 
L 199.173913 130.778182 
L 200.27668 130.778182 
L 203.58498 127.037922 
L 204.687747 129.531429 
L 205.790514 128.284675 
L 206.893281 130.778182 
L 207.996047 127.037922 
L 209.098814 128.908052 
L 210.201581 129.531429 
L 211.304348 128.908052 
L 212.407115 126.414545 
L 213.509881 130.154805 
L 214.612648 128.284675 
L 215.715415 124.544416 
L 216.818182 127.037922 
L 217.920949 123.297662 
L 219.023715 108.96 
L 220.126482 127.661299 
L 221.229249 130.778182 
L 222.332016 129.531429 
L 223.434783 123.921039 
L 225.640316 127.661299 
L 226.743083 122.050909 
L 227.84585 128.908052 
L 228.948617 128.908052 
L 230.051383 130.154805 
L 231.15415 124.544416 
L 232.256917 124.544416 
L 233.359684 130.778182 
L 234.462451 129.531429 
L 235.565217 130.778182 
L 236.667984 128.908052 
L 237.770751 116.440519 
L 238.873518 122.674286 
L 239.976285 124.544416 
L 241.079051 128.284675 
L 242.181818 130.778182 
L 243.284585 127.661299 
L 244.387352 130.154805 
L 245.490119 123.921039 
L 246.592885 129.531429 
L 247.695652 123.921039 
L 248.798419 120.180779 
L 249.901186 123.297662 
L 251.003953 128.284675 
L 252.106719 120.804156 
L 253.209486 125.167792 
L 254.312253 130.154805 
L 255.41502 121.427532 
L 256.517787 128.908052 
L 257.620553 125.791169 
L 258.72332 121.427532 
L 259.826087 125.167792 
L 260.928854 130.778182 
L 262.031621 130.154805 
L 263.134387 130.154805 
L 264.237154 130.778182 
L 265.339921 128.908052 
L 266.442688 129.531429 
L 268.648221 120.804156 
L 269.750988 128.284675 
L 270.853755 130.154805 
L 271.956522 130.778182 
L 273.059289 128.908052 
L 274.162055 117.687273 
L 275.264822 130.778182 
L 276.367589 129.531429 
L 277.470356 130.154805 
L 279.675889 130.154805 
L 280.778656 118.934026 
L 281.881423 128.908052 
L 282.98419 127.037922 
L 284.086957 115.817143 
L 285.189723 120.180779 
L 286.29249 130.154805 
L 287.395257 130.778182 
L 288.498024 125.791169 
L 289.600791 129.531429 
L 290.703557 128.908052 
L 291.806324 130.154805 
L 292.909091 130.154805 
L 294.011858 130.778182 
L 295.114625 123.921039 
L 296.217391 130.778182 
L 297.320158 130.154805 
L 298.422925 128.908052 
L 299.525692 127.037922 
L 300.628458 130.778182 
L 301.731225 128.908052 
L 302.833992 130.778182 
L 303.936759 129.531429 
L 305.039526 129.531429 
L 306.142292 130.778182 
L 308.347826 130.778182 
L 309.450593 127.661299 
L 310.55336 130.778182 
L 311.656126 128.908052 
L 312.758893 125.791169 
L 313.86166 130.778182 
L 314.964427 130.778182 
L 316.067194 130.154805 
L 317.16996 128.908052 
L 320.478261 130.778182 
L 321.581028 130.154805 
L 322.683794 126.414545 
L 323.786561 126.414545 
L 324.889328 127.661299 
L 325.992095 130.778182 
L 327.094862 121.427532 
L 328.197628 130.778182 
L 329.300395 130.154805 
L 330.403162 126.414545 
L 331.505929 125.791169 
L 332.608696 130.778182 
L 333.711462 130.154805 
L 334.814229 123.297662 
L 335.916996 126.414545 
L 337.019763 130.154805 
L 338.12253 128.908052 
L 339.225296 130.778182 
L 340.328063 130.778182 
L 341.43083 130.154805 
L 342.533597 130.778182 
L 343.636364 128.908052 
L 344.73913 129.531429 
L 345.841897 130.778182 
L 349.150198 130.778182 
L 350.252964 128.284675 
L 351.355731 130.154805 
L 352.458498 130.778182 
L 353.561265 130.154805 
L 354.664032 127.661299 
L 355.766798 130.778182 
L 356.869565 130.778182 
L 357.972332 129.531429 
L 359.075099 130.778182 
L 361.280632 129.531429 
L 362.383399 130.778182 
L 363.486166 130.154805 
L 364.588933 130.778182 
L 365.6917 128.908052 
L 366.794466 130.154805 
L 367.897233 129.531429 
L 369 130.778182 
L 371.205534 130.778182 
L 373.411067 129.531429 
L 374.513834 127.037922 
L 375.616601 130.154805 
L 376.719368 130.778182 
L 377.822134 124.544416 
L 378.924901 123.921039 
L 380.027668 130.778182 
L 382.233202 130.778182 
L 384.438735 129.531429 
L 385.541502 130.778182 
L 386.644269 125.791169 
L 387.747036 122.050909 
L 388.849802 130.154805 
L 389.952569 121.427532 
L 391.055336 127.661299 
L 392.158103 130.778182 
L 395.466403 130.778182 
L 396.56917 130.154805 
L 397.671937 130.778182 
L 398.774704 130.778182 
L 399.87747 128.284675 
L 400.980237 114.57039 
L 402.083004 119.557403 
L 403.185771 129.531429 
L 404.288538 123.921039 
L 405.391304 114.57039 
L 406.494071 112.076883 
L 407.596838 112.076883 
L 408.699605 119.557403 
L 409.802372 121.427532 
L 410.905138 124.544416 
L 412.007905 130.778182 
L 413.110672 126.414545 
L 414.213439 130.778182 
L 415.316206 130.778182 
L 416.418972 123.297662 
L 417.521739 129.531429 
L 418.624506 122.674286 
L 419.727273 128.284675 
L 420.83004 126.414545 
L 421.932806 130.154805 
L 423.035573 130.778182 
L 424.13834 128.284675 
L 425.241107 121.427532 
L 426.343874 125.791169 
L 427.44664 126.414545 
L 428.549407 130.154805 
L 429.652174 130.778182 
L 430.754941 130.778182 
L 431.857708 129.531429 
L 432.960474 128.908052 
L 434.063241 127.037922 
L 435.166008 127.037922 
L 436.268775 130.778182 
L 437.371542 130.778182 
L 438.474308 125.167792 
L 439.577075 123.921039 
L 440.679842 130.778182 
L 441.782609 129.531429 
L 442.885375 130.778182 
L 443.988142 127.661299 
L 445.090909 129.531429 
L 446.193676 130.778182 
L 447.296443 130.154805 
L 448.399209 128.908052 
L 449.501976 128.908052 
L 450.604743 122.050909 
L 451.70751 128.908052 
L 452.810277 129.531429 
L 453.913043 126.414545 
L 455.01581 120.180779 
L 456.118577 126.414545 
L 457.221344 127.037922 
L 458.324111 130.154805 
L 459.426877 126.414545 
L 461.632411 112.70026 
L 462.735178 127.661299 
L 463.837945 123.921039 
L 464.940711 130.778182 
L 466.043478 120.804156 
L 467.146245 117.063896 
L 468.249012 128.284675 
L 469.351779 123.921039 
L 470.454545 130.778182 
L 471.557312 130.778182 
L 472.660079 120.180779 
L 473.762846 130.778182 
L 474.865613 116.440519 
L 475.968379 130.154805 
L 477.071146 125.791169 
L 478.173913 130.778182 
L 479.27668 130.778182 
L 480.379447 130.154805 
L 481.482213 130.778182 
L 482.58498 130.154805 
L 483.687747 130.778182 
L 484.790514 126.414545 
L 485.893281 124.544416 
L 486.996047 117.063896 
L 488.098814 127.661299 
L 489.201581 130.778182 
L 490.304348 122.674286 
L 491.407115 130.154805 
L 493.612648 126.414545 
L 494.715415 127.661299 
L 495.818182 128.284675 
L 496.920949 130.778182 
L 498.023715 127.661299 
L 499.126482 122.674286 
L 500.229249 129.531429 
L 501.332016 127.037922 
L 502.434783 127.661299 
L 503.537549 130.778182 
L 504.640316 110.206753 
L 505.743083 123.921039 
L 506.84585 118.310649 
L 507.948617 126.414545 
L 509.051383 112.076883 
L 510.15415 130.778182 
L 511.256917 130.154805 
L 512.359684 118.934026 
L 513.462451 117.063896 
L 514.565217 118.934026 
L 515.667984 128.284675 
L 516.770751 130.778182 
L 517.873518 121.427532 
L 518.976285 113.947013 
L 520.079051 113.323636 
L 521.181818 130.778182 
L 522.284585 127.037922 
L 523.387352 130.778182 
L 524.490119 117.063896 
L 525.592885 129.531429 
L 526.695652 130.778182 
L 528.901186 130.778182 
L 530.003953 128.908052 
L 531.106719 130.154805 
L 532.209486 127.661299 
L 533.312253 128.908052 
L 534.41502 127.661299 
L 535.517787 121.427532 
L 536.620553 130.154805 
L 537.72332 112.076883 
L 538.826087 126.414545 
L 539.928854 125.791169 
L 541.031621 117.687273 
L 542.134387 117.687273 
L 543.237154 125.167792 
L 544.339921 126.414545 
L 545.442688 130.778182 
L 546.545455 128.908052 
L 547.648221 130.778182 
L 548.750988 128.284675 
L 549.853755 128.908052 
L 550.956522 118.310649 
L 552.059289 104.596364 
L 553.162055 122.050909 
L 554.264822 130.154805 
L 555.367589 130.778182 
L 556.470356 129.531429 
L 557.573123 128.908052 
L 558.675889 129.531429 
L 559.778656 130.778182 
L 560.881423 130.778182 
L 561.98419 130.154805 
L 563.086957 130.778182 
L 564.189723 130.778182 
L 565.29249 130.154805 
L 566.395257 130.778182 
L 567.498024 130.778182 
L 568.600791 129.531429 
L 569.703557 130.778182 
L 570.806324 130.154805 
L 571.909091 130.778182 
L 573.011858 130.778182 
L 574.114625 130.154805 
L 575.217391 130.778182 
L 576.320158 130.154805 
L 577.422925 130.778182 
L 578.525692 130.154805 
L 580.731225 130.154805 
L 581.833992 130.778182 
L 582.936759 130.778182 
L 584.039526 129.531429 
L 585.142292 130.778182 
L 586.245059 130.154805 
L 587.347826 128.908052 
L 588.450593 127.037922 
L 589.55336 129.531429 
L 591.758893 130.778182 
L 595.067194 127.037922 
L 596.16996 130.778182 
L 597.272727 130.154805 
L 598.375494 130.778182 
L 600.581028 130.778182 
L 601.683794 128.284675 
L 602.786561 130.778182 
L 603.889328 126.414545 
L 604.992095 127.037922 
L 606.094862 130.778182 
L 607.197628 130.778182 
L 608.300395 123.921039 
L 609.403162 130.778182 
L 610.505929 119.557403 
L 611.608696 119.557403 
L 612.711462 126.414545 
L 613.814229 113.323636 
L 614.916996 120.804156 
L 616.019763 129.531429 
L 617.12253 130.154805 
L 621.533597 130.154805 
L 622.636364 130.778182 
L 622.636364 130.778182 
" clip-path="url(#pf2151477b8)" style="fill: none; stroke: #ff7f0e; stroke-width: 1.5; stroke-linecap: square"/>
   </g>
   <g id="patch_3">
    <path d="M 90 135.36 
L 90 34.56 
" style="fill: none; stroke: #000000; stroke-width: 0.8; stroke-linejoin: miter; stroke-linecap: square"/>
   </g>
   <g id="patch_4">
    <path d="M 648 135.36 
L 648 34.56 
" style="fill: none; stroke: #000000; stroke-width: 0.8; stroke-linejoin: miter; stroke-linecap: square"/>
   </g>
   <g id="patch_5">
    <path d="M 90 135.36 
L 648 135.36 
" style="fill: none; stroke: #000000; stroke-width: 0.8; stroke-linejoin: miter; stroke-linecap: square"/>
   </g>
   <g id="patch_6">
    <path d="M 90 34.56 
L 648 34.56 
" style="fill: none; stroke: #000000; stroke-width: 0.8; stroke-linejoin: miter; stroke-linecap: square"/>
   </g>
   <g id="legend_1">
    <g id="patch_7">
     <path d="M 97 71.91625 
L 238.8625 71.91625 
Q 240.8625 71.91625 240.8625 69.91625 
L 240.8625 41.56 
Q 240.8625 39.56 238.8625 39.56 
L 97 39.56 
Q 95 39.56 95 41.56 
L 95 69.91625 
Q 95 71.91625 97 71.91625 
z
" style="fill: #ffffff; opacity: 0.8; stroke: #cccccc; stroke-linejoin: miter"/>
    </g>
    <g id="line2d_12">
     <path d="M 99 47.658437 
L 109 47.658437 
L 119 47.658437 
" style="fill: none; stroke: #1f77b4; stroke-width: 1.5; stroke-linecap: square"/>
    </g>
    <g id="text_11">
     <!-- Total GitHub Clones -->
     <g transform="translate(127 51.158437)scale(0.1 -0.1)">
      <defs>
       <path id="DejaVuSans-54" d="M -19 4666 
L 3928 4666 
L 3928 4134 
L 2272 4134 
L 2272 0 
L 1638 0 
L 1638 4134 
L -19 4134 
L -19 4666 
z
" transform="scale(0.015625)"/>
       <path id="DejaVuSans-6f" d="M 1959 3097 
Q 1497 3097 1228 2736 
Q 959 2375 959 1747 
Q 959 1119 1226 758 
Q 1494 397 1959 397 
Q 2419 397 2687 759 
Q 2956 1122 2956 1747 
Q 2956 2369 2687 2733 
Q 2419 3097 1959 3097 
z
M 1959 3584 
Q 2709 3584 3137 3096 
Q 3566 2609 3566 1747 
Q 3566 888 3137 398 
Q 2709 -91 1959 -91 
Q 1206 -91 779 398 
Q 353 888 353 1747 
Q 353 2609 779 3096 
Q 1206 3584 1959 3584 
z
" transform="scale(0.015625)"/>
       <path id="DejaVuSans-6c" d="M 603 4863 
L 1178 4863 
L 1178 0 
L 603 0 
L 603 4863 
z
" transform="scale(0.015625)"/>
       <path id="DejaVuSans-20" transform="scale(0.015625)"/>
       <path id="DejaVuSans-47" d="M 3809 666 
L 3809 1919 
L 2778 1919 
L 2778 2438 
L 4434 2438 
L 4434 434 
Q 4069 175 3628 42 
Q 3188 -91 2688 -91 
Q 1594 -91 976 548 
Q 359 1188 359 2328 
Q 359 3472 976 4111 
Q 1594 4750 2688 4750 
Q 3144 4750 3555 4637 
Q 3966 4525 4313 4306 
L 4313 3634 
Q 3963 3931 3569 4081 
Q 3175 4231 2741 4231 
Q 1884 4231 1454 3753 
Q 1025 3275 1025 2328 
Q 1025 1384 1454 906 
Q 1884 428 2741 428 
Q 3075 428 3337 486 
Q 3600 544 3809 666 
z
" transform="scale(0.015625)"/>
       <path id="DejaVuSans-69" d="M 603 3500 
L 1178 3500 
L 1178 0 
L 603 0 
L 603 3500 
z
M 603 4863 
L 1178 4863 
L 1178 4134 
L 603 4134 
L 603 4863 
z
" transform="scale(0.015625)"/>
       <path id="DejaVuSans-48" d="M 628 4666 
L 1259 4666 
L 1259 2753 
L 3553 2753 
L 3553 4666 
L 4184 4666 
L 4184 0 
L 3553 0 
L 3553 2222 
L 1259 2222 
L 1259 0 
L 628 0 
L 628 4666 
z
" transform="scale(0.015625)"/>
       <path id="DejaVuSans-75" d="M 544 1381 
L 544 3500 
L 1119 3500 
L 1119 1403 
Q 1119 906 1312 657 
Q 1506 409 1894 409 
Q 2359 409 2629 706 
Q 2900 1003 2900 1516 
L 2900 3500 
L 3475 3500 
L 3475 0 
L 2900 0 
L 2900 538 
Q 2691 219 2414 64 
Q 2138 -91 1772 -91 
Q 1169 -91 856 284 
Q 544 659 544 1381 
z
M 1991 3584 
L 1991 3584 
z
" transform="scale(0.015625)"/>
       <path id="DejaVuSans-62" d="M 3116 1747 
Q 3116 2381 2855 2742 
Q 2594 3103 2138 3103 
Q 1681 3103 1420 2742 
Q 1159 2381 1159 1747 
Q 1159 1113 1420 752 
Q 1681 391 2138 391 
Q 2594 391 2855 752 
Q 3116 1113 3116 1747 
z
M 1159 2969 
Q 1341 3281 1617 3432 
Q 1894 3584 2278 3584 
Q 2916 3584 3314 3078 
Q 3713 2572 3713 1747 
Q 3713 922 3314 415 
Q 2916 -91 2278 -91 
Q 1894 -91 1617 61 
Q 1341 213 1159 525 
L 1159 0 
L 581 0 
L 581 4863 
L 1159 4863 
L 1159 2969 
z
" transform="scale(0.015625)"/>
       <path id="DejaVuSans-43" d="M 4122 4306 
L 4122 3641 
Q 3803 3938 3442 4084 
Q 3081 4231 2675 4231 
Q 1875 4231 1450 3742 
Q 1025 3253 1025 2328 
Q 1025 1406 1450 917 
Q 1875 428 2675 428 
Q 3081 428 3442 575 
Q 3803 722 4122 1019 
L 4122 359 
Q 3791 134 3420 21 
Q 3050 -91 2638 -91 
Q 1578 -91 968 557 
Q 359 1206 359 2328 
Q 359 3453 968 4101 
Q 1578 4750 2638 4750 
Q 3056 4750 3426 4639 
Q 3797 4528 4122 4306 
z
" transform="scale(0.015625)"/>
       <path id="DejaVuSans-6e" d="M 3513 2113 
L 3513 0 
L 2938 0 
L 2938 2094 
Q 2938 2591 2744 2837 
Q 2550 3084 2163 3084 
Q 1697 3084 1428 2787 
Q 1159 2491 1159 1978 
L 1159 0 
L 581 0 
L 581 3500 
L 1159 3500 
L 1159 2956 
Q 1366 3272 1645 3428 
Q 1925 3584 2291 3584 
Q 2894 3584 3203 3211 
Q 3513 2838 3513 2113 
z
" transform="scale(0.015625)"/>
       <path id="DejaVuSans-73" d="M 2834 3397 
L 2834 2853 
Q 2591 2978 2328 3040 
Q 2066 3103 1784 3103 
Q 1356 3103 1142 2972 
Q 928 2841 928 2578 
Q 928 2378 1081 2264 
Q 1234 2150 1697 2047 
L 1894 2003 
Q 2506 1872 2764 1633 
Q 3022 1394 3022 966 
Q 3022 478 2636 193 
Q 2250 -91 1575 -91 
Q 1294 -91 989 -36 
Q 684 19 347 128 
L 347 722 
Q 666 556 975 473 
Q 1284 391 1588 391 
Q 1994 391 2212 530 
Q 2431 669 2431 922 
Q 2431 1156 2273 1281 
Q 2116 1406 1581 1522 
L 1381 1569 
Q 847 1681 609 1914 
Q 372 2147 372 2553 
Q 372 3047 722 3315 
Q 1072 3584 1716 3584 
Q 2034 3584 2315 3537 
Q 2597 3491 2834 3397 
z
" transform="scale(0.015625)"/>
      </defs>
      <use xlink:href="#DejaVuSans-54"/>
      <use xlink:href="#DejaVuSans-6f" x="44.083984"/>
      <use xlink:href="#DejaVuSans-74" x="105.265625"/>
      <use xlink:href="#DejaVuSans-61" x="144.474609"/>
      <use xlink:href="#DejaVuSans-6c" x="205.753906"/>
      <use xlink:href="#DejaVuSans-20" x="233.537109"/>
      <use xlink:href="#DejaVuSans-47" x="265.324219"/>
      <use xlink:href="#DejaVuSans-69" x="342.814453"/>
      <use xlink:href="#DejaVuSans-74" x="370.597656"/>
      <use xlink:href="#DejaVuSans-48" x="409.806641"/>
      <use xlink:href="#DejaVuSans-75" x="485.001953"/>
      <use xlink:href="#DejaVuSans-62" x="548.380859"/>
      <use xlink:href="#DejaVuSans-20" x="611.857422"/>
      <use xlink:href="#DejaVuSans-43" x="643.644531"/>
      <use xlink:href="#DejaVuSans-6c" x="713.46875"/>
      <use xlink:href="#DejaVuSans-6f" x="741.251953"/>
      <use xlink:href="#DejaVuSans-6e" x="802.433594"/>
      <use xlink:href="#DejaVuSans-65" x="865.8125"/>
      <use xlink:href="#DejaVuSans-73" x="927.335938"/>
     </g>
    </g>
    <g id="line2d_13">
     <path d="M 99 62.336562 
L 109 62.336562 
L 119 62.336562 
" style="fill: none; stroke: #ff7f0e; stroke-width: 1.5; stroke-linecap: square"/>
    </g>
    <g id="text_12">
     <!-- Unique GitHub Clones -->
     <g transform="translate(127 65.836562)scale(0.1 -0.1)">
      <defs>
       <path id="DejaVuSans-55" d="M 556 4666 
L 1191 4666 
L 1191 1831 
Q 1191 1081 1462 751 
Q 1734 422 2344 422 
Q 2950 422 3222 751 
Q 3494 1081 3494 1831 
L 3494 4666 
L 4128 4666 
L 4128 1753 
Q 4128 841 3676 375 
Q 3225 -91 2344 -91 
Q 1459 -91 1007 375 
Q 556 841 556 1753 
L 556 4666 
z
" transform="scale(0.015625)"/>
       <path id="DejaVuSans-71" d="M 947 1747 
Q 947 1113 1208 752 
Q 1469 391 1925 391 
Q 2381 391 2643 752 
Q 2906 1113 2906 1747 
Q 2906 2381 2643 2742 
Q 2381 3103 1925 3103 
Q 1469 3103 1208 2742 
Q 947 2381 947 1747 
z
M 2906 525 
Q 2725 213 2448 61 
Q 2172 -91 1784 -91 
Q 1150 -91 751 415 
Q 353 922 353 1747 
Q 353 2572 751 3078 
Q 1150 3584 1784 3584 
Q 2172 3584 2448 3432 
Q 2725 3281 2906 2969 
L 2906 3500 
L 3481 3500 
L 3481 -1331 
L 2906 -1331 
L 2906 525 
z
" transform="scale(0.015625)"/>
      </defs>
      <use xlink:href="#DejaVuSans-55"/>
      <use xlink:href="#DejaVuSans-6e" x="73.193359"/>
      <use xlink:href="#DejaVuSans-69" x="136.572266"/>
      <use xlink:href="#DejaVuSans-71" x="164.355469"/>
      <use xlink:href="#DejaVuSans-75" x="227.832031"/>
      <use xlink:href="#DejaVuSans-65" x="291.210938"/>
      <use xlink:href="#DejaVuSans-20" x="352.734375"/>
      <use xlink:href="#DejaVuSans-47" x="384.521484"/>
      <use xlink:href="#DejaVuSans-69" x="462.011719"/>
      <use xlink:href="#DejaVuSans-74" x="489.794922"/>
      <use xlink:href="#DejaVuSans-48" x="529.003906"/>
      <use xlink:href="#DejaVuSans-75" x="604.199219"/>
      <use xlink:href="#DejaVuSans-62" x="667.578125"/>
      <use xlink:href="#DejaVuSans-20" x="731.054688"/>
      <use xlink:href="#DejaVuSans-43" x="762.841797"/>
      <use xlink:href="#DejaVuSans-6c" x="832.666016"/>
      <use xlink:href="#DejaVuSans-6f" x="860.449219"/>
      <use xlink:href="#DejaVuSans-6e" x="921.630859"/>
      <use xlink:href="#DejaVuSans-65" x="985.009766"/>
      <use xlink:href="#DejaVuSans-73" x="1046.533203"/>
     </g>
    </g>
   </g>
  </g>
  <g id="axes_2">
   <g id="patch_8">
    <path d="M 90 256.32 
L 648 256.32 
L 648 155.52 
L 90 155.52 
z
" style="fill: #ffffff"/>
   </g>
   <g id="matplotlib.axis_3">
    <g id="xtick_6">
     <g id="line2d_14">
      <g>
       <use xlink:href="#m257a888009" x="115.363636" y="256.32" style="stroke: #000000; stroke-width: 0.8"/>
      </g>
     </g>
     <g id="text_13">
      <!-- 2020-10-21 -->
      <g transform="translate(86.305824 270.918437)scale(0.1 -0.1)">
       <use xlink:href="#DejaVuSans-32"/>
       <use xlink:href="#DejaVuSans-30" x="63.623047"/>
       <use xlink:href="#DejaVuSans-32" x="127.246094"/>
       <use xlink:href="#DejaVuSans-30" x="190.869141"/>
       <use xlink:href="#DejaVuSans-2d" x="254.492188"/>
       <use xlink:href="#DejaVuSans-31" x="290.576172"/>
       <use xlink:href="#DejaVuSans-30" x="354.199219"/>
       <use xlink:href="#DejaVuSans-2d" x="417.822266"/>
       <use xlink:href="#DejaVuSans-32" x="453.90625"/>
       <use xlink:href="#DejaVuSans-31" x="517.529297"/>
      </g>
     </g>
    </g>
    <g id="xtick_7">
     <g id="line2d_15">
      <g>
       <use xlink:href="#m257a888009" x="201.781477" y="256.32" style="stroke: #000000; stroke-width: 0.8"/>
      </g>
     </g>
     <g id="text_14">
      <!-- 2021-01-31 -->
      <g transform="translate(172.723665 270.918437)scale(0.1 -0.1)">
       <use xlink:href="#DejaVuSans-32"/>
       <use xlink:href="#DejaVuSans-30" x="63.623047"/>
       <use xlink:href="#DejaVuSans-32" x="127.246094"/>
       <use xlink:href="#DejaVuSans-31" x="190.869141"/>
       <use xlink:href="#DejaVuSans-2d" x="254.492188"/>
       <use xlink:href="#DejaVuSans-30" x="290.576172"/>
       <use xlink:href="#DejaVuSans-31" x="354.199219"/>
       <use xlink:href="#DejaVuSans-2d" x="417.822266"/>
       <use xlink:href="#DejaVuSans-33" x="453.90625"/>
       <use xlink:href="#DejaVuSans-31" x="517.529297"/>
      </g>
     </g>
    </g>
    <g id="xtick_8">
     <g id="line2d_16">
      <g>
       <use xlink:href="#m257a888009" x="288.199319" y="256.32" style="stroke: #000000; stroke-width: 0.8"/>
      </g>
     </g>
     <g id="text_15">
      <!-- 2021-05-11 -->
      <g transform="translate(259.141506 270.918437)scale(0.1 -0.1)">
       <use xlink:href="#DejaVuSans-32"/>
       <use xlink:href="#DejaVuSans-30" x="63.623047"/>
       <use xlink:href="#DejaVuSans-32" x="127.246094"/>
       <use xlink:href="#DejaVuSans-31" x="190.869141"/>
       <use xlink:href="#DejaVuSans-2d" x="254.492188"/>
       <use xlink:href="#DejaVuSans-30" x="290.576172"/>
       <use xlink:href="#DejaVuSans-35" x="354.199219"/>
       <use xlink:href="#DejaVuSans-2d" x="417.822266"/>
       <use xlink:href="#DejaVuSans-31" x="453.90625"/>
       <use xlink:href="#DejaVuSans-31" x="517.529297"/>
      </g>
     </g>
    </g>
    <g id="xtick_9">
     <g id="line2d_17">
      <g>
       <use xlink:href="#m257a888009" x="374.61716" y="256.32" style="stroke: #000000; stroke-width: 0.8"/>
      </g>
     </g>
     <g id="text_16">
      <!-- 2021-08-19 -->
      <g transform="translate(345.559347 270.918437)scale(0.1 -0.1)">
       <defs>
        <path id="DejaVuSans-39" d="M 703 97 
L 703 672 
Q 941 559 1184 500 
Q 1428 441 1663 441 
Q 2288 441 2617 861 
Q 2947 1281 2994 2138 
Q 2813 1869 2534 1725 
Q 2256 1581 1919 1581 
Q 1219 1581 811 2004 
Q 403 2428 403 3163 
Q 403 3881 828 4315 
Q 1253 4750 1959 4750 
Q 2769 4750 3195 4129 
Q 3622 3509 3622 2328 
Q 3622 1225 3098 567 
Q 2575 -91 1691 -91 
Q 1453 -91 1209 -44 
Q 966 3 703 97 
z
M 1959 2075 
Q 2384 2075 2632 2365 
Q 2881 2656 2881 3163 
Q 2881 3666 2632 3958 
Q 2384 4250 1959 4250 
Q 1534 4250 1286 3958 
Q 1038 3666 1038 3163 
Q 1038 2656 1286 2365 
Q 1534 2075 1959 2075 
z
" transform="scale(0.015625)"/>
       </defs>
       <use xlink:href="#DejaVuSans-32"/>
       <use xlink:href="#DejaVuSans-30" x="63.623047"/>
       <use xlink:href="#DejaVuSans-32" x="127.246094"/>
       <use xlink:href="#DejaVuSans-31" x="190.869141"/>
       <use xlink:href="#DejaVuSans-2d" x="254.492188"/>
       <use xlink:href="#DejaVuSans-30" x="290.576172"/>
       <use xlink:href="#DejaVuSans-38" x="354.199219"/>
       <use xlink:href="#DejaVuSans-2d" x="417.822266"/>
       <use xlink:href="#DejaVuSans-31" x="453.90625"/>
       <use xlink:href="#DejaVuSans-39" x="517.529297"/>
      </g>
     </g>
    </g>
    <g id="xtick_10">
     <g id="line2d_18">
      <g>
       <use xlink:href="#m257a888009" x="461.035001" y="256.32" style="stroke: #000000; stroke-width: 0.8"/>
      </g>
     </g>
     <g id="text_17">
      <!-- 2021-11-28 -->
      <g transform="translate(431.977188 270.918437)scale(0.1 -0.1)">
       <use xlink:href="#DejaVuSans-32"/>
       <use xlink:href="#DejaVuSans-30" x="63.623047"/>
       <use xlink:href="#DejaVuSans-32" x="127.246094"/>
       <use xlink:href="#DejaVuSans-31" x="190.869141"/>
       <use xlink:href="#DejaVuSans-2d" x="254.492188"/>
       <use xlink:href="#DejaVuSans-31" x="290.576172"/>
       <use xlink:href="#DejaVuSans-31" x="354.199219"/>
       <use xlink:href="#DejaVuSans-2d" x="417.822266"/>
       <use xlink:href="#DejaVuSans-32" x="453.90625"/>
       <use xlink:href="#DejaVuSans-38" x="517.529297"/>
      </g>
     </g>
    </g>
    <g id="xtick_11">
     <g id="line2d_19">
      <g>
       <use xlink:href="#m257a888009" x="547.452842" y="256.32" style="stroke: #000000; stroke-width: 0.8"/>
      </g>
     </g>
     <g id="text_18">
      <!-- 2022-03-10 -->
      <g transform="translate(518.395029 270.918437)scale(0.1 -0.1)">
       <use xlink:href="#DejaVuSans-32"/>
       <use xlink:href="#DejaVuSans-30" x="63.623047"/>
       <use xlink:href="#DejaVuSans-32" x="127.246094"/>
       <use xlink:href="#DejaVuSans-32" x="190.869141"/>
       <use xlink:href="#DejaVuSans-2d" x="254.492188"/>
       <use xlink:href="#DejaVuSans-30" x="290.576172"/>
       <use xlink:href="#DejaVuSans-33" x="354.199219"/>
       <use xlink:href="#DejaVuSans-2d" x="417.822266"/>
       <use xlink:href="#DejaVuSans-31" x="453.90625"/>
       <use xlink:href="#DejaVuSans-30" x="517.529297"/>
      </g>
     </g>
    </g>
    <g id="xtick_12">
     <g id="line2d_20">
      <g>
       <use xlink:href="#m257a888009" x="633.870683" y="256.32" style="stroke: #000000; stroke-width: 0.8"/>
      </g>
     </g>
    </g>
    <g id="text_19">
     <!-- _date -->
     <g transform="translate(355.225 284.596563)scale(0.1 -0.1)">
      <use xlink:href="#DejaVuSans-5f"/>
      <use xlink:href="#DejaVuSans-64" x="50"/>
      <use xlink:href="#DejaVuSans-61" x="113.476562"/>
      <use xlink:href="#DejaVuSans-74" x="174.755859"/>
      <use xlink:href="#DejaVuSans-65" x="213.964844"/>
     </g>
    </g>
   </g>
   <g id="matplotlib.axis_4">
    <g id="ytick_5">
     <g id="line2d_21">
      <g>
       <use xlink:href="#m6464f478c4" x="90" y="252.006124" style="stroke: #000000; stroke-width: 0.8"/>
      </g>
     </g>
     <g id="text_20">
      <!-- 0 -->
      <g transform="translate(76.6375 255.805343)scale(0.1 -0.1)">
       <use xlink:href="#DejaVuSans-30"/>
      </g>
     </g>
    </g>
    <g id="ytick_6">
     <g id="line2d_22">
      <g>
       <use xlink:href="#m6464f478c4" x="90" y="225.211866" style="stroke: #000000; stroke-width: 0.8"/>
      </g>
     </g>
     <g id="text_21">
      <!-- 100 -->
      <g transform="translate(63.9125 229.011085)scale(0.1 -0.1)">
       <use xlink:href="#DejaVuSans-31"/>
       <use xlink:href="#DejaVuSans-30" x="63.623047"/>
       <use xlink:href="#DejaVuSans-30" x="127.246094"/>
      </g>
     </g>
    </g>
    <g id="ytick_7">
     <g id="line2d_23">
      <g>
       <use xlink:href="#m6464f478c4" x="90" y="198.417608" style="stroke: #000000; stroke-width: 0.8"/>
      </g>
     </g>
     <g id="text_22">
      <!-- 200 -->
      <g transform="translate(63.9125 202.216826)scale(0.1 -0.1)">
       <use xlink:href="#DejaVuSans-32"/>
       <use xlink:href="#DejaVuSans-30" x="63.623047"/>
       <use xlink:href="#DejaVuSans-30" x="127.246094"/>
      </g>
     </g>
    </g>
    <g id="ytick_8">
     <g id="line2d_24">
      <g>
       <use xlink:href="#m6464f478c4" x="90" y="171.623349" style="stroke: #000000; stroke-width: 0.8"/>
      </g>
     </g>
     <g id="text_23">
      <!-- 300 -->
      <g transform="translate(63.9125 175.422568)scale(0.1 -0.1)">
       <use xlink:href="#DejaVuSans-33"/>
       <use xlink:href="#DejaVuSans-30" x="63.623047"/>
       <use xlink:href="#DejaVuSans-30" x="127.246094"/>
      </g>
     </g>
    </g>
   </g>
   <g id="line2d_25">
    <path d="M 115.363636 251.738182 
L 116.227815 231.910431 
L 117.091993 229.498947 
L 117.956172 244.771675 
L 118.82035 251.470239 
L 119.684528 239.412823 
L 120.548707 239.14488 
L 121.412885 235.393684 
L 122.277064 239.14488 
L 123.141242 239.948708 
L 124.00542 250.666411 
L 124.869599 248.522871 
L 125.733777 247.719043 
L 126.597956 239.948708 
L 127.462134 213.690335 
L 128.326313 227.355407 
L 129.190491 244.235789 
L 130.054669 247.4511 
L 130.918848 251.202297 
L 132.647205 225.747751 
L 133.511383 246.111388 
L 134.375561 243.699904 
L 135.23974 237.537225 
L 136.103918 237.537225 
L 136.968097 249.862584 
L 137.832275 237.805167 
L 138.696453 234.321914 
L 139.560632 243.967847 
L 140.42481 243.967847 
L 141.288989 239.412823 
L 142.153167 247.183158 
L 143.017346 249.326699 
L 143.881524 227.623349 
L 144.745702 249.058756 
L 145.609881 248.254928 
L 146.474059 249.862584 
L 147.338238 247.986986 
L 148.202416 251.470239 
L 149.066594 251.470239 
L 149.930773 229.231005 
L 150.794951 217.173589 
L 151.65913 244.235789 
L 152.523308 245.575502 
L 153.387486 227.891292 
L 154.251665 250.934354 
L 155.115843 245.30756 
L 155.980022 242.092249 
L 156.8442 246.37933 
L 157.708379 237.00134 
L 158.572557 247.183158 
L 159.436735 250.934354 
L 160.300914 251.738182 
L 161.165092 244.235789 
L 162.029271 242.628134 
L 162.893449 242.896077 
L 163.757627 241.556364 
L 164.621806 249.058756 
L 165.485984 250.934354 
L 166.350163 250.666411 
L 167.214341 247.4511 
L 168.078519 247.986986 
L 168.942698 243.164019 
L 169.806876 250.130526 
L 170.671055 251.202297 
L 171.535233 251.470239 
L 172.399411 248.522871 
L 173.26359 249.594641 
L 174.127768 250.398469 
L 174.991947 251.738182 
L 175.856125 247.4511 
L 176.720304 247.719043 
L 177.584482 250.934354 
L 178.44866 246.647273 
L 179.312839 243.164019 
L 180.177017 240.752536 
L 181.041196 247.986986 
L 181.905374 249.058756 
L 182.769552 233.518086 
L 183.633731 250.398469 
L 184.497909 235.125742 
L 185.362088 236.733397 
L 186.226266 240.752536 
L 187.090444 234.589856 
L 187.954623 247.183158 
L 188.818801 235.929569 
L 189.68298 251.202297 
L 190.547158 234.857799 
L 191.411337 236.197512 
L 192.275515 228.159234 
L 193.139693 233.786029 
L 194.003872 240.752536 
L 194.86805 243.431962 
L 195.732229 248.522871 
L 196.596407 230.302775 
L 197.460585 226.015694 
L 198.324764 237.269282 
L 199.188942 235.929569 
L 200.053121 233.518086 
L 200.917299 247.719043 
L 201.781477 248.790813 
L 202.645656 231.374545 
L 203.509834 247.183158 
L 205.238191 234.321914 
L 206.966548 250.934354 
L 207.830726 247.986986 
L 208.694905 236.465455 
L 209.559083 235.929569 
L 210.423262 226.819522 
L 211.28744 242.628134 
L 212.151618 250.398469 
L 213.015797 250.666411 
L 213.879975 249.326699 
L 214.744154 243.164019 
L 215.608332 243.431962 
L 216.47251 247.183158 
L 217.336689 232.178373 
L 218.200867 248.522871 
L 219.065046 242.628134 
L 219.929224 239.948708 
L 220.793403 241.556364 
L 221.657581 227.087464 
L 222.521759 236.733397 
L 223.385938 235.929569 
L 224.250116 240.752536 
L 225.114295 239.14488 
L 225.978473 240.216651 
L 226.842651 187.431962 
L 227.70683 246.111388 
L 228.571008 232.178373 
L 229.435187 235.661627 
L 230.299365 228.427177 
L 231.163543 242.360191 
L 232.027722 202.972632 
L 232.8919 201.364976 
L 233.756079 206.99177 
L 234.620257 230.570718 
L 235.484435 178.321914 
L 236.348614 225.211866 
L 237.212792 246.37933 
L 238.076971 245.575502 
L 238.941149 238.341053 
L 239.805328 232.446316 
L 240.669506 229.231005 
L 241.533684 235.661627 
L 242.397863 225.479809 
L 243.262041 244.235789 
L 244.12622 246.111388 
L 244.990398 208.063541 
L 245.854576 233.786029 
L 246.718755 235.393684 
L 247.582933 246.647273 
L 248.447112 248.790813 
L 249.31129 248.254928 
L 250.175468 234.053971 
L 251.039647 187.967847 
L 251.903825 231.106603 
L 252.768004 235.393684 
L 253.632182 216.369761 
L 254.496361 244.771675 
L 255.360539 248.522871 
L 256.224717 245.30756 
L 257.088896 223.604211 
L 257.953074 239.412823 
L 258.817253 224.943923 
L 259.681431 203.240574 
L 260.545609 234.857799 
L 261.409788 241.824306 
L 262.273966 246.37933 
L 263.138145 180.465455 
L 264.002323 228.963062 
L 264.866501 243.967847 
L 265.73068 236.197512 
L 266.594858 237.537225 
L 267.459037 249.058756 
L 268.323215 247.183158 
L 269.187394 191.183158 
L 270.051572 184.752536 
L 270.91575 201.364976 
L 271.779929 243.431962 
L 272.644107 249.326699 
L 273.508286 237.537225 
L 274.372464 247.719043 
L 276.100821 226.015694 
L 276.964999 167.336268 
L 277.829178 223.872153 
L 278.693356 223.068325 
L 279.557534 227.623349 
L 280.421713 245.843445 
L 281.285891 246.647273 
L 282.15007 221.996555 
L 283.014248 237.00134 
L 283.878427 236.733397 
L 284.742605 227.891292 
L 285.606783 243.699904 
L 286.470962 249.326699 
L 287.33514 201.097033 
L 288.199319 238.07311 
L 289.063497 215.030048 
L 289.927675 209.135311 
L 290.791854 215.565933 
L 291.656032 249.862584 
L 292.520211 249.862584 
L 293.384389 224.140096 
L 294.248567 234.053971 
L 295.112746 233.518086 
L 295.976924 239.680766 
L 296.841103 243.164019 
L 297.705281 248.522871 
L 298.56946 246.37933 
L 299.433638 227.355407 
L 300.297816 244.503732 
L 301.161995 241.020478 
L 302.026173 233.250144 
L 302.890352 239.412823 
L 303.75453 249.862584 
L 304.618708 249.862584 
L 305.482887 243.431962 
L 306.347065 240.752536 
L 307.211244 246.647273 
L 308.075422 241.824306 
L 308.9396 243.967847 
L 309.803779 249.326699 
L 310.667957 247.719043 
L 311.532136 232.178373 
L 312.396314 237.269282 
L 313.260492 172.69512 
L 314.124671 215.833876 
L 314.988849 244.503732 
L 315.853028 242.628134 
L 316.717206 250.130526 
L 317.581385 233.250144 
L 318.445563 235.125742 
L 319.309741 242.360191 
L 320.17392 241.556364 
L 321.038098 236.465455 
L 321.902277 249.862584 
L 322.766455 250.398469 
L 323.630633 196.274067 
L 324.494812 239.948708 
L 325.35899 245.30756 
L 326.223169 247.4511 
L 327.087347 204.312344 
L 327.951525 247.4511 
L 328.815704 248.254928 
L 330.544061 242.360191 
L 331.408239 242.628134 
L 332.272418 225.479809 
L 333.136596 244.771675 
L 334.000774 249.862584 
L 334.864953 243.967847 
L 335.729131 245.575502 
L 336.59331 183.948708 
L 337.457488 200.293206 
L 338.321666 241.020478 
L 339.185845 242.896077 
L 340.050023 245.039617 
L 340.914202 244.503732 
L 341.77838 232.714258 
L 342.642558 242.628134 
L 343.506737 243.699904 
L 344.370915 223.872153 
L 345.235094 239.948708 
L 346.099272 250.398469 
L 346.963451 251.738182 
L 347.827629 245.039617 
L 348.691807 245.575502 
L 349.555986 246.915215 
L 350.420164 243.967847 
L 351.284343 246.37933 
L 352.148521 249.594641 
L 353.012699 251.202297 
L 353.876878 243.967847 
L 354.741056 243.699904 
L 355.605235 231.910431 
L 356.469413 230.302775 
L 357.333591 250.666411 
L 358.19777 246.37933 
L 359.061948 251.738182 
L 359.926127 239.680766 
L 360.790305 240.752536 
L 361.654484 243.164019 
L 362.518662 240.484593 
L 363.38284 248.522871 
L 364.247019 245.843445 
L 365.111197 250.130526 
L 365.975376 237.537225 
L 366.839554 239.412823 
L 367.703732 244.235789 
L 368.567911 241.288421 
L 369.432089 232.446316 
L 370.296268 242.360191 
L 371.160446 248.522871 
L 372.024624 233.518086 
L 372.888803 250.398469 
L 373.752981 246.111388 
L 374.61716 244.503732 
L 375.481338 251.202297 
L 376.345516 250.934354 
L 377.209695 245.039617 
L 378.073873 245.575502 
L 378.938052 233.250144 
L 379.80223 231.642488 
L 380.666409 249.058756 
L 381.530587 249.862584 
L 382.394765 250.398469 
L 383.258944 242.628134 
L 384.123122 228.159234 
L 384.987301 236.465455 
L 385.851479 236.197512 
L 386.715657 245.30756 
L 387.579836 249.862584 
L 388.444014 245.843445 
L 389.308193 246.647273 
L 390.172371 249.862584 
L 391.036549 237.269282 
L 391.900728 247.719043 
L 392.764906 242.628134 
L 393.629085 226.015694 
L 394.493263 250.934354 
L 395.357442 248.254928 
L 396.22162 233.786029 
L 397.085798 216.905646 
L 397.949977 236.733397 
L 398.814155 248.254928 
L 399.678334 247.719043 
L 400.542512 250.398469 
L 401.40669 246.647273 
L 402.270869 232.178373 
L 403.135047 230.570718 
L 403.999226 221.46067 
L 404.863404 233.786029 
L 405.727582 248.522871 
L 406.591761 251.470239 
L 407.455939 248.522871 
L 408.320118 249.862584 
L 409.184296 239.948708 
L 410.048475 189.575502 
L 410.912653 229.498947 
L 411.776831 242.628134 
L 412.64101 241.020478 
L 413.505188 230.83866 
L 414.369367 230.83866 
L 415.233545 220.924785 
L 416.097723 198.417608 
L 416.961902 217.441531 
L 417.82608 246.37933 
L 418.690259 250.666411 
L 419.554437 224.675981 
L 420.418615 228.159234 
L 421.282794 212.618565 
L 422.146972 240.216651 
L 423.011151 236.197512 
L 423.875329 246.111388 
L 424.739508 248.254928 
L 425.603686 215.565933 
L 426.467864 238.608995 
L 427.332043 249.594641 
L 428.196221 223.604211 
L 429.0604 164.924785 
L 429.924578 240.484593 
L 430.788756 235.929569 
L 431.652935 227.891292 
L 432.517113 228.963062 
L 433.381292 242.896077 
L 434.24547 232.446316 
L 435.109648 238.876938 
L 435.973827 246.915215 
L 436.838005 245.843445 
L 437.702184 235.929569 
L 438.566362 249.058756 
L 439.43054 243.431962 
L 440.294719 229.498947 
L 442.023076 250.934354 
L 442.887254 250.130526 
L 443.751433 245.039617 
L 444.615611 231.642488 
L 445.479789 240.752536 
L 446.343968 247.183158 
L 447.208146 247.986986 
L 448.072325 247.986986 
L 448.936503 248.790813 
L 449.800681 239.412823 
L 450.66486 235.661627 
L 451.529038 243.967847 
L 453.257395 237.537225 
L 454.121573 250.130526 
L 454.985752 249.862584 
L 455.84993 234.589856 
L 456.714109 232.982201 
L 457.578287 245.575502 
L 459.306644 250.934354 
L 460.170822 248.522871 
L 461.035001 247.719043 
L 461.899179 244.503732 
L 462.763358 228.69512 
L 463.627536 238.341053 
L 464.491714 238.876938 
L 465.355893 226.819522 
L 466.220071 249.862584 
L 467.08425 228.159234 
L 467.948428 237.269282 
L 468.812606 202.972632 
L 469.676785 239.948708 
L 470.540963 221.996555 
L 471.405142 247.4511 
L 472.26932 248.254928 
L 473.133499 230.034833 
L 473.997677 208.599426 
L 474.861855 234.589856 
L 475.726034 237.269282 
L 476.590212 243.431962 
L 477.454391 233.250144 
L 478.318569 249.058756 
L 479.182747 217.173589 
L 480.046926 235.929569 
L 480.911104 239.948708 
L 481.775283 242.628134 
L 482.639461 242.896077 
L 483.503639 246.915215 
L 484.367818 249.058756 
L 485.231996 245.843445 
L 486.096175 248.790813 
L 486.960353 250.934354 
L 487.824532 249.594641 
L 488.68871 249.326699 
L 489.552888 246.915215 
L 490.417067 217.709474 
L 492.145424 242.092249 
L 493.009602 243.164019 
L 493.87378 249.862584 
L 494.737959 250.934354 
L 495.602137 251.738182 
L 496.466316 243.699904 
L 497.330494 236.733397 
L 498.194672 241.288421 
L 499.058851 219.585072 
L 499.923029 246.915215 
L 500.787208 246.111388 
L 501.651386 250.934354 
L 502.515565 247.719043 
L 503.379743 239.412823 
L 504.243921 244.771675 
L 505.1081 242.092249 
L 505.972278 245.843445 
L 506.836457 250.666411 
L 507.700635 250.130526 
L 508.564813 219.585072 
L 509.428992 220.120957 
L 510.29317 235.929569 
L 511.157349 247.719043 
L 512.021527 217.441531 
L 512.885705 246.915215 
L 513.749884 235.929569 
L 514.614062 212.886507 
L 515.478241 238.07311 
L 516.342419 209.939139 
L 517.206597 198.68555 
L 518.070776 232.714258 
L 518.934954 250.666411 
L 519.799133 249.862584 
L 520.663311 196.809952 
L 521.52749 208.867368 
L 522.391668 223.872153 
L 523.255846 224.675981 
L 524.120025 179.125742 
L 524.984203 243.967847 
L 525.848382 245.575502 
L 526.71256 217.441531 
L 527.576738 226.015694 
L 528.440917 242.628134 
L 529.305095 240.752536 
L 530.169274 226.283636 
L 531.033452 247.719043 
L 531.89763 249.862584 
L 532.761809 225.747751 
L 533.625987 235.929569 
L 534.490166 223.336268 
L 535.354344 232.178373 
L 536.218523 216.369761 
L 537.082701 239.680766 
L 537.946879 248.254928 
L 538.811058 222.264498 
L 539.675236 228.427177 
L 540.539415 231.910431 
L 541.403593 227.623349 
L 542.267771 185.824306 
L 543.13195 223.872153 
L 543.996128 241.288421 
L 544.860307 160.101818 
L 545.724485 200.829091 
L 546.588663 224.943923 
L 547.452842 241.288421 
L 548.31702 239.680766 
L 549.181199 243.967847 
L 550.045377 247.4511 
L 550.909556 211.814737 
L 551.773734 223.068325 
L 552.637912 209.671196 
L 553.502091 213.15445 
L 554.366269 225.211866 
L 555.230448 250.130526 
L 556.094626 249.594641 
L 556.958804 213.422392 
L 557.822983 235.661627 
L 558.687161 222.53244 
L 559.55134 230.570718 
L 560.415518 235.393684 
L 561.279696 242.896077 
L 562.143875 247.719043 
L 563.008053 229.76689 
L 563.872232 236.197512 
L 564.73641 216.637703 
L 565.600589 214.22622 
L 566.464767 242.896077 
L 567.328945 249.058756 
L 568.193124 251.738182 
L 569.057302 239.680766 
L 569.921481 237.805167 
L 570.785659 243.699904 
L 571.649837 235.661627 
L 572.514016 244.235789 
L 573.378194 249.326699 
L 574.242373 250.130526 
L 575.106551 242.896077 
L 575.970729 234.589856 
L 576.834908 247.986986 
L 577.699086 247.986986 
L 578.563265 243.967847 
L 579.427443 240.752536 
L 580.291621 229.498947 
L 581.1558 239.14488 
L 582.019978 238.608995 
L 582.884157 246.37933 
L 584.612514 247.4511 
L 585.476692 250.398469 
L 586.34087 248.790813 
L 588.069227 232.178373 
L 588.933406 234.857799 
L 589.797584 242.896077 
L 590.661762 235.661627 
L 591.525941 249.862584 
L 592.390119 251.470239 
L 593.254298 243.699904 
L 594.118476 246.37933 
L 594.982654 233.786029 
L 595.846833 213.15445 
L 596.711011 244.235789 
L 597.57519 250.666411 
L 598.439368 249.326699 
L 599.303547 240.484593 
L 600.167725 236.733397 
L 601.031903 239.412823 
L 601.896082 238.341053 
L 602.76026 234.857799 
L 603.624439 250.934354 
L 604.488617 241.288421 
L 605.352795 228.159234 
L 606.216974 226.819522 
L 607.081152 245.575502 
L 607.945331 248.254928 
L 608.809509 211.278852 
L 609.673687 247.986986 
L 610.537866 250.666411 
L 611.402044 227.891292 
L 612.266223 246.111388 
L 613.130401 221.192727 
L 613.99458 229.498947 
L 614.858758 246.111388 
L 615.722936 251.470239 
L 616.587115 251.470239 
L 617.451293 249.862584 
L 618.315472 244.503732 
L 619.17965 245.843445 
L 620.043828 243.431962 
L 620.908007 251.470239 
L 621.772185 249.862584 
L 622.636364 251.738182 
L 622.636364 251.738182 
" clip-path="url(#pd2d6142abc)" style="fill: none; stroke: #1f77b4; stroke-width: 1.5; stroke-linecap: square"/>
   </g>
   <g id="line2d_26">
    <path d="M 115.363636 251.738182 
L 116.227815 249.594641 
L 117.091993 248.522871 
L 117.956172 249.594641 
L 118.82035 251.738182 
L 119.684528 250.130526 
L 120.548707 249.326699 
L 121.412885 249.326699 
L 122.277064 249.058756 
L 123.141242 249.594641 
L 124.00542 251.470239 
L 127.462134 249.326699 
L 128.326313 249.058756 
L 129.190491 250.130526 
L 130.918848 251.738182 
L 131.783026 249.058756 
L 132.647205 249.594641 
L 133.511383 250.666411 
L 134.375561 250.934354 
L 135.23974 250.666411 
L 136.103918 251.470239 
L 136.968097 251.202297 
L 137.832275 250.130526 
L 138.696453 251.202297 
L 139.560632 249.058756 
L 140.42481 249.862584 
L 141.288989 250.398469 
L 142.153167 251.202297 
L 143.017346 251.202297 
L 143.881524 247.719043 
L 144.745702 251.470239 
L 145.609881 251.470239 
L 146.474059 251.202297 
L 148.202416 251.738182 
L 149.066594 251.470239 
L 149.930773 249.594641 
L 150.794951 247.183158 
L 151.65913 248.790813 
L 152.523308 250.130526 
L 153.387486 250.130526 
L 154.251665 251.470239 
L 155.115843 250.398469 
L 155.980022 250.130526 
L 156.8442 250.934354 
L 157.708379 247.986986 
L 158.572557 249.594641 
L 159.436735 251.470239 
L 160.300914 251.738182 
L 161.165092 249.326699 
L 162.893449 249.326699 
L 163.757627 250.130526 
L 164.621806 250.398469 
L 165.485984 251.202297 
L 166.350163 251.470239 
L 167.214341 250.934354 
L 168.078519 250.666411 
L 168.942698 251.202297 
L 170.671055 251.202297 
L 171.535233 251.470239 
L 172.399411 250.934354 
L 174.127768 250.934354 
L 174.991947 251.738182 
L 175.856125 251.202297 
L 176.720304 251.202297 
L 177.584482 250.934354 
L 178.44866 249.862584 
L 179.312839 248.254928 
L 180.177017 250.130526 
L 181.041196 251.202297 
L 181.905374 250.934354 
L 182.769552 250.934354 
L 183.633731 251.202297 
L 184.497909 249.594641 
L 185.362088 248.790813 
L 186.226266 249.862584 
L 187.090444 247.183158 
L 187.954623 249.862584 
L 188.818801 250.398469 
L 189.68298 251.202297 
L 190.547158 250.666411 
L 191.411337 250.666411 
L 192.275515 248.522871 
L 193.139693 249.594641 
L 194.003872 249.326699 
L 194.86805 249.326699 
L 195.732229 250.398469 
L 196.596407 246.37933 
L 197.460585 247.986986 
L 198.324764 249.326699 
L 199.188942 247.719043 
L 200.053121 246.647273 
L 200.917299 250.934354 
L 201.781477 250.666411 
L 202.645656 248.790813 
L 203.509834 250.130526 
L 204.374013 248.254928 
L 205.238191 249.594641 
L 206.10237 249.594641 
L 206.966548 250.934354 
L 207.830726 251.202297 
L 208.694905 249.058756 
L 209.559083 248.254928 
L 210.423262 248.522871 
L 211.28744 250.934354 
L 212.151618 251.470239 
L 213.879975 250.934354 
L 214.744154 250.934354 
L 215.608332 249.594641 
L 216.47251 250.398469 
L 217.336689 249.058756 
L 218.200867 250.934354 
L 219.065046 250.398469 
L 219.929224 250.934354 
L 220.793403 249.326699 
L 221.657581 249.058756 
L 222.521759 249.058756 
L 223.385938 248.254928 
L 224.250116 250.398469 
L 225.114295 250.934354 
L 225.978473 250.934354 
L 226.842651 242.896077 
L 227.70683 249.058756 
L 228.571008 249.058756 
L 229.435187 247.719043 
L 230.299365 249.326699 
L 231.163543 250.666411 
L 232.027722 250.666411 
L 232.8919 246.647273 
L 233.756079 246.915215 
L 234.620257 248.522871 
L 235.484435 246.915215 
L 236.348614 247.719043 
L 237.212792 250.130526 
L 238.076971 250.934354 
L 238.941149 247.719043 
L 239.805328 246.37933 
L 240.669506 247.4511 
L 241.533684 247.719043 
L 242.397863 249.594641 
L 243.262041 251.202297 
L 244.12622 250.130526 
L 244.990398 247.986986 
L 245.854576 247.986986 
L 246.718755 248.790813 
L 247.582933 250.666411 
L 249.31129 251.202297 
L 250.175468 250.130526 
L 251.039647 246.647273 
L 251.903825 247.4511 
L 252.768004 248.790813 
L 253.632182 247.183158 
L 254.496361 249.862584 
L 255.360539 251.202297 
L 257.088896 249.594641 
L 257.953074 248.522871 
L 258.817253 248.790813 
L 259.681431 247.719043 
L 260.545609 249.326699 
L 261.409788 249.594641 
L 262.273966 250.934354 
L 263.138145 245.843445 
L 264.002323 248.254928 
L 264.866501 249.058756 
L 265.73068 249.326699 
L 266.594858 249.326699 
L 267.459037 250.934354 
L 268.323215 250.398469 
L 269.187394 246.111388 
L 270.051572 244.771675 
L 270.91575 247.183158 
L 271.779929 249.058756 
L 272.644107 250.398469 
L 273.508286 249.326699 
L 274.372464 250.398469 
L 275.236642 246.647273 
L 276.100821 246.915215 
L 276.964999 230.302775 
L 277.829178 248.254928 
L 278.693356 246.915215 
L 279.557534 250.666411 
L 280.421713 251.738182 
L 281.285891 249.862584 
L 282.15007 248.522871 
L 283.014248 248.522871 
L 283.878427 248.790813 
L 284.742605 247.986986 
L 286.470962 251.202297 
L 287.33514 249.326699 
L 288.199319 248.522871 
L 289.063497 247.183158 
L 289.927675 247.4511 
L 290.791854 246.111388 
L 291.656032 250.666411 
L 292.520211 251.738182 
L 293.384389 246.111388 
L 294.248567 247.4511 
L 295.112746 249.594641 
L 295.976924 247.719043 
L 296.841103 248.522871 
L 297.705281 251.470239 
L 298.56946 250.398469 
L 299.433638 248.522871 
L 300.297816 249.594641 
L 301.161995 248.254928 
L 302.026173 246.647273 
L 303.75453 250.934354 
L 304.618708 251.202297 
L 305.482887 249.326699 
L 306.347065 247.986986 
L 307.211244 250.130526 
L 308.075422 249.594641 
L 308.9396 249.594641 
L 310.667957 250.130526 
L 311.532136 247.183158 
L 312.396314 249.058756 
L 313.260492 249.058756 
L 314.124671 250.130526 
L 314.988849 249.326699 
L 315.853028 251.202297 
L 316.717206 250.398469 
L 317.581385 248.522871 
L 318.445563 249.326699 
L 319.309741 249.058756 
L 320.17392 248.522871 
L 321.038098 249.326699 
L 321.902277 251.202297 
L 322.766455 250.934354 
L 323.630633 247.719043 
L 324.494812 250.666411 
L 325.35899 249.862584 
L 326.223169 249.326699 
L 327.087347 246.111388 
L 327.951525 251.202297 
L 328.815704 250.666411 
L 329.679882 249.862584 
L 330.544061 250.398469 
L 331.408239 249.058756 
L 332.272418 248.254928 
L 333.136596 249.326699 
L 334.000774 250.934354 
L 334.864953 250.934354 
L 335.729131 249.594641 
L 336.59331 247.4511 
L 337.457488 247.4511 
L 338.321666 250.398469 
L 339.185845 248.790813 
L 340.050023 250.666411 
L 340.914202 249.594641 
L 341.77838 247.986986 
L 342.642558 248.790813 
L 343.506737 248.790813 
L 344.370915 247.986986 
L 345.235094 248.254928 
L 346.099272 251.202297 
L 346.963451 251.738182 
L 347.827629 250.130526 
L 348.691807 250.130526 
L 349.555986 250.398469 
L 350.420164 250.398469 
L 351.284343 250.666411 
L 353.012699 251.738182 
L 353.876878 250.398469 
L 354.741056 249.594641 
L 355.605235 249.862584 
L 356.469413 248.790813 
L 357.333591 251.202297 
L 358.19777 250.398469 
L 359.061948 251.738182 
L 359.926127 250.398469 
L 360.790305 250.398469 
L 361.654484 248.522871 
L 362.518662 247.986986 
L 363.38284 249.594641 
L 364.247019 250.666411 
L 365.111197 250.666411 
L 365.975376 248.790813 
L 366.839554 249.594641 
L 367.703732 249.862584 
L 368.567911 249.862584 
L 369.432089 249.058756 
L 370.296268 249.326699 
L 371.160446 250.666411 
L 372.024624 248.522871 
L 372.888803 251.470239 
L 373.752981 249.862584 
L 374.61716 249.862584 
L 375.481338 251.202297 
L 376.345516 250.934354 
L 377.209695 250.130526 
L 378.073873 250.130526 
L 378.938052 249.326699 
L 379.80223 249.594641 
L 380.666409 251.202297 
L 381.530587 250.934354 
L 382.394765 251.470239 
L 383.258944 250.398469 
L 384.123122 250.130526 
L 384.987301 248.790813 
L 385.851479 249.326699 
L 386.715657 250.398469 
L 387.579836 250.934354 
L 388.444014 250.398469 
L 389.308193 251.470239 
L 390.172371 250.934354 
L 391.036549 249.326699 
L 391.900728 250.130526 
L 392.764906 251.202297 
L 393.629085 248.522871 
L 394.493263 251.470239 
L 395.357442 251.202297 
L 396.22162 248.254928 
L 397.949977 249.326699 
L 398.814155 250.398469 
L 399.678334 249.862584 
L 400.542512 251.202297 
L 401.40669 250.666411 
L 402.270869 247.986986 
L 403.135047 249.862584 
L 403.999226 249.326699 
L 404.863404 249.862584 
L 405.727582 249.862584 
L 406.591761 251.470239 
L 407.455939 251.470239 
L 408.320118 250.934354 
L 409.184296 248.522871 
L 410.912653 248.522871 
L 411.776831 249.862584 
L 412.64101 249.862584 
L 413.505188 249.058756 
L 414.369367 248.790813 
L 415.233545 247.4511 
L 416.097723 249.594641 
L 416.961902 247.719043 
L 417.82608 250.130526 
L 418.690259 251.202297 
L 419.554437 250.398469 
L 420.418615 249.862584 
L 421.282794 248.254928 
L 422.146972 248.522871 
L 423.011151 249.326699 
L 423.875329 249.862584 
L 424.739508 250.130526 
L 425.603686 247.719043 
L 426.467864 248.522871 
L 427.332043 250.666411 
L 428.196221 249.594641 
L 429.924578 249.058756 
L 430.788756 249.594641 
L 431.652935 247.719043 
L 432.517113 250.130526 
L 433.381292 250.398469 
L 434.24547 248.522871 
L 435.109648 249.058756 
L 435.973827 250.934354 
L 436.838005 250.398469 
L 437.702184 249.594641 
L 438.566362 250.934354 
L 439.43054 249.326699 
L 440.294719 248.790813 
L 441.158897 249.058756 
L 442.023076 251.202297 
L 442.887254 251.202297 
L 443.751433 249.326699 
L 444.615611 250.398469 
L 445.479789 247.986986 
L 447.208146 250.130526 
L 448.072325 250.666411 
L 448.936503 250.130526 
L 449.800681 249.058756 
L 450.66486 247.4511 
L 451.529038 248.522871 
L 452.393217 247.986986 
L 453.257395 249.058756 
L 454.121573 250.666411 
L 454.985752 250.934354 
L 455.84993 249.326699 
L 456.714109 250.666411 
L 457.578287 249.862584 
L 458.442466 250.130526 
L 459.306644 251.470239 
L 460.170822 250.934354 
L 461.035001 250.934354 
L 461.899179 251.470239 
L 462.763358 249.594641 
L 463.627536 250.398469 
L 464.491714 249.058756 
L 465.355893 250.666411 
L 466.220071 251.202297 
L 467.08425 249.058756 
L 467.948428 249.594641 
L 468.812606 249.594641 
L 469.676785 246.915215 
L 470.540963 246.647273 
L 471.405142 250.398469 
L 472.26932 250.398469 
L 473.133499 248.790813 
L 473.997677 248.790813 
L 474.861855 249.862584 
L 475.726034 249.326699 
L 476.590212 250.398469 
L 477.454391 250.666411 
L 478.318569 250.666411 
L 479.182747 248.254928 
L 480.046926 249.862584 
L 480.911104 250.666411 
L 481.775283 250.934354 
L 482.639461 249.594641 
L 483.503639 251.738182 
L 484.367818 251.470239 
L 485.231996 250.934354 
L 486.096175 250.934354 
L 486.960353 251.202297 
L 487.824532 250.666411 
L 488.68871 251.202297 
L 489.552888 250.398469 
L 490.417067 244.771675 
L 491.281245 247.4511 
L 492.145424 249.326699 
L 494.737959 250.934354 
L 495.602137 251.738182 
L 496.466316 249.594641 
L 497.330494 249.594641 
L 498.194672 249.058756 
L 499.058851 246.111388 
L 499.923029 250.666411 
L 500.787208 251.738182 
L 501.651386 251.470239 
L 502.515565 250.666411 
L 503.379743 248.254928 
L 504.243921 250.934354 
L 505.1081 250.130526 
L 505.972278 248.522871 
L 506.836457 251.202297 
L 507.700635 251.202297 
L 508.564813 250.130526 
L 509.428992 247.986986 
L 510.29317 248.790813 
L 511.157349 249.862584 
L 512.021527 249.326699 
L 512.885705 250.934354 
L 513.749884 250.666411 
L 514.614062 248.254928 
L 515.478241 249.326699 
L 516.342419 247.183158 
L 517.206597 246.647273 
L 518.070776 247.183158 
L 518.934954 251.202297 
L 519.799133 251.738182 
L 520.663311 247.986986 
L 521.52749 246.111388 
L 522.391668 247.986986 
L 523.255846 246.647273 
L 524.120025 243.431962 
L 524.984203 249.594641 
L 525.848382 249.326699 
L 526.71256 247.4511 
L 527.576738 247.183158 
L 528.440917 248.254928 
L 529.305095 248.790813 
L 530.169274 247.986986 
L 531.033452 249.862584 
L 531.89763 250.934354 
L 532.761809 247.719043 
L 534.490166 248.254928 
L 535.354344 246.915215 
L 536.218523 247.4511 
L 537.082701 247.719043 
L 537.946879 250.666411 
L 538.811058 245.843445 
L 539.675236 245.843445 
L 540.539415 243.967847 
L 541.403593 247.183158 
L 542.267771 247.183158 
L 543.13195 249.862584 
L 543.996128 249.058756 
L 544.860307 247.986986 
L 545.724485 245.843445 
L 546.588663 248.522871 
L 547.452842 249.058756 
L 548.31702 249.326699 
L 549.181199 249.326699 
L 550.045377 249.862584 
L 550.909556 246.647273 
L 551.773734 247.183158 
L 552.637912 245.039617 
L 553.502091 247.986986 
L 554.366269 247.183158 
L 555.230448 250.934354 
L 556.094626 251.202297 
L 556.958804 243.967847 
L 557.822983 247.4511 
L 558.687161 245.575502 
L 559.55134 246.37933 
L 560.415518 249.594641 
L 561.279696 250.398469 
L 562.143875 250.398469 
L 563.008053 248.522871 
L 563.872232 249.326699 
L 564.73641 247.183158 
L 565.600589 246.915215 
L 566.464767 249.594641 
L 567.328945 249.862584 
L 568.193124 251.738182 
L 569.057302 248.522871 
L 569.921481 248.254928 
L 570.785659 249.058756 
L 571.649837 244.771675 
L 572.514016 249.326699 
L 573.378194 251.470239 
L 574.242373 250.934354 
L 575.106551 249.058756 
L 575.970729 249.594641 
L 576.834908 249.594641 
L 577.699086 250.666411 
L 578.563265 250.666411 
L 579.427443 251.202297 
L 580.291621 250.666411 
L 581.1558 249.326699 
L 582.019978 249.058756 
L 582.884157 249.326699 
L 583.748335 250.130526 
L 584.612514 249.594641 
L 585.476692 250.666411 
L 586.34087 249.594641 
L 587.205049 248.790813 
L 588.069227 248.522871 
L 588.933406 248.522871 
L 589.797584 249.862584 
L 590.661762 246.915215 
L 591.525941 251.470239 
L 592.390119 251.470239 
L 593.254298 249.058756 
L 594.118476 250.398469 
L 594.982654 250.398469 
L 595.846833 248.254928 
L 596.711011 249.862584 
L 597.57519 251.202297 
L 598.439368 250.398469 
L 599.303547 249.326699 
L 600.167725 248.522871 
L 601.031903 249.058756 
L 601.896082 247.4511 
L 602.76026 249.594641 
L 603.624439 250.934354 
L 604.488617 250.130526 
L 605.352795 246.647273 
L 606.216974 247.986986 
L 607.081152 250.666411 
L 607.945331 250.130526 
L 608.809509 248.522871 
L 609.673687 250.130526 
L 610.537866 251.470239 
L 611.402044 249.594641 
L 612.266223 250.130526 
L 613.130401 249.594641 
L 613.99458 248.790813 
L 614.858758 250.398469 
L 615.722936 251.470239 
L 616.587115 251.470239 
L 617.451293 250.666411 
L 618.315472 250.130526 
L 619.17965 250.130526 
L 620.043828 249.058756 
L 620.908007 251.470239 
L 621.772185 250.934354 
L 622.636364 251.738182 
L 622.636364 251.738182 
" clip-path="url(#pd2d6142abc)" style="fill: none; stroke: #ff7f0e; stroke-width: 1.5; stroke-linecap: square"/>
   </g>
   <g id="patch_9">
    <path d="M 90 256.32 
L 90 155.52 
" style="fill: none; stroke: #000000; stroke-width: 0.8; stroke-linejoin: miter; stroke-linecap: square"/>
   </g>
   <g id="patch_10">
    <path d="M 648 256.32 
L 648 155.52 
" style="fill: none; stroke: #000000; stroke-width: 0.8; stroke-linejoin: miter; stroke-linecap: square"/>
   </g>
   <g id="patch_11">
    <path d="M 90 256.32 
L 648 256.32 
" style="fill: none; stroke: #000000; stroke-width: 0.8; stroke-linejoin: miter; stroke-linecap: square"/>
   </g>
   <g id="patch_12">
    <path d="M 90 155.52 
L 648 155.52 
" style="fill: none; stroke: #000000; stroke-width: 0.8; stroke-linejoin: miter; stroke-linecap: square"/>
   </g>
   <g id="legend_2">
    <g id="patch_13">
     <path d="M 503.782812 192.87625 
L 641 192.87625 
Q 643 192.87625 643 190.87625 
L 643 162.52 
Q 643 160.52 641 160.52 
L 503.782812 160.52 
Q 501.782812 160.52 501.782812 162.52 
L 501.782812 190.87625 
Q 501.782812 192.87625 503.782812 192.87625 
z
" style="fill: #ffffff; opacity: 0.8; stroke: #cccccc; stroke-linejoin: miter"/>
    </g>
    <g id="line2d_27">
     <path d="M 505.782812 168.618437 
L 515.782812 168.618437 
L 525.782812 168.618437 
" style="fill: none; stroke: #1f77b4; stroke-width: 1.5; stroke-linecap: square"/>
    </g>
    <g id="text_24">
     <!-- Total GitHub Views -->
     <g transform="translate(533.782812 172.118437)scale(0.1 -0.1)">
      <defs>
       <path id="DejaVuSans-56" d="M 1831 0 
L 50 4666 
L 709 4666 
L 2188 738 
L 3669 4666 
L 4325 4666 
L 2547 0 
L 1831 0 
z
" transform="scale(0.015625)"/>
       <path id="DejaVuSans-77" d="M 269 3500 
L 844 3500 
L 1563 769 
L 2278 3500 
L 2956 3500 
L 3675 769 
L 4391 3500 
L 4966 3500 
L 4050 0 
L 3372 0 
L 2619 2869 
L 1863 0 
L 1184 0 
L 269 3500 
z
" transform="scale(0.015625)"/>
      </defs>
      <use xlink:href="#DejaVuSans-54"/>
      <use xlink:href="#DejaVuSans-6f" x="44.083984"/>
      <use xlink:href="#DejaVuSans-74" x="105.265625"/>
      <use xlink:href="#DejaVuSans-61" x="144.474609"/>
      <use xlink:href="#DejaVuSans-6c" x="205.753906"/>
      <use xlink:href="#DejaVuSans-20" x="233.537109"/>
      <use xlink:href="#DejaVuSans-47" x="265.324219"/>
      <use xlink:href="#DejaVuSans-69" x="342.814453"/>
      <use xlink:href="#DejaVuSans-74" x="370.597656"/>
      <use xlink:href="#DejaVuSans-48" x="409.806641"/>
      <use xlink:href="#DejaVuSans-75" x="485.001953"/>
      <use xlink:href="#DejaVuSans-62" x="548.380859"/>
      <use xlink:href="#DejaVuSans-20" x="611.857422"/>
      <use xlink:href="#DejaVuSans-56" x="643.644531"/>
      <use xlink:href="#DejaVuSans-69" x="709.802734"/>
      <use xlink:href="#DejaVuSans-65" x="737.585938"/>
      <use xlink:href="#DejaVuSans-77" x="799.109375"/>
      <use xlink:href="#DejaVuSans-73" x="880.896484"/>
     </g>
    </g>
    <g id="line2d_28">
     <path d="M 505.782812 183.296562 
L 515.782812 183.296562 
L 525.782812 183.296562 
" style="fill: none; stroke: #ff7f0e; stroke-width: 1.5; stroke-linecap: square"/>
    </g>
    <g id="text_25">
     <!-- Unique GitHub Views -->
     <g transform="translate(533.782812 186.796562)scale(0.1 -0.1)">
      <use xlink:href="#DejaVuSans-55"/>
      <use xlink:href="#DejaVuSans-6e" x="73.193359"/>
      <use xlink:href="#DejaVuSans-69" x="136.572266"/>
      <use xlink:href="#DejaVuSans-71" x="164.355469"/>
      <use xlink:href="#DejaVuSans-75" x="227.832031"/>
      <use xlink:href="#DejaVuSans-65" x="291.210938"/>
      <use xlink:href="#DejaVuSans-20" x="352.734375"/>
      <use xlink:href="#DejaVuSans-47" x="384.521484"/>
      <use xlink:href="#DejaVuSans-69" x="462.011719"/>
      <use xlink:href="#DejaVuSans-74" x="489.794922"/>
      <use xlink:href="#DejaVuSans-48" x="529.003906"/>
      <use xlink:href="#DejaVuSans-75" x="604.199219"/>
      <use xlink:href="#DejaVuSans-62" x="667.578125"/>
      <use xlink:href="#DejaVuSans-20" x="731.054688"/>
      <use xlink:href="#DejaVuSans-56" x="762.841797"/>
      <use xlink:href="#DejaVuSans-69" x="829"/>
      <use xlink:href="#DejaVuSans-65" x="856.783203"/>
      <use xlink:href="#DejaVuSans-77" x="918.306641"/>
      <use xlink:href="#DejaVuSans-73" x="1000.09375"/>
     </g>
    </g>
   </g>
  </g>
 </g>
 <defs>
  <clipPath id="pf2151477b8">
   <rect x="90" y="34.56" width="558" height="100.8"/>
  </clipPath>
  <clipPath id="pd2d6142abc">
   <rect x="90" y="155.52" width="558" height="100.8"/>
  </clipPath>
 </defs>
</svg>
