<?xml version="1.0" encoding="utf-8" standalone="no"?>
<!DOCTYPE svg PUBLIC "-//W3C//DTD SVG 1.1//EN"
  "http://www.w3.org/Graphics/SVG/1.1/DTD/svg11.dtd">
<svg height="288pt" version="1.1" viewBox="0 0 720 288" width="720pt" xmlns="http://www.w3.org/2000/svg" xmlns:xlink="http://www.w3.org/1999/xlink">
 <metadata>
  <rdf:RDF xmlns:cc="http://creativecommons.org/ns#" xmlns:dc="http://purl.org/dc/elements/1.1/" xmlns:rdf="http://www.w3.org/1999/02/22-rdf-syntax-ns#">
   <cc:Work>
    <dc:type rdf:resource="http://purl.org/dc/dcmitype/StillImage"/>
    <dc:date>2021-07-12T00:24:23.482964</dc:date>
    <dc:format>image/svg+xml</dc:format>
    <dc:creator>
     <cc:Agent>
      <dc:title>Matplotlib v3.4.2, https://matplotlib.org/</dc:title>
     </cc:Agent>
    </dc:creator>
   </cc:Work>
  </rdf:RDF>
 </metadata>
 <defs>
  <style type="text/css">*{stroke-linecap:butt;stroke-linejoin:round;}</style>
 </defs>
 <g id="figure_1">
  <g id="patch_1">
   <path d="M 0 288 
L 720 288 
L 720 0 
L 0 0 
z
" style="fill:#ffffff;"/>
  </g>
  <g id="axes_1">
   <g id="patch_2">
    <path d="M 90 135.36 
L 648 135.36 
L 648 34.56 
L 90 34.56 
z
" style="fill:#ffffff;"/>
   </g>
   <g id="matplotlib.axis_1">
    <g id="xtick_1">
     <g id="line2d_1">
      <defs>
       <path d="M 0 0 
L 0 3.5 
" id="mfccde7856c" style="stroke:#000000;stroke-width:0.8;"/>
      </defs>
      <g>
       <use style="stroke:#000000;stroke-width:0.8;" x="115.363636" xlink:href="#mfccde7856c" y="135.36"/>
      </g>
     </g>
     <g id="text_1">
      <!-- 2020-10-22 -->
      <g transform="translate(86.305824 149.958437)scale(0.1 -0.1)">
       <defs>
        <path d="M 1228 531 
L 3431 531 
L 3431 0 
L 469 0 
L 469 531 
Q 828 903 1448 1529 
Q 2069 2156 2228 2338 
Q 2531 2678 2651 2914 
Q 2772 3150 2772 3378 
Q 2772 3750 2511 3984 
Q 2250 4219 1831 4219 
Q 1534 4219 1204 4116 
Q 875 4013 500 3803 
L 500 4441 
Q 881 4594 1212 4672 
Q 1544 4750 1819 4750 
Q 2544 4750 2975 4387 
Q 3406 4025 3406 3419 
Q 3406 3131 3298 2873 
Q 3191 2616 2906 2266 
Q 2828 2175 2409 1742 
Q 1991 1309 1228 531 
z
" id="DejaVuSans-32" transform="scale(0.015625)"/>
        <path d="M 2034 4250 
Q 1547 4250 1301 3770 
Q 1056 3291 1056 2328 
Q 1056 1369 1301 889 
Q 1547 409 2034 409 
Q 2525 409 2770 889 
Q 3016 1369 3016 2328 
Q 3016 3291 2770 3770 
Q 2525 4250 2034 4250 
z
M 2034 4750 
Q 2819 4750 3233 4129 
Q 3647 3509 3647 2328 
Q 3647 1150 3233 529 
Q 2819 -91 2034 -91 
Q 1250 -91 836 529 
Q 422 1150 422 2328 
Q 422 3509 836 4129 
Q 1250 4750 2034 4750 
z
" id="DejaVuSans-30" transform="scale(0.015625)"/>
        <path d="M 313 2009 
L 1997 2009 
L 1997 1497 
L 313 1497 
L 313 2009 
z
" id="DejaVuSans-2d" transform="scale(0.015625)"/>
        <path d="M 794 531 
L 1825 531 
L 1825 4091 
L 703 3866 
L 703 4441 
L 1819 4666 
L 2450 4666 
L 2450 531 
L 3481 531 
L 3481 0 
L 794 0 
L 794 531 
z
" id="DejaVuSans-31" transform="scale(0.015625)"/>
       </defs>
       <use xlink:href="#DejaVuSans-32"/>
       <use x="63.623047" xlink:href="#DejaVuSans-30"/>
       <use x="127.246094" xlink:href="#DejaVuSans-32"/>
       <use x="190.869141" xlink:href="#DejaVuSans-30"/>
       <use x="254.492188" xlink:href="#DejaVuSans-2d"/>
       <use x="290.576172" xlink:href="#DejaVuSans-31"/>
       <use x="354.199219" xlink:href="#DejaVuSans-30"/>
       <use x="417.822266" xlink:href="#DejaVuSans-2d"/>
       <use x="453.90625" xlink:href="#DejaVuSans-32"/>
       <use x="517.529297" xlink:href="#DejaVuSans-32"/>
      </g>
     </g>
    </g>
    <g id="xtick_2">
     <g id="line2d_2">
      <g>
       <use style="stroke:#000000;stroke-width:0.8;" x="231.179328" xlink:href="#mfccde7856c" y="135.36"/>
      </g>
     </g>
     <g id="text_2">
      <!-- 2021-01-05 -->
      <g transform="translate(202.121515 149.958437)scale(0.1 -0.1)">
       <defs>
        <path d="M 691 4666 
L 3169 4666 
L 3169 4134 
L 1269 4134 
L 1269 2991 
Q 1406 3038 1543 3061 
Q 1681 3084 1819 3084 
Q 2600 3084 3056 2656 
Q 3513 2228 3513 1497 
Q 3513 744 3044 326 
Q 2575 -91 1722 -91 
Q 1428 -91 1123 -41 
Q 819 9 494 109 
L 494 744 
Q 775 591 1075 516 
Q 1375 441 1709 441 
Q 2250 441 2565 725 
Q 2881 1009 2881 1497 
Q 2881 1984 2565 2268 
Q 2250 2553 1709 2553 
Q 1456 2553 1204 2497 
Q 953 2441 691 2322 
L 691 4666 
z
" id="DejaVuSans-35" transform="scale(0.015625)"/>
       </defs>
       <use xlink:href="#DejaVuSans-32"/>
       <use x="63.623047" xlink:href="#DejaVuSans-30"/>
       <use x="127.246094" xlink:href="#DejaVuSans-32"/>
       <use x="190.869141" xlink:href="#DejaVuSans-31"/>
       <use x="254.492188" xlink:href="#DejaVuSans-2d"/>
       <use x="290.576172" xlink:href="#DejaVuSans-30"/>
       <use x="354.199219" xlink:href="#DejaVuSans-31"/>
       <use x="417.822266" xlink:href="#DejaVuSans-2d"/>
       <use x="453.90625" xlink:href="#DejaVuSans-30"/>
       <use x="517.529297" xlink:href="#DejaVuSans-35"/>
      </g>
     </g>
    </g>
    <g id="xtick_3">
     <g id="line2d_3">
      <g>
       <use style="stroke:#000000;stroke-width:0.8;" x="346.995019" xlink:href="#mfccde7856c" y="135.36"/>
      </g>
     </g>
     <g id="text_3">
      <!-- 2021-03-17 -->
      <g transform="translate(317.937206 149.958437)scale(0.1 -0.1)">
       <defs>
        <path d="M 2597 2516 
Q 3050 2419 3304 2112 
Q 3559 1806 3559 1356 
Q 3559 666 3084 287 
Q 2609 -91 1734 -91 
Q 1441 -91 1130 -33 
Q 819 25 488 141 
L 488 750 
Q 750 597 1062 519 
Q 1375 441 1716 441 
Q 2309 441 2620 675 
Q 2931 909 2931 1356 
Q 2931 1769 2642 2001 
Q 2353 2234 1838 2234 
L 1294 2234 
L 1294 2753 
L 1863 2753 
Q 2328 2753 2575 2939 
Q 2822 3125 2822 3475 
Q 2822 3834 2567 4026 
Q 2313 4219 1838 4219 
Q 1578 4219 1281 4162 
Q 984 4106 628 3988 
L 628 4550 
Q 988 4650 1302 4700 
Q 1616 4750 1894 4750 
Q 2613 4750 3031 4423 
Q 3450 4097 3450 3541 
Q 3450 3153 3228 2886 
Q 3006 2619 2597 2516 
z
" id="DejaVuSans-33" transform="scale(0.015625)"/>
        <path d="M 525 4666 
L 3525 4666 
L 3525 4397 
L 1831 0 
L 1172 0 
L 2766 4134 
L 525 4134 
L 525 4666 
z
" id="DejaVuSans-37" transform="scale(0.015625)"/>
       </defs>
       <use xlink:href="#DejaVuSans-32"/>
       <use x="63.623047" xlink:href="#DejaVuSans-30"/>
       <use x="127.246094" xlink:href="#DejaVuSans-32"/>
       <use x="190.869141" xlink:href="#DejaVuSans-31"/>
       <use x="254.492188" xlink:href="#DejaVuSans-2d"/>
       <use x="290.576172" xlink:href="#DejaVuSans-30"/>
       <use x="354.199219" xlink:href="#DejaVuSans-33"/>
       <use x="417.822266" xlink:href="#DejaVuSans-2d"/>
       <use x="453.90625" xlink:href="#DejaVuSans-31"/>
       <use x="517.529297" xlink:href="#DejaVuSans-37"/>
      </g>
     </g>
    </g>
    <g id="xtick_4">
     <g id="line2d_4">
      <g>
       <use style="stroke:#000000;stroke-width:0.8;" x="462.81071" xlink:href="#mfccde7856c" y="135.36"/>
      </g>
     </g>
     <g id="text_4">
      <!-- 2021-05-03 -->
      <g transform="translate(433.752897 149.958437)scale(0.1 -0.1)">
       <use xlink:href="#DejaVuSans-32"/>
       <use x="63.623047" xlink:href="#DejaVuSans-30"/>
       <use x="127.246094" xlink:href="#DejaVuSans-32"/>
       <use x="190.869141" xlink:href="#DejaVuSans-31"/>
       <use x="254.492188" xlink:href="#DejaVuSans-2d"/>
       <use x="290.576172" xlink:href="#DejaVuSans-30"/>
       <use x="354.199219" xlink:href="#DejaVuSans-35"/>
       <use x="417.822266" xlink:href="#DejaVuSans-2d"/>
       <use x="453.90625" xlink:href="#DejaVuSans-30"/>
       <use x="517.529297" xlink:href="#DejaVuSans-33"/>
      </g>
     </g>
    </g>
    <g id="xtick_5">
     <g id="line2d_5">
      <g>
       <use style="stroke:#000000;stroke-width:0.8;" x="578.626401" xlink:href="#mfccde7856c" y="135.36"/>
      </g>
     </g>
     <g id="text_5">
      <!-- 2021-06-20 -->
      <g transform="translate(549.568588 149.958437)scale(0.1 -0.1)">
       <defs>
        <path d="M 2113 2584 
Q 1688 2584 1439 2293 
Q 1191 2003 1191 1497 
Q 1191 994 1439 701 
Q 1688 409 2113 409 
Q 2538 409 2786 701 
Q 3034 994 3034 1497 
Q 3034 2003 2786 2293 
Q 2538 2584 2113 2584 
z
M 3366 4563 
L 3366 3988 
Q 3128 4100 2886 4159 
Q 2644 4219 2406 4219 
Q 1781 4219 1451 3797 
Q 1122 3375 1075 2522 
Q 1259 2794 1537 2939 
Q 1816 3084 2150 3084 
Q 2853 3084 3261 2657 
Q 3669 2231 3669 1497 
Q 3669 778 3244 343 
Q 2819 -91 2113 -91 
Q 1303 -91 875 529 
Q 447 1150 447 2328 
Q 447 3434 972 4092 
Q 1497 4750 2381 4750 
Q 2619 4750 2861 4703 
Q 3103 4656 3366 4563 
z
" id="DejaVuSans-36" transform="scale(0.015625)"/>
       </defs>
       <use xlink:href="#DejaVuSans-32"/>
       <use x="63.623047" xlink:href="#DejaVuSans-30"/>
       <use x="127.246094" xlink:href="#DejaVuSans-32"/>
       <use x="190.869141" xlink:href="#DejaVuSans-31"/>
       <use x="254.492188" xlink:href="#DejaVuSans-2d"/>
       <use x="290.576172" xlink:href="#DejaVuSans-30"/>
       <use x="354.199219" xlink:href="#DejaVuSans-36"/>
       <use x="417.822266" xlink:href="#DejaVuSans-2d"/>
       <use x="453.90625" xlink:href="#DejaVuSans-32"/>
       <use x="517.529297" xlink:href="#DejaVuSans-30"/>
      </g>
     </g>
    </g>
    <g id="text_6">
     <!-- _date -->
     <g transform="translate(355.225 163.636562)scale(0.1 -0.1)">
      <defs>
       <path d="M 3263 -1063 
L 3263 -1509 
L -63 -1509 
L -63 -1063 
L 3263 -1063 
z
" id="DejaVuSans-5f" transform="scale(0.015625)"/>
       <path d="M 2906 2969 
L 2906 4863 
L 3481 4863 
L 3481 0 
L 2906 0 
L 2906 525 
Q 2725 213 2448 61 
Q 2172 -91 1784 -91 
Q 1150 -91 751 415 
Q 353 922 353 1747 
Q 353 2572 751 3078 
Q 1150 3584 1784 3584 
Q 2172 3584 2448 3432 
Q 2725 3281 2906 2969 
z
M 947 1747 
Q 947 1113 1208 752 
Q 1469 391 1925 391 
Q 2381 391 2643 752 
Q 2906 1113 2906 1747 
Q 2906 2381 2643 2742 
Q 2381 3103 1925 3103 
Q 1469 3103 1208 2742 
Q 947 2381 947 1747 
z
" id="DejaVuSans-64" transform="scale(0.015625)"/>
       <path d="M 2194 1759 
Q 1497 1759 1228 1600 
Q 959 1441 959 1056 
Q 959 750 1161 570 
Q 1363 391 1709 391 
Q 2188 391 2477 730 
Q 2766 1069 2766 1631 
L 2766 1759 
L 2194 1759 
z
M 3341 1997 
L 3341 0 
L 2766 0 
L 2766 531 
Q 2569 213 2275 61 
Q 1981 -91 1556 -91 
Q 1019 -91 701 211 
Q 384 513 384 1019 
Q 384 1609 779 1909 
Q 1175 2209 1959 2209 
L 2766 2209 
L 2766 2266 
Q 2766 2663 2505 2880 
Q 2244 3097 1772 3097 
Q 1472 3097 1187 3025 
Q 903 2953 641 2809 
L 641 3341 
Q 956 3463 1253 3523 
Q 1550 3584 1831 3584 
Q 2591 3584 2966 3190 
Q 3341 2797 3341 1997 
z
" id="DejaVuSans-61" transform="scale(0.015625)"/>
       <path d="M 1172 4494 
L 1172 3500 
L 2356 3500 
L 2356 3053 
L 1172 3053 
L 1172 1153 
Q 1172 725 1289 603 
Q 1406 481 1766 481 
L 2356 481 
L 2356 0 
L 1766 0 
Q 1100 0 847 248 
Q 594 497 594 1153 
L 594 3053 
L 172 3053 
L 172 3500 
L 594 3500 
L 594 4494 
L 1172 4494 
z
" id="DejaVuSans-74" transform="scale(0.015625)"/>
       <path d="M 3597 1894 
L 3597 1613 
L 953 1613 
Q 991 1019 1311 708 
Q 1631 397 2203 397 
Q 2534 397 2845 478 
Q 3156 559 3463 722 
L 3463 178 
Q 3153 47 2828 -22 
Q 2503 -91 2169 -91 
Q 1331 -91 842 396 
Q 353 884 353 1716 
Q 353 2575 817 3079 
Q 1281 3584 2069 3584 
Q 2775 3584 3186 3129 
Q 3597 2675 3597 1894 
z
M 3022 2063 
Q 3016 2534 2758 2815 
Q 2500 3097 2075 3097 
Q 1594 3097 1305 2825 
Q 1016 2553 972 2059 
L 3022 2063 
z
" id="DejaVuSans-65" transform="scale(0.015625)"/>
      </defs>
      <use xlink:href="#DejaVuSans-5f"/>
      <use x="50" xlink:href="#DejaVuSans-64"/>
      <use x="113.476562" xlink:href="#DejaVuSans-61"/>
      <use x="174.755859" xlink:href="#DejaVuSans-74"/>
      <use x="213.964844" xlink:href="#DejaVuSans-65"/>
     </g>
    </g>
   </g>
   <g id="matplotlib.axis_2">
    <g id="ytick_1">
     <g id="line2d_6">
      <defs>
       <path d="M 0 0 
L -3.5 0 
" id="mc6d5dcbd96" style="stroke:#000000;stroke-width:0.8;"/>
      </defs>
      <g>
       <use style="stroke:#000000;stroke-width:0.8;" x="90" xlink:href="#mc6d5dcbd96" y="131.401558"/>
      </g>
     </g>
     <g id="text_7">
      <!-- 0 -->
      <g transform="translate(76.6375 135.200777)scale(0.1 -0.1)">
       <use xlink:href="#DejaVuSans-30"/>
      </g>
     </g>
    </g>
    <g id="ytick_2">
     <g id="line2d_7">
      <g>
       <use style="stroke:#000000;stroke-width:0.8;" x="90" xlink:href="#mc6d5dcbd96" y="100.232727"/>
      </g>
     </g>
     <g id="text_8">
      <!-- 50 -->
      <g transform="translate(70.275 104.031946)scale(0.1 -0.1)">
       <use xlink:href="#DejaVuSans-35"/>
       <use x="63.623047" xlink:href="#DejaVuSans-30"/>
      </g>
     </g>
    </g>
    <g id="ytick_3">
     <g id="line2d_8">
      <g>
       <use style="stroke:#000000;stroke-width:0.8;" x="90" xlink:href="#mc6d5dcbd96" y="69.063896"/>
      </g>
     </g>
     <g id="text_9">
      <!-- 100 -->
      <g transform="translate(63.9125 72.863115)scale(0.1 -0.1)">
       <use xlink:href="#DejaVuSans-31"/>
       <use x="63.623047" xlink:href="#DejaVuSans-30"/>
       <use x="127.246094" xlink:href="#DejaVuSans-30"/>
      </g>
     </g>
    </g>
    <g id="ytick_4">
     <g id="line2d_9">
      <g>
       <use style="stroke:#000000;stroke-width:0.8;" x="90" xlink:href="#mc6d5dcbd96" y="37.895065"/>
      </g>
     </g>
     <g id="text_10">
      <!-- 150 -->
      <g transform="translate(63.9125 41.694284)scale(0.1 -0.1)">
       <use xlink:href="#DejaVuSans-31"/>
       <use x="63.623047" xlink:href="#DejaVuSans-35"/>
       <use x="127.246094" xlink:href="#DejaVuSans-30"/>
      </g>
     </g>
    </g>
   </g>
   <g id="line2d_10">
    <path clip-path="url(#pdaf4acaa3e)" d="M 115.363636 127.661299 
L 117.67995 128.284675 
L 119.996264 130.778182 
L 122.312578 130.778182 
L 124.628892 129.531429 
L 126.945205 129.531429 
L 129.261519 120.804156 
L 131.577833 120.804156 
L 133.894147 130.778182 
L 136.210461 130.778182 
L 138.526775 124.544416 
L 140.843088 126.414545 
L 143.159402 130.778182 
L 145.475716 127.661299 
L 147.79203 128.908052 
L 150.108344 128.908052 
L 152.424658 130.778182 
L 157.057285 128.284675 
L 159.373599 130.154805 
L 161.689913 130.778182 
L 164.006227 130.154805 
L 166.32254 130.154805 
L 168.638854 129.531429 
L 170.955168 130.154805 
L 173.271482 130.154805 
L 175.587796 128.908052 
L 177.90411 130.154805 
L 180.220423 130.154805 
L 182.536737 122.674286 
L 184.853051 127.661299 
L 187.169365 130.154805 
L 189.485679 115.817143 
L 191.801993 130.778182 
L 210.332503 130.778182 
L 212.648817 130.154805 
L 214.965131 130.778182 
L 231.179328 130.778182 
L 233.495641 128.908052 
L 235.811955 129.531429 
L 238.128269 130.778182 
L 240.444583 129.531429 
L 242.760897 127.661299 
L 245.07721 130.154805 
L 247.393524 130.154805 
L 249.709838 128.908052 
L 252.026152 120.804156 
L 254.342466 130.154805 
L 256.65878 130.778182 
L 258.975093 130.154805 
L 261.291407 127.037922 
L 263.607721 130.154805 
L 265.924035 129.531429 
L 268.240349 125.167792 
L 270.556663 128.908052 
L 272.872976 127.037922 
L 275.18929 130.154805 
L 277.505604 129.531429 
L 279.821918 130.154805 
L 282.138232 129.531429 
L 286.770859 129.531429 
L 289.087173 128.284675 
L 291.403487 130.778182 
L 293.719801 130.778182 
L 296.036115 128.284675 
L 298.352428 128.284675 
L 300.668742 125.167792 
L 302.985056 129.531429 
L 305.30137 127.661299 
L 307.617684 130.778182 
L 309.933998 125.791169 
L 312.250311 128.908052 
L 314.566625 129.531429 
L 316.882939 128.908052 
L 319.199253 126.414545 
L 321.515567 130.154805 
L 323.83188 128.284675 
L 326.148194 121.427532 
L 328.464508 126.414545 
L 330.780822 120.804156 
L 333.097136 87.141818 
L 335.41345 127.661299 
L 337.729763 130.778182 
L 340.046077 128.908052 
L 342.362391 123.297662 
L 344.678705 124.544416 
L 346.995019 127.661299 
L 349.311333 119.557403 
L 351.627646 128.908052 
L 353.94396 128.908052 
L 356.260274 130.154805 
L 358.576588 122.674286 
L 360.892902 124.544416 
L 363.209215 130.778182 
L 365.525529 129.531429 
L 367.841843 130.778182 
L 370.158157 128.284675 
L 372.474471 120.180779 
L 374.790785 100.856104 
L 377.107098 100.232727 
L 379.423412 118.310649 
L 381.739726 121.427532 
L 384.05604 127.661299 
L 386.372354 130.778182 
L 388.688667 126.414545 
L 391.004981 128.908052 
L 393.321295 122.674286 
L 395.637609 122.050909 
L 397.953923 128.908052 
L 400.270237 123.297662 
L 402.58655 115.817143 
L 404.902864 122.674286 
L 407.219178 127.661299 
L 409.535492 115.817143 
L 411.851806 115.193766 
L 414.16812 115.193766 
L 416.484433 116.440519 
L 418.800747 92.128831 
L 421.117061 107.08987 
L 423.433375 109.583377 
L 425.749689 107.08987 
L 428.066002 107.713247 
L 430.382316 119.557403 
L 432.69863 110.206753 
L 435.014944 118.934026 
L 437.331258 129.531429 
L 439.647572 130.154805 
L 441.963885 116.440519 
L 444.280199 115.193766 
L 446.596513 114.57039 
L 448.912827 115.817143 
L 451.229141 111.453506 
L 453.545455 105.843117 
L 455.861768 128.284675 
L 458.178082 130.154805 
L 460.494396 116.440519 
L 462.81071 119.557403 
L 465.127024 117.687273 
L 467.443337 100.232727 
L 469.759651 115.817143 
L 472.075965 116.440519 
L 474.392279 130.154805 
L 476.708593 128.908052 
L 479.024907 114.57039 
L 481.34122 102.102857 
L 483.657534 102.726234 
L 485.973848 117.063896 
L 488.290162 113.323636 
L 490.606476 95.245714 
L 492.92279 117.063896 
L 495.239103 130.154805 
L 497.555417 114.57039 
L 499.871731 105.843117 
L 502.188045 107.713247 
L 504.504359 102.726234 
L 506.820672 108.96 
L 509.136986 111.453506 
L 511.4533 129.531429 
L 513.769614 115.193766 
L 516.085928 108.336623 
L 518.402242 110.206753 
L 520.718555 115.817143 
L 523.034869 115.193766 
L 525.351183 113.947013 
L 527.667497 125.791169 
L 529.983811 115.817143 
L 534.616438 113.323636 
L 536.932752 115.817143 
L 539.249066 116.440519 
L 541.56538 116.440519 
L 543.881694 130.778182 
L 546.198007 130.778182 
L 548.514321 115.193766 
L 550.830635 112.076883 
L 553.146949 115.193766 
L 555.463263 102.726234 
L 557.779577 105.843117 
L 560.09589 130.778182 
L 562.412204 115.817143 
L 564.728518 113.947013 
L 567.044832 113.323636 
L 569.361146 112.076883 
L 571.67746 117.063896 
L 573.993773 130.154805 
L 576.310087 115.193766 
L 578.626401 114.57039 
L 580.942715 110.83013 
L 583.259029 105.21974 
L 585.575342 104.596364 
L 587.891656 39.141818 
L 590.20797 86.518442 
L 592.524284 130.778182 
L 594.840598 120.180779 
L 597.156912 118.310649 
L 601.789539 117.063896 
L 604.105853 124.544416 
L 606.422167 130.778182 
L 608.738481 130.154805 
L 611.054795 123.297662 
L 613.371108 125.167792 
L 615.687422 130.154805 
L 618.003736 128.908052 
L 620.32005 130.154805 
L 622.636364 130.778182 
L 622.636364 130.778182 
" style="fill:none;stroke:#1f77b4;stroke-linecap:square;stroke-width:1.5;"/>
   </g>
   <g id="line2d_11">
    <path clip-path="url(#pdaf4acaa3e)" d="M 115.363636 127.661299 
L 117.67995 128.284675 
L 119.996264 130.778182 
L 122.312578 130.778182 
L 124.628892 129.531429 
L 126.945205 129.531429 
L 129.261519 130.154805 
L 131.577833 128.284675 
L 133.894147 130.778182 
L 136.210461 130.778182 
L 138.526775 124.544416 
L 140.843088 129.531429 
L 143.159402 130.778182 
L 145.475716 128.908052 
L 147.79203 128.908052 
L 150.108344 129.531429 
L 152.424658 130.778182 
L 154.740971 129.531429 
L 157.057285 128.908052 
L 159.373599 130.154805 
L 161.689913 130.778182 
L 164.006227 130.154805 
L 166.32254 130.778182 
L 168.638854 129.531429 
L 173.271482 130.778182 
L 175.587796 130.154805 
L 177.90411 130.778182 
L 180.220423 130.154805 
L 182.536737 125.791169 
L 184.853051 127.661299 
L 187.169365 130.154805 
L 189.485679 125.167792 
L 191.801993 130.778182 
L 210.332503 130.778182 
L 212.648817 130.154805 
L 214.965131 130.778182 
L 231.179328 130.778182 
L 233.495641 129.531429 
L 235.811955 130.778182 
L 238.128269 130.778182 
L 242.760897 129.531429 
L 245.07721 130.778182 
L 249.709838 130.778182 
L 252.026152 124.544416 
L 254.342466 130.778182 
L 256.65878 130.778182 
L 258.975093 130.154805 
L 261.291407 128.908052 
L 263.607721 130.154805 
L 265.924035 129.531429 
L 268.240349 127.037922 
L 270.556663 129.531429 
L 272.872976 130.778182 
L 275.18929 130.154805 
L 277.505604 130.778182 
L 279.821918 130.154805 
L 282.138232 130.778182 
L 284.454545 129.531429 
L 289.087173 129.531429 
L 291.403487 130.778182 
L 293.719801 130.778182 
L 300.668742 127.037922 
L 302.985056 129.531429 
L 305.30137 128.284675 
L 307.617684 130.778182 
L 309.933998 127.037922 
L 312.250311 128.908052 
L 314.566625 129.531429 
L 316.882939 128.908052 
L 319.199253 126.414545 
L 321.515567 130.154805 
L 323.83188 128.284675 
L 326.148194 124.544416 
L 328.464508 127.037922 
L 330.780822 123.297662 
L 333.097136 108.96 
L 335.41345 127.661299 
L 337.729763 130.778182 
L 340.046077 129.531429 
L 342.362391 123.921039 
L 346.995019 127.661299 
L 349.311333 122.050909 
L 351.627646 128.908052 
L 353.94396 128.908052 
L 356.260274 130.154805 
L 358.576588 124.544416 
L 360.892902 124.544416 
L 363.209215 130.778182 
L 365.525529 129.531429 
L 367.841843 130.778182 
L 370.158157 128.908052 
L 372.474471 121.427532 
L 374.790785 116.440519 
L 377.107098 116.440519 
L 379.423412 122.674286 
L 381.739726 124.544416 
L 384.05604 128.284675 
L 386.372354 130.778182 
L 388.688667 127.661299 
L 391.004981 130.154805 
L 393.321295 123.921039 
L 395.637609 123.921039 
L 397.953923 129.531429 
L 400.270237 123.921039 
L 402.58655 120.180779 
L 404.902864 123.297662 
L 407.219178 128.284675 
L 409.535492 120.804156 
L 411.851806 120.804156 
L 414.16812 125.167792 
L 416.484433 130.154805 
L 418.800747 121.427532 
L 421.117061 128.908052 
L 423.433375 129.531429 
L 425.749689 125.791169 
L 428.066002 125.791169 
L 430.382316 121.427532 
L 432.69863 125.167792 
L 435.014944 130.778182 
L 437.331258 130.154805 
L 439.647572 130.154805 
L 441.963885 130.778182 
L 444.280199 129.531429 
L 446.596513 128.908052 
L 448.912827 129.531429 
L 453.545455 120.804156 
L 455.861768 128.284675 
L 458.178082 130.154805 
L 460.494396 130.778182 
L 462.81071 130.778182 
L 465.127024 128.908052 
L 467.443337 117.687273 
L 469.759651 130.778182 
L 472.075965 129.531429 
L 474.392279 130.154805 
L 479.024907 130.154805 
L 481.34122 118.934026 
L 483.657534 118.934026 
L 485.973848 128.908052 
L 488.290162 127.037922 
L 490.606476 115.817143 
L 492.92279 120.180779 
L 495.239103 130.154805 
L 497.555417 130.778182 
L 499.871731 125.791169 
L 504.504359 129.531429 
L 506.820672 128.908052 
L 509.136986 130.154805 
L 511.4533 130.154805 
L 513.769614 130.778182 
L 516.085928 123.921039 
L 518.402242 125.167792 
L 520.718555 130.778182 
L 523.034869 130.154805 
L 525.351183 128.908052 
L 527.667497 127.037922 
L 529.983811 130.778182 
L 532.300125 130.154805 
L 534.616438 128.908052 
L 536.932752 130.778182 
L 539.249066 129.531429 
L 541.56538 129.531429 
L 543.881694 130.778182 
L 548.514321 130.778182 
L 550.830635 127.661299 
L 553.146949 130.778182 
L 555.463263 128.908052 
L 557.779577 125.791169 
L 560.09589 130.778182 
L 562.412204 130.778182 
L 564.728518 130.154805 
L 567.044832 128.908052 
L 573.993773 130.778182 
L 576.310087 130.778182 
L 578.626401 130.154805 
L 580.942715 126.414545 
L 583.259029 126.414545 
L 585.575342 127.661299 
L 587.891656 130.778182 
L 590.20797 121.427532 
L 592.524284 130.778182 
L 594.840598 130.778182 
L 597.156912 130.154805 
L 599.473225 127.037922 
L 604.105853 125.791169 
L 606.422167 130.778182 
L 608.738481 130.154805 
L 611.054795 123.297662 
L 613.371108 126.414545 
L 615.687422 130.154805 
L 618.003736 128.908052 
L 620.32005 130.778182 
L 622.636364 130.778182 
L 622.636364 130.778182 
" style="fill:none;stroke:#ff7f0e;stroke-linecap:square;stroke-width:1.5;"/>
   </g>
   <g id="patch_3">
    <path d="M 90 135.36 
L 90 34.56 
" style="fill:none;stroke:#000000;stroke-linecap:square;stroke-linejoin:miter;stroke-width:0.8;"/>
   </g>
   <g id="patch_4">
    <path d="M 648 135.36 
L 648 34.56 
" style="fill:none;stroke:#000000;stroke-linecap:square;stroke-linejoin:miter;stroke-width:0.8;"/>
   </g>
   <g id="patch_5">
    <path d="M 90 135.36 
L 648 135.36 
" style="fill:none;stroke:#000000;stroke-linecap:square;stroke-linejoin:miter;stroke-width:0.8;"/>
   </g>
   <g id="patch_6">
    <path d="M 90 34.56 
L 648 34.56 
" style="fill:none;stroke:#000000;stroke-linecap:square;stroke-linejoin:miter;stroke-width:0.8;"/>
   </g>
   <g id="legend_1">
    <g id="patch_7">
     <path d="M 97 71.91625 
L 238.8625 71.91625 
Q 240.8625 71.91625 240.8625 69.91625 
L 240.8625 41.56 
Q 240.8625 39.56 238.8625 39.56 
L 97 39.56 
Q 95 39.56 95 41.56 
L 95 69.91625 
Q 95 71.91625 97 71.91625 
z
" style="fill:#ffffff;opacity:0.8;stroke:#cccccc;stroke-linejoin:miter;"/>
    </g>
    <g id="line2d_12">
     <path d="M 99 47.658437 
L 119 47.658437 
" style="fill:none;stroke:#1f77b4;stroke-linecap:square;stroke-width:1.5;"/>
    </g>
    <g id="line2d_13"/>
    <g id="text_11">
     <!-- Total GitHub Clones -->
     <g transform="translate(127 51.158437)scale(0.1 -0.1)">
      <defs>
       <path d="M -19 4666 
L 3928 4666 
L 3928 4134 
L 2272 4134 
L 2272 0 
L 1638 0 
L 1638 4134 
L -19 4134 
L -19 4666 
z
" id="DejaVuSans-54" transform="scale(0.015625)"/>
       <path d="M 1959 3097 
Q 1497 3097 1228 2736 
Q 959 2375 959 1747 
Q 959 1119 1226 758 
Q 1494 397 1959 397 
Q 2419 397 2687 759 
Q 2956 1122 2956 1747 
Q 2956 2369 2687 2733 
Q 2419 3097 1959 3097 
z
M 1959 3584 
Q 2709 3584 3137 3096 
Q 3566 2609 3566 1747 
Q 3566 888 3137 398 
Q 2709 -91 1959 -91 
Q 1206 -91 779 398 
Q 353 888 353 1747 
Q 353 2609 779 3096 
Q 1206 3584 1959 3584 
z
" id="DejaVuSans-6f" transform="scale(0.015625)"/>
       <path d="M 603 4863 
L 1178 4863 
L 1178 0 
L 603 0 
L 603 4863 
z
" id="DejaVuSans-6c" transform="scale(0.015625)"/>
       <path id="DejaVuSans-20" transform="scale(0.015625)"/>
       <path d="M 3809 666 
L 3809 1919 
L 2778 1919 
L 2778 2438 
L 4434 2438 
L 4434 434 
Q 4069 175 3628 42 
Q 3188 -91 2688 -91 
Q 1594 -91 976 548 
Q 359 1188 359 2328 
Q 359 3472 976 4111 
Q 1594 4750 2688 4750 
Q 3144 4750 3555 4637 
Q 3966 4525 4313 4306 
L 4313 3634 
Q 3963 3931 3569 4081 
Q 3175 4231 2741 4231 
Q 1884 4231 1454 3753 
Q 1025 3275 1025 2328 
Q 1025 1384 1454 906 
Q 1884 428 2741 428 
Q 3075 428 3337 486 
Q 3600 544 3809 666 
z
" id="DejaVuSans-47" transform="scale(0.015625)"/>
       <path d="M 603 3500 
L 1178 3500 
L 1178 0 
L 603 0 
L 603 3500 
z
M 603 4863 
L 1178 4863 
L 1178 4134 
L 603 4134 
L 603 4863 
z
" id="DejaVuSans-69" transform="scale(0.015625)"/>
       <path d="M 628 4666 
L 1259 4666 
L 1259 2753 
L 3553 2753 
L 3553 4666 
L 4184 4666 
L 4184 0 
L 3553 0 
L 3553 2222 
L 1259 2222 
L 1259 0 
L 628 0 
L 628 4666 
z
" id="DejaVuSans-48" transform="scale(0.015625)"/>
       <path d="M 544 1381 
L 544 3500 
L 1119 3500 
L 1119 1403 
Q 1119 906 1312 657 
Q 1506 409 1894 409 
Q 2359 409 2629 706 
Q 2900 1003 2900 1516 
L 2900 3500 
L 3475 3500 
L 3475 0 
L 2900 0 
L 2900 538 
Q 2691 219 2414 64 
Q 2138 -91 1772 -91 
Q 1169 -91 856 284 
Q 544 659 544 1381 
z
M 1991 3584 
L 1991 3584 
z
" id="DejaVuSans-75" transform="scale(0.015625)"/>
       <path d="M 3116 1747 
Q 3116 2381 2855 2742 
Q 2594 3103 2138 3103 
Q 1681 3103 1420 2742 
Q 1159 2381 1159 1747 
Q 1159 1113 1420 752 
Q 1681 391 2138 391 
Q 2594 391 2855 752 
Q 3116 1113 3116 1747 
z
M 1159 2969 
Q 1341 3281 1617 3432 
Q 1894 3584 2278 3584 
Q 2916 3584 3314 3078 
Q 3713 2572 3713 1747 
Q 3713 922 3314 415 
Q 2916 -91 2278 -91 
Q 1894 -91 1617 61 
Q 1341 213 1159 525 
L 1159 0 
L 581 0 
L 581 4863 
L 1159 4863 
L 1159 2969 
z
" id="DejaVuSans-62" transform="scale(0.015625)"/>
       <path d="M 4122 4306 
L 4122 3641 
Q 3803 3938 3442 4084 
Q 3081 4231 2675 4231 
Q 1875 4231 1450 3742 
Q 1025 3253 1025 2328 
Q 1025 1406 1450 917 
Q 1875 428 2675 428 
Q 3081 428 3442 575 
Q 3803 722 4122 1019 
L 4122 359 
Q 3791 134 3420 21 
Q 3050 -91 2638 -91 
Q 1578 -91 968 557 
Q 359 1206 359 2328 
Q 359 3453 968 4101 
Q 1578 4750 2638 4750 
Q 3056 4750 3426 4639 
Q 3797 4528 4122 4306 
z
" id="DejaVuSans-43" transform="scale(0.015625)"/>
       <path d="M 3513 2113 
L 3513 0 
L 2938 0 
L 2938 2094 
Q 2938 2591 2744 2837 
Q 2550 3084 2163 3084 
Q 1697 3084 1428 2787 
Q 1159 2491 1159 1978 
L 1159 0 
L 581 0 
L 581 3500 
L 1159 3500 
L 1159 2956 
Q 1366 3272 1645 3428 
Q 1925 3584 2291 3584 
Q 2894 3584 3203 3211 
Q 3513 2838 3513 2113 
z
" id="DejaVuSans-6e" transform="scale(0.015625)"/>
       <path d="M 2834 3397 
L 2834 2853 
Q 2591 2978 2328 3040 
Q 2066 3103 1784 3103 
Q 1356 3103 1142 2972 
Q 928 2841 928 2578 
Q 928 2378 1081 2264 
Q 1234 2150 1697 2047 
L 1894 2003 
Q 2506 1872 2764 1633 
Q 3022 1394 3022 966 
Q 3022 478 2636 193 
Q 2250 -91 1575 -91 
Q 1294 -91 989 -36 
Q 684 19 347 128 
L 347 722 
Q 666 556 975 473 
Q 1284 391 1588 391 
Q 1994 391 2212 530 
Q 2431 669 2431 922 
Q 2431 1156 2273 1281 
Q 2116 1406 1581 1522 
L 1381 1569 
Q 847 1681 609 1914 
Q 372 2147 372 2553 
Q 372 3047 722 3315 
Q 1072 3584 1716 3584 
Q 2034 3584 2315 3537 
Q 2597 3491 2834 3397 
z
" id="DejaVuSans-73" transform="scale(0.015625)"/>
      </defs>
      <use xlink:href="#DejaVuSans-54"/>
      <use x="44.083984" xlink:href="#DejaVuSans-6f"/>
      <use x="105.265625" xlink:href="#DejaVuSans-74"/>
      <use x="144.474609" xlink:href="#DejaVuSans-61"/>
      <use x="205.753906" xlink:href="#DejaVuSans-6c"/>
      <use x="233.537109" xlink:href="#DejaVuSans-20"/>
      <use x="265.324219" xlink:href="#DejaVuSans-47"/>
      <use x="342.814453" xlink:href="#DejaVuSans-69"/>
      <use x="370.597656" xlink:href="#DejaVuSans-74"/>
      <use x="409.806641" xlink:href="#DejaVuSans-48"/>
      <use x="485.001953" xlink:href="#DejaVuSans-75"/>
      <use x="548.380859" xlink:href="#DejaVuSans-62"/>
      <use x="611.857422" xlink:href="#DejaVuSans-20"/>
      <use x="643.644531" xlink:href="#DejaVuSans-43"/>
      <use x="713.46875" xlink:href="#DejaVuSans-6c"/>
      <use x="741.251953" xlink:href="#DejaVuSans-6f"/>
      <use x="802.433594" xlink:href="#DejaVuSans-6e"/>
      <use x="865.8125" xlink:href="#DejaVuSans-65"/>
      <use x="927.335938" xlink:href="#DejaVuSans-73"/>
     </g>
    </g>
    <g id="line2d_14">
     <path d="M 99 62.336562 
L 119 62.336562 
" style="fill:none;stroke:#ff7f0e;stroke-linecap:square;stroke-width:1.5;"/>
    </g>
    <g id="line2d_15"/>
    <g id="text_12">
     <!-- Unique GitHub Clones -->
     <g transform="translate(127 65.836562)scale(0.1 -0.1)">
      <defs>
       <path d="M 556 4666 
L 1191 4666 
L 1191 1831 
Q 1191 1081 1462 751 
Q 1734 422 2344 422 
Q 2950 422 3222 751 
Q 3494 1081 3494 1831 
L 3494 4666 
L 4128 4666 
L 4128 1753 
Q 4128 841 3676 375 
Q 3225 -91 2344 -91 
Q 1459 -91 1007 375 
Q 556 841 556 1753 
L 556 4666 
z
" id="DejaVuSans-55" transform="scale(0.015625)"/>
       <path d="M 947 1747 
Q 947 1113 1208 752 
Q 1469 391 1925 391 
Q 2381 391 2643 752 
Q 2906 1113 2906 1747 
Q 2906 2381 2643 2742 
Q 2381 3103 1925 3103 
Q 1469 3103 1208 2742 
Q 947 2381 947 1747 
z
M 2906 525 
Q 2725 213 2448 61 
Q 2172 -91 1784 -91 
Q 1150 -91 751 415 
Q 353 922 353 1747 
Q 353 2572 751 3078 
Q 1150 3584 1784 3584 
Q 2172 3584 2448 3432 
Q 2725 3281 2906 2969 
L 2906 3500 
L 3481 3500 
L 3481 -1331 
L 2906 -1331 
L 2906 525 
z
" id="DejaVuSans-71" transform="scale(0.015625)"/>
      </defs>
      <use xlink:href="#DejaVuSans-55"/>
      <use x="73.193359" xlink:href="#DejaVuSans-6e"/>
      <use x="136.572266" xlink:href="#DejaVuSans-69"/>
      <use x="164.355469" xlink:href="#DejaVuSans-71"/>
      <use x="227.832031" xlink:href="#DejaVuSans-75"/>
      <use x="291.210938" xlink:href="#DejaVuSans-65"/>
      <use x="352.734375" xlink:href="#DejaVuSans-20"/>
      <use x="384.521484" xlink:href="#DejaVuSans-47"/>
      <use x="462.011719" xlink:href="#DejaVuSans-69"/>
      <use x="489.794922" xlink:href="#DejaVuSans-74"/>
      <use x="529.003906" xlink:href="#DejaVuSans-48"/>
      <use x="604.199219" xlink:href="#DejaVuSans-75"/>
      <use x="667.578125" xlink:href="#DejaVuSans-62"/>
      <use x="731.054688" xlink:href="#DejaVuSans-20"/>
      <use x="762.841797" xlink:href="#DejaVuSans-43"/>
      <use x="832.666016" xlink:href="#DejaVuSans-6c"/>
      <use x="860.449219" xlink:href="#DejaVuSans-6f"/>
      <use x="921.630859" xlink:href="#DejaVuSans-6e"/>
      <use x="985.009766" xlink:href="#DejaVuSans-65"/>
      <use x="1046.533203" xlink:href="#DejaVuSans-73"/>
     </g>
    </g>
   </g>
  </g>
  <g id="axes_2">
   <g id="patch_8">
    <path d="M 90 256.32 
L 648 256.32 
L 648 155.52 
L 90 155.52 
z
" style="fill:#ffffff;"/>
   </g>
   <g id="matplotlib.axis_3">
    <g id="xtick_6">
     <g id="line2d_16">
      <g>
       <use style="stroke:#000000;stroke-width:0.8;" x="115.363636" xlink:href="#mfccde7856c" y="256.32"/>
      </g>
     </g>
     <g id="text_13">
      <!-- 2020-10-21 -->
      <g transform="translate(86.305824 270.918437)scale(0.1 -0.1)">
       <use xlink:href="#DejaVuSans-32"/>
       <use x="63.623047" xlink:href="#DejaVuSans-30"/>
       <use x="127.246094" xlink:href="#DejaVuSans-32"/>
       <use x="190.869141" xlink:href="#DejaVuSans-30"/>
       <use x="254.492188" xlink:href="#DejaVuSans-2d"/>
       <use x="290.576172" xlink:href="#DejaVuSans-31"/>
       <use x="354.199219" xlink:href="#DejaVuSans-30"/>
       <use x="417.822266" xlink:href="#DejaVuSans-2d"/>
       <use x="453.90625" xlink:href="#DejaVuSans-32"/>
       <use x="517.529297" xlink:href="#DejaVuSans-31"/>
      </g>
     </g>
    </g>
    <g id="xtick_7">
     <g id="line2d_17">
      <g>
       <use style="stroke:#000000;stroke-width:0.8;" x="211.438017" xlink:href="#mfccde7856c" y="256.32"/>
      </g>
     </g>
     <g id="text_14">
      <!-- 2020-12-11 -->
      <g transform="translate(182.380204 270.918437)scale(0.1 -0.1)">
       <use xlink:href="#DejaVuSans-32"/>
       <use x="63.623047" xlink:href="#DejaVuSans-30"/>
       <use x="127.246094" xlink:href="#DejaVuSans-32"/>
       <use x="190.869141" xlink:href="#DejaVuSans-30"/>
       <use x="254.492188" xlink:href="#DejaVuSans-2d"/>
       <use x="290.576172" xlink:href="#DejaVuSans-31"/>
       <use x="354.199219" xlink:href="#DejaVuSans-32"/>
       <use x="417.822266" xlink:href="#DejaVuSans-2d"/>
       <use x="453.90625" xlink:href="#DejaVuSans-31"/>
       <use x="517.529297" xlink:href="#DejaVuSans-31"/>
      </g>
     </g>
    </g>
    <g id="xtick_8">
     <g id="line2d_18">
      <g>
       <use style="stroke:#000000;stroke-width:0.8;" x="307.512397" xlink:href="#mfccde7856c" y="256.32"/>
      </g>
     </g>
     <g id="text_15">
      <!-- 2021-01-31 -->
      <g transform="translate(278.454584 270.918437)scale(0.1 -0.1)">
       <use xlink:href="#DejaVuSans-32"/>
       <use x="63.623047" xlink:href="#DejaVuSans-30"/>
       <use x="127.246094" xlink:href="#DejaVuSans-32"/>
       <use x="190.869141" xlink:href="#DejaVuSans-31"/>
       <use x="254.492188" xlink:href="#DejaVuSans-2d"/>
       <use x="290.576172" xlink:href="#DejaVuSans-30"/>
       <use x="354.199219" xlink:href="#DejaVuSans-31"/>
       <use x="417.822266" xlink:href="#DejaVuSans-2d"/>
       <use x="453.90625" xlink:href="#DejaVuSans-33"/>
       <use x="517.529297" xlink:href="#DejaVuSans-31"/>
      </g>
     </g>
    </g>
    <g id="xtick_9">
     <g id="line2d_19">
      <g>
       <use style="stroke:#000000;stroke-width:0.8;" x="403.586777" xlink:href="#mfccde7856c" y="256.32"/>
      </g>
     </g>
     <g id="text_16">
      <!-- 2021-03-22 -->
      <g transform="translate(374.528964 270.918437)scale(0.1 -0.1)">
       <use xlink:href="#DejaVuSans-32"/>
       <use x="63.623047" xlink:href="#DejaVuSans-30"/>
       <use x="127.246094" xlink:href="#DejaVuSans-32"/>
       <use x="190.869141" xlink:href="#DejaVuSans-31"/>
       <use x="254.492188" xlink:href="#DejaVuSans-2d"/>
       <use x="290.576172" xlink:href="#DejaVuSans-30"/>
       <use x="354.199219" xlink:href="#DejaVuSans-33"/>
       <use x="417.822266" xlink:href="#DejaVuSans-2d"/>
       <use x="453.90625" xlink:href="#DejaVuSans-32"/>
       <use x="517.529297" xlink:href="#DejaVuSans-32"/>
      </g>
     </g>
    </g>
    <g id="xtick_10">
     <g id="line2d_20">
      <g>
       <use style="stroke:#000000;stroke-width:0.8;" x="499.661157" xlink:href="#mfccde7856c" y="256.32"/>
      </g>
     </g>
     <g id="text_17">
      <!-- 2021-05-08 -->
      <g transform="translate(470.603345 270.918437)scale(0.1 -0.1)">
       <defs>
        <path d="M 2034 2216 
Q 1584 2216 1326 1975 
Q 1069 1734 1069 1313 
Q 1069 891 1326 650 
Q 1584 409 2034 409 
Q 2484 409 2743 651 
Q 3003 894 3003 1313 
Q 3003 1734 2745 1975 
Q 2488 2216 2034 2216 
z
M 1403 2484 
Q 997 2584 770 2862 
Q 544 3141 544 3541 
Q 544 4100 942 4425 
Q 1341 4750 2034 4750 
Q 2731 4750 3128 4425 
Q 3525 4100 3525 3541 
Q 3525 3141 3298 2862 
Q 3072 2584 2669 2484 
Q 3125 2378 3379 2068 
Q 3634 1759 3634 1313 
Q 3634 634 3220 271 
Q 2806 -91 2034 -91 
Q 1263 -91 848 271 
Q 434 634 434 1313 
Q 434 1759 690 2068 
Q 947 2378 1403 2484 
z
M 1172 3481 
Q 1172 3119 1398 2916 
Q 1625 2713 2034 2713 
Q 2441 2713 2670 2916 
Q 2900 3119 2900 3481 
Q 2900 3844 2670 4047 
Q 2441 4250 2034 4250 
Q 1625 4250 1398 4047 
Q 1172 3844 1172 3481 
z
" id="DejaVuSans-38" transform="scale(0.015625)"/>
       </defs>
       <use xlink:href="#DejaVuSans-32"/>
       <use x="63.623047" xlink:href="#DejaVuSans-30"/>
       <use x="127.246094" xlink:href="#DejaVuSans-32"/>
       <use x="190.869141" xlink:href="#DejaVuSans-31"/>
       <use x="254.492188" xlink:href="#DejaVuSans-2d"/>
       <use x="290.576172" xlink:href="#DejaVuSans-30"/>
       <use x="354.199219" xlink:href="#DejaVuSans-35"/>
       <use x="417.822266" xlink:href="#DejaVuSans-2d"/>
       <use x="453.90625" xlink:href="#DejaVuSans-30"/>
       <use x="517.529297" xlink:href="#DejaVuSans-38"/>
      </g>
     </g>
    </g>
    <g id="xtick_11">
     <g id="line2d_21">
      <g>
       <use style="stroke:#000000;stroke-width:0.8;" x="595.735537" xlink:href="#mfccde7856c" y="256.32"/>
      </g>
     </g>
     <g id="text_18">
      <!-- 2021-06-27 -->
      <g transform="translate(566.677725 270.918437)scale(0.1 -0.1)">
       <use xlink:href="#DejaVuSans-32"/>
       <use x="63.623047" xlink:href="#DejaVuSans-30"/>
       <use x="127.246094" xlink:href="#DejaVuSans-32"/>
       <use x="190.869141" xlink:href="#DejaVuSans-31"/>
       <use x="254.492188" xlink:href="#DejaVuSans-2d"/>
       <use x="290.576172" xlink:href="#DejaVuSans-30"/>
       <use x="354.199219" xlink:href="#DejaVuSans-36"/>
       <use x="417.822266" xlink:href="#DejaVuSans-2d"/>
       <use x="453.90625" xlink:href="#DejaVuSans-32"/>
       <use x="517.529297" xlink:href="#DejaVuSans-37"/>
      </g>
     </g>
    </g>
    <g id="text_19">
     <!-- _date -->
     <g transform="translate(355.225 284.596563)scale(0.1 -0.1)">
      <use xlink:href="#DejaVuSans-5f"/>
      <use x="50" xlink:href="#DejaVuSans-64"/>
      <use x="113.476562" xlink:href="#DejaVuSans-61"/>
      <use x="174.755859" xlink:href="#DejaVuSans-74"/>
      <use x="213.964844" xlink:href="#DejaVuSans-65"/>
     </g>
    </g>
   </g>
   <g id="matplotlib.axis_4">
    <g id="ytick_5">
     <g id="line2d_22">
      <g>
       <use style="stroke:#000000;stroke-width:0.8;" x="90" xlink:href="#mc6d5dcbd96" y="252.029091"/>
      </g>
     </g>
     <g id="text_20">
      <!-- 0 -->
      <g transform="translate(76.6375 255.82831)scale(0.1 -0.1)">
       <use xlink:href="#DejaVuSans-30"/>
      </g>
     </g>
    </g>
    <g id="ytick_6">
     <g id="line2d_23">
      <g>
       <use style="stroke:#000000;stroke-width:0.8;" x="90" xlink:href="#mc6d5dcbd96" y="222.938182"/>
      </g>
     </g>
     <g id="text_21">
      <!-- 100 -->
      <g transform="translate(63.9125 226.737401)scale(0.1 -0.1)">
       <use xlink:href="#DejaVuSans-31"/>
       <use x="63.623047" xlink:href="#DejaVuSans-30"/>
       <use x="127.246094" xlink:href="#DejaVuSans-30"/>
      </g>
     </g>
    </g>
    <g id="ytick_7">
     <g id="line2d_24">
      <g>
       <use style="stroke:#000000;stroke-width:0.8;" x="90" xlink:href="#mc6d5dcbd96" y="193.847273"/>
      </g>
     </g>
     <g id="text_22">
      <!-- 200 -->
      <g transform="translate(63.9125 197.646491)scale(0.1 -0.1)">
       <use xlink:href="#DejaVuSans-32"/>
       <use x="63.623047" xlink:href="#DejaVuSans-30"/>
       <use x="127.246094" xlink:href="#DejaVuSans-30"/>
      </g>
     </g>
    </g>
    <g id="ytick_8">
     <g id="line2d_25">
      <g>
       <use style="stroke:#000000;stroke-width:0.8;" x="90" xlink:href="#mc6d5dcbd96" y="164.756364"/>
      </g>
     </g>
     <g id="text_23">
      <!-- 300 -->
      <g transform="translate(63.9125 168.555582)scale(0.1 -0.1)">
       <use xlink:href="#DejaVuSans-33"/>
       <use x="63.623047" xlink:href="#DejaVuSans-30"/>
       <use x="127.246094" xlink:href="#DejaVuSans-30"/>
      </g>
     </g>
    </g>
   </g>
   <g id="line2d_26">
    <path clip-path="url(#p4caccbccaf)" d="M 115.363636 251.738182 
L 117.285124 230.210909 
L 119.206612 227.592727 
L 121.128099 244.174545 
L 123.049587 251.447273 
L 124.971074 238.356364 
L 126.892562 238.065455 
L 128.81405 233.992727 
L 130.735537 238.065455 
L 132.657025 238.938182 
L 134.578512 250.574545 
L 136.5 248.247273 
L 138.421488 247.374545 
L 140.342975 238.938182 
L 142.264463 210.429091 
L 144.18595 225.265455 
L 146.107438 243.592727 
L 148.028926 247.083636 
L 149.950413 251.156364 
L 151.871901 238.065455 
L 153.793388 223.52 
L 155.714876 245.629091 
L 157.636364 243.010909 
L 159.557851 236.32 
L 161.479339 236.32 
L 163.400826 249.701818 
L 165.322314 236.610909 
L 167.243802 232.829091 
L 169.165289 243.301818 
L 171.086777 243.301818 
L 173.008264 238.356364 
L 174.929752 246.792727 
L 176.85124 249.12 
L 178.772727 225.556364 
L 180.694215 248.829091 
L 182.615702 247.956364 
L 184.53719 249.701818 
L 186.458678 247.665455 
L 188.380165 251.447273 
L 190.301653 251.447273 
L 192.22314 227.301818 
L 194.144628 214.210909 
L 196.066116 243.592727 
L 197.987603 245.047273 
L 199.909091 225.847273 
L 201.830579 250.865455 
L 203.752066 244.756364 
L 205.673554 241.265455 
L 207.595041 245.92 
L 209.516529 235.738182 
L 211.438017 246.792727 
L 213.359504 250.865455 
L 215.280992 251.738182 
L 217.202479 243.592727 
L 219.123967 241.847273 
L 221.045455 242.138182 
L 222.966942 240.683636 
L 224.88843 248.829091 
L 226.809917 250.865455 
L 228.731405 250.574545 
L 230.652893 247.083636 
L 232.57438 247.665455 
L 234.495868 242.429091 
L 236.417355 249.992727 
L 238.338843 251.156364 
L 240.260331 251.447273 
L 242.181818 248.247273 
L 244.103306 249.410909 
L 246.024793 250.283636 
L 247.946281 251.738182 
L 249.867769 247.083636 
L 251.789256 247.374545 
L 253.710744 250.865455 
L 255.632231 246.210909 
L 257.553719 242.429091 
L 259.475207 239.810909 
L 261.396694 247.665455 
L 263.318182 248.829091 
L 265.239669 231.956364 
L 267.161157 250.283636 
L 269.082645 233.701818 
L 271.004132 235.447273 
L 272.92562 239.810909 
L 274.847107 233.12 
L 276.768595 246.792727 
L 278.690083 234.574545 
L 280.61157 251.156364 
L 282.533058 233.410909 
L 284.454545 234.865455 
L 286.376033 226.138182 
L 288.297521 232.247273 
L 290.219008 239.810909 
L 292.140496 242.72 
L 294.061983 248.247273 
L 295.983471 228.465455 
L 297.904959 223.810909 
L 299.826446 236.029091 
L 301.747934 234.574545 
L 303.669421 231.956364 
L 305.590909 247.374545 
L 307.512397 248.538182 
L 309.433884 229.629091 
L 311.355372 246.792727 
L 315.198347 232.829091 
L 319.041322 250.865455 
L 320.96281 247.665455 
L 322.884298 235.156364 
L 324.805785 234.574545 
L 326.727273 224.683636 
L 328.64876 241.847273 
L 330.570248 250.283636 
L 332.491736 250.574545 
L 334.413223 249.12 
L 336.334711 242.429091 
L 338.256198 242.72 
L 340.177686 246.792727 
L 342.099174 230.501818 
L 344.020661 248.247273 
L 345.942149 241.847273 
L 347.863636 238.938182 
L 349.785124 240.683636 
L 351.706612 224.974545 
L 353.628099 235.447273 
L 355.549587 234.574545 
L 357.471074 239.810909 
L 359.392562 238.065455 
L 361.31405 239.229091 
L 363.235537 181.92 
L 365.157025 245.629091 
L 367.078512 230.501818 
L 369 234.283636 
L 370.921488 226.429091 
L 372.842975 241.556364 
L 374.764463 198.792727 
L 376.68595 197.047273 
L 378.607438 203.156364 
L 380.528926 228.756364 
L 382.450413 172.029091 
L 384.371901 222.938182 
L 386.293388 245.92 
L 388.214876 245.047273 
L 390.136364 237.192727 
L 392.057851 230.792727 
L 393.979339 227.301818 
L 395.900826 234.283636 
L 397.822314 223.229091 
L 399.743802 243.592727 
L 401.665289 245.629091 
L 403.586777 204.610909 
L 405.508264 204.32 
L 407.429752 232.247273 
L 409.35124 233.992727 
L 411.272727 246.210909 
L 413.194215 248.538182 
L 415.115702 247.956364 
L 417.03719 232.538182 
L 418.958678 182.501818 
L 420.880165 221.192727 
L 422.801653 229.338182 
L 424.72314 233.992727 
L 426.644628 213.338182 
L 428.566116 244.174545 
L 430.487603 248.247273 
L 432.409091 244.756364 
L 434.330579 221.192727 
L 436.252066 238.356364 
L 438.173554 222.647273 
L 440.095041 199.083636 
L 442.016529 233.410909 
L 443.938017 240.974545 
L 445.859504 245.92 
L 447.780992 175.229091 
L 449.702479 174.356364 
L 451.623967 227.010909 
L 453.545455 243.301818 
L 455.466942 234.865455 
L 457.38843 236.32 
L 459.309917 248.829091 
L 461.231405 246.792727 
L 463.152893 185.992727 
L 465.07438 179.010909 
L 466.995868 197.047273 
L 468.917355 242.72 
L 470.838843 249.12 
L 472.760331 236.32 
L 474.681818 247.374545 
L 476.603306 236.029091 
L 478.524793 223.810909 
L 480.446281 160.101818 
L 482.367769 221.483636 
L 484.289256 220.610909 
L 486.210744 225.556364 
L 488.132231 245.338182 
L 490.053719 246.210909 
L 491.975207 219.447273 
L 493.896694 235.738182 
L 495.818182 235.447273 
L 497.739669 225.847273 
L 499.661157 243.010909 
L 501.582645 249.12 
L 503.504132 196.756364 
L 505.42562 236.901818 
L 507.347107 211.883636 
L 509.268595 205.483636 
L 511.190083 212.465455 
L 513.11157 249.701818 
L 515.033058 249.701818 
L 516.954545 221.774545 
L 518.876033 232.538182 
L 520.797521 231.956364 
L 522.719008 238.647273 
L 524.640496 242.429091 
L 526.561983 248.247273 
L 528.483471 245.92 
L 530.404959 225.265455 
L 532.326446 243.883636 
L 534.247934 240.101818 
L 536.169421 231.665455 
L 538.090909 238.356364 
L 540.012397 249.701818 
L 541.933884 249.701818 
L 543.855372 242.72 
L 545.77686 239.810909 
L 547.698347 246.210909 
L 549.619835 240.974545 
L 551.541322 243.301818 
L 553.46281 249.12 
L 555.384298 247.374545 
L 557.305785 230.501818 
L 559.227273 236.029091 
L 561.14876 165.92 
L 563.070248 212.756364 
L 564.991736 243.883636 
L 566.913223 241.847273 
L 568.834711 249.992727 
L 570.756198 231.665455 
L 572.677686 233.701818 
L 574.599174 241.556364 
L 576.520661 240.683636 
L 578.442149 235.156364 
L 580.363636 249.701818 
L 582.285124 250.283636 
L 584.206612 191.52 
L 586.128099 238.938182 
L 588.049587 244.756364 
L 589.971074 247.083636 
L 591.892562 200.247273 
L 593.81405 247.083636 
L 595.735537 247.956364 
L 599.578512 241.556364 
L 601.5 241.847273 
L 603.421488 223.229091 
L 605.342975 244.174545 
L 607.264463 249.701818 
L 609.18595 243.301818 
L 611.107438 245.047273 
L 613.028926 178.138182 
L 614.950413 195.883636 
L 616.871901 240.101818 
L 618.793388 242.138182 
L 620.714876 244.465455 
L 622.636364 243.883636 
L 622.636364 243.883636 
" style="fill:none;stroke:#1f77b4;stroke-linecap:square;stroke-width:1.5;"/>
   </g>
   <g id="line2d_27">
    <path clip-path="url(#p4caccbccaf)" d="M 115.363636 251.738182 
L 117.285124 249.410909 
L 119.206612 248.247273 
L 121.128099 249.410909 
L 123.049587 251.738182 
L 124.971074 249.992727 
L 126.892562 249.12 
L 128.81405 249.12 
L 130.735537 248.829091 
L 132.657025 249.410909 
L 134.578512 251.447273 
L 142.264463 249.12 
L 144.18595 248.829091 
L 146.107438 249.992727 
L 149.950413 251.738182 
L 151.871901 248.829091 
L 153.793388 249.410909 
L 155.714876 250.574545 
L 157.636364 250.865455 
L 159.557851 250.574545 
L 161.479339 251.447273 
L 163.400826 251.156364 
L 165.322314 249.992727 
L 167.243802 251.156364 
L 169.165289 248.829091 
L 171.086777 249.701818 
L 173.008264 250.283636 
L 174.929752 251.156364 
L 176.85124 251.156364 
L 178.772727 247.374545 
L 180.694215 251.447273 
L 182.615702 251.447273 
L 184.53719 251.156364 
L 188.380165 251.738182 
L 190.301653 251.447273 
L 192.22314 249.410909 
L 194.144628 246.792727 
L 196.066116 248.538182 
L 197.987603 249.992727 
L 199.909091 249.992727 
L 201.830579 251.447273 
L 203.752066 250.283636 
L 205.673554 249.992727 
L 207.595041 250.865455 
L 209.516529 247.665455 
L 211.438017 249.410909 
L 213.359504 251.447273 
L 215.280992 251.738182 
L 217.202479 249.12 
L 221.045455 249.12 
L 222.966942 249.992727 
L 224.88843 250.283636 
L 226.809917 251.156364 
L 228.731405 251.447273 
L 230.652893 250.865455 
L 232.57438 250.574545 
L 234.495868 251.156364 
L 238.338843 251.156364 
L 240.260331 251.447273 
L 242.181818 250.865455 
L 246.024793 250.865455 
L 247.946281 251.738182 
L 249.867769 251.156364 
L 251.789256 251.156364 
L 253.710744 250.865455 
L 255.632231 249.701818 
L 257.553719 247.956364 
L 259.475207 249.992727 
L 261.396694 251.156364 
L 263.318182 250.865455 
L 265.239669 250.865455 
L 267.161157 251.156364 
L 269.082645 249.410909 
L 271.004132 248.538182 
L 272.92562 249.701818 
L 274.847107 246.792727 
L 276.768595 249.701818 
L 278.690083 250.283636 
L 280.61157 251.156364 
L 282.533058 250.574545 
L 284.454545 250.574545 
L 286.376033 248.247273 
L 288.297521 249.410909 
L 290.219008 249.12 
L 292.140496 249.12 
L 294.061983 250.283636 
L 295.983471 245.92 
L 297.904959 247.665455 
L 299.826446 249.12 
L 301.747934 247.374545 
L 303.669421 246.210909 
L 305.590909 250.865455 
L 307.512397 250.574545 
L 309.433884 248.538182 
L 311.355372 249.992727 
L 313.27686 247.956364 
L 315.198347 249.410909 
L 317.119835 249.410909 
L 319.041322 250.865455 
L 320.96281 251.156364 
L 322.884298 248.829091 
L 324.805785 247.956364 
L 326.727273 248.247273 
L 328.64876 250.865455 
L 330.570248 251.447273 
L 334.413223 250.865455 
L 336.334711 250.865455 
L 338.256198 249.410909 
L 340.177686 250.283636 
L 342.099174 248.829091 
L 344.020661 250.865455 
L 345.942149 250.283636 
L 347.863636 250.865455 
L 349.785124 249.12 
L 351.706612 248.829091 
L 353.628099 248.829091 
L 355.549587 247.956364 
L 357.471074 250.283636 
L 359.392562 250.865455 
L 361.31405 250.865455 
L 363.235537 242.138182 
L 365.157025 248.829091 
L 367.078512 248.829091 
L 369 247.374545 
L 370.921488 249.12 
L 372.842975 250.574545 
L 374.764463 250.574545 
L 376.68595 246.210909 
L 378.607438 246.501818 
L 380.528926 248.247273 
L 382.450413 246.501818 
L 384.371901 247.374545 
L 386.293388 249.992727 
L 388.214876 250.865455 
L 390.136364 247.374545 
L 392.057851 245.92 
L 393.979339 247.083636 
L 395.900826 247.374545 
L 397.822314 249.410909 
L 399.743802 251.156364 
L 401.665289 249.992727 
L 403.586777 247.956364 
L 405.508264 247.665455 
L 407.429752 247.665455 
L 409.35124 248.538182 
L 411.272727 250.574545 
L 415.115702 251.156364 
L 417.03719 249.992727 
L 418.958678 246.210909 
L 420.880165 249.410909 
L 422.801653 247.083636 
L 424.72314 248.538182 
L 426.644628 246.792727 
L 428.566116 249.701818 
L 430.487603 251.156364 
L 434.330579 249.410909 
L 436.252066 248.247273 
L 438.173554 248.538182 
L 440.095041 247.374545 
L 442.016529 249.12 
L 443.938017 249.410909 
L 445.859504 250.865455 
L 447.780992 245.629091 
L 449.702479 245.338182 
L 451.623967 247.956364 
L 453.545455 248.829091 
L 455.466942 249.12 
L 457.38843 249.12 
L 459.309917 250.865455 
L 461.231405 250.283636 
L 463.152893 245.629091 
L 465.07438 244.174545 
L 466.995868 246.792727 
L 468.917355 248.829091 
L 470.838843 250.283636 
L 472.760331 249.12 
L 474.681818 250.283636 
L 476.603306 246.210909 
L 478.524793 246.501818 
L 480.446281 228.465455 
L 482.367769 247.956364 
L 484.289256 246.501818 
L 486.210744 250.574545 
L 488.132231 251.738182 
L 490.053719 249.701818 
L 491.975207 248.247273 
L 493.896694 248.247273 
L 495.818182 248.538182 
L 497.739669 247.665455 
L 501.582645 251.156364 
L 503.504132 249.12 
L 505.42562 248.247273 
L 507.347107 246.792727 
L 509.268595 247.083636 
L 511.190083 245.629091 
L 513.11157 250.574545 
L 515.033058 251.738182 
L 516.954545 245.629091 
L 518.876033 247.083636 
L 520.797521 249.410909 
L 522.719008 247.374545 
L 524.640496 248.247273 
L 526.561983 251.447273 
L 528.483471 250.283636 
L 530.404959 248.247273 
L 532.326446 249.410909 
L 534.247934 247.956364 
L 536.169421 246.210909 
L 540.012397 250.865455 
L 541.933884 251.156364 
L 543.855372 249.12 
L 545.77686 247.665455 
L 547.698347 249.992727 
L 549.619835 249.410909 
L 551.541322 249.410909 
L 555.384298 249.992727 
L 557.305785 246.792727 
L 559.227273 248.829091 
L 561.14876 248.829091 
L 563.070248 249.992727 
L 564.991736 249.12 
L 566.913223 251.156364 
L 568.834711 250.283636 
L 570.756198 248.247273 
L 572.677686 249.12 
L 574.599174 248.829091 
L 576.520661 248.247273 
L 578.442149 249.12 
L 580.363636 251.156364 
L 582.285124 250.865455 
L 584.206612 247.374545 
L 586.128099 250.574545 
L 588.049587 249.701818 
L 589.971074 249.12 
L 591.892562 245.629091 
L 593.81405 251.156364 
L 595.735537 250.574545 
L 597.657025 249.701818 
L 599.578512 250.283636 
L 601.5 248.829091 
L 603.421488 247.956364 
L 605.342975 249.12 
L 607.264463 250.865455 
L 609.18595 250.865455 
L 611.107438 249.410909 
L 613.028926 247.083636 
L 614.950413 247.083636 
L 616.871901 250.283636 
L 618.793388 248.538182 
L 620.714876 250.574545 
L 622.636364 249.410909 
L 622.636364 249.410909 
" style="fill:none;stroke:#ff7f0e;stroke-linecap:square;stroke-width:1.5;"/>
   </g>
   <g id="patch_9">
    <path d="M 90 256.32 
L 90 155.52 
" style="fill:none;stroke:#000000;stroke-linecap:square;stroke-linejoin:miter;stroke-width:0.8;"/>
   </g>
   <g id="patch_10">
    <path d="M 648 256.32 
L 648 155.52 
" style="fill:none;stroke:#000000;stroke-linecap:square;stroke-linejoin:miter;stroke-width:0.8;"/>
   </g>
   <g id="patch_11">
    <path d="M 90 256.32 
L 648 256.32 
" style="fill:none;stroke:#000000;stroke-linecap:square;stroke-linejoin:miter;stroke-width:0.8;"/>
   </g>
   <g id="patch_12">
    <path d="M 90 155.52 
L 648 155.52 
" style="fill:none;stroke:#000000;stroke-linecap:square;stroke-linejoin:miter;stroke-width:0.8;"/>
   </g>
   <g id="legend_2">
    <g id="patch_13">
     <path d="M 97 192.87625 
L 234.217188 192.87625 
Q 236.217188 192.87625 236.217188 190.87625 
L 236.217188 162.52 
Q 236.217188 160.52 234.217188 160.52 
L 97 160.52 
Q 95 160.52 95 162.52 
L 95 190.87625 
Q 95 192.87625 97 192.87625 
z
" style="fill:#ffffff;opacity:0.8;stroke:#cccccc;stroke-linejoin:miter;"/>
    </g>
    <g id="line2d_28">
     <path d="M 99 168.618437 
L 119 168.618437 
" style="fill:none;stroke:#1f77b4;stroke-linecap:square;stroke-width:1.5;"/>
    </g>
    <g id="line2d_29"/>
    <g id="text_24">
     <!-- Total GitHub Views -->
     <g transform="translate(127 172.118437)scale(0.1 -0.1)">
      <defs>
       <path d="M 1831 0 
L 50 4666 
L 709 4666 
L 2188 738 
L 3669 4666 
L 4325 4666 
L 2547 0 
L 1831 0 
z
" id="DejaVuSans-56" transform="scale(0.015625)"/>
       <path d="M 269 3500 
L 844 3500 
L 1563 769 
L 2278 3500 
L 2956 3500 
L 3675 769 
L 4391 3500 
L 4966 3500 
L 4050 0 
L 3372 0 
L 2619 2869 
L 1863 0 
L 1184 0 
L 269 3500 
z
" id="DejaVuSans-77" transform="scale(0.015625)"/>
      </defs>
      <use xlink:href="#DejaVuSans-54"/>
      <use x="44.083984" xlink:href="#DejaVuSans-6f"/>
      <use x="105.265625" xlink:href="#DejaVuSans-74"/>
      <use x="144.474609" xlink:href="#DejaVuSans-61"/>
      <use x="205.753906" xlink:href="#DejaVuSans-6c"/>
      <use x="233.537109" xlink:href="#DejaVuSans-20"/>
      <use x="265.324219" xlink:href="#DejaVuSans-47"/>
      <use x="342.814453" xlink:href="#DejaVuSans-69"/>
      <use x="370.597656" xlink:href="#DejaVuSans-74"/>
      <use x="409.806641" xlink:href="#DejaVuSans-48"/>
      <use x="485.001953" xlink:href="#DejaVuSans-75"/>
      <use x="548.380859" xlink:href="#DejaVuSans-62"/>
      <use x="611.857422" xlink:href="#DejaVuSans-20"/>
      <use x="643.644531" xlink:href="#DejaVuSans-56"/>
      <use x="709.802734" xlink:href="#DejaVuSans-69"/>
      <use x="737.585938" xlink:href="#DejaVuSans-65"/>
      <use x="799.109375" xlink:href="#DejaVuSans-77"/>
      <use x="880.896484" xlink:href="#DejaVuSans-73"/>
     </g>
    </g>
    <g id="line2d_30">
     <path d="M 99 183.296562 
L 119 183.296562 
" style="fill:none;stroke:#ff7f0e;stroke-linecap:square;stroke-width:1.5;"/>
    </g>
    <g id="line2d_31"/>
    <g id="text_25">
     <!-- Unique GitHub Views -->
     <g transform="translate(127 186.796562)scale(0.1 -0.1)">
      <use xlink:href="#DejaVuSans-55"/>
      <use x="73.193359" xlink:href="#DejaVuSans-6e"/>
      <use x="136.572266" xlink:href="#DejaVuSans-69"/>
      <use x="164.355469" xlink:href="#DejaVuSans-71"/>
      <use x="227.832031" xlink:href="#DejaVuSans-75"/>
      <use x="291.210938" xlink:href="#DejaVuSans-65"/>
      <use x="352.734375" xlink:href="#DejaVuSans-20"/>
      <use x="384.521484" xlink:href="#DejaVuSans-47"/>
      <use x="462.011719" xlink:href="#DejaVuSans-69"/>
      <use x="489.794922" xlink:href="#DejaVuSans-74"/>
      <use x="529.003906" xlink:href="#DejaVuSans-48"/>
      <use x="604.199219" xlink:href="#DejaVuSans-75"/>
      <use x="667.578125" xlink:href="#DejaVuSans-62"/>
      <use x="731.054688" xlink:href="#DejaVuSans-20"/>
      <use x="762.841797" xlink:href="#DejaVuSans-56"/>
      <use x="829" xlink:href="#DejaVuSans-69"/>
      <use x="856.783203" xlink:href="#DejaVuSans-65"/>
      <use x="918.306641" xlink:href="#DejaVuSans-77"/>
      <use x="1000.09375" xlink:href="#DejaVuSans-73"/>
     </g>
    </g>
   </g>
  </g>
 </g>
 <defs>
  <clipPath id="pdaf4acaa3e">
   <rect height="100.8" width="558" x="90" y="34.56"/>
  </clipPath>
  <clipPath id="p4caccbccaf">
   <rect height="100.8" width="558" x="90" y="155.52"/>
  </clipPath>
 </defs>
</svg>
