<?xml version="1.0" encoding="utf-8" standalone="no"?>
<!DOCTYPE svg PUBLIC "-//W3C//DTD SVG 1.1//EN"
  "http://www.w3.org/Graphics/SVG/1.1/DTD/svg11.dtd">
<svg height="288pt" version="1.1" viewBox="0 0 720 288" width="720pt" xmlns="http://www.w3.org/2000/svg" xmlns:xlink="http://www.w3.org/1999/xlink">
 <metadata>
  <rdf:RDF xmlns:cc="http://creativecommons.org/ns#" xmlns:dc="http://purl.org/dc/elements/1.1/" xmlns:rdf="http://www.w3.org/1999/02/22-rdf-syntax-ns#">
   <cc:Work>
    <dc:type rdf:resource="http://purl.org/dc/dcmitype/StillImage"/>
    <dc:date>2021-09-13T00:27:49.554718</dc:date>
    <dc:format>image/svg+xml</dc:format>
    <dc:creator>
     <cc:Agent>
      <dc:title>Matplotlib v3.4.3, https://matplotlib.org/</dc:title>
     </cc:Agent>
    </dc:creator>
   </cc:Work>
  </rdf:RDF>
 </metadata>
 <defs>
  <style type="text/css">*{stroke-linecap:butt;stroke-linejoin:round;}</style>
 </defs>
 <g id="figure_1">
  <g id="patch_1">
   <path d="M 0 288 
L 720 288 
L 720 0 
L 0 0 
z
" style="fill:#ffffff;"/>
  </g>
  <g id="axes_1">
   <g id="patch_2">
    <path d="M 90 135.36 
L 648 135.36 
L 648 34.56 
L 90 34.56 
z
" style="fill:#ffffff;"/>
   </g>
   <g id="matplotlib.axis_1">
    <g id="xtick_1">
     <g id="line2d_1">
      <defs>
       <path d="M 0 0 
L 0 3.5 
" id="mcdd6a67486" style="stroke:#000000;stroke-width:0.8;"/>
      </defs>
      <g>
       <use style="stroke:#000000;stroke-width:0.8;" x="115.363636" xlink:href="#mcdd6a67486" y="135.36"/>
      </g>
     </g>
     <g id="text_1">
      <!-- 2020-10-22 -->
      <g transform="translate(86.305824 149.958437)scale(0.1 -0.1)">
       <defs>
        <path d="M 1228 531 
L 3431 531 
L 3431 0 
L 469 0 
L 469 531 
Q 828 903 1448 1529 
Q 2069 2156 2228 2338 
Q 2531 2678 2651 2914 
Q 2772 3150 2772 3378 
Q 2772 3750 2511 3984 
Q 2250 4219 1831 4219 
Q 1534 4219 1204 4116 
Q 875 4013 500 3803 
L 500 4441 
Q 881 4594 1212 4672 
Q 1544 4750 1819 4750 
Q 2544 4750 2975 4387 
Q 3406 4025 3406 3419 
Q 3406 3131 3298 2873 
Q 3191 2616 2906 2266 
Q 2828 2175 2409 1742 
Q 1991 1309 1228 531 
z
" id="DejaVuSans-32" transform="scale(0.015625)"/>
        <path d="M 2034 4250 
Q 1547 4250 1301 3770 
Q 1056 3291 1056 2328 
Q 1056 1369 1301 889 
Q 1547 409 2034 409 
Q 2525 409 2770 889 
Q 3016 1369 3016 2328 
Q 3016 3291 2770 3770 
Q 2525 4250 2034 4250 
z
M 2034 4750 
Q 2819 4750 3233 4129 
Q 3647 3509 3647 2328 
Q 3647 1150 3233 529 
Q 2819 -91 2034 -91 
Q 1250 -91 836 529 
Q 422 1150 422 2328 
Q 422 3509 836 4129 
Q 1250 4750 2034 4750 
z
" id="DejaVuSans-30" transform="scale(0.015625)"/>
        <path d="M 313 2009 
L 1997 2009 
L 1997 1497 
L 313 1497 
L 313 2009 
z
" id="DejaVuSans-2d" transform="scale(0.015625)"/>
        <path d="M 794 531 
L 1825 531 
L 1825 4091 
L 703 3866 
L 703 4441 
L 1819 4666 
L 2450 4666 
L 2450 531 
L 3481 531 
L 3481 0 
L 794 0 
L 794 531 
z
" id="DejaVuSans-31" transform="scale(0.015625)"/>
       </defs>
       <use xlink:href="#DejaVuSans-32"/>
       <use x="63.623047" xlink:href="#DejaVuSans-30"/>
       <use x="127.246094" xlink:href="#DejaVuSans-32"/>
       <use x="190.869141" xlink:href="#DejaVuSans-30"/>
       <use x="254.492188" xlink:href="#DejaVuSans-2d"/>
       <use x="290.576172" xlink:href="#DejaVuSans-31"/>
       <use x="354.199219" xlink:href="#DejaVuSans-30"/>
       <use x="417.822266" xlink:href="#DejaVuSans-2d"/>
       <use x="453.90625" xlink:href="#DejaVuSans-32"/>
       <use x="517.529297" xlink:href="#DejaVuSans-32"/>
      </g>
     </g>
    </g>
    <g id="xtick_2">
     <g id="line2d_2">
      <g>
       <use style="stroke:#000000;stroke-width:0.8;" x="209.652247" xlink:href="#mcdd6a67486" y="135.36"/>
      </g>
     </g>
     <g id="text_2">
      <!-- 2021-01-05 -->
      <g transform="translate(180.594435 149.958437)scale(0.1 -0.1)">
       <defs>
        <path d="M 691 4666 
L 3169 4666 
L 3169 4134 
L 1269 4134 
L 1269 2991 
Q 1406 3038 1543 3061 
Q 1681 3084 1819 3084 
Q 2600 3084 3056 2656 
Q 3513 2228 3513 1497 
Q 3513 744 3044 326 
Q 2575 -91 1722 -91 
Q 1428 -91 1123 -41 
Q 819 9 494 109 
L 494 744 
Q 775 591 1075 516 
Q 1375 441 1709 441 
Q 2250 441 2565 725 
Q 2881 1009 2881 1497 
Q 2881 1984 2565 2268 
Q 2250 2553 1709 2553 
Q 1456 2553 1204 2497 
Q 953 2441 691 2322 
L 691 4666 
z
" id="DejaVuSans-35" transform="scale(0.015625)"/>
       </defs>
       <use xlink:href="#DejaVuSans-32"/>
       <use x="63.623047" xlink:href="#DejaVuSans-30"/>
       <use x="127.246094" xlink:href="#DejaVuSans-32"/>
       <use x="190.869141" xlink:href="#DejaVuSans-31"/>
       <use x="254.492188" xlink:href="#DejaVuSans-2d"/>
       <use x="290.576172" xlink:href="#DejaVuSans-30"/>
       <use x="354.199219" xlink:href="#DejaVuSans-31"/>
       <use x="417.822266" xlink:href="#DejaVuSans-2d"/>
       <use x="453.90625" xlink:href="#DejaVuSans-30"/>
       <use x="517.529297" xlink:href="#DejaVuSans-35"/>
      </g>
     </g>
    </g>
    <g id="xtick_3">
     <g id="line2d_3">
      <g>
       <use style="stroke:#000000;stroke-width:0.8;" x="303.940858" xlink:href="#mcdd6a67486" y="135.36"/>
      </g>
     </g>
     <g id="text_3">
      <!-- 2021-03-17 -->
      <g transform="translate(274.883046 149.958437)scale(0.1 -0.1)">
       <defs>
        <path d="M 2597 2516 
Q 3050 2419 3304 2112 
Q 3559 1806 3559 1356 
Q 3559 666 3084 287 
Q 2609 -91 1734 -91 
Q 1441 -91 1130 -33 
Q 819 25 488 141 
L 488 750 
Q 750 597 1062 519 
Q 1375 441 1716 441 
Q 2309 441 2620 675 
Q 2931 909 2931 1356 
Q 2931 1769 2642 2001 
Q 2353 2234 1838 2234 
L 1294 2234 
L 1294 2753 
L 1863 2753 
Q 2328 2753 2575 2939 
Q 2822 3125 2822 3475 
Q 2822 3834 2567 4026 
Q 2313 4219 1838 4219 
Q 1578 4219 1281 4162 
Q 984 4106 628 3988 
L 628 4550 
Q 988 4650 1302 4700 
Q 1616 4750 1894 4750 
Q 2613 4750 3031 4423 
Q 3450 4097 3450 3541 
Q 3450 3153 3228 2886 
Q 3006 2619 2597 2516 
z
" id="DejaVuSans-33" transform="scale(0.015625)"/>
        <path d="M 525 4666 
L 3525 4666 
L 3525 4397 
L 1831 0 
L 1172 0 
L 2766 4134 
L 525 4134 
L 525 4666 
z
" id="DejaVuSans-37" transform="scale(0.015625)"/>
       </defs>
       <use xlink:href="#DejaVuSans-32"/>
       <use x="63.623047" xlink:href="#DejaVuSans-30"/>
       <use x="127.246094" xlink:href="#DejaVuSans-32"/>
       <use x="190.869141" xlink:href="#DejaVuSans-31"/>
       <use x="254.492188" xlink:href="#DejaVuSans-2d"/>
       <use x="290.576172" xlink:href="#DejaVuSans-30"/>
       <use x="354.199219" xlink:href="#DejaVuSans-33"/>
       <use x="417.822266" xlink:href="#DejaVuSans-2d"/>
       <use x="453.90625" xlink:href="#DejaVuSans-31"/>
       <use x="517.529297" xlink:href="#DejaVuSans-37"/>
      </g>
     </g>
    </g>
    <g id="xtick_4">
     <g id="line2d_4">
      <g>
       <use style="stroke:#000000;stroke-width:0.8;" x="398.229469" xlink:href="#mcdd6a67486" y="135.36"/>
      </g>
     </g>
     <g id="text_4">
      <!-- 2021-05-04 -->
      <g transform="translate(369.171657 149.958437)scale(0.1 -0.1)">
       <defs>
        <path d="M 2419 4116 
L 825 1625 
L 2419 1625 
L 2419 4116 
z
M 2253 4666 
L 3047 4666 
L 3047 1625 
L 3713 1625 
L 3713 1100 
L 3047 1100 
L 3047 0 
L 2419 0 
L 2419 1100 
L 313 1100 
L 313 1709 
L 2253 4666 
z
" id="DejaVuSans-34" transform="scale(0.015625)"/>
       </defs>
       <use xlink:href="#DejaVuSans-32"/>
       <use x="63.623047" xlink:href="#DejaVuSans-30"/>
       <use x="127.246094" xlink:href="#DejaVuSans-32"/>
       <use x="190.869141" xlink:href="#DejaVuSans-31"/>
       <use x="254.492188" xlink:href="#DejaVuSans-2d"/>
       <use x="290.576172" xlink:href="#DejaVuSans-30"/>
       <use x="354.199219" xlink:href="#DejaVuSans-35"/>
       <use x="417.822266" xlink:href="#DejaVuSans-2d"/>
       <use x="453.90625" xlink:href="#DejaVuSans-30"/>
       <use x="517.529297" xlink:href="#DejaVuSans-34"/>
      </g>
     </g>
    </g>
    <g id="xtick_5">
     <g id="line2d_5">
      <g>
       <use style="stroke:#000000;stroke-width:0.8;" x="492.51808" xlink:href="#mcdd6a67486" y="135.36"/>
      </g>
     </g>
     <g id="text_5">
      <!-- 2021-06-22 -->
      <g transform="translate(463.460268 149.958437)scale(0.1 -0.1)">
       <defs>
        <path d="M 2113 2584 
Q 1688 2584 1439 2293 
Q 1191 2003 1191 1497 
Q 1191 994 1439 701 
Q 1688 409 2113 409 
Q 2538 409 2786 701 
Q 3034 994 3034 1497 
Q 3034 2003 2786 2293 
Q 2538 2584 2113 2584 
z
M 3366 4563 
L 3366 3988 
Q 3128 4100 2886 4159 
Q 2644 4219 2406 4219 
Q 1781 4219 1451 3797 
Q 1122 3375 1075 2522 
Q 1259 2794 1537 2939 
Q 1816 3084 2150 3084 
Q 2853 3084 3261 2657 
Q 3669 2231 3669 1497 
Q 3669 778 3244 343 
Q 2819 -91 2113 -91 
Q 1303 -91 875 529 
Q 447 1150 447 2328 
Q 447 3434 972 4092 
Q 1497 4750 2381 4750 
Q 2619 4750 2861 4703 
Q 3103 4656 3366 4563 
z
" id="DejaVuSans-36" transform="scale(0.015625)"/>
       </defs>
       <use xlink:href="#DejaVuSans-32"/>
       <use x="63.623047" xlink:href="#DejaVuSans-30"/>
       <use x="127.246094" xlink:href="#DejaVuSans-32"/>
       <use x="190.869141" xlink:href="#DejaVuSans-31"/>
       <use x="254.492188" xlink:href="#DejaVuSans-2d"/>
       <use x="290.576172" xlink:href="#DejaVuSans-30"/>
       <use x="354.199219" xlink:href="#DejaVuSans-36"/>
       <use x="417.822266" xlink:href="#DejaVuSans-2d"/>
       <use x="453.90625" xlink:href="#DejaVuSans-32"/>
       <use x="517.529297" xlink:href="#DejaVuSans-32"/>
      </g>
     </g>
    </g>
    <g id="xtick_6">
     <g id="line2d_6">
      <g>
       <use style="stroke:#000000;stroke-width:0.8;" x="586.806691" xlink:href="#mcdd6a67486" y="135.36"/>
      </g>
     </g>
     <g id="text_6">
      <!-- 2021-08-19 -->
      <g transform="translate(557.748879 149.958437)scale(0.1 -0.1)">
       <defs>
        <path d="M 2034 2216 
Q 1584 2216 1326 1975 
Q 1069 1734 1069 1313 
Q 1069 891 1326 650 
Q 1584 409 2034 409 
Q 2484 409 2743 651 
Q 3003 894 3003 1313 
Q 3003 1734 2745 1975 
Q 2488 2216 2034 2216 
z
M 1403 2484 
Q 997 2584 770 2862 
Q 544 3141 544 3541 
Q 544 4100 942 4425 
Q 1341 4750 2034 4750 
Q 2731 4750 3128 4425 
Q 3525 4100 3525 3541 
Q 3525 3141 3298 2862 
Q 3072 2584 2669 2484 
Q 3125 2378 3379 2068 
Q 3634 1759 3634 1313 
Q 3634 634 3220 271 
Q 2806 -91 2034 -91 
Q 1263 -91 848 271 
Q 434 634 434 1313 
Q 434 1759 690 2068 
Q 947 2378 1403 2484 
z
M 1172 3481 
Q 1172 3119 1398 2916 
Q 1625 2713 2034 2713 
Q 2441 2713 2670 2916 
Q 2900 3119 2900 3481 
Q 2900 3844 2670 4047 
Q 2441 4250 2034 4250 
Q 1625 4250 1398 4047 
Q 1172 3844 1172 3481 
z
" id="DejaVuSans-38" transform="scale(0.015625)"/>
        <path d="M 703 97 
L 703 672 
Q 941 559 1184 500 
Q 1428 441 1663 441 
Q 2288 441 2617 861 
Q 2947 1281 2994 2138 
Q 2813 1869 2534 1725 
Q 2256 1581 1919 1581 
Q 1219 1581 811 2004 
Q 403 2428 403 3163 
Q 403 3881 828 4315 
Q 1253 4750 1959 4750 
Q 2769 4750 3195 4129 
Q 3622 3509 3622 2328 
Q 3622 1225 3098 567 
Q 2575 -91 1691 -91 
Q 1453 -91 1209 -44 
Q 966 3 703 97 
z
M 1959 2075 
Q 2384 2075 2632 2365 
Q 2881 2656 2881 3163 
Q 2881 3666 2632 3958 
Q 2384 4250 1959 4250 
Q 1534 4250 1286 3958 
Q 1038 3666 1038 3163 
Q 1038 2656 1286 2365 
Q 1534 2075 1959 2075 
z
" id="DejaVuSans-39" transform="scale(0.015625)"/>
       </defs>
       <use xlink:href="#DejaVuSans-32"/>
       <use x="63.623047" xlink:href="#DejaVuSans-30"/>
       <use x="127.246094" xlink:href="#DejaVuSans-32"/>
       <use x="190.869141" xlink:href="#DejaVuSans-31"/>
       <use x="254.492188" xlink:href="#DejaVuSans-2d"/>
       <use x="290.576172" xlink:href="#DejaVuSans-30"/>
       <use x="354.199219" xlink:href="#DejaVuSans-38"/>
       <use x="417.822266" xlink:href="#DejaVuSans-2d"/>
       <use x="453.90625" xlink:href="#DejaVuSans-31"/>
       <use x="517.529297" xlink:href="#DejaVuSans-39"/>
      </g>
     </g>
    </g>
    <g id="text_7">
     <!-- _date -->
     <g transform="translate(355.225 163.636562)scale(0.1 -0.1)">
      <defs>
       <path d="M 3263 -1063 
L 3263 -1509 
L -63 -1509 
L -63 -1063 
L 3263 -1063 
z
" id="DejaVuSans-5f" transform="scale(0.015625)"/>
       <path d="M 2906 2969 
L 2906 4863 
L 3481 4863 
L 3481 0 
L 2906 0 
L 2906 525 
Q 2725 213 2448 61 
Q 2172 -91 1784 -91 
Q 1150 -91 751 415 
Q 353 922 353 1747 
Q 353 2572 751 3078 
Q 1150 3584 1784 3584 
Q 2172 3584 2448 3432 
Q 2725 3281 2906 2969 
z
M 947 1747 
Q 947 1113 1208 752 
Q 1469 391 1925 391 
Q 2381 391 2643 752 
Q 2906 1113 2906 1747 
Q 2906 2381 2643 2742 
Q 2381 3103 1925 3103 
Q 1469 3103 1208 2742 
Q 947 2381 947 1747 
z
" id="DejaVuSans-64" transform="scale(0.015625)"/>
       <path d="M 2194 1759 
Q 1497 1759 1228 1600 
Q 959 1441 959 1056 
Q 959 750 1161 570 
Q 1363 391 1709 391 
Q 2188 391 2477 730 
Q 2766 1069 2766 1631 
L 2766 1759 
L 2194 1759 
z
M 3341 1997 
L 3341 0 
L 2766 0 
L 2766 531 
Q 2569 213 2275 61 
Q 1981 -91 1556 -91 
Q 1019 -91 701 211 
Q 384 513 384 1019 
Q 384 1609 779 1909 
Q 1175 2209 1959 2209 
L 2766 2209 
L 2766 2266 
Q 2766 2663 2505 2880 
Q 2244 3097 1772 3097 
Q 1472 3097 1187 3025 
Q 903 2953 641 2809 
L 641 3341 
Q 956 3463 1253 3523 
Q 1550 3584 1831 3584 
Q 2591 3584 2966 3190 
Q 3341 2797 3341 1997 
z
" id="DejaVuSans-61" transform="scale(0.015625)"/>
       <path d="M 1172 4494 
L 1172 3500 
L 2356 3500 
L 2356 3053 
L 1172 3053 
L 1172 1153 
Q 1172 725 1289 603 
Q 1406 481 1766 481 
L 2356 481 
L 2356 0 
L 1766 0 
Q 1100 0 847 248 
Q 594 497 594 1153 
L 594 3053 
L 172 3053 
L 172 3500 
L 594 3500 
L 594 4494 
L 1172 4494 
z
" id="DejaVuSans-74" transform="scale(0.015625)"/>
       <path d="M 3597 1894 
L 3597 1613 
L 953 1613 
Q 991 1019 1311 708 
Q 1631 397 2203 397 
Q 2534 397 2845 478 
Q 3156 559 3463 722 
L 3463 178 
Q 3153 47 2828 -22 
Q 2503 -91 2169 -91 
Q 1331 -91 842 396 
Q 353 884 353 1716 
Q 353 2575 817 3079 
Q 1281 3584 2069 3584 
Q 2775 3584 3186 3129 
Q 3597 2675 3597 1894 
z
M 3022 2063 
Q 3016 2534 2758 2815 
Q 2500 3097 2075 3097 
Q 1594 3097 1305 2825 
Q 1016 2553 972 2059 
L 3022 2063 
z
" id="DejaVuSans-65" transform="scale(0.015625)"/>
      </defs>
      <use xlink:href="#DejaVuSans-5f"/>
      <use x="50" xlink:href="#DejaVuSans-64"/>
      <use x="113.476562" xlink:href="#DejaVuSans-61"/>
      <use x="174.755859" xlink:href="#DejaVuSans-74"/>
      <use x="213.964844" xlink:href="#DejaVuSans-65"/>
     </g>
    </g>
   </g>
   <g id="matplotlib.axis_2">
    <g id="ytick_1">
     <g id="line2d_7">
      <defs>
       <path d="M 0 0 
L -3.5 0 
" id="mf2a37071e3" style="stroke:#000000;stroke-width:0.8;"/>
      </defs>
      <g>
       <use style="stroke:#000000;stroke-width:0.8;" x="90" xlink:href="#mf2a37071e3" y="131.401558"/>
      </g>
     </g>
     <g id="text_8">
      <!-- 0 -->
      <g transform="translate(76.6375 135.200777)scale(0.1 -0.1)">
       <use xlink:href="#DejaVuSans-30"/>
      </g>
     </g>
    </g>
    <g id="ytick_2">
     <g id="line2d_8">
      <g>
       <use style="stroke:#000000;stroke-width:0.8;" x="90" xlink:href="#mf2a37071e3" y="100.232727"/>
      </g>
     </g>
     <g id="text_9">
      <!-- 50 -->
      <g transform="translate(70.275 104.031946)scale(0.1 -0.1)">
       <use xlink:href="#DejaVuSans-35"/>
       <use x="63.623047" xlink:href="#DejaVuSans-30"/>
      </g>
     </g>
    </g>
    <g id="ytick_3">
     <g id="line2d_9">
      <g>
       <use style="stroke:#000000;stroke-width:0.8;" x="90" xlink:href="#mf2a37071e3" y="69.063896"/>
      </g>
     </g>
     <g id="text_10">
      <!-- 100 -->
      <g transform="translate(63.9125 72.863115)scale(0.1 -0.1)">
       <use xlink:href="#DejaVuSans-31"/>
       <use x="63.623047" xlink:href="#DejaVuSans-30"/>
       <use x="127.246094" xlink:href="#DejaVuSans-30"/>
      </g>
     </g>
    </g>
    <g id="ytick_4">
     <g id="line2d_10">
      <g>
       <use style="stroke:#000000;stroke-width:0.8;" x="90" xlink:href="#mf2a37071e3" y="37.895065"/>
      </g>
     </g>
     <g id="text_11">
      <!-- 150 -->
      <g transform="translate(63.9125 41.694284)scale(0.1 -0.1)">
       <use xlink:href="#DejaVuSans-31"/>
       <use x="63.623047" xlink:href="#DejaVuSans-35"/>
       <use x="127.246094" xlink:href="#DejaVuSans-30"/>
      </g>
     </g>
    </g>
   </g>
   <g id="line2d_11">
    <path clip-path="url(#pb0c75dec2e)" d="M 115.363636 127.661299 
L 117.249409 128.284675 
L 119.135181 130.778182 
L 121.020953 130.778182 
L 122.906725 129.531429 
L 124.792497 129.531429 
L 126.67827 120.804156 
L 128.564042 120.804156 
L 130.449814 130.778182 
L 132.335586 130.778182 
L 134.221359 124.544416 
L 136.107131 126.414545 
L 137.992903 130.778182 
L 139.878675 127.661299 
L 141.764447 128.908052 
L 143.65022 128.908052 
L 145.535992 130.778182 
L 149.307536 128.284675 
L 151.193309 130.154805 
L 153.079081 130.778182 
L 154.964853 130.154805 
L 156.850625 130.154805 
L 158.736397 129.531429 
L 160.62217 130.154805 
L 162.507942 130.154805 
L 164.393714 128.908052 
L 166.279486 130.154805 
L 168.165259 130.154805 
L 170.051031 122.674286 
L 171.936803 127.661299 
L 173.822575 130.154805 
L 175.708347 115.817143 
L 177.59412 130.778182 
L 192.680297 130.778182 
L 194.56607 130.154805 
L 196.451842 130.778182 
L 209.652247 130.778182 
L 211.53802 128.908052 
L 213.423792 129.531429 
L 215.309564 130.778182 
L 217.195336 129.531429 
L 219.081108 127.661299 
L 220.966881 130.154805 
L 222.852653 130.154805 
L 224.738425 128.908052 
L 226.624197 120.804156 
L 228.50997 130.154805 
L 230.395742 130.778182 
L 232.281514 130.154805 
L 234.167286 127.037922 
L 236.053058 130.154805 
L 237.938831 129.531429 
L 239.824603 125.167792 
L 241.710375 128.908052 
L 243.596147 127.037922 
L 245.48192 130.154805 
L 247.367692 129.531429 
L 249.253464 130.154805 
L 251.139236 129.531429 
L 254.910781 129.531429 
L 256.796553 128.284675 
L 258.682325 130.778182 
L 260.568097 130.778182 
L 262.45387 128.284675 
L 264.339642 128.284675 
L 266.225414 125.167792 
L 268.111186 129.531429 
L 269.996958 127.661299 
L 271.882731 130.778182 
L 273.768503 125.791169 
L 275.654275 128.908052 
L 277.540047 129.531429 
L 279.42582 128.908052 
L 281.311592 126.414545 
L 283.197364 130.154805 
L 285.083136 128.284675 
L 286.968908 121.427532 
L 288.854681 126.414545 
L 290.740453 120.804156 
L 292.626225 87.141818 
L 294.511997 127.661299 
L 296.39777 130.778182 
L 298.283542 128.908052 
L 300.169314 123.297662 
L 302.055086 124.544416 
L 303.940858 127.661299 
L 305.826631 119.557403 
L 307.712403 128.908052 
L 309.598175 128.908052 
L 311.483947 130.154805 
L 313.369719 122.674286 
L 315.255492 124.544416 
L 317.141264 130.778182 
L 319.027036 129.531429 
L 320.912808 130.778182 
L 322.798581 128.284675 
L 324.684353 100.232727 
L 326.570125 118.310649 
L 328.455897 121.427532 
L 330.341669 127.661299 
L 332.227442 130.778182 
L 334.113214 126.414545 
L 335.998986 128.908052 
L 337.884758 122.050909 
L 339.770531 122.674286 
L 341.656303 128.908052 
L 343.542075 123.297662 
L 345.427847 115.817143 
L 347.313619 122.674286 
L 349.199392 127.661299 
L 351.085164 115.817143 
L 352.970936 115.193766 
L 354.856708 115.193766 
L 356.742481 116.440519 
L 358.628253 92.128831 
L 360.514025 109.583377 
L 362.399797 107.08987 
L 364.285569 107.713247 
L 366.171342 107.08987 
L 368.057114 119.557403 
L 369.942886 110.206753 
L 371.828658 118.934026 
L 373.714431 129.531429 
L 375.600203 130.154805 
L 377.485975 116.440519 
L 379.371747 115.193766 
L 381.257519 114.57039 
L 383.143292 115.817143 
L 385.029064 111.453506 
L 386.914836 105.843117 
L 388.800608 128.284675 
L 390.686381 130.154805 
L 392.572153 116.440519 
L 394.457925 119.557403 
L 396.343697 117.687273 
L 398.229469 100.232727 
L 400.115242 115.817143 
L 402.001014 116.440519 
L 403.886786 130.154805 
L 405.772558 128.908052 
L 407.658331 114.57039 
L 409.544103 102.102857 
L 411.429875 102.726234 
L 413.315647 117.063896 
L 415.201419 113.323636 
L 417.087192 95.245714 
L 418.972964 117.063896 
L 420.858736 130.154805 
L 422.744508 114.57039 
L 424.630281 105.843117 
L 426.516053 107.713247 
L 428.401825 102.726234 
L 430.287597 108.96 
L 432.173369 111.453506 
L 434.059142 129.531429 
L 435.944914 115.193766 
L 437.830686 110.206753 
L 439.716458 108.336623 
L 441.60223 115.817143 
L 443.488003 115.193766 
L 445.373775 113.947013 
L 447.259547 125.791169 
L 449.145319 115.817143 
L 452.916864 113.323636 
L 454.802636 115.817143 
L 456.688408 116.440519 
L 458.57418 116.440519 
L 460.459953 130.778182 
L 462.345725 130.778182 
L 464.231497 115.193766 
L 466.117269 112.076883 
L 468.003042 115.193766 
L 469.888814 102.726234 
L 471.774586 105.843117 
L 473.660358 130.778182 
L 475.54613 115.817143 
L 477.431903 113.947013 
L 479.317675 113.323636 
L 481.203447 112.076883 
L 483.089219 117.063896 
L 484.974992 130.154805 
L 486.860764 114.57039 
L 488.746536 115.193766 
L 490.632308 110.83013 
L 492.51808 105.21974 
L 494.403853 104.596364 
L 496.289625 39.141818 
L 498.175397 86.518442 
L 500.061169 130.778182 
L 501.946942 120.180779 
L 503.832714 118.310649 
L 505.718486 117.063896 
L 507.604258 117.687273 
L 509.49003 124.544416 
L 511.375803 130.778182 
L 513.261575 130.778182 
L 515.147347 130.154805 
L 517.033119 123.297662 
L 518.918892 125.167792 
L 520.804664 130.154805 
L 522.690436 128.908052 
L 524.576208 130.154805 
L 526.46198 130.778182 
L 528.347753 130.778182 
L 530.233525 130.154805 
L 532.119297 130.778182 
L 534.005069 128.908052 
L 539.662386 130.778182 
L 545.319703 130.778182 
L 547.205475 128.284675 
L 549.091247 128.908052 
L 550.977019 130.154805 
L 552.862791 130.778182 
L 554.748564 130.154805 
L 556.634336 130.778182 
L 558.520108 127.037922 
L 560.40588 130.778182 
L 562.291653 117.063896 
L 564.177425 129.531429 
L 567.948969 130.778182 
L 571.720514 129.531429 
L 573.606286 130.778182 
L 575.492058 130.154805 
L 577.37783 130.778182 
L 579.263603 128.908052 
L 581.149375 130.154805 
L 583.035147 130.154805 
L 584.920919 129.531429 
L 586.806691 130.778182 
L 590.578236 130.778182 
L 594.34978 129.531429 
L 596.235553 127.037922 
L 598.121325 130.154805 
L 600.007097 130.154805 
L 601.892869 125.791169 
L 603.778641 124.544416 
L 605.664414 122.050909 
L 607.550186 130.778182 
L 611.32173 130.778182 
L 615.093275 129.531429 
L 616.979047 130.154805 
L 618.864819 125.167792 
L 620.750591 113.323636 
L 622.636364 127.661299 
L 622.636364 127.661299 
" style="fill:none;stroke:#1f77b4;stroke-linecap:square;stroke-width:1.5;"/>
   </g>
   <g id="line2d_12">
    <path clip-path="url(#pb0c75dec2e)" d="M 115.363636 127.661299 
L 117.249409 128.284675 
L 119.135181 130.778182 
L 121.020953 130.778182 
L 122.906725 129.531429 
L 124.792497 129.531429 
L 126.67827 130.154805 
L 128.564042 128.284675 
L 130.449814 130.778182 
L 132.335586 130.778182 
L 134.221359 124.544416 
L 136.107131 129.531429 
L 137.992903 130.778182 
L 139.878675 128.908052 
L 141.764447 128.908052 
L 143.65022 129.531429 
L 145.535992 130.778182 
L 147.421764 129.531429 
L 149.307536 128.908052 
L 151.193309 130.154805 
L 153.079081 130.778182 
L 154.964853 130.154805 
L 156.850625 130.778182 
L 158.736397 129.531429 
L 162.507942 130.778182 
L 164.393714 130.154805 
L 166.279486 130.778182 
L 168.165259 130.154805 
L 170.051031 125.791169 
L 171.936803 127.661299 
L 173.822575 130.154805 
L 175.708347 125.167792 
L 177.59412 130.778182 
L 192.680297 130.778182 
L 194.56607 130.154805 
L 196.451842 130.778182 
L 209.652247 130.778182 
L 211.53802 129.531429 
L 213.423792 130.778182 
L 215.309564 130.778182 
L 219.081108 129.531429 
L 220.966881 130.778182 
L 224.738425 130.778182 
L 226.624197 124.544416 
L 228.50997 130.778182 
L 230.395742 130.778182 
L 232.281514 130.154805 
L 234.167286 128.908052 
L 236.053058 130.154805 
L 237.938831 129.531429 
L 239.824603 127.037922 
L 241.710375 129.531429 
L 243.596147 130.778182 
L 245.48192 130.154805 
L 247.367692 130.778182 
L 249.253464 130.154805 
L 251.139236 130.778182 
L 253.025008 129.531429 
L 256.796553 129.531429 
L 258.682325 130.778182 
L 260.568097 130.778182 
L 266.225414 127.037922 
L 268.111186 129.531429 
L 269.996958 128.284675 
L 271.882731 130.778182 
L 273.768503 127.037922 
L 275.654275 128.908052 
L 277.540047 129.531429 
L 279.42582 128.908052 
L 281.311592 126.414545 
L 283.197364 130.154805 
L 285.083136 128.284675 
L 286.968908 124.544416 
L 288.854681 127.037922 
L 290.740453 123.297662 
L 292.626225 108.96 
L 294.511997 127.661299 
L 296.39777 130.778182 
L 298.283542 129.531429 
L 300.169314 123.921039 
L 303.940858 127.661299 
L 305.826631 122.050909 
L 307.712403 128.908052 
L 309.598175 128.908052 
L 311.483947 130.154805 
L 313.369719 124.544416 
L 315.255492 124.544416 
L 317.141264 130.778182 
L 319.027036 129.531429 
L 320.912808 130.778182 
L 322.798581 128.908052 
L 324.684353 116.440519 
L 326.570125 122.674286 
L 328.455897 124.544416 
L 330.341669 128.284675 
L 332.227442 130.778182 
L 334.113214 127.661299 
L 335.998986 130.154805 
L 337.884758 123.921039 
L 339.770531 123.921039 
L 341.656303 129.531429 
L 343.542075 123.921039 
L 345.427847 120.180779 
L 347.313619 123.297662 
L 349.199392 128.284675 
L 351.085164 120.804156 
L 352.970936 120.804156 
L 354.856708 125.167792 
L 356.742481 130.154805 
L 358.628253 121.427532 
L 360.514025 129.531429 
L 362.399797 128.908052 
L 364.285569 125.791169 
L 366.171342 125.791169 
L 368.057114 121.427532 
L 369.942886 125.167792 
L 371.828658 130.778182 
L 373.714431 130.154805 
L 375.600203 130.154805 
L 377.485975 130.778182 
L 379.371747 129.531429 
L 381.257519 128.908052 
L 383.143292 129.531429 
L 386.914836 120.804156 
L 388.800608 128.284675 
L 390.686381 130.154805 
L 392.572153 130.778182 
L 394.457925 130.778182 
L 396.343697 128.908052 
L 398.229469 117.687273 
L 400.115242 130.778182 
L 402.001014 129.531429 
L 403.886786 130.154805 
L 407.658331 130.154805 
L 409.544103 118.934026 
L 411.429875 118.934026 
L 413.315647 128.908052 
L 415.201419 127.037922 
L 417.087192 115.817143 
L 418.972964 120.180779 
L 420.858736 130.154805 
L 422.744508 130.778182 
L 424.630281 125.791169 
L 428.401825 129.531429 
L 430.287597 128.908052 
L 432.173369 130.154805 
L 434.059142 130.154805 
L 435.944914 130.778182 
L 437.830686 125.167792 
L 439.716458 123.921039 
L 441.60223 130.778182 
L 443.488003 130.154805 
L 445.373775 128.908052 
L 447.259547 127.037922 
L 449.145319 130.778182 
L 451.031092 130.154805 
L 452.916864 128.908052 
L 454.802636 130.778182 
L 456.688408 129.531429 
L 458.57418 129.531429 
L 460.459953 130.778182 
L 464.231497 130.778182 
L 466.117269 127.661299 
L 468.003042 130.778182 
L 469.888814 128.908052 
L 471.774586 125.791169 
L 473.660358 130.778182 
L 475.54613 130.778182 
L 477.431903 130.154805 
L 479.317675 128.908052 
L 484.974992 130.778182 
L 486.860764 130.154805 
L 488.746536 130.778182 
L 490.632308 126.414545 
L 492.51808 126.414545 
L 494.403853 127.661299 
L 496.289625 130.778182 
L 498.175397 121.427532 
L 500.061169 130.778182 
L 501.946942 130.778182 
L 503.832714 130.154805 
L 505.718486 126.414545 
L 507.604258 127.037922 
L 509.49003 125.791169 
L 511.375803 130.778182 
L 513.261575 130.778182 
L 515.147347 130.154805 
L 517.033119 123.297662 
L 518.918892 126.414545 
L 520.804664 130.154805 
L 522.690436 128.908052 
L 524.576208 130.778182 
L 528.347753 130.778182 
L 530.233525 130.154805 
L 532.119297 130.778182 
L 534.005069 128.908052 
L 539.662386 130.778182 
L 545.319703 130.778182 
L 547.205475 128.284675 
L 549.091247 128.908052 
L 550.977019 130.154805 
L 552.862791 130.778182 
L 554.748564 130.154805 
L 556.634336 130.778182 
L 558.520108 127.661299 
L 560.40588 130.778182 
L 562.291653 130.778182 
L 564.177425 129.531429 
L 567.948969 130.778182 
L 571.720514 129.531429 
L 573.606286 130.778182 
L 575.492058 130.154805 
L 577.37783 130.778182 
L 579.263603 128.908052 
L 581.149375 130.154805 
L 583.035147 130.154805 
L 584.920919 129.531429 
L 586.806691 130.778182 
L 590.578236 130.778182 
L 594.34978 129.531429 
L 596.235553 127.037922 
L 598.121325 130.154805 
L 600.007097 130.778182 
L 601.892869 125.791169 
L 603.778641 124.544416 
L 605.664414 123.921039 
L 607.550186 130.778182 
L 611.32173 130.778182 
L 615.093275 129.531429 
L 616.979047 130.778182 
L 618.864819 125.791169 
L 620.750591 122.050909 
L 622.636364 130.154805 
L 622.636364 130.154805 
" style="fill:none;stroke:#ff7f0e;stroke-linecap:square;stroke-width:1.5;"/>
   </g>
   <g id="patch_3">
    <path d="M 90 135.36 
L 90 34.56 
" style="fill:none;stroke:#000000;stroke-linecap:square;stroke-linejoin:miter;stroke-width:0.8;"/>
   </g>
   <g id="patch_4">
    <path d="M 648 135.36 
L 648 34.56 
" style="fill:none;stroke:#000000;stroke-linecap:square;stroke-linejoin:miter;stroke-width:0.8;"/>
   </g>
   <g id="patch_5">
    <path d="M 90 135.36 
L 648 135.36 
" style="fill:none;stroke:#000000;stroke-linecap:square;stroke-linejoin:miter;stroke-width:0.8;"/>
   </g>
   <g id="patch_6">
    <path d="M 90 34.56 
L 648 34.56 
" style="fill:none;stroke:#000000;stroke-linecap:square;stroke-linejoin:miter;stroke-width:0.8;"/>
   </g>
   <g id="legend_1">
    <g id="patch_7">
     <path d="M 97 71.91625 
L 238.8625 71.91625 
Q 240.8625 71.91625 240.8625 69.91625 
L 240.8625 41.56 
Q 240.8625 39.56 238.8625 39.56 
L 97 39.56 
Q 95 39.56 95 41.56 
L 95 69.91625 
Q 95 71.91625 97 71.91625 
z
" style="fill:#ffffff;opacity:0.8;stroke:#cccccc;stroke-linejoin:miter;"/>
    </g>
    <g id="line2d_13">
     <path d="M 99 47.658437 
L 119 47.658437 
" style="fill:none;stroke:#1f77b4;stroke-linecap:square;stroke-width:1.5;"/>
    </g>
    <g id="line2d_14"/>
    <g id="text_12">
     <!-- Total GitHub Clones -->
     <g transform="translate(127 51.158437)scale(0.1 -0.1)">
      <defs>
       <path d="M -19 4666 
L 3928 4666 
L 3928 4134 
L 2272 4134 
L 2272 0 
L 1638 0 
L 1638 4134 
L -19 4134 
L -19 4666 
z
" id="DejaVuSans-54" transform="scale(0.015625)"/>
       <path d="M 1959 3097 
Q 1497 3097 1228 2736 
Q 959 2375 959 1747 
Q 959 1119 1226 758 
Q 1494 397 1959 397 
Q 2419 397 2687 759 
Q 2956 1122 2956 1747 
Q 2956 2369 2687 2733 
Q 2419 3097 1959 3097 
z
M 1959 3584 
Q 2709 3584 3137 3096 
Q 3566 2609 3566 1747 
Q 3566 888 3137 398 
Q 2709 -91 1959 -91 
Q 1206 -91 779 398 
Q 353 888 353 1747 
Q 353 2609 779 3096 
Q 1206 3584 1959 3584 
z
" id="DejaVuSans-6f" transform="scale(0.015625)"/>
       <path d="M 603 4863 
L 1178 4863 
L 1178 0 
L 603 0 
L 603 4863 
z
" id="DejaVuSans-6c" transform="scale(0.015625)"/>
       <path id="DejaVuSans-20" transform="scale(0.015625)"/>
       <path d="M 3809 666 
L 3809 1919 
L 2778 1919 
L 2778 2438 
L 4434 2438 
L 4434 434 
Q 4069 175 3628 42 
Q 3188 -91 2688 -91 
Q 1594 -91 976 548 
Q 359 1188 359 2328 
Q 359 3472 976 4111 
Q 1594 4750 2688 4750 
Q 3144 4750 3555 4637 
Q 3966 4525 4313 4306 
L 4313 3634 
Q 3963 3931 3569 4081 
Q 3175 4231 2741 4231 
Q 1884 4231 1454 3753 
Q 1025 3275 1025 2328 
Q 1025 1384 1454 906 
Q 1884 428 2741 428 
Q 3075 428 3337 486 
Q 3600 544 3809 666 
z
" id="DejaVuSans-47" transform="scale(0.015625)"/>
       <path d="M 603 3500 
L 1178 3500 
L 1178 0 
L 603 0 
L 603 3500 
z
M 603 4863 
L 1178 4863 
L 1178 4134 
L 603 4134 
L 603 4863 
z
" id="DejaVuSans-69" transform="scale(0.015625)"/>
       <path d="M 628 4666 
L 1259 4666 
L 1259 2753 
L 3553 2753 
L 3553 4666 
L 4184 4666 
L 4184 0 
L 3553 0 
L 3553 2222 
L 1259 2222 
L 1259 0 
L 628 0 
L 628 4666 
z
" id="DejaVuSans-48" transform="scale(0.015625)"/>
       <path d="M 544 1381 
L 544 3500 
L 1119 3500 
L 1119 1403 
Q 1119 906 1312 657 
Q 1506 409 1894 409 
Q 2359 409 2629 706 
Q 2900 1003 2900 1516 
L 2900 3500 
L 3475 3500 
L 3475 0 
L 2900 0 
L 2900 538 
Q 2691 219 2414 64 
Q 2138 -91 1772 -91 
Q 1169 -91 856 284 
Q 544 659 544 1381 
z
M 1991 3584 
L 1991 3584 
z
" id="DejaVuSans-75" transform="scale(0.015625)"/>
       <path d="M 3116 1747 
Q 3116 2381 2855 2742 
Q 2594 3103 2138 3103 
Q 1681 3103 1420 2742 
Q 1159 2381 1159 1747 
Q 1159 1113 1420 752 
Q 1681 391 2138 391 
Q 2594 391 2855 752 
Q 3116 1113 3116 1747 
z
M 1159 2969 
Q 1341 3281 1617 3432 
Q 1894 3584 2278 3584 
Q 2916 3584 3314 3078 
Q 3713 2572 3713 1747 
Q 3713 922 3314 415 
Q 2916 -91 2278 -91 
Q 1894 -91 1617 61 
Q 1341 213 1159 525 
L 1159 0 
L 581 0 
L 581 4863 
L 1159 4863 
L 1159 2969 
z
" id="DejaVuSans-62" transform="scale(0.015625)"/>
       <path d="M 4122 4306 
L 4122 3641 
Q 3803 3938 3442 4084 
Q 3081 4231 2675 4231 
Q 1875 4231 1450 3742 
Q 1025 3253 1025 2328 
Q 1025 1406 1450 917 
Q 1875 428 2675 428 
Q 3081 428 3442 575 
Q 3803 722 4122 1019 
L 4122 359 
Q 3791 134 3420 21 
Q 3050 -91 2638 -91 
Q 1578 -91 968 557 
Q 359 1206 359 2328 
Q 359 3453 968 4101 
Q 1578 4750 2638 4750 
Q 3056 4750 3426 4639 
Q 3797 4528 4122 4306 
z
" id="DejaVuSans-43" transform="scale(0.015625)"/>
       <path d="M 3513 2113 
L 3513 0 
L 2938 0 
L 2938 2094 
Q 2938 2591 2744 2837 
Q 2550 3084 2163 3084 
Q 1697 3084 1428 2787 
Q 1159 2491 1159 1978 
L 1159 0 
L 581 0 
L 581 3500 
L 1159 3500 
L 1159 2956 
Q 1366 3272 1645 3428 
Q 1925 3584 2291 3584 
Q 2894 3584 3203 3211 
Q 3513 2838 3513 2113 
z
" id="DejaVuSans-6e" transform="scale(0.015625)"/>
       <path d="M 2834 3397 
L 2834 2853 
Q 2591 2978 2328 3040 
Q 2066 3103 1784 3103 
Q 1356 3103 1142 2972 
Q 928 2841 928 2578 
Q 928 2378 1081 2264 
Q 1234 2150 1697 2047 
L 1894 2003 
Q 2506 1872 2764 1633 
Q 3022 1394 3022 966 
Q 3022 478 2636 193 
Q 2250 -91 1575 -91 
Q 1294 -91 989 -36 
Q 684 19 347 128 
L 347 722 
Q 666 556 975 473 
Q 1284 391 1588 391 
Q 1994 391 2212 530 
Q 2431 669 2431 922 
Q 2431 1156 2273 1281 
Q 2116 1406 1581 1522 
L 1381 1569 
Q 847 1681 609 1914 
Q 372 2147 372 2553 
Q 372 3047 722 3315 
Q 1072 3584 1716 3584 
Q 2034 3584 2315 3537 
Q 2597 3491 2834 3397 
z
" id="DejaVuSans-73" transform="scale(0.015625)"/>
      </defs>
      <use xlink:href="#DejaVuSans-54"/>
      <use x="44.083984" xlink:href="#DejaVuSans-6f"/>
      <use x="105.265625" xlink:href="#DejaVuSans-74"/>
      <use x="144.474609" xlink:href="#DejaVuSans-61"/>
      <use x="205.753906" xlink:href="#DejaVuSans-6c"/>
      <use x="233.537109" xlink:href="#DejaVuSans-20"/>
      <use x="265.324219" xlink:href="#DejaVuSans-47"/>
      <use x="342.814453" xlink:href="#DejaVuSans-69"/>
      <use x="370.597656" xlink:href="#DejaVuSans-74"/>
      <use x="409.806641" xlink:href="#DejaVuSans-48"/>
      <use x="485.001953" xlink:href="#DejaVuSans-75"/>
      <use x="548.380859" xlink:href="#DejaVuSans-62"/>
      <use x="611.857422" xlink:href="#DejaVuSans-20"/>
      <use x="643.644531" xlink:href="#DejaVuSans-43"/>
      <use x="713.46875" xlink:href="#DejaVuSans-6c"/>
      <use x="741.251953" xlink:href="#DejaVuSans-6f"/>
      <use x="802.433594" xlink:href="#DejaVuSans-6e"/>
      <use x="865.8125" xlink:href="#DejaVuSans-65"/>
      <use x="927.335938" xlink:href="#DejaVuSans-73"/>
     </g>
    </g>
    <g id="line2d_15">
     <path d="M 99 62.336562 
L 119 62.336562 
" style="fill:none;stroke:#ff7f0e;stroke-linecap:square;stroke-width:1.5;"/>
    </g>
    <g id="line2d_16"/>
    <g id="text_13">
     <!-- Unique GitHub Clones -->
     <g transform="translate(127 65.836562)scale(0.1 -0.1)">
      <defs>
       <path d="M 556 4666 
L 1191 4666 
L 1191 1831 
Q 1191 1081 1462 751 
Q 1734 422 2344 422 
Q 2950 422 3222 751 
Q 3494 1081 3494 1831 
L 3494 4666 
L 4128 4666 
L 4128 1753 
Q 4128 841 3676 375 
Q 3225 -91 2344 -91 
Q 1459 -91 1007 375 
Q 556 841 556 1753 
L 556 4666 
z
" id="DejaVuSans-55" transform="scale(0.015625)"/>
       <path d="M 947 1747 
Q 947 1113 1208 752 
Q 1469 391 1925 391 
Q 2381 391 2643 752 
Q 2906 1113 2906 1747 
Q 2906 2381 2643 2742 
Q 2381 3103 1925 3103 
Q 1469 3103 1208 2742 
Q 947 2381 947 1747 
z
M 2906 525 
Q 2725 213 2448 61 
Q 2172 -91 1784 -91 
Q 1150 -91 751 415 
Q 353 922 353 1747 
Q 353 2572 751 3078 
Q 1150 3584 1784 3584 
Q 2172 3584 2448 3432 
Q 2725 3281 2906 2969 
L 2906 3500 
L 3481 3500 
L 3481 -1331 
L 2906 -1331 
L 2906 525 
z
" id="DejaVuSans-71" transform="scale(0.015625)"/>
      </defs>
      <use xlink:href="#DejaVuSans-55"/>
      <use x="73.193359" xlink:href="#DejaVuSans-6e"/>
      <use x="136.572266" xlink:href="#DejaVuSans-69"/>
      <use x="164.355469" xlink:href="#DejaVuSans-71"/>
      <use x="227.832031" xlink:href="#DejaVuSans-75"/>
      <use x="291.210938" xlink:href="#DejaVuSans-65"/>
      <use x="352.734375" xlink:href="#DejaVuSans-20"/>
      <use x="384.521484" xlink:href="#DejaVuSans-47"/>
      <use x="462.011719" xlink:href="#DejaVuSans-69"/>
      <use x="489.794922" xlink:href="#DejaVuSans-74"/>
      <use x="529.003906" xlink:href="#DejaVuSans-48"/>
      <use x="604.199219" xlink:href="#DejaVuSans-75"/>
      <use x="667.578125" xlink:href="#DejaVuSans-62"/>
      <use x="731.054688" xlink:href="#DejaVuSans-20"/>
      <use x="762.841797" xlink:href="#DejaVuSans-43"/>
      <use x="832.666016" xlink:href="#DejaVuSans-6c"/>
      <use x="860.449219" xlink:href="#DejaVuSans-6f"/>
      <use x="921.630859" xlink:href="#DejaVuSans-6e"/>
      <use x="985.009766" xlink:href="#DejaVuSans-65"/>
      <use x="1046.533203" xlink:href="#DejaVuSans-73"/>
     </g>
    </g>
   </g>
  </g>
  <g id="axes_2">
   <g id="patch_8">
    <path d="M 90 256.32 
L 648 256.32 
L 648 155.52 
L 90 155.52 
z
" style="fill:#ffffff;"/>
   </g>
   <g id="matplotlib.axis_3">
    <g id="xtick_7">
     <g id="line2d_17">
      <g>
       <use style="stroke:#000000;stroke-width:0.8;" x="115.363636" xlink:href="#mcdd6a67486" y="256.32"/>
      </g>
     </g>
     <g id="text_14">
      <!-- 2020-10-21 -->
      <g transform="translate(86.305824 270.918437)scale(0.1 -0.1)">
       <use xlink:href="#DejaVuSans-32"/>
       <use x="63.623047" xlink:href="#DejaVuSans-30"/>
       <use x="127.246094" xlink:href="#DejaVuSans-32"/>
       <use x="190.869141" xlink:href="#DejaVuSans-30"/>
       <use x="254.492188" xlink:href="#DejaVuSans-2d"/>
       <use x="290.576172" xlink:href="#DejaVuSans-31"/>
       <use x="354.199219" xlink:href="#DejaVuSans-30"/>
       <use x="417.822266" xlink:href="#DejaVuSans-2d"/>
       <use x="453.90625" xlink:href="#DejaVuSans-32"/>
       <use x="517.529297" xlink:href="#DejaVuSans-31"/>
      </g>
     </g>
    </g>
    <g id="xtick_8">
     <g id="line2d_18">
      <g>
       <use style="stroke:#000000;stroke-width:0.8;" x="192.928274" xlink:href="#mcdd6a67486" y="256.32"/>
      </g>
     </g>
     <g id="text_15">
      <!-- 2020-12-11 -->
      <g transform="translate(163.870461 270.918437)scale(0.1 -0.1)">
       <use xlink:href="#DejaVuSans-32"/>
       <use x="63.623047" xlink:href="#DejaVuSans-30"/>
       <use x="127.246094" xlink:href="#DejaVuSans-32"/>
       <use x="190.869141" xlink:href="#DejaVuSans-30"/>
       <use x="254.492188" xlink:href="#DejaVuSans-2d"/>
       <use x="290.576172" xlink:href="#DejaVuSans-31"/>
       <use x="354.199219" xlink:href="#DejaVuSans-32"/>
       <use x="417.822266" xlink:href="#DejaVuSans-2d"/>
       <use x="453.90625" xlink:href="#DejaVuSans-31"/>
       <use x="517.529297" xlink:href="#DejaVuSans-31"/>
      </g>
     </g>
    </g>
    <g id="xtick_9">
     <g id="line2d_19">
      <g>
       <use style="stroke:#000000;stroke-width:0.8;" x="270.492911" xlink:href="#mcdd6a67486" y="256.32"/>
      </g>
     </g>
     <g id="text_16">
      <!-- 2021-01-31 -->
      <g transform="translate(241.435098 270.918437)scale(0.1 -0.1)">
       <use xlink:href="#DejaVuSans-32"/>
       <use x="63.623047" xlink:href="#DejaVuSans-30"/>
       <use x="127.246094" xlink:href="#DejaVuSans-32"/>
       <use x="190.869141" xlink:href="#DejaVuSans-31"/>
       <use x="254.492188" xlink:href="#DejaVuSans-2d"/>
       <use x="290.576172" xlink:href="#DejaVuSans-30"/>
       <use x="354.199219" xlink:href="#DejaVuSans-31"/>
       <use x="417.822266" xlink:href="#DejaVuSans-2d"/>
       <use x="453.90625" xlink:href="#DejaVuSans-33"/>
       <use x="517.529297" xlink:href="#DejaVuSans-31"/>
      </g>
     </g>
    </g>
    <g id="xtick_10">
     <g id="line2d_20">
      <g>
       <use style="stroke:#000000;stroke-width:0.8;" x="348.057548" xlink:href="#mcdd6a67486" y="256.32"/>
      </g>
     </g>
     <g id="text_17">
      <!-- 2021-03-22 -->
      <g transform="translate(318.999735 270.918437)scale(0.1 -0.1)">
       <use xlink:href="#DejaVuSans-32"/>
       <use x="63.623047" xlink:href="#DejaVuSans-30"/>
       <use x="127.246094" xlink:href="#DejaVuSans-32"/>
       <use x="190.869141" xlink:href="#DejaVuSans-31"/>
       <use x="254.492188" xlink:href="#DejaVuSans-2d"/>
       <use x="290.576172" xlink:href="#DejaVuSans-30"/>
       <use x="354.199219" xlink:href="#DejaVuSans-33"/>
       <use x="417.822266" xlink:href="#DejaVuSans-2d"/>
       <use x="453.90625" xlink:href="#DejaVuSans-32"/>
       <use x="517.529297" xlink:href="#DejaVuSans-32"/>
      </g>
     </g>
    </g>
    <g id="xtick_11">
     <g id="line2d_21">
      <g>
       <use style="stroke:#000000;stroke-width:0.8;" x="425.622185" xlink:href="#mcdd6a67486" y="256.32"/>
      </g>
     </g>
     <g id="text_18">
      <!-- 2021-05-10 -->
      <g transform="translate(396.564373 270.918437)scale(0.1 -0.1)">
       <use xlink:href="#DejaVuSans-32"/>
       <use x="63.623047" xlink:href="#DejaVuSans-30"/>
       <use x="127.246094" xlink:href="#DejaVuSans-32"/>
       <use x="190.869141" xlink:href="#DejaVuSans-31"/>
       <use x="254.492188" xlink:href="#DejaVuSans-2d"/>
       <use x="290.576172" xlink:href="#DejaVuSans-30"/>
       <use x="354.199219" xlink:href="#DejaVuSans-35"/>
       <use x="417.822266" xlink:href="#DejaVuSans-2d"/>
       <use x="453.90625" xlink:href="#DejaVuSans-31"/>
       <use x="517.529297" xlink:href="#DejaVuSans-30"/>
      </g>
     </g>
    </g>
    <g id="xtick_12">
     <g id="line2d_22">
      <g>
       <use style="stroke:#000000;stroke-width:0.8;" x="503.186822" xlink:href="#mcdd6a67486" y="256.32"/>
      </g>
     </g>
     <g id="text_19">
      <!-- 2021-06-29 -->
      <g transform="translate(474.12901 270.918437)scale(0.1 -0.1)">
       <use xlink:href="#DejaVuSans-32"/>
       <use x="63.623047" xlink:href="#DejaVuSans-30"/>
       <use x="127.246094" xlink:href="#DejaVuSans-32"/>
       <use x="190.869141" xlink:href="#DejaVuSans-31"/>
       <use x="254.492188" xlink:href="#DejaVuSans-2d"/>
       <use x="290.576172" xlink:href="#DejaVuSans-30"/>
       <use x="354.199219" xlink:href="#DejaVuSans-36"/>
       <use x="417.822266" xlink:href="#DejaVuSans-2d"/>
       <use x="453.90625" xlink:href="#DejaVuSans-32"/>
       <use x="517.529297" xlink:href="#DejaVuSans-39"/>
      </g>
     </g>
    </g>
    <g id="xtick_13">
     <g id="line2d_23">
      <g>
       <use style="stroke:#000000;stroke-width:0.8;" x="580.75146" xlink:href="#mcdd6a67486" y="256.32"/>
      </g>
     </g>
     <g id="text_20">
      <!-- 2021-08-17 -->
      <g transform="translate(551.693647 270.918437)scale(0.1 -0.1)">
       <use xlink:href="#DejaVuSans-32"/>
       <use x="63.623047" xlink:href="#DejaVuSans-30"/>
       <use x="127.246094" xlink:href="#DejaVuSans-32"/>
       <use x="190.869141" xlink:href="#DejaVuSans-31"/>
       <use x="254.492188" xlink:href="#DejaVuSans-2d"/>
       <use x="290.576172" xlink:href="#DejaVuSans-30"/>
       <use x="354.199219" xlink:href="#DejaVuSans-38"/>
       <use x="417.822266" xlink:href="#DejaVuSans-2d"/>
       <use x="453.90625" xlink:href="#DejaVuSans-31"/>
       <use x="517.529297" xlink:href="#DejaVuSans-37"/>
      </g>
     </g>
    </g>
    <g id="text_21">
     <!-- _date -->
     <g transform="translate(355.225 284.596563)scale(0.1 -0.1)">
      <use xlink:href="#DejaVuSans-5f"/>
      <use x="50" xlink:href="#DejaVuSans-64"/>
      <use x="113.476562" xlink:href="#DejaVuSans-61"/>
      <use x="174.755859" xlink:href="#DejaVuSans-74"/>
      <use x="213.964844" xlink:href="#DejaVuSans-65"/>
     </g>
    </g>
   </g>
   <g id="matplotlib.axis_4">
    <g id="ytick_5">
     <g id="line2d_24">
      <g>
       <use style="stroke:#000000;stroke-width:0.8;" x="90" xlink:href="#mf2a37071e3" y="252.029091"/>
      </g>
     </g>
     <g id="text_22">
      <!-- 0 -->
      <g transform="translate(76.6375 255.82831)scale(0.1 -0.1)">
       <use xlink:href="#DejaVuSans-30"/>
      </g>
     </g>
    </g>
    <g id="ytick_6">
     <g id="line2d_25">
      <g>
       <use style="stroke:#000000;stroke-width:0.8;" x="90" xlink:href="#mf2a37071e3" y="222.938182"/>
      </g>
     </g>
     <g id="text_23">
      <!-- 100 -->
      <g transform="translate(63.9125 226.737401)scale(0.1 -0.1)">
       <use xlink:href="#DejaVuSans-31"/>
       <use x="63.623047" xlink:href="#DejaVuSans-30"/>
       <use x="127.246094" xlink:href="#DejaVuSans-30"/>
      </g>
     </g>
    </g>
    <g id="ytick_7">
     <g id="line2d_26">
      <g>
       <use style="stroke:#000000;stroke-width:0.8;" x="90" xlink:href="#mf2a37071e3" y="193.847273"/>
      </g>
     </g>
     <g id="text_24">
      <!-- 200 -->
      <g transform="translate(63.9125 197.646491)scale(0.1 -0.1)">
       <use xlink:href="#DejaVuSans-32"/>
       <use x="63.623047" xlink:href="#DejaVuSans-30"/>
       <use x="127.246094" xlink:href="#DejaVuSans-30"/>
      </g>
     </g>
    </g>
    <g id="ytick_8">
     <g id="line2d_27">
      <g>
       <use style="stroke:#000000;stroke-width:0.8;" x="90" xlink:href="#mf2a37071e3" y="164.756364"/>
      </g>
     </g>
     <g id="text_25">
      <!-- 300 -->
      <g transform="translate(63.9125 168.555582)scale(0.1 -0.1)">
       <use xlink:href="#DejaVuSans-33"/>
       <use x="63.623047" xlink:href="#DejaVuSans-30"/>
       <use x="127.246094" xlink:href="#DejaVuSans-30"/>
      </g>
     </g>
    </g>
   </g>
   <g id="line2d_28">
    <path clip-path="url(#paebc69ead6)" d="M 115.363636 251.738182 
L 116.914929 230.210909 
L 118.466222 227.592727 
L 120.017515 244.174545 
L 121.568807 251.447273 
L 123.1201 238.356364 
L 124.671393 238.065455 
L 126.222686 233.992727 
L 127.773978 238.065455 
L 129.325271 238.938182 
L 130.876564 250.574545 
L 132.427857 248.247273 
L 133.979149 247.374545 
L 135.530442 238.938182 
L 137.081735 210.429091 
L 138.633028 225.265455 
L 140.18432 243.592727 
L 141.735613 247.083636 
L 143.286906 251.156364 
L 144.838198 238.065455 
L 146.389491 223.52 
L 147.940784 245.629091 
L 149.492077 243.010909 
L 151.043369 236.32 
L 152.594662 236.32 
L 154.145955 249.701818 
L 155.697248 236.610909 
L 157.24854 232.829091 
L 158.799833 243.301818 
L 160.351126 243.301818 
L 161.902419 238.356364 
L 163.453711 246.792727 
L 165.005004 249.12 
L 166.556297 225.556364 
L 168.10759 248.829091 
L 169.658882 247.956364 
L 171.210175 249.701818 
L 172.761468 247.665455 
L 174.312761 251.447273 
L 175.864053 251.447273 
L 177.415346 227.301818 
L 178.966639 214.210909 
L 180.517932 243.592727 
L 182.069224 245.047273 
L 183.620517 225.847273 
L 185.17181 250.865455 
L 186.723103 244.756364 
L 188.274395 241.265455 
L 189.825688 245.92 
L 191.376981 235.738182 
L 192.928274 246.792727 
L 194.479566 250.865455 
L 196.030859 251.738182 
L 197.582152 243.592727 
L 199.133445 241.847273 
L 200.684737 242.138182 
L 202.23603 240.683636 
L 203.787323 248.829091 
L 205.338616 250.865455 
L 206.889908 250.574545 
L 208.441201 247.083636 
L 209.992494 247.665455 
L 211.543786 242.429091 
L 213.095079 249.992727 
L 214.646372 251.156364 
L 216.197665 251.447273 
L 217.748957 248.247273 
L 219.30025 249.410909 
L 220.851543 250.283636 
L 222.402836 251.738182 
L 223.954128 247.083636 
L 225.505421 247.374545 
L 227.056714 250.865455 
L 228.608007 246.210909 
L 230.159299 242.429091 
L 231.710592 239.810909 
L 233.261885 247.665455 
L 234.813178 248.829091 
L 236.36447 231.956364 
L 237.915763 250.283636 
L 239.467056 233.701818 
L 241.018349 235.447273 
L 242.569641 239.810909 
L 244.120934 233.12 
L 245.672227 246.792727 
L 247.22352 234.574545 
L 248.774812 251.156364 
L 250.326105 233.410909 
L 251.877398 234.865455 
L 253.428691 226.138182 
L 254.979983 232.247273 
L 256.531276 239.810909 
L 258.082569 242.72 
L 259.633862 248.247273 
L 261.185154 228.465455 
L 262.736447 223.810909 
L 264.28774 236.029091 
L 265.839033 234.574545 
L 267.390325 231.956364 
L 268.941618 247.374545 
L 270.492911 248.538182 
L 272.044204 229.629091 
L 273.595496 246.792727 
L 276.698082 232.829091 
L 279.800667 250.865455 
L 281.35196 247.665455 
L 282.903253 235.156364 
L 284.454545 234.574545 
L 286.005838 224.683636 
L 287.557131 241.847273 
L 289.108424 250.283636 
L 290.659716 250.574545 
L 292.211009 249.12 
L 293.762302 242.429091 
L 295.313595 242.72 
L 296.864887 246.792727 
L 298.41618 230.501818 
L 299.967473 248.247273 
L 301.518766 241.847273 
L 303.070058 238.938182 
L 304.621351 240.683636 
L 306.172644 224.974545 
L 307.723937 235.447273 
L 309.275229 234.574545 
L 310.826522 239.810909 
L 312.377815 238.065455 
L 313.929108 239.229091 
L 315.4804 181.92 
L 317.031693 245.629091 
L 318.582986 230.501818 
L 320.134279 234.283636 
L 321.685571 226.429091 
L 323.236864 241.556364 
L 324.788157 198.792727 
L 326.33945 197.047273 
L 327.890742 203.156364 
L 329.442035 228.756364 
L 330.993328 172.029091 
L 332.544621 222.938182 
L 334.095913 245.92 
L 335.647206 245.047273 
L 337.198499 237.192727 
L 338.749791 230.792727 
L 340.301084 227.301818 
L 341.852377 234.283636 
L 343.40367 223.229091 
L 344.954962 243.592727 
L 346.506255 245.629091 
L 348.057548 204.32 
L 349.608841 232.247273 
L 351.160133 233.992727 
L 352.711426 246.210909 
L 354.262719 248.538182 
L 355.814012 247.956364 
L 357.365304 232.538182 
L 358.916597 182.501818 
L 360.46789 229.338182 
L 362.019183 233.992727 
L 363.570475 213.338182 
L 365.121768 244.174545 
L 366.673061 248.247273 
L 368.224354 244.756364 
L 369.775646 221.192727 
L 371.326939 238.356364 
L 372.878232 222.647273 
L 374.429525 199.083636 
L 375.980817 233.410909 
L 377.53211 240.974545 
L 379.083403 245.92 
L 380.634696 175.229091 
L 382.185988 174.356364 
L 383.737281 227.010909 
L 385.288574 243.301818 
L 386.839867 234.865455 
L 388.391159 236.32 
L 389.942452 248.829091 
L 391.493745 246.792727 
L 393.045038 185.992727 
L 394.59633 179.010909 
L 396.147623 197.047273 
L 397.698916 242.72 
L 399.250209 249.12 
L 400.801501 236.32 
L 402.352794 247.374545 
L 403.904087 236.029091 
L 405.455379 223.810909 
L 407.006672 160.101818 
L 408.557965 221.483636 
L 410.109258 220.610909 
L 411.66055 225.556364 
L 413.211843 245.338182 
L 414.763136 246.210909 
L 416.314429 219.447273 
L 417.865721 235.738182 
L 419.417014 235.447273 
L 420.968307 225.847273 
L 422.5196 243.010909 
L 424.070892 249.12 
L 425.622185 196.756364 
L 427.173478 236.901818 
L 428.724771 211.883636 
L 430.276063 205.483636 
L 431.827356 212.465455 
L 433.378649 249.701818 
L 434.929942 249.701818 
L 436.481234 221.774545 
L 438.032527 232.538182 
L 439.58382 231.956364 
L 441.135113 238.647273 
L 442.686405 242.429091 
L 444.237698 248.247273 
L 445.788991 245.92 
L 447.340284 225.265455 
L 448.891576 243.883636 
L 450.442869 240.101818 
L 451.994162 231.665455 
L 453.545455 238.356364 
L 455.096747 249.701818 
L 456.64804 249.701818 
L 458.199333 242.72 
L 459.750626 239.810909 
L 461.301918 246.210909 
L 462.853211 240.974545 
L 464.404504 243.301818 
L 465.955796 249.12 
L 467.507089 247.374545 
L 469.058382 230.501818 
L 470.609675 236.029091 
L 472.160967 165.92 
L 473.71226 212.756364 
L 475.263553 243.883636 
L 476.814846 241.847273 
L 478.366138 249.992727 
L 479.917431 231.665455 
L 481.468724 233.701818 
L 483.020017 241.556364 
L 484.571309 240.683636 
L 486.122602 235.156364 
L 487.673895 249.701818 
L 489.225188 250.283636 
L 490.77648 191.52 
L 492.327773 238.938182 
L 493.879066 244.756364 
L 495.430359 247.083636 
L 496.981651 200.247273 
L 498.532944 247.083636 
L 500.084237 247.956364 
L 503.186822 241.556364 
L 504.738115 241.847273 
L 506.289408 223.229091 
L 507.840701 244.174545 
L 509.391993 249.701818 
L 510.943286 243.301818 
L 512.494579 245.047273 
L 514.045872 178.138182 
L 515.597164 195.883636 
L 517.148457 240.101818 
L 518.69975 242.138182 
L 520.251043 244.465455 
L 521.802335 243.883636 
L 523.353628 231.083636 
L 524.904921 241.847273 
L 526.456214 243.010909 
L 528.007506 221.483636 
L 529.558799 238.938182 
L 531.110092 250.283636 
L 532.661384 251.738182 
L 534.212677 244.465455 
L 535.76397 245.047273 
L 537.315263 246.501818 
L 538.866555 243.301818 
L 540.417848 245.92 
L 541.969141 249.410909 
L 543.520434 251.156364 
L 545.071726 243.301818 
L 546.623019 243.010909 
L 548.174312 230.210909 
L 549.725605 228.465455 
L 551.276897 250.574545 
L 552.82819 245.92 
L 554.379483 251.738182 
L 555.930776 238.647273 
L 557.482068 239.810909 
L 559.033361 242.429091 
L 560.584654 239.52 
L 562.135947 248.247273 
L 563.687239 245.338182 
L 565.238532 249.992727 
L 566.789825 250.283636 
L 568.341118 236.32 
L 569.89241 238.356364 
L 571.443703 243.592727 
L 572.994996 240.392727 
L 574.546289 230.792727 
L 576.097581 241.556364 
L 577.648874 248.247273 
L 579.200167 231.956364 
L 580.75146 250.283636 
L 582.302752 245.629091 
L 583.854045 243.883636 
L 585.405338 251.156364 
L 586.956631 250.865455 
L 588.507923 244.465455 
L 590.059216 245.047273 
L 591.610509 231.665455 
L 593.161802 229.92 
L 594.713094 248.829091 
L 596.264387 249.701818 
L 597.81568 250.283636 
L 599.366972 242.138182 
L 600.918265 241.847273 
L 602.469558 226.138182 
L 604.020851 235.156364 
L 605.572143 234.865455 
L 607.123436 244.756364 
L 608.674729 249.701818 
L 610.226022 245.338182 
L 611.777314 246.210909 
L 613.328607 249.701818 
L 614.8799 236.029091 
L 616.431193 247.374545 
L 617.982485 241.847273 
L 619.533778 223.810909 
L 621.085071 250.865455 
L 622.636364 247.956364 
L 622.636364 247.956364 
" style="fill:none;stroke:#1f77b4;stroke-linecap:square;stroke-width:1.5;"/>
   </g>
   <g id="line2d_29">
    <path clip-path="url(#paebc69ead6)" d="M 115.363636 251.738182 
L 116.914929 249.410909 
L 118.466222 248.247273 
L 120.017515 249.410909 
L 121.568807 251.738182 
L 123.1201 249.992727 
L 124.671393 249.12 
L 126.222686 249.12 
L 127.773978 248.829091 
L 129.325271 249.410909 
L 130.876564 251.447273 
L 137.081735 249.12 
L 138.633028 248.829091 
L 140.18432 249.992727 
L 143.286906 251.738182 
L 144.838198 248.829091 
L 146.389491 249.410909 
L 147.940784 250.574545 
L 149.492077 250.865455 
L 151.043369 250.574545 
L 152.594662 251.447273 
L 154.145955 251.156364 
L 155.697248 249.992727 
L 157.24854 251.156364 
L 158.799833 248.829091 
L 160.351126 249.701818 
L 161.902419 250.283636 
L 163.453711 251.156364 
L 165.005004 251.156364 
L 166.556297 247.374545 
L 168.10759 251.447273 
L 169.658882 251.447273 
L 171.210175 251.156364 
L 174.312761 251.738182 
L 175.864053 251.447273 
L 177.415346 249.410909 
L 178.966639 246.792727 
L 180.517932 248.538182 
L 182.069224 249.992727 
L 183.620517 249.992727 
L 185.17181 251.447273 
L 186.723103 250.283636 
L 188.274395 249.992727 
L 189.825688 250.865455 
L 191.376981 247.665455 
L 192.928274 249.410909 
L 194.479566 251.447273 
L 196.030859 251.738182 
L 197.582152 249.12 
L 200.684737 249.12 
L 202.23603 249.992727 
L 203.787323 250.283636 
L 205.338616 251.156364 
L 206.889908 251.447273 
L 208.441201 250.865455 
L 209.992494 250.574545 
L 211.543786 251.156364 
L 214.646372 251.156364 
L 216.197665 251.447273 
L 217.748957 250.865455 
L 220.851543 250.865455 
L 222.402836 251.738182 
L 223.954128 251.156364 
L 225.505421 251.156364 
L 227.056714 250.865455 
L 228.608007 249.701818 
L 230.159299 247.956364 
L 231.710592 249.992727 
L 233.261885 251.156364 
L 234.813178 250.865455 
L 236.36447 250.865455 
L 237.915763 251.156364 
L 239.467056 249.410909 
L 241.018349 248.538182 
L 242.569641 249.701818 
L 244.120934 246.792727 
L 245.672227 249.701818 
L 247.22352 250.283636 
L 248.774812 251.156364 
L 250.326105 250.574545 
L 251.877398 250.574545 
L 253.428691 248.247273 
L 254.979983 249.410909 
L 256.531276 249.12 
L 258.082569 249.12 
L 259.633862 250.283636 
L 261.185154 245.92 
L 262.736447 247.665455 
L 264.28774 249.12 
L 265.839033 247.374545 
L 267.390325 246.210909 
L 268.941618 250.865455 
L 270.492911 250.574545 
L 272.044204 248.538182 
L 273.595496 249.992727 
L 275.146789 247.956364 
L 276.698082 249.410909 
L 278.249374 249.410909 
L 279.800667 250.865455 
L 281.35196 251.156364 
L 282.903253 248.829091 
L 284.454545 247.956364 
L 286.005838 248.247273 
L 287.557131 250.865455 
L 289.108424 251.447273 
L 292.211009 250.865455 
L 293.762302 250.865455 
L 295.313595 249.410909 
L 296.864887 250.283636 
L 298.41618 248.829091 
L 299.967473 250.865455 
L 301.518766 250.283636 
L 303.070058 250.865455 
L 304.621351 249.12 
L 306.172644 248.829091 
L 307.723937 248.829091 
L 309.275229 247.956364 
L 310.826522 250.283636 
L 312.377815 250.865455 
L 313.929108 250.865455 
L 315.4804 242.138182 
L 317.031693 248.829091 
L 318.582986 248.829091 
L 320.134279 247.374545 
L 321.685571 249.12 
L 323.236864 250.574545 
L 324.788157 250.574545 
L 326.33945 246.210909 
L 327.890742 246.501818 
L 329.442035 248.247273 
L 330.993328 246.501818 
L 332.544621 247.374545 
L 334.095913 249.992727 
L 335.647206 250.865455 
L 337.198499 247.374545 
L 338.749791 245.92 
L 340.301084 247.083636 
L 341.852377 247.374545 
L 343.40367 249.410909 
L 344.954962 251.156364 
L 346.506255 249.992727 
L 348.057548 247.665455 
L 349.608841 247.665455 
L 351.160133 248.538182 
L 352.711426 250.574545 
L 355.814012 251.156364 
L 357.365304 249.992727 
L 358.916597 246.210909 
L 360.46789 247.083636 
L 362.019183 248.538182 
L 363.570475 246.792727 
L 365.121768 249.701818 
L 366.673061 251.156364 
L 369.775646 249.410909 
L 371.326939 248.247273 
L 372.878232 248.538182 
L 374.429525 247.374545 
L 375.980817 249.12 
L 377.53211 249.410909 
L 379.083403 250.865455 
L 380.634696 245.629091 
L 382.185988 245.338182 
L 383.737281 247.956364 
L 385.288574 248.829091 
L 386.839867 249.12 
L 388.391159 249.12 
L 389.942452 250.865455 
L 391.493745 250.283636 
L 393.045038 245.629091 
L 394.59633 244.174545 
L 396.147623 246.792727 
L 397.698916 248.829091 
L 399.250209 250.283636 
L 400.801501 249.12 
L 402.352794 250.283636 
L 403.904087 246.210909 
L 405.455379 246.501818 
L 407.006672 228.465455 
L 408.557965 247.956364 
L 410.109258 246.501818 
L 411.66055 250.574545 
L 413.211843 251.738182 
L 414.763136 249.701818 
L 416.314429 248.247273 
L 417.865721 248.247273 
L 419.417014 248.538182 
L 420.968307 247.665455 
L 424.070892 251.156364 
L 425.622185 249.12 
L 427.173478 248.247273 
L 428.724771 246.792727 
L 430.276063 247.083636 
L 431.827356 245.629091 
L 433.378649 250.574545 
L 434.929942 251.738182 
L 436.481234 245.629091 
L 438.032527 247.083636 
L 439.58382 249.410909 
L 441.135113 247.374545 
L 442.686405 248.247273 
L 444.237698 251.447273 
L 445.788991 250.283636 
L 447.340284 248.247273 
L 448.891576 249.410909 
L 450.442869 247.956364 
L 451.994162 246.210909 
L 455.096747 250.865455 
L 456.64804 251.156364 
L 458.199333 249.12 
L 459.750626 247.665455 
L 461.301918 249.992727 
L 462.853211 249.410909 
L 464.404504 249.410909 
L 467.507089 249.992727 
L 469.058382 246.792727 
L 470.609675 248.829091 
L 472.160967 248.829091 
L 473.71226 249.992727 
L 475.263553 249.12 
L 476.814846 251.156364 
L 478.366138 250.283636 
L 479.917431 248.247273 
L 481.468724 249.12 
L 483.020017 248.829091 
L 484.571309 248.247273 
L 486.122602 249.12 
L 487.673895 251.156364 
L 489.225188 250.865455 
L 490.77648 247.374545 
L 492.327773 250.574545 
L 493.879066 249.701818 
L 495.430359 249.12 
L 496.981651 245.629091 
L 498.532944 251.156364 
L 500.084237 250.574545 
L 501.63553 249.701818 
L 503.186822 250.283636 
L 504.738115 248.829091 
L 506.289408 247.956364 
L 507.840701 249.12 
L 509.391993 250.865455 
L 510.943286 250.865455 
L 512.494579 249.410909 
L 514.045872 247.083636 
L 515.597164 247.083636 
L 517.148457 250.283636 
L 518.69975 248.538182 
L 520.251043 250.574545 
L 521.802335 249.410909 
L 523.353628 247.665455 
L 524.904921 248.538182 
L 526.456214 248.538182 
L 528.007506 247.665455 
L 529.558799 247.956364 
L 531.110092 251.156364 
L 532.661384 251.738182 
L 534.212677 249.992727 
L 535.76397 249.992727 
L 537.315263 250.283636 
L 538.866555 250.283636 
L 540.417848 250.574545 
L 543.520434 251.738182 
L 545.071726 250.283636 
L 546.623019 249.410909 
L 548.174312 249.701818 
L 549.725605 248.538182 
L 551.276897 251.156364 
L 552.82819 250.283636 
L 554.379483 251.738182 
L 555.930776 250.283636 
L 557.482068 250.283636 
L 559.033361 248.247273 
L 560.584654 247.665455 
L 562.135947 249.410909 
L 563.687239 250.574545 
L 565.238532 250.574545 
L 566.789825 250.865455 
L 568.341118 248.538182 
L 569.89241 249.410909 
L 571.443703 249.701818 
L 572.994996 249.701818 
L 574.546289 248.829091 
L 576.097581 249.12 
L 577.648874 250.574545 
L 579.200167 248.247273 
L 580.75146 251.447273 
L 582.302752 249.701818 
L 583.854045 249.701818 
L 585.405338 251.156364 
L 586.956631 250.865455 
L 588.507923 249.992727 
L 590.059216 249.992727 
L 591.610509 249.12 
L 593.161802 249.410909 
L 594.713094 251.156364 
L 596.264387 250.865455 
L 597.81568 251.447273 
L 599.366972 250.574545 
L 602.469558 249.992727 
L 604.020851 248.538182 
L 605.572143 249.12 
L 607.123436 250.283636 
L 608.674729 250.865455 
L 610.226022 250.283636 
L 611.777314 251.447273 
L 613.328607 250.865455 
L 614.8799 249.12 
L 616.431193 249.992727 
L 617.982485 251.156364 
L 619.533778 248.247273 
L 621.085071 251.447273 
L 622.636364 251.156364 
L 622.636364 251.156364 
" style="fill:none;stroke:#ff7f0e;stroke-linecap:square;stroke-width:1.5;"/>
   </g>
   <g id="patch_9">
    <path d="M 90 256.32 
L 90 155.52 
" style="fill:none;stroke:#000000;stroke-linecap:square;stroke-linejoin:miter;stroke-width:0.8;"/>
   </g>
   <g id="patch_10">
    <path d="M 648 256.32 
L 648 155.52 
" style="fill:none;stroke:#000000;stroke-linecap:square;stroke-linejoin:miter;stroke-width:0.8;"/>
   </g>
   <g id="patch_11">
    <path d="M 90 256.32 
L 648 256.32 
" style="fill:none;stroke:#000000;stroke-linecap:square;stroke-linejoin:miter;stroke-width:0.8;"/>
   </g>
   <g id="patch_12">
    <path d="M 90 155.52 
L 648 155.52 
" style="fill:none;stroke:#000000;stroke-linecap:square;stroke-linejoin:miter;stroke-width:0.8;"/>
   </g>
   <g id="legend_2">
    <g id="patch_13">
     <path d="M 97 192.87625 
L 234.217188 192.87625 
Q 236.217188 192.87625 236.217188 190.87625 
L 236.217188 162.52 
Q 236.217188 160.52 234.217188 160.52 
L 97 160.52 
Q 95 160.52 95 162.52 
L 95 190.87625 
Q 95 192.87625 97 192.87625 
z
" style="fill:#ffffff;opacity:0.8;stroke:#cccccc;stroke-linejoin:miter;"/>
    </g>
    <g id="line2d_30">
     <path d="M 99 168.618437 
L 119 168.618437 
" style="fill:none;stroke:#1f77b4;stroke-linecap:square;stroke-width:1.5;"/>
    </g>
    <g id="line2d_31"/>
    <g id="text_26">
     <!-- Total GitHub Views -->
     <g transform="translate(127 172.118437)scale(0.1 -0.1)">
      <defs>
       <path d="M 1831 0 
L 50 4666 
L 709 4666 
L 2188 738 
L 3669 4666 
L 4325 4666 
L 2547 0 
L 1831 0 
z
" id="DejaVuSans-56" transform="scale(0.015625)"/>
       <path d="M 269 3500 
L 844 3500 
L 1563 769 
L 2278 3500 
L 2956 3500 
L 3675 769 
L 4391 3500 
L 4966 3500 
L 4050 0 
L 3372 0 
L 2619 2869 
L 1863 0 
L 1184 0 
L 269 3500 
z
" id="DejaVuSans-77" transform="scale(0.015625)"/>
      </defs>
      <use xlink:href="#DejaVuSans-54"/>
      <use x="44.083984" xlink:href="#DejaVuSans-6f"/>
      <use x="105.265625" xlink:href="#DejaVuSans-74"/>
      <use x="144.474609" xlink:href="#DejaVuSans-61"/>
      <use x="205.753906" xlink:href="#DejaVuSans-6c"/>
      <use x="233.537109" xlink:href="#DejaVuSans-20"/>
      <use x="265.324219" xlink:href="#DejaVuSans-47"/>
      <use x="342.814453" xlink:href="#DejaVuSans-69"/>
      <use x="370.597656" xlink:href="#DejaVuSans-74"/>
      <use x="409.806641" xlink:href="#DejaVuSans-48"/>
      <use x="485.001953" xlink:href="#DejaVuSans-75"/>
      <use x="548.380859" xlink:href="#DejaVuSans-62"/>
      <use x="611.857422" xlink:href="#DejaVuSans-20"/>
      <use x="643.644531" xlink:href="#DejaVuSans-56"/>
      <use x="709.802734" xlink:href="#DejaVuSans-69"/>
      <use x="737.585938" xlink:href="#DejaVuSans-65"/>
      <use x="799.109375" xlink:href="#DejaVuSans-77"/>
      <use x="880.896484" xlink:href="#DejaVuSans-73"/>
     </g>
    </g>
    <g id="line2d_32">
     <path d="M 99 183.296562 
L 119 183.296562 
" style="fill:none;stroke:#ff7f0e;stroke-linecap:square;stroke-width:1.5;"/>
    </g>
    <g id="line2d_33"/>
    <g id="text_27">
     <!-- Unique GitHub Views -->
     <g transform="translate(127 186.796562)scale(0.1 -0.1)">
      <use xlink:href="#DejaVuSans-55"/>
      <use x="73.193359" xlink:href="#DejaVuSans-6e"/>
      <use x="136.572266" xlink:href="#DejaVuSans-69"/>
      <use x="164.355469" xlink:href="#DejaVuSans-71"/>
      <use x="227.832031" xlink:href="#DejaVuSans-75"/>
      <use x="291.210938" xlink:href="#DejaVuSans-65"/>
      <use x="352.734375" xlink:href="#DejaVuSans-20"/>
      <use x="384.521484" xlink:href="#DejaVuSans-47"/>
      <use x="462.011719" xlink:href="#DejaVuSans-69"/>
      <use x="489.794922" xlink:href="#DejaVuSans-74"/>
      <use x="529.003906" xlink:href="#DejaVuSans-48"/>
      <use x="604.199219" xlink:href="#DejaVuSans-75"/>
      <use x="667.578125" xlink:href="#DejaVuSans-62"/>
      <use x="731.054688" xlink:href="#DejaVuSans-20"/>
      <use x="762.841797" xlink:href="#DejaVuSans-56"/>
      <use x="829" xlink:href="#DejaVuSans-69"/>
      <use x="856.783203" xlink:href="#DejaVuSans-65"/>
      <use x="918.306641" xlink:href="#DejaVuSans-77"/>
      <use x="1000.09375" xlink:href="#DejaVuSans-73"/>
     </g>
    </g>
   </g>
  </g>
 </g>
 <defs>
  <clipPath id="pb0c75dec2e">
   <rect height="100.8" width="558" x="90" y="34.56"/>
  </clipPath>
  <clipPath id="paebc69ead6">
   <rect height="100.8" width="558" x="90" y="155.52"/>
  </clipPath>
 </defs>
</svg>
