<?xml version="1.0" encoding="utf-8" standalone="no"?>
<!DOCTYPE svg PUBLIC "-//W3C//DTD SVG 1.1//EN"
  "http://www.w3.org/Graphics/SVG/1.1/DTD/svg11.dtd">
<svg xmlns:xlink="http://www.w3.org/1999/xlink" width="720pt" height="288pt" viewBox="0 0 720 288" xmlns="http://www.w3.org/2000/svg" version="1.1">
 <metadata>
  <rdf:RDF xmlns:dc="http://purl.org/dc/elements/1.1/" xmlns:cc="http://creativecommons.org/ns#" xmlns:rdf="http://www.w3.org/1999/02/22-rdf-syntax-ns#">
   <cc:Work>
    <dc:type rdf:resource="http://purl.org/dc/dcmitype/StillImage"/>
    <dc:date>2022-05-02T00:46:07.410790</dc:date>
    <dc:format>image/svg+xml</dc:format>
    <dc:creator>
     <cc:Agent>
      <dc:title>Matplotlib v3.5.1, https://matplotlib.org/</dc:title>
     </cc:Agent>
    </dc:creator>
   </cc:Work>
  </rdf:RDF>
 </metadata>
 <defs>
  <style type="text/css">*{stroke-linejoin: round; stroke-linecap: butt}</style>
 </defs>
 <g id="figure_1">
  <g id="patch_1">
   <path d="M 0 288 
L 720 288 
L 720 0 
L 0 0 
z
" style="fill: #ffffff"/>
  </g>
  <g id="axes_1">
   <g id="patch_2">
    <path d="M 90 135.36 
L 648 135.36 
L 648 34.56 
L 90 34.56 
z
" style="fill: #ffffff"/>
   </g>
   <g id="matplotlib.axis_1">
    <g id="xtick_1">
     <g id="line2d_1">
      <defs>
       <path id="m0fade6cd75" d="M 0 0 
L 0 3.5 
" style="stroke: #000000; stroke-width: 0.8"/>
      </defs>
      <g>
       <use xlink:href="#m0fade6cd75" x="115.363636" y="135.36" style="stroke: #000000; stroke-width: 0.8"/>
      </g>
     </g>
     <g id="text_1">
      <!-- 2020-10-22 -->
      <g transform="translate(86.305824 149.958437)scale(0.1 -0.1)">
       <defs>
        <path id="DejaVuSans-32" d="M 1228 531 
L 3431 531 
L 3431 0 
L 469 0 
L 469 531 
Q 828 903 1448 1529 
Q 2069 2156 2228 2338 
Q 2531 2678 2651 2914 
Q 2772 3150 2772 3378 
Q 2772 3750 2511 3984 
Q 2250 4219 1831 4219 
Q 1534 4219 1204 4116 
Q 875 4013 500 3803 
L 500 4441 
Q 881 4594 1212 4672 
Q 1544 4750 1819 4750 
Q 2544 4750 2975 4387 
Q 3406 4025 3406 3419 
Q 3406 3131 3298 2873 
Q 3191 2616 2906 2266 
Q 2828 2175 2409 1742 
Q 1991 1309 1228 531 
z
" transform="scale(0.015625)"/>
        <path id="DejaVuSans-30" d="M 2034 4250 
Q 1547 4250 1301 3770 
Q 1056 3291 1056 2328 
Q 1056 1369 1301 889 
Q 1547 409 2034 409 
Q 2525 409 2770 889 
Q 3016 1369 3016 2328 
Q 3016 3291 2770 3770 
Q 2525 4250 2034 4250 
z
M 2034 4750 
Q 2819 4750 3233 4129 
Q 3647 3509 3647 2328 
Q 3647 1150 3233 529 
Q 2819 -91 2034 -91 
Q 1250 -91 836 529 
Q 422 1150 422 2328 
Q 422 3509 836 4129 
Q 1250 4750 2034 4750 
z
" transform="scale(0.015625)"/>
        <path id="DejaVuSans-2d" d="M 313 2009 
L 1997 2009 
L 1997 1497 
L 313 1497 
L 313 2009 
z
" transform="scale(0.015625)"/>
        <path id="DejaVuSans-31" d="M 794 531 
L 1825 531 
L 1825 4091 
L 703 3866 
L 703 4441 
L 1819 4666 
L 2450 4666 
L 2450 531 
L 3481 531 
L 3481 0 
L 794 0 
L 794 531 
z
" transform="scale(0.015625)"/>
       </defs>
       <use xlink:href="#DejaVuSans-32"/>
       <use xlink:href="#DejaVuSans-30" x="63.623047"/>
       <use xlink:href="#DejaVuSans-32" x="127.246094"/>
       <use xlink:href="#DejaVuSans-30" x="190.869141"/>
       <use xlink:href="#DejaVuSans-2d" x="254.492188"/>
       <use xlink:href="#DejaVuSans-31" x="290.576172"/>
       <use xlink:href="#DejaVuSans-30" x="354.199219"/>
       <use xlink:href="#DejaVuSans-2d" x="417.822266"/>
       <use xlink:href="#DejaVuSans-32" x="453.90625"/>
       <use xlink:href="#DejaVuSans-32" x="517.529297"/>
      </g>
     </g>
    </g>
    <g id="xtick_2">
     <g id="line2d_2">
      <g>
       <use xlink:href="#m0fade6cd75" x="233.334038" y="135.36" style="stroke: #000000; stroke-width: 0.8"/>
      </g>
     </g>
     <g id="text_2">
      <!-- 2021-03-17 -->
      <g transform="translate(204.276226 149.958437)scale(0.1 -0.1)">
       <defs>
        <path id="DejaVuSans-33" d="M 2597 2516 
Q 3050 2419 3304 2112 
Q 3559 1806 3559 1356 
Q 3559 666 3084 287 
Q 2609 -91 1734 -91 
Q 1441 -91 1130 -33 
Q 819 25 488 141 
L 488 750 
Q 750 597 1062 519 
Q 1375 441 1716 441 
Q 2309 441 2620 675 
Q 2931 909 2931 1356 
Q 2931 1769 2642 2001 
Q 2353 2234 1838 2234 
L 1294 2234 
L 1294 2753 
L 1863 2753 
Q 2328 2753 2575 2939 
Q 2822 3125 2822 3475 
Q 2822 3834 2567 4026 
Q 2313 4219 1838 4219 
Q 1578 4219 1281 4162 
Q 984 4106 628 3988 
L 628 4550 
Q 988 4650 1302 4700 
Q 1616 4750 1894 4750 
Q 2613 4750 3031 4423 
Q 3450 4097 3450 3541 
Q 3450 3153 3228 2886 
Q 3006 2619 2597 2516 
z
" transform="scale(0.015625)"/>
        <path id="DejaVuSans-37" d="M 525 4666 
L 3525 4666 
L 3525 4397 
L 1831 0 
L 1172 0 
L 2766 4134 
L 525 4134 
L 525 4666 
z
" transform="scale(0.015625)"/>
       </defs>
       <use xlink:href="#DejaVuSans-32"/>
       <use xlink:href="#DejaVuSans-30" x="63.623047"/>
       <use xlink:href="#DejaVuSans-32" x="127.246094"/>
       <use xlink:href="#DejaVuSans-31" x="190.869141"/>
       <use xlink:href="#DejaVuSans-2d" x="254.492188"/>
       <use xlink:href="#DejaVuSans-30" x="290.576172"/>
       <use xlink:href="#DejaVuSans-33" x="354.199219"/>
       <use xlink:href="#DejaVuSans-2d" x="417.822266"/>
       <use xlink:href="#DejaVuSans-31" x="453.90625"/>
       <use xlink:href="#DejaVuSans-37" x="517.529297"/>
      </g>
     </g>
    </g>
    <g id="xtick_3">
     <g id="line2d_3">
      <g>
       <use xlink:href="#m0fade6cd75" x="351.30444" y="135.36" style="stroke: #000000; stroke-width: 0.8"/>
      </g>
     </g>
     <g id="text_3">
      <!-- 2021-07-07 -->
      <g transform="translate(322.246627 149.958437)scale(0.1 -0.1)">
       <use xlink:href="#DejaVuSans-32"/>
       <use xlink:href="#DejaVuSans-30" x="63.623047"/>
       <use xlink:href="#DejaVuSans-32" x="127.246094"/>
       <use xlink:href="#DejaVuSans-31" x="190.869141"/>
       <use xlink:href="#DejaVuSans-2d" x="254.492188"/>
       <use xlink:href="#DejaVuSans-30" x="290.576172"/>
       <use xlink:href="#DejaVuSans-37" x="354.199219"/>
       <use xlink:href="#DejaVuSans-2d" x="417.822266"/>
       <use xlink:href="#DejaVuSans-30" x="453.90625"/>
       <use xlink:href="#DejaVuSans-37" x="517.529297"/>
      </g>
     </g>
    </g>
    <g id="xtick_4">
     <g id="line2d_4">
      <g>
       <use xlink:href="#m0fade6cd75" x="469.274841" y="135.36" style="stroke: #000000; stroke-width: 0.8"/>
      </g>
     </g>
     <g id="text_4">
      <!-- 2021-11-18 -->
      <g transform="translate(440.217029 149.958437)scale(0.1 -0.1)">
       <defs>
        <path id="DejaVuSans-38" d="M 2034 2216 
Q 1584 2216 1326 1975 
Q 1069 1734 1069 1313 
Q 1069 891 1326 650 
Q 1584 409 2034 409 
Q 2484 409 2743 651 
Q 3003 894 3003 1313 
Q 3003 1734 2745 1975 
Q 2488 2216 2034 2216 
z
M 1403 2484 
Q 997 2584 770 2862 
Q 544 3141 544 3541 
Q 544 4100 942 4425 
Q 1341 4750 2034 4750 
Q 2731 4750 3128 4425 
Q 3525 4100 3525 3541 
Q 3525 3141 3298 2862 
Q 3072 2584 2669 2484 
Q 3125 2378 3379 2068 
Q 3634 1759 3634 1313 
Q 3634 634 3220 271 
Q 2806 -91 2034 -91 
Q 1263 -91 848 271 
Q 434 634 434 1313 
Q 434 1759 690 2068 
Q 947 2378 1403 2484 
z
M 1172 3481 
Q 1172 3119 1398 2916 
Q 1625 2713 2034 2713 
Q 2441 2713 2670 2916 
Q 2900 3119 2900 3481 
Q 2900 3844 2670 4047 
Q 2441 4250 2034 4250 
Q 1625 4250 1398 4047 
Q 1172 3844 1172 3481 
z
" transform="scale(0.015625)"/>
       </defs>
       <use xlink:href="#DejaVuSans-32"/>
       <use xlink:href="#DejaVuSans-30" x="63.623047"/>
       <use xlink:href="#DejaVuSans-32" x="127.246094"/>
       <use xlink:href="#DejaVuSans-31" x="190.869141"/>
       <use xlink:href="#DejaVuSans-2d" x="254.492188"/>
       <use xlink:href="#DejaVuSans-31" x="290.576172"/>
       <use xlink:href="#DejaVuSans-31" x="354.199219"/>
       <use xlink:href="#DejaVuSans-2d" x="417.822266"/>
       <use xlink:href="#DejaVuSans-31" x="453.90625"/>
       <use xlink:href="#DejaVuSans-38" x="517.529297"/>
      </g>
     </g>
    </g>
    <g id="xtick_5">
     <g id="line2d_5">
      <g>
       <use xlink:href="#m0fade6cd75" x="587.245243" y="135.36" style="stroke: #000000; stroke-width: 0.8"/>
      </g>
     </g>
     <g id="text_5">
      <!-- 2022-03-21 -->
      <g transform="translate(558.187431 149.958437)scale(0.1 -0.1)">
       <use xlink:href="#DejaVuSans-32"/>
       <use xlink:href="#DejaVuSans-30" x="63.623047"/>
       <use xlink:href="#DejaVuSans-32" x="127.246094"/>
       <use xlink:href="#DejaVuSans-32" x="190.869141"/>
       <use xlink:href="#DejaVuSans-2d" x="254.492188"/>
       <use xlink:href="#DejaVuSans-30" x="290.576172"/>
       <use xlink:href="#DejaVuSans-33" x="354.199219"/>
       <use xlink:href="#DejaVuSans-2d" x="417.822266"/>
       <use xlink:href="#DejaVuSans-32" x="453.90625"/>
       <use xlink:href="#DejaVuSans-31" x="517.529297"/>
      </g>
     </g>
    </g>
    <g id="text_6">
     <!-- _date -->
     <g transform="translate(355.225 163.636562)scale(0.1 -0.1)">
      <defs>
       <path id="DejaVuSans-5f" d="M 3263 -1063 
L 3263 -1509 
L -63 -1509 
L -63 -1063 
L 3263 -1063 
z
" transform="scale(0.015625)"/>
       <path id="DejaVuSans-64" d="M 2906 2969 
L 2906 4863 
L 3481 4863 
L 3481 0 
L 2906 0 
L 2906 525 
Q 2725 213 2448 61 
Q 2172 -91 1784 -91 
Q 1150 -91 751 415 
Q 353 922 353 1747 
Q 353 2572 751 3078 
Q 1150 3584 1784 3584 
Q 2172 3584 2448 3432 
Q 2725 3281 2906 2969 
z
M 947 1747 
Q 947 1113 1208 752 
Q 1469 391 1925 391 
Q 2381 391 2643 752 
Q 2906 1113 2906 1747 
Q 2906 2381 2643 2742 
Q 2381 3103 1925 3103 
Q 1469 3103 1208 2742 
Q 947 2381 947 1747 
z
" transform="scale(0.015625)"/>
       <path id="DejaVuSans-61" d="M 2194 1759 
Q 1497 1759 1228 1600 
Q 959 1441 959 1056 
Q 959 750 1161 570 
Q 1363 391 1709 391 
Q 2188 391 2477 730 
Q 2766 1069 2766 1631 
L 2766 1759 
L 2194 1759 
z
M 3341 1997 
L 3341 0 
L 2766 0 
L 2766 531 
Q 2569 213 2275 61 
Q 1981 -91 1556 -91 
Q 1019 -91 701 211 
Q 384 513 384 1019 
Q 384 1609 779 1909 
Q 1175 2209 1959 2209 
L 2766 2209 
L 2766 2266 
Q 2766 2663 2505 2880 
Q 2244 3097 1772 3097 
Q 1472 3097 1187 3025 
Q 903 2953 641 2809 
L 641 3341 
Q 956 3463 1253 3523 
Q 1550 3584 1831 3584 
Q 2591 3584 2966 3190 
Q 3341 2797 3341 1997 
z
" transform="scale(0.015625)"/>
       <path id="DejaVuSans-74" d="M 1172 4494 
L 1172 3500 
L 2356 3500 
L 2356 3053 
L 1172 3053 
L 1172 1153 
Q 1172 725 1289 603 
Q 1406 481 1766 481 
L 2356 481 
L 2356 0 
L 1766 0 
Q 1100 0 847 248 
Q 594 497 594 1153 
L 594 3053 
L 172 3053 
L 172 3500 
L 594 3500 
L 594 4494 
L 1172 4494 
z
" transform="scale(0.015625)"/>
       <path id="DejaVuSans-65" d="M 3597 1894 
L 3597 1613 
L 953 1613 
Q 991 1019 1311 708 
Q 1631 397 2203 397 
Q 2534 397 2845 478 
Q 3156 559 3463 722 
L 3463 178 
Q 3153 47 2828 -22 
Q 2503 -91 2169 -91 
Q 1331 -91 842 396 
Q 353 884 353 1716 
Q 353 2575 817 3079 
Q 1281 3584 2069 3584 
Q 2775 3584 3186 3129 
Q 3597 2675 3597 1894 
z
M 3022 2063 
Q 3016 2534 2758 2815 
Q 2500 3097 2075 3097 
Q 1594 3097 1305 2825 
Q 1016 2553 972 2059 
L 3022 2063 
z
" transform="scale(0.015625)"/>
      </defs>
      <use xlink:href="#DejaVuSans-5f"/>
      <use xlink:href="#DejaVuSans-64" x="50"/>
      <use xlink:href="#DejaVuSans-61" x="113.476562"/>
      <use xlink:href="#DejaVuSans-74" x="174.755859"/>
      <use xlink:href="#DejaVuSans-65" x="213.964844"/>
     </g>
    </g>
   </g>
   <g id="matplotlib.axis_2">
    <g id="ytick_1">
     <g id="line2d_6">
      <defs>
       <path id="m615b997423" d="M 0 0 
L -3.5 0 
" style="stroke: #000000; stroke-width: 0.8"/>
      </defs>
      <g>
       <use xlink:href="#m615b997423" x="90" y="131.401558" style="stroke: #000000; stroke-width: 0.8"/>
      </g>
     </g>
     <g id="text_7">
      <!-- 0 -->
      <g transform="translate(76.6375 135.200777)scale(0.1 -0.1)">
       <use xlink:href="#DejaVuSans-30"/>
      </g>
     </g>
    </g>
    <g id="ytick_2">
     <g id="line2d_7">
      <g>
       <use xlink:href="#m615b997423" x="90" y="100.232727" style="stroke: #000000; stroke-width: 0.8"/>
      </g>
     </g>
     <g id="text_8">
      <!-- 50 -->
      <g transform="translate(70.275 104.031946)scale(0.1 -0.1)">
       <defs>
        <path id="DejaVuSans-35" d="M 691 4666 
L 3169 4666 
L 3169 4134 
L 1269 4134 
L 1269 2991 
Q 1406 3038 1543 3061 
Q 1681 3084 1819 3084 
Q 2600 3084 3056 2656 
Q 3513 2228 3513 1497 
Q 3513 744 3044 326 
Q 2575 -91 1722 -91 
Q 1428 -91 1123 -41 
Q 819 9 494 109 
L 494 744 
Q 775 591 1075 516 
Q 1375 441 1709 441 
Q 2250 441 2565 725 
Q 2881 1009 2881 1497 
Q 2881 1984 2565 2268 
Q 2250 2553 1709 2553 
Q 1456 2553 1204 2497 
Q 953 2441 691 2322 
L 691 4666 
z
" transform="scale(0.015625)"/>
       </defs>
       <use xlink:href="#DejaVuSans-35"/>
       <use xlink:href="#DejaVuSans-30" x="63.623047"/>
      </g>
     </g>
    </g>
    <g id="ytick_3">
     <g id="line2d_8">
      <g>
       <use xlink:href="#m615b997423" x="90" y="69.063896" style="stroke: #000000; stroke-width: 0.8"/>
      </g>
     </g>
     <g id="text_9">
      <!-- 100 -->
      <g transform="translate(63.9125 72.863115)scale(0.1 -0.1)">
       <use xlink:href="#DejaVuSans-31"/>
       <use xlink:href="#DejaVuSans-30" x="63.623047"/>
       <use xlink:href="#DejaVuSans-30" x="127.246094"/>
      </g>
     </g>
    </g>
    <g id="ytick_4">
     <g id="line2d_9">
      <g>
       <use xlink:href="#m615b997423" x="90" y="37.895065" style="stroke: #000000; stroke-width: 0.8"/>
      </g>
     </g>
     <g id="text_10">
      <!-- 150 -->
      <g transform="translate(63.9125 41.694284)scale(0.1 -0.1)">
       <use xlink:href="#DejaVuSans-31"/>
       <use xlink:href="#DejaVuSans-35" x="63.623047"/>
       <use xlink:href="#DejaVuSans-30" x="127.246094"/>
      </g>
     </g>
    </g>
   </g>
   <g id="line2d_10">
    <path d="M 115.363636 127.661299 
L 116.54334 128.284675 
L 117.723044 130.778182 
L 118.902748 130.778182 
L 120.082452 129.531429 
L 121.262156 129.531429 
L 122.44186 120.804156 
L 123.621564 120.804156 
L 124.801268 130.778182 
L 125.980973 130.778182 
L 127.160677 124.544416 
L 128.340381 126.414545 
L 129.520085 130.778182 
L 130.699789 127.661299 
L 131.879493 128.908052 
L 133.059197 128.908052 
L 134.238901 130.778182 
L 136.598309 128.284675 
L 137.778013 130.154805 
L 138.957717 130.778182 
L 140.137421 130.154805 
L 141.317125 130.154805 
L 142.496829 129.531429 
L 143.676533 130.154805 
L 144.856237 130.154805 
L 146.035941 128.908052 
L 147.215645 130.154805 
L 148.395349 130.154805 
L 149.575053 122.674286 
L 150.754757 127.661299 
L 151.934461 130.154805 
L 153.114165 115.817143 
L 154.293869 130.778182 
L 163.731501 130.778182 
L 164.911205 130.154805 
L 166.090909 130.778182 
L 174.348837 130.778182 
L 175.528541 128.908052 
L 176.708245 129.531429 
L 177.887949 130.778182 
L 179.067653 129.531429 
L 180.247357 127.661299 
L 181.427061 130.154805 
L 182.606765 130.154805 
L 183.786469 128.908052 
L 184.966173 120.804156 
L 186.145877 130.154805 
L 187.325581 130.778182 
L 188.505285 130.154805 
L 189.684989 127.037922 
L 190.864693 130.154805 
L 192.044397 129.531429 
L 193.224101 125.167792 
L 194.403805 128.908052 
L 195.58351 127.037922 
L 196.763214 130.154805 
L 197.942918 129.531429 
L 199.122622 130.154805 
L 200.302326 129.531429 
L 202.661734 129.531429 
L 203.841438 128.284675 
L 205.021142 130.778182 
L 206.200846 130.778182 
L 207.38055 128.284675 
L 208.560254 128.284675 
L 209.739958 125.167792 
L 210.919662 129.531429 
L 212.099366 127.661299 
L 213.27907 130.778182 
L 214.458774 125.791169 
L 215.638478 128.908052 
L 216.818182 129.531429 
L 217.997886 128.908052 
L 219.17759 126.414545 
L 220.357294 130.154805 
L 221.536998 128.284675 
L 222.716702 121.427532 
L 223.896406 126.414545 
L 225.07611 120.804156 
L 226.255814 87.141818 
L 227.435518 127.661299 
L 228.615222 130.778182 
L 229.794926 128.908052 
L 230.97463 123.297662 
L 232.154334 124.544416 
L 233.334038 127.661299 
L 234.513742 119.557403 
L 235.693446 128.908052 
L 236.87315 128.908052 
L 238.052854 130.154805 
L 239.232558 122.674286 
L 240.412262 124.544416 
L 241.591966 130.778182 
L 242.77167 129.531429 
L 243.951374 130.778182 
L 245.131078 128.284675 
L 246.310782 100.232727 
L 247.490486 118.310649 
L 248.67019 121.427532 
L 249.849894 127.661299 
L 251.029598 130.778182 
L 252.209302 126.414545 
L 253.389006 128.908052 
L 254.56871 122.050909 
L 255.748414 128.908052 
L 256.928118 123.297662 
L 258.107822 115.817143 
L 259.287526 122.674286 
L 260.46723 127.661299 
L 261.646934 115.193766 
L 262.826638 115.193766 
L 264.006342 116.440519 
L 265.186047 92.128831 
L 266.365751 107.08987 
L 267.545455 107.08987 
L 268.725159 119.557403 
L 269.904863 110.206753 
L 271.084567 118.934026 
L 272.264271 129.531429 
L 273.443975 130.154805 
L 274.623679 116.440519 
L 275.803383 114.57039 
L 276.983087 115.817143 
L 278.162791 111.453506 
L 279.342495 105.843117 
L 280.522199 128.284675 
L 281.701903 130.154805 
L 282.881607 116.440519 
L 284.061311 117.687273 
L 285.241015 100.232727 
L 286.420719 115.817143 
L 287.600423 116.440519 
L 288.780127 130.154805 
L 289.959831 128.908052 
L 291.139535 114.57039 
L 292.319239 102.102857 
L 293.498943 117.063896 
L 294.678647 113.323636 
L 295.858351 95.245714 
L 297.038055 117.063896 
L 298.217759 130.154805 
L 299.397463 114.57039 
L 300.577167 105.843117 
L 301.756871 102.726234 
L 302.936575 108.96 
L 304.116279 111.453506 
L 305.295983 129.531429 
L 306.475687 115.193766 
L 307.655391 108.336623 
L 308.835095 115.817143 
L 310.014799 115.193766 
L 311.194503 113.947013 
L 312.374207 125.791169 
L 313.553911 115.817143 
L 314.733615 113.323636 
L 315.913319 115.817143 
L 317.093023 116.440519 
L 318.272727 116.440519 
L 319.452431 130.778182 
L 320.632135 130.778182 
L 321.811839 115.193766 
L 322.991543 112.076883 
L 324.171247 115.193766 
L 325.350951 102.726234 
L 326.530655 105.843117 
L 327.710359 130.778182 
L 328.890063 115.817143 
L 330.069767 113.947013 
L 331.249471 113.323636 
L 332.429175 112.076883 
L 333.608879 117.063896 
L 334.788584 130.154805 
L 335.968288 114.57039 
L 337.147992 110.83013 
L 338.327696 105.21974 
L 339.5074 104.596364 
L 340.687104 39.141818 
L 343.046512 130.778182 
L 344.226216 118.310649 
L 345.40592 117.063896 
L 346.585624 124.544416 
L 347.765328 130.778182 
L 348.945032 130.154805 
L 350.124736 123.297662 
L 351.30444 125.167792 
L 352.484144 130.154805 
L 353.663848 128.908052 
L 354.843552 130.154805 
L 356.023256 130.778182 
L 357.20296 130.154805 
L 358.382664 130.778182 
L 359.562368 128.908052 
L 360.742072 129.531429 
L 361.921776 130.778182 
L 365.460888 130.778182 
L 366.640592 128.284675 
L 367.820296 130.154805 
L 369 130.778182 
L 370.179704 130.154805 
L 371.359408 127.037922 
L 372.539112 130.778182 
L 373.718816 117.063896 
L 374.89852 129.531429 
L 376.078224 130.778182 
L 378.437632 129.531429 
L 379.617336 130.778182 
L 380.79704 130.154805 
L 381.976744 130.778182 
L 383.156448 128.908052 
L 384.336152 130.154805 
L 385.515856 129.531429 
L 386.69556 130.778182 
L 389.054968 130.778182 
L 391.414376 129.531429 
L 392.59408 127.037922 
L 393.773784 130.154805 
L 394.953488 130.154805 
L 396.133192 124.544416 
L 397.312896 122.050909 
L 398.4926 130.778182 
L 400.852008 130.778182 
L 403.211416 129.531429 
L 404.391121 130.154805 
L 405.570825 125.167792 
L 406.750529 113.323636 
L 407.930233 127.661299 
L 409.109937 110.206753 
L 410.289641 126.414545 
L 411.469345 130.154805 
L 412.649049 130.778182 
L 415.008457 130.778182 
L 416.188161 130.154805 
L 417.367865 130.778182 
L 418.547569 130.778182 
L 419.727273 128.284675 
L 420.906977 98.362597 
L 422.086681 117.063896 
L 423.266385 129.531429 
L 424.446089 122.674286 
L 425.625793 98.985974 
L 426.805497 96.492468 
L 427.985201 90.882078 
L 429.164905 103.972987 
L 430.344609 120.804156 
L 431.524313 122.674286 
L 432.704017 130.778182 
L 433.883721 125.791169 
L 435.063425 130.778182 
L 436.243129 130.778182 
L 437.422833 122.050909 
L 438.602537 129.531429 
L 439.782241 97.739221 
L 440.961945 122.674286 
L 442.141649 95.869091 
L 443.321353 123.297662 
L 444.501057 128.284675 
L 445.680761 121.427532 
L 446.860465 93.998961 
L 448.040169 120.804156 
L 449.219873 122.674286 
L 450.399577 129.531429 
L 451.579281 130.778182 
L 452.758985 130.778182 
L 453.938689 129.531429 
L 455.118393 126.414545 
L 456.298097 123.921039 
L 457.477801 122.674286 
L 458.657505 130.778182 
L 459.837209 130.778182 
L 461.016913 120.180779 
L 462.196617 115.817143 
L 463.376321 130.778182 
L 464.556025 129.531429 
L 465.735729 130.778182 
L 466.915433 125.167792 
L 468.095137 129.531429 
L 469.274841 130.778182 
L 470.454545 130.154805 
L 471.634249 128.908052 
L 472.813953 128.908052 
L 473.993658 106.466494 
L 475.173362 128.908052 
L 476.353066 128.908052 
L 477.53277 120.804156 
L 478.712474 105.21974 
L 479.892178 123.297662 
L 481.071882 123.297662 
L 482.251586 129.531429 
L 483.43129 120.180779 
L 484.610994 103.34961 
L 485.790698 63.453506 
L 486.970402 123.297662 
L 488.150106 113.323636 
L 489.32981 130.778182 
L 490.509514 104.596364 
L 491.689218 99.609351 
L 492.868922 127.037922 
L 494.048626 117.063896 
L 495.22833 130.778182 
L 497.587738 130.778182 
L 498.767442 100.856104 
L 499.947146 98.985974 
L 501.12685 130.154805 
L 502.306554 120.804156 
L 503.486258 130.778182 
L 504.665962 130.778182 
L 505.845666 129.531429 
L 507.02537 130.154805 
L 508.205074 128.908052 
L 509.384778 130.778182 
L 510.564482 122.050909 
L 511.744186 117.063896 
L 512.92389 93.998961 
L 514.103594 124.544416 
L 515.283298 130.154805 
L 516.463002 115.193766 
L 517.642706 130.154805 
L 518.82241 125.791169 
L 520.002114 120.180779 
L 521.181818 122.674286 
L 522.361522 127.661299 
L 523.541226 130.154805 
L 524.72093 127.037922 
L 525.900634 115.817143 
L 527.080338 128.284675 
L 528.260042 122.674286 
L 529.439746 125.167792 
L 530.61945 130.778182 
L 531.799154 75.297662 
L 532.978858 117.687273 
L 534.158562 97.115844 
L 535.338266 122.050909 
L 536.51797 78.414545 
L 537.697674 130.778182 
L 538.877378 118.934026 
L 541.236786 99.609351 
L 542.41649 108.96 
L 543.596195 125.791169 
L 544.775899 130.778182 
L 547.135307 87.765195 
L 548.315011 90.882078 
L 549.494715 130.778182 
L 550.674419 122.674286 
L 551.854123 128.908052 
L 553.033827 94.622338 
L 554.213531 128.908052 
L 555.393235 130.778182 
L 557.752643 130.778182 
L 558.932347 128.284675 
L 560.112051 128.908052 
L 561.291755 124.544416 
L 562.471459 127.037922 
L 563.651163 123.921039 
L 564.830867 112.70026 
L 566.010571 130.154805 
L 567.190275 79.037922 
L 568.369979 123.297662 
L 569.549683 122.050909 
L 570.729387 95.869091 
L 571.909091 95.245714 
L 573.088795 117.687273 
L 575.448203 130.154805 
L 576.627907 127.661299 
L 577.807611 130.154805 
L 578.987315 125.167792 
L 580.167019 124.544416 
L 581.346723 75.297662 
L 582.526427 50.985974 
L 583.706131 110.206753 
L 584.885835 130.154805 
L 586.065539 120.804156 
L 587.245243 129.531429 
L 588.424947 128.908052 
L 589.604651 129.531429 
L 590.784355 130.778182 
L 591.964059 130.778182 
L 593.143763 130.154805 
L 595.503171 130.154805 
L 596.682875 130.778182 
L 600.221987 130.778182 
L 601.401691 129.531429 
L 602.581395 129.531429 
L 603.761099 130.778182 
L 604.940803 130.778182 
L 606.120507 130.154805 
L 607.300211 130.154805 
L 608.479915 130.778182 
L 609.659619 130.778182 
L 610.839323 130.154805 
L 612.019027 128.908052 
L 613.198732 130.778182 
L 614.378436 130.154805 
L 615.55814 130.778182 
L 616.737844 129.531429 
L 617.917548 129.531429 
L 619.097252 128.284675 
L 620.276956 123.297662 
L 621.45666 128.284675 
L 622.636364 130.154805 
L 622.636364 130.154805 
" clip-path="url(#p018c5abfe9)" style="fill: none; stroke: #1f77b4; stroke-width: 1.5; stroke-linecap: square"/>
   </g>
   <g id="line2d_11">
    <path d="M 115.363636 127.661299 
L 116.54334 128.284675 
L 117.723044 130.778182 
L 118.902748 130.778182 
L 120.082452 129.531429 
L 121.262156 129.531429 
L 122.44186 130.154805 
L 123.621564 128.284675 
L 124.801268 130.778182 
L 125.980973 130.778182 
L 127.160677 124.544416 
L 128.340381 129.531429 
L 129.520085 130.778182 
L 130.699789 128.908052 
L 131.879493 128.908052 
L 133.059197 129.531429 
L 134.238901 130.778182 
L 135.418605 129.531429 
L 136.598309 128.908052 
L 137.778013 130.154805 
L 138.957717 130.778182 
L 140.137421 130.154805 
L 141.317125 130.778182 
L 142.496829 129.531429 
L 144.856237 130.778182 
L 146.035941 130.154805 
L 147.215645 130.778182 
L 148.395349 130.154805 
L 149.575053 125.791169 
L 150.754757 127.661299 
L 151.934461 130.154805 
L 153.114165 125.167792 
L 154.293869 130.778182 
L 163.731501 130.778182 
L 164.911205 130.154805 
L 166.090909 130.778182 
L 174.348837 130.778182 
L 175.528541 129.531429 
L 176.708245 130.778182 
L 177.887949 130.778182 
L 180.247357 129.531429 
L 181.427061 130.778182 
L 183.786469 130.778182 
L 184.966173 124.544416 
L 186.145877 130.778182 
L 187.325581 130.778182 
L 188.505285 130.154805 
L 189.684989 128.908052 
L 190.864693 130.154805 
L 192.044397 129.531429 
L 193.224101 127.037922 
L 194.403805 129.531429 
L 195.58351 130.778182 
L 196.763214 130.154805 
L 197.942918 130.778182 
L 199.122622 130.154805 
L 200.302326 130.778182 
L 201.48203 129.531429 
L 203.841438 129.531429 
L 205.021142 130.778182 
L 206.200846 130.778182 
L 209.739958 127.037922 
L 210.919662 129.531429 
L 212.099366 128.284675 
L 213.27907 130.778182 
L 214.458774 127.037922 
L 215.638478 128.908052 
L 216.818182 129.531429 
L 217.997886 128.908052 
L 219.17759 126.414545 
L 220.357294 130.154805 
L 221.536998 128.284675 
L 222.716702 124.544416 
L 223.896406 127.037922 
L 225.07611 123.297662 
L 226.255814 108.96 
L 227.435518 127.661299 
L 228.615222 130.778182 
L 229.794926 129.531429 
L 230.97463 123.921039 
L 233.334038 127.661299 
L 234.513742 122.050909 
L 235.693446 128.908052 
L 236.87315 128.908052 
L 238.052854 130.154805 
L 239.232558 124.544416 
L 240.412262 124.544416 
L 241.591966 130.778182 
L 242.77167 129.531429 
L 243.951374 130.778182 
L 245.131078 128.908052 
L 246.310782 116.440519 
L 247.490486 122.674286 
L 248.67019 124.544416 
L 249.849894 128.284675 
L 251.029598 130.778182 
L 252.209302 127.661299 
L 253.389006 130.154805 
L 254.56871 123.921039 
L 255.748414 129.531429 
L 256.928118 123.921039 
L 258.107822 120.180779 
L 259.287526 123.297662 
L 260.46723 128.284675 
L 261.646934 120.804156 
L 262.826638 125.167792 
L 264.006342 130.154805 
L 265.186047 121.427532 
L 266.365751 128.908052 
L 267.545455 125.791169 
L 268.725159 121.427532 
L 269.904863 125.167792 
L 271.084567 130.778182 
L 272.264271 130.154805 
L 273.443975 130.154805 
L 274.623679 130.778182 
L 275.803383 128.908052 
L 276.983087 129.531429 
L 279.342495 120.804156 
L 280.522199 128.284675 
L 281.701903 130.154805 
L 282.881607 130.778182 
L 284.061311 128.908052 
L 285.241015 117.687273 
L 286.420719 130.778182 
L 287.600423 129.531429 
L 288.780127 130.154805 
L 291.139535 130.154805 
L 292.319239 118.934026 
L 293.498943 128.908052 
L 294.678647 127.037922 
L 295.858351 115.817143 
L 297.038055 120.180779 
L 298.217759 130.154805 
L 299.397463 130.778182 
L 300.577167 125.791169 
L 301.756871 129.531429 
L 302.936575 128.908052 
L 304.116279 130.154805 
L 305.295983 130.154805 
L 306.475687 130.778182 
L 307.655391 123.921039 
L 308.835095 130.778182 
L 310.014799 130.154805 
L 311.194503 128.908052 
L 312.374207 127.037922 
L 313.553911 130.778182 
L 314.733615 128.908052 
L 315.913319 130.778182 
L 317.093023 129.531429 
L 318.272727 129.531429 
L 319.452431 130.778182 
L 321.811839 130.778182 
L 322.991543 127.661299 
L 324.171247 130.778182 
L 325.350951 128.908052 
L 326.530655 125.791169 
L 327.710359 130.778182 
L 328.890063 130.778182 
L 330.069767 130.154805 
L 331.249471 128.908052 
L 334.788584 130.778182 
L 335.968288 130.154805 
L 337.147992 126.414545 
L 338.327696 126.414545 
L 339.5074 127.661299 
L 340.687104 130.778182 
L 341.866808 121.427532 
L 343.046512 130.778182 
L 344.226216 130.154805 
L 345.40592 126.414545 
L 346.585624 125.791169 
L 347.765328 130.778182 
L 348.945032 130.154805 
L 350.124736 123.297662 
L 351.30444 126.414545 
L 352.484144 130.154805 
L 353.663848 128.908052 
L 354.843552 130.778182 
L 356.023256 130.778182 
L 357.20296 130.154805 
L 358.382664 130.778182 
L 359.562368 128.908052 
L 360.742072 129.531429 
L 361.921776 130.778182 
L 365.460888 130.778182 
L 366.640592 128.284675 
L 367.820296 130.154805 
L 369 130.778182 
L 370.179704 130.154805 
L 371.359408 127.661299 
L 372.539112 130.778182 
L 373.718816 130.778182 
L 374.89852 129.531429 
L 376.078224 130.778182 
L 378.437632 129.531429 
L 379.617336 130.778182 
L 380.79704 130.154805 
L 381.976744 130.778182 
L 383.156448 128.908052 
L 384.336152 130.154805 
L 385.515856 129.531429 
L 386.69556 130.778182 
L 389.054968 130.778182 
L 391.414376 129.531429 
L 392.59408 127.037922 
L 393.773784 130.154805 
L 394.953488 130.778182 
L 396.133192 124.544416 
L 397.312896 123.921039 
L 398.4926 130.778182 
L 400.852008 130.778182 
L 403.211416 129.531429 
L 404.391121 130.778182 
L 405.570825 125.791169 
L 406.750529 122.050909 
L 407.930233 130.154805 
L 409.109937 121.427532 
L 410.289641 127.661299 
L 411.469345 130.778182 
L 415.008457 130.778182 
L 416.188161 130.154805 
L 417.367865 130.778182 
L 418.547569 130.778182 
L 419.727273 128.284675 
L 420.906977 114.57039 
L 422.086681 119.557403 
L 423.266385 129.531429 
L 424.446089 123.921039 
L 425.625793 114.57039 
L 426.805497 112.076883 
L 427.985201 112.076883 
L 429.164905 119.557403 
L 430.344609 121.427532 
L 431.524313 124.544416 
L 432.704017 130.778182 
L 433.883721 126.414545 
L 435.063425 130.778182 
L 436.243129 130.778182 
L 437.422833 123.297662 
L 438.602537 129.531429 
L 439.782241 122.674286 
L 440.961945 128.284675 
L 442.141649 126.414545 
L 443.321353 130.154805 
L 444.501057 130.778182 
L 445.680761 128.284675 
L 446.860465 121.427532 
L 448.040169 125.791169 
L 449.219873 126.414545 
L 450.399577 130.154805 
L 451.579281 130.778182 
L 452.758985 130.778182 
L 453.938689 129.531429 
L 455.118393 128.908052 
L 456.298097 127.037922 
L 457.477801 127.037922 
L 458.657505 130.778182 
L 459.837209 130.778182 
L 461.016913 125.167792 
L 462.196617 123.921039 
L 463.376321 130.778182 
L 464.556025 129.531429 
L 465.735729 130.778182 
L 466.915433 127.661299 
L 468.095137 129.531429 
L 469.274841 130.778182 
L 470.454545 130.154805 
L 471.634249 128.908052 
L 472.813953 128.908052 
L 473.993658 122.050909 
L 475.173362 128.908052 
L 476.353066 129.531429 
L 477.53277 126.414545 
L 478.712474 120.180779 
L 479.892178 126.414545 
L 481.071882 127.037922 
L 482.251586 130.154805 
L 483.43129 126.414545 
L 485.790698 112.70026 
L 486.970402 127.661299 
L 488.150106 123.921039 
L 489.32981 130.778182 
L 490.509514 120.804156 
L 491.689218 117.063896 
L 492.868922 128.284675 
L 494.048626 123.921039 
L 495.22833 130.778182 
L 497.587738 130.778182 
L 498.767442 120.180779 
L 499.947146 116.440519 
L 501.12685 130.154805 
L 502.306554 125.791169 
L 503.486258 130.778182 
L 504.665962 130.778182 
L 505.845666 130.154805 
L 507.02537 130.778182 
L 508.205074 130.154805 
L 509.384778 130.778182 
L 510.564482 126.414545 
L 511.744186 124.544416 
L 512.92389 117.063896 
L 514.103594 127.661299 
L 515.283298 130.778182 
L 516.463002 122.674286 
L 517.642706 130.154805 
L 520.002114 126.414545 
L 521.181818 127.661299 
L 522.361522 128.284675 
L 523.541226 130.778182 
L 524.72093 127.661299 
L 525.900634 122.674286 
L 527.080338 129.531429 
L 528.260042 127.037922 
L 529.439746 127.661299 
L 530.61945 130.778182 
L 531.799154 110.206753 
L 532.978858 123.921039 
L 534.158562 118.310649 
L 535.338266 126.414545 
L 536.51797 112.076883 
L 537.697674 130.778182 
L 538.877378 130.154805 
L 540.057082 118.934026 
L 541.236786 117.063896 
L 542.41649 118.934026 
L 543.596195 128.284675 
L 544.775899 130.778182 
L 545.955603 121.427532 
L 547.135307 113.947013 
L 548.315011 113.323636 
L 549.494715 130.778182 
L 550.674419 127.037922 
L 551.854123 130.778182 
L 553.033827 117.063896 
L 554.213531 129.531429 
L 555.393235 130.778182 
L 557.752643 130.778182 
L 558.932347 128.908052 
L 560.112051 130.154805 
L 561.291755 127.661299 
L 562.471459 128.908052 
L 563.651163 127.661299 
L 564.830867 121.427532 
L 566.010571 130.154805 
L 567.190275 112.076883 
L 568.369979 126.414545 
L 569.549683 125.791169 
L 570.729387 117.687273 
L 571.909091 117.687273 
L 573.088795 125.167792 
L 574.268499 126.414545 
L 575.448203 130.778182 
L 576.627907 128.908052 
L 577.807611 130.778182 
L 578.987315 128.908052 
L 580.167019 128.284675 
L 581.346723 118.310649 
L 582.526427 104.596364 
L 583.706131 122.050909 
L 584.885835 130.154805 
L 586.065539 130.778182 
L 587.245243 129.531429 
L 588.424947 128.908052 
L 589.604651 129.531429 
L 590.784355 130.778182 
L 591.964059 130.778182 
L 593.143763 130.154805 
L 594.323467 130.778182 
L 595.503171 130.154805 
L 596.682875 130.778182 
L 600.221987 130.778182 
L 601.401691 129.531429 
L 603.761099 130.778182 
L 604.940803 130.778182 
L 606.120507 130.154805 
L 607.300211 130.154805 
L 608.479915 130.778182 
L 609.659619 130.778182 
L 610.839323 130.154805 
L 612.019027 130.154805 
L 613.198732 130.778182 
L 614.378436 130.154805 
L 615.55814 130.778182 
L 616.737844 129.531429 
L 617.917548 130.154805 
L 619.097252 128.908052 
L 620.276956 127.037922 
L 621.45666 129.531429 
L 622.636364 130.154805 
L 622.636364 130.154805 
" clip-path="url(#p018c5abfe9)" style="fill: none; stroke: #ff7f0e; stroke-width: 1.5; stroke-linecap: square"/>
   </g>
   <g id="patch_3">
    <path d="M 90 135.36 
L 90 34.56 
" style="fill: none; stroke: #000000; stroke-width: 0.8; stroke-linejoin: miter; stroke-linecap: square"/>
   </g>
   <g id="patch_4">
    <path d="M 648 135.36 
L 648 34.56 
" style="fill: none; stroke: #000000; stroke-width: 0.8; stroke-linejoin: miter; stroke-linecap: square"/>
   </g>
   <g id="patch_5">
    <path d="M 90 135.36 
L 648 135.36 
" style="fill: none; stroke: #000000; stroke-width: 0.8; stroke-linejoin: miter; stroke-linecap: square"/>
   </g>
   <g id="patch_6">
    <path d="M 90 34.56 
L 648 34.56 
" style="fill: none; stroke: #000000; stroke-width: 0.8; stroke-linejoin: miter; stroke-linecap: square"/>
   </g>
   <g id="legend_1">
    <g id="patch_7">
     <path d="M 97 71.91625 
L 238.8625 71.91625 
Q 240.8625 71.91625 240.8625 69.91625 
L 240.8625 41.56 
Q 240.8625 39.56 238.8625 39.56 
L 97 39.56 
Q 95 39.56 95 41.56 
L 95 69.91625 
Q 95 71.91625 97 71.91625 
z
" style="fill: #ffffff; opacity: 0.8; stroke: #cccccc; stroke-linejoin: miter"/>
    </g>
    <g id="line2d_12">
     <path d="M 99 47.658437 
L 109 47.658437 
L 119 47.658437 
" style="fill: none; stroke: #1f77b4; stroke-width: 1.5; stroke-linecap: square"/>
    </g>
    <g id="text_11">
     <!-- Total GitHub Clones -->
     <g transform="translate(127 51.158437)scale(0.1 -0.1)">
      <defs>
       <path id="DejaVuSans-54" d="M -19 4666 
L 3928 4666 
L 3928 4134 
L 2272 4134 
L 2272 0 
L 1638 0 
L 1638 4134 
L -19 4134 
L -19 4666 
z
" transform="scale(0.015625)"/>
       <path id="DejaVuSans-6f" d="M 1959 3097 
Q 1497 3097 1228 2736 
Q 959 2375 959 1747 
Q 959 1119 1226 758 
Q 1494 397 1959 397 
Q 2419 397 2687 759 
Q 2956 1122 2956 1747 
Q 2956 2369 2687 2733 
Q 2419 3097 1959 3097 
z
M 1959 3584 
Q 2709 3584 3137 3096 
Q 3566 2609 3566 1747 
Q 3566 888 3137 398 
Q 2709 -91 1959 -91 
Q 1206 -91 779 398 
Q 353 888 353 1747 
Q 353 2609 779 3096 
Q 1206 3584 1959 3584 
z
" transform="scale(0.015625)"/>
       <path id="DejaVuSans-6c" d="M 603 4863 
L 1178 4863 
L 1178 0 
L 603 0 
L 603 4863 
z
" transform="scale(0.015625)"/>
       <path id="DejaVuSans-20" transform="scale(0.015625)"/>
       <path id="DejaVuSans-47" d="M 3809 666 
L 3809 1919 
L 2778 1919 
L 2778 2438 
L 4434 2438 
L 4434 434 
Q 4069 175 3628 42 
Q 3188 -91 2688 -91 
Q 1594 -91 976 548 
Q 359 1188 359 2328 
Q 359 3472 976 4111 
Q 1594 4750 2688 4750 
Q 3144 4750 3555 4637 
Q 3966 4525 4313 4306 
L 4313 3634 
Q 3963 3931 3569 4081 
Q 3175 4231 2741 4231 
Q 1884 4231 1454 3753 
Q 1025 3275 1025 2328 
Q 1025 1384 1454 906 
Q 1884 428 2741 428 
Q 3075 428 3337 486 
Q 3600 544 3809 666 
z
" transform="scale(0.015625)"/>
       <path id="DejaVuSans-69" d="M 603 3500 
L 1178 3500 
L 1178 0 
L 603 0 
L 603 3500 
z
M 603 4863 
L 1178 4863 
L 1178 4134 
L 603 4134 
L 603 4863 
z
" transform="scale(0.015625)"/>
       <path id="DejaVuSans-48" d="M 628 4666 
L 1259 4666 
L 1259 2753 
L 3553 2753 
L 3553 4666 
L 4184 4666 
L 4184 0 
L 3553 0 
L 3553 2222 
L 1259 2222 
L 1259 0 
L 628 0 
L 628 4666 
z
" transform="scale(0.015625)"/>
       <path id="DejaVuSans-75" d="M 544 1381 
L 544 3500 
L 1119 3500 
L 1119 1403 
Q 1119 906 1312 657 
Q 1506 409 1894 409 
Q 2359 409 2629 706 
Q 2900 1003 2900 1516 
L 2900 3500 
L 3475 3500 
L 3475 0 
L 2900 0 
L 2900 538 
Q 2691 219 2414 64 
Q 2138 -91 1772 -91 
Q 1169 -91 856 284 
Q 544 659 544 1381 
z
M 1991 3584 
L 1991 3584 
z
" transform="scale(0.015625)"/>
       <path id="DejaVuSans-62" d="M 3116 1747 
Q 3116 2381 2855 2742 
Q 2594 3103 2138 3103 
Q 1681 3103 1420 2742 
Q 1159 2381 1159 1747 
Q 1159 1113 1420 752 
Q 1681 391 2138 391 
Q 2594 391 2855 752 
Q 3116 1113 3116 1747 
z
M 1159 2969 
Q 1341 3281 1617 3432 
Q 1894 3584 2278 3584 
Q 2916 3584 3314 3078 
Q 3713 2572 3713 1747 
Q 3713 922 3314 415 
Q 2916 -91 2278 -91 
Q 1894 -91 1617 61 
Q 1341 213 1159 525 
L 1159 0 
L 581 0 
L 581 4863 
L 1159 4863 
L 1159 2969 
z
" transform="scale(0.015625)"/>
       <path id="DejaVuSans-43" d="M 4122 4306 
L 4122 3641 
Q 3803 3938 3442 4084 
Q 3081 4231 2675 4231 
Q 1875 4231 1450 3742 
Q 1025 3253 1025 2328 
Q 1025 1406 1450 917 
Q 1875 428 2675 428 
Q 3081 428 3442 575 
Q 3803 722 4122 1019 
L 4122 359 
Q 3791 134 3420 21 
Q 3050 -91 2638 -91 
Q 1578 -91 968 557 
Q 359 1206 359 2328 
Q 359 3453 968 4101 
Q 1578 4750 2638 4750 
Q 3056 4750 3426 4639 
Q 3797 4528 4122 4306 
z
" transform="scale(0.015625)"/>
       <path id="DejaVuSans-6e" d="M 3513 2113 
L 3513 0 
L 2938 0 
L 2938 2094 
Q 2938 2591 2744 2837 
Q 2550 3084 2163 3084 
Q 1697 3084 1428 2787 
Q 1159 2491 1159 1978 
L 1159 0 
L 581 0 
L 581 3500 
L 1159 3500 
L 1159 2956 
Q 1366 3272 1645 3428 
Q 1925 3584 2291 3584 
Q 2894 3584 3203 3211 
Q 3513 2838 3513 2113 
z
" transform="scale(0.015625)"/>
       <path id="DejaVuSans-73" d="M 2834 3397 
L 2834 2853 
Q 2591 2978 2328 3040 
Q 2066 3103 1784 3103 
Q 1356 3103 1142 2972 
Q 928 2841 928 2578 
Q 928 2378 1081 2264 
Q 1234 2150 1697 2047 
L 1894 2003 
Q 2506 1872 2764 1633 
Q 3022 1394 3022 966 
Q 3022 478 2636 193 
Q 2250 -91 1575 -91 
Q 1294 -91 989 -36 
Q 684 19 347 128 
L 347 722 
Q 666 556 975 473 
Q 1284 391 1588 391 
Q 1994 391 2212 530 
Q 2431 669 2431 922 
Q 2431 1156 2273 1281 
Q 2116 1406 1581 1522 
L 1381 1569 
Q 847 1681 609 1914 
Q 372 2147 372 2553 
Q 372 3047 722 3315 
Q 1072 3584 1716 3584 
Q 2034 3584 2315 3537 
Q 2597 3491 2834 3397 
z
" transform="scale(0.015625)"/>
      </defs>
      <use xlink:href="#DejaVuSans-54"/>
      <use xlink:href="#DejaVuSans-6f" x="44.083984"/>
      <use xlink:href="#DejaVuSans-74" x="105.265625"/>
      <use xlink:href="#DejaVuSans-61" x="144.474609"/>
      <use xlink:href="#DejaVuSans-6c" x="205.753906"/>
      <use xlink:href="#DejaVuSans-20" x="233.537109"/>
      <use xlink:href="#DejaVuSans-47" x="265.324219"/>
      <use xlink:href="#DejaVuSans-69" x="342.814453"/>
      <use xlink:href="#DejaVuSans-74" x="370.597656"/>
      <use xlink:href="#DejaVuSans-48" x="409.806641"/>
      <use xlink:href="#DejaVuSans-75" x="485.001953"/>
      <use xlink:href="#DejaVuSans-62" x="548.380859"/>
      <use xlink:href="#DejaVuSans-20" x="611.857422"/>
      <use xlink:href="#DejaVuSans-43" x="643.644531"/>
      <use xlink:href="#DejaVuSans-6c" x="713.46875"/>
      <use xlink:href="#DejaVuSans-6f" x="741.251953"/>
      <use xlink:href="#DejaVuSans-6e" x="802.433594"/>
      <use xlink:href="#DejaVuSans-65" x="865.8125"/>
      <use xlink:href="#DejaVuSans-73" x="927.335938"/>
     </g>
    </g>
    <g id="line2d_13">
     <path d="M 99 62.336562 
L 109 62.336562 
L 119 62.336562 
" style="fill: none; stroke: #ff7f0e; stroke-width: 1.5; stroke-linecap: square"/>
    </g>
    <g id="text_12">
     <!-- Unique GitHub Clones -->
     <g transform="translate(127 65.836562)scale(0.1 -0.1)">
      <defs>
       <path id="DejaVuSans-55" d="M 556 4666 
L 1191 4666 
L 1191 1831 
Q 1191 1081 1462 751 
Q 1734 422 2344 422 
Q 2950 422 3222 751 
Q 3494 1081 3494 1831 
L 3494 4666 
L 4128 4666 
L 4128 1753 
Q 4128 841 3676 375 
Q 3225 -91 2344 -91 
Q 1459 -91 1007 375 
Q 556 841 556 1753 
L 556 4666 
z
" transform="scale(0.015625)"/>
       <path id="DejaVuSans-71" d="M 947 1747 
Q 947 1113 1208 752 
Q 1469 391 1925 391 
Q 2381 391 2643 752 
Q 2906 1113 2906 1747 
Q 2906 2381 2643 2742 
Q 2381 3103 1925 3103 
Q 1469 3103 1208 2742 
Q 947 2381 947 1747 
z
M 2906 525 
Q 2725 213 2448 61 
Q 2172 -91 1784 -91 
Q 1150 -91 751 415 
Q 353 922 353 1747 
Q 353 2572 751 3078 
Q 1150 3584 1784 3584 
Q 2172 3584 2448 3432 
Q 2725 3281 2906 2969 
L 2906 3500 
L 3481 3500 
L 3481 -1331 
L 2906 -1331 
L 2906 525 
z
" transform="scale(0.015625)"/>
      </defs>
      <use xlink:href="#DejaVuSans-55"/>
      <use xlink:href="#DejaVuSans-6e" x="73.193359"/>
      <use xlink:href="#DejaVuSans-69" x="136.572266"/>
      <use xlink:href="#DejaVuSans-71" x="164.355469"/>
      <use xlink:href="#DejaVuSans-75" x="227.832031"/>
      <use xlink:href="#DejaVuSans-65" x="291.210938"/>
      <use xlink:href="#DejaVuSans-20" x="352.734375"/>
      <use xlink:href="#DejaVuSans-47" x="384.521484"/>
      <use xlink:href="#DejaVuSans-69" x="462.011719"/>
      <use xlink:href="#DejaVuSans-74" x="489.794922"/>
      <use xlink:href="#DejaVuSans-48" x="529.003906"/>
      <use xlink:href="#DejaVuSans-75" x="604.199219"/>
      <use xlink:href="#DejaVuSans-62" x="667.578125"/>
      <use xlink:href="#DejaVuSans-20" x="731.054688"/>
      <use xlink:href="#DejaVuSans-43" x="762.841797"/>
      <use xlink:href="#DejaVuSans-6c" x="832.666016"/>
      <use xlink:href="#DejaVuSans-6f" x="860.449219"/>
      <use xlink:href="#DejaVuSans-6e" x="921.630859"/>
      <use xlink:href="#DejaVuSans-65" x="985.009766"/>
      <use xlink:href="#DejaVuSans-73" x="1046.533203"/>
     </g>
    </g>
   </g>
  </g>
  <g id="axes_2">
   <g id="patch_8">
    <path d="M 90 256.32 
L 648 256.32 
L 648 155.52 
L 90 155.52 
z
" style="fill: #ffffff"/>
   </g>
   <g id="matplotlib.axis_3">
    <g id="xtick_6">
     <g id="line2d_14">
      <g>
       <use xlink:href="#m0fade6cd75" x="115.363636" y="256.32" style="stroke: #000000; stroke-width: 0.8"/>
      </g>
     </g>
     <g id="text_13">
      <!-- 2020-10-21 -->
      <g transform="translate(86.305824 270.918437)scale(0.1 -0.1)">
       <use xlink:href="#DejaVuSans-32"/>
       <use xlink:href="#DejaVuSans-30" x="63.623047"/>
       <use xlink:href="#DejaVuSans-32" x="127.246094"/>
       <use xlink:href="#DejaVuSans-30" x="190.869141"/>
       <use xlink:href="#DejaVuSans-2d" x="254.492188"/>
       <use xlink:href="#DejaVuSans-31" x="290.576172"/>
       <use xlink:href="#DejaVuSans-30" x="354.199219"/>
       <use xlink:href="#DejaVuSans-2d" x="417.822266"/>
       <use xlink:href="#DejaVuSans-32" x="453.90625"/>
       <use xlink:href="#DejaVuSans-31" x="517.529297"/>
      </g>
     </g>
    </g>
    <g id="xtick_7">
     <g id="line2d_15">
      <g>
       <use xlink:href="#m0fade6cd75" x="207.26087" y="256.32" style="stroke: #000000; stroke-width: 0.8"/>
      </g>
     </g>
     <g id="text_14">
      <!-- 2021-01-31 -->
      <g transform="translate(178.203057 270.918437)scale(0.1 -0.1)">
       <use xlink:href="#DejaVuSans-32"/>
       <use xlink:href="#DejaVuSans-30" x="63.623047"/>
       <use xlink:href="#DejaVuSans-32" x="127.246094"/>
       <use xlink:href="#DejaVuSans-31" x="190.869141"/>
       <use xlink:href="#DejaVuSans-2d" x="254.492188"/>
       <use xlink:href="#DejaVuSans-30" x="290.576172"/>
       <use xlink:href="#DejaVuSans-31" x="354.199219"/>
       <use xlink:href="#DejaVuSans-2d" x="417.822266"/>
       <use xlink:href="#DejaVuSans-33" x="453.90625"/>
       <use xlink:href="#DejaVuSans-31" x="517.529297"/>
      </g>
     </g>
    </g>
    <g id="xtick_8">
     <g id="line2d_16">
      <g>
       <use xlink:href="#m0fade6cd75" x="299.158103" y="256.32" style="stroke: #000000; stroke-width: 0.8"/>
      </g>
     </g>
     <g id="text_15">
      <!-- 2021-05-11 -->
      <g transform="translate(270.10029 270.918437)scale(0.1 -0.1)">
       <use xlink:href="#DejaVuSans-32"/>
       <use xlink:href="#DejaVuSans-30" x="63.623047"/>
       <use xlink:href="#DejaVuSans-32" x="127.246094"/>
       <use xlink:href="#DejaVuSans-31" x="190.869141"/>
       <use xlink:href="#DejaVuSans-2d" x="254.492188"/>
       <use xlink:href="#DejaVuSans-30" x="290.576172"/>
       <use xlink:href="#DejaVuSans-35" x="354.199219"/>
       <use xlink:href="#DejaVuSans-2d" x="417.822266"/>
       <use xlink:href="#DejaVuSans-31" x="453.90625"/>
       <use xlink:href="#DejaVuSans-31" x="517.529297"/>
      </g>
     </g>
    </g>
    <g id="xtick_9">
     <g id="line2d_17">
      <g>
       <use xlink:href="#m0fade6cd75" x="391.055336" y="256.32" style="stroke: #000000; stroke-width: 0.8"/>
      </g>
     </g>
     <g id="text_16">
      <!-- 2021-08-19 -->
      <g transform="translate(361.997523 270.918437)scale(0.1 -0.1)">
       <defs>
        <path id="DejaVuSans-39" d="M 703 97 
L 703 672 
Q 941 559 1184 500 
Q 1428 441 1663 441 
Q 2288 441 2617 861 
Q 2947 1281 2994 2138 
Q 2813 1869 2534 1725 
Q 2256 1581 1919 1581 
Q 1219 1581 811 2004 
Q 403 2428 403 3163 
Q 403 3881 828 4315 
Q 1253 4750 1959 4750 
Q 2769 4750 3195 4129 
Q 3622 3509 3622 2328 
Q 3622 1225 3098 567 
Q 2575 -91 1691 -91 
Q 1453 -91 1209 -44 
Q 966 3 703 97 
z
M 1959 2075 
Q 2384 2075 2632 2365 
Q 2881 2656 2881 3163 
Q 2881 3666 2632 3958 
Q 2384 4250 1959 4250 
Q 1534 4250 1286 3958 
Q 1038 3666 1038 3163 
Q 1038 2656 1286 2365 
Q 1534 2075 1959 2075 
z
" transform="scale(0.015625)"/>
       </defs>
       <use xlink:href="#DejaVuSans-32"/>
       <use xlink:href="#DejaVuSans-30" x="63.623047"/>
       <use xlink:href="#DejaVuSans-32" x="127.246094"/>
       <use xlink:href="#DejaVuSans-31" x="190.869141"/>
       <use xlink:href="#DejaVuSans-2d" x="254.492188"/>
       <use xlink:href="#DejaVuSans-30" x="290.576172"/>
       <use xlink:href="#DejaVuSans-38" x="354.199219"/>
       <use xlink:href="#DejaVuSans-2d" x="417.822266"/>
       <use xlink:href="#DejaVuSans-31" x="453.90625"/>
       <use xlink:href="#DejaVuSans-39" x="517.529297"/>
      </g>
     </g>
    </g>
    <g id="xtick_10">
     <g id="line2d_18">
      <g>
       <use xlink:href="#m0fade6cd75" x="482.952569" y="256.32" style="stroke: #000000; stroke-width: 0.8"/>
      </g>
     </g>
     <g id="text_17">
      <!-- 2021-11-28 -->
      <g transform="translate(453.894757 270.918437)scale(0.1 -0.1)">
       <use xlink:href="#DejaVuSans-32"/>
       <use xlink:href="#DejaVuSans-30" x="63.623047"/>
       <use xlink:href="#DejaVuSans-32" x="127.246094"/>
       <use xlink:href="#DejaVuSans-31" x="190.869141"/>
       <use xlink:href="#DejaVuSans-2d" x="254.492188"/>
       <use xlink:href="#DejaVuSans-31" x="290.576172"/>
       <use xlink:href="#DejaVuSans-31" x="354.199219"/>
       <use xlink:href="#DejaVuSans-2d" x="417.822266"/>
       <use xlink:href="#DejaVuSans-32" x="453.90625"/>
       <use xlink:href="#DejaVuSans-38" x="517.529297"/>
      </g>
     </g>
    </g>
    <g id="xtick_11">
     <g id="line2d_19">
      <g>
       <use xlink:href="#m0fade6cd75" x="574.849802" y="256.32" style="stroke: #000000; stroke-width: 0.8"/>
      </g>
     </g>
     <g id="text_18">
      <!-- 2022-03-10 -->
      <g transform="translate(545.79199 270.918437)scale(0.1 -0.1)">
       <use xlink:href="#DejaVuSans-32"/>
       <use xlink:href="#DejaVuSans-30" x="63.623047"/>
       <use xlink:href="#DejaVuSans-32" x="127.246094"/>
       <use xlink:href="#DejaVuSans-32" x="190.869141"/>
       <use xlink:href="#DejaVuSans-2d" x="254.492188"/>
       <use xlink:href="#DejaVuSans-30" x="290.576172"/>
       <use xlink:href="#DejaVuSans-33" x="354.199219"/>
       <use xlink:href="#DejaVuSans-2d" x="417.822266"/>
       <use xlink:href="#DejaVuSans-31" x="453.90625"/>
       <use xlink:href="#DejaVuSans-30" x="517.529297"/>
      </g>
     </g>
    </g>
    <g id="text_19">
     <!-- _date -->
     <g transform="translate(355.225 284.596563)scale(0.1 -0.1)">
      <use xlink:href="#DejaVuSans-5f"/>
      <use xlink:href="#DejaVuSans-64" x="50"/>
      <use xlink:href="#DejaVuSans-61" x="113.476562"/>
      <use xlink:href="#DejaVuSans-74" x="174.755859"/>
      <use xlink:href="#DejaVuSans-65" x="213.964844"/>
     </g>
    </g>
   </g>
   <g id="matplotlib.axis_4">
    <g id="ytick_5">
     <g id="line2d_20">
      <g>
       <use xlink:href="#m615b997423" x="90" y="252.006124" style="stroke: #000000; stroke-width: 0.8"/>
      </g>
     </g>
     <g id="text_20">
      <!-- 0 -->
      <g transform="translate(76.6375 255.805343)scale(0.1 -0.1)">
       <use xlink:href="#DejaVuSans-30"/>
      </g>
     </g>
    </g>
    <g id="ytick_6">
     <g id="line2d_21">
      <g>
       <use xlink:href="#m615b997423" x="90" y="225.211866" style="stroke: #000000; stroke-width: 0.8"/>
      </g>
     </g>
     <g id="text_21">
      <!-- 100 -->
      <g transform="translate(63.9125 229.011085)scale(0.1 -0.1)">
       <use xlink:href="#DejaVuSans-31"/>
       <use xlink:href="#DejaVuSans-30" x="63.623047"/>
       <use xlink:href="#DejaVuSans-30" x="127.246094"/>
      </g>
     </g>
    </g>
    <g id="ytick_7">
     <g id="line2d_22">
      <g>
       <use xlink:href="#m615b997423" x="90" y="198.417608" style="stroke: #000000; stroke-width: 0.8"/>
      </g>
     </g>
     <g id="text_22">
      <!-- 200 -->
      <g transform="translate(63.9125 202.216826)scale(0.1 -0.1)">
       <use xlink:href="#DejaVuSans-32"/>
       <use xlink:href="#DejaVuSans-30" x="63.623047"/>
       <use xlink:href="#DejaVuSans-30" x="127.246094"/>
      </g>
     </g>
    </g>
    <g id="ytick_8">
     <g id="line2d_23">
      <g>
       <use xlink:href="#m615b997423" x="90" y="171.623349" style="stroke: #000000; stroke-width: 0.8"/>
      </g>
     </g>
     <g id="text_23">
      <!-- 300 -->
      <g transform="translate(63.9125 175.422568)scale(0.1 -0.1)">
       <use xlink:href="#DejaVuSans-33"/>
       <use xlink:href="#DejaVuSans-30" x="63.623047"/>
       <use xlink:href="#DejaVuSans-30" x="127.246094"/>
      </g>
     </g>
    </g>
   </g>
   <g id="line2d_24">
    <path d="M 115.363636 251.738182 
L 116.282609 231.910431 
L 117.201581 229.498947 
L 118.120553 244.771675 
L 119.039526 251.470239 
L 119.958498 239.412823 
L 120.87747 239.14488 
L 121.796443 235.393684 
L 122.715415 239.14488 
L 123.634387 239.948708 
L 124.55336 250.666411 
L 125.472332 248.522871 
L 126.391304 247.719043 
L 127.310277 239.948708 
L 128.229249 213.690335 
L 129.148221 227.355407 
L 130.067194 244.235789 
L 130.986166 247.4511 
L 131.905138 251.202297 
L 133.743083 225.747751 
L 134.662055 246.111388 
L 135.581028 243.699904 
L 136.5 237.537225 
L 137.418972 237.537225 
L 138.337945 249.862584 
L 139.256917 237.805167 
L 140.175889 234.321914 
L 141.094862 243.967847 
L 142.013834 243.967847 
L 142.932806 239.412823 
L 143.851779 247.183158 
L 144.770751 249.326699 
L 145.689723 227.623349 
L 146.608696 249.058756 
L 147.527668 248.254928 
L 148.44664 249.862584 
L 149.365613 247.986986 
L 150.284585 251.470239 
L 151.203557 251.470239 
L 152.12253 229.231005 
L 153.041502 217.173589 
L 153.960474 244.235789 
L 154.879447 245.575502 
L 155.798419 227.891292 
L 156.717391 250.934354 
L 157.636364 245.30756 
L 158.555336 242.092249 
L 159.474308 246.37933 
L 160.393281 237.00134 
L 161.312253 247.183158 
L 162.231225 250.934354 
L 163.150198 251.738182 
L 164.06917 244.235789 
L 164.988142 242.628134 
L 165.907115 242.896077 
L 166.826087 241.556364 
L 167.745059 249.058756 
L 168.664032 250.934354 
L 169.583004 250.666411 
L 170.501976 247.4511 
L 171.420949 247.986986 
L 172.339921 243.164019 
L 173.258893 250.130526 
L 174.177866 251.202297 
L 175.096838 251.470239 
L 176.01581 248.522871 
L 176.934783 249.594641 
L 177.853755 250.398469 
L 178.772727 251.738182 
L 179.6917 247.4511 
L 180.610672 247.719043 
L 181.529644 250.934354 
L 182.448617 246.647273 
L 183.367589 243.164019 
L 184.286561 240.752536 
L 185.205534 247.986986 
L 186.124506 249.058756 
L 187.043478 233.518086 
L 187.962451 250.398469 
L 188.881423 235.125742 
L 189.800395 236.733397 
L 190.719368 240.752536 
L 191.63834 234.589856 
L 192.557312 247.183158 
L 193.476285 235.929569 
L 194.395257 251.202297 
L 195.314229 234.857799 
L 196.233202 236.197512 
L 197.152174 228.159234 
L 198.071146 233.786029 
L 198.990119 240.752536 
L 199.909091 243.431962 
L 200.828063 248.522871 
L 201.747036 230.302775 
L 202.666008 226.015694 
L 203.58498 237.269282 
L 204.503953 235.929569 
L 205.422925 233.518086 
L 206.341897 247.719043 
L 207.26087 248.790813 
L 208.179842 231.374545 
L 209.098814 247.183158 
L 210.936759 234.321914 
L 212.774704 250.934354 
L 213.693676 247.986986 
L 214.612648 236.465455 
L 215.531621 235.929569 
L 216.450593 226.819522 
L 217.369565 242.628134 
L 218.288538 250.398469 
L 219.20751 250.666411 
L 220.126482 249.326699 
L 221.045455 243.164019 
L 221.964427 243.431962 
L 222.883399 247.183158 
L 223.802372 232.178373 
L 224.721344 248.522871 
L 225.640316 242.628134 
L 226.559289 239.948708 
L 227.478261 241.556364 
L 228.397233 227.087464 
L 229.316206 236.733397 
L 230.235178 235.929569 
L 231.15415 240.752536 
L 232.073123 239.14488 
L 232.992095 240.216651 
L 233.911067 187.431962 
L 234.83004 246.111388 
L 235.749012 232.178373 
L 236.667984 235.661627 
L 237.586957 228.427177 
L 238.505929 242.360191 
L 239.424901 202.972632 
L 240.343874 201.364976 
L 241.262846 206.99177 
L 242.181818 230.570718 
L 243.100791 178.321914 
L 244.019763 225.211866 
L 244.938735 246.37933 
L 245.857708 245.575502 
L 246.77668 238.341053 
L 247.695652 232.446316 
L 248.614625 229.231005 
L 249.533597 235.661627 
L 250.452569 225.479809 
L 251.371542 244.235789 
L 252.290514 246.111388 
L 253.209486 208.063541 
L 254.128458 233.786029 
L 255.047431 235.393684 
L 255.966403 246.647273 
L 256.885375 248.790813 
L 257.804348 248.254928 
L 258.72332 234.053971 
L 259.642292 187.967847 
L 260.561265 231.106603 
L 261.480237 235.393684 
L 262.399209 216.369761 
L 263.318182 244.771675 
L 264.237154 248.522871 
L 265.156126 245.30756 
L 266.075099 223.604211 
L 266.994071 239.412823 
L 267.913043 224.943923 
L 268.832016 203.240574 
L 269.750988 234.857799 
L 270.66996 241.824306 
L 271.588933 246.37933 
L 272.507905 180.465455 
L 273.426877 228.963062 
L 274.34585 243.967847 
L 275.264822 236.197512 
L 276.183794 237.537225 
L 277.102767 249.058756 
L 278.021739 247.183158 
L 278.940711 191.183158 
L 279.859684 184.752536 
L 280.778656 201.364976 
L 281.697628 243.431962 
L 282.616601 249.326699 
L 283.535573 237.537225 
L 284.454545 247.719043 
L 286.29249 226.015694 
L 287.211462 167.336268 
L 288.130435 223.872153 
L 289.049407 223.068325 
L 289.968379 227.623349 
L 290.887352 245.843445 
L 291.806324 246.647273 
L 292.725296 221.996555 
L 293.644269 237.00134 
L 294.563241 236.733397 
L 295.482213 227.891292 
L 296.401186 243.699904 
L 297.320158 249.326699 
L 298.23913 201.097033 
L 299.158103 238.07311 
L 300.077075 215.030048 
L 300.996047 209.135311 
L 301.91502 215.565933 
L 302.833992 249.862584 
L 303.752964 249.862584 
L 304.671937 224.140096 
L 305.590909 234.053971 
L 306.509881 233.518086 
L 307.428854 239.680766 
L 308.347826 243.164019 
L 309.266798 248.522871 
L 310.185771 246.37933 
L 311.104743 227.355407 
L 312.023715 244.503732 
L 312.942688 241.020478 
L 313.86166 233.250144 
L 314.780632 239.412823 
L 315.699605 249.862584 
L 316.618577 249.862584 
L 317.537549 243.431962 
L 318.456522 240.752536 
L 319.375494 246.647273 
L 320.294466 241.824306 
L 321.213439 243.967847 
L 322.132411 249.326699 
L 323.051383 247.719043 
L 323.970356 232.178373 
L 324.889328 237.269282 
L 325.8083 172.69512 
L 326.727273 215.833876 
L 327.646245 244.503732 
L 328.565217 242.628134 
L 329.48419 250.130526 
L 330.403162 233.250144 
L 331.322134 235.125742 
L 332.241107 242.360191 
L 333.160079 241.556364 
L 334.079051 236.465455 
L 334.998024 249.862584 
L 335.916996 250.398469 
L 336.835968 196.274067 
L 337.754941 239.948708 
L 338.673913 245.30756 
L 339.592885 247.4511 
L 340.511858 204.312344 
L 341.43083 247.4511 
L 342.349802 248.254928 
L 344.187747 242.360191 
L 345.106719 242.628134 
L 346.025692 225.479809 
L 346.944664 244.771675 
L 347.863636 249.862584 
L 348.782609 243.967847 
L 349.701581 245.575502 
L 350.620553 183.948708 
L 351.539526 200.293206 
L 352.458498 241.020478 
L 353.37747 242.896077 
L 354.296443 245.039617 
L 355.215415 244.503732 
L 356.134387 232.714258 
L 357.05336 242.628134 
L 357.972332 243.699904 
L 358.891304 223.872153 
L 359.810277 239.948708 
L 360.729249 250.398469 
L 361.648221 251.738182 
L 362.567194 245.039617 
L 363.486166 245.575502 
L 364.405138 246.915215 
L 365.324111 243.967847 
L 366.243083 246.37933 
L 367.162055 249.594641 
L 368.081028 251.202297 
L 369 243.967847 
L 369.918972 243.699904 
L 370.837945 231.910431 
L 371.756917 230.302775 
L 372.675889 250.666411 
L 373.594862 246.37933 
L 374.513834 251.738182 
L 375.432806 239.680766 
L 376.351779 240.752536 
L 377.270751 243.164019 
L 378.189723 240.484593 
L 379.108696 248.522871 
L 380.027668 245.843445 
L 380.94664 250.130526 
L 381.865613 237.537225 
L 382.784585 239.412823 
L 383.703557 244.235789 
L 384.62253 241.288421 
L 385.541502 232.446316 
L 386.460474 242.360191 
L 387.379447 248.522871 
L 388.298419 233.518086 
L 389.217391 250.398469 
L 390.136364 246.111388 
L 391.055336 244.503732 
L 391.974308 251.202297 
L 392.893281 250.934354 
L 393.812253 245.039617 
L 394.731225 245.575502 
L 395.650198 233.250144 
L 396.56917 231.642488 
L 397.488142 249.058756 
L 398.407115 249.862584 
L 399.326087 250.398469 
L 400.245059 242.628134 
L 401.164032 228.159234 
L 402.083004 236.465455 
L 403.001976 236.197512 
L 403.920949 245.30756 
L 404.839921 249.862584 
L 405.758893 245.843445 
L 406.677866 246.647273 
L 407.596838 249.862584 
L 408.51581 237.269282 
L 409.434783 247.719043 
L 410.353755 242.628134 
L 411.272727 226.015694 
L 412.1917 250.934354 
L 413.110672 248.254928 
L 414.029644 233.786029 
L 414.948617 216.905646 
L 415.867589 236.733397 
L 416.786561 248.254928 
L 417.705534 247.719043 
L 418.624506 250.398469 
L 419.543478 246.647273 
L 420.462451 232.178373 
L 421.381423 230.570718 
L 422.300395 221.46067 
L 423.219368 233.786029 
L 424.13834 248.522871 
L 425.057312 251.470239 
L 425.976285 248.522871 
L 426.895257 249.862584 
L 427.814229 239.948708 
L 428.733202 189.575502 
L 429.652174 229.498947 
L 430.571146 242.628134 
L 431.490119 241.020478 
L 432.409091 230.83866 
L 433.328063 230.83866 
L 434.247036 220.924785 
L 435.166008 198.417608 
L 436.08498 217.441531 
L 437.003953 246.37933 
L 437.922925 250.666411 
L 438.841897 224.675981 
L 439.76087 228.159234 
L 440.679842 212.618565 
L 441.598814 240.216651 
L 442.517787 236.197512 
L 443.436759 246.111388 
L 444.355731 248.254928 
L 445.274704 215.565933 
L 446.193676 238.608995 
L 447.112648 249.594641 
L 448.031621 223.604211 
L 448.950593 164.924785 
L 449.869565 240.484593 
L 450.788538 235.929569 
L 451.70751 227.891292 
L 452.626482 228.963062 
L 453.545455 242.896077 
L 454.464427 232.446316 
L 455.383399 238.876938 
L 456.302372 246.915215 
L 457.221344 245.843445 
L 458.140316 235.929569 
L 459.059289 249.058756 
L 459.978261 243.431962 
L 460.897233 229.498947 
L 462.735178 250.934354 
L 463.65415 250.130526 
L 464.573123 245.039617 
L 465.492095 231.642488 
L 466.411067 240.752536 
L 467.33004 247.183158 
L 468.249012 247.986986 
L 469.167984 247.986986 
L 470.086957 248.790813 
L 471.005929 239.412823 
L 471.924901 235.661627 
L 472.843874 243.967847 
L 474.681818 237.537225 
L 475.600791 250.130526 
L 476.519763 249.862584 
L 477.438735 234.589856 
L 478.357708 232.982201 
L 479.27668 245.575502 
L 481.114625 250.934354 
L 482.033597 248.522871 
L 482.952569 247.719043 
L 483.871542 244.503732 
L 484.790514 228.69512 
L 485.709486 238.341053 
L 486.628458 238.876938 
L 487.547431 226.819522 
L 488.466403 249.862584 
L 489.385375 228.159234 
L 490.304348 237.269282 
L 491.22332 202.972632 
L 492.142292 239.948708 
L 493.061265 221.996555 
L 493.980237 247.4511 
L 494.899209 248.254928 
L 495.818182 230.034833 
L 496.737154 208.599426 
L 497.656126 234.589856 
L 498.575099 237.269282 
L 499.494071 243.431962 
L 500.413043 233.250144 
L 501.332016 249.058756 
L 502.250988 217.173589 
L 503.16996 235.929569 
L 504.088933 239.948708 
L 505.007905 242.628134 
L 505.926877 242.896077 
L 506.84585 246.915215 
L 507.764822 249.058756 
L 508.683794 245.843445 
L 509.602767 248.790813 
L 510.521739 250.934354 
L 511.440711 249.594641 
L 512.359684 249.326699 
L 513.278656 246.915215 
L 514.197628 217.709474 
L 516.035573 242.092249 
L 516.954545 243.164019 
L 517.873518 249.862584 
L 518.79249 250.934354 
L 519.711462 251.738182 
L 520.630435 243.699904 
L 521.549407 236.733397 
L 522.468379 241.288421 
L 523.387352 219.585072 
L 524.306324 246.915215 
L 525.225296 246.111388 
L 526.144269 250.934354 
L 527.063241 247.719043 
L 527.982213 239.412823 
L 528.901186 244.771675 
L 529.820158 242.092249 
L 530.73913 245.843445 
L 531.658103 250.666411 
L 532.577075 250.130526 
L 533.496047 219.585072 
L 534.41502 220.120957 
L 535.333992 235.929569 
L 536.252964 247.719043 
L 537.171937 217.441531 
L 538.090909 246.915215 
L 539.009881 235.929569 
L 539.928854 212.886507 
L 540.847826 238.07311 
L 541.766798 209.939139 
L 542.685771 198.68555 
L 543.604743 232.714258 
L 544.523715 250.666411 
L 545.442688 249.862584 
L 546.36166 196.809952 
L 547.280632 208.867368 
L 548.199605 223.872153 
L 549.118577 224.675981 
L 550.037549 179.125742 
L 550.956522 243.967847 
L 551.875494 245.575502 
L 552.794466 217.441531 
L 553.713439 226.015694 
L 554.632411 242.628134 
L 555.551383 240.752536 
L 556.470356 226.283636 
L 557.389328 247.719043 
L 558.3083 249.862584 
L 559.227273 225.747751 
L 560.146245 235.929569 
L 561.065217 223.336268 
L 561.98419 232.178373 
L 562.903162 216.369761 
L 563.822134 239.680766 
L 564.741107 248.254928 
L 565.660079 222.264498 
L 566.579051 228.427177 
L 567.498024 231.910431 
L 568.416996 227.623349 
L 569.335968 185.824306 
L 570.254941 223.872153 
L 571.173913 241.288421 
L 572.092885 160.101818 
L 573.011858 200.829091 
L 573.93083 224.943923 
L 574.849802 241.288421 
L 575.768775 239.680766 
L 576.687747 243.967847 
L 577.606719 247.4511 
L 578.525692 211.814737 
L 579.444664 223.068325 
L 580.363636 209.671196 
L 581.282609 213.15445 
L 582.201581 225.211866 
L 583.120553 250.130526 
L 584.039526 249.594641 
L 584.958498 213.422392 
L 585.87747 235.661627 
L 586.796443 222.53244 
L 587.715415 230.570718 
L 588.634387 235.393684 
L 589.55336 242.896077 
L 590.472332 247.719043 
L 591.391304 229.76689 
L 592.310277 236.197512 
L 593.229249 216.637703 
L 594.148221 214.22622 
L 595.067194 242.896077 
L 595.986166 249.058756 
L 596.905138 251.738182 
L 597.824111 239.680766 
L 598.743083 237.805167 
L 599.662055 243.699904 
L 600.581028 235.661627 
L 601.5 244.235789 
L 602.418972 249.326699 
L 603.337945 250.130526 
L 604.256917 242.896077 
L 605.175889 234.589856 
L 606.094862 247.986986 
L 607.013834 247.986986 
L 607.932806 243.967847 
L 608.851779 240.752536 
L 609.770751 229.498947 
L 610.689723 239.14488 
L 611.608696 238.608995 
L 612.527668 246.37933 
L 614.365613 247.4511 
L 615.284585 250.398469 
L 616.203557 248.790813 
L 618.041502 232.178373 
L 618.960474 234.857799 
L 619.879447 242.896077 
L 620.798419 235.661627 
L 621.717391 249.862584 
L 622.636364 251.470239 
L 622.636364 251.470239 
" clip-path="url(#pb1ac02a355)" style="fill: none; stroke: #1f77b4; stroke-width: 1.5; stroke-linecap: square"/>
   </g>
   <g id="line2d_25">
    <path d="M 115.363636 251.738182 
L 116.282609 249.594641 
L 117.201581 248.522871 
L 118.120553 249.594641 
L 119.039526 251.738182 
L 119.958498 250.130526 
L 120.87747 249.326699 
L 121.796443 249.326699 
L 122.715415 249.058756 
L 123.634387 249.594641 
L 124.55336 251.470239 
L 128.229249 249.326699 
L 129.148221 249.058756 
L 130.067194 250.130526 
L 131.905138 251.738182 
L 132.824111 249.058756 
L 133.743083 249.594641 
L 134.662055 250.666411 
L 135.581028 250.934354 
L 136.5 250.666411 
L 137.418972 251.470239 
L 138.337945 251.202297 
L 139.256917 250.130526 
L 140.175889 251.202297 
L 141.094862 249.058756 
L 142.013834 249.862584 
L 142.932806 250.398469 
L 143.851779 251.202297 
L 144.770751 251.202297 
L 145.689723 247.719043 
L 146.608696 251.470239 
L 147.527668 251.470239 
L 148.44664 251.202297 
L 150.284585 251.738182 
L 151.203557 251.470239 
L 152.12253 249.594641 
L 153.041502 247.183158 
L 153.960474 248.790813 
L 154.879447 250.130526 
L 155.798419 250.130526 
L 156.717391 251.470239 
L 157.636364 250.398469 
L 158.555336 250.130526 
L 159.474308 250.934354 
L 160.393281 247.986986 
L 161.312253 249.594641 
L 162.231225 251.470239 
L 163.150198 251.738182 
L 164.06917 249.326699 
L 165.907115 249.326699 
L 166.826087 250.130526 
L 167.745059 250.398469 
L 168.664032 251.202297 
L 169.583004 251.470239 
L 170.501976 250.934354 
L 171.420949 250.666411 
L 172.339921 251.202297 
L 174.177866 251.202297 
L 175.096838 251.470239 
L 176.01581 250.934354 
L 177.853755 250.934354 
L 178.772727 251.738182 
L 179.6917 251.202297 
L 180.610672 251.202297 
L 181.529644 250.934354 
L 182.448617 249.862584 
L 183.367589 248.254928 
L 184.286561 250.130526 
L 185.205534 251.202297 
L 186.124506 250.934354 
L 187.043478 250.934354 
L 187.962451 251.202297 
L 188.881423 249.594641 
L 189.800395 248.790813 
L 190.719368 249.862584 
L 191.63834 247.183158 
L 192.557312 249.862584 
L 193.476285 250.398469 
L 194.395257 251.202297 
L 195.314229 250.666411 
L 196.233202 250.666411 
L 197.152174 248.522871 
L 198.071146 249.594641 
L 198.990119 249.326699 
L 199.909091 249.326699 
L 200.828063 250.398469 
L 201.747036 246.37933 
L 202.666008 247.986986 
L 203.58498 249.326699 
L 204.503953 247.719043 
L 205.422925 246.647273 
L 206.341897 250.934354 
L 207.26087 250.666411 
L 208.179842 248.790813 
L 209.098814 250.130526 
L 210.017787 248.254928 
L 210.936759 249.594641 
L 211.855731 249.594641 
L 212.774704 250.934354 
L 213.693676 251.202297 
L 214.612648 249.058756 
L 215.531621 248.254928 
L 216.450593 248.522871 
L 217.369565 250.934354 
L 218.288538 251.470239 
L 220.126482 250.934354 
L 221.045455 250.934354 
L 221.964427 249.594641 
L 222.883399 250.398469 
L 223.802372 249.058756 
L 224.721344 250.934354 
L 225.640316 250.398469 
L 226.559289 250.934354 
L 227.478261 249.326699 
L 228.397233 249.058756 
L 229.316206 249.058756 
L 230.235178 248.254928 
L 231.15415 250.398469 
L 232.073123 250.934354 
L 232.992095 250.934354 
L 233.911067 242.896077 
L 234.83004 249.058756 
L 235.749012 249.058756 
L 236.667984 247.719043 
L 237.586957 249.326699 
L 238.505929 250.666411 
L 239.424901 250.666411 
L 240.343874 246.647273 
L 241.262846 246.915215 
L 242.181818 248.522871 
L 243.100791 246.915215 
L 244.019763 247.719043 
L 244.938735 250.130526 
L 245.857708 250.934354 
L 246.77668 247.719043 
L 247.695652 246.37933 
L 248.614625 247.4511 
L 249.533597 247.719043 
L 250.452569 249.594641 
L 251.371542 251.202297 
L 252.290514 250.130526 
L 253.209486 247.986986 
L 254.128458 247.986986 
L 255.047431 248.790813 
L 255.966403 250.666411 
L 257.804348 251.202297 
L 258.72332 250.130526 
L 259.642292 246.647273 
L 260.561265 247.4511 
L 261.480237 248.790813 
L 262.399209 247.183158 
L 263.318182 249.862584 
L 264.237154 251.202297 
L 266.075099 249.594641 
L 266.994071 248.522871 
L 267.913043 248.790813 
L 268.832016 247.719043 
L 269.750988 249.326699 
L 270.66996 249.594641 
L 271.588933 250.934354 
L 272.507905 245.843445 
L 273.426877 248.254928 
L 274.34585 249.058756 
L 275.264822 249.326699 
L 276.183794 249.326699 
L 277.102767 250.934354 
L 278.021739 250.398469 
L 278.940711 246.111388 
L 279.859684 244.771675 
L 280.778656 247.183158 
L 281.697628 249.058756 
L 282.616601 250.398469 
L 283.535573 249.326699 
L 284.454545 250.398469 
L 285.373518 246.647273 
L 286.29249 246.915215 
L 287.211462 230.302775 
L 288.130435 248.254928 
L 289.049407 246.915215 
L 289.968379 250.666411 
L 290.887352 251.738182 
L 291.806324 249.862584 
L 292.725296 248.522871 
L 293.644269 248.522871 
L 294.563241 248.790813 
L 295.482213 247.986986 
L 297.320158 251.202297 
L 298.23913 249.326699 
L 299.158103 248.522871 
L 300.077075 247.183158 
L 300.996047 247.4511 
L 301.91502 246.111388 
L 302.833992 250.666411 
L 303.752964 251.738182 
L 304.671937 246.111388 
L 305.590909 247.4511 
L 306.509881 249.594641 
L 307.428854 247.719043 
L 308.347826 248.522871 
L 309.266798 251.470239 
L 310.185771 250.398469 
L 311.104743 248.522871 
L 312.023715 249.594641 
L 312.942688 248.254928 
L 313.86166 246.647273 
L 315.699605 250.934354 
L 316.618577 251.202297 
L 317.537549 249.326699 
L 318.456522 247.986986 
L 319.375494 250.130526 
L 320.294466 249.594641 
L 321.213439 249.594641 
L 323.051383 250.130526 
L 323.970356 247.183158 
L 324.889328 249.058756 
L 325.8083 249.058756 
L 326.727273 250.130526 
L 327.646245 249.326699 
L 328.565217 251.202297 
L 329.48419 250.398469 
L 330.403162 248.522871 
L 331.322134 249.326699 
L 332.241107 249.058756 
L 333.160079 248.522871 
L 334.079051 249.326699 
L 334.998024 251.202297 
L 335.916996 250.934354 
L 336.835968 247.719043 
L 337.754941 250.666411 
L 338.673913 249.862584 
L 339.592885 249.326699 
L 340.511858 246.111388 
L 341.43083 251.202297 
L 342.349802 250.666411 
L 343.268775 249.862584 
L 344.187747 250.398469 
L 345.106719 249.058756 
L 346.025692 248.254928 
L 346.944664 249.326699 
L 347.863636 250.934354 
L 348.782609 250.934354 
L 349.701581 249.594641 
L 350.620553 247.4511 
L 351.539526 247.4511 
L 352.458498 250.398469 
L 353.37747 248.790813 
L 354.296443 250.666411 
L 355.215415 249.594641 
L 356.134387 247.986986 
L 357.05336 248.790813 
L 357.972332 248.790813 
L 358.891304 247.986986 
L 359.810277 248.254928 
L 360.729249 251.202297 
L 361.648221 251.738182 
L 362.567194 250.130526 
L 363.486166 250.130526 
L 364.405138 250.398469 
L 365.324111 250.398469 
L 366.243083 250.666411 
L 368.081028 251.738182 
L 369 250.398469 
L 369.918972 249.594641 
L 370.837945 249.862584 
L 371.756917 248.790813 
L 372.675889 251.202297 
L 373.594862 250.398469 
L 374.513834 251.738182 
L 375.432806 250.398469 
L 376.351779 250.398469 
L 377.270751 248.522871 
L 378.189723 247.986986 
L 379.108696 249.594641 
L 380.027668 250.666411 
L 380.94664 250.666411 
L 381.865613 248.790813 
L 382.784585 249.594641 
L 383.703557 249.862584 
L 384.62253 249.862584 
L 385.541502 249.058756 
L 386.460474 249.326699 
L 387.379447 250.666411 
L 388.298419 248.522871 
L 389.217391 251.470239 
L 390.136364 249.862584 
L 391.055336 249.862584 
L 391.974308 251.202297 
L 392.893281 250.934354 
L 393.812253 250.130526 
L 394.731225 250.130526 
L 395.650198 249.326699 
L 396.56917 249.594641 
L 397.488142 251.202297 
L 398.407115 250.934354 
L 399.326087 251.470239 
L 400.245059 250.398469 
L 401.164032 250.130526 
L 402.083004 248.790813 
L 403.001976 249.326699 
L 403.920949 250.398469 
L 404.839921 250.934354 
L 405.758893 250.398469 
L 406.677866 251.470239 
L 407.596838 250.934354 
L 408.51581 249.326699 
L 409.434783 250.130526 
L 410.353755 251.202297 
L 411.272727 248.522871 
L 412.1917 251.470239 
L 413.110672 251.202297 
L 414.029644 248.254928 
L 415.867589 249.326699 
L 416.786561 250.398469 
L 417.705534 249.862584 
L 418.624506 251.202297 
L 419.543478 250.666411 
L 420.462451 247.986986 
L 421.381423 249.862584 
L 422.300395 249.326699 
L 423.219368 249.862584 
L 424.13834 249.862584 
L 425.057312 251.470239 
L 425.976285 251.470239 
L 426.895257 250.934354 
L 427.814229 248.522871 
L 429.652174 248.522871 
L 430.571146 249.862584 
L 431.490119 249.862584 
L 432.409091 249.058756 
L 433.328063 248.790813 
L 434.247036 247.4511 
L 435.166008 249.594641 
L 436.08498 247.719043 
L 437.003953 250.130526 
L 437.922925 251.202297 
L 438.841897 250.398469 
L 439.76087 249.862584 
L 440.679842 248.254928 
L 441.598814 248.522871 
L 442.517787 249.326699 
L 443.436759 249.862584 
L 444.355731 250.130526 
L 445.274704 247.719043 
L 446.193676 248.522871 
L 447.112648 250.666411 
L 448.031621 249.594641 
L 449.869565 249.058756 
L 450.788538 249.594641 
L 451.70751 247.719043 
L 452.626482 250.130526 
L 453.545455 250.398469 
L 454.464427 248.522871 
L 455.383399 249.058756 
L 456.302372 250.934354 
L 457.221344 250.398469 
L 458.140316 249.594641 
L 459.059289 250.934354 
L 459.978261 249.326699 
L 460.897233 248.790813 
L 461.816206 249.058756 
L 462.735178 251.202297 
L 463.65415 251.202297 
L 464.573123 249.326699 
L 465.492095 250.398469 
L 466.411067 247.986986 
L 468.249012 250.130526 
L 469.167984 250.666411 
L 470.086957 250.130526 
L 471.005929 249.058756 
L 471.924901 247.4511 
L 472.843874 248.522871 
L 473.762846 247.986986 
L 474.681818 249.058756 
L 475.600791 250.666411 
L 476.519763 250.934354 
L 477.438735 249.326699 
L 478.357708 250.666411 
L 479.27668 249.862584 
L 480.195652 250.130526 
L 481.114625 251.470239 
L 482.033597 250.934354 
L 482.952569 250.934354 
L 483.871542 251.470239 
L 484.790514 249.594641 
L 485.709486 250.398469 
L 486.628458 249.058756 
L 487.547431 250.666411 
L 488.466403 251.202297 
L 489.385375 249.058756 
L 490.304348 249.594641 
L 491.22332 249.594641 
L 492.142292 246.915215 
L 493.061265 246.647273 
L 493.980237 250.398469 
L 494.899209 250.398469 
L 495.818182 248.790813 
L 496.737154 248.790813 
L 497.656126 249.862584 
L 498.575099 249.326699 
L 499.494071 250.398469 
L 500.413043 250.666411 
L 501.332016 250.666411 
L 502.250988 248.254928 
L 503.16996 249.862584 
L 504.088933 250.666411 
L 505.007905 250.934354 
L 505.926877 249.594641 
L 506.84585 251.738182 
L 507.764822 251.470239 
L 508.683794 250.934354 
L 509.602767 250.934354 
L 510.521739 251.202297 
L 511.440711 250.666411 
L 512.359684 251.202297 
L 513.278656 250.398469 
L 514.197628 244.771675 
L 515.116601 247.4511 
L 516.035573 249.326699 
L 518.79249 250.934354 
L 519.711462 251.738182 
L 520.630435 249.594641 
L 521.549407 249.594641 
L 522.468379 249.058756 
L 523.387352 246.111388 
L 524.306324 250.666411 
L 525.225296 251.738182 
L 526.144269 251.470239 
L 527.063241 250.666411 
L 527.982213 248.254928 
L 528.901186 250.934354 
L 529.820158 250.130526 
L 530.73913 248.522871 
L 531.658103 251.202297 
L 532.577075 251.202297 
L 533.496047 250.130526 
L 534.41502 247.986986 
L 535.333992 248.790813 
L 536.252964 249.862584 
L 537.171937 249.326699 
L 538.090909 250.934354 
L 539.009881 250.666411 
L 539.928854 248.254928 
L 540.847826 249.326699 
L 541.766798 247.183158 
L 542.685771 246.647273 
L 543.604743 247.183158 
L 544.523715 251.202297 
L 545.442688 251.738182 
L 546.36166 247.986986 
L 547.280632 246.111388 
L 548.199605 247.986986 
L 549.118577 246.647273 
L 550.037549 243.431962 
L 550.956522 249.594641 
L 551.875494 249.326699 
L 552.794466 247.4511 
L 553.713439 247.183158 
L 554.632411 248.254928 
L 555.551383 248.790813 
L 556.470356 247.986986 
L 557.389328 249.862584 
L 558.3083 250.934354 
L 559.227273 247.719043 
L 561.065217 248.254928 
L 561.98419 246.915215 
L 562.903162 247.4511 
L 563.822134 247.719043 
L 564.741107 250.666411 
L 565.660079 245.843445 
L 566.579051 245.843445 
L 567.498024 243.967847 
L 568.416996 247.183158 
L 569.335968 247.183158 
L 570.254941 249.862584 
L 571.173913 249.058756 
L 572.092885 247.986986 
L 573.011858 245.843445 
L 573.93083 248.522871 
L 574.849802 249.058756 
L 575.768775 249.326699 
L 576.687747 249.326699 
L 577.606719 249.862584 
L 578.525692 246.647273 
L 579.444664 247.183158 
L 580.363636 245.039617 
L 581.282609 247.986986 
L 582.201581 247.183158 
L 583.120553 250.934354 
L 584.039526 251.202297 
L 584.958498 243.967847 
L 585.87747 247.4511 
L 586.796443 245.575502 
L 587.715415 246.37933 
L 588.634387 249.594641 
L 589.55336 250.398469 
L 590.472332 250.398469 
L 591.391304 248.522871 
L 592.310277 249.326699 
L 593.229249 247.183158 
L 594.148221 246.915215 
L 595.067194 249.594641 
L 595.986166 249.862584 
L 596.905138 251.738182 
L 597.824111 248.522871 
L 598.743083 248.254928 
L 599.662055 249.058756 
L 600.581028 244.771675 
L 601.5 249.326699 
L 602.418972 251.470239 
L 603.337945 250.934354 
L 604.256917 249.058756 
L 605.175889 249.594641 
L 606.094862 249.594641 
L 607.013834 250.666411 
L 607.932806 250.666411 
L 608.851779 251.202297 
L 609.770751 250.666411 
L 610.689723 249.326699 
L 611.608696 249.058756 
L 612.527668 249.326699 
L 613.44664 250.130526 
L 614.365613 249.594641 
L 615.284585 250.666411 
L 616.203557 249.594641 
L 617.12253 248.790813 
L 618.041502 248.522871 
L 618.960474 248.522871 
L 619.879447 249.862584 
L 620.798419 246.915215 
L 621.717391 251.470239 
L 622.636364 251.470239 
L 622.636364 251.470239 
" clip-path="url(#pb1ac02a355)" style="fill: none; stroke: #ff7f0e; stroke-width: 1.5; stroke-linecap: square"/>
   </g>
   <g id="patch_9">
    <path d="M 90 256.32 
L 90 155.52 
" style="fill: none; stroke: #000000; stroke-width: 0.8; stroke-linejoin: miter; stroke-linecap: square"/>
   </g>
   <g id="patch_10">
    <path d="M 648 256.32 
L 648 155.52 
" style="fill: none; stroke: #000000; stroke-width: 0.8; stroke-linejoin: miter; stroke-linecap: square"/>
   </g>
   <g id="patch_11">
    <path d="M 90 256.32 
L 648 256.32 
" style="fill: none; stroke: #000000; stroke-width: 0.8; stroke-linejoin: miter; stroke-linecap: square"/>
   </g>
   <g id="patch_12">
    <path d="M 90 155.52 
L 648 155.52 
" style="fill: none; stroke: #000000; stroke-width: 0.8; stroke-linejoin: miter; stroke-linecap: square"/>
   </g>
   <g id="legend_2">
    <g id="patch_13">
     <path d="M 97 192.87625 
L 234.217188 192.87625 
Q 236.217188 192.87625 236.217188 190.87625 
L 236.217188 162.52 
Q 236.217188 160.52 234.217188 160.52 
L 97 160.52 
Q 95 160.52 95 162.52 
L 95 190.87625 
Q 95 192.87625 97 192.87625 
z
" style="fill: #ffffff; opacity: 0.8; stroke: #cccccc; stroke-linejoin: miter"/>
    </g>
    <g id="line2d_26">
     <path d="M 99 168.618437 
L 109 168.618437 
L 119 168.618437 
" style="fill: none; stroke: #1f77b4; stroke-width: 1.5; stroke-linecap: square"/>
    </g>
    <g id="text_24">
     <!-- Total GitHub Views -->
     <g transform="translate(127 172.118437)scale(0.1 -0.1)">
      <defs>
       <path id="DejaVuSans-56" d="M 1831 0 
L 50 4666 
L 709 4666 
L 2188 738 
L 3669 4666 
L 4325 4666 
L 2547 0 
L 1831 0 
z
" transform="scale(0.015625)"/>
       <path id="DejaVuSans-77" d="M 269 3500 
L 844 3500 
L 1563 769 
L 2278 3500 
L 2956 3500 
L 3675 769 
L 4391 3500 
L 4966 3500 
L 4050 0 
L 3372 0 
L 2619 2869 
L 1863 0 
L 1184 0 
L 269 3500 
z
" transform="scale(0.015625)"/>
      </defs>
      <use xlink:href="#DejaVuSans-54"/>
      <use xlink:href="#DejaVuSans-6f" x="44.083984"/>
      <use xlink:href="#DejaVuSans-74" x="105.265625"/>
      <use xlink:href="#DejaVuSans-61" x="144.474609"/>
      <use xlink:href="#DejaVuSans-6c" x="205.753906"/>
      <use xlink:href="#DejaVuSans-20" x="233.537109"/>
      <use xlink:href="#DejaVuSans-47" x="265.324219"/>
      <use xlink:href="#DejaVuSans-69" x="342.814453"/>
      <use xlink:href="#DejaVuSans-74" x="370.597656"/>
      <use xlink:href="#DejaVuSans-48" x="409.806641"/>
      <use xlink:href="#DejaVuSans-75" x="485.001953"/>
      <use xlink:href="#DejaVuSans-62" x="548.380859"/>
      <use xlink:href="#DejaVuSans-20" x="611.857422"/>
      <use xlink:href="#DejaVuSans-56" x="643.644531"/>
      <use xlink:href="#DejaVuSans-69" x="709.802734"/>
      <use xlink:href="#DejaVuSans-65" x="737.585938"/>
      <use xlink:href="#DejaVuSans-77" x="799.109375"/>
      <use xlink:href="#DejaVuSans-73" x="880.896484"/>
     </g>
    </g>
    <g id="line2d_27">
     <path d="M 99 183.296562 
L 109 183.296562 
L 119 183.296562 
" style="fill: none; stroke: #ff7f0e; stroke-width: 1.5; stroke-linecap: square"/>
    </g>
    <g id="text_25">
     <!-- Unique GitHub Views -->
     <g transform="translate(127 186.796562)scale(0.1 -0.1)">
      <use xlink:href="#DejaVuSans-55"/>
      <use xlink:href="#DejaVuSans-6e" x="73.193359"/>
      <use xlink:href="#DejaVuSans-69" x="136.572266"/>
      <use xlink:href="#DejaVuSans-71" x="164.355469"/>
      <use xlink:href="#DejaVuSans-75" x="227.832031"/>
      <use xlink:href="#DejaVuSans-65" x="291.210938"/>
      <use xlink:href="#DejaVuSans-20" x="352.734375"/>
      <use xlink:href="#DejaVuSans-47" x="384.521484"/>
      <use xlink:href="#DejaVuSans-69" x="462.011719"/>
      <use xlink:href="#DejaVuSans-74" x="489.794922"/>
      <use xlink:href="#DejaVuSans-48" x="529.003906"/>
      <use xlink:href="#DejaVuSans-75" x="604.199219"/>
      <use xlink:href="#DejaVuSans-62" x="667.578125"/>
      <use xlink:href="#DejaVuSans-20" x="731.054688"/>
      <use xlink:href="#DejaVuSans-56" x="762.841797"/>
      <use xlink:href="#DejaVuSans-69" x="829"/>
      <use xlink:href="#DejaVuSans-65" x="856.783203"/>
      <use xlink:href="#DejaVuSans-77" x="918.306641"/>
      <use xlink:href="#DejaVuSans-73" x="1000.09375"/>
     </g>
    </g>
   </g>
  </g>
 </g>
 <defs>
  <clipPath id="p018c5abfe9">
   <rect x="90" y="34.56" width="558" height="100.8"/>
  </clipPath>
  <clipPath id="pb1ac02a355">
   <rect x="90" y="155.52" width="558" height="100.8"/>
  </clipPath>
 </defs>
</svg>
