<?xml version="1.0" encoding="utf-8" standalone="no"?>
<!DOCTYPE svg PUBLIC "-//W3C//DTD SVG 1.1//EN"
  "http://www.w3.org/Graphics/SVG/1.1/DTD/svg11.dtd">
<svg height="288pt" version="1.1" viewBox="0 0 720 288" width="720pt" xmlns="http://www.w3.org/2000/svg" xmlns:xlink="http://www.w3.org/1999/xlink">
 <metadata>
  <rdf:RDF xmlns:cc="http://creativecommons.org/ns#" xmlns:dc="http://purl.org/dc/elements/1.1/" xmlns:rdf="http://www.w3.org/1999/02/22-rdf-syntax-ns#">
   <cc:Work>
    <dc:type rdf:resource="http://purl.org/dc/dcmitype/StillImage"/>
    <dc:date>2021-05-17T00:13:58.399961</dc:date>
    <dc:format>image/svg+xml</dc:format>
    <dc:creator>
     <cc:Agent>
      <dc:title>Matplotlib v3.4.2, https://matplotlib.org/</dc:title>
     </cc:Agent>
    </dc:creator>
   </cc:Work>
  </rdf:RDF>
 </metadata>
 <defs>
  <style type="text/css">*{stroke-linecap:butt;stroke-linejoin:round;}</style>
 </defs>
 <g id="figure_1">
  <g id="patch_1">
   <path d="M 0 288 
L 720 288 
L 720 0 
L 0 0 
z
" style="fill:#ffffff;"/>
  </g>
  <g id="axes_1">
   <g id="patch_2">
    <path d="M 90 135.36 
L 648 135.36 
L 648 34.56 
L 90 34.56 
z
" style="fill:#ffffff;"/>
   </g>
   <g id="matplotlib.axis_1">
    <g id="xtick_1">
     <g id="line2d_1">
      <defs>
       <path d="M 0 0 
L 0 3.5 
" id="mf341f03968" style="stroke:#000000;stroke-width:0.8;"/>
      </defs>
      <g>
       <use style="stroke:#000000;stroke-width:0.8;" x="115.363636" xlink:href="#mf341f03968" y="135.36"/>
      </g>
     </g>
     <g id="text_1">
      <!-- 2020-10-22 -->
      <g transform="translate(86.305824 149.958437)scale(0.1 -0.1)">
       <defs>
        <path d="M 1228 531 
L 3431 531 
L 3431 0 
L 469 0 
L 469 531 
Q 828 903 1448 1529 
Q 2069 2156 2228 2338 
Q 2531 2678 2651 2914 
Q 2772 3150 2772 3378 
Q 2772 3750 2511 3984 
Q 2250 4219 1831 4219 
Q 1534 4219 1204 4116 
Q 875 4013 500 3803 
L 500 4441 
Q 881 4594 1212 4672 
Q 1544 4750 1819 4750 
Q 2544 4750 2975 4387 
Q 3406 4025 3406 3419 
Q 3406 3131 3298 2873 
Q 3191 2616 2906 2266 
Q 2828 2175 2409 1742 
Q 1991 1309 1228 531 
z
" id="DejaVuSans-32" transform="scale(0.015625)"/>
        <path d="M 2034 4250 
Q 1547 4250 1301 3770 
Q 1056 3291 1056 2328 
Q 1056 1369 1301 889 
Q 1547 409 2034 409 
Q 2525 409 2770 889 
Q 3016 1369 3016 2328 
Q 3016 3291 2770 3770 
Q 2525 4250 2034 4250 
z
M 2034 4750 
Q 2819 4750 3233 4129 
Q 3647 3509 3647 2328 
Q 3647 1150 3233 529 
Q 2819 -91 2034 -91 
Q 1250 -91 836 529 
Q 422 1150 422 2328 
Q 422 3509 836 4129 
Q 1250 4750 2034 4750 
z
" id="DejaVuSans-30" transform="scale(0.015625)"/>
        <path d="M 313 2009 
L 1997 2009 
L 1997 1497 
L 313 1497 
L 313 2009 
z
" id="DejaVuSans-2d" transform="scale(0.015625)"/>
        <path d="M 794 531 
L 1825 531 
L 1825 4091 
L 703 3866 
L 703 4441 
L 1819 4666 
L 2450 4666 
L 2450 531 
L 3481 531 
L 3481 0 
L 794 0 
L 794 531 
z
" id="DejaVuSans-31" transform="scale(0.015625)"/>
       </defs>
       <use xlink:href="#DejaVuSans-32"/>
       <use x="63.623047" xlink:href="#DejaVuSans-30"/>
       <use x="127.246094" xlink:href="#DejaVuSans-32"/>
       <use x="190.869141" xlink:href="#DejaVuSans-30"/>
       <use x="254.492188" xlink:href="#DejaVuSans-2d"/>
       <use x="290.576172" xlink:href="#DejaVuSans-31"/>
       <use x="354.199219" xlink:href="#DejaVuSans-30"/>
       <use x="417.822266" xlink:href="#DejaVuSans-2d"/>
       <use x="453.90625" xlink:href="#DejaVuSans-32"/>
       <use x="517.529297" xlink:href="#DejaVuSans-32"/>
      </g>
     </g>
    </g>
    <g id="xtick_2">
     <g id="line2d_2">
      <g>
       <use style="stroke:#000000;stroke-width:0.8;" x="192.691796" xlink:href="#mf341f03968" y="135.36"/>
      </g>
     </g>
     <g id="text_2">
      <!-- 2020-11-27 -->
      <g transform="translate(163.633984 149.958437)scale(0.1 -0.1)">
       <defs>
        <path d="M 525 4666 
L 3525 4666 
L 3525 4397 
L 1831 0 
L 1172 0 
L 2766 4134 
L 525 4134 
L 525 4666 
z
" id="DejaVuSans-37" transform="scale(0.015625)"/>
       </defs>
       <use xlink:href="#DejaVuSans-32"/>
       <use x="63.623047" xlink:href="#DejaVuSans-30"/>
       <use x="127.246094" xlink:href="#DejaVuSans-32"/>
       <use x="190.869141" xlink:href="#DejaVuSans-30"/>
       <use x="254.492188" xlink:href="#DejaVuSans-2d"/>
       <use x="290.576172" xlink:href="#DejaVuSans-31"/>
       <use x="354.199219" xlink:href="#DejaVuSans-31"/>
       <use x="417.822266" xlink:href="#DejaVuSans-2d"/>
       <use x="453.90625" xlink:href="#DejaVuSans-32"/>
       <use x="517.529297" xlink:href="#DejaVuSans-37"/>
      </g>
     </g>
    </g>
    <g id="xtick_3">
     <g id="line2d_3">
      <g>
       <use style="stroke:#000000;stroke-width:0.8;" x="270.019956" xlink:href="#mf341f03968" y="135.36"/>
      </g>
     </g>
     <g id="text_3">
      <!-- 2021-01-05 -->
      <g transform="translate(240.962143 149.958437)scale(0.1 -0.1)">
       <defs>
        <path d="M 691 4666 
L 3169 4666 
L 3169 4134 
L 1269 4134 
L 1269 2991 
Q 1406 3038 1543 3061 
Q 1681 3084 1819 3084 
Q 2600 3084 3056 2656 
Q 3513 2228 3513 1497 
Q 3513 744 3044 326 
Q 2575 -91 1722 -91 
Q 1428 -91 1123 -41 
Q 819 9 494 109 
L 494 744 
Q 775 591 1075 516 
Q 1375 441 1709 441 
Q 2250 441 2565 725 
Q 2881 1009 2881 1497 
Q 2881 1984 2565 2268 
Q 2250 2553 1709 2553 
Q 1456 2553 1204 2497 
Q 953 2441 691 2322 
L 691 4666 
z
" id="DejaVuSans-35" transform="scale(0.015625)"/>
       </defs>
       <use xlink:href="#DejaVuSans-32"/>
       <use x="63.623047" xlink:href="#DejaVuSans-30"/>
       <use x="127.246094" xlink:href="#DejaVuSans-32"/>
       <use x="190.869141" xlink:href="#DejaVuSans-31"/>
       <use x="254.492188" xlink:href="#DejaVuSans-2d"/>
       <use x="290.576172" xlink:href="#DejaVuSans-30"/>
       <use x="354.199219" xlink:href="#DejaVuSans-31"/>
       <use x="417.822266" xlink:href="#DejaVuSans-2d"/>
       <use x="453.90625" xlink:href="#DejaVuSans-30"/>
       <use x="517.529297" xlink:href="#DejaVuSans-35"/>
      </g>
     </g>
    </g>
    <g id="xtick_4">
     <g id="line2d_4">
      <g>
       <use style="stroke:#000000;stroke-width:0.8;" x="347.348115" xlink:href="#mf341f03968" y="135.36"/>
      </g>
     </g>
     <g id="text_4">
      <!-- 2021-02-18 -->
      <g transform="translate(318.290303 149.958437)scale(0.1 -0.1)">
       <defs>
        <path d="M 2034 2216 
Q 1584 2216 1326 1975 
Q 1069 1734 1069 1313 
Q 1069 891 1326 650 
Q 1584 409 2034 409 
Q 2484 409 2743 651 
Q 3003 894 3003 1313 
Q 3003 1734 2745 1975 
Q 2488 2216 2034 2216 
z
M 1403 2484 
Q 997 2584 770 2862 
Q 544 3141 544 3541 
Q 544 4100 942 4425 
Q 1341 4750 2034 4750 
Q 2731 4750 3128 4425 
Q 3525 4100 3525 3541 
Q 3525 3141 3298 2862 
Q 3072 2584 2669 2484 
Q 3125 2378 3379 2068 
Q 3634 1759 3634 1313 
Q 3634 634 3220 271 
Q 2806 -91 2034 -91 
Q 1263 -91 848 271 
Q 434 634 434 1313 
Q 434 1759 690 2068 
Q 947 2378 1403 2484 
z
M 1172 3481 
Q 1172 3119 1398 2916 
Q 1625 2713 2034 2713 
Q 2441 2713 2670 2916 
Q 2900 3119 2900 3481 
Q 2900 3844 2670 4047 
Q 2441 4250 2034 4250 
Q 1625 4250 1398 4047 
Q 1172 3844 1172 3481 
z
" id="DejaVuSans-38" transform="scale(0.015625)"/>
       </defs>
       <use xlink:href="#DejaVuSans-32"/>
       <use x="63.623047" xlink:href="#DejaVuSans-30"/>
       <use x="127.246094" xlink:href="#DejaVuSans-32"/>
       <use x="190.869141" xlink:href="#DejaVuSans-31"/>
       <use x="254.492188" xlink:href="#DejaVuSans-2d"/>
       <use x="290.576172" xlink:href="#DejaVuSans-30"/>
       <use x="354.199219" xlink:href="#DejaVuSans-32"/>
       <use x="417.822266" xlink:href="#DejaVuSans-2d"/>
       <use x="453.90625" xlink:href="#DejaVuSans-31"/>
       <use x="517.529297" xlink:href="#DejaVuSans-38"/>
      </g>
     </g>
    </g>
    <g id="xtick_5">
     <g id="line2d_5">
      <g>
       <use style="stroke:#000000;stroke-width:0.8;" x="424.676275" xlink:href="#mf341f03968" y="135.36"/>
      </g>
     </g>
     <g id="text_5">
      <!-- 2021-03-17 -->
      <g transform="translate(395.618462 149.958437)scale(0.1 -0.1)">
       <defs>
        <path d="M 2597 2516 
Q 3050 2419 3304 2112 
Q 3559 1806 3559 1356 
Q 3559 666 3084 287 
Q 2609 -91 1734 -91 
Q 1441 -91 1130 -33 
Q 819 25 488 141 
L 488 750 
Q 750 597 1062 519 
Q 1375 441 1716 441 
Q 2309 441 2620 675 
Q 2931 909 2931 1356 
Q 2931 1769 2642 2001 
Q 2353 2234 1838 2234 
L 1294 2234 
L 1294 2753 
L 1863 2753 
Q 2328 2753 2575 2939 
Q 2822 3125 2822 3475 
Q 2822 3834 2567 4026 
Q 2313 4219 1838 4219 
Q 1578 4219 1281 4162 
Q 984 4106 628 3988 
L 628 4550 
Q 988 4650 1302 4700 
Q 1616 4750 1894 4750 
Q 2613 4750 3031 4423 
Q 3450 4097 3450 3541 
Q 3450 3153 3228 2886 
Q 3006 2619 2597 2516 
z
" id="DejaVuSans-33" transform="scale(0.015625)"/>
       </defs>
       <use xlink:href="#DejaVuSans-32"/>
       <use x="63.623047" xlink:href="#DejaVuSans-30"/>
       <use x="127.246094" xlink:href="#DejaVuSans-32"/>
       <use x="190.869141" xlink:href="#DejaVuSans-31"/>
       <use x="254.492188" xlink:href="#DejaVuSans-2d"/>
       <use x="290.576172" xlink:href="#DejaVuSans-30"/>
       <use x="354.199219" xlink:href="#DejaVuSans-33"/>
       <use x="417.822266" xlink:href="#DejaVuSans-2d"/>
       <use x="453.90625" xlink:href="#DejaVuSans-31"/>
       <use x="517.529297" xlink:href="#DejaVuSans-37"/>
      </g>
     </g>
    </g>
    <g id="xtick_6">
     <g id="line2d_6">
      <g>
       <use style="stroke:#000000;stroke-width:0.8;" x="502.004435" xlink:href="#mf341f03968" y="135.36"/>
      </g>
     </g>
     <g id="text_6">
      <!-- 2021-04-09 -->
      <g transform="translate(472.946622 149.958437)scale(0.1 -0.1)">
       <defs>
        <path d="M 2419 4116 
L 825 1625 
L 2419 1625 
L 2419 4116 
z
M 2253 4666 
L 3047 4666 
L 3047 1625 
L 3713 1625 
L 3713 1100 
L 3047 1100 
L 3047 0 
L 2419 0 
L 2419 1100 
L 313 1100 
L 313 1709 
L 2253 4666 
z
" id="DejaVuSans-34" transform="scale(0.015625)"/>
        <path d="M 703 97 
L 703 672 
Q 941 559 1184 500 
Q 1428 441 1663 441 
Q 2288 441 2617 861 
Q 2947 1281 2994 2138 
Q 2813 1869 2534 1725 
Q 2256 1581 1919 1581 
Q 1219 1581 811 2004 
Q 403 2428 403 3163 
Q 403 3881 828 4315 
Q 1253 4750 1959 4750 
Q 2769 4750 3195 4129 
Q 3622 3509 3622 2328 
Q 3622 1225 3098 567 
Q 2575 -91 1691 -91 
Q 1453 -91 1209 -44 
Q 966 3 703 97 
z
M 1959 2075 
Q 2384 2075 2632 2365 
Q 2881 2656 2881 3163 
Q 2881 3666 2632 3958 
Q 2384 4250 1959 4250 
Q 1534 4250 1286 3958 
Q 1038 3666 1038 3163 
Q 1038 2656 1286 2365 
Q 1534 2075 1959 2075 
z
" id="DejaVuSans-39" transform="scale(0.015625)"/>
       </defs>
       <use xlink:href="#DejaVuSans-32"/>
       <use x="63.623047" xlink:href="#DejaVuSans-30"/>
       <use x="127.246094" xlink:href="#DejaVuSans-32"/>
       <use x="190.869141" xlink:href="#DejaVuSans-31"/>
       <use x="254.492188" xlink:href="#DejaVuSans-2d"/>
       <use x="290.576172" xlink:href="#DejaVuSans-30"/>
       <use x="354.199219" xlink:href="#DejaVuSans-34"/>
       <use x="417.822266" xlink:href="#DejaVuSans-2d"/>
       <use x="453.90625" xlink:href="#DejaVuSans-30"/>
       <use x="517.529297" xlink:href="#DejaVuSans-39"/>
      </g>
     </g>
    </g>
    <g id="xtick_7">
     <g id="line2d_7">
      <g>
       <use style="stroke:#000000;stroke-width:0.8;" x="579.332594" xlink:href="#mf341f03968" y="135.36"/>
      </g>
     </g>
     <g id="text_7">
      <!-- 2021-05-03 -->
      <g transform="translate(550.274782 149.958437)scale(0.1 -0.1)">
       <use xlink:href="#DejaVuSans-32"/>
       <use x="63.623047" xlink:href="#DejaVuSans-30"/>
       <use x="127.246094" xlink:href="#DejaVuSans-32"/>
       <use x="190.869141" xlink:href="#DejaVuSans-31"/>
       <use x="254.492188" xlink:href="#DejaVuSans-2d"/>
       <use x="290.576172" xlink:href="#DejaVuSans-30"/>
       <use x="354.199219" xlink:href="#DejaVuSans-35"/>
       <use x="417.822266" xlink:href="#DejaVuSans-2d"/>
       <use x="453.90625" xlink:href="#DejaVuSans-30"/>
       <use x="517.529297" xlink:href="#DejaVuSans-33"/>
      </g>
     </g>
    </g>
    <g id="text_8">
     <!-- _date -->
     <g transform="translate(355.225 163.636562)scale(0.1 -0.1)">
      <defs>
       <path d="M 3263 -1063 
L 3263 -1509 
L -63 -1509 
L -63 -1063 
L 3263 -1063 
z
" id="DejaVuSans-5f" transform="scale(0.015625)"/>
       <path d="M 2906 2969 
L 2906 4863 
L 3481 4863 
L 3481 0 
L 2906 0 
L 2906 525 
Q 2725 213 2448 61 
Q 2172 -91 1784 -91 
Q 1150 -91 751 415 
Q 353 922 353 1747 
Q 353 2572 751 3078 
Q 1150 3584 1784 3584 
Q 2172 3584 2448 3432 
Q 2725 3281 2906 2969 
z
M 947 1747 
Q 947 1113 1208 752 
Q 1469 391 1925 391 
Q 2381 391 2643 752 
Q 2906 1113 2906 1747 
Q 2906 2381 2643 2742 
Q 2381 3103 1925 3103 
Q 1469 3103 1208 2742 
Q 947 2381 947 1747 
z
" id="DejaVuSans-64" transform="scale(0.015625)"/>
       <path d="M 2194 1759 
Q 1497 1759 1228 1600 
Q 959 1441 959 1056 
Q 959 750 1161 570 
Q 1363 391 1709 391 
Q 2188 391 2477 730 
Q 2766 1069 2766 1631 
L 2766 1759 
L 2194 1759 
z
M 3341 1997 
L 3341 0 
L 2766 0 
L 2766 531 
Q 2569 213 2275 61 
Q 1981 -91 1556 -91 
Q 1019 -91 701 211 
Q 384 513 384 1019 
Q 384 1609 779 1909 
Q 1175 2209 1959 2209 
L 2766 2209 
L 2766 2266 
Q 2766 2663 2505 2880 
Q 2244 3097 1772 3097 
Q 1472 3097 1187 3025 
Q 903 2953 641 2809 
L 641 3341 
Q 956 3463 1253 3523 
Q 1550 3584 1831 3584 
Q 2591 3584 2966 3190 
Q 3341 2797 3341 1997 
z
" id="DejaVuSans-61" transform="scale(0.015625)"/>
       <path d="M 1172 4494 
L 1172 3500 
L 2356 3500 
L 2356 3053 
L 1172 3053 
L 1172 1153 
Q 1172 725 1289 603 
Q 1406 481 1766 481 
L 2356 481 
L 2356 0 
L 1766 0 
Q 1100 0 847 248 
Q 594 497 594 1153 
L 594 3053 
L 172 3053 
L 172 3500 
L 594 3500 
L 594 4494 
L 1172 4494 
z
" id="DejaVuSans-74" transform="scale(0.015625)"/>
       <path d="M 3597 1894 
L 3597 1613 
L 953 1613 
Q 991 1019 1311 708 
Q 1631 397 2203 397 
Q 2534 397 2845 478 
Q 3156 559 3463 722 
L 3463 178 
Q 3153 47 2828 -22 
Q 2503 -91 2169 -91 
Q 1331 -91 842 396 
Q 353 884 353 1716 
Q 353 2575 817 3079 
Q 1281 3584 2069 3584 
Q 2775 3584 3186 3129 
Q 3597 2675 3597 1894 
z
M 3022 2063 
Q 3016 2534 2758 2815 
Q 2500 3097 2075 3097 
Q 1594 3097 1305 2825 
Q 1016 2553 972 2059 
L 3022 2063 
z
" id="DejaVuSans-65" transform="scale(0.015625)"/>
      </defs>
      <use xlink:href="#DejaVuSans-5f"/>
      <use x="50" xlink:href="#DejaVuSans-64"/>
      <use x="113.476562" xlink:href="#DejaVuSans-61"/>
      <use x="174.755859" xlink:href="#DejaVuSans-74"/>
      <use x="213.964844" xlink:href="#DejaVuSans-65"/>
     </g>
    </g>
   </g>
   <g id="matplotlib.axis_2">
    <g id="ytick_1">
     <g id="line2d_8">
      <defs>
       <path d="M 0 0 
L -3.5 0 
" id="m106bf4a490" style="stroke:#000000;stroke-width:0.8;"/>
      </defs>
      <g>
       <use style="stroke:#000000;stroke-width:0.8;" x="90" xlink:href="#m106bf4a490" y="132.087273"/>
      </g>
     </g>
     <g id="text_9">
      <!-- 0 -->
      <g transform="translate(76.6375 135.886491)scale(0.1 -0.1)">
       <use xlink:href="#DejaVuSans-30"/>
      </g>
     </g>
    </g>
    <g id="ytick_2">
     <g id="line2d_9">
      <g>
       <use style="stroke:#000000;stroke-width:0.8;" x="90" xlink:href="#m106bf4a490" y="105.905455"/>
      </g>
     </g>
     <g id="text_10">
      <!-- 20 -->
      <g transform="translate(70.275 109.704673)scale(0.1 -0.1)">
       <use xlink:href="#DejaVuSans-32"/>
       <use x="63.623047" xlink:href="#DejaVuSans-30"/>
      </g>
     </g>
    </g>
    <g id="ytick_3">
     <g id="line2d_10">
      <g>
       <use style="stroke:#000000;stroke-width:0.8;" x="90" xlink:href="#m106bf4a490" y="79.723636"/>
      </g>
     </g>
     <g id="text_11">
      <!-- 40 -->
      <g transform="translate(70.275 83.522855)scale(0.1 -0.1)">
       <use xlink:href="#DejaVuSans-34"/>
       <use x="63.623047" xlink:href="#DejaVuSans-30"/>
      </g>
     </g>
    </g>
    <g id="ytick_4">
     <g id="line2d_11">
      <g>
       <use style="stroke:#000000;stroke-width:0.8;" x="90" xlink:href="#m106bf4a490" y="53.541818"/>
      </g>
     </g>
     <g id="text_12">
      <!-- 60 -->
      <g transform="translate(70.275 57.341037)scale(0.1 -0.1)">
       <defs>
        <path d="M 2113 2584 
Q 1688 2584 1439 2293 
Q 1191 2003 1191 1497 
Q 1191 994 1439 701 
Q 1688 409 2113 409 
Q 2538 409 2786 701 
Q 3034 994 3034 1497 
Q 3034 2003 2786 2293 
Q 2538 2584 2113 2584 
z
M 3366 4563 
L 3366 3988 
Q 3128 4100 2886 4159 
Q 2644 4219 2406 4219 
Q 1781 4219 1451 3797 
Q 1122 3375 1075 2522 
Q 1259 2794 1537 2939 
Q 1816 3084 2150 3084 
Q 2853 3084 3261 2657 
Q 3669 2231 3669 1497 
Q 3669 778 3244 343 
Q 2819 -91 2113 -91 
Q 1303 -91 875 529 
Q 447 1150 447 2328 
Q 447 3434 972 4092 
Q 1497 4750 2381 4750 
Q 2619 4750 2861 4703 
Q 3103 4656 3366 4563 
z
" id="DejaVuSans-36" transform="scale(0.015625)"/>
       </defs>
       <use xlink:href="#DejaVuSans-36"/>
       <use x="63.623047" xlink:href="#DejaVuSans-30"/>
      </g>
     </g>
    </g>
   </g>
   <g id="line2d_12">
    <path clip-path="url(#p3e4d59738d)" d="M 115.363636 124.232727 
L 118.456763 125.541818 
L 121.549889 130.778182 
L 124.643016 130.778182 
L 127.736142 128.16 
L 130.829268 128.16 
L 133.922395 109.832727 
L 137.015521 109.832727 
L 140.108647 130.778182 
L 143.201774 130.778182 
L 146.2949 117.687273 
L 149.388027 121.614545 
L 152.481153 130.778182 
L 155.574279 124.232727 
L 158.667406 126.850909 
L 161.760532 126.850909 
L 164.853659 130.778182 
L 171.039911 125.541818 
L 174.133038 129.469091 
L 177.226164 130.778182 
L 180.31929 129.469091 
L 183.412417 129.469091 
L 186.505543 128.16 
L 189.59867 129.469091 
L 192.691796 129.469091 
L 195.784922 126.850909 
L 198.878049 129.469091 
L 201.971175 129.469091 
L 205.064302 113.76 
L 208.157428 124.232727 
L 211.250554 129.469091 
L 214.343681 99.36 
L 217.436807 130.778182 
L 242.181818 130.778182 
L 245.274945 129.469091 
L 248.368071 130.778182 
L 270.019956 130.778182 
L 273.113082 126.850909 
L 276.206208 128.16 
L 279.299335 130.778182 
L 282.392461 128.16 
L 285.485588 124.232727 
L 288.578714 129.469091 
L 291.67184 129.469091 
L 294.764967 126.850909 
L 297.858093 109.832727 
L 300.95122 129.469091 
L 304.044346 130.778182 
L 307.137472 129.469091 
L 310.230599 122.923636 
L 313.323725 129.469091 
L 316.416851 128.16 
L 319.509978 118.996364 
L 322.603104 126.850909 
L 325.696231 122.923636 
L 328.789357 129.469091 
L 331.882483 128.16 
L 334.97561 129.469091 
L 338.068736 128.16 
L 344.254989 128.16 
L 347.348115 125.541818 
L 350.441242 130.778182 
L 353.534368 130.778182 
L 356.627494 125.541818 
L 359.720621 125.541818 
L 362.813747 118.996364 
L 365.906874 128.16 
L 369 124.232727 
L 372.093126 130.778182 
L 375.186253 120.305455 
L 378.279379 126.850909 
L 381.372506 128.16 
L 384.465632 126.850909 
L 387.558758 121.614545 
L 390.651885 129.469091 
L 393.745011 125.541818 
L 396.838137 111.141818 
L 399.931264 121.614545 
L 403.02439 109.832727 
L 406.117517 39.141818 
L 409.210643 124.232727 
L 412.303769 130.778182 
L 415.396896 126.850909 
L 418.490022 115.069091 
L 421.583149 117.687273 
L 424.676275 124.232727 
L 427.769401 107.214545 
L 430.862528 126.850909 
L 433.955654 126.850909 
L 437.04878 129.469091 
L 440.141907 113.76 
L 443.235033 117.687273 
L 446.32816 130.778182 
L 449.421286 128.16 
L 452.514412 130.778182 
L 455.607539 125.541818 
L 458.700665 66.632727 
L 461.793792 67.941818 
L 464.886918 108.523636 
L 467.980044 104.596364 
L 471.073171 111.141818 
L 474.166297 124.232727 
L 477.259424 130.778182 
L 480.35255 121.614545 
L 483.445676 126.850909 
L 486.538803 113.76 
L 489.631929 112.450909 
L 492.725055 126.850909 
L 495.818182 115.069091 
L 498.911308 99.36 
L 502.004435 113.76 
L 505.097561 124.232727 
L 508.190687 99.36 
L 511.283814 98.050909 
L 514.37694 98.050909 
L 517.470067 100.669091 
L 520.563193 49.614545 
L 523.656319 86.269091 
L 526.749446 81.032727 
L 529.842572 82.341818 
L 532.935698 81.032727 
L 536.028825 107.214545 
L 539.121951 87.578182 
L 542.215078 105.905455 
L 545.308204 128.16 
L 548.40133 129.469091 
L 551.494457 100.669091 
L 554.587583 96.741818 
L 560.773836 99.36 
L 563.866962 90.196364 
L 566.960089 78.414545 
L 570.053215 125.541818 
L 573.146341 129.469091 
L 576.239468 100.669091 
L 579.332594 107.214545 
L 582.425721 103.287273 
L 585.518847 66.632727 
L 588.611973 99.36 
L 591.7051 100.669091 
L 594.798226 129.469091 
L 597.891353 126.850909 
L 600.984479 96.741818 
L 604.077605 70.56 
L 607.170732 101.978182 
L 610.263858 94.123636 
L 613.356984 56.16 
L 616.450111 101.978182 
L 619.543237 129.469091 
L 622.636364 96.741818 
L 622.636364 96.741818 
" style="fill:none;stroke:#1f77b4;stroke-linecap:square;stroke-width:1.5;"/>
   </g>
   <g id="line2d_13">
    <path clip-path="url(#p3e4d59738d)" d="M 115.363636 124.232727 
L 118.456763 125.541818 
L 121.549889 130.778182 
L 124.643016 130.778182 
L 127.736142 128.16 
L 130.829268 128.16 
L 133.922395 129.469091 
L 137.015521 125.541818 
L 140.108647 130.778182 
L 143.201774 130.778182 
L 146.2949 117.687273 
L 149.388027 128.16 
L 152.481153 130.778182 
L 155.574279 126.850909 
L 158.667406 126.850909 
L 161.760532 128.16 
L 164.853659 130.778182 
L 167.946785 128.16 
L 171.039911 126.850909 
L 174.133038 129.469091 
L 177.226164 130.778182 
L 180.31929 129.469091 
L 183.412417 130.778182 
L 186.505543 128.16 
L 192.691796 130.778182 
L 195.784922 129.469091 
L 198.878049 130.778182 
L 201.971175 129.469091 
L 205.064302 120.305455 
L 208.157428 124.232727 
L 211.250554 129.469091 
L 214.343681 118.996364 
L 217.436807 130.778182 
L 242.181818 130.778182 
L 245.274945 129.469091 
L 248.368071 130.778182 
L 270.019956 130.778182 
L 273.113082 128.16 
L 276.206208 130.778182 
L 279.299335 130.778182 
L 285.485588 128.16 
L 288.578714 130.778182 
L 294.764967 130.778182 
L 297.858093 117.687273 
L 300.95122 130.778182 
L 304.044346 130.778182 
L 307.137472 129.469091 
L 310.230599 126.850909 
L 313.323725 129.469091 
L 316.416851 128.16 
L 319.509978 122.923636 
L 322.603104 128.16 
L 325.696231 130.778182 
L 328.789357 129.469091 
L 331.882483 130.778182 
L 334.97561 129.469091 
L 338.068736 130.778182 
L 341.161863 128.16 
L 347.348115 128.16 
L 350.441242 130.778182 
L 353.534368 130.778182 
L 362.813747 122.923636 
L 365.906874 128.16 
L 369 125.541818 
L 372.093126 130.778182 
L 375.186253 122.923636 
L 378.279379 126.850909 
L 381.372506 128.16 
L 384.465632 126.850909 
L 387.558758 121.614545 
L 390.651885 129.469091 
L 393.745011 125.541818 
L 396.838137 117.687273 
L 399.931264 122.923636 
L 403.02439 115.069091 
L 406.117517 84.96 
L 409.210643 124.232727 
L 412.303769 130.778182 
L 415.396896 128.16 
L 418.490022 116.378182 
L 424.676275 124.232727 
L 427.769401 112.450909 
L 430.862528 126.850909 
L 433.955654 126.850909 
L 437.04878 129.469091 
L 440.141907 117.687273 
L 443.235033 117.687273 
L 446.32816 130.778182 
L 449.421286 128.16 
L 452.514412 130.778182 
L 455.607539 126.850909 
L 458.700665 100.669091 
L 461.793792 100.669091 
L 464.886918 111.141818 
L 467.980044 113.76 
L 471.073171 117.687273 
L 474.166297 125.541818 
L 477.259424 130.778182 
L 480.35255 124.232727 
L 483.445676 129.469091 
L 486.538803 116.378182 
L 489.631929 116.378182 
L 492.725055 128.16 
L 495.818182 116.378182 
L 498.911308 108.523636 
L 502.004435 115.069091 
L 505.097561 125.541818 
L 508.190687 109.832727 
L 511.283814 109.832727 
L 514.37694 118.996364 
L 517.470067 129.469091 
L 520.563193 111.141818 
L 523.656319 128.16 
L 526.749446 126.850909 
L 529.842572 120.305455 
L 532.935698 120.305455 
L 536.028825 111.141818 
L 539.121951 118.996364 
L 542.215078 130.778182 
L 545.308204 129.469091 
L 548.40133 129.469091 
L 551.494457 130.778182 
L 554.587583 126.850909 
L 557.68071 128.16 
L 560.773836 128.16 
L 566.960089 109.832727 
L 570.053215 125.541818 
L 573.146341 129.469091 
L 576.239468 130.778182 
L 579.332594 130.778182 
L 582.425721 126.850909 
L 585.518847 103.287273 
L 588.611973 130.778182 
L 591.7051 128.16 
L 594.798226 129.469091 
L 600.984479 129.469091 
L 604.077605 105.905455 
L 607.170732 126.850909 
L 610.263858 122.923636 
L 613.356984 99.36 
L 616.450111 108.523636 
L 619.543237 129.469091 
L 622.636364 130.778182 
L 622.636364 130.778182 
" style="fill:none;stroke:#ff7f0e;stroke-linecap:square;stroke-width:1.5;"/>
   </g>
   <g id="patch_3">
    <path d="M 90 135.36 
L 90 34.56 
" style="fill:none;stroke:#000000;stroke-linecap:square;stroke-linejoin:miter;stroke-width:0.8;"/>
   </g>
   <g id="patch_4">
    <path d="M 648 135.36 
L 648 34.56 
" style="fill:none;stroke:#000000;stroke-linecap:square;stroke-linejoin:miter;stroke-width:0.8;"/>
   </g>
   <g id="patch_5">
    <path d="M 90 135.36 
L 648 135.36 
" style="fill:none;stroke:#000000;stroke-linecap:square;stroke-linejoin:miter;stroke-width:0.8;"/>
   </g>
   <g id="patch_6">
    <path d="M 90 34.56 
L 648 34.56 
" style="fill:none;stroke:#000000;stroke-linecap:square;stroke-linejoin:miter;stroke-width:0.8;"/>
   </g>
   <g id="legend_1">
    <g id="patch_7">
     <path d="M 97 71.91625 
L 238.8625 71.91625 
Q 240.8625 71.91625 240.8625 69.91625 
L 240.8625 41.56 
Q 240.8625 39.56 238.8625 39.56 
L 97 39.56 
Q 95 39.56 95 41.56 
L 95 69.91625 
Q 95 71.91625 97 71.91625 
z
" style="fill:#ffffff;opacity:0.8;stroke:#cccccc;stroke-linejoin:miter;"/>
    </g>
    <g id="line2d_14">
     <path d="M 99 47.658437 
L 119 47.658437 
" style="fill:none;stroke:#1f77b4;stroke-linecap:square;stroke-width:1.5;"/>
    </g>
    <g id="line2d_15"/>
    <g id="text_13">
     <!-- Total GitHub Clones -->
     <g transform="translate(127 51.158437)scale(0.1 -0.1)">
      <defs>
       <path d="M -19 4666 
L 3928 4666 
L 3928 4134 
L 2272 4134 
L 2272 0 
L 1638 0 
L 1638 4134 
L -19 4134 
L -19 4666 
z
" id="DejaVuSans-54" transform="scale(0.015625)"/>
       <path d="M 1959 3097 
Q 1497 3097 1228 2736 
Q 959 2375 959 1747 
Q 959 1119 1226 758 
Q 1494 397 1959 397 
Q 2419 397 2687 759 
Q 2956 1122 2956 1747 
Q 2956 2369 2687 2733 
Q 2419 3097 1959 3097 
z
M 1959 3584 
Q 2709 3584 3137 3096 
Q 3566 2609 3566 1747 
Q 3566 888 3137 398 
Q 2709 -91 1959 -91 
Q 1206 -91 779 398 
Q 353 888 353 1747 
Q 353 2609 779 3096 
Q 1206 3584 1959 3584 
z
" id="DejaVuSans-6f" transform="scale(0.015625)"/>
       <path d="M 603 4863 
L 1178 4863 
L 1178 0 
L 603 0 
L 603 4863 
z
" id="DejaVuSans-6c" transform="scale(0.015625)"/>
       <path id="DejaVuSans-20" transform="scale(0.015625)"/>
       <path d="M 3809 666 
L 3809 1919 
L 2778 1919 
L 2778 2438 
L 4434 2438 
L 4434 434 
Q 4069 175 3628 42 
Q 3188 -91 2688 -91 
Q 1594 -91 976 548 
Q 359 1188 359 2328 
Q 359 3472 976 4111 
Q 1594 4750 2688 4750 
Q 3144 4750 3555 4637 
Q 3966 4525 4313 4306 
L 4313 3634 
Q 3963 3931 3569 4081 
Q 3175 4231 2741 4231 
Q 1884 4231 1454 3753 
Q 1025 3275 1025 2328 
Q 1025 1384 1454 906 
Q 1884 428 2741 428 
Q 3075 428 3337 486 
Q 3600 544 3809 666 
z
" id="DejaVuSans-47" transform="scale(0.015625)"/>
       <path d="M 603 3500 
L 1178 3500 
L 1178 0 
L 603 0 
L 603 3500 
z
M 603 4863 
L 1178 4863 
L 1178 4134 
L 603 4134 
L 603 4863 
z
" id="DejaVuSans-69" transform="scale(0.015625)"/>
       <path d="M 628 4666 
L 1259 4666 
L 1259 2753 
L 3553 2753 
L 3553 4666 
L 4184 4666 
L 4184 0 
L 3553 0 
L 3553 2222 
L 1259 2222 
L 1259 0 
L 628 0 
L 628 4666 
z
" id="DejaVuSans-48" transform="scale(0.015625)"/>
       <path d="M 544 1381 
L 544 3500 
L 1119 3500 
L 1119 1403 
Q 1119 906 1312 657 
Q 1506 409 1894 409 
Q 2359 409 2629 706 
Q 2900 1003 2900 1516 
L 2900 3500 
L 3475 3500 
L 3475 0 
L 2900 0 
L 2900 538 
Q 2691 219 2414 64 
Q 2138 -91 1772 -91 
Q 1169 -91 856 284 
Q 544 659 544 1381 
z
M 1991 3584 
L 1991 3584 
z
" id="DejaVuSans-75" transform="scale(0.015625)"/>
       <path d="M 3116 1747 
Q 3116 2381 2855 2742 
Q 2594 3103 2138 3103 
Q 1681 3103 1420 2742 
Q 1159 2381 1159 1747 
Q 1159 1113 1420 752 
Q 1681 391 2138 391 
Q 2594 391 2855 752 
Q 3116 1113 3116 1747 
z
M 1159 2969 
Q 1341 3281 1617 3432 
Q 1894 3584 2278 3584 
Q 2916 3584 3314 3078 
Q 3713 2572 3713 1747 
Q 3713 922 3314 415 
Q 2916 -91 2278 -91 
Q 1894 -91 1617 61 
Q 1341 213 1159 525 
L 1159 0 
L 581 0 
L 581 4863 
L 1159 4863 
L 1159 2969 
z
" id="DejaVuSans-62" transform="scale(0.015625)"/>
       <path d="M 4122 4306 
L 4122 3641 
Q 3803 3938 3442 4084 
Q 3081 4231 2675 4231 
Q 1875 4231 1450 3742 
Q 1025 3253 1025 2328 
Q 1025 1406 1450 917 
Q 1875 428 2675 428 
Q 3081 428 3442 575 
Q 3803 722 4122 1019 
L 4122 359 
Q 3791 134 3420 21 
Q 3050 -91 2638 -91 
Q 1578 -91 968 557 
Q 359 1206 359 2328 
Q 359 3453 968 4101 
Q 1578 4750 2638 4750 
Q 3056 4750 3426 4639 
Q 3797 4528 4122 4306 
z
" id="DejaVuSans-43" transform="scale(0.015625)"/>
       <path d="M 3513 2113 
L 3513 0 
L 2938 0 
L 2938 2094 
Q 2938 2591 2744 2837 
Q 2550 3084 2163 3084 
Q 1697 3084 1428 2787 
Q 1159 2491 1159 1978 
L 1159 0 
L 581 0 
L 581 3500 
L 1159 3500 
L 1159 2956 
Q 1366 3272 1645 3428 
Q 1925 3584 2291 3584 
Q 2894 3584 3203 3211 
Q 3513 2838 3513 2113 
z
" id="DejaVuSans-6e" transform="scale(0.015625)"/>
       <path d="M 2834 3397 
L 2834 2853 
Q 2591 2978 2328 3040 
Q 2066 3103 1784 3103 
Q 1356 3103 1142 2972 
Q 928 2841 928 2578 
Q 928 2378 1081 2264 
Q 1234 2150 1697 2047 
L 1894 2003 
Q 2506 1872 2764 1633 
Q 3022 1394 3022 966 
Q 3022 478 2636 193 
Q 2250 -91 1575 -91 
Q 1294 -91 989 -36 
Q 684 19 347 128 
L 347 722 
Q 666 556 975 473 
Q 1284 391 1588 391 
Q 1994 391 2212 530 
Q 2431 669 2431 922 
Q 2431 1156 2273 1281 
Q 2116 1406 1581 1522 
L 1381 1569 
Q 847 1681 609 1914 
Q 372 2147 372 2553 
Q 372 3047 722 3315 
Q 1072 3584 1716 3584 
Q 2034 3584 2315 3537 
Q 2597 3491 2834 3397 
z
" id="DejaVuSans-73" transform="scale(0.015625)"/>
      </defs>
      <use xlink:href="#DejaVuSans-54"/>
      <use x="44.083984" xlink:href="#DejaVuSans-6f"/>
      <use x="105.265625" xlink:href="#DejaVuSans-74"/>
      <use x="144.474609" xlink:href="#DejaVuSans-61"/>
      <use x="205.753906" xlink:href="#DejaVuSans-6c"/>
      <use x="233.537109" xlink:href="#DejaVuSans-20"/>
      <use x="265.324219" xlink:href="#DejaVuSans-47"/>
      <use x="342.814453" xlink:href="#DejaVuSans-69"/>
      <use x="370.597656" xlink:href="#DejaVuSans-74"/>
      <use x="409.806641" xlink:href="#DejaVuSans-48"/>
      <use x="485.001953" xlink:href="#DejaVuSans-75"/>
      <use x="548.380859" xlink:href="#DejaVuSans-62"/>
      <use x="611.857422" xlink:href="#DejaVuSans-20"/>
      <use x="643.644531" xlink:href="#DejaVuSans-43"/>
      <use x="713.46875" xlink:href="#DejaVuSans-6c"/>
      <use x="741.251953" xlink:href="#DejaVuSans-6f"/>
      <use x="802.433594" xlink:href="#DejaVuSans-6e"/>
      <use x="865.8125" xlink:href="#DejaVuSans-65"/>
      <use x="927.335938" xlink:href="#DejaVuSans-73"/>
     </g>
    </g>
    <g id="line2d_16">
     <path d="M 99 62.336562 
L 119 62.336562 
" style="fill:none;stroke:#ff7f0e;stroke-linecap:square;stroke-width:1.5;"/>
    </g>
    <g id="line2d_17"/>
    <g id="text_14">
     <!-- Unique GitHub Clones -->
     <g transform="translate(127 65.836562)scale(0.1 -0.1)">
      <defs>
       <path d="M 556 4666 
L 1191 4666 
L 1191 1831 
Q 1191 1081 1462 751 
Q 1734 422 2344 422 
Q 2950 422 3222 751 
Q 3494 1081 3494 1831 
L 3494 4666 
L 4128 4666 
L 4128 1753 
Q 4128 841 3676 375 
Q 3225 -91 2344 -91 
Q 1459 -91 1007 375 
Q 556 841 556 1753 
L 556 4666 
z
" id="DejaVuSans-55" transform="scale(0.015625)"/>
       <path d="M 947 1747 
Q 947 1113 1208 752 
Q 1469 391 1925 391 
Q 2381 391 2643 752 
Q 2906 1113 2906 1747 
Q 2906 2381 2643 2742 
Q 2381 3103 1925 3103 
Q 1469 3103 1208 2742 
Q 947 2381 947 1747 
z
M 2906 525 
Q 2725 213 2448 61 
Q 2172 -91 1784 -91 
Q 1150 -91 751 415 
Q 353 922 353 1747 
Q 353 2572 751 3078 
Q 1150 3584 1784 3584 
Q 2172 3584 2448 3432 
Q 2725 3281 2906 2969 
L 2906 3500 
L 3481 3500 
L 3481 -1331 
L 2906 -1331 
L 2906 525 
z
" id="DejaVuSans-71" transform="scale(0.015625)"/>
      </defs>
      <use xlink:href="#DejaVuSans-55"/>
      <use x="73.193359" xlink:href="#DejaVuSans-6e"/>
      <use x="136.572266" xlink:href="#DejaVuSans-69"/>
      <use x="164.355469" xlink:href="#DejaVuSans-71"/>
      <use x="227.832031" xlink:href="#DejaVuSans-75"/>
      <use x="291.210938" xlink:href="#DejaVuSans-65"/>
      <use x="352.734375" xlink:href="#DejaVuSans-20"/>
      <use x="384.521484" xlink:href="#DejaVuSans-47"/>
      <use x="462.011719" xlink:href="#DejaVuSans-69"/>
      <use x="489.794922" xlink:href="#DejaVuSans-74"/>
      <use x="529.003906" xlink:href="#DejaVuSans-48"/>
      <use x="604.199219" xlink:href="#DejaVuSans-75"/>
      <use x="667.578125" xlink:href="#DejaVuSans-62"/>
      <use x="731.054688" xlink:href="#DejaVuSans-20"/>
      <use x="762.841797" xlink:href="#DejaVuSans-43"/>
      <use x="832.666016" xlink:href="#DejaVuSans-6c"/>
      <use x="860.449219" xlink:href="#DejaVuSans-6f"/>
      <use x="921.630859" xlink:href="#DejaVuSans-6e"/>
      <use x="985.009766" xlink:href="#DejaVuSans-65"/>
      <use x="1046.533203" xlink:href="#DejaVuSans-73"/>
     </g>
    </g>
   </g>
  </g>
  <g id="axes_2">
   <g id="patch_8">
    <path d="M 90 256.32 
L 648 256.32 
L 648 155.52 
L 90 155.52 
z
" style="fill:#ffffff;"/>
   </g>
   <g id="matplotlib.axis_3">
    <g id="xtick_8">
     <g id="line2d_18">
      <g>
       <use style="stroke:#000000;stroke-width:0.8;" x="115.363636" xlink:href="#mf341f03968" y="256.32"/>
      </g>
     </g>
     <g id="text_15">
      <!-- 2020-10-21 -->
      <g transform="translate(86.305824 270.918437)scale(0.1 -0.1)">
       <use xlink:href="#DejaVuSans-32"/>
       <use x="63.623047" xlink:href="#DejaVuSans-30"/>
       <use x="127.246094" xlink:href="#DejaVuSans-32"/>
       <use x="190.869141" xlink:href="#DejaVuSans-30"/>
       <use x="254.492188" xlink:href="#DejaVuSans-2d"/>
       <use x="290.576172" xlink:href="#DejaVuSans-31"/>
       <use x="354.199219" xlink:href="#DejaVuSans-30"/>
       <use x="417.822266" xlink:href="#DejaVuSans-2d"/>
       <use x="453.90625" xlink:href="#DejaVuSans-32"/>
       <use x="517.529297" xlink:href="#DejaVuSans-31"/>
      </g>
     </g>
    </g>
    <g id="xtick_9">
     <g id="line2d_19">
      <g>
       <use style="stroke:#000000;stroke-width:0.8;" x="237.304196" xlink:href="#mf341f03968" y="256.32"/>
      </g>
     </g>
     <g id="text_16">
      <!-- 2020-12-11 -->
      <g transform="translate(208.246383 270.918437)scale(0.1 -0.1)">
       <use xlink:href="#DejaVuSans-32"/>
       <use x="63.623047" xlink:href="#DejaVuSans-30"/>
       <use x="127.246094" xlink:href="#DejaVuSans-32"/>
       <use x="190.869141" xlink:href="#DejaVuSans-30"/>
       <use x="254.492188" xlink:href="#DejaVuSans-2d"/>
       <use x="290.576172" xlink:href="#DejaVuSans-31"/>
       <use x="354.199219" xlink:href="#DejaVuSans-32"/>
       <use x="417.822266" xlink:href="#DejaVuSans-2d"/>
       <use x="453.90625" xlink:href="#DejaVuSans-31"/>
       <use x="517.529297" xlink:href="#DejaVuSans-31"/>
      </g>
     </g>
    </g>
    <g id="xtick_10">
     <g id="line2d_20">
      <g>
       <use style="stroke:#000000;stroke-width:0.8;" x="359.244755" xlink:href="#mf341f03968" y="256.32"/>
      </g>
     </g>
     <g id="text_17">
      <!-- 2021-01-31 -->
      <g transform="translate(330.186943 270.918437)scale(0.1 -0.1)">
       <use xlink:href="#DejaVuSans-32"/>
       <use x="63.623047" xlink:href="#DejaVuSans-30"/>
       <use x="127.246094" xlink:href="#DejaVuSans-32"/>
       <use x="190.869141" xlink:href="#DejaVuSans-31"/>
       <use x="254.492188" xlink:href="#DejaVuSans-2d"/>
       <use x="290.576172" xlink:href="#DejaVuSans-30"/>
       <use x="354.199219" xlink:href="#DejaVuSans-31"/>
       <use x="417.822266" xlink:href="#DejaVuSans-2d"/>
       <use x="453.90625" xlink:href="#DejaVuSans-33"/>
       <use x="517.529297" xlink:href="#DejaVuSans-31"/>
      </g>
     </g>
    </g>
    <g id="xtick_11">
     <g id="line2d_21">
      <g>
       <use style="stroke:#000000;stroke-width:0.8;" x="481.185315" xlink:href="#mf341f03968" y="256.32"/>
      </g>
     </g>
     <g id="text_18">
      <!-- 2021-03-22 -->
      <g transform="translate(452.127502 270.918437)scale(0.1 -0.1)">
       <use xlink:href="#DejaVuSans-32"/>
       <use x="63.623047" xlink:href="#DejaVuSans-30"/>
       <use x="127.246094" xlink:href="#DejaVuSans-32"/>
       <use x="190.869141" xlink:href="#DejaVuSans-31"/>
       <use x="254.492188" xlink:href="#DejaVuSans-2d"/>
       <use x="290.576172" xlink:href="#DejaVuSans-30"/>
       <use x="354.199219" xlink:href="#DejaVuSans-33"/>
       <use x="417.822266" xlink:href="#DejaVuSans-2d"/>
       <use x="453.90625" xlink:href="#DejaVuSans-32"/>
       <use x="517.529297" xlink:href="#DejaVuSans-32"/>
      </g>
     </g>
    </g>
    <g id="xtick_12">
     <g id="line2d_22">
      <g>
       <use style="stroke:#000000;stroke-width:0.8;" x="603.125874" xlink:href="#mf341f03968" y="256.32"/>
      </g>
     </g>
     <g id="text_19">
      <!-- 2021-05-08 -->
      <g transform="translate(574.068062 270.918437)scale(0.1 -0.1)">
       <use xlink:href="#DejaVuSans-32"/>
       <use x="63.623047" xlink:href="#DejaVuSans-30"/>
       <use x="127.246094" xlink:href="#DejaVuSans-32"/>
       <use x="190.869141" xlink:href="#DejaVuSans-31"/>
       <use x="254.492188" xlink:href="#DejaVuSans-2d"/>
       <use x="290.576172" xlink:href="#DejaVuSans-30"/>
       <use x="354.199219" xlink:href="#DejaVuSans-35"/>
       <use x="417.822266" xlink:href="#DejaVuSans-2d"/>
       <use x="453.90625" xlink:href="#DejaVuSans-30"/>
       <use x="517.529297" xlink:href="#DejaVuSans-38"/>
      </g>
     </g>
    </g>
    <g id="text_20">
     <!-- _date -->
     <g transform="translate(355.225 284.596563)scale(0.1 -0.1)">
      <use xlink:href="#DejaVuSans-5f"/>
      <use x="50" xlink:href="#DejaVuSans-64"/>
      <use x="113.476562" xlink:href="#DejaVuSans-61"/>
      <use x="174.755859" xlink:href="#DejaVuSans-74"/>
      <use x="213.964844" xlink:href="#DejaVuSans-65"/>
     </g>
    </g>
   </g>
   <g id="matplotlib.axis_4">
    <g id="ytick_5">
     <g id="line2d_23">
      <g>
       <use style="stroke:#000000;stroke-width:0.8;" x="90" xlink:href="#m106bf4a490" y="252.029091"/>
      </g>
     </g>
     <g id="text_21">
      <!-- 0 -->
      <g transform="translate(76.6375 255.82831)scale(0.1 -0.1)">
       <use xlink:href="#DejaVuSans-30"/>
      </g>
     </g>
    </g>
    <g id="ytick_6">
     <g id="line2d_24">
      <g>
       <use style="stroke:#000000;stroke-width:0.8;" x="90" xlink:href="#m106bf4a490" y="222.938182"/>
      </g>
     </g>
     <g id="text_22">
      <!-- 100 -->
      <g transform="translate(63.9125 226.737401)scale(0.1 -0.1)">
       <use xlink:href="#DejaVuSans-31"/>
       <use x="63.623047" xlink:href="#DejaVuSans-30"/>
       <use x="127.246094" xlink:href="#DejaVuSans-30"/>
      </g>
     </g>
    </g>
    <g id="ytick_7">
     <g id="line2d_25">
      <g>
       <use style="stroke:#000000;stroke-width:0.8;" x="90" xlink:href="#m106bf4a490" y="193.847273"/>
      </g>
     </g>
     <g id="text_23">
      <!-- 200 -->
      <g transform="translate(63.9125 197.646491)scale(0.1 -0.1)">
       <use xlink:href="#DejaVuSans-32"/>
       <use x="63.623047" xlink:href="#DejaVuSans-30"/>
       <use x="127.246094" xlink:href="#DejaVuSans-30"/>
      </g>
     </g>
    </g>
    <g id="ytick_8">
     <g id="line2d_26">
      <g>
       <use style="stroke:#000000;stroke-width:0.8;" x="90" xlink:href="#m106bf4a490" y="164.756364"/>
      </g>
     </g>
     <g id="text_24">
      <!-- 300 -->
      <g transform="translate(63.9125 168.555582)scale(0.1 -0.1)">
       <use xlink:href="#DejaVuSans-33"/>
       <use x="63.623047" xlink:href="#DejaVuSans-30"/>
       <use x="127.246094" xlink:href="#DejaVuSans-30"/>
      </g>
     </g>
    </g>
   </g>
   <g id="line2d_27">
    <path clip-path="url(#p343618d7a4)" d="M 115.363636 251.738182 
L 117.802448 230.210909 
L 120.241259 227.592727 
L 122.68007 244.174545 
L 125.118881 251.447273 
L 127.557692 238.356364 
L 129.996503 238.065455 
L 132.435315 233.992727 
L 134.874126 238.065455 
L 137.312937 238.938182 
L 139.751748 250.574545 
L 142.190559 248.247273 
L 144.629371 247.374545 
L 147.068182 238.938182 
L 149.506993 210.429091 
L 151.945804 225.265455 
L 154.384615 243.592727 
L 156.823427 247.083636 
L 159.262238 251.156364 
L 161.701049 238.065455 
L 164.13986 223.52 
L 166.578671 245.629091 
L 169.017483 243.010909 
L 171.456294 236.32 
L 173.895105 236.32 
L 176.333916 249.701818 
L 178.772727 236.610909 
L 181.211538 232.829091 
L 183.65035 243.301818 
L 186.089161 243.301818 
L 188.527972 238.356364 
L 190.966783 246.792727 
L 193.405594 249.12 
L 195.844406 225.556364 
L 198.283217 248.829091 
L 200.722028 247.956364 
L 203.160839 249.701818 
L 205.59965 247.665455 
L 208.038462 251.447273 
L 210.477273 251.447273 
L 212.916084 227.301818 
L 215.354895 214.210909 
L 217.793706 243.592727 
L 220.232517 245.047273 
L 222.671329 225.847273 
L 225.11014 250.865455 
L 227.548951 244.756364 
L 229.987762 241.265455 
L 232.426573 245.92 
L 234.865385 235.738182 
L 237.304196 246.792727 
L 239.743007 250.865455 
L 242.181818 251.738182 
L 244.620629 243.592727 
L 247.059441 241.847273 
L 249.498252 242.138182 
L 251.937063 240.683636 
L 254.375874 248.829091 
L 256.814685 250.865455 
L 259.253497 250.574545 
L 261.692308 247.083636 
L 264.131119 247.665455 
L 266.56993 242.429091 
L 269.008741 249.992727 
L 271.447552 251.156364 
L 273.886364 251.447273 
L 276.325175 248.247273 
L 278.763986 249.410909 
L 281.202797 250.283636 
L 283.641608 251.738182 
L 286.08042 247.083636 
L 288.519231 247.374545 
L 290.958042 250.865455 
L 293.396853 246.210909 
L 295.835664 242.429091 
L 298.274476 239.810909 
L 300.713287 247.665455 
L 303.152098 248.829091 
L 305.590909 231.956364 
L 308.02972 250.283636 
L 310.468531 233.701818 
L 312.907343 235.447273 
L 315.346154 239.810909 
L 317.784965 233.12 
L 320.223776 246.792727 
L 322.662587 234.574545 
L 325.101399 251.156364 
L 327.54021 233.410909 
L 329.979021 234.865455 
L 332.417832 226.138182 
L 334.856643 232.247273 
L 337.295455 239.810909 
L 339.734266 242.72 
L 342.173077 248.247273 
L 344.611888 228.465455 
L 347.050699 223.810909 
L 349.48951 236.029091 
L 351.928322 234.574545 
L 354.367133 231.956364 
L 356.805944 247.374545 
L 359.244755 248.538182 
L 361.683566 229.629091 
L 364.122378 246.792727 
L 369 232.829091 
L 373.877622 250.865455 
L 376.316434 247.665455 
L 378.755245 235.156364 
L 381.194056 234.574545 
L 383.632867 224.683636 
L 386.071678 241.847273 
L 388.51049 250.283636 
L 390.949301 250.574545 
L 393.388112 249.12 
L 395.826923 242.429091 
L 398.265734 242.72 
L 400.704545 246.792727 
L 403.143357 230.501818 
L 405.582168 248.247273 
L 408.020979 241.847273 
L 410.45979 238.938182 
L 412.898601 240.683636 
L 415.337413 224.974545 
L 417.776224 235.447273 
L 420.215035 234.574545 
L 422.653846 239.810909 
L 425.092657 238.065455 
L 427.531469 239.229091 
L 429.97028 181.92 
L 432.409091 245.629091 
L 434.847902 230.501818 
L 437.286713 234.283636 
L 439.725524 226.429091 
L 442.164336 241.556364 
L 444.603147 198.792727 
L 447.041958 197.047273 
L 449.480769 203.156364 
L 451.91958 228.756364 
L 454.358392 172.029091 
L 456.797203 222.938182 
L 459.236014 245.92 
L 461.674825 245.047273 
L 464.113636 237.192727 
L 466.552448 230.792727 
L 468.991259 227.301818 
L 471.43007 234.283636 
L 473.868881 223.229091 
L 476.307692 243.592727 
L 478.746503 245.629091 
L 481.185315 204.610909 
L 483.624126 204.32 
L 486.062937 232.247273 
L 488.501748 233.992727 
L 490.940559 246.210909 
L 493.379371 248.538182 
L 495.818182 247.956364 
L 498.256993 232.538182 
L 500.695804 221.192727 
L 503.134615 182.501818 
L 505.573427 229.338182 
L 508.012238 233.992727 
L 510.451049 213.338182 
L 512.88986 244.174545 
L 515.328671 248.247273 
L 517.767483 244.756364 
L 520.206294 221.192727 
L 522.645105 238.356364 
L 525.083916 222.647273 
L 527.522727 199.083636 
L 529.961538 233.410909 
L 532.40035 240.974545 
L 534.839161 245.92 
L 537.277972 175.229091 
L 539.716783 174.356364 
L 542.155594 227.010909 
L 544.594406 243.301818 
L 547.033217 234.865455 
L 549.472028 236.32 
L 551.910839 248.829091 
L 554.34965 246.792727 
L 556.788462 185.992727 
L 559.227273 179.010909 
L 561.666084 197.047273 
L 564.104895 242.72 
L 566.543706 249.12 
L 568.982517 236.32 
L 571.421329 247.374545 
L 573.86014 236.029091 
L 576.298951 223.810909 
L 578.737762 160.101818 
L 581.176573 221.483636 
L 583.615385 220.610909 
L 586.054196 225.556364 
L 588.493007 245.338182 
L 590.931818 246.210909 
L 593.370629 219.447273 
L 595.809441 235.738182 
L 598.248252 235.447273 
L 600.687063 225.847273 
L 603.125874 243.010909 
L 605.564685 249.12 
L 608.003497 196.756364 
L 610.442308 236.901818 
L 612.881119 211.883636 
L 615.31993 205.483636 
L 617.758741 212.465455 
L 620.197552 249.701818 
L 622.636364 249.701818 
L 622.636364 249.701818 
" style="fill:none;stroke:#1f77b4;stroke-linecap:square;stroke-width:1.5;"/>
   </g>
   <g id="line2d_28">
    <path clip-path="url(#p343618d7a4)" d="M 115.363636 251.738182 
L 117.802448 249.410909 
L 120.241259 248.247273 
L 122.68007 249.410909 
L 125.118881 251.738182 
L 127.557692 249.992727 
L 129.996503 249.12 
L 132.435315 249.12 
L 134.874126 248.829091 
L 137.312937 249.410909 
L 139.751748 251.447273 
L 149.506993 249.12 
L 151.945804 248.829091 
L 154.384615 249.992727 
L 159.262238 251.738182 
L 161.701049 248.829091 
L 164.13986 249.410909 
L 166.578671 250.574545 
L 169.017483 250.865455 
L 171.456294 250.574545 
L 173.895105 251.447273 
L 176.333916 251.156364 
L 178.772727 249.992727 
L 181.211538 251.156364 
L 183.65035 248.829091 
L 186.089161 249.701818 
L 188.527972 250.283636 
L 190.966783 251.156364 
L 193.405594 251.156364 
L 195.844406 247.374545 
L 198.283217 251.447273 
L 200.722028 251.447273 
L 203.160839 251.156364 
L 208.038462 251.738182 
L 210.477273 251.447273 
L 212.916084 249.410909 
L 215.354895 246.792727 
L 217.793706 248.538182 
L 220.232517 249.992727 
L 222.671329 249.992727 
L 225.11014 251.447273 
L 227.548951 250.283636 
L 229.987762 249.992727 
L 232.426573 250.865455 
L 234.865385 247.665455 
L 237.304196 249.410909 
L 239.743007 251.447273 
L 242.181818 251.738182 
L 244.620629 249.12 
L 249.498252 249.12 
L 251.937063 249.992727 
L 254.375874 250.283636 
L 256.814685 251.156364 
L 259.253497 251.447273 
L 261.692308 250.865455 
L 264.131119 250.574545 
L 266.56993 251.156364 
L 271.447552 251.156364 
L 273.886364 251.447273 
L 276.325175 250.865455 
L 281.202797 250.865455 
L 283.641608 251.738182 
L 286.08042 251.156364 
L 288.519231 251.156364 
L 290.958042 250.865455 
L 293.396853 249.701818 
L 295.835664 247.956364 
L 298.274476 249.992727 
L 300.713287 251.156364 
L 303.152098 250.865455 
L 305.590909 250.865455 
L 308.02972 251.156364 
L 310.468531 249.410909 
L 312.907343 248.538182 
L 315.346154 249.701818 
L 317.784965 246.792727 
L 320.223776 249.701818 
L 322.662587 250.283636 
L 325.101399 251.156364 
L 327.54021 250.574545 
L 329.979021 250.574545 
L 332.417832 248.247273 
L 334.856643 249.410909 
L 337.295455 249.12 
L 339.734266 249.12 
L 342.173077 250.283636 
L 344.611888 245.92 
L 347.050699 247.665455 
L 349.48951 249.12 
L 351.928322 247.374545 
L 354.367133 246.210909 
L 356.805944 250.865455 
L 359.244755 250.574545 
L 361.683566 248.538182 
L 364.122378 249.992727 
L 366.561189 247.956364 
L 369 249.410909 
L 371.438811 249.410909 
L 373.877622 250.865455 
L 376.316434 251.156364 
L 378.755245 248.829091 
L 381.194056 247.956364 
L 383.632867 248.247273 
L 386.071678 250.865455 
L 388.51049 251.447273 
L 393.388112 250.865455 
L 395.826923 250.865455 
L 398.265734 249.410909 
L 400.704545 250.283636 
L 403.143357 248.829091 
L 405.582168 250.865455 
L 408.020979 250.283636 
L 410.45979 250.865455 
L 412.898601 249.12 
L 415.337413 248.829091 
L 417.776224 248.829091 
L 420.215035 247.956364 
L 422.653846 250.283636 
L 425.092657 250.865455 
L 427.531469 250.865455 
L 429.97028 242.138182 
L 432.409091 248.829091 
L 434.847902 248.829091 
L 437.286713 247.374545 
L 439.725524 249.12 
L 442.164336 250.574545 
L 444.603147 250.574545 
L 447.041958 246.210909 
L 449.480769 246.501818 
L 451.91958 248.247273 
L 454.358392 246.501818 
L 456.797203 247.374545 
L 459.236014 249.992727 
L 461.674825 250.865455 
L 464.113636 247.374545 
L 466.552448 245.92 
L 468.991259 247.083636 
L 471.43007 247.374545 
L 473.868881 249.410909 
L 476.307692 251.156364 
L 478.746503 249.992727 
L 481.185315 247.956364 
L 483.624126 247.665455 
L 486.062937 247.665455 
L 488.501748 248.538182 
L 490.940559 250.574545 
L 495.818182 251.156364 
L 498.256993 249.992727 
L 500.695804 249.410909 
L 503.134615 246.210909 
L 505.573427 247.083636 
L 508.012238 248.538182 
L 510.451049 246.792727 
L 512.88986 249.701818 
L 515.328671 251.156364 
L 520.206294 249.410909 
L 522.645105 248.247273 
L 525.083916 248.538182 
L 527.522727 247.374545 
L 529.961538 249.12 
L 532.40035 249.410909 
L 534.839161 250.865455 
L 537.277972 245.629091 
L 539.716783 245.338182 
L 542.155594 247.956364 
L 544.594406 248.829091 
L 547.033217 249.12 
L 549.472028 249.12 
L 551.910839 250.865455 
L 554.34965 250.283636 
L 556.788462 245.629091 
L 559.227273 244.174545 
L 561.666084 246.792727 
L 564.104895 248.829091 
L 566.543706 250.283636 
L 568.982517 249.12 
L 571.421329 250.283636 
L 573.86014 246.210909 
L 576.298951 246.501818 
L 578.737762 228.465455 
L 581.176573 247.956364 
L 583.615385 246.501818 
L 586.054196 250.574545 
L 588.493007 251.738182 
L 590.931818 249.701818 
L 593.370629 248.247273 
L 595.809441 248.247273 
L 598.248252 248.538182 
L 600.687063 247.665455 
L 605.564685 251.156364 
L 608.003497 249.12 
L 610.442308 248.247273 
L 612.881119 246.792727 
L 615.31993 247.083636 
L 617.758741 245.629091 
L 620.197552 250.574545 
L 622.636364 251.738182 
L 622.636364 251.738182 
" style="fill:none;stroke:#ff7f0e;stroke-linecap:square;stroke-width:1.5;"/>
   </g>
   <g id="patch_9">
    <path d="M 90 256.32 
L 90 155.52 
" style="fill:none;stroke:#000000;stroke-linecap:square;stroke-linejoin:miter;stroke-width:0.8;"/>
   </g>
   <g id="patch_10">
    <path d="M 648 256.32 
L 648 155.52 
" style="fill:none;stroke:#000000;stroke-linecap:square;stroke-linejoin:miter;stroke-width:0.8;"/>
   </g>
   <g id="patch_11">
    <path d="M 90 256.32 
L 648 256.32 
" style="fill:none;stroke:#000000;stroke-linecap:square;stroke-linejoin:miter;stroke-width:0.8;"/>
   </g>
   <g id="patch_12">
    <path d="M 90 155.52 
L 648 155.52 
" style="fill:none;stroke:#000000;stroke-linecap:square;stroke-linejoin:miter;stroke-width:0.8;"/>
   </g>
   <g id="legend_2">
    <g id="patch_13">
     <path d="M 97 192.87625 
L 234.217188 192.87625 
Q 236.217188 192.87625 236.217188 190.87625 
L 236.217188 162.52 
Q 236.217188 160.52 234.217188 160.52 
L 97 160.52 
Q 95 160.52 95 162.52 
L 95 190.87625 
Q 95 192.87625 97 192.87625 
z
" style="fill:#ffffff;opacity:0.8;stroke:#cccccc;stroke-linejoin:miter;"/>
    </g>
    <g id="line2d_29">
     <path d="M 99 168.618437 
L 119 168.618437 
" style="fill:none;stroke:#1f77b4;stroke-linecap:square;stroke-width:1.5;"/>
    </g>
    <g id="line2d_30"/>
    <g id="text_25">
     <!-- Total GitHub Views -->
     <g transform="translate(127 172.118437)scale(0.1 -0.1)">
      <defs>
       <path d="M 1831 0 
L 50 4666 
L 709 4666 
L 2188 738 
L 3669 4666 
L 4325 4666 
L 2547 0 
L 1831 0 
z
" id="DejaVuSans-56" transform="scale(0.015625)"/>
       <path d="M 269 3500 
L 844 3500 
L 1563 769 
L 2278 3500 
L 2956 3500 
L 3675 769 
L 4391 3500 
L 4966 3500 
L 4050 0 
L 3372 0 
L 2619 2869 
L 1863 0 
L 1184 0 
L 269 3500 
z
" id="DejaVuSans-77" transform="scale(0.015625)"/>
      </defs>
      <use xlink:href="#DejaVuSans-54"/>
      <use x="44.083984" xlink:href="#DejaVuSans-6f"/>
      <use x="105.265625" xlink:href="#DejaVuSans-74"/>
      <use x="144.474609" xlink:href="#DejaVuSans-61"/>
      <use x="205.753906" xlink:href="#DejaVuSans-6c"/>
      <use x="233.537109" xlink:href="#DejaVuSans-20"/>
      <use x="265.324219" xlink:href="#DejaVuSans-47"/>
      <use x="342.814453" xlink:href="#DejaVuSans-69"/>
      <use x="370.597656" xlink:href="#DejaVuSans-74"/>
      <use x="409.806641" xlink:href="#DejaVuSans-48"/>
      <use x="485.001953" xlink:href="#DejaVuSans-75"/>
      <use x="548.380859" xlink:href="#DejaVuSans-62"/>
      <use x="611.857422" xlink:href="#DejaVuSans-20"/>
      <use x="643.644531" xlink:href="#DejaVuSans-56"/>
      <use x="709.802734" xlink:href="#DejaVuSans-69"/>
      <use x="737.585938" xlink:href="#DejaVuSans-65"/>
      <use x="799.109375" xlink:href="#DejaVuSans-77"/>
      <use x="880.896484" xlink:href="#DejaVuSans-73"/>
     </g>
    </g>
    <g id="line2d_31">
     <path d="M 99 183.296562 
L 119 183.296562 
" style="fill:none;stroke:#ff7f0e;stroke-linecap:square;stroke-width:1.5;"/>
    </g>
    <g id="line2d_32"/>
    <g id="text_26">
     <!-- Unique GitHub Views -->
     <g transform="translate(127 186.796562)scale(0.1 -0.1)">
      <use xlink:href="#DejaVuSans-55"/>
      <use x="73.193359" xlink:href="#DejaVuSans-6e"/>
      <use x="136.572266" xlink:href="#DejaVuSans-69"/>
      <use x="164.355469" xlink:href="#DejaVuSans-71"/>
      <use x="227.832031" xlink:href="#DejaVuSans-75"/>
      <use x="291.210938" xlink:href="#DejaVuSans-65"/>
      <use x="352.734375" xlink:href="#DejaVuSans-20"/>
      <use x="384.521484" xlink:href="#DejaVuSans-47"/>
      <use x="462.011719" xlink:href="#DejaVuSans-69"/>
      <use x="489.794922" xlink:href="#DejaVuSans-74"/>
      <use x="529.003906" xlink:href="#DejaVuSans-48"/>
      <use x="604.199219" xlink:href="#DejaVuSans-75"/>
      <use x="667.578125" xlink:href="#DejaVuSans-62"/>
      <use x="731.054688" xlink:href="#DejaVuSans-20"/>
      <use x="762.841797" xlink:href="#DejaVuSans-56"/>
      <use x="829" xlink:href="#DejaVuSans-69"/>
      <use x="856.783203" xlink:href="#DejaVuSans-65"/>
      <use x="918.306641" xlink:href="#DejaVuSans-77"/>
      <use x="1000.09375" xlink:href="#DejaVuSans-73"/>
     </g>
    </g>
   </g>
  </g>
 </g>
 <defs>
  <clipPath id="p3e4d59738d">
   <rect height="100.8" width="558" x="90" y="34.56"/>
  </clipPath>
  <clipPath id="p343618d7a4">
   <rect height="100.8" width="558" x="90" y="155.52"/>
  </clipPath>
 </defs>
</svg>
