<?xml version="1.0" encoding="utf-8" standalone="no"?>
<!DOCTYPE svg PUBLIC "-//W3C//DTD SVG 1.1//EN"
  "http://www.w3.org/Graphics/SVG/1.1/DTD/svg11.dtd">
<svg xmlns:xlink="http://www.w3.org/1999/xlink" width="720pt" height="288pt" viewBox="0 0 720 288" xmlns="http://www.w3.org/2000/svg" version="1.1">
 <metadata>
  <rdf:RDF xmlns:dc="http://purl.org/dc/elements/1.1/" xmlns:cc="http://creativecommons.org/ns#" xmlns:rdf="http://www.w3.org/1999/02/22-rdf-syntax-ns#">
   <cc:Work>
    <dc:type rdf:resource="http://purl.org/dc/dcmitype/StillImage"/>
    <dc:date>2022-10-03T00:59:41.294932</dc:date>
    <dc:format>image/svg+xml</dc:format>
    <dc:creator>
     <cc:Agent>
      <dc:title>Matplotlib v3.6.0, https://matplotlib.org/</dc:title>
     </cc:Agent>
    </dc:creator>
   </cc:Work>
  </rdf:RDF>
 </metadata>
 <defs>
  <style type="text/css">*{stroke-linejoin: round; stroke-linecap: butt}</style>
 </defs>
 <g id="figure_1">
  <g id="patch_1">
   <path d="M 0 288 
L 720 288 
L 720 0 
L 0 0 
z
" style="fill: #ffffff"/>
  </g>
  <g id="axes_1">
   <g id="patch_2">
    <path d="M 90 135.36 
L 648 135.36 
L 648 34.56 
L 90 34.56 
z
" style="fill: #ffffff"/>
   </g>
   <g id="matplotlib.axis_1">
    <g id="xtick_1">
     <g id="line2d_1">
      <defs>
       <path id="mbfbb12370c" d="M 0 0 
L 0 3.5 
" style="stroke: #000000; stroke-width: 0.8"/>
      </defs>
      <g>
       <use xlink:href="#mbfbb12370c" x="115.363636" y="135.36" style="stroke: #000000; stroke-width: 0.8"/>
      </g>
     </g>
     <g id="text_1">
      <!-- 2020-10-22 -->
      <g transform="translate(86.305824 149.958437) scale(0.1 -0.1)">
       <defs>
        <path id="DejaVuSans-32" d="M 1228 531 
L 3431 531 
L 3431 0 
L 469 0 
L 469 531 
Q 828 903 1448 1529 
Q 2069 2156 2228 2338 
Q 2531 2678 2651 2914 
Q 2772 3150 2772 3378 
Q 2772 3750 2511 3984 
Q 2250 4219 1831 4219 
Q 1534 4219 1204 4116 
Q 875 4013 500 3803 
L 500 4441 
Q 881 4594 1212 4672 
Q 1544 4750 1819 4750 
Q 2544 4750 2975 4387 
Q 3406 4025 3406 3419 
Q 3406 3131 3298 2873 
Q 3191 2616 2906 2266 
Q 2828 2175 2409 1742 
Q 1991 1309 1228 531 
z
" transform="scale(0.015625)"/>
        <path id="DejaVuSans-30" d="M 2034 4250 
Q 1547 4250 1301 3770 
Q 1056 3291 1056 2328 
Q 1056 1369 1301 889 
Q 1547 409 2034 409 
Q 2525 409 2770 889 
Q 3016 1369 3016 2328 
Q 3016 3291 2770 3770 
Q 2525 4250 2034 4250 
z
M 2034 4750 
Q 2819 4750 3233 4129 
Q 3647 3509 3647 2328 
Q 3647 1150 3233 529 
Q 2819 -91 2034 -91 
Q 1250 -91 836 529 
Q 422 1150 422 2328 
Q 422 3509 836 4129 
Q 1250 4750 2034 4750 
z
" transform="scale(0.015625)"/>
        <path id="DejaVuSans-2d" d="M 313 2009 
L 1997 2009 
L 1997 1497 
L 313 1497 
L 313 2009 
z
" transform="scale(0.015625)"/>
        <path id="DejaVuSans-31" d="M 794 531 
L 1825 531 
L 1825 4091 
L 703 3866 
L 703 4441 
L 1819 4666 
L 2450 4666 
L 2450 531 
L 3481 531 
L 3481 0 
L 794 0 
L 794 531 
z
" transform="scale(0.015625)"/>
       </defs>
       <use xlink:href="#DejaVuSans-32"/>
       <use xlink:href="#DejaVuSans-30" x="63.623047"/>
       <use xlink:href="#DejaVuSans-32" x="127.246094"/>
       <use xlink:href="#DejaVuSans-30" x="190.869141"/>
       <use xlink:href="#DejaVuSans-2d" x="254.492188"/>
       <use xlink:href="#DejaVuSans-31" x="290.576172"/>
       <use xlink:href="#DejaVuSans-30" x="354.199219"/>
       <use xlink:href="#DejaVuSans-2d" x="417.822266"/>
       <use xlink:href="#DejaVuSans-32" x="453.90625"/>
       <use xlink:href="#DejaVuSans-32" x="517.529297"/>
      </g>
     </g>
    </g>
    <g id="xtick_2">
     <g id="line2d_2">
      <g>
       <use xlink:href="#mbfbb12370c" x="209.30303" y="135.36" style="stroke: #000000; stroke-width: 0.8"/>
      </g>
     </g>
     <g id="text_2">
      <!-- 2021-03-17 -->
      <g transform="translate(180.245218 149.958437) scale(0.1 -0.1)">
       <defs>
        <path id="DejaVuSans-33" d="M 2597 2516 
Q 3050 2419 3304 2112 
Q 3559 1806 3559 1356 
Q 3559 666 3084 287 
Q 2609 -91 1734 -91 
Q 1441 -91 1130 -33 
Q 819 25 488 141 
L 488 750 
Q 750 597 1062 519 
Q 1375 441 1716 441 
Q 2309 441 2620 675 
Q 2931 909 2931 1356 
Q 2931 1769 2642 2001 
Q 2353 2234 1838 2234 
L 1294 2234 
L 1294 2753 
L 1863 2753 
Q 2328 2753 2575 2939 
Q 2822 3125 2822 3475 
Q 2822 3834 2567 4026 
Q 2313 4219 1838 4219 
Q 1578 4219 1281 4162 
Q 984 4106 628 3988 
L 628 4550 
Q 988 4650 1302 4700 
Q 1616 4750 1894 4750 
Q 2613 4750 3031 4423 
Q 3450 4097 3450 3541 
Q 3450 3153 3228 2886 
Q 3006 2619 2597 2516 
z
" transform="scale(0.015625)"/>
        <path id="DejaVuSans-37" d="M 525 4666 
L 3525 4666 
L 3525 4397 
L 1831 0 
L 1172 0 
L 2766 4134 
L 525 4134 
L 525 4666 
z
" transform="scale(0.015625)"/>
       </defs>
       <use xlink:href="#DejaVuSans-32"/>
       <use xlink:href="#DejaVuSans-30" x="63.623047"/>
       <use xlink:href="#DejaVuSans-32" x="127.246094"/>
       <use xlink:href="#DejaVuSans-31" x="190.869141"/>
       <use xlink:href="#DejaVuSans-2d" x="254.492188"/>
       <use xlink:href="#DejaVuSans-30" x="290.576172"/>
       <use xlink:href="#DejaVuSans-33" x="354.199219"/>
       <use xlink:href="#DejaVuSans-2d" x="417.822266"/>
       <use xlink:href="#DejaVuSans-31" x="453.90625"/>
       <use xlink:href="#DejaVuSans-37" x="517.529297"/>
      </g>
     </g>
    </g>
    <g id="xtick_3">
     <g id="line2d_3">
      <g>
       <use xlink:href="#mbfbb12370c" x="303.242424" y="135.36" style="stroke: #000000; stroke-width: 0.8"/>
      </g>
     </g>
     <g id="text_3">
      <!-- 2021-07-07 -->
      <g transform="translate(274.184612 149.958437) scale(0.1 -0.1)">
       <use xlink:href="#DejaVuSans-32"/>
       <use xlink:href="#DejaVuSans-30" x="63.623047"/>
       <use xlink:href="#DejaVuSans-32" x="127.246094"/>
       <use xlink:href="#DejaVuSans-31" x="190.869141"/>
       <use xlink:href="#DejaVuSans-2d" x="254.492188"/>
       <use xlink:href="#DejaVuSans-30" x="290.576172"/>
       <use xlink:href="#DejaVuSans-37" x="354.199219"/>
       <use xlink:href="#DejaVuSans-2d" x="417.822266"/>
       <use xlink:href="#DejaVuSans-30" x="453.90625"/>
       <use xlink:href="#DejaVuSans-37" x="517.529297"/>
      </g>
     </g>
    </g>
    <g id="xtick_4">
     <g id="line2d_4">
      <g>
       <use xlink:href="#mbfbb12370c" x="397.181818" y="135.36" style="stroke: #000000; stroke-width: 0.8"/>
      </g>
     </g>
     <g id="text_4">
      <!-- 2021-11-18 -->
      <g transform="translate(368.124006 149.958437) scale(0.1 -0.1)">
       <defs>
        <path id="DejaVuSans-38" d="M 2034 2216 
Q 1584 2216 1326 1975 
Q 1069 1734 1069 1313 
Q 1069 891 1326 650 
Q 1584 409 2034 409 
Q 2484 409 2743 651 
Q 3003 894 3003 1313 
Q 3003 1734 2745 1975 
Q 2488 2216 2034 2216 
z
M 1403 2484 
Q 997 2584 770 2862 
Q 544 3141 544 3541 
Q 544 4100 942 4425 
Q 1341 4750 2034 4750 
Q 2731 4750 3128 4425 
Q 3525 4100 3525 3541 
Q 3525 3141 3298 2862 
Q 3072 2584 2669 2484 
Q 3125 2378 3379 2068 
Q 3634 1759 3634 1313 
Q 3634 634 3220 271 
Q 2806 -91 2034 -91 
Q 1263 -91 848 271 
Q 434 634 434 1313 
Q 434 1759 690 2068 
Q 947 2378 1403 2484 
z
M 1172 3481 
Q 1172 3119 1398 2916 
Q 1625 2713 2034 2713 
Q 2441 2713 2670 2916 
Q 2900 3119 2900 3481 
Q 2900 3844 2670 4047 
Q 2441 4250 2034 4250 
Q 1625 4250 1398 4047 
Q 1172 3844 1172 3481 
z
" transform="scale(0.015625)"/>
       </defs>
       <use xlink:href="#DejaVuSans-32"/>
       <use xlink:href="#DejaVuSans-30" x="63.623047"/>
       <use xlink:href="#DejaVuSans-32" x="127.246094"/>
       <use xlink:href="#DejaVuSans-31" x="190.869141"/>
       <use xlink:href="#DejaVuSans-2d" x="254.492188"/>
       <use xlink:href="#DejaVuSans-31" x="290.576172"/>
       <use xlink:href="#DejaVuSans-31" x="354.199219"/>
       <use xlink:href="#DejaVuSans-2d" x="417.822266"/>
       <use xlink:href="#DejaVuSans-31" x="453.90625"/>
       <use xlink:href="#DejaVuSans-38" x="517.529297"/>
      </g>
     </g>
    </g>
    <g id="xtick_5">
     <g id="line2d_5">
      <g>
       <use xlink:href="#mbfbb12370c" x="491.121212" y="135.36" style="stroke: #000000; stroke-width: 0.8"/>
      </g>
     </g>
     <g id="text_5">
      <!-- 2022-03-24 -->
      <g transform="translate(462.0634 149.958437) scale(0.1 -0.1)">
       <defs>
        <path id="DejaVuSans-34" d="M 2419 4116 
L 825 1625 
L 2419 1625 
L 2419 4116 
z
M 2253 4666 
L 3047 4666 
L 3047 1625 
L 3713 1625 
L 3713 1100 
L 3047 1100 
L 3047 0 
L 2419 0 
L 2419 1100 
L 313 1100 
L 313 1709 
L 2253 4666 
z
" transform="scale(0.015625)"/>
       </defs>
       <use xlink:href="#DejaVuSans-32"/>
       <use xlink:href="#DejaVuSans-30" x="63.623047"/>
       <use xlink:href="#DejaVuSans-32" x="127.246094"/>
       <use xlink:href="#DejaVuSans-32" x="190.869141"/>
       <use xlink:href="#DejaVuSans-2d" x="254.492188"/>
       <use xlink:href="#DejaVuSans-30" x="290.576172"/>
       <use xlink:href="#DejaVuSans-33" x="354.199219"/>
       <use xlink:href="#DejaVuSans-2d" x="417.822266"/>
       <use xlink:href="#DejaVuSans-32" x="453.90625"/>
       <use xlink:href="#DejaVuSans-34" x="517.529297"/>
      </g>
     </g>
    </g>
    <g id="xtick_6">
     <g id="line2d_6">
      <g>
       <use xlink:href="#mbfbb12370c" x="585.060606" y="135.36" style="stroke: #000000; stroke-width: 0.8"/>
      </g>
     </g>
     <g id="text_6">
      <!-- 2022-08-14 -->
      <g transform="translate(556.002794 149.958437) scale(0.1 -0.1)">
       <use xlink:href="#DejaVuSans-32"/>
       <use xlink:href="#DejaVuSans-30" x="63.623047"/>
       <use xlink:href="#DejaVuSans-32" x="127.246094"/>
       <use xlink:href="#DejaVuSans-32" x="190.869141"/>
       <use xlink:href="#DejaVuSans-2d" x="254.492188"/>
       <use xlink:href="#DejaVuSans-30" x="290.576172"/>
       <use xlink:href="#DejaVuSans-38" x="354.199219"/>
       <use xlink:href="#DejaVuSans-2d" x="417.822266"/>
       <use xlink:href="#DejaVuSans-31" x="453.90625"/>
       <use xlink:href="#DejaVuSans-34" x="517.529297"/>
      </g>
     </g>
    </g>
    <g id="text_7">
     <!-- _date -->
     <g transform="translate(355.225 163.636562) scale(0.1 -0.1)">
      <defs>
       <path id="DejaVuSans-5f" d="M 3263 -1063 
L 3263 -1509 
L -63 -1509 
L -63 -1063 
L 3263 -1063 
z
" transform="scale(0.015625)"/>
       <path id="DejaVuSans-64" d="M 2906 2969 
L 2906 4863 
L 3481 4863 
L 3481 0 
L 2906 0 
L 2906 525 
Q 2725 213 2448 61 
Q 2172 -91 1784 -91 
Q 1150 -91 751 415 
Q 353 922 353 1747 
Q 353 2572 751 3078 
Q 1150 3584 1784 3584 
Q 2172 3584 2448 3432 
Q 2725 3281 2906 2969 
z
M 947 1747 
Q 947 1113 1208 752 
Q 1469 391 1925 391 
Q 2381 391 2643 752 
Q 2906 1113 2906 1747 
Q 2906 2381 2643 2742 
Q 2381 3103 1925 3103 
Q 1469 3103 1208 2742 
Q 947 2381 947 1747 
z
" transform="scale(0.015625)"/>
       <path id="DejaVuSans-61" d="M 2194 1759 
Q 1497 1759 1228 1600 
Q 959 1441 959 1056 
Q 959 750 1161 570 
Q 1363 391 1709 391 
Q 2188 391 2477 730 
Q 2766 1069 2766 1631 
L 2766 1759 
L 2194 1759 
z
M 3341 1997 
L 3341 0 
L 2766 0 
L 2766 531 
Q 2569 213 2275 61 
Q 1981 -91 1556 -91 
Q 1019 -91 701 211 
Q 384 513 384 1019 
Q 384 1609 779 1909 
Q 1175 2209 1959 2209 
L 2766 2209 
L 2766 2266 
Q 2766 2663 2505 2880 
Q 2244 3097 1772 3097 
Q 1472 3097 1187 3025 
Q 903 2953 641 2809 
L 641 3341 
Q 956 3463 1253 3523 
Q 1550 3584 1831 3584 
Q 2591 3584 2966 3190 
Q 3341 2797 3341 1997 
z
" transform="scale(0.015625)"/>
       <path id="DejaVuSans-74" d="M 1172 4494 
L 1172 3500 
L 2356 3500 
L 2356 3053 
L 1172 3053 
L 1172 1153 
Q 1172 725 1289 603 
Q 1406 481 1766 481 
L 2356 481 
L 2356 0 
L 1766 0 
Q 1100 0 847 248 
Q 594 497 594 1153 
L 594 3053 
L 172 3053 
L 172 3500 
L 594 3500 
L 594 4494 
L 1172 4494 
z
" transform="scale(0.015625)"/>
       <path id="DejaVuSans-65" d="M 3597 1894 
L 3597 1613 
L 953 1613 
Q 991 1019 1311 708 
Q 1631 397 2203 397 
Q 2534 397 2845 478 
Q 3156 559 3463 722 
L 3463 178 
Q 3153 47 2828 -22 
Q 2503 -91 2169 -91 
Q 1331 -91 842 396 
Q 353 884 353 1716 
Q 353 2575 817 3079 
Q 1281 3584 2069 3584 
Q 2775 3584 3186 3129 
Q 3597 2675 3597 1894 
z
M 3022 2063 
Q 3016 2534 2758 2815 
Q 2500 3097 2075 3097 
Q 1594 3097 1305 2825 
Q 1016 2553 972 2059 
L 3022 2063 
z
" transform="scale(0.015625)"/>
      </defs>
      <use xlink:href="#DejaVuSans-5f"/>
      <use xlink:href="#DejaVuSans-64" x="50"/>
      <use xlink:href="#DejaVuSans-61" x="113.476562"/>
      <use xlink:href="#DejaVuSans-74" x="174.755859"/>
      <use xlink:href="#DejaVuSans-65" x="213.964844"/>
     </g>
    </g>
   </g>
   <g id="matplotlib.axis_2">
    <g id="ytick_1">
     <g id="line2d_7">
      <defs>
       <path id="m341c9d55f0" d="M 0 0 
L -3.5 0 
" style="stroke: #000000; stroke-width: 0.8"/>
      </defs>
      <g>
       <use xlink:href="#m341c9d55f0" x="90" y="131.070017" style="stroke: #000000; stroke-width: 0.8"/>
      </g>
     </g>
     <g id="text_8">
      <!-- 0 -->
      <g transform="translate(76.6375 134.869236) scale(0.1 -0.1)">
       <use xlink:href="#DejaVuSans-30"/>
      </g>
     </g>
    </g>
    <g id="ytick_2">
     <g id="line2d_8">
      <g>
       <use xlink:href="#m341c9d55f0" x="90" y="101.886462" style="stroke: #000000; stroke-width: 0.8"/>
      </g>
     </g>
     <g id="text_9">
      <!-- 100 -->
      <g transform="translate(63.9125 105.685681) scale(0.1 -0.1)">
       <use xlink:href="#DejaVuSans-31"/>
       <use xlink:href="#DejaVuSans-30" x="63.623047"/>
       <use xlink:href="#DejaVuSans-30" x="127.246094"/>
      </g>
     </g>
    </g>
    <g id="ytick_3">
     <g id="line2d_9">
      <g>
       <use xlink:href="#m341c9d55f0" x="90" y="72.702907" style="stroke: #000000; stroke-width: 0.8"/>
      </g>
     </g>
     <g id="text_10">
      <!-- 200 -->
      <g transform="translate(63.9125 76.502126) scale(0.1 -0.1)">
       <use xlink:href="#DejaVuSans-32"/>
       <use xlink:href="#DejaVuSans-30" x="63.623047"/>
       <use xlink:href="#DejaVuSans-30" x="127.246094"/>
      </g>
     </g>
    </g>
    <g id="ytick_4">
     <g id="line2d_10">
      <g>
       <use xlink:href="#m341c9d55f0" x="90" y="43.519351" style="stroke: #000000; stroke-width: 0.8"/>
      </g>
     </g>
     <g id="text_11">
      <!-- 300 -->
      <g transform="translate(63.9125 47.31857) scale(0.1 -0.1)">
       <use xlink:href="#DejaVuSans-33"/>
       <use xlink:href="#DejaVuSans-30" x="63.623047"/>
       <use xlink:href="#DejaVuSans-30" x="127.246094"/>
      </g>
     </g>
    </g>
   </g>
   <g id="line2d_11">
    <path d="M 115.363636 129.319004 
L 116.30303 129.61084 
L 117.242424 130.778182 
L 118.181818 130.778182 
L 119.121212 130.194511 
L 120.060606 130.194511 
L 121 126.108813 
L 121.939394 126.108813 
L 122.878788 130.778182 
L 123.818182 130.778182 
L 124.757576 127.859826 
L 125.69697 128.735333 
L 126.636364 130.778182 
L 127.575758 129.319004 
L 128.515152 129.902675 
L 129.454545 129.902675 
L 130.393939 130.778182 
L 132.272727 129.61084 
L 133.212121 130.486346 
L 134.151515 130.778182 
L 135.090909 130.486346 
L 136.030303 130.486346 
L 136.969697 130.194511 
L 137.909091 130.486346 
L 138.848485 130.486346 
L 139.787879 129.902675 
L 140.727273 130.486346 
L 141.666667 130.486346 
L 142.606061 126.98432 
L 143.545455 129.319004 
L 144.484848 130.486346 
L 145.424242 123.774129 
L 146.363636 130.778182 
L 153.878788 130.778182 
L 154.818182 130.486346 
L 155.757576 130.778182 
L 162.333333 130.778182 
L 163.272727 129.902675 
L 164.212121 130.194511 
L 165.151515 130.778182 
L 166.090909 130.194511 
L 167.030303 129.319004 
L 167.969697 130.486346 
L 168.909091 130.486346 
L 169.848485 129.902675 
L 170.787879 126.108813 
L 171.727273 130.486346 
L 172.666667 130.778182 
L 173.606061 130.486346 
L 174.545455 129.027169 
L 175.484848 130.486346 
L 176.424242 130.194511 
L 177.363636 128.151662 
L 178.30303 129.902675 
L 179.242424 129.027169 
L 180.181818 130.486346 
L 181.121212 130.194511 
L 182.060606 130.486346 
L 183 130.194511 
L 184.878788 130.194511 
L 185.818182 129.61084 
L 186.757576 130.778182 
L 187.69697 130.778182 
L 188.636364 129.61084 
L 189.575758 129.61084 
L 190.515152 128.151662 
L 191.454545 130.194511 
L 192.393939 129.319004 
L 193.333333 130.778182 
L 194.272727 128.443497 
L 195.212121 129.902675 
L 196.151515 130.194511 
L 197.090909 129.902675 
L 198.030303 128.735333 
L 198.969697 130.486346 
L 199.909091 129.61084 
L 200.848485 126.400649 
L 201.787879 128.735333 
L 202.727273 126.108813 
L 203.666667 110.349693 
L 204.606061 129.319004 
L 205.545455 130.778182 
L 206.484848 129.902675 
L 207.424242 127.276155 
L 208.363636 127.859826 
L 209.30303 129.319004 
L 210.242424 125.525142 
L 211.181818 129.902675 
L 212.121212 129.902675 
L 213.060606 130.486346 
L 214 126.98432 
L 214.939394 127.859826 
L 215.878788 130.778182 
L 216.818182 130.194511 
L 217.757576 130.778182 
L 218.69697 129.61084 
L 219.636364 116.47824 
L 220.575758 124.941471 
L 221.515152 126.400649 
L 222.454545 129.319004 
L 223.393939 130.778182 
L 224.333333 128.735333 
L 225.272727 129.902675 
L 226.212121 126.692484 
L 227.151515 129.902675 
L 228.090909 127.276155 
L 229.030303 123.774129 
L 229.969697 126.98432 
L 230.909091 129.319004 
L 231.848485 123.482293 
L 232.787879 123.482293 
L 233.727273 124.065964 
L 234.666667 112.684378 
L 235.606061 119.688431 
L 236.545455 119.688431 
L 237.484848 125.525142 
L 238.424242 121.147609 
L 239.363636 125.233306 
L 240.30303 130.194511 
L 241.242424 130.486346 
L 242.181818 124.065964 
L 243.121212 123.190457 
L 244.060606 123.774129 
L 245 121.73128 
L 245.939394 119.10476 
L 246.878788 129.61084 
L 247.818182 130.486346 
L 248.757576 124.065964 
L 249.69697 124.649635 
L 250.636364 116.47824 
L 251.575758 123.774129 
L 252.515152 124.065964 
L 253.454545 130.486346 
L 254.393939 129.902675 
L 255.333333 123.190457 
L 256.272727 117.353746 
L 257.212121 124.3578 
L 258.151515 122.606786 
L 259.090909 114.143555 
L 260.030303 124.3578 
L 260.969697 130.486346 
L 261.909091 123.190457 
L 262.848485 119.10476 
L 263.787879 117.645582 
L 264.727273 120.563937 
L 265.666667 121.73128 
L 266.606061 130.194511 
L 267.545455 123.482293 
L 268.484848 120.272102 
L 269.424242 123.774129 
L 270.363636 123.482293 
L 271.30303 122.898622 
L 272.242424 128.443497 
L 273.181818 123.774129 
L 274.121212 122.606786 
L 275.060606 123.774129 
L 276 124.065964 
L 276.939394 124.065964 
L 277.878788 130.778182 
L 278.818182 130.778182 
L 279.757576 123.482293 
L 280.69697 122.023115 
L 281.636364 123.482293 
L 282.575758 117.645582 
L 283.515152 119.10476 
L 284.454545 130.778182 
L 285.393939 123.774129 
L 286.333333 122.898622 
L 287.272727 122.606786 
L 288.212121 122.023115 
L 289.151515 124.3578 
L 290.090909 130.486346 
L 291.030303 123.190457 
L 291.969697 121.439444 
L 292.909091 118.812924 
L 293.848485 118.521089 
L 294.787879 87.878356 
L 296.666667 130.778182 
L 297.606061 124.941471 
L 298.545455 124.3578 
L 299.484848 127.859826 
L 300.424242 130.778182 
L 301.363636 130.486346 
L 302.30303 127.276155 
L 303.242424 128.151662 
L 304.181818 130.486346 
L 305.121212 129.902675 
L 306.060606 130.486346 
L 307 130.778182 
L 307.939394 130.486346 
L 308.878788 130.778182 
L 309.818182 129.902675 
L 310.757576 130.194511 
L 311.69697 130.778182 
L 314.515152 130.778182 
L 315.454545 129.61084 
L 316.393939 130.486346 
L 317.333333 130.778182 
L 318.272727 130.486346 
L 319.212121 129.027169 
L 320.151515 130.778182 
L 321.090909 124.3578 
L 322.030303 130.194511 
L 322.969697 130.778182 
L 324.848485 130.194511 
L 325.787879 130.778182 
L 326.727273 130.486346 
L 327.666667 130.778182 
L 328.606061 129.902675 
L 329.545455 130.486346 
L 330.484848 130.194511 
L 331.424242 130.778182 
L 333.30303 130.778182 
L 335.181818 130.194511 
L 336.121212 129.027169 
L 337.060606 130.486346 
L 338 130.486346 
L 338.939394 127.859826 
L 339.878788 126.692484 
L 340.818182 130.778182 
L 342.69697 130.778182 
L 344.575758 130.194511 
L 345.515152 130.486346 
L 346.454545 128.151662 
L 347.393939 122.606786 
L 348.333333 129.319004 
L 349.272727 121.147609 
L 350.212121 128.735333 
L 351.151515 130.486346 
L 352.090909 130.778182 
L 353.969697 130.778182 
L 354.909091 130.486346 
L 355.848485 130.778182 
L 356.787879 130.778182 
L 357.727273 129.61084 
L 358.666667 115.602733 
L 359.606061 124.3578 
L 360.545455 130.194511 
L 361.484848 126.98432 
L 362.424242 115.894569 
L 363.363636 114.727226 
L 364.30303 112.100706 
L 365.242424 118.229253 
L 366.181818 126.108813 
L 367.121212 126.98432 
L 368.060606 130.778182 
L 369 128.443497 
L 369.939394 130.778182 
L 370.878788 130.778182 
L 371.818182 126.692484 
L 372.757576 130.194511 
L 373.69697 115.310898 
L 374.636364 126.98432 
L 375.575758 114.435391 
L 376.515152 127.276155 
L 377.454545 129.61084 
L 378.393939 126.400649 
L 379.333333 113.559884 
L 380.272727 126.108813 
L 381.212121 126.98432 
L 382.151515 130.194511 
L 383.090909 130.778182 
L 384.030303 130.778182 
L 384.969697 130.194511 
L 385.909091 128.735333 
L 386.848485 127.567991 
L 387.787879 126.98432 
L 388.727273 130.778182 
L 389.666667 130.778182 
L 390.606061 125.816977 
L 391.545455 123.774129 
L 392.484848 130.778182 
L 393.424242 130.194511 
L 394.363636 130.778182 
L 395.30303 128.151662 
L 396.242424 130.194511 
L 397.181818 130.778182 
L 398.121212 130.486346 
L 399.060606 129.902675 
L 400 129.902675 
L 400.939394 119.396595 
L 401.878788 129.902675 
L 402.818182 129.902675 
L 403.757576 126.108813 
L 404.69697 118.812924 
L 405.636364 127.276155 
L 406.575758 127.276155 
L 407.515152 130.194511 
L 408.454545 125.816977 
L 409.393939 117.937417 
L 410.333333 99.259942 
L 411.272727 127.276155 
L 412.212121 122.606786 
L 413.151515 130.778182 
L 414.090909 118.521089 
L 415.030303 116.186404 
L 415.969697 129.027169 
L 416.909091 124.3578 
L 417.848485 130.778182 
L 418.787879 130.778182 
L 419.727273 116.770075 
L 420.666667 115.894569 
L 421.606061 130.486346 
L 422.545455 126.108813 
L 423.484848 130.778182 
L 424.424242 130.778182 
L 425.363636 130.194511 
L 426.30303 130.486346 
L 427.242424 129.902675 
L 428.181818 130.778182 
L 429.121212 126.692484 
L 430.060606 124.3578 
L 431 113.559884 
L 431.939394 127.859826 
L 432.878788 130.486346 
L 433.818182 123.482293 
L 434.757576 130.486346 
L 435.69697 128.443497 
L 436.636364 125.816977 
L 437.575758 126.98432 
L 438.515152 129.319004 
L 439.454545 130.486346 
L 440.393939 129.027169 
L 441.333333 123.774129 
L 442.272727 129.61084 
L 443.212121 126.98432 
L 444.151515 128.151662 
L 445.090909 130.778182 
L 446.030303 104.804818 
L 446.969697 124.649635 
L 447.909091 115.019062 
L 448.848485 126.692484 
L 449.787879 106.263995 
L 450.727273 130.778182 
L 451.666667 125.233306 
L 453.545455 116.186404 
L 454.484848 120.563937 
L 455.424242 128.443497 
L 456.363636 130.778182 
L 458.242424 110.641529 
L 459.181818 112.100706 
L 460.121212 130.778182 
L 461.060606 126.98432 
L 462 129.902675 
L 462.939394 113.85172 
L 463.878788 129.902675 
L 464.818182 130.778182 
L 466.69697 130.778182 
L 467.636364 129.61084 
L 468.575758 129.902675 
L 469.515152 127.859826 
L 470.454545 129.027169 
L 471.393939 127.567991 
L 472.333333 122.314951 
L 473.272727 130.486346 
L 474.212121 106.555831 
L 475.151515 127.276155 
L 476.090909 126.692484 
L 477.030303 114.143555 
L 477.969697 124.649635 
L 479.848485 130.486346 
L 480.787879 129.319004 
L 481.727273 130.486346 
L 482.666667 127.859826 
L 483.606061 104.804818 
L 484.545455 93.423231 
L 485.484848 121.147609 
L 486.424242 130.486346 
L 487.363636 126.108813 
L 488.30303 129.902675 
L 489.242424 130.194511 
L 490.181818 130.778182 
L 491.121212 130.778182 
L 492.060606 130.486346 
L 493.939394 130.486346 
L 494.878788 130.778182 
L 495.818182 130.778182 
L 496.757576 130.194511 
L 497.69697 130.194511 
L 498.636364 130.778182 
L 499.575758 130.778182 
L 500.515152 130.486346 
L 501.454545 130.486346 
L 502.393939 130.778182 
L 503.333333 130.486346 
L 504.272727 129.902675 
L 505.212121 130.486346 
L 506.151515 130.778182 
L 507.090909 130.194511 
L 508.030303 130.194511 
L 508.969697 129.61084 
L 509.909091 127.276155 
L 510.848485 129.61084 
L 511.787879 130.486346 
L 512.727273 130.194511 
L 513.666667 128.443497 
L 514.606061 125.816977 
L 515.545455 130.778182 
L 516.484848 130.486346 
L 517.424242 130.778182 
L 518.363636 130.778182 
L 519.30303 127.276155 
L 520.242424 130.778182 
L 521.181818 127.276155 
L 522.121212 130.778182 
L 523.060606 130.486346 
L 524 122.606786 
L 524.939394 130.486346 
L 525.878788 118.521089 
L 526.818182 127.567991 
L 527.757576 102.178298 
L 528.69697 118.812924 
L 529.636364 129.61084 
L 530.575758 130.486346 
L 531.515152 130.194511 
L 532.454545 130.486346 
L 533.393939 117.645582 
L 534.333333 129.902675 
L 535.272727 130.778182 
L 536.212121 130.486346 
L 537.151515 125.816977 
L 538.090909 130.778182 
L 539.969697 130.778182 
L 540.909091 128.735333 
L 541.848485 120.563937 
L 542.787879 130.778182 
L 543.727273 129.902675 
L 544.666667 123.774129 
L 545.606061 122.606786 
L 546.545455 130.778182 
L 547.484848 129.902675 
L 548.424242 130.194511 
L 549.363636 127.859826 
L 550.30303 130.194511 
L 551.242424 129.319004 
L 552.181818 130.486346 
L 553.121212 130.778182 
L 554.060606 129.61084 
L 555 129.027169 
L 555.939394 129.902675 
L 556.878788 119.10476 
L 557.818182 130.194511 
L 558.757576 122.023115 
L 559.69697 130.778182 
L 560.636364 129.027169 
L 561.575758 125.816977 
L 562.515152 130.778182 
L 563.454545 130.194511 
L 564.393939 130.486346 
L 565.333333 110.933364 
L 566.272727 129.027169 
L 567.212121 130.778182 
L 568.151515 130.486346 
L 569.090909 122.898622 
L 570.030303 126.108813 
L 570.969697 130.486346 
L 571.909091 124.3578 
L 572.848485 130.778182 
L 573.787879 130.778182 
L 574.727273 129.61084 
L 575.666667 130.778182 
L 576.606061 127.276155 
L 577.545455 130.194511 
L 578.484848 130.486346 
L 579.424242 130.486346 
L 580.363636 129.902675 
L 581.30303 127.276155 
L 582.242424 126.108813 
L 583.181818 126.400649 
L 584.121212 130.486346 
L 585.060606 130.486346 
L 586.939394 113.559884 
L 587.878788 130.778182 
L 588.818182 121.147609 
L 589.757576 129.902675 
L 590.69697 130.778182 
L 591.636364 129.319004 
L 592.575758 129.61084 
L 593.515152 130.778182 
L 594.454545 39.141818 
L 595.393939 129.027169 
L 596.333333 126.98432 
L 597.272727 100.71912 
L 598.212121 125.816977 
L 599.151515 130.486346 
L 600.090909 128.443497 
L 601.030303 130.778182 
L 601.969697 130.194511 
L 602.909091 127.859826 
L 603.848485 130.486346 
L 604.787879 124.3578 
L 605.727273 127.567991 
L 606.666667 129.902675 
L 607.606061 129.319004 
L 608.545455 121.73128 
L 609.484848 130.778182 
L 610.424242 130.486346 
L 611.363636 129.61084 
L 612.30303 126.400649 
L 613.242424 130.194511 
L 614.181818 130.778182 
L 615.121212 125.525142 
L 616.060606 129.319004 
L 617 130.778182 
L 617.939394 130.194511 
L 618.878788 119.396595 
L 619.818182 130.778182 
L 620.757576 130.486346 
L 622.636364 130.486346 
L 622.636364 130.486346 
" clip-path="url(#pc36881db11)" style="fill: none; stroke: #1f77b4; stroke-width: 1.5; stroke-linecap: square"/>
   </g>
   <g id="line2d_12">
    <path d="M 115.363636 129.319004 
L 116.30303 129.61084 
L 117.242424 130.778182 
L 118.181818 130.778182 
L 119.121212 130.194511 
L 120.060606 130.194511 
L 121 130.486346 
L 121.939394 129.61084 
L 122.878788 130.778182 
L 123.818182 130.778182 
L 124.757576 127.859826 
L 125.69697 130.194511 
L 126.636364 130.778182 
L 127.575758 129.902675 
L 128.515152 129.902675 
L 129.454545 130.194511 
L 130.393939 130.778182 
L 131.333333 130.194511 
L 132.272727 129.902675 
L 133.212121 130.486346 
L 134.151515 130.778182 
L 135.090909 130.486346 
L 136.030303 130.778182 
L 136.969697 130.194511 
L 138.848485 130.778182 
L 139.787879 130.486346 
L 140.727273 130.778182 
L 141.666667 130.486346 
L 142.606061 128.443497 
L 143.545455 129.319004 
L 144.484848 130.486346 
L 145.424242 128.151662 
L 146.363636 130.778182 
L 153.878788 130.778182 
L 154.818182 130.486346 
L 155.757576 130.778182 
L 162.333333 130.778182 
L 163.272727 130.194511 
L 164.212121 130.778182 
L 165.151515 130.778182 
L 167.030303 130.194511 
L 167.969697 130.778182 
L 169.848485 130.778182 
L 170.787879 127.859826 
L 171.727273 130.778182 
L 172.666667 130.778182 
L 173.606061 130.486346 
L 174.545455 129.902675 
L 175.484848 130.486346 
L 176.424242 130.194511 
L 177.363636 129.027169 
L 178.30303 130.194511 
L 179.242424 130.778182 
L 180.181818 130.486346 
L 181.121212 130.778182 
L 182.060606 130.486346 
L 183 130.778182 
L 183.939394 130.194511 
L 185.818182 130.194511 
L 186.757576 130.778182 
L 187.69697 130.778182 
L 190.515152 129.027169 
L 191.454545 130.194511 
L 192.393939 129.61084 
L 193.333333 130.778182 
L 194.272727 129.027169 
L 195.212121 129.902675 
L 196.151515 130.194511 
L 197.090909 129.902675 
L 198.030303 128.735333 
L 198.969697 130.486346 
L 199.909091 129.61084 
L 200.848485 127.859826 
L 201.787879 129.027169 
L 202.727273 127.276155 
L 203.666667 120.563937 
L 204.606061 129.319004 
L 205.545455 130.778182 
L 206.484848 130.194511 
L 207.424242 127.567991 
L 209.30303 129.319004 
L 210.242424 126.692484 
L 211.181818 129.902675 
L 212.121212 129.902675 
L 213.060606 130.486346 
L 214 127.859826 
L 214.939394 127.859826 
L 215.878788 130.778182 
L 216.818182 130.194511 
L 217.757576 130.778182 
L 218.69697 129.902675 
L 219.636364 124.065964 
L 220.575758 126.98432 
L 221.515152 127.859826 
L 222.454545 129.61084 
L 223.393939 130.778182 
L 224.333333 129.319004 
L 225.272727 130.486346 
L 226.212121 127.567991 
L 227.151515 130.194511 
L 228.090909 127.567991 
L 229.030303 125.816977 
L 229.969697 127.276155 
L 230.909091 129.61084 
L 231.848485 126.108813 
L 232.787879 128.151662 
L 233.727273 130.486346 
L 234.666667 126.400649 
L 235.606061 129.902675 
L 236.545455 128.443497 
L 237.484848 126.400649 
L 238.424242 128.151662 
L 239.363636 130.778182 
L 240.30303 130.486346 
L 241.242424 130.486346 
L 242.181818 130.778182 
L 243.121212 129.902675 
L 244.060606 130.194511 
L 245.939394 126.108813 
L 246.878788 129.61084 
L 247.818182 130.486346 
L 248.757576 130.778182 
L 249.69697 129.902675 
L 250.636364 124.649635 
L 251.575758 130.778182 
L 252.515152 130.194511 
L 253.454545 130.486346 
L 255.333333 130.486346 
L 256.272727 125.233306 
L 257.212121 129.902675 
L 258.151515 129.027169 
L 259.090909 123.774129 
L 260.030303 125.816977 
L 260.969697 130.486346 
L 261.909091 130.778182 
L 262.848485 128.443497 
L 263.787879 130.194511 
L 264.727273 129.902675 
L 265.666667 130.486346 
L 266.606061 130.486346 
L 267.545455 130.778182 
L 268.484848 127.567991 
L 269.424242 130.778182 
L 270.363636 130.486346 
L 271.30303 129.902675 
L 272.242424 129.027169 
L 273.181818 130.778182 
L 274.121212 129.902675 
L 275.060606 130.778182 
L 276 130.194511 
L 276.939394 130.194511 
L 277.878788 130.778182 
L 279.757576 130.778182 
L 280.69697 129.319004 
L 281.636364 130.778182 
L 282.575758 129.902675 
L 283.515152 128.443497 
L 284.454545 130.778182 
L 285.393939 130.778182 
L 286.333333 130.486346 
L 287.272727 129.902675 
L 290.090909 130.778182 
L 291.030303 130.486346 
L 291.969697 128.735333 
L 292.909091 128.735333 
L 293.848485 129.319004 
L 294.787879 130.778182 
L 295.727273 126.400649 
L 296.666667 130.778182 
L 297.606061 130.486346 
L 298.545455 128.735333 
L 299.484848 128.443497 
L 300.424242 130.778182 
L 301.363636 130.486346 
L 302.30303 127.276155 
L 303.242424 128.735333 
L 304.181818 130.486346 
L 305.121212 129.902675 
L 306.060606 130.778182 
L 307 130.778182 
L 307.939394 130.486346 
L 308.878788 130.778182 
L 309.818182 129.902675 
L 310.757576 130.194511 
L 311.69697 130.778182 
L 314.515152 130.778182 
L 315.454545 129.61084 
L 316.393939 130.486346 
L 317.333333 130.778182 
L 318.272727 130.486346 
L 319.212121 129.319004 
L 320.151515 130.778182 
L 321.090909 130.778182 
L 322.030303 130.194511 
L 322.969697 130.778182 
L 324.848485 130.194511 
L 325.787879 130.778182 
L 326.727273 130.486346 
L 327.666667 130.778182 
L 328.606061 129.902675 
L 329.545455 130.486346 
L 330.484848 130.194511 
L 331.424242 130.778182 
L 333.30303 130.778182 
L 335.181818 130.194511 
L 336.121212 129.027169 
L 337.060606 130.486346 
L 338 130.778182 
L 338.939394 127.859826 
L 339.878788 127.567991 
L 340.818182 130.778182 
L 342.69697 130.778182 
L 344.575758 130.194511 
L 345.515152 130.778182 
L 346.454545 128.443497 
L 347.393939 126.692484 
L 348.333333 130.486346 
L 349.272727 126.400649 
L 350.212121 129.319004 
L 351.151515 130.778182 
L 353.969697 130.778182 
L 354.909091 130.486346 
L 355.848485 130.778182 
L 356.787879 130.778182 
L 357.727273 129.61084 
L 358.666667 123.190457 
L 359.606061 125.525142 
L 360.545455 130.194511 
L 361.484848 127.567991 
L 362.424242 123.190457 
L 363.363636 122.023115 
L 364.30303 122.023115 
L 365.242424 125.525142 
L 366.181818 126.400649 
L 367.121212 127.859826 
L 368.060606 130.778182 
L 369 128.735333 
L 369.939394 130.778182 
L 370.878788 130.778182 
L 371.818182 127.276155 
L 372.757576 130.194511 
L 373.69697 126.98432 
L 374.636364 129.61084 
L 375.575758 128.735333 
L 376.515152 130.486346 
L 377.454545 130.778182 
L 378.393939 129.61084 
L 379.333333 126.400649 
L 380.272727 128.443497 
L 381.212121 128.735333 
L 382.151515 130.486346 
L 383.090909 130.778182 
L 384.030303 130.778182 
L 384.969697 130.194511 
L 385.909091 129.902675 
L 386.848485 129.027169 
L 387.787879 129.027169 
L 388.727273 130.778182 
L 389.666667 130.778182 
L 390.606061 128.151662 
L 391.545455 127.567991 
L 392.484848 130.778182 
L 393.424242 130.194511 
L 394.363636 130.778182 
L 395.30303 129.319004 
L 396.242424 130.194511 
L 397.181818 130.778182 
L 398.121212 130.486346 
L 399.060606 129.902675 
L 400 129.902675 
L 400.939394 126.692484 
L 401.878788 129.902675 
L 402.818182 130.194511 
L 403.757576 128.735333 
L 404.69697 125.816977 
L 405.636364 128.735333 
L 406.575758 129.027169 
L 407.515152 130.486346 
L 408.454545 128.735333 
L 410.333333 122.314951 
L 411.272727 129.319004 
L 412.212121 127.567991 
L 413.151515 130.778182 
L 414.090909 126.108813 
L 415.030303 124.3578 
L 415.969697 129.61084 
L 416.909091 127.567991 
L 417.848485 130.778182 
L 418.787879 130.778182 
L 419.727273 125.816977 
L 420.666667 124.065964 
L 421.606061 130.486346 
L 422.545455 128.443497 
L 423.484848 130.778182 
L 424.424242 130.778182 
L 425.363636 130.486346 
L 426.30303 130.778182 
L 427.242424 130.486346 
L 428.181818 130.778182 
L 429.121212 128.735333 
L 430.060606 127.859826 
L 431 124.3578 
L 431.939394 129.319004 
L 432.878788 130.778182 
L 433.818182 126.98432 
L 434.757576 130.486346 
L 436.636364 128.735333 
L 437.575758 129.319004 
L 438.515152 129.61084 
L 439.454545 130.778182 
L 440.393939 129.319004 
L 441.333333 126.98432 
L 442.272727 130.194511 
L 443.212121 129.027169 
L 444.151515 129.319004 
L 445.090909 130.778182 
L 446.030303 121.147609 
L 446.969697 127.567991 
L 447.909091 124.941471 
L 448.848485 128.735333 
L 449.787879 122.023115 
L 450.727273 130.778182 
L 451.666667 130.486346 
L 452.606061 125.233306 
L 453.545455 124.3578 
L 454.484848 125.233306 
L 455.424242 129.61084 
L 456.363636 130.778182 
L 457.30303 126.400649 
L 458.242424 122.898622 
L 459.181818 122.606786 
L 460.121212 130.778182 
L 461.060606 129.027169 
L 462 130.778182 
L 462.939394 124.3578 
L 463.878788 130.194511 
L 464.818182 130.778182 
L 466.69697 130.778182 
L 467.636364 129.902675 
L 468.575758 130.486346 
L 469.515152 129.319004 
L 470.454545 129.902675 
L 471.393939 129.319004 
L 472.333333 126.400649 
L 473.272727 130.486346 
L 474.212121 122.023115 
L 475.151515 128.735333 
L 476.090909 128.443497 
L 477.030303 124.649635 
L 477.969697 128.151662 
L 478.909091 128.735333 
L 479.848485 130.778182 
L 480.787879 129.902675 
L 481.727273 130.778182 
L 482.666667 129.61084 
L 483.606061 124.941471 
L 484.545455 118.521089 
L 485.484848 126.692484 
L 486.424242 130.486346 
L 487.363636 130.778182 
L 488.30303 129.902675 
L 489.242424 130.194511 
L 490.181818 130.778182 
L 491.121212 130.778182 
L 492.060606 130.486346 
L 493 130.778182 
L 493.939394 130.486346 
L 494.878788 130.778182 
L 495.818182 130.778182 
L 496.757576 130.194511 
L 498.636364 130.778182 
L 499.575758 130.778182 
L 500.515152 130.486346 
L 501.454545 130.486346 
L 502.393939 130.778182 
L 503.333333 130.486346 
L 505.212121 130.486346 
L 506.151515 130.778182 
L 507.090909 130.194511 
L 508.030303 130.486346 
L 508.969697 129.902675 
L 509.909091 129.027169 
L 510.848485 130.194511 
L 511.787879 130.486346 
L 512.727273 130.194511 
L 514.606061 129.027169 
L 515.545455 130.778182 
L 516.484848 130.486346 
L 517.424242 130.778182 
L 518.363636 130.778182 
L 519.30303 129.61084 
L 520.242424 130.778182 
L 521.181818 128.735333 
L 522.121212 130.778182 
L 523.060606 130.778182 
L 524 127.567991 
L 524.939394 130.778182 
L 525.878788 125.525142 
L 526.818182 128.735333 
L 527.757576 122.606786 
L 528.69697 126.108813 
L 529.636364 130.194511 
L 530.575758 130.486346 
L 534.333333 130.486346 
L 535.272727 130.778182 
L 536.212121 130.486346 
L 537.151515 130.486346 
L 538.090909 130.778182 
L 539.969697 130.778182 
L 540.909091 129.319004 
L 541.848485 125.525142 
L 542.787879 130.778182 
L 543.727273 130.194511 
L 544.666667 129.319004 
L 545.606061 127.276155 
L 546.545455 130.778182 
L 547.484848 130.194511 
L 548.424242 130.486346 
L 549.363636 129.319004 
L 550.30303 130.486346 
L 551.242424 130.194511 
L 553.121212 130.778182 
L 554.060606 129.902675 
L 555 129.902675 
L 555.939394 130.486346 
L 556.878788 125.525142 
L 557.818182 130.194511 
L 558.757576 126.692484 
L 559.69697 130.778182 
L 560.636364 129.902675 
L 561.575758 128.443497 
L 562.515152 130.778182 
L 563.454545 130.194511 
L 564.393939 130.486346 
L 565.333333 124.065964 
L 566.272727 129.61084 
L 567.212121 130.778182 
L 568.151515 130.486346 
L 569.090909 127.859826 
L 570.030303 128.151662 
L 570.969697 130.486346 
L 571.909091 127.276155 
L 572.848485 130.778182 
L 573.787879 130.778182 
L 574.727273 129.902675 
L 575.666667 130.778182 
L 576.606061 129.319004 
L 577.545455 130.194511 
L 578.484848 130.778182 
L 579.424242 130.486346 
L 580.363636 130.486346 
L 581.30303 129.027169 
L 582.242424 130.486346 
L 583.181818 130.778182 
L 585.060606 130.778182 
L 586 126.692484 
L 586.939394 123.774129 
L 587.878788 130.778182 
L 588.818182 126.400649 
L 589.757576 130.486346 
L 590.69697 130.778182 
L 591.636364 130.194511 
L 592.575758 130.194511 
L 593.515152 130.778182 
L 594.454545 118.229253 
L 595.393939 129.902675 
L 596.333333 129.027169 
L 597.272727 120.272102 
L 598.212121 128.443497 
L 599.151515 130.486346 
L 600.090909 129.61084 
L 601.030303 130.778182 
L 601.969697 130.194511 
L 602.909091 129.027169 
L 603.848485 130.486346 
L 604.787879 128.443497 
L 605.727273 129.902675 
L 606.666667 130.486346 
L 607.606061 130.194511 
L 608.545455 128.735333 
L 609.484848 130.778182 
L 611.363636 130.778182 
L 612.30303 130.194511 
L 613.242424 130.194511 
L 614.181818 130.778182 
L 615.121212 128.735333 
L 616.060606 130.194511 
L 617 130.778182 
L 617.939394 130.194511 
L 618.878788 128.151662 
L 619.818182 130.778182 
L 621.69697 130.778182 
L 622.636364 130.486346 
L 622.636364 130.486346 
" clip-path="url(#pc36881db11)" style="fill: none; stroke: #ff7f0e; stroke-width: 1.5; stroke-linecap: square"/>
   </g>
   <g id="patch_3">
    <path d="M 90 135.36 
L 90 34.56 
" style="fill: none; stroke: #000000; stroke-width: 0.8; stroke-linejoin: miter; stroke-linecap: square"/>
   </g>
   <g id="patch_4">
    <path d="M 648 135.36 
L 648 34.56 
" style="fill: none; stroke: #000000; stroke-width: 0.8; stroke-linejoin: miter; stroke-linecap: square"/>
   </g>
   <g id="patch_5">
    <path d="M 90 135.36 
L 648 135.36 
" style="fill: none; stroke: #000000; stroke-width: 0.8; stroke-linejoin: miter; stroke-linecap: square"/>
   </g>
   <g id="patch_6">
    <path d="M 90 34.56 
L 648 34.56 
" style="fill: none; stroke: #000000; stroke-width: 0.8; stroke-linejoin: miter; stroke-linecap: square"/>
   </g>
   <g id="legend_1">
    <g id="patch_7">
     <path d="M 97 71.91625 
L 238.8625 71.91625 
Q 240.8625 71.91625 240.8625 69.91625 
L 240.8625 41.56 
Q 240.8625 39.56 238.8625 39.56 
L 97 39.56 
Q 95 39.56 95 41.56 
L 95 69.91625 
Q 95 71.91625 97 71.91625 
z
" style="fill: #ffffff; opacity: 0.8; stroke: #cccccc; stroke-linejoin: miter"/>
    </g>
    <g id="line2d_13">
     <path d="M 99 47.658437 
L 109 47.658437 
L 119 47.658437 
" style="fill: none; stroke: #1f77b4; stroke-width: 1.5; stroke-linecap: square"/>
    </g>
    <g id="text_12">
     <!-- Total GitHub Clones -->
     <g transform="translate(127 51.158437) scale(0.1 -0.1)">
      <defs>
       <path id="DejaVuSans-54" d="M -19 4666 
L 3928 4666 
L 3928 4134 
L 2272 4134 
L 2272 0 
L 1638 0 
L 1638 4134 
L -19 4134 
L -19 4666 
z
" transform="scale(0.015625)"/>
       <path id="DejaVuSans-6f" d="M 1959 3097 
Q 1497 3097 1228 2736 
Q 959 2375 959 1747 
Q 959 1119 1226 758 
Q 1494 397 1959 397 
Q 2419 397 2687 759 
Q 2956 1122 2956 1747 
Q 2956 2369 2687 2733 
Q 2419 3097 1959 3097 
z
M 1959 3584 
Q 2709 3584 3137 3096 
Q 3566 2609 3566 1747 
Q 3566 888 3137 398 
Q 2709 -91 1959 -91 
Q 1206 -91 779 398 
Q 353 888 353 1747 
Q 353 2609 779 3096 
Q 1206 3584 1959 3584 
z
" transform="scale(0.015625)"/>
       <path id="DejaVuSans-6c" d="M 603 4863 
L 1178 4863 
L 1178 0 
L 603 0 
L 603 4863 
z
" transform="scale(0.015625)"/>
       <path id="DejaVuSans-20" transform="scale(0.015625)"/>
       <path id="DejaVuSans-47" d="M 3809 666 
L 3809 1919 
L 2778 1919 
L 2778 2438 
L 4434 2438 
L 4434 434 
Q 4069 175 3628 42 
Q 3188 -91 2688 -91 
Q 1594 -91 976 548 
Q 359 1188 359 2328 
Q 359 3472 976 4111 
Q 1594 4750 2688 4750 
Q 3144 4750 3555 4637 
Q 3966 4525 4313 4306 
L 4313 3634 
Q 3963 3931 3569 4081 
Q 3175 4231 2741 4231 
Q 1884 4231 1454 3753 
Q 1025 3275 1025 2328 
Q 1025 1384 1454 906 
Q 1884 428 2741 428 
Q 3075 428 3337 486 
Q 3600 544 3809 666 
z
" transform="scale(0.015625)"/>
       <path id="DejaVuSans-69" d="M 603 3500 
L 1178 3500 
L 1178 0 
L 603 0 
L 603 3500 
z
M 603 4863 
L 1178 4863 
L 1178 4134 
L 603 4134 
L 603 4863 
z
" transform="scale(0.015625)"/>
       <path id="DejaVuSans-48" d="M 628 4666 
L 1259 4666 
L 1259 2753 
L 3553 2753 
L 3553 4666 
L 4184 4666 
L 4184 0 
L 3553 0 
L 3553 2222 
L 1259 2222 
L 1259 0 
L 628 0 
L 628 4666 
z
" transform="scale(0.015625)"/>
       <path id="DejaVuSans-75" d="M 544 1381 
L 544 3500 
L 1119 3500 
L 1119 1403 
Q 1119 906 1312 657 
Q 1506 409 1894 409 
Q 2359 409 2629 706 
Q 2900 1003 2900 1516 
L 2900 3500 
L 3475 3500 
L 3475 0 
L 2900 0 
L 2900 538 
Q 2691 219 2414 64 
Q 2138 -91 1772 -91 
Q 1169 -91 856 284 
Q 544 659 544 1381 
z
M 1991 3584 
L 1991 3584 
z
" transform="scale(0.015625)"/>
       <path id="DejaVuSans-62" d="M 3116 1747 
Q 3116 2381 2855 2742 
Q 2594 3103 2138 3103 
Q 1681 3103 1420 2742 
Q 1159 2381 1159 1747 
Q 1159 1113 1420 752 
Q 1681 391 2138 391 
Q 2594 391 2855 752 
Q 3116 1113 3116 1747 
z
M 1159 2969 
Q 1341 3281 1617 3432 
Q 1894 3584 2278 3584 
Q 2916 3584 3314 3078 
Q 3713 2572 3713 1747 
Q 3713 922 3314 415 
Q 2916 -91 2278 -91 
Q 1894 -91 1617 61 
Q 1341 213 1159 525 
L 1159 0 
L 581 0 
L 581 4863 
L 1159 4863 
L 1159 2969 
z
" transform="scale(0.015625)"/>
       <path id="DejaVuSans-43" d="M 4122 4306 
L 4122 3641 
Q 3803 3938 3442 4084 
Q 3081 4231 2675 4231 
Q 1875 4231 1450 3742 
Q 1025 3253 1025 2328 
Q 1025 1406 1450 917 
Q 1875 428 2675 428 
Q 3081 428 3442 575 
Q 3803 722 4122 1019 
L 4122 359 
Q 3791 134 3420 21 
Q 3050 -91 2638 -91 
Q 1578 -91 968 557 
Q 359 1206 359 2328 
Q 359 3453 968 4101 
Q 1578 4750 2638 4750 
Q 3056 4750 3426 4639 
Q 3797 4528 4122 4306 
z
" transform="scale(0.015625)"/>
       <path id="DejaVuSans-6e" d="M 3513 2113 
L 3513 0 
L 2938 0 
L 2938 2094 
Q 2938 2591 2744 2837 
Q 2550 3084 2163 3084 
Q 1697 3084 1428 2787 
Q 1159 2491 1159 1978 
L 1159 0 
L 581 0 
L 581 3500 
L 1159 3500 
L 1159 2956 
Q 1366 3272 1645 3428 
Q 1925 3584 2291 3584 
Q 2894 3584 3203 3211 
Q 3513 2838 3513 2113 
z
" transform="scale(0.015625)"/>
       <path id="DejaVuSans-73" d="M 2834 3397 
L 2834 2853 
Q 2591 2978 2328 3040 
Q 2066 3103 1784 3103 
Q 1356 3103 1142 2972 
Q 928 2841 928 2578 
Q 928 2378 1081 2264 
Q 1234 2150 1697 2047 
L 1894 2003 
Q 2506 1872 2764 1633 
Q 3022 1394 3022 966 
Q 3022 478 2636 193 
Q 2250 -91 1575 -91 
Q 1294 -91 989 -36 
Q 684 19 347 128 
L 347 722 
Q 666 556 975 473 
Q 1284 391 1588 391 
Q 1994 391 2212 530 
Q 2431 669 2431 922 
Q 2431 1156 2273 1281 
Q 2116 1406 1581 1522 
L 1381 1569 
Q 847 1681 609 1914 
Q 372 2147 372 2553 
Q 372 3047 722 3315 
Q 1072 3584 1716 3584 
Q 2034 3584 2315 3537 
Q 2597 3491 2834 3397 
z
" transform="scale(0.015625)"/>
      </defs>
      <use xlink:href="#DejaVuSans-54"/>
      <use xlink:href="#DejaVuSans-6f" x="44.083984"/>
      <use xlink:href="#DejaVuSans-74" x="105.265625"/>
      <use xlink:href="#DejaVuSans-61" x="144.474609"/>
      <use xlink:href="#DejaVuSans-6c" x="205.753906"/>
      <use xlink:href="#DejaVuSans-20" x="233.537109"/>
      <use xlink:href="#DejaVuSans-47" x="265.324219"/>
      <use xlink:href="#DejaVuSans-69" x="342.814453"/>
      <use xlink:href="#DejaVuSans-74" x="370.597656"/>
      <use xlink:href="#DejaVuSans-48" x="409.806641"/>
      <use xlink:href="#DejaVuSans-75" x="485.001953"/>
      <use xlink:href="#DejaVuSans-62" x="548.380859"/>
      <use xlink:href="#DejaVuSans-20" x="611.857422"/>
      <use xlink:href="#DejaVuSans-43" x="643.644531"/>
      <use xlink:href="#DejaVuSans-6c" x="713.46875"/>
      <use xlink:href="#DejaVuSans-6f" x="741.251953"/>
      <use xlink:href="#DejaVuSans-6e" x="802.433594"/>
      <use xlink:href="#DejaVuSans-65" x="865.8125"/>
      <use xlink:href="#DejaVuSans-73" x="927.335938"/>
     </g>
    </g>
    <g id="line2d_14">
     <path d="M 99 62.336562 
L 109 62.336562 
L 119 62.336562 
" style="fill: none; stroke: #ff7f0e; stroke-width: 1.5; stroke-linecap: square"/>
    </g>
    <g id="text_13">
     <!-- Unique GitHub Clones -->
     <g transform="translate(127 65.836562) scale(0.1 -0.1)">
      <defs>
       <path id="DejaVuSans-55" d="M 556 4666 
L 1191 4666 
L 1191 1831 
Q 1191 1081 1462 751 
Q 1734 422 2344 422 
Q 2950 422 3222 751 
Q 3494 1081 3494 1831 
L 3494 4666 
L 4128 4666 
L 4128 1753 
Q 4128 841 3676 375 
Q 3225 -91 2344 -91 
Q 1459 -91 1007 375 
Q 556 841 556 1753 
L 556 4666 
z
" transform="scale(0.015625)"/>
       <path id="DejaVuSans-71" d="M 947 1747 
Q 947 1113 1208 752 
Q 1469 391 1925 391 
Q 2381 391 2643 752 
Q 2906 1113 2906 1747 
Q 2906 2381 2643 2742 
Q 2381 3103 1925 3103 
Q 1469 3103 1208 2742 
Q 947 2381 947 1747 
z
M 2906 525 
Q 2725 213 2448 61 
Q 2172 -91 1784 -91 
Q 1150 -91 751 415 
Q 353 922 353 1747 
Q 353 2572 751 3078 
Q 1150 3584 1784 3584 
Q 2172 3584 2448 3432 
Q 2725 3281 2906 2969 
L 2906 3500 
L 3481 3500 
L 3481 -1331 
L 2906 -1331 
L 2906 525 
z
" transform="scale(0.015625)"/>
      </defs>
      <use xlink:href="#DejaVuSans-55"/>
      <use xlink:href="#DejaVuSans-6e" x="73.193359"/>
      <use xlink:href="#DejaVuSans-69" x="136.572266"/>
      <use xlink:href="#DejaVuSans-71" x="164.355469"/>
      <use xlink:href="#DejaVuSans-75" x="227.832031"/>
      <use xlink:href="#DejaVuSans-65" x="291.210938"/>
      <use xlink:href="#DejaVuSans-20" x="352.734375"/>
      <use xlink:href="#DejaVuSans-47" x="384.521484"/>
      <use xlink:href="#DejaVuSans-69" x="462.011719"/>
      <use xlink:href="#DejaVuSans-74" x="489.794922"/>
      <use xlink:href="#DejaVuSans-48" x="529.003906"/>
      <use xlink:href="#DejaVuSans-75" x="604.199219"/>
      <use xlink:href="#DejaVuSans-62" x="667.578125"/>
      <use xlink:href="#DejaVuSans-20" x="731.054688"/>
      <use xlink:href="#DejaVuSans-43" x="762.841797"/>
      <use xlink:href="#DejaVuSans-6c" x="832.666016"/>
      <use xlink:href="#DejaVuSans-6f" x="860.449219"/>
      <use xlink:href="#DejaVuSans-6e" x="921.630859"/>
      <use xlink:href="#DejaVuSans-65" x="985.009766"/>
      <use xlink:href="#DejaVuSans-73" x="1046.533203"/>
     </g>
    </g>
   </g>
  </g>
  <g id="axes_2">
   <g id="patch_8">
    <path d="M 90 256.32 
L 648 256.32 
L 648 155.52 
L 90 155.52 
z
" style="fill: #ffffff"/>
   </g>
   <g id="matplotlib.axis_3">
    <g id="xtick_7">
     <g id="line2d_15">
      <g>
       <use xlink:href="#mbfbb12370c" x="115.363636" y="256.32" style="stroke: #000000; stroke-width: 0.8"/>
      </g>
     </g>
     <g id="text_14">
      <!-- 2020-10-21 -->
      <g transform="translate(86.305824 270.918437) scale(0.1 -0.1)">
       <use xlink:href="#DejaVuSans-32"/>
       <use xlink:href="#DejaVuSans-30" x="63.623047"/>
       <use xlink:href="#DejaVuSans-32" x="127.246094"/>
       <use xlink:href="#DejaVuSans-30" x="190.869141"/>
       <use xlink:href="#DejaVuSans-2d" x="254.492188"/>
       <use xlink:href="#DejaVuSans-31" x="290.576172"/>
       <use xlink:href="#DejaVuSans-30" x="354.199219"/>
       <use xlink:href="#DejaVuSans-2d" x="417.822266"/>
       <use xlink:href="#DejaVuSans-32" x="453.90625"/>
       <use xlink:href="#DejaVuSans-31" x="517.529297"/>
      </g>
     </g>
    </g>
    <g id="xtick_8">
     <g id="line2d_16">
      <g>
       <use xlink:href="#mbfbb12370c" x="187.521919" y="256.32" style="stroke: #000000; stroke-width: 0.8"/>
      </g>
     </g>
     <g id="text_15">
      <!-- 2021-01-31 -->
      <g transform="translate(158.464107 270.918437) scale(0.1 -0.1)">
       <use xlink:href="#DejaVuSans-32"/>
       <use xlink:href="#DejaVuSans-30" x="63.623047"/>
       <use xlink:href="#DejaVuSans-32" x="127.246094"/>
       <use xlink:href="#DejaVuSans-31" x="190.869141"/>
       <use xlink:href="#DejaVuSans-2d" x="254.492188"/>
       <use xlink:href="#DejaVuSans-30" x="290.576172"/>
       <use xlink:href="#DejaVuSans-31" x="354.199219"/>
       <use xlink:href="#DejaVuSans-2d" x="417.822266"/>
       <use xlink:href="#DejaVuSans-33" x="453.90625"/>
       <use xlink:href="#DejaVuSans-31" x="517.529297"/>
      </g>
     </g>
    </g>
    <g id="xtick_9">
     <g id="line2d_17">
      <g>
       <use xlink:href="#mbfbb12370c" x="259.680202" y="256.32" style="stroke: #000000; stroke-width: 0.8"/>
      </g>
     </g>
     <g id="text_16">
      <!-- 2021-05-11 -->
      <g transform="translate(230.622389 270.918437) scale(0.1 -0.1)">
       <defs>
        <path id="DejaVuSans-35" d="M 691 4666 
L 3169 4666 
L 3169 4134 
L 1269 4134 
L 1269 2991 
Q 1406 3038 1543 3061 
Q 1681 3084 1819 3084 
Q 2600 3084 3056 2656 
Q 3513 2228 3513 1497 
Q 3513 744 3044 326 
Q 2575 -91 1722 -91 
Q 1428 -91 1123 -41 
Q 819 9 494 109 
L 494 744 
Q 775 591 1075 516 
Q 1375 441 1709 441 
Q 2250 441 2565 725 
Q 2881 1009 2881 1497 
Q 2881 1984 2565 2268 
Q 2250 2553 1709 2553 
Q 1456 2553 1204 2497 
Q 953 2441 691 2322 
L 691 4666 
z
" transform="scale(0.015625)"/>
       </defs>
       <use xlink:href="#DejaVuSans-32"/>
       <use xlink:href="#DejaVuSans-30" x="63.623047"/>
       <use xlink:href="#DejaVuSans-32" x="127.246094"/>
       <use xlink:href="#DejaVuSans-31" x="190.869141"/>
       <use xlink:href="#DejaVuSans-2d" x="254.492188"/>
       <use xlink:href="#DejaVuSans-30" x="290.576172"/>
       <use xlink:href="#DejaVuSans-35" x="354.199219"/>
       <use xlink:href="#DejaVuSans-2d" x="417.822266"/>
       <use xlink:href="#DejaVuSans-31" x="453.90625"/>
       <use xlink:href="#DejaVuSans-31" x="517.529297"/>
      </g>
     </g>
    </g>
    <g id="xtick_10">
     <g id="line2d_18">
      <g>
       <use xlink:href="#mbfbb12370c" x="331.838484" y="256.32" style="stroke: #000000; stroke-width: 0.8"/>
      </g>
     </g>
     <g id="text_17">
      <!-- 2021-08-19 -->
      <g transform="translate(302.780672 270.918437) scale(0.1 -0.1)">
       <defs>
        <path id="DejaVuSans-39" d="M 703 97 
L 703 672 
Q 941 559 1184 500 
Q 1428 441 1663 441 
Q 2288 441 2617 861 
Q 2947 1281 2994 2138 
Q 2813 1869 2534 1725 
Q 2256 1581 1919 1581 
Q 1219 1581 811 2004 
Q 403 2428 403 3163 
Q 403 3881 828 4315 
Q 1253 4750 1959 4750 
Q 2769 4750 3195 4129 
Q 3622 3509 3622 2328 
Q 3622 1225 3098 567 
Q 2575 -91 1691 -91 
Q 1453 -91 1209 -44 
Q 966 3 703 97 
z
M 1959 2075 
Q 2384 2075 2632 2365 
Q 2881 2656 2881 3163 
Q 2881 3666 2632 3958 
Q 2384 4250 1959 4250 
Q 1534 4250 1286 3958 
Q 1038 3666 1038 3163 
Q 1038 2656 1286 2365 
Q 1534 2075 1959 2075 
z
" transform="scale(0.015625)"/>
       </defs>
       <use xlink:href="#DejaVuSans-32"/>
       <use xlink:href="#DejaVuSans-30" x="63.623047"/>
       <use xlink:href="#DejaVuSans-32" x="127.246094"/>
       <use xlink:href="#DejaVuSans-31" x="190.869141"/>
       <use xlink:href="#DejaVuSans-2d" x="254.492188"/>
       <use xlink:href="#DejaVuSans-30" x="290.576172"/>
       <use xlink:href="#DejaVuSans-38" x="354.199219"/>
       <use xlink:href="#DejaVuSans-2d" x="417.822266"/>
       <use xlink:href="#DejaVuSans-31" x="453.90625"/>
       <use xlink:href="#DejaVuSans-39" x="517.529297"/>
      </g>
     </g>
    </g>
    <g id="xtick_11">
     <g id="line2d_19">
      <g>
       <use xlink:href="#mbfbb12370c" x="403.996767" y="256.32" style="stroke: #000000; stroke-width: 0.8"/>
      </g>
     </g>
     <g id="text_18">
      <!-- 2021-11-28 -->
      <g transform="translate(374.938955 270.918437) scale(0.1 -0.1)">
       <use xlink:href="#DejaVuSans-32"/>
       <use xlink:href="#DejaVuSans-30" x="63.623047"/>
       <use xlink:href="#DejaVuSans-32" x="127.246094"/>
       <use xlink:href="#DejaVuSans-31" x="190.869141"/>
       <use xlink:href="#DejaVuSans-2d" x="254.492188"/>
       <use xlink:href="#DejaVuSans-31" x="290.576172"/>
       <use xlink:href="#DejaVuSans-31" x="354.199219"/>
       <use xlink:href="#DejaVuSans-2d" x="417.822266"/>
       <use xlink:href="#DejaVuSans-32" x="453.90625"/>
       <use xlink:href="#DejaVuSans-38" x="517.529297"/>
      </g>
     </g>
    </g>
    <g id="xtick_12">
     <g id="line2d_20">
      <g>
       <use xlink:href="#mbfbb12370c" x="476.15505" y="256.32" style="stroke: #000000; stroke-width: 0.8"/>
      </g>
     </g>
     <g id="text_19">
      <!-- 2022-03-10 -->
      <g transform="translate(447.097237 270.918437) scale(0.1 -0.1)">
       <use xlink:href="#DejaVuSans-32"/>
       <use xlink:href="#DejaVuSans-30" x="63.623047"/>
       <use xlink:href="#DejaVuSans-32" x="127.246094"/>
       <use xlink:href="#DejaVuSans-32" x="190.869141"/>
       <use xlink:href="#DejaVuSans-2d" x="254.492188"/>
       <use xlink:href="#DejaVuSans-30" x="290.576172"/>
       <use xlink:href="#DejaVuSans-33" x="354.199219"/>
       <use xlink:href="#DejaVuSans-2d" x="417.822266"/>
       <use xlink:href="#DejaVuSans-31" x="453.90625"/>
       <use xlink:href="#DejaVuSans-30" x="517.529297"/>
      </g>
     </g>
    </g>
    <g id="xtick_13">
     <g id="line2d_21">
      <g>
       <use xlink:href="#mbfbb12370c" x="548.313332" y="256.32" style="stroke: #000000; stroke-width: 0.8"/>
      </g>
     </g>
     <g id="text_20">
      <!-- 2022-06-19 -->
      <g transform="translate(519.25552 270.918437) scale(0.1 -0.1)">
       <defs>
        <path id="DejaVuSans-36" d="M 2113 2584 
Q 1688 2584 1439 2293 
Q 1191 2003 1191 1497 
Q 1191 994 1439 701 
Q 1688 409 2113 409 
Q 2538 409 2786 701 
Q 3034 994 3034 1497 
Q 3034 2003 2786 2293 
Q 2538 2584 2113 2584 
z
M 3366 4563 
L 3366 3988 
Q 3128 4100 2886 4159 
Q 2644 4219 2406 4219 
Q 1781 4219 1451 3797 
Q 1122 3375 1075 2522 
Q 1259 2794 1537 2939 
Q 1816 3084 2150 3084 
Q 2853 3084 3261 2657 
Q 3669 2231 3669 1497 
Q 3669 778 3244 343 
Q 2819 -91 2113 -91 
Q 1303 -91 875 529 
Q 447 1150 447 2328 
Q 447 3434 972 4092 
Q 1497 4750 2381 4750 
Q 2619 4750 2861 4703 
Q 3103 4656 3366 4563 
z
" transform="scale(0.015625)"/>
       </defs>
       <use xlink:href="#DejaVuSans-32"/>
       <use xlink:href="#DejaVuSans-30" x="63.623047"/>
       <use xlink:href="#DejaVuSans-32" x="127.246094"/>
       <use xlink:href="#DejaVuSans-32" x="190.869141"/>
       <use xlink:href="#DejaVuSans-2d" x="254.492188"/>
       <use xlink:href="#DejaVuSans-30" x="290.576172"/>
       <use xlink:href="#DejaVuSans-36" x="354.199219"/>
       <use xlink:href="#DejaVuSans-2d" x="417.822266"/>
       <use xlink:href="#DejaVuSans-31" x="453.90625"/>
       <use xlink:href="#DejaVuSans-39" x="517.529297"/>
      </g>
     </g>
    </g>
    <g id="xtick_14">
     <g id="line2d_22">
      <g>
       <use xlink:href="#mbfbb12370c" x="620.471615" y="256.32" style="stroke: #000000; stroke-width: 0.8"/>
      </g>
     </g>
     <g id="text_21">
      <!-- 2022-09-29 -->
      <g transform="translate(591.413803 270.918437) scale(0.1 -0.1)">
       <use xlink:href="#DejaVuSans-32"/>
       <use xlink:href="#DejaVuSans-30" x="63.623047"/>
       <use xlink:href="#DejaVuSans-32" x="127.246094"/>
       <use xlink:href="#DejaVuSans-32" x="190.869141"/>
       <use xlink:href="#DejaVuSans-2d" x="254.492188"/>
       <use xlink:href="#DejaVuSans-30" x="290.576172"/>
       <use xlink:href="#DejaVuSans-39" x="354.199219"/>
       <use xlink:href="#DejaVuSans-2d" x="417.822266"/>
       <use xlink:href="#DejaVuSans-32" x="453.90625"/>
       <use xlink:href="#DejaVuSans-39" x="517.529297"/>
      </g>
     </g>
    </g>
    <g id="text_22">
     <!-- _date -->
     <g transform="translate(355.225 284.596563) scale(0.1 -0.1)">
      <use xlink:href="#DejaVuSans-5f"/>
      <use xlink:href="#DejaVuSans-64" x="50"/>
      <use xlink:href="#DejaVuSans-61" x="113.476562"/>
      <use xlink:href="#DejaVuSans-74" x="174.755859"/>
      <use xlink:href="#DejaVuSans-65" x="213.964844"/>
     </g>
    </g>
   </g>
   <g id="matplotlib.axis_4">
    <g id="ytick_5">
     <g id="line2d_23">
      <g>
       <use xlink:href="#m341c9d55f0" x="90" y="252.006124" style="stroke: #000000; stroke-width: 0.8"/>
      </g>
     </g>
     <g id="text_23">
      <!-- 0 -->
      <g transform="translate(76.6375 255.805343) scale(0.1 -0.1)">
       <use xlink:href="#DejaVuSans-30"/>
      </g>
     </g>
    </g>
    <g id="ytick_6">
     <g id="line2d_24">
      <g>
       <use xlink:href="#m341c9d55f0" x="90" y="225.211866" style="stroke: #000000; stroke-width: 0.8"/>
      </g>
     </g>
     <g id="text_24">
      <!-- 100 -->
      <g transform="translate(63.9125 229.011085) scale(0.1 -0.1)">
       <use xlink:href="#DejaVuSans-31"/>
       <use xlink:href="#DejaVuSans-30" x="63.623047"/>
       <use xlink:href="#DejaVuSans-30" x="127.246094"/>
      </g>
     </g>
    </g>
    <g id="ytick_7">
     <g id="line2d_25">
      <g>
       <use xlink:href="#m341c9d55f0" x="90" y="198.417608" style="stroke: #000000; stroke-width: 0.8"/>
      </g>
     </g>
     <g id="text_25">
      <!-- 200 -->
      <g transform="translate(63.9125 202.216826) scale(0.1 -0.1)">
       <use xlink:href="#DejaVuSans-32"/>
       <use xlink:href="#DejaVuSans-30" x="63.623047"/>
       <use xlink:href="#DejaVuSans-30" x="127.246094"/>
      </g>
     </g>
    </g>
    <g id="ytick_8">
     <g id="line2d_26">
      <g>
       <use xlink:href="#m341c9d55f0" x="90" y="171.623349" style="stroke: #000000; stroke-width: 0.8"/>
      </g>
     </g>
     <g id="text_26">
      <!-- 300 -->
      <g transform="translate(63.9125 175.422568) scale(0.1 -0.1)">
       <use xlink:href="#DejaVuSans-33"/>
       <use xlink:href="#DejaVuSans-30" x="63.623047"/>
       <use xlink:href="#DejaVuSans-30" x="127.246094"/>
      </g>
     </g>
    </g>
   </g>
   <g id="line2d_27">
    <path d="M 115.363636 251.738182 
L 116.085219 231.910431 
L 116.806802 229.498947 
L 117.528385 244.771675 
L 118.249968 251.470239 
L 118.97155 239.412823 
L 119.693133 239.14488 
L 120.414716 235.393684 
L 121.136299 239.14488 
L 121.857882 239.948708 
L 122.579465 250.666411 
L 123.301047 248.522871 
L 124.02263 247.719043 
L 124.744213 239.948708 
L 125.465796 213.690335 
L 126.187379 227.355407 
L 126.908962 244.235789 
L 127.630544 247.4511 
L 128.352127 251.202297 
L 129.795293 225.747751 
L 130.516876 246.111388 
L 131.238459 243.699904 
L 131.960041 237.537225 
L 132.681624 237.537225 
L 133.403207 249.862584 
L 134.12479 237.805167 
L 134.846373 234.321914 
L 135.567956 243.967847 
L 136.289538 243.967847 
L 137.011121 239.412823 
L 137.732704 247.183158 
L 138.454287 249.326699 
L 139.17587 227.623349 
L 139.897452 249.058756 
L 140.619035 248.254928 
L 141.340618 249.862584 
L 142.062201 247.986986 
L 142.783784 251.470239 
L 143.505367 251.470239 
L 144.226949 229.231005 
L 144.948532 217.173589 
L 145.670115 244.235789 
L 146.391698 245.575502 
L 147.113281 227.891292 
L 147.834864 250.934354 
L 148.556446 245.30756 
L 149.278029 242.092249 
L 149.999612 246.37933 
L 150.721195 237.00134 
L 151.442778 247.183158 
L 152.164361 250.934354 
L 152.885943 251.738182 
L 153.607526 244.235789 
L 154.329109 242.628134 
L 155.050692 242.896077 
L 155.772275 241.556364 
L 156.493857 249.058756 
L 157.21544 250.934354 
L 157.937023 250.666411 
L 158.658606 247.4511 
L 159.380189 247.986986 
L 160.101772 243.164019 
L 160.823354 250.130526 
L 161.544937 251.202297 
L 162.26652 251.470239 
L 162.988103 248.522871 
L 163.709686 249.594641 
L 164.431269 250.398469 
L 165.152851 251.738182 
L 165.874434 247.4511 
L 166.596017 247.719043 
L 167.3176 250.934354 
L 168.039183 246.647273 
L 168.760766 243.164019 
L 169.482348 240.752536 
L 170.203931 247.986986 
L 170.925514 249.058756 
L 171.647097 233.518086 
L 172.36868 250.398469 
L 173.090263 235.125742 
L 173.811845 236.733397 
L 174.533428 240.752536 
L 175.255011 234.589856 
L 175.976594 247.183158 
L 176.698177 235.929569 
L 177.419759 251.202297 
L 178.141342 234.857799 
L 178.862925 236.197512 
L 179.584508 228.159234 
L 180.306091 233.786029 
L 181.027674 240.752536 
L 181.749256 243.431962 
L 182.470839 248.522871 
L 183.192422 230.302775 
L 183.914005 226.015694 
L 184.635588 237.269282 
L 185.357171 235.929569 
L 186.078753 233.518086 
L 186.800336 247.719043 
L 187.521919 248.790813 
L 188.243502 231.374545 
L 188.965085 247.183158 
L 190.40825 234.321914 
L 191.851416 250.934354 
L 192.572999 247.986986 
L 193.294582 236.465455 
L 194.016164 235.929569 
L 194.737747 226.819522 
L 195.45933 242.628134 
L 196.180913 250.398469 
L 196.902496 250.666411 
L 197.624079 249.326699 
L 198.345661 243.164019 
L 199.067244 243.431962 
L 199.788827 247.183158 
L 200.51041 232.178373 
L 201.231993 248.522871 
L 201.953576 242.628134 
L 202.675158 239.948708 
L 203.396741 241.556364 
L 204.118324 227.087464 
L 204.839907 236.733397 
L 205.56149 235.929569 
L 206.283073 240.752536 
L 207.004655 239.14488 
L 207.726238 240.216651 
L 208.447821 187.431962 
L 209.169404 246.111388 
L 209.890987 232.178373 
L 210.61257 235.661627 
L 211.334152 228.427177 
L 212.055735 242.360191 
L 212.777318 202.972632 
L 213.498901 201.364976 
L 214.220484 206.99177 
L 214.942066 230.570718 
L 215.663649 178.321914 
L 216.385232 225.211866 
L 217.106815 246.37933 
L 217.828398 245.575502 
L 218.549981 238.341053 
L 219.271563 232.446316 
L 219.993146 229.231005 
L 220.714729 235.661627 
L 221.436312 225.479809 
L 222.157895 244.235789 
L 222.879478 246.111388 
L 223.60106 208.063541 
L 224.322643 233.786029 
L 225.044226 235.393684 
L 225.765809 246.647273 
L 226.487392 248.790813 
L 227.208975 248.254928 
L 227.930557 234.053971 
L 228.65214 187.967847 
L 229.373723 231.106603 
L 230.095306 235.393684 
L 230.816889 216.369761 
L 231.538471 244.771675 
L 232.260054 248.522871 
L 232.981637 245.30756 
L 233.70322 223.604211 
L 234.424803 239.412823 
L 235.146386 224.943923 
L 235.867968 203.240574 
L 236.589551 234.857799 
L 237.311134 241.824306 
L 238.032717 246.37933 
L 238.7543 180.465455 
L 239.475883 228.963062 
L 240.197465 243.967847 
L 240.919048 236.197512 
L 241.640631 237.537225 
L 242.362214 249.058756 
L 243.083797 247.183158 
L 243.80538 191.183158 
L 244.526962 184.752536 
L 245.248545 201.364976 
L 245.970128 243.431962 
L 246.691711 249.326699 
L 247.413294 237.537225 
L 248.134877 247.719043 
L 249.578042 226.015694 
L 250.299625 167.336268 
L 251.021208 223.872153 
L 251.742791 223.068325 
L 252.464373 227.623349 
L 253.185956 245.843445 
L 253.907539 246.647273 
L 254.629122 221.996555 
L 255.350705 237.00134 
L 256.072288 236.733397 
L 256.79387 227.891292 
L 257.515453 243.699904 
L 258.237036 249.326699 
L 258.958619 201.097033 
L 259.680202 238.07311 
L 260.401785 215.030048 
L 261.123367 209.135311 
L 261.84495 215.565933 
L 262.566533 249.862584 
L 263.288116 249.862584 
L 264.009699 224.140096 
L 264.731282 234.053971 
L 265.452864 233.518086 
L 266.174447 239.680766 
L 266.89603 243.164019 
L 267.617613 248.522871 
L 268.339196 246.37933 
L 269.060778 227.355407 
L 269.782361 244.503732 
L 270.503944 241.020478 
L 271.225527 233.250144 
L 271.94711 239.412823 
L 272.668693 249.862584 
L 273.390275 249.862584 
L 274.111858 243.431962 
L 274.833441 240.752536 
L 275.555024 246.647273 
L 276.276607 241.824306 
L 276.99819 243.967847 
L 277.719772 249.326699 
L 278.441355 247.719043 
L 279.162938 232.178373 
L 279.884521 237.269282 
L 280.606104 172.69512 
L 281.327687 215.833876 
L 282.049269 244.503732 
L 282.770852 242.628134 
L 283.492435 250.130526 
L 284.214018 233.250144 
L 284.935601 235.125742 
L 285.657183 242.360191 
L 286.378766 241.556364 
L 287.100349 236.465455 
L 287.821932 249.862584 
L 288.543515 250.398469 
L 289.265098 196.274067 
L 289.98668 239.948708 
L 290.708263 245.30756 
L 291.429846 247.4511 
L 292.151429 204.312344 
L 292.873012 247.4511 
L 293.594595 248.254928 
L 295.03776 242.360191 
L 295.759343 242.628134 
L 296.480926 225.479809 
L 297.202509 244.771675 
L 297.924092 249.862584 
L 298.645674 243.967847 
L 299.367257 245.575502 
L 300.08884 183.948708 
L 300.810423 200.293206 
L 301.532006 241.020478 
L 302.975171 245.039617 
L 303.696754 244.503732 
L 304.418337 232.714258 
L 305.13992 242.628134 
L 305.861503 243.699904 
L 306.583085 223.872153 
L 307.304668 239.948708 
L 308.026251 250.398469 
L 308.747834 251.738182 
L 309.469417 245.039617 
L 310.191 245.575502 
L 310.912582 246.915215 
L 311.634165 243.967847 
L 312.355748 246.37933 
L 313.077331 249.594641 
L 313.798914 251.202297 
L 314.520497 243.967847 
L 315.242079 243.699904 
L 315.963662 231.910431 
L 316.685245 230.302775 
L 317.406828 250.666411 
L 318.128411 246.37933 
L 318.849994 251.738182 
L 319.571576 239.680766 
L 320.293159 240.752536 
L 321.014742 243.164019 
L 321.736325 240.484593 
L 322.457908 248.522871 
L 323.17949 245.843445 
L 323.901073 250.130526 
L 324.622656 237.537225 
L 325.344239 239.412823 
L 326.065822 244.235789 
L 326.787405 241.288421 
L 327.508987 232.446316 
L 328.23057 242.360191 
L 328.952153 248.522871 
L 329.673736 233.518086 
L 330.395319 250.398469 
L 331.116902 246.111388 
L 331.838484 244.503732 
L 332.560067 251.202297 
L 333.28165 250.934354 
L 334.003233 245.039617 
L 334.724816 245.575502 
L 335.446399 233.250144 
L 336.167981 231.642488 
L 336.889564 249.058756 
L 337.611147 249.862584 
L 338.33273 250.398469 
L 339.054313 242.628134 
L 339.775896 228.159234 
L 340.497478 236.465455 
L 341.219061 236.197512 
L 341.940644 245.30756 
L 342.662227 249.862584 
L 343.38381 245.843445 
L 344.105392 246.647273 
L 344.826975 249.862584 
L 345.548558 237.269282 
L 346.270141 247.719043 
L 346.991724 242.628134 
L 347.713307 226.015694 
L 348.434889 250.934354 
L 349.156472 248.254928 
L 349.878055 233.786029 
L 350.599638 216.905646 
L 351.321221 236.733397 
L 352.042804 248.254928 
L 352.764386 247.719043 
L 353.485969 250.398469 
L 354.207552 246.647273 
L 354.929135 232.178373 
L 355.650718 230.570718 
L 356.372301 221.46067 
L 357.093883 233.786029 
L 357.815466 248.522871 
L 358.537049 251.470239 
L 359.258632 248.522871 
L 359.980215 249.862584 
L 360.701797 239.948708 
L 361.42338 189.575502 
L 362.144963 229.498947 
L 362.866546 242.628134 
L 363.588129 241.020478 
L 364.309712 230.83866 
L 365.031294 230.83866 
L 365.752877 220.924785 
L 366.47446 198.417608 
L 367.196043 217.441531 
L 367.917626 246.37933 
L 368.639209 250.666411 
L 369.360791 224.675981 
L 370.082374 228.159234 
L 370.803957 212.618565 
L 371.52554 240.216651 
L 372.247123 236.197512 
L 372.968706 246.111388 
L 373.690288 248.254928 
L 374.411871 215.565933 
L 375.133454 238.608995 
L 375.855037 249.594641 
L 376.57662 223.604211 
L 377.298203 164.924785 
L 378.019785 240.484593 
L 378.741368 235.929569 
L 379.462951 227.891292 
L 380.184534 228.963062 
L 380.906117 242.896077 
L 381.627699 232.446316 
L 382.349282 238.876938 
L 383.070865 246.915215 
L 383.792448 245.843445 
L 384.514031 235.929569 
L 385.235614 249.058756 
L 385.957196 243.431962 
L 386.678779 229.498947 
L 388.121945 250.934354 
L 388.843528 250.130526 
L 389.565111 245.039617 
L 390.286693 231.642488 
L 391.008276 240.752536 
L 391.729859 247.183158 
L 392.451442 247.986986 
L 393.173025 247.986986 
L 393.894608 248.790813 
L 394.61619 239.412823 
L 395.337773 235.661627 
L 396.059356 243.967847 
L 397.502522 237.537225 
L 398.224104 250.130526 
L 398.945687 249.862584 
L 399.66727 234.589856 
L 400.388853 232.982201 
L 401.110436 245.575502 
L 402.553601 250.934354 
L 403.275184 248.522871 
L 403.996767 247.719043 
L 404.71835 244.503732 
L 405.439933 228.69512 
L 406.161516 238.341053 
L 406.883098 238.876938 
L 407.604681 226.819522 
L 408.326264 249.862584 
L 409.047847 228.159234 
L 409.76943 237.269282 
L 410.491013 202.972632 
L 411.212595 239.948708 
L 411.934178 221.996555 
L 412.655761 247.4511 
L 413.377344 248.254928 
L 414.098927 230.034833 
L 414.82051 208.599426 
L 415.542092 234.589856 
L 416.263675 237.269282 
L 416.985258 243.431962 
L 417.706841 233.250144 
L 418.428424 249.058756 
L 419.150006 217.173589 
L 419.871589 235.929569 
L 420.593172 239.948708 
L 421.314755 242.628134 
L 422.036338 242.896077 
L 422.757921 246.915215 
L 423.479503 249.058756 
L 424.201086 245.843445 
L 424.922669 248.790813 
L 425.644252 250.934354 
L 426.365835 249.594641 
L 427.087418 249.326699 
L 427.809 246.915215 
L 428.530583 217.709474 
L 429.973749 242.092249 
L 430.695332 243.164019 
L 431.416915 249.862584 
L 432.138497 250.934354 
L 432.86008 251.738182 
L 434.303246 236.733397 
L 435.024829 241.288421 
L 435.746411 219.585072 
L 436.467994 246.915215 
L 437.189577 246.111388 
L 437.91116 250.934354 
L 438.632743 247.719043 
L 439.354326 239.412823 
L 440.075908 244.771675 
L 440.797491 242.092249 
L 441.519074 245.843445 
L 442.240657 250.666411 
L 442.96224 250.130526 
L 443.683823 219.585072 
L 444.405405 220.120957 
L 445.126988 235.929569 
L 445.848571 247.719043 
L 446.570154 217.441531 
L 447.291737 246.915215 
L 448.01332 235.929569 
L 448.734902 212.886507 
L 449.456485 238.07311 
L 450.178068 209.939139 
L 450.899651 198.68555 
L 451.621234 232.714258 
L 452.342817 250.666411 
L 453.064399 249.862584 
L 453.785982 196.809952 
L 454.507565 208.867368 
L 455.229148 223.872153 
L 455.950731 224.675981 
L 456.672313 179.125742 
L 457.393896 243.967847 
L 458.115479 245.575502 
L 458.837062 217.441531 
L 459.558645 226.015694 
L 460.280228 242.628134 
L 461.00181 240.752536 
L 461.723393 226.283636 
L 462.444976 247.719043 
L 463.166559 249.862584 
L 463.888142 225.747751 
L 464.609725 235.929569 
L 465.331307 223.336268 
L 466.05289 232.178373 
L 466.774473 216.369761 
L 467.496056 239.680766 
L 468.217639 248.254928 
L 468.939222 222.264498 
L 469.660804 228.427177 
L 470.382387 231.910431 
L 471.10397 227.623349 
L 471.825553 185.824306 
L 472.547136 223.872153 
L 473.268718 241.288421 
L 473.990301 160.101818 
L 474.711884 200.829091 
L 475.433467 224.943923 
L 476.15505 241.288421 
L 476.876633 239.680766 
L 477.598215 243.967847 
L 478.319798 247.4511 
L 479.041381 211.814737 
L 479.762964 223.068325 
L 480.484547 209.671196 
L 481.20613 213.15445 
L 481.927712 225.211866 
L 482.649295 250.130526 
L 483.370878 249.594641 
L 484.092461 213.422392 
L 484.814044 235.661627 
L 485.535627 222.53244 
L 486.257209 230.570718 
L 486.978792 235.393684 
L 487.700375 242.896077 
L 488.421958 247.719043 
L 489.143541 229.76689 
L 489.865123 236.197512 
L 490.586706 216.637703 
L 491.308289 214.22622 
L 492.029872 242.896077 
L 492.751455 249.058756 
L 493.473038 251.738182 
L 494.19462 239.680766 
L 494.916203 237.805167 
L 495.637786 243.699904 
L 496.359369 235.661627 
L 497.080952 244.235789 
L 497.802535 249.326699 
L 498.524117 250.130526 
L 499.967283 234.589856 
L 500.688866 247.986986 
L 501.410449 247.986986 
L 502.132032 243.967847 
L 502.853614 240.752536 
L 503.575197 229.498947 
L 504.29678 239.14488 
L 505.018363 238.608995 
L 505.739946 246.37933 
L 507.183111 247.4511 
L 507.904694 250.398469 
L 508.626277 248.790813 
L 510.069443 232.178373 
L 510.791025 234.857799 
L 511.512608 242.896077 
L 512.234191 235.661627 
L 512.955774 249.862584 
L 513.677357 251.470239 
L 514.39894 243.699904 
L 515.120522 246.37933 
L 515.842105 233.786029 
L 516.563688 213.15445 
L 517.285271 244.235789 
L 518.006854 250.666411 
L 518.728437 249.326699 
L 519.450019 240.484593 
L 520.171602 236.733397 
L 520.893185 239.412823 
L 521.614768 238.341053 
L 522.336351 234.857799 
L 523.057934 250.934354 
L 523.779516 241.288421 
L 524.501099 228.159234 
L 525.222682 226.819522 
L 525.944265 245.575502 
L 526.665848 248.254928 
L 527.38743 211.278852 
L 528.109013 247.986986 
L 528.830596 250.666411 
L 529.552179 227.891292 
L 530.273762 246.111388 
L 530.995345 221.192727 
L 531.716927 229.498947 
L 532.43851 246.111388 
L 533.160093 251.470239 
L 533.881676 251.470239 
L 534.603259 249.862584 
L 535.324842 244.503732 
L 536.046424 245.843445 
L 536.768007 243.431962 
L 537.48959 251.470239 
L 538.211173 249.862584 
L 538.932756 251.738182 
L 539.654339 245.575502 
L 540.375921 247.986986 
L 541.097504 244.771675 
L 541.819087 243.164019 
L 542.54067 250.666411 
L 543.262253 251.202297 
L 543.983836 241.020478 
L 544.705418 220.656842 
L 545.427001 245.843445 
L 546.148584 246.111388 
L 546.870167 240.484593 
L 547.59175 248.254928 
L 548.313332 251.470239 
L 549.034915 247.4511 
L 549.756498 241.556364 
L 550.478081 243.699904 
L 551.199664 244.235789 
L 551.921247 249.326699 
L 552.642829 251.470239 
L 553.364412 251.202297 
L 554.085995 243.164019 
L 554.807578 243.967847 
L 555.529161 247.4511 
L 556.250744 237.537225 
L 556.972326 249.058756 
L 557.693909 250.934354 
L 558.415492 248.790813 
L 559.137075 250.934354 
L 559.858658 239.14488 
L 561.301823 227.623349 
L 562.023406 228.427177 
L 562.744989 247.719043 
L 563.466572 249.594641 
L 564.188155 221.728612 
L 564.909737 238.07311 
L 565.63132 246.647273 
L 566.352903 243.699904 
L 567.074486 234.589856 
L 567.796069 251.202297 
L 568.517652 246.111388 
L 569.239234 238.876938 
L 569.960817 247.4511 
L 570.6824 228.159234 
L 571.403983 234.321914 
L 572.125566 250.934354 
L 572.847149 251.470239 
L 573.568731 250.130526 
L 574.290314 239.948708 
L 575.011897 241.556364 
L 575.73348 248.790813 
L 576.455063 231.106603 
L 577.176646 249.594641 
L 577.898228 251.470239 
L 578.619811 249.058756 
L 579.341394 249.058756 
L 580.062977 241.020478 
L 580.78456 247.183158 
L 581.506143 241.288421 
L 582.227725 249.326699 
L 582.949308 251.738182 
L 583.670891 248.254928 
L 584.392474 227.087464 
L 585.114057 246.915215 
L 585.835639 241.824306 
L 586.557222 247.719043 
L 587.278805 249.862584 
L 588.000388 251.470239 
L 588.721971 244.771675 
L 589.443554 215.833876 
L 590.165136 249.862584 
L 590.886719 226.551579 
L 591.608302 243.164019 
L 592.329885 251.738182 
L 593.051468 251.470239 
L 593.773051 250.130526 
L 594.494633 248.254928 
L 595.216216 238.876938 
L 595.937799 242.092249 
L 596.659382 203.240574 
L 597.380965 249.862584 
L 598.102548 249.326699 
L 599.545713 212.082679 
L 600.267296 237.805167 
L 600.988879 246.647273 
L 601.710462 247.4511 
L 602.432044 250.666411 
L 603.153627 250.934354 
L 603.87521 249.594641 
L 604.596793 237.00134 
L 605.318376 245.575502 
L 606.039959 219.317129 
L 606.761541 237.00134 
L 607.483124 240.216651 
L 608.204707 251.202297 
L 608.92629 216.905646 
L 609.647873 211.010909 
L 610.369456 238.07311 
L 611.091038 248.522871 
L 611.812621 249.058756 
L 612.534204 250.398469 
L 613.255787 243.164019 
L 613.97737 234.053971 
L 614.698953 238.876938 
L 615.420535 235.661627 
L 616.142118 235.929569 
L 616.863701 242.360191 
L 617.585284 251.470239 
L 618.306867 234.321914 
L 619.02845 247.719043 
L 619.750032 249.594641 
L 620.471615 234.857799 
L 621.193198 244.503732 
L 621.914781 249.594641 
L 622.636364 251.202297 
L 622.636364 251.202297 
" clip-path="url(#pf12a6052b3)" style="fill: none; stroke: #1f77b4; stroke-width: 1.5; stroke-linecap: square"/>
   </g>
   <g id="line2d_28">
    <path d="M 115.363636 251.738182 
L 116.085219 249.594641 
L 116.806802 248.522871 
L 117.528385 249.594641 
L 118.249968 251.738182 
L 118.97155 250.130526 
L 119.693133 249.326699 
L 120.414716 249.326699 
L 121.136299 249.058756 
L 121.857882 249.594641 
L 122.579465 251.470239 
L 125.465796 249.326699 
L 126.187379 249.058756 
L 126.908962 250.130526 
L 128.352127 251.738182 
L 129.07371 249.058756 
L 129.795293 249.594641 
L 130.516876 250.666411 
L 131.238459 250.934354 
L 131.960041 250.666411 
L 132.681624 251.470239 
L 133.403207 251.202297 
L 134.12479 250.130526 
L 134.846373 251.202297 
L 135.567956 249.058756 
L 136.289538 249.862584 
L 137.011121 250.398469 
L 137.732704 251.202297 
L 138.454287 251.202297 
L 139.17587 247.719043 
L 139.897452 251.470239 
L 140.619035 251.470239 
L 141.340618 251.202297 
L 142.783784 251.738182 
L 143.505367 251.470239 
L 144.226949 249.594641 
L 144.948532 247.183158 
L 146.391698 250.130526 
L 147.113281 250.130526 
L 147.834864 251.470239 
L 148.556446 250.398469 
L 149.278029 250.130526 
L 149.999612 250.934354 
L 150.721195 247.986986 
L 152.164361 251.470239 
L 152.885943 251.738182 
L 153.607526 249.326699 
L 155.050692 249.326699 
L 155.772275 250.130526 
L 156.493857 250.398469 
L 157.21544 251.202297 
L 157.937023 251.470239 
L 158.658606 250.934354 
L 159.380189 250.666411 
L 160.101772 251.202297 
L 161.544937 251.202297 
L 162.26652 251.470239 
L 162.988103 250.934354 
L 164.431269 250.934354 
L 165.152851 251.738182 
L 165.874434 251.202297 
L 166.596017 251.202297 
L 167.3176 250.934354 
L 168.039183 249.862584 
L 168.760766 248.254928 
L 169.482348 250.130526 
L 170.203931 251.202297 
L 170.925514 250.934354 
L 171.647097 250.934354 
L 172.36868 251.202297 
L 173.090263 249.594641 
L 173.811845 248.790813 
L 174.533428 249.862584 
L 175.255011 247.183158 
L 175.976594 249.862584 
L 176.698177 250.398469 
L 177.419759 251.202297 
L 178.141342 250.666411 
L 178.862925 250.666411 
L 179.584508 248.522871 
L 180.306091 249.594641 
L 181.027674 249.326699 
L 181.749256 249.326699 
L 182.470839 250.398469 
L 183.192422 246.37933 
L 184.635588 249.326699 
L 185.357171 247.719043 
L 186.078753 246.647273 
L 186.800336 250.934354 
L 187.521919 250.666411 
L 188.243502 248.790813 
L 188.965085 250.130526 
L 189.686668 248.254928 
L 190.40825 249.594641 
L 191.129833 249.594641 
L 191.851416 250.934354 
L 192.572999 251.202297 
L 193.294582 249.058756 
L 194.016164 248.254928 
L 194.737747 248.522871 
L 195.45933 250.934354 
L 196.180913 251.470239 
L 197.624079 250.934354 
L 198.345661 250.934354 
L 199.067244 249.594641 
L 199.788827 250.398469 
L 200.51041 249.058756 
L 201.231993 250.934354 
L 201.953576 250.398469 
L 202.675158 250.934354 
L 203.396741 249.326699 
L 204.118324 249.058756 
L 204.839907 249.058756 
L 205.56149 248.254928 
L 206.283073 250.398469 
L 207.004655 250.934354 
L 207.726238 250.934354 
L 208.447821 242.896077 
L 209.169404 249.058756 
L 209.890987 249.058756 
L 210.61257 247.719043 
L 212.055735 250.666411 
L 212.777318 250.666411 
L 213.498901 246.647273 
L 214.220484 246.915215 
L 214.942066 248.522871 
L 215.663649 246.915215 
L 216.385232 247.719043 
L 217.106815 250.130526 
L 217.828398 250.934354 
L 218.549981 247.719043 
L 219.271563 246.37933 
L 219.993146 247.4511 
L 220.714729 247.719043 
L 222.157895 251.202297 
L 222.879478 250.130526 
L 223.60106 247.986986 
L 224.322643 247.986986 
L 225.044226 248.790813 
L 225.765809 250.666411 
L 227.208975 251.202297 
L 227.930557 250.130526 
L 228.65214 246.647273 
L 229.373723 247.4511 
L 230.095306 248.790813 
L 230.816889 247.183158 
L 231.538471 249.862584 
L 232.260054 251.202297 
L 233.70322 249.594641 
L 234.424803 248.522871 
L 235.146386 248.790813 
L 235.867968 247.719043 
L 236.589551 249.326699 
L 237.311134 249.594641 
L 238.032717 250.934354 
L 238.7543 245.843445 
L 239.475883 248.254928 
L 240.197465 249.058756 
L 240.919048 249.326699 
L 241.640631 249.326699 
L 242.362214 250.934354 
L 243.083797 250.398469 
L 243.80538 246.111388 
L 244.526962 244.771675 
L 245.248545 247.183158 
L 245.970128 249.058756 
L 246.691711 250.398469 
L 247.413294 249.326699 
L 248.134877 250.398469 
L 248.856459 246.647273 
L 249.578042 246.915215 
L 250.299625 230.302775 
L 251.021208 248.254928 
L 251.742791 246.915215 
L 252.464373 250.666411 
L 253.185956 251.738182 
L 253.907539 249.862584 
L 254.629122 248.522871 
L 255.350705 248.522871 
L 256.072288 248.790813 
L 256.79387 247.986986 
L 258.237036 251.202297 
L 258.958619 249.326699 
L 259.680202 248.522871 
L 260.401785 247.183158 
L 261.123367 247.4511 
L 261.84495 246.111388 
L 262.566533 250.666411 
L 263.288116 251.738182 
L 264.009699 246.111388 
L 264.731282 247.4511 
L 265.452864 249.594641 
L 266.174447 247.719043 
L 266.89603 248.522871 
L 267.617613 251.470239 
L 268.339196 250.398469 
L 269.060778 248.522871 
L 269.782361 249.594641 
L 270.503944 248.254928 
L 271.225527 246.647273 
L 272.668693 250.934354 
L 273.390275 251.202297 
L 274.111858 249.326699 
L 274.833441 247.986986 
L 275.555024 250.130526 
L 276.276607 249.594641 
L 276.99819 249.594641 
L 278.441355 250.130526 
L 279.162938 247.183158 
L 279.884521 249.058756 
L 280.606104 249.058756 
L 281.327687 250.130526 
L 282.049269 249.326699 
L 282.770852 251.202297 
L 283.492435 250.398469 
L 284.214018 248.522871 
L 284.935601 249.326699 
L 285.657183 249.058756 
L 286.378766 248.522871 
L 287.100349 249.326699 
L 287.821932 251.202297 
L 288.543515 250.934354 
L 289.265098 247.719043 
L 289.98668 250.666411 
L 290.708263 249.862584 
L 291.429846 249.326699 
L 292.151429 246.111388 
L 292.873012 251.202297 
L 293.594595 250.666411 
L 294.316177 249.862584 
L 295.03776 250.398469 
L 295.759343 249.058756 
L 296.480926 248.254928 
L 297.202509 249.326699 
L 297.924092 250.934354 
L 298.645674 250.934354 
L 299.367257 249.594641 
L 300.08884 247.4511 
L 300.810423 247.4511 
L 301.532006 250.398469 
L 302.253589 248.790813 
L 302.975171 250.666411 
L 303.696754 249.594641 
L 304.418337 247.986986 
L 305.13992 248.790813 
L 305.861503 248.790813 
L 306.583085 247.986986 
L 307.304668 248.254928 
L 308.026251 251.202297 
L 308.747834 251.738182 
L 309.469417 250.130526 
L 310.191 250.130526 
L 310.912582 250.398469 
L 311.634165 250.398469 
L 312.355748 250.666411 
L 313.798914 251.738182 
L 314.520497 250.398469 
L 315.242079 249.594641 
L 315.963662 249.862584 
L 316.685245 248.790813 
L 317.406828 251.202297 
L 318.128411 250.398469 
L 318.849994 251.738182 
L 319.571576 250.398469 
L 320.293159 250.398469 
L 321.014742 248.522871 
L 321.736325 247.986986 
L 322.457908 249.594641 
L 323.17949 250.666411 
L 323.901073 250.666411 
L 324.622656 248.790813 
L 325.344239 249.594641 
L 326.065822 249.862584 
L 326.787405 249.862584 
L 327.508987 249.058756 
L 328.23057 249.326699 
L 328.952153 250.666411 
L 329.673736 248.522871 
L 330.395319 251.470239 
L 331.116902 249.862584 
L 331.838484 249.862584 
L 332.560067 251.202297 
L 333.28165 250.934354 
L 334.003233 250.130526 
L 334.724816 250.130526 
L 335.446399 249.326699 
L 336.167981 249.594641 
L 336.889564 251.202297 
L 337.611147 250.934354 
L 338.33273 251.470239 
L 339.054313 250.398469 
L 339.775896 250.130526 
L 340.497478 248.790813 
L 341.219061 249.326699 
L 341.940644 250.398469 
L 342.662227 250.934354 
L 343.38381 250.398469 
L 344.105392 251.470239 
L 344.826975 250.934354 
L 345.548558 249.326699 
L 346.270141 250.130526 
L 346.991724 251.202297 
L 347.713307 248.522871 
L 348.434889 251.470239 
L 349.156472 251.202297 
L 349.878055 248.254928 
L 351.321221 249.326699 
L 352.042804 250.398469 
L 352.764386 249.862584 
L 353.485969 251.202297 
L 354.207552 250.666411 
L 354.929135 247.986986 
L 355.650718 249.862584 
L 356.372301 249.326699 
L 357.093883 249.862584 
L 357.815466 249.862584 
L 358.537049 251.470239 
L 359.258632 251.470239 
L 359.980215 250.934354 
L 360.701797 248.522871 
L 362.144963 248.522871 
L 362.866546 249.862584 
L 363.588129 249.862584 
L 364.309712 249.058756 
L 365.031294 248.790813 
L 365.752877 247.4511 
L 366.47446 249.594641 
L 367.196043 247.719043 
L 367.917626 250.130526 
L 368.639209 251.202297 
L 369.360791 250.398469 
L 370.082374 249.862584 
L 370.803957 248.254928 
L 371.52554 248.522871 
L 372.247123 249.326699 
L 372.968706 249.862584 
L 373.690288 250.130526 
L 374.411871 247.719043 
L 375.133454 248.522871 
L 375.855037 250.666411 
L 376.57662 249.594641 
L 378.019785 249.058756 
L 378.741368 249.594641 
L 379.462951 247.719043 
L 380.184534 250.130526 
L 380.906117 250.398469 
L 381.627699 248.522871 
L 382.349282 249.058756 
L 383.070865 250.934354 
L 383.792448 250.398469 
L 384.514031 249.594641 
L 385.235614 250.934354 
L 385.957196 249.326699 
L 386.678779 248.790813 
L 387.400362 249.058756 
L 388.121945 251.202297 
L 388.843528 251.202297 
L 389.565111 249.326699 
L 390.286693 250.398469 
L 391.008276 247.986986 
L 392.451442 250.130526 
L 393.173025 250.666411 
L 393.894608 250.130526 
L 394.61619 249.058756 
L 395.337773 247.4511 
L 396.059356 248.522871 
L 396.780939 247.986986 
L 397.502522 249.058756 
L 398.224104 250.666411 
L 398.945687 250.934354 
L 399.66727 249.326699 
L 400.388853 250.666411 
L 401.110436 249.862584 
L 401.832019 250.130526 
L 402.553601 251.470239 
L 403.275184 250.934354 
L 403.996767 250.934354 
L 404.71835 251.470239 
L 405.439933 249.594641 
L 406.161516 250.398469 
L 406.883098 249.058756 
L 407.604681 250.666411 
L 408.326264 251.202297 
L 409.047847 249.058756 
L 409.76943 249.594641 
L 410.491013 249.594641 
L 411.212595 246.915215 
L 411.934178 246.647273 
L 412.655761 250.398469 
L 413.377344 250.398469 
L 414.098927 248.790813 
L 414.82051 248.790813 
L 415.542092 249.862584 
L 416.263675 249.326699 
L 416.985258 250.398469 
L 417.706841 250.666411 
L 418.428424 250.666411 
L 419.150006 248.254928 
L 419.871589 249.862584 
L 420.593172 250.666411 
L 421.314755 250.934354 
L 422.036338 249.594641 
L 422.757921 251.738182 
L 423.479503 251.470239 
L 424.201086 250.934354 
L 424.922669 250.934354 
L 425.644252 251.202297 
L 426.365835 250.666411 
L 427.087418 251.202297 
L 427.809 250.398469 
L 428.530583 244.771675 
L 429.252166 247.4511 
L 429.973749 249.326699 
L 432.138497 250.934354 
L 432.86008 251.738182 
L 433.581663 249.594641 
L 434.303246 249.594641 
L 435.024829 249.058756 
L 435.746411 246.111388 
L 436.467994 250.666411 
L 437.189577 251.738182 
L 437.91116 251.470239 
L 438.632743 250.666411 
L 439.354326 248.254928 
L 440.075908 250.934354 
L 440.797491 250.130526 
L 441.519074 248.522871 
L 442.240657 251.202297 
L 442.96224 251.202297 
L 443.683823 250.130526 
L 444.405405 247.986986 
L 445.126988 248.790813 
L 445.848571 249.862584 
L 446.570154 249.326699 
L 447.291737 250.934354 
L 448.01332 250.666411 
L 448.734902 248.254928 
L 449.456485 249.326699 
L 450.178068 247.183158 
L 450.899651 246.647273 
L 451.621234 247.183158 
L 452.342817 251.202297 
L 453.064399 251.738182 
L 453.785982 247.986986 
L 454.507565 246.111388 
L 455.229148 247.986986 
L 455.950731 246.647273 
L 456.672313 243.431962 
L 457.393896 249.594641 
L 458.115479 249.326699 
L 458.837062 247.4511 
L 459.558645 247.183158 
L 460.280228 248.254928 
L 461.00181 248.790813 
L 461.723393 247.986986 
L 462.444976 249.862584 
L 463.166559 250.934354 
L 463.888142 247.719043 
L 465.331307 248.254928 
L 466.05289 246.915215 
L 466.774473 247.4511 
L 467.496056 247.719043 
L 468.217639 250.666411 
L 468.939222 245.843445 
L 469.660804 245.843445 
L 470.382387 243.967847 
L 471.10397 247.183158 
L 471.825553 247.183158 
L 472.547136 249.862584 
L 473.268718 249.058756 
L 473.990301 247.986986 
L 474.711884 245.843445 
L 475.433467 248.522871 
L 476.15505 249.058756 
L 476.876633 249.326699 
L 477.598215 249.326699 
L 478.319798 249.862584 
L 479.041381 246.647273 
L 479.762964 247.183158 
L 480.484547 245.039617 
L 481.20613 247.986986 
L 481.927712 247.183158 
L 482.649295 250.934354 
L 483.370878 251.202297 
L 484.092461 243.967847 
L 484.814044 247.4511 
L 485.535627 245.575502 
L 486.257209 246.37933 
L 486.978792 249.594641 
L 487.700375 250.398469 
L 488.421958 250.398469 
L 489.143541 248.522871 
L 489.865123 249.326699 
L 490.586706 247.183158 
L 491.308289 246.915215 
L 492.029872 249.594641 
L 492.751455 249.862584 
L 493.473038 251.738182 
L 494.19462 248.522871 
L 494.916203 248.254928 
L 495.637786 249.058756 
L 496.359369 244.771675 
L 497.080952 249.326699 
L 497.802535 251.470239 
L 498.524117 250.934354 
L 499.2457 249.058756 
L 499.967283 249.594641 
L 500.688866 249.594641 
L 501.410449 250.666411 
L 502.132032 250.666411 
L 502.853614 251.202297 
L 503.575197 250.666411 
L 504.29678 249.326699 
L 505.018363 249.058756 
L 505.739946 249.326699 
L 506.461529 250.130526 
L 507.183111 249.594641 
L 507.904694 250.666411 
L 508.626277 249.594641 
L 509.34786 248.790813 
L 510.069443 248.522871 
L 510.791025 248.522871 
L 511.512608 249.862584 
L 512.234191 246.915215 
L 512.955774 251.470239 
L 513.677357 251.470239 
L 514.39894 249.058756 
L 515.120522 250.398469 
L 515.842105 250.398469 
L 516.563688 248.254928 
L 518.006854 251.202297 
L 518.728437 250.398469 
L 519.450019 249.326699 
L 520.171602 248.522871 
L 520.893185 249.058756 
L 521.614768 247.4511 
L 522.336351 249.594641 
L 523.057934 250.934354 
L 523.779516 250.130526 
L 524.501099 246.647273 
L 525.222682 247.986986 
L 525.944265 250.666411 
L 526.665848 250.130526 
L 527.38743 248.522871 
L 528.830596 251.470239 
L 529.552179 249.594641 
L 530.273762 250.130526 
L 530.995345 249.594641 
L 531.716927 248.790813 
L 532.43851 250.398469 
L 533.160093 251.470239 
L 533.881676 251.470239 
L 534.603259 250.666411 
L 535.324842 250.130526 
L 536.046424 250.130526 
L 536.768007 249.058756 
L 537.48959 251.470239 
L 538.211173 250.934354 
L 538.932756 251.738182 
L 539.654339 250.398469 
L 540.375921 249.862584 
L 541.097504 249.594641 
L 541.819087 248.522871 
L 542.54067 251.202297 
L 543.262253 251.470239 
L 543.983836 249.326699 
L 544.705418 249.594641 
L 545.427001 250.130526 
L 546.148584 250.398469 
L 546.870167 249.862584 
L 547.59175 251.470239 
L 548.313332 251.738182 
L 549.034915 250.934354 
L 549.756498 250.398469 
L 550.478081 249.058756 
L 551.199664 251.202297 
L 551.921247 250.666411 
L 552.642829 251.470239 
L 553.364412 251.202297 
L 554.085995 250.130526 
L 554.807578 249.594641 
L 555.529161 250.130526 
L 556.250744 249.058756 
L 556.972326 250.666411 
L 557.693909 251.470239 
L 558.415492 250.130526 
L 559.137075 251.202297 
L 559.858658 250.666411 
L 560.580241 250.666411 
L 561.301823 248.522871 
L 562.023406 249.594641 
L 562.744989 250.934354 
L 563.466572 251.202297 
L 564.188155 249.594641 
L 564.909737 249.594641 
L 565.63132 250.666411 
L 566.352903 249.594641 
L 567.074486 249.594641 
L 567.796069 251.470239 
L 568.517652 249.594641 
L 569.239234 249.326699 
L 569.960817 250.666411 
L 570.6824 249.594641 
L 571.403983 249.326699 
L 572.125566 251.202297 
L 572.847149 251.738182 
L 573.568731 250.130526 
L 574.290314 249.594641 
L 575.011897 250.666411 
L 576.455063 250.130526 
L 577.176646 250.666411 
L 577.898228 251.470239 
L 578.619811 250.130526 
L 579.341394 250.130526 
L 580.062977 249.326699 
L 580.78456 249.862584 
L 581.506143 249.862584 
L 582.227725 250.934354 
L 582.949308 251.738182 
L 583.670891 251.202297 
L 584.392474 250.398469 
L 585.114057 250.398469 
L 585.835639 250.934354 
L 586.557222 250.130526 
L 587.278805 250.934354 
L 588.000388 251.470239 
L 588.721971 250.398469 
L 589.443554 249.862584 
L 590.165136 250.130526 
L 590.886719 249.058756 
L 591.608302 249.594641 
L 592.329885 251.738182 
L 593.051468 251.470239 
L 593.773051 250.398469 
L 594.494633 249.862584 
L 595.216216 249.058756 
L 595.937799 249.594641 
L 596.659382 245.039617 
L 597.380965 251.202297 
L 598.102548 250.666411 
L 599.545713 247.183158 
L 600.267296 248.790813 
L 600.988879 249.862584 
L 601.710462 250.398469 
L 602.432044 251.202297 
L 603.153627 251.202297 
L 603.87521 250.130526 
L 604.596793 248.254928 
L 605.318376 249.862584 
L 606.039959 246.915215 
L 606.761541 246.915215 
L 607.483124 251.202297 
L 608.204707 251.470239 
L 608.92629 246.37933 
L 609.647873 246.915215 
L 610.369456 247.183158 
L 611.091038 249.594641 
L 611.812621 250.130526 
L 612.534204 251.202297 
L 613.255787 249.594641 
L 613.97737 248.522871 
L 614.698953 249.862584 
L 615.420535 246.111388 
L 616.863701 250.666411 
L 617.585284 251.470239 
L 618.306867 247.986986 
L 619.750032 250.666411 
L 620.471615 248.254928 
L 621.193198 249.862584 
L 621.914781 250.934354 
L 622.636364 251.202297 
L 622.636364 251.202297 
" clip-path="url(#pf12a6052b3)" style="fill: none; stroke: #ff7f0e; stroke-width: 1.5; stroke-linecap: square"/>
   </g>
   <g id="patch_9">
    <path d="M 90 256.32 
L 90 155.52 
" style="fill: none; stroke: #000000; stroke-width: 0.8; stroke-linejoin: miter; stroke-linecap: square"/>
   </g>
   <g id="patch_10">
    <path d="M 648 256.32 
L 648 155.52 
" style="fill: none; stroke: #000000; stroke-width: 0.8; stroke-linejoin: miter; stroke-linecap: square"/>
   </g>
   <g id="patch_11">
    <path d="M 90 256.32 
L 648 256.32 
" style="fill: none; stroke: #000000; stroke-width: 0.8; stroke-linejoin: miter; stroke-linecap: square"/>
   </g>
   <g id="patch_12">
    <path d="M 90 155.52 
L 648 155.52 
" style="fill: none; stroke: #000000; stroke-width: 0.8; stroke-linejoin: miter; stroke-linecap: square"/>
   </g>
   <g id="legend_2">
    <g id="patch_13">
     <path d="M 503.782812 192.87625 
L 641 192.87625 
Q 643 192.87625 643 190.87625 
L 643 162.52 
Q 643 160.52 641 160.52 
L 503.782812 160.52 
Q 501.782812 160.52 501.782812 162.52 
L 501.782812 190.87625 
Q 501.782812 192.87625 503.782812 192.87625 
z
" style="fill: #ffffff; opacity: 0.8; stroke: #cccccc; stroke-linejoin: miter"/>
    </g>
    <g id="line2d_29">
     <path d="M 505.782812 168.618437 
L 515.782812 168.618437 
L 525.782812 168.618437 
" style="fill: none; stroke: #1f77b4; stroke-width: 1.5; stroke-linecap: square"/>
    </g>
    <g id="text_27">
     <!-- Total GitHub Views -->
     <g transform="translate(533.782812 172.118437) scale(0.1 -0.1)">
      <defs>
       <path id="DejaVuSans-56" d="M 1831 0 
L 50 4666 
L 709 4666 
L 2188 738 
L 3669 4666 
L 4325 4666 
L 2547 0 
L 1831 0 
z
" transform="scale(0.015625)"/>
       <path id="DejaVuSans-77" d="M 269 3500 
L 844 3500 
L 1563 769 
L 2278 3500 
L 2956 3500 
L 3675 769 
L 4391 3500 
L 4966 3500 
L 4050 0 
L 3372 0 
L 2619 2869 
L 1863 0 
L 1184 0 
L 269 3500 
z
" transform="scale(0.015625)"/>
      </defs>
      <use xlink:href="#DejaVuSans-54"/>
      <use xlink:href="#DejaVuSans-6f" x="44.083984"/>
      <use xlink:href="#DejaVuSans-74" x="105.265625"/>
      <use xlink:href="#DejaVuSans-61" x="144.474609"/>
      <use xlink:href="#DejaVuSans-6c" x="205.753906"/>
      <use xlink:href="#DejaVuSans-20" x="233.537109"/>
      <use xlink:href="#DejaVuSans-47" x="265.324219"/>
      <use xlink:href="#DejaVuSans-69" x="342.814453"/>
      <use xlink:href="#DejaVuSans-74" x="370.597656"/>
      <use xlink:href="#DejaVuSans-48" x="409.806641"/>
      <use xlink:href="#DejaVuSans-75" x="485.001953"/>
      <use xlink:href="#DejaVuSans-62" x="548.380859"/>
      <use xlink:href="#DejaVuSans-20" x="611.857422"/>
      <use xlink:href="#DejaVuSans-56" x="643.644531"/>
      <use xlink:href="#DejaVuSans-69" x="709.802734"/>
      <use xlink:href="#DejaVuSans-65" x="737.585938"/>
      <use xlink:href="#DejaVuSans-77" x="799.109375"/>
      <use xlink:href="#DejaVuSans-73" x="880.896484"/>
     </g>
    </g>
    <g id="line2d_30">
     <path d="M 505.782812 183.296562 
L 515.782812 183.296562 
L 525.782812 183.296562 
" style="fill: none; stroke: #ff7f0e; stroke-width: 1.5; stroke-linecap: square"/>
    </g>
    <g id="text_28">
     <!-- Unique GitHub Views -->
     <g transform="translate(533.782812 186.796562) scale(0.1 -0.1)">
      <use xlink:href="#DejaVuSans-55"/>
      <use xlink:href="#DejaVuSans-6e" x="73.193359"/>
      <use xlink:href="#DejaVuSans-69" x="136.572266"/>
      <use xlink:href="#DejaVuSans-71" x="164.355469"/>
      <use xlink:href="#DejaVuSans-75" x="227.832031"/>
      <use xlink:href="#DejaVuSans-65" x="291.210938"/>
      <use xlink:href="#DejaVuSans-20" x="352.734375"/>
      <use xlink:href="#DejaVuSans-47" x="384.521484"/>
      <use xlink:href="#DejaVuSans-69" x="462.011719"/>
      <use xlink:href="#DejaVuSans-74" x="489.794922"/>
      <use xlink:href="#DejaVuSans-48" x="529.003906"/>
      <use xlink:href="#DejaVuSans-75" x="604.199219"/>
      <use xlink:href="#DejaVuSans-62" x="667.578125"/>
      <use xlink:href="#DejaVuSans-20" x="731.054688"/>
      <use xlink:href="#DejaVuSans-56" x="762.841797"/>
      <use xlink:href="#DejaVuSans-69" x="829"/>
      <use xlink:href="#DejaVuSans-65" x="856.783203"/>
      <use xlink:href="#DejaVuSans-77" x="918.306641"/>
      <use xlink:href="#DejaVuSans-73" x="1000.09375"/>
     </g>
    </g>
   </g>
  </g>
 </g>
 <defs>
  <clipPath id="pc36881db11">
   <rect x="90" y="34.56" width="558" height="100.8"/>
  </clipPath>
  <clipPath id="pf12a6052b3">
   <rect x="90" y="155.52" width="558" height="100.8"/>
  </clipPath>
 </defs>
</svg>
