<?xml version="1.0" encoding="utf-8" standalone="no"?>
<!DOCTYPE svg PUBLIC "-//W3C//DTD SVG 1.1//EN"
  "http://www.w3.org/Graphics/SVG/1.1/DTD/svg11.dtd">
<svg height="288pt" version="1.1" viewBox="0 0 720 288" width="720pt" xmlns="http://www.w3.org/2000/svg" xmlns:xlink="http://www.w3.org/1999/xlink">
 <metadata>
  <rdf:RDF xmlns:cc="http://creativecommons.org/ns#" xmlns:dc="http://purl.org/dc/elements/1.1/" xmlns:rdf="http://www.w3.org/1999/02/22-rdf-syntax-ns#">
   <cc:Work>
    <dc:type rdf:resource="http://purl.org/dc/dcmitype/StillImage"/>
    <dc:date>2021-09-21T19:24:23.666877</dc:date>
    <dc:format>image/svg+xml</dc:format>
    <dc:creator>
     <cc:Agent>
      <dc:title>Matplotlib v3.4.3, https://matplotlib.org/</dc:title>
     </cc:Agent>
    </dc:creator>
   </cc:Work>
  </rdf:RDF>
 </metadata>
 <defs>
  <style type="text/css">*{stroke-linecap:butt;stroke-linejoin:round;}</style>
 </defs>
 <g id="figure_1">
  <g id="patch_1">
   <path d="M 0 288 
L 720 288 
L 720 0 
L 0 0 
z
" style="fill:#ffffff;"/>
  </g>
  <g id="axes_1">
   <g id="patch_2">
    <path d="M 90 135.36 
L 648 135.36 
L 648 34.56 
L 90 34.56 
z
" style="fill:#ffffff;"/>
   </g>
   <g id="matplotlib.axis_1">
    <g id="xtick_1">
     <g id="line2d_1">
      <defs>
       <path d="M 0 0 
L 0 3.5 
" id="mc867a92a53" style="stroke:#000000;stroke-width:0.8;"/>
      </defs>
      <g>
       <use style="stroke:#000000;stroke-width:0.8;" x="115.363636" xlink:href="#mc867a92a53" y="135.36"/>
      </g>
     </g>
     <g id="text_1">
      <!-- 2020-10-22 -->
      <g transform="translate(86.305824 149.958437)scale(0.1 -0.1)">
       <defs>
        <path d="M 1228 531 
L 3431 531 
L 3431 0 
L 469 0 
L 469 531 
Q 828 903 1448 1529 
Q 2069 2156 2228 2338 
Q 2531 2678 2651 2914 
Q 2772 3150 2772 3378 
Q 2772 3750 2511 3984 
Q 2250 4219 1831 4219 
Q 1534 4219 1204 4116 
Q 875 4013 500 3803 
L 500 4441 
Q 881 4594 1212 4672 
Q 1544 4750 1819 4750 
Q 2544 4750 2975 4387 
Q 3406 4025 3406 3419 
Q 3406 3131 3298 2873 
Q 3191 2616 2906 2266 
Q 2828 2175 2409 1742 
Q 1991 1309 1228 531 
z
" id="DejaVuSans-32" transform="scale(0.015625)"/>
        <path d="M 2034 4250 
Q 1547 4250 1301 3770 
Q 1056 3291 1056 2328 
Q 1056 1369 1301 889 
Q 1547 409 2034 409 
Q 2525 409 2770 889 
Q 3016 1369 3016 2328 
Q 3016 3291 2770 3770 
Q 2525 4250 2034 4250 
z
M 2034 4750 
Q 2819 4750 3233 4129 
Q 3647 3509 3647 2328 
Q 3647 1150 3233 529 
Q 2819 -91 2034 -91 
Q 1250 -91 836 529 
Q 422 1150 422 2328 
Q 422 3509 836 4129 
Q 1250 4750 2034 4750 
z
" id="DejaVuSans-30" transform="scale(0.015625)"/>
        <path d="M 313 2009 
L 1997 2009 
L 1997 1497 
L 313 1497 
L 313 2009 
z
" id="DejaVuSans-2d" transform="scale(0.015625)"/>
        <path d="M 794 531 
L 1825 531 
L 1825 4091 
L 703 3866 
L 703 4441 
L 1819 4666 
L 2450 4666 
L 2450 531 
L 3481 531 
L 3481 0 
L 794 0 
L 794 531 
z
" id="DejaVuSans-31" transform="scale(0.015625)"/>
       </defs>
       <use xlink:href="#DejaVuSans-32"/>
       <use x="63.623047" xlink:href="#DejaVuSans-30"/>
       <use x="127.246094" xlink:href="#DejaVuSans-32"/>
       <use x="190.869141" xlink:href="#DejaVuSans-30"/>
       <use x="254.492188" xlink:href="#DejaVuSans-2d"/>
       <use x="290.576172" xlink:href="#DejaVuSans-31"/>
       <use x="354.199219" xlink:href="#DejaVuSans-30"/>
       <use x="417.822266" xlink:href="#DejaVuSans-2d"/>
       <use x="453.90625" xlink:href="#DejaVuSans-32"/>
       <use x="517.529297" xlink:href="#DejaVuSans-32"/>
      </g>
     </g>
    </g>
    <g id="xtick_2">
     <g id="line2d_2">
      <g>
       <use style="stroke:#000000;stroke-width:0.8;" x="207.595041" xlink:href="#mc867a92a53" y="135.36"/>
      </g>
     </g>
     <g id="text_2">
      <!-- 2021-01-05 -->
      <g transform="translate(178.537229 149.958437)scale(0.1 -0.1)">
       <defs>
        <path d="M 691 4666 
L 3169 4666 
L 3169 4134 
L 1269 4134 
L 1269 2991 
Q 1406 3038 1543 3061 
Q 1681 3084 1819 3084 
Q 2600 3084 3056 2656 
Q 3513 2228 3513 1497 
Q 3513 744 3044 326 
Q 2575 -91 1722 -91 
Q 1428 -91 1123 -41 
Q 819 9 494 109 
L 494 744 
Q 775 591 1075 516 
Q 1375 441 1709 441 
Q 2250 441 2565 725 
Q 2881 1009 2881 1497 
Q 2881 1984 2565 2268 
Q 2250 2553 1709 2553 
Q 1456 2553 1204 2497 
Q 953 2441 691 2322 
L 691 4666 
z
" id="DejaVuSans-35" transform="scale(0.015625)"/>
       </defs>
       <use xlink:href="#DejaVuSans-32"/>
       <use x="63.623047" xlink:href="#DejaVuSans-30"/>
       <use x="127.246094" xlink:href="#DejaVuSans-32"/>
       <use x="190.869141" xlink:href="#DejaVuSans-31"/>
       <use x="254.492188" xlink:href="#DejaVuSans-2d"/>
       <use x="290.576172" xlink:href="#DejaVuSans-30"/>
       <use x="354.199219" xlink:href="#DejaVuSans-31"/>
       <use x="417.822266" xlink:href="#DejaVuSans-2d"/>
       <use x="453.90625" xlink:href="#DejaVuSans-30"/>
       <use x="517.529297" xlink:href="#DejaVuSans-35"/>
      </g>
     </g>
    </g>
    <g id="xtick_3">
     <g id="line2d_3">
      <g>
       <use style="stroke:#000000;stroke-width:0.8;" x="299.826446" xlink:href="#mc867a92a53" y="135.36"/>
      </g>
     </g>
     <g id="text_3">
      <!-- 2021-03-17 -->
      <g transform="translate(270.768634 149.958437)scale(0.1 -0.1)">
       <defs>
        <path d="M 2597 2516 
Q 3050 2419 3304 2112 
Q 3559 1806 3559 1356 
Q 3559 666 3084 287 
Q 2609 -91 1734 -91 
Q 1441 -91 1130 -33 
Q 819 25 488 141 
L 488 750 
Q 750 597 1062 519 
Q 1375 441 1716 441 
Q 2309 441 2620 675 
Q 2931 909 2931 1356 
Q 2931 1769 2642 2001 
Q 2353 2234 1838 2234 
L 1294 2234 
L 1294 2753 
L 1863 2753 
Q 2328 2753 2575 2939 
Q 2822 3125 2822 3475 
Q 2822 3834 2567 4026 
Q 2313 4219 1838 4219 
Q 1578 4219 1281 4162 
Q 984 4106 628 3988 
L 628 4550 
Q 988 4650 1302 4700 
Q 1616 4750 1894 4750 
Q 2613 4750 3031 4423 
Q 3450 4097 3450 3541 
Q 3450 3153 3228 2886 
Q 3006 2619 2597 2516 
z
" id="DejaVuSans-33" transform="scale(0.015625)"/>
        <path d="M 525 4666 
L 3525 4666 
L 3525 4397 
L 1831 0 
L 1172 0 
L 2766 4134 
L 525 4134 
L 525 4666 
z
" id="DejaVuSans-37" transform="scale(0.015625)"/>
       </defs>
       <use xlink:href="#DejaVuSans-32"/>
       <use x="63.623047" xlink:href="#DejaVuSans-30"/>
       <use x="127.246094" xlink:href="#DejaVuSans-32"/>
       <use x="190.869141" xlink:href="#DejaVuSans-31"/>
       <use x="254.492188" xlink:href="#DejaVuSans-2d"/>
       <use x="290.576172" xlink:href="#DejaVuSans-30"/>
       <use x="354.199219" xlink:href="#DejaVuSans-33"/>
       <use x="417.822266" xlink:href="#DejaVuSans-2d"/>
       <use x="453.90625" xlink:href="#DejaVuSans-31"/>
       <use x="517.529297" xlink:href="#DejaVuSans-37"/>
      </g>
     </g>
    </g>
    <g id="xtick_4">
     <g id="line2d_4">
      <g>
       <use style="stroke:#000000;stroke-width:0.8;" x="392.057851" xlink:href="#mc867a92a53" y="135.36"/>
      </g>
     </g>
     <g id="text_4">
      <!-- 2021-05-04 -->
      <g transform="translate(363.000039 149.958437)scale(0.1 -0.1)">
       <defs>
        <path d="M 2419 4116 
L 825 1625 
L 2419 1625 
L 2419 4116 
z
M 2253 4666 
L 3047 4666 
L 3047 1625 
L 3713 1625 
L 3713 1100 
L 3047 1100 
L 3047 0 
L 2419 0 
L 2419 1100 
L 313 1100 
L 313 1709 
L 2253 4666 
z
" id="DejaVuSans-34" transform="scale(0.015625)"/>
       </defs>
       <use xlink:href="#DejaVuSans-32"/>
       <use x="63.623047" xlink:href="#DejaVuSans-30"/>
       <use x="127.246094" xlink:href="#DejaVuSans-32"/>
       <use x="190.869141" xlink:href="#DejaVuSans-31"/>
       <use x="254.492188" xlink:href="#DejaVuSans-2d"/>
       <use x="290.576172" xlink:href="#DejaVuSans-30"/>
       <use x="354.199219" xlink:href="#DejaVuSans-35"/>
       <use x="417.822266" xlink:href="#DejaVuSans-2d"/>
       <use x="453.90625" xlink:href="#DejaVuSans-30"/>
       <use x="517.529297" xlink:href="#DejaVuSans-34"/>
      </g>
     </g>
    </g>
    <g id="xtick_5">
     <g id="line2d_5">
      <g>
       <use style="stroke:#000000;stroke-width:0.8;" x="484.289256" xlink:href="#mc867a92a53" y="135.36"/>
      </g>
     </g>
     <g id="text_5">
      <!-- 2021-06-22 -->
      <g transform="translate(455.231444 149.958437)scale(0.1 -0.1)">
       <defs>
        <path d="M 2113 2584 
Q 1688 2584 1439 2293 
Q 1191 2003 1191 1497 
Q 1191 994 1439 701 
Q 1688 409 2113 409 
Q 2538 409 2786 701 
Q 3034 994 3034 1497 
Q 3034 2003 2786 2293 
Q 2538 2584 2113 2584 
z
M 3366 4563 
L 3366 3988 
Q 3128 4100 2886 4159 
Q 2644 4219 2406 4219 
Q 1781 4219 1451 3797 
Q 1122 3375 1075 2522 
Q 1259 2794 1537 2939 
Q 1816 3084 2150 3084 
Q 2853 3084 3261 2657 
Q 3669 2231 3669 1497 
Q 3669 778 3244 343 
Q 2819 -91 2113 -91 
Q 1303 -91 875 529 
Q 447 1150 447 2328 
Q 447 3434 972 4092 
Q 1497 4750 2381 4750 
Q 2619 4750 2861 4703 
Q 3103 4656 3366 4563 
z
" id="DejaVuSans-36" transform="scale(0.015625)"/>
       </defs>
       <use xlink:href="#DejaVuSans-32"/>
       <use x="63.623047" xlink:href="#DejaVuSans-30"/>
       <use x="127.246094" xlink:href="#DejaVuSans-32"/>
       <use x="190.869141" xlink:href="#DejaVuSans-31"/>
       <use x="254.492188" xlink:href="#DejaVuSans-2d"/>
       <use x="290.576172" xlink:href="#DejaVuSans-30"/>
       <use x="354.199219" xlink:href="#DejaVuSans-36"/>
       <use x="417.822266" xlink:href="#DejaVuSans-2d"/>
       <use x="453.90625" xlink:href="#DejaVuSans-32"/>
       <use x="517.529297" xlink:href="#DejaVuSans-32"/>
      </g>
     </g>
    </g>
    <g id="xtick_6">
     <g id="line2d_6">
      <g>
       <use style="stroke:#000000;stroke-width:0.8;" x="576.520661" xlink:href="#mc867a92a53" y="135.36"/>
      </g>
     </g>
     <g id="text_6">
      <!-- 2021-08-19 -->
      <g transform="translate(547.462849 149.958437)scale(0.1 -0.1)">
       <defs>
        <path d="M 2034 2216 
Q 1584 2216 1326 1975 
Q 1069 1734 1069 1313 
Q 1069 891 1326 650 
Q 1584 409 2034 409 
Q 2484 409 2743 651 
Q 3003 894 3003 1313 
Q 3003 1734 2745 1975 
Q 2488 2216 2034 2216 
z
M 1403 2484 
Q 997 2584 770 2862 
Q 544 3141 544 3541 
Q 544 4100 942 4425 
Q 1341 4750 2034 4750 
Q 2731 4750 3128 4425 
Q 3525 4100 3525 3541 
Q 3525 3141 3298 2862 
Q 3072 2584 2669 2484 
Q 3125 2378 3379 2068 
Q 3634 1759 3634 1313 
Q 3634 634 3220 271 
Q 2806 -91 2034 -91 
Q 1263 -91 848 271 
Q 434 634 434 1313 
Q 434 1759 690 2068 
Q 947 2378 1403 2484 
z
M 1172 3481 
Q 1172 3119 1398 2916 
Q 1625 2713 2034 2713 
Q 2441 2713 2670 2916 
Q 2900 3119 2900 3481 
Q 2900 3844 2670 4047 
Q 2441 4250 2034 4250 
Q 1625 4250 1398 4047 
Q 1172 3844 1172 3481 
z
" id="DejaVuSans-38" transform="scale(0.015625)"/>
        <path d="M 703 97 
L 703 672 
Q 941 559 1184 500 
Q 1428 441 1663 441 
Q 2288 441 2617 861 
Q 2947 1281 2994 2138 
Q 2813 1869 2534 1725 
Q 2256 1581 1919 1581 
Q 1219 1581 811 2004 
Q 403 2428 403 3163 
Q 403 3881 828 4315 
Q 1253 4750 1959 4750 
Q 2769 4750 3195 4129 
Q 3622 3509 3622 2328 
Q 3622 1225 3098 567 
Q 2575 -91 1691 -91 
Q 1453 -91 1209 -44 
Q 966 3 703 97 
z
M 1959 2075 
Q 2384 2075 2632 2365 
Q 2881 2656 2881 3163 
Q 2881 3666 2632 3958 
Q 2384 4250 1959 4250 
Q 1534 4250 1286 3958 
Q 1038 3666 1038 3163 
Q 1038 2656 1286 2365 
Q 1534 2075 1959 2075 
z
" id="DejaVuSans-39" transform="scale(0.015625)"/>
       </defs>
       <use xlink:href="#DejaVuSans-32"/>
       <use x="63.623047" xlink:href="#DejaVuSans-30"/>
       <use x="127.246094" xlink:href="#DejaVuSans-32"/>
       <use x="190.869141" xlink:href="#DejaVuSans-31"/>
       <use x="254.492188" xlink:href="#DejaVuSans-2d"/>
       <use x="290.576172" xlink:href="#DejaVuSans-30"/>
       <use x="354.199219" xlink:href="#DejaVuSans-38"/>
       <use x="417.822266" xlink:href="#DejaVuSans-2d"/>
       <use x="453.90625" xlink:href="#DejaVuSans-31"/>
       <use x="517.529297" xlink:href="#DejaVuSans-39"/>
      </g>
     </g>
    </g>
    <g id="text_7">
     <!-- _date -->
     <g transform="translate(355.225 163.636562)scale(0.1 -0.1)">
      <defs>
       <path d="M 3263 -1063 
L 3263 -1509 
L -63 -1509 
L -63 -1063 
L 3263 -1063 
z
" id="DejaVuSans-5f" transform="scale(0.015625)"/>
       <path d="M 2906 2969 
L 2906 4863 
L 3481 4863 
L 3481 0 
L 2906 0 
L 2906 525 
Q 2725 213 2448 61 
Q 2172 -91 1784 -91 
Q 1150 -91 751 415 
Q 353 922 353 1747 
Q 353 2572 751 3078 
Q 1150 3584 1784 3584 
Q 2172 3584 2448 3432 
Q 2725 3281 2906 2969 
z
M 947 1747 
Q 947 1113 1208 752 
Q 1469 391 1925 391 
Q 2381 391 2643 752 
Q 2906 1113 2906 1747 
Q 2906 2381 2643 2742 
Q 2381 3103 1925 3103 
Q 1469 3103 1208 2742 
Q 947 2381 947 1747 
z
" id="DejaVuSans-64" transform="scale(0.015625)"/>
       <path d="M 2194 1759 
Q 1497 1759 1228 1600 
Q 959 1441 959 1056 
Q 959 750 1161 570 
Q 1363 391 1709 391 
Q 2188 391 2477 730 
Q 2766 1069 2766 1631 
L 2766 1759 
L 2194 1759 
z
M 3341 1997 
L 3341 0 
L 2766 0 
L 2766 531 
Q 2569 213 2275 61 
Q 1981 -91 1556 -91 
Q 1019 -91 701 211 
Q 384 513 384 1019 
Q 384 1609 779 1909 
Q 1175 2209 1959 2209 
L 2766 2209 
L 2766 2266 
Q 2766 2663 2505 2880 
Q 2244 3097 1772 3097 
Q 1472 3097 1187 3025 
Q 903 2953 641 2809 
L 641 3341 
Q 956 3463 1253 3523 
Q 1550 3584 1831 3584 
Q 2591 3584 2966 3190 
Q 3341 2797 3341 1997 
z
" id="DejaVuSans-61" transform="scale(0.015625)"/>
       <path d="M 1172 4494 
L 1172 3500 
L 2356 3500 
L 2356 3053 
L 1172 3053 
L 1172 1153 
Q 1172 725 1289 603 
Q 1406 481 1766 481 
L 2356 481 
L 2356 0 
L 1766 0 
Q 1100 0 847 248 
Q 594 497 594 1153 
L 594 3053 
L 172 3053 
L 172 3500 
L 594 3500 
L 594 4494 
L 1172 4494 
z
" id="DejaVuSans-74" transform="scale(0.015625)"/>
       <path d="M 3597 1894 
L 3597 1613 
L 953 1613 
Q 991 1019 1311 708 
Q 1631 397 2203 397 
Q 2534 397 2845 478 
Q 3156 559 3463 722 
L 3463 178 
Q 3153 47 2828 -22 
Q 2503 -91 2169 -91 
Q 1331 -91 842 396 
Q 353 884 353 1716 
Q 353 2575 817 3079 
Q 1281 3584 2069 3584 
Q 2775 3584 3186 3129 
Q 3597 2675 3597 1894 
z
M 3022 2063 
Q 3016 2534 2758 2815 
Q 2500 3097 2075 3097 
Q 1594 3097 1305 2825 
Q 1016 2553 972 2059 
L 3022 2063 
z
" id="DejaVuSans-65" transform="scale(0.015625)"/>
      </defs>
      <use xlink:href="#DejaVuSans-5f"/>
      <use x="50" xlink:href="#DejaVuSans-64"/>
      <use x="113.476562" xlink:href="#DejaVuSans-61"/>
      <use x="174.755859" xlink:href="#DejaVuSans-74"/>
      <use x="213.964844" xlink:href="#DejaVuSans-65"/>
     </g>
    </g>
   </g>
   <g id="matplotlib.axis_2">
    <g id="ytick_1">
     <g id="line2d_7">
      <defs>
       <path d="M 0 0 
L -3.5 0 
" id="m08158f423e" style="stroke:#000000;stroke-width:0.8;"/>
      </defs>
      <g>
       <use style="stroke:#000000;stroke-width:0.8;" x="90" xlink:href="#m08158f423e" y="131.401558"/>
      </g>
     </g>
     <g id="text_8">
      <!-- 0 -->
      <g transform="translate(76.6375 135.200777)scale(0.1 -0.1)">
       <use xlink:href="#DejaVuSans-30"/>
      </g>
     </g>
    </g>
    <g id="ytick_2">
     <g id="line2d_8">
      <g>
       <use style="stroke:#000000;stroke-width:0.8;" x="90" xlink:href="#m08158f423e" y="100.232727"/>
      </g>
     </g>
     <g id="text_9">
      <!-- 50 -->
      <g transform="translate(70.275 104.031946)scale(0.1 -0.1)">
       <use xlink:href="#DejaVuSans-35"/>
       <use x="63.623047" xlink:href="#DejaVuSans-30"/>
      </g>
     </g>
    </g>
    <g id="ytick_3">
     <g id="line2d_9">
      <g>
       <use style="stroke:#000000;stroke-width:0.8;" x="90" xlink:href="#m08158f423e" y="69.063896"/>
      </g>
     </g>
     <g id="text_10">
      <!-- 100 -->
      <g transform="translate(63.9125 72.863115)scale(0.1 -0.1)">
       <use xlink:href="#DejaVuSans-31"/>
       <use x="63.623047" xlink:href="#DejaVuSans-30"/>
       <use x="127.246094" xlink:href="#DejaVuSans-30"/>
      </g>
     </g>
    </g>
    <g id="ytick_4">
     <g id="line2d_10">
      <g>
       <use style="stroke:#000000;stroke-width:0.8;" x="90" xlink:href="#m08158f423e" y="37.895065"/>
      </g>
     </g>
     <g id="text_11">
      <!-- 150 -->
      <g transform="translate(63.9125 41.694284)scale(0.1 -0.1)">
       <use xlink:href="#DejaVuSans-31"/>
       <use x="63.623047" xlink:href="#DejaVuSans-35"/>
       <use x="127.246094" xlink:href="#DejaVuSans-30"/>
      </g>
     </g>
    </g>
   </g>
   <g id="line2d_11">
    <path clip-path="url(#p45fe4c7b3b)" d="M 115.363636 127.661299 
L 117.208264 128.284675 
L 119.052893 130.778182 
L 120.897521 130.778182 
L 122.742149 129.531429 
L 124.586777 129.531429 
L 126.431405 120.804156 
L 128.276033 120.804156 
L 130.120661 130.778182 
L 131.965289 130.778182 
L 133.809917 124.544416 
L 135.654545 126.414545 
L 137.499174 130.778182 
L 139.343802 127.661299 
L 141.18843 128.908052 
L 143.033058 128.908052 
L 144.877686 130.778182 
L 148.566942 128.284675 
L 150.41157 130.154805 
L 152.256198 130.778182 
L 154.100826 130.154805 
L 155.945455 130.154805 
L 157.790083 129.531429 
L 159.634711 130.154805 
L 161.479339 130.154805 
L 163.323967 128.908052 
L 165.168595 130.154805 
L 167.013223 130.154805 
L 168.857851 122.674286 
L 170.702479 127.661299 
L 172.547107 130.154805 
L 174.391736 115.817143 
L 176.236364 130.778182 
L 190.993388 130.778182 
L 192.838017 130.154805 
L 194.682645 130.778182 
L 207.595041 130.778182 
L 209.439669 128.908052 
L 211.284298 129.531429 
L 213.128926 130.778182 
L 214.973554 129.531429 
L 216.818182 127.661299 
L 218.66281 130.154805 
L 220.507438 130.154805 
L 222.352066 128.908052 
L 224.196694 120.804156 
L 226.041322 130.154805 
L 227.88595 130.778182 
L 229.730579 130.154805 
L 231.575207 127.037922 
L 233.419835 130.154805 
L 235.264463 129.531429 
L 237.109091 125.167792 
L 238.953719 128.908052 
L 240.798347 127.037922 
L 242.642975 130.154805 
L 244.487603 129.531429 
L 246.332231 130.154805 
L 248.17686 129.531429 
L 251.866116 129.531429 
L 253.710744 128.284675 
L 255.555372 130.778182 
L 257.4 130.778182 
L 259.244628 128.284675 
L 261.089256 128.284675 
L 262.933884 125.167792 
L 264.778512 129.531429 
L 266.62314 127.661299 
L 268.467769 130.778182 
L 270.312397 125.791169 
L 272.157025 128.908052 
L 274.001653 129.531429 
L 275.846281 128.908052 
L 277.690909 126.414545 
L 279.535537 130.154805 
L 281.380165 128.284675 
L 283.224793 121.427532 
L 285.069421 126.414545 
L 286.91405 120.804156 
L 288.758678 87.141818 
L 290.603306 127.661299 
L 292.447934 130.778182 
L 294.292562 128.908052 
L 296.13719 123.297662 
L 297.981818 124.544416 
L 299.826446 127.661299 
L 301.671074 119.557403 
L 303.515702 128.908052 
L 305.360331 128.908052 
L 307.204959 130.154805 
L 309.049587 122.674286 
L 310.894215 124.544416 
L 312.738843 130.778182 
L 314.583471 129.531429 
L 316.428099 130.778182 
L 318.272727 128.284675 
L 320.117355 100.232727 
L 321.961983 118.310649 
L 323.806612 121.427532 
L 325.65124 127.661299 
L 327.495868 130.778182 
L 329.340496 126.414545 
L 331.185124 128.908052 
L 333.029752 122.050909 
L 334.87438 122.674286 
L 336.719008 128.908052 
L 338.563636 123.297662 
L 340.408264 115.817143 
L 342.252893 122.674286 
L 344.097521 127.661299 
L 345.942149 115.817143 
L 347.786777 115.193766 
L 349.631405 115.193766 
L 351.476033 116.440519 
L 353.320661 92.128831 
L 355.165289 107.08987 
L 357.009917 109.583377 
L 358.854545 107.08987 
L 360.699174 107.713247 
L 362.543802 119.557403 
L 364.38843 110.206753 
L 366.233058 118.934026 
L 368.077686 129.531429 
L 369.922314 130.154805 
L 371.766942 116.440519 
L 373.61157 115.193766 
L 375.456198 114.57039 
L 377.300826 115.817143 
L 379.145455 111.453506 
L 380.990083 105.843117 
L 382.834711 128.284675 
L 384.679339 130.154805 
L 386.523967 116.440519 
L 388.368595 117.687273 
L 390.213223 119.557403 
L 392.057851 100.232727 
L 393.902479 115.817143 
L 395.747107 116.440519 
L 397.591736 130.154805 
L 399.436364 128.908052 
L 401.280992 114.57039 
L 403.12562 102.726234 
L 404.970248 102.102857 
L 406.814876 117.063896 
L 408.659504 113.323636 
L 410.504132 95.245714 
L 412.34876 117.063896 
L 414.193388 130.154805 
L 416.038017 114.57039 
L 417.882645 105.843117 
L 419.727273 107.713247 
L 421.571901 102.726234 
L 423.416529 108.96 
L 425.261157 111.453506 
L 427.105785 129.531429 
L 428.950413 115.193766 
L 430.795041 108.336623 
L 432.639669 110.206753 
L 434.484298 115.817143 
L 436.328926 115.193766 
L 438.173554 113.947013 
L 440.018182 125.791169 
L 441.86281 115.817143 
L 445.552066 113.323636 
L 447.396694 115.817143 
L 449.241322 116.440519 
L 451.08595 116.440519 
L 452.930579 130.778182 
L 454.775207 130.778182 
L 456.619835 115.193766 
L 458.464463 112.076883 
L 460.309091 115.193766 
L 462.153719 102.726234 
L 463.998347 105.843117 
L 465.842975 130.778182 
L 467.687603 115.817143 
L 469.532231 113.947013 
L 471.37686 113.323636 
L 473.221488 112.076883 
L 475.066116 117.063896 
L 476.910744 130.154805 
L 478.755372 114.57039 
L 480.6 115.193766 
L 482.444628 110.83013 
L 484.289256 105.21974 
L 486.133884 104.596364 
L 487.978512 39.141818 
L 489.82314 86.518442 
L 491.667769 130.778182 
L 493.512397 120.180779 
L 495.357025 118.310649 
L 497.201653 117.063896 
L 499.046281 117.687273 
L 500.890909 124.544416 
L 502.735537 130.778182 
L 504.580165 130.778182 
L 506.424793 130.154805 
L 508.269421 123.297662 
L 510.11405 125.167792 
L 511.958678 130.154805 
L 513.803306 128.908052 
L 515.647934 130.154805 
L 517.492562 130.778182 
L 519.33719 130.154805 
L 521.181818 130.778182 
L 523.026446 130.778182 
L 524.871074 128.908052 
L 526.715702 130.154805 
L 528.560331 129.531429 
L 530.404959 130.778182 
L 535.938843 130.778182 
L 537.783471 128.284675 
L 539.628099 128.908052 
L 541.472727 130.154805 
L 543.317355 130.778182 
L 545.161983 130.154805 
L 547.006612 130.778182 
L 548.85124 127.037922 
L 550.695868 130.778182 
L 552.540496 117.063896 
L 554.385124 130.154805 
L 556.229752 129.531429 
L 558.07438 130.778182 
L 561.763636 129.531429 
L 563.608264 130.778182 
L 565.452893 130.154805 
L 567.297521 130.778182 
L 569.142149 130.154805 
L 570.986777 128.908052 
L 572.831405 130.154805 
L 574.676033 129.531429 
L 576.520661 130.778182 
L 580.209917 130.778182 
L 583.899174 129.531429 
L 585.743802 127.037922 
L 587.58843 130.154805 
L 589.433058 130.154805 
L 591.277686 124.544416 
L 593.122314 125.791169 
L 594.966942 122.050909 
L 596.81157 130.778182 
L 600.500826 130.778182 
L 604.190083 129.531429 
L 606.034711 130.154805 
L 607.879339 125.167792 
L 609.723967 113.323636 
L 611.568595 127.661299 
L 613.413223 110.206753 
L 615.257851 126.414545 
L 617.102479 130.154805 
L 618.947107 130.778182 
L 622.636364 130.778182 
L 622.636364 130.778182 
" style="fill:none;stroke:#1f77b4;stroke-linecap:square;stroke-width:1.5;"/>
   </g>
   <g id="line2d_12">
    <path clip-path="url(#p45fe4c7b3b)" d="M 115.363636 127.661299 
L 117.208264 128.284675 
L 119.052893 130.778182 
L 120.897521 130.778182 
L 122.742149 129.531429 
L 124.586777 129.531429 
L 126.431405 130.154805 
L 128.276033 128.284675 
L 130.120661 130.778182 
L 131.965289 130.778182 
L 133.809917 124.544416 
L 135.654545 129.531429 
L 137.499174 130.778182 
L 139.343802 128.908052 
L 141.18843 128.908052 
L 143.033058 129.531429 
L 144.877686 130.778182 
L 146.722314 129.531429 
L 148.566942 128.908052 
L 150.41157 130.154805 
L 152.256198 130.778182 
L 154.100826 130.154805 
L 155.945455 130.778182 
L 157.790083 129.531429 
L 161.479339 130.778182 
L 163.323967 130.154805 
L 165.168595 130.778182 
L 167.013223 130.154805 
L 168.857851 125.791169 
L 170.702479 127.661299 
L 172.547107 130.154805 
L 174.391736 125.167792 
L 176.236364 130.778182 
L 190.993388 130.778182 
L 192.838017 130.154805 
L 194.682645 130.778182 
L 207.595041 130.778182 
L 209.439669 129.531429 
L 211.284298 130.778182 
L 213.128926 130.778182 
L 216.818182 129.531429 
L 218.66281 130.778182 
L 222.352066 130.778182 
L 224.196694 124.544416 
L 226.041322 130.778182 
L 227.88595 130.778182 
L 229.730579 130.154805 
L 231.575207 128.908052 
L 233.419835 130.154805 
L 235.264463 129.531429 
L 237.109091 127.037922 
L 238.953719 129.531429 
L 240.798347 130.778182 
L 242.642975 130.154805 
L 244.487603 130.778182 
L 246.332231 130.154805 
L 248.17686 130.778182 
L 250.021488 129.531429 
L 253.710744 129.531429 
L 255.555372 130.778182 
L 257.4 130.778182 
L 262.933884 127.037922 
L 264.778512 129.531429 
L 266.62314 128.284675 
L 268.467769 130.778182 
L 270.312397 127.037922 
L 272.157025 128.908052 
L 274.001653 129.531429 
L 275.846281 128.908052 
L 277.690909 126.414545 
L 279.535537 130.154805 
L 281.380165 128.284675 
L 283.224793 124.544416 
L 285.069421 127.037922 
L 286.91405 123.297662 
L 288.758678 108.96 
L 290.603306 127.661299 
L 292.447934 130.778182 
L 294.292562 129.531429 
L 296.13719 123.921039 
L 299.826446 127.661299 
L 301.671074 122.050909 
L 303.515702 128.908052 
L 305.360331 128.908052 
L 307.204959 130.154805 
L 309.049587 124.544416 
L 310.894215 124.544416 
L 312.738843 130.778182 
L 314.583471 129.531429 
L 316.428099 130.778182 
L 318.272727 128.908052 
L 320.117355 116.440519 
L 321.961983 122.674286 
L 323.806612 124.544416 
L 325.65124 128.284675 
L 327.495868 130.778182 
L 329.340496 127.661299 
L 331.185124 130.154805 
L 333.029752 123.921039 
L 334.87438 123.921039 
L 336.719008 129.531429 
L 338.563636 123.921039 
L 340.408264 120.180779 
L 342.252893 123.297662 
L 344.097521 128.284675 
L 345.942149 120.804156 
L 347.786777 120.804156 
L 349.631405 125.167792 
L 351.476033 130.154805 
L 353.320661 121.427532 
L 355.165289 128.908052 
L 357.009917 129.531429 
L 358.854545 125.791169 
L 360.699174 125.791169 
L 362.543802 121.427532 
L 364.38843 125.167792 
L 366.233058 130.778182 
L 368.077686 130.154805 
L 369.922314 130.154805 
L 371.766942 130.778182 
L 373.61157 129.531429 
L 375.456198 128.908052 
L 377.300826 129.531429 
L 380.990083 120.804156 
L 382.834711 128.284675 
L 384.679339 130.154805 
L 386.523967 130.778182 
L 388.368595 128.908052 
L 390.213223 130.778182 
L 392.057851 117.687273 
L 393.902479 130.778182 
L 395.747107 129.531429 
L 397.591736 130.154805 
L 401.280992 130.154805 
L 403.12562 118.934026 
L 404.970248 118.934026 
L 406.814876 128.908052 
L 408.659504 127.037922 
L 410.504132 115.817143 
L 412.34876 120.180779 
L 414.193388 130.154805 
L 416.038017 130.778182 
L 417.882645 125.791169 
L 421.571901 129.531429 
L 423.416529 128.908052 
L 425.261157 130.154805 
L 427.105785 130.154805 
L 428.950413 130.778182 
L 430.795041 123.921039 
L 432.639669 125.167792 
L 434.484298 130.778182 
L 436.328926 130.154805 
L 438.173554 128.908052 
L 440.018182 127.037922 
L 441.86281 130.778182 
L 443.707438 130.154805 
L 445.552066 128.908052 
L 447.396694 130.778182 
L 449.241322 129.531429 
L 451.08595 129.531429 
L 452.930579 130.778182 
L 456.619835 130.778182 
L 458.464463 127.661299 
L 460.309091 130.778182 
L 462.153719 128.908052 
L 463.998347 125.791169 
L 465.842975 130.778182 
L 467.687603 130.778182 
L 469.532231 130.154805 
L 471.37686 128.908052 
L 476.910744 130.778182 
L 478.755372 130.154805 
L 480.6 130.778182 
L 482.444628 126.414545 
L 484.289256 126.414545 
L 486.133884 127.661299 
L 487.978512 130.778182 
L 489.82314 121.427532 
L 491.667769 130.778182 
L 493.512397 130.778182 
L 495.357025 130.154805 
L 497.201653 126.414545 
L 499.046281 127.037922 
L 500.890909 125.791169 
L 502.735537 130.778182 
L 504.580165 130.778182 
L 506.424793 130.154805 
L 508.269421 123.297662 
L 510.11405 126.414545 
L 511.958678 130.154805 
L 513.803306 128.908052 
L 515.647934 130.778182 
L 517.492562 130.778182 
L 519.33719 130.154805 
L 521.181818 130.778182 
L 523.026446 130.778182 
L 524.871074 128.908052 
L 526.715702 130.154805 
L 528.560331 129.531429 
L 530.404959 130.778182 
L 535.938843 130.778182 
L 537.783471 128.284675 
L 539.628099 128.908052 
L 541.472727 130.154805 
L 543.317355 130.778182 
L 545.161983 130.154805 
L 547.006612 130.778182 
L 548.85124 127.661299 
L 550.695868 130.778182 
L 552.540496 130.778182 
L 556.229752 129.531429 
L 558.07438 130.778182 
L 561.763636 129.531429 
L 563.608264 130.778182 
L 565.452893 130.154805 
L 567.297521 130.778182 
L 569.142149 130.154805 
L 570.986777 128.908052 
L 572.831405 130.154805 
L 574.676033 129.531429 
L 576.520661 130.778182 
L 580.209917 130.778182 
L 583.899174 129.531429 
L 585.743802 127.037922 
L 587.58843 130.154805 
L 589.433058 130.778182 
L 591.277686 124.544416 
L 593.122314 125.791169 
L 594.966942 123.921039 
L 596.81157 130.778182 
L 600.500826 130.778182 
L 604.190083 129.531429 
L 606.034711 130.778182 
L 607.879339 125.791169 
L 609.723967 122.050909 
L 611.568595 130.154805 
L 613.413223 121.427532 
L 615.257851 127.661299 
L 617.102479 130.778182 
L 622.636364 130.778182 
L 622.636364 130.778182 
" style="fill:none;stroke:#ff7f0e;stroke-linecap:square;stroke-width:1.5;"/>
   </g>
   <g id="patch_3">
    <path d="M 90 135.36 
L 90 34.56 
" style="fill:none;stroke:#000000;stroke-linecap:square;stroke-linejoin:miter;stroke-width:0.8;"/>
   </g>
   <g id="patch_4">
    <path d="M 648 135.36 
L 648 34.56 
" style="fill:none;stroke:#000000;stroke-linecap:square;stroke-linejoin:miter;stroke-width:0.8;"/>
   </g>
   <g id="patch_5">
    <path d="M 90 135.36 
L 648 135.36 
" style="fill:none;stroke:#000000;stroke-linecap:square;stroke-linejoin:miter;stroke-width:0.8;"/>
   </g>
   <g id="patch_6">
    <path d="M 90 34.56 
L 648 34.56 
" style="fill:none;stroke:#000000;stroke-linecap:square;stroke-linejoin:miter;stroke-width:0.8;"/>
   </g>
   <g id="legend_1">
    <g id="patch_7">
     <path d="M 499.1375 71.91625 
L 641 71.91625 
Q 643 71.91625 643 69.91625 
L 643 41.56 
Q 643 39.56 641 39.56 
L 499.1375 39.56 
Q 497.1375 39.56 497.1375 41.56 
L 497.1375 69.91625 
Q 497.1375 71.91625 499.1375 71.91625 
z
" style="fill:#ffffff;opacity:0.8;stroke:#cccccc;stroke-linejoin:miter;"/>
    </g>
    <g id="line2d_13">
     <path d="M 501.1375 47.658437 
L 521.1375 47.658437 
" style="fill:none;stroke:#1f77b4;stroke-linecap:square;stroke-width:1.5;"/>
    </g>
    <g id="line2d_14"/>
    <g id="text_12">
     <!-- Total GitHub Clones -->
     <g transform="translate(529.1375 51.158437)scale(0.1 -0.1)">
      <defs>
       <path d="M -19 4666 
L 3928 4666 
L 3928 4134 
L 2272 4134 
L 2272 0 
L 1638 0 
L 1638 4134 
L -19 4134 
L -19 4666 
z
" id="DejaVuSans-54" transform="scale(0.015625)"/>
       <path d="M 1959 3097 
Q 1497 3097 1228 2736 
Q 959 2375 959 1747 
Q 959 1119 1226 758 
Q 1494 397 1959 397 
Q 2419 397 2687 759 
Q 2956 1122 2956 1747 
Q 2956 2369 2687 2733 
Q 2419 3097 1959 3097 
z
M 1959 3584 
Q 2709 3584 3137 3096 
Q 3566 2609 3566 1747 
Q 3566 888 3137 398 
Q 2709 -91 1959 -91 
Q 1206 -91 779 398 
Q 353 888 353 1747 
Q 353 2609 779 3096 
Q 1206 3584 1959 3584 
z
" id="DejaVuSans-6f" transform="scale(0.015625)"/>
       <path d="M 603 4863 
L 1178 4863 
L 1178 0 
L 603 0 
L 603 4863 
z
" id="DejaVuSans-6c" transform="scale(0.015625)"/>
       <path id="DejaVuSans-20" transform="scale(0.015625)"/>
       <path d="M 3809 666 
L 3809 1919 
L 2778 1919 
L 2778 2438 
L 4434 2438 
L 4434 434 
Q 4069 175 3628 42 
Q 3188 -91 2688 -91 
Q 1594 -91 976 548 
Q 359 1188 359 2328 
Q 359 3472 976 4111 
Q 1594 4750 2688 4750 
Q 3144 4750 3555 4637 
Q 3966 4525 4313 4306 
L 4313 3634 
Q 3963 3931 3569 4081 
Q 3175 4231 2741 4231 
Q 1884 4231 1454 3753 
Q 1025 3275 1025 2328 
Q 1025 1384 1454 906 
Q 1884 428 2741 428 
Q 3075 428 3337 486 
Q 3600 544 3809 666 
z
" id="DejaVuSans-47" transform="scale(0.015625)"/>
       <path d="M 603 3500 
L 1178 3500 
L 1178 0 
L 603 0 
L 603 3500 
z
M 603 4863 
L 1178 4863 
L 1178 4134 
L 603 4134 
L 603 4863 
z
" id="DejaVuSans-69" transform="scale(0.015625)"/>
       <path d="M 628 4666 
L 1259 4666 
L 1259 2753 
L 3553 2753 
L 3553 4666 
L 4184 4666 
L 4184 0 
L 3553 0 
L 3553 2222 
L 1259 2222 
L 1259 0 
L 628 0 
L 628 4666 
z
" id="DejaVuSans-48" transform="scale(0.015625)"/>
       <path d="M 544 1381 
L 544 3500 
L 1119 3500 
L 1119 1403 
Q 1119 906 1312 657 
Q 1506 409 1894 409 
Q 2359 409 2629 706 
Q 2900 1003 2900 1516 
L 2900 3500 
L 3475 3500 
L 3475 0 
L 2900 0 
L 2900 538 
Q 2691 219 2414 64 
Q 2138 -91 1772 -91 
Q 1169 -91 856 284 
Q 544 659 544 1381 
z
M 1991 3584 
L 1991 3584 
z
" id="DejaVuSans-75" transform="scale(0.015625)"/>
       <path d="M 3116 1747 
Q 3116 2381 2855 2742 
Q 2594 3103 2138 3103 
Q 1681 3103 1420 2742 
Q 1159 2381 1159 1747 
Q 1159 1113 1420 752 
Q 1681 391 2138 391 
Q 2594 391 2855 752 
Q 3116 1113 3116 1747 
z
M 1159 2969 
Q 1341 3281 1617 3432 
Q 1894 3584 2278 3584 
Q 2916 3584 3314 3078 
Q 3713 2572 3713 1747 
Q 3713 922 3314 415 
Q 2916 -91 2278 -91 
Q 1894 -91 1617 61 
Q 1341 213 1159 525 
L 1159 0 
L 581 0 
L 581 4863 
L 1159 4863 
L 1159 2969 
z
" id="DejaVuSans-62" transform="scale(0.015625)"/>
       <path d="M 4122 4306 
L 4122 3641 
Q 3803 3938 3442 4084 
Q 3081 4231 2675 4231 
Q 1875 4231 1450 3742 
Q 1025 3253 1025 2328 
Q 1025 1406 1450 917 
Q 1875 428 2675 428 
Q 3081 428 3442 575 
Q 3803 722 4122 1019 
L 4122 359 
Q 3791 134 3420 21 
Q 3050 -91 2638 -91 
Q 1578 -91 968 557 
Q 359 1206 359 2328 
Q 359 3453 968 4101 
Q 1578 4750 2638 4750 
Q 3056 4750 3426 4639 
Q 3797 4528 4122 4306 
z
" id="DejaVuSans-43" transform="scale(0.015625)"/>
       <path d="M 3513 2113 
L 3513 0 
L 2938 0 
L 2938 2094 
Q 2938 2591 2744 2837 
Q 2550 3084 2163 3084 
Q 1697 3084 1428 2787 
Q 1159 2491 1159 1978 
L 1159 0 
L 581 0 
L 581 3500 
L 1159 3500 
L 1159 2956 
Q 1366 3272 1645 3428 
Q 1925 3584 2291 3584 
Q 2894 3584 3203 3211 
Q 3513 2838 3513 2113 
z
" id="DejaVuSans-6e" transform="scale(0.015625)"/>
       <path d="M 2834 3397 
L 2834 2853 
Q 2591 2978 2328 3040 
Q 2066 3103 1784 3103 
Q 1356 3103 1142 2972 
Q 928 2841 928 2578 
Q 928 2378 1081 2264 
Q 1234 2150 1697 2047 
L 1894 2003 
Q 2506 1872 2764 1633 
Q 3022 1394 3022 966 
Q 3022 478 2636 193 
Q 2250 -91 1575 -91 
Q 1294 -91 989 -36 
Q 684 19 347 128 
L 347 722 
Q 666 556 975 473 
Q 1284 391 1588 391 
Q 1994 391 2212 530 
Q 2431 669 2431 922 
Q 2431 1156 2273 1281 
Q 2116 1406 1581 1522 
L 1381 1569 
Q 847 1681 609 1914 
Q 372 2147 372 2553 
Q 372 3047 722 3315 
Q 1072 3584 1716 3584 
Q 2034 3584 2315 3537 
Q 2597 3491 2834 3397 
z
" id="DejaVuSans-73" transform="scale(0.015625)"/>
      </defs>
      <use xlink:href="#DejaVuSans-54"/>
      <use x="44.083984" xlink:href="#DejaVuSans-6f"/>
      <use x="105.265625" xlink:href="#DejaVuSans-74"/>
      <use x="144.474609" xlink:href="#DejaVuSans-61"/>
      <use x="205.753906" xlink:href="#DejaVuSans-6c"/>
      <use x="233.537109" xlink:href="#DejaVuSans-20"/>
      <use x="265.324219" xlink:href="#DejaVuSans-47"/>
      <use x="342.814453" xlink:href="#DejaVuSans-69"/>
      <use x="370.597656" xlink:href="#DejaVuSans-74"/>
      <use x="409.806641" xlink:href="#DejaVuSans-48"/>
      <use x="485.001953" xlink:href="#DejaVuSans-75"/>
      <use x="548.380859" xlink:href="#DejaVuSans-62"/>
      <use x="611.857422" xlink:href="#DejaVuSans-20"/>
      <use x="643.644531" xlink:href="#DejaVuSans-43"/>
      <use x="713.46875" xlink:href="#DejaVuSans-6c"/>
      <use x="741.251953" xlink:href="#DejaVuSans-6f"/>
      <use x="802.433594" xlink:href="#DejaVuSans-6e"/>
      <use x="865.8125" xlink:href="#DejaVuSans-65"/>
      <use x="927.335938" xlink:href="#DejaVuSans-73"/>
     </g>
    </g>
    <g id="line2d_15">
     <path d="M 501.1375 62.336562 
L 521.1375 62.336562 
" style="fill:none;stroke:#ff7f0e;stroke-linecap:square;stroke-width:1.5;"/>
    </g>
    <g id="line2d_16"/>
    <g id="text_13">
     <!-- Unique GitHub Clones -->
     <g transform="translate(529.1375 65.836562)scale(0.1 -0.1)">
      <defs>
       <path d="M 556 4666 
L 1191 4666 
L 1191 1831 
Q 1191 1081 1462 751 
Q 1734 422 2344 422 
Q 2950 422 3222 751 
Q 3494 1081 3494 1831 
L 3494 4666 
L 4128 4666 
L 4128 1753 
Q 4128 841 3676 375 
Q 3225 -91 2344 -91 
Q 1459 -91 1007 375 
Q 556 841 556 1753 
L 556 4666 
z
" id="DejaVuSans-55" transform="scale(0.015625)"/>
       <path d="M 947 1747 
Q 947 1113 1208 752 
Q 1469 391 1925 391 
Q 2381 391 2643 752 
Q 2906 1113 2906 1747 
Q 2906 2381 2643 2742 
Q 2381 3103 1925 3103 
Q 1469 3103 1208 2742 
Q 947 2381 947 1747 
z
M 2906 525 
Q 2725 213 2448 61 
Q 2172 -91 1784 -91 
Q 1150 -91 751 415 
Q 353 922 353 1747 
Q 353 2572 751 3078 
Q 1150 3584 1784 3584 
Q 2172 3584 2448 3432 
Q 2725 3281 2906 2969 
L 2906 3500 
L 3481 3500 
L 3481 -1331 
L 2906 -1331 
L 2906 525 
z
" id="DejaVuSans-71" transform="scale(0.015625)"/>
      </defs>
      <use xlink:href="#DejaVuSans-55"/>
      <use x="73.193359" xlink:href="#DejaVuSans-6e"/>
      <use x="136.572266" xlink:href="#DejaVuSans-69"/>
      <use x="164.355469" xlink:href="#DejaVuSans-71"/>
      <use x="227.832031" xlink:href="#DejaVuSans-75"/>
      <use x="291.210938" xlink:href="#DejaVuSans-65"/>
      <use x="352.734375" xlink:href="#DejaVuSans-20"/>
      <use x="384.521484" xlink:href="#DejaVuSans-47"/>
      <use x="462.011719" xlink:href="#DejaVuSans-69"/>
      <use x="489.794922" xlink:href="#DejaVuSans-74"/>
      <use x="529.003906" xlink:href="#DejaVuSans-48"/>
      <use x="604.199219" xlink:href="#DejaVuSans-75"/>
      <use x="667.578125" xlink:href="#DejaVuSans-62"/>
      <use x="731.054688" xlink:href="#DejaVuSans-20"/>
      <use x="762.841797" xlink:href="#DejaVuSans-43"/>
      <use x="832.666016" xlink:href="#DejaVuSans-6c"/>
      <use x="860.449219" xlink:href="#DejaVuSans-6f"/>
      <use x="921.630859" xlink:href="#DejaVuSans-6e"/>
      <use x="985.009766" xlink:href="#DejaVuSans-65"/>
      <use x="1046.533203" xlink:href="#DejaVuSans-73"/>
     </g>
    </g>
   </g>
  </g>
  <g id="axes_2">
   <g id="patch_8">
    <path d="M 90 256.32 
L 648 256.32 
L 648 155.52 
L 90 155.52 
z
" style="fill:#ffffff;"/>
   </g>
   <g id="matplotlib.axis_3">
    <g id="xtick_7">
     <g id="line2d_17">
      <g>
       <use style="stroke:#000000;stroke-width:0.8;" x="115.363636" xlink:href="#mc867a92a53" y="256.32"/>
      </g>
     </g>
     <g id="text_14">
      <!-- 2020-10-21 -->
      <g transform="translate(86.305824 270.918437)scale(0.1 -0.1)">
       <use xlink:href="#DejaVuSans-32"/>
       <use x="63.623047" xlink:href="#DejaVuSans-30"/>
       <use x="127.246094" xlink:href="#DejaVuSans-32"/>
       <use x="190.869141" xlink:href="#DejaVuSans-30"/>
       <use x="254.492188" xlink:href="#DejaVuSans-2d"/>
       <use x="290.576172" xlink:href="#DejaVuSans-31"/>
       <use x="354.199219" xlink:href="#DejaVuSans-30"/>
       <use x="417.822266" xlink:href="#DejaVuSans-2d"/>
       <use x="453.90625" xlink:href="#DejaVuSans-32"/>
       <use x="517.529297" xlink:href="#DejaVuSans-31"/>
      </g>
     </g>
    </g>
    <g id="xtick_8">
     <g id="line2d_18">
      <g>
       <use style="stroke:#000000;stroke-width:0.8;" x="190.626652" xlink:href="#mc867a92a53" y="256.32"/>
      </g>
     </g>
     <g id="text_15">
      <!-- 2020-12-11 -->
      <g transform="translate(161.56884 270.918437)scale(0.1 -0.1)">
       <use xlink:href="#DejaVuSans-32"/>
       <use x="63.623047" xlink:href="#DejaVuSans-30"/>
       <use x="127.246094" xlink:href="#DejaVuSans-32"/>
       <use x="190.869141" xlink:href="#DejaVuSans-30"/>
       <use x="254.492188" xlink:href="#DejaVuSans-2d"/>
       <use x="290.576172" xlink:href="#DejaVuSans-31"/>
       <use x="354.199219" xlink:href="#DejaVuSans-32"/>
       <use x="417.822266" xlink:href="#DejaVuSans-2d"/>
       <use x="453.90625" xlink:href="#DejaVuSans-31"/>
       <use x="517.529297" xlink:href="#DejaVuSans-31"/>
      </g>
     </g>
    </g>
    <g id="xtick_9">
     <g id="line2d_19">
      <g>
       <use style="stroke:#000000;stroke-width:0.8;" x="265.889668" xlink:href="#mc867a92a53" y="256.32"/>
      </g>
     </g>
     <g id="text_16">
      <!-- 2021-01-31 -->
      <g transform="translate(236.831856 270.918437)scale(0.1 -0.1)">
       <use xlink:href="#DejaVuSans-32"/>
       <use x="63.623047" xlink:href="#DejaVuSans-30"/>
       <use x="127.246094" xlink:href="#DejaVuSans-32"/>
       <use x="190.869141" xlink:href="#DejaVuSans-31"/>
       <use x="254.492188" xlink:href="#DejaVuSans-2d"/>
       <use x="290.576172" xlink:href="#DejaVuSans-30"/>
       <use x="354.199219" xlink:href="#DejaVuSans-31"/>
       <use x="417.822266" xlink:href="#DejaVuSans-2d"/>
       <use x="453.90625" xlink:href="#DejaVuSans-33"/>
       <use x="517.529297" xlink:href="#DejaVuSans-31"/>
      </g>
     </g>
    </g>
    <g id="xtick_10">
     <g id="line2d_20">
      <g>
       <use style="stroke:#000000;stroke-width:0.8;" x="341.152684" xlink:href="#mc867a92a53" y="256.32"/>
      </g>
     </g>
     <g id="text_17">
      <!-- 2021-03-22 -->
      <g transform="translate(312.094872 270.918437)scale(0.1 -0.1)">
       <use xlink:href="#DejaVuSans-32"/>
       <use x="63.623047" xlink:href="#DejaVuSans-30"/>
       <use x="127.246094" xlink:href="#DejaVuSans-32"/>
       <use x="190.869141" xlink:href="#DejaVuSans-31"/>
       <use x="254.492188" xlink:href="#DejaVuSans-2d"/>
       <use x="290.576172" xlink:href="#DejaVuSans-30"/>
       <use x="354.199219" xlink:href="#DejaVuSans-33"/>
       <use x="417.822266" xlink:href="#DejaVuSans-2d"/>
       <use x="453.90625" xlink:href="#DejaVuSans-32"/>
       <use x="517.529297" xlink:href="#DejaVuSans-32"/>
      </g>
     </g>
    </g>
    <g id="xtick_11">
     <g id="line2d_21">
      <g>
       <use style="stroke:#000000;stroke-width:0.8;" x="416.4157" xlink:href="#mc867a92a53" y="256.32"/>
      </g>
     </g>
     <g id="text_18">
      <!-- 2021-05-10 -->
      <g transform="translate(387.357888 270.918437)scale(0.1 -0.1)">
       <use xlink:href="#DejaVuSans-32"/>
       <use x="63.623047" xlink:href="#DejaVuSans-30"/>
       <use x="127.246094" xlink:href="#DejaVuSans-32"/>
       <use x="190.869141" xlink:href="#DejaVuSans-31"/>
       <use x="254.492188" xlink:href="#DejaVuSans-2d"/>
       <use x="290.576172" xlink:href="#DejaVuSans-30"/>
       <use x="354.199219" xlink:href="#DejaVuSans-35"/>
       <use x="417.822266" xlink:href="#DejaVuSans-2d"/>
       <use x="453.90625" xlink:href="#DejaVuSans-31"/>
       <use x="517.529297" xlink:href="#DejaVuSans-30"/>
      </g>
     </g>
    </g>
    <g id="xtick_12">
     <g id="line2d_22">
      <g>
       <use style="stroke:#000000;stroke-width:0.8;" x="491.678716" xlink:href="#mc867a92a53" y="256.32"/>
      </g>
     </g>
     <g id="text_19">
      <!-- 2021-06-29 -->
      <g transform="translate(462.620903 270.918437)scale(0.1 -0.1)">
       <use xlink:href="#DejaVuSans-32"/>
       <use x="63.623047" xlink:href="#DejaVuSans-30"/>
       <use x="127.246094" xlink:href="#DejaVuSans-32"/>
       <use x="190.869141" xlink:href="#DejaVuSans-31"/>
       <use x="254.492188" xlink:href="#DejaVuSans-2d"/>
       <use x="290.576172" xlink:href="#DejaVuSans-30"/>
       <use x="354.199219" xlink:href="#DejaVuSans-36"/>
       <use x="417.822266" xlink:href="#DejaVuSans-2d"/>
       <use x="453.90625" xlink:href="#DejaVuSans-32"/>
       <use x="517.529297" xlink:href="#DejaVuSans-39"/>
      </g>
     </g>
    </g>
    <g id="xtick_13">
     <g id="line2d_23">
      <g>
       <use style="stroke:#000000;stroke-width:0.8;" x="566.941732" xlink:href="#mc867a92a53" y="256.32"/>
      </g>
     </g>
     <g id="text_20">
      <!-- 2021-08-17 -->
      <g transform="translate(537.883919 270.918437)scale(0.1 -0.1)">
       <use xlink:href="#DejaVuSans-32"/>
       <use x="63.623047" xlink:href="#DejaVuSans-30"/>
       <use x="127.246094" xlink:href="#DejaVuSans-32"/>
       <use x="190.869141" xlink:href="#DejaVuSans-31"/>
       <use x="254.492188" xlink:href="#DejaVuSans-2d"/>
       <use x="290.576172" xlink:href="#DejaVuSans-30"/>
       <use x="354.199219" xlink:href="#DejaVuSans-38"/>
       <use x="417.822266" xlink:href="#DejaVuSans-2d"/>
       <use x="453.90625" xlink:href="#DejaVuSans-31"/>
       <use x="517.529297" xlink:href="#DejaVuSans-37"/>
      </g>
     </g>
    </g>
    <g id="xtick_14">
     <g id="line2d_24">
      <g>
       <use style="stroke:#000000;stroke-width:0.8;" x="642.204748" xlink:href="#mc867a92a53" y="256.32"/>
      </g>
     </g>
    </g>
    <g id="text_21">
     <!-- _date -->
     <g transform="translate(355.225 284.596563)scale(0.1 -0.1)">
      <use xlink:href="#DejaVuSans-5f"/>
      <use x="50" xlink:href="#DejaVuSans-64"/>
      <use x="113.476562" xlink:href="#DejaVuSans-61"/>
      <use x="174.755859" xlink:href="#DejaVuSans-74"/>
      <use x="213.964844" xlink:href="#DejaVuSans-65"/>
     </g>
    </g>
   </g>
   <g id="matplotlib.axis_4">
    <g id="ytick_5">
     <g id="line2d_25">
      <g>
       <use style="stroke:#000000;stroke-width:0.8;" x="90" xlink:href="#m08158f423e" y="252.029091"/>
      </g>
     </g>
     <g id="text_22">
      <!-- 0 -->
      <g transform="translate(76.6375 255.82831)scale(0.1 -0.1)">
       <use xlink:href="#DejaVuSans-30"/>
      </g>
     </g>
    </g>
    <g id="ytick_6">
     <g id="line2d_26">
      <g>
       <use style="stroke:#000000;stroke-width:0.8;" x="90" xlink:href="#m08158f423e" y="222.938182"/>
      </g>
     </g>
     <g id="text_23">
      <!-- 100 -->
      <g transform="translate(63.9125 226.737401)scale(0.1 -0.1)">
       <use xlink:href="#DejaVuSans-31"/>
       <use x="63.623047" xlink:href="#DejaVuSans-30"/>
       <use x="127.246094" xlink:href="#DejaVuSans-30"/>
      </g>
     </g>
    </g>
    <g id="ytick_7">
     <g id="line2d_27">
      <g>
       <use style="stroke:#000000;stroke-width:0.8;" x="90" xlink:href="#m08158f423e" y="193.847273"/>
      </g>
     </g>
     <g id="text_24">
      <!-- 200 -->
      <g transform="translate(63.9125 197.646491)scale(0.1 -0.1)">
       <use xlink:href="#DejaVuSans-32"/>
       <use x="63.623047" xlink:href="#DejaVuSans-30"/>
       <use x="127.246094" xlink:href="#DejaVuSans-30"/>
      </g>
     </g>
    </g>
    <g id="ytick_8">
     <g id="line2d_28">
      <g>
       <use style="stroke:#000000;stroke-width:0.8;" x="90" xlink:href="#m08158f423e" y="164.756364"/>
      </g>
     </g>
     <g id="text_25">
      <!-- 300 -->
      <g transform="translate(63.9125 168.555582)scale(0.1 -0.1)">
       <use xlink:href="#DejaVuSans-33"/>
       <use x="63.623047" xlink:href="#DejaVuSans-30"/>
       <use x="127.246094" xlink:href="#DejaVuSans-30"/>
      </g>
     </g>
    </g>
   </g>
   <g id="line2d_29">
    <path clip-path="url(#pd8446907df)" d="M 115.363636 251.738182 
L 116.868897 230.210909 
L 118.374157 227.592727 
L 119.879417 244.174545 
L 121.384678 251.447273 
L 122.889938 238.356364 
L 124.395198 238.065455 
L 125.900459 233.992727 
L 127.405719 238.065455 
L 128.910979 238.938182 
L 130.41624 250.574545 
L 131.9215 248.247273 
L 133.42676 247.374545 
L 134.932021 238.938182 
L 136.437281 210.429091 
L 137.942541 225.265455 
L 139.447801 243.592727 
L 140.953062 247.083636 
L 142.458322 251.156364 
L 143.963582 238.065455 
L 145.468843 223.52 
L 146.974103 245.629091 
L 148.479363 243.010909 
L 149.984624 236.32 
L 151.489884 236.32 
L 152.995144 249.701818 
L 154.500405 236.610909 
L 156.005665 232.829091 
L 157.510925 243.301818 
L 159.016186 243.301818 
L 160.521446 238.356364 
L 162.026706 246.792727 
L 163.531967 249.12 
L 165.037227 225.556364 
L 166.542487 248.829091 
L 168.047748 247.956364 
L 169.553008 249.701818 
L 171.058268 247.665455 
L 172.563528 251.447273 
L 174.068789 251.447273 
L 175.574049 227.301818 
L 177.079309 214.210909 
L 178.58457 243.592727 
L 180.08983 245.047273 
L 181.59509 225.847273 
L 183.100351 250.865455 
L 184.605611 244.756364 
L 186.110871 241.265455 
L 187.616132 245.92 
L 189.121392 235.738182 
L 190.626652 246.792727 
L 192.131913 250.865455 
L 193.637173 251.738182 
L 195.142433 243.592727 
L 196.647694 241.847273 
L 198.152954 242.138182 
L 199.658214 240.683636 
L 201.163475 248.829091 
L 202.668735 250.865455 
L 204.173995 250.574545 
L 205.679255 247.083636 
L 207.184516 247.665455 
L 208.689776 242.429091 
L 210.195036 249.992727 
L 211.700297 251.156364 
L 213.205557 251.447273 
L 214.710817 248.247273 
L 216.216078 249.410909 
L 217.721338 250.283636 
L 219.226598 251.738182 
L 220.731859 247.083636 
L 222.237119 247.374545 
L 223.742379 250.865455 
L 225.24764 246.210909 
L 226.7529 242.429091 
L 228.25816 239.810909 
L 229.763421 247.665455 
L 231.268681 248.829091 
L 232.773941 231.956364 
L 234.279202 250.283636 
L 235.784462 233.701818 
L 237.289722 235.447273 
L 238.794982 239.810909 
L 240.300243 233.12 
L 241.805503 246.792727 
L 243.310763 234.574545 
L 244.816024 251.156364 
L 246.321284 233.410909 
L 247.826544 234.865455 
L 249.331805 226.138182 
L 250.837065 232.247273 
L 252.342325 239.810909 
L 253.847586 242.72 
L 255.352846 248.247273 
L 256.858106 228.465455 
L 258.363367 223.810909 
L 259.868627 236.029091 
L 261.373887 234.574545 
L 262.879148 231.956364 
L 264.384408 247.374545 
L 265.889668 248.538182 
L 267.394929 229.629091 
L 268.900189 246.792727 
L 271.910709 232.829091 
L 274.92123 250.865455 
L 276.42649 247.665455 
L 277.931751 235.156364 
L 279.437011 234.574545 
L 280.942271 224.683636 
L 282.447532 241.847273 
L 283.952792 250.283636 
L 285.458052 250.574545 
L 286.963313 249.12 
L 288.468573 242.429091 
L 289.973833 242.72 
L 291.479094 246.792727 
L 292.984354 230.501818 
L 294.489614 248.247273 
L 295.994875 241.847273 
L 297.500135 238.938182 
L 299.005395 240.683636 
L 300.510656 224.974545 
L 302.015916 235.447273 
L 303.521176 234.574545 
L 305.026436 239.810909 
L 306.531697 238.065455 
L 308.036957 239.229091 
L 309.542217 181.92 
L 311.047478 245.629091 
L 312.552738 230.501818 
L 314.057998 234.283636 
L 315.563259 226.429091 
L 317.068519 241.556364 
L 318.573779 198.792727 
L 320.07904 197.047273 
L 321.5843 203.156364 
L 323.08956 228.756364 
L 324.594821 172.029091 
L 326.100081 222.938182 
L 327.605341 245.92 
L 329.110602 245.047273 
L 330.615862 237.192727 
L 332.121122 230.792727 
L 333.626383 227.301818 
L 335.131643 234.283636 
L 336.636903 223.229091 
L 338.142163 243.592727 
L 339.647424 245.629091 
L 341.152684 204.32 
L 342.657944 232.247273 
L 344.163205 233.992727 
L 345.668465 246.210909 
L 347.173725 248.538182 
L 348.678986 247.956364 
L 350.184246 232.538182 
L 351.689506 182.501818 
L 353.194767 229.338182 
L 354.700027 233.992727 
L 356.205287 213.338182 
L 357.710548 244.174545 
L 359.215808 248.247273 
L 360.721068 244.756364 
L 362.226329 221.192727 
L 363.731589 238.356364 
L 365.236849 222.647273 
L 366.74211 199.083636 
L 368.24737 233.410909 
L 369.75263 240.974545 
L 371.25789 245.92 
L 372.763151 175.229091 
L 374.268411 174.356364 
L 375.773671 227.010909 
L 377.278932 243.301818 
L 378.784192 234.865455 
L 380.289452 236.32 
L 381.794713 248.829091 
L 383.299973 246.792727 
L 384.805233 185.992727 
L 386.310494 179.010909 
L 387.815754 197.047273 
L 389.321014 242.72 
L 390.826275 249.12 
L 392.331535 236.32 
L 393.836795 247.374545 
L 395.342056 236.029091 
L 396.847316 223.810909 
L 398.352576 160.101818 
L 399.857837 221.483636 
L 401.363097 220.610909 
L 402.868357 225.556364 
L 404.373617 245.338182 
L 405.878878 246.210909 
L 407.384138 219.447273 
L 408.889398 235.738182 
L 410.394659 235.447273 
L 411.899919 225.847273 
L 413.405179 243.010909 
L 414.91044 249.12 
L 416.4157 196.756364 
L 417.92096 236.901818 
L 419.426221 211.883636 
L 420.931481 205.483636 
L 422.436741 212.465455 
L 423.942002 249.701818 
L 425.447262 249.701818 
L 426.952522 221.774545 
L 428.457783 232.538182 
L 429.963043 231.956364 
L 431.468303 238.647273 
L 432.973564 242.429091 
L 434.478824 248.247273 
L 435.984084 245.92 
L 437.489344 225.265455 
L 438.994605 243.883636 
L 440.499865 240.101818 
L 442.005125 231.665455 
L 443.510386 238.356364 
L 445.015646 249.701818 
L 446.520906 249.701818 
L 448.026167 242.72 
L 449.531427 239.810909 
L 451.036687 246.210909 
L 452.541948 240.974545 
L 454.047208 243.301818 
L 455.552468 249.12 
L 457.057729 247.374545 
L 458.562989 230.501818 
L 460.068249 236.029091 
L 461.57351 165.92 
L 463.07877 212.756364 
L 464.58403 243.883636 
L 466.089291 241.847273 
L 467.594551 249.992727 
L 469.099811 231.665455 
L 470.605071 233.701818 
L 472.110332 241.556364 
L 473.615592 240.683636 
L 475.120852 235.156364 
L 476.626113 249.701818 
L 478.131373 250.283636 
L 479.636633 191.52 
L 481.141894 238.938182 
L 482.647154 244.756364 
L 484.152414 247.083636 
L 485.657675 200.247273 
L 487.162935 247.083636 
L 488.668195 247.956364 
L 491.678716 241.556364 
L 493.183976 241.847273 
L 494.689237 223.229091 
L 496.194497 244.174545 
L 497.699757 249.701818 
L 499.205018 243.301818 
L 500.710278 245.047273 
L 502.215538 178.138182 
L 503.720798 195.883636 
L 505.226059 240.101818 
L 506.731319 242.138182 
L 508.236579 244.465455 
L 509.74184 243.883636 
L 511.2471 231.083636 
L 512.75236 241.847273 
L 514.257621 243.010909 
L 515.762881 221.483636 
L 517.268141 238.938182 
L 518.773402 250.283636 
L 520.278662 251.738182 
L 521.783922 244.465455 
L 523.289183 245.047273 
L 524.794443 246.501818 
L 526.299703 243.301818 
L 527.804964 245.92 
L 529.310224 249.410909 
L 530.815484 251.156364 
L 532.320745 243.301818 
L 533.826005 243.010909 
L 535.331265 230.210909 
L 536.836525 228.465455 
L 538.341786 250.574545 
L 539.847046 245.92 
L 541.352306 251.738182 
L 542.857567 238.647273 
L 544.362827 239.810909 
L 545.868087 242.429091 
L 547.373348 239.52 
L 548.878608 248.247273 
L 550.383868 245.338182 
L 551.889129 249.992727 
L 553.394389 250.283636 
L 554.899649 236.32 
L 556.40491 238.356364 
L 557.91017 243.592727 
L 559.41543 240.392727 
L 560.920691 230.792727 
L 562.425951 241.556364 
L 563.931211 248.247273 
L 565.436472 231.956364 
L 566.941732 250.283636 
L 568.446992 245.629091 
L 569.952252 243.883636 
L 571.457513 251.156364 
L 572.962773 250.865455 
L 574.468033 244.465455 
L 575.973294 245.047273 
L 577.478554 231.665455 
L 578.983814 229.92 
L 580.489075 248.829091 
L 581.994335 249.701818 
L 583.499595 250.283636 
L 585.004856 241.847273 
L 586.510116 242.138182 
L 588.015376 226.138182 
L 589.520637 235.156364 
L 591.025897 234.865455 
L 592.531157 244.756364 
L 594.036418 249.701818 
L 595.541678 245.338182 
L 597.046938 246.210909 
L 598.552199 249.701818 
L 600.057459 251.156364 
L 601.562719 236.029091 
L 603.067979 247.374545 
L 604.57324 241.847273 
L 606.0785 223.810909 
L 607.58376 250.865455 
L 609.089021 247.956364 
L 610.594281 232.247273 
L 612.099541 213.92 
L 613.604802 235.447273 
L 615.110062 247.956364 
L 616.615322 247.374545 
L 618.120583 250.283636 
L 619.625843 246.210909 
L 621.131103 230.501818 
L 622.636364 236.029091 
L 622.636364 236.029091 
" style="fill:none;stroke:#1f77b4;stroke-linecap:square;stroke-width:1.5;"/>
   </g>
   <g id="line2d_30">
    <path clip-path="url(#pd8446907df)" d="M 115.363636 251.738182 
L 116.868897 249.410909 
L 118.374157 248.247273 
L 119.879417 249.410909 
L 121.384678 251.738182 
L 122.889938 249.992727 
L 124.395198 249.12 
L 125.900459 249.12 
L 127.405719 248.829091 
L 128.910979 249.410909 
L 130.41624 251.447273 
L 136.437281 249.12 
L 137.942541 248.829091 
L 139.447801 249.992727 
L 142.458322 251.738182 
L 143.963582 248.829091 
L 145.468843 249.410909 
L 146.974103 250.574545 
L 148.479363 250.865455 
L 149.984624 250.574545 
L 151.489884 251.447273 
L 152.995144 251.156364 
L 154.500405 249.992727 
L 156.005665 251.156364 
L 157.510925 248.829091 
L 159.016186 249.701818 
L 160.521446 250.283636 
L 162.026706 251.156364 
L 163.531967 251.156364 
L 165.037227 247.374545 
L 166.542487 251.447273 
L 168.047748 251.447273 
L 169.553008 251.156364 
L 172.563528 251.738182 
L 174.068789 251.447273 
L 175.574049 249.410909 
L 177.079309 246.792727 
L 178.58457 248.538182 
L 180.08983 249.992727 
L 181.59509 249.992727 
L 183.100351 251.447273 
L 184.605611 250.283636 
L 186.110871 249.992727 
L 187.616132 250.865455 
L 189.121392 247.665455 
L 190.626652 249.410909 
L 192.131913 251.447273 
L 193.637173 251.738182 
L 195.142433 249.12 
L 198.152954 249.12 
L 199.658214 249.992727 
L 201.163475 250.283636 
L 202.668735 251.156364 
L 204.173995 251.447273 
L 205.679255 250.865455 
L 207.184516 250.574545 
L 208.689776 251.156364 
L 211.700297 251.156364 
L 213.205557 251.447273 
L 214.710817 250.865455 
L 217.721338 250.865455 
L 219.226598 251.738182 
L 220.731859 251.156364 
L 222.237119 251.156364 
L 223.742379 250.865455 
L 225.24764 249.701818 
L 226.7529 247.956364 
L 228.25816 249.992727 
L 229.763421 251.156364 
L 231.268681 250.865455 
L 232.773941 250.865455 
L 234.279202 251.156364 
L 235.784462 249.410909 
L 237.289722 248.538182 
L 238.794982 249.701818 
L 240.300243 246.792727 
L 241.805503 249.701818 
L 243.310763 250.283636 
L 244.816024 251.156364 
L 246.321284 250.574545 
L 247.826544 250.574545 
L 249.331805 248.247273 
L 250.837065 249.410909 
L 252.342325 249.12 
L 253.847586 249.12 
L 255.352846 250.283636 
L 256.858106 245.92 
L 258.363367 247.665455 
L 259.868627 249.12 
L 261.373887 247.374545 
L 262.879148 246.210909 
L 264.384408 250.865455 
L 265.889668 250.574545 
L 267.394929 248.538182 
L 268.900189 249.992727 
L 270.405449 247.956364 
L 271.910709 249.410909 
L 273.41597 249.410909 
L 274.92123 250.865455 
L 276.42649 251.156364 
L 277.931751 248.829091 
L 279.437011 247.956364 
L 280.942271 248.247273 
L 282.447532 250.865455 
L 283.952792 251.447273 
L 286.963313 250.865455 
L 288.468573 250.865455 
L 289.973833 249.410909 
L 291.479094 250.283636 
L 292.984354 248.829091 
L 294.489614 250.865455 
L 295.994875 250.283636 
L 297.500135 250.865455 
L 299.005395 249.12 
L 300.510656 248.829091 
L 302.015916 248.829091 
L 303.521176 247.956364 
L 305.026436 250.283636 
L 306.531697 250.865455 
L 308.036957 250.865455 
L 309.542217 242.138182 
L 311.047478 248.829091 
L 312.552738 248.829091 
L 314.057998 247.374545 
L 315.563259 249.12 
L 317.068519 250.574545 
L 318.573779 250.574545 
L 320.07904 246.210909 
L 321.5843 246.501818 
L 323.08956 248.247273 
L 324.594821 246.501818 
L 326.100081 247.374545 
L 327.605341 249.992727 
L 329.110602 250.865455 
L 330.615862 247.374545 
L 332.121122 245.92 
L 333.626383 247.083636 
L 335.131643 247.374545 
L 336.636903 249.410909 
L 338.142163 251.156364 
L 339.647424 249.992727 
L 341.152684 247.665455 
L 342.657944 247.665455 
L 344.163205 248.538182 
L 345.668465 250.574545 
L 348.678986 251.156364 
L 350.184246 249.992727 
L 351.689506 246.210909 
L 353.194767 247.083636 
L 354.700027 248.538182 
L 356.205287 246.792727 
L 357.710548 249.701818 
L 359.215808 251.156364 
L 362.226329 249.410909 
L 363.731589 248.247273 
L 365.236849 248.538182 
L 366.74211 247.374545 
L 368.24737 249.12 
L 369.75263 249.410909 
L 371.25789 250.865455 
L 372.763151 245.629091 
L 374.268411 245.338182 
L 375.773671 247.956364 
L 377.278932 248.829091 
L 378.784192 249.12 
L 380.289452 249.12 
L 381.794713 250.865455 
L 383.299973 250.283636 
L 384.805233 245.629091 
L 386.310494 244.174545 
L 387.815754 246.792727 
L 389.321014 248.829091 
L 390.826275 250.283636 
L 392.331535 249.12 
L 393.836795 250.283636 
L 395.342056 246.210909 
L 396.847316 246.501818 
L 398.352576 228.465455 
L 399.857837 247.956364 
L 401.363097 246.501818 
L 402.868357 250.574545 
L 404.373617 251.738182 
L 405.878878 249.701818 
L 407.384138 248.247273 
L 408.889398 248.247273 
L 410.394659 248.538182 
L 411.899919 247.665455 
L 414.91044 251.156364 
L 416.4157 249.12 
L 417.92096 248.247273 
L 419.426221 246.792727 
L 420.931481 247.083636 
L 422.436741 245.629091 
L 423.942002 250.574545 
L 425.447262 251.738182 
L 426.952522 245.629091 
L 428.457783 247.083636 
L 429.963043 249.410909 
L 431.468303 247.374545 
L 432.973564 248.247273 
L 434.478824 251.447273 
L 435.984084 250.283636 
L 437.489344 248.247273 
L 438.994605 249.410909 
L 440.499865 247.956364 
L 442.005125 246.210909 
L 445.015646 250.865455 
L 446.520906 251.156364 
L 448.026167 249.12 
L 449.531427 247.665455 
L 451.036687 249.992727 
L 452.541948 249.410909 
L 454.047208 249.410909 
L 457.057729 249.992727 
L 458.562989 246.792727 
L 460.068249 248.829091 
L 461.57351 248.829091 
L 463.07877 249.992727 
L 464.58403 249.12 
L 466.089291 251.156364 
L 467.594551 250.283636 
L 469.099811 248.247273 
L 470.605071 249.12 
L 472.110332 248.829091 
L 473.615592 248.247273 
L 475.120852 249.12 
L 476.626113 251.156364 
L 478.131373 250.865455 
L 479.636633 247.374545 
L 481.141894 250.574545 
L 482.647154 249.701818 
L 484.152414 249.12 
L 485.657675 245.629091 
L 487.162935 251.156364 
L 488.668195 250.574545 
L 490.173456 249.701818 
L 491.678716 250.283636 
L 493.183976 248.829091 
L 494.689237 247.956364 
L 496.194497 249.12 
L 497.699757 250.865455 
L 499.205018 250.865455 
L 500.710278 249.410909 
L 502.215538 247.083636 
L 503.720798 247.083636 
L 505.226059 250.283636 
L 506.731319 248.538182 
L 508.236579 250.574545 
L 509.74184 249.410909 
L 511.2471 247.665455 
L 512.75236 248.538182 
L 514.257621 248.538182 
L 515.762881 247.665455 
L 517.268141 247.956364 
L 518.773402 251.156364 
L 520.278662 251.738182 
L 521.783922 249.992727 
L 523.289183 249.992727 
L 524.794443 250.283636 
L 526.299703 250.283636 
L 527.804964 250.574545 
L 530.815484 251.738182 
L 532.320745 250.283636 
L 533.826005 249.410909 
L 535.331265 249.701818 
L 536.836525 248.538182 
L 538.341786 251.156364 
L 539.847046 250.283636 
L 541.352306 251.738182 
L 542.857567 250.283636 
L 544.362827 250.283636 
L 545.868087 248.247273 
L 547.373348 247.665455 
L 548.878608 249.410909 
L 550.383868 250.574545 
L 551.889129 250.574545 
L 553.394389 250.865455 
L 554.899649 248.538182 
L 556.40491 249.410909 
L 557.91017 249.701818 
L 559.41543 249.701818 
L 560.920691 248.829091 
L 562.425951 249.12 
L 563.931211 250.574545 
L 565.436472 248.247273 
L 566.941732 251.447273 
L 568.446992 249.701818 
L 569.952252 249.701818 
L 571.457513 251.156364 
L 572.962773 250.865455 
L 574.468033 249.992727 
L 575.973294 249.992727 
L 577.478554 249.12 
L 578.983814 249.410909 
L 580.489075 251.156364 
L 581.994335 250.865455 
L 583.499595 251.447273 
L 585.004856 250.283636 
L 586.510116 250.574545 
L 588.015376 249.992727 
L 589.520637 248.538182 
L 591.025897 249.12 
L 592.531157 250.283636 
L 594.036418 250.865455 
L 595.541678 250.283636 
L 597.046938 251.447273 
L 598.552199 250.865455 
L 600.057459 251.738182 
L 601.562719 249.12 
L 603.067979 249.992727 
L 604.57324 251.156364 
L 606.0785 248.247273 
L 607.58376 251.447273 
L 609.089021 251.156364 
L 610.594281 247.956364 
L 613.604802 249.12 
L 615.110062 250.283636 
L 616.615322 249.701818 
L 618.120583 251.156364 
L 619.625843 250.574545 
L 621.131103 247.665455 
L 622.636364 249.992727 
L 622.636364 249.992727 
" style="fill:none;stroke:#ff7f0e;stroke-linecap:square;stroke-width:1.5;"/>
   </g>
   <g id="patch_9">
    <path d="M 90 256.32 
L 90 155.52 
" style="fill:none;stroke:#000000;stroke-linecap:square;stroke-linejoin:miter;stroke-width:0.8;"/>
   </g>
   <g id="patch_10">
    <path d="M 648 256.32 
L 648 155.52 
" style="fill:none;stroke:#000000;stroke-linecap:square;stroke-linejoin:miter;stroke-width:0.8;"/>
   </g>
   <g id="patch_11">
    <path d="M 90 256.32 
L 648 256.32 
" style="fill:none;stroke:#000000;stroke-linecap:square;stroke-linejoin:miter;stroke-width:0.8;"/>
   </g>
   <g id="patch_12">
    <path d="M 90 155.52 
L 648 155.52 
" style="fill:none;stroke:#000000;stroke-linecap:square;stroke-linejoin:miter;stroke-width:0.8;"/>
   </g>
   <g id="legend_2">
    <g id="patch_13">
     <path d="M 97 192.87625 
L 234.217188 192.87625 
Q 236.217188 192.87625 236.217188 190.87625 
L 236.217188 162.52 
Q 236.217188 160.52 234.217188 160.52 
L 97 160.52 
Q 95 160.52 95 162.52 
L 95 190.87625 
Q 95 192.87625 97 192.87625 
z
" style="fill:#ffffff;opacity:0.8;stroke:#cccccc;stroke-linejoin:miter;"/>
    </g>
    <g id="line2d_31">
     <path d="M 99 168.618437 
L 119 168.618437 
" style="fill:none;stroke:#1f77b4;stroke-linecap:square;stroke-width:1.5;"/>
    </g>
    <g id="line2d_32"/>
    <g id="text_26">
     <!-- Total GitHub Views -->
     <g transform="translate(127 172.118437)scale(0.1 -0.1)">
      <defs>
       <path d="M 1831 0 
L 50 4666 
L 709 4666 
L 2188 738 
L 3669 4666 
L 4325 4666 
L 2547 0 
L 1831 0 
z
" id="DejaVuSans-56" transform="scale(0.015625)"/>
       <path d="M 269 3500 
L 844 3500 
L 1563 769 
L 2278 3500 
L 2956 3500 
L 3675 769 
L 4391 3500 
L 4966 3500 
L 4050 0 
L 3372 0 
L 2619 2869 
L 1863 0 
L 1184 0 
L 269 3500 
z
" id="DejaVuSans-77" transform="scale(0.015625)"/>
      </defs>
      <use xlink:href="#DejaVuSans-54"/>
      <use x="44.083984" xlink:href="#DejaVuSans-6f"/>
      <use x="105.265625" xlink:href="#DejaVuSans-74"/>
      <use x="144.474609" xlink:href="#DejaVuSans-61"/>
      <use x="205.753906" xlink:href="#DejaVuSans-6c"/>
      <use x="233.537109" xlink:href="#DejaVuSans-20"/>
      <use x="265.324219" xlink:href="#DejaVuSans-47"/>
      <use x="342.814453" xlink:href="#DejaVuSans-69"/>
      <use x="370.597656" xlink:href="#DejaVuSans-74"/>
      <use x="409.806641" xlink:href="#DejaVuSans-48"/>
      <use x="485.001953" xlink:href="#DejaVuSans-75"/>
      <use x="548.380859" xlink:href="#DejaVuSans-62"/>
      <use x="611.857422" xlink:href="#DejaVuSans-20"/>
      <use x="643.644531" xlink:href="#DejaVuSans-56"/>
      <use x="709.802734" xlink:href="#DejaVuSans-69"/>
      <use x="737.585938" xlink:href="#DejaVuSans-65"/>
      <use x="799.109375" xlink:href="#DejaVuSans-77"/>
      <use x="880.896484" xlink:href="#DejaVuSans-73"/>
     </g>
    </g>
    <g id="line2d_33">
     <path d="M 99 183.296562 
L 119 183.296562 
" style="fill:none;stroke:#ff7f0e;stroke-linecap:square;stroke-width:1.5;"/>
    </g>
    <g id="line2d_34"/>
    <g id="text_27">
     <!-- Unique GitHub Views -->
     <g transform="translate(127 186.796562)scale(0.1 -0.1)">
      <use xlink:href="#DejaVuSans-55"/>
      <use x="73.193359" xlink:href="#DejaVuSans-6e"/>
      <use x="136.572266" xlink:href="#DejaVuSans-69"/>
      <use x="164.355469" xlink:href="#DejaVuSans-71"/>
      <use x="227.832031" xlink:href="#DejaVuSans-75"/>
      <use x="291.210938" xlink:href="#DejaVuSans-65"/>
      <use x="352.734375" xlink:href="#DejaVuSans-20"/>
      <use x="384.521484" xlink:href="#DejaVuSans-47"/>
      <use x="462.011719" xlink:href="#DejaVuSans-69"/>
      <use x="489.794922" xlink:href="#DejaVuSans-74"/>
      <use x="529.003906" xlink:href="#DejaVuSans-48"/>
      <use x="604.199219" xlink:href="#DejaVuSans-75"/>
      <use x="667.578125" xlink:href="#DejaVuSans-62"/>
      <use x="731.054688" xlink:href="#DejaVuSans-20"/>
      <use x="762.841797" xlink:href="#DejaVuSans-56"/>
      <use x="829" xlink:href="#DejaVuSans-69"/>
      <use x="856.783203" xlink:href="#DejaVuSans-65"/>
      <use x="918.306641" xlink:href="#DejaVuSans-77"/>
      <use x="1000.09375" xlink:href="#DejaVuSans-73"/>
     </g>
    </g>
   </g>
  </g>
 </g>
 <defs>
  <clipPath id="p45fe4c7b3b">
   <rect height="100.8" width="558" x="90" y="34.56"/>
  </clipPath>
  <clipPath id="pd8446907df">
   <rect height="100.8" width="558" x="90" y="155.52"/>
  </clipPath>
 </defs>
</svg>
