<?xml version="1.0" encoding="utf-8" standalone="no"?>
<!DOCTYPE svg PUBLIC "-//W3C//DTD SVG 1.1//EN"
  "http://www.w3.org/Graphics/SVG/1.1/DTD/svg11.dtd">
<svg height="288pt" version="1.1" viewBox="0 0 720 288" width="720pt" xmlns="http://www.w3.org/2000/svg" xmlns:xlink="http://www.w3.org/1999/xlink">
 <metadata>
  <rdf:RDF xmlns:cc="http://creativecommons.org/ns#" xmlns:dc="http://purl.org/dc/elements/1.1/" xmlns:rdf="http://www.w3.org/1999/02/22-rdf-syntax-ns#">
   <cc:Work>
    <dc:type rdf:resource="http://purl.org/dc/dcmitype/StillImage"/>
    <dc:date>2021-11-01T00:28:47.198368</dc:date>
    <dc:format>image/svg+xml</dc:format>
    <dc:creator>
     <cc:Agent>
      <dc:title>Matplotlib v3.4.3, https://matplotlib.org/</dc:title>
     </cc:Agent>
    </dc:creator>
   </cc:Work>
  </rdf:RDF>
 </metadata>
 <defs>
  <style type="text/css">*{stroke-linecap:butt;stroke-linejoin:round;}</style>
 </defs>
 <g id="figure_1">
  <g id="patch_1">
   <path d="M 0 288 
L 720 288 
L 720 0 
L 0 0 
z
" style="fill:#ffffff;"/>
  </g>
  <g id="axes_1">
   <g id="patch_2">
    <path d="M 90 135.36 
L 648 135.36 
L 648 34.56 
L 90 34.56 
z
" style="fill:#ffffff;"/>
   </g>
   <g id="matplotlib.axis_1">
    <g id="xtick_1">
     <g id="line2d_1">
      <defs>
       <path d="M 0 0 
L 0 3.5 
" id="mcb5d74070e" style="stroke:#000000;stroke-width:0.8;"/>
      </defs>
      <g>
       <use style="stroke:#000000;stroke-width:0.8;" x="115.363636" xlink:href="#mcb5d74070e" y="135.36"/>
      </g>
     </g>
     <g id="text_1">
      <!-- 2020-10-22 -->
      <g transform="translate(86.305824 149.958437)scale(0.1 -0.1)">
       <defs>
        <path d="M 1228 531 
L 3431 531 
L 3431 0 
L 469 0 
L 469 531 
Q 828 903 1448 1529 
Q 2069 2156 2228 2338 
Q 2531 2678 2651 2914 
Q 2772 3150 2772 3378 
Q 2772 3750 2511 3984 
Q 2250 4219 1831 4219 
Q 1534 4219 1204 4116 
Q 875 4013 500 3803 
L 500 4441 
Q 881 4594 1212 4672 
Q 1544 4750 1819 4750 
Q 2544 4750 2975 4387 
Q 3406 4025 3406 3419 
Q 3406 3131 3298 2873 
Q 3191 2616 2906 2266 
Q 2828 2175 2409 1742 
Q 1991 1309 1228 531 
z
" id="DejaVuSans-32" transform="scale(0.015625)"/>
        <path d="M 2034 4250 
Q 1547 4250 1301 3770 
Q 1056 3291 1056 2328 
Q 1056 1369 1301 889 
Q 1547 409 2034 409 
Q 2525 409 2770 889 
Q 3016 1369 3016 2328 
Q 3016 3291 2770 3770 
Q 2525 4250 2034 4250 
z
M 2034 4750 
Q 2819 4750 3233 4129 
Q 3647 3509 3647 2328 
Q 3647 1150 3233 529 
Q 2819 -91 2034 -91 
Q 1250 -91 836 529 
Q 422 1150 422 2328 
Q 422 3509 836 4129 
Q 1250 4750 2034 4750 
z
" id="DejaVuSans-30" transform="scale(0.015625)"/>
        <path d="M 313 2009 
L 1997 2009 
L 1997 1497 
L 313 1497 
L 313 2009 
z
" id="DejaVuSans-2d" transform="scale(0.015625)"/>
        <path d="M 794 531 
L 1825 531 
L 1825 4091 
L 703 3866 
L 703 4441 
L 1819 4666 
L 2450 4666 
L 2450 531 
L 3481 531 
L 3481 0 
L 794 0 
L 794 531 
z
" id="DejaVuSans-31" transform="scale(0.015625)"/>
       </defs>
       <use xlink:href="#DejaVuSans-32"/>
       <use x="63.623047" xlink:href="#DejaVuSans-30"/>
       <use x="127.246094" xlink:href="#DejaVuSans-32"/>
       <use x="190.869141" xlink:href="#DejaVuSans-30"/>
       <use x="254.492188" xlink:href="#DejaVuSans-2d"/>
       <use x="290.576172" xlink:href="#DejaVuSans-31"/>
       <use x="354.199219" xlink:href="#DejaVuSans-30"/>
       <use x="417.822266" xlink:href="#DejaVuSans-2d"/>
       <use x="453.90625" xlink:href="#DejaVuSans-32"/>
       <use x="517.529297" xlink:href="#DejaVuSans-32"/>
      </g>
     </g>
    </g>
    <g id="xtick_2">
     <g id="line2d_2">
      <g>
       <use style="stroke:#000000;stroke-width:0.8;" x="195.123499" xlink:href="#mcb5d74070e" y="135.36"/>
      </g>
     </g>
     <g id="text_2">
      <!-- 2021-01-05 -->
      <g transform="translate(166.065687 149.958437)scale(0.1 -0.1)">
       <defs>
        <path d="M 691 4666 
L 3169 4666 
L 3169 4134 
L 1269 4134 
L 1269 2991 
Q 1406 3038 1543 3061 
Q 1681 3084 1819 3084 
Q 2600 3084 3056 2656 
Q 3513 2228 3513 1497 
Q 3513 744 3044 326 
Q 2575 -91 1722 -91 
Q 1428 -91 1123 -41 
Q 819 9 494 109 
L 494 744 
Q 775 591 1075 516 
Q 1375 441 1709 441 
Q 2250 441 2565 725 
Q 2881 1009 2881 1497 
Q 2881 1984 2565 2268 
Q 2250 2553 1709 2553 
Q 1456 2553 1204 2497 
Q 953 2441 691 2322 
L 691 4666 
z
" id="DejaVuSans-35" transform="scale(0.015625)"/>
       </defs>
       <use xlink:href="#DejaVuSans-32"/>
       <use x="63.623047" xlink:href="#DejaVuSans-30"/>
       <use x="127.246094" xlink:href="#DejaVuSans-32"/>
       <use x="190.869141" xlink:href="#DejaVuSans-31"/>
       <use x="254.492188" xlink:href="#DejaVuSans-2d"/>
       <use x="290.576172" xlink:href="#DejaVuSans-30"/>
       <use x="354.199219" xlink:href="#DejaVuSans-31"/>
       <use x="417.822266" xlink:href="#DejaVuSans-2d"/>
       <use x="453.90625" xlink:href="#DejaVuSans-30"/>
       <use x="517.529297" xlink:href="#DejaVuSans-35"/>
      </g>
     </g>
    </g>
    <g id="xtick_3">
     <g id="line2d_3">
      <g>
       <use style="stroke:#000000;stroke-width:0.8;" x="274.883362" xlink:href="#mcb5d74070e" y="135.36"/>
      </g>
     </g>
     <g id="text_3">
      <!-- 2021-03-17 -->
      <g transform="translate(245.825549 149.958437)scale(0.1 -0.1)">
       <defs>
        <path d="M 2597 2516 
Q 3050 2419 3304 2112 
Q 3559 1806 3559 1356 
Q 3559 666 3084 287 
Q 2609 -91 1734 -91 
Q 1441 -91 1130 -33 
Q 819 25 488 141 
L 488 750 
Q 750 597 1062 519 
Q 1375 441 1716 441 
Q 2309 441 2620 675 
Q 2931 909 2931 1356 
Q 2931 1769 2642 2001 
Q 2353 2234 1838 2234 
L 1294 2234 
L 1294 2753 
L 1863 2753 
Q 2328 2753 2575 2939 
Q 2822 3125 2822 3475 
Q 2822 3834 2567 4026 
Q 2313 4219 1838 4219 
Q 1578 4219 1281 4162 
Q 984 4106 628 3988 
L 628 4550 
Q 988 4650 1302 4700 
Q 1616 4750 1894 4750 
Q 2613 4750 3031 4423 
Q 3450 4097 3450 3541 
Q 3450 3153 3228 2886 
Q 3006 2619 2597 2516 
z
" id="DejaVuSans-33" transform="scale(0.015625)"/>
        <path d="M 525 4666 
L 3525 4666 
L 3525 4397 
L 1831 0 
L 1172 0 
L 2766 4134 
L 525 4134 
L 525 4666 
z
" id="DejaVuSans-37" transform="scale(0.015625)"/>
       </defs>
       <use xlink:href="#DejaVuSans-32"/>
       <use x="63.623047" xlink:href="#DejaVuSans-30"/>
       <use x="127.246094" xlink:href="#DejaVuSans-32"/>
       <use x="190.869141" xlink:href="#DejaVuSans-31"/>
       <use x="254.492188" xlink:href="#DejaVuSans-2d"/>
       <use x="290.576172" xlink:href="#DejaVuSans-30"/>
       <use x="354.199219" xlink:href="#DejaVuSans-33"/>
       <use x="417.822266" xlink:href="#DejaVuSans-2d"/>
       <use x="453.90625" xlink:href="#DejaVuSans-31"/>
       <use x="517.529297" xlink:href="#DejaVuSans-37"/>
      </g>
     </g>
    </g>
    <g id="xtick_4">
     <g id="line2d_4">
      <g>
       <use style="stroke:#000000;stroke-width:0.8;" x="354.643225" xlink:href="#mcb5d74070e" y="135.36"/>
      </g>
     </g>
     <g id="text_4">
      <!-- 2021-05-04 -->
      <g transform="translate(325.585412 149.958437)scale(0.1 -0.1)">
       <defs>
        <path d="M 2419 4116 
L 825 1625 
L 2419 1625 
L 2419 4116 
z
M 2253 4666 
L 3047 4666 
L 3047 1625 
L 3713 1625 
L 3713 1100 
L 3047 1100 
L 3047 0 
L 2419 0 
L 2419 1100 
L 313 1100 
L 313 1709 
L 2253 4666 
z
" id="DejaVuSans-34" transform="scale(0.015625)"/>
       </defs>
       <use xlink:href="#DejaVuSans-32"/>
       <use x="63.623047" xlink:href="#DejaVuSans-30"/>
       <use x="127.246094" xlink:href="#DejaVuSans-32"/>
       <use x="190.869141" xlink:href="#DejaVuSans-31"/>
       <use x="254.492188" xlink:href="#DejaVuSans-2d"/>
       <use x="290.576172" xlink:href="#DejaVuSans-30"/>
       <use x="354.199219" xlink:href="#DejaVuSans-35"/>
       <use x="417.822266" xlink:href="#DejaVuSans-2d"/>
       <use x="453.90625" xlink:href="#DejaVuSans-30"/>
       <use x="517.529297" xlink:href="#DejaVuSans-34"/>
      </g>
     </g>
    </g>
    <g id="xtick_5">
     <g id="line2d_5">
      <g>
       <use style="stroke:#000000;stroke-width:0.8;" x="434.403087" xlink:href="#mcb5d74070e" y="135.36"/>
      </g>
     </g>
     <g id="text_5">
      <!-- 2021-06-22 -->
      <g transform="translate(405.345275 149.958437)scale(0.1 -0.1)">
       <defs>
        <path d="M 2113 2584 
Q 1688 2584 1439 2293 
Q 1191 2003 1191 1497 
Q 1191 994 1439 701 
Q 1688 409 2113 409 
Q 2538 409 2786 701 
Q 3034 994 3034 1497 
Q 3034 2003 2786 2293 
Q 2538 2584 2113 2584 
z
M 3366 4563 
L 3366 3988 
Q 3128 4100 2886 4159 
Q 2644 4219 2406 4219 
Q 1781 4219 1451 3797 
Q 1122 3375 1075 2522 
Q 1259 2794 1537 2939 
Q 1816 3084 2150 3084 
Q 2853 3084 3261 2657 
Q 3669 2231 3669 1497 
Q 3669 778 3244 343 
Q 2819 -91 2113 -91 
Q 1303 -91 875 529 
Q 447 1150 447 2328 
Q 447 3434 972 4092 
Q 1497 4750 2381 4750 
Q 2619 4750 2861 4703 
Q 3103 4656 3366 4563 
z
" id="DejaVuSans-36" transform="scale(0.015625)"/>
       </defs>
       <use xlink:href="#DejaVuSans-32"/>
       <use x="63.623047" xlink:href="#DejaVuSans-30"/>
       <use x="127.246094" xlink:href="#DejaVuSans-32"/>
       <use x="190.869141" xlink:href="#DejaVuSans-31"/>
       <use x="254.492188" xlink:href="#DejaVuSans-2d"/>
       <use x="290.576172" xlink:href="#DejaVuSans-30"/>
       <use x="354.199219" xlink:href="#DejaVuSans-36"/>
       <use x="417.822266" xlink:href="#DejaVuSans-2d"/>
       <use x="453.90625" xlink:href="#DejaVuSans-32"/>
       <use x="517.529297" xlink:href="#DejaVuSans-32"/>
      </g>
     </g>
    </g>
    <g id="xtick_6">
     <g id="line2d_6">
      <g>
       <use style="stroke:#000000;stroke-width:0.8;" x="514.16295" xlink:href="#mcb5d74070e" y="135.36"/>
      </g>
     </g>
     <g id="text_6">
      <!-- 2021-08-19 -->
      <g transform="translate(485.105138 149.958437)scale(0.1 -0.1)">
       <defs>
        <path d="M 2034 2216 
Q 1584 2216 1326 1975 
Q 1069 1734 1069 1313 
Q 1069 891 1326 650 
Q 1584 409 2034 409 
Q 2484 409 2743 651 
Q 3003 894 3003 1313 
Q 3003 1734 2745 1975 
Q 2488 2216 2034 2216 
z
M 1403 2484 
Q 997 2584 770 2862 
Q 544 3141 544 3541 
Q 544 4100 942 4425 
Q 1341 4750 2034 4750 
Q 2731 4750 3128 4425 
Q 3525 4100 3525 3541 
Q 3525 3141 3298 2862 
Q 3072 2584 2669 2484 
Q 3125 2378 3379 2068 
Q 3634 1759 3634 1313 
Q 3634 634 3220 271 
Q 2806 -91 2034 -91 
Q 1263 -91 848 271 
Q 434 634 434 1313 
Q 434 1759 690 2068 
Q 947 2378 1403 2484 
z
M 1172 3481 
Q 1172 3119 1398 2916 
Q 1625 2713 2034 2713 
Q 2441 2713 2670 2916 
Q 2900 3119 2900 3481 
Q 2900 3844 2670 4047 
Q 2441 4250 2034 4250 
Q 1625 4250 1398 4047 
Q 1172 3844 1172 3481 
z
" id="DejaVuSans-38" transform="scale(0.015625)"/>
        <path d="M 703 97 
L 703 672 
Q 941 559 1184 500 
Q 1428 441 1663 441 
Q 2288 441 2617 861 
Q 2947 1281 2994 2138 
Q 2813 1869 2534 1725 
Q 2256 1581 1919 1581 
Q 1219 1581 811 2004 
Q 403 2428 403 3163 
Q 403 3881 828 4315 
Q 1253 4750 1959 4750 
Q 2769 4750 3195 4129 
Q 3622 3509 3622 2328 
Q 3622 1225 3098 567 
Q 2575 -91 1691 -91 
Q 1453 -91 1209 -44 
Q 966 3 703 97 
z
M 1959 2075 
Q 2384 2075 2632 2365 
Q 2881 2656 2881 3163 
Q 2881 3666 2632 3958 
Q 2384 4250 1959 4250 
Q 1534 4250 1286 3958 
Q 1038 3666 1038 3163 
Q 1038 2656 1286 2365 
Q 1534 2075 1959 2075 
z
" id="DejaVuSans-39" transform="scale(0.015625)"/>
       </defs>
       <use xlink:href="#DejaVuSans-32"/>
       <use x="63.623047" xlink:href="#DejaVuSans-30"/>
       <use x="127.246094" xlink:href="#DejaVuSans-32"/>
       <use x="190.869141" xlink:href="#DejaVuSans-31"/>
       <use x="254.492188" xlink:href="#DejaVuSans-2d"/>
       <use x="290.576172" xlink:href="#DejaVuSans-30"/>
       <use x="354.199219" xlink:href="#DejaVuSans-38"/>
       <use x="417.822266" xlink:href="#DejaVuSans-2d"/>
       <use x="453.90625" xlink:href="#DejaVuSans-31"/>
       <use x="517.529297" xlink:href="#DejaVuSans-39"/>
      </g>
     </g>
    </g>
    <g id="xtick_7">
     <g id="line2d_7">
      <g>
       <use style="stroke:#000000;stroke-width:0.8;" x="593.922813" xlink:href="#mcb5d74070e" y="135.36"/>
      </g>
     </g>
     <g id="text_7">
      <!-- 2021-10-18 -->
      <g transform="translate(564.865001 149.958437)scale(0.1 -0.1)">
       <use xlink:href="#DejaVuSans-32"/>
       <use x="63.623047" xlink:href="#DejaVuSans-30"/>
       <use x="127.246094" xlink:href="#DejaVuSans-32"/>
       <use x="190.869141" xlink:href="#DejaVuSans-31"/>
       <use x="254.492188" xlink:href="#DejaVuSans-2d"/>
       <use x="290.576172" xlink:href="#DejaVuSans-31"/>
       <use x="354.199219" xlink:href="#DejaVuSans-30"/>
       <use x="417.822266" xlink:href="#DejaVuSans-2d"/>
       <use x="453.90625" xlink:href="#DejaVuSans-31"/>
       <use x="517.529297" xlink:href="#DejaVuSans-38"/>
      </g>
     </g>
    </g>
    <g id="text_8">
     <!-- _date -->
     <g transform="translate(355.225 163.636562)scale(0.1 -0.1)">
      <defs>
       <path d="M 3263 -1063 
L 3263 -1509 
L -63 -1509 
L -63 -1063 
L 3263 -1063 
z
" id="DejaVuSans-5f" transform="scale(0.015625)"/>
       <path d="M 2906 2969 
L 2906 4863 
L 3481 4863 
L 3481 0 
L 2906 0 
L 2906 525 
Q 2725 213 2448 61 
Q 2172 -91 1784 -91 
Q 1150 -91 751 415 
Q 353 922 353 1747 
Q 353 2572 751 3078 
Q 1150 3584 1784 3584 
Q 2172 3584 2448 3432 
Q 2725 3281 2906 2969 
z
M 947 1747 
Q 947 1113 1208 752 
Q 1469 391 1925 391 
Q 2381 391 2643 752 
Q 2906 1113 2906 1747 
Q 2906 2381 2643 2742 
Q 2381 3103 1925 3103 
Q 1469 3103 1208 2742 
Q 947 2381 947 1747 
z
" id="DejaVuSans-64" transform="scale(0.015625)"/>
       <path d="M 2194 1759 
Q 1497 1759 1228 1600 
Q 959 1441 959 1056 
Q 959 750 1161 570 
Q 1363 391 1709 391 
Q 2188 391 2477 730 
Q 2766 1069 2766 1631 
L 2766 1759 
L 2194 1759 
z
M 3341 1997 
L 3341 0 
L 2766 0 
L 2766 531 
Q 2569 213 2275 61 
Q 1981 -91 1556 -91 
Q 1019 -91 701 211 
Q 384 513 384 1019 
Q 384 1609 779 1909 
Q 1175 2209 1959 2209 
L 2766 2209 
L 2766 2266 
Q 2766 2663 2505 2880 
Q 2244 3097 1772 3097 
Q 1472 3097 1187 3025 
Q 903 2953 641 2809 
L 641 3341 
Q 956 3463 1253 3523 
Q 1550 3584 1831 3584 
Q 2591 3584 2966 3190 
Q 3341 2797 3341 1997 
z
" id="DejaVuSans-61" transform="scale(0.015625)"/>
       <path d="M 1172 4494 
L 1172 3500 
L 2356 3500 
L 2356 3053 
L 1172 3053 
L 1172 1153 
Q 1172 725 1289 603 
Q 1406 481 1766 481 
L 2356 481 
L 2356 0 
L 1766 0 
Q 1100 0 847 248 
Q 594 497 594 1153 
L 594 3053 
L 172 3053 
L 172 3500 
L 594 3500 
L 594 4494 
L 1172 4494 
z
" id="DejaVuSans-74" transform="scale(0.015625)"/>
       <path d="M 3597 1894 
L 3597 1613 
L 953 1613 
Q 991 1019 1311 708 
Q 1631 397 2203 397 
Q 2534 397 2845 478 
Q 3156 559 3463 722 
L 3463 178 
Q 3153 47 2828 -22 
Q 2503 -91 2169 -91 
Q 1331 -91 842 396 
Q 353 884 353 1716 
Q 353 2575 817 3079 
Q 1281 3584 2069 3584 
Q 2775 3584 3186 3129 
Q 3597 2675 3597 1894 
z
M 3022 2063 
Q 3016 2534 2758 2815 
Q 2500 3097 2075 3097 
Q 1594 3097 1305 2825 
Q 1016 2553 972 2059 
L 3022 2063 
z
" id="DejaVuSans-65" transform="scale(0.015625)"/>
      </defs>
      <use xlink:href="#DejaVuSans-5f"/>
      <use x="50" xlink:href="#DejaVuSans-64"/>
      <use x="113.476562" xlink:href="#DejaVuSans-61"/>
      <use x="174.755859" xlink:href="#DejaVuSans-74"/>
      <use x="213.964844" xlink:href="#DejaVuSans-65"/>
     </g>
    </g>
   </g>
   <g id="matplotlib.axis_2">
    <g id="ytick_1">
     <g id="line2d_8">
      <defs>
       <path d="M 0 0 
L -3.5 0 
" id="m7970738549" style="stroke:#000000;stroke-width:0.8;"/>
      </defs>
      <g>
       <use style="stroke:#000000;stroke-width:0.8;" x="90" xlink:href="#m7970738549" y="131.401558"/>
      </g>
     </g>
     <g id="text_9">
      <!-- 0 -->
      <g transform="translate(76.6375 135.200777)scale(0.1 -0.1)">
       <use xlink:href="#DejaVuSans-30"/>
      </g>
     </g>
    </g>
    <g id="ytick_2">
     <g id="line2d_9">
      <g>
       <use style="stroke:#000000;stroke-width:0.8;" x="90" xlink:href="#m7970738549" y="100.232727"/>
      </g>
     </g>
     <g id="text_10">
      <!-- 50 -->
      <g transform="translate(70.275 104.031946)scale(0.1 -0.1)">
       <use xlink:href="#DejaVuSans-35"/>
       <use x="63.623047" xlink:href="#DejaVuSans-30"/>
      </g>
     </g>
    </g>
    <g id="ytick_3">
     <g id="line2d_10">
      <g>
       <use style="stroke:#000000;stroke-width:0.8;" x="90" xlink:href="#m7970738549" y="69.063896"/>
      </g>
     </g>
     <g id="text_11">
      <!-- 100 -->
      <g transform="translate(63.9125 72.863115)scale(0.1 -0.1)">
       <use xlink:href="#DejaVuSans-31"/>
       <use x="63.623047" xlink:href="#DejaVuSans-30"/>
       <use x="127.246094" xlink:href="#DejaVuSans-30"/>
      </g>
     </g>
    </g>
    <g id="ytick_4">
     <g id="line2d_11">
      <g>
       <use style="stroke:#000000;stroke-width:0.8;" x="90" xlink:href="#m7970738549" y="37.895065"/>
      </g>
     </g>
     <g id="text_12">
      <!-- 150 -->
      <g transform="translate(63.9125 41.694284)scale(0.1 -0.1)">
       <use xlink:href="#DejaVuSans-31"/>
       <use x="63.623047" xlink:href="#DejaVuSans-35"/>
       <use x="127.246094" xlink:href="#DejaVuSans-30"/>
      </g>
     </g>
    </g>
   </g>
   <g id="line2d_12">
    <path clip-path="url(#p16c4c7fb8d)" d="M 115.363636 127.661299 
L 116.958834 128.284675 
L 118.554031 130.778182 
L 120.149228 130.778182 
L 121.744425 129.531429 
L 123.339623 129.531429 
L 124.93482 120.804156 
L 126.530017 120.804156 
L 128.125214 130.778182 
L 129.720412 130.778182 
L 131.315609 124.544416 
L 132.910806 126.414545 
L 134.506003 130.778182 
L 136.101201 127.661299 
L 137.696398 128.908052 
L 139.291595 128.908052 
L 140.886792 130.778182 
L 144.077187 128.284675 
L 145.672384 130.154805 
L 147.267581 130.778182 
L 148.862779 130.154805 
L 150.457976 130.154805 
L 152.053173 129.531429 
L 153.64837 130.154805 
L 155.243568 130.154805 
L 156.838765 128.908052 
L 158.433962 130.154805 
L 160.02916 130.154805 
L 161.624357 122.674286 
L 163.219554 127.661299 
L 164.814751 130.154805 
L 166.409949 115.817143 
L 168.005146 130.778182 
L 180.766724 130.778182 
L 182.361921 130.154805 
L 183.957118 130.778182 
L 195.123499 130.778182 
L 196.718696 128.908052 
L 198.313894 129.531429 
L 199.909091 130.778182 
L 201.504288 129.531429 
L 203.099485 127.661299 
L 204.694683 130.154805 
L 206.28988 130.154805 
L 207.885077 128.908052 
L 209.480274 120.804156 
L 211.075472 130.154805 
L 212.670669 130.778182 
L 214.265866 130.154805 
L 215.861063 127.037922 
L 217.456261 130.154805 
L 219.051458 129.531429 
L 220.646655 125.167792 
L 222.241852 128.908052 
L 223.83705 127.037922 
L 225.432247 130.154805 
L 227.027444 129.531429 
L 228.622642 130.154805 
L 230.217839 129.531429 
L 233.408233 129.531429 
L 235.003431 128.284675 
L 236.598628 130.778182 
L 238.193825 130.778182 
L 239.789022 128.284675 
L 241.38422 128.284675 
L 242.979417 125.167792 
L 244.574614 129.531429 
L 246.169811 127.661299 
L 247.765009 130.778182 
L 249.360206 125.791169 
L 250.955403 128.908052 
L 252.5506 129.531429 
L 254.145798 128.908052 
L 255.740995 126.414545 
L 257.336192 130.154805 
L 258.931389 128.284675 
L 260.526587 121.427532 
L 262.121784 126.414545 
L 263.716981 120.804156 
L 265.312178 87.141818 
L 266.907376 127.661299 
L 268.502573 130.778182 
L 270.09777 128.908052 
L 271.692967 123.297662 
L 273.288165 124.544416 
L 274.883362 127.661299 
L 276.478559 119.557403 
L 278.073756 128.908052 
L 279.668954 128.908052 
L 281.264151 130.154805 
L 282.859348 122.674286 
L 284.454545 124.544416 
L 286.049743 130.778182 
L 287.64494 129.531429 
L 289.240137 130.778182 
L 290.835334 128.284675 
L 292.430532 100.232727 
L 294.025729 118.310649 
L 295.620926 121.427532 
L 297.216123 127.661299 
L 298.811321 130.778182 
L 300.406518 126.414545 
L 302.001715 128.908052 
L 303.596913 122.050909 
L 305.19211 122.674286 
L 306.787307 128.908052 
L 308.382504 123.297662 
L 309.977702 115.817143 
L 311.572899 122.674286 
L 313.168096 127.661299 
L 314.763293 115.817143 
L 316.358491 115.193766 
L 317.953688 115.193766 
L 319.548885 116.440519 
L 321.144082 92.128831 
L 322.73928 109.583377 
L 324.334477 107.08987 
L 325.929674 107.08987 
L 327.524871 107.713247 
L 329.120069 119.557403 
L 330.715266 110.206753 
L 332.310463 118.934026 
L 333.90566 129.531429 
L 335.500858 130.154805 
L 337.096055 116.440519 
L 338.691252 114.57039 
L 341.881647 115.817143 
L 343.476844 111.453506 
L 345.072041 105.843117 
L 346.667238 128.284675 
L 348.262436 130.154805 
L 349.857633 116.440519 
L 351.45283 119.557403 
L 353.048027 117.687273 
L 354.643225 100.232727 
L 356.238422 115.817143 
L 357.833619 116.440519 
L 359.428816 130.154805 
L 361.024014 128.908052 
L 362.619211 114.57039 
L 364.214408 102.102857 
L 365.809605 102.726234 
L 367.404803 117.063896 
L 369 113.323636 
L 370.595197 95.245714 
L 372.190395 117.063896 
L 373.785592 130.154805 
L 375.380789 114.57039 
L 376.975986 105.843117 
L 378.571184 107.713247 
L 380.166381 102.726234 
L 381.761578 108.96 
L 383.356775 111.453506 
L 384.951973 129.531429 
L 386.54717 115.193766 
L 388.142367 110.206753 
L 389.737564 108.336623 
L 391.332762 115.817143 
L 392.927959 115.193766 
L 394.523156 113.947013 
L 396.118353 125.791169 
L 397.713551 115.817143 
L 400.903945 113.323636 
L 402.499142 115.817143 
L 404.09434 116.440519 
L 405.689537 116.440519 
L 407.284734 130.778182 
L 408.879931 130.778182 
L 410.475129 115.193766 
L 412.070326 112.076883 
L 413.665523 115.193766 
L 415.26072 102.726234 
L 416.855918 105.843117 
L 418.451115 130.778182 
L 420.046312 115.817143 
L 421.641509 113.947013 
L 423.236707 113.323636 
L 424.831904 112.076883 
L 426.427101 117.063896 
L 428.022298 130.154805 
L 429.617496 114.57039 
L 431.212693 115.193766 
L 432.80789 110.83013 
L 434.403087 105.21974 
L 435.998285 104.596364 
L 437.593482 39.141818 
L 440.783877 130.778182 
L 442.379074 118.310649 
L 443.974271 120.180779 
L 445.569468 117.687273 
L 447.164666 117.063896 
L 448.759863 124.544416 
L 450.35506 130.778182 
L 451.950257 130.154805 
L 453.545455 130.778182 
L 455.140652 123.297662 
L 456.735849 125.167792 
L 458.331046 130.154805 
L 459.926244 128.908052 
L 461.521441 130.154805 
L 463.116638 130.778182 
L 464.711835 130.778182 
L 466.307033 130.154805 
L 467.90223 130.778182 
L 469.497427 128.908052 
L 474.283019 130.778182 
L 479.068611 130.778182 
L 480.663808 128.284675 
L 482.259005 128.908052 
L 483.854202 130.154805 
L 485.4494 130.778182 
L 487.044597 130.154805 
L 488.639794 130.778182 
L 490.234991 127.037922 
L 491.830189 130.778182 
L 493.425386 117.063896 
L 495.020583 130.154805 
L 496.61578 129.531429 
L 498.210978 130.778182 
L 501.401372 129.531429 
L 502.996569 130.778182 
L 504.591767 130.154805 
L 506.186964 130.778182 
L 507.782161 130.154805 
L 509.377358 128.908052 
L 510.972556 130.154805 
L 512.567753 129.531429 
L 514.16295 130.778182 
L 517.353345 130.778182 
L 520.543739 129.531429 
L 522.138937 127.037922 
L 523.734134 130.154805 
L 525.329331 130.154805 
L 526.924528 125.791169 
L 528.519726 124.544416 
L 530.114923 122.050909 
L 531.71012 130.778182 
L 534.900515 130.778182 
L 538.090909 129.531429 
L 539.686106 130.154805 
L 541.281304 125.167792 
L 542.876501 113.323636 
L 544.471698 127.661299 
L 546.066895 110.206753 
L 547.662093 112.70026 
L 549.25729 126.414545 
L 550.852487 130.154805 
L 552.447684 130.778182 
L 557.233276 130.778182 
L 558.828473 130.154805 
L 560.423671 130.778182 
L 562.018868 130.778182 
L 563.614065 128.284675 
L 565.209262 129.531429 
L 566.80446 98.362597 
L 568.399657 117.063896 
L 569.994854 129.531429 
L 571.590051 130.154805 
L 573.185249 122.674286 
L 574.780446 98.985974 
L 576.375643 96.492468 
L 577.97084 90.882078 
L 579.566038 103.972987 
L 581.161235 104.596364 
L 582.756432 120.804156 
L 584.35163 122.674286 
L 585.946827 130.778182 
L 587.542024 125.791169 
L 589.137221 130.778182 
L 590.732419 130.778182 
L 592.327616 122.050909 
L 593.922813 122.674286 
L 595.51801 129.531429 
L 597.113208 120.804156 
L 598.708405 97.739221 
L 600.303602 128.284675 
L 601.898799 122.674286 
L 603.493997 121.427532 
L 605.089194 95.869091 
L 606.684391 123.297662 
L 608.279588 128.908052 
L 609.874786 130.778182 
L 611.469983 128.284675 
L 613.06518 121.427532 
L 614.660377 93.998961 
L 616.255575 120.804156 
L 617.850772 122.674286 
L 619.445969 129.531429 
L 621.041166 130.778182 
L 622.636364 130.778182 
L 622.636364 130.778182 
" style="fill:none;stroke:#1f77b4;stroke-linecap:square;stroke-width:1.5;"/>
   </g>
   <g id="line2d_13">
    <path clip-path="url(#p16c4c7fb8d)" d="M 115.363636 127.661299 
L 116.958834 128.284675 
L 118.554031 130.778182 
L 120.149228 130.778182 
L 121.744425 129.531429 
L 123.339623 129.531429 
L 124.93482 130.154805 
L 126.530017 128.284675 
L 128.125214 130.778182 
L 129.720412 130.778182 
L 131.315609 124.544416 
L 132.910806 129.531429 
L 134.506003 130.778182 
L 136.101201 128.908052 
L 137.696398 128.908052 
L 139.291595 129.531429 
L 140.886792 130.778182 
L 142.48199 129.531429 
L 144.077187 128.908052 
L 145.672384 130.154805 
L 147.267581 130.778182 
L 148.862779 130.154805 
L 150.457976 130.778182 
L 152.053173 129.531429 
L 155.243568 130.778182 
L 156.838765 130.154805 
L 158.433962 130.778182 
L 160.02916 130.154805 
L 161.624357 125.791169 
L 163.219554 127.661299 
L 164.814751 130.154805 
L 166.409949 125.167792 
L 168.005146 130.778182 
L 180.766724 130.778182 
L 182.361921 130.154805 
L 183.957118 130.778182 
L 195.123499 130.778182 
L 196.718696 129.531429 
L 198.313894 130.778182 
L 199.909091 130.778182 
L 203.099485 129.531429 
L 204.694683 130.778182 
L 207.885077 130.778182 
L 209.480274 124.544416 
L 211.075472 130.778182 
L 212.670669 130.778182 
L 214.265866 130.154805 
L 215.861063 128.908052 
L 217.456261 130.154805 
L 219.051458 129.531429 
L 220.646655 127.037922 
L 222.241852 129.531429 
L 223.83705 130.778182 
L 225.432247 130.154805 
L 227.027444 130.778182 
L 228.622642 130.154805 
L 230.217839 130.778182 
L 231.813036 129.531429 
L 235.003431 129.531429 
L 236.598628 130.778182 
L 238.193825 130.778182 
L 242.979417 127.037922 
L 244.574614 129.531429 
L 246.169811 128.284675 
L 247.765009 130.778182 
L 249.360206 127.037922 
L 250.955403 128.908052 
L 252.5506 129.531429 
L 254.145798 128.908052 
L 255.740995 126.414545 
L 257.336192 130.154805 
L 258.931389 128.284675 
L 260.526587 124.544416 
L 262.121784 127.037922 
L 263.716981 123.297662 
L 265.312178 108.96 
L 266.907376 127.661299 
L 268.502573 130.778182 
L 270.09777 129.531429 
L 271.692967 123.921039 
L 274.883362 127.661299 
L 276.478559 122.050909 
L 278.073756 128.908052 
L 279.668954 128.908052 
L 281.264151 130.154805 
L 282.859348 124.544416 
L 284.454545 124.544416 
L 286.049743 130.778182 
L 287.64494 129.531429 
L 289.240137 130.778182 
L 290.835334 128.908052 
L 292.430532 116.440519 
L 294.025729 122.674286 
L 295.620926 124.544416 
L 297.216123 128.284675 
L 298.811321 130.778182 
L 300.406518 127.661299 
L 302.001715 130.154805 
L 303.596913 123.921039 
L 305.19211 123.921039 
L 306.787307 129.531429 
L 308.382504 123.921039 
L 309.977702 120.180779 
L 311.572899 123.297662 
L 313.168096 128.284675 
L 314.763293 120.804156 
L 316.358491 120.804156 
L 317.953688 125.167792 
L 319.548885 130.154805 
L 321.144082 121.427532 
L 322.73928 129.531429 
L 324.334477 128.908052 
L 325.929674 125.791169 
L 327.524871 125.791169 
L 329.120069 121.427532 
L 330.715266 125.167792 
L 332.310463 130.778182 
L 333.90566 130.154805 
L 335.500858 130.154805 
L 337.096055 130.778182 
L 338.691252 128.908052 
L 340.286449 129.531429 
L 341.881647 129.531429 
L 345.072041 120.804156 
L 346.667238 128.284675 
L 348.262436 130.154805 
L 349.857633 130.778182 
L 351.45283 130.778182 
L 353.048027 128.908052 
L 354.643225 117.687273 
L 356.238422 130.778182 
L 357.833619 129.531429 
L 359.428816 130.154805 
L 362.619211 130.154805 
L 364.214408 118.934026 
L 365.809605 118.934026 
L 367.404803 128.908052 
L 369 127.037922 
L 370.595197 115.817143 
L 372.190395 120.180779 
L 373.785592 130.154805 
L 375.380789 130.778182 
L 376.975986 125.791169 
L 380.166381 129.531429 
L 381.761578 128.908052 
L 383.356775 130.154805 
L 384.951973 130.154805 
L 386.54717 130.778182 
L 388.142367 125.167792 
L 389.737564 123.921039 
L 391.332762 130.778182 
L 392.927959 130.154805 
L 394.523156 128.908052 
L 396.118353 127.037922 
L 397.713551 130.778182 
L 399.308748 130.154805 
L 400.903945 128.908052 
L 402.499142 130.778182 
L 404.09434 129.531429 
L 405.689537 129.531429 
L 407.284734 130.778182 
L 410.475129 130.778182 
L 412.070326 127.661299 
L 413.665523 130.778182 
L 415.26072 128.908052 
L 416.855918 125.791169 
L 418.451115 130.778182 
L 420.046312 130.778182 
L 421.641509 130.154805 
L 423.236707 128.908052 
L 428.022298 130.778182 
L 429.617496 130.154805 
L 431.212693 130.778182 
L 432.80789 126.414545 
L 434.403087 126.414545 
L 435.998285 127.661299 
L 437.593482 130.778182 
L 439.188679 121.427532 
L 440.783877 130.778182 
L 442.379074 130.154805 
L 443.974271 130.778182 
L 445.569468 127.037922 
L 448.759863 125.791169 
L 450.35506 130.778182 
L 451.950257 130.154805 
L 453.545455 130.778182 
L 455.140652 123.297662 
L 456.735849 126.414545 
L 458.331046 130.154805 
L 459.926244 128.908052 
L 461.521441 130.778182 
L 464.711835 130.778182 
L 466.307033 130.154805 
L 467.90223 130.778182 
L 469.497427 128.908052 
L 474.283019 130.778182 
L 479.068611 130.778182 
L 480.663808 128.284675 
L 482.259005 128.908052 
L 483.854202 130.154805 
L 485.4494 130.778182 
L 487.044597 130.154805 
L 488.639794 130.778182 
L 490.234991 127.661299 
L 491.830189 130.778182 
L 493.425386 130.778182 
L 496.61578 129.531429 
L 498.210978 130.778182 
L 501.401372 129.531429 
L 502.996569 130.778182 
L 504.591767 130.154805 
L 506.186964 130.778182 
L 507.782161 130.154805 
L 509.377358 128.908052 
L 510.972556 130.154805 
L 512.567753 129.531429 
L 514.16295 130.778182 
L 517.353345 130.778182 
L 520.543739 129.531429 
L 522.138937 127.037922 
L 523.734134 130.154805 
L 525.329331 130.778182 
L 526.924528 125.791169 
L 528.519726 124.544416 
L 530.114923 123.921039 
L 531.71012 130.778182 
L 534.900515 130.778182 
L 538.090909 129.531429 
L 539.686106 130.778182 
L 541.281304 125.791169 
L 542.876501 122.050909 
L 544.471698 130.154805 
L 546.066895 121.427532 
L 547.662093 123.921039 
L 549.25729 127.661299 
L 550.852487 130.778182 
L 557.233276 130.778182 
L 558.828473 130.154805 
L 560.423671 130.778182 
L 562.018868 130.778182 
L 563.614065 128.284675 
L 565.209262 129.531429 
L 566.80446 114.57039 
L 568.399657 119.557403 
L 569.994854 129.531429 
L 571.590051 130.154805 
L 573.185249 123.921039 
L 574.780446 114.57039 
L 576.375643 112.076883 
L 577.97084 112.076883 
L 579.566038 119.557403 
L 581.161235 119.557403 
L 582.756432 121.427532 
L 584.35163 124.544416 
L 585.946827 130.778182 
L 587.542024 126.414545 
L 589.137221 130.778182 
L 590.732419 130.778182 
L 592.327616 123.297662 
L 593.922813 123.297662 
L 595.51801 129.531429 
L 597.113208 122.674286 
L 598.708405 122.674286 
L 600.303602 128.284675 
L 601.898799 128.284675 
L 603.493997 126.414545 
L 605.089194 126.414545 
L 606.684391 130.154805 
L 608.279588 130.154805 
L 609.874786 130.778182 
L 611.469983 130.778182 
L 613.06518 128.284675 
L 614.660377 121.427532 
L 616.255575 125.791169 
L 617.850772 126.414545 
L 619.445969 130.154805 
L 621.041166 130.778182 
L 622.636364 130.778182 
L 622.636364 130.778182 
" style="fill:none;stroke:#ff7f0e;stroke-linecap:square;stroke-width:1.5;"/>
   </g>
   <g id="patch_3">
    <path d="M 90 135.36 
L 90 34.56 
" style="fill:none;stroke:#000000;stroke-linecap:square;stroke-linejoin:miter;stroke-width:0.8;"/>
   </g>
   <g id="patch_4">
    <path d="M 648 135.36 
L 648 34.56 
" style="fill:none;stroke:#000000;stroke-linecap:square;stroke-linejoin:miter;stroke-width:0.8;"/>
   </g>
   <g id="patch_5">
    <path d="M 90 135.36 
L 648 135.36 
" style="fill:none;stroke:#000000;stroke-linecap:square;stroke-linejoin:miter;stroke-width:0.8;"/>
   </g>
   <g id="patch_6">
    <path d="M 90 34.56 
L 648 34.56 
" style="fill:none;stroke:#000000;stroke-linecap:square;stroke-linejoin:miter;stroke-width:0.8;"/>
   </g>
   <g id="legend_1">
    <g id="patch_7">
     <path d="M 499.1375 71.91625 
L 641 71.91625 
Q 643 71.91625 643 69.91625 
L 643 41.56 
Q 643 39.56 641 39.56 
L 499.1375 39.56 
Q 497.1375 39.56 497.1375 41.56 
L 497.1375 69.91625 
Q 497.1375 71.91625 499.1375 71.91625 
z
" style="fill:#ffffff;opacity:0.8;stroke:#cccccc;stroke-linejoin:miter;"/>
    </g>
    <g id="line2d_14">
     <path d="M 501.1375 47.658437 
L 521.1375 47.658437 
" style="fill:none;stroke:#1f77b4;stroke-linecap:square;stroke-width:1.5;"/>
    </g>
    <g id="line2d_15"/>
    <g id="text_13">
     <!-- Total GitHub Clones -->
     <g transform="translate(529.1375 51.158437)scale(0.1 -0.1)">
      <defs>
       <path d="M -19 4666 
L 3928 4666 
L 3928 4134 
L 2272 4134 
L 2272 0 
L 1638 0 
L 1638 4134 
L -19 4134 
L -19 4666 
z
" id="DejaVuSans-54" transform="scale(0.015625)"/>
       <path d="M 1959 3097 
Q 1497 3097 1228 2736 
Q 959 2375 959 1747 
Q 959 1119 1226 758 
Q 1494 397 1959 397 
Q 2419 397 2687 759 
Q 2956 1122 2956 1747 
Q 2956 2369 2687 2733 
Q 2419 3097 1959 3097 
z
M 1959 3584 
Q 2709 3584 3137 3096 
Q 3566 2609 3566 1747 
Q 3566 888 3137 398 
Q 2709 -91 1959 -91 
Q 1206 -91 779 398 
Q 353 888 353 1747 
Q 353 2609 779 3096 
Q 1206 3584 1959 3584 
z
" id="DejaVuSans-6f" transform="scale(0.015625)"/>
       <path d="M 603 4863 
L 1178 4863 
L 1178 0 
L 603 0 
L 603 4863 
z
" id="DejaVuSans-6c" transform="scale(0.015625)"/>
       <path id="DejaVuSans-20" transform="scale(0.015625)"/>
       <path d="M 3809 666 
L 3809 1919 
L 2778 1919 
L 2778 2438 
L 4434 2438 
L 4434 434 
Q 4069 175 3628 42 
Q 3188 -91 2688 -91 
Q 1594 -91 976 548 
Q 359 1188 359 2328 
Q 359 3472 976 4111 
Q 1594 4750 2688 4750 
Q 3144 4750 3555 4637 
Q 3966 4525 4313 4306 
L 4313 3634 
Q 3963 3931 3569 4081 
Q 3175 4231 2741 4231 
Q 1884 4231 1454 3753 
Q 1025 3275 1025 2328 
Q 1025 1384 1454 906 
Q 1884 428 2741 428 
Q 3075 428 3337 486 
Q 3600 544 3809 666 
z
" id="DejaVuSans-47" transform="scale(0.015625)"/>
       <path d="M 603 3500 
L 1178 3500 
L 1178 0 
L 603 0 
L 603 3500 
z
M 603 4863 
L 1178 4863 
L 1178 4134 
L 603 4134 
L 603 4863 
z
" id="DejaVuSans-69" transform="scale(0.015625)"/>
       <path d="M 628 4666 
L 1259 4666 
L 1259 2753 
L 3553 2753 
L 3553 4666 
L 4184 4666 
L 4184 0 
L 3553 0 
L 3553 2222 
L 1259 2222 
L 1259 0 
L 628 0 
L 628 4666 
z
" id="DejaVuSans-48" transform="scale(0.015625)"/>
       <path d="M 544 1381 
L 544 3500 
L 1119 3500 
L 1119 1403 
Q 1119 906 1312 657 
Q 1506 409 1894 409 
Q 2359 409 2629 706 
Q 2900 1003 2900 1516 
L 2900 3500 
L 3475 3500 
L 3475 0 
L 2900 0 
L 2900 538 
Q 2691 219 2414 64 
Q 2138 -91 1772 -91 
Q 1169 -91 856 284 
Q 544 659 544 1381 
z
M 1991 3584 
L 1991 3584 
z
" id="DejaVuSans-75" transform="scale(0.015625)"/>
       <path d="M 3116 1747 
Q 3116 2381 2855 2742 
Q 2594 3103 2138 3103 
Q 1681 3103 1420 2742 
Q 1159 2381 1159 1747 
Q 1159 1113 1420 752 
Q 1681 391 2138 391 
Q 2594 391 2855 752 
Q 3116 1113 3116 1747 
z
M 1159 2969 
Q 1341 3281 1617 3432 
Q 1894 3584 2278 3584 
Q 2916 3584 3314 3078 
Q 3713 2572 3713 1747 
Q 3713 922 3314 415 
Q 2916 -91 2278 -91 
Q 1894 -91 1617 61 
Q 1341 213 1159 525 
L 1159 0 
L 581 0 
L 581 4863 
L 1159 4863 
L 1159 2969 
z
" id="DejaVuSans-62" transform="scale(0.015625)"/>
       <path d="M 4122 4306 
L 4122 3641 
Q 3803 3938 3442 4084 
Q 3081 4231 2675 4231 
Q 1875 4231 1450 3742 
Q 1025 3253 1025 2328 
Q 1025 1406 1450 917 
Q 1875 428 2675 428 
Q 3081 428 3442 575 
Q 3803 722 4122 1019 
L 4122 359 
Q 3791 134 3420 21 
Q 3050 -91 2638 -91 
Q 1578 -91 968 557 
Q 359 1206 359 2328 
Q 359 3453 968 4101 
Q 1578 4750 2638 4750 
Q 3056 4750 3426 4639 
Q 3797 4528 4122 4306 
z
" id="DejaVuSans-43" transform="scale(0.015625)"/>
       <path d="M 3513 2113 
L 3513 0 
L 2938 0 
L 2938 2094 
Q 2938 2591 2744 2837 
Q 2550 3084 2163 3084 
Q 1697 3084 1428 2787 
Q 1159 2491 1159 1978 
L 1159 0 
L 581 0 
L 581 3500 
L 1159 3500 
L 1159 2956 
Q 1366 3272 1645 3428 
Q 1925 3584 2291 3584 
Q 2894 3584 3203 3211 
Q 3513 2838 3513 2113 
z
" id="DejaVuSans-6e" transform="scale(0.015625)"/>
       <path d="M 2834 3397 
L 2834 2853 
Q 2591 2978 2328 3040 
Q 2066 3103 1784 3103 
Q 1356 3103 1142 2972 
Q 928 2841 928 2578 
Q 928 2378 1081 2264 
Q 1234 2150 1697 2047 
L 1894 2003 
Q 2506 1872 2764 1633 
Q 3022 1394 3022 966 
Q 3022 478 2636 193 
Q 2250 -91 1575 -91 
Q 1294 -91 989 -36 
Q 684 19 347 128 
L 347 722 
Q 666 556 975 473 
Q 1284 391 1588 391 
Q 1994 391 2212 530 
Q 2431 669 2431 922 
Q 2431 1156 2273 1281 
Q 2116 1406 1581 1522 
L 1381 1569 
Q 847 1681 609 1914 
Q 372 2147 372 2553 
Q 372 3047 722 3315 
Q 1072 3584 1716 3584 
Q 2034 3584 2315 3537 
Q 2597 3491 2834 3397 
z
" id="DejaVuSans-73" transform="scale(0.015625)"/>
      </defs>
      <use xlink:href="#DejaVuSans-54"/>
      <use x="44.083984" xlink:href="#DejaVuSans-6f"/>
      <use x="105.265625" xlink:href="#DejaVuSans-74"/>
      <use x="144.474609" xlink:href="#DejaVuSans-61"/>
      <use x="205.753906" xlink:href="#DejaVuSans-6c"/>
      <use x="233.537109" xlink:href="#DejaVuSans-20"/>
      <use x="265.324219" xlink:href="#DejaVuSans-47"/>
      <use x="342.814453" xlink:href="#DejaVuSans-69"/>
      <use x="370.597656" xlink:href="#DejaVuSans-74"/>
      <use x="409.806641" xlink:href="#DejaVuSans-48"/>
      <use x="485.001953" xlink:href="#DejaVuSans-75"/>
      <use x="548.380859" xlink:href="#DejaVuSans-62"/>
      <use x="611.857422" xlink:href="#DejaVuSans-20"/>
      <use x="643.644531" xlink:href="#DejaVuSans-43"/>
      <use x="713.46875" xlink:href="#DejaVuSans-6c"/>
      <use x="741.251953" xlink:href="#DejaVuSans-6f"/>
      <use x="802.433594" xlink:href="#DejaVuSans-6e"/>
      <use x="865.8125" xlink:href="#DejaVuSans-65"/>
      <use x="927.335938" xlink:href="#DejaVuSans-73"/>
     </g>
    </g>
    <g id="line2d_16">
     <path d="M 501.1375 62.336562 
L 521.1375 62.336562 
" style="fill:none;stroke:#ff7f0e;stroke-linecap:square;stroke-width:1.5;"/>
    </g>
    <g id="line2d_17"/>
    <g id="text_14">
     <!-- Unique GitHub Clones -->
     <g transform="translate(529.1375 65.836562)scale(0.1 -0.1)">
      <defs>
       <path d="M 556 4666 
L 1191 4666 
L 1191 1831 
Q 1191 1081 1462 751 
Q 1734 422 2344 422 
Q 2950 422 3222 751 
Q 3494 1081 3494 1831 
L 3494 4666 
L 4128 4666 
L 4128 1753 
Q 4128 841 3676 375 
Q 3225 -91 2344 -91 
Q 1459 -91 1007 375 
Q 556 841 556 1753 
L 556 4666 
z
" id="DejaVuSans-55" transform="scale(0.015625)"/>
       <path d="M 947 1747 
Q 947 1113 1208 752 
Q 1469 391 1925 391 
Q 2381 391 2643 752 
Q 2906 1113 2906 1747 
Q 2906 2381 2643 2742 
Q 2381 3103 1925 3103 
Q 1469 3103 1208 2742 
Q 947 2381 947 1747 
z
M 2906 525 
Q 2725 213 2448 61 
Q 2172 -91 1784 -91 
Q 1150 -91 751 415 
Q 353 922 353 1747 
Q 353 2572 751 3078 
Q 1150 3584 1784 3584 
Q 2172 3584 2448 3432 
Q 2725 3281 2906 2969 
L 2906 3500 
L 3481 3500 
L 3481 -1331 
L 2906 -1331 
L 2906 525 
z
" id="DejaVuSans-71" transform="scale(0.015625)"/>
      </defs>
      <use xlink:href="#DejaVuSans-55"/>
      <use x="73.193359" xlink:href="#DejaVuSans-6e"/>
      <use x="136.572266" xlink:href="#DejaVuSans-69"/>
      <use x="164.355469" xlink:href="#DejaVuSans-71"/>
      <use x="227.832031" xlink:href="#DejaVuSans-75"/>
      <use x="291.210938" xlink:href="#DejaVuSans-65"/>
      <use x="352.734375" xlink:href="#DejaVuSans-20"/>
      <use x="384.521484" xlink:href="#DejaVuSans-47"/>
      <use x="462.011719" xlink:href="#DejaVuSans-69"/>
      <use x="489.794922" xlink:href="#DejaVuSans-74"/>
      <use x="529.003906" xlink:href="#DejaVuSans-48"/>
      <use x="604.199219" xlink:href="#DejaVuSans-75"/>
      <use x="667.578125" xlink:href="#DejaVuSans-62"/>
      <use x="731.054688" xlink:href="#DejaVuSans-20"/>
      <use x="762.841797" xlink:href="#DejaVuSans-43"/>
      <use x="832.666016" xlink:href="#DejaVuSans-6c"/>
      <use x="860.449219" xlink:href="#DejaVuSans-6f"/>
      <use x="921.630859" xlink:href="#DejaVuSans-6e"/>
      <use x="985.009766" xlink:href="#DejaVuSans-65"/>
      <use x="1046.533203" xlink:href="#DejaVuSans-73"/>
     </g>
    </g>
   </g>
  </g>
  <g id="axes_2">
   <g id="patch_8">
    <path d="M 90 256.32 
L 648 256.32 
L 648 155.52 
L 90 155.52 
z
" style="fill:#ffffff;"/>
   </g>
   <g id="matplotlib.axis_3">
    <g id="xtick_8">
     <g id="line2d_18">
      <g>
       <use style="stroke:#000000;stroke-width:0.8;" x="115.363636" xlink:href="#mcb5d74070e" y="256.32"/>
      </g>
     </g>
     <g id="text_15">
      <!-- 2020-10-21 -->
      <g transform="translate(86.305824 270.918437)scale(0.1 -0.1)">
       <use xlink:href="#DejaVuSans-32"/>
       <use x="63.623047" xlink:href="#DejaVuSans-30"/>
       <use x="127.246094" xlink:href="#DejaVuSans-32"/>
       <use x="190.869141" xlink:href="#DejaVuSans-30"/>
       <use x="254.492188" xlink:href="#DejaVuSans-2d"/>
       <use x="290.576172" xlink:href="#DejaVuSans-31"/>
       <use x="354.199219" xlink:href="#DejaVuSans-30"/>
       <use x="417.822266" xlink:href="#DejaVuSans-2d"/>
       <use x="453.90625" xlink:href="#DejaVuSans-32"/>
       <use x="517.529297" xlink:href="#DejaVuSans-31"/>
      </g>
     </g>
    </g>
    <g id="xtick_9">
     <g id="line2d_19">
      <g>
       <use style="stroke:#000000;stroke-width:0.8;" x="181.93486" xlink:href="#mcb5d74070e" y="256.32"/>
      </g>
     </g>
     <g id="text_16">
      <!-- 2020-12-11 -->
      <g transform="translate(152.877048 270.918437)scale(0.1 -0.1)">
       <use xlink:href="#DejaVuSans-32"/>
       <use x="63.623047" xlink:href="#DejaVuSans-30"/>
       <use x="127.246094" xlink:href="#DejaVuSans-32"/>
       <use x="190.869141" xlink:href="#DejaVuSans-30"/>
       <use x="254.492188" xlink:href="#DejaVuSans-2d"/>
       <use x="290.576172" xlink:href="#DejaVuSans-31"/>
       <use x="354.199219" xlink:href="#DejaVuSans-32"/>
       <use x="417.822266" xlink:href="#DejaVuSans-2d"/>
       <use x="453.90625" xlink:href="#DejaVuSans-31"/>
       <use x="517.529297" xlink:href="#DejaVuSans-31"/>
      </g>
     </g>
    </g>
    <g id="xtick_10">
     <g id="line2d_20">
      <g>
       <use style="stroke:#000000;stroke-width:0.8;" x="248.506084" xlink:href="#mcb5d74070e" y="256.32"/>
      </g>
     </g>
     <g id="text_17">
      <!-- 2021-01-31 -->
      <g transform="translate(219.448272 270.918437)scale(0.1 -0.1)">
       <use xlink:href="#DejaVuSans-32"/>
       <use x="63.623047" xlink:href="#DejaVuSans-30"/>
       <use x="127.246094" xlink:href="#DejaVuSans-32"/>
       <use x="190.869141" xlink:href="#DejaVuSans-31"/>
       <use x="254.492188" xlink:href="#DejaVuSans-2d"/>
       <use x="290.576172" xlink:href="#DejaVuSans-30"/>
       <use x="354.199219" xlink:href="#DejaVuSans-31"/>
       <use x="417.822266" xlink:href="#DejaVuSans-2d"/>
       <use x="453.90625" xlink:href="#DejaVuSans-33"/>
       <use x="517.529297" xlink:href="#DejaVuSans-31"/>
      </g>
     </g>
    </g>
    <g id="xtick_11">
     <g id="line2d_21">
      <g>
       <use style="stroke:#000000;stroke-width:0.8;" x="315.077309" xlink:href="#mcb5d74070e" y="256.32"/>
      </g>
     </g>
     <g id="text_18">
      <!-- 2021-03-22 -->
      <g transform="translate(286.019496 270.918437)scale(0.1 -0.1)">
       <use xlink:href="#DejaVuSans-32"/>
       <use x="63.623047" xlink:href="#DejaVuSans-30"/>
       <use x="127.246094" xlink:href="#DejaVuSans-32"/>
       <use x="190.869141" xlink:href="#DejaVuSans-31"/>
       <use x="254.492188" xlink:href="#DejaVuSans-2d"/>
       <use x="290.576172" xlink:href="#DejaVuSans-30"/>
       <use x="354.199219" xlink:href="#DejaVuSans-33"/>
       <use x="417.822266" xlink:href="#DejaVuSans-2d"/>
       <use x="453.90625" xlink:href="#DejaVuSans-32"/>
       <use x="517.529297" xlink:href="#DejaVuSans-32"/>
      </g>
     </g>
    </g>
    <g id="xtick_12">
     <g id="line2d_22">
      <g>
       <use style="stroke:#000000;stroke-width:0.8;" x="381.648533" xlink:href="#mcb5d74070e" y="256.32"/>
      </g>
     </g>
     <g id="text_19">
      <!-- 2021-05-10 -->
      <g transform="translate(352.59072 270.918437)scale(0.1 -0.1)">
       <use xlink:href="#DejaVuSans-32"/>
       <use x="63.623047" xlink:href="#DejaVuSans-30"/>
       <use x="127.246094" xlink:href="#DejaVuSans-32"/>
       <use x="190.869141" xlink:href="#DejaVuSans-31"/>
       <use x="254.492188" xlink:href="#DejaVuSans-2d"/>
       <use x="290.576172" xlink:href="#DejaVuSans-30"/>
       <use x="354.199219" xlink:href="#DejaVuSans-35"/>
       <use x="417.822266" xlink:href="#DejaVuSans-2d"/>
       <use x="453.90625" xlink:href="#DejaVuSans-31"/>
       <use x="517.529297" xlink:href="#DejaVuSans-30"/>
      </g>
     </g>
    </g>
    <g id="xtick_13">
     <g id="line2d_23">
      <g>
       <use style="stroke:#000000;stroke-width:0.8;" x="448.219757" xlink:href="#mcb5d74070e" y="256.32"/>
      </g>
     </g>
     <g id="text_20">
      <!-- 2021-06-29 -->
      <g transform="translate(419.161944 270.918437)scale(0.1 -0.1)">
       <use xlink:href="#DejaVuSans-32"/>
       <use x="63.623047" xlink:href="#DejaVuSans-30"/>
       <use x="127.246094" xlink:href="#DejaVuSans-32"/>
       <use x="190.869141" xlink:href="#DejaVuSans-31"/>
       <use x="254.492188" xlink:href="#DejaVuSans-2d"/>
       <use x="290.576172" xlink:href="#DejaVuSans-30"/>
       <use x="354.199219" xlink:href="#DejaVuSans-36"/>
       <use x="417.822266" xlink:href="#DejaVuSans-2d"/>
       <use x="453.90625" xlink:href="#DejaVuSans-32"/>
       <use x="517.529297" xlink:href="#DejaVuSans-39"/>
      </g>
     </g>
    </g>
    <g id="xtick_14">
     <g id="line2d_24">
      <g>
       <use style="stroke:#000000;stroke-width:0.8;" x="514.790981" xlink:href="#mcb5d74070e" y="256.32"/>
      </g>
     </g>
     <g id="text_21">
      <!-- 2021-08-17 -->
      <g transform="translate(485.733168 270.918437)scale(0.1 -0.1)">
       <use xlink:href="#DejaVuSans-32"/>
       <use x="63.623047" xlink:href="#DejaVuSans-30"/>
       <use x="127.246094" xlink:href="#DejaVuSans-32"/>
       <use x="190.869141" xlink:href="#DejaVuSans-31"/>
       <use x="254.492188" xlink:href="#DejaVuSans-2d"/>
       <use x="290.576172" xlink:href="#DejaVuSans-30"/>
       <use x="354.199219" xlink:href="#DejaVuSans-38"/>
       <use x="417.822266" xlink:href="#DejaVuSans-2d"/>
       <use x="453.90625" xlink:href="#DejaVuSans-31"/>
       <use x="517.529297" xlink:href="#DejaVuSans-37"/>
      </g>
     </g>
    </g>
    <g id="xtick_15">
     <g id="line2d_25">
      <g>
       <use style="stroke:#000000;stroke-width:0.8;" x="581.362205" xlink:href="#mcb5d74070e" y="256.32"/>
      </g>
     </g>
     <g id="text_22">
      <!-- 2021-10-04 -->
      <g transform="translate(552.304392 270.918437)scale(0.1 -0.1)">
       <use xlink:href="#DejaVuSans-32"/>
       <use x="63.623047" xlink:href="#DejaVuSans-30"/>
       <use x="127.246094" xlink:href="#DejaVuSans-32"/>
       <use x="190.869141" xlink:href="#DejaVuSans-31"/>
       <use x="254.492188" xlink:href="#DejaVuSans-2d"/>
       <use x="290.576172" xlink:href="#DejaVuSans-31"/>
       <use x="354.199219" xlink:href="#DejaVuSans-30"/>
       <use x="417.822266" xlink:href="#DejaVuSans-2d"/>
       <use x="453.90625" xlink:href="#DejaVuSans-30"/>
       <use x="517.529297" xlink:href="#DejaVuSans-34"/>
      </g>
     </g>
    </g>
    <g id="xtick_16">
     <g id="line2d_26">
      <g>
       <use style="stroke:#000000;stroke-width:0.8;" x="647.933429" xlink:href="#mcb5d74070e" y="256.32"/>
      </g>
     </g>
    </g>
    <g id="text_23">
     <!-- _date -->
     <g transform="translate(355.225 284.596563)scale(0.1 -0.1)">
      <use xlink:href="#DejaVuSans-5f"/>
      <use x="50" xlink:href="#DejaVuSans-64"/>
      <use x="113.476562" xlink:href="#DejaVuSans-61"/>
      <use x="174.755859" xlink:href="#DejaVuSans-74"/>
      <use x="213.964844" xlink:href="#DejaVuSans-65"/>
     </g>
    </g>
   </g>
   <g id="matplotlib.axis_4">
    <g id="ytick_5">
     <g id="line2d_27">
      <g>
       <use style="stroke:#000000;stroke-width:0.8;" x="90" xlink:href="#m7970738549" y="252.02101"/>
      </g>
     </g>
     <g id="text_24">
      <!-- 0 -->
      <g transform="translate(76.6375 255.820229)scale(0.1 -0.1)">
       <use xlink:href="#DejaVuSans-30"/>
      </g>
     </g>
    </g>
    <g id="ytick_6">
     <g id="line2d_28">
      <g>
       <use style="stroke:#000000;stroke-width:0.8;" x="90" xlink:href="#m7970738549" y="223.738182"/>
      </g>
     </g>
     <g id="text_25">
      <!-- 100 -->
      <g transform="translate(63.9125 227.537401)scale(0.1 -0.1)">
       <use xlink:href="#DejaVuSans-31"/>
       <use x="63.623047" xlink:href="#DejaVuSans-30"/>
       <use x="127.246094" xlink:href="#DejaVuSans-30"/>
      </g>
     </g>
    </g>
    <g id="ytick_7">
     <g id="line2d_29">
      <g>
       <use style="stroke:#000000;stroke-width:0.8;" x="90" xlink:href="#m7970738549" y="195.455354"/>
      </g>
     </g>
     <g id="text_26">
      <!-- 200 -->
      <g transform="translate(63.9125 199.254572)scale(0.1 -0.1)">
       <use xlink:href="#DejaVuSans-32"/>
       <use x="63.623047" xlink:href="#DejaVuSans-30"/>
       <use x="127.246094" xlink:href="#DejaVuSans-30"/>
      </g>
     </g>
    </g>
    <g id="ytick_8">
     <g id="line2d_30">
      <g>
       <use style="stroke:#000000;stroke-width:0.8;" x="90" xlink:href="#m7970738549" y="167.172525"/>
      </g>
     </g>
     <g id="text_27">
      <!-- 300 -->
      <g transform="translate(63.9125 170.971744)scale(0.1 -0.1)">
       <use xlink:href="#DejaVuSans-33"/>
       <use x="63.623047" xlink:href="#DejaVuSans-30"/>
       <use x="127.246094" xlink:href="#DejaVuSans-30"/>
      </g>
     </g>
    </g>
   </g>
   <g id="line2d_31">
    <path clip-path="url(#p5249e45291)" d="M 115.363636 251.738182 
L 116.695061 230.808889 
L 118.026485 228.263434 
L 119.35791 244.384646 
L 120.689334 251.455354 
L 122.020759 238.728081 
L 123.352183 238.445253 
L 124.683608 234.485657 
L 126.015032 238.445253 
L 127.346457 239.293737 
L 128.677881 250.606869 
L 130.009306 248.344242 
L 131.34073 247.495758 
L 132.672155 239.293737 
L 134.003579 211.576566 
L 135.335004 226.000808 
L 136.666428 243.81899 
L 137.997853 247.212929 
L 139.329277 251.172525 
L 140.660702 238.445253 
L 141.992126 224.303838 
L 143.32355 245.798788 
L 144.654975 243.253333 
L 145.986399 236.748283 
L 147.317824 236.748283 
L 148.649248 249.758384 
L 149.980673 237.031111 
L 151.312097 233.354343 
L 152.643522 243.536162 
L 153.974946 243.536162 
L 155.306371 238.728081 
L 156.637795 246.930101 
L 157.96922 249.192727 
L 159.300644 226.283636 
L 160.632069 248.909899 
L 161.963493 248.061414 
L 163.294918 249.758384 
L 164.626342 247.778586 
L 165.957767 251.455354 
L 167.289191 251.455354 
L 168.620616 227.980606 
L 169.95204 215.253333 
L 171.283465 243.81899 
L 172.614889 245.233131 
L 173.946314 226.566465 
L 175.277738 250.889697 
L 176.609162 244.950303 
L 177.940587 241.556364 
L 179.272011 246.081616 
L 180.603436 236.182626 
L 181.93486 246.930101 
L 183.266285 250.889697 
L 184.597709 251.738182 
L 185.929134 243.81899 
L 187.260558 242.12202 
L 188.591983 242.404848 
L 189.923407 240.990707 
L 191.254832 248.909899 
L 192.586256 250.889697 
L 193.917681 250.606869 
L 195.249105 247.212929 
L 196.58053 247.778586 
L 197.911954 242.687677 
L 199.243379 250.041212 
L 200.574803 251.172525 
L 201.906228 251.455354 
L 203.237652 248.344242 
L 204.569077 249.475556 
L 205.900501 250.32404 
L 207.231926 251.738182 
L 208.56335 247.212929 
L 209.894775 247.495758 
L 211.226199 250.889697 
L 212.557623 246.364444 
L 213.889048 242.687677 
L 215.220472 240.142222 
L 216.551897 247.778586 
L 217.883321 248.909899 
L 219.214746 232.505859 
L 220.54617 250.32404 
L 221.877595 234.202828 
L 223.209019 235.899798 
L 224.540444 240.142222 
L 225.871868 233.637172 
L 227.203293 246.930101 
L 228.534717 235.051313 
L 229.866142 251.172525 
L 231.197566 233.92 
L 232.528991 235.334141 
L 233.860415 226.849293 
L 235.19184 232.788687 
L 236.523264 240.142222 
L 237.854689 242.970505 
L 239.186113 248.344242 
L 240.517538 229.111919 
L 241.848962 224.586667 
L 243.180387 236.465455 
L 244.511811 235.051313 
L 245.843236 232.505859 
L 247.17466 247.495758 
L 248.506084 248.627071 
L 249.837509 230.243232 
L 251.168933 246.930101 
L 253.831782 233.354343 
L 256.494631 250.889697 
L 257.826056 247.778586 
L 259.15748 235.61697 
L 260.488905 235.051313 
L 261.820329 225.435152 
L 263.151754 242.12202 
L 264.483178 250.32404 
L 265.814603 250.606869 
L 267.146027 249.192727 
L 268.477452 242.687677 
L 269.808876 242.970505 
L 271.140301 246.930101 
L 272.471725 231.091717 
L 273.80315 248.344242 
L 275.134574 242.12202 
L 276.465999 239.293737 
L 277.797423 240.990707 
L 279.128848 225.71798 
L 280.460272 235.899798 
L 281.791696 235.051313 
L 283.123121 240.142222 
L 284.454545 238.445253 
L 285.78597 239.576566 
L 287.117394 183.859394 
L 288.448819 245.798788 
L 289.780243 231.091717 
L 291.111668 234.768485 
L 292.443092 227.132121 
L 293.774517 241.839192 
L 295.105941 200.263434 
L 296.437366 198.566465 
L 297.76879 204.505859 
L 299.100215 229.394747 
L 300.431639 174.243232 
L 301.763064 223.738182 
L 303.094488 246.081616 
L 304.425913 245.233131 
L 305.757337 237.596768 
L 307.088762 231.374545 
L 308.420186 227.980606 
L 309.751611 234.768485 
L 311.083035 224.02101 
L 312.41446 243.81899 
L 313.745884 245.798788 
L 315.077309 205.637172 
L 316.408733 232.788687 
L 317.740157 234.485657 
L 319.071582 246.364444 
L 320.403006 248.627071 
L 321.734431 248.061414 
L 323.065855 233.071515 
L 324.39728 184.425051 
L 325.728704 229.960404 
L 327.060129 234.485657 
L 328.391553 214.404848 
L 329.722978 244.384646 
L 331.054402 248.344242 
L 332.385827 244.950303 
L 333.717251 222.041212 
L 335.048676 238.728081 
L 336.3801 223.455354 
L 337.711525 200.546263 
L 339.042949 233.92 
L 340.374374 241.273535 
L 341.705798 246.081616 
L 343.037223 177.354343 
L 344.368647 176.505859 
L 345.700072 227.697778 
L 347.031496 243.536162 
L 348.362921 235.334141 
L 349.694345 236.748283 
L 351.02577 248.909899 
L 352.357194 246.930101 
L 353.688618 187.81899 
L 355.020043 181.031111 
L 356.351467 198.566465 
L 357.682892 242.970505 
L 359.014316 249.192727 
L 360.345741 236.748283 
L 361.677165 247.495758 
L 364.340014 224.586667 
L 365.671439 162.647273 
L 367.002863 222.32404 
L 368.334288 221.475556 
L 369.665712 226.283636 
L 370.997137 245.51596 
L 372.328561 246.364444 
L 373.659986 220.344242 
L 374.99141 236.182626 
L 376.322835 235.899798 
L 377.654259 226.566465 
L 378.985684 243.253333 
L 380.317108 249.192727 
L 381.648533 198.283636 
L 382.979957 237.313939 
L 384.311382 212.990707 
L 385.642806 206.768485 
L 386.97423 213.556364 
L 388.305655 249.758384 
L 389.637079 249.758384 
L 390.968504 222.606869 
L 392.299928 233.071515 
L 393.631353 232.505859 
L 394.962777 239.010909 
L 396.294202 242.687677 
L 397.625626 248.344242 
L 398.957051 246.081616 
L 400.288475 226.000808 
L 401.6199 244.101818 
L 402.951324 240.425051 
L 404.282749 232.22303 
L 405.614173 238.728081 
L 406.945598 249.758384 
L 408.277022 249.758384 
L 409.608447 242.970505 
L 410.939871 240.142222 
L 412.271296 246.364444 
L 413.60272 241.273535 
L 414.934145 243.536162 
L 416.265569 249.192727 
L 417.596994 247.495758 
L 418.928418 231.091717 
L 420.259843 236.465455 
L 421.591267 168.303838 
L 422.922691 213.839192 
L 424.254116 244.101818 
L 425.58554 242.12202 
L 426.916965 250.041212 
L 428.248389 232.22303 
L 429.579814 234.202828 
L 430.911238 241.839192 
L 432.242663 240.990707 
L 433.574087 235.61697 
L 434.905512 249.758384 
L 436.236936 250.32404 
L 437.568361 193.192727 
L 438.899785 239.293737 
L 440.23121 244.950303 
L 441.562634 247.212929 
L 442.894059 201.677576 
L 444.225483 247.212929 
L 445.556908 248.061414 
L 448.219757 241.839192 
L 449.551181 242.12202 
L 450.882606 224.02101 
L 452.21403 244.384646 
L 453.545455 249.758384 
L 454.876879 243.536162 
L 456.208304 245.233131 
L 457.539728 180.182626 
L 458.871152 197.435152 
L 460.202577 240.425051 
L 461.534001 242.404848 
L 462.865426 244.667475 
L 464.19685 244.101818 
L 465.528275 231.657374 
L 466.859699 242.12202 
L 468.191124 243.253333 
L 469.522548 222.32404 
L 470.853973 239.293737 
L 472.185397 250.32404 
L 473.516822 251.738182 
L 474.848246 244.667475 
L 476.179671 245.233131 
L 477.511095 246.647273 
L 478.84252 243.536162 
L 480.173944 246.081616 
L 481.505369 249.475556 
L 482.836793 251.172525 
L 484.168218 243.536162 
L 485.499642 243.253333 
L 486.831067 230.808889 
L 488.162491 229.111919 
L 489.493916 250.606869 
L 490.82534 246.081616 
L 492.156764 251.738182 
L 493.488189 239.010909 
L 494.819613 240.142222 
L 496.151038 242.687677 
L 497.482462 239.859394 
L 498.813887 248.344242 
L 500.145311 245.51596 
L 501.476736 250.041212 
L 502.80816 250.32404 
L 504.139585 236.748283 
L 505.471009 238.728081 
L 506.802434 243.81899 
L 508.133858 240.707879 
L 509.465283 231.374545 
L 510.796707 241.839192 
L 512.128132 248.344242 
L 513.459556 232.505859 
L 514.790981 250.32404 
L 516.122405 245.798788 
L 517.45383 244.101818 
L 518.785254 251.172525 
L 520.116679 250.889697 
L 521.448103 244.667475 
L 522.779528 245.233131 
L 524.110952 232.22303 
L 525.442377 230.526061 
L 526.773801 248.909899 
L 528.105225 249.758384 
L 529.43665 250.32404 
L 530.768074 242.12202 
L 532.099499 242.404848 
L 533.430923 226.849293 
L 534.762348 235.61697 
L 536.093772 235.334141 
L 537.425197 244.950303 
L 538.756621 249.758384 
L 540.088046 245.51596 
L 541.41947 246.364444 
L 542.750895 249.758384 
L 544.082319 236.465455 
L 545.413744 251.172525 
L 546.745168 247.495758 
L 548.076593 242.12202 
L 549.408017 224.586667 
L 550.739442 250.889697 
L 552.070866 248.061414 
L 553.402291 232.788687 
L 554.733715 214.970505 
L 556.06514 235.899798 
L 557.396564 248.061414 
L 558.727989 247.495758 
L 560.059413 250.32404 
L 561.390838 246.364444 
L 562.722262 231.091717 
L 564.053686 229.394747 
L 565.385111 236.465455 
L 566.716535 219.778586 
L 568.04796 232.788687 
L 569.379384 248.344242 
L 570.710809 251.455354 
L 572.042233 248.344242 
L 573.373658 249.758384 
L 574.705082 239.293737 
L 576.036507 186.12202 
L 577.367931 228.263434 
L 578.699356 242.12202 
L 580.03078 240.425051 
L 581.362205 229.677576 
L 582.693629 229.677576 
L 584.025054 219.212929 
L 585.356478 195.455354 
L 586.687903 215.536162 
L 588.019327 246.081616 
L 589.350752 250.606869 
L 590.682176 223.172525 
L 592.013601 226.849293 
L 593.345025 210.445253 
L 594.67645 239.576566 
L 596.007874 235.334141 
L 597.339298 245.798788 
L 598.670723 248.061414 
L 600.002147 213.556364 
L 601.333572 237.879596 
L 602.664996 249.475556 
L 603.996421 250.32404 
L 605.327845 222.041212 
L 606.65927 240.707879 
L 607.990694 160.101818 
L 609.322119 239.859394 
L 610.653543 248.627071 
L 611.984968 250.32404 
L 613.316392 235.051313 
L 614.647817 226.566465 
L 615.979241 227.697778 
L 617.310666 242.404848 
L 618.64209 232.22303 
L 619.973515 238.162424 
L 621.304939 246.647273 
L 622.636364 245.51596 
L 622.636364 245.51596 
" style="fill:none;stroke:#1f77b4;stroke-linecap:square;stroke-width:1.5;"/>
   </g>
   <g id="line2d_32">
    <path clip-path="url(#p5249e45291)" d="M 115.363636 251.738182 
L 116.695061 249.475556 
L 118.026485 248.344242 
L 119.35791 249.475556 
L 120.689334 251.738182 
L 122.020759 250.041212 
L 123.352183 249.192727 
L 124.683608 249.192727 
L 126.015032 248.909899 
L 127.346457 249.475556 
L 128.677881 251.455354 
L 134.003579 249.192727 
L 135.335004 248.909899 
L 136.666428 250.041212 
L 139.329277 251.738182 
L 140.660702 248.909899 
L 141.992126 249.475556 
L 143.32355 250.606869 
L 144.654975 250.889697 
L 145.986399 250.606869 
L 147.317824 251.455354 
L 148.649248 251.172525 
L 149.980673 250.041212 
L 151.312097 251.172525 
L 152.643522 248.909899 
L 153.974946 249.758384 
L 155.306371 250.32404 
L 156.637795 251.172525 
L 157.96922 251.172525 
L 159.300644 247.495758 
L 160.632069 251.455354 
L 161.963493 251.455354 
L 163.294918 251.172525 
L 165.957767 251.738182 
L 167.289191 251.455354 
L 168.620616 249.475556 
L 169.95204 246.930101 
L 171.283465 248.627071 
L 172.614889 250.041212 
L 173.946314 250.041212 
L 175.277738 251.455354 
L 176.609162 250.32404 
L 177.940587 250.041212 
L 179.272011 250.889697 
L 180.603436 247.778586 
L 181.93486 249.475556 
L 183.266285 251.455354 
L 184.597709 251.738182 
L 185.929134 249.192727 
L 188.591983 249.192727 
L 189.923407 250.041212 
L 191.254832 250.32404 
L 192.586256 251.172525 
L 193.917681 251.455354 
L 195.249105 250.889697 
L 196.58053 250.606869 
L 197.911954 251.172525 
L 200.574803 251.172525 
L 201.906228 251.455354 
L 203.237652 250.889697 
L 205.900501 250.889697 
L 207.231926 251.738182 
L 208.56335 251.172525 
L 209.894775 251.172525 
L 211.226199 250.889697 
L 212.557623 249.758384 
L 213.889048 248.061414 
L 215.220472 250.041212 
L 216.551897 251.172525 
L 217.883321 250.889697 
L 219.214746 250.889697 
L 220.54617 251.172525 
L 221.877595 249.475556 
L 223.209019 248.627071 
L 224.540444 249.758384 
L 225.871868 246.930101 
L 227.203293 249.758384 
L 228.534717 250.32404 
L 229.866142 251.172525 
L 231.197566 250.606869 
L 232.528991 250.606869 
L 233.860415 248.344242 
L 235.19184 249.475556 
L 236.523264 249.192727 
L 237.854689 249.192727 
L 239.186113 250.32404 
L 240.517538 246.081616 
L 241.848962 247.778586 
L 243.180387 249.192727 
L 244.511811 247.495758 
L 245.843236 246.364444 
L 247.17466 250.889697 
L 248.506084 250.606869 
L 249.837509 248.627071 
L 251.168933 250.041212 
L 252.500358 248.061414 
L 253.831782 249.475556 
L 255.163207 249.475556 
L 256.494631 250.889697 
L 257.826056 251.172525 
L 259.15748 248.909899 
L 260.488905 248.061414 
L 261.820329 248.344242 
L 263.151754 250.889697 
L 264.483178 251.455354 
L 267.146027 250.889697 
L 268.477452 250.889697 
L 269.808876 249.475556 
L 271.140301 250.32404 
L 272.471725 248.909899 
L 273.80315 250.889697 
L 275.134574 250.32404 
L 276.465999 250.889697 
L 277.797423 249.192727 
L 279.128848 248.909899 
L 280.460272 248.909899 
L 281.791696 248.061414 
L 283.123121 250.32404 
L 284.454545 250.889697 
L 285.78597 250.889697 
L 287.117394 242.404848 
L 288.448819 248.909899 
L 289.780243 248.909899 
L 291.111668 247.495758 
L 292.443092 249.192727 
L 293.774517 250.606869 
L 295.105941 250.606869 
L 296.437366 246.364444 
L 297.76879 246.647273 
L 299.100215 248.344242 
L 300.431639 246.647273 
L 301.763064 247.495758 
L 303.094488 250.041212 
L 304.425913 250.889697 
L 305.757337 247.495758 
L 307.088762 246.081616 
L 308.420186 247.212929 
L 309.751611 247.495758 
L 311.083035 249.475556 
L 312.41446 251.172525 
L 313.745884 250.041212 
L 315.077309 247.778586 
L 316.408733 247.778586 
L 317.740157 248.627071 
L 319.071582 250.606869 
L 321.734431 251.172525 
L 323.065855 250.041212 
L 324.39728 246.364444 
L 325.728704 247.212929 
L 327.060129 248.627071 
L 328.391553 246.930101 
L 329.722978 249.758384 
L 331.054402 251.172525 
L 333.717251 249.475556 
L 335.048676 248.344242 
L 336.3801 248.627071 
L 337.711525 247.495758 
L 339.042949 249.192727 
L 340.374374 249.475556 
L 341.705798 250.889697 
L 343.037223 245.798788 
L 344.368647 245.51596 
L 345.700072 248.061414 
L 347.031496 248.909899 
L 348.362921 249.192727 
L 349.694345 249.192727 
L 351.02577 250.889697 
L 352.357194 250.32404 
L 353.688618 245.798788 
L 355.020043 244.384646 
L 356.351467 246.930101 
L 357.682892 248.909899 
L 359.014316 250.32404 
L 360.345741 249.192727 
L 361.677165 250.32404 
L 363.00859 246.364444 
L 364.340014 246.647273 
L 365.671439 229.111919 
L 367.002863 248.061414 
L 368.334288 246.647273 
L 369.665712 250.606869 
L 370.997137 251.738182 
L 372.328561 249.758384 
L 373.659986 248.344242 
L 374.99141 248.344242 
L 376.322835 248.627071 
L 377.654259 247.778586 
L 380.317108 251.172525 
L 381.648533 249.192727 
L 382.979957 248.344242 
L 384.311382 246.930101 
L 385.642806 247.212929 
L 386.97423 245.798788 
L 388.305655 250.606869 
L 389.637079 251.738182 
L 390.968504 245.798788 
L 392.299928 247.212929 
L 393.631353 249.475556 
L 394.962777 247.495758 
L 396.294202 248.344242 
L 397.625626 251.455354 
L 398.957051 250.32404 
L 400.288475 248.344242 
L 401.6199 249.475556 
L 402.951324 248.061414 
L 404.282749 246.364444 
L 406.945598 250.889697 
L 408.277022 251.172525 
L 409.608447 249.192727 
L 410.939871 247.778586 
L 412.271296 250.041212 
L 413.60272 249.475556 
L 414.934145 249.475556 
L 417.596994 250.041212 
L 418.928418 246.930101 
L 420.259843 248.909899 
L 421.591267 248.909899 
L 422.922691 250.041212 
L 424.254116 249.192727 
L 425.58554 251.172525 
L 426.916965 250.32404 
L 428.248389 248.344242 
L 429.579814 249.192727 
L 430.911238 248.909899 
L 432.242663 248.344242 
L 433.574087 249.192727 
L 434.905512 251.172525 
L 436.236936 250.889697 
L 437.568361 247.495758 
L 438.899785 250.606869 
L 440.23121 249.758384 
L 441.562634 249.192727 
L 442.894059 245.798788 
L 444.225483 251.172525 
L 445.556908 250.606869 
L 446.888332 249.758384 
L 448.219757 250.32404 
L 449.551181 248.909899 
L 450.882606 248.061414 
L 452.21403 249.192727 
L 453.545455 250.889697 
L 454.876879 250.889697 
L 456.208304 249.475556 
L 457.539728 247.212929 
L 458.871152 247.212929 
L 460.202577 250.32404 
L 461.534001 248.627071 
L 462.865426 250.606869 
L 464.19685 249.475556 
L 465.528275 247.778586 
L 466.859699 248.627071 
L 468.191124 248.627071 
L 469.522548 247.778586 
L 470.853973 248.061414 
L 472.185397 251.172525 
L 473.516822 251.738182 
L 474.848246 250.041212 
L 476.179671 250.041212 
L 477.511095 250.32404 
L 478.84252 250.32404 
L 480.173944 250.606869 
L 482.836793 251.738182 
L 484.168218 250.32404 
L 485.499642 249.475556 
L 486.831067 249.758384 
L 488.162491 248.627071 
L 489.493916 251.172525 
L 490.82534 250.32404 
L 492.156764 251.738182 
L 493.488189 250.32404 
L 494.819613 250.32404 
L 496.151038 248.344242 
L 497.482462 247.778586 
L 498.813887 249.475556 
L 500.145311 250.606869 
L 501.476736 250.606869 
L 502.80816 250.889697 
L 504.139585 248.627071 
L 505.471009 249.475556 
L 506.802434 249.758384 
L 508.133858 249.758384 
L 509.465283 248.909899 
L 510.796707 249.192727 
L 512.128132 250.606869 
L 513.459556 248.344242 
L 514.790981 251.455354 
L 516.122405 249.758384 
L 517.45383 249.758384 
L 518.785254 251.172525 
L 520.116679 250.889697 
L 521.448103 250.041212 
L 522.779528 250.041212 
L 524.110952 249.192727 
L 525.442377 249.475556 
L 526.773801 251.172525 
L 528.105225 250.889697 
L 529.43665 251.455354 
L 530.768074 250.32404 
L 532.099499 250.606869 
L 533.430923 250.041212 
L 534.762348 248.627071 
L 536.093772 249.192727 
L 537.425197 250.32404 
L 538.756621 250.889697 
L 540.088046 250.32404 
L 541.41947 251.455354 
L 542.750895 250.889697 
L 544.082319 249.192727 
L 545.413744 251.738182 
L 546.745168 250.041212 
L 548.076593 251.172525 
L 549.408017 248.344242 
L 550.739442 251.455354 
L 552.070866 251.172525 
L 553.402291 248.061414 
L 556.06514 249.192727 
L 557.396564 250.32404 
L 558.727989 249.758384 
L 560.059413 251.172525 
L 561.390838 250.606869 
L 562.722262 247.778586 
L 564.053686 249.758384 
L 565.385111 250.041212 
L 566.716535 249.192727 
L 568.04796 249.758384 
L 569.379384 249.758384 
L 570.710809 251.455354 
L 572.042233 251.455354 
L 573.373658 250.889697 
L 574.705082 248.344242 
L 577.367931 248.344242 
L 578.699356 249.758384 
L 580.03078 249.758384 
L 581.362205 248.909899 
L 582.693629 248.627071 
L 584.025054 247.212929 
L 585.356478 249.475556 
L 586.687903 247.495758 
L 588.019327 250.041212 
L 589.350752 251.172525 
L 590.682176 250.32404 
L 592.013601 249.758384 
L 593.345025 248.061414 
L 594.67645 248.344242 
L 596.007874 249.192727 
L 597.339298 249.758384 
L 598.670723 250.041212 
L 600.002147 247.495758 
L 601.333572 248.344242 
L 602.664996 250.606869 
L 603.996421 250.889697 
L 605.327845 249.475556 
L 606.65927 250.889697 
L 607.990694 249.192727 
L 609.322119 248.909899 
L 610.653543 250.041212 
L 611.984968 250.606869 
L 613.316392 249.475556 
L 614.647817 247.495758 
L 615.979241 250.041212 
L 617.310666 250.32404 
L 618.64209 248.627071 
L 619.973515 248.909899 
L 621.304939 250.889697 
L 622.636364 250.32404 
L 622.636364 250.32404 
" style="fill:none;stroke:#ff7f0e;stroke-linecap:square;stroke-width:1.5;"/>
   </g>
   <g id="patch_9">
    <path d="M 90 256.32 
L 90 155.52 
" style="fill:none;stroke:#000000;stroke-linecap:square;stroke-linejoin:miter;stroke-width:0.8;"/>
   </g>
   <g id="patch_10">
    <path d="M 648 256.32 
L 648 155.52 
" style="fill:none;stroke:#000000;stroke-linecap:square;stroke-linejoin:miter;stroke-width:0.8;"/>
   </g>
   <g id="patch_11">
    <path d="M 90 256.32 
L 648 256.32 
" style="fill:none;stroke:#000000;stroke-linecap:square;stroke-linejoin:miter;stroke-width:0.8;"/>
   </g>
   <g id="patch_12">
    <path d="M 90 155.52 
L 648 155.52 
" style="fill:none;stroke:#000000;stroke-linecap:square;stroke-linejoin:miter;stroke-width:0.8;"/>
   </g>
   <g id="legend_2">
    <g id="patch_13">
     <path d="M 97 192.87625 
L 234.217188 192.87625 
Q 236.217188 192.87625 236.217188 190.87625 
L 236.217188 162.52 
Q 236.217188 160.52 234.217188 160.52 
L 97 160.52 
Q 95 160.52 95 162.52 
L 95 190.87625 
Q 95 192.87625 97 192.87625 
z
" style="fill:#ffffff;opacity:0.8;stroke:#cccccc;stroke-linejoin:miter;"/>
    </g>
    <g id="line2d_33">
     <path d="M 99 168.618437 
L 119 168.618437 
" style="fill:none;stroke:#1f77b4;stroke-linecap:square;stroke-width:1.5;"/>
    </g>
    <g id="line2d_34"/>
    <g id="text_28">
     <!-- Total GitHub Views -->
     <g transform="translate(127 172.118437)scale(0.1 -0.1)">
      <defs>
       <path d="M 1831 0 
L 50 4666 
L 709 4666 
L 2188 738 
L 3669 4666 
L 4325 4666 
L 2547 0 
L 1831 0 
z
" id="DejaVuSans-56" transform="scale(0.015625)"/>
       <path d="M 269 3500 
L 844 3500 
L 1563 769 
L 2278 3500 
L 2956 3500 
L 3675 769 
L 4391 3500 
L 4966 3500 
L 4050 0 
L 3372 0 
L 2619 2869 
L 1863 0 
L 1184 0 
L 269 3500 
z
" id="DejaVuSans-77" transform="scale(0.015625)"/>
      </defs>
      <use xlink:href="#DejaVuSans-54"/>
      <use x="44.083984" xlink:href="#DejaVuSans-6f"/>
      <use x="105.265625" xlink:href="#DejaVuSans-74"/>
      <use x="144.474609" xlink:href="#DejaVuSans-61"/>
      <use x="205.753906" xlink:href="#DejaVuSans-6c"/>
      <use x="233.537109" xlink:href="#DejaVuSans-20"/>
      <use x="265.324219" xlink:href="#DejaVuSans-47"/>
      <use x="342.814453" xlink:href="#DejaVuSans-69"/>
      <use x="370.597656" xlink:href="#DejaVuSans-74"/>
      <use x="409.806641" xlink:href="#DejaVuSans-48"/>
      <use x="485.001953" xlink:href="#DejaVuSans-75"/>
      <use x="548.380859" xlink:href="#DejaVuSans-62"/>
      <use x="611.857422" xlink:href="#DejaVuSans-20"/>
      <use x="643.644531" xlink:href="#DejaVuSans-56"/>
      <use x="709.802734" xlink:href="#DejaVuSans-69"/>
      <use x="737.585938" xlink:href="#DejaVuSans-65"/>
      <use x="799.109375" xlink:href="#DejaVuSans-77"/>
      <use x="880.896484" xlink:href="#DejaVuSans-73"/>
     </g>
    </g>
    <g id="line2d_35">
     <path d="M 99 183.296562 
L 119 183.296562 
" style="fill:none;stroke:#ff7f0e;stroke-linecap:square;stroke-width:1.5;"/>
    </g>
    <g id="line2d_36"/>
    <g id="text_29">
     <!-- Unique GitHub Views -->
     <g transform="translate(127 186.796562)scale(0.1 -0.1)">
      <use xlink:href="#DejaVuSans-55"/>
      <use x="73.193359" xlink:href="#DejaVuSans-6e"/>
      <use x="136.572266" xlink:href="#DejaVuSans-69"/>
      <use x="164.355469" xlink:href="#DejaVuSans-71"/>
      <use x="227.832031" xlink:href="#DejaVuSans-75"/>
      <use x="291.210938" xlink:href="#DejaVuSans-65"/>
      <use x="352.734375" xlink:href="#DejaVuSans-20"/>
      <use x="384.521484" xlink:href="#DejaVuSans-47"/>
      <use x="462.011719" xlink:href="#DejaVuSans-69"/>
      <use x="489.794922" xlink:href="#DejaVuSans-74"/>
      <use x="529.003906" xlink:href="#DejaVuSans-48"/>
      <use x="604.199219" xlink:href="#DejaVuSans-75"/>
      <use x="667.578125" xlink:href="#DejaVuSans-62"/>
      <use x="731.054688" xlink:href="#DejaVuSans-20"/>
      <use x="762.841797" xlink:href="#DejaVuSans-56"/>
      <use x="829" xlink:href="#DejaVuSans-69"/>
      <use x="856.783203" xlink:href="#DejaVuSans-65"/>
      <use x="918.306641" xlink:href="#DejaVuSans-77"/>
      <use x="1000.09375" xlink:href="#DejaVuSans-73"/>
     </g>
    </g>
   </g>
  </g>
 </g>
 <defs>
  <clipPath id="p16c4c7fb8d">
   <rect height="100.8" width="558" x="90" y="34.56"/>
  </clipPath>
  <clipPath id="p5249e45291">
   <rect height="100.8" width="558" x="90" y="155.52"/>
  </clipPath>
 </defs>
</svg>
