<?xml version="1.0" encoding="utf-8" standalone="no"?>
<!DOCTYPE svg PUBLIC "-//W3C//DTD SVG 1.1//EN"
  "http://www.w3.org/Graphics/SVG/1.1/DTD/svg11.dtd">
<svg height="288pt" version="1.1" viewBox="0 0 720 288" width="720pt" xmlns="http://www.w3.org/2000/svg" xmlns:xlink="http://www.w3.org/1999/xlink">
 <metadata>
  <rdf:RDF xmlns:cc="http://creativecommons.org/ns#" xmlns:dc="http://purl.org/dc/elements/1.1/" xmlns:rdf="http://www.w3.org/1999/02/22-rdf-syntax-ns#">
   <cc:Work>
    <dc:type rdf:resource="http://purl.org/dc/dcmitype/StillImage"/>
    <dc:date>2021-05-24T00:14:16.213259</dc:date>
    <dc:format>image/svg+xml</dc:format>
    <dc:creator>
     <cc:Agent>
      <dc:title>Matplotlib v3.4.2, https://matplotlib.org/</dc:title>
     </cc:Agent>
    </dc:creator>
   </cc:Work>
  </rdf:RDF>
 </metadata>
 <defs>
  <style type="text/css">*{stroke-linecap:butt;stroke-linejoin:round;}</style>
 </defs>
 <g id="figure_1">
  <g id="patch_1">
   <path d="M 0 288 
L 720 288 
L 720 0 
L 0 0 
z
" style="fill:#ffffff;"/>
  </g>
  <g id="axes_1">
   <g id="patch_2">
    <path d="M 90 135.36 
L 648 135.36 
L 648 34.56 
L 90 34.56 
z
" style="fill:#ffffff;"/>
   </g>
   <g id="matplotlib.axis_1">
    <g id="xtick_1">
     <g id="line2d_1">
      <defs>
       <path d="M 0 0 
L 0 3.5 
" id="m8809e86dce" style="stroke:#000000;stroke-width:0.8;"/>
      </defs>
      <g>
       <use style="stroke:#000000;stroke-width:0.8;" x="115.363636" xlink:href="#m8809e86dce" y="135.36"/>
      </g>
     </g>
     <g id="text_1">
      <!-- 2020-10-22 -->
      <g transform="translate(86.305824 149.958437)scale(0.1 -0.1)">
       <defs>
        <path d="M 1228 531 
L 3431 531 
L 3431 0 
L 469 0 
L 469 531 
Q 828 903 1448 1529 
Q 2069 2156 2228 2338 
Q 2531 2678 2651 2914 
Q 2772 3150 2772 3378 
Q 2772 3750 2511 3984 
Q 2250 4219 1831 4219 
Q 1534 4219 1204 4116 
Q 875 4013 500 3803 
L 500 4441 
Q 881 4594 1212 4672 
Q 1544 4750 1819 4750 
Q 2544 4750 2975 4387 
Q 3406 4025 3406 3419 
Q 3406 3131 3298 2873 
Q 3191 2616 2906 2266 
Q 2828 2175 2409 1742 
Q 1991 1309 1228 531 
z
" id="DejaVuSans-32" transform="scale(0.015625)"/>
        <path d="M 2034 4250 
Q 1547 4250 1301 3770 
Q 1056 3291 1056 2328 
Q 1056 1369 1301 889 
Q 1547 409 2034 409 
Q 2525 409 2770 889 
Q 3016 1369 3016 2328 
Q 3016 3291 2770 3770 
Q 2525 4250 2034 4250 
z
M 2034 4750 
Q 2819 4750 3233 4129 
Q 3647 3509 3647 2328 
Q 3647 1150 3233 529 
Q 2819 -91 2034 -91 
Q 1250 -91 836 529 
Q 422 1150 422 2328 
Q 422 3509 836 4129 
Q 1250 4750 2034 4750 
z
" id="DejaVuSans-30" transform="scale(0.015625)"/>
        <path d="M 313 2009 
L 1997 2009 
L 1997 1497 
L 313 1497 
L 313 2009 
z
" id="DejaVuSans-2d" transform="scale(0.015625)"/>
        <path d="M 794 531 
L 1825 531 
L 1825 4091 
L 703 3866 
L 703 4441 
L 1819 4666 
L 2450 4666 
L 2450 531 
L 3481 531 
L 3481 0 
L 794 0 
L 794 531 
z
" id="DejaVuSans-31" transform="scale(0.015625)"/>
       </defs>
       <use xlink:href="#DejaVuSans-32"/>
       <use x="63.623047" xlink:href="#DejaVuSans-30"/>
       <use x="127.246094" xlink:href="#DejaVuSans-32"/>
       <use x="190.869141" xlink:href="#DejaVuSans-30"/>
       <use x="254.492188" xlink:href="#DejaVuSans-2d"/>
       <use x="290.576172" xlink:href="#DejaVuSans-31"/>
       <use x="354.199219" xlink:href="#DejaVuSans-30"/>
       <use x="417.822266" xlink:href="#DejaVuSans-2d"/>
       <use x="453.90625" xlink:href="#DejaVuSans-32"/>
       <use x="517.529297" xlink:href="#DejaVuSans-32"/>
      </g>
     </g>
    </g>
    <g id="xtick_2">
     <g id="line2d_2">
      <g>
       <use style="stroke:#000000;stroke-width:0.8;" x="189.526316" xlink:href="#m8809e86dce" y="135.36"/>
      </g>
     </g>
     <g id="text_2">
      <!-- 2020-11-27 -->
      <g transform="translate(160.468503 149.958437)scale(0.1 -0.1)">
       <defs>
        <path d="M 525 4666 
L 3525 4666 
L 3525 4397 
L 1831 0 
L 1172 0 
L 2766 4134 
L 525 4134 
L 525 4666 
z
" id="DejaVuSans-37" transform="scale(0.015625)"/>
       </defs>
       <use xlink:href="#DejaVuSans-32"/>
       <use x="63.623047" xlink:href="#DejaVuSans-30"/>
       <use x="127.246094" xlink:href="#DejaVuSans-32"/>
       <use x="190.869141" xlink:href="#DejaVuSans-30"/>
       <use x="254.492188" xlink:href="#DejaVuSans-2d"/>
       <use x="290.576172" xlink:href="#DejaVuSans-31"/>
       <use x="354.199219" xlink:href="#DejaVuSans-31"/>
       <use x="417.822266" xlink:href="#DejaVuSans-2d"/>
       <use x="453.90625" xlink:href="#DejaVuSans-32"/>
       <use x="517.529297" xlink:href="#DejaVuSans-37"/>
      </g>
     </g>
    </g>
    <g id="xtick_3">
     <g id="line2d_3">
      <g>
       <use style="stroke:#000000;stroke-width:0.8;" x="263.688995" xlink:href="#m8809e86dce" y="135.36"/>
      </g>
     </g>
     <g id="text_3">
      <!-- 2021-01-05 -->
      <g transform="translate(234.631183 149.958437)scale(0.1 -0.1)">
       <defs>
        <path d="M 691 4666 
L 3169 4666 
L 3169 4134 
L 1269 4134 
L 1269 2991 
Q 1406 3038 1543 3061 
Q 1681 3084 1819 3084 
Q 2600 3084 3056 2656 
Q 3513 2228 3513 1497 
Q 3513 744 3044 326 
Q 2575 -91 1722 -91 
Q 1428 -91 1123 -41 
Q 819 9 494 109 
L 494 744 
Q 775 591 1075 516 
Q 1375 441 1709 441 
Q 2250 441 2565 725 
Q 2881 1009 2881 1497 
Q 2881 1984 2565 2268 
Q 2250 2553 1709 2553 
Q 1456 2553 1204 2497 
Q 953 2441 691 2322 
L 691 4666 
z
" id="DejaVuSans-35" transform="scale(0.015625)"/>
       </defs>
       <use xlink:href="#DejaVuSans-32"/>
       <use x="63.623047" xlink:href="#DejaVuSans-30"/>
       <use x="127.246094" xlink:href="#DejaVuSans-32"/>
       <use x="190.869141" xlink:href="#DejaVuSans-31"/>
       <use x="254.492188" xlink:href="#DejaVuSans-2d"/>
       <use x="290.576172" xlink:href="#DejaVuSans-30"/>
       <use x="354.199219" xlink:href="#DejaVuSans-31"/>
       <use x="417.822266" xlink:href="#DejaVuSans-2d"/>
       <use x="453.90625" xlink:href="#DejaVuSans-30"/>
       <use x="517.529297" xlink:href="#DejaVuSans-35"/>
      </g>
     </g>
    </g>
    <g id="xtick_4">
     <g id="line2d_4">
      <g>
       <use style="stroke:#000000;stroke-width:0.8;" x="337.851675" xlink:href="#m8809e86dce" y="135.36"/>
      </g>
     </g>
     <g id="text_4">
      <!-- 2021-02-18 -->
      <g transform="translate(308.793862 149.958437)scale(0.1 -0.1)">
       <defs>
        <path d="M 2034 2216 
Q 1584 2216 1326 1975 
Q 1069 1734 1069 1313 
Q 1069 891 1326 650 
Q 1584 409 2034 409 
Q 2484 409 2743 651 
Q 3003 894 3003 1313 
Q 3003 1734 2745 1975 
Q 2488 2216 2034 2216 
z
M 1403 2484 
Q 997 2584 770 2862 
Q 544 3141 544 3541 
Q 544 4100 942 4425 
Q 1341 4750 2034 4750 
Q 2731 4750 3128 4425 
Q 3525 4100 3525 3541 
Q 3525 3141 3298 2862 
Q 3072 2584 2669 2484 
Q 3125 2378 3379 2068 
Q 3634 1759 3634 1313 
Q 3634 634 3220 271 
Q 2806 -91 2034 -91 
Q 1263 -91 848 271 
Q 434 634 434 1313 
Q 434 1759 690 2068 
Q 947 2378 1403 2484 
z
M 1172 3481 
Q 1172 3119 1398 2916 
Q 1625 2713 2034 2713 
Q 2441 2713 2670 2916 
Q 2900 3119 2900 3481 
Q 2900 3844 2670 4047 
Q 2441 4250 2034 4250 
Q 1625 4250 1398 4047 
Q 1172 3844 1172 3481 
z
" id="DejaVuSans-38" transform="scale(0.015625)"/>
       </defs>
       <use xlink:href="#DejaVuSans-32"/>
       <use x="63.623047" xlink:href="#DejaVuSans-30"/>
       <use x="127.246094" xlink:href="#DejaVuSans-32"/>
       <use x="190.869141" xlink:href="#DejaVuSans-31"/>
       <use x="254.492188" xlink:href="#DejaVuSans-2d"/>
       <use x="290.576172" xlink:href="#DejaVuSans-30"/>
       <use x="354.199219" xlink:href="#DejaVuSans-32"/>
       <use x="417.822266" xlink:href="#DejaVuSans-2d"/>
       <use x="453.90625" xlink:href="#DejaVuSans-31"/>
       <use x="517.529297" xlink:href="#DejaVuSans-38"/>
      </g>
     </g>
    </g>
    <g id="xtick_5">
     <g id="line2d_5">
      <g>
       <use style="stroke:#000000;stroke-width:0.8;" x="412.014354" xlink:href="#m8809e86dce" y="135.36"/>
      </g>
     </g>
     <g id="text_5">
      <!-- 2021-03-17 -->
      <g transform="translate(382.956542 149.958437)scale(0.1 -0.1)">
       <defs>
        <path d="M 2597 2516 
Q 3050 2419 3304 2112 
Q 3559 1806 3559 1356 
Q 3559 666 3084 287 
Q 2609 -91 1734 -91 
Q 1441 -91 1130 -33 
Q 819 25 488 141 
L 488 750 
Q 750 597 1062 519 
Q 1375 441 1716 441 
Q 2309 441 2620 675 
Q 2931 909 2931 1356 
Q 2931 1769 2642 2001 
Q 2353 2234 1838 2234 
L 1294 2234 
L 1294 2753 
L 1863 2753 
Q 2328 2753 2575 2939 
Q 2822 3125 2822 3475 
Q 2822 3834 2567 4026 
Q 2313 4219 1838 4219 
Q 1578 4219 1281 4162 
Q 984 4106 628 3988 
L 628 4550 
Q 988 4650 1302 4700 
Q 1616 4750 1894 4750 
Q 2613 4750 3031 4423 
Q 3450 4097 3450 3541 
Q 3450 3153 3228 2886 
Q 3006 2619 2597 2516 
z
" id="DejaVuSans-33" transform="scale(0.015625)"/>
       </defs>
       <use xlink:href="#DejaVuSans-32"/>
       <use x="63.623047" xlink:href="#DejaVuSans-30"/>
       <use x="127.246094" xlink:href="#DejaVuSans-32"/>
       <use x="190.869141" xlink:href="#DejaVuSans-31"/>
       <use x="254.492188" xlink:href="#DejaVuSans-2d"/>
       <use x="290.576172" xlink:href="#DejaVuSans-30"/>
       <use x="354.199219" xlink:href="#DejaVuSans-33"/>
       <use x="417.822266" xlink:href="#DejaVuSans-2d"/>
       <use x="453.90625" xlink:href="#DejaVuSans-31"/>
       <use x="517.529297" xlink:href="#DejaVuSans-37"/>
      </g>
     </g>
    </g>
    <g id="xtick_6">
     <g id="line2d_6">
      <g>
       <use style="stroke:#000000;stroke-width:0.8;" x="486.177033" xlink:href="#m8809e86dce" y="135.36"/>
      </g>
     </g>
     <g id="text_6">
      <!-- 2021-04-09 -->
      <g transform="translate(457.119221 149.958437)scale(0.1 -0.1)">
       <defs>
        <path d="M 2419 4116 
L 825 1625 
L 2419 1625 
L 2419 4116 
z
M 2253 4666 
L 3047 4666 
L 3047 1625 
L 3713 1625 
L 3713 1100 
L 3047 1100 
L 3047 0 
L 2419 0 
L 2419 1100 
L 313 1100 
L 313 1709 
L 2253 4666 
z
" id="DejaVuSans-34" transform="scale(0.015625)"/>
        <path d="M 703 97 
L 703 672 
Q 941 559 1184 500 
Q 1428 441 1663 441 
Q 2288 441 2617 861 
Q 2947 1281 2994 2138 
Q 2813 1869 2534 1725 
Q 2256 1581 1919 1581 
Q 1219 1581 811 2004 
Q 403 2428 403 3163 
Q 403 3881 828 4315 
Q 1253 4750 1959 4750 
Q 2769 4750 3195 4129 
Q 3622 3509 3622 2328 
Q 3622 1225 3098 567 
Q 2575 -91 1691 -91 
Q 1453 -91 1209 -44 
Q 966 3 703 97 
z
M 1959 2075 
Q 2384 2075 2632 2365 
Q 2881 2656 2881 3163 
Q 2881 3666 2632 3958 
Q 2384 4250 1959 4250 
Q 1534 4250 1286 3958 
Q 1038 3666 1038 3163 
Q 1038 2656 1286 2365 
Q 1534 2075 1959 2075 
z
" id="DejaVuSans-39" transform="scale(0.015625)"/>
       </defs>
       <use xlink:href="#DejaVuSans-32"/>
       <use x="63.623047" xlink:href="#DejaVuSans-30"/>
       <use x="127.246094" xlink:href="#DejaVuSans-32"/>
       <use x="190.869141" xlink:href="#DejaVuSans-31"/>
       <use x="254.492188" xlink:href="#DejaVuSans-2d"/>
       <use x="290.576172" xlink:href="#DejaVuSans-30"/>
       <use x="354.199219" xlink:href="#DejaVuSans-34"/>
       <use x="417.822266" xlink:href="#DejaVuSans-2d"/>
       <use x="453.90625" xlink:href="#DejaVuSans-30"/>
       <use x="517.529297" xlink:href="#DejaVuSans-39"/>
      </g>
     </g>
    </g>
    <g id="xtick_7">
     <g id="line2d_7">
      <g>
       <use style="stroke:#000000;stroke-width:0.8;" x="560.339713" xlink:href="#m8809e86dce" y="135.36"/>
      </g>
     </g>
     <g id="text_7">
      <!-- 2021-05-03 -->
      <g transform="translate(531.2819 149.958437)scale(0.1 -0.1)">
       <use xlink:href="#DejaVuSans-32"/>
       <use x="63.623047" xlink:href="#DejaVuSans-30"/>
       <use x="127.246094" xlink:href="#DejaVuSans-32"/>
       <use x="190.869141" xlink:href="#DejaVuSans-31"/>
       <use x="254.492188" xlink:href="#DejaVuSans-2d"/>
       <use x="290.576172" xlink:href="#DejaVuSans-30"/>
       <use x="354.199219" xlink:href="#DejaVuSans-35"/>
       <use x="417.822266" xlink:href="#DejaVuSans-2d"/>
       <use x="453.90625" xlink:href="#DejaVuSans-30"/>
       <use x="517.529297" xlink:href="#DejaVuSans-33"/>
      </g>
     </g>
    </g>
    <g id="xtick_8">
     <g id="line2d_8">
      <g>
       <use style="stroke:#000000;stroke-width:0.8;" x="634.502392" xlink:href="#m8809e86dce" y="135.36"/>
      </g>
     </g>
    </g>
    <g id="text_8">
     <!-- _date -->
     <g transform="translate(355.225 163.636562)scale(0.1 -0.1)">
      <defs>
       <path d="M 3263 -1063 
L 3263 -1509 
L -63 -1509 
L -63 -1063 
L 3263 -1063 
z
" id="DejaVuSans-5f" transform="scale(0.015625)"/>
       <path d="M 2906 2969 
L 2906 4863 
L 3481 4863 
L 3481 0 
L 2906 0 
L 2906 525 
Q 2725 213 2448 61 
Q 2172 -91 1784 -91 
Q 1150 -91 751 415 
Q 353 922 353 1747 
Q 353 2572 751 3078 
Q 1150 3584 1784 3584 
Q 2172 3584 2448 3432 
Q 2725 3281 2906 2969 
z
M 947 1747 
Q 947 1113 1208 752 
Q 1469 391 1925 391 
Q 2381 391 2643 752 
Q 2906 1113 2906 1747 
Q 2906 2381 2643 2742 
Q 2381 3103 1925 3103 
Q 1469 3103 1208 2742 
Q 947 2381 947 1747 
z
" id="DejaVuSans-64" transform="scale(0.015625)"/>
       <path d="M 2194 1759 
Q 1497 1759 1228 1600 
Q 959 1441 959 1056 
Q 959 750 1161 570 
Q 1363 391 1709 391 
Q 2188 391 2477 730 
Q 2766 1069 2766 1631 
L 2766 1759 
L 2194 1759 
z
M 3341 1997 
L 3341 0 
L 2766 0 
L 2766 531 
Q 2569 213 2275 61 
Q 1981 -91 1556 -91 
Q 1019 -91 701 211 
Q 384 513 384 1019 
Q 384 1609 779 1909 
Q 1175 2209 1959 2209 
L 2766 2209 
L 2766 2266 
Q 2766 2663 2505 2880 
Q 2244 3097 1772 3097 
Q 1472 3097 1187 3025 
Q 903 2953 641 2809 
L 641 3341 
Q 956 3463 1253 3523 
Q 1550 3584 1831 3584 
Q 2591 3584 2966 3190 
Q 3341 2797 3341 1997 
z
" id="DejaVuSans-61" transform="scale(0.015625)"/>
       <path d="M 1172 4494 
L 1172 3500 
L 2356 3500 
L 2356 3053 
L 1172 3053 
L 1172 1153 
Q 1172 725 1289 603 
Q 1406 481 1766 481 
L 2356 481 
L 2356 0 
L 1766 0 
Q 1100 0 847 248 
Q 594 497 594 1153 
L 594 3053 
L 172 3053 
L 172 3500 
L 594 3500 
L 594 4494 
L 1172 4494 
z
" id="DejaVuSans-74" transform="scale(0.015625)"/>
       <path d="M 3597 1894 
L 3597 1613 
L 953 1613 
Q 991 1019 1311 708 
Q 1631 397 2203 397 
Q 2534 397 2845 478 
Q 3156 559 3463 722 
L 3463 178 
Q 3153 47 2828 -22 
Q 2503 -91 2169 -91 
Q 1331 -91 842 396 
Q 353 884 353 1716 
Q 353 2575 817 3079 
Q 1281 3584 2069 3584 
Q 2775 3584 3186 3129 
Q 3597 2675 3597 1894 
z
M 3022 2063 
Q 3016 2534 2758 2815 
Q 2500 3097 2075 3097 
Q 1594 3097 1305 2825 
Q 1016 2553 972 2059 
L 3022 2063 
z
" id="DejaVuSans-65" transform="scale(0.015625)"/>
      </defs>
      <use xlink:href="#DejaVuSans-5f"/>
      <use x="50" xlink:href="#DejaVuSans-64"/>
      <use x="113.476562" xlink:href="#DejaVuSans-61"/>
      <use x="174.755859" xlink:href="#DejaVuSans-74"/>
      <use x="213.964844" xlink:href="#DejaVuSans-65"/>
     </g>
    </g>
   </g>
   <g id="matplotlib.axis_2">
    <g id="ytick_1">
     <g id="line2d_9">
      <defs>
       <path d="M 0 0 
L -3.5 0 
" id="ma84124f8e0" style="stroke:#000000;stroke-width:0.8;"/>
      </defs>
      <g>
       <use style="stroke:#000000;stroke-width:0.8;" x="90" xlink:href="#ma84124f8e0" y="132.087273"/>
      </g>
     </g>
     <g id="text_9">
      <!-- 0 -->
      <g transform="translate(76.6375 135.886491)scale(0.1 -0.1)">
       <use xlink:href="#DejaVuSans-30"/>
      </g>
     </g>
    </g>
    <g id="ytick_2">
     <g id="line2d_10">
      <g>
       <use style="stroke:#000000;stroke-width:0.8;" x="90" xlink:href="#ma84124f8e0" y="105.905455"/>
      </g>
     </g>
     <g id="text_10">
      <!-- 20 -->
      <g transform="translate(70.275 109.704673)scale(0.1 -0.1)">
       <use xlink:href="#DejaVuSans-32"/>
       <use x="63.623047" xlink:href="#DejaVuSans-30"/>
      </g>
     </g>
    </g>
    <g id="ytick_3">
     <g id="line2d_11">
      <g>
       <use style="stroke:#000000;stroke-width:0.8;" x="90" xlink:href="#ma84124f8e0" y="79.723636"/>
      </g>
     </g>
     <g id="text_11">
      <!-- 40 -->
      <g transform="translate(70.275 83.522855)scale(0.1 -0.1)">
       <use xlink:href="#DejaVuSans-34"/>
       <use x="63.623047" xlink:href="#DejaVuSans-30"/>
      </g>
     </g>
    </g>
    <g id="ytick_4">
     <g id="line2d_12">
      <g>
       <use style="stroke:#000000;stroke-width:0.8;" x="90" xlink:href="#ma84124f8e0" y="53.541818"/>
      </g>
     </g>
     <g id="text_12">
      <!-- 60 -->
      <g transform="translate(70.275 57.341037)scale(0.1 -0.1)">
       <defs>
        <path d="M 2113 2584 
Q 1688 2584 1439 2293 
Q 1191 2003 1191 1497 
Q 1191 994 1439 701 
Q 1688 409 2113 409 
Q 2538 409 2786 701 
Q 3034 994 3034 1497 
Q 3034 2003 2786 2293 
Q 2538 2584 2113 2584 
z
M 3366 4563 
L 3366 3988 
Q 3128 4100 2886 4159 
Q 2644 4219 2406 4219 
Q 1781 4219 1451 3797 
Q 1122 3375 1075 2522 
Q 1259 2794 1537 2939 
Q 1816 3084 2150 3084 
Q 2853 3084 3261 2657 
Q 3669 2231 3669 1497 
Q 3669 778 3244 343 
Q 2819 -91 2113 -91 
Q 1303 -91 875 529 
Q 447 1150 447 2328 
Q 447 3434 972 4092 
Q 1497 4750 2381 4750 
Q 2619 4750 2861 4703 
Q 3103 4656 3366 4563 
z
" id="DejaVuSans-36" transform="scale(0.015625)"/>
       </defs>
       <use xlink:href="#DejaVuSans-36"/>
       <use x="63.623047" xlink:href="#DejaVuSans-30"/>
      </g>
     </g>
    </g>
   </g>
   <g id="line2d_13">
    <path clip-path="url(#p87a3b2ceb4)" d="M 115.363636 124.232727 
L 118.330144 125.541818 
L 121.296651 130.778182 
L 124.263158 130.778182 
L 127.229665 128.16 
L 130.196172 128.16 
L 133.162679 109.832727 
L 136.129187 109.832727 
L 139.095694 130.778182 
L 142.062201 130.778182 
L 145.028708 117.687273 
L 147.995215 121.614545 
L 150.961722 130.778182 
L 153.92823 124.232727 
L 156.894737 126.850909 
L 159.861244 126.850909 
L 162.827751 130.778182 
L 168.760766 125.541818 
L 171.727273 129.469091 
L 174.69378 130.778182 
L 177.660287 129.469091 
L 180.626794 129.469091 
L 183.593301 128.16 
L 186.559809 129.469091 
L 189.526316 129.469091 
L 192.492823 126.850909 
L 195.45933 129.469091 
L 198.425837 129.469091 
L 201.392344 113.76 
L 204.358852 124.232727 
L 207.325359 129.469091 
L 210.291866 99.36 
L 213.258373 130.778182 
L 236.990431 130.778182 
L 239.956938 129.469091 
L 242.923445 130.778182 
L 263.688995 130.778182 
L 266.655502 126.850909 
L 269.62201 128.16 
L 272.588517 130.778182 
L 275.555024 128.16 
L 278.521531 124.232727 
L 281.488038 129.469091 
L 284.454545 129.469091 
L 287.421053 126.850909 
L 290.38756 109.832727 
L 293.354067 129.469091 
L 296.320574 130.778182 
L 299.287081 129.469091 
L 302.253589 122.923636 
L 305.220096 129.469091 
L 308.186603 128.16 
L 311.15311 118.996364 
L 314.119617 126.850909 
L 317.086124 122.923636 
L 320.052632 129.469091 
L 323.019139 128.16 
L 325.985646 129.469091 
L 328.952153 128.16 
L 334.885167 128.16 
L 337.851675 125.541818 
L 340.818182 130.778182 
L 343.784689 130.778182 
L 346.751196 125.541818 
L 349.717703 125.541818 
L 352.684211 118.996364 
L 355.650718 128.16 
L 358.617225 124.232727 
L 361.583732 130.778182 
L 364.550239 120.305455 
L 367.516746 126.850909 
L 370.483254 128.16 
L 373.449761 126.850909 
L 376.416268 121.614545 
L 379.382775 129.469091 
L 382.349282 125.541818 
L 385.315789 111.141818 
L 388.282297 121.614545 
L 391.248804 109.832727 
L 394.215311 39.141818 
L 397.181818 124.232727 
L 400.148325 130.778182 
L 403.114833 126.850909 
L 406.08134 115.069091 
L 409.047847 117.687273 
L 412.014354 124.232727 
L 414.980861 107.214545 
L 417.947368 126.850909 
L 420.913876 126.850909 
L 423.880383 129.469091 
L 426.84689 113.76 
L 429.813397 117.687273 
L 432.779904 130.778182 
L 435.746411 128.16 
L 438.712919 130.778182 
L 441.679426 125.541818 
L 444.645933 108.523636 
L 447.61244 67.941818 
L 450.578947 66.632727 
L 453.545455 104.596364 
L 456.511962 111.141818 
L 459.478469 124.232727 
L 462.444976 130.778182 
L 465.411483 121.614545 
L 468.37799 126.850909 
L 471.344498 112.450909 
L 474.311005 113.76 
L 477.277512 126.850909 
L 480.244019 115.069091 
L 483.210526 99.36 
L 486.177033 113.76 
L 489.143541 124.232727 
L 492.110048 99.36 
L 495.076555 98.050909 
L 498.043062 98.050909 
L 501.009569 100.669091 
L 503.976077 49.614545 
L 506.942584 86.269091 
L 509.909091 81.032727 
L 512.875598 81.032727 
L 515.842105 82.341818 
L 518.808612 107.214545 
L 521.77512 87.578182 
L 524.741627 105.905455 
L 527.708134 128.16 
L 530.674641 129.469091 
L 533.641148 100.669091 
L 536.607656 96.741818 
L 542.54067 99.36 
L 545.507177 90.196364 
L 548.473684 78.414545 
L 551.440191 125.541818 
L 554.406699 129.469091 
L 557.373206 100.669091 
L 560.339713 103.287273 
L 563.30622 107.214545 
L 566.272727 66.632727 
L 569.239234 99.36 
L 572.205742 100.669091 
L 575.172249 129.469091 
L 578.138756 126.850909 
L 581.105263 96.741818 
L 584.07177 71.869091 
L 587.038278 70.56 
L 590.004785 101.978182 
L 592.971292 94.123636 
L 595.937799 56.16 
L 598.904306 101.978182 
L 601.870813 129.469091 
L 604.837321 96.741818 
L 607.803828 78.414545 
L 610.770335 71.869091 
L 613.736842 84.96 
L 616.703349 90.196364 
L 619.669856 128.16 
L 622.636364 98.050909 
L 622.636364 98.050909 
" style="fill:none;stroke:#1f77b4;stroke-linecap:square;stroke-width:1.5;"/>
   </g>
   <g id="line2d_14">
    <path clip-path="url(#p87a3b2ceb4)" d="M 115.363636 124.232727 
L 118.330144 125.541818 
L 121.296651 130.778182 
L 124.263158 130.778182 
L 127.229665 128.16 
L 130.196172 128.16 
L 133.162679 129.469091 
L 136.129187 125.541818 
L 139.095694 130.778182 
L 142.062201 130.778182 
L 145.028708 117.687273 
L 147.995215 128.16 
L 150.961722 130.778182 
L 153.92823 126.850909 
L 156.894737 126.850909 
L 159.861244 128.16 
L 162.827751 130.778182 
L 165.794258 128.16 
L 168.760766 126.850909 
L 171.727273 129.469091 
L 174.69378 130.778182 
L 177.660287 129.469091 
L 180.626794 130.778182 
L 183.593301 128.16 
L 189.526316 130.778182 
L 192.492823 129.469091 
L 195.45933 130.778182 
L 198.425837 129.469091 
L 201.392344 120.305455 
L 204.358852 124.232727 
L 207.325359 129.469091 
L 210.291866 118.996364 
L 213.258373 130.778182 
L 236.990431 130.778182 
L 239.956938 129.469091 
L 242.923445 130.778182 
L 263.688995 130.778182 
L 266.655502 128.16 
L 269.62201 130.778182 
L 272.588517 130.778182 
L 278.521531 128.16 
L 281.488038 130.778182 
L 287.421053 130.778182 
L 290.38756 117.687273 
L 293.354067 130.778182 
L 296.320574 130.778182 
L 299.287081 129.469091 
L 302.253589 126.850909 
L 305.220096 129.469091 
L 308.186603 128.16 
L 311.15311 122.923636 
L 314.119617 128.16 
L 317.086124 130.778182 
L 320.052632 129.469091 
L 323.019139 130.778182 
L 325.985646 129.469091 
L 328.952153 130.778182 
L 331.91866 128.16 
L 337.851675 128.16 
L 340.818182 130.778182 
L 343.784689 130.778182 
L 352.684211 122.923636 
L 355.650718 128.16 
L 358.617225 125.541818 
L 361.583732 130.778182 
L 364.550239 122.923636 
L 367.516746 126.850909 
L 370.483254 128.16 
L 373.449761 126.850909 
L 376.416268 121.614545 
L 379.382775 129.469091 
L 382.349282 125.541818 
L 385.315789 117.687273 
L 388.282297 122.923636 
L 391.248804 115.069091 
L 394.215311 84.96 
L 397.181818 124.232727 
L 400.148325 130.778182 
L 403.114833 128.16 
L 406.08134 116.378182 
L 412.014354 124.232727 
L 414.980861 112.450909 
L 417.947368 126.850909 
L 420.913876 126.850909 
L 423.880383 129.469091 
L 426.84689 117.687273 
L 429.813397 117.687273 
L 432.779904 130.778182 
L 435.746411 128.16 
L 438.712919 130.778182 
L 441.679426 126.850909 
L 444.645933 111.141818 
L 447.61244 100.669091 
L 450.578947 100.669091 
L 453.545455 113.76 
L 456.511962 117.687273 
L 459.478469 125.541818 
L 462.444976 130.778182 
L 465.411483 124.232727 
L 468.37799 129.469091 
L 471.344498 116.378182 
L 474.311005 116.378182 
L 477.277512 128.16 
L 480.244019 116.378182 
L 483.210526 108.523636 
L 486.177033 115.069091 
L 489.143541 125.541818 
L 492.110048 109.832727 
L 495.076555 109.832727 
L 498.043062 118.996364 
L 501.009569 129.469091 
L 503.976077 111.141818 
L 506.942584 128.16 
L 509.909091 126.850909 
L 512.875598 120.305455 
L 515.842105 120.305455 
L 518.808612 111.141818 
L 521.77512 118.996364 
L 524.741627 130.778182 
L 527.708134 129.469091 
L 530.674641 129.469091 
L 533.641148 130.778182 
L 536.607656 126.850909 
L 539.574163 128.16 
L 542.54067 128.16 
L 548.473684 109.832727 
L 551.440191 125.541818 
L 554.406699 129.469091 
L 557.373206 130.778182 
L 560.339713 126.850909 
L 563.30622 130.778182 
L 566.272727 103.287273 
L 569.239234 130.778182 
L 572.205742 128.16 
L 575.172249 129.469091 
L 581.105263 129.469091 
L 584.07177 105.905455 
L 587.038278 105.905455 
L 590.004785 126.850909 
L 592.971292 122.923636 
L 595.937799 99.36 
L 598.904306 108.523636 
L 601.870813 129.469091 
L 604.837321 130.778182 
L 607.803828 120.305455 
L 610.770335 128.16 
L 613.736842 126.850909 
L 616.703349 129.469091 
L 619.669856 129.469091 
L 622.636364 130.778182 
L 622.636364 130.778182 
" style="fill:none;stroke:#ff7f0e;stroke-linecap:square;stroke-width:1.5;"/>
   </g>
   <g id="patch_3">
    <path d="M 90 135.36 
L 90 34.56 
" style="fill:none;stroke:#000000;stroke-linecap:square;stroke-linejoin:miter;stroke-width:0.8;"/>
   </g>
   <g id="patch_4">
    <path d="M 648 135.36 
L 648 34.56 
" style="fill:none;stroke:#000000;stroke-linecap:square;stroke-linejoin:miter;stroke-width:0.8;"/>
   </g>
   <g id="patch_5">
    <path d="M 90 135.36 
L 648 135.36 
" style="fill:none;stroke:#000000;stroke-linecap:square;stroke-linejoin:miter;stroke-width:0.8;"/>
   </g>
   <g id="patch_6">
    <path d="M 90 34.56 
L 648 34.56 
" style="fill:none;stroke:#000000;stroke-linecap:square;stroke-linejoin:miter;stroke-width:0.8;"/>
   </g>
   <g id="legend_1">
    <g id="patch_7">
     <path d="M 97 71.91625 
L 238.8625 71.91625 
Q 240.8625 71.91625 240.8625 69.91625 
L 240.8625 41.56 
Q 240.8625 39.56 238.8625 39.56 
L 97 39.56 
Q 95 39.56 95 41.56 
L 95 69.91625 
Q 95 71.91625 97 71.91625 
z
" style="fill:#ffffff;opacity:0.8;stroke:#cccccc;stroke-linejoin:miter;"/>
    </g>
    <g id="line2d_15">
     <path d="M 99 47.658437 
L 119 47.658437 
" style="fill:none;stroke:#1f77b4;stroke-linecap:square;stroke-width:1.5;"/>
    </g>
    <g id="line2d_16"/>
    <g id="text_13">
     <!-- Total GitHub Clones -->
     <g transform="translate(127 51.158437)scale(0.1 -0.1)">
      <defs>
       <path d="M -19 4666 
L 3928 4666 
L 3928 4134 
L 2272 4134 
L 2272 0 
L 1638 0 
L 1638 4134 
L -19 4134 
L -19 4666 
z
" id="DejaVuSans-54" transform="scale(0.015625)"/>
       <path d="M 1959 3097 
Q 1497 3097 1228 2736 
Q 959 2375 959 1747 
Q 959 1119 1226 758 
Q 1494 397 1959 397 
Q 2419 397 2687 759 
Q 2956 1122 2956 1747 
Q 2956 2369 2687 2733 
Q 2419 3097 1959 3097 
z
M 1959 3584 
Q 2709 3584 3137 3096 
Q 3566 2609 3566 1747 
Q 3566 888 3137 398 
Q 2709 -91 1959 -91 
Q 1206 -91 779 398 
Q 353 888 353 1747 
Q 353 2609 779 3096 
Q 1206 3584 1959 3584 
z
" id="DejaVuSans-6f" transform="scale(0.015625)"/>
       <path d="M 603 4863 
L 1178 4863 
L 1178 0 
L 603 0 
L 603 4863 
z
" id="DejaVuSans-6c" transform="scale(0.015625)"/>
       <path id="DejaVuSans-20" transform="scale(0.015625)"/>
       <path d="M 3809 666 
L 3809 1919 
L 2778 1919 
L 2778 2438 
L 4434 2438 
L 4434 434 
Q 4069 175 3628 42 
Q 3188 -91 2688 -91 
Q 1594 -91 976 548 
Q 359 1188 359 2328 
Q 359 3472 976 4111 
Q 1594 4750 2688 4750 
Q 3144 4750 3555 4637 
Q 3966 4525 4313 4306 
L 4313 3634 
Q 3963 3931 3569 4081 
Q 3175 4231 2741 4231 
Q 1884 4231 1454 3753 
Q 1025 3275 1025 2328 
Q 1025 1384 1454 906 
Q 1884 428 2741 428 
Q 3075 428 3337 486 
Q 3600 544 3809 666 
z
" id="DejaVuSans-47" transform="scale(0.015625)"/>
       <path d="M 603 3500 
L 1178 3500 
L 1178 0 
L 603 0 
L 603 3500 
z
M 603 4863 
L 1178 4863 
L 1178 4134 
L 603 4134 
L 603 4863 
z
" id="DejaVuSans-69" transform="scale(0.015625)"/>
       <path d="M 628 4666 
L 1259 4666 
L 1259 2753 
L 3553 2753 
L 3553 4666 
L 4184 4666 
L 4184 0 
L 3553 0 
L 3553 2222 
L 1259 2222 
L 1259 0 
L 628 0 
L 628 4666 
z
" id="DejaVuSans-48" transform="scale(0.015625)"/>
       <path d="M 544 1381 
L 544 3500 
L 1119 3500 
L 1119 1403 
Q 1119 906 1312 657 
Q 1506 409 1894 409 
Q 2359 409 2629 706 
Q 2900 1003 2900 1516 
L 2900 3500 
L 3475 3500 
L 3475 0 
L 2900 0 
L 2900 538 
Q 2691 219 2414 64 
Q 2138 -91 1772 -91 
Q 1169 -91 856 284 
Q 544 659 544 1381 
z
M 1991 3584 
L 1991 3584 
z
" id="DejaVuSans-75" transform="scale(0.015625)"/>
       <path d="M 3116 1747 
Q 3116 2381 2855 2742 
Q 2594 3103 2138 3103 
Q 1681 3103 1420 2742 
Q 1159 2381 1159 1747 
Q 1159 1113 1420 752 
Q 1681 391 2138 391 
Q 2594 391 2855 752 
Q 3116 1113 3116 1747 
z
M 1159 2969 
Q 1341 3281 1617 3432 
Q 1894 3584 2278 3584 
Q 2916 3584 3314 3078 
Q 3713 2572 3713 1747 
Q 3713 922 3314 415 
Q 2916 -91 2278 -91 
Q 1894 -91 1617 61 
Q 1341 213 1159 525 
L 1159 0 
L 581 0 
L 581 4863 
L 1159 4863 
L 1159 2969 
z
" id="DejaVuSans-62" transform="scale(0.015625)"/>
       <path d="M 4122 4306 
L 4122 3641 
Q 3803 3938 3442 4084 
Q 3081 4231 2675 4231 
Q 1875 4231 1450 3742 
Q 1025 3253 1025 2328 
Q 1025 1406 1450 917 
Q 1875 428 2675 428 
Q 3081 428 3442 575 
Q 3803 722 4122 1019 
L 4122 359 
Q 3791 134 3420 21 
Q 3050 -91 2638 -91 
Q 1578 -91 968 557 
Q 359 1206 359 2328 
Q 359 3453 968 4101 
Q 1578 4750 2638 4750 
Q 3056 4750 3426 4639 
Q 3797 4528 4122 4306 
z
" id="DejaVuSans-43" transform="scale(0.015625)"/>
       <path d="M 3513 2113 
L 3513 0 
L 2938 0 
L 2938 2094 
Q 2938 2591 2744 2837 
Q 2550 3084 2163 3084 
Q 1697 3084 1428 2787 
Q 1159 2491 1159 1978 
L 1159 0 
L 581 0 
L 581 3500 
L 1159 3500 
L 1159 2956 
Q 1366 3272 1645 3428 
Q 1925 3584 2291 3584 
Q 2894 3584 3203 3211 
Q 3513 2838 3513 2113 
z
" id="DejaVuSans-6e" transform="scale(0.015625)"/>
       <path d="M 2834 3397 
L 2834 2853 
Q 2591 2978 2328 3040 
Q 2066 3103 1784 3103 
Q 1356 3103 1142 2972 
Q 928 2841 928 2578 
Q 928 2378 1081 2264 
Q 1234 2150 1697 2047 
L 1894 2003 
Q 2506 1872 2764 1633 
Q 3022 1394 3022 966 
Q 3022 478 2636 193 
Q 2250 -91 1575 -91 
Q 1294 -91 989 -36 
Q 684 19 347 128 
L 347 722 
Q 666 556 975 473 
Q 1284 391 1588 391 
Q 1994 391 2212 530 
Q 2431 669 2431 922 
Q 2431 1156 2273 1281 
Q 2116 1406 1581 1522 
L 1381 1569 
Q 847 1681 609 1914 
Q 372 2147 372 2553 
Q 372 3047 722 3315 
Q 1072 3584 1716 3584 
Q 2034 3584 2315 3537 
Q 2597 3491 2834 3397 
z
" id="DejaVuSans-73" transform="scale(0.015625)"/>
      </defs>
      <use xlink:href="#DejaVuSans-54"/>
      <use x="44.083984" xlink:href="#DejaVuSans-6f"/>
      <use x="105.265625" xlink:href="#DejaVuSans-74"/>
      <use x="144.474609" xlink:href="#DejaVuSans-61"/>
      <use x="205.753906" xlink:href="#DejaVuSans-6c"/>
      <use x="233.537109" xlink:href="#DejaVuSans-20"/>
      <use x="265.324219" xlink:href="#DejaVuSans-47"/>
      <use x="342.814453" xlink:href="#DejaVuSans-69"/>
      <use x="370.597656" xlink:href="#DejaVuSans-74"/>
      <use x="409.806641" xlink:href="#DejaVuSans-48"/>
      <use x="485.001953" xlink:href="#DejaVuSans-75"/>
      <use x="548.380859" xlink:href="#DejaVuSans-62"/>
      <use x="611.857422" xlink:href="#DejaVuSans-20"/>
      <use x="643.644531" xlink:href="#DejaVuSans-43"/>
      <use x="713.46875" xlink:href="#DejaVuSans-6c"/>
      <use x="741.251953" xlink:href="#DejaVuSans-6f"/>
      <use x="802.433594" xlink:href="#DejaVuSans-6e"/>
      <use x="865.8125" xlink:href="#DejaVuSans-65"/>
      <use x="927.335938" xlink:href="#DejaVuSans-73"/>
     </g>
    </g>
    <g id="line2d_17">
     <path d="M 99 62.336562 
L 119 62.336562 
" style="fill:none;stroke:#ff7f0e;stroke-linecap:square;stroke-width:1.5;"/>
    </g>
    <g id="line2d_18"/>
    <g id="text_14">
     <!-- Unique GitHub Clones -->
     <g transform="translate(127 65.836562)scale(0.1 -0.1)">
      <defs>
       <path d="M 556 4666 
L 1191 4666 
L 1191 1831 
Q 1191 1081 1462 751 
Q 1734 422 2344 422 
Q 2950 422 3222 751 
Q 3494 1081 3494 1831 
L 3494 4666 
L 4128 4666 
L 4128 1753 
Q 4128 841 3676 375 
Q 3225 -91 2344 -91 
Q 1459 -91 1007 375 
Q 556 841 556 1753 
L 556 4666 
z
" id="DejaVuSans-55" transform="scale(0.015625)"/>
       <path d="M 947 1747 
Q 947 1113 1208 752 
Q 1469 391 1925 391 
Q 2381 391 2643 752 
Q 2906 1113 2906 1747 
Q 2906 2381 2643 2742 
Q 2381 3103 1925 3103 
Q 1469 3103 1208 2742 
Q 947 2381 947 1747 
z
M 2906 525 
Q 2725 213 2448 61 
Q 2172 -91 1784 -91 
Q 1150 -91 751 415 
Q 353 922 353 1747 
Q 353 2572 751 3078 
Q 1150 3584 1784 3584 
Q 2172 3584 2448 3432 
Q 2725 3281 2906 2969 
L 2906 3500 
L 3481 3500 
L 3481 -1331 
L 2906 -1331 
L 2906 525 
z
" id="DejaVuSans-71" transform="scale(0.015625)"/>
      </defs>
      <use xlink:href="#DejaVuSans-55"/>
      <use x="73.193359" xlink:href="#DejaVuSans-6e"/>
      <use x="136.572266" xlink:href="#DejaVuSans-69"/>
      <use x="164.355469" xlink:href="#DejaVuSans-71"/>
      <use x="227.832031" xlink:href="#DejaVuSans-75"/>
      <use x="291.210938" xlink:href="#DejaVuSans-65"/>
      <use x="352.734375" xlink:href="#DejaVuSans-20"/>
      <use x="384.521484" xlink:href="#DejaVuSans-47"/>
      <use x="462.011719" xlink:href="#DejaVuSans-69"/>
      <use x="489.794922" xlink:href="#DejaVuSans-74"/>
      <use x="529.003906" xlink:href="#DejaVuSans-48"/>
      <use x="604.199219" xlink:href="#DejaVuSans-75"/>
      <use x="667.578125" xlink:href="#DejaVuSans-62"/>
      <use x="731.054688" xlink:href="#DejaVuSans-20"/>
      <use x="762.841797" xlink:href="#DejaVuSans-43"/>
      <use x="832.666016" xlink:href="#DejaVuSans-6c"/>
      <use x="860.449219" xlink:href="#DejaVuSans-6f"/>
      <use x="921.630859" xlink:href="#DejaVuSans-6e"/>
      <use x="985.009766" xlink:href="#DejaVuSans-65"/>
      <use x="1046.533203" xlink:href="#DejaVuSans-73"/>
     </g>
    </g>
   </g>
  </g>
  <g id="axes_2">
   <g id="patch_8">
    <path d="M 90 256.32 
L 648 256.32 
L 648 155.52 
L 90 155.52 
z
" style="fill:#ffffff;"/>
   </g>
   <g id="matplotlib.axis_3">
    <g id="xtick_9">
     <g id="line2d_19">
      <g>
       <use style="stroke:#000000;stroke-width:0.8;" x="115.363636" xlink:href="#m8809e86dce" y="256.32"/>
      </g>
     </g>
     <g id="text_15">
      <!-- 2020-10-21 -->
      <g transform="translate(86.305824 270.918437)scale(0.1 -0.1)">
       <use xlink:href="#DejaVuSans-32"/>
       <use x="63.623047" xlink:href="#DejaVuSans-30"/>
       <use x="127.246094" xlink:href="#DejaVuSans-32"/>
       <use x="190.869141" xlink:href="#DejaVuSans-30"/>
       <use x="254.492188" xlink:href="#DejaVuSans-2d"/>
       <use x="290.576172" xlink:href="#DejaVuSans-31"/>
       <use x="354.199219" xlink:href="#DejaVuSans-30"/>
       <use x="417.822266" xlink:href="#DejaVuSans-2d"/>
       <use x="453.90625" xlink:href="#DejaVuSans-32"/>
       <use x="517.529297" xlink:href="#DejaVuSans-31"/>
      </g>
     </g>
    </g>
    <g id="xtick_10">
     <g id="line2d_20">
      <g>
       <use style="stroke:#000000;stroke-width:0.8;" x="233.334038" xlink:href="#m8809e86dce" y="256.32"/>
      </g>
     </g>
     <g id="text_16">
      <!-- 2020-12-11 -->
      <g transform="translate(204.276226 270.918437)scale(0.1 -0.1)">
       <use xlink:href="#DejaVuSans-32"/>
       <use x="63.623047" xlink:href="#DejaVuSans-30"/>
       <use x="127.246094" xlink:href="#DejaVuSans-32"/>
       <use x="190.869141" xlink:href="#DejaVuSans-30"/>
       <use x="254.492188" xlink:href="#DejaVuSans-2d"/>
       <use x="290.576172" xlink:href="#DejaVuSans-31"/>
       <use x="354.199219" xlink:href="#DejaVuSans-32"/>
       <use x="417.822266" xlink:href="#DejaVuSans-2d"/>
       <use x="453.90625" xlink:href="#DejaVuSans-31"/>
       <use x="517.529297" xlink:href="#DejaVuSans-31"/>
      </g>
     </g>
    </g>
    <g id="xtick_11">
     <g id="line2d_21">
      <g>
       <use style="stroke:#000000;stroke-width:0.8;" x="351.30444" xlink:href="#m8809e86dce" y="256.32"/>
      </g>
     </g>
     <g id="text_17">
      <!-- 2021-01-31 -->
      <g transform="translate(322.246627 270.918437)scale(0.1 -0.1)">
       <use xlink:href="#DejaVuSans-32"/>
       <use x="63.623047" xlink:href="#DejaVuSans-30"/>
       <use x="127.246094" xlink:href="#DejaVuSans-32"/>
       <use x="190.869141" xlink:href="#DejaVuSans-31"/>
       <use x="254.492188" xlink:href="#DejaVuSans-2d"/>
       <use x="290.576172" xlink:href="#DejaVuSans-30"/>
       <use x="354.199219" xlink:href="#DejaVuSans-31"/>
       <use x="417.822266" xlink:href="#DejaVuSans-2d"/>
       <use x="453.90625" xlink:href="#DejaVuSans-33"/>
       <use x="517.529297" xlink:href="#DejaVuSans-31"/>
      </g>
     </g>
    </g>
    <g id="xtick_12">
     <g id="line2d_22">
      <g>
       <use style="stroke:#000000;stroke-width:0.8;" x="469.274841" xlink:href="#m8809e86dce" y="256.32"/>
      </g>
     </g>
     <g id="text_18">
      <!-- 2021-03-22 -->
      <g transform="translate(440.217029 270.918437)scale(0.1 -0.1)">
       <use xlink:href="#DejaVuSans-32"/>
       <use x="63.623047" xlink:href="#DejaVuSans-30"/>
       <use x="127.246094" xlink:href="#DejaVuSans-32"/>
       <use x="190.869141" xlink:href="#DejaVuSans-31"/>
       <use x="254.492188" xlink:href="#DejaVuSans-2d"/>
       <use x="290.576172" xlink:href="#DejaVuSans-30"/>
       <use x="354.199219" xlink:href="#DejaVuSans-33"/>
       <use x="417.822266" xlink:href="#DejaVuSans-2d"/>
       <use x="453.90625" xlink:href="#DejaVuSans-32"/>
       <use x="517.529297" xlink:href="#DejaVuSans-32"/>
      </g>
     </g>
    </g>
    <g id="xtick_13">
     <g id="line2d_23">
      <g>
       <use style="stroke:#000000;stroke-width:0.8;" x="587.245243" xlink:href="#m8809e86dce" y="256.32"/>
      </g>
     </g>
     <g id="text_19">
      <!-- 2021-05-08 -->
      <g transform="translate(558.187431 270.918437)scale(0.1 -0.1)">
       <use xlink:href="#DejaVuSans-32"/>
       <use x="63.623047" xlink:href="#DejaVuSans-30"/>
       <use x="127.246094" xlink:href="#DejaVuSans-32"/>
       <use x="190.869141" xlink:href="#DejaVuSans-31"/>
       <use x="254.492188" xlink:href="#DejaVuSans-2d"/>
       <use x="290.576172" xlink:href="#DejaVuSans-30"/>
       <use x="354.199219" xlink:href="#DejaVuSans-35"/>
       <use x="417.822266" xlink:href="#DejaVuSans-2d"/>
       <use x="453.90625" xlink:href="#DejaVuSans-30"/>
       <use x="517.529297" xlink:href="#DejaVuSans-38"/>
      </g>
     </g>
    </g>
    <g id="text_20">
     <!-- _date -->
     <g transform="translate(355.225 284.596563)scale(0.1 -0.1)">
      <use xlink:href="#DejaVuSans-5f"/>
      <use x="50" xlink:href="#DejaVuSans-64"/>
      <use x="113.476562" xlink:href="#DejaVuSans-61"/>
      <use x="174.755859" xlink:href="#DejaVuSans-74"/>
      <use x="213.964844" xlink:href="#DejaVuSans-65"/>
     </g>
    </g>
   </g>
   <g id="matplotlib.axis_4">
    <g id="ytick_5">
     <g id="line2d_24">
      <g>
       <use style="stroke:#000000;stroke-width:0.8;" x="90" xlink:href="#ma84124f8e0" y="252.029091"/>
      </g>
     </g>
     <g id="text_21">
      <!-- 0 -->
      <g transform="translate(76.6375 255.82831)scale(0.1 -0.1)">
       <use xlink:href="#DejaVuSans-30"/>
      </g>
     </g>
    </g>
    <g id="ytick_6">
     <g id="line2d_25">
      <g>
       <use style="stroke:#000000;stroke-width:0.8;" x="90" xlink:href="#ma84124f8e0" y="222.938182"/>
      </g>
     </g>
     <g id="text_22">
      <!-- 100 -->
      <g transform="translate(63.9125 226.737401)scale(0.1 -0.1)">
       <use xlink:href="#DejaVuSans-31"/>
       <use x="63.623047" xlink:href="#DejaVuSans-30"/>
       <use x="127.246094" xlink:href="#DejaVuSans-30"/>
      </g>
     </g>
    </g>
    <g id="ytick_7">
     <g id="line2d_26">
      <g>
       <use style="stroke:#000000;stroke-width:0.8;" x="90" xlink:href="#ma84124f8e0" y="193.847273"/>
      </g>
     </g>
     <g id="text_23">
      <!-- 200 -->
      <g transform="translate(63.9125 197.646491)scale(0.1 -0.1)">
       <use xlink:href="#DejaVuSans-32"/>
       <use x="63.623047" xlink:href="#DejaVuSans-30"/>
       <use x="127.246094" xlink:href="#DejaVuSans-30"/>
      </g>
     </g>
    </g>
    <g id="ytick_8">
     <g id="line2d_27">
      <g>
       <use style="stroke:#000000;stroke-width:0.8;" x="90" xlink:href="#ma84124f8e0" y="164.756364"/>
      </g>
     </g>
     <g id="text_24">
      <!-- 300 -->
      <g transform="translate(63.9125 168.555582)scale(0.1 -0.1)">
       <use xlink:href="#DejaVuSans-33"/>
       <use x="63.623047" xlink:href="#DejaVuSans-30"/>
       <use x="127.246094" xlink:href="#DejaVuSans-30"/>
      </g>
     </g>
    </g>
   </g>
   <g id="line2d_28">
    <path clip-path="url(#p45518825d3)" d="M 115.363636 251.738182 
L 117.723044 230.210909 
L 120.082452 227.592727 
L 122.44186 244.174545 
L 124.801268 251.447273 
L 127.160677 238.356364 
L 129.520085 238.065455 
L 131.879493 233.992727 
L 134.238901 238.065455 
L 136.598309 238.938182 
L 138.957717 250.574545 
L 141.317125 248.247273 
L 143.676533 247.374545 
L 146.035941 238.938182 
L 148.395349 210.429091 
L 150.754757 225.265455 
L 153.114165 243.592727 
L 155.473573 247.083636 
L 157.832981 251.156364 
L 160.192389 238.065455 
L 162.551797 223.52 
L 164.911205 245.629091 
L 167.270613 243.010909 
L 169.630021 236.32 
L 171.989429 236.32 
L 174.348837 249.701818 
L 176.708245 236.610909 
L 179.067653 232.829091 
L 181.427061 243.301818 
L 183.786469 243.301818 
L 186.145877 238.356364 
L 188.505285 246.792727 
L 190.864693 249.12 
L 193.224101 225.556364 
L 195.58351 248.829091 
L 197.942918 247.956364 
L 200.302326 249.701818 
L 202.661734 247.665455 
L 205.021142 251.447273 
L 207.38055 251.447273 
L 209.739958 227.301818 
L 212.099366 214.210909 
L 214.458774 243.592727 
L 216.818182 245.047273 
L 219.17759 225.847273 
L 221.536998 250.865455 
L 223.896406 244.756364 
L 226.255814 241.265455 
L 228.615222 245.92 
L 230.97463 235.738182 
L 233.334038 246.792727 
L 235.693446 250.865455 
L 238.052854 251.738182 
L 240.412262 243.592727 
L 242.77167 241.847273 
L 245.131078 242.138182 
L 247.490486 240.683636 
L 249.849894 248.829091 
L 252.209302 250.865455 
L 254.56871 250.574545 
L 256.928118 247.083636 
L 259.287526 247.665455 
L 261.646934 242.429091 
L 264.006342 249.992727 
L 266.365751 251.156364 
L 268.725159 251.447273 
L 271.084567 248.247273 
L 273.443975 249.410909 
L 275.803383 250.283636 
L 278.162791 251.738182 
L 280.522199 247.083636 
L 282.881607 247.374545 
L 285.241015 250.865455 
L 287.600423 246.210909 
L 289.959831 242.429091 
L 292.319239 239.810909 
L 294.678647 247.665455 
L 297.038055 248.829091 
L 299.397463 231.956364 
L 301.756871 250.283636 
L 304.116279 233.701818 
L 306.475687 235.447273 
L 308.835095 239.810909 
L 311.194503 233.12 
L 313.553911 246.792727 
L 315.913319 234.574545 
L 318.272727 251.156364 
L 320.632135 233.410909 
L 322.991543 234.865455 
L 325.350951 226.138182 
L 327.710359 232.247273 
L 330.069767 239.810909 
L 332.429175 242.72 
L 334.788584 248.247273 
L 337.147992 228.465455 
L 339.5074 223.810909 
L 341.866808 236.029091 
L 344.226216 234.574545 
L 346.585624 231.956364 
L 348.945032 247.374545 
L 351.30444 248.538182 
L 353.663848 229.629091 
L 356.023256 246.792727 
L 360.742072 232.829091 
L 365.460888 250.865455 
L 367.820296 247.665455 
L 370.179704 235.156364 
L 372.539112 234.574545 
L 374.89852 224.683636 
L 377.257928 241.847273 
L 379.617336 250.283636 
L 381.976744 250.574545 
L 384.336152 249.12 
L 386.69556 242.429091 
L 389.054968 242.72 
L 391.414376 246.792727 
L 393.773784 230.501818 
L 396.133192 248.247273 
L 398.4926 241.847273 
L 400.852008 238.938182 
L 403.211416 240.683636 
L 405.570825 224.974545 
L 407.930233 235.447273 
L 410.289641 234.574545 
L 412.649049 239.810909 
L 415.008457 238.065455 
L 417.367865 239.229091 
L 419.727273 181.92 
L 422.086681 245.629091 
L 424.446089 230.501818 
L 426.805497 234.283636 
L 429.164905 226.429091 
L 431.524313 241.556364 
L 433.883721 198.792727 
L 436.243129 197.047273 
L 438.602537 203.156364 
L 440.961945 228.756364 
L 443.321353 172.029091 
L 445.680761 222.938182 
L 448.040169 245.92 
L 450.399577 245.047273 
L 452.758985 237.192727 
L 455.118393 230.792727 
L 457.477801 227.301818 
L 459.837209 234.283636 
L 462.196617 223.229091 
L 464.556025 243.592727 
L 466.915433 245.629091 
L 469.274841 204.32 
L 471.634249 204.610909 
L 473.993658 232.247273 
L 476.353066 233.992727 
L 478.712474 246.210909 
L 481.071882 248.538182 
L 483.43129 247.956364 
L 485.790698 232.538182 
L 488.150106 182.501818 
L 490.509514 221.192727 
L 492.868922 229.338182 
L 495.22833 233.992727 
L 497.587738 213.338182 
L 499.947146 244.174545 
L 502.306554 248.247273 
L 504.665962 244.756364 
L 507.02537 221.192727 
L 509.384778 238.356364 
L 511.744186 222.647273 
L 514.103594 199.083636 
L 516.463002 233.410909 
L 518.82241 240.974545 
L 521.181818 245.92 
L 523.541226 175.229091 
L 525.900634 174.356364 
L 528.260042 227.010909 
L 530.61945 243.301818 
L 532.978858 234.865455 
L 535.338266 236.32 
L 537.697674 248.829091 
L 540.057082 246.792727 
L 542.41649 185.992727 
L 544.775899 179.010909 
L 547.135307 197.047273 
L 549.494715 242.72 
L 551.854123 249.12 
L 554.213531 236.32 
L 556.572939 247.374545 
L 558.932347 236.029091 
L 561.291755 223.810909 
L 563.651163 160.101818 
L 566.010571 221.483636 
L 568.369979 220.610909 
L 570.729387 225.556364 
L 573.088795 245.338182 
L 575.448203 246.210909 
L 577.807611 219.447273 
L 580.167019 235.738182 
L 582.526427 235.447273 
L 584.885835 225.847273 
L 587.245243 243.010909 
L 589.604651 249.12 
L 591.964059 196.756364 
L 594.323467 236.901818 
L 596.682875 211.883636 
L 599.042283 205.483636 
L 601.401691 212.465455 
L 603.761099 249.701818 
L 606.120507 249.701818 
L 608.479915 221.774545 
L 610.839323 232.538182 
L 613.198732 231.956364 
L 615.55814 238.647273 
L 617.917548 242.429091 
L 620.276956 248.247273 
L 622.636364 245.92 
L 622.636364 245.92 
" style="fill:none;stroke:#1f77b4;stroke-linecap:square;stroke-width:1.5;"/>
   </g>
   <g id="line2d_29">
    <path clip-path="url(#p45518825d3)" d="M 115.363636 251.738182 
L 117.723044 249.410909 
L 120.082452 248.247273 
L 122.44186 249.410909 
L 124.801268 251.738182 
L 127.160677 249.992727 
L 129.520085 249.12 
L 131.879493 249.12 
L 134.238901 248.829091 
L 136.598309 249.410909 
L 138.957717 251.447273 
L 148.395349 249.12 
L 150.754757 248.829091 
L 153.114165 249.992727 
L 157.832981 251.738182 
L 160.192389 248.829091 
L 162.551797 249.410909 
L 164.911205 250.574545 
L 167.270613 250.865455 
L 169.630021 250.574545 
L 171.989429 251.447273 
L 174.348837 251.156364 
L 176.708245 249.992727 
L 179.067653 251.156364 
L 181.427061 248.829091 
L 183.786469 249.701818 
L 186.145877 250.283636 
L 188.505285 251.156364 
L 190.864693 251.156364 
L 193.224101 247.374545 
L 195.58351 251.447273 
L 197.942918 251.447273 
L 200.302326 251.156364 
L 205.021142 251.738182 
L 207.38055 251.447273 
L 209.739958 249.410909 
L 212.099366 246.792727 
L 214.458774 248.538182 
L 216.818182 249.992727 
L 219.17759 249.992727 
L 221.536998 251.447273 
L 223.896406 250.283636 
L 226.255814 249.992727 
L 228.615222 250.865455 
L 230.97463 247.665455 
L 233.334038 249.410909 
L 235.693446 251.447273 
L 238.052854 251.738182 
L 240.412262 249.12 
L 245.131078 249.12 
L 247.490486 249.992727 
L 249.849894 250.283636 
L 252.209302 251.156364 
L 254.56871 251.447273 
L 256.928118 250.865455 
L 259.287526 250.574545 
L 261.646934 251.156364 
L 266.365751 251.156364 
L 268.725159 251.447273 
L 271.084567 250.865455 
L 275.803383 250.865455 
L 278.162791 251.738182 
L 280.522199 251.156364 
L 282.881607 251.156364 
L 285.241015 250.865455 
L 287.600423 249.701818 
L 289.959831 247.956364 
L 292.319239 249.992727 
L 294.678647 251.156364 
L 297.038055 250.865455 
L 299.397463 250.865455 
L 301.756871 251.156364 
L 304.116279 249.410909 
L 306.475687 248.538182 
L 308.835095 249.701818 
L 311.194503 246.792727 
L 313.553911 249.701818 
L 315.913319 250.283636 
L 318.272727 251.156364 
L 320.632135 250.574545 
L 322.991543 250.574545 
L 325.350951 248.247273 
L 327.710359 249.410909 
L 330.069767 249.12 
L 332.429175 249.12 
L 334.788584 250.283636 
L 337.147992 245.92 
L 339.5074 247.665455 
L 341.866808 249.12 
L 344.226216 247.374545 
L 346.585624 246.210909 
L 348.945032 250.865455 
L 351.30444 250.574545 
L 353.663848 248.538182 
L 356.023256 249.992727 
L 358.382664 247.956364 
L 360.742072 249.410909 
L 363.10148 249.410909 
L 365.460888 250.865455 
L 367.820296 251.156364 
L 370.179704 248.829091 
L 372.539112 247.956364 
L 374.89852 248.247273 
L 377.257928 250.865455 
L 379.617336 251.447273 
L 384.336152 250.865455 
L 386.69556 250.865455 
L 389.054968 249.410909 
L 391.414376 250.283636 
L 393.773784 248.829091 
L 396.133192 250.865455 
L 398.4926 250.283636 
L 400.852008 250.865455 
L 403.211416 249.12 
L 405.570825 248.829091 
L 407.930233 248.829091 
L 410.289641 247.956364 
L 412.649049 250.283636 
L 415.008457 250.865455 
L 417.367865 250.865455 
L 419.727273 242.138182 
L 422.086681 248.829091 
L 424.446089 248.829091 
L 426.805497 247.374545 
L 429.164905 249.12 
L 431.524313 250.574545 
L 433.883721 250.574545 
L 436.243129 246.210909 
L 438.602537 246.501818 
L 440.961945 248.247273 
L 443.321353 246.501818 
L 445.680761 247.374545 
L 448.040169 249.992727 
L 450.399577 250.865455 
L 452.758985 247.374545 
L 455.118393 245.92 
L 457.477801 247.083636 
L 459.837209 247.374545 
L 462.196617 249.410909 
L 464.556025 251.156364 
L 466.915433 249.992727 
L 469.274841 247.665455 
L 471.634249 247.956364 
L 473.993658 247.665455 
L 476.353066 248.538182 
L 478.712474 250.574545 
L 483.43129 251.156364 
L 485.790698 249.992727 
L 488.150106 246.210909 
L 490.509514 249.410909 
L 492.868922 247.083636 
L 495.22833 248.538182 
L 497.587738 246.792727 
L 499.947146 249.701818 
L 502.306554 251.156364 
L 507.02537 249.410909 
L 509.384778 248.247273 
L 511.744186 248.538182 
L 514.103594 247.374545 
L 516.463002 249.12 
L 518.82241 249.410909 
L 521.181818 250.865455 
L 523.541226 245.629091 
L 525.900634 245.338182 
L 528.260042 247.956364 
L 530.61945 248.829091 
L 532.978858 249.12 
L 535.338266 249.12 
L 537.697674 250.865455 
L 540.057082 250.283636 
L 542.41649 245.629091 
L 544.775899 244.174545 
L 547.135307 246.792727 
L 549.494715 248.829091 
L 551.854123 250.283636 
L 554.213531 249.12 
L 556.572939 250.283636 
L 558.932347 246.210909 
L 561.291755 246.501818 
L 563.651163 228.465455 
L 566.010571 247.956364 
L 568.369979 246.501818 
L 570.729387 250.574545 
L 573.088795 251.738182 
L 575.448203 249.701818 
L 577.807611 248.247273 
L 580.167019 248.247273 
L 582.526427 248.538182 
L 584.885835 247.665455 
L 589.604651 251.156364 
L 591.964059 249.12 
L 594.323467 248.247273 
L 596.682875 246.792727 
L 599.042283 247.083636 
L 601.401691 245.629091 
L 603.761099 250.574545 
L 606.120507 251.738182 
L 608.479915 245.629091 
L 610.839323 247.083636 
L 613.198732 249.410909 
L 615.55814 247.374545 
L 617.917548 248.247273 
L 620.276956 251.447273 
L 622.636364 250.283636 
L 622.636364 250.283636 
" style="fill:none;stroke:#ff7f0e;stroke-linecap:square;stroke-width:1.5;"/>
   </g>
   <g id="patch_9">
    <path d="M 90 256.32 
L 90 155.52 
" style="fill:none;stroke:#000000;stroke-linecap:square;stroke-linejoin:miter;stroke-width:0.8;"/>
   </g>
   <g id="patch_10">
    <path d="M 648 256.32 
L 648 155.52 
" style="fill:none;stroke:#000000;stroke-linecap:square;stroke-linejoin:miter;stroke-width:0.8;"/>
   </g>
   <g id="patch_11">
    <path d="M 90 256.32 
L 648 256.32 
" style="fill:none;stroke:#000000;stroke-linecap:square;stroke-linejoin:miter;stroke-width:0.8;"/>
   </g>
   <g id="patch_12">
    <path d="M 90 155.52 
L 648 155.52 
" style="fill:none;stroke:#000000;stroke-linecap:square;stroke-linejoin:miter;stroke-width:0.8;"/>
   </g>
   <g id="legend_2">
    <g id="patch_13">
     <path d="M 97 192.87625 
L 234.217188 192.87625 
Q 236.217188 192.87625 236.217188 190.87625 
L 236.217188 162.52 
Q 236.217188 160.52 234.217188 160.52 
L 97 160.52 
Q 95 160.52 95 162.52 
L 95 190.87625 
Q 95 192.87625 97 192.87625 
z
" style="fill:#ffffff;opacity:0.8;stroke:#cccccc;stroke-linejoin:miter;"/>
    </g>
    <g id="line2d_30">
     <path d="M 99 168.618437 
L 119 168.618437 
" style="fill:none;stroke:#1f77b4;stroke-linecap:square;stroke-width:1.5;"/>
    </g>
    <g id="line2d_31"/>
    <g id="text_25">
     <!-- Total GitHub Views -->
     <g transform="translate(127 172.118437)scale(0.1 -0.1)">
      <defs>
       <path d="M 1831 0 
L 50 4666 
L 709 4666 
L 2188 738 
L 3669 4666 
L 4325 4666 
L 2547 0 
L 1831 0 
z
" id="DejaVuSans-56" transform="scale(0.015625)"/>
       <path d="M 269 3500 
L 844 3500 
L 1563 769 
L 2278 3500 
L 2956 3500 
L 3675 769 
L 4391 3500 
L 4966 3500 
L 4050 0 
L 3372 0 
L 2619 2869 
L 1863 0 
L 1184 0 
L 269 3500 
z
" id="DejaVuSans-77" transform="scale(0.015625)"/>
      </defs>
      <use xlink:href="#DejaVuSans-54"/>
      <use x="44.083984" xlink:href="#DejaVuSans-6f"/>
      <use x="105.265625" xlink:href="#DejaVuSans-74"/>
      <use x="144.474609" xlink:href="#DejaVuSans-61"/>
      <use x="205.753906" xlink:href="#DejaVuSans-6c"/>
      <use x="233.537109" xlink:href="#DejaVuSans-20"/>
      <use x="265.324219" xlink:href="#DejaVuSans-47"/>
      <use x="342.814453" xlink:href="#DejaVuSans-69"/>
      <use x="370.597656" xlink:href="#DejaVuSans-74"/>
      <use x="409.806641" xlink:href="#DejaVuSans-48"/>
      <use x="485.001953" xlink:href="#DejaVuSans-75"/>
      <use x="548.380859" xlink:href="#DejaVuSans-62"/>
      <use x="611.857422" xlink:href="#DejaVuSans-20"/>
      <use x="643.644531" xlink:href="#DejaVuSans-56"/>
      <use x="709.802734" xlink:href="#DejaVuSans-69"/>
      <use x="737.585938" xlink:href="#DejaVuSans-65"/>
      <use x="799.109375" xlink:href="#DejaVuSans-77"/>
      <use x="880.896484" xlink:href="#DejaVuSans-73"/>
     </g>
    </g>
    <g id="line2d_32">
     <path d="M 99 183.296562 
L 119 183.296562 
" style="fill:none;stroke:#ff7f0e;stroke-linecap:square;stroke-width:1.5;"/>
    </g>
    <g id="line2d_33"/>
    <g id="text_26">
     <!-- Unique GitHub Views -->
     <g transform="translate(127 186.796562)scale(0.1 -0.1)">
      <use xlink:href="#DejaVuSans-55"/>
      <use x="73.193359" xlink:href="#DejaVuSans-6e"/>
      <use x="136.572266" xlink:href="#DejaVuSans-69"/>
      <use x="164.355469" xlink:href="#DejaVuSans-71"/>
      <use x="227.832031" xlink:href="#DejaVuSans-75"/>
      <use x="291.210938" xlink:href="#DejaVuSans-65"/>
      <use x="352.734375" xlink:href="#DejaVuSans-20"/>
      <use x="384.521484" xlink:href="#DejaVuSans-47"/>
      <use x="462.011719" xlink:href="#DejaVuSans-69"/>
      <use x="489.794922" xlink:href="#DejaVuSans-74"/>
      <use x="529.003906" xlink:href="#DejaVuSans-48"/>
      <use x="604.199219" xlink:href="#DejaVuSans-75"/>
      <use x="667.578125" xlink:href="#DejaVuSans-62"/>
      <use x="731.054688" xlink:href="#DejaVuSans-20"/>
      <use x="762.841797" xlink:href="#DejaVuSans-56"/>
      <use x="829" xlink:href="#DejaVuSans-69"/>
      <use x="856.783203" xlink:href="#DejaVuSans-65"/>
      <use x="918.306641" xlink:href="#DejaVuSans-77"/>
      <use x="1000.09375" xlink:href="#DejaVuSans-73"/>
     </g>
    </g>
   </g>
  </g>
 </g>
 <defs>
  <clipPath id="p87a3b2ceb4">
   <rect height="100.8" width="558" x="90" y="34.56"/>
  </clipPath>
  <clipPath id="p45518825d3">
   <rect height="100.8" width="558" x="90" y="155.52"/>
  </clipPath>
 </defs>
</svg>
