<?xml version="1.0" encoding="utf-8" standalone="no"?>
<!DOCTYPE svg PUBLIC "-//W3C//DTD SVG 1.1//EN"
  "http://www.w3.org/Graphics/SVG/1.1/DTD/svg11.dtd">
<svg height="288pt" version="1.1" viewBox="0 0 720 288" width="720pt" xmlns="http://www.w3.org/2000/svg" xmlns:xlink="http://www.w3.org/1999/xlink">
 <metadata>
  <rdf:RDF xmlns:cc="http://creativecommons.org/ns#" xmlns:dc="http://purl.org/dc/elements/1.1/" xmlns:rdf="http://www.w3.org/1999/02/22-rdf-syntax-ns#">
   <cc:Work>
    <dc:type rdf:resource="http://purl.org/dc/dcmitype/StillImage"/>
    <dc:date>2021-11-15T00:28:20.348493</dc:date>
    <dc:format>image/svg+xml</dc:format>
    <dc:creator>
     <cc:Agent>
      <dc:title>Matplotlib v3.4.3, https://matplotlib.org/</dc:title>
     </cc:Agent>
    </dc:creator>
   </cc:Work>
  </rdf:RDF>
 </metadata>
 <defs>
  <style type="text/css">*{stroke-linecap:butt;stroke-linejoin:round;}</style>
 </defs>
 <g id="figure_1">
  <g id="patch_1">
   <path d="M 0 288 
L 720 288 
L 720 0 
L 0 0 
z
" style="fill:#ffffff;"/>
  </g>
  <g id="axes_1">
   <g id="patch_2">
    <path d="M 90 135.36 
L 648 135.36 
L 648 34.56 
L 90 34.56 
z
" style="fill:#ffffff;"/>
   </g>
   <g id="matplotlib.axis_1">
    <g id="xtick_1">
     <g id="line2d_1">
      <defs>
       <path d="M 0 0 
L 0 3.5 
" id="mdc89acb515" style="stroke:#000000;stroke-width:0.8;"/>
      </defs>
      <g>
       <use style="stroke:#000000;stroke-width:0.8;" x="115.363636" xlink:href="#mdc89acb515" y="135.36"/>
      </g>
     </g>
     <g id="text_1">
      <!-- 2020-10-22 -->
      <g transform="translate(86.305824 149.958437)scale(0.1 -0.1)">
       <defs>
        <path d="M 1228 531 
L 3431 531 
L 3431 0 
L 469 0 
L 469 531 
Q 828 903 1448 1529 
Q 2069 2156 2228 2338 
Q 2531 2678 2651 2914 
Q 2772 3150 2772 3378 
Q 2772 3750 2511 3984 
Q 2250 4219 1831 4219 
Q 1534 4219 1204 4116 
Q 875 4013 500 3803 
L 500 4441 
Q 881 4594 1212 4672 
Q 1544 4750 1819 4750 
Q 2544 4750 2975 4387 
Q 3406 4025 3406 3419 
Q 3406 3131 3298 2873 
Q 3191 2616 2906 2266 
Q 2828 2175 2409 1742 
Q 1991 1309 1228 531 
z
" id="DejaVuSans-32" transform="scale(0.015625)"/>
        <path d="M 2034 4250 
Q 1547 4250 1301 3770 
Q 1056 3291 1056 2328 
Q 1056 1369 1301 889 
Q 1547 409 2034 409 
Q 2525 409 2770 889 
Q 3016 1369 3016 2328 
Q 3016 3291 2770 3770 
Q 2525 4250 2034 4250 
z
M 2034 4750 
Q 2819 4750 3233 4129 
Q 3647 3509 3647 2328 
Q 3647 1150 3233 529 
Q 2819 -91 2034 -91 
Q 1250 -91 836 529 
Q 422 1150 422 2328 
Q 422 3509 836 4129 
Q 1250 4750 2034 4750 
z
" id="DejaVuSans-30" transform="scale(0.015625)"/>
        <path d="M 313 2009 
L 1997 2009 
L 1997 1497 
L 313 1497 
L 313 2009 
z
" id="DejaVuSans-2d" transform="scale(0.015625)"/>
        <path d="M 794 531 
L 1825 531 
L 1825 4091 
L 703 3866 
L 703 4441 
L 1819 4666 
L 2450 4666 
L 2450 531 
L 3481 531 
L 3481 0 
L 794 0 
L 794 531 
z
" id="DejaVuSans-31" transform="scale(0.015625)"/>
       </defs>
       <use xlink:href="#DejaVuSans-32"/>
       <use x="63.623047" xlink:href="#DejaVuSans-30"/>
       <use x="127.246094" xlink:href="#DejaVuSans-32"/>
       <use x="190.869141" xlink:href="#DejaVuSans-30"/>
       <use x="254.492188" xlink:href="#DejaVuSans-2d"/>
       <use x="290.576172" xlink:href="#DejaVuSans-31"/>
       <use x="354.199219" xlink:href="#DejaVuSans-30"/>
       <use x="417.822266" xlink:href="#DejaVuSans-2d"/>
       <use x="453.90625" xlink:href="#DejaVuSans-32"/>
       <use x="517.529297" xlink:href="#DejaVuSans-32"/>
      </g>
     </g>
    </g>
    <g id="xtick_2">
     <g id="line2d_2">
      <g>
       <use style="stroke:#000000;stroke-width:0.8;" x="191.990937" xlink:href="#mdc89acb515" y="135.36"/>
      </g>
     </g>
     <g id="text_2">
      <!-- 2021-01-05 -->
      <g transform="translate(162.933124 149.958437)scale(0.1 -0.1)">
       <defs>
        <path d="M 691 4666 
L 3169 4666 
L 3169 4134 
L 1269 4134 
L 1269 2991 
Q 1406 3038 1543 3061 
Q 1681 3084 1819 3084 
Q 2600 3084 3056 2656 
Q 3513 2228 3513 1497 
Q 3513 744 3044 326 
Q 2575 -91 1722 -91 
Q 1428 -91 1123 -41 
Q 819 9 494 109 
L 494 744 
Q 775 591 1075 516 
Q 1375 441 1709 441 
Q 2250 441 2565 725 
Q 2881 1009 2881 1497 
Q 2881 1984 2565 2268 
Q 2250 2553 1709 2553 
Q 1456 2553 1204 2497 
Q 953 2441 691 2322 
L 691 4666 
z
" id="DejaVuSans-35" transform="scale(0.015625)"/>
       </defs>
       <use xlink:href="#DejaVuSans-32"/>
       <use x="63.623047" xlink:href="#DejaVuSans-30"/>
       <use x="127.246094" xlink:href="#DejaVuSans-32"/>
       <use x="190.869141" xlink:href="#DejaVuSans-31"/>
       <use x="254.492188" xlink:href="#DejaVuSans-2d"/>
       <use x="290.576172" xlink:href="#DejaVuSans-30"/>
       <use x="354.199219" xlink:href="#DejaVuSans-31"/>
       <use x="417.822266" xlink:href="#DejaVuSans-2d"/>
       <use x="453.90625" xlink:href="#DejaVuSans-30"/>
       <use x="517.529297" xlink:href="#DejaVuSans-35"/>
      </g>
     </g>
    </g>
    <g id="xtick_3">
     <g id="line2d_3">
      <g>
       <use style="stroke:#000000;stroke-width:0.8;" x="268.618237" xlink:href="#mdc89acb515" y="135.36"/>
      </g>
     </g>
     <g id="text_3">
      <!-- 2021-03-17 -->
      <g transform="translate(239.560424 149.958437)scale(0.1 -0.1)">
       <defs>
        <path d="M 2597 2516 
Q 3050 2419 3304 2112 
Q 3559 1806 3559 1356 
Q 3559 666 3084 287 
Q 2609 -91 1734 -91 
Q 1441 -91 1130 -33 
Q 819 25 488 141 
L 488 750 
Q 750 597 1062 519 
Q 1375 441 1716 441 
Q 2309 441 2620 675 
Q 2931 909 2931 1356 
Q 2931 1769 2642 2001 
Q 2353 2234 1838 2234 
L 1294 2234 
L 1294 2753 
L 1863 2753 
Q 2328 2753 2575 2939 
Q 2822 3125 2822 3475 
Q 2822 3834 2567 4026 
Q 2313 4219 1838 4219 
Q 1578 4219 1281 4162 
Q 984 4106 628 3988 
L 628 4550 
Q 988 4650 1302 4700 
Q 1616 4750 1894 4750 
Q 2613 4750 3031 4423 
Q 3450 4097 3450 3541 
Q 3450 3153 3228 2886 
Q 3006 2619 2597 2516 
z
" id="DejaVuSans-33" transform="scale(0.015625)"/>
        <path d="M 525 4666 
L 3525 4666 
L 3525 4397 
L 1831 0 
L 1172 0 
L 2766 4134 
L 525 4134 
L 525 4666 
z
" id="DejaVuSans-37" transform="scale(0.015625)"/>
       </defs>
       <use xlink:href="#DejaVuSans-32"/>
       <use x="63.623047" xlink:href="#DejaVuSans-30"/>
       <use x="127.246094" xlink:href="#DejaVuSans-32"/>
       <use x="190.869141" xlink:href="#DejaVuSans-31"/>
       <use x="254.492188" xlink:href="#DejaVuSans-2d"/>
       <use x="290.576172" xlink:href="#DejaVuSans-30"/>
       <use x="354.199219" xlink:href="#DejaVuSans-33"/>
       <use x="417.822266" xlink:href="#DejaVuSans-2d"/>
       <use x="453.90625" xlink:href="#DejaVuSans-31"/>
       <use x="517.529297" xlink:href="#DejaVuSans-37"/>
      </g>
     </g>
    </g>
    <g id="xtick_4">
     <g id="line2d_4">
      <g>
       <use style="stroke:#000000;stroke-width:0.8;" x="345.245537" xlink:href="#mdc89acb515" y="135.36"/>
      </g>
     </g>
     <g id="text_4">
      <!-- 2021-05-04 -->
      <g transform="translate(316.187724 149.958437)scale(0.1 -0.1)">
       <defs>
        <path d="M 2419 4116 
L 825 1625 
L 2419 1625 
L 2419 4116 
z
M 2253 4666 
L 3047 4666 
L 3047 1625 
L 3713 1625 
L 3713 1100 
L 3047 1100 
L 3047 0 
L 2419 0 
L 2419 1100 
L 313 1100 
L 313 1709 
L 2253 4666 
z
" id="DejaVuSans-34" transform="scale(0.015625)"/>
       </defs>
       <use xlink:href="#DejaVuSans-32"/>
       <use x="63.623047" xlink:href="#DejaVuSans-30"/>
       <use x="127.246094" xlink:href="#DejaVuSans-32"/>
       <use x="190.869141" xlink:href="#DejaVuSans-31"/>
       <use x="254.492188" xlink:href="#DejaVuSans-2d"/>
       <use x="290.576172" xlink:href="#DejaVuSans-30"/>
       <use x="354.199219" xlink:href="#DejaVuSans-35"/>
       <use x="417.822266" xlink:href="#DejaVuSans-2d"/>
       <use x="453.90625" xlink:href="#DejaVuSans-30"/>
       <use x="517.529297" xlink:href="#DejaVuSans-34"/>
      </g>
     </g>
    </g>
    <g id="xtick_5">
     <g id="line2d_5">
      <g>
       <use style="stroke:#000000;stroke-width:0.8;" x="421.872837" xlink:href="#mdc89acb515" y="135.36"/>
      </g>
     </g>
     <g id="text_5">
      <!-- 2021-06-22 -->
      <g transform="translate(392.815025 149.958437)scale(0.1 -0.1)">
       <defs>
        <path d="M 2113 2584 
Q 1688 2584 1439 2293 
Q 1191 2003 1191 1497 
Q 1191 994 1439 701 
Q 1688 409 2113 409 
Q 2538 409 2786 701 
Q 3034 994 3034 1497 
Q 3034 2003 2786 2293 
Q 2538 2584 2113 2584 
z
M 3366 4563 
L 3366 3988 
Q 3128 4100 2886 4159 
Q 2644 4219 2406 4219 
Q 1781 4219 1451 3797 
Q 1122 3375 1075 2522 
Q 1259 2794 1537 2939 
Q 1816 3084 2150 3084 
Q 2853 3084 3261 2657 
Q 3669 2231 3669 1497 
Q 3669 778 3244 343 
Q 2819 -91 2113 -91 
Q 1303 -91 875 529 
Q 447 1150 447 2328 
Q 447 3434 972 4092 
Q 1497 4750 2381 4750 
Q 2619 4750 2861 4703 
Q 3103 4656 3366 4563 
z
" id="DejaVuSans-36" transform="scale(0.015625)"/>
       </defs>
       <use xlink:href="#DejaVuSans-32"/>
       <use x="63.623047" xlink:href="#DejaVuSans-30"/>
       <use x="127.246094" xlink:href="#DejaVuSans-32"/>
       <use x="190.869141" xlink:href="#DejaVuSans-31"/>
       <use x="254.492188" xlink:href="#DejaVuSans-2d"/>
       <use x="290.576172" xlink:href="#DejaVuSans-30"/>
       <use x="354.199219" xlink:href="#DejaVuSans-36"/>
       <use x="417.822266" xlink:href="#DejaVuSans-2d"/>
       <use x="453.90625" xlink:href="#DejaVuSans-32"/>
       <use x="517.529297" xlink:href="#DejaVuSans-32"/>
      </g>
     </g>
    </g>
    <g id="xtick_6">
     <g id="line2d_6">
      <g>
       <use style="stroke:#000000;stroke-width:0.8;" x="498.500137" xlink:href="#mdc89acb515" y="135.36"/>
      </g>
     </g>
     <g id="text_6">
      <!-- 2021-08-19 -->
      <g transform="translate(469.442325 149.958437)scale(0.1 -0.1)">
       <defs>
        <path d="M 2034 2216 
Q 1584 2216 1326 1975 
Q 1069 1734 1069 1313 
Q 1069 891 1326 650 
Q 1584 409 2034 409 
Q 2484 409 2743 651 
Q 3003 894 3003 1313 
Q 3003 1734 2745 1975 
Q 2488 2216 2034 2216 
z
M 1403 2484 
Q 997 2584 770 2862 
Q 544 3141 544 3541 
Q 544 4100 942 4425 
Q 1341 4750 2034 4750 
Q 2731 4750 3128 4425 
Q 3525 4100 3525 3541 
Q 3525 3141 3298 2862 
Q 3072 2584 2669 2484 
Q 3125 2378 3379 2068 
Q 3634 1759 3634 1313 
Q 3634 634 3220 271 
Q 2806 -91 2034 -91 
Q 1263 -91 848 271 
Q 434 634 434 1313 
Q 434 1759 690 2068 
Q 947 2378 1403 2484 
z
M 1172 3481 
Q 1172 3119 1398 2916 
Q 1625 2713 2034 2713 
Q 2441 2713 2670 2916 
Q 2900 3119 2900 3481 
Q 2900 3844 2670 4047 
Q 2441 4250 2034 4250 
Q 1625 4250 1398 4047 
Q 1172 3844 1172 3481 
z
" id="DejaVuSans-38" transform="scale(0.015625)"/>
        <path d="M 703 97 
L 703 672 
Q 941 559 1184 500 
Q 1428 441 1663 441 
Q 2288 441 2617 861 
Q 2947 1281 2994 2138 
Q 2813 1869 2534 1725 
Q 2256 1581 1919 1581 
Q 1219 1581 811 2004 
Q 403 2428 403 3163 
Q 403 3881 828 4315 
Q 1253 4750 1959 4750 
Q 2769 4750 3195 4129 
Q 3622 3509 3622 2328 
Q 3622 1225 3098 567 
Q 2575 -91 1691 -91 
Q 1453 -91 1209 -44 
Q 966 3 703 97 
z
M 1959 2075 
Q 2384 2075 2632 2365 
Q 2881 2656 2881 3163 
Q 2881 3666 2632 3958 
Q 2384 4250 1959 4250 
Q 1534 4250 1286 3958 
Q 1038 3666 1038 3163 
Q 1038 2656 1286 2365 
Q 1534 2075 1959 2075 
z
" id="DejaVuSans-39" transform="scale(0.015625)"/>
       </defs>
       <use xlink:href="#DejaVuSans-32"/>
       <use x="63.623047" xlink:href="#DejaVuSans-30"/>
       <use x="127.246094" xlink:href="#DejaVuSans-32"/>
       <use x="190.869141" xlink:href="#DejaVuSans-31"/>
       <use x="254.492188" xlink:href="#DejaVuSans-2d"/>
       <use x="290.576172" xlink:href="#DejaVuSans-30"/>
       <use x="354.199219" xlink:href="#DejaVuSans-38"/>
       <use x="417.822266" xlink:href="#DejaVuSans-2d"/>
       <use x="453.90625" xlink:href="#DejaVuSans-31"/>
       <use x="517.529297" xlink:href="#DejaVuSans-39"/>
      </g>
     </g>
    </g>
    <g id="xtick_7">
     <g id="line2d_7">
      <g>
       <use style="stroke:#000000;stroke-width:0.8;" x="575.127438" xlink:href="#mdc89acb515" y="135.36"/>
      </g>
     </g>
     <g id="text_7">
      <!-- 2021-10-18 -->
      <g transform="translate(546.069625 149.958437)scale(0.1 -0.1)">
       <use xlink:href="#DejaVuSans-32"/>
       <use x="63.623047" xlink:href="#DejaVuSans-30"/>
       <use x="127.246094" xlink:href="#DejaVuSans-32"/>
       <use x="190.869141" xlink:href="#DejaVuSans-31"/>
       <use x="254.492188" xlink:href="#DejaVuSans-2d"/>
       <use x="290.576172" xlink:href="#DejaVuSans-31"/>
       <use x="354.199219" xlink:href="#DejaVuSans-30"/>
       <use x="417.822266" xlink:href="#DejaVuSans-2d"/>
       <use x="453.90625" xlink:href="#DejaVuSans-31"/>
       <use x="517.529297" xlink:href="#DejaVuSans-38"/>
      </g>
     </g>
    </g>
    <g id="text_8">
     <!-- _date -->
     <g transform="translate(355.225 163.636562)scale(0.1 -0.1)">
      <defs>
       <path d="M 3263 -1063 
L 3263 -1509 
L -63 -1509 
L -63 -1063 
L 3263 -1063 
z
" id="DejaVuSans-5f" transform="scale(0.015625)"/>
       <path d="M 2906 2969 
L 2906 4863 
L 3481 4863 
L 3481 0 
L 2906 0 
L 2906 525 
Q 2725 213 2448 61 
Q 2172 -91 1784 -91 
Q 1150 -91 751 415 
Q 353 922 353 1747 
Q 353 2572 751 3078 
Q 1150 3584 1784 3584 
Q 2172 3584 2448 3432 
Q 2725 3281 2906 2969 
z
M 947 1747 
Q 947 1113 1208 752 
Q 1469 391 1925 391 
Q 2381 391 2643 752 
Q 2906 1113 2906 1747 
Q 2906 2381 2643 2742 
Q 2381 3103 1925 3103 
Q 1469 3103 1208 2742 
Q 947 2381 947 1747 
z
" id="DejaVuSans-64" transform="scale(0.015625)"/>
       <path d="M 2194 1759 
Q 1497 1759 1228 1600 
Q 959 1441 959 1056 
Q 959 750 1161 570 
Q 1363 391 1709 391 
Q 2188 391 2477 730 
Q 2766 1069 2766 1631 
L 2766 1759 
L 2194 1759 
z
M 3341 1997 
L 3341 0 
L 2766 0 
L 2766 531 
Q 2569 213 2275 61 
Q 1981 -91 1556 -91 
Q 1019 -91 701 211 
Q 384 513 384 1019 
Q 384 1609 779 1909 
Q 1175 2209 1959 2209 
L 2766 2209 
L 2766 2266 
Q 2766 2663 2505 2880 
Q 2244 3097 1772 3097 
Q 1472 3097 1187 3025 
Q 903 2953 641 2809 
L 641 3341 
Q 956 3463 1253 3523 
Q 1550 3584 1831 3584 
Q 2591 3584 2966 3190 
Q 3341 2797 3341 1997 
z
" id="DejaVuSans-61" transform="scale(0.015625)"/>
       <path d="M 1172 4494 
L 1172 3500 
L 2356 3500 
L 2356 3053 
L 1172 3053 
L 1172 1153 
Q 1172 725 1289 603 
Q 1406 481 1766 481 
L 2356 481 
L 2356 0 
L 1766 0 
Q 1100 0 847 248 
Q 594 497 594 1153 
L 594 3053 
L 172 3053 
L 172 3500 
L 594 3500 
L 594 4494 
L 1172 4494 
z
" id="DejaVuSans-74" transform="scale(0.015625)"/>
       <path d="M 3597 1894 
L 3597 1613 
L 953 1613 
Q 991 1019 1311 708 
Q 1631 397 2203 397 
Q 2534 397 2845 478 
Q 3156 559 3463 722 
L 3463 178 
Q 3153 47 2828 -22 
Q 2503 -91 2169 -91 
Q 1331 -91 842 396 
Q 353 884 353 1716 
Q 353 2575 817 3079 
Q 1281 3584 2069 3584 
Q 2775 3584 3186 3129 
Q 3597 2675 3597 1894 
z
M 3022 2063 
Q 3016 2534 2758 2815 
Q 2500 3097 2075 3097 
Q 1594 3097 1305 2825 
Q 1016 2553 972 2059 
L 3022 2063 
z
" id="DejaVuSans-65" transform="scale(0.015625)"/>
      </defs>
      <use xlink:href="#DejaVuSans-5f"/>
      <use x="50" xlink:href="#DejaVuSans-64"/>
      <use x="113.476562" xlink:href="#DejaVuSans-61"/>
      <use x="174.755859" xlink:href="#DejaVuSans-74"/>
      <use x="213.964844" xlink:href="#DejaVuSans-65"/>
     </g>
    </g>
   </g>
   <g id="matplotlib.axis_2">
    <g id="ytick_1">
     <g id="line2d_8">
      <defs>
       <path d="M 0 0 
L -3.5 0 
" id="m9750e9197f" style="stroke:#000000;stroke-width:0.8;"/>
      </defs>
      <g>
       <use style="stroke:#000000;stroke-width:0.8;" x="90" xlink:href="#m9750e9197f" y="131.401558"/>
      </g>
     </g>
     <g id="text_9">
      <!-- 0 -->
      <g transform="translate(76.6375 135.200777)scale(0.1 -0.1)">
       <use xlink:href="#DejaVuSans-30"/>
      </g>
     </g>
    </g>
    <g id="ytick_2">
     <g id="line2d_9">
      <g>
       <use style="stroke:#000000;stroke-width:0.8;" x="90" xlink:href="#m9750e9197f" y="100.232727"/>
      </g>
     </g>
     <g id="text_10">
      <!-- 50 -->
      <g transform="translate(70.275 104.031946)scale(0.1 -0.1)">
       <use xlink:href="#DejaVuSans-35"/>
       <use x="63.623047" xlink:href="#DejaVuSans-30"/>
      </g>
     </g>
    </g>
    <g id="ytick_3">
     <g id="line2d_10">
      <g>
       <use style="stroke:#000000;stroke-width:0.8;" x="90" xlink:href="#m9750e9197f" y="69.063896"/>
      </g>
     </g>
     <g id="text_11">
      <!-- 100 -->
      <g transform="translate(63.9125 72.863115)scale(0.1 -0.1)">
       <use xlink:href="#DejaVuSans-31"/>
       <use x="63.623047" xlink:href="#DejaVuSans-30"/>
       <use x="127.246094" xlink:href="#DejaVuSans-30"/>
      </g>
     </g>
    </g>
    <g id="ytick_4">
     <g id="line2d_11">
      <g>
       <use style="stroke:#000000;stroke-width:0.8;" x="90" xlink:href="#m9750e9197f" y="37.895065"/>
      </g>
     </g>
     <g id="text_12">
      <!-- 150 -->
      <g transform="translate(63.9125 41.694284)scale(0.1 -0.1)">
       <use xlink:href="#DejaVuSans-31"/>
       <use x="63.623047" xlink:href="#DejaVuSans-35"/>
       <use x="127.246094" xlink:href="#DejaVuSans-30"/>
      </g>
     </g>
    </g>
   </g>
   <g id="line2d_12">
    <path clip-path="url(#p7bfea0b2c8)" d="M 115.363636 127.661299 
L 116.896182 128.284675 
L 118.428728 130.778182 
L 119.961274 130.778182 
L 121.49382 129.531429 
L 123.026366 129.531429 
L 124.558912 120.804156 
L 126.091458 120.804156 
L 127.624004 130.778182 
L 129.15655 130.778182 
L 130.689096 124.544416 
L 132.221642 126.414545 
L 133.754188 130.778182 
L 135.286734 127.661299 
L 136.81928 128.908052 
L 138.351826 128.908052 
L 139.884372 130.778182 
L 142.949464 128.284675 
L 144.48201 130.154805 
L 146.014556 130.778182 
L 147.547102 130.154805 
L 149.079648 130.154805 
L 150.612194 129.531429 
L 152.14474 130.154805 
L 153.677286 130.154805 
L 155.209832 128.908052 
L 156.742378 130.154805 
L 158.274924 130.154805 
L 159.80747 122.674286 
L 161.340016 127.661299 
L 162.872562 130.154805 
L 164.405108 115.817143 
L 165.937654 130.778182 
L 178.198023 130.778182 
L 179.730569 130.154805 
L 181.263115 130.778182 
L 191.990937 130.778182 
L 193.523483 128.908052 
L 195.056029 129.531429 
L 196.588575 130.778182 
L 198.121121 129.531429 
L 199.653667 127.661299 
L 201.186213 130.154805 
L 202.718759 130.154805 
L 204.251305 128.908052 
L 205.783851 120.804156 
L 207.316397 130.154805 
L 208.848943 130.778182 
L 210.381489 130.154805 
L 211.914035 127.037922 
L 213.446581 130.154805 
L 214.979127 129.531429 
L 216.511673 125.167792 
L 218.044219 128.908052 
L 219.576765 127.037922 
L 221.109311 130.154805 
L 222.641857 129.531429 
L 224.174403 130.154805 
L 225.706949 129.531429 
L 228.772041 129.531429 
L 230.304587 128.284675 
L 231.837133 130.778182 
L 233.369679 130.778182 
L 234.902225 128.284675 
L 236.434771 128.284675 
L 237.967317 125.167792 
L 239.499863 129.531429 
L 241.032409 127.661299 
L 242.564955 130.778182 
L 244.097501 125.791169 
L 245.630047 128.908052 
L 247.162593 129.531429 
L 248.695139 128.908052 
L 250.227685 126.414545 
L 251.760231 130.154805 
L 253.292777 128.284675 
L 254.825323 121.427532 
L 256.357869 126.414545 
L 257.890415 120.804156 
L 259.422961 87.141818 
L 260.955507 127.661299 
L 262.488053 130.778182 
L 264.020599 128.908052 
L 265.553145 123.297662 
L 267.085691 124.544416 
L 268.618237 127.661299 
L 270.150783 119.557403 
L 271.683329 128.908052 
L 273.215875 128.908052 
L 274.748421 130.154805 
L 276.280967 122.674286 
L 277.813513 124.544416 
L 279.346059 130.778182 
L 280.878605 129.531429 
L 282.411151 130.778182 
L 283.943697 128.284675 
L 285.476243 100.232727 
L 287.008789 118.310649 
L 288.541335 121.427532 
L 290.073881 127.661299 
L 291.606427 130.778182 
L 293.138973 126.414545 
L 294.671519 128.908052 
L 296.204065 122.674286 
L 297.736611 122.050909 
L 299.269157 128.908052 
L 300.801703 123.297662 
L 302.334249 115.817143 
L 303.866795 122.674286 
L 305.399341 127.661299 
L 306.931887 115.817143 
L 308.464433 115.193766 
L 309.996979 115.193766 
L 311.529525 116.440519 
L 313.062071 92.128831 
L 314.594617 107.08987 
L 316.127163 109.583377 
L 317.659709 107.08987 
L 319.192255 107.713247 
L 320.724801 119.557403 
L 322.257347 110.206753 
L 323.789893 118.934026 
L 325.322439 129.531429 
L 326.854985 130.154805 
L 328.387531 116.440519 
L 329.920077 115.193766 
L 331.452623 114.57039 
L 332.985169 115.817143 
L 334.517715 111.453506 
L 336.050261 105.843117 
L 337.582807 128.284675 
L 339.115353 130.154805 
L 340.647899 116.440519 
L 342.180445 117.687273 
L 343.712991 119.557403 
L 345.245537 100.232727 
L 346.778083 115.817143 
L 348.310629 116.440519 
L 349.843175 130.154805 
L 351.375721 128.908052 
L 352.908267 114.57039 
L 354.440813 102.726234 
L 355.973359 102.102857 
L 357.505905 117.063896 
L 359.038451 113.323636 
L 360.570997 95.245714 
L 362.103543 117.063896 
L 363.636089 130.154805 
L 365.168635 114.57039 
L 366.701181 107.713247 
L 368.233727 105.843117 
L 369.766273 102.726234 
L 371.298819 108.96 
L 372.831365 111.453506 
L 374.363911 129.531429 
L 375.896457 115.193766 
L 377.429003 108.336623 
L 378.961549 110.206753 
L 380.494095 115.817143 
L 382.026641 115.193766 
L 383.559187 113.947013 
L 385.091733 125.791169 
L 386.624279 115.817143 
L 388.156825 113.323636 
L 391.221917 115.817143 
L 392.754463 116.440519 
L 394.287009 116.440519 
L 395.819555 130.778182 
L 397.352101 130.778182 
L 398.884647 115.193766 
L 400.417193 112.076883 
L 401.949739 115.193766 
L 403.482285 102.726234 
L 405.014831 105.843117 
L 406.547377 130.778182 
L 408.079923 115.817143 
L 409.612469 113.947013 
L 411.145015 113.323636 
L 412.677561 112.076883 
L 414.210107 117.063896 
L 415.742653 130.154805 
L 417.275199 115.193766 
L 418.807745 114.57039 
L 420.340291 110.83013 
L 421.872837 105.21974 
L 423.405383 104.596364 
L 424.937929 39.141818 
L 428.003021 130.778182 
L 429.535567 120.180779 
L 431.068113 118.310649 
L 432.600659 117.063896 
L 434.133205 117.687273 
L 435.665751 124.544416 
L 437.198297 130.778182 
L 438.730843 130.778182 
L 440.263389 130.154805 
L 441.795935 123.297662 
L 443.328481 125.167792 
L 444.861027 130.154805 
L 446.393573 128.908052 
L 447.926119 130.154805 
L 449.458665 130.778182 
L 450.991211 130.154805 
L 452.523757 130.778182 
L 454.056303 130.778182 
L 455.588849 128.908052 
L 457.121395 130.154805 
L 458.653941 129.531429 
L 460.186487 130.778182 
L 464.784125 130.778182 
L 466.316671 128.284675 
L 467.849217 128.908052 
L 469.381763 130.154805 
L 470.914309 130.778182 
L 472.446855 130.778182 
L 473.979401 130.154805 
L 475.511947 127.037922 
L 477.044493 130.778182 
L 478.577039 117.063896 
L 480.109585 129.531429 
L 483.174677 130.778182 
L 486.239769 129.531429 
L 487.772315 130.778182 
L 489.304861 130.154805 
L 490.837407 130.778182 
L 492.369953 128.908052 
L 493.902499 130.154805 
L 495.435045 130.154805 
L 496.967591 129.531429 
L 498.500137 130.778182 
L 501.565229 130.778182 
L 504.630321 129.531429 
L 506.162867 127.037922 
L 507.695413 130.154805 
L 509.227959 130.154805 
L 510.760505 125.791169 
L 512.293051 124.544416 
L 513.825597 122.050909 
L 515.358143 130.778182 
L 518.423235 130.778182 
L 521.488327 129.531429 
L 523.020873 130.154805 
L 524.553419 125.167792 
L 526.085965 113.323636 
L 527.618511 127.661299 
L 529.151057 110.206753 
L 530.683603 112.70026 
L 532.216149 126.414545 
L 533.748695 130.154805 
L 535.281241 130.778182 
L 539.878879 130.778182 
L 541.411425 130.154805 
L 542.943971 130.778182 
L 544.476517 130.778182 
L 546.009063 128.284675 
L 547.541609 129.531429 
L 549.074155 98.362597 
L 550.606701 117.063896 
L 552.139247 129.531429 
L 553.671793 130.154805 
L 555.204339 122.674286 
L 556.736885 98.985974 
L 558.269431 96.492468 
L 559.801977 90.882078 
L 561.334523 103.972987 
L 562.867069 104.596364 
L 564.399615 120.804156 
L 565.932161 122.674286 
L 567.464707 130.778182 
L 568.997254 125.791169 
L 570.5298 130.778182 
L 572.062346 130.778182 
L 573.594892 122.674286 
L 575.127438 122.050909 
L 576.659984 129.531429 
L 578.19253 120.804156 
L 579.725076 97.739221 
L 581.257622 128.284675 
L 582.790168 122.674286 
L 584.322714 95.869091 
L 585.85526 121.427532 
L 587.387806 128.908052 
L 588.920352 123.297662 
L 590.452898 130.778182 
L 591.985444 128.284675 
L 593.51799 121.427532 
L 595.050536 123.921039 
L 596.583082 93.998961 
L 598.115628 120.804156 
L 599.648174 122.674286 
L 601.18072 129.531429 
L 602.713266 130.778182 
L 604.245812 130.778182 
L 607.310904 129.531429 
L 608.84345 126.414545 
L 610.375996 123.921039 
L 611.908542 122.674286 
L 613.441088 130.778182 
L 614.973634 130.778182 
L 616.50618 120.180779 
L 618.038726 115.817143 
L 619.571272 130.778182 
L 621.103818 129.531429 
L 622.636364 130.778182 
L 622.636364 130.778182 
" style="fill:none;stroke:#1f77b4;stroke-linecap:square;stroke-width:1.5;"/>
   </g>
   <g id="line2d_13">
    <path clip-path="url(#p7bfea0b2c8)" d="M 115.363636 127.661299 
L 116.896182 128.284675 
L 118.428728 130.778182 
L 119.961274 130.778182 
L 121.49382 129.531429 
L 123.026366 129.531429 
L 124.558912 130.154805 
L 126.091458 128.284675 
L 127.624004 130.778182 
L 129.15655 130.778182 
L 130.689096 124.544416 
L 132.221642 129.531429 
L 133.754188 130.778182 
L 135.286734 128.908052 
L 136.81928 128.908052 
L 138.351826 129.531429 
L 139.884372 130.778182 
L 141.416918 129.531429 
L 142.949464 128.908052 
L 144.48201 130.154805 
L 146.014556 130.778182 
L 147.547102 130.154805 
L 149.079648 130.778182 
L 150.612194 129.531429 
L 153.677286 130.778182 
L 155.209832 130.154805 
L 156.742378 130.778182 
L 158.274924 130.154805 
L 159.80747 125.791169 
L 161.340016 127.661299 
L 162.872562 130.154805 
L 164.405108 125.167792 
L 165.937654 130.778182 
L 178.198023 130.778182 
L 179.730569 130.154805 
L 181.263115 130.778182 
L 191.990937 130.778182 
L 193.523483 129.531429 
L 195.056029 130.778182 
L 196.588575 130.778182 
L 199.653667 129.531429 
L 201.186213 130.778182 
L 204.251305 130.778182 
L 205.783851 124.544416 
L 207.316397 130.778182 
L 208.848943 130.778182 
L 210.381489 130.154805 
L 211.914035 128.908052 
L 213.446581 130.154805 
L 214.979127 129.531429 
L 216.511673 127.037922 
L 218.044219 129.531429 
L 219.576765 130.778182 
L 221.109311 130.154805 
L 222.641857 130.778182 
L 224.174403 130.154805 
L 225.706949 130.778182 
L 227.239495 129.531429 
L 230.304587 129.531429 
L 231.837133 130.778182 
L 233.369679 130.778182 
L 237.967317 127.037922 
L 239.499863 129.531429 
L 241.032409 128.284675 
L 242.564955 130.778182 
L 244.097501 127.037922 
L 245.630047 128.908052 
L 247.162593 129.531429 
L 248.695139 128.908052 
L 250.227685 126.414545 
L 251.760231 130.154805 
L 253.292777 128.284675 
L 254.825323 124.544416 
L 256.357869 127.037922 
L 257.890415 123.297662 
L 259.422961 108.96 
L 260.955507 127.661299 
L 262.488053 130.778182 
L 264.020599 129.531429 
L 265.553145 123.921039 
L 268.618237 127.661299 
L 270.150783 122.050909 
L 271.683329 128.908052 
L 273.215875 128.908052 
L 274.748421 130.154805 
L 276.280967 124.544416 
L 277.813513 124.544416 
L 279.346059 130.778182 
L 280.878605 129.531429 
L 282.411151 130.778182 
L 283.943697 128.908052 
L 285.476243 116.440519 
L 287.008789 122.674286 
L 288.541335 124.544416 
L 290.073881 128.284675 
L 291.606427 130.778182 
L 293.138973 127.661299 
L 294.671519 130.154805 
L 296.204065 123.921039 
L 297.736611 123.921039 
L 299.269157 129.531429 
L 300.801703 123.921039 
L 302.334249 120.180779 
L 303.866795 123.297662 
L 305.399341 128.284675 
L 306.931887 120.804156 
L 308.464433 120.804156 
L 309.996979 125.167792 
L 311.529525 130.154805 
L 313.062071 121.427532 
L 314.594617 128.908052 
L 316.127163 129.531429 
L 317.659709 125.791169 
L 319.192255 125.791169 
L 320.724801 121.427532 
L 322.257347 125.167792 
L 323.789893 130.778182 
L 325.322439 130.154805 
L 326.854985 130.154805 
L 328.387531 130.778182 
L 329.920077 129.531429 
L 331.452623 128.908052 
L 332.985169 129.531429 
L 336.050261 120.804156 
L 337.582807 128.284675 
L 339.115353 130.154805 
L 340.647899 130.778182 
L 342.180445 128.908052 
L 343.712991 130.778182 
L 345.245537 117.687273 
L 346.778083 130.778182 
L 348.310629 129.531429 
L 349.843175 130.154805 
L 352.908267 130.154805 
L 354.440813 118.934026 
L 355.973359 118.934026 
L 357.505905 128.908052 
L 359.038451 127.037922 
L 360.570997 115.817143 
L 362.103543 120.180779 
L 363.636089 130.154805 
L 365.168635 130.778182 
L 366.701181 127.661299 
L 368.233727 125.791169 
L 369.766273 129.531429 
L 371.298819 128.908052 
L 372.831365 130.154805 
L 374.363911 130.154805 
L 375.896457 130.778182 
L 377.429003 123.921039 
L 378.961549 125.167792 
L 380.494095 130.778182 
L 382.026641 130.154805 
L 383.559187 128.908052 
L 385.091733 127.037922 
L 386.624279 130.778182 
L 388.156825 128.908052 
L 389.689371 130.154805 
L 391.221917 130.778182 
L 392.754463 129.531429 
L 394.287009 129.531429 
L 395.819555 130.778182 
L 398.884647 130.778182 
L 400.417193 127.661299 
L 401.949739 130.778182 
L 403.482285 128.908052 
L 405.014831 125.791169 
L 406.547377 130.778182 
L 408.079923 130.778182 
L 409.612469 130.154805 
L 411.145015 128.908052 
L 415.742653 130.778182 
L 417.275199 130.778182 
L 418.807745 130.154805 
L 420.340291 126.414545 
L 421.872837 126.414545 
L 423.405383 127.661299 
L 424.937929 130.778182 
L 426.470475 121.427532 
L 428.003021 130.778182 
L 429.535567 130.778182 
L 431.068113 130.154805 
L 432.600659 126.414545 
L 434.133205 127.037922 
L 435.665751 125.791169 
L 437.198297 130.778182 
L 438.730843 130.778182 
L 440.263389 130.154805 
L 441.795935 123.297662 
L 443.328481 126.414545 
L 444.861027 130.154805 
L 446.393573 128.908052 
L 447.926119 130.778182 
L 449.458665 130.778182 
L 450.991211 130.154805 
L 452.523757 130.778182 
L 454.056303 130.778182 
L 455.588849 128.908052 
L 457.121395 130.154805 
L 458.653941 129.531429 
L 460.186487 130.778182 
L 464.784125 130.778182 
L 466.316671 128.284675 
L 467.849217 128.908052 
L 469.381763 130.154805 
L 470.914309 130.778182 
L 472.446855 130.778182 
L 473.979401 130.154805 
L 475.511947 127.661299 
L 477.044493 130.778182 
L 478.577039 130.778182 
L 480.109585 129.531429 
L 483.174677 130.778182 
L 486.239769 129.531429 
L 487.772315 130.778182 
L 489.304861 130.154805 
L 490.837407 130.778182 
L 492.369953 128.908052 
L 493.902499 130.154805 
L 495.435045 130.154805 
L 496.967591 129.531429 
L 498.500137 130.778182 
L 501.565229 130.778182 
L 504.630321 129.531429 
L 506.162867 127.037922 
L 507.695413 130.154805 
L 509.227959 130.778182 
L 510.760505 125.791169 
L 512.293051 124.544416 
L 513.825597 123.921039 
L 515.358143 130.778182 
L 518.423235 130.778182 
L 521.488327 129.531429 
L 523.020873 130.778182 
L 524.553419 125.791169 
L 526.085965 122.050909 
L 527.618511 130.154805 
L 529.151057 121.427532 
L 530.683603 123.921039 
L 532.216149 127.661299 
L 533.748695 130.778182 
L 539.878879 130.778182 
L 541.411425 130.154805 
L 542.943971 130.778182 
L 544.476517 130.778182 
L 546.009063 128.284675 
L 547.541609 129.531429 
L 549.074155 114.57039 
L 550.606701 119.557403 
L 552.139247 129.531429 
L 553.671793 130.154805 
L 555.204339 123.921039 
L 556.736885 114.57039 
L 558.269431 112.076883 
L 559.801977 112.076883 
L 561.334523 119.557403 
L 562.867069 119.557403 
L 564.399615 121.427532 
L 565.932161 124.544416 
L 567.464707 130.778182 
L 568.997254 126.414545 
L 570.5298 130.778182 
L 572.062346 130.778182 
L 573.594892 123.297662 
L 575.127438 123.297662 
L 576.659984 129.531429 
L 578.19253 122.674286 
L 579.725076 122.674286 
L 581.257622 128.284675 
L 582.790168 128.284675 
L 584.322714 126.414545 
L 585.85526 126.414545 
L 587.387806 130.154805 
L 588.920352 130.154805 
L 590.452898 130.778182 
L 591.985444 130.778182 
L 593.51799 128.284675 
L 595.050536 129.531429 
L 596.583082 121.427532 
L 598.115628 125.791169 
L 599.648174 126.414545 
L 601.18072 130.154805 
L 602.713266 130.778182 
L 604.245812 130.778182 
L 608.84345 128.908052 
L 610.375996 127.037922 
L 611.908542 127.037922 
L 613.441088 130.778182 
L 614.973634 130.778182 
L 616.50618 125.167792 
L 618.038726 123.921039 
L 619.571272 130.778182 
L 621.103818 129.531429 
L 622.636364 130.778182 
L 622.636364 130.778182 
" style="fill:none;stroke:#ff7f0e;stroke-linecap:square;stroke-width:1.5;"/>
   </g>
   <g id="patch_3">
    <path d="M 90 135.36 
L 90 34.56 
" style="fill:none;stroke:#000000;stroke-linecap:square;stroke-linejoin:miter;stroke-width:0.8;"/>
   </g>
   <g id="patch_4">
    <path d="M 648 135.36 
L 648 34.56 
" style="fill:none;stroke:#000000;stroke-linecap:square;stroke-linejoin:miter;stroke-width:0.8;"/>
   </g>
   <g id="patch_5">
    <path d="M 90 135.36 
L 648 135.36 
" style="fill:none;stroke:#000000;stroke-linecap:square;stroke-linejoin:miter;stroke-width:0.8;"/>
   </g>
   <g id="patch_6">
    <path d="M 90 34.56 
L 648 34.56 
" style="fill:none;stroke:#000000;stroke-linecap:square;stroke-linejoin:miter;stroke-width:0.8;"/>
   </g>
   <g id="legend_1">
    <g id="patch_7">
     <path d="M 499.1375 71.91625 
L 641 71.91625 
Q 643 71.91625 643 69.91625 
L 643 41.56 
Q 643 39.56 641 39.56 
L 499.1375 39.56 
Q 497.1375 39.56 497.1375 41.56 
L 497.1375 69.91625 
Q 497.1375 71.91625 499.1375 71.91625 
z
" style="fill:#ffffff;opacity:0.8;stroke:#cccccc;stroke-linejoin:miter;"/>
    </g>
    <g id="line2d_14">
     <path d="M 501.1375 47.658437 
L 521.1375 47.658437 
" style="fill:none;stroke:#1f77b4;stroke-linecap:square;stroke-width:1.5;"/>
    </g>
    <g id="line2d_15"/>
    <g id="text_13">
     <!-- Total GitHub Clones -->
     <g transform="translate(529.1375 51.158437)scale(0.1 -0.1)">
      <defs>
       <path d="M -19 4666 
L 3928 4666 
L 3928 4134 
L 2272 4134 
L 2272 0 
L 1638 0 
L 1638 4134 
L -19 4134 
L -19 4666 
z
" id="DejaVuSans-54" transform="scale(0.015625)"/>
       <path d="M 1959 3097 
Q 1497 3097 1228 2736 
Q 959 2375 959 1747 
Q 959 1119 1226 758 
Q 1494 397 1959 397 
Q 2419 397 2687 759 
Q 2956 1122 2956 1747 
Q 2956 2369 2687 2733 
Q 2419 3097 1959 3097 
z
M 1959 3584 
Q 2709 3584 3137 3096 
Q 3566 2609 3566 1747 
Q 3566 888 3137 398 
Q 2709 -91 1959 -91 
Q 1206 -91 779 398 
Q 353 888 353 1747 
Q 353 2609 779 3096 
Q 1206 3584 1959 3584 
z
" id="DejaVuSans-6f" transform="scale(0.015625)"/>
       <path d="M 603 4863 
L 1178 4863 
L 1178 0 
L 603 0 
L 603 4863 
z
" id="DejaVuSans-6c" transform="scale(0.015625)"/>
       <path id="DejaVuSans-20" transform="scale(0.015625)"/>
       <path d="M 3809 666 
L 3809 1919 
L 2778 1919 
L 2778 2438 
L 4434 2438 
L 4434 434 
Q 4069 175 3628 42 
Q 3188 -91 2688 -91 
Q 1594 -91 976 548 
Q 359 1188 359 2328 
Q 359 3472 976 4111 
Q 1594 4750 2688 4750 
Q 3144 4750 3555 4637 
Q 3966 4525 4313 4306 
L 4313 3634 
Q 3963 3931 3569 4081 
Q 3175 4231 2741 4231 
Q 1884 4231 1454 3753 
Q 1025 3275 1025 2328 
Q 1025 1384 1454 906 
Q 1884 428 2741 428 
Q 3075 428 3337 486 
Q 3600 544 3809 666 
z
" id="DejaVuSans-47" transform="scale(0.015625)"/>
       <path d="M 603 3500 
L 1178 3500 
L 1178 0 
L 603 0 
L 603 3500 
z
M 603 4863 
L 1178 4863 
L 1178 4134 
L 603 4134 
L 603 4863 
z
" id="DejaVuSans-69" transform="scale(0.015625)"/>
       <path d="M 628 4666 
L 1259 4666 
L 1259 2753 
L 3553 2753 
L 3553 4666 
L 4184 4666 
L 4184 0 
L 3553 0 
L 3553 2222 
L 1259 2222 
L 1259 0 
L 628 0 
L 628 4666 
z
" id="DejaVuSans-48" transform="scale(0.015625)"/>
       <path d="M 544 1381 
L 544 3500 
L 1119 3500 
L 1119 1403 
Q 1119 906 1312 657 
Q 1506 409 1894 409 
Q 2359 409 2629 706 
Q 2900 1003 2900 1516 
L 2900 3500 
L 3475 3500 
L 3475 0 
L 2900 0 
L 2900 538 
Q 2691 219 2414 64 
Q 2138 -91 1772 -91 
Q 1169 -91 856 284 
Q 544 659 544 1381 
z
M 1991 3584 
L 1991 3584 
z
" id="DejaVuSans-75" transform="scale(0.015625)"/>
       <path d="M 3116 1747 
Q 3116 2381 2855 2742 
Q 2594 3103 2138 3103 
Q 1681 3103 1420 2742 
Q 1159 2381 1159 1747 
Q 1159 1113 1420 752 
Q 1681 391 2138 391 
Q 2594 391 2855 752 
Q 3116 1113 3116 1747 
z
M 1159 2969 
Q 1341 3281 1617 3432 
Q 1894 3584 2278 3584 
Q 2916 3584 3314 3078 
Q 3713 2572 3713 1747 
Q 3713 922 3314 415 
Q 2916 -91 2278 -91 
Q 1894 -91 1617 61 
Q 1341 213 1159 525 
L 1159 0 
L 581 0 
L 581 4863 
L 1159 4863 
L 1159 2969 
z
" id="DejaVuSans-62" transform="scale(0.015625)"/>
       <path d="M 4122 4306 
L 4122 3641 
Q 3803 3938 3442 4084 
Q 3081 4231 2675 4231 
Q 1875 4231 1450 3742 
Q 1025 3253 1025 2328 
Q 1025 1406 1450 917 
Q 1875 428 2675 428 
Q 3081 428 3442 575 
Q 3803 722 4122 1019 
L 4122 359 
Q 3791 134 3420 21 
Q 3050 -91 2638 -91 
Q 1578 -91 968 557 
Q 359 1206 359 2328 
Q 359 3453 968 4101 
Q 1578 4750 2638 4750 
Q 3056 4750 3426 4639 
Q 3797 4528 4122 4306 
z
" id="DejaVuSans-43" transform="scale(0.015625)"/>
       <path d="M 3513 2113 
L 3513 0 
L 2938 0 
L 2938 2094 
Q 2938 2591 2744 2837 
Q 2550 3084 2163 3084 
Q 1697 3084 1428 2787 
Q 1159 2491 1159 1978 
L 1159 0 
L 581 0 
L 581 3500 
L 1159 3500 
L 1159 2956 
Q 1366 3272 1645 3428 
Q 1925 3584 2291 3584 
Q 2894 3584 3203 3211 
Q 3513 2838 3513 2113 
z
" id="DejaVuSans-6e" transform="scale(0.015625)"/>
       <path d="M 2834 3397 
L 2834 2853 
Q 2591 2978 2328 3040 
Q 2066 3103 1784 3103 
Q 1356 3103 1142 2972 
Q 928 2841 928 2578 
Q 928 2378 1081 2264 
Q 1234 2150 1697 2047 
L 1894 2003 
Q 2506 1872 2764 1633 
Q 3022 1394 3022 966 
Q 3022 478 2636 193 
Q 2250 -91 1575 -91 
Q 1294 -91 989 -36 
Q 684 19 347 128 
L 347 722 
Q 666 556 975 473 
Q 1284 391 1588 391 
Q 1994 391 2212 530 
Q 2431 669 2431 922 
Q 2431 1156 2273 1281 
Q 2116 1406 1581 1522 
L 1381 1569 
Q 847 1681 609 1914 
Q 372 2147 372 2553 
Q 372 3047 722 3315 
Q 1072 3584 1716 3584 
Q 2034 3584 2315 3537 
Q 2597 3491 2834 3397 
z
" id="DejaVuSans-73" transform="scale(0.015625)"/>
      </defs>
      <use xlink:href="#DejaVuSans-54"/>
      <use x="44.083984" xlink:href="#DejaVuSans-6f"/>
      <use x="105.265625" xlink:href="#DejaVuSans-74"/>
      <use x="144.474609" xlink:href="#DejaVuSans-61"/>
      <use x="205.753906" xlink:href="#DejaVuSans-6c"/>
      <use x="233.537109" xlink:href="#DejaVuSans-20"/>
      <use x="265.324219" xlink:href="#DejaVuSans-47"/>
      <use x="342.814453" xlink:href="#DejaVuSans-69"/>
      <use x="370.597656" xlink:href="#DejaVuSans-74"/>
      <use x="409.806641" xlink:href="#DejaVuSans-48"/>
      <use x="485.001953" xlink:href="#DejaVuSans-75"/>
      <use x="548.380859" xlink:href="#DejaVuSans-62"/>
      <use x="611.857422" xlink:href="#DejaVuSans-20"/>
      <use x="643.644531" xlink:href="#DejaVuSans-43"/>
      <use x="713.46875" xlink:href="#DejaVuSans-6c"/>
      <use x="741.251953" xlink:href="#DejaVuSans-6f"/>
      <use x="802.433594" xlink:href="#DejaVuSans-6e"/>
      <use x="865.8125" xlink:href="#DejaVuSans-65"/>
      <use x="927.335938" xlink:href="#DejaVuSans-73"/>
     </g>
    </g>
    <g id="line2d_16">
     <path d="M 501.1375 62.336562 
L 521.1375 62.336562 
" style="fill:none;stroke:#ff7f0e;stroke-linecap:square;stroke-width:1.5;"/>
    </g>
    <g id="line2d_17"/>
    <g id="text_14">
     <!-- Unique GitHub Clones -->
     <g transform="translate(529.1375 65.836562)scale(0.1 -0.1)">
      <defs>
       <path d="M 556 4666 
L 1191 4666 
L 1191 1831 
Q 1191 1081 1462 751 
Q 1734 422 2344 422 
Q 2950 422 3222 751 
Q 3494 1081 3494 1831 
L 3494 4666 
L 4128 4666 
L 4128 1753 
Q 4128 841 3676 375 
Q 3225 -91 2344 -91 
Q 1459 -91 1007 375 
Q 556 841 556 1753 
L 556 4666 
z
" id="DejaVuSans-55" transform="scale(0.015625)"/>
       <path d="M 947 1747 
Q 947 1113 1208 752 
Q 1469 391 1925 391 
Q 2381 391 2643 752 
Q 2906 1113 2906 1747 
Q 2906 2381 2643 2742 
Q 2381 3103 1925 3103 
Q 1469 3103 1208 2742 
Q 947 2381 947 1747 
z
M 2906 525 
Q 2725 213 2448 61 
Q 2172 -91 1784 -91 
Q 1150 -91 751 415 
Q 353 922 353 1747 
Q 353 2572 751 3078 
Q 1150 3584 1784 3584 
Q 2172 3584 2448 3432 
Q 2725 3281 2906 2969 
L 2906 3500 
L 3481 3500 
L 3481 -1331 
L 2906 -1331 
L 2906 525 
z
" id="DejaVuSans-71" transform="scale(0.015625)"/>
      </defs>
      <use xlink:href="#DejaVuSans-55"/>
      <use x="73.193359" xlink:href="#DejaVuSans-6e"/>
      <use x="136.572266" xlink:href="#DejaVuSans-69"/>
      <use x="164.355469" xlink:href="#DejaVuSans-71"/>
      <use x="227.832031" xlink:href="#DejaVuSans-75"/>
      <use x="291.210938" xlink:href="#DejaVuSans-65"/>
      <use x="352.734375" xlink:href="#DejaVuSans-20"/>
      <use x="384.521484" xlink:href="#DejaVuSans-47"/>
      <use x="462.011719" xlink:href="#DejaVuSans-69"/>
      <use x="489.794922" xlink:href="#DejaVuSans-74"/>
      <use x="529.003906" xlink:href="#DejaVuSans-48"/>
      <use x="604.199219" xlink:href="#DejaVuSans-75"/>
      <use x="667.578125" xlink:href="#DejaVuSans-62"/>
      <use x="731.054688" xlink:href="#DejaVuSans-20"/>
      <use x="762.841797" xlink:href="#DejaVuSans-43"/>
      <use x="832.666016" xlink:href="#DejaVuSans-6c"/>
      <use x="860.449219" xlink:href="#DejaVuSans-6f"/>
      <use x="921.630859" xlink:href="#DejaVuSans-6e"/>
      <use x="985.009766" xlink:href="#DejaVuSans-65"/>
      <use x="1046.533203" xlink:href="#DejaVuSans-73"/>
     </g>
    </g>
   </g>
  </g>
  <g id="axes_2">
   <g id="patch_8">
    <path d="M 90 256.32 
L 648 256.32 
L 648 155.52 
L 90 155.52 
z
" style="fill:#ffffff;"/>
   </g>
   <g id="matplotlib.axis_3">
    <g id="xtick_8">
     <g id="line2d_18">
      <g>
       <use style="stroke:#000000;stroke-width:0.8;" x="115.363636" xlink:href="#mdc89acb515" y="256.32"/>
      </g>
     </g>
     <g id="text_15">
      <!-- 2020-10-21 -->
      <g transform="translate(86.305824 270.918437)scale(0.1 -0.1)">
       <use xlink:href="#DejaVuSans-32"/>
       <use x="63.623047" xlink:href="#DejaVuSans-30"/>
       <use x="127.246094" xlink:href="#DejaVuSans-32"/>
       <use x="190.869141" xlink:href="#DejaVuSans-30"/>
       <use x="254.492188" xlink:href="#DejaVuSans-2d"/>
       <use x="290.576172" xlink:href="#DejaVuSans-31"/>
       <use x="354.199219" xlink:href="#DejaVuSans-30"/>
       <use x="417.822266" xlink:href="#DejaVuSans-2d"/>
       <use x="453.90625" xlink:href="#DejaVuSans-32"/>
       <use x="517.529297" xlink:href="#DejaVuSans-31"/>
      </g>
     </g>
    </g>
    <g id="xtick_9">
     <g id="line2d_19">
      <g>
       <use style="stroke:#000000;stroke-width:0.8;" x="179.091366" xlink:href="#mdc89acb515" y="256.32"/>
      </g>
     </g>
     <g id="text_16">
      <!-- 2020-12-11 -->
      <g transform="translate(150.033553 270.918437)scale(0.1 -0.1)">
       <use xlink:href="#DejaVuSans-32"/>
       <use x="63.623047" xlink:href="#DejaVuSans-30"/>
       <use x="127.246094" xlink:href="#DejaVuSans-32"/>
       <use x="190.869141" xlink:href="#DejaVuSans-30"/>
       <use x="254.492188" xlink:href="#DejaVuSans-2d"/>
       <use x="290.576172" xlink:href="#DejaVuSans-31"/>
       <use x="354.199219" xlink:href="#DejaVuSans-32"/>
       <use x="417.822266" xlink:href="#DejaVuSans-2d"/>
       <use x="453.90625" xlink:href="#DejaVuSans-31"/>
       <use x="517.529297" xlink:href="#DejaVuSans-31"/>
      </g>
     </g>
    </g>
    <g id="xtick_10">
     <g id="line2d_20">
      <g>
       <use style="stroke:#000000;stroke-width:0.8;" x="242.819095" xlink:href="#mdc89acb515" y="256.32"/>
      </g>
     </g>
     <g id="text_17">
      <!-- 2021-01-31 -->
      <g transform="translate(213.761283 270.918437)scale(0.1 -0.1)">
       <use xlink:href="#DejaVuSans-32"/>
       <use x="63.623047" xlink:href="#DejaVuSans-30"/>
       <use x="127.246094" xlink:href="#DejaVuSans-32"/>
       <use x="190.869141" xlink:href="#DejaVuSans-31"/>
       <use x="254.492188" xlink:href="#DejaVuSans-2d"/>
       <use x="290.576172" xlink:href="#DejaVuSans-30"/>
       <use x="354.199219" xlink:href="#DejaVuSans-31"/>
       <use x="417.822266" xlink:href="#DejaVuSans-2d"/>
       <use x="453.90625" xlink:href="#DejaVuSans-33"/>
       <use x="517.529297" xlink:href="#DejaVuSans-31"/>
      </g>
     </g>
    </g>
    <g id="xtick_11">
     <g id="line2d_21">
      <g>
       <use style="stroke:#000000;stroke-width:0.8;" x="306.546825" xlink:href="#mdc89acb515" y="256.32"/>
      </g>
     </g>
     <g id="text_18">
      <!-- 2021-03-22 -->
      <g transform="translate(277.489013 270.918437)scale(0.1 -0.1)">
       <use xlink:href="#DejaVuSans-32"/>
       <use x="63.623047" xlink:href="#DejaVuSans-30"/>
       <use x="127.246094" xlink:href="#DejaVuSans-32"/>
       <use x="190.869141" xlink:href="#DejaVuSans-31"/>
       <use x="254.492188" xlink:href="#DejaVuSans-2d"/>
       <use x="290.576172" xlink:href="#DejaVuSans-30"/>
       <use x="354.199219" xlink:href="#DejaVuSans-33"/>
       <use x="417.822266" xlink:href="#DejaVuSans-2d"/>
       <use x="453.90625" xlink:href="#DejaVuSans-32"/>
       <use x="517.529297" xlink:href="#DejaVuSans-32"/>
      </g>
     </g>
    </g>
    <g id="xtick_12">
     <g id="line2d_22">
      <g>
       <use style="stroke:#000000;stroke-width:0.8;" x="370.274555" xlink:href="#mdc89acb515" y="256.32"/>
      </g>
     </g>
     <g id="text_19">
      <!-- 2021-05-10 -->
      <g transform="translate(341.216742 270.918437)scale(0.1 -0.1)">
       <use xlink:href="#DejaVuSans-32"/>
       <use x="63.623047" xlink:href="#DejaVuSans-30"/>
       <use x="127.246094" xlink:href="#DejaVuSans-32"/>
       <use x="190.869141" xlink:href="#DejaVuSans-31"/>
       <use x="254.492188" xlink:href="#DejaVuSans-2d"/>
       <use x="290.576172" xlink:href="#DejaVuSans-30"/>
       <use x="354.199219" xlink:href="#DejaVuSans-35"/>
       <use x="417.822266" xlink:href="#DejaVuSans-2d"/>
       <use x="453.90625" xlink:href="#DejaVuSans-31"/>
       <use x="517.529297" xlink:href="#DejaVuSans-30"/>
      </g>
     </g>
    </g>
    <g id="xtick_13">
     <g id="line2d_23">
      <g>
       <use style="stroke:#000000;stroke-width:0.8;" x="434.002284" xlink:href="#mdc89acb515" y="256.32"/>
      </g>
     </g>
     <g id="text_20">
      <!-- 2021-06-29 -->
      <g transform="translate(404.944472 270.918437)scale(0.1 -0.1)">
       <use xlink:href="#DejaVuSans-32"/>
       <use x="63.623047" xlink:href="#DejaVuSans-30"/>
       <use x="127.246094" xlink:href="#DejaVuSans-32"/>
       <use x="190.869141" xlink:href="#DejaVuSans-31"/>
       <use x="254.492188" xlink:href="#DejaVuSans-2d"/>
       <use x="290.576172" xlink:href="#DejaVuSans-30"/>
       <use x="354.199219" xlink:href="#DejaVuSans-36"/>
       <use x="417.822266" xlink:href="#DejaVuSans-2d"/>
       <use x="453.90625" xlink:href="#DejaVuSans-32"/>
       <use x="517.529297" xlink:href="#DejaVuSans-39"/>
      </g>
     </g>
    </g>
    <g id="xtick_14">
     <g id="line2d_24">
      <g>
       <use style="stroke:#000000;stroke-width:0.8;" x="497.730014" xlink:href="#mdc89acb515" y="256.32"/>
      </g>
     </g>
     <g id="text_21">
      <!-- 2021-08-17 -->
      <g transform="translate(468.672201 270.918437)scale(0.1 -0.1)">
       <use xlink:href="#DejaVuSans-32"/>
       <use x="63.623047" xlink:href="#DejaVuSans-30"/>
       <use x="127.246094" xlink:href="#DejaVuSans-32"/>
       <use x="190.869141" xlink:href="#DejaVuSans-31"/>
       <use x="254.492188" xlink:href="#DejaVuSans-2d"/>
       <use x="290.576172" xlink:href="#DejaVuSans-30"/>
       <use x="354.199219" xlink:href="#DejaVuSans-38"/>
       <use x="417.822266" xlink:href="#DejaVuSans-2d"/>
       <use x="453.90625" xlink:href="#DejaVuSans-31"/>
       <use x="517.529297" xlink:href="#DejaVuSans-37"/>
      </g>
     </g>
    </g>
    <g id="xtick_15">
     <g id="line2d_25">
      <g>
       <use style="stroke:#000000;stroke-width:0.8;" x="561.457743" xlink:href="#mdc89acb515" y="256.32"/>
      </g>
     </g>
     <g id="text_22">
      <!-- 2021-10-04 -->
      <g transform="translate(532.399931 270.918437)scale(0.1 -0.1)">
       <use xlink:href="#DejaVuSans-32"/>
       <use x="63.623047" xlink:href="#DejaVuSans-30"/>
       <use x="127.246094" xlink:href="#DejaVuSans-32"/>
       <use x="190.869141" xlink:href="#DejaVuSans-31"/>
       <use x="254.492188" xlink:href="#DejaVuSans-2d"/>
       <use x="290.576172" xlink:href="#DejaVuSans-31"/>
       <use x="354.199219" xlink:href="#DejaVuSans-30"/>
       <use x="417.822266" xlink:href="#DejaVuSans-2d"/>
       <use x="453.90625" xlink:href="#DejaVuSans-30"/>
       <use x="517.529297" xlink:href="#DejaVuSans-34"/>
      </g>
     </g>
    </g>
    <g id="xtick_16">
     <g id="line2d_26">
      <g>
       <use style="stroke:#000000;stroke-width:0.8;" x="625.185473" xlink:href="#mdc89acb515" y="256.32"/>
      </g>
     </g>
    </g>
    <g id="text_23">
     <!-- _date -->
     <g transform="translate(355.225 284.596563)scale(0.1 -0.1)">
      <use xlink:href="#DejaVuSans-5f"/>
      <use x="50" xlink:href="#DejaVuSans-64"/>
      <use x="113.476562" xlink:href="#DejaVuSans-61"/>
      <use x="174.755859" xlink:href="#DejaVuSans-74"/>
      <use x="213.964844" xlink:href="#DejaVuSans-65"/>
     </g>
    </g>
   </g>
   <g id="matplotlib.axis_4">
    <g id="ytick_5">
     <g id="line2d_27">
      <g>
       <use style="stroke:#000000;stroke-width:0.8;" x="90" xlink:href="#m9750e9197f" y="252.02101"/>
      </g>
     </g>
     <g id="text_24">
      <!-- 0 -->
      <g transform="translate(76.6375 255.820229)scale(0.1 -0.1)">
       <use xlink:href="#DejaVuSans-30"/>
      </g>
     </g>
    </g>
    <g id="ytick_6">
     <g id="line2d_28">
      <g>
       <use style="stroke:#000000;stroke-width:0.8;" x="90" xlink:href="#m9750e9197f" y="223.738182"/>
      </g>
     </g>
     <g id="text_25">
      <!-- 100 -->
      <g transform="translate(63.9125 227.537401)scale(0.1 -0.1)">
       <use xlink:href="#DejaVuSans-31"/>
       <use x="63.623047" xlink:href="#DejaVuSans-30"/>
       <use x="127.246094" xlink:href="#DejaVuSans-30"/>
      </g>
     </g>
    </g>
    <g id="ytick_7">
     <g id="line2d_29">
      <g>
       <use style="stroke:#000000;stroke-width:0.8;" x="90" xlink:href="#m9750e9197f" y="195.455354"/>
      </g>
     </g>
     <g id="text_26">
      <!-- 200 -->
      <g transform="translate(63.9125 199.254572)scale(0.1 -0.1)">
       <use xlink:href="#DejaVuSans-32"/>
       <use x="63.623047" xlink:href="#DejaVuSans-30"/>
       <use x="127.246094" xlink:href="#DejaVuSans-30"/>
      </g>
     </g>
    </g>
    <g id="ytick_8">
     <g id="line2d_30">
      <g>
       <use style="stroke:#000000;stroke-width:0.8;" x="90" xlink:href="#m9750e9197f" y="167.172525"/>
      </g>
     </g>
     <g id="text_27">
      <!-- 300 -->
      <g transform="translate(63.9125 170.971744)scale(0.1 -0.1)">
       <use xlink:href="#DejaVuSans-33"/>
       <use x="63.623047" xlink:href="#DejaVuSans-30"/>
       <use x="127.246094" xlink:href="#DejaVuSans-30"/>
      </g>
     </g>
    </g>
   </g>
   <g id="line2d_31">
    <path clip-path="url(#p911745b7f2)" d="M 115.363636 251.738182 
L 116.638191 230.808889 
L 117.912746 228.263434 
L 119.1873 244.384646 
L 120.461855 251.455354 
L 121.736409 238.728081 
L 123.010964 238.445253 
L 124.285519 234.485657 
L 125.560073 238.445253 
L 126.834628 239.293737 
L 128.109182 250.606869 
L 129.383737 248.344242 
L 130.658291 247.495758 
L 131.932846 239.293737 
L 133.207401 211.576566 
L 134.481955 226.000808 
L 135.75651 243.81899 
L 137.031064 247.212929 
L 138.305619 251.172525 
L 139.580174 238.445253 
L 140.854728 224.303838 
L 142.129283 245.798788 
L 143.403837 243.253333 
L 144.678392 236.748283 
L 145.952947 236.748283 
L 147.227501 249.758384 
L 148.502056 237.031111 
L 149.77661 233.354343 
L 151.051165 243.536162 
L 152.32572 243.536162 
L 153.600274 238.728081 
L 154.874829 246.930101 
L 156.149383 249.192727 
L 157.423938 226.283636 
L 158.698492 248.909899 
L 159.973047 248.061414 
L 161.247602 249.758384 
L 162.522156 247.778586 
L 163.796711 251.455354 
L 165.071265 251.455354 
L 166.34582 227.980606 
L 167.620375 215.253333 
L 168.894929 243.81899 
L 170.169484 245.233131 
L 171.444038 226.566465 
L 172.718593 250.889697 
L 173.993148 244.950303 
L 175.267702 241.556364 
L 176.542257 246.081616 
L 177.816811 236.182626 
L 179.091366 246.930101 
L 180.365921 250.889697 
L 181.640475 251.738182 
L 182.91503 243.81899 
L 184.189584 242.12202 
L 185.464139 242.404848 
L 186.738693 240.990707 
L 188.013248 248.909899 
L 189.287803 250.889697 
L 190.562357 250.606869 
L 191.836912 247.212929 
L 193.111466 247.778586 
L 194.386021 242.687677 
L 195.660576 250.041212 
L 196.93513 251.172525 
L 198.209685 251.455354 
L 199.484239 248.344242 
L 200.758794 249.475556 
L 202.033349 250.32404 
L 203.307903 251.738182 
L 204.582458 247.212929 
L 205.857012 247.495758 
L 207.131567 250.889697 
L 208.406122 246.364444 
L 209.680676 242.687677 
L 210.955231 240.142222 
L 212.229785 247.778586 
L 213.50434 248.909899 
L 214.778894 232.505859 
L 216.053449 250.32404 
L 217.328004 234.202828 
L 218.602558 235.899798 
L 219.877113 240.142222 
L 221.151667 233.637172 
L 222.426222 246.930101 
L 223.700777 235.051313 
L 224.975331 251.172525 
L 226.249886 233.92 
L 227.52444 235.334141 
L 228.798995 226.849293 
L 230.07355 232.788687 
L 231.348104 240.142222 
L 232.622659 242.970505 
L 233.897213 248.344242 
L 235.171768 229.111919 
L 236.446323 224.586667 
L 237.720877 236.465455 
L 238.995432 235.051313 
L 240.269986 232.505859 
L 241.544541 247.495758 
L 242.819095 248.627071 
L 244.09365 230.243232 
L 245.368205 246.930101 
L 247.917314 233.354343 
L 250.466423 250.889697 
L 251.740978 247.778586 
L 253.015532 235.61697 
L 254.290087 235.051313 
L 255.564641 225.435152 
L 256.839196 242.12202 
L 258.113751 250.32404 
L 259.388305 250.606869 
L 260.66286 249.192727 
L 261.937414 242.687677 
L 263.211969 242.970505 
L 264.486524 246.930101 
L 265.761078 231.091717 
L 267.035633 248.344242 
L 268.310187 242.12202 
L 269.584742 239.293737 
L 270.859296 240.990707 
L 272.133851 225.71798 
L 273.408406 235.899798 
L 274.68296 235.051313 
L 275.957515 240.142222 
L 277.232069 238.445253 
L 278.506624 239.576566 
L 279.781179 183.859394 
L 281.055733 245.798788 
L 282.330288 231.091717 
L 283.604842 234.768485 
L 284.879397 227.132121 
L 286.153952 241.839192 
L 287.428506 200.263434 
L 288.703061 198.566465 
L 289.977615 204.505859 
L 291.25217 229.394747 
L 292.526725 174.243232 
L 293.801279 223.738182 
L 295.075834 246.081616 
L 296.350388 245.233131 
L 297.624943 237.596768 
L 298.899497 231.374545 
L 300.174052 227.980606 
L 301.448607 234.768485 
L 302.723161 224.02101 
L 303.997716 243.81899 
L 305.27227 245.798788 
L 306.546825 205.637172 
L 307.82138 232.788687 
L 309.095934 234.485657 
L 310.370489 246.364444 
L 311.645043 248.627071 
L 312.919598 248.061414 
L 314.194153 233.071515 
L 315.468707 184.425051 
L 316.743262 229.960404 
L 318.017816 234.485657 
L 319.292371 214.404848 
L 320.566926 244.384646 
L 321.84148 248.344242 
L 323.116035 244.950303 
L 324.390589 222.041212 
L 325.665144 238.728081 
L 326.939698 223.455354 
L 328.214253 200.546263 
L 329.488808 233.92 
L 330.763362 241.273535 
L 332.037917 246.081616 
L 333.312471 176.505859 
L 334.587026 177.354343 
L 335.861581 227.697778 
L 337.136135 243.536162 
L 338.41069 235.334141 
L 339.685244 236.748283 
L 340.959799 248.909899 
L 342.234354 246.930101 
L 343.508908 187.81899 
L 344.783463 181.031111 
L 346.058017 198.566465 
L 347.332572 242.970505 
L 348.607127 249.192727 
L 349.881681 236.748283 
L 351.156236 247.495758 
L 353.705345 224.586667 
L 354.979899 162.647273 
L 356.254454 222.32404 
L 357.529009 221.475556 
L 358.803563 226.283636 
L 360.078118 245.51596 
L 361.352672 246.364444 
L 362.627227 220.344242 
L 363.901782 236.182626 
L 365.176336 235.899798 
L 366.450891 226.566465 
L 367.725445 243.253333 
L 369 249.192727 
L 370.274555 198.283636 
L 371.549109 237.313939 
L 372.823664 212.990707 
L 374.098218 206.768485 
L 375.372773 213.556364 
L 376.647328 249.758384 
L 377.921882 249.758384 
L 379.196437 222.606869 
L 380.470991 233.071515 
L 381.745546 232.505859 
L 383.020101 239.010909 
L 384.294655 242.687677 
L 385.56921 248.344242 
L 386.843764 246.081616 
L 388.118319 226.000808 
L 389.392873 244.101818 
L 390.667428 240.425051 
L 391.941983 232.22303 
L 393.216537 238.728081 
L 394.491092 249.758384 
L 395.765646 249.758384 
L 397.040201 242.970505 
L 398.314756 240.142222 
L 399.58931 246.364444 
L 400.863865 241.273535 
L 402.138419 243.536162 
L 403.412974 249.192727 
L 404.687529 247.495758 
L 405.962083 231.091717 
L 407.236638 236.465455 
L 408.511192 168.303838 
L 409.785747 213.839192 
L 411.060302 244.101818 
L 412.334856 242.12202 
L 413.609411 250.041212 
L 414.883965 232.22303 
L 416.15852 234.202828 
L 417.433074 241.839192 
L 418.707629 240.990707 
L 419.982184 235.61697 
L 421.256738 249.758384 
L 422.531293 250.32404 
L 423.805847 193.192727 
L 425.080402 239.293737 
L 426.354957 244.950303 
L 427.629511 247.212929 
L 428.904066 201.677576 
L 430.17862 247.212929 
L 431.453175 248.061414 
L 434.002284 241.839192 
L 435.276839 242.12202 
L 436.551393 224.02101 
L 437.825948 244.384646 
L 439.100503 249.758384 
L 440.375057 243.536162 
L 441.649612 245.233131 
L 442.924166 180.182626 
L 444.198721 197.435152 
L 445.473275 240.425051 
L 446.74783 242.404848 
L 448.022385 244.667475 
L 449.296939 244.101818 
L 450.571494 231.657374 
L 451.846048 242.12202 
L 453.120603 243.253333 
L 454.395158 222.32404 
L 455.669712 239.293737 
L 456.944267 250.32404 
L 458.218821 251.738182 
L 459.493376 244.667475 
L 460.767931 245.233131 
L 462.042485 246.647273 
L 463.31704 243.536162 
L 464.591594 246.081616 
L 465.866149 249.475556 
L 467.140704 251.172525 
L 468.415258 243.536162 
L 469.689813 243.253333 
L 470.964367 230.808889 
L 472.238922 229.111919 
L 473.513476 250.606869 
L 474.788031 246.081616 
L 476.062586 251.738182 
L 477.33714 239.010909 
L 478.611695 240.142222 
L 479.886249 242.687677 
L 481.160804 239.859394 
L 482.435359 248.344242 
L 483.709913 245.51596 
L 484.984468 250.32404 
L 486.259022 250.041212 
L 487.533577 236.748283 
L 488.808132 238.728081 
L 490.082686 243.81899 
L 491.357241 240.707879 
L 492.631795 231.374545 
L 493.90635 241.839192 
L 495.180905 248.344242 
L 496.455459 232.505859 
L 497.730014 250.32404 
L 499.004568 245.798788 
L 500.279123 244.101818 
L 501.553677 251.172525 
L 502.828232 250.889697 
L 504.102787 244.667475 
L 505.377341 245.233131 
L 506.651896 232.22303 
L 507.92645 230.526061 
L 509.201005 248.909899 
L 510.47556 249.758384 
L 511.750114 250.32404 
L 513.024669 242.12202 
L 514.299223 242.404848 
L 515.573778 226.849293 
L 516.848333 235.61697 
L 518.122887 235.334141 
L 519.397442 244.950303 
L 520.671996 249.758384 
L 521.946551 245.51596 
L 523.221106 246.364444 
L 524.49566 249.758384 
L 525.770215 236.465455 
L 527.044769 251.172525 
L 528.319324 247.495758 
L 529.593878 242.12202 
L 530.868433 224.586667 
L 532.142988 250.889697 
L 533.417542 248.061414 
L 534.692097 232.788687 
L 535.966651 214.970505 
L 537.241206 235.899798 
L 538.515761 248.061414 
L 539.790315 247.495758 
L 541.06487 250.32404 
L 542.339424 246.364444 
L 543.613979 231.091717 
L 544.888534 229.394747 
L 546.163088 236.465455 
L 547.437643 219.778586 
L 548.712197 232.788687 
L 549.986752 248.344242 
L 551.261307 251.455354 
L 552.535861 248.344242 
L 553.810416 249.758384 
L 555.08497 239.293737 
L 556.359525 186.12202 
L 557.634079 228.263434 
L 558.908634 242.12202 
L 560.183189 240.425051 
L 561.457743 229.677576 
L 562.732298 229.677576 
L 564.006852 219.212929 
L 565.281407 195.455354 
L 566.555962 215.536162 
L 567.830516 246.081616 
L 569.105071 250.606869 
L 570.379625 223.172525 
L 571.65418 226.849293 
L 572.928735 210.445253 
L 574.203289 239.576566 
L 575.477844 235.334141 
L 576.752398 245.798788 
L 578.026953 248.061414 
L 579.301508 213.556364 
L 580.576062 237.879596 
L 581.850617 249.475556 
L 583.125171 222.041212 
L 584.399726 250.32404 
L 585.67428 160.101818 
L 586.948835 240.707879 
L 588.22339 239.859394 
L 589.497944 248.627071 
L 590.772499 250.32404 
L 592.047053 235.051313 
L 593.321608 226.566465 
L 594.596163 227.697778 
L 595.870717 227.697778 
L 597.145272 242.404848 
L 598.419826 232.22303 
L 599.694381 231.374545 
L 600.968936 238.162424 
L 602.24349 246.647273 
L 603.518045 245.51596 
L 604.792599 237.031111 
L 606.067154 235.051313 
L 607.341709 248.909899 
L 608.616263 242.970505 
L 609.890818 228.263434 
L 612.439927 250.889697 
L 613.714481 250.041212 
L 614.989036 244.667475 
L 616.263591 230.526061 
L 617.538145 240.142222 
L 618.8127 246.930101 
L 620.087254 247.778586 
L 621.361809 247.778586 
L 622.636364 248.627071 
L 622.636364 248.627071 
" style="fill:none;stroke:#1f77b4;stroke-linecap:square;stroke-width:1.5;"/>
   </g>
   <g id="line2d_32">
    <path clip-path="url(#p911745b7f2)" d="M 115.363636 251.738182 
L 116.638191 249.475556 
L 117.912746 248.344242 
L 119.1873 249.475556 
L 120.461855 251.738182 
L 121.736409 250.041212 
L 123.010964 249.192727 
L 124.285519 249.192727 
L 125.560073 248.909899 
L 126.834628 249.475556 
L 128.109182 251.455354 
L 133.207401 249.192727 
L 134.481955 248.909899 
L 135.75651 250.041212 
L 138.305619 251.738182 
L 139.580174 248.909899 
L 140.854728 249.475556 
L 142.129283 250.606869 
L 143.403837 250.889697 
L 144.678392 250.606869 
L 145.952947 251.455354 
L 147.227501 251.172525 
L 148.502056 250.041212 
L 149.77661 251.172525 
L 151.051165 248.909899 
L 152.32572 249.758384 
L 153.600274 250.32404 
L 154.874829 251.172525 
L 156.149383 251.172525 
L 157.423938 247.495758 
L 158.698492 251.455354 
L 159.973047 251.455354 
L 161.247602 251.172525 
L 163.796711 251.738182 
L 165.071265 251.455354 
L 166.34582 249.475556 
L 167.620375 246.930101 
L 168.894929 248.627071 
L 170.169484 250.041212 
L 171.444038 250.041212 
L 172.718593 251.455354 
L 173.993148 250.32404 
L 175.267702 250.041212 
L 176.542257 250.889697 
L 177.816811 247.778586 
L 179.091366 249.475556 
L 180.365921 251.455354 
L 181.640475 251.738182 
L 182.91503 249.192727 
L 185.464139 249.192727 
L 186.738693 250.041212 
L 188.013248 250.32404 
L 189.287803 251.172525 
L 190.562357 251.455354 
L 191.836912 250.889697 
L 193.111466 250.606869 
L 194.386021 251.172525 
L 196.93513 251.172525 
L 198.209685 251.455354 
L 199.484239 250.889697 
L 202.033349 250.889697 
L 203.307903 251.738182 
L 204.582458 251.172525 
L 205.857012 251.172525 
L 207.131567 250.889697 
L 208.406122 249.758384 
L 209.680676 248.061414 
L 210.955231 250.041212 
L 212.229785 251.172525 
L 213.50434 250.889697 
L 214.778894 250.889697 
L 216.053449 251.172525 
L 217.328004 249.475556 
L 218.602558 248.627071 
L 219.877113 249.758384 
L 221.151667 246.930101 
L 222.426222 249.758384 
L 223.700777 250.32404 
L 224.975331 251.172525 
L 226.249886 250.606869 
L 227.52444 250.606869 
L 228.798995 248.344242 
L 230.07355 249.475556 
L 231.348104 249.192727 
L 232.622659 249.192727 
L 233.897213 250.32404 
L 235.171768 246.081616 
L 236.446323 247.778586 
L 237.720877 249.192727 
L 238.995432 247.495758 
L 240.269986 246.364444 
L 241.544541 250.889697 
L 242.819095 250.606869 
L 244.09365 248.627071 
L 245.368205 250.041212 
L 246.642759 248.061414 
L 247.917314 249.475556 
L 249.191868 249.475556 
L 250.466423 250.889697 
L 251.740978 251.172525 
L 253.015532 248.909899 
L 254.290087 248.061414 
L 255.564641 248.344242 
L 256.839196 250.889697 
L 258.113751 251.455354 
L 260.66286 250.889697 
L 261.937414 250.889697 
L 263.211969 249.475556 
L 264.486524 250.32404 
L 265.761078 248.909899 
L 267.035633 250.889697 
L 268.310187 250.32404 
L 269.584742 250.889697 
L 270.859296 249.192727 
L 272.133851 248.909899 
L 273.408406 248.909899 
L 274.68296 248.061414 
L 275.957515 250.32404 
L 277.232069 250.889697 
L 278.506624 250.889697 
L 279.781179 242.404848 
L 281.055733 248.909899 
L 282.330288 248.909899 
L 283.604842 247.495758 
L 284.879397 249.192727 
L 286.153952 250.606869 
L 287.428506 250.606869 
L 288.703061 246.364444 
L 289.977615 246.647273 
L 291.25217 248.344242 
L 292.526725 246.647273 
L 293.801279 247.495758 
L 295.075834 250.041212 
L 296.350388 250.889697 
L 297.624943 247.495758 
L 298.899497 246.081616 
L 300.174052 247.212929 
L 301.448607 247.495758 
L 302.723161 249.475556 
L 303.997716 251.172525 
L 305.27227 250.041212 
L 306.546825 247.778586 
L 307.82138 247.778586 
L 309.095934 248.627071 
L 310.370489 250.606869 
L 312.919598 251.172525 
L 314.194153 250.041212 
L 315.468707 246.364444 
L 316.743262 247.212929 
L 318.017816 248.627071 
L 319.292371 246.930101 
L 320.566926 249.758384 
L 321.84148 251.172525 
L 324.390589 249.475556 
L 325.665144 248.344242 
L 326.939698 248.627071 
L 328.214253 247.495758 
L 329.488808 249.192727 
L 330.763362 249.475556 
L 332.037917 250.889697 
L 333.312471 245.51596 
L 334.587026 245.798788 
L 335.861581 248.061414 
L 337.136135 248.909899 
L 338.41069 249.192727 
L 339.685244 249.192727 
L 340.959799 250.889697 
L 342.234354 250.32404 
L 343.508908 245.798788 
L 344.783463 244.384646 
L 346.058017 246.930101 
L 347.332572 248.909899 
L 348.607127 250.32404 
L 349.881681 249.192727 
L 351.156236 250.32404 
L 352.43079 246.364444 
L 353.705345 246.647273 
L 354.979899 229.111919 
L 356.254454 248.061414 
L 357.529009 246.647273 
L 358.803563 250.606869 
L 360.078118 251.738182 
L 361.352672 249.758384 
L 362.627227 248.344242 
L 363.901782 248.344242 
L 365.176336 248.627071 
L 366.450891 247.778586 
L 369 251.172525 
L 370.274555 249.192727 
L 371.549109 248.344242 
L 372.823664 246.930101 
L 374.098218 247.212929 
L 375.372773 245.798788 
L 376.647328 250.606869 
L 377.921882 251.738182 
L 379.196437 245.798788 
L 380.470991 247.212929 
L 381.745546 249.475556 
L 383.020101 247.495758 
L 384.294655 248.344242 
L 385.56921 251.455354 
L 386.843764 250.32404 
L 388.118319 248.344242 
L 389.392873 249.475556 
L 390.667428 248.061414 
L 391.941983 246.364444 
L 394.491092 250.889697 
L 395.765646 251.172525 
L 397.040201 249.192727 
L 398.314756 247.778586 
L 399.58931 250.041212 
L 400.863865 249.475556 
L 402.138419 249.475556 
L 404.687529 250.041212 
L 405.962083 246.930101 
L 407.236638 248.909899 
L 408.511192 248.909899 
L 409.785747 250.041212 
L 411.060302 249.192727 
L 412.334856 251.172525 
L 413.609411 250.32404 
L 414.883965 248.344242 
L 416.15852 249.192727 
L 417.433074 248.909899 
L 418.707629 248.344242 
L 419.982184 249.192727 
L 421.256738 251.172525 
L 422.531293 250.889697 
L 423.805847 247.495758 
L 425.080402 250.606869 
L 426.354957 249.758384 
L 427.629511 249.192727 
L 428.904066 245.798788 
L 430.17862 251.172525 
L 431.453175 250.606869 
L 432.72773 249.758384 
L 434.002284 250.32404 
L 435.276839 248.909899 
L 436.551393 248.061414 
L 437.825948 249.192727 
L 439.100503 250.889697 
L 440.375057 250.889697 
L 441.649612 249.475556 
L 442.924166 247.212929 
L 444.198721 247.212929 
L 445.473275 250.32404 
L 446.74783 248.627071 
L 448.022385 250.606869 
L 449.296939 249.475556 
L 450.571494 247.778586 
L 451.846048 248.627071 
L 453.120603 248.627071 
L 454.395158 247.778586 
L 455.669712 248.061414 
L 456.944267 251.172525 
L 458.218821 251.738182 
L 459.493376 250.041212 
L 460.767931 250.041212 
L 462.042485 250.32404 
L 463.31704 250.32404 
L 464.591594 250.606869 
L 467.140704 251.738182 
L 468.415258 250.32404 
L 469.689813 249.475556 
L 470.964367 249.758384 
L 472.238922 248.627071 
L 473.513476 251.172525 
L 474.788031 250.32404 
L 476.062586 251.738182 
L 477.33714 250.32404 
L 478.611695 250.32404 
L 479.886249 248.344242 
L 481.160804 247.778586 
L 482.435359 249.475556 
L 483.709913 250.606869 
L 484.984468 250.889697 
L 486.259022 250.606869 
L 487.533577 248.627071 
L 488.808132 249.475556 
L 490.082686 249.758384 
L 491.357241 249.758384 
L 492.631795 248.909899 
L 493.90635 249.192727 
L 495.180905 250.606869 
L 496.455459 248.344242 
L 497.730014 251.455354 
L 499.004568 249.758384 
L 500.279123 249.758384 
L 501.553677 251.172525 
L 502.828232 250.889697 
L 504.102787 250.041212 
L 505.377341 250.041212 
L 506.651896 249.192727 
L 507.92645 249.475556 
L 509.201005 251.172525 
L 510.47556 250.889697 
L 511.750114 251.455354 
L 513.024669 250.32404 
L 514.299223 250.606869 
L 515.573778 250.041212 
L 516.848333 248.627071 
L 518.122887 249.192727 
L 519.397442 250.32404 
L 520.671996 250.889697 
L 521.946551 250.32404 
L 523.221106 251.455354 
L 524.49566 250.889697 
L 525.770215 249.192727 
L 527.044769 251.738182 
L 528.319324 250.041212 
L 529.593878 251.172525 
L 530.868433 248.344242 
L 532.142988 251.455354 
L 533.417542 251.172525 
L 534.692097 248.061414 
L 537.241206 249.192727 
L 538.515761 250.32404 
L 539.790315 249.758384 
L 541.06487 251.172525 
L 542.339424 250.606869 
L 543.613979 247.778586 
L 544.888534 249.758384 
L 546.163088 250.041212 
L 547.437643 249.192727 
L 548.712197 249.758384 
L 549.986752 249.758384 
L 551.261307 251.455354 
L 552.535861 251.455354 
L 553.810416 250.889697 
L 555.08497 248.344242 
L 557.634079 248.344242 
L 558.908634 249.758384 
L 560.183189 249.758384 
L 561.457743 248.909899 
L 562.732298 248.627071 
L 564.006852 247.212929 
L 565.281407 249.475556 
L 566.555962 247.495758 
L 567.830516 250.041212 
L 569.105071 251.172525 
L 570.379625 250.32404 
L 571.65418 249.758384 
L 572.928735 248.061414 
L 574.203289 248.344242 
L 575.477844 249.192727 
L 576.752398 249.758384 
L 578.026953 250.041212 
L 579.301508 247.495758 
L 580.576062 248.344242 
L 581.850617 250.606869 
L 583.125171 249.475556 
L 584.399726 250.889697 
L 585.67428 249.192727 
L 586.948835 250.889697 
L 588.22339 248.909899 
L 589.497944 250.041212 
L 590.772499 250.606869 
L 592.047053 249.475556 
L 593.321608 247.495758 
L 594.596163 247.778586 
L 595.870717 250.041212 
L 597.145272 250.32404 
L 598.419826 248.627071 
L 599.694381 248.344242 
L 600.968936 248.909899 
L 602.24349 250.889697 
L 603.518045 250.32404 
L 604.792599 249.475556 
L 606.067154 249.475556 
L 607.341709 250.889697 
L 608.616263 249.192727 
L 609.890818 248.627071 
L 611.165372 248.909899 
L 612.439927 251.172525 
L 613.714481 251.172525 
L 614.989036 249.192727 
L 616.263591 250.32404 
L 617.538145 247.778586 
L 620.087254 250.041212 
L 621.361809 250.606869 
L 622.636364 250.041212 
L 622.636364 250.041212 
" style="fill:none;stroke:#ff7f0e;stroke-linecap:square;stroke-width:1.5;"/>
   </g>
   <g id="patch_9">
    <path d="M 90 256.32 
L 90 155.52 
" style="fill:none;stroke:#000000;stroke-linecap:square;stroke-linejoin:miter;stroke-width:0.8;"/>
   </g>
   <g id="patch_10">
    <path d="M 648 256.32 
L 648 155.52 
" style="fill:none;stroke:#000000;stroke-linecap:square;stroke-linejoin:miter;stroke-width:0.8;"/>
   </g>
   <g id="patch_11">
    <path d="M 90 256.32 
L 648 256.32 
" style="fill:none;stroke:#000000;stroke-linecap:square;stroke-linejoin:miter;stroke-width:0.8;"/>
   </g>
   <g id="patch_12">
    <path d="M 90 155.52 
L 648 155.52 
" style="fill:none;stroke:#000000;stroke-linecap:square;stroke-linejoin:miter;stroke-width:0.8;"/>
   </g>
   <g id="legend_2">
    <g id="patch_13">
     <path d="M 97 192.87625 
L 234.217188 192.87625 
Q 236.217188 192.87625 236.217188 190.87625 
L 236.217188 162.52 
Q 236.217188 160.52 234.217188 160.52 
L 97 160.52 
Q 95 160.52 95 162.52 
L 95 190.87625 
Q 95 192.87625 97 192.87625 
z
" style="fill:#ffffff;opacity:0.8;stroke:#cccccc;stroke-linejoin:miter;"/>
    </g>
    <g id="line2d_33">
     <path d="M 99 168.618437 
L 119 168.618437 
" style="fill:none;stroke:#1f77b4;stroke-linecap:square;stroke-width:1.5;"/>
    </g>
    <g id="line2d_34"/>
    <g id="text_28">
     <!-- Total GitHub Views -->
     <g transform="translate(127 172.118437)scale(0.1 -0.1)">
      <defs>
       <path d="M 1831 0 
L 50 4666 
L 709 4666 
L 2188 738 
L 3669 4666 
L 4325 4666 
L 2547 0 
L 1831 0 
z
" id="DejaVuSans-56" transform="scale(0.015625)"/>
       <path d="M 269 3500 
L 844 3500 
L 1563 769 
L 2278 3500 
L 2956 3500 
L 3675 769 
L 4391 3500 
L 4966 3500 
L 4050 0 
L 3372 0 
L 2619 2869 
L 1863 0 
L 1184 0 
L 269 3500 
z
" id="DejaVuSans-77" transform="scale(0.015625)"/>
      </defs>
      <use xlink:href="#DejaVuSans-54"/>
      <use x="44.083984" xlink:href="#DejaVuSans-6f"/>
      <use x="105.265625" xlink:href="#DejaVuSans-74"/>
      <use x="144.474609" xlink:href="#DejaVuSans-61"/>
      <use x="205.753906" xlink:href="#DejaVuSans-6c"/>
      <use x="233.537109" xlink:href="#DejaVuSans-20"/>
      <use x="265.324219" xlink:href="#DejaVuSans-47"/>
      <use x="342.814453" xlink:href="#DejaVuSans-69"/>
      <use x="370.597656" xlink:href="#DejaVuSans-74"/>
      <use x="409.806641" xlink:href="#DejaVuSans-48"/>
      <use x="485.001953" xlink:href="#DejaVuSans-75"/>
      <use x="548.380859" xlink:href="#DejaVuSans-62"/>
      <use x="611.857422" xlink:href="#DejaVuSans-20"/>
      <use x="643.644531" xlink:href="#DejaVuSans-56"/>
      <use x="709.802734" xlink:href="#DejaVuSans-69"/>
      <use x="737.585938" xlink:href="#DejaVuSans-65"/>
      <use x="799.109375" xlink:href="#DejaVuSans-77"/>
      <use x="880.896484" xlink:href="#DejaVuSans-73"/>
     </g>
    </g>
    <g id="line2d_35">
     <path d="M 99 183.296562 
L 119 183.296562 
" style="fill:none;stroke:#ff7f0e;stroke-linecap:square;stroke-width:1.5;"/>
    </g>
    <g id="line2d_36"/>
    <g id="text_29">
     <!-- Unique GitHub Views -->
     <g transform="translate(127 186.796562)scale(0.1 -0.1)">
      <use xlink:href="#DejaVuSans-55"/>
      <use x="73.193359" xlink:href="#DejaVuSans-6e"/>
      <use x="136.572266" xlink:href="#DejaVuSans-69"/>
      <use x="164.355469" xlink:href="#DejaVuSans-71"/>
      <use x="227.832031" xlink:href="#DejaVuSans-75"/>
      <use x="291.210938" xlink:href="#DejaVuSans-65"/>
      <use x="352.734375" xlink:href="#DejaVuSans-20"/>
      <use x="384.521484" xlink:href="#DejaVuSans-47"/>
      <use x="462.011719" xlink:href="#DejaVuSans-69"/>
      <use x="489.794922" xlink:href="#DejaVuSans-74"/>
      <use x="529.003906" xlink:href="#DejaVuSans-48"/>
      <use x="604.199219" xlink:href="#DejaVuSans-75"/>
      <use x="667.578125" xlink:href="#DejaVuSans-62"/>
      <use x="731.054688" xlink:href="#DejaVuSans-20"/>
      <use x="762.841797" xlink:href="#DejaVuSans-56"/>
      <use x="829" xlink:href="#DejaVuSans-69"/>
      <use x="856.783203" xlink:href="#DejaVuSans-65"/>
      <use x="918.306641" xlink:href="#DejaVuSans-77"/>
      <use x="1000.09375" xlink:href="#DejaVuSans-73"/>
     </g>
    </g>
   </g>
  </g>
 </g>
 <defs>
  <clipPath id="p7bfea0b2c8">
   <rect height="100.8" width="558" x="90" y="34.56"/>
  </clipPath>
  <clipPath id="p911745b7f2">
   <rect height="100.8" width="558" x="90" y="155.52"/>
  </clipPath>
 </defs>
</svg>
