<?xml version="1.0" encoding="utf-8" standalone="no"?>
<!DOCTYPE svg PUBLIC "-//W3C//DTD SVG 1.1//EN"
  "http://www.w3.org/Graphics/SVG/1.1/DTD/svg11.dtd">
<svg height="288pt" version="1.1" viewBox="0 0 720 288" width="720pt" xmlns="http://www.w3.org/2000/svg" xmlns:xlink="http://www.w3.org/1999/xlink">
 <metadata>
  <rdf:RDF xmlns:cc="http://creativecommons.org/ns#" xmlns:dc="http://purl.org/dc/elements/1.1/" xmlns:rdf="http://www.w3.org/1999/02/22-rdf-syntax-ns#">
   <cc:Work>
    <dc:type rdf:resource="http://purl.org/dc/dcmitype/StillImage"/>
    <dc:date>2021-07-19T00:23:53.451666</dc:date>
    <dc:format>image/svg+xml</dc:format>
    <dc:creator>
     <cc:Agent>
      <dc:title>Matplotlib v3.4.2, https://matplotlib.org/</dc:title>
     </cc:Agent>
    </dc:creator>
   </cc:Work>
  </rdf:RDF>
 </metadata>
 <defs>
  <style type="text/css">*{stroke-linecap:butt;stroke-linejoin:round;}</style>
 </defs>
 <g id="figure_1">
  <g id="patch_1">
   <path d="M 0 288 
L 720 288 
L 720 0 
L 0 0 
z
" style="fill:#ffffff;"/>
  </g>
  <g id="axes_1">
   <g id="patch_2">
    <path d="M 90 135.36 
L 648 135.36 
L 648 34.56 
L 90 34.56 
z
" style="fill:#ffffff;"/>
   </g>
   <g id="matplotlib.axis_1">
    <g id="xtick_1">
     <g id="line2d_1">
      <defs>
       <path d="M 0 0 
L 0 3.5 
" id="m0da9494783" style="stroke:#000000;stroke-width:0.8;"/>
      </defs>
      <g>
       <use style="stroke:#000000;stroke-width:0.8;" x="115.363636" xlink:href="#m0da9494783" y="135.36"/>
      </g>
     </g>
     <g id="text_1">
      <!-- 2020-10-22 -->
      <g transform="translate(86.305824 149.958437)scale(0.1 -0.1)">
       <defs>
        <path d="M 1228 531 
L 3431 531 
L 3431 0 
L 469 0 
L 469 531 
Q 828 903 1448 1529 
Q 2069 2156 2228 2338 
Q 2531 2678 2651 2914 
Q 2772 3150 2772 3378 
Q 2772 3750 2511 3984 
Q 2250 4219 1831 4219 
Q 1534 4219 1204 4116 
Q 875 4013 500 3803 
L 500 4441 
Q 881 4594 1212 4672 
Q 1544 4750 1819 4750 
Q 2544 4750 2975 4387 
Q 3406 4025 3406 3419 
Q 3406 3131 3298 2873 
Q 3191 2616 2906 2266 
Q 2828 2175 2409 1742 
Q 1991 1309 1228 531 
z
" id="DejaVuSans-32" transform="scale(0.015625)"/>
        <path d="M 2034 4250 
Q 1547 4250 1301 3770 
Q 1056 3291 1056 2328 
Q 1056 1369 1301 889 
Q 1547 409 2034 409 
Q 2525 409 2770 889 
Q 3016 1369 3016 2328 
Q 3016 3291 2770 3770 
Q 2525 4250 2034 4250 
z
M 2034 4750 
Q 2819 4750 3233 4129 
Q 3647 3509 3647 2328 
Q 3647 1150 3233 529 
Q 2819 -91 2034 -91 
Q 1250 -91 836 529 
Q 422 1150 422 2328 
Q 422 3509 836 4129 
Q 1250 4750 2034 4750 
z
" id="DejaVuSans-30" transform="scale(0.015625)"/>
        <path d="M 313 2009 
L 1997 2009 
L 1997 1497 
L 313 1497 
L 313 2009 
z
" id="DejaVuSans-2d" transform="scale(0.015625)"/>
        <path d="M 794 531 
L 1825 531 
L 1825 4091 
L 703 3866 
L 703 4441 
L 1819 4666 
L 2450 4666 
L 2450 531 
L 3481 531 
L 3481 0 
L 794 0 
L 794 531 
z
" id="DejaVuSans-31" transform="scale(0.015625)"/>
       </defs>
       <use xlink:href="#DejaVuSans-32"/>
       <use x="63.623047" xlink:href="#DejaVuSans-30"/>
       <use x="127.246094" xlink:href="#DejaVuSans-32"/>
       <use x="190.869141" xlink:href="#DejaVuSans-30"/>
       <use x="254.492188" xlink:href="#DejaVuSans-2d"/>
       <use x="290.576172" xlink:href="#DejaVuSans-31"/>
       <use x="354.199219" xlink:href="#DejaVuSans-30"/>
       <use x="417.822266" xlink:href="#DejaVuSans-2d"/>
       <use x="453.90625" xlink:href="#DejaVuSans-32"/>
       <use x="517.529297" xlink:href="#DejaVuSans-32"/>
      </g>
     </g>
    </g>
    <g id="xtick_2">
     <g id="line2d_2">
      <g>
       <use style="stroke:#000000;stroke-width:0.8;" x="229.101916" xlink:href="#m0da9494783" y="135.36"/>
      </g>
     </g>
     <g id="text_2">
      <!-- 2021-01-05 -->
      <g transform="translate(200.044104 149.958437)scale(0.1 -0.1)">
       <defs>
        <path d="M 691 4666 
L 3169 4666 
L 3169 4134 
L 1269 4134 
L 1269 2991 
Q 1406 3038 1543 3061 
Q 1681 3084 1819 3084 
Q 2600 3084 3056 2656 
Q 3513 2228 3513 1497 
Q 3513 744 3044 326 
Q 2575 -91 1722 -91 
Q 1428 -91 1123 -41 
Q 819 9 494 109 
L 494 744 
Q 775 591 1075 516 
Q 1375 441 1709 441 
Q 2250 441 2565 725 
Q 2881 1009 2881 1497 
Q 2881 1984 2565 2268 
Q 2250 2553 1709 2553 
Q 1456 2553 1204 2497 
Q 953 2441 691 2322 
L 691 4666 
z
" id="DejaVuSans-35" transform="scale(0.015625)"/>
       </defs>
       <use xlink:href="#DejaVuSans-32"/>
       <use x="63.623047" xlink:href="#DejaVuSans-30"/>
       <use x="127.246094" xlink:href="#DejaVuSans-32"/>
       <use x="190.869141" xlink:href="#DejaVuSans-31"/>
       <use x="254.492188" xlink:href="#DejaVuSans-2d"/>
       <use x="290.576172" xlink:href="#DejaVuSans-30"/>
       <use x="354.199219" xlink:href="#DejaVuSans-31"/>
       <use x="417.822266" xlink:href="#DejaVuSans-2d"/>
       <use x="453.90625" xlink:href="#DejaVuSans-30"/>
       <use x="517.529297" xlink:href="#DejaVuSans-35"/>
      </g>
     </g>
    </g>
    <g id="xtick_3">
     <g id="line2d_3">
      <g>
       <use style="stroke:#000000;stroke-width:0.8;" x="342.840196" xlink:href="#m0da9494783" y="135.36"/>
      </g>
     </g>
     <g id="text_3">
      <!-- 2021-03-17 -->
      <g transform="translate(313.782383 149.958437)scale(0.1 -0.1)">
       <defs>
        <path d="M 2597 2516 
Q 3050 2419 3304 2112 
Q 3559 1806 3559 1356 
Q 3559 666 3084 287 
Q 2609 -91 1734 -91 
Q 1441 -91 1130 -33 
Q 819 25 488 141 
L 488 750 
Q 750 597 1062 519 
Q 1375 441 1716 441 
Q 2309 441 2620 675 
Q 2931 909 2931 1356 
Q 2931 1769 2642 2001 
Q 2353 2234 1838 2234 
L 1294 2234 
L 1294 2753 
L 1863 2753 
Q 2328 2753 2575 2939 
Q 2822 3125 2822 3475 
Q 2822 3834 2567 4026 
Q 2313 4219 1838 4219 
Q 1578 4219 1281 4162 
Q 984 4106 628 3988 
L 628 4550 
Q 988 4650 1302 4700 
Q 1616 4750 1894 4750 
Q 2613 4750 3031 4423 
Q 3450 4097 3450 3541 
Q 3450 3153 3228 2886 
Q 3006 2619 2597 2516 
z
" id="DejaVuSans-33" transform="scale(0.015625)"/>
        <path d="M 525 4666 
L 3525 4666 
L 3525 4397 
L 1831 0 
L 1172 0 
L 2766 4134 
L 525 4134 
L 525 4666 
z
" id="DejaVuSans-37" transform="scale(0.015625)"/>
       </defs>
       <use xlink:href="#DejaVuSans-32"/>
       <use x="63.623047" xlink:href="#DejaVuSans-30"/>
       <use x="127.246094" xlink:href="#DejaVuSans-32"/>
       <use x="190.869141" xlink:href="#DejaVuSans-31"/>
       <use x="254.492188" xlink:href="#DejaVuSans-2d"/>
       <use x="290.576172" xlink:href="#DejaVuSans-30"/>
       <use x="354.199219" xlink:href="#DejaVuSans-33"/>
       <use x="417.822266" xlink:href="#DejaVuSans-2d"/>
       <use x="453.90625" xlink:href="#DejaVuSans-31"/>
       <use x="517.529297" xlink:href="#DejaVuSans-37"/>
      </g>
     </g>
    </g>
    <g id="xtick_4">
     <g id="line2d_4">
      <g>
       <use style="stroke:#000000;stroke-width:0.8;" x="456.578475" xlink:href="#m0da9494783" y="135.36"/>
      </g>
     </g>
     <g id="text_4">
      <!-- 2021-05-03 -->
      <g transform="translate(427.520663 149.958437)scale(0.1 -0.1)">
       <use xlink:href="#DejaVuSans-32"/>
       <use x="63.623047" xlink:href="#DejaVuSans-30"/>
       <use x="127.246094" xlink:href="#DejaVuSans-32"/>
       <use x="190.869141" xlink:href="#DejaVuSans-31"/>
       <use x="254.492188" xlink:href="#DejaVuSans-2d"/>
       <use x="290.576172" xlink:href="#DejaVuSans-30"/>
       <use x="354.199219" xlink:href="#DejaVuSans-35"/>
       <use x="417.822266" xlink:href="#DejaVuSans-2d"/>
       <use x="453.90625" xlink:href="#DejaVuSans-30"/>
       <use x="517.529297" xlink:href="#DejaVuSans-33"/>
      </g>
     </g>
    </g>
    <g id="xtick_5">
     <g id="line2d_5">
      <g>
       <use style="stroke:#000000;stroke-width:0.8;" x="570.316755" xlink:href="#m0da9494783" y="135.36"/>
      </g>
     </g>
     <g id="text_5">
      <!-- 2021-06-20 -->
      <g transform="translate(541.258942 149.958437)scale(0.1 -0.1)">
       <defs>
        <path d="M 2113 2584 
Q 1688 2584 1439 2293 
Q 1191 2003 1191 1497 
Q 1191 994 1439 701 
Q 1688 409 2113 409 
Q 2538 409 2786 701 
Q 3034 994 3034 1497 
Q 3034 2003 2786 2293 
Q 2538 2584 2113 2584 
z
M 3366 4563 
L 3366 3988 
Q 3128 4100 2886 4159 
Q 2644 4219 2406 4219 
Q 1781 4219 1451 3797 
Q 1122 3375 1075 2522 
Q 1259 2794 1537 2939 
Q 1816 3084 2150 3084 
Q 2853 3084 3261 2657 
Q 3669 2231 3669 1497 
Q 3669 778 3244 343 
Q 2819 -91 2113 -91 
Q 1303 -91 875 529 
Q 447 1150 447 2328 
Q 447 3434 972 4092 
Q 1497 4750 2381 4750 
Q 2619 4750 2861 4703 
Q 3103 4656 3366 4563 
z
" id="DejaVuSans-36" transform="scale(0.015625)"/>
       </defs>
       <use xlink:href="#DejaVuSans-32"/>
       <use x="63.623047" xlink:href="#DejaVuSans-30"/>
       <use x="127.246094" xlink:href="#DejaVuSans-32"/>
       <use x="190.869141" xlink:href="#DejaVuSans-31"/>
       <use x="254.492188" xlink:href="#DejaVuSans-2d"/>
       <use x="290.576172" xlink:href="#DejaVuSans-30"/>
       <use x="354.199219" xlink:href="#DejaVuSans-36"/>
       <use x="417.822266" xlink:href="#DejaVuSans-2d"/>
       <use x="453.90625" xlink:href="#DejaVuSans-32"/>
       <use x="517.529297" xlink:href="#DejaVuSans-30"/>
      </g>
     </g>
    </g>
    <g id="text_6">
     <!-- _date -->
     <g transform="translate(355.225 163.636562)scale(0.1 -0.1)">
      <defs>
       <path d="M 3263 -1063 
L 3263 -1509 
L -63 -1509 
L -63 -1063 
L 3263 -1063 
z
" id="DejaVuSans-5f" transform="scale(0.015625)"/>
       <path d="M 2906 2969 
L 2906 4863 
L 3481 4863 
L 3481 0 
L 2906 0 
L 2906 525 
Q 2725 213 2448 61 
Q 2172 -91 1784 -91 
Q 1150 -91 751 415 
Q 353 922 353 1747 
Q 353 2572 751 3078 
Q 1150 3584 1784 3584 
Q 2172 3584 2448 3432 
Q 2725 3281 2906 2969 
z
M 947 1747 
Q 947 1113 1208 752 
Q 1469 391 1925 391 
Q 2381 391 2643 752 
Q 2906 1113 2906 1747 
Q 2906 2381 2643 2742 
Q 2381 3103 1925 3103 
Q 1469 3103 1208 2742 
Q 947 2381 947 1747 
z
" id="DejaVuSans-64" transform="scale(0.015625)"/>
       <path d="M 2194 1759 
Q 1497 1759 1228 1600 
Q 959 1441 959 1056 
Q 959 750 1161 570 
Q 1363 391 1709 391 
Q 2188 391 2477 730 
Q 2766 1069 2766 1631 
L 2766 1759 
L 2194 1759 
z
M 3341 1997 
L 3341 0 
L 2766 0 
L 2766 531 
Q 2569 213 2275 61 
Q 1981 -91 1556 -91 
Q 1019 -91 701 211 
Q 384 513 384 1019 
Q 384 1609 779 1909 
Q 1175 2209 1959 2209 
L 2766 2209 
L 2766 2266 
Q 2766 2663 2505 2880 
Q 2244 3097 1772 3097 
Q 1472 3097 1187 3025 
Q 903 2953 641 2809 
L 641 3341 
Q 956 3463 1253 3523 
Q 1550 3584 1831 3584 
Q 2591 3584 2966 3190 
Q 3341 2797 3341 1997 
z
" id="DejaVuSans-61" transform="scale(0.015625)"/>
       <path d="M 1172 4494 
L 1172 3500 
L 2356 3500 
L 2356 3053 
L 1172 3053 
L 1172 1153 
Q 1172 725 1289 603 
Q 1406 481 1766 481 
L 2356 481 
L 2356 0 
L 1766 0 
Q 1100 0 847 248 
Q 594 497 594 1153 
L 594 3053 
L 172 3053 
L 172 3500 
L 594 3500 
L 594 4494 
L 1172 4494 
z
" id="DejaVuSans-74" transform="scale(0.015625)"/>
       <path d="M 3597 1894 
L 3597 1613 
L 953 1613 
Q 991 1019 1311 708 
Q 1631 397 2203 397 
Q 2534 397 2845 478 
Q 3156 559 3463 722 
L 3463 178 
Q 3153 47 2828 -22 
Q 2503 -91 2169 -91 
Q 1331 -91 842 396 
Q 353 884 353 1716 
Q 353 2575 817 3079 
Q 1281 3584 2069 3584 
Q 2775 3584 3186 3129 
Q 3597 2675 3597 1894 
z
M 3022 2063 
Q 3016 2534 2758 2815 
Q 2500 3097 2075 3097 
Q 1594 3097 1305 2825 
Q 1016 2553 972 2059 
L 3022 2063 
z
" id="DejaVuSans-65" transform="scale(0.015625)"/>
      </defs>
      <use xlink:href="#DejaVuSans-5f"/>
      <use x="50" xlink:href="#DejaVuSans-64"/>
      <use x="113.476562" xlink:href="#DejaVuSans-61"/>
      <use x="174.755859" xlink:href="#DejaVuSans-74"/>
      <use x="213.964844" xlink:href="#DejaVuSans-65"/>
     </g>
    </g>
   </g>
   <g id="matplotlib.axis_2">
    <g id="ytick_1">
     <g id="line2d_6">
      <defs>
       <path d="M 0 0 
L -3.5 0 
" id="mde3817dd11" style="stroke:#000000;stroke-width:0.8;"/>
      </defs>
      <g>
       <use style="stroke:#000000;stroke-width:0.8;" x="90" xlink:href="#mde3817dd11" y="131.401558"/>
      </g>
     </g>
     <g id="text_7">
      <!-- 0 -->
      <g transform="translate(76.6375 135.200777)scale(0.1 -0.1)">
       <use xlink:href="#DejaVuSans-30"/>
      </g>
     </g>
    </g>
    <g id="ytick_2">
     <g id="line2d_7">
      <g>
       <use style="stroke:#000000;stroke-width:0.8;" x="90" xlink:href="#mde3817dd11" y="100.232727"/>
      </g>
     </g>
     <g id="text_8">
      <!-- 50 -->
      <g transform="translate(70.275 104.031946)scale(0.1 -0.1)">
       <use xlink:href="#DejaVuSans-35"/>
       <use x="63.623047" xlink:href="#DejaVuSans-30"/>
      </g>
     </g>
    </g>
    <g id="ytick_3">
     <g id="line2d_8">
      <g>
       <use style="stroke:#000000;stroke-width:0.8;" x="90" xlink:href="#mde3817dd11" y="69.063896"/>
      </g>
     </g>
     <g id="text_9">
      <!-- 100 -->
      <g transform="translate(63.9125 72.863115)scale(0.1 -0.1)">
       <use xlink:href="#DejaVuSans-31"/>
       <use x="63.623047" xlink:href="#DejaVuSans-30"/>
       <use x="127.246094" xlink:href="#DejaVuSans-30"/>
      </g>
     </g>
    </g>
    <g id="ytick_4">
     <g id="line2d_9">
      <g>
       <use style="stroke:#000000;stroke-width:0.8;" x="90" xlink:href="#mde3817dd11" y="37.895065"/>
      </g>
     </g>
     <g id="text_10">
      <!-- 150 -->
      <g transform="translate(63.9125 41.694284)scale(0.1 -0.1)">
       <use xlink:href="#DejaVuSans-31"/>
       <use x="63.623047" xlink:href="#DejaVuSans-35"/>
       <use x="127.246094" xlink:href="#DejaVuSans-30"/>
      </g>
     </g>
    </g>
   </g>
   <g id="line2d_10">
    <path clip-path="url(#p235f03eb03)" d="M 115.363636 127.661299 
L 117.638402 128.284675 
L 119.913168 130.778182 
L 122.187933 130.778182 
L 124.462699 129.531429 
L 126.737464 129.531429 
L 129.01223 120.804156 
L 131.286996 120.804156 
L 133.561761 130.778182 
L 135.836527 130.778182 
L 138.111292 124.544416 
L 140.386058 126.414545 
L 142.660823 130.778182 
L 144.935589 127.661299 
L 147.210355 128.908052 
L 149.48512 128.908052 
L 151.759886 130.778182 
L 156.309417 128.284675 
L 158.584183 130.154805 
L 160.858948 130.778182 
L 163.133714 130.154805 
L 165.408479 130.154805 
L 167.683245 129.531429 
L 169.958011 130.154805 
L 172.232776 130.154805 
L 174.507542 128.908052 
L 176.782307 130.154805 
L 179.057073 130.154805 
L 181.331839 122.674286 
L 183.606604 127.661299 
L 185.88137 130.154805 
L 188.156135 115.817143 
L 190.430901 130.778182 
L 208.629026 130.778182 
L 210.903791 130.154805 
L 213.178557 130.778182 
L 229.101916 130.778182 
L 231.376682 128.908052 
L 233.651447 129.531429 
L 235.926213 130.778182 
L 238.200978 129.531429 
L 240.475744 127.661299 
L 242.75051 130.154805 
L 245.025275 130.154805 
L 247.300041 128.908052 
L 249.574806 120.804156 
L 251.849572 130.154805 
L 254.124338 130.778182 
L 256.399103 130.154805 
L 258.673869 127.037922 
L 260.948634 130.154805 
L 263.2234 129.531429 
L 265.498166 125.167792 
L 267.772931 128.908052 
L 270.047697 127.037922 
L 272.322462 130.154805 
L 274.597228 129.531429 
L 276.871993 130.154805 
L 279.146759 129.531429 
L 283.69629 129.531429 
L 285.971056 128.284675 
L 288.245821 130.778182 
L 290.520587 130.778182 
L 292.795353 128.284675 
L 295.070118 128.284675 
L 297.344884 125.167792 
L 299.619649 129.531429 
L 301.894415 127.661299 
L 304.169181 130.778182 
L 306.443946 125.791169 
L 308.718712 128.908052 
L 310.993477 129.531429 
L 313.268243 128.908052 
L 315.543009 126.414545 
L 317.817774 130.154805 
L 320.09254 128.284675 
L 322.367305 121.427532 
L 324.642071 126.414545 
L 326.916837 120.804156 
L 329.191602 87.141818 
L 331.466368 127.661299 
L 333.741133 130.778182 
L 336.015899 128.908052 
L 338.290664 123.297662 
L 340.56543 124.544416 
L 342.840196 127.661299 
L 345.114961 119.557403 
L 347.389727 128.908052 
L 349.664492 128.908052 
L 351.939258 130.154805 
L 354.214024 122.674286 
L 356.488789 124.544416 
L 358.763555 130.778182 
L 361.03832 129.531429 
L 363.313086 130.778182 
L 365.587852 128.284675 
L 367.862617 100.232727 
L 370.137383 100.856104 
L 372.412148 120.180779 
L 374.686914 118.310649 
L 376.96168 121.427532 
L 379.236445 127.661299 
L 381.511211 130.778182 
L 383.785976 126.414545 
L 386.060742 128.908052 
L 388.335508 122.050909 
L 390.610273 122.674286 
L 392.885039 128.908052 
L 395.159804 123.297662 
L 397.43457 115.817143 
L 399.709336 122.674286 
L 401.984101 127.661299 
L 404.258867 115.193766 
L 406.533632 115.817143 
L 408.808398 115.193766 
L 411.083163 116.440519 
L 413.357929 92.128831 
L 415.632695 109.583377 
L 417.90746 107.08987 
L 420.182226 107.713247 
L 422.456991 107.08987 
L 424.731757 119.557403 
L 427.006523 110.206753 
L 429.281288 118.934026 
L 431.556054 129.531429 
L 433.830819 130.154805 
L 436.105585 116.440519 
L 438.380351 115.193766 
L 440.655116 114.57039 
L 442.929882 115.817143 
L 445.204647 111.453506 
L 447.479413 105.843117 
L 449.754179 128.284675 
L 452.028944 130.154805 
L 454.30371 116.440519 
L 456.578475 119.557403 
L 458.853241 117.687273 
L 461.128007 100.232727 
L 463.402772 115.817143 
L 465.677538 116.440519 
L 467.952303 130.154805 
L 470.227069 128.908052 
L 472.501834 114.57039 
L 474.7766 102.726234 
L 477.051366 102.102857 
L 479.326131 117.063896 
L 481.600897 113.323636 
L 483.875662 95.245714 
L 486.150428 117.063896 
L 488.425194 130.154805 
L 490.699959 114.57039 
L 492.974725 107.713247 
L 495.24949 105.843117 
L 497.524256 102.726234 
L 499.799022 108.96 
L 502.073787 111.453506 
L 504.348553 129.531429 
L 506.623318 115.193766 
L 508.898084 110.206753 
L 511.17285 108.336623 
L 513.447615 115.817143 
L 515.722381 115.193766 
L 517.997146 113.947013 
L 520.271912 125.791169 
L 522.546678 115.817143 
L 527.096209 113.323636 
L 529.370974 115.817143 
L 531.64574 116.440519 
L 533.920506 116.440519 
L 536.195271 130.778182 
L 538.470037 130.778182 
L 540.744802 115.193766 
L 543.019568 112.076883 
L 545.294333 115.193766 
L 547.569099 102.726234 
L 549.843865 105.843117 
L 552.11863 130.778182 
L 554.393396 115.817143 
L 556.668161 113.947013 
L 558.942927 113.323636 
L 561.217693 112.076883 
L 563.492458 117.063896 
L 565.767224 130.154805 
L 568.041989 114.57039 
L 570.316755 115.193766 
L 572.591521 110.83013 
L 574.866286 105.21974 
L 577.141052 104.596364 
L 579.415817 39.141818 
L 581.690583 86.518442 
L 583.965349 130.778182 
L 586.240114 118.310649 
L 588.51488 120.180779 
L 590.789645 117.063896 
L 593.064411 117.687273 
L 595.339177 124.544416 
L 597.613942 130.778182 
L 599.888708 130.778182 
L 602.163473 130.154805 
L 604.438239 123.297662 
L 606.713004 125.167792 
L 608.98777 130.154805 
L 611.262536 128.908052 
L 613.537301 130.154805 
L 615.812067 130.778182 
L 618.086832 130.154805 
L 620.361598 130.778182 
L 622.636364 128.908052 
L 622.636364 128.908052 
" style="fill:none;stroke:#1f77b4;stroke-linecap:square;stroke-width:1.5;"/>
   </g>
   <g id="line2d_11">
    <path clip-path="url(#p235f03eb03)" d="M 115.363636 127.661299 
L 117.638402 128.284675 
L 119.913168 130.778182 
L 122.187933 130.778182 
L 124.462699 129.531429 
L 126.737464 129.531429 
L 129.01223 130.154805 
L 131.286996 128.284675 
L 133.561761 130.778182 
L 135.836527 130.778182 
L 138.111292 124.544416 
L 140.386058 129.531429 
L 142.660823 130.778182 
L 144.935589 128.908052 
L 147.210355 128.908052 
L 149.48512 129.531429 
L 151.759886 130.778182 
L 154.034651 129.531429 
L 156.309417 128.908052 
L 158.584183 130.154805 
L 160.858948 130.778182 
L 163.133714 130.154805 
L 165.408479 130.778182 
L 167.683245 129.531429 
L 172.232776 130.778182 
L 174.507542 130.154805 
L 176.782307 130.778182 
L 179.057073 130.154805 
L 181.331839 125.791169 
L 183.606604 127.661299 
L 185.88137 130.154805 
L 188.156135 125.167792 
L 190.430901 130.778182 
L 208.629026 130.778182 
L 210.903791 130.154805 
L 213.178557 130.778182 
L 229.101916 130.778182 
L 231.376682 129.531429 
L 233.651447 130.778182 
L 235.926213 130.778182 
L 240.475744 129.531429 
L 242.75051 130.778182 
L 247.300041 130.778182 
L 249.574806 124.544416 
L 251.849572 130.778182 
L 254.124338 130.778182 
L 256.399103 130.154805 
L 258.673869 128.908052 
L 260.948634 130.154805 
L 263.2234 129.531429 
L 265.498166 127.037922 
L 267.772931 129.531429 
L 270.047697 130.778182 
L 272.322462 130.154805 
L 274.597228 130.778182 
L 276.871993 130.154805 
L 279.146759 130.778182 
L 281.421525 129.531429 
L 285.971056 129.531429 
L 288.245821 130.778182 
L 290.520587 130.778182 
L 297.344884 127.037922 
L 299.619649 129.531429 
L 301.894415 128.284675 
L 304.169181 130.778182 
L 306.443946 127.037922 
L 308.718712 128.908052 
L 310.993477 129.531429 
L 313.268243 128.908052 
L 315.543009 126.414545 
L 317.817774 130.154805 
L 320.09254 128.284675 
L 322.367305 124.544416 
L 324.642071 127.037922 
L 326.916837 123.297662 
L 329.191602 108.96 
L 331.466368 127.661299 
L 333.741133 130.778182 
L 336.015899 129.531429 
L 338.290664 123.921039 
L 342.840196 127.661299 
L 345.114961 122.050909 
L 347.389727 128.908052 
L 349.664492 128.908052 
L 351.939258 130.154805 
L 354.214024 124.544416 
L 356.488789 124.544416 
L 358.763555 130.778182 
L 361.03832 129.531429 
L 363.313086 130.778182 
L 365.587852 128.908052 
L 367.862617 116.440519 
L 370.137383 116.440519 
L 372.412148 121.427532 
L 374.686914 122.674286 
L 376.96168 124.544416 
L 379.236445 128.284675 
L 381.511211 130.778182 
L 383.785976 127.661299 
L 386.060742 130.154805 
L 388.335508 123.921039 
L 390.610273 123.921039 
L 392.885039 129.531429 
L 395.159804 123.921039 
L 397.43457 120.180779 
L 399.709336 123.297662 
L 401.984101 128.284675 
L 404.258867 120.804156 
L 406.533632 120.804156 
L 408.808398 125.167792 
L 411.083163 130.154805 
L 413.357929 121.427532 
L 415.632695 129.531429 
L 417.90746 128.908052 
L 420.182226 125.791169 
L 422.456991 125.791169 
L 424.731757 121.427532 
L 427.006523 125.167792 
L 429.281288 130.778182 
L 431.556054 130.154805 
L 433.830819 130.154805 
L 436.105585 130.778182 
L 438.380351 129.531429 
L 440.655116 128.908052 
L 442.929882 129.531429 
L 447.479413 120.804156 
L 449.754179 128.284675 
L 452.028944 130.154805 
L 454.30371 130.778182 
L 456.578475 130.778182 
L 458.853241 128.908052 
L 461.128007 117.687273 
L 463.402772 130.778182 
L 465.677538 129.531429 
L 467.952303 130.154805 
L 472.501834 130.154805 
L 474.7766 118.934026 
L 477.051366 118.934026 
L 479.326131 128.908052 
L 481.600897 127.037922 
L 483.875662 115.817143 
L 486.150428 120.180779 
L 488.425194 130.154805 
L 490.699959 130.778182 
L 492.974725 127.661299 
L 495.24949 125.791169 
L 497.524256 129.531429 
L 499.799022 128.908052 
L 502.073787 130.154805 
L 504.348553 130.154805 
L 506.623318 130.778182 
L 508.898084 125.167792 
L 511.17285 123.921039 
L 513.447615 130.778182 
L 515.722381 130.154805 
L 517.997146 128.908052 
L 520.271912 127.037922 
L 522.546678 130.778182 
L 524.821443 130.154805 
L 527.096209 128.908052 
L 529.370974 130.778182 
L 531.64574 129.531429 
L 533.920506 129.531429 
L 536.195271 130.778182 
L 540.744802 130.778182 
L 543.019568 127.661299 
L 545.294333 130.778182 
L 547.569099 128.908052 
L 549.843865 125.791169 
L 552.11863 130.778182 
L 554.393396 130.778182 
L 556.668161 130.154805 
L 558.942927 128.908052 
L 565.767224 130.778182 
L 568.041989 130.154805 
L 570.316755 130.778182 
L 572.591521 126.414545 
L 574.866286 126.414545 
L 577.141052 127.661299 
L 579.415817 130.778182 
L 581.690583 121.427532 
L 583.965349 130.778182 
L 586.240114 130.154805 
L 588.51488 130.778182 
L 590.789645 126.414545 
L 593.064411 127.037922 
L 595.339177 125.791169 
L 597.613942 130.778182 
L 599.888708 130.778182 
L 602.163473 130.154805 
L 604.438239 123.297662 
L 606.713004 126.414545 
L 608.98777 130.154805 
L 611.262536 128.908052 
L 613.537301 130.778182 
L 615.812067 130.778182 
L 618.086832 130.154805 
L 620.361598 130.778182 
L 622.636364 128.908052 
L 622.636364 128.908052 
" style="fill:none;stroke:#ff7f0e;stroke-linecap:square;stroke-width:1.5;"/>
   </g>
   <g id="patch_3">
    <path d="M 90 135.36 
L 90 34.56 
" style="fill:none;stroke:#000000;stroke-linecap:square;stroke-linejoin:miter;stroke-width:0.8;"/>
   </g>
   <g id="patch_4">
    <path d="M 648 135.36 
L 648 34.56 
" style="fill:none;stroke:#000000;stroke-linecap:square;stroke-linejoin:miter;stroke-width:0.8;"/>
   </g>
   <g id="patch_5">
    <path d="M 90 135.36 
L 648 135.36 
" style="fill:none;stroke:#000000;stroke-linecap:square;stroke-linejoin:miter;stroke-width:0.8;"/>
   </g>
   <g id="patch_6">
    <path d="M 90 34.56 
L 648 34.56 
" style="fill:none;stroke:#000000;stroke-linecap:square;stroke-linejoin:miter;stroke-width:0.8;"/>
   </g>
   <g id="legend_1">
    <g id="patch_7">
     <path d="M 97 71.91625 
L 238.8625 71.91625 
Q 240.8625 71.91625 240.8625 69.91625 
L 240.8625 41.56 
Q 240.8625 39.56 238.8625 39.56 
L 97 39.56 
Q 95 39.56 95 41.56 
L 95 69.91625 
Q 95 71.91625 97 71.91625 
z
" style="fill:#ffffff;opacity:0.8;stroke:#cccccc;stroke-linejoin:miter;"/>
    </g>
    <g id="line2d_12">
     <path d="M 99 47.658437 
L 119 47.658437 
" style="fill:none;stroke:#1f77b4;stroke-linecap:square;stroke-width:1.5;"/>
    </g>
    <g id="line2d_13"/>
    <g id="text_11">
     <!-- Total GitHub Clones -->
     <g transform="translate(127 51.158437)scale(0.1 -0.1)">
      <defs>
       <path d="M -19 4666 
L 3928 4666 
L 3928 4134 
L 2272 4134 
L 2272 0 
L 1638 0 
L 1638 4134 
L -19 4134 
L -19 4666 
z
" id="DejaVuSans-54" transform="scale(0.015625)"/>
       <path d="M 1959 3097 
Q 1497 3097 1228 2736 
Q 959 2375 959 1747 
Q 959 1119 1226 758 
Q 1494 397 1959 397 
Q 2419 397 2687 759 
Q 2956 1122 2956 1747 
Q 2956 2369 2687 2733 
Q 2419 3097 1959 3097 
z
M 1959 3584 
Q 2709 3584 3137 3096 
Q 3566 2609 3566 1747 
Q 3566 888 3137 398 
Q 2709 -91 1959 -91 
Q 1206 -91 779 398 
Q 353 888 353 1747 
Q 353 2609 779 3096 
Q 1206 3584 1959 3584 
z
" id="DejaVuSans-6f" transform="scale(0.015625)"/>
       <path d="M 603 4863 
L 1178 4863 
L 1178 0 
L 603 0 
L 603 4863 
z
" id="DejaVuSans-6c" transform="scale(0.015625)"/>
       <path id="DejaVuSans-20" transform="scale(0.015625)"/>
       <path d="M 3809 666 
L 3809 1919 
L 2778 1919 
L 2778 2438 
L 4434 2438 
L 4434 434 
Q 4069 175 3628 42 
Q 3188 -91 2688 -91 
Q 1594 -91 976 548 
Q 359 1188 359 2328 
Q 359 3472 976 4111 
Q 1594 4750 2688 4750 
Q 3144 4750 3555 4637 
Q 3966 4525 4313 4306 
L 4313 3634 
Q 3963 3931 3569 4081 
Q 3175 4231 2741 4231 
Q 1884 4231 1454 3753 
Q 1025 3275 1025 2328 
Q 1025 1384 1454 906 
Q 1884 428 2741 428 
Q 3075 428 3337 486 
Q 3600 544 3809 666 
z
" id="DejaVuSans-47" transform="scale(0.015625)"/>
       <path d="M 603 3500 
L 1178 3500 
L 1178 0 
L 603 0 
L 603 3500 
z
M 603 4863 
L 1178 4863 
L 1178 4134 
L 603 4134 
L 603 4863 
z
" id="DejaVuSans-69" transform="scale(0.015625)"/>
       <path d="M 628 4666 
L 1259 4666 
L 1259 2753 
L 3553 2753 
L 3553 4666 
L 4184 4666 
L 4184 0 
L 3553 0 
L 3553 2222 
L 1259 2222 
L 1259 0 
L 628 0 
L 628 4666 
z
" id="DejaVuSans-48" transform="scale(0.015625)"/>
       <path d="M 544 1381 
L 544 3500 
L 1119 3500 
L 1119 1403 
Q 1119 906 1312 657 
Q 1506 409 1894 409 
Q 2359 409 2629 706 
Q 2900 1003 2900 1516 
L 2900 3500 
L 3475 3500 
L 3475 0 
L 2900 0 
L 2900 538 
Q 2691 219 2414 64 
Q 2138 -91 1772 -91 
Q 1169 -91 856 284 
Q 544 659 544 1381 
z
M 1991 3584 
L 1991 3584 
z
" id="DejaVuSans-75" transform="scale(0.015625)"/>
       <path d="M 3116 1747 
Q 3116 2381 2855 2742 
Q 2594 3103 2138 3103 
Q 1681 3103 1420 2742 
Q 1159 2381 1159 1747 
Q 1159 1113 1420 752 
Q 1681 391 2138 391 
Q 2594 391 2855 752 
Q 3116 1113 3116 1747 
z
M 1159 2969 
Q 1341 3281 1617 3432 
Q 1894 3584 2278 3584 
Q 2916 3584 3314 3078 
Q 3713 2572 3713 1747 
Q 3713 922 3314 415 
Q 2916 -91 2278 -91 
Q 1894 -91 1617 61 
Q 1341 213 1159 525 
L 1159 0 
L 581 0 
L 581 4863 
L 1159 4863 
L 1159 2969 
z
" id="DejaVuSans-62" transform="scale(0.015625)"/>
       <path d="M 4122 4306 
L 4122 3641 
Q 3803 3938 3442 4084 
Q 3081 4231 2675 4231 
Q 1875 4231 1450 3742 
Q 1025 3253 1025 2328 
Q 1025 1406 1450 917 
Q 1875 428 2675 428 
Q 3081 428 3442 575 
Q 3803 722 4122 1019 
L 4122 359 
Q 3791 134 3420 21 
Q 3050 -91 2638 -91 
Q 1578 -91 968 557 
Q 359 1206 359 2328 
Q 359 3453 968 4101 
Q 1578 4750 2638 4750 
Q 3056 4750 3426 4639 
Q 3797 4528 4122 4306 
z
" id="DejaVuSans-43" transform="scale(0.015625)"/>
       <path d="M 3513 2113 
L 3513 0 
L 2938 0 
L 2938 2094 
Q 2938 2591 2744 2837 
Q 2550 3084 2163 3084 
Q 1697 3084 1428 2787 
Q 1159 2491 1159 1978 
L 1159 0 
L 581 0 
L 581 3500 
L 1159 3500 
L 1159 2956 
Q 1366 3272 1645 3428 
Q 1925 3584 2291 3584 
Q 2894 3584 3203 3211 
Q 3513 2838 3513 2113 
z
" id="DejaVuSans-6e" transform="scale(0.015625)"/>
       <path d="M 2834 3397 
L 2834 2853 
Q 2591 2978 2328 3040 
Q 2066 3103 1784 3103 
Q 1356 3103 1142 2972 
Q 928 2841 928 2578 
Q 928 2378 1081 2264 
Q 1234 2150 1697 2047 
L 1894 2003 
Q 2506 1872 2764 1633 
Q 3022 1394 3022 966 
Q 3022 478 2636 193 
Q 2250 -91 1575 -91 
Q 1294 -91 989 -36 
Q 684 19 347 128 
L 347 722 
Q 666 556 975 473 
Q 1284 391 1588 391 
Q 1994 391 2212 530 
Q 2431 669 2431 922 
Q 2431 1156 2273 1281 
Q 2116 1406 1581 1522 
L 1381 1569 
Q 847 1681 609 1914 
Q 372 2147 372 2553 
Q 372 3047 722 3315 
Q 1072 3584 1716 3584 
Q 2034 3584 2315 3537 
Q 2597 3491 2834 3397 
z
" id="DejaVuSans-73" transform="scale(0.015625)"/>
      </defs>
      <use xlink:href="#DejaVuSans-54"/>
      <use x="44.083984" xlink:href="#DejaVuSans-6f"/>
      <use x="105.265625" xlink:href="#DejaVuSans-74"/>
      <use x="144.474609" xlink:href="#DejaVuSans-61"/>
      <use x="205.753906" xlink:href="#DejaVuSans-6c"/>
      <use x="233.537109" xlink:href="#DejaVuSans-20"/>
      <use x="265.324219" xlink:href="#DejaVuSans-47"/>
      <use x="342.814453" xlink:href="#DejaVuSans-69"/>
      <use x="370.597656" xlink:href="#DejaVuSans-74"/>
      <use x="409.806641" xlink:href="#DejaVuSans-48"/>
      <use x="485.001953" xlink:href="#DejaVuSans-75"/>
      <use x="548.380859" xlink:href="#DejaVuSans-62"/>
      <use x="611.857422" xlink:href="#DejaVuSans-20"/>
      <use x="643.644531" xlink:href="#DejaVuSans-43"/>
      <use x="713.46875" xlink:href="#DejaVuSans-6c"/>
      <use x="741.251953" xlink:href="#DejaVuSans-6f"/>
      <use x="802.433594" xlink:href="#DejaVuSans-6e"/>
      <use x="865.8125" xlink:href="#DejaVuSans-65"/>
      <use x="927.335938" xlink:href="#DejaVuSans-73"/>
     </g>
    </g>
    <g id="line2d_14">
     <path d="M 99 62.336562 
L 119 62.336562 
" style="fill:none;stroke:#ff7f0e;stroke-linecap:square;stroke-width:1.5;"/>
    </g>
    <g id="line2d_15"/>
    <g id="text_12">
     <!-- Unique GitHub Clones -->
     <g transform="translate(127 65.836562)scale(0.1 -0.1)">
      <defs>
       <path d="M 556 4666 
L 1191 4666 
L 1191 1831 
Q 1191 1081 1462 751 
Q 1734 422 2344 422 
Q 2950 422 3222 751 
Q 3494 1081 3494 1831 
L 3494 4666 
L 4128 4666 
L 4128 1753 
Q 4128 841 3676 375 
Q 3225 -91 2344 -91 
Q 1459 -91 1007 375 
Q 556 841 556 1753 
L 556 4666 
z
" id="DejaVuSans-55" transform="scale(0.015625)"/>
       <path d="M 947 1747 
Q 947 1113 1208 752 
Q 1469 391 1925 391 
Q 2381 391 2643 752 
Q 2906 1113 2906 1747 
Q 2906 2381 2643 2742 
Q 2381 3103 1925 3103 
Q 1469 3103 1208 2742 
Q 947 2381 947 1747 
z
M 2906 525 
Q 2725 213 2448 61 
Q 2172 -91 1784 -91 
Q 1150 -91 751 415 
Q 353 922 353 1747 
Q 353 2572 751 3078 
Q 1150 3584 1784 3584 
Q 2172 3584 2448 3432 
Q 2725 3281 2906 2969 
L 2906 3500 
L 3481 3500 
L 3481 -1331 
L 2906 -1331 
L 2906 525 
z
" id="DejaVuSans-71" transform="scale(0.015625)"/>
      </defs>
      <use xlink:href="#DejaVuSans-55"/>
      <use x="73.193359" xlink:href="#DejaVuSans-6e"/>
      <use x="136.572266" xlink:href="#DejaVuSans-69"/>
      <use x="164.355469" xlink:href="#DejaVuSans-71"/>
      <use x="227.832031" xlink:href="#DejaVuSans-75"/>
      <use x="291.210938" xlink:href="#DejaVuSans-65"/>
      <use x="352.734375" xlink:href="#DejaVuSans-20"/>
      <use x="384.521484" xlink:href="#DejaVuSans-47"/>
      <use x="462.011719" xlink:href="#DejaVuSans-69"/>
      <use x="489.794922" xlink:href="#DejaVuSans-74"/>
      <use x="529.003906" xlink:href="#DejaVuSans-48"/>
      <use x="604.199219" xlink:href="#DejaVuSans-75"/>
      <use x="667.578125" xlink:href="#DejaVuSans-62"/>
      <use x="731.054688" xlink:href="#DejaVuSans-20"/>
      <use x="762.841797" xlink:href="#DejaVuSans-43"/>
      <use x="832.666016" xlink:href="#DejaVuSans-6c"/>
      <use x="860.449219" xlink:href="#DejaVuSans-6f"/>
      <use x="921.630859" xlink:href="#DejaVuSans-6e"/>
      <use x="985.009766" xlink:href="#DejaVuSans-65"/>
      <use x="1046.533203" xlink:href="#DejaVuSans-73"/>
     </g>
    </g>
   </g>
  </g>
  <g id="axes_2">
   <g id="patch_8">
    <path d="M 90 256.32 
L 648 256.32 
L 648 155.52 
L 90 155.52 
z
" style="fill:#ffffff;"/>
   </g>
   <g id="matplotlib.axis_3">
    <g id="xtick_6">
     <g id="line2d_16">
      <g>
       <use style="stroke:#000000;stroke-width:0.8;" x="115.363636" xlink:href="#m0da9494783" y="256.32"/>
      </g>
     </g>
     <g id="text_13">
      <!-- 2020-10-21 -->
      <g transform="translate(86.305824 270.918437)scale(0.1 -0.1)">
       <use xlink:href="#DejaVuSans-32"/>
       <use x="63.623047" xlink:href="#DejaVuSans-30"/>
       <use x="127.246094" xlink:href="#DejaVuSans-32"/>
       <use x="190.869141" xlink:href="#DejaVuSans-30"/>
       <use x="254.492188" xlink:href="#DejaVuSans-2d"/>
       <use x="290.576172" xlink:href="#DejaVuSans-31"/>
       <use x="354.199219" xlink:href="#DejaVuSans-30"/>
       <use x="417.822266" xlink:href="#DejaVuSans-2d"/>
       <use x="453.90625" xlink:href="#DejaVuSans-32"/>
       <use x="517.529297" xlink:href="#DejaVuSans-31"/>
      </g>
     </g>
    </g>
    <g id="xtick_7">
     <g id="line2d_17">
      <g>
       <use style="stroke:#000000;stroke-width:0.8;" x="208.95639" xlink:href="#m0da9494783" y="256.32"/>
      </g>
     </g>
     <g id="text_14">
      <!-- 2020-12-11 -->
      <g transform="translate(179.898578 270.918437)scale(0.1 -0.1)">
       <use xlink:href="#DejaVuSans-32"/>
       <use x="63.623047" xlink:href="#DejaVuSans-30"/>
       <use x="127.246094" xlink:href="#DejaVuSans-32"/>
       <use x="190.869141" xlink:href="#DejaVuSans-30"/>
       <use x="254.492188" xlink:href="#DejaVuSans-2d"/>
       <use x="290.576172" xlink:href="#DejaVuSans-31"/>
       <use x="354.199219" xlink:href="#DejaVuSans-32"/>
       <use x="417.822266" xlink:href="#DejaVuSans-2d"/>
       <use x="453.90625" xlink:href="#DejaVuSans-31"/>
       <use x="517.529297" xlink:href="#DejaVuSans-31"/>
      </g>
     </g>
    </g>
    <g id="xtick_8">
     <g id="line2d_18">
      <g>
       <use style="stroke:#000000;stroke-width:0.8;" x="302.549145" xlink:href="#m0da9494783" y="256.32"/>
      </g>
     </g>
     <g id="text_15">
      <!-- 2021-01-31 -->
      <g transform="translate(273.491332 270.918437)scale(0.1 -0.1)">
       <use xlink:href="#DejaVuSans-32"/>
       <use x="63.623047" xlink:href="#DejaVuSans-30"/>
       <use x="127.246094" xlink:href="#DejaVuSans-32"/>
       <use x="190.869141" xlink:href="#DejaVuSans-31"/>
       <use x="254.492188" xlink:href="#DejaVuSans-2d"/>
       <use x="290.576172" xlink:href="#DejaVuSans-30"/>
       <use x="354.199219" xlink:href="#DejaVuSans-31"/>
       <use x="417.822266" xlink:href="#DejaVuSans-2d"/>
       <use x="453.90625" xlink:href="#DejaVuSans-33"/>
       <use x="517.529297" xlink:href="#DejaVuSans-31"/>
      </g>
     </g>
    </g>
    <g id="xtick_9">
     <g id="line2d_19">
      <g>
       <use style="stroke:#000000;stroke-width:0.8;" x="396.141899" xlink:href="#m0da9494783" y="256.32"/>
      </g>
     </g>
     <g id="text_16">
      <!-- 2021-03-22 -->
      <g transform="translate(367.084086 270.918437)scale(0.1 -0.1)">
       <use xlink:href="#DejaVuSans-32"/>
       <use x="63.623047" xlink:href="#DejaVuSans-30"/>
       <use x="127.246094" xlink:href="#DejaVuSans-32"/>
       <use x="190.869141" xlink:href="#DejaVuSans-31"/>
       <use x="254.492188" xlink:href="#DejaVuSans-2d"/>
       <use x="290.576172" xlink:href="#DejaVuSans-30"/>
       <use x="354.199219" xlink:href="#DejaVuSans-33"/>
       <use x="417.822266" xlink:href="#DejaVuSans-2d"/>
       <use x="453.90625" xlink:href="#DejaVuSans-32"/>
       <use x="517.529297" xlink:href="#DejaVuSans-32"/>
      </g>
     </g>
    </g>
    <g id="xtick_10">
     <g id="line2d_20">
      <g>
       <use style="stroke:#000000;stroke-width:0.8;" x="489.734653" xlink:href="#m0da9494783" y="256.32"/>
      </g>
     </g>
     <g id="text_17">
      <!-- 2021-05-08 -->
      <g transform="translate(460.67684 270.918437)scale(0.1 -0.1)">
       <defs>
        <path d="M 2034 2216 
Q 1584 2216 1326 1975 
Q 1069 1734 1069 1313 
Q 1069 891 1326 650 
Q 1584 409 2034 409 
Q 2484 409 2743 651 
Q 3003 894 3003 1313 
Q 3003 1734 2745 1975 
Q 2488 2216 2034 2216 
z
M 1403 2484 
Q 997 2584 770 2862 
Q 544 3141 544 3541 
Q 544 4100 942 4425 
Q 1341 4750 2034 4750 
Q 2731 4750 3128 4425 
Q 3525 4100 3525 3541 
Q 3525 3141 3298 2862 
Q 3072 2584 2669 2484 
Q 3125 2378 3379 2068 
Q 3634 1759 3634 1313 
Q 3634 634 3220 271 
Q 2806 -91 2034 -91 
Q 1263 -91 848 271 
Q 434 634 434 1313 
Q 434 1759 690 2068 
Q 947 2378 1403 2484 
z
M 1172 3481 
Q 1172 3119 1398 2916 
Q 1625 2713 2034 2713 
Q 2441 2713 2670 2916 
Q 2900 3119 2900 3481 
Q 2900 3844 2670 4047 
Q 2441 4250 2034 4250 
Q 1625 4250 1398 4047 
Q 1172 3844 1172 3481 
z
" id="DejaVuSans-38" transform="scale(0.015625)"/>
       </defs>
       <use xlink:href="#DejaVuSans-32"/>
       <use x="63.623047" xlink:href="#DejaVuSans-30"/>
       <use x="127.246094" xlink:href="#DejaVuSans-32"/>
       <use x="190.869141" xlink:href="#DejaVuSans-31"/>
       <use x="254.492188" xlink:href="#DejaVuSans-2d"/>
       <use x="290.576172" xlink:href="#DejaVuSans-30"/>
       <use x="354.199219" xlink:href="#DejaVuSans-35"/>
       <use x="417.822266" xlink:href="#DejaVuSans-2d"/>
       <use x="453.90625" xlink:href="#DejaVuSans-30"/>
       <use x="517.529297" xlink:href="#DejaVuSans-38"/>
      </g>
     </g>
    </g>
    <g id="xtick_11">
     <g id="line2d_21">
      <g>
       <use style="stroke:#000000;stroke-width:0.8;" x="583.327407" xlink:href="#m0da9494783" y="256.32"/>
      </g>
     </g>
     <g id="text_18">
      <!-- 2021-06-27 -->
      <g transform="translate(554.269594 270.918437)scale(0.1 -0.1)">
       <use xlink:href="#DejaVuSans-32"/>
       <use x="63.623047" xlink:href="#DejaVuSans-30"/>
       <use x="127.246094" xlink:href="#DejaVuSans-32"/>
       <use x="190.869141" xlink:href="#DejaVuSans-31"/>
       <use x="254.492188" xlink:href="#DejaVuSans-2d"/>
       <use x="290.576172" xlink:href="#DejaVuSans-30"/>
       <use x="354.199219" xlink:href="#DejaVuSans-36"/>
       <use x="417.822266" xlink:href="#DejaVuSans-2d"/>
       <use x="453.90625" xlink:href="#DejaVuSans-32"/>
       <use x="517.529297" xlink:href="#DejaVuSans-37"/>
      </g>
     </g>
    </g>
    <g id="text_19">
     <!-- _date -->
     <g transform="translate(355.225 284.596563)scale(0.1 -0.1)">
      <use xlink:href="#DejaVuSans-5f"/>
      <use x="50" xlink:href="#DejaVuSans-64"/>
      <use x="113.476562" xlink:href="#DejaVuSans-61"/>
      <use x="174.755859" xlink:href="#DejaVuSans-74"/>
      <use x="213.964844" xlink:href="#DejaVuSans-65"/>
     </g>
    </g>
   </g>
   <g id="matplotlib.axis_4">
    <g id="ytick_5">
     <g id="line2d_22">
      <g>
       <use style="stroke:#000000;stroke-width:0.8;" x="90" xlink:href="#mde3817dd11" y="252.029091"/>
      </g>
     </g>
     <g id="text_20">
      <!-- 0 -->
      <g transform="translate(76.6375 255.82831)scale(0.1 -0.1)">
       <use xlink:href="#DejaVuSans-30"/>
      </g>
     </g>
    </g>
    <g id="ytick_6">
     <g id="line2d_23">
      <g>
       <use style="stroke:#000000;stroke-width:0.8;" x="90" xlink:href="#mde3817dd11" y="222.938182"/>
      </g>
     </g>
     <g id="text_21">
      <!-- 100 -->
      <g transform="translate(63.9125 226.737401)scale(0.1 -0.1)">
       <use xlink:href="#DejaVuSans-31"/>
       <use x="63.623047" xlink:href="#DejaVuSans-30"/>
       <use x="127.246094" xlink:href="#DejaVuSans-30"/>
      </g>
     </g>
    </g>
    <g id="ytick_7">
     <g id="line2d_24">
      <g>
       <use style="stroke:#000000;stroke-width:0.8;" x="90" xlink:href="#mde3817dd11" y="193.847273"/>
      </g>
     </g>
     <g id="text_22">
      <!-- 200 -->
      <g transform="translate(63.9125 197.646491)scale(0.1 -0.1)">
       <use xlink:href="#DejaVuSans-32"/>
       <use x="63.623047" xlink:href="#DejaVuSans-30"/>
       <use x="127.246094" xlink:href="#DejaVuSans-30"/>
      </g>
     </g>
    </g>
    <g id="ytick_8">
     <g id="line2d_25">
      <g>
       <use style="stroke:#000000;stroke-width:0.8;" x="90" xlink:href="#mde3817dd11" y="164.756364"/>
      </g>
     </g>
     <g id="text_23">
      <!-- 300 -->
      <g transform="translate(63.9125 168.555582)scale(0.1 -0.1)">
       <use xlink:href="#DejaVuSans-33"/>
       <use x="63.623047" xlink:href="#DejaVuSans-30"/>
       <use x="127.246094" xlink:href="#DejaVuSans-30"/>
      </g>
     </g>
    </g>
   </g>
   <g id="line2d_26">
    <path clip-path="url(#p98eb8e48a9)" d="M 115.363636 251.738182 
L 117.235491 230.210909 
L 119.107347 227.592727 
L 120.979202 244.174545 
L 122.851057 251.447273 
L 124.722912 238.356364 
L 126.594767 238.065455 
L 128.466622 233.992727 
L 130.338477 238.065455 
L 132.210332 238.938182 
L 134.082187 250.574545 
L 135.954042 248.247273 
L 137.825897 247.374545 
L 139.697752 238.938182 
L 141.569608 210.429091 
L 143.441463 225.265455 
L 145.313318 243.592727 
L 147.185173 247.083636 
L 149.057028 251.156364 
L 150.928883 238.065455 
L 152.800738 223.52 
L 154.672593 245.629091 
L 156.544448 243.010909 
L 158.416303 236.32 
L 160.288158 236.32 
L 162.160013 249.701818 
L 164.031869 236.610909 
L 165.903724 232.829091 
L 167.775579 243.301818 
L 169.647434 243.301818 
L 171.519289 238.356364 
L 173.391144 246.792727 
L 175.262999 249.12 
L 177.134854 225.556364 
L 179.006709 248.829091 
L 180.878564 247.956364 
L 182.750419 249.701818 
L 184.622274 247.665455 
L 186.494129 251.447273 
L 188.365985 251.447273 
L 190.23784 227.301818 
L 192.109695 214.210909 
L 193.98155 243.592727 
L 195.853405 245.047273 
L 197.72526 225.847273 
L 199.597115 250.865455 
L 201.46897 244.756364 
L 203.340825 241.265455 
L 205.21268 245.92 
L 207.084535 235.738182 
L 208.95639 246.792727 
L 210.828246 250.865455 
L 212.700101 251.738182 
L 214.571956 243.592727 
L 216.443811 241.847273 
L 218.315666 242.138182 
L 220.187521 240.683636 
L 222.059376 248.829091 
L 223.931231 250.865455 
L 225.803086 250.574545 
L 227.674941 247.083636 
L 229.546796 247.665455 
L 231.418651 242.429091 
L 233.290507 249.992727 
L 235.162362 251.156364 
L 237.034217 251.447273 
L 238.906072 248.247273 
L 240.777927 249.410909 
L 242.649782 250.283636 
L 244.521637 251.738182 
L 246.393492 247.083636 
L 248.265347 247.374545 
L 250.137202 250.865455 
L 252.009057 246.210909 
L 253.880912 242.429091 
L 255.752768 239.810909 
L 257.624623 247.665455 
L 259.496478 248.829091 
L 261.368333 231.956364 
L 263.240188 250.283636 
L 265.112043 233.701818 
L 266.983898 235.447273 
L 268.855753 239.810909 
L 270.727608 233.12 
L 272.599463 246.792727 
L 274.471318 234.574545 
L 276.343173 251.156364 
L 278.215029 233.410909 
L 280.086884 234.865455 
L 281.958739 226.138182 
L 283.830594 232.247273 
L 285.702449 239.810909 
L 287.574304 242.72 
L 289.446159 248.247273 
L 291.318014 228.465455 
L 293.189869 223.810909 
L 295.061724 236.029091 
L 296.933579 234.574545 
L 298.805434 231.956364 
L 300.67729 247.374545 
L 302.549145 248.538182 
L 304.421 229.629091 
L 306.292855 246.792727 
L 310.036565 232.829091 
L 313.780275 250.865455 
L 315.65213 247.665455 
L 317.523985 235.156364 
L 319.39584 234.574545 
L 321.267695 224.683636 
L 323.13955 241.847273 
L 325.011406 250.283636 
L 326.883261 250.574545 
L 328.755116 249.12 
L 330.626971 242.429091 
L 332.498826 242.72 
L 334.370681 246.792727 
L 336.242536 230.501818 
L 338.114391 248.247273 
L 339.986246 241.847273 
L 341.858101 238.938182 
L 343.729956 240.683636 
L 345.601811 224.974545 
L 347.473667 235.447273 
L 349.345522 234.574545 
L 351.217377 239.810909 
L 353.089232 238.065455 
L 354.961087 239.229091 
L 356.832942 181.92 
L 358.704797 245.629091 
L 360.576652 230.501818 
L 362.448507 234.283636 
L 364.320362 226.429091 
L 366.192217 241.556364 
L 368.064072 198.792727 
L 369.935928 197.047273 
L 371.807783 203.156364 
L 373.679638 228.756364 
L 375.551493 172.029091 
L 377.423348 222.938182 
L 379.295203 245.92 
L 381.167058 245.047273 
L 383.038913 237.192727 
L 384.910768 230.792727 
L 386.782623 227.301818 
L 388.654478 234.283636 
L 390.526333 223.229091 
L 392.398189 243.592727 
L 394.270044 245.629091 
L 396.141899 204.32 
L 398.013754 204.610909 
L 399.885609 232.247273 
L 401.757464 233.992727 
L 403.629319 246.210909 
L 405.501174 248.538182 
L 407.373029 247.956364 
L 409.244884 232.538182 
L 411.116739 221.192727 
L 412.988594 182.501818 
L 414.86045 229.338182 
L 416.732305 233.992727 
L 418.60416 213.338182 
L 420.476015 244.174545 
L 422.34787 248.247273 
L 424.219725 244.756364 
L 426.09158 221.192727 
L 427.963435 238.356364 
L 429.83529 222.647273 
L 431.707145 199.083636 
L 433.579 233.410909 
L 435.450855 240.974545 
L 437.32271 245.92 
L 439.194566 175.229091 
L 441.066421 174.356364 
L 442.938276 227.010909 
L 444.810131 243.301818 
L 446.681986 234.865455 
L 448.553841 236.32 
L 450.425696 248.829091 
L 452.297551 246.792727 
L 454.169406 185.992727 
L 456.041261 179.010909 
L 457.913116 197.047273 
L 459.784971 242.72 
L 461.656827 249.12 
L 463.528682 236.32 
L 465.400537 247.374545 
L 467.272392 236.029091 
L 469.144247 223.810909 
L 471.016102 160.101818 
L 472.887957 221.483636 
L 474.759812 220.610909 
L 476.631667 225.556364 
L 478.503522 245.338182 
L 480.375377 246.210909 
L 482.247232 219.447273 
L 484.119088 235.738182 
L 485.990943 235.447273 
L 487.862798 225.847273 
L 489.734653 243.010909 
L 491.606508 249.12 
L 493.478363 196.756364 
L 495.350218 236.901818 
L 497.222073 211.883636 
L 499.093928 205.483636 
L 500.965783 212.465455 
L 502.837638 249.701818 
L 504.709493 249.701818 
L 506.581349 221.774545 
L 508.453204 232.538182 
L 510.325059 231.956364 
L 512.196914 238.647273 
L 514.068769 242.429091 
L 515.940624 248.247273 
L 517.812479 245.92 
L 519.684334 225.265455 
L 521.556189 243.883636 
L 523.428044 240.101818 
L 525.299899 231.665455 
L 527.171754 238.356364 
L 529.04361 249.701818 
L 530.915465 249.701818 
L 532.78732 242.72 
L 534.659175 239.810909 
L 536.53103 246.210909 
L 538.402885 240.974545 
L 540.27474 243.301818 
L 542.146595 249.12 
L 544.01845 247.374545 
L 545.890305 230.501818 
L 547.76216 236.029091 
L 549.634015 165.92 
L 551.505871 212.756364 
L 553.377726 243.883636 
L 555.249581 241.847273 
L 557.121436 249.992727 
L 558.993291 231.665455 
L 560.865146 233.701818 
L 562.737001 241.556364 
L 564.608856 240.683636 
L 566.480711 235.156364 
L 568.352566 249.701818 
L 570.224421 250.283636 
L 572.096276 191.52 
L 573.968131 238.938182 
L 575.839987 244.756364 
L 577.711842 247.083636 
L 579.583697 200.247273 
L 581.455552 247.083636 
L 583.327407 247.956364 
L 587.071117 241.556364 
L 588.942972 241.847273 
L 590.814827 223.229091 
L 592.686682 244.174545 
L 594.558537 249.701818 
L 596.430392 243.301818 
L 598.302248 245.047273 
L 600.174103 178.138182 
L 602.045958 195.883636 
L 603.917813 240.101818 
L 605.789668 242.138182 
L 607.661523 244.465455 
L 609.533378 243.883636 
L 611.405233 231.083636 
L 613.277088 241.847273 
L 615.148943 243.010909 
L 617.020798 221.483636 
L 618.892653 238.938182 
L 620.764509 250.283636 
L 622.636364 251.738182 
L 622.636364 251.738182 
" style="fill:none;stroke:#1f77b4;stroke-linecap:square;stroke-width:1.5;"/>
   </g>
   <g id="line2d_27">
    <path clip-path="url(#p98eb8e48a9)" d="M 115.363636 251.738182 
L 117.235491 249.410909 
L 119.107347 248.247273 
L 120.979202 249.410909 
L 122.851057 251.738182 
L 124.722912 249.992727 
L 126.594767 249.12 
L 128.466622 249.12 
L 130.338477 248.829091 
L 132.210332 249.410909 
L 134.082187 251.447273 
L 141.569608 249.12 
L 143.441463 248.829091 
L 145.313318 249.992727 
L 149.057028 251.738182 
L 150.928883 248.829091 
L 152.800738 249.410909 
L 154.672593 250.574545 
L 156.544448 250.865455 
L 158.416303 250.574545 
L 160.288158 251.447273 
L 162.160013 251.156364 
L 164.031869 249.992727 
L 165.903724 251.156364 
L 167.775579 248.829091 
L 169.647434 249.701818 
L 171.519289 250.283636 
L 173.391144 251.156364 
L 175.262999 251.156364 
L 177.134854 247.374545 
L 179.006709 251.447273 
L 180.878564 251.447273 
L 182.750419 251.156364 
L 186.494129 251.738182 
L 188.365985 251.447273 
L 190.23784 249.410909 
L 192.109695 246.792727 
L 193.98155 248.538182 
L 195.853405 249.992727 
L 197.72526 249.992727 
L 199.597115 251.447273 
L 201.46897 250.283636 
L 203.340825 249.992727 
L 205.21268 250.865455 
L 207.084535 247.665455 
L 208.95639 249.410909 
L 210.828246 251.447273 
L 212.700101 251.738182 
L 214.571956 249.12 
L 218.315666 249.12 
L 220.187521 249.992727 
L 222.059376 250.283636 
L 223.931231 251.156364 
L 225.803086 251.447273 
L 227.674941 250.865455 
L 229.546796 250.574545 
L 231.418651 251.156364 
L 235.162362 251.156364 
L 237.034217 251.447273 
L 238.906072 250.865455 
L 242.649782 250.865455 
L 244.521637 251.738182 
L 246.393492 251.156364 
L 248.265347 251.156364 
L 250.137202 250.865455 
L 252.009057 249.701818 
L 253.880912 247.956364 
L 255.752768 249.992727 
L 257.624623 251.156364 
L 259.496478 250.865455 
L 261.368333 250.865455 
L 263.240188 251.156364 
L 265.112043 249.410909 
L 266.983898 248.538182 
L 268.855753 249.701818 
L 270.727608 246.792727 
L 272.599463 249.701818 
L 274.471318 250.283636 
L 276.343173 251.156364 
L 278.215029 250.574545 
L 280.086884 250.574545 
L 281.958739 248.247273 
L 283.830594 249.410909 
L 285.702449 249.12 
L 287.574304 249.12 
L 289.446159 250.283636 
L 291.318014 245.92 
L 293.189869 247.665455 
L 295.061724 249.12 
L 296.933579 247.374545 
L 298.805434 246.210909 
L 300.67729 250.865455 
L 302.549145 250.574545 
L 304.421 248.538182 
L 306.292855 249.992727 
L 308.16471 247.956364 
L 310.036565 249.410909 
L 311.90842 249.410909 
L 313.780275 250.865455 
L 315.65213 251.156364 
L 317.523985 248.829091 
L 319.39584 247.956364 
L 321.267695 248.247273 
L 323.13955 250.865455 
L 325.011406 251.447273 
L 328.755116 250.865455 
L 330.626971 250.865455 
L 332.498826 249.410909 
L 334.370681 250.283636 
L 336.242536 248.829091 
L 338.114391 250.865455 
L 339.986246 250.283636 
L 341.858101 250.865455 
L 343.729956 249.12 
L 345.601811 248.829091 
L 347.473667 248.829091 
L 349.345522 247.956364 
L 351.217377 250.283636 
L 353.089232 250.865455 
L 354.961087 250.865455 
L 356.832942 242.138182 
L 358.704797 248.829091 
L 360.576652 248.829091 
L 362.448507 247.374545 
L 364.320362 249.12 
L 366.192217 250.574545 
L 368.064072 250.574545 
L 369.935928 246.210909 
L 371.807783 246.501818 
L 373.679638 248.247273 
L 375.551493 246.501818 
L 377.423348 247.374545 
L 379.295203 249.992727 
L 381.167058 250.865455 
L 383.038913 247.374545 
L 384.910768 245.92 
L 386.782623 247.083636 
L 388.654478 247.374545 
L 390.526333 249.410909 
L 392.398189 251.156364 
L 394.270044 249.992727 
L 396.141899 247.665455 
L 398.013754 247.956364 
L 399.885609 247.665455 
L 401.757464 248.538182 
L 403.629319 250.574545 
L 407.373029 251.156364 
L 409.244884 249.992727 
L 411.116739 249.410909 
L 412.988594 246.210909 
L 414.86045 247.083636 
L 416.732305 248.538182 
L 418.60416 246.792727 
L 420.476015 249.701818 
L 422.34787 251.156364 
L 426.09158 249.410909 
L 427.963435 248.247273 
L 429.83529 248.538182 
L 431.707145 247.374545 
L 433.579 249.12 
L 435.450855 249.410909 
L 437.32271 250.865455 
L 439.194566 245.629091 
L 441.066421 245.338182 
L 442.938276 247.956364 
L 444.810131 248.829091 
L 446.681986 249.12 
L 448.553841 249.12 
L 450.425696 250.865455 
L 452.297551 250.283636 
L 454.169406 245.629091 
L 456.041261 244.174545 
L 457.913116 246.792727 
L 459.784971 248.829091 
L 461.656827 250.283636 
L 463.528682 249.12 
L 465.400537 250.283636 
L 467.272392 246.210909 
L 469.144247 246.501818 
L 471.016102 228.465455 
L 472.887957 247.956364 
L 474.759812 246.501818 
L 476.631667 250.574545 
L 478.503522 251.738182 
L 480.375377 249.701818 
L 482.247232 248.247273 
L 484.119088 248.247273 
L 485.990943 248.538182 
L 487.862798 247.665455 
L 491.606508 251.156364 
L 493.478363 249.12 
L 495.350218 248.247273 
L 497.222073 246.792727 
L 499.093928 247.083636 
L 500.965783 245.629091 
L 502.837638 250.574545 
L 504.709493 251.738182 
L 506.581349 245.629091 
L 508.453204 247.083636 
L 510.325059 249.410909 
L 512.196914 247.374545 
L 514.068769 248.247273 
L 515.940624 251.447273 
L 517.812479 250.283636 
L 519.684334 248.247273 
L 521.556189 249.410909 
L 523.428044 247.956364 
L 525.299899 246.210909 
L 529.04361 250.865455 
L 530.915465 251.156364 
L 532.78732 249.12 
L 534.659175 247.665455 
L 536.53103 249.992727 
L 538.402885 249.410909 
L 540.27474 249.410909 
L 544.01845 249.992727 
L 545.890305 246.792727 
L 547.76216 248.829091 
L 549.634015 248.829091 
L 551.505871 249.992727 
L 553.377726 249.12 
L 555.249581 251.156364 
L 557.121436 250.283636 
L 558.993291 248.247273 
L 560.865146 249.12 
L 562.737001 248.829091 
L 564.608856 248.247273 
L 566.480711 249.12 
L 568.352566 251.156364 
L 570.224421 250.865455 
L 572.096276 247.374545 
L 573.968131 250.574545 
L 575.839987 249.701818 
L 577.711842 249.12 
L 579.583697 245.629091 
L 581.455552 251.156364 
L 583.327407 250.574545 
L 585.199262 249.701818 
L 587.071117 250.283636 
L 588.942972 248.829091 
L 590.814827 247.956364 
L 592.686682 249.12 
L 594.558537 250.865455 
L 596.430392 250.865455 
L 598.302248 249.410909 
L 600.174103 247.083636 
L 602.045958 247.083636 
L 603.917813 250.283636 
L 605.789668 248.538182 
L 607.661523 250.574545 
L 609.533378 249.410909 
L 611.405233 247.665455 
L 613.277088 248.538182 
L 615.148943 248.538182 
L 617.020798 247.665455 
L 618.892653 247.956364 
L 620.764509 251.156364 
L 622.636364 251.738182 
L 622.636364 251.738182 
" style="fill:none;stroke:#ff7f0e;stroke-linecap:square;stroke-width:1.5;"/>
   </g>
   <g id="patch_9">
    <path d="M 90 256.32 
L 90 155.52 
" style="fill:none;stroke:#000000;stroke-linecap:square;stroke-linejoin:miter;stroke-width:0.8;"/>
   </g>
   <g id="patch_10">
    <path d="M 648 256.32 
L 648 155.52 
" style="fill:none;stroke:#000000;stroke-linecap:square;stroke-linejoin:miter;stroke-width:0.8;"/>
   </g>
   <g id="patch_11">
    <path d="M 90 256.32 
L 648 256.32 
" style="fill:none;stroke:#000000;stroke-linecap:square;stroke-linejoin:miter;stroke-width:0.8;"/>
   </g>
   <g id="patch_12">
    <path d="M 90 155.52 
L 648 155.52 
" style="fill:none;stroke:#000000;stroke-linecap:square;stroke-linejoin:miter;stroke-width:0.8;"/>
   </g>
   <g id="legend_2">
    <g id="patch_13">
     <path d="M 97 192.87625 
L 234.217188 192.87625 
Q 236.217188 192.87625 236.217188 190.87625 
L 236.217188 162.52 
Q 236.217188 160.52 234.217188 160.52 
L 97 160.52 
Q 95 160.52 95 162.52 
L 95 190.87625 
Q 95 192.87625 97 192.87625 
z
" style="fill:#ffffff;opacity:0.8;stroke:#cccccc;stroke-linejoin:miter;"/>
    </g>
    <g id="line2d_28">
     <path d="M 99 168.618437 
L 119 168.618437 
" style="fill:none;stroke:#1f77b4;stroke-linecap:square;stroke-width:1.5;"/>
    </g>
    <g id="line2d_29"/>
    <g id="text_24">
     <!-- Total GitHub Views -->
     <g transform="translate(127 172.118437)scale(0.1 -0.1)">
      <defs>
       <path d="M 1831 0 
L 50 4666 
L 709 4666 
L 2188 738 
L 3669 4666 
L 4325 4666 
L 2547 0 
L 1831 0 
z
" id="DejaVuSans-56" transform="scale(0.015625)"/>
       <path d="M 269 3500 
L 844 3500 
L 1563 769 
L 2278 3500 
L 2956 3500 
L 3675 769 
L 4391 3500 
L 4966 3500 
L 4050 0 
L 3372 0 
L 2619 2869 
L 1863 0 
L 1184 0 
L 269 3500 
z
" id="DejaVuSans-77" transform="scale(0.015625)"/>
      </defs>
      <use xlink:href="#DejaVuSans-54"/>
      <use x="44.083984" xlink:href="#DejaVuSans-6f"/>
      <use x="105.265625" xlink:href="#DejaVuSans-74"/>
      <use x="144.474609" xlink:href="#DejaVuSans-61"/>
      <use x="205.753906" xlink:href="#DejaVuSans-6c"/>
      <use x="233.537109" xlink:href="#DejaVuSans-20"/>
      <use x="265.324219" xlink:href="#DejaVuSans-47"/>
      <use x="342.814453" xlink:href="#DejaVuSans-69"/>
      <use x="370.597656" xlink:href="#DejaVuSans-74"/>
      <use x="409.806641" xlink:href="#DejaVuSans-48"/>
      <use x="485.001953" xlink:href="#DejaVuSans-75"/>
      <use x="548.380859" xlink:href="#DejaVuSans-62"/>
      <use x="611.857422" xlink:href="#DejaVuSans-20"/>
      <use x="643.644531" xlink:href="#DejaVuSans-56"/>
      <use x="709.802734" xlink:href="#DejaVuSans-69"/>
      <use x="737.585938" xlink:href="#DejaVuSans-65"/>
      <use x="799.109375" xlink:href="#DejaVuSans-77"/>
      <use x="880.896484" xlink:href="#DejaVuSans-73"/>
     </g>
    </g>
    <g id="line2d_30">
     <path d="M 99 183.296562 
L 119 183.296562 
" style="fill:none;stroke:#ff7f0e;stroke-linecap:square;stroke-width:1.5;"/>
    </g>
    <g id="line2d_31"/>
    <g id="text_25">
     <!-- Unique GitHub Views -->
     <g transform="translate(127 186.796562)scale(0.1 -0.1)">
      <use xlink:href="#DejaVuSans-55"/>
      <use x="73.193359" xlink:href="#DejaVuSans-6e"/>
      <use x="136.572266" xlink:href="#DejaVuSans-69"/>
      <use x="164.355469" xlink:href="#DejaVuSans-71"/>
      <use x="227.832031" xlink:href="#DejaVuSans-75"/>
      <use x="291.210938" xlink:href="#DejaVuSans-65"/>
      <use x="352.734375" xlink:href="#DejaVuSans-20"/>
      <use x="384.521484" xlink:href="#DejaVuSans-47"/>
      <use x="462.011719" xlink:href="#DejaVuSans-69"/>
      <use x="489.794922" xlink:href="#DejaVuSans-74"/>
      <use x="529.003906" xlink:href="#DejaVuSans-48"/>
      <use x="604.199219" xlink:href="#DejaVuSans-75"/>
      <use x="667.578125" xlink:href="#DejaVuSans-62"/>
      <use x="731.054688" xlink:href="#DejaVuSans-20"/>
      <use x="762.841797" xlink:href="#DejaVuSans-56"/>
      <use x="829" xlink:href="#DejaVuSans-69"/>
      <use x="856.783203" xlink:href="#DejaVuSans-65"/>
      <use x="918.306641" xlink:href="#DejaVuSans-77"/>
      <use x="1000.09375" xlink:href="#DejaVuSans-73"/>
     </g>
    </g>
   </g>
  </g>
 </g>
 <defs>
  <clipPath id="p235f03eb03">
   <rect height="100.8" width="558" x="90" y="34.56"/>
  </clipPath>
  <clipPath id="p98eb8e48a9">
   <rect height="100.8" width="558" x="90" y="155.52"/>
  </clipPath>
 </defs>
</svg>
